<?xml version="1.0" encoding="UTF-8" standalone="no"?><svg width="282.222mm" height="141.111mm" xmlns="http://www.w3.org/2000/svg" xmlns:xlink="http://www.w3.org/1999/xlink"  version="1.2" baseProfile="tiny"><g fill="none" stroke="#ff0000" stroke-linecap="round" stroke-linejoin="round" stroke-opacity="1" stroke-width="1.5" transform="matrix(1,0,0,1,0,0)">
<polyline fill="none" points="34,318 35,318 35,318 35,318 35,317 35,316 35,315 35,313 35,313 36,313 36,312 36,312 36,311 36,311 36,310 36,310 36,310 36,310 37,310 37,310 37,310 37,310 37,310 37,310 37,310 37,310 37,310 38,310 38,310 38,310 38,310 38,310 38,310 38,310 38,310 39,310 39,310 39,309 39,309 39,309 39,309 39,309 39,309 39,309 40,309 40,309 40,308 40,308 40,308 40,308 40,308 40,308 40,308 41,308 41,308 41,308 41,308 41,308 41,308 41,308 41,308 42,308 42,308 42,308 42,308 42,307 42,307 42,307 42,307 42,307 43,307 43,307 43,307 43,307 43,307 43,307 43,307 43,307 43,307 44,307 44,306 44,306 44,306 44,306 44,306 44,306 44,306 44,306 45,306 45,305 45,305 45,305 45,305 45,305 45,305 45,305 46,305 46,304 46,304 46,304 46,304 46,304 46,304 46,304 46,304 47,303 47,303 47,303 47,303 47,303 47,303 47,303 47,302 47,302 48,302 48,302 48,302 48,302 48,302 48,302 48,301 48,301 49,301 49,301 49,301 49,301 49,301 49,300 49,300 49,300 49,300 50,300 50,300 50,300 50,300 50,299 50,299 50,299 50,299 50,299 51,299 51,299 51,298 51,298 51,298 51,298 51,298 51,298 52,298 52,298 52,297 52,297 52,297 52,297 52,297 52,297 52,297 53,296 53,296 53,296 53,296 53,296 53,296 53,296 53,295 53,295 54,295 54,295 54,295 54,295 54,295 54,295 54,294 54,294 55,294 55,294 55,294 55,294 55,294 55,293 55,293 55,293 55,293 56,293 56,293 56,293 56,293 56,292 56,292 56,292 56,292 56,292 57,292 57,292 57,292 57,291 57,291 57,291 57,291 57,291 58,291 58,291 58,291 58,291 58,290 58,290 58,290 58,290 58,290 59,289 59,289 59,289 59,289 59,289 59,288 59,288 59,288 59,288 60,289 60,289 60,289 60,289 60,289 60,289 60,289 60,289 61,289 61,289 61,289 61,288 61,288 61,288 61,287 61,287 61,287 62,286 62,286 62,286 62,286 62,286 62,286 62,286 62,286 62,286 63,286 63,286 63,286 63,286 63,286 63,285 63,285 63,285 63,285 64,284 64,284 64,284 64,283 64,283 64,282 64,282 64,282 65,282 65,282 65,282 65,282 65,282 65,282 65,282 65,282 65,282 66,281 66,281 66,281 66,281 66,281 66,281 66,280 66,280 66,280 67,280 67,280 67,280 67,279 67,279 67,279 67,279 67,279 68,279 68,279 68,279 68,279 68,279 68,279 68,280 68,280 68,280 69,281 69,281 69,282 69,282 69,282 69,282 69,283 69,283 69,283 70,284 70,284 70,285 70,285 70,286 70,286 70,287 70,288 71,288 71,289 71,290 71,290 71,290 71,289 71,289 71,289 71,288 72,287 72,287 72,286 72,286 72,285 72,284 72,284 72,283 72,283 73,282 73,282 73,282 73,281 73,281 73,280 73,280 73,279 74,279 74,279 74,278 74,278 74,277 74,277 74,276 74,276 74,276 75,275 75,275 75,275 75,275 75,275 75,275 75,275 75,275 75,275 76,275 76,275 76,275 76,275 76,275 76,275 76,275 76,274 77,274 77,274 77,273 77,273 77,273 77,273 77,273 77,273 77,273 78,273 78,272 78,272 78,272 78,272 78,272 78,272 78,272 78,273 79,273 79,273 79,273 79,273 79,273 79,273 79,273 79,273 79,272 80,272 80,272 80,272 80,272 80,272 80,272 80,272 80,272 81,272 81,272 81,271 81,272 81,271 81,271 81,271 81,271 81,271 82,271 82,271 82,271 82,270 82,270 82,269 82,269 82,269 82,269 83,268 83,268 83,268 83,268 83,267 83,267 83,267 83,267 84,267 84,267 84,267 84,266 84,266 84,266 84,266 84,266 84,266 85,266 85,266 85,266 85,266 85,265 85,265 85,265 85,265 85,265 86,265 86,265 86,264 86,264 86,264 86,263 86,263 86,263 87,263 87,263 87,262 87,262 87,262 87,262 87,261 87,261 87,261 88,260 88,260 88,260 88,259 88,259 88,259 88,258 88,258 88,258 89,257 89,257 89,257 89,257 89,257 89,256 89,256 89,256 90,256 90,256 90,256 90,256 90,256 90,256 90,256 90,256 90,256 91,256 91,256 91,256 91,256 91,257 91,257 91,257 91,258 91,258 92,258 92,259 92,259 92,259 92,260 92,260 92,261 92,261 93,262 93,262 93,263 93,263 93,264 93,264 93,265 93,265 93,266 94,266 94,266 94,267 94,267 94,268 94,268 94,269 94,269 94,270 95,270 95,271 95,271 95,272 95,272 95,272 95,273 95,273 96,274 96,274 96,274 96,274 96,275 96,275 96,275 96,275 96,275 97,275 97,275 97,274 97,274 97,274 97,274 97,273 97,273 97,273 98,272 98,272 98,272 98,272 98,271 98,271 98,271 98,271 98,270 99,270 99,270 99,270 99,269 99,269 99,269 99,269 99,269 100,269 100,269 100,269 100,269 100,269 100,269 100,269 100,269 100,269 101,270 101,270 101,269 101,269 101,269 101,269 101,269 101,269 101,269 102,268 102,267 102,267 102,267 102,266 102,266 102,265 102,265 103,265 103,264 103,264 103,263 103,263 103,263 103,262 103,262 103,261 104,261 104,261 104,260 104,260 104,260 104,259 104,259 104,258 104,258 105,258 105,257 105,257 105,257 105,256 105,256 105,256 105,255 106,255 106,254 106,254 106,253 106,253 106,253 106,252 106,252 106,251 107,251 107,251 107,250 107,249 107,249 107,248 107,248 107,248 107,247 108,247 108,247 108,247 108,247 108,246 108,246 108,246 108,246 109,246 109,246 109,246 109,246 109,246 109,246 109,246 109,246 109,246 110,246 110,246 110,246 110,246 110,246 110,246 110,246 110,246 110,246 111,246 111,246 111,246 111,246 111,246 111,246 111,246 111,246 112,246 112,246 112,246 112,246 112,246 112,246 112,246 112,245 112,245 113,245 113,245 113,245 113,245 113,245 113,245 113,245 113,245 113,245 114,244 114,244 114,244 114,244 114,244 114,244 114,244 114,244 114,244 115,244 115,244 115,244 115,244 115,244 115,244 115,244 115,244 116,244 116,244 116,244 116,244 116,244 116,244 116,244 116,244 116,244 117,244 117,244 117,244 117,244 117,244 117,244 117,244 117,244 117,243 118,243 118,243 118,243 118,243 118,243 118,243 118,243 118,242 119,242 119,242 119,242 119,242 119,242 119,242 119,242 119,242 119,242 120,242 120,242 120,242 120,242 120,242 120,242 120,242 120,242 120,242 121,242 121,242 121,242 121,242 121,242 121,242 121,242 121,242 122,242 122,242 122,242 122,242 122,242 122,242 122,241 122,241 122,241 123,241 123,241 123,241 123,241 123,241 123,241 123,241 123,241 123,241 124,241 124,241 124,241 124,241 124,241 124,242 124,242 124,242 125,242 125,242 125,243 125,243 125,243 125,244 125,244 125,244 125,245 126,245 126,245 126,246 126,246 126,246 126,247 126,247 126,248 126,248 127,248 127,249 127,249 127,249 127,249 127,249 127,249 127,249 128,250 128,250 128,250 128,250 128,250 128,250 128,250 128,250 128,249 129,249 129,249 129,249 129,249 129,249 129,248 129,248 129,248 129,248 130,247 130,247 130,247 130,247 130,246 130,246 130,246 130,245 130,245 131,245 131,244 131,244 131,243 131,243 131,243 131,243 131,242 132,242 132,242 132,242 132,242 132,242 132,242 132,242 132,242 132,242 133,241 133,241 133,241 133,241 133,240 133,240 133,240 133,240 133,240 134,240 134,240 134,240 134,240 134,240 134,239 134,239 134,239 135,238 135,238 135,238 135,238 135,237 135,237 135,237 135,237 135,237 136,237 136,236 136,236 136,236 136,236 136,237 136,237 136,237 136,237 137,237 137,237 137,237 137,236 137,236 137,236 137,237 137,237 138,237 138,237 138,237 138,237 138,237 138,237 138,236 138,236 138,236 139,236 139,236 139,236 139,237 139,237 139,237 139,236 139,236 139,236 140,236 140,236 140,236 140,236 140,236 140,237 140,237 140,237 141,237 141,237 141,237 141,237 141,237 141,237 141,237 141,237 141,236 142,236 142,236 142,236 142,236 142,236 142,235 142,235 142,235 142,235 143,235 143,235 143,234 143,234 143,234 143,234 143,234 143,233 144,233 144,233 144,233 144,233 144,233 144,232 144,232 144,232 144,232 145,231 145,231 145,231 145,231 145,230 145,230 145,230 145,229 145,229 146,229 146,228 146,228 146,228 146,228 146,228 146,228 146,228 147,228 147,228 147,228 147,228 147,228 147,228 147,228 147,228 147,228 148,228 148,228 148,228 148,228 148,228 148,228 148,228 148,229 148,229 149,229 149,229 149,230 149,230 149,230 149,230 149,231 149,231 149,232 150,232 150,232 150,233 150,233 150,234 150,234 150,234 150,235 151,235 151,236 151,236 151,236 151,237 151,237 151,237 151,238 151,238 152,239 152,240 152,240 152,241 152,242 152,242 152,243 152,244 152,244 153,245 153,245 153,246 153,246 153,247 153,247 153,248 153,248 154,248 154,249 154,249 154,249 154,249 154,250 154,250 154,249 154,250 155,250 155,250 155,250 155,250 155,249 155,249 155,249 155,249 155,249 156,249 156,249 156,249 156,249 156,248 156,248 156,248 156,248 157,247 157,247 157,247 157,246 157,246 157,245 157,245 157,244 157,244 158,243 158,243 158,242 158,242 158,242 158,241 158,241 158,240 158,240 159,240 159,240 159,239 159,239 159,239 159,239 159,238 159,238 160,238 160,238 160,238 160,238 160,238 160,238 160,239 160,239 160,239 161,239 161,239 161,239 161,239 161,239 161,240 161,240 161,240 161,240 162,240 162,240 162,240 162,240 162,240 162,240 162,240 162,240 163,240 163,240 163,240 163,241 163,241 163,241 163,241 163,241 163,242 164,242 164,242 164,242 164,242 164,243 164,243 164,243 164,243 164,244 165,244 165,244 165,245 165,245 165,245 165,245 165,246 165,246 165,246 166,246 166,246 166,247 166,247 166,247 166,247 166,247 166,246 167,246 167,246 167,247 167,247 167,247 167,247 167,248 167,248 167,249 168,249 168,250 168,251 168,251 168,252 168,252 168,253 168,253 168,254 169,254 169,255 169,255 169,256 169,256 169,257 169,257 169,258 170,259 170,259 170,260 170,260 170,261 170,262 170,262 170,263 170,264 171,264 171,265 171,265 171,265 171,266 171,266 171,266 171,265 171,265 172,264 172,263 172,263 172,262 172,261 172,260 172,260 172,259 173,259 173,258 173,258 173,257 173,257 173,256 173,256 173,256 173,256 174,255 174,255 174,255 174,255 174,255 174,255 174,255 174,255 174,255 175,255 175,255 175,255 175,255 175,255 175,255 175,255 175,255 176,255 176,255 176,255 176,255 176,255 176,255 176,256 176,257 176,258 177,258 177,259 177,260 177,261 177,262 177,262 177,263 177,264 177,265 178,265 178,266 178,267 178,268 178,268 178,269 178,269 178,269 179,270 179,270 179,270 179,271 179,271 179,271 179,270 179,270 179,270 180,269 180,269 180,268 180,267 180,267 180,266 180,265 180,265 180,264 181,264 181,264 181,264 181,264 181,264 181,264 181,264 181,264 182,264 182,265 182,265 182,265 182,265 182,265 182,265 182,265 182,265 183,265 183,265 183,265 183,265 183,265 183,265 183,265 183,265 183,266 184,266 184,267 184,268 184,269 184,271 184,272 184,273 184,274 184,275 185,275 185,276 185,277 185,277 185,278 185,278 185,278 185,278 186,278 186,279 186,279 186,280 186,280 186,281 186,281 186,281 186,282 187,282 187,282 187,283 187,283 187,284 187,284 187,284 187,285 187,285 188,285 188,286 188,286 188,286 188,287 188,287 188,288 188,288 189,288 189,288 189,288 189,288 189,288 189,289 189,289 189,289 189,289 190,289 190,289 190,289 190,289 190,289 190,289 190,289 190,289 190,289 191,289 191,289 191,289 191,290 191,290 191,290 191,290 191,290 192,290 192,290 192,290 192,290 192,290 192,290 192,290 192,290 192,290 193,290 193,290 193,290 193,289 193,289 193,288 193,288 193,288 193,288 194,287 194,287 194,287 194,287 194,286 194,286 194,285 194,285 195,285 195,285 195,285 195,284 195,284 195,284 195,284 195,284 195,284 196,283 196,283 196,283 196,283 196,283 196,282 196,282 196,282 196,281 197,281 197,281 197,280 197,280 197,280 197,279 197,279 197,279 198,279 198,278 198,278 198,278 198,278 198,278 198,278 198,277 198,277 199,277 199,277 199,277 199,276 199,276 199,275 199,275 199,274 199,273 200,272 200,272 200,271 200,270 200,269 200,269 200,268 200,267 200,266 201,266 201,265 201,264 201,263 201,263 201,262 201,261 201,259 202,258 202,257 202,257 202,257 202,256 202,256 202,257 202,257 202,257 203,257 203,257 203,258 203,258 203,258 203,258 203,258 203,258 203,258 204,258 204,258 204,258 204,258 204,258 204,258 204,258 204,258 205,259 205,259 205,259 205,260 205,260 205,260 205,261 205,261 205,261 206,262 206,262 206,263 206,263 206,263 206,263 206,264 206,264 206,264 207,265 207,265 207,266 207,266 207,267 207,267 207,267 207,267 208,268 208,268 208,268 208,269 208,269 208,269 208,269 208,270 208,270 209,270 209,270 209,271 209,271 209,271 209,271 209,271 209,271 209,270 210,270 210,270 210,269 210,269 210,269 210,268 210,268 210,267 211,267 211,266 211,266 211,265 211,265 211,264 211,264 211,263 211,263 212,262 212,262 212,261 212,261 212,261 212,260 212,260 212,260 212,260 213,260 213,260 213,260 213,260 213,260 213,260 213,261 213,261 214,261 214,262 214,263 214,263 214,263 214,264 214,264 214,265 214,265 215,266 215,266 215,266 215,267 215,267 215,267 215,268 215,268 215,268 216,269 216,269 216,269 216,269 216,269 216,269 216,269 216,268 216,268 217,268 217,268 217,267 217,267 217,267 217,266 217,266 217,265 218,265 218,265 218,264 218,264 218,263 218,263 218,262 218,262 218,261 219,261 219,260 219,260 219,259 219,259 219,259 219,258 219,257 219,257 220,256 220,256 220,255 220,255 220,254 220,254 220,253 220,252 221,252 221,252 221,252 221,252 221,252 221,252 221,252 221,251 221,251 222,251 222,251 222,251 222,251 222,251 222,250 222,250 222,250 222,251 223,252 223,252 223,253 223,254 223,255 223,256 223,257 223,258 224,260 224,261 224,262 224,263 224,264 224,264 224,265 224,266 224,266 225,266 225,266 225,266 225,265 225,264 225,264 225,263 225,262 225,261 226,260 226,259 226,258 226,257 226,256 226,255 226,254 226,252 227,251 227,250 227,249 227,247 227,246 227,246 227,245 227,244 227,243 228,243 228,242 228,242 228,241 228,241 228,241 228,241 228,241 228,241 229,241 229,241 229,241 229,241 229,241 229,241 229,241 229,241 230,241 230,242 230,242 230,242 230,243 230,243 230,243 230,244 230,245 231,245 231,246 231,247 231,248 231,249 231,249 231,250 231,251 231,252 232,253 232,254 232,255 232,256 232,257 232,259 232,260 232,261 233,262 233,262 233,262 233,263 233,264 233,265 233,266 233,267 233,267 234,267 234,267 234,268 234,268 234,268 234,269 234,269 234,268 234,268 235,268 235,268 235,267 235,266 235,267 235,266 235,266 235,265 235,264 236,264 236,263 236,263 236,263 236,263 236,263 236,263 236,263 237,263 237,263 237,263 237,262 237,262 237,262 237,262 237,261 237,261 238,261 238,261 238,261 238,261 238,261 238,261 238,261 238,262 238,262 239,262 239,263 239,263 239,263 239,264 239,264 239,264 239,265 240,265 240,265 240,265 240,265 240,266 240,266 240,265 240,265 240,264 241,264 241,263 241,263 241,262 241,261 241,259 241,258 241,257 241,256 242,255 242,254 242,252 242,251 242,250 242,249 242,247 242,246 243,245 243,244 243,243 243,243 243,242 243,241 243,240 243,239 243,237 244,236 244,235 244,234 244,233 244,232 244,231 244,230 244,229 244,227 245,226 245,225 245,224 245,223 245,222 245,221 245,220 245,219 246,218 246,218 246,217 246,216 246,215 246,214 246,214 246,213 246,213 247,212 247,212 247,211 247,211 247,211 247,211 247,211 247,210 247,210 248,210 248,210 248,211 248,211 248,211 248,211 248,211 248,211 249,212 249,212 249,211 249,211 249,211 249,211 249,211 249,211 249,210 250,211 250,211 250,212 250,212 250,213 250,213 250,214 250,215 250,216 251,217 251,218 251,219 251,220 251,219 251,220 251,220 251,221 251,222 252,222 252,223 252,223 252,222 252,221 252,221 252,221 252,220 253,219 253,218 253,218 253,217 253,217 253,216 253,216 253,216 253,216 254,215 254,215 254,215 254,215 254,216 254,216 254,216 254,215 254,215 255,215 255,214 255,214 255,213 255,213 255,212 255,212 255,211 256,211 256,211 256,210 256,210 256,210 256,210 256,211 256,211 256,211 257,211 257,212 257,212 257,213 257,213 257,214 257,214 257,215 257,215 258,216 258,217 258,217 258,218 258,218 258,219 258,219 258,219 259,220 259,220 259,221 259,221 259,221 259,222 259,222 259,222 259,222 260,223 260,223 260,223 260,224 260,224 260,224 260,225 260,225 260,225 261,226 261,226 261,226 261,227 261,227 261,227 261,227 261,228 262,228 262,228 262,229 262,229 262,229 262,229 262,230 262,230 262,230 263,230 263,231 263,231 263,231 263,232 263,232 263,232 263,232 263,232 264,233 264,233 264,233 264,233 264,233 264,233 264,233 264,233 265,233 265,233 265,233 265,233 265,233 265,233 265,233 265,233 265,232 266,232 266,232 266,232 266,231 266,231 266,231 266,230 266,230 266,230 267,229 267,229 267,228 267,228 267,227 267,227 267,226 267,226 268,225 268,225 268,224 268,224 268,223 268,223 268,223 268,223 268,222 269,222 269,222 269,221 269,221 269,221 269,221 269,220 269,220 269,220 270,220 270,220 270,219 270,219 270,219 270,219 270,219 270,219 270,218 271,218 271,218 271,218 271,218 271,217 271,217 271,217 271,217 272,217 272,217 272,217 272,217 272,216 272,217 272,217 272,217 272,218 273,218 273,218 273,218 273,218 273,218 273,218 273,218 273,217 273,217 274,217 274,216 274,216 274,216 274,215 274,215 274,215 274,215 275,214 275,214 275,214 275,214 275,213 275,213 275,213 275,213 275,213 276,213 276,213 276,213 276,213 276,213 276,213 276,213 276,213 276,213 277,213 277,213 277,213 277,213 277,213 277,213 277,213 277,213 278,212 278,212 278,212 278,212 278,212 278,212 278,212 278,212 278,212 279,212 279,212 279,212 279,211 279,211 279,211 279,211 279,211 279,211 280,212 280,212 280,212 280,212 280,212 280,212 280,212 280,212 281,212 281,212 281,212 281,212 281,213 281,213 281,214 281,215 281,215 282,215 282,216 282,216 282,217 282,217 282,217 282,218 282,218 282,218 283,219 283,219 283,219 283,219 283,220 283,220 283,220 283,219 284,219 284,219 284,218 284,218 284,218 284,218 284,218 284,218 284,218 285,218 285,218 285,218 285,218 285,218 285,218 285,218 285,218 285,218 286,218 286,218 286,218 286,217 286,217 286,217 286,216 286,216 286,216 287,216 287,215 287,215 287,215 287,216 287,216 287,216 287,216 288,217 288,217 288,218 288,218 288,219 288,220 288,220 288,221 288,221 289,221 289,221 289,222 289,222 289,223 289,223 289,223 289,223 289,223 290,223 290,222 290,222 290,222 290,221 290,220 290,219 290,218 291,218 291,218 291,217 291,217 291,217 291,216 291,216 291,215 291,215 292,215 292,215 292,214 292,214 292,214 292,214 292,214 292,214 292,214 293,213 293,213 293,213 293,214 293,214 293,214 293,214 293,215 294,215 294,216 294,216 294,217 294,217 294,217 294,217 294,217 294,217 295,217 295,217 295,218 295,218 295,217 295,217 295,217 295,217 295,217 296,217 296,217 296,217 296,216 296,216 296,216 296,216 296,216 297,216 297,216 297,216 297,216 297,216 297,216 297,216 297,216 297,217 298,217 298,217 298,217 298,218 298,218 298,219 298,219 298,219 298,220 299,220 299,220 299,220 299,220 299,220 299,219 299,219 299,218 300,218 300,217 300,217 300,217 300,217 300,216 300,216 300,216 300,216 301,215 301,215 301,215 301,215 301,214 301,214 301,214 301,214 301,214 302,214 302,214 302,214 302,213 302,213 302,213 302,213 302,213 302,213 303,213 303,213 303,213 303,213 303,213 303,213 303,213 303,213 304,213 304,213 304,213 304,213 304,213 304,213 304,213 304,213 304,213 305,213 305,213 305,213 305,214 305,214 305,214 305,214 305,214 305,214 306,215 306,215 306,215 306,215 306,216 306,216 306,216 306,216 307,216 307,216 307,217 307,217 307,217 307,217 307,217 307,218 307,218 308,218 308,219 308,219 308,219 308,220 308,220 308,221 308,221 308,222 309,222 309,223 309,223 309,224 309,224 309,225 309,225 309,226 310,227 310,227 310,228 310,229 310,230 310,230 310,231 310,231 310,232 311,232 311,233 311,234 311,234 311,235 311,235 311,236 311,237 311,237 312,238 312,239 312,239 312,239 312,240 312,240 312,239 312,239 313,238 313,238 313,238 313,238 313,238 313,237 313,237 313,237 313,237 314,237 314,237 314,237 314,237 314,237 314,237 314,237 314,237 314,237 315,236 315,236 315,236 315,235 315,235 315,235 315,234 315,234 316,234 316,233 316,233 316,233 316,233 316,232 316,232 316,232 316,232 317,232 317,232 317,231 317,231 317,231 317,231 317,230 317,230 317,230 318,230 318,229 318,229 318,229 318,229 318,228 318,228 318,228 319,227 319,227 319,227 319,227 319,226 319,226 319,226 319,226 319,226 320,226 320,226 320,227 320,227 320,227 320,227 320,228 320,228 320,229 321,229 321,230 321,230 321,231 321,231 321,232 321,232 321,233 321,233 322,234 322,234 322,235 322,235 322,236 322,237 322,237 322,238 323,239 323,239 323,240 323,240 323,241 323,242 323,242 323,243 323,243 324,244 324,244 324,244 324,244 324,244 324,244 324,244 324,243 324,243 325,243 325,243 325,242 325,242 325,242 325,242 325,242 325,242 326,242 326,242 326,242 326,242 326,242 326,243 326,243 326,243 326,243 327,243 327,243 327,243 327,243 327,244 327,244 327,244 327,244 327,244 328,244 328,244 328,244 328,244 328,244 328,244 328,245 328,245 329,245 329,245 329,245 329,246 329,246 329,247 329,247 329,247 329,247 330,246 330,246 330,246 330,246 330,246 330,246 330,246 330,246 330,245 331,245 331,245 331,245 331,245 331,245 331,245 331,245 331,245 332,244 332,244 332,244 332,244 332,244 332,244 332,244 332,244 332,244 333,244 333,244 333,244 333,244 333,243 333,243 333,243 333,243 333,244 334,245 334,245 334,246 334,246 334,246 334,246 334,246 334,246 335,246 335,246 335,246 335,246 335,246 335,246 335,246 335,246 335,246 336,246 336,246 336,246 336,246 336,246 336,246 336,246 336,246 336,247 337,248 337,249 337,250 337,251 337,251 337,252 337,252 337,253 337,253 338,254 338,254 338,254 338,255 338,255 338,254 338,254 338,254 339,254 339,253 339,252 339,251 339,250 339,250 339,249 339,248 339,247 340,246 340,245 340,244 340,243 340,243 340,242 340,241 340,240 340,239 341,238 341,238 341,238 341,238 341,238 341,238 341,238 341,238 342,239 342,239 342,239 342,239 342,239 342,240 342,240 342,240 342,240 343,240 343,240 343,240 343,240 343,240 343,240 343,240 343,240 343,240 344,240 344,240 344,240 344,240 344,240 344,240 344,240 344,240 345,240 345,240 345,240 345,240 345,240 345,239 345,239 345,239 345,239 346,239 346,239 346,239 346,239 346,239 346,240 346,240 346,240 346,240 347,241 347,241 347,241 347,241 347,242 347,242 347,242 347,242 348,242 348,243 348,243 348,243 348,243 348,243 348,243 348,244 348,244 349,244 349,244 349,244 349,244 349,244 349,244 349,245 349,245 349,245 350,245 350,245 350,245 350,246 350,245 350,245 350,245 350,245 351,245 351,245 351,245 351,245 351,245 351,245 351,245 351,245 351,245 352,245 352,245 352,245 352,245 352,244 352,244 352,244 352,244 352,244 353,244 353,244 353,244 353,244 353,244 353,244 353,244 353,244 354,244 354,244 354,244 354,244 354,244 354,244 354,244 354,244 354,244 355,244 355,244 355,244 355,244 355,244 355,244 355,244 355,244 355,245 356,245 356,245 356,245 356,245 356,244 356,244 356,244 356,243 356,243 357,243 357,243 357,243 357,243 357,243 357,242 357,242 357,242 358,242 358,242 358,241 358,241 358,241 358,240 358,240 358,240 358,239 359,239 359,240 359,242 359,244 359,246 359,247 359,248 359,248 359,249 360,250 360,249 360,249 360,248 360,248 360,248 360,247 360,247 361,246 361,246 361,246 361,245 361,245 361,245 361,245 361,245 361,245 362,245 362,245 362,245 362,245 362,245 362,245 362,245 362,245 362,245 363,245 363,245 363,245 363,245 363,245 363,245 363,245 363,245 364,245 364,245 364,245 364,245 364,245 364,244 364,244 364,244 364,244 365,244 365,244 365,243 365,243 365,243 365,243 365,243 365,242 365,242 366,241 366,241 366,240 366,240 366,239 366,239 366,238 366,238 367,237 367,237 367,236 367,236 367,235 367,235 367,234 367,234 367,233 368,233 368,232 368,232 368,231 368,231 368,231 368,231 368,230 368,230 369,230 369,230 369,229 369,229 369,229 369,228 369,228 369,228 370,227 370,227 370,227 370,226 370,226 370,226 370,226 370,225 370,225 371,225 371,225 371,225 371,225 371,225 371,225 371,225 371,226 371,226 372,226 372,226 372,226 372,226 372,226 372,227 372,227 372,227 372,228 373,228 373,228 373,228 373,228 373,229 373,229 373,229 373,229 374,230 374,230 374,230 374,231 374,231 374,231 374,231 374,231 374,231 375,231 375,231 375,232 375,232 375,232 375,232 375,233 375,233 375,233 376,233 376,233 376,234 376,234 376,234 376,234 376,234 376,234 377,234 377,234 377,234 377,234 377,234 377,234 377,234 377,234 377,234 378,234 378,234 378,234 378,234 378,234 378,233 378,233 378,233 378,233 379,232 379,231 379,230 379,230 379,230 379,229 379,229 379,228 380,228 380,228 380,228 380,227 380,227 380,227 380,227 380,227 380,227 381,226 381,226 381,226 381,227 381,227 381,227 381,226 381,226 381,225 382,224 382,224 382,223 382,223 382,223 382,223 382,224 382,224 383,224 383,224 383,224 383,224 383,224 383,224 383,224 383,225 383,225 384,225 384,225 384,225 384,225 384,226 384,226 384,226 384,226 384,226 385,227 385,227 385,227 385,227 385,227 385,227 385,227 385,227 386,227 386,227 386,227 386,226 386,226 386,226 386,226 386,226 386,225 387,225 387,225 387,225 387,225 387,225 387,225 387,224 387,224 387,224 388,224 388,224 388,224 388,224 388,223 388,223 388,223 388,223 388,223 389,223 389,223 389,223 389,223 389,223 389,222 389,222 389,222 390,222 390,222 390,221 390,221 390,221 390,221 390,220 390,220 390,220 391,220 391,220 391,220 391,219 391,219 391,219 391,218 391,218 391,218 392,218 392,218 392,218 392,218 392,218 392,217 392,217 392,217 393,217 393,217 393,217 393,216 393,216 393,216 393,215 393,215 393,215 394,215 394,215 394,215 394,215 394,215 394,215 394,215 394,215 394,216 395,216 395,216 395,217 395,217 395,217 395,217 395,217 395,218 396,218 396,218 396,219 396,219 396,219 396,219 396,220 396,220 396,220 397,220 397,220 397,220 397,219 397,219 397,219 397,219 397,219 397,219 398,219 398,219 398,219 398,219 398,220 398,220 398,220 398,220 399,221 399,221 399,221 399,221 399,222 399,222 399,222 399,222 399,222 400,222 400,222 400,222 400,222 400,223 400,223 400,223 400,223 400,223 401,223 401,223 401,223 401,223 401,223 401,224 401,224 401,224 402,223 402,223 402,223 402,223 402,224 402,224 402,224 402,224 402,224 403,224 403,224 403,224 403,225 403,225 403,225 403,226 403,226 403,226 404,226 404,227 404,227 404,227 404,227 404,226 404,226 404,226 405,226 405,226 405,226 405,225 405,225 405,225 405,225 405,225 405,225 406,225 406,224 406,224 406,224 406,224 406,224 406,224 406,224 406,223 407,223 407,223 407,223 407,223 407,223 407,222 407,222 407,222 407,222 408,222 408,222 408,222 408,222 408,221 408,221 408,221 408,221 409,221 409,221 409,220 409,220 409,220 409,220 409,220 409,219 409,219 410,219 410,219 410,218 410,218 410,218 410,218 410,218 410,217 410,217 411,216 411,216 411,216 411,215 411,214 411,213 411,213 411,213 412,212 412,212 412,212 412,212 412,211 412,211 412,211 412,211 412,211 413,211 413,210 413,210 413,210 413,210 413,210 413,210 413,210 413,209 414,209 414,209 414,209 414,208 414,208 414,208 414,207 414,207 415,207 415,207 415,207 415,207 415,206 415,206 415,205 415,205 415,205 416,205 416,205 416,204 416,205 416,205 416,205 416,205 416,205 416,206 417,206 417,206 417,206 417,206 417,206 417,206 417,205 417,205 418,205 418,204 418,204 418,204 418,204 418,204 418,204 418,204 418,204 419,204 419,204 419,204 419,204 419,203 419,203 419,203 419,203 419,203 420,203 420,203 420,203 420,202 420,202 420,202 420,202 420,202 421,202 421,202 421,202 421,202 421,202 421,202 421,202 421,202 421,202 422,202 422,202 422,203 422,203 422,204 422,204 422,204 422,204 422,204 423,204 423,204 423,204 423,204 423,204 423,204 423,204 423,205 423,206 424,206 424,206 424,206 424,206 424,206 424,206 424,206 424,206 425,206 425,206 425,206 425,206 425,206 425,205 425,205 425,205 425,204 426,204 426,203 426,202 426,201 426,201 426,200 426,199 426,198 426,197 427,196 427,195 427,194 427,193 427,192 427,191 427,191 427,190 428,190 428,189 428,189 428,189 428,188 428,188 428,188 428,188 428,188 429,188 429,188 429,188 429,188 429,188 429,188 429,188 429,188 429,188 430,188 430,188 430,188 430,188 430,188 430,187 430,187 430,187 431,187 431,187 431,187 431,187 431,187 431,187 431,187 431,187 431,187 432,187 432,187 432,187 432,187 432,187 432,188 432,188 432,188 432,189 433,189 433,189 433,189 433,190 433,190 433,190 433,190 433,190 434,190 434,190 434,189 434,189 434,189 434,188 434,188 434,188 434,189 435,189 435,188 435,188 435,188 435,187 435,187 435,187 435,186 435,186 436,185 436,184 436,183 436,183 436,182 436,181 436,181 436,180 437,179 437,179 437,178 437,178 437,177 437,177 437,178 437,178 437,178 438,178 438,178 438,179 438,179 438,179 438,179 438,179 438,179 438,179 439,179 439,180 439,180 439,179 439,179 439,179 439,180 439,181 440,182 440,183 440,184 440,185 440,186 440,187 440,189 440,190 440,191 441,192 441,192 441,192 441,192 441,192 441,192 441,191 441,190 441,190 442,189 442,188 442,187 442,186 442,185 442,185 442,184 442,184 442,184 443,184 443,183 443,183 443,183 443,183 443,183 443,183 443,183 444,182 444,182 444,182 444,181 444,181 444,181 444,181 444,181 444,180 445,180 445,180 445,179 445,178 445,178 445,177 445,176 445,175 445,174 446,173 446,171 446,170 446,169 446,167 446,165 446,164 446,163 447,162 447,161 447,160 447,159 447,158 447,157 447,156 447,155 447,154 448,153 448,153 448,153 448,153 448,153 448,153 448,153 448,152 448,153 449,152 449,152 449,152 449,152 449,152 449,152 449,151 449,151 450,151 450,151 450,151 450,151 450,152 450,152 450,153 450,153 450,154 451,154 451,154 451,155 451,155 451,156 451,156 451,157 451,157 451,157 452,157 452,157 452,157 452,157 452,158 452,158 452,158 452,158 453,159 453,159 453,159 453,159 453,159 453,159 453,159 453,159 453,159 454,159 454,159 454,159 454,159 454,159 454,159 454,159 454,159 454,159 455,159 455,160 455,160 455,160 455,161 455,161 455,162 455,162 456,162 456,162 456,162 456,162 456,162 456,162 456,162 456,162 456,162 457,162 457,162 457,162 457,163 457,163 457,163 457,164 457,164 457,165 458,165 458,165 458,166 458,166 458,166 458,166 458,165 458,165 458,165 459,164 459,163 459,163 459,162 459,161 459,160 459,158 459,157 460,156 460,155 460,155 460,154 460,153 460,152 460,152 460,151 460,150 461,149 461,149 461,148 461,147 461,146 461,145 461,144 461,143 461,142 462,141 462,141 462,140 462,139 462,139 462,138 462,138 462,138 463,138 463,138 463,138 463,138 463,138 463,138 463,138 463,138 463,138 464,138 464,138 464,138 464,138 464,138 464,138 464,138 464,138 464,138 465,138 465,138 465,137 465,138 465,137 465,137 465,137 465,137 466,137 466,137 466,137 466,137 466,138 466,138 466,137 466,137 466,136 467,136 467,135 467,135 467,135 467,134 467,134 467,134 467,133 467,133 468,133 468,133 468,133 468,132 468,132 468,132 468,132 468,132 469,132 469,132 469,132 469,131 469,131 469,131 469,131 469,131 469,131 470,131 470,131 470,131 470,131 470,131 470,132 470,132 470,132 470,133 471,133 471,134 471,134 471,134 471,135 471,135 471,136 471,136 472,136 472,137 472,138 472,138 472,139 472,140 472,140 472,141 472,142 473,143 473,143 473,144 473,144 473,144 473,145 473,145 473,145 473,145 474,146 474,146 474,145 474,145 474,145 474,144 474,144 474,144 474,143 475,143 475,143 475,142 475,142 475,142 475,142 475,142 475,141 476,141 476,141 476,141 476,140 476,140 476,140 476,140 476,140 476,140 477,140 477,140 477,140 477,140 477,141 477,141 477,141 477,141 477,142 478,142 478,142 478,142 478,143 478,142 478,142 478,142 478,141 479,141 479,141 479,141 479,141 479,141 479,141 479,141 479,141 479,141 480,141 480,141 480,141 480,141 480,141 480,142 480,142 480,142 480,142 481,142 481,143 481,143 481,143 481,143 481,143 481,143 481,143 482,144 482,144 482,144 482,144 482,144 482,144 482,145 482,145 482,145 483,145 483,145 483,146 483,146 483,146 483,147 483,148 483,149 483,149 484,150 484,150 484,151 484,152 484,152 484,153 484,154 484,154 485,155 485,155 485,156 485,157 485,157 485,158 485,158 485,158 485,159 486,159 486,159 486,159 486,159 486,159 486,159 486,159 486,158 486,158 487,157 487,157 487,156 487,156 487,156 487,155 487,155 487,155 488,155 488,155 488,155 488,155 488,155 488,155 488,154 488,154 488,154 489,154 489,154 489,154 489,154 489,154 489,154 489,153 489,154 489,153 490,153 490,152 490,152 490,152 490,151 490,151 490,151 490,150 491,150 491,150 491,150 491,150 491,150 491,150 491,150 491,150 491,150 492,149 492,149 492,149 492,149 492,148 492,148 492,148 492,148 492,148 493,148 493,148 493,148 493,148 493,148 493,148 493,148 493,148 493,148 494,148 494,148 494,148 494,148 494,148 494,147 494,147 494,147 495,147 495,147 495,147 495,147 495,147 495,147 495,146 495,146 495,146 496,146 496,146 496,146 496,146 496,147 496,147 496,146 496,146 496,145 497,144 497,144 497,143 497,143 497,143 497,142 497,142 497,142 498,141 498,141 498,140 498,140 498,139 498,139 498,138 498,138 498,138 499,137 499,137 499,136 499,136 499,135 499,135 499,135 499,134 499,134 500,133 500,133 500,133 500,132 500,132 500,131 500,131 500,130 501,130 501,129 501,129 501,128 501,128 501,128 501,128 501,127 501,127 502,127 502,127 502,127 502,126 502,126 502,125 502,125 502,124 502,124 503,123 503,123 503,123 503,122 503,122 503,121 503,121 503,120 504,120 504,119 504,119 504,120 504,121 504,121 504,121 504,122 504,122 505,122 505,122 505,122 505,123 505,123 505,123 505,123 505,123 505,124 506,124 506,124 506,124 506,124 506,124 506,124 506,125 506,125 507,125 507,125 507,125 507,125 507,125 507,126 507,126 507,126 507,127 508,127 508,128 508,129 508,130 508,130 508,131 508,132 508,132 508,133 509,133 509,134 509,134 509,135 509,135 509,135 509,136 509,137 509,137 510,137 510,138 510,138 510,138 510,138 510,138 510,138 510,138 511,138 511,138 511,138 511,138 511,138 511,138 511,138 511,137 511,137 512,137 512,137 512,137 512,137 512,137 512,137 512,138 512,138 512,138 513,138 513,138 513,138 513,137 513,137 513,137 513,137 513,137 514,137 514,137 514,137 514,137 514,137 514,137 514,136 514,136 514,136 515,136 515,136 515,136 515,136 515,136 515,136 515,136 515,136 515,136 516,136 516,136 516,136 516,137 516,137 516,138 516,138 516,137 517,137 517,137 517,137 517,138 517,138 517,138 517,138 517,138 517,138 518,138 518,139 518,139 518,139 518,139 518,139 518,139 518,140 518,140 519,140 519,140 519,140 519,140 519,140 519,140 519,141 519,141 520,141 520,141 520,141 520,141 520,141 520,141 520,142 520,142 520,142 521,142 521,142 521,142 521,142 521,142 521,142 521,143 521,143 521,143 522,144 522,144 522,143 522,143 522,143 522,143 522,142 522,142 523,141 523,140 523,140 523,140 523,140 523,139 523,139 523,139 523,138 524,138 524,138 524,138 524,138 524,138 524,137 524,137 524,137 524,137 525,136 525,136 525,136 525,136 525,136 525,137 525,137 525,137 526,138 526,138 526,138 526,139 526,139 526,139 526,140 526,140 526,140 527,140 527,140 527,139 527,139 527,139 527,139 527,139 527,139 527,139 528,139 528,139 528,139 528,139 528,139 528,139 528,139 528,139 528,138 529,138 529,138 529,138 529,138 529,138 529,138 529,138 529,137 530,137 530,137 530,137 530,137 530,137 530,136 530,136 530,136 530,136 531,136 531,136 531,136 531,136 531,137 531,137 531,138 531,138 531,139 532,139 532,140 532,140 532,141 532,141 532,142 532,142 532,143 533,144 533,144 533,144 533,144 533,145 533,145 533,146 533,146 533,146 534,146 534,145 534,145 534,145 534,145 534,145 534,145 534,145 534,145 535,145 535,145 535,144 535,144 535,144 535,143 535,143 535,143 536,142 536,142 536,142 536,142 536,141 536,141 536,141 536,141 536,141 537,142 537,142 537,142 537,143 537,143 537,143 537,143 537,143 537,143 538,144 538,144 538,144 538,144 538,145 538,145 538,145 538,146 539,146 539,146 539,147 539,147 539,147 539,148 539,148 539,148 539,149 540,149 540,149 540,150 540,150 540,150 540,150 540,151 540,151 540,152 541,152 541,152 541,153 541,153 541,153 541,153 541,153 541,153 542,153 542,153 542,153 542,153 542,153 542,154 542,154 542,154 542,154 543,154 543,154 543,154 543,155 543,155 543,155 543,156 543,156 543,156 544,156 544,156 544,156 544,156 544,156 544,156 544,156 544,156 544,156 545,156 545,156 545,156 545,155 545,155 545,155 545,155 545,155 546,155 546,155 546,155 546,155 546,154 546,154 546,154 546,154 546,154 547,154 547,154 547,153 547,153 547,153 547,153 547,153 547,153 547,152 548,152 548,152 548,152 548,151 548,151 548,151 548,151 548,151 549,150 549,150 549,150 549,150 549,150 549,150 549,150 549,150 549,149 550,149 550,149 550,149 550,149 550,149 550,149 550,149 550,149 550,149 551,149 551,148 551,148 551,148 551,148 551,148 551,148 551,148 552,148 552,148 552,148 552,148 552,148 552,148 552,148 552,148 552,147 553,147 553,147 553,147 553,146 553,146 553,145 553,145 553,144 553,144 554,144 554,143 554,143 554,143 554,142 554,142 554,141 554,141 555,141 555,141 555,140 555,140 555,140 555,140 555,140 555,140 555,140 556,140 556,140 556,140 556,140 556,140 556,140 556,141 556,140 556,140 557,140 557,140 557,140 557,140 557,141 557,141 557,141 557,141 558,141 558,140 558,140 558,140 558,140 558,139 558,139 558,139 558,139 559,139 559,139 559,139 559,139 559,140 559,140 559,140 559,141 559,141 560,141 560,141 560,142 560,142 560,142 560,142 560,143 560,143 560,143 561,143 561,143 561,144 561,144 561,144 561,145 561,145 561,145 562,145 562,145 562,145 562,145 562,144 562,144 562,144 562,144 562,144 563,144 563,144 563,144 563,143 563,143 563,143 563,143 563,142 563,142 564,142 564,141 564,141 564,140 564,140 564,140 564,139 564,139 565,139 565,139 565,139 565,139 565,138 565,138 565,138 565,138 565,138 566,138 566,138 566,138 566,137 566,137 566,137 566,137 566,136 566,136 567,136 567,135 567,135 567,135 567,135 567,134 567,134 567,134 568,134 568,134 568,134 568,134 568,134 568,134 568,134 568,134 568,133 569,133 569,133 569,133 569,133 569,133 569,133 569,133 569,133 569,133 570,133 570,133 570,133 570,132 570,132 570,133 570,133 570,133 571,133 571,133 571,133 571,133 571,133 571,134 571,134 571,134 571,134 572,134 572,134 572,135 572,135 572,135 572,135 572,135 572,135 572,135 573,135 573,136 573,136 573,136 573,136 573,136 573,136 573,136 574,136 574,136 574,136 574,137 574,137 574,137 574,137 574,137 574,137 575,137 575,137 575,137 575,137 575,137 575,137 575,138 575,138 575,138 576,138 576,138 576,138 576,139 576,139 576,139 576,139 576,139 577,139 577,139 577,139 577,139 577,139 577,139 577,140 577,140 577,140 578,140 578,140 578,140 578,140 578,140 578,140 578,140 578,140 578,140 579,140 579,140 579,140 579,141 579,141 579,141 579,141 579,141 579,141 580,141 580,141 580,141 580,141 580,141 580,141 580,141 580,141 581,141 581,141 581,141 581,141 581,141 581,141 581,141 581,141 581,141 582,141 582,142 582,142 582,142 582,142 582,142 582,142 582,142 582,142 583,142 583,142 583,142 583,142 583,142 583,142 583,143 583,143 584,143 584,143 584,143 584,143 584,144 584,144 584,144 584,144 584,144 585,144 585,145 585,145 585,145 585,145 585,145 585,145 585,145 585,145 586,146 586,146 586,146 586,146 586,146 586,146 586,146 586,147 587,147 587,147 587,147 587,147 587,147 587,148 587,148 587,148 587,148 588,148 588,148 588,148 588,148 588,148 588,148 588,148 588,148 588,148 589,148 589,148 589,148 589,148 589,148 589,148 589,149 589,149 590,149 590,149 590,149 590,149 590,149 590,149 590,149 590,149 590,149 591,149 591,149 591,149 591,149 591,150 591,150 591,150 591,150 591,150 592,150 592,150 592,150 592,150 592,150 592,150 592,150 592,150 593,150 593,150 593,150 593,150 593,150 593,150 593,150 593,150 593,150 594,150 594,150 594,150 594,150 594,150 594,150 594,150 594,150 594,150 595,150 595,150 595,150 595,150 595,150 595,151 595,151 595,151 595,151 596,151 596,151 596,151 596,151 596,151 596,151 596,151 596,151 597,152 597,152 597,152 597,152 597,152 597,152 597,152 597,152 597,152 598,152 598,152 598,152 598,152 598,152 598,152 598,152 598,152 598,152 599,152 599,152 599,152 599,152 599,152 599,152 599,152 599,152 600,152 600,152 600,152 600,152 600,152 600,152 600,152 600,152 600,152 601,152 601,152 601,152 601,152 601,152 601,152 601,152 601,152 601,152 602,152 602,152 602,152 602,152 602,152 602,152 602,152 602,152 603,152 603,152 603,152 603,152 603,152 603,152 603,152 603,152 603,152 604,152 604,152 604,152 604,152 604,152 604,152 604,152 604,152 604,152 605,152 605,152 605,152 605,152 605,152 605,152 605,152 605,152 606,152 606,152 606,152 606,152 606,153 606,153 606,153 606,153 606,153 607,153 607,153 607,153 607,153 607,153 607,153 607,153 607,153 607,153 608,153 608,153 608,153 608,153 608,153 608,153 608,153 608,153 609,152 609,152 609,152 609,152 609,152 609,152 609,152 609,152 609,152 610,152 610,152 610,152 610,152 610,152 610,152 610,152 610,152 610,152 611,152 611,152 611,152 611,152 611,152 611,152 611,152 611,152 612,152 612,152 612,152 612,152 612,152 612,152 612,152 612,152 612,152 613,152 613,152 613,152 613,152 613,152 613,152 613,152 613,152 613,152 614,152 614,152 614,152 614,152 614,152 614,152 614,152 614,152 614,152 615,152 615,152 615,152 615,152 615,152 615,152 615,152 615,152 616,152 616,152 616,152 616,152 616,152 616,152 616,152 616,152 616,152 617,152 617,152 617,152 617,152 617,152 617,152 617,152 617,152 617,152 618,152 618,152 618,152 618,152 618,152 618,152 618,152 618,152 619,152 619,152 619,152 619,152 619,152 619,152 619,152 619,152 619,152 620,152 620,152 620,152 620,152 620,152 620,152 620,152 620,152 620,152 621,152 621,151 621,151 621,151 621,151 621,151 621,151 621,151 622,151 622,151 622,151 622,151 622,151 622,151 622,151 622,151 622,151 623,151 623,151 623,151 623,151 623,151 623,151 623,151 623,151 623,151 624,151 624,151 624,151 624,151 624,151 624,151 624,151 624,151 625,151 625,151 625,151 625,151 625,151 625,151 625,151 625,151 625,151 626,151 626,151 626,151 626,151 626,151 626,151 626,151 626,151 626,151 627,151 627,151 627,151 627,151 627,151 627,150 627,150 627,150 628,150 628,150 628,150 628,150 628,150 628,150 628,150 628,150 628,150 629,150 629,150 629,150 629,150 629,150 629,150 629,150 629,150 629,150 630,150 630,150 630,150 630,150 630,150 630,150 630,149 630,149 630,149 631,149 631,149 631,149 631,149 631,149 631,149 631,149 631,149 632,149 632,149 632,149 632,149 632,149 632,149 632,149 632,149 632,149 633,149 633,149 633,149 633,148 633,148 633,148 633,148 633,148 633,148 634,148 634,148 634,148 634,148 634,148 634,148 634,148 634,148 635,148 635,148 635,148 635,148 635,148 635,148 635,148 635,148 635,147 636,147 636,147 636,147 636,147 636,147 636,147 636,147 636,147 636,147 637,147 637,147 637,147 637,147 637,147 637,147 637,147 637,147 638,146 638,146 638,146 638,146 638,146 638,146 638,146 638,146 638,146 639,146 639,146 639,146 639,146 639,146 639,146 639,146 639,146 639,146 640,146 640,146 640,146 640,146 640,146 640,146 640,146 640,146 641,146 641,145 641,145 641,145 641,145 641,146 641,145 641,145 641,145 642,145 642,145 642,145 642,145 642,145 642,145 642,145 642,144 642,144 643,144 643,144 643,144 643,145 643,145 643,145 643,145 643,145 644,145 644,145 644,145 644,145 644,145 644,145 644,144 644,144 644,144 645,144 645,144 645,143 645,143 645,143 645,143 645,143 645,143 645,142 646,142 646,142 646,142 646,142 646,142 646,141 646,141 646,141 646,141 647,141 647,141 647,140 647,140 647,140 647,140 647,140 647,140 648,139 648,139 648,139 648,139 648,139 648,139 648,138 648,138 648,138 649,138 649,138 649,138 649,138 649,138 649,138 649,138 649,138 649,138 650,138 650,138 650,137 650,137 650,137 650,137 650,137 650,137 651,137 651,137 651,137 651,137 651,136 651,136 651,136 651,136 651,136 652,136 652,136 652,136 652,136 652,135 652,135 652,136 652,136 652,136 653,136 653,136 653,135 653,135 653,135 653,135 653,135 653,135 654,135 654,135 654,135 654,135 654,135 654,135 654,135 654,136 654,136 655,136 655,136 655,136 655,136 655,136 655,136 655,136 655,136 655,136 656,136 656,136 656,136 656,137 656,137 656,137 656,137 656,137 657,137 657,137 657,137 657,137 657,136 657,136 657,136 657,136 657,136 658,136 658,136 658,136 658,136 658,135 658,135 658,135 658,135 658,135 659,134 659,134 659,134 659,135 659,135 659,135 659,134 659,134 660,135 660,135 660,135 660,135 660,135 660,135 660,135 660,135 660,135 661,135 661,135 661,135 661,135 661,135 661,135 661,135 661,135 661,135 662,135 662,135 662,135 662,135 662,135 662,135 662,134 662,134 663,134 663,134 663,134 663,134 663,133 663,133 663,133 663,133 663,133 664,133 664,134 664,134 664,134 664,134 664,134 664,134 664,133 664,134 665,134 665,134 665,134 665,134 665,135 665,135 665,135 665,135 665,135 666,135 666,135 666,135 666,135 666,135 666,135 666,135 666,135 667,135 667,135 667,135 667,135 667,135 667,135 667,135 667,135 667,136 668,136 668,136 668,136 668,136 668,136 668,136 668,136 668,136 668,136 669,136 669,136 669,136 669,136 669,136 669,136 669,136 669,136 670,137 670,137 670,137 670,137 670,137 670,137 670,137 670,138 670,138 671,138 671,138 671,138 671,138 671,138 671,139 671,139 671,139 671,139 672,139 672,139 672,139 672,139 672,139 672,139 672,139 672,139 673,139 673,139 673,139 673,139 673,139 673,140 673,140 673,140 673,140 674,140 674,140 674,141 674,141 674,141 674,141 674,141 674,141 674,141 675,142 675,142 675,142 675,142 675,142 675,142 675,142 675,143 676,143 676,143 676,143 676,143 676,143 676,142 676,142 676,142 676,142 677,142 677,142 677,142 677,142 677,142 677,142 677,142 677,142 677,142 678,142 678,142 678,142 678,142 678,142 678,142 678,142 678,142 679,142 679,142 679,142 679,142 679,142 679,142 679,142 679,142 679,142 680,142 680,141 680,141 680,141 680,141 680,141 680,141 680,141 680,141 681,141 681,141 681,141 681,141 681,141 681,141 681,141 681,141 681,141 682,141 682,141 682,141 682,141 682,141 682,141 682,141 682,141 683,140 683,140 683,140 683,139 683,139 683,139 683,139 683,138 683,138 684,138 684,138 684,138 684,138 684,138 684,137 684,137 684,137 684,137 685,137 685,137 685,137 685,137 685,137 685,137 685,137 685,137 686,136 686,136 686,136 686,136 686,136 686,136 686,136 686,136 686,136 687,136 687,136 687,136 687,136 687,136 687,136 687,136 687,136 687,136 688,137 688,137 688,137 688,137 688,137 688,137 688,137 688,136 689,136 689,136 689,136 689,136 689,136 689,136 689,136 689,136 689,135 690,135 690,135 690,135 690,135 690,135 690,135 690,135 690,135 690,135 691,135 691,135 691,135 691,135 691,135 691,135 691,135 691,135 692,135 692,135 692,135 692,135 692,135 692,135 692,135 692,135 692,135 693,135 693,135 693,135 693,135 693,135 693,135 693,135 693,135 693,135 694,135 694,135 694,135 694,135 694,135 694,135 694,135 694,135 695,135 695,135 695,135 695,134 695,134 695,134 695,134 695,134 695,134 696,134 696,134 696,134 696,134 696,134 696,134 696,134 696,134 696,134 697,134 697,134 697,134 697,134 697,134 697,134 697,134 697,134 698,134 698,134 698,134 698,134 698,134 698,134 698,134 698,134 698,134 699,134 699,134 699,134 699,134 699,134 699,134 699,134 699,134 699,134 700,134 700,134 700,134 " vector-effect="non-scaling-stroke"></polyline>
</g></svg>