<!-- Generator: Adobe Illustrator 19.2.0, SVG Export Plug-In  -->
<!DOCTYPE svg PUBLIC "-//W3C//DTD SVG 1.1//EN" "http://www.w3.org/Graphics/SVG/1.1/DTD/svg11.dtd" [
	<!ENTITY ns_flows "http://ns.adobe.com/Flows/1.0/">
	<!ENTITY st0 "fill:none;stroke:#FFFFFF;stroke-linecap:square;stroke-linejoin:bevel;stroke-dasharray:1,2;">
	<!ENTITY st1 "fill:#624949;">
]>
<svg version="1.1"
	 xmlns="http://www.w3.org/2000/svg" xmlns:xlink="http://www.w3.org/1999/xlink" xmlns:a="http://ns.adobe.com/AdobeSVGViewerExtensions/3.0/"
	 x="0px" y="0px" width="759px" height="380px" preserveAspectRatio="none" viewBox="0 0 759 380" style="enable-background:new 0 0 759 380;"
	 xml:space="preserve">
<defs>
</defs>
<g transform="matrix(1,0,0,1,0,0)">
	<line vector-effect="non-scaling-stroke" style="&st0;" x1="0.5" y1="0.5" x2="0.5" y2="379.5"/>
	<line vector-effect="non-scaling-stroke" style="&st0;" x1="95.5" y1="0.5" x2="95.5" y2="379.5"/>
	<line vector-effect="non-scaling-stroke" style="&st0;" x1="190.5" y1="0.5" x2="190.5" y2="379.5"/>
	<line vector-effect="non-scaling-stroke" style="&st0;" x1="284.5" y1="0.5" x2="284.5" y2="379.5"/>
	<line vector-effect="non-scaling-stroke" style="&st0;" x1="379.5" y1="0.5" x2="379.5" y2="379.5"/>
	<line vector-effect="non-scaling-stroke" style="&st0;" x1="474.5" y1="0.5" x2="474.5" y2="379.5"/>
	<line vector-effect="non-scaling-stroke" style="&st0;" x1="569.5" y1="0.5" x2="569.5" y2="379.5"/>
	<line vector-effect="non-scaling-stroke" style="&st0;" x1="663.5" y1="0.5" x2="663.5" y2="379.5"/>
	<line vector-effect="non-scaling-stroke" style="&st0;" x1="758.5" y1="0.5" x2="758.5" y2="379.5"/>
	<line vector-effect="non-scaling-stroke" style="&st0;" x1="0.5" y1="379.5" x2="758.5" y2="379.5"/>
	<line vector-effect="non-scaling-stroke" style="&st0;" x1="0.5" y1="325.5" x2="758.5" y2="325.5"/>
	<line vector-effect="non-scaling-stroke" style="&st0;" x1="0.5" y1="270.5" x2="758.5" y2="270.5"/>
	<line vector-effect="non-scaling-stroke" style="&st0;" x1="0.5" y1="216.5" x2="758.5" y2="216.5"/>
	<line vector-effect="non-scaling-stroke" style="&st0;" x1="0.5" y1="162.5" x2="758.5" y2="162.5"/>
	<line vector-effect="non-scaling-stroke" style="&st0;" x1="0.5" y1="108.5" x2="758.5" y2="108.5"/>
	<line vector-effect="non-scaling-stroke" style="&st0;" x1="0.5" y1="53.5" x2="758.5" y2="53.5"/>
</g>
<polyline vector-effect="non-scaling-stroke" style="&st1;" points="673.5,379.5 7.5,379.5 7.5,318.5 8.5,318.5 8.5,318.5 
	8.5,318.5 8.5,317.5 8.5,316.5 8.5,315.5 8.5,313.5 8.5,313.5 9.5,313.5 9.5,312.5 9.5,312.5 9.5,311.5 9.5,311.5 9.5,310.5 
	9.5,310.5 9.5,310.5 9.5,310.5 10.5,310.5 10.5,310.5 10.5,310.5 10.5,310.5 10.5,310.5 10.5,310.5 10.5,310.5 10.5,310.5 
	10.5,310.5 11.5,310.5 11.5,310.5 11.5,310.5 11.5,310.5 11.5,310.5 11.5,310.5 11.5,310.5 11.5,310.5 12.5,310.5 12.5,310.5 
	12.5,309.5 12.5,309.5 12.5,309.5 12.5,309.5 12.5,309.5 12.5,309.5 12.5,309.5 13.5,309.5 13.5,309.5 13.5,308.5 13.5,308.5 
	13.5,308.5 13.5,308.5 13.5,308.5 13.5,308.5 13.5,308.5 14.5,308.5 14.5,308.5 14.5,308.5 14.5,308.5 14.5,308.5 14.5,308.5 
	14.5,308.5 14.5,308.5 15.5,308.5 15.5,308.5 15.5,308.5 15.5,308.5 15.5,307.5 15.5,307.5 15.5,307.5 15.5,307.5 15.5,307.5 
	16.5,307.5 16.5,307.5 16.5,307.5 16.5,307.5 16.5,307.5 16.5,307.5 16.5,307.5 16.5,307.5 16.5,307.5 17.5,307.5 17.5,306.5 
	17.5,306.5 17.5,306.5 17.5,306.5 17.5,306.5 17.5,306.5 17.5,306.5 17.5,306.5 18.5,306.5 18.5,305.5 18.5,305.5 18.5,305.5 
	18.5,305.5 18.5,305.5 18.5,305.5 18.5,305.5 19.5,305.5 19.5,304.5 19.5,304.5 19.5,304.5 19.5,304.5 19.5,304.5 19.5,304.5 
	19.5,304.5 19.5,304.5 20.5,303.5 20.5,303.5 20.5,303.5 20.5,303.5 20.5,303.5 20.5,303.5 20.5,303.5 20.5,302.5 20.5,302.5 
	21.5,302.5 21.5,302.5 21.5,302.5 21.5,302.5 21.5,302.5 21.5,302.5 21.5,301.5 21.5,301.5 22.5,301.5 22.5,301.5 22.5,301.5 
	22.5,301.5 22.5,301.5 22.5,300.5 22.5,300.5 22.5,300.5 22.5,300.5 23.5,300.5 23.5,300.5 23.5,300.5 23.5,300.5 23.5,299.5 
	23.5,299.5 23.5,299.5 23.5,299.5 23.5,299.5 24.5,299.5 24.5,299.5 24.5,298.5 24.5,298.5 24.5,298.5 24.5,298.5 24.5,298.5 
	24.5,298.5 25.5,298.5 25.5,298.5 25.5,297.5 25.5,297.5 25.5,297.5 25.5,297.5 25.5,297.5 25.5,297.5 25.5,297.5 26.5,296.5 
	26.5,296.5 26.5,296.5 26.5,296.5 26.5,296.5 26.5,296.5 26.5,296.5 26.5,295.5 26.5,295.5 27.5,295.5 27.5,295.5 27.5,295.5 
	27.5,295.5 27.5,295.5 27.5,295.5 27.5,294.5 27.5,294.5 28.5,294.5 28.5,294.5 28.5,294.5 28.5,294.5 28.5,294.5 28.5,293.5 
	28.5,293.5 28.5,293.5 28.5,293.5 29.5,293.5 29.5,293.5 29.5,293.5 29.5,293.5 29.5,292.5 29.5,292.5 29.5,292.5 29.5,292.5 
	29.5,292.5 30.5,292.5 30.5,292.5 30.5,292.5 30.5,291.5 30.5,291.5 30.5,291.5 30.5,291.5 30.5,291.5 31.5,291.5 31.5,291.5 
	31.5,291.5 31.5,291.5 31.5,290.5 31.5,290.5 31.5,290.5 31.5,290.5 31.5,290.5 32.5,289.5 32.5,289.5 32.5,289.5 32.5,289.5 
	32.5,289.5 32.5,288.5 32.5,288.5 32.5,288.5 32.5,288.5 33.5,289.5 33.5,289.5 33.5,289.5 33.5,289.5 33.5,289.5 33.5,289.5 
	33.5,289.5 33.5,289.5 34.5,289.5 34.5,289.5 34.5,289.5 34.5,288.5 34.5,288.5 34.5,288.5 34.5,287.5 34.5,287.5 34.5,287.5 
	35.5,286.5 35.5,286.5 35.5,286.5 35.5,286.5 35.5,286.5 35.5,286.5 35.5,286.5 35.5,286.5 35.5,286.5 36.5,286.5 36.5,286.5 
	36.5,286.5 36.5,286.5 36.5,286.5 36.5,285.5 36.5,285.5 36.5,285.5 36.5,285.5 37.5,284.5 37.5,284.5 37.5,284.5 37.5,283.5 
	37.5,283.5 37.5,282.5 37.5,282.5 37.5,282.5 38.5,282.5 38.5,282.5 38.5,282.5 38.5,282.5 38.5,282.5 38.5,282.5 38.5,282.5 
	38.5,282.5 38.5,282.5 39.5,281.5 39.5,281.5 39.5,281.5 39.5,281.5 39.5,281.5 39.5,281.5 39.5,280.5 39.5,280.5 39.5,280.5 
	40.5,280.5 40.5,280.5 40.5,280.5 40.5,279.5 40.5,279.5 40.5,279.5 40.5,279.5 40.5,279.5 41.5,279.5 41.5,279.5 41.5,279.5 
	41.5,279.5 41.5,279.5 41.5,279.5 41.5,280.5 41.5,280.5 41.5,280.5 42.5,281.5 42.5,281.5 42.5,282.5 42.5,282.5 42.5,282.5 
	42.5,282.5 42.5,283.5 42.5,283.5 42.5,283.5 43.5,284.5 43.5,284.5 43.5,285.5 43.5,285.5 43.5,286.5 43.5,286.5 43.5,287.5 
	43.5,288.5 44.5,288.5 44.5,289.5 44.5,290.5 44.5,290.5 44.5,290.5 44.5,289.5 44.5,289.5 44.5,289.5 44.5,288.5 45.5,287.5 
	45.5,287.5 45.5,286.5 45.5,286.5 45.5,285.5 45.5,284.5 45.5,284.5 45.5,283.5 45.5,283.5 46.5,282.5 46.5,282.5 46.5,282.5 
	46.5,281.5 46.5,281.5 46.5,280.5 46.5,280.5 46.5,279.5 47.5,279.5 47.5,279.5 47.5,278.5 47.5,278.5 47.5,277.5 47.5,277.5 
	47.5,276.5 47.5,276.5 47.5,276.5 48.5,275.5 48.5,275.5 48.5,275.5 48.5,275.5 48.5,275.5 48.5,275.5 48.5,275.5 48.5,275.5 
	48.5,275.5 49.5,275.5 49.5,275.5 49.5,275.5 49.5,275.5 49.5,275.5 49.5,275.5 49.5,275.5 49.5,274.5 50.5,274.5 50.5,274.5 
	50.5,273.5 50.5,273.5 50.5,273.5 50.5,273.5 50.5,273.5 50.5,273.5 50.5,273.5 51.5,273.5 51.5,272.5 51.5,272.5 51.5,272.5 
	51.5,272.5 51.5,272.5 51.5,272.5 51.5,272.5 51.5,273.5 52.5,273.5 52.5,273.5 52.5,273.5 52.5,273.5 52.5,273.5 52.5,273.5 
	52.5,273.5 52.5,273.5 52.5,272.5 53.5,272.5 53.5,272.5 53.5,272.5 53.5,272.5 53.5,272.5 53.5,272.5 53.5,272.5 53.5,272.5 
	54.5,272.5 54.5,272.5 54.5,271.5 54.5,272.5 54.5,271.5 54.5,271.5 54.5,271.5 54.5,271.5 54.5,271.5 55.5,271.5 55.5,271.5 
	55.5,271.5 55.5,270.5 55.5,270.5 55.5,269.5 55.5,269.5 55.5,269.5 55.5,269.5 56.5,268.5 56.5,268.5 56.5,268.5 56.5,268.5 
	56.5,267.5 56.5,267.5 56.5,267.5 56.5,267.5 57.5,267.5 57.5,267.5 57.5,267.5 57.5,266.5 57.5,266.5 57.5,266.5 57.5,266.5 
	57.5,266.5 57.5,266.5 58.5,266.5 58.5,266.5 58.5,266.5 58.5,266.5 58.5,265.5 58.5,265.5 58.5,265.5 58.5,265.5 58.5,265.5 
	59.5,265.5 59.5,265.5 59.5,264.5 59.5,264.5 59.5,264.5 59.5,263.5 59.5,263.5 59.5,263.5 60.5,263.5 60.5,263.5 60.5,262.5 
	60.5,262.5 60.5,262.5 60.5,262.5 60.5,261.5 60.5,261.5 60.5,261.5 61.5,260.5 61.5,260.5 61.5,260.5 61.5,259.5 61.5,259.5 
	61.5,259.5 61.5,258.5 61.5,258.5 61.5,258.5 62.5,257.5 62.5,257.5 62.5,257.5 62.5,257.5 62.5,257.5 62.5,256.5 62.5,256.5 
	62.5,256.5 63.5,256.5 63.5,256.5 63.5,256.5 63.5,256.5 63.5,256.5 63.5,256.5 63.5,256.5 63.5,256.5 63.5,256.5 64.5,256.5 
	64.5,256.5 64.5,256.5 64.5,256.5 64.5,257.5 64.5,257.5 64.5,257.5 64.5,258.5 64.5,258.5 65.5,258.5 65.5,259.5 65.5,259.5 
	65.5,259.5 65.5,260.5 65.5,260.5 65.5,261.5 65.5,261.5 66.5,262.5 66.5,262.5 66.5,263.5 66.5,263.5 66.5,264.5 66.5,264.5 
	66.5,265.5 66.5,265.5 66.5,266.5 67.5,266.5 67.5,266.5 67.5,267.5 67.5,267.5 67.5,268.5 67.5,268.5 67.5,269.5 67.5,269.5 
	67.5,270.5 68.5,270.5 68.5,271.5 68.5,271.5 68.5,272.5 68.5,272.5 68.5,272.5 68.5,273.5 68.5,273.5 69.5,274.5 69.5,274.5 
	69.5,274.5 69.5,274.5 69.5,275.5 69.5,275.5 69.5,275.5 69.5,275.5 69.5,275.5 70.5,275.5 70.5,275.5 70.5,274.5 70.5,274.5 
	70.5,274.5 70.5,274.5 70.5,273.5 70.5,273.5 70.5,273.5 71.5,272.5 71.5,272.5 71.5,272.5 71.5,272.5 71.5,271.5 71.5,271.5 
	71.5,271.5 71.5,271.5 71.5,270.5 72.5,270.5 72.5,270.5 72.5,270.5 72.5,269.5 72.5,269.5 72.5,269.5 72.5,269.5 72.5,269.5 
	73.5,269.5 73.5,269.5 73.5,269.5 73.5,269.5 73.5,269.5 73.5,269.5 73.5,269.5 73.5,269.5 73.5,269.5 74.5,270.5 74.5,270.5 
	74.5,269.5 74.5,269.5 74.5,269.5 74.5,269.5 74.5,269.5 74.5,269.5 74.5,269.5 75.5,268.5 75.5,267.5 75.5,267.5 75.5,267.5 
	75.5,266.5 75.5,266.5 75.5,265.5 75.5,265.5 76.5,265.5 76.5,264.5 76.5,264.5 76.5,263.5 76.5,263.5 76.5,263.5 76.5,262.5 
	76.5,262.5 76.5,261.5 77.5,261.5 77.5,261.5 77.5,260.5 77.5,260.5 77.5,260.5 77.5,259.5 77.5,259.5 77.5,258.5 77.5,258.5 
	78.5,258.5 78.5,257.5 78.5,257.5 78.5,257.5 78.5,256.5 78.5,256.5 78.5,256.5 78.5,255.5 79.5,255.5 79.5,254.5 79.5,254.5 
	79.5,253.5 79.5,253.5 79.5,253.5 79.5,252.5 79.5,252.5 79.5,251.5 80.5,251.5 80.5,251.5 80.5,250.5 80.5,249.5 80.5,249.5 
	80.5,248.5 80.5,248.5 80.5,248.5 80.5,247.5 81.5,247.5 81.5,247.5 81.5,247.5 81.5,247.5 81.5,246.5 81.5,246.5 81.5,246.5 
	81.5,246.5 82.5,246.5 82.5,246.5 82.5,246.5 82.5,246.5 82.5,246.5 82.5,246.5 82.5,246.5 82.5,246.5 82.5,246.5 83.5,246.5 
	83.5,246.5 83.5,246.5 83.5,246.5 83.5,246.5 83.5,246.5 83.5,246.5 83.5,246.5 83.5,246.5 84.5,246.5 84.5,246.5 84.5,246.5 
	84.5,246.5 84.5,246.5 84.5,246.5 84.5,246.5 84.5,246.5 85.5,246.5 85.5,246.5 85.5,246.5 85.5,246.5 85.5,246.5 85.5,246.5 
	85.5,246.5 85.5,245.5 85.5,245.5 86.5,245.5 86.5,245.5 86.5,245.5 86.5,245.5 86.5,245.5 86.5,245.5 86.5,245.5 86.5,245.5 
	86.5,245.5 87.5,244.5 87.5,244.5 87.5,244.5 87.5,244.5 87.5,244.5 87.5,244.5 87.5,244.5 87.5,244.5 87.5,244.5 88.5,244.5 
	88.5,244.5 88.5,244.5 88.5,244.5 88.5,244.5 88.5,244.5 88.5,244.5 88.5,244.5 89.5,244.5 89.5,244.5 89.5,244.5 89.5,244.5 
	89.5,244.5 89.5,244.5 89.5,244.5 89.5,244.5 89.5,244.5 90.5,244.5 90.5,244.5 90.5,244.5 90.5,244.5 90.5,244.5 90.5,244.5 
	90.5,244.5 90.5,244.5 90.5,243.5 91.5,243.5 91.5,243.5 91.5,243.5 91.5,243.5 91.5,243.5 91.5,243.5 91.5,243.5 91.5,242.5 
	92.5,242.5 92.5,242.5 92.5,242.5 92.5,242.5 92.5,242.5 92.5,242.5 92.5,242.5 92.5,242.5 92.5,242.5 93.5,242.5 93.5,242.5 
	93.5,242.5 93.5,242.5 93.5,242.5 93.5,242.5 93.5,242.5 93.5,242.5 93.5,242.5 94.5,242.5 94.5,242.5 94.5,242.5 94.5,242.5 
	94.5,242.5 94.5,242.5 94.5,242.5 94.5,242.5 95.5,242.5 95.5,242.5 95.5,242.5 95.5,242.5 95.5,242.5 95.5,242.5 95.5,241.5 
	95.5,241.5 95.5,241.5 96.5,241.5 96.5,241.5 96.5,241.5 96.5,241.5 96.5,241.5 96.5,241.5 96.5,241.5 96.5,241.5 96.5,241.5 
	97.5,241.5 97.5,241.5 97.5,241.5 97.5,241.5 97.5,241.5 97.5,242.5 97.5,242.5 97.5,242.5 98.5,242.5 98.5,242.5 98.5,243.5 
	98.5,243.5 98.5,243.5 98.5,244.5 98.5,244.5 98.5,244.5 98.5,245.5 99.5,245.5 99.5,245.5 99.5,246.5 99.5,246.5 99.5,246.5 
	99.5,247.5 99.5,247.5 99.5,248.5 99.5,248.5 100.5,248.5 100.5,249.5 100.5,249.5 100.5,249.5 100.5,249.5 100.5,249.5 
	100.5,249.5 100.5,249.5 101.5,250.5 101.5,250.5 101.5,250.5 101.5,250.5 101.5,250.5 101.5,250.5 101.5,250.5 101.5,250.5 
	101.5,249.5 102.5,249.5 102.5,249.5 102.5,249.5 102.5,249.5 102.5,249.5 102.5,248.5 102.5,248.5 102.5,248.5 102.5,248.5 
	103.5,247.5 103.5,247.5 103.5,247.5 103.5,247.5 103.5,246.5 103.5,246.5 103.5,246.5 103.5,245.5 103.5,245.5 104.5,245.5 
	104.5,244.5 104.5,244.5 104.5,243.5 104.5,243.5 104.5,243.5 104.5,243.5 104.5,242.5 105.5,242.5 105.5,242.5 105.5,242.5 
	105.5,242.5 105.5,242.5 105.5,242.5 105.5,242.5 105.5,242.5 105.5,242.5 106.5,241.5 106.5,241.5 106.5,241.5 106.5,241.5 
	106.5,240.5 106.5,240.5 106.5,240.5 106.5,240.5 106.5,240.5 107.5,240.5 107.5,240.5 107.5,240.5 107.5,240.5 107.5,240.5 
	107.5,239.5 107.5,239.5 107.5,239.5 108.5,238.5 108.5,238.5 108.5,238.5 108.5,238.5 108.5,237.5 108.5,237.5 108.5,237.5 
	108.5,237.5 108.5,237.5 109.5,237.5 109.5,236.5 109.5,236.5 109.5,236.5 109.5,236.5 109.5,237.5 109.5,237.5 109.5,237.5 
	109.5,237.5 110.5,237.5 110.5,237.5 110.5,237.5 110.5,236.5 110.5,236.5 110.5,236.5 110.5,237.5 110.5,237.5 111.5,237.5 
	111.5,237.5 111.5,237.5 111.5,237.5 111.5,237.5 111.5,237.5 111.5,236.5 111.5,236.5 111.5,236.5 112.5,236.5 112.5,236.5 
	112.5,236.5 112.5,237.5 112.5,237.5 112.5,237.5 112.5,236.5 112.5,236.5 112.5,236.5 113.5,236.5 113.5,236.5 113.5,236.5 
	113.5,236.5 113.5,236.5 113.5,237.5 113.5,237.5 113.5,237.5 114.5,237.5 114.5,237.5 114.5,237.5 114.5,237.5 114.5,237.5 
	114.5,237.5 114.5,237.5 114.5,237.5 114.5,236.5 115.5,236.5 115.5,236.5 115.5,236.5 115.5,236.5 115.5,236.5 115.5,235.5 
	115.5,235.5 115.5,235.5 115.5,235.5 116.5,235.5 116.5,235.5 116.5,234.5 116.5,234.5 116.5,234.5 116.5,234.5 116.5,234.5 
	116.5,233.5 117.5,233.5 117.5,233.5 117.5,233.5 117.5,233.5 117.5,233.5 117.5,232.5 117.5,232.5 117.5,232.5 117.5,232.5 
	118.5,231.5 118.5,231.5 118.5,231.5 118.5,231.5 118.5,230.5 118.5,230.5 118.5,230.5 118.5,229.5 118.5,229.5 119.5,229.5 
	119.5,228.5 119.5,228.5 119.5,228.5 119.5,228.5 119.5,228.5 119.5,228.5 119.5,228.5 120.5,228.5 120.5,228.5 120.5,228.5 
	120.5,228.5 120.5,228.5 120.5,228.5 120.5,228.5 120.5,228.5 120.5,228.5 121.5,228.5 121.5,228.5 121.5,228.5 121.5,228.5 
	121.5,228.5 121.5,228.5 121.5,228.5 121.5,229.5 121.5,229.5 122.5,229.5 122.5,229.5 122.5,230.5 122.5,230.5 122.5,230.5 
	122.5,230.5 122.5,231.5 122.5,231.5 122.5,232.5 123.5,232.5 123.5,232.5 123.5,233.5 123.5,233.5 123.5,234.5 123.5,234.5 
	123.5,234.5 123.5,235.5 124.5,235.5 124.5,236.5 124.5,236.5 124.5,236.5 124.5,237.5 124.5,237.5 124.5,237.5 124.5,238.5 
	124.5,238.5 125.5,239.5 125.5,240.5 125.5,240.5 125.5,241.5 125.5,242.5 125.5,242.5 125.5,243.5 125.5,244.5 125.5,244.5 
	126.5,245.5 126.5,245.5 126.5,246.5 126.5,246.5 126.5,247.5 126.5,247.5 126.5,248.5 126.5,248.5 127.5,248.5 127.5,249.5 
	127.5,249.5 127.5,249.5 127.5,249.5 127.5,250.5 127.5,250.5 127.5,249.5 127.5,250.5 128.5,250.5 128.5,250.5 128.5,250.5 
	128.5,250.5 128.5,249.5 128.5,249.5 128.5,249.5 128.5,249.5 128.5,249.5 129.5,249.5 129.5,249.5 129.5,249.5 129.5,249.5 
	129.5,248.5 129.5,248.5 129.5,248.5 129.5,248.5 130.5,247.5 130.5,247.5 130.5,247.5 130.5,246.5 130.5,246.5 130.5,245.5 
	130.5,245.5 130.5,244.5 130.5,244.5 131.5,243.5 131.5,243.5 131.5,242.5 131.5,242.5 131.5,242.5 131.5,241.5 131.5,241.5 
	131.5,240.5 131.5,240.5 132.5,240.5 132.5,240.5 132.5,239.5 132.5,239.5 132.5,239.5 132.5,239.5 132.5,238.5 132.5,238.5 
	133.5,238.5 133.5,238.5 133.5,238.5 133.5,238.5 133.5,238.5 133.5,238.5 133.5,239.5 133.5,239.5 133.5,239.5 134.5,239.5 
	134.5,239.5 134.5,239.5 134.5,239.5 134.5,239.5 134.5,240.5 134.5,240.5 134.5,240.5 134.5,240.5 135.5,240.5 135.5,240.5 
	135.5,240.5 135.5,240.5 135.5,240.5 135.5,240.5 135.5,240.5 135.5,240.5 136.5,240.5 136.5,240.5 136.5,240.5 136.5,241.5 
	136.5,241.5 136.5,241.5 136.5,241.5 136.5,241.5 136.5,242.5 137.5,242.5 137.5,242.5 137.5,242.5 137.5,242.5 137.5,243.5 
	137.5,243.5 137.5,243.5 137.5,243.5 137.5,244.5 138.5,244.5 138.5,244.5 138.5,245.5 138.5,245.5 138.5,245.5 138.5,245.5 
	138.5,246.5 138.5,246.5 138.5,246.5 139.5,246.5 139.5,246.5 139.5,247.5 139.5,247.5 139.5,247.5 139.5,247.5 139.5,247.5 
	139.5,246.5 140.5,246.5 140.5,246.5 140.5,247.5 140.5,247.5 140.5,247.5 140.5,247.5 140.5,248.5 140.5,248.5 140.5,249.5 
	141.5,249.5 141.5,250.5 141.5,251.5 141.5,251.5 141.5,252.5 141.5,252.5 141.5,253.5 141.5,253.5 141.5,254.5 142.5,254.5 
	142.5,255.5 142.5,255.5 142.5,256.5 142.5,256.5 142.5,257.5 142.5,257.5 142.5,258.5 143.5,259.5 143.5,259.5 143.5,260.5 
	143.5,260.5 143.5,261.5 143.5,262.5 143.5,262.5 143.5,263.5 143.5,264.5 144.5,264.5 144.5,265.5 144.5,265.5 144.5,265.5 
	144.5,266.5 144.5,266.5 144.5,266.5 144.5,265.5 144.5,265.5 145.5,264.5 145.5,263.5 145.5,263.5 145.5,262.5 145.5,261.5 
	145.5,260.5 145.5,260.5 145.5,259.5 146.5,259.5 146.5,258.5 146.5,258.5 146.5,257.5 146.5,257.5 146.5,256.5 146.5,256.5 
	146.5,256.5 146.5,256.5 147.5,255.5 147.5,255.5 147.5,255.5 147.5,255.5 147.5,255.5 147.5,255.5 147.5,255.5 147.5,255.5 
	147.5,255.5 148.5,255.5 148.5,255.5 148.5,255.5 148.5,255.5 148.5,255.5 148.5,255.5 148.5,255.5 148.5,255.5 149.5,255.5 
	149.5,255.5 149.5,255.5 149.5,255.5 149.5,255.5 149.5,255.5 149.5,256.5 149.5,257.5 149.5,258.5 150.5,258.5 150.5,259.5 
	150.5,260.5 150.5,261.5 150.5,262.5 150.5,262.5 150.5,263.5 150.5,264.5 150.5,265.5 151.5,265.5 151.5,266.5 151.5,267.5 
	151.5,268.5 151.5,268.5 151.5,269.5 151.5,269.5 151.5,269.5 152.5,270.5 152.5,270.5 152.5,270.5 152.5,271.5 152.5,271.5 
	152.5,271.5 152.5,270.5 152.5,270.5 152.5,270.5 153.5,269.5 153.5,269.5 153.5,268.5 153.5,267.5 153.5,267.5 153.5,266.5 
	153.5,265.5 153.5,265.5 153.5,264.5 154.5,264.5 154.5,264.5 154.5,264.5 154.5,264.5 154.5,264.5 154.5,264.5 154.5,264.5 
	154.5,264.5 155.5,264.5 155.5,265.5 155.5,265.5 155.5,265.5 155.5,265.5 155.5,265.5 155.5,265.5 155.5,265.5 155.5,265.5 
	156.5,265.5 156.5,265.5 156.5,265.5 156.5,265.5 156.5,265.5 156.5,265.5 156.5,265.5 156.5,265.5 156.5,266.5 157.5,266.5 
	157.5,267.5 157.5,268.5 157.5,269.5 157.5,271.5 157.5,272.5 157.5,273.5 157.5,274.5 157.5,275.5 158.5,275.5 158.5,276.5 
	158.5,277.5 158.5,277.5 158.5,278.5 158.5,278.5 158.5,278.5 158.5,278.5 159.5,278.5 159.5,279.5 159.5,279.5 159.5,280.5 
	159.5,280.5 159.5,281.5 159.5,281.5 159.5,281.5 159.5,282.5 160.5,282.5 160.5,282.5 160.5,283.5 160.5,283.5 160.5,284.5 
	160.5,284.5 160.5,284.5 160.5,285.5 160.5,285.5 161.5,285.5 161.5,286.5 161.5,286.5 161.5,286.5 161.5,287.5 161.5,287.5 
	161.5,288.5 161.5,288.5 162.5,288.5 162.5,288.5 162.5,288.5 162.5,288.5 162.5,288.5 162.5,289.5 162.5,289.5 162.5,289.5 
	162.5,289.5 163.5,289.5 163.5,289.5 163.5,289.5 163.5,289.5 163.5,289.5 163.5,289.5 163.5,289.5 163.5,289.5 163.5,289.5 
	164.5,289.5 164.5,289.5 164.5,289.5 164.5,290.5 164.5,290.5 164.5,290.5 164.5,290.5 164.5,290.5 165.5,290.5 165.5,290.5 
	165.5,290.5 165.5,290.5 165.5,290.5 165.5,290.5 165.5,290.5 165.5,290.5 165.5,290.5 166.5,290.5 166.5,290.5 166.5,290.5 
	166.5,289.5 166.5,289.5 166.5,288.5 166.5,288.5 166.5,288.5 166.5,288.5 167.5,287.5 167.5,287.5 167.5,287.5 167.5,287.5 
	167.5,286.5 167.5,286.5 167.5,285.5 167.5,285.5 168.5,285.5 168.5,285.5 168.5,285.5 168.5,284.5 168.5,284.5 168.5,284.5 
	168.5,284.5 168.5,284.5 168.5,284.5 169.5,283.5 169.5,283.5 169.5,283.5 169.5,283.5 169.5,283.5 169.5,282.5 169.5,282.5 
	169.5,282.5 169.5,281.5 170.5,281.5 170.5,281.5 170.5,280.5 170.5,280.5 170.5,280.5 170.5,279.5 170.5,279.5 170.5,279.5 
	171.5,279.5 171.5,278.5 171.5,278.5 171.5,278.5 171.5,278.5 171.5,278.5 171.5,278.5 171.5,277.5 171.5,277.5 172.5,277.5 
	172.5,277.5 172.5,277.5 172.5,276.5 172.5,276.5 172.5,275.5 172.5,275.5 172.5,274.5 172.5,273.5 173.5,272.5 173.5,272.5 
	173.5,271.5 173.5,270.5 173.5,269.5 173.5,269.5 173.5,268.5 173.5,267.5 173.5,266.5 174.5,266.5 174.5,265.5 174.5,264.5 
	174.5,263.5 174.5,263.5 174.5,262.5 174.5,261.5 174.5,259.5 175.5,258.5 175.5,257.5 175.5,257.5 175.5,257.5 175.5,256.5 
	175.5,256.5 175.5,257.5 175.5,257.5 175.5,257.5 176.5,257.5 176.5,257.5 176.5,258.5 176.5,258.5 176.5,258.5 176.5,258.5 
	176.5,258.5 176.5,258.5 176.5,258.5 177.5,258.5 177.5,258.5 177.5,258.5 177.5,258.5 177.5,258.5 177.5,258.5 177.5,258.5 
	177.5,258.5 178.5,259.5 178.5,259.5 178.5,259.5 178.5,260.5 178.5,260.5 178.5,260.5 178.5,261.5 178.5,261.5 178.5,261.5 
	179.5,262.5 179.5,262.5 179.5,263.5 179.5,263.5 179.5,263.5 179.5,263.5 179.5,264.5 179.5,264.5 179.5,264.5 180.5,265.5 
	180.5,265.5 180.5,266.5 180.5,266.5 180.5,267.5 180.5,267.5 180.5,267.5 180.5,267.5 181.5,268.5 181.5,268.5 181.5,268.5 
	181.5,269.5 181.5,269.5 181.5,269.5 181.5,269.5 181.5,270.5 181.5,270.5 182.5,270.5 182.5,270.5 182.5,271.5 182.5,271.5 
	182.5,271.5 182.5,271.5 182.5,271.5 182.5,271.5 182.5,270.5 183.5,270.5 183.5,270.5 183.5,269.5 183.5,269.5 183.5,269.5 
	183.5,268.5 183.5,268.5 183.5,267.5 184.5,267.5 184.5,266.5 184.5,266.5 184.5,265.5 184.5,265.5 184.5,264.5 184.5,264.5 
	184.5,263.5 184.5,263.5 185.5,262.5 185.5,262.5 185.5,261.5 185.5,261.5 185.5,261.5 185.5,260.5 185.5,260.5 185.5,260.5 
	185.5,260.5 186.5,260.5 186.5,260.5 186.5,260.5 186.5,260.5 186.5,260.5 186.5,260.5 186.5,261.5 186.5,261.5 187.5,261.5 
	187.5,262.5 187.5,263.5 187.5,263.5 187.5,263.5 187.5,264.5 187.5,264.5 187.5,265.5 187.5,265.5 188.5,266.5 188.5,266.5 
	188.5,266.5 188.5,267.5 188.5,267.5 188.5,267.5 188.5,268.5 188.5,268.5 188.5,268.5 189.5,269.5 189.5,269.5 189.5,269.5 
	189.5,269.5 189.5,269.5 189.5,269.5 189.5,269.5 189.5,268.5 189.5,268.5 190.5,268.5 190.5,268.5 190.5,267.5 190.5,267.5 
	190.5,267.5 190.5,266.5 190.5,266.5 190.5,265.5 191.5,265.5 191.5,265.5 191.5,264.5 191.5,264.5 191.5,263.5 191.5,263.5 
	191.5,262.5 191.5,262.5 191.5,261.5 192.5,261.5 192.5,260.5 192.5,260.5 192.5,259.5 192.5,259.5 192.5,259.5 192.5,258.5 
	192.5,257.5 192.5,257.5 193.5,256.5 193.5,256.5 193.5,255.5 193.5,255.5 193.5,254.5 193.5,254.5 193.5,253.5 193.5,252.5 
	194.5,252.5 194.5,252.5 194.5,252.5 194.5,252.5 194.5,252.5 194.5,252.5 194.5,252.5 194.5,251.5 194.5,251.5 195.5,251.5 
	195.5,251.5 195.5,251.5 195.5,251.5 195.5,251.5 195.5,250.5 195.5,250.5 195.5,250.5 195.5,251.5 196.5,252.5 196.5,252.5 
	196.5,253.5 196.5,254.5 196.5,255.5 196.5,256.5 196.5,257.5 196.5,258.5 197.5,260.5 197.5,261.5 197.5,262.5 197.5,263.5 
	197.5,264.5 197.5,264.5 197.5,265.5 197.5,266.5 197.5,266.5 198.5,266.5 198.5,266.5 198.5,266.5 198.5,265.5 198.5,264.5 
	198.5,264.5 198.5,263.5 198.5,262.5 198.5,261.5 199.5,260.5 199.5,259.5 199.5,258.5 199.5,257.5 199.5,256.5 199.5,255.5 
	199.5,254.5 199.5,252.5 200.5,251.5 200.5,250.5 200.5,249.5 200.5,247.5 200.5,246.5 200.5,246.5 200.5,245.5 200.5,244.5 
	200.5,243.5 201.5,243.5 201.5,242.5 201.5,242.5 201.5,241.5 201.5,241.5 201.5,241.5 201.5,241.5 201.5,241.5 201.5,241.5 
	202.5,241.5 202.5,241.5 202.5,241.5 202.5,241.5 202.5,241.5 202.5,241.5 202.5,241.5 202.5,241.5 203.5,241.5 203.5,242.5 
	203.5,242.5 203.5,242.5 203.5,243.5 203.5,243.5 203.5,243.5 203.5,244.5 203.5,245.5 204.5,245.5 204.5,246.5 204.5,247.5 
	204.5,248.5 204.5,249.5 204.5,249.5 204.5,250.5 204.5,251.5 204.5,252.5 205.5,253.5 205.5,254.5 205.5,255.5 205.5,256.5 
	205.5,257.5 205.5,259.5 205.5,260.5 205.5,261.5 206.5,262.5 206.5,262.5 206.5,262.5 206.5,263.5 206.5,264.5 206.5,265.5 
	206.5,266.5 206.5,267.5 206.5,267.5 207.5,267.5 207.5,267.5 207.5,268.5 207.5,268.5 207.5,268.5 207.5,269.5 207.5,269.5 
	207.5,268.5 207.5,268.5 208.5,268.5 208.5,268.5 208.5,267.5 208.5,266.5 208.5,267.5 208.5,266.5 208.5,266.5 208.5,265.5 
	208.5,264.5 209.5,264.5 209.5,263.5 209.5,263.5 209.5,263.5 209.5,263.5 209.5,263.5 209.5,263.5 209.5,263.5 210.5,263.5 
	210.5,263.5 210.5,263.5 210.5,262.5 210.5,262.5 210.5,262.5 210.5,262.5 210.5,261.5 210.5,261.5 211.5,261.5 211.5,261.5 
	211.5,261.5 211.5,261.5 211.5,261.5 211.5,261.5 211.5,261.5 211.5,262.5 211.5,262.5 212.5,262.5 212.5,263.5 212.5,263.5 
	212.5,263.5 212.5,264.5 212.5,264.5 212.5,264.5 212.5,265.5 213.5,265.5 213.5,265.5 213.5,265.5 213.5,265.5 213.5,266.5 
	213.5,266.5 213.5,265.5 213.5,265.5 213.5,264.5 214.5,264.5 214.5,263.5 214.5,263.5 214.5,262.5 214.5,261.5 214.5,259.5 
	214.5,258.5 214.5,257.5 214.5,256.5 215.5,255.5 215.5,254.5 215.5,252.5 215.5,251.5 215.5,250.5 215.5,249.5 215.5,247.5 
	215.5,246.5 216.5,245.5 216.5,244.5 216.5,243.5 216.5,243.5 216.5,242.5 216.5,241.5 216.5,240.5 216.5,239.5 216.5,237.5 
	217.5,236.5 217.5,235.5 217.5,234.5 217.5,233.5 217.5,232.5 217.5,231.5 217.5,230.5 217.5,229.5 217.5,227.5 218.5,226.5 
	218.5,225.5 218.5,224.5 218.5,223.5 218.5,222.5 218.5,221.5 218.5,220.5 218.5,219.5 219.5,218.5 219.5,218.5 219.5,217.5 
	219.5,216.5 219.5,215.5 219.5,214.5 219.5,214.5 219.5,213.5 219.5,213.5 220.5,212.5 220.5,212.5 220.5,211.5 220.5,211.5 
	220.5,211.5 220.5,211.5 220.5,211.5 220.5,210.5 220.5,210.5 221.5,210.5 221.5,210.5 221.5,211.5 221.5,211.5 221.5,211.5 
	221.5,211.5 221.5,211.5 221.5,211.5 222.5,212.5 222.5,212.5 222.5,211.5 222.5,211.5 222.5,211.5 222.5,211.5 222.5,211.5 
	222.5,211.5 222.5,210.5 223.5,211.5 223.5,211.5 223.5,212.5 223.5,212.5 223.5,213.5 223.5,213.5 223.5,214.5 223.5,215.5 
	223.5,216.5 224.5,217.5 224.5,218.5 224.5,219.5 224.5,220.5 224.5,219.5 224.5,220.5 224.5,220.5 224.5,221.5 224.5,222.5 
	225.5,222.5 225.5,223.5 225.5,223.5 225.5,222.5 225.5,221.5 225.5,221.5 225.5,221.5 225.5,220.5 226.5,219.5 226.5,218.5 
	226.5,218.5 226.5,217.5 226.5,217.5 226.5,216.5 226.5,216.5 226.5,216.5 226.5,216.5 227.5,215.5 227.5,215.5 227.5,215.5 
	227.5,215.5 227.5,216.5 227.5,216.5 227.5,216.5 227.5,215.5 227.5,215.5 228.5,215.5 228.5,214.5 228.5,214.5 228.5,213.5 
	228.5,213.5 228.5,212.5 228.5,212.5 228.5,211.5 229.5,211.5 229.5,211.5 229.5,210.5 229.5,210.5 229.5,210.5 229.5,210.5 
	229.5,211.5 229.5,211.5 229.5,211.5 230.5,211.5 230.5,212.5 230.5,212.5 230.5,213.5 230.5,213.5 230.5,214.5 230.5,214.5 
	230.5,215.5 230.5,215.5 231.5,216.5 231.5,217.5 231.5,217.5 231.5,218.5 231.5,218.5 231.5,219.5 231.5,219.5 231.5,219.5 
	232.5,220.5 232.5,220.5 232.5,221.5 232.5,221.5 232.5,221.5 232.5,222.5 232.5,222.5 232.5,222.5 232.5,222.5 233.5,223.5 
	233.5,223.5 233.5,223.5 233.5,224.5 233.5,224.5 233.5,224.5 233.5,225.5 233.5,225.5 233.5,225.5 234.5,226.5 234.5,226.5 
	234.5,226.5 234.5,227.5 234.5,227.5 234.5,227.5 234.5,227.5 234.5,228.5 235.5,228.5 235.5,228.5 235.5,229.5 235.5,229.5 
	235.5,229.5 235.5,229.5 235.5,230.5 235.5,230.5 235.5,230.5 236.5,230.5 236.5,231.5 236.5,231.5 236.5,231.5 236.5,232.5 
	236.5,232.5 236.5,232.5 236.5,232.5 236.5,232.5 237.5,233.5 237.5,233.5 237.5,233.5 237.5,233.5 237.5,233.5 237.5,233.5 
	237.5,233.5 237.5,233.5 238.5,233.5 238.5,233.5 238.5,233.5 238.5,233.5 238.5,233.5 238.5,233.5 238.5,233.5 238.5,233.5 
	238.5,232.5 239.5,232.5 239.5,232.5 239.5,232.5 239.5,231.5 239.5,231.5 239.5,231.5 239.5,230.5 239.5,230.5 239.5,230.5 
	240.5,229.5 240.5,229.5 240.5,228.5 240.5,228.5 240.5,227.5 240.5,227.5 240.5,226.5 240.5,226.5 241.5,225.5 241.5,225.5 
	241.5,224.5 241.5,224.5 241.5,223.5 241.5,223.5 241.5,223.5 241.5,223.5 241.5,222.5 242.5,222.5 242.5,222.5 242.5,221.5 
	242.5,221.5 242.5,221.5 242.5,221.5 242.5,220.5 242.5,220.5 242.5,220.5 243.5,220.5 243.5,220.5 243.5,219.5 243.5,219.5 
	243.5,219.5 243.5,219.5 243.5,219.5 243.5,219.5 243.5,218.5 244.5,218.5 244.5,218.5 244.5,218.5 244.5,218.5 244.5,217.5 
	244.5,217.5 244.5,217.5 244.5,217.5 245.5,217.5 245.5,217.5 245.5,217.5 245.5,217.5 245.5,216.5 245.5,217.5 245.5,217.5 
	245.5,217.5 245.5,218.5 246.5,218.5 246.5,218.5 246.5,218.5 246.5,218.5 246.5,218.5 246.5,218.5 246.5,218.5 246.5,217.5 
	246.5,217.5 247.5,217.5 247.5,216.5 247.5,216.5 247.5,216.5 247.5,215.5 247.5,215.5 247.5,215.5 247.5,215.5 248.5,214.5 
	248.5,214.5 248.5,214.5 248.5,214.5 248.5,213.5 248.5,213.5 248.5,213.5 248.5,213.5 248.5,213.5 249.5,213.5 249.5,213.5 
	249.5,213.5 249.5,213.5 249.5,213.5 249.5,213.5 249.5,213.5 249.5,213.5 249.5,213.5 250.5,213.5 250.5,213.5 250.5,213.5 
	250.5,213.5 250.5,213.5 250.5,213.5 250.5,213.5 250.5,213.5 251.5,212.5 251.5,212.5 251.5,212.5 251.5,212.5 251.5,212.5 
	251.5,212.5 251.5,212.5 251.5,212.5 251.5,212.5 252.5,212.5 252.5,212.5 252.5,212.5 252.5,211.5 252.5,211.5 252.5,211.5 
	252.5,211.5 252.5,211.5 252.5,211.5 253.5,212.5 253.5,212.5 253.5,212.5 253.5,212.5 253.5,212.5 253.5,212.5 253.5,212.5 
	253.5,212.5 254.5,212.5 254.5,212.5 254.5,212.5 254.5,212.5 254.5,213.5 254.5,213.5 254.5,214.5 254.5,215.5 254.5,215.5 
	255.5,215.5 255.5,216.5 255.5,216.5 255.5,217.5 255.5,217.5 255.5,217.5 255.5,218.5 255.5,218.5 255.5,218.5 256.5,219.5 
	256.5,219.5 256.5,219.5 256.5,219.5 256.5,220.5 256.5,220.5 256.5,220.5 256.5,219.5 257.5,219.5 257.5,219.5 257.5,218.5 
	257.5,218.5 257.5,218.5 257.5,218.5 257.5,218.5 257.5,218.5 257.5,218.5 258.5,218.5 258.5,218.5 258.5,218.5 258.5,218.5 
	258.5,218.5 258.5,218.5 258.5,218.5 258.5,218.5 258.5,218.5 259.5,218.5 259.5,218.5 259.5,218.5 259.5,217.5 259.5,217.5 
	259.5,217.5 259.5,216.5 259.5,216.5 259.5,216.5 260.5,216.5 260.5,215.5 260.5,215.5 260.5,215.5 260.5,216.5 260.5,216.5 
	260.5,216.5 260.5,216.5 261.5,217.5 261.5,217.5 261.5,218.5 261.5,218.5 261.5,219.5 261.5,220.5 261.5,220.5 261.5,221.5 
	261.5,221.5 262.5,221.5 262.5,221.5 262.5,222.5 262.5,222.5 262.5,223.5 262.5,223.5 262.5,223.5 262.5,223.5 262.5,223.5 
	263.5,223.5 263.5,222.5 263.5,222.5 263.5,222.5 263.5,221.5 263.5,220.5 263.5,219.5 263.5,218.5 264.5,218.5 264.5,218.5 
	264.5,217.5 264.5,217.5 264.5,217.5 264.5,216.5 264.5,216.5 264.5,215.5 264.5,215.5 265.5,215.5 265.5,215.5 265.5,214.5 
	265.5,214.5 265.5,214.5 265.5,214.5 265.5,214.5 265.5,214.5 265.5,214.5 266.5,213.5 266.5,213.5 266.5,213.5 266.5,214.5 
	266.5,214.5 266.5,214.5 266.5,214.5 266.5,215.5 267.5,215.5 267.5,216.5 267.5,216.5 267.5,217.5 267.5,217.5 267.5,217.5 
	267.5,217.5 267.5,217.5 267.5,217.5 268.5,217.5 268.5,217.5 268.5,218.5 268.5,218.5 268.5,217.5 268.5,217.5 268.5,217.5 
	268.5,217.5 268.5,217.5 269.5,217.5 269.5,217.5 269.5,217.5 269.5,216.5 269.5,216.5 269.5,216.5 269.5,216.5 269.5,216.5 
	270.5,216.5 270.5,216.5 270.5,216.5 270.5,216.5 270.5,216.5 270.5,216.5 270.5,216.5 270.5,216.5 270.5,217.5 271.5,217.5 
	271.5,217.5 271.5,217.5 271.5,218.5 271.5,218.5 271.5,219.5 271.5,219.5 271.5,219.5 271.5,220.5 272.5,220.5 272.5,220.5 
	272.5,220.5 272.5,220.5 272.5,220.5 272.5,219.5 272.5,219.5 272.5,218.5 273.5,218.5 273.5,217.5 273.5,217.5 273.5,217.5 
	273.5,217.5 273.5,216.5 273.5,216.5 273.5,216.5 273.5,216.5 274.5,215.5 274.5,215.5 274.5,215.5 274.5,215.5 274.5,214.5 
	274.5,214.5 274.5,214.5 274.5,214.5 274.5,214.5 275.5,214.5 275.5,214.5 275.5,214.5 275.5,213.5 275.5,213.5 275.5,213.5 
	275.5,213.5 275.5,213.5 275.5,213.5 276.5,213.5 276.5,213.5 276.5,213.5 276.5,213.5 276.5,213.5 276.5,213.5 276.5,213.5 
	276.5,213.5 277.5,213.5 277.5,213.5 277.5,213.5 277.5,213.5 277.5,213.5 277.5,213.5 277.5,213.5 277.5,213.5 277.5,213.5 
	278.5,213.5 278.5,213.5 278.5,213.5 278.5,214.5 278.5,214.5 278.5,214.5 278.5,214.5 278.5,214.5 278.5,214.5 279.5,215.5 
	279.5,215.5 279.5,215.5 279.5,215.5 279.5,216.5 279.5,216.5 279.5,216.5 279.5,216.5 280.5,216.5 280.5,216.5 280.5,217.5 
	280.5,217.5 280.5,217.5 280.5,217.5 280.5,217.5 280.5,218.5 280.5,218.5 281.5,218.5 281.5,219.5 281.5,219.5 281.5,219.5 
	281.5,220.5 281.5,220.5 281.5,221.5 281.5,221.5 281.5,222.5 282.5,222.5 282.5,223.5 282.5,223.5 282.5,224.5 282.5,224.5 
	282.5,225.5 282.5,225.5 282.5,226.5 283.5,227.5 283.5,227.5 283.5,228.5 283.5,229.5 283.5,230.5 283.5,230.5 283.5,231.5 
	283.5,231.5 283.5,232.5 284.5,232.5 284.5,233.5 284.5,234.5 284.5,234.5 284.5,235.5 284.5,235.5 284.5,236.5 284.5,237.5 
	284.5,237.5 285.5,238.5 285.5,239.5 285.5,239.5 285.5,239.5 285.5,240.5 285.5,240.5 285.5,239.5 285.5,239.5 286.5,238.5 
	286.5,238.5 286.5,238.5 286.5,238.5 286.5,238.5 286.5,237.5 286.5,237.5 286.5,237.5 286.5,237.5 287.5,237.5 287.5,237.5 
	287.5,237.5 287.5,237.5 287.5,237.5 287.5,237.5 287.5,237.5 287.5,237.5 287.5,237.5 288.5,236.5 288.5,236.5 288.5,236.5 
	288.5,235.5 288.5,235.5 288.5,235.5 288.5,234.5 288.5,234.5 289.5,234.5 289.5,233.5 289.5,233.5 289.5,233.5 289.5,233.5 
	289.5,232.5 289.5,232.5 289.5,232.5 289.5,232.5 290.5,232.5 290.5,232.5 290.5,231.5 290.5,231.5 290.5,231.5 290.5,231.5 
	290.5,230.5 290.5,230.5 290.5,230.5 291.5,230.5 291.5,229.5 291.5,229.5 291.5,229.5 291.5,229.5 291.5,228.5 291.5,228.5 
	291.5,228.5 292.5,227.5 292.5,227.5 292.5,227.5 292.5,227.5 292.5,226.5 292.5,226.5 292.5,226.5 292.5,226.5 292.5,226.5 
	293.5,226.5 293.5,226.5 293.5,227.5 293.5,227.5 293.5,227.5 293.5,227.5 293.5,228.5 293.5,228.5 293.5,229.5 294.5,229.5 
	294.5,230.5 294.5,230.5 294.5,231.5 294.5,231.5 294.5,232.5 294.5,232.5 294.5,233.5 294.5,233.5 295.5,234.5 295.5,234.5 
	295.5,235.5 295.5,235.5 295.5,236.5 295.5,237.5 295.5,237.5 295.5,238.5 296.5,239.5 296.5,239.5 296.5,240.5 296.5,240.5 
	296.5,241.5 296.5,242.5 296.5,242.5 296.5,243.5 296.5,243.5 297.5,244.5 297.5,244.5 297.5,244.5 297.5,244.5 297.5,244.5 
	297.5,244.5 297.5,244.5 297.5,243.5 297.5,243.5 298.5,243.5 298.5,243.5 298.5,242.5 298.5,242.5 298.5,242.5 298.5,242.5 
	298.5,242.5 298.5,242.5 299.5,242.5 299.5,242.5 299.5,242.5 299.5,242.5 299.5,242.5 299.5,243.5 299.5,243.5 299.5,243.5 
	299.5,243.5 300.5,243.5 300.5,243.5 300.5,243.5 300.5,243.5 300.5,244.5 300.5,244.5 300.5,244.5 300.5,244.5 300.5,244.5 
	301.5,244.5 301.5,244.5 301.5,244.5 301.5,244.5 301.5,244.5 301.5,244.5 301.5,245.5 301.5,245.5 302.5,245.5 302.5,245.5 
	302.5,245.5 302.5,246.5 302.5,246.5 302.5,247.5 302.5,247.5 302.5,247.5 302.5,247.5 303.5,246.5 303.5,246.5 303.5,246.5 
	303.5,246.5 303.5,246.5 303.5,246.5 303.5,246.5 303.5,246.5 303.5,245.5 304.5,245.5 304.5,245.5 304.5,245.5 304.5,245.5 
	304.5,245.5 304.5,245.5 304.5,245.5 304.5,245.5 305.5,244.5 305.5,244.5 305.5,244.5 305.5,244.5 305.5,244.5 305.5,244.5 
	305.5,244.5 305.5,244.5 305.5,244.5 306.5,244.5 306.5,244.5 306.5,244.5 306.5,244.5 306.5,243.5 306.5,243.5 306.5,243.5 
	306.5,243.5 306.5,244.5 307.5,245.5 307.5,245.5 307.5,246.5 307.5,246.5 307.5,246.5 307.5,246.5 307.5,246.5 307.5,246.5 
	308.5,246.5 308.5,246.5 308.5,246.5 308.5,246.5 308.5,246.5 308.5,246.5 308.5,246.5 308.5,246.5 308.5,246.5 309.5,246.5 
	309.5,246.5 309.5,246.5 309.5,246.5 309.5,246.5 309.5,246.5 309.5,246.5 309.5,246.5 309.5,247.5 310.5,248.5 310.5,249.5 
	310.5,250.5 310.5,251.5 310.5,251.5 310.5,252.5 310.5,252.5 310.5,253.5 310.5,253.5 311.5,254.5 311.5,254.5 311.5,254.5 
	311.5,255.5 311.5,255.5 311.5,254.5 311.5,254.5 311.5,254.5 312.5,254.5 312.5,253.5 312.5,252.5 312.5,251.5 312.5,250.5 
	312.5,250.5 312.5,249.5 312.5,248.5 312.5,247.5 313.5,246.5 313.5,245.5 313.5,244.5 313.5,243.5 313.5,243.5 313.5,242.5 
	313.5,241.5 313.5,240.5 313.5,239.5 314.5,238.5 314.5,238.5 314.5,238.5 314.5,238.5 314.5,238.5 314.5,238.5 314.5,238.5 
	314.5,238.5 315.5,239.5 315.5,239.5 315.5,239.5 315.5,239.5 315.5,239.5 315.5,240.5 315.5,240.5 315.5,240.5 315.5,240.5 
	316.5,240.5 316.5,240.5 316.5,240.5 316.5,240.5 316.5,240.5 316.5,240.5 316.5,240.5 316.5,240.5 316.5,240.5 317.5,240.5 
	317.5,240.5 317.5,240.5 317.5,240.5 317.5,240.5 317.5,240.5 317.5,240.5 317.5,240.5 318.5,240.5 318.5,240.5 318.5,240.5 
	318.5,240.5 318.5,240.5 318.5,239.5 318.5,239.5 318.5,239.5 318.5,239.5 319.5,239.5 319.5,239.5 319.5,239.5 319.5,239.5 
	319.5,239.5 319.5,240.5 319.5,240.5 319.5,240.5 319.5,240.5 320.5,241.5 320.5,241.5 320.5,241.5 320.5,241.5 320.5,242.5 
	320.5,242.5 320.5,242.5 320.5,242.5 321.5,242.5 321.5,243.5 321.5,243.5 321.5,243.5 321.5,243.5 321.5,243.5 321.5,243.5 
	321.5,244.5 321.5,244.5 322.5,244.5 322.5,244.5 322.5,244.5 322.5,244.5 322.5,244.5 322.5,244.5 322.5,245.5 322.5,245.5 
	322.5,245.5 323.5,245.5 323.5,245.5 323.5,245.5 323.5,246.5 323.5,245.5 323.5,245.5 323.5,245.5 323.5,245.5 324.5,245.5 
	324.5,245.5 324.5,245.5 324.5,245.5 324.5,245.5 324.5,245.5 324.5,245.5 324.5,245.5 324.5,245.5 325.5,245.5 325.5,245.5 
	325.5,245.5 325.5,245.5 325.5,244.5 325.5,244.5 325.5,244.5 325.5,244.5 325.5,244.5 326.5,244.5 326.5,244.5 326.5,244.5 
	326.5,244.5 326.5,244.5 326.5,244.5 326.5,244.5 326.5,244.5 327.5,244.5 327.5,244.5 327.5,244.5 327.5,244.5 327.5,244.5 
	327.5,244.5 327.5,244.5 327.5,244.5 327.5,244.5 328.5,244.5 328.5,244.5 328.5,244.5 328.5,244.5 328.5,244.5 328.5,244.5 
	328.5,244.5 328.5,244.5 328.5,245.5 329.5,245.5 329.5,245.5 329.5,245.5 329.5,245.5 329.5,244.5 329.5,244.5 329.5,244.5 
	329.5,243.5 329.5,243.5 330.5,243.5 330.5,243.5 330.5,243.5 330.5,243.5 330.5,243.5 330.5,242.5 330.5,242.5 330.5,242.5 
	331.5,242.5 331.5,242.5 331.5,241.5 331.5,241.5 331.5,241.5 331.5,240.5 331.5,240.5 331.5,240.5 331.5,239.5 332.5,239.5 
	332.5,240.5 332.5,242.5 332.5,244.5 332.5,246.5 332.5,247.5 332.5,248.5 332.5,248.5 332.5,249.5 333.5,250.5 333.5,249.5 
	333.5,249.5 333.5,248.5 333.5,248.5 333.5,248.5 333.5,247.5 333.5,247.5 334.5,246.5 334.5,246.5 334.5,246.5 334.5,245.5 
	334.5,245.5 334.5,245.5 334.5,245.5 334.5,245.5 334.5,245.5 335.5,245.5 335.5,245.5 335.5,245.5 335.5,245.5 335.5,245.5 
	335.5,245.5 335.5,245.5 335.5,245.5 335.5,245.5 336.5,245.5 336.5,245.5 336.5,245.5 336.5,245.5 336.5,245.5 336.5,245.5 
	336.5,245.5 336.5,245.5 337.5,245.5 337.5,245.5 337.5,245.5 337.5,245.5 337.5,245.5 337.5,244.5 337.5,244.5 337.5,244.5 
	337.5,244.5 338.5,244.5 338.5,244.5 338.5,243.5 338.5,243.5 338.5,243.5 338.5,243.5 338.5,243.5 338.5,242.5 338.5,242.5 
	339.5,241.5 339.5,241.5 339.5,240.5 339.5,240.5 339.5,239.5 339.5,239.5 339.5,238.5 339.5,238.5 340.5,237.5 340.5,237.5 
	340.5,236.5 340.5,236.5 340.5,235.5 340.5,235.5 340.5,234.5 340.5,234.5 340.5,233.5 341.5,233.5 341.5,232.5 341.5,232.5 
	341.5,231.5 341.5,231.5 341.5,231.5 341.5,231.5 341.5,230.5 341.5,230.5 342.5,230.5 342.5,230.5 342.5,229.5 342.5,229.5 
	342.5,229.5 342.5,228.5 342.5,228.5 342.5,228.5 343.5,227.5 343.5,227.5 343.5,227.5 343.5,226.5 343.5,226.5 343.5,226.5 
	343.5,226.5 343.5,225.5 343.5,225.5 344.5,225.5 344.5,225.5 344.5,225.5 344.5,225.5 344.5,225.5 344.5,225.5 344.5,225.5 
	344.5,226.5 344.5,226.5 345.5,226.5 345.5,226.5 345.5,226.5 345.5,226.5 345.5,226.5 345.5,227.5 345.5,227.5 345.5,227.5 
	345.5,228.5 346.5,228.5 346.5,228.5 346.5,228.5 346.5,228.5 346.5,229.5 346.5,229.5 346.5,229.5 346.5,229.5 347.5,230.5 
	347.5,230.5 347.5,230.5 347.5,231.5 347.5,231.5 347.5,231.5 347.5,231.5 347.5,231.5 347.5,231.5 348.5,231.5 348.5,231.5 
	348.5,232.5 348.5,232.5 348.5,232.5 348.5,232.5 348.5,233.5 348.5,233.5 348.5,233.5 349.5,233.5 349.5,233.5 349.5,234.5 
	349.5,234.5 349.5,234.5 349.5,234.5 349.5,234.5 349.5,234.5 350.5,234.5 350.5,234.5 350.5,234.5 350.5,234.5 350.5,234.5 
	350.5,234.5 350.5,234.5 350.5,234.5 350.5,234.5 351.5,234.5 351.5,234.5 351.5,234.5 351.5,234.5 351.5,234.5 351.5,233.5 
	351.5,233.5 351.5,233.5 351.5,233.5 352.5,232.5 352.5,231.5 352.5,230.5 352.5,230.5 352.5,230.5 352.5,229.5 352.5,229.5 
	352.5,228.5 353.5,228.5 353.5,228.5 353.5,228.5 353.5,227.5 353.5,227.5 353.5,227.5 353.5,227.5 353.5,227.5 353.5,227.5 
	354.5,226.5 354.5,226.5 354.5,226.5 354.5,227.5 354.5,227.5 354.5,227.5 354.5,226.5 354.5,226.5 354.5,225.5 355.5,224.5 
	355.5,224.5 355.5,223.5 355.5,223.5 355.5,223.5 355.5,223.5 355.5,224.5 355.5,224.5 356.5,224.5 356.5,224.5 356.5,224.5 
	356.5,224.5 356.5,224.5 356.5,224.5 356.5,224.5 356.5,225.5 356.5,225.5 357.5,225.5 357.5,225.5 357.5,225.5 357.5,225.5 
	357.5,226.5 357.5,226.5 357.5,226.5 357.5,226.5 357.5,226.5 358.5,227.5 358.5,227.5 358.5,227.5 358.5,227.5 358.5,227.5 
	358.5,227.5 358.5,227.5 358.5,227.5 359.5,227.5 359.5,227.5 359.5,227.5 359.5,226.5 359.5,226.5 359.5,226.5 359.5,226.5 
	359.5,226.5 359.5,225.5 360.5,225.5 360.5,225.5 360.5,225.5 360.5,225.5 360.5,225.5 360.5,225.5 360.5,224.5 360.5,224.5 
	360.5,224.5 361.5,224.5 361.5,224.5 361.5,224.5 361.5,224.5 361.5,223.5 361.5,223.5 361.5,223.5 361.5,223.5 361.5,223.5 
	362.5,223.5 362.5,223.5 362.5,223.5 362.5,223.5 362.5,223.5 362.5,222.5 362.5,222.5 362.5,222.5 363.5,222.5 363.5,222.5 
	363.5,221.5 363.5,221.5 363.5,221.5 363.5,221.5 363.5,220.5 363.5,220.5 363.5,220.5 364.5,220.5 364.5,220.5 364.5,220.5 
	364.5,219.5 364.5,219.5 364.5,219.5 364.5,218.5 364.5,218.5 364.5,218.5 365.5,218.5 365.5,218.5 365.5,218.5 365.5,218.5 
	365.5,218.5 365.5,217.5 365.5,217.5 365.5,217.5 366.5,217.5 366.5,217.5 366.5,217.5 366.5,216.5 366.5,216.5 366.5,216.5 
	366.5,215.5 366.5,215.5 366.5,215.5 367.5,215.5 367.5,215.5 367.5,215.5 367.5,215.5 367.5,215.5 367.5,215.5 367.5,215.5 
	367.5,215.5 367.5,216.5 368.5,216.5 368.5,216.5 368.5,217.5 368.5,217.5 368.5,217.5 368.5,217.5 368.5,217.5 368.5,218.5 
	369.5,218.5 369.5,218.5 369.5,219.5 369.5,219.5 369.5,219.5 369.5,219.5 369.5,220.5 369.5,220.5 369.5,220.5 370.5,220.5 
	370.5,220.5 370.5,220.5 370.5,219.5 370.5,219.5 370.5,219.5 370.5,219.5 370.5,219.5 370.5,219.5 371.5,219.5 371.5,219.5 
	371.5,219.5 371.5,219.5 371.5,220.5 371.5,220.5 371.5,220.5 371.5,220.5 372.5,221.5 372.5,221.5 372.5,221.5 372.5,221.5 
	372.5,222.5 372.5,222.5 372.5,222.5 372.5,222.5 372.5,222.5 373.5,222.5 373.5,222.5 373.5,222.5 373.5,222.5 373.5,223.5 
	373.5,223.5 373.5,223.5 373.5,223.5 373.5,223.5 374.5,223.5 374.5,223.5 374.5,223.5 374.5,223.5 374.5,223.5 374.5,224.5 
	374.5,224.5 374.5,224.5 375.5,223.5 375.5,223.5 375.5,223.5 375.5,223.5 375.5,224.5 375.5,224.5 375.5,224.5 375.5,224.5 
	375.5,224.5 376.5,224.5 376.5,224.5 376.5,224.5 376.5,225.5 376.5,225.5 376.5,225.5 376.5,226.5 376.5,226.5 376.5,226.5 
	377.5,226.5 377.5,227.5 377.5,227.5 377.5,227.5 377.5,227.5 377.5,226.5 377.5,226.5 377.5,226.5 378.5,226.5 378.5,226.5 
	378.5,226.5 378.5,225.5 378.5,225.5 378.5,225.5 378.5,225.5 378.5,225.5 378.5,225.5 379.5,225.5 379.5,224.5 379.5,224.5 
	379.5,224.5 379.5,224.5 379.5,224.5 379.5,224.5 379.5,224.5 379.5,223.5 380.5,223.5 380.5,223.5 380.5,223.5 380.5,223.5 
	380.5,223.5 380.5,222.5 380.5,222.5 380.5,222.5 380.5,222.5 381.5,222.5 381.5,222.5 381.5,222.5 381.5,222.5 381.5,221.5 
	381.5,221.5 381.5,221.5 381.5,221.5 382.5,221.5 382.5,221.5 382.5,220.5 382.5,220.5 382.5,220.5 382.5,220.5 382.5,220.5 
	382.5,219.5 382.5,219.5 383.5,219.5 383.5,219.5 383.5,218.5 383.5,218.5 383.5,218.5 383.5,218.5 383.5,218.5 383.5,217.5 
	383.5,217.5 384.5,216.5 384.5,216.5 384.5,216.5 384.5,215.5 384.5,214.5 384.5,213.5 384.5,213.5 384.5,213.5 385.5,212.5 
	385.5,212.5 385.5,212.5 385.5,212.5 385.5,211.5 385.5,211.5 385.5,211.5 385.5,211.5 385.5,211.5 386.5,211.5 386.5,210.5 
	386.5,210.5 386.5,210.5 386.5,210.5 386.5,210.5 386.5,210.5 386.5,210.5 386.5,209.5 387.5,209.5 387.5,209.5 387.5,209.5 
	387.5,208.5 387.5,208.5 387.5,208.5 387.5,207.5 387.5,207.5 388.5,207.5 388.5,207.5 388.5,207.5 388.5,207.5 388.5,206.5 
	388.5,206.5 388.5,205.5 388.5,205.5 388.5,205.5 389.5,205.5 389.5,205.5 389.5,204.5 389.5,205.5 389.5,205.5 389.5,205.5 
	389.5,205.5 389.5,205.5 389.5,206.5 390.5,206.5 390.5,206.5 390.5,206.5 390.5,206.5 390.5,206.5 390.5,206.5 390.5,205.5 
	390.5,205.5 391.5,205.5 391.5,204.5 391.5,204.5 391.5,204.5 391.5,204.5 391.5,204.5 391.5,204.5 391.5,204.5 391.5,204.5 
	392.5,204.5 392.5,204.5 392.5,204.5 392.5,204.5 392.5,203.5 392.5,203.5 392.5,203.5 392.5,203.5 392.5,203.5 393.5,203.5 
	393.5,203.5 393.5,203.5 393.5,202.5 393.5,202.5 393.5,202.5 393.5,202.5 393.5,202.5 394.5,202.5 394.5,202.5 394.5,202.5 
	394.5,202.5 394.5,202.5 394.5,202.5 394.5,202.5 394.5,202.5 394.5,202.5 395.5,202.5 395.5,202.5 395.5,203.5 395.5,203.5 
	395.5,204.5 395.5,204.5 395.5,204.5 395.5,204.5 395.5,204.5 396.5,204.5 396.5,204.5 396.5,204.5 396.5,204.5 396.5,204.5 
	396.5,204.5 396.5,204.5 396.5,205.5 396.5,206.5 397.5,206.5 397.5,206.5 397.5,206.5 397.5,206.5 397.5,206.5 397.5,206.5 
	397.5,206.5 397.5,206.5 398.5,206.5 398.5,206.5 398.5,206.5 398.5,206.5 398.5,206.5 398.5,205.5 398.5,205.5 398.5,205.5 
	398.5,204.5 399.5,204.5 399.5,203.5 399.5,202.5 399.5,201.5 399.5,201.5 399.5,200.5 399.5,199.5 399.5,198.5 399.5,197.5 
	400.5,196.5 400.5,195.5 400.5,194.5 400.5,193.5 400.5,192.5 400.5,191.5 400.5,191.5 400.5,190.5 401.5,190.5 401.5,189.5 
	401.5,189.5 401.5,189.5 401.5,188.5 401.5,188.5 401.5,188.5 401.5,188.5 401.5,188.5 402.5,188.5 402.5,188.5 402.5,188.5 
	402.5,188.5 402.5,188.5 402.5,188.5 402.5,188.5 402.5,188.5 402.5,188.5 403.5,188.5 403.5,188.5 403.5,188.5 403.5,188.5 
	403.5,188.5 403.5,187.5 403.5,187.5 403.5,187.5 404.5,187.5 404.5,187.5 404.5,187.5 404.5,187.5 404.5,187.5 404.5,187.5 
	404.5,187.5 404.5,187.5 404.5,187.5 405.5,187.5 405.5,187.5 405.5,187.5 405.5,187.5 405.5,187.5 405.5,188.5 405.5,188.5 
	405.5,188.5 405.5,189.5 406.5,189.5 406.5,189.5 406.5,189.5 406.5,190.5 406.5,190.5 406.5,190.5 406.5,190.5 406.5,190.5 
	407.5,190.5 407.5,190.5 407.5,189.5 407.5,189.5 407.5,189.5 407.5,188.5 407.5,188.5 407.5,188.5 407.5,189.5 408.5,189.5 
	408.5,188.5 408.5,188.5 408.5,188.5 408.5,187.5 408.5,187.5 408.5,187.5 408.5,186.5 408.5,186.5 409.5,185.5 409.5,184.5 
	409.5,183.5 409.5,183.5 409.5,182.5 409.5,181.5 409.5,181.5 409.5,180.5 410.5,179.5 410.5,179.5 410.5,178.5 410.5,178.5 
	410.5,177.5 410.5,177.5 410.5,178.5 410.5,178.5 410.5,178.5 411.5,178.5 411.5,178.5 411.5,179.5 411.5,179.5 411.5,179.5 
	411.5,179.5 411.5,179.5 411.5,179.5 411.5,179.5 412.5,179.5 412.5,180.5 412.5,180.5 412.5,179.5 412.5,179.5 412.5,179.5 
	412.5,180.5 412.5,181.5 413.5,182.5 413.5,183.5 413.5,184.5 413.5,185.5 413.5,186.5 413.5,187.5 413.5,189.5 413.5,190.5 
	413.5,191.5 414.5,192.5 414.5,192.5 414.5,192.5 414.5,192.5 414.5,192.5 414.5,192.5 414.5,191.5 414.5,190.5 414.5,190.5 
	415.5,189.5 415.5,188.5 415.5,187.5 415.5,186.5 415.5,185.5 415.5,185.5 415.5,184.5 415.5,184.5 415.5,184.5 416.5,184.5 
	416.5,183.5 416.5,183.5 416.5,183.5 416.5,183.5 416.5,183.5 416.5,183.5 416.5,183.5 417.5,182.5 417.5,182.5 417.5,182.5 
	417.5,181.5 417.5,181.5 417.5,181.5 417.5,181.5 417.5,181.5 417.5,180.5 418.5,180.5 418.5,180.5 418.5,179.5 418.5,178.5 
	418.5,178.5 418.5,177.5 418.5,176.5 418.5,175.5 418.5,174.5 419.5,173.5 419.5,171.5 419.5,170.5 419.5,169.5 419.5,167.5 
	419.5,165.5 419.5,164.5 419.5,163.5 420.5,162.5 420.5,161.5 420.5,160.5 420.5,159.5 420.5,158.5 420.5,157.5 420.5,156.5 
	420.5,155.5 420.5,154.5 421.5,153.5 421.5,153.5 421.5,153.5 421.5,153.5 421.5,153.5 421.5,153.5 421.5,153.5 421.5,152.5 
	421.5,153.5 422.5,152.5 422.5,152.5 422.5,152.5 422.5,152.5 422.5,152.5 422.5,152.5 422.5,151.5 422.5,151.5 423.5,151.5 
	423.5,151.5 423.5,151.5 423.5,151.5 423.5,152.5 423.5,152.5 423.5,153.5 423.5,153.5 423.5,154.5 424.5,154.5 424.5,154.5 
	424.5,155.5 424.5,155.5 424.5,156.5 424.5,156.5 424.5,157.5 424.5,157.5 424.5,157.5 425.5,157.5 425.5,157.5 425.5,157.5 
	425.5,157.5 425.5,158.5 425.5,158.5 425.5,158.5 425.5,158.5 426.5,159.5 426.5,159.5 426.5,159.5 426.5,159.5 426.5,159.5 
	426.5,159.5 426.5,159.5 426.5,159.5 426.5,159.5 427.5,159.5 427.5,159.5 427.5,159.5 427.5,159.5 427.5,159.5 427.5,159.5 
	427.5,159.5 427.5,159.5 427.5,159.5 428.5,159.5 428.5,160.5 428.5,160.5 428.5,160.5 428.5,161.5 428.5,161.5 428.5,162.5 
	428.5,162.5 429.5,162.5 429.5,162.5 429.5,162.5 429.5,162.5 429.5,162.5 429.5,162.5 429.5,162.5 429.5,162.5 429.5,162.5 
	430.5,162.5 430.5,162.5 430.5,162.5 430.5,163.5 430.5,163.5 430.5,163.5 430.5,164.5 430.5,164.5 430.5,165.5 431.5,165.5 
	431.5,165.5 431.5,166.5 431.5,166.5 431.5,166.5 431.5,166.5 431.5,165.5 431.5,165.5 431.5,165.5 432.5,164.5 432.5,163.5 
	432.5,163.5 432.5,162.5 432.5,161.5 432.5,160.5 432.5,158.5 432.5,157.5 433.5,156.5 433.5,155.5 433.5,155.5 433.5,154.5 
	433.5,153.5 433.5,152.5 433.5,152.5 433.5,151.5 433.5,150.5 434.5,149.5 434.5,149.5 434.5,148.5 434.5,147.5 434.5,146.5 
	434.5,145.5 434.5,144.5 434.5,143.5 434.5,142.5 435.5,141.5 435.5,141.5 435.5,140.5 435.5,139.5 435.5,139.5 435.5,138.5 
	435.5,138.5 435.5,138.5 436.5,138.5 436.5,138.5 436.5,138.5 436.5,138.5 436.5,138.5 436.5,138.5 436.5,138.5 436.5,138.5 
	436.5,138.5 437.5,138.5 437.5,138.5 437.5,138.5 437.5,138.5 437.5,138.5 437.5,138.5 437.5,138.5 437.5,138.5 437.5,138.5 
	438.5,138.5 438.5,138.5 438.5,137.5 438.5,138.5 438.5,137.5 438.5,137.5 438.5,137.5 438.5,137.5 439.5,137.5 439.5,137.5 
	439.5,137.5 439.5,137.5 439.5,138.5 439.5,138.5 439.5,137.5 439.5,137.5 439.5,136.5 440.5,136.5 440.5,135.5 440.5,135.5 
	440.5,135.5 440.5,134.5 440.5,134.5 440.5,134.5 440.5,133.5 440.5,133.5 441.5,133.5 441.5,133.5 441.5,133.5 441.5,132.5 
	441.5,132.5 441.5,132.5 441.5,132.5 441.5,132.5 442.5,132.5 442.5,132.5 442.5,132.5 442.5,131.5 442.5,131.5 442.5,131.5 
	442.5,131.5 442.5,131.5 442.5,131.5 443.5,131.5 443.5,131.5 443.5,131.5 443.5,131.5 443.5,131.5 443.5,132.5 443.5,132.5 
	443.5,132.5 443.5,133.5 444.5,133.5 444.5,134.5 444.5,134.5 444.5,134.5 444.5,135.5 444.5,135.5 444.5,136.5 444.5,136.5 
	445.5,136.5 445.5,137.5 445.5,138.5 445.5,138.5 445.5,139.5 445.5,140.5 445.5,140.5 445.5,141.5 445.5,142.5 446.5,143.5 
	446.5,143.5 446.5,144.5 446.5,144.5 446.5,144.5 446.5,145.5 446.5,145.5 446.5,145.5 446.5,145.5 447.5,146.5 447.5,146.5 
	447.5,145.5 447.5,145.5 447.5,145.5 447.5,144.5 447.5,144.5 447.5,144.5 447.5,143.5 448.5,143.5 448.5,143.5 448.5,142.5 
	448.5,142.5 448.5,142.5 448.5,142.5 448.5,142.5 448.5,141.5 449.5,141.5 449.5,141.5 449.5,141.5 449.5,140.5 449.5,140.5 
	449.5,140.5 449.5,140.5 449.5,140.5 449.5,140.5 450.5,140.5 450.5,140.5 450.5,140.5 450.5,140.5 450.5,141.5 450.5,141.5 
	450.5,141.5 450.5,141.5 450.5,142.5 451.5,142.5 451.5,142.5 451.5,142.5 451.5,143.5 451.5,142.5 451.5,142.5 451.5,142.5 
	451.5,141.5 452.5,141.5 452.5,141.5 452.5,141.5 452.5,141.5 452.5,141.5 452.5,141.5 452.5,141.5 452.5,141.5 452.5,141.5 
	453.5,141.5 453.5,141.5 453.5,141.5 453.5,141.5 453.5,141.5 453.5,142.5 453.5,142.5 453.5,142.5 453.5,142.5 454.5,142.5 
	454.5,143.5 454.5,143.5 454.5,143.5 454.5,143.5 454.5,143.5 454.5,143.5 454.5,143.5 455.5,144.5 455.5,144.5 455.5,144.5 
	455.5,144.5 455.5,144.5 455.5,144.5 455.5,145.5 455.5,145.5 455.5,145.5 456.5,145.5 456.5,145.5 456.5,146.5 456.5,146.5 
	456.5,146.5 456.5,147.5 456.5,148.5 456.5,149.5 456.5,149.5 457.5,150.5 457.5,150.5 457.5,151.5 457.5,152.5 457.5,152.5 
	457.5,153.5 457.5,154.5 457.5,154.5 458.5,155.5 458.5,155.5 458.5,156.5 458.5,157.5 458.5,157.5 458.5,158.5 458.5,158.5 
	458.5,158.5 458.5,159.5 459.5,159.5 459.5,159.5 459.5,159.5 459.5,159.5 459.5,159.5 459.5,159.5 459.5,159.5 459.5,158.5 
	459.5,158.5 460.5,157.5 460.5,157.5 460.5,156.5 460.5,156.5 460.5,156.5 460.5,155.5 460.5,155.5 460.5,155.5 461.5,155.5 
	461.5,155.5 461.5,155.5 461.5,155.5 461.5,155.5 461.5,155.5 461.5,154.5 461.5,154.5 461.5,154.5 462.5,154.5 462.5,154.5 
	462.5,154.5 462.5,154.5 462.5,154.5 462.5,154.5 462.5,153.5 462.5,154.5 462.5,153.5 463.5,153.5 463.5,152.5 463.5,152.5 
	463.5,152.5 463.5,151.5 463.5,151.5 463.5,151.5 463.5,150.5 464.5,150.5 464.5,150.5 464.5,150.5 464.5,150.5 464.5,150.5 
	464.5,150.5 464.5,150.5 464.5,150.5 464.5,150.5 465.5,149.5 465.5,149.5 465.5,149.5 465.5,149.5 465.5,148.5 465.5,148.5 
	465.5,148.5 465.5,148.5 465.5,148.5 466.5,148.5 466.5,148.5 466.5,148.5 466.5,148.5 466.5,148.5 466.5,148.5 466.5,148.5 
	466.5,148.5 466.5,148.5 467.5,148.5 467.5,148.5 467.5,148.5 467.5,148.5 467.5,148.5 467.5,147.5 467.5,147.5 467.5,147.5 
	468.5,147.5 468.5,147.5 468.5,147.5 468.5,147.5 468.5,147.5 468.5,147.5 468.5,146.5 468.5,146.5 468.5,146.5 469.5,146.5 
	469.5,146.5 469.5,146.5 469.5,146.5 469.5,147.5 469.5,147.5 469.5,146.5 469.5,146.5 469.5,145.5 470.5,144.5 470.5,144.5 
	470.5,143.5 470.5,143.5 470.5,143.5 470.5,142.5 470.5,142.5 470.5,142.5 471.5,141.5 471.5,141.5 471.5,140.5 471.5,140.5 
	471.5,139.5 471.5,139.5 471.5,138.5 471.5,138.5 471.5,138.5 472.5,137.5 472.5,137.5 472.5,136.5 472.5,136.5 472.5,135.5 
	472.5,135.5 472.5,135.5 472.5,134.5 472.5,134.5 473.5,133.5 473.5,133.5 473.5,133.5 473.5,132.5 473.5,132.5 473.5,131.5 
	473.5,131.5 473.5,130.5 474.5,130.5 474.5,129.5 474.5,129.5 474.5,128.5 474.5,128.5 474.5,128.5 474.5,128.5 474.5,127.5 
	474.5,127.5 475.5,127.5 475.5,127.5 475.5,127.5 475.5,126.5 475.5,126.5 475.5,125.5 475.5,125.5 475.5,124.5 475.5,124.5 
	476.5,123.5 476.5,123.5 476.5,123.5 476.5,122.5 476.5,122.5 476.5,121.5 476.5,121.5 476.5,120.5 477.5,120.5 477.5,119.5 
	477.5,119.5 477.5,120.5 477.5,121.5 477.5,121.5 477.5,121.5 477.5,122.5 477.5,122.5 478.5,122.5 478.5,122.5 478.5,122.5 
	478.5,123.5 478.5,123.5 478.5,123.5 478.5,123.5 478.5,123.5 478.5,124.5 479.5,124.5 479.5,124.5 479.5,124.5 479.5,124.5 
	479.5,124.5 479.5,124.5 479.5,125.5 479.5,125.5 480.5,125.5 480.5,125.5 480.5,125.5 480.5,125.5 480.5,125.5 480.5,126.5 
	480.5,126.5 480.5,126.5 480.5,127.5 481.5,127.5 481.5,128.5 481.5,129.5 481.5,130.5 481.5,130.5 481.5,131.5 481.5,132.5 
	481.5,132.5 481.5,133.5 482.5,133.5 482.5,134.5 482.5,134.5 482.5,135.5 482.5,135.5 482.5,135.5 482.5,136.5 482.5,137.5 
	482.5,137.5 483.5,137.5 483.5,138.5 483.5,138.5 483.5,138.5 483.5,138.5 483.5,138.5 483.5,138.5 483.5,138.5 484.5,138.5 
	484.5,138.5 484.5,138.5 484.5,138.5 484.5,138.5 484.5,138.5 484.5,138.5 484.5,137.5 484.5,137.5 485.5,137.5 485.5,137.5 
	485.5,137.5 485.5,137.5 485.5,137.5 485.5,137.5 485.5,138.5 485.5,138.5 485.5,138.5 486.5,138.5 486.5,138.5 486.5,138.5 
	486.5,137.5 486.5,137.5 486.5,137.5 486.5,137.5 486.5,137.5 487.5,137.5 487.5,137.5 487.5,137.5 487.5,137.5 487.5,137.5 
	487.5,137.5 487.5,136.5 487.5,136.5 487.5,136.5 488.5,136.5 488.5,136.5 488.5,136.5 488.5,136.5 488.5,136.5 488.5,136.5 
	488.5,136.5 488.5,136.5 488.5,136.5 489.5,136.5 489.5,136.5 489.5,136.5 489.5,137.5 489.5,137.5 489.5,138.5 489.5,138.5 
	489.5,137.5 490.5,137.5 490.5,137.5 490.5,137.5 490.5,138.5 490.5,138.5 490.5,138.5 490.5,138.5 490.5,138.5 490.5,138.5 
	491.5,138.5 491.5,139.5 491.5,139.5 491.5,139.5 491.5,139.5 491.5,139.5 491.5,139.5 491.5,140.5 491.5,140.5 492.5,140.5 
	492.5,140.5 492.5,140.5 492.5,140.5 492.5,140.5 492.5,140.5 492.5,141.5 492.5,141.5 493.5,141.5 493.5,141.5 493.5,141.5 
	493.5,141.5 493.5,141.5 493.5,141.5 493.5,142.5 493.5,142.5 493.5,142.5 494.5,142.5 494.5,142.5 494.5,142.5 494.5,142.5 
	494.5,142.5 494.5,142.5 494.5,143.5 494.5,143.5 494.5,143.5 495.5,144.5 495.5,144.5 495.5,143.5 495.5,143.5 495.5,143.5 
	495.5,143.5 495.5,142.5 495.5,142.5 496.5,141.5 496.5,140.5 496.5,140.5 496.5,140.5 496.5,140.5 496.5,139.5 496.5,139.5 
	496.5,139.5 496.5,138.5 497.5,138.5 497.5,138.5 497.5,138.5 497.5,138.5 497.5,138.5 497.5,137.5 497.5,137.5 497.5,137.5 
	497.5,137.5 498.5,136.5 498.5,136.5 498.5,136.5 498.5,136.5 498.5,136.5 498.5,137.5 498.5,137.5 498.5,137.5 499.5,138.5 
	499.5,138.5 499.5,138.5 499.5,139.5 499.5,139.5 499.5,139.5 499.5,140.5 499.5,140.5 499.5,140.5 500.5,140.5 500.5,140.5 
	500.5,139.5 500.5,139.5 500.5,139.5 500.5,139.5 500.5,139.5 500.5,139.5 500.5,139.5 501.5,139.5 501.5,139.5 501.5,139.5 
	501.5,139.5 501.5,139.5 501.5,139.5 501.5,139.5 501.5,139.5 501.5,138.5 502.5,138.5 502.5,138.5 502.5,138.5 502.5,138.5 
	502.5,138.5 502.5,138.5 502.5,138.5 502.5,137.5 503.5,137.5 503.5,137.5 503.5,137.5 503.5,137.5 503.5,137.5 503.5,136.5 
	503.5,136.5 503.5,136.5 503.5,136.5 504.5,136.5 504.5,136.5 504.5,136.5 504.5,136.5 504.5,137.5 504.5,137.5 504.5,138.5 
	504.5,138.5 504.5,139.5 505.5,139.5 505.5,140.5 505.5,140.5 505.5,141.5 505.5,141.5 505.5,142.5 505.5,142.5 505.5,143.5 
	506.5,144.5 506.5,144.5 506.5,144.5 506.5,144.5 506.5,145.5 506.5,145.5 506.5,146.5 506.5,146.5 506.5,146.5 507.5,146.5 
	507.5,145.5 507.5,145.5 507.5,145.5 507.5,145.5 507.5,145.5 507.5,145.5 507.5,145.5 507.5,145.5 508.5,145.5 508.5,145.5 
	508.5,144.5 508.5,144.5 508.5,144.5 508.5,143.5 508.5,143.5 508.5,143.5 509.5,142.5 509.5,142.5 509.5,142.5 509.5,142.5 
	509.5,141.5 509.5,141.5 509.5,141.5 509.5,141.5 509.5,141.5 510.5,142.5 510.5,142.5 510.5,142.5 510.5,143.5 510.5,143.5 
	510.5,143.5 510.5,143.5 510.5,143.5 510.5,143.5 511.5,144.5 511.5,144.5 511.5,144.5 511.5,144.5 511.5,145.5 511.5,145.5 
	511.5,145.5 511.5,146.5 512.5,146.5 512.5,146.5 512.5,147.5 512.5,147.5 512.5,147.5 512.5,148.5 512.5,148.5 512.5,148.5 
	512.5,149.5 513.5,149.5 513.5,149.5 513.5,150.5 513.5,150.5 513.5,150.5 513.5,150.5 513.5,151.5 513.5,151.5 513.5,152.5 
	514.5,152.5 514.5,152.5 514.5,153.5 514.5,153.5 514.5,153.5 514.5,153.5 514.5,153.5 514.5,153.5 515.5,153.5 515.5,153.5 
	515.5,153.5 515.5,153.5 515.5,153.5 515.5,154.5 515.5,154.5 515.5,154.5 515.5,154.5 516.5,154.5 516.5,154.5 516.5,154.5 
	516.5,155.5 516.5,155.5 516.5,155.5 516.5,156.5 516.5,156.5 516.5,156.5 517.5,156.5 517.5,156.5 517.5,156.5 517.5,156.5 
	517.5,156.5 517.5,156.5 517.5,156.5 517.5,156.5 517.5,156.5 518.5,156.5 518.5,156.5 518.5,156.5 518.5,155.5 518.5,155.5 
	518.5,155.5 518.5,155.5 518.5,155.5 519.5,155.5 519.5,155.5 519.5,155.5 519.5,155.5 519.5,154.5 519.5,154.5 519.5,154.5 
	519.5,154.5 519.5,154.5 520.5,154.5 520.5,154.5 520.5,153.5 520.5,153.5 520.5,153.5 520.5,153.5 520.5,153.5 520.5,153.5 
	520.5,152.5 521.5,152.5 521.5,152.5 521.5,152.5 521.5,151.5 521.5,151.5 521.5,151.5 521.5,151.5 521.5,151.5 522.5,150.5 
	522.5,150.5 522.5,150.5 522.5,150.5 522.5,150.5 522.5,150.5 522.5,150.5 522.5,150.5 522.5,149.5 523.5,149.5 523.5,149.5 
	523.5,149.5 523.5,149.5 523.5,149.5 523.5,149.5 523.5,149.5 523.5,149.5 523.5,149.5 524.5,149.5 524.5,148.5 524.5,148.5 
	524.5,148.5 524.5,148.5 524.5,148.5 524.5,148.5 524.5,148.5 525.5,148.5 525.5,148.5 525.5,148.5 525.5,148.5 525.5,148.5 
	525.5,148.5 525.5,148.5 525.5,148.5 525.5,147.5 526.5,147.5 526.5,147.5 526.5,147.5 526.5,146.5 526.5,146.5 526.5,145.5 
	526.5,145.5 526.5,144.5 526.5,144.5 527.5,144.5 527.5,143.5 527.5,143.5 527.5,143.5 527.5,142.5 527.5,142.5 527.5,141.5 
	527.5,141.5 528.5,141.5 528.5,141.5 528.5,140.5 528.5,140.5 528.5,140.5 528.5,140.5 528.5,140.5 528.5,140.5 528.5,140.5 
	529.5,140.5 529.5,140.5 529.5,140.5 529.5,140.5 529.5,140.5 529.5,140.5 529.5,141.5 529.5,140.5 529.5,140.5 530.5,140.5 
	530.5,140.5 530.5,140.5 530.5,140.5 530.5,141.5 530.5,141.5 530.5,141.5 530.5,141.5 531.5,141.5 531.5,140.5 531.5,140.5 
	531.5,140.5 531.5,140.5 531.5,139.5 531.5,139.5 531.5,139.5 531.5,139.5 532.5,139.5 532.5,139.5 532.5,139.5 532.5,139.5 
	532.5,140.5 532.5,140.5 532.5,140.5 532.5,141.5 532.5,141.5 533.5,141.5 533.5,141.5 533.5,142.5 533.5,142.5 533.5,142.5 
	533.5,142.5 533.5,143.5 533.5,143.5 533.5,143.5 534.5,143.5 534.5,143.5 534.5,144.5 534.5,144.5 534.5,144.5 534.5,145.5 
	534.5,145.5 534.5,145.5 535.5,145.5 535.5,145.5 535.5,145.5 535.5,145.5 535.5,144.5 535.5,144.5 535.5,144.5 535.5,144.5 
	535.5,144.5 536.5,144.5 536.5,144.5 536.5,144.5 536.5,143.5 536.5,143.5 536.5,143.5 536.5,143.5 536.5,142.5 536.5,142.5 
	537.5,142.5 537.5,141.5 537.5,141.5 537.5,140.5 537.5,140.5 537.5,140.5 537.5,139.5 537.5,139.5 538.5,139.5 538.5,139.5 
	538.5,139.5 538.5,139.5 538.5,138.5 538.5,138.5 538.5,138.5 538.5,138.5 538.5,138.5 539.5,138.5 539.5,138.5 539.5,138.5 
	539.5,137.5 539.5,137.5 539.5,137.5 539.5,137.5 539.5,136.5 539.5,136.5 540.5,136.5 540.5,135.5 540.5,135.5 540.5,135.5 
	540.5,135.5 540.5,134.5 540.5,134.5 540.5,134.5 541.5,134.5 541.5,134.5 541.5,134.5 541.5,134.5 541.5,134.5 541.5,134.5 
	541.5,134.5 541.5,134.5 541.5,133.5 542.5,133.5 542.5,133.5 542.5,133.5 542.5,133.5 542.5,133.5 542.5,133.5 542.5,133.5 
	542.5,133.5 542.5,133.5 543.5,133.5 543.5,133.5 543.5,133.5 543.5,132.5 543.5,132.5 543.5,133.5 543.5,133.5 543.5,133.5 
	544.5,133.5 544.5,133.5 544.5,133.5 544.5,133.5 544.5,133.5 544.5,134.5 544.5,134.5 544.5,134.5 544.5,134.5 545.5,134.5 
	545.5,134.5 545.5,135.5 545.5,135.5 545.5,135.5 545.5,135.5 545.5,135.5 545.5,135.5 545.5,135.5 546.5,135.5 546.5,136.5 
	546.5,136.5 546.5,136.5 546.5,136.5 546.5,136.5 546.5,136.5 546.5,136.5 547.5,136.5 547.5,136.5 547.5,136.5 547.5,137.5 
	547.5,137.5 547.5,137.5 547.5,137.5 547.5,137.5 547.5,137.5 548.5,137.5 548.5,137.5 548.5,137.5 548.5,137.5 548.5,137.5 
	548.5,137.5 548.5,138.5 548.5,138.5 548.5,138.5 549.5,138.5 549.5,138.5 549.5,138.5 549.5,139.5 549.5,139.5 549.5,139.5 
	549.5,139.5 549.5,139.5 550.5,139.5 550.5,139.5 550.5,139.5 550.5,139.5 550.5,139.5 550.5,139.5 550.5,140.5 550.5,140.5 
	550.5,140.5 551.5,140.5 551.5,140.5 551.5,140.5 551.5,140.5 551.5,140.5 551.5,140.5 551.5,140.5 551.5,140.5 551.5,140.5 
	552.5,140.5 552.5,140.5 552.5,140.5 552.5,141.5 552.5,141.5 552.5,141.5 552.5,141.5 552.5,141.5 552.5,141.5 553.5,141.5 
	553.5,141.5 553.5,141.5 553.5,141.5 553.5,141.5 553.5,141.5 553.5,141.5 553.5,141.5 554.5,141.5 554.5,141.5 554.5,141.5 
	554.5,141.5 554.5,141.5 554.5,141.5 554.5,141.5 554.5,141.5 554.5,141.5 555.5,141.5 555.5,142.5 555.5,142.5 555.5,142.5 
	555.5,142.5 555.5,142.5 555.5,142.5 555.5,142.5 555.5,142.5 556.5,142.5 556.5,142.5 556.5,142.5 556.5,142.5 556.5,142.5 
	556.5,142.5 556.5,143.5 556.5,143.5 557.5,143.5 557.5,143.5 557.5,143.5 557.5,143.5 557.5,144.5 557.5,144.5 557.5,144.5 
	557.5,144.5 557.5,144.5 558.5,144.5 558.5,145.5 558.5,145.5 558.5,145.5 558.5,145.5 558.5,145.5 558.5,145.5 558.5,145.5 
	558.5,145.5 559.5,146.5 559.5,146.5 559.5,146.5 559.5,146.5 559.5,146.5 559.5,146.5 559.5,146.5 559.5,147.5 560.5,147.5 
	560.5,147.5 560.5,147.5 560.5,147.5 560.5,147.5 560.5,148.5 560.5,148.5 560.5,148.5 560.5,148.5 561.5,148.5 561.5,148.5 
	561.5,148.5 561.5,148.5 561.5,148.5 561.5,148.5 561.5,148.5 561.5,148.5 561.5,148.5 562.5,148.5 562.5,148.5 562.5,148.5 
	562.5,148.5 562.5,148.5 562.5,148.5 562.5,149.5 562.5,149.5 563.5,149.5 563.5,149.5 563.5,149.5 563.5,149.5 563.5,149.5 
	563.5,149.5 563.5,149.5 563.5,149.5 563.5,149.5 564.5,149.5 564.5,149.5 564.5,149.5 564.5,149.5 564.5,150.5 564.5,150.5 
	564.5,150.5 564.5,150.5 564.5,150.5 565.5,150.5 565.5,150.5 565.5,150.5 565.5,150.5 565.5,150.5 565.5,150.5 565.5,150.5 
	565.5,150.5 566.5,150.5 566.5,150.5 566.5,150.5 566.5,150.5 566.5,150.5 566.5,150.5 566.5,150.5 566.5,150.5 566.5,150.5 
	567.5,150.5 567.5,150.5 567.5,150.5 567.5,150.5 567.5,150.5 567.5,150.5 567.5,150.5 567.5,150.5 567.5,150.5 568.5,150.5 
	568.5,150.5 568.5,150.5 568.5,150.5 568.5,150.5 568.5,151.5 568.5,151.5 568.5,151.5 568.5,151.5 569.5,151.5 569.5,151.5 
	569.5,151.5 569.5,151.5 569.5,151.5 569.5,151.5 569.5,151.5 569.5,151.5 570.5,152.5 570.5,152.5 570.5,152.5 570.5,152.5 
	570.5,152.5 570.5,152.5 570.5,152.5 570.5,152.5 570.5,152.5 571.5,152.5 571.5,152.5 571.5,152.5 571.5,152.5 571.5,152.5 
	571.5,152.5 571.5,152.5 571.5,152.5 571.5,152.5 572.5,152.5 572.5,152.5 572.5,152.5 572.5,152.5 572.5,152.5 572.5,152.5 
	572.5,152.5 572.5,152.5 573.5,152.5 573.5,152.5 573.5,152.5 573.5,152.5 573.5,152.5 573.5,152.5 573.5,152.5 573.5,152.5 
	573.5,152.5 574.5,152.5 574.5,152.5 574.5,152.5 574.5,152.5 574.5,152.5 574.5,152.5 574.5,152.5 574.5,152.5 574.5,152.5 
	575.5,152.5 575.5,152.5 575.5,152.5 575.5,152.5 575.5,152.5 575.5,152.5 575.5,152.5 575.5,152.5 576.5,152.5 576.5,152.5 
	576.5,152.5 576.5,152.5 576.5,152.5 576.5,152.5 576.5,152.5 576.5,152.5 576.5,152.5 577.5,152.5 577.5,152.5 577.5,152.5 
	577.5,152.5 577.5,152.5 577.5,152.5 577.5,152.5 577.5,152.5 577.5,152.5 578.5,152.5 578.5,152.5 578.5,152.5 578.5,152.5 
	578.5,152.5 578.5,152.5 578.5,152.5 578.5,152.5 579.5,152.5 579.5,152.5 579.5,152.5 579.5,152.5 579.5,153.5 579.5,153.5 
	579.5,153.5 579.5,153.5 579.5,153.5 580.5,153.5 580.5,153.5 580.5,153.5 580.5,153.5 580.5,153.5 580.5,153.5 580.5,153.5 
	580.5,153.5 580.5,153.5 581.5,153.5 581.5,153.5 581.5,153.5 581.5,153.5 581.5,153.5 581.5,153.5 581.5,153.5 581.5,153.5 
	582.5,152.5 582.5,152.5 582.5,152.5 582.5,152.5 582.5,152.5 582.5,152.5 582.5,152.5 582.5,152.5 582.5,152.5 583.5,152.5 
	583.5,152.5 583.5,152.5 583.5,152.5 583.5,152.5 583.5,152.5 583.5,152.5 583.5,152.5 583.5,152.5 584.5,152.5 584.5,152.5 
	584.5,152.5 584.5,152.5 584.5,152.5 584.5,152.5 584.5,152.5 584.5,152.5 585.5,152.5 585.5,152.5 585.5,152.5 585.5,152.5 
	585.5,152.5 585.5,152.5 585.5,152.5 585.5,152.5 585.5,152.5 586.5,152.5 586.5,152.5 586.5,152.5 586.5,152.5 586.5,152.5 
	586.5,152.5 586.5,152.5 586.5,152.5 586.5,152.5 587.5,152.5 587.5,152.5 587.5,152.5 587.5,152.5 587.5,152.5 587.5,152.5 
	587.5,152.5 587.5,152.5 587.5,152.5 588.5,152.5 588.5,152.5 588.5,152.5 588.5,152.5 588.5,152.5 588.5,152.5 588.5,152.5 
	588.5,152.5 589.5,152.5 589.5,152.5 589.5,152.5 589.5,152.5 589.5,152.5 589.5,152.5 589.5,152.5 589.5,152.5 589.5,152.5 
	590.5,152.5 590.5,152.5 590.5,152.5 590.5,152.5 590.5,152.5 590.5,152.5 590.5,152.5 590.5,152.5 590.5,152.5 591.5,152.5 
	591.5,152.5 591.5,152.5 591.5,152.5 591.5,152.5 591.5,152.5 591.5,152.5 591.5,152.5 592.5,152.5 592.5,152.5 592.5,152.5 
	592.5,152.5 592.5,152.5 592.5,152.5 592.5,152.5 592.5,152.5 592.5,152.5 593.5,152.5 593.5,152.5 593.5,152.5 593.5,152.5 
	593.5,152.5 593.5,152.5 593.5,152.5 593.5,152.5 593.5,152.5 594.5,152.5 594.5,151.5 594.5,151.5 594.5,151.5 594.5,151.5 
	594.5,151.5 594.5,151.5 594.5,151.5 595.5,151.5 595.5,151.5 595.5,151.5 595.5,151.5 595.5,151.5 595.5,151.5 595.5,151.5 
	595.5,151.5 595.5,151.5 596.5,151.5 596.5,151.5 596.5,151.5 596.5,151.5 596.5,151.5 596.5,151.5 596.5,151.5 596.5,151.5 
	596.5,151.5 597.5,151.5 597.5,151.5 597.5,151.5 597.5,151.5 597.5,151.5 597.5,151.5 597.5,151.5 597.5,151.5 598.5,151.5 
	598.5,151.5 598.5,151.5 598.5,151.5 598.5,151.5 598.5,151.5 598.5,151.5 598.5,151.5 598.5,151.5 599.5,151.5 599.5,151.5 
	599.5,151.5 599.5,151.5 599.5,151.5 599.5,151.5 599.5,151.5 599.5,151.5 599.5,151.5 600.5,151.5 600.5,151.5 600.5,151.5 
	600.5,151.5 600.5,151.5 600.5,150.5 600.5,150.5 600.5,150.5 601.5,150.5 601.5,150.5 601.5,150.5 601.5,150.5 601.5,150.5 
	601.5,150.5 601.5,150.5 601.5,150.5 601.5,150.5 602.5,150.5 602.5,150.5 602.5,150.5 602.5,150.5 602.5,150.5 602.5,150.5 
	602.5,150.5 602.5,150.5 602.5,150.5 603.5,150.5 603.5,150.5 603.5,150.5 603.5,150.5 603.5,150.5 603.5,150.5 603.5,149.5 
	603.5,149.5 603.5,149.5 604.5,149.5 604.5,149.5 604.5,149.5 604.5,149.5 604.5,149.5 604.5,149.5 604.5,149.5 604.5,149.5 
	605.5,149.5 605.5,149.5 605.5,149.5 605.5,149.5 605.5,149.5 605.5,149.5 605.5,149.5 605.5,149.5 605.5,149.5 606.5,149.5 
	606.5,149.5 606.5,149.5 606.5,148.5 606.5,148.5 606.5,148.5 606.5,148.5 606.5,148.5 606.5,148.5 607.5,148.5 607.5,148.5 
	607.5,148.5 607.5,148.5 607.5,148.5 607.5,148.5 607.5,148.5 607.5,148.5 608.5,148.5 608.5,148.5 608.5,148.5 608.5,148.5 
	608.5,148.5 608.5,148.5 608.5,148.5 608.5,148.5 608.5,147.5 609.5,147.5 609.5,147.5 609.5,147.5 609.5,147.5 609.5,147.5 
	609.5,147.5 609.5,147.5 609.5,147.5 609.5,147.5 610.5,147.5 610.5,147.5 610.5,147.5 610.5,147.5 610.5,147.5 610.5,147.5 
	610.5,147.5 610.5,147.5 611.5,146.5 611.5,146.5 611.5,146.5 611.5,146.5 611.5,146.5 611.5,146.5 611.5,146.5 611.5,146.5 
	611.5,146.5 612.5,146.5 612.5,146.5 612.5,146.5 612.5,146.5 612.5,146.5 612.5,146.5 612.5,146.5 612.5,146.5 612.5,146.5 
	613.5,146.5 613.5,146.5 613.5,146.5 613.5,146.5 613.5,146.5 613.5,146.5 613.5,146.5 613.5,146.5 614.5,146.5 614.5,145.5 
	614.5,145.5 614.5,145.5 614.5,145.5 614.5,146.5 614.5,145.5 614.5,145.5 614.5,145.5 615.5,145.5 615.5,145.5 615.5,145.5 
	615.5,145.5 615.5,145.5 615.5,145.5 615.5,145.5 615.5,144.5 615.5,144.5 616.5,144.5 616.5,144.5 616.5,144.5 616.5,145.5 
	616.5,145.5 616.5,145.5 616.5,145.5 616.5,145.5 617.5,145.5 617.5,145.5 617.5,145.5 617.5,145.5 617.5,145.5 617.5,145.5 
	617.5,144.5 617.5,144.5 617.5,144.5 618.5,144.5 618.5,144.5 618.5,143.5 618.5,143.5 618.5,143.5 618.5,143.5 618.5,143.5 
	618.5,143.5 618.5,142.5 619.5,142.5 619.5,142.5 619.5,142.5 619.5,142.5 619.5,142.5 619.5,141.5 619.5,141.5 619.5,141.5 
	619.5,141.5 620.5,141.5 620.5,141.5 620.5,140.5 620.5,140.5 620.5,140.5 620.5,140.5 620.5,140.5 620.5,140.5 621.5,139.5 
	621.5,139.5 621.5,139.5 621.5,139.5 621.5,139.5 621.5,139.5 621.5,138.5 621.5,138.5 621.5,138.5 622.5,138.5 622.5,138.5 
	622.5,138.5 622.5,138.5 622.5,138.5 622.5,138.5 622.5,138.5 622.5,138.5 622.5,138.5 623.5,138.5 623.5,138.5 623.5,137.5 
	623.5,137.5 623.5,137.5 623.5,137.5 623.5,137.5 623.5,137.5 624.5,137.5 624.5,137.5 624.5,137.5 624.5,137.5 624.5,136.5 
	624.5,136.5 624.5,136.5 624.5,136.5 624.5,136.5 625.5,136.5 625.5,136.5 625.5,136.5 625.5,136.5 625.5,135.5 625.5,135.5 
	625.5,136.5 625.5,136.5 625.5,136.5 626.5,136.5 626.5,136.5 626.5,135.5 626.5,135.5 626.5,135.5 626.5,135.5 626.5,135.5 
	626.5,135.5 627.5,135.5 627.5,135.5 627.5,135.5 627.5,135.5 627.5,135.5 627.5,135.5 627.5,135.5 627.5,136.5 627.5,136.5 
	628.5,136.5 628.5,136.5 628.5,136.5 628.5,136.5 628.5,136.5 628.5,136.5 628.5,136.5 628.5,136.5 628.5,136.5 629.5,136.5 
	629.5,136.5 629.5,136.5 629.5,137.5 629.5,137.5 629.5,137.5 629.5,137.5 629.5,137.5 630.5,137.5 630.5,137.5 630.5,137.5 
	630.5,137.5 630.5,136.5 630.5,136.5 630.5,136.5 630.5,136.5 630.5,136.5 631.5,136.5 631.5,136.5 631.5,136.5 631.5,136.5 
	631.5,135.5 631.5,135.5 631.5,135.5 631.5,135.5 631.5,135.5 632.5,134.5 632.5,134.5 632.5,134.5 632.5,135.5 632.5,135.5 
	632.5,135.5 632.5,134.5 632.5,134.5 633.5,135.5 633.5,135.5 633.5,135.5 633.5,135.5 633.5,135.5 633.5,135.5 633.5,135.5 
	633.5,135.5 633.5,135.5 634.5,135.5 634.5,135.5 634.5,135.5 634.5,135.5 634.5,135.5 634.5,135.5 634.5,135.5 634.5,135.5 
	634.5,135.5 635.5,135.5 635.5,135.5 635.5,135.5 635.5,135.5 635.5,135.5 635.5,135.5 635.5,134.5 635.5,134.5 636.5,134.5 
	636.5,134.5 636.5,134.5 636.5,134.5 636.5,133.5 636.5,133.5 636.5,133.5 636.5,133.5 636.5,133.5 637.5,133.5 637.5,134.5 
	637.5,134.5 637.5,134.5 637.5,134.5 637.5,134.5 637.5,134.5 637.5,133.5 637.5,134.5 638.5,134.5 638.5,134.5 638.5,134.5 
	638.5,134.5 638.5,135.5 638.5,135.5 638.5,135.5 638.5,135.5 638.5,135.5 639.5,135.5 639.5,135.5 639.5,135.5 639.5,135.5 
	639.5,135.5 639.5,135.5 639.5,135.5 639.5,135.5 640.5,135.5 640.5,135.5 640.5,135.5 640.5,135.5 640.5,135.5 640.5,135.5 
	640.5,135.5 640.5,135.5 640.5,136.5 641.5,136.5 641.5,136.5 641.5,136.5 641.5,136.5 641.5,136.5 641.5,136.5 641.5,136.5 
	641.5,136.5 641.5,136.5 642.5,136.5 642.5,136.5 642.5,136.5 642.5,136.5 642.5,136.5 642.5,136.5 642.5,136.5 642.5,136.5 
	643.5,137.5 643.5,137.5 643.5,137.5 643.5,137.5 643.5,137.5 643.5,137.5 643.5,137.5 643.5,138.5 643.5,138.5 644.5,138.5 
	644.5,138.5 644.5,138.5 644.5,138.5 644.5,138.5 644.5,139.5 644.5,139.5 644.5,139.5 644.5,139.5 645.5,139.5 645.5,139.5 
	645.5,139.5 645.5,139.5 645.5,139.5 645.5,139.5 645.5,139.5 645.5,139.5 646.5,139.5 646.5,139.5 646.5,139.5 646.5,139.5 
	646.5,139.5 646.5,140.5 646.5,140.5 646.5,140.5 646.5,140.5 647.5,140.5 647.5,140.5 647.5,141.5 647.5,141.5 647.5,141.5 
	647.5,141.5 647.5,141.5 647.5,141.5 647.5,141.5 648.5,142.5 648.5,142.5 648.5,142.5 648.5,142.5 648.5,142.5 648.5,142.5 
	648.5,142.5 648.5,143.5 649.5,143.5 649.5,143.5 649.5,143.5 649.5,143.5 649.5,143.5 649.5,142.5 649.5,142.5 649.5,142.5 
	649.5,142.5 650.5,142.5 650.5,142.5 650.5,142.5 650.5,142.5 650.5,142.5 650.5,142.5 650.5,142.5 650.5,142.5 650.5,142.5 
	651.5,142.5 651.5,142.5 651.5,142.5 651.5,142.5 651.5,142.5 651.5,142.5 651.5,142.5 651.5,142.5 652.5,142.5 652.5,142.5 
	652.5,142.5 652.5,142.5 652.5,142.5 652.5,142.5 652.5,142.5 652.5,142.5 652.5,142.5 653.5,142.5 653.5,141.5 653.5,141.5 
	653.5,141.5 653.5,141.5 653.5,141.5 653.5,141.5 653.5,141.5 653.5,141.5 654.5,141.5 654.5,141.5 654.5,141.5 654.5,141.5 
	654.5,141.5 654.5,141.5 654.5,141.5 654.5,141.5 654.5,141.5 655.5,141.5 655.5,141.5 655.5,141.5 655.5,141.5 655.5,141.5 
	655.5,141.5 655.5,141.5 655.5,141.5 656.5,140.5 656.5,140.5 656.5,140.5 656.5,139.5 656.5,139.5 656.5,139.5 656.5,139.5 
	656.5,138.5 656.5,138.5 657.5,138.5 657.5,138.5 657.5,138.5 657.5,138.5 657.5,138.5 657.5,137.5 657.5,137.5 657.5,137.5 
	657.5,137.5 658.5,137.5 658.5,137.5 658.5,137.5 658.5,137.5 658.5,137.5 658.5,137.5 658.5,137.5 658.5,137.5 659.5,136.5 
	659.5,136.5 659.5,136.5 659.5,136.5 659.5,136.5 659.5,136.5 659.5,136.5 659.5,136.5 659.5,136.5 660.5,136.5 660.5,136.5 
	660.5,136.5 660.5,136.5 660.5,136.5 660.5,136.5 660.5,136.5 660.5,136.5 660.5,136.5 661.5,137.5 661.5,137.5 661.5,137.5 
	661.5,137.5 661.5,137.5 661.5,137.5 661.5,137.5 661.5,136.5 662.5,136.5 662.5,136.5 662.5,136.5 662.5,136.5 662.5,136.5 
	662.5,136.5 662.5,136.5 662.5,136.5 662.5,135.5 663.5,135.5 663.5,135.5 663.5,135.5 663.5,135.5 663.5,135.5 663.5,135.5 
	663.5,135.5 663.5,135.5 663.5,135.5 664.5,135.5 664.5,135.5 664.5,135.5 664.5,135.5 664.5,135.5 664.5,135.5 664.5,135.5 
	664.5,135.5 665.5,135.5 665.5,135.5 665.5,135.5 665.5,135.5 665.5,135.5 665.5,135.5 665.5,135.5 665.5,135.5 665.5,135.5 
	666.5,135.5 666.5,135.5 666.5,135.5 666.5,135.5 666.5,135.5 666.5,135.5 666.5,135.5 666.5,135.5 666.5,135.5 667.5,135.5 
	667.5,135.5 667.5,135.5 667.5,135.5 667.5,135.5 667.5,135.5 667.5,135.5 667.5,135.5 668.5,135.5 668.5,135.5 668.5,135.5 
	668.5,134.5 668.5,134.5 668.5,134.5 668.5,134.5 668.5,134.5 668.5,134.5 669.5,134.5 669.5,134.5 669.5,134.5 669.5,134.5 
	669.5,134.5 669.5,134.5 669.5,134.5 669.5,134.5 669.5,134.5 670.5,134.5 670.5,134.5 670.5,134.5 670.5,134.5 670.5,134.5 
	670.5,134.5 670.5,134.5 670.5,134.5 671.5,134.5 671.5,134.5 671.5,134.5 671.5,134.5 671.5,134.5 671.5,134.5 671.5,134.5 
	671.5,134.5 671.5,134.5 672.5,134.5 672.5,134.5 672.5,134.5 672.5,134.5 672.5,134.5 672.5,134.5 672.5,134.5 672.5,134.5 
	672.5,134.5 673.5,134.5 673.5,134.5 673.5,134.5 "/>
</svg>
