<!-- Generator: Adobe Illustrator 19.2.0, SVG Export Plug-In  -->
<!DOCTYPE svg PUBLIC "-//W3C//DTD SVG 1.1//EN" "http://www.w3.org/Graphics/SVG/1.1/DTD/svg11.dtd" [
	<!ENTITY ns_flows "http://ns.adobe.com/Flows/1.0/">
	<!ENTITY st0 "fill:none;stroke:#FFFFFF;stroke-linecap:square;stroke-linejoin:bevel;stroke-dasharray:1,2;">
	<!ENTITY st1 "fill:#624949;">
]>
<svg version="1.1"
	 xmlns="http://www.w3.org/2000/svg" xmlns:xlink="http://www.w3.org/1999/xlink" xmlns:a="http://ns.adobe.com/AdobeSVGViewerExtensions/3.0/"
	 x="0px" y="0px" width="759px" height="380px" preserveAspectRatio="none" viewBox="0 0 759 380" style="enable-background:new 0 0 759 380;"
	 xml:space="preserve">
<defs>
</defs>
<g transform="matrix(1,0,0,1,0,0)">
	<line vector-effect="non-scaling-stroke" style="&st0;" x1="0.5" y1="0.5" x2="0.5" y2="379.5"/>
	<line vector-effect="non-scaling-stroke" style="&st0;" x1="95.5" y1="0.5" x2="95.5" y2="379.5"/>
	<line vector-effect="non-scaling-stroke" style="&st0;" x1="190.5" y1="0.5" x2="190.5" y2="379.5"/>
	<line vector-effect="non-scaling-stroke" style="&st0;" x1="284.5" y1="0.5" x2="284.5" y2="379.5"/>
	<line vector-effect="non-scaling-stroke" style="&st0;" x1="379.5" y1="0.5" x2="379.5" y2="379.5"/>
	<line vector-effect="non-scaling-stroke" style="&st0;" x1="474.5" y1="0.5" x2="474.5" y2="379.5"/>
	<line vector-effect="non-scaling-stroke" style="&st0;" x1="569.5" y1="0.5" x2="569.5" y2="379.5"/>
	<line vector-effect="non-scaling-stroke" style="&st0;" x1="663.5" y1="0.5" x2="663.5" y2="379.5"/>
	<line vector-effect="non-scaling-stroke" style="&st0;" x1="758.5" y1="0.5" x2="758.5" y2="379.5"/>
	<line vector-effect="non-scaling-stroke" style="&st0;" x1="0.5" y1="379.5" x2="758.5" y2="379.5"/>
	<line vector-effect="non-scaling-stroke" style="&st0;" x1="0.5" y1="325.5" x2="758.5" y2="325.5"/>
	<line vector-effect="non-scaling-stroke" style="&st0;" x1="0.5" y1="270.5" x2="758.5" y2="270.5"/>
	<line vector-effect="non-scaling-stroke" style="&st0;" x1="0.5" y1="216.5" x2="758.5" y2="216.5"/>
	<line vector-effect="non-scaling-stroke" style="&st0;" x1="0.5" y1="162.5" x2="758.5" y2="162.5"/>
	<line vector-effect="non-scaling-stroke" style="&st0;" x1="0.5" y1="108.5" x2="758.5" y2="108.5"/>
	<line vector-effect="non-scaling-stroke" style="&st0;" x1="0.5" y1="53.5" x2="758.5" y2="53.5"/>
</g>
<g transform="matrix(1,0,0,1,0,0)">
	<polyline vector-effect="non-scaling-stroke" style="&st1;" points="672.5,379.5 7.5,379.5 7.5,312.5 7.5,312.5 7.5,312.5 
		7.5,311.5 7.5,311.5 7.5,311.5 7.5,311.5 8.5,311.5 8.5,311.5 8.5,311.5 8.5,311.5 8.5,311.5 8.5,311.5 8.5,311.5 8.5,311.5 
		8.5,311.5 9.5,311.5 9.5,311.5 9.5,311.5 9.5,310.5 9.5,310.5 9.5,310.5 9.5,310.5 9.5,310.5 10.5,310.5 10.5,310.5 10.5,310.5 
		10.5,310.5 10.5,310.5 10.5,310.5 10.5,310.5 10.5,310.5 10.5,310.5 11.5,309.5 11.5,309.5 11.5,309.5 11.5,309.5 11.5,309.5 
		11.5,309.5 11.5,309.5 11.5,309.5 11.5,309.5 12.5,309.5 12.5,309.5 12.5,309.5 12.5,309.5 12.5,308.5 12.5,308.5 12.5,308.5 
		12.5,308.5 12.5,308.5 13.5,308.5 13.5,308.5 13.5,308.5 13.5,308.5 13.5,308.5 13.5,308.5 13.5,308.5 13.5,308.5 14.5,308.5 
		14.5,308.5 14.5,307.5 14.5,307.5 14.5,307.5 14.5,307.5 14.5,307.5 14.5,307.5 14.5,307.5 15.5,307.5 15.5,307.5 15.5,307.5 
		15.5,307.5 15.5,307.5 15.5,307.5 15.5,306.5 15.5,306.5 15.5,306.5 16.5,306.5 16.5,306.5 16.5,306.5 16.5,306.5 16.5,306.5 
		16.5,306.5 16.5,306.5 16.5,306.5 17.5,306.5 17.5,306.5 17.5,306.5 17.5,305.5 17.5,305.5 17.5,305.5 17.5,305.5 17.5,305.5 
		17.5,305.5 18.5,305.5 18.5,306.5 18.5,306.5 18.5,306.5 18.5,306.5 18.5,306.5 18.5,306.5 18.5,306.5 18.5,307.5 19.5,307.5 
		19.5,307.5 19.5,307.5 19.5,307.5 19.5,307.5 19.5,307.5 19.5,306.5 19.5,305.5 20.5,305.5 20.5,304.5 20.5,304.5 20.5,303.5 
		20.5,303.5 20.5,303.5 20.5,303.5 20.5,303.5 20.5,303.5 21.5,303.5 21.5,303.5 21.5,304.5 21.5,304.5 21.5,304.5 21.5,304.5 
		21.5,305.5 21.5,305.5 21.5,305.5 22.5,305.5 22.5,305.5 22.5,305.5 22.5,305.5 22.5,305.5 22.5,305.5 22.5,305.5 22.5,305.5 
		23.5,305.5 23.5,305.5 23.5,304.5 23.5,304.5 23.5,304.5 23.5,303.5 23.5,303.5 23.5,303.5 23.5,303.5 24.5,302.5 24.5,302.5 
		24.5,302.5 24.5,302.5 24.5,303.5 24.5,303.5 24.5,303.5 24.5,303.5 24.5,303.5 25.5,303.5 25.5,303.5 25.5,303.5 25.5,303.5 
		25.5,302.5 25.5,302.5 25.5,302.5 25.5,302.5 26.5,301.5 26.5,301.5 26.5,301.5 26.5,301.5 26.5,301.5 26.5,301.5 26.5,300.5 
		26.5,300.5 26.5,300.5 27.5,300.5 27.5,300.5 27.5,300.5 27.5,300.5 27.5,299.5 27.5,299.5 27.5,299.5 27.5,299.5 27.5,299.5 
		28.5,299.5 28.5,299.5 28.5,298.5 28.5,298.5 28.5,298.5 28.5,298.5 28.5,297.5 28.5,297.5 29.5,297.5 29.5,296.5 29.5,296.5 
		29.5,296.5 29.5,295.5 29.5,295.5 29.5,295.5 29.5,294.5 29.5,294.5 30.5,294.5 30.5,293.5 30.5,293.5 30.5,293.5 30.5,293.5 
		30.5,293.5 30.5,293.5 30.5,294.5 30.5,294.5 31.5,295.5 31.5,295.5 31.5,295.5 31.5,296.5 31.5,297.5 31.5,297.5 31.5,296.5 
		31.5,296.5 31.5,296.5 32.5,296.5 32.5,296.5 32.5,295.5 32.5,295.5 32.5,295.5 32.5,295.5 32.5,294.5 32.5,294.5 33.5,294.5 
		33.5,294.5 33.5,293.5 33.5,293.5 33.5,293.5 33.5,293.5 33.5,293.5 33.5,292.5 33.5,292.5 34.5,292.5 34.5,292.5 34.5,292.5 
		34.5,292.5 34.5,292.5 34.5,293.5 34.5,293.5 34.5,293.5 34.5,293.5 35.5,293.5 35.5,294.5 35.5,294.5 35.5,294.5 35.5,294.5 
		35.5,294.5 35.5,295.5 35.5,295.5 36.5,295.5 36.5,295.5 36.5,295.5 36.5,296.5 36.5,296.5 36.5,296.5 36.5,296.5 36.5,296.5 
		36.5,296.5 37.5,297.5 37.5,297.5 37.5,297.5 37.5,297.5 37.5,297.5 37.5,297.5 37.5,297.5 37.5,298.5 37.5,298.5 38.5,298.5 
		38.5,298.5 38.5,298.5 38.5,298.5 38.5,298.5 38.5,298.5 38.5,299.5 38.5,299.5 39.5,299.5 39.5,299.5 39.5,299.5 39.5,299.5 
		39.5,299.5 39.5,300.5 39.5,300.5 39.5,300.5 39.5,301.5 40.5,301.5 40.5,302.5 40.5,302.5 40.5,303.5 40.5,303.5 40.5,303.5 
		40.5,303.5 40.5,303.5 40.5,303.5 41.5,303.5 41.5,302.5 41.5,302.5 41.5,301.5 41.5,301.5 41.5,301.5 41.5,300.5 41.5,300.5 
		42.5,299.5 42.5,299.5 42.5,299.5 42.5,298.5 42.5,298.5 42.5,297.5 42.5,297.5 42.5,297.5 42.5,297.5 43.5,297.5 43.5,297.5 
		43.5,297.5 43.5,297.5 43.5,297.5 43.5,297.5 43.5,296.5 43.5,296.5 43.5,296.5 44.5,296.5 44.5,296.5 44.5,296.5 44.5,296.5 
		44.5,296.5 44.5,296.5 44.5,296.5 44.5,296.5 45.5,296.5 45.5,296.5 45.5,296.5 45.5,296.5 45.5,297.5 45.5,297.5 45.5,297.5 
		45.5,297.5 45.5,297.5 46.5,296.5 46.5,296.5 46.5,295.5 46.5,294.5 46.5,294.5 46.5,293.5 46.5,292.5 46.5,292.5 46.5,291.5 
		47.5,291.5 47.5,290.5 47.5,290.5 47.5,289.5 47.5,289.5 47.5,288.5 47.5,288.5 47.5,287.5 48.5,287.5 48.5,287.5 48.5,286.5 
		48.5,286.5 48.5,285.5 48.5,285.5 48.5,284.5 48.5,284.5 48.5,283.5 49.5,283.5 49.5,283.5 49.5,282.5 49.5,282.5 49.5,281.5 
		49.5,281.5 49.5,281.5 49.5,280.5 49.5,280.5 50.5,280.5 50.5,279.5 50.5,279.5 50.5,279.5 50.5,278.5 50.5,278.5 50.5,278.5 
		50.5,278.5 50.5,278.5 51.5,278.5 51.5,278.5 51.5,278.5 51.5,278.5 51.5,277.5 51.5,277.5 51.5,277.5 51.5,277.5 52.5,276.5 
		52.5,276.5 52.5,276.5 52.5,276.5 52.5,275.5 52.5,275.5 52.5,275.5 52.5,274.5 52.5,274.5 53.5,274.5 53.5,273.5 53.5,273.5 
		53.5,273.5 53.5,273.5 53.5,272.5 53.5,272.5 53.5,272.5 53.5,272.5 54.5,271.5 54.5,271.5 54.5,271.5 54.5,271.5 54.5,271.5 
		54.5,270.5 54.5,270.5 54.5,270.5 55.5,269.5 55.5,269.5 55.5,269.5 55.5,268.5 55.5,268.5 55.5,268.5 55.5,267.5 55.5,267.5 
		55.5,267.5 56.5,266.5 56.5,266.5 56.5,266.5 56.5,265.5 56.5,265.5 56.5,265.5 56.5,265.5 56.5,265.5 56.5,264.5 57.5,264.5 
		57.5,264.5 57.5,263.5 57.5,263.5 57.5,262.5 57.5,262.5 57.5,261.5 57.5,261.5 58.5,260.5 58.5,260.5 58.5,259.5 58.5,259.5 
		58.5,258.5 58.5,258.5 58.5,258.5 58.5,257.5 58.5,257.5 59.5,257.5 59.5,256.5 59.5,256.5 59.5,256.5 59.5,255.5 59.5,255.5 
		59.5,255.5 59.5,255.5 59.5,255.5 60.5,254.5 60.5,254.5 60.5,254.5 60.5,254.5 60.5,254.5 60.5,254.5 60.5,254.5 60.5,254.5 
		61.5,254.5 61.5,254.5 61.5,254.5 61.5,254.5 61.5,254.5 61.5,254.5 61.5,254.5 61.5,254.5 61.5,254.5 62.5,254.5 62.5,255.5 
		62.5,255.5 62.5,255.5 62.5,255.5 62.5,256.5 62.5,256.5 62.5,256.5 62.5,257.5 63.5,257.5 63.5,258.5 63.5,258.5 63.5,259.5 
		63.5,260.5 63.5,260.5 63.5,261.5 63.5,262.5 64.5,262.5 64.5,263.5 64.5,263.5 64.5,264.5 64.5,265.5 64.5,266.5 64.5,266.5 
		64.5,267.5 64.5,268.5 65.5,268.5 65.5,269.5 65.5,270.5 65.5,271.5 65.5,271.5 65.5,272.5 65.5,272.5 65.5,273.5 65.5,273.5 
		66.5,274.5 66.5,275.5 66.5,276.5 66.5,277.5 66.5,277.5 66.5,277.5 66.5,277.5 66.5,277.5 67.5,277.5 67.5,277.5 67.5,276.5 
		67.5,276.5 67.5,276.5 67.5,276.5 67.5,275.5 67.5,275.5 67.5,275.5 68.5,274.5 68.5,274.5 68.5,273.5 68.5,273.5 68.5,272.5 
		68.5,272.5 68.5,272.5 68.5,272.5 68.5,272.5 69.5,271.5 69.5,271.5 69.5,271.5 69.5,271.5 69.5,272.5 69.5,272.5 69.5,272.5 
		69.5,272.5 69.5,273.5 70.5,273.5 70.5,273.5 70.5,273.5 70.5,273.5 70.5,273.5 70.5,274.5 70.5,274.5 70.5,274.5 71.5,275.5 
		71.5,275.5 71.5,275.5 71.5,276.5 71.5,276.5 71.5,276.5 71.5,277.5 71.5,277.5 71.5,278.5 72.5,278.5 72.5,279.5 72.5,279.5 
		72.5,279.5 72.5,279.5 72.5,279.5 72.5,279.5 72.5,279.5 72.5,280.5 73.5,280.5 73.5,280.5 73.5,280.5 73.5,280.5 73.5,281.5 
		73.5,281.5 73.5,281.5 73.5,281.5 74.5,281.5 74.5,281.5 74.5,281.5 74.5,281.5 74.5,281.5 74.5,281.5 74.5,281.5 74.5,281.5 
		74.5,281.5 75.5,281.5 75.5,281.5 75.5,281.5 75.5,281.5 75.5,281.5 75.5,281.5 75.5,281.5 75.5,281.5 75.5,281.5 76.5,281.5 
		76.5,281.5 76.5,281.5 76.5,281.5 76.5,281.5 76.5,281.5 76.5,281.5 76.5,281.5 77.5,281.5 77.5,281.5 77.5,281.5 77.5,281.5 
		77.5,281.5 77.5,281.5 77.5,281.5 77.5,281.5 77.5,281.5 78.5,281.5 78.5,281.5 78.5,281.5 78.5,281.5 78.5,281.5 78.5,281.5 
		78.5,281.5 78.5,281.5 78.5,281.5 79.5,281.5 79.5,281.5 79.5,280.5 79.5,280.5 79.5,281.5 79.5,281.5 79.5,281.5 79.5,281.5 
		80.5,281.5 80.5,281.5 80.5,281.5 80.5,281.5 80.5,280.5 80.5,280.5 80.5,280.5 80.5,279.5 80.5,279.5 81.5,279.5 81.5,279.5 
		81.5,279.5 81.5,279.5 81.5,279.5 81.5,279.5 81.5,279.5 81.5,279.5 81.5,279.5 82.5,279.5 82.5,279.5 82.5,279.5 82.5,279.5 
		82.5,279.5 82.5,278.5 82.5,278.5 82.5,278.5 83.5,278.5 83.5,278.5 83.5,277.5 83.5,277.5 83.5,277.5 83.5,277.5 83.5,276.5 
		83.5,276.5 83.5,276.5 84.5,275.5 84.5,275.5 84.5,275.5 84.5,274.5 84.5,274.5 84.5,274.5 84.5,274.5 84.5,274.5 84.5,273.5 
		85.5,273.5 85.5,273.5 85.5,273.5 85.5,273.5 85.5,273.5 85.5,273.5 85.5,274.5 85.5,274.5 86.5,274.5 86.5,274.5 86.5,274.5 
		86.5,275.5 86.5,275.5 86.5,275.5 86.5,275.5 86.5,275.5 86.5,275.5 87.5,275.5 87.5,275.5 87.5,275.5 87.5,275.5 87.5,275.5 
		87.5,275.5 87.5,275.5 87.5,275.5 87.5,275.5 88.5,275.5 88.5,275.5 88.5,275.5 88.5,274.5 88.5,274.5 88.5,274.5 88.5,274.5 
		88.5,274.5 88.5,274.5 89.5,274.5 89.5,274.5 89.5,273.5 89.5,273.5 89.5,273.5 89.5,273.5 89.5,272.5 89.5,272.5 90.5,272.5 
		90.5,272.5 90.5,272.5 90.5,271.5 90.5,271.5 90.5,271.5 90.5,270.5 90.5,270.5 90.5,270.5 91.5,269.5 91.5,269.5 91.5,269.5 
		91.5,268.5 91.5,268.5 91.5,268.5 91.5,267.5 91.5,267.5 91.5,266.5 92.5,266.5 92.5,266.5 92.5,265.5 92.5,265.5 92.5,265.5 
		92.5,264.5 92.5,264.5 92.5,264.5 93.5,263.5 93.5,263.5 93.5,263.5 93.5,262.5 93.5,262.5 93.5,262.5 93.5,261.5 93.5,261.5 
		93.5,261.5 94.5,261.5 94.5,260.5 94.5,260.5 94.5,259.5 94.5,259.5 94.5,259.5 94.5,258.5 94.5,258.5 94.5,257.5 95.5,257.5 
		95.5,256.5 95.5,256.5 95.5,255.5 95.5,255.5 95.5,254.5 95.5,254.5 95.5,254.5 96.5,253.5 96.5,253.5 96.5,253.5 96.5,253.5 
		96.5,253.5 96.5,252.5 96.5,252.5 96.5,252.5 96.5,252.5 97.5,252.5 97.5,252.5 97.5,252.5 97.5,252.5 97.5,252.5 97.5,252.5 
		97.5,252.5 97.5,252.5 97.5,252.5 98.5,252.5 98.5,252.5 98.5,252.5 98.5,252.5 98.5,252.5 98.5,252.5 98.5,252.5 98.5,252.5 
		99.5,251.5 99.5,251.5 99.5,252.5 99.5,251.5 99.5,251.5 99.5,250.5 99.5,250.5 99.5,250.5 99.5,249.5 100.5,249.5 100.5,248.5 
		100.5,248.5 100.5,248.5 100.5,247.5 100.5,247.5 100.5,247.5 100.5,247.5 100.5,246.5 101.5,246.5 101.5,246.5 101.5,246.5 
		101.5,245.5 101.5,245.5 101.5,245.5 101.5,245.5 101.5,245.5 102.5,244.5 102.5,244.5 102.5,244.5 102.5,244.5 102.5,244.5 
		102.5,244.5 102.5,244.5 102.5,244.5 102.5,244.5 103.5,244.5 103.5,245.5 103.5,245.5 103.5,245.5 103.5,246.5 103.5,246.5 
		103.5,246.5 103.5,246.5 103.5,247.5 104.5,247.5 104.5,247.5 104.5,248.5 104.5,248.5 104.5,248.5 104.5,248.5 104.5,248.5 
		104.5,249.5 105.5,249.5 105.5,249.5 105.5,250.5 105.5,250.5 105.5,251.5 105.5,251.5 105.5,251.5 105.5,252.5 105.5,252.5 
		106.5,252.5 106.5,252.5 106.5,253.5 106.5,253.5 106.5,253.5 106.5,253.5 106.5,253.5 106.5,252.5 106.5,252.5 107.5,252.5 
		107.5,252.5 107.5,252.5 107.5,252.5 107.5,252.5 107.5,252.5 107.5,253.5 107.5,253.5 107.5,254.5 108.5,255.5 108.5,255.5 
		108.5,256.5 108.5,257.5 108.5,257.5 108.5,258.5 108.5,258.5 108.5,258.5 109.5,258.5 109.5,258.5 109.5,258.5 109.5,258.5 
		109.5,257.5 109.5,256.5 109.5,256.5 109.5,255.5 109.5,254.5 110.5,254.5 110.5,253.5 110.5,252.5 110.5,251.5 110.5,250.5 
		110.5,249.5 110.5,248.5 110.5,247.5 110.5,245.5 111.5,244.5 111.5,243.5 111.5,242.5 111.5,242.5 111.5,242.5 111.5,242.5 
		111.5,242.5 111.5,242.5 112.5,241.5 112.5,241.5 112.5,241.5 112.5,241.5 112.5,241.5 112.5,240.5 112.5,240.5 112.5,239.5 
		112.5,239.5 113.5,239.5 113.5,239.5 113.5,239.5 113.5,238.5 113.5,238.5 113.5,238.5 113.5,238.5 113.5,237.5 113.5,237.5 
		114.5,237.5 114.5,237.5 114.5,237.5 114.5,237.5 114.5,237.5 114.5,237.5 114.5,237.5 114.5,237.5 115.5,237.5 115.5,238.5 
		115.5,237.5 115.5,238.5 115.5,238.5 115.5,238.5 115.5,238.5 115.5,238.5 115.5,237.5 116.5,237.5 116.5,237.5 116.5,237.5 
		116.5,237.5 116.5,237.5 116.5,237.5 116.5,237.5 116.5,237.5 116.5,237.5 117.5,237.5 117.5,237.5 117.5,236.5 117.5,236.5 
		117.5,236.5 117.5,236.5 117.5,235.5 117.5,235.5 118.5,235.5 118.5,234.5 118.5,234.5 118.5,234.5 118.5,234.5 118.5,234.5 
		118.5,234.5 118.5,235.5 118.5,235.5 119.5,235.5 119.5,235.5 119.5,235.5 119.5,235.5 119.5,235.5 119.5,235.5 119.5,235.5 
		119.5,235.5 119.5,235.5 120.5,235.5 120.5,235.5 120.5,236.5 120.5,236.5 120.5,236.5 120.5,236.5 120.5,236.5 120.5,236.5 
		121.5,237.5 121.5,237.5 121.5,238.5 121.5,238.5 121.5,238.5 121.5,239.5 121.5,239.5 121.5,240.5 121.5,240.5 122.5,241.5 
		122.5,242.5 122.5,242.5 122.5,242.5 122.5,243.5 122.5,243.5 122.5,244.5 122.5,244.5 122.5,244.5 123.5,245.5 123.5,245.5 
		123.5,246.5 123.5,246.5 123.5,247.5 123.5,247.5 123.5,247.5 123.5,247.5 124.5,247.5 124.5,247.5 124.5,247.5 124.5,246.5 
		124.5,246.5 124.5,246.5 124.5,245.5 124.5,245.5 124.5,244.5 125.5,244.5 125.5,244.5 125.5,243.5 125.5,243.5 125.5,243.5 
		125.5,243.5 125.5,242.5 125.5,242.5 125.5,242.5 126.5,242.5 126.5,242.5 126.5,242.5 126.5,242.5 126.5,242.5 126.5,242.5 
		126.5,242.5 126.5,242.5 126.5,243.5 127.5,243.5 127.5,243.5 127.5,243.5 127.5,244.5 127.5,244.5 127.5,244.5 127.5,245.5 
		127.5,245.5 128.5,245.5 128.5,246.5 128.5,246.5 128.5,247.5 128.5,247.5 128.5,247.5 128.5,248.5 128.5,248.5 128.5,248.5 
		129.5,248.5 129.5,248.5 129.5,249.5 129.5,249.5 129.5,249.5 129.5,249.5 129.5,249.5 129.5,249.5 129.5,249.5 130.5,249.5 
		130.5,249.5 130.5,249.5 130.5,249.5 130.5,249.5 130.5,249.5 130.5,249.5 130.5,249.5 131.5,249.5 131.5,249.5 131.5,249.5 
		131.5,249.5 131.5,249.5 131.5,249.5 131.5,249.5 131.5,249.5 131.5,249.5 132.5,249.5 132.5,248.5 132.5,248.5 132.5,248.5 
		132.5,247.5 132.5,247.5 132.5,247.5 132.5,247.5 132.5,246.5 133.5,246.5 133.5,245.5 133.5,245.5 133.5,245.5 133.5,244.5 
		133.5,244.5 133.5,244.5 133.5,243.5 134.5,243.5 134.5,243.5 134.5,243.5 134.5,243.5 134.5,242.5 134.5,242.5 134.5,242.5 
		134.5,242.5 134.5,242.5 135.5,242.5 135.5,242.5 135.5,242.5 135.5,242.5 135.5,242.5 135.5,242.5 135.5,243.5 135.5,243.5 
		135.5,243.5 136.5,243.5 136.5,243.5 136.5,243.5 136.5,243.5 136.5,243.5 136.5,242.5 136.5,242.5 136.5,242.5 137.5,242.5 
		137.5,242.5 137.5,242.5 137.5,242.5 137.5,241.5 137.5,241.5 137.5,241.5 137.5,241.5 137.5,241.5 138.5,241.5 138.5,241.5 
		138.5,241.5 138.5,241.5 138.5,241.5 138.5,241.5 138.5,241.5 138.5,241.5 138.5,241.5 139.5,241.5 139.5,241.5 139.5,241.5 
		139.5,241.5 139.5,241.5 139.5,241.5 139.5,241.5 139.5,241.5 140.5,241.5 140.5,241.5 140.5,241.5 140.5,241.5 140.5,241.5 
		140.5,241.5 140.5,241.5 140.5,240.5 140.5,240.5 141.5,240.5 141.5,240.5 141.5,240.5 141.5,240.5 141.5,240.5 141.5,240.5 
		141.5,241.5 141.5,241.5 141.5,241.5 142.5,241.5 142.5,241.5 142.5,242.5 142.5,242.5 142.5,242.5 142.5,243.5 142.5,243.5 
		142.5,243.5 143.5,244.5 143.5,244.5 143.5,244.5 143.5,245.5 143.5,245.5 143.5,246.5 143.5,246.5 143.5,246.5 143.5,247.5 
		144.5,247.5 144.5,248.5 144.5,248.5 144.5,249.5 144.5,249.5 144.5,250.5 144.5,251.5 144.5,251.5 144.5,252.5 145.5,253.5 
		145.5,254.5 145.5,254.5 145.5,255.5 145.5,255.5 145.5,256.5 145.5,257.5 145.5,257.5 145.5,258.5 146.5,259.5 146.5,259.5 
		146.5,260.5 146.5,260.5 146.5,261.5 146.5,261.5 146.5,261.5 146.5,261.5 147.5,262.5 147.5,262.5 147.5,262.5 147.5,262.5 
		147.5,262.5 147.5,262.5 147.5,261.5 147.5,261.5 147.5,260.5 148.5,260.5 148.5,259.5 148.5,259.5 148.5,258.5 148.5,258.5 
		148.5,258.5 148.5,259.5 148.5,259.5 148.5,259.5 149.5,260.5 149.5,260.5 149.5,260.5 149.5,261.5 149.5,261.5 149.5,262.5 
		149.5,262.5 149.5,262.5 150.5,263.5 150.5,263.5 150.5,264.5 150.5,264.5 150.5,265.5 150.5,265.5 150.5,266.5 150.5,266.5 
		150.5,267.5 151.5,267.5 151.5,268.5 151.5,268.5 151.5,269.5 151.5,269.5 151.5,270.5 151.5,270.5 151.5,270.5 151.5,271.5 
		152.5,271.5 152.5,271.5 152.5,272.5 152.5,272.5 152.5,272.5 152.5,272.5 152.5,272.5 152.5,271.5 153.5,271.5 153.5,270.5 
		153.5,270.5 153.5,270.5 153.5,269.5 153.5,269.5 153.5,268.5 153.5,268.5 153.5,268.5 154.5,267.5 154.5,267.5 154.5,267.5 
		154.5,266.5 154.5,266.5 154.5,266.5 154.5,266.5 154.5,266.5 154.5,266.5 155.5,266.5 155.5,265.5 155.5,265.5 155.5,264.5 
		155.5,264.5 155.5,263.5 155.5,262.5 155.5,262.5 156.5,261.5 156.5,261.5 156.5,260.5 156.5,259.5 156.5,259.5 156.5,258.5 
		156.5,258.5 156.5,257.5 156.5,256.5 157.5,256.5 157.5,255.5 157.5,255.5 157.5,254.5 157.5,254.5 157.5,254.5 157.5,254.5 
		157.5,255.5 157.5,255.5 158.5,255.5 158.5,255.5 158.5,255.5 158.5,255.5 158.5,255.5 158.5,255.5 158.5,255.5 158.5,255.5 
		159.5,255.5 159.5,255.5 159.5,255.5 159.5,254.5 159.5,254.5 159.5,254.5 159.5,255.5 159.5,256.5 159.5,257.5 160.5,258.5 
		160.5,260.5 160.5,261.5 160.5,263.5 160.5,264.5 160.5,266.5 160.5,267.5 160.5,268.5 160.5,270.5 161.5,271.5 161.5,272.5 
		161.5,273.5 161.5,274.5 161.5,275.5 161.5,275.5 161.5,275.5 161.5,275.5 162.5,275.5 162.5,274.5 162.5,274.5 162.5,273.5 
		162.5,272.5 162.5,271.5 162.5,269.5 162.5,268.5 162.5,267.5 163.5,265.5 163.5,263.5 163.5,262.5 163.5,260.5 163.5,259.5 
		163.5,258.5 163.5,257.5 163.5,256.5 163.5,255.5 164.5,254.5 164.5,254.5 164.5,253.5 164.5,253.5 164.5,253.5 164.5,253.5 
		164.5,252.5 164.5,252.5 164.5,252.5 165.5,252.5 165.5,252.5 165.5,252.5 165.5,252.5 165.5,252.5 165.5,252.5 165.5,252.5 
		165.5,252.5 166.5,252.5 166.5,252.5 166.5,252.5 166.5,252.5 166.5,252.5 166.5,252.5 166.5,253.5 166.5,253.5 166.5,253.5 
		167.5,254.5 167.5,254.5 167.5,254.5 167.5,255.5 167.5,255.5 167.5,255.5 167.5,255.5 167.5,255.5 167.5,256.5 168.5,256.5 
		168.5,257.5 168.5,257.5 168.5,258.5 168.5,259.5 168.5,260.5 168.5,261.5 168.5,261.5 169.5,262.5 169.5,263.5 169.5,263.5 
		169.5,264.5 169.5,265.5 169.5,265.5 169.5,266.5 169.5,267.5 169.5,268.5 170.5,269.5 170.5,271.5 170.5,271.5 170.5,272.5 
		170.5,272.5 170.5,273.5 170.5,273.5 170.5,273.5 170.5,273.5 171.5,273.5 171.5,273.5 171.5,273.5 171.5,273.5 171.5,273.5 
		171.5,273.5 171.5,273.5 171.5,273.5 172.5,273.5 172.5,272.5 172.5,271.5 172.5,271.5 172.5,271.5 172.5,270.5 172.5,270.5 
		172.5,270.5 172.5,270.5 173.5,269.5 173.5,268.5 173.5,268.5 173.5,267.5 173.5,267.5 173.5,266.5 173.5,265.5 173.5,265.5 
		173.5,264.5 174.5,264.5 174.5,263.5 174.5,263.5 174.5,262.5 174.5,262.5 174.5,262.5 174.5,262.5 174.5,263.5 175.5,264.5 
		175.5,264.5 175.5,264.5 175.5,264.5 175.5,264.5 175.5,264.5 175.5,264.5 175.5,264.5 175.5,264.5 176.5,264.5 176.5,263.5 
		176.5,263.5 176.5,263.5 176.5,263.5 176.5,262.5 176.5,262.5 176.5,262.5 176.5,262.5 177.5,261.5 177.5,261.5 177.5,261.5 
		177.5,261.5 177.5,261.5 177.5,261.5 177.5,261.5 177.5,261.5 178.5,261.5 178.5,261.5 178.5,260.5 178.5,260.5 178.5,260.5 
		178.5,260.5 178.5,260.5 178.5,260.5 178.5,260.5 179.5,260.5 179.5,260.5 179.5,260.5 179.5,260.5 179.5,260.5 179.5,260.5 
		179.5,260.5 179.5,260.5 179.5,260.5 180.5,260.5 180.5,260.5 180.5,260.5 180.5,259.5 180.5,259.5 180.5,259.5 180.5,259.5 
		180.5,259.5 181.5,259.5 181.5,259.5 181.5,258.5 181.5,258.5 181.5,258.5 181.5,258.5 181.5,257.5 181.5,257.5 181.5,257.5 
		182.5,257.5 182.5,256.5 182.5,256.5 182.5,255.5 182.5,255.5 182.5,255.5 182.5,254.5 182.5,254.5 182.5,254.5 183.5,254.5 
		183.5,253.5 183.5,253.5 183.5,252.5 183.5,252.5 183.5,251.5 183.5,251.5 183.5,250.5 183.5,250.5 184.5,250.5 184.5,249.5 
		184.5,249.5 184.5,249.5 184.5,249.5 184.5,249.5 184.5,249.5 184.5,249.5 185.5,249.5 185.5,249.5 185.5,248.5 185.5,248.5 
		185.5,248.5 185.5,248.5 185.5,248.5 185.5,248.5 185.5,248.5 186.5,248.5 186.5,248.5 186.5,248.5 186.5,249.5 186.5,249.5 
		186.5,249.5 186.5,250.5 186.5,250.5 186.5,250.5 187.5,251.5 187.5,251.5 187.5,252.5 187.5,252.5 187.5,252.5 187.5,253.5 
		187.5,253.5 187.5,253.5 188.5,253.5 188.5,253.5 188.5,253.5 188.5,253.5 188.5,253.5 188.5,253.5 188.5,253.5 188.5,253.5 
		188.5,253.5 189.5,253.5 189.5,253.5 189.5,253.5 189.5,253.5 189.5,253.5 189.5,253.5 189.5,254.5 189.5,254.5 189.5,254.5 
		190.5,255.5 190.5,255.5 190.5,255.5 190.5,256.5 190.5,256.5 190.5,256.5 190.5,255.5 190.5,255.5 191.5,256.5 191.5,255.5 
		191.5,255.5 191.5,255.5 191.5,255.5 191.5,255.5 191.5,255.5 191.5,255.5 191.5,255.5 192.5,255.5 192.5,255.5 192.5,255.5 
		192.5,255.5 192.5,256.5 192.5,256.5 192.5,256.5 192.5,256.5 192.5,255.5 193.5,255.5 193.5,254.5 193.5,254.5 193.5,253.5 
		193.5,252.5 193.5,251.5 193.5,250.5 193.5,249.5 194.5,247.5 194.5,246.5 194.5,245.5 194.5,244.5 194.5,243.5 194.5,243.5 
		194.5,242.5 194.5,242.5 194.5,241.5 195.5,241.5 195.5,240.5 195.5,240.5 195.5,240.5 195.5,239.5 195.5,239.5 195.5,239.5 
		195.5,238.5 195.5,238.5 196.5,238.5 196.5,239.5 196.5,239.5 196.5,239.5 196.5,240.5 196.5,240.5 196.5,240.5 196.5,240.5 
		197.5,240.5 197.5,240.5 197.5,240.5 197.5,241.5 197.5,241.5 197.5,241.5 197.5,241.5 197.5,242.5 197.5,242.5 198.5,242.5 
		198.5,242.5 198.5,243.5 198.5,243.5 198.5,243.5 198.5,243.5 198.5,244.5 198.5,245.5 198.5,246.5 199.5,247.5 199.5,248.5 
		199.5,249.5 199.5,250.5 199.5,251.5 199.5,251.5 199.5,252.5 199.5,252.5 200.5,253.5 200.5,254.5 200.5,254.5 200.5,254.5 
		200.5,254.5 200.5,254.5 200.5,253.5 200.5,252.5 200.5,251.5 201.5,250.5 201.5,249.5 201.5,248.5 201.5,247.5 201.5,246.5 
		201.5,246.5 201.5,245.5 201.5,245.5 201.5,245.5 202.5,244.5 202.5,244.5 202.5,243.5 202.5,243.5 202.5,243.5 202.5,242.5 
		202.5,242.5 202.5,242.5 202.5,241.5 203.5,241.5 203.5,241.5 203.5,241.5 203.5,240.5 203.5,240.5 203.5,240.5 203.5,240.5 
		203.5,239.5 204.5,239.5 204.5,239.5 204.5,239.5 204.5,238.5 204.5,238.5 204.5,238.5 204.5,238.5 204.5,238.5 204.5,238.5 
		205.5,238.5 205.5,237.5 205.5,237.5 205.5,237.5 205.5,237.5 205.5,237.5 205.5,237.5 205.5,236.5 205.5,236.5 206.5,236.5 
		206.5,235.5 206.5,234.5 206.5,233.5 206.5,232.5 206.5,231.5 206.5,231.5 206.5,230.5 207.5,229.5 207.5,228.5 207.5,226.5 
		207.5,225.5 207.5,224.5 207.5,223.5 207.5,222.5 207.5,222.5 207.5,221.5 208.5,220.5 208.5,220.5 208.5,219.5 208.5,218.5 
		208.5,218.5 208.5,217.5 208.5,217.5 208.5,216.5 208.5,216.5 209.5,216.5 209.5,216.5 209.5,216.5 209.5,216.5 209.5,216.5 
		209.5,216.5 209.5,216.5 209.5,216.5 210.5,216.5 210.5,216.5 210.5,216.5 210.5,216.5 210.5,216.5 210.5,216.5 210.5,216.5 
		210.5,216.5 210.5,216.5 211.5,215.5 211.5,215.5 211.5,215.5 211.5,215.5 211.5,215.5 211.5,215.5 211.5,215.5 211.5,216.5 
		211.5,216.5 212.5,216.5 212.5,217.5 212.5,217.5 212.5,218.5 212.5,218.5 212.5,218.5 212.5,219.5 212.5,219.5 213.5,220.5 
		213.5,220.5 213.5,220.5 213.5,221.5 213.5,221.5 213.5,222.5 213.5,222.5 213.5,223.5 213.5,224.5 214.5,225.5 214.5,226.5 
		214.5,226.5 214.5,227.5 214.5,227.5 214.5,228.5 214.5,229.5 214.5,229.5 214.5,230.5 215.5,230.5 215.5,231.5 215.5,231.5 
		215.5,231.5 215.5,231.5 215.5,231.5 215.5,231.5 215.5,230.5 216.5,229.5 216.5,229.5 216.5,228.5 216.5,228.5 216.5,228.5 
		216.5,227.5 216.5,228.5 216.5,228.5 216.5,227.5 217.5,227.5 217.5,227.5 217.5,227.5 217.5,227.5 217.5,227.5 217.5,226.5 
		217.5,226.5 217.5,226.5 217.5,226.5 218.5,226.5 218.5,226.5 218.5,225.5 218.5,225.5 218.5,226.5 218.5,226.5 218.5,227.5 
		218.5,227.5 219.5,228.5 219.5,229.5 219.5,230.5 219.5,231.5 219.5,232.5 219.5,233.5 219.5,235.5 219.5,236.5 219.5,237.5 
		220.5,239.5 220.5,240.5 220.5,242.5 220.5,243.5 220.5,244.5 220.5,244.5 220.5,245.5 220.5,244.5 220.5,244.5 221.5,243.5 
		221.5,242.5 221.5,242.5 221.5,241.5 221.5,241.5 221.5,240.5 221.5,239.5 221.5,239.5 221.5,239.5 222.5,238.5 222.5,238.5 
		222.5,237.5 222.5,237.5 222.5,236.5 222.5,236.5 222.5,235.5 222.5,234.5 223.5,234.5 223.5,233.5 223.5,233.5 223.5,232.5 
		223.5,232.5 223.5,231.5 223.5,231.5 223.5,230.5 223.5,230.5 224.5,229.5 224.5,229.5 224.5,228.5 224.5,227.5 224.5,227.5 
		224.5,226.5 224.5,226.5 224.5,225.5 224.5,225.5 225.5,224.5 225.5,224.5 225.5,223.5 225.5,223.5 225.5,222.5 225.5,222.5 
		225.5,221.5 225.5,221.5 226.5,220.5 226.5,219.5 226.5,219.5 226.5,218.5 226.5,218.5 226.5,217.5 226.5,217.5 226.5,217.5 
		226.5,216.5 227.5,216.5 227.5,215.5 227.5,215.5 227.5,215.5 227.5,215.5 227.5,214.5 227.5,214.5 227.5,214.5 227.5,214.5 
		228.5,214.5 228.5,214.5 228.5,214.5 228.5,214.5 228.5,214.5 228.5,214.5 228.5,213.5 228.5,213.5 229.5,213.5 229.5,213.5 
		229.5,212.5 229.5,212.5 229.5,212.5 229.5,212.5 229.5,212.5 229.5,211.5 229.5,211.5 230.5,211.5 230.5,211.5 230.5,211.5 
		230.5,210.5 230.5,210.5 230.5,210.5 230.5,210.5 230.5,209.5 230.5,209.5 231.5,209.5 231.5,209.5 231.5,209.5 231.5,209.5 
		231.5,208.5 231.5,208.5 231.5,208.5 231.5,208.5 232.5,208.5 232.5,207.5 232.5,207.5 232.5,207.5 232.5,207.5 232.5,207.5 
		232.5,207.5 232.5,207.5 232.5,207.5 233.5,208.5 233.5,208.5 233.5,208.5 233.5,208.5 233.5,208.5 233.5,208.5 233.5,208.5 
		233.5,208.5 233.5,209.5 234.5,209.5 234.5,209.5 234.5,209.5 234.5,209.5 234.5,209.5 234.5,209.5 234.5,210.5 234.5,210.5 
		235.5,210.5 235.5,210.5 235.5,210.5 235.5,210.5 235.5,211.5 235.5,211.5 235.5,210.5 235.5,210.5 235.5,210.5 236.5,210.5 
		236.5,209.5 236.5,209.5 236.5,209.5 236.5,209.5 236.5,209.5 236.5,208.5 236.5,208.5 236.5,208.5 237.5,208.5 237.5,208.5 
		237.5,208.5 237.5,208.5 237.5,209.5 237.5,209.5 237.5,209.5 237.5,209.5 238.5,210.5 238.5,210.5 238.5,210.5 238.5,210.5 
		238.5,210.5 238.5,211.5 238.5,211.5 238.5,212.5 238.5,212.5 239.5,213.5 239.5,213.5 239.5,213.5 239.5,214.5 239.5,214.5 
		239.5,215.5 239.5,216.5 239.5,216.5 239.5,217.5 240.5,217.5 240.5,218.5 240.5,218.5 240.5,219.5 240.5,220.5 240.5,220.5 
		240.5,220.5 240.5,221.5 240.5,221.5 241.5,221.5 241.5,221.5 241.5,221.5 241.5,220.5 241.5,220.5 241.5,220.5 241.5,220.5 
		241.5,220.5 242.5,220.5 242.5,220.5 242.5,220.5 242.5,220.5 242.5,220.5 242.5,219.5 242.5,217.5 242.5,215.5 242.5,214.5 
		243.5,214.5 243.5,214.5 243.5,214.5 243.5,213.5 243.5,213.5 243.5,213.5 243.5,212.5 243.5,212.5 243.5,212.5 244.5,212.5 
		244.5,212.5 244.5,211.5 244.5,211.5 244.5,211.5 244.5,211.5 244.5,211.5 244.5,210.5 245.5,210.5 245.5,210.5 245.5,210.5 
		245.5,210.5 245.5,210.5 245.5,210.5 245.5,210.5 245.5,210.5 245.5,210.5 246.5,210.5 246.5,210.5 246.5,210.5 246.5,211.5 
		246.5,211.5 246.5,211.5 246.5,210.5 246.5,210.5 246.5,210.5 247.5,210.5 247.5,210.5 247.5,210.5 247.5,210.5 247.5,210.5 
		247.5,210.5 247.5,210.5 247.5,210.5 248.5,211.5 248.5,211.5 248.5,211.5 248.5,212.5 248.5,212.5 248.5,212.5 248.5,213.5 
		248.5,213.5 248.5,213.5 249.5,214.5 249.5,214.5 249.5,215.5 249.5,215.5 249.5,215.5 249.5,215.5 249.5,216.5 249.5,216.5 
		249.5,217.5 250.5,217.5 250.5,217.5 250.5,217.5 250.5,217.5 250.5,217.5 250.5,218.5 250.5,217.5 250.5,217.5 251.5,217.5 
		251.5,217.5 251.5,216.5 251.5,216.5 251.5,216.5 251.5,216.5 251.5,216.5 251.5,215.5 251.5,215.5 252.5,215.5 252.5,215.5 
		252.5,214.5 252.5,214.5 252.5,214.5 252.5,214.5 252.5,213.5 252.5,213.5 252.5,213.5 253.5,213.5 253.5,212.5 253.5,212.5 
		253.5,211.5 253.5,211.5 253.5,211.5 253.5,210.5 253.5,210.5 254.5,209.5 254.5,209.5 254.5,209.5 254.5,208.5 254.5,208.5 
		254.5,207.5 254.5,207.5 254.5,207.5 254.5,206.5 255.5,206.5 255.5,205.5 255.5,205.5 255.5,205.5 255.5,204.5 255.5,204.5 
		255.5,204.5 255.5,204.5 255.5,204.5 256.5,204.5 256.5,203.5 256.5,203.5 256.5,203.5 256.5,203.5 256.5,203.5 256.5,203.5 
		256.5,203.5 257.5,203.5 257.5,203.5 257.5,203.5 257.5,203.5 257.5,203.5 257.5,203.5 257.5,203.5 257.5,203.5 257.5,203.5 
		258.5,203.5 258.5,203.5 258.5,203.5 258.5,203.5 258.5,203.5 258.5,203.5 258.5,203.5 258.5,203.5 258.5,203.5 259.5,203.5 
		259.5,203.5 259.5,203.5 259.5,203.5 259.5,203.5 259.5,203.5 259.5,203.5 259.5,203.5 259.5,203.5 260.5,203.5 260.5,203.5 
		260.5,203.5 260.5,203.5 260.5,204.5 260.5,204.5 260.5,204.5 260.5,204.5 261.5,203.5 261.5,203.5 261.5,203.5 261.5,203.5 
		261.5,203.5 261.5,203.5 261.5,203.5 261.5,203.5 261.5,203.5 262.5,203.5 262.5,203.5 262.5,203.5 262.5,203.5 262.5,203.5 
		262.5,203.5 262.5,203.5 262.5,203.5 262.5,203.5 263.5,203.5 263.5,203.5 263.5,203.5 263.5,203.5 263.5,202.5 263.5,202.5 
		263.5,202.5 263.5,202.5 264.5,202.5 264.5,202.5 264.5,202.5 264.5,202.5 264.5,202.5 264.5,202.5 264.5,203.5 264.5,203.5 
		264.5,203.5 265.5,203.5 265.5,203.5 265.5,203.5 265.5,203.5 265.5,203.5 265.5,203.5 265.5,203.5 265.5,204.5 265.5,204.5 
		266.5,204.5 266.5,204.5 266.5,204.5 266.5,204.5 266.5,204.5 266.5,204.5 266.5,205.5 266.5,205.5 267.5,205.5 267.5,205.5 
		267.5,205.5 267.5,205.5 267.5,206.5 267.5,206.5 267.5,206.5 267.5,206.5 267.5,206.5 268.5,206.5 268.5,206.5 268.5,207.5 
		268.5,207.5 268.5,207.5 268.5,207.5 268.5,207.5 268.5,207.5 268.5,207.5 269.5,207.5 269.5,207.5 269.5,207.5 269.5,208.5 
		269.5,208.5 269.5,208.5 269.5,208.5 269.5,209.5 270.5,209.5 270.5,209.5 270.5,209.5 270.5,210.5 270.5,210.5 270.5,210.5 
		270.5,211.5 270.5,211.5 270.5,211.5 271.5,211.5 271.5,212.5 271.5,212.5 271.5,212.5 271.5,213.5 271.5,213.5 271.5,214.5 
		271.5,214.5 271.5,215.5 272.5,215.5 272.5,215.5 272.5,215.5 272.5,215.5 272.5,215.5 272.5,215.5 272.5,215.5 272.5,215.5 
		273.5,215.5 273.5,216.5 273.5,216.5 273.5,216.5 273.5,217.5 273.5,217.5 273.5,217.5 273.5,218.5 273.5,218.5 274.5,218.5 
		274.5,219.5 274.5,219.5 274.5,220.5 274.5,220.5 274.5,220.5 274.5,221.5 274.5,221.5 274.5,222.5 275.5,222.5 275.5,223.5 
		275.5,223.5 275.5,223.5 275.5,223.5 275.5,223.5 275.5,223.5 275.5,223.5 276.5,223.5 276.5,224.5 276.5,224.5 276.5,224.5 
		276.5,224.5 276.5,225.5 276.5,225.5 276.5,225.5 276.5,226.5 277.5,226.5 277.5,227.5 277.5,227.5 277.5,227.5 277.5,228.5 
		277.5,228.5 277.5,229.5 277.5,230.5 277.5,230.5 278.5,231.5 278.5,231.5 278.5,231.5 278.5,231.5 278.5,231.5 278.5,231.5 
		278.5,232.5 278.5,232.5 278.5,232.5 279.5,232.5 279.5,233.5 279.5,233.5 279.5,234.5 279.5,235.5 279.5,235.5 279.5,236.5 
		279.5,236.5 280.5,237.5 280.5,238.5 280.5,239.5 280.5,239.5 280.5,239.5 280.5,240.5 280.5,239.5 280.5,239.5 280.5,239.5 
		281.5,239.5 281.5,238.5 281.5,238.5 281.5,237.5 281.5,236.5 281.5,235.5 281.5,234.5 281.5,234.5 281.5,233.5 282.5,232.5 
		282.5,231.5 282.5,231.5 282.5,231.5 282.5,230.5 282.5,231.5 282.5,230.5 282.5,230.5 283.5,230.5 283.5,230.5 283.5,230.5 
		283.5,230.5 283.5,230.5 283.5,230.5 283.5,230.5 283.5,230.5 283.5,230.5 284.5,230.5 284.5,230.5 284.5,230.5 284.5,230.5 
		284.5,230.5 284.5,230.5 284.5,230.5 284.5,230.5 284.5,229.5 285.5,229.5 285.5,229.5 285.5,230.5 285.5,230.5 285.5,231.5 
		285.5,231.5 285.5,231.5 285.5,232.5 286.5,233.5 286.5,234.5 286.5,235.5 286.5,236.5 286.5,237.5 286.5,238.5 286.5,239.5 
		286.5,240.5 286.5,241.5 287.5,242.5 287.5,242.5 287.5,243.5 287.5,243.5 287.5,244.5 287.5,244.5 287.5,244.5 287.5,244.5 
		287.5,244.5 288.5,244.5 288.5,244.5 288.5,245.5 288.5,245.5 288.5,245.5 288.5,245.5 288.5,245.5 288.5,245.5 289.5,245.5 
		289.5,245.5 289.5,245.5 289.5,245.5 289.5,245.5 289.5,245.5 289.5,245.5 289.5,245.5 289.5,245.5 290.5,245.5 290.5,245.5 
		290.5,245.5 290.5,245.5 290.5,245.5 290.5,245.5 290.5,245.5 290.5,245.5 290.5,245.5 291.5,245.5 291.5,245.5 291.5,245.5 
		291.5,245.5 291.5,245.5 291.5,245.5 291.5,245.5 291.5,245.5 292.5,245.5 292.5,245.5 292.5,245.5 292.5,245.5 292.5,245.5 
		292.5,245.5 292.5,245.5 292.5,245.5 292.5,245.5 293.5,245.5 293.5,245.5 293.5,245.5 293.5,245.5 293.5,246.5 293.5,246.5 
		293.5,246.5 293.5,246.5 293.5,246.5 294.5,246.5 294.5,246.5 294.5,246.5 294.5,246.5 294.5,246.5 294.5,245.5 294.5,244.5 
		294.5,244.5 295.5,243.5 295.5,243.5 295.5,242.5 295.5,242.5 295.5,241.5 295.5,241.5 295.5,240.5 295.5,240.5 295.5,239.5 
		296.5,239.5 296.5,238.5 296.5,238.5 296.5,237.5 296.5,237.5 296.5,236.5 296.5,235.5 296.5,235.5 296.5,234.5 297.5,233.5 
		297.5,233.5 297.5,232.5 297.5,232.5 297.5,231.5 297.5,231.5 297.5,231.5 297.5,230.5 297.5,230.5 298.5,230.5 298.5,229.5 
		298.5,229.5 298.5,228.5 298.5,228.5 298.5,228.5 298.5,227.5 298.5,227.5 299.5,227.5 299.5,227.5 299.5,226.5 299.5,226.5 
		299.5,226.5 299.5,226.5 299.5,226.5 299.5,225.5 299.5,225.5 300.5,225.5 300.5,225.5 300.5,225.5 300.5,224.5 300.5,224.5 
		300.5,224.5 300.5,223.5 300.5,223.5 300.5,223.5 301.5,222.5 301.5,222.5 301.5,222.5 301.5,221.5 301.5,221.5 301.5,221.5 
		301.5,220.5 301.5,220.5 302.5,220.5 302.5,220.5 302.5,219.5 302.5,219.5 302.5,219.5 302.5,219.5 302.5,218.5 302.5,218.5 
		302.5,218.5 303.5,217.5 303.5,217.5 303.5,217.5 303.5,217.5 303.5,217.5 303.5,216.5 303.5,216.5 303.5,216.5 303.5,216.5 
		304.5,216.5 304.5,216.5 304.5,216.5 304.5,216.5 304.5,216.5 304.5,216.5 304.5,216.5 304.5,216.5 305.5,216.5 305.5,216.5 
		305.5,217.5 305.5,217.5 305.5,218.5 305.5,218.5 305.5,218.5 305.5,219.5 305.5,219.5 306.5,220.5 306.5,220.5 306.5,220.5 
		306.5,221.5 306.5,221.5 306.5,221.5 306.5,221.5 306.5,221.5 306.5,221.5 307.5,221.5 307.5,221.5 307.5,222.5 307.5,222.5 
		307.5,222.5 307.5,222.5 307.5,222.5 307.5,221.5 308.5,221.5 308.5,221.5 308.5,221.5 308.5,222.5 308.5,222.5 308.5,222.5 
		308.5,222.5 308.5,223.5 308.5,223.5 309.5,224.5 309.5,224.5 309.5,224.5 309.5,225.5 309.5,226.5 309.5,226.5 309.5,227.5 
		309.5,228.5 309.5,228.5 310.5,229.5 310.5,230.5 310.5,230.5 310.5,231.5 310.5,231.5 310.5,232.5 310.5,233.5 310.5,233.5 
		311.5,234.5 311.5,235.5 311.5,236.5 311.5,237.5 311.5,238.5 311.5,238.5 311.5,239.5 311.5,240.5 311.5,241.5 312.5,242.5 
		312.5,242.5 312.5,243.5 312.5,243.5 312.5,244.5 312.5,244.5 312.5,244.5 312.5,245.5 312.5,245.5 313.5,245.5 313.5,245.5 
		313.5,245.5 313.5,245.5 313.5,245.5 313.5,245.5 313.5,245.5 313.5,245.5 314.5,245.5 314.5,245.5 314.5,245.5 314.5,245.5 
		314.5,244.5 314.5,244.5 314.5,244.5 314.5,244.5 314.5,244.5 315.5,244.5 315.5,244.5 315.5,244.5 315.5,244.5 315.5,245.5 
		315.5,245.5 315.5,245.5 315.5,245.5 315.5,245.5 316.5,245.5 316.5,245.5 316.5,244.5 316.5,244.5 316.5,244.5 316.5,244.5 
		316.5,243.5 316.5,243.5 316.5,243.5 317.5,243.5 317.5,243.5 317.5,243.5 317.5,243.5 317.5,243.5 317.5,243.5 317.5,242.5 
		317.5,242.5 318.5,241.5 318.5,241.5 318.5,241.5 318.5,241.5 318.5,240.5 318.5,240.5 318.5,240.5 318.5,240.5 318.5,240.5 
		319.5,240.5 319.5,241.5 319.5,241.5 319.5,241.5 319.5,241.5 319.5,242.5 319.5,243.5 319.5,243.5 319.5,244.5 320.5,245.5 
		320.5,246.5 320.5,246.5 320.5,245.5 320.5,245.5 320.5,245.5 320.5,245.5 320.5,245.5 321.5,245.5 321.5,245.5 321.5,245.5 
		321.5,245.5 321.5,245.5 321.5,245.5 321.5,245.5 321.5,245.5 321.5,245.5 322.5,245.5 322.5,245.5 322.5,245.5 322.5,245.5 
		322.5,245.5 322.5,245.5 322.5,245.5 322.5,245.5 322.5,245.5 323.5,244.5 323.5,244.5 323.5,244.5 323.5,245.5 323.5,245.5 
		323.5,245.5 323.5,245.5 323.5,245.5 324.5,245.5 324.5,245.5 324.5,245.5 324.5,245.5 324.5,245.5 324.5,245.5 324.5,245.5 
		324.5,245.5 324.5,244.5 325.5,244.5 325.5,244.5 325.5,244.5 325.5,244.5 325.5,243.5 325.5,243.5 325.5,243.5 325.5,243.5 
		325.5,243.5 326.5,243.5 326.5,243.5 326.5,243.5 326.5,244.5 326.5,244.5 326.5,244.5 326.5,244.5 326.5,244.5 327.5,244.5 
		327.5,244.5 327.5,244.5 327.5,244.5 327.5,244.5 327.5,244.5 327.5,244.5 327.5,244.5 327.5,245.5 328.5,245.5 328.5,245.5 
		328.5,245.5 328.5,245.5 328.5,244.5 328.5,244.5 328.5,245.5 328.5,244.5 328.5,244.5 329.5,244.5 329.5,244.5 329.5,244.5 
		329.5,244.5 329.5,244.5 329.5,244.5 329.5,244.5 329.5,243.5 330.5,243.5 330.5,243.5 330.5,243.5 330.5,243.5 330.5,243.5 
		330.5,243.5 330.5,243.5 330.5,242.5 330.5,242.5 331.5,242.5 331.5,242.5 331.5,242.5 331.5,242.5 331.5,242.5 331.5,242.5 
		331.5,242.5 331.5,242.5 331.5,242.5 332.5,242.5 332.5,243.5 332.5,243.5 332.5,243.5 332.5,243.5 332.5,243.5 332.5,243.5 
		332.5,243.5 333.5,243.5 333.5,243.5 333.5,243.5 333.5,243.5 333.5,243.5 333.5,243.5 333.5,243.5 333.5,243.5 333.5,243.5 
		334.5,243.5 334.5,244.5 334.5,244.5 334.5,244.5 334.5,244.5 334.5,245.5 334.5,245.5 334.5,245.5 334.5,245.5 335.5,245.5 
		335.5,245.5 335.5,245.5 335.5,245.5 335.5,245.5 335.5,245.5 335.5,245.5 335.5,245.5 335.5,245.5 336.5,245.5 336.5,245.5 
		336.5,245.5 336.5,245.5 336.5,245.5 336.5,245.5 336.5,245.5 336.5,245.5 337.5,245.5 337.5,244.5 337.5,244.5 337.5,244.5 
		337.5,244.5 337.5,243.5 337.5,243.5 337.5,243.5 337.5,243.5 338.5,242.5 338.5,242.5 338.5,242.5 338.5,242.5 338.5,241.5 
		338.5,241.5 338.5,241.5 338.5,241.5 338.5,240.5 339.5,240.5 339.5,240.5 339.5,240.5 339.5,240.5 339.5,239.5 339.5,239.5 
		339.5,239.5 339.5,239.5 340.5,239.5 340.5,239.5 340.5,239.5 340.5,239.5 340.5,239.5 340.5,239.5 340.5,239.5 340.5,239.5 
		340.5,240.5 341.5,240.5 341.5,240.5 341.5,240.5 341.5,240.5 341.5,240.5 341.5,240.5 341.5,240.5 341.5,240.5 341.5,240.5 
		342.5,241.5 342.5,241.5 342.5,241.5 342.5,241.5 342.5,242.5 342.5,242.5 342.5,242.5 342.5,242.5 343.5,242.5 343.5,243.5 
		343.5,243.5 343.5,243.5 343.5,243.5 343.5,243.5 343.5,243.5 343.5,244.5 343.5,244.5 344.5,244.5 344.5,245.5 344.5,245.5 
		344.5,245.5 344.5,245.5 344.5,245.5 344.5,245.5 344.5,245.5 344.5,245.5 345.5,245.5 345.5,245.5 345.5,245.5 345.5,245.5 
		345.5,245.5 345.5,245.5 345.5,245.5 345.5,245.5 346.5,245.5 346.5,245.5 346.5,245.5 346.5,245.5 346.5,245.5 346.5,245.5 
		346.5,245.5 346.5,245.5 346.5,245.5 347.5,245.5 347.5,245.5 347.5,245.5 347.5,245.5 347.5,245.5 347.5,245.5 347.5,245.5 
		347.5,245.5 347.5,245.5 348.5,245.5 348.5,245.5 348.5,245.5 348.5,245.5 348.5,245.5 348.5,245.5 348.5,245.5 348.5,245.5 
		349.5,245.5 349.5,245.5 349.5,245.5 349.5,245.5 349.5,245.5 349.5,245.5 349.5,246.5 349.5,246.5 349.5,246.5 350.5,245.5 
		350.5,245.5 350.5,245.5 350.5,245.5 350.5,245.5 350.5,245.5 350.5,245.5 350.5,245.5 350.5,245.5 351.5,245.5 351.5,245.5 
		351.5,245.5 351.5,245.5 351.5,245.5 351.5,244.5 351.5,244.5 351.5,244.5 352.5,243.5 352.5,243.5 352.5,242.5 352.5,241.5 
		352.5,241.5 352.5,240.5 352.5,240.5 352.5,239.5 352.5,239.5 353.5,238.5 353.5,237.5 353.5,237.5 353.5,236.5 353.5,236.5 
		353.5,236.5 353.5,235.5 353.5,235.5 353.5,235.5 354.5,234.5 354.5,234.5 354.5,233.5 354.5,233.5 354.5,232.5 354.5,232.5 
		354.5,231.5 354.5,231.5 354.5,230.5 355.5,230.5 355.5,229.5 355.5,229.5 355.5,229.5 355.5,228.5 355.5,228.5 355.5,227.5 
		355.5,227.5 356.5,227.5 356.5,227.5 356.5,227.5 356.5,227.5 356.5,227.5 356.5,227.5 356.5,227.5 356.5,227.5 356.5,228.5 
		357.5,228.5 357.5,228.5 357.5,229.5 357.5,229.5 357.5,229.5 357.5,230.5 357.5,230.5 357.5,230.5 357.5,230.5 358.5,230.5 
		358.5,231.5 358.5,231.5 358.5,231.5 358.5,232.5 358.5,232.5 358.5,232.5 358.5,232.5 359.5,232.5 359.5,233.5 359.5,233.5 
		359.5,233.5 359.5,233.5 359.5,234.5 359.5,234.5 359.5,234.5 359.5,234.5 360.5,234.5 360.5,235.5 360.5,235.5 360.5,235.5 
		360.5,235.5 360.5,235.5 360.5,236.5 360.5,236.5 360.5,236.5 361.5,236.5 361.5,236.5 361.5,237.5 361.5,237.5 361.5,237.5 
		361.5,237.5 361.5,238.5 361.5,238.5 362.5,238.5 362.5,238.5 362.5,238.5 362.5,238.5 362.5,239.5 362.5,239.5 362.5,239.5 
		362.5,239.5 362.5,239.5 363.5,239.5 363.5,239.5 363.5,239.5 363.5,239.5 363.5,239.5 363.5,239.5 363.5,239.5 363.5,239.5 
		363.5,239.5 364.5,239.5 364.5,239.5 364.5,239.5 364.5,239.5 364.5,239.5 364.5,239.5 364.5,239.5 364.5,239.5 365.5,239.5 
		365.5,238.5 365.5,238.5 365.5,238.5 365.5,238.5 365.5,238.5 365.5,239.5 365.5,239.5 365.5,239.5 366.5,239.5 366.5,239.5 
		366.5,239.5 366.5,239.5 366.5,239.5 366.5,239.5 366.5,240.5 366.5,240.5 366.5,240.5 367.5,240.5 367.5,240.5 367.5,241.5 
		367.5,241.5 367.5,241.5 367.5,241.5 367.5,241.5 367.5,241.5 368.5,241.5 368.5,241.5 368.5,241.5 368.5,241.5 368.5,241.5 
		368.5,241.5 368.5,241.5 368.5,241.5 368.5,241.5 369.5,241.5 369.5,241.5 369.5,240.5 369.5,240.5 369.5,240.5 369.5,239.5 
		369.5,239.5 369.5,239.5 369.5,239.5 370.5,239.5 370.5,238.5 370.5,238.5 370.5,238.5 370.5,238.5 370.5,238.5 370.5,237.5 
		370.5,237.5 371.5,237.5 371.5,237.5 371.5,237.5 371.5,237.5 371.5,236.5 371.5,236.5 371.5,236.5 371.5,236.5 371.5,236.5 
		372.5,235.5 372.5,235.5 372.5,235.5 372.5,235.5 372.5,235.5 372.5,235.5 372.5,235.5 372.5,235.5 372.5,235.5 373.5,235.5 
		373.5,236.5 373.5,236.5 373.5,236.5 373.5,236.5 373.5,236.5 373.5,236.5 373.5,236.5 373.5,236.5 374.5,236.5 374.5,236.5 
		374.5,237.5 374.5,237.5 374.5,237.5 374.5,237.5 374.5,237.5 374.5,238.5 375.5,238.5 375.5,238.5 375.5,238.5 375.5,238.5 
		375.5,239.5 375.5,239.5 375.5,239.5 375.5,239.5 375.5,240.5 376.5,240.5 376.5,240.5 376.5,240.5 376.5,240.5 376.5,240.5 
		376.5,240.5 376.5,240.5 376.5,240.5 376.5,240.5 377.5,240.5 377.5,240.5 377.5,240.5 377.5,240.5 377.5,241.5 377.5,241.5 
		377.5,241.5 377.5,241.5 378.5,241.5 378.5,241.5 378.5,241.5 378.5,242.5 378.5,242.5 378.5,242.5 378.5,242.5 378.5,242.5 
		378.5,242.5 379.5,242.5 379.5,242.5 379.5,242.5 379.5,242.5 379.5,242.5 379.5,243.5 379.5,243.5 379.5,243.5 379.5,243.5 
		380.5,243.5 380.5,243.5 380.5,243.5 380.5,243.5 380.5,243.5 380.5,243.5 380.5,242.5 380.5,241.5 381.5,241.5 381.5,241.5 
		381.5,240.5 381.5,240.5 381.5,239.5 381.5,239.5 381.5,238.5 381.5,238.5 381.5,237.5 382.5,237.5 382.5,236.5 382.5,236.5 
		382.5,236.5 382.5,235.5 382.5,235.5 382.5,235.5 382.5,235.5 382.5,234.5 383.5,233.5 383.5,233.5 383.5,232.5 383.5,232.5 
		383.5,232.5 383.5,231.5 383.5,230.5 383.5,230.5 384.5,229.5 384.5,229.5 384.5,228.5 384.5,228.5 384.5,227.5 384.5,227.5 
		384.5,227.5 384.5,227.5 384.5,227.5 385.5,227.5 385.5,227.5 385.5,226.5 385.5,225.5 385.5,224.5 385.5,223.5 385.5,223.5 
		385.5,222.5 385.5,221.5 386.5,220.5 386.5,219.5 386.5,219.5 386.5,219.5 386.5,218.5 386.5,217.5 386.5,216.5 386.5,215.5 
		387.5,215.5 387.5,214.5 387.5,214.5 387.5,213.5 387.5,212.5 387.5,212.5 387.5,211.5 387.5,211.5 387.5,210.5 388.5,210.5 
		388.5,209.5 388.5,209.5 388.5,209.5 388.5,209.5 388.5,210.5 388.5,210.5 388.5,210.5 388.5,210.5 389.5,210.5 389.5,210.5 
		389.5,210.5 389.5,210.5 389.5,210.5 389.5,210.5 389.5,210.5 389.5,210.5 390.5,211.5 390.5,210.5 390.5,210.5 390.5,210.5 
		390.5,210.5 390.5,210.5 390.5,210.5 390.5,210.5 390.5,210.5 391.5,209.5 391.5,209.5 391.5,208.5 391.5,208.5 391.5,208.5 
		391.5,208.5 391.5,209.5 391.5,209.5 391.5,210.5 392.5,211.5 392.5,212.5 392.5,213.5 392.5,213.5 392.5,214.5 392.5,214.5 
		392.5,214.5 392.5,215.5 392.5,215.5 393.5,215.5 393.5,216.5 393.5,216.5 393.5,216.5 393.5,217.5 393.5,217.5 393.5,217.5 
		393.5,217.5 394.5,218.5 394.5,218.5 394.5,218.5 394.5,218.5 394.5,218.5 394.5,218.5 394.5,218.5 394.5,218.5 394.5,217.5 
		395.5,217.5 395.5,216.5 395.5,216.5 395.5,215.5 395.5,214.5 395.5,213.5 395.5,213.5 395.5,212.5 395.5,211.5 396.5,210.5 
		396.5,210.5 396.5,209.5 396.5,209.5 396.5,208.5 396.5,208.5 396.5,208.5 396.5,207.5 397.5,207.5 397.5,207.5 397.5,207.5 
		397.5,207.5 397.5,207.5 397.5,207.5 397.5,207.5 397.5,207.5 397.5,207.5 398.5,208.5 398.5,208.5 398.5,209.5 398.5,209.5 
		398.5,209.5 398.5,209.5 398.5,209.5 398.5,209.5 398.5,209.5 399.5,209.5 399.5,209.5 399.5,209.5 399.5,209.5 399.5,209.5 
		399.5,209.5 399.5,208.5 399.5,208.5 400.5,208.5 400.5,208.5 400.5,208.5 400.5,208.5 400.5,207.5 400.5,207.5 400.5,207.5 
		400.5,208.5 400.5,208.5 401.5,208.5 401.5,208.5 401.5,208.5 401.5,209.5 401.5,209.5 401.5,209.5 401.5,209.5 401.5,210.5 
		401.5,210.5 402.5,210.5 402.5,210.5 402.5,210.5 402.5,210.5 402.5,210.5 402.5,210.5 402.5,210.5 402.5,209.5 403.5,209.5 
		403.5,209.5 403.5,208.5 403.5,208.5 403.5,208.5 403.5,207.5 403.5,207.5 403.5,207.5 403.5,206.5 404.5,206.5 404.5,207.5 
		404.5,208.5 404.5,209.5 404.5,210.5 404.5,212.5 404.5,213.5 404.5,215.5 404.5,216.5 405.5,217.5 405.5,219.5 405.5,221.5 
		405.5,222.5 405.5,222.5 405.5,222.5 405.5,221.5 405.5,222.5 406.5,222.5 406.5,221.5 406.5,220.5 406.5,220.5 406.5,219.5 
		406.5,218.5 406.5,217.5 406.5,216.5 406.5,215.5 407.5,213.5 407.5,212.5 407.5,211.5 407.5,210.5 407.5,209.5 407.5,208.5 
		407.5,207.5 407.5,206.5 407.5,205.5 408.5,205.5 408.5,204.5 408.5,203.5 408.5,202.5 408.5,201.5 408.5,200.5 408.5,199.5 
		408.5,199.5 409.5,198.5 409.5,197.5 409.5,196.5 409.5,195.5 409.5,194.5 409.5,193.5 409.5,192.5 409.5,190.5 409.5,189.5 
		410.5,188.5 410.5,186.5 410.5,185.5 410.5,183.5 410.5,181.5 410.5,179.5 410.5,178.5 410.5,177.5 410.5,175.5 411.5,174.5 
		411.5,172.5 411.5,170.5 411.5,169.5 411.5,167.5 411.5,166.5 411.5,164.5 411.5,163.5 411.5,161.5 412.5,161.5 412.5,160.5 
		412.5,160.5 412.5,159.5 412.5,158.5 412.5,158.5 412.5,157.5 412.5,156.5 413.5,156.5 413.5,155.5 413.5,155.5 413.5,154.5 
		413.5,153.5 413.5,153.5 413.5,152.5 413.5,152.5 413.5,151.5 414.5,151.5 414.5,150.5 414.5,150.5 414.5,150.5 414.5,149.5 
		414.5,149.5 414.5,149.5 414.5,149.5 414.5,149.5 415.5,149.5 415.5,149.5 415.5,150.5 415.5,150.5 415.5,150.5 415.5,150.5 
		415.5,151.5 415.5,151.5 416.5,151.5 416.5,152.5 416.5,152.5 416.5,152.5 416.5,152.5 416.5,152.5 416.5,151.5 416.5,151.5 
		416.5,150.5 417.5,150.5 417.5,150.5 417.5,149.5 417.5,149.5 417.5,149.5 417.5,148.5 417.5,148.5 417.5,148.5 417.5,148.5 
		418.5,147.5 418.5,147.5 418.5,147.5 418.5,147.5 418.5,147.5 418.5,146.5 418.5,146.5 418.5,146.5 419.5,146.5 419.5,146.5 
		419.5,146.5 419.5,146.5 419.5,146.5 419.5,147.5 419.5,147.5 419.5,147.5 419.5,147.5 420.5,147.5 420.5,148.5 420.5,148.5 
		420.5,148.5 420.5,148.5 420.5,148.5 420.5,148.5 420.5,149.5 420.5,149.5 421.5,149.5 421.5,149.5 421.5,148.5 421.5,148.5 
		421.5,148.5 421.5,148.5 421.5,148.5 421.5,148.5 422.5,148.5 422.5,148.5 422.5,148.5 422.5,148.5 422.5,148.5 422.5,148.5 
		422.5,148.5 422.5,148.5 422.5,148.5 423.5,148.5 423.5,148.5 423.5,147.5 423.5,147.5 423.5,147.5 423.5,147.5 423.5,147.5 
		423.5,147.5 423.5,147.5 424.5,147.5 424.5,146.5 424.5,146.5 424.5,146.5 424.5,146.5 424.5,145.5 424.5,145.5 424.5,144.5 
		425.5,144.5 425.5,144.5 425.5,143.5 425.5,143.5 425.5,143.5 425.5,143.5 425.5,142.5 425.5,142.5 425.5,142.5 426.5,142.5 
		426.5,141.5 426.5,141.5 426.5,141.5 426.5,140.5 426.5,140.5 426.5,140.5 426.5,140.5 426.5,140.5 427.5,140.5 427.5,140.5 
		427.5,140.5 427.5,141.5 427.5,141.5 427.5,141.5 427.5,141.5 427.5,142.5 428.5,142.5 428.5,143.5 428.5,143.5 428.5,143.5 
		428.5,144.5 428.5,145.5 428.5,145.5 428.5,146.5 428.5,146.5 429.5,147.5 429.5,147.5 429.5,148.5 429.5,148.5 429.5,149.5 
		429.5,149.5 429.5,149.5 429.5,149.5 429.5,150.5 430.5,151.5 430.5,151.5 430.5,152.5 430.5,152.5 430.5,153.5 430.5,153.5 
		430.5,153.5 430.5,154.5 431.5,155.5 431.5,155.5 431.5,156.5 431.5,156.5 431.5,157.5 431.5,157.5 431.5,158.5 431.5,158.5 
		431.5,159.5 432.5,159.5 432.5,160.5 432.5,160.5 432.5,160.5 432.5,160.5 432.5,160.5 432.5,161.5 432.5,161.5 432.5,161.5 
		433.5,161.5 433.5,161.5 433.5,161.5 433.5,161.5 433.5,161.5 433.5,160.5 433.5,160.5 433.5,159.5 433.5,159.5 434.5,159.5 
		434.5,158.5 434.5,158.5 434.5,157.5 434.5,157.5 434.5,156.5 434.5,156.5 434.5,155.5 435.5,155.5 435.5,155.5 435.5,155.5 
		435.5,154.5 435.5,154.5 435.5,154.5 435.5,154.5 435.5,155.5 435.5,155.5 436.5,155.5 436.5,155.5 436.5,155.5 436.5,155.5 
		436.5,155.5 436.5,155.5 436.5,155.5 436.5,155.5 436.5,155.5 437.5,155.5 437.5,155.5 437.5,156.5 437.5,157.5 437.5,158.5 
		437.5,158.5 437.5,159.5 437.5,160.5 438.5,161.5 438.5,162.5 438.5,163.5 438.5,164.5 438.5,164.5 438.5,165.5 438.5,166.5 
		438.5,166.5 438.5,166.5 439.5,167.5 439.5,167.5 439.5,167.5 439.5,168.5 439.5,168.5 439.5,168.5 439.5,168.5 439.5,169.5 
		439.5,169.5 440.5,169.5 440.5,169.5 440.5,169.5 440.5,170.5 440.5,169.5 440.5,169.5 440.5,171.5 440.5,171.5 441.5,171.5 
		441.5,171.5 441.5,171.5 441.5,171.5 441.5,171.5 441.5,172.5 441.5,172.5 441.5,172.5 441.5,172.5 442.5,172.5 442.5,172.5 
		442.5,172.5 442.5,172.5 442.5,172.5 442.5,172.5 442.5,172.5 442.5,173.5 442.5,173.5 443.5,173.5 443.5,173.5 443.5,173.5 
		443.5,173.5 443.5,173.5 443.5,173.5 443.5,174.5 443.5,174.5 444.5,174.5 444.5,173.5 444.5,173.5 444.5,174.5 444.5,174.5 
		444.5,174.5 444.5,174.5 444.5,174.5 444.5,175.5 445.5,175.5 445.5,175.5 445.5,175.5 445.5,175.5 445.5,175.5 445.5,176.5 
		445.5,176.5 445.5,176.5 445.5,176.5 446.5,176.5 446.5,175.5 446.5,176.5 446.5,176.5 446.5,176.5 446.5,176.5 446.5,176.5 
		446.5,176.5 447.5,176.5 447.5,176.5 447.5,176.5 447.5,176.5 447.5,176.5 447.5,176.5 447.5,176.5 447.5,176.5 447.5,176.5 
		448.5,175.5 448.5,175.5 448.5,175.5 448.5,175.5 448.5,175.5 448.5,175.5 448.5,175.5 448.5,175.5 448.5,175.5 449.5,174.5 
		449.5,174.5 449.5,174.5 449.5,174.5 449.5,173.5 449.5,173.5 449.5,172.5 449.5,172.5 450.5,172.5 450.5,171.5 450.5,171.5 
		450.5,170.5 450.5,170.5 450.5,169.5 450.5,168.5 450.5,168.5 450.5,168.5 451.5,167.5 451.5,167.5 451.5,166.5 451.5,166.5 
		451.5,165.5 451.5,164.5 451.5,164.5 451.5,163.5 451.5,162.5 452.5,162.5 452.5,161.5 452.5,161.5 452.5,160.5 452.5,160.5 
		452.5,159.5 452.5,158.5 452.5,157.5 452.5,157.5 453.5,156.5 453.5,155.5 453.5,154.5 453.5,153.5 453.5,152.5 453.5,152.5 
		453.5,151.5 453.5,151.5 454.5,150.5 454.5,150.5 454.5,149.5 454.5,149.5 454.5,148.5 454.5,147.5 454.5,147.5 454.5,146.5 
		454.5,145.5 455.5,145.5 455.5,144.5 455.5,143.5 455.5,143.5 455.5,142.5 455.5,141.5 455.5,141.5 455.5,141.5 455.5,140.5 
		456.5,140.5 456.5,140.5 456.5,139.5 456.5,139.5 456.5,139.5 456.5,138.5 456.5,138.5 456.5,138.5 457.5,138.5 457.5,138.5 
		457.5,138.5 457.5,137.5 457.5,137.5 457.5,137.5 457.5,137.5 457.5,137.5 457.5,137.5 458.5,136.5 458.5,136.5 458.5,136.5 
		458.5,136.5 458.5,136.5 458.5,136.5 458.5,136.5 458.5,136.5 458.5,136.5 459.5,136.5 459.5,136.5 459.5,137.5 459.5,137.5 
		459.5,138.5 459.5,138.5 459.5,138.5 459.5,139.5 460.5,139.5 460.5,140.5 460.5,140.5 460.5,141.5 460.5,141.5 460.5,142.5 
		460.5,142.5 460.5,142.5 460.5,143.5 461.5,143.5 461.5,143.5 461.5,144.5 461.5,144.5 461.5,144.5 461.5,144.5 461.5,145.5 
		461.5,145.5 461.5,145.5 462.5,146.5 462.5,146.5 462.5,146.5 462.5,147.5 462.5,147.5 462.5,147.5 462.5,147.5 462.5,148.5 
		463.5,148.5 463.5,148.5 463.5,149.5 463.5,149.5 463.5,149.5 463.5,149.5 463.5,149.5 463.5,149.5 463.5,150.5 464.5,150.5 
		464.5,151.5 464.5,151.5 464.5,152.5 464.5,153.5 464.5,153.5 464.5,154.5 464.5,155.5 464.5,155.5 465.5,156.5 465.5,157.5 
		465.5,158.5 465.5,158.5 465.5,158.5 465.5,158.5 465.5,158.5 465.5,158.5 466.5,158.5 466.5,158.5 466.5,159.5 466.5,159.5 
		466.5,159.5 466.5,159.5 466.5,160.5 466.5,160.5 466.5,160.5 467.5,161.5 467.5,161.5 467.5,161.5 467.5,162.5 467.5,162.5 
		467.5,162.5 467.5,163.5 467.5,163.5 467.5,163.5 468.5,164.5 468.5,164.5 468.5,165.5 468.5,165.5 468.5,165.5 468.5,166.5 
		468.5,167.5 468.5,167.5 469.5,168.5 469.5,168.5 469.5,169.5 469.5,169.5 469.5,169.5 469.5,169.5 469.5,170.5 469.5,170.5 
		469.5,170.5 470.5,170.5 470.5,170.5 470.5,170.5 470.5,170.5 470.5,170.5 470.5,169.5 470.5,168.5 470.5,167.5 470.5,166.5 
		471.5,165.5 471.5,164.5 471.5,163.5 471.5,162.5 471.5,162.5 471.5,162.5 471.5,161.5 471.5,161.5 471.5,161.5 472.5,161.5 
		472.5,161.5 472.5,161.5 472.5,161.5 472.5,162.5 472.5,162.5 472.5,162.5 472.5,162.5 473.5,162.5 473.5,163.5 473.5,163.5 
		473.5,163.5 473.5,163.5 473.5,163.5 473.5,163.5 473.5,163.5 473.5,163.5 474.5,163.5 474.5,162.5 474.5,162.5 474.5,162.5 
		474.5,162.5 474.5,161.5 474.5,160.5 474.5,160.5 474.5,160.5 475.5,161.5 475.5,162.5 475.5,163.5 475.5,163.5 475.5,165.5 
		475.5,166.5 475.5,168.5 475.5,169.5 476.5,170.5 476.5,170.5 476.5,170.5 476.5,171.5 476.5,171.5 476.5,171.5 476.5,171.5 
		476.5,171.5 476.5,171.5 477.5,171.5 477.5,171.5 477.5,171.5 477.5,171.5 477.5,171.5 477.5,171.5 477.5,171.5 477.5,171.5 
		477.5,171.5 478.5,171.5 478.5,171.5 478.5,171.5 478.5,170.5 478.5,170.5 478.5,170.5 478.5,170.5 478.5,170.5 479.5,170.5 
		479.5,169.5 479.5,169.5 479.5,169.5 479.5,169.5 479.5,169.5 479.5,169.5 479.5,169.5 479.5,169.5 480.5,169.5 480.5,169.5 
		480.5,169.5 480.5,169.5 480.5,169.5 480.5,169.5 480.5,169.5 480.5,169.5 480.5,169.5 481.5,169.5 481.5,168.5 481.5,168.5 
		481.5,168.5 481.5,168.5 481.5,168.5 481.5,168.5 481.5,168.5 482.5,168.5 482.5,168.5 482.5,168.5 482.5,169.5 482.5,169.5 
		482.5,169.5 482.5,169.5 482.5,169.5 482.5,169.5 483.5,169.5 483.5,169.5 483.5,169.5 483.5,169.5 483.5,168.5 483.5,168.5 
		483.5,167.5 483.5,167.5 483.5,167.5 484.5,166.5 484.5,166.5 484.5,166.5 484.5,166.5 484.5,165.5 484.5,165.5 484.5,165.5 
		484.5,165.5 485.5,164.5 485.5,164.5 485.5,164.5 485.5,164.5 485.5,163.5 485.5,163.5 485.5,163.5 485.5,163.5 485.5,163.5 
		486.5,163.5 486.5,163.5 486.5,163.5 486.5,163.5 486.5,163.5 486.5,163.5 486.5,164.5 486.5,164.5 486.5,165.5 487.5,165.5 
		487.5,164.5 487.5,164.5 487.5,164.5 487.5,163.5 487.5,163.5 487.5,163.5 487.5,163.5 488.5,163.5 488.5,163.5 488.5,163.5 
		488.5,163.5 488.5,163.5 488.5,163.5 488.5,163.5 488.5,163.5 488.5,163.5 489.5,163.5 489.5,163.5 489.5,163.5 489.5,163.5 
		489.5,163.5 489.5,163.5 489.5,163.5 489.5,163.5 489.5,163.5 490.5,163.5 490.5,163.5 490.5,163.5 490.5,163.5 490.5,163.5 
		490.5,163.5 490.5,164.5 490.5,164.5 490.5,164.5 491.5,164.5 491.5,164.5 491.5,164.5 491.5,164.5 491.5,164.5 491.5,164.5 
		491.5,164.5 491.5,163.5 492.5,163.5 492.5,163.5 492.5,163.5 492.5,163.5 492.5,163.5 492.5,163.5 492.5,163.5 492.5,163.5 
		492.5,163.5 493.5,163.5 493.5,163.5 493.5,162.5 493.5,162.5 493.5,162.5 493.5,162.5 493.5,162.5 493.5,162.5 493.5,162.5 
		494.5,162.5 494.5,161.5 494.5,161.5 494.5,161.5 494.5,161.5 494.5,161.5 494.5,161.5 494.5,161.5 495.5,161.5 495.5,161.5 
		495.5,160.5 495.5,160.5 495.5,160.5 495.5,160.5 495.5,160.5 495.5,160.5 495.5,160.5 496.5,160.5 496.5,159.5 496.5,159.5 
		496.5,159.5 496.5,159.5 496.5,159.5 496.5,159.5 496.5,160.5 496.5,160.5 497.5,160.5 497.5,160.5 497.5,160.5 497.5,160.5 
		497.5,161.5 497.5,161.5 497.5,161.5 497.5,161.5 498.5,161.5 498.5,161.5 498.5,161.5 498.5,161.5 498.5,162.5 498.5,162.5 
		498.5,162.5 498.5,162.5 498.5,162.5 499.5,162.5 499.5,162.5 499.5,162.5 499.5,162.5 499.5,162.5 499.5,162.5 499.5,162.5 
		499.5,162.5 499.5,162.5 500.5,162.5 500.5,162.5 500.5,162.5 500.5,163.5 500.5,163.5 500.5,163.5 500.5,163.5 500.5,163.5 
		501.5,163.5 501.5,163.5 501.5,163.5 501.5,162.5 501.5,162.5 501.5,162.5 501.5,162.5 501.5,162.5 501.5,162.5 502.5,161.5 
		502.5,161.5 502.5,161.5 502.5,161.5 502.5,161.5 502.5,161.5 502.5,161.5 502.5,160.5 502.5,160.5 503.5,160.5 503.5,159.5 
		503.5,159.5 503.5,159.5 503.5,159.5 503.5,160.5 503.5,160.5 503.5,160.5 504.5,160.5 504.5,160.5 504.5,160.5 504.5,160.5 
		504.5,160.5 504.5,160.5 504.5,160.5 504.5,160.5 504.5,160.5 505.5,160.5 505.5,160.5 505.5,160.5 505.5,160.5 505.5,160.5 
		505.5,161.5 505.5,161.5 505.5,161.5 505.5,161.5 506.5,161.5 506.5,161.5 506.5,161.5 506.5,161.5 506.5,161.5 506.5,161.5 
		506.5,161.5 506.5,161.5 507.5,161.5 507.5,161.5 507.5,161.5 507.5,161.5 507.5,161.5 507.5,161.5 507.5,161.5 507.5,161.5 
		507.5,161.5 508.5,161.5 508.5,161.5 508.5,161.5 508.5,161.5 508.5,161.5 508.5,161.5 508.5,161.5 508.5,161.5 508.5,161.5 
		509.5,160.5 509.5,160.5 509.5,160.5 509.5,160.5 509.5,160.5 509.5,160.5 509.5,160.5 509.5,160.5 509.5,160.5 510.5,160.5 
		510.5,160.5 510.5,160.5 510.5,160.5 510.5,160.5 510.5,161.5 510.5,161.5 510.5,161.5 511.5,161.5 511.5,160.5 511.5,160.5 
		511.5,160.5 511.5,160.5 511.5,161.5 511.5,161.5 511.5,161.5 511.5,161.5 512.5,161.5 512.5,161.5 512.5,161.5 512.5,161.5 
		512.5,161.5 512.5,161.5 512.5,161.5 512.5,161.5 512.5,161.5 513.5,161.5 513.5,161.5 513.5,161.5 513.5,160.5 513.5,160.5 
		513.5,160.5 513.5,160.5 513.5,160.5 514.5,160.5 514.5,160.5 514.5,160.5 514.5,160.5 514.5,160.5 514.5,160.5 514.5,160.5 
		514.5,159.5 514.5,159.5 515.5,159.5 515.5,159.5 515.5,159.5 515.5,159.5 515.5,159.5 515.5,158.5 515.5,158.5 515.5,158.5 
		515.5,158.5 516.5,158.5 516.5,158.5 516.5,158.5 516.5,157.5 516.5,157.5 516.5,157.5 516.5,157.5 516.5,157.5 517.5,157.5 
		517.5,157.5 517.5,157.5 517.5,157.5 517.5,157.5 517.5,157.5 517.5,157.5 517.5,157.5 517.5,157.5 518.5,157.5 518.5,157.5 
		518.5,156.5 518.5,156.5 518.5,156.5 518.5,156.5 518.5,156.5 518.5,156.5 518.5,156.5 519.5,156.5 519.5,155.5 519.5,155.5 
		519.5,155.5 519.5,155.5 519.5,155.5 519.5,155.5 519.5,154.5 520.5,154.5 520.5,154.5 520.5,154.5 520.5,154.5 520.5,154.5 
		520.5,153.5 520.5,153.5 520.5,153.5 520.5,153.5 521.5,153.5 521.5,153.5 521.5,153.5 521.5,153.5 521.5,153.5 521.5,154.5 
		521.5,154.5 521.5,154.5 521.5,154.5 522.5,155.5 522.5,155.5 522.5,155.5 522.5,155.5 522.5,156.5 522.5,156.5 522.5,156.5 
		522.5,156.5 523.5,156.5 523.5,157.5 523.5,157.5 523.5,157.5 523.5,157.5 523.5,157.5 523.5,157.5 523.5,158.5 523.5,158.5 
		524.5,158.5 524.5,158.5 524.5,158.5 524.5,158.5 524.5,159.5 524.5,159.5 524.5,159.5 524.5,159.5 524.5,159.5 525.5,159.5 
		525.5,159.5 525.5,159.5 525.5,159.5 525.5,159.5 525.5,159.5 525.5,159.5 525.5,159.5 526.5,159.5 526.5,160.5 526.5,160.5 
		526.5,160.5 526.5,160.5 526.5,160.5 526.5,160.5 526.5,160.5 526.5,160.5 527.5,160.5 527.5,160.5 527.5,160.5 527.5,160.5 
		527.5,160.5 527.5,160.5 527.5,160.5 527.5,160.5 527.5,160.5 528.5,160.5 528.5,160.5 528.5,160.5 528.5,160.5 528.5,160.5 
		528.5,160.5 528.5,160.5 528.5,160.5 528.5,160.5 529.5,160.5 529.5,160.5 529.5,160.5 529.5,160.5 529.5,160.5 529.5,160.5 
		529.5,160.5 529.5,160.5 530.5,159.5 530.5,159.5 530.5,159.5 530.5,159.5 530.5,159.5 530.5,159.5 530.5,159.5 530.5,159.5 
		530.5,159.5 531.5,159.5 531.5,159.5 531.5,159.5 531.5,159.5 531.5,159.5 531.5,159.5 531.5,159.5 531.5,159.5 531.5,159.5 
		532.5,159.5 532.5,159.5 532.5,159.5 532.5,159.5 532.5,159.5 532.5,159.5 532.5,159.5 532.5,159.5 533.5,159.5 533.5,159.5 
		533.5,159.5 533.5,159.5 533.5,158.5 533.5,158.5 533.5,158.5 533.5,158.5 533.5,157.5 534.5,157.5 534.5,157.5 534.5,157.5 
		534.5,156.5 534.5,156.5 534.5,156.5 534.5,155.5 534.5,155.5 534.5,154.5 535.5,154.5 535.5,154.5 535.5,154.5 535.5,153.5 
		535.5,153.5 535.5,153.5 535.5,152.5 535.5,152.5 536.5,152.5 536.5,152.5 536.5,151.5 536.5,151.5 536.5,151.5 536.5,151.5 
		536.5,151.5 536.5,151.5 536.5,151.5 537.5,151.5 537.5,151.5 537.5,151.5 537.5,151.5 537.5,151.5 537.5,151.5 537.5,151.5 
		537.5,152.5 537.5,152.5 538.5,152.5 538.5,152.5 538.5,152.5 538.5,152.5 538.5,152.5 538.5,152.5 538.5,152.5 538.5,153.5 
		539.5,153.5 539.5,153.5 539.5,153.5 539.5,153.5 539.5,154.5 539.5,154.5 539.5,154.5 539.5,154.5 539.5,154.5 540.5,155.5 
		540.5,155.5 540.5,155.5 540.5,155.5 540.5,155.5 540.5,155.5 540.5,155.5 540.5,155.5 540.5,155.5 541.5,155.5 541.5,156.5 
		541.5,156.5 541.5,156.5 541.5,156.5 541.5,157.5 541.5,157.5 541.5,157.5 542.5,158.5 542.5,159.5 542.5,159.5 542.5,160.5 
		542.5,160.5 542.5,160.5 542.5,160.5 542.5,160.5 542.5,160.5 543.5,159.5 543.5,159.5 543.5,159.5 543.5,159.5 543.5,159.5 
		543.5,159.5 543.5,159.5 543.5,159.5 543.5,159.5 544.5,159.5 544.5,159.5 544.5,159.5 544.5,158.5 544.5,158.5 544.5,158.5 
		544.5,158.5 544.5,158.5 545.5,158.5 545.5,158.5 545.5,158.5 545.5,158.5 545.5,158.5 545.5,158.5 545.5,157.5 545.5,156.5 
		545.5,156.5 546.5,155.5 546.5,155.5 546.5,154.5 546.5,154.5 546.5,153.5 546.5,152.5 546.5,152.5 546.5,151.5 546.5,151.5 
		547.5,150.5 547.5,150.5 547.5,150.5 547.5,150.5 547.5,149.5 547.5,149.5 547.5,150.5 547.5,150.5 547.5,150.5 548.5,150.5 
		548.5,150.5 548.5,150.5 548.5,150.5 548.5,150.5 548.5,150.5 548.5,150.5 548.5,150.5 549.5,150.5 549.5,150.5 549.5,150.5 
		549.5,151.5 549.5,152.5 549.5,153.5 549.5,154.5 549.5,154.5 549.5,155.5 550.5,155.5 550.5,156.5 550.5,156.5 550.5,157.5 
		550.5,157.5 550.5,157.5 550.5,157.5 550.5,157.5 550.5,157.5 551.5,157.5 551.5,157.5 551.5,157.5 551.5,156.5 551.5,156.5 
		551.5,156.5 551.5,156.5 551.5,156.5 552.5,155.5 552.5,155.5 552.5,155.5 552.5,155.5 552.5,155.5 552.5,155.5 552.5,155.5 
		552.5,155.5 552.5,155.5 553.5,155.5 553.5,155.5 553.5,155.5 553.5,155.5 553.5,155.5 553.5,155.5 553.5,155.5 553.5,155.5 
		553.5,155.5 554.5,155.5 554.5,155.5 554.5,155.5 554.5,155.5 554.5,155.5 554.5,156.5 554.5,156.5 554.5,156.5 555.5,156.5 
		555.5,156.5 555.5,156.5 555.5,156.5 555.5,156.5 555.5,156.5 555.5,156.5 555.5,156.5 555.5,156.5 556.5,156.5 556.5,156.5 
		556.5,156.5 556.5,156.5 556.5,156.5 556.5,156.5 556.5,156.5 556.5,156.5 556.5,156.5 557.5,156.5 557.5,156.5 557.5,156.5 
		557.5,156.5 557.5,156.5 557.5,156.5 557.5,156.5 557.5,156.5 558.5,156.5 558.5,156.5 558.5,156.5 558.5,156.5 558.5,156.5 
		558.5,156.5 558.5,156.5 558.5,156.5 558.5,156.5 559.5,156.5 559.5,156.5 559.5,156.5 559.5,156.5 559.5,157.5 559.5,157.5 
		559.5,157.5 559.5,157.5 559.5,157.5 560.5,157.5 560.5,157.5 560.5,157.5 560.5,157.5 560.5,157.5 560.5,157.5 560.5,157.5 
		560.5,157.5 561.5,157.5 561.5,157.5 561.5,157.5 561.5,157.5 561.5,157.5 561.5,156.5 561.5,156.5 561.5,156.5 561.5,156.5 
		562.5,156.5 562.5,156.5 562.5,156.5 562.5,156.5 562.5,157.5 562.5,157.5 562.5,157.5 562.5,157.5 562.5,157.5 563.5,157.5 
		563.5,157.5 563.5,157.5 563.5,157.5 563.5,157.5 563.5,157.5 563.5,157.5 563.5,157.5 564.5,157.5 564.5,157.5 564.5,157.5 
		564.5,157.5 564.5,157.5 564.5,157.5 564.5,156.5 564.5,156.5 564.5,156.5 565.5,156.5 565.5,156.5 565.5,156.5 565.5,156.5 
		565.5,156.5 565.5,156.5 565.5,156.5 565.5,156.5 565.5,156.5 566.5,156.5 566.5,156.5 566.5,156.5 566.5,156.5 566.5,156.5 
		566.5,156.5 566.5,156.5 566.5,156.5 566.5,156.5 567.5,156.5 567.5,156.5 567.5,156.5 567.5,156.5 567.5,156.5 567.5,156.5 
		567.5,156.5 567.5,156.5 568.5,156.5 568.5,156.5 568.5,156.5 568.5,156.5 568.5,156.5 568.5,156.5 568.5,156.5 568.5,156.5 
		568.5,156.5 569.5,156.5 569.5,156.5 569.5,156.5 569.5,156.5 569.5,156.5 569.5,156.5 569.5,156.5 569.5,156.5 569.5,156.5 
		570.5,156.5 570.5,156.5 570.5,156.5 570.5,156.5 570.5,156.5 570.5,156.5 570.5,156.5 570.5,156.5 571.5,156.5 571.5,156.5 
		571.5,157.5 571.5,157.5 571.5,157.5 571.5,157.5 571.5,157.5 571.5,157.5 571.5,157.5 572.5,157.5 572.5,157.5 572.5,157.5 
		572.5,157.5 572.5,157.5 572.5,157.5 572.5,157.5 572.5,156.5 572.5,156.5 573.5,156.5 573.5,156.5 573.5,156.5 573.5,156.5 
		573.5,156.5 573.5,156.5 573.5,156.5 573.5,156.5 574.5,156.5 574.5,156.5 574.5,155.5 574.5,155.5 574.5,155.5 574.5,155.5 
		574.5,155.5 574.5,155.5 574.5,155.5 575.5,155.5 575.5,155.5 575.5,155.5 575.5,155.5 575.5,155.5 575.5,155.5 575.5,155.5 
		575.5,155.5 575.5,155.5 576.5,155.5 576.5,155.5 576.5,155.5 576.5,155.5 576.5,155.5 576.5,155.5 576.5,155.5 576.5,155.5 
		577.5,155.5 577.5,155.5 577.5,155.5 577.5,155.5 577.5,154.5 577.5,154.5 577.5,154.5 577.5,154.5 577.5,154.5 578.5,154.5 
		578.5,154.5 578.5,154.5 578.5,154.5 578.5,154.5 578.5,154.5 578.5,154.5 578.5,154.5 578.5,154.5 579.5,154.5 579.5,154.5 
		579.5,154.5 579.5,154.5 579.5,154.5 579.5,154.5 579.5,154.5 579.5,154.5 580.5,154.5 580.5,154.5 580.5,154.5 580.5,154.5 
		580.5,154.5 580.5,154.5 580.5,154.5 580.5,154.5 580.5,154.5 581.5,154.5 581.5,154.5 581.5,154.5 581.5,153.5 581.5,154.5 
		581.5,154.5 581.5,154.5 581.5,154.5 581.5,154.5 582.5,154.5 582.5,154.5 582.5,154.5 582.5,154.5 582.5,154.5 582.5,154.5 
		582.5,154.5 582.5,154.5 583.5,154.5 583.5,154.5 583.5,154.5 583.5,154.5 583.5,154.5 583.5,154.5 583.5,154.5 583.5,154.5 
		583.5,155.5 584.5,155.5 584.5,155.5 584.5,155.5 584.5,155.5 584.5,155.5 584.5,155.5 584.5,155.5 584.5,155.5 584.5,155.5 
		585.5,155.5 585.5,155.5 585.5,155.5 585.5,155.5 585.5,155.5 585.5,155.5 585.5,155.5 585.5,155.5 585.5,155.5 586.5,155.5 
		586.5,155.5 586.5,155.5 586.5,155.5 586.5,155.5 586.5,155.5 586.5,155.5 586.5,155.5 587.5,155.5 587.5,155.5 587.5,155.5 
		587.5,155.5 587.5,155.5 587.5,155.5 587.5,155.5 587.5,155.5 587.5,155.5 588.5,155.5 588.5,154.5 588.5,154.5 588.5,154.5 
		588.5,154.5 588.5,154.5 588.5,154.5 588.5,154.5 588.5,154.5 589.5,154.5 589.5,155.5 589.5,155.5 589.5,155.5 589.5,155.5 
		589.5,155.5 589.5,155.5 589.5,155.5 590.5,155.5 590.5,155.5 590.5,155.5 590.5,155.5 590.5,155.5 590.5,155.5 590.5,155.5 
		590.5,155.5 590.5,155.5 591.5,155.5 591.5,155.5 591.5,155.5 591.5,155.5 591.5,155.5 591.5,155.5 591.5,156.5 591.5,156.5 
		591.5,156.5 592.5,156.5 592.5,156.5 592.5,156.5 592.5,156.5 592.5,156.5 592.5,156.5 592.5,155.5 592.5,155.5 593.5,155.5 
		593.5,155.5 593.5,155.5 593.5,155.5 593.5,155.5 593.5,155.5 593.5,154.5 593.5,154.5 593.5,154.5 594.5,154.5 594.5,154.5 
		594.5,154.5 594.5,155.5 594.5,155.5 594.5,155.5 594.5,156.5 594.5,156.5 594.5,156.5 595.5,156.5 595.5,156.5 595.5,156.5 
		595.5,156.5 595.5,156.5 595.5,156.5 595.5,156.5 595.5,156.5 596.5,156.5 596.5,156.5 596.5,156.5 596.5,156.5 596.5,156.5 
		596.5,156.5 596.5,156.5 596.5,156.5 596.5,156.5 597.5,156.5 597.5,155.5 597.5,155.5 597.5,155.5 597.5,155.5 597.5,155.5 
		597.5,155.5 597.5,155.5 597.5,155.5 598.5,155.5 598.5,155.5 598.5,155.5 598.5,155.5 598.5,155.5 598.5,155.5 598.5,155.5 
		598.5,155.5 599.5,155.5 599.5,154.5 599.5,154.5 599.5,154.5 599.5,154.5 599.5,154.5 599.5,154.5 599.5,154.5 599.5,154.5 
		600.5,154.5 600.5,154.5 600.5,154.5 600.5,154.5 600.5,154.5 600.5,154.5 600.5,154.5 600.5,154.5 600.5,154.5 601.5,154.5 
		601.5,154.5 601.5,154.5 601.5,154.5 601.5,154.5 601.5,154.5 601.5,154.5 601.5,154.5 602.5,154.5 602.5,154.5 602.5,154.5 
		602.5,154.5 602.5,154.5 602.5,154.5 602.5,154.5 602.5,153.5 602.5,153.5 603.5,153.5 603.5,153.5 603.5,153.5 603.5,153.5 
		603.5,153.5 603.5,153.5 603.5,153.5 603.5,153.5 603.5,153.5 604.5,153.5 604.5,153.5 604.5,153.5 604.5,153.5 604.5,153.5 
		604.5,153.5 604.5,153.5 604.5,153.5 604.5,153.5 605.5,153.5 605.5,153.5 605.5,153.5 605.5,153.5 605.5,153.5 605.5,153.5 
		605.5,153.5 605.5,153.5 606.5,153.5 606.5,153.5 606.5,153.5 606.5,153.5 606.5,152.5 606.5,152.5 606.5,152.5 606.5,152.5 
		606.5,152.5 607.5,152.5 607.5,152.5 607.5,152.5 607.5,152.5 607.5,152.5 607.5,152.5 607.5,152.5 607.5,152.5 607.5,152.5 
		608.5,152.5 608.5,152.5 608.5,152.5 608.5,152.5 608.5,152.5 608.5,152.5 608.5,152.5 608.5,152.5 609.5,152.5 609.5,152.5 
		609.5,152.5 609.5,152.5 609.5,152.5 609.5,152.5 609.5,151.5 609.5,151.5 609.5,151.5 610.5,151.5 610.5,151.5 610.5,151.5 
		610.5,150.5 610.5,150.5 610.5,150.5 610.5,150.5 610.5,151.5 610.5,151.5 611.5,151.5 611.5,151.5 611.5,151.5 611.5,151.5 
		611.5,151.5 611.5,151.5 611.5,151.5 611.5,151.5 612.5,151.5 612.5,151.5 612.5,151.5 612.5,151.5 612.5,151.5 612.5,151.5 
		612.5,151.5 612.5,151.5 612.5,151.5 613.5,151.5 613.5,151.5 613.5,151.5 613.5,151.5 613.5,151.5 613.5,151.5 613.5,151.5 
		613.5,151.5 613.5,151.5 614.5,151.5 614.5,151.5 614.5,151.5 614.5,151.5 614.5,151.5 614.5,151.5 614.5,151.5 614.5,151.5 
		615.5,151.5 615.5,151.5 615.5,151.5 615.5,151.5 615.5,151.5 615.5,151.5 615.5,151.5 615.5,151.5 615.5,151.5 616.5,151.5 
		616.5,151.5 616.5,151.5 616.5,151.5 616.5,151.5 616.5,151.5 616.5,151.5 616.5,151.5 616.5,151.5 617.5,151.5 617.5,151.5 
		617.5,151.5 617.5,151.5 617.5,151.5 617.5,151.5 617.5,151.5 617.5,151.5 618.5,151.5 618.5,151.5 618.5,151.5 618.5,151.5 
		618.5,151.5 618.5,151.5 618.5,151.5 618.5,151.5 618.5,151.5 619.5,151.5 619.5,151.5 619.5,151.5 619.5,151.5 619.5,151.5 
		619.5,151.5 619.5,151.5 619.5,151.5 619.5,151.5 620.5,151.5 620.5,151.5 620.5,151.5 620.5,151.5 620.5,151.5 620.5,151.5 
		620.5,151.5 620.5,151.5 621.5,151.5 621.5,151.5 621.5,151.5 621.5,151.5 621.5,151.5 621.5,151.5 621.5,151.5 621.5,150.5 
		621.5,150.5 622.5,150.5 622.5,150.5 622.5,150.5 622.5,150.5 622.5,150.5 622.5,150.5 622.5,150.5 622.5,149.5 622.5,149.5 
		623.5,149.5 623.5,149.5 623.5,149.5 623.5,149.5 623.5,149.5 623.5,149.5 623.5,149.5 623.5,149.5 623.5,149.5 624.5,148.5 
		624.5,148.5 624.5,148.5 624.5,148.5 624.5,148.5 624.5,148.5 624.5,148.5 624.5,148.5 625.5,148.5 625.5,148.5 625.5,148.5 
		625.5,148.5 625.5,148.5 625.5,148.5 625.5,147.5 625.5,147.5 625.5,147.5 626.5,147.5 626.5,147.5 626.5,147.5 626.5,147.5 
		626.5,147.5 626.5,147.5 626.5,147.5 626.5,147.5 626.5,147.5 627.5,147.5 627.5,147.5 627.5,147.5 627.5,147.5 627.5,147.5 
		627.5,147.5 627.5,147.5 627.5,147.5 628.5,147.5 628.5,147.5 628.5,147.5 628.5,147.5 628.5,147.5 628.5,147.5 628.5,147.5 
		628.5,147.5 628.5,147.5 629.5,147.5 629.5,147.5 629.5,147.5 629.5,147.5 629.5,146.5 629.5,146.5 629.5,146.5 629.5,146.5 
		629.5,146.5 630.5,146.5 630.5,146.5 630.5,146.5 630.5,146.5 630.5,146.5 630.5,146.5 630.5,146.5 630.5,146.5 631.5,146.5 
		631.5,146.5 631.5,146.5 631.5,146.5 631.5,146.5 631.5,146.5 631.5,146.5 631.5,146.5 631.5,146.5 632.5,146.5 632.5,146.5 
		632.5,146.5 632.5,146.5 632.5,146.5 632.5,146.5 632.5,146.5 632.5,145.5 632.5,145.5 633.5,145.5 633.5,145.5 633.5,145.5 
		633.5,145.5 633.5,145.5 633.5,145.5 633.5,145.5 633.5,145.5 634.5,145.5 634.5,145.5 634.5,145.5 634.5,145.5 634.5,145.5 
		634.5,145.5 634.5,145.5 634.5,145.5 634.5,145.5 635.5,145.5 635.5,145.5 635.5,145.5 635.5,145.5 635.5,145.5 635.5,145.5 
		635.5,145.5 635.5,145.5 635.5,145.5 636.5,145.5 636.5,144.5 636.5,144.5 636.5,144.5 636.5,144.5 636.5,144.5 636.5,144.5 
		636.5,144.5 637.5,144.5 637.5,144.5 637.5,144.5 637.5,144.5 637.5,144.5 637.5,144.5 637.5,144.5 637.5,144.5 637.5,144.5 
		638.5,143.5 638.5,143.5 638.5,143.5 638.5,143.5 638.5,142.5 638.5,142.5 638.5,142.5 638.5,142.5 638.5,142.5 639.5,142.5 
		639.5,142.5 639.5,142.5 639.5,142.5 639.5,142.5 639.5,142.5 639.5,142.5 639.5,142.5 640.5,142.5 640.5,142.5 640.5,143.5 
		640.5,143.5 640.5,143.5 640.5,143.5 640.5,143.5 640.5,143.5 640.5,143.5 641.5,143.5 641.5,143.5 641.5,143.5 641.5,143.5 
		641.5,143.5 641.5,143.5 641.5,143.5 641.5,143.5 641.5,143.5 642.5,143.5 642.5,144.5 642.5,144.5 642.5,144.5 642.5,144.5 
		642.5,144.5 642.5,144.5 642.5,144.5 642.5,144.5 643.5,144.5 643.5,144.5 643.5,144.5 643.5,144.5 643.5,144.5 643.5,144.5 
		643.5,144.5 643.5,144.5 644.5,144.5 644.5,145.5 644.5,145.5 644.5,145.5 644.5,145.5 644.5,145.5 644.5,145.5 644.5,145.5 
		644.5,145.5 645.5,145.5 645.5,145.5 645.5,145.5 645.5,145.5 645.5,145.5 645.5,145.5 645.5,145.5 645.5,145.5 645.5,145.5 
		646.5,146.5 646.5,146.5 646.5,146.5 646.5,146.5 646.5,146.5 646.5,146.5 646.5,146.5 646.5,146.5 647.5,146.5 647.5,146.5 
		647.5,146.5 647.5,146.5 647.5,146.5 647.5,146.5 647.5,146.5 647.5,146.5 647.5,146.5 648.5,147.5 648.5,147.5 648.5,147.5 
		648.5,147.5 648.5,147.5 648.5,147.5 648.5,147.5 648.5,147.5 648.5,147.5 649.5,147.5 649.5,147.5 649.5,147.5 649.5,147.5 
		649.5,147.5 649.5,147.5 649.5,147.5 649.5,147.5 650.5,147.5 650.5,148.5 650.5,148.5 650.5,148.5 650.5,148.5 650.5,148.5 
		650.5,148.5 650.5,148.5 650.5,148.5 651.5,148.5 651.5,148.5 651.5,148.5 651.5,148.5 651.5,148.5 651.5,148.5 651.5,148.5 
		651.5,148.5 651.5,148.5 652.5,149.5 652.5,149.5 652.5,149.5 652.5,149.5 652.5,149.5 652.5,149.5 652.5,149.5 652.5,149.5 
		653.5,149.5 653.5,149.5 653.5,149.5 653.5,149.5 653.5,149.5 653.5,149.5 653.5,149.5 653.5,149.5 653.5,149.5 654.5,150.5 
		654.5,150.5 654.5,150.5 654.5,150.5 654.5,150.5 654.5,150.5 654.5,150.5 654.5,150.5 654.5,150.5 655.5,150.5 655.5,150.5 
		655.5,150.5 655.5,150.5 655.5,150.5 655.5,150.5 655.5,150.5 655.5,150.5 656.5,150.5 656.5,150.5 656.5,150.5 656.5,150.5 
		656.5,150.5 656.5,150.5 656.5,150.5 656.5,150.5 656.5,150.5 657.5,150.5 657.5,150.5 657.5,150.5 657.5,150.5 657.5,150.5 
		657.5,150.5 657.5,150.5 657.5,150.5 657.5,150.5 658.5,150.5 658.5,150.5 658.5,150.5 658.5,150.5 658.5,150.5 658.5,150.5 
		658.5,150.5 658.5,150.5 659.5,150.5 659.5,150.5 659.5,150.5 659.5,150.5 659.5,150.5 659.5,150.5 659.5,150.5 659.5,151.5 
		659.5,151.5 660.5,151.5 660.5,151.5 660.5,151.5 660.5,151.5 660.5,151.5 660.5,151.5 660.5,151.5 660.5,151.5 660.5,151.5 
		661.5,151.5 661.5,151.5 661.5,151.5 661.5,151.5 661.5,151.5 661.5,151.5 661.5,151.5 661.5,151.5 661.5,151.5 662.5,151.5 
		662.5,151.5 662.5,151.5 662.5,151.5 662.5,151.5 662.5,151.5 662.5,151.5 662.5,151.5 663.5,151.5 663.5,151.5 663.5,151.5 
		663.5,151.5 663.5,151.5 663.5,151.5 663.5,151.5 663.5,151.5 663.5,151.5 664.5,151.5 664.5,151.5 664.5,151.5 664.5,151.5 
		664.5,151.5 664.5,151.5 664.5,151.5 664.5,151.5 664.5,151.5 665.5,151.5 665.5,151.5 665.5,151.5 665.5,151.5 665.5,150.5 
		665.5,150.5 665.5,150.5 665.5,150.5 666.5,150.5 666.5,150.5 666.5,150.5 666.5,150.5 666.5,150.5 666.5,150.5 666.5,150.5 
		666.5,150.5 666.5,150.5 667.5,150.5 667.5,150.5 667.5,150.5 667.5,150.5 667.5,150.5 667.5,150.5 667.5,150.5 667.5,150.5 
		667.5,150.5 668.5,150.5 668.5,150.5 668.5,150.5 668.5,150.5 668.5,150.5 668.5,150.5 668.5,150.5 668.5,150.5 669.5,150.5 
		669.5,150.5 669.5,150.5 669.5,150.5 669.5,150.5 669.5,150.5 669.5,150.5 669.5,150.5 669.5,150.5 670.5,150.5 670.5,150.5 
		670.5,150.5 670.5,150.5 670.5,150.5 670.5,150.5 670.5,150.5 670.5,150.5 670.5,150.5 671.5,150.5 671.5,150.5 671.5,150.5 
		671.5,150.5 671.5,150.5 671.5,150.5 671.5,150.5 671.5,150.5 672.5,150.5 672.5,150.5 672.5,150.5 672.5,150.5 672.5,150.5 
		672.5,150.5 	"/>
</g>
</svg>
