<?xml version="1.0" encoding="UTF-8" standalone="no"?><svg width="282.222mm" height="141.111mm" xmlns="http://www.w3.org/2000/svg" xmlns:xlink="http://www.w3.org/1999/xlink"  version="1.2" baseProfile="tiny"><g fill="none" stroke="#ff0000" stroke-linecap="round" stroke-linejoin="round" stroke-opacity="1" stroke-width="1.5" transform="matrix(1,0,0,1,0,0)">
<polyline fill="none" points="34,312 34,312 34,312 34,311 34,311 34,311 34,311 35,311 35,311 35,311 35,311 35,311 35,311 35,311 35,311 35,311 36,311 36,311 36,311 36,310 36,310 36,310 36,310 36,310 37,310 37,310 37,310 37,310 37,310 37,310 37,310 37,310 37,310 38,309 38,309 38,309 38,309 38,309 38,309 38,309 38,309 38,309 39,309 39,309 39,309 39,309 39,308 39,308 39,308 39,308 39,308 40,308 40,308 40,308 40,308 40,308 40,308 40,308 40,308 41,308 41,308 41,307 41,307 41,307 41,307 41,307 41,307 41,307 42,307 42,307 42,307 42,307 42,307 42,307 42,306 42,306 42,306 43,306 43,306 43,306 43,306 43,306 43,306 43,306 43,306 44,306 44,306 44,306 44,305 44,305 44,305 44,305 44,305 44,305 45,305 45,306 45,306 45,306 45,306 45,306 45,306 45,306 45,307 46,307 46,307 46,307 46,307 46,307 46,307 46,306 46,305 47,305 47,304 47,304 47,303 47,303 47,303 47,303 47,303 47,303 48,303 48,303 48,304 48,304 48,304 48,304 48,305 48,305 48,305 49,305 49,305 49,305 49,305 49,305 49,305 49,305 49,305 50,305 50,305 50,304 50,304 50,304 50,303 50,303 50,303 50,303 51,302 51,302 51,302 51,302 51,303 51,303 51,303 51,303 51,303 52,303 52,303 52,303 52,303 52,302 52,302 52,302 52,302 53,301 53,301 53,301 53,301 53,301 53,301 53,300 53,300 53,300 54,300 54,300 54,300 54,300 54,299 54,299 54,299 54,299 54,299 55,299 55,299 55,298 55,298 55,298 55,298 55,297 55,297 56,297 56,296 56,296 56,296 56,295 56,295 56,295 56,294 56,294 57,294 57,293 57,293 57,293 57,293 57,293 57,293 57,294 57,294 58,295 58,295 58,295 58,296 58,297 58,297 58,296 58,296 58,296 59,296 59,296 59,295 59,295 59,295 59,295 59,294 59,294 60,294 60,294 60,293 60,293 60,293 60,293 60,293 60,292 60,292 61,292 61,292 61,292 61,292 61,292 61,293 61,293 61,293 61,293 62,293 62,294 62,294 62,294 62,294 62,294 62,295 62,295 63,295 63,295 63,295 63,296 63,296 63,296 63,296 63,296 63,296 64,297 64,297 64,297 64,297 64,297 64,297 64,297 64,298 64,298 65,298 65,298 65,298 65,298 65,298 65,298 65,299 65,299 66,299 66,299 66,299 66,299 66,299 66,300 66,300 66,300 66,301 67,301 67,302 67,302 67,303 67,303 67,303 67,303 67,303 67,303 68,303 68,302 68,302 68,301 68,301 68,301 68,300 68,300 69,299 69,299 69,299 69,298 69,298 69,297 69,297 69,297 69,297 70,297 70,297 70,297 70,297 70,297 70,297 70,296 70,296 70,296 71,296 71,296 71,296 71,296 71,296 71,296 71,296 71,296 72,296 72,296 72,296 72,296 72,297 72,297 72,297 72,297 72,297 73,296 73,296 73,295 73,294 73,294 73,293 73,292 73,292 73,291 74,291 74,290 74,290 74,289 74,289 74,288 74,288 74,287 75,287 75,287 75,286 75,286 75,285 75,285 75,284 75,284 75,283 76,283 76,283 76,282 76,282 76,281 76,281 76,281 76,280 76,280 77,280 77,279 77,279 77,279 77,278 77,278 77,278 77,278 77,278 78,278 78,278 78,278 78,278 78,277 78,277 78,277 78,277 79,276 79,276 79,276 79,276 79,275 79,275 79,275 79,274 79,274 80,274 80,273 80,273 80,273 80,273 80,272 80,272 80,272 80,272 81,271 81,271 81,271 81,271 81,271 81,270 81,270 81,270 82,269 82,269 82,269 82,268 82,268 82,268 82,267 82,267 82,267 83,266 83,266 83,266 83,265 83,265 83,265 83,265 83,265 83,264 84,264 84,264 84,263 84,263 84,262 84,262 84,261 84,261 85,260 85,260 85,259 85,259 85,258 85,258 85,258 85,257 85,257 86,257 86,256 86,256 86,256 86,255 86,255 86,255 86,255 86,255 87,254 87,254 87,254 87,254 87,254 87,254 87,254 87,254 88,254 88,254 88,254 88,254 88,254 88,254 88,254 88,254 88,254 89,254 89,255 89,255 89,255 89,255 89,256 89,256 89,256 89,257 90,257 90,258 90,258 90,259 90,260 90,260 90,261 90,262 91,262 91,263 91,263 91,264 91,265 91,266 91,266 91,267 91,268 92,268 92,269 92,270 92,271 92,271 92,272 92,272 92,273 92,273 93,274 93,275 93,276 93,277 93,277 93,277 93,277 93,277 94,277 94,277 94,276 94,276 94,276 94,276 94,275 94,275 94,275 95,274 95,274 95,273 95,273 95,272 95,272 95,272 95,272 95,272 96,271 96,271 96,271 96,271 96,272 96,272 96,272 96,272 96,273 97,273 97,273 97,273 97,273 97,273 97,274 97,274 97,274 98,275 98,275 98,275 98,276 98,276 98,276 98,277 98,277 98,278 99,278 99,279 99,279 99,279 99,279 99,279 99,279 99,279 99,280 100,280 100,280 100,280 100,280 100,281 100,281 100,281 100,281 101,281 101,281 101,281 101,281 101,281 101,281 101,281 101,281 101,281 102,281 102,281 102,281 102,281 102,281 102,281 102,281 102,281 102,281 103,281 103,281 103,281 103,281 103,281 103,281 103,281 103,281 104,281 104,281 104,281 104,281 104,281 104,281 104,281 104,281 104,281 105,281 105,281 105,281 105,281 105,281 105,281 105,281 105,281 105,281 106,281 106,281 106,280 106,280 106,281 106,281 106,281 106,281 107,281 107,281 107,281 107,281 107,280 107,280 107,280 107,279 107,279 108,279 108,279 108,279 108,279 108,279 108,279 108,279 108,279 108,279 109,279 109,279 109,279 109,279 109,279 109,278 109,278 109,278 110,278 110,278 110,277 110,277 110,277 110,277 110,276 110,276 110,276 111,275 111,275 111,275 111,274 111,274 111,274 111,274 111,274 111,273 112,273 112,273 112,273 112,273 112,273 112,273 112,274 112,274 113,274 113,274 113,274 113,275 113,275 113,275 113,275 113,275 113,275 114,275 114,275 114,275 114,275 114,275 114,275 114,275 114,275 114,275 115,275 115,275 115,275 115,274 115,274 115,274 115,274 115,274 115,274 116,274 116,274 116,273 116,273 116,273 116,273 116,272 116,272 117,272 117,272 117,272 117,271 117,271 117,271 117,270 117,270 117,270 118,269 118,269 118,269 118,268 118,268 118,268 118,267 118,267 118,266 119,266 119,266 119,265 119,265 119,265 119,264 119,264 119,264 120,263 120,263 120,263 120,262 120,262 120,262 120,261 120,261 120,261 121,261 121,260 121,260 121,259 121,259 121,259 121,258 121,258 121,257 122,257 122,256 122,256 122,255 122,255 122,254 122,254 122,254 123,253 123,253 123,253 123,253 123,253 123,252 123,252 123,252 123,252 124,252 124,252 124,252 124,252 124,252 124,252 124,252 124,252 124,252 125,252 125,252 125,252 125,252 125,252 125,252 125,252 125,252 126,251 126,251 126,252 126,251 126,251 126,250 126,250 126,250 126,249 127,249 127,248 127,248 127,248 127,247 127,247 127,247 127,247 127,246 128,246 128,246 128,246 128,245 128,245 128,245 128,245 128,245 129,244 129,244 129,244 129,244 129,244 129,244 129,244 129,244 129,244 130,244 130,245 130,245 130,245 130,246 130,246 130,246 130,246 130,247 131,247 131,247 131,248 131,248 131,248 131,248 131,248 131,249 132,249 132,249 132,250 132,250 132,251 132,251 132,251 132,252 132,252 133,252 133,252 133,253 133,253 133,253 133,253 133,253 133,252 133,252 134,252 134,252 134,252 134,252 134,252 134,252 134,253 134,253 134,254 135,255 135,255 135,256 135,257 135,257 135,258 135,258 135,258 136,258 136,258 136,258 136,258 136,257 136,256 136,256 136,255 136,254 137,254 137,253 137,252 137,251 137,250 137,249 137,248 137,247 137,245 138,244 138,243 138,242 138,242 138,242 138,242 138,242 138,242 139,241 139,241 139,241 139,241 139,241 139,240 139,240 139,239 139,239 140,239 140,239 140,239 140,238 140,238 140,238 140,238 140,237 140,237 141,237 141,237 141,237 141,237 141,237 141,237 141,237 141,237 142,237 142,238 142,237 142,238 142,238 142,238 142,238 142,238 142,237 143,237 143,237 143,237 143,237 143,237 143,237 143,237 143,237 143,237 144,237 144,237 144,236 144,236 144,236 144,236 144,235 144,235 145,235 145,234 145,234 145,234 145,234 145,234 145,234 145,235 145,235 146,235 146,235 146,235 146,235 146,235 146,235 146,235 146,235 146,235 147,235 147,235 147,236 147,236 147,236 147,236 147,236 147,236 148,237 148,237 148,238 148,238 148,238 148,239 148,239 148,240 148,240 149,241 149,242 149,242 149,242 149,243 149,243 149,244 149,244 149,244 150,245 150,245 150,246 150,246 150,247 150,247 150,247 150,247 151,247 151,247 151,247 151,246 151,246 151,246 151,245 151,245 151,244 152,244 152,244 152,243 152,243 152,243 152,243 152,242 152,242 152,242 153,242 153,242 153,242 153,242 153,242 153,242 153,242 153,242 153,243 154,243 154,243 154,243 154,244 154,244 154,244 154,245 154,245 155,245 155,246 155,246 155,247 155,247 155,247 155,248 155,248 155,248 156,248 156,248 156,249 156,249 156,249 156,249 156,249 156,249 156,249 157,249 157,249 157,249 157,249 157,249 157,249 157,249 157,249 158,249 158,249 158,249 158,249 158,249 158,249 158,249 158,249 158,249 159,249 159,248 159,248 159,248 159,247 159,247 159,247 159,247 159,246 160,246 160,245 160,245 160,245 160,244 160,244 160,244 160,243 161,243 161,243 161,243 161,243 161,242 161,242 161,242 161,242 161,242 162,242 162,242 162,242 162,242 162,242 162,242 162,243 162,243 162,243 163,243 163,243 163,243 163,243 163,243 163,242 163,242 163,242 164,242 164,242 164,242 164,242 164,241 164,241 164,241 164,241 164,241 165,241 165,241 165,241 165,241 165,241 165,241 165,241 165,241 165,241 166,241 166,241 166,241 166,241 166,241 166,241 166,241 166,241 167,241 167,241 167,241 167,241 167,241 167,241 167,241 167,240 167,240 168,240 168,240 168,240 168,240 168,240 168,240 168,241 168,241 168,241 169,241 169,241 169,242 169,242 169,242 169,243 169,243 169,243 170,244 170,244 170,244 170,245 170,245 170,246 170,246 170,246 170,247 171,247 171,248 171,248 171,249 171,249 171,250 171,251 171,251 171,252 172,253 172,254 172,254 172,255 172,255 172,256 172,257 172,257 172,258 173,259 173,259 173,260 173,260 173,261 173,261 173,261 173,261 174,262 174,262 174,262 174,262 174,262 174,262 174,261 174,261 174,260 175,260 175,259 175,259 175,258 175,258 175,258 175,259 175,259 175,259 176,260 176,260 176,260 176,261 176,261 176,262 176,262 176,262 177,263 177,263 177,264 177,264 177,265 177,265 177,266 177,266 177,267 178,267 178,268 178,268 178,269 178,269 178,270 178,270 178,270 178,271 179,271 179,271 179,272 179,272 179,272 179,272 179,272 179,271 180,271 180,270 180,270 180,270 180,269 180,269 180,268 180,268 180,268 181,267 181,267 181,267 181,266 181,266 181,266 181,266 181,266 181,266 182,266 182,265 182,265 182,264 182,264 182,263 182,262 182,262 183,261 183,261 183,260 183,259 183,259 183,258 183,258 183,257 183,256 184,256 184,255 184,255 184,254 184,254 184,254 184,254 184,255 184,255 185,255 185,255 185,255 185,255 185,255 185,255 185,255 185,255 186,255 186,255 186,255 186,254 186,254 186,254 186,255 186,256 186,257 187,258 187,260 187,261 187,263 187,264 187,266 187,267 187,268 187,270 188,271 188,272 188,273 188,274 188,275 188,275 188,275 188,275 189,275 189,274 189,274 189,273 189,272 189,271 189,269 189,268 189,267 190,265 190,263 190,262 190,260 190,259 190,258 190,257 190,256 190,255 191,254 191,254 191,253 191,253 191,253 191,253 191,252 191,252 191,252 192,252 192,252 192,252 192,252 192,252 192,252 192,252 192,252 193,252 193,252 193,252 193,252 193,252 193,252 193,253 193,253 193,253 194,254 194,254 194,254 194,255 194,255 194,255 194,255 194,255 194,256 195,256 195,257 195,257 195,258 195,259 195,260 195,261 195,261 196,262 196,263 196,263 196,264 196,265 196,265 196,266 196,267 196,268 197,269 197,271 197,271 197,272 197,272 197,273 197,273 197,273 197,273 198,273 198,273 198,273 198,273 198,273 198,273 198,273 198,273 199,273 199,272 199,271 199,271 199,271 199,270 199,270 199,270 199,270 200,269 200,268 200,268 200,267 200,267 200,266 200,265 200,265 200,264 201,264 201,263 201,263 201,262 201,262 201,262 201,262 201,263 202,264 202,264 202,264 202,264 202,264 202,264 202,264 202,264 202,264 203,264 203,263 203,263 203,263 203,263 203,262 203,262 203,262 203,262 204,261 204,261 204,261 204,261 204,261 204,261 204,261 204,261 205,261 205,261 205,260 205,260 205,260 205,260 205,260 205,260 205,260 206,260 206,260 206,260 206,260 206,260 206,260 206,260 206,260 206,260 207,260 207,260 207,260 207,259 207,259 207,259 207,259 207,259 208,259 208,259 208,258 208,258 208,258 208,258 208,257 208,257 208,257 209,257 209,256 209,256 209,255 209,255 209,255 209,254 209,254 209,254 210,254 210,253 210,253 210,252 210,252 210,251 210,251 210,250 210,250 211,250 211,249 211,249 211,249 211,249 211,249 211,249 211,249 212,249 212,249 212,248 212,248 212,248 212,248 212,248 212,248 212,248 213,248 213,248 213,248 213,249 213,249 213,249 213,250 213,250 213,250 214,251 214,251 214,252 214,252 214,252 214,253 214,253 214,253 215,253 215,253 215,253 215,253 215,253 215,253 215,253 215,253 215,253 216,253 216,253 216,253 216,253 216,253 216,253 216,254 216,254 216,254 217,255 217,255 217,255 217,256 217,256 217,256 217,255 217,255 218,256 218,255 218,255 218,255 218,255 218,255 218,255 218,255 218,255 219,255 219,255 219,255 219,255 219,256 219,256 219,256 219,256 219,255 220,255 220,254 220,254 220,253 220,252 220,251 220,250 220,249 221,247 221,246 221,245 221,244 221,243 221,243 221,242 221,242 221,241 222,241 222,240 222,240 222,240 222,239 222,239 222,239 222,238 222,238 223,238 223,239 223,239 223,239 223,240 223,240 223,240 223,240 224,240 224,240 224,240 224,241 224,241 224,241 224,241 224,242 224,242 225,242 225,242 225,243 225,243 225,243 225,243 225,244 225,245 225,246 226,247 226,248 226,249 226,250 226,251 226,251 226,252 226,252 227,253 227,254 227,254 227,254 227,254 227,254 227,253 227,252 227,251 228,250 228,249 228,248 228,247 228,246 228,246 228,245 228,245 228,245 229,244 229,244 229,243 229,243 229,243 229,242 229,242 229,242 229,241 230,241 230,241 230,241 230,240 230,240 230,240 230,240 230,239 231,239 231,239 231,239 231,238 231,238 231,238 231,238 231,238 231,238 232,238 232,237 232,237 232,237 232,237 232,237 232,237 232,236 232,236 233,236 233,235 233,234 233,233 233,232 233,231 233,231 233,230 234,229 234,228 234,226 234,225 234,224 234,223 234,222 234,222 234,221 235,220 235,220 235,219 235,218 235,218 235,217 235,217 235,216 235,216 236,216 236,216 236,216 236,216 236,216 236,216 236,216 236,216 237,216 237,216 237,216 237,216 237,216 237,216 237,216 237,216 237,216 238,215 238,215 238,215 238,215 238,215 238,215 238,215 238,216 238,216 239,216 239,217 239,217 239,218 239,218 239,218 239,219 239,219 240,220 240,220 240,220 240,221 240,221 240,222 240,222 240,223 240,224 241,225 241,226 241,226 241,227 241,227 241,228 241,229 241,229 241,230 242,230 242,231 242,231 242,231 242,231 242,231 242,231 242,230 243,229 243,229 243,228 243,228 243,228 243,227 243,228 243,228 243,227 244,227 244,227 244,227 244,227 244,227 244,226 244,226 244,226 244,226 245,226 245,226 245,225 245,225 245,226 245,226 245,227 245,227 246,228 246,229 246,230 246,231 246,232 246,233 246,235 246,236 246,237 247,239 247,240 247,242 247,243 247,244 247,244 247,245 247,244 247,244 248,243 248,242 248,242 248,241 248,241 248,240 248,239 248,239 248,239 249,238 249,238 249,237 249,237 249,236 249,236 249,235 249,234 250,234 250,233 250,233 250,232 250,232 250,231 250,231 250,230 250,230 251,229 251,229 251,228 251,227 251,227 251,226 251,226 251,225 251,225 252,224 252,224 252,223 252,223 252,222 252,222 252,221 252,221 253,220 253,219 253,219 253,218 253,218 253,217 253,217 253,217 253,216 254,216 254,215 254,215 254,215 254,215 254,214 254,214 254,214 254,214 255,214 255,214 255,214 255,214 255,214 255,214 255,213 255,213 256,213 256,213 256,212 256,212 256,212 256,212 256,212 256,211 256,211 257,211 257,211 257,211 257,210 257,210 257,210 257,210 257,209 257,209 258,209 258,209 258,209 258,209 258,208 258,208 258,208 258,208 259,208 259,207 259,207 259,207 259,207 259,207 259,207 259,207 259,207 260,208 260,208 260,208 260,208 260,208 260,208 260,208 260,208 260,209 261,209 261,209 261,209 261,209 261,209 261,209 261,210 261,210 262,210 262,210 262,210 262,210 262,211 262,211 262,210 262,210 262,210 263,210 263,209 263,209 263,209 263,209 263,209 263,208 263,208 263,208 264,208 264,208 264,208 264,208 264,209 264,209 264,209 264,209 265,210 265,210 265,210 265,210 265,210 265,211 265,211 265,212 265,212 266,213 266,213 266,213 266,214 266,214 266,215 266,216 266,216 266,217 267,217 267,218 267,218 267,219 267,220 267,220 267,220 267,221 267,221 268,221 268,221 268,221 268,220 268,220 268,220 268,220 268,220 269,220 269,220 269,220 269,220 269,220 269,219 269,217 269,215 269,214 270,214 270,214 270,214 270,213 270,213 270,213 270,212 270,212 270,212 271,212 271,212 271,211 271,211 271,211 271,211 271,211 271,210 272,210 272,210 272,210 272,210 272,210 272,210 272,210 272,210 272,210 273,210 273,210 273,210 273,211 273,211 273,211 273,210 273,210 273,210 274,210 274,210 274,210 274,210 274,210 274,210 274,210 274,210 275,211 275,211 275,211 275,212 275,212 275,212 275,213 275,213 275,213 276,214 276,214 276,215 276,215 276,215 276,215 276,216 276,216 276,217 277,217 277,217 277,217 277,217 277,217 277,218 277,217 277,217 278,217 278,217 278,216 278,216 278,216 278,216 278,216 278,215 278,215 279,215 279,215 279,214 279,214 279,214 279,214 279,213 279,213 279,213 280,213 280,212 280,212 280,211 280,211 280,211 280,210 280,210 281,209 281,209 281,209 281,208 281,208 281,207 281,207 281,207 281,206 282,206 282,205 282,205 282,205 282,204 282,204 282,204 282,204 282,204 283,204 283,203 283,203 283,203 283,203 283,203 283,203 283,203 284,203 284,203 284,203 284,203 284,203 284,203 284,203 284,203 284,203 285,203 285,203 285,203 285,203 285,203 285,203 285,203 285,203 285,203 286,203 286,203 286,203 286,203 286,203 286,203 286,203 286,203 286,203 287,203 287,203 287,203 287,203 287,204 287,204 287,204 287,204 288,203 288,203 288,203 288,203 288,203 288,203 288,203 288,203 288,203 289,203 289,203 289,203 289,203 289,203 289,203 289,203 289,203 289,203 290,203 290,203 290,203 290,203 290,202 290,202 290,202 290,202 291,202 291,202 291,202 291,202 291,202 291,202 291,203 291,203 291,203 292,203 292,203 292,203 292,203 292,203 292,203 292,203 292,204 292,204 293,204 293,204 293,204 293,204 293,204 293,204 293,205 293,205 294,205 294,205 294,205 294,205 294,206 294,206 294,206 294,206 294,206 295,206 295,206 295,207 295,207 295,207 295,207 295,207 295,207 295,207 296,207 296,207 296,207 296,208 296,208 296,208 296,208 296,209 297,209 297,209 297,209 297,210 297,210 297,210 297,211 297,211 297,211 298,211 298,212 298,212 298,212 298,213 298,213 298,214 298,214 298,215 299,215 299,215 299,215 299,215 299,215 299,215 299,215 299,215 300,215 300,216 300,216 300,216 300,217 300,217 300,217 300,218 300,218 301,218 301,219 301,219 301,220 301,220 301,220 301,221 301,221 301,222 302,222 302,223 302,223 302,223 302,223 302,223 302,223 302,223 303,223 303,224 303,224 303,224 303,224 303,225 303,225 303,225 303,226 304,226 304,227 304,227 304,227 304,228 304,228 304,229 304,230 304,230 305,231 305,231 305,231 305,231 305,231 305,231 305,232 305,232 305,232 306,232 306,233 306,233 306,234 306,235 306,235 306,236 306,236 307,237 307,238 307,239 307,239 307,239 307,240 307,239 307,239 307,239 308,239 308,238 308,238 308,237 308,236 308,235 308,234 308,234 308,233 309,232 309,231 309,231 309,231 309,230 309,231 309,230 309,230 310,230 310,230 310,230 310,230 310,230 310,230 310,230 310,230 310,230 311,230 311,230 311,230 311,230 311,230 311,230 311,230 311,230 311,229 312,229 312,229 312,230 312,230 312,231 312,231 312,231 312,232 313,233 313,234 313,235 313,236 313,237 313,238 313,239 313,240 313,241 314,242 314,242 314,243 314,243 314,244 314,244 314,244 314,244 314,244 315,244 315,244 315,245 315,245 315,245 315,245 315,245 315,245 316,245 316,245 316,245 316,245 316,245 316,245 316,245 316,245 316,245 317,245 317,245 317,245 317,245 317,245 317,245 317,245 317,245 317,245 318,245 318,245 318,245 318,245 318,245 318,245 318,245 318,245 319,245 319,245 319,245 319,245 319,245 319,245 319,245 319,245 319,245 320,245 320,245 320,245 320,245 320,246 320,246 320,246 320,246 320,246 321,246 321,246 321,246 321,246 321,246 321,245 321,244 321,244 322,243 322,243 322,242 322,242 322,241 322,241 322,240 322,240 322,239 323,239 323,238 323,238 323,237 323,237 323,236 323,235 323,235 323,234 324,233 324,233 324,232 324,232 324,231 324,231 324,231 324,230 324,230 325,230 325,229 325,229 325,228 325,228 325,228 325,227 325,227 326,227 326,227 326,226 326,226 326,226 326,226 326,226 326,225 326,225 327,225 327,225 327,225 327,224 327,224 327,224 327,223 327,223 327,223 328,222 328,222 328,222 328,221 328,221 328,221 328,220 328,220 329,220 329,220 329,219 329,219 329,219 329,219 329,218 329,218 329,218 330,217 330,217 330,217 330,217 330,217 330,216 330,216 330,216 330,216 331,216 331,216 331,216 331,216 331,216 331,216 331,216 331,216 332,216 332,216 332,217 332,217 332,218 332,218 332,218 332,219 332,219 333,220 333,220 333,220 333,221 333,221 333,221 333,221 333,221 333,221 334,221 334,221 334,222 334,222 334,222 334,222 334,222 334,221 335,221 335,221 335,221 335,222 335,222 335,222 335,222 335,223 335,223 336,224 336,224 336,224 336,225 336,226 336,226 336,227 336,228 336,228 337,229 337,230 337,230 337,231 337,231 337,232 337,233 337,233 338,234 338,235 338,236 338,237 338,238 338,238 338,239 338,240 338,241 339,242 339,242 339,243 339,243 339,244 339,244 339,244 339,245 339,245 340,245 340,245 340,245 340,245 340,245 340,245 340,245 340,245 341,245 341,245 341,245 341,245 341,244 341,244 341,244 341,244 341,244 342,244 342,244 342,244 342,244 342,245 342,245 342,245 342,245 342,245 343,245 343,245 343,244 343,244 343,244 343,244 343,243 343,243 343,243 344,243 344,243 344,243 344,243 344,243 344,243 344,242 344,242 345,241 345,241 345,241 345,241 345,240 345,240 345,240 345,240 345,240 346,240 346,241 346,241 346,241 346,241 346,242 346,243 346,243 346,244 347,245 347,246 347,246 347,245 347,245 347,245 347,245 347,245 348,245 348,245 348,245 348,245 348,245 348,245 348,245 348,245 348,245 349,245 349,245 349,245 349,245 349,245 349,245 349,245 349,245 349,245 350,244 350,244 350,244 350,245 350,245 350,245 350,245 350,245 351,245 351,245 351,245 351,245 351,245 351,245 351,245 351,245 351,244 352,244 352,244 352,244 352,244 352,243 352,243 352,243 352,243 352,243 353,243 353,243 353,243 353,244 353,244 353,244 353,244 353,244 354,244 354,244 354,244 354,244 354,244 354,244 354,244 354,244 354,245 355,245 355,245 355,245 355,245 355,244 355,244 355,245 355,244 355,244 356,244 356,244 356,244 356,244 356,244 356,244 356,244 356,243 357,243 357,243 357,243 357,243 357,243 357,243 357,243 357,242 357,242 358,242 358,242 358,242 358,242 358,242 358,242 358,242 358,242 358,242 359,242 359,243 359,243 359,243 359,243 359,243 359,243 359,243 360,243 360,243 360,243 360,243 360,243 360,243 360,243 360,243 360,243 361,243 361,244 361,244 361,244 361,244 361,245 361,245 361,245 361,245 362,245 362,245 362,245 362,245 362,245 362,245 362,245 362,245 362,245 363,245 363,245 363,245 363,245 363,245 363,245 363,245 363,245 364,245 364,244 364,244 364,244 364,244 364,243 364,243 364,243 364,243 365,242 365,242 365,242 365,242 365,241 365,241 365,241 365,241 365,240 366,240 366,240 366,240 366,240 366,239 366,239 366,239 366,239 367,239 367,239 367,239 367,239 367,239 367,239 367,239 367,239 367,240 368,240 368,240 368,240 368,240 368,240 368,240 368,240 368,240 368,240 369,241 369,241 369,241 369,241 369,242 369,242 369,242 369,242 370,242 370,243 370,243 370,243 370,243 370,243 370,243 370,244 370,244 371,244 371,245 371,245 371,245 371,245 371,245 371,245 371,245 371,245 372,245 372,245 372,245 372,245 372,245 372,245 372,245 372,245 373,245 373,245 373,245 373,245 373,245 373,245 373,245 373,245 373,245 374,245 374,245 374,245 374,245 374,245 374,245 374,245 374,245 374,245 375,245 375,245 375,245 375,245 375,245 375,245 375,245 375,245 376,245 376,245 376,245 376,245 376,245 376,245 376,246 376,246 376,246 377,245 377,245 377,245 377,245 377,245 377,245 377,245 377,245 377,245 378,245 378,245 378,245 378,245 378,245 378,244 378,244 378,244 379,243 379,243 379,242 379,241 379,241 379,240 379,240 379,239 379,239 380,238 380,237 380,237 380,236 380,236 380,236 380,235 380,235 380,235 381,234 381,234 381,233 381,233 381,232 381,232 381,231 381,231 381,230 382,230 382,229 382,229 382,229 382,228 382,228 382,227 382,227 383,227 383,227 383,227 383,227 383,227 383,227 383,227 383,227 383,228 384,228 384,228 384,229 384,229 384,229 384,230 384,230 384,230 384,230 385,230 385,231 385,231 385,231 385,232 385,232 385,232 385,232 386,232 386,233 386,233 386,233 386,233 386,234 386,234 386,234 386,234 387,234 387,235 387,235 387,235 387,235 387,235 387,236 387,236 387,236 388,236 388,236 388,237 388,237 388,237 388,237 388,238 388,238 389,238 389,238 389,238 389,238 389,239 389,239 389,239 389,239 389,239 390,239 390,239 390,239 390,239 390,239 390,239 390,239 390,239 390,239 391,239 391,239 391,239 391,239 391,239 391,239 391,239 391,239 392,239 392,238 392,238 392,238 392,238 392,238 392,239 392,239 392,239 393,239 393,239 393,239 393,239 393,239 393,239 393,240 393,240 393,240 394,240 394,240 394,241 394,241 394,241 394,241 394,241 394,241 395,241 395,241 395,241 395,241 395,241 395,241 395,241 395,241 395,241 396,241 396,241 396,240 396,240 396,240 396,239 396,239 396,239 396,239 397,239 397,238 397,238 397,238 397,238 397,238 397,237 397,237 398,237 398,237 398,237 398,237 398,236 398,236 398,236 398,236 398,236 399,235 399,235 399,235 399,235 399,235 399,235 399,235 399,235 399,235 400,235 400,236 400,236 400,236 400,236 400,236 400,236 400,236 400,236 401,236 401,236 401,237 401,237 401,237 401,237 401,237 401,238 402,238 402,238 402,238 402,238 402,239 402,239 402,239 402,239 402,240 403,240 403,240 403,240 403,240 403,240 403,240 403,240 403,240 403,240 404,240 404,240 404,240 404,240 404,241 404,241 404,241 404,241 405,241 405,241 405,241 405,242 405,242 405,242 405,242 405,242 405,242 406,242 406,242 406,242 406,242 406,242 406,243 406,243 406,243 406,243 407,243 407,243 407,243 407,243 407,243 407,243 407,242 407,241 408,241 408,241 408,240 408,240 408,239 408,239 408,238 408,238 408,237 409,237 409,236 409,236 409,236 409,235 409,235 409,235 409,235 409,234 410,233 410,233 410,232 410,232 410,232 410,231 410,230 410,230 411,229 411,229 411,228 411,228 411,227 411,227 411,227 411,227 411,227 412,227 412,227 412,226 412,225 412,224 412,223 412,223 412,222 412,221 413,220 413,219 413,219 413,219 413,218 413,217 413,216 413,215 414,215 414,214 414,214 414,213 414,212 414,212 414,211 414,211 414,210 415,210 415,209 415,209 415,209 415,209 415,210 415,210 415,210 415,210 416,210 416,210 416,210 416,210 416,210 416,210 416,210 416,210 417,211 417,210 417,210 417,210 417,210 417,210 417,210 417,210 417,210 418,209 418,209 418,208 418,208 418,208 418,208 418,209 418,209 418,210 419,211 419,212 419,213 419,213 419,214 419,214 419,214 419,215 419,215 420,215 420,216 420,216 420,216 420,217 420,217 420,217 420,217 421,218 421,218 421,218 421,218 421,218 421,218 421,218 421,218 421,217 422,217 422,216 422,216 422,215 422,214 422,213 422,213 422,212 422,211 423,210 423,210 423,209 423,209 423,208 423,208 423,208 423,207 424,207 424,207 424,207 424,207 424,207 424,207 424,207 424,207 424,207 425,208 425,208 425,209 425,209 425,209 425,209 425,209 425,209 425,209 426,209 426,209 426,209 426,209 426,209 426,209 426,208 426,208 427,208 427,208 427,208 427,208 427,207 427,207 427,207 427,208 427,208 428,208 428,208 428,208 428,209 428,209 428,209 428,209 428,210 428,210 429,210 429,210 429,210 429,210 429,210 429,210 429,210 429,209 430,209 430,209 430,208 430,208 430,208 430,207 430,207 430,207 430,206 431,206 431,207 431,208 431,209 431,210 431,212 431,213 431,215 431,216 432,217 432,219 432,221 432,222 432,222 432,222 432,221 432,222 433,222 433,221 433,220 433,220 433,219 433,218 433,217 433,216 433,215 434,213 434,212 434,211 434,210 434,209 434,208 434,207 434,206 434,205 435,205 435,204 435,203 435,202 435,201 435,200 435,199 435,199 436,198 436,197 436,196 436,195 436,194 436,193 436,192 436,190 436,189 437,188 437,186 437,185 437,183 437,181 437,179 437,178 437,177 437,175 438,174 438,172 438,170 438,169 438,167 438,166 438,164 438,163 438,161 439,161 439,160 439,160 439,159 439,158 439,158 439,157 439,156 440,156 440,155 440,155 440,154 440,153 440,153 440,152 440,152 440,151 441,151 441,150 441,150 441,150 441,149 441,149 441,149 441,149 441,149 442,149 442,149 442,150 442,150 442,150 442,150 442,151 442,151 443,151 443,152 443,152 443,152 443,152 443,152 443,151 443,151 443,150 444,150 444,150 444,149 444,149 444,149 444,148 444,148 444,148 444,148 445,147 445,147 445,147 445,147 445,147 445,146 445,146 445,146 446,146 446,146 446,146 446,146 446,146 446,147 446,147 446,147 446,147 447,147 447,148 447,148 447,148 447,148 447,148 447,148 447,149 447,149 448,149 448,149 448,148 448,148 448,148 448,148 448,148 448,148 449,148 449,148 449,148 449,148 449,148 449,148 449,148 449,148 449,148 450,148 450,148 450,147 450,147 450,147 450,147 450,147 450,147 450,147 451,147 451,146 451,146 451,146 451,146 451,145 451,145 451,144 452,144 452,144 452,143 452,143 452,143 452,143 452,142 452,142 452,142 453,142 453,141 453,141 453,141 453,140 453,140 453,140 453,140 453,140 454,140 454,140 454,140 454,141 454,141 454,141 454,141 454,142 455,142 455,143 455,143 455,143 455,144 455,145 455,145 455,146 455,146 456,147 456,147 456,148 456,148 456,149 456,149 456,149 456,149 456,150 457,151 457,151 457,152 457,152 457,153 457,153 457,153 457,154 458,155 458,155 458,156 458,156 458,157 458,157 458,158 458,158 458,159 459,159 459,160 459,160 459,160 459,160 459,160 459,161 459,161 459,161 460,161 460,161 460,161 460,161 460,161 460,160 460,160 460,159 460,159 461,159 461,158 461,158 461,157 461,157 461,156 461,156 461,155 462,155 462,155 462,155 462,154 462,154 462,154 462,154 462,155 462,155 463,155 463,155 463,155 463,155 463,155 463,155 463,155 463,155 463,155 464,155 464,155 464,156 464,157 464,158 464,158 464,159 464,160 465,161 465,162 465,163 465,164 465,164 465,165 465,166 465,166 465,166 466,167 466,167 466,167 466,168 466,168 466,168 466,168 466,169 466,169 467,169 467,169 467,169 467,170 467,169 467,169 467,171 467,171 468,171 468,171 468,171 468,171 468,171 468,172 468,172 468,172 468,172 469,172 469,172 469,172 469,172 469,172 469,172 469,172 469,173 469,173 470,173 470,173 470,173 470,173 470,173 470,173 470,174 470,174 471,174 471,173 471,173 471,174 471,174 471,174 471,174 471,174 471,175 472,175 472,175 472,175 472,175 472,175 472,176 472,176 472,176 472,176 473,176 473,175 473,176 473,176 473,176 473,176 473,176 473,176 474,176 474,176 474,176 474,176 474,176 474,176 474,176 474,176 474,176 475,175 475,175 475,175 475,175 475,175 475,175 475,175 475,175 475,175 476,174 476,174 476,174 476,174 476,173 476,173 476,172 476,172 477,172 477,171 477,171 477,170 477,170 477,169 477,168 477,168 477,168 478,167 478,167 478,166 478,166 478,165 478,164 478,164 478,163 478,162 479,162 479,161 479,161 479,160 479,160 479,159 479,158 479,157 479,157 480,156 480,155 480,154 480,153 480,152 480,152 480,151 480,151 481,150 481,150 481,149 481,149 481,148 481,147 481,147 481,146 481,145 482,145 482,144 482,143 482,143 482,142 482,141 482,141 482,141 482,140 483,140 483,140 483,139 483,139 483,139 483,138 483,138 483,138 484,138 484,138 484,138 484,137 484,137 484,137 484,137 484,137 484,137 485,136 485,136 485,136 485,136 485,136 485,136 485,136 485,136 485,136 486,136 486,136 486,137 486,137 486,138 486,138 486,138 486,139 487,139 487,140 487,140 487,141 487,141 487,142 487,142 487,142 487,143 488,143 488,143 488,144 488,144 488,144 488,144 488,145 488,145 488,145 489,146 489,146 489,146 489,147 489,147 489,147 489,147 489,148 490,148 490,148 490,149 490,149 490,149 490,149 490,149 490,149 490,150 491,150 491,151 491,151 491,152 491,153 491,153 491,154 491,155 491,155 492,156 492,157 492,158 492,158 492,158 492,158 492,158 492,158 493,158 493,158 493,159 493,159 493,159 493,159 493,160 493,160 493,160 494,161 494,161 494,161 494,162 494,162 494,162 494,163 494,163 494,163 495,164 495,164 495,165 495,165 495,165 495,166 495,167 495,167 496,168 496,168 496,169 496,169 496,169 496,169 496,170 496,170 496,170 497,170 497,170 497,170 497,170 497,170 497,169 497,168 497,167 497,166 498,165 498,164 498,163 498,162 498,162 498,162 498,161 498,161 498,161 499,161 499,161 499,161 499,161 499,162 499,162 499,162 499,162 500,162 500,163 500,163 500,163 500,163 500,163 500,163 500,163 500,163 501,163 501,162 501,162 501,162 501,162 501,161 501,160 501,160 501,160 502,161 502,162 502,163 502,163 502,165 502,166 502,168 502,169 503,170 503,170 503,170 503,171 503,171 503,171 503,171 503,171 503,171 504,171 504,171 504,171 504,171 504,171 504,171 504,171 504,171 504,171 505,171 505,171 505,171 505,170 505,170 505,170 505,170 505,170 506,170 506,169 506,169 506,169 506,169 506,169 506,169 506,169 506,169 507,169 507,169 507,169 507,169 507,169 507,169 507,169 507,169 507,169 508,169 508,168 508,168 508,168 508,168 508,168 508,168 508,168 509,168 509,168 509,168 509,169 509,169 509,169 509,169 509,169 509,169 510,169 510,169 510,169 510,169 510,168 510,168 510,167 510,167 510,167 511,166 511,166 511,166 511,166 511,165 511,165 511,165 511,165 512,164 512,164 512,164 512,164 512,163 512,163 512,163 512,163 512,163 513,163 513,163 513,163 513,163 513,163 513,163 513,164 513,164 513,165 514,165 514,164 514,164 514,164 514,163 514,163 514,163 514,163 515,163 515,163 515,163 515,163 515,163 515,163 515,163 515,163 515,163 516,163 516,163 516,163 516,163 516,163 516,163 516,163 516,163 516,163 517,163 517,163 517,163 517,163 517,163 517,163 517,164 517,164 517,164 518,164 518,164 518,164 518,164 518,164 518,164 518,164 518,163 519,163 519,163 519,163 519,163 519,163 519,163 519,163 519,163 519,163 520,163 520,163 520,162 520,162 520,162 520,162 520,162 520,162 520,162 521,162 521,161 521,161 521,161 521,161 521,161 521,161 521,161 522,161 522,161 522,160 522,160 522,160 522,160 522,160 522,160 522,160 523,160 523,159 523,159 523,159 523,159 523,159 523,159 523,160 523,160 524,160 524,160 524,160 524,160 524,161 524,161 524,161 524,161 525,161 525,161 525,161 525,161 525,162 525,162 525,162 525,162 525,162 526,162 526,162 526,162 526,162 526,162 526,162 526,162 526,162 526,162 527,162 527,162 527,162 527,163 527,163 527,163 527,163 527,163 528,163 528,163 528,163 528,162 528,162 528,162 528,162 528,162 528,162 529,161 529,161 529,161 529,161 529,161 529,161 529,161 529,160 529,160 530,160 530,159 530,159 530,159 530,159 530,160 530,160 530,160 531,160 531,160 531,160 531,160 531,160 531,160 531,160 531,160 531,160 532,160 532,160 532,160 532,160 532,160 532,161 532,161 532,161 532,161 533,161 533,161 533,161 533,161 533,161 533,161 533,161 533,161 534,161 534,161 534,161 534,161 534,161 534,161 534,161 534,161 534,161 535,161 535,161 535,161 535,161 535,161 535,161 535,161 535,161 535,161 536,160 536,160 536,160 536,160 536,160 536,160 536,160 536,160 536,160 537,160 537,160 537,160 537,160 537,160 537,161 537,161 537,161 538,161 538,160 538,160 538,160 538,160 538,161 538,161 538,161 538,161 539,161 539,161 539,161 539,161 539,161 539,161 539,161 539,161 539,161 540,161 540,161 540,161 540,160 540,160 540,160 540,160 540,160 541,160 541,160 541,160 541,160 541,160 541,160 541,160 541,159 541,159 542,159 542,159 542,159 542,159 542,159 542,158 542,158 542,158 542,158 543,158 543,158 543,158 543,157 543,157 543,157 543,157 543,157 544,157 544,157 544,157 544,157 544,157 544,157 544,157 544,157 544,157 545,157 545,157 545,156 545,156 545,156 545,156 545,156 545,156 545,156 546,156 546,155 546,155 546,155 546,155 546,155 546,155 546,154 547,154 547,154 547,154 547,154 547,154 547,153 547,153 547,153 547,153 548,153 548,153 548,153 548,153 548,153 548,154 548,154 548,154 548,154 549,155 549,155 549,155 549,155 549,156 549,156 549,156 549,156 550,156 550,157 550,157 550,157 550,157 550,157 550,157 550,158 550,158 551,158 551,158 551,158 551,158 551,159 551,159 551,159 551,159 551,159 552,159 552,159 552,159 552,159 552,159 552,159 552,159 552,159 553,159 553,160 553,160 553,160 553,160 553,160 553,160 553,160 553,160 554,160 554,160 554,160 554,160 554,160 554,160 554,160 554,160 554,160 555,160 555,160 555,160 555,160 555,160 555,160 555,160 555,160 555,160 556,160 556,160 556,160 556,160 556,160 556,160 556,160 556,160 557,159 557,159 557,159 557,159 557,159 557,159 557,159 557,159 557,159 558,159 558,159 558,159 558,159 558,159 558,159 558,159 558,159 558,159 559,159 559,159 559,159 559,159 559,159 559,159 559,159 559,159 560,159 560,159 560,159 560,159 560,158 560,158 560,158 560,158 560,157 561,157 561,157 561,157 561,156 561,156 561,156 561,155 561,155 561,154 562,154 562,154 562,154 562,153 562,153 562,153 562,152 562,152 563,152 563,152 563,151 563,151 563,151 563,151 563,151 563,151 563,151 564,151 564,151 564,151 564,151 564,151 564,151 564,151 564,152 564,152 565,152 565,152 565,152 565,152 565,152 565,152 565,152 565,153 566,153 566,153 566,153 566,153 566,154 566,154 566,154 566,154 566,154 567,155 567,155 567,155 567,155 567,155 567,155 567,155 567,155 567,155 568,155 568,156 568,156 568,156 568,156 568,157 568,157 568,157 569,158 569,159 569,159 569,160 569,160 569,160 569,160 569,160 569,160 570,159 570,159 570,159 570,159 570,159 570,159 570,159 570,159 570,159 571,159 571,159 571,159 571,158 571,158 571,158 571,158 571,158 572,158 572,158 572,158 572,158 572,158 572,158 572,157 572,156 572,156 573,155 573,155 573,154 573,154 573,153 573,152 573,152 573,151 573,151 574,150 574,150 574,150 574,150 574,149 574,149 574,150 574,150 574,150 575,150 575,150 575,150 575,150 575,150 575,150 575,150 575,150 576,150 576,150 576,150 576,151 576,152 576,153 576,154 576,154 576,155 577,155 577,156 577,156 577,157 577,157 577,157 577,157 577,157 577,157 578,157 578,157 578,157 578,156 578,156 578,156 578,156 578,156 579,155 579,155 579,155 579,155 579,155 579,155 579,155 579,155 579,155 580,155 580,155 580,155 580,155 580,155 580,155 580,155 580,155 580,155 581,155 581,155 581,155 581,155 581,155 581,156 581,156 581,156 582,156 582,156 582,156 582,156 582,156 582,156 582,156 582,156 582,156 583,156 583,156 583,156 583,156 583,156 583,156 583,156 583,156 583,156 584,156 584,156 584,156 584,156 584,156 584,156 584,156 584,156 585,156 585,156 585,156 585,156 585,156 585,156 585,156 585,156 585,156 586,156 586,156 586,156 586,156 586,157 586,157 586,157 586,157 586,157 587,157 587,157 587,157 587,157 587,157 587,157 587,157 587,157 588,157 588,157 588,157 588,157 588,157 588,156 588,156 588,156 588,156 589,156 589,156 589,156 589,156 589,157 589,157 589,157 589,157 589,157 590,157 590,157 590,157 590,157 590,157 590,157 590,157 590,157 591,157 591,157 591,157 591,157 591,157 591,157 591,156 591,156 591,156 592,156 592,156 592,156 592,156 592,156 592,156 592,156 592,156 592,156 593,156 593,156 593,156 593,156 593,156 593,156 593,156 593,156 593,156 594,156 594,156 594,156 594,156 594,156 594,156 594,156 594,156 595,156 595,156 595,156 595,156 595,156 595,156 595,156 595,156 595,156 596,156 596,156 596,156 596,156 596,156 596,156 596,156 596,156 596,156 597,156 597,156 597,156 597,156 597,156 597,156 597,156 597,156 598,156 598,156 598,157 598,157 598,157 598,157 598,157 598,157 598,157 599,157 599,157 599,157 599,157 599,157 599,157 599,157 599,156 599,156 600,156 600,156 600,156 600,156 600,156 600,156 600,156 600,156 601,156 601,156 601,155 601,155 601,155 601,155 601,155 601,155 601,155 602,155 602,155 602,155 602,155 602,155 602,155 602,155 602,155 602,155 603,155 603,155 603,155 603,155 603,155 603,155 603,155 603,155 604,155 604,155 604,155 604,155 604,154 604,154 604,154 604,154 604,154 605,154 605,154 605,154 605,154 605,154 605,154 605,154 605,154 605,154 606,154 606,154 606,154 606,154 606,154 606,154 606,154 606,154 607,154 607,154 607,154 607,154 607,154 607,154 607,154 607,154 607,154 608,154 608,154 608,154 608,153 608,154 608,154 608,154 608,154 608,154 609,154 609,154 609,154 609,154 609,154 609,154 609,154 609,154 610,154 610,154 610,154 610,154 610,154 610,154 610,154 610,154 610,155 611,155 611,155 611,155 611,155 611,155 611,155 611,155 611,155 611,155 612,155 612,155 612,155 612,155 612,155 612,155 612,155 612,155 612,155 613,155 613,155 613,155 613,155 613,155 613,155 613,155 613,155 614,155 614,155 614,155 614,155 614,155 614,155 614,155 614,155 614,155 615,155 615,154 615,154 615,154 615,154 615,154 615,154 615,154 615,154 616,154 616,155 616,155 616,155 616,155 616,155 616,155 616,155 617,155 617,155 617,155 617,155 617,155 617,155 617,155 617,155 617,155 618,155 618,155 618,155 618,155 618,155 618,155 618,156 618,156 618,156 619,156 619,156 619,156 619,156 619,156 619,156 619,155 619,155 620,155 620,155 620,155 620,155 620,155 620,155 620,154 620,154 620,154 621,154 621,154 621,154 621,155 621,155 621,155 621,156 621,156 621,156 622,156 622,156 622,156 622,156 622,156 622,156 622,156 622,156 623,156 623,156 623,156 623,156 623,156 623,156 623,156 623,156 623,156 624,156 624,155 624,155 624,155 624,155 624,155 624,155 624,155 624,155 625,155 625,155 625,155 625,155 625,155 625,155 625,155 625,155 626,155 626,154 626,154 626,154 626,154 626,154 626,154 626,154 626,154 627,154 627,154 627,154 627,154 627,154 627,154 627,154 627,154 627,154 628,154 628,154 628,154 628,154 628,154 628,154 628,154 628,154 629,154 629,154 629,154 629,154 629,154 629,154 629,154 629,153 629,153 630,153 630,153 630,153 630,153 630,153 630,153 630,153 630,153 630,153 631,153 631,153 631,153 631,153 631,153 631,153 631,153 631,153 631,153 632,153 632,153 632,153 632,153 632,153 632,153 632,153 632,153 633,153 633,153 633,153 633,153 633,152 633,152 633,152 633,152 633,152 634,152 634,152 634,152 634,152 634,152 634,152 634,152 634,152 634,152 635,152 635,152 635,152 635,152 635,152 635,152 635,152 635,152 636,152 636,152 636,152 636,152 636,152 636,152 636,151 636,151 636,151 637,151 637,151 637,151 637,150 637,150 637,150 637,150 637,151 637,151 638,151 638,151 638,151 638,151 638,151 638,151 638,151 638,151 639,151 639,151 639,151 639,151 639,151 639,151 639,151 639,151 639,151 640,151 640,151 640,151 640,151 640,151 640,151 640,151 640,151 640,151 641,151 641,151 641,151 641,151 641,151 641,151 641,151 641,151 642,151 642,151 642,151 642,151 642,151 642,151 642,151 642,151 642,151 643,151 643,151 643,151 643,151 643,151 643,151 643,151 643,151 643,151 644,151 644,151 644,151 644,151 644,151 644,151 644,151 644,151 645,151 645,151 645,151 645,151 645,151 645,151 645,151 645,151 645,151 646,151 646,151 646,151 646,151 646,151 646,151 646,151 646,151 646,151 647,151 647,151 647,151 647,151 647,151 647,151 647,151 647,151 648,151 648,151 648,151 648,151 648,151 648,151 648,151 648,150 648,150 649,150 649,150 649,150 649,150 649,150 649,150 649,150 649,149 649,149 650,149 650,149 650,149 650,149 650,149 650,149 650,149 650,149 650,149 651,148 651,148 651,148 651,148 651,148 651,148 651,148 651,148 652,148 652,148 652,148 652,148 652,148 652,148 652,147 652,147 652,147 653,147 653,147 653,147 653,147 653,147 653,147 653,147 653,147 653,147 654,147 654,147 654,147 654,147 654,147 654,147 654,147 654,147 655,147 655,147 655,147 655,147 655,147 655,147 655,147 655,147 655,147 656,147 656,147 656,147 656,147 656,146 656,146 656,146 656,146 656,146 657,146 657,146 657,146 657,146 657,146 657,146 657,146 657,146 658,146 658,146 658,146 658,146 658,146 658,146 658,146 658,146 658,146 659,146 659,146 659,146 659,146 659,146 659,146 659,146 659,145 659,145 660,145 660,145 660,145 660,145 660,145 660,145 660,145 660,145 661,145 661,145 661,145 661,145 661,145 661,145 661,145 661,145 661,145 662,145 662,145 662,145 662,145 662,145 662,145 662,145 662,145 662,145 663,145 663,144 663,144 663,144 663,144 663,144 663,144 663,144 664,144 664,144 664,144 664,144 664,144 664,144 664,144 664,144 664,144 665,143 665,143 665,143 665,143 665,142 665,142 665,142 665,142 665,142 666,142 666,142 666,142 666,142 666,142 666,142 666,142 666,142 667,142 667,142 667,143 667,143 667,143 667,143 667,143 667,143 667,143 668,143 668,143 668,143 668,143 668,143 668,143 668,143 668,143 668,143 669,143 669,144 669,144 669,144 669,144 669,144 669,144 669,144 669,144 670,144 670,144 670,144 670,144 670,144 670,144 670,144 670,144 671,144 671,145 671,145 671,145 671,145 671,145 671,145 671,145 671,145 672,145 672,145 672,145 672,145 672,145 672,145 672,145 672,145 672,145 673,146 673,146 673,146 673,146 673,146 673,146 673,146 673,146 674,146 674,146 674,146 674,146 674,146 674,146 674,146 674,146 674,146 675,147 675,147 675,147 675,147 675,147 675,147 675,147 675,147 675,147 676,147 676,147 676,147 676,147 676,147 676,147 676,147 676,147 677,147 677,148 677,148 677,148 677,148 677,148 677,148 677,148 677,148 678,148 678,148 678,148 678,148 678,148 678,148 678,148 678,148 678,148 679,149 679,149 679,149 679,149 679,149 679,149 679,149 679,149 680,149 680,149 680,149 680,149 680,149 680,149 680,149 680,149 680,149 681,150 681,150 681,150 681,150 681,150 681,150 681,150 681,150 681,150 682,150 682,150 682,150 682,150 682,150 682,150 682,150 682,150 683,150 683,150 683,150 683,150 683,150 683,150 683,150 683,150 683,150 684,150 684,150 684,150 684,150 684,150 684,150 684,150 684,150 684,150 685,150 685,150 685,150 685,150 685,150 685,150 685,150 685,150 686,150 686,150 686,150 686,150 686,150 686,150 686,150 686,151 686,151 687,151 687,151 687,151 687,151 687,151 687,151 687,151 687,151 687,151 688,151 688,151 688,151 688,151 688,151 688,151 688,151 688,151 688,151 689,151 689,151 689,151 689,151 689,151 689,151 689,151 689,151 690,151 690,151 690,151 690,151 690,151 690,151 690,151 690,151 690,151 691,151 691,151 691,151 691,151 691,151 691,151 691,151 691,151 691,151 692,151 692,151 692,151 692,151 692,150 692,150 692,150 692,150 693,150 693,150 693,150 693,150 693,150 693,150 693,150 693,150 693,150 694,150 694,150 694,150 694,150 694,150 694,150 694,150 694,150 694,150 695,150 695,150 695,150 695,150 695,150 695,150 695,150 695,150 696,150 696,150 696,150 696,150 696,150 696,150 696,150 696,150 696,150 697,150 697,150 697,150 697,150 697,150 697,150 697,150 697,150 697,150 698,150 698,150 698,150 698,150 698,150 698,150 698,150 698,150 699,150 699,150 699,150 699,150 699,150 699,150 " vector-effect="non-scaling-stroke"></polyline>
</g></svg>