<!-- Generator: Adobe Illustrator 19.2.0, SVG Export Plug-In  -->
<!DOCTYPE svg PUBLIC "-//W3C//DTD SVG 1.1//EN" "http://www.w3.org/Graphics/SVG/1.1/DTD/svg11.dtd" [
	<!ENTITY ns_flows "http://ns.adobe.com/Flows/1.0/">
	<!ENTITY st0 "fill:none;stroke:#FFFFFF;stroke-linecap:square;stroke-linejoin:bevel;stroke-dasharray:1,2;">
	<!ENTITY st1 "fill:#624949;">
]>
<svg version="1.1"
	 xmlns="http://www.w3.org/2000/svg" xmlns:xlink="http://www.w3.org/1999/xlink" xmlns:a="http://ns.adobe.com/AdobeSVGViewerExtensions/3.0/"
	 x="0px" y="0px" width="759px" height="380px" preserveAspectRatio="none" viewBox="0 0 759 380" style="enable-background:new 0 0 759 380;"
	 xml:space="preserve">
<defs>
</defs>
<g transform="matrix(1,0,0,1,0,0)">
	<line vector-effect="non-scaling-stroke" style="&st0;" x1="0.5" y1="0.5" x2="0.5" y2="379.5"/>
	<line vector-effect="non-scaling-stroke" style="&st0;" x1="95.5" y1="0.5" x2="95.5" y2="379.5"/>
	<line vector-effect="non-scaling-stroke" style="&st0;" x1="190.5" y1="0.5" x2="190.5" y2="379.5"/>
	<line vector-effect="non-scaling-stroke" style="&st0;" x1="284.5" y1="0.5" x2="284.5" y2="379.5"/>
	<line vector-effect="non-scaling-stroke" style="&st0;" x1="379.5" y1="0.5" x2="379.5" y2="379.5"/>
	<line vector-effect="non-scaling-stroke" style="&st0;" x1="474.5" y1="0.5" x2="474.5" y2="379.5"/>
	<line vector-effect="non-scaling-stroke" style="&st0;" x1="569.5" y1="0.5" x2="569.5" y2="379.5"/>
	<line vector-effect="non-scaling-stroke" style="&st0;" x1="663.5" y1="0.5" x2="663.5" y2="379.5"/>
	<line vector-effect="non-scaling-stroke" style="&st0;" x1="758.5" y1="0.5" x2="758.5" y2="379.5"/>
	<line vector-effect="non-scaling-stroke" style="&st0;" x1="0.5" y1="379.5" x2="758.5" y2="379.5"/>
	<line vector-effect="non-scaling-stroke" style="&st0;" x1="0.5" y1="325.5" x2="758.5" y2="325.5"/>
	<line vector-effect="non-scaling-stroke" style="&st0;" x1="0.5" y1="270.5" x2="758.5" y2="270.5"/>
	<line vector-effect="non-scaling-stroke" style="&st0;" x1="0.5" y1="216.5" x2="758.5" y2="216.5"/>
	<line vector-effect="non-scaling-stroke" style="&st0;" x1="0.5" y1="162.5" x2="758.5" y2="162.5"/>
	<line vector-effect="non-scaling-stroke" style="&st0;" x1="0.5" y1="108.5" x2="758.5" y2="108.5"/>
	<line vector-effect="non-scaling-stroke" style="&st0;" x1="0.5" y1="53.5" x2="758.5" y2="53.5"/>
</g>
<g transform="matrix(1,0,0,1,0,0)">
	<polyline vector-effect="non-scaling-stroke" style="&st1;" points="671.5,379.5 6.5,379.5 6.5,284.5 6.5,284.5 6.5,284.5 
		6.5,284.5 6.5,284.5 7.5,283.5 7.5,283.5 7.5,283.5 7.5,283.5 7.5,283.5 7.5,283.5 7.5,283.5 7.5,283.5 7.5,283.5 8.5,283.5 
		8.5,283.5 8.5,283.5 8.5,283.5 8.5,283.5 8.5,283.5 8.5,283.5 8.5,283.5 8.5,283.5 9.5,283.5 9.5,283.5 9.5,283.5 9.5,283.5 
		9.5,283.5 9.5,283.5 9.5,283.5 9.5,283.5 10.5,283.5 10.5,283.5 10.5,283.5 10.5,283.5 10.5,283.5 10.5,283.5 10.5,283.5 
		10.5,283.5 10.5,283.5 11.5,283.5 11.5,283.5 11.5,283.5 11.5,282.5 11.5,282.5 11.5,282.5 11.5,282.5 11.5,282.5 11.5,282.5 
		12.5,282.5 12.5,282.5 12.5,282.5 12.5,282.5 12.5,282.5 12.5,282.5 12.5,282.5 12.5,282.5 13.5,282.5 13.5,282.5 13.5,282.5 
		13.5,282.5 13.5,282.5 13.5,282.5 13.5,282.5 13.5,282.5 13.5,282.5 14.5,282.5 14.5,282.5 14.5,282.5 14.5,282.5 14.5,282.5 
		14.5,282.5 14.5,282.5 14.5,282.5 14.5,282.5 15.5,282.5 15.5,282.5 15.5,282.5 15.5,282.5 15.5,282.5 15.5,282.5 15.5,283.5 
		15.5,283.5 16.5,283.5 16.5,283.5 16.5,283.5 16.5,283.5 16.5,282.5 16.5,282.5 16.5,282.5 16.5,282.5 16.5,283.5 17.5,283.5 
		17.5,283.5 17.5,283.5 17.5,283.5 17.5,283.5 17.5,284.5 17.5,284.5 17.5,284.5 17.5,285.5 18.5,285.5 18.5,285.5 18.5,286.5 
		18.5,286.5 18.5,286.5 18.5,286.5 18.5,287.5 18.5,287.5 19.5,287.5 19.5,288.5 19.5,288.5 19.5,288.5 19.5,289.5 19.5,289.5 
		19.5,289.5 19.5,290.5 19.5,290.5 20.5,291.5 20.5,291.5 20.5,292.5 20.5,292.5 20.5,293.5 20.5,293.5 20.5,294.5 20.5,294.5 
		20.5,294.5 21.5,295.5 21.5,295.5 21.5,295.5 21.5,295.5 21.5,295.5 21.5,295.5 21.5,295.5 21.5,295.5 22.5,295.5 22.5,295.5 
		22.5,294.5 22.5,294.5 22.5,294.5 22.5,294.5 22.5,294.5 22.5,293.5 22.5,293.5 23.5,293.5 23.5,293.5 23.5,293.5 23.5,292.5 
		23.5,292.5 23.5,292.5 23.5,291.5 23.5,291.5 23.5,291.5 24.5,290.5 24.5,290.5 24.5,290.5 24.5,289.5 24.5,289.5 24.5,289.5 
		24.5,288.5 24.5,288.5 25.5,287.5 25.5,287.5 25.5,287.5 25.5,286.5 25.5,286.5 25.5,285.5 25.5,285.5 25.5,285.5 25.5,284.5 
		26.5,284.5 26.5,284.5 26.5,283.5 26.5,283.5 26.5,282.5 26.5,282.5 26.5,281.5 26.5,281.5 26.5,281.5 27.5,280.5 27.5,280.5 
		27.5,280.5 27.5,279.5 27.5,279.5 27.5,279.5 27.5,279.5 27.5,279.5 28.5,279.5 28.5,279.5 28.5,278.5 28.5,278.5 28.5,278.5 
		28.5,278.5 28.5,278.5 28.5,278.5 28.5,278.5 29.5,278.5 29.5,278.5 29.5,278.5 29.5,278.5 29.5,278.5 29.5,278.5 29.5,278.5 
		29.5,278.5 29.5,278.5 30.5,278.5 30.5,278.5 30.5,278.5 30.5,278.5 30.5,278.5 30.5,278.5 30.5,278.5 30.5,278.5 30.5,278.5 
		31.5,278.5 31.5,278.5 31.5,278.5 31.5,278.5 31.5,278.5 31.5,278.5 31.5,278.5 31.5,278.5 32.5,278.5 32.5,278.5 32.5,279.5 
		32.5,279.5 32.5,279.5 32.5,279.5 32.5,279.5 32.5,279.5 32.5,279.5 33.5,280.5 33.5,280.5 33.5,280.5 33.5,280.5 33.5,280.5 
		33.5,280.5 33.5,280.5 33.5,280.5 33.5,280.5 34.5,280.5 34.5,280.5 34.5,280.5 34.5,279.5 34.5,279.5 34.5,279.5 34.5,279.5 
		34.5,278.5 35.5,278.5 35.5,278.5 35.5,277.5 35.5,277.5 35.5,277.5 35.5,277.5 35.5,276.5 35.5,276.5 35.5,276.5 36.5,276.5 
		36.5,276.5 36.5,276.5 36.5,276.5 36.5,275.5 36.5,275.5 36.5,275.5 36.5,275.5 36.5,275.5 37.5,274.5 37.5,274.5 37.5,274.5 
		37.5,274.5 37.5,274.5 37.5,274.5 37.5,273.5 37.5,273.5 38.5,273.5 38.5,273.5 38.5,272.5 38.5,272.5 38.5,272.5 38.5,272.5 
		38.5,272.5 38.5,271.5 38.5,271.5 39.5,271.5 39.5,271.5 39.5,271.5 39.5,270.5 39.5,270.5 39.5,270.5 39.5,270.5 39.5,269.5 
		39.5,269.5 40.5,269.5 40.5,269.5 40.5,268.5 40.5,268.5 40.5,268.5 40.5,268.5 40.5,267.5 40.5,267.5 41.5,267.5 41.5,267.5 
		41.5,267.5 41.5,267.5 41.5,266.5 41.5,266.5 41.5,266.5 41.5,265.5 41.5,265.5 42.5,265.5 42.5,265.5 42.5,265.5 42.5,264.5 
		42.5,264.5 42.5,264.5 42.5,264.5 42.5,264.5 42.5,263.5 43.5,263.5 43.5,263.5 43.5,263.5 43.5,262.5 43.5,262.5 43.5,262.5 
		43.5,262.5 43.5,261.5 44.5,261.5 44.5,261.5 44.5,261.5 44.5,261.5 44.5,261.5 44.5,261.5 44.5,260.5 44.5,260.5 44.5,260.5 
		45.5,260.5 45.5,259.5 45.5,259.5 45.5,259.5 45.5,259.5 45.5,259.5 45.5,258.5 45.5,258.5 45.5,258.5 46.5,258.5 46.5,257.5 
		46.5,257.5 46.5,257.5 46.5,257.5 46.5,257.5 46.5,256.5 46.5,256.5 47.5,256.5 47.5,256.5 47.5,255.5 47.5,255.5 47.5,255.5 
		47.5,255.5 47.5,255.5 47.5,254.5 47.5,254.5 48.5,254.5 48.5,254.5 48.5,254.5 48.5,254.5 48.5,254.5 48.5,253.5 48.5,253.5 
		48.5,253.5 48.5,253.5 49.5,253.5 49.5,253.5 49.5,253.5 49.5,252.5 49.5,252.5 49.5,252.5 49.5,252.5 49.5,252.5 49.5,252.5 
		50.5,252.5 50.5,252.5 50.5,252.5 50.5,252.5 50.5,251.5 50.5,251.5 50.5,251.5 50.5,251.5 51.5,251.5 51.5,251.5 51.5,251.5 
		51.5,251.5 51.5,251.5 51.5,250.5 51.5,250.5 51.5,250.5 51.5,250.5 52.5,250.5 52.5,250.5 52.5,250.5 52.5,249.5 52.5,249.5 
		52.5,249.5 52.5,249.5 52.5,249.5 52.5,249.5 53.5,249.5 53.5,249.5 53.5,249.5 53.5,249.5 53.5,248.5 53.5,248.5 53.5,248.5 
		53.5,248.5 54.5,248.5 54.5,248.5 54.5,248.5 54.5,247.5 54.5,247.5 54.5,247.5 54.5,247.5 54.5,247.5 54.5,247.5 55.5,247.5 
		55.5,247.5 55.5,247.5 55.5,247.5 55.5,246.5 55.5,246.5 55.5,246.5 55.5,246.5 55.5,246.5 56.5,246.5 56.5,246.5 56.5,246.5 
		56.5,246.5 56.5,246.5 56.5,246.5 56.5,246.5 56.5,246.5 57.5,246.5 57.5,245.5 57.5,245.5 57.5,245.5 57.5,245.5 57.5,245.5 
		57.5,244.5 57.5,244.5 57.5,244.5 58.5,244.5 58.5,244.5 58.5,243.5 58.5,243.5 58.5,243.5 58.5,243.5 58.5,243.5 58.5,243.5 
		58.5,243.5 59.5,243.5 59.5,242.5 59.5,242.5 59.5,242.5 59.5,242.5 59.5,242.5 59.5,242.5 59.5,243.5 60.5,243.5 60.5,243.5 
		60.5,243.5 60.5,243.5 60.5,243.5 60.5,243.5 60.5,243.5 60.5,243.5 60.5,243.5 61.5,243.5 61.5,243.5 61.5,243.5 61.5,243.5 
		61.5,243.5 61.5,242.5 61.5,242.5 61.5,242.5 61.5,242.5 62.5,242.5 62.5,242.5 62.5,242.5 62.5,242.5 62.5,242.5 62.5,242.5 
		62.5,242.5 62.5,242.5 63.5,242.5 63.5,241.5 63.5,241.5 63.5,241.5 63.5,241.5 63.5,241.5 63.5,241.5 63.5,241.5 63.5,241.5 
		64.5,241.5 64.5,241.5 64.5,241.5 64.5,241.5 64.5,241.5 64.5,241.5 64.5,241.5 64.5,241.5 64.5,241.5 65.5,241.5 65.5,241.5 
		65.5,241.5 65.5,241.5 65.5,241.5 65.5,241.5 65.5,241.5 65.5,241.5 66.5,241.5 66.5,241.5 66.5,241.5 66.5,241.5 66.5,241.5 
		66.5,241.5 66.5,241.5 66.5,241.5 66.5,241.5 67.5,241.5 67.5,241.5 67.5,241.5 67.5,241.5 67.5,241.5 67.5,241.5 67.5,241.5 
		67.5,241.5 67.5,241.5 68.5,241.5 68.5,241.5 68.5,241.5 68.5,241.5 68.5,241.5 68.5,241.5 68.5,241.5 68.5,240.5 68.5,240.5 
		69.5,240.5 69.5,240.5 69.5,240.5 69.5,240.5 69.5,240.5 69.5,240.5 69.5,240.5 69.5,240.5 70.5,240.5 70.5,240.5 70.5,240.5 
		70.5,240.5 70.5,240.5 70.5,240.5 70.5,240.5 70.5,240.5 70.5,240.5 71.5,240.5 71.5,240.5 71.5,240.5 71.5,240.5 71.5,240.5 
		71.5,240.5 71.5,240.5 71.5,240.5 71.5,240.5 72.5,240.5 72.5,240.5 72.5,240.5 72.5,241.5 72.5,241.5 72.5,241.5 72.5,241.5 
		72.5,241.5 73.5,242.5 73.5,242.5 73.5,242.5 73.5,243.5 73.5,243.5 73.5,243.5 73.5,243.5 73.5,244.5 73.5,244.5 74.5,244.5 
		74.5,245.5 74.5,245.5 74.5,245.5 74.5,246.5 74.5,246.5 74.5,247.5 74.5,247.5 74.5,247.5 75.5,248.5 75.5,249.5 75.5,249.5 
		75.5,249.5 75.5,250.5 75.5,250.5 75.5,251.5 75.5,251.5 76.5,251.5 76.5,252.5 76.5,252.5 76.5,252.5 76.5,252.5 76.5,253.5 
		76.5,253.5 76.5,253.5 76.5,253.5 77.5,253.5 77.5,253.5 77.5,253.5 77.5,253.5 77.5,253.5 77.5,253.5 77.5,254.5 77.5,254.5 
		77.5,254.5 78.5,254.5 78.5,254.5 78.5,255.5 78.5,255.5 78.5,255.5 78.5,256.5 78.5,256.5 78.5,257.5 79.5,257.5 79.5,257.5 
		79.5,257.5 79.5,257.5 79.5,257.5 79.5,257.5 79.5,257.5 79.5,257.5 79.5,257.5 80.5,257.5 80.5,257.5 80.5,257.5 80.5,257.5 
		80.5,257.5 80.5,256.5 80.5,256.5 80.5,256.5 80.5,256.5 81.5,256.5 81.5,255.5 81.5,255.5 81.5,255.5 81.5,254.5 81.5,254.5 
		81.5,254.5 81.5,253.5 82.5,253.5 82.5,253.5 82.5,252.5 82.5,252.5 82.5,252.5 82.5,251.5 82.5,251.5 82.5,251.5 82.5,250.5 
		83.5,250.5 83.5,250.5 83.5,249.5 83.5,249.5 83.5,249.5 83.5,249.5 83.5,248.5 83.5,248.5 83.5,248.5 84.5,248.5 84.5,248.5 
		84.5,248.5 84.5,247.5 84.5,247.5 84.5,247.5 84.5,247.5 84.5,247.5 85.5,247.5 85.5,247.5 85.5,247.5 85.5,247.5 85.5,247.5 
		85.5,247.5 85.5,247.5 85.5,247.5 85.5,247.5 86.5,247.5 86.5,246.5 86.5,246.5 86.5,246.5 86.5,246.5 86.5,245.5 86.5,245.5 
		86.5,245.5 86.5,244.5 87.5,244.5 87.5,244.5 87.5,244.5 87.5,243.5 87.5,243.5 87.5,243.5 87.5,243.5 87.5,242.5 88.5,242.5 
		88.5,242.5 88.5,242.5 88.5,242.5 88.5,241.5 88.5,241.5 88.5,241.5 88.5,241.5 88.5,241.5 89.5,240.5 89.5,240.5 89.5,240.5 
		89.5,240.5 89.5,240.5 89.5,240.5 89.5,240.5 89.5,239.5 89.5,239.5 90.5,239.5 90.5,239.5 90.5,239.5 90.5,239.5 90.5,239.5 
		90.5,239.5 90.5,239.5 90.5,239.5 90.5,239.5 91.5,239.5 91.5,240.5 91.5,240.5 91.5,240.5 91.5,240.5 91.5,240.5 91.5,240.5 
		91.5,241.5 92.5,241.5 92.5,241.5 92.5,242.5 92.5,242.5 92.5,242.5 92.5,242.5 92.5,243.5 92.5,243.5 92.5,243.5 93.5,243.5 
		93.5,243.5 93.5,243.5 93.5,244.5 93.5,244.5 93.5,244.5 93.5,244.5 93.5,244.5 93.5,244.5 94.5,244.5 94.5,244.5 94.5,245.5 
		94.5,245.5 94.5,245.5 94.5,245.5 94.5,245.5 94.5,245.5 95.5,245.5 95.5,246.5 95.5,246.5 95.5,246.5 95.5,246.5 95.5,246.5 
		95.5,246.5 95.5,246.5 95.5,247.5 96.5,247.5 96.5,247.5 96.5,247.5 96.5,247.5 96.5,247.5 96.5,248.5 96.5,248.5 96.5,248.5 
		96.5,248.5 97.5,247.5 97.5,247.5 97.5,247.5 97.5,247.5 97.5,247.5 97.5,246.5 97.5,246.5 97.5,246.5 98.5,246.5 98.5,245.5 
		98.5,245.5 98.5,245.5 98.5,245.5 98.5,244.5 98.5,244.5 98.5,244.5 98.5,244.5 99.5,243.5 99.5,243.5 99.5,243.5 99.5,243.5 
		99.5,242.5 99.5,242.5 99.5,242.5 99.5,242.5 99.5,241.5 100.5,241.5 100.5,241.5 100.5,241.5 100.5,241.5 100.5,241.5 
		100.5,241.5 100.5,241.5 100.5,241.5 101.5,241.5 101.5,241.5 101.5,241.5 101.5,241.5 101.5,241.5 101.5,241.5 101.5,241.5 
		101.5,242.5 101.5,242.5 102.5,242.5 102.5,242.5 102.5,243.5 102.5,243.5 102.5,243.5 102.5,243.5 102.5,244.5 102.5,244.5 
		102.5,244.5 103.5,244.5 103.5,244.5 103.5,245.5 103.5,245.5 103.5,245.5 103.5,245.5 103.5,246.5 103.5,246.5 104.5,247.5 
		104.5,247.5 104.5,247.5 104.5,247.5 104.5,247.5 104.5,246.5 104.5,246.5 104.5,246.5 104.5,246.5 105.5,246.5 105.5,246.5 
		105.5,246.5 105.5,246.5 105.5,246.5 105.5,246.5 105.5,246.5 105.5,246.5 105.5,246.5 106.5,246.5 106.5,246.5 106.5,245.5 
		106.5,245.5 106.5,245.5 106.5,245.5 106.5,245.5 106.5,245.5 107.5,245.5 107.5,245.5 107.5,245.5 107.5,245.5 107.5,245.5 
		107.5,245.5 107.5,245.5 107.5,245.5 107.5,245.5 108.5,245.5 108.5,245.5 108.5,245.5 108.5,245.5 108.5,245.5 108.5,246.5 
		108.5,246.5 108.5,246.5 108.5,246.5 109.5,246.5 109.5,246.5 109.5,246.5 109.5,247.5 109.5,247.5 109.5,247.5 109.5,247.5 
		109.5,247.5 109.5,247.5 110.5,247.5 110.5,247.5 110.5,247.5 110.5,247.5 110.5,246.5 110.5,246.5 110.5,246.5 110.5,245.5 
		111.5,245.5 111.5,244.5 111.5,244.5 111.5,244.5 111.5,244.5 111.5,243.5 111.5,243.5 111.5,243.5 111.5,243.5 112.5,242.5 
		112.5,242.5 112.5,242.5 112.5,242.5 112.5,241.5 112.5,241.5 112.5,241.5 112.5,240.5 112.5,240.5 113.5,240.5 113.5,240.5 
		113.5,240.5 113.5,239.5 113.5,239.5 113.5,238.5 113.5,238.5 113.5,238.5 114.5,238.5 114.5,237.5 114.5,237.5 114.5,236.5 
		114.5,236.5 114.5,236.5 114.5,236.5 114.5,236.5 114.5,236.5 115.5,236.5 115.5,235.5 115.5,235.5 115.5,235.5 115.5,234.5 
		115.5,234.5 115.5,234.5 115.5,234.5 115.5,234.5 116.5,233.5 116.5,233.5 116.5,233.5 116.5,233.5 116.5,233.5 116.5,233.5 
		116.5,233.5 116.5,233.5 117.5,233.5 117.5,233.5 117.5,233.5 117.5,233.5 117.5,233.5 117.5,232.5 117.5,232.5 117.5,232.5 
		117.5,232.5 118.5,232.5 118.5,232.5 118.5,233.5 118.5,233.5 118.5,233.5 118.5,233.5 118.5,233.5 118.5,233.5 118.5,233.5 
		119.5,233.5 119.5,233.5 119.5,233.5 119.5,233.5 119.5,234.5 119.5,234.5 119.5,234.5 119.5,234.5 120.5,234.5 120.5,234.5 
		120.5,234.5 120.5,234.5 120.5,234.5 120.5,234.5 120.5,234.5 120.5,235.5 120.5,235.5 121.5,235.5 121.5,235.5 121.5,235.5 
		121.5,235.5 121.5,235.5 121.5,235.5 121.5,236.5 121.5,236.5 121.5,236.5 122.5,236.5 122.5,236.5 122.5,236.5 122.5,236.5 
		122.5,236.5 122.5,236.5 122.5,236.5 122.5,236.5 123.5,236.5 123.5,235.5 123.5,235.5 123.5,235.5 123.5,235.5 123.5,235.5 
		123.5,235.5 123.5,235.5 123.5,235.5 124.5,235.5 124.5,234.5 124.5,234.5 124.5,234.5 124.5,234.5 124.5,234.5 124.5,234.5 
		124.5,234.5 124.5,234.5 125.5,234.5 125.5,233.5 125.5,234.5 125.5,234.5 125.5,234.5 125.5,234.5 125.5,234.5 125.5,234.5 
		126.5,234.5 126.5,234.5 126.5,234.5 126.5,234.5 126.5,233.5 126.5,233.5 126.5,233.5 126.5,234.5 126.5,234.5 127.5,234.5 
		127.5,234.5 127.5,234.5 127.5,235.5 127.5,235.5 127.5,235.5 127.5,235.5 127.5,235.5 127.5,236.5 128.5,236.5 128.5,236.5 
		128.5,236.5 128.5,236.5 128.5,236.5 128.5,236.5 128.5,236.5 128.5,236.5 129.5,237.5 129.5,237.5 129.5,237.5 129.5,237.5 
		129.5,237.5 129.5,237.5 129.5,237.5 129.5,237.5 129.5,238.5 130.5,238.5 130.5,238.5 130.5,238.5 130.5,239.5 130.5,239.5 
		130.5,239.5 130.5,239.5 130.5,239.5 130.5,239.5 131.5,240.5 131.5,240.5 131.5,240.5 131.5,240.5 131.5,240.5 131.5,240.5 
		131.5,240.5 131.5,240.5 131.5,239.5 132.5,239.5 132.5,239.5 132.5,239.5 132.5,239.5 132.5,239.5 132.5,239.5 132.5,238.5 
		132.5,238.5 133.5,238.5 133.5,238.5 133.5,238.5 133.5,238.5 133.5,238.5 133.5,238.5 133.5,238.5 133.5,238.5 133.5,238.5 
		134.5,238.5 134.5,238.5 134.5,237.5 134.5,237.5 134.5,237.5 134.5,237.5 134.5,237.5 134.5,237.5 134.5,237.5 135.5,236.5 
		135.5,236.5 135.5,236.5 135.5,236.5 135.5,236.5 135.5,236.5 135.5,235.5 135.5,235.5 136.5,235.5 136.5,235.5 136.5,235.5 
		136.5,235.5 136.5,234.5 136.5,234.5 136.5,235.5 136.5,235.5 136.5,235.5 137.5,235.5 137.5,234.5 137.5,234.5 137.5,234.5 
		137.5,234.5 137.5,234.5 137.5,234.5 137.5,234.5 137.5,234.5 138.5,234.5 138.5,234.5 138.5,234.5 138.5,233.5 138.5,233.5 
		138.5,233.5 138.5,233.5 138.5,233.5 139.5,233.5 139.5,233.5 139.5,233.5 139.5,233.5 139.5,233.5 139.5,233.5 139.5,233.5 
		139.5,233.5 139.5,233.5 140.5,233.5 140.5,233.5 140.5,233.5 140.5,233.5 140.5,233.5 140.5,233.5 140.5,233.5 140.5,234.5 
		140.5,234.5 141.5,234.5 141.5,234.5 141.5,234.5 141.5,234.5 141.5,235.5 141.5,235.5 141.5,235.5 141.5,235.5 142.5,235.5 
		142.5,236.5 142.5,236.5 142.5,236.5 142.5,236.5 142.5,237.5 142.5,237.5 142.5,237.5 142.5,237.5 143.5,238.5 143.5,238.5 
		143.5,238.5 143.5,238.5 143.5,238.5 143.5,238.5 143.5,239.5 143.5,239.5 143.5,239.5 144.5,239.5 144.5,240.5 144.5,240.5 
		144.5,240.5 144.5,240.5 144.5,240.5 144.5,240.5 144.5,241.5 145.5,241.5 145.5,241.5 145.5,241.5 145.5,241.5 145.5,241.5 
		145.5,241.5 145.5,241.5 145.5,241.5 145.5,242.5 146.5,242.5 146.5,242.5 146.5,242.5 146.5,242.5 146.5,242.5 146.5,242.5 
		146.5,242.5 146.5,242.5 146.5,242.5 147.5,242.5 147.5,242.5 147.5,242.5 147.5,243.5 147.5,243.5 147.5,243.5 147.5,243.5 
		147.5,243.5 148.5,243.5 148.5,243.5 148.5,243.5 148.5,243.5 148.5,244.5 148.5,244.5 148.5,244.5 148.5,244.5 148.5,244.5 
		149.5,244.5 149.5,244.5 149.5,244.5 149.5,244.5 149.5,245.5 149.5,245.5 149.5,245.5 149.5,245.5 149.5,245.5 150.5,245.5 
		150.5,245.5 150.5,245.5 150.5,245.5 150.5,245.5 150.5,245.5 150.5,245.5 150.5,245.5 150.5,245.5 151.5,245.5 151.5,245.5 
		151.5,245.5 151.5,245.5 151.5,245.5 151.5,245.5 151.5,246.5 151.5,246.5 152.5,246.5 152.5,246.5 152.5,246.5 152.5,246.5 
		152.5,246.5 152.5,246.5 152.5,246.5 152.5,246.5 152.5,246.5 153.5,246.5 153.5,246.5 153.5,246.5 153.5,246.5 153.5,246.5 
		153.5,246.5 153.5,246.5 153.5,246.5 153.5,246.5 154.5,246.5 154.5,245.5 154.5,245.5 154.5,245.5 154.5,245.5 154.5,245.5 
		154.5,245.5 154.5,245.5 155.5,244.5 155.5,244.5 155.5,244.5 155.5,244.5 155.5,244.5 155.5,244.5 155.5,244.5 155.5,244.5 
		155.5,244.5 156.5,244.5 156.5,244.5 156.5,243.5 156.5,243.5 156.5,243.5 156.5,243.5 156.5,243.5 156.5,243.5 156.5,243.5 
		157.5,243.5 157.5,243.5 157.5,243.5 157.5,243.5 157.5,243.5 157.5,242.5 157.5,242.5 157.5,242.5 158.5,242.5 158.5,242.5 
		158.5,241.5 158.5,241.5 158.5,241.5 158.5,241.5 158.5,241.5 158.5,241.5 158.5,241.5 159.5,241.5 159.5,241.5 159.5,240.5 
		159.5,240.5 159.5,240.5 159.5,240.5 159.5,240.5 159.5,239.5 159.5,239.5 160.5,239.5 160.5,239.5 160.5,239.5 160.5,238.5 
		160.5,238.5 160.5,238.5 160.5,238.5 160.5,238.5 161.5,237.5 161.5,237.5 161.5,237.5 161.5,237.5 161.5,236.5 161.5,236.5 
		161.5,236.5 161.5,236.5 161.5,236.5 162.5,236.5 162.5,235.5 162.5,235.5 162.5,235.5 162.5,235.5 162.5,235.5 162.5,235.5 
		162.5,235.5 162.5,234.5 163.5,234.5 163.5,234.5 163.5,234.5 163.5,234.5 163.5,234.5 163.5,234.5 163.5,234.5 163.5,234.5 
		164.5,234.5 164.5,234.5 164.5,233.5 164.5,233.5 164.5,233.5 164.5,233.5 164.5,233.5 164.5,233.5 164.5,233.5 165.5,233.5 
		165.5,233.5 165.5,233.5 165.5,233.5 165.5,233.5 165.5,233.5 165.5,232.5 165.5,232.5 165.5,232.5 166.5,232.5 166.5,232.5 
		166.5,232.5 166.5,231.5 166.5,231.5 166.5,231.5 166.5,231.5 166.5,230.5 167.5,230.5 167.5,230.5 167.5,230.5 167.5,230.5 
		167.5,230.5 167.5,230.5 167.5,230.5 167.5,229.5 167.5,229.5 168.5,229.5 168.5,229.5 168.5,229.5 168.5,229.5 168.5,229.5 
		168.5,229.5 168.5,229.5 168.5,229.5 168.5,229.5 169.5,229.5 169.5,229.5 169.5,229.5 169.5,229.5 169.5,229.5 169.5,230.5 
		169.5,230.5 169.5,231.5 169.5,231.5 170.5,231.5 170.5,232.5 170.5,232.5 170.5,233.5 170.5,232.5 170.5,232.5 170.5,232.5 
		170.5,232.5 171.5,231.5 171.5,231.5 171.5,231.5 171.5,231.5 171.5,231.5 171.5,231.5 171.5,230.5 171.5,230.5 171.5,230.5 
		172.5,230.5 172.5,230.5 172.5,231.5 172.5,231.5 172.5,231.5 172.5,230.5 172.5,231.5 172.5,232.5 172.5,233.5 173.5,234.5 
		173.5,236.5 173.5,237.5 173.5,239.5 173.5,241.5 173.5,242.5 173.5,243.5 173.5,243.5 174.5,244.5 174.5,244.5 174.5,242.5 
		174.5,240.5 174.5,239.5 174.5,238.5 174.5,236.5 174.5,235.5 174.5,234.5 175.5,233.5 175.5,232.5 175.5,231.5 175.5,229.5 
		175.5,229.5 175.5,229.5 175.5,229.5 175.5,229.5 175.5,229.5 176.5,229.5 176.5,229.5 176.5,229.5 176.5,229.5 176.5,230.5 
		176.5,230.5 176.5,230.5 176.5,230.5 177.5,231.5 177.5,231.5 177.5,230.5 177.5,230.5 177.5,230.5 177.5,230.5 177.5,230.5 
		177.5,230.5 177.5,231.5 178.5,231.5 178.5,231.5 178.5,231.5 178.5,231.5 178.5,231.5 178.5,231.5 178.5,231.5 178.5,231.5 
		178.5,232.5 179.5,232.5 179.5,233.5 179.5,234.5 179.5,236.5 179.5,236.5 179.5,238.5 179.5,239.5 179.5,241.5 180.5,242.5 
		180.5,243.5 180.5,245.5 180.5,246.5 180.5,247.5 180.5,248.5 180.5,250.5 180.5,251.5 180.5,252.5 181.5,253.5 181.5,254.5 
		181.5,255.5 181.5,255.5 181.5,256.5 181.5,256.5 181.5,256.5 181.5,256.5 181.5,255.5 182.5,255.5 182.5,254.5 182.5,254.5 
		182.5,253.5 182.5,252.5 182.5,251.5 182.5,249.5 182.5,248.5 183.5,247.5 183.5,246.5 183.5,245.5 183.5,244.5 183.5,243.5 
		183.5,242.5 183.5,241.5 183.5,240.5 183.5,239.5 184.5,238.5 184.5,237.5 184.5,236.5 184.5,236.5 184.5,235.5 184.5,235.5 
		184.5,234.5 184.5,233.5 184.5,232.5 185.5,232.5 185.5,231.5 185.5,231.5 185.5,230.5 185.5,228.5 185.5,227.5 185.5,227.5 
		185.5,227.5 186.5,227.5 186.5,227.5 186.5,227.5 186.5,227.5 186.5,227.5 186.5,226.5 186.5,226.5 186.5,225.5 186.5,225.5 
		187.5,225.5 187.5,225.5 187.5,223.5 187.5,223.5 187.5,222.5 187.5,222.5 187.5,222.5 187.5,222.5 187.5,222.5 188.5,223.5 
		188.5,223.5 188.5,223.5 188.5,223.5 188.5,224.5 188.5,225.5 188.5,226.5 188.5,227.5 189.5,226.5 189.5,226.5 189.5,225.5 
		189.5,225.5 189.5,225.5 189.5,225.5 189.5,224.5 189.5,224.5 189.5,224.5 190.5,224.5 190.5,224.5 190.5,223.5 190.5,223.5 
		190.5,223.5 190.5,223.5 190.5,223.5 190.5,222.5 190.5,222.5 191.5,222.5 191.5,221.5 191.5,221.5 191.5,221.5 191.5,221.5 
		191.5,221.5 191.5,221.5 191.5,221.5 191.5,222.5 192.5,222.5 192.5,223.5 192.5,224.5 192.5,225.5 192.5,225.5 192.5,226.5 
		192.5,226.5 192.5,227.5 193.5,227.5 193.5,228.5 193.5,228.5 193.5,228.5 193.5,228.5 193.5,228.5 193.5,228.5 193.5,228.5 
		193.5,228.5 194.5,227.5 194.5,226.5 194.5,226.5 194.5,226.5 194.5,225.5 194.5,225.5 194.5,224.5 194.5,224.5 194.5,223.5 
		195.5,223.5 195.5,223.5 195.5,223.5 195.5,222.5 195.5,222.5 195.5,222.5 195.5,221.5 195.5,221.5 196.5,221.5 196.5,221.5 
		196.5,221.5 196.5,220.5 196.5,220.5 196.5,220.5 196.5,220.5 196.5,219.5 196.5,219.5 197.5,219.5 197.5,219.5 197.5,219.5 
		197.5,218.5 197.5,218.5 197.5,218.5 197.5,218.5 197.5,218.5 197.5,218.5 198.5,218.5 198.5,218.5 198.5,218.5 198.5,217.5 
		198.5,217.5 198.5,217.5 198.5,217.5 198.5,216.5 199.5,216.5 199.5,215.5 199.5,215.5 199.5,214.5 199.5,213.5 199.5,213.5 
		199.5,212.5 199.5,212.5 199.5,211.5 200.5,210.5 200.5,210.5 200.5,209.5 200.5,208.5 200.5,207.5 200.5,207.5 200.5,206.5 
		200.5,205.5 200.5,204.5 201.5,204.5 201.5,203.5 201.5,202.5 201.5,202.5 201.5,201.5 201.5,200.5 201.5,200.5 201.5,200.5 
		202.5,200.5 202.5,200.5 202.5,199.5 202.5,199.5 202.5,199.5 202.5,199.5 202.5,199.5 202.5,199.5 202.5,199.5 203.5,199.5 
		203.5,199.5 203.5,199.5 203.5,199.5 203.5,199.5 203.5,199.5 203.5,198.5 203.5,198.5 203.5,198.5 204.5,198.5 204.5,198.5 
		204.5,198.5 204.5,198.5 204.5,198.5 204.5,198.5 204.5,198.5 204.5,197.5 205.5,197.5 205.5,197.5 205.5,197.5 205.5,197.5 
		205.5,197.5 205.5,197.5 205.5,197.5 205.5,197.5 205.5,197.5 206.5,197.5 206.5,197.5 206.5,197.5 206.5,197.5 206.5,196.5 
		206.5,196.5 206.5,196.5 206.5,196.5 206.5,196.5 207.5,195.5 207.5,195.5 207.5,195.5 207.5,195.5 207.5,195.5 207.5,194.5 
		207.5,194.5 207.5,194.5 208.5,194.5 208.5,193.5 208.5,193.5 208.5,193.5 208.5,194.5 208.5,194.5 208.5,195.5 208.5,195.5 
		208.5,195.5 209.5,195.5 209.5,195.5 209.5,195.5 209.5,194.5 209.5,194.5 209.5,194.5 209.5,194.5 209.5,193.5 209.5,193.5 
		210.5,193.5 210.5,192.5 210.5,192.5 210.5,192.5 210.5,191.5 210.5,191.5 210.5,190.5 210.5,189.5 210.5,189.5 211.5,189.5 
		211.5,189.5 211.5,189.5 211.5,189.5 211.5,189.5 211.5,189.5 211.5,189.5 211.5,189.5 212.5,189.5 212.5,189.5 212.5,190.5 
		212.5,190.5 212.5,190.5 212.5,191.5 212.5,191.5 212.5,192.5 212.5,192.5 213.5,192.5 213.5,193.5 213.5,193.5 213.5,193.5 
		213.5,194.5 213.5,194.5 213.5,195.5 213.5,195.5 213.5,196.5 214.5,196.5 214.5,197.5 214.5,197.5 214.5,197.5 214.5,198.5 
		214.5,197.5 214.5,197.5 214.5,197.5 215.5,196.5 215.5,196.5 215.5,196.5 215.5,196.5 215.5,195.5 215.5,195.5 215.5,195.5 
		215.5,195.5 215.5,194.5 216.5,194.5 216.5,194.5 216.5,195.5 216.5,195.5 216.5,195.5 216.5,195.5 216.5,195.5 216.5,195.5 
		216.5,195.5 217.5,195.5 217.5,195.5 217.5,195.5 217.5,195.5 217.5,196.5 217.5,196.5 217.5,196.5 217.5,196.5 218.5,196.5 
		218.5,196.5 218.5,196.5 218.5,196.5 218.5,197.5 218.5,197.5 218.5,197.5 218.5,197.5 218.5,197.5 219.5,197.5 219.5,198.5 
		219.5,198.5 219.5,198.5 219.5,198.5 219.5,198.5 219.5,199.5 219.5,200.5 219.5,200.5 220.5,201.5 220.5,201.5 220.5,201.5 
		220.5,202.5 220.5,202.5 220.5,203.5 220.5,203.5 220.5,203.5 221.5,203.5 221.5,204.5 221.5,204.5 221.5,204.5 221.5,205.5 
		221.5,205.5 221.5,205.5 221.5,206.5 221.5,206.5 222.5,207.5 222.5,207.5 222.5,208.5 222.5,208.5 222.5,209.5 222.5,210.5 
		222.5,210.5 222.5,210.5 222.5,211.5 223.5,212.5 223.5,212.5 223.5,212.5 223.5,213.5 223.5,214.5 223.5,214.5 223.5,214.5 
		223.5,214.5 224.5,214.5 224.5,213.5 224.5,213.5 224.5,213.5 224.5,212.5 224.5,212.5 224.5,211.5 224.5,211.5 224.5,210.5 
		225.5,210.5 225.5,209.5 225.5,209.5 225.5,208.5 225.5,208.5 225.5,208.5 225.5,207.5 225.5,207.5 225.5,207.5 226.5,207.5 
		226.5,207.5 226.5,208.5 226.5,208.5 226.5,208.5 226.5,208.5 226.5,207.5 226.5,207.5 227.5,207.5 227.5,207.5 227.5,207.5 
		227.5,207.5 227.5,207.5 227.5,207.5 227.5,207.5 227.5,206.5 227.5,206.5 228.5,206.5 228.5,206.5 228.5,206.5 228.5,206.5 
		228.5,206.5 228.5,206.5 228.5,205.5 228.5,205.5 228.5,205.5 229.5,205.5 229.5,205.5 229.5,206.5 229.5,206.5 229.5,206.5 
		229.5,207.5 229.5,207.5 229.5,207.5 229.5,208.5 230.5,208.5 230.5,209.5 230.5,210.5 230.5,210.5 230.5,211.5 230.5,211.5 
		230.5,212.5 230.5,213.5 231.5,214.5 231.5,214.5 231.5,215.5 231.5,215.5 231.5,216.5 231.5,216.5 231.5,216.5 231.5,216.5 
		231.5,216.5 232.5,216.5 232.5,216.5 232.5,216.5 232.5,215.5 232.5,215.5 232.5,215.5 232.5,214.5 232.5,214.5 232.5,214.5 
		233.5,213.5 233.5,213.5 233.5,212.5 233.5,212.5 233.5,211.5 233.5,211.5 233.5,211.5 233.5,211.5 234.5,211.5 234.5,211.5 
		234.5,211.5 234.5,211.5 234.5,211.5 234.5,211.5 234.5,211.5 234.5,211.5 234.5,211.5 235.5,212.5 235.5,212.5 235.5,212.5 
		235.5,212.5 235.5,212.5 235.5,212.5 235.5,213.5 235.5,212.5 235.5,212.5 236.5,212.5 236.5,211.5 236.5,211.5 236.5,211.5 
		236.5,210.5 236.5,210.5 236.5,210.5 236.5,210.5 237.5,210.5 237.5,210.5 237.5,209.5 237.5,209.5 237.5,209.5 237.5,208.5 
		237.5,208.5 237.5,208.5 237.5,208.5 238.5,208.5 238.5,207.5 238.5,207.5 238.5,207.5 238.5,206.5 238.5,206.5 238.5,206.5 
		238.5,205.5 238.5,205.5 239.5,205.5 239.5,205.5 239.5,204.5 239.5,204.5 239.5,204.5 239.5,204.5 239.5,204.5 239.5,204.5 
		240.5,204.5 240.5,204.5 240.5,204.5 240.5,203.5 240.5,203.5 240.5,203.5 240.5,203.5 240.5,204.5 240.5,204.5 241.5,204.5 
		241.5,204.5 241.5,204.5 241.5,205.5 241.5,205.5 241.5,205.5 241.5,206.5 241.5,206.5 241.5,207.5 242.5,207.5 242.5,207.5 
		242.5,208.5 242.5,209.5 242.5,209.5 242.5,209.5 242.5,210.5 242.5,210.5 243.5,210.5 243.5,211.5 243.5,211.5 243.5,211.5 
		243.5,212.5 243.5,212.5 243.5,212.5 243.5,213.5 243.5,213.5 244.5,214.5 244.5,214.5 244.5,214.5 244.5,215.5 244.5,215.5 
		244.5,215.5 244.5,216.5 244.5,216.5 244.5,216.5 245.5,216.5 245.5,216.5 245.5,216.5 245.5,216.5 245.5,215.5 245.5,215.5 
		245.5,215.5 245.5,215.5 246.5,215.5 246.5,214.5 246.5,214.5 246.5,214.5 246.5,214.5 246.5,214.5 246.5,214.5 246.5,215.5 
		246.5,215.5 247.5,215.5 247.5,214.5 247.5,213.5 247.5,212.5 247.5,212.5 247.5,212.5 247.5,212.5 247.5,211.5 247.5,211.5 
		248.5,211.5 248.5,211.5 248.5,211.5 248.5,211.5 248.5,211.5 248.5,211.5 248.5,211.5 248.5,211.5 249.5,211.5 249.5,211.5 
		249.5,210.5 249.5,211.5 249.5,211.5 249.5,210.5 249.5,210.5 249.5,210.5 249.5,211.5 250.5,211.5 250.5,211.5 250.5,211.5 
		250.5,211.5 250.5,211.5 250.5,211.5 250.5,211.5 250.5,211.5 250.5,211.5 251.5,211.5 251.5,211.5 251.5,212.5 251.5,212.5 
		251.5,212.5 251.5,212.5 251.5,212.5 251.5,212.5 251.5,212.5 252.5,213.5 252.5,213.5 252.5,213.5 252.5,213.5 252.5,213.5 
		252.5,213.5 252.5,213.5 252.5,213.5 253.5,213.5 253.5,213.5 253.5,213.5 253.5,213.5 253.5,213.5 253.5,213.5 253.5,213.5 
		253.5,213.5 253.5,213.5 254.5,213.5 254.5,213.5 254.5,212.5 254.5,212.5 254.5,212.5 254.5,211.5 254.5,211.5 254.5,211.5 
		254.5,211.5 255.5,211.5 255.5,211.5 255.5,211.5 255.5,211.5 255.5,211.5 255.5,211.5 255.5,211.5 255.5,211.5 256.5,211.5 
		256.5,211.5 256.5,210.5 256.5,210.5 256.5,210.5 256.5,210.5 256.5,210.5 256.5,210.5 256.5,210.5 257.5,210.5 257.5,210.5 
		257.5,210.5 257.5,210.5 257.5,210.5 257.5,210.5 257.5,210.5 257.5,209.5 257.5,209.5 258.5,209.5 258.5,209.5 258.5,209.5 
		258.5,209.5 258.5,209.5 258.5,209.5 258.5,209.5 258.5,209.5 259.5,209.5 259.5,209.5 259.5,209.5 259.5,209.5 259.5,209.5 
		259.5,209.5 259.5,209.5 259.5,209.5 259.5,209.5 260.5,208.5 260.5,208.5 260.5,208.5 260.5,207.5 260.5,207.5 260.5,207.5 
		260.5,207.5 260.5,206.5 260.5,206.5 261.5,206.5 261.5,206.5 261.5,206.5 261.5,206.5 261.5,206.5 261.5,205.5 261.5,205.5 
		261.5,205.5 262.5,205.5 262.5,205.5 262.5,205.5 262.5,205.5 262.5,205.5 262.5,205.5 262.5,204.5 262.5,204.5 262.5,204.5 
		263.5,204.5 263.5,204.5 263.5,204.5 263.5,204.5 263.5,203.5 263.5,203.5 263.5,203.5 263.5,203.5 263.5,203.5 264.5,203.5 
		264.5,203.5 264.5,202.5 264.5,202.5 264.5,202.5 264.5,202.5 264.5,202.5 264.5,202.5 265.5,201.5 265.5,201.5 265.5,201.5 
		265.5,201.5 265.5,200.5 265.5,200.5 265.5,200.5 265.5,200.5 265.5,200.5 266.5,200.5 266.5,200.5 266.5,199.5 266.5,199.5 
		266.5,199.5 266.5,199.5 266.5,199.5 266.5,199.5 266.5,199.5 267.5,199.5 267.5,199.5 267.5,198.5 267.5,198.5 267.5,198.5 
		267.5,198.5 267.5,198.5 267.5,198.5 268.5,198.5 268.5,197.5 268.5,197.5 268.5,197.5 268.5,197.5 268.5,196.5 268.5,196.5 
		268.5,196.5 268.5,196.5 269.5,196.5 269.5,196.5 269.5,196.5 269.5,195.5 269.5,195.5 269.5,195.5 269.5,195.5 269.5,195.5 
		269.5,195.5 270.5,195.5 270.5,195.5 270.5,195.5 270.5,195.5 270.5,195.5 270.5,195.5 270.5,195.5 270.5,195.5 270.5,195.5 
		271.5,195.5 271.5,195.5 271.5,195.5 271.5,195.5 271.5,196.5 271.5,196.5 271.5,196.5 271.5,196.5 272.5,197.5 272.5,197.5 
		272.5,198.5 272.5,198.5 272.5,199.5 272.5,200.5 272.5,200.5 272.5,200.5 272.5,200.5 273.5,200.5 273.5,200.5 273.5,199.5 
		273.5,199.5 273.5,198.5 273.5,198.5 273.5,198.5 273.5,197.5 273.5,196.5 274.5,196.5 274.5,196.5 274.5,196.5 274.5,196.5 
		274.5,196.5 274.5,196.5 274.5,196.5 274.5,197.5 275.5,197.5 275.5,197.5 275.5,198.5 275.5,198.5 275.5,198.5 275.5,199.5 
		275.5,200.5 275.5,200.5 275.5,201.5 276.5,201.5 276.5,201.5 276.5,202.5 276.5,202.5 276.5,203.5 276.5,203.5 276.5,203.5 
		276.5,203.5 276.5,204.5 277.5,204.5 277.5,205.5 277.5,205.5 277.5,206.5 277.5,206.5 277.5,207.5 277.5,207.5 277.5,209.5 
		278.5,209.5 278.5,210.5 278.5,211.5 278.5,211.5 278.5,212.5 278.5,212.5 278.5,213.5 278.5,214.5 278.5,215.5 279.5,216.5 
		279.5,217.5 279.5,217.5 279.5,217.5 279.5,218.5 279.5,219.5 279.5,220.5 279.5,221.5 279.5,222.5 280.5,223.5 280.5,224.5 
		280.5,225.5 280.5,226.5 280.5,226.5 280.5,227.5 280.5,227.5 280.5,227.5 281.5,228.5 281.5,228.5 281.5,228.5 281.5,228.5 
		281.5,229.5 281.5,229.5 281.5,229.5 281.5,229.5 281.5,229.5 282.5,229.5 282.5,230.5 282.5,230.5 282.5,230.5 282.5,230.5 
		282.5,230.5 282.5,230.5 282.5,231.5 282.5,231.5 283.5,231.5 283.5,231.5 283.5,231.5 283.5,231.5 283.5,230.5 283.5,230.5 
		283.5,230.5 283.5,230.5 284.5,229.5 284.5,229.5 284.5,229.5 284.5,229.5 284.5,228.5 284.5,228.5 284.5,228.5 284.5,228.5 
		284.5,228.5 285.5,228.5 285.5,227.5 285.5,227.5 285.5,227.5 285.5,227.5 285.5,227.5 285.5,227.5 285.5,227.5 285.5,226.5 
		286.5,226.5 286.5,226.5 286.5,226.5 286.5,226.5 286.5,226.5 286.5,226.5 286.5,226.5 286.5,226.5 287.5,226.5 287.5,227.5 
		287.5,227.5 287.5,227.5 287.5,227.5 287.5,227.5 287.5,227.5 287.5,226.5 287.5,226.5 288.5,226.5 288.5,226.5 288.5,226.5 
		288.5,225.5 288.5,225.5 288.5,225.5 288.5,224.5 288.5,224.5 288.5,224.5 289.5,223.5 289.5,223.5 289.5,222.5 289.5,222.5 
		289.5,222.5 289.5,221.5 289.5,221.5 289.5,221.5 290.5,221.5 290.5,221.5 290.5,221.5 290.5,221.5 290.5,220.5 290.5,220.5 
		290.5,220.5 290.5,220.5 290.5,220.5 291.5,220.5 291.5,220.5 291.5,221.5 291.5,221.5 291.5,222.5 291.5,222.5 291.5,223.5 
		291.5,223.5 291.5,224.5 292.5,224.5 292.5,224.5 292.5,224.5 292.5,224.5 292.5,224.5 292.5,223.5 292.5,223.5 292.5,222.5 
		292.5,222.5 293.5,221.5 293.5,220.5 293.5,220.5 293.5,219.5 293.5,218.5 293.5,218.5 293.5,217.5 293.5,217.5 294.5,217.5 
		294.5,217.5 294.5,216.5 294.5,216.5 294.5,216.5 294.5,215.5 294.5,215.5 294.5,215.5 294.5,215.5 295.5,216.5 295.5,216.5 
		295.5,217.5 295.5,217.5 295.5,217.5 295.5,218.5 295.5,218.5 295.5,218.5 295.5,217.5 296.5,217.5 296.5,216.5 296.5,217.5 
		296.5,217.5 296.5,217.5 296.5,217.5 296.5,217.5 296.5,217.5 297.5,217.5 297.5,218.5 297.5,218.5 297.5,218.5 297.5,218.5 
		297.5,218.5 297.5,218.5 297.5,219.5 297.5,219.5 298.5,219.5 298.5,219.5 298.5,219.5 298.5,219.5 298.5,220.5 298.5,220.5 
		298.5,220.5 298.5,221.5 298.5,221.5 299.5,222.5 299.5,222.5 299.5,223.5 299.5,223.5 299.5,224.5 299.5,224.5 299.5,224.5 
		299.5,224.5 300.5,224.5 300.5,223.5 300.5,223.5 300.5,223.5 300.5,222.5 300.5,222.5 300.5,221.5 300.5,222.5 300.5,222.5 
		301.5,223.5 301.5,224.5 301.5,224.5 301.5,224.5 301.5,225.5 301.5,225.5 301.5,226.5 301.5,226.5 301.5,227.5 302.5,227.5 
		302.5,227.5 302.5,228.5 302.5,228.5 302.5,228.5 302.5,228.5 302.5,229.5 302.5,229.5 303.5,229.5 303.5,229.5 303.5,230.5 
		303.5,230.5 303.5,230.5 303.5,230.5 303.5,230.5 303.5,231.5 303.5,231.5 304.5,231.5 304.5,232.5 304.5,232.5 304.5,233.5 
		304.5,233.5 304.5,233.5 304.5,234.5 304.5,235.5 304.5,235.5 305.5,236.5 305.5,236.5 305.5,237.5 305.5,237.5 305.5,237.5 
		305.5,237.5 305.5,237.5 305.5,237.5 306.5,237.5 306.5,237.5 306.5,237.5 306.5,237.5 306.5,236.5 306.5,236.5 306.5,236.5 
		306.5,236.5 306.5,236.5 307.5,235.5 307.5,235.5 307.5,235.5 307.5,234.5 307.5,234.5 307.5,233.5 307.5,233.5 307.5,233.5 
		307.5,232.5 308.5,232.5 308.5,231.5 308.5,231.5 308.5,230.5 308.5,230.5 308.5,229.5 308.5,228.5 308.5,228.5 309.5,227.5 
		309.5,227.5 309.5,227.5 309.5,226.5 309.5,226.5 309.5,226.5 309.5,225.5 309.5,225.5 309.5,225.5 310.5,225.5 310.5,224.5 
		310.5,224.5 310.5,224.5 310.5,223.5 310.5,223.5 310.5,223.5 310.5,223.5 310.5,222.5 311.5,222.5 311.5,222.5 311.5,222.5 
		311.5,222.5 311.5,222.5 311.5,222.5 311.5,222.5 311.5,222.5 311.5,222.5 312.5,222.5 312.5,222.5 312.5,222.5 312.5,222.5 
		312.5,222.5 312.5,222.5 312.5,222.5 312.5,222.5 313.5,222.5 313.5,222.5 313.5,222.5 313.5,222.5 313.5,222.5 313.5,222.5 
		313.5,223.5 313.5,223.5 313.5,223.5 314.5,223.5 314.5,223.5 314.5,223.5 314.5,223.5 314.5,223.5 314.5,224.5 314.5,224.5 
		314.5,225.5 314.5,225.5 315.5,225.5 315.5,225.5 315.5,226.5 315.5,226.5 315.5,227.5 315.5,228.5 315.5,228.5 315.5,229.5 
		316.5,229.5 316.5,230.5 316.5,230.5 316.5,231.5 316.5,232.5 316.5,232.5 316.5,232.5 316.5,233.5 316.5,233.5 317.5,233.5 
		317.5,233.5 317.5,233.5 317.5,233.5 317.5,234.5 317.5,234.5 317.5,234.5 317.5,234.5 317.5,235.5 318.5,235.5 318.5,235.5 
		318.5,235.5 318.5,235.5 318.5,235.5 318.5,235.5 318.5,236.5 318.5,236.5 319.5,236.5 319.5,236.5 319.5,236.5 319.5,237.5 
		319.5,237.5 319.5,238.5 319.5,238.5 319.5,238.5 319.5,238.5 320.5,238.5 320.5,239.5 320.5,239.5 320.5,239.5 320.5,239.5 
		320.5,239.5 320.5,239.5 320.5,239.5 320.5,239.5 321.5,239.5 321.5,239.5 321.5,239.5 321.5,240.5 321.5,240.5 321.5,240.5 
		321.5,240.5 321.5,240.5 322.5,240.5 322.5,239.5 322.5,239.5 322.5,239.5 322.5,239.5 322.5,239.5 322.5,239.5 322.5,239.5 
		322.5,238.5 323.5,237.5 323.5,237.5 323.5,236.5 323.5,236.5 323.5,235.5 323.5,235.5 323.5,234.5 323.5,233.5 323.5,233.5 
		324.5,232.5 324.5,232.5 324.5,232.5 324.5,232.5 324.5,231.5 324.5,231.5 324.5,231.5 324.5,231.5 325.5,231.5 325.5,231.5 
		325.5,231.5 325.5,231.5 325.5,231.5 325.5,231.5 325.5,232.5 325.5,232.5 325.5,232.5 326.5,232.5 326.5,232.5 326.5,232.5 
		326.5,232.5 326.5,232.5 326.5,232.5 326.5,233.5 326.5,233.5 326.5,233.5 327.5,233.5 327.5,233.5 327.5,233.5 327.5,233.5 
		327.5,233.5 327.5,233.5 327.5,234.5 327.5,234.5 328.5,234.5 328.5,234.5 328.5,234.5 328.5,234.5 328.5,235.5 328.5,235.5 
		328.5,235.5 328.5,236.5 328.5,236.5 329.5,237.5 329.5,237.5 329.5,237.5 329.5,237.5 329.5,238.5 329.5,238.5 329.5,237.5 
		329.5,237.5 329.5,237.5 330.5,237.5 330.5,237.5 330.5,237.5 330.5,237.5 330.5,237.5 330.5,237.5 330.5,237.5 330.5,237.5 
		330.5,237.5 331.5,237.5 331.5,237.5 331.5,237.5 331.5,237.5 331.5,237.5 331.5,237.5 331.5,237.5 331.5,237.5 332.5,237.5 
		332.5,237.5 332.5,237.5 332.5,237.5 332.5,237.5 332.5,237.5 332.5,237.5 332.5,237.5 332.5,237.5 333.5,237.5 333.5,237.5 
		333.5,237.5 333.5,237.5 333.5,237.5 333.5,237.5 333.5,237.5 333.5,237.5 333.5,237.5 334.5,237.5 334.5,237.5 334.5,236.5 
		334.5,236.5 334.5,235.5 334.5,235.5 334.5,234.5 334.5,234.5 335.5,234.5 335.5,233.5 335.5,233.5 335.5,233.5 335.5,232.5 
		335.5,232.5 335.5,232.5 335.5,231.5 335.5,231.5 336.5,230.5 336.5,230.5 336.5,229.5 336.5,229.5 336.5,228.5 336.5,228.5 
		336.5,228.5 336.5,227.5 336.5,227.5 337.5,227.5 337.5,226.5 337.5,226.5 337.5,226.5 337.5,226.5 337.5,225.5 337.5,225.5 
		337.5,225.5 338.5,225.5 338.5,225.5 338.5,225.5 338.5,225.5 338.5,225.5 338.5,226.5 338.5,226.5 338.5,226.5 338.5,226.5 
		339.5,226.5 339.5,226.5 339.5,226.5 339.5,226.5 339.5,226.5 339.5,226.5 339.5,226.5 339.5,226.5 339.5,226.5 340.5,226.5 
		340.5,226.5 340.5,225.5 340.5,225.5 340.5,225.5 340.5,225.5 340.5,224.5 340.5,224.5 341.5,224.5 341.5,223.5 341.5,223.5 
		341.5,223.5 341.5,223.5 341.5,222.5 341.5,222.5 341.5,222.5 341.5,222.5 342.5,222.5 342.5,222.5 342.5,223.5 342.5,223.5 
		342.5,223.5 342.5,223.5 342.5,223.5 342.5,223.5 342.5,223.5 343.5,223.5 343.5,223.5 343.5,223.5 343.5,223.5 343.5,223.5 
		343.5,223.5 343.5,223.5 343.5,223.5 344.5,223.5 344.5,222.5 344.5,222.5 344.5,222.5 344.5,222.5 344.5,222.5 344.5,222.5 
		344.5,221.5 344.5,221.5 345.5,221.5 345.5,221.5 345.5,221.5 345.5,220.5 345.5,220.5 345.5,220.5 345.5,220.5 345.5,220.5 
		345.5,219.5 346.5,219.5 346.5,219.5 346.5,219.5 346.5,218.5 346.5,218.5 346.5,218.5 346.5,218.5 346.5,218.5 347.5,218.5 
		347.5,218.5 347.5,219.5 347.5,219.5 347.5,219.5 347.5,219.5 347.5,219.5 347.5,218.5 347.5,218.5 348.5,218.5 348.5,218.5 
		348.5,218.5 348.5,219.5 348.5,219.5 348.5,219.5 348.5,219.5 348.5,219.5 348.5,219.5 349.5,219.5 349.5,219.5 349.5,219.5 
		349.5,219.5 349.5,219.5 349.5,219.5 349.5,219.5 349.5,219.5 350.5,219.5 350.5,219.5 350.5,219.5 350.5,219.5 350.5,219.5 
		350.5,219.5 350.5,219.5 350.5,219.5 350.5,220.5 351.5,220.5 351.5,220.5 351.5,220.5 351.5,221.5 351.5,221.5 351.5,221.5 
		351.5,221.5 351.5,221.5 351.5,221.5 352.5,222.5 352.5,222.5 352.5,222.5 352.5,222.5 352.5,222.5 352.5,222.5 352.5,222.5 
		352.5,222.5 352.5,222.5 353.5,222.5 353.5,222.5 353.5,222.5 353.5,222.5 353.5,222.5 353.5,223.5 353.5,223.5 353.5,223.5 
		354.5,223.5 354.5,222.5 354.5,222.5 354.5,222.5 354.5,222.5 354.5,222.5 354.5,222.5 354.5,222.5 354.5,221.5 355.5,221.5 
		355.5,221.5 355.5,221.5 355.5,220.5 355.5,219.5 355.5,219.5 355.5,219.5 355.5,218.5 355.5,218.5 356.5,218.5 356.5,217.5 
		356.5,217.5 356.5,217.5 356.5,216.5 356.5,216.5 356.5,216.5 356.5,215.5 357.5,215.5 357.5,215.5 357.5,215.5 357.5,215.5 
		357.5,215.5 357.5,215.5 357.5,215.5 357.5,215.5 357.5,214.5 358.5,214.5 358.5,214.5 358.5,214.5 358.5,214.5 358.5,214.5 
		358.5,214.5 358.5,214.5 358.5,214.5 358.5,214.5 359.5,214.5 359.5,213.5 359.5,213.5 359.5,213.5 359.5,213.5 359.5,213.5 
		359.5,214.5 359.5,214.5 360.5,214.5 360.5,214.5 360.5,214.5 360.5,215.5 360.5,215.5 360.5,216.5 360.5,216.5 360.5,216.5 
		360.5,216.5 361.5,217.5 361.5,217.5 361.5,217.5 361.5,218.5 361.5,218.5 361.5,218.5 361.5,218.5 361.5,219.5 361.5,219.5 
		362.5,219.5 362.5,219.5 362.5,220.5 362.5,220.5 362.5,220.5 362.5,221.5 362.5,221.5 362.5,221.5 363.5,221.5 363.5,221.5 
		363.5,222.5 363.5,222.5 363.5,222.5 363.5,222.5 363.5,222.5 363.5,221.5 363.5,221.5 364.5,221.5 364.5,220.5 364.5,220.5 
		364.5,220.5 364.5,219.5 364.5,219.5 364.5,219.5 364.5,218.5 364.5,218.5 365.5,218.5 365.5,218.5 365.5,218.5 365.5,218.5 
		365.5,218.5 365.5,218.5 365.5,218.5 365.5,218.5 366.5,218.5 366.5,218.5 366.5,218.5 366.5,218.5 366.5,219.5 366.5,219.5 
		366.5,219.5 366.5,219.5 366.5,219.5 367.5,220.5 367.5,220.5 367.5,220.5 367.5,221.5 367.5,221.5 367.5,221.5 367.5,221.5 
		367.5,222.5 367.5,222.5 368.5,223.5 368.5,223.5 368.5,223.5 368.5,224.5 368.5,224.5 368.5,224.5 368.5,224.5 368.5,225.5 
		369.5,225.5 369.5,225.5 369.5,226.5 369.5,226.5 369.5,226.5 369.5,227.5 369.5,227.5 369.5,227.5 369.5,227.5 370.5,227.5 
		370.5,228.5 370.5,228.5 370.5,228.5 370.5,228.5 370.5,229.5 370.5,229.5 370.5,229.5 370.5,229.5 371.5,229.5 371.5,229.5 
		371.5,229.5 371.5,228.5 371.5,228.5 371.5,228.5 371.5,227.5 371.5,227.5 371.5,227.5 372.5,226.5 372.5,226.5 372.5,226.5 
		372.5,225.5 372.5,225.5 372.5,225.5 372.5,225.5 372.5,224.5 373.5,224.5 373.5,224.5 373.5,224.5 373.5,224.5 373.5,224.5 
		373.5,224.5 373.5,224.5 373.5,224.5 373.5,224.5 374.5,224.5 374.5,224.5 374.5,225.5 374.5,225.5 374.5,225.5 374.5,225.5 
		374.5,226.5 374.5,226.5 374.5,226.5 375.5,227.5 375.5,227.5 375.5,227.5 375.5,227.5 375.5,227.5 375.5,227.5 375.5,226.5 
		375.5,226.5 376.5,226.5 376.5,225.5 376.5,225.5 376.5,224.5 376.5,224.5 376.5,223.5 376.5,223.5 376.5,223.5 376.5,222.5 
		377.5,221.5 377.5,220.5 377.5,220.5 377.5,219.5 377.5,219.5 377.5,218.5 377.5,217.5 377.5,217.5 377.5,216.5 378.5,215.5 
		378.5,214.5 378.5,214.5 378.5,214.5 378.5,214.5 378.5,214.5 378.5,214.5 378.5,214.5 379.5,214.5 379.5,214.5 379.5,214.5 
		379.5,214.5 379.5,214.5 379.5,214.5 379.5,214.5 379.5,214.5 379.5,215.5 380.5,215.5 380.5,215.5 380.5,215.5 380.5,216.5 
		380.5,216.5 380.5,217.5 380.5,217.5 380.5,217.5 380.5,218.5 381.5,218.5 381.5,219.5 381.5,219.5 381.5,220.5 381.5,220.5 
		381.5,220.5 381.5,221.5 381.5,221.5 382.5,221.5 382.5,221.5 382.5,221.5 382.5,222.5 382.5,222.5 382.5,222.5 382.5,222.5 
		382.5,222.5 382.5,222.5 383.5,222.5 383.5,222.5 383.5,223.5 383.5,223.5 383.5,223.5 383.5,223.5 383.5,224.5 383.5,224.5 
		383.5,224.5 384.5,224.5 384.5,225.5 384.5,225.5 384.5,225.5 384.5,225.5 384.5,226.5 384.5,226.5 384.5,226.5 385.5,227.5 
		385.5,227.5 385.5,227.5 385.5,228.5 385.5,228.5 385.5,228.5 385.5,228.5 385.5,228.5 385.5,228.5 386.5,228.5 386.5,228.5 
		386.5,228.5 386.5,228.5 386.5,229.5 386.5,229.5 386.5,229.5 386.5,229.5 386.5,229.5 387.5,229.5 387.5,229.5 387.5,229.5 
		387.5,229.5 387.5,229.5 387.5,229.5 387.5,229.5 387.5,229.5 388.5,229.5 388.5,229.5 388.5,229.5 388.5,229.5 388.5,229.5 
		388.5,228.5 388.5,228.5 388.5,228.5 388.5,228.5 389.5,228.5 389.5,228.5 389.5,228.5 389.5,228.5 389.5,228.5 389.5,228.5 
		389.5,228.5 389.5,228.5 389.5,228.5 390.5,228.5 390.5,228.5 390.5,228.5 390.5,228.5 390.5,228.5 390.5,228.5 390.5,227.5 
		390.5,227.5 391.5,227.5 391.5,227.5 391.5,227.5 391.5,227.5 391.5,227.5 391.5,227.5 391.5,227.5 391.5,227.5 391.5,227.5 
		392.5,226.5 392.5,226.5 392.5,226.5 392.5,226.5 392.5,225.5 392.5,225.5 392.5,224.5 392.5,224.5 392.5,224.5 393.5,224.5 
		393.5,224.5 393.5,224.5 393.5,224.5 393.5,223.5 393.5,223.5 393.5,223.5 393.5,222.5 393.5,222.5 394.5,222.5 394.5,221.5 
		394.5,221.5 394.5,220.5 394.5,219.5 394.5,219.5 394.5,218.5 394.5,217.5 395.5,216.5 395.5,216.5 395.5,215.5 395.5,214.5 
		395.5,214.5 395.5,213.5 395.5,212.5 395.5,212.5 395.5,211.5 396.5,211.5 396.5,210.5 396.5,210.5 396.5,210.5 396.5,210.5 
		396.5,210.5 396.5,210.5 396.5,210.5 396.5,210.5 397.5,210.5 397.5,210.5 397.5,211.5 397.5,211.5 397.5,211.5 397.5,211.5 
		397.5,211.5 397.5,211.5 398.5,211.5 398.5,210.5 398.5,209.5 398.5,209.5 398.5,208.5 398.5,207.5 398.5,207.5 398.5,206.5 
		398.5,205.5 399.5,204.5 399.5,204.5 399.5,203.5 399.5,202.5 399.5,201.5 399.5,200.5 399.5,199.5 399.5,198.5 399.5,197.5 
		400.5,195.5 400.5,194.5 400.5,192.5 400.5,192.5 400.5,191.5 400.5,190.5 400.5,190.5 400.5,189.5 401.5,189.5 401.5,189.5 
		401.5,188.5 401.5,188.5 401.5,187.5 401.5,187.5 401.5,187.5 401.5,186.5 401.5,186.5 402.5,186.5 402.5,186.5 402.5,185.5 
		402.5,185.5 402.5,184.5 402.5,184.5 402.5,184.5 402.5,183.5 402.5,183.5 403.5,182.5 403.5,181.5 403.5,179.5 403.5,178.5 
		403.5,177.5 403.5,175.5 403.5,174.5 403.5,173.5 404.5,171.5 404.5,170.5 404.5,169.5 404.5,168.5 404.5,167.5 404.5,166.5 
		404.5,166.5 404.5,165.5 404.5,164.5 405.5,163.5 405.5,162.5 405.5,162.5 405.5,161.5 405.5,160.5 405.5,160.5 405.5,159.5 
		405.5,158.5 405.5,157.5 406.5,157.5 406.5,156.5 406.5,156.5 406.5,155.5 406.5,154.5 406.5,154.5 406.5,153.5 406.5,153.5 
		407.5,152.5 407.5,151.5 407.5,151.5 407.5,151.5 407.5,150.5 407.5,150.5 407.5,150.5 407.5,150.5 407.5,149.5 408.5,149.5 
		408.5,149.5 408.5,149.5 408.5,148.5 408.5,148.5 408.5,148.5 408.5,148.5 408.5,147.5 408.5,147.5 409.5,147.5 409.5,147.5 
		409.5,147.5 409.5,146.5 409.5,146.5 409.5,146.5 409.5,146.5 409.5,146.5 410.5,145.5 410.5,145.5 410.5,145.5 410.5,144.5 
		410.5,144.5 410.5,144.5 410.5,143.5 410.5,143.5 410.5,143.5 411.5,142.5 411.5,142.5 411.5,142.5 411.5,142.5 411.5,142.5 
		411.5,142.5 411.5,142.5 411.5,142.5 411.5,142.5 412.5,142.5 412.5,141.5 412.5,141.5 412.5,141.5 412.5,141.5 412.5,140.5 
		412.5,140.5 412.5,140.5 412.5,140.5 413.5,140.5 413.5,139.5 413.5,139.5 413.5,139.5 413.5,138.5 413.5,138.5 413.5,138.5 
		413.5,138.5 414.5,138.5 414.5,138.5 414.5,138.5 414.5,139.5 414.5,139.5 414.5,139.5 414.5,140.5 414.5,140.5 414.5,141.5 
		415.5,141.5 415.5,142.5 415.5,142.5 415.5,143.5 415.5,143.5 415.5,144.5 415.5,144.5 415.5,145.5 415.5,145.5 416.5,145.5 
		416.5,146.5 416.5,146.5 416.5,147.5 416.5,147.5 416.5,148.5 416.5,149.5 416.5,149.5 417.5,150.5 417.5,150.5 417.5,150.5 
		417.5,151.5 417.5,151.5 417.5,152.5 417.5,152.5 417.5,153.5 417.5,153.5 418.5,153.5 418.5,153.5 418.5,154.5 418.5,154.5 
		418.5,155.5 418.5,155.5 418.5,155.5 418.5,156.5 418.5,157.5 419.5,157.5 419.5,158.5 419.5,158.5 419.5,159.5 419.5,160.5 
		419.5,161.5 419.5,161.5 419.5,162.5 420.5,162.5 420.5,162.5 420.5,162.5 420.5,161.5 420.5,161.5 420.5,161.5 420.5,160.5 
		420.5,159.5 420.5,158.5 421.5,157.5 421.5,157.5 421.5,156.5 421.5,155.5 421.5,154.5 421.5,153.5 421.5,153.5 421.5,152.5 
		421.5,152.5 422.5,152.5 422.5,151.5 422.5,151.5 422.5,151.5 422.5,151.5 422.5,151.5 422.5,151.5 422.5,151.5 423.5,151.5 
		423.5,150.5 423.5,150.5 423.5,150.5 423.5,149.5 423.5,149.5 423.5,149.5 423.5,148.5 423.5,148.5 424.5,148.5 424.5,147.5 
		424.5,147.5 424.5,147.5 424.5,147.5 424.5,147.5 424.5,147.5 424.5,147.5 424.5,147.5 425.5,147.5 425.5,147.5 425.5,147.5 
		425.5,147.5 425.5,147.5 425.5,147.5 425.5,147.5 425.5,147.5 426.5,147.5 426.5,147.5 426.5,147.5 426.5,148.5 426.5,148.5 
		426.5,149.5 426.5,149.5 426.5,150.5 426.5,150.5 427.5,151.5 427.5,151.5 427.5,152.5 427.5,152.5 427.5,153.5 427.5,153.5 
		427.5,154.5 427.5,155.5 427.5,156.5 428.5,156.5 428.5,157.5 428.5,157.5 428.5,158.5 428.5,157.5 428.5,156.5 428.5,156.5 
		428.5,155.5 429.5,155.5 429.5,154.5 429.5,153.5 429.5,153.5 429.5,152.5 429.5,151.5 429.5,151.5 429.5,150.5 429.5,150.5 
		430.5,149.5 430.5,149.5 430.5,149.5 430.5,148.5 430.5,147.5 430.5,147.5 430.5,146.5 430.5,145.5 430.5,144.5 431.5,143.5 
		431.5,143.5 431.5,142.5 431.5,142.5 431.5,141.5 431.5,140.5 431.5,140.5 431.5,139.5 431.5,138.5 432.5,138.5 432.5,137.5 
		432.5,137.5 432.5,137.5 432.5,136.5 432.5,136.5 432.5,136.5 432.5,136.5 433.5,136.5 433.5,135.5 433.5,135.5 433.5,135.5 
		433.5,135.5 433.5,135.5 433.5,135.5 433.5,135.5 433.5,135.5 434.5,135.5 434.5,135.5 434.5,135.5 434.5,135.5 434.5,135.5 
		434.5,135.5 434.5,135.5 434.5,135.5 434.5,136.5 435.5,136.5 435.5,136.5 435.5,137.5 435.5,137.5 435.5,137.5 435.5,137.5 
		435.5,138.5 435.5,138.5 436.5,139.5 436.5,139.5 436.5,140.5 436.5,140.5 436.5,141.5 436.5,141.5 436.5,142.5 436.5,142.5 
		436.5,142.5 437.5,142.5 437.5,142.5 437.5,141.5 437.5,141.5 437.5,141.5 437.5,141.5 437.5,141.5 437.5,141.5 437.5,141.5 
		438.5,140.5 438.5,140.5 438.5,140.5 438.5,140.5 438.5,140.5 438.5,140.5 438.5,140.5 438.5,140.5 439.5,140.5 439.5,140.5 
		439.5,140.5 439.5,141.5 439.5,140.5 439.5,140.5 439.5,140.5 439.5,140.5 439.5,140.5 440.5,140.5 440.5,139.5 440.5,139.5 
		440.5,138.5 440.5,138.5 440.5,137.5 440.5,137.5 440.5,137.5 440.5,136.5 441.5,136.5 441.5,135.5 441.5,135.5 441.5,134.5 
		441.5,134.5 441.5,133.5 441.5,133.5 441.5,132.5 442.5,132.5 442.5,132.5 442.5,131.5 442.5,131.5 442.5,130.5 442.5,129.5 
		442.5,129.5 442.5,129.5 442.5,128.5 443.5,128.5 443.5,127.5 443.5,127.5 443.5,127.5 443.5,126.5 443.5,126.5 443.5,126.5 
		443.5,126.5 443.5,126.5 444.5,126.5 444.5,126.5 444.5,127.5 444.5,127.5 444.5,127.5 444.5,128.5 444.5,128.5 444.5,129.5 
		445.5,129.5 445.5,129.5 445.5,130.5 445.5,130.5 445.5,131.5 445.5,132.5 445.5,132.5 445.5,133.5 445.5,134.5 446.5,134.5 
		446.5,135.5 446.5,136.5 446.5,137.5 446.5,137.5 446.5,138.5 446.5,139.5 446.5,139.5 446.5,140.5 447.5,141.5 447.5,142.5 
		447.5,143.5 447.5,143.5 447.5,143.5 447.5,144.5 447.5,144.5 447.5,144.5 448.5,145.5 448.5,145.5 448.5,145.5 448.5,146.5 
		448.5,146.5 448.5,147.5 448.5,147.5 448.5,147.5 448.5,147.5 449.5,148.5 449.5,148.5 449.5,149.5 449.5,150.5 449.5,151.5 
		449.5,152.5 449.5,153.5 449.5,153.5 449.5,154.5 450.5,155.5 450.5,155.5 450.5,155.5 450.5,156.5 450.5,156.5 450.5,156.5 
		450.5,156.5 450.5,156.5 451.5,155.5 451.5,155.5 451.5,155.5 451.5,154.5 451.5,154.5 451.5,154.5 451.5,154.5 451.5,153.5 
		451.5,153.5 452.5,153.5 452.5,153.5 452.5,153.5 452.5,153.5 452.5,153.5 452.5,153.5 452.5,153.5 452.5,153.5 452.5,154.5 
		453.5,154.5 453.5,154.5 453.5,154.5 453.5,155.5 453.5,155.5 453.5,155.5 453.5,155.5 453.5,156.5 453.5,156.5 454.5,156.5 
		454.5,157.5 454.5,157.5 454.5,157.5 454.5,157.5 454.5,157.5 454.5,157.5 454.5,157.5 455.5,156.5 455.5,156.5 455.5,156.5 
		455.5,156.5 455.5,155.5 455.5,155.5 455.5,155.5 455.5,154.5 455.5,154.5 456.5,153.5 456.5,152.5 456.5,151.5 456.5,150.5 
		456.5,150.5 456.5,150.5 456.5,149.5 456.5,148.5 456.5,148.5 457.5,147.5 457.5,147.5 457.5,146.5 457.5,146.5 457.5,145.5 
		457.5,145.5 457.5,144.5 457.5,144.5 458.5,144.5 458.5,143.5 458.5,143.5 458.5,142.5 458.5,142.5 458.5,142.5 458.5,142.5 
		458.5,142.5 458.5,143.5 459.5,143.5 459.5,143.5 459.5,144.5 459.5,145.5 459.5,145.5 459.5,145.5 459.5,145.5 459.5,146.5 
		459.5,146.5 460.5,147.5 460.5,147.5 460.5,147.5 460.5,148.5 460.5,148.5 460.5,149.5 460.5,149.5 460.5,149.5 461.5,149.5 
		461.5,149.5 461.5,150.5 461.5,150.5 461.5,150.5 461.5,150.5 461.5,151.5 461.5,151.5 461.5,151.5 462.5,152.5 462.5,152.5 
		462.5,153.5 462.5,153.5 462.5,154.5 462.5,154.5 462.5,155.5 462.5,155.5 462.5,156.5 463.5,157.5 463.5,157.5 463.5,158.5 
		463.5,158.5 463.5,159.5 463.5,159.5 463.5,160.5 463.5,160.5 464.5,161.5 464.5,161.5 464.5,161.5 464.5,162.5 464.5,163.5 
		464.5,163.5 464.5,164.5 464.5,164.5 464.5,165.5 465.5,165.5 465.5,165.5 465.5,165.5 465.5,166.5 465.5,166.5 465.5,166.5 
		465.5,166.5 465.5,166.5 465.5,166.5 466.5,166.5 466.5,166.5 466.5,166.5 466.5,166.5 466.5,166.5 466.5,166.5 466.5,166.5 
		466.5,166.5 467.5,165.5 467.5,165.5 467.5,165.5 467.5,165.5 467.5,165.5 467.5,165.5 467.5,165.5 467.5,164.5 467.5,164.5 
		468.5,164.5 468.5,164.5 468.5,165.5 468.5,165.5 468.5,165.5 468.5,165.5 468.5,165.5 468.5,165.5 468.5,165.5 469.5,164.5 
		469.5,164.5 469.5,164.5 469.5,164.5 469.5,163.5 469.5,163.5 469.5,163.5 469.5,163.5 470.5,163.5 470.5,163.5 470.5,163.5 
		470.5,163.5 470.5,163.5 470.5,163.5 470.5,163.5 470.5,163.5 470.5,163.5 471.5,163.5 471.5,163.5 471.5,162.5 471.5,163.5 
		471.5,163.5 471.5,163.5 471.5,163.5 471.5,163.5 471.5,163.5 472.5,163.5 472.5,162.5 472.5,162.5 472.5,162.5 472.5,162.5 
		472.5,161.5 472.5,161.5 472.5,161.5 472.5,161.5 473.5,161.5 473.5,160.5 473.5,160.5 473.5,160.5 473.5,160.5 473.5,160.5 
		473.5,159.5 473.5,158.5 474.5,158.5 474.5,158.5 474.5,158.5 474.5,158.5 474.5,158.5 474.5,158.5 474.5,158.5 474.5,158.5 
		474.5,158.5 475.5,157.5 475.5,157.5 475.5,157.5 475.5,157.5 475.5,156.5 475.5,156.5 475.5,155.5 475.5,154.5 475.5,154.5 
		476.5,153.5 476.5,153.5 476.5,152.5 476.5,152.5 476.5,151.5 476.5,151.5 476.5,151.5 476.5,150.5 477.5,150.5 477.5,150.5 
		477.5,149.5 477.5,149.5 477.5,149.5 477.5,148.5 477.5,148.5 477.5,148.5 477.5,147.5 478.5,147.5 478.5,147.5 478.5,146.5 
		478.5,146.5 478.5,145.5 478.5,145.5 478.5,145.5 478.5,144.5 478.5,144.5 479.5,143.5 479.5,143.5 479.5,142.5 479.5,142.5 
		479.5,141.5 479.5,141.5 479.5,140.5 479.5,139.5 480.5,139.5 480.5,139.5 480.5,139.5 480.5,138.5 480.5,138.5 480.5,138.5 
		480.5,137.5 480.5,137.5 480.5,137.5 481.5,136.5 481.5,136.5 481.5,135.5 481.5,135.5 481.5,135.5 481.5,135.5 481.5,134.5 
		481.5,134.5 481.5,134.5 482.5,134.5 482.5,134.5 482.5,134.5 482.5,134.5 482.5,134.5 482.5,134.5 482.5,134.5 482.5,134.5 
		483.5,134.5 483.5,135.5 483.5,135.5 483.5,135.5 483.5,135.5 483.5,135.5 483.5,135.5 483.5,135.5 483.5,136.5 484.5,136.5 
		484.5,136.5 484.5,136.5 484.5,137.5 484.5,137.5 484.5,137.5 484.5,137.5 484.5,138.5 484.5,139.5 485.5,140.5 485.5,140.5 
		485.5,141.5 485.5,141.5 485.5,141.5 485.5,142.5 485.5,143.5 485.5,143.5 486.5,143.5 486.5,144.5 486.5,144.5 486.5,144.5 
		486.5,145.5 486.5,145.5 486.5,145.5 486.5,146.5 486.5,146.5 487.5,146.5 487.5,147.5 487.5,147.5 487.5,147.5 487.5,147.5 
		487.5,148.5 487.5,148.5 487.5,148.5 487.5,148.5 488.5,148.5 488.5,149.5 488.5,149.5 488.5,149.5 488.5,149.5 488.5,149.5 
		488.5,149.5 488.5,149.5 489.5,149.5 489.5,149.5 489.5,149.5 489.5,149.5 489.5,149.5 489.5,150.5 489.5,150.5 489.5,150.5 
		489.5,150.5 490.5,151.5 490.5,151.5 490.5,151.5 490.5,152.5 490.5,152.5 490.5,153.5 490.5,153.5 490.5,153.5 490.5,153.5 
		491.5,153.5 491.5,153.5 491.5,153.5 491.5,153.5 491.5,153.5 491.5,153.5 491.5,153.5 491.5,153.5 491.5,153.5 492.5,154.5 
		492.5,154.5 492.5,154.5 492.5,154.5 492.5,155.5 492.5,155.5 492.5,155.5 492.5,156.5 493.5,156.5 493.5,156.5 493.5,156.5 
		493.5,156.5 493.5,156.5 493.5,157.5 493.5,157.5 493.5,157.5 493.5,157.5 494.5,157.5 494.5,157.5 494.5,157.5 494.5,157.5 
		494.5,157.5 494.5,158.5 494.5,158.5 494.5,158.5 494.5,158.5 495.5,158.5 495.5,159.5 495.5,159.5 495.5,159.5 495.5,159.5 
		495.5,159.5 495.5,159.5 495.5,159.5 496.5,160.5 496.5,160.5 496.5,160.5 496.5,160.5 496.5,161.5 496.5,161.5 496.5,161.5 
		496.5,161.5 496.5,161.5 497.5,161.5 497.5,162.5 497.5,162.5 497.5,162.5 497.5,162.5 497.5,163.5 497.5,163.5 497.5,163.5 
		497.5,163.5 498.5,163.5 498.5,163.5 498.5,163.5 498.5,164.5 498.5,164.5 498.5,164.5 498.5,164.5 498.5,164.5 499.5,164.5 
		499.5,164.5 499.5,165.5 499.5,165.5 499.5,165.5 499.5,165.5 499.5,165.5 499.5,165.5 499.5,165.5 500.5,165.5 500.5,165.5 
		500.5,165.5 500.5,165.5 500.5,165.5 500.5,165.5 500.5,165.5 500.5,165.5 500.5,165.5 501.5,165.5 501.5,165.5 501.5,166.5 
		501.5,166.5 501.5,166.5 501.5,166.5 501.5,166.5 501.5,166.5 502.5,166.5 502.5,166.5 502.5,166.5 502.5,167.5 502.5,167.5 
		502.5,167.5 502.5,167.5 502.5,167.5 502.5,167.5 503.5,167.5 503.5,167.5 503.5,167.5 503.5,167.5 503.5,166.5 503.5,167.5 
		503.5,167.5 503.5,167.5 503.5,167.5 504.5,167.5 504.5,167.5 504.5,166.5 504.5,166.5 504.5,167.5 504.5,167.5 504.5,167.5 
		504.5,167.5 505.5,167.5 505.5,166.5 505.5,166.5 505.5,166.5 505.5,166.5 505.5,166.5 505.5,165.5 505.5,165.5 505.5,165.5 
		506.5,165.5 506.5,165.5 506.5,165.5 506.5,164.5 506.5,164.5 506.5,164.5 506.5,164.5 506.5,163.5 506.5,163.5 507.5,163.5 
		507.5,163.5 507.5,162.5 507.5,162.5 507.5,162.5 507.5,161.5 507.5,161.5 507.5,160.5 508.5,160.5 508.5,159.5 508.5,159.5 
		508.5,159.5 508.5,158.5 508.5,157.5 508.5,157.5 508.5,156.5 508.5,156.5 509.5,155.5 509.5,155.5 509.5,154.5 509.5,154.5 
		509.5,153.5 509.5,152.5 509.5,152.5 509.5,151.5 509.5,150.5 510.5,149.5 510.5,149.5 510.5,148.5 510.5,147.5 510.5,147.5 
		510.5,146.5 510.5,145.5 510.5,145.5 511.5,144.5 511.5,143.5 511.5,143.5 511.5,142.5 511.5,142.5 511.5,141.5 511.5,141.5 
		511.5,140.5 511.5,140.5 512.5,140.5 512.5,140.5 512.5,140.5 512.5,140.5 512.5,141.5 512.5,141.5 512.5,141.5 512.5,141.5 
		512.5,141.5 513.5,141.5 513.5,141.5 513.5,142.5 513.5,142.5 513.5,142.5 513.5,142.5 513.5,142.5 513.5,142.5 513.5,142.5 
		514.5,142.5 514.5,142.5 514.5,142.5 514.5,142.5 514.5,142.5 514.5,142.5 514.5,142.5 514.5,142.5 515.5,142.5 515.5,142.5 
		515.5,142.5 515.5,142.5 515.5,142.5 515.5,142.5 515.5,141.5 515.5,141.5 515.5,142.5 516.5,142.5 516.5,142.5 516.5,142.5 
		516.5,142.5 516.5,142.5 516.5,142.5 516.5,143.5 516.5,143.5 516.5,143.5 517.5,144.5 517.5,144.5 517.5,144.5 517.5,145.5 
		517.5,145.5 517.5,145.5 517.5,145.5 517.5,145.5 518.5,145.5 518.5,146.5 518.5,146.5 518.5,146.5 518.5,146.5 518.5,146.5 
		518.5,147.5 518.5,147.5 518.5,147.5 519.5,147.5 519.5,148.5 519.5,148.5 519.5,148.5 519.5,148.5 519.5,148.5 519.5,148.5 
		519.5,148.5 519.5,148.5 520.5,148.5 520.5,148.5 520.5,148.5 520.5,148.5 520.5,148.5 520.5,147.5 520.5,147.5 520.5,147.5 
		521.5,147.5 521.5,147.5 521.5,146.5 521.5,146.5 521.5,146.5 521.5,146.5 521.5,146.5 521.5,146.5 521.5,146.5 522.5,146.5 
		522.5,146.5 522.5,146.5 522.5,146.5 522.5,146.5 522.5,145.5 522.5,145.5 522.5,145.5 522.5,145.5 523.5,145.5 523.5,146.5 
		523.5,146.5 523.5,146.5 523.5,146.5 523.5,146.5 523.5,146.5 523.5,146.5 524.5,146.5 524.5,146.5 524.5,146.5 524.5,146.5 
		524.5,146.5 524.5,146.5 524.5,146.5 524.5,146.5 524.5,146.5 525.5,146.5 525.5,146.5 525.5,146.5 525.5,146.5 525.5,146.5 
		525.5,146.5 525.5,146.5 525.5,146.5 525.5,146.5 526.5,146.5 526.5,146.5 526.5,146.5 526.5,146.5 526.5,146.5 526.5,147.5 
		526.5,147.5 526.5,147.5 527.5,147.5 527.5,147.5 527.5,147.5 527.5,147.5 527.5,147.5 527.5,147.5 527.5,147.5 527.5,146.5 
		527.5,146.5 528.5,146.5 528.5,147.5 528.5,146.5 528.5,146.5 528.5,146.5 528.5,146.5 528.5,146.5 528.5,145.5 528.5,145.5 
		529.5,145.5 529.5,145.5 529.5,144.5 529.5,144.5 529.5,144.5 529.5,143.5 529.5,143.5 529.5,143.5 530.5,143.5 530.5,143.5 
		530.5,143.5 530.5,143.5 530.5,144.5 530.5,144.5 530.5,144.5 530.5,144.5 530.5,144.5 531.5,144.5 531.5,144.5 531.5,144.5 
		531.5,144.5 531.5,144.5 531.5,144.5 531.5,143.5 531.5,143.5 531.5,143.5 532.5,142.5 532.5,142.5 532.5,142.5 532.5,141.5 
		532.5,141.5 532.5,140.5 532.5,140.5 532.5,140.5 532.5,139.5 533.5,139.5 533.5,139.5 533.5,138.5 533.5,138.5 533.5,138.5 
		533.5,138.5 533.5,137.5 533.5,137.5 534.5,136.5 534.5,136.5 534.5,136.5 534.5,135.5 534.5,135.5 534.5,134.5 534.5,134.5 
		534.5,134.5 534.5,133.5 535.5,133.5 535.5,132.5 535.5,132.5 535.5,131.5 535.5,130.5 535.5,130.5 535.5,130.5 535.5,129.5 
		535.5,129.5 536.5,128.5 536.5,128.5 536.5,127.5 536.5,127.5 536.5,126.5 536.5,126.5 536.5,126.5 536.5,125.5 537.5,125.5 
		537.5,125.5 537.5,124.5 537.5,124.5 537.5,124.5 537.5,123.5 537.5,123.5 537.5,122.5 537.5,122.5 538.5,121.5 538.5,121.5 
		538.5,120.5 538.5,120.5 538.5,119.5 538.5,118.5 538.5,118.5 538.5,117.5 538.5,117.5 539.5,116.5 539.5,116.5 539.5,115.5 
		539.5,115.5 539.5,114.5 539.5,113.5 539.5,113.5 539.5,113.5 540.5,113.5 540.5,112.5 540.5,112.5 540.5,112.5 540.5,112.5 
		540.5,112.5 540.5,112.5 540.5,112.5 540.5,112.5 541.5,112.5 541.5,112.5 541.5,112.5 541.5,112.5 541.5,112.5 541.5,112.5 
		541.5,112.5 541.5,112.5 541.5,112.5 542.5,113.5 542.5,113.5 542.5,114.5 542.5,115.5 542.5,115.5 542.5,116.5 542.5,117.5 
		542.5,118.5 543.5,119.5 543.5,119.5 543.5,120.5 543.5,120.5 543.5,121.5 543.5,122.5 543.5,122.5 543.5,123.5 543.5,123.5 
		544.5,124.5 544.5,125.5 544.5,126.5 544.5,126.5 544.5,127.5 544.5,128.5 544.5,128.5 544.5,128.5 544.5,129.5 545.5,129.5 
		545.5,130.5 545.5,130.5 545.5,131.5 545.5,131.5 545.5,132.5 545.5,132.5 545.5,133.5 546.5,133.5 546.5,134.5 546.5,134.5 
		546.5,135.5 546.5,135.5 546.5,135.5 546.5,135.5 546.5,136.5 546.5,136.5 547.5,137.5 547.5,137.5 547.5,137.5 547.5,138.5 
		547.5,138.5 547.5,138.5 547.5,139.5 547.5,139.5 547.5,139.5 548.5,140.5 548.5,140.5 548.5,140.5 548.5,140.5 548.5,141.5 
		548.5,141.5 548.5,141.5 548.5,141.5 549.5,141.5 549.5,142.5 549.5,142.5 549.5,142.5 549.5,142.5 549.5,142.5 549.5,143.5 
		549.5,143.5 549.5,143.5 550.5,143.5 550.5,143.5 550.5,143.5 550.5,144.5 550.5,144.5 550.5,144.5 550.5,144.5 550.5,144.5 
		550.5,144.5 551.5,144.5 551.5,145.5 551.5,145.5 551.5,145.5 551.5,145.5 551.5,146.5 551.5,146.5 551.5,146.5 552.5,146.5 
		552.5,146.5 552.5,146.5 552.5,147.5 552.5,147.5 552.5,147.5 552.5,147.5 552.5,147.5 552.5,147.5 553.5,148.5 553.5,148.5 
		553.5,148.5 553.5,148.5 553.5,148.5 553.5,148.5 553.5,148.5 553.5,148.5 553.5,148.5 554.5,149.5 554.5,149.5 554.5,149.5 
		554.5,149.5 554.5,149.5 554.5,149.5 554.5,149.5 554.5,150.5 554.5,150.5 555.5,150.5 555.5,150.5 555.5,150.5 555.5,150.5 
		555.5,150.5 555.5,150.5 555.5,150.5 555.5,150.5 556.5,151.5 556.5,151.5 556.5,151.5 556.5,151.5 556.5,151.5 556.5,151.5 
		556.5,151.5 556.5,151.5 556.5,151.5 557.5,151.5 557.5,151.5 557.5,151.5 557.5,151.5 557.5,151.5 557.5,151.5 557.5,151.5 
		557.5,151.5 557.5,151.5 558.5,151.5 558.5,151.5 558.5,151.5 558.5,151.5 558.5,151.5 558.5,151.5 558.5,151.5 558.5,151.5 
		559.5,151.5 559.5,151.5 559.5,150.5 559.5,150.5 559.5,150.5 559.5,150.5 559.5,150.5 559.5,150.5 559.5,151.5 560.5,151.5 
		560.5,151.5 560.5,151.5 560.5,151.5 560.5,151.5 560.5,150.5 560.5,150.5 560.5,150.5 560.5,150.5 561.5,150.5 561.5,150.5 
		561.5,150.5 561.5,150.5 561.5,150.5 561.5,150.5 561.5,150.5 561.5,149.5 562.5,149.5 562.5,149.5 562.5,149.5 562.5,149.5 
		562.5,149.5 562.5,149.5 562.5,149.5 562.5,149.5 562.5,149.5 563.5,149.5 563.5,149.5 563.5,149.5 563.5,149.5 563.5,149.5 
		563.5,149.5 563.5,149.5 563.5,149.5 563.5,149.5 564.5,149.5 564.5,149.5 564.5,148.5 564.5,148.5 564.5,148.5 564.5,148.5 
		564.5,148.5 564.5,148.5 565.5,148.5 565.5,148.5 565.5,148.5 565.5,148.5 565.5,147.5 565.5,147.5 565.5,147.5 565.5,147.5 
		565.5,147.5 566.5,147.5 566.5,147.5 566.5,147.5 566.5,146.5 566.5,146.5 566.5,146.5 566.5,146.5 566.5,146.5 566.5,146.5 
		567.5,145.5 567.5,145.5 567.5,145.5 567.5,145.5 567.5,145.5 567.5,145.5 567.5,144.5 567.5,144.5 568.5,144.5 568.5,144.5 
		568.5,144.5 568.5,143.5 568.5,143.5 568.5,143.5 568.5,143.5 568.5,143.5 568.5,142.5 569.5,142.5 569.5,142.5 569.5,142.5 
		569.5,141.5 569.5,141.5 569.5,140.5 569.5,140.5 569.5,139.5 569.5,139.5 570.5,139.5 570.5,139.5 570.5,138.5 570.5,138.5 
		570.5,137.5 570.5,137.5 570.5,136.5 570.5,136.5 571.5,135.5 571.5,134.5 571.5,134.5 571.5,133.5 571.5,133.5 571.5,132.5 
		571.5,132.5 571.5,132.5 571.5,131.5 572.5,131.5 572.5,131.5 572.5,131.5 572.5,131.5 572.5,131.5 572.5,131.5 572.5,131.5 
		572.5,131.5 572.5,131.5 573.5,131.5 573.5,131.5 573.5,131.5 573.5,131.5 573.5,131.5 573.5,131.5 573.5,131.5 573.5,131.5 
		573.5,131.5 574.5,131.5 574.5,131.5 574.5,132.5 574.5,132.5 574.5,132.5 574.5,132.5 574.5,132.5 574.5,133.5 575.5,133.5 
		575.5,133.5 575.5,133.5 575.5,134.5 575.5,134.5 575.5,134.5 575.5,134.5 575.5,135.5 575.5,135.5 576.5,135.5 576.5,136.5 
		576.5,136.5 576.5,137.5 576.5,137.5 576.5,137.5 576.5,138.5 576.5,138.5 576.5,139.5 577.5,139.5 577.5,139.5 577.5,140.5 
		577.5,140.5 577.5,140.5 577.5,140.5 577.5,141.5 577.5,141.5 578.5,141.5 578.5,142.5 578.5,142.5 578.5,142.5 578.5,142.5 
		578.5,143.5 578.5,143.5 578.5,143.5 578.5,143.5 579.5,143.5 579.5,144.5 579.5,144.5 579.5,144.5 579.5,144.5 579.5,144.5 
		579.5,144.5 579.5,145.5 579.5,145.5 580.5,145.5 580.5,145.5 580.5,145.5 580.5,145.5 580.5,145.5 580.5,145.5 580.5,145.5 
		580.5,145.5 581.5,146.5 581.5,146.5 581.5,146.5 581.5,146.5 581.5,146.5 581.5,146.5 581.5,146.5 581.5,146.5 581.5,146.5 
		582.5,146.5 582.5,147.5 582.5,147.5 582.5,147.5 582.5,147.5 582.5,147.5 582.5,147.5 582.5,147.5 582.5,147.5 583.5,147.5 
		583.5,147.5 583.5,148.5 583.5,148.5 583.5,148.5 583.5,148.5 583.5,148.5 583.5,148.5 584.5,148.5 584.5,148.5 584.5,148.5 
		584.5,148.5 584.5,148.5 584.5,148.5 584.5,148.5 584.5,149.5 584.5,149.5 585.5,149.5 585.5,149.5 585.5,149.5 585.5,149.5 
		585.5,149.5 585.5,149.5 585.5,149.5 585.5,149.5 585.5,149.5 586.5,149.5 586.5,149.5 586.5,149.5 586.5,149.5 586.5,149.5 
		586.5,149.5 586.5,149.5 586.5,150.5 587.5,150.5 587.5,150.5 587.5,150.5 587.5,150.5 587.5,150.5 587.5,150.5 587.5,150.5 
		587.5,150.5 587.5,150.5 588.5,150.5 588.5,150.5 588.5,150.5 588.5,150.5 588.5,151.5 588.5,151.5 588.5,151.5 588.5,151.5 
		588.5,151.5 589.5,151.5 589.5,151.5 589.5,151.5 589.5,151.5 589.5,151.5 589.5,151.5 589.5,151.5 589.5,151.5 590.5,150.5 
		590.5,150.5 590.5,150.5 590.5,150.5 590.5,150.5 590.5,150.5 590.5,150.5 590.5,150.5 590.5,150.5 591.5,150.5 591.5,150.5 
		591.5,150.5 591.5,150.5 591.5,150.5 591.5,150.5 591.5,151.5 591.5,151.5 591.5,151.5 592.5,151.5 592.5,151.5 592.5,151.5 
		592.5,151.5 592.5,151.5 592.5,151.5 592.5,151.5 592.5,152.5 592.5,152.5 593.5,152.5 593.5,152.5 593.5,152.5 593.5,152.5 
		593.5,152.5 593.5,152.5 593.5,152.5 593.5,152.5 594.5,152.5 594.5,152.5 594.5,152.5 594.5,152.5 594.5,152.5 594.5,152.5 
		594.5,152.5 594.5,152.5 594.5,152.5 595.5,152.5 595.5,152.5 595.5,152.5 595.5,152.5 595.5,152.5 595.5,152.5 595.5,152.5 
		595.5,152.5 595.5,152.5 596.5,152.5 596.5,152.5 596.5,152.5 596.5,153.5 596.5,153.5 596.5,153.5 596.5,153.5 596.5,153.5 
		597.5,153.5 597.5,153.5 597.5,153.5 597.5,153.5 597.5,153.5 597.5,153.5 597.5,153.5 597.5,153.5 597.5,153.5 598.5,153.5 
		598.5,153.5 598.5,153.5 598.5,153.5 598.5,153.5 598.5,153.5 598.5,153.5 598.5,153.5 598.5,153.5 599.5,153.5 599.5,153.5 
		599.5,153.5 599.5,153.5 599.5,153.5 599.5,153.5 599.5,153.5 599.5,153.5 600.5,153.5 600.5,153.5 600.5,153.5 600.5,153.5 
		600.5,153.5 600.5,153.5 600.5,153.5 600.5,153.5 600.5,153.5 601.5,153.5 601.5,153.5 601.5,153.5 601.5,153.5 601.5,153.5 
		601.5,153.5 601.5,154.5 601.5,154.5 601.5,154.5 602.5,154.5 602.5,154.5 602.5,154.5 602.5,154.5 602.5,154.5 602.5,154.5 
		602.5,154.5 602.5,154.5 603.5,154.5 603.5,154.5 603.5,154.5 603.5,154.5 603.5,154.5 603.5,154.5 603.5,154.5 603.5,154.5 
		603.5,154.5 604.5,154.5 604.5,154.5 604.5,154.5 604.5,154.5 604.5,154.5 604.5,154.5 604.5,154.5 604.5,154.5 604.5,154.5 
		605.5,154.5 605.5,154.5 605.5,154.5 605.5,154.5 605.5,154.5 605.5,154.5 605.5,154.5 605.5,154.5 606.5,154.5 606.5,154.5 
		606.5,154.5 606.5,154.5 606.5,154.5 606.5,154.5 606.5,154.5 606.5,154.5 606.5,154.5 607.5,154.5 607.5,154.5 607.5,154.5 
		607.5,154.5 607.5,154.5 607.5,153.5 607.5,153.5 607.5,153.5 607.5,153.5 608.5,153.5 608.5,153.5 608.5,153.5 608.5,153.5 
		608.5,153.5 608.5,153.5 608.5,153.5 608.5,153.5 609.5,153.5 609.5,153.5 609.5,152.5 609.5,152.5 609.5,152.5 609.5,152.5 
		609.5,152.5 609.5,152.5 609.5,152.5 610.5,152.5 610.5,152.5 610.5,152.5 610.5,152.5 610.5,152.5 610.5,152.5 610.5,152.5 
		610.5,152.5 610.5,152.5 611.5,152.5 611.5,152.5 611.5,152.5 611.5,152.5 611.5,152.5 611.5,152.5 611.5,152.5 611.5,152.5 
		612.5,152.5 612.5,152.5 612.5,152.5 612.5,152.5 612.5,152.5 612.5,152.5 612.5,152.5 612.5,152.5 612.5,151.5 613.5,151.5 
		613.5,151.5 613.5,151.5 613.5,152.5 613.5,152.5 613.5,151.5 613.5,151.5 613.5,151.5 613.5,151.5 614.5,151.5 614.5,151.5 
		614.5,151.5 614.5,151.5 614.5,151.5 614.5,151.5 614.5,151.5 614.5,151.5 614.5,151.5 615.5,151.5 615.5,151.5 615.5,151.5 
		615.5,151.5 615.5,150.5 615.5,150.5 615.5,150.5 615.5,151.5 616.5,151.5 616.5,151.5 616.5,151.5 616.5,151.5 616.5,151.5 
		616.5,151.5 616.5,151.5 616.5,151.5 616.5,152.5 617.5,152.5 617.5,152.5 617.5,152.5 617.5,152.5 617.5,152.5 617.5,152.5 
		617.5,152.5 617.5,152.5 617.5,152.5 618.5,152.5 618.5,152.5 618.5,152.5 618.5,152.5 618.5,151.5 618.5,151.5 618.5,151.5 
		618.5,151.5 619.5,151.5 619.5,151.5 619.5,151.5 619.5,151.5 619.5,151.5 619.5,151.5 619.5,151.5 619.5,151.5 619.5,151.5 
		620.5,151.5 620.5,151.5 620.5,151.5 620.5,151.5 620.5,151.5 620.5,151.5 620.5,151.5 620.5,151.5 620.5,151.5 621.5,151.5 
		621.5,151.5 621.5,151.5 621.5,151.5 621.5,151.5 621.5,151.5 621.5,151.5 621.5,151.5 622.5,151.5 622.5,151.5 622.5,151.5 
		622.5,151.5 622.5,152.5 622.5,152.5 622.5,152.5 622.5,152.5 622.5,152.5 623.5,152.5 623.5,152.5 623.5,152.5 623.5,152.5 
		623.5,153.5 623.5,153.5 623.5,153.5 623.5,153.5 623.5,153.5 624.5,153.5 624.5,153.5 624.5,153.5 624.5,153.5 624.5,153.5 
		624.5,152.5 624.5,152.5 624.5,152.5 625.5,152.5 625.5,151.5 625.5,151.5 625.5,151.5 625.5,151.5 625.5,150.5 625.5,150.5 
		625.5,150.5 625.5,150.5 626.5,149.5 626.5,149.5 626.5,149.5 626.5,148.5 626.5,148.5 626.5,148.5 626.5,147.5 626.5,147.5 
		626.5,146.5 627.5,146.5 627.5,146.5 627.5,145.5 627.5,144.5 627.5,143.5 627.5,143.5 627.5,143.5 627.5,143.5 628.5,143.5 
		628.5,143.5 628.5,143.5 628.5,144.5 628.5,146.5 628.5,147.5 628.5,148.5 628.5,149.5 628.5,150.5 629.5,150.5 629.5,151.5 
		629.5,151.5 629.5,151.5 629.5,151.5 629.5,151.5 629.5,151.5 629.5,152.5 629.5,152.5 630.5,152.5 630.5,151.5 630.5,151.5 
		630.5,151.5 630.5,151.5 630.5,151.5 630.5,151.5 630.5,151.5 631.5,151.5 631.5,151.5 631.5,151.5 631.5,151.5 631.5,152.5 
		631.5,152.5 631.5,152.5 631.5,152.5 631.5,152.5 632.5,152.5 632.5,152.5 632.5,152.5 632.5,152.5 632.5,152.5 632.5,152.5 
		632.5,152.5 632.5,152.5 632.5,152.5 633.5,152.5 633.5,152.5 633.5,152.5 633.5,152.5 633.5,152.5 633.5,152.5 633.5,152.5 
		633.5,152.5 633.5,152.5 634.5,152.5 634.5,152.5 634.5,152.5 634.5,152.5 634.5,152.5 634.5,152.5 634.5,152.5 634.5,152.5 
		635.5,152.5 635.5,152.5 635.5,152.5 635.5,152.5 635.5,152.5 635.5,152.5 635.5,152.5 635.5,152.5 635.5,152.5 636.5,152.5 
		636.5,152.5 636.5,152.5 636.5,152.5 636.5,152.5 636.5,152.5 636.5,152.5 636.5,152.5 636.5,152.5 637.5,152.5 637.5,152.5 
		637.5,152.5 637.5,152.5 637.5,152.5 637.5,152.5 637.5,152.5 637.5,152.5 638.5,152.5 638.5,152.5 638.5,152.5 638.5,152.5 
		638.5,152.5 638.5,152.5 638.5,152.5 638.5,152.5 638.5,152.5 639.5,152.5 639.5,152.5 639.5,151.5 639.5,151.5 639.5,151.5 
		639.5,151.5 639.5,151.5 639.5,151.5 639.5,151.5 640.5,152.5 640.5,152.5 640.5,152.5 640.5,152.5 640.5,152.5 640.5,152.5 
		640.5,152.5 640.5,152.5 641.5,152.5 641.5,152.5 641.5,152.5 641.5,152.5 641.5,152.5 641.5,152.5 641.5,152.5 641.5,152.5 
		641.5,152.5 642.5,152.5 642.5,152.5 642.5,152.5 642.5,152.5 642.5,152.5 642.5,152.5 642.5,152.5 642.5,152.5 642.5,152.5 
		643.5,152.5 643.5,152.5 643.5,152.5 643.5,152.5 643.5,152.5 643.5,152.5 643.5,152.5 643.5,152.5 644.5,151.5 644.5,151.5 
		644.5,151.5 644.5,151.5 644.5,151.5 644.5,151.5 644.5,151.5 644.5,151.5 644.5,151.5 645.5,151.5 645.5,151.5 645.5,151.5 
		645.5,151.5 645.5,151.5 645.5,151.5 645.5,151.5 645.5,151.5 645.5,151.5 646.5,151.5 646.5,151.5 646.5,151.5 646.5,151.5 
		646.5,151.5 646.5,151.5 646.5,151.5 646.5,151.5 647.5,151.5 647.5,151.5 647.5,151.5 647.5,151.5 647.5,151.5 647.5,151.5 
		647.5,151.5 647.5,151.5 647.5,151.5 648.5,151.5 648.5,151.5 648.5,151.5 648.5,151.5 648.5,151.5 648.5,151.5 648.5,151.5 
		648.5,151.5 648.5,151.5 649.5,151.5 649.5,151.5 649.5,151.5 649.5,151.5 649.5,151.5 649.5,151.5 649.5,151.5 649.5,151.5 
		650.5,151.5 650.5,151.5 650.5,151.5 650.5,151.5 650.5,151.5 650.5,151.5 650.5,151.5 650.5,150.5 650.5,150.5 651.5,150.5 
		651.5,150.5 651.5,150.5 651.5,150.5 651.5,150.5 651.5,150.5 651.5,150.5 651.5,150.5 651.5,150.5 652.5,150.5 652.5,151.5 
		652.5,151.5 652.5,150.5 652.5,150.5 652.5,150.5 652.5,150.5 652.5,150.5 652.5,150.5 653.5,150.5 653.5,150.5 653.5,150.5 
		653.5,150.5 653.5,150.5 653.5,150.5 653.5,151.5 653.5,151.5 654.5,151.5 654.5,151.5 654.5,151.5 654.5,151.5 654.5,151.5 
		654.5,151.5 654.5,151.5 654.5,151.5 654.5,151.5 655.5,150.5 655.5,150.5 655.5,150.5 655.5,150.5 655.5,150.5 655.5,150.5 
		655.5,150.5 655.5,150.5 655.5,150.5 656.5,150.5 656.5,150.5 656.5,150.5 656.5,150.5 656.5,150.5 656.5,150.5 656.5,150.5 
		656.5,150.5 657.5,150.5 657.5,150.5 657.5,150.5 657.5,150.5 657.5,150.5 657.5,150.5 657.5,150.5 657.5,150.5 657.5,149.5 
		658.5,149.5 658.5,149.5 658.5,149.5 658.5,149.5 658.5,149.5 658.5,149.5 658.5,149.5 658.5,149.5 658.5,149.5 659.5,149.5 
		659.5,149.5 659.5,149.5 659.5,149.5 659.5,149.5 659.5,149.5 659.5,149.5 659.5,149.5 660.5,149.5 660.5,149.5 660.5,149.5 
		660.5,149.5 660.5,149.5 660.5,149.5 660.5,149.5 660.5,149.5 660.5,149.5 661.5,149.5 661.5,149.5 661.5,149.5 661.5,149.5 
		661.5,149.5 661.5,149.5 661.5,149.5 661.5,149.5 661.5,149.5 662.5,149.5 662.5,149.5 662.5,149.5 662.5,149.5 662.5,148.5 
		662.5,148.5 662.5,148.5 662.5,148.5 663.5,148.5 663.5,149.5 663.5,149.5 663.5,149.5 663.5,149.5 663.5,149.5 663.5,149.5 
		663.5,148.5 663.5,148.5 664.5,148.5 664.5,148.5 664.5,148.5 664.5,148.5 664.5,148.5 664.5,148.5 664.5,148.5 664.5,148.5 
		664.5,148.5 665.5,148.5 665.5,148.5 665.5,148.5 665.5,148.5 665.5,148.5 665.5,148.5 665.5,148.5 665.5,149.5 666.5,149.5 
		666.5,149.5 666.5,149.5 666.5,149.5 666.5,149.5 666.5,149.5 666.5,149.5 666.5,149.5 666.5,149.5 667.5,149.5 667.5,149.5 
		667.5,149.5 667.5,149.5 667.5,149.5 667.5,149.5 667.5,149.5 667.5,149.5 667.5,149.5 668.5,149.5 668.5,149.5 668.5,149.5 
		668.5,149.5 668.5,149.5 668.5,149.5 668.5,149.5 668.5,149.5 669.5,149.5 669.5,149.5 669.5,149.5 669.5,149.5 669.5,149.5 
		669.5,149.5 669.5,149.5 669.5,149.5 669.5,149.5 670.5,149.5 670.5,149.5 670.5,149.5 670.5,149.5 670.5,149.5 670.5,149.5 
		670.5,149.5 670.5,149.5 670.5,149.5 671.5,149.5 671.5,149.5 671.5,149.5 671.5,149.5 671.5,149.5 671.5,149.5 671.5,149.5 
		671.5,149.5 	"/>
</g>
</svg>
