<?xml version="1.0" encoding="UTF-8" standalone="no"?><svg width="282.222mm" height="141.111mm" xmlns="http://www.w3.org/2000/svg" xmlns:xlink="http://www.w3.org/1999/xlink"  version="1.2" baseProfile="tiny"><g fill="none" stroke="#ff0000" stroke-linecap="round" stroke-linejoin="round" stroke-opacity="1" stroke-width="1.5" transform="matrix(1,0,0,1,0,0)">
<polyline fill="none" points="33,284 33,284 33,284 33,284 33,284 34,283 34,283 34,283 34,283 34,283 34,283 34,283 34,283 34,283 35,283 35,283 35,283 35,283 35,283 35,283 35,283 35,283 35,283 36,283 36,283 36,283 36,283 36,283 36,283 36,283 36,283 37,283 37,283 37,283 37,283 37,283 37,283 37,283 37,283 37,283 38,283 38,283 38,283 38,282 38,282 38,282 38,282 38,282 38,282 39,282 39,282 39,282 39,282 39,282 39,282 39,282 39,282 40,282 40,282 40,282 40,282 40,282 40,282 40,282 40,282 40,282 41,282 41,282 41,282 41,282 41,282 41,282 41,282 41,282 41,282 42,282 42,282 42,282 42,282 42,282 42,282 42,283 42,283 43,283 43,283 43,283 43,283 43,282 43,282 43,282 43,282 43,283 44,283 44,283 44,283 44,283 44,283 44,284 44,284 44,284 44,285 45,285 45,285 45,286 45,286 45,286 45,286 45,287 45,287 46,287 46,288 46,288 46,288 46,289 46,289 46,289 46,290 46,290 47,291 47,291 47,292 47,292 47,293 47,293 47,294 47,294 47,294 48,295 48,295 48,295 48,295 48,295 48,295 48,295 48,295 49,295 49,295 49,294 49,294 49,294 49,294 49,294 49,293 49,293 50,293 50,293 50,293 50,292 50,292 50,292 50,291 50,291 50,291 51,290 51,290 51,290 51,289 51,289 51,289 51,288 51,288 52,287 52,287 52,287 52,286 52,286 52,285 52,285 52,285 52,284 53,284 53,284 53,283 53,283 53,282 53,282 53,281 53,281 53,281 54,280 54,280 54,280 54,279 54,279 54,279 54,279 54,279 55,279 55,279 55,278 55,278 55,278 55,278 55,278 55,278 55,278 56,278 56,278 56,278 56,278 56,278 56,278 56,278 56,278 56,278 57,278 57,278 57,278 57,278 57,278 57,278 57,278 57,278 57,278 58,278 58,278 58,278 58,278 58,278 58,278 58,278 58,278 59,278 59,278 59,279 59,279 59,279 59,279 59,279 59,279 59,279 60,280 60,280 60,280 60,280 60,280 60,280 60,280 60,280 60,280 61,280 61,280 61,280 61,279 61,279 61,279 61,279 61,278 62,278 62,278 62,277 62,277 62,277 62,277 62,276 62,276 62,276 63,276 63,276 63,276 63,276 63,275 63,275 63,275 63,275 63,275 64,274 64,274 64,274 64,274 64,274 64,274 64,273 64,273 65,273 65,273 65,272 65,272 65,272 65,272 65,272 65,271 65,271 66,271 66,271 66,271 66,270 66,270 66,270 66,270 66,269 66,269 67,269 67,269 67,268 67,268 67,268 67,268 67,267 67,267 68,267 68,267 68,267 68,267 68,266 68,266 68,266 68,265 68,265 69,265 69,265 69,265 69,264 69,264 69,264 69,264 69,264 69,263 70,263 70,263 70,263 70,262 70,262 70,262 70,262 70,261 71,261 71,261 71,261 71,261 71,261 71,261 71,260 71,260 71,260 72,260 72,259 72,259 72,259 72,259 72,259 72,258 72,258 72,258 73,258 73,257 73,257 73,257 73,257 73,257 73,256 73,256 74,256 74,256 74,255 74,255 74,255 74,255 74,255 74,254 74,254 75,254 75,254 75,254 75,254 75,254 75,253 75,253 75,253 75,253 76,253 76,253 76,253 76,252 76,252 76,252 76,252 76,252 76,252 77,252 77,252 77,252 77,252 77,251 77,251 77,251 77,251 78,251 78,251 78,251 78,251 78,251 78,250 78,250 78,250 78,250 79,250 79,250 79,250 79,249 79,249 79,249 79,249 79,249 79,249 80,249 80,249 80,249 80,249 80,248 80,248 80,248 80,248 81,248 81,248 81,248 81,247 81,247 81,247 81,247 81,247 81,247 82,247 82,247 82,247 82,247 82,246 82,246 82,246 82,246 82,246 83,246 83,246 83,246 83,246 83,246 83,246 83,246 83,246 84,246 84,245 84,245 84,245 84,245 84,245 84,244 84,244 84,244 85,244 85,244 85,243 85,243 85,243 85,243 85,243 85,243 85,243 86,243 86,242 86,242 86,242 86,242 86,242 86,242 86,243 87,243 87,243 87,243 87,243 87,243 87,243 87,243 87,243 87,243 88,243 88,243 88,243 88,243 88,243 88,242 88,242 88,242 88,242 89,242 89,242 89,242 89,242 89,242 89,242 89,242 89,242 90,242 90,241 90,241 90,241 90,241 90,241 90,241 90,241 90,241 91,241 91,241 91,241 91,241 91,241 91,241 91,241 91,241 91,241 92,241 92,241 92,241 92,241 92,241 92,241 92,241 92,241 93,241 93,241 93,241 93,241 93,241 93,241 93,241 93,241 93,241 94,241 94,241 94,241 94,241 94,241 94,241 94,241 94,241 94,241 95,241 95,241 95,241 95,241 95,241 95,241 95,241 95,240 95,240 96,240 96,240 96,240 96,240 96,240 96,240 96,240 96,240 97,240 97,240 97,240 97,240 97,240 97,240 97,240 97,240 97,240 98,240 98,240 98,240 98,240 98,240 98,240 98,240 98,240 98,240 99,240 99,240 99,240 99,241 99,241 99,241 99,241 99,241 100,242 100,242 100,242 100,243 100,243 100,243 100,243 100,244 100,244 101,244 101,245 101,245 101,245 101,246 101,246 101,247 101,247 101,247 102,248 102,249 102,249 102,249 102,250 102,250 102,251 102,251 103,251 103,252 103,252 103,252 103,252 103,253 103,253 103,253 103,253 104,253 104,253 104,253 104,253 104,253 104,253 104,254 104,254 104,254 105,254 105,254 105,255 105,255 105,255 105,256 105,256 105,257 106,257 106,257 106,257 106,257 106,257 106,257 106,257 106,257 106,257 107,257 107,257 107,257 107,257 107,257 107,256 107,256 107,256 107,256 108,256 108,255 108,255 108,255 108,254 108,254 108,254 108,253 109,253 109,253 109,252 109,252 109,252 109,251 109,251 109,251 109,250 110,250 110,250 110,249 110,249 110,249 110,249 110,248 110,248 110,248 111,248 111,248 111,248 111,247 111,247 111,247 111,247 111,247 112,247 112,247 112,247 112,247 112,247 112,247 112,247 112,247 112,247 113,247 113,246 113,246 113,246 113,246 113,245 113,245 113,245 113,244 114,244 114,244 114,244 114,243 114,243 114,243 114,243 114,242 115,242 115,242 115,242 115,242 115,241 115,241 115,241 115,241 115,241 116,240 116,240 116,240 116,240 116,240 116,240 116,240 116,239 116,239 117,239 117,239 117,239 117,239 117,239 117,239 117,239 117,239 117,239 118,239 118,240 118,240 118,240 118,240 118,240 118,240 118,241 119,241 119,241 119,242 119,242 119,242 119,242 119,243 119,243 119,243 120,243 120,243 120,243 120,244 120,244 120,244 120,244 120,244 120,244 121,244 121,244 121,245 121,245 121,245 121,245 121,245 121,245 122,245 122,246 122,246 122,246 122,246 122,246 122,246 122,246 122,247 123,247 123,247 123,247 123,247 123,247 123,248 123,248 123,248 123,248 124,247 124,247 124,247 124,247 124,247 124,246 124,246 124,246 125,246 125,245 125,245 125,245 125,245 125,244 125,244 125,244 125,244 126,243 126,243 126,243 126,243 126,242 126,242 126,242 126,242 126,241 127,241 127,241 127,241 127,241 127,241 127,241 127,241 127,241 128,241 128,241 128,241 128,241 128,241 128,241 128,241 128,242 128,242 129,242 129,242 129,243 129,243 129,243 129,243 129,244 129,244 129,244 130,244 130,244 130,245 130,245 130,245 130,245 130,246 130,246 131,247 131,247 131,247 131,247 131,247 131,246 131,246 131,246 131,246 132,246 132,246 132,246 132,246 132,246 132,246 132,246 132,246 132,246 133,246 133,246 133,245 133,245 133,245 133,245 133,245 133,245 134,245 134,245 134,245 134,245 134,245 134,245 134,245 134,245 134,245 135,245 135,245 135,245 135,245 135,245 135,246 135,246 135,246 135,246 136,246 136,246 136,246 136,247 136,247 136,247 136,247 136,247 136,247 137,247 137,247 137,247 137,247 137,246 137,246 137,246 137,245 138,245 138,244 138,244 138,244 138,244 138,243 138,243 138,243 138,243 139,242 139,242 139,242 139,242 139,241 139,241 139,241 139,240 139,240 140,240 140,240 140,240 140,239 140,239 140,238 140,238 140,238 141,238 141,237 141,237 141,236 141,236 141,236 141,236 141,236 141,236 142,236 142,235 142,235 142,235 142,234 142,234 142,234 142,234 142,234 143,233 143,233 143,233 143,233 143,233 143,233 143,233 143,233 144,233 144,233 144,233 144,233 144,233 144,232 144,232 144,232 144,232 145,232 145,232 145,233 145,233 145,233 145,233 145,233 145,233 145,233 146,233 146,233 146,233 146,233 146,234 146,234 146,234 146,234 147,234 147,234 147,234 147,234 147,234 147,234 147,234 147,235 147,235 148,235 148,235 148,235 148,235 148,235 148,235 148,236 148,236 148,236 149,236 149,236 149,236 149,236 149,236 149,236 149,236 149,236 150,236 150,235 150,235 150,235 150,235 150,235 150,235 150,235 150,235 151,235 151,234 151,234 151,234 151,234 151,234 151,234 151,234 151,234 152,234 152,233 152,234 152,234 152,234 152,234 152,234 152,234 153,234 153,234 153,234 153,234 153,233 153,233 153,233 153,234 153,234 154,234 154,234 154,234 154,235 154,235 154,235 154,235 154,235 154,236 155,236 155,236 155,236 155,236 155,236 155,236 155,236 155,236 156,237 156,237 156,237 156,237 156,237 156,237 156,237 156,237 156,238 157,238 157,238 157,238 157,239 157,239 157,239 157,239 157,239 157,239 158,240 158,240 158,240 158,240 158,240 158,240 158,240 158,240 158,239 159,239 159,239 159,239 159,239 159,239 159,239 159,238 159,238 160,238 160,238 160,238 160,238 160,238 160,238 160,238 160,238 160,238 161,238 161,238 161,237 161,237 161,237 161,237 161,237 161,237 161,237 162,236 162,236 162,236 162,236 162,236 162,236 162,235 162,235 163,235 163,235 163,235 163,235 163,234 163,234 163,235 163,235 163,235 164,235 164,234 164,234 164,234 164,234 164,234 164,234 164,234 164,234 165,234 165,234 165,234 165,233 165,233 165,233 165,233 165,233 166,233 166,233 166,233 166,233 166,233 166,233 166,233 166,233 166,233 167,233 167,233 167,233 167,233 167,233 167,233 167,233 167,234 167,234 168,234 168,234 168,234 168,234 168,235 168,235 168,235 168,235 169,235 169,236 169,236 169,236 169,236 169,237 169,237 169,237 169,237 170,238 170,238 170,238 170,238 170,238 170,238 170,239 170,239 170,239 171,239 171,240 171,240 171,240 171,240 171,240 171,240 171,241 172,241 172,241 172,241 172,241 172,241 172,241 172,241 172,241 172,242 173,242 173,242 173,242 173,242 173,242 173,242 173,242 173,242 173,242 174,242 174,242 174,242 174,243 174,243 174,243 174,243 174,243 175,243 175,243 175,243 175,243 175,244 175,244 175,244 175,244 175,244 176,244 176,244 176,244 176,244 176,245 176,245 176,245 176,245 176,245 177,245 177,245 177,245 177,245 177,245 177,245 177,245 177,245 177,245 178,245 178,245 178,245 178,245 178,245 178,245 178,246 178,246 179,246 179,246 179,246 179,246 179,246 179,246 179,246 179,246 179,246 180,246 180,246 180,246 180,246 180,246 180,246 180,246 180,246 180,246 181,246 181,245 181,245 181,245 181,245 181,245 181,245 181,245 182,244 182,244 182,244 182,244 182,244 182,244 182,244 182,244 182,244 183,244 183,244 183,243 183,243 183,243 183,243 183,243 183,243 183,243 184,243 184,243 184,243 184,243 184,243 184,242 184,242 184,242 185,242 185,242 185,241 185,241 185,241 185,241 185,241 185,241 185,241 186,241 186,241 186,240 186,240 186,240 186,240 186,240 186,239 186,239 187,239 187,239 187,239 187,238 187,238 187,238 187,238 187,238 188,237 188,237 188,237 188,237 188,236 188,236 188,236 188,236 188,236 189,236 189,235 189,235 189,235 189,235 189,235 189,235 189,235 189,234 190,234 190,234 190,234 190,234 190,234 190,234 190,234 190,234 191,234 191,234 191,233 191,233 191,233 191,233 191,233 191,233 191,233 192,233 192,233 192,233 192,233 192,233 192,233 192,232 192,232 192,232 193,232 193,232 193,232 193,231 193,231 193,231 193,231 193,230 194,230 194,230 194,230 194,230 194,230 194,230 194,230 194,229 194,229 195,229 195,229 195,229 195,229 195,229 195,229 195,229 195,229 195,229 196,229 196,229 196,229 196,229 196,229 196,230 196,230 196,231 196,231 197,231 197,232 197,232 197,233 197,232 197,232 197,232 197,232 198,231 198,231 198,231 198,231 198,231 198,231 198,230 198,230 198,230 199,230 199,230 199,231 199,231 199,231 199,230 199,231 199,232 199,233 200,234 200,236 200,237 200,239 200,241 200,242 200,243 200,243 201,244 201,244 201,242 201,240 201,239 201,238 201,236 201,235 201,234 202,233 202,232 202,231 202,229 202,229 202,229 202,229 202,229 202,229 203,229 203,229 203,229 203,229 203,230 203,230 203,230 203,230 204,231 204,231 204,230 204,230 204,230 204,230 204,230 204,230 204,231 205,231 205,231 205,231 205,231 205,231 205,231 205,231 205,231 205,232 206,232 206,233 206,234 206,236 206,236 206,238 206,239 206,241 207,242 207,243 207,245 207,246 207,247 207,248 207,250 207,251 207,252 208,253 208,254 208,255 208,255 208,256 208,256 208,256 208,256 208,255 209,255 209,254 209,254 209,253 209,252 209,251 209,249 209,248 210,247 210,246 210,245 210,244 210,243 210,242 210,241 210,240 210,239 211,238 211,237 211,236 211,236 211,235 211,235 211,234 211,233 211,232 212,232 212,231 212,231 212,230 212,228 212,227 212,227 212,227 213,227 213,227 213,227 213,227 213,227 213,226 213,226 213,225 213,225 214,225 214,225 214,223 214,223 214,222 214,222 214,222 214,222 214,222 215,223 215,223 215,223 215,223 215,224 215,225 215,226 215,227 216,226 216,226 216,225 216,225 216,225 216,225 216,224 216,224 216,224 217,224 217,224 217,223 217,223 217,223 217,223 217,223 217,222 217,222 218,222 218,221 218,221 218,221 218,221 218,221 218,221 218,221 218,222 219,222 219,223 219,224 219,225 219,225 219,226 219,226 219,227 220,227 220,228 220,228 220,228 220,228 220,228 220,228 220,228 220,228 221,227 221,226 221,226 221,226 221,225 221,225 221,224 221,224 221,223 222,223 222,223 222,223 222,222 222,222 222,222 222,221 222,221 223,221 223,221 223,221 223,220 223,220 223,220 223,220 223,219 223,219 224,219 224,219 224,219 224,218 224,218 224,218 224,218 224,218 224,218 225,218 225,218 225,218 225,217 225,217 225,217 225,217 225,216 226,216 226,215 226,215 226,214 226,213 226,213 226,212 226,212 226,211 227,210 227,210 227,209 227,208 227,207 227,207 227,206 227,205 227,204 228,204 228,203 228,202 228,202 228,201 228,200 228,200 228,200 229,200 229,200 229,199 229,199 229,199 229,199 229,199 229,199 229,199 230,199 230,199 230,199 230,199 230,199 230,199 230,198 230,198 230,198 231,198 231,198 231,198 231,198 231,198 231,198 231,198 231,197 232,197 232,197 232,197 232,197 232,197 232,197 232,197 232,197 232,197 233,197 233,197 233,197 233,197 233,196 233,196 233,196 233,196 233,196 234,195 234,195 234,195 234,195 234,195 234,194 234,194 234,194 235,194 235,193 235,193 235,193 235,194 235,194 235,195 235,195 235,195 236,195 236,195 236,195 236,194 236,194 236,194 236,194 236,193 236,193 237,193 237,192 237,192 237,192 237,191 237,191 237,190 237,189 237,189 238,189 238,189 238,189 238,189 238,189 238,189 238,189 238,189 239,189 239,189 239,190 239,190 239,190 239,191 239,191 239,192 239,192 240,192 240,193 240,193 240,193 240,194 240,194 240,195 240,195 240,196 241,196 241,197 241,197 241,197 241,198 241,197 241,197 241,197 242,196 242,196 242,196 242,196 242,195 242,195 242,195 242,195 242,194 243,194 243,194 243,195 243,195 243,195 243,195 243,195 243,195 243,195 244,195 244,195 244,195 244,195 244,196 244,196 244,196 244,196 245,196 245,196 245,196 245,196 245,197 245,197 245,197 245,197 245,197 246,197 246,198 246,198 246,198 246,198 246,198 246,199 246,200 246,200 247,201 247,201 247,201 247,202 247,202 247,203 247,203 247,203 248,203 248,204 248,204 248,204 248,205 248,205 248,205 248,206 248,206 249,207 249,207 249,208 249,208 249,209 249,210 249,210 249,210 249,211 250,212 250,212 250,212 250,213 250,214 250,214 250,214 250,214 251,214 251,213 251,213 251,213 251,212 251,212 251,211 251,211 251,210 252,210 252,209 252,209 252,208 252,208 252,208 252,207 252,207 252,207 253,207 253,207 253,208 253,208 253,208 253,208 253,207 253,207 254,207 254,207 254,207 254,207 254,207 254,207 254,207 254,206 254,206 255,206 255,206 255,206 255,206 255,206 255,206 255,205 255,205 255,205 256,205 256,205 256,206 256,206 256,206 256,207 256,207 256,207 256,208 257,208 257,209 257,210 257,210 257,211 257,211 257,212 257,213 258,214 258,214 258,215 258,215 258,216 258,216 258,216 258,216 258,216 259,216 259,216 259,216 259,215 259,215 259,215 259,214 259,214 259,214 260,213 260,213 260,212 260,212 260,211 260,211 260,211 260,211 261,211 261,211 261,211 261,211 261,211 261,211 261,211 261,211 261,211 262,212 262,212 262,212 262,212 262,212 262,212 262,213 262,212 262,212 263,212 263,211 263,211 263,211 263,210 263,210 263,210 263,210 264,210 264,210 264,209 264,209 264,209 264,208 264,208 264,208 264,208 265,208 265,207 265,207 265,207 265,206 265,206 265,206 265,205 265,205 266,205 266,205 266,204 266,204 266,204 266,204 266,204 266,204 267,204 267,204 267,204 267,203 267,203 267,203 267,203 267,204 267,204 268,204 268,204 268,204 268,205 268,205 268,205 268,206 268,206 268,207 269,207 269,207 269,208 269,209 269,209 269,209 269,210 269,210 270,210 270,211 270,211 270,211 270,212 270,212 270,212 270,213 270,213 271,214 271,214 271,214 271,215 271,215 271,215 271,216 271,216 271,216 272,216 272,216 272,216 272,216 272,215 272,215 272,215 272,215 273,215 273,214 273,214 273,214 273,214 273,214 273,214 273,215 273,215 274,215 274,214 274,213 274,212 274,212 274,212 274,212 274,211 274,211 275,211 275,211 275,211 275,211 275,211 275,211 275,211 275,211 276,211 276,211 276,210 276,211 276,211 276,210 276,210 276,210 276,211 277,211 277,211 277,211 277,211 277,211 277,211 277,211 277,211 277,211 278,211 278,211 278,212 278,212 278,212 278,212 278,212 278,212 278,212 279,213 279,213 279,213 279,213 279,213 279,213 279,213 279,213 280,213 280,213 280,213 280,213 280,213 280,213 280,213 280,213 280,213 281,213 281,213 281,212 281,212 281,212 281,211 281,211 281,211 281,211 282,211 282,211 282,211 282,211 282,211 282,211 282,211 282,211 283,211 283,211 283,210 283,210 283,210 283,210 283,210 283,210 283,210 284,210 284,210 284,210 284,210 284,210 284,210 284,210 284,209 284,209 285,209 285,209 285,209 285,209 285,209 285,209 285,209 285,209 286,209 286,209 286,209 286,209 286,209 286,209 286,209 286,209 286,209 287,208 287,208 287,208 287,207 287,207 287,207 287,207 287,206 287,206 288,206 288,206 288,206 288,206 288,206 288,205 288,205 288,205 289,205 289,205 289,205 289,205 289,205 289,205 289,204 289,204 289,204 290,204 290,204 290,204 290,204 290,203 290,203 290,203 290,203 290,203 291,203 291,203 291,202 291,202 291,202 291,202 291,202 291,202 292,201 292,201 292,201 292,201 292,200 292,200 292,200 292,200 292,200 293,200 293,200 293,199 293,199 293,199 293,199 293,199 293,199 293,199 294,199 294,199 294,198 294,198 294,198 294,198 294,198 294,198 295,198 295,197 295,197 295,197 295,197 295,196 295,196 295,196 295,196 296,196 296,196 296,196 296,195 296,195 296,195 296,195 296,195 296,195 297,195 297,195 297,195 297,195 297,195 297,195 297,195 297,195 297,195 298,195 298,195 298,195 298,195 298,196 298,196 298,196 298,196 299,197 299,197 299,198 299,198 299,199 299,200 299,200 299,200 299,200 300,200 300,200 300,199 300,199 300,198 300,198 300,198 300,197 300,196 301,196 301,196 301,196 301,196 301,196 301,196 301,196 301,197 302,197 302,197 302,198 302,198 302,198 302,199 302,200 302,200 302,201 303,201 303,201 303,202 303,202 303,203 303,203 303,203 303,203 303,204 304,204 304,205 304,205 304,206 304,206 304,207 304,207 304,209 305,209 305,210 305,211 305,211 305,212 305,212 305,213 305,214 305,215 306,216 306,217 306,217 306,217 306,218 306,219 306,220 306,221 306,222 307,223 307,224 307,225 307,226 307,226 307,227 307,227 307,227 308,228 308,228 308,228 308,228 308,229 308,229 308,229 308,229 308,229 309,229 309,230 309,230 309,230 309,230 309,230 309,230 309,231 309,231 310,231 310,231 310,231 310,231 310,230 310,230 310,230 310,230 311,229 311,229 311,229 311,229 311,228 311,228 311,228 311,228 311,228 312,228 312,227 312,227 312,227 312,227 312,227 312,227 312,227 312,226 313,226 313,226 313,226 313,226 313,226 313,226 313,226 313,226 314,226 314,227 314,227 314,227 314,227 314,227 314,227 314,226 314,226 315,226 315,226 315,226 315,225 315,225 315,225 315,224 315,224 315,224 316,223 316,223 316,222 316,222 316,222 316,221 316,221 316,221 317,221 317,221 317,221 317,221 317,220 317,220 317,220 317,220 317,220 318,220 318,220 318,221 318,221 318,222 318,222 318,223 318,223 318,224 319,224 319,224 319,224 319,224 319,224 319,223 319,223 319,222 319,222 320,221 320,220 320,220 320,219 320,218 320,218 320,217 320,217 321,217 321,217 321,216 321,216 321,216 321,215 321,215 321,215 321,215 322,216 322,216 322,217 322,217 322,217 322,218 322,218 322,218 322,217 323,217 323,216 323,217 323,217 323,217 323,217 323,217 323,217 324,217 324,218 324,218 324,218 324,218 324,218 324,218 324,219 324,219 325,219 325,219 325,219 325,219 325,220 325,220 325,220 325,221 325,221 326,222 326,222 326,223 326,223 326,224 326,224 326,224 326,224 327,224 327,223 327,223 327,223 327,222 327,222 327,221 327,222 327,222 328,223 328,224 328,224 328,224 328,225 328,225 328,226 328,226 328,227 329,227 329,227 329,228 329,228 329,228 329,228 329,229 329,229 330,229 330,229 330,230 330,230 330,230 330,230 330,230 330,231 330,231 331,231 331,232 331,232 331,233 331,233 331,233 331,234 331,235 331,235 332,236 332,236 332,237 332,237 332,237 332,237 332,237 332,237 333,237 333,237 333,237 333,237 333,236 333,236 333,236 333,236 333,236 334,235 334,235 334,235 334,234 334,234 334,233 334,233 334,233 334,232 335,232 335,231 335,231 335,230 335,230 335,229 335,228 335,228 336,227 336,227 336,227 336,226 336,226 336,226 336,225 336,225 336,225 337,225 337,224 337,224 337,224 337,223 337,223 337,223 337,223 337,222 338,222 338,222 338,222 338,222 338,222 338,222 338,222 338,222 338,222 339,222 339,222 339,222 339,222 339,222 339,222 339,222 339,222 340,222 340,222 340,222 340,222 340,222 340,222 340,223 340,223 340,223 341,223 341,223 341,223 341,223 341,223 341,224 341,224 341,225 341,225 342,225 342,225 342,226 342,226 342,227 342,228 342,228 342,229 343,229 343,230 343,230 343,231 343,232 343,232 343,232 343,233 343,233 344,233 344,233 344,233 344,233 344,234 344,234 344,234 344,234 344,235 345,235 345,235 345,235 345,235 345,235 345,235 345,236 345,236 346,236 346,236 346,236 346,237 346,237 346,238 346,238 346,238 346,238 347,238 347,239 347,239 347,239 347,239 347,239 347,239 347,239 347,239 348,239 348,239 348,239 348,240 348,240 348,240 348,240 348,240 349,240 349,239 349,239 349,239 349,239 349,239 349,239 349,239 349,238 350,237 350,237 350,236 350,236 350,235 350,235 350,234 350,233 350,233 351,232 351,232 351,232 351,232 351,231 351,231 351,231 351,231 352,231 352,231 352,231 352,231 352,231 352,231 352,232 352,232 352,232 353,232 353,232 353,232 353,232 353,232 353,232 353,233 353,233 353,233 354,233 354,233 354,233 354,233 354,233 354,233 354,234 354,234 355,234 355,234 355,234 355,234 355,235 355,235 355,235 355,236 355,236 356,237 356,237 356,237 356,237 356,238 356,238 356,237 356,237 356,237 357,237 357,237 357,237 357,237 357,237 357,237 357,237 357,237 357,237 358,237 358,237 358,237 358,237 358,237 358,237 358,237 358,237 359,237 359,237 359,237 359,237 359,237 359,237 359,237 359,237 359,237 360,237 360,237 360,237 360,237 360,237 360,237 360,237 360,237 360,237 361,237 361,237 361,236 361,236 361,235 361,235 361,234 361,234 362,234 362,233 362,233 362,233 362,232 362,232 362,232 362,231 362,231 363,230 363,230 363,229 363,229 363,228 363,228 363,228 363,227 363,227 364,227 364,226 364,226 364,226 364,226 364,225 364,225 364,225 365,225 365,225 365,225 365,225 365,225 365,226 365,226 365,226 365,226 366,226 366,226 366,226 366,226 366,226 366,226 366,226 366,226 366,226 367,226 367,226 367,225 367,225 367,225 367,225 367,224 367,224 368,224 368,223 368,223 368,223 368,223 368,222 368,222 368,222 368,222 369,222 369,222 369,223 369,223 369,223 369,223 369,223 369,223 369,223 370,223 370,223 370,223 370,223 370,223 370,223 370,223 370,223 371,223 371,222 371,222 371,222 371,222 371,222 371,222 371,221 371,221 372,221 372,221 372,221 372,220 372,220 372,220 372,220 372,220 372,219 373,219 373,219 373,219 373,218 373,218 373,218 373,218 373,218 374,218 374,218 374,219 374,219 374,219 374,219 374,219 374,218 374,218 375,218 375,218 375,218 375,219 375,219 375,219 375,219 375,219 375,219 376,219 376,219 376,219 376,219 376,219 376,219 376,219 376,219 377,219 377,219 377,219 377,219 377,219 377,219 377,219 377,219 377,220 378,220 378,220 378,220 378,221 378,221 378,221 378,221 378,221 378,221 379,222 379,222 379,222 379,222 379,222 379,222 379,222 379,222 379,222 380,222 380,222 380,222 380,222 380,222 380,223 380,223 380,223 381,223 381,222 381,222 381,222 381,222 381,222 381,222 381,222 381,221 382,221 382,221 382,221 382,220 382,219 382,219 382,219 382,218 382,218 383,218 383,217 383,217 383,217 383,216 383,216 383,216 383,215 384,215 384,215 384,215 384,215 384,215 384,215 384,215 384,215 384,214 385,214 385,214 385,214 385,214 385,214 385,214 385,214 385,214 385,214 386,214 386,213 386,213 386,213 386,213 386,213 386,214 386,214 387,214 387,214 387,214 387,215 387,215 387,216 387,216 387,216 387,216 388,217 388,217 388,217 388,218 388,218 388,218 388,218 388,219 388,219 389,219 389,219 389,220 389,220 389,220 389,221 389,221 389,221 390,221 390,221 390,222 390,222 390,222 390,222 390,222 390,221 390,221 391,221 391,220 391,220 391,220 391,219 391,219 391,219 391,218 391,218 392,218 392,218 392,218 392,218 392,218 392,218 392,218 392,218 393,218 393,218 393,218 393,218 393,219 393,219 393,219 393,219 393,219 394,220 394,220 394,220 394,221 394,221 394,221 394,221 394,222 394,222 395,223 395,223 395,223 395,224 395,224 395,224 395,224 395,225 396,225 396,225 396,226 396,226 396,226 396,227 396,227 396,227 396,227 397,227 397,228 397,228 397,228 397,228 397,229 397,229 397,229 397,229 398,229 398,229 398,229 398,228 398,228 398,228 398,227 398,227 398,227 399,226 399,226 399,226 399,225 399,225 399,225 399,225 399,224 400,224 400,224 400,224 400,224 400,224 400,224 400,224 400,224 400,224 401,224 401,224 401,225 401,225 401,225 401,225 401,226 401,226 401,226 402,227 402,227 402,227 402,227 402,227 402,227 402,226 402,226 403,226 403,225 403,225 403,224 403,224 403,223 403,223 403,223 403,222 404,221 404,220 404,220 404,219 404,219 404,218 404,217 404,217 404,216 405,215 405,214 405,214 405,214 405,214 405,214 405,214 405,214 406,214 406,214 406,214 406,214 406,214 406,214 406,214 406,214 406,215 407,215 407,215 407,215 407,216 407,216 407,217 407,217 407,217 407,218 408,218 408,219 408,219 408,220 408,220 408,220 408,221 408,221 409,221 409,221 409,221 409,222 409,222 409,222 409,222 409,222 409,222 410,222 410,222 410,223 410,223 410,223 410,223 410,224 410,224 410,224 411,224 411,225 411,225 411,225 411,225 411,226 411,226 411,226 412,227 412,227 412,227 412,228 412,228 412,228 412,228 412,228 412,228 413,228 413,228 413,228 413,228 413,229 413,229 413,229 413,229 413,229 414,229 414,229 414,229 414,229 414,229 414,229 414,229 414,229 415,229 415,229 415,229 415,229 415,229 415,228 415,228 415,228 415,228 416,228 416,228 416,228 416,228 416,228 416,228 416,228 416,228 416,228 417,228 417,228 417,228 417,228 417,228 417,228 417,227 417,227 418,227 418,227 418,227 418,227 418,227 418,227 418,227 418,227 418,227 419,226 419,226 419,226 419,226 419,225 419,225 419,224 419,224 419,224 420,224 420,224 420,224 420,224 420,223 420,223 420,223 420,222 420,222 421,222 421,221 421,221 421,220 421,219 421,219 421,218 421,217 422,216 422,216 422,215 422,214 422,214 422,213 422,212 422,212 422,211 423,211 423,210 423,210 423,210 423,210 423,210 423,210 423,210 423,210 424,210 424,210 424,211 424,211 424,211 424,211 424,211 424,211 425,211 425,210 425,209 425,209 425,208 425,207 425,207 425,206 425,205 426,204 426,204 426,203 426,202 426,201 426,200 426,199 426,198 426,197 427,195 427,194 427,192 427,192 427,191 427,190 427,190 427,189 428,189 428,189 428,188 428,188 428,187 428,187 428,187 428,186 428,186 429,186 429,186 429,185 429,185 429,184 429,184 429,184 429,183 429,183 430,182 430,181 430,179 430,178 430,177 430,175 430,174 430,173 431,171 431,170 431,169 431,168 431,167 431,166 431,166 431,165 431,164 432,163 432,162 432,162 432,161 432,160 432,160 432,159 432,158 432,157 433,157 433,156 433,156 433,155 433,154 433,154 433,153 433,153 434,152 434,151 434,151 434,151 434,150 434,150 434,150 434,150 434,149 435,149 435,149 435,149 435,148 435,148 435,148 435,148 435,147 435,147 436,147 436,147 436,147 436,146 436,146 436,146 436,146 436,146 437,145 437,145 437,145 437,144 437,144 437,144 437,143 437,143 437,143 438,142 438,142 438,142 438,142 438,142 438,142 438,142 438,142 438,142 439,142 439,141 439,141 439,141 439,141 439,140 439,140 439,140 439,140 440,140 440,139 440,139 440,139 440,138 440,138 440,138 440,138 441,138 441,138 441,138 441,139 441,139 441,139 441,140 441,140 441,141 442,141 442,142 442,142 442,143 442,143 442,144 442,144 442,145 442,145 443,145 443,146 443,146 443,147 443,147 443,148 443,149 443,149 444,150 444,150 444,150 444,151 444,151 444,152 444,152 444,153 444,153 445,153 445,153 445,154 445,154 445,155 445,155 445,155 445,156 445,157 446,157 446,158 446,158 446,159 446,160 446,161 446,161 446,162 447,162 447,162 447,162 447,161 447,161 447,161 447,160 447,159 447,158 448,157 448,157 448,156 448,155 448,154 448,153 448,153 448,152 448,152 449,152 449,151 449,151 449,151 449,151 449,151 449,151 449,151 450,151 450,150 450,150 450,150 450,149 450,149 450,149 450,148 450,148 451,148 451,147 451,147 451,147 451,147 451,147 451,147 451,147 451,147 452,147 452,147 452,147 452,147 452,147 452,147 452,147 452,147 453,147 453,147 453,147 453,148 453,148 453,149 453,149 453,150 453,150 454,151 454,151 454,152 454,152 454,153 454,153 454,154 454,155 454,156 455,156 455,157 455,157 455,158 455,157 455,156 455,156 455,155 456,155 456,154 456,153 456,153 456,152 456,151 456,151 456,150 456,150 457,149 457,149 457,149 457,148 457,147 457,147 457,146 457,145 457,144 458,143 458,143 458,142 458,142 458,141 458,140 458,140 458,139 458,138 459,138 459,137 459,137 459,137 459,136 459,136 459,136 459,136 460,136 460,135 460,135 460,135 460,135 460,135 460,135 460,135 460,135 461,135 461,135 461,135 461,135 461,135 461,135 461,135 461,135 461,136 462,136 462,136 462,137 462,137 462,137 462,137 462,138 462,138 463,139 463,139 463,140 463,140 463,141 463,141 463,142 463,142 463,142 464,142 464,142 464,141 464,141 464,141 464,141 464,141 464,141 464,141 465,140 465,140 465,140 465,140 465,140 465,140 465,140 465,140 466,140 466,140 466,140 466,141 466,140 466,140 466,140 466,140 466,140 467,140 467,139 467,139 467,138 467,138 467,137 467,137 467,137 467,136 468,136 468,135 468,135 468,134 468,134 468,133 468,133 468,132 469,132 469,132 469,131 469,131 469,130 469,129 469,129 469,129 469,128 470,128 470,127 470,127 470,127 470,126 470,126 470,126 470,126 470,126 471,126 471,126 471,127 471,127 471,127 471,128 471,128 471,129 472,129 472,129 472,130 472,130 472,131 472,132 472,132 472,133 472,134 473,134 473,135 473,136 473,137 473,137 473,138 473,139 473,139 473,140 474,141 474,142 474,143 474,143 474,143 474,144 474,144 474,144 475,145 475,145 475,145 475,146 475,146 475,147 475,147 475,147 475,147 476,148 476,148 476,149 476,150 476,151 476,152 476,153 476,153 476,154 477,155 477,155 477,155 477,156 477,156 477,156 477,156 477,156 478,155 478,155 478,155 478,154 478,154 478,154 478,154 478,153 478,153 479,153 479,153 479,153 479,153 479,153 479,153 479,153 479,153 479,154 480,154 480,154 480,154 480,155 480,155 480,155 480,155 480,156 480,156 481,156 481,157 481,157 481,157 481,157 481,157 481,157 481,157 482,156 482,156 482,156 482,156 482,155 482,155 482,155 482,154 482,154 483,153 483,152 483,151 483,150 483,150 483,150 483,149 483,148 483,148 484,147 484,147 484,146 484,146 484,145 484,145 484,144 484,144 485,144 485,143 485,143 485,142 485,142 485,142 485,142 485,142 485,143 486,143 486,143 486,144 486,145 486,145 486,145 486,145 486,146 486,146 487,147 487,147 487,147 487,148 487,148 487,149 487,149 487,149 488,149 488,149 488,150 488,150 488,150 488,150 488,151 488,151 488,151 489,152 489,152 489,153 489,153 489,154 489,154 489,155 489,155 489,156 490,157 490,157 490,158 490,158 490,159 490,159 490,160 490,160 491,161 491,161 491,161 491,162 491,163 491,163 491,164 491,164 491,165 492,165 492,165 492,165 492,166 492,166 492,166 492,166 492,166 492,166 493,166 493,166 493,166 493,166 493,166 493,166 493,166 493,166 494,165 494,165 494,165 494,165 494,165 494,165 494,165 494,164 494,164 495,164 495,164 495,165 495,165 495,165 495,165 495,165 495,165 495,165 496,164 496,164 496,164 496,164 496,163 496,163 496,163 496,163 497,163 497,163 497,163 497,163 497,163 497,163 497,163 497,163 497,163 498,163 498,163 498,162 498,163 498,163 498,163 498,163 498,163 498,163 499,163 499,162 499,162 499,162 499,162 499,161 499,161 499,161 499,161 500,161 500,160 500,160 500,160 500,160 500,160 500,159 500,158 501,158 501,158 501,158 501,158 501,158 501,158 501,158 501,158 501,158 502,157 502,157 502,157 502,157 502,156 502,156 502,155 502,154 502,154 503,153 503,153 503,152 503,152 503,151 503,151 503,151 503,150 504,150 504,150 504,149 504,149 504,149 504,148 504,148 504,148 504,147 505,147 505,147 505,146 505,146 505,145 505,145 505,145 505,144 505,144 506,143 506,143 506,142 506,142 506,141 506,141 506,140 506,139 507,139 507,139 507,139 507,138 507,138 507,138 507,137 507,137 507,137 508,136 508,136 508,135 508,135 508,135 508,135 508,134 508,134 508,134 509,134 509,134 509,134 509,134 509,134 509,134 509,134 509,134 510,134 510,135 510,135 510,135 510,135 510,135 510,135 510,135 510,136 511,136 511,136 511,136 511,137 511,137 511,137 511,137 511,138 511,139 512,140 512,140 512,141 512,141 512,141 512,142 512,143 512,143 513,143 513,144 513,144 513,144 513,145 513,145 513,145 513,146 513,146 514,146 514,147 514,147 514,147 514,147 514,148 514,148 514,148 514,148 515,148 515,149 515,149 515,149 515,149 515,149 515,149 515,149 516,149 516,149 516,149 516,149 516,149 516,150 516,150 516,150 516,150 517,151 517,151 517,151 517,152 517,152 517,153 517,153 517,153 517,153 518,153 518,153 518,153 518,153 518,153 518,153 518,153 518,153 518,153 519,154 519,154 519,154 519,154 519,155 519,155 519,155 519,156 520,156 520,156 520,156 520,156 520,156 520,157 520,157 520,157 520,157 521,157 521,157 521,157 521,157 521,157 521,158 521,158 521,158 521,158 522,158 522,159 522,159 522,159 522,159 522,159 522,159 522,159 523,160 523,160 523,160 523,160 523,161 523,161 523,161 523,161 523,161 524,161 524,162 524,162 524,162 524,162 524,163 524,163 524,163 524,163 525,163 525,163 525,163 525,164 525,164 525,164 525,164 525,164 526,164 526,164 526,165 526,165 526,165 526,165 526,165 526,165 526,165 527,165 527,165 527,165 527,165 527,165 527,165 527,165 527,165 527,165 528,165 528,165 528,166 528,166 528,166 528,166 528,166 528,166 529,166 529,166 529,166 529,167 529,167 529,167 529,167 529,167 529,167 530,167 530,167 530,167 530,167 530,166 530,167 530,167 530,167 530,167 531,167 531,167 531,166 531,166 531,167 531,167 531,167 531,167 532,167 532,166 532,166 532,166 532,166 532,166 532,165 532,165 532,165 533,165 533,165 533,165 533,164 533,164 533,164 533,164 533,163 533,163 534,163 534,163 534,162 534,162 534,162 534,161 534,161 534,160 535,160 535,159 535,159 535,159 535,158 535,157 535,157 535,156 535,156 536,155 536,155 536,154 536,154 536,153 536,152 536,152 536,151 536,150 537,149 537,149 537,148 537,147 537,147 537,146 537,145 537,145 538,144 538,143 538,143 538,142 538,142 538,141 538,141 538,140 538,140 539,140 539,140 539,140 539,140 539,141 539,141 539,141 539,141 539,141 540,141 540,141 540,142 540,142 540,142 540,142 540,142 540,142 540,142 541,142 541,142 541,142 541,142 541,142 541,142 541,142 541,142 542,142 542,142 542,142 542,142 542,142 542,142 542,141 542,141 542,142 543,142 543,142 543,142 543,142 543,142 543,142 543,143 543,143 543,143 544,144 544,144 544,144 544,145 544,145 544,145 544,145 544,145 545,145 545,146 545,146 545,146 545,146 545,146 545,147 545,147 545,147 546,147 546,148 546,148 546,148 546,148 546,148 546,148 546,148 546,148 547,148 547,148 547,148 547,148 547,148 547,147 547,147 547,147 548,147 548,147 548,146 548,146 548,146 548,146 548,146 548,146 548,146 549,146 549,146 549,146 549,146 549,146 549,145 549,145 549,145 549,145 550,145 550,146 550,146 550,146 550,146 550,146 550,146 550,146 551,146 551,146 551,146 551,146 551,146 551,146 551,146 551,146 551,146 552,146 552,146 552,146 552,146 552,146 552,146 552,146 552,146 552,146 553,146 553,146 553,146 553,146 553,146 553,147 553,147 553,147 554,147 554,147 554,147 554,147 554,147 554,147 554,147 554,146 554,146 555,146 555,147 555,146 555,146 555,146 555,146 555,146 555,145 555,145 556,145 556,145 556,144 556,144 556,144 556,143 556,143 556,143 557,143 557,143 557,143 557,143 557,144 557,144 557,144 557,144 557,144 558,144 558,144 558,144 558,144 558,144 558,144 558,143 558,143 558,143 559,142 559,142 559,142 559,141 559,141 559,140 559,140 559,140 559,139 560,139 560,139 560,138 560,138 560,138 560,138 560,137 560,137 561,136 561,136 561,136 561,135 561,135 561,134 561,134 561,134 561,133 562,133 562,132 562,132 562,131 562,130 562,130 562,130 562,129 562,129 563,128 563,128 563,127 563,127 563,126 563,126 563,126 563,125 564,125 564,125 564,124 564,124 564,124 564,123 564,123 564,122 564,122 565,121 565,121 565,120 565,120 565,119 565,118 565,118 565,117 565,117 566,116 566,116 566,115 566,115 566,114 566,113 566,113 566,113 567,113 567,112 567,112 567,112 567,112 567,112 567,112 567,112 567,112 568,112 568,112 568,112 568,112 568,112 568,112 568,112 568,112 568,112 569,113 569,113 569,114 569,115 569,115 569,116 569,117 569,118 570,119 570,119 570,120 570,120 570,121 570,122 570,122 570,123 570,123 571,124 571,125 571,126 571,126 571,127 571,128 571,128 571,128 571,129 572,129 572,130 572,130 572,131 572,131 572,132 572,132 572,133 573,133 573,134 573,134 573,135 573,135 573,135 573,135 573,136 573,136 574,137 574,137 574,137 574,138 574,138 574,138 574,139 574,139 574,139 575,140 575,140 575,140 575,140 575,141 575,141 575,141 575,141 576,141 576,142 576,142 576,142 576,142 576,142 576,143 576,143 576,143 577,143 577,143 577,143 577,144 577,144 577,144 577,144 577,144 577,144 578,144 578,145 578,145 578,145 578,145 578,146 578,146 578,146 579,146 579,146 579,146 579,147 579,147 579,147 579,147 579,147 579,147 580,148 580,148 580,148 580,148 580,148 580,148 580,148 580,148 580,148 581,149 581,149 581,149 581,149 581,149 581,149 581,149 581,150 581,150 582,150 582,150 582,150 582,150 582,150 582,150 582,150 582,150 583,151 583,151 583,151 583,151 583,151 583,151 583,151 583,151 583,151 584,151 584,151 584,151 584,151 584,151 584,151 584,151 584,151 584,151 585,151 585,151 585,151 585,151 585,151 585,151 585,151 585,151 586,151 586,151 586,150 586,150 586,150 586,150 586,150 586,150 586,151 587,151 587,151 587,151 587,151 587,151 587,150 587,150 587,150 587,150 588,150 588,150 588,150 588,150 588,150 588,150 588,150 588,149 589,149 589,149 589,149 589,149 589,149 589,149 589,149 589,149 589,149 590,149 590,149 590,149 590,149 590,149 590,149 590,149 590,149 590,149 591,149 591,149 591,148 591,148 591,148 591,148 591,148 591,148 592,148 592,148 592,148 592,148 592,147 592,147 592,147 592,147 592,147 593,147 593,147 593,147 593,146 593,146 593,146 593,146 593,146 593,146 594,145 594,145 594,145 594,145 594,145 594,145 594,144 594,144 595,144 595,144 595,144 595,143 595,143 595,143 595,143 595,143 595,142 596,142 596,142 596,142 596,141 596,141 596,140 596,140 596,139 596,139 597,139 597,139 597,138 597,138 597,137 597,137 597,136 597,136 598,135 598,134 598,134 598,133 598,133 598,132 598,132 598,132 598,131 599,131 599,131 599,131 599,131 599,131 599,131 599,131 599,131 599,131 600,131 600,131 600,131 600,131 600,131 600,131 600,131 600,131 600,131 601,131 601,131 601,132 601,132 601,132 601,132 601,132 601,133 602,133 602,133 602,133 602,134 602,134 602,134 602,134 602,135 602,135 603,135 603,136 603,136 603,137 603,137 603,137 603,138 603,138 603,139 604,139 604,139 604,140 604,140 604,140 604,140 604,141 604,141 605,141 605,142 605,142 605,142 605,142 605,143 605,143 605,143 605,143 606,143 606,144 606,144 606,144 606,144 606,144 606,144 606,145 606,145 607,145 607,145 607,145 607,145 607,145 607,145 607,145 607,145 608,146 608,146 608,146 608,146 608,146 608,146 608,146 608,146 608,146 609,146 609,147 609,147 609,147 609,147 609,147 609,147 609,147 609,147 610,147 610,147 610,148 610,148 610,148 610,148 610,148 610,148 611,148 611,148 611,148 611,148 611,148 611,148 611,148 611,149 611,149 612,149 612,149 612,149 612,149 612,149 612,149 612,149 612,149 612,149 613,149 613,149 613,149 613,149 613,149 613,149 613,149 613,150 614,150 614,150 614,150 614,150 614,150 614,150 614,150 614,150 614,150 615,150 615,150 615,150 615,150 615,151 615,151 615,151 615,151 615,151 616,151 616,151 616,151 616,151 616,151 616,151 616,151 616,151 617,150 617,150 617,150 617,150 617,150 617,150 617,150 617,150 617,150 618,150 618,150 618,150 618,150 618,150 618,150 618,151 618,151 618,151 619,151 619,151 619,151 619,151 619,151 619,151 619,151 619,152 619,152 620,152 620,152 620,152 620,152 620,152 620,152 620,152 620,152 621,152 621,152 621,152 621,152 621,152 621,152 621,152 621,152 621,152 622,152 622,152 622,152 622,152 622,152 622,152 622,152 622,152 622,152 623,152 623,152 623,152 623,153 623,153 623,153 623,153 623,153 624,153 624,153 624,153 624,153 624,153 624,153 624,153 624,153 624,153 625,153 625,153 625,153 625,153 625,153 625,153 625,153 625,153 625,153 626,153 626,153 626,153 626,153 626,153 626,153 626,153 626,153 627,153 627,153 627,153 627,153 627,153 627,153 627,153 627,153 627,153 628,153 628,153 628,153 628,153 628,153 628,153 628,154 628,154 628,154 629,154 629,154 629,154 629,154 629,154 629,154 629,154 629,154 630,154 630,154 630,154 630,154 630,154 630,154 630,154 630,154 630,154 631,154 631,154 631,154 631,154 631,154 631,154 631,154 631,154 631,154 632,154 632,154 632,154 632,154 632,154 632,154 632,154 632,154 633,154 633,154 633,154 633,154 633,154 633,154 633,154 633,154 633,154 634,154 634,154 634,154 634,154 634,154 634,153 634,153 634,153 634,153 635,153 635,153 635,153 635,153 635,153 635,153 635,153 635,153 636,153 636,153 636,152 636,152 636,152 636,152 636,152 636,152 636,152 637,152 637,152 637,152 637,152 637,152 637,152 637,152 637,152 637,152 638,152 638,152 638,152 638,152 638,152 638,152 638,152 638,152 639,152 639,152 639,152 639,152 639,152 639,152 639,152 639,152 639,151 640,151 640,151 640,151 640,152 640,152 640,151 640,151 640,151 640,151 641,151 641,151 641,151 641,151 641,151 641,151 641,151 641,151 641,151 642,151 642,151 642,151 642,151 642,150 642,150 642,150 642,151 643,151 643,151 643,151 643,151 643,151 643,151 643,151 643,151 643,152 644,152 644,152 644,152 644,152 644,152 644,152 644,152 644,152 644,152 645,152 645,152 645,152 645,152 645,151 645,151 645,151 645,151 646,151 646,151 646,151 646,151 646,151 646,151 646,151 646,151 646,151 647,151 647,151 647,151 647,151 647,151 647,151 647,151 647,151 647,151 648,151 648,151 648,151 648,151 648,151 648,151 648,151 648,151 649,151 649,151 649,151 649,151 649,152 649,152 649,152 649,152 649,152 650,152 650,152 650,152 650,152 650,153 650,153 650,153 650,153 650,153 651,153 651,153 651,153 651,153 651,153 651,152 651,152 651,152 652,152 652,151 652,151 652,151 652,151 652,150 652,150 652,150 652,150 653,149 653,149 653,149 653,148 653,148 653,148 653,147 653,147 653,146 654,146 654,146 654,145 654,144 654,143 654,143 654,143 654,143 655,143 655,143 655,143 655,144 655,146 655,147 655,148 655,149 655,150 656,150 656,151 656,151 656,151 656,151 656,151 656,151 656,152 656,152 657,152 657,151 657,151 657,151 657,151 657,151 657,151 657,151 658,151 658,151 658,151 658,151 658,152 658,152 658,152 658,152 658,152 659,152 659,152 659,152 659,152 659,152 659,152 659,152 659,152 659,152 660,152 660,152 660,152 660,152 660,152 660,152 660,152 660,152 660,152 661,152 661,152 661,152 661,152 661,152 661,152 661,152 661,152 662,152 662,152 662,152 662,152 662,152 662,152 662,152 662,152 662,152 663,152 663,152 663,152 663,152 663,152 663,152 663,152 663,152 663,152 664,152 664,152 664,152 664,152 664,152 664,152 664,152 664,152 665,152 665,152 665,152 665,152 665,152 665,152 665,152 665,152 665,152 666,152 666,152 666,151 666,151 666,151 666,151 666,151 666,151 666,151 667,152 667,152 667,152 667,152 667,152 667,152 667,152 667,152 668,152 668,152 668,152 668,152 668,152 668,152 668,152 668,152 668,152 669,152 669,152 669,152 669,152 669,152 669,152 669,152 669,152 669,152 670,152 670,152 670,152 670,152 670,152 670,152 670,152 670,152 671,151 671,151 671,151 671,151 671,151 671,151 671,151 671,151 671,151 672,151 672,151 672,151 672,151 672,151 672,151 672,151 672,151 672,151 673,151 673,151 673,151 673,151 673,151 673,151 673,151 673,151 674,151 674,151 674,151 674,151 674,151 674,151 674,151 674,151 674,151 675,151 675,151 675,151 675,151 675,151 675,151 675,151 675,151 675,151 676,151 676,151 676,151 676,151 676,151 676,151 676,151 676,151 677,151 677,151 677,151 677,151 677,151 677,151 677,151 677,150 677,150 678,150 678,150 678,150 678,150 678,150 678,150 678,150 678,150 678,150 679,150 679,151 679,151 679,150 679,150 679,150 679,150 679,150 679,150 680,150 680,150 680,150 680,150 680,150 680,150 680,151 680,151 681,151 681,151 681,151 681,151 681,151 681,151 681,151 681,151 681,151 682,150 682,150 682,150 682,150 682,150 682,150 682,150 682,150 682,150 683,150 683,150 683,150 683,150 683,150 683,150 683,150 683,150 684,150 684,150 684,150 684,150 684,150 684,150 684,150 684,150 684,149 685,149 685,149 685,149 685,149 685,149 685,149 685,149 685,149 685,149 686,149 686,149 686,149 686,149 686,149 686,149 686,149 686,149 687,149 687,149 687,149 687,149 687,149 687,149 687,149 687,149 687,149 688,149 688,149 688,149 688,149 688,149 688,149 688,149 688,149 688,149 689,149 689,149 689,149 689,149 689,148 689,148 689,148 689,148 690,148 690,149 690,149 690,149 690,149 690,149 690,149 690,148 690,148 691,148 691,148 691,148 691,148 691,148 691,148 691,148 691,148 691,148 692,148 692,148 692,148 692,148 692,148 692,148 692,148 692,149 693,149 693,149 693,149 693,149 693,149 693,149 693,149 693,149 693,149 694,149 694,149 694,149 694,149 694,149 694,149 694,149 694,149 694,149 695,149 695,149 695,149 695,149 695,149 695,149 695,149 695,149 696,149 696,149 696,149 696,149 696,149 696,149 696,149 696,149 696,149 697,149 697,149 697,149 697,149 697,149 697,149 697,149 697,149 697,149 698,149 698,149 698,149 698,149 698,149 698,149 698,149 698,149 " vector-effect="non-scaling-stroke"></polyline>
</g></svg>