<?xml version="1.0" encoding="UTF-8" standalone="no"?><svg width="282.222mm" height="141.111mm" xmlns="http://www.w3.org/2000/svg" xmlns:xlink="http://www.w3.org/1999/xlink"  version="1.2" baseProfile="tiny"><g fill="none" stroke="#ff0000" stroke-linecap="round" stroke-linejoin="round" stroke-opacity="1" stroke-width="1.5" transform="matrix(1,0,0,1,0,0)">
<polyline fill="none" points="35,358 36,358 36,358 36,358 36,358 36,358 36,358 36,358 36,358 36,358 37,358 37,358 37,357 37,357 37,357 37,357 37,357 37,357 37,357 37,357 38,357 38,357 38,357 38,357 38,357 38,357 38,357 38,357 38,357 38,357 39,357 39,357 39,357 39,357 39,357 39,357 39,357 39,357 39,357 39,357 40,357 40,357 40,357 40,357 40,357 40,357 40,357 40,357 40,357 41,357 41,357 41,356 41,356 41,356 41,356 41,356 41,356 41,356 41,356 42,356 42,356 42,356 42,356 42,356 42,356 42,356 42,356 42,356 42,356 43,356 43,356 43,356 43,356 43,356 43,356 43,355 43,355 43,355 43,355 44,355 44,355 44,355 44,355 44,355 44,355 44,355 44,355 44,355 44,355 45,355 45,355 45,355 45,355 45,355 45,355 45,355 45,355 45,355 46,354 46,354 46,354 46,354 46,354 46,354 46,354 46,354 46,354 46,354 47,354 47,354 47,354 47,354 47,354 47,354 47,354 47,354 47,354 47,354 48,354 48,354 48,354 48,354 48,354 48,354 48,354 48,354 48,354 48,353 49,353 49,353 49,353 49,353 49,353 49,353 49,353 49,353 49,353 50,353 50,353 50,352 50,352 50,352 50,352 50,352 50,352 50,352 50,352 51,352 51,352 51,352 51,352 51,351 51,351 51,351 51,351 51,351 51,351 52,351 52,351 52,351 52,351 52,351 52,350 52,350 52,350 52,350 52,350 53,350 53,350 53,350 53,350 53,350 53,350 53,349 53,349 53,349 54,349 54,349 54,349 54,348 54,348 54,348 54,348 54,348 54,348 54,347 55,347 55,347 55,347 55,347 55,347 55,347 55,346 55,346 55,346 55,346 56,346 56,346 56,346 56,346 56,346 56,346 56,345 56,345 56,345 56,345 57,345 57,345 57,345 57,345 57,345 57,344 57,344 57,344 57,344 58,344 58,344 58,343 58,343 58,343 58,343 58,343 58,343 58,343 58,342 59,342 59,342 59,342 59,342 59,342 59,342 59,342 59,342 59,342 59,341 60,341 60,341 60,341 60,341 60,341 60,340 60,340 60,340 60,340 60,339 61,339 61,339 61,339 61,339 61,338 61,338 61,338 61,338 61,338 61,338 62,337 62,337 62,337 62,337 62,337 62,337 62,336 62,336 62,336 63,336 63,336 63,336 63,336 63,336 63,335 63,335 63,335 63,335 63,335 64,335 64,335 64,335 64,335 64,335 64,334 64,334 64,334 64,334 64,334 65,334 65,334 65,334 65,334 65,333 65,333 65,333 65,333 65,333 65,333 66,332 66,332 66,332 66,332 66,332 66,332 66,331 66,331 66,331 67,331 67,331 67,331 67,330 67,330 67,330 67,330 67,330 67,330 67,329 68,329 68,329 68,329 68,329 68,329 68,329 68,328 68,328 68,328 68,328 69,328 69,328 69,328 69,328 69,327 69,327 69,327 69,327 69,327 69,327 70,327 70,326 70,326 70,326 70,326 70,326 70,326 70,326 70,325 71,325 71,325 71,325 71,325 71,325 71,324 71,324 71,324 71,324 71,324 72,324 72,323 72,323 72,323 72,323 72,323 72,322 72,322 72,322 72,322 73,322 73,321 73,321 73,321 73,321 73,320 73,320 73,320 73,319 73,319 74,319 74,319 74,319 74,318 74,318 74,318 74,318 74,317 74,317 74,317 75,317 75,316 75,316 75,316 75,316 75,316 75,315 75,315 75,315 76,315 76,315 76,315 76,316 76,316 76,316 76,316 76,316 76,316 76,316 77,315 77,315 77,314 77,314 77,313 77,312 77,312 77,311 77,311 77,310 78,309 78,309 78,308 78,308 78,307 78,306 78,306 78,305 78,305 78,304 79,304 79,304 79,304 79,304 79,304 79,303 79,303 79,303 79,303 80,302 80,302 80,302 80,302 80,301 80,301 80,301 80,301 80,301 80,300 81,300 81,300 81,300 81,300 81,299 81,299 81,298 81,298 81,298 81,297 82,297 82,296 82,296 82,295 82,295 82,294 82,294 82,294 82,293 82,293 83,293 83,292 83,292 83,292 83,292 83,291 83,291 83,291 83,290 84,290 84,290 84,289 84,289 84,289 84,289 84,288 84,288 84,288 84,287 85,287 85,287 85,287 85,287 85,287 85,286 85,286 85,286 85,286 85,286 86,286 86,286 86,286 86,286 86,286 86,285 86,285 86,285 86,285 86,285 87,285 87,285 87,285 87,285 87,285 87,285 87,284 87,284 87,284 88,284 88,284 88,284 88,284 88,284 88,283 88,283 88,283 88,283 88,283 89,283 89,282 89,282 89,282 89,282 89,282 89,282 89,281 89,281 89,281 90,281 90,281 90,280 90,280 90,280 90,280 90,280 90,280 90,279 90,279 91,279 91,279 91,279 91,279 91,278 91,278 91,278 91,278 91,278 91,278 92,277 92,277 92,277 92,277 92,277 92,277 92,276 92,276 92,276 93,276 93,276 93,276 93,275 93,275 93,275 93,275 93,275 93,275 93,274 94,274 94,274 94,274 94,274 94,274 94,273 94,273 94,273 94,273 94,273 95,272 95,272 95,272 95,272 95,272 95,272 95,271 95,271 95,271 95,271 96,271 96,271 96,270 96,270 96,270 96,270 96,270 96,270 96,269 97,269 97,269 97,269 97,269 97,269 97,268 97,268 97,268 97,268 97,268 98,268 98,267 98,267 98,267 98,267 98,267 98,267 98,267 98,266 98,266 99,266 99,266 99,265 99,265 99,265 99,265 99,264 99,264 99,264 99,264 100,264 100,264 100,264 100,264 100,264 100,264 100,264 100,264 100,264 101,264 101,264 101,263 101,263 101,263 101,263 101,263 101,263 101,263 101,263 102,263 102,263 102,263 102,263 102,263 102,262 102,262 102,262 102,262 102,262 103,261 103,261 103,261 103,261 103,261 103,261 103,261 103,260 103,260 103,260 104,260 104,260 104,260 104,260 104,259 104,259 104,259 104,259 104,259 104,259 105,258 105,258 105,258 105,258 105,258 105,258 105,258 105,258 105,258 106,259 106,259 106,259 106,259 106,259 106,259 106,259 106,260 106,260 106,260 107,260 107,260 107,260 107,260 107,260 107,260 107,261 107,261 107,261 107,261 108,261 108,262 108,262 108,262 108,263 108,263 108,263 108,263 108,263 108,262 109,262 109,262 109,261 109,261 109,261 109,260 109,260 109,260 109,260 110,259 110,259 110,259 110,258 110,258 110,257 110,257 110,256 110,256 110,255 111,255 111,254 111,254 111,254 111,253 111,253 111,252 111,252 111,252 111,251 112,251 112,251 112,250 112,250 112,250 112,250 112,250 112,250 112,249 112,249 113,249 113,249 113,249 113,249 113,248 113,248 113,248 113,248 113,248 114,248 114,247 114,247 114,247 114,247 114,247 114,247 114,247 114,247 114,247 115,247 115,247 115,247 115,247 115,247 115,247 115,247 115,247 115,247 115,247 116,247 116,247 116,247 116,247 116,247 116,247 116,247 116,247 116,247 116,247 117,247 117,247 117,247 117,247 117,247 117,247 117,247 117,247 117,248 118,248 118,248 118,248 118,248 118,248 118,248 118,249 118,249 118,249 118,249 119,250 119,250 119,250 119,250 119,251 119,251 119,251 119,252 119,252 119,252 120,253 120,253 120,254 120,254 120,255 120,255 120,256 120,257 120,257 120,258 121,258 121,259 121,259 121,260 121,260 121,260 121,261 121,261 121,261 121,261 122,261 122,262 122,262 122,262 122,261 122,261 122,261 122,260 122,260 123,260 123,259 123,259 123,259 123,259 123,258 123,258 123,258 123,258 123,257 124,257 124,257 124,257 124,257 124,257 124,257 124,256 124,256 124,256 124,257 125,257 125,257 125,257 125,258 125,258 125,258 125,259 125,259 125,259 125,260 126,260 126,260 126,261 126,261 126,261 126,262 126,262 126,263 126,263 127,263 127,264 127,264 127,264 127,265 127,265 127,265 127,265 127,265 127,266 128,266 128,266 128,266 128,267 128,267 128,267 128,267 128,267 128,267 128,267 129,267 129,267 129,266 129,266 129,266 129,266 129,265 129,265 129,265 129,264 130,264 130,264 130,263 130,263 130,263 130,262 130,262 130,262 130,261 131,261 131,261 131,261 131,260 131,260 131,260 131,260 131,259 131,259 131,259 132,259 132,258 132,258 132,258 132,258 132,258 132,258 132,258 132,258 132,258 133,258 133,258 133,258 133,258 133,259 133,259 133,259 133,259 133,259 133,259 134,260 134,260 134,260 134,260 134,261 134,261 134,261 134,261 134,261 134,262 135,262 135,262 135,262 135,262 135,262 135,262 135,262 135,262 135,262 136,262 136,262 136,262 136,262 136,262 136,262 136,262 136,262 136,262 136,262 137,262 137,262 137,262 137,262 137,262 137,262 137,262 137,261 137,261 137,261 138,261 138,261 138,261 138,260 138,260 138,260 138,260 138,260 138,260 138,260 139,260 139,260 139,260 139,260 139,259 139,259 139,259 139,259 139,259 140,259 140,258 140,258 140,258 140,258 140,258 140,258 140,257 140,257 140,257 141,257 141,257 141,257 141,257 141,257 141,257 141,257 141,257 141,256 141,256 142,256 142,256 142,256 142,256 142,256 142,256 142,255 142,255 142,255 142,255 143,255 143,255 143,255 143,255 143,255 143,255 143,255 143,255 143,255 144,255 144,255 144,255 144,255 144,256 144,256 144,256 144,257 144,257 144,257 145,258 145,258 145,258 145,259 145,259 145,260 145,261 145,261 145,262 145,263 146,264 146,265 146,265 146,266 146,267 146,267 146,268 146,269 146,269 146,270 147,271 147,272 147,272 147,273 147,274 147,274 147,275 147,276 147,276 148,277 148,277 148,277 148,278 148,278 148,278 148,279 148,279 148,279 148,280 149,280 149,280 149,280 149,281 149,281 149,281 149,282 149,282 149,282 149,282 150,282 150,282 150,282 150,281 150,281 150,280 150,280 150,279 150,279 150,278 151,277 151,277 151,276 151,276 151,275 151,275 151,274 151,274 151,273 151,273 152,272 152,272 152,271 152,271 152,270 152,269 152,268 152,268 152,267 153,267 153,266 153,266 153,265 153,265 153,264 153,264 153,264 153,263 153,263 154,262 154,262 154,262 154,261 154,261 154,261 154,261 154,260 154,260 154,260 155,260 155,259 155,259 155,259 155,259 155,258 155,258 155,258 155,258 155,257 156,257 156,257 156,257 156,256 156,256 156,256 156,256 156,256 156,256 157,255 157,255 157,255 157,255 157,255 157,255 157,255 157,254 157,254 157,254 158,254 158,254 158,254 158,254 158,254 158,254 158,253 158,253 158,253 158,253 159,253 159,253 159,253 159,253 159,253 159,253 159,253 159,253 159,253 159,254 160,254 160,254 160,254 160,255 160,255 160,255 160,256 160,256 160,256 161,257 161,257 161,257 161,258 161,258 161,259 161,260 161,260 161,261 161,262 162,262 162,263 162,263 162,264 162,264 162,265 162,265 162,265 162,265 162,265 163,265 163,265 163,265 163,265 163,264 163,264 163,264 163,263 163,263 163,263 164,263 164,263 164,262 164,262 164,262 164,262 164,261 164,261 164,261 164,261 165,260 165,260 165,260 165,259 165,259 165,258 165,258 165,258 165,258 166,257 166,256 166,256 166,256 166,256 166,256 166,256 166,256 166,256 166,257 167,257 167,257 167,257 167,258 167,258 167,258 167,259 167,259 167,260 167,261 168,262 168,262 168,263 168,264 168,265 168,266 168,267 168,268 168,269 168,270 169,271 169,272 169,274 169,275 169,276 169,277 169,278 169,279 169,280 170,281 170,282 170,282 170,283 170,284 170,285 170,287 170,287 170,287 170,288 171,288 171,288 171,288 171,288 171,288 171,288 171,288 171,287 171,287 171,286 172,285 172,284 172,284 172,283 172,283 172,282 172,282 172,281 172,281 172,280 173,280 173,279 173,279 173,278 173,277 173,277 173,276 173,275 173,275 174,274 174,273 174,273 174,272 174,271 174,270 174,270 174,269 174,268 174,267 175,266 175,265 175,265 175,264 175,263 175,263 175,262 175,261 175,260 175,259 176,258 176,258 176,257 176,257 176,256 176,256 176,255 176,254 176,254 176,253 177,253 177,253 177,252 177,252 177,251 177,251 177,251 177,250 177,250 178,250 178,249 178,249 178,249 178,249 178,249 178,249 178,248 178,248 178,248 179,248 179,248 179,248 179,248 179,248 179,248 179,248 179,248 179,249 179,249 180,249 180,249 180,249 180,249 180,249 180,249 180,249 180,249 180,250 180,249 181,249 181,249 181,249 181,249 181,249 181,249 181,249 181,249 181,249 181,249 182,248 182,248 182,248 182,248 182,248 182,248 182,248 182,248 182,248 183,248 183,248 183,248 183,248 183,248 183,248 183,248 183,248 183,248 183,248 184,248 184,248 184,248 184,249 184,249 184,249 184,249 184,249 184,250 184,250 185,250 185,250 185,251 185,251 185,251 185,252 185,252 185,252 185,253 185,253 186,253 186,254 186,254 186,254 186,255 186,255 186,255 186,256 186,256 187,256 187,256 187,257 187,257 187,257 187,258 187,258 187,258 187,258 187,259 188,260 188,260 188,261 188,262 188,262 188,263 188,263 188,264 188,265 188,265 189,266 189,267 189,268 189,268 189,269 189,269 189,270 189,270 189,270 189,271 190,271 190,271 190,271 190,271 190,271 190,271 190,272 190,272 190,272 191,272 191,273 191,273 191,273 191,273 191,274 191,274 191,274 191,274 191,274 192,274 192,274 192,274 192,274 192,274 192,273 192,273 192,273 192,273 192,273 193,272 193,272 193,272 193,271 193,271 193,271 193,270 193,270 193,270 193,269 194,269 194,269 194,268 194,268 194,268 194,268 194,268 194,268 194,267 194,267 195,267 195,267 195,267 195,267 195,266 195,266 195,266 195,266 195,266 196,266 196,266 196,265 196,265 196,265 196,265 196,265 196,265 196,265 196,264 197,264 197,264 197,264 197,264 197,264 197,264 197,264 197,264 197,264 197,264 198,264 198,264 198,264 198,264 198,264 198,264 198,263 198,263 198,263 198,263 199,263 199,263 199,262 199,262 199,262 199,262 199,262 199,262 199,262 200,261 200,261 200,261 200,261 200,261 200,261 200,261 200,260 200,260 200,260 201,260 201,260 201,260 201,259 201,259 201,259 201,259 201,259 201,259 201,258 202,258 202,258 202,258 202,257 202,257 202,257 202,257 202,257 202,257 202,257 203,257 203,256 203,256 203,256 203,256 203,256 203,256 203,256 203,256 204,256 204,256 204,256 204,256 204,256 204,255 204,255 204,255 204,254 204,254 205,253 205,253 205,253 205,252 205,252 205,252 205,251 205,251 205,250 205,250 206,250 206,249 206,249 206,249 206,249 206,248 206,248 206,248 206,248 206,247 207,247 207,247 207,246 207,246 207,246 207,246 207,246 207,245 207,245 208,245 208,244 208,244 208,244 208,243 208,243 208,243 208,242 208,242 208,242 209,241 209,241 209,241 209,240 209,240 209,240 209,240 209,240 209,240 209,239 210,239 210,239 210,238 210,238 210,238 210,237 210,237 210,237 210,236 210,236 211,236 211,235 211,235 211,235 211,235 211,235 211,235 211,235 211,235 211,234 212,234 212,234 212,234 212,234 212,234 212,234 212,234 212,234 212,234 213,233 213,233 213,233 213,232 213,232 213,232 213,231 213,231 213,231 213,231 214,231 214,231 214,231 214,231 214,231 214,231 214,231 214,231 214,230 214,230 215,230 215,229 215,229 215,229 215,229 215,229 215,229 215,228 215,228 215,228 216,228 216,228 216,228 216,227 216,227 216,227 216,227 216,228 216,228 217,228 217,228 217,228 217,228 217,228 217,228 217,228 217,229 217,229 217,229 218,229 218,230 218,230 218,230 218,231 218,231 218,231 218,231 218,231 218,231 219,232 219,232 219,232 219,232 219,232 219,232 219,232 219,233 219,233 219,233 220,234 220,234 220,234 220,234 220,235 220,235 220,235 220,235 220,235 221,235 221,235 221,235 221,235 221,235 221,235 221,235 221,235 221,235 221,235 222,235 222,235 222,235 222,235 222,235 222,235 222,235 222,235 222,235 222,235 223,235 223,236 223,236 223,236 223,236 223,236 223,236 223,236 223,236 223,236 224,236 224,237 224,237 224,237 224,237 224,238 224,238 224,238 224,239 225,239 225,239 225,239 225,240 225,240 225,240 225,240 225,241 225,241 225,241 226,241 226,242 226,242 226,242 226,242 226,242 226,242 226,242 226,243 226,243 227,243 227,243 227,243 227,243 227,243 227,243 227,243 227,243 227,243 227,244 228,244 228,244 228,244 228,244 228,245 228,245 228,245 228,245 228,245 228,245 229,246 229,246 229,246 229,246 229,246 229,246 229,246 229,247 229,247 230,247 230,248 230,248 230,248 230,248 230,249 230,250 230,251 230,251 230,252 231,253 231,253 231,254 231,254 231,255 231,256 231,256 231,257 231,257 231,257 232,257 232,258 232,258 232,258 232,258 232,258 232,258 232,258 232,258 232,258 233,258 233,258 233,258 233,258 233,258 233,258 233,258 233,258 233,258 234,258 234,258 234,257 234,257 234,257 234,257 234,256 234,256 234,256 234,255 235,255 235,255 235,254 235,254 235,254 235,254 235,253 235,253 235,253 235,253 236,252 236,252 236,252 236,252 236,251 236,251 236,251 236,251 236,251 236,250 237,250 237,250 237,250 237,250 237,250 237,250 237,250 237,250 237,250 238,250 238,250 238,251 238,251 238,251 238,251 238,251 238,251 238,251 238,251 239,252 239,252 239,252 239,252 239,252 239,252 239,252 239,252 239,252 239,252 240,252 240,252 240,252 240,252 240,252 240,252 240,251 240,251 240,251 240,251 241,251 241,251 241,251 241,251 241,251 241,251 241,250 241,250 241,250 241,250 242,250 242,250 242,250 242,250 242,250 242,250 242,249 242,249 242,249 243,249 243,249 243,249 243,249 243,249 243,249 243,249 243,249 243,248 243,248 244,248 244,248 244,248 244,248 244,248 244,247 244,247 244,247 244,247 244,247 245,246 245,246 245,246 245,246 245,245 245,245 245,245 245,244 245,243 245,243 246,243 246,242 246,242 246,241 246,241 246,240 246,240 246,239 246,239 247,238 247,238 247,238 247,237 247,237 247,236 247,236 247,235 247,235 247,234 248,233 248,233 248,232 248,231 248,230 248,230 248,229 248,228 248,227 248,226 249,226 249,225 249,224 249,224 249,224 249,223 249,223 249,223 249,223 249,223 250,223 250,223 250,223 250,223 250,223 250,223 250,224 250,224 250,225 251,225 251,226 251,226 251,227 251,227 251,228 251,228 251,228 251,229 251,229 252,230 252,230 252,231 252,231 252,231 252,232 252,232 252,231 252,231 252,231 253,231 253,231 253,231 253,231 253,230 253,230 253,229 253,229 253,228 253,228 254,227 254,227 254,226 254,226 254,225 254,225 254,224 254,224 254,224 255,223 255,223 255,222 255,222 255,221 255,221 255,220 255,220 255,220 255,219 256,219 256,219 256,218 256,218 256,218 256,217 256,217 256,217 256,217 256,216 257,216 257,216 257,216 257,216 257,215 257,215 257,215 257,215 257,215 257,215 258,216 258,216 258,216 258,217 258,217 258,218 258,218 258,219 258,219 258,220 259,220 259,221 259,221 259,221 259,222 259,222 259,222 259,222 259,222 260,222 260,222 260,222 260,222 260,222 260,222 260,222 260,222 260,222 260,222 261,223 261,223 261,223 261,223 261,223 261,224 261,224 261,225 261,225 261,225 262,226 262,226 262,227 262,228 262,229 262,231 262,231 262,231 262,231 262,231 263,231 263,232 263,231 263,231 263,231 263,230 263,230 263,230 263,229 264,229 264,228 264,227 264,227 264,226 264,226 264,225 264,225 264,224 264,224 265,223 265,222 265,221 265,221 265,220 265,220 265,219 265,219 265,218 265,217 266,216 266,215 266,214 266,214 266,213 266,212 266,211 266,211 266,210 266,209 267,209 267,208 267,208 267,208 267,208 267,208 267,208 267,208 267,208 268,208 268,208 268,209 268,209 268,209 268,209 268,209 268,209 268,209 268,209 269,209 269,209 269,209 269,209 269,209 269,209 269,209 269,209 269,209 269,209 270,209 270,210 270,211 270,211 270,212 270,212 270,213 270,213 270,214 270,214 271,214 271,214 271,214 271,214 271,213 271,213 271,212 271,211 271,211 271,210 272,209 272,209 272,208 272,208 272,207 272,207 272,206 272,206 272,205 273,205 273,204 273,204 273,203 273,203 273,202 273,202 273,202 273,202 273,202 274,202 274,201 274,201 274,201 274,201 274,201 274,200 274,200 274,200 274,200 275,199 275,199 275,199 275,199 275,199 275,198 275,198 275,198 275,198 275,198 276,198 276,198 276,198 276,198 276,198 276,198 276,198 276,198 276,199 277,199 277,199 277,200 277,200 277,201 277,201 277,202 277,202 277,203 277,204 278,205 278,206 278,207 278,207 278,208 278,209 278,209 278,210 278,211 278,211 279,212 279,212 279,213 279,215 279,216 279,217 279,218 279,219 279,220 279,221 280,223 280,223 280,224 280,225 280,225 280,226 280,227 280,227 280,228 281,228 281,227 281,227 281,227 281,227 281,227 281,227 281,227 281,226 281,226 282,225 282,224 282,223 282,222 282,222 282,221 282,220 282,219 282,218 282,218 283,217 283,216 283,215 283,215 283,214 283,214 283,214 283,213 283,213 283,213 284,213 284,213 284,212 284,212 284,211 284,211 284,211 284,210 284,210 285,210 285,209 285,209 285,208 285,208 285,207 285,207 285,207 285,206 285,206 286,206 286,205 286,205 286,205 286,205 286,205 286,205 286,205 286,205 286,204 287,204 287,204 287,204 287,203 287,203 287,203 287,202 287,202 287,201 287,201 288,201 288,201 288,201 288,200 288,200 288,200 288,200 288,200 288,200 288,200 289,200 289,199 289,199 289,199 289,198 289,198 289,198 289,198 289,198 290,197 290,197 290,197 290,197 290,196 290,196 290,196 290,196 290,196 290,196 291,196 291,196 291,196 291,196 291,196 291,196 291,197 291,197 291,198 291,198 292,198 292,199 292,199 292,200 292,201 292,201 292,202 292,202 292,202 292,203 293,203 293,203 293,204 293,204 293,204 293,204 293,205 293,205 293,205 294,206 294,206 294,206 294,206 294,207 294,207 294,207 294,207 294,207 294,207 295,207 295,207 295,207 295,207 295,207 295,207 295,206 295,206 295,206 295,205 296,205 296,205 296,204 296,204 296,204 296,204 296,204 296,203 296,203 296,203 297,202 297,202 297,202 297,201 297,201 297,201 297,201 297,201 297,201 298,201 298,201 298,201 298,201 298,201 298,201 298,202 298,202 298,202 298,203 299,203 299,203 299,204 299,204 299,205 299,205 299,205 299,205 299,206 299,206 300,206 300,206 300,207 300,207 300,207 300,207 300,208 300,208 300,208 300,208 301,208 301,208 301,209 301,209 301,209 301,209 301,210 301,210 301,210 301,210 302,211 302,211 302,211 302,212 302,212 302,212 302,212 302,213 302,213 303,213 303,214 303,214 303,214 303,215 303,215 303,216 303,216 303,216 303,216 304,216 304,216 304,216 304,216 304,215 304,215 304,214 304,214 304,214 304,213 305,213 305,213 305,213 305,212 305,212 305,212 305,212 305,211 305,211 305,211 306,211 306,211 306,210 306,210 306,210 306,210 306,210 306,210 306,209 307,209 307,209 307,209 307,209 307,209 307,209 307,209 307,210 307,210 307,210 308,210 308,210 308,211 308,211 308,211 308,212 308,212 308,212 308,212 308,212 309,212 309,212 309,212 309,212 309,213 309,213 309,213 309,214 309,215 309,215 310,216 310,216 310,217 310,217 310,216 310,216 310,216 310,216 310,216 311,216 311,216 311,216 311,216 311,216 311,215 311,215 311,215 311,214 311,214 312,213 312,213 312,212 312,212 312,211 312,211 312,211 312,210 312,210 312,210 313,210 313,209 313,209 313,209 313,208 313,208 313,207 313,207 313,206 313,206 314,206 314,206 314,205 314,205 314,205 314,204 314,204 314,204 314,203 315,203 315,203 315,202 315,202 315,202 315,202 315,202 315,202 315,201 315,201 316,201 316,201 316,201 316,201 316,201 316,201 316,201 316,201 316,201 316,201 317,201 317,202 317,202 317,202 317,202 317,202 317,202 317,202 317,202 317,203 318,203 318,203 318,203 318,203 318,203 318,203 318,203 318,203 318,204 318,204 319,204 319,204 319,204 319,204 319,204 319,204 319,204 319,204 319,204 320,204 320,203 320,203 320,202 320,202 320,202 320,201 320,201 320,200 320,199 321,199 321,199 321,199 321,199 321,198 321,198 321,198 321,198 321,197 321,197 322,197 322,197 322,196 322,196 322,195 322,195 322,195 322,195 322,195 322,195 323,195 323,195 323,195 323,195 323,195 323,195 323,195 323,195 323,195 324,194 324,194 324,194 324,194 324,194 324,194 324,194 324,194 324,193 324,193 325,193 325,193 325,192 325,192 325,192 325,192 325,191 325,191 325,191 325,191 326,191 326,191 326,190 326,190 326,190 326,190 326,190 326,190 326,190 326,190 327,190 327,189 327,189 327,189 327,189 327,189 327,189 327,189 327,189 328,188 328,188 328,188 328,188 328,188 328,188 328,188 328,187 328,187 328,187 329,187 329,187 329,187 329,186 329,186 329,186 329,186 329,186 329,186 329,185 330,185 330,185 330,185 330,184 330,184 330,184 330,183 330,183 330,183 330,182 331,182 331,182 331,182 331,181 331,181 331,181 331,180 331,180 331,180 331,180 332,180 332,179 332,179 332,178 332,178 332,178 332,178 332,177 332,177 333,177 333,177 333,177 333,176 333,176 333,176 333,176 333,176 333,175 333,175 334,175 334,175 334,174 334,174 334,173 334,173 334,172 334,172 334,171 334,171 335,171 335,172 335,172 335,172 335,172 335,172 335,172 335,172 335,172 335,172 336,172 336,172 336,172 336,172 336,173 336,173 336,173 336,173 336,174 337,174 337,174 337,174 337,175 337,175 337,175 337,176 337,176 337,176 337,177 338,177 338,178 338,178 338,179 338,179 338,180 338,180 338,181 338,181 338,182 339,182 339,182 339,183 339,183 339,184 339,185 339,185 339,186 339,186 339,187 340,187 340,188 340,188 340,188 340,189 340,189 340,189 340,190 340,190 341,190 341,191 341,191 341,191 341,191 341,191 341,192 341,192 341,192 341,192 342,192 342,193 342,193 342,194 342,194 342,194 342,195 342,195 342,195 342,196 343,196 343,196 343,197 343,197 343,197 343,197 343,198 343,198 343,198 343,199 344,199 344,199 344,199 344,200 344,200 344,200 344,201 344,201 344,201 345,201 345,202 345,202 345,202 345,202 345,202 345,202 345,201 345,201 345,200 346,200 346,199 346,199 346,198 346,198 346,197 346,197 346,197 346,196 346,196 347,195 347,195 347,195 347,194 347,194 347,194 347,193 347,193 347,193 347,193 348,192 348,192 348,192 348,191 348,191 348,190 348,190 348,189 348,188 348,188 349,187 349,187 349,186 349,185 349,185 349,184 349,183 349,183 349,182 350,182 350,181 350,181 350,180 350,180 350,180 350,179 350,178 350,177 350,177 351,177 351,177 351,177 351,176 351,176 351,177 351,177 351,177 351,177 351,177 352,177 352,177 352,177 352,177 352,177 352,177 352,177 352,177 352,177 352,177 353,177 353,177 353,177 353,177 353,178 353,178 353,179 353,180 353,180 354,181 354,183 354,183 354,184 354,185 354,186 354,187 354,187 354,188 354,189 355,190 355,190 355,190 355,190 355,191 355,190 355,191 355,191 355,191 355,191 356,191 356,191 356,191 356,190 356,190 356,190 356,190 356,191 356,190 356,190 357,191 357,191 357,191 357,192 357,192 357,193 357,194 357,194 357,194 358,194 358,194 358,195 358,194 358,194 358,193 358,193 358,193 358,193 358,193 359,193 359,193 359,193 359,193 359,193 359,193 359,193 359,193 359,193 359,193 360,193 360,193 360,193 360,194 360,194 360,194 360,194 360,194 360,194 360,194 361,195 361,195 361,195 361,195 361,195 361,195 361,196 361,196 361,196 361,197 362,197 362,197 362,197 362,197 362,198 362,198 362,198 362,198 362,199 363,199 363,200 363,200 363,200 363,201 363,201 363,201 363,202 363,202 363,202 364,202 364,203 364,203 364,203 364,203 364,204 364,204 364,204 364,204 364,205 365,206 365,206 365,206 365,207 365,207 365,207 365,208 365,208 365,209 365,209 366,209 366,210 366,210 366,211 366,211 366,211 366,211 366,211 366,211 367,210 367,210 367,210 367,210 367,210 367,209 367,209 367,209 367,209 367,209 368,209 368,209 368,209 368,209 368,209 368,209 368,209 368,209 368,209 368,209 369,209 369,209 369,209 369,209 369,210 369,210 369,210 369,210 369,210 369,211 370,211 370,211 370,211 370,211 370,211 370,211 370,211 370,212 370,212 371,212 371,212 371,212 371,212 371,213 371,213 371,213 371,213 371,214 371,214 372,214 372,214 372,214 372,214 372,215 372,215 372,215 372,215 372,216 372,216 373,216 373,216 373,216 373,216 373,216 373,217 373,217 373,217 373,217 373,217 374,217 374,218 374,218 374,218 374,218 374,219 374,219 374,219 374,219 375,219 375,219 375,220 375,220 375,220 375,220 375,220 375,219 375,219 375,219 376,218 376,218 376,218 376,217 376,217 376,216 376,216 376,215 376,215 376,215 377,216 377,216 377,216 377,217 377,217 377,218 377,218 377,218 377,218 377,218 378,218 378,217 378,217 378,216 378,216 378,215 378,215 378,215 378,216 378,216 379,216 379,217 379,217 379,217 379,217 379,218 379,218 379,218 379,217 380,217 380,218 380,218 380,219 380,219 380,220 380,220 380,221 380,221 380,222 381,222 381,222 381,223 381,224 381,225 381,225 381,226 381,226 381,227 381,227 382,227 382,227 382,227 382,227 382,227 382,227 382,227 382,227 382,227 382,227 383,227 383,227 383,227 383,227 383,226 383,226 383,226 383,226 383,226 384,226 384,226 384,225 384,225 384,225 384,225 384,225 384,225 384,224 384,224 385,224 385,224 385,224 385,224 385,224 385,224 385,224 385,223 385,223 385,223 386,223 386,223 386,223 386,223 386,223 386,223 386,222 386,222 386,222 386,222 387,222 387,221 387,221 387,221 387,221 387,221 387,220 387,220 387,220 388,220 388,220 388,220 388,220 388,219 388,219 388,219 388,219 388,219 388,219 389,219 389,218 389,218 389,218 389,217 389,217 389,216 389,216 389,215 389,215 390,214 390,214 390,213 390,213 390,212 390,212 390,211 390,211 390,211 390,210 391,210 391,210 391,210 391,211 391,211 391,211 391,211 391,211 391,212 391,212 392,212 392,212 392,212 392,212 392,213 392,212 392,212 392,213 392,213 393,213 393,213 393,214 393,214 393,214 393,214 393,214 393,215 393,215 393,215 394,216 394,216 394,216 394,217 394,217 394,217 394,217 394,217 394,217 394,217 395,217 395,218 395,218 395,218 395,219 395,219 395,220 395,220 395,221 395,222 396,222 396,223 396,223 396,224 396,224 396,224 396,225 396,225 396,225 397,226 397,226 397,226 397,227 397,227 397,227 397,228 397,228 397,228 397,228 398,228 398,228 398,229 398,229 398,229 398,229 398,229 398,229 398,230 398,230 399,230 399,230 399,230 399,230 399,230 399,230 399,230 399,230 399,230 399,230 400,230 400,230 400,230 400,230 400,230 400,230 400,230 400,230 400,230 401,230 401,231 401,231 401,231 401,231 401,231 401,231 401,231 401,231 401,231 402,231 402,231 402,231 402,231 402,231 402,231 402,231 402,231 402,230 402,230 403,230 403,230 403,230 403,230 403,230 403,230 403,230 403,230 403,229 403,229 404,229 404,229 404,229 404,229 404,229 404,229 404,229 404,229 404,229 405,228 405,228 405,228 405,228 405,228 405,228 405,229 405,229 405,229 405,229 406,229 406,229 406,230 406,230 406,230 406,230 406,230 406,230 406,230 406,231 407,231 407,231 407,231 407,231 407,232 407,232 407,232 407,232 407,233 407,233 408,233 408,233 408,233 408,233 408,233 408,233 408,234 408,234 408,234 408,234 409,234 409,234 409,234 409,234 409,234 409,234 409,234 409,234 409,234 410,234 410,234 410,234 410,234 410,233 410,233 410,234 410,233 410,233 410,233 411,232 411,232 411,231 411,231 411,230 411,230 411,229 411,228 411,228 411,227 412,227 412,227 412,227 412,227 412,227 412,227 412,226 412,226 412,226 412,226 413,226 413,226 413,225 413,225 413,225 413,225 413,224 413,224 413,224 414,223 414,223 414,223 414,223 414,222 414,222 414,221 414,221 414,220 414,220 415,220 415,219 415,219 415,218 415,218 415,218 415,217 415,217 415,217 415,217 416,217 416,217 416,217 416,217 416,217 416,217 416,217 416,217 416,217 416,217 417,217 417,217 417,217 417,217 417,217 417,217 417,217 417,217 417,217 418,218 418,218 418,218 418,218 418,219 418,219 418,219 418,219 418,219 418,220 419,220 419,220 419,220 419,220 419,220 419,220 419,221 419,221 419,221 419,221 420,221 420,221 420,222 420,222 420,222 420,222 420,222 420,222 420,222 420,222 421,222 421,223 421,223 421,223 421,223 421,223 421,223 421,224 421,224 422,224 422,224 422,224 422,224 422,224 422,224 422,225 422,225 422,225 422,225 423,225 423,225 423,225 423,225 423,225 423,225 423,225 423,225 423,225 423,225 424,225 424,225 424,225 424,225 424,226 424,226 424,226 424,226 424,227 424,227 425,227 425,227 425,227 425,227 425,227 425,227 425,227 425,227 425,228 425,228 426,228 426,228 426,228 426,228 426,228 426,228 426,229 426,229 426,229 427,229 427,229 427,229 427,229 427,229 427,229 427,229 427,229 427,229 427,229 428,229 428,229 428,229 428,228 428,228 428,228 428,228 428,227 428,227 428,227 429,227 429,227 429,227 429,227 429,226 429,226 429,226 429,225 429,224 429,224 430,224 430,224 430,224 430,224 430,224 430,224 430,224 430,224 430,223 431,223 431,223 431,223 431,222 431,222 431,222 431,221 431,221 431,221 431,220 432,220 432,220 432,219 432,219 432,219 432,219 432,219 432,219 432,219 432,219 433,219 433,219 433,219 433,219 433,219 433,219 433,219 433,219 433,219 433,219 434,219 434,219 434,219 434,220 434,220 434,219 434,219 434,219 434,219 435,219 435,219 435,219 435,219 435,219 435,220 435,220 435,220 435,221 435,221 436,221 436,221 436,221 436,221 436,221 436,221 436,221 436,221 436,221 436,221 437,221 437,221 437,221 437,221 437,221 437,221 437,221 437,221 437,221 437,221 438,221 438,221 438,221 438,221 438,221 438,221 438,221 438,221 438,221 438,221 439,221 439,220 439,220 439,220 439,220 439,220 439,220 439,220 439,220 440,220 440,220 440,220 440,220 440,219 440,219 440,219 440,219 440,218 440,218 441,218 441,217 441,217 441,216 441,216 441,216 441,216 441,216 441,216 441,215 442,215 442,215 442,215 442,215 442,215 442,214 442,214 442,214 442,214 442,214 443,214 443,214 443,214 443,214 443,215 443,216 443,217 443,218 443,218 444,218 444,219 444,219 444,219 444,219 444,219 444,219 444,219 444,219 444,219 445,219 445,219 445,219 445,219 445,219 445,219 445,219 445,218 445,218 445,218 446,218 446,218 446,218 446,218 446,218 446,218 446,218 446,218 446,218 446,218 447,218 447,218 447,218 447,218 447,218 447,218 447,218 447,218 447,218 448,218 448,218 448,218 448,218 448,218 448,218 448,218 448,218 448,218 448,217 449,217 449,217 449,217 449,217 449,217 449,216 449,216 449,215 449,215 449,214 450,214 450,213 450,213 450,212 450,212 450,212 450,211 450,211 450,210 450,210 451,210 451,209 451,209 451,209 451,209 451,208 451,208 451,208 451,207 452,207 452,207 452,206 452,206 452,206 452,205 452,205 452,204 452,204 452,204 453,204 453,203 453,203 453,203 453,203 453,203 453,204 453,204 453,204 453,205 454,205 454,205 454,206 454,206 454,207 454,207 454,207 454,207 454,207 454,207 455,207 455,206 455,206 455,205 455,205 455,205 455,205 455,205 455,205 455,205 456,205 456,206 456,206 456,206 456,207 456,207 456,207 456,207 456,207 457,207 457,206 457,206 457,206 457,205 457,205 457,205 457,205 457,204 457,204 458,204 458,204 458,203 458,203 458,203 458,202 458,202 458,202 458,201 458,201 459,201 459,200 459,200 459,200 459,200 459,200 459,199 459,199 459,199 459,198 460,198 460,198 460,198 460,197 460,197 460,197 460,197 460,196 460,196 461,196 461,195 461,195 461,194 461,194 461,194 461,193 461,193 461,192 461,192 462,191 462,190 462,189 462,188 462,187 462,186 462,185 462,185 462,185 462,185 463,185 463,185 463,185 463,185 463,185 463,185 463,185 463,185 463,185 463,185 464,185 464,185 464,185 464,185 464,185 464,185 464,185 464,185 464,185 465,185 465,185 465,186 465,186 465,186 465,186 465,187 465,187 465,187 465,188 466,188 466,189 466,190 466,190 466,191 466,191 466,192 466,193 466,194 466,195 467,197 467,198 467,199 467,201 467,202 467,203 467,203 467,203 467,202 467,202 468,201 468,201 468,200 468,200 468,199 468,199 468,199 468,199 468,199 468,199 469,198 469,198 469,198 469,199 469,198 469,198 469,198 469,198 469,198 470,198 470,197 470,197 470,196 470,195 470,195 470,194 470,193 470,192 470,192 471,190 471,189 471,188 471,188 471,188 471,188 471,188 471,188 471,188 471,188 472,188 472,189 472,189 472,189 472,189 472,189 472,189 472,189 472,190 472,190 473,190 473,190 473,190 473,190 473,190 473,190 473,190 473,190 473,190 474,190 474,190 474,191 474,191 474,192 474,193 474,194 474,195 474,195 474,196 475,196 475,196 475,197 475,197 475,197 475,197 475,197 475,198 475,198 475,198 476,198 476,198 476,198 476,199 476,200 476,200 476,201 476,201 476,201 476,201 477,201 477,201 477,201 477,201 477,201 477,201 477,201 477,201 477,200 478,200 478,200 478,200 478,200 478,200 478,200 478,200 478,200 478,200 478,200 479,200 479,199 479,199 479,200 479,200 479,200 479,199 479,198 479,197 479,197 480,197 480,196 480,196 480,196 480,195 480,194 480,193 480,192 480,192 480,192 481,192 481,192 481,192 481,191 481,191 481,191 481,190 481,190 481,190 482,190 482,189 482,189 482,189 482,189 482,188 482,188 482,188 482,187 482,187 483,187 483,187 483,186 483,186 483,186 483,186 483,186 483,186 483,186 483,185 484,185 484,185 484,185 484,185 484,185 484,184 484,183 484,182 484,181 484,180 485,179 485,178 485,177 485,176 485,176 485,175 485,174 485,174 485,174 485,174 486,174 486,174 486,174 486,174 486,174 486,174 486,174 486,174 486,174 487,174 487,173 487,173 487,172 487,172 487,171 487,171 487,171 487,171 487,172 488,173 488,175 488,176 488,178 488,179 488,180 488,181 488,182 488,184 488,185 489,186 489,186 489,187 489,187 489,188 489,188 489,189 489,189 489,189 489,189 490,189 490,189 490,189 490,189 490,189 490,189 490,189 490,188 490,188 491,188 491,188 491,187 491,187 491,187 491,187 491,187 491,187 491,187 491,187 492,187 492,187 492,187 492,186 492,186 492,186 492,186 492,186 492,186 492,185 493,185 493,186 493,185 493,185 493,185 493,185 493,184 493,184 493,184 493,184 494,184 494,184 494,184 494,184 494,184 494,183 494,183 494,183 494,184 495,184 495,184 495,184 495,185 495,185 495,185 495,185 495,185 495,185 495,185 496,184 496,184 496,184 496,183 496,183 496,183 496,183 496,182 496,182 496,182 497,183 497,183 497,182 497,182 497,182 497,181 497,181 497,181 497,181 497,181 498,181 498,182 498,182 498,182 498,182 498,182 498,182 498,182 498,181 498,181 499,181 499,181 499,180 499,180 499,180 499,179 499,178 499,178 499,178 500,177 500,177 500,177 500,176 500,176 500,176 500,175 500,175 500,175 500,174 501,174 501,173 501,172 501,171 501,170 501,168 501,167 501,166 501,164 501,162 502,161 502,160 502,159 502,158 502,157 502,158 502,158 502,157 502,155 502,154 503,153 503,152 503,151 503,150 503,149 503,148 503,147 503,146 503,145 504,144 504,143 504,143 504,142 504,141 504,140 504,140 504,139 504,138 504,138 505,137 505,137 505,136 505,136 505,135 505,135 505,134 505,133 505,133 505,133 506,133 506,132 506,131 506,131 506,130 506,130 506,129 506,129 506,128 506,127 507,127 507,126 507,125 507,125 507,124 507,123 507,122 507,122 507,121 508,121 508,120 508,119 508,119 508,118 508,118 508,117 508,117 508,116 508,116 509,116 509,115 509,115 509,114 509,114 509,113 509,113 509,112 509,112 509,111 510,111 510,110 510,110 510,109 510,109 510,109 510,109 510,109 510,108 510,108 511,108 511,108 511,108 511,108 511,107 511,107 511,107 511,107 511,106 512,106 512,106 512,106 512,106 512,106 512,105 512,105 512,105 512,105 512,105 513,105 513,105 513,105 513,104 513,104 513,104 513,104 513,104 513,104 513,103 514,103 514,103 514,103 514,103 514,103 514,102 514,102 514,102 514,102 514,102 515,103 515,103 515,103 515,103 515,103 515,103 515,103 515,102 515,102 515,102 516,101 516,101 516,100 516,100 516,100 516,99 516,99 516,99 516,98 517,98 517,97 517,97 517,97 517,96 517,96 517,96 517,96 517,96 517,97 518,97 518,97 518,97 518,97 518,97 518,98 518,98 518,98 518,98 518,98 519,99 519,99 519,99 519,99 519,99 519,99 519,100 519,100 519,100 519,100 520,100 520,101 520,101 520,101 520,101 520,102 520,102 520,102 520,102 521,102 521,102 521,103 521,103 521,103 521,103 521,103 521,103 521,104 521,104 522,104 522,104 522,105 522,105 522,105 522,106 522,106 522,107 522,107 522,107 523,108 523,108 523,108 523,109 523,109 523,109 523,110 523,110 523,111 523,111 524,112 524,112 524,113 524,113 524,114 524,114 524,115 524,115 524,116 525,116 525,117 525,117 525,118 525,119 525,119 525,120 525,120 525,120 525,121 526,122 526,122 526,123 526,123 526,124 526,124 526,125 526,125 526,126 526,126 527,127 527,127 527,128 527,128 527,129 527,129 527,129 527,130 527,130 527,130 528,130 528,129 528,129 528,129 528,129 528,128 528,128 528,128 528,128 528,127 529,127 529,127 529,127 529,127 529,127 529,126 529,126 529,126 529,126 530,126 530,126 530,126 530,126 530,126 530,126 530,126 530,126 530,126 530,125 531,126 531,126 531,126 531,125 531,125 531,126 531,126 531,126 531,126 531,127 532,127 532,127 532,127 532,127 532,127 532,127 532,127 532,127 532,127 532,127 533,127 533,127 533,127 533,127 533,127 533,127 533,128 533,128 533,129 534,129 534,129 534,130 534,130 534,130 534,131 534,131 534,132 534,132 534,133 535,133 535,134 535,134 535,134 535,135 535,135 535,135 535,136 535,136 535,136 536,137 536,137 536,138 536,138 536,138 536,138 536,138 536,138 536,138 536,138 537,138 537,138 537,138 537,139 537,139 537,139 537,139 537,139 537,139 538,140 538,140 538,140 538,141 538,141 538,141 538,141 538,141 538,141 538,142 539,142 539,142 539,142 539,142 539,142 539,143 539,143 539,144 539,144 539,145 540,145 540,146 540,146 540,146 540,147 540,147 540,147 540,147 540,147 540,147 541,148 541,148 541,148 541,149 541,149 541,149 541,150 541,150 541,150 542,151 542,151 542,151 542,151 542,151 542,151 542,151 542,152 542,152 542,152 543,152 543,152 543,152 543,152 543,153 543,153 543,153 543,153 543,153 543,153 544,153 544,154 544,154 544,154 544,154 544,154 544,155 544,155 544,155 544,155 545,155 545,155 545,155 545,155 545,155 545,155 545,155 545,155 545,155 545,155 546,155 546,155 546,155 546,155 546,155 546,155 546,156 546,156 546,156 547,156 547,156 547,156 547,156 547,156 547,156 547,156 547,156 547,156 547,156 548,156 548,156 548,156 548,156 548,156 548,157 548,157 548,157 548,157 548,157 549,157 549,157 549,157 549,157 549,157 549,157 549,157 549,157 549,157 549,157 550,157 550,157 550,156 550,157 550,157 550,158 550,158 550,158 550,158 551,158 551,158 551,158 551,158 551,158 551,159 551,159 551,159 551,159 551,159 552,159 552,159 552,159 552,159 552,159 552,159 552,159 552,159 552,159 552,159 553,159 553,159 553,159 553,160 553,160 553,160 553,160 553,160 553,160 553,160 554,160 554,160 554,160 554,160 554,160 554,160 554,160 554,160 554,161 555,161 555,161 555,161 555,161 555,161 555,161 555,161 555,161 555,161 555,161 556,161 556,161 556,162 556,162 556,162 556,162 556,162 556,162 556,162 556,162 557,162 557,162 557,162 557,162 557,162 557,162 557,162 557,162 557,163 557,163 558,163 558,163 558,163 558,163 558,163 558,163 558,163 558,163 558,163 558,163 559,163 559,163 559,163 559,163 559,163 559,162 559,162 559,162 559,163 560,163 560,163 560,163 560,162 560,162 560,162 560,162 560,162 560,162 560,162 561,162 561,163 561,163 561,163 561,163 561,163 561,163 561,163 561,163 561,163 562,163 562,163 562,164 562,164 562,164 562,164 562,164 562,164 562,164 562,164 563,164 563,164 563,164 563,164 563,164 563,164 563,164 563,164 563,164 564,164 564,164 564,164 564,164 564,164 564,164 564,164 564,164 564,164 564,164 565,164 565,164 565,163 565,163 565,163 565,162 565,162 565,162 565,161 565,161 566,161 566,160 566,160 566,160 566,160 566,160 566,159 566,159 566,159 566,159 567,159 567,159 567,159 567,159 567,160 567,160 567,160 567,161 567,161 568,161 568,161 568,161 568,162 568,162 568,162 568,162 568,161 568,161 568,161 569,161 569,161 569,161 569,160 569,160 569,160 569,160 569,160 569,160 569,160 570,160 570,160 570,160 570,160 570,160 570,159 570,159 570,159 570,159 570,159 571,159 571,159 571,160 571,160 571,160 571,160 571,160 571,160 571,160 572,160 572,160 572,160 572,160 572,161 572,161 572,161 572,161 572,161 572,161 573,161 573,161 573,161 573,161 573,160 573,160 573,160 573,160 573,160 573,160 574,159 574,159 574,159 574,159 574,159 574,159 574,159 574,159 574,159 574,159 575,159 575,159 575,159 575,159 575,159 575,159 575,159 575,159 575,159 575,159 576,159 576,159 576,159 576,159 576,159 576,159 576,159 576,159 576,159 577,159 577,159 577,159 577,159 577,159 577,159 577,159 577,159 577,159 577,159 578,159 578,159 578,159 578,159 578,159 578,159 578,159 578,159 578,159 578,159 579,159 579,159 579,159 579,159 579,159 579,159 579,159 579,159 579,159 579,159 580,159 580,159 580,159 580,159 580,159 580,159 580,159 580,159 580,159 581,160 581,160 581,160 581,160 581,160 581,160 581,160 581,160 581,160 581,160 582,160 582,159 582,159 582,159 582,159 582,159 582,159 582,159 582,159 582,159 583,159 583,159 583,159 583,159 583,159 583,159 583,159 583,159 583,159 583,159 584,159 584,159 584,159 584,159 584,159 584,158 584,158 584,158 584,158 585,158 585,158 585,158 585,158 585,158 585,158 585,158 585,158 585,158 585,158 586,159 586,159 586,159 586,159 586,159 586,159 586,159 586,159 586,159 586,159 587,159 587,158 587,158 587,158 587,159 587,159 587,159 587,159 587,159 587,159 588,158 588,158 588,158 588,158 588,158 588,158 588,158 588,158 588,158 588,158 589,158 589,158 589,158 589,157 589,157 589,157 589,157 589,157 589,158 590,158 590,158 590,158 590,158 590,158 590,158 590,158 590,158 590,158 590,158 591,158 591,158 591,157 591,157 591,157 591,157 591,157 591,157 591,157 591,157 592,157 592,157 592,157 592,157 592,157 592,157 592,157 592,157 592,157 592,157 593,157 593,156 593,156 593,156 593,156 593,156 593,156 593,156 593,156 594,155 594,155 594,155 594,155 594,155 594,155 594,155 594,155 594,155 594,154 595,154 595,154 595,154 595,154 595,154 595,153 595,153 595,153 595,153 595,153 596,153 596,153 596,152 596,152 596,152 596,152 596,152 596,152 596,152 596,152 597,152 597,152 597,152 597,152 597,152 597,152 597,151 597,151 597,152 598,152 598,152 598,152 598,152 598,152 598,152 598,152 598,153 598,153 598,153 599,153 599,153 599,153 599,153 599,153 599,153 599,153 599,153 599,153 599,153 600,153 600,153 600,153 600,152 600,152 600,152 600,152 600,152 600,152 600,152 601,152 601,152 601,152 601,152 601,152 601,152 601,152 601,152 601,152 602,152 602,152 602,152 602,152 602,152 602,152 602,153 602,153 602,153 602,153 603,153 603,153 603,153 603,153 603,154 603,154 603,154 603,154 603,154 603,154 604,154 604,154 604,154 604,154 604,154 604,154 604,154 604,154 604,154 604,154 605,154 605,154 605,154 605,154 605,154 605,154 605,154 605,154 605,154 605,154 606,154 606,154 606,154 606,154 606,154 606,153 606,153 606,153 606,153 607,153 607,153 607,152 607,152 607,152 607,152 607,152 607,152 607,152 607,151 608,151 608,151 608,151 608,151 608,151 608,151 608,151 608,151 608,150 608,150 609,150 609,150 609,150 609,150 609,150 609,150 609,149 609,149 609,149 609,149 610,149 610,149 610,148 610,148 610,148 610,148 610,147 610,146 610,146 611,146 611,146 611,147 611,148 611,148 611,149 611,149 611,149 611,149 611,150 612,150 612,150 612,150 612,150 612,150 612,151 612,151 612,151 612,151 612,151 613,151 613,151 613,151 613,151 613,151 613,151 613,151 613,151 613,151 613,151 614,151 614,151 614,151 614,151 614,151 614,151 614,151 614,151 614,150 615,150 615,150 615,150 615,149 615,149 615,149 615,149 615,149 615,149 615,148 616,149 616,149 616,149 616,148 616,148 616,148 616,148 616,148 616,147 616,147 617,147 617,147 617,146 617,146 617,146 617,146 617,145 617,145 617,145 617,144 618,144 618,144 618,144 618,144 618,144 618,144 618,143 618,143 618,144 619,144 619,144 619,144 619,143 619,143 619,143 619,143 619,143 619,143 619,142 620,142 620,142 620,142 620,141 620,141 620,141 620,141 620,141 620,141 620,140 621,140 621,140 621,139 621,139 621,139 621,138 621,138 621,138 621,138 621,137 622,137 622,137 622,137 622,137 622,137 622,136 622,136 622,136 622,136 622,136 623,135 623,135 623,135 623,135 623,135 623,135 623,135 623,135 623,136 624,136 624,136 624,136 624,136 624,136 624,137 624,137 624,137 624,137 624,137 625,138 625,138 625,138 625,138 625,138 625,138 625,139 625,139 625,139 625,140 626,140 626,140 626,140 626,140 626,140 626,140 626,140 626,140 626,141 626,141 627,141 627,141 627,141 627,141 627,142 627,142 627,143 627,143 627,144 628,144 628,144 628,145 628,145 628,145 628,145 628,145 628,145 628,145 628,146 629,146 629,146 629,146 629,146 629,146 629,146 629,146 629,146 629,146 629,146 630,146 630,146 630,146 630,146 630,146 630,146 630,146 630,146 630,146 630,146 631,146 631,146 631,146 631,146 631,146 631,146 631,146 631,146 631,146 632,146 632,146 632,146 632,146 632,146 632,146 632,146 632,146 632,146 632,146 633,146 633,146 633,146 633,146 633,146 633,146 633,146 633,146 633,146 633,146 634,146 634,146 634,147 634,147 634,147 634,147 634,147 634,147 634,147 634,147 635,148 635,148 635,148 635,148 635,148 635,148 635,149 635,149 635,149 635,149 636,149 636,149 636,149 636,149 636,149 636,149 636,149 636,149 636,150 637,150 637,150 637,150 637,150 637,150 637,150 637,150 637,150 637,150 637,150 638,150 638,150 638,150 638,150 638,150 638,150 638,150 638,150 638,150 638,150 639,150 639,150 639,150 639,150 639,150 639,150 639,150 639,150 639,150 639,150 640,150 640,150 640,150 640,150 640,150 640,151 640,151 640,151 640,151 641,150 641,150 641,150 641,150 641,150 641,150 641,150 641,150 641,150 641,151 642,151 642,151 642,151 642,151 642,151 642,151 642,151 642,151 642,151 642,151 643,151 643,151 643,151 643,151 643,151 643,151 643,151 643,151 643,151 643,151 644,151 644,151 644,151 644,151 644,151 644,151 644,151 644,151 644,151 645,151 645,151 645,151 645,151 645,151 645,151 645,151 645,151 645,151 645,151 646,151 646,151 646,151 646,151 646,151 646,151 646,151 646,150 646,150 646,150 647,150 647,150 647,150 647,150 647,150 647,150 647,150 647,150 647,149 647,149 648,149 648,149 648,149 648,149 648,149 648,149 648,150 648,150 648,150 649,150 649,150 649,150 649,151 649,151 649,151 649,151 649,151 649,151 649,151 650,151 650,151 650,151 650,151 650,151 650,150 650,150 650,150 650,150 650,150 651,150 651,150 651,150 651,150 651,150 651,150 651,150 651,150 651,150 651,150 652,150 652,150 652,150 652,150 652,150 652,150 652,150 652,150 652,150 652,150 653,150 653,150 653,150 653,150 653,150 653,149 653,149 653,149 653,149 654,149 654,149 654,149 654,149 654,149 654,149 654,149 654,149 654,149 654,149 655,149 655,149 655,149 655,149 655,149 655,149 655,149 655,149 655,149 655,149 656,149 656,149 656,149 656,149 656,149 656,150 656,150 656,150 656,150 656,150 657,150 657,150 657,150 657,150 657,150 657,150 657,150 657,150 657,150 658,150 658,150 658,150 658,150 658,150 658,150 658,150 658,150 658,150 658,150 659,150 659,150 659,150 659,150 659,150 659,150 659,150 659,150 659,150 659,150 660,150 660,150 660,150 660,149 660,149 660,149 660,149 660,149 660,149 660,149 661,149 661,149 661,148 661,148 661,148 661,148 661,148 661,148 661,148 662,148 662,148 662,148 662,148 662,149 662,149 662,149 662,149 662,149 662,149 663,149 663,149 663,149 663,149 663,149 663,149 663,149 663,149 663,150 663,150 664,149 664,149 664,149 664,149 664,149 664,149 664,149 664,149 664,149 664,149 665,149 665,149 665,149 665,149 665,149 665,149 665,149 665,149 665,149 665,149 666,149 666,149 666,149 666,149 666,149 666,149 666,149 666,149 666,149 667,149 667,149 667,149 667,149 667,149 667,149 667,149 667,149 667,149 667,149 668,149 668,149 668,149 668,149 668,149 668,149 668,149 668,149 668,149 668,149 669,149 669,149 669,149 669,149 669,149 669,149 669,149 669,149 669,149 669,149 670,149 670,149 670,149 670,149 670,149 670,149 670,148 670,148 670,148 671,148 671,148 671,148 671,148 671,148 671,148 671,148 671,148 671,148 671,148 672,148 672,148 672,148 672,148 672,148 672,148 672,148 672,148 672,148 672,148 673,148 673,148 673,148 673,148 673,148 673,148 673,148 673,148 673,148 673,148 674,148 674,148 674,148 674,148 674,148 674,148 674,147 674,147 674,147 675,147 675,147 675,148 675,148 675,147 675,147 675,147 675,147 675,147 675,147 676,147 676,147 676,147 676,147 676,147 676,147 676,147 676,147 676,147 676,147 677,147 677,147 677,147 677,147 677,147 677,147 677,147 677,147 677,147 677,147 678,147 678,147 678,147 678,147 678,147 678,147 678,147 678,147 678,147 679,147 679,147 679,147 679,147 679,147 679,147 679,147 679,147 679,147 679,147 680,147 680,147 680,147 680,147 680,147 680,147 680,147 680,147 680,147 680,147 681,147 681,147 681,147 681,147 681,147 681,147 681,147 681,147 681,146 681,146 682,146 682,146 682,146 682,146 682,146 682,146 682,146 682,145 682,146 682,146 683,146 683,146 683,146 683,146 683,146 683,146 683,146 683,145 683,145 684,145 684,145 684,144 684,144 684,145 684,145 684,145 684,145 684,145 684,146 685,146 685,146 685,146 685,146 685,146 685,146 685,146 685,146 685,146 685,146 686,146 686,146 686,146 686,146 686,146 686,146 686,146 686,146 686,146 686,145 687,145 687,145 687,145 687,146 687,146 687,145 687,145 687,145 687,145 688,145 688,145 688,145 688,145 688,145 688,145 688,145 688,145 688,145 688,145 689,145 689,145 689,145 689,145 689,145 689,145 689,145 689,145 689,145 689,145 690,145 690,144 690,144 690,144 690,144 690,144 690,144 690,144 690,144 690,145 691,145 691,145 691,145 691,144 691,144 691,144 691,144 691,144 691,144 692,144 692,144 692,144 692,144 692,144 692,144 692,144 692,144 692,144 692,144 693,144 693,144 693,144 693,144 693,144 693,144 693,144 693,144 693,144 693,144 694,144 694,144 694,144 694,144 694,144 694,144 694,144 694,145 694,144 694,144 695,144 695,144 695,144 695,144 695,144 695,144 695,144 695,144 695,145 695,145 696,145 696,145 696,145 696,145 696,145 696,145 696,145 696,144 696,144 697,144 697,144 697,144 697,144 697,144 697,144 697,144 697,144 697,144 697,144 698,144 698,144 698,144 698,144 698,144 698,144 698,144 698,144 698,144 698,144 699,144 699,144 699,144 699,145 699,144 699,144 699,144 699,144 699,144 699,144 700,144 700,144 700,144 700,144 700,144 700,144 700,144 700,144 700,144 701,144 701,143 701,143 701,143 701,143 701,143 701,143 701,143 701,143 701,143 702,143 702,143 702,143 702,143 702,142 702,142 702,142 702,142 702,142 702,142 703,142 703,142 703,142 703,142 703,142 703,142 703,142 703,142 703,142 703,142 704,142 704,142 704,142 704,142 704,142 704,142 704,142 704,142 704,142 705,142 705,142 705,142 705,142 705,142 705,142 705,142 705,142 705,142 705,142 706,142 706,142 706,142 706,142 706,141 706,141 706,141 706,141 706,141 706,141 707,141 707,141 707,141 707,141 707,141 707,140 707,140 707,140 707,140 707,140 708,140 708,140 708,140 708,139 708,139 708,139 708,139 " vector-effect="non-scaling-stroke"></polyline>
</g></svg>