<!-- Generator: Adobe Illustrator 19.2.0, SVG Export Plug-In  -->
<!DOCTYPE svg PUBLIC "-//W3C//DTD SVG 1.1//EN" "http://www.w3.org/Graphics/SVG/1.1/DTD/svg11.dtd" [
	<!ENTITY ns_flows "http://ns.adobe.com/Flows/1.0/">
	<!ENTITY st0 "fill:none;stroke:#FFFFFF;stroke-linecap:square;stroke-linejoin:bevel;stroke-dasharray:1,2;">
	<!ENTITY st1 "fill:#624949;">
]>
<svg version="1.1"
	 xmlns="http://www.w3.org/2000/svg" xmlns:xlink="http://www.w3.org/1999/xlink" xmlns:a="http://ns.adobe.com/AdobeSVGViewerExtensions/3.0/"
	 x="0px" y="0px" width="759px" height="380px" preserveAspectRatio="none" viewBox="0 0 759 380" style="enable-background:new 0 0 759 380;"
	 xml:space="preserve">
<defs>
</defs>
<g transform="matrix(1,0,0,1,0,0)">
	<line vector-effect="non-scaling-stroke" style="&st0;" x1="0.5" y1="0.5" x2="0.5" y2="379.5"/>
	<line vector-effect="non-scaling-stroke" style="&st0;" x1="95.5" y1="0.5" x2="95.5" y2="379.5"/>
	<line vector-effect="non-scaling-stroke" style="&st0;" x1="190.5" y1="0.5" x2="190.5" y2="379.5"/>
	<line vector-effect="non-scaling-stroke" style="&st0;" x1="284.5" y1="0.5" x2="284.5" y2="379.5"/>
	<line vector-effect="non-scaling-stroke" style="&st0;" x1="379.5" y1="0.5" x2="379.5" y2="379.5"/>
	<line vector-effect="non-scaling-stroke" style="&st0;" x1="474.5" y1="0.5" x2="474.5" y2="379.5"/>
	<line vector-effect="non-scaling-stroke" style="&st0;" x1="569.5" y1="0.5" x2="569.5" y2="379.5"/>
	<line vector-effect="non-scaling-stroke" style="&st0;" x1="663.5" y1="0.5" x2="663.5" y2="379.5"/>
	<line vector-effect="non-scaling-stroke" style="&st0;" x1="758.5" y1="0.5" x2="758.5" y2="379.5"/>
	<line vector-effect="non-scaling-stroke" style="&st0;" x1="0.5" y1="379.5" x2="758.5" y2="379.5"/>
	<line vector-effect="non-scaling-stroke" style="&st0;" x1="0.5" y1="325.5" x2="758.5" y2="325.5"/>
	<line vector-effect="non-scaling-stroke" style="&st0;" x1="0.5" y1="270.5" x2="758.5" y2="270.5"/>
	<line vector-effect="non-scaling-stroke" style="&st0;" x1="0.5" y1="216.5" x2="758.5" y2="216.5"/>
	<line vector-effect="non-scaling-stroke" style="&st0;" x1="0.5" y1="162.5" x2="758.5" y2="162.5"/>
	<line vector-effect="non-scaling-stroke" style="&st0;" x1="0.5" y1="108.5" x2="758.5" y2="108.5"/>
	<line vector-effect="non-scaling-stroke" style="&st0;" x1="0.5" y1="53.5" x2="758.5" y2="53.5"/>
</g>
<g transform="matrix(1,0,0,1,0,0)">
	<polyline vector-effect="non-scaling-stroke" style="&st1;" points="681.5,379.5 8.5,379.5 8.5,358.5 9.5,358.5 9.5,358.5 
		9.5,358.5 9.5,358.5 9.5,358.5 9.5,358.5 9.5,358.5 9.5,358.5 9.5,358.5 10.5,358.5 10.5,358.5 10.5,357.5 10.5,357.5 10.5,357.5 
		10.5,357.5 10.5,357.5 10.5,357.5 10.5,357.5 10.5,357.5 11.5,357.5 11.5,357.5 11.5,357.5 11.5,357.5 11.5,357.5 11.5,357.5 
		11.5,357.5 11.5,357.5 11.5,357.5 11.5,357.5 12.5,357.5 12.5,357.5 12.5,357.5 12.5,357.5 12.5,357.5 12.5,357.5 12.5,357.5 
		12.5,357.5 12.5,357.5 12.5,357.5 13.5,357.5 13.5,357.5 13.5,357.5 13.5,357.5 13.5,357.5 13.5,357.5 13.5,357.5 13.5,357.5 
		13.5,357.5 14.5,357.5 14.5,357.5 14.5,356.5 14.5,356.5 14.5,356.5 14.5,356.5 14.5,356.5 14.5,356.5 14.5,356.5 14.5,356.5 
		15.5,356.5 15.5,356.5 15.5,356.5 15.5,356.5 15.5,356.5 15.5,356.5 15.5,356.5 15.5,356.5 15.5,356.5 15.5,356.5 16.5,356.5 
		16.5,356.5 16.5,356.5 16.5,356.5 16.5,356.5 16.5,356.5 16.5,355.5 16.5,355.5 16.5,355.5 16.5,355.5 17.5,355.5 17.5,355.5 
		17.5,355.5 17.5,355.5 17.5,355.5 17.5,355.5 17.5,355.5 17.5,355.5 17.5,355.5 17.5,355.5 18.5,355.5 18.5,355.5 18.5,355.5 
		18.5,355.5 18.5,355.5 18.5,355.5 18.5,355.5 18.5,355.5 18.5,355.5 19.5,354.5 19.5,354.5 19.5,354.5 19.5,354.5 19.5,354.5 
		19.5,354.5 19.5,354.5 19.5,354.5 19.5,354.5 19.5,354.5 20.5,354.5 20.5,354.5 20.5,354.5 20.5,354.5 20.5,354.5 20.5,354.5 
		20.5,354.5 20.5,354.5 20.5,354.5 20.5,354.5 21.5,354.5 21.5,354.5 21.5,354.5 21.5,354.5 21.5,354.5 21.5,354.5 21.5,354.5 
		21.5,354.5 21.5,354.5 21.5,353.5 22.5,353.5 22.5,353.5 22.5,353.5 22.5,353.5 22.5,353.5 22.5,353.5 22.5,353.5 22.5,353.5 
		22.5,353.5 23.5,353.5 23.5,353.5 23.5,352.5 23.5,352.5 23.5,352.5 23.5,352.5 23.5,352.5 23.5,352.5 23.5,352.5 23.5,352.5 
		24.5,352.5 24.5,352.5 24.5,352.5 24.5,352.5 24.5,351.5 24.5,351.5 24.5,351.5 24.5,351.5 24.5,351.5 24.5,351.5 25.5,351.5 
		25.5,351.5 25.5,351.5 25.5,351.5 25.5,351.5 25.5,350.5 25.5,350.5 25.5,350.5 25.5,350.5 25.5,350.5 26.5,350.5 26.5,350.5 
		26.5,350.5 26.5,350.5 26.5,350.5 26.5,350.5 26.5,349.5 26.5,349.5 26.5,349.5 27.5,349.5 27.5,349.5 27.5,349.5 27.5,348.5 
		27.5,348.5 27.5,348.5 27.5,348.5 27.5,348.5 27.5,348.5 27.5,347.5 28.5,347.5 28.5,347.5 28.5,347.5 28.5,347.5 28.5,347.5 
		28.5,347.5 28.5,346.5 28.5,346.5 28.5,346.5 28.5,346.5 29.5,346.5 29.5,346.5 29.5,346.5 29.5,346.5 29.5,346.5 29.5,346.5 
		29.5,345.5 29.5,345.5 29.5,345.5 29.5,345.5 30.5,345.5 30.5,345.5 30.5,345.5 30.5,345.5 30.5,345.5 30.5,344.5 30.5,344.5 
		30.5,344.5 30.5,344.5 31.5,344.5 31.5,344.5 31.5,343.5 31.5,343.5 31.5,343.5 31.5,343.5 31.5,343.5 31.5,343.5 31.5,343.5 
		31.5,342.5 32.5,342.5 32.5,342.5 32.5,342.5 32.5,342.5 32.5,342.5 32.5,342.5 32.5,342.5 32.5,342.5 32.5,342.5 32.5,341.5 
		33.5,341.5 33.5,341.5 33.5,341.5 33.5,341.5 33.5,341.5 33.5,340.5 33.5,340.5 33.5,340.5 33.5,340.5 33.5,339.5 34.5,339.5 
		34.5,339.5 34.5,339.5 34.5,339.5 34.5,338.5 34.5,338.5 34.5,338.5 34.5,338.5 34.5,338.5 34.5,338.5 35.5,337.5 35.5,337.5 
		35.5,337.5 35.5,337.5 35.5,337.5 35.5,337.5 35.5,336.5 35.5,336.5 35.5,336.5 36.5,336.5 36.5,336.5 36.5,336.5 36.5,336.5 
		36.5,336.5 36.5,335.5 36.5,335.5 36.5,335.5 36.5,335.5 36.5,335.5 37.5,335.5 37.5,335.5 37.5,335.5 37.5,335.5 37.5,335.5 
		37.5,334.5 37.5,334.5 37.5,334.5 37.5,334.5 37.5,334.5 38.5,334.5 38.5,334.5 38.5,334.5 38.5,334.5 38.5,333.5 38.5,333.5 
		38.5,333.5 38.5,333.5 38.5,333.5 38.5,333.5 39.5,332.5 39.5,332.5 39.5,332.5 39.5,332.5 39.5,332.5 39.5,332.5 39.5,331.5 
		39.5,331.5 39.5,331.5 40.5,331.5 40.5,331.5 40.5,331.5 40.5,330.5 40.5,330.5 40.5,330.5 40.5,330.5 40.5,330.5 40.5,330.5 
		40.5,329.5 41.5,329.5 41.5,329.5 41.5,329.5 41.5,329.5 41.5,329.5 41.5,329.5 41.5,328.5 41.5,328.5 41.5,328.5 41.5,328.5 
		42.5,328.5 42.5,328.5 42.5,328.5 42.5,328.5 42.5,327.5 42.5,327.5 42.5,327.5 42.5,327.5 42.5,327.5 42.5,327.5 43.5,327.5 
		43.5,326.5 43.5,326.5 43.5,326.5 43.5,326.5 43.5,326.5 43.5,326.5 43.5,326.5 43.5,325.5 44.5,325.5 44.5,325.5 44.5,325.5 
		44.5,325.5 44.5,325.5 44.5,324.5 44.5,324.5 44.5,324.5 44.5,324.5 44.5,324.5 45.5,324.5 45.5,323.5 45.5,323.5 45.5,323.5 
		45.5,323.5 45.5,323.5 45.5,322.5 45.5,322.5 45.5,322.5 45.5,322.5 46.5,322.5 46.5,321.5 46.5,321.5 46.5,321.5 46.5,321.5 
		46.5,320.5 46.5,320.5 46.5,320.5 46.5,319.5 46.5,319.5 47.5,319.5 47.5,319.5 47.5,319.5 47.5,318.5 47.5,318.5 47.5,318.5 
		47.5,318.5 47.5,317.5 47.5,317.5 47.5,317.5 48.5,317.5 48.5,316.5 48.5,316.5 48.5,316.5 48.5,316.5 48.5,316.5 48.5,315.5 
		48.5,315.5 48.5,315.5 49.5,315.5 49.5,315.5 49.5,315.5 49.5,316.5 49.5,316.5 49.5,316.5 49.5,316.5 49.5,316.5 49.5,316.5 
		49.5,316.5 50.5,315.5 50.5,315.5 50.5,314.5 50.5,314.5 50.5,313.5 50.5,312.5 50.5,312.5 50.5,311.5 50.5,311.5 50.5,310.5 
		51.5,309.5 51.5,309.5 51.5,308.5 51.5,308.5 51.5,307.5 51.5,306.5 51.5,306.5 51.5,305.5 51.5,305.5 51.5,304.5 52.5,304.5 
		52.5,304.5 52.5,304.5 52.5,304.5 52.5,304.5 52.5,303.5 52.5,303.5 52.5,303.5 52.5,303.5 53.5,302.5 53.5,302.5 53.5,302.5 
		53.5,302.5 53.5,301.5 53.5,301.5 53.5,301.5 53.5,301.5 53.5,301.5 53.5,300.5 54.5,300.5 54.5,300.5 54.5,300.5 54.5,300.5 
		54.5,299.5 54.5,299.5 54.5,298.5 54.5,298.5 54.5,298.5 54.5,297.5 55.5,297.5 55.5,296.5 55.5,296.5 55.5,295.5 55.5,295.5 
		55.5,294.5 55.5,294.5 55.5,294.5 55.5,293.5 55.5,293.5 56.5,293.5 56.5,292.5 56.5,292.5 56.5,292.5 56.5,292.5 56.5,291.5 
		56.5,291.5 56.5,291.5 56.5,290.5 57.5,290.5 57.5,290.5 57.5,289.5 57.5,289.5 57.5,289.5 57.5,289.5 57.5,288.5 57.5,288.5 
		57.5,288.5 57.5,287.5 58.5,287.5 58.5,287.5 58.5,287.5 58.5,287.5 58.5,287.5 58.5,286.5 58.5,286.5 58.5,286.5 58.5,286.5 
		58.5,286.5 59.5,286.5 59.5,286.5 59.5,286.5 59.5,286.5 59.5,286.5 59.5,285.5 59.5,285.5 59.5,285.5 59.5,285.5 59.5,285.5 
		60.5,285.5 60.5,285.5 60.5,285.5 60.5,285.5 60.5,285.5 60.5,285.5 60.5,284.5 60.5,284.5 60.5,284.5 61.5,284.5 61.5,284.5 
		61.5,284.5 61.5,284.5 61.5,284.5 61.5,283.5 61.5,283.5 61.5,283.5 61.5,283.5 61.5,283.5 62.5,283.5 62.5,282.5 62.5,282.5 
		62.5,282.5 62.5,282.5 62.5,282.5 62.5,282.5 62.5,281.5 62.5,281.5 62.5,281.5 63.5,281.5 63.5,281.5 63.5,280.5 63.5,280.5 
		63.5,280.5 63.5,280.5 63.5,280.5 63.5,280.5 63.5,279.5 63.5,279.5 64.5,279.5 64.5,279.5 64.5,279.5 64.5,279.5 64.5,278.5 
		64.5,278.5 64.5,278.5 64.5,278.5 64.5,278.5 64.5,278.5 65.5,277.5 65.5,277.5 65.5,277.5 65.5,277.5 65.5,277.5 65.5,277.5 
		65.5,276.5 65.5,276.5 65.5,276.5 66.5,276.5 66.5,276.5 66.5,276.5 66.5,275.5 66.5,275.5 66.5,275.5 66.5,275.5 66.5,275.5 
		66.5,275.5 66.5,274.5 67.5,274.5 67.5,274.5 67.5,274.5 67.5,274.5 67.5,274.5 67.5,273.5 67.5,273.5 67.5,273.5 67.5,273.5 
		67.5,273.5 68.5,272.5 68.5,272.5 68.5,272.5 68.5,272.5 68.5,272.5 68.5,272.5 68.5,271.5 68.5,271.5 68.5,271.5 68.5,271.5 
		69.5,271.5 69.5,271.5 69.5,270.5 69.5,270.5 69.5,270.5 69.5,270.5 69.5,270.5 69.5,270.5 69.5,269.5 70.5,269.5 70.5,269.5 
		70.5,269.5 70.5,269.5 70.5,269.5 70.5,268.5 70.5,268.5 70.5,268.5 70.5,268.5 70.5,268.5 71.5,268.5 71.5,267.5 71.5,267.5 
		71.5,267.5 71.5,267.5 71.5,267.5 71.5,267.5 71.5,267.5 71.5,266.5 71.5,266.5 72.5,266.5 72.5,266.5 72.5,265.5 72.5,265.5 
		72.5,265.5 72.5,265.5 72.5,264.5 72.5,264.5 72.5,264.5 72.5,264.5 73.5,264.5 73.5,264.5 73.5,264.5 73.5,264.5 73.5,264.5 
		73.5,264.5 73.5,264.5 73.5,264.5 73.5,264.5 74.5,264.5 74.5,264.5 74.5,263.5 74.5,263.5 74.5,263.5 74.5,263.5 74.5,263.5 
		74.5,263.5 74.5,263.5 74.5,263.5 75.5,263.5 75.5,263.5 75.5,263.5 75.5,263.5 75.5,263.5 75.5,262.5 75.5,262.5 75.5,262.5 
		75.5,262.5 75.5,262.5 76.5,261.5 76.5,261.5 76.5,261.5 76.5,261.5 76.5,261.5 76.5,261.5 76.5,261.5 76.5,260.5 76.5,260.5 
		76.5,260.5 77.5,260.5 77.5,260.5 77.5,260.5 77.5,260.5 77.5,259.5 77.5,259.5 77.5,259.5 77.5,259.5 77.5,259.5 77.5,259.5 
		78.5,258.5 78.5,258.5 78.5,258.5 78.5,258.5 78.5,258.5 78.5,258.5 78.5,258.5 78.5,258.5 78.5,258.5 79.5,259.5 79.5,259.5 
		79.5,259.5 79.5,259.5 79.5,259.5 79.5,259.5 79.5,259.5 79.5,260.5 79.5,260.5 79.5,260.5 80.5,260.5 80.5,260.5 80.5,260.5 
		80.5,260.5 80.5,260.5 80.5,260.5 80.5,261.5 80.5,261.5 80.5,261.5 80.5,261.5 81.5,261.5 81.5,262.5 81.5,262.5 81.5,262.5 
		81.5,263.5 81.5,263.5 81.5,263.5 81.5,263.5 81.5,263.5 81.5,262.5 82.5,262.5 82.5,262.5 82.5,261.5 82.5,261.5 82.5,261.5 
		82.5,260.5 82.5,260.5 82.5,260.5 82.5,260.5 83.5,259.5 83.5,259.5 83.5,259.5 83.5,258.5 83.5,258.5 83.5,257.5 83.5,257.5 
		83.5,256.5 83.5,256.5 83.5,255.5 84.5,255.5 84.5,254.5 84.5,254.5 84.5,254.5 84.5,253.5 84.5,253.5 84.5,252.5 84.5,252.5 
		84.5,252.5 84.5,251.5 85.5,251.5 85.5,251.5 85.5,250.5 85.5,250.5 85.5,250.5 85.5,250.5 85.5,250.5 85.5,250.5 85.5,249.5 
		85.5,249.5 86.5,249.5 86.5,249.5 86.5,249.5 86.5,249.5 86.5,248.5 86.5,248.5 86.5,248.5 86.5,248.5 86.5,248.5 87.5,248.5 
		87.5,247.5 87.5,247.5 87.5,247.5 87.5,247.5 87.5,247.5 87.5,247.5 87.5,247.5 87.5,247.5 87.5,247.5 88.5,247.5 88.5,247.5 
		88.5,247.5 88.5,247.5 88.5,247.5 88.5,247.5 88.5,247.5 88.5,247.5 88.5,247.5 88.5,247.5 89.5,247.5 89.5,247.5 89.5,247.5 
		89.5,247.5 89.5,247.5 89.5,247.5 89.5,247.5 89.5,247.5 89.5,247.5 89.5,247.5 90.5,247.5 90.5,247.5 90.5,247.5 90.5,247.5 
		90.5,247.5 90.5,247.5 90.5,247.5 90.5,247.5 90.5,248.5 91.5,248.5 91.5,248.5 91.5,248.5 91.5,248.5 91.5,248.5 91.5,248.5 
		91.5,249.5 91.5,249.5 91.5,249.5 91.5,249.5 92.5,250.5 92.5,250.5 92.5,250.5 92.5,250.5 92.5,251.5 92.5,251.5 92.5,251.5 
		92.5,252.5 92.5,252.5 92.5,252.5 93.5,253.5 93.5,253.5 93.5,254.5 93.5,254.5 93.5,255.5 93.5,255.5 93.5,256.5 93.5,257.5 
		93.5,257.5 93.5,258.5 94.5,258.5 94.5,259.5 94.5,259.5 94.5,260.5 94.5,260.5 94.5,260.5 94.5,261.5 94.5,261.5 94.5,261.5 
		94.5,261.5 95.5,261.5 95.5,262.5 95.5,262.5 95.5,262.5 95.5,261.5 95.5,261.5 95.5,261.5 95.5,260.5 95.5,260.5 96.5,260.5 
		96.5,259.5 96.5,259.5 96.5,259.5 96.5,259.5 96.5,258.5 96.5,258.5 96.5,258.5 96.5,258.5 96.5,257.5 97.5,257.5 97.5,257.5 
		97.5,257.5 97.5,257.5 97.5,257.5 97.5,257.5 97.5,256.5 97.5,256.5 97.5,256.5 97.5,257.5 98.5,257.5 98.5,257.5 98.5,257.5 
		98.5,258.5 98.5,258.5 98.5,258.5 98.5,259.5 98.5,259.5 98.5,259.5 98.5,260.5 99.5,260.5 99.5,260.5 99.5,261.5 99.5,261.5 
		99.5,261.5 99.5,262.5 99.5,262.5 99.5,263.5 99.5,263.5 100.5,263.5 100.5,264.5 100.5,264.5 100.5,264.5 100.5,265.5 
		100.5,265.5 100.5,265.5 100.5,265.5 100.5,265.5 100.5,266.5 101.5,266.5 101.5,266.5 101.5,266.5 101.5,267.5 101.5,267.5 
		101.5,267.5 101.5,267.5 101.5,267.5 101.5,267.5 101.5,267.5 102.5,267.5 102.5,267.5 102.5,266.5 102.5,266.5 102.5,266.5 
		102.5,266.5 102.5,265.5 102.5,265.5 102.5,265.5 102.5,264.5 103.5,264.5 103.5,264.5 103.5,263.5 103.5,263.5 103.5,263.5 
		103.5,262.5 103.5,262.5 103.5,262.5 103.5,261.5 104.5,261.5 104.5,261.5 104.5,261.5 104.5,260.5 104.5,260.5 104.5,260.5 
		104.5,260.5 104.5,259.5 104.5,259.5 104.5,259.5 105.5,259.5 105.5,258.5 105.5,258.5 105.5,258.5 105.5,258.5 105.5,258.5 
		105.5,258.5 105.5,258.5 105.5,258.5 105.5,258.5 106.5,258.5 106.5,258.5 106.5,258.5 106.5,258.5 106.5,259.5 106.5,259.5 
		106.5,259.5 106.5,259.5 106.5,259.5 106.5,259.5 107.5,260.5 107.5,260.5 107.5,260.5 107.5,260.5 107.5,261.5 107.5,261.5 
		107.5,261.5 107.5,261.5 107.5,261.5 107.5,262.5 108.5,262.5 108.5,262.5 108.5,262.5 108.5,262.5 108.5,262.5 108.5,262.5 
		108.5,262.5 108.5,262.5 108.5,262.5 109.5,262.5 109.5,262.5 109.5,262.5 109.5,262.5 109.5,262.5 109.5,262.5 109.5,262.5 
		109.5,262.5 109.5,262.5 109.5,262.5 110.5,262.5 110.5,262.5 110.5,262.5 110.5,262.5 110.5,262.5 110.5,262.5 110.5,262.5 
		110.5,261.5 110.5,261.5 110.5,261.5 111.5,261.5 111.5,261.5 111.5,261.5 111.5,260.5 111.5,260.5 111.5,260.5 111.5,260.5 
		111.5,260.5 111.5,260.5 111.5,260.5 112.5,260.5 112.5,260.5 112.5,260.5 112.5,260.5 112.5,259.5 112.5,259.5 112.5,259.5 
		112.5,259.5 112.5,259.5 113.5,259.5 113.5,258.5 113.5,258.5 113.5,258.5 113.5,258.5 113.5,258.5 113.5,258.5 113.5,257.5 
		113.5,257.5 113.5,257.5 114.5,257.5 114.5,257.5 114.5,257.5 114.5,257.5 114.5,257.5 114.5,257.5 114.5,257.5 114.5,257.5 
		114.5,256.5 114.5,256.5 115.5,256.5 115.5,256.5 115.5,256.5 115.5,256.5 115.5,256.5 115.5,256.5 115.5,255.5 115.5,255.5 
		115.5,255.5 115.5,255.5 116.5,255.5 116.5,255.5 116.5,255.5 116.5,255.5 116.5,255.5 116.5,255.5 116.5,255.5 116.5,255.5 
		116.5,255.5 117.5,255.5 117.5,255.5 117.5,255.5 117.5,255.5 117.5,256.5 117.5,256.5 117.5,256.5 117.5,257.5 117.5,257.5 
		117.5,257.5 118.5,258.5 118.5,258.5 118.5,258.5 118.5,259.5 118.5,259.5 118.5,260.5 118.5,261.5 118.5,261.5 118.5,262.5 
		118.5,263.5 119.5,264.5 119.5,265.5 119.5,265.5 119.5,266.5 119.5,267.5 119.5,267.5 119.5,268.5 119.5,269.5 119.5,269.5 
		119.5,270.5 120.5,271.5 120.5,272.5 120.5,272.5 120.5,273.5 120.5,274.5 120.5,274.5 120.5,275.5 120.5,276.5 120.5,276.5 
		121.5,277.5 121.5,277.5 121.5,277.5 121.5,278.5 121.5,278.5 121.5,278.5 121.5,279.5 121.5,279.5 121.5,279.5 121.5,280.5 
		122.5,280.5 122.5,280.5 122.5,280.5 122.5,281.5 122.5,281.5 122.5,281.5 122.5,282.5 122.5,282.5 122.5,282.5 122.5,282.5 
		123.5,282.5 123.5,282.5 123.5,282.5 123.5,281.5 123.5,281.5 123.5,280.5 123.5,280.5 123.5,279.5 123.5,279.5 123.5,278.5 
		124.5,277.5 124.5,277.5 124.5,276.5 124.5,276.5 124.5,275.5 124.5,275.5 124.5,274.5 124.5,274.5 124.5,273.5 124.5,273.5 
		125.5,272.5 125.5,272.5 125.5,271.5 125.5,271.5 125.5,270.5 125.5,269.5 125.5,268.5 125.5,268.5 125.5,267.5 126.5,267.5 
		126.5,266.5 126.5,266.5 126.5,265.5 126.5,265.5 126.5,264.5 126.5,264.5 126.5,264.5 126.5,263.5 126.5,263.5 127.5,262.5 
		127.5,262.5 127.5,262.5 127.5,261.5 127.5,261.5 127.5,261.5 127.5,261.5 127.5,260.5 127.5,260.5 127.5,260.5 128.5,260.5 
		128.5,259.5 128.5,259.5 128.5,259.5 128.5,259.5 128.5,258.5 128.5,258.5 128.5,258.5 128.5,258.5 128.5,257.5 129.5,257.5 
		129.5,257.5 129.5,257.5 129.5,256.5 129.5,256.5 129.5,256.5 129.5,256.5 129.5,256.5 129.5,256.5 130.5,255.5 130.5,255.5 
		130.5,255.5 130.5,255.5 130.5,255.5 130.5,255.5 130.5,255.5 130.5,254.5 130.5,254.5 130.5,254.5 131.5,254.5 131.5,254.5 
		131.5,254.5 131.5,254.5 131.5,254.5 131.5,254.5 131.5,253.5 131.5,253.5 131.5,253.5 131.5,253.5 132.5,253.5 132.5,253.5 
		132.5,253.5 132.5,253.5 132.5,253.5 132.5,253.5 132.5,253.5 132.5,253.5 132.5,253.5 132.5,254.5 133.5,254.5 133.5,254.5 
		133.5,254.5 133.5,255.5 133.5,255.5 133.5,255.5 133.5,256.5 133.5,256.5 133.5,256.5 134.5,257.5 134.5,257.5 134.5,257.5 
		134.5,258.5 134.5,258.5 134.5,259.5 134.5,260.5 134.5,260.5 134.5,261.5 134.5,262.5 135.5,262.5 135.5,263.5 135.5,263.5 
		135.5,264.5 135.5,264.5 135.5,265.5 135.5,265.5 135.5,265.5 135.5,265.5 135.5,265.5 136.5,265.5 136.5,265.5 136.5,265.5 
		136.5,265.5 136.5,264.5 136.5,264.5 136.5,264.5 136.5,263.5 136.5,263.5 136.5,263.5 137.5,263.5 137.5,263.5 137.5,262.5 
		137.5,262.5 137.5,262.5 137.5,262.5 137.5,261.5 137.5,261.5 137.5,261.5 137.5,261.5 138.5,260.5 138.5,260.5 138.5,260.5 
		138.5,259.5 138.5,259.5 138.5,258.5 138.5,258.5 138.5,258.5 138.5,258.5 139.5,257.5 139.5,256.5 139.5,256.5 139.5,256.5 
		139.5,256.5 139.5,256.5 139.5,256.5 139.5,256.5 139.5,256.5 139.5,257.5 140.5,257.5 140.5,257.5 140.5,257.5 140.5,258.5 
		140.5,258.5 140.5,258.5 140.5,259.5 140.5,259.5 140.5,260.5 140.5,261.5 141.5,262.5 141.5,262.5 141.5,263.5 141.5,264.5 
		141.5,265.5 141.5,266.5 141.5,267.5 141.5,268.5 141.5,269.5 141.5,270.5 142.5,271.5 142.5,272.5 142.5,274.5 142.5,275.5 
		142.5,276.5 142.5,277.5 142.5,278.5 142.5,279.5 142.5,280.5 143.5,281.5 143.5,282.5 143.5,282.5 143.5,283.5 143.5,284.5 
		143.5,285.5 143.5,287.5 143.5,287.5 143.5,287.5 143.5,288.5 144.5,288.5 144.5,288.5 144.5,288.5 144.5,288.5 144.5,288.5 
		144.5,288.5 144.5,288.5 144.5,287.5 144.5,287.5 144.5,286.5 145.5,285.5 145.5,284.5 145.5,284.5 145.5,283.5 145.5,283.5 
		145.5,282.5 145.5,282.5 145.5,281.5 145.5,281.5 145.5,280.5 146.5,280.5 146.5,279.5 146.5,279.5 146.5,278.5 146.5,277.5 
		146.5,277.5 146.5,276.5 146.5,275.5 146.5,275.5 147.5,274.5 147.5,273.5 147.5,273.5 147.5,272.5 147.5,271.5 147.5,270.5 
		147.5,270.5 147.5,269.5 147.5,268.5 147.5,267.5 148.5,266.5 148.5,265.5 148.5,265.5 148.5,264.5 148.5,263.5 148.5,263.5 
		148.5,262.5 148.5,261.5 148.5,260.5 148.5,259.5 149.5,258.5 149.5,258.5 149.5,257.5 149.5,257.5 149.5,256.5 149.5,256.5 
		149.5,255.5 149.5,254.5 149.5,254.5 149.5,253.5 150.5,253.5 150.5,253.5 150.5,252.5 150.5,252.5 150.5,251.5 150.5,251.5 
		150.5,251.5 150.5,250.5 150.5,250.5 151.5,250.5 151.5,249.5 151.5,249.5 151.5,249.5 151.5,249.5 151.5,249.5 151.5,249.5 
		151.5,248.5 151.5,248.5 151.5,248.5 152.5,248.5 152.5,248.5 152.5,248.5 152.5,248.5 152.5,248.5 152.5,248.5 152.5,248.5 
		152.5,248.5 152.5,249.5 152.5,249.5 153.5,249.5 153.5,249.5 153.5,249.5 153.5,249.5 153.5,249.5 153.5,249.5 153.5,249.5 
		153.5,249.5 153.5,250.5 153.5,249.5 154.5,249.5 154.5,249.5 154.5,249.5 154.5,249.5 154.5,249.5 154.5,249.5 154.5,249.5 
		154.5,249.5 154.5,249.5 154.5,249.5 155.5,248.5 155.5,248.5 155.5,248.5 155.5,248.5 155.5,248.5 155.5,248.5 155.5,248.5 
		155.5,248.5 155.5,248.5 156.5,248.5 156.5,248.5 156.5,248.5 156.5,248.5 156.5,248.5 156.5,248.5 156.5,248.5 156.5,248.5 
		156.5,248.5 156.5,248.5 157.5,248.5 157.5,248.5 157.5,248.5 157.5,249.5 157.5,249.5 157.5,249.5 157.5,249.5 157.5,249.5 
		157.5,250.5 157.5,250.5 158.5,250.5 158.5,250.5 158.5,251.5 158.5,251.5 158.5,251.5 158.5,252.5 158.5,252.5 158.5,252.5 
		158.5,253.5 158.5,253.5 159.5,253.5 159.5,254.5 159.5,254.5 159.5,254.5 159.5,255.5 159.5,255.5 159.5,255.5 159.5,256.5 
		159.5,256.5 160.5,256.5 160.5,256.5 160.5,257.5 160.5,257.5 160.5,257.5 160.5,258.5 160.5,258.5 160.5,258.5 160.5,258.5 
		160.5,259.5 161.5,260.5 161.5,260.5 161.5,261.5 161.5,262.5 161.5,262.5 161.5,263.5 161.5,263.5 161.5,264.5 161.5,265.5 
		161.5,265.5 162.5,266.5 162.5,267.5 162.5,268.5 162.5,268.5 162.5,269.5 162.5,269.5 162.5,270.5 162.5,270.5 162.5,270.5 
		162.5,271.5 163.5,271.5 163.5,271.5 163.5,271.5 163.5,271.5 163.5,271.5 163.5,271.5 163.5,272.5 163.5,272.5 163.5,272.5 
		164.5,272.5 164.5,273.5 164.5,273.5 164.5,273.5 164.5,273.5 164.5,274.5 164.5,274.5 164.5,274.5 164.5,274.5 164.5,274.5 
		165.5,274.5 165.5,274.5 165.5,274.5 165.5,274.5 165.5,274.5 165.5,273.5 165.5,273.5 165.5,273.5 165.5,273.5 165.5,273.5 
		166.5,272.5 166.5,272.5 166.5,272.5 166.5,271.5 166.5,271.5 166.5,271.5 166.5,270.5 166.5,270.5 166.5,270.5 166.5,269.5 
		167.5,269.5 167.5,269.5 167.5,268.5 167.5,268.5 167.5,268.5 167.5,268.5 167.5,268.5 167.5,268.5 167.5,267.5 167.5,267.5 
		168.5,267.5 168.5,267.5 168.5,267.5 168.5,267.5 168.5,266.5 168.5,266.5 168.5,266.5 168.5,266.5 168.5,266.5 169.5,266.5 
		169.5,266.5 169.5,265.5 169.5,265.5 169.5,265.5 169.5,265.5 169.5,265.5 169.5,265.5 169.5,265.5 169.5,264.5 170.5,264.5 
		170.5,264.5 170.5,264.5 170.5,264.5 170.5,264.5 170.5,264.5 170.5,264.5 170.5,264.5 170.5,264.5 170.5,264.5 171.5,264.5 
		171.5,264.5 171.5,264.5 171.5,264.5 171.5,264.5 171.5,264.5 171.5,263.5 171.5,263.5 171.5,263.5 171.5,263.5 172.5,263.5 
		172.5,263.5 172.5,262.5 172.5,262.5 172.5,262.5 172.5,262.5 172.5,262.5 172.5,262.5 172.5,262.5 173.5,261.5 173.5,261.5 
		173.5,261.5 173.5,261.5 173.5,261.5 173.5,261.5 173.5,261.5 173.5,260.5 173.5,260.5 173.5,260.5 174.5,260.5 174.5,260.5 
		174.5,260.5 174.5,259.5 174.5,259.5 174.5,259.5 174.5,259.5 174.5,259.5 174.5,259.5 174.5,258.5 175.5,258.5 175.5,258.5 
		175.5,258.5 175.5,257.5 175.5,257.5 175.5,257.5 175.5,257.5 175.5,257.5 175.5,257.5 175.5,257.5 176.5,257.5 176.5,256.5 
		176.5,256.5 176.5,256.5 176.5,256.5 176.5,256.5 176.5,256.5 176.5,256.5 176.5,256.5 177.5,256.5 177.5,256.5 177.5,256.5 
		177.5,256.5 177.5,256.5 177.5,255.5 177.5,255.5 177.5,255.5 177.5,254.5 177.5,254.5 178.5,253.5 178.5,253.5 178.5,253.5 
		178.5,252.5 178.5,252.5 178.5,252.5 178.5,251.5 178.5,251.5 178.5,250.5 178.5,250.5 179.5,250.5 179.5,249.5 179.5,249.5 
		179.5,249.5 179.5,249.5 179.5,248.5 179.5,248.5 179.5,248.5 179.5,248.5 179.5,247.5 180.5,247.5 180.5,247.5 180.5,246.5 
		180.5,246.5 180.5,246.5 180.5,246.5 180.5,246.5 180.5,245.5 180.5,245.5 181.5,245.5 181.5,244.5 181.5,244.5 181.5,244.5 
		181.5,243.5 181.5,243.5 181.5,243.5 181.5,242.5 181.5,242.5 181.5,242.5 182.5,241.5 182.5,241.5 182.5,241.5 182.5,240.5 
		182.5,240.5 182.5,240.5 182.5,240.5 182.5,240.5 182.5,240.5 182.5,239.5 183.5,239.5 183.5,239.5 183.5,238.5 183.5,238.5 
		183.5,238.5 183.5,237.5 183.5,237.5 183.5,237.5 183.5,236.5 183.5,236.5 184.5,236.5 184.5,235.5 184.5,235.5 184.5,235.5 
		184.5,235.5 184.5,235.5 184.5,235.5 184.5,235.5 184.5,235.5 184.5,234.5 185.5,234.5 185.5,234.5 185.5,234.5 185.5,234.5 
		185.5,234.5 185.5,234.5 185.5,234.5 185.5,234.5 185.5,234.5 186.5,233.5 186.5,233.5 186.5,233.5 186.5,232.5 186.5,232.5 
		186.5,232.5 186.5,231.5 186.5,231.5 186.5,231.5 186.5,231.5 187.5,231.5 187.5,231.5 187.5,231.5 187.5,231.5 187.5,231.5 
		187.5,231.5 187.5,231.5 187.5,231.5 187.5,230.5 187.5,230.5 188.5,230.5 188.5,229.5 188.5,229.5 188.5,229.5 188.5,229.5 
		188.5,229.5 188.5,229.5 188.5,228.5 188.5,228.5 188.5,228.5 189.5,228.5 189.5,228.5 189.5,228.5 189.5,227.5 189.5,227.5 
		189.5,227.5 189.5,227.5 189.5,228.5 189.5,228.5 190.5,228.5 190.5,228.5 190.5,228.5 190.5,228.5 190.5,228.5 190.5,228.5 
		190.5,228.5 190.5,229.5 190.5,229.5 190.5,229.5 191.5,229.5 191.5,230.5 191.5,230.5 191.5,230.5 191.5,231.5 191.5,231.5 
		191.5,231.5 191.5,231.5 191.5,231.5 191.5,231.5 192.5,232.5 192.5,232.5 192.5,232.5 192.5,232.5 192.5,232.5 192.5,232.5 
		192.5,232.5 192.5,233.5 192.5,233.5 192.5,233.5 193.5,234.5 193.5,234.5 193.5,234.5 193.5,234.5 193.5,235.5 193.5,235.5 
		193.5,235.5 193.5,235.5 193.5,235.5 194.5,235.5 194.5,235.5 194.5,235.5 194.5,235.5 194.5,235.5 194.5,235.5 194.5,235.5 
		194.5,235.5 194.5,235.5 194.5,235.5 195.5,235.5 195.5,235.5 195.5,235.5 195.5,235.5 195.5,235.5 195.5,235.5 195.5,235.5 
		195.5,235.5 195.5,235.5 195.5,235.5 196.5,235.5 196.5,236.5 196.5,236.5 196.5,236.5 196.5,236.5 196.5,236.5 196.5,236.5 
		196.5,236.5 196.5,236.5 196.5,236.5 197.5,236.5 197.5,237.5 197.5,237.5 197.5,237.5 197.5,237.5 197.5,238.5 197.5,238.5 
		197.5,238.5 197.5,239.5 198.5,239.5 198.5,239.5 198.5,239.5 198.5,240.5 198.5,240.5 198.5,240.5 198.5,240.5 198.5,241.5 
		198.5,241.5 198.5,241.5 199.5,241.5 199.5,242.5 199.5,242.5 199.5,242.5 199.5,242.5 199.5,242.5 199.5,242.5 199.5,242.5 
		199.5,243.5 199.5,243.5 200.5,243.5 200.5,243.5 200.5,243.5 200.5,243.5 200.5,243.5 200.5,243.5 200.5,243.5 200.5,243.5 
		200.5,243.5 200.5,244.5 201.5,244.5 201.5,244.5 201.5,244.5 201.5,244.5 201.5,245.5 201.5,245.5 201.5,245.5 201.5,245.5 
		201.5,245.5 201.5,245.5 202.5,246.5 202.5,246.5 202.5,246.5 202.5,246.5 202.5,246.5 202.5,246.5 202.5,246.5 202.5,247.5 
		202.5,247.5 203.5,247.5 203.5,248.5 203.5,248.5 203.5,248.5 203.5,248.5 203.5,249.5 203.5,250.5 203.5,251.5 203.5,251.5 
		203.5,252.5 204.5,253.5 204.5,253.5 204.5,254.5 204.5,254.5 204.5,255.5 204.5,256.5 204.5,256.5 204.5,257.5 204.5,257.5 
		204.5,257.5 205.5,257.5 205.5,258.5 205.5,258.5 205.5,258.5 205.5,258.5 205.5,258.5 205.5,258.5 205.5,258.5 205.5,258.5 
		205.5,258.5 206.5,258.5 206.5,258.5 206.5,258.5 206.5,258.5 206.5,258.5 206.5,258.5 206.5,258.5 206.5,258.5 206.5,258.5 
		207.5,258.5 207.5,258.5 207.5,257.5 207.5,257.5 207.5,257.5 207.5,257.5 207.5,256.5 207.5,256.5 207.5,256.5 207.5,255.5 
		208.5,255.5 208.5,255.5 208.5,254.5 208.5,254.5 208.5,254.5 208.5,254.5 208.5,253.5 208.5,253.5 208.5,253.5 208.5,253.5 
		209.5,252.5 209.5,252.5 209.5,252.5 209.5,252.5 209.5,251.5 209.5,251.5 209.5,251.5 209.5,251.5 209.5,251.5 209.5,250.5 
		210.5,250.5 210.5,250.5 210.5,250.5 210.5,250.5 210.5,250.5 210.5,250.5 210.5,250.5 210.5,250.5 210.5,250.5 211.5,250.5 
		211.5,250.5 211.5,251.5 211.5,251.5 211.5,251.5 211.5,251.5 211.5,251.5 211.5,251.5 211.5,251.5 211.5,251.5 212.5,252.5 
		212.5,252.5 212.5,252.5 212.5,252.5 212.5,252.5 212.5,252.5 212.5,252.5 212.5,252.5 212.5,252.5 212.5,252.5 213.5,252.5 
		213.5,252.5 213.5,252.5 213.5,252.5 213.5,252.5 213.5,252.5 213.5,251.5 213.5,251.5 213.5,251.5 213.5,251.5 214.5,251.5 
		214.5,251.5 214.5,251.5 214.5,251.5 214.5,251.5 214.5,251.5 214.5,250.5 214.5,250.5 214.5,250.5 214.5,250.5 215.5,250.5 
		215.5,250.5 215.5,250.5 215.5,250.5 215.5,250.5 215.5,250.5 215.5,249.5 215.5,249.5 215.5,249.5 216.5,249.5 216.5,249.5 
		216.5,249.5 216.5,249.5 216.5,249.5 216.5,249.5 216.5,249.5 216.5,249.5 216.5,248.5 216.5,248.5 217.5,248.5 217.5,248.5 
		217.5,248.5 217.5,248.5 217.5,248.5 217.5,247.5 217.5,247.5 217.5,247.5 217.5,247.5 217.5,247.5 218.5,246.5 218.5,246.5 
		218.5,246.5 218.5,246.5 218.5,245.5 218.5,245.5 218.5,245.5 218.5,244.5 218.5,243.5 218.5,243.5 219.5,243.5 219.5,242.5 
		219.5,242.5 219.5,241.5 219.5,241.5 219.5,240.5 219.5,240.5 219.5,239.5 219.5,239.5 220.5,238.5 220.5,238.5 220.5,238.5 
		220.5,237.5 220.5,237.5 220.5,236.5 220.5,236.5 220.5,235.5 220.5,235.5 220.5,234.5 221.5,233.5 221.5,233.5 221.5,232.5 
		221.5,231.5 221.5,230.5 221.5,230.5 221.5,229.5 221.5,228.5 221.5,227.5 221.5,226.5 222.5,226.5 222.5,225.5 222.5,224.5 
		222.5,224.5 222.5,224.5 222.5,223.5 222.5,223.5 222.5,223.5 222.5,223.5 222.5,223.5 223.5,223.5 223.5,223.5 223.5,223.5 
		223.5,223.5 223.5,223.5 223.5,223.5 223.5,224.5 223.5,224.5 223.5,225.5 224.5,225.5 224.5,226.5 224.5,226.5 224.5,227.5 
		224.5,227.5 224.5,228.5 224.5,228.5 224.5,228.5 224.5,229.5 224.5,229.5 225.5,230.5 225.5,230.5 225.5,231.5 225.5,231.5 
		225.5,231.5 225.5,232.5 225.5,232.5 225.5,231.5 225.5,231.5 225.5,231.5 226.5,231.5 226.5,231.5 226.5,231.5 226.5,231.5 
		226.5,230.5 226.5,230.5 226.5,229.5 226.5,229.5 226.5,228.5 226.5,228.5 227.5,227.5 227.5,227.5 227.5,226.5 227.5,226.5 
		227.5,225.5 227.5,225.5 227.5,224.5 227.5,224.5 227.5,224.5 228.5,223.5 228.5,223.5 228.5,222.5 228.5,222.5 228.5,221.5 
		228.5,221.5 228.5,220.5 228.5,220.5 228.5,220.5 228.5,219.5 229.5,219.5 229.5,219.5 229.5,218.5 229.5,218.5 229.5,218.5 
		229.5,217.5 229.5,217.5 229.5,217.5 229.5,217.5 229.5,216.5 230.5,216.5 230.5,216.5 230.5,216.5 230.5,216.5 230.5,215.5 
		230.5,215.5 230.5,215.5 230.5,215.5 230.5,215.5 230.5,215.5 231.5,216.5 231.5,216.5 231.5,216.5 231.5,217.5 231.5,217.5 
		231.5,218.5 231.5,218.5 231.5,219.5 231.5,219.5 231.5,220.5 232.5,220.5 232.5,221.5 232.5,221.5 232.5,221.5 232.5,222.5 
		232.5,222.5 232.5,222.5 232.5,222.5 232.5,222.5 233.5,222.5 233.5,222.5 233.5,222.5 233.5,222.5 233.5,222.5 233.5,222.5 
		233.5,222.5 233.5,222.5 233.5,222.5 233.5,222.5 234.5,223.5 234.5,223.5 234.5,223.5 234.5,223.5 234.5,223.5 234.5,224.5 
		234.5,224.5 234.5,225.5 234.5,225.5 234.5,225.5 235.5,226.5 235.5,226.5 235.5,227.5 235.5,228.5 235.5,229.5 235.5,231.5 
		235.5,231.5 235.5,231.5 235.5,231.5 235.5,231.5 236.5,231.5 236.5,232.5 236.5,231.5 236.5,231.5 236.5,231.5 236.5,230.5 
		236.5,230.5 236.5,230.5 236.5,229.5 237.5,229.5 237.5,228.5 237.5,227.5 237.5,227.5 237.5,226.5 237.5,226.5 237.5,225.5 
		237.5,225.5 237.5,224.5 237.5,224.5 238.5,223.5 238.5,222.5 238.5,221.5 238.5,221.5 238.5,220.5 238.5,220.5 238.5,219.5 
		238.5,219.5 238.5,218.5 238.5,217.5 239.5,216.5 239.5,215.5 239.5,214.5 239.5,214.5 239.5,213.5 239.5,212.5 239.5,211.5 
		239.5,211.5 239.5,210.5 239.5,209.5 240.5,209.5 240.5,208.5 240.5,208.5 240.5,208.5 240.5,208.5 240.5,208.5 240.5,208.5 
		240.5,208.5 240.5,208.5 241.5,208.5 241.5,208.5 241.5,209.5 241.5,209.5 241.5,209.5 241.5,209.5 241.5,209.5 241.5,209.5 
		241.5,209.5 241.5,209.5 242.5,209.5 242.5,209.5 242.5,209.5 242.5,209.5 242.5,209.5 242.5,209.5 242.5,209.5 242.5,209.5 
		242.5,209.5 242.5,209.5 243.5,209.5 243.5,210.5 243.5,211.5 243.5,211.5 243.5,212.5 243.5,212.5 243.5,213.5 243.5,213.5 
		243.5,214.5 243.5,214.5 244.5,214.5 244.5,214.5 244.5,214.5 244.5,214.5 244.5,213.5 244.5,213.5 244.5,212.5 244.5,211.5 
		244.5,211.5 244.5,210.5 245.5,209.5 245.5,209.5 245.5,208.5 245.5,208.5 245.5,207.5 245.5,207.5 245.5,206.5 245.5,206.5 
		245.5,205.5 246.5,205.5 246.5,204.5 246.5,204.5 246.5,203.5 246.5,203.5 246.5,202.5 246.5,202.5 246.5,202.5 246.5,202.5 
		246.5,202.5 247.5,202.5 247.5,201.5 247.5,201.5 247.5,201.5 247.5,201.5 247.5,201.5 247.5,200.5 247.5,200.5 247.5,200.5 
		247.5,200.5 248.5,199.5 248.5,199.5 248.5,199.5 248.5,199.5 248.5,199.5 248.5,198.5 248.5,198.5 248.5,198.5 248.5,198.5 
		248.5,198.5 249.5,198.5 249.5,198.5 249.5,198.5 249.5,198.5 249.5,198.5 249.5,198.5 249.5,198.5 249.5,198.5 249.5,199.5 
		250.5,199.5 250.5,199.5 250.5,200.5 250.5,200.5 250.5,201.5 250.5,201.5 250.5,202.5 250.5,202.5 250.5,203.5 250.5,204.5 
		251.5,205.5 251.5,206.5 251.5,207.5 251.5,207.5 251.5,208.5 251.5,209.5 251.5,209.5 251.5,210.5 251.5,211.5 251.5,211.5 
		252.5,212.5 252.5,212.5 252.5,213.5 252.5,215.5 252.5,216.5 252.5,217.5 252.5,218.5 252.5,219.5 252.5,220.5 252.5,221.5 
		253.5,223.5 253.5,223.5 253.5,224.5 253.5,225.5 253.5,225.5 253.5,226.5 253.5,227.5 253.5,227.5 253.5,228.5 254.5,228.5 
		254.5,227.5 254.5,227.5 254.5,227.5 254.5,227.5 254.5,227.5 254.5,227.5 254.5,227.5 254.5,226.5 254.5,226.5 255.5,225.5 
		255.5,224.5 255.5,223.5 255.5,222.5 255.5,222.5 255.5,221.5 255.5,220.5 255.5,219.5 255.5,218.5 255.5,218.5 256.5,217.5 
		256.5,216.5 256.5,215.5 256.5,215.5 256.5,214.5 256.5,214.5 256.5,214.5 256.5,213.5 256.5,213.5 256.5,213.5 257.5,213.5 
		257.5,213.5 257.5,212.5 257.5,212.5 257.5,211.5 257.5,211.5 257.5,211.5 257.5,210.5 257.5,210.5 258.5,210.5 258.5,209.5 
		258.5,209.5 258.5,208.5 258.5,208.5 258.5,207.5 258.5,207.5 258.5,207.5 258.5,206.5 258.5,206.5 259.5,206.5 259.5,205.5 
		259.5,205.5 259.5,205.5 259.5,205.5 259.5,205.5 259.5,205.5 259.5,205.5 259.5,205.5 259.5,204.5 260.5,204.5 260.5,204.5 
		260.5,204.5 260.5,203.5 260.5,203.5 260.5,203.5 260.5,202.5 260.5,202.5 260.5,201.5 260.5,201.5 261.5,201.5 261.5,201.5 
		261.5,201.5 261.5,200.5 261.5,200.5 261.5,200.5 261.5,200.5 261.5,200.5 261.5,200.5 261.5,200.5 262.5,200.5 262.5,199.5 
		262.5,199.5 262.5,199.5 262.5,198.5 262.5,198.5 262.5,198.5 262.5,198.5 262.5,198.5 263.5,197.5 263.5,197.5 263.5,197.5 
		263.5,197.5 263.5,196.5 263.5,196.5 263.5,196.5 263.5,196.5 263.5,196.5 263.5,196.5 264.5,196.5 264.5,196.5 264.5,196.5 
		264.5,196.5 264.5,196.5 264.5,196.5 264.5,197.5 264.5,197.5 264.5,198.5 264.5,198.5 265.5,198.5 265.5,199.5 265.5,199.5 
		265.5,200.5 265.5,201.5 265.5,201.5 265.5,202.5 265.5,202.5 265.5,202.5 265.5,203.5 266.5,203.5 266.5,203.5 266.5,204.5 
		266.5,204.5 266.5,204.5 266.5,204.5 266.5,205.5 266.5,205.5 266.5,205.5 267.5,206.5 267.5,206.5 267.5,206.5 267.5,206.5 
		267.5,207.5 267.5,207.5 267.5,207.5 267.5,207.5 267.5,207.5 267.5,207.5 268.5,207.5 268.5,207.5 268.5,207.5 268.5,207.5 
		268.5,207.5 268.5,207.5 268.5,206.5 268.5,206.5 268.5,206.5 268.5,205.5 269.5,205.5 269.5,205.5 269.5,204.5 269.5,204.5 
		269.5,204.5 269.5,204.5 269.5,204.5 269.5,203.5 269.5,203.5 269.5,203.5 270.5,202.5 270.5,202.5 270.5,202.5 270.5,201.5 
		270.5,201.5 270.5,201.5 270.5,201.5 270.5,201.5 270.5,201.5 271.5,201.5 271.5,201.5 271.5,201.5 271.5,201.5 271.5,201.5 
		271.5,201.5 271.5,202.5 271.5,202.5 271.5,202.5 271.5,203.5 272.5,203.5 272.5,203.5 272.5,204.5 272.5,204.5 272.5,205.5 
		272.5,205.5 272.5,205.5 272.5,205.5 272.5,206.5 272.5,206.5 273.5,206.5 273.5,206.5 273.5,207.5 273.5,207.5 273.5,207.5 
		273.5,207.5 273.5,208.5 273.5,208.5 273.5,208.5 273.5,208.5 274.5,208.5 274.5,208.5 274.5,209.5 274.5,209.5 274.5,209.5 
		274.5,209.5 274.5,210.5 274.5,210.5 274.5,210.5 274.5,210.5 275.5,211.5 275.5,211.5 275.5,211.5 275.5,212.5 275.5,212.5 
		275.5,212.5 275.5,212.5 275.5,213.5 275.5,213.5 276.5,213.5 276.5,214.5 276.5,214.5 276.5,214.5 276.5,215.5 276.5,215.5 
		276.5,216.5 276.5,216.5 276.5,216.5 276.5,216.5 277.5,216.5 277.5,216.5 277.5,216.5 277.5,216.5 277.5,215.5 277.5,215.5 
		277.5,214.5 277.5,214.5 277.5,214.5 277.5,213.5 278.5,213.5 278.5,213.5 278.5,213.5 278.5,212.5 278.5,212.5 278.5,212.5 
		278.5,212.5 278.5,211.5 278.5,211.5 278.5,211.5 279.5,211.5 279.5,211.5 279.5,210.5 279.5,210.5 279.5,210.5 279.5,210.5 
		279.5,210.5 279.5,210.5 279.5,209.5 280.5,209.5 280.5,209.5 280.5,209.5 280.5,209.5 280.5,209.5 280.5,209.5 280.5,209.5 
		280.5,210.5 280.5,210.5 280.5,210.5 281.5,210.5 281.5,210.5 281.5,211.5 281.5,211.5 281.5,211.5 281.5,212.5 281.5,212.5 
		281.5,212.5 281.5,212.5 281.5,212.5 282.5,212.5 282.5,212.5 282.5,212.5 282.5,212.5 282.5,213.5 282.5,213.5 282.5,213.5 
		282.5,214.5 282.5,215.5 282.5,215.5 283.5,216.5 283.5,216.5 283.5,217.5 283.5,217.5 283.5,216.5 283.5,216.5 283.5,216.5 
		283.5,216.5 283.5,216.5 284.5,216.5 284.5,216.5 284.5,216.5 284.5,216.5 284.5,216.5 284.5,215.5 284.5,215.5 284.5,215.5 
		284.5,214.5 284.5,214.5 285.5,213.5 285.5,213.5 285.5,212.5 285.5,212.5 285.5,211.5 285.5,211.5 285.5,211.5 285.5,210.5 
		285.5,210.5 285.5,210.5 286.5,210.5 286.5,209.5 286.5,209.5 286.5,209.5 286.5,208.5 286.5,208.5 286.5,207.5 286.5,207.5 
		286.5,206.5 286.5,206.5 287.5,206.5 287.5,206.5 287.5,205.5 287.5,205.5 287.5,205.5 287.5,204.5 287.5,204.5 287.5,204.5 
		287.5,203.5 288.5,203.5 288.5,203.5 288.5,202.5 288.5,202.5 288.5,202.5 288.5,202.5 288.5,202.5 288.5,202.5 288.5,201.5 
		288.5,201.5 289.5,201.5 289.5,201.5 289.5,201.5 289.5,201.5 289.5,201.5 289.5,201.5 289.5,201.5 289.5,201.5 289.5,201.5 
		289.5,201.5 290.5,201.5 290.5,202.5 290.5,202.5 290.5,202.5 290.5,202.5 290.5,202.5 290.5,202.5 290.5,202.5 290.5,202.5 
		290.5,203.5 291.5,203.5 291.5,203.5 291.5,203.5 291.5,203.5 291.5,203.5 291.5,203.5 291.5,203.5 291.5,203.5 291.5,204.5 
		291.5,204.5 292.5,204.5 292.5,204.5 292.5,204.5 292.5,204.5 292.5,204.5 292.5,204.5 292.5,204.5 292.5,204.5 292.5,204.5 
		293.5,204.5 293.5,203.5 293.5,203.5 293.5,202.5 293.5,202.5 293.5,202.5 293.5,201.5 293.5,201.5 293.5,200.5 293.5,199.5 
		294.5,199.5 294.5,199.5 294.5,199.5 294.5,199.5 294.5,198.5 294.5,198.5 294.5,198.5 294.5,198.5 294.5,197.5 294.5,197.5 
		295.5,197.5 295.5,197.5 295.5,196.5 295.5,196.5 295.5,195.5 295.5,195.5 295.5,195.5 295.5,195.5 295.5,195.5 295.5,195.5 
		296.5,195.5 296.5,195.5 296.5,195.5 296.5,195.5 296.5,195.5 296.5,195.5 296.5,195.5 296.5,195.5 296.5,195.5 297.5,194.5 
		297.5,194.5 297.5,194.5 297.5,194.5 297.5,194.5 297.5,194.5 297.5,194.5 297.5,194.5 297.5,193.5 297.5,193.5 298.5,193.5 
		298.5,193.5 298.5,192.5 298.5,192.5 298.5,192.5 298.5,192.5 298.5,191.5 298.5,191.5 298.5,191.5 298.5,191.5 299.5,191.5 
		299.5,191.5 299.5,190.5 299.5,190.5 299.5,190.5 299.5,190.5 299.5,190.5 299.5,190.5 299.5,190.5 299.5,190.5 300.5,190.5 
		300.5,189.5 300.5,189.5 300.5,189.5 300.5,189.5 300.5,189.5 300.5,189.5 300.5,189.5 300.5,189.5 301.5,188.5 301.5,188.5 
		301.5,188.5 301.5,188.5 301.5,188.5 301.5,188.5 301.5,188.5 301.5,187.5 301.5,187.5 301.5,187.5 302.5,187.5 302.5,187.5 
		302.5,187.5 302.5,186.5 302.5,186.5 302.5,186.5 302.5,186.5 302.5,186.5 302.5,186.5 302.5,185.5 303.5,185.5 303.5,185.5 
		303.5,185.5 303.5,184.5 303.5,184.5 303.5,184.5 303.5,183.5 303.5,183.5 303.5,183.5 303.5,182.5 304.5,182.5 304.5,182.5 
		304.5,182.5 304.5,181.5 304.5,181.5 304.5,181.5 304.5,180.5 304.5,180.5 304.5,180.5 304.5,180.5 305.5,180.5 305.5,179.5 
		305.5,179.5 305.5,178.5 305.5,178.5 305.5,178.5 305.5,178.5 305.5,177.5 305.5,177.5 306.5,177.5 306.5,177.5 306.5,177.5 
		306.5,176.5 306.5,176.5 306.5,176.5 306.5,176.5 306.5,176.5 306.5,175.5 306.5,175.5 307.5,175.5 307.5,175.5 307.5,174.5 
		307.5,174.5 307.5,173.5 307.5,173.5 307.5,172.5 307.5,172.5 307.5,171.5 307.5,171.5 308.5,171.5 308.5,172.5 308.5,172.5 
		308.5,172.5 308.5,172.5 308.5,172.5 308.5,172.5 308.5,172.5 308.5,172.5 308.5,172.5 309.5,172.5 309.5,172.5 309.5,172.5 
		309.5,172.5 309.5,173.5 309.5,173.5 309.5,173.5 309.5,173.5 309.5,174.5 310.5,174.5 310.5,174.5 310.5,174.5 310.5,175.5 
		310.5,175.5 310.5,175.5 310.5,176.5 310.5,176.5 310.5,176.5 310.5,177.5 311.5,177.5 311.5,178.5 311.5,178.5 311.5,179.5 
		311.5,179.5 311.5,180.5 311.5,180.5 311.5,181.5 311.5,181.5 311.5,182.5 312.5,182.5 312.5,182.5 312.5,183.5 312.5,183.5 
		312.5,184.5 312.5,185.5 312.5,185.5 312.5,186.5 312.5,186.5 312.5,187.5 313.5,187.5 313.5,188.5 313.5,188.5 313.5,188.5 
		313.5,189.5 313.5,189.5 313.5,189.5 313.5,190.5 313.5,190.5 314.5,190.5 314.5,191.5 314.5,191.5 314.5,191.5 314.5,191.5 
		314.5,191.5 314.5,192.5 314.5,192.5 314.5,192.5 314.5,192.5 315.5,192.5 315.5,193.5 315.5,193.5 315.5,194.5 315.5,194.5 
		315.5,194.5 315.5,195.5 315.5,195.5 315.5,195.5 315.5,196.5 316.5,196.5 316.5,196.5 316.5,197.5 316.5,197.5 316.5,197.5 
		316.5,197.5 316.5,198.5 316.5,198.5 316.5,198.5 316.5,199.5 317.5,199.5 317.5,199.5 317.5,199.5 317.5,200.5 317.5,200.5 
		317.5,200.5 317.5,201.5 317.5,201.5 317.5,201.5 318.5,201.5 318.5,202.5 318.5,202.5 318.5,202.5 318.5,202.5 318.5,202.5 
		318.5,202.5 318.5,201.5 318.5,201.5 318.5,200.5 319.5,200.5 319.5,199.5 319.5,199.5 319.5,198.5 319.5,198.5 319.5,197.5 
		319.5,197.5 319.5,197.5 319.5,196.5 319.5,196.5 320.5,195.5 320.5,195.5 320.5,195.5 320.5,194.5 320.5,194.5 320.5,194.5 
		320.5,193.5 320.5,193.5 320.5,193.5 320.5,193.5 321.5,192.5 321.5,192.5 321.5,192.5 321.5,191.5 321.5,191.5 321.5,190.5 
		321.5,190.5 321.5,189.5 321.5,188.5 321.5,188.5 322.5,187.5 322.5,187.5 322.5,186.5 322.5,185.5 322.5,185.5 322.5,184.5 
		322.5,183.5 322.5,183.5 322.5,182.5 323.5,182.5 323.5,181.5 323.5,181.5 323.5,180.5 323.5,180.5 323.5,180.5 323.5,179.5 
		323.5,178.5 323.5,177.5 323.5,177.5 324.5,177.5 324.5,177.5 324.5,177.5 324.5,176.5 324.5,176.5 324.5,177.5 324.5,177.5 
		324.5,177.5 324.5,177.5 324.5,177.5 325.5,177.5 325.5,177.5 325.5,177.5 325.5,177.5 325.5,177.5 325.5,177.5 325.5,177.5 
		325.5,177.5 325.5,177.5 325.5,177.5 326.5,177.5 326.5,177.5 326.5,177.5 326.5,177.5 326.5,178.5 326.5,178.5 326.5,179.5 
		326.5,180.5 326.5,180.5 327.5,181.5 327.5,183.5 327.5,183.5 327.5,184.5 327.5,185.5 327.5,186.5 327.5,187.5 327.5,187.5 
		327.5,188.5 327.5,189.5 328.5,190.5 328.5,190.5 328.5,190.5 328.5,190.5 328.5,191.5 328.5,190.5 328.5,191.5 328.5,191.5 
		328.5,191.5 328.5,191.5 329.5,191.5 329.5,191.5 329.5,191.5 329.5,190.5 329.5,190.5 329.5,190.5 329.5,190.5 329.5,191.5 
		329.5,190.5 329.5,190.5 330.5,191.5 330.5,191.5 330.5,191.5 330.5,192.5 330.5,192.5 330.5,193.5 330.5,194.5 330.5,194.5 
		330.5,194.5 331.5,194.5 331.5,194.5 331.5,195.5 331.5,194.5 331.5,194.5 331.5,193.5 331.5,193.5 331.5,193.5 331.5,193.5 
		331.5,193.5 332.5,193.5 332.5,193.5 332.5,193.5 332.5,193.5 332.5,193.5 332.5,193.5 332.5,193.5 332.5,193.5 332.5,193.5 
		332.5,193.5 333.5,193.5 333.5,193.5 333.5,193.5 333.5,194.5 333.5,194.5 333.5,194.5 333.5,194.5 333.5,194.5 333.5,194.5 
		333.5,194.5 334.5,195.5 334.5,195.5 334.5,195.5 334.5,195.5 334.5,195.5 334.5,195.5 334.5,196.5 334.5,196.5 334.5,196.5 
		334.5,197.5 335.5,197.5 335.5,197.5 335.5,197.5 335.5,197.5 335.5,198.5 335.5,198.5 335.5,198.5 335.5,198.5 335.5,199.5 
		336.5,199.5 336.5,200.5 336.5,200.5 336.5,200.5 336.5,201.5 336.5,201.5 336.5,201.5 336.5,202.5 336.5,202.5 336.5,202.5 
		337.5,202.5 337.5,203.5 337.5,203.5 337.5,203.5 337.5,203.5 337.5,204.5 337.5,204.5 337.5,204.5 337.5,204.5 337.5,205.5 
		338.5,206.5 338.5,206.5 338.5,206.5 338.5,207.5 338.5,207.5 338.5,207.5 338.5,208.5 338.5,208.5 338.5,209.5 338.5,209.5 
		339.5,209.5 339.5,210.5 339.5,210.5 339.5,211.5 339.5,211.5 339.5,211.5 339.5,211.5 339.5,211.5 339.5,211.5 340.5,210.5 
		340.5,210.5 340.5,210.5 340.5,210.5 340.5,210.5 340.5,209.5 340.5,209.5 340.5,209.5 340.5,209.5 340.5,209.5 341.5,209.5 
		341.5,209.5 341.5,209.5 341.5,209.5 341.5,209.5 341.5,209.5 341.5,209.5 341.5,209.5 341.5,209.5 341.5,209.5 342.5,209.5 
		342.5,209.5 342.5,209.5 342.5,209.5 342.5,210.5 342.5,210.5 342.5,210.5 342.5,210.5 342.5,210.5 342.5,211.5 343.5,211.5 
		343.5,211.5 343.5,211.5 343.5,211.5 343.5,211.5 343.5,211.5 343.5,211.5 343.5,212.5 343.5,212.5 344.5,212.5 344.5,212.5 
		344.5,212.5 344.5,212.5 344.5,213.5 344.5,213.5 344.5,213.5 344.5,213.5 344.5,214.5 344.5,214.5 345.5,214.5 345.5,214.5 
		345.5,214.5 345.5,214.5 345.5,215.5 345.5,215.5 345.5,215.5 345.5,215.5 345.5,216.5 345.5,216.5 346.5,216.5 346.5,216.5 
		346.5,216.5 346.5,216.5 346.5,216.5 346.5,217.5 346.5,217.5 346.5,217.5 346.5,217.5 346.5,217.5 347.5,217.5 347.5,218.5 
		347.5,218.5 347.5,218.5 347.5,218.5 347.5,219.5 347.5,219.5 347.5,219.5 347.5,219.5 348.5,219.5 348.5,219.5 348.5,220.5 
		348.5,220.5 348.5,220.5 348.5,220.5 348.5,220.5 348.5,219.5 348.5,219.5 348.5,219.5 349.5,218.5 349.5,218.5 349.5,218.5 
		349.5,217.5 349.5,217.5 349.5,216.5 349.5,216.5 349.5,215.5 349.5,215.5 349.5,215.5 350.5,216.5 350.5,216.5 350.5,216.5 
		350.5,217.5 350.5,217.5 350.5,218.5 350.5,218.5 350.5,218.5 350.5,218.5 350.5,218.5 351.5,218.5 351.5,217.5 351.5,217.5 
		351.5,216.5 351.5,216.5 351.5,215.5 351.5,215.5 351.5,215.5 351.5,216.5 351.5,216.5 352.5,216.5 352.5,217.5 352.5,217.5 
		352.5,217.5 352.5,217.5 352.5,218.5 352.5,218.5 352.5,218.5 352.5,217.5 353.5,217.5 353.5,218.5 353.5,218.5 353.5,219.5 
		353.5,219.5 353.5,220.5 353.5,220.5 353.5,221.5 353.5,221.5 353.5,222.5 354.5,222.5 354.5,222.5 354.5,223.5 354.5,224.5 
		354.5,225.5 354.5,225.5 354.5,226.5 354.5,226.5 354.5,227.5 354.5,227.5 355.5,227.5 355.5,227.5 355.5,227.5 355.5,227.5 
		355.5,227.5 355.5,227.5 355.5,227.5 355.5,227.5 355.5,227.5 355.5,227.5 356.5,227.5 356.5,227.5 356.5,227.5 356.5,227.5 
		356.5,226.5 356.5,226.5 356.5,226.5 356.5,226.5 356.5,226.5 357.5,226.5 357.5,226.5 357.5,225.5 357.5,225.5 357.5,225.5 
		357.5,225.5 357.5,225.5 357.5,225.5 357.5,224.5 357.5,224.5 358.5,224.5 358.5,224.5 358.5,224.5 358.5,224.5 358.5,224.5 
		358.5,224.5 358.5,224.5 358.5,223.5 358.5,223.5 358.5,223.5 359.5,223.5 359.5,223.5 359.5,223.5 359.5,223.5 359.5,223.5 
		359.5,223.5 359.5,222.5 359.5,222.5 359.5,222.5 359.5,222.5 360.5,222.5 360.5,221.5 360.5,221.5 360.5,221.5 360.5,221.5 
		360.5,221.5 360.5,220.5 360.5,220.5 360.5,220.5 361.5,220.5 361.5,220.5 361.5,220.5 361.5,220.5 361.5,219.5 361.5,219.5 
		361.5,219.5 361.5,219.5 361.5,219.5 361.5,219.5 362.5,219.5 362.5,218.5 362.5,218.5 362.5,218.5 362.5,217.5 362.5,217.5 
		362.5,216.5 362.5,216.5 362.5,215.5 362.5,215.5 363.5,214.5 363.5,214.5 363.5,213.5 363.5,213.5 363.5,212.5 363.5,212.5 
		363.5,211.5 363.5,211.5 363.5,211.5 363.5,210.5 364.5,210.5 364.5,210.5 364.5,210.5 364.5,211.5 364.5,211.5 364.5,211.5 
		364.5,211.5 364.5,211.5 364.5,212.5 364.5,212.5 365.5,212.5 365.5,212.5 365.5,212.5 365.5,212.5 365.5,213.5 365.5,212.5 
		365.5,212.5 365.5,213.5 365.5,213.5 366.5,213.5 366.5,213.5 366.5,214.5 366.5,214.5 366.5,214.5 366.5,214.5 366.5,214.5 
		366.5,215.5 366.5,215.5 366.5,215.5 367.5,216.5 367.5,216.5 367.5,216.5 367.5,217.5 367.5,217.5 367.5,217.5 367.5,217.5 
		367.5,217.5 367.5,217.5 367.5,217.5 368.5,217.5 368.5,218.5 368.5,218.5 368.5,218.5 368.5,219.5 368.5,219.5 368.5,220.5 
		368.5,220.5 368.5,221.5 368.5,222.5 369.5,222.5 369.5,223.5 369.5,223.5 369.5,224.5 369.5,224.5 369.5,224.5 369.5,225.5 
		369.5,225.5 369.5,225.5 370.5,226.5 370.5,226.5 370.5,226.5 370.5,227.5 370.5,227.5 370.5,227.5 370.5,228.5 370.5,228.5 
		370.5,228.5 370.5,228.5 371.5,228.5 371.5,228.5 371.5,229.5 371.5,229.5 371.5,229.5 371.5,229.5 371.5,229.5 371.5,229.5 
		371.5,230.5 371.5,230.5 372.5,230.5 372.5,230.5 372.5,230.5 372.5,230.5 372.5,230.5 372.5,230.5 372.5,230.5 372.5,230.5 
		372.5,230.5 372.5,230.5 373.5,230.5 373.5,230.5 373.5,230.5 373.5,230.5 373.5,230.5 373.5,230.5 373.5,230.5 373.5,230.5 
		373.5,230.5 374.5,230.5 374.5,231.5 374.5,231.5 374.5,231.5 374.5,231.5 374.5,231.5 374.5,231.5 374.5,231.5 374.5,231.5 
		374.5,231.5 375.5,231.5 375.5,231.5 375.5,231.5 375.5,231.5 375.5,231.5 375.5,231.5 375.5,231.5 375.5,231.5 375.5,230.5 
		375.5,230.5 376.5,230.5 376.5,230.5 376.5,230.5 376.5,230.5 376.5,230.5 376.5,230.5 376.5,230.5 376.5,230.5 376.5,229.5 
		376.5,229.5 377.5,229.5 377.5,229.5 377.5,229.5 377.5,229.5 377.5,229.5 377.5,229.5 377.5,229.5 377.5,229.5 377.5,229.5 
		378.5,228.5 378.5,228.5 378.5,228.5 378.5,228.5 378.5,228.5 378.5,228.5 378.5,229.5 378.5,229.5 378.5,229.5 378.5,229.5 
		379.5,229.5 379.5,229.5 379.5,230.5 379.5,230.5 379.5,230.5 379.5,230.5 379.5,230.5 379.5,230.5 379.5,230.5 379.5,231.5 
		380.5,231.5 380.5,231.5 380.5,231.5 380.5,231.5 380.5,232.5 380.5,232.5 380.5,232.5 380.5,232.5 380.5,233.5 380.5,233.5 
		381.5,233.5 381.5,233.5 381.5,233.5 381.5,233.5 381.5,233.5 381.5,233.5 381.5,234.5 381.5,234.5 381.5,234.5 381.5,234.5 
		382.5,234.5 382.5,234.5 382.5,234.5 382.5,234.5 382.5,234.5 382.5,234.5 382.5,234.5 382.5,234.5 382.5,234.5 383.5,234.5 
		383.5,234.5 383.5,234.5 383.5,234.5 383.5,233.5 383.5,233.5 383.5,234.5 383.5,233.5 383.5,233.5 383.5,233.5 384.5,232.5 
		384.5,232.5 384.5,231.5 384.5,231.5 384.5,230.5 384.5,230.5 384.5,229.5 384.5,228.5 384.5,228.5 384.5,227.5 385.5,227.5 
		385.5,227.5 385.5,227.5 385.5,227.5 385.5,227.5 385.5,227.5 385.5,226.5 385.5,226.5 385.5,226.5 385.5,226.5 386.5,226.5 
		386.5,226.5 386.5,225.5 386.5,225.5 386.5,225.5 386.5,225.5 386.5,224.5 386.5,224.5 386.5,224.5 387.5,223.5 387.5,223.5 
		387.5,223.5 387.5,223.5 387.5,222.5 387.5,222.5 387.5,221.5 387.5,221.5 387.5,220.5 387.5,220.5 388.5,220.5 388.5,219.5 
		388.5,219.5 388.5,218.5 388.5,218.5 388.5,218.5 388.5,217.5 388.5,217.5 388.5,217.5 388.5,217.5 389.5,217.5 389.5,217.5 
		389.5,217.5 389.5,217.5 389.5,217.5 389.5,217.5 389.5,217.5 389.5,217.5 389.5,217.5 389.5,217.5 390.5,217.5 390.5,217.5 
		390.5,217.5 390.5,217.5 390.5,217.5 390.5,217.5 390.5,217.5 390.5,217.5 390.5,217.5 391.5,218.5 391.5,218.5 391.5,218.5 
		391.5,218.5 391.5,219.5 391.5,219.5 391.5,219.5 391.5,219.5 391.5,219.5 391.5,220.5 392.5,220.5 392.5,220.5 392.5,220.5 
		392.5,220.5 392.5,220.5 392.5,220.5 392.5,221.5 392.5,221.5 392.5,221.5 392.5,221.5 393.5,221.5 393.5,221.5 393.5,222.5 
		393.5,222.5 393.5,222.5 393.5,222.5 393.5,222.5 393.5,222.5 393.5,222.5 393.5,222.5 394.5,222.5 394.5,223.5 394.5,223.5 
		394.5,223.5 394.5,223.5 394.5,223.5 394.5,223.5 394.5,224.5 394.5,224.5 395.5,224.5 395.5,224.5 395.5,224.5 395.5,224.5 
		395.5,224.5 395.5,224.5 395.5,225.5 395.5,225.5 395.5,225.5 395.5,225.5 396.5,225.5 396.5,225.5 396.5,225.5 396.5,225.5 
		396.5,225.5 396.5,225.5 396.5,225.5 396.5,225.5 396.5,225.5 396.5,225.5 397.5,225.5 397.5,225.5 397.5,225.5 397.5,225.5 
		397.5,226.5 397.5,226.5 397.5,226.5 397.5,226.5 397.5,227.5 397.5,227.5 398.5,227.5 398.5,227.5 398.5,227.5 398.5,227.5 
		398.5,227.5 398.5,227.5 398.5,227.5 398.5,227.5 398.5,228.5 398.5,228.5 399.5,228.5 399.5,228.5 399.5,228.5 399.5,228.5 
		399.5,228.5 399.5,228.5 399.5,229.5 399.5,229.5 399.5,229.5 400.5,229.5 400.5,229.5 400.5,229.5 400.5,229.5 400.5,229.5 
		400.5,229.5 400.5,229.5 400.5,229.5 400.5,229.5 400.5,229.5 401.5,229.5 401.5,229.5 401.5,229.5 401.5,228.5 401.5,228.5 
		401.5,228.5 401.5,228.5 401.5,227.5 401.5,227.5 401.5,227.5 402.5,227.5 402.5,227.5 402.5,227.5 402.5,227.5 402.5,226.5 
		402.5,226.5 402.5,226.5 402.5,225.5 402.5,224.5 402.5,224.5 403.5,224.5 403.5,224.5 403.5,224.5 403.5,224.5 403.5,224.5 
		403.5,224.5 403.5,224.5 403.5,224.5 403.5,223.5 404.5,223.5 404.5,223.5 404.5,223.5 404.5,222.5 404.5,222.5 404.5,222.5 
		404.5,221.5 404.5,221.5 404.5,221.5 404.5,220.5 405.5,220.5 405.5,220.5 405.5,219.5 405.5,219.5 405.5,219.5 405.5,219.5 
		405.5,219.5 405.5,219.5 405.5,219.5 405.5,219.5 406.5,219.5 406.5,219.5 406.5,219.5 406.5,219.5 406.5,219.5 406.5,219.5 
		406.5,219.5 406.5,219.5 406.5,219.5 406.5,219.5 407.5,219.5 407.5,219.5 407.5,219.5 407.5,220.5 407.5,220.5 407.5,219.5 
		407.5,219.5 407.5,219.5 407.5,219.5 408.5,219.5 408.5,219.5 408.5,219.5 408.5,219.5 408.5,219.5 408.5,220.5 408.5,220.5 
		408.5,220.5 408.5,221.5 408.5,221.5 409.5,221.5 409.5,221.5 409.5,221.5 409.5,221.5 409.5,221.5 409.5,221.5 409.5,221.5 
		409.5,221.5 409.5,221.5 409.5,221.5 410.5,221.5 410.5,221.5 410.5,221.5 410.5,221.5 410.5,221.5 410.5,221.5 410.5,221.5 
		410.5,221.5 410.5,221.5 410.5,221.5 411.5,221.5 411.5,221.5 411.5,221.5 411.5,221.5 411.5,221.5 411.5,221.5 411.5,221.5 
		411.5,221.5 411.5,221.5 411.5,221.5 412.5,221.5 412.5,220.5 412.5,220.5 412.5,220.5 412.5,220.5 412.5,220.5 412.5,220.5 
		412.5,220.5 412.5,220.5 413.5,220.5 413.5,220.5 413.5,220.5 413.5,220.5 413.5,219.5 413.5,219.5 413.5,219.5 413.5,219.5 
		413.5,218.5 413.5,218.5 414.5,218.5 414.5,217.5 414.5,217.5 414.5,216.5 414.5,216.5 414.5,216.5 414.5,216.5 414.5,216.5 
		414.5,216.5 414.5,215.5 415.5,215.5 415.5,215.5 415.5,215.5 415.5,215.5 415.5,215.5 415.5,214.5 415.5,214.5 415.5,214.5 
		415.5,214.5 415.5,214.5 416.5,214.5 416.5,214.5 416.5,214.5 416.5,214.5 416.5,215.5 416.5,216.5 416.5,217.5 416.5,218.5 
		416.5,218.5 417.5,218.5 417.5,219.5 417.5,219.5 417.5,219.5 417.5,219.5 417.5,219.5 417.5,219.5 417.5,219.5 417.5,219.5 
		417.5,219.5 418.5,219.5 418.5,219.5 418.5,219.5 418.5,219.5 418.5,219.5 418.5,219.5 418.5,219.5 418.5,218.5 418.5,218.5 
		418.5,218.5 419.5,218.5 419.5,218.5 419.5,218.5 419.5,218.5 419.5,218.5 419.5,218.5 419.5,218.5 419.5,218.5 419.5,218.5 
		419.5,218.5 420.5,218.5 420.5,218.5 420.5,218.5 420.5,218.5 420.5,218.5 420.5,218.5 420.5,218.5 420.5,218.5 420.5,218.5 
		421.5,218.5 421.5,218.5 421.5,218.5 421.5,218.5 421.5,218.5 421.5,218.5 421.5,218.5 421.5,218.5 421.5,218.5 421.5,217.5 
		422.5,217.5 422.5,217.5 422.5,217.5 422.5,217.5 422.5,217.5 422.5,216.5 422.5,216.5 422.5,215.5 422.5,215.5 422.5,214.5 
		423.5,214.5 423.5,213.5 423.5,213.5 423.5,212.5 423.5,212.5 423.5,212.5 423.5,211.5 423.5,211.5 423.5,210.5 423.5,210.5 
		424.5,210.5 424.5,209.5 424.5,209.5 424.5,209.5 424.5,209.5 424.5,208.5 424.5,208.5 424.5,208.5 424.5,207.5 425.5,207.5 
		425.5,207.5 425.5,206.5 425.5,206.5 425.5,206.5 425.5,205.5 425.5,205.5 425.5,204.5 425.5,204.5 425.5,204.5 426.5,204.5 
		426.5,203.5 426.5,203.5 426.5,203.5 426.5,203.5 426.5,203.5 426.5,204.5 426.5,204.5 426.5,204.5 426.5,205.5 427.5,205.5 
		427.5,205.5 427.5,206.5 427.5,206.5 427.5,207.5 427.5,207.5 427.5,207.5 427.5,207.5 427.5,207.5 427.5,207.5 428.5,207.5 
		428.5,206.5 428.5,206.5 428.5,205.5 428.5,205.5 428.5,205.5 428.5,205.5 428.5,205.5 428.5,205.5 428.5,205.5 429.5,205.5 
		429.5,206.5 429.5,206.5 429.5,206.5 429.5,207.5 429.5,207.5 429.5,207.5 429.5,207.5 429.5,207.5 430.5,207.5 430.5,206.5 
		430.5,206.5 430.5,206.5 430.5,205.5 430.5,205.5 430.5,205.5 430.5,205.5 430.5,204.5 430.5,204.5 431.5,204.5 431.5,204.5 
		431.5,203.5 431.5,203.5 431.5,203.5 431.5,202.5 431.5,202.5 431.5,202.5 431.5,201.5 431.5,201.5 432.5,201.5 432.5,200.5 
		432.5,200.5 432.5,200.5 432.5,200.5 432.5,200.5 432.5,199.5 432.5,199.5 432.5,199.5 432.5,198.5 433.5,198.5 433.5,198.5 
		433.5,198.5 433.5,197.5 433.5,197.5 433.5,197.5 433.5,197.5 433.5,196.5 433.5,196.5 434.5,196.5 434.5,195.5 434.5,195.5 
		434.5,194.5 434.5,194.5 434.5,194.5 434.5,193.5 434.5,193.5 434.5,192.5 434.5,192.5 435.5,191.5 435.5,190.5 435.5,189.5 
		435.5,188.5 435.5,187.5 435.5,186.5 435.5,185.5 435.5,185.5 435.5,185.5 435.5,185.5 436.5,185.5 436.5,185.5 436.5,185.5 
		436.5,185.5 436.5,185.5 436.5,185.5 436.5,185.5 436.5,185.5 436.5,185.5 436.5,185.5 437.5,185.5 437.5,185.5 437.5,185.5 
		437.5,185.5 437.5,185.5 437.5,185.5 437.5,185.5 437.5,185.5 437.5,185.5 438.5,185.5 438.5,185.5 438.5,186.5 438.5,186.5 
		438.5,186.5 438.5,186.5 438.5,187.5 438.5,187.5 438.5,187.5 438.5,188.5 439.5,188.5 439.5,189.5 439.5,190.5 439.5,190.5 
		439.5,191.5 439.5,191.5 439.5,192.5 439.5,193.5 439.5,194.5 439.5,195.5 440.5,197.5 440.5,198.5 440.5,199.5 440.5,201.5 
		440.5,202.5 440.5,203.5 440.5,203.5 440.5,203.5 440.5,202.5 440.5,202.5 441.5,201.5 441.5,201.5 441.5,200.5 441.5,200.5 
		441.5,199.5 441.5,199.5 441.5,199.5 441.5,199.5 441.5,199.5 441.5,199.5 442.5,198.5 442.5,198.5 442.5,198.5 442.5,199.5 
		442.5,198.5 442.5,198.5 442.5,198.5 442.5,198.5 442.5,198.5 443.5,198.5 443.5,197.5 443.5,197.5 443.5,196.5 443.5,195.5 
		443.5,195.5 443.5,194.5 443.5,193.5 443.5,192.5 443.5,192.5 444.5,190.5 444.5,189.5 444.5,188.5 444.5,188.5 444.5,188.5 
		444.5,188.5 444.5,188.5 444.5,188.5 444.5,188.5 444.5,188.5 445.5,188.5 445.5,189.5 445.5,189.5 445.5,189.5 445.5,189.5 
		445.5,189.5 445.5,189.5 445.5,189.5 445.5,190.5 445.5,190.5 446.5,190.5 446.5,190.5 446.5,190.5 446.5,190.5 446.5,190.5 
		446.5,190.5 446.5,190.5 446.5,190.5 446.5,190.5 447.5,190.5 447.5,190.5 447.5,191.5 447.5,191.5 447.5,192.5 447.5,193.5 
		447.5,194.5 447.5,195.5 447.5,195.5 447.5,196.5 448.5,196.5 448.5,196.5 448.5,197.5 448.5,197.5 448.5,197.5 448.5,197.5 
		448.5,197.5 448.5,198.5 448.5,198.5 448.5,198.5 449.5,198.5 449.5,198.5 449.5,198.5 449.5,199.5 449.5,200.5 449.5,200.5 
		449.5,201.5 449.5,201.5 449.5,201.5 449.5,201.5 450.5,201.5 450.5,201.5 450.5,201.5 450.5,201.5 450.5,201.5 450.5,201.5 
		450.5,201.5 450.5,201.5 450.5,200.5 451.5,200.5 451.5,200.5 451.5,200.5 451.5,200.5 451.5,200.5 451.5,200.5 451.5,200.5 
		451.5,200.5 451.5,200.5 451.5,200.5 452.5,200.5 452.5,199.5 452.5,199.5 452.5,200.5 452.5,200.5 452.5,200.5 452.5,199.5 
		452.5,198.5 452.5,197.5 452.5,197.5 453.5,197.5 453.5,196.5 453.5,196.5 453.5,196.5 453.5,195.5 453.5,194.5 453.5,193.5 
		453.5,192.5 453.5,192.5 453.5,192.5 454.5,192.5 454.5,192.5 454.5,192.5 454.5,191.5 454.5,191.5 454.5,191.5 454.5,190.5 
		454.5,190.5 454.5,190.5 455.5,190.5 455.5,189.5 455.5,189.5 455.5,189.5 455.5,189.5 455.5,188.5 455.5,188.5 455.5,188.5 
		455.5,187.5 455.5,187.5 456.5,187.5 456.5,187.5 456.5,186.5 456.5,186.5 456.5,186.5 456.5,186.5 456.5,186.5 456.5,186.5 
		456.5,186.5 456.5,185.5 457.5,185.5 457.5,185.5 457.5,185.5 457.5,185.5 457.5,185.5 457.5,184.5 457.5,183.5 457.5,182.5 
		457.5,181.5 457.5,180.5 458.5,179.5 458.5,178.5 458.5,177.5 458.5,176.5 458.5,176.5 458.5,175.5 458.5,174.5 458.5,174.5 
		458.5,174.5 458.5,174.5 459.5,174.5 459.5,174.5 459.5,174.5 459.5,174.5 459.5,174.5 459.5,174.5 459.5,174.5 459.5,174.5 
		459.5,174.5 460.5,174.5 460.5,173.5 460.5,173.5 460.5,172.5 460.5,172.5 460.5,171.5 460.5,171.5 460.5,171.5 460.5,171.5 
		460.5,172.5 461.5,173.5 461.5,175.5 461.5,176.5 461.5,178.5 461.5,179.5 461.5,180.5 461.5,181.5 461.5,182.5 461.5,184.5 
		461.5,185.5 462.5,186.5 462.5,186.5 462.5,187.5 462.5,187.5 462.5,188.5 462.5,188.5 462.5,189.5 462.5,189.5 462.5,189.5 
		462.5,189.5 463.5,189.5 463.5,189.5 463.5,189.5 463.5,189.5 463.5,189.5 463.5,189.5 463.5,189.5 463.5,188.5 463.5,188.5 
		464.5,188.5 464.5,188.5 464.5,187.5 464.5,187.5 464.5,187.5 464.5,187.5 464.5,187.5 464.5,187.5 464.5,187.5 464.5,187.5 
		465.5,187.5 465.5,187.5 465.5,187.5 465.5,186.5 465.5,186.5 465.5,186.5 465.5,186.5 465.5,186.5 465.5,186.5 465.5,185.5 
		466.5,185.5 466.5,186.5 466.5,185.5 466.5,185.5 466.5,185.5 466.5,185.5 466.5,184.5 466.5,184.5 466.5,184.5 466.5,184.5 
		467.5,184.5 467.5,184.5 467.5,184.5 467.5,184.5 467.5,184.5 467.5,183.5 467.5,183.5 467.5,183.5 467.5,184.5 468.5,184.5 
		468.5,184.5 468.5,184.5 468.5,185.5 468.5,185.5 468.5,185.5 468.5,185.5 468.5,185.5 468.5,185.5 468.5,185.5 469.5,184.5 
		469.5,184.5 469.5,184.5 469.5,183.5 469.5,183.5 469.5,183.5 469.5,183.5 469.5,182.5 469.5,182.5 469.5,182.5 470.5,183.5 
		470.5,183.5 470.5,182.5 470.5,182.5 470.5,182.5 470.5,181.5 470.5,181.5 470.5,181.5 470.5,181.5 470.5,181.5 471.5,181.5 
		471.5,182.5 471.5,182.5 471.5,182.5 471.5,182.5 471.5,182.5 471.5,182.5 471.5,182.5 471.5,181.5 471.5,181.5 472.5,181.5 
		472.5,181.5 472.5,180.5 472.5,180.5 472.5,180.5 472.5,179.5 472.5,178.5 472.5,178.5 472.5,178.5 473.5,177.5 473.5,177.5 
		473.5,177.5 473.5,176.5 473.5,176.5 473.5,176.5 473.5,175.5 473.5,175.5 473.5,175.5 473.5,174.5 474.5,174.5 474.5,173.5 
		474.5,172.5 474.5,171.5 474.5,170.5 474.5,168.5 474.5,167.5 474.5,166.5 474.5,164.5 474.5,162.5 475.5,161.5 475.5,160.5 
		475.5,159.5 475.5,158.5 475.5,157.5 475.5,158.5 475.5,158.5 475.5,157.5 475.5,155.5 475.5,154.5 476.5,153.5 476.5,152.5 
		476.5,151.5 476.5,150.5 476.5,149.5 476.5,148.5 476.5,147.5 476.5,146.5 476.5,145.5 477.5,144.5 477.5,143.5 477.5,143.5 
		477.5,142.5 477.5,141.5 477.5,140.5 477.5,140.5 477.5,139.5 477.5,138.5 477.5,138.5 478.5,137.5 478.5,137.5 478.5,136.5 
		478.5,136.5 478.5,135.5 478.5,135.5 478.5,134.5 478.5,133.5 478.5,133.5 478.5,133.5 479.5,133.5 479.5,132.5 479.5,131.5 
		479.5,131.5 479.5,130.5 479.5,130.5 479.5,129.5 479.5,129.5 479.5,128.5 479.5,127.5 480.5,127.5 480.5,126.5 480.5,125.5 
		480.5,125.5 480.5,124.5 480.5,123.5 480.5,122.5 480.5,122.5 480.5,121.5 481.5,121.5 481.5,120.5 481.5,119.5 481.5,119.5 
		481.5,118.5 481.5,118.5 481.5,117.5 481.5,117.5 481.5,116.5 481.5,116.5 482.5,116.5 482.5,115.5 482.5,115.5 482.5,114.5 
		482.5,114.5 482.5,113.5 482.5,113.5 482.5,112.5 482.5,112.5 482.5,111.5 483.5,111.5 483.5,110.5 483.5,110.5 483.5,109.5 
		483.5,109.5 483.5,109.5 483.5,109.5 483.5,109.5 483.5,108.5 483.5,108.5 484.5,108.5 484.5,108.5 484.5,108.5 484.5,108.5 
		484.5,107.5 484.5,107.5 484.5,107.5 484.5,107.5 484.5,106.5 485.5,106.5 485.5,106.5 485.5,106.5 485.5,106.5 485.5,106.5 
		485.5,105.5 485.5,105.5 485.5,105.5 485.5,105.5 485.5,105.5 486.5,105.5 486.5,105.5 486.5,105.5 486.5,104.5 486.5,104.5 
		486.5,104.5 486.5,104.5 486.5,104.5 486.5,104.5 486.5,103.5 487.5,103.5 487.5,103.5 487.5,103.5 487.5,103.5 487.5,103.5 
		487.5,102.5 487.5,102.5 487.5,102.5 487.5,102.5 487.5,102.5 488.5,103.5 488.5,103.5 488.5,103.5 488.5,103.5 488.5,103.5 
		488.5,103.5 488.5,103.5 488.5,102.5 488.5,102.5 488.5,102.5 489.5,101.5 489.5,101.5 489.5,100.5 489.5,100.5 489.5,100.5 
		489.5,99.5 489.5,99.5 489.5,99.5 489.5,98.5 490.5,98.5 490.5,97.5 490.5,97.5 490.5,97.5 490.5,96.5 490.5,96.5 490.5,96.5 
		490.5,96.5 490.5,96.5 490.5,97.5 491.5,97.5 491.5,97.5 491.5,97.5 491.5,97.5 491.5,97.5 491.5,98.5 491.5,98.5 491.5,98.5 
		491.5,98.5 491.5,98.5 492.5,99.5 492.5,99.5 492.5,99.5 492.5,99.5 492.5,99.5 492.5,99.5 492.5,100.5 492.5,100.5 492.5,100.5 
		492.5,100.5 493.5,100.5 493.5,101.5 493.5,101.5 493.5,101.5 493.5,101.5 493.5,102.5 493.5,102.5 493.5,102.5 493.5,102.5 
		494.5,102.5 494.5,102.5 494.5,103.5 494.5,103.5 494.5,103.5 494.5,103.5 494.5,103.5 494.5,103.5 494.5,104.5 494.5,104.5 
		495.5,104.5 495.5,104.5 495.5,105.5 495.5,105.5 495.5,105.5 495.5,106.5 495.5,106.5 495.5,107.5 495.5,107.5 495.5,107.5 
		496.5,108.5 496.5,108.5 496.5,108.5 496.5,109.5 496.5,109.5 496.5,109.5 496.5,110.5 496.5,110.5 496.5,111.5 496.5,111.5 
		497.5,112.5 497.5,112.5 497.5,113.5 497.5,113.5 497.5,114.5 497.5,114.5 497.5,115.5 497.5,115.5 497.5,116.5 498.5,116.5 
		498.5,117.5 498.5,117.5 498.5,118.5 498.5,119.5 498.5,119.5 498.5,120.5 498.5,120.5 498.5,120.5 498.5,121.5 499.5,122.5 
		499.5,122.5 499.5,123.5 499.5,123.5 499.5,124.5 499.5,124.5 499.5,125.5 499.5,125.5 499.5,126.5 499.5,126.5 500.5,127.5 
		500.5,127.5 500.5,128.5 500.5,128.5 500.5,129.5 500.5,129.5 500.5,129.5 500.5,130.5 500.5,130.5 500.5,130.5 501.5,130.5 
		501.5,129.5 501.5,129.5 501.5,129.5 501.5,129.5 501.5,128.5 501.5,128.5 501.5,128.5 501.5,128.5 501.5,127.5 502.5,127.5 
		502.5,127.5 502.5,127.5 502.5,127.5 502.5,127.5 502.5,126.5 502.5,126.5 502.5,126.5 502.5,126.5 503.5,126.5 503.5,126.5 
		503.5,126.5 503.5,126.5 503.5,126.5 503.5,126.5 503.5,126.5 503.5,126.5 503.5,126.5 503.5,125.5 504.5,126.5 504.5,126.5 
		504.5,126.5 504.5,125.5 504.5,125.5 504.5,126.5 504.5,126.5 504.5,126.5 504.5,126.5 504.5,127.5 505.5,127.5 505.5,127.5 
		505.5,127.5 505.5,127.5 505.5,127.5 505.5,127.5 505.5,127.5 505.5,127.5 505.5,127.5 505.5,127.5 506.5,127.5 506.5,127.5 
		506.5,127.5 506.5,127.5 506.5,127.5 506.5,127.5 506.5,128.5 506.5,128.5 506.5,129.5 507.5,129.5 507.5,129.5 507.5,130.5 
		507.5,130.5 507.5,130.5 507.5,131.5 507.5,131.5 507.5,132.5 507.5,132.5 507.5,133.5 508.5,133.5 508.5,134.5 508.5,134.5 
		508.5,134.5 508.5,135.5 508.5,135.5 508.5,135.5 508.5,136.5 508.5,136.5 508.5,136.5 509.5,137.5 509.5,137.5 509.5,138.5 
		509.5,138.5 509.5,138.5 509.5,138.5 509.5,138.5 509.5,138.5 509.5,138.5 509.5,138.5 510.5,138.5 510.5,138.5 510.5,138.5 
		510.5,139.5 510.5,139.5 510.5,139.5 510.5,139.5 510.5,139.5 510.5,139.5 511.5,140.5 511.5,140.5 511.5,140.5 511.5,141.5 
		511.5,141.5 511.5,141.5 511.5,141.5 511.5,141.5 511.5,141.5 511.5,142.5 512.5,142.5 512.5,142.5 512.5,142.5 512.5,142.5 
		512.5,142.5 512.5,143.5 512.5,143.5 512.5,144.5 512.5,144.5 512.5,145.5 513.5,145.5 513.5,146.5 513.5,146.5 513.5,146.5 
		513.5,147.5 513.5,147.5 513.5,147.5 513.5,147.5 513.5,147.5 513.5,147.5 514.5,148.5 514.5,148.5 514.5,148.5 514.5,149.5 
		514.5,149.5 514.5,149.5 514.5,150.5 514.5,150.5 514.5,150.5 515.5,151.5 515.5,151.5 515.5,151.5 515.5,151.5 515.5,151.5 
		515.5,151.5 515.5,151.5 515.5,152.5 515.5,152.5 515.5,152.5 516.5,152.5 516.5,152.5 516.5,152.5 516.5,152.5 516.5,153.5 
		516.5,153.5 516.5,153.5 516.5,153.5 516.5,153.5 516.5,153.5 517.5,153.5 517.5,154.5 517.5,154.5 517.5,154.5 517.5,154.5 
		517.5,154.5 517.5,155.5 517.5,155.5 517.5,155.5 517.5,155.5 518.5,155.5 518.5,155.5 518.5,155.5 518.5,155.5 518.5,155.5 
		518.5,155.5 518.5,155.5 518.5,155.5 518.5,155.5 518.5,155.5 519.5,155.5 519.5,155.5 519.5,155.5 519.5,155.5 519.5,155.5 
		519.5,155.5 519.5,156.5 519.5,156.5 519.5,156.5 520.5,156.5 520.5,156.5 520.5,156.5 520.5,156.5 520.5,156.5 520.5,156.5 
		520.5,156.5 520.5,156.5 520.5,156.5 520.5,156.5 521.5,156.5 521.5,156.5 521.5,156.5 521.5,156.5 521.5,156.5 521.5,157.5 
		521.5,157.5 521.5,157.5 521.5,157.5 521.5,157.5 522.5,157.5 522.5,157.5 522.5,157.5 522.5,157.5 522.5,157.5 522.5,157.5 
		522.5,157.5 522.5,157.5 522.5,157.5 522.5,157.5 523.5,157.5 523.5,157.5 523.5,156.5 523.5,157.5 523.5,157.5 523.5,158.5 
		523.5,158.5 523.5,158.5 523.5,158.5 524.5,158.5 524.5,158.5 524.5,158.5 524.5,158.5 524.5,158.5 524.5,159.5 524.5,159.5 
		524.5,159.5 524.5,159.5 524.5,159.5 525.5,159.5 525.5,159.5 525.5,159.5 525.5,159.5 525.5,159.5 525.5,159.5 525.5,159.5 
		525.5,159.5 525.5,159.5 525.5,159.5 526.5,159.5 526.5,159.5 526.5,159.5 526.5,160.5 526.5,160.5 526.5,160.5 526.5,160.5 
		526.5,160.5 526.5,160.5 526.5,160.5 527.5,160.5 527.5,160.5 527.5,160.5 527.5,160.5 527.5,160.5 527.5,160.5 527.5,160.5 
		527.5,160.5 527.5,161.5 528.5,161.5 528.5,161.5 528.5,161.5 528.5,161.5 528.5,161.5 528.5,161.5 528.5,161.5 528.5,161.5 
		528.5,161.5 528.5,161.5 529.5,161.5 529.5,161.5 529.5,162.5 529.5,162.5 529.5,162.5 529.5,162.5 529.5,162.5 529.5,162.5 
		529.5,162.5 529.5,162.5 530.5,162.5 530.5,162.5 530.5,162.5 530.5,162.5 530.5,162.5 530.5,162.5 530.5,162.5 530.5,162.5 
		530.5,163.5 530.5,163.5 531.5,163.5 531.5,163.5 531.5,163.5 531.5,163.5 531.5,163.5 531.5,163.5 531.5,163.5 531.5,163.5 
		531.5,163.5 531.5,163.5 532.5,163.5 532.5,163.5 532.5,163.5 532.5,163.5 532.5,163.5 532.5,162.5 532.5,162.5 532.5,162.5 
		532.5,163.5 533.5,163.5 533.5,163.5 533.5,163.5 533.5,162.5 533.5,162.5 533.5,162.5 533.5,162.5 533.5,162.5 533.5,162.5 
		533.5,162.5 534.5,162.5 534.5,163.5 534.5,163.5 534.5,163.5 534.5,163.5 534.5,163.5 534.5,163.5 534.5,163.5 534.5,163.5 
		534.5,163.5 535.5,163.5 535.5,163.5 535.5,164.5 535.5,164.5 535.5,164.5 535.5,164.5 535.5,164.5 535.5,164.5 535.5,164.5 
		535.5,164.5 536.5,164.5 536.5,164.5 536.5,164.5 536.5,164.5 536.5,164.5 536.5,164.5 536.5,164.5 536.5,164.5 536.5,164.5 
		537.5,164.5 537.5,164.5 537.5,164.5 537.5,164.5 537.5,164.5 537.5,164.5 537.5,164.5 537.5,164.5 537.5,164.5 537.5,164.5 
		538.5,164.5 538.5,164.5 538.5,163.5 538.5,163.5 538.5,163.5 538.5,162.5 538.5,162.5 538.5,162.5 538.5,161.5 538.5,161.5 
		539.5,161.5 539.5,160.5 539.5,160.5 539.5,160.5 539.5,160.5 539.5,160.5 539.5,159.5 539.5,159.5 539.5,159.5 539.5,159.5 
		540.5,159.5 540.5,159.5 540.5,159.5 540.5,159.5 540.5,160.5 540.5,160.5 540.5,160.5 540.5,161.5 540.5,161.5 541.5,161.5 
		541.5,161.5 541.5,161.5 541.5,162.5 541.5,162.5 541.5,162.5 541.5,162.5 541.5,161.5 541.5,161.5 541.5,161.5 542.5,161.5 
		542.5,161.5 542.5,161.5 542.5,160.5 542.5,160.5 542.5,160.5 542.5,160.5 542.5,160.5 542.5,160.5 542.5,160.5 543.5,160.5 
		543.5,160.5 543.5,160.5 543.5,160.5 543.5,160.5 543.5,159.5 543.5,159.5 543.5,159.5 543.5,159.5 543.5,159.5 544.5,159.5 
		544.5,159.5 544.5,160.5 544.5,160.5 544.5,160.5 544.5,160.5 544.5,160.5 544.5,160.5 544.5,160.5 545.5,160.5 545.5,160.5 
		545.5,160.5 545.5,160.5 545.5,161.5 545.5,161.5 545.5,161.5 545.5,161.5 545.5,161.5 545.5,161.5 546.5,161.5 546.5,161.5 
		546.5,161.5 546.5,161.5 546.5,160.5 546.5,160.5 546.5,160.5 546.5,160.5 546.5,160.5 546.5,160.5 547.5,159.5 547.5,159.5 
		547.5,159.5 547.5,159.5 547.5,159.5 547.5,159.5 547.5,159.5 547.5,159.5 547.5,159.5 547.5,159.5 548.5,159.5 548.5,159.5 
		548.5,159.5 548.5,159.5 548.5,159.5 548.5,159.5 548.5,159.5 548.5,159.5 548.5,159.5 548.5,159.5 549.5,159.5 549.5,159.5 
		549.5,159.5 549.5,159.5 549.5,159.5 549.5,159.5 549.5,159.5 549.5,159.5 549.5,159.5 550.5,159.5 550.5,159.5 550.5,159.5 
		550.5,159.5 550.5,159.5 550.5,159.5 550.5,159.5 550.5,159.5 550.5,159.5 550.5,159.5 551.5,159.5 551.5,159.5 551.5,159.5 
		551.5,159.5 551.5,159.5 551.5,159.5 551.5,159.5 551.5,159.5 551.5,159.5 551.5,159.5 552.5,159.5 552.5,159.5 552.5,159.5 
		552.5,159.5 552.5,159.5 552.5,159.5 552.5,159.5 552.5,159.5 552.5,159.5 552.5,159.5 553.5,159.5 553.5,159.5 553.5,159.5 
		553.5,159.5 553.5,159.5 553.5,159.5 553.5,159.5 553.5,159.5 553.5,159.5 554.5,160.5 554.5,160.5 554.5,160.5 554.5,160.5 
		554.5,160.5 554.5,160.5 554.5,160.5 554.5,160.5 554.5,160.5 554.5,160.5 555.5,160.5 555.5,159.5 555.5,159.5 555.5,159.5 
		555.5,159.5 555.5,159.5 555.5,159.5 555.5,159.5 555.5,159.5 555.5,159.5 556.5,159.5 556.5,159.5 556.5,159.5 556.5,159.5 
		556.5,159.5 556.5,159.5 556.5,159.5 556.5,159.5 556.5,159.5 556.5,159.5 557.5,159.5 557.5,159.5 557.5,159.5 557.5,159.5 
		557.5,159.5 557.5,158.5 557.5,158.5 557.5,158.5 557.5,158.5 558.5,158.5 558.5,158.5 558.5,158.5 558.5,158.5 558.5,158.5 
		558.5,158.5 558.5,158.5 558.5,158.5 558.5,158.5 558.5,158.5 559.5,159.5 559.5,159.5 559.5,159.5 559.5,159.5 559.5,159.5 
		559.5,159.5 559.5,159.5 559.5,159.5 559.5,159.5 559.5,159.5 560.5,159.5 560.5,158.5 560.5,158.5 560.5,158.5 560.5,159.5 
		560.5,159.5 560.5,159.5 560.5,159.5 560.5,159.5 560.5,159.5 561.5,158.5 561.5,158.5 561.5,158.5 561.5,158.5 561.5,158.5 
		561.5,158.5 561.5,158.5 561.5,158.5 561.5,158.5 561.5,158.5 562.5,158.5 562.5,158.5 562.5,158.5 562.5,157.5 562.5,157.5 
		562.5,157.5 562.5,157.5 562.5,157.5 562.5,158.5 563.5,158.5 563.5,158.5 563.5,158.5 563.5,158.5 563.5,158.5 563.5,158.5 
		563.5,158.5 563.5,158.5 563.5,158.5 563.5,158.5 564.5,158.5 564.5,158.5 564.5,157.5 564.5,157.5 564.5,157.5 564.5,157.5 
		564.5,157.5 564.5,157.5 564.5,157.5 564.5,157.5 565.5,157.5 565.5,157.5 565.5,157.5 565.5,157.5 565.5,157.5 565.5,157.5 
		565.5,157.5 565.5,157.5 565.5,157.5 565.5,157.5 566.5,157.5 566.5,156.5 566.5,156.5 566.5,156.5 566.5,156.5 566.5,156.5 
		566.5,156.5 566.5,156.5 566.5,156.5 567.5,155.5 567.5,155.5 567.5,155.5 567.5,155.5 567.5,155.5 567.5,155.5 567.5,155.5 
		567.5,155.5 567.5,155.5 567.5,154.5 568.5,154.5 568.5,154.5 568.5,154.5 568.5,154.5 568.5,154.5 568.5,153.5 568.5,153.5 
		568.5,153.5 568.5,153.5 568.5,153.5 569.5,153.5 569.5,153.5 569.5,152.5 569.5,152.5 569.5,152.5 569.5,152.5 569.5,152.5 
		569.5,152.5 569.5,152.5 569.5,152.5 570.5,152.5 570.5,152.5 570.5,152.5 570.5,152.5 570.5,152.5 570.5,152.5 570.5,151.5 
		570.5,151.5 570.5,152.5 571.5,152.5 571.5,152.5 571.5,152.5 571.5,152.5 571.5,152.5 571.5,152.5 571.5,152.5 571.5,153.5 
		571.5,153.5 571.5,153.5 572.5,153.5 572.5,153.5 572.5,153.5 572.5,153.5 572.5,153.5 572.5,153.5 572.5,153.5 572.5,153.5 
		572.5,153.5 572.5,153.5 573.5,153.5 573.5,153.5 573.5,153.5 573.5,152.5 573.5,152.5 573.5,152.5 573.5,152.5 573.5,152.5 
		573.5,152.5 573.5,152.5 574.5,152.5 574.5,152.5 574.5,152.5 574.5,152.5 574.5,152.5 574.5,152.5 574.5,152.5 574.5,152.5 
		574.5,152.5 575.5,152.5 575.5,152.5 575.5,152.5 575.5,152.5 575.5,152.5 575.5,152.5 575.5,153.5 575.5,153.5 575.5,153.5 
		575.5,153.5 576.5,153.5 576.5,153.5 576.5,153.5 576.5,153.5 576.5,154.5 576.5,154.5 576.5,154.5 576.5,154.5 576.5,154.5 
		576.5,154.5 577.5,154.5 577.5,154.5 577.5,154.5 577.5,154.5 577.5,154.5 577.5,154.5 577.5,154.5 577.5,154.5 577.5,154.5 
		577.5,154.5 578.5,154.5 578.5,154.5 578.5,154.5 578.5,154.5 578.5,154.5 578.5,154.5 578.5,154.5 578.5,154.5 578.5,154.5 
		578.5,154.5 579.5,154.5 579.5,154.5 579.5,154.5 579.5,154.5 579.5,154.5 579.5,153.5 579.5,153.5 579.5,153.5 579.5,153.5 
		580.5,153.5 580.5,153.5 580.5,152.5 580.5,152.5 580.5,152.5 580.5,152.5 580.5,152.5 580.5,152.5 580.5,152.5 580.5,151.5 
		581.5,151.5 581.5,151.5 581.5,151.5 581.5,151.5 581.5,151.5 581.5,151.5 581.5,151.5 581.5,151.5 581.5,150.5 581.5,150.5 
		582.5,150.5 582.5,150.5 582.5,150.5 582.5,150.5 582.5,150.5 582.5,150.5 582.5,149.5 582.5,149.5 582.5,149.5 582.5,149.5 
		583.5,149.5 583.5,149.5 583.5,148.5 583.5,148.5 583.5,148.5 583.5,148.5 583.5,147.5 583.5,146.5 583.5,146.5 584.5,146.5 
		584.5,146.5 584.5,147.5 584.5,148.5 584.5,148.5 584.5,149.5 584.5,149.5 584.5,149.5 584.5,149.5 584.5,150.5 585.5,150.5 
		585.5,150.5 585.5,150.5 585.5,150.5 585.5,150.5 585.5,151.5 585.5,151.5 585.5,151.5 585.5,151.5 585.5,151.5 586.5,151.5 
		586.5,151.5 586.5,151.5 586.5,151.5 586.5,151.5 586.5,151.5 586.5,151.5 586.5,151.5 586.5,151.5 586.5,151.5 587.5,151.5 
		587.5,151.5 587.5,151.5 587.5,151.5 587.5,151.5 587.5,151.5 587.5,151.5 587.5,151.5 587.5,150.5 588.5,150.5 588.5,150.5 
		588.5,150.5 588.5,149.5 588.5,149.5 588.5,149.5 588.5,149.5 588.5,149.5 588.5,149.5 588.5,148.5 589.5,149.5 589.5,149.5 
		589.5,149.5 589.5,148.5 589.5,148.5 589.5,148.5 589.5,148.5 589.5,148.5 589.5,147.5 589.5,147.5 590.5,147.5 590.5,147.5 
		590.5,146.5 590.5,146.5 590.5,146.5 590.5,146.5 590.5,145.5 590.5,145.5 590.5,145.5 590.5,144.5 591.5,144.5 591.5,144.5 
		591.5,144.5 591.5,144.5 591.5,144.5 591.5,144.5 591.5,143.5 591.5,143.5 591.5,144.5 592.5,144.5 592.5,144.5 592.5,144.5 
		592.5,143.5 592.5,143.5 592.5,143.5 592.5,143.5 592.5,143.5 592.5,143.5 592.5,142.5 593.5,142.5 593.5,142.5 593.5,142.5 
		593.5,141.5 593.5,141.5 593.5,141.5 593.5,141.5 593.5,141.5 593.5,141.5 593.5,140.5 594.5,140.5 594.5,140.5 594.5,139.5 
		594.5,139.5 594.5,139.5 594.5,138.5 594.5,138.5 594.5,138.5 594.5,138.5 594.5,137.5 595.5,137.5 595.5,137.5 595.5,137.5 
		595.5,137.5 595.5,137.5 595.5,136.5 595.5,136.5 595.5,136.5 595.5,136.5 595.5,136.5 596.5,135.5 596.5,135.5 596.5,135.5 
		596.5,135.5 596.5,135.5 596.5,135.5 596.5,135.5 596.5,135.5 596.5,136.5 597.5,136.5 597.5,136.5 597.5,136.5 597.5,136.5 
		597.5,136.5 597.5,137.5 597.5,137.5 597.5,137.5 597.5,137.5 597.5,137.5 598.5,138.5 598.5,138.5 598.5,138.5 598.5,138.5 
		598.5,138.5 598.5,138.5 598.5,139.5 598.5,139.5 598.5,139.5 598.5,140.5 599.5,140.5 599.5,140.5 599.5,140.5 599.5,140.5 
		599.5,140.5 599.5,140.5 599.5,140.5 599.5,140.5 599.5,141.5 599.5,141.5 600.5,141.5 600.5,141.5 600.5,141.5 600.5,141.5 
		600.5,142.5 600.5,142.5 600.5,143.5 600.5,143.5 600.5,144.5 601.5,144.5 601.5,144.5 601.5,145.5 601.5,145.5 601.5,145.5 
		601.5,145.5 601.5,145.5 601.5,145.5 601.5,145.5 601.5,146.5 602.5,146.5 602.5,146.5 602.5,146.5 602.5,146.5 602.5,146.5 
		602.5,146.5 602.5,146.5 602.5,146.5 602.5,146.5 602.5,146.5 603.5,146.5 603.5,146.5 603.5,146.5 603.5,146.5 603.5,146.5 
		603.5,146.5 603.5,146.5 603.5,146.5 603.5,146.5 603.5,146.5 604.5,146.5 604.5,146.5 604.5,146.5 604.5,146.5 604.5,146.5 
		604.5,146.5 604.5,146.5 604.5,146.5 604.5,146.5 605.5,146.5 605.5,146.5 605.5,146.5 605.5,146.5 605.5,146.5 605.5,146.5 
		605.5,146.5 605.5,146.5 605.5,146.5 605.5,146.5 606.5,146.5 606.5,146.5 606.5,146.5 606.5,146.5 606.5,146.5 606.5,146.5 
		606.5,146.5 606.5,146.5 606.5,146.5 606.5,146.5 607.5,146.5 607.5,146.5 607.5,147.5 607.5,147.5 607.5,147.5 607.5,147.5 
		607.5,147.5 607.5,147.5 607.5,147.5 607.5,147.5 608.5,148.5 608.5,148.5 608.5,148.5 608.5,148.5 608.5,148.5 608.5,148.5 
		608.5,149.5 608.5,149.5 608.5,149.5 608.5,149.5 609.5,149.5 609.5,149.5 609.5,149.5 609.5,149.5 609.5,149.5 609.5,149.5 
		609.5,149.5 609.5,149.5 609.5,150.5 610.5,150.5 610.5,150.5 610.5,150.5 610.5,150.5 610.5,150.5 610.5,150.5 610.5,150.5 
		610.5,150.5 610.5,150.5 610.5,150.5 611.5,150.5 611.5,150.5 611.5,150.5 611.5,150.5 611.5,150.5 611.5,150.5 611.5,150.5 
		611.5,150.5 611.5,150.5 611.5,150.5 612.5,150.5 612.5,150.5 612.5,150.5 612.5,150.5 612.5,150.5 612.5,150.5 612.5,150.5 
		612.5,150.5 612.5,150.5 612.5,150.5 613.5,150.5 613.5,150.5 613.5,150.5 613.5,150.5 613.5,150.5 613.5,151.5 613.5,151.5 
		613.5,151.5 613.5,151.5 614.5,150.5 614.5,150.5 614.5,150.5 614.5,150.5 614.5,150.5 614.5,150.5 614.5,150.5 614.5,150.5 
		614.5,150.5 614.5,151.5 615.5,151.5 615.5,151.5 615.5,151.5 615.5,151.5 615.5,151.5 615.5,151.5 615.5,151.5 615.5,151.5 
		615.5,151.5 615.5,151.5 616.5,151.5 616.5,151.5 616.5,151.5 616.5,151.5 616.5,151.5 616.5,151.5 616.5,151.5 616.5,151.5 
		616.5,151.5 616.5,151.5 617.5,151.5 617.5,151.5 617.5,151.5 617.5,151.5 617.5,151.5 617.5,151.5 617.5,151.5 617.5,151.5 
		617.5,151.5 618.5,151.5 618.5,151.5 618.5,151.5 618.5,151.5 618.5,151.5 618.5,151.5 618.5,151.5 618.5,151.5 618.5,151.5 
		618.5,151.5 619.5,151.5 619.5,151.5 619.5,151.5 619.5,151.5 619.5,151.5 619.5,151.5 619.5,151.5 619.5,150.5 619.5,150.5 
		619.5,150.5 620.5,150.5 620.5,150.5 620.5,150.5 620.5,150.5 620.5,150.5 620.5,150.5 620.5,150.5 620.5,150.5 620.5,149.5 
		620.5,149.5 621.5,149.5 621.5,149.5 621.5,149.5 621.5,149.5 621.5,149.5 621.5,149.5 621.5,150.5 621.5,150.5 621.5,150.5 
		622.5,150.5 622.5,150.5 622.5,150.5 622.5,151.5 622.5,151.5 622.5,151.5 622.5,151.5 622.5,151.5 622.5,151.5 622.5,151.5 
		623.5,151.5 623.5,151.5 623.5,151.5 623.5,151.5 623.5,151.5 623.5,150.5 623.5,150.5 623.5,150.5 623.5,150.5 623.5,150.5 
		624.5,150.5 624.5,150.5 624.5,150.5 624.5,150.5 624.5,150.5 624.5,150.5 624.5,150.5 624.5,150.5 624.5,150.5 624.5,150.5 
		625.5,150.5 625.5,150.5 625.5,150.5 625.5,150.5 625.5,150.5 625.5,150.5 625.5,150.5 625.5,150.5 625.5,150.5 625.5,150.5 
		626.5,150.5 626.5,150.5 626.5,150.5 626.5,150.5 626.5,150.5 626.5,149.5 626.5,149.5 626.5,149.5 626.5,149.5 627.5,149.5 
		627.5,149.5 627.5,149.5 627.5,149.5 627.5,149.5 627.5,149.5 627.5,149.5 627.5,149.5 627.5,149.5 627.5,149.5 628.5,149.5 
		628.5,149.5 628.5,149.5 628.5,149.5 628.5,149.5 628.5,149.5 628.5,149.5 628.5,149.5 628.5,149.5 628.5,149.5 629.5,149.5 
		629.5,149.5 629.5,149.5 629.5,149.5 629.5,149.5 629.5,150.5 629.5,150.5 629.5,150.5 629.5,150.5 629.5,150.5 630.5,150.5 
		630.5,150.5 630.5,150.5 630.5,150.5 630.5,150.5 630.5,150.5 630.5,150.5 630.5,150.5 630.5,150.5 631.5,150.5 631.5,150.5 
		631.5,150.5 631.5,150.5 631.5,150.5 631.5,150.5 631.5,150.5 631.5,150.5 631.5,150.5 631.5,150.5 632.5,150.5 632.5,150.5 
		632.5,150.5 632.5,150.5 632.5,150.5 632.5,150.5 632.5,150.5 632.5,150.5 632.5,150.5 632.5,150.5 633.5,150.5 633.5,150.5 
		633.5,150.5 633.5,149.5 633.5,149.5 633.5,149.5 633.5,149.5 633.5,149.5 633.5,149.5 633.5,149.5 634.5,149.5 634.5,149.5 
		634.5,148.5 634.5,148.5 634.5,148.5 634.5,148.5 634.5,148.5 634.5,148.5 634.5,148.5 635.5,148.5 635.5,148.5 635.5,148.5 
		635.5,148.5 635.5,149.5 635.5,149.5 635.5,149.5 635.5,149.5 635.5,149.5 635.5,149.5 636.5,149.5 636.5,149.5 636.5,149.5 
		636.5,149.5 636.5,149.5 636.5,149.5 636.5,149.5 636.5,149.5 636.5,150.5 636.5,150.5 637.5,149.5 637.5,149.5 637.5,149.5 
		637.5,149.5 637.5,149.5 637.5,149.5 637.5,149.5 637.5,149.5 637.5,149.5 637.5,149.5 638.5,149.5 638.5,149.5 638.5,149.5 
		638.5,149.5 638.5,149.5 638.5,149.5 638.5,149.5 638.5,149.5 638.5,149.5 638.5,149.5 639.5,149.5 639.5,149.5 639.5,149.5 
		639.5,149.5 639.5,149.5 639.5,149.5 639.5,149.5 639.5,149.5 639.5,149.5 640.5,149.5 640.5,149.5 640.5,149.5 640.5,149.5 
		640.5,149.5 640.5,149.5 640.5,149.5 640.5,149.5 640.5,149.5 640.5,149.5 641.5,149.5 641.5,149.5 641.5,149.5 641.5,149.5 
		641.5,149.5 641.5,149.5 641.5,149.5 641.5,149.5 641.5,149.5 641.5,149.5 642.5,149.5 642.5,149.5 642.5,149.5 642.5,149.5 
		642.5,149.5 642.5,149.5 642.5,149.5 642.5,149.5 642.5,149.5 642.5,149.5 643.5,149.5 643.5,149.5 643.5,149.5 643.5,149.5 
		643.5,149.5 643.5,149.5 643.5,148.5 643.5,148.5 643.5,148.5 644.5,148.5 644.5,148.5 644.5,148.5 644.5,148.5 644.5,148.5 
		644.5,148.5 644.5,148.5 644.5,148.5 644.5,148.5 644.5,148.5 645.5,148.5 645.5,148.5 645.5,148.5 645.5,148.5 645.5,148.5 
		645.5,148.5 645.5,148.5 645.5,148.5 645.5,148.5 645.5,148.5 646.5,148.5 646.5,148.5 646.5,148.5 646.5,148.5 646.5,148.5 
		646.5,148.5 646.5,148.5 646.5,148.5 646.5,148.5 646.5,148.5 647.5,148.5 647.5,148.5 647.5,148.5 647.5,148.5 647.5,148.5 
		647.5,148.5 647.5,147.5 647.5,147.5 647.5,147.5 648.5,147.5 648.5,147.5 648.5,148.5 648.5,148.5 648.5,147.5 648.5,147.5 
		648.5,147.5 648.5,147.5 648.5,147.5 648.5,147.5 649.5,147.5 649.5,147.5 649.5,147.5 649.5,147.5 649.5,147.5 649.5,147.5 
		649.5,147.5 649.5,147.5 649.5,147.5 649.5,147.5 650.5,147.5 650.5,147.5 650.5,147.5 650.5,147.5 650.5,147.5 650.5,147.5 
		650.5,147.5 650.5,147.5 650.5,147.5 650.5,147.5 651.5,147.5 651.5,147.5 651.5,147.5 651.5,147.5 651.5,147.5 651.5,147.5 
		651.5,147.5 651.5,147.5 651.5,147.5 652.5,147.5 652.5,147.5 652.5,147.5 652.5,147.5 652.5,147.5 652.5,147.5 652.5,147.5 
		652.5,147.5 652.5,147.5 652.5,147.5 653.5,147.5 653.5,147.5 653.5,147.5 653.5,147.5 653.5,147.5 653.5,147.5 653.5,147.5 
		653.5,147.5 653.5,147.5 653.5,147.5 654.5,147.5 654.5,147.5 654.5,147.5 654.5,147.5 654.5,147.5 654.5,147.5 654.5,147.5 
		654.5,147.5 654.5,146.5 654.5,146.5 655.5,146.5 655.5,146.5 655.5,146.5 655.5,146.5 655.5,146.5 655.5,146.5 655.5,146.5 
		655.5,145.5 655.5,146.5 655.5,146.5 656.5,146.5 656.5,146.5 656.5,146.5 656.5,146.5 656.5,146.5 656.5,146.5 656.5,146.5 
		656.5,145.5 656.5,145.5 657.5,145.5 657.5,145.5 657.5,144.5 657.5,144.5 657.5,145.5 657.5,145.5 657.5,145.5 657.5,145.5 
		657.5,145.5 657.5,146.5 658.5,146.5 658.5,146.5 658.5,146.5 658.5,146.5 658.5,146.5 658.5,146.5 658.5,146.5 658.5,146.5 
		658.5,146.5 658.5,146.5 659.5,146.5 659.5,146.5 659.5,146.5 659.5,146.5 659.5,146.5 659.5,146.5 659.5,146.5 659.5,146.5 
		659.5,146.5 659.5,145.5 660.5,145.5 660.5,145.5 660.5,145.5 660.5,146.5 660.5,146.5 660.5,145.5 660.5,145.5 660.5,145.5 
		660.5,145.5 661.5,145.5 661.5,145.5 661.5,145.5 661.5,145.5 661.5,145.5 661.5,145.5 661.5,145.5 661.5,145.5 661.5,145.5 
		661.5,145.5 662.5,145.5 662.5,145.5 662.5,145.5 662.5,145.5 662.5,145.5 662.5,145.5 662.5,145.5 662.5,145.5 662.5,145.5 
		662.5,145.5 663.5,145.5 663.5,144.5 663.5,144.5 663.5,144.5 663.5,144.5 663.5,144.5 663.5,144.5 663.5,144.5 663.5,144.5 
		663.5,145.5 664.5,145.5 664.5,145.5 664.5,145.5 664.5,144.5 664.5,144.5 664.5,144.5 664.5,144.5 664.5,144.5 664.5,144.5 
		665.5,144.5 665.5,144.5 665.5,144.5 665.5,144.5 665.5,144.5 665.5,144.5 665.5,144.5 665.5,144.5 665.5,144.5 665.5,144.5 
		666.5,144.5 666.5,144.5 666.5,144.5 666.5,144.5 666.5,144.5 666.5,144.5 666.5,144.5 666.5,144.5 666.5,144.5 666.5,144.5 
		667.5,144.5 667.5,144.5 667.5,144.5 667.5,144.5 667.5,144.5 667.5,144.5 667.5,144.5 667.5,145.5 667.5,144.5 667.5,144.5 
		668.5,144.5 668.5,144.5 668.5,144.5 668.5,144.5 668.5,144.5 668.5,144.5 668.5,144.5 668.5,144.5 668.5,145.5 668.5,145.5 
		669.5,145.5 669.5,145.5 669.5,145.5 669.5,145.5 669.5,145.5 669.5,145.5 669.5,145.5 669.5,144.5 669.5,144.5 670.5,144.5 
		670.5,144.5 670.5,144.5 670.5,144.5 670.5,144.5 670.5,144.5 670.5,144.5 670.5,144.5 670.5,144.5 670.5,144.5 671.5,144.5 
		671.5,144.5 671.5,144.5 671.5,144.5 671.5,144.5 671.5,144.5 671.5,144.5 671.5,144.5 671.5,144.5 671.5,144.5 672.5,144.5 
		672.5,144.5 672.5,144.5 672.5,145.5 672.5,144.5 672.5,144.5 672.5,144.5 672.5,144.5 672.5,144.5 672.5,144.5 673.5,144.5 
		673.5,144.5 673.5,144.5 673.5,144.5 673.5,144.5 673.5,144.5 673.5,144.5 673.5,144.5 673.5,144.5 674.5,144.5 674.5,143.5 
		674.5,143.5 674.5,143.5 674.5,143.5 674.5,143.5 674.5,143.5 674.5,143.5 674.5,143.5 674.5,143.5 675.5,143.5 675.5,143.5 
		675.5,143.5 675.5,143.5 675.5,142.5 675.5,142.5 675.5,142.5 675.5,142.5 675.5,142.5 675.5,142.5 676.5,142.5 676.5,142.5 
		676.5,142.5 676.5,142.5 676.5,142.5 676.5,142.5 676.5,142.5 676.5,142.5 676.5,142.5 676.5,142.5 677.5,142.5 677.5,142.5 
		677.5,142.5 677.5,142.5 677.5,142.5 677.5,142.5 677.5,142.5 677.5,142.5 677.5,142.5 678.5,142.5 678.5,142.5 678.5,142.5 
		678.5,142.5 678.5,142.5 678.5,142.5 678.5,142.5 678.5,142.5 678.5,142.5 678.5,142.5 679.5,142.5 679.5,142.5 679.5,142.5 
		679.5,142.5 679.5,141.5 679.5,141.5 679.5,141.5 679.5,141.5 679.5,141.5 679.5,141.5 680.5,141.5 680.5,141.5 680.5,141.5 
		680.5,141.5 680.5,141.5 680.5,140.5 680.5,140.5 680.5,140.5 680.5,140.5 680.5,140.5 681.5,140.5 681.5,140.5 681.5,140.5 
		681.5,139.5 681.5,139.5 681.5,139.5 681.5,139.5 	"/>
</g>
</svg>
