<?xml version="1.0" encoding="UTF-8" standalone="no"?><svg width="282.222mm" height="141.111mm" xmlns="http://www.w3.org/2000/svg" xmlns:xlink="http://www.w3.org/1999/xlink"  version="1.2" baseProfile="tiny"><g fill="none" stroke="#ff0000" stroke-linecap="round" stroke-linejoin="round" stroke-opacity="1" stroke-width="1.5" transform="matrix(1,0,0,1,0,0)">
<polyline fill="none" points="148,355 148,355 148,355 148,355 148,355 148,355 148,355 148,355 148,355 148,355 148,355 148,355 148,355 148,355 149,355 149,355 149,355 149,355 149,355 149,355 149,355 149,355 149,355 149,355 149,355 149,355 149,355 150,356 150,356 150,355 150,355 150,355 150,355 150,355 150,355 150,355 150,355 150,355 150,355 150,355 151,355 151,355 151,355 151,355 151,355 151,355 151,355 151,355 151,355 151,355 151,355 151,355 151,355 152,355 152,355 152,355 152,355 152,355 152,355 152,355 152,355 152,355 152,355 152,355 152,355 152,355 153,355 153,355 153,355 153,355 153,355 153,355 153,355 153,355 153,355 153,355 153,355 153,355 153,355 154,355 154,355 154,355 154,355 154,355 154,355 154,355 154,355 154,355 154,355 154,355 154,355 154,355 155,354 155,354 155,354 155,354 155,354 155,354 155,354 155,354 155,354 155,354 155,354 155,354 155,354 156,354 156,354 156,353 156,353 156,353 156,353 156,353 156,353 156,353 156,353 156,353 156,353 156,353 157,353 157,353 157,353 157,353 157,353 157,353 157,353 157,353 157,353 157,353 157,353 157,352 157,352 158,352 158,352 158,352 158,352 158,352 158,352 158,352 158,352 158,352 158,352 158,352 158,352 158,352 159,352 159,351 159,351 159,351 159,351 159,351 159,351 159,351 159,351 159,351 159,351 159,351 159,351 160,351 160,351 160,351 160,351 160,351 160,351 160,351 160,352 160,352 160,352 160,352 160,352 160,352 161,352 161,352 161,352 161,352 161,352 161,352 161,352 161,352 161,352 161,352 161,352 161,352 161,352 162,352 162,352 162,352 162,352 162,352 162,352 162,352 162,352 162,352 162,352 162,352 162,352 162,352 163,352 163,352 163,351 163,351 163,351 163,351 163,351 163,351 163,351 163,351 163,351 163,351 163,351 164,350 164,350 164,350 164,350 164,350 164,350 164,350 164,350 164,350 164,350 164,350 164,350 164,350 165,350 165,350 165,350 165,349 165,349 165,349 165,349 165,349 165,349 165,349 165,349 165,349 165,349 166,349 166,349 166,349 166,349 166,349 166,349 166,349 166,349 166,349 166,349 166,349 166,349 166,349 167,349 167,349 167,349 167,349 167,349 167,349 167,349 167,349 167,349 167,349 167,349 167,349 167,349 168,349 168,349 168,349 168,349 168,349 168,349 168,349 168,348 168,348 168,348 168,348 168,348 168,348 169,348 169,348 169,347 169,347 169,347 169,347 169,347 169,347 169,347 169,347 169,347 169,347 169,346 170,346 170,346 170,346 170,346 170,346 170,346 170,346 170,346 170,346 170,346 170,345 170,345 170,345 171,345 171,345 171,345 171,345 171,345 171,345 171,345 171,344 171,344 171,344 171,344 171,344 171,344 172,344 172,344 172,344 172,344 172,344 172,343 172,343 172,343 172,343 172,343 172,343 172,342 172,342 173,342 173,342 173,342 173,342 173,341 173,341 173,341 173,341 173,341 173,340 173,340 173,340 173,340 174,340 174,339 174,339 174,339 174,339 174,339 174,338 174,338 174,338 174,338 174,338 174,337 174,337 175,337 175,337 175,336 175,336 175,336 175,336 175,335 175,335 175,335 175,335 175,335 175,334 175,334 176,334 176,334 176,334 176,333 176,333 176,333 176,333 176,332 176,332 176,332 176,332 176,331 176,331 177,331 177,331 177,330 177,330 177,330 177,329 177,329 177,329 177,328 177,328 177,328 177,327 177,327 178,327 178,326 178,326 178,326 178,325 178,325 178,324 178,324 178,324 178,323 178,323 178,322 178,322 179,321 179,321 179,321 179,320 179,320 179,320 179,319 179,319 179,318 179,318 179,318 179,317 179,317 180,317 180,316 180,316 180,316 180,315 180,315 180,315 180,316 180,319 180,323 180,326 180,327 180,328 181,328 181,328 181,329 181,329 181,330 181,330 181,330 181,330 181,330 181,329 181,329 181,329 181,329 182,328 182,328 182,328 182,328 182,327 182,327 182,327 182,327 182,327 182,326 182,326 182,326 182,326 183,325 183,325 183,325 183,325 183,324 183,324 183,324 183,324 183,324 183,323 183,323 183,323 183,323 184,322 184,322 184,322 184,322 184,322 184,321 184,321 184,321 184,321 184,320 184,320 184,320 184,320 185,320 185,319 185,319 185,319 185,319 185,318 185,318 185,318 185,318 185,318 185,317 185,317 185,317 186,317 186,316 186,316 186,316 186,316 186,315 186,315 186,315 186,315 186,315 186,314 186,314 186,314 187,314 187,313 187,313 187,313 187,313 187,313 187,312 187,312 187,312 187,312 187,311 187,311 187,311 188,311 188,311 188,310 188,310 188,310 188,310 188,309 188,309 188,309 188,309 188,308 188,308 188,308 189,308 189,308 189,307 189,307 189,307 189,307 189,306 189,306 189,306 189,306 189,306 189,305 189,305 190,305 190,305 190,304 190,304 190,304 190,304 190,304 190,303 190,303 190,303 190,303 190,302 190,302 191,302 191,302 191,302 191,301 191,301 191,301 191,301 191,300 191,300 191,300 191,300 191,299 191,299 192,299 192,299 192,299 192,298 192,298 192,298 192,298 192,297 192,297 192,297 192,297 192,297 192,296 193,296 193,296 193,296 193,295 193,295 193,295 193,295 193,295 193,294 193,294 193,294 193,294 193,293 194,293 194,293 194,293 194,292 194,292 194,292 194,292 194,292 194,291 194,291 194,291 194,291 194,290 195,290 195,290 195,289 195,289 195,289 195,288 195,288 195,288 195,287 195,287 195,287 195,286 195,286 196,286 196,285 196,285 196,284 196,284 196,284 196,283 196,283 196,283 196,282 196,282 196,282 196,281 197,281 197,281 197,280 197,280 197,280 197,279 197,279 197,278 197,278 197,278 197,277 197,277 197,277 197,276 198,276 198,276 198,275 198,275 198,275 198,274 198,274 198,274 198,274 198,274 198,273 198,273 198,273 199,273 199,273 199,272 199,272 199,272 199,272 199,272 199,271 199,271 199,271 199,271 199,271 199,272 200,272 200,272 200,273 200,273 200,273 200,273 200,273 200,272 200,272 200,271 200,271 200,271 200,270 201,270 201,270 201,269 201,269 201,269 201,269 201,269 201,269 201,268 201,268 201,268 201,268 201,268 202,268 202,268 202,269 202,269 202,269 202,269 202,269 202,269 202,269 202,269 202,269 202,269 202,269 203,269 203,269 203,269 203,269 203,268 203,268 203,268 203,268 203,268 203,268 203,268 203,268 203,268 204,267 204,267 204,266 204,266 204,265 204,264 204,264 204,263 204,262 204,261 204,261 204,261 204,261 205,261 205,260 205,260 205,260 205,260 205,260 205,259 205,259 205,259 205,259 205,259 205,258 205,258 206,258 206,257 206,257 206,257 206,257 206,256 206,256 206,255 206,255 206,255 206,255 206,255 206,255 207,255 207,255 207,255 207,255 207,255 207,255 207,255 207,255 207,255 207,255 207,255 207,255 207,255 208,255 208,255 208,255 208,255 208,255 208,255 208,255 208,255 208,255 208,255 208,255 208,255 208,254 209,254 209,254 209,254 209,254 209,254 209,254 209,254 209,254 209,254 209,254 209,254 209,254 209,254 210,254 210,254 210,254 210,254 210,254 210,254 210,253 210,253 210,253 210,253 210,252 210,252 210,252 211,252 211,252 211,251 211,251 211,251 211,251 211,251 211,252 211,251 211,251 211,251 211,251 211,251 212,251 212,251 212,250 212,250 212,250 212,250 212,250 212,250 212,250 212,250 212,250 212,250 212,250 213,250 213,250 213,249 213,249 213,249 213,249 213,249 213,249 213,248 213,248 213,248 213,248 213,248 214,248 214,248 214,248 214,248 214,248 214,248 214,248 214,248 214,248 214,247 214,247 214,247 214,247 215,247 215,247 215,247 215,247 215,247 215,247 215,247 215,247 215,247 215,246 215,246 215,246 215,246 216,246 216,246 216,246 216,246 216,246 216,246 216,246 216,246 216,246 216,246 216,246 216,246 216,246 217,246 217,246 217,246 217,246 217,246 217,246 217,246 217,246 217,246 217,246 217,246 217,246 217,246 218,246 218,246 218,246 218,247 218,247 218,247 218,247 218,247 218,247 218,247 218,247 218,247 218,247 219,247 219,247 219,248 219,248 219,248 219,248 219,248 219,248 219,248 219,248 219,248 219,248 219,249 220,249 220,249 220,250 220,250 220,250 220,251 220,251 220,251 220,252 220,252 220,252 220,253 220,253 221,254 221,254 221,255 221,255 221,256 221,256 221,257 221,257 221,258 221,258 221,259 221,259 221,260 222,260 222,261 222,261 222,261 222,262 222,262 222,263 222,263 222,263 222,264 222,264 222,265 222,265 223,266 223,266 223,267 223,268 223,268 223,269 223,269 223,269 223,270 223,270 223,271 223,271 223,272 224,272 224,273 224,273 224,274 224,274 224,275 224,276 224,276 224,277 224,277 224,278 224,278 224,279 225,280 225,281 225,281 225,282 225,282 225,283 225,283 225,284 225,284 225,285 225,286 225,286 225,287 226,287 226,288 226,288 226,289 226,290 226,290 226,291 226,292 226,292 226,293 226,294 226,294 226,295 227,296 227,297 227,298 227,299 227,299 227,298 227,298 227,297 227,297 227,296 227,295 227,294 227,293 228,292 228,291 228,290 228,289 228,288 228,287 228,288 228,288 228,289 228,289 228,289 228,290 228,290 229,290 229,290 229,291 229,291 229,291 229,291 229,291 229,291 229,292 229,292 229,292 229,292 229,292 230,292 230,292 230,293 230,293 230,293 230,294 230,294 230,295 230,294 230,295 230,296 230,297 230,299 231,299 231,300 231,301 231,302 231,303 231,304 231,305 231,306 231,306 231,307 231,307 231,308 231,308 232,308 232,308 232,308 232,308 232,308 232,308 232,308 232,308 232,308 232,308 232,308 232,308 232,307 233,307 233,307 233,307 233,307 233,307 233,307 233,307 233,307 233,307 233,306 233,306 233,306 233,306 234,306 234,306 234,306 234,306 234,306 234,306 234,306 234,306 234,306 234,306 234,306 234,306 234,306 235,306 235,306 235,306 235,306 235,306 235,306 235,305 235,306 235,306 235,306 235,306 235,306 235,306 236,306 236,307 236,307 236,307 236,307 236,307 236,307 236,307 236,307 236,307 236,307 236,307 236,307 237,307 237,307 237,307 237,307 237,307 237,307 237,307 237,307 237,306 237,306 237,306 237,306 237,305 238,305 238,305 238,304 238,304 238,304 238,303 238,303 238,303 238,302 238,302 238,302 238,302 238,301 239,301 239,301 239,300 239,300 239,300 239,300 239,299 239,299 239,299 239,298 239,298 239,298 239,298 240,298 240,298 240,297 240,297 240,297 240,297 240,297 240,298 240,298 240,298 240,298 240,298 240,298 241,298 241,299 241,299 241,299 241,300 241,300 241,300 241,300 241,300 241,300 241,300 241,300 241,300 242,300 242,300 242,300 242,300 242,300 242,300 242,300 242,299 242,299 242,299 242,298 242,298 242,298 243,297 243,297 243,297 243,297 243,296 243,296 243,295 243,295 243,294 243,294 243,293 243,293 243,292 244,292 244,291 244,291 244,290 244,290 244,289 244,288 244,288 244,287 244,287 244,286 244,285 244,284 245,284 245,283 245,282 245,282 245,281 245,281 245,280 245,280 245,279 245,278 245,278 245,277 245,277 246,276 246,276 246,275 246,275 246,274 246,274 246,273 246,273 246,272 246,272 246,271 246,271 246,270 246,270 247,269 247,269 247,268 247,268 247,268 247,268 247,268 247,269 247,269 247,269 247,269 247,269 247,269 248,270 248,270 248,270 248,270 248,270 248,271 248,271 248,271 248,271 248,271 248,271 248,271 248,271 249,272 249,272 249,272 249,272 249,272 249,273 249,273 249,273 249,274 249,274 249,275 249,275 249,276 250,277 250,277 250,278 250,278 250,279 250,280 250,281 250,281 250,283 250,283 250,284 250,284 250,284 251,285 251,286 251,286 251,285 251,285 251,285 251,285 251,285 251,285 251,284 251,284 251,284 251,285 252,284 252,284 252,284 252,284 252,284 252,284 252,284 252,284 252,284 252,285 252,285 252,285 252,285 253,286 253,286 253,286 253,286 253,287 253,287 253,287 253,288 253,288 253,288 253,288 253,289 253,289 254,289 254,290 254,290 254,291 254,291 254,292 254,293 254,293 254,294 254,294 254,294 254,295 254,295 255,295 255,294 255,294 255,294 255,294 255,294 255,294 255,294 255,293 255,293 255,293 255,293 255,293 256,293 256,293 256,293 256,293 256,293 256,293 256,293 256,293 256,293 256,293 256,294 256,294 256,294 257,294 257,294 257,294 257,294 257,294 257,294 257,294 257,293 257,293 257,293 257,293 257,292 257,292 258,292 258,291 258,291 258,291 258,290 258,290 258,290 258,290 258,289 258,289 258,289 258,289 258,288 259,289 259,288 259,288 259,288 259,287 259,287 259,287 259,286 259,286 259,286 259,285 259,285 259,285 260,285 260,285 260,285 260,284 260,284 260,284 260,284 260,284 260,284 260,284 260,284 260,284 260,284 261,284 261,284 261,284 261,284 261,284 261,284 261,285 261,285 261,285 261,285 261,286 261,286 261,286 262,286 262,286 262,286 262,286 262,285 262,285 262,285 262,285 262,286 262,285 262,285 262,285 262,285 263,285 263,285 263,285 263,286 263,286 263,286 263,287 263,288 263,288 263,289 263,290 263,291 263,291 264,292 264,292 264,292 264,293 264,293 264,293 264,294 264,294 264,294 264,294 264,294 264,294 264,294 265,293 265,293 265,293 265,293 265,293 265,293 265,293 265,293 265,293 265,293 265,293 265,292 265,292 266,292 266,292 266,292 266,292 266,291 266,291 266,291 266,291 266,290 266,290 266,290 266,290 266,289 267,289 267,289 267,289 267,289 267,289 267,289 267,289 267,289 267,289 267,289 267,289 267,290 267,290 268,291 268,291 268,291 268,291 268,291 268,291 268,291 268,291 268,291 268,291 268,291 268,291 268,291 269,291 269,291 269,291 269,291 269,291 269,291 269,290 269,290 269,290 269,290 269,290 269,291 269,290 270,290 270,290 270,290 270,289 270,289 270,288 270,288 270,287 270,287 270,286 270,285 270,285 270,284 271,284 271,283 271,283 271,283 271,282 271,282 271,282 271,282 271,281 271,281 271,281 271,281 271,281 272,281 272,281 272,281 272,282 272,282 272,282 272,282 272,282 272,281 272,281 272,280 272,279 272,279 273,278 273,277 273,277 273,276 273,276 273,275 273,274 273,273 273,273 273,272 273,271 273,270 273,270 274,269 274,268 274,268 274,267 274,267 274,267 274,267 274,267 274,267 274,267 274,266 274,266 274,266 275,266 275,265 275,265 275,265 275,265 275,265 275,264 275,264 275,264 275,264 275,263 275,263 275,263 276,262 276,262 276,261 276,260 276,260 276,260 276,260 276,261 276,261 276,261 276,261 276,261 276,261 277,261 277,261 277,262 277,262 277,263 277,263 277,263 277,264 277,265 277,265 277,266 277,266 277,267 278,267 278,268 278,269 278,269 278,270 278,271 278,271 278,272 278,273 278,274 278,275 278,276 278,276 279,277 279,278 279,278 279,278 279,278 279,278 279,278 279,278 279,278 279,278 279,278 279,278 279,278 280,278 280,278 280,279 280,279 280,279 280,279 280,279 280,280 280,280 280,280 280,281 280,281 280,282 281,282 281,283 281,283 281,283 281,283 281,283 281,283 281,283 281,283 281,283 281,282 281,282 281,282 282,282 282,282 282,282 282,281 282,281 282,281 282,281 282,281 282,281 282,281 282,281 282,281 282,281 283,281 283,281 283,281 283,281 283,281 283,280 283,280 283,280 283,280 283,280 283,280 283,280 283,280 284,280 284,280 284,280 284,280 284,279 284,279 284,279 284,279 284,279 284,278 284,278 284,278 284,278 285,278 285,277 285,277 285,277 285,276 285,276 285,276 285,276 285,275 285,275 285,275 285,274 285,274 286,274 286,274 286,274 286,273 286,273 286,273 286,273 286,273 286,273 286,273 286,273 286,273 286,274 287,274 287,274 287,274 287,274 287,274 287,274 287,274 287,274 287,274 287,274 287,274 287,274 287,274 288,274 288,274 288,274 288,274 288,274 288,274 288,274 288,274 288,273 288,273 288,273 288,273 288,273 289,273 289,273 289,273 289,273 289,273 289,273 289,273 289,273 289,274 289,274 289,274 289,274 289,275 290,275 290,274 290,275 290,275 290,275 290,275 290,275 290,275 290,275 290,275 290,275 290,275 290,275 291,275 291,274 291,274 291,273 291,273 291,272 291,272 291,272 291,272 291,272 291,271 291,271 291,271 292,271 292,271 292,270 292,270 292,270 292,270 292,270 292,270 292,270 292,270 292,270 292,270 292,270 293,270 293,270 293,270 293,270 293,270 293,270 293,270 293,271 293,271 293,271 293,271 293,272 293,271 294,270 294,270 294,269 294,269 294,267 294,266 294,265 294,264 294,263 294,262 294,261 294,260 294,260 294,259 295,258 295,258 295,257 295,256 295,255 295,255 295,254 295,254 295,253 295,252 295,252 295,251 295,251 296,250 296,250 296,250 296,249 296,249 296,248 296,248 296,248 296,247 296,247 296,246 296,246 296,246 297,245 297,244 297,244 297,243 297,243 297,243 297,242 297,242 297,241 297,241 297,241 297,240 297,240 298,240 298,240 298,240 298,239 298,239 298,239 298,239 298,239 298,239 298,239 298,239 298,238 298,237 299,237 299,236 299,236 299,236 299,236 299,236 299,236 299,236 299,237 299,237 299,237 299,238 299,238 300,238 300,239 300,239 300,240 300,240 300,241 300,241 300,241 300,242 300,243 300,243 300,244 300,244 301,245 301,245 301,245 301,246 301,247 301,247 301,248 301,249 301,249 301,250 301,251 301,251 301,252 302,252 302,253 302,253 302,254 302,254 302,254 302,254 302,255 302,255 302,255 302,256 302,256 302,256 303,257 303,257 303,257 303,257 303,257 303,257 303,257 303,257 303,257 303,257 303,257 303,257 303,257 304,257 304,257 304,256 304,256 304,256 304,256 304,256 304,256 304,256 304,256 304,257 304,257 304,256 305,256 305,256 305,256 305,255 305,255 305,255 305,254 305,254 305,254 305,253 305,253 305,253 305,252 306,252 306,252 306,252 306,251 306,251 306,251 306,250 306,250 306,250 306,250 306,250 306,249 306,249 307,249 307,249 307,249 307,249 307,249 307,249 307,249 307,249 307,249 307,249 307,249 307,249 307,248 308,248 308,248 308,248 308,247 308,247 308,247 308,247 308,247 308,247 308,247 308,247 308,247 308,247 309,246 309,246 309,245 309,245 309,244 309,244 309,243 309,243 309,243 309,242 309,242 309,241 309,241 310,240 310,239 310,238 310,238 310,237 310,237 310,236 310,235 310,235 310,234 310,233 310,233 310,232 311,231 311,231 311,230 311,229 311,229 311,228 311,227 311,226 311,226 311,225 311,224 311,223 311,223 312,222 312,221 312,220 312,219 312,218 312,217 312,216 312,215 312,214 312,215 312,215 312,215 312,215 313,215 313,215 313,215 313,215 313,214 313,214 313,214 313,214 313,214 313,214 313,214 313,214 313,214 314,214 314,214 314,213 314,213 314,213 314,213 314,213 314,214 314,215 314,216 314,216 314,218 314,219 315,220 315,220 315,221 315,222 315,223 315,224 315,225 315,225 315,226 315,226 315,225 315,225 315,225 316,224 316,223 316,223 316,222 316,221 316,220 316,219 316,218 316,218 316,217 316,217 316,217 316,217 317,216 317,216 317,216 317,217 317,217 317,217 317,217 317,218 317,218 317,218 317,219 317,219 317,220 318,220 318,220 318,220 318,220 318,221 318,221 318,221 318,220 318,220 318,219 318,219 318,218 318,217 319,216 319,215 319,215 319,215 319,215 319,214 319,214 319,214 319,214 319,214 319,214 319,214 319,213 320,213 320,213 320,213 320,213 320,213 320,213 320,213 320,213 320,213 320,212 320,212 320,212 320,212 321,212 321,212 321,212 321,212 321,213 321,213 321,214 321,214 321,214 321,215 321,216 321,216 321,217 322,217 322,218 322,218 322,219 322,219 322,219 322,219 322,219 322,220 322,220 322,220 322,220 322,221 323,221 323,221 323,221 323,221 323,222 323,222 323,222 323,223 323,223 323,223 323,223 323,223 323,223 324,223 324,222 324,222 324,221 324,221 324,220 324,220 324,219 324,219 324,218 324,217 324,216 324,215 325,215 325,214 325,214 325,213 325,213 325,214 325,214 325,214 325,214 325,213 325,213 325,213 325,213 326,213 326,213 326,213 326,213 326,213 326,212 326,212 326,212 326,212 326,212 326,212 326,212 326,212 327,212 327,212 327,211 327,211 327,211 327,211 327,211 327,211 327,211 327,211 327,211 327,211 327,211 328,210 328,210 328,210 328,210 328,210 328,211 328,211 328,212 328,212 328,212 328,212 328,212 328,212 329,211 329,210 329,209 329,209 329,207 329,206 329,205 329,204 329,204 329,203 329,203 329,202 329,202 330,201 330,201 330,200 330,200 330,199 330,199 330,198 330,198 330,197 330,197 330,196 330,196 330,195 331,195 331,195 331,195 331,194 331,194 331,194 331,195 331,195 331,195 331,195 331,196 331,196 331,196 332,197 332,197 332,198 332,198 332,199 332,199 332,199 332,200 332,200 332,200 332,201 332,201 332,201 333,202 333,202 333,203 333,203 333,204 333,204 333,205 333,205 333,206 333,207 333,207 333,208 333,209 334,209 334,210 334,210 334,211 334,212 334,213 334,214 334,215 334,216 334,217 334,217 334,218 334,219 335,219 335,219 335,219 335,219 335,220 335,220 335,220 335,220 335,220 335,220 335,220 335,220 335,220 336,220 336,220 336,220 336,220 336,220 336,220 336,219 336,219 336,219 336,218 336,218 336,217 336,217 337,217 337,217 337,217 337,217 337,216 337,216 337,216 337,216 337,216 337,215 337,215 337,215 337,215 338,215 338,215 338,215 338,215 338,215 338,214 338,214 338,214 338,214 338,214 338,214 338,213 338,213 339,213 339,213 339,212 339,212 339,211 339,211 339,210 339,210 339,209 339,209 339,208 339,208 339,208 340,208 340,208 340,209 340,209 340,209 340,210 340,210 340,211 340,211 340,211 340,211 340,211 340,211 341,210 341,209 341,209 341,208 341,208 341,208 341,207 341,207 341,207 341,207 341,207 341,207 341,207 342,208 342,208 342,208 342,208 342,207 342,207 342,207 342,207 342,207 342,206 342,206 342,205 342,205 343,204 343,203 343,203 343,202 343,201 343,200 343,200 343,199 343,199 343,198 343,198 343,197 343,197 343,197 344,196 344,196 344,195 344,195 344,195 344,194 344,193 344,193 344,193 344,193 344,192 344,192 344,192 345,192 345,191 345,191 345,191 345,191 345,191 345,191 345,191 345,191 345,191 345,191 345,191 345,191 346,192 346,192 346,192 346,192 346,193 346,193 346,193 346,193 346,193 346,192 346,192 346,192 346,191 347,191 347,191 347,190 347,190 347,190 347,189 347,189 347,189 347,189 347,188 347,189 347,189 347,189 348,189 348,189 348,189 348,189 348,189 348,189 348,189 348,189 348,188 348,188 348,187 348,187 348,187 349,186 349,186 349,186 349,186 349,186 349,185 349,185 349,185 349,185 349,185 349,185 349,185 349,184 350,184 350,184 350,184 350,184 350,184 350,183 350,183 350,183 350,183 350,183 350,183 350,183 350,183 351,182 351,182 351,182 351,182 351,182 351,182 351,182 351,182 351,182 351,182 351,181 351,181 351,181 352,181 352,181 352,181 352,181 352,181 352,181 352,181 352,181 352,181 352,181 352,181 352,181 352,181 353,180 353,180 353,180 353,179 353,179 353,179 353,179 353,179 353,178 353,178 353,178 353,178 353,178 354,178 354,177 354,177 354,177 354,177 354,177 354,176 354,176 354,176 354,176 354,176 354,175 354,175 355,175 355,175 355,175 355,174 355,174 355,174 355,174 355,173 355,173 355,173 355,173 355,172 355,172 356,172 356,172 356,172 356,171 356,171 356,171 356,171 356,171 356,170 356,170 356,170 356,169 356,169 357,169 357,169 357,169 357,169 357,169 357,169 357,169 357,169 357,169 357,169 357,169 357,169 357,169 358,169 358,169 358,169 358,169 358,169 358,169 358,170 358,170 358,170 358,171 358,171 358,172 358,172 359,173 359,173 359,174 359,175 359,175 359,176 359,177 359,178 359,179 359,180 359,180 359,181 359,181 360,181 360,181 360,181 360,182 360,182 360,182 360,182 360,182 360,182 360,182 360,182 360,182 360,181 361,181 361,181 361,181 361,181 361,181 361,181 361,181 361,181 361,181 361,181 361,182 361,182 361,182 362,182 362,182 362,183 362,183 362,183 362,183 362,184 362,185 362,185 362,186 362,186 362,187 362,187 363,188 363,189 363,190 363,190 363,191 363,192 363,193 363,194 363,194 363,194 363,194 363,195 363,195 364,195 364,195 364,194 364,194 364,194 364,194 364,193 364,193 364,193 364,192 364,192 364,192 364,191 365,191 365,191 365,190 365,190 365,190 365,189 365,189 365,188 365,188 365,188 365,188 365,188 365,188 366,188 366,188 366,187 366,187 366,187 366,187 366,187 366,187 366,187 366,187 366,187 366,187 366,187 367,187 367,187 367,186 367,186 367,186 367,186 367,186 367,187 367,187 367,186 367,186 367,186 367,186 368,186 368,185 368,185 368,185 368,184 368,184 368,184 368,183 368,183 368,182 368,182 368,181 368,181 369,181 369,180 369,180 369,180 369,179 369,179 369,178 369,178 369,178 369,178 369,178 369,177 369,177 370,177 370,177 370,177 370,177 370,176 370,176 370,176 370,177 370,177 370,177 370,177 370,177 370,178 371,178 371,179 371,179 371,180 371,180 371,180 371,181 371,181 371,181 371,182 371,182 371,182 371,183 372,183 372,184 372,185 372,185 372,186 372,186 372,187 372,187 372,187 372,188 372,188 372,188 372,188 373,188 373,189 373,189 373,189 373,189 373,189 373,189 373,188 373,188 373,188 373,187 373,187 373,186 374,186 374,185 374,184 374,184 374,183 374,182 374,182 374,181 374,180 374,179 374,179 374,178 374,178 375,177 375,176 375,176 375,175 375,175 375,174 375,174 375,174 375,174 375,173 375,173 375,173 375,173 376,173 376,174 376,174 376,174 376,174 376,174 376,174 376,174 376,173 376,173 376,173 376,172 376,172 377,171 377,171 377,170 377,170 377,169 377,169 377,168 377,168 377,168 377,167 377,167 377,167 377,167 378,167 378,167 378,167 378,167 378,167 378,167 378,167 378,166 378,166 378,166 378,166 378,166 378,166 379,165 379,165 379,165 379,165 379,165 379,164 379,164 379,164 379,164 379,164 379,164 379,164 379,164 380,163 380,162 380,162 380,161 380,160 380,159 380,158 380,156 380,155 380,154 380,153 380,152 380,151 381,150 381,149 381,148 381,148 381,147 381,146 381,146 381,145 381,145 381,144 381,144 381,144 381,143 382,143 382,143 382,142 382,142 382,142 382,141 382,141 382,141 382,141 382,141 382,141 382,140 382,140 383,140 383,140 383,140 383,140 383,140 383,140 383,141 383,141 383,141 383,141 383,141 383,142 383,142 384,142 384,142 384,142 384,142 384,142 384,142 384,142 384,142 384,143 384,143 384,144 384,144 384,144 385,144 385,144 385,144 385,144 385,143 385,143 385,143 385,143 385,143 385,143 385,143 385,144 385,144 386,145 386,145 386,146 386,147 386,148 386,148 386,149 386,150 386,150 386,151 386,151 386,151 386,151 387,151 387,151 387,151 387,151 387,150 387,150 387,150 387,150 387,150 387,150 387,150 387,150 387,150 388,150 388,150 388,150 388,150 388,150 388,150 388,151 388,151 388,150 388,150 388,150 388,150 388,150 389,150 389,150 389,151 389,151 389,151 389,151 389,152 389,152 389,152 389,152 389,152 389,153 389,153 390,153 390,154 390,154 390,155 390,155 390,155 390,156 390,156 390,156 390,157 390,157 390,157 390,157 391,158 391,158 391,158 391,158 391,158 391,159 391,159 391,159 391,159 391,160 391,160 391,160 391,161 391,161 392,162 392,162 392,163 392,163 392,164 392,164 392,164 392,165 392,165 392,166 392,166 392,166 392,166 393,167 393,167 393,168 393,168 393,169 393,170 393,170 393,171 393,171 393,171 393,172 393,172 393,173 394,173 394,173 394,173 394,174 394,174 394,174 394,174 394,174 394,175 394,175 394,175 394,175 394,175 395,176 395,176 395,176 395,176 395,176 395,177 395,177 395,177 395,178 395,178 395,178 395,179 395,179 396,179 396,180 396,180 396,181 396,182 396,182 396,183 396,183 396,183 396,183 396,183 396,183 396,183 397,183 397,183 397,182 397,182 397,182 397,182 397,182 397,183 397,183 397,183 397,184 397,184 397,184 398,184 398,184 398,185 398,185 398,185 398,185 398,185 398,185 398,186 398,186 398,186 398,186 398,186 399,186 399,186 399,186 399,186 399,186 399,186 399,186 399,186 399,186 399,186 399,186 399,186 399,186 400,186 400,186 400,186 400,186 400,186 400,186 400,186 400,186 400,186 400,187 400,187 400,187 400,187 401,187 401,187 401,187 401,188 401,188 401,188 401,188 401,189 401,189 401,189 401,189 401,188 401,188 402,188 402,188 402,188 402,188 402,189 402,189 402,189 402,190 402,190 402,190 402,190 402,190 402,190 403,190 403,190 403,190 403,190 403,190 403,189 403,189 403,189 403,188 403,188 403,188 403,187 403,187 404,187 404,187 404,186 404,186 404,186 404,186 404,186 404,186 404,186 404,186 404,186 404,187 404,187 405,187 405,187 405,187 405,188 405,188 405,188 405,188 405,189 405,189 405,189 405,190 405,190 405,191 406,191 406,191 406,191 406,191 406,192 406,192 406,192 406,193 406,193 406,193 406,193 406,194 406,194 407,194 407,194 407,194 407,194 407,194 407,194 407,194 407,194 407,194 407,194 407,194 407,194 407,194 408,194 408,194 408,194 408,195 408,195 408,196 408,196 408,197 408,197 408,197 408,197 408,198 408,198 409,198 409,199 409,199 409,199 409,199 409,200 409,200 409,201 409,201 409,202 409,202 409,202 409,203 410,203 410,203 410,203 410,203 410,204 410,204 410,204 410,204 410,204 410,204 410,204 410,204 410,204 411,204 411,204 411,204 411,204 411,204 411,204 411,205 411,205 411,205 411,205 411,206 411,206 411,206 412,206 412,206 412,206 412,206 412,206 412,206 412,206 412,207 412,207 412,207 412,207 412,207 412,207 413,207 413,207 413,207 413,207 413,208 413,208 413,207 413,207 413,207 413,207 413,207 413,207 413,207 414,207 414,207 414,207 414,207 414,207 414,207 414,207 414,207 414,207 414,208 414,208 414,208 414,208 415,208 415,209 415,209 415,209 415,209 415,209 415,210 415,210 415,210 415,210 415,211 415,211 415,211 416,211 416,211 416,211 416,211 416,212 416,212 416,212 416,212 416,212 416,212 416,213 416,213 416,213 417,213 417,213 417,213 417,214 417,214 417,214 417,214 417,214 417,214 417,215 417,215 417,215 417,215 418,215 418,215 418,216 418,216 418,216 418,216 418,216 418,216 418,217 418,217 418,218 418,218 418,218 419,218 419,218 419,218 419,218 419,218 419,218 419,217 419,217 419,217 419,216 419,216 419,215 419,215 420,215 420,214 420,214 420,214 420,214 420,215 420,215 420,215 420,215 420,215 420,215 420,215 420,215 421,214 421,214 421,214 421,215 421,215 421,215 421,216 421,216 421,217 421,217 421,218 421,218 421,219 422,219 422,220 422,220 422,221 422,221 422,221 422,221 422,221 422,221 422,221 422,221 422,221 422,221 423,221 423,221 423,221 423,221 423,221 423,221 423,221 423,221 423,221 423,221 423,221 423,221 423,221 424,221 424,221 424,221 424,221 424,221 424,221 424,220 424,220 424,220 424,219 424,219 424,219 424,219 425,219 425,219 425,219 425,219 425,219 425,219 425,219 425,219 425,219 425,220 425,220 425,220 425,220 426,221 426,221 426,221 426,221 426,222 426,222 426,222 426,222 426,223 426,223 426,223 426,223 426,223 427,223 427,223 427,223 427,223 427,223 427,223 427,223 427,223 427,223 427,223 427,223 427,223 427,223 428,223 428,223 428,223 428,223 428,223 428,223 428,223 428,223 428,223 428,223 428,224 428,224 428,224 429,224 429,224 429,224 429,224 429,224 429,224 429,224 429,224 429,224 429,224 429,224 429,224 429,224 430,224 430,224 430,224 430,224 430,224 430,225 430,224 430,224 430,224 430,224 430,224 430,224 430,224 431,224 431,224 431,224 431,224 431,224 431,224 431,224 431,224 431,225 431,225 431,225 431,225 431,225 432,225 432,225 432,225 432,225 432,225 432,225 432,225 432,225 432,225 432,225 432,225 432,225 432,225 433,225 433,225 433,225 433,225 433,225 433,225 433,225 433,225 433,225 433,225 433,225 433,225 433,225 434,225 434,225 434,225 434,225 434,225 434,225 434,225 434,225 434,225 434,225 434,225 434,225 434,225 435,225 435,225 435,225 435,225 435,224 435,224 435,224 435,224 435,224 435,224 435,223 435,223 435,223 436,223 436,223 436,222 436,222 436,222 436,222 436,222 436,222 436,221 436,221 436,221 436,221 436,221 437,221 437,221 437,221 437,221 437,221 437,221 437,221 437,220 437,220 437,220 437,220 437,220 437,220 438,220 438,220 438,220 438,220 438,221 438,221 438,221 438,221 438,221 438,221 438,221 438,222 438,222 439,222 439,222 439,223 439,223 439,223 439,223 439,224 439,224 439,224 439,224 439,225 439,225 439,225 440,225 440,225 440,225 440,226 440,226 440,226 440,226 440,226 440,226 440,226 440,226 440,226 440,226 440,226 441,227 441,227 441,227 441,227 441,227 441,227 441,227 441,227 441,226 441,226 441,226 441,226 441,225 442,225 442,225 442,225 442,225 442,224 442,224 442,224 442,224 442,224 442,224 442,224 442,224 442,224 443,224 443,224 443,224 443,224 443,224 443,224 443,224 443,225 443,225 443,225 443,225 443,225 443,226 444,226 444,226 444,226 444,227 444,227 444,227 444,228 444,228 444,229 444,229 444,228 444,228 444,228 445,228 445,228 445,228 445,228 445,228 445,228 445,228 445,228 445,228 445,228 445,228 445,228 445,228 446,228 446,228 446,228 446,228 446,228 446,228 446,228 446,228 446,228 446,228 446,228 446,228 446,228 447,228 447,228 447,227 447,227 447,227 447,227 447,227 447,227 447,226 447,226 447,226 447,226 447,226 448,226 448,226 448,226 448,227 448,227 448,227 448,227 448,228 448,229 448,229 448,228 448,227 448,225 449,224 449,224 449,224 449,224 449,224 449,223 449,223 449,223 449,223 449,223 449,222 449,222 449,222 450,221 450,221 450,221 450,221 450,220 450,220 450,220 450,219 450,219 450,219 450,218 450,218 450,218 451,217 451,217 451,217 451,217 451,217 451,217 451,217 451,217 451,217 451,217 451,217 451,218 451,218 452,218 452,218 452,218 452,218 452,218 452,218 452,218 452,218 452,217 452,217 452,217 452,217 452,217 453,217 453,217 453,217 453,217 453,217 453,217 453,216 453,216 453,216 453,216 453,216 453,215 453,215 454,215 454,215 454,215 454,214 454,214 454,214 454,213 454,213 454,213 454,212 454,212 454,212 454,211 455,211 455,211 455,211 455,210 455,210 455,210 455,210 455,209 455,209 455,209 455,209 455,209 455,208 456,208 456,208 456,208 456,208 456,208 456,208 456,208 456,208 456,208 456,208 456,208 456,208 456,208 457,209 457,209 457,209 457,210 457,210 457,210 457,210 457,211 457,211 457,211 457,211 457,212 457,212 458,212 458,212 458,213 458,213 458,213 458,213 458,213 458,213 458,213 458,213 458,213 458,213 458,213 459,214 459,214 459,214 459,214 459,214 459,214 459,214 459,214 459,214 459,214 459,214 459,215 459,215 460,215 460,215 460,215 460,215 460,215 460,216 460,216 460,216 460,216 460,216 460,216 460,216 460,217 461,217 461,217 461,216 461,216 461,216 461,217 461,217 461,217 461,217 461,217 461,217 461,217 461,217 462,217 462,217 462,217 462,217 462,217 462,217 462,217 462,218 462,218 462,218 462,218 462,218 462,218 463,218 463,218 463,218 463,218 463,218 463,217 463,217 463,217 463,217 463,217 463,217 463,217 463,217 464,217 464,217 464,217 464,216 464,216 464,216 464,216 464,216 464,215 464,215 464,215 464,215 464,214 465,214 465,214 465,213 465,213 465,212 465,212 465,212 465,211 465,211 465,210 465,210 465,210 465,209 466,209 466,209 466,208 466,208 466,208 466,207 466,207 466,207 466,207 466,206 466,206 466,206 466,206 467,205 467,205 467,205 467,205 467,204 467,204 467,204 467,204 467,203 467,203 467,203 467,203 467,203 468,202 468,202 468,202 468,202 468,201 468,201 468,201 468,201 468,201 468,201 468,200 468,200 468,200 469,200 469,200 469,201 469,201 469,201 469,201 469,201 469,202 469,202 469,202 469,203 469,203 469,203 470,204 470,204 470,205 470,205 470,206 470,206 470,207 470,207 470,207 470,207 470,207 470,208 470,207 471,207 471,207 471,207 471,206 471,206 471,206 471,206 471,205 471,205 471,204 471,204 471,204 471,203 472,203 472,203 472,202 472,202 472,202 472,201 472,201 472,201 472,200 472,200 472,199 472,199 472,198 473,197 473,197 473,196 473,196 473,195 473,194 473,194 473,194 473,193 473,192 473,192 473,191 473,191 474,190 474,190 474,189 474,189 474,189 474,189 474,189 474,189 474,189 474,189 474,189 474,189 474,189 475,189 475,189 475,189 475,189 475,189 475,190 475,190 475,190 475,190 475,190 475,190 475,190 475,191 476,192 476,193 476,193 476,194 476,194 476,195 476,195 476,196 476,196 476,197 476,197 476,197 476,198 477,198 477,198 477,198 477,198 477,198 477,197 477,197 477,196 477,196 477,196 477,195 477,195 477,194 478,194 478,194 478,194 478,194 478,194 478,194 478,194 478,194 478,193 478,192 478,193 478,192 478,191 479,190 479,189 479,188 479,187 479,186 479,184 479,183 479,182 479,181 479,181 479,180 479,179 479,179 480,178 480,178 480,177 480,177 480,177 480,176 480,176 480,176 480,176 480,176 480,175 480,175 480,175 481,175 481,175 481,175 481,174 481,174 481,174 481,174 481,173 481,173 481,173 481,172 481,172 481,172 482,172 482,171 482,171 482,171 482,171 482,171 482,171 482,171 482,171 482,171 482,171 482,171 482,171 483,171 483,172 483,172 483,172 483,171 483,171 483,171 483,171 483,170 483,170 483,170 483,170 483,170 484,170 484,170 484,170 484,170 484,170 484,170 484,171 484,171 484,171 484,172 484,173 484,173 484,174 485,175 485,175 485,176 485,177 485,178 485,179 485,180 485,181 485,182 485,182 485,183 485,184 485,185 486,185 486,186 486,187 486,187 486,188 486,188 486,189 486,188 486,187 486,187 486,186 486,185 486,185 487,184 487,183 487,182 487,181 487,181 487,180 487,179 487,178 487,177 487,176 487,175 487,174 487,173 488,172 488,172 488,171 488,170 488,169 488,168 488,167 488,167 488,167 488,167 488,167 488,167 488,167 488,167 489,167 489,167 489,167 489,167 489,167 489,167 489,167 489,167 489,167 489,167 489,166 489,166 489,166 490,166 490,166 490,166 490,165 490,165 490,165 490,166 490,167 490,168 490,169 490,170 490,170 490,171 491,172 491,172 491,174 491,175 491,176 491,177 491,177 491,178 491,178 491,178 491,178 491,178 491,178 492,179 492,179 492,179 492,178 492,178 492,178 492,178 492,179 492,178 492,178 492,179 492,179 492,179 493,179 493,180 493,180 493,180 493,180 493,180 493,180 493,181 493,181 493,181 493,182 493,182 493,182 494,182 494,182 494,182 494,181 494,181 494,180 494,180 494,179 494,179 494,178 494,178 494,178 494,178 495,178 495,178 495,178 495,178 495,178 495,177 495,177 495,177 495,177 495,177 495,176 495,176 495,176 496,175 496,175 496,174 496,174 496,173 496,173 496,173 496,172 496,172 496,171 496,171 496,170 496,170 497,169 497,169 497,168 497,168 497,168 497,167 497,167 497,166 497,166 497,166 497,165 497,165 497,164 498,164 498,163 498,163 498,162 498,162 498,162 498,161 498,161 498,160 498,160 498,160 498,159 498,159 499,159 499,159 499,158 499,158 499,158 499,158 499,158 499,158 499,158 499,157 499,157 499,157 499,157 500,157 500,157 500,157 500,157 500,157 500,157 500,157 500,157 500,157 500,157 500,157 500,156 500,156 501,156 501,157 501,156 501,156 501,156 501,156 501,156 501,156 501,156 501,156 501,156 501,156 501,156 502,156 502,156 502,156 502,156 502,156 502,156 502,156 502,155 502,155 502,155 502,154 502,154 502,154 503,153 503,153 503,152 503,152 503,151 503,151 503,150 503,149 503,149 503,148 503,147 503,147 503,145 504,144 504,144 504,143 504,142 504,141 504,139 504,138 504,137 504,136 504,136 504,135 504,135 504,134 505,133 505,133 505,133 505,133 505,133 505,133 505,133 505,133 505,133 505,133 505,132 505,132 505,132 506,132 506,132 506,132 506,132 506,132 506,132 506,132 506,132 506,132 506,132 506,132 506,132 506,132 507,132 507,132 507,132 507,132 507,132 507,132 507,132 507,132 507,132 507,132 507,132 507,131 507,131 508,131 508,132 508,133 508,134 508,135 508,136 508,136 508,137 508,137 508,138 508,139 508,139 508,140 509,140 509,140 509,140 509,140 509,140 509,140 509,140 509,140 509,140 509,140 509,141 509,140 509,140 510,140 510,140 510,140 510,140 510,140 510,140 510,140 510,140 510,140 510,139 510,139 510,139 510,139 511,139 511,139 511,139 511,139 511,139 511,139 511,139 511,139 511,139 511,138 511,138 511,138 511,138 512,138 512,138 512,138 512,137 512,137 512,137 512,137 512,137 512,137 512,136 512,136 512,136 512,136 513,136 513,135 513,135 513,135 513,135 513,135 513,135 513,134 513,134 513,134 513,134 513,134 513,134 514,134 514,134 514,134 514,134 514,134 514,134 514,133 514,133 514,133 514,133 514,133 514,133 514,133 515,132 515,132 515,132 515,132 515,132 515,132 515,132 515,132 515,132 515,131 515,131 515,131 515,131 516,131 516,131 516,131 516,131 516,131 516,132 516,132 516,132 516,132 516,132 516,132 516,133 516,134 517,134 517,135 517,136 517,136 517,136 517,137 517,137 517,137 517,137 517,137 517,138 517,138 517,138 518,138 518,138 518,138 518,137 518,137 518,137 518,136 518,136 518,136 518,136 518,136 518,136 518,136 519,136 519,136 519,136 519,136 519,135 519,135 519,135 519,135 519,135 519,134 519,134 519,134 519,134 520,134 520,134 520,134 520,134 520,134 520,134 520,134 520,134 520,134 520,134 520,134 520,134 520,134 521,133 521,133 521,133 521,133 521,133 521,133 521,132 521,132 521,132 521,132 521,131 521,131 521,131 522,130 522,130 522,130 522,129 522,129 522,129 522,129 522,128 522,128 522,127 522,126 522,126 522,126 523,125 523,125 523,125 523,124 523,124 523,124 523,123 523,123 523,123 523,122 523,122 523,122 523,121 524,121 524,121 524,121 524,120 524,120 524,120 524,120 524,120 524,119 524,119 524,119 524,119 524,119 525,119 525,119 525,119 525,119 525,119 525,119 525,119 525,119 525,119 525,120 525,120 525,121 525,121 526,121 526,121 526,122 526,122 526,122 526,123 526,123 526,123 526,123 526,123 526,123 526,124 526,124 527,125 527,125 527,126 527,126 527,126 527,126 527,127 527,127 527,127 527,128 527,128 527,128 527,129 528,129 528,129 528,129 528,129 528,130 528,129 528,129 528,129 528,128 528,128 528,128 528,127 528,127 529,126 529,126 529,126 529,126 529,126 529,126 529,126 529,127 529,127 529,128 529,128 529,128 529,129 530,129 530,130 530,130 530,131 530,132 530,132 530,132 530,133 530,133 530,134 530,134 530,134 530,134 531,134 531,134 531,134 531,134 531,134 531,134 531,135 531,135 531,135 531,136 531,136 531,137 531,137 532,137 532,138 532,138 532,138 532,139 532,139 532,139 532,140 532,140 532,140 532,141 532,141 532,141 533,141 533,142 533,142 533,142 533,142 533,142 533,142 533,142 533,142 533,142 533,142 533,142 533,142 534,142 534,143 534,143 534,143 534,143 534,143 534,143 534,143 534,143 534,143 534,143 534,144 534,144 535,144 535,144 535,144 535,144 535,144 535,145 535,145 535,145 535,145 535,146 535,146 535,146 535,146 536,146 536,146 536,146 536,146 536,146 536,146 536,145 536,145 536,145 536,145 536,145 536,144 536,144 537,144 537,144 537,144 537,144 537,144 537,144 537,144 537,144 537,144 537,144 537,144 537,144 537,144 537,144 538,144 538,144 538,144 538,144 538,144 538,144 538,145 538,145 538,145 538,145 538,145 538,145 538,145 539,146 539,146 539,145 539,145 539,145 539,145 539,146 539,146 539,146 539,146 539,146 539,146 539,146 540,146 540,146 540,147 540,147 540,147 540,147 540,147 540,147 540,147 540,147 540,147 540,147 540,148 541,148 541,148 541,148 541,148 541,148 541,148 541,148 541,148 541,149 541,149 541,149 541,149 541,149 542,149 542,149 542,149 542,149 542,149 542,149 542,149 542,149 542,149 542,150 542,150 542,150 542,150 543,150 543,150 543,150 543,150 543,150 543,150 543,151 543,151 543,151 543,151 543,150 543,150 543,151 544,151 544,151 544,151 544,151 544,152 544,152 544,152 544,152 544,152 544,152 544,153 544,153 544,153 545,153 545,153 545,154 545,154 545,154 545,154 545,154 545,154 545,154 545,154 545,154 545,154 545,154 546,154 546,154 546,154 546,154 546,154 546,154 546,154 546,154 546,154 546,154 546,154 546,154 546,154 547,154 547,154 547,154 547,154 547,155 547,155 547,155 547,155 547,155 547,155 547,155 547,155 547,155 548,155 548,155 548,155 548,155 548,155 548,155 548,155 548,155 548,154 548,154 548,154 548,154 548,153 549,153 549,153 549,153 549,153 549,152 549,152 549,152 549,152 549,152 549,152 549,151 549,151 549,151 550,151 550,151 550,150 550,150 550,150 550,150 550,150 550,150 550,150 550,149 550,149 550,149 550,149 551,149 551,149 551,149 551,148 551,148 551,148 551,148 551,147 551,147 551,147 551,146 551,146 551,146 552,146 552,145 552,145 552,145 552,145 552,145 552,144 552,144 552,144 552,144 552,143 552,143 552,143 553,143 553,142 553,142 553,142 553,142 553,142 553,141 553,141 553,141 553,141 553,140 553,140 553,140 554,140 554,139 554,140 554,139 554,139 554,139 554,139 554,139 554,139 554,139 554,139 554,139 554,139 555,138 555,138 555,138 555,138 555,138 555,137 555,137 555,137 555,136 555,136 555,136 555,135 555,135 556,135 556,135 556,134 556,134 556,134 556,134 556,134 556,134 556,134 556,134 556,134 556,134 556,134 557,135 557,135 557,135 557,135 557,136 557,136 557,136 557,136 557,137 557,137 557,137 557,137 557,138 558,138 558,138 558,138 558,139 558,139 558,140 558,140 558,140 558,141 558,141 558,142 558,143 558,143 559,144 559,144 559,144 559,144 559,144 559,145 559,145 559,145 559,146 559,147 559,148 559,149 559,149 560,148 560,148 560,148 560,148 560,148 560,148 560,148 560,148 560,148 560,148 560,148 560,148 560,148 561,148 561,149 561,149 561,149 561,149 561,150 561,150 561,150 561,150 561,150 561,150 561,150 561,151 562,151 562,151 562,151 562,151 562,151 562,151 562,151 562,152 562,152 562,152 562,152 562,152 562,152 563,152 563,153 563,153 563,153 563,153 563,153 563,153 563,154 563,154 563,154 563,154 563,154 563,155 564,155 564,155 564,155 564,155 564,155 564,156 564,156 564,156 564,156 564,157 564,157 564,157 564,157 565,157 565,157 565,157 565,157 565,157 565,158 565,158 565,158 565,158 565,158 565,158 565,158 565,158 566,158 566,158 566,158 566,158 566,158 566,158 566,158 566,158 566,158 566,158 566,159 566,159 566,159 567,159 567,159 567,159 567,159 567,159 567,159 567,159 567,159 567,158 567,158 567,158 567,158 567,158 568,159 568,159 568,159 568,159 568,159 568,159 568,159 568,159 568,159 568,159 568,159 568,159 568,159 569,159 569,160 569,160 569,159 569,159 569,159 569,159 569,160 569,160 569,160 569,160 569,160 569,160 570,159 570,159 570,159 570,159 570,159 570,159 570,159 570,159 570,158 570,158 570,159 570,159 570,159 571,159 571,159 571,158 571,158 571,158 571,158 571,159 571,159 571,159 571,158 571,158 571,158 571,158 572,158 572,158 572,158 572,158 572,158 572,158 572,158 572,158 572,158 572,158 572,158 572,158 572,158 573,158 573,158 573,158 573,158 573,158 573,158 573,158 573,158 573,158 573,158 573,158 573,158 573,157 574,157 574,157 574,157 574,157 574,157 574,157 574,157 574,157 574,157 574,157 574,157 574,157 574,157 575,157 575,157 575,157 575,157 575,157 575,157 575,156 575,156 575,156 575,156 575,156 575,156 575,156 576,156 576,156 576,156 576,156 576,156 576,155 576,155 576,155 576,155 576,155 576,155 576,155 576,154 577,154 577,154 577,154 577,154 577,154 577,154 577,154 577,154 577,154 577,154 577,154 577,154 577,153 578,153 578,153 578,153 578,153 578,152 578,152 578,152 578,151 578,151 578,151 578,150 578,150 578,150 579,149 579,149 579,148 579,148 579,148 579,147 579,147 579,147 579,146 579,146 579,145 579,145 579,144 580,144 580,144 580,143 580,143 580,143 580,142 580,142 580,141 580,141 580,140 580,140 580,139 580,139 581,138 581,138 581,137 581,137 581,137 581,136 581,136 581,136 581,135 581,135 581,135 581,135 581,135 582,134 582,134 582,134 582,134 582,134 582,135 582,135 582,135 582,136 582,136 582,137 582,137 582,137 583,138 583,138 583,139 583,139 583,139 583,140 583,140 583,140 583,141 583,141 583,141 583,142 583,142 584,142 584,143 584,143 584,143 584,143 584,144 584,144 584,144 584,145 584,145 584,145 584,146 584,146 585,147 585,147 585,147 585,147 585,147 585,148 585,148 585,148 585,148 585,148 585,148 585,148 585,148 585,148 586,148 586,148 586,148 586,148 586,148 586,148 586,148 586,148 586,149 586,148 586,148 586,148 586,148 587,148 587,148 587,148 587,148 587,147 587,147 587,147 587,147 587,147 587,148 587,148 587,148 587,148 588,148 588,148 588,148 588,148 588,148 588,148 588,148 588,148 588,148 588,148 588,148 588,148 588,148 589,148 589,148 589,148 589,148 589,149 589,149 589,149 589,149 589,149 589,149 589,149 589,149 589,149 590,149 590,150 590,150 590,150 590,150 590,150 590,150 590,150 590,150 590,150 590,150 590,150 590,151 591,151 591,151 591,151 591,151 591,151 591,151 591,151 591,151 591,151 591,151 591,151 591,151 591,151 592,151 592,151 592,151 592,151 592,151 592,151 592,151 592,151 592,150 592,150 592,150 592,150 592,150 593,150 593,150 593,150 593,150 593,150 593,150 593,149 593,149 593,149 593,149 593,149 593,150 593,150 594,150 594,150 594,150 594,150 594,150 594,150 594,150 594,150 594,150 594,150 594,150 594,150 594,150 595,151 595,151 595,151 595,151 595,151 595,151 595,152 595,152 595,151 595,150 595,149 595,148 595,147 596,146 596,146 596,145 596,145 596,145 596,145 596,144 596,144 596,144 596,144 596,144 596,144 596,144 597,144 597,144 597,144 597,144 597,144 597,144 597,144 597,144 597,143 597,144 597,144 597,144 597,144 598,144 598,144 598,144 598,144 598,144 598,144 598,145 598,145 598,145 598,145 598,145 598,145 598,145 599,145 599,145 599,145 599,145 599,146 599,146 599,146 599,146 599,146 599,146 599,146 599,146 599,146 600,146 600,146 600,146 600,146 600,146 600,146 600,145 600,145 600,145 600,145 600,145 600,145 600,144 601,144 601,144 601,144 601,144 601,143 601,143 601,143 601,143 601,143 601,142 601,142 601,142 601,142 602,141 602,141 602,141 602,141 602,141 602,140 602,140 602,140 602,139 602,139 602,138 602,138 602,138 603,137 603,137 603,137 603,136 603,136 603,136 603,136 603,136 603,136 603,136 603,136 603,136 603,136 604,136 604,136 604,136 604,136 604,136 604,136 604,136 604,136 604,136 604,136 604,136 604,136 604,136 605,136 605,136 605,136 605,136 605,136 605,136 605,136 605,136 605,136 605,136 605,136 605,136 605,136 606,136 606,136 606,136 606,136 606,136 606,136 606,136 606,136 606,136 606,137 606,138 606,139 606,140 607,140 607,140 607,140 607,140 607,140 607,140 607,140 607,140 607,141 607,141 607,141 607,141 607,141 608,141 608,141 608,142 608,142 608,142 608,142 608,142 608,142 608,142 608,142 608,142 608,143 608,143 609,143 609,143 609,143 609,144 609,144 609,144 609,144 609,144 609,144 609,144 609,144 609,144 609,144 610,145 610,145 610,145 610,145 610,145 610,145 610,145 610,145 610,145 610,145 610,146 610,146 610,146 611,146 611,146 611,146 611,146 611,146 611,146 611,146 611,146 611,146 611,146 611,146 611,146 611,146 612,146 612,146 612,146 612,146 612,146 612,146 612,147 612,147 612,147 612,147 612,147 612,147 612,147 613,147 613,147 613,147 613,147 613,147 613,147 613,147 613,147 613,147 613,147 613,147 613,147 613,147 614,147 614,147 614,147 614,147 614,147 614,147 614,147 614,147 614,147 614,147 614,147 614,147 614,147 615,147 615,147 615,147 615,147 615,147 615,147 615,147 615,147 615,147 615,147 615,147 615,147 615,147 616,147 616,147 616,147 616,147 616,147 616,147 616,147 616,147 616,147 616,147 616,147 616,147 616,147 617,147 617,147 617,147 617,147 617,147 617,146 617,146 617,146 617,146 617,146 617,146 617,146 617,146 618,146 618,146 618,146 618,146 618,146 618,146 618,146 618,146 618,146 618,146 618,146 618,146 618,146 619,146 619,146 619,146 619,145 619,145 619,145 619,145 619,145 619,145 619,145 619,145 619,145 619,145 620,145 620,145 620,145 620,145 620,145 620,145 620,145 620,145 620,145 620,145 620,145 620,146 620,146 621,146 621,146 621,146 621,146 621,146 621,146 621,146 621,146 621,146 621,146 621,146 621,146 621,146 622,146 622,146 622,146 622,146 622,146 622,146 622,146 622,145 622,145 622,145 622,145 622,145 622,145 623,145 623,145 623,145 623,145 623,145 623,145 623,145 623,144 623,144 623,144 623,144 623,144 623,144 624,144 624,144 624,144 624,144 624,144 624,144 624,144 624,144 624,144 624,144 624,144 624,144 624,144 625,144 625,144 625,144 625,144 625,144 625,144 625,144 625,144 625,144 625,144 625,144 625,144 625,144 626,144 626,144 626,144 626,143 626,143 626,143 626,143 626,143 626,143 626,143 626,143 626,144 626,144 627,144 627,143 627,143 627,143 627,144 627,144 627,144 627,144 627,145 627,145 627,145 627,145 627,145 628,145 628,145 628,145 628,145 628,145 628,144 628,144 628,144 628,144 628,144 628,144 628,144 628,144 629,144 629,144 629,144 629,144 629,144 629,144 629,144 629,144 629,144 629,143 629,143 629,143 629,143 630,143 630,143 630,143 630,143 630,143 630,142 630,142 630,142 630,142 630,142 630,142 630,142 630,142 631,142 631,142 631,142 631,142 631,142 631,142 631,142 631,142 631,142 631,142 631,142 631,142 631,141 632,141 632,141 632,141 632,141 632,141 632,141 632,141 632,141 632,141 632,141 632,141 632,141 632,141 633,141 633,141 633,141 633,141 633,141 633,141 633,141 633,141 633,141 633,141 633,141 633,141 633,141 634,141 634,141 634,141 634,141 634,141 634,141 634,141 634,141 634,141 634,141 634,141 634,141 634,141 634,141 635,141 635,141 635,141 635,141 635,141 635,141 635,141 635,141 635,141 635,141 635,141 635,141 635,141 636,141 636,141 636,141 636,141 636,141 636,141 636,141 636,141 636,141 636,141 636,141 636,140 636,140 637,140 637,140 637,140 637,140 637,140 637,140 637,140 637,140 637,140 637,140 637,140 637,140 637,140 638,140 638,140 638,140 638,140 638,140 638,140 638,140 638,140 638,140 638,140 638,140 638,140 638,140 639,140 639,140 639,140 639,140 639,140 639,140 639,140 639,140 639,139 639,139 639,139 639,140 639,140 640,140 640,140 640,140 640,140 640,140 640,140 640,140 640,139 640,139 640,139 640,139 640,139 640,139 641,138 641,138 641,138 641,138 641,137 641,137 641,137 641,137 641,137 641,136 641,136 641,136 641,136 642,136 642,135 642,135 642,135 642,135 642,135 642,135 642,135 642,135 642,134 642,134 642,134 642,134 643,134 643,134 643,134 643,134 643,134 643,134 643,134 643,134 643,134 643,134 643,133 643,133 643,133 644,133 644,133 644,133 644,133 644,133 644,133 644,133 644,133 644,133 644,133 644,133 644,134 644,134 645,134 645,134 645,134 645,134 645,134 645,134 645,134 645,134 645,134 645,134 645,134 645,134 645,134 646,134 646,134 646,134 646,134 646,133 646,133 646,133 646,133 646,133 646,133 646,133 646,133 646,133 647,133 647,133 647,133 647,133 647,133 647,133 647,132 647,132 647,132 647,132 647,132 647,132 647,132 648,132 648,132 648,131 648,131 648,131 648,131 648,130 648,129 648,129 648,129 648,129 648,129 648,129 649,129 649,128 649,128 649,128 649,128 649,128 649,128 649,128 649,127 649,127 649,127 649,127 649,127 650,126 650,126 650,126 650,126 650,126 650,126 650,126 650,126 650,126 650,126 650,126 650,126 650,126 651,126 651,126 651,126 651,126 651,126 651,125 651,125 651,125 651,125 651,125 651,125 651,125 651,124 652,124 652,124 652,123 652,123 652,123 652,123 652,122 652,122 652,122 652,122 652,122 652,121 652,121 653,121 653,121 653,121 653,121 653,120 653,120 653,120 653,120 653,120 653,120 653,119 653,119 653,119 654,119 654,119 654,119 654,120 654,120 654,120 654,120 654,120 654,120 654,120 654,120 654,120 654,120 655,120 655,120 655,120 655,120 655,120 655,120 655,120 655,120 655,120 655,120 655,120 655,120 655,120 656,120 656,120 656,120 656,120 656,120 656,120 656,120 656,120 656,120 656,120 656,120 656,120 656,120 657,121 657,121 657,121 657,121 657,121 657,121 657,121 657,121 657,121 657,121 657,121 657,121 657,121 658,121 658,121 658,121 658,121 658,121 658,121 658,121 658,121 658,121 658,121 658,121 658,121 658,122 659,122 659,121 659,121 659,121 659,121 659,121 659,121 659,121 659,121 659,121 659,121 659,121 659,121 660,121 660,121 660,120 660,120 660,120 660,120 660,120 660,120 660,120 660,120 660,119 660,119 660,119 661,119 661,118 661,118 661,118 661,118 661,118 661,117 661,117 661,117 661,117 661,116 661,116 661,116 662,116 662,115 662,115 662,115 662,115 662,115 662,114 662,114 662,114 662,114 662,114 662,114 662,114 663,114 663,114 663,114 663,114 663,114 663,114 663,114 663,114 663,114 663,114 663,114 663,114 663,114 664,114 664,114 664,114 664,114 664,114 664,114 664,114 664,114 664,114 664,114 664,114 664,114 664,114 665,113 665,113 665,112 665,112 665,112 665,111 665,111 665,110 665,110 665,109 665,109 665,108 665,108 666,107 666,106 666,106 666,105 666,104 666,104 666,103 666,103 666,102 666,101 666,100 666,98 666,97 667,95 667,94 667,93 667,92 667,92 667,92 667,91 667,91 667,91 667,91 667,90 667,90 667,90 668,89 668,89 668,90 668,90 668,90 668,90 668,90 668,91 668,91 668,91 668,92 668,92 668,92 669,93 669,93 669,93 669,94 669,94 669,95 669,95 669,95 669,95 669,96 669,96 669,96 669,96 670,96 670,97 670,97 670,97 670,97 670,97 670,98 670,98 670,98 670,99 670,99 670,99 670,100 671,100 671,100 671,101 671,101 671,102 671,102 671,102 671,103 671,103 671,103 671,103 671,103 671,103 672,103 672,103 672,103 672,103 672,103 672,103 672,102 672,102 672,102 672,102 672,102 672,102 672,103 673,103 673,103 673,104 673,104 673,105 673,105 673,105 673,105 673,106 673,106 673,106 673,106 673,107 674,107 674,107 674,107 674,107 674,107 674,107 674,107 674,108 674,108 674,107 674,107 674,107 674,108 675,108 675,108 675,108 675,108 675,108 675,108 675,108 675,107 675,107 675,107 675,107 675,107 675,107 676,107 676,107 676,107 676,107 676,107 676,107 676,107 676,107 676,108 676,108 676,108 676,108 676,108 677,108 677,108 677,108 677,109 677,109 677,109 677,109 677,110 677,110 677,110 677,110 677,111 677,111 678,111 678,112 678,112 678,112 678,112 678,113 678,113 678,113 678,113 678,113 678,113 678,113 678,113 679,113 679,113 679,113 679,113 679,113 679,113 679,113 679,113 679,113 679,113 679,113 679,113 679,113 680,113 680,113 680,113 680,113 680,113 680,113 680,113 680,113 680,113 680,113 680,113 680,113 680,113 681,112 681,112 681,112 681,112 681,112 681,112 681,112 681,112 681,112 681,111 681,111 681,111 681,111 682,111 682,110 682,110 682,110 682,110 682,110 682,109 682,109 682,109 682,109 682,109 682,109 682,109 683,109 683,109 683,109 683,109 683,109 683,109 683,109 683,109 683,109 683,109 683,109 683,109 683,109 683,109 684,109 684,110 684,110 684,110 684,111 684,111 684,111 684,111 684,111 684,112 684,112 684,112 684,112 685,112 685,112 685,112 685,112 685,112 685,112 685,113 685,113 685,113 685,113 685,113 685,114 685,114 686,114 686,114 686,114 686,114 686,115 686,115 686,115 686,116 686,116 686,117 686,117 686,116 686,116 687,116 687,117 687,117 687,117 687,117 687,117 687,117 687,117 687,117 687,117 687,117 687,117 687,117 688,117 688,117 688,117 688,117 688,117 688,117 688,117 688,117 688,117 688,117 688,117 688,117 688,117 689,117 689,118 689,118 689,118 689,117 689,117 689,117 689,117 689,117 689,117 689,117 689,116 689,116 690,116 690,116 690,116 690,116 690,115 690,115 690,115 690,115 690,114 690,114 690,114 690,114 690,114 691,113 691,113 691,113 691,113 691,113 691,112 691,112 691,112 691,112 691,112 691,111 691,111 691,111 692,111 692,111 692,110 692,110 692,110 692,110 692,109 692,109 692,109 692,108 692,108 692,108 692,107 693,107 693,107 693,107 693,106 693,106 693,106 693,106 693,105 693,105 693,105 693,105 693,105 693,105 694,104 694,104 694,104 694,104 694,103 694,103 694,103 694,103 694,103 694,103 694,103 694,104 694,104 695,104 695,104 695,104 695,105 695,105 695,105 695,105 695,105 695,105 695,105 695,105 695,105 695,106 696,106 696,106 696,106 696,106 696,106 696,106 696,106 696,106 696,106 696,107 696,107 696,107 696,107 697,107 697,107 697,107 697,107 697,107 697,108 697,108 697,108 697,108 697,108 697,108 697,108 697,108 698,109 698,109 698,109 698,109 698,109 698,109 698,109 698,109 698,109 698,110 698,110 698,110 698,110 699,110 699,110 699,110 699,110 699,110 699,111 699,111 699,111 699,111 699,111 699,111 699,111 699,111 700,111 700,112 700,112 700,112 700,112 700,112 700,112 700,112 700,112 700,112 700,113 700,113 700,113 701,113 701,113 701,113 701,113 701,113 701,113 701,114 701,114 701,114 701,114 701,114 701,114 701,114 702,114 702,114 702,115 702,115 702,115 702,115 702,115 702,115 702,115 702,115 702,115 702,115 702,115 703,115 703,115 703,115 703,115 703,115 703,115 703,114 703,114 703,114 703,114 703,114 703,114 703,114 704,114 704,114 704,114 704,114 704,114 704,114 704,115 704,115 704,115 704,115 704,115 704,115 704,116 705,116 705,116 705,116 705,115 705,115 705,115 705,115 705,115 705,115 705,115 705,116 705,116 705,116 706,116 706,116 706,116 706,116 706,116 706,116 706,116 706,116 706,116 706,116 706,116 706,116 706,116 707,116 707,116 707,116 707,116 707,116 707,116 707,117 707,117 707,117 707,117 707,117 707,117 707,117 708,117 708,117 708,117 708,117 708,117 708,117 708,117 708,116 708,116 708,116 708,116 708,117 708,117 709,117 709,117 709,117 709,117 709,117 709,118 709,118 709,118 709,118 709,118 709,119 709,118 709,118 710,118 710,118 710,118 710,117 710,117 710,116 710,116 710,115 710,115 710,115 710,115 710,114 710,114 711,114 711,114 711,115 711,115 711,115 711,115 711,115 711,115 711,115 711,115 711,115 711,114 711,114 712,114 712,114 712,114 712,114 712,115 712,115 712,115 712,116 712,116 712,116 712,116 712,116 712,117 713,117 713,117 713,117 713,117 713,117 713,117 713,117 713,117 713,117 713,117 713,117 713,117 713,117 714,117 714,117 714,117 714,117 714,118 714,118 714,118 714,118 714,118 714,118 714,118 714,118 714,118 715,118 715,118 715,118 715,118 715,118 715,119 715,119 715,119 715,119 715,119 715,119 715,120 715,120 716,120 716,120 716,120 716,120 716,120 716,121 716,121 716,121 716,121 716,121 716,121 716,121 716,122 717,122 717,122 717,122 717,122 717,122 717,123 717,123 717,123 717,123 717,123 717,123 717,123 717,124 718,124 718,124 718,124 718,124 718,124 718,125 718,125 718,125 718,125 718,125 718,125 718,125 718,126 719,126 719,126 719,126 719,126 719,126 719,126 719,127 719,127 719,127 719,127 719,127 719,127 719,127 720,127 720,127 720,127 720,127 720,127 720,127 720,127 720,127 720,127 720,127 720,127 720,127 720,127 721,127 721,127 721,127 721,127 721,127 721,127 721,127 721,127 721,127 721,127 721,127 721,127 721,127 722,127 722,127 722,127 722,127 722,127 722,127 722,127 722,127 722,127 722,127 722,127 722,127 722,127 723,127 723,127 723,127 723,127 723,127 723,127 723,127 723,127 723,127 723,127 723,127 723,127 723,127 724,127 724,127 724,127 724,127 724,127 724,127 724,127 724,127 724,127 724,127 724,127 724,127 724,127 725,127 725,127 725,127 725,127 725,127 725,127 725,127 725,127 725,127 725,127 725,127 725,127 725,127 726,127 726,127 726,127 726,127 726,126 726,126 726,126 726,126 726,126 726,126 726,126 726,126 726,126 727,126 727,126 727,126 727,126 727,126 727,126 727,126 727,126 727,126 727,126 727,126 727,126 727,126 728,126 728,125 728,125 728,125 728,125 728,125 728,125 728,125 728,125 728,125 728,125 728,125 728,125 729,125 729,125 729,125 729,125 729,125 729,125 729,125 729,124 729,124 729,124 729,124 729,124 729,124 730,124 730,124 730,124 730,124 730,124 730,124 730,123 730,123 730,123 730,123 730,123 730,123 730,123 731,124 731,124 731,124 731,124 731,124 731,124 731,124 731,124 731,124 731,124 731,124 731,124 731,123 731,123 732,123 732,123 732,123 732,123 732,123 732,123 732,123 732,123 732,123 732,123 732,123 732,123 732,123 733,123 733,123 733,123 733,123 733,123 733,123 733,123 733,123 733,123 733,123 733,123 733,123 733,123 734,123 734,123 734,123 734,123 734,123 734,123 734,123 734,123 734,123 734,123 734,123 734,123 734,123 735,123 735,123 735,124 735,124 735,124 735,124 735,124 735,124 735,125 735,125 735,125 735,125 735,125 736,125 736,125 736,125 736,125 736,125 736,125 736,125 736,125 736,125 736,125 736,125 " vector-effect="non-scaling-stroke"></polyline>
</g></svg>