<!-- Generator: Adobe Illustrator 19.2.0, SVG Export Plug-In  -->
<!DOCTYPE svg PUBLIC "-//W3C//DTD SVG 1.1//EN" "http://www.w3.org/Graphics/SVG/1.1/DTD/svg11.dtd" [
	<!ENTITY ns_flows "http://ns.adobe.com/Flows/1.0/">
	<!ENTITY st0 "fill:none;stroke:#FFFFFF;stroke-linecap:square;stroke-linejoin:bevel;stroke-dasharray:1,2;">
	<!ENTITY st1 "fill:#624949;">
]>
<svg version="1.1"
	 xmlns="http://www.w3.org/2000/svg" xmlns:xlink="http://www.w3.org/1999/xlink" xmlns:a="http://ns.adobe.com/AdobeSVGViewerExtensions/3.0/"
	 x="0px" y="0px" width="759px" height="380px" preserveAspectRatio="none" viewBox="0 0 759 380" style="enable-background:new 0 0 759 380;"
	 xml:space="preserve">
<defs>
</defs>
<g transform="matrix(1,0,0,1,0,0)">
	<line vector-effect="non-scaling-stroke" style="&st0;" x1="0.5" y1="0.5" x2="0.5" y2="379.5"/>
	<line vector-effect="non-scaling-stroke" style="&st0;" x1="95.5" y1="0.5" x2="95.5" y2="379.5"/>
	<line vector-effect="non-scaling-stroke" style="&st0;" x1="190.5" y1="0.5" x2="190.5" y2="379.5"/>
	<line vector-effect="non-scaling-stroke" style="&st0;" x1="284.5" y1="0.5" x2="284.5" y2="379.5"/>
	<line vector-effect="non-scaling-stroke" style="&st0;" x1="379.5" y1="0.5" x2="379.5" y2="379.5"/>
	<line vector-effect="non-scaling-stroke" style="&st0;" x1="474.5" y1="0.5" x2="474.5" y2="379.5"/>
	<line vector-effect="non-scaling-stroke" style="&st0;" x1="569.5" y1="0.5" x2="569.5" y2="379.5"/>
	<line vector-effect="non-scaling-stroke" style="&st0;" x1="663.5" y1="0.5" x2="663.5" y2="379.5"/>
	<line vector-effect="non-scaling-stroke" style="&st0;" x1="758.5" y1="0.5" x2="758.5" y2="379.5"/>
	<line vector-effect="non-scaling-stroke" style="&st0;" x1="0.5" y1="379.5" x2="758.5" y2="379.5"/>
	<line vector-effect="non-scaling-stroke" style="&st0;" x1="0.5" y1="325.5" x2="758.5" y2="325.5"/>
	<line vector-effect="non-scaling-stroke" style="&st0;" x1="0.5" y1="270.5" x2="758.5" y2="270.5"/>
	<line vector-effect="non-scaling-stroke" style="&st0;" x1="0.5" y1="216.5" x2="758.5" y2="216.5"/>
	<line vector-effect="non-scaling-stroke" style="&st0;" x1="0.5" y1="162.5" x2="758.5" y2="162.5"/>
	<line vector-effect="non-scaling-stroke" style="&st0;" x1="0.5" y1="108.5" x2="758.5" y2="108.5"/>
	<line vector-effect="non-scaling-stroke" style="&st0;" x1="0.5" y1="53.5" x2="758.5" y2="53.5"/>
</g>
<g transform="matrix(1,0,0,1,0,0)">
	<polyline vector-effect="non-scaling-stroke" style="&st1;" points="709.5,379.5 121.5,379.5 121.5,355.5 121.5,355.5 121.5,355.5 
		121.5,355.5 121.5,355.5 121.5,355.5 121.5,355.5 121.5,355.5 121.5,355.5 121.5,355.5 121.5,355.5 121.5,355.5 121.5,355.5 
		121.5,355.5 122.5,355.5 122.5,355.5 122.5,355.5 122.5,355.5 122.5,355.5 122.5,355.5 122.5,355.5 122.5,355.5 122.5,355.5 
		122.5,355.5 122.5,355.5 122.5,355.5 122.5,355.5 123.5,356.5 123.5,356.5 123.5,355.5 123.5,355.5 123.5,355.5 123.5,355.5 
		123.5,355.5 123.5,355.5 123.5,355.5 123.5,355.5 123.5,355.5 123.5,355.5 123.5,355.5 124.5,355.5 124.5,355.5 124.5,355.5 
		124.5,355.5 124.5,355.5 124.5,355.5 124.5,355.5 124.5,355.5 124.5,355.5 124.5,355.5 124.5,355.5 124.5,355.5 124.5,355.5 
		125.5,355.5 125.5,355.5 125.5,355.5 125.5,355.5 125.5,355.5 125.5,355.5 125.5,355.5 125.5,355.5 125.5,355.5 125.5,355.5 
		125.5,355.5 125.5,355.5 125.5,355.5 126.5,355.5 126.5,355.5 126.5,355.5 126.5,355.5 126.5,355.5 126.5,355.5 126.5,355.5 
		126.5,355.5 126.5,355.5 126.5,355.5 126.5,355.5 126.5,355.5 126.5,355.5 127.5,355.5 127.5,355.5 127.5,355.5 127.5,355.5 
		127.5,355.5 127.5,355.5 127.5,355.5 127.5,355.5 127.5,355.5 127.5,355.5 127.5,355.5 127.5,355.5 127.5,355.5 128.5,354.5 
		128.5,354.5 128.5,354.5 128.5,354.5 128.5,354.5 128.5,354.5 128.5,354.5 128.5,354.5 128.5,354.5 128.5,354.5 128.5,354.5 
		128.5,354.5 128.5,354.5 129.5,354.5 129.5,354.5 129.5,353.5 129.5,353.5 129.5,353.5 129.5,353.5 129.5,353.5 129.5,353.5 
		129.5,353.5 129.5,353.5 129.5,353.5 129.5,353.5 129.5,353.5 130.5,353.5 130.5,353.5 130.5,353.5 130.5,353.5 130.5,353.5 
		130.5,353.5 130.5,353.5 130.5,353.5 130.5,353.5 130.5,353.5 130.5,353.5 130.5,352.5 130.5,352.5 131.5,352.5 131.5,352.5 
		131.5,352.5 131.5,352.5 131.5,352.5 131.5,352.5 131.5,352.5 131.5,352.5 131.5,352.5 131.5,352.5 131.5,352.5 131.5,352.5 
		131.5,352.5 132.5,352.5 132.5,351.5 132.5,351.5 132.5,351.5 132.5,351.5 132.5,351.5 132.5,351.5 132.5,351.5 132.5,351.5 
		132.5,351.5 132.5,351.5 132.5,351.5 132.5,351.5 133.5,351.5 133.5,351.5 133.5,351.5 133.5,351.5 133.5,351.5 133.5,351.5 
		133.5,351.5 133.5,352.5 133.5,352.5 133.5,352.5 133.5,352.5 133.5,352.5 133.5,352.5 134.5,352.5 134.5,352.5 134.5,352.5 
		134.5,352.5 134.5,352.5 134.5,352.5 134.5,352.5 134.5,352.5 134.5,352.5 134.5,352.5 134.5,352.5 134.5,352.5 134.5,352.5 
		135.5,352.5 135.5,352.5 135.5,352.5 135.5,352.5 135.5,352.5 135.5,352.5 135.5,352.5 135.5,352.5 135.5,352.5 135.5,352.5 
		135.5,352.5 135.5,352.5 135.5,352.5 136.5,352.5 136.5,352.5 136.5,351.5 136.5,351.5 136.5,351.5 136.5,351.5 136.5,351.5 
		136.5,351.5 136.5,351.5 136.5,351.5 136.5,351.5 136.5,351.5 136.5,351.5 137.5,350.5 137.5,350.5 137.5,350.5 137.5,350.5 
		137.5,350.5 137.5,350.5 137.5,350.5 137.5,350.5 137.5,350.5 137.5,350.5 137.5,350.5 137.5,350.5 137.5,350.5 138.5,350.5 
		138.5,350.5 138.5,350.5 138.5,349.5 138.5,349.5 138.5,349.5 138.5,349.5 138.5,349.5 138.5,349.5 138.5,349.5 138.5,349.5 
		138.5,349.5 138.5,349.5 139.5,349.5 139.5,349.5 139.5,349.5 139.5,349.5 139.5,349.5 139.5,349.5 139.5,349.5 139.5,349.5 
		139.5,349.5 139.5,349.5 139.5,349.5 139.5,349.5 139.5,349.5 140.5,349.5 140.5,349.5 140.5,349.5 140.5,349.5 140.5,349.5 
		140.5,349.5 140.5,349.5 140.5,349.5 140.5,349.5 140.5,349.5 140.5,349.5 140.5,349.5 140.5,349.5 141.5,349.5 141.5,349.5 
		141.5,349.5 141.5,349.5 141.5,349.5 141.5,349.5 141.5,349.5 141.5,348.5 141.5,348.5 141.5,348.5 141.5,348.5 141.5,348.5 
		141.5,348.5 142.5,348.5 142.5,348.5 142.5,347.5 142.5,347.5 142.5,347.5 142.5,347.5 142.5,347.5 142.5,347.5 142.5,347.5 
		142.5,347.5 142.5,347.5 142.5,347.5 142.5,346.5 143.5,346.5 143.5,346.5 143.5,346.5 143.5,346.5 143.5,346.5 143.5,346.5 
		143.5,346.5 143.5,346.5 143.5,346.5 143.5,346.5 143.5,345.5 143.5,345.5 143.5,345.5 144.5,345.5 144.5,345.5 144.5,345.5 
		144.5,345.5 144.5,345.5 144.5,345.5 144.5,345.5 144.5,344.5 144.5,344.5 144.5,344.5 144.5,344.5 144.5,344.5 144.5,344.5 
		145.5,344.5 145.5,344.5 145.5,344.5 145.5,344.5 145.5,344.5 145.5,343.5 145.5,343.5 145.5,343.5 145.5,343.5 145.5,343.5 
		145.5,343.5 145.5,342.5 145.5,342.5 146.5,342.5 146.5,342.5 146.5,342.5 146.5,342.5 146.5,341.5 146.5,341.5 146.5,341.5 
		146.5,341.5 146.5,341.5 146.5,340.5 146.5,340.5 146.5,340.5 146.5,340.5 147.5,340.5 147.5,339.5 147.5,339.5 147.5,339.5 
		147.5,339.5 147.5,339.5 147.5,338.5 147.5,338.5 147.5,338.5 147.5,338.5 147.5,338.5 147.5,337.5 147.5,337.5 148.5,337.5 
		148.5,337.5 148.5,336.5 148.5,336.5 148.5,336.5 148.5,336.5 148.5,335.5 148.5,335.5 148.5,335.5 148.5,335.5 148.5,335.5 
		148.5,334.5 148.5,334.5 149.5,334.5 149.5,334.5 149.5,334.5 149.5,333.5 149.5,333.5 149.5,333.5 149.5,333.5 149.5,332.5 
		149.5,332.5 149.5,332.5 149.5,332.5 149.5,331.5 149.5,331.5 150.5,331.5 150.5,331.5 150.5,330.5 150.5,330.5 150.5,330.5 
		150.5,329.5 150.5,329.5 150.5,329.5 150.5,328.5 150.5,328.5 150.5,328.5 150.5,327.5 150.5,327.5 151.5,327.5 151.5,326.5 
		151.5,326.5 151.5,326.5 151.5,325.5 151.5,325.5 151.5,324.5 151.5,324.5 151.5,324.5 151.5,323.5 151.5,323.5 151.5,322.5 
		151.5,322.5 152.5,321.5 152.5,321.5 152.5,321.5 152.5,320.5 152.5,320.5 152.5,320.5 152.5,319.5 152.5,319.5 152.5,318.5 
		152.5,318.5 152.5,318.5 152.5,317.5 152.5,317.5 153.5,317.5 153.5,316.5 153.5,316.5 153.5,316.5 153.5,315.5 153.5,315.5 
		153.5,315.5 153.5,316.5 153.5,319.5 153.5,323.5 153.5,326.5 153.5,327.5 153.5,328.5 154.5,328.5 154.5,328.5 154.5,329.5 
		154.5,329.5 154.5,330.5 154.5,330.5 154.5,330.5 154.5,330.5 154.5,330.5 154.5,329.5 154.5,329.5 154.5,329.5 154.5,329.5 
		155.5,328.5 155.5,328.5 155.5,328.5 155.5,328.5 155.5,327.5 155.5,327.5 155.5,327.5 155.5,327.5 155.5,327.5 155.5,326.5 
		155.5,326.5 155.5,326.5 155.5,326.5 156.5,325.5 156.5,325.5 156.5,325.5 156.5,325.5 156.5,324.5 156.5,324.5 156.5,324.5 
		156.5,324.5 156.5,324.5 156.5,323.5 156.5,323.5 156.5,323.5 156.5,323.5 157.5,322.5 157.5,322.5 157.5,322.5 157.5,322.5 
		157.5,322.5 157.5,321.5 157.5,321.5 157.5,321.5 157.5,321.5 157.5,320.5 157.5,320.5 157.5,320.5 157.5,320.5 158.5,320.5 
		158.5,319.5 158.5,319.5 158.5,319.5 158.5,319.5 158.5,318.5 158.5,318.5 158.5,318.5 158.5,318.5 158.5,318.5 158.5,317.5 
		158.5,317.5 158.5,317.5 159.5,317.5 159.5,316.5 159.5,316.5 159.5,316.5 159.5,316.5 159.5,315.5 159.5,315.5 159.5,315.5 
		159.5,315.5 159.5,315.5 159.5,314.5 159.5,314.5 159.5,314.5 160.5,314.5 160.5,313.5 160.5,313.5 160.5,313.5 160.5,313.5 
		160.5,313.5 160.5,312.5 160.5,312.5 160.5,312.5 160.5,312.5 160.5,311.5 160.5,311.5 160.5,311.5 161.5,311.5 161.5,311.5 
		161.5,310.5 161.5,310.5 161.5,310.5 161.5,310.5 161.5,309.5 161.5,309.5 161.5,309.5 161.5,309.5 161.5,308.5 161.5,308.5 
		161.5,308.5 162.5,308.5 162.5,308.5 162.5,307.5 162.5,307.5 162.5,307.5 162.5,307.5 162.5,306.5 162.5,306.5 162.5,306.5 
		162.5,306.5 162.5,306.5 162.5,305.5 162.5,305.5 163.5,305.5 163.5,305.5 163.5,304.5 163.5,304.5 163.5,304.5 163.5,304.5 
		163.5,304.5 163.5,303.5 163.5,303.5 163.5,303.5 163.5,303.5 163.5,302.5 163.5,302.5 164.5,302.5 164.5,302.5 164.5,302.5 
		164.5,301.5 164.5,301.5 164.5,301.5 164.5,301.5 164.5,300.5 164.5,300.5 164.5,300.5 164.5,300.5 164.5,299.5 164.5,299.5 
		165.5,299.5 165.5,299.5 165.5,299.5 165.5,298.5 165.5,298.5 165.5,298.5 165.5,298.5 165.5,297.5 165.5,297.5 165.5,297.5 
		165.5,297.5 165.5,297.5 165.5,296.5 166.5,296.5 166.5,296.5 166.5,296.5 166.5,295.5 166.5,295.5 166.5,295.5 166.5,295.5 
		166.5,295.5 166.5,294.5 166.5,294.5 166.5,294.5 166.5,294.5 166.5,293.5 167.5,293.5 167.5,293.5 167.5,293.5 167.5,292.5 
		167.5,292.5 167.5,292.5 167.5,292.5 167.5,292.5 167.5,291.5 167.5,291.5 167.5,291.5 167.5,291.5 167.5,290.5 168.5,290.5 
		168.5,290.5 168.5,289.5 168.5,289.5 168.5,289.5 168.5,288.5 168.5,288.5 168.5,288.5 168.5,287.5 168.5,287.5 168.5,287.5 
		168.5,286.5 168.5,286.5 169.5,286.5 169.5,285.5 169.5,285.5 169.5,284.5 169.5,284.5 169.5,284.5 169.5,283.5 169.5,283.5 
		169.5,283.5 169.5,282.5 169.5,282.5 169.5,282.5 169.5,281.5 170.5,281.5 170.5,281.5 170.5,280.5 170.5,280.5 170.5,280.5 
		170.5,279.5 170.5,279.5 170.5,278.5 170.5,278.5 170.5,278.5 170.5,277.5 170.5,277.5 170.5,277.5 170.5,276.5 171.5,276.5 
		171.5,276.5 171.5,275.5 171.5,275.5 171.5,275.5 171.5,274.5 171.5,274.5 171.5,274.5 171.5,274.5 171.5,274.5 171.5,273.5 
		171.5,273.5 171.5,273.5 172.5,273.5 172.5,273.5 172.5,272.5 172.5,272.5 172.5,272.5 172.5,272.5 172.5,272.5 172.5,271.5 
		172.5,271.5 172.5,271.5 172.5,271.5 172.5,271.5 172.5,272.5 173.5,272.5 173.5,272.5 173.5,273.5 173.5,273.5 173.5,273.5 
		173.5,273.5 173.5,273.5 173.5,272.5 173.5,272.5 173.5,271.5 173.5,271.5 173.5,271.5 173.5,270.5 174.5,270.5 174.5,270.5 
		174.5,269.5 174.5,269.5 174.5,269.5 174.5,269.5 174.5,269.5 174.5,269.5 174.5,268.5 174.5,268.5 174.5,268.5 174.5,268.5 
		174.5,268.5 175.5,268.5 175.5,268.5 175.5,269.5 175.5,269.5 175.5,269.5 175.5,269.5 175.5,269.5 175.5,269.5 175.5,269.5 
		175.5,269.5 175.5,269.5 175.5,269.5 175.5,269.5 176.5,269.5 176.5,269.5 176.5,269.5 176.5,269.5 176.5,268.5 176.5,268.5 
		176.5,268.5 176.5,268.5 176.5,268.5 176.5,268.5 176.5,268.5 176.5,268.5 176.5,268.5 177.5,267.5 177.5,267.5 177.5,266.5 
		177.5,266.5 177.5,265.5 177.5,264.5 177.5,264.5 177.5,263.5 177.5,262.5 177.5,261.5 177.5,261.5 177.5,261.5 177.5,261.5 
		178.5,261.5 178.5,260.5 178.5,260.5 178.5,260.5 178.5,260.5 178.5,260.5 178.5,259.5 178.5,259.5 178.5,259.5 178.5,259.5 
		178.5,259.5 178.5,258.5 178.5,258.5 179.5,258.5 179.5,257.5 179.5,257.5 179.5,257.5 179.5,257.5 179.5,256.5 179.5,256.5 
		179.5,255.5 179.5,255.5 179.5,255.5 179.5,255.5 179.5,255.5 179.5,255.5 180.5,255.5 180.5,255.5 180.5,255.5 180.5,255.5 
		180.5,255.5 180.5,255.5 180.5,255.5 180.5,255.5 180.5,255.5 180.5,255.5 180.5,255.5 180.5,255.5 180.5,255.5 181.5,255.5 
		181.5,255.5 181.5,255.5 181.5,255.5 181.5,255.5 181.5,255.5 181.5,255.5 181.5,255.5 181.5,255.5 181.5,255.5 181.5,255.5 
		181.5,255.5 181.5,254.5 182.5,254.5 182.5,254.5 182.5,254.5 182.5,254.5 182.5,254.5 182.5,254.5 182.5,254.5 182.5,254.5 
		182.5,254.5 182.5,254.5 182.5,254.5 182.5,254.5 182.5,254.5 183.5,254.5 183.5,254.5 183.5,254.5 183.5,254.5 183.5,254.5 
		183.5,254.5 183.5,253.5 183.5,253.5 183.5,253.5 183.5,253.5 183.5,252.5 183.5,252.5 183.5,252.5 184.5,252.5 184.5,252.5 
		184.5,251.5 184.5,251.5 184.5,251.5 184.5,251.5 184.5,251.5 184.5,252.5 184.5,251.5 184.5,251.5 184.5,251.5 184.5,251.5 
		184.5,251.5 185.5,251.5 185.5,251.5 185.5,250.5 185.5,250.5 185.5,250.5 185.5,250.5 185.5,250.5 185.5,250.5 185.5,250.5 
		185.5,250.5 185.5,250.5 185.5,250.5 185.5,250.5 186.5,250.5 186.5,250.5 186.5,249.5 186.5,249.5 186.5,249.5 186.5,249.5 
		186.5,249.5 186.5,249.5 186.5,248.5 186.5,248.5 186.5,248.5 186.5,248.5 186.5,248.5 187.5,248.5 187.5,248.5 187.5,248.5 
		187.5,248.5 187.5,248.5 187.5,248.5 187.5,248.5 187.5,248.5 187.5,248.5 187.5,247.5 187.5,247.5 187.5,247.5 187.5,247.5 
		188.5,247.5 188.5,247.5 188.5,247.5 188.5,247.5 188.5,247.5 188.5,247.5 188.5,247.5 188.5,247.5 188.5,247.5 188.5,246.5 
		188.5,246.5 188.5,246.5 188.5,246.5 189.5,246.5 189.5,246.5 189.5,246.5 189.5,246.5 189.5,246.5 189.5,246.5 189.5,246.5 
		189.5,246.5 189.5,246.5 189.5,246.5 189.5,246.5 189.5,246.5 189.5,246.5 190.5,246.5 190.5,246.5 190.5,246.5 190.5,246.5 
		190.5,246.5 190.5,246.5 190.5,246.5 190.5,246.5 190.5,246.5 190.5,246.5 190.5,246.5 190.5,246.5 190.5,246.5 191.5,246.5 
		191.5,246.5 191.5,246.5 191.5,247.5 191.5,247.5 191.5,247.5 191.5,247.5 191.5,247.5 191.5,247.5 191.5,247.5 191.5,247.5 
		191.5,247.5 191.5,247.5 192.5,247.5 192.5,247.5 192.5,248.5 192.5,248.5 192.5,248.5 192.5,248.5 192.5,248.5 192.5,248.5 
		192.5,248.5 192.5,248.5 192.5,248.5 192.5,248.5 192.5,249.5 193.5,249.5 193.5,249.5 193.5,250.5 193.5,250.5 193.5,250.5 
		193.5,251.5 193.5,251.5 193.5,251.5 193.5,252.5 193.5,252.5 193.5,252.5 193.5,253.5 193.5,253.5 194.5,254.5 194.5,254.5 
		194.5,255.5 194.5,255.5 194.5,256.5 194.5,256.5 194.5,257.5 194.5,257.5 194.5,258.5 194.5,258.5 194.5,259.5 194.5,259.5 
		194.5,260.5 195.5,260.5 195.5,261.5 195.5,261.5 195.5,261.5 195.5,262.5 195.5,262.5 195.5,263.5 195.5,263.5 195.5,263.5 
		195.5,264.5 195.5,264.5 195.5,265.5 195.5,265.5 196.5,266.5 196.5,266.5 196.5,267.5 196.5,268.5 196.5,268.5 196.5,269.5 
		196.5,269.5 196.5,269.5 196.5,270.5 196.5,270.5 196.5,271.5 196.5,271.5 196.5,272.5 197.5,272.5 197.5,273.5 197.5,273.5 
		197.5,274.5 197.5,274.5 197.5,275.5 197.5,276.5 197.5,276.5 197.5,277.5 197.5,277.5 197.5,278.5 197.5,278.5 197.5,279.5 
		198.5,280.5 198.5,281.5 198.5,281.5 198.5,282.5 198.5,282.5 198.5,283.5 198.5,283.5 198.5,284.5 198.5,284.5 198.5,285.5 
		198.5,286.5 198.5,286.5 198.5,287.5 199.5,287.5 199.5,288.5 199.5,288.5 199.5,289.5 199.5,290.5 199.5,290.5 199.5,291.5 
		199.5,292.5 199.5,292.5 199.5,293.5 199.5,294.5 199.5,294.5 199.5,295.5 200.5,296.5 200.5,297.5 200.5,298.5 200.5,299.5 
		200.5,299.5 200.5,298.5 200.5,298.5 200.5,297.5 200.5,297.5 200.5,296.5 200.5,295.5 200.5,294.5 200.5,293.5 201.5,292.5 
		201.5,291.5 201.5,290.5 201.5,289.5 201.5,288.5 201.5,287.5 201.5,288.5 201.5,288.5 201.5,289.5 201.5,289.5 201.5,289.5 
		201.5,290.5 201.5,290.5 202.5,290.5 202.5,290.5 202.5,291.5 202.5,291.5 202.5,291.5 202.5,291.5 202.5,291.5 202.5,291.5 
		202.5,292.5 202.5,292.5 202.5,292.5 202.5,292.5 202.5,292.5 203.5,292.5 203.5,292.5 203.5,293.5 203.5,293.5 203.5,293.5 
		203.5,294.5 203.5,294.5 203.5,295.5 203.5,294.5 203.5,295.5 203.5,296.5 203.5,297.5 203.5,299.5 204.5,299.5 204.5,300.5 
		204.5,301.5 204.5,302.5 204.5,303.5 204.5,304.5 204.5,305.5 204.5,306.5 204.5,306.5 204.5,307.5 204.5,307.5 204.5,308.5 
		204.5,308.5 205.5,308.5 205.5,308.5 205.5,308.5 205.5,308.5 205.5,308.5 205.5,308.5 205.5,308.5 205.5,308.5 205.5,308.5 
		205.5,308.5 205.5,308.5 205.5,308.5 205.5,307.5 206.5,307.5 206.5,307.5 206.5,307.5 206.5,307.5 206.5,307.5 206.5,307.5 
		206.5,307.5 206.5,307.5 206.5,307.5 206.5,306.5 206.5,306.5 206.5,306.5 206.5,306.5 207.5,306.5 207.5,306.5 207.5,306.5 
		207.5,306.5 207.5,306.5 207.5,306.5 207.5,306.5 207.5,306.5 207.5,306.5 207.5,306.5 207.5,306.5 207.5,306.5 207.5,306.5 
		208.5,306.5 208.5,306.5 208.5,306.5 208.5,306.5 208.5,306.5 208.5,306.5 208.5,305.5 208.5,306.5 208.5,306.5 208.5,306.5 
		208.5,306.5 208.5,306.5 208.5,306.5 209.5,306.5 209.5,307.5 209.5,307.5 209.5,307.5 209.5,307.5 209.5,307.5 209.5,307.5 
		209.5,307.5 209.5,307.5 209.5,307.5 209.5,307.5 209.5,307.5 209.5,307.5 210.5,307.5 210.5,307.5 210.5,307.5 210.5,307.5 
		210.5,307.5 210.5,307.5 210.5,307.5 210.5,307.5 210.5,306.5 210.5,306.5 210.5,306.5 210.5,306.5 210.5,305.5 211.5,305.5 
		211.5,305.5 211.5,304.5 211.5,304.5 211.5,304.5 211.5,303.5 211.5,303.5 211.5,303.5 211.5,302.5 211.5,302.5 211.5,302.5 
		211.5,302.5 211.5,301.5 212.5,301.5 212.5,301.5 212.5,300.5 212.5,300.5 212.5,300.5 212.5,300.5 212.5,299.5 212.5,299.5 
		212.5,299.5 212.5,298.5 212.5,298.5 212.5,298.5 212.5,298.5 213.5,298.5 213.5,298.5 213.5,297.5 213.5,297.5 213.5,297.5 
		213.5,297.5 213.5,297.5 213.5,298.5 213.5,298.5 213.5,298.5 213.5,298.5 213.5,298.5 213.5,298.5 214.5,298.5 214.5,299.5 
		214.5,299.5 214.5,299.5 214.5,300.5 214.5,300.5 214.5,300.5 214.5,300.5 214.5,300.5 214.5,300.5 214.5,300.5 214.5,300.5 
		214.5,300.5 215.5,300.5 215.5,300.5 215.5,300.5 215.5,300.5 215.5,300.5 215.5,300.5 215.5,300.5 215.5,299.5 215.5,299.5 
		215.5,299.5 215.5,298.5 215.5,298.5 215.5,298.5 216.5,297.5 216.5,297.5 216.5,297.5 216.5,297.5 216.5,296.5 216.5,296.5 
		216.5,295.5 216.5,295.5 216.5,294.5 216.5,294.5 216.5,293.5 216.5,293.5 216.5,292.5 217.5,292.5 217.5,291.5 217.5,291.5 
		217.5,290.5 217.5,290.5 217.5,289.5 217.5,288.5 217.5,288.5 217.5,287.5 217.5,287.5 217.5,286.5 217.5,285.5 217.5,284.5 
		218.5,284.5 218.5,283.5 218.5,282.5 218.5,282.5 218.5,281.5 218.5,281.5 218.5,280.5 218.5,280.5 218.5,279.5 218.5,278.5 
		218.5,278.5 218.5,277.5 218.5,277.5 219.5,276.5 219.5,276.5 219.5,275.5 219.5,275.5 219.5,274.5 219.5,274.5 219.5,273.5 
		219.5,273.5 219.5,272.5 219.5,272.5 219.5,271.5 219.5,271.5 219.5,270.5 219.5,270.5 220.5,269.5 220.5,269.5 220.5,268.5 
		220.5,268.5 220.5,268.5 220.5,268.5 220.5,268.5 220.5,269.5 220.5,269.5 220.5,269.5 220.5,269.5 220.5,269.5 220.5,269.5 
		221.5,270.5 221.5,270.5 221.5,270.5 221.5,270.5 221.5,270.5 221.5,271.5 221.5,271.5 221.5,271.5 221.5,271.5 221.5,271.5 
		221.5,271.5 221.5,271.5 221.5,271.5 222.5,272.5 222.5,272.5 222.5,272.5 222.5,272.5 222.5,272.5 222.5,273.5 222.5,273.5 
		222.5,273.5 222.5,274.5 222.5,274.5 222.5,275.5 222.5,275.5 222.5,276.5 223.5,277.5 223.5,277.5 223.5,278.5 223.5,278.5 
		223.5,279.5 223.5,280.5 223.5,281.5 223.5,281.5 223.5,283.5 223.5,283.5 223.5,284.5 223.5,284.5 223.5,284.5 224.5,285.5 
		224.5,286.5 224.5,286.5 224.5,285.5 224.5,285.5 224.5,285.5 224.5,285.5 224.5,285.5 224.5,285.5 224.5,284.5 224.5,284.5 
		224.5,284.5 224.5,285.5 225.5,284.5 225.5,284.5 225.5,284.5 225.5,284.5 225.5,284.5 225.5,284.5 225.5,284.5 225.5,284.5 
		225.5,284.5 225.5,285.5 225.5,285.5 225.5,285.5 225.5,285.5 226.5,286.5 226.5,286.5 226.5,286.5 226.5,286.5 226.5,287.5 
		226.5,287.5 226.5,287.5 226.5,288.5 226.5,288.5 226.5,288.5 226.5,288.5 226.5,289.5 226.5,289.5 227.5,289.5 227.5,290.5 
		227.5,290.5 227.5,291.5 227.5,291.5 227.5,292.5 227.5,293.5 227.5,293.5 227.5,294.5 227.5,294.5 227.5,294.5 227.5,295.5 
		227.5,295.5 228.5,295.5 228.5,294.5 228.5,294.5 228.5,294.5 228.5,294.5 228.5,294.5 228.5,294.5 228.5,294.5 228.5,293.5 
		228.5,293.5 228.5,293.5 228.5,293.5 228.5,293.5 229.5,293.5 229.5,293.5 229.5,293.5 229.5,293.5 229.5,293.5 229.5,293.5 
		229.5,293.5 229.5,293.5 229.5,293.5 229.5,293.5 229.5,294.5 229.5,294.5 229.5,294.5 230.5,294.5 230.5,294.5 230.5,294.5 
		230.5,294.5 230.5,294.5 230.5,294.5 230.5,294.5 230.5,293.5 230.5,293.5 230.5,293.5 230.5,293.5 230.5,292.5 230.5,292.5 
		231.5,292.5 231.5,291.5 231.5,291.5 231.5,291.5 231.5,290.5 231.5,290.5 231.5,290.5 231.5,290.5 231.5,289.5 231.5,289.5 
		231.5,289.5 231.5,289.5 231.5,288.5 232.5,289.5 232.5,288.5 232.5,288.5 232.5,288.5 232.5,287.5 232.5,287.5 232.5,287.5 
		232.5,286.5 232.5,286.5 232.5,286.5 232.5,285.5 232.5,285.5 232.5,285.5 233.5,285.5 233.5,285.5 233.5,285.5 233.5,284.5 
		233.5,284.5 233.5,284.5 233.5,284.5 233.5,284.5 233.5,284.5 233.5,284.5 233.5,284.5 233.5,284.5 233.5,284.5 234.5,284.5 
		234.5,284.5 234.5,284.5 234.5,284.5 234.5,284.5 234.5,284.5 234.5,285.5 234.5,285.5 234.5,285.5 234.5,285.5 234.5,286.5 
		234.5,286.5 234.5,286.5 235.5,286.5 235.5,286.5 235.5,286.5 235.5,286.5 235.5,285.5 235.5,285.5 235.5,285.5 235.5,285.5 
		235.5,286.5 235.5,285.5 235.5,285.5 235.5,285.5 235.5,285.5 236.5,285.5 236.5,285.5 236.5,285.5 236.5,286.5 236.5,286.5 
		236.5,286.5 236.5,287.5 236.5,288.5 236.5,288.5 236.5,289.5 236.5,290.5 236.5,291.5 236.5,291.5 237.5,292.5 237.5,292.5 
		237.5,292.5 237.5,293.5 237.5,293.5 237.5,293.5 237.5,294.5 237.5,294.5 237.5,294.5 237.5,294.5 237.5,294.5 237.5,294.5 
		237.5,294.5 238.5,293.5 238.5,293.5 238.5,293.5 238.5,293.5 238.5,293.5 238.5,293.5 238.5,293.5 238.5,293.5 238.5,293.5 
		238.5,293.5 238.5,293.5 238.5,292.5 238.5,292.5 239.5,292.5 239.5,292.5 239.5,292.5 239.5,292.5 239.5,291.5 239.5,291.5 
		239.5,291.5 239.5,291.5 239.5,290.5 239.5,290.5 239.5,290.5 239.5,290.5 239.5,289.5 240.5,289.5 240.5,289.5 240.5,289.5 
		240.5,289.5 240.5,289.5 240.5,289.5 240.5,289.5 240.5,289.5 240.5,289.5 240.5,289.5 240.5,289.5 240.5,290.5 240.5,290.5 
		241.5,291.5 241.5,291.5 241.5,291.5 241.5,291.5 241.5,291.5 241.5,291.5 241.5,291.5 241.5,291.5 241.5,291.5 241.5,291.5 
		241.5,291.5 241.5,291.5 241.5,291.5 242.5,291.5 242.5,291.5 242.5,291.5 242.5,291.5 242.5,291.5 242.5,291.5 242.5,290.5 
		242.5,290.5 242.5,290.5 242.5,290.5 242.5,290.5 242.5,291.5 242.5,290.5 243.5,290.5 243.5,290.5 243.5,290.5 243.5,289.5 
		243.5,289.5 243.5,288.5 243.5,288.5 243.5,287.5 243.5,287.5 243.5,286.5 243.5,285.5 243.5,285.5 243.5,284.5 244.5,284.5 
		244.5,283.5 244.5,283.5 244.5,283.5 244.5,282.5 244.5,282.5 244.5,282.5 244.5,282.5 244.5,281.5 244.5,281.5 244.5,281.5 
		244.5,281.5 244.5,281.5 245.5,281.5 245.5,281.5 245.5,281.5 245.5,282.5 245.5,282.5 245.5,282.5 245.5,282.5 245.5,282.5 
		245.5,281.5 245.5,281.5 245.5,280.5 245.5,279.5 245.5,279.5 246.5,278.5 246.5,277.5 246.5,277.5 246.5,276.5 246.5,276.5 
		246.5,275.5 246.5,274.5 246.5,273.5 246.5,273.5 246.5,272.5 246.5,271.5 246.5,270.5 246.5,270.5 247.5,269.5 247.5,268.5 
		247.5,268.5 247.5,267.5 247.5,267.5 247.5,267.5 247.5,267.5 247.5,267.5 247.5,267.5 247.5,267.5 247.5,266.5 247.5,266.5 
		247.5,266.5 248.5,266.5 248.5,265.5 248.5,265.5 248.5,265.5 248.5,265.5 248.5,265.5 248.5,264.5 248.5,264.5 248.5,264.5 
		248.5,264.5 248.5,263.5 248.5,263.5 248.5,263.5 249.5,262.5 249.5,262.5 249.5,261.5 249.5,260.5 249.5,260.5 249.5,260.5 
		249.5,260.5 249.5,261.5 249.5,261.5 249.5,261.5 249.5,261.5 249.5,261.5 249.5,261.5 250.5,261.5 250.5,261.5 250.5,262.5 
		250.5,262.5 250.5,263.5 250.5,263.5 250.5,263.5 250.5,264.5 250.5,265.5 250.5,265.5 250.5,266.5 250.5,266.5 250.5,267.5 
		251.5,267.5 251.5,268.5 251.5,269.5 251.5,269.5 251.5,270.5 251.5,271.5 251.5,271.5 251.5,272.5 251.5,273.5 251.5,274.5 
		251.5,275.5 251.5,276.5 251.5,276.5 252.5,277.5 252.5,278.5 252.5,278.5 252.5,278.5 252.5,278.5 252.5,278.5 252.5,278.5 
		252.5,278.5 252.5,278.5 252.5,278.5 252.5,278.5 252.5,278.5 252.5,278.5 253.5,278.5 253.5,278.5 253.5,279.5 253.5,279.5 
		253.5,279.5 253.5,279.5 253.5,279.5 253.5,280.5 253.5,280.5 253.5,280.5 253.5,281.5 253.5,281.5 253.5,282.5 254.5,282.5 
		254.5,283.5 254.5,283.5 254.5,283.5 254.5,283.5 254.5,283.5 254.5,283.5 254.5,283.5 254.5,283.5 254.5,283.5 254.5,282.5 
		254.5,282.5 254.5,282.5 255.5,282.5 255.5,282.5 255.5,282.5 255.5,281.5 255.5,281.5 255.5,281.5 255.5,281.5 255.5,281.5 
		255.5,281.5 255.5,281.5 255.5,281.5 255.5,281.5 255.5,281.5 256.5,281.5 256.5,281.5 256.5,281.5 256.5,281.5 256.5,281.5 
		256.5,280.5 256.5,280.5 256.5,280.5 256.5,280.5 256.5,280.5 256.5,280.5 256.5,280.5 256.5,280.5 257.5,280.5 257.5,280.5 
		257.5,280.5 257.5,280.5 257.5,279.5 257.5,279.5 257.5,279.5 257.5,279.5 257.5,279.5 257.5,278.5 257.5,278.5 257.5,278.5 
		257.5,278.5 258.5,278.5 258.5,277.5 258.5,277.5 258.5,277.5 258.5,276.5 258.5,276.5 258.5,276.5 258.5,276.5 258.5,275.5 
		258.5,275.5 258.5,275.5 258.5,274.5 258.5,274.5 259.5,274.5 259.5,274.5 259.5,274.5 259.5,273.5 259.5,273.5 259.5,273.5 
		259.5,273.5 259.5,273.5 259.5,273.5 259.5,273.5 259.5,273.5 259.5,273.5 259.5,274.5 260.5,274.5 260.5,274.5 260.5,274.5 
		260.5,274.5 260.5,274.5 260.5,274.5 260.5,274.5 260.5,274.5 260.5,274.5 260.5,274.5 260.5,274.5 260.5,274.5 260.5,274.5 
		261.5,274.5 261.5,274.5 261.5,274.5 261.5,274.5 261.5,274.5 261.5,274.5 261.5,274.5 261.5,274.5 261.5,273.5 261.5,273.5 
		261.5,273.5 261.5,273.5 261.5,273.5 262.5,273.5 262.5,273.5 262.5,273.5 262.5,273.5 262.5,273.5 262.5,273.5 262.5,273.5 
		262.5,273.5 262.5,274.5 262.5,274.5 262.5,274.5 262.5,274.5 262.5,275.5 263.5,275.5 263.5,274.5 263.5,275.5 263.5,275.5 
		263.5,275.5 263.5,275.5 263.5,275.5 263.5,275.5 263.5,275.5 263.5,275.5 263.5,275.5 263.5,275.5 263.5,275.5 264.5,275.5 
		264.5,274.5 264.5,274.5 264.5,273.5 264.5,273.5 264.5,272.5 264.5,272.5 264.5,272.5 264.5,272.5 264.5,272.5 264.5,271.5 
		264.5,271.5 264.5,271.5 265.5,271.5 265.5,271.5 265.5,270.5 265.5,270.5 265.5,270.5 265.5,270.5 265.5,270.5 265.5,270.5 
		265.5,270.5 265.5,270.5 265.5,270.5 265.5,270.5 265.5,270.5 266.5,270.5 266.5,270.5 266.5,270.5 266.5,270.5 266.5,270.5 
		266.5,270.5 266.5,270.5 266.5,271.5 266.5,271.5 266.5,271.5 266.5,271.5 266.5,272.5 266.5,271.5 267.5,270.5 267.5,270.5 
		267.5,269.5 267.5,269.5 267.5,267.5 267.5,266.5 267.5,265.5 267.5,264.5 267.5,263.5 267.5,262.5 267.5,261.5 267.5,260.5 
		267.5,260.5 267.5,259.5 268.5,258.5 268.5,258.5 268.5,257.5 268.5,256.5 268.5,255.5 268.5,255.5 268.5,254.5 268.5,254.5 
		268.5,253.5 268.5,252.5 268.5,252.5 268.5,251.5 268.5,251.5 269.5,250.5 269.5,250.5 269.5,250.5 269.5,249.5 269.5,249.5 
		269.5,248.5 269.5,248.5 269.5,248.5 269.5,247.5 269.5,247.5 269.5,246.5 269.5,246.5 269.5,246.5 270.5,245.5 270.5,244.5 
		270.5,244.5 270.5,243.5 270.5,243.5 270.5,243.5 270.5,242.5 270.5,242.5 270.5,241.5 270.5,241.5 270.5,241.5 270.5,240.5 
		270.5,240.5 271.5,240.5 271.5,240.5 271.5,240.5 271.5,239.5 271.5,239.5 271.5,239.5 271.5,239.5 271.5,239.5 271.5,239.5 
		271.5,239.5 271.5,239.5 271.5,238.5 271.5,237.5 272.5,237.5 272.5,236.5 272.5,236.5 272.5,236.5 272.5,236.5 272.5,236.5 
		272.5,236.5 272.5,236.5 272.5,237.5 272.5,237.5 272.5,237.5 272.5,238.5 272.5,238.5 273.5,238.5 273.5,239.5 273.5,239.5 
		273.5,240.5 273.5,240.5 273.5,241.5 273.5,241.5 273.5,241.5 273.5,242.5 273.5,243.5 273.5,243.5 273.5,244.5 273.5,244.5 
		274.5,245.5 274.5,245.5 274.5,245.5 274.5,246.5 274.5,247.5 274.5,247.5 274.5,248.5 274.5,249.5 274.5,249.5 274.5,250.5 
		274.5,251.5 274.5,251.5 274.5,252.5 275.5,252.5 275.5,253.5 275.5,253.5 275.5,254.5 275.5,254.5 275.5,254.5 275.5,254.5 
		275.5,255.5 275.5,255.5 275.5,255.5 275.5,256.5 275.5,256.5 275.5,256.5 276.5,257.5 276.5,257.5 276.5,257.5 276.5,257.5 
		276.5,257.5 276.5,257.5 276.5,257.5 276.5,257.5 276.5,257.5 276.5,257.5 276.5,257.5 276.5,257.5 276.5,257.5 277.5,257.5 
		277.5,257.5 277.5,256.5 277.5,256.5 277.5,256.5 277.5,256.5 277.5,256.5 277.5,256.5 277.5,256.5 277.5,256.5 277.5,257.5 
		277.5,257.5 277.5,256.5 278.5,256.5 278.5,256.5 278.5,256.5 278.5,255.5 278.5,255.5 278.5,255.5 278.5,254.5 278.5,254.5 
		278.5,254.5 278.5,253.5 278.5,253.5 278.5,253.5 278.5,252.5 279.5,252.5 279.5,252.5 279.5,252.5 279.5,251.5 279.5,251.5 
		279.5,251.5 279.5,250.5 279.5,250.5 279.5,250.5 279.5,250.5 279.5,250.5 279.5,249.5 279.5,249.5 280.5,249.5 280.5,249.5 
		280.5,249.5 280.5,249.5 280.5,249.5 280.5,249.5 280.5,249.5 280.5,249.5 280.5,249.5 280.5,249.5 280.5,249.5 280.5,249.5 
		280.5,248.5 281.5,248.5 281.5,248.5 281.5,248.5 281.5,247.5 281.5,247.5 281.5,247.5 281.5,247.5 281.5,247.5 281.5,247.5 
		281.5,247.5 281.5,247.5 281.5,247.5 281.5,247.5 282.5,246.5 282.5,246.5 282.5,245.5 282.5,245.5 282.5,244.5 282.5,244.5 
		282.5,243.5 282.5,243.5 282.5,243.5 282.5,242.5 282.5,242.5 282.5,241.5 282.5,241.5 283.5,240.5 283.5,239.5 283.5,238.5 
		283.5,238.5 283.5,237.5 283.5,237.5 283.5,236.5 283.5,235.5 283.5,235.5 283.5,234.5 283.5,233.5 283.5,233.5 283.5,232.5 
		284.5,231.5 284.5,231.5 284.5,230.5 284.5,229.5 284.5,229.5 284.5,228.5 284.5,227.5 284.5,226.5 284.5,226.5 284.5,225.5 
		284.5,224.5 284.5,223.5 284.5,223.5 285.5,222.5 285.5,221.5 285.5,220.5 285.5,219.5 285.5,218.5 285.5,217.5 285.5,216.5 
		285.5,215.5 285.5,214.5 285.5,215.5 285.5,215.5 285.5,215.5 285.5,215.5 286.5,215.5 286.5,215.5 286.5,215.5 286.5,215.5 
		286.5,214.5 286.5,214.5 286.5,214.5 286.5,214.5 286.5,214.5 286.5,214.5 286.5,214.5 286.5,214.5 286.5,214.5 287.5,214.5 
		287.5,214.5 287.5,213.5 287.5,213.5 287.5,213.5 287.5,213.5 287.5,213.5 287.5,214.5 287.5,215.5 287.5,216.5 287.5,216.5 
		287.5,218.5 287.5,219.5 288.5,220.5 288.5,220.5 288.5,221.5 288.5,222.5 288.5,223.5 288.5,224.5 288.5,225.5 288.5,225.5 
		288.5,226.5 288.5,226.5 288.5,225.5 288.5,225.5 288.5,225.5 289.5,224.5 289.5,223.5 289.5,223.5 289.5,222.5 289.5,221.5 
		289.5,220.5 289.5,219.5 289.5,218.5 289.5,218.5 289.5,217.5 289.5,217.5 289.5,217.5 289.5,217.5 290.5,216.5 290.5,216.5 
		290.5,216.5 290.5,217.5 290.5,217.5 290.5,217.5 290.5,217.5 290.5,218.5 290.5,218.5 290.5,218.5 290.5,219.5 290.5,219.5 
		290.5,220.5 291.5,220.5 291.5,220.5 291.5,220.5 291.5,220.5 291.5,221.5 291.5,221.5 291.5,221.5 291.5,220.5 291.5,220.5 
		291.5,219.5 291.5,219.5 291.5,218.5 291.5,217.5 292.5,216.5 292.5,215.5 292.5,215.5 292.5,215.5 292.5,215.5 292.5,214.5 
		292.5,214.5 292.5,214.5 292.5,214.5 292.5,214.5 292.5,214.5 292.5,214.5 292.5,213.5 293.5,213.5 293.5,213.5 293.5,213.5 
		293.5,213.5 293.5,213.5 293.5,213.5 293.5,213.5 293.5,213.5 293.5,213.5 293.5,212.5 293.5,212.5 293.5,212.5 293.5,212.5 
		294.5,212.5 294.5,212.5 294.5,212.5 294.5,212.5 294.5,213.5 294.5,213.5 294.5,214.5 294.5,214.5 294.5,214.5 294.5,215.5 
		294.5,216.5 294.5,216.5 294.5,217.5 295.5,217.5 295.5,218.5 295.5,218.5 295.5,219.5 295.5,219.5 295.5,219.5 295.5,219.5 
		295.5,219.5 295.5,220.5 295.5,220.5 295.5,220.5 295.5,220.5 295.5,221.5 296.5,221.5 296.5,221.5 296.5,221.5 296.5,221.5 
		296.5,222.5 296.5,222.5 296.5,222.5 296.5,223.5 296.5,223.5 296.5,223.5 296.5,223.5 296.5,223.5 296.5,223.5 297.5,223.5 
		297.5,222.5 297.5,222.5 297.5,221.5 297.5,221.5 297.5,220.5 297.5,220.5 297.5,219.5 297.5,219.5 297.5,218.5 297.5,217.5 
		297.5,216.5 297.5,215.5 298.5,215.5 298.5,214.5 298.5,214.5 298.5,213.5 298.5,213.5 298.5,214.5 298.5,214.5 298.5,214.5 
		298.5,214.5 298.5,213.5 298.5,213.5 298.5,213.5 298.5,213.5 299.5,213.5 299.5,213.5 299.5,213.5 299.5,213.5 299.5,213.5 
		299.5,212.5 299.5,212.5 299.5,212.5 299.5,212.5 299.5,212.5 299.5,212.5 299.5,212.5 299.5,212.5 300.5,212.5 300.5,212.5 
		300.5,211.5 300.5,211.5 300.5,211.5 300.5,211.5 300.5,211.5 300.5,211.5 300.5,211.5 300.5,211.5 300.5,211.5 300.5,211.5 
		300.5,211.5 301.5,210.5 301.5,210.5 301.5,210.5 301.5,210.5 301.5,210.5 301.5,211.5 301.5,211.5 301.5,212.5 301.5,212.5 
		301.5,212.5 301.5,212.5 301.5,212.5 301.5,212.5 302.5,211.5 302.5,210.5 302.5,209.5 302.5,209.5 302.5,207.5 302.5,206.5 
		302.5,205.5 302.5,204.5 302.5,204.5 302.5,203.5 302.5,203.5 302.5,202.5 302.5,202.5 303.5,201.5 303.5,201.5 303.5,200.5 
		303.5,200.5 303.5,199.5 303.5,199.5 303.5,198.5 303.5,198.5 303.5,197.5 303.5,197.5 303.5,196.5 303.5,196.5 303.5,195.5 
		304.5,195.5 304.5,195.5 304.5,195.5 304.5,194.5 304.5,194.5 304.5,194.5 304.5,195.5 304.5,195.5 304.5,195.5 304.5,195.5 
		304.5,196.5 304.5,196.5 304.5,196.5 305.5,197.5 305.5,197.5 305.5,198.5 305.5,198.5 305.5,199.5 305.5,199.5 305.5,199.5 
		305.5,200.5 305.5,200.5 305.5,200.5 305.5,201.5 305.5,201.5 305.5,201.5 306.5,202.5 306.5,202.5 306.5,203.5 306.5,203.5 
		306.5,204.5 306.5,204.5 306.5,205.5 306.5,205.5 306.5,206.5 306.5,207.5 306.5,207.5 306.5,208.5 306.5,209.5 307.5,209.5 
		307.5,210.5 307.5,210.5 307.5,211.5 307.5,212.5 307.5,213.5 307.5,214.5 307.5,215.5 307.5,216.5 307.5,217.5 307.5,217.5 
		307.5,218.5 307.5,219.5 308.5,219.5 308.5,219.5 308.5,219.5 308.5,219.5 308.5,220.5 308.5,220.5 308.5,220.5 308.5,220.5 
		308.5,220.5 308.5,220.5 308.5,220.5 308.5,220.5 308.5,220.5 309.5,220.5 309.5,220.5 309.5,220.5 309.5,220.5 309.5,220.5 
		309.5,220.5 309.5,219.5 309.5,219.5 309.5,219.5 309.5,218.5 309.5,218.5 309.5,217.5 309.5,217.5 310.5,217.5 310.5,217.5 
		310.5,217.5 310.5,217.5 310.5,216.5 310.5,216.5 310.5,216.5 310.5,216.5 310.5,216.5 310.5,215.5 310.5,215.5 310.5,215.5 
		310.5,215.5 311.5,215.5 311.5,215.5 311.5,215.5 311.5,215.5 311.5,215.5 311.5,214.5 311.5,214.5 311.5,214.5 311.5,214.5 
		311.5,214.5 311.5,214.5 311.5,213.5 311.5,213.5 312.5,213.5 312.5,213.5 312.5,212.5 312.5,212.5 312.5,211.5 312.5,211.5 
		312.5,210.5 312.5,210.5 312.5,209.5 312.5,209.5 312.5,208.5 312.5,208.5 312.5,208.5 313.5,208.5 313.5,208.5 313.5,209.5 
		313.5,209.5 313.5,209.5 313.5,210.5 313.5,210.5 313.5,211.5 313.5,211.5 313.5,211.5 313.5,211.5 313.5,211.5 313.5,211.5 
		314.5,210.5 314.5,209.5 314.5,209.5 314.5,208.5 314.5,208.5 314.5,208.5 314.5,207.5 314.5,207.5 314.5,207.5 314.5,207.5 
		314.5,207.5 314.5,207.5 314.5,207.5 315.5,208.5 315.5,208.5 315.5,208.5 315.5,208.5 315.5,207.5 315.5,207.5 315.5,207.5 
		315.5,207.5 315.5,207.5 315.5,206.5 315.5,206.5 315.5,205.5 315.5,205.5 316.5,204.5 316.5,203.5 316.5,203.5 316.5,202.5 
		316.5,201.5 316.5,200.5 316.5,200.5 316.5,199.5 316.5,199.5 316.5,198.5 316.5,198.5 316.5,197.5 316.5,197.5 316.5,197.5 
		317.5,196.5 317.5,196.5 317.5,195.5 317.5,195.5 317.5,195.5 317.5,194.5 317.5,193.5 317.5,193.5 317.5,193.5 317.5,193.5 
		317.5,192.5 317.5,192.5 317.5,192.5 318.5,192.5 318.5,191.5 318.5,191.5 318.5,191.5 318.5,191.5 318.5,191.5 318.5,191.5 
		318.5,191.5 318.5,191.5 318.5,191.5 318.5,191.5 318.5,191.5 318.5,191.5 319.5,192.5 319.5,192.5 319.5,192.5 319.5,192.5 
		319.5,193.5 319.5,193.5 319.5,193.5 319.5,193.5 319.5,193.5 319.5,192.5 319.5,192.5 319.5,192.5 319.5,191.5 320.5,191.5 
		320.5,191.5 320.5,190.5 320.5,190.5 320.5,190.5 320.5,189.5 320.5,189.5 320.5,189.5 320.5,189.5 320.5,188.5 320.5,189.5 
		320.5,189.5 320.5,189.5 321.5,189.5 321.5,189.5 321.5,189.5 321.5,189.5 321.5,189.5 321.5,189.5 321.5,189.5 321.5,189.5 
		321.5,188.5 321.5,188.5 321.5,187.5 321.5,187.5 321.5,187.5 322.5,186.5 322.5,186.5 322.5,186.5 322.5,186.5 322.5,186.5 
		322.5,185.5 322.5,185.5 322.5,185.5 322.5,185.5 322.5,185.5 322.5,185.5 322.5,185.5 322.5,184.5 323.5,184.5 323.5,184.5 
		323.5,184.5 323.5,184.5 323.5,184.5 323.5,183.5 323.5,183.5 323.5,183.5 323.5,183.5 323.5,183.5 323.5,183.5 323.5,183.5 
		323.5,183.5 324.5,182.5 324.5,182.5 324.5,182.5 324.5,182.5 324.5,182.5 324.5,182.5 324.5,182.5 324.5,182.5 324.5,182.5 
		324.5,182.5 324.5,181.5 324.5,181.5 324.5,181.5 325.5,181.5 325.5,181.5 325.5,181.5 325.5,181.5 325.5,181.5 325.5,181.5 
		325.5,181.5 325.5,181.5 325.5,181.5 325.5,181.5 325.5,181.5 325.5,181.5 325.5,181.5 326.5,180.5 326.5,180.5 326.5,180.5 
		326.5,179.5 326.5,179.5 326.5,179.5 326.5,179.5 326.5,179.5 326.5,178.5 326.5,178.5 326.5,178.5 326.5,178.5 326.5,178.5 
		327.5,178.5 327.5,177.5 327.5,177.5 327.5,177.5 327.5,177.5 327.5,177.5 327.5,176.5 327.5,176.5 327.5,176.5 327.5,176.5 
		327.5,176.5 327.5,175.5 327.5,175.5 328.5,175.5 328.5,175.5 328.5,175.5 328.5,174.5 328.5,174.5 328.5,174.5 328.5,174.5 
		328.5,173.5 328.5,173.5 328.5,173.5 328.5,173.5 328.5,172.5 328.5,172.5 329.5,172.5 329.5,172.5 329.5,172.5 329.5,171.5 
		329.5,171.5 329.5,171.5 329.5,171.5 329.5,171.5 329.5,170.5 329.5,170.5 329.5,170.5 329.5,169.5 329.5,169.5 330.5,169.5 
		330.5,169.5 330.5,169.5 330.5,169.5 330.5,169.5 330.5,169.5 330.5,169.5 330.5,169.5 330.5,169.5 330.5,169.5 330.5,169.5 
		330.5,169.5 330.5,169.5 331.5,169.5 331.5,169.5 331.5,169.5 331.5,169.5 331.5,169.5 331.5,169.5 331.5,170.5 331.5,170.5 
		331.5,170.5 331.5,171.5 331.5,171.5 331.5,172.5 331.5,172.5 332.5,173.5 332.5,173.5 332.5,174.5 332.5,175.5 332.5,175.5 
		332.5,176.5 332.5,177.5 332.5,178.5 332.5,179.5 332.5,180.5 332.5,180.5 332.5,181.5 332.5,181.5 333.5,181.5 333.5,181.5 
		333.5,181.5 333.5,182.5 333.5,182.5 333.5,182.5 333.5,182.5 333.5,182.5 333.5,182.5 333.5,182.5 333.5,182.5 333.5,182.5 
		333.5,181.5 334.5,181.5 334.5,181.5 334.5,181.5 334.5,181.5 334.5,181.5 334.5,181.5 334.5,181.5 334.5,181.5 334.5,181.5 
		334.5,181.5 334.5,182.5 334.5,182.5 334.5,182.5 335.5,182.5 335.5,182.5 335.5,183.5 335.5,183.5 335.5,183.5 335.5,183.5 
		335.5,184.5 335.5,185.5 335.5,185.5 335.5,186.5 335.5,186.5 335.5,187.5 335.5,187.5 336.5,188.5 336.5,189.5 336.5,190.5 
		336.5,190.5 336.5,191.5 336.5,192.5 336.5,193.5 336.5,194.5 336.5,194.5 336.5,194.5 336.5,194.5 336.5,195.5 336.5,195.5 
		337.5,195.5 337.5,195.5 337.5,194.5 337.5,194.5 337.5,194.5 337.5,194.5 337.5,193.5 337.5,193.5 337.5,193.5 337.5,192.5 
		337.5,192.5 337.5,192.5 337.5,191.5 338.5,191.5 338.5,191.5 338.5,190.5 338.5,190.5 338.5,190.5 338.5,189.5 338.5,189.5 
		338.5,188.5 338.5,188.5 338.5,188.5 338.5,188.5 338.5,188.5 338.5,188.5 339.5,188.5 339.5,188.5 339.5,187.5 339.5,187.5 
		339.5,187.5 339.5,187.5 339.5,187.5 339.5,187.5 339.5,187.5 339.5,187.5 339.5,187.5 339.5,187.5 339.5,187.5 340.5,187.5 
		340.5,187.5 340.5,186.5 340.5,186.5 340.5,186.5 340.5,186.5 340.5,186.5 340.5,187.5 340.5,187.5 340.5,186.5 340.5,186.5 
		340.5,186.5 340.5,186.5 341.5,186.5 341.5,185.5 341.5,185.5 341.5,185.5 341.5,184.5 341.5,184.5 341.5,184.5 341.5,183.5 
		341.5,183.5 341.5,182.5 341.5,182.5 341.5,181.5 341.5,181.5 342.5,181.5 342.5,180.5 342.5,180.5 342.5,180.5 342.5,179.5 
		342.5,179.5 342.5,178.5 342.5,178.5 342.5,178.5 342.5,178.5 342.5,178.5 342.5,177.5 342.5,177.5 343.5,177.5 343.5,177.5 
		343.5,177.5 343.5,177.5 343.5,176.5 343.5,176.5 343.5,176.5 343.5,177.5 343.5,177.5 343.5,177.5 343.5,177.5 343.5,177.5 
		343.5,178.5 344.5,178.5 344.5,179.5 344.5,179.5 344.5,180.5 344.5,180.5 344.5,180.5 344.5,181.5 344.5,181.5 344.5,181.5 
		344.5,182.5 344.5,182.5 344.5,182.5 344.5,183.5 345.5,183.5 345.5,184.5 345.5,185.5 345.5,185.5 345.5,186.5 345.5,186.5 
		345.5,187.5 345.5,187.5 345.5,187.5 345.5,188.5 345.5,188.5 345.5,188.5 345.5,188.5 346.5,188.5 346.5,189.5 346.5,189.5 
		346.5,189.5 346.5,189.5 346.5,189.5 346.5,189.5 346.5,188.5 346.5,188.5 346.5,188.5 346.5,187.5 346.5,187.5 346.5,186.5 
		347.5,186.5 347.5,185.5 347.5,184.5 347.5,184.5 347.5,183.5 347.5,182.5 347.5,182.5 347.5,181.5 347.5,180.5 347.5,179.5 
		347.5,179.5 347.5,178.5 347.5,178.5 348.5,177.5 348.5,176.5 348.5,176.5 348.5,175.5 348.5,175.5 348.5,174.5 348.5,174.5 
		348.5,174.5 348.5,174.5 348.5,173.5 348.5,173.5 348.5,173.5 348.5,173.5 349.5,173.5 349.5,174.5 349.5,174.5 349.5,174.5 
		349.5,174.5 349.5,174.5 349.5,174.5 349.5,174.5 349.5,173.5 349.5,173.5 349.5,173.5 349.5,172.5 349.5,172.5 350.5,171.5 
		350.5,171.5 350.5,170.5 350.5,170.5 350.5,169.5 350.5,169.5 350.5,168.5 350.5,168.5 350.5,168.5 350.5,167.5 350.5,167.5 
		350.5,167.5 350.5,167.5 351.5,167.5 351.5,167.5 351.5,167.5 351.5,167.5 351.5,167.5 351.5,167.5 351.5,167.5 351.5,166.5 
		351.5,166.5 351.5,166.5 351.5,166.5 351.5,166.5 351.5,166.5 352.5,165.5 352.5,165.5 352.5,165.5 352.5,165.5 352.5,165.5 
		352.5,164.5 352.5,164.5 352.5,164.5 352.5,164.5 352.5,164.5 352.5,164.5 352.5,164.5 352.5,164.5 353.5,163.5 353.5,162.5 
		353.5,162.5 353.5,161.5 353.5,160.5 353.5,159.5 353.5,158.5 353.5,156.5 353.5,155.5 353.5,154.5 353.5,153.5 353.5,152.5 
		353.5,151.5 354.5,150.5 354.5,149.5 354.5,148.5 354.5,148.5 354.5,147.5 354.5,146.5 354.5,146.5 354.5,145.5 354.5,145.5 
		354.5,144.5 354.5,144.5 354.5,144.5 354.5,143.5 355.5,143.5 355.5,143.5 355.5,142.5 355.5,142.5 355.5,142.5 355.5,141.5 
		355.5,141.5 355.5,141.5 355.5,141.5 355.5,141.5 355.5,141.5 355.5,140.5 355.5,140.5 356.5,140.5 356.5,140.5 356.5,140.5 
		356.5,140.5 356.5,140.5 356.5,140.5 356.5,141.5 356.5,141.5 356.5,141.5 356.5,141.5 356.5,141.5 356.5,142.5 356.5,142.5 
		357.5,142.5 357.5,142.5 357.5,142.5 357.5,142.5 357.5,142.5 357.5,142.5 357.5,142.5 357.5,142.5 357.5,143.5 357.5,143.5 
		357.5,144.5 357.5,144.5 357.5,144.5 358.5,144.5 358.5,144.5 358.5,144.5 358.5,144.5 358.5,143.5 358.5,143.5 358.5,143.5 
		358.5,143.5 358.5,143.5 358.5,143.5 358.5,143.5 358.5,144.5 358.5,144.5 359.5,145.5 359.5,145.5 359.5,146.5 359.5,147.5 
		359.5,148.5 359.5,148.5 359.5,149.5 359.5,150.5 359.5,150.5 359.5,151.5 359.5,151.5 359.5,151.5 359.5,151.5 360.5,151.5 
		360.5,151.5 360.5,151.5 360.5,151.5 360.5,150.5 360.5,150.5 360.5,150.5 360.5,150.5 360.5,150.5 360.5,150.5 360.5,150.5 
		360.5,150.5 360.5,150.5 361.5,150.5 361.5,150.5 361.5,150.5 361.5,150.5 361.5,150.5 361.5,150.5 361.5,151.5 361.5,151.5 
		361.5,150.5 361.5,150.5 361.5,150.5 361.5,150.5 361.5,150.5 362.5,150.5 362.5,150.5 362.5,151.5 362.5,151.5 362.5,151.5 
		362.5,151.5 362.5,152.5 362.5,152.5 362.5,152.5 362.5,152.5 362.5,152.5 362.5,153.5 362.5,153.5 363.5,153.5 363.5,154.5 
		363.5,154.5 363.5,155.5 363.5,155.5 363.5,155.5 363.5,156.5 363.5,156.5 363.5,156.5 363.5,157.5 363.5,157.5 363.5,157.5 
		363.5,157.5 364.5,158.5 364.5,158.5 364.5,158.5 364.5,158.5 364.5,158.5 364.5,159.5 364.5,159.5 364.5,159.5 364.5,159.5 
		364.5,160.5 364.5,160.5 364.5,160.5 364.5,161.5 364.5,161.5 365.5,162.5 365.5,162.5 365.5,163.5 365.5,163.5 365.5,164.5 
		365.5,164.5 365.5,164.5 365.5,165.5 365.5,165.5 365.5,166.5 365.5,166.5 365.5,166.5 365.5,166.5 366.5,167.5 366.5,167.5 
		366.5,168.5 366.5,168.5 366.5,169.5 366.5,170.5 366.5,170.5 366.5,171.5 366.5,171.5 366.5,171.5 366.5,172.5 366.5,172.5 
		366.5,173.5 367.5,173.5 367.5,173.5 367.5,173.5 367.5,174.5 367.5,174.5 367.5,174.5 367.5,174.5 367.5,174.5 367.5,175.5 
		367.5,175.5 367.5,175.5 367.5,175.5 367.5,175.5 368.5,176.5 368.5,176.5 368.5,176.5 368.5,176.5 368.5,176.5 368.5,177.5 
		368.5,177.5 368.5,177.5 368.5,178.5 368.5,178.5 368.5,178.5 368.5,179.5 368.5,179.5 369.5,179.5 369.5,180.5 369.5,180.5 
		369.5,181.5 369.5,182.5 369.5,182.5 369.5,183.5 369.5,183.5 369.5,183.5 369.5,183.5 369.5,183.5 369.5,183.5 369.5,183.5 
		370.5,183.5 370.5,183.5 370.5,182.5 370.5,182.5 370.5,182.5 370.5,182.5 370.5,182.5 370.5,183.5 370.5,183.5 370.5,183.5 
		370.5,184.5 370.5,184.5 370.5,184.5 371.5,184.5 371.5,184.5 371.5,185.5 371.5,185.5 371.5,185.5 371.5,185.5 371.5,185.5 
		371.5,185.5 371.5,186.5 371.5,186.5 371.5,186.5 371.5,186.5 371.5,186.5 372.5,186.5 372.5,186.5 372.5,186.5 372.5,186.5 
		372.5,186.5 372.5,186.5 372.5,186.5 372.5,186.5 372.5,186.5 372.5,186.5 372.5,186.5 372.5,186.5 372.5,186.5 373.5,186.5 
		373.5,186.5 373.5,186.5 373.5,186.5 373.5,186.5 373.5,186.5 373.5,186.5 373.5,186.5 373.5,186.5 373.5,187.5 373.5,187.5 
		373.5,187.5 373.5,187.5 374.5,187.5 374.5,187.5 374.5,187.5 374.5,188.5 374.5,188.5 374.5,188.5 374.5,188.5 374.5,189.5 
		374.5,189.5 374.5,189.5 374.5,189.5 374.5,188.5 374.5,188.5 375.5,188.5 375.5,188.5 375.5,188.5 375.5,188.5 375.5,189.5 
		375.5,189.5 375.5,189.5 375.5,190.5 375.5,190.5 375.5,190.5 375.5,190.5 375.5,190.5 375.5,190.5 376.5,190.5 376.5,190.5 
		376.5,190.5 376.5,190.5 376.5,190.5 376.5,189.5 376.5,189.5 376.5,189.5 376.5,188.5 376.5,188.5 376.5,188.5 376.5,187.5 
		376.5,187.5 377.5,187.5 377.5,187.5 377.5,186.5 377.5,186.5 377.5,186.5 377.5,186.5 377.5,186.5 377.5,186.5 377.5,186.5 
		377.5,186.5 377.5,186.5 377.5,187.5 377.5,187.5 378.5,187.5 378.5,187.5 378.5,187.5 378.5,188.5 378.5,188.5 378.5,188.5 
		378.5,188.5 378.5,189.5 378.5,189.5 378.5,189.5 378.5,190.5 378.5,190.5 378.5,191.5 379.5,191.5 379.5,191.5 379.5,191.5 
		379.5,191.5 379.5,192.5 379.5,192.5 379.5,192.5 379.5,193.5 379.5,193.5 379.5,193.5 379.5,193.5 379.5,194.5 379.5,194.5 
		380.5,194.5 380.5,194.5 380.5,194.5 380.5,194.5 380.5,194.5 380.5,194.5 380.5,194.5 380.5,194.5 380.5,194.5 380.5,194.5 
		380.5,194.5 380.5,194.5 380.5,194.5 381.5,194.5 381.5,194.5 381.5,194.5 381.5,195.5 381.5,195.5 381.5,196.5 381.5,196.5 
		381.5,197.5 381.5,197.5 381.5,197.5 381.5,197.5 381.5,198.5 381.5,198.5 382.5,198.5 382.5,199.5 382.5,199.5 382.5,199.5 
		382.5,199.5 382.5,200.5 382.5,200.5 382.5,201.5 382.5,201.5 382.5,202.5 382.5,202.5 382.5,202.5 382.5,203.5 383.5,203.5 
		383.5,203.5 383.5,203.5 383.5,203.5 383.5,204.5 383.5,204.5 383.5,204.5 383.5,204.5 383.5,204.5 383.5,204.5 383.5,204.5 
		383.5,204.5 383.5,204.5 384.5,204.5 384.5,204.5 384.5,204.5 384.5,204.5 384.5,204.5 384.5,204.5 384.5,205.5 384.5,205.5 
		384.5,205.5 384.5,205.5 384.5,206.5 384.5,206.5 384.5,206.5 385.5,206.5 385.5,206.5 385.5,206.5 385.5,206.5 385.5,206.5 
		385.5,206.5 385.5,206.5 385.5,207.5 385.5,207.5 385.5,207.5 385.5,207.5 385.5,207.5 385.5,207.5 386.5,207.5 386.5,207.5 
		386.5,207.5 386.5,207.5 386.5,208.5 386.5,208.5 386.5,207.5 386.5,207.5 386.5,207.5 386.5,207.5 386.5,207.5 386.5,207.5 
		386.5,207.5 387.5,207.5 387.5,207.5 387.5,207.5 387.5,207.5 387.5,207.5 387.5,207.5 387.5,207.5 387.5,207.5 387.5,207.5 
		387.5,208.5 387.5,208.5 387.5,208.5 387.5,208.5 388.5,208.5 388.5,209.5 388.5,209.5 388.5,209.5 388.5,209.5 388.5,209.5 
		388.5,210.5 388.5,210.5 388.5,210.5 388.5,210.5 388.5,211.5 388.5,211.5 388.5,211.5 389.5,211.5 389.5,211.5 389.5,211.5 
		389.5,211.5 389.5,212.5 389.5,212.5 389.5,212.5 389.5,212.5 389.5,212.5 389.5,212.5 389.5,213.5 389.5,213.5 389.5,213.5 
		390.5,213.5 390.5,213.5 390.5,213.5 390.5,214.5 390.5,214.5 390.5,214.5 390.5,214.5 390.5,214.5 390.5,214.5 390.5,215.5 
		390.5,215.5 390.5,215.5 390.5,215.5 391.5,215.5 391.5,215.5 391.5,216.5 391.5,216.5 391.5,216.5 391.5,216.5 391.5,216.5 
		391.5,216.5 391.5,217.5 391.5,217.5 391.5,218.5 391.5,218.5 391.5,218.5 392.5,218.5 392.5,218.5 392.5,218.5 392.5,218.5 
		392.5,218.5 392.5,218.5 392.5,217.5 392.5,217.5 392.5,217.5 392.5,216.5 392.5,216.5 392.5,215.5 392.5,215.5 393.5,215.5 
		393.5,214.5 393.5,214.5 393.5,214.5 393.5,214.5 393.5,215.5 393.5,215.5 393.5,215.5 393.5,215.5 393.5,215.5 393.5,215.5 
		393.5,215.5 393.5,215.5 394.5,214.5 394.5,214.5 394.5,214.5 394.5,215.5 394.5,215.5 394.5,215.5 394.5,216.5 394.5,216.5 
		394.5,217.5 394.5,217.5 394.5,218.5 394.5,218.5 394.5,219.5 395.5,219.5 395.5,220.5 395.5,220.5 395.5,221.5 395.5,221.5 
		395.5,221.5 395.5,221.5 395.5,221.5 395.5,221.5 395.5,221.5 395.5,221.5 395.5,221.5 395.5,221.5 396.5,221.5 396.5,221.5 
		396.5,221.5 396.5,221.5 396.5,221.5 396.5,221.5 396.5,221.5 396.5,221.5 396.5,221.5 396.5,221.5 396.5,221.5 396.5,221.5 
		396.5,221.5 397.5,221.5 397.5,221.5 397.5,221.5 397.5,221.5 397.5,221.5 397.5,221.5 397.5,220.5 397.5,220.5 397.5,220.5 
		397.5,219.5 397.5,219.5 397.5,219.5 397.5,219.5 398.5,219.5 398.5,219.5 398.5,219.5 398.5,219.5 398.5,219.5 398.5,219.5 
		398.5,219.5 398.5,219.5 398.5,219.5 398.5,220.5 398.5,220.5 398.5,220.5 398.5,220.5 399.5,221.5 399.5,221.5 399.5,221.5 
		399.5,221.5 399.5,222.5 399.5,222.5 399.5,222.5 399.5,222.5 399.5,223.5 399.5,223.5 399.5,223.5 399.5,223.5 399.5,223.5 
		400.5,223.5 400.5,223.5 400.5,223.5 400.5,223.5 400.5,223.5 400.5,223.5 400.5,223.5 400.5,223.5 400.5,223.5 400.5,223.5 
		400.5,223.5 400.5,223.5 400.5,223.5 401.5,223.5 401.5,223.5 401.5,223.5 401.5,223.5 401.5,223.5 401.5,223.5 401.5,223.5 
		401.5,223.5 401.5,223.5 401.5,223.5 401.5,224.5 401.5,224.5 401.5,224.5 402.5,224.5 402.5,224.5 402.5,224.5 402.5,224.5 
		402.5,224.5 402.5,224.5 402.5,224.5 402.5,224.5 402.5,224.5 402.5,224.5 402.5,224.5 402.5,224.5 402.5,224.5 403.5,224.5 
		403.5,224.5 403.5,224.5 403.5,224.5 403.5,224.5 403.5,225.5 403.5,224.5 403.5,224.5 403.5,224.5 403.5,224.5 403.5,224.5 
		403.5,224.5 403.5,224.5 404.5,224.5 404.5,224.5 404.5,224.5 404.5,224.5 404.5,224.5 404.5,224.5 404.5,224.5 404.5,224.5 
		404.5,225.5 404.5,225.5 404.5,225.5 404.5,225.5 404.5,225.5 405.5,225.5 405.5,225.5 405.5,225.5 405.5,225.5 405.5,225.5 
		405.5,225.5 405.5,225.5 405.5,225.5 405.5,225.5 405.5,225.5 405.5,225.5 405.5,225.5 405.5,225.5 406.5,225.5 406.5,225.5 
		406.5,225.5 406.5,225.5 406.5,225.5 406.5,225.5 406.5,225.5 406.5,225.5 406.5,225.5 406.5,225.5 406.5,225.5 406.5,225.5 
		406.5,225.5 407.5,225.5 407.5,225.5 407.5,225.5 407.5,225.5 407.5,225.5 407.5,225.5 407.5,225.5 407.5,225.5 407.5,225.5 
		407.5,225.5 407.5,225.5 407.5,225.5 407.5,225.5 408.5,225.5 408.5,225.5 408.5,225.5 408.5,225.5 408.5,224.5 408.5,224.5 
		408.5,224.5 408.5,224.5 408.5,224.5 408.5,224.5 408.5,223.5 408.5,223.5 408.5,223.5 409.5,223.5 409.5,223.5 409.5,222.5 
		409.5,222.5 409.5,222.5 409.5,222.5 409.5,222.5 409.5,222.5 409.5,221.5 409.5,221.5 409.5,221.5 409.5,221.5 409.5,221.5 
		410.5,221.5 410.5,221.5 410.5,221.5 410.5,221.5 410.5,221.5 410.5,221.5 410.5,221.5 410.5,220.5 410.5,220.5 410.5,220.5 
		410.5,220.5 410.5,220.5 410.5,220.5 411.5,220.5 411.5,220.5 411.5,220.5 411.5,220.5 411.5,221.5 411.5,221.5 411.5,221.5 
		411.5,221.5 411.5,221.5 411.5,221.5 411.5,221.5 411.5,222.5 411.5,222.5 412.5,222.5 412.5,222.5 412.5,223.5 412.5,223.5 
		412.5,223.5 412.5,223.5 412.5,224.5 412.5,224.5 412.5,224.5 412.5,224.5 412.5,225.5 412.5,225.5 412.5,225.5 413.5,225.5 
		413.5,225.5 413.5,225.5 413.5,226.5 413.5,226.5 413.5,226.5 413.5,226.5 413.5,226.5 413.5,226.5 413.5,226.5 413.5,226.5 
		413.5,226.5 413.5,226.5 413.5,226.5 414.5,227.5 414.5,227.5 414.5,227.5 414.5,227.5 414.5,227.5 414.5,227.5 414.5,227.5 
		414.5,227.5 414.5,226.5 414.5,226.5 414.5,226.5 414.5,226.5 414.5,225.5 415.5,225.5 415.5,225.5 415.5,225.5 415.5,225.5 
		415.5,224.5 415.5,224.5 415.5,224.5 415.5,224.5 415.5,224.5 415.5,224.5 415.5,224.5 415.5,224.5 415.5,224.5 416.5,224.5 
		416.5,224.5 416.5,224.5 416.5,224.5 416.5,224.5 416.5,224.5 416.5,224.5 416.5,225.5 416.5,225.5 416.5,225.5 416.5,225.5 
		416.5,225.5 416.5,226.5 417.5,226.5 417.5,226.5 417.5,226.5 417.5,227.5 417.5,227.5 417.5,227.5 417.5,228.5 417.5,228.5 
		417.5,229.5 417.5,229.5 417.5,228.5 417.5,228.5 417.5,228.5 418.5,228.5 418.5,228.5 418.5,228.5 418.5,228.5 418.5,228.5 
		418.5,228.5 418.5,228.5 418.5,228.5 418.5,228.5 418.5,228.5 418.5,228.5 418.5,228.5 418.5,228.5 419.5,228.5 419.5,228.5 
		419.5,228.5 419.5,228.5 419.5,228.5 419.5,228.5 419.5,228.5 419.5,228.5 419.5,228.5 419.5,228.5 419.5,228.5 419.5,228.5 
		419.5,228.5 420.5,228.5 420.5,228.5 420.5,227.5 420.5,227.5 420.5,227.5 420.5,227.5 420.5,227.5 420.5,227.5 420.5,226.5 
		420.5,226.5 420.5,226.5 420.5,226.5 420.5,226.5 421.5,226.5 421.5,226.5 421.5,226.5 421.5,227.5 421.5,227.5 421.5,227.5 
		421.5,227.5 421.5,228.5 421.5,229.5 421.5,229.5 421.5,228.5 421.5,227.5 421.5,225.5 422.5,224.5 422.5,224.5 422.5,224.5 
		422.5,224.5 422.5,224.5 422.5,223.5 422.5,223.5 422.5,223.5 422.5,223.5 422.5,223.5 422.5,222.5 422.5,222.5 422.5,222.5 
		423.5,221.5 423.5,221.5 423.5,221.5 423.5,221.5 423.5,220.5 423.5,220.5 423.5,220.5 423.5,219.5 423.5,219.5 423.5,219.5 
		423.5,218.5 423.5,218.5 423.5,218.5 424.5,217.5 424.5,217.5 424.5,217.5 424.5,217.5 424.5,217.5 424.5,217.5 424.5,217.5 
		424.5,217.5 424.5,217.5 424.5,217.5 424.5,217.5 424.5,218.5 424.5,218.5 425.5,218.5 425.5,218.5 425.5,218.5 425.5,218.5 
		425.5,218.5 425.5,218.5 425.5,218.5 425.5,218.5 425.5,217.5 425.5,217.5 425.5,217.5 425.5,217.5 425.5,217.5 426.5,217.5 
		426.5,217.5 426.5,217.5 426.5,217.5 426.5,217.5 426.5,217.5 426.5,216.5 426.5,216.5 426.5,216.5 426.5,216.5 426.5,216.5 
		426.5,215.5 426.5,215.5 427.5,215.5 427.5,215.5 427.5,215.5 427.5,214.5 427.5,214.5 427.5,214.5 427.5,213.5 427.5,213.5 
		427.5,213.5 427.5,212.5 427.5,212.5 427.5,212.5 427.5,211.5 428.5,211.5 428.5,211.5 428.5,211.5 428.5,210.5 428.5,210.5 
		428.5,210.5 428.5,210.5 428.5,209.5 428.5,209.5 428.5,209.5 428.5,209.5 428.5,209.5 428.5,208.5 429.5,208.5 429.5,208.5 
		429.5,208.5 429.5,208.5 429.5,208.5 429.5,208.5 429.5,208.5 429.5,208.5 429.5,208.5 429.5,208.5 429.5,208.5 429.5,208.5 
		429.5,208.5 430.5,209.5 430.5,209.5 430.5,209.5 430.5,210.5 430.5,210.5 430.5,210.5 430.5,210.5 430.5,211.5 430.5,211.5 
		430.5,211.5 430.5,211.5 430.5,212.5 430.5,212.5 431.5,212.5 431.5,212.5 431.5,213.5 431.5,213.5 431.5,213.5 431.5,213.5 
		431.5,213.5 431.5,213.5 431.5,213.5 431.5,213.5 431.5,213.5 431.5,213.5 431.5,213.5 432.5,214.5 432.5,214.5 432.5,214.5 
		432.5,214.5 432.5,214.5 432.5,214.5 432.5,214.5 432.5,214.5 432.5,214.5 432.5,214.5 432.5,214.5 432.5,215.5 432.5,215.5 
		433.5,215.5 433.5,215.5 433.5,215.5 433.5,215.5 433.5,215.5 433.5,216.5 433.5,216.5 433.5,216.5 433.5,216.5 433.5,216.5 
		433.5,216.5 433.5,216.5 433.5,217.5 434.5,217.5 434.5,217.5 434.5,216.5 434.5,216.5 434.5,216.5 434.5,217.5 434.5,217.5 
		434.5,217.5 434.5,217.5 434.5,217.5 434.5,217.5 434.5,217.5 434.5,217.5 435.5,217.5 435.5,217.5 435.5,217.5 435.5,217.5 
		435.5,217.5 435.5,217.5 435.5,217.5 435.5,218.5 435.5,218.5 435.5,218.5 435.5,218.5 435.5,218.5 435.5,218.5 436.5,218.5 
		436.5,218.5 436.5,218.5 436.5,218.5 436.5,218.5 436.5,217.5 436.5,217.5 436.5,217.5 436.5,217.5 436.5,217.5 436.5,217.5 
		436.5,217.5 436.5,217.5 437.5,217.5 437.5,217.5 437.5,217.5 437.5,216.5 437.5,216.5 437.5,216.5 437.5,216.5 437.5,216.5 
		437.5,215.5 437.5,215.5 437.5,215.5 437.5,215.5 437.5,214.5 438.5,214.5 438.5,214.5 438.5,213.5 438.5,213.5 438.5,212.5 
		438.5,212.5 438.5,212.5 438.5,211.5 438.5,211.5 438.5,210.5 438.5,210.5 438.5,210.5 438.5,209.5 439.5,209.5 439.5,209.5 
		439.5,208.5 439.5,208.5 439.5,208.5 439.5,207.5 439.5,207.5 439.5,207.5 439.5,207.5 439.5,206.5 439.5,206.5 439.5,206.5 
		439.5,206.5 440.5,205.5 440.5,205.5 440.5,205.5 440.5,205.5 440.5,204.5 440.5,204.5 440.5,204.5 440.5,204.5 440.5,203.5 
		440.5,203.5 440.5,203.5 440.5,203.5 440.5,203.5 441.5,202.5 441.5,202.5 441.5,202.5 441.5,202.5 441.5,201.5 441.5,201.5 
		441.5,201.5 441.5,201.5 441.5,201.5 441.5,201.5 441.5,200.5 441.5,200.5 441.5,200.5 442.5,200.5 442.5,200.5 442.5,201.5 
		442.5,201.5 442.5,201.5 442.5,201.5 442.5,201.5 442.5,202.5 442.5,202.5 442.5,202.5 442.5,203.5 442.5,203.5 442.5,203.5 
		443.5,204.5 443.5,204.5 443.5,205.5 443.5,205.5 443.5,206.5 443.5,206.5 443.5,207.5 443.5,207.5 443.5,207.5 443.5,207.5 
		443.5,207.5 443.5,208.5 443.5,207.5 444.5,207.5 444.5,207.5 444.5,207.5 444.5,206.5 444.5,206.5 444.5,206.5 444.5,206.5 
		444.5,205.5 444.5,205.5 444.5,204.5 444.5,204.5 444.5,204.5 444.5,203.5 445.5,203.5 445.5,203.5 445.5,202.5 445.5,202.5 
		445.5,202.5 445.5,201.5 445.5,201.5 445.5,201.5 445.5,200.5 445.5,200.5 445.5,199.5 445.5,199.5 445.5,198.5 446.5,197.5 
		446.5,197.5 446.5,196.5 446.5,196.5 446.5,195.5 446.5,194.5 446.5,194.5 446.5,194.5 446.5,193.5 446.5,192.5 446.5,192.5 
		446.5,191.5 446.5,191.5 447.5,190.5 447.5,190.5 447.5,189.5 447.5,189.5 447.5,189.5 447.5,189.5 447.5,189.5 447.5,189.5 
		447.5,189.5 447.5,189.5 447.5,189.5 447.5,189.5 447.5,189.5 448.5,189.5 448.5,189.5 448.5,189.5 448.5,189.5 448.5,189.5 
		448.5,190.5 448.5,190.5 448.5,190.5 448.5,190.5 448.5,190.5 448.5,190.5 448.5,190.5 448.5,191.5 449.5,192.5 449.5,193.5 
		449.5,193.5 449.5,194.5 449.5,194.5 449.5,195.5 449.5,195.5 449.5,196.5 449.5,196.5 449.5,197.5 449.5,197.5 449.5,197.5 
		449.5,198.5 450.5,198.5 450.5,198.5 450.5,198.5 450.5,198.5 450.5,198.5 450.5,197.5 450.5,197.5 450.5,196.5 450.5,196.5 
		450.5,196.5 450.5,195.5 450.5,195.5 450.5,194.5 451.5,194.5 451.5,194.5 451.5,194.5 451.5,194.5 451.5,194.5 451.5,194.5 
		451.5,194.5 451.5,194.5 451.5,193.5 451.5,192.5 451.5,193.5 451.5,192.5 451.5,191.5 452.5,190.5 452.5,189.5 452.5,188.5 
		452.5,187.5 452.5,186.5 452.5,184.5 452.5,183.5 452.5,182.5 452.5,181.5 452.5,181.5 452.5,180.5 452.5,179.5 452.5,179.5 
		453.5,178.5 453.5,178.5 453.5,177.5 453.5,177.5 453.5,177.5 453.5,176.5 453.5,176.5 453.5,176.5 453.5,176.5 453.5,176.5 
		453.5,175.5 453.5,175.5 453.5,175.5 454.5,175.5 454.5,175.5 454.5,175.5 454.5,174.5 454.5,174.5 454.5,174.5 454.5,174.5 
		454.5,173.5 454.5,173.5 454.5,173.5 454.5,172.5 454.5,172.5 454.5,172.5 455.5,172.5 455.5,171.5 455.5,171.5 455.5,171.5 
		455.5,171.5 455.5,171.5 455.5,171.5 455.5,171.5 455.5,171.5 455.5,171.5 455.5,171.5 455.5,171.5 455.5,171.5 456.5,171.5 
		456.5,172.5 456.5,172.5 456.5,172.5 456.5,171.5 456.5,171.5 456.5,171.5 456.5,171.5 456.5,170.5 456.5,170.5 456.5,170.5 
		456.5,170.5 456.5,170.5 457.5,170.5 457.5,170.5 457.5,170.5 457.5,170.5 457.5,170.5 457.5,170.5 457.5,171.5 457.5,171.5 
		457.5,171.5 457.5,172.5 457.5,173.5 457.5,173.5 457.5,174.5 458.5,175.5 458.5,175.5 458.5,176.5 458.5,177.5 458.5,178.5 
		458.5,179.5 458.5,180.5 458.5,181.5 458.5,182.5 458.5,182.5 458.5,183.5 458.5,184.5 458.5,185.5 459.5,185.5 459.5,186.5 
		459.5,187.5 459.5,187.5 459.5,188.5 459.5,188.5 459.5,189.5 459.5,188.5 459.5,187.5 459.5,187.5 459.5,186.5 459.5,185.5 
		459.5,185.5 460.5,184.5 460.5,183.5 460.5,182.5 460.5,181.5 460.5,181.5 460.5,180.5 460.5,179.5 460.5,178.5 460.5,177.5 
		460.5,176.5 460.5,175.5 460.5,174.5 460.5,173.5 461.5,172.5 461.5,172.5 461.5,171.5 461.5,170.5 461.5,169.5 461.5,168.5 
		461.5,167.5 461.5,167.5 461.5,167.5 461.5,167.5 461.5,167.5 461.5,167.5 461.5,167.5 461.5,167.5 462.5,167.5 462.5,167.5 
		462.5,167.5 462.5,167.5 462.5,167.5 462.5,167.5 462.5,167.5 462.5,167.5 462.5,167.5 462.5,167.5 462.5,166.5 462.5,166.5 
		462.5,166.5 463.5,166.5 463.5,166.5 463.5,166.5 463.5,165.5 463.5,165.5 463.5,165.5 463.5,166.5 463.5,167.5 463.5,168.5 
		463.5,169.5 463.5,170.5 463.5,170.5 463.5,171.5 464.5,172.5 464.5,172.5 464.5,174.5 464.5,175.5 464.5,176.5 464.5,177.5 
		464.5,177.5 464.5,178.5 464.5,178.5 464.5,178.5 464.5,178.5 464.5,178.5 464.5,178.5 465.5,179.5 465.5,179.5 465.5,179.5 
		465.5,178.5 465.5,178.5 465.5,178.5 465.5,178.5 465.5,179.5 465.5,178.5 465.5,178.5 465.5,179.5 465.5,179.5 465.5,179.5 
		466.5,179.5 466.5,180.5 466.5,180.5 466.5,180.5 466.5,180.5 466.5,180.5 466.5,180.5 466.5,181.5 466.5,181.5 466.5,181.5 
		466.5,182.5 466.5,182.5 466.5,182.5 467.5,182.5 467.5,182.5 467.5,182.5 467.5,181.5 467.5,181.5 467.5,180.5 467.5,180.5 
		467.5,179.5 467.5,179.5 467.5,178.5 467.5,178.5 467.5,178.5 467.5,178.5 468.5,178.5 468.5,178.5 468.5,178.5 468.5,178.5 
		468.5,178.5 468.5,177.5 468.5,177.5 468.5,177.5 468.5,177.5 468.5,177.5 468.5,176.5 468.5,176.5 468.5,176.5 469.5,175.5 
		469.5,175.5 469.5,174.5 469.5,174.5 469.5,173.5 469.5,173.5 469.5,173.5 469.5,172.5 469.5,172.5 469.5,171.5 469.5,171.5 
		469.5,170.5 469.5,170.5 470.5,169.5 470.5,169.5 470.5,168.5 470.5,168.5 470.5,168.5 470.5,167.5 470.5,167.5 470.5,166.5 
		470.5,166.5 470.5,166.5 470.5,165.5 470.5,165.5 470.5,164.5 471.5,164.5 471.5,163.5 471.5,163.5 471.5,162.5 471.5,162.5 
		471.5,162.5 471.5,161.5 471.5,161.5 471.5,160.5 471.5,160.5 471.5,160.5 471.5,159.5 471.5,159.5 472.5,159.5 472.5,159.5 
		472.5,158.5 472.5,158.5 472.5,158.5 472.5,158.5 472.5,158.5 472.5,158.5 472.5,158.5 472.5,157.5 472.5,157.5 472.5,157.5 
		472.5,157.5 473.5,157.5 473.5,157.5 473.5,157.5 473.5,157.5 473.5,157.5 473.5,157.5 473.5,157.5 473.5,157.5 473.5,157.5 
		473.5,157.5 473.5,157.5 473.5,156.5 473.5,156.5 474.5,156.5 474.5,157.5 474.5,156.5 474.5,156.5 474.5,156.5 474.5,156.5 
		474.5,156.5 474.5,156.5 474.5,156.5 474.5,156.5 474.5,156.5 474.5,156.5 474.5,156.5 475.5,156.5 475.5,156.5 475.5,156.5 
		475.5,156.5 475.5,156.5 475.5,156.5 475.5,156.5 475.5,155.5 475.5,155.5 475.5,155.5 475.5,154.5 475.5,154.5 475.5,154.5 
		476.5,153.5 476.5,153.5 476.5,152.5 476.5,152.5 476.5,151.5 476.5,151.5 476.5,150.5 476.5,149.5 476.5,149.5 476.5,148.5 
		476.5,147.5 476.5,147.5 476.5,145.5 477.5,144.5 477.5,144.5 477.5,143.5 477.5,142.5 477.5,141.5 477.5,139.5 477.5,138.5 
		477.5,137.5 477.5,136.5 477.5,136.5 477.5,135.5 477.5,135.5 477.5,134.5 478.5,133.5 478.5,133.5 478.5,133.5 478.5,133.5 
		478.5,133.5 478.5,133.5 478.5,133.5 478.5,133.5 478.5,133.5 478.5,133.5 478.5,132.5 478.5,132.5 478.5,132.5 479.5,132.5 
		479.5,132.5 479.5,132.5 479.5,132.5 479.5,132.5 479.5,132.5 479.5,132.5 479.5,132.5 479.5,132.5 479.5,132.5 479.5,132.5 
		479.5,132.5 479.5,132.5 480.5,132.5 480.5,132.5 480.5,132.5 480.5,132.5 480.5,132.5 480.5,132.5 480.5,132.5 480.5,132.5 
		480.5,132.5 480.5,132.5 480.5,132.5 480.5,131.5 480.5,131.5 481.5,131.5 481.5,132.5 481.5,133.5 481.5,134.5 481.5,135.5 
		481.5,136.5 481.5,136.5 481.5,137.5 481.5,137.5 481.5,138.5 481.5,139.5 481.5,139.5 481.5,140.5 482.5,140.5 482.5,140.5 
		482.5,140.5 482.5,140.5 482.5,140.5 482.5,140.5 482.5,140.5 482.5,140.5 482.5,140.5 482.5,140.5 482.5,141.5 482.5,140.5 
		482.5,140.5 483.5,140.5 483.5,140.5 483.5,140.5 483.5,140.5 483.5,140.5 483.5,140.5 483.5,140.5 483.5,140.5 483.5,140.5 
		483.5,139.5 483.5,139.5 483.5,139.5 483.5,139.5 484.5,139.5 484.5,139.5 484.5,139.5 484.5,139.5 484.5,139.5 484.5,139.5 
		484.5,139.5 484.5,139.5 484.5,139.5 484.5,138.5 484.5,138.5 484.5,138.5 484.5,138.5 485.5,138.5 485.5,138.5 485.5,138.5 
		485.5,137.5 485.5,137.5 485.5,137.5 485.5,137.5 485.5,137.5 485.5,137.5 485.5,136.5 485.5,136.5 485.5,136.5 485.5,136.5 
		486.5,136.5 486.5,135.5 486.5,135.5 486.5,135.5 486.5,135.5 486.5,135.5 486.5,135.5 486.5,134.5 486.5,134.5 486.5,134.5 
		486.5,134.5 486.5,134.5 486.5,134.5 487.5,134.5 487.5,134.5 487.5,134.5 487.5,134.5 487.5,134.5 487.5,134.5 487.5,133.5 
		487.5,133.5 487.5,133.5 487.5,133.5 487.5,133.5 487.5,133.5 487.5,133.5 488.5,132.5 488.5,132.5 488.5,132.5 488.5,132.5 
		488.5,132.5 488.5,132.5 488.5,132.5 488.5,132.5 488.5,132.5 488.5,131.5 488.5,131.5 488.5,131.5 488.5,131.5 489.5,131.5 
		489.5,131.5 489.5,131.5 489.5,131.5 489.5,131.5 489.5,132.5 489.5,132.5 489.5,132.5 489.5,132.5 489.5,132.5 489.5,132.5 
		489.5,133.5 489.5,134.5 490.5,134.5 490.5,135.5 490.5,136.5 490.5,136.5 490.5,136.5 490.5,137.5 490.5,137.5 490.5,137.5 
		490.5,137.5 490.5,137.5 490.5,138.5 490.5,138.5 490.5,138.5 491.5,138.5 491.5,138.5 491.5,138.5 491.5,137.5 491.5,137.5 
		491.5,137.5 491.5,136.5 491.5,136.5 491.5,136.5 491.5,136.5 491.5,136.5 491.5,136.5 491.5,136.5 492.5,136.5 492.5,136.5 
		492.5,136.5 492.5,136.5 492.5,135.5 492.5,135.5 492.5,135.5 492.5,135.5 492.5,135.5 492.5,134.5 492.5,134.5 492.5,134.5 
		492.5,134.5 493.5,134.5 493.5,134.5 493.5,134.5 493.5,134.5 493.5,134.5 493.5,134.5 493.5,134.5 493.5,134.5 493.5,134.5 
		493.5,134.5 493.5,134.5 493.5,134.5 493.5,134.5 494.5,133.5 494.5,133.5 494.5,133.5 494.5,133.5 494.5,133.5 494.5,133.5 
		494.5,132.5 494.5,132.5 494.5,132.5 494.5,132.5 494.5,131.5 494.5,131.5 494.5,131.5 495.5,130.5 495.5,130.5 495.5,130.5 
		495.5,129.5 495.5,129.5 495.5,129.5 495.5,129.5 495.5,128.5 495.5,128.5 495.5,127.5 495.5,126.5 495.5,126.5 495.5,126.5 
		496.5,125.5 496.5,125.5 496.5,125.5 496.5,124.5 496.5,124.5 496.5,124.5 496.5,123.5 496.5,123.5 496.5,123.5 496.5,122.5 
		496.5,122.5 496.5,122.5 496.5,121.5 497.5,121.5 497.5,121.5 497.5,121.5 497.5,120.5 497.5,120.5 497.5,120.5 497.5,120.5 
		497.5,120.5 497.5,119.5 497.5,119.5 497.5,119.5 497.5,119.5 497.5,119.5 498.5,119.5 498.5,119.5 498.5,119.5 498.5,119.5 
		498.5,119.5 498.5,119.5 498.5,119.5 498.5,119.5 498.5,119.5 498.5,120.5 498.5,120.5 498.5,121.5 498.5,121.5 499.5,121.5 
		499.5,121.5 499.5,122.5 499.5,122.5 499.5,122.5 499.5,123.5 499.5,123.5 499.5,123.5 499.5,123.5 499.5,123.5 499.5,123.5 
		499.5,124.5 499.5,124.5 500.5,125.5 500.5,125.5 500.5,126.5 500.5,126.5 500.5,126.5 500.5,126.5 500.5,127.5 500.5,127.5 
		500.5,127.5 500.5,128.5 500.5,128.5 500.5,128.5 500.5,129.5 501.5,129.5 501.5,129.5 501.5,129.5 501.5,129.5 501.5,130.5 
		501.5,129.5 501.5,129.5 501.5,129.5 501.5,128.5 501.5,128.5 501.5,128.5 501.5,127.5 501.5,127.5 502.5,126.5 502.5,126.5 
		502.5,126.5 502.5,126.5 502.5,126.5 502.5,126.5 502.5,126.5 502.5,127.5 502.5,127.5 502.5,128.5 502.5,128.5 502.5,128.5 
		502.5,129.5 503.5,129.5 503.5,130.5 503.5,130.5 503.5,131.5 503.5,132.5 503.5,132.5 503.5,132.5 503.5,133.5 503.5,133.5 
		503.5,134.5 503.5,134.5 503.5,134.5 503.5,134.5 504.5,134.5 504.5,134.5 504.5,134.5 504.5,134.5 504.5,134.5 504.5,134.5 
		504.5,135.5 504.5,135.5 504.5,135.5 504.5,136.5 504.5,136.5 504.5,137.5 504.5,137.5 505.5,137.5 505.5,138.5 505.5,138.5 
		505.5,138.5 505.5,139.5 505.5,139.5 505.5,139.5 505.5,140.5 505.5,140.5 505.5,140.5 505.5,141.5 505.5,141.5 505.5,141.5 
		506.5,141.5 506.5,142.5 506.5,142.5 506.5,142.5 506.5,142.5 506.5,142.5 506.5,142.5 506.5,142.5 506.5,142.5 506.5,142.5 
		506.5,142.5 506.5,142.5 506.5,142.5 507.5,142.5 507.5,143.5 507.5,143.5 507.5,143.5 507.5,143.5 507.5,143.5 507.5,143.5 
		507.5,143.5 507.5,143.5 507.5,143.5 507.5,143.5 507.5,144.5 507.5,144.5 508.5,144.5 508.5,144.5 508.5,144.5 508.5,144.5 
		508.5,144.5 508.5,145.5 508.5,145.5 508.5,145.5 508.5,145.5 508.5,146.5 508.5,146.5 508.5,146.5 508.5,146.5 509.5,146.5 
		509.5,146.5 509.5,146.5 509.5,146.5 509.5,146.5 509.5,146.5 509.5,145.5 509.5,145.5 509.5,145.5 509.5,145.5 509.5,145.5 
		509.5,144.5 509.5,144.5 510.5,144.5 510.5,144.5 510.5,144.5 510.5,144.5 510.5,144.5 510.5,144.5 510.5,144.5 510.5,144.5 
		510.5,144.5 510.5,144.5 510.5,144.5 510.5,144.5 510.5,144.5 510.5,144.5 511.5,144.5 511.5,144.5 511.5,144.5 511.5,144.5 
		511.5,144.5 511.5,144.5 511.5,145.5 511.5,145.5 511.5,145.5 511.5,145.5 511.5,145.5 511.5,145.5 511.5,145.5 512.5,146.5 
		512.5,146.5 512.5,145.5 512.5,145.5 512.5,145.5 512.5,145.5 512.5,146.5 512.5,146.5 512.5,146.5 512.5,146.5 512.5,146.5 
		512.5,146.5 512.5,146.5 513.5,146.5 513.5,146.5 513.5,147.5 513.5,147.5 513.5,147.5 513.5,147.5 513.5,147.5 513.5,147.5 
		513.5,147.5 513.5,147.5 513.5,147.5 513.5,147.5 513.5,148.5 514.5,148.5 514.5,148.5 514.5,148.5 514.5,148.5 514.5,148.5 
		514.5,148.5 514.5,148.5 514.5,148.5 514.5,149.5 514.5,149.5 514.5,149.5 514.5,149.5 514.5,149.5 515.5,149.5 515.5,149.5 
		515.5,149.5 515.5,149.5 515.5,149.5 515.5,149.5 515.5,149.5 515.5,149.5 515.5,149.5 515.5,150.5 515.5,150.5 515.5,150.5 
		515.5,150.5 516.5,150.5 516.5,150.5 516.5,150.5 516.5,150.5 516.5,150.5 516.5,150.5 516.5,151.5 516.5,151.5 516.5,151.5 
		516.5,151.5 516.5,150.5 516.5,150.5 516.5,151.5 517.5,151.5 517.5,151.5 517.5,151.5 517.5,151.5 517.5,152.5 517.5,152.5 
		517.5,152.5 517.5,152.5 517.5,152.5 517.5,152.5 517.5,153.5 517.5,153.5 517.5,153.5 518.5,153.5 518.5,153.5 518.5,154.5 
		518.5,154.5 518.5,154.5 518.5,154.5 518.5,154.5 518.5,154.5 518.5,154.5 518.5,154.5 518.5,154.5 518.5,154.5 518.5,154.5 
		519.5,154.5 519.5,154.5 519.5,154.5 519.5,154.5 519.5,154.5 519.5,154.5 519.5,154.5 519.5,154.5 519.5,154.5 519.5,154.5 
		519.5,154.5 519.5,154.5 519.5,154.5 520.5,154.5 520.5,154.5 520.5,154.5 520.5,154.5 520.5,155.5 520.5,155.5 520.5,155.5 
		520.5,155.5 520.5,155.5 520.5,155.5 520.5,155.5 520.5,155.5 520.5,155.5 521.5,155.5 521.5,155.5 521.5,155.5 521.5,155.5 
		521.5,155.5 521.5,155.5 521.5,155.5 521.5,155.5 521.5,154.5 521.5,154.5 521.5,154.5 521.5,154.5 521.5,153.5 522.5,153.5 
		522.5,153.5 522.5,153.5 522.5,153.5 522.5,152.5 522.5,152.5 522.5,152.5 522.5,152.5 522.5,152.5 522.5,152.5 522.5,151.5 
		522.5,151.5 522.5,151.5 523.5,151.5 523.5,151.5 523.5,150.5 523.5,150.5 523.5,150.5 523.5,150.5 523.5,150.5 523.5,150.5 
		523.5,150.5 523.5,149.5 523.5,149.5 523.5,149.5 523.5,149.5 524.5,149.5 524.5,149.5 524.5,149.5 524.5,148.5 524.5,148.5 
		524.5,148.5 524.5,148.5 524.5,147.5 524.5,147.5 524.5,147.5 524.5,146.5 524.5,146.5 524.5,146.5 525.5,146.5 525.5,145.5 
		525.5,145.5 525.5,145.5 525.5,145.5 525.5,145.5 525.5,144.5 525.5,144.5 525.5,144.5 525.5,144.5 525.5,143.5 525.5,143.5 
		525.5,143.5 526.5,143.5 526.5,142.5 526.5,142.5 526.5,142.5 526.5,142.5 526.5,142.5 526.5,141.5 526.5,141.5 526.5,141.5 
		526.5,141.5 526.5,140.5 526.5,140.5 526.5,140.5 527.5,140.5 527.5,139.5 527.5,140.5 527.5,139.5 527.5,139.5 527.5,139.5 
		527.5,139.5 527.5,139.5 527.5,139.5 527.5,139.5 527.5,139.5 527.5,139.5 527.5,139.5 528.5,138.5 528.5,138.5 528.5,138.5 
		528.5,138.5 528.5,138.5 528.5,137.5 528.5,137.5 528.5,137.5 528.5,136.5 528.5,136.5 528.5,136.5 528.5,135.5 528.5,135.5 
		529.5,135.5 529.5,135.5 529.5,134.5 529.5,134.5 529.5,134.5 529.5,134.5 529.5,134.5 529.5,134.5 529.5,134.5 529.5,134.5 
		529.5,134.5 529.5,134.5 529.5,134.5 530.5,135.5 530.5,135.5 530.5,135.5 530.5,135.5 530.5,136.5 530.5,136.5 530.5,136.5 
		530.5,136.5 530.5,137.5 530.5,137.5 530.5,137.5 530.5,137.5 530.5,138.5 531.5,138.5 531.5,138.5 531.5,138.5 531.5,139.5 
		531.5,139.5 531.5,140.5 531.5,140.5 531.5,140.5 531.5,141.5 531.5,141.5 531.5,142.5 531.5,143.5 531.5,143.5 532.5,144.5 
		532.5,144.5 532.5,144.5 532.5,144.5 532.5,144.5 532.5,145.5 532.5,145.5 532.5,145.5 532.5,146.5 532.5,147.5 532.5,148.5 
		532.5,149.5 532.5,149.5 533.5,148.5 533.5,148.5 533.5,148.5 533.5,148.5 533.5,148.5 533.5,148.5 533.5,148.5 533.5,148.5 
		533.5,148.5 533.5,148.5 533.5,148.5 533.5,148.5 533.5,148.5 534.5,148.5 534.5,149.5 534.5,149.5 534.5,149.5 534.5,149.5 
		534.5,150.5 534.5,150.5 534.5,150.5 534.5,150.5 534.5,150.5 534.5,150.5 534.5,150.5 534.5,151.5 535.5,151.5 535.5,151.5 
		535.5,151.5 535.5,151.5 535.5,151.5 535.5,151.5 535.5,151.5 535.5,152.5 535.5,152.5 535.5,152.5 535.5,152.5 535.5,152.5 
		535.5,152.5 536.5,152.5 536.5,153.5 536.5,153.5 536.5,153.5 536.5,153.5 536.5,153.5 536.5,153.5 536.5,154.5 536.5,154.5 
		536.5,154.5 536.5,154.5 536.5,154.5 536.5,155.5 537.5,155.5 537.5,155.5 537.5,155.5 537.5,155.5 537.5,155.5 537.5,156.5 
		537.5,156.5 537.5,156.5 537.5,156.5 537.5,157.5 537.5,157.5 537.5,157.5 537.5,157.5 538.5,157.5 538.5,157.5 538.5,157.5 
		538.5,157.5 538.5,157.5 538.5,158.5 538.5,158.5 538.5,158.5 538.5,158.5 538.5,158.5 538.5,158.5 538.5,158.5 538.5,158.5 
		539.5,158.5 539.5,158.5 539.5,158.5 539.5,158.5 539.5,158.5 539.5,158.5 539.5,158.5 539.5,158.5 539.5,158.5 539.5,158.5 
		539.5,159.5 539.5,159.5 539.5,159.5 540.5,159.5 540.5,159.5 540.5,159.5 540.5,159.5 540.5,159.5 540.5,159.5 540.5,159.5 
		540.5,159.5 540.5,158.5 540.5,158.5 540.5,158.5 540.5,158.5 540.5,158.5 541.5,159.5 541.5,159.5 541.5,159.5 541.5,159.5 
		541.5,159.5 541.5,159.5 541.5,159.5 541.5,159.5 541.5,159.5 541.5,159.5 541.5,159.5 541.5,159.5 541.5,159.5 542.5,159.5 
		542.5,160.5 542.5,160.5 542.5,159.5 542.5,159.5 542.5,159.5 542.5,159.5 542.5,160.5 542.5,160.5 542.5,160.5 542.5,160.5 
		542.5,160.5 542.5,160.5 543.5,159.5 543.5,159.5 543.5,159.5 543.5,159.5 543.5,159.5 543.5,159.5 543.5,159.5 543.5,159.5 
		543.5,158.5 543.5,158.5 543.5,159.5 543.5,159.5 543.5,159.5 544.5,159.5 544.5,159.5 544.5,158.5 544.5,158.5 544.5,158.5 
		544.5,158.5 544.5,159.5 544.5,159.5 544.5,159.5 544.5,158.5 544.5,158.5 544.5,158.5 544.5,158.5 545.5,158.5 545.5,158.5 
		545.5,158.5 545.5,158.5 545.5,158.5 545.5,158.5 545.5,158.5 545.5,158.5 545.5,158.5 545.5,158.5 545.5,158.5 545.5,158.5 
		545.5,158.5 546.5,158.5 546.5,158.5 546.5,158.5 546.5,158.5 546.5,158.5 546.5,158.5 546.5,158.5 546.5,158.5 546.5,158.5 
		546.5,158.5 546.5,158.5 546.5,158.5 546.5,157.5 547.5,157.5 547.5,157.5 547.5,157.5 547.5,157.5 547.5,157.5 547.5,157.5 
		547.5,157.5 547.5,157.5 547.5,157.5 547.5,157.5 547.5,157.5 547.5,157.5 547.5,157.5 548.5,157.5 548.5,157.5 548.5,157.5 
		548.5,157.5 548.5,157.5 548.5,157.5 548.5,156.5 548.5,156.5 548.5,156.5 548.5,156.5 548.5,156.5 548.5,156.5 548.5,156.5 
		549.5,156.5 549.5,156.5 549.5,156.5 549.5,156.5 549.5,156.5 549.5,155.5 549.5,155.5 549.5,155.5 549.5,155.5 549.5,155.5 
		549.5,155.5 549.5,155.5 549.5,154.5 550.5,154.5 550.5,154.5 550.5,154.5 550.5,154.5 550.5,154.5 550.5,154.5 550.5,154.5 
		550.5,154.5 550.5,154.5 550.5,154.5 550.5,154.5 550.5,154.5 550.5,153.5 551.5,153.5 551.5,153.5 551.5,153.5 551.5,153.5 
		551.5,152.5 551.5,152.5 551.5,152.5 551.5,151.5 551.5,151.5 551.5,151.5 551.5,150.5 551.5,150.5 551.5,150.5 552.5,149.5 
		552.5,149.5 552.5,148.5 552.5,148.5 552.5,148.5 552.5,147.5 552.5,147.5 552.5,147.5 552.5,146.5 552.5,146.5 552.5,145.5 
		552.5,145.5 552.5,144.5 553.5,144.5 553.5,144.5 553.5,143.5 553.5,143.5 553.5,143.5 553.5,142.5 553.5,142.5 553.5,141.5 
		553.5,141.5 553.5,140.5 553.5,140.5 553.5,139.5 553.5,139.5 554.5,138.5 554.5,138.5 554.5,137.5 554.5,137.5 554.5,137.5 
		554.5,136.5 554.5,136.5 554.5,136.5 554.5,135.5 554.5,135.5 554.5,135.5 554.5,135.5 554.5,135.5 555.5,134.5 555.5,134.5 
		555.5,134.5 555.5,134.5 555.5,134.5 555.5,135.5 555.5,135.5 555.5,135.5 555.5,136.5 555.5,136.5 555.5,137.5 555.5,137.5 
		555.5,137.5 556.5,138.5 556.5,138.5 556.5,139.5 556.5,139.5 556.5,139.5 556.5,140.5 556.5,140.5 556.5,140.5 556.5,141.5 
		556.5,141.5 556.5,141.5 556.5,142.5 556.5,142.5 557.5,142.5 557.5,143.5 557.5,143.5 557.5,143.5 557.5,143.5 557.5,144.5 
		557.5,144.5 557.5,144.5 557.5,145.5 557.5,145.5 557.5,145.5 557.5,146.5 557.5,146.5 558.5,147.5 558.5,147.5 558.5,147.5 
		558.5,147.5 558.5,147.5 558.5,148.5 558.5,148.5 558.5,148.5 558.5,148.5 558.5,148.5 558.5,148.5 558.5,148.5 558.5,148.5 
		558.5,148.5 559.5,148.5 559.5,148.5 559.5,148.5 559.5,148.5 559.5,148.5 559.5,148.5 559.5,148.5 559.5,148.5 559.5,149.5 
		559.5,148.5 559.5,148.5 559.5,148.5 559.5,148.5 560.5,148.5 560.5,148.5 560.5,148.5 560.5,148.5 560.5,147.5 560.5,147.5 
		560.5,147.5 560.5,147.5 560.5,147.5 560.5,148.5 560.5,148.5 560.5,148.5 560.5,148.5 561.5,148.5 561.5,148.5 561.5,148.5 
		561.5,148.5 561.5,148.5 561.5,148.5 561.5,148.5 561.5,148.5 561.5,148.5 561.5,148.5 561.5,148.5 561.5,148.5 561.5,148.5 
		562.5,148.5 562.5,148.5 562.5,148.5 562.5,148.5 562.5,149.5 562.5,149.5 562.5,149.5 562.5,149.5 562.5,149.5 562.5,149.5 
		562.5,149.5 562.5,149.5 562.5,149.5 563.5,149.5 563.5,150.5 563.5,150.5 563.5,150.5 563.5,150.5 563.5,150.5 563.5,150.5 
		563.5,150.5 563.5,150.5 563.5,150.5 563.5,150.5 563.5,150.5 563.5,151.5 564.5,151.5 564.5,151.5 564.5,151.5 564.5,151.5 
		564.5,151.5 564.5,151.5 564.5,151.5 564.5,151.5 564.5,151.5 564.5,151.5 564.5,151.5 564.5,151.5 564.5,151.5 565.5,151.5 
		565.5,151.5 565.5,151.5 565.5,151.5 565.5,151.5 565.5,151.5 565.5,151.5 565.5,151.5 565.5,150.5 565.5,150.5 565.5,150.5 
		565.5,150.5 565.5,150.5 566.5,150.5 566.5,150.5 566.5,150.5 566.5,150.5 566.5,150.5 566.5,150.5 566.5,149.5 566.5,149.5 
		566.5,149.5 566.5,149.5 566.5,149.5 566.5,150.5 566.5,150.5 567.5,150.5 567.5,150.5 567.5,150.5 567.5,150.5 567.5,150.5 
		567.5,150.5 567.5,150.5 567.5,150.5 567.5,150.5 567.5,150.5 567.5,150.5 567.5,150.5 567.5,150.5 568.5,151.5 568.5,151.5 
		568.5,151.5 568.5,151.5 568.5,151.5 568.5,151.5 568.5,152.5 568.5,152.5 568.5,151.5 568.5,150.5 568.5,149.5 568.5,148.5 
		568.5,147.5 569.5,146.5 569.5,146.5 569.5,145.5 569.5,145.5 569.5,145.5 569.5,145.5 569.5,144.5 569.5,144.5 569.5,144.5 
		569.5,144.5 569.5,144.5 569.5,144.5 569.5,144.5 570.5,144.5 570.5,144.5 570.5,144.5 570.5,144.5 570.5,144.5 570.5,144.5 
		570.5,144.5 570.5,144.5 570.5,143.5 570.5,144.5 570.5,144.5 570.5,144.5 570.5,144.5 571.5,144.5 571.5,144.5 571.5,144.5 
		571.5,144.5 571.5,144.5 571.5,144.5 571.5,145.5 571.5,145.5 571.5,145.5 571.5,145.5 571.5,145.5 571.5,145.5 571.5,145.5 
		572.5,145.5 572.5,145.5 572.5,145.5 572.5,145.5 572.5,146.5 572.5,146.5 572.5,146.5 572.5,146.5 572.5,146.5 572.5,146.5 
		572.5,146.5 572.5,146.5 572.5,146.5 573.5,146.5 573.5,146.5 573.5,146.5 573.5,146.5 573.5,146.5 573.5,146.5 573.5,145.5 
		573.5,145.5 573.5,145.5 573.5,145.5 573.5,145.5 573.5,145.5 573.5,144.5 574.5,144.5 574.5,144.5 574.5,144.5 574.5,144.5 
		574.5,143.5 574.5,143.5 574.5,143.5 574.5,143.5 574.5,143.5 574.5,142.5 574.5,142.5 574.5,142.5 574.5,142.5 575.5,141.5 
		575.5,141.5 575.5,141.5 575.5,141.5 575.5,141.5 575.5,140.5 575.5,140.5 575.5,140.5 575.5,139.5 575.5,139.5 575.5,138.5 
		575.5,138.5 575.5,138.5 576.5,137.5 576.5,137.5 576.5,137.5 576.5,136.5 576.5,136.5 576.5,136.5 576.5,136.5 576.5,136.5 
		576.5,136.5 576.5,136.5 576.5,136.5 576.5,136.5 576.5,136.5 577.5,136.5 577.5,136.5 577.5,136.5 577.5,136.5 577.5,136.5 
		577.5,136.5 577.5,136.5 577.5,136.5 577.5,136.5 577.5,136.5 577.5,136.5 577.5,136.5 577.5,136.5 578.5,136.5 578.5,136.5 
		578.5,136.5 578.5,136.5 578.5,136.5 578.5,136.5 578.5,136.5 578.5,136.5 578.5,136.5 578.5,136.5 578.5,136.5 578.5,136.5 
		578.5,136.5 579.5,136.5 579.5,136.5 579.5,136.5 579.5,136.5 579.5,136.5 579.5,136.5 579.5,136.5 579.5,136.5 579.5,136.5 
		579.5,137.5 579.5,138.5 579.5,139.5 579.5,140.5 580.5,140.5 580.5,140.5 580.5,140.5 580.5,140.5 580.5,140.5 580.5,140.5 
		580.5,140.5 580.5,140.5 580.5,141.5 580.5,141.5 580.5,141.5 580.5,141.5 580.5,141.5 581.5,141.5 581.5,141.5 581.5,142.5 
		581.5,142.5 581.5,142.5 581.5,142.5 581.5,142.5 581.5,142.5 581.5,142.5 581.5,142.5 581.5,142.5 581.5,143.5 581.5,143.5 
		582.5,143.5 582.5,143.5 582.5,143.5 582.5,144.5 582.5,144.5 582.5,144.5 582.5,144.5 582.5,144.5 582.5,144.5 582.5,144.5 
		582.5,144.5 582.5,144.5 582.5,144.5 583.5,145.5 583.5,145.5 583.5,145.5 583.5,145.5 583.5,145.5 583.5,145.5 583.5,145.5 
		583.5,145.5 583.5,145.5 583.5,145.5 583.5,146.5 583.5,146.5 583.5,146.5 584.5,146.5 584.5,146.5 584.5,146.5 584.5,146.5 
		584.5,146.5 584.5,146.5 584.5,146.5 584.5,146.5 584.5,146.5 584.5,146.5 584.5,146.5 584.5,146.5 584.5,146.5 585.5,146.5 
		585.5,146.5 585.5,146.5 585.5,146.5 585.5,146.5 585.5,146.5 585.5,147.5 585.5,147.5 585.5,147.5 585.5,147.5 585.5,147.5 
		585.5,147.5 585.5,147.5 586.5,147.5 586.5,147.5 586.5,147.5 586.5,147.5 586.5,147.5 586.5,147.5 586.5,147.5 586.5,147.5 
		586.5,147.5 586.5,147.5 586.5,147.5 586.5,147.5 586.5,147.5 587.5,147.5 587.5,147.5 587.5,147.5 587.5,147.5 587.5,147.5 
		587.5,147.5 587.5,147.5 587.5,147.5 587.5,147.5 587.5,147.5 587.5,147.5 587.5,147.5 587.5,147.5 588.5,147.5 588.5,147.5 
		588.5,147.5 588.5,147.5 588.5,147.5 588.5,147.5 588.5,147.5 588.5,147.5 588.5,147.5 588.5,147.5 588.5,147.5 588.5,147.5 
		588.5,147.5 589.5,147.5 589.5,147.5 589.5,147.5 589.5,147.5 589.5,147.5 589.5,147.5 589.5,147.5 589.5,147.5 589.5,147.5 
		589.5,147.5 589.5,147.5 589.5,147.5 589.5,147.5 590.5,147.5 590.5,147.5 590.5,147.5 590.5,147.5 590.5,147.5 590.5,146.5 
		590.5,146.5 590.5,146.5 590.5,146.5 590.5,146.5 590.5,146.5 590.5,146.5 590.5,146.5 591.5,146.5 591.5,146.5 591.5,146.5 
		591.5,146.5 591.5,146.5 591.5,146.5 591.5,146.5 591.5,146.5 591.5,146.5 591.5,146.5 591.5,146.5 591.5,146.5 591.5,146.5 
		592.5,146.5 592.5,146.5 592.5,146.5 592.5,145.5 592.5,145.5 592.5,145.5 592.5,145.5 592.5,145.5 592.5,145.5 592.5,145.5 
		592.5,145.5 592.5,145.5 592.5,145.5 593.5,145.5 593.5,145.5 593.5,145.5 593.5,145.5 593.5,145.5 593.5,145.5 593.5,145.5 
		593.5,145.5 593.5,145.5 593.5,145.5 593.5,145.5 593.5,146.5 593.5,146.5 594.5,146.5 594.5,146.5 594.5,146.5 594.5,146.5 
		594.5,146.5 594.5,146.5 594.5,146.5 594.5,146.5 594.5,146.5 594.5,146.5 594.5,146.5 594.5,146.5 594.5,146.5 595.5,146.5 
		595.5,146.5 595.5,146.5 595.5,146.5 595.5,146.5 595.5,146.5 595.5,146.5 595.5,145.5 595.5,145.5 595.5,145.5 595.5,145.5 
		595.5,145.5 595.5,145.5 596.5,145.5 596.5,145.5 596.5,145.5 596.5,145.5 596.5,145.5 596.5,145.5 596.5,145.5 596.5,144.5 
		596.5,144.5 596.5,144.5 596.5,144.5 596.5,144.5 596.5,144.5 597.5,144.5 597.5,144.5 597.5,144.5 597.5,144.5 597.5,144.5 
		597.5,144.5 597.5,144.5 597.5,144.5 597.5,144.5 597.5,144.5 597.5,144.5 597.5,144.5 597.5,144.5 598.5,144.5 598.5,144.5 
		598.5,144.5 598.5,144.5 598.5,144.5 598.5,144.5 598.5,144.5 598.5,144.5 598.5,144.5 598.5,144.5 598.5,144.5 598.5,144.5 
		598.5,144.5 599.5,144.5 599.5,144.5 599.5,144.5 599.5,143.5 599.5,143.5 599.5,143.5 599.5,143.5 599.5,143.5 599.5,143.5 
		599.5,143.5 599.5,143.5 599.5,144.5 599.5,144.5 600.5,144.5 600.5,143.5 600.5,143.5 600.5,143.5 600.5,144.5 600.5,144.5 
		600.5,144.5 600.5,144.5 600.5,145.5 600.5,145.5 600.5,145.5 600.5,145.5 600.5,145.5 601.5,145.5 601.5,145.5 601.5,145.5 
		601.5,145.5 601.5,145.5 601.5,144.5 601.5,144.5 601.5,144.5 601.5,144.5 601.5,144.5 601.5,144.5 601.5,144.5 601.5,144.5 
		602.5,144.5 602.5,144.5 602.5,144.5 602.5,144.5 602.5,144.5 602.5,144.5 602.5,144.5 602.5,144.5 602.5,144.5 602.5,143.5 
		602.5,143.5 602.5,143.5 602.5,143.5 603.5,143.5 603.5,143.5 603.5,143.5 603.5,143.5 603.5,143.5 603.5,142.5 603.5,142.5 
		603.5,142.5 603.5,142.5 603.5,142.5 603.5,142.5 603.5,142.5 603.5,142.5 604.5,142.5 604.5,142.5 604.5,142.5 604.5,142.5 
		604.5,142.5 604.5,142.5 604.5,142.5 604.5,142.5 604.5,142.5 604.5,142.5 604.5,142.5 604.5,142.5 604.5,141.5 605.5,141.5 
		605.5,141.5 605.5,141.5 605.5,141.5 605.5,141.5 605.5,141.5 605.5,141.5 605.5,141.5 605.5,141.5 605.5,141.5 605.5,141.5 
		605.5,141.5 605.5,141.5 606.5,141.5 606.5,141.5 606.5,141.5 606.5,141.5 606.5,141.5 606.5,141.5 606.5,141.5 606.5,141.5 
		606.5,141.5 606.5,141.5 606.5,141.5 606.5,141.5 606.5,141.5 607.5,141.5 607.5,141.5 607.5,141.5 607.5,141.5 607.5,141.5 
		607.5,141.5 607.5,141.5 607.5,141.5 607.5,141.5 607.5,141.5 607.5,141.5 607.5,141.5 607.5,141.5 607.5,141.5 608.5,141.5 
		608.5,141.5 608.5,141.5 608.5,141.5 608.5,141.5 608.5,141.5 608.5,141.5 608.5,141.5 608.5,141.5 608.5,141.5 608.5,141.5 
		608.5,141.5 608.5,141.5 609.5,141.5 609.5,141.5 609.5,141.5 609.5,141.5 609.5,141.5 609.5,141.5 609.5,141.5 609.5,141.5 
		609.5,141.5 609.5,141.5 609.5,141.5 609.5,140.5 609.5,140.5 610.5,140.5 610.5,140.5 610.5,140.5 610.5,140.5 610.5,140.5 
		610.5,140.5 610.5,140.5 610.5,140.5 610.5,140.5 610.5,140.5 610.5,140.5 610.5,140.5 610.5,140.5 611.5,140.5 611.5,140.5 
		611.5,140.5 611.5,140.5 611.5,140.5 611.5,140.5 611.5,140.5 611.5,140.5 611.5,140.5 611.5,140.5 611.5,140.5 611.5,140.5 
		611.5,140.5 612.5,140.5 612.5,140.5 612.5,140.5 612.5,140.5 612.5,140.5 612.5,140.5 612.5,140.5 612.5,140.5 612.5,139.5 
		612.5,139.5 612.5,139.5 612.5,140.5 612.5,140.5 613.5,140.5 613.5,140.5 613.5,140.5 613.5,140.5 613.5,140.5 613.5,140.5 
		613.5,140.5 613.5,139.5 613.5,139.5 613.5,139.5 613.5,139.5 613.5,139.5 613.5,139.5 614.5,138.5 614.5,138.5 614.5,138.5 
		614.5,138.5 614.5,137.5 614.5,137.5 614.5,137.5 614.5,137.5 614.5,137.5 614.5,136.5 614.5,136.5 614.5,136.5 614.5,136.5 
		615.5,136.5 615.5,135.5 615.5,135.5 615.5,135.5 615.5,135.5 615.5,135.5 615.5,135.5 615.5,135.5 615.5,135.5 615.5,134.5 
		615.5,134.5 615.5,134.5 615.5,134.5 616.5,134.5 616.5,134.5 616.5,134.5 616.5,134.5 616.5,134.5 616.5,134.5 616.5,134.5 
		616.5,134.5 616.5,134.5 616.5,134.5 616.5,133.5 616.5,133.5 616.5,133.5 617.5,133.5 617.5,133.5 617.5,133.5 617.5,133.5 
		617.5,133.5 617.5,133.5 617.5,133.5 617.5,133.5 617.5,133.5 617.5,133.5 617.5,133.5 617.5,134.5 617.5,134.5 618.5,134.5 
		618.5,134.5 618.5,134.5 618.5,134.5 618.5,134.5 618.5,134.5 618.5,134.5 618.5,134.5 618.5,134.5 618.5,134.5 618.5,134.5 
		618.5,134.5 618.5,134.5 619.5,134.5 619.5,134.5 619.5,134.5 619.5,134.5 619.5,133.5 619.5,133.5 619.5,133.5 619.5,133.5 
		619.5,133.5 619.5,133.5 619.5,133.5 619.5,133.5 619.5,133.5 620.5,133.5 620.5,133.5 620.5,133.5 620.5,133.5 620.5,133.5 
		620.5,133.5 620.5,132.5 620.5,132.5 620.5,132.5 620.5,132.5 620.5,132.5 620.5,132.5 620.5,132.5 621.5,132.5 621.5,132.5 
		621.5,131.5 621.5,131.5 621.5,131.5 621.5,131.5 621.5,130.5 621.5,129.5 621.5,129.5 621.5,129.5 621.5,129.5 621.5,129.5 
		621.5,129.5 622.5,129.5 622.5,128.5 622.5,128.5 622.5,128.5 622.5,128.5 622.5,128.5 622.5,128.5 622.5,128.5 622.5,127.5 
		622.5,127.5 622.5,127.5 622.5,127.5 622.5,127.5 623.5,126.5 623.5,126.5 623.5,126.5 623.5,126.5 623.5,126.5 623.5,126.5 
		623.5,126.5 623.5,126.5 623.5,126.5 623.5,126.5 623.5,126.5 623.5,126.5 623.5,126.5 624.5,126.5 624.5,126.5 624.5,126.5 
		624.5,126.5 624.5,126.5 624.5,125.5 624.5,125.5 624.5,125.5 624.5,125.5 624.5,125.5 624.5,125.5 624.5,125.5 624.5,124.5 
		625.5,124.5 625.5,124.5 625.5,123.5 625.5,123.5 625.5,123.5 625.5,123.5 625.5,122.5 625.5,122.5 625.5,122.5 625.5,122.5 
		625.5,122.5 625.5,121.5 625.5,121.5 626.5,121.5 626.5,121.5 626.5,121.5 626.5,121.5 626.5,120.5 626.5,120.5 626.5,120.5 
		626.5,120.5 626.5,120.5 626.5,120.5 626.5,119.5 626.5,119.5 626.5,119.5 627.5,119.5 627.5,119.5 627.5,119.5 627.5,120.5 
		627.5,120.5 627.5,120.5 627.5,120.5 627.5,120.5 627.5,120.5 627.5,120.5 627.5,120.5 627.5,120.5 627.5,120.5 628.5,120.5 
		628.5,120.5 628.5,120.5 628.5,120.5 628.5,120.5 628.5,120.5 628.5,120.5 628.5,120.5 628.5,120.5 628.5,120.5 628.5,120.5 
		628.5,120.5 628.5,120.5 629.5,120.5 629.5,120.5 629.5,120.5 629.5,120.5 629.5,120.5 629.5,120.5 629.5,120.5 629.5,120.5 
		629.5,120.5 629.5,120.5 629.5,120.5 629.5,120.5 629.5,120.5 630.5,121.5 630.5,121.5 630.5,121.5 630.5,121.5 630.5,121.5 
		630.5,121.5 630.5,121.5 630.5,121.5 630.5,121.5 630.5,121.5 630.5,121.5 630.5,121.5 630.5,121.5 631.5,121.5 631.5,121.5 
		631.5,121.5 631.5,121.5 631.5,121.5 631.5,121.5 631.5,121.5 631.5,121.5 631.5,121.5 631.5,121.5 631.5,121.5 631.5,121.5 
		631.5,122.5 632.5,122.5 632.5,121.5 632.5,121.5 632.5,121.5 632.5,121.5 632.5,121.5 632.5,121.5 632.5,121.5 632.5,121.5 
		632.5,121.5 632.5,121.5 632.5,121.5 632.5,121.5 633.5,121.5 633.5,121.5 633.5,120.5 633.5,120.5 633.5,120.5 633.5,120.5 
		633.5,120.5 633.5,120.5 633.5,120.5 633.5,120.5 633.5,119.5 633.5,119.5 633.5,119.5 634.5,119.5 634.5,118.5 634.5,118.5 
		634.5,118.5 634.5,118.5 634.5,118.5 634.5,117.5 634.5,117.5 634.5,117.5 634.5,117.5 634.5,116.5 634.5,116.5 634.5,116.5 
		635.5,116.5 635.5,115.5 635.5,115.5 635.5,115.5 635.5,115.5 635.5,115.5 635.5,114.5 635.5,114.5 635.5,114.5 635.5,114.5 
		635.5,114.5 635.5,114.5 635.5,114.5 636.5,114.5 636.5,114.5 636.5,114.5 636.5,114.5 636.5,114.5 636.5,114.5 636.5,114.5 
		636.5,114.5 636.5,114.5 636.5,114.5 636.5,114.5 636.5,114.5 636.5,114.5 637.5,114.5 637.5,114.5 637.5,114.5 637.5,114.5 
		637.5,114.5 637.5,114.5 637.5,114.5 637.5,114.5 637.5,114.5 637.5,114.5 637.5,114.5 637.5,114.5 637.5,114.5 638.5,113.5 
		638.5,113.5 638.5,112.5 638.5,112.5 638.5,112.5 638.5,111.5 638.5,111.5 638.5,110.5 638.5,110.5 638.5,109.5 638.5,109.5 
		638.5,108.5 638.5,108.5 639.5,107.5 639.5,106.5 639.5,106.5 639.5,105.5 639.5,104.5 639.5,104.5 639.5,103.5 639.5,103.5 
		639.5,102.5 639.5,101.5 639.5,100.5 639.5,98.5 639.5,97.5 640.5,95.5 640.5,94.5 640.5,93.5 640.5,92.5 640.5,92.5 640.5,92.5 
		640.5,91.5 640.5,91.5 640.5,91.5 640.5,91.5 640.5,90.5 640.5,90.5 640.5,90.5 641.5,89.5 641.5,89.5 641.5,90.5 641.5,90.5 
		641.5,90.5 641.5,90.5 641.5,90.5 641.5,91.5 641.5,91.5 641.5,91.5 641.5,92.5 641.5,92.5 641.5,92.5 642.5,93.5 642.5,93.5 
		642.5,93.5 642.5,94.5 642.5,94.5 642.5,95.5 642.5,95.5 642.5,95.5 642.5,95.5 642.5,96.5 642.5,96.5 642.5,96.5 642.5,96.5 
		643.5,96.5 643.5,97.5 643.5,97.5 643.5,97.5 643.5,97.5 643.5,97.5 643.5,98.5 643.5,98.5 643.5,98.5 643.5,99.5 643.5,99.5 
		643.5,99.5 643.5,100.5 644.5,100.5 644.5,100.5 644.5,101.5 644.5,101.5 644.5,102.5 644.5,102.5 644.5,102.5 644.5,103.5 
		644.5,103.5 644.5,103.5 644.5,103.5 644.5,103.5 644.5,103.5 645.5,103.5 645.5,103.5 645.5,103.5 645.5,103.5 645.5,103.5 
		645.5,103.5 645.5,102.5 645.5,102.5 645.5,102.5 645.5,102.5 645.5,102.5 645.5,102.5 645.5,103.5 646.5,103.5 646.5,103.5 
		646.5,104.5 646.5,104.5 646.5,105.5 646.5,105.5 646.5,105.5 646.5,105.5 646.5,106.5 646.5,106.5 646.5,106.5 646.5,106.5 
		646.5,107.5 647.5,107.5 647.5,107.5 647.5,107.5 647.5,107.5 647.5,107.5 647.5,107.5 647.5,107.5 647.5,108.5 647.5,108.5 
		647.5,107.5 647.5,107.5 647.5,107.5 647.5,108.5 648.5,108.5 648.5,108.5 648.5,108.5 648.5,108.5 648.5,108.5 648.5,108.5 
		648.5,108.5 648.5,107.5 648.5,107.5 648.5,107.5 648.5,107.5 648.5,107.5 648.5,107.5 649.5,107.5 649.5,107.5 649.5,107.5 
		649.5,107.5 649.5,107.5 649.5,107.5 649.5,107.5 649.5,107.5 649.5,108.5 649.5,108.5 649.5,108.5 649.5,108.5 649.5,108.5 
		650.5,108.5 650.5,108.5 650.5,108.5 650.5,109.5 650.5,109.5 650.5,109.5 650.5,109.5 650.5,110.5 650.5,110.5 650.5,110.5 
		650.5,110.5 650.5,111.5 650.5,111.5 651.5,111.5 651.5,112.5 651.5,112.5 651.5,112.5 651.5,112.5 651.5,113.5 651.5,113.5 
		651.5,113.5 651.5,113.5 651.5,113.5 651.5,113.5 651.5,113.5 651.5,113.5 652.5,113.5 652.5,113.5 652.5,113.5 652.5,113.5 
		652.5,113.5 652.5,113.5 652.5,113.5 652.5,113.5 652.5,113.5 652.5,113.5 652.5,113.5 652.5,113.5 652.5,113.5 653.5,113.5 
		653.5,113.5 653.5,113.5 653.5,113.5 653.5,113.5 653.5,113.5 653.5,113.5 653.5,113.5 653.5,113.5 653.5,113.5 653.5,113.5 
		653.5,113.5 653.5,113.5 654.5,112.5 654.5,112.5 654.5,112.5 654.5,112.5 654.5,112.5 654.5,112.5 654.5,112.5 654.5,112.5 
		654.5,112.5 654.5,111.5 654.5,111.5 654.5,111.5 654.5,111.5 655.5,111.5 655.5,110.5 655.5,110.5 655.5,110.5 655.5,110.5 
		655.5,110.5 655.5,109.5 655.5,109.5 655.5,109.5 655.5,109.5 655.5,109.5 655.5,109.5 655.5,109.5 656.5,109.5 656.5,109.5 
		656.5,109.5 656.5,109.5 656.5,109.5 656.5,109.5 656.5,109.5 656.5,109.5 656.5,109.5 656.5,109.5 656.5,109.5 656.5,109.5 
		656.5,109.5 656.5,109.5 657.5,109.5 657.5,110.5 657.5,110.5 657.5,110.5 657.5,111.5 657.5,111.5 657.5,111.5 657.5,111.5 
		657.5,111.5 657.5,112.5 657.5,112.5 657.5,112.5 657.5,112.5 658.5,112.5 658.5,112.5 658.5,112.5 658.5,112.5 658.5,112.5 
		658.5,112.5 658.5,113.5 658.5,113.5 658.5,113.5 658.5,113.5 658.5,113.5 658.5,114.5 658.5,114.5 659.5,114.5 659.5,114.5 
		659.5,114.5 659.5,114.5 659.5,115.5 659.5,115.5 659.5,115.5 659.5,116.5 659.5,116.5 659.5,117.5 659.5,117.5 659.5,116.5 
		659.5,116.5 660.5,116.5 660.5,117.5 660.5,117.5 660.5,117.5 660.5,117.5 660.5,117.5 660.5,117.5 660.5,117.5 660.5,117.5 
		660.5,117.5 660.5,117.5 660.5,117.5 660.5,117.5 661.5,117.5 661.5,117.5 661.5,117.5 661.5,117.5 661.5,117.5 661.5,117.5 
		661.5,117.5 661.5,117.5 661.5,117.5 661.5,117.5 661.5,117.5 661.5,117.5 661.5,117.5 662.5,117.5 662.5,118.5 662.5,118.5 
		662.5,118.5 662.5,117.5 662.5,117.5 662.5,117.5 662.5,117.5 662.5,117.5 662.5,117.5 662.5,117.5 662.5,116.5 662.5,116.5 
		663.5,116.5 663.5,116.5 663.5,116.5 663.5,116.5 663.5,115.5 663.5,115.5 663.5,115.5 663.5,115.5 663.5,114.5 663.5,114.5 
		663.5,114.5 663.5,114.5 663.5,114.5 664.5,113.5 664.5,113.5 664.5,113.5 664.5,113.5 664.5,113.5 664.5,112.5 664.5,112.5 
		664.5,112.5 664.5,112.5 664.5,112.5 664.5,111.5 664.5,111.5 664.5,111.5 665.5,111.5 665.5,111.5 665.5,110.5 665.5,110.5 
		665.5,110.5 665.5,110.5 665.5,109.5 665.5,109.5 665.5,109.5 665.5,108.5 665.5,108.5 665.5,108.5 665.5,107.5 666.5,107.5 
		666.5,107.5 666.5,107.5 666.5,106.5 666.5,106.5 666.5,106.5 666.5,106.5 666.5,105.5 666.5,105.5 666.5,105.5 666.5,105.5 
		666.5,105.5 666.5,105.5 667.5,104.5 667.5,104.5 667.5,104.5 667.5,104.5 667.5,103.5 667.5,103.5 667.5,103.5 667.5,103.5 
		667.5,103.5 667.5,103.5 667.5,103.5 667.5,104.5 667.5,104.5 668.5,104.5 668.5,104.5 668.5,104.5 668.5,105.5 668.5,105.5 
		668.5,105.5 668.5,105.5 668.5,105.5 668.5,105.5 668.5,105.5 668.5,105.5 668.5,105.5 668.5,106.5 669.5,106.5 669.5,106.5 
		669.5,106.5 669.5,106.5 669.5,106.5 669.5,106.5 669.5,106.5 669.5,106.5 669.5,106.5 669.5,107.5 669.5,107.5 669.5,107.5 
		669.5,107.5 670.5,107.5 670.5,107.5 670.5,107.5 670.5,107.5 670.5,107.5 670.5,108.5 670.5,108.5 670.5,108.5 670.5,108.5 
		670.5,108.5 670.5,108.5 670.5,108.5 670.5,108.5 671.5,109.5 671.5,109.5 671.5,109.5 671.5,109.5 671.5,109.5 671.5,109.5 
		671.5,109.5 671.5,109.5 671.5,109.5 671.5,110.5 671.5,110.5 671.5,110.5 671.5,110.5 672.5,110.5 672.5,110.5 672.5,110.5 
		672.5,110.5 672.5,110.5 672.5,111.5 672.5,111.5 672.5,111.5 672.5,111.5 672.5,111.5 672.5,111.5 672.5,111.5 672.5,111.5 
		673.5,111.5 673.5,112.5 673.5,112.5 673.5,112.5 673.5,112.5 673.5,112.5 673.5,112.5 673.5,112.5 673.5,112.5 673.5,112.5 
		673.5,113.5 673.5,113.5 673.5,113.5 674.5,113.5 674.5,113.5 674.5,113.5 674.5,113.5 674.5,113.5 674.5,113.5 674.5,114.5 
		674.5,114.5 674.5,114.5 674.5,114.5 674.5,114.5 674.5,114.5 674.5,114.5 675.5,114.5 675.5,114.5 675.5,115.5 675.5,115.5 
		675.5,115.5 675.5,115.5 675.5,115.5 675.5,115.5 675.5,115.5 675.5,115.5 675.5,115.5 675.5,115.5 675.5,115.5 676.5,115.5 
		676.5,115.5 676.5,115.5 676.5,115.5 676.5,115.5 676.5,115.5 676.5,114.5 676.5,114.5 676.5,114.5 676.5,114.5 676.5,114.5 
		676.5,114.5 676.5,114.5 677.5,114.5 677.5,114.5 677.5,114.5 677.5,114.5 677.5,114.5 677.5,114.5 677.5,115.5 677.5,115.5 
		677.5,115.5 677.5,115.5 677.5,115.5 677.5,115.5 677.5,116.5 678.5,116.5 678.5,116.5 678.5,116.5 678.5,115.5 678.5,115.5 
		678.5,115.5 678.5,115.5 678.5,115.5 678.5,115.5 678.5,115.5 678.5,116.5 678.5,116.5 678.5,116.5 679.5,116.5 679.5,116.5 
		679.5,116.5 679.5,116.5 679.5,116.5 679.5,116.5 679.5,116.5 679.5,116.5 679.5,116.5 679.5,116.5 679.5,116.5 679.5,116.5 
		679.5,116.5 680.5,116.5 680.5,116.5 680.5,116.5 680.5,116.5 680.5,116.5 680.5,116.5 680.5,117.5 680.5,117.5 680.5,117.5 
		680.5,117.5 680.5,117.5 680.5,117.5 680.5,117.5 681.5,117.5 681.5,117.5 681.5,117.5 681.5,117.5 681.5,117.5 681.5,117.5 
		681.5,117.5 681.5,116.5 681.5,116.5 681.5,116.5 681.5,116.5 681.5,117.5 681.5,117.5 682.5,117.5 682.5,117.5 682.5,117.5 
		682.5,117.5 682.5,117.5 682.5,118.5 682.5,118.5 682.5,118.5 682.5,118.5 682.5,118.5 682.5,119.5 682.5,118.5 682.5,118.5 
		683.5,118.5 683.5,118.5 683.5,118.5 683.5,117.5 683.5,117.5 683.5,116.5 683.5,116.5 683.5,115.5 683.5,115.5 683.5,115.5 
		683.5,115.5 683.5,114.5 683.5,114.5 684.5,114.5 684.5,114.5 684.5,115.5 684.5,115.5 684.5,115.5 684.5,115.5 684.5,115.5 
		684.5,115.5 684.5,115.5 684.5,115.5 684.5,115.5 684.5,114.5 684.5,114.5 685.5,114.5 685.5,114.5 685.5,114.5 685.5,114.5 
		685.5,115.5 685.5,115.5 685.5,115.5 685.5,116.5 685.5,116.5 685.5,116.5 685.5,116.5 685.5,116.5 685.5,117.5 686.5,117.5 
		686.5,117.5 686.5,117.5 686.5,117.5 686.5,117.5 686.5,117.5 686.5,117.5 686.5,117.5 686.5,117.5 686.5,117.5 686.5,117.5 
		686.5,117.5 686.5,117.5 687.5,117.5 687.5,117.5 687.5,117.5 687.5,117.5 687.5,118.5 687.5,118.5 687.5,118.5 687.5,118.5 
		687.5,118.5 687.5,118.5 687.5,118.5 687.5,118.5 687.5,118.5 688.5,118.5 688.5,118.5 688.5,118.5 688.5,118.5 688.5,118.5 
		688.5,119.5 688.5,119.5 688.5,119.5 688.5,119.5 688.5,119.5 688.5,119.5 688.5,120.5 688.5,120.5 689.5,120.5 689.5,120.5 
		689.5,120.5 689.5,120.5 689.5,120.5 689.5,121.5 689.5,121.5 689.5,121.5 689.5,121.5 689.5,121.5 689.5,121.5 689.5,121.5 
		689.5,122.5 690.5,122.5 690.5,122.5 690.5,122.5 690.5,122.5 690.5,122.5 690.5,123.5 690.5,123.5 690.5,123.5 690.5,123.5 
		690.5,123.5 690.5,123.5 690.5,123.5 690.5,124.5 691.5,124.5 691.5,124.5 691.5,124.5 691.5,124.5 691.5,124.5 691.5,125.5 
		691.5,125.5 691.5,125.5 691.5,125.5 691.5,125.5 691.5,125.5 691.5,125.5 691.5,126.5 692.5,126.5 692.5,126.5 692.5,126.5 
		692.5,126.5 692.5,126.5 692.5,126.5 692.5,127.5 692.5,127.5 692.5,127.5 692.5,127.5 692.5,127.5 692.5,127.5 692.5,127.5 
		693.5,127.5 693.5,127.5 693.5,127.5 693.5,127.5 693.5,127.5 693.5,127.5 693.5,127.5 693.5,127.5 693.5,127.5 693.5,127.5 
		693.5,127.5 693.5,127.5 693.5,127.5 694.5,127.5 694.5,127.5 694.5,127.5 694.5,127.5 694.5,127.5 694.5,127.5 694.5,127.5 
		694.5,127.5 694.5,127.5 694.5,127.5 694.5,127.5 694.5,127.5 694.5,127.5 695.5,127.5 695.5,127.5 695.5,127.5 695.5,127.5 
		695.5,127.5 695.5,127.5 695.5,127.5 695.5,127.5 695.5,127.5 695.5,127.5 695.5,127.5 695.5,127.5 695.5,127.5 696.5,127.5 
		696.5,127.5 696.5,127.5 696.5,127.5 696.5,127.5 696.5,127.5 696.5,127.5 696.5,127.5 696.5,127.5 696.5,127.5 696.5,127.5 
		696.5,127.5 696.5,127.5 697.5,127.5 697.5,127.5 697.5,127.5 697.5,127.5 697.5,127.5 697.5,127.5 697.5,127.5 697.5,127.5 
		697.5,127.5 697.5,127.5 697.5,127.5 697.5,127.5 697.5,127.5 698.5,127.5 698.5,127.5 698.5,127.5 698.5,127.5 698.5,127.5 
		698.5,127.5 698.5,127.5 698.5,127.5 698.5,127.5 698.5,127.5 698.5,127.5 698.5,127.5 698.5,127.5 699.5,127.5 699.5,127.5 
		699.5,127.5 699.5,127.5 699.5,126.5 699.5,126.5 699.5,126.5 699.5,126.5 699.5,126.5 699.5,126.5 699.5,126.5 699.5,126.5 
		699.5,126.5 700.5,126.5 700.5,126.5 700.5,126.5 700.5,126.5 700.5,126.5 700.5,126.5 700.5,126.5 700.5,126.5 700.5,126.5 
		700.5,126.5 700.5,126.5 700.5,126.5 700.5,126.5 701.5,126.5 701.5,125.5 701.5,125.5 701.5,125.5 701.5,125.5 701.5,125.5 
		701.5,125.5 701.5,125.5 701.5,125.5 701.5,125.5 701.5,125.5 701.5,125.5 701.5,125.5 702.5,125.5 702.5,125.5 702.5,125.5 
		702.5,125.5 702.5,125.5 702.5,125.5 702.5,125.5 702.5,124.5 702.5,124.5 702.5,124.5 702.5,124.5 702.5,124.5 702.5,124.5 
		703.5,124.5 703.5,124.5 703.5,124.5 703.5,124.5 703.5,124.5 703.5,124.5 703.5,123.5 703.5,123.5 703.5,123.5 703.5,123.5 
		703.5,123.5 703.5,123.5 703.5,123.5 704.5,124.5 704.5,124.5 704.5,124.5 704.5,124.5 704.5,124.5 704.5,124.5 704.5,124.5 
		704.5,124.5 704.5,124.5 704.5,124.5 704.5,124.5 704.5,124.5 704.5,123.5 704.5,123.5 705.5,123.5 705.5,123.5 705.5,123.5 
		705.5,123.5 705.5,123.5 705.5,123.5 705.5,123.5 705.5,123.5 705.5,123.5 705.5,123.5 705.5,123.5 705.5,123.5 705.5,123.5 
		706.5,123.5 706.5,123.5 706.5,123.5 706.5,123.5 706.5,123.5 706.5,123.5 706.5,123.5 706.5,123.5 706.5,123.5 706.5,123.5 
		706.5,123.5 706.5,123.5 706.5,123.5 707.5,123.5 707.5,123.5 707.5,123.5 707.5,123.5 707.5,123.5 707.5,123.5 707.5,123.5 
		707.5,123.5 707.5,123.5 707.5,123.5 707.5,123.5 707.5,123.5 707.5,123.5 708.5,123.5 708.5,123.5 708.5,124.5 708.5,124.5 
		708.5,124.5 708.5,124.5 708.5,124.5 708.5,124.5 708.5,125.5 708.5,125.5 708.5,125.5 708.5,125.5 708.5,125.5 709.5,125.5 
		709.5,125.5 709.5,125.5 709.5,125.5 709.5,125.5 709.5,125.5 709.5,125.5 709.5,125.5 709.5,125.5 709.5,125.5 709.5,125.5 	"/>
</g>
</svg>
