<?xml version="1.0" encoding="UTF-8" standalone="no"?><svg width="282.222mm" height="141.111mm" xmlns="http://www.w3.org/2000/svg" xmlns:xlink="http://www.w3.org/1999/xlink"  version="1.2" baseProfile="tiny"><g fill="none" stroke="#ff0000" stroke-linecap="round" stroke-linejoin="round" stroke-opacity="1" stroke-width="1.5" transform="matrix(1,0,0,1,0,0)">
<polyline fill="none" points="147,350 147,350 147,350 147,350 147,350 147,351 147,351 148,351 148,351 148,351 148,351 148,351 148,351 148,351 148,351 148,351 148,351 148,351 148,351 148,351 149,351 149,351 149,351 149,351 149,350 149,350 149,350 149,350 149,350 149,350 149,349 149,349 149,349 150,349 150,349 150,349 150,349 150,349 150,349 150,350 150,350 150,350 150,350 150,350 150,350 150,351 151,351 151,351 151,351 151,351 151,351 151,351 151,351 151,351 151,351 151,351 151,351 151,351 151,351 152,351 152,351 152,351 152,351 152,351 152,351 152,351 152,351 152,350 152,350 152,350 152,350 152,350 153,350 153,350 153,350 153,350 153,350 153,350 153,350 153,350 153,350 153,350 153,350 153,350 153,350 154,350 154,350 154,350 154,350 154,350 154,350 154,350 154,350 154,350 154,350 154,350 154,350 154,350 155,350 155,350 155,351 155,351 155,351 155,351 155,351 155,351 155,351 155,351 155,351 155,351 155,351 156,351 156,351 156,350 156,350 156,350 156,350 156,350 156,350 156,350 156,350 156,349 156,349 156,349 157,349 157,349 157,349 157,349 157,349 157,348 157,348 157,348 157,348 157,348 157,348 157,348 157,348 158,348 158,348 158,348 158,348 158,348 158,348 158,348 158,348 158,348 158,348 158,348 158,348 158,348 159,348 159,348 159,348 159,348 159,348 159,348 159,348 159,348 159,348 159,348 159,348 159,348 159,348 160,348 160,348 160,348 160,348 160,347 160,347 160,347 160,347 160,347 160,347 160,347 160,347 160,347 161,347 161,347 161,347 161,347 161,347 161,347 161,347 161,347 161,347 161,347 161,347 161,347 161,347 162,347 162,347 162,347 162,347 162,347 162,347 162,348 162,348 162,348 162,348 162,348 162,348 162,348 163,348 163,348 163,348 163,348 163,348 163,348 163,348 163,348 163,348 163,348 163,348 163,348 163,347 164,347 164,347 164,347 164,347 164,347 164,347 164,347 164,347 164,347 164,347 164,347 164,347 164,347 165,347 165,347 165,347 165,346 165,346 165,346 165,346 165,346 165,346 165,346 165,346 165,346 165,346 166,346 166,346 166,345 166,345 166,345 166,345 166,345 166,345 166,345 166,345 166,345 166,345 166,346 167,346 167,346 167,346 167,346 167,346 167,346 167,347 167,347 167,347 167,347 167,347 167,347 167,347 168,347 168,347 168,347 168,347 168,347 168,347 168,347 168,347 168,347 168,347 168,347 168,347 168,347 168,347 169,347 169,347 169,347 169,347 169,347 169,346 169,346 169,346 169,346 169,346 169,346 169,346 169,346 170,346 170,346 170,346 170,345 170,345 170,346 170,346 170,346 170,347 170,347 170,347 170,347 170,347 171,347 171,347 171,346 171,346 171,346 171,346 171,346 171,346 171,346 171,346 171,346 171,346 171,346 172,346 172,346 172,346 172,345 172,345 172,345 172,345 172,345 172,345 172,345 172,345 172,345 172,344 173,344 173,344 173,344 173,344 173,344 173,344 173,344 173,344 173,344 173,344 173,344 173,344 173,344 174,344 174,344 174,344 174,344 174,344 174,344 174,344 174,343 174,343 174,342 174,342 174,342 174,341 175,341 175,340 175,340 175,340 175,340 175,340 175,339 175,339 175,339 175,339 175,339 175,338 175,338 176,338 176,338 176,338 176,337 176,337 176,337 176,337 176,337 176,336 176,336 176,336 176,336 176,336 177,335 177,335 177,335 177,335 177,335 177,334 177,334 177,334 177,334 177,334 177,333 177,333 177,333 178,333 178,333 178,332 178,332 178,332 178,332 178,332 178,331 178,331 178,331 178,331 178,331 178,330 179,330 179,330 179,330 179,330 179,329 179,329 179,329 179,329 179,329 179,328 179,328 179,328 179,328 180,327 180,327 180,327 180,327 180,327 180,326 180,326 180,326 180,326 180,326 180,325 180,325 180,325 181,325 181,325 181,324 181,324 181,324 181,324 181,324 181,323 181,323 181,323 181,323 181,323 181,322 182,322 182,322 182,322 182,322 182,321 182,321 182,321 182,321 182,321 182,320 182,320 182,320 182,320 183,320 183,319 183,319 183,319 183,319 183,319 183,318 183,318 183,318 183,318 183,318 183,317 183,317 184,317 184,317 184,317 184,317 184,317 184,316 184,317 184,317 184,317 184,317 184,317 184,317 184,317 185,317 185,317 185,317 185,318 185,318 185,318 185,318 185,318 185,318 185,319 185,319 185,319 185,319 186,319 186,319 186,319 186,319 186,319 186,319 186,320 186,320 186,320 186,320 186,320 186,320 186,320 187,320 187,320 187,321 187,321 187,321 187,321 187,321 187,321 187,321 187,321 187,321 187,321 187,322 188,322 188,322 188,322 188,322 188,322 188,322 188,322 188,322 188,323 188,323 188,323 188,323 188,323 189,323 189,323 189,324 189,324 189,324 189,324 189,324 189,324 189,324 189,324 189,325 189,325 189,325 190,325 190,325 190,325 190,325 190,325 190,325 190,325 190,326 190,326 190,326 190,326 190,326 190,326 191,326 191,326 191,326 191,326 191,326 191,326 191,326 191,326 191,327 191,327 191,327 191,327 191,328 192,328 192,328 192,329 192,329 192,329 192,328 192,328 192,327 192,327 192,326 192,326 192,325 192,325 193,325 193,324 193,324 193,323 193,323 193,322 193,322 193,321 193,320 193,320 193,319 193,319 193,319 194,318 194,318 194,317 194,317 194,317 194,318 194,317 194,317 194,317 194,317 194,317 194,317 194,317 195,318 195,318 195,318 195,318 195,319 195,319 195,320 195,321 195,322 195,323 195,323 195,324 195,324 196,324 196,324 196,325 196,325 196,325 196,325 196,325 196,325 196,325 196,325 196,325 196,325 196,325 197,325 197,324 197,323 197,323 197,322 197,321 197,320 197,320 197,320 197,319 197,319 197,319 197,319 198,319 198,319 198,319 198,319 198,319 198,319 198,319 198,320 198,320 198,321 198,321 198,322 198,322 199,323 199,323 199,324 199,324 199,324 199,325 199,326 199,327 199,327 199,328 199,329 199,330 199,331 200,331 200,332 200,333 200,334 200,335 200,335 200,336 200,336 200,337 200,338 200,338 200,339 200,339 201,340 201,340 201,340 201,340 201,340 201,340 201,340 201,340 201,340 201,340 201,340 201,339 201,339 202,339 202,339 202,339 202,339 202,339 202,339 202,339 202,338 202,338 202,337 202,337 202,336 202,336 203,335 203,335 203,335 203,335 203,335 203,335 203,334 203,334 203,334 203,334 203,333 203,333 203,332 204,332 204,331 204,330 204,330 204,329 204,328 204,327 204,326 204,325 204,324 204,323 204,321 204,321 205,320 205,320 205,319 205,319 205,318 205,317 205,317 205,316 205,316 205,315 205,315 205,315 205,314 206,314 206,314 206,314 206,314 206,313 206,313 206,313 206,313 206,312 206,312 206,312 206,312 206,311 207,311 207,311 207,311 207,310 207,310 207,310 207,310 207,310 207,309 207,309 207,309 207,309 207,309 208,310 208,310 208,310 208,310 208,311 208,311 208,312 208,312 208,312 208,313 208,313 208,314 208,314 209,314 209,315 209,315 209,315 209,315 209,315 209,315 209,315 209,315 209,315 209,315 209,315 209,315 210,316 210,316 210,316 210,317 210,317 210,318 210,319 210,321 210,322 210,323 210,324 210,325 210,326 211,327 211,329 211,330 211,331 211,331 211,332 211,331 211,331 211,330 211,330 211,328 211,327 211,326 212,325 212,324 212,323 212,322 212,321 212,320 212,318 212,317 212,316 212,315 212,314 212,313 212,312 213,310 213,309 213,307 213,307 213,307 213,306 213,306 213,305 213,305 213,305 213,305 213,305 213,305 214,304 214,305 214,305 214,305 214,305 214,305 214,305 214,305 214,304 214,304 214,304 214,305 214,305 215,306 215,306 215,307 215,307 215,308 215,309 215,309 215,310 215,310 215,311 215,311 215,312 215,313 216,313 216,314 216,315 216,316 216,317 216,318 216,319 216,321 216,321 216,322 216,322 216,323 216,323 217,324 217,324 217,325 217,325 217,326 217,326 217,327 217,327 217,328 217,329 217,329 217,330 217,330 218,330 218,330 218,330 218,330 218,330 218,331 218,331 218,331 218,330 218,330 218,330 218,330 218,330 219,330 219,331 219,331 219,331 219,331 219,331 219,330 219,330 219,330 219,330 219,330 219,330 219,330 220,330 220,330 220,330 220,330 220,330 220,330 220,329 220,329 220,329 220,329 220,330 220,330 220,330 221,330 221,330 221,329 221,329 221,329 221,329 221,329 221,329 221,329 221,329 221,329 221,329 221,328 222,328 222,327 222,327 222,327 222,328 222,327 222,327 222,327 222,327 222,328 222,328 222,328 222,328 223,328 223,328 223,327 223,326 223,326 223,326 223,326 223,326 223,325 223,325 223,325 223,325 223,324 224,324 224,324 224,324 224,324 224,324 224,324 224,323 224,323 224,323 224,323 224,323 224,323 224,323 224,323 225,323 225,322 225,322 225,322 225,322 225,321 225,321 225,321 225,321 225,320 225,320 225,320 225,321 226,321 226,322 226,322 226,322 226,322 226,322 226,322 226,323 226,323 226,324 226,324 226,324 226,324 227,324 227,323 227,322 227,321 227,320 227,319 227,319 227,318 227,317 227,316 227,316 227,315 227,314 228,314 228,313 228,312 228,312 228,311 228,309 228,308 228,307 228,306 228,305 228,304 228,303 228,303 229,303 229,303 229,303 229,303 229,303 229,303 229,303 229,303 229,303 229,302 229,303 229,303 229,303 230,303 230,302 230,302 230,302 230,302 230,302 230,302 230,302 230,302 230,302 230,301 230,301 230,301 231,301 231,301 231,300 231,300 231,300 231,300 231,300 231,300 231,300 231,300 231,299 231,299 231,299 232,299 232,299 232,299 232,299 232,299 232,299 232,299 232,299 232,298 232,298 232,298 232,297 232,297 233,296 233,296 233,295 233,295 233,294 233,294 233,293 233,293 233,293 233,292 233,292 233,291 233,291 234,291 234,290 234,290 234,290 234,290 234,290 234,290 234,290 234,290 234,290 234,290 234,290 234,290 235,290 235,290 235,290 235,291 235,291 235,291 235,291 235,291 235,291 235,290 235,290 235,289 235,289 236,288 236,287 236,287 236,287 236,287 236,286 236,286 236,286 236,285 236,285 236,285 236,284 236,284 237,284 237,283 237,283 237,283 237,282 237,282 237,282 237,282 237,281 237,281 237,281 237,280 237,280 238,279 238,279 238,279 238,279 238,279 238,279 238,279 238,279 238,279 238,279 238,279 238,280 238,280 239,281 239,281 239,281 239,282 239,282 239,283 239,283 239,283 239,284 239,284 239,284 239,284 239,284 240,283 240,283 240,283 240,283 240,283 240,284 240,284 240,285 240,285 240,285 240,286 240,286 240,287 241,287 241,288 241,288 241,288 241,288 241,289 241,289 241,288 241,288 241,288 241,288 241,287 241,286 242,286 242,285 242,285 242,285 242,284 242,284 242,284 242,284 242,284 242,284 242,284 242,284 242,283 243,284 243,284 243,284 243,285 243,285 243,286 243,287 243,287 243,288 243,289 243,290 243,290 243,291 244,292 244,292 244,293 244,293 244,293 244,294 244,294 244,294 244,295 244,295 244,295 244,295 244,294 245,294 245,294 245,293 245,292 245,292 245,291 245,290 245,290 245,289 245,288 245,287 245,287 245,286 246,285 246,284 246,284 246,283 246,282 246,282 246,281 246,280 246,280 246,279 246,278 246,278 246,277 247,276 247,276 247,275 247,275 247,274 247,273 247,273 247,272 247,272 247,271 247,270 247,270 247,269 248,269 248,268 248,268 248,267 248,267 248,267 248,267 248,267 248,267 248,267 248,267 248,267 248,266 249,266 249,266 249,266 249,267 249,267 249,268 249,268 249,269 249,270 249,271 249,271 249,272 249,273 250,274 250,274 250,275 250,276 250,277 250,278 250,279 250,280 250,282 250,283 250,284 250,285 250,285 251,286 251,286 251,287 251,287 251,287 251,287 251,286 251,286 251,285 251,284 251,283 251,282 251,281 252,280 252,279 252,278 252,277 252,276 252,275 252,274 252,273 252,273 252,273 252,273 252,273 252,273 253,273 253,273 253,273 253,273 253,273 253,273 253,273 253,272 253,272 253,272 253,272 253,272 253,272 254,272 254,272 254,272 254,272 254,271 254,271 254,272 254,272 254,273 254,275 254,276 254,278 254,279 255,280 255,282 255,283 255,284 255,285 255,286 255,287 255,288 255,289 255,289 255,290 255,290 255,291 256,291 256,292 256,292 256,292 256,293 256,294 256,295 256,295 256,296 256,297 256,298 256,298 256,298 257,299 257,299 257,299 257,299 257,299 257,299 257,299 257,300 257,300 257,300 257,300 257,300 257,300 258,300 258,300 258,300 258,300 258,300 258,301 258,301 258,301 258,302 258,302 258,302 258,302 258,302 259,302 259,301 259,301 259,300 259,300 259,300 259,299 259,299 259,298 259,298 259,298 259,298 259,297 260,297 260,297 260,297 260,297 260,296 260,296 260,296 260,296 260,296 260,296 260,296 260,295 260,295 261,295 261,294 261,294 261,294 261,294 261,294 261,293 261,293 261,293 261,293 261,292 261,292 261,292 262,291 262,291 262,290 262,290 262,290 262,289 262,289 262,289 262,288 262,288 262,287 262,287 262,286 263,286 263,286 263,285 263,285 263,285 263,284 263,284 263,284 263,283 263,282 263,281 263,282 263,281 264,280 264,280 264,279 264,278 264,277 264,277 264,276 264,275 264,275 264,274 264,273 264,273 264,272 265,271 265,270 265,269 265,268 265,267 265,267 265,266 265,265 265,265 265,264 265,263 265,263 265,262 266,262 266,261 266,261 266,260 266,259 266,259 266,258 266,258 266,257 266,256 266,256 266,255 266,255 267,255 267,255 267,255 267,255 267,255 267,255 267,255 267,255 267,255 267,254 267,254 267,254 267,253 268,253 268,253 268,252 268,252 268,251 268,251 268,250 268,250 268,249 268,249 268,248 268,248 268,247 269,246 269,246 269,245 269,245 269,244 269,243 269,242 269,242 269,241 269,241 269,241 269,241 269,241 270,241 270,241 270,241 270,241 270,241 270,241 270,241 270,241 270,241 270,242 270,242 270,242 270,242 271,242 271,242 271,242 271,242 271,243 271,243 271,243 271,243 271,244 271,244 271,244 271,244 271,244 272,243 272,243 272,243 272,243 272,242 272,242 272,241 272,241 272,240 272,240 272,240 272,240 272,239 273,239 273,239 273,238 273,238 273,238 273,238 273,238 273,238 273,238 273,238 273,238 273,238 273,238 274,238 274,238 274,238 274,238 274,238 274,238 274,238 274,239 274,239 274,239 274,239 274,239 274,239 275,239 275,239 275,239 275,239 275,239 275,239 275,239 275,239 275,239 275,239 275,240 275,240 275,240 276,240 276,240 276,240 276,240 276,240 276,240 276,240 276,241 276,241 276,241 276,241 276,241 276,241 277,241 277,241 277,242 277,242 277,242 277,242 277,243 277,243 277,243 277,243 277,243 277,243 277,243 278,243 278,243 278,243 278,242 278,242 278,242 278,242 278,242 278,241 278,241 278,241 278,240 278,240 279,240 279,240 279,239 279,239 279,239 279,238 279,238 279,238 279,237 279,237 279,237 279,237 279,237 280,237 280,237 280,237 280,237 280,237 280,237 280,237 280,237 280,237 280,237 280,237 280,237 280,236 280,236 281,236 281,235 281,235 281,234 281,234 281,233 281,233 281,232 281,231 281,231 281,230 281,229 281,228 282,228 282,227 282,227 282,227 282,226 282,226 282,226 282,225 282,225 282,225 282,225 282,225 282,225 283,225 283,225 283,225 283,225 283,225 283,225 283,225 283,225 283,225 283,225 283,225 283,225 283,225 284,225 284,225 284,226 284,226 284,226 284,226 284,226 284,226 284,226 284,226 284,226 284,226 284,227 285,227 285,227 285,227 285,227 285,227 285,228 285,229 285,230 285,230 285,231 285,232 285,233 285,234 286,235 286,236 286,237 286,238 286,238 286,237 286,237 286,236 286,236 286,235 286,234 286,234 286,233 287,233 287,232 287,231 287,231 287,231 287,231 287,231 287,231 287,231 287,231 287,231 287,231 287,231 288,231 288,231 288,231 288,231 288,232 288,232 288,232 288,232 288,232 288,232 288,232 288,233 288,233 289,233 289,234 289,235 289,236 289,237 289,238 289,238 289,239 289,239 289,240 289,240 289,240 289,240 290,240 290,241 290,241 290,241 290,242 290,242 290,243 290,243 290,244 290,245 290,245 290,245 290,245 291,245 291,246 291,246 291,245 291,245 291,244 291,244 291,243 291,243 291,242 291,241 291,240 291,240 292,239 292,238 292,238 292,237 292,237 292,236 292,235 292,235 292,234 292,233 292,233 292,233 292,233 293,232 293,232 293,232 293,231 293,231 293,231 293,230 293,230 293,230 293,229 293,229 293,229 293,228 294,228 294,227 294,227 294,227 294,226 294,226 294,226 294,225 294,225 294,225 294,225 294,224 294,224 295,224 295,224 295,224 295,224 295,224 295,224 295,224 295,224 295,224 295,224 295,224 295,223 295,223 296,223 296,223 296,223 296,223 296,223 296,223 296,223 296,223 296,224 296,224 296,224 296,224 296,224 297,225 297,225 297,226 297,226 297,226 297,227 297,227 297,228 297,229 297,229 297,230 297,230 297,230 298,231 298,231 298,231 298,232 298,232 298,233 298,233 298,233 298,234 298,234 298,234 298,235 298,235 299,235 299,235 299,236 299,236 299,236 299,236 299,236 299,236 299,235 299,235 299,235 299,235 299,234 300,234 300,234 300,234 300,233 300,233 300,233 300,233 300,233 300,233 300,232 300,232 300,232 300,232 301,231 301,231 301,230 301,230 301,230 301,229 301,229 301,228 301,227 301,227 301,227 301,226 301,226 302,226 302,225 302,224 302,224 302,223 302,223 302,222 302,222 302,221 302,221 302,220 302,220 302,219 303,219 303,218 303,217 303,217 303,217 303,217 303,217 303,216 303,216 303,216 303,216 303,216 303,216 304,215 304,215 304,215 304,215 304,215 304,214 304,214 304,214 304,214 304,213 304,213 304,213 304,213 305,213 305,212 305,212 305,212 305,211 305,211 305,211 305,210 305,210 305,210 305,210 305,211 305,211 306,211 306,211 306,211 306,211 306,212 306,212 306,212 306,212 306,213 306,213 306,213 306,213 306,213 307,213 307,213 307,213 307,213 307,214 307,215 307,215 307,216 307,217 307,218 307,219 307,220 307,221 308,222 308,223 308,224 308,225 308,227 308,228 308,229 308,230 308,231 308,232 308,233 308,233 308,234 309,235 309,235 309,235 309,235 309,235 309,234 309,234 309,233 309,233 309,232 309,231 309,230 309,229 310,228 310,228 310,227 310,226 310,225 310,224 310,223 310,222 310,221 310,220 310,219 310,218 310,217 311,217 311,216 311,216 311,216 311,215 311,215 311,214 311,214 311,214 311,213 311,213 311,214 311,214 312,214 312,214 312,214 312,214 312,215 312,215 312,215 312,215 312,215 312,216 312,216 312,216 312,216 313,216 313,217 313,218 313,218 313,218 313,219 313,219 313,220 313,222 313,222 313,222 313,222 313,222 314,221 314,221 314,220 314,220 314,219 314,219 314,219 314,219 314,219 314,219 314,219 314,219 314,219 315,219 315,219 315,219 315,219 315,219 315,220 315,220 315,220 315,220 315,220 315,220 315,221 315,221 316,221 316,221 316,221 316,221 316,222 316,222 316,222 316,223 316,224 316,225 316,225 316,226 316,227 317,227 317,228 317,228 317,229 317,230 317,230 317,231 317,231 317,231 317,231 317,231 317,231 317,231 318,231 318,231 318,230 318,230 318,230 318,229 318,229 318,228 318,228 318,227 318,227 318,226 318,226 319,226 319,226 319,225 319,225 319,225 319,224 319,224 319,224 319,224 319,223 319,223 319,223 319,223 320,223 320,223 320,223 320,223 320,223 320,223 320,223 320,224 320,224 320,224 320,225 320,225 320,226 321,227 321,227 321,228 321,228 321,228 321,229 321,230 321,230 321,231 321,232 321,232 321,232 321,232 322,232 322,232 322,232 322,232 322,232 322,232 322,232 322,232 322,231 322,231 322,231 322,231 322,231 323,231 323,231 323,231 323,231 323,231 323,231 323,230 323,230 323,230 323,230 323,229 323,229 323,228 324,228 324,227 324,227 324,226 324,225 324,224 324,224 324,224 324,224 324,223 324,223 324,222 324,222 325,222 325,222 325,222 325,221 325,221 325,221 325,219 325,219 325,218 325,217 325,216 325,216 325,215 326,215 326,215 326,215 326,215 326,215 326,214 326,214 326,214 326,214 326,214 326,214 326,214 326,213 327,213 327,213 327,213 327,212 327,212 327,212 327,211 327,211 327,211 327,211 327,211 327,211 327,212 328,214 328,215 328,216 328,217 328,217 328,218 328,218 328,219 328,219 328,220 328,220 328,219 328,219 329,218 329,217 329,216 329,215 329,214 329,213 329,212 329,210 329,209 329,208 329,206 329,205 329,204 330,204 330,203 330,203 330,202 330,201 330,201 330,200 330,200 330,199 330,198 330,198 330,197 330,197 331,196 331,196 331,195 331,195 331,195 331,196 331,196 331,196 331,196 331,196 331,196 331,196 331,196 332,196 332,196 332,196 332,196 332,196 332,196 332,197 332,197 332,197 332,197 332,197 332,197 332,198 333,198 333,198 333,198 333,198 333,198 333,198 333,198 333,198 333,199 333,199 333,199 333,199 333,199 334,199 334,199 334,199 334,200 334,200 334,200 334,200 334,200 334,201 334,201 334,201 334,202 334,202 335,203 335,203 335,203 335,204 335,204 335,204 335,204 335,204 335,204 335,205 335,204 335,203 335,203 336,202 336,201 336,201 336,200 336,199 336,199 336,198 336,198 336,197 336,197 336,196 336,195 336,195 336,194 337,194 337,193 337,193 337,192 337,192 337,192 337,191 337,191 337,190 337,190 337,190 337,190 337,189 338,189 338,189 338,188 338,188 338,187 338,187 338,186 338,185 338,185 338,184 338,184 338,184 338,183 339,183 339,183 339,183 339,183 339,183 339,183 339,183 339,183 339,184 339,184 339,184 339,185 339,185 340,185 340,186 340,186 340,186 340,186 340,186 340,186 340,185 340,185 340,184 340,184 340,184 340,184 341,183 341,183 341,183 341,183 341,183 341,183 341,183 341,183 341,183 341,183 341,184 341,184 341,184 342,183 342,183 342,182 342,183 342,183 342,183 342,184 342,184 342,184 342,184 342,185 342,185 342,185 343,185 343,185 343,184 343,184 343,183 343,183 343,182 343,182 343,182 343,181 343,181 343,181 343,181 344,180 344,180 344,180 344,180 344,180 344,179 344,179 344,179 344,179 344,178 344,178 344,178 344,178 345,177 345,177 345,177 345,177 345,177 345,177 345,177 345,177 345,176 345,177 345,177 345,177 345,177 346,177 346,177 346,177 346,177 346,178 346,178 346,178 346,179 346,179 346,179 346,180 346,180 346,180 347,180 347,180 347,180 347,180 347,180 347,180 347,180 347,180 347,180 347,179 347,179 347,179 347,178 348,178 348,178 348,178 348,177 348,177 348,177 348,176 348,176 348,176 348,176 348,175 348,175 348,175 349,174 349,174 349,173 349,173 349,173 349,172 349,172 349,172 349,171 349,171 349,170 349,170 349,169 350,169 350,168 350,167 350,167 350,166 350,166 350,165 350,165 350,164 350,164 350,163 350,163 350,162 351,162 351,161 351,161 351,161 351,161 351,160 351,160 351,160 351,159 351,159 351,159 351,159 351,159 352,158 352,158 352,157 352,157 352,156 352,156 352,155 352,155 352,154 352,153 352,152 352,152 352,151 353,150 353,150 353,149 353,149 353,148 353,147 353,147 353,146 353,145 353,145 353,144 353,143 353,142 354,141 354,140 354,139 354,138 354,138 354,137 354,136 354,135 354,135 354,135 354,134 354,133 354,133 355,134 355,134 355,135 355,135 355,135 355,135 355,135 355,135 355,135 355,135 355,134 355,134 355,134 356,134 356,133 356,133 356,133 356,132 356,132 356,132 356,131 356,131 356,131 356,131 356,131 356,130 357,130 357,130 357,130 357,130 357,130 357,130 357,130 357,130 357,130 357,130 357,130 357,130 357,130 358,130 358,130 358,129 358,129 358,129 358,128 358,128 358,127 358,126 358,126 358,125 358,124 358,124 359,123 359,123 359,122 359,122 359,122 359,122 359,122 359,121 359,121 359,121 359,121 359,121 359,121 360,120 360,120 360,120 360,120 360,120 360,120 360,120 360,120 360,120 360,120 360,120 360,120 360,120 361,120 361,120 361,120 361,120 361,120 361,120 361,120 361,120 361,120 361,121 361,121 361,121 361,122 362,122 362,122 362,123 362,123 362,124 362,124 362,125 362,125 362,125 362,125 362,125 362,125 362,126 363,126 363,126 363,126 363,127 363,127 363,128 363,128 363,128 363,128 363,129 363,129 363,129 363,129 364,130 364,130 364,130 364,130 364,130 364,131 364,131 364,131 364,131 364,131 364,132 364,132 364,132 365,132 365,133 365,133 365,134 365,134 365,135 365,135 365,135 365,135 365,136 365,136 365,136 365,136 366,136 366,136 366,136 366,136 366,136 366,136 366,136 366,136 366,136 366,135 366,135 366,135 366,135 367,135 367,134 367,134 367,134 367,134 367,134 367,134 367,134 367,134 367,134 367,134 367,134 367,133 368,133 368,133 368,133 368,133 368,133 368,133 368,134 368,134 368,134 368,134 368,133 368,133 368,133 369,133 369,133 369,133 369,133 369,133 369,133 369,133 369,133 369,133 369,133 369,133 369,133 369,134 370,135 370,136 370,137 370,138 370,139 370,139 370,139 370,139 370,140 370,141 370,141 370,142 370,142 371,143 371,143 371,143 371,144 371,144 371,145 371,145 371,146 371,146 371,146 371,147 371,147 371,147 372,147 372,148 372,149 372,151 372,152 372,153 372,153 372,153 372,153 372,153 372,153 372,153 372,153 373,152 373,152 373,152 373,152 373,152 373,152 373,151 373,151 373,151 373,151 373,151 373,151 373,151 374,150 374,150 374,149 374,150 374,150 374,151 374,152 374,152 374,152 374,153 374,153 374,153 374,154 375,154 375,154 375,154 375,155 375,155 375,155 375,155 375,156 375,156 375,156 375,156 375,156 375,156 376,156 376,156 376,156 376,156 376,156 376,156 376,156 376,156 376,156 376,157 376,157 376,157 376,157 377,157 377,157 377,157 377,157 377,158 377,159 377,160 377,161 377,162 377,163 377,163 377,164 377,165 378,166 378,166 378,167 378,167 378,167 378,167 378,168 378,168 378,168 378,168 378,168 378,168 378,168 379,168 379,168 379,168 379,168 379,168 379,168 379,168 379,167 379,167 379,167 379,167 379,167 379,166 380,166 380,166 380,165 380,165 380,165 380,165 380,165 380,164 380,164 380,163 380,163 380,163 380,162 381,162 381,162 381,163 381,162 381,162 381,162 381,163 381,163 381,163 381,163 381,163 381,163 381,163 382,163 382,163 382,163 382,163 382,163 382,164 382,164 382,164 382,165 382,165 382,165 382,165 382,165 383,165 383,165 383,165 383,165 383,165 383,165 383,165 383,165 383,165 383,165 383,165 383,165 383,165 384,164 384,164 384,164 384,163 384,163 384,162 384,162 384,162 384,161 384,161 384,161 384,161 384,161 385,161 385,161 385,161 385,161 385,161 385,161 385,160 385,160 385,160 385,159 385,159 385,158 385,158 386,158 386,157 386,157 386,157 386,157 386,156 386,155 386,155 386,155 386,155 386,155 386,155 386,154 387,153 387,152 387,152 387,151 387,151 387,150 387,150 387,150 387,150 387,150 387,150 387,151 387,151 388,151 388,151 388,151 388,152 388,152 388,152 388,152 388,152 388,153 388,153 388,153 388,153 388,153 389,154 389,154 389,154 389,154 389,154 389,155 389,155 389,155 389,155 389,156 389,156 389,156 389,156 390,156 390,156 390,156 390,156 390,157 390,157 390,157 390,157 390,157 390,157 390,158 390,158 390,158 391,158 391,158 391,158 391,158 391,158 391,159 391,159 391,159 391,159 391,159 391,159 391,159 391,159 392,160 392,160 392,160 392,161 392,161 392,161 392,161 392,162 392,162 392,162 392,162 392,162 392,163 393,163 393,163 393,163 393,163 393,163 393,163 393,163 393,163 393,163 393,164 393,164 393,164 393,164 393,164 394,164 394,164 394,164 394,165 394,165 394,165 394,165 394,165 394,165 394,165 394,166 394,167 394,167 395,167 395,167 395,168 395,168 395,168 395,169 395,169 395,169 395,170 395,170 395,170 395,170 395,170 396,170 396,171 396,171 396,171 396,171 396,171 396,171 396,171 396,170 396,170 396,170 396,170 396,169 397,169 397,169 397,168 397,168 397,168 397,168 397,168 397,168 397,168 397,168 397,168 397,168 397,168 398,168 398,168 398,168 398,168 398,168 398,168 398,168 398,168 398,168 398,168 398,168 398,168 398,169 399,169 399,169 399,169 399,169 399,169 399,169 399,169 399,169 399,169 399,169 399,170 399,170 399,171 400,171 400,172 400,173 400,174 400,175 400,176 400,177 400,179 400,180 400,181 400,182 400,183 400,183 401,183 401,183 401,183 401,184 401,184 401,184 401,184 401,185 401,185 401,185 401,185 401,186 401,186 402,186 402,186 402,186 402,186 402,186 402,186 402,187 402,187 402,188 402,189 402,190 402,190 402,191 403,191 403,191 403,192 403,192 403,192 403,193 403,193 403,193 403,194 403,193 403,193 403,193 403,193 404,193 404,193 404,194 404,194 404,194 404,195 404,195 404,195 404,195 404,195 404,195 404,195 404,195 405,195 405,195 405,195 405,196 405,197 405,197 405,198 405,198 405,199 405,199 405,200 405,200 405,200 406,200 406,200 406,200 406,200 406,200 406,200 406,200 406,199 406,199 406,199 406,199 406,199 406,199 407,198 407,198 407,198 407,198 407,198 407,198 407,199 407,199 407,199 407,199 407,199 407,199 407,200 408,200 408,200 408,201 408,201 408,201 408,201 408,201 408,201 408,201 408,201 408,200 408,200 408,200 409,200 409,200 409,200 409,200 409,199 409,198 409,197 409,197 409,196 409,196 409,195 409,195 409,195 410,194 410,194 410,194 410,193 410,193 410,193 410,193 410,192 410,192 410,192 410,192 410,191 410,191 411,191 411,191 411,190 411,190 411,190 411,190 411,190 411,190 411,190 411,189 411,189 411,189 411,189 412,189 412,189 412,189 412,189 412,189 412,189 412,189 412,189 412,189 412,188 412,188 412,188 412,187 413,187 413,187 413,186 413,185 413,186 413,186 413,186 413,186 413,186 413,186 413,186 413,186 413,185 414,185 414,184 414,184 414,184 414,184 414,183 414,183 414,183 414,183 414,182 414,182 414,182 414,182 415,182 415,182 415,182 415,182 415,182 415,182 415,182 415,182 415,182 415,182 415,182 415,182 415,182 416,182 416,182 416,182 416,182 416,182 416,182 416,182 416,182 416,182 416,182 416,182 416,182 416,182 417,182 417,182 417,182 417,182 417,182 417,182 417,182 417,182 417,182 417,182 417,182 417,182 417,182 418,182 418,182 418,182 418,183 418,183 418,183 418,183 418,183 418,183 418,183 418,183 418,182 418,182 419,182 419,182 419,182 419,182 419,182 419,183 419,183 419,183 419,183 419,183 419,183 419,183 419,183 420,183 420,183 420,183 420,184 420,184 420,184 420,184 420,184 420,184 420,184 420,185 420,185 420,185 421,185 421,185 421,185 421,185 421,186 421,186 421,186 421,186 421,186 421,186 421,187 421,187 421,187 422,187 422,187 422,188 422,188 422,188 422,189 422,189 422,189 422,190 422,190 422,191 422,192 422,192 423,192 423,193 423,194 423,194 423,195 423,196 423,196 423,197 423,197 423,198 423,198 423,198 423,198 424,199 424,199 424,200 424,200 424,201 424,201 424,202 424,203 424,203 424,203 424,203 424,204 424,204 425,204 425,204 425,204 425,204 425,203 425,203 425,203 425,202 425,202 425,202 425,201 425,201 425,200 426,200 426,199 426,199 426,198 426,197 426,196 426,195 426,195 426,194 426,193 426,192 426,192 426,192 427,191 427,191 427,192 427,192 427,191 427,192 427,192 427,192 427,192 427,192 427,192 427,192 427,192 428,192 428,192 428,192 428,193 428,193 428,193 428,193 428,193 428,193 428,193 428,193 428,194 428,194 429,194 429,194 429,194 429,194 429,195 429,195 429,195 429,195 429,195 429,196 429,196 429,197 429,197 430,198 430,198 430,199 430,199 430,200 430,201 430,201 430,201 430,202 430,202 430,203 430,203 430,203 431,203 431,203 431,203 431,203 431,203 431,203 431,203 431,203 431,203 431,203 431,203 431,202 431,202 432,202 432,202 432,202 432,202 432,201 432,201 432,201 432,201 432,201 432,201 432,201 432,201 432,201 433,201 433,201 433,201 433,202 433,202 433,202 433,203 433,203 433,203 433,204 433,204 433,205 433,205 434,206 434,207 434,207 434,208 434,208 434,209 434,209 434,209 434,209 434,209 434,209 434,209 434,209 435,210 435,210 435,209 435,209 435,209 435,209 435,209 435,209 435,209 435,209 435,209 435,209 435,209 436,209 436,209 436,210 436,210 436,210 436,210 436,210 436,210 436,210 436,210 436,211 436,211 436,211 437,211 437,211 437,211 437,211 437,211 437,211 437,211 437,211 437,211 437,211 437,211 437,211 437,211 438,211 438,211 438,211 438,211 438,210 438,210 438,210 438,211 438,211 438,211 438,211 438,211 438,211 439,211 439,212 439,212 439,212 439,212 439,212 439,212 439,213 439,213 439,213 439,213 439,213 439,213 440,213 440,214 440,214 440,215 440,215 440,216 440,216 440,216 440,217 440,217 440,218 440,218 440,219 441,219 441,219 441,220 441,220 441,220 441,220 441,221 441,221 441,221 441,221 441,222 441,222 441,222 442,222 442,222 442,222 442,223 442,223 442,223 442,223 442,223 442,223 442,223 442,223 442,223 442,223 443,223 443,222 443,222 443,222 443,222 443,222 443,222 443,223 443,223 443,223 443,223 443,222 443,222 444,222 444,222 444,222 444,222 444,222 444,222 444,221 444,221 444,221 444,221 444,220 444,220 444,220 445,220 445,220 445,220 445,220 445,220 445,219 445,219 445,219 445,218 445,218 445,218 445,218 445,217 446,217 446,216 446,216 446,216 446,215 446,215 446,215 446,215 446,215 446,215 446,214 446,214 446,214 447,213 447,213 447,213 447,213 447,212 447,212 447,212 447,212 447,211 447,211 447,211 447,211 447,211 448,212 448,212 448,212 448,212 448,212 448,212 448,212 448,212 448,212 448,211 448,212 448,211 448,211 449,211 449,210 449,210 449,210 449,209 449,209 449,208 449,208 449,208 449,207 449,207 449,207 449,207 449,207 450,206 450,206 450,206 450,206 450,206 450,206 450,206 450,206 450,206 450,205 450,205 450,205 450,205 451,205 451,205 451,205 451,205 451,204 451,204 451,204 451,204 451,204 451,203 451,203 451,203 451,203 452,203 452,202 452,202 452,202 452,201 452,201 452,200 452,200 452,200 452,199 452,199 452,199 452,198 453,198 453,198 453,198 453,197 453,197 453,197 453,197 453,197 453,197 453,197 453,197 453,197 453,197 454,197 454,197 454,198 454,198 454,198 454,199 454,200 454,200 454,200 454,200 454,199 454,199 454,199 455,199 455,199 455,200 455,200 455,200 455,200 455,200 455,200 455,200 455,200 455,200 455,200 455,200 456,201 456,201 456,201 456,201 456,201 456,201 456,201 456,201 456,201 456,201 456,201 456,201 456,201 457,201 457,201 457,201 457,201 457,201 457,201 457,201 457,202 457,202 457,202 457,203 457,203 457,203 458,203 458,203 458,203 458,203 458,203 458,202 458,202 458,201 458,200 458,200 458,199 458,199 458,198 459,197 459,197 459,196 459,196 459,195 459,195 459,194 459,193 459,192 459,191 459,190 459,189 459,189 460,188 460,188 460,187 460,187 460,186 460,186 460,186 460,185 460,185 460,185 460,185 460,184 460,184 461,184 461,184 461,184 461,183 461,183 461,183 461,183 461,183 461,183 461,183 461,182 461,182 461,182 462,182 462,182 462,182 462,182 462,182 462,181 462,181 462,180 462,180 462,180 462,179 462,179 462,179 463,179 463,179 463,179 463,179 463,178 463,178 463,178 463,178 463,178 463,178 463,177 463,177 463,177 464,176 464,176 464,175 464,174 464,174 464,173 464,173 464,173 464,172 464,172 464,172 464,172 464,172 465,172 465,172 465,172 465,172 465,172 465,172 465,172 465,172 465,172 465,172 465,172 465,172 465,172 466,171 466,172 466,172 466,172 466,173 466,173 466,173 466,174 466,174 466,175 466,176 466,176 466,177 467,177 467,178 467,179 467,180 467,181 467,182 467,182 467,183 467,183 467,183 467,184 467,184 467,185 468,186 468,187 468,188 468,188 468,189 468,190 468,191 468,192 468,193 468,193 468,194 468,195 468,195 469,195 469,196 469,196 469,197 469,197 469,197 469,197 469,198 469,198 469,198 469,198 469,198 469,198 470,197 470,197 470,196 470,196 470,195 470,195 470,194 470,193 470,193 470,192 470,192 470,191 470,191 471,190 471,190 471,190 471,189 471,189 471,188 471,188 471,187 471,187 471,186 471,186 471,186 471,186 472,186 472,185 472,185 472,185 472,185 472,185 472,185 472,185 472,186 472,186 472,186 472,186 472,186 473,186 473,187 473,187 473,187 473,186 473,186 473,186 473,187 473,188 473,188 473,189 473,189 473,189 474,190 474,190 474,191 474,191 474,192 474,192 474,193 474,193 474,194 474,195 474,195 474,196 474,197 475,197 475,198 475,198 475,198 475,198 475,198 475,199 475,199 475,199 475,199 475,199 475,199 475,198 476,198 476,198 476,197 476,197 476,197 476,197 476,197 476,197 476,197 476,196 476,196 476,195 476,194 477,193 477,192 477,192 477,192 477,191 477,191 477,191 477,191 477,190 477,190 477,190 477,189 477,189 478,189 478,189 478,189 478,189 478,188 478,188 478,188 478,188 478,188 478,188 478,187 478,187 478,187 479,186 479,185 479,184 479,183 479,183 479,182 479,182 479,181 479,180 479,179 479,177 479,177 479,176 480,176 480,176 480,175 480,175 480,174 480,174 480,174 480,173 480,173 480,173 480,172 480,172 480,172 481,172 481,171 481,171 481,171 481,170 481,170 481,170 481,169 481,168 481,168 481,168 481,168 481,168 482,169 482,169 482,170 482,170 482,171 482,171 482,171 482,171 482,171 482,170 482,170 482,170 482,170 483,170 483,170 483,170 483,170 483,170 483,170 483,170 483,170 483,170 483,170 483,170 483,170 483,171 484,171 484,171 484,171 484,171 484,171 484,171 484,171 484,171 484,171 484,171 484,171 484,171 484,171 485,171 485,171 485,171 485,171 485,171 485,171 485,171 485,171 485,171 485,171 485,171 485,171 485,170 486,170 486,170 486,170 486,171 486,171 486,171 486,171 486,171 486,171 486,171 486,171 486,171 486,171 487,171 487,171 487,170 487,170 487,170 487,170 487,170 487,170 487,170 487,170 487,170 487,170 487,170 488,169 488,169 488,169 488,169 488,169 488,169 488,169 488,169 488,168 488,168 488,168 488,168 488,168 489,168 489,168 489,168 489,168 489,168 489,167 489,167 489,166 489,165 489,165 489,164 489,164 489,163 490,163 490,162 490,162 490,162 490,162 490,161 490,161 490,161 490,161 490,161 490,161 490,160 490,160 491,160 491,160 491,159 491,159 491,158 491,157 491,156 491,155 491,155 491,154 491,153 491,153 491,152 492,151 492,150 492,149 492,148 492,148 492,147 492,147 492,146 492,146 492,146 492,145 492,145 492,145 493,144 493,144 493,144 493,144 493,144 493,143 493,144 493,144 493,144 493,145 493,145 493,145 493,145 494,145 494,145 494,144 494,144 494,144 494,143 494,143 494,143 494,142 494,141 494,141 494,140 494,140 495,140 495,140 495,139 495,139 495,139 495,138 495,138 495,138 495,138 495,138 495,138 495,137 495,138 496,138 496,138 496,138 496,138 496,138 496,138 496,139 496,139 496,139 496,140 496,140 496,140 496,140 497,140 497,140 497,140 497,140 497,140 497,140 497,140 497,140 497,140 497,140 497,140 497,140 497,141 498,141 498,141 498,141 498,141 498,141 498,141 498,141 498,141 498,141 498,141 498,141 498,141 498,141 499,141 499,141 499,141 499,140 499,140 499,140 499,140 499,140 499,140 499,140 499,140 499,140 499,140 500,140 500,140 500,140 500,140 500,140 500,140 500,140 500,140 500,140 500,140 500,140 500,141 500,141 501,142 501,142 501,143 501,144 501,144 501,145 501,146 501,146 501,146 501,147 501,147 501,148 501,149 502,150 502,150 502,150 502,150 502,150 502,150 502,150 502,149 502,149 502,149 502,149 502,149 502,149 503,149 503,149 503,148 503,147 503,147 503,146 503,146 503,146 503,146 503,146 503,145 503,145 503,145 504,144 504,144 504,144 504,143 504,143 504,143 504,142 504,142 504,142 504,141 504,141 504,141 504,141 505,141 505,141 505,141 505,141 505,141 505,141 505,141 505,141 505,142 505,142 505,142 505,143 505,144 505,144 506,144 506,144 506,143 506,143 506,142 506,140 506,139 506,139 506,138 506,138 506,137 506,136 506,136 507,135 507,135 507,134 507,134 507,133 507,133 507,132 507,132 507,132 507,131 507,130 507,130 507,130 508,129 508,129 508,129 508,128 508,128 508,128 508,128 508,128 508,128 508,128 508,128 508,128 508,128 509,128 509,128 509,128 509,128 509,128 509,127 509,127 509,127 509,127 509,126 509,126 509,126 509,126 510,126 510,125 510,125 510,125 510,125 510,125 510,124 510,124 510,124 510,124 510,124 510,124 510,124 511,123 511,123 511,123 511,123 511,123 511,123 511,122 511,122 511,122 511,122 511,122 511,122 511,122 512,121 512,121 512,122 512,122 512,122 512,123 512,123 512,124 512,124 512,124 512,124 512,125 512,125 513,125 513,125 513,125 513,125 513,125 513,125 513,125 513,125 513,125 513,125 513,125 513,124 513,124 514,124 514,124 514,124 514,124 514,124 514,124 514,124 514,124 514,125 514,125 514,125 514,125 514,125 515,126 515,126 515,126 515,127 515,127 515,127 515,128 515,128 515,128 515,128 515,129 515,129 515,129 516,130 516,130 516,130 516,130 516,130 516,130 516,131 516,131 516,131 516,132 516,132 516,132 516,132 517,133 517,133 517,133 517,133 517,133 517,133 517,134 517,134 517,134 517,134 517,134 517,135 517,135 518,135 518,135 518,135 518,136 518,136 518,136 518,136 518,136 518,136 518,136 518,136 518,136 518,136 519,136 519,136 519,136 519,136 519,136 519,136 519,136 519,136 519,136 519,136 519,136 519,136 519,136 520,136 520,136 520,137 520,137 520,136 520,136 520,136 520,136 520,137 520,137 520,137 520,137 520,137 521,137 521,137 521,137 521,137 521,137 521,137 521,137 521,137 521,137 521,136 521,136 521,136 521,136 522,136 522,135 522,136 522,136 522,135 522,135 522,135 522,134 522,134 522,134 522,133 522,133 522,133 523,133 523,133 523,133 523,133 523,133 523,132 523,132 523,132 523,132 523,132 523,132 523,131 523,131 524,131 524,131 524,131 524,131 524,130 524,130 524,130 524,130 524,130 524,130 524,130 524,130 524,130 525,130 525,130 525,130 525,130 525,130 525,130 525,130 525,130 525,130 525,131 525,131 525,131 525,131 526,131 526,131 526,131 526,132 526,132 526,132 526,132 526,132 526,132 526,132 526,132 526,132 526,132 527,132 527,133 527,133 527,133 527,133 527,133 527,133 527,133 527,133 527,133 527,133 527,134 527,134 528,134 528,134 528,134 528,135 528,135 528,135 528,135 528,135 528,135 528,136 528,136 528,136 528,136 529,137 529,137 529,136 529,136 529,136 529,136 529,136 529,135 529,135 529,135 529,135 529,135 529,135 530,134 530,134 530,134 530,134 530,134 530,133 530,133 530,133 530,133 530,132 530,132 530,132 530,132 531,131 531,131 531,131 531,130 531,130 531,130 531,130 531,130 531,129 531,129 531,129 531,129 531,128 532,128 532,128 532,128 532,128 532,127 532,127 532,127 532,127 532,126 532,126 532,126 532,126 532,126 533,125 533,125 533,125 533,125 533,125 533,124 533,124 533,124 533,124 533,124 533,124 533,124 533,124 534,124 534,124 534,124 534,124 534,124 534,124 534,125 534,125 534,125 534,125 534,125 534,126 534,126 535,126 535,126 535,127 535,127 535,127 535,127 535,128 535,128 535,128 535,128 535,129 535,129 535,129 536,130 536,130 536,130 536,130 536,130 536,130 536,130 536,130 536,130 536,130 536,130 536,130 536,130 537,130 537,130 537,130 537,130 537,130 537,130 537,130 537,130 537,131 537,131 537,131 537,131 537,131 538,131 538,131 538,131 538,131 538,131 538,131 538,131 538,131 538,131 538,131 538,131 538,131 538,131 539,132 539,132 539,132 539,132 539,132 539,132 539,132 539,132 539,133 539,133 539,133 539,133 539,133 540,133 540,133 540,133 540,134 540,134 540,134 540,134 540,135 540,135 540,135 540,135 540,135 540,135 541,135 541,135 541,135 541,135 541,135 541,135 541,135 541,135 541,134 541,135 541,135 541,135 541,135 542,135 542,135 542,136 542,136 542,136 542,137 542,137 542,137 542,138 542,138 542,138 542,138 542,139 543,139 543,139 543,139 543,139 543,140 543,140 543,140 543,140 543,140 543,140 543,140 543,140 543,141 544,141 544,142 544,142 544,142 544,142 544,142 544,142 544,142 544,143 544,143 544,143 544,143 544,143 545,143 545,143 545,143 545,144 545,144 545,144 545,144 545,144 545,145 545,145 545,145 545,145 545,145 546,146 546,146 546,146 546,146 546,147 546,147 546,147 546,147 546,147 546,148 546,148 546,148 546,148 547,148 547,148 547,148 547,149 547,148 547,148 547,148 547,148 547,148 547,149 547,149 547,149 547,149 548,149 548,149 548,149 548,149 548,149 548,149 548,149 548,149 548,149 548,149 548,150 548,149 548,149 549,149 549,149 549,149 549,149 549,149 549,149 549,149 549,149 549,149 549,149 549,149 549,149 549,149 550,149 550,149 550,150 550,150 550,150 550,150 550,150 550,150 550,150 550,150 550,150 550,150 550,150 551,151 551,151 551,151 551,151 551,151 551,151 551,151 551,151 551,151 551,151 551,152 551,151 551,152 552,152 552,152 552,152 552,152 552,153 552,153 552,153 552,153 552,153 552,153 552,153 552,153 552,153 553,153 553,153 553,153 553,153 553,153 553,153 553,153 553,152 553,152 553,152 553,152 553,152 553,152 554,152 554,152 554,152 554,152 554,152 554,152 554,152 554,152 554,152 554,152 554,152 554,152 554,152 555,152 555,152 555,152 555,152 555,152 555,152 555,152 555,152 555,152 555,152 555,152 555,152 555,152 556,152 556,152 556,152 556,152 556,152 556,152 556,152 556,152 556,152 556,152 556,152 556,152 556,152 557,152 557,152 557,152 557,152 557,152 557,152 557,152 557,152 557,153 557,153 557,153 557,154 557,154 558,154 558,154 558,153 558,153 558,153 558,153 558,153 558,153 558,153 558,152 558,152 558,151 558,151 559,151 559,151 559,151 559,151 559,151 559,151 559,151 559,151 559,151 559,151 559,151 559,151 559,151 560,151 560,151 560,151 560,152 560,152 560,152 560,153 560,153 560,153 560,153 560,154 560,154 560,154 561,155 561,155 561,155 561,155 561,155 561,155 561,155 561,155 561,154 561,154 561,154 561,154 561,154 561,154 562,154 562,154 562,153 562,153 562,153 562,153 562,153 562,153 562,153 562,153 562,153 562,153 562,153 563,153 563,153 563,153 563,153 563,153 563,153 563,153 563,154 563,154 563,154 563,154 563,154 563,154 564,154 564,154 564,153 564,153 564,153 564,153 564,153 564,153 564,153 564,153 564,153 564,153 564,153 565,153 565,153 565,152 565,152 565,152 565,152 565,151 565,151 565,151 565,151 565,150 565,150 565,150 566,150 566,150 566,150 566,150 566,150 566,149 566,149 566,149 566,149 566,149 566,148 566,148 566,148 567,148 567,148 567,148 567,148 567,148 567,148 567,148 567,148 567,148 567,147 567,147 567,148 567,148 568,148 568,148 568,149 568,149 568,149 568,150 568,150 568,150 568,151 568,151 568,151 568,152 568,152 569,153 569,153 569,153 569,153 569,153 569,153 569,153 569,153 569,153 569,153 569,154 569,154 569,154 570,154 570,153 570,153 570,153 570,154 570,154 570,154 570,154 570,154 570,154 570,154 570,154 570,154 571,154 571,155 571,155 571,155 571,155 571,156 571,156 571,156 571,156 571,156 571,156 571,156 571,157 572,157 572,157 572,157 572,157 572,157 572,157 572,157 572,157 572,157 572,157 572,157 572,157 572,157 573,157 573,157 573,157 573,157 573,157 573,157 573,157 573,157 573,157 573,157 573,157 573,157 573,157 574,157 574,157 574,157 574,157 574,156 574,156 574,156 574,156 574,156 574,156 574,156 574,156 574,156 575,156 575,156 575,156 575,156 575,156 575,156 575,156 575,156 575,155 575,155 575,155 575,155 575,155 576,155 576,155 576,155 576,155 576,155 576,155 576,155 576,155 576,155 576,155 576,155 576,155 576,155 577,155 577,155 577,155 577,155 577,155 577,154 577,154 577,153 577,152 577,152 577,152 577,152 577,152 578,151 578,151 578,151 578,151 578,151 578,151 578,151 578,151 578,151 578,151 578,150 578,150 578,150 579,150 579,150 579,150 579,150 579,150 579,150 579,150 579,150 579,151 579,151 579,151 579,151 579,150 580,150 580,150 580,150 580,150 580,150 580,150 580,150 580,150 580,150 580,150 580,150 580,150 580,149 581,149 581,149 581,149 581,149 581,149 581,149 581,149 581,149 581,149 581,149 581,149 581,149 581,149 582,149 582,149 582,149 582,149 582,149 582,149 582,150 582,150 582,150 582,150 582,150 582,150 582,150 583,150 583,150 583,150 583,150 583,151 583,151 583,152 583,151 583,151 583,151 583,151 583,151 583,151 584,150 584,150 584,151 584,151 584,151 584,151 584,152 584,152 584,152 584,152 584,152 584,153 584,153 585,153 585,153 585,153 585,153 585,153 585,153 585,153 585,153 585,153 585,153 585,153 585,153 585,153 586,153 586,153 586,154 586,154 586,154 586,154 586,154 586,154 586,154 586,154 586,154 586,154 586,153 587,153 587,153 587,153 587,153 587,152 587,152 587,152 587,152 587,152 587,152 587,152 587,152 587,152 588,152 588,152 588,150 588,149 588,148 588,148 588,148 588,148 588,148 588,148 588,147 588,147 588,147 589,147 589,147 589,147 589,147 589,147 589,147 589,147 589,146 589,146 589,146 589,146 589,146 589,146 590,146 590,146 590,146 590,146 590,146 590,147 590,147 590,147 590,147 590,147 590,147 590,147 590,147 591,147 591,147 591,148 591,148 591,148 591,148 591,148 591,148 591,148 591,148 591,148 591,148 591,148 592,148 592,148 592,148 592,148 592,148 592,148 592,147 592,147 592,147 592,147 592,147 592,147 592,147 593,147 593,146 593,146 593,146 593,146 593,146 593,146 593,146 593,146 593,146 593,146 593,146 593,146 594,146 594,146 594,147 594,147 594,147 594,147 594,147 594,147 594,147 594,147 594,147 594,147 594,147 595,147 595,147 595,147 595,147 595,147 595,147 595,147 595,147 595,147 595,147 595,146 595,146 595,146 596,146 596,146 596,146 596,146 596,146 596,146 596,146 596,146 596,146 596,146 596,147 596,147 596,147 597,147 597,147 597,147 597,147 597,147 597,146 597,146 597,146 597,146 597,146 597,146 597,146 597,146 598,146 598,146 598,146 598,146 598,146 598,146 598,146 598,146 598,145 598,145 598,145 598,144 598,144 599,144 599,144 599,144 599,144 599,144 599,144 599,143 599,143 599,143 599,143 599,143 599,143 599,143 600,142 600,142 600,142 600,142 600,143 600,143 600,143 600,143 600,142 600,142 600,143 600,143 600,143 601,143 601,143 601,143 601,143 601,143 601,143 601,143 601,143 601,143 601,143 601,142 601,142 601,142 602,142 602,141 602,141 602,141 602,141 602,140 602,140 602,140 602,140 602,139 602,139 602,139 602,138 603,138 603,138 603,137 603,137 603,136 603,136 603,136 603,135 603,135 603,134 603,134 603,134 603,133 604,133 604,133 604,132 604,132 604,132 604,132 604,131 604,131 604,131 604,131 604,131 604,131 604,131 605,131 605,130 605,131 605,130 605,130 605,131 605,131 605,131 605,131 605,131 605,131 605,131 605,131 606,131 606,132 606,132 606,132 606,132 606,133 606,133 606,133 606,133 606,133 606,133 606,133 606,133 607,134 607,134 607,134 607,134 607,134 607,135 607,135 607,135 607,135 607,135 607,135 607,135 607,135 608,135 608,135 608,135 608,135 608,136 608,136 608,136 608,136 608,136 608,136 608,136 608,136 608,136 609,136 609,135 609,135 609,135 609,135 609,135 609,135 609,135 609,135 609,135 609,135 609,135 609,135 610,135 610,134 610,134 610,134 610,134 610,134 610,134 610,134 610,134 610,134 610,134 610,134 610,134 611,134 611,134 611,134 611,134 611,134 611,134 611,134 611,134 611,134 611,135 611,135 611,136 611,136 612,136 612,136 612,136 612,136 612,136 612,136 612,136 612,136 612,136 612,136 612,136 612,135 612,135 613,135 613,135 613,135 613,134 613,134 613,134 613,134 613,133 613,133 613,133 613,133 613,133 613,132 614,132 614,132 614,132 614,131 614,131 614,131 614,131 614,130 614,130 614,130 614,130 614,130 614,130 615,129 615,129 615,129 615,129 615,129 615,129 615,129 615,129 615,129 615,128 615,128 615,128 615,128 616,128 616,128 616,128 616,127 616,127 616,127 616,127 616,127 616,126 616,126 616,126 616,126 616,126 617,126 617,126 617,126 617,126 617,126 617,126 617,126 617,126 617,126 617,127 617,127 617,127 617,127 618,128 618,128 618,128 618,128 618,128 618,128 618,128 618,128 618,128 618,128 618,129 618,129 618,129 618,129 619,129 619,129 619,130 619,130 619,130 619,130 619,130 619,130 619,130 619,130 619,130 619,130 619,130 620,130 620,130 620,129 620,129 620,129 620,129 620,128 620,128 620,128 620,128 620,127 620,127 620,127 621,127 621,126 621,126 621,126 621,126 621,125 621,125 621,125 621,125 621,125 621,125 621,125 621,125 622,125 622,124 622,124 622,124 622,124 622,123 622,123 622,123 622,124 622,123 622,123 622,123 622,124 623,124 623,124 623,124 623,124 623,123 623,123 623,123 623,123 623,123 623,123 623,123 623,123 623,123 624,123 624,123 624,123 624,123 624,123 624,123 624,123 624,123 624,123 624,123 624,123 624,124 624,124 625,124 625,124 625,124 625,124 625,124 625,125 625,125 625,125 625,125 625,126 625,126 625,126 625,126 626,126 626,126 626,127 626,127 626,127 626,127 626,127 626,127 626,127 626,128 626,128 626,128 626,128 627,128 627,128 627,129 627,129 627,129 627,129 627,130 627,130 627,130 627,130 627,130 627,131 627,131 628,131 628,131 628,131 628,131 628,132 628,132 628,132 628,132 628,132 628,132 628,132 628,132 628,132 629,132 629,132 629,133 629,133 629,132 629,132 629,132 629,132 629,132 629,132 629,132 629,131 629,131 630,131 630,131 630,131 630,131 630,131 630,131 630,130 630,130 630,130 630,130 630,130 630,130 630,129 631,129 631,129 631,129 631,129 631,129 631,128 631,128 631,128 631,128 631,128 631,128 631,128 631,128 632,128 632,128 632,128 632,127 632,127 632,127 632,127 632,127 632,127 632,126 632,126 632,126 632,126 633,126 633,126 633,126 633,126 633,125 633,125 633,125 633,125 633,125 633,125 633,124 633,124 633,124 634,124 634,123 634,123 634,123 634,123 634,122 634,122 634,122 634,122 634,121 634,121 634,121 634,121 635,121 635,121 635,122 635,122 635,122 635,122 635,122 635,122 635,122 635,122 635,122 635,122 635,122 636,123 636,123 636,123 636,123 636,124 636,124 636,124 636,124 636,124 636,124 636,124 636,124 636,124 637,124 637,124 637,124 637,124 637,124 637,124 637,124 637,124 637,124 637,124 637,125 637,125 637,125 638,125 638,125 638,125 638,125 638,125 638,125 638,125 638,125 638,125 638,125 638,125 638,124 638,124 639,123 639,123 639,123 639,123 639,123 639,122 639,122 639,122 639,123 639,123 639,122 639,122 639,122 640,122 640,122 640,122 640,122 640,122 640,122 640,122 640,122 640,122 640,122 640,122 640,122 640,122 641,122 641,122 641,122 641,122 641,122 641,122 641,122 641,122 641,122 641,122 641,122 641,122 641,122 642,122 642,122 642,122 642,122 642,122 642,122 642,122 642,122 642,122 642,122 642,122 642,122 642,122 643,122 643,122 643,121 643,121 643,121 643,121 643,121 643,121 643,121 643,121 643,121 643,121 643,121 644,121 644,121 644,121 644,121 644,121 644,121 644,121 644,121 644,121 644,121 644,121 644,121 644,121 645,121 645,121 645,121 645,121 645,121 645,121 645,121 645,121 645,121 645,121 645,121 645,121 645,121 646,121 646,121 646,121 646,121 646,120 646,120 646,120 646,120 646,120 646,120 646,120 646,120 646,120 647,120 647,120 647,120 647,120 647,121 647,120 647,120 647,121 647,121 647,121 647,121 647,121 647,121 648,121 648,121 648,121 648,121 648,121 648,120 648,120 648,120 648,120 648,119 648,119 648,119 648,119 649,119 649,119 649,119 649,118 649,118 649,118 649,118 649,117 649,117 649,117 649,117 649,117 649,117 650,117 650,117 650,117 650,117 650,117 650,117 650,116 650,116 650,116 650,115 650,115 650,115 650,115 651,114 651,114 651,114 651,114 651,114 651,114 651,113 651,113 651,113 651,113 651,113 651,114 651,114 652,114 652,113 652,113 652,113 652,113 652,113 652,113 652,113 652,113 652,113 652,113 652,113 652,113 653,113 653,113 653,113 653,113 653,113 653,113 653,113 653,113 653,113 653,113 653,113 653,113 653,113 654,113 654,113 654,113 654,113 654,113 654,112 654,112 654,112 654,112 654,112 654,112 654,113 654,112 655,112 655,113 655,113 655,113 655,113 655,113 655,113 655,113 655,114 655,114 655,114 655,114 655,114 656,114 656,114 656,115 656,115 656,116 656,116 656,116 656,116 656,116 656,116 656,116 656,116 656,116 657,116 657,116 657,116 657,117 657,117 657,117 657,117 657,117 657,117 657,117 657,117 657,117 657,117 658,117 658,117 658,118 658,118 658,118 658,118 658,118 658,118 658,118 658,118 658,118 658,118 658,118 659,118 659,117 659,117 659,117 659,117 659,117 659,117 659,117 659,117 659,117 659,117 659,117 659,117 660,117 660,117 660,117 660,117 660,117 660,118 660,118 660,118 660,118 660,118 660,118 660,118 660,119 661,119 661,119 661,119 661,119 661,119 661,120 661,120 661,120 661,120 661,120 661,120 661,120 661,119 662,119 662,119 662,119 662,118 662,118 662,117 662,117 662,117 662,116 662,115 662,115 662,115 662,115 663,115 663,114 663,114 663,114 663,114 663,114 663,114 663,114 663,114 663,114 663,114 663,114 663,113 664,113 664,113 664,113 664,113 664,112 664,112 664,112 664,112 664,112 664,112 664,112 664,112 664,112 665,111 665,111 665,111 665,111 665,111 665,111 665,111 665,111 665,111 665,111 665,111 665,111 665,111 666,111 666,111 666,110 666,110 666,109 666,109 666,109 666,108 666,108 666,107 666,107 666,107 666,107 667,106 667,106 667,106 667,105 667,105 667,105 667,104 667,104 667,104 667,103 667,103 667,103 667,102 668,102 668,101 668,101 668,101 668,100 668,100 668,100 668,100 668,100 668,100 668,99 668,99 668,99 669,99 669,99 669,98 669,98 669,99 669,99 669,99 669,100 669,100 669,100 669,101 669,101 669,102 670,102 670,102 670,103 670,103 670,104 670,104 670,105 670,105 670,106 670,106 670,107 670,107 670,108 671,109 671,109 671,110 671,110 671,110 671,111 671,111 671,112 671,112 671,112 671,113 671,113 671,114 672,114 672,115 672,115 672,115 672,116 672,116 672,117 672,117 672,118 672,118 672,119 672,120 672,120 673,122 673,123 673,124 673,124 673,123 673,123 673,122 673,122 673,122 673,122 673,122 673,122 673,122 674,122 674,121 674,121 674,121 674,121 674,121 674,121 674,121 674,121 674,121 674,121 674,121 674,122 674,122 675,122 675,122 675,122 675,123 675,123 675,124 675,124 675,125 675,125 675,125 675,125 675,126 675,126 676,126 676,126 676,126 676,126 676,127 676,128 676,129 676,129 676,128 676,128 676,128 676,128 676,128 677,128 677,128 677,128 677,129 677,129 677,129 677,129 677,130 677,131 677,131 677,130 677,130 677,129 678,130 678,130 678,129 678,128 678,127 678,126 678,126 678,125 678,125 678,125 678,125 678,125 678,125 679,124 679,124 679,124 679,124 679,124 679,124 679,124 679,124 679,123 679,123 679,123 679,123 679,123 680,123 680,123 680,123 680,123 680,122 680,122 680,122 680,122 680,121 680,121 680,121 680,120 680,120 681,120 681,120 681,120 681,120 681,120 681,120 681,120 681,120 681,120 681,120 681,121 681,121 681,121 682,121 682,121 682,121 682,122 682,122 682,122 682,122 682,122 682,123 682,123 682,123 682,123 682,124 683,124 683,124 683,124 683,125 683,125 683,125 683,125 683,125 683,125 683,126 683,126 683,126 683,126 684,126 684,126 684,126 684,126 684,126 684,126 684,126 684,126 684,127 684,127 684,127 684,127 684,127 685,127 685,127 685,127 685,127 685,127 685,127 685,127 685,128 685,128 685,128 685,128 685,128 685,128 686,129 686,129 686,129 686,129 686,129 686,129 686,129 686,129 686,130 686,130 686,130 686,130 686,131 687,131 687,131 687,131 687,131 687,131 687,131 687,131 687,132 687,132 687,132 687,132 687,132 687,133 688,133 688,133 688,133 688,133 688,133 688,133 688,133 688,133 688,133 688,133 688,133 688,132 688,132 689,131 689,131 689,131 689,131 689,131 689,131 689,131 689,131 689,130 689,130 689,130 689,131 689,131 690,131 690,131 690,131 690,131 690,131 690,131 690,131 690,130 690,130 690,130 690,130 690,129 690,129 691,129 691,129 691,129 691,128 691,128 691,128 691,128 691,127 691,127 691,127 691,127 691,127 691,127 692,127 692,127 692,126 692,126 692,126 692,126 692,125 692,125 692,125 692,125 692,125 692,125 692,125 693,125 693,125 693,124 693,124 693,124 693,124 693,124 693,123 693,123 693,123 693,122 693,122 693,122 694,122 694,122 694,122 694,121 694,121 694,121 694,121 694,121 694,120 694,120 694,120 694,121 694,121 695,121 695,121 695,121 695,122 695,122 695,122 695,122 695,122 695,123 695,123 695,124 695,124 695,125 696,126 696,126 696,127 696,127 696,126 696,126 696,126 696,126 696,126 696,126 696,126 696,126 696,126 697,126 697,126 697,126 697,126 697,127 697,126 697,126 697,127 697,127 697,127 697,127 697,126 697,126 698,126 698,126 698,126 698,126 698,126 698,127 698,127 698,127 698,127 698,127 698,127 698,127 698,128 699,128 699,128 699,128 699,128 699,129 699,129 699,129 699,129 699,129 699,129 699,129 699,130 699,130 700,130 700,130 700,130 700,130 700,130 700,130 700,131 700,131 700,131 700,131 700,132 700,132 700,132 701,132 701,133 701,133 701,133 701,133 701,133 701,134 701,134 701,134 701,134 701,134 701,134 701,135 702,135 702,135 702,136 702,137 702,138 702,138 702,138 702,137 702,136 702,136 702,136 702,136 702,137 703,136 703,136 703,136 703,135 703,135 703,135 703,135 703,135 703,135 703,135 703,135 703,135 703,135 704,135 704,134 704,134 704,134 704,134 704,134 704,134 704,134 704,134 704,134 704,134 704,134 704,134 705,133 705,133 705,133 705,133 705,133 705,133 705,133 705,133 705,133 705,133 705,133 705,133 705,133 706,133 706,133 706,133 706,133 706,133 706,133 706,133 706,133 706,133 706,133 706,133 706,133 706,133 707,133 707,133 707,133 707,133 707,133 707,133 707,133 707,133 707,133 707,133 707,133 707,133 707,133 708,133 708,133 708,133 708,133 708,133 708,133 708,132 708,132 708,132 708,132 708,132 708,132 708,132 709,132 709,132 709,132 709,132 709,132 709,132 709,132 709,132 709,132 709,132 709,132 709,133 709,133 710,133 710,133 710,133 710,133 710,133 710,133 710,133 710,133 710,134 710,134 710,134 710,134 710,134 711,134 711,134 711,134 711,134 711,134 711,134 711,134 711,134 711,135 711,135 711,135 711,136 711,136 712,135 712,135 712,135 712,135 712,135 712,135 712,135 712,135 712,135 712,136 712,136 712,136 712,136 713,136 713,136 713,136 713,136 713,136 713,136 713,136 713,136 713,136 713,136 713,136 713,136 713,136 714,136 714,136 714,136 714,136 714,136 714,136 714,136 714,136 714,135 714,135 714,135 714,135 714,135 715,135 715,135 715,135 715,135 715,135 715,135 715,135 715,135 715,135 715,135 715,135 715,135 715,135 716,135 716,135 716,135 716,135 716,135 716,135 716,135 716,135 716,135 716,135 716,134 716,134 716,134 717,134 717,134 717,133 717,133 717,134 717,134 717,134 717,134 717,134 717,133 717,133 717,133 717,133 718,133 718,133 718,133 718,133 718,133 718,133 718,133 718,133 718,133 718,132 718,132 718,132 718,132 719,132 719,132 719,132 719,132 719,132 719,132 719,132 719,132 719,132 719,132 719,132 719,132 719,132 720,132 720,131 720,131 720,131 720,131 720,131 720,131 720,131 720,131 720,131 720,131 720,131 720,131 721,131 721,131 721,131 721,130 721,130 721,130 721,130 721,130 721,130 721,130 721,130 721,130 721,130 722,130 722,130 722,130 722,130 722,130 722,130 722,130 722,130 722,129 722,129 722,129 722,129 722,129 723,129 723,129 723,129 723,129 723,129 723,129 723,128 723,128 723,128 723,128 723,128 723,128 723,128 724,128 724,128 724,128 724,128 724,128 724,127 724,127 724,127 724,127 724,127 724,127 724,127 724,127 725,127 725,126 725,126 725,126 725,126 725,126 725,126 725,126 725,126 725,126 725,126 725,126 725,126 726,126 726,126 726,126 726,126 726,126 726,126 726,126 726,126 726,125 726,125 726,125 726,125 726,125 727,125 727,125 727,125 727,125 727,125 727,125 727,125 727,125 727,125 727,125 727,125 727,124 727,124 728,124 728,124 728,124 728,124 728,124 728,124 728,124 728,124 728,124 728,124 728,124 728,124 728,124 729,124 729,124 729,124 729,124 729,124 729,124 729,123 729,124 729,123 729,123 729,124 729,124 729,124 730,125 730,125 730,124 730,124 730,124 730,124 730,123 730,123 730,123 730,123 730,123 730,124 730,124 730,124 731,124 731,124 731,124 731,124 731,124 731,124 731,124 731,124 731,124 731,124 731,124 731,124 731,124 732,124 732,124 732,124 732,124 732,123 732,123 732,123 732,123 732,123 732,123 732,123 732,123 732,123 733,123 733,123 733,123 733,123 733,123 733,123 733,123 733,123 733,123 733,123 733,124 733,124 733,124 734,124 734,124 734,124 734,124 734,125 734,125 734,125 734,125 734,125 734,126 734,126 734,126 734,126 735,127 735,127 735,127 735,127 735,127 735,128 735,128 735,128 735,128 735,129 735,129 735,129 735,129 736,129 736,128 736,127 736,126 736,125 736,124 736,124 736,123 736,123 736,122 736,122 " vector-effect="non-scaling-stroke"></polyline>
</g></svg>