<!-- Generator: Adobe Illustrator 19.2.0, SVG Export Plug-In  -->
<!DOCTYPE svg PUBLIC "-//W3C//DTD SVG 1.1//EN" "http://www.w3.org/Graphics/SVG/1.1/DTD/svg11.dtd" [
	<!ENTITY ns_flows "http://ns.adobe.com/Flows/1.0/">
	<!ENTITY st0 "fill:none;stroke:#FFFFFF;stroke-linecap:square;stroke-linejoin:bevel;stroke-dasharray:1,2;">
	<!ENTITY st1 "fill:#624949;">
]>
<svg version="1.1"
	 xmlns="http://www.w3.org/2000/svg" xmlns:xlink="http://www.w3.org/1999/xlink" xmlns:a="http://ns.adobe.com/AdobeSVGViewerExtensions/3.0/"
	 x="0px" y="0px" width="759px" height="380px" preserveAspectRatio="none" viewBox="0 0 759 380" style="enable-background:new 0 0 759 380;"
	 xml:space="preserve">
<defs>
</defs>
<g transform="matrix(1,0,0,1,0,0)">
	<line vector-effect="non-scaling-stroke" style="&st0;" x1="0.5" y1="0.5" x2="0.5" y2="379.5"/>
	<line vector-effect="non-scaling-stroke" style="&st0;" x1="95.5" y1="0.5" x2="95.5" y2="379.5"/>
	<line vector-effect="non-scaling-stroke" style="&st0;" x1="190.5" y1="0.5" x2="190.5" y2="379.5"/>
	<line vector-effect="non-scaling-stroke" style="&st0;" x1="284.5" y1="0.5" x2="284.5" y2="379.5"/>
	<line vector-effect="non-scaling-stroke" style="&st0;" x1="379.5" y1="0.5" x2="379.5" y2="379.5"/>
	<line vector-effect="non-scaling-stroke" style="&st0;" x1="474.5" y1="0.5" x2="474.5" y2="379.5"/>
	<line vector-effect="non-scaling-stroke" style="&st0;" x1="569.5" y1="0.5" x2="569.5" y2="379.5"/>
	<line vector-effect="non-scaling-stroke" style="&st0;" x1="663.5" y1="0.5" x2="663.5" y2="379.5"/>
	<line vector-effect="non-scaling-stroke" style="&st0;" x1="758.5" y1="0.5" x2="758.5" y2="379.5"/>
	<line vector-effect="non-scaling-stroke" style="&st0;" x1="0.5" y1="379.5" x2="758.5" y2="379.5"/>
	<line vector-effect="non-scaling-stroke" style="&st0;" x1="0.5" y1="325.5" x2="758.5" y2="325.5"/>
	<line vector-effect="non-scaling-stroke" style="&st0;" x1="0.5" y1="270.5" x2="758.5" y2="270.5"/>
	<line vector-effect="non-scaling-stroke" style="&st0;" x1="0.5" y1="216.5" x2="758.5" y2="216.5"/>
	<line vector-effect="non-scaling-stroke" style="&st0;" x1="0.5" y1="162.5" x2="758.5" y2="162.5"/>
	<line vector-effect="non-scaling-stroke" style="&st0;" x1="0.5" y1="108.5" x2="758.5" y2="108.5"/>
	<line vector-effect="non-scaling-stroke" style="&st0;" x1="0.5" y1="53.5" x2="758.5" y2="53.5"/>
</g>
<g transform="matrix(1,0,0,1,0,0)">
	<polyline vector-effect="non-scaling-stroke" style="&st1;" points="709.5,379.5 120.5,379.5 120.5,350.5 120.5,350.5 120.5,350.5 
		120.5,350.5 120.5,350.5 120.5,351.5 120.5,351.5 121.5,351.5 121.5,351.5 121.5,351.5 121.5,351.5 121.5,351.5 121.5,351.5 
		121.5,351.5 121.5,351.5 121.5,351.5 121.5,351.5 121.5,351.5 121.5,351.5 121.5,351.5 122.5,351.5 122.5,351.5 122.5,351.5 
		122.5,351.5 122.5,350.5 122.5,350.5 122.5,350.5 122.5,350.5 122.5,350.5 122.5,350.5 122.5,349.5 122.5,349.5 122.5,349.5 
		123.5,349.5 123.5,349.5 123.5,349.5 123.5,349.5 123.5,349.5 123.5,349.5 123.5,350.5 123.5,350.5 123.5,350.5 123.5,350.5 
		123.5,350.5 123.5,350.5 123.5,351.5 124.5,351.5 124.5,351.5 124.5,351.5 124.5,351.5 124.5,351.5 124.5,351.5 124.5,351.5 
		124.5,351.5 124.5,351.5 124.5,351.5 124.5,351.5 124.5,351.5 124.5,351.5 125.5,351.5 125.5,351.5 125.5,351.5 125.5,351.5 
		125.5,351.5 125.5,351.5 125.5,351.5 125.5,351.5 125.5,350.5 125.5,350.5 125.5,350.5 125.5,350.5 125.5,350.5 126.5,350.5 
		126.5,350.5 126.5,350.5 126.5,350.5 126.5,350.5 126.5,350.5 126.5,350.5 126.5,350.5 126.5,350.5 126.5,350.5 126.5,350.5 
		126.5,350.5 126.5,350.5 127.5,350.5 127.5,350.5 127.5,350.5 127.5,350.5 127.5,350.5 127.5,350.5 127.5,350.5 127.5,350.5 
		127.5,350.5 127.5,350.5 127.5,350.5 127.5,350.5 127.5,350.5 128.5,350.5 128.5,350.5 128.5,351.5 128.5,351.5 128.5,351.5 
		128.5,351.5 128.5,351.5 128.5,351.5 128.5,351.5 128.5,351.5 128.5,351.5 128.5,351.5 128.5,351.5 129.5,351.5 129.5,351.5 
		129.5,350.5 129.5,350.5 129.5,350.5 129.5,350.5 129.5,350.5 129.5,350.5 129.5,350.5 129.5,350.5 129.5,349.5 129.5,349.5 
		129.5,349.5 130.5,349.5 130.5,349.5 130.5,349.5 130.5,349.5 130.5,349.5 130.5,348.5 130.5,348.5 130.5,348.5 130.5,348.5 
		130.5,348.5 130.5,348.5 130.5,348.5 130.5,348.5 131.5,348.5 131.5,348.5 131.5,348.5 131.5,348.5 131.5,348.5 131.5,348.5 
		131.5,348.5 131.5,348.5 131.5,348.5 131.5,348.5 131.5,348.5 131.5,348.5 131.5,348.5 132.5,348.5 132.5,348.5 132.5,348.5 
		132.5,348.5 132.5,348.5 132.5,348.5 132.5,348.5 132.5,348.5 132.5,348.5 132.5,348.5 132.5,348.5 132.5,348.5 132.5,348.5 
		133.5,348.5 133.5,348.5 133.5,348.5 133.5,348.5 133.5,347.5 133.5,347.5 133.5,347.5 133.5,347.5 133.5,347.5 133.5,347.5 
		133.5,347.5 133.5,347.5 133.5,347.5 134.5,347.5 134.5,347.5 134.5,347.5 134.5,347.5 134.5,347.5 134.5,347.5 134.5,347.5 
		134.5,347.5 134.5,347.5 134.5,347.5 134.5,347.5 134.5,347.5 134.5,347.5 135.5,347.5 135.5,347.5 135.5,347.5 135.5,347.5 
		135.5,347.5 135.5,347.5 135.5,348.5 135.5,348.5 135.5,348.5 135.5,348.5 135.5,348.5 135.5,348.5 135.5,348.5 136.5,348.5 
		136.5,348.5 136.5,348.5 136.5,348.5 136.5,348.5 136.5,348.5 136.5,348.5 136.5,348.5 136.5,348.5 136.5,348.5 136.5,348.5 
		136.5,348.5 136.5,347.5 137.5,347.5 137.5,347.5 137.5,347.5 137.5,347.5 137.5,347.5 137.5,347.5 137.5,347.5 137.5,347.5 
		137.5,347.5 137.5,347.5 137.5,347.5 137.5,347.5 137.5,347.5 138.5,347.5 138.5,347.5 138.5,347.5 138.5,346.5 138.5,346.5 
		138.5,346.5 138.5,346.5 138.5,346.5 138.5,346.5 138.5,346.5 138.5,346.5 138.5,346.5 138.5,346.5 139.5,346.5 139.5,346.5 
		139.5,345.5 139.5,345.5 139.5,345.5 139.5,345.5 139.5,345.5 139.5,345.5 139.5,345.5 139.5,345.5 139.5,345.5 139.5,345.5 
		139.5,346.5 140.5,346.5 140.5,346.5 140.5,346.5 140.5,346.5 140.5,346.5 140.5,346.5 140.5,347.5 140.5,347.5 140.5,347.5 
		140.5,347.5 140.5,347.5 140.5,347.5 140.5,347.5 141.5,347.5 141.5,347.5 141.5,347.5 141.5,347.5 141.5,347.5 141.5,347.5 
		141.5,347.5 141.5,347.5 141.5,347.5 141.5,347.5 141.5,347.5 141.5,347.5 141.5,347.5 141.5,347.5 142.5,347.5 142.5,347.5 
		142.5,347.5 142.5,347.5 142.5,347.5 142.5,346.5 142.5,346.5 142.5,346.5 142.5,346.5 142.5,346.5 142.5,346.5 142.5,346.5 
		142.5,346.5 143.5,346.5 143.5,346.5 143.5,346.5 143.5,345.5 143.5,345.5 143.5,346.5 143.5,346.5 143.5,346.5 143.5,347.5 
		143.5,347.5 143.5,347.5 143.5,347.5 143.5,347.5 144.5,347.5 144.5,347.5 144.5,346.5 144.5,346.5 144.5,346.5 144.5,346.5 
		144.5,346.5 144.5,346.5 144.5,346.5 144.5,346.5 144.5,346.5 144.5,346.5 144.5,346.5 145.5,346.5 145.5,346.5 145.5,346.5 
		145.5,345.5 145.5,345.5 145.5,345.5 145.5,345.5 145.5,345.5 145.5,345.5 145.5,345.5 145.5,345.5 145.5,345.5 145.5,344.5 
		146.5,344.5 146.5,344.5 146.5,344.5 146.5,344.5 146.5,344.5 146.5,344.5 146.5,344.5 146.5,344.5 146.5,344.5 146.5,344.5 
		146.5,344.5 146.5,344.5 146.5,344.5 147.5,344.5 147.5,344.5 147.5,344.5 147.5,344.5 147.5,344.5 147.5,344.5 147.5,344.5 
		147.5,343.5 147.5,343.5 147.5,342.5 147.5,342.5 147.5,342.5 147.5,341.5 148.5,341.5 148.5,340.5 148.5,340.5 148.5,340.5 
		148.5,340.5 148.5,340.5 148.5,339.5 148.5,339.5 148.5,339.5 148.5,339.5 148.5,339.5 148.5,338.5 148.5,338.5 149.5,338.5 
		149.5,338.5 149.5,338.5 149.5,337.5 149.5,337.5 149.5,337.5 149.5,337.5 149.5,337.5 149.5,336.5 149.5,336.5 149.5,336.5 
		149.5,336.5 149.5,336.5 150.5,335.5 150.5,335.5 150.5,335.5 150.5,335.5 150.5,335.5 150.5,334.5 150.5,334.5 150.5,334.5 
		150.5,334.5 150.5,334.5 150.5,333.5 150.5,333.5 150.5,333.5 151.5,333.5 151.5,333.5 151.5,332.5 151.5,332.5 151.5,332.5 
		151.5,332.5 151.5,332.5 151.5,331.5 151.5,331.5 151.5,331.5 151.5,331.5 151.5,331.5 151.5,330.5 152.5,330.5 152.5,330.5 
		152.5,330.5 152.5,330.5 152.5,329.5 152.5,329.5 152.5,329.5 152.5,329.5 152.5,329.5 152.5,328.5 152.5,328.5 152.5,328.5 
		152.5,328.5 153.5,327.5 153.5,327.5 153.5,327.5 153.5,327.5 153.5,327.5 153.5,326.5 153.5,326.5 153.5,326.5 153.5,326.5 
		153.5,326.5 153.5,325.5 153.5,325.5 153.5,325.5 154.5,325.5 154.5,325.5 154.5,324.5 154.5,324.5 154.5,324.5 154.5,324.5 
		154.5,324.5 154.5,323.5 154.5,323.5 154.5,323.5 154.5,323.5 154.5,323.5 154.5,322.5 155.5,322.5 155.5,322.5 155.5,322.5 
		155.5,322.5 155.5,321.5 155.5,321.5 155.5,321.5 155.5,321.5 155.5,321.5 155.5,320.5 155.5,320.5 155.5,320.5 155.5,320.5 
		156.5,320.5 156.5,319.5 156.5,319.5 156.5,319.5 156.5,319.5 156.5,319.5 156.5,318.5 156.5,318.5 156.5,318.5 156.5,318.5 
		156.5,318.5 156.5,317.5 156.5,317.5 157.5,317.5 157.5,317.5 157.5,317.5 157.5,317.5 157.5,317.5 157.5,316.5 157.5,317.5 
		157.5,317.5 157.5,317.5 157.5,317.5 157.5,317.5 157.5,317.5 157.5,317.5 158.5,317.5 158.5,317.5 158.5,317.5 158.5,318.5 
		158.5,318.5 158.5,318.5 158.5,318.5 158.5,318.5 158.5,318.5 158.5,319.5 158.5,319.5 158.5,319.5 158.5,319.5 159.5,319.5 
		159.5,319.5 159.5,319.5 159.5,319.5 159.5,319.5 159.5,319.5 159.5,320.5 159.5,320.5 159.5,320.5 159.5,320.5 159.5,320.5 
		159.5,320.5 159.5,320.5 160.5,320.5 160.5,320.5 160.5,321.5 160.5,321.5 160.5,321.5 160.5,321.5 160.5,321.5 160.5,321.5 
		160.5,321.5 160.5,321.5 160.5,321.5 160.5,321.5 160.5,322.5 161.5,322.5 161.5,322.5 161.5,322.5 161.5,322.5 161.5,322.5 
		161.5,322.5 161.5,322.5 161.5,322.5 161.5,323.5 161.5,323.5 161.5,323.5 161.5,323.5 161.5,323.5 162.5,323.5 162.5,323.5 
		162.5,324.5 162.5,324.5 162.5,324.5 162.5,324.5 162.5,324.5 162.5,324.5 162.5,324.5 162.5,324.5 162.5,325.5 162.5,325.5 
		162.5,325.5 163.5,325.5 163.5,325.5 163.5,325.5 163.5,325.5 163.5,325.5 163.5,325.5 163.5,325.5 163.5,326.5 163.5,326.5 
		163.5,326.5 163.5,326.5 163.5,326.5 163.5,326.5 164.5,326.5 164.5,326.5 164.5,326.5 164.5,326.5 164.5,326.5 164.5,326.5 
		164.5,326.5 164.5,326.5 164.5,327.5 164.5,327.5 164.5,327.5 164.5,327.5 164.5,328.5 165.5,328.5 165.5,328.5 165.5,329.5 
		165.5,329.5 165.5,329.5 165.5,328.5 165.5,328.5 165.5,327.5 165.5,327.5 165.5,326.5 165.5,326.5 165.5,325.5 165.5,325.5 
		166.5,325.5 166.5,324.5 166.5,324.5 166.5,323.5 166.5,323.5 166.5,322.5 166.5,322.5 166.5,321.5 166.5,320.5 166.5,320.5 
		166.5,319.5 166.5,319.5 166.5,319.5 167.5,318.5 167.5,318.5 167.5,317.5 167.5,317.5 167.5,317.5 167.5,318.5 167.5,317.5 
		167.5,317.5 167.5,317.5 167.5,317.5 167.5,317.5 167.5,317.5 167.5,317.5 168.5,318.5 168.5,318.5 168.5,318.5 168.5,318.5 
		168.5,319.5 168.5,319.5 168.5,320.5 168.5,321.5 168.5,322.5 168.5,323.5 168.5,323.5 168.5,324.5 168.5,324.5 169.5,324.5 
		169.5,324.5 169.5,325.5 169.5,325.5 169.5,325.5 169.5,325.5 169.5,325.5 169.5,325.5 169.5,325.5 169.5,325.5 169.5,325.5 
		169.5,325.5 169.5,325.5 170.5,325.5 170.5,324.5 170.5,323.5 170.5,323.5 170.5,322.5 170.5,321.5 170.5,320.5 170.5,320.5 
		170.5,320.5 170.5,319.5 170.5,319.5 170.5,319.5 170.5,319.5 171.5,319.5 171.5,319.5 171.5,319.5 171.5,319.5 171.5,319.5 
		171.5,319.5 171.5,319.5 171.5,320.5 171.5,320.5 171.5,321.5 171.5,321.5 171.5,322.5 171.5,322.5 172.5,323.5 172.5,323.5 
		172.5,324.5 172.5,324.5 172.5,324.5 172.5,325.5 172.5,326.5 172.5,327.5 172.5,327.5 172.5,328.5 172.5,329.5 172.5,330.5 
		172.5,331.5 173.5,331.5 173.5,332.5 173.5,333.5 173.5,334.5 173.5,335.5 173.5,335.5 173.5,336.5 173.5,336.5 173.5,337.5 
		173.5,338.5 173.5,338.5 173.5,339.5 173.5,339.5 174.5,340.5 174.5,340.5 174.5,340.5 174.5,340.5 174.5,340.5 174.5,340.5 
		174.5,340.5 174.5,340.5 174.5,340.5 174.5,340.5 174.5,340.5 174.5,339.5 174.5,339.5 175.5,339.5 175.5,339.5 175.5,339.5 
		175.5,339.5 175.5,339.5 175.5,339.5 175.5,339.5 175.5,338.5 175.5,338.5 175.5,337.5 175.5,337.5 175.5,336.5 175.5,336.5 
		176.5,335.5 176.5,335.5 176.5,335.5 176.5,335.5 176.5,335.5 176.5,335.5 176.5,334.5 176.5,334.5 176.5,334.5 176.5,334.5 
		176.5,333.5 176.5,333.5 176.5,332.5 177.5,332.5 177.5,331.5 177.5,330.5 177.5,330.5 177.5,329.5 177.5,328.5 177.5,327.5 
		177.5,326.5 177.5,325.5 177.5,324.5 177.5,323.5 177.5,321.5 177.5,321.5 178.5,320.5 178.5,320.5 178.5,319.5 178.5,319.5 
		178.5,318.5 178.5,317.5 178.5,317.5 178.5,316.5 178.5,316.5 178.5,315.5 178.5,315.5 178.5,315.5 178.5,314.5 179.5,314.5 
		179.5,314.5 179.5,314.5 179.5,314.5 179.5,313.5 179.5,313.5 179.5,313.5 179.5,313.5 179.5,312.5 179.5,312.5 179.5,312.5 
		179.5,312.5 179.5,311.5 180.5,311.5 180.5,311.5 180.5,311.5 180.5,310.5 180.5,310.5 180.5,310.5 180.5,310.5 180.5,310.5 
		180.5,309.5 180.5,309.5 180.5,309.5 180.5,309.5 180.5,309.5 181.5,310.5 181.5,310.5 181.5,310.5 181.5,310.5 181.5,311.5 
		181.5,311.5 181.5,312.5 181.5,312.5 181.5,312.5 181.5,313.5 181.5,313.5 181.5,314.5 181.5,314.5 182.5,314.5 182.5,315.5 
		182.5,315.5 182.5,315.5 182.5,315.5 182.5,315.5 182.5,315.5 182.5,315.5 182.5,315.5 182.5,315.5 182.5,315.5 182.5,315.5 
		182.5,315.5 183.5,316.5 183.5,316.5 183.5,316.5 183.5,317.5 183.5,317.5 183.5,318.5 183.5,319.5 183.5,321.5 183.5,322.5 
		183.5,323.5 183.5,324.5 183.5,325.5 183.5,326.5 184.5,327.5 184.5,329.5 184.5,330.5 184.5,331.5 184.5,331.5 184.5,332.5 
		184.5,331.5 184.5,331.5 184.5,330.5 184.5,330.5 184.5,328.5 184.5,327.5 184.5,326.5 185.5,325.5 185.5,324.5 185.5,323.5 
		185.5,322.5 185.5,321.5 185.5,320.5 185.5,318.5 185.5,317.5 185.5,316.5 185.5,315.5 185.5,314.5 185.5,313.5 185.5,312.5 
		186.5,310.5 186.5,309.5 186.5,307.5 186.5,307.5 186.5,307.5 186.5,306.5 186.5,306.5 186.5,305.5 186.5,305.5 186.5,305.5 
		186.5,305.5 186.5,305.5 186.5,305.5 187.5,304.5 187.5,305.5 187.5,305.5 187.5,305.5 187.5,305.5 187.5,305.5 187.5,305.5 
		187.5,305.5 187.5,304.5 187.5,304.5 187.5,304.5 187.5,305.5 187.5,305.5 188.5,306.5 188.5,306.5 188.5,307.5 188.5,307.5 
		188.5,308.5 188.5,309.5 188.5,309.5 188.5,310.5 188.5,310.5 188.5,311.5 188.5,311.5 188.5,312.5 188.5,313.5 189.5,313.5 
		189.5,314.5 189.5,315.5 189.5,316.5 189.5,317.5 189.5,318.5 189.5,319.5 189.5,321.5 189.5,321.5 189.5,322.5 189.5,322.5 
		189.5,323.5 189.5,323.5 190.5,324.5 190.5,324.5 190.5,325.5 190.5,325.5 190.5,326.5 190.5,326.5 190.5,327.5 190.5,327.5 
		190.5,328.5 190.5,329.5 190.5,329.5 190.5,330.5 190.5,330.5 191.5,330.5 191.5,330.5 191.5,330.5 191.5,330.5 191.5,330.5 
		191.5,331.5 191.5,331.5 191.5,331.5 191.5,330.5 191.5,330.5 191.5,330.5 191.5,330.5 191.5,330.5 192.5,330.5 192.5,331.5 
		192.5,331.5 192.5,331.5 192.5,331.5 192.5,331.5 192.5,330.5 192.5,330.5 192.5,330.5 192.5,330.5 192.5,330.5 192.5,330.5 
		192.5,330.5 193.5,330.5 193.5,330.5 193.5,330.5 193.5,330.5 193.5,330.5 193.5,330.5 193.5,329.5 193.5,329.5 193.5,329.5 
		193.5,329.5 193.5,330.5 193.5,330.5 193.5,330.5 194.5,330.5 194.5,330.5 194.5,329.5 194.5,329.5 194.5,329.5 194.5,329.5 
		194.5,329.5 194.5,329.5 194.5,329.5 194.5,329.5 194.5,329.5 194.5,329.5 194.5,328.5 195.5,328.5 195.5,327.5 195.5,327.5 
		195.5,327.5 195.5,328.5 195.5,327.5 195.5,327.5 195.5,327.5 195.5,327.5 195.5,328.5 195.5,328.5 195.5,328.5 195.5,328.5 
		196.5,328.5 196.5,328.5 196.5,327.5 196.5,326.5 196.5,326.5 196.5,326.5 196.5,326.5 196.5,326.5 196.5,325.5 196.5,325.5 
		196.5,325.5 196.5,325.5 196.5,324.5 197.5,324.5 197.5,324.5 197.5,324.5 197.5,324.5 197.5,324.5 197.5,324.5 197.5,323.5 
		197.5,323.5 197.5,323.5 197.5,323.5 197.5,323.5 197.5,323.5 197.5,323.5 197.5,323.5 198.5,323.5 198.5,322.5 198.5,322.5 
		198.5,322.5 198.5,322.5 198.5,321.5 198.5,321.5 198.5,321.5 198.5,321.5 198.5,320.5 198.5,320.5 198.5,320.5 198.5,321.5 
		199.5,321.5 199.5,322.5 199.5,322.5 199.5,322.5 199.5,322.5 199.5,322.5 199.5,322.5 199.5,323.5 199.5,323.5 199.5,324.5 
		199.5,324.5 199.5,324.5 199.5,324.5 200.5,324.5 200.5,323.5 200.5,322.5 200.5,321.5 200.5,320.5 200.5,319.5 200.5,319.5 
		200.5,318.5 200.5,317.5 200.5,316.5 200.5,316.5 200.5,315.5 200.5,314.5 201.5,314.5 201.5,313.5 201.5,312.5 201.5,312.5 
		201.5,311.5 201.5,309.5 201.5,308.5 201.5,307.5 201.5,306.5 201.5,305.5 201.5,304.5 201.5,303.5 201.5,303.5 202.5,303.5 
		202.5,303.5 202.5,303.5 202.5,303.5 202.5,303.5 202.5,303.5 202.5,303.5 202.5,303.5 202.5,303.5 202.5,302.5 202.5,303.5 
		202.5,303.5 202.5,303.5 203.5,303.5 203.5,302.5 203.5,302.5 203.5,302.5 203.5,302.5 203.5,302.5 203.5,302.5 203.5,302.5 
		203.5,302.5 203.5,302.5 203.5,301.5 203.5,301.5 203.5,301.5 204.5,301.5 204.5,301.5 204.5,300.5 204.5,300.5 204.5,300.5 
		204.5,300.5 204.5,300.5 204.5,300.5 204.5,300.5 204.5,300.5 204.5,299.5 204.5,299.5 204.5,299.5 205.5,299.5 205.5,299.5 
		205.5,299.5 205.5,299.5 205.5,299.5 205.5,299.5 205.5,299.5 205.5,299.5 205.5,298.5 205.5,298.5 205.5,298.5 205.5,297.5 
		205.5,297.5 206.5,296.5 206.5,296.5 206.5,295.5 206.5,295.5 206.5,294.5 206.5,294.5 206.5,293.5 206.5,293.5 206.5,293.5 
		206.5,292.5 206.5,292.5 206.5,291.5 206.5,291.5 207.5,291.5 207.5,290.5 207.5,290.5 207.5,290.5 207.5,290.5 207.5,290.5 
		207.5,290.5 207.5,290.5 207.5,290.5 207.5,290.5 207.5,290.5 207.5,290.5 207.5,290.5 208.5,290.5 208.5,290.5 208.5,290.5 
		208.5,291.5 208.5,291.5 208.5,291.5 208.5,291.5 208.5,291.5 208.5,291.5 208.5,290.5 208.5,290.5 208.5,289.5 208.5,289.5 
		209.5,288.5 209.5,287.5 209.5,287.5 209.5,287.5 209.5,287.5 209.5,286.5 209.5,286.5 209.5,286.5 209.5,285.5 209.5,285.5 
		209.5,285.5 209.5,284.5 209.5,284.5 210.5,284.5 210.5,283.5 210.5,283.5 210.5,283.5 210.5,282.5 210.5,282.5 210.5,282.5 
		210.5,282.5 210.5,281.5 210.5,281.5 210.5,281.5 210.5,280.5 210.5,280.5 211.5,279.5 211.5,279.5 211.5,279.5 211.5,279.5 
		211.5,279.5 211.5,279.5 211.5,279.5 211.5,279.5 211.5,279.5 211.5,279.5 211.5,279.5 211.5,280.5 211.5,280.5 212.5,281.5 
		212.5,281.5 212.5,281.5 212.5,282.5 212.5,282.5 212.5,283.5 212.5,283.5 212.5,283.5 212.5,284.5 212.5,284.5 212.5,284.5 
		212.5,284.5 212.5,284.5 213.5,283.5 213.5,283.5 213.5,283.5 213.5,283.5 213.5,283.5 213.5,284.5 213.5,284.5 213.5,285.5 
		213.5,285.5 213.5,285.5 213.5,286.5 213.5,286.5 213.5,287.5 214.5,287.5 214.5,288.5 214.5,288.5 214.5,288.5 214.5,288.5 
		214.5,289.5 214.5,289.5 214.5,288.5 214.5,288.5 214.5,288.5 214.5,288.5 214.5,287.5 214.5,286.5 215.5,286.5 215.5,285.5 
		215.5,285.5 215.5,285.5 215.5,284.5 215.5,284.5 215.5,284.5 215.5,284.5 215.5,284.5 215.5,284.5 215.5,284.5 215.5,284.5 
		215.5,283.5 216.5,284.5 216.5,284.5 216.5,284.5 216.5,285.5 216.5,285.5 216.5,286.5 216.5,287.5 216.5,287.5 216.5,288.5 
		216.5,289.5 216.5,290.5 216.5,290.5 216.5,291.5 217.5,292.5 217.5,292.5 217.5,293.5 217.5,293.5 217.5,293.5 217.5,294.5 
		217.5,294.5 217.5,294.5 217.5,295.5 217.5,295.5 217.5,295.5 217.5,295.5 217.5,294.5 218.5,294.5 218.5,294.5 218.5,293.5 
		218.5,292.5 218.5,292.5 218.5,291.5 218.5,290.5 218.5,290.5 218.5,289.5 218.5,288.5 218.5,287.5 218.5,287.5 218.5,286.5 
		219.5,285.5 219.5,284.5 219.5,284.5 219.5,283.5 219.5,282.5 219.5,282.5 219.5,281.5 219.5,280.5 219.5,280.5 219.5,279.5 
		219.5,278.5 219.5,278.5 219.5,277.5 220.5,276.5 220.5,276.5 220.5,275.5 220.5,275.5 220.5,274.5 220.5,273.5 220.5,273.5 
		220.5,272.5 220.5,272.5 220.5,271.5 220.5,270.5 220.5,270.5 220.5,269.5 221.5,269.5 221.5,268.5 221.5,268.5 221.5,267.5 
		221.5,267.5 221.5,267.5 221.5,267.5 221.5,267.5 221.5,267.5 221.5,267.5 221.5,267.5 221.5,267.5 221.5,266.5 222.5,266.5 
		222.5,266.5 222.5,266.5 222.5,267.5 222.5,267.5 222.5,268.5 222.5,268.5 222.5,269.5 222.5,270.5 222.5,271.5 222.5,271.5 
		222.5,272.5 222.5,273.5 223.5,274.5 223.5,274.5 223.5,275.5 223.5,276.5 223.5,277.5 223.5,278.5 223.5,279.5 223.5,280.5 
		223.5,282.5 223.5,283.5 223.5,284.5 223.5,285.5 223.5,285.5 224.5,286.5 224.5,286.5 224.5,287.5 224.5,287.5 224.5,287.5 
		224.5,287.5 224.5,286.5 224.5,286.5 224.5,285.5 224.5,284.5 224.5,283.5 224.5,282.5 224.5,281.5 225.5,280.5 225.5,279.5 
		225.5,278.5 225.5,277.5 225.5,276.5 225.5,275.5 225.5,274.5 225.5,273.5 225.5,273.5 225.5,273.5 225.5,273.5 225.5,273.5 
		225.5,273.5 226.5,273.5 226.5,273.5 226.5,273.5 226.5,273.5 226.5,273.5 226.5,273.5 226.5,273.5 226.5,272.5 226.5,272.5 
		226.5,272.5 226.5,272.5 226.5,272.5 226.5,272.5 227.5,272.5 227.5,272.5 227.5,272.5 227.5,272.5 227.5,271.5 227.5,271.5 
		227.5,272.5 227.5,272.5 227.5,273.5 227.5,275.5 227.5,276.5 227.5,278.5 227.5,279.5 228.5,280.5 228.5,282.5 228.5,283.5 
		228.5,284.5 228.5,285.5 228.5,286.5 228.5,287.5 228.5,288.5 228.5,289.5 228.5,289.5 228.5,290.5 228.5,290.5 228.5,291.5 
		229.5,291.5 229.5,292.5 229.5,292.5 229.5,292.5 229.5,293.5 229.5,294.5 229.5,295.5 229.5,295.5 229.5,296.5 229.5,297.5 
		229.5,298.5 229.5,298.5 229.5,298.5 230.5,299.5 230.5,299.5 230.5,299.5 230.5,299.5 230.5,299.5 230.5,299.5 230.5,299.5 
		230.5,300.5 230.5,300.5 230.5,300.5 230.5,300.5 230.5,300.5 230.5,300.5 231.5,300.5 231.5,300.5 231.5,300.5 231.5,300.5 
		231.5,300.5 231.5,301.5 231.5,301.5 231.5,301.5 231.5,302.5 231.5,302.5 231.5,302.5 231.5,302.5 231.5,302.5 232.5,302.5 
		232.5,301.5 232.5,301.5 232.5,300.5 232.5,300.5 232.5,300.5 232.5,299.5 232.5,299.5 232.5,298.5 232.5,298.5 232.5,298.5 
		232.5,298.5 232.5,297.5 233.5,297.5 233.5,297.5 233.5,297.5 233.5,297.5 233.5,296.5 233.5,296.5 233.5,296.5 233.5,296.5 
		233.5,296.5 233.5,296.5 233.5,296.5 233.5,295.5 233.5,295.5 234.5,295.5 234.5,294.5 234.5,294.5 234.5,294.5 234.5,294.5 
		234.5,294.5 234.5,293.5 234.5,293.5 234.5,293.5 234.5,293.5 234.5,292.5 234.5,292.5 234.5,292.5 235.5,291.5 235.5,291.5 
		235.5,290.5 235.5,290.5 235.5,290.5 235.5,289.5 235.5,289.5 235.5,289.5 235.5,288.5 235.5,288.5 235.5,287.5 235.5,287.5 
		235.5,286.5 236.5,286.5 236.5,286.5 236.5,285.5 236.5,285.5 236.5,285.5 236.5,284.5 236.5,284.5 236.5,284.5 236.5,283.5 
		236.5,282.5 236.5,281.5 236.5,282.5 236.5,281.5 237.5,280.5 237.5,280.5 237.5,279.5 237.5,278.5 237.5,277.5 237.5,277.5 
		237.5,276.5 237.5,275.5 237.5,275.5 237.5,274.5 237.5,273.5 237.5,273.5 237.5,272.5 238.5,271.5 238.5,270.5 238.5,269.5 
		238.5,268.5 238.5,267.5 238.5,267.5 238.5,266.5 238.5,265.5 238.5,265.5 238.5,264.5 238.5,263.5 238.5,263.5 238.5,262.5 
		239.5,262.5 239.5,261.5 239.5,261.5 239.5,260.5 239.5,259.5 239.5,259.5 239.5,258.5 239.5,258.5 239.5,257.5 239.5,256.5 
		239.5,256.5 239.5,255.5 239.5,255.5 240.5,255.5 240.5,255.5 240.5,255.5 240.5,255.5 240.5,255.5 240.5,255.5 240.5,255.5 
		240.5,255.5 240.5,255.5 240.5,254.5 240.5,254.5 240.5,254.5 240.5,253.5 241.5,253.5 241.5,253.5 241.5,252.5 241.5,252.5 
		241.5,251.5 241.5,251.5 241.5,250.5 241.5,250.5 241.5,249.5 241.5,249.5 241.5,248.5 241.5,248.5 241.5,247.5 242.5,246.5 
		242.5,246.5 242.5,245.5 242.5,245.5 242.5,244.5 242.5,243.5 242.5,242.5 242.5,242.5 242.5,241.5 242.5,241.5 242.5,241.5 
		242.5,241.5 242.5,241.5 243.5,241.5 243.5,241.5 243.5,241.5 243.5,241.5 243.5,241.5 243.5,241.5 243.5,241.5 243.5,241.5 
		243.5,241.5 243.5,242.5 243.5,242.5 243.5,242.5 243.5,242.5 244.5,242.5 244.5,242.5 244.5,242.5 244.5,242.5 244.5,243.5 
		244.5,243.5 244.5,243.5 244.5,243.5 244.5,244.5 244.5,244.5 244.5,244.5 244.5,244.5 244.5,244.5 245.5,243.5 245.5,243.5 
		245.5,243.5 245.5,243.5 245.5,242.5 245.5,242.5 245.5,241.5 245.5,241.5 245.5,240.5 245.5,240.5 245.5,240.5 245.5,240.5 
		245.5,239.5 246.5,239.5 246.5,239.5 246.5,238.5 246.5,238.5 246.5,238.5 246.5,238.5 246.5,238.5 246.5,238.5 246.5,238.5 
		246.5,238.5 246.5,238.5 246.5,238.5 246.5,238.5 247.5,238.5 247.5,238.5 247.5,238.5 247.5,238.5 247.5,238.5 247.5,238.5 
		247.5,238.5 247.5,239.5 247.5,239.5 247.5,239.5 247.5,239.5 247.5,239.5 247.5,239.5 248.5,239.5 248.5,239.5 248.5,239.5 
		248.5,239.5 248.5,239.5 248.5,239.5 248.5,239.5 248.5,239.5 248.5,239.5 248.5,239.5 248.5,240.5 248.5,240.5 248.5,240.5 
		249.5,240.5 249.5,240.5 249.5,240.5 249.5,240.5 249.5,240.5 249.5,240.5 249.5,240.5 249.5,241.5 249.5,241.5 249.5,241.5 
		249.5,241.5 249.5,241.5 249.5,241.5 250.5,241.5 250.5,241.5 250.5,242.5 250.5,242.5 250.5,242.5 250.5,242.5 250.5,243.5 
		250.5,243.5 250.5,243.5 250.5,243.5 250.5,243.5 250.5,243.5 250.5,243.5 251.5,243.5 251.5,243.5 251.5,243.5 251.5,242.5 
		251.5,242.5 251.5,242.5 251.5,242.5 251.5,242.5 251.5,241.5 251.5,241.5 251.5,241.5 251.5,240.5 251.5,240.5 252.5,240.5 
		252.5,240.5 252.5,239.5 252.5,239.5 252.5,239.5 252.5,238.5 252.5,238.5 252.5,238.5 252.5,237.5 252.5,237.5 252.5,237.5 
		252.5,237.5 252.5,237.5 253.5,237.5 253.5,237.5 253.5,237.5 253.5,237.5 253.5,237.5 253.5,237.5 253.5,237.5 253.5,237.5 
		253.5,237.5 253.5,237.5 253.5,237.5 253.5,237.5 253.5,236.5 253.5,236.5 254.5,236.5 254.5,235.5 254.5,235.5 254.5,234.5 
		254.5,234.5 254.5,233.5 254.5,233.5 254.5,232.5 254.5,231.5 254.5,231.5 254.5,230.5 254.5,229.5 254.5,228.5 255.5,228.5 
		255.5,227.5 255.5,227.5 255.5,227.5 255.5,226.5 255.5,226.5 255.5,226.5 255.5,225.5 255.5,225.5 255.5,225.5 255.5,225.5 
		255.5,225.5 255.5,225.5 256.5,225.5 256.5,225.5 256.5,225.5 256.5,225.5 256.5,225.5 256.5,225.5 256.5,225.5 256.5,225.5 
		256.5,225.5 256.5,225.5 256.5,225.5 256.5,225.5 256.5,225.5 257.5,225.5 257.5,225.5 257.5,226.5 257.5,226.5 257.5,226.5 
		257.5,226.5 257.5,226.5 257.5,226.5 257.5,226.5 257.5,226.5 257.5,226.5 257.5,226.5 257.5,227.5 258.5,227.5 258.5,227.5 
		258.5,227.5 258.5,227.5 258.5,227.5 258.5,228.5 258.5,229.5 258.5,230.5 258.5,230.5 258.5,231.5 258.5,232.5 258.5,233.5 
		258.5,234.5 259.5,235.5 259.5,236.5 259.5,237.5 259.5,238.5 259.5,238.5 259.5,237.5 259.5,237.5 259.5,236.5 259.5,236.5 
		259.5,235.5 259.5,234.5 259.5,234.5 259.5,233.5 260.5,233.5 260.5,232.5 260.5,231.5 260.5,231.5 260.5,231.5 260.5,231.5 
		260.5,231.5 260.5,231.5 260.5,231.5 260.5,231.5 260.5,231.5 260.5,231.5 260.5,231.5 261.5,231.5 261.5,231.5 261.5,231.5 
		261.5,231.5 261.5,232.5 261.5,232.5 261.5,232.5 261.5,232.5 261.5,232.5 261.5,232.5 261.5,232.5 261.5,233.5 261.5,233.5 
		262.5,233.5 262.5,234.5 262.5,235.5 262.5,236.5 262.5,237.5 262.5,238.5 262.5,238.5 262.5,239.5 262.5,239.5 262.5,240.5 
		262.5,240.5 262.5,240.5 262.5,240.5 263.5,240.5 263.5,241.5 263.5,241.5 263.5,241.5 263.5,242.5 263.5,242.5 263.5,243.5 
		263.5,243.5 263.5,244.5 263.5,245.5 263.5,245.5 263.5,245.5 263.5,245.5 264.5,245.5 264.5,246.5 264.5,246.5 264.5,245.5 
		264.5,245.5 264.5,244.5 264.5,244.5 264.5,243.5 264.5,243.5 264.5,242.5 264.5,241.5 264.5,240.5 264.5,240.5 265.5,239.5 
		265.5,238.5 265.5,238.5 265.5,237.5 265.5,237.5 265.5,236.5 265.5,235.5 265.5,235.5 265.5,234.5 265.5,233.5 265.5,233.5 
		265.5,233.5 265.5,233.5 266.5,232.5 266.5,232.5 266.5,232.5 266.5,231.5 266.5,231.5 266.5,231.5 266.5,230.5 266.5,230.5 
		266.5,230.5 266.5,229.5 266.5,229.5 266.5,229.5 266.5,228.5 267.5,228.5 267.5,227.5 267.5,227.5 267.5,227.5 267.5,226.5 
		267.5,226.5 267.5,226.5 267.5,225.5 267.5,225.5 267.5,225.5 267.5,225.5 267.5,224.5 267.5,224.5 268.5,224.5 268.5,224.5 
		268.5,224.5 268.5,224.5 268.5,224.5 268.5,224.5 268.5,224.5 268.5,224.5 268.5,224.5 268.5,224.5 268.5,224.5 268.5,223.5 
		268.5,223.5 269.5,223.5 269.5,223.5 269.5,223.5 269.5,223.5 269.5,223.5 269.5,223.5 269.5,223.5 269.5,223.5 269.5,224.5 
		269.5,224.5 269.5,224.5 269.5,224.5 269.5,224.5 270.5,225.5 270.5,225.5 270.5,226.5 270.5,226.5 270.5,226.5 270.5,227.5 
		270.5,227.5 270.5,228.5 270.5,229.5 270.5,229.5 270.5,230.5 270.5,230.5 270.5,230.5 271.5,231.5 271.5,231.5 271.5,231.5 
		271.5,232.5 271.5,232.5 271.5,233.5 271.5,233.5 271.5,233.5 271.5,234.5 271.5,234.5 271.5,234.5 271.5,235.5 271.5,235.5 
		272.5,235.5 272.5,235.5 272.5,236.5 272.5,236.5 272.5,236.5 272.5,236.5 272.5,236.5 272.5,236.5 272.5,235.5 272.5,235.5 
		272.5,235.5 272.5,235.5 272.5,234.5 273.5,234.5 273.5,234.5 273.5,234.5 273.5,233.5 273.5,233.5 273.5,233.5 273.5,233.5 
		273.5,233.5 273.5,233.5 273.5,232.5 273.5,232.5 273.5,232.5 273.5,232.5 274.5,231.5 274.5,231.5 274.5,230.5 274.5,230.5 
		274.5,230.5 274.5,229.5 274.5,229.5 274.5,228.5 274.5,227.5 274.5,227.5 274.5,227.5 274.5,226.5 274.5,226.5 275.5,226.5 
		275.5,225.5 275.5,224.5 275.5,224.5 275.5,223.5 275.5,223.5 275.5,222.5 275.5,222.5 275.5,221.5 275.5,221.5 275.5,220.5 
		275.5,220.5 275.5,219.5 276.5,219.5 276.5,218.5 276.5,217.5 276.5,217.5 276.5,217.5 276.5,217.5 276.5,217.5 276.5,216.5 
		276.5,216.5 276.5,216.5 276.5,216.5 276.5,216.5 276.5,216.5 277.5,215.5 277.5,215.5 277.5,215.5 277.5,215.5 277.5,215.5 
		277.5,214.5 277.5,214.5 277.5,214.5 277.5,214.5 277.5,213.5 277.5,213.5 277.5,213.5 277.5,213.5 278.5,213.5 278.5,212.5 
		278.5,212.5 278.5,212.5 278.5,211.5 278.5,211.5 278.5,211.5 278.5,210.5 278.5,210.5 278.5,210.5 278.5,210.5 278.5,211.5 
		278.5,211.5 279.5,211.5 279.5,211.5 279.5,211.5 279.5,211.5 279.5,212.5 279.5,212.5 279.5,212.5 279.5,212.5 279.5,213.5 
		279.5,213.5 279.5,213.5 279.5,213.5 279.5,213.5 280.5,213.5 280.5,213.5 280.5,213.5 280.5,213.5 280.5,214.5 280.5,215.5 
		280.5,215.5 280.5,216.5 280.5,217.5 280.5,218.5 280.5,219.5 280.5,220.5 280.5,221.5 281.5,222.5 281.5,223.5 281.5,224.5 
		281.5,225.5 281.5,227.5 281.5,228.5 281.5,229.5 281.5,230.5 281.5,231.5 281.5,232.5 281.5,233.5 281.5,233.5 281.5,234.5 
		282.5,235.5 282.5,235.5 282.5,235.5 282.5,235.5 282.5,235.5 282.5,234.5 282.5,234.5 282.5,233.5 282.5,233.5 282.5,232.5 
		282.5,231.5 282.5,230.5 282.5,229.5 283.5,228.5 283.5,228.5 283.5,227.5 283.5,226.5 283.5,225.5 283.5,224.5 283.5,223.5 
		283.5,222.5 283.5,221.5 283.5,220.5 283.5,219.5 283.5,218.5 283.5,217.5 284.5,217.5 284.5,216.5 284.5,216.5 284.5,216.5 
		284.5,215.5 284.5,215.5 284.5,214.5 284.5,214.5 284.5,214.5 284.5,213.5 284.5,213.5 284.5,214.5 284.5,214.5 285.5,214.5 
		285.5,214.5 285.5,214.5 285.5,214.5 285.5,215.5 285.5,215.5 285.5,215.5 285.5,215.5 285.5,215.5 285.5,216.5 285.5,216.5 
		285.5,216.5 285.5,216.5 286.5,216.5 286.5,217.5 286.5,218.5 286.5,218.5 286.5,218.5 286.5,219.5 286.5,219.5 286.5,220.5 
		286.5,222.5 286.5,222.5 286.5,222.5 286.5,222.5 286.5,222.5 287.5,221.5 287.5,221.5 287.5,220.5 287.5,220.5 287.5,219.5 
		287.5,219.5 287.5,219.5 287.5,219.5 287.5,219.5 287.5,219.5 287.5,219.5 287.5,219.5 287.5,219.5 288.5,219.5 288.5,219.5 
		288.5,219.5 288.5,219.5 288.5,219.5 288.5,220.5 288.5,220.5 288.5,220.5 288.5,220.5 288.5,220.5 288.5,220.5 288.5,221.5 
		288.5,221.5 289.5,221.5 289.5,221.5 289.5,221.5 289.5,221.5 289.5,222.5 289.5,222.5 289.5,222.5 289.5,223.5 289.5,224.5 
		289.5,225.5 289.5,225.5 289.5,226.5 289.5,227.5 290.5,227.5 290.5,228.5 290.5,228.5 290.5,229.5 290.5,230.5 290.5,230.5 
		290.5,231.5 290.5,231.5 290.5,231.5 290.5,231.5 290.5,231.5 290.5,231.5 290.5,231.5 291.5,231.5 291.5,231.5 291.5,230.5 
		291.5,230.5 291.5,230.5 291.5,229.5 291.5,229.5 291.5,228.5 291.5,228.5 291.5,227.5 291.5,227.5 291.5,226.5 291.5,226.5 
		292.5,226.5 292.5,226.5 292.5,225.5 292.5,225.5 292.5,225.5 292.5,224.5 292.5,224.5 292.5,224.5 292.5,224.5 292.5,223.5 
		292.5,223.5 292.5,223.5 292.5,223.5 293.5,223.5 293.5,223.5 293.5,223.5 293.5,223.5 293.5,223.5 293.5,223.5 293.5,223.5 
		293.5,224.5 293.5,224.5 293.5,224.5 293.5,225.5 293.5,225.5 293.5,226.5 294.5,227.5 294.5,227.5 294.5,228.5 294.5,228.5 
		294.5,228.5 294.5,229.5 294.5,230.5 294.5,230.5 294.5,231.5 294.5,232.5 294.5,232.5 294.5,232.5 294.5,232.5 295.5,232.5 
		295.5,232.5 295.5,232.5 295.5,232.5 295.5,232.5 295.5,232.5 295.5,232.5 295.5,232.5 295.5,231.5 295.5,231.5 295.5,231.5 
		295.5,231.5 295.5,231.5 296.5,231.5 296.5,231.5 296.5,231.5 296.5,231.5 296.5,231.5 296.5,231.5 296.5,230.5 296.5,230.5 
		296.5,230.5 296.5,230.5 296.5,229.5 296.5,229.5 296.5,228.5 297.5,228.5 297.5,227.5 297.5,227.5 297.5,226.5 297.5,225.5 
		297.5,224.5 297.5,224.5 297.5,224.5 297.5,224.5 297.5,223.5 297.5,223.5 297.5,222.5 297.5,222.5 298.5,222.5 298.5,222.5 
		298.5,222.5 298.5,221.5 298.5,221.5 298.5,221.5 298.5,219.5 298.5,219.5 298.5,218.5 298.5,217.5 298.5,216.5 298.5,216.5 
		298.5,215.5 299.5,215.5 299.5,215.5 299.5,215.5 299.5,215.5 299.5,215.5 299.5,214.5 299.5,214.5 299.5,214.5 299.5,214.5 
		299.5,214.5 299.5,214.5 299.5,214.5 299.5,213.5 300.5,213.5 300.5,213.5 300.5,213.5 300.5,212.5 300.5,212.5 300.5,212.5 
		300.5,211.5 300.5,211.5 300.5,211.5 300.5,211.5 300.5,211.5 300.5,211.5 300.5,212.5 301.5,214.5 301.5,215.5 301.5,216.5 
		301.5,217.5 301.5,217.5 301.5,218.5 301.5,218.5 301.5,219.5 301.5,219.5 301.5,220.5 301.5,220.5 301.5,219.5 301.5,219.5 
		302.5,218.5 302.5,217.5 302.5,216.5 302.5,215.5 302.5,214.5 302.5,213.5 302.5,212.5 302.5,210.5 302.5,209.5 302.5,208.5 
		302.5,206.5 302.5,205.5 302.5,204.5 303.5,204.5 303.5,203.5 303.5,203.5 303.5,202.5 303.5,201.5 303.5,201.5 303.5,200.5 
		303.5,200.5 303.5,199.5 303.5,198.5 303.5,198.5 303.5,197.5 303.5,197.5 304.5,196.5 304.5,196.5 304.5,195.5 304.5,195.5 
		304.5,195.5 304.5,196.5 304.5,196.5 304.5,196.5 304.5,196.5 304.5,196.5 304.5,196.5 304.5,196.5 304.5,196.5 305.5,196.5 
		305.5,196.5 305.5,196.5 305.5,196.5 305.5,196.5 305.5,196.5 305.5,197.5 305.5,197.5 305.5,197.5 305.5,197.5 305.5,197.5 
		305.5,197.5 305.5,198.5 306.5,198.5 306.5,198.5 306.5,198.5 306.5,198.5 306.5,198.5 306.5,198.5 306.5,198.5 306.5,198.5 
		306.5,199.5 306.5,199.5 306.5,199.5 306.5,199.5 306.5,199.5 307.5,199.5 307.5,199.5 307.5,199.5 307.5,200.5 307.5,200.5 
		307.5,200.5 307.5,200.5 307.5,200.5 307.5,201.5 307.5,201.5 307.5,201.5 307.5,202.5 307.5,202.5 308.5,203.5 308.5,203.5 
		308.5,203.5 308.5,204.5 308.5,204.5 308.5,204.5 308.5,204.5 308.5,204.5 308.5,204.5 308.5,205.5 308.5,204.5 308.5,203.5 
		308.5,203.5 309.5,202.5 309.5,201.5 309.5,201.5 309.5,200.5 309.5,199.5 309.5,199.5 309.5,198.5 309.5,198.5 309.5,197.5 
		309.5,197.5 309.5,196.5 309.5,195.5 309.5,195.5 309.5,194.5 310.5,194.5 310.5,193.5 310.5,193.5 310.5,192.5 310.5,192.5 
		310.5,192.5 310.5,191.5 310.5,191.5 310.5,190.5 310.5,190.5 310.5,190.5 310.5,190.5 310.5,189.5 311.5,189.5 311.5,189.5 
		311.5,188.5 311.5,188.5 311.5,187.5 311.5,187.5 311.5,186.5 311.5,185.5 311.5,185.5 311.5,184.5 311.5,184.5 311.5,184.5 
		311.5,183.5 312.5,183.5 312.5,183.5 312.5,183.5 312.5,183.5 312.5,183.5 312.5,183.5 312.5,183.5 312.5,183.5 312.5,184.5 
		312.5,184.5 312.5,184.5 312.5,185.5 312.5,185.5 313.5,185.5 313.5,186.5 313.5,186.5 313.5,186.5 313.5,186.5 313.5,186.5 
		313.5,186.5 313.5,185.5 313.5,185.5 313.5,184.5 313.5,184.5 313.5,184.5 313.5,184.5 314.5,183.5 314.5,183.5 314.5,183.5 
		314.5,183.5 314.5,183.5 314.5,183.5 314.5,183.5 314.5,183.5 314.5,183.5 314.5,183.5 314.5,184.5 314.5,184.5 314.5,184.5 
		315.5,183.5 315.5,183.5 315.5,182.5 315.5,183.5 315.5,183.5 315.5,183.5 315.5,184.5 315.5,184.5 315.5,184.5 315.5,184.5 
		315.5,185.5 315.5,185.5 315.5,185.5 316.5,185.5 316.5,185.5 316.5,184.5 316.5,184.5 316.5,183.5 316.5,183.5 316.5,182.5 
		316.5,182.5 316.5,182.5 316.5,181.5 316.5,181.5 316.5,181.5 316.5,181.5 317.5,180.5 317.5,180.5 317.5,180.5 317.5,180.5 
		317.5,180.5 317.5,179.5 317.5,179.5 317.5,179.5 317.5,179.5 317.5,178.5 317.5,178.5 317.5,178.5 317.5,178.5 318.5,177.5 
		318.5,177.5 318.5,177.5 318.5,177.5 318.5,177.5 318.5,177.5 318.5,177.5 318.5,177.5 318.5,176.5 318.5,177.5 318.5,177.5 
		318.5,177.5 318.5,177.5 319.5,177.5 319.5,177.5 319.5,177.5 319.5,177.5 319.5,178.5 319.5,178.5 319.5,178.5 319.5,179.5 
		319.5,179.5 319.5,179.5 319.5,180.5 319.5,180.5 319.5,180.5 320.5,180.5 320.5,180.5 320.5,180.5 320.5,180.5 320.5,180.5 
		320.5,180.5 320.5,180.5 320.5,180.5 320.5,180.5 320.5,179.5 320.5,179.5 320.5,179.5 320.5,178.5 321.5,178.5 321.5,178.5 
		321.5,178.5 321.5,177.5 321.5,177.5 321.5,177.5 321.5,176.5 321.5,176.5 321.5,176.5 321.5,176.5 321.5,175.5 321.5,175.5 
		321.5,175.5 322.5,174.5 322.5,174.5 322.5,173.5 322.5,173.5 322.5,173.5 322.5,172.5 322.5,172.5 322.5,172.5 322.5,171.5 
		322.5,171.5 322.5,170.5 322.5,170.5 322.5,169.5 323.5,169.5 323.5,168.5 323.5,167.5 323.5,167.5 323.5,166.5 323.5,166.5 
		323.5,165.5 323.5,165.5 323.5,164.5 323.5,164.5 323.5,163.5 323.5,163.5 323.5,162.5 324.5,162.5 324.5,161.5 324.5,161.5 
		324.5,161.5 324.5,161.5 324.5,160.5 324.5,160.5 324.5,160.5 324.5,159.5 324.5,159.5 324.5,159.5 324.5,159.5 324.5,159.5 
		325.5,158.5 325.5,158.5 325.5,157.5 325.5,157.5 325.5,156.5 325.5,156.5 325.5,155.5 325.5,155.5 325.5,154.5 325.5,153.5 
		325.5,152.5 325.5,152.5 325.5,151.5 326.5,150.5 326.5,150.5 326.5,149.5 326.5,149.5 326.5,148.5 326.5,147.5 326.5,147.5 
		326.5,146.5 326.5,145.5 326.5,145.5 326.5,144.5 326.5,143.5 326.5,142.5 327.5,141.5 327.5,140.5 327.5,139.5 327.5,138.5 
		327.5,138.5 327.5,137.5 327.5,136.5 327.5,135.5 327.5,135.5 327.5,135.5 327.5,134.5 327.5,133.5 327.5,133.5 328.5,134.5 
		328.5,134.5 328.5,135.5 328.5,135.5 328.5,135.5 328.5,135.5 328.5,135.5 328.5,135.5 328.5,135.5 328.5,135.5 328.5,134.5 
		328.5,134.5 328.5,134.5 329.5,134.5 329.5,133.5 329.5,133.5 329.5,133.5 329.5,132.5 329.5,132.5 329.5,132.5 329.5,131.5 
		329.5,131.5 329.5,131.5 329.5,131.5 329.5,131.5 329.5,130.5 330.5,130.5 330.5,130.5 330.5,130.5 330.5,130.5 330.5,130.5 
		330.5,130.5 330.5,130.5 330.5,130.5 330.5,130.5 330.5,130.5 330.5,130.5 330.5,130.5 330.5,130.5 331.5,130.5 331.5,130.5 
		331.5,129.5 331.5,129.5 331.5,129.5 331.5,128.5 331.5,128.5 331.5,127.5 331.5,126.5 331.5,126.5 331.5,125.5 331.5,124.5 
		331.5,124.5 332.5,123.5 332.5,123.5 332.5,122.5 332.5,122.5 332.5,122.5 332.5,122.5 332.5,122.5 332.5,121.5 332.5,121.5 
		332.5,121.5 332.5,121.5 332.5,121.5 332.5,121.5 333.5,120.5 333.5,120.5 333.5,120.5 333.5,120.5 333.5,120.5 333.5,120.5 
		333.5,120.5 333.5,120.5 333.5,120.5 333.5,120.5 333.5,120.5 333.5,120.5 333.5,120.5 334.5,120.5 334.5,120.5 334.5,120.5 
		334.5,120.5 334.5,120.5 334.5,120.5 334.5,120.5 334.5,120.5 334.5,120.5 334.5,121.5 334.5,121.5 334.5,121.5 334.5,122.5 
		335.5,122.5 335.5,122.5 335.5,123.5 335.5,123.5 335.5,124.5 335.5,124.5 335.5,125.5 335.5,125.5 335.5,125.5 335.5,125.5 
		335.5,125.5 335.5,125.5 335.5,126.5 336.5,126.5 336.5,126.5 336.5,126.5 336.5,127.5 336.5,127.5 336.5,128.5 336.5,128.5 
		336.5,128.5 336.5,128.5 336.5,129.5 336.5,129.5 336.5,129.5 336.5,129.5 337.5,130.5 337.5,130.5 337.5,130.5 337.5,130.5 
		337.5,130.5 337.5,131.5 337.5,131.5 337.5,131.5 337.5,131.5 337.5,131.5 337.5,132.5 337.5,132.5 337.5,132.5 338.5,132.5 
		338.5,133.5 338.5,133.5 338.5,134.5 338.5,134.5 338.5,135.5 338.5,135.5 338.5,135.5 338.5,135.5 338.5,136.5 338.5,136.5 
		338.5,136.5 338.5,136.5 339.5,136.5 339.5,136.5 339.5,136.5 339.5,136.5 339.5,136.5 339.5,136.5 339.5,136.5 339.5,136.5 
		339.5,136.5 339.5,135.5 339.5,135.5 339.5,135.5 339.5,135.5 340.5,135.5 340.5,134.5 340.5,134.5 340.5,134.5 340.5,134.5 
		340.5,134.5 340.5,134.5 340.5,134.5 340.5,134.5 340.5,134.5 340.5,134.5 340.5,134.5 340.5,133.5 341.5,133.5 341.5,133.5 
		341.5,133.5 341.5,133.5 341.5,133.5 341.5,133.5 341.5,134.5 341.5,134.5 341.5,134.5 341.5,134.5 341.5,133.5 341.5,133.5 
		341.5,133.5 342.5,133.5 342.5,133.5 342.5,133.5 342.5,133.5 342.5,133.5 342.5,133.5 342.5,133.5 342.5,133.5 342.5,133.5 
		342.5,133.5 342.5,133.5 342.5,133.5 342.5,134.5 343.5,135.5 343.5,136.5 343.5,137.5 343.5,138.5 343.5,139.5 343.5,139.5 
		343.5,139.5 343.5,139.5 343.5,140.5 343.5,141.5 343.5,141.5 343.5,142.5 343.5,142.5 344.5,143.5 344.5,143.5 344.5,143.5 
		344.5,144.5 344.5,144.5 344.5,145.5 344.5,145.5 344.5,146.5 344.5,146.5 344.5,146.5 344.5,147.5 344.5,147.5 344.5,147.5 
		345.5,147.5 345.5,148.5 345.5,149.5 345.5,151.5 345.5,152.5 345.5,153.5 345.5,153.5 345.5,153.5 345.5,153.5 345.5,153.5 
		345.5,153.5 345.5,153.5 345.5,153.5 346.5,152.5 346.5,152.5 346.5,152.5 346.5,152.5 346.5,152.5 346.5,152.5 346.5,151.5 
		346.5,151.5 346.5,151.5 346.5,151.5 346.5,151.5 346.5,151.5 346.5,151.5 347.5,150.5 347.5,150.5 347.5,149.5 347.5,150.5 
		347.5,150.5 347.5,151.5 347.5,152.5 347.5,152.5 347.5,152.5 347.5,153.5 347.5,153.5 347.5,153.5 347.5,154.5 348.5,154.5 
		348.5,154.5 348.5,154.5 348.5,155.5 348.5,155.5 348.5,155.5 348.5,155.5 348.5,156.5 348.5,156.5 348.5,156.5 348.5,156.5 
		348.5,156.5 348.5,156.5 349.5,156.5 349.5,156.5 349.5,156.5 349.5,156.5 349.5,156.5 349.5,156.5 349.5,156.5 349.5,156.5 
		349.5,156.5 349.5,157.5 349.5,157.5 349.5,157.5 349.5,157.5 350.5,157.5 350.5,157.5 350.5,157.5 350.5,157.5 350.5,158.5 
		350.5,159.5 350.5,160.5 350.5,161.5 350.5,162.5 350.5,163.5 350.5,163.5 350.5,164.5 350.5,165.5 351.5,166.5 351.5,166.5 
		351.5,167.5 351.5,167.5 351.5,167.5 351.5,167.5 351.5,168.5 351.5,168.5 351.5,168.5 351.5,168.5 351.5,168.5 351.5,168.5 
		351.5,168.5 352.5,168.5 352.5,168.5 352.5,168.5 352.5,168.5 352.5,168.5 352.5,168.5 352.5,168.5 352.5,167.5 352.5,167.5 
		352.5,167.5 352.5,167.5 352.5,167.5 352.5,166.5 353.5,166.5 353.5,166.5 353.5,165.5 353.5,165.5 353.5,165.5 353.5,165.5 
		353.5,165.5 353.5,164.5 353.5,164.5 353.5,163.5 353.5,163.5 353.5,163.5 353.5,162.5 354.5,162.5 354.5,162.5 354.5,163.5 
		354.5,162.5 354.5,162.5 354.5,162.5 354.5,163.5 354.5,163.5 354.5,163.5 354.5,163.5 354.5,163.5 354.5,163.5 354.5,163.5 
		355.5,163.5 355.5,163.5 355.5,163.5 355.5,163.5 355.5,163.5 355.5,164.5 355.5,164.5 355.5,164.5 355.5,165.5 355.5,165.5 
		355.5,165.5 355.5,165.5 355.5,165.5 356.5,165.5 356.5,165.5 356.5,165.5 356.5,165.5 356.5,165.5 356.5,165.5 356.5,165.5 
		356.5,165.5 356.5,165.5 356.5,165.5 356.5,165.5 356.5,165.5 356.5,165.5 357.5,164.5 357.5,164.5 357.5,164.5 357.5,163.5 
		357.5,163.5 357.5,162.5 357.5,162.5 357.5,162.5 357.5,161.5 357.5,161.5 357.5,161.5 357.5,161.5 357.5,161.5 358.5,161.5 
		358.5,161.5 358.5,161.5 358.5,161.5 358.5,161.5 358.5,161.5 358.5,160.5 358.5,160.5 358.5,160.5 358.5,159.5 358.5,159.5 
		358.5,158.5 358.5,158.5 359.5,158.5 359.5,157.5 359.5,157.5 359.5,157.5 359.5,157.5 359.5,156.5 359.5,155.5 359.5,155.5 
		359.5,155.5 359.5,155.5 359.5,155.5 359.5,155.5 359.5,154.5 360.5,153.5 360.5,152.5 360.5,152.5 360.5,151.5 360.5,151.5 
		360.5,150.5 360.5,150.5 360.5,150.5 360.5,150.5 360.5,150.5 360.5,150.5 360.5,151.5 360.5,151.5 361.5,151.5 361.5,151.5 
		361.5,151.5 361.5,152.5 361.5,152.5 361.5,152.5 361.5,152.5 361.5,152.5 361.5,153.5 361.5,153.5 361.5,153.5 361.5,153.5 
		361.5,153.5 362.5,154.5 362.5,154.5 362.5,154.5 362.5,154.5 362.5,154.5 362.5,155.5 362.5,155.5 362.5,155.5 362.5,155.5 
		362.5,156.5 362.5,156.5 362.5,156.5 362.5,156.5 363.5,156.5 363.5,156.5 363.5,156.5 363.5,156.5 363.5,157.5 363.5,157.5 
		363.5,157.5 363.5,157.5 363.5,157.5 363.5,157.5 363.5,158.5 363.5,158.5 363.5,158.5 364.5,158.5 364.5,158.5 364.5,158.5 
		364.5,158.5 364.5,158.5 364.5,159.5 364.5,159.5 364.5,159.5 364.5,159.5 364.5,159.5 364.5,159.5 364.5,159.5 364.5,159.5 
		365.5,160.5 365.5,160.5 365.5,160.5 365.5,161.5 365.5,161.5 365.5,161.5 365.5,161.5 365.5,162.5 365.5,162.5 365.5,162.5 
		365.5,162.5 365.5,162.5 365.5,163.5 366.5,163.5 366.5,163.5 366.5,163.5 366.5,163.5 366.5,163.5 366.5,163.5 366.5,163.5 
		366.5,163.5 366.5,163.5 366.5,164.5 366.5,164.5 366.5,164.5 366.5,164.5 366.5,164.5 367.5,164.5 367.5,164.5 367.5,164.5 
		367.5,165.5 367.5,165.5 367.5,165.5 367.5,165.5 367.5,165.5 367.5,165.5 367.5,165.5 367.5,166.5 367.5,167.5 367.5,167.5 
		368.5,167.5 368.5,167.5 368.5,168.5 368.5,168.5 368.5,168.5 368.5,169.5 368.5,169.5 368.5,169.5 368.5,170.5 368.5,170.5 
		368.5,170.5 368.5,170.5 368.5,170.5 369.5,170.5 369.5,171.5 369.5,171.5 369.5,171.5 369.5,171.5 369.5,171.5 369.5,171.5 
		369.5,171.5 369.5,170.5 369.5,170.5 369.5,170.5 369.5,170.5 369.5,169.5 370.5,169.5 370.5,169.5 370.5,168.5 370.5,168.5 
		370.5,168.5 370.5,168.5 370.5,168.5 370.5,168.5 370.5,168.5 370.5,168.5 370.5,168.5 370.5,168.5 370.5,168.5 371.5,168.5 
		371.5,168.5 371.5,168.5 371.5,168.5 371.5,168.5 371.5,168.5 371.5,168.5 371.5,168.5 371.5,168.5 371.5,168.5 371.5,168.5 
		371.5,168.5 371.5,169.5 372.5,169.5 372.5,169.5 372.5,169.5 372.5,169.5 372.5,169.5 372.5,169.5 372.5,169.5 372.5,169.5 
		372.5,169.5 372.5,169.5 372.5,170.5 372.5,170.5 372.5,171.5 373.5,171.5 373.5,172.5 373.5,173.5 373.5,174.5 373.5,175.5 
		373.5,176.5 373.5,177.5 373.5,179.5 373.5,180.5 373.5,181.5 373.5,182.5 373.5,183.5 373.5,183.5 374.5,183.5 374.5,183.5 
		374.5,183.5 374.5,184.5 374.5,184.5 374.5,184.5 374.5,184.5 374.5,185.5 374.5,185.5 374.5,185.5 374.5,185.5 374.5,186.5 
		374.5,186.5 375.5,186.5 375.5,186.5 375.5,186.5 375.5,186.5 375.5,186.5 375.5,186.5 375.5,187.5 375.5,187.5 375.5,188.5 
		375.5,189.5 375.5,190.5 375.5,190.5 375.5,191.5 376.5,191.5 376.5,191.5 376.5,192.5 376.5,192.5 376.5,192.5 376.5,193.5 
		376.5,193.5 376.5,193.5 376.5,194.5 376.5,193.5 376.5,193.5 376.5,193.5 376.5,193.5 377.5,193.5 377.5,193.5 377.5,194.5 
		377.5,194.5 377.5,194.5 377.5,195.5 377.5,195.5 377.5,195.5 377.5,195.5 377.5,195.5 377.5,195.5 377.5,195.5 377.5,195.5 
		378.5,195.5 378.5,195.5 378.5,195.5 378.5,196.5 378.5,197.5 378.5,197.5 378.5,198.5 378.5,198.5 378.5,199.5 378.5,199.5 
		378.5,200.5 378.5,200.5 378.5,200.5 379.5,200.5 379.5,200.5 379.5,200.5 379.5,200.5 379.5,200.5 379.5,200.5 379.5,200.5 
		379.5,199.5 379.5,199.5 379.5,199.5 379.5,199.5 379.5,199.5 379.5,199.5 380.5,198.5 380.5,198.5 380.5,198.5 380.5,198.5 
		380.5,198.5 380.5,198.5 380.5,199.5 380.5,199.5 380.5,199.5 380.5,199.5 380.5,199.5 380.5,199.5 380.5,200.5 381.5,200.5 
		381.5,200.5 381.5,201.5 381.5,201.5 381.5,201.5 381.5,201.5 381.5,201.5 381.5,201.5 381.5,201.5 381.5,201.5 381.5,200.5 
		381.5,200.5 381.5,200.5 382.5,200.5 382.5,200.5 382.5,200.5 382.5,200.5 382.5,199.5 382.5,198.5 382.5,197.5 382.5,197.5 
		382.5,196.5 382.5,196.5 382.5,195.5 382.5,195.5 382.5,195.5 383.5,194.5 383.5,194.5 383.5,194.5 383.5,193.5 383.5,193.5 
		383.5,193.5 383.5,193.5 383.5,192.5 383.5,192.5 383.5,192.5 383.5,192.5 383.5,191.5 383.5,191.5 384.5,191.5 384.5,191.5 
		384.5,190.5 384.5,190.5 384.5,190.5 384.5,190.5 384.5,190.5 384.5,190.5 384.5,190.5 384.5,189.5 384.5,189.5 384.5,189.5 
		384.5,189.5 385.5,189.5 385.5,189.5 385.5,189.5 385.5,189.5 385.5,189.5 385.5,189.5 385.5,189.5 385.5,189.5 385.5,189.5 
		385.5,188.5 385.5,188.5 385.5,188.5 385.5,187.5 386.5,187.5 386.5,187.5 386.5,186.5 386.5,185.5 386.5,186.5 386.5,186.5 
		386.5,186.5 386.5,186.5 386.5,186.5 386.5,186.5 386.5,186.5 386.5,186.5 386.5,185.5 387.5,185.5 387.5,184.5 387.5,184.5 
		387.5,184.5 387.5,184.5 387.5,183.5 387.5,183.5 387.5,183.5 387.5,183.5 387.5,182.5 387.5,182.5 387.5,182.5 387.5,182.5 
		388.5,182.5 388.5,182.5 388.5,182.5 388.5,182.5 388.5,182.5 388.5,182.5 388.5,182.5 388.5,182.5 388.5,182.5 388.5,182.5 
		388.5,182.5 388.5,182.5 388.5,182.5 389.5,182.5 389.5,182.5 389.5,182.5 389.5,182.5 389.5,182.5 389.5,182.5 389.5,182.5 
		389.5,182.5 389.5,182.5 389.5,182.5 389.5,182.5 389.5,182.5 389.5,182.5 390.5,182.5 390.5,182.5 390.5,182.5 390.5,182.5 
		390.5,182.5 390.5,182.5 390.5,182.5 390.5,182.5 390.5,182.5 390.5,182.5 390.5,182.5 390.5,182.5 390.5,182.5 391.5,182.5 
		391.5,182.5 391.5,182.5 391.5,183.5 391.5,183.5 391.5,183.5 391.5,183.5 391.5,183.5 391.5,183.5 391.5,183.5 391.5,183.5 
		391.5,182.5 391.5,182.5 392.5,182.5 392.5,182.5 392.5,182.5 392.5,182.5 392.5,182.5 392.5,183.5 392.5,183.5 392.5,183.5 
		392.5,183.5 392.5,183.5 392.5,183.5 392.5,183.5 392.5,183.5 393.5,183.5 393.5,183.5 393.5,183.5 393.5,184.5 393.5,184.5 
		393.5,184.5 393.5,184.5 393.5,184.5 393.5,184.5 393.5,184.5 393.5,185.5 393.5,185.5 393.5,185.5 394.5,185.5 394.5,185.5 
		394.5,185.5 394.5,185.5 394.5,186.5 394.5,186.5 394.5,186.5 394.5,186.5 394.5,186.5 394.5,186.5 394.5,187.5 394.5,187.5 
		394.5,187.5 395.5,187.5 395.5,187.5 395.5,188.5 395.5,188.5 395.5,188.5 395.5,189.5 395.5,189.5 395.5,189.5 395.5,190.5 
		395.5,190.5 395.5,191.5 395.5,192.5 395.5,192.5 396.5,192.5 396.5,193.5 396.5,194.5 396.5,194.5 396.5,195.5 396.5,196.5 
		396.5,196.5 396.5,197.5 396.5,197.5 396.5,198.5 396.5,198.5 396.5,198.5 396.5,198.5 397.5,199.5 397.5,199.5 397.5,200.5 
		397.5,200.5 397.5,201.5 397.5,201.5 397.5,202.5 397.5,203.5 397.5,203.5 397.5,203.5 397.5,203.5 397.5,204.5 397.5,204.5 
		398.5,204.5 398.5,204.5 398.5,204.5 398.5,204.5 398.5,203.5 398.5,203.5 398.5,203.5 398.5,202.5 398.5,202.5 398.5,202.5 
		398.5,201.5 398.5,201.5 398.5,200.5 399.5,200.5 399.5,199.5 399.5,199.5 399.5,198.5 399.5,197.5 399.5,196.5 399.5,195.5 
		399.5,195.5 399.5,194.5 399.5,193.5 399.5,192.5 399.5,192.5 399.5,192.5 400.5,191.5 400.5,191.5 400.5,192.5 400.5,192.5 
		400.5,191.5 400.5,192.5 400.5,192.5 400.5,192.5 400.5,192.5 400.5,192.5 400.5,192.5 400.5,192.5 400.5,192.5 401.5,192.5 
		401.5,192.5 401.5,192.5 401.5,193.5 401.5,193.5 401.5,193.5 401.5,193.5 401.5,193.5 401.5,193.5 401.5,193.5 401.5,193.5 
		401.5,194.5 401.5,194.5 402.5,194.5 402.5,194.5 402.5,194.5 402.5,194.5 402.5,195.5 402.5,195.5 402.5,195.5 402.5,195.5 
		402.5,195.5 402.5,196.5 402.5,196.5 402.5,197.5 402.5,197.5 403.5,198.5 403.5,198.5 403.5,199.5 403.5,199.5 403.5,200.5 
		403.5,201.5 403.5,201.5 403.5,201.5 403.5,202.5 403.5,202.5 403.5,203.5 403.5,203.5 403.5,203.5 404.5,203.5 404.5,203.5 
		404.5,203.5 404.5,203.5 404.5,203.5 404.5,203.5 404.5,203.5 404.5,203.5 404.5,203.5 404.5,203.5 404.5,203.5 404.5,202.5 
		404.5,202.5 405.5,202.5 405.5,202.5 405.5,202.5 405.5,202.5 405.5,201.5 405.5,201.5 405.5,201.5 405.5,201.5 405.5,201.5 
		405.5,201.5 405.5,201.5 405.5,201.5 405.5,201.5 406.5,201.5 406.5,201.5 406.5,201.5 406.5,202.5 406.5,202.5 406.5,202.5 
		406.5,203.5 406.5,203.5 406.5,203.5 406.5,204.5 406.5,204.5 406.5,205.5 406.5,205.5 407.5,206.5 407.5,207.5 407.5,207.5 
		407.5,208.5 407.5,208.5 407.5,209.5 407.5,209.5 407.5,209.5 407.5,209.5 407.5,209.5 407.5,209.5 407.5,209.5 407.5,209.5 
		408.5,210.5 408.5,210.5 408.5,209.5 408.5,209.5 408.5,209.5 408.5,209.5 408.5,209.5 408.5,209.5 408.5,209.5 408.5,209.5 
		408.5,209.5 408.5,209.5 408.5,209.5 409.5,209.5 409.5,209.5 409.5,210.5 409.5,210.5 409.5,210.5 409.5,210.5 409.5,210.5 
		409.5,210.5 409.5,210.5 409.5,210.5 409.5,211.5 409.5,211.5 409.5,211.5 410.5,211.5 410.5,211.5 410.5,211.5 410.5,211.5 
		410.5,211.5 410.5,211.5 410.5,211.5 410.5,211.5 410.5,211.5 410.5,211.5 410.5,211.5 410.5,211.5 410.5,211.5 411.5,211.5 
		411.5,211.5 411.5,211.5 411.5,211.5 411.5,210.5 411.5,210.5 411.5,210.5 411.5,211.5 411.5,211.5 411.5,211.5 411.5,211.5 
		411.5,211.5 411.5,211.5 412.5,211.5 412.5,212.5 412.5,212.5 412.5,212.5 412.5,212.5 412.5,212.5 412.5,212.5 412.5,213.5 
		412.5,213.5 412.5,213.5 412.5,213.5 412.5,213.5 412.5,213.5 413.5,213.5 413.5,214.5 413.5,214.5 413.5,215.5 413.5,215.5 
		413.5,216.5 413.5,216.5 413.5,216.5 413.5,217.5 413.5,217.5 413.5,218.5 413.5,218.5 413.5,219.5 414.5,219.5 414.5,219.5 
		414.5,220.5 414.5,220.5 414.5,220.5 414.5,220.5 414.5,221.5 414.5,221.5 414.5,221.5 414.5,221.5 414.5,222.5 414.5,222.5 
		414.5,222.5 415.5,222.5 415.5,222.5 415.5,222.5 415.5,223.5 415.5,223.5 415.5,223.5 415.5,223.5 415.5,223.5 415.5,223.5 
		415.5,223.5 415.5,223.5 415.5,223.5 415.5,223.5 416.5,223.5 416.5,222.5 416.5,222.5 416.5,222.5 416.5,222.5 416.5,222.5 
		416.5,222.5 416.5,223.5 416.5,223.5 416.5,223.5 416.5,223.5 416.5,222.5 416.5,222.5 417.5,222.5 417.5,222.5 417.5,222.5 
		417.5,222.5 417.5,222.5 417.5,222.5 417.5,221.5 417.5,221.5 417.5,221.5 417.5,221.5 417.5,220.5 417.5,220.5 417.5,220.5 
		418.5,220.5 418.5,220.5 418.5,220.5 418.5,220.5 418.5,220.5 418.5,219.5 418.5,219.5 418.5,219.5 418.5,218.5 418.5,218.5 
		418.5,218.5 418.5,218.5 418.5,217.5 419.5,217.5 419.5,216.5 419.5,216.5 419.5,216.5 419.5,215.5 419.5,215.5 419.5,215.5 
		419.5,215.5 419.5,215.5 419.5,215.5 419.5,214.5 419.5,214.5 419.5,214.5 420.5,213.5 420.5,213.5 420.5,213.5 420.5,213.5 
		420.5,212.5 420.5,212.5 420.5,212.5 420.5,212.5 420.5,211.5 420.5,211.5 420.5,211.5 420.5,211.5 420.5,211.5 421.5,212.5 
		421.5,212.5 421.5,212.5 421.5,212.5 421.5,212.5 421.5,212.5 421.5,212.5 421.5,212.5 421.5,212.5 421.5,211.5 421.5,212.5 
		421.5,211.5 421.5,211.5 422.5,211.5 422.5,210.5 422.5,210.5 422.5,210.5 422.5,209.5 422.5,209.5 422.5,208.5 422.5,208.5 
		422.5,208.5 422.5,207.5 422.5,207.5 422.5,207.5 422.5,207.5 422.5,207.5 423.5,206.5 423.5,206.5 423.5,206.5 423.5,206.5 
		423.5,206.5 423.5,206.5 423.5,206.5 423.5,206.5 423.5,206.5 423.5,205.5 423.5,205.5 423.5,205.5 423.5,205.5 424.5,205.5 
		424.5,205.5 424.5,205.5 424.5,205.5 424.5,204.5 424.5,204.5 424.5,204.5 424.5,204.5 424.5,204.5 424.5,203.5 424.5,203.5 
		424.5,203.5 424.5,203.5 425.5,203.5 425.5,202.5 425.5,202.5 425.5,202.5 425.5,201.5 425.5,201.5 425.5,200.5 425.5,200.5 
		425.5,200.5 425.5,199.5 425.5,199.5 425.5,199.5 425.5,198.5 426.5,198.5 426.5,198.5 426.5,198.5 426.5,197.5 426.5,197.5 
		426.5,197.5 426.5,197.5 426.5,197.5 426.5,197.5 426.5,197.5 426.5,197.5 426.5,197.5 426.5,197.5 427.5,197.5 427.5,197.5 
		427.5,198.5 427.5,198.5 427.5,198.5 427.5,199.5 427.5,200.5 427.5,200.5 427.5,200.5 427.5,200.5 427.5,199.5 427.5,199.5 
		427.5,199.5 428.5,199.5 428.5,199.5 428.5,200.5 428.5,200.5 428.5,200.5 428.5,200.5 428.5,200.5 428.5,200.5 428.5,200.5 
		428.5,200.5 428.5,200.5 428.5,200.5 428.5,200.5 429.5,201.5 429.5,201.5 429.5,201.5 429.5,201.5 429.5,201.5 429.5,201.5 
		429.5,201.5 429.5,201.5 429.5,201.5 429.5,201.5 429.5,201.5 429.5,201.5 429.5,201.5 430.5,201.5 430.5,201.5 430.5,201.5 
		430.5,201.5 430.5,201.5 430.5,201.5 430.5,201.5 430.5,202.5 430.5,202.5 430.5,202.5 430.5,203.5 430.5,203.5 430.5,203.5 
		431.5,203.5 431.5,203.5 431.5,203.5 431.5,203.5 431.5,203.5 431.5,202.5 431.5,202.5 431.5,201.5 431.5,200.5 431.5,200.5 
		431.5,199.5 431.5,199.5 431.5,198.5 432.5,197.5 432.5,197.5 432.5,196.5 432.5,196.5 432.5,195.5 432.5,195.5 432.5,194.5 
		432.5,193.5 432.5,192.5 432.5,191.5 432.5,190.5 432.5,189.5 432.5,189.5 433.5,188.5 433.5,188.5 433.5,187.5 433.5,187.5 
		433.5,186.5 433.5,186.5 433.5,186.5 433.5,185.5 433.5,185.5 433.5,185.5 433.5,185.5 433.5,184.5 433.5,184.5 434.5,184.5 
		434.5,184.5 434.5,184.5 434.5,183.5 434.5,183.5 434.5,183.5 434.5,183.5 434.5,183.5 434.5,183.5 434.5,183.5 434.5,182.5 
		434.5,182.5 434.5,182.5 435.5,182.5 435.5,182.5 435.5,182.5 435.5,182.5 435.5,182.5 435.5,181.5 435.5,181.5 435.5,180.5 
		435.5,180.5 435.5,180.5 435.5,179.5 435.5,179.5 435.5,179.5 436.5,179.5 436.5,179.5 436.5,179.5 436.5,179.5 436.5,178.5 
		436.5,178.5 436.5,178.5 436.5,178.5 436.5,178.5 436.5,178.5 436.5,177.5 436.5,177.5 436.5,177.5 437.5,176.5 437.5,176.5 
		437.5,175.5 437.5,174.5 437.5,174.5 437.5,173.5 437.5,173.5 437.5,173.5 437.5,172.5 437.5,172.5 437.5,172.5 437.5,172.5 
		437.5,172.5 438.5,172.5 438.5,172.5 438.5,172.5 438.5,172.5 438.5,172.5 438.5,172.5 438.5,172.5 438.5,172.5 438.5,172.5 
		438.5,172.5 438.5,172.5 438.5,172.5 438.5,172.5 439.5,171.5 439.5,172.5 439.5,172.5 439.5,172.5 439.5,173.5 439.5,173.5 
		439.5,173.5 439.5,174.5 439.5,174.5 439.5,175.5 439.5,176.5 439.5,176.5 439.5,177.5 440.5,177.5 440.5,178.5 440.5,179.5 
		440.5,180.5 440.5,181.5 440.5,182.5 440.5,182.5 440.5,183.5 440.5,183.5 440.5,183.5 440.5,184.5 440.5,184.5 440.5,185.5 
		441.5,186.5 441.5,187.5 441.5,188.5 441.5,188.5 441.5,189.5 441.5,190.5 441.5,191.5 441.5,192.5 441.5,193.5 441.5,193.5 
		441.5,194.5 441.5,195.5 441.5,195.5 442.5,195.5 442.5,196.5 442.5,196.5 442.5,197.5 442.5,197.5 442.5,197.5 442.5,197.5 
		442.5,198.5 442.5,198.5 442.5,198.5 442.5,198.5 442.5,198.5 442.5,198.5 443.5,197.5 443.5,197.5 443.5,196.5 443.5,196.5 
		443.5,195.5 443.5,195.5 443.5,194.5 443.5,193.5 443.5,193.5 443.5,192.5 443.5,192.5 443.5,191.5 443.5,191.5 444.5,190.5 
		444.5,190.5 444.5,190.5 444.5,189.5 444.5,189.5 444.5,188.5 444.5,188.5 444.5,187.5 444.5,187.5 444.5,186.5 444.5,186.5 
		444.5,186.5 444.5,186.5 445.5,186.5 445.5,185.5 445.5,185.5 445.5,185.5 445.5,185.5 445.5,185.5 445.5,185.5 445.5,185.5 
		445.5,186.5 445.5,186.5 445.5,186.5 445.5,186.5 445.5,186.5 446.5,186.5 446.5,187.5 446.5,187.5 446.5,187.5 446.5,186.5 
		446.5,186.5 446.5,186.5 446.5,187.5 446.5,188.5 446.5,188.5 446.5,189.5 446.5,189.5 446.5,189.5 447.5,190.5 447.5,190.5 
		447.5,191.5 447.5,191.5 447.5,192.5 447.5,192.5 447.5,193.5 447.5,193.5 447.5,194.5 447.5,195.5 447.5,195.5 447.5,196.5 
		447.5,197.5 448.5,197.5 448.5,198.5 448.5,198.5 448.5,198.5 448.5,198.5 448.5,198.5 448.5,199.5 448.5,199.5 448.5,199.5 
		448.5,199.5 448.5,199.5 448.5,199.5 448.5,198.5 449.5,198.5 449.5,198.5 449.5,197.5 449.5,197.5 449.5,197.5 449.5,197.5 
		449.5,197.5 449.5,197.5 449.5,197.5 449.5,196.5 449.5,196.5 449.5,195.5 449.5,194.5 450.5,193.5 450.5,192.5 450.5,192.5 
		450.5,192.5 450.5,191.5 450.5,191.5 450.5,191.5 450.5,191.5 450.5,190.5 450.5,190.5 450.5,190.5 450.5,189.5 450.5,189.5 
		451.5,189.5 451.5,189.5 451.5,189.5 451.5,189.5 451.5,188.5 451.5,188.5 451.5,188.5 451.5,188.5 451.5,188.5 451.5,188.5 
		451.5,187.5 451.5,187.5 451.5,187.5 452.5,186.5 452.5,185.5 452.5,184.5 452.5,183.5 452.5,183.5 452.5,182.5 452.5,182.5 
		452.5,181.5 452.5,180.5 452.5,179.5 452.5,177.5 452.5,177.5 452.5,176.5 453.5,176.5 453.5,176.5 453.5,175.5 453.5,175.5 
		453.5,174.5 453.5,174.5 453.5,174.5 453.5,173.5 453.5,173.5 453.5,173.5 453.5,172.5 453.5,172.5 453.5,172.5 454.5,172.5 
		454.5,171.5 454.5,171.5 454.5,171.5 454.5,170.5 454.5,170.5 454.5,170.5 454.5,169.5 454.5,168.5 454.5,168.5 454.5,168.5 
		454.5,168.5 454.5,168.5 455.5,169.5 455.5,169.5 455.5,170.5 455.5,170.5 455.5,171.5 455.5,171.5 455.5,171.5 455.5,171.5 
		455.5,171.5 455.5,170.5 455.5,170.5 455.5,170.5 455.5,170.5 456.5,170.5 456.5,170.5 456.5,170.5 456.5,170.5 456.5,170.5 
		456.5,170.5 456.5,170.5 456.5,170.5 456.5,170.5 456.5,170.5 456.5,170.5 456.5,170.5 456.5,171.5 457.5,171.5 457.5,171.5 
		457.5,171.5 457.5,171.5 457.5,171.5 457.5,171.5 457.5,171.5 457.5,171.5 457.5,171.5 457.5,171.5 457.5,171.5 457.5,171.5 
		457.5,171.5 458.5,171.5 458.5,171.5 458.5,171.5 458.5,171.5 458.5,171.5 458.5,171.5 458.5,171.5 458.5,171.5 458.5,171.5 
		458.5,171.5 458.5,171.5 458.5,171.5 458.5,170.5 459.5,170.5 459.5,170.5 459.5,170.5 459.5,171.5 459.5,171.5 459.5,171.5 
		459.5,171.5 459.5,171.5 459.5,171.5 459.5,171.5 459.5,171.5 459.5,171.5 459.5,171.5 460.5,171.5 460.5,171.5 460.5,170.5 
		460.5,170.5 460.5,170.5 460.5,170.5 460.5,170.5 460.5,170.5 460.5,170.5 460.5,170.5 460.5,170.5 460.5,170.5 460.5,170.5 
		461.5,169.5 461.5,169.5 461.5,169.5 461.5,169.5 461.5,169.5 461.5,169.5 461.5,169.5 461.5,169.5 461.5,168.5 461.5,168.5 
		461.5,168.5 461.5,168.5 461.5,168.5 462.5,168.5 462.5,168.5 462.5,168.5 462.5,168.5 462.5,168.5 462.5,167.5 462.5,167.5 
		462.5,166.5 462.5,165.5 462.5,165.5 462.5,164.5 462.5,164.5 462.5,163.5 463.5,163.5 463.5,162.5 463.5,162.5 463.5,162.5 
		463.5,162.5 463.5,161.5 463.5,161.5 463.5,161.5 463.5,161.5 463.5,161.5 463.5,161.5 463.5,160.5 463.5,160.5 464.5,160.5 
		464.5,160.5 464.5,159.5 464.5,159.5 464.5,158.5 464.5,157.5 464.5,156.5 464.5,155.5 464.5,155.5 464.5,154.5 464.5,153.5 
		464.5,153.5 464.5,152.5 465.5,151.5 465.5,150.5 465.5,149.5 465.5,148.5 465.5,148.5 465.5,147.5 465.5,147.5 465.5,146.5 
		465.5,146.5 465.5,146.5 465.5,145.5 465.5,145.5 465.5,145.5 466.5,144.5 466.5,144.5 466.5,144.5 466.5,144.5 466.5,144.5 
		466.5,143.5 466.5,144.5 466.5,144.5 466.5,144.5 466.5,145.5 466.5,145.5 466.5,145.5 466.5,145.5 467.5,145.5 467.5,145.5 
		467.5,144.5 467.5,144.5 467.5,144.5 467.5,143.5 467.5,143.5 467.5,143.5 467.5,142.5 467.5,141.5 467.5,141.5 467.5,140.5 
		467.5,140.5 468.5,140.5 468.5,140.5 468.5,139.5 468.5,139.5 468.5,139.5 468.5,138.5 468.5,138.5 468.5,138.5 468.5,138.5 
		468.5,138.5 468.5,138.5 468.5,137.5 468.5,138.5 469.5,138.5 469.5,138.5 469.5,138.5 469.5,138.5 469.5,138.5 469.5,138.5 
		469.5,139.5 469.5,139.5 469.5,139.5 469.5,140.5 469.5,140.5 469.5,140.5 469.5,140.5 470.5,140.5 470.5,140.5 470.5,140.5 
		470.5,140.5 470.5,140.5 470.5,140.5 470.5,140.5 470.5,140.5 470.5,140.5 470.5,140.5 470.5,140.5 470.5,140.5 470.5,141.5 
		471.5,141.5 471.5,141.5 471.5,141.5 471.5,141.5 471.5,141.5 471.5,141.5 471.5,141.5 471.5,141.5 471.5,141.5 471.5,141.5 
		471.5,141.5 471.5,141.5 471.5,141.5 472.5,141.5 472.5,141.5 472.5,141.5 472.5,140.5 472.5,140.5 472.5,140.5 472.5,140.5 
		472.5,140.5 472.5,140.5 472.5,140.5 472.5,140.5 472.5,140.5 472.5,140.5 473.5,140.5 473.5,140.5 473.5,140.5 473.5,140.5 
		473.5,140.5 473.5,140.5 473.5,140.5 473.5,140.5 473.5,140.5 473.5,140.5 473.5,140.5 473.5,141.5 473.5,141.5 474.5,142.5 
		474.5,142.5 474.5,143.5 474.5,144.5 474.5,144.5 474.5,145.5 474.5,146.5 474.5,146.5 474.5,146.5 474.5,147.5 474.5,147.5 
		474.5,148.5 474.5,149.5 475.5,150.5 475.5,150.5 475.5,150.5 475.5,150.5 475.5,150.5 475.5,150.5 475.5,150.5 475.5,149.5 
		475.5,149.5 475.5,149.5 475.5,149.5 475.5,149.5 475.5,149.5 476.5,149.5 476.5,149.5 476.5,148.5 476.5,147.5 476.5,147.5 
		476.5,146.5 476.5,146.5 476.5,146.5 476.5,146.5 476.5,146.5 476.5,145.5 476.5,145.5 476.5,145.5 477.5,144.5 477.5,144.5 
		477.5,144.5 477.5,143.5 477.5,143.5 477.5,143.5 477.5,142.5 477.5,142.5 477.5,142.5 477.5,141.5 477.5,141.5 477.5,141.5 
		477.5,141.5 478.5,141.5 478.5,141.5 478.5,141.5 478.5,141.5 478.5,141.5 478.5,141.5 478.5,141.5 478.5,141.5 478.5,142.5 
		478.5,142.5 478.5,142.5 478.5,143.5 478.5,144.5 478.5,144.5 479.5,144.5 479.5,144.5 479.5,143.5 479.5,143.5 479.5,142.5 
		479.5,140.5 479.5,139.5 479.5,139.5 479.5,138.5 479.5,138.5 479.5,137.5 479.5,136.5 479.5,136.5 480.5,135.5 480.5,135.5 
		480.5,134.5 480.5,134.5 480.5,133.5 480.5,133.5 480.5,132.5 480.5,132.5 480.5,132.5 480.5,131.5 480.5,130.5 480.5,130.5 
		480.5,130.5 481.5,129.5 481.5,129.5 481.5,129.5 481.5,128.5 481.5,128.5 481.5,128.5 481.5,128.5 481.5,128.5 481.5,128.5 
		481.5,128.5 481.5,128.5 481.5,128.5 481.5,128.5 482.5,128.5 482.5,128.5 482.5,128.5 482.5,128.5 482.5,128.5 482.5,127.5 
		482.5,127.5 482.5,127.5 482.5,127.5 482.5,126.5 482.5,126.5 482.5,126.5 482.5,126.5 483.5,126.5 483.5,125.5 483.5,125.5 
		483.5,125.5 483.5,125.5 483.5,125.5 483.5,124.5 483.5,124.5 483.5,124.5 483.5,124.5 483.5,124.5 483.5,124.5 483.5,124.5 
		484.5,123.5 484.5,123.5 484.5,123.5 484.5,123.5 484.5,123.5 484.5,123.5 484.5,122.5 484.5,122.5 484.5,122.5 484.5,122.5 
		484.5,122.5 484.5,122.5 484.5,122.5 485.5,121.5 485.5,121.5 485.5,122.5 485.5,122.5 485.5,122.5 485.5,123.5 485.5,123.5 
		485.5,124.5 485.5,124.5 485.5,124.5 485.5,124.5 485.5,125.5 485.5,125.5 486.5,125.5 486.5,125.5 486.5,125.5 486.5,125.5 
		486.5,125.5 486.5,125.5 486.5,125.5 486.5,125.5 486.5,125.5 486.5,125.5 486.5,125.5 486.5,124.5 486.5,124.5 487.5,124.5 
		487.5,124.5 487.5,124.5 487.5,124.5 487.5,124.5 487.5,124.5 487.5,124.5 487.5,124.5 487.5,125.5 487.5,125.5 487.5,125.5 
		487.5,125.5 487.5,125.5 488.5,126.5 488.5,126.5 488.5,126.5 488.5,127.5 488.5,127.5 488.5,127.5 488.5,128.5 488.5,128.5 
		488.5,128.5 488.5,128.5 488.5,129.5 488.5,129.5 488.5,129.5 489.5,130.5 489.5,130.5 489.5,130.5 489.5,130.5 489.5,130.5 
		489.5,130.5 489.5,131.5 489.5,131.5 489.5,131.5 489.5,132.5 489.5,132.5 489.5,132.5 489.5,132.5 490.5,133.5 490.5,133.5 
		490.5,133.5 490.5,133.5 490.5,133.5 490.5,133.5 490.5,134.5 490.5,134.5 490.5,134.5 490.5,134.5 490.5,134.5 490.5,135.5 
		490.5,135.5 491.5,135.5 491.5,135.5 491.5,135.5 491.5,136.5 491.5,136.5 491.5,136.5 491.5,136.5 491.5,136.5 491.5,136.5 
		491.5,136.5 491.5,136.5 491.5,136.5 491.5,136.5 492.5,136.5 492.5,136.5 492.5,136.5 492.5,136.5 492.5,136.5 492.5,136.5 
		492.5,136.5 492.5,136.5 492.5,136.5 492.5,136.5 492.5,136.5 492.5,136.5 492.5,136.5 493.5,136.5 493.5,136.5 493.5,137.5 
		493.5,137.5 493.5,136.5 493.5,136.5 493.5,136.5 493.5,136.5 493.5,137.5 493.5,137.5 493.5,137.5 493.5,137.5 493.5,137.5 
		494.5,137.5 494.5,137.5 494.5,137.5 494.5,137.5 494.5,137.5 494.5,137.5 494.5,137.5 494.5,137.5 494.5,137.5 494.5,136.5 
		494.5,136.5 494.5,136.5 494.5,136.5 495.5,136.5 495.5,135.5 495.5,136.5 495.5,136.5 495.5,135.5 495.5,135.5 495.5,135.5 
		495.5,134.5 495.5,134.5 495.5,134.5 495.5,133.5 495.5,133.5 495.5,133.5 496.5,133.5 496.5,133.5 496.5,133.5 496.5,133.5 
		496.5,133.5 496.5,132.5 496.5,132.5 496.5,132.5 496.5,132.5 496.5,132.5 496.5,132.5 496.5,131.5 496.5,131.5 497.5,131.5 
		497.5,131.5 497.5,131.5 497.5,131.5 497.5,130.5 497.5,130.5 497.5,130.5 497.5,130.5 497.5,130.5 497.5,130.5 497.5,130.5 
		497.5,130.5 497.5,130.5 498.5,130.5 498.5,130.5 498.5,130.5 498.5,130.5 498.5,130.5 498.5,130.5 498.5,130.5 498.5,130.5 
		498.5,130.5 498.5,131.5 498.5,131.5 498.5,131.5 498.5,131.5 499.5,131.5 499.5,131.5 499.5,131.5 499.5,132.5 499.5,132.5 
		499.5,132.5 499.5,132.5 499.5,132.5 499.5,132.5 499.5,132.5 499.5,132.5 499.5,132.5 499.5,132.5 500.5,132.5 500.5,133.5 
		500.5,133.5 500.5,133.5 500.5,133.5 500.5,133.5 500.5,133.5 500.5,133.5 500.5,133.5 500.5,133.5 500.5,133.5 500.5,134.5 
		500.5,134.5 501.5,134.5 501.5,134.5 501.5,134.5 501.5,135.5 501.5,135.5 501.5,135.5 501.5,135.5 501.5,135.5 501.5,135.5 
		501.5,136.5 501.5,136.5 501.5,136.5 501.5,136.5 502.5,137.5 502.5,137.5 502.5,136.5 502.5,136.5 502.5,136.5 502.5,136.5 
		502.5,136.5 502.5,135.5 502.5,135.5 502.5,135.5 502.5,135.5 502.5,135.5 502.5,135.5 503.5,134.5 503.5,134.5 503.5,134.5 
		503.5,134.5 503.5,134.5 503.5,133.5 503.5,133.5 503.5,133.5 503.5,133.5 503.5,132.5 503.5,132.5 503.5,132.5 503.5,132.5 
		504.5,131.5 504.5,131.5 504.5,131.5 504.5,130.5 504.5,130.5 504.5,130.5 504.5,130.5 504.5,130.5 504.5,129.5 504.5,129.5 
		504.5,129.5 504.5,129.5 504.5,128.5 505.5,128.5 505.5,128.5 505.5,128.5 505.5,128.5 505.5,127.5 505.5,127.5 505.5,127.5 
		505.5,127.5 505.5,126.5 505.5,126.5 505.5,126.5 505.5,126.5 505.5,126.5 506.5,125.5 506.5,125.5 506.5,125.5 506.5,125.5 
		506.5,125.5 506.5,124.5 506.5,124.5 506.5,124.5 506.5,124.5 506.5,124.5 506.5,124.5 506.5,124.5 506.5,124.5 507.5,124.5 
		507.5,124.5 507.5,124.5 507.5,124.5 507.5,124.5 507.5,124.5 507.5,125.5 507.5,125.5 507.5,125.5 507.5,125.5 507.5,125.5 
		507.5,126.5 507.5,126.5 508.5,126.5 508.5,126.5 508.5,127.5 508.5,127.5 508.5,127.5 508.5,127.5 508.5,128.5 508.5,128.5 
		508.5,128.5 508.5,128.5 508.5,129.5 508.5,129.5 508.5,129.5 509.5,130.5 509.5,130.5 509.5,130.5 509.5,130.5 509.5,130.5 
		509.5,130.5 509.5,130.5 509.5,130.5 509.5,130.5 509.5,130.5 509.5,130.5 509.5,130.5 509.5,130.5 510.5,130.5 510.5,130.5 
		510.5,130.5 510.5,130.5 510.5,130.5 510.5,130.5 510.5,130.5 510.5,130.5 510.5,131.5 510.5,131.5 510.5,131.5 510.5,131.5 
		510.5,131.5 511.5,131.5 511.5,131.5 511.5,131.5 511.5,131.5 511.5,131.5 511.5,131.5 511.5,131.5 511.5,131.5 511.5,131.5 
		511.5,131.5 511.5,131.5 511.5,131.5 511.5,131.5 512.5,132.5 512.5,132.5 512.5,132.5 512.5,132.5 512.5,132.5 512.5,132.5 
		512.5,132.5 512.5,132.5 512.5,133.5 512.5,133.5 512.5,133.5 512.5,133.5 512.5,133.5 513.5,133.5 513.5,133.5 513.5,133.5 
		513.5,134.5 513.5,134.5 513.5,134.5 513.5,134.5 513.5,135.5 513.5,135.5 513.5,135.5 513.5,135.5 513.5,135.5 513.5,135.5 
		514.5,135.5 514.5,135.5 514.5,135.5 514.5,135.5 514.5,135.5 514.5,135.5 514.5,135.5 514.5,135.5 514.5,134.5 514.5,135.5 
		514.5,135.5 514.5,135.5 514.5,135.5 515.5,135.5 515.5,135.5 515.5,136.5 515.5,136.5 515.5,136.5 515.5,137.5 515.5,137.5 
		515.5,137.5 515.5,138.5 515.5,138.5 515.5,138.5 515.5,138.5 515.5,139.5 516.5,139.5 516.5,139.5 516.5,139.5 516.5,139.5 
		516.5,140.5 516.5,140.5 516.5,140.5 516.5,140.5 516.5,140.5 516.5,140.5 516.5,140.5 516.5,140.5 516.5,141.5 517.5,141.5 
		517.5,142.5 517.5,142.5 517.5,142.5 517.5,142.5 517.5,142.5 517.5,142.5 517.5,142.5 517.5,143.5 517.5,143.5 517.5,143.5 
		517.5,143.5 517.5,143.5 518.5,143.5 518.5,143.5 518.5,143.5 518.5,144.5 518.5,144.5 518.5,144.5 518.5,144.5 518.5,144.5 
		518.5,145.5 518.5,145.5 518.5,145.5 518.5,145.5 518.5,145.5 519.5,146.5 519.5,146.5 519.5,146.5 519.5,146.5 519.5,147.5 
		519.5,147.5 519.5,147.5 519.5,147.5 519.5,147.5 519.5,148.5 519.5,148.5 519.5,148.5 519.5,148.5 520.5,148.5 520.5,148.5 
		520.5,148.5 520.5,149.5 520.5,148.5 520.5,148.5 520.5,148.5 520.5,148.5 520.5,148.5 520.5,149.5 520.5,149.5 520.5,149.5 
		520.5,149.5 521.5,149.5 521.5,149.5 521.5,149.5 521.5,149.5 521.5,149.5 521.5,149.5 521.5,149.5 521.5,149.5 521.5,149.5 
		521.5,149.5 521.5,150.5 521.5,149.5 521.5,149.5 522.5,149.5 522.5,149.5 522.5,149.5 522.5,149.5 522.5,149.5 522.5,149.5 
		522.5,149.5 522.5,149.5 522.5,149.5 522.5,149.5 522.5,149.5 522.5,149.5 522.5,149.5 523.5,149.5 523.5,149.5 523.5,150.5 
		523.5,150.5 523.5,150.5 523.5,150.5 523.5,150.5 523.5,150.5 523.5,150.5 523.5,150.5 523.5,150.5 523.5,150.5 523.5,150.5 
		524.5,151.5 524.5,151.5 524.5,151.5 524.5,151.5 524.5,151.5 524.5,151.5 524.5,151.5 524.5,151.5 524.5,151.5 524.5,151.5 
		524.5,152.5 524.5,151.5 524.5,152.5 525.5,152.5 525.5,152.5 525.5,152.5 525.5,152.5 525.5,153.5 525.5,153.5 525.5,153.5 
		525.5,153.5 525.5,153.5 525.5,153.5 525.5,153.5 525.5,153.5 525.5,153.5 526.5,153.5 526.5,153.5 526.5,153.5 526.5,153.5 
		526.5,153.5 526.5,153.5 526.5,153.5 526.5,152.5 526.5,152.5 526.5,152.5 526.5,152.5 526.5,152.5 526.5,152.5 527.5,152.5 
		527.5,152.5 527.5,152.5 527.5,152.5 527.5,152.5 527.5,152.5 527.5,152.5 527.5,152.5 527.5,152.5 527.5,152.5 527.5,152.5 
		527.5,152.5 527.5,152.5 528.5,152.5 528.5,152.5 528.5,152.5 528.5,152.5 528.5,152.5 528.5,152.5 528.5,152.5 528.5,152.5 
		528.5,152.5 528.5,152.5 528.5,152.5 528.5,152.5 528.5,152.5 529.5,152.5 529.5,152.5 529.5,152.5 529.5,152.5 529.5,152.5 
		529.5,152.5 529.5,152.5 529.5,152.5 529.5,152.5 529.5,152.5 529.5,152.5 529.5,152.5 529.5,152.5 530.5,152.5 530.5,152.5 
		530.5,152.5 530.5,152.5 530.5,152.5 530.5,152.5 530.5,152.5 530.5,152.5 530.5,153.5 530.5,153.5 530.5,153.5 530.5,154.5 
		530.5,154.5 531.5,154.5 531.5,154.5 531.5,153.5 531.5,153.5 531.5,153.5 531.5,153.5 531.5,153.5 531.5,153.5 531.5,153.5 
		531.5,152.5 531.5,152.5 531.5,151.5 531.5,151.5 532.5,151.5 532.5,151.5 532.5,151.5 532.5,151.5 532.5,151.5 532.5,151.5 
		532.5,151.5 532.5,151.5 532.5,151.5 532.5,151.5 532.5,151.5 532.5,151.5 532.5,151.5 533.5,151.5 533.5,151.5 533.5,151.5 
		533.5,152.5 533.5,152.5 533.5,152.5 533.5,153.5 533.5,153.5 533.5,153.5 533.5,153.5 533.5,154.5 533.5,154.5 533.5,154.5 
		534.5,155.5 534.5,155.5 534.5,155.5 534.5,155.5 534.5,155.5 534.5,155.5 534.5,155.5 534.5,155.5 534.5,154.5 534.5,154.5 
		534.5,154.5 534.5,154.5 534.5,154.5 534.5,154.5 535.5,154.5 535.5,154.5 535.5,153.5 535.5,153.5 535.5,153.5 535.5,153.5 
		535.5,153.5 535.5,153.5 535.5,153.5 535.5,153.5 535.5,153.5 535.5,153.5 535.5,153.5 536.5,153.5 536.5,153.5 536.5,153.5 
		536.5,153.5 536.5,153.5 536.5,153.5 536.5,153.5 536.5,154.5 536.5,154.5 536.5,154.5 536.5,154.5 536.5,154.5 536.5,154.5 
		537.5,154.5 537.5,154.5 537.5,153.5 537.5,153.5 537.5,153.5 537.5,153.5 537.5,153.5 537.5,153.5 537.5,153.5 537.5,153.5 
		537.5,153.5 537.5,153.5 537.5,153.5 538.5,153.5 538.5,153.5 538.5,152.5 538.5,152.5 538.5,152.5 538.5,152.5 538.5,151.5 
		538.5,151.5 538.5,151.5 538.5,151.5 538.5,150.5 538.5,150.5 538.5,150.5 539.5,150.5 539.5,150.5 539.5,150.5 539.5,150.5 
		539.5,150.5 539.5,149.5 539.5,149.5 539.5,149.5 539.5,149.5 539.5,149.5 539.5,148.5 539.5,148.5 539.5,148.5 540.5,148.5 
		540.5,148.5 540.5,148.5 540.5,148.5 540.5,148.5 540.5,148.5 540.5,148.5 540.5,148.5 540.5,148.5 540.5,147.5 540.5,147.5 
		540.5,148.5 540.5,148.5 541.5,148.5 541.5,148.5 541.5,149.5 541.5,149.5 541.5,149.5 541.5,150.5 541.5,150.5 541.5,150.5 
		541.5,151.5 541.5,151.5 541.5,151.5 541.5,152.5 541.5,152.5 542.5,153.5 542.5,153.5 542.5,153.5 542.5,153.5 542.5,153.5 
		542.5,153.5 542.5,153.5 542.5,153.5 542.5,153.5 542.5,153.5 542.5,154.5 542.5,154.5 542.5,154.5 543.5,154.5 543.5,153.5 
		543.5,153.5 543.5,153.5 543.5,154.5 543.5,154.5 543.5,154.5 543.5,154.5 543.5,154.5 543.5,154.5 543.5,154.5 543.5,154.5 
		543.5,154.5 544.5,154.5 544.5,155.5 544.5,155.5 544.5,155.5 544.5,155.5 544.5,156.5 544.5,156.5 544.5,156.5 544.5,156.5 
		544.5,156.5 544.5,156.5 544.5,156.5 544.5,157.5 545.5,157.5 545.5,157.5 545.5,157.5 545.5,157.5 545.5,157.5 545.5,157.5 
		545.5,157.5 545.5,157.5 545.5,157.5 545.5,157.5 545.5,157.5 545.5,157.5 545.5,157.5 546.5,157.5 546.5,157.5 546.5,157.5 
		546.5,157.5 546.5,157.5 546.5,157.5 546.5,157.5 546.5,157.5 546.5,157.5 546.5,157.5 546.5,157.5 546.5,157.5 546.5,157.5 
		547.5,157.5 547.5,157.5 547.5,157.5 547.5,157.5 547.5,156.5 547.5,156.5 547.5,156.5 547.5,156.5 547.5,156.5 547.5,156.5 
		547.5,156.5 547.5,156.5 547.5,156.5 548.5,156.5 548.5,156.5 548.5,156.5 548.5,156.5 548.5,156.5 548.5,156.5 548.5,156.5 
		548.5,156.5 548.5,155.5 548.5,155.5 548.5,155.5 548.5,155.5 548.5,155.5 549.5,155.5 549.5,155.5 549.5,155.5 549.5,155.5 
		549.5,155.5 549.5,155.5 549.5,155.5 549.5,155.5 549.5,155.5 549.5,155.5 549.5,155.5 549.5,155.5 549.5,155.5 550.5,155.5 
		550.5,155.5 550.5,155.5 550.5,155.5 550.5,155.5 550.5,154.5 550.5,154.5 550.5,153.5 550.5,152.5 550.5,152.5 550.5,152.5 
		550.5,152.5 550.5,152.5 551.5,151.5 551.5,151.5 551.5,151.5 551.5,151.5 551.5,151.5 551.5,151.5 551.5,151.5 551.5,151.5 
		551.5,151.5 551.5,151.5 551.5,150.5 551.5,150.5 551.5,150.5 552.5,150.5 552.5,150.5 552.5,150.5 552.5,150.5 552.5,150.5 
		552.5,150.5 552.5,150.5 552.5,150.5 552.5,151.5 552.5,151.5 552.5,151.5 552.5,151.5 552.5,150.5 553.5,150.5 553.5,150.5 
		553.5,150.5 553.5,150.5 553.5,150.5 553.5,150.5 553.5,150.5 553.5,150.5 553.5,150.5 553.5,150.5 553.5,150.5 553.5,150.5 
		553.5,149.5 554.5,149.5 554.5,149.5 554.5,149.5 554.5,149.5 554.5,149.5 554.5,149.5 554.5,149.5 554.5,149.5 554.5,149.5 
		554.5,149.5 554.5,149.5 554.5,149.5 554.5,149.5 555.5,149.5 555.5,149.5 555.5,149.5 555.5,149.5 555.5,149.5 555.5,149.5 
		555.5,150.5 555.5,150.5 555.5,150.5 555.5,150.5 555.5,150.5 555.5,150.5 555.5,150.5 556.5,150.5 556.5,150.5 556.5,150.5 
		556.5,150.5 556.5,151.5 556.5,151.5 556.5,152.5 556.5,151.5 556.5,151.5 556.5,151.5 556.5,151.5 556.5,151.5 556.5,151.5 
		557.5,150.5 557.5,150.5 557.5,151.5 557.5,151.5 557.5,151.5 557.5,151.5 557.5,152.5 557.5,152.5 557.5,152.5 557.5,152.5 
		557.5,152.5 557.5,153.5 557.5,153.5 558.5,153.5 558.5,153.5 558.5,153.5 558.5,153.5 558.5,153.5 558.5,153.5 558.5,153.5 
		558.5,153.5 558.5,153.5 558.5,153.5 558.5,153.5 558.5,153.5 558.5,153.5 559.5,153.5 559.5,153.5 559.5,154.5 559.5,154.5 
		559.5,154.5 559.5,154.5 559.5,154.5 559.5,154.5 559.5,154.5 559.5,154.5 559.5,154.5 559.5,154.5 559.5,153.5 560.5,153.5 
		560.5,153.5 560.5,153.5 560.5,153.5 560.5,152.5 560.5,152.5 560.5,152.5 560.5,152.5 560.5,152.5 560.5,152.5 560.5,152.5 
		560.5,152.5 560.5,152.5 561.5,152.5 561.5,152.5 561.5,150.5 561.5,149.5 561.5,148.5 561.5,148.5 561.5,148.5 561.5,148.5 
		561.5,148.5 561.5,148.5 561.5,147.5 561.5,147.5 561.5,147.5 562.5,147.5 562.5,147.5 562.5,147.5 562.5,147.5 562.5,147.5 
		562.5,147.5 562.5,147.5 562.5,146.5 562.5,146.5 562.5,146.5 562.5,146.5 562.5,146.5 562.5,146.5 563.5,146.5 563.5,146.5 
		563.5,146.5 563.5,146.5 563.5,146.5 563.5,147.5 563.5,147.5 563.5,147.5 563.5,147.5 563.5,147.5 563.5,147.5 563.5,147.5 
		563.5,147.5 564.5,147.5 564.5,147.5 564.5,148.5 564.5,148.5 564.5,148.5 564.5,148.5 564.5,148.5 564.5,148.5 564.5,148.5 
		564.5,148.5 564.5,148.5 564.5,148.5 564.5,148.5 565.5,148.5 565.5,148.5 565.5,148.5 565.5,148.5 565.5,148.5 565.5,148.5 
		565.5,147.5 565.5,147.5 565.5,147.5 565.5,147.5 565.5,147.5 565.5,147.5 565.5,147.5 566.5,147.5 566.5,146.5 566.5,146.5 
		566.5,146.5 566.5,146.5 566.5,146.5 566.5,146.5 566.5,146.5 566.5,146.5 566.5,146.5 566.5,146.5 566.5,146.5 566.5,146.5 
		567.5,146.5 567.5,146.5 567.5,147.5 567.5,147.5 567.5,147.5 567.5,147.5 567.5,147.5 567.5,147.5 567.5,147.5 567.5,147.5 
		567.5,147.5 567.5,147.5 567.5,147.5 568.5,147.5 568.5,147.5 568.5,147.5 568.5,147.5 568.5,147.5 568.5,147.5 568.5,147.5 
		568.5,147.5 568.5,147.5 568.5,147.5 568.5,146.5 568.5,146.5 568.5,146.5 569.5,146.5 569.5,146.5 569.5,146.5 569.5,146.5 
		569.5,146.5 569.5,146.5 569.5,146.5 569.5,146.5 569.5,146.5 569.5,146.5 569.5,147.5 569.5,147.5 569.5,147.5 570.5,147.5 
		570.5,147.5 570.5,147.5 570.5,147.5 570.5,147.5 570.5,146.5 570.5,146.5 570.5,146.5 570.5,146.5 570.5,146.5 570.5,146.5 
		570.5,146.5 570.5,146.5 571.5,146.5 571.5,146.5 571.5,146.5 571.5,146.5 571.5,146.5 571.5,146.5 571.5,146.5 571.5,146.5 
		571.5,145.5 571.5,145.5 571.5,145.5 571.5,144.5 571.5,144.5 572.5,144.5 572.5,144.5 572.5,144.5 572.5,144.5 572.5,144.5 
		572.5,144.5 572.5,143.5 572.5,143.5 572.5,143.5 572.5,143.5 572.5,143.5 572.5,143.5 572.5,143.5 573.5,142.5 573.5,142.5 
		573.5,142.5 573.5,142.5 573.5,143.5 573.5,143.5 573.5,143.5 573.5,143.5 573.5,142.5 573.5,142.5 573.5,143.5 573.5,143.5 
		573.5,143.5 574.5,143.5 574.5,143.5 574.5,143.5 574.5,143.5 574.5,143.5 574.5,143.5 574.5,143.5 574.5,143.5 574.5,143.5 
		574.5,143.5 574.5,142.5 574.5,142.5 574.5,142.5 575.5,142.5 575.5,141.5 575.5,141.5 575.5,141.5 575.5,141.5 575.5,140.5 
		575.5,140.5 575.5,140.5 575.5,140.5 575.5,139.5 575.5,139.5 575.5,139.5 575.5,138.5 576.5,138.5 576.5,138.5 576.5,137.5 
		576.5,137.5 576.5,136.5 576.5,136.5 576.5,136.5 576.5,135.5 576.5,135.5 576.5,134.5 576.5,134.5 576.5,134.5 576.5,133.5 
		577.5,133.5 577.5,133.5 577.5,132.5 577.5,132.5 577.5,132.5 577.5,132.5 577.5,131.5 577.5,131.5 577.5,131.5 577.5,131.5 
		577.5,131.5 577.5,131.5 577.5,131.5 578.5,131.5 578.5,130.5 578.5,131.5 578.5,130.5 578.5,130.5 578.5,131.5 578.5,131.5 
		578.5,131.5 578.5,131.5 578.5,131.5 578.5,131.5 578.5,131.5 578.5,131.5 579.5,131.5 579.5,132.5 579.5,132.5 579.5,132.5 
		579.5,132.5 579.5,133.5 579.5,133.5 579.5,133.5 579.5,133.5 579.5,133.5 579.5,133.5 579.5,133.5 579.5,133.5 580.5,134.5 
		580.5,134.5 580.5,134.5 580.5,134.5 580.5,134.5 580.5,135.5 580.5,135.5 580.5,135.5 580.5,135.5 580.5,135.5 580.5,135.5 
		580.5,135.5 580.5,135.5 581.5,135.5 581.5,135.5 581.5,135.5 581.5,135.5 581.5,136.5 581.5,136.5 581.5,136.5 581.5,136.5 
		581.5,136.5 581.5,136.5 581.5,136.5 581.5,136.5 581.5,136.5 582.5,136.5 582.5,135.5 582.5,135.5 582.5,135.5 582.5,135.5 
		582.5,135.5 582.5,135.5 582.5,135.5 582.5,135.5 582.5,135.5 582.5,135.5 582.5,135.5 582.5,135.5 583.5,135.5 583.5,134.5 
		583.5,134.5 583.5,134.5 583.5,134.5 583.5,134.5 583.5,134.5 583.5,134.5 583.5,134.5 583.5,134.5 583.5,134.5 583.5,134.5 
		583.5,134.5 584.5,134.5 584.5,134.5 584.5,134.5 584.5,134.5 584.5,134.5 584.5,134.5 584.5,134.5 584.5,134.5 584.5,134.5 
		584.5,135.5 584.5,135.5 584.5,136.5 584.5,136.5 585.5,136.5 585.5,136.5 585.5,136.5 585.5,136.5 585.5,136.5 585.5,136.5 
		585.5,136.5 585.5,136.5 585.5,136.5 585.5,136.5 585.5,136.5 585.5,135.5 585.5,135.5 586.5,135.5 586.5,135.5 586.5,135.5 
		586.5,134.5 586.5,134.5 586.5,134.5 586.5,134.5 586.5,133.5 586.5,133.5 586.5,133.5 586.5,133.5 586.5,133.5 586.5,132.5 
		587.5,132.5 587.5,132.5 587.5,132.5 587.5,131.5 587.5,131.5 587.5,131.5 587.5,131.5 587.5,130.5 587.5,130.5 587.5,130.5 
		587.5,130.5 587.5,130.5 587.5,130.5 588.5,129.5 588.5,129.5 588.5,129.5 588.5,129.5 588.5,129.5 588.5,129.5 588.5,129.5 
		588.5,129.5 588.5,129.5 588.5,128.5 588.5,128.5 588.5,128.5 588.5,128.5 589.5,128.5 589.5,128.5 589.5,128.5 589.5,127.5 
		589.5,127.5 589.5,127.5 589.5,127.5 589.5,127.5 589.5,126.5 589.5,126.5 589.5,126.5 589.5,126.5 589.5,126.5 590.5,126.5 
		590.5,126.5 590.5,126.5 590.5,126.5 590.5,126.5 590.5,126.5 590.5,126.5 590.5,126.5 590.5,126.5 590.5,127.5 590.5,127.5 
		590.5,127.5 590.5,127.5 591.5,128.5 591.5,128.5 591.5,128.5 591.5,128.5 591.5,128.5 591.5,128.5 591.5,128.5 591.5,128.5 
		591.5,128.5 591.5,128.5 591.5,129.5 591.5,129.5 591.5,129.5 591.5,129.5 592.5,129.5 592.5,129.5 592.5,130.5 592.5,130.5 
		592.5,130.5 592.5,130.5 592.5,130.5 592.5,130.5 592.5,130.5 592.5,130.5 592.5,130.5 592.5,130.5 592.5,130.5 593.5,130.5 
		593.5,130.5 593.5,129.5 593.5,129.5 593.5,129.5 593.5,129.5 593.5,128.5 593.5,128.5 593.5,128.5 593.5,128.5 593.5,127.5 
		593.5,127.5 593.5,127.5 594.5,127.5 594.5,126.5 594.5,126.5 594.5,126.5 594.5,126.5 594.5,125.5 594.5,125.5 594.5,125.5 
		594.5,125.5 594.5,125.5 594.5,125.5 594.5,125.5 594.5,125.5 595.5,125.5 595.5,124.5 595.5,124.5 595.5,124.5 595.5,124.5 
		595.5,123.5 595.5,123.5 595.5,123.5 595.5,124.5 595.5,123.5 595.5,123.5 595.5,123.5 595.5,124.5 596.5,124.5 596.5,124.5 
		596.5,124.5 596.5,124.5 596.5,123.5 596.5,123.5 596.5,123.5 596.5,123.5 596.5,123.5 596.5,123.5 596.5,123.5 596.5,123.5 
		596.5,123.5 597.5,123.5 597.5,123.5 597.5,123.5 597.5,123.5 597.5,123.5 597.5,123.5 597.5,123.5 597.5,123.5 597.5,123.5 
		597.5,123.5 597.5,123.5 597.5,124.5 597.5,124.5 598.5,124.5 598.5,124.5 598.5,124.5 598.5,124.5 598.5,124.5 598.5,125.5 
		598.5,125.5 598.5,125.5 598.5,125.5 598.5,126.5 598.5,126.5 598.5,126.5 598.5,126.5 599.5,126.5 599.5,126.5 599.5,127.5 
		599.5,127.5 599.5,127.5 599.5,127.5 599.5,127.5 599.5,127.5 599.5,127.5 599.5,128.5 599.5,128.5 599.5,128.5 599.5,128.5 
		600.5,128.5 600.5,128.5 600.5,129.5 600.5,129.5 600.5,129.5 600.5,129.5 600.5,130.5 600.5,130.5 600.5,130.5 600.5,130.5 
		600.5,130.5 600.5,131.5 600.5,131.5 601.5,131.5 601.5,131.5 601.5,131.5 601.5,131.5 601.5,132.5 601.5,132.5 601.5,132.5 
		601.5,132.5 601.5,132.5 601.5,132.5 601.5,132.5 601.5,132.5 601.5,132.5 602.5,132.5 602.5,132.5 602.5,133.5 602.5,133.5 
		602.5,132.5 602.5,132.5 602.5,132.5 602.5,132.5 602.5,132.5 602.5,132.5 602.5,132.5 602.5,131.5 602.5,131.5 603.5,131.5 
		603.5,131.5 603.5,131.5 603.5,131.5 603.5,131.5 603.5,131.5 603.5,130.5 603.5,130.5 603.5,130.5 603.5,130.5 603.5,130.5 
		603.5,130.5 603.5,129.5 604.5,129.5 604.5,129.5 604.5,129.5 604.5,129.5 604.5,129.5 604.5,128.5 604.5,128.5 604.5,128.5 
		604.5,128.5 604.5,128.5 604.5,128.5 604.5,128.5 604.5,128.5 605.5,128.5 605.5,128.5 605.5,128.5 605.5,127.5 605.5,127.5 
		605.5,127.5 605.5,127.5 605.5,127.5 605.5,127.5 605.5,126.5 605.5,126.5 605.5,126.5 605.5,126.5 606.5,126.5 606.5,126.5 
		606.5,126.5 606.5,126.5 606.5,125.5 606.5,125.5 606.5,125.5 606.5,125.5 606.5,125.5 606.5,125.5 606.5,124.5 606.5,124.5 
		606.5,124.5 607.5,124.5 607.5,123.5 607.5,123.5 607.5,123.5 607.5,123.5 607.5,122.5 607.5,122.5 607.5,122.5 607.5,122.5 
		607.5,121.5 607.5,121.5 607.5,121.5 607.5,121.5 608.5,121.5 608.5,121.5 608.5,122.5 608.5,122.5 608.5,122.5 608.5,122.5 
		608.5,122.5 608.5,122.5 608.5,122.5 608.5,122.5 608.5,122.5 608.5,122.5 608.5,122.5 609.5,123.5 609.5,123.5 609.5,123.5 
		609.5,123.5 609.5,124.5 609.5,124.5 609.5,124.5 609.5,124.5 609.5,124.5 609.5,124.5 609.5,124.5 609.5,124.5 609.5,124.5 
		610.5,124.5 610.5,124.5 610.5,124.5 610.5,124.5 610.5,124.5 610.5,124.5 610.5,124.5 610.5,124.5 610.5,124.5 610.5,124.5 
		610.5,125.5 610.5,125.5 610.5,125.5 611.5,125.5 611.5,125.5 611.5,125.5 611.5,125.5 611.5,125.5 611.5,125.5 611.5,125.5 
		611.5,125.5 611.5,125.5 611.5,125.5 611.5,125.5 611.5,124.5 611.5,124.5 612.5,123.5 612.5,123.5 612.5,123.5 612.5,123.5 
		612.5,123.5 612.5,122.5 612.5,122.5 612.5,122.5 612.5,123.5 612.5,123.5 612.5,122.5 612.5,122.5 612.5,122.5 613.5,122.5 
		613.5,122.5 613.5,122.5 613.5,122.5 613.5,122.5 613.5,122.5 613.5,122.5 613.5,122.5 613.5,122.5 613.5,122.5 613.5,122.5 
		613.5,122.5 613.5,122.5 614.5,122.5 614.5,122.5 614.5,122.5 614.5,122.5 614.5,122.5 614.5,122.5 614.5,122.5 614.5,122.5 
		614.5,122.5 614.5,122.5 614.5,122.5 614.5,122.5 614.5,122.5 615.5,122.5 615.5,122.5 615.5,122.5 615.5,122.5 615.5,122.5 
		615.5,122.5 615.5,122.5 615.5,122.5 615.5,122.5 615.5,122.5 615.5,122.5 615.5,122.5 615.5,122.5 616.5,122.5 616.5,122.5 
		616.5,121.5 616.5,121.5 616.5,121.5 616.5,121.5 616.5,121.5 616.5,121.5 616.5,121.5 616.5,121.5 616.5,121.5 616.5,121.5 
		616.5,121.5 617.5,121.5 617.5,121.5 617.5,121.5 617.5,121.5 617.5,121.5 617.5,121.5 617.5,121.5 617.5,121.5 617.5,121.5 
		617.5,121.5 617.5,121.5 617.5,121.5 617.5,121.5 618.5,121.5 618.5,121.5 618.5,121.5 618.5,121.5 618.5,121.5 618.5,121.5 
		618.5,121.5 618.5,121.5 618.5,121.5 618.5,121.5 618.5,121.5 618.5,121.5 618.5,121.5 619.5,121.5 619.5,121.5 619.5,121.5 
		619.5,121.5 619.5,120.5 619.5,120.5 619.5,120.5 619.5,120.5 619.5,120.5 619.5,120.5 619.5,120.5 619.5,120.5 619.5,120.5 
		620.5,120.5 620.5,120.5 620.5,120.5 620.5,120.5 620.5,121.5 620.5,120.5 620.5,120.5 620.5,121.5 620.5,121.5 620.5,121.5 
		620.5,121.5 620.5,121.5 620.5,121.5 621.5,121.5 621.5,121.5 621.5,121.5 621.5,121.5 621.5,121.5 621.5,120.5 621.5,120.5 
		621.5,120.5 621.5,120.5 621.5,119.5 621.5,119.5 621.5,119.5 621.5,119.5 622.5,119.5 622.5,119.5 622.5,119.5 622.5,118.5 
		622.5,118.5 622.5,118.5 622.5,118.5 622.5,117.5 622.5,117.5 622.5,117.5 622.5,117.5 622.5,117.5 622.5,117.5 623.5,117.5 
		623.5,117.5 623.5,117.5 623.5,117.5 623.5,117.5 623.5,117.5 623.5,116.5 623.5,116.5 623.5,116.5 623.5,115.5 623.5,115.5 
		623.5,115.5 623.5,115.5 624.5,114.5 624.5,114.5 624.5,114.5 624.5,114.5 624.5,114.5 624.5,114.5 624.5,113.5 624.5,113.5 
		624.5,113.5 624.5,113.5 624.5,113.5 624.5,114.5 624.5,114.5 625.5,114.5 625.5,113.5 625.5,113.5 625.5,113.5 625.5,113.5 
		625.5,113.5 625.5,113.5 625.5,113.5 625.5,113.5 625.5,113.5 625.5,113.5 625.5,113.5 625.5,113.5 626.5,113.5 626.5,113.5 
		626.5,113.5 626.5,113.5 626.5,113.5 626.5,113.5 626.5,113.5 626.5,113.5 626.5,113.5 626.5,113.5 626.5,113.5 626.5,113.5 
		626.5,113.5 627.5,113.5 627.5,113.5 627.5,113.5 627.5,113.5 627.5,113.5 627.5,112.5 627.5,112.5 627.5,112.5 627.5,112.5 
		627.5,112.5 627.5,112.5 627.5,113.5 627.5,112.5 628.5,112.5 628.5,113.5 628.5,113.5 628.5,113.5 628.5,113.5 628.5,113.5 
		628.5,113.5 628.5,113.5 628.5,114.5 628.5,114.5 628.5,114.5 628.5,114.5 628.5,114.5 629.5,114.5 629.5,114.5 629.5,115.5 
		629.5,115.5 629.5,116.5 629.5,116.5 629.5,116.5 629.5,116.5 629.5,116.5 629.5,116.5 629.5,116.5 629.5,116.5 629.5,116.5 
		630.5,116.5 630.5,116.5 630.5,116.5 630.5,117.5 630.5,117.5 630.5,117.5 630.5,117.5 630.5,117.5 630.5,117.5 630.5,117.5 
		630.5,117.5 630.5,117.5 630.5,117.5 631.5,117.5 631.5,117.5 631.5,118.5 631.5,118.5 631.5,118.5 631.5,118.5 631.5,118.5 
		631.5,118.5 631.5,118.5 631.5,118.5 631.5,118.5 631.5,118.5 631.5,118.5 632.5,118.5 632.5,117.5 632.5,117.5 632.5,117.5 
		632.5,117.5 632.5,117.5 632.5,117.5 632.5,117.5 632.5,117.5 632.5,117.5 632.5,117.5 632.5,117.5 632.5,117.5 633.5,117.5 
		633.5,117.5 633.5,117.5 633.5,117.5 633.5,117.5 633.5,118.5 633.5,118.5 633.5,118.5 633.5,118.5 633.5,118.5 633.5,118.5 
		633.5,118.5 633.5,119.5 634.5,119.5 634.5,119.5 634.5,119.5 634.5,119.5 634.5,119.5 634.5,120.5 634.5,120.5 634.5,120.5 
		634.5,120.5 634.5,120.5 634.5,120.5 634.5,120.5 634.5,119.5 635.5,119.5 635.5,119.5 635.5,119.5 635.5,118.5 635.5,118.5 
		635.5,117.5 635.5,117.5 635.5,117.5 635.5,116.5 635.5,115.5 635.5,115.5 635.5,115.5 635.5,115.5 636.5,115.5 636.5,114.5 
		636.5,114.5 636.5,114.5 636.5,114.5 636.5,114.5 636.5,114.5 636.5,114.5 636.5,114.5 636.5,114.5 636.5,114.5 636.5,114.5 
		636.5,113.5 637.5,113.5 637.5,113.5 637.5,113.5 637.5,113.5 637.5,112.5 637.5,112.5 637.5,112.5 637.5,112.5 637.5,112.5 
		637.5,112.5 637.5,112.5 637.5,112.5 637.5,112.5 638.5,111.5 638.5,111.5 638.5,111.5 638.5,111.5 638.5,111.5 638.5,111.5 
		638.5,111.5 638.5,111.5 638.5,111.5 638.5,111.5 638.5,111.5 638.5,111.5 638.5,111.5 639.5,111.5 639.5,111.5 639.5,110.5 
		639.5,110.5 639.5,109.5 639.5,109.5 639.5,109.5 639.5,108.5 639.5,108.5 639.5,107.5 639.5,107.5 639.5,107.5 639.5,107.5 
		640.5,106.5 640.5,106.5 640.5,106.5 640.5,105.5 640.5,105.5 640.5,105.5 640.5,104.5 640.5,104.5 640.5,104.5 640.5,103.5 
		640.5,103.5 640.5,103.5 640.5,102.5 641.5,102.5 641.5,101.5 641.5,101.5 641.5,101.5 641.5,100.5 641.5,100.5 641.5,100.5 
		641.5,100.5 641.5,100.5 641.5,100.5 641.5,99.5 641.5,99.5 641.5,99.5 642.5,99.5 642.5,99.5 642.5,98.5 642.5,98.5 642.5,99.5 
		642.5,99.5 642.5,99.5 642.5,100.5 642.5,100.5 642.5,100.5 642.5,101.5 642.5,101.5 642.5,102.5 643.5,102.5 643.5,102.5 
		643.5,103.5 643.5,103.5 643.5,104.5 643.5,104.5 643.5,105.5 643.5,105.5 643.5,106.5 643.5,106.5 643.5,107.5 643.5,107.5 
		643.5,108.5 644.5,109.5 644.5,109.5 644.5,110.5 644.5,110.5 644.5,110.5 644.5,111.5 644.5,111.5 644.5,112.5 644.5,112.5 
		644.5,112.5 644.5,113.5 644.5,113.5 644.5,114.5 645.5,114.5 645.5,115.5 645.5,115.5 645.5,115.5 645.5,116.5 645.5,116.5 
		645.5,117.5 645.5,117.5 645.5,118.5 645.5,118.5 645.5,119.5 645.5,120.5 645.5,120.5 646.5,122.5 646.5,123.5 646.5,124.5 
		646.5,124.5 646.5,123.5 646.5,123.5 646.5,122.5 646.5,122.5 646.5,122.5 646.5,122.5 646.5,122.5 646.5,122.5 646.5,122.5 
		647.5,122.5 647.5,121.5 647.5,121.5 647.5,121.5 647.5,121.5 647.5,121.5 647.5,121.5 647.5,121.5 647.5,121.5 647.5,121.5 
		647.5,121.5 647.5,121.5 647.5,122.5 647.5,122.5 648.5,122.5 648.5,122.5 648.5,122.5 648.5,123.5 648.5,123.5 648.5,124.5 
		648.5,124.5 648.5,125.5 648.5,125.5 648.5,125.5 648.5,125.5 648.5,126.5 648.5,126.5 649.5,126.5 649.5,126.5 649.5,126.5 
		649.5,126.5 649.5,127.5 649.5,128.5 649.5,129.5 649.5,129.5 649.5,128.5 649.5,128.5 649.5,128.5 649.5,128.5 649.5,128.5 
		650.5,128.5 650.5,128.5 650.5,128.5 650.5,129.5 650.5,129.5 650.5,129.5 650.5,129.5 650.5,130.5 650.5,131.5 650.5,131.5 
		650.5,130.5 650.5,130.5 650.5,129.5 651.5,130.5 651.5,130.5 651.5,129.5 651.5,128.5 651.5,127.5 651.5,126.5 651.5,126.5 
		651.5,125.5 651.5,125.5 651.5,125.5 651.5,125.5 651.5,125.5 651.5,125.5 652.5,124.5 652.5,124.5 652.5,124.5 652.5,124.5 
		652.5,124.5 652.5,124.5 652.5,124.5 652.5,124.5 652.5,123.5 652.5,123.5 652.5,123.5 652.5,123.5 652.5,123.5 653.5,123.5 
		653.5,123.5 653.5,123.5 653.5,123.5 653.5,122.5 653.5,122.5 653.5,122.5 653.5,122.5 653.5,121.5 653.5,121.5 653.5,121.5 
		653.5,120.5 653.5,120.5 654.5,120.5 654.5,120.5 654.5,120.5 654.5,120.5 654.5,120.5 654.5,120.5 654.5,120.5 654.5,120.5 
		654.5,120.5 654.5,120.5 654.5,121.5 654.5,121.5 654.5,121.5 655.5,121.5 655.5,121.5 655.5,121.5 655.5,122.5 655.5,122.5 
		655.5,122.5 655.5,122.5 655.5,122.5 655.5,123.5 655.5,123.5 655.5,123.5 655.5,123.5 655.5,124.5 656.5,124.5 656.5,124.5 
		656.5,124.5 656.5,125.5 656.5,125.5 656.5,125.5 656.5,125.5 656.5,125.5 656.5,125.5 656.5,126.5 656.5,126.5 656.5,126.5 
		656.5,126.5 657.5,126.5 657.5,126.5 657.5,126.5 657.5,126.5 657.5,126.5 657.5,126.5 657.5,126.5 657.5,126.5 657.5,127.5 
		657.5,127.5 657.5,127.5 657.5,127.5 657.5,127.5 658.5,127.5 658.5,127.5 658.5,127.5 658.5,127.5 658.5,127.5 658.5,127.5 
		658.5,127.5 658.5,128.5 658.5,128.5 658.5,128.5 658.5,128.5 658.5,128.5 658.5,128.5 659.5,129.5 659.5,129.5 659.5,129.5 
		659.5,129.5 659.5,129.5 659.5,129.5 659.5,129.5 659.5,129.5 659.5,130.5 659.5,130.5 659.5,130.5 659.5,130.5 659.5,131.5 
		660.5,131.5 660.5,131.5 660.5,131.5 660.5,131.5 660.5,131.5 660.5,131.5 660.5,131.5 660.5,132.5 660.5,132.5 660.5,132.5 
		660.5,132.5 660.5,132.5 660.5,133.5 661.5,133.5 661.5,133.5 661.5,133.5 661.5,133.5 661.5,133.5 661.5,133.5 661.5,133.5 
		661.5,133.5 661.5,133.5 661.5,133.5 661.5,133.5 661.5,132.5 661.5,132.5 662.5,131.5 662.5,131.5 662.5,131.5 662.5,131.5 
		662.5,131.5 662.5,131.5 662.5,131.5 662.5,131.5 662.5,130.5 662.5,130.5 662.5,130.5 662.5,131.5 662.5,131.5 663.5,131.5 
		663.5,131.5 663.5,131.5 663.5,131.5 663.5,131.5 663.5,131.5 663.5,131.5 663.5,130.5 663.5,130.5 663.5,130.5 663.5,130.5 
		663.5,129.5 663.5,129.5 664.5,129.5 664.5,129.5 664.5,129.5 664.5,128.5 664.5,128.5 664.5,128.5 664.5,128.5 664.5,127.5 
		664.5,127.5 664.5,127.5 664.5,127.5 664.5,127.5 664.5,127.5 665.5,127.5 665.5,127.5 665.5,126.5 665.5,126.5 665.5,126.5 
		665.5,126.5 665.5,125.5 665.5,125.5 665.5,125.5 665.5,125.5 665.5,125.5 665.5,125.5 665.5,125.5 666.5,125.5 666.5,125.5 
		666.5,124.5 666.5,124.5 666.5,124.5 666.5,124.5 666.5,124.5 666.5,123.5 666.5,123.5 666.5,123.5 666.5,122.5 666.5,122.5 
		666.5,122.5 667.5,122.5 667.5,122.5 667.5,122.5 667.5,121.5 667.5,121.5 667.5,121.5 667.5,121.5 667.5,121.5 667.5,120.5 
		667.5,120.5 667.5,120.5 667.5,121.5 667.5,121.5 668.5,121.5 668.5,121.5 668.5,121.5 668.5,122.5 668.5,122.5 668.5,122.5 
		668.5,122.5 668.5,122.5 668.5,123.5 668.5,123.5 668.5,124.5 668.5,124.5 668.5,125.5 669.5,126.5 669.5,126.5 669.5,127.5 
		669.5,127.5 669.5,126.5 669.5,126.5 669.5,126.5 669.5,126.5 669.5,126.5 669.5,126.5 669.5,126.5 669.5,126.5 669.5,126.5 
		670.5,126.5 670.5,126.5 670.5,126.5 670.5,126.5 670.5,127.5 670.5,126.5 670.5,126.5 670.5,127.5 670.5,127.5 670.5,127.5 
		670.5,127.5 670.5,126.5 670.5,126.5 671.5,126.5 671.5,126.5 671.5,126.5 671.5,126.5 671.5,126.5 671.5,127.5 671.5,127.5 
		671.5,127.5 671.5,127.5 671.5,127.5 671.5,127.5 671.5,127.5 671.5,128.5 672.5,128.5 672.5,128.5 672.5,128.5 672.5,128.5 
		672.5,129.5 672.5,129.5 672.5,129.5 672.5,129.5 672.5,129.5 672.5,129.5 672.5,129.5 672.5,130.5 672.5,130.5 673.5,130.5 
		673.5,130.5 673.5,130.5 673.5,130.5 673.5,130.5 673.5,130.5 673.5,131.5 673.5,131.5 673.5,131.5 673.5,131.5 673.5,132.5 
		673.5,132.5 673.5,132.5 674.5,132.5 674.5,133.5 674.5,133.5 674.5,133.5 674.5,133.5 674.5,133.5 674.5,134.5 674.5,134.5 
		674.5,134.5 674.5,134.5 674.5,134.5 674.5,134.5 674.5,135.5 675.5,135.5 675.5,135.5 675.5,136.5 675.5,137.5 675.5,138.5 
		675.5,138.5 675.5,138.5 675.5,137.5 675.5,136.5 675.5,136.5 675.5,136.5 675.5,136.5 675.5,137.5 676.5,136.5 676.5,136.5 
		676.5,136.5 676.5,135.5 676.5,135.5 676.5,135.5 676.5,135.5 676.5,135.5 676.5,135.5 676.5,135.5 676.5,135.5 676.5,135.5 
		676.5,135.5 677.5,135.5 677.5,134.5 677.5,134.5 677.5,134.5 677.5,134.5 677.5,134.5 677.5,134.5 677.5,134.5 677.5,134.5 
		677.5,134.5 677.5,134.5 677.5,134.5 677.5,134.5 678.5,133.5 678.5,133.5 678.5,133.5 678.5,133.5 678.5,133.5 678.5,133.5 
		678.5,133.5 678.5,133.5 678.5,133.5 678.5,133.5 678.5,133.5 678.5,133.5 678.5,133.5 679.5,133.5 679.5,133.5 679.5,133.5 
		679.5,133.5 679.5,133.5 679.5,133.5 679.5,133.5 679.5,133.5 679.5,133.5 679.5,133.5 679.5,133.5 679.5,133.5 679.5,133.5 
		680.5,133.5 680.5,133.5 680.5,133.5 680.5,133.5 680.5,133.5 680.5,133.5 680.5,133.5 680.5,133.5 680.5,133.5 680.5,133.5 
		680.5,133.5 680.5,133.5 680.5,133.5 681.5,133.5 681.5,133.5 681.5,133.5 681.5,133.5 681.5,133.5 681.5,133.5 681.5,132.5 
		681.5,132.5 681.5,132.5 681.5,132.5 681.5,132.5 681.5,132.5 681.5,132.5 682.5,132.5 682.5,132.5 682.5,132.5 682.5,132.5 
		682.5,132.5 682.5,132.5 682.5,132.5 682.5,132.5 682.5,132.5 682.5,132.5 682.5,132.5 682.5,133.5 682.5,133.5 683.5,133.5 
		683.5,133.5 683.5,133.5 683.5,133.5 683.5,133.5 683.5,133.5 683.5,133.5 683.5,133.5 683.5,134.5 683.5,134.5 683.5,134.5 
		683.5,134.5 683.5,134.5 684.5,134.5 684.5,134.5 684.5,134.5 684.5,134.5 684.5,134.5 684.5,134.5 684.5,134.5 684.5,134.5 
		684.5,135.5 684.5,135.5 684.5,135.5 684.5,136.5 684.5,136.5 685.5,135.5 685.5,135.5 685.5,135.5 685.5,135.5 685.5,135.5 
		685.5,135.5 685.5,135.5 685.5,135.5 685.5,135.5 685.5,136.5 685.5,136.5 685.5,136.5 685.5,136.5 686.5,136.5 686.5,136.5 
		686.5,136.5 686.5,136.5 686.5,136.5 686.5,136.5 686.5,136.5 686.5,136.5 686.5,136.5 686.5,136.5 686.5,136.5 686.5,136.5 
		686.5,136.5 687.5,136.5 687.5,136.5 687.5,136.5 687.5,136.5 687.5,136.5 687.5,136.5 687.5,136.5 687.5,136.5 687.5,135.5 
		687.5,135.5 687.5,135.5 687.5,135.5 687.5,135.5 688.5,135.5 688.5,135.5 688.5,135.5 688.5,135.5 688.5,135.5 688.5,135.5 
		688.5,135.5 688.5,135.5 688.5,135.5 688.5,135.5 688.5,135.5 688.5,135.5 688.5,135.5 689.5,135.5 689.5,135.5 689.5,135.5 
		689.5,135.5 689.5,135.5 689.5,135.5 689.5,135.5 689.5,135.5 689.5,135.5 689.5,135.5 689.5,134.5 689.5,134.5 689.5,134.5 
		690.5,134.5 690.5,134.5 690.5,133.5 690.5,133.5 690.5,134.5 690.5,134.5 690.5,134.5 690.5,134.5 690.5,134.5 690.5,133.5 
		690.5,133.5 690.5,133.5 690.5,133.5 691.5,133.5 691.5,133.5 691.5,133.5 691.5,133.5 691.5,133.5 691.5,133.5 691.5,133.5 
		691.5,133.5 691.5,133.5 691.5,132.5 691.5,132.5 691.5,132.5 691.5,132.5 692.5,132.5 692.5,132.5 692.5,132.5 692.5,132.5 
		692.5,132.5 692.5,132.5 692.5,132.5 692.5,132.5 692.5,132.5 692.5,132.5 692.5,132.5 692.5,132.5 692.5,132.5 693.5,132.5 
		693.5,131.5 693.5,131.5 693.5,131.5 693.5,131.5 693.5,131.5 693.5,131.5 693.5,131.5 693.5,131.5 693.5,131.5 693.5,131.5 
		693.5,131.5 693.5,131.5 694.5,131.5 694.5,131.5 694.5,131.5 694.5,130.5 694.5,130.5 694.5,130.5 694.5,130.5 694.5,130.5 
		694.5,130.5 694.5,130.5 694.5,130.5 694.5,130.5 694.5,130.5 695.5,130.5 695.5,130.5 695.5,130.5 695.5,130.5 695.5,130.5 
		695.5,130.5 695.5,130.5 695.5,130.5 695.5,129.5 695.5,129.5 695.5,129.5 695.5,129.5 695.5,129.5 696.5,129.5 696.5,129.5 
		696.5,129.5 696.5,129.5 696.5,129.5 696.5,129.5 696.5,128.5 696.5,128.5 696.5,128.5 696.5,128.5 696.5,128.5 696.5,128.5 
		696.5,128.5 697.5,128.5 697.5,128.5 697.5,128.5 697.5,128.5 697.5,128.5 697.5,127.5 697.5,127.5 697.5,127.5 697.5,127.5 
		697.5,127.5 697.5,127.5 697.5,127.5 697.5,127.5 698.5,127.5 698.5,126.5 698.5,126.5 698.5,126.5 698.5,126.5 698.5,126.5 
		698.5,126.5 698.5,126.5 698.5,126.5 698.5,126.5 698.5,126.5 698.5,126.5 698.5,126.5 699.5,126.5 699.5,126.5 699.5,126.5 
		699.5,126.5 699.5,126.5 699.5,126.5 699.5,126.5 699.5,126.5 699.5,125.5 699.5,125.5 699.5,125.5 699.5,125.5 699.5,125.5 
		700.5,125.5 700.5,125.5 700.5,125.5 700.5,125.5 700.5,125.5 700.5,125.5 700.5,125.5 700.5,125.5 700.5,125.5 700.5,125.5 
		700.5,125.5 700.5,124.5 700.5,124.5 701.5,124.5 701.5,124.5 701.5,124.5 701.5,124.5 701.5,124.5 701.5,124.5 701.5,124.5 
		701.5,124.5 701.5,124.5 701.5,124.5 701.5,124.5 701.5,124.5 701.5,124.5 702.5,124.5 702.5,124.5 702.5,124.5 702.5,124.5 
		702.5,124.5 702.5,124.5 702.5,123.5 702.5,124.5 702.5,123.5 702.5,123.5 702.5,124.5 702.5,124.5 702.5,124.5 703.5,125.5 
		703.5,125.5 703.5,124.5 703.5,124.5 703.5,124.5 703.5,124.5 703.5,123.5 703.5,123.5 703.5,123.5 703.5,123.5 703.5,123.5 
		703.5,124.5 703.5,124.5 703.5,124.5 704.5,124.5 704.5,124.5 704.5,124.5 704.5,124.5 704.5,124.5 704.5,124.5 704.5,124.5 
		704.5,124.5 704.5,124.5 704.5,124.5 704.5,124.5 704.5,124.5 704.5,124.5 705.5,124.5 705.5,124.5 705.5,124.5 705.5,124.5 
		705.5,123.5 705.5,123.5 705.5,123.5 705.5,123.5 705.5,123.5 705.5,123.5 705.5,123.5 705.5,123.5 705.5,123.5 706.5,123.5 
		706.5,123.5 706.5,123.5 706.5,123.5 706.5,123.5 706.5,123.5 706.5,123.5 706.5,123.5 706.5,123.5 706.5,123.5 706.5,124.5 
		706.5,124.5 706.5,124.5 707.5,124.5 707.5,124.5 707.5,124.5 707.5,124.5 707.5,125.5 707.5,125.5 707.5,125.5 707.5,125.5 
		707.5,125.5 707.5,126.5 707.5,126.5 707.5,126.5 707.5,126.5 708.5,127.5 708.5,127.5 708.5,127.5 708.5,127.5 708.5,127.5 
		708.5,128.5 708.5,128.5 708.5,128.5 708.5,128.5 708.5,129.5 708.5,129.5 708.5,129.5 708.5,129.5 709.5,129.5 709.5,128.5 
		709.5,127.5 709.5,126.5 709.5,125.5 709.5,124.5 709.5,124.5 709.5,123.5 709.5,123.5 709.5,122.5 709.5,122.5 	"/>
</g>
</svg>
