<?xml version="1.0" encoding="UTF-8" standalone="no"?><svg width="282.222mm" height="141.111mm" xmlns="http://www.w3.org/2000/svg" xmlns:xlink="http://www.w3.org/1999/xlink"  version="1.2" baseProfile="tiny"><g fill="none" stroke="#ff0000" stroke-linecap="round" stroke-linejoin="round" stroke-opacity="1" stroke-width="1.5" transform="matrix(1,0,0,1,0,0)">
<polyline fill="none" points="143,110 143,109 143,109 143,108 143,108 143,108 144,107 144,107 144,106 144,106 144,106 144,105 144,105 144,104 144,104 144,103 144,103 144,103 144,103 145,103 145,103 145,103 145,103 145,103 145,103 145,103 145,103 145,103 145,102 145,102 145,102 145,101 146,101 146,101 146,100 146,100 146,99 146,99 146,98 146,98 146,97 146,97 146,96 146,95 146,95 147,94 147,93 147,92 147,91 147,90 147,89 147,89 147,88 147,87 147,87 147,86 147,85 147,85 148,84 148,84 148,84 148,83 148,83 148,82 148,82 148,81 148,80 148,80 148,79 148,78 149,77 149,76 149,75 149,75 149,74 149,73 149,72 149,71 149,70 149,69 149,69 149,68 149,68 150,67 150,67 150,66 150,66 150,65 150,65 150,64 150,64 150,63 150,63 150,62 150,61 150,60 151,59 151,58 151,58 151,57 151,56 151,55 151,55 151,54 151,53 151,52 151,51 151,50 151,50 152,49 152,48 152,47 152,46 152,45 152,44 152,44 152,43 152,42 152,42 152,41 152,41 152,40 153,40 153,39 153,39 153,39 153,38 153,38 153,37 153,37 153,36 153,36 153,36 153,35 153,34 154,34 154,34 154,33 154,33 154,32 154,32 154,31 154,31 154,30 154,30 154,30 154,29 154,29 155,28 155,28 155,27 155,27 155,26 155,26 155,25 155,25 155,24 155,23 155,22 155,21 155,21 156,20 156,19 156,18 156,17 156,16 156,15 156,14 156,13 156,12 156,10 156,9 156,18 156,36 157,48 157,60 157,66 157,66 157,73 157,80 157,83 157,81 157,80 157,79 157,77 157,76 157,75 158,73 158,72 158,71 158,69 158,68 158,67 158,67 158,66 158,65 158,65 158,64 158,64 158,63 159,64 159,68 159,71 159,74 159,76 159,75 159,73 159,72 159,71 159,70 159,69 159,68 159,67 160,66 160,65 160,64 160,62 160,61 160,59 160,57 160,55 160,52 160,49 160,46 160,43 160,41 161,39 161,36 161,35 161,34 161,33 161,32 161,31 161,29 161,28 161,27 161,26 161,25 161,24 162,23 162,24 162,26 162,28 162,30 162,31 162,32 162,33 162,34 162,33 162,32 162,31 162,30 163,29 163,28 163,27 163,25 163,24 163,24 163,23 163,23 163,22 163,21 163,20 163,19 163,18 164,16 164,14 164,12 164,11 164,9 164,7 164,5 164,4 164,2 164,1 164,0 " vector-effect="non-scaling-stroke"></polyline>
</g></svg>