<!-- Generator: Adobe Illustrator 19.2.0, SVG Export Plug-In  -->
<!DOCTYPE svg PUBLIC "-//W3C//DTD SVG 1.1//EN" "http://www.w3.org/Graphics/SVG/1.1/DTD/svg11.dtd" [
	<!ENTITY ns_flows "http://ns.adobe.com/Flows/1.0/">
	<!ENTITY st0 "fill:none;stroke:#FFFFFF;stroke-linecap:square;stroke-linejoin:bevel;stroke-dasharray:1,2;">
	<!ENTITY st1 "fill:#624949;">
]>
<svg version="1.1"
	 xmlns="http://www.w3.org/2000/svg" xmlns:xlink="http://www.w3.org/1999/xlink" xmlns:a="http://ns.adobe.com/AdobeSVGViewerExtensions/3.0/"
	 x="0px" y="0px" width="759px" height="380px" preserveAspectRatio="none" viewBox="0 0 759 380" style="enable-background:new 0 0 759 380;"
	 xml:space="preserve">
<defs>
</defs>
<g transform="matrix(1,0,0,1,0,0)">
	<line vector-effect="non-scaling-stroke" style="&st0;" x1="0.5" y1="0.5" x2="0.5" y2="379.5"/>
	<line vector-effect="non-scaling-stroke" style="&st0;" x1="95.5" y1="0.5" x2="95.5" y2="379.5"/>
	<line vector-effect="non-scaling-stroke" style="&st0;" x1="190.5" y1="0.5" x2="190.5" y2="379.5"/>
	<line vector-effect="non-scaling-stroke" style="&st0;" x1="284.5" y1="0.5" x2="284.5" y2="379.5"/>
	<line vector-effect="non-scaling-stroke" style="&st0;" x1="379.5" y1="0.5" x2="379.5" y2="379.5"/>
	<line vector-effect="non-scaling-stroke" style="&st0;" x1="474.5" y1="0.5" x2="474.5" y2="379.5"/>
	<line vector-effect="non-scaling-stroke" style="&st0;" x1="569.5" y1="0.5" x2="569.5" y2="379.5"/>
	<line vector-effect="non-scaling-stroke" style="&st0;" x1="663.5" y1="0.5" x2="663.5" y2="379.5"/>
	<line vector-effect="non-scaling-stroke" style="&st0;" x1="758.5" y1="0.5" x2="758.5" y2="379.5"/>
	<line vector-effect="non-scaling-stroke" style="&st0;" x1="0.5" y1="379.5" x2="758.5" y2="379.5"/>
	<line vector-effect="non-scaling-stroke" style="&st0;" x1="0.5" y1="325.5" x2="758.5" y2="325.5"/>
	<line vector-effect="non-scaling-stroke" style="&st0;" x1="0.5" y1="270.5" x2="758.5" y2="270.5"/>
	<line vector-effect="non-scaling-stroke" style="&st0;" x1="0.5" y1="216.5" x2="758.5" y2="216.5"/>
	<line vector-effect="non-scaling-stroke" style="&st0;" x1="0.5" y1="162.5" x2="758.5" y2="162.5"/>
	<line vector-effect="non-scaling-stroke" style="&st0;" x1="0.5" y1="108.5" x2="758.5" y2="108.5"/>
	<line vector-effect="non-scaling-stroke" style="&st0;" x1="0.5" y1="53.5" x2="758.5" y2="53.5"/>
</g>
<polyline vector-effect="non-scaling-stroke" style="&st1;" points="720,380 123,380 123,376.2 123,376.2 123,376.2 123,376.2 
	123,376.2 123,376.2 123,376.2 123,376.2 123,375.6 123,375.6 123,375.6 123,375.6 123,375.6 124,375.6 124,375.6 124,375.6 
	124,375.6 124,375.6 124,375.6 124,375.6 124,375.6 124,375.6 124,375.6 124,375.6 124,375.6 125,375.6 125,375.6 125,375.6 
	125,375.6 125,375.6 125,375.6 125,375.6 125,375.6 125,375.6 125,374.9 125,374.9 125,374.9 125,374.9 126,374.9 126,374.9 
	126,374.9 126,374.9 126,374.9 126,374.9 126,374.9 126,374.3 126,374.3 126,374.3 126,374.3 126,374.3 126,374.3 127,374.3 
	127,374.3 127,373.6 127,373.6 127,373.6 127,373.6 127,373.6 127,373.6 127,373.6 127,373.6 127,373.6 127,373.6 127,373.6 
	128,373.6 128,373 128,373 128,373 128,373 128,373 128,373 128,373 128,373 128,372.3 128,372.3 128,372.3 128,372.3 129,372.3 
	129,372.3 129,372.3 129,372.3 129,371.6 129,371.6 129,371.6 129,371.6 129,371.6 129,371.6 129,371.6 129,371.6 129,371.6 
	130,371.6 130,371.6 130,371.6 130,371 130,371 130,371 130,371 130,371 130,371 130,371 130,371 130,370.3 130,370.3 131,370.3 
	131,370.3 131,370.3 131,370.3 131,370.3 131,370.3 131,369.6 131,369.6 131,369.6 131,369.6 131,369.6 131,369.6 131,369.6 
	132,368.9 132,368.9 132,368.9 132,368.9 132,368.9 132,368.9 132,368.9 132,368.9 132,368.9 132,368.9 132,368.9 132,368.9 
	132,368.9 133,368.9 133,368.3 133,368.3 133,368.3 133,368.3 133,368.3 133,368.3 133,368.3 133,368.3 133,368.3 133,368.3 
	133,368.3 134,368.3 134,368.3 134,368.3 134,367.6 134,367.6 134,367.6 134,367.6 134,367.6 134,367.6 134,367.6 134,367.6 
	134,367.6 134,367.6 135,367.6 135,367.6 135,367.6 135,366.9 135,366.9 135,366.9 135,366.9 135,366.9 135,366.9 135,366.9 
	135,366.2 135,366.2 135,366.2 136,366.2 136,366.2 136,366.2 136,365.6 136,365.6 136,366.9 136,368.3 136,369.6 136,371 
	136,371.6 136,371.6 136,372.3 136,373 137,373.6 137,373.6 137,373 137,373 137,373 137,373 137,372.3 137,372.3 137,372.3 
	137,372.3 137,372.3 137,371.6 137,371.6 138,371.6 138,371.6 138,371.6 138,371.6 138,371.6 138,371.6 138,371.6 138,371.6 
	138,371.6 138,372.3 138,372.3 138,373 138,372.3 139,372.3 139,372.3 139,372.3 139,372.3 139,372.3 139,371.6 139,371.6 
	139,371.6 139,371.6 139,371.6 139,371.6 139,371 139,371 140,371 140,370.3 140,370.3 140,369.6 140,369.6 140,369.6 140,368.9 
	140,368.9 140,368.3 140,368.3 140,368.3 140,368.3 140,368.3 141,368.3 141,367.6 141,367.6 141,367.6 141,367.6 141,367.6 
	141,367.6 141,366.9 141,366.9 141,367.6 141,367.6 141,367.6 141,368.3 142,368.3 142,368.3 142,368.3 142,368.3 142,368.3 
	142,368.3 142,368.3 142,367.6 142,367.6 142,367.6 142,367.6 142,367.6 142,366.9 143,366.9 143,366.9 143,366.9 143,366.9 
	143,366.9 143,366.9 143,366.9 143,366.2 143,366.2 143,366.2 143,365.6 143,365.6 144,365.6 144,365.6 144,365 144,365 144,365 
	144,365 144,365 144,365 144,365 144,364.3 144,364.3 144,364.3 144,364.3 145,364.3 145,364.3 145,364.3 145,364.3 145,363.6 
	145,363.6 145,363.6 145,363 145,363 145,363 145,362.3 145,362.3 145,362.3 146,362.3 146,362.3 146,362.3 146,362.3 146,362.3 
	146,362.3 146,362.3 146,362.3 146,361.6 146,361.6 146,361.6 146,361.6 146,361.6 147,361.6 147,361.6 147,361.6 147,361.6 
	147,361.6 147,361.6 147,361.6 147,361.6 147,360.9 147,360.9 147,360.9 147,360.9 147,360.9 148,360.9 148,360.9 148,360.9 
	148,360.9 148,360.3 148,360.3 148,360.3 148,360.3 148,360.3 148,360.3 148,360.3 148,359.6 148,359.6 149,359.6 149,359.6 
	149,359.6 149,359.6 149,359.6 149,359.6 149,360.3 149,360.3 149,360.3 149,360.3 149,360.3 149,360.3 149,360.9 150,360.9 
	150,360.9 150,360.9 150,360.9 150,360.9 150,360.9 150,360.3 150,360.3 150,360.3 150,360.3 150,360.3 150,360.3 150,359.6 
	151,359.6 151,359.6 151,359.6 151,359.6 151,359.6 151,359.6 151,359.6 151,359.6 151,359.6 151,359.6 151,359.6 151,360.3 
	151,360.3 152,360.3 152,360.3 152,359.6 152,358.9 152,356.9 152,355.6 152,353.6 152,352.3 152,350.9 152,350.3 152,349.6 
	152,349.6 152,349.6 153,348.9 153,348.9 153,348.9 153,348.3 153,348.3 153,348.3 153,347.6 153,347.6 153,347.6 153,347 153,347 
	153,347 154,347 154,346.3 154,346.3 154,346.3 154,345.6 154,345.6 154,345.6 154,345 154,345 154,345 154,344.3 154,344.3 
	154,344.3 155,343.6 155,343.6 155,343.6 155,342.9 155,342.9 155,342.9 155,342.3 155,342.3 155,342.3 155,341.6 155,341.6 
	155,341.6 155,341.6 156,341.6 156,341.6 156,341.6 156,341.6 156,341.6 156,341.6 156,341.6 156,341.6 156,341.6 156,341.6 
	156,341.6 156,341.6 156,341.6 157,341.6 157,341.6 157,341.6 157,341.6 157,341.6 157,341.6 157,341.6 157,340.9 157,340.3 
	157,340.3 157,339.6 157,339.6 157,339 158,338.3 158,338.3 158,337.6 158,337 158,336.3 158,336.3 158,335.6 158,335 158,335 
	158,334.3 158,334.3 158,333.6 158,332.9 159,332.9 159,332.3 159,331.6 159,331.6 159,331 159,330.3 159,330.3 159,329.7 159,329 
	159,329 159,328.3 159,327.6 159,327 160,327 160,326.3 160,326.3 160,325.6 160,324.9 160,324.9 160,324.3 160,323.6 160,323.6 
	160,322.9 160,322.3 160,322.3 160,321.6 161,321 161,321 161,320.3 161,319.6 161,319.6 161,319 161,318.3 161,318.3 161,318.3 
	161,318.3 161,319 161,319 161,319.6 162,319.6 162,320.3 162,321 162,321 162,321.6 162,321.6 162,322.3 162,322.3 162,322.9 
	162,322.9 162,323.6 162,323.6 162,323.6 163,323.6 163,323.6 163,323.6 163,323.6 163,324.3 163,324.3 163,324.3 163,324.3 
	163,324.3 163,324.9 163,325.6 163,326.3 164,326.3 164,326.3 164,327 164,327.6 164,328.3 164,329 164,329.7 164,329 164,329 
	164,329 164,329 164,329 164,329 165,329 165,329.7 165,329.7 165,329.7 165,330.3 165,330.3 165,329.7 165,330.3 165,330.3 
	165,330.3 165,330.3 165,330.3 165,331 166,330.3 166,329.7 166,329 166,329 166,327 166,324.9 166,322.9 166,322.3 166,321.6 
	166,321.6 166,321 166,321 166,320.3 167,319.6 167,319.6 167,319 167,318.3 167,318.3 167,318.3 167,317.6 167,317.6 167,317 
	167,317 167,316.3 167,316.3 167,316.3 168,316.3 168,315.6 168,315.6 168,314.9 168,314.9 168,314.9 168,314.3 168,314.3 
	168,314.3 168,313.6 168,313.6 168,313.6 168,313.6 169,314.3 169,314.9 169,315.6 169,315.6 169,316.3 169,316.3 169,316.3 
	169,317 169,317 169,317 169,317 169,317 169,317.6 170,318.3 170,318.3 170,318.3 170,319 170,319 170,319 170,319 170,318.3 
	170,318.3 170,317.6 170,317.6 170,317 170,316.3 171,314.9 171,314.3 171,314.3 171,313.6 171,313 171,313 171,312.3 171,311.7 
	171,311.7 171,311 171,310.3 171,310.3 171,309.6 172,309 172,309 172,308.3 172,307.6 172,307.6 172,306.9 172,306.9 172,306.9 
	172,306.3 172,306.3 172,305.6 172,305.6 173,305 173,305 173,305 173,304.3 173,304.3 173,303.7 173,303.7 173,303.7 173,303 
	173,303 173,302.3 173,302.3 173,301.6 174,301.6 174,301 174,301 174,301 174,300.3 174,300.3 174,300.3 174,300.3 174,299.6 
	174,299.6 174,299.6 174,299.6 174,299 175,299 175,299 175,299 175,298.3 175,298.3 175,298.3 175,298.3 175,298.3 175,298.3 
	175,297.6 175,297.6 175,297.6 175,297.6 176,297 176,297 176,297 176,297 176,297 176,297 176,297 176,296.3 176,296.3 176,296.3 
	176,296.3 176,295.7 176,295.7 177,295.7 177,295 177,295 177,295 177,294.3 177,294.3 177,294.3 177,293.7 177,293.7 177,293 
	177,293 177,293 177,292.3 178,291.6 178,291.6 178,291 178,291 178,290.3 178,290.3 178,290.3 178,290.3 178,290.3 178,290.3 
	178,290.3 178,290.3 178,289.6 179,289.6 179,289.6 179,289.6 179,289.6 179,288.9 179,288.9 179,288.9 179,288.9 179,289.6 
	179,289.6 179,289.6 179,288.9 179,288.9 180,288.9 180,288.9 180,288.9 180,288.9 180,288.9 180,288.9 180,288.9 180,288.3 
	180,288.3 180,288.3 180,288.3 180,288.9 180,288.9 181,288.9 181,288.9 181,288.9 181,288.9 181,289.6 181,289.6 181,289.6 
	181,289.6 181,289.6 181,290.3 181,290.3 181,290.3 181,290.3 182,290.3 182,290.3 182,290.3 182,290.3 182,290.3 182,290.3 
	182,290.3 182,290.3 182,290.3 182,290.3 182,290.3 182,290.3 183,290.3 183,290.3 183,290.3 183,290.3 183,290.3 183,290.3 
	183,291 183,290.3 183,290.3 183,290.3 183,290.3 183,289.6 183,289.6 184,289.6 184,288.9 184,288.9 184,288.9 184,288.9 
	184,288.9 184,288.9 184,288.9 184,288.9 184,288.3 184,288.3 184,288.3 184,287.6 185,287.6 185,287.6 185,287.6 185,287.6 
	185,287.6 185,287.6 185,287.6 185,287.6 185,287.6 185,287.6 185,287.6 185,287.6 185,287 186,287 186,287 186,287 186,287 
	186,287 186,287 186,287 186,287 186,287 186,287 186,287 186,287 186,287 187,287.6 187,287.6 187,287.6 187,288.3 187,288.3 
	187,288.3 187,288.3 187,288.3 187,288.3 187,288.3 187,288.3 187,288.3 187,288.9 188,288.9 188,289.6 188,289.6 188,289.6 
	188,290.3 188,290.3 188,291 188,291 188,291.6 188,292.3 188,292.3 188,292.3 188,293 189,293 189,293 189,293 189,293.7 
	189,293.7 189,293.7 189,293.7 189,293.7 189,293.7 189,293.7 189,293.7 189,294.3 189,293.7 190,293.7 190,294.3 190,294.3 
	190,294.3 190,294.3 190,294.3 190,294.3 190,295 190,295 190,295 190,295 190,295 190,295.7 191,295.7 191,295.7 191,295.7 
	191,295.7 191,296.3 191,296.3 191,297 191,297 191,297 191,297 191,297.6 191,297.6 191,297.6 192,298.3 192,298.3 192,298.3 
	192,298.3 192,298.3 192,298.3 192,298.3 192,298.3 192,298.3 192,298.3 192,298.3 192,298.3 193,299 193,299 193,299 193,299 
	193,299.6 193,299.6 193,300.3 193,300.3 193,300.3 193,301 193,301 193,301 193,300.3 194,300.3 194,300.3 194,300.3 194,299.6 
	194,299.6 194,299.6 194,299 194,299 194,299 194,299 194,298.3 194,298.3 194,297.6 195,297.6 195,297.6 195,297.6 195,297.6 
	195,297.6 195,297 195,297 195,297 195,296.3 195,296.3 195,296.3 195,295.7 195,295.7 196,295.7 196,295 196,295 196,294.3 
	196,294.3 196,294.3 196,293.7 196,293.7 196,293.7 196,293.7 196,293.7 196,293.7 196,293 197,293 197,292.3 197,292.3 197,292.3 
	197,291.6 197,291.6 197,291.6 197,291.6 197,291.6 197,291.6 197,291.6 197,291 197,291 198,291 198,291 198,290.3 198,290.3 
	198,290.3 198,290.3 198,289.6 198,289.6 198,289.6 198,289.6 198,289.6 198,289.6 198,289.6 199,289.6 199,289.6 199,289.6 
	199,289.6 199,290.3 199,290.3 199,290.3 199,290.3 199,290.3 199,291 199,291 199,291 199,291 200,291 200,291.6 200,291.6 
	200,291.6 200,291.6 200,292.3 200,292.3 200,292.3 200,293 200,293 200,293 200,293 200,293 201,293 201,293 201,293 201,293.7 
	201,293.7 201,293.7 201,293.7 201,293.7 201,293.7 201,293.7 201,293.7 201,294.3 201,294.3 202,294.3 202,294.3 202,294.3 
	202,294.3 202,294.3 202,294.3 202,294.3 202,295 202,295 202,295 202,295.7 202,295.7 203,295.7 203,295.7 203,295.7 203,295.7 
	203,295 203,295.7 203,295.7 203,296.3 203,296.3 203,296.3 203,296.3 203,296.3 203,297 204,297 204,296.3 204,296.3 204,296.3 
	204,296.3 204,296.3 204,296.3 204,296.3 204,297 204,297 204,297 204,297 204,297.6 205,297.6 205,297.6 205,297.6 205,297.6 
	205,297.6 205,297.6 205,297.6 205,297.6 205,297.6 205,297.6 205,298.3 205,298.3 205,298.3 206,298.3 206,298.3 206,298.3 
	206,298.3 206,299 206,299 206,299 206,299 206,299 206,298.3 206,298.3 206,298.3 206,298.3 207,298.3 207,298.3 207,298.3 
	207,299 207,299 207,299 207,299 207,298.3 207,298.3 207,298.3 207,298.3 207,298.3 207,298.3 208,298.3 208,297.6 208,297.6 
	208,297.6 208,297 208,297 208,297 208,297 208,297 208,297 208,297 208,296.3 208,296.3 209,296.3 209,295.7 209,295.7 209,295 
	209,294.3 209,294.3 209,294.3 209,293.7 209,293.7 209,293.7 209,293.7 209,293.7 209,293.7 210,293.7 210,293.7 210,293 210,293 
	210,293 210,293 210,293 210,293 210,293 210,292.3 210,292.3 210,292.3 210,292.3 211,292.3 211,292.3 211,293 211,293 211,293 
	211,293 211,292.3 211,292.3 211,291.6 211,291.6 211,291.6 211,291.6 212,291.6 212,291.6 212,291.6 212,291.6 212,291.6 
	212,291.6 212,291.6 212,291.6 212,291.6 212,291.6 212,291.6 212,291.6 212,291.6 213,291.6 213,292.3 213,292.3 213,293 213,293 
	213,293 213,293 213,293 213,293 213,293 213,293.7 213,293.7 213,294.3 214,294.3 214,294.3 214,294.3 214,294.3 214,294.3 
	214,294.3 214,294.3 214,294.3 214,294.3 214,295 214,295 214,295 214,295.7 215,295.7 215,295.7 215,295.7 215,295.7 215,296.3 
	215,296.3 215,296.3 215,296.3 215,296.3 215,296.3 215,296.3 215,297 215,297 216,297.6 216,297.6 216,297.6 216,297.6 216,297.6 
	216,297.6 216,297.6 216,297.6 216,297.6 216,297.6 216,297.6 216,297.6 216,297.6 217,297.6 217,297.6 217,297 217,297 217,296.3 
	217,296.3 217,296.3 217,296.3 217,296.3 217,296.3 217,296.3 217,295.7 217,295.7 218,295.7 218,295 218,295.7 218,295 218,294.3 
	218,293.7 218,293.7 218,293.7 218,293.7 218,293 218,293 218,293 218,293 219,292.3 219,292.3 219,292.3 219,292.3 219,291.6 
	219,291.6 219,291.6 219,291.6 219,291.6 219,291 219,291 219,291 219,291 220,291 220,291 220,290.3 220,290.3 220,289.6 
	220,289.6 220,290.3 220,290.3 220,291 220,291 220,291 220,291 220,291 221,291 221,291 221,291 221,291 221,291 221,291 221,291 
	221,291.6 221,291.6 221,291 221,291 221,290.3 222,290.3 222,290.3 222,290.3 222,290.3 222,289.6 222,289.6 222,289.6 222,289.6 
	222,289.6 222,289.6 222,289.6 222,289.6 222,289.6 223,289.6 223,289.6 223,289.6 223,288.9 223,288.9 223,288.3 223,288.3 
	223,288.3 223,288.3 223,288.3 223,288.3 223,288.3 223,287.6 224,287.6 224,287.6 224,287.6 224,287.6 224,287.6 224,287.6 
	224,287.6 224,287.6 224,287.6 224,288.3 224,288.3 224,288.3 224,288.9 225,288.9 225,288.9 225,288.9 225,288.9 225,288.9 
	225,288.9 225,288.9 225,288.9 225,288.9 225,288.9 225,288.9 225,288.9 225,288.3 226,288.3 226,288.3 226,288.3 226,288.3 
	226,288.3 226,288.3 226,288.9 226,288.9 226,288.9 226,290.3 226,292.3 226,293.7 226,294.3 227,293.7 227,293 227,291.6 
	227,291.6 227,291.6 227,291 227,291 227,291.6 227,291.6 227,291.6 227,291.6 227,291.6 227,291.6 228,291.6 228,291.6 228,291.6 
	228,291 228,291 228,291 228,290.3 228,290.3 228,289.6 228,289.6 228,288.9 228,288.9 228,288.3 229,288.3 229,287.6 229,287.6 
	229,287 229,287 229,287 229,286.3 229,286.3 229,285.7 229,285.7 229,285.7 229,285 229,285 230,285 230,285 230,284.3 230,284.3 
	230,284.3 230,283.6 230,283.6 230,283.6 230,283.6 230,283.6 230,283.6 230,283.6 230,283.6 231,283.6 231,283.6 231,283.6 
	231,283.6 231,283.6 231,283.6 231,283.6 231,284.3 231,284.3 231,284.3 231,284.3 231,285 232,285 232,285 232,285 232,284.3 
	232,284.3 232,284.3 232,284.3 232,284.3 232,283.6 232,283.6 232,283.6 232,283.6 232,283 233,283 233,283 233,282.3 233,282.3 
	233,281.6 233,281.6 233,281.6 233,281 233,281 233,281 233,280.3 233,280.3 233,280.3 234,279.6 234,279.6 234,279.6 234,279.6 
	234,279.6 234,279.6 234,279.6 234,279.6 234,279 234,279 234,278.3 234,278.3 234,278.3 235,277.7 235,277.7 235,277 235,277 
	235,276.3 235,276.3 235,275.7 235,276.3 235,275.7 235,275.7 235,275 235,275 235,274.3 236,274.3 236,274.3 236,274.3 236,274.3 
	236,273.6 236,273.6 236,273.6 236,273.6 236,273.6 236,273.6 236,273.6 236,273 236,273 237,273 237,273 237,273 237,272.3 
	237,272.3 237,272.3 237,272.3 237,271.6 237,271.6 237,271.6 237,271 237,271 237,271 238,270.3 238,270.3 238,270.3 238,270.3 
	238,270.3 238,269.7 238,269.7 238,269.7 238,269 238,269 238,268.3 238,268.3 238,267.7 239,267 239,267 239,266.3 239,266.3 
	239,265.6 239,265 239,265 239,264.3 239,263.6 239,263.6 239,263 239,262.3 239,262.3 240,261.7 240,261 240,260.4 240,259.7 
	240,259 240,259 240,258.3 240,257.7 240,257 240,257 240,256.3 240,256.3 240,255.6 241,255.6 241,255 241,255 241,254.3 
	241,254.3 241,254.3 241,253.6 241,253.6 241,253.6 241,253.6 241,253 241,253 242,252.3 242,252.3 242,251.7 242,251.7 242,251.7 
	242,251.7 242,251.7 242,251.7 242,251.7 242,251.7 242,251.7 242,251.7 242,252.3 243,252.3 243,252.3 243,253 243,253 243,253.6 
	243,253.6 243,254.3 243,255 243,255.6 243,256.3 243,257 243,257.7 243,258.3 244,259.7 244,261 244,261.7 244,263 244,263.6 
	244,264.3 244,264.3 244,265 244,265.6 244,265.6 244,265 244,265 244,265 245,264.3 245,264.3 245,263.6 245,264.3 245,264.3 
	245,265 245,265 245,265.6 245,266.3 245,267 245,267.7 245,268.3 245,269.7 246,271 246,273 246,273 246,273 246,273 246,273 
	246,272.3 246,271 246,269.7 246,269 246,267.7 246,267 246,265.6 247,264.3 247,263.6 247,262.3 247,261.7 247,261 247,260.4 
	247,259.7 247,259 247,258.3 247,257 247,256.3 247,255.6 247,255.6 248,255 248,255 248,254.3 248,254.3 248,254.3 248,253.6 
	248,253.6 248,253 248,253 248,253 248,252.3 248,252.3 248,251.7 249,251.7 249,251.7 249,251.7 249,251.7 249,251.7 249,251.7 
	249,251.7 249,252.3 249,252.3 249,253 249,253.6 249,254.3 249,255 250,255.6 250,256.3 250,257 250,257.7 250,258.3 250,259 
	250,260.4 250,261 250,261.7 250,263 250,264.3 250,265.6 251,267 251,268.3 251,269.7 251,271 251,271.6 251,273 251,274.3 
	251,275.7 251,277 251,278.3 251,279.6 251,281 251,282.3 252,283.6 252,284.3 252,283.6 252,283.6 252,283 252,282.3 252,281 
	252,280.3 252,279.6 252,279 252,277.7 252,277 252,276.3 253,275.7 253,275 253,273.6 253,273 253,271.6 253,270.3 253,270.3 
	253,269.7 253,269 253,267.7 253,267 253,265.6 253,264.3 254,263 254,261 254,259.7 254,258.3 254,257.7 254,257 254,257 
	254,255.6 254,254.3 254,253 254,251 254,250.3 254,249 255,248.3 255,247 255,246.3 255,245.6 255,245 255,244.3 255,243.7 
	255,243 255,243 255,242.4 255,241.7 255,241.7 255,241.7 256,241 256,241 256,240.3 256,240.3 256,240.3 256,240.3 256,239.7 
	256,239.7 256,239.7 256,239.7 256,239.7 256,240.3 256,240.3 257,240.3 257,241 257,241.7 257,241.7 257,242.4 257,243 257,243.7 
	257,244.3 257,245.6 257,247 257,248.3 257,249 257,250.3 258,251.7 258,253 258,253.6 258,255.6 258,257 258,258.3 258,260.4 
	258,261 258,261.7 258,262.3 258,263 258,263.6 258,264.3 259,265 259,265.6 259,266.3 259,266.3 259,267 259,267.7 259,268.3 
	259,269 259,269.7 259,270.3 259,271 259,271.6 259,273 260,273.6 260,274.3 260,275 260,276.3 260,277 260,277.7 260,279 
	260,280.3 260,281 260,281.6 260,283 260,283.6 261,284.3 261,285 261,286.3 261,287 261,288.3 261,288.9 261,288.9 261,288.9 
	261,289.6 261,290.3 261,290.3 261,290.3 261,291 262,291 262,291.6 262,291.6 262,292.3 262,292.3 262,292.3 262,292.3 262,292.3 
	262,292.3 262,291.6 262,291 262,291 262,290.3 263,289.6 263,288.9 263,288.3 263,288.3 263,287.6 263,287 263,287 263,286.3 
	263,286.3 263,285.7 263,285 263,285 263,283.6 264,283 264,283 264,282.3 264,282.3 264,281.6 264,281.6 264,281 264,279.6 
	264,279.6 264,279 264,278.3 264,277.7 264,277 265,276.3 265,276.3 265,275.7 265,275.7 265,275 265,274.3 265,273.6 265,273.6 
	265,273 265,273 265,272.3 265,272.3 265,272.3 266,273.6 266,275 266,275.7 266,276.3 266,277 266,277.7 266,277.7 266,278.3 
	266,278.3 266,277.7 266,277.7 266,277.7 266,277 267,276.3 267,275.7 267,275 267,274.3 267,273 267,272.3 267,271.6 267,271 
	267,270.3 267,269.7 267,269 267,268.3 267,268.3 268,267.7 268,267 268,267 268,266.3 268,266.3 268,265.6 268,265.6 268,265.6 
	268,265.6 268,265.6 268,265 268,265 268,265 269,265 269,265 269,265 269,264.3 269,264.3 269,264.3 269,265 269,265 269,265.6 
	269,265.6 269,267 269,267.7 269,268.3 270,269 270,269.7 270,270.3 270,271 270,271.6 270,272.3 270,273 270,273.6 270,274.3 
	270,274.3 270,274.3 270,274.3 271,274.3 271,274.3 271,274.3 271,273.6 271,273.6 271,273.6 271,273.6 271,273.6 271,273 271,273 
	271,273 271,273 271,272.3 272,272.3 272,271.6 272,271.6 272,271.6 272,271 272,271 272,271 272,270.3 272,270.3 272,269.7 
	272,269.7 272,269 272,269 273,268.3 273,267.7 273,267 273,267 273,266.3 273,265.6 273,265 273,265 273,265 273,265 273,263.6 
	273,263 273,262.3 274,261.7 274,261 274,260.4 274,259 274,258.3 274,258.3 274,258.3 274,258.3 274,258.3 274,258.3 274,257.7 
	274,257.7 274,257 275,256.3 275,254.3 275,253 275,251.7 275,250.3 275,249 275,247.6 275,246.3 275,244.3 275,243 275,241.7 
	275,239.7 275,237.6 276,235 276,232.3 276,229.6 276,227.7 276,227 276,225 276,223 276,221.7 276,220.3 276,219 276,219 
	276,218.4 276,217.7 277,217.7 277,217.7 277,217 277,217 277,216.4 277,216.4 277,216.4 277,216.4 277,216.4 277,216.4 277,215.7 
	277,215.7 277,215.7 278,215.7 278,215.7 278,215.7 278,215 278,215 278,215 278,214.3 278,214.3 278,214.3 278,214.3 278,214.3 
	278,214.3 278,213.7 279,213.7 279,213.7 279,213.7 279,213.7 279,214.3 279,214.3 279,215 279,215 279,215 279,215.7 279,216.4 
	279,217 280,217 280,217 280,217 280,217 280,216.4 280,216.4 280,215 280,214.3 280,213.7 280,213 280,212.3 280,211.6 280,211 
	281,210.3 281,209.7 281,209.7 281,209 281,208.4 281,207.7 281,207.7 281,207 281,207 281,206.4 281,206.4 281,206.4 281,207 
	282,207 282,207 282,207 282,207.7 282,207.7 282,207.7 282,207.7 282,207.7 282,207.7 282,207 282,207 282,207.7 282,207.7 
	283,207.7 283,207.7 283,207.7 283,207.7 283,207.7 283,207.7 283,207.7 283,207.7 283,207.7 283,208.4 283,208.4 283,208.4 
	283,208.4 284,209 284,209 284,209.7 284,209.7 284,210.3 284,211 284,211.6 284,212.3 284,213 284,213.7 284,213.7 284,214.3 
	284,214.3 285,213.7 285,213.7 285,213.7 285,213.7 285,213.7 285,213 285,213 285,213 285,212.3 285,212.3 285,212.3 285,211.6 
	285,211.6 286,211.6 286,212.3 286,212.3 286,212.3 286,212.3 286,212.3 286,212.3 286,212.3 286,212.3 286,213 286,213 286,213 
	286,213 287,213 287,213 287,213 287,213 287,213 287,213 287,213 287,213 287,213 287,213 287,212.3 287,212.3 287,212.3 288,213 
	288,214.3 288,215.7 288,217 288,218.4 288,219.7 288,221 288,221.7 288,223 288,223.7 288,224.4 288,225 288,225.7 289,226.4 
	289,227 289,227.7 289,228.3 289,228.3 289,227.7 289,227.7 289,227 289,226.4 289,225 289,224.4 289,223 290,222.3 290,221 
	290,220.3 290,219 290,219 290,218.4 290,217.7 290,217.7 290,217 290,217 290,216.4 290,216.4 290,215.7 291,215.7 291,215 
	291,215 291,215 291,214.3 291,214.3 291,213.7 291,213.7 291,213.7 291,213 291,213 291,213 291,212.3 292,212.3 292,212.3 
	292,211.6 292,211.6 292,211.6 292,211.6 292,212.3 292,212.3 292,213 292,213 292,213 292,212.3 292,212.3 293,212.3 293,211.6 
	293,211.6 293,211 293,211 293,210.3 293,209.7 293,209 293,209 293,208.4 293,207.7 293,207.7 293,207 294,206.4 294,205.7 
	294,205.7 294,205 294,205 294,204.3 294,204.3 294,203.7 294,203.7 294,203 294,203 294,203 294,203 295,203 295,203 295,203.7 
	295,203.7 295,204.3 295,204.3 295,204.3 295,204.3 295,204.3 295,204.3 295,204.3 295,204.3 295,205 296,205 296,205.7 296,205.7 
	296,206.4 296,207 296,207 296,207.7 296,208.4 296,209.7 296,210.3 296,211 296,211.6 296,212.3 297,213.7 297,213.7 297,214.3 
	297,215 297,215.7 297,215 297,215 297,214.3 297,214.3 297,213.7 297,213.7 297,213 297,213 298,213 298,213.7 298,213.7 
	298,214.3 298,215 298,215 298,215.7 298,215.7 298,215.7 298,216.4 298,216.4 298,216.4 298,215.7 299,215.7 299,215 299,215 
	299,214.3 299,213.7 299,213 299,213 299,213 299,213.7 299,213.7 299,213.7 299,213.7 300,213.7 300,214.3 300,214.3 300,213.7 
	300,213.7 300,213.7 300,214.3 300,214.3 300,214.3 300,214.3 300,214.3 300,214.3 300,214.3 301,214.3 301,214.3 301,215 301,215 
	301,215 301,215 301,215 301,215 301,215 301,215 301,214.3 301,214.3 301,214.3 302,214.3 302,213.7 302,213.7 302,213.7 
	302,213.7 302,213 302,213 302,213 302,212.3 302,212.3 302,211.6 302,211.6 302,211 303,210.3 303,210.3 303,209.7 303,209 
	303,209 303,208.4 303,208.4 303,207.7 303,207 303,207 303,206.4 303,205.7 303,205 304,204.3 304,203.7 304,203.7 304,203 
	304,202.3 304,201.7 304,201.7 304,201 304,200.4 304,200.4 304,199.7 304,199.7 304,199 305,199 305,198.4 305,198.4 305,198.4 
	305,197.7 305,197.7 305,197.7 305,197.7 305,197.7 305,197.7 305,197.7 305,197.7 305,197.7 306,197.7 306,197.7 306,197.7 
	306,197.7 306,197.7 306,197.7 306,197 306,197 306,197 306,197 306,197 306,197 306,196.3 307,196.3 307,196.3 307,196.3 
	307,196.3 307,196.3 307,197 307,197 307,197 307,197 307,196.3 307,196.3 307,196.3 307,196.3 308,196.3 308,196.3 308,197 
	308,197 308,197 308,197 308,197.7 308,197.7 308,197.7 308,197.7 308,197.7 308,197 308,197 309,197 309,196.3 309,196.3 
	309,196.3 309,196.3 309,196.3 309,196.3 309,195.7 309,195.7 309,195.7 309,195.7 309,195 310,195 310,195 310,194.3 310,194.3 
	310,194.3 310,194.3 310,193.7 310,193.7 310,193.7 310,193 310,193 310,193 310,193 311,193 311,193 311,192.4 311,192.4 
	311,192.4 311,192.4 311,191.7 311,191.7 311,191.7 311,191.7 311,191.1 311,191.1 311,191.1 312,191.1 312,191.1 312,191.1 
	312,191.1 312,191.1 312,191.1 312,190.4 312,190.4 312,190.4 312,189.7 312,189.7 312,189.7 312,189.7 313,189.7 313,189.7 
	313,189.7 313,189.7 313,189.7 313,189.7 313,189.7 313,189.7 313,189.7 313,189.7 313,189.7 313,189.7 313,189 314,189 314,189 
	314,188.4 314,188.4 314,187.7 314,187.7 314,187 314,187 314,186.3 314,186.3 314,185.7 314,185.7 314,185 315,184.4 315,183.7 
	315,183.1 315,182.4 315,181.7 315,181.7 315,181 315,180.4 315,179.7 315,179 315,178.3 315,178.3 315,177.7 316,177 316,176.3 
	316,175.7 316,175 316,175 316,174.4 316,173.7 316,173.7 316,173.1 316,172.4 316,172.4 316,171.7 316,171.7 317,171.7 317,171.7 
	317,171.7 317,171 317,171 317,171 317,170.4 317,170.4 317,170.4 317,170.4 317,169.7 317,169.7 317,170.4 318,170.4 318,169.7 
	318,170.4 318,169.7 318,169.7 318,169.7 318,169.7 318,169.7 318,169 318,169 318,169 318,169 319,169 319,169 319,169 319,169 
	319,169.7 319,169.7 319,170.4 319,170.4 319,171 319,171.7 319,172.4 319,172.4 319,173.1 320,173.7 320,173.7 320,174.4 320,175 
	320,175.7 320,176.3 320,177 320,177.7 320,177.7 320,178.3 320,178.3 320,179 320,179.7 321,180.4 321,181 321,181 321,181.7 
	321,183.1 321,183.7 321,184.4 321,185 321,185.7 321,186.3 321,186.3 321,185.7 321,184.4 322,183.1 322,182.4 322,181.7 
	322,180.4 322,179.7 322,179 322,177.7 322,177 322,176.3 322,175.7 322,175 322,173.7 322,173.1 323,172.4 323,171.7 323,171.7 
	323,171.7 323,171 323,171 323,170.4 323,170.4 323,169.7 323,169.7 323,169 323,169 323,168.3 324,167.7 324,167 324,167 
	324,166.4 324,166.4 324,165.7 324,165.7 324,165.1 324,165.1 324,164.4 324,164.4 324,163.7 324,163.7 325,163.7 325,163.7 
	325,163 325,163 325,163.7 325,164.4 325,164.4 325,164.4 325,164.4 325,164.4 325,164.4 325,165.1 325,165.1 326,165.7 326,165.7 
	326,166.4 326,167 326,167 326,167.7 326,168.3 326,168.3 326,169 326,169 326,169 326,169.7 326,169.7 327,169.7 327,169.7 
	327,170.4 327,170.4 327,171 327,171 327,171.7 327,171.7 327,171.7 327,172.4 327,172.4 327,172.4 327,173.1 328,173.1 328,173.1 
	328,172.4 328,172.4 328,172.4 328,171.7 328,171 328,170.4 328,169.7 328,168.3 328,167.7 328,166.4 329,164.4 329,163.7 
	329,162.4 329,161 329,159.7 329,159 329,157.7 329,156.4 329,155.1 329,153.7 329,152.4 329,151 329,150.4 330,148.4 330,147.1 
	330,145.7 330,145 330,143.7 330,143 330,141.7 330,141 330,141 330,140.4 330,139.7 330,139.7 330,139.7 331,140.4 331,140.4 
	331,140.4 331,140.4 331,140.4 331,140.4 331,140.4 331,140.4 331,140.4 331,140.4 331,140.4 331,140.4 331,140.4 332,140.4 
	332,140.4 332,139.7 332,139.7 332,139.7 332,139.1 332,139.1 332,139.1 332,138.4 332,138.4 332,137.7 332,137.7 332,137.1 
	333,137.1 333,136.4 333,136.4 333,135.7 333,135 333,135 333,134.4 333,134.4 333,133.7 333,133 333,133 333,132.4 333,131.7 
	334,131.1 334,130.4 334,129.7 334,129.7 334,128.4 334,127.7 334,127.7 334,127 334,127 334,126.4 334,125.7 334,125.7 334,125 
	335,123.7 335,123.7 335,123.7 335,124.4 335,125 335,125 335,125 335,125 335,125 335,125.7 335,125.7 335,125.7 335,125.7 
	336,125.7 336,125.7 336,126.4 336,126.4 336,126.4 336,126.4 336,126.4 336,126.4 336,127 336,127 336,127 336,127 336,127 
	337,127 337,127.7 337,129.1 337,129.7 337,131.1 337,131.1 337,131.7 337,131.7 337,131.7 337,133 337,133 337,133 337,133.7 
	338,134.4 338,135 338,135.7 338,136.4 338,137.1 338,137.7 338,137.7 338,138.4 338,139.1 338,139.7 338,140.4 338,141 339,142.3 
	339,143 339,143.7 339,144.4 339,145 339,145.7 339,146.4 339,146.4 339,146.4 339,147.1 339,147.7 339,148.4 339,148.4 340,149.1 
	340,149.7 340,149.7 340,149.7 340,150.4 340,150.4 340,150.4 340,149.7 340,149.1 340,149.1 340,148.4 340,147.7 340,147.1 
	341,147.1 341,146.4 341,145.7 341,145.7 341,145 341,145 341,144.4 341,143.7 341,143.7 341,143 341,143 341,143 341,142.3 
	342,142.3 342,142.3 342,142.3 342,141.7 342,142.3 342,142.3 342,142.3 342,142.3 342,142.3 342,143 342,143 342,143.7 342,143.7 
	343,144.4 343,145 343,145.7 343,146.4 343,147.1 343,147.7 343,148.4 343,149.1 343,149.1 343,149.7 343,150.4 343,151 343,151.7 
	344,152.4 344,153 344,153 344,152.4 344,152.4 344,151.7 344,151.7 344,152.4 344,152.4 344,152.4 344,152.4 344,152.4 344,152.4 
	345,152.4 345,152.4 345,152.4 345,152.4 345,152.4 345,152.4 345,153 345,153 345,153.7 345,154.4 345,155.7 345,156.4 345,157.7 
	346,158.4 346,158.4 346,158.4 346,158.4 346,158.4 346,158.4 346,157.7 346,157.1 346,157.1 346,156.4 346,155.7 346,155.1 
	346,155.1 347,154.4 347,154.4 347,153.7 347,153.7 347,153.7 347,153.7 347,153.7 347,153.7 347,153.7 347,153.7 347,153.7 
	347,153.7 347,153.7 348,153.7 348,153.7 348,153.7 348,153.7 348,153.7 348,153.7 348,153.7 348,153 348,153 348,153 348,153 
	348,153 349,152.4 349,153 349,153 349,153.7 349,153.7 349,154.4 349,154.4 349,155.1 349,155.7 349,155.7 349,155.7 349,156.4 
	349,156.4 350,157.1 350,157.1 350,157.1 350,157.7 350,157.7 350,157.7 350,157.7 350,157.7 350,158.4 350,158.4 350,158.4 
	350,158.4 350,158.4 351,158.4 351,158.4 351,159 351,159 351,159 351,159.7 351,160.3 351,161 351,161 351,161.7 351,162.4 
	351,162.4 351,163 352,163.7 352,164.4 352,164.4 352,165.1 352,165.7 352,166.4 352,167 352,167 352,167.7 352,168.3 352,168.3 
	352,169 352,169 353,169 353,169.7 353,169.7 353,169.7 353,169.7 353,169.7 353,169.7 353,169.7 353,169.7 353,169.7 353,169.7 
	353,169.7 353,169.7 354,169.7 354,170.4 354,171 354,171 354,171 354,171.7 354,172.4 354,173.1 354,173.7 354,173.7 354,173.7 
	354,173.7 354,174.4 355,174.4 355,173.7 355,173.1 355,172.4 355,172.4 355,171.7 355,171 355,171 355,170.4 355,170.4 355,170.4 
	355,170.4 355,170.4 356,170.4 356,171 356,171 356,171 356,171 356,171 356,171 356,171 356,170.4 356,169.7 356,169 356,168.3 
	356,168.3 357,168.3 357,169 357,168.3 357,169 357,169 357,169 357,169 357,169.7 357,170.4 357,169.7 357,170.4 357,170.4 
	358,170.4 358,171 358,171 358,171 358,171 358,171.7 358,171 358,171 358,170.4 358,169.7 358,169.7 358,169.7 358,169.7 
	359,169.7 359,169.7 359,169.7 359,169.7 359,169.7 359,169.7 359,169.7 359,169.7 359,169.7 359,170.4 359,170.4 359,170.4 
	359,170.4 360,170.4 360,170.4 360,169.7 360,169.7 360,169 360,169 360,168.3 360,167.7 360,167 360,167 360,166.4 360,165.7 
	360,165.7 361,165.7 361,165.7 361,165.7 361,165.7 361,165.7 361,165.7 361,165.7 361,165.7 361,165.7 361,165.7 361,166.4 
	361,166.4 361,166.4 362,166.4 362,166.4 362,166.4 362,166.4 362,166.4 362,166.4 362,166.4 362,166.4 362,166.4 362,166.4 
	362,166.4 362,166.4 362,166.4 363,166.4 363,166.4 363,167 363,167 363,167 363,167.7 363,168.3 363,169 363,169.7 363,170.4 
	363,171 363,171 363,171.7 364,172.4 364,173.1 364,173.1 364,173.7 364,173.7 364,174.4 364,175 364,175 364,175.7 364,175.7 
	364,176.3 364,177 364,177.7 365,178.3 365,178.3 365,179 365,179 365,179.7 365,179.7 365,180.4 365,180.4 365,180.4 365,180.4 
	365,180.4 365,180.4 365,180.4 366,180.4 366,180.4 366,180.4 366,179.7 366,179.7 366,179 366,179 366,179.7 366,179.7 366,179.7 
	366,180.4 366,180.4 366,180.4 367,180.4 367,180.4 367,181 367,181 367,181 367,181 367,181 367,181.7 367,181.7 367,181.7 
	367,181.7 367,181.7 368,181.7 368,182.4 368,183.1 368,183.7 368,184.4 368,185 368,185 368,185.7 368,185.7 368,185.7 368,185 
	368,184.4 368,184.4 369,183.7 369,183.1 369,182.4 369,181.7 369,181.7 369,181 369,181 369,180.4 369,179.7 369,179.7 369,179 
	369,178.3 369,177.7 370,177 370,176.3 370,176.3 370,175 370,174.4 370,173.7 370,172.4 370,171.7 370,171 370,170.4 370,169 
	370,169 370,168.3 371,167.7 371,167 371,166.4 371,166.4 371,165.7 371,165.7 371,165.1 371,165.1 371,164.4 371,164.4 371,164.4 
	371,164.4 371,164.4 372,165.1 372,165.1 372,165.1 372,165.1 372,165.1 372,165.1 372,165.1 372,165.7 372,165.7 372,165.7 
	372,165.7 372,165.7 372,165.7 373,166.4 373,166.4 373,166.4 373,166.4 373,166.4 373,166.4 373,166.4 373,167 373,167 373,167 
	373,167 373,167.7 373,167.7 374,167.7 374,168.3 374,168.3 374,169 374,169.7 374,169.7 374,170.4 374,171 374,171.7 374,171.7 
	374,172.4 374,173.1 374,173.7 375,173.7 375,174.4 375,175 375,175 375,175.7 375,175.7 375,176.3 375,176.3 375,177 375,178.3 
	375,178.3 375,179 375,179.7 376,179.7 376,180.4 376,181 376,181.7 376,181.7 376,182.4 376,182.4 376,183.1 376,183.7 376,183.7 
	376,184.4 376,185 376,185.7 377,185.7 377,186.3 377,187 377,187.7 377,187.7 377,188.4 377,188.4 377,189 377,189.7 377,189.7 
	377,189.7 377,190.4 378,190.4 378,190.4 378,191.1 378,191.1 378,191.1 378,191.7 378,192.4 378,192.4 378,192.4 378,193 378,193 
	378,193 378,193.7 379,193 379,193 379,193 379,193 379,192.4 379,192.4 379,191.7 379,191.1 379,190.4 379,189.7 379,189 
	379,188.4 379,188.4 380,187.7 380,187 380,186.3 380,186.3 380,186.3 380,186.3 380,186.3 380,186.3 380,186.3 380,186.3 
	380,186.3 380,186.3 380,186.3 381,186.3 381,186.3 381,186.3 381,186.3 381,186.3 381,186.3 381,186.3 381,186.3 381,186.3 
	381,186.3 381,186.3 381,186.3 381,186.3 382,186.3 382,186.3 382,186.3 382,186.3 382,186.3 382,186.3 382,186.3 382,186.3 
	382,186.3 382,187 382,187 382,187 382,187 383,187.7 383,187.7 383,187.7 383,187.7 383,187.7 383,187 383,187 383,186.3 383,187 
	383,187 383,187 383,187 383,186.3 384,186.3 384,186.3 384,186.3 384,186.3 384,186.3 384,186.3 384,186.3 384,186.3 384,187 
	384,187 384,187 384,187.7 384,188.4 385,189 385,189.7 385,190.4 385,191.1 385,191.7 385,191.7 385,192.4 385,192.4 385,192.4 
	385,192.4 385,191.7 385,190.4 385,189.7 386,189 386,188.4 386,188.4 386,187.7 386,187.7 386,187.7 386,188.4 386,188.4 
	386,188.4 386,189 386,189 386,189.7 386,189.7 387,190.4 387,191.1 387,191.7 387,191.7 387,192.4 387,193 387,193 387,193.7 
	387,193.7 387,193.7 387,193.7 387,193.7 388,193.7 388,193.7 388,193.7 388,193.7 388,193.7 388,193.7 388,193.7 388,193.7 
	388,193.7 388,193.7 388,193.7 388,194.3 388,194.3 389,194.3 389,194.3 389,195 389,195 389,195 389,195 389,195.7 389,195.7 
	389,195.7 389,195.7 389,195.7 389,195.7 389,195.7 390,196.3 390,196.3 390,197 390,197 390,197.7 390,197.7 390,197.7 390,197.7 
	390,198.4 390,198.4 390,198.4 390,198.4 390,199 391,199 391,199 391,199 391,199.7 391,199.7 391,199.7 391,200.4 391,200.4 
	391,200.4 391,200.4 391,201 391,201 391,201 392,201 392,201 392,201 392,201 392,201.7 392,201.7 392,202.3 392,203 392,203 
	392,203.7 392,203.7 392,203.7 392,204.3 393,204.3 393,204.3 393,205 393,205 393,205.7 393,205.7 393,206.4 393,207 393,207 
	393,207 393,207.7 393,207.7 393,208.4 394,209 394,209 394,209.7 394,210.3 394,211 394,211 394,211.6 394,211.6 394,211.6 
	394,212.3 394,212.3 394,212.3 394,212.3 395,212.3 395,212.3 395,212.3 395,212.3 395,211.6 395,211.6 395,211 395,211 395,211 
	395,211 395,211 395,211 395,211 396,211 396,211 396,211 396,211 396,211 396,211 396,211 396,211 396,211 396,211 396,211 
	396,211.6 397,211.6 397,211.6 397,212.3 397,212.3 397,212.3 397,213 397,213 397,213 397,213 397,213 397,213.7 397,213.7 
	397,213.7 398,213.7 398,213.7 398,213.7 398,213.7 398,213 398,213 398,213 398,212.3 398,212.3 398,212.3 398,211.6 398,211.6 
	398,211.6 399,211 399,211 399,211 399,211 399,210.3 399,210.3 399,210.3 399,210.3 399,211 399,211 399,211 399,211 399,211 
	400,211.6 400,211.6 400,211.6 400,211.6 400,212.3 400,212.3 400,213 400,213 400,213 400,213 400,213 400,213 400,213 401,213 
	401,212.3 401,212.3 401,211.6 401,211.6 401,211.6 401,211 401,211 401,210.3 401,210.3 401,210.3 401,209.7 401,209.7 402,209.7 
	402,209.7 402,209.7 402,209 402,209 402,209 402,208.4 402,209 402,209 402,209 402,209 402,209 402,209 403,209.7 403,209.7 
	403,209.7 403,209.7 403,209.7 403,210.3 403,210.3 403,210.3 403,211 403,211 403,211.6 403,212.3 403,212.3 404,213 404,213.7 
	404,214.3 404,214.3 404,215 404,215 404,215.7 404,215.7 404,215.7 404,216.4 404,217 404,217 404,217.7 405,217.7 405,218.4 
	405,219 405,219 405,219.7 405,219.7 405,220.3 405,220.3 405,221 405,221.7 405,221.7 405,221.7 405,222.3 406,222.3 406,222.3 
	406,222.3 406,222.3 406,221.7 406,221.7 406,221 406,221 406,221 406,220.3 406,220.3 406,220.3 407,220.3 407,220.3 407,220.3 
	407,219.7 407,219.7 407,219.7 407,219 407,219 407,219 407,218.4 407,218.4 407,217.7 407,217.7 408,217.7 408,217 408,217 
	408,217 408,217 408,216.4 408,216.4 408,215.7 408,215.7 408,215.7 408,215 408,214.3 408,214.3 409,213.7 409,213.7 409,213 
	409,213 409,212.3 409,212.3 409,211.6 409,211.6 409,211 409,211 409,210.3 409,209.7 409,209 410,209 410,209 410,209 410,209.7 
	410,209.7 410,209.7 410,209.7 410,209 410,209 410,209 410,208.4 410,208.4 410,209 411,209 411,209.7 411,209.7 411,210.3 
	411,210.3 411,210.3 411,210.3 411,210.3 411,211 411,211.6 411,211.6 411,211 411,210.3 412,209.7 412,209.7 412,209 412,209 
	412,208.4 412,207.7 412,207.7 412,207 412,207 412,206.4 412,206.4 412,206.4 412,206.4 413,207 413,207 413,207 413,207 413,207 
	413,207 413,207 413,207 413,207 413,207 413,207 413,207 413,207 414,207 414,207 414,207.7 414,207.7 414,208.4 414,209 
	414,209.7 414,210.3 414,211 414,211 414,211.6 414,212.3 414,213 415,214.3 415,215 415,215 415,215 415,215.7 415,215.7 
	415,216.4 415,217 415,217 415,217.7 415,217.7 415,217.7 415,218.4 416,218.4 416,218.4 416,218.4 416,218.4 416,218.4 416,218.4 
	416,218.4 416,219 416,219 416,219 416,219 416,219 417,219.7 417,220.3 417,221 417,221.7 417,223 417,223 417,223 417,223 
	417,223 417,223.7 417,223.7 417,224.4 417,224.4 418,225 418,225 418,225 418,225 418,225 418,225 418,225 418,225 418,225 
	418,225.7 418,225.7 418,225.7 418,225.7 419,225.7 419,226.4 419,226.4 419,226.4 419,226.4 419,226.4 419,226.4 419,226.4 
	419,227 419,227 419,227 419,227.7 419,227.7 420,227.7 420,227.7 420,227.7 420,227 420,227 420,227 420,227 420,227 420,227 
	420,227 420,226.4 420,226.4 420,227 421,226.4 421,226.4 421,226.4 421,226.4 421,226.4 421,225.7 421,225.7 421,225.7 421,225 
	421,225 421,225 421,225 421,224.4 422,224.4 422,224.4 422,223.7 422,223.7 422,223.7 422,223 422,223 422,223 422,223 422,223 
	422,222.3 422,222.3 422,222.3 423,222.3 423,222.3 423,222.3 423,222.3 423,222.3 423,222.3 423,222.3 423,222.3 423,222.3 
	423,221.7 423,221.7 423,221.7 423,221 424,221 424,220.3 424,220.3 424,220.3 424,220.3 424,220.3 424,219.7 424,219.7 424,220.3 
	424,220.3 424,220.3 424,219.7 424,219.7 425,219.7 425,219.7 425,219 425,219 425,219 425,219 425,219 425,219 425,219 425,219 
	425,218.4 425,218.4 426,218.4 426,217.7 426,217.7 426,217.7 426,217 426,217 426,217 426,216.4 426,216.4 426,216.4 426,215.7 
	426,215.7 426,215.7 427,215 427,215 427,214.3 427,213.7 427,213.7 427,213 427,213 427,212.3 427,211.6 427,211.6 427,211 
	427,210.3 427,210.3 428,209.7 428,209.7 428,209.7 428,209 428,208.4 428,208.4 428,207.7 428,207.7 428,207.7 428,207 428,207 
	428,207 428,206.4 429,206.4 429,205.7 429,205.7 429,205.7 429,205 429,205 429,204.3 429,204.3 429,203.7 429,203.7 429,203.7 
	429,203 429,203 430,202.3 430,202.3 430,202.3 430,201.7 430,201.7 430,201 430,201 430,200.4 430,200.4 430,199.7 430,199.7 
	430,199 430,198.4 431,198.4 431,197.7 431,197 431,197 431,196.3 431,195.7 431,195.7 431,195 431,195 431,194.3 431,194.3 
	431,193.7 431,193.7 432,193.7 432,193 432,193 432,193 432,192.4 432,192.4 432,192.4 432,192.4 432,192.4 432,192.4 432,192.4 
	432,192.4 432,192.4 433,193 433,193 433,193 433,193.7 433,193.7 433,193.7 433,194.3 433,195 433,195.7 433,196.3 433,197 
	433,197.7 433,198.4 434,199 434,199.7 434,200.4 434,201 434,201.7 434,202.3 434,203 434,203.7 434,204.3 434,205 434,205.7 
	434,206.4 434,207.7 435,208.4 435,208.4 435,209 435,209.7 435,209.7 435,209.7 435,209 435,208.4 435,208.4 435,207.7 435,207.7 
	435,207 436,207 436,206.4 436,206.4 436,205.7 436,205.7 436,205.7 436,205 436,205 436,205 436,205 436,204.3 436,204.3 436,205 
	437,205.7 437,205.7 437,205.7 437,205.7 437,206.4 437,206.4 437,207 437,207 437,207 437,207 437,207 437,207.7 437,208.4 
	438,208.4 438,208.4 438,208.4 438,207.7 438,207.7 438,207.7 438,207.7 438,208.4 438,207.7 438,207.7 438,207.7 438,207.7 
	438,207.7 439,207.7 439,207.7 439,207.7 439,207.7 439,207.7 439,207.7 439,208.4 439,208.4 439,208.4 439,208.4 439,208.4 
	439,208.4 439,208.4 440,208.4 440,208.4 440,208.4 440,207.7 440,207.7 440,207.7 440,207 440,206.4 440,205.7 440,205.7 440,205 
	440,204.3 440,203.7 441,204.3 441,204.3 441,204.3 441,204.3 441,205 441,205 441,205 441,205.7 441,205 441,204.3 441,204.3 
	441,204.3 441,203.7 442,203.7 442,203.7 442,203 442,203 442,203 442,202.3 442,202.3 442,201.7 442,201.7 442,201 442,201 
	442,201 442,201.7 443,201.7 443,202.3 443,202.3 443,202.3 443,203 443,203 443,203 443,203 443,202.3 443,202.3 443,202.3 
	443,202.3 443,201.7 444,201.7 444,201 444,201 444,200.4 444,200.4 444,199.7 444,199 444,198.4 444,197.7 444,197.7 444,197 
	444,197 444,196.3 445,195.7 445,195 445,195 445,194.3 445,193.7 445,193 445,192.4 445,192.4 445,192.4 445,192.4 445,192.4 
	445,192.4 446,191.1 446,190.4 446,189.7 446,189.7 446,189 446,188.4 446,187.7 446,187 446,186.3 446,185.7 446,185 446,184.4 
	446,184.4 447,184.4 447,184.4 447,183.7 447,183.7 447,183.7 447,183.1 447,183.1 447,183.1 447,182.4 447,181.7 447,181.7 
	447,181.7 447,181 448,181 448,181 448,181 448,181 448,180.4 448,180.4 448,180.4 448,180.4 448,180.4 448,180.4 448,181 448,181 
	448,181 449,181 449,180.4 449,179.7 449,179.7 449,179 449,177.7 449,176.3 449,175 449,173.7 449,172.4 449,171.7 449,171 
	449,169.7 450,169 450,167.7 450,166.4 450,165.7 450,165.1 450,164.4 450,163.7 450,163 450,162.4 450,162.4 450,162.4 450,162.4 
	450,162.4 451,161.7 451,161.7 451,161 451,159 451,158.4 451,157.7 451,157.1 451,156.4 451,156.4 451,155.7 451,155.7 451,156.4 
	451,156.4 452,156.4 452,156.4 452,156.4 452,155.7 452,155.7 452,155.7 452,155.1 452,155.1 452,155.1 452,154.4 452,153.7 
	452,153 452,152.4 453,151.7 453,151.7 453,151.7 453,151.7 453,151.7 453,151.7 453,151.7 453,151 453,151 453,151 453,151 
	453,150.4 453,150.4 454,149.7 454,149.7 454,149.7 454,149.1 454,149.1 454,149.1 454,149.1 454,149.1 454,149.1 454,149.1 
	454,149.1 454,149.1 454,149.7 455,149.7 455,149.7 455,150.4 455,150.4 455,150.4 455,151 455,151 455,151.7 455,151.7 455,152.4 
	455,152.4 455,153 456,153.7 456,153.7 456,154.4 456,155.1 456,155.7 456,156.4 456,157.1 456,157.1 456,157.7 456,157.7 
	456,158.4 456,158.4 456,159 457,159 457,159.7 457,160.3 457,160.3 457,160.3 457,161 457,161.7 457,162.4 457,163 457,163.7 
	457,164.4 457,164.4 457,165.1 458,165.7 458,166.4 458,167 458,167.7 458,168.3 458,168.3 458,169 458,169.7 458,169.7 458,170.4 
	458,170.4 458,171 458,171 459,171 459,170.4 459,170.4 459,170.4 459,170.4 459,170.4 459,170.4 459,170.4 459,169.7 459,169.7 
	459,169.7 459,169.7 459,169.7 460,169.7 460,170.4 460,169.7 460,169.7 460,169 460,169 460,168.3 460,167.7 460,167 460,166.4 
	460,165.7 460,165.1 460,163.7 461,163 461,163 461,163 461,163 461,163 461,163 461,163 461,163 461,163 461,163 461,163 461,163 
	461,163 462,163 462,163 462,163 462,163 462,163 462,163 462,162.4 462,162.4 462,162.4 462,162.4 462,162.4 462,162.4 462,162.4 
	463,161.7 463,161 463,161.7 463,162.4 463,163.7 463,164.4 463,165.1 463,165.1 463,165.1 463,164.4 463,165.1 463,165.1 
	463,165.1 464,165.7 464,165.7 464,165.7 464,165.7 464,166.4 464,167 464,167 464,167.7 464,169 464,169.7 464,170.4 464,170.4 
	465,171 465,171.7 465,171.7 465,171.7 465,171.7 465,172.4 465,172.4 465,172.4 465,172.4 465,172.4 465,172.4 465,172.4 
	465,172.4 466,171.7 466,171.7 466,171.7 466,171.7 466,171.7 466,171 466,171 466,171 466,171 466,171 466,171 466,171 466,170.4 
	467,170.4 467,170.4 467,170.4 467,170.4 467,171 467,171 467,171 467,171 467,171 467,171 467,171 467,171 467,171 468,171.7 
	468,171 468,171 468,171 468,171 468,171 468,171 468,171 468,170.4 468,170.4 468,170.4 468,171 468,171 469,171 469,171 469,171 
	469,171 469,170.4 469,170.4 469,170.4 469,169 469,167.7 469,166.4 469,165.7 469,165.7 469,165.7 470,165.7 470,165.1 470,165.1 
	470,165.1 470,164.4 470,164.4 470,164.4 470,163.7 470,163.7 470,163.7 470,163 470,163 470,163 471,163 471,162.4 471,162.4 
	471,162.4 471,161.7 471,161.7 471,161 471,161 471,161 471,160.3 471,159.7 471,159.7 471,159 472,158.4 472,158.4 472,157.7 
	472,157.7 472,157.7 472,157.7 472,157.7 472,157.7 472,157.1 472,157.1 472,156.4 472,156.4 472,156.4 473,156.4 473,155.7 
	473,155.7 473,155.7 473,155.7 473,155.7 473,155.7 473,155.1 473,155.1 473,154.4 473,154.4 473,154.4 473,153.7 474,153.7 
	474,153.7 474,153 474,153 474,152.4 474,152.4 474,151.7 474,151 474,151 474,150.4 474,150.4 474,149.7 475,149.1 475,149.1 
	475,148.4 475,148.4 475,147.7 475,147.1 475,147.1 475,147.1 475,147.1 475,146.4 475,146.4 475,145.7 475,145.7 476,145.7 
	476,145 476,145 476,145 476,145 476,145.7 476,145.7 476,146.4 476,146.4 476,147.1 476,147.7 476,147.7 476,148.4 477,148.4 
	477,148.4 477,149.1 477,149.1 477,149.7 477,149.7 477,150.4 477,150.4 477,150.4 477,151 477,151 477,151.7 477,151.7 478,152.4 
	478,152.4 478,153 478,153 478,153 478,153.7 478,153.7 478,154.4 478,154.4 478,155.1 478,155.1 478,155.7 478,155.7 479,156.4 
	479,156.4 479,157.1 479,157.1 479,157.7 479,157.7 479,157.7 479,157.7 479,157.7 479,157.7 479,157.1 479,157.1 479,156.4 
	480,156.4 480,155.7 480,155.1 480,155.1 480,154.4 480,154.4 480,153.7 480,153.7 480,153 480,153 480,152.4 480,151.7 480,151.7 
	481,151.7 481,151.7 481,151 481,151 481,151 481,151 481,150.4 481,150.4 481,150.4 481,149.7 481,149.7 481,149.7 481,150.4 
	482,150.4 482,150.4 482,150.4 482,151 482,151 482,151 482,151 482,151 482,151 482,151 482,151.7 482,151.7 482,152.4 483,152.4 
	483,152.4 483,153 483,153 483,153.7 483,153.7 483,153.7 483,154.4 483,154.4 483,154.4 483,155.1 483,155.7 483,155.7 484,156.4 
	484,156.4 484,157.1 484,157.1 484,157.7 484,157.7 484,157.7 484,158.4 484,158.4 484,159 484,159 484,159 485,159.7 485,159.7 
	485,160.3 485,160.3 485,161 485,161 485,161 485,161.7 485,161.7 485,162.4 485,162.4 485,162.4 485,163 486,163 486,163.7 
	486,163.7 486,164.4 486,164.4 486,165.1 486,165.1 486,165.1 486,165.7 486,165.7 486,166.4 486,166.4 486,167 487,167 487,167.7 
	487,167.7 487,167.7 487,168.3 487,168.3 487,168.3 487,168.3 487,168.3 487,168.3 487,168.3 487,168.3 487,168.3 488,168.3 
	488,167.7 488,167.7 488,167 488,167 488,167 488,167 488,167 488,167 488,167 488,167 488,167 488,167.7 489,167.7 489,167.7 
	489,167.7 489,167.7 489,167.7 489,167 489,167 489,167 489,167 489,167 489,167 489,167 489,167 490,166.4 490,166.4 490,166.4 
	490,166.4 490,166.4 490,165.7 490,165.7 490,165.7 490,165.7 490,165.1 490,165.1 490,165.1 490,165.1 491,165.1 491,164.4 
	491,164.4 491,164.4 491,164.4 491,164.4 491,164.4 491,163.7 491,163.7 491,163.7 491,163.7 491,163 491,163 492,163 492,163 
	492,163 492,163 492,162.4 492,162.4 492,162.4 492,162.4 492,161.7 492,161.7 492,161.7 492,161 492,161 493,161 493,161 493,161 
	493,161 493,160.3 493,160.3 493,160.3 493,159.7 493,159.7 493,159 493,159 493,159 493,158.4 494,158.4 494,158.4 494,157.7 
	494,157.7 494,157.7 494,157.1 494,157.1 494,157.1 494,157.1 494,157.1 494,157.1 494,157.7 495,157.7 495,157.7 495,158.4 
	495,159 495,159 495,159 495,159.7 495,160.3 495,160.3 495,161 495,161.7 495,161.7 495,162.4 496,163 496,163 496,163.7 
	496,164.4 496,164.4 496,165.1 496,165.1 496,165.1 496,165.1 496,165.7 496,165.7 496,166.4 496,166.4 497,166.4 497,166.4 
	497,166.4 497,167 497,167 497,167 497,167 497,167 497,166.4 497,167 497,167 497,167 497,167 498,166.4 498,166.4 498,167 
	498,167 498,167 498,167 498,167.7 498,167.7 498,167.7 498,167.7 498,167.7 498,168.3 498,168.3 499,168.3 499,168.3 499,168.3 
	499,168.3 499,168.3 499,168.3 499,168.3 499,168.3 499,168.3 499,168.3 499,168.3 499,168.3 499,168.3 500,168.3 500,168.3 
	500,168.3 500,167.7 500,167.7 500,167.7 500,167.7 500,167.7 500,167.7 500,167.7 500,167.7 500,167.7 500,167.7 501,167.7 
	501,167.7 501,167.7 501,167.7 501,167.7 501,167.7 501,167.7 501,167.7 501,167.7 501,167.7 501,167.7 501,167.7 501,167.7 
	502,167.7 502,167.7 502,167 502,167 502,167 502,167.7 502,167.7 502,167.7 502,167.7 502,167.7 502,167 502,167 502,167 503,167 
	503,167 503,167 503,166.4 503,166.4 503,166.4 503,166.4 503,166.4 503,165.7 503,165.7 503,165.1 503,165.1 504,165.7 504,165.7 
	504,165.7 504,166.4 504,166.4 504,166.4 504,167 504,167 504,167 504,167 504,167 504,166.4 504,166.4 505,166.4 505,165.7 
	505,165.7 505,165.7 505,165.7 505,165.7 505,165.7 505,165.1 505,165.1 505,165.1 505,165.1 505,164.4 505,164.4 506,164.4 
	506,164.4 506,164.4 506,164.4 506,164.4 506,163.7 506,163.7 506,163.7 506,163.7 506,163.7 506,163.7 506,163 506,163 507,163 
	507,163 507,163 507,163 507,163 507,163 507,163 507,163 507,163 507,163 507,163 507,163 507,163 508,163 508,163 508,163 
	508,163 508,163 508,163 508,163 508,163 508,163 508,163 508,163 508,163 508,163 509,163 509,163 509,163 509,163 509,163 
	509,163 509,163 509,163 509,163 509,163 509,162.4 509,162.4 509,162.4 510,162.4 510,162.4 510,162.4 510,162.4 510,162.4 
	510,162.4 510,162.4 510,162.4 510,162.4 510,162.4 510,162.4 510,162.4 510,162.4 511,162.4 511,162.4 511,162.4 511,162.4 
	511,161.7 511,161.7 511,161.7 511,161.7 511,161.7 511,161.7 511,161.7 511,161.7 511,161.7 512,161.7 512,161.7 512,161.7 
	512,161.7 512,161.7 512,161.7 512,161.7 512,161 512,161 512,161 512,161 512,161 512,161 513,161 513,161 513,161 513,161 
	513,161 513,161 513,160.3 513,160.3 513,160.3 513,160.3 513,160.3 513,160.3 514,160.3 514,160.3 514,160.3 514,160.3 514,160.3 
	514,160.3 514,160.3 514,160.3 514,160.3 514,160.3 514,159.7 514,159.7 514,159.7 515,159.7 515,159.7 515,159.7 515,159.7 
	515,159.7 515,159.7 515,159.7 515,159.7 515,159.7 515,159.7 515,159.7 515,159.7 515,159.7 516,159.7 516,159.7 516,159.7 
	516,159 516,159 516,159 516,159 516,159 516,159 516,159 516,159 516,159 516,159 517,159 517,159 517,159 517,159 517,159 
	517,159 517,159 517,159 517,159 517,158.4 517,158.4 517,158.4 517,158.4 518,158.4 518,158.4 518,158.4 518,158.4 518,158.4 
	518,157.7 518,157.7 518,157.7 518,157.7 518,157.7 518,157.7 518,157.1 518,157.1 519,157.1 519,157.1 519,157.1 519,157.1 
	519,157.1 519,157.1 519,156.4 519,156.4 519,156.4 519,156.4 519,156.4 519,156.4 519,156.4 520,155.7 520,155.7 520,155.7 
	520,155.7 520,155.7 520,155.7 520,155.7 520,155.7 520,155.7 520,155.7 520,155.7 520,155.1 520,155.1 521,155.1 521,155.1 
	521,155.1 521,155.1 521,155.1 521,155.1 521,154.4 521,154.4 521,154.4 521,154.4 521,153.7 521,153.7 521,153.7 522,153.7 
	522,153.7 522,153.7 522,153 522,153 522,153 522,153 522,153 522,152.4 522,152.4 522,152.4 522,152.4 522,152.4 523,152.4 
	523,152.4 523,152.4 523,152.4 523,152.4 523,152.4 523,152.4 523,152.4 523,152.4 523,152.4 523,152.4 523,151.7 524,151.7 
	524,151.7 524,151.7 524,151 524,151 524,150.4 524,150.4 524,150.4 524,150.4 524,150.4 524,149.7 524,149.1 524,149.1 525,148.4 
	525,148.4 525,147.7 525,147.7 525,147.1 525,147.1 525,147.1 525,147.1 525,147.1 525,147.1 525,147.1 525,147.1 525,147.1 
	526,147.1 526,147.1 526,147.1 526,147.1 526,147.1 526,147.7 526,147.7 526,147.7 526,147.7 526,147.7 526,148.4 526,148.4 
	526,148.4 527,149.1 527,149.1 527,149.1 527,149.7 527,149.7 527,149.7 527,149.7 527,149.7 527,150.4 527,150.4 527,150.4 
	527,149.7 527,149.7 528,149.7 528,149.7 528,149.1 528,149.1 528,149.1 528,148.4 528,148.4 528,147.7 528,147.7 528,147.7 
	528,147.7 528,147.1 528,147.1 529,147.1 529,147.1 529,147.1 529,147.1 529,147.1 529,147.1 529,147.1 529,147.1 529,147.1 
	529,146.4 529,146.4 529,146.4 529,146.4 530,146.4 530,145.7 530,145.7 530,145.7 530,145.7 530,145.7 530,145.7 530,145.7 
	530,145.7 530,145.7 530,145.7 530,145.7 530,145.7 531,145.7 531,145.7 531,145.7 531,146.4 531,146.4 531,146.4 531,146.4 
	531,146.4 531,146.4 531,146.4 531,146.4 531,147.1 531,147.1 532,147.7 532,147.7 532,147.7 532,148.4 532,148.4 532,149.1 
	532,149.1 532,149.1 532,149.7 532,149.7 532,149.7 532,149.7 532,149.7 533,149.7 533,149.1 533,149.1 533,149.1 533,149.1 
	533,148.4 533,148.4 533,148.4 533,148.4 533,147.7 533,147.7 533,147.7 534,147.7 534,147.7 534,147.1 534,147.1 534,147.1 
	534,146.4 534,146.4 534,146.4 534,146.4 534,146.4 534,146.4 534,146.4 534,146.4 535,146.4 535,146.4 535,145.7 535,145.7 
	535,145.7 535,146.4 535,146.4 535,146.4 535,145.7 535,145.7 535,145.7 535,145.7 535,145.7 536,145 536,145 536,145 536,145 
	536,145 536,145 536,145 536,145 536,145 536,145 536,145 536,145 536,145 537,145 537,145 537,145 537,145 537,145 537,145 
	537,145 537,145 537,145 537,145 537,145 537,145 537,145.7 538,145.7 538,145.7 538,145.7 538,145.7 538,145.7 538,145.7 
	538,145.7 538,145.7 538,145 538,145 538,145 538,144.4 538,144.4 539,144.4 539,144.4 539,143.7 539,143.7 539,143 539,143 
	539,143 539,143 539,143 539,143 539,143 539,143 539,143.7 540,143.7 540,144.4 540,144.4 540,145 540,145.7 540,145.7 540,145.7 
	540,145.7 540,145 540,145 540,144.4 540,144.4 540,144.4 541,144.4 541,143.7 541,143.7 541,143.7 541,143 541,143 541,143 
	541,143 541,143 541,143 541,143 541,143 541,143 542,143 542,143 542,143.7 542,143.7 542,143.7 542,144.4 542,144.4 542,144.4 
	542,144.4 542,144.4 542,144.4 542,144.4 543,144.4 543,144.4 543,144.4 543,144.4 543,145 543,145 543,145.7 543,146.4 543,146.4 
	543,146.4 543,146.4 543,146.4 543,146.4 544,146.4 544,145.7 544,145.7 544,145.7 544,145 544,145 544,144.4 544,144.4 544,144.4 
	544,145 544,145 544,145 544,145.7 545,145.7 545,145.7 545,145.7 545,145.7 545,145.7 545,145.7 545,145.7 545,145.7 545,145.7 
	545,145.7 545,145.7 545,145.7 545,146.4 546,146.4 546,147.1 546,147.1 546,147.1 546,147.7 546,147.7 546,147.7 546,147.7 
	546,148.4 546,147.7 546,147.7 546,147.7 546,147.1 547,147.1 547,147.1 547,147.1 547,147.1 547,147.1 547,147.1 547,147.7 
	547,147.7 547,148.4 547,148.4 547,149.1 547,149.1 547,149.7 548,149.7 548,150.4 548,150.4 548,150.4 548,151 548,151 548,151.7 
	548,151.7 548,151.7 548,151.7 548,151.7 548,152.4 548,152.4 549,153 549,153 549,153.7 549,153.7 549,153.7 549,153.7 549,153.7 
	549,154.4 549,154.4 549,154.4 549,154.4 549,153.7 549,153.7 550,153.7 550,153.7 550,153.7 550,153.7 550,154.4 550,154.4 
	550,154.4 550,154.4 550,154.4 550,155.1 550,154.4 550,154.4 550,154.4 551,154.4 551,155.1 551,155.1 551,155.1 551,154.4 
	551,154.4 551,154.4 551,154.4 551,154.4 551,155.1 551,155.1 551,155.1 551,155.1 552,155.1 552,155.7 552,155.7 552,155.7 
	552,155.7 552,155.7 552,155.7 552,155.7 552,155.7 552,155.7 552,155.7 552,155.7 553,155.7 553,155.7 553,155.7 553,156.4 
	553,156.4 553,156.4 553,156.4 553,156.4 553,156.4 553,156.4 553,156.4 553,156.4 553,156.4 554,156.4 554,156.4 554,156.4 
	554,156.4 554,156.4 554,156.4 554,156.4 554,156.4 554,155.7 554,155.7 554,156.4 554,156.4 554,156.4 555,156.4 555,156.4 
	555,155.7 555,155.7 555,155.7 555,155.7 555,155.7 555,155.7 555,155.7 555,155.7 555,155.7 555,155.7 555,155.1 556,155.1 
	556,155.1 556,154.4 556,154.4 556,154.4 556,153.7 556,153.7 556,153 556,153 556,152.4 556,152.4 556,152.4 556,151.7 557,151.7 
	557,151.7 557,151 557,151 557,151 557,151 557,151 557,151 557,151 557,150.4 557,150.4 557,150.4 557,150.4 558,150.4 558,150.4 
	558,150.4 558,150.4 558,150.4 558,149.7 558,149.7 558,149.7 558,149.7 558,149.7 558,149.7 558,149.1 558,149.1 559,149.1 
	559,149.1 559,149.1 559,149.1 559,149.1 559,149.1 559,149.1 559,149.1 559,149.1 559,149.1 559,149.7 559,149.7 559,149.7 
	560,150.4 560,151 560,151 560,151.7 560,152.4 560,153 560,153 560,153.7 560,154.4 560,154.4 560,155.1 560,155.1 560,155.1 
	561,155.1 561,155.1 561,155.1 561,155.1 561,155.1 561,155.1 561,155.7 561,155.7 561,155.7 561,155.7 561,155.7 561,155.1 
	561,155.1 562,154.4 562,154.4 562,154.4 562,153.7 562,153.7 562,153 562,153 562,152.4 562,152.4 562,151.7 562,151.7 562,151 
	563,151 563,151 563,151 563,150.4 563,150.4 563,150.4 563,150.4 563,149.7 563,149.7 563,149.1 563,149.1 563,149.1 563,148.4 
	564,148.4 564,148.4 564,148.4 564,148.4 564,148.4 564,148.4 564,147.7 564,147.7 564,147.7 564,147.7 564,147.7 564,147.1 
	564,147.1 565,147.1 565,146.4 565,146.4 565,146.4 565,145.7 565,145.7 565,145 565,145 565,144.4 565,144.4 565,143.7 565,143.7 
	565,143 566,143 566,142.3 566,142.3 566,141.7 566,141.7 566,141 566,141 566,141 566,140.4 566,140.4 566,140.4 566,139.7 
	566,139.7 567,139.7 567,139.1 567,139.1 567,139.1 567,138.4 567,138.4 567,138.4 567,138.4 567,137.7 567,137.7 567,137.7 
	567,137.7 567,137.7 568,137.7 568,137.7 568,137.1 568,137.1 568,137.1 568,137.7 568,137.7 568,137.7 568,137.7 568,137.7 
	568,137.7 568,137.7 568,137.7 569,137.7 569,137.7 569,137.7 569,138.4 569,138.4 569,138.4 569,139.1 569,139.1 569,139.1 
	569,139.7 569,139.7 569,140.4 569,141 570,141 570,141.7 570,142.3 570,142.3 570,143 570,143 570,143 570,143.7 570,143.7 
	570,143 570,143 570,143 570,143 571,143.7 571,143.7 571,143.7 571,143.7 571,143.7 571,143.7 571,143.7 571,143.7 571,144.4 
	571,144.4 571,144.4 571,144.4 571,144.4 572,145 572,145 572,145 572,145 572,145 572,145 572,145.7 572,145.7 572,145.7 
	572,145.7 572,145.7 572,145.7 573,146.4 573,146.4 573,146.4 573,146.4 573,147.1 573,147.1 573,147.1 573,147.1 573,147.1 
	573,147.1 573,147.1 573,147.1 573,147.1 574,147.1 574,146.4 574,145.7 574,145.7 574,145 574,145 574,145 574,145 574,144.4 
	574,144.4 574,144.4 574,144.4 574,144.4 575,144.4 575,144.4 575,144.4 575,144.4 575,144.4 575,143.7 575,143.7 575,143.7 
	575,144.4 575,144.4 575,144.4 575,144.4 575,144.4 576,144.4 576,144.4 576,144.4 576,145 576,145 576,145 576,145 576,145 
	576,145 576,145 576,145 576,145 576,145 577,145 577,145.7 577,145 577,145 577,145 577,145 577,145 577,145 577,144.4 577,144.4 
	577,143.7 577,143.7 577,143.7 578,143 578,143 578,143 578,143 578,143 578,142.3 578,142.3 578,141.7 578,141.7 578,141.7 
	578,141.7 578,141.7 578,141 579,141.7 579,141 579,141 579,141 579,141 579,141 579,141 579,140.4 579,140.4 579,140.4 579,140.4 
	579,139.7 579,139.7 580,139.7 580,139.7 580,139.1 580,139.1 580,139.1 580,139.1 580,139.1 580,139.1 580,139.1 580,139.7 
	580,139.7 580,139.7 580,139.7 581,139.7 581,139.7 581,139.1 581,139.1 581,139.1 581,138.4 581,138.4 581,138.4 581,137.7 
	581,137.7 581,137.7 581,137.1 582,137.1 582,137.1 582,136.4 582,136.4 582,136.4 582,135.7 582,135.7 582,135 582,135 582,135 
	582,134.4 582,134.4 582,134.4 583,133.7 583,133.7 583,133.7 583,133.7 583,133 583,133 583,132.4 583,132.4 583,131.7 583,131.7 
	583,131.1 583,131.1 583,130.4 584,130.4 584,129.7 584,129.7 584,129.1 584,129.1 584,129.1 584,129.1 584,129.1 584,128.4 
	584,128.4 584,128.4 584,128.4 584,128.4 585,127.7 585,127.7 585,127 585,127 585,127 585,126.4 585,126.4 585,126.4 585,126.4 
	585,125.7 585,125.7 585,125.7 585,125.7 586,125 586,125 586,125 586,124.4 586,124.4 586,124.4 586,123.7 586,123.7 586,123.1 
	586,123.1 586,123.1 586,123.1 586,122.4 587,122.4 587,122.4 587,122.4 587,121.7 587,121.7 587,121.7 587,121.7 587,121.7 
	587,121.1 587,121.1 587,121.1 587,121.1 587,121.1 588,121.1 588,121.1 588,121.1 588,121.1 588,121.1 588,121.1 588,121.1 
	588,121.7 588,121.7 588,121.7 588,122.4 588,123.1 588,124.4 589,125.7 589,126.4 589,126.4 589,125 589,124.4 589,123.1 
	589,123.7 589,123.7 589,124.4 589,124.4 589,125 589,125 589,125 590,125.7 590,125.7 590,125.7 590,126.4 590,126.4 590,126.4 
	590,126.4 590,126.4 590,126.4 590,127 590,127 590,127.7 590,127.7 591,127.7 591,127.7 591,128.4 591,128.4 591,128.4 591,129.1 
	591,128.4 591,129.1 591,129.1 591,129.1 591,129.1 591,129.1 592,129.7 592,129.7 592,129.7 592,130.4 592,130.4 592,130.4 
	592,131.1 592,131.1 592,131.1 592,131.1 592,131.1 592,131.1 592,131.1 593,131.1 593,131.7 593,131.7 593,131.7 593,131.7 
	593,131.7 593,132.4 593,132.4 593,133 593,133 593,133 593,133.7 593,133.7 594,133.7 594,133.7 594,133.7 594,133.7 594,134.4 
	594,134.4 594,134.4 594,135 594,135 594,135 594,135.7 594,135.7 594,135.7 595,136.4 595,136.4 595,136.4 595,136.4 595,135.7 
	595,135.7 595,136.4 595,136.4 595,136.4 595,136.4 595,136.4 595,135.7 595,135.7 596,135.7 596,135 596,135 596,135 596,134.4 
	596,134.4 596,134.4 596,133.7 596,133.7 596,133.7 596,133.7 596,133.7 596,133.7 597,133.7 597,133.7 597,133.7 597,133.7 
	597,133.7 597,133.7 597,133.7 597,133 597,133 597,133 597,133 597,133 597,133 598,133 598,133 598,133 598,133 598,133 598,133 
	598,133 598,133 598,133 598,133 598,133.7 598,133.7 598,133.7 599,134.4 599,134.4 599,135 599,135 599,135.7 599,135.7 
	599,136.4 599,137.1 599,137.1 599,137.7 599,138.4 599,138.4 599,139.1 600,139.7 600,139.7 600,139.7 600,140.4 600,140.4 
	600,140.4 600,141 600,141 600,141.7 600,141.7 600,141.7 600,142.3 600,142.3 601,142.3 601,143 601,143 601,143.7 601,143.7 
	601,143.7 601,143.7 601,143.7 601,144.4 601,144.4 601,145 601,145 602,145 602,145 602,145 602,145 602,145 602,145.7 602,145.7 
	602,145.7 602,145.7 602,145.7 602,145.7 602,145.7 602,145.7 603,146.4 603,146.4 603,146.4 603,146.4 603,147.1 603,147.1 
	603,147.1 603,147.1 603,147.7 603,147.7 603,147.7 603,147.7 603,147.7 604,147.7 604,147.7 604,147.7 604,147.7 604,147.7 
	604,148.4 604,148.4 604,148.4 604,148.4 604,148.4 604,148.4 604,148.4 604,148.4 605,148.4 605,148.4 605,148.4 605,149.1 
	605,149.1 605,149.1 605,149.1 605,149.1 605,149.1 605,149.1 605,148.4 605,148.4 605,148.4 606,148.4 606,147.7 606,147.7 
	606,147.7 606,147.1 606,147.1 606,146.4 606,146.4 606,145.7 606,145.7 606,145.7 606,145 606,145 607,145 607,145 607,145 
	607,144.4 607,144.4 607,144.4 607,144.4 607,144.4 607,144.4 607,144.4 607,144.4 607,144.4 607,144.4 608,145 608,145 608,145.7 
	608,145.7 608,145.7 608,146.4 608,146.4 608,146.4 608,146.4 608,147.1 608,146.4 608,146.4 608,146.4 609,146.4 609,146.4 
	609,145.7 609,145.7 609,145.7 609,145.7 609,145.7 609,145 609,145 609,145 609,144.4 609,144.4 609,144.4 610,144.4 610,144.4 
	610,143.7 610,143.7 610,143.7 610,143.7 610,143 610,143 610,143 610,143 610,143 610,142.3 611,142.3 611,143 611,143 611,143 
	611,142.3 611,142.3 611,142.3 611,142.3 611,142.3 611,141.7 611,141.7 611,141.7 611,141.7 612,141 612,141 612,141 612,140.4 
	612,140.4 612,139.7 612,139.7 612,139.1 612,139.1 612,138.4 612,138.4 612,138.4 612,138.4 613,138.4 613,138.4 613,138.4 
	613,138.4 613,138.4 613,138.4 613,138.4 613,137.7 613,137.7 613,137.1 613,137.1 613,137.1 613,136.4 614,136.4 614,135.7 
	614,135.7 614,135 614,135 614,135 614,134.4 614,134.4 614,134.4 614,133.7 614,133.7 614,133 614,133 615,133 615,133 615,132.4 
	615,132.4 615,131.7 615,131.1 615,130.4 615,130.4 615,130.4 615,130.4 615,130.4 615,130.4 615,129.7 616,129.7 616,129.7 
	616,129.1 616,129.1 616,129.1 616,128.4 616,128.4 616,128.4 616,128.4 616,128.4 616,128.4 616,128.4 616,128.4 617,128.4 
	617,128.4 617,128.4 617,127.7 617,127.7 617,127.7 617,127.7 617,127.7 617,127.7 617,127.7 617,127.7 617,127.7 617,127.7 
	618,127.7 618,127.7 618,127.7 618,127.7 618,127.7 618,127.7 618,128.4 618,128.4 618,128.4 618,128.4 618,128.4 618,128.4 
	618,129.1 619,129.1 619,129.1 619,129.7 619,129.7 619,129.7 619,129.7 619,129.7 619,130.4 619,130.4 619,130.4 619,130.4 
	619,130.4 619,130.4 620,131.1 620,131.1 620,131.1 620,131.1 620,131.1 620,131.1 620,131.1 620,131.1 620,131.7 620,131.7 
	620,131.7 620,131.7 621,131.7 621,131.7 621,131.7 621,131.7 621,132.4 621,132.4 621,133 621,133.7 621,133.7 621,134.4 
	621,134.4 621,134.4 621,135 622,135 622,135 622,135.7 622,135.7 622,136.4 622,136.4 622,137.1 622,137.1 622,137.1 622,137.7 
	622,137.7 622,137.7 622,138.4 623,138.4 623,138.4 623,138.4 623,138.4 623,138.4 623,138.4 623,138.4 623,138.4 623,138.4 
	623,138.4 623,138.4 623,138.4 623,139.1 624,139.1 624,139.1 624,139.1 624,139.7 624,139.7 624,139.7 624,139.7 624,139.7 
	624,139.7 624,140.4 624,140.4 624,140.4 624,140.4 625,140.4 625,140.4 625,140.4 625,140.4 625,140.4 625,140.4 625,140.4 
	625,140.4 625,140.4 625,140.4 625,140.4 625,140.4 625,140.4 626,140.4 626,140.4 626,140.4 626,140.4 626,140.4 626,140.4 
	626,140.4 626,140.4 626,141 626,141 626,141 626,141 626,141 627,141 627,141 627,141 627,141 627,141 627,141 627,141 627,141 
	627,141.7 627,141.7 627,141.7 627,141.7 627,142.3 628,142.3 628,142.3 628,142.3 628,142.3 628,143 628,143 628,143 628,143.7 
	628,143.7 628,143.7 628,143.7 628,144.4 628,144.4 629,144.4 629,144.4 629,144.4 629,144.4 629,144.4 629,145 629,145 629,145 
	629,145 629,145 629,145.7 629,145.7 629,145.7 630,145.7 630,145.7 630,145.7 630,145.7 630,145.7 630,146.4 630,146.4 630,146.4 
	630,146.4 630,146.4 630,146.4 630,146.4 631,146.4 631,146.4 631,146.4 631,146.4 631,146.4 631,146.4 631,146.4 631,146.4 
	631,146.4 631,146.4 631,146.4 631,145.7 631,145.7 632,145.7 632,145.7 632,145 632,145 632,145 632,144.4 632,144.4 632,144.4 
	632,143.7 632,143.7 632,143.7 632,143 632,143 633,143 633,142.3 633,142.3 633,142.3 633,142.3 633,142.3 633,141.7 633,141.7 
	633,141.7 633,141.7 633,141.7 633,141.7 633,141.7 634,141.7 634,141.7 634,141.7 634,141.7 634,142.3 634,142.3 634,142.3 
	634,143 634,143 634,143 634,143.7 634,143.7 634,144.4 635,144.4 635,144.4 635,145 635,145 635,145 635,145.7 635,145.7 
	635,145.7 635,145.7 635,145.7 635,146.4 635,146.4 635,146.4 636,146.4 636,146.4 636,146.4 636,146.4 636,146.4 636,146.4 
	636,147.1 636,147.1 636,147.1 636,147.1 636,147.1 636,147.1 636,147.1 637,147.1 637,147.7 637,147.7 637,147.7 637,147.7 
	637,147.7 637,147.7 637,147.1 637,147.1 637,147.1 637,147.1 637,147.1 637,147.1 638,147.1 638,146.4 638,146.4 638,145.7 
	638,145.7 638,145.7 638,145.7 638,145.7 638,145 638,145 638,145 638,145 638,145 639,144.4 639,144.4 639,144.4 639,144.4 
	639,144.4 639,143.7 639,143.7 639,143.7 639,143.7 639,143.7 639,143.7 639,143.7 639,143.7 640,143 640,143 640,143 640,143 
	640,143 640,143 640,142.3 640,142.3 640,142.3 640,141.7 640,141.7 640,141.7 641,141.7 641,141.7 641,141.7 641,141.7 641,141.7 
	641,141.7 641,141.7 641,141.7 641,142.3 641,142.3 641,143 641,143 641,143 642,143 642,143 642,143.7 642,143.7 642,143.7 
	642,144.4 642,144.4 642,144.4 642,145 642,145 642,145 642,145.7 642,145.7 643,145.7 643,146.4 643,146.4 643,146.4 643,146.4 
	643,146.4 643,147.1 643,147.1 643,147.1 643,147.1 643,147.7 643,147.7 643,147.7 644,147.7 644,147.7 644,147.7 644,147.7 
	644,147.7 644,147.7 644,147.7 644,147.7 644,147.7 644,147.7 644,147.7 644,148.4 644,148.4 645,148.4 645,148.4 645,148.4 
	645,148.4 645,148.4 645,148.4 645,148.4 645,148.4 645,148.4 645,148.4 645,148.4 645,148.4 645,148.4 646,148.4 646,147.7 
	646,147.7 646,147.7 646,147.7 646,147.7 646,147.1 646,147.1 646,147.1 646,147.1 646,146.4 646,146.4 646,146.4 647,146.4 
	647,145.7 647,145.7 647,145.7 647,145.7 647,145 647,145 647,145 647,145 647,145 647,145 647,144.4 647,144.4 648,144.4 
	648,144.4 648,144.4 648,144.4 648,144.4 648,144.4 648,144.4 648,144.4 648,144.4 648,144.4 648,145 648,145 648,145 649,145 
	649,145 649,145 649,145 649,145 649,145 649,145 649,145 649,145 649,145 649,145 649,145 650,145 650,145 650,145 650,145 
	650,145 650,145 650,145.7 650,145.7 650,145.7 650,146.4 650,146.4 650,147.1 650,147.1 651,147.7 651,148.4 651,148.4 651,149.1 
	651,150.4 651,151 651,151.7 651,152.4 651,152.4 651,151 651,150.4 651,150.4 651,150.4 652,150.4 652,151 652,151 652,151 
	652,151.7 652,151.7 652,151.7 652,152.4 652,152.4 652,152.4 652,152.4 652,152.4 652,152.4 653,153 653,153 653,153 653,153 
	653,153.7 653,153.7 653,153 653,153 653,153 653,153 653,153 653,152.4 653,152.4 654,152.4 654,152.4 654,152.4 654,152.4 
	654,152.4 654,151.7 654,151.7 654,151.7 654,151.7 654,151.7 654,151.7 654,151.7 654,151 655,151 655,151 655,150.4 655,150.4 
	655,150.4 655,149.7 655,149.7 655,149.7 655,149.1 655,149.1 655,148.4 655,148.4 655,148.4 656,147.7 656,147.7 656,147.7 
	656,147.1 656,147.1 656,146.4 656,146.4 656,146.4 656,146.4 656,146.4 656,146.4 656,146.4 656,146.4 657,146.4 657,146.4 
	657,146.4 657,146.4 657,146.4 657,146.4 657,146.4 657,146.4 657,146.4 657,146.4 657,147.7 657,148.4 657,149.7 658,149.7 
	658,149.1 658,148.4 658,147.7 658,147.7 658,147.1 658,146.4 658,145.7 658,145.7 658,145.7 658,145.7 658,145.7 658,145.7 
	659,145 659,145 659,145 659,144.4 659,144.4 659,143.7 659,143 659,143 659,142.3 659,141.7 659,141.7 659,141 660,141 660,141 
	660,140.4 660,140.4 660,140.4 660,140.4 660,140.4 660,140.4 660,140.4 660,140.4 660,140.4 660,140.4 660,140.4 661,140.4 
	661,140.4 661,140.4 661,139.7 661,139.7 661,139.7 661,139.7 661,139.7 661,139.1 661,139.1 661,139.1 661,139.7 661,140.4 
	662,140.4 662,141 662,141 662,141.7 662,141.7 662,142.3 662,142.3 662,143 662,143 662,143.7 662,143.7 662,144.4 662,144.4 
	663,145 663,145 663,145.7 663,145.7 663,146.4 663,146.4 663,147.1 663,147.1 663,147.1 663,147.1 663,147.7 663,147.7 663,147.7 
	664,147.7 664,147.7 664,147.7 664,147.7 664,147.7 664,147.7 664,148.4 664,148.4 664,148.4 664,148.4 664,148.4 664,148.4 
	664,148.4 665,148.4 665,147.7 665,147.7 665,147.7 665,147.1 665,147.1 665,146.4 665,146.4 665,145.7 665,145.7 665,145 665,145 
	665,145 666,144.4 666,144.4 666,143.7 666,143 666,143 666,142.3 666,142.3 666,141.7 666,141.7 666,141.7 666,141.7 666,141.7 
	666,141.7 667,141 667,141 667,141 667,141.7 667,141.7 667,141.7 667,141.7 667,141.7 667,141.7 667,141.7 667,141.7 667,141.7 
	667,141.7 668,141 668,141 668,141 668,141.7 668,141.7 668,141.7 668,141.7 668,141.7 668,141.7 668,141.7 668,141.7 668,141.7 
	668,141.7 669,141.7 669,141.7 669,141 669,141 669,141 669,140.4 669,140.4 669,140.4 669,140.4 669,140.4 669,140.4 669,141 
	670,141 670,141.7 670,141.7 670,141.7 670,142.3 670,142.3 670,143 670,143 670,143 670,143 670,143 670,143 670,143 671,143.7 
	671,143.7 671,143 671,143 671,143 671,143 671,143 671,143 671,143 671,142.3 671,142.3 671,142.3 671,142.3 672,141.7 672,141.7 
	672,141.7 672,141 672,141 672,141 672,140.4 672,140.4 672,139.7 672,139.7 672,139.7 672,139.7 672,139.7 673,139.1 673,139.1 
	673,139.1 673,139.1 673,138.4 673,138.4 673,138.4 673,138.4 673,138.4 673,138.4 673,138.4 673,138.4 673,139.1 674,139.7 
	674,139.7 674,140.4 674,141 674,141 674,141.7 674,142.3 674,142.3 674,143 674,143.7 674,143.7 674,144.4 674,144.4 675,145 
	675,145.7 675,145.7 675,146.4 675,147.1 675,147.1 675,147.1 675,147.1 675,147.1 675,147.1 675,147.7 675,147.7 675,148.4 
	676,148.4 676,149.1 676,149.1 676,149.1 676,149.1 676,149.7 676,149.7 676,149.7 676,149.7 676,150.4 676,150.4 676,150.4 
	676,151 677,151 677,151 677,151 677,151 677,151 677,151.7 677,151.7 677,151.7 677,152.4 677,152.4 677,152.4 677,152.4 
	677,152.4 678,152.4 678,153 678,153 678,152.4 678,152.4 678,152.4 678,152.4 678,152.4 678,152.4 678,152.4 678,152.4 678,151.7 
	678,151.7 679,151.7 679,151.7 679,151.7 679,151.7 679,151 679,151 679,151 679,151 679,150.4 679,150.4 679,150.4 679,149.7 
	680,149.7 680,149.7 680,149.1 680,149.1 680,149.1 680,148.4 680,148.4 680,148.4 680,148.4 680,148.4 680,148.4 680,147.7 
	680,147.7 681,147.7 681,147.1 681,147.1 681,146.4 681,146.4 681,146.4 681,145.7 681,145.7 681,145.7 681,145.7 681,145.7 
	681,145.7 681,145.7 682,145.7 682,145.7 682,145.7 682,145.7 682,145.7 682,145.7 682,145.7 682,145.7 682,145.7 682,145 682,145 
	682,145 682,145 683,145 683,144.4 683,144.4 683,144.4 683,144.4 683,144.4 683,143.7 683,143.7 683,143.7 683,143.7 683,143.7 
	683,143 683,143 684,143 684,143 684,142.3 684,142.3 684,142.3 684,141.7 684,141.7 684,141.7 684,141 684,141 684,141 684,140.4 
	684,140.4 685,139.7 685,139.7 685,139.7 685,139.7 685,139.7 685,139.7 685,139.7 685,139.7 685,139.1 685,139.1 685,139.1 
	685,138.4 685,138.4 686,138.4 686,137.7 686,137.7 686,137.7 686,137.7 686,137.7 686,137.7 686,137.7 686,137.7 686,137.7 
	686,137.7 686,137.7 686,137.7 687,137.7 687,137.7 687,137.7 687,137.7 687,137.7 687,137.7 687,137.7 687,137.7 687,137.7 
	687,137.7 687,137.7 687,137.7 687,137.7 688,137.7 688,137.7 688,137.7 688,137.7 688,138.4 688,138.4 688,138.4 688,138.4 
	688,138.4 688,138.4 688,138.4 688,138.4 689,138.4 689,138.4 689,138.4 689,138.4 689,138.4 689,138.4 689,137.7 689,137.7 
	689,137.1 689,137.1 689,137.1 689,137.1 689,136.4 690,136.4 690,136.4 690,136.4 690,135.7 690,135.7 690,135.7 690,135.7 
	690,135.7 690,135.7 690,135.7 690,135.7 690,135.7 690,135.7 691,135.7 691,135.7 691,135.7 691,136.4 691,136.4 691,136.4 
	691,136.4 691,136.4 691,136.4 691,135.7 691,135.7 691,135.7 691,135.7 692,135.7 692,135 692,135.7 692,135.7 692,135.7 
	692,135.7 692,135.7 692,135.7 692,135.7 692,136.4 692,136.4 692,136.4 692,136.4 693,136.4 693,136.4 693,136.4 693,136.4 
	693,136.4 693,135.7 693,135.7 693,135.7 693,135.7 693,135.7 693,135.7 693,135.7 693,135 694,135 694,135 694,135 694,135 
	694,135 694,135 694,135 694,135 694,135 694,135 694,135.7 694,135.7 694,135.7 695,135.7 695,135.7 695,135.7 695,135.7 695,135 
	695,135 695,135 695,134.4 695,134.4 695,134.4 695,134.4 695,133.7 695,133.7 696,133.7 696,133 696,133 696,133 696,132.4 
	696,132.4 696,132.4 696,132.4 696,131.7 696,131.7 696,131.1 696,131.1 696,131.1 697,131.1 697,130.4 697,130.4 697,130.4 
	697,130.4 697,129.7 697,129.7 697,129.7 697,129.7 697,129.1 697,129.1 697,129.1 697,129.1 698,129.1 698,129.1 698,129.1 
	698,129.1 698,128.4 698,128.4 698,128.4 698,128.4 698,128.4 698,128.4 698,128.4 698,127.7 699,127.7 699,127.7 699,127.7 
	699,127 699,127 699,127 699,127 699,127 699,127 699,126.4 699,126.4 699,126.4 699,126.4 700,126.4 700,126.4 700,125.7 
	700,125.7 700,125.7 700,125 700,125 700,125 700,124.4 700,124.4 700,124.4 700,123.7 700,123.7 701,123.1 701,123.1 701,123.1 
	701,122.4 701,122.4 701,122.4 701,121.7 701,121.7 701,121.7 701,121.7 701,121.7 701,121.7 701,121.1 702,121.1 702,121.1 
	702,121.1 702,121.1 702,120.4 702,120.4 702,120.4 702,120.4 702,120.4 702,120.4 702,120.4 702,120.4 702,120.4 703,121.1 
	703,121.1 703,121.1 703,121.1 703,121.7 703,121.7 703,122.4 703,123.1 703,123.1 703,123.7 703,123.7 703,124.4 703,125 704,125 
	704,125.7 704,126.4 704,126.4 704,126.4 704,127 704,127 704,127 704,127.7 704,127.7 704,128.4 704,128.4 704,129.1 705,129.7 
	705,130.4 705,131.1 705,131.1 705,131.7 705,131.7 705,131.7 705,132.4 705,132.4 705,132.4 705,133 705,133 705,133 706,133.7 
	706,133.7 706,134.4 706,135 706,135.7 706,135.7 706,135.7 706,135 706,135 706,135.7 706,135.7 706,135.7 706,135.7 707,136.4 
	707,136.4 707,137.1 707,137.1 707,137.1 707,137.1 707,137.7 707,137.7 707,137.7 707,137.7 707,137.7 707,137.7 707,138.4 
	708,138.4 708,139.1 708,139.1 708,139.1 708,139.1 708,138.4 708,139.1 708,139.1 708,139.1 708,139.1 708,139.1 708,139.7 
	709,140.4 709,140.4 709,141 709,141 709,141 709,141.7 709,141.7 709,141.7 709,141.7 709,141.7 709,141.7 709,141.7 709,142.3 
	710,142.3 710,142.3 710,141.7 710,141.7 710,142.3 710,143 710,143 710,143.7 710,143.7 710,143.7 710,143.7 710,143.7 710,143.7 
	711,144.4 711,144.4 711,144.4 711,144.4 711,144.4 711,145 711,145 711,145 711,145 711,145.7 711,145.7 711,146.4 711,146.4 
	712,147.1 712,147.1 712,147.7 712,147.7 712,148.4 712,148.4 712,148.4 712,149.1 712,149.1 712,149.1 712,149.1 712,149.1 
	712,149.7 713,149.7 713,149.7 713,150.4 713,150.4 713,150.4 713,151 713,151 713,151 713,151.7 713,151.7 713,151.7 713,151.7 
	713,152.4 714,152.4 714,152.4 714,152.4 714,153 714,153 714,153 714,153 714,153 714,153 714,153 714,153 714,153 714,153 
	715,153 715,153 715,153 715,153 715,153 715,153 715,153 715,152.4 715,152.4 715,152.4 715,152.4 715,152.4 715,152.4 716,152.4 
	716,152.4 716,153 716,153 716,153 716,153.7 716,153.7 716,153.7 716,153.7 716,154.4 716,154.4 716,154.4 716,155.1 717,155.1 
	717,155.7 717,155.7 717,156.4 717,156.4 717,156.4 717,156.4 717,157.1 717,157.1 717,157.7 717,157.7 717,158.4 717,158.4 
	718,158.4 718,159 718,159.7 718,160.3 718,161 718,161.7 718,161.7 718,162.4 718,162.4 718,163 718,163 718,163.7 719,163.7 
	719,164.4 719,164.4 719,164.4 719,165.1 719,165.1 719,165.7 719,165.7 719,165.7 719,166.4 719,166.4 719,166.4 719,167 720,167 
	720,167 720,167 720,167 720,167 720,167 720,167 720,167 720,166.4 720,166.4 720,166.4 "/>
</svg>
