<!-- Generator: Adobe Illustrator 19.2.0, SVG Export Plug-In  -->
<!DOCTYPE svg PUBLIC "-//W3C//DTD SVG 1.1//EN" "http://www.w3.org/Graphics/SVG/1.1/DTD/svg11.dtd" [
	<!ENTITY ns_flows "http://ns.adobe.com/Flows/1.0/">
	<!ENTITY st0 "fill:none;stroke:#FFFFFF;stroke-linecap:square;stroke-linejoin:bevel;stroke-dasharray:1,2;">
	<!ENTITY st1 "fill:none;stroke:#624949;stroke-width:1.5;stroke-linecap:round;stroke-linejoin:round;">
	<!ENTITY st2 "fill:#624949;">
]>
<svg version="1.1"
	 xmlns="http://www.w3.org/2000/svg" xmlns:xlink="http://www.w3.org/1999/xlink" xmlns:a="http://ns.adobe.com/AdobeSVGViewerExtensions/3.0/"
	 x="0px" y="0px" width="759px" height="380px" preserveAspectRatio="none" viewBox="0 0 759 380" style="enable-background:new 0 0 759 380;"
	 xml:space="preserve">
<defs>
</defs>
<line vector-effect="non-scaling-stroke" style="&st0;" x1="0.5" y1="0.5" x2="0.5" y2="379.5"/>
<line vector-effect="non-scaling-stroke" style="&st0;" x1="95.5" y1="0.5" x2="95.5" y2="379.5"/>
<line vector-effect="non-scaling-stroke" style="&st0;" x1="190.5" y1="0.5" x2="190.5" y2="379.5"/>
<line vector-effect="non-scaling-stroke" style="&st0;" x1="284.5" y1="0.5" x2="284.5" y2="379.5"/>
<line vector-effect="non-scaling-stroke" style="&st0;" x1="379.5" y1="0.5" x2="379.5" y2="379.5"/>
<line vector-effect="non-scaling-stroke" style="&st0;" x1="474.5" y1="0.5" x2="474.5" y2="379.5"/>
<line vector-effect="non-scaling-stroke" style="&st0;" x1="569.5" y1="0.5" x2="569.5" y2="379.5"/>
<line vector-effect="non-scaling-stroke" style="&st0;" x1="663.5" y1="0.5" x2="663.5" y2="379.5"/>
<line vector-effect="non-scaling-stroke" style="&st0;" x1="758.5" y1="0.5" x2="758.5" y2="379.5"/>
<line vector-effect="non-scaling-stroke" style="&st0;" x1="0.5" y1="379.5" x2="758.5" y2="379.5"/>
<line vector-effect="non-scaling-stroke" style="&st0;" x1="0.5" y1="325.5" x2="758.5" y2="325.5"/>
<line vector-effect="non-scaling-stroke" style="&st0;" x1="0.5" y1="270.5" x2="758.5" y2="270.5"/>
<line vector-effect="non-scaling-stroke" style="&st0;" x1="0.5" y1="216.5" x2="758.5" y2="216.5"/>
<line vector-effect="non-scaling-stroke" style="&st0;" x1="0.5" y1="162.5" x2="758.5" y2="162.5"/>
<line vector-effect="non-scaling-stroke" style="&st0;" x1="0.5" y1="108.5" x2="758.5" y2="108.5"/>
<line vector-effect="non-scaling-stroke" style="&st0;" x1="0.5" y1="53.5" x2="758.5" y2="53.5"/>
<g transform="matrix(1,0,0,1,0,0)">
	<polyline vector-effect="non-scaling-stroke" style="&st1;" points="716.5,324.5 716.5,324.5 716.5,324.5 716.5,324.5 716.5,324.5 
		716.5,324.5 716.5,324.5 716.5,324.5 716.5,324.5 	"/>
</g>
<g transform="matrix(1,0,0,1,0,0)">
	<polyline vector-effect="non-scaling-stroke" style="&st2;" points="709.5,379.5 119.5,379.5 119.5,357.7 119.5,357 119.5,355.5 
		119.5,355.5 119.5,355.5 119.5,355.5 119.5,355.5 119.5,355.5 120.5,355.5 120.5,355.5 120.5,355.5 120.5,355.5 120.5,355.5 
		120.5,355.5 120.5,355.5 120.5,355.5 120.5,355.5 120.5,355.5 120.5,355.5 120.5,355.5 120.5,355.5 121.5,355.5 121.5,355.5 
		121.5,355.5 121.5,354.5 121.5,354.5 121.5,354.5 121.5,354.5 121.5,354.5 121.5,354.5 121.5,354.5 121.5,354.5 121.5,354.5 
		121.5,353.5 122.5,353.5 122.5,353.5 122.5,353.5 122.5,353.5 122.5,353.5 122.5,353.5 122.5,353.5 122.5,353.5 122.5,353.5 
		122.5,353.5 122.5,352.5 122.5,352.5 122.5,352.5 123.5,352.5 123.5,353.5 123.5,353.5 123.5,353.5 123.5,353.5 123.5,353.5 
		123.5,353.5 123.5,354.5 123.5,355.5 123.5,356.5 123.5,356.5 123.5,356.5 123.5,356.5 124.5,355.5 124.5,355.5 124.5,355.5 
		124.5,355.5 124.5,355.5 124.5,354.5 124.5,354.5 124.5,354.5 124.5,354.5 124.5,353.5 124.5,353.5 124.5,353.5 124.5,353.5 
		125.5,353.5 125.5,353.5 125.5,353.5 125.5,353.5 125.5,353.5 125.5,354.5 125.5,354.5 125.5,353.5 125.5,353.5 125.5,353.5 
		125.5,353.5 125.5,353.5 125.5,353.5 126.5,353.5 126.5,353.5 126.5,353.5 126.5,353.5 126.5,352.5 126.5,352.5 126.5,352.5 
		126.5,352.5 126.5,352.5 126.5,352.5 126.5,351.5 126.5,352.5 126.5,352.5 127.5,352.5 127.5,352.5 127.5,352.5 127.5,352.5 
		127.5,352.5 127.5,351.5 127.5,351.5 127.5,351.5 127.5,350.5 127.5,350.5 127.5,350.5 127.5,350.5 127.5,350.5 128.5,350.5 
		128.5,350.5 128.5,350.5 128.5,349.5 128.5,349.5 128.5,349.5 128.5,349.5 128.5,349.5 128.5,348.5 128.5,348.5 128.5,348.5 
		128.5,348.5 128.5,347.5 129.5,347.5 129.5,347.5 129.5,347.5 129.5,346.5 129.5,346.5 129.5,346.5 129.5,346.5 129.5,346.5 
		129.5,346.5 129.5,346.5 129.5,346.5 129.5,346.5 129.5,346.5 130.5,346.5 130.5,347.5 130.5,346.5 130.5,346.5 130.5,346.5 
		130.5,346.5 130.5,345.5 130.5,345.5 130.5,345.5 130.5,345.5 130.5,345.5 130.5,345.5 130.5,345.5 131.5,345.5 131.5,344.5 
		131.5,344.5 131.5,344.5 131.5,344.5 131.5,343.5 131.5,343.5 131.5,343.5 131.5,343.5 131.5,343.5 131.5,342.5 131.5,342.5 
		131.5,342.5 132.5,342.5 132.5,342.5 132.5,342.5 132.5,342.5 132.5,342.5 132.5,342.5 132.5,342.5 132.5,342.5 132.5,342.5 
		132.5,342.5 132.5,342.5 132.5,342.5 132.5,342.5 133.5,342.5 133.5,341.5 133.5,341.5 133.5,341.5 133.5,341.5 133.5,340.5 
		133.5,340.5 133.5,340.5 133.5,340.5 133.5,339.5 133.5,339.5 133.5,339.5 133.5,339.5 134.5,339.5 134.5,339.5 134.5,339.5 
		134.5,339.5 134.5,339.5 134.5,338.5 134.5,338.5 134.5,338.5 134.5,338.5 134.5,338.5 134.5,338.5 134.5,338.5 134.5,337.5 
		135.5,337.5 135.5,337.5 135.5,337.5 135.5,336.5 135.5,336.5 135.5,336.5 135.5,336.5 135.5,336.5 135.5,336.5 135.5,335.5 
		135.5,336.5 135.5,335.5 135.5,335.5 136.5,335.5 136.5,335.5 136.5,335.5 136.5,335.5 136.5,335.5 136.5,335.5 136.5,335.5 
		136.5,335.5 136.5,335.5 136.5,335.5 136.5,334.5 136.5,334.5 136.5,334.5 137.5,334.5 137.5,334.5 137.5,333.5 137.5,333.5 
		137.5,333.5 137.5,333.5 137.5,333.5 137.5,333.5 137.5,332.5 137.5,332.5 137.5,332.5 137.5,332.5 137.5,332.5 138.5,332.5 
		138.5,331.5 138.5,331.5 138.5,331.5 138.5,331.5 138.5,331.5 138.5,331.5 138.5,330.5 138.5,330.5 138.5,330.5 138.5,330.5 
		138.5,330.5 138.5,329.5 139.5,329.5 139.5,329.5 139.5,329.5 139.5,329.5 139.5,329.5 139.5,329.5 139.5,328.5 139.5,328.5 
		139.5,328.5 139.5,328.5 139.5,328.5 139.5,328.5 139.5,327.5 140.5,327.5 140.5,327.5 140.5,327.5 140.5,327.5 140.5,327.5 
		140.5,326.5 140.5,326.5 140.5,326.5 140.5,326.5 140.5,326.5 140.5,326.5 140.5,325.5 140.5,325.5 141.5,325.5 141.5,325.5 
		141.5,325.5 141.5,324.5 141.5,324.5 141.5,324.5 141.5,324.5 141.5,324.5 141.5,324.5 141.5,323.5 141.5,323.5 141.5,323.5 
		141.5,323.5 142.5,323.5 142.5,323.5 142.5,322.5 142.5,322.5 142.5,322.5 142.5,322.5 142.5,322.5 142.5,322.5 142.5,321.5 
		142.5,321.5 142.5,321.5 142.5,321.5 142.5,321.5 143.5,321.5 143.5,320.5 143.5,320.5 143.5,320.5 143.5,319.5 143.5,319.5 
		143.5,319.5 143.5,319.5 143.5,318.5 143.5,318.5 143.5,318.5 143.5,318.5 143.5,317.5 144.5,317.5 144.5,317.5 144.5,317.5 
		144.5,316.5 144.5,316.5 144.5,316.5 144.5,316.5 144.5,315.5 144.5,315.5 144.5,315.5 144.5,315.5 144.5,314.5 144.5,314.5 
		145.5,314.5 145.5,314.5 145.5,313.5 145.5,313.5 145.5,313.5 145.5,313.5 145.5,313.5 145.5,312.5 145.5,312.5 145.5,312.5 
		145.5,312.5 145.5,311.5 145.5,311.5 146.5,311.5 146.5,311.5 146.5,310.5 146.5,310.5 146.5,310.5 146.5,310.5 146.5,310.5 
		146.5,310.5 146.5,310.5 146.5,310.5 146.5,310.5 146.5,310.5 146.5,310.5 147.5,310.5 147.5,310.5 147.5,310.5 147.5,310.5 
		147.5,309.5 147.5,309.5 147.5,310.5 147.5,310.5 147.5,310.5 147.5,310.5 147.5,310.5 147.5,310.5 147.5,311.5 148.5,311.5 
		148.5,311.5 148.5,311.5 148.5,311.5 148.5,310.5 148.5,310.5 148.5,310.5 148.5,309.5 148.5,309.5 148.5,309.5 148.5,308.5 
		148.5,308.5 148.5,308.5 149.5,307.5 149.5,307.5 149.5,307.5 149.5,306.5 149.5,306.5 149.5,305.5 149.5,305.5 149.5,305.5 
		149.5,304.5 149.5,304.5 149.5,303.5 149.5,303.5 149.5,303.5 150.5,302.5 150.5,302.5 150.5,301.5 150.5,301.5 150.5,300.5 
		150.5,299.5 150.5,299.5 150.5,298.5 150.5,298.5 150.5,298.5 150.5,297.5 150.5,297.5 150.5,296.5 151.5,296.5 151.5,295.5 
		151.5,295.5 151.5,294.5 151.5,294.5 151.5,294.5 151.5,293.5 151.5,293.5 151.5,294.5 151.5,293.5 151.5,293.5 151.5,293.5 
		151.5,293.5 152.5,293.5 152.5,292.5 152.5,292.5 152.5,291.5 152.5,291.5 152.5,290.5 152.5,290.5 152.5,289.5 152.5,288.5 
		152.5,287.5 152.5,287.5 152.5,286.5 152.5,285.5 153.5,285.5 153.5,285.5 153.5,284.5 153.5,284.5 153.5,285.5 153.5,284.5 
		153.5,284.5 153.5,283.5 153.5,283.5 153.5,283.5 153.5,283.5 153.5,283.5 153.5,283.5 154.5,283.5 154.5,283.5 154.5,283.5 
		154.5,282.5 154.5,282.5 154.5,282.5 154.5,281.5 154.5,281.5 154.5,281.5 154.5,280.5 154.5,280.5 154.5,279.5 154.5,279.5 
		155.5,278.5 155.5,278.5 155.5,278.5 155.5,278.5 155.5,278.5 155.5,278.5 155.5,278.5 155.5,277.5 155.5,277.5 155.5,277.5 
		155.5,277.5 155.5,277.5 155.5,277.5 156.5,277.5 156.5,277.5 156.5,277.5 156.5,277.5 156.5,277.5 156.5,277.5 156.5,277.5 
		156.5,277.5 156.5,277.5 156.5,277.5 156.5,277.5 156.5,277.5 156.5,277.5 157.5,277.5 157.5,277.5 157.5,277.5 157.5,277.5 
		157.5,276.5 157.5,276.5 157.5,276.5 157.5,276.5 157.5,276.5 157.5,276.5 157.5,276.5 157.5,276.5 157.5,276.5 158.5,276.5 
		158.5,276.5 158.5,276.5 158.5,276.5 158.5,276.5 158.5,276.5 158.5,276.5 158.5,276.5 158.5,276.5 158.5,276.5 158.5,275.5 
		158.5,275.5 158.5,275.5 159.5,275.5 159.5,275.5 159.5,275.5 159.5,274.5 159.5,274.5 159.5,274.5 159.5,274.5 159.5,274.5 
		159.5,275.5 159.5,275.5 159.5,274.5 159.5,274.5 159.5,274.5 160.5,274.5 160.5,274.5 160.5,273.5 160.5,273.5 160.5,273.5 
		160.5,273.5 160.5,272.5 160.5,272.5 160.5,272.5 160.5,272.5 160.5,272.5 160.5,272.5 160.5,272.5 161.5,272.5 161.5,272.5 
		161.5,271.5 161.5,271.5 161.5,271.5 161.5,271.5 161.5,271.5 161.5,271.5 161.5,271.5 161.5,270.5 161.5,270.5 161.5,270.5 
		161.5,270.5 162.5,270.5 162.5,270.5 162.5,270.5 162.5,270.5 162.5,269.5 162.5,269.5 162.5,269.5 162.5,269.5 162.5,270.5 
		162.5,270.5 162.5,270.5 162.5,270.5 162.5,270.5 163.5,270.5 163.5,271.5 163.5,271.5 163.5,272.5 163.5,272.5 163.5,273.5 
		163.5,273.5 163.5,274.5 163.5,274.5 163.5,275.5 163.5,276.5 163.5,277.5 163.5,278.5 164.5,279.5 164.5,280.5 164.5,281.5 
		164.5,282.5 164.5,283.5 164.5,283.5 164.5,284.5 164.5,285.5 164.5,286.5 164.5,286.5 164.5,286.5 164.5,286.5 164.5,286.5 
		165.5,287.5 165.5,286.5 165.5,286.5 165.5,286.5 165.5,287.5 165.5,287.5 165.5,287.5 165.5,287.5 165.5,288.5 165.5,289.5 
		165.5,289.5 165.5,290.5 165.5,291.5 166.5,292.5 166.5,293.5 166.5,294.5 166.5,294.5 166.5,295.5 166.5,295.5 166.5,294.5 
		166.5,293.5 166.5,292.5 166.5,290.5 166.5,289.5 166.5,288.5 166.5,287.5 167.5,287.5 167.5,286.5 167.5,286.5 167.5,286.5 
		167.5,286.5 167.5,286.5 167.5,286.5 167.5,286.5 167.5,286.5 167.5,286.5 167.5,286.5 167.5,286.5 167.5,286.5 168.5,286.5 
		168.5,286.5 168.5,286.5 168.5,286.5 168.5,286.5 168.5,286.5 168.5,286.5 168.5,286.5 168.5,286.5 168.5,286.5 168.5,286.5 
		168.5,286.5 168.5,286.5 169.5,286.5 169.5,286.5 169.5,286.5 169.5,286.5 169.5,287.5 169.5,287.5 169.5,287.5 169.5,287.5 
		169.5,288.5 169.5,288.5 169.5,289.5 169.5,289.5 169.5,290.5 170.5,290.5 170.5,291.5 170.5,292.5 170.5,292.5 170.5,293.5 
		170.5,293.5 170.5,294.5 170.5,294.5 170.5,295.5 170.5,295.5 170.5,295.5 170.5,295.5 170.5,295.5 171.5,295.5 171.5,295.5 
		171.5,295.5 171.5,295.5 171.5,295.5 171.5,295.5 171.5,295.5 171.5,295.5 171.5,294.5 171.5,294.5 171.5,293.5 171.5,293.5 
		171.5,292.5 172.5,292.5 172.5,291.5 172.5,291.5 172.5,291.5 172.5,291.5 172.5,290.5 172.5,290.5 172.5,290.5 172.5,290.5 
		172.5,290.5 172.5,289.5 172.5,289.5 172.5,289.5 173.5,289.5 173.5,289.5 173.5,289.5 173.5,289.5 173.5,288.5 173.5,288.5 
		173.5,288.5 173.5,288.5 173.5,288.5 173.5,287.5 173.5,287.5 173.5,287.5 173.5,287.5 174.5,287.5 174.5,287.5 174.5,286.5 
		174.5,286.5 174.5,286.5 174.5,286.5 174.5,286.5 174.5,286.5 174.5,286.5 174.5,286.5 174.5,286.5 174.5,286.5 174.5,287.5 
		175.5,287.5 175.5,288.5 175.5,288.5 175.5,288.5 175.5,289.5 175.5,289.5 175.5,289.5 175.5,289.5 175.5,290.5 175.5,290.5 
		175.5,291.5 175.5,291.5 175.5,292.5 176.5,292.5 176.5,292.5 176.5,292.5 176.5,292.5 176.5,293.5 176.5,293.5 176.5,293.5 
		176.5,293.5 176.5,293.5 176.5,293.5 176.5,293.5 176.5,292.5 176.5,292.5 177.5,292.5 177.5,292.5 177.5,292.5 177.5,292.5 
		177.5,292.5 177.5,291.5 177.5,291.5 177.5,290.5 177.5,290.5 177.5,290.5 177.5,290.5 177.5,290.5 177.5,289.5 178.5,289.5 
		178.5,289.5 178.5,288.5 178.5,288.5 178.5,287.5 178.5,287.5 178.5,287.5 178.5,287.5 178.5,287.5 178.5,287.5 178.5,287.5 
		178.5,287.5 178.5,287.5 179.5,286.5 179.5,286.5 179.5,286.5 179.5,286.5 179.5,286.5 179.5,286.5 179.5,286.5 179.5,286.5 
		179.5,286.5 179.5,286.5 179.5,286.5 179.5,286.5 179.5,286.5 180.5,286.5 180.5,286.5 180.5,286.5 180.5,286.5 180.5,286.5 
		180.5,286.5 180.5,286.5 180.5,287.5 180.5,287.5 180.5,287.5 180.5,287.5 180.5,287.5 180.5,287.5 181.5,286.5 181.5,286.5 
		181.5,286.5 181.5,286.5 181.5,286.5 181.5,286.5 181.5,286.5 181.5,286.5 181.5,286.5 181.5,286.5 181.5,286.5 181.5,286.5 
		181.5,286.5 182.5,287.5 182.5,287.5 182.5,287.5 182.5,287.5 182.5,287.5 182.5,287.5 182.5,287.5 182.5,287.5 182.5,287.5 
		182.5,288.5 182.5,288.5 182.5,288.5 182.5,288.5 183.5,288.5 183.5,288.5 183.5,288.5 183.5,288.5 183.5,288.5 183.5,289.5 
		183.5,289.5 183.5,288.5 183.5,288.5 183.5,288.5 183.5,288.5 183.5,288.5 183.5,287.5 184.5,287.5 184.5,288.5 184.5,288.5 
		184.5,288.5 184.5,288.5 184.5,288.5 184.5,289.5 184.5,289.5 184.5,289.5 184.5,289.5 184.5,289.5 184.5,289.5 184.5,289.5 
		185.5,289.5 185.5,290.5 185.5,290.5 185.5,291.5 185.5,291.5 185.5,291.5 185.5,292.5 185.5,292.5 185.5,293.5 185.5,293.5 
		185.5,293.5 185.5,293.5 185.5,294.5 185.5,294.5 186.5,294.5 186.5,294.5 186.5,294.5 186.5,294.5 186.5,294.5 186.5,294.5 
		186.5,294.5 186.5,294.5 186.5,294.5 186.5,294.5 186.5,294.5 186.5,294.5 186.5,294.5 187.5,294.5 187.5,294.5 187.5,294.5 
		187.5,294.5 187.5,294.5 187.5,293.5 187.5,293.5 187.5,293.5 187.5,293.5 187.5,293.5 187.5,292.5 187.5,292.5 187.5,292.5 
		188.5,292.5 188.5,291.5 188.5,291.5 188.5,291.5 188.5,291.5 188.5,291.5 188.5,291.5 188.5,290.5 188.5,290.5 188.5,290.5 
		188.5,289.5 188.5,289.5 188.5,289.5 189.5,290.5 189.5,290.5 189.5,290.5 189.5,290.5 189.5,290.5 189.5,290.5 189.5,290.5 
		189.5,290.5 189.5,290.5 189.5,290.5 189.5,290.5 189.5,291.5 189.5,291.5 190.5,291.5 190.5,291.5 190.5,291.5 190.5,291.5 
		190.5,291.5 190.5,291.5 190.5,292.5 190.5,292.5 190.5,292.5 190.5,292.5 190.5,292.5 190.5,292.5 190.5,292.5 191.5,292.5 
		191.5,292.5 191.5,292.5 191.5,292.5 191.5,292.5 191.5,292.5 191.5,292.5 191.5,292.5 191.5,292.5 191.5,292.5 191.5,292.5 
		191.5,291.5 191.5,291.5 192.5,291.5 192.5,291.5 192.5,291.5 192.5,291.5 192.5,292.5 192.5,292.5 192.5,291.5 192.5,291.5 
		192.5,292.5 192.5,292.5 192.5,292.5 192.5,292.5 192.5,292.5 193.5,292.5 193.5,291.5 193.5,291.5 193.5,291.5 193.5,291.5 
		193.5,291.5 193.5,291.5 193.5,291.5 193.5,292.5 193.5,292.5 193.5,292.5 193.5,292.5 193.5,292.5 194.5,292.5 194.5,292.5 
		194.5,292.5 194.5,292.5 194.5,292.5 194.5,292.5 194.5,292.5 194.5,292.5 194.5,292.5 194.5,292.5 194.5,292.5 194.5,292.5 
		194.5,292.5 195.5,292.5 195.5,292.5 195.5,292.5 195.5,292.5 195.5,291.5 195.5,291.5 195.5,291.5 195.5,291.5 195.5,291.5 
		195.5,290.5 195.5,290.5 195.5,290.5 195.5,290.5 196.5,290.5 196.5,290.5 196.5,289.5 196.5,289.5 196.5,289.5 196.5,289.5 
		196.5,289.5 196.5,289.5 196.5,289.5 196.5,289.5 196.5,289.5 196.5,289.5 196.5,288.5 197.5,288.5 197.5,288.5 197.5,287.5 
		197.5,287.5 197.5,287.5 197.5,286.5 197.5,286.5 197.5,286.5 197.5,286.5 197.5,286.5 197.5,285.5 197.5,285.5 197.5,284.5 
		198.5,284.5 198.5,283.5 198.5,283.5 198.5,283.5 198.5,283.5 198.5,282.5 198.5,282.5 198.5,282.5 198.5,281.5 198.5,281.5 
		198.5,281.5 198.5,281.5 198.5,280.5 199.5,280.5 199.5,280.5 199.5,280.5 199.5,280.5 199.5,280.5 199.5,280.5 199.5,280.5 
		199.5,280.5 199.5,280.5 199.5,281.5 199.5,281.5 199.5,281.5 199.5,281.5 200.5,281.5 200.5,281.5 200.5,281.5 200.5,280.5 
		200.5,280.5 200.5,280.5 200.5,280.5 200.5,280.5 200.5,280.5 200.5,280.5 200.5,280.5 200.5,280.5 200.5,280.5 201.5,280.5 
		201.5,280.5 201.5,280.5 201.5,280.5 201.5,280.5 201.5,280.5 201.5,280.5 201.5,280.5 201.5,279.5 201.5,279.5 201.5,279.5 
		201.5,278.5 201.5,278.5 202.5,278.5 202.5,278.5 202.5,278.5 202.5,278.5 202.5,278.5 202.5,277.5 202.5,277.5 202.5,277.5 
		202.5,276.5 202.5,276.5 202.5,276.5 202.5,275.5 202.5,275.5 203.5,275.5 203.5,275.5 203.5,275.5 203.5,275.5 203.5,275.5 
		203.5,275.5 203.5,275.5 203.5,275.5 203.5,275.5 203.5,275.5 203.5,275.5 203.5,275.5 203.5,275.5 204.5,275.5 204.5,275.5 
		204.5,275.5 204.5,275.5 204.5,275.5 204.5,274.5 204.5,274.5 204.5,274.5 204.5,273.5 204.5,273.5 204.5,272.5 204.5,272.5 
		204.5,272.5 205.5,272.5 205.5,272.5 205.5,272.5 205.5,272.5 205.5,272.5 205.5,272.5 205.5,272.5 205.5,272.5 205.5,271.5 
		205.5,271.5 205.5,271.5 205.5,271.5 205.5,271.5 206.5,272.5 206.5,272.5 206.5,272.5 206.5,272.5 206.5,272.5 206.5,271.5 
		206.5,271.5 206.5,271.5 206.5,270.5 206.5,270.5 206.5,270.5 206.5,270.5 206.5,270.5 207.5,270.5 207.5,270.5 207.5,270.5 
		207.5,270.5 207.5,270.5 207.5,270.5 207.5,270.5 207.5,270.5 207.5,271.5 207.5,271.5 207.5,271.5 207.5,271.5 207.5,271.5 
		208.5,271.5 208.5,271.5 208.5,272.5 208.5,272.5 208.5,273.5 208.5,273.5 208.5,274.5 208.5,274.5 208.5,275.5 208.5,276.5 
		208.5,276.5 208.5,277.5 208.5,277.5 209.5,277.5 209.5,278.5 209.5,278.5 209.5,278.5 209.5,278.5 209.5,278.5 209.5,278.5 
		209.5,278.5 209.5,277.5 209.5,277.5 209.5,277.5 209.5,277.5 209.5,277.5 210.5,277.5 210.5,277.5 210.5,277.5 210.5,277.5 
		210.5,277.5 210.5,277.5 210.5,277.5 210.5,277.5 210.5,277.5 210.5,277.5 210.5,277.5 210.5,277.5 210.5,277.5 211.5,277.5 
		211.5,277.5 211.5,277.5 211.5,277.5 211.5,277.5 211.5,277.5 211.5,277.5 211.5,277.5 211.5,277.5 211.5,277.5 211.5,277.5 
		211.5,277.5 211.5,277.5 212.5,277.5 212.5,277.5 212.5,277.5 212.5,277.5 212.5,277.5 212.5,277.5 212.5,277.5 212.5,277.5 
		212.5,277.5 212.5,277.5 212.5,277.5 212.5,277.5 212.5,277.5 213.5,277.5 213.5,277.5 213.5,277.5 213.5,277.5 213.5,277.5 
		213.5,277.5 213.5,277.5 213.5,276.5 213.5,276.5 213.5,276.5 213.5,276.5 213.5,276.5 213.5,276.5 214.5,276.5 214.5,276.5 
		214.5,276.5 214.5,276.5 214.5,276.5 214.5,276.5 214.5,277.5 214.5,277.5 214.5,277.5 214.5,277.5 214.5,277.5 214.5,277.5 
		214.5,277.5 215.5,277.5 215.5,277.5 215.5,277.5 215.5,277.5 215.5,277.5 215.5,277.5 215.5,277.5 215.5,277.5 215.5,277.5 
		215.5,277.5 215.5,276.5 215.5,276.5 215.5,276.5 216.5,276.5 216.5,276.5 216.5,276.5 216.5,276.5 216.5,276.5 216.5,276.5 
		216.5,276.5 216.5,276.5 216.5,276.5 216.5,276.5 216.5,276.5 216.5,276.5 216.5,277.5 217.5,277.5 217.5,277.5 217.5,277.5 
		217.5,277.5 217.5,277.5 217.5,277.5 217.5,277.5 217.5,277.5 217.5,278.5 217.5,278.5 217.5,278.5 217.5,279.5 217.5,280.5 
		218.5,280.5 218.5,281.5 218.5,281.5 218.5,281.5 218.5,281.5 218.5,281.5 218.5,281.5 218.5,280.5 218.5,280.5 218.5,280.5 
		218.5,279.5 218.5,279.5 218.5,279.5 219.5,278.5 219.5,278.5 219.5,278.5 219.5,277.5 219.5,276.5 219.5,276.5 219.5,276.5 
		219.5,276.5 219.5,276.5 219.5,276.5 219.5,275.5 219.5,275.5 219.5,275.5 220.5,274.5 220.5,274.5 220.5,274.5 220.5,273.5 
		220.5,272.5 220.5,271.5 220.5,271.5 220.5,271.5 220.5,270.5 220.5,269.5 220.5,267.5 220.5,266.5 220.5,265.5 221.5,263.5 
		221.5,263.5 221.5,262.5 221.5,262.5 221.5,262.5 221.5,261.5 221.5,261.5 221.5,261.5 221.5,261.5 221.5,260.5 221.5,260.5 
		221.5,260.5 221.5,260.5 222.5,260.5 222.5,261.5 222.5,261.5 222.5,261.5 222.5,261.5 222.5,261.5 222.5,261.5 222.5,261.5 
		222.5,261.5 222.5,261.5 222.5,261.5 222.5,261.5 222.5,261.5 223.5,261.5 223.5,260.5 223.5,261.5 223.5,261.5 223.5,261.5 
		223.5,260.5 223.5,260.5 223.5,260.5 223.5,260.5 223.5,260.5 223.5,260.5 223.5,260.5 223.5,260.5 224.5,260.5 224.5,260.5 
		224.5,260.5 224.5,260.5 224.5,260.5 224.5,259.5 224.5,259.5 224.5,259.5 224.5,259.5 224.5,258.5 224.5,258.5 224.5,258.5 
		224.5,258.5 225.5,257.5 225.5,257.5 225.5,257.5 225.5,258.5 225.5,258.5 225.5,258.5 225.5,258.5 225.5,258.5 225.5,257.5 
		225.5,257.5 225.5,257.5 225.5,257.5 225.5,257.5 226.5,256.5 226.5,256.5 226.5,256.5 226.5,256.5 226.5,256.5 226.5,255.5 
		226.5,255.5 226.5,254.5 226.5,254.5 226.5,254.5 226.5,253.5 226.5,253.5 226.5,253.5 227.5,252.5 227.5,252.5 227.5,252.5 
		227.5,251.5 227.5,251.5 227.5,251.5 227.5,251.5 227.5,251.5 227.5,250.5 227.5,250.5 227.5,250.5 227.5,250.5 227.5,249.5 
		228.5,249.5 228.5,249.5 228.5,248.5 228.5,248.5 228.5,248.5 228.5,248.5 228.5,247.5 228.5,247.5 228.5,247.5 228.5,247.5 
		228.5,246.5 228.5,246.5 228.5,246.5 229.5,246.5 229.5,246.5 229.5,245.5 229.5,245.5 229.5,245.5 229.5,245.5 229.5,245.5 
		229.5,245.5 229.5,245.5 229.5,245.5 229.5,245.5 229.5,244.5 229.5,244.5 230.5,244.5 230.5,244.5 230.5,244.5 230.5,244.5 
		230.5,244.5 230.5,244.5 230.5,243.5 230.5,243.5 230.5,243.5 230.5,243.5 230.5,243.5 230.5,243.5 230.5,243.5 231.5,243.5 
		231.5,243.5 231.5,243.5 231.5,243.5 231.5,242.5 231.5,242.5 231.5,242.5 231.5,242.5 231.5,242.5 231.5,242.5 231.5,242.5 
		231.5,243.5 231.5,243.5 232.5,243.5 232.5,243.5 232.5,243.5 232.5,243.5 232.5,243.5 232.5,244.5 232.5,244.5 232.5,244.5 
		232.5,244.5 232.5,244.5 232.5,244.5 232.5,244.5 232.5,243.5 233.5,243.5 233.5,243.5 233.5,242.5 233.5,242.5 233.5,242.5 
		233.5,242.5 233.5,241.5 233.5,240.5 233.5,240.5 233.5,239.5 233.5,238.5 233.5,238.5 233.5,237.5 234.5,237.5 234.5,236.5 
		234.5,236.5 234.5,235.5 234.5,235.5 234.5,234.5 234.5,234.5 234.5,233.5 234.5,233.5 234.5,233.5 234.5,233.5 234.5,233.5 
		234.5,233.5 235.5,233.5 235.5,233.5 235.5,233.5 235.5,233.5 235.5,233.5 235.5,234.5 235.5,234.5 235.5,234.5 235.5,234.5 
		235.5,234.5 235.5,234.5 235.5,235.5 235.5,235.5 236.5,236.5 236.5,235.5 236.5,235.5 236.5,235.5 236.5,236.5 236.5,236.5 
		236.5,236.5 236.5,236.5 236.5,235.5 236.5,235.5 236.5,235.5 236.5,234.5 236.5,234.5 237.5,234.5 237.5,234.5 237.5,233.5 
		237.5,233.5 237.5,233.5 237.5,232.5 237.5,232.5 237.5,232.5 237.5,232.5 237.5,231.5 237.5,231.5 237.5,231.5 237.5,232.5 
		238.5,232.5 238.5,232.5 238.5,233.5 238.5,233.5 238.5,234.5 238.5,234.5 238.5,234.5 238.5,235.5 238.5,235.5 238.5,236.5 
		238.5,236.5 238.5,236.5 238.5,236.5 239.5,236.5 239.5,236.5 239.5,236.5 239.5,236.5 239.5,236.5 239.5,236.5 239.5,236.5 
		239.5,236.5 239.5,235.5 239.5,235.5 239.5,235.5 239.5,235.5 239.5,235.5 240.5,235.5 240.5,235.5 240.5,235.5 240.5,235.5 
		240.5,235.5 240.5,235.5 240.5,235.5 240.5,235.5 240.5,235.5 240.5,235.5 240.5,235.5 240.5,235.5 240.5,235.5 241.5,235.5 
		241.5,235.5 241.5,235.5 241.5,235.5 241.5,235.5 241.5,235.5 241.5,235.5 241.5,235.5 241.5,235.5 241.5,235.5 241.5,235.5 
		241.5,235.5 241.5,235.5 242.5,235.5 242.5,235.5 242.5,235.5 242.5,235.5 242.5,235.5 242.5,235.5 242.5,235.5 242.5,235.5 
		242.5,235.5 242.5,234.5 242.5,234.5 242.5,233.5 242.5,233.5 243.5,232.5 243.5,232.5 243.5,232.5 243.5,231.5 243.5,231.5 
		243.5,230.5 243.5,230.5 243.5,229.5 243.5,229.5 243.5,229.5 243.5,228.5 243.5,228.5 243.5,227.5 244.5,227.5 244.5,227.5 
		244.5,226.5 244.5,226.5 244.5,225.5 244.5,224.5 244.5,224.5 244.5,224.5 244.5,223.5 244.5,223.5 244.5,223.5 244.5,222.5 
		244.5,222.5 245.5,221.5 245.5,221.5 245.5,220.5 245.5,220.5 245.5,219.5 245.5,219.5 245.5,219.5 245.5,218.5 245.5,218.5 
		245.5,218.5 245.5,217.5 245.5,217.5 245.5,217.5 246.5,217.5 246.5,216.5 246.5,216.5 246.5,216.5 246.5,216.5 246.5,216.5 
		246.5,216.5 246.5,215.5 246.5,215.5 246.5,215.5 246.5,215.5 246.5,215.5 246.5,215.5 247.5,215.5 247.5,215.5 247.5,215.5 
		247.5,215.5 247.5,215.5 247.5,215.5 247.5,215.5 247.5,215.5 247.5,215.5 247.5,214.5 247.5,214.5 247.5,214.5 247.5,214.5 
		248.5,214.5 248.5,215.5 248.5,215.5 248.5,215.5 248.5,215.5 248.5,215.5 248.5,215.5 248.5,215.5 248.5,215.5 248.5,215.5 
		248.5,215.5 248.5,214.5 248.5,214.5 249.5,214.5 249.5,214.5 249.5,213.5 249.5,213.5 249.5,213.5 249.5,213.5 249.5,212.5 
		249.5,213.5 249.5,212.5 249.5,212.5 249.5,212.5 249.5,212.5 249.5,212.5 250.5,212.5 250.5,213.5 250.5,213.5 250.5,213.5 
		250.5,214.5 250.5,215.5 250.5,215.5 250.5,216.5 250.5,217.5 250.5,218.5 250.5,219.5 250.5,220.5 250.5,221.5 251.5,221.5 
		251.5,222.5 251.5,224.5 251.5,225.5 251.5,226.5 251.5,227.5 251.5,228.5 251.5,229.5 251.5,229.5 251.5,229.5 251.5,230.5 
		251.5,231.5 251.5,231.5 252.5,232.5 252.5,232.5 252.5,232.5 252.5,232.5 252.5,233.5 252.5,233.5 252.5,233.5 252.5,233.5 
		252.5,232.5 252.5,232.5 252.5,232.5 252.5,232.5 252.5,231.5 253.5,230.5 253.5,230.5 253.5,229.5 253.5,228.5 253.5,227.5 
		253.5,226.5 253.5,225.5 253.5,224.5 253.5,223.5 253.5,222.5 253.5,221.5 253.5,221.5 253.5,220.5 254.5,219.5 254.5,218.5 
		254.5,218.5 254.5,217.5 254.5,216.5 254.5,216.5 254.5,216.5 254.5,215.5 254.5,215.5 254.5,214.5 254.5,215.5 254.5,215.5 
		254.5,216.5 255.5,216.5 255.5,216.5 255.5,217.5 255.5,217.5 255.5,217.5 255.5,217.5 255.5,218.5 255.5,218.5 255.5,218.5 
		255.5,218.5 255.5,219.5 255.5,219.5 255.5,219.5 256.5,219.5 256.5,219.5 256.5,219.5 256.5,220.5 256.5,220.5 256.5,220.5 
		256.5,221.5 256.5,222.5 256.5,222.5 256.5,223.5 256.5,224.5 256.5,226.5 256.5,227.5 257.5,229.5 257.5,230.5 257.5,231.5 
		257.5,232.5 257.5,233.5 257.5,234.5 257.5,235.5 257.5,234.5 257.5,233.5 257.5,232.5 257.5,232.5 257.5,231.5 257.5,230.5 
		258.5,229.5 258.5,227.5 258.5,226.5 258.5,225.5 258.5,223.5 258.5,222.5 258.5,222.5 258.5,221.5 258.5,220.5 258.5,218.5 
		258.5,217.5 258.5,216.5 258.5,214.5 258.5,213.5 259.5,212.5 259.5,212.5 259.5,211.5 259.5,210.5 259.5,208.5 259.5,207.5 
		259.5,206.5 259.5,205.5 259.5,203.5 259.5,202.5 259.5,200.5 259.5,199.5 259.5,197.5 260.5,196.5 260.5,195.5 260.5,194.5 
		260.5,193.5 260.5,192.5 260.5,191.5 260.5,190.5 260.5,190.5 260.5,189.5 260.5,188.5 260.5,188.5 260.5,187.5 260.5,187.5 
		261.5,186.5 261.5,186.5 261.5,186.5 261.5,186.5 261.5,186.5 261.5,186.5 261.5,186.5 261.5,186.5 261.5,186.5 261.5,186.5 
		261.5,187.5 261.5,187.5 261.5,187.5 262.5,187.5 262.5,187.5 262.5,187.5 262.5,187.5 262.5,187.5 262.5,187.5 262.5,187.5 
		262.5,187.5 262.5,187.5 262.5,188.5 262.5,188.5 262.5,189.5 262.5,189.5 263.5,189.5 263.5,189.5 263.5,189.5 263.5,188.5 
		263.5,188.5 263.5,188.5 263.5,188.5 263.5,187.5 263.5,187.5 263.5,188.5 263.5,187.5 263.5,187.5 263.5,188.5 264.5,188.5 
		264.5,188.5 264.5,188.5 264.5,189.5 264.5,189.5 264.5,189.5 264.5,189.5 264.5,190.5 264.5,190.5 264.5,190.5 264.5,191.5 
		264.5,192.5 264.5,192.5 265.5,193.5 265.5,193.5 265.5,194.5 265.5,195.5 265.5,196.5 265.5,196.5 265.5,197.5 265.5,198.5 
		265.5,199.5 265.5,199.5 265.5,200.5 265.5,201.5 265.5,201.5 266.5,202.5 266.5,203.5 266.5,203.5 266.5,204.5 266.5,205.5 
		266.5,206.5 266.5,207.5 266.5,208.5 266.5,209.5 266.5,210.5 266.5,211.5 266.5,212.5 266.5,213.5 267.5,214.5 267.5,215.5 
		267.5,216.5 267.5,217.5 267.5,218.5 267.5,220.5 267.5,221.5 267.5,222.5 267.5,224.5 267.5,225.5 267.5,227.5 267.5,228.5 
		267.5,230.5 268.5,231.5 268.5,233.5 268.5,235.5 268.5,236.5 268.5,237.5 268.5,239.5 268.5,240.5 268.5,241.5 268.5,242.5 
		268.5,244.5 268.5,245.5 268.5,247.5 268.5,248.5 269.5,250.5 269.5,250.5 269.5,249.5 269.5,248.5 269.5,247.5 269.5,246.5 
		269.5,244.5 269.5,243.5 269.5,241.5 269.5,240.5 269.5,239.5 269.5,237.5 269.5,236.5 270.5,235.5 270.5,234.5 270.5,233.5 
		270.5,232.5 270.5,231.5 270.5,230.5 270.5,229.5 270.5,228.5 270.5,227.5 270.5,226.5 270.5,225.5 270.5,224.5 270.5,223.5 
		271.5,222.5 271.5,221.5 271.5,220.5 271.5,220.5 271.5,219.5 271.5,218.5 271.5,217.5 271.5,217.5 271.5,216.5 271.5,215.5 
		271.5,215.5 271.5,215.5 271.5,214.5 272.5,214.5 272.5,214.5 272.5,214.5 272.5,214.5 272.5,214.5 272.5,215.5 272.5,215.5 
		272.5,215.5 272.5,215.5 272.5,215.5 272.5,216.5 272.5,216.5 272.5,216.5 273.5,216.5 273.5,216.5 273.5,216.5 273.5,217.5 
		273.5,217.5 273.5,217.5 273.5,218.5 273.5,219.5 273.5,220.5 273.5,220.5 273.5,221.5 273.5,222.5 273.5,223.5 274.5,224.5 
		274.5,226.5 274.5,227.5 274.5,229.5 274.5,230.5 274.5,231.5 274.5,232.5 274.5,233.5 274.5,233.5 274.5,234.5 274.5,234.5 
		274.5,235.5 274.5,235.5 275.5,235.5 275.5,234.5 275.5,234.5 275.5,234.5 275.5,233.5 275.5,232.5 275.5,232.5 275.5,232.5 
		275.5,232.5 275.5,232.5 275.5,232.5 275.5,232.5 275.5,232.5 276.5,232.5 276.5,232.5 276.5,232.5 276.5,232.5 276.5,232.5 
		276.5,232.5 276.5,232.5 276.5,232.5 276.5,232.5 276.5,232.5 276.5,233.5 276.5,233.5 276.5,233.5 277.5,233.5 277.5,233.5 
		277.5,233.5 277.5,233.5 277.5,233.5 277.5,234.5 277.5,234.5 277.5,235.5 277.5,235.5 277.5,236.5 277.5,237.5 277.5,238.5 
		277.5,238.5 278.5,239.5 278.5,241.5 278.5,242.5 278.5,243.5 278.5,243.5 278.5,243.5 278.5,244.5 278.5,245.5 278.5,245.5 
		278.5,245.5 278.5,245.5 278.5,245.5 278.5,246.5 279.5,245.5 279.5,245.5 279.5,245.5 279.5,245.5 279.5,244.5 279.5,244.5 
		279.5,244.5 279.5,244.5 279.5,244.5 279.5,244.5 279.5,243.5 279.5,243.5 279.5,243.5 280.5,243.5 280.5,243.5 280.5,243.5 
		280.5,243.5 280.5,243.5 280.5,243.5 280.5,243.5 280.5,243.5 280.5,243.5 280.5,243.5 280.5,242.5 280.5,242.5 280.5,242.5 
		281.5,242.5 281.5,242.5 281.5,242.5 281.5,242.5 281.5,242.5 281.5,242.5 281.5,241.5 281.5,241.5 281.5,241.5 281.5,240.5 
		281.5,240.5 281.5,239.5 281.5,239.5 282.5,238.5 282.5,238.5 282.5,237.5 282.5,237.5 282.5,236.5 282.5,235.5 282.5,234.5 
		282.5,234.5 282.5,233.5 282.5,232.5 282.5,231.5 282.5,231.5 282.5,230.5 283.5,229.5 283.5,229.5 283.5,228.5 283.5,227.5 
		283.5,225.5 283.5,224.5 283.5,222.5 283.5,221.5 283.5,220.5 283.5,219.5 283.5,218.5 283.5,217.5 283.5,215.5 284.5,214.5 
		284.5,213.5 284.5,212.5 284.5,212.5 284.5,211.5 284.5,211.5 284.5,210.5 284.5,210.5 284.5,210.5 284.5,210.5 284.5,209.5 
		284.5,209.5 284.5,209.5 285.5,209.5 285.5,208.5 285.5,208.5 285.5,207.5 285.5,207.5 285.5,207.5 285.5,206.5 285.5,206.5 
		285.5,205.5 285.5,205.5 285.5,204.5 285.5,204.5 285.5,203.5 286.5,202.5 286.5,202.5 286.5,201.5 286.5,200.5 286.5,200.5 
		286.5,199.5 286.5,199.5 286.5,198.5 286.5,197.5 286.5,197.5 286.5,196.5 286.5,196.5 286.5,195.5 287.5,195.5 287.5,195.5 
		287.5,195.5 287.5,195.5 287.5,195.5 287.5,195.5 287.5,195.5 287.5,195.5 287.5,195.5 287.5,195.5 287.5,195.5 287.5,195.5 
		287.5,195.5 288.5,196.5 288.5,196.5 288.5,196.5 288.5,197.5 288.5,198.5 288.5,198.5 288.5,199.5 288.5,199.5 288.5,200.5 
		288.5,201.5 288.5,201.5 288.5,202.5 288.5,203.5 289.5,204.5 289.5,205.5 289.5,206.5 289.5,207.5 289.5,208.5 289.5,209.5 
		289.5,210.5 289.5,212.5 289.5,213.5 289.5,214.5 289.5,216.5 289.5,217.5 289.5,218.5 290.5,219.5 290.5,220.5 290.5,221.5 
		290.5,222.5 290.5,223.5 290.5,224.5 290.5,226.5 290.5,227.5 290.5,228.5 290.5,228.5 290.5,229.5 290.5,229.5 290.5,229.5 
		291.5,229.5 291.5,229.5 291.5,229.5 291.5,229.5 291.5,229.5 291.5,229.5 291.5,229.5 291.5,229.5 291.5,229.5 291.5,229.5 
		291.5,229.5 291.5,229.5 291.5,228.5 292.5,228.5 292.5,228.5 292.5,228.5 292.5,228.5 292.5,228.5 292.5,227.5 292.5,227.5 
		292.5,227.5 292.5,227.5 292.5,226.5 292.5,226.5 292.5,226.5 292.5,225.5 293.5,225.5 293.5,224.5 293.5,224.5 293.5,223.5 
		293.5,223.5 293.5,223.5 293.5,222.5 293.5,222.5 293.5,222.5 293.5,222.5 293.5,222.5 293.5,221.5 293.5,221.5 294.5,221.5 
		294.5,221.5 294.5,220.5 294.5,220.5 294.5,220.5 294.5,219.5 294.5,218.5 294.5,218.5 294.5,217.5 294.5,217.5 294.5,217.5 
		294.5,216.5 294.5,216.5 295.5,216.5 295.5,215.5 295.5,215.5 295.5,214.5 295.5,213.5 295.5,212.5 295.5,212.5 295.5,211.5 
		295.5,210.5 295.5,210.5 295.5,209.5 295.5,208.5 295.5,207.5 296.5,206.5 296.5,205.5 296.5,204.5 296.5,204.5 296.5,203.5 
		296.5,202.5 296.5,202.5 296.5,202.5 296.5,201.5 296.5,201.5 296.5,201.5 296.5,200.5 296.5,200.5 297.5,200.5 297.5,199.5 
		297.5,199.5 297.5,199.5 297.5,198.5 297.5,198.5 297.5,197.5 297.5,197.5 297.5,197.5 297.5,196.5 297.5,196.5 297.5,195.5 
		297.5,195.5 298.5,194.5 298.5,194.5 298.5,194.5 298.5,193.5 298.5,193.5 298.5,194.5 298.5,194.5 298.5,194.5 298.5,194.5 
		298.5,194.5 298.5,195.5 298.5,195.5 298.5,196.5 299.5,196.5 299.5,197.5 299.5,198.5 299.5,198.5 299.5,199.5 299.5,199.5 
		299.5,200.5 299.5,200.5 299.5,200.5 299.5,201.5 299.5,201.5 299.5,201.5 299.5,200.5 300.5,200.5 300.5,199.5 300.5,199.5 
		300.5,198.5 300.5,198.5 300.5,197.5 300.5,196.5 300.5,196.5 300.5,196.5 300.5,196.5 300.5,195.5 300.5,195.5 300.5,195.5 
		301.5,194.5 301.5,194.5 301.5,194.5 301.5,194.5 301.5,194.5 301.5,194.5 301.5,194.5 301.5,195.5 301.5,195.5 301.5,195.5 
		301.5,195.5 301.5,195.5 301.5,195.5 302.5,195.5 302.5,196.5 302.5,196.5 302.5,196.5 302.5,196.5 302.5,196.5 302.5,195.5 
		302.5,195.5 302.5,194.5 302.5,194.5 302.5,194.5 302.5,193.5 302.5,193.5 303.5,193.5 303.5,192.5 303.5,192.5 303.5,192.5 
		303.5,192.5 303.5,192.5 303.5,191.5 303.5,191.5 303.5,191.5 303.5,191.5 303.5,191.5 303.5,191.5 303.5,191.5 304.5,191.5 
		304.5,191.5 304.5,190.5 304.5,190.5 304.5,190.5 304.5,190.5 304.5,190.5 304.5,189.5 304.5,189.5 304.5,189.5 304.5,189.5 
		304.5,189.5 304.5,188.5 305.5,188.5 305.5,188.5 305.5,188.5 305.5,187.5 305.5,187.5 305.5,186.5 305.5,186.5 305.5,185.5 
		305.5,185.5 305.5,184.5 305.5,184.5 305.5,184.5 305.5,183.5 306.5,183.5 306.5,183.5 306.5,183.5 306.5,183.5 306.5,183.5 
		306.5,183.5 306.5,183.5 306.5,183.5 306.5,183.5 306.5,182.5 306.5,182.5 306.5,182.5 306.5,182.5 307.5,181.5 307.5,181.5 
		307.5,182.5 307.5,182.5 307.5,182.5 307.5,182.5 307.5,182.5 307.5,182.5 307.5,182.5 307.5,183.5 307.5,183.5 307.5,183.5 
		307.5,183.5 308.5,183.5 308.5,183.5 308.5,184.5 308.5,184.5 308.5,184.5 308.5,185.5 308.5,185.5 308.5,185.5 308.5,185.5 
		308.5,185.5 308.5,185.5 308.5,184.5 308.5,183.5 309.5,182.5 309.5,182.5 309.5,181.5 309.5,181.5 309.5,180.5 309.5,180.5 
		309.5,180.5 309.5,179.5 309.5,179.5 309.5,179.5 309.5,178.5 309.5,178.5 309.5,177.5 310.5,177.5 310.5,177.5 310.5,177.5 
		310.5,177.5 310.5,176.5 310.5,175.5 310.5,175.5 310.5,174.5 310.5,174.5 310.5,173.5 310.5,172.5 310.5,171.5 310.5,170.5 
		311.5,169.5 311.5,169.5 311.5,168.5 311.5,168.5 311.5,167.5 311.5,166.5 311.5,165.5 311.5,164.5 311.5,164.5 311.5,163.5 
		311.5,163.5 311.5,162.5 311.5,162.5 312.5,161.5 312.5,160.5 312.5,160.5 312.5,159.5 312.5,159.5 312.5,158.5 312.5,158.5 
		312.5,157.5 312.5,156.5 312.5,155.5 312.5,154.5 312.5,153.5 312.5,153.5 313.5,152.5 313.5,152.5 313.5,151.5 313.5,150.5 
		313.5,150.5 313.5,150.5 313.5,149.5 313.5,148.5 313.5,148.5 313.5,148.5 313.5,148.5 313.5,148.5 313.5,148.5 314.5,148.5 
		314.5,148.5 314.5,148.5 314.5,148.5 314.5,147.5 314.5,148.5 314.5,148.5 314.5,148.5 314.5,147.5 314.5,146.5 314.5,145.5 
		314.5,144.5 314.5,144.5 315.5,144.5 315.5,144.5 315.5,144.5 315.5,144.5 315.5,143.5 315.5,142.5 315.5,142.5 315.5,141.5 
		315.5,140.5 315.5,138.5 315.5,137.5 315.5,136.5 315.5,135.5 316.5,134.5 316.5,133.5 316.5,133.5 316.5,133.5 316.5,133.5 
		316.5,133.5 316.5,132.5 316.5,132.5 316.5,132.5 316.5,132.5 316.5,132.5 316.5,132.5 316.5,132.5 317.5,131.5 317.5,131.5 
		317.5,131.5 317.5,131.5 317.5,131.5 317.5,131.5 317.5,131.5 317.5,131.5 317.5,131.5 317.5,131.5 317.5,131.5 317.5,131.5 
		317.5,131.5 318.5,131.5 318.5,131.5 318.5,131.5 318.5,131.5 318.5,132.5 318.5,132.5 318.5,133.5 318.5,133.5 318.5,134.5 
		318.5,135.5 318.5,136.5 318.5,137.5 318.5,138.5 319.5,140.5 319.5,141.5 319.5,143.5 319.5,145.5 319.5,146.5 319.5,147.5 
		319.5,148.5 319.5,149.5 319.5,150.5 319.5,151.5 319.5,152.5 319.5,153.5 319.5,153.5 320.5,154.5 320.5,155.5 320.5,156.5 
		320.5,156.5 320.5,157.5 320.5,158.5 320.5,158.5 320.5,159.5 320.5,159.5 320.5,160.5 320.5,160.5 320.5,161.5 320.5,163.5 
		321.5,164.5 321.5,165.5 321.5,165.5 321.5,164.5 321.5,164.5 321.5,164.5 321.5,163.5 321.5,163.5 321.5,162.5 321.5,161.5 
		321.5,160.5 321.5,159.5 321.5,158.5 322.5,157.5 322.5,156.5 322.5,155.5 322.5,153.5 322.5,152.5 322.5,151.5 322.5,150.5 
		322.5,149.5 322.5,148.5 322.5,146.5 322.5,145.5 322.5,144.5 322.5,142.5 323.5,141.5 323.5,140.5 323.5,139.5 323.5,138.5 
		323.5,137.5 323.5,136.5 323.5,135.5 323.5,135.5 323.5,134.5 323.5,133.5 323.5,131.5 323.5,130.5 323.5,130.5 324.5,129.5 
		324.5,129.5 324.5,128.5 324.5,127.5 324.5,127.5 324.5,126.5 324.5,126.5 324.5,126.5 324.5,126.5 324.5,126.5 324.5,126.5 
		324.5,126.5 324.5,126.5 325.5,126.5 325.5,126.5 325.5,126.5 325.5,127.5 325.5,127.5 325.5,127.5 325.5,127.5 325.5,127.5 
		325.5,127.5 325.5,127.5 325.5,128.5 325.5,128.5 325.5,128.5 326.5,128.5 326.5,128.5 326.5,128.5 326.5,129.5 326.5,129.5 
		326.5,129.5 326.5,129.5 326.5,129.5 326.5,129.5 326.5,128.5 326.5,128.5 326.5,128.5 326.5,128.5 327.5,128.5 327.5,127.5 
		327.5,126.5 327.5,126.5 327.5,125.5 327.5,124.5 327.5,123.5 327.5,122.5 327.5,121.5 327.5,120.5 327.5,119.5 327.5,119.5 
		327.5,118.5 328.5,118.5 328.5,117.5 328.5,116.5 328.5,115.5 328.5,114.5 328.5,113.5 328.5,113.5 328.5,112.5 328.5,111.5 
		328.5,111.5 328.5,110.5 328.5,110.5 328.5,109.5 329.5,108.5 329.5,108.5 329.5,107.5 329.5,107.5 329.5,106.5 329.5,106.5 
		329.5,105.5 329.5,105.5 329.5,104.5 329.5,104.5 329.5,104.5 329.5,103.5 329.5,103.5 330.5,103.5 330.5,103.5 330.5,103.5 
		330.5,104.5 330.5,104.5 330.5,103.5 330.5,103.5 330.5,103.5 330.5,103.5 330.5,103.5 330.5,103.5 330.5,103.5 330.5,103.5 
		331.5,104.5 331.5,105.5 331.5,106.5 331.5,105.5 331.5,105.5 331.5,104.5 331.5,105.5 331.5,105.5 331.5,104.5 331.5,103.5 
		331.5,103.5 331.5,102.5 331.5,101.5 332.5,101.5 332.5,100.5 332.5,100.5 332.5,100.5 332.5,100.5 332.5,99.5 332.5,99.5 
		332.5,99.5 332.5,99.5 332.5,99.5 332.5,99.5 332.5,99.5 332.5,99.5 332.5,99.5 333.5,100.5 333.5,100.5 333.5,100.5 333.5,100.5 
		333.5,100.5 333.5,100.5 333.5,100.5 333.5,100.5 333.5,100.5 333.5,100.5 333.5,100.5 333.5,100.5 333.5,101.5 334.5,101.5 
		334.5,101.5 334.5,102.5 334.5,102.5 334.5,102.5 334.5,103.5 334.5,103.5 334.5,104.5 334.5,104.5 334.5,105.5 334.5,105.5 
		334.5,106.5 334.5,106.5 335.5,106.5 335.5,107.5 335.5,107.5 335.5,108.5 335.5,108.5 335.5,108.5 335.5,109.5 335.5,109.5 
		335.5,109.5 335.5,110.5 335.5,110.5 335.5,110.5 335.5,111.5 336.5,111.5 336.5,111.5 336.5,111.5 336.5,112.5 336.5,112.5 
		336.5,112.5 336.5,112.5 336.5,113.5 336.5,113.5 336.5,113.5 336.5,113.5 336.5,113.5 336.5,113.5 337.5,114.5 337.5,114.5 
		337.5,114.5 337.5,114.5 337.5,114.5 337.5,114.5 337.5,115.5 337.5,115.5 337.5,115.5 337.5,115.5 337.5,116.5 337.5,116.5 
		337.5,116.5 338.5,116.5 338.5,117.5 338.5,117.5 338.5,118.5 338.5,118.5 338.5,119.5 338.5,119.5 338.5,120.5 338.5,120.5 
		338.5,121.5 338.5,121.5 338.5,122.5 338.5,122.5 339.5,123.5 339.5,123.5 339.5,124.5 339.5,124.5 339.5,125.5 339.5,125.5 
		339.5,126.5 339.5,126.5 339.5,127.5 339.5,127.5 339.5,128.5 339.5,128.5 339.5,128.5 340.5,128.5 340.5,128.5 340.5,128.5 
		340.5,128.5 340.5,129.5 340.5,129.5 340.5,130.5 340.5,130.5 340.5,131.5 340.5,131.5 340.5,132.5 340.5,132.5 340.5,133.5 
		341.5,133.5 341.5,133.5 341.5,133.5 341.5,133.5 341.5,133.5 341.5,133.5 341.5,134.5 341.5,134.5 341.5,134.5 341.5,135.5 
		341.5,135.5 341.5,135.5 341.5,135.5 342.5,136.5 342.5,136.5 342.5,137.5 342.5,137.5 342.5,136.5 342.5,136.5 342.5,136.5 
		342.5,135.5 342.5,136.5 342.5,136.5 342.5,136.5 342.5,136.5 342.5,136.5 343.5,136.5 343.5,136.5 343.5,136.5 343.5,136.5 
		343.5,136.5 343.5,137.5 343.5,137.5 343.5,137.5 343.5,137.5 343.5,137.5 343.5,137.5 343.5,137.5 343.5,137.5 344.5,138.5 
		344.5,138.5 344.5,138.5 344.5,138.5 344.5,138.5 344.5,138.5 344.5,139.5 344.5,139.5 344.5,139.5 344.5,140.5 344.5,140.5 
		344.5,140.5 344.5,141.5 345.5,141.5 345.5,141.5 345.5,142.5 345.5,142.5 345.5,142.5 345.5,142.5 345.5,142.5 345.5,143.5 
		345.5,143.5 345.5,143.5 345.5,143.5 345.5,143.5 345.5,143.5 346.5,143.5 346.5,143.5 346.5,144.5 346.5,144.5 346.5,144.5 
		346.5,144.5 346.5,144.5 346.5,144.5 346.5,144.5 346.5,145.5 346.5,145.5 346.5,145.5 346.5,145.5 347.5,145.5 347.5,145.5 
		347.5,145.5 347.5,146.5 347.5,146.5 347.5,146.5 347.5,146.5 347.5,146.5 347.5,146.5 347.5,147.5 347.5,147.5 347.5,147.5 
		347.5,147.5 348.5,147.5 348.5,147.5 348.5,148.5 348.5,148.5 348.5,148.5 348.5,148.5 348.5,149.5 348.5,149.5 348.5,149.5 
		348.5,149.5 348.5,149.5 348.5,150.5 348.5,150.5 349.5,150.5 349.5,150.5 349.5,151.5 349.5,151.5 349.5,151.5 349.5,151.5 
		349.5,151.5 349.5,151.5 349.5,152.5 349.5,152.5 349.5,152.5 349.5,152.5 349.5,152.5 350.5,153.5 350.5,153.5 350.5,153.5 
		350.5,153.5 350.5,154.5 350.5,154.5 350.5,155.5 350.5,155.5 350.5,155.5 350.5,156.5 350.5,156.5 350.5,156.5 350.5,157.5 
		351.5,157.5 351.5,158.5 351.5,159.5 351.5,160.5 351.5,161.5 351.5,162.5 351.5,162.5 351.5,163.5 351.5,164.5 351.5,165.5 
		351.5,166.5 351.5,166.5 351.5,166.5 352.5,167.5 352.5,167.5 352.5,167.5 352.5,167.5 352.5,167.5 352.5,168.5 352.5,168.5 
		352.5,168.5 352.5,168.5 352.5,168.5 352.5,168.5 352.5,168.5 352.5,168.5 353.5,168.5 353.5,168.5 353.5,169.5 353.5,169.5 
		353.5,169.5 353.5,169.5 353.5,169.5 353.5,169.5 353.5,169.5 353.5,169.5 353.5,169.5 353.5,169.5 353.5,170.5 354.5,170.5 
		354.5,170.5 354.5,170.5 354.5,171.5 354.5,171.5 354.5,171.5 354.5,171.5 354.5,171.5 354.5,172.5 354.5,172.5 354.5,172.5 
		354.5,173.5 354.5,173.5 355.5,173.5 355.5,173.5 355.5,173.5 355.5,173.5 355.5,173.5 355.5,173.5 355.5,173.5 355.5,174.5 
		355.5,174.5 355.5,174.5 355.5,174.5 355.5,174.5 355.5,174.5 356.5,174.5 356.5,174.5 356.5,174.5 356.5,174.5 356.5,175.5 
		356.5,175.5 356.5,175.5 356.5,175.5 356.5,175.5 356.5,175.5 356.5,175.5 356.5,175.5 356.5,174.5 357.5,175.5 357.5,175.5 
		357.5,175.5 357.5,175.5 357.5,175.5 357.5,175.5 357.5,175.5 357.5,175.5 357.5,175.5 357.5,175.5 357.5,175.5 357.5,175.5 
		357.5,175.5 358.5,175.5 358.5,175.5 358.5,175.5 358.5,175.5 358.5,174.5 358.5,174.5 358.5,174.5 358.5,174.5 358.5,174.5 
		358.5,175.5 358.5,175.5 358.5,175.5 358.5,175.5 359.5,175.5 359.5,175.5 359.5,175.5 359.5,175.5 359.5,174.5 359.5,174.5 
		359.5,174.5 359.5,174.5 359.5,174.5 359.5,174.5 359.5,173.5 359.5,174.5 359.5,174.5 360.5,173.5 360.5,173.5 360.5,174.5 
		360.5,174.5 360.5,174.5 360.5,174.5 360.5,174.5 360.5,175.5 360.5,175.5 360.5,175.5 360.5,175.5 360.5,175.5 360.5,176.5 
		361.5,176.5 361.5,176.5 361.5,176.5 361.5,177.5 361.5,177.5 361.5,177.5 361.5,177.5 361.5,178.5 361.5,178.5 361.5,178.5 
		361.5,178.5 361.5,179.5 361.5,179.5 362.5,179.5 362.5,179.5 362.5,179.5 362.5,179.5 362.5,179.5 362.5,179.5 362.5,179.5 
		362.5,179.5 362.5,179.5 362.5,179.5 362.5,179.5 362.5,179.5 362.5,178.5 363.5,178.5 363.5,178.5 363.5,178.5 363.5,178.5 
		363.5,178.5 363.5,178.5 363.5,178.5 363.5,178.5 363.5,178.5 363.5,178.5 363.5,178.5 363.5,179.5 363.5,179.5 364.5,179.5 
		364.5,180.5 364.5,180.5 364.5,180.5 364.5,180.5 364.5,180.5 364.5,180.5 364.5,180.5 364.5,180.5 364.5,180.5 364.5,180.5 
		364.5,180.5 364.5,180.5 365.5,180.5 365.5,180.5 365.5,180.5 365.5,180.5 365.5,181.5 365.5,181.5 365.5,181.5 365.5,181.5 
		365.5,181.5 365.5,181.5 365.5,181.5 365.5,181.5 365.5,181.5 366.5,182.5 366.5,182.5 366.5,182.5 366.5,182.5 366.5,182.5 
		366.5,182.5 366.5,182.5 366.5,182.5 366.5,182.5 366.5,183.5 366.5,183.5 366.5,183.5 366.5,182.5 367.5,182.5 367.5,182.5 
		367.5,182.5 367.5,182.5 367.5,182.5 367.5,182.5 367.5,182.5 367.5,182.5 367.5,182.5 367.5,182.5 367.5,181.5 367.5,181.5 
		367.5,181.5 368.5,181.5 368.5,182.5 368.5,182.5 368.5,182.5 368.5,182.5 368.5,182.5 368.5,182.5 368.5,182.5 368.5,182.5 
		368.5,182.5 368.5,182.5 368.5,182.5 368.5,182.5 369.5,182.5 369.5,183.5 369.5,183.5 369.5,184.5 369.5,184.5 369.5,185.5 
		369.5,185.5 369.5,186.5 369.5,186.5 369.5,186.5 369.5,186.5 369.5,187.5 369.5,187.5 370.5,187.5 370.5,187.5 370.5,188.5 
		370.5,188.5 370.5,188.5 370.5,188.5 370.5,188.5 370.5,188.5 370.5,189.5 370.5,190.5 370.5,190.5 370.5,191.5 370.5,191.5 
		371.5,191.5 371.5,191.5 371.5,192.5 371.5,192.5 371.5,192.5 371.5,192.5 371.5,192.5 371.5,192.5 371.5,191.5 371.5,191.5 
		371.5,191.5 371.5,190.5 371.5,190.5 372.5,189.5 372.5,189.5 372.5,189.5 372.5,189.5 372.5,188.5 372.5,188.5 372.5,188.5 
		372.5,188.5 372.5,187.5 372.5,187.5 372.5,187.5 372.5,186.5 372.5,186.5 373.5,186.5 373.5,186.5 373.5,186.5 373.5,186.5 
		373.5,186.5 373.5,186.5 373.5,187.5 373.5,187.5 373.5,187.5 373.5,187.5 373.5,187.5 373.5,188.5 373.5,188.5 374.5,188.5 
		374.5,188.5 374.5,189.5 374.5,189.5 374.5,189.5 374.5,189.5 374.5,190.5 374.5,190.5 374.5,190.5 374.5,190.5 374.5,191.5 
		374.5,191.5 374.5,191.5 375.5,191.5 375.5,191.5 375.5,191.5 375.5,191.5 375.5,191.5 375.5,191.5 375.5,190.5 375.5,190.5 
		375.5,190.5 375.5,190.5 375.5,189.5 375.5,189.5 375.5,189.5 376.5,188.5 376.5,188.5 376.5,188.5 376.5,187.5 376.5,187.5 
		376.5,187.5 376.5,187.5 376.5,187.5 376.5,187.5 376.5,187.5 376.5,188.5 376.5,188.5 376.5,189.5 377.5,188.5 377.5,188.5 
		377.5,187.5 377.5,187.5 377.5,187.5 377.5,186.5 377.5,186.5 377.5,185.5 377.5,185.5 377.5,185.5 377.5,185.5 377.5,185.5 
		377.5,186.5 378.5,186.5 378.5,186.5 378.5,186.5 378.5,187.5 378.5,187.5 378.5,188.5 378.5,188.5 378.5,188.5 378.5,188.5 
		378.5,188.5 378.5,189.5 378.5,189.5 378.5,189.5 379.5,189.5 379.5,190.5 379.5,190.5 379.5,190.5 379.5,190.5 379.5,190.5 
		379.5,190.5 379.5,191.5 379.5,191.5 379.5,191.5 379.5,191.5 379.5,191.5 379.5,191.5 380.5,191.5 380.5,191.5 380.5,191.5 
		380.5,191.5 380.5,191.5 380.5,191.5 380.5,190.5 380.5,190.5 380.5,190.5 380.5,189.5 380.5,189.5 380.5,189.5 380.5,189.5 
		381.5,188.5 381.5,188.5 381.5,188.5 381.5,188.5 381.5,188.5 381.5,188.5 381.5,188.5 381.5,188.5 381.5,188.5 381.5,187.5 
		381.5,187.5 381.5,187.5 381.5,187.5 382.5,187.5 382.5,187.5 382.5,188.5 382.5,188.5 382.5,188.5 382.5,188.5 382.5,188.5 
		382.5,188.5 382.5,188.5 382.5,188.5 382.5,187.5 382.5,187.5 382.5,187.5 383.5,187.5 383.5,187.5 383.5,187.5 383.5,187.5 
		383.5,187.5 383.5,187.5 383.5,187.5 383.5,187.5 383.5,187.5 383.5,187.5 383.5,187.5 383.5,187.5 383.5,186.5 384.5,186.5 
		384.5,186.5 384.5,187.5 384.5,187.5 384.5,187.5 384.5,188.5 384.5,188.5 384.5,188.5 384.5,188.5 384.5,188.5 384.5,188.5 
		384.5,188.5 384.5,188.5 385.5,188.5 385.5,188.5 385.5,188.5 385.5,188.5 385.5,189.5 385.5,189.5 385.5,190.5 385.5,190.5 
		385.5,190.5 385.5,190.5 385.5,191.5 385.5,191.5 385.5,191.5 386.5,191.5 386.5,191.5 386.5,191.5 386.5,191.5 386.5,192.5 
		386.5,192.5 386.5,192.5 386.5,192.5 386.5,192.5 386.5,193.5 386.5,193.5 386.5,193.5 386.5,193.5 387.5,193.5 387.5,193.5 
		387.5,193.5 387.5,193.5 387.5,193.5 387.5,193.5 387.5,194.5 387.5,194.5 387.5,195.5 387.5,195.5 387.5,195.5 387.5,195.5 
		387.5,195.5 388.5,195.5 388.5,195.5 388.5,195.5 388.5,195.5 388.5,195.5 388.5,195.5 388.5,196.5 388.5,196.5 388.5,196.5 
		388.5,197.5 388.5,197.5 388.5,197.5 388.5,197.5 389.5,197.5 389.5,197.5 389.5,197.5 389.5,197.5 389.5,197.5 389.5,197.5 
		389.5,197.5 389.5,197.5 389.5,197.5 389.5,197.5 389.5,197.5 389.5,197.5 389.5,197.5 390.5,197.5 390.5,197.5 390.5,197.5 
		390.5,197.5 390.5,197.5 390.5,197.5 390.5,197.5 390.5,197.5 390.5,197.5 390.5,197.5 390.5,197.5 390.5,197.5 390.5,197.5 
		391.5,197.5 391.5,197.5 391.5,197.5 391.5,197.5 391.5,197.5 391.5,197.5 391.5,197.5 391.5,197.5 391.5,197.5 391.5,197.5 
		391.5,197.5 391.5,197.5 391.5,197.5 392.5,196.5 392.5,196.5 392.5,196.5 392.5,196.5 392.5,196.5 392.5,196.5 392.5,196.5 
		392.5,196.5 392.5,196.5 392.5,196.5 392.5,196.5 392.5,196.5 392.5,195.5 393.5,195.5 393.5,195.5 393.5,195.5 393.5,195.5 
		393.5,194.5 393.5,194.5 393.5,194.5 393.5,194.5 393.5,194.5 393.5,194.5 393.5,194.5 393.5,194.5 393.5,194.5 394.5,193.5 
		394.5,193.5 394.5,193.5 394.5,193.5 394.5,193.5 394.5,193.5 394.5,192.5 394.5,192.5 394.5,192.5 394.5,192.5 394.5,192.5 
		394.5,191.5 394.5,191.5 395.5,191.5 395.5,191.5 395.5,191.5 395.5,191.5 395.5,191.5 395.5,191.5 395.5,191.5 395.5,191.5 
		395.5,191.5 395.5,191.5 395.5,191.5 395.5,191.5 395.5,191.5 396.5,191.5 396.5,191.5 396.5,191.5 396.5,191.5 396.5,191.5 
		396.5,191.5 396.5,191.5 396.5,191.5 396.5,191.5 396.5,191.5 396.5,191.5 396.5,192.5 396.5,192.5 397.5,192.5 397.5,192.5 
		397.5,192.5 397.5,192.5 397.5,192.5 397.5,192.5 397.5,192.5 397.5,192.5 397.5,192.5 397.5,192.5 397.5,192.5 397.5,192.5 
		397.5,192.5 398.5,192.5 398.5,192.5 398.5,192.5 398.5,192.5 398.5,192.5 398.5,192.5 398.5,192.5 398.5,192.5 398.5,192.5 
		398.5,192.5 398.5,192.5 398.5,192.5 398.5,192.5 399.5,192.5 399.5,192.5 399.5,192.5 399.5,192.5 399.5,192.5 399.5,192.5 
		399.5,192.5 399.5,193.5 399.5,193.5 399.5,193.5 399.5,193.5 399.5,193.5 399.5,193.5 400.5,193.5 400.5,194.5 400.5,194.5 
		400.5,194.5 400.5,194.5 400.5,194.5 400.5,194.5 400.5,194.5 400.5,195.5 400.5,195.5 400.5,195.5 400.5,195.5 400.5,195.5 
		401.5,195.5 401.5,194.5 401.5,194.5 401.5,194.5 401.5,194.5 401.5,194.5 401.5,194.5 401.5,194.5 401.5,194.5 401.5,194.5 
		401.5,194.5 401.5,194.5 401.5,195.5 402.5,195.5 402.5,195.5 402.5,195.5 402.5,195.5 402.5,195.5 402.5,195.5 402.5,195.5 
		402.5,195.5 402.5,195.5 402.5,195.5 402.5,195.5 402.5,195.5 402.5,195.5 403.5,195.5 403.5,195.5 403.5,195.5 403.5,196.5 
		403.5,196.5 403.5,196.5 403.5,196.5 403.5,196.5 403.5,196.5 403.5,196.5 403.5,196.5 403.5,196.5 403.5,196.5 404.5,196.5 
		404.5,196.5 404.5,196.5 404.5,196.5 404.5,196.5 404.5,196.5 404.5,196.5 404.5,196.5 404.5,196.5 404.5,195.5 404.5,195.5 
		404.5,195.5 404.5,195.5 405.5,194.5 405.5,194.5 405.5,194.5 405.5,193.5 405.5,193.5 405.5,193.5 405.5,192.5 405.5,192.5 
		405.5,191.5 405.5,191.5 405.5,191.5 405.5,190.5 405.5,190.5 406.5,190.5 406.5,190.5 406.5,189.5 406.5,189.5 406.5,189.5 
		406.5,189.5 406.5,189.5 406.5,189.5 406.5,189.5 406.5,189.5 406.5,189.5 406.5,190.5 406.5,190.5 406.5,190.5 407.5,190.5 
		407.5,190.5 407.5,190.5 407.5,190.5 407.5,190.5 407.5,190.5 407.5,190.5 407.5,190.5 407.5,190.5 407.5,190.5 407.5,190.5 
		407.5,190.5 407.5,190.5 408.5,190.5 408.5,190.5 408.5,190.5 408.5,190.5 408.5,190.5 408.5,190.5 408.5,190.5 408.5,190.5 
		408.5,190.5 408.5,190.5 408.5,190.5 408.5,190.5 408.5,190.5 409.5,190.5 409.5,190.5 409.5,190.5 409.5,191.5 409.5,191.5 
		409.5,191.5 409.5,191.5 409.5,191.5 409.5,192.5 409.5,192.5 409.5,192.5 409.5,192.5 409.5,192.5 410.5,192.5 410.5,192.5 
		410.5,192.5 410.5,192.5 410.5,192.5 410.5,192.5 410.5,192.5 410.5,192.5 410.5,191.5 410.5,191.5 410.5,191.5 410.5,191.5 
		410.5,191.5 411.5,190.5 411.5,190.5 411.5,190.5 411.5,190.5 411.5,189.5 411.5,189.5 411.5,189.5 411.5,189.5 411.5,188.5 
		411.5,188.5 411.5,188.5 411.5,187.5 411.5,187.5 412.5,187.5 412.5,186.5 412.5,186.5 412.5,185.5 412.5,185.5 412.5,184.5 
		412.5,184.5 412.5,184.5 412.5,183.5 412.5,183.5 412.5,182.5 412.5,182.5 412.5,182.5 413.5,181.5 413.5,181.5 413.5,181.5 
		413.5,180.5 413.5,180.5 413.5,180.5 413.5,180.5 413.5,180.5 413.5,180.5 413.5,180.5 413.5,180.5 413.5,179.5 413.5,179.5 
		414.5,179.5 414.5,179.5 414.5,179.5 414.5,179.5 414.5,179.5 414.5,179.5 414.5,179.5 414.5,179.5 414.5,179.5 414.5,179.5 
		414.5,179.5 414.5,179.5 414.5,179.5 415.5,178.5 415.5,178.5 415.5,177.5 415.5,176.5 415.5,176.5 415.5,175.5 415.5,174.5 
		415.5,174.5 415.5,173.5 415.5,172.5 415.5,171.5 415.5,171.5 415.5,170.5 416.5,170.5 416.5,169.5 416.5,169.5 416.5,168.5 
		416.5,167.5 416.5,167.5 416.5,166.5 416.5,166.5 416.5,165.5 416.5,165.5 416.5,164.5 416.5,163.5 416.5,163.5 417.5,162.5 
		417.5,161.5 417.5,160.5 417.5,160.5 417.5,160.5 417.5,160.5 417.5,159.5 417.5,159.5 417.5,159.5 417.5,159.5 417.5,159.5 
		417.5,159.5 417.5,158.5 418.5,158.5 418.5,158.5 418.5,158.5 418.5,158.5 418.5,157.5 418.5,157.5 418.5,156.5 418.5,155.5 
		418.5,155.5 418.5,154.5 418.5,154.5 418.5,153.5 418.5,151.5 419.5,151.5 419.5,150.5 419.5,150.5 419.5,150.5 419.5,149.5 
		419.5,149.5 419.5,149.5 419.5,149.5 419.5,150.5 419.5,150.5 419.5,150.5 419.5,150.5 419.5,151.5 420.5,153.5 420.5,152.5 
		420.5,152.5 420.5,152.5 420.5,152.5 420.5,151.5 420.5,151.5 420.5,152.5 420.5,153.5 420.5,153.5 420.5,153.5 420.5,153.5 
		420.5,153.5 421.5,154.5 421.5,154.5 421.5,154.5 421.5,154.5 421.5,153.5 421.5,154.5 421.5,154.5 421.5,154.5 421.5,155.5 
		421.5,156.5 421.5,156.5 421.5,157.5 421.5,157.5 422.5,158.5 422.5,158.5 422.5,159.5 422.5,159.5 422.5,159.5 422.5,159.5 
		422.5,159.5 422.5,159.5 422.5,160.5 422.5,160.5 422.5,160.5 422.5,160.5 422.5,160.5 423.5,160.5 423.5,160.5 423.5,161.5 
		423.5,161.5 423.5,161.5 423.5,161.5 423.5,161.5 423.5,161.5 423.5,161.5 423.5,162.5 423.5,162.5 423.5,162.5 423.5,162.5 
		424.5,162.5 424.5,162.5 424.5,163.5 424.5,163.5 424.5,164.5 424.5,164.5 424.5,164.5 424.5,165.5 424.5,166.5 424.5,166.5 
		424.5,167.5 424.5,168.5 424.5,168.5 425.5,170.5 425.5,172.5 425.5,173.5 425.5,174.5 425.5,175.5 425.5,175.5 425.5,176.5 
		425.5,176.5 425.5,176.5 425.5,176.5 425.5,176.5 425.5,176.5 425.5,176.5 426.5,175.5 426.5,175.5 426.5,175.5 426.5,174.5 
		426.5,174.5 426.5,174.5 426.5,173.5 426.5,173.5 426.5,172.5 426.5,172.5 426.5,171.5 426.5,170.5 426.5,170.5 427.5,169.5 
		427.5,169.5 427.5,168.5 427.5,167.5 427.5,167.5 427.5,166.5 427.5,167.5 427.5,167.5 427.5,167.5 427.5,167.5 427.5,167.5 
		427.5,167.5 427.5,167.5 428.5,167.5 428.5,166.5 428.5,166.5 428.5,166.5 428.5,166.5 428.5,166.5 428.5,166.5 428.5,165.5 
		428.5,165.5 428.5,165.5 428.5,165.5 428.5,165.5 428.5,164.5 429.5,164.5 429.5,164.5 429.5,164.5 429.5,164.5 429.5,163.5 
		429.5,163.5 429.5,163.5 429.5,163.5 429.5,163.5 429.5,162.5 429.5,162.5 429.5,162.5 429.5,162.5 430.5,161.5 430.5,161.5 
		430.5,161.5 430.5,161.5 430.5,161.5 430.5,161.5 430.5,160.5 430.5,160.5 430.5,160.5 430.5,160.5 430.5,161.5 430.5,161.5 
		430.5,161.5 431.5,162.5 431.5,162.5 431.5,161.5 431.5,161.5 431.5,161.5 431.5,162.5 431.5,163.5 431.5,163.5 431.5,164.5 
		431.5,164.5 431.5,164.5 431.5,165.5 431.5,165.5 432.5,165.5 432.5,164.5 432.5,164.5 432.5,164.5 432.5,164.5 432.5,163.5 
		432.5,163.5 432.5,163.5 432.5,163.5 432.5,163.5 432.5,162.5 432.5,162.5 432.5,162.5 433.5,162.5 433.5,162.5 433.5,161.5 
		433.5,161.5 433.5,161.5 433.5,161.5 433.5,160.5 433.5,160.5 433.5,159.5 433.5,158.5 433.5,158.5 433.5,158.5 433.5,157.5 
		434.5,157.5 434.5,157.5 434.5,156.5 434.5,156.5 434.5,156.5 434.5,156.5 434.5,156.5 434.5,156.5 434.5,155.5 434.5,155.5 
		434.5,155.5 434.5,155.5 434.5,155.5 435.5,155.5 435.5,155.5 435.5,155.5 435.5,154.5 435.5,154.5 435.5,154.5 435.5,154.5 
		435.5,154.5 435.5,154.5 435.5,154.5 435.5,155.5 435.5,155.5 435.5,155.5 436.5,155.5 436.5,155.5 436.5,156.5 436.5,156.5 
		436.5,157.5 436.5,157.5 436.5,157.5 436.5,157.5 436.5,158.5 436.5,158.5 436.5,158.5 436.5,158.5 436.5,158.5 437.5,158.5 
		437.5,157.5 437.5,157.5 437.5,157.5 437.5,157.5 437.5,156.5 437.5,155.5 437.5,154.5 437.5,154.5 437.5,153.5 437.5,153.5 
		437.5,152.5 437.5,151.5 438.5,151.5 438.5,150.5 438.5,150.5 438.5,149.5 438.5,149.5 438.5,149.5 438.5,149.5 438.5,149.5 
		438.5,148.5 438.5,148.5 438.5,148.5 438.5,148.5 438.5,148.5 439.5,148.5 439.5,147.5 439.5,147.5 439.5,147.5 439.5,147.5 
		439.5,147.5 439.5,146.5 439.5,146.5 439.5,146.5 439.5,145.5 439.5,145.5 439.5,144.5 439.5,144.5 440.5,144.5 440.5,144.5 
		440.5,144.5 440.5,144.5 440.5,144.5 440.5,144.5 440.5,144.5 440.5,144.5 440.5,144.5 440.5,144.5 440.5,144.5 440.5,144.5 
		440.5,144.5 441.5,144.5 441.5,144.5 441.5,144.5 441.5,144.5 441.5,144.5 441.5,144.5 441.5,144.5 441.5,144.5 441.5,144.5 
		441.5,145.5 441.5,145.5 441.5,146.5 441.5,146.5 442.5,147.5 442.5,147.5 442.5,148.5 442.5,148.5 442.5,149.5 442.5,149.5 
		442.5,150.5 442.5,150.5 442.5,151.5 442.5,151.5 442.5,152.5 442.5,152.5 442.5,153.5 443.5,153.5 443.5,153.5 443.5,154.5 
		443.5,154.5 443.5,155.5 443.5,155.5 443.5,155.5 443.5,155.5 443.5,155.5 443.5,155.5 443.5,156.5 443.5,156.5 443.5,156.5 
		444.5,156.5 444.5,157.5 444.5,157.5 444.5,158.5 444.5,158.5 444.5,159.5 444.5,159.5 444.5,160.5 444.5,160.5 444.5,161.5 
		444.5,162.5 444.5,162.5 444.5,162.5 445.5,161.5 445.5,161.5 445.5,161.5 445.5,161.5 445.5,161.5 445.5,161.5 445.5,161.5 
		445.5,161.5 445.5,161.5 445.5,161.5 445.5,162.5 445.5,162.5 445.5,162.5 446.5,162.5 446.5,162.5 446.5,162.5 446.5,163.5 
		446.5,163.5 446.5,163.5 446.5,163.5 446.5,163.5 446.5,163.5 446.5,163.5 446.5,164.5 446.5,164.5 446.5,164.5 447.5,165.5 
		447.5,164.5 447.5,164.5 447.5,164.5 447.5,164.5 447.5,163.5 447.5,163.5 447.5,163.5 447.5,162.5 447.5,162.5 447.5,161.5 
		447.5,161.5 447.5,161.5 448.5,160.5 448.5,161.5 448.5,160.5 448.5,160.5 448.5,160.5 448.5,160.5 448.5,160.5 448.5,160.5 
		448.5,159.5 448.5,159.5 448.5,159.5 448.5,159.5 448.5,158.5 449.5,159.5 449.5,159.5 449.5,159.5 449.5,159.5 449.5,159.5 
		449.5,159.5 449.5,160.5 449.5,159.5 449.5,159.5 449.5,159.5 449.5,159.5 449.5,158.5 449.5,158.5 450.5,158.5 450.5,158.5 
		450.5,157.5 450.5,157.5 450.5,157.5 450.5,157.5 450.5,156.5 450.5,156.5 450.5,156.5 450.5,155.5 450.5,155.5 450.5,154.5 
		450.5,153.5 451.5,152.5 451.5,152.5 451.5,152.5 451.5,151.5 451.5,150.5 451.5,150.5 451.5,150.5 451.5,150.5 451.5,150.5 
		451.5,150.5 451.5,150.5 451.5,150.5 451.5,150.5 452.5,150.5 452.5,150.5 452.5,150.5 452.5,150.5 452.5,150.5 452.5,150.5 
		452.5,150.5 452.5,150.5 452.5,150.5 452.5,149.5 452.5,149.5 452.5,149.5 452.5,149.5 453.5,149.5 453.5,149.5 453.5,149.5 
		453.5,149.5 453.5,149.5 453.5,150.5 453.5,151.5 453.5,151.5 453.5,151.5 453.5,152.5 453.5,152.5 453.5,152.5 453.5,153.5 
		454.5,153.5 454.5,154.5 454.5,154.5 454.5,154.5 454.5,154.5 454.5,154.5 454.5,154.5 454.5,155.5 454.5,155.5 454.5,155.5 
		454.5,155.5 454.5,155.5 454.5,154.5 455.5,154.5 455.5,155.5 455.5,155.5 455.5,155.5 455.5,156.5 455.5,156.5 455.5,156.5 
		455.5,157.5 455.5,157.5 455.5,157.5 455.5,158.5 455.5,158.5 455.5,158.5 456.5,158.5 456.5,159.5 456.5,159.5 456.5,159.5 
		456.5,159.5 456.5,160.5 456.5,160.5 456.5,160.5 456.5,161.5 456.5,161.5 456.5,161.5 456.5,161.5 456.5,162.5 457.5,162.5 
		457.5,162.5 457.5,162.5 457.5,162.5 457.5,162.5 457.5,162.5 457.5,162.5 457.5,162.5 457.5,163.5 457.5,163.5 457.5,164.5 
		457.5,164.5 457.5,164.5 458.5,165.5 458.5,165.5 458.5,165.5 458.5,165.5 458.5,165.5 458.5,165.5 458.5,166.5 458.5,166.5 
		458.5,166.5 458.5,166.5 458.5,166.5 458.5,166.5 458.5,166.5 459.5,166.5 459.5,166.5 459.5,167.5 459.5,167.5 459.5,167.5 
		459.5,167.5 459.5,167.5 459.5,167.5 459.5,167.5 459.5,167.5 459.5,168.5 459.5,168.5 459.5,168.5 460.5,168.5 460.5,168.5 
		460.5,168.5 460.5,169.5 460.5,169.5 460.5,169.5 460.5,169.5 460.5,169.5 460.5,169.5 460.5,169.5 460.5,169.5 460.5,169.5 
		460.5,169.5 461.5,169.5 461.5,169.5 461.5,169.5 461.5,169.5 461.5,169.5 461.5,169.5 461.5,169.5 461.5,169.5 461.5,169.5 
		461.5,169.5 461.5,169.5 461.5,169.5 461.5,169.5 462.5,169.5 462.5,169.5 462.5,169.5 462.5,170.5 462.5,170.5 462.5,170.5 
		462.5,170.5 462.5,170.5 462.5,170.5 462.5,170.5 462.5,170.5 462.5,169.5 462.5,169.5 463.5,169.5 463.5,169.5 463.5,169.5 
		463.5,168.5 463.5,168.5 463.5,168.5 463.5,168.5 463.5,167.5 463.5,167.5 463.5,166.5 463.5,166.5 463.5,166.5 463.5,165.5 
		464.5,165.5 464.5,164.5 464.5,164.5 464.5,164.5 464.5,163.5 464.5,163.5 464.5,162.5 464.5,162.5 464.5,162.5 464.5,161.5 
		464.5,161.5 464.5,161.5 464.5,160.5 465.5,160.5 465.5,160.5 465.5,160.5 465.5,159.5 465.5,159.5 465.5,159.5 465.5,158.5 
		465.5,158.5 465.5,158.5 465.5,157.5 465.5,157.5 465.5,157.5 465.5,156.5 466.5,156.5 466.5,155.5 466.5,155.5 466.5,155.5 
		466.5,154.5 466.5,154.5 466.5,153.5 466.5,153.5 466.5,153.5 466.5,152.5 466.5,152.5 466.5,152.5 466.5,152.5 467.5,152.5 
		467.5,152.5 467.5,151.5 467.5,151.5 467.5,151.5 467.5,152.5 467.5,152.5 467.5,153.5 467.5,154.5 467.5,154.5 467.5,154.5 
		467.5,154.5 467.5,154.5 468.5,154.5 468.5,155.5 468.5,155.5 468.5,156.5 468.5,156.5 468.5,157.5 468.5,157.5 468.5,158.5 
		468.5,158.5 468.5,159.5 468.5,160.5 468.5,160.5 468.5,161.5 469.5,162.5 469.5,162.5 469.5,163.5 469.5,164.5 469.5,164.5 
		469.5,165.5 469.5,165.5 469.5,165.5 469.5,166.5 469.5,166.5 469.5,166.5 469.5,166.5 469.5,166.5 470.5,166.5 470.5,167.5 
		470.5,167.5 470.5,167.5 470.5,167.5 470.5,167.5 470.5,167.5 470.5,167.5 470.5,167.5 470.5,167.5 470.5,167.5 470.5,167.5 
		470.5,167.5 471.5,167.5 471.5,167.5 471.5,167.5 471.5,167.5 471.5,167.5 471.5,167.5 471.5,167.5 471.5,167.5 471.5,167.5 
		471.5,167.5 471.5,167.5 471.5,167.5 471.5,167.5 472.5,167.5 472.5,167.5 472.5,168.5 472.5,168.5 472.5,168.5 472.5,169.5 
		472.5,169.5 472.5,170.5 472.5,170.5 472.5,170.5 472.5,170.5 472.5,170.5 472.5,170.5 473.5,170.5 473.5,170.5 473.5,169.5 
		473.5,169.5 473.5,169.5 473.5,169.5 473.5,169.5 473.5,169.5 473.5,169.5 473.5,169.5 473.5,169.5 473.5,169.5 473.5,169.5 
		474.5,169.5 474.5,169.5 474.5,169.5 474.5,169.5 474.5,169.5 474.5,169.5 474.5,169.5 474.5,169.5 474.5,168.5 474.5,168.5 
		474.5,168.5 474.5,168.5 474.5,168.5 475.5,168.5 475.5,168.5 475.5,168.5 475.5,168.5 475.5,168.5 475.5,167.5 475.5,167.5 
		475.5,167.5 475.5,167.5 475.5,167.5 475.5,166.5 475.5,166.5 475.5,166.5 476.5,166.5 476.5,166.5 476.5,165.5 476.5,165.5 
		476.5,165.5 476.5,164.5 476.5,164.5 476.5,164.5 476.5,163.5 476.5,163.5 476.5,162.5 476.5,162.5 476.5,162.5 477.5,162.5 
		477.5,162.5 477.5,162.5 477.5,162.5 477.5,161.5 477.5,161.5 477.5,161.5 477.5,161.5 477.5,161.5 477.5,161.5 477.5,160.5 
		477.5,160.5 477.5,160.5 478.5,160.5 478.5,160.5 478.5,160.5 478.5,159.5 478.5,159.5 478.5,159.5 478.5,159.5 478.5,159.5 
		478.5,159.5 478.5,158.5 478.5,158.5 478.5,158.5 478.5,158.5 479.5,158.5 479.5,158.5 479.5,158.5 479.5,157.5 479.5,157.5 
		479.5,157.5 479.5,157.5 479.5,157.5 479.5,156.5 479.5,156.5 479.5,156.5 479.5,156.5 479.5,156.5 480.5,156.5 480.5,155.5 
		480.5,156.5 480.5,156.5 480.5,156.5 480.5,156.5 480.5,155.5 480.5,155.5 480.5,155.5 480.5,155.5 480.5,155.5 480.5,155.5 
		480.5,156.5 480.5,155.5 481.5,155.5 481.5,155.5 481.5,155.5 481.5,155.5 481.5,155.5 481.5,155.5 481.5,155.5 481.5,155.5 
		481.5,154.5 481.5,154.5 481.5,154.5 481.5,154.5 481.5,154.5 482.5,154.5 482.5,154.5 482.5,154.5 482.5,154.5 482.5,154.5 
		482.5,154.5 482.5,154.5 482.5,154.5 482.5,154.5 482.5,154.5 482.5,154.5 482.5,154.5 482.5,154.5 483.5,154.5 483.5,154.5 
		483.5,155.5 483.5,155.5 483.5,155.5 483.5,155.5 483.5,155.5 483.5,155.5 483.5,155.5 483.5,155.5 483.5,155.5 483.5,155.5 
		483.5,155.5 484.5,155.5 484.5,154.5 484.5,154.5 484.5,154.5 484.5,154.5 484.5,154.5 484.5,154.5 484.5,154.5 484.5,155.5 
		484.5,155.5 484.5,155.5 484.5,155.5 484.5,155.5 485.5,155.5 485.5,154.5 485.5,154.5 485.5,155.5 485.5,155.5 485.5,155.5 
		485.5,155.5 485.5,155.5 485.5,154.5 485.5,154.5 485.5,154.5 485.5,154.5 485.5,154.5 486.5,154.5 486.5,154.5 486.5,154.5 
		486.5,155.5 486.5,155.5 486.5,155.5 486.5,155.5 486.5,155.5 486.5,155.5 486.5,155.5 486.5,155.5 486.5,155.5 486.5,155.5 
		487.5,155.5 487.5,155.5 487.5,155.5 487.5,155.5 487.5,155.5 487.5,155.5 487.5,155.5 487.5,155.5 487.5,155.5 487.5,155.5 
		487.5,155.5 487.5,154.5 487.5,154.5 488.5,154.5 488.5,154.5 488.5,154.5 488.5,154.5 488.5,154.5 488.5,154.5 488.5,154.5 
		488.5,154.5 488.5,154.5 488.5,154.5 488.5,154.5 488.5,154.5 488.5,154.5 489.5,153.5 489.5,153.5 489.5,153.5 489.5,153.5 
		489.5,153.5 489.5,153.5 489.5,153.5 489.5,153.5 489.5,153.5 489.5,154.5 489.5,154.5 489.5,154.5 489.5,154.5 490.5,154.5 
		490.5,154.5 490.5,153.5 490.5,153.5 490.5,153.5 490.5,153.5 490.5,153.5 490.5,152.5 490.5,152.5 490.5,152.5 490.5,152.5 
		490.5,152.5 490.5,151.5 491.5,151.5 491.5,151.5 491.5,151.5 491.5,151.5 491.5,150.5 491.5,150.5 491.5,150.5 491.5,151.5 
		491.5,150.5 491.5,150.5 491.5,150.5 491.5,150.5 491.5,150.5 492.5,150.5 492.5,150.5 492.5,150.5 492.5,150.5 492.5,149.5 
		492.5,149.5 492.5,149.5 492.5,149.5 492.5,149.5 492.5,149.5 492.5,149.5 492.5,149.5 492.5,149.5 493.5,149.5 493.5,149.5 
		493.5,148.5 493.5,148.5 493.5,148.5 493.5,148.5 493.5,148.5 493.5,148.5 493.5,148.5 493.5,148.5 493.5,148.5 493.5,148.5 
		493.5,148.5 494.5,148.5 494.5,148.5 494.5,148.5 494.5,148.5 494.5,148.5 494.5,148.5 494.5,148.5 494.5,148.5 494.5,148.5 
		494.5,148.5 494.5,148.5 494.5,148.5 494.5,148.5 495.5,148.5 495.5,148.5 495.5,147.5 495.5,147.5 495.5,147.5 495.5,147.5 
		495.5,147.5 495.5,147.5 495.5,147.5 495.5,147.5 495.5,147.5 495.5,147.5 495.5,147.5 496.5,148.5 496.5,149.5 496.5,150.5 
		496.5,150.5 496.5,148.5 496.5,147.5 496.5,146.5 496.5,146.5 496.5,146.5 496.5,146.5 496.5,145.5 496.5,145.5 496.5,145.5 
		497.5,145.5 497.5,144.5 497.5,144.5 497.5,144.5 497.5,144.5 497.5,144.5 497.5,144.5 497.5,144.5 497.5,144.5 497.5,144.5 
		497.5,144.5 497.5,144.5 497.5,144.5 498.5,144.5 498.5,144.5 498.5,144.5 498.5,144.5 498.5,144.5 498.5,144.5 498.5,143.5 
		498.5,143.5 498.5,143.5 498.5,143.5 498.5,143.5 498.5,142.5 498.5,142.5 499.5,142.5 499.5,141.5 499.5,141.5 499.5,140.5 
		499.5,140.5 499.5,139.5 499.5,139.5 499.5,138.5 499.5,138.5 499.5,138.5 499.5,137.5 499.5,137.5 499.5,136.5 500.5,136.5 
		500.5,136.5 500.5,136.5 500.5,135.5 500.5,136.5 500.5,136.5 500.5,136.5 500.5,136.5 500.5,136.5 500.5,136.5 500.5,135.5 
		500.5,136.5 500.5,136.5 501.5,136.5 501.5,136.5 501.5,136.5 501.5,135.5 501.5,135.5 501.5,135.5 501.5,134.5 501.5,134.5 
		501.5,133.5 501.5,133.5 501.5,133.5 501.5,133.5 501.5,133.5 502.5,132.5 502.5,132.5 502.5,132.5 502.5,132.5 502.5,132.5 
		502.5,131.5 502.5,131.5 502.5,130.5 502.5,130.5 502.5,130.5 502.5,130.5 502.5,130.5 502.5,130.5 503.5,129.5 503.5,129.5 
		503.5,129.5 503.5,129.5 503.5,129.5 503.5,129.5 503.5,129.5 503.5,129.5 503.5,129.5 503.5,129.5 503.5,129.5 503.5,129.5 
		503.5,128.5 504.5,128.5 504.5,128.5 504.5,128.5 504.5,128.5 504.5,128.5 504.5,128.5 504.5,128.5 504.5,128.5 504.5,128.5 
		504.5,128.5 504.5,128.5 504.5,128.5 504.5,128.5 505.5,128.5 505.5,128.5 505.5,128.5 505.5,129.5 505.5,129.5 505.5,129.5 
		505.5,128.5 505.5,128.5 505.5,128.5 505.5,128.5 505.5,128.5 505.5,128.5 505.5,128.5 506.5,128.5 506.5,128.5 506.5,128.5 
		506.5,128.5 506.5,128.5 506.5,128.5 506.5,127.5 506.5,127.5 506.5,127.5 506.5,127.5 506.5,127.5 506.5,126.5 506.5,126.5 
		507.5,126.5 507.5,126.5 507.5,126.5 507.5,125.5 507.5,125.5 507.5,125.5 507.5,125.5 507.5,126.5 507.5,126.5 507.5,126.5 
		507.5,127.5 507.5,127.5 507.5,127.5 508.5,127.5 508.5,127.5 508.5,127.5 508.5,127.5 508.5,127.5 508.5,127.5 508.5,127.5 
		508.5,127.5 508.5,128.5 508.5,128.5 508.5,128.5 508.5,128.5 508.5,128.5 509.5,128.5 509.5,128.5 509.5,128.5 509.5,128.5 
		509.5,128.5 509.5,128.5 509.5,128.5 509.5,127.5 509.5,127.5 509.5,127.5 509.5,127.5 509.5,126.5 509.5,126.5 510.5,126.5 
		510.5,125.5 510.5,125.5 510.5,125.5 510.5,124.5 510.5,124.5 510.5,123.5 510.5,123.5 510.5,123.5 510.5,123.5 510.5,123.5 
		510.5,122.5 510.5,122.5 511.5,121.5 511.5,121.5 511.5,121.5 511.5,120.5 511.5,120.5 511.5,119.5 511.5,119.5 511.5,118.5 
		511.5,118.5 511.5,118.5 511.5,117.5 511.5,117.5 511.5,116.5 512.5,116.5 512.5,116.5 512.5,115.5 512.5,115.5 512.5,115.5 
		512.5,115.5 512.5,115.5 512.5,114.5 512.5,114.5 512.5,114.5 512.5,114.5 512.5,114.5 512.5,114.5 513.5,114.5 513.5,114.5 
		513.5,114.5 513.5,114.5 513.5,114.5 513.5,114.5 513.5,114.5 513.5,114.5 513.5,114.5 513.5,114.5 513.5,114.5 513.5,114.5 
		513.5,114.5 514.5,114.5 514.5,114.5 514.5,114.5 514.5,114.5 514.5,114.5 514.5,113.5 514.5,113.5 514.5,113.5 514.5,113.5 
		514.5,113.5 514.5,113.5 514.5,113.5 514.5,113.5 515.5,113.5 515.5,113.5 515.5,113.5 515.5,113.5 515.5,114.5 515.5,114.5 
		515.5,114.5 515.5,114.5 515.5,114.5 515.5,114.5 515.5,114.5 515.5,113.5 515.5,113.5 516.5,113.5 516.5,113.5 516.5,113.5 
		516.5,113.5 516.5,114.5 516.5,115.5 516.5,115.5 516.5,116.5 516.5,117.5 516.5,118.5 516.5,118.5 516.5,119.5 516.5,120.5 
		517.5,120.5 517.5,121.5 517.5,121.5 517.5,122.5 517.5,123.5 517.5,124.5 517.5,124.5 517.5,125.5 517.5,125.5 517.5,125.5 
		517.5,126.5 517.5,126.5 517.5,127.5 518.5,127.5 518.5,127.5 518.5,127.5 518.5,127.5 518.5,127.5 518.5,126.5 518.5,126.5 
		518.5,125.5 518.5,124.5 518.5,124.5 518.5,123.5 518.5,122.5 518.5,122.5 519.5,122.5 519.5,122.5 519.5,122.5 519.5,122.5 
		519.5,122.5 519.5,122.5 519.5,122.5 519.5,122.5 519.5,122.5 519.5,122.5 519.5,122.5 519.5,122.5 519.5,122.5 520.5,122.5 
		520.5,121.5 520.5,121.5 520.5,121.5 520.5,121.5 520.5,121.5 520.5,121.5 520.5,121.5 520.5,121.5 520.5,121.5 520.5,121.5 
		520.5,121.5 520.5,121.5 521.5,121.5 521.5,121.5 521.5,121.5 521.5,121.5 521.5,121.5 521.5,121.5 521.5,122.5 521.5,122.5 
		521.5,122.5 521.5,122.5 521.5,122.5 521.5,123.5 521.5,123.5 522.5,124.5 522.5,124.5 522.5,124.5 522.5,125.5 522.5,125.5 
		522.5,126.5 522.5,126.5 522.5,127.5 522.5,127.5 522.5,128.5 522.5,128.5 522.5,129.5 522.5,129.5 523.5,130.5 523.5,130.5 
		523.5,131.5 523.5,131.5 523.5,132.5 523.5,132.5 523.5,133.5 523.5,133.5 523.5,134.5 523.5,134.5 523.5,134.5 523.5,135.5 
		523.5,135.5 524.5,135.5 524.5,136.5 524.5,136.5 524.5,136.5 524.5,136.5 524.5,137.5 524.5,137.5 524.5,137.5 524.5,137.5 
		524.5,137.5 524.5,137.5 524.5,137.5 524.5,136.5 525.5,136.5 525.5,135.5 525.5,135.5 525.5,135.5 525.5,135.5 525.5,135.5 
		525.5,135.5 525.5,135.5 525.5,135.5 525.5,136.5 525.5,136.5 525.5,137.5 525.5,138.5 526.5,138.5 526.5,139.5 526.5,139.5 
		526.5,140.5 526.5,140.5 526.5,141.5 526.5,141.5 526.5,141.5 526.5,141.5 526.5,140.5 526.5,140.5 526.5,140.5 526.5,140.5 
		527.5,139.5 527.5,139.5 527.5,139.5 527.5,139.5 527.5,139.5 527.5,139.5 527.5,139.5 527.5,139.5 527.5,138.5 527.5,138.5 
		527.5,138.5 527.5,138.5 527.5,138.5 528.5,138.5 528.5,138.5 528.5,138.5 528.5,138.5 528.5,138.5 528.5,137.5 528.5,137.5 
		528.5,137.5 528.5,137.5 528.5,136.5 528.5,136.5 528.5,136.5 528.5,136.5 529.5,135.5 529.5,135.5 529.5,134.5 529.5,134.5 
		529.5,134.5 529.5,133.5 529.5,133.5 529.5,132.5 529.5,132.5 529.5,131.5 529.5,131.5 529.5,131.5 529.5,130.5 530.5,129.5 
		530.5,129.5 530.5,129.5 530.5,128.5 530.5,128.5 530.5,128.5 530.5,127.5 530.5,127.5 530.5,126.5 530.5,126.5 530.5,126.5 
		530.5,126.5 530.5,126.5 531.5,126.5 531.5,126.5 531.5,126.5 531.5,126.5 531.5,126.5 531.5,126.5 531.5,126.5 531.5,126.5 
		531.5,126.5 531.5,127.5 531.5,127.5 531.5,127.5 531.5,127.5 532.5,128.5 532.5,128.5 532.5,128.5 532.5,129.5 532.5,130.5 
		532.5,130.5 532.5,131.5 532.5,132.5 532.5,132.5 532.5,132.5 532.5,133.5 532.5,133.5 532.5,133.5 533.5,134.5 533.5,134.5 
		533.5,134.5 533.5,135.5 533.5,135.5 533.5,136.5 533.5,136.5 533.5,137.5 533.5,137.5 533.5,138.5 533.5,138.5 533.5,138.5 
		533.5,139.5 534.5,139.5 534.5,139.5 534.5,140.5 534.5,140.5 534.5,140.5 534.5,140.5 534.5,140.5 534.5,140.5 534.5,140.5 
		534.5,140.5 534.5,140.5 534.5,140.5 534.5,141.5 535.5,140.5 535.5,140.5 535.5,140.5 535.5,140.5 535.5,140.5 535.5,140.5 
		535.5,140.5 535.5,140.5 535.5,140.5 535.5,140.5 535.5,140.5 535.5,139.5 535.5,140.5 536.5,140.5 536.5,140.5 536.5,140.5 
		536.5,140.5 536.5,141.5 536.5,141.5 536.5,141.5 536.5,142.5 536.5,142.5 536.5,142.5 536.5,142.5 536.5,142.5 536.5,142.5 
		537.5,143.5 537.5,143.5 537.5,143.5 537.5,143.5 537.5,143.5 537.5,143.5 537.5,144.5 537.5,144.5 537.5,144.5 537.5,144.5 
		537.5,144.5 537.5,144.5 537.5,144.5 538.5,144.5 538.5,144.5 538.5,144.5 538.5,144.5 538.5,145.5 538.5,145.5 538.5,145.5 
		538.5,145.5 538.5,146.5 538.5,146.5 538.5,146.5 538.5,146.5 538.5,146.5 539.5,146.5 539.5,147.5 539.5,147.5 539.5,147.5 
		539.5,147.5 539.5,147.5 539.5,147.5 539.5,147.5 539.5,148.5 539.5,148.5 539.5,148.5 539.5,148.5 539.5,148.5 540.5,149.5 
		540.5,149.5 540.5,149.5 540.5,149.5 540.5,150.5 540.5,150.5 540.5,150.5 540.5,150.5 540.5,150.5 540.5,150.5 540.5,150.5 
		540.5,150.5 540.5,150.5 541.5,150.5 541.5,150.5 541.5,150.5 541.5,150.5 541.5,150.5 541.5,150.5 541.5,150.5 541.5,150.5 
		541.5,149.5 541.5,149.5 541.5,149.5 541.5,149.5 541.5,149.5 542.5,149.5 542.5,149.5 542.5,149.5 542.5,149.5 542.5,149.5 
		542.5,149.5 542.5,149.5 542.5,148.5 542.5,148.5 542.5,148.5 542.5,148.5 542.5,148.5 542.5,148.5 543.5,148.5 543.5,148.5 
		543.5,148.5 543.5,148.5 543.5,148.5 543.5,148.5 543.5,148.5 543.5,148.5 543.5,148.5 543.5,147.5 543.5,147.5 543.5,147.5 
		543.5,147.5 544.5,147.5 544.5,147.5 544.5,147.5 544.5,147.5 544.5,147.5 544.5,147.5 544.5,147.5 544.5,147.5 544.5,147.5 
		544.5,146.5 544.5,146.5 544.5,146.5 544.5,146.5 545.5,146.5 545.5,146.5 545.5,146.5 545.5,146.5 545.5,145.5 545.5,145.5 
		545.5,145.5 545.5,145.5 545.5,145.5 545.5,145.5 545.5,145.5 545.5,145.5 545.5,145.5 546.5,145.5 546.5,145.5 546.5,145.5 
		546.5,145.5 546.5,145.5 546.5,145.5 546.5,145.5 546.5,145.5 546.5,144.5 546.5,144.5 546.5,144.5 546.5,144.5 546.5,144.5 
		547.5,144.5 547.5,143.5 547.5,143.5 547.5,143.5 547.5,143.5 547.5,143.5 547.5,143.5 547.5,143.5 547.5,143.5 547.5,142.5 
		547.5,142.5 547.5,142.5 547.5,142.5 548.5,141.5 548.5,141.5 548.5,141.5 548.5,141.5 548.5,141.5 548.5,140.5 548.5,140.5 
		548.5,140.5 548.5,140.5 548.5,140.5 548.5,140.5 548.5,140.5 548.5,140.5 549.5,140.5 549.5,140.5 549.5,139.5 549.5,139.5 
		549.5,139.5 549.5,139.5 549.5,138.5 549.5,138.5 549.5,138.5 549.5,138.5 549.5,138.5 549.5,138.5 549.5,137.5 550.5,137.5 
		550.5,137.5 550.5,137.5 550.5,137.5 550.5,136.5 550.5,136.5 550.5,136.5 550.5,136.5 550.5,136.5 550.5,136.5 550.5,136.5 
		550.5,136.5 550.5,136.5 551.5,136.5 551.5,136.5 551.5,136.5 551.5,136.5 551.5,136.5 551.5,136.5 551.5,136.5 551.5,136.5 
		551.5,137.5 551.5,137.5 551.5,137.5 551.5,137.5 551.5,137.5 552.5,137.5 552.5,137.5 552.5,137.5 552.5,137.5 552.5,137.5 
		552.5,137.5 552.5,137.5 552.5,137.5 552.5,137.5 552.5,137.5 552.5,137.5 552.5,137.5 552.5,137.5 553.5,137.5 553.5,137.5 
		553.5,137.5 553.5,138.5 553.5,138.5 553.5,138.5 553.5,138.5 553.5,138.5 553.5,139.5 553.5,139.5 553.5,139.5 553.5,140.5 
		553.5,140.5 554.5,140.5 554.5,141.5 554.5,141.5 554.5,141.5 554.5,141.5 554.5,141.5 554.5,141.5 554.5,142.5 554.5,142.5 
		554.5,142.5 554.5,142.5 554.5,142.5 554.5,142.5 554.5,143.5 555.5,143.5 555.5,143.5 555.5,143.5 555.5,143.5 555.5,143.5 
		555.5,144.5 555.5,144.5 555.5,144.5 555.5,144.5 555.5,144.5 555.5,144.5 555.5,145.5 555.5,144.5 556.5,144.5 556.5,144.5 
		556.5,144.5 556.5,144.5 556.5,144.5 556.5,143.5 556.5,143.5 556.5,143.5 556.5,143.5 556.5,143.5 556.5,143.5 556.5,143.5 
		556.5,143.5 557.5,143.5 557.5,143.5 557.5,143.5 557.5,143.5 557.5,143.5 557.5,143.5 557.5,143.5 557.5,143.5 557.5,143.5 
		557.5,143.5 557.5,143.5 557.5,143.5 557.5,143.5 558.5,143.5 558.5,142.5 558.5,142.5 558.5,142.5 558.5,142.5 558.5,142.5 
		558.5,142.5 558.5,142.5 558.5,142.5 558.5,142.5 558.5,142.5 558.5,142.5 558.5,142.5 559.5,142.5 559.5,142.5 559.5,142.5 
		559.5,142.5 559.5,141.5 559.5,141.5 559.5,141.5 559.5,141.5 559.5,141.5 559.5,141.5 559.5,140.5 559.5,140.5 559.5,140.5 
		560.5,140.5 560.5,139.5 560.5,139.5 560.5,140.5 560.5,140.5 560.5,140.5 560.5,140.5 560.5,141.5 560.5,141.5 560.5,141.5 
		560.5,141.5 560.5,141.5 560.5,141.5 561.5,142.5 561.5,142.5 561.5,141.5 561.5,141.5 561.5,141.5 561.5,141.5 561.5,140.5 
		561.5,140.5 561.5,139.5 561.5,139.5 561.5,138.5 561.5,137.5 561.5,136.5 562.5,136.5 562.5,135.5 562.5,135.5 562.5,135.5 
		562.5,134.5 562.5,134.5 562.5,134.5 562.5,134.5 562.5,134.5 562.5,134.5 562.5,134.5 562.5,134.5 562.5,134.5 563.5,134.5 
		563.5,134.5 563.5,134.5 563.5,134.5 563.5,134.5 563.5,134.5 563.5,134.5 563.5,134.5 563.5,133.5 563.5,133.5 563.5,133.5 
		563.5,133.5 563.5,133.5 564.5,133.5 564.5,133.5 564.5,133.5 564.5,133.5 564.5,133.5 564.5,133.5 564.5,133.5 564.5,134.5 
		564.5,134.5 564.5,134.5 564.5,134.5 564.5,134.5 564.5,134.5 565.5,135.5 565.5,135.5 565.5,135.5 565.5,135.5 565.5,135.5 
		565.5,135.5 565.5,136.5 565.5,136.5 565.5,136.5 565.5,136.5 565.5,136.5 565.5,137.5 565.5,137.5 566.5,137.5 566.5,137.5 
		566.5,137.5 566.5,138.5 566.5,138.5 566.5,138.5 566.5,138.5 566.5,138.5 566.5,138.5 566.5,138.5 566.5,138.5 566.5,139.5 
		566.5,139.5 567.5,139.5 567.5,139.5 567.5,140.5 567.5,140.5 567.5,141.5 567.5,141.5 567.5,142.5 567.5,142.5 567.5,143.5 
		567.5,143.5 567.5,143.5 567.5,143.5 567.5,144.5 568.5,144.5 568.5,144.5 568.5,144.5 568.5,144.5 568.5,144.5 568.5,145.5 
		568.5,145.5 568.5,145.5 568.5,145.5 568.5,145.5 568.5,145.5 568.5,146.5 568.5,146.5 569.5,146.5 569.5,146.5 569.5,146.5 
		569.5,147.5 569.5,147.5 569.5,147.5 569.5,146.5 569.5,146.5 569.5,146.5 569.5,146.5 569.5,146.5 569.5,146.5 569.5,146.5 
		570.5,146.5 570.5,146.5 570.5,146.5 570.5,146.5 570.5,146.5 570.5,146.5 570.5,145.5 570.5,145.5 570.5,144.5 570.5,144.5 
		570.5,144.5 570.5,144.5 570.5,144.5 571.5,144.5 571.5,144.5 571.5,144.5 571.5,144.5 571.5,144.5 571.5,144.5 571.5,144.5 
		571.5,144.5 571.5,144.5 571.5,144.5 571.5,144.5 571.5,145.5 571.5,145.5 572.5,145.5 572.5,145.5 572.5,146.5 572.5,145.5 
		572.5,145.5 572.5,145.5 572.5,145.5 572.5,145.5 572.5,145.5 572.5,145.5 572.5,145.5 572.5,144.5 572.5,144.5 573.5,144.5 
		573.5,143.5 573.5,143.5 573.5,143.5 573.5,142.5 573.5,142.5 573.5,141.5 573.5,141.5 573.5,141.5 573.5,141.5 573.5,141.5 
		573.5,140.5 573.5,140.5 574.5,140.5 574.5,140.5 574.5,139.5 574.5,139.5 574.5,139.5 574.5,139.5 574.5,139.5 574.5,138.5 
		574.5,138.5 574.5,138.5 574.5,138.5 574.5,138.5 574.5,138.5 575.5,138.5 575.5,138.5 575.5,138.5 575.5,138.5 575.5,138.5 
		575.5,138.5 575.5,138.5 575.5,138.5 575.5,138.5 575.5,138.5 575.5,138.5 575.5,138.5 575.5,138.5 576.5,139.5 576.5,139.5 
		576.5,140.5 576.5,140.5 576.5,141.5 576.5,142.5 576.5,142.5 576.5,142.5 576.5,143.5 576.5,143.5 576.5,143.5 576.5,143.5 
		576.5,143.5 577.5,143.5 577.5,143.5 577.5,143.5 577.5,143.5 577.5,143.5 577.5,142.5 577.5,142.5 577.5,142.5 577.5,141.5 
		577.5,141.5 577.5,141.5 577.5,140.5 577.5,140.5 578.5,140.5 578.5,140.5 578.5,140.5 578.5,140.5 578.5,140.5 578.5,139.5 
		578.5,139.5 578.5,139.5 578.5,139.5 578.5,139.5 578.5,139.5 578.5,139.5 578.5,139.5 579.5,139.5 579.5,140.5 579.5,140.5 
		579.5,140.5 579.5,140.5 579.5,140.5 579.5,140.5 579.5,140.5 579.5,140.5 579.5,140.5 579.5,140.5 579.5,140.5 579.5,140.5 
		580.5,141.5 580.5,141.5 580.5,141.5 580.5,141.5 580.5,141.5 580.5,141.5 580.5,141.5 580.5,141.5 580.5,141.5 580.5,141.5 
		580.5,141.5 580.5,141.5 580.5,140.5 581.5,140.5 581.5,140.5 581.5,140.5 581.5,140.5 581.5,140.5 581.5,140.5 581.5,140.5 
		581.5,140.5 581.5,139.5 581.5,139.5 581.5,139.5 581.5,139.5 581.5,139.5 582.5,139.5 582.5,138.5 582.5,138.5 582.5,138.5 
		582.5,137.5 582.5,137.5 582.5,137.5 582.5,136.5 582.5,136.5 582.5,136.5 582.5,135.5 582.5,135.5 582.5,135.5 583.5,134.5 
		583.5,134.5 583.5,134.5 583.5,134.5 583.5,134.5 583.5,133.5 583.5,133.5 583.5,133.5 583.5,133.5 583.5,133.5 583.5,133.5 
		583.5,133.5 583.5,133.5 584.5,133.5 584.5,132.5 584.5,132.5 584.5,132.5 584.5,132.5 584.5,132.5 584.5,132.5 584.5,132.5 
		584.5,131.5 584.5,131.5 584.5,131.5 584.5,131.5 584.5,130.5 585.5,130.5 585.5,130.5 585.5,129.5 585.5,129.5 585.5,128.5 
		585.5,128.5 585.5,127.5 585.5,127.5 585.5,127.5 585.5,126.5 585.5,126.5 585.5,125.5 585.5,125.5 586.5,124.5 586.5,124.5 
		586.5,123.5 586.5,123.5 586.5,123.5 586.5,123.5 586.5,123.5 586.5,124.5 586.5,124.5 586.5,124.5 586.5,125.5 586.5,125.5 
		586.5,125.5 587.5,125.5 587.5,125.5 587.5,125.5 587.5,126.5 587.5,126.5 587.5,126.5 587.5,126.5 587.5,126.5 587.5,127.5 
		587.5,127.5 587.5,127.5 587.5,127.5 587.5,128.5 588.5,128.5 588.5,128.5 588.5,128.5 588.5,129.5 588.5,129.5 588.5,129.5 
		588.5,129.5 588.5,130.5 588.5,130.5 588.5,130.5 588.5,130.5 588.5,130.5 588.5,131.5 589.5,131.5 589.5,131.5 589.5,132.5 
		589.5,132.5 589.5,132.5 589.5,133.5 589.5,133.5 589.5,133.5 589.5,133.5 589.5,134.5 589.5,134.5 589.5,135.5 589.5,135.5 
		590.5,135.5 590.5,135.5 590.5,135.5 590.5,135.5 590.5,135.5 590.5,135.5 590.5,136.5 590.5,136.5 590.5,136.5 590.5,137.5 
		590.5,137.5 590.5,137.5 590.5,138.5 591.5,138.5 591.5,138.5 591.5,138.5 591.5,138.5 591.5,138.5 591.5,138.5 591.5,138.5 
		591.5,138.5 591.5,138.5 591.5,139.5 591.5,139.5 591.5,140.5 591.5,140.5 592.5,140.5 592.5,140.5 592.5,140.5 592.5,140.5 
		592.5,140.5 592.5,140.5 592.5,140.5 592.5,140.5 592.5,140.5 592.5,140.5 592.5,140.5 592.5,140.5 592.5,140.5 593.5,140.5 
		593.5,140.5 593.5,140.5 593.5,140.5 593.5,139.5 593.5,140.5 593.5,140.5 593.5,140.5 593.5,140.5 593.5,140.5 593.5,140.5 
		593.5,140.5 593.5,140.5 594.5,141.5 594.5,141.5 594.5,141.5 594.5,141.5 594.5,141.5 594.5,141.5 594.5,141.5 594.5,141.5 
		594.5,141.5 594.5,142.5 594.5,142.5 594.5,142.5 594.5,142.5 595.5,142.5 595.5,142.5 595.5,142.5 595.5,142.5 595.5,142.5 
		595.5,142.5 595.5,143.5 595.5,143.5 595.5,143.5 595.5,143.5 595.5,143.5 595.5,143.5 595.5,143.5 596.5,143.5 596.5,143.5 
		596.5,143.5 596.5,143.5 596.5,143.5 596.5,143.5 596.5,143.5 596.5,143.5 596.5,143.5 596.5,143.5 596.5,143.5 596.5,143.5 
		596.5,143.5 597.5,143.5 597.5,143.5 597.5,143.5 597.5,143.5 597.5,143.5 597.5,143.5 597.5,143.5 597.5,143.5 597.5,143.5 
		597.5,143.5 597.5,143.5 597.5,143.5 597.5,143.5 598.5,143.5 598.5,143.5 598.5,143.5 598.5,143.5 598.5,143.5 598.5,143.5 
		598.5,143.5 598.5,143.5 598.5,143.5 598.5,143.5 598.5,143.5 598.5,143.5 598.5,143.5 599.5,143.5 599.5,143.5 599.5,143.5 
		599.5,143.5 599.5,143.5 599.5,143.5 599.5,143.5 599.5,144.5 599.5,144.5 599.5,144.5 599.5,144.5 599.5,144.5 599.5,144.5 
		600.5,144.5 600.5,144.5 600.5,144.5 600.5,144.5 600.5,144.5 600.5,145.5 600.5,145.5 600.5,145.5 600.5,145.5 600.5,145.5 
		600.5,145.5 600.5,145.5 600.5,145.5 601.5,145.5 601.5,145.5 601.5,145.5 601.5,145.5 601.5,145.5 601.5,145.5 601.5,145.5 
		601.5,145.5 601.5,145.5 601.5,145.5 601.5,145.5 601.5,145.5 601.5,145.5 602.5,145.5 602.5,145.5 602.5,145.5 602.5,145.5 
		602.5,146.5 602.5,146.5 602.5,146.5 602.5,146.5 602.5,146.5 602.5,146.5 602.5,147.5 602.5,147.5 602.5,147.5 603.5,147.5 
		603.5,147.5 603.5,147.5 603.5,147.5 603.5,147.5 603.5,147.5 603.5,147.5 603.5,147.5 603.5,147.5 603.5,147.5 603.5,147.5 
		603.5,148.5 603.5,148.5 604.5,148.5 604.5,148.5 604.5,148.5 604.5,148.5 604.5,148.5 604.5,148.5 604.5,148.5 604.5,148.5 
		604.5,148.5 604.5,149.5 604.5,149.5 604.5,149.5 604.5,149.5 605.5,149.5 605.5,149.5 605.5,149.5 605.5,149.5 605.5,149.5 
		605.5,149.5 605.5,149.5 605.5,149.5 605.5,149.5 605.5,149.5 605.5,149.5 605.5,149.5 605.5,149.5 606.5,149.5 606.5,149.5 
		606.5,149.5 606.5,149.5 606.5,149.5 606.5,149.5 606.5,149.5 606.5,149.5 606.5,149.5 606.5,149.5 606.5,149.5 606.5,149.5 
		606.5,149.5 607.5,149.5 607.5,149.5 607.5,150.5 607.5,150.5 607.5,150.5 607.5,150.5 607.5,150.5 607.5,150.5 607.5,150.5 
		607.5,150.5 607.5,151.5 607.5,151.5 607.5,151.5 608.5,151.5 608.5,152.5 608.5,152.5 608.5,152.5 608.5,152.5 608.5,153.5 
		608.5,153.5 608.5,153.5 608.5,153.5 608.5,154.5 608.5,154.5 608.5,154.5 608.5,154.5 609.5,154.5 609.5,154.5 609.5,155.5 
		609.5,155.5 609.5,155.5 609.5,155.5 609.5,155.5 609.5,156.5 609.5,156.5 609.5,156.5 609.5,155.5 609.5,155.5 609.5,155.5 
		610.5,154.5 610.5,154.5 610.5,154.5 610.5,154.5 610.5,154.5 610.5,154.5 610.5,154.5 610.5,154.5 610.5,154.5 610.5,154.5 
		610.5,154.5 610.5,154.5 610.5,154.5 611.5,154.5 611.5,154.5 611.5,154.5 611.5,154.5 611.5,154.5 611.5,154.5 611.5,154.5 
		611.5,154.5 611.5,154.5 611.5,154.5 611.5,154.5 611.5,154.5 611.5,154.5 612.5,154.5 612.5,154.5 612.5,154.5 612.5,154.5 
		612.5,154.5 612.5,154.5 612.5,154.5 612.5,154.5 612.5,154.5 612.5,154.5 612.5,154.5 612.5,154.5 612.5,154.5 613.5,153.5 
		613.5,153.5 613.5,153.5 613.5,153.5 613.5,153.5 613.5,153.5 613.5,153.5 613.5,153.5 613.5,153.5 613.5,153.5 613.5,153.5 
		613.5,153.5 613.5,153.5 614.5,153.5 614.5,153.5 614.5,153.5 614.5,153.5 614.5,153.5 614.5,153.5 614.5,154.5 614.5,154.5 
		614.5,154.5 614.5,154.5 614.5,153.5 614.5,153.5 614.5,153.5 615.5,153.5 615.5,153.5 615.5,153.5 615.5,153.5 615.5,153.5 
		615.5,153.5 615.5,152.5 615.5,152.5 615.5,152.5 615.5,152.5 615.5,152.5 615.5,152.5 615.5,152.5 616.5,152.5 616.5,151.5 
		616.5,151.5 616.5,151.5 616.5,151.5 616.5,151.5 616.5,151.5 616.5,150.5 616.5,150.5 616.5,150.5 616.5,150.5 616.5,150.5 
		616.5,150.5 617.5,150.5 617.5,149.5 617.5,149.5 617.5,149.5 617.5,149.5 617.5,149.5 617.5,149.5 617.5,148.5 617.5,148.5 
		617.5,148.5 617.5,148.5 617.5,148.5 617.5,148.5 618.5,148.5 618.5,147.5 618.5,147.5 618.5,147.5 618.5,147.5 618.5,147.5 
		618.5,147.5 618.5,147.5 618.5,147.5 618.5,147.5 618.5,147.5 618.5,147.5 618.5,147.5 619.5,147.5 619.5,147.5 619.5,146.5 
		619.5,146.5 619.5,146.5 619.5,146.5 619.5,146.5 619.5,146.5 619.5,146.5 619.5,146.5 619.5,146.5 619.5,146.5 619.5,146.5 
		620.5,145.5 620.5,145.5 620.5,145.5 620.5,145.5 620.5,145.5 620.5,145.5 620.5,145.5 620.5,145.5 620.5,145.5 620.5,145.5 
		620.5,145.5 620.5,144.5 620.5,144.5 621.5,144.5 621.5,144.5 621.5,144.5 621.5,144.5 621.5,143.5 621.5,143.5 621.5,143.5 
		621.5,142.5 621.5,142.5 621.5,142.5 621.5,141.5 621.5,141.5 621.5,140.5 622.5,140.5 622.5,140.5 622.5,140.5 622.5,140.5 
		622.5,139.5 622.5,139.5 622.5,139.5 622.5,139.5 622.5,139.5 622.5,139.5 622.5,139.5 622.5,139.5 622.5,139.5 623.5,139.5 
		623.5,139.5 623.5,140.5 623.5,140.5 623.5,140.5 623.5,140.5 623.5,141.5 623.5,141.5 623.5,141.5 623.5,141.5 623.5,142.5 
		623.5,142.5 623.5,142.5 624.5,143.5 624.5,143.5 624.5,143.5 624.5,143.5 624.5,144.5 624.5,144.5 624.5,144.5 624.5,144.5 
		624.5,145.5 624.5,145.5 624.5,146.5 624.5,146.5 624.5,146.5 625.5,147.5 625.5,147.5 625.5,147.5 625.5,147.5 625.5,147.5 
		625.5,147.5 625.5,147.5 625.5,147.5 625.5,148.5 625.5,148.5 625.5,148.5 625.5,148.5 625.5,148.5 626.5,148.5 626.5,148.5 
		626.5,148.5 626.5,148.5 626.5,148.5 626.5,148.5 626.5,147.5 626.5,147.5 626.5,147.5 626.5,147.5 626.5,147.5 626.5,147.5 
		626.5,147.5 627.5,147.5 627.5,146.5 627.5,146.5 627.5,146.5 627.5,146.5 627.5,146.5 627.5,146.5 627.5,146.5 627.5,145.5 
		627.5,145.5 627.5,145.5 627.5,145.5 627.5,145.5 628.5,145.5 628.5,145.5 628.5,145.5 628.5,145.5 628.5,145.5 628.5,145.5 
		628.5,145.5 628.5,145.5 628.5,144.5 628.5,144.5 628.5,144.5 628.5,144.5 628.5,143.5 628.5,143.5 629.5,143.5 629.5,143.5 
		629.5,143.5 629.5,142.5 629.5,142.5 629.5,142.5 629.5,142.5 629.5,142.5 629.5,142.5 629.5,142.5 629.5,142.5 629.5,141.5 
		629.5,141.5 630.5,141.5 630.5,141.5 630.5,141.5 630.5,141.5 630.5,141.5 630.5,141.5 630.5,141.5 630.5,141.5 630.5,141.5 
		630.5,141.5 630.5,141.5 630.5,141.5 630.5,141.5 631.5,141.5 631.5,141.5 631.5,141.5 631.5,141.5 631.5,141.5 631.5,142.5 
		631.5,142.5 631.5,142.5 631.5,142.5 631.5,143.5 631.5,143.5 631.5,143.5 631.5,143.5 632.5,143.5 632.5,143.5 632.5,144.5 
		632.5,144.5 632.5,144.5 632.5,144.5 632.5,144.5 632.5,145.5 632.5,145.5 632.5,145.5 632.5,145.5 632.5,145.5 632.5,146.5 
		633.5,146.5 633.5,146.5 633.5,146.5 633.5,146.5 633.5,147.5 633.5,147.5 633.5,147.5 633.5,147.5 633.5,147.5 633.5,147.5 
		633.5,148.5 633.5,148.5 633.5,148.5 634.5,148.5 634.5,148.5 634.5,148.5 634.5,148.5 634.5,149.5 634.5,149.5 634.5,149.5 
		634.5,149.5 634.5,149.5 634.5,149.5 634.5,149.5 634.5,150.5 634.5,150.5 635.5,150.5 635.5,150.5 635.5,150.5 635.5,150.5 
		635.5,150.5 635.5,150.5 635.5,150.5 635.5,150.5 635.5,150.5 635.5,150.5 635.5,150.5 635.5,150.5 635.5,150.5 636.5,150.5 
		636.5,150.5 636.5,150.5 636.5,151.5 636.5,151.5 636.5,151.5 636.5,151.5 636.5,151.5 636.5,151.5 636.5,151.5 636.5,151.5 
		636.5,151.5 636.5,151.5 637.5,151.5 637.5,151.5 637.5,151.5 637.5,151.5 637.5,151.5 637.5,151.5 637.5,151.5 637.5,151.5 
		637.5,151.5 637.5,151.5 637.5,152.5 637.5,152.5 637.5,152.5 638.5,152.5 638.5,152.5 638.5,152.5 638.5,152.5 638.5,151.5 
		638.5,151.5 638.5,151.5 638.5,151.5 638.5,151.5 638.5,151.5 638.5,151.5 638.5,151.5 638.5,151.5 639.5,151.5 639.5,150.5 
		639.5,150.5 639.5,150.5 639.5,150.5 639.5,150.5 639.5,150.5 639.5,150.5 639.5,150.5 639.5,150.5 639.5,150.5 639.5,150.5 
		639.5,150.5 640.5,150.5 640.5,150.5 640.5,149.5 640.5,149.5 640.5,149.5 640.5,149.5 640.5,149.5 640.5,149.5 640.5,149.5 
		640.5,149.5 640.5,149.5 640.5,149.5 640.5,149.5 641.5,149.5 641.5,149.5 641.5,149.5 641.5,149.5 641.5,149.5 641.5,149.5 
		641.5,149.5 641.5,148.5 641.5,148.5 641.5,148.5 641.5,148.5 641.5,148.5 641.5,148.5 642.5,148.5 642.5,148.5 642.5,147.5 
		642.5,147.5 642.5,147.5 642.5,147.5 642.5,147.5 642.5,146.5 642.5,146.5 642.5,146.5 642.5,146.5 642.5,146.5 642.5,146.5 
		643.5,146.5 643.5,145.5 643.5,145.5 643.5,145.5 643.5,145.5 643.5,144.5 643.5,144.5 643.5,144.5 643.5,144.5 643.5,144.5 
		643.5,144.5 643.5,144.5 643.5,143.5 644.5,143.5 644.5,143.5 644.5,143.5 644.5,143.5 644.5,143.5 644.5,143.5 644.5,143.5 
		644.5,143.5 644.5,142.5 644.5,142.5 644.5,142.5 644.5,142.5 644.5,142.5 645.5,142.5 645.5,142.5 645.5,142.5 645.5,142.5 
		645.5,142.5 645.5,141.5 645.5,141.5 645.5,141.5 645.5,140.5 645.5,140.5 645.5,140.5 645.5,140.5 645.5,140.5 646.5,139.5 
		646.5,139.5 646.5,139.5 646.5,139.5 646.5,139.5 646.5,139.5 646.5,139.5 646.5,139.5 646.5,139.5 646.5,139.5 646.5,139.5 
		646.5,139.5 646.5,139.5 647.5,139.5 647.5,139.5 647.5,139.5 647.5,140.5 647.5,140.5 647.5,140.5 647.5,140.5 647.5,140.5 
		647.5,140.5 647.5,140.5 647.5,140.5 647.5,140.5 647.5,140.5 648.5,140.5 648.5,139.5 648.5,139.5 648.5,139.5 648.5,139.5 
		648.5,139.5 648.5,139.5 648.5,138.5 648.5,138.5 648.5,138.5 648.5,138.5 648.5,138.5 648.5,138.5 649.5,138.5 649.5,138.5 
		649.5,138.5 649.5,139.5 649.5,139.5 649.5,139.5 649.5,139.5 649.5,139.5 649.5,139.5 649.5,139.5 649.5,139.5 649.5,139.5 
		649.5,139.5 650.5,139.5 650.5,139.5 650.5,139.5 650.5,139.5 650.5,139.5 650.5,139.5 650.5,139.5 650.5,139.5 650.5,139.5 
		650.5,140.5 650.5,140.5 650.5,140.5 650.5,140.5 651.5,140.5 651.5,140.5 651.5,141.5 651.5,141.5 651.5,141.5 651.5,141.5 
		651.5,141.5 651.5,141.5 651.5,141.5 651.5,141.5 651.5,142.5 651.5,142.5 651.5,142.5 652.5,142.5 652.5,142.5 652.5,142.5 
		652.5,142.5 652.5,142.5 652.5,142.5 652.5,142.5 652.5,142.5 652.5,142.5 652.5,141.5 652.5,141.5 652.5,141.5 652.5,141.5 
		653.5,141.5 653.5,141.5 653.5,141.5 653.5,141.5 653.5,140.5 653.5,140.5 653.5,140.5 653.5,140.5 653.5,140.5 653.5,140.5 
		653.5,139.5 653.5,139.5 653.5,139.5 654.5,139.5 654.5,138.5 654.5,138.5 654.5,138.5 654.5,138.5 654.5,137.5 654.5,137.5 
		654.5,136.5 654.5,136.5 654.5,136.5 654.5,136.5 654.5,135.5 654.5,135.5 655.5,135.5 655.5,135.5 655.5,135.5 655.5,135.5 
		655.5,135.5 655.5,135.5 655.5,135.5 655.5,135.5 655.5,135.5 655.5,135.5 655.5,135.5 655.5,135.5 655.5,135.5 656.5,135.5 
		656.5,135.5 656.5,135.5 656.5,135.5 656.5,135.5 656.5,135.5 656.5,136.5 656.5,136.5 656.5,136.5 656.5,136.5 656.5,137.5 
		656.5,137.5 656.5,137.5 657.5,137.5 657.5,137.5 657.5,137.5 657.5,138.5 657.5,139.5 657.5,139.5 657.5,140.5 657.5,139.5 
		657.5,138.5 657.5,137.5 657.5,136.5 657.5,136.5 657.5,136.5 658.5,136.5 658.5,136.5 658.5,137.5 658.5,137.5 658.5,137.5 
		658.5,137.5 658.5,137.5 658.5,137.5 658.5,137.5 658.5,137.5 658.5,137.5 658.5,138.5 658.5,138.5 659.5,138.5 659.5,138.5 
		659.5,138.5 659.5,138.5 659.5,138.5 659.5,139.5 659.5,139.5 659.5,139.5 659.5,139.5 659.5,139.5 659.5,139.5 659.5,139.5 
		659.5,139.5 660.5,139.5 660.5,139.5 660.5,139.5 660.5,139.5 660.5,139.5 660.5,140.5 660.5,140.5 660.5,140.5 660.5,140.5 
		660.5,140.5 660.5,140.5 660.5,140.5 660.5,140.5 661.5,140.5 661.5,140.5 661.5,140.5 661.5,140.5 661.5,139.5 661.5,139.5 
		661.5,139.5 661.5,139.5 661.5,139.5 661.5,139.5 661.5,138.5 661.5,138.5 661.5,138.5 662.5,138.5 662.5,138.5 662.5,138.5 
		662.5,137.5 662.5,137.5 662.5,137.5 662.5,137.5 662.5,137.5 662.5,137.5 662.5,137.5 662.5,137.5 662.5,136.5 662.5,136.5 
		663.5,136.5 663.5,136.5 663.5,136.5 663.5,136.5 663.5,136.5 663.5,136.5 663.5,136.5 663.5,136.5 663.5,136.5 663.5,136.5 
		663.5,136.5 663.5,136.5 663.5,137.5 664.5,137.5 664.5,137.5 664.5,137.5 664.5,137.5 664.5,136.5 664.5,136.5 664.5,136.5 
		664.5,136.5 664.5,136.5 664.5,135.5 664.5,135.5 664.5,135.5 664.5,135.5 665.5,135.5 665.5,135.5 665.5,134.5 665.5,134.5 
		665.5,134.5 665.5,134.5 665.5,134.5 665.5,133.5 665.5,133.5 665.5,133.5 665.5,133.5 665.5,133.5 665.5,133.5 666.5,133.5 
		666.5,133.5 666.5,133.5 666.5,133.5 666.5,133.5 666.5,133.5 666.5,133.5 666.5,133.5 666.5,134.5 666.5,134.5 666.5,134.5 
		666.5,134.5 666.5,134.5 667.5,134.5 667.5,134.5 667.5,134.5 667.5,134.5 667.5,134.5 667.5,134.5 667.5,135.5 667.5,135.5 
		667.5,135.5 667.5,135.5 667.5,135.5 667.5,135.5 667.5,135.5 668.5,135.5 668.5,136.5 668.5,136.5 668.5,136.5 668.5,136.5 
		668.5,136.5 668.5,136.5 668.5,136.5 668.5,136.5 668.5,136.5 668.5,136.5 668.5,136.5 668.5,136.5 669.5,136.5 669.5,136.5 
		669.5,135.5 669.5,135.5 669.5,136.5 669.5,136.5 669.5,136.5 669.5,136.5 669.5,136.5 669.5,136.5 669.5,136.5 669.5,136.5 
		669.5,136.5 670.5,136.5 670.5,136.5 670.5,135.5 670.5,135.5 670.5,135.5 670.5,135.5 670.5,135.5 670.5,135.5 670.5,135.5 
		670.5,135.5 670.5,135.5 670.5,135.5 670.5,135.5 671.5,135.5 671.5,135.5 671.5,136.5 671.5,136.5 671.5,136.5 671.5,136.5 
		671.5,136.5 671.5,136.5 671.5,136.5 671.5,136.5 671.5,136.5 671.5,136.5 671.5,137.5 672.5,137.5 672.5,137.5 672.5,137.5 
		672.5,137.5 672.5,137.5 672.5,136.5 672.5,136.5 672.5,136.5 672.5,136.5 672.5,136.5 672.5,136.5 672.5,136.5 672.5,135.5 
		673.5,135.5 673.5,135.5 673.5,135.5 673.5,135.5 673.5,135.5 673.5,135.5 673.5,135.5 673.5,135.5 673.5,135.5 673.5,135.5 
		673.5,135.5 673.5,134.5 673.5,134.5 674.5,134.5 674.5,134.5 674.5,133.5 674.5,133.5 674.5,133.5 674.5,133.5 674.5,133.5 
		674.5,133.5 674.5,133.5 674.5,133.5 674.5,133.5 674.5,133.5 674.5,133.5 675.5,133.5 675.5,133.5 675.5,133.5 675.5,133.5 
		675.5,133.5 675.5,132.5 675.5,132.5 675.5,132.5 675.5,132.5 675.5,132.5 675.5,131.5 675.5,131.5 675.5,131.5 676.5,131.5 
		676.5,131.5 676.5,131.5 676.5,130.5 676.5,130.5 676.5,130.5 676.5,130.5 676.5,129.5 676.5,129.5 676.5,129.5 676.5,129.5 
		676.5,129.5 676.5,128.5 677.5,128.5 677.5,128.5 677.5,128.5 677.5,128.5 677.5,127.5 677.5,127.5 677.5,127.5 677.5,127.5 
		677.5,127.5 677.5,127.5 677.5,127.5 677.5,127.5 677.5,127.5 678.5,126.5 678.5,126.5 678.5,126.5 678.5,126.5 678.5,126.5 
		678.5,126.5 678.5,126.5 678.5,126.5 678.5,125.5 678.5,125.5 678.5,125.5 678.5,125.5 678.5,125.5 679.5,125.5 679.5,125.5 
		679.5,125.5 679.5,125.5 679.5,125.5 679.5,125.5 679.5,124.5 679.5,124.5 679.5,124.5 679.5,124.5 679.5,124.5 679.5,124.5 
		679.5,124.5 680.5,124.5 680.5,123.5 680.5,123.5 680.5,123.5 680.5,123.5 680.5,123.5 680.5,122.5 680.5,122.5 680.5,122.5 
		680.5,122.5 680.5,121.5 680.5,121.5 680.5,121.5 681.5,121.5 681.5,120.5 681.5,120.5 681.5,120.5 681.5,120.5 681.5,120.5 
		681.5,119.5 681.5,119.5 681.5,119.5 681.5,119.5 681.5,118.5 681.5,118.5 681.5,118.5 682.5,118.5 682.5,118.5 682.5,117.5 
		682.5,117.5 682.5,117.5 682.5,117.5 682.5,117.5 682.5,117.5 682.5,117.5 682.5,117.5 682.5,117.5 682.5,117.5 682.5,117.5 
		683.5,117.5 683.5,117.5 683.5,117.5 683.5,117.5 683.5,117.5 683.5,117.5 683.5,117.5 683.5,117.5 683.5,117.5 683.5,117.5 
		683.5,118.5 683.5,118.5 683.5,118.5 684.5,118.5 684.5,119.5 684.5,119.5 684.5,119.5 684.5,119.5 684.5,120.5 684.5,120.5 
		684.5,120.5 684.5,120.5 684.5,121.5 684.5,121.5 684.5,121.5 684.5,121.5 685.5,122.5 685.5,122.5 685.5,122.5 685.5,122.5 
		685.5,122.5 685.5,122.5 685.5,122.5 685.5,122.5 685.5,122.5 685.5,122.5 685.5,123.5 685.5,123.5 685.5,123.5 686.5,123.5 
		686.5,123.5 686.5,123.5 686.5,123.5 686.5,123.5 686.5,123.5 686.5,123.5 686.5,123.5 686.5,123.5 686.5,123.5 686.5,123.5 
		686.5,123.5 686.5,123.5 687.5,123.5 687.5,123.5 687.5,123.5 687.5,123.5 687.5,123.5 687.5,123.5 687.5,123.5 687.5,123.5 
		687.5,123.5 687.5,123.5 687.5,123.5 687.5,123.5 687.5,123.5 688.5,123.5 688.5,123.5 688.5,123.5 688.5,123.5 688.5,123.5 
		688.5,124.5 688.5,124.5 688.5,124.5 688.5,124.5 688.5,124.5 688.5,125.5 688.5,125.5 688.5,125.5 689.5,125.5 689.5,125.5 
		689.5,125.5 689.5,126.5 689.5,126.5 689.5,126.5 689.5,126.5 689.5,126.5 689.5,126.5 689.5,127.5 689.5,127.5 689.5,127.5 
		689.5,127.5 690.5,128.5 690.5,128.5 690.5,128.5 690.5,129.5 690.5,129.5 690.5,130.5 690.5,130.5 690.5,130.5 690.5,130.5 
		690.5,130.5 690.5,131.5 690.5,131.5 690.5,131.5 691.5,131.5 691.5,131.5 691.5,131.5 691.5,131.5 691.5,131.5 691.5,131.5 
		691.5,131.5 691.5,131.5 691.5,131.5 691.5,131.5 691.5,131.5 691.5,131.5 691.5,131.5 692.5,131.5 692.5,130.5 692.5,130.5 
		692.5,130.5 692.5,130.5 692.5,130.5 692.5,130.5 692.5,130.5 692.5,130.5 692.5,130.5 692.5,130.5 692.5,130.5 692.5,130.5 
		693.5,130.5 693.5,130.5 693.5,130.5 693.5,130.5 693.5,131.5 693.5,131.5 693.5,131.5 693.5,131.5 693.5,131.5 693.5,132.5 
		693.5,132.5 693.5,132.5 693.5,132.5 694.5,133.5 694.5,133.5 694.5,133.5 694.5,133.5 694.5,134.5 694.5,134.5 694.5,134.5 
		694.5,134.5 694.5,134.5 694.5,135.5 694.5,135.5 694.5,135.5 694.5,135.5 695.5,135.5 695.5,135.5 695.5,136.5 695.5,136.5 
		695.5,136.5 695.5,137.5 695.5,137.5 695.5,137.5 695.5,137.5 695.5,137.5 695.5,138.5 695.5,138.5 695.5,138.5 696.5,138.5 
		696.5,138.5 696.5,138.5 696.5,139.5 696.5,139.5 696.5,139.5 696.5,139.5 696.5,139.5 696.5,140.5 696.5,140.5 696.5,140.5 
		696.5,140.5 696.5,140.5 697.5,140.5 697.5,141.5 697.5,141.5 697.5,141.5 697.5,141.5 697.5,141.5 697.5,142.5 697.5,142.5 
		697.5,142.5 697.5,142.5 697.5,142.5 697.5,142.5 697.5,142.5 698.5,143.5 698.5,143.5 698.5,143.5 698.5,143.5 698.5,143.5 
		698.5,143.5 698.5,143.5 698.5,144.5 698.5,144.5 698.5,144.5 698.5,144.5 698.5,144.5 698.5,145.5 699.5,145.5 699.5,145.5 
		699.5,145.5 699.5,145.5 699.5,145.5 699.5,145.5 699.5,145.5 699.5,145.5 699.5,144.5 699.5,144.5 699.5,144.5 699.5,144.5 
		699.5,144.5 700.5,144.5 700.5,144.5 700.5,144.5 700.5,144.5 700.5,144.5 700.5,144.5 700.5,144.5 700.5,144.5 700.5,144.5 
		700.5,145.5 700.5,145.5 700.5,146.5 700.5,146.5 701.5,146.5 701.5,147.5 701.5,147.5 701.5,147.5 701.5,148.5 701.5,148.5 
		701.5,149.5 701.5,149.5 701.5,149.5 701.5,150.5 701.5,150.5 701.5,150.5 701.5,150.5 701.5,151.5 702.5,151.5 702.5,151.5 
		702.5,151.5 702.5,151.5 702.5,152.5 702.5,152.5 702.5,152.5 702.5,152.5 702.5,152.5 702.5,152.5 702.5,152.5 702.5,153.5 
		702.5,153.5 703.5,153.5 703.5,153.5 703.5,153.5 703.5,153.5 703.5,153.5 703.5,153.5 703.5,153.5 703.5,153.5 703.5,153.5 
		703.5,153.5 703.5,153.5 703.5,153.5 703.5,153.5 704.5,153.5 704.5,154.5 704.5,154.5 704.5,154.5 704.5,154.5 704.5,154.5 
		704.5,154.5 704.5,155.5 704.5,155.5 704.5,155.5 704.5,155.5 704.5,155.5 704.5,155.5 705.5,155.5 705.5,155.5 705.5,155.5 
		705.5,155.5 705.5,156.5 705.5,156.5 705.5,156.5 705.5,156.5 705.5,156.5 705.5,156.5 705.5,156.5 705.5,156.5 705.5,156.5 
		706.5,157.5 706.5,157.5 706.5,157.5 706.5,157.5 706.5,157.5 706.5,157.5 706.5,158.5 706.5,158.5 706.5,158.5 706.5,158.5 
		706.5,158.5 706.5,158.5 706.5,158.5 707.5,159.5 707.5,159.5 707.5,159.5 707.5,159.5 707.5,158.5 707.5,158.5 707.5,158.5 
		707.5,158.5 707.5,158.5 707.5,158.5 707.5,158.5 707.5,158.5 707.5,158.5 708.5,158.5 708.5,158.5 708.5,158.5 708.5,158.5 
		708.5,158.5 708.5,159.5 708.5,159.5 708.5,159.5 708.5,159.5 708.5,159.5 708.5,159.5 708.5,159.5 708.5,159.5 709.5,159.5 
		709.5,159.5 709.5,159.5 709.5,160.5 709.5,160.5 709.5,160.5 709.5,160.5 709.5,160.5 709.5,160.5 709.5,160.5 709.5,160.5 	"/>
</g>
</svg>
