<?xml version="1.0" encoding="UTF-8" standalone="no"?><svg width="282.222mm" height="141.111mm" xmlns="http://www.w3.org/2000/svg" xmlns:xlink="http://www.w3.org/1999/xlink"  version="1.2" baseProfile="tiny"><g fill="none" stroke="#ff0000" stroke-linecap="round" stroke-linejoin="round" stroke-opacity="1" stroke-width="1.5" transform="matrix(1,0,0,1,0,0)">
<polyline fill="none" points="146,355 146,355 146,355 146,355 146,355 146,355 146,355 146,355 147,355 147,355 147,355 147,355 147,355 147,355 147,355 147,355 147,355 147,355 147,355 147,355 147,355 148,355 148,355 148,355 148,354 148,354 148,354 148,354 148,354 148,354 148,354 148,354 148,354 148,353 149,353 149,353 149,353 149,353 149,353 149,353 149,353 149,353 149,353 149,353 149,352 149,352 149,352 150,352 150,353 150,353 150,353 150,353 150,353 150,353 150,354 150,355 150,356 150,356 150,356 150,356 151,355 151,355 151,355 151,355 151,355 151,354 151,354 151,354 151,354 151,353 151,353 151,353 151,353 152,353 152,353 152,353 152,353 152,353 152,354 152,354 152,353 152,353 152,353 152,353 152,353 152,353 153,353 153,353 153,353 153,353 153,352 153,352 153,352 153,352 153,352 153,352 153,351 153,352 153,352 154,352 154,352 154,352 154,352 154,352 154,351 154,351 154,351 154,350 154,350 154,350 154,350 154,350 155,350 155,350 155,350 155,349 155,349 155,349 155,349 155,349 155,348 155,348 155,348 155,348 155,347 156,347 156,347 156,347 156,346 156,346 156,346 156,346 156,346 156,346 156,346 156,346 156,346 156,346 157,346 157,347 157,346 157,346 157,346 157,346 157,345 157,345 157,345 157,345 157,345 157,345 157,345 158,345 158,344 158,344 158,344 158,344 158,343 158,343 158,343 158,343 158,343 158,342 158,342 158,342 159,342 159,342 159,342 159,342 159,342 159,342 159,342 159,342 159,342 159,342 159,342 159,342 159,342 160,342 160,341 160,341 160,341 160,341 160,340 160,340 160,340 160,340 160,339 160,339 160,339 160,339 161,339 161,339 161,339 161,339 161,339 161,338 161,338 161,338 161,338 161,338 161,338 161,338 161,337 162,337 162,337 162,337 162,336 162,336 162,336 162,336 162,336 162,336 162,335 162,336 162,335 162,335 163,335 163,335 163,335 163,335 163,335 163,335 163,335 163,335 163,335 163,335 163,334 163,334 163,334 164,334 164,334 164,333 164,333 164,333 164,333 164,333 164,333 164,332 164,332 164,332 164,332 164,332 165,332 165,331 165,331 165,331 165,331 165,331 165,331 165,330 165,330 165,330 165,330 165,330 165,329 166,329 166,329 166,329 166,329 166,329 166,329 166,328 166,328 166,328 166,328 166,328 166,328 166,327 167,327 167,327 167,327 167,327 167,327 167,326 167,326 167,326 167,326 167,326 167,326 167,325 167,325 168,325 168,325 168,325 168,324 168,324 168,324 168,324 168,324 168,324 168,323 168,323 168,323 168,323 169,323 169,323 169,322 169,322 169,322 169,322 169,322 169,322 169,321 169,321 169,321 169,321 169,321 170,321 170,320 170,320 170,320 170,319 170,319 170,319 170,319 170,318 170,318 170,318 170,318 170,317 171,317 171,317 171,317 171,316 171,316 171,316 171,316 171,315 171,315 171,315 171,315 171,314 171,314 172,314 172,314 172,313 172,313 172,313 172,313 172,313 172,312 172,312 172,312 172,312 172,311 172,311 173,311 173,311 173,310 173,310 173,310 173,310 173,310 173,310 173,310 173,310 173,310 173,310 173,310 174,310 174,310 174,310 174,310 174,309 174,309 174,310 174,310 174,310 174,310 174,310 174,310 174,311 175,311 175,311 175,311 175,311 175,310 175,310 175,310 175,309 175,309 175,309 175,308 175,308 175,308 176,307 176,307 176,307 176,306 176,306 176,305 176,305 176,305 176,304 176,304 176,303 176,303 176,303 177,302 177,302 177,301 177,301 177,300 177,299 177,299 177,298 177,298 177,298 177,297 177,297 177,296 178,296 178,295 178,295 178,294 178,294 178,294 178,293 178,293 178,294 178,293 178,293 178,293 178,293 179,293 179,292 179,292 179,291 179,291 179,290 179,290 179,289 179,288 179,287 179,287 179,286 179,285 180,285 180,285 180,284 180,284 180,285 180,284 180,284 180,283 180,283 180,283 180,283 180,283 180,283 181,283 181,283 181,283 181,282 181,282 181,282 181,281 181,281 181,281 181,280 181,280 181,279 181,279 182,278 182,278 182,278 182,278 182,278 182,278 182,278 182,277 182,277 182,277 182,277 182,277 182,277 183,277 183,277 183,277 183,277 183,277 183,277 183,277 183,277 183,277 183,277 183,277 183,277 183,277 184,277 184,277 184,277 184,277 184,276 184,276 184,276 184,276 184,276 184,276 184,276 184,276 184,276 185,276 185,276 185,276 185,276 185,276 185,276 185,276 185,276 185,276 185,276 185,275 185,275 185,275 186,275 186,275 186,275 186,274 186,274 186,274 186,274 186,274 186,275 186,275 186,274 186,274 186,274 187,274 187,274 187,273 187,273 187,273 187,273 187,272 187,272 187,272 187,272 187,272 187,272 187,272 188,272 188,272 188,271 188,271 188,271 188,271 188,271 188,271 188,271 188,270 188,270 188,270 188,270 189,270 189,270 189,270 189,270 189,269 189,269 189,269 189,269 189,270 189,270 189,270 189,270 189,270 190,270 190,271 190,271 190,272 190,272 190,273 190,273 190,274 190,274 190,275 190,276 190,277 190,278 191,279 191,280 191,281 191,282 191,283 191,283 191,284 191,285 191,286 191,286 191,286 191,286 191,286 192,287 192,286 192,286 192,286 192,287 192,287 192,287 192,287 192,288 192,289 192,289 192,290 192,291 193,292 193,293 193,294 193,294 193,295 193,295 193,294 193,293 193,292 193,290 193,289 193,288 193,287 194,287 194,286 194,286 194,286 194,286 194,286 194,286 194,286 194,286 194,286 194,286 194,286 194,286 195,286 195,286 195,286 195,286 195,286 195,286 195,286 195,286 195,286 195,286 195,286 195,286 195,286 196,286 196,286 196,286 196,286 196,287 196,287 196,287 196,287 196,288 196,288 196,289 196,289 196,290 197,290 197,291 197,292 197,292 197,293 197,293 197,294 197,294 197,295 197,295 197,295 197,295 197,295 198,295 198,295 198,295 198,295 198,295 198,295 198,295 198,295 198,294 198,294 198,293 198,293 198,292 199,292 199,291 199,291 199,291 199,291 199,290 199,290 199,290 199,290 199,290 199,289 199,289 199,289 200,289 200,289 200,289 200,289 200,288 200,288 200,288 200,288 200,288 200,287 200,287 200,287 200,287 201,287 201,287 201,286 201,286 201,286 201,286 201,286 201,286 201,286 201,286 201,286 201,286 201,287 202,287 202,288 202,288 202,288 202,289 202,289 202,289 202,289 202,290 202,290 202,291 202,291 202,292 203,292 203,292 203,292 203,292 203,293 203,293 203,293 203,293 203,293 203,293 203,293 203,292 203,292 204,292 204,292 204,292 204,292 204,292 204,291 204,291 204,290 204,290 204,290 204,290 204,290 204,289 205,289 205,289 205,288 205,288 205,287 205,287 205,287 205,287 205,287 205,287 205,287 205,287 205,287 206,286 206,286 206,286 206,286 206,286 206,286 206,286 206,286 206,286 206,286 206,286 206,286 206,286 207,286 207,286 207,286 207,286 207,286 207,286 207,286 207,287 207,287 207,287 207,287 207,287 207,287 208,286 208,286 208,286 208,286 208,286 208,286 208,286 208,286 208,286 208,286 208,286 208,286 208,286 209,287 209,287 209,287 209,287 209,287 209,287 209,287 209,287 209,287 209,288 209,288 209,288 209,288 210,288 210,288 210,288 210,288 210,288 210,289 210,289 210,288 210,288 210,288 210,288 210,288 210,287 211,287 211,288 211,288 211,288 211,288 211,288 211,289 211,289 211,289 211,289 211,289 211,289 211,289 212,289 212,290 212,290 212,291 212,291 212,291 212,292 212,292 212,293 212,293 212,293 212,293 212,294 212,294 213,294 213,294 213,294 213,294 213,294 213,294 213,294 213,294 213,294 213,294 213,294 213,294 213,294 214,294 214,294 214,294 214,294 214,294 214,293 214,293 214,293 214,293 214,293 214,292 214,292 214,292 215,292 215,291 215,291 215,291 215,291 215,291 215,291 215,290 215,290 215,290 215,289 215,289 215,289 216,290 216,290 216,290 216,290 216,290 216,290 216,290 216,290 216,290 216,290 216,290 216,291 216,291 217,291 217,291 217,291 217,291 217,291 217,291 217,292 217,292 217,292 217,292 217,292 217,292 217,292 218,292 218,292 218,292 218,292 218,292 218,292 218,292 218,292 218,292 218,292 218,292 218,291 218,291 219,291 219,291 219,291 219,291 219,292 219,292 219,291 219,291 219,292 219,292 219,292 219,292 219,292 220,292 220,291 220,291 220,291 220,291 220,291 220,291 220,291 220,292 220,292 220,292 220,292 220,292 221,292 221,292 221,292 221,292 221,292 221,292 221,292 221,292 221,292 221,292 221,292 221,292 221,292 222,292 222,292 222,292 222,292 222,291 222,291 222,291 222,291 222,291 222,290 222,290 222,290 222,290 223,290 223,290 223,289 223,289 223,289 223,289 223,289 223,289 223,289 223,289 223,289 223,289 223,288 224,288 224,288 224,287 224,287 224,287 224,286 224,286 224,286 224,286 224,286 224,285 224,285 224,284 225,284 225,283 225,283 225,283 225,283 225,282 225,282 225,282 225,281 225,281 225,281 225,281 225,280 226,280 226,280 226,280 226,280 226,280 226,280 226,280 226,280 226,280 226,281 226,281 226,281 226,281 227,281 227,281 227,281 227,280 227,280 227,280 227,280 227,280 227,280 227,280 227,280 227,280 227,280 228,280 228,280 228,280 228,280 228,280 228,280 228,280 228,280 228,279 228,279 228,279 228,278 228,278 229,278 229,278 229,278 229,278 229,278 229,277 229,277 229,277 229,276 229,276 229,276 229,275 229,275 230,275 230,275 230,275 230,275 230,275 230,275 230,275 230,275 230,275 230,275 230,275 230,275 230,275 231,275 231,275 231,275 231,275 231,275 231,274 231,274 231,274 231,273 231,273 231,272 231,272 231,272 232,272 232,272 232,272 232,272 232,272 232,272 232,272 232,272 232,271 232,271 232,271 232,271 232,271 233,272 233,272 233,272 233,272 233,272 233,271 233,271 233,271 233,270 233,270 233,270 233,270 233,270 234,270 234,270 234,270 234,270 234,270 234,270 234,270 234,270 234,271 234,271 234,271 234,271 234,271 235,271 235,271 235,272 235,272 235,273 235,273 235,274 235,274 235,275 235,276 235,276 235,277 235,277 236,277 236,278 236,278 236,278 236,278 236,278 236,278 236,278 236,277 236,277 236,277 236,277 236,277 237,277 237,277 237,277 237,277 237,277 237,277 237,277 237,277 237,277 237,277 237,277 237,277 237,277 238,277 238,277 238,277 238,277 238,277 238,277 238,277 238,277 238,277 238,277 238,277 238,277 238,277 239,277 239,277 239,277 239,277 239,277 239,277 239,277 239,277 239,277 239,277 239,277 239,277 239,277 240,277 240,277 240,277 240,277 240,277 240,277 240,277 240,276 240,276 240,276 240,276 240,276 240,276 241,276 241,276 241,276 241,276 241,276 241,276 241,277 241,277 241,277 241,277 241,277 241,277 241,277 242,277 242,277 242,277 242,277 242,277 242,277 242,277 242,277 242,277 242,277 242,276 242,276 242,276 243,276 243,276 243,276 243,276 243,276 243,276 243,276 243,276 243,276 243,276 243,276 243,276 243,277 244,277 244,277 244,277 244,277 244,277 244,277 244,277 244,277 244,278 244,278 244,278 244,279 244,280 245,280 245,281 245,281 245,281 245,281 245,281 245,281 245,280 245,280 245,280 245,279 245,279 245,279 246,278 246,278 246,278 246,277 246,276 246,276 246,276 246,276 246,276 246,276 246,275 246,275 246,275 247,274 247,274 247,274 247,273 247,272 247,271 247,271 247,271 247,270 247,269 247,267 247,266 247,265 248,263 248,263 248,262 248,262 248,262 248,261 248,261 248,261 248,261 248,260 248,260 248,260 248,260 249,260 249,261 249,261 249,261 249,261 249,261 249,261 249,261 249,261 249,261 249,261 249,261 249,261 250,261 250,260 250,261 250,261 250,261 250,260 250,260 250,260 250,260 250,260 250,260 250,260 250,260 251,260 251,260 251,260 251,260 251,260 251,259 251,259 251,259 251,259 251,258 251,258 251,258 251,258 252,257 252,257 252,257 252,258 252,258 252,258 252,258 252,258 252,257 252,257 252,257 252,257 252,257 253,256 253,256 253,256 253,256 253,256 253,255 253,255 253,254 253,254 253,254 253,253 253,253 253,253 254,252 254,252 254,252 254,251 254,251 254,251 254,251 254,251 254,250 254,250 254,250 254,250 254,249 255,249 255,249 255,248 255,248 255,248 255,248 255,247 255,247 255,247 255,247 255,246 255,246 255,246 256,246 256,246 256,245 256,245 256,245 256,245 256,245 256,245 256,245 256,245 256,245 256,244 256,244 257,244 257,244 257,244 257,244 257,244 257,244 257,243 257,243 257,243 257,243 257,243 257,243 257,243 258,243 258,243 258,243 258,243 258,242 258,242 258,242 258,242 258,242 258,242 258,242 258,243 258,243 259,243 259,243 259,243 259,243 259,243 259,244 259,244 259,244 259,244 259,244 259,244 259,244 259,243 260,243 260,243 260,242 260,242 260,242 260,242 260,241 260,240 260,240 260,239 260,238 260,238 260,237 261,237 261,236 261,236 261,235 261,235 261,234 261,234 261,233 261,233 261,233 261,233 261,233 261,233 262,233 262,233 262,233 262,233 262,233 262,234 262,234 262,234 262,234 262,234 262,234 262,235 262,235 263,236 263,235 263,235 263,235 263,236 263,236 263,236 263,236 263,235 263,235 263,235 263,234 263,234 264,234 264,234 264,233 264,233 264,233 264,232 264,232 264,232 264,232 264,231 264,231 264,231 264,232 265,232 265,232 265,233 265,233 265,234 265,234 265,234 265,235 265,235 265,236 265,236 265,236 265,236 266,236 266,236 266,236 266,236 266,236 266,236 266,236 266,236 266,235 266,235 266,235 266,235 266,235 267,235 267,235 267,235 267,235 267,235 267,235 267,235 267,235 267,235 267,235 267,235 267,235 267,235 268,235 268,235 268,235 268,235 268,235 268,235 268,235 268,235 268,235 268,235 268,235 268,235 268,235 269,235 269,235 269,235 269,235 269,235 269,235 269,235 269,235 269,235 269,234 269,234 269,233 269,233 270,232 270,232 270,232 270,231 270,231 270,230 270,230 270,229 270,229 270,229 270,228 270,228 270,227 271,227 271,227 271,226 271,226 271,225 271,224 271,224 271,224 271,223 271,223 271,223 271,222 271,222 272,221 272,221 272,220 272,220 272,219 272,219 272,219 272,218 272,218 272,218 272,217 272,217 272,217 273,217 273,216 273,216 273,216 273,216 273,216 273,216 273,215 273,215 273,215 273,215 273,215 273,215 274,215 274,215 274,215 274,215 274,215 274,215 274,215 274,215 274,215 274,214 274,214 274,214 274,214 275,214 275,215 275,215 275,215 275,215 275,215 275,215 275,215 275,215 275,215 275,215 275,214 275,214 276,214 276,214 276,213 276,213 276,213 276,213 276,212 276,213 276,212 276,212 276,212 276,212 276,212 277,212 277,213 277,213 277,213 277,214 277,215 277,215 277,216 277,217 277,218 277,219 277,220 277,221 278,221 278,222 278,224 278,225 278,226 278,227 278,228 278,229 278,229 278,229 278,230 278,231 278,231 279,232 279,232 279,232 279,232 279,233 279,233 279,233 279,233 279,232 279,232 279,232 279,232 279,231 280,230 280,230 280,229 280,228 280,227 280,226 280,225 280,224 280,223 280,222 280,221 280,221 280,220 281,219 281,218 281,218 281,217 281,216 281,216 281,216 281,215 281,215 281,214 281,215 281,215 281,216 282,216 282,216 282,217 282,217 282,217 282,217 282,218 282,218 282,218 282,218 282,219 282,219 282,219 283,219 283,219 283,219 283,220 283,220 283,220 283,221 283,222 283,222 283,223 283,224 283,226 283,227 284,229 284,230 284,231 284,232 284,233 284,234 284,235 284,234 284,233 284,232 284,232 284,231 284,230 285,229 285,227 285,226 285,225 285,223 285,222 285,222 285,221 285,220 285,218 285,217 285,216 285,214 285,213 286,212 286,212 286,211 286,210 286,208 286,207 286,206 286,205 286,203 286,202 286,200 286,199 286,197 287,196 287,195 287,194 287,193 287,192 287,191 287,190 287,190 287,189 287,188 287,188 287,187 287,187 288,186 288,186 288,186 288,186 288,186 288,186 288,186 288,186 288,186 288,186 288,187 288,187 288,187 289,187 289,187 289,187 289,187 289,187 289,187 289,187 289,187 289,187 289,188 289,188 289,189 289,189 290,189 290,189 290,189 290,188 290,188 290,188 290,188 290,187 290,187 290,188 290,187 290,187 290,188 291,188 291,188 291,188 291,189 291,189 291,189 291,189 291,190 291,190 291,190 291,191 291,192 291,192 292,193 292,193 292,194 292,195 292,196 292,196 292,197 292,198 292,199 292,199 292,200 292,201 292,201 293,202 293,203 293,203 293,204 293,205 293,206 293,207 293,208 293,209 293,210 293,211 293,212 293,213 294,214 294,215 294,216 294,217 294,218 294,220 294,221 294,222 294,224 294,225 294,227 294,228 294,230 295,231 295,233 295,235 295,236 295,237 295,239 295,240 295,241 295,242 295,244 295,245 295,247 295,248 296,250 296,250 296,249 296,248 296,247 296,246 296,244 296,243 296,241 296,240 296,239 296,237 296,236 297,235 297,234 297,233 297,232 297,231 297,230 297,229 297,228 297,227 297,226 297,225 297,224 297,223 298,222 298,221 298,220 298,220 298,219 298,218 298,217 298,217 298,216 298,215 298,215 298,215 298,214 299,214 299,214 299,214 299,214 299,214 299,215 299,215 299,215 299,215 299,215 299,216 299,216 299,216 300,216 300,216 300,216 300,217 300,217 300,217 300,218 300,219 300,220 300,220 300,221 300,222 300,223 301,224 301,226 301,227 301,229 301,230 301,231 301,232 301,233 301,233 301,234 301,234 301,235 301,235 302,235 302,234 302,234 302,234 302,233 302,232 302,232 302,232 302,232 302,232 302,232 302,232 302,232 303,232 303,232 303,232 303,232 303,232 303,232 303,232 303,232 303,232 303,232 303,233 303,233 303,233 304,233 304,233 304,233 304,233 304,233 304,234 304,234 304,235 304,235 304,236 304,237 304,238 304,238 305,239 305,241 305,242 305,243 305,243 305,243 305,244 305,245 305,245 305,245 305,245 305,245 305,246 306,245 306,245 306,245 306,245 306,244 306,244 306,244 306,244 306,244 306,244 306,243 306,243 306,243 307,243 307,243 307,243 307,243 307,243 307,243 307,243 307,243 307,243 307,243 307,242 307,242 307,242 308,242 308,242 308,242 308,242 308,242 308,242 308,241 308,241 308,241 308,240 308,240 308,239 308,239 309,238 309,238 309,237 309,237 309,236 309,235 309,234 309,234 309,233 309,232 309,231 309,231 309,230 310,229 310,229 310,228 310,227 310,225 310,224 310,222 310,221 310,220 310,219 310,218 310,217 310,215 311,214 311,213 311,212 311,212 311,211 311,211 311,210 311,210 311,210 311,210 311,209 311,209 311,209 312,209 312,208 312,208 312,207 312,207 312,207 312,206 312,206 312,205 312,205 312,204 312,204 312,203 313,202 313,202 313,201 313,200 313,200 313,199 313,199 313,198 313,197 313,197 313,196 313,196 313,195 314,195 314,195 314,195 314,195 314,195 314,195 314,195 314,195 314,195 314,195 314,195 314,195 314,195 315,196 315,196 315,196 315,197 315,198 315,198 315,199 315,199 315,200 315,201 315,201 315,202 315,203 316,204 316,205 316,206 316,207 316,208 316,209 316,210 316,212 316,213 316,214 316,216 316,217 316,218 317,219 317,220 317,221 317,222 317,223 317,224 317,226 317,227 317,228 317,228 317,229 317,229 317,229 318,229 318,229 318,229 318,229 318,229 318,229 318,229 318,229 318,229 318,229 318,229 318,229 318,228 319,228 319,228 319,228 319,228 319,228 319,227 319,227 319,227 319,227 319,226 319,226 319,226 319,225 320,225 320,224 320,224 320,223 320,223 320,223 320,222 320,222 320,222 320,222 320,222 320,221 320,221 321,221 321,221 321,220 321,220 321,220 321,219 321,218 321,218 321,217 321,217 321,217 321,216 321,216 322,216 322,215 322,215 322,214 322,213 322,212 322,212 322,211 322,210 322,210 322,209 322,208 322,207 323,206 323,205 323,204 323,204 323,203 323,202 323,202 323,202 323,201 323,201 323,201 323,200 323,200 324,200 324,199 324,199 324,199 324,198 324,198 324,197 324,197 324,197 324,196 324,196 324,195 324,195 325,194 325,194 325,194 325,193 325,193 325,194 325,194 325,194 325,194 325,194 325,195 325,195 325,196 326,196 326,197 326,198 326,198 326,199 326,199 326,200 326,200 326,200 326,201 326,201 326,201 326,200 327,200 327,199 327,199 327,198 327,198 327,197 327,196 327,196 327,196 327,196 327,195 327,195 327,195 328,194 328,194 328,194 328,194 328,194 328,194 328,194 328,195 328,195 328,195 328,195 328,195 328,195 329,195 329,196 329,196 329,196 329,196 329,196 329,195 329,195 329,194 329,194 329,194 329,193 329,193 330,193 330,192 330,192 330,192 330,192 330,192 330,191 330,191 330,191 330,191 330,191 330,191 330,191 331,191 331,191 331,190 331,190 331,190 331,190 331,190 331,189 331,189 331,189 331,189 331,189 331,188 332,188 332,188 332,188 332,187 332,187 332,186 332,186 332,185 332,185 332,184 332,184 332,184 332,183 333,183 333,183 333,183 333,183 333,183 333,183 333,183 333,183 333,183 333,182 333,182 333,182 333,182 334,181 334,181 334,182 334,182 334,182 334,182 334,182 334,182 334,182 334,183 334,183 334,183 334,183 335,183 335,183 335,184 335,184 335,184 335,185 335,185 335,185 335,185 335,185 335,185 335,184 335,183 336,182 336,182 336,181 336,181 336,180 336,180 336,180 336,179 336,179 336,179 336,178 336,178 336,177 337,177 337,177 337,177 337,177 337,176 337,175 337,175 337,174 337,174 337,173 337,172 337,171 337,170 338,169 338,169 338,168 338,168 338,167 338,166 338,165 338,164 338,164 338,163 338,163 338,162 338,162 339,161 339,160 339,160 339,159 339,159 339,158 339,158 339,157 339,156 339,155 339,154 339,153 339,153 340,152 340,152 340,151 340,150 340,150 340,150 340,149 340,148 340,148 340,148 340,148 340,148 340,148 341,148 341,148 341,148 341,148 341,147 341,148 341,148 341,148 341,147 341,146 341,145 341,144 341,144 342,144 342,144 342,144 342,144 342,143 342,142 342,142 342,141 342,140 342,138 342,137 342,136 342,135 343,134 343,133 343,133 343,133 343,133 343,133 343,132 343,132 343,132 343,132 343,132 343,132 343,132 344,131 344,131 344,131 344,131 344,131 344,131 344,131 344,131 344,131 344,131 344,131 344,131 344,131 345,131 345,131 345,131 345,131 345,132 345,132 345,133 345,133 345,134 345,135 345,136 345,137 345,138 346,140 346,141 346,143 346,145 346,146 346,147 346,148 346,149 346,150 346,151 346,152 346,153 346,153 347,154 347,155 347,156 347,156 347,157 347,158 347,158 347,159 347,159 347,160 347,160 347,161 347,163 348,164 348,165 348,165 348,164 348,164 348,164 348,163 348,163 348,162 348,161 348,160 348,159 348,158 349,157 349,156 349,155 349,153 349,152 349,151 349,150 349,149 349,148 349,146 349,145 349,144 349,142 350,141 350,140 350,139 350,138 350,137 350,136 350,135 350,135 350,134 350,133 350,131 350,130 350,130 351,129 351,129 351,128 351,127 351,127 351,126 351,126 351,126 351,126 351,126 351,126 351,126 351,126 352,126 352,126 352,126 352,127 352,127 352,127 352,127 352,127 352,127 352,127 352,128 352,128 352,128 353,128 353,128 353,128 353,129 353,129 353,129 353,129 353,129 353,129 353,128 353,128 353,128 353,128 354,128 354,127 354,126 354,126 354,125 354,124 354,123 354,122 354,121 354,120 354,119 354,119 354,118 355,118 355,117 355,116 355,115 355,114 355,113 355,113 355,112 355,111 355,111 355,110 355,110 355,109 356,108 356,108 356,107 356,107 356,106 356,106 356,105 356,105 356,104 356,104 356,104 356,103 356,103 357,103 357,103 357,103 357,104 357,104 357,103 357,103 357,103 357,103 357,103 357,103 357,103 357,103 358,104 358,105 358,106 358,105 358,105 358,104 358,105 358,105 358,104 358,103 358,103 358,102 358,101 359,101 359,100 359,100 359,100 359,100 359,99 359,99 359,99 359,99 359,99 359,99 359,99 359,99 359,99 360,100 360,100 360,100 360,100 360,100 360,100 360,100 360,100 360,100 360,100 360,100 360,100 360,101 361,101 361,101 361,102 361,102 361,102 361,103 361,103 361,104 361,104 361,105 361,105 361,106 361,106 362,106 362,107 362,107 362,108 362,108 362,108 362,109 362,109 362,109 362,110 362,110 362,110 362,111 363,111 363,111 363,111 363,112 363,112 363,112 363,112 363,113 363,113 363,113 363,113 363,113 363,113 364,114 364,114 364,114 364,114 364,114 364,114 364,115 364,115 364,115 364,115 364,116 364,116 364,116 365,116 365,117 365,117 365,118 365,118 365,119 365,119 365,120 365,120 365,121 365,121 365,122 365,122 366,123 366,123 366,124 366,124 366,125 366,125 366,126 366,126 366,127 366,127 366,128 366,128 366,128 367,128 367,128 367,128 367,128 367,129 367,129 367,130 367,130 367,131 367,131 367,132 367,132 367,133 368,133 368,133 368,133 368,133 368,133 368,133 368,134 368,134 368,134 368,135 368,135 368,135 368,135 369,136 369,136 369,137 369,137 369,136 369,136 369,136 369,135 369,136 369,136 369,136 369,136 369,136 370,136 370,136 370,136 370,136 370,136 370,137 370,137 370,137 370,137 370,137 370,137 370,137 370,137 371,138 371,138 371,138 371,138 371,138 371,138 371,139 371,139 371,139 371,140 371,140 371,140 371,141 372,141 372,141 372,142 372,142 372,142 372,142 372,142 372,143 372,143 372,143 372,143 372,143 372,143 373,143 373,143 373,144 373,144 373,144 373,144 373,144 373,144 373,144 373,145 373,145 373,145 373,145 374,145 374,145 374,145 374,146 374,146 374,146 374,146 374,146 374,146 374,147 374,147 374,147 374,147 375,147 375,147 375,148 375,148 375,148 375,148 375,149 375,149 375,149 375,149 375,149 375,150 375,150 376,150 376,150 376,151 376,151 376,151 376,151 376,151 376,151 376,152 376,152 376,152 376,152 376,152 377,153 377,153 377,153 377,153 377,154 377,154 377,155 377,155 377,155 377,156 377,156 377,156 377,157 378,157 378,158 378,159 378,160 378,161 378,162 378,162 378,163 378,164 378,165 378,166 378,166 378,166 379,167 379,167 379,167 379,167 379,167 379,168 379,168 379,168 379,168 379,168 379,168 379,168 379,168 380,168 380,168 380,169 380,169 380,169 380,169 380,169 380,169 380,169 380,169 380,169 380,169 380,170 381,170 381,170 381,170 381,171 381,171 381,171 381,171 381,171 381,172 381,172 381,172 381,173 381,173 382,173 382,173 382,173 382,173 382,173 382,173 382,173 382,174 382,174 382,174 382,174 382,174 382,174 383,174 383,174 383,174 383,174 383,175 383,175 383,175 383,175 383,175 383,175 383,175 383,175 383,174 384,175 384,175 384,175 384,175 384,175 384,175 384,175 384,175 384,175 384,175 384,175 384,175 384,175 385,175 385,175 385,175 385,175 385,174 385,174 385,174 385,174 385,174 385,175 385,175 385,175 385,175 386,175 386,175 386,175 386,175 386,174 386,174 386,174 386,174 386,174 386,174 386,173 386,174 386,174 387,173 387,173 387,174 387,174 387,174 387,174 387,174 387,175 387,175 387,175 387,175 387,175 387,176 388,176 388,176 388,176 388,177 388,177 388,177 388,177 388,178 388,178 388,178 388,178 388,179 388,179 389,179 389,179 389,179 389,179 389,179 389,179 389,179 389,179 389,179 389,179 389,179 389,179 389,178 390,178 390,178 390,178 390,178 390,178 390,178 390,178 390,178 390,178 390,178 390,178 390,179 390,179 391,179 391,180 391,180 391,180 391,180 391,180 391,180 391,180 391,180 391,180 391,180 391,180 391,180 392,180 392,180 392,180 392,180 392,181 392,181 392,181 392,181 392,181 392,181 392,181 392,181 392,181 393,182 393,182 393,182 393,182 393,182 393,182 393,182 393,182 393,182 393,183 393,183 393,183 393,182 394,182 394,182 394,182 394,182 394,182 394,182 394,182 394,182 394,182 394,182 394,181 394,181 394,181 395,181 395,182 395,182 395,182 395,182 395,182 395,182 395,182 395,182 395,182 395,182 395,182 395,182 396,182 396,183 396,183 396,184 396,184 396,185 396,185 396,186 396,186 396,186 396,186 396,187 396,187 397,187 397,187 397,188 397,188 397,188 397,188 397,188 397,188 397,189 397,190 397,190 397,191 397,191 398,191 398,191 398,192 398,192 398,192 398,192 398,192 398,192 398,191 398,191 398,191 398,190 398,190 399,189 399,189 399,189 399,189 399,188 399,188 399,188 399,188 399,187 399,187 399,187 399,186 399,186 400,186 400,186 400,186 400,186 400,186 400,186 400,187 400,187 400,187 400,187 400,187 400,188 400,188 401,188 401,188 401,189 401,189 401,189 401,189 401,190 401,190 401,190 401,190 401,191 401,191 401,191 402,191 402,191 402,191 402,191 402,191 402,191 402,190 402,190 402,190 402,190 402,189 402,189 402,189 403,188 403,188 403,188 403,187 403,187 403,187 403,187 403,187 403,187 403,187 403,188 403,188 403,189 404,188 404,188 404,187 404,187 404,187 404,186 404,186 404,185 404,185 404,185 404,185 404,185 404,186 405,186 405,186 405,186 405,187 405,187 405,188 405,188 405,188 405,188 405,188 405,189 405,189 405,189 406,189 406,190 406,190 406,190 406,190 406,190 406,190 406,191 406,191 406,191 406,191 406,191 406,191 407,191 407,191 407,191 407,191 407,191 407,191 407,190 407,190 407,190 407,189 407,189 407,189 407,189 408,188 408,188 408,188 408,188 408,188 408,188 408,188 408,188 408,188 408,187 408,187 408,187 408,187 409,187 409,187 409,188 409,188 409,188 409,188 409,188 409,188 409,188 409,188 409,187 409,187 409,187 410,187 410,187 410,187 410,187 410,187 410,187 410,187 410,187 410,187 410,187 410,187 410,187 410,186 411,186 411,186 411,187 411,187 411,187 411,188 411,188 411,188 411,188 411,188 411,188 411,188 411,188 412,188 412,188 412,188 412,188 412,189 412,189 412,190 412,190 412,190 412,190 412,191 412,191 412,191 413,191 413,191 413,191 413,191 413,192 413,192 413,192 413,192 413,192 413,193 413,193 413,193 413,193 414,193 414,193 414,193 414,193 414,193 414,193 414,194 414,194 414,195 414,195 414,195 414,195 414,195 415,195 415,195 415,195 415,195 415,195 415,195 415,196 415,196 415,196 415,197 415,197 415,197 415,197 416,197 416,197 416,197 416,197 416,197 416,197 416,197 416,197 416,197 416,197 416,197 416,197 416,197 417,197 417,197 417,197 417,197 417,197 417,197 417,197 417,197 417,197 417,197 417,197 417,197 417,197 418,197 418,197 418,197 418,197 418,197 418,197 418,197 418,197 418,197 418,197 418,197 418,197 418,197 419,196 419,196 419,196 419,196 419,196 419,196 419,196 419,196 419,196 419,196 419,196 419,196 419,195 420,195 420,195 420,195 420,195 420,194 420,194 420,194 420,194 420,194 420,194 420,194 420,194 420,194 421,193 421,193 421,193 421,193 421,193 421,193 421,192 421,192 421,192 421,192 421,192 421,191 421,191 422,191 422,191 422,191 422,191 422,191 422,191 422,191 422,191 422,191 422,191 422,191 422,191 422,191 423,191 423,191 423,191 423,191 423,191 423,191 423,191 423,191 423,191 423,191 423,191 423,192 423,192 424,192 424,192 424,192 424,192 424,192 424,192 424,192 424,192 424,192 424,192 424,192 424,192 424,192 425,192 425,192 425,192 425,192 425,192 425,192 425,192 425,192 425,192 425,192 425,192 425,192 425,192 426,192 426,192 426,192 426,192 426,192 426,192 426,192 426,193 426,193 426,193 426,193 426,193 426,193 427,193 427,194 427,194 427,194 427,194 427,194 427,194 427,194 427,195 427,195 427,195 427,195 427,195 428,195 428,194 428,194 428,194 428,194 428,194 428,194 428,194 428,194 428,194 428,194 428,194 428,195 429,195 429,195 429,195 429,195 429,195 429,195 429,195 429,195 429,195 429,195 429,195 429,195 429,195 430,195 430,195 430,195 430,196 430,196 430,196 430,196 430,196 430,196 430,196 430,196 430,196 430,196 431,196 431,196 431,196 431,196 431,196 431,196 431,196 431,196 431,196 431,195 431,195 431,195 431,195 432,194 432,194 432,194 432,193 432,193 432,193 432,192 432,192 432,191 432,191 432,191 432,190 432,190 433,190 433,190 433,189 433,189 433,189 433,189 433,189 433,189 433,189 433,189 433,189 433,190 433,190 433,190 434,190 434,190 434,190 434,190 434,190 434,190 434,190 434,190 434,190 434,190 434,190 434,190 434,190 435,190 435,190 435,190 435,190 435,190 435,190 435,190 435,190 435,190 435,190 435,190 435,190 435,190 436,190 436,190 436,190 436,191 436,191 436,191 436,191 436,191 436,192 436,192 436,192 436,192 436,192 437,192 437,192 437,192 437,192 437,192 437,192 437,192 437,192 437,191 437,191 437,191 437,191 437,191 438,190 438,190 438,190 438,190 438,189 438,189 438,189 438,189 438,188 438,188 438,188 438,187 438,187 439,187 439,186 439,186 439,185 439,185 439,184 439,184 439,184 439,183 439,183 439,182 439,182 439,182 440,181 440,181 440,181 440,180 440,180 440,180 440,180 440,180 440,180 440,180 440,180 440,179 440,179 441,179 441,179 441,179 441,179 441,179 441,179 441,179 441,179 441,179 441,179 441,179 441,179 441,179 442,178 442,178 442,177 442,176 442,176 442,175 442,174 442,174 442,173 442,172 442,171 442,171 442,170 443,170 443,169 443,169 443,168 443,167 443,167 443,166 443,166 443,165 443,165 443,164 443,163 443,163 444,162 444,161 444,160 444,160 444,160 444,160 444,159 444,159 444,159 444,159 444,159 444,159 444,158 445,158 445,158 445,158 445,158 445,157 445,157 445,156 445,155 445,155 445,154 445,154 445,153 445,151 446,151 446,150 446,150 446,150 446,149 446,149 446,149 446,149 446,150 446,150 446,150 446,150 446,151 447,153 447,152 447,152 447,152 447,152 447,151 447,151 447,152 447,153 447,153 447,153 447,153 447,153 448,154 448,154 448,154 448,154 448,153 448,154 448,154 448,154 448,155 448,156 448,156 448,157 448,157 449,158 449,158 449,159 449,159 449,159 449,159 449,159 449,159 449,160 449,160 449,160 449,160 449,160 450,160 450,160 450,161 450,161 450,161 450,161 450,161 450,161 450,161 450,162 450,162 450,162 450,162 451,162 451,162 451,163 451,163 451,164 451,164 451,164 451,165 451,166 451,166 451,167 451,168 451,168 452,170 452,172 452,173 452,174 452,175 452,175 452,176 452,176 452,176 452,176 452,176 452,176 452,176 453,175 453,175 453,175 453,174 453,174 453,174 453,173 453,173 453,172 453,172 453,171 453,170 453,170 454,169 454,169 454,168 454,167 454,167 454,166 454,167 454,167 454,167 454,167 454,167 454,167 454,167 455,167 455,166 455,166 455,166 455,166 455,166 455,166 455,165 455,165 455,165 455,165 455,165 455,164 456,164 456,164 456,164 456,164 456,163 456,163 456,163 456,163 456,163 456,162 456,162 456,162 456,162 457,161 457,161 457,161 457,161 457,161 457,161 457,160 457,160 457,160 457,160 457,161 457,161 457,161 458,162 458,162 458,161 458,161 458,161 458,162 458,163 458,163 458,164 458,164 458,164 458,165 458,165 459,165 459,164 459,164 459,164 459,164 459,163 459,163 459,163 459,163 459,163 459,162 459,162 459,162 460,162 460,162 460,161 460,161 460,161 460,161 460,160 460,160 460,159 460,158 460,158 460,158 460,157 461,157 461,157 461,156 461,156 461,156 461,156 461,156 461,156 461,155 461,155 461,155 461,155 461,155 462,155 462,155 462,155 462,154 462,154 462,154 462,154 462,154 462,154 462,154 462,155 462,155 462,155 463,155 463,155 463,156 463,156 463,157 463,157 463,157 463,157 463,158 463,158 463,158 463,158 463,158 464,158 464,157 464,157 464,157 464,157 464,156 464,155 464,154 464,154 464,153 464,153 464,152 464,151 465,151 465,150 465,150 465,149 465,149 465,149 465,149 465,149 465,148 465,148 465,148 465,148 465,148 466,148 466,147 466,147 466,147 466,147 466,147 466,146 466,146 466,146 466,145 466,145 466,144 466,144 467,144 467,144 467,144 467,144 467,144 467,144 467,144 467,144 467,144 467,144 467,144 467,144 467,144 468,144 468,144 468,144 468,144 468,144 468,144 468,144 468,144 468,144 468,145 468,145 468,146 468,146 469,147 469,147 469,148 469,148 469,149 469,149 469,150 469,150 469,151 469,151 469,152 469,152 469,153 470,153 470,153 470,154 470,154 470,155 470,155 470,155 470,155 470,155 470,155 470,156 470,156 470,156 471,156 471,157 471,157 471,158 471,158 471,159 471,159 471,160 471,160 471,161 471,162 471,162 471,162 472,161 472,161 472,161 472,161 472,161 472,161 472,161 472,161 472,161 472,161 472,162 472,162 472,162 473,162 473,162 473,162 473,163 473,163 473,163 473,163 473,163 473,163 473,163 473,164 473,164 473,164 474,165 474,164 474,164 474,164 474,164 474,163 474,163 474,163 474,162 474,162 474,161 474,161 474,161 475,160 475,161 475,160 475,160 475,160 475,160 475,160 475,160 475,159 475,159 475,159 475,159 475,158 476,159 476,159 476,159 476,159 476,159 476,159 476,160 476,159 476,159 476,159 476,159 476,158 476,158 477,158 477,158 477,157 477,157 477,157 477,157 477,156 477,156 477,156 477,155 477,155 477,154 477,153 478,152 478,152 478,152 478,151 478,150 478,150 478,150 478,150 478,150 478,150 478,150 478,150 478,150 479,150 479,150 479,150 479,150 479,150 479,150 479,150 479,150 479,150 479,149 479,149 479,149 479,149 480,149 480,149 480,149 480,149 480,149 480,150 480,151 480,151 480,151 480,152 480,152 480,152 480,153 481,153 481,154 481,154 481,154 481,154 481,154 481,154 481,155 481,155 481,155 481,155 481,155 481,154 482,154 482,155 482,155 482,155 482,156 482,156 482,156 482,157 482,157 482,157 482,158 482,158 482,158 483,158 483,159 483,159 483,159 483,159 483,160 483,160 483,160 483,161 483,161 483,161 483,161 483,162 484,162 484,162 484,162 484,162 484,162 484,162 484,162 484,162 484,163 484,163 484,164 484,164 484,164 485,165 485,165 485,165 485,165 485,165 485,165 485,166 485,166 485,166 485,166 485,166 485,166 485,166 486,166 486,166 486,167 486,167 486,167 486,167 486,167 486,167 486,167 486,167 486,168 486,168 486,168 487,168 487,168 487,168 487,169 487,169 487,169 487,169 487,169 487,169 487,169 487,169 487,169 487,169 488,169 488,169 488,169 488,169 488,169 488,169 488,169 488,169 488,169 488,169 488,169 488,169 488,169 489,169 489,169 489,169 489,170 489,170 489,170 489,170 489,170 489,170 489,170 489,170 489,169 489,169 490,169 490,169 490,169 490,168 490,168 490,168 490,168 490,167 490,167 490,166 490,166 490,166 490,165 491,165 491,164 491,164 491,164 491,163 491,163 491,162 491,162 491,162 491,161 491,161 491,161 491,160 492,160 492,160 492,160 492,159 492,159 492,159 492,158 492,158 492,158 492,157 492,157 492,157 492,156 493,156 493,155 493,155 493,155 493,154 493,154 493,153 493,153 493,153 493,152 493,152 493,152 493,152 494,152 494,152 494,151 494,151 494,151 494,152 494,152 494,153 494,154 494,154 494,154 494,154 494,154 495,154 495,155 495,155 495,156 495,156 495,157 495,157 495,158 495,158 495,159 495,160 495,160 495,161 496,162 496,162 496,163 496,164 496,164 496,165 496,165 496,165 496,166 496,166 496,166 496,166 496,166 497,166 497,167 497,167 497,167 497,167 497,167 497,167 497,167 497,167 497,167 497,167 497,167 497,167 498,167 498,167 498,167 498,167 498,167 498,167 498,167 498,167 498,167 498,167 498,167 498,167 498,167 499,167 499,167 499,168 499,168 499,168 499,169 499,169 499,170 499,170 499,170 499,170 499,170 499,170 500,170 500,170 500,169 500,169 500,169 500,169 500,169 500,169 500,169 500,169 500,169 500,169 500,169 501,169 501,169 501,169 501,169 501,169 501,169 501,169 501,169 501,168 501,168 501,168 501,168 501,168 502,168 502,168 502,168 502,168 502,168 502,167 502,167 502,167 502,167 502,167 502,166 502,166 502,166 503,166 503,166 503,165 503,165 503,165 503,164 503,164 503,164 503,163 503,163 503,162 503,162 503,162 504,162 504,162 504,162 504,162 504,161 504,161 504,161 504,161 504,161 504,161 504,160 504,160 504,160 505,160 505,160 505,160 505,159 505,159 505,159 505,159 505,159 505,159 505,158 505,158 505,158 505,158 506,158 506,158 506,158 506,157 506,157 506,157 506,157 506,157 506,156 506,156 506,156 506,156 506,156 507,156 507,155 507,156 507,156 507,156 507,156 507,155 507,155 507,155 507,155 507,155 507,155 507,156 507,155 508,155 508,155 508,155 508,155 508,155 508,155 508,155 508,155 508,154 508,154 508,154 508,154 508,154 509,154 509,154 509,154 509,154 509,154 509,154 509,154 509,154 509,154 509,154 509,154 509,154 509,154 510,154 510,154 510,155 510,155 510,155 510,155 510,155 510,155 510,155 510,155 510,155 510,155 510,155 511,155 511,154 511,154 511,154 511,154 511,154 511,154 511,154 511,155 511,155 511,155 511,155 511,155 512,155 512,154 512,154 512,155 512,155 512,155 512,155 512,155 512,154 512,154 512,154 512,154 512,154 513,154 513,154 513,154 513,155 513,155 513,155 513,155 513,155 513,155 513,155 513,155 513,155 513,155 514,155 514,155 514,155 514,155 514,155 514,155 514,155 514,155 514,155 514,155 514,155 514,154 514,154 515,154 515,154 515,154 515,154 515,154 515,154 515,154 515,154 515,154 515,154 515,154 515,154 515,154 516,153 516,153 516,153 516,153 516,153 516,153 516,153 516,153 516,153 516,154 516,154 516,154 516,154 517,154 517,154 517,153 517,153 517,153 517,153 517,153 517,152 517,152 517,152 517,152 517,152 517,151 518,151 518,151 518,151 518,151 518,150 518,150 518,150 518,151 518,150 518,150 518,150 518,150 518,150 519,150 519,150 519,150 519,150 519,149 519,149 519,149 519,149 519,149 519,149 519,149 519,149 519,149 520,149 520,149 520,148 520,148 520,148 520,148 520,148 520,148 520,148 520,148 520,148 520,148 520,148 521,148 521,148 521,148 521,148 521,148 521,148 521,148 521,148 521,148 521,148 521,148 521,148 521,148 522,148 522,148 522,147 522,147 522,147 522,147 522,147 522,147 522,147 522,147 522,147 522,147 522,147 523,148 523,149 523,150 523,150 523,148 523,147 523,146 523,146 523,146 523,146 523,145 523,145 523,145 524,145 524,144 524,144 524,144 524,144 524,144 524,144 524,144 524,144 524,144 524,144 524,144 524,144 525,144 525,144 525,144 525,144 525,144 525,144 525,143 525,143 525,143 525,143 525,143 525,142 525,142 526,142 526,141 526,141 526,140 526,140 526,139 526,139 526,138 526,138 526,138 526,137 526,137 526,136 527,136 527,136 527,136 527,135 527,136 527,136 527,136 527,136 527,136 527,136 527,135 527,136 527,136 528,136 528,136 528,136 528,135 528,135 528,135 528,134 528,134 528,133 528,133 528,133 528,133 528,133 529,132 529,132 529,132 529,132 529,132 529,131 529,131 529,130 529,130 529,130 529,130 529,130 529,130 530,129 530,129 530,129 530,129 530,129 530,129 530,129 530,129 530,129 530,129 530,129 530,129 530,128 531,128 531,128 531,128 531,128 531,128 531,128 531,128 531,128 531,128 531,128 531,128 531,128 531,128 532,128 532,128 532,128 532,129 532,129 532,129 532,128 532,128 532,128 532,128 532,128 532,128 532,128 533,128 533,128 533,128 533,128 533,128 533,128 533,127 533,127 533,127 533,127 533,127 533,126 533,126 534,126 534,126 534,126 534,125 534,125 534,125 534,125 534,126 534,126 534,126 534,127 534,127 534,127 535,127 535,127 535,127 535,127 535,127 535,127 535,127 535,127 535,128 535,128 535,128 535,128 535,128 536,128 536,128 536,128 536,128 536,128 536,128 536,128 536,127 536,127 536,127 536,127 536,126 536,126 537,126 537,125 537,125 537,125 537,124 537,124 537,123 537,123 537,123 537,123 537,123 537,122 537,122 538,121 538,121 538,121 538,120 538,120 538,119 538,119 538,118 538,118 538,118 538,117 538,117 538,116 539,116 539,116 539,115 539,115 539,115 539,115 539,115 539,114 539,114 539,114 539,114 539,114 539,114 540,114 540,114 540,114 540,114 540,114 540,114 540,114 540,114 540,114 540,114 540,114 540,114 540,114 541,114 541,114 541,114 541,114 541,114 541,113 541,113 541,113 541,113 541,113 541,113 541,113 541,113 542,113 542,113 542,113 542,113 542,114 542,114 542,114 542,114 542,114 542,114 542,114 542,113 542,113 543,113 543,113 543,113 543,113 543,114 543,115 543,115 543,116 543,117 543,118 543,118 543,119 543,120 544,120 544,121 544,121 544,122 544,123 544,124 544,124 544,125 544,125 544,125 544,126 544,126 544,127 545,127 545,127 545,127 545,127 545,127 545,126 545,126 545,125 545,124 545,124 545,123 545,122 545,122 546,122 546,122 546,122 546,122 546,122 546,122 546,122 546,122 546,122 546,122 546,122 546,122 546,122 547,122 547,121 547,121 547,121 547,121 547,121 547,121 547,121 547,121 547,121 547,121 547,121 547,121 548,121 548,121 548,121 548,121 548,121 548,121 548,122 548,122 548,122 548,122 548,122 548,123 548,123 549,124 549,124 549,124 549,125 549,125 549,126 549,126 549,127 549,127 549,128 549,128 549,129 549,129 550,130 550,130 550,131 550,131 550,132 550,132 550,133 550,133 550,134 550,134 550,134 550,135 550,135 551,135 551,136 551,136 551,136 551,136 551,137 551,137 551,137 551,137 551,137 551,137 551,137 551,136 552,136 552,135 552,135 552,135 552,135 552,135 552,135 552,135 552,135 552,136 552,136 552,137 552,138 553,138 553,139 553,139 553,140 553,140 553,141 553,141 553,141 553,141 553,140 553,140 553,140 553,140 554,139 554,139 554,139 554,139 554,139 554,139 554,139 554,139 554,138 554,138 554,138 554,138 554,138 555,138 555,138 555,138 555,138 555,138 555,137 555,137 555,137 555,137 555,136 555,136 555,136 555,136 556,135 556,135 556,134 556,134 556,134 556,133 556,133 556,132 556,132 556,131 556,131 556,131 556,130 557,129 557,129 557,129 557,128 557,128 557,128 557,127 557,127 557,126 557,126 557,126 557,126 557,126 558,126 558,126 558,126 558,126 558,126 558,126 558,126 558,126 558,126 558,127 558,127 558,127 558,127 559,128 559,128 559,128 559,129 559,130 559,130 559,131 559,132 559,132 559,132 559,133 559,133 559,133 560,134 560,134 560,134 560,135 560,135 560,136 560,136 560,137 560,137 560,138 560,138 560,138 560,139 561,139 561,139 561,140 561,140 561,140 561,140 561,140 561,140 561,140 561,140 561,140 561,140 561,141 562,140 562,140 562,140 562,140 562,140 562,140 562,140 562,140 562,140 562,140 562,140 562,139 562,140 563,140 563,140 563,140 563,140 563,141 563,141 563,141 563,142 563,142 563,142 563,142 563,142 563,142 564,143 564,143 564,143 564,143 564,143 564,143 564,144 564,144 564,144 564,144 564,144 564,144 564,144 565,144 565,144 565,144 565,144 565,145 565,145 565,145 565,145 565,146 565,146 565,146 565,146 565,146 566,146 566,147 566,147 566,147 566,147 566,147 566,147 566,147 566,148 566,148 566,148 566,148 566,148 567,149 567,149 567,149 567,149 567,150 567,150 567,150 567,150 567,150 567,150 567,150 567,150 567,150 568,150 568,150 568,150 568,150 568,150 568,150 568,150 568,150 568,149 568,149 568,149 568,149 568,149 569,149 569,149 569,149 569,149 569,149 569,149 569,149 569,148 569,148 569,148 569,148 569,148 569,148 570,148 570,148 570,148 570,148 570,148 570,148 570,148 570,148 570,148 570,147 570,147 570,147 570,147 571,147 571,147 571,147 571,147 571,147 571,147 571,147 571,147 571,147 571,146 571,146 571,146 571,146 572,146 572,146 572,146 572,146 572,145 572,145 572,145 572,145 572,145 572,145 572,145 572,145 572,145 573,145 573,145 573,145 573,145 573,145 573,145 573,145 573,145 573,144 573,144 573,144 573,144 573,144 574,144 574,143 574,143 574,143 574,143 574,143 574,143 574,143 574,143 574,142 574,142 574,142 574,142 575,141 575,141 575,141 575,141 575,141 575,140 575,140 575,140 575,140 575,140 575,140 575,140 575,140 576,140 576,140 576,139 576,139 576,139 576,139 576,138 576,138 576,138 576,138 576,138 576,138 576,137 577,137 577,137 577,137 577,137 577,136 577,136 577,136 577,136 577,136 577,136 577,136 577,136 577,136 578,136 578,136 578,136 578,136 578,136 578,136 578,136 578,136 578,137 578,137 578,137 578,137 578,137 579,137 579,137 579,137 579,137 579,137 579,137 579,137 579,137 579,137 579,137 579,137 579,137 579,137 580,137 580,137 580,137 580,138 580,138 580,138 580,138 580,138 580,139 580,139 580,139 580,140 580,140 581,140 581,141 581,141 581,141 581,141 581,141 581,141 581,142 581,142 581,142 581,142 581,142 581,142 581,143 582,143 582,143 582,143 582,143 582,143 582,144 582,144 582,144 582,144 582,144 582,144 582,145 582,144 583,144 583,144 583,144 583,144 583,144 583,143 583,143 583,143 583,143 583,143 583,143 583,143 583,143 584,143 584,143 584,143 584,143 584,143 584,143 584,143 584,143 584,143 584,143 584,143 584,143 584,143 585,143 585,142 585,142 585,142 585,142 585,142 585,142 585,142 585,142 585,142 585,142 585,142 585,142 586,142 586,142 586,142 586,142 586,141 586,141 586,141 586,141 586,141 586,141 586,140 586,140 586,140 587,140 587,139 587,139 587,140 587,140 587,140 587,140 587,141 587,141 587,141 587,141 587,141 587,141 588,142 588,142 588,141 588,141 588,141 588,141 588,140 588,140 588,139 588,139 588,138 588,137 588,136 589,136 589,135 589,135 589,135 589,134 589,134 589,134 589,134 589,134 589,134 589,134 589,134 589,134 590,134 590,134 590,134 590,134 590,134 590,134 590,134 590,134 590,133 590,133 590,133 590,133 590,133 591,133 591,133 591,133 591,133 591,133 591,133 591,133 591,134 591,134 591,134 591,134 591,134 591,134 592,135 592,135 592,135 592,135 592,135 592,135 592,136 592,136 592,136 592,136 592,136 592,137 592,137 593,137 593,137 593,137 593,138 593,138 593,138 593,138 593,138 593,138 593,138 593,138 593,139 593,139 594,139 594,139 594,140 594,140 594,141 594,141 594,142 594,142 594,143 594,143 594,143 594,143 594,144 595,144 595,144 595,144 595,144 595,144 595,145 595,145 595,145 595,145 595,145 595,145 595,146 595,146 596,146 596,146 596,146 596,147 596,147 596,147 596,146 596,146 596,146 596,146 596,146 596,146 596,146 597,146 597,146 597,146 597,146 597,146 597,146 597,145 597,145 597,144 597,144 597,144 597,144 597,144 598,144 598,144 598,144 598,144 598,144 598,144 598,144 598,144 598,144 598,144 598,144 598,145 598,145 599,145 599,145 599,146 599,145 599,145 599,145 599,145 599,145 599,145 599,145 599,145 599,144 599,144 600,144 600,143 600,143 600,143 600,142 600,142 600,141 600,141 600,141 600,141 600,141 600,140 600,140 601,140 601,140 601,139 601,139 601,139 601,139 601,139 601,138 601,138 601,138 601,138 601,138 601,138 602,138 602,138 602,138 602,138 602,138 602,138 602,138 602,138 602,138 602,138 602,138 602,138 602,138 603,139 603,139 603,140 603,140 603,141 603,142 603,142 603,142 603,143 603,143 603,143 603,143 603,143 604,143 604,143 604,143 604,143 604,143 604,142 604,142 604,142 604,141 604,141 604,141 604,140 604,140 605,140 605,140 605,140 605,140 605,140 605,139 605,139 605,139 605,139 605,139 605,139 605,139 605,139 606,139 606,140 606,140 606,140 606,140 606,140 606,140 606,140 606,140 606,140 606,140 606,140 606,140 607,141 607,141 607,141 607,141 607,141 607,141 607,141 607,141 607,141 607,141 607,141 607,141 607,140 608,140 608,140 608,140 608,140 608,140 608,140 608,140 608,140 608,139 608,139 608,139 608,139 608,139 609,139 609,138 609,138 609,138 609,137 609,137 609,137 609,136 609,136 609,136 609,135 609,135 609,135 610,134 610,134 610,134 610,134 610,134 610,133 610,133 610,133 610,133 610,133 610,133 610,133 610,133 611,133 611,132 611,132 611,132 611,132 611,132 611,132 611,132 611,131 611,131 611,131 611,131 611,130 612,130 612,130 612,129 612,129 612,128 612,128 612,127 612,127 612,127 612,126 612,126 612,125 612,125 613,124 613,124 613,123 613,123 613,123 613,123 613,123 613,124 613,124 613,124 613,125 613,125 613,125 614,125 614,125 614,125 614,126 614,126 614,126 614,126 614,126 614,127 614,127 614,127 614,127 614,128 615,128 615,128 615,128 615,129 615,129 615,129 615,129 615,130 615,130 615,130 615,130 615,130 615,131 616,131 616,131 616,132 616,132 616,132 616,133 616,133 616,133 616,133 616,134 616,134 616,135 616,135 617,135 617,135 617,135 617,135 617,135 617,135 617,136 617,136 617,136 617,137 617,137 617,137 617,138 618,138 618,138 618,138 618,138 618,138 618,138 618,138 618,138 618,138 618,139 618,139 618,140 618,140 619,140 619,140 619,140 619,140 619,140 619,140 619,140 619,140 619,140 619,140 619,140 619,140 619,140 620,140 620,140 620,140 620,140 620,139 620,140 620,140 620,140 620,140 620,140 620,140 620,140 620,140 621,141 621,141 621,141 621,141 621,141 621,141 621,141 621,141 621,141 621,142 621,142 621,142 621,142 622,142 622,142 622,142 622,142 622,142 622,142 622,143 622,143 622,143 622,143 622,143 622,143 622,143 623,143 623,143 623,143 623,143 623,143 623,143 623,143 623,143 623,143 623,143 623,143 623,143 623,143 624,143 624,143 624,143 624,143 624,143 624,143 624,143 624,143 624,143 624,143 624,143 624,143 624,143 625,143 625,143 625,143 625,143 625,143 625,143 625,143 625,143 625,143 625,143 625,143 625,143 625,143 626,143 626,143 626,143 626,143 626,143 626,143 626,143 626,144 626,144 626,144 626,144 626,144 626,144 627,144 627,144 627,144 627,144 627,144 627,145 627,145 627,145 627,145 627,145 627,145 627,145 627,145 628,145 628,145 628,145 628,145 628,145 628,145 628,145 628,145 628,145 628,145 628,145 628,145 628,145 629,145 629,145 629,145 629,145 629,146 629,146 629,146 629,146 629,146 629,146 629,147 629,147 629,147 630,147 630,147 630,147 630,147 630,147 630,147 630,147 630,147 630,147 630,147 630,147 630,148 630,148 631,148 631,148 631,148 631,148 631,148 631,148 631,148 631,148 631,148 631,149 631,149 631,149 631,149 632,149 632,149 632,149 632,149 632,149 632,149 632,149 632,149 632,149 632,149 632,149 632,149 632,149 633,149 633,149 633,149 633,149 633,149 633,149 633,149 633,149 633,149 633,149 633,149 633,149 633,149 634,149 634,149 634,150 634,150 634,150 634,150 634,150 634,150 634,150 634,150 634,151 634,151 634,151 635,151 635,152 635,152 635,152 635,152 635,153 635,153 635,153 635,153 635,154 635,154 635,154 635,154 636,154 636,154 636,155 636,155 636,155 636,155 636,155 636,156 636,156 636,156 636,155 636,155 636,155 637,154 637,154 637,154 637,154 637,154 637,154 637,154 637,154 637,154 637,154 637,154 637,154 637,154 638,154 638,154 638,154 638,154 638,154 638,154 638,154 638,154 638,154 638,154 638,154 638,154 638,154 639,154 639,154 639,154 639,154 639,154 639,154 639,154 639,154 639,154 639,154 639,154 639,154 639,154 640,153 640,153 640,153 640,153 640,153 640,153 640,153 640,153 640,153 640,153 640,153 640,153 640,153 641,153 641,153 641,153 641,153 641,153 641,153 641,154 641,154 641,154 641,154 641,153 641,153 641,153 642,153 642,153 642,153 642,153 642,153 642,153 642,152 642,152 642,152 642,152 642,152 642,152 642,152 643,152 643,151 643,151 643,151 643,151 643,151 643,151 643,150 643,150 643,150 643,150 643,150 643,150 644,150 644,149 644,149 644,149 644,149 644,149 644,149 644,148 644,148 644,148 644,148 644,148 644,148 645,148 645,147 645,147 645,147 645,147 645,147 645,147 645,147 645,147 645,147 645,147 645,147 645,147 646,147 646,147 646,146 646,146 646,146 646,146 646,146 646,146 646,146 646,146 646,146 646,146 646,146 647,145 647,145 647,145 647,145 647,145 647,145 647,145 647,145 647,145 647,145 647,145 647,144 647,144 648,144 648,144 648,144 648,144 648,143 648,143 648,143 648,142 648,142 648,142 648,141 648,141 648,140 649,140 649,140 649,140 649,140 649,139 649,139 649,139 649,139 649,139 649,139 649,139 649,139 649,139 650,139 650,139 650,140 650,140 650,140 650,140 650,141 650,141 650,141 650,141 650,142 650,142 650,142 651,143 651,143 651,143 651,143 651,144 651,144 651,144 651,144 651,145 651,145 651,146 651,146 651,146 652,147 652,147 652,147 652,147 652,147 652,147 652,147 652,147 652,148 652,148 652,148 652,148 652,148 653,148 653,148 653,148 653,148 653,148 653,148 653,147 653,147 653,147 653,147 653,147 653,147 653,147 654,147 654,146 654,146 654,146 654,146 654,146 654,146 654,146 654,145 654,145 654,145 654,145 654,145 655,145 655,145 655,145 655,145 655,145 655,145 655,145 655,145 655,144 655,144 655,144 655,144 655,143 655,143 656,143 656,143 656,143 656,142 656,142 656,142 656,142 656,142 656,142 656,142 656,142 656,141 656,141 657,141 657,141 657,141 657,141 657,141 657,141 657,141 657,141 657,141 657,141 657,141 657,141 657,141 658,141 658,141 658,141 658,141 658,141 658,142 658,142 658,142 658,142 658,143 658,143 658,143 658,143 659,143 659,143 659,144 659,144 659,144 659,144 659,144 659,145 659,145 659,145 659,145 659,145 659,146 660,146 660,146 660,146 660,146 660,147 660,147 660,147 660,147 660,147 660,147 660,148 660,148 660,148 661,148 661,148 661,148 661,148 661,149 661,149 661,149 661,149 661,149 661,149 661,149 661,150 661,150 662,150 662,150 662,150 662,150 662,150 662,150 662,150 662,150 662,150 662,150 662,150 662,150 662,150 663,150 663,150 663,150 663,151 663,151 663,151 663,151 663,151 663,151 663,151 663,151 663,151 663,151 664,151 664,151 664,151 664,151 664,151 664,151 664,151 664,151 664,151 664,151 664,152 664,152 664,152 665,152 665,152 665,152 665,152 665,151 665,151 665,151 665,151 665,151 665,151 665,151 665,151 665,151 666,151 666,150 666,150 666,150 666,150 666,150 666,150 666,150 666,150 666,150 666,150 666,150 666,150 667,150 667,150 667,149 667,149 667,149 667,149 667,149 667,149 667,149 667,149 667,149 667,149 667,149 668,149 668,149 668,149 668,149 668,149 668,149 668,149 668,148 668,148 668,148 668,148 668,148 668,148 669,148 669,148 669,147 669,147 669,147 669,147 669,147 669,146 669,146 669,146 669,146 669,146 669,146 670,146 670,145 670,145 670,145 670,145 670,144 670,144 670,144 670,144 670,144 670,144 670,144 670,143 671,143 671,143 671,143 671,143 671,143 671,143 671,143 671,143 671,142 671,142 671,142 671,142 671,142 672,142 672,142 672,142 672,142 672,142 672,141 672,141 672,141 672,140 672,140 672,140 672,140 672,140 673,139 673,139 673,139 673,139 673,139 673,139 673,139 673,139 673,139 673,139 673,139 673,139 673,139 674,139 674,139 674,139 674,140 674,140 674,140 674,140 674,140 674,140 674,140 674,140 674,140 674,140 675,140 675,139 675,139 675,139 675,139 675,139 675,139 675,138 675,138 675,138 675,138 675,138 675,138 676,138 676,138 676,138 676,139 676,139 676,139 676,139 676,139 676,139 676,139 676,139 676,139 676,139 677,139 677,139 677,139 677,139 677,139 677,139 677,139 677,139 677,139 677,140 677,140 677,140 677,140 678,140 678,140 678,141 678,141 678,141 678,141 678,141 678,141 678,141 678,141 678,142 678,142 678,142 679,142 679,142 679,142 679,142 679,142 679,142 679,142 679,142 679,142 679,141 679,141 679,141 679,141 680,141 680,141 680,141 680,141 680,140 680,140 680,140 680,140 680,140 680,140 680,139 680,139 680,139 681,139 681,138 681,138 681,138 681,138 681,137 681,137 681,136 681,136 681,136 681,136 681,135 681,135 682,135 682,135 682,135 682,135 682,135 682,135 682,135 682,135 682,135 682,135 682,135 682,135 682,135 683,135 683,135 683,135 683,135 683,135 683,135 683,136 683,136 683,136 683,136 683,137 683,137 683,137 684,137 684,137 684,137 684,138 684,139 684,139 684,140 684,139 684,138 684,137 684,136 684,136 684,136 685,136 685,136 685,137 685,137 685,137 685,137 685,137 685,137 685,137 685,137 685,137 685,138 685,138 686,138 686,138 686,138 686,138 686,138 686,139 686,139 686,139 686,139 686,139 686,139 686,139 686,139 687,139 687,139 687,139 687,139 687,139 687,140 687,140 687,140 687,140 687,140 687,140 687,140 687,140 688,140 688,140 688,140 688,140 688,139 688,139 688,139 688,139 688,139 688,139 688,138 688,138 688,138 689,138 689,138 689,138 689,137 689,137 689,137 689,137 689,137 689,137 689,137 689,137 689,136 689,136 690,136 690,136 690,136 690,136 690,136 690,136 690,136 690,136 690,136 690,136 690,136 690,136 690,137 691,137 691,137 691,137 691,137 691,136 691,136 691,136 691,136 691,136 691,135 691,135 691,135 691,135 692,135 692,135 692,134 692,134 692,134 692,134 692,134 692,133 692,133 692,133 692,133 692,133 692,133 693,133 693,133 693,133 693,133 693,133 693,133 693,133 693,133 693,134 693,134 693,134 693,134 693,134 694,134 694,134 694,134 694,134 694,134 694,134 694,135 694,135 694,135 694,135 694,135 694,135 694,135 695,135 695,136 695,136 695,136 695,136 695,136 695,136 695,136 695,136 695,136 695,136 695,136 695,136 696,136 696,136 696,135 696,135 696,136 696,136 696,136 696,136 696,136 696,136 696,136 696,136 696,136 697,136 697,136 697,135 697,135 697,135 697,135 697,135 697,135 697,135 697,135 697,135 697,135 697,135 698,135 698,135 698,136 698,136 698,136 698,136 698,136 698,136 698,136 698,136 698,136 698,136 698,137 699,137 699,137 699,137 699,137 699,137 699,136 699,136 699,136 699,136 699,136 699,136 699,136 699,135 700,135 700,135 700,135 700,135 700,135 700,135 700,135 700,135 700,135 700,135 700,135 700,134 700,134 701,134 701,134 701,133 701,133 701,133 701,133 701,133 701,133 701,133 701,133 701,133 701,133 701,133 702,133 702,133 702,133 702,133 702,133 702,132 702,132 702,132 702,132 702,132 702,131 702,131 702,131 703,131 703,131 703,131 703,130 703,130 703,130 703,130 703,129 703,129 703,129 703,129 703,129 703,128 704,128 704,128 704,128 704,128 704,127 704,127 704,127 704,127 704,127 704,127 704,127 704,127 704,127 705,126 705,126 705,126 705,126 705,126 705,126 705,126 705,126 705,125 705,125 705,125 705,125 705,125 706,125 706,125 706,125 706,125 706,125 706,125 706,124 706,124 706,124 706,124 706,124 706,124 706,124 707,124 707,123 707,123 707,123 707,123 707,123 707,122 707,122 707,122 707,122 707,121 707,121 707,121 708,121 708,120 708,120 708,120 708,120 708,120 708,119 708,119 708,119 708,119 708,118 708,118 708,118 709,118 709,118 709,117 709,117 709,117 709,117 709,117 709,117 709,117 709,117 709,117 709,117 709,117 710,117 710,117 710,117 710,117 710,117 710,117 710,117 710,117 710,117 710,117 710,118 710,118 710,118 711,118 711,119 711,119 711,119 711,119 711,120 711,120 711,120 711,120 711,121 711,121 711,121 711,121 712,122 712,122 712,122 712,122 712,122 712,122 712,122 712,122 712,122 712,122 712,123 712,123 712,123 713,123 713,123 713,123 713,123 713,123 713,123 713,123 713,123 713,123 713,123 713,123 713,123 713,123 714,123 714,123 714,123 714,123 714,123 714,123 714,123 714,123 714,123 714,123 714,123 714,123 714,123 715,123 715,123 715,123 715,123 715,123 715,124 715,124 715,124 715,124 715,124 715,125 715,125 715,125 716,125 716,125 716,125 716,126 716,126 716,126 716,126 716,126 716,126 716,127 716,127 716,127 716,127 717,128 717,128 717,128 717,129 717,129 717,130 717,130 717,130 717,130 717,130 717,131 717,131 717,131 718,131 718,131 718,131 718,131 718,131 718,131 718,131 718,131 718,131 718,131 718,131 718,131 718,131 719,131 719,130 719,130 719,130 719,130 719,130 719,130 719,130 719,130 719,130 719,130 719,130 719,130 720,130 720,130 720,130 720,130 720,131 720,131 720,131 720,131 720,131 720,132 720,132 720,132 720,132 721,133 721,133 721,133 721,133 721,134 721,134 721,134 721,134 721,134 721,135 721,135 721,135 721,135 722,135 722,135 722,136 722,136 722,136 722,137 722,137 722,137 722,137 722,137 722,138 722,138 722,138 723,138 723,138 723,138 723,139 723,139 723,139 723,139 723,139 723,140 723,140 723,140 723,140 723,140 724,140 724,141 724,141 724,141 724,141 724,141 724,142 724,142 724,142 724,142 724,142 724,142 724,142 725,143 725,143 725,143 725,143 725,143 725,143 725,143 725,144 725,144 725,144 725,144 725,144 725,145 726,145 726,145 726,145 726,145 726,145 726,145 726,145 726,145 726,144 726,144 726,144 726,144 726,144 727,144 727,144 727,144 727,144 727,144 727,144 727,144 727,144 727,144 727,145 727,145 727,146 727,146 728,146 728,147 728,147 728,147 728,148 728,148 728,149 728,149 728,149 728,150 728,150 728,150 728,150 728,151 729,151 729,151 729,151 729,151 729,152 729,152 729,152 729,152 729,152 729,152 729,152 729,153 729,153 730,153 730,153 730,153 730,153 730,153 730,153 730,153 730,153 730,153 730,153 730,153 730,153 730,153 731,153 731,154 731,154 731,154 731,154 731,154 731,154 731,155 731,155 731,155 731,155 731,155 731,155 732,155 732,155 732,155 732,155 732,156 732,156 732,156 732,156 732,156 732,156 732,156 732,156 732,156 733,157 733,157 733,157 733,157 733,157 733,157 733,158 733,158 733,158 733,158 733,158 733,158 733,158 734,159 734,159 734,159 734,159 734,158 734,158 734,158 734,158 734,158 734,158 734,158 734,158 734,158 735,158 735,158 735,158 735,158 735,158 735,159 735,159 735,159 735,159 735,159 735,159 735,159 735,159 736,159 736,159 736,159 736,160 736,160 736,160 736,160 736,160 736,160 736,160 736,160 " vector-effect="non-scaling-stroke"></polyline>
</g></svg>