<!-- Generator: Adobe Illustrator 19.2.0, SVG Export Plug-In  -->
<!DOCTYPE svg PUBLIC "-//W3C//DTD SVG 1.1//EN" "http://www.w3.org/Graphics/SVG/1.1/DTD/svg11.dtd" [
	<!ENTITY ns_flows "http://ns.adobe.com/Flows/1.0/">
	<!ENTITY st0 "fill:none;stroke:#FFFFFF;stroke-linecap:square;stroke-linejoin:bevel;stroke-dasharray:1,2;">
	<!ENTITY st1 "fill:none;stroke:#624949;stroke-width:1.5;stroke-linecap:round;stroke-linejoin:round;">
	<!ENTITY st2 "fill:#624949;">
]>
<svg version="1.1"
	 xmlns="http://www.w3.org/2000/svg" xmlns:xlink="http://www.w3.org/1999/xlink" xmlns:a="http://ns.adobe.com/AdobeSVGViewerExtensions/3.0/"
	 x="0px" y="0px" width="759px" height="380px" preserveAspectRatio="none" viewBox="0 0 759 380" style="enable-background:new 0 0 759 380;"
	 xml:space="preserve">
<defs>
</defs>
<line vector-effect="non-scaling-stroke" style="&st0;" x1="0.5" y1="0.5" x2="0.5" y2="379.5"/>
<line vector-effect="non-scaling-stroke" style="&st0;" x1="95.5" y1="0.5" x2="95.5" y2="379.5"/>
<line vector-effect="non-scaling-stroke" style="&st0;" x1="190.5" y1="0.5" x2="190.5" y2="379.5"/>
<line vector-effect="non-scaling-stroke" style="&st0;" x1="284.5" y1="0.5" x2="284.5" y2="379.5"/>
<line vector-effect="non-scaling-stroke" style="&st0;" x1="379.5" y1="0.5" x2="379.5" y2="379.5"/>
<line vector-effect="non-scaling-stroke" style="&st0;" x1="474.5" y1="0.5" x2="474.5" y2="379.5"/>
<line vector-effect="non-scaling-stroke" style="&st0;" x1="569.5" y1="0.5" x2="569.5" y2="379.5"/>
<line vector-effect="non-scaling-stroke" style="&st0;" x1="663.5" y1="0.5" x2="663.5" y2="379.5"/>
<line vector-effect="non-scaling-stroke" style="&st0;" x1="758.5" y1="0.5" x2="758.5" y2="379.5"/>
<line vector-effect="non-scaling-stroke" style="&st0;" x1="0.5" y1="379.5" x2="758.5" y2="379.5"/>
<line vector-effect="non-scaling-stroke" style="&st0;" x1="0.5" y1="325.5" x2="758.5" y2="325.5"/>
<line vector-effect="non-scaling-stroke" style="&st0;" x1="0.5" y1="270.5" x2="758.5" y2="270.5"/>
<line vector-effect="non-scaling-stroke" style="&st0;" x1="0.5" y1="216.5" x2="758.5" y2="216.5"/>
<line vector-effect="non-scaling-stroke" style="&st0;" x1="0.5" y1="162.5" x2="758.5" y2="162.5"/>
<line vector-effect="non-scaling-stroke" style="&st0;" x1="0.5" y1="108.5" x2="758.5" y2="108.5"/>
<line vector-effect="non-scaling-stroke" style="&st0;" x1="0.5" y1="53.5" x2="758.5" y2="53.5"/>
<g transform="matrix(1,0,0,1,0,0)">
	<polyline vector-effect="non-scaling-stroke" style="&st1;" points="716.5,324.5 716.5,324.5 716.5,324.5 716.5,324.5 716.5,324.5 
		716.5,324.5 716.5,324.5 716.5,324.5 716.5,324.5 	"/>
</g>
<g transform="matrix(1,0,0,1,0,0)">
	<polyline vector-effect="non-scaling-stroke" style="&st2;" points="709.5,379.5 118.5,379.5 118.5,354.5 119.5,354.5 119.5,354.5 
		119.5,353.5 119.5,353.5 119.5,353.5 119.5,352.5 119.5,352.5 119.5,352.5 119.5,352.5 119.5,352.5 119.5,352.5 119.5,352.5 
		119.5,352.5 120.5,351.5 120.5,351.5 120.5,351.5 120.5,351.5 120.5,351.5 120.5,350.5 120.5,350.5 120.5,350.5 120.5,350.5 
		120.5,350.5 120.5,350.5 120.5,350.5 120.5,349.5 121.5,349.5 121.5,349.5 121.5,349.5 121.5,349.5 121.5,349.5 121.5,349.5 
		121.5,348.5 121.5,348.5 121.5,348.5 121.5,348.5 121.5,348.5 121.5,348.5 121.5,348.5 122.5,347.5 122.5,347.5 122.5,347.5 
		122.5,347.5 122.5,347.5 122.5,347.5 122.5,346.5 122.5,346.5 122.5,346.5 122.5,346.5 122.5,346.5 122.5,346.5 122.5,346.5 
		123.5,346.5 123.5,345.5 123.5,345.5 123.5,345.5 123.5,345.5 123.5,345.5 123.5,344.5 123.5,344.5 123.5,344.5 123.5,343.5 
		123.5,343.5 123.5,343.5 123.5,343.5 124.5,343.5 124.5,343.5 124.5,343.5 124.5,342.5 124.5,342.5 124.5,341.5 124.5,341.5 
		124.5,341.5 124.5,341.5 124.5,341.5 124.5,341.5 124.5,341.5 124.5,340.5 124.5,340.5 125.5,340.5 125.5,340.5 125.5,340.5 
		125.5,340.5 125.5,339.5 125.5,339.5 125.5,339.5 125.5,339.5 125.5,338.5 125.5,338.5 125.5,338.5 125.5,338.5 125.5,337.5 
		126.5,337.5 126.5,337.5 126.5,336.5 126.5,336.5 126.5,336.5 126.5,335.5 126.5,335.5 126.5,335.5 126.5,334.5 126.5,334.5 
		126.5,334.5 126.5,333.5 126.5,333.5 127.5,333.5 127.5,332.5 127.5,332.5 127.5,332.5 127.5,331.5 127.5,331.5 127.5,331.5 
		127.5,330.5 127.5,330.5 127.5,330.5 127.5,330.5 127.5,329.5 127.5,329.5 128.5,329.5 128.5,328.5 128.5,328.5 128.5,327.5 
		128.5,327.5 128.5,327.5 128.5,327.5 128.5,327.5 128.5,327.5 128.5,327.5 128.5,326.5 128.5,326.5 128.5,326.5 129.5,325.5 
		129.5,325.5 129.5,325.5 129.5,325.5 129.5,325.5 129.5,325.5 129.5,324.5 129.5,324.5 129.5,324.5 129.5,323.5 129.5,323.5 
		129.5,323.5 129.5,322.5 130.5,322.5 130.5,322.5 130.5,322.5 130.5,322.5 130.5,321.5 130.5,321.5 130.5,321.5 130.5,321.5 
		130.5,320.5 130.5,320.5 130.5,320.5 130.5,320.5 130.5,320.5 131.5,319.5 131.5,319.5 131.5,318.5 131.5,318.5 131.5,318.5 
		131.5,317.5 131.5,317.5 131.5,316.5 131.5,316.5 131.5,316.5 131.5,315.5 131.5,315.5 131.5,314.5 132.5,314.5 132.5,313.5 
		132.5,313.5 132.5,312.5 132.5,312.5 132.5,311.5 132.5,311.5 132.5,311.5 132.5,310.5 132.5,310.5 132.5,310.5 132.5,309.5 
		132.5,309.5 133.5,309.5 133.5,309.5 133.5,309.5 133.5,308.5 133.5,308.5 133.5,308.5 133.5,308.5 133.5,308.5 133.5,308.5 
		133.5,308.5 133.5,307.5 133.5,307.5 133.5,307.5 134.5,307.5 134.5,306.5 134.5,306.5 134.5,306.5 134.5,306.5 134.5,306.5 
		134.5,306.5 134.5,305.5 134.5,305.5 134.5,305.5 134.5,305.5 134.5,306.5 134.5,306.5 135.5,306.5 135.5,306.5 135.5,306.5 
		135.5,306.5 135.5,306.5 135.5,307.5 135.5,307.5 135.5,307.5 135.5,307.5 135.5,307.5 135.5,307.5 135.5,307.5 135.5,307.5 
		136.5,307.5 136.5,306.5 136.5,306.5 136.5,306.5 136.5,306.5 136.5,305.5 136.5,306.5 136.5,305.5 136.5,305.5 136.5,305.5 
		136.5,305.5 136.5,305.5 136.5,305.5 137.5,305.5 137.5,305.5 137.5,305.5 137.5,305.5 137.5,306.5 137.5,306.5 137.5,306.5 
		137.5,306.5 137.5,306.5 137.5,306.5 137.5,306.5 137.5,306.5 137.5,307.5 138.5,307.5 138.5,307.5 138.5,308.5 138.5,308.5 
		138.5,309.5 138.5,309.5 138.5,309.5 138.5,309.5 138.5,308.5 138.5,308.5 138.5,307.5 138.5,306.5 138.5,306.5 139.5,305.5 
		139.5,304.5 139.5,304.5 139.5,304.5 139.5,303.5 139.5,303.5 139.5,303.5 139.5,303.5 139.5,303.5 139.5,303.5 139.5,303.5 
		139.5,302.5 139.5,301.5 140.5,301.5 140.5,302.5 140.5,301.5 140.5,302.5 140.5,302.5 140.5,302.5 140.5,302.5 140.5,302.5 
		140.5,301.5 140.5,301.5 140.5,302.5 140.5,302.5 140.5,301.5 141.5,301.5 141.5,302.5 141.5,301.5 141.5,301.5 141.5,301.5 
		141.5,301.5 141.5,301.5 141.5,301.5 141.5,300.5 141.5,300.5 141.5,300.5 141.5,299.5 141.5,299.5 142.5,298.5 142.5,298.5 
		142.5,297.5 142.5,297.5 142.5,296.5 142.5,295.5 142.5,294.5 142.5,294.5 142.5,294.5 142.5,293.5 142.5,293.5 142.5,293.5 
		142.5,292.5 143.5,292.5 143.5,292.5 143.5,291.5 143.5,291.5 143.5,290.5 143.5,289.5 143.5,289.5 143.5,289.5 143.5,289.5 
		143.5,289.5 143.5,288.5 143.5,288.5 143.5,288.5 144.5,288.5 144.5,287.5 144.5,287.5 144.5,287.5 144.5,287.5 144.5,287.5 
		144.5,286.5 144.5,286.5 144.5,286.5 144.5,285.5 144.5,285.5 144.5,285.5 144.5,285.5 145.5,284.5 145.5,284.5 145.5,284.5 
		145.5,284.5 145.5,284.5 145.5,284.5 145.5,284.5 145.5,284.5 145.5,283.5 145.5,283.5 145.5,283.5 145.5,283.5 145.5,283.5 
		146.5,283.5 146.5,283.5 146.5,283.5 146.5,283.5 146.5,284.5 146.5,284.5 146.5,284.5 146.5,285.5 146.5,285.5 146.5,285.5 
		146.5,285.5 146.5,285.5 146.5,285.5 147.5,285.5 147.5,285.5 147.5,285.5 147.5,286.5 147.5,286.5 147.5,287.5 147.5,287.5 
		147.5,287.5 147.5,288.5 147.5,288.5 147.5,288.5 147.5,288.5 147.5,288.5 148.5,288.5 148.5,287.5 148.5,287.5 148.5,287.5 
		148.5,286.5 148.5,286.5 148.5,286.5 148.5,286.5 148.5,286.5 148.5,286.5 148.5,286.5 148.5,285.5 148.5,285.5 149.5,285.5 
		149.5,285.5 149.5,284.5 149.5,284.5 149.5,284.5 149.5,284.5 149.5,284.5 149.5,283.5 149.5,283.5 149.5,283.5 149.5,283.5 
		149.5,283.5 149.5,284.5 150.5,284.5 150.5,284.5 150.5,285.5 150.5,285.5 150.5,285.5 150.5,284.5 150.5,284.5 150.5,284.5 
		150.5,284.5 150.5,285.5 150.5,285.5 150.5,285.5 150.5,285.5 151.5,285.5 151.5,285.5 151.5,285.5 151.5,285.5 151.5,285.5 
		151.5,285.5 151.5,285.5 151.5,285.5 151.5,285.5 151.5,285.5 151.5,285.5 151.5,286.5 151.5,286.5 152.5,286.5 152.5,286.5 
		152.5,286.5 152.5,285.5 152.5,285.5 152.5,285.5 152.5,284.5 152.5,284.5 152.5,284.5 152.5,284.5 152.5,284.5 152.5,284.5 
		152.5,284.5 153.5,283.5 153.5,283.5 153.5,283.5 153.5,283.5 153.5,283.5 153.5,283.5 153.5,283.5 153.5,283.5 153.5,283.5 
		153.5,283.5 153.5,283.5 153.5,283.5 153.5,283.5 154.5,283.5 154.5,283.5 154.5,282.5 154.5,282.5 154.5,282.5 154.5,282.5 
		154.5,282.5 154.5,282.5 154.5,282.5 154.5,282.5 154.5,282.5 154.5,282.5 154.5,282.5 155.5,282.5 155.5,282.5 155.5,282.5 
		155.5,282.5 155.5,282.5 155.5,282.5 155.5,282.5 155.5,282.5 155.5,281.5 155.5,281.5 155.5,281.5 155.5,281.5 155.5,281.5 
		156.5,281.5 156.5,281.5 156.5,281.5 156.5,281.5 156.5,281.5 156.5,281.5 156.5,281.5 156.5,281.5 156.5,281.5 156.5,281.5 
		156.5,281.5 156.5,281.5 156.5,280.5 157.5,280.5 157.5,280.5 157.5,280.5 157.5,280.5 157.5,280.5 157.5,280.5 157.5,280.5 
		157.5,280.5 157.5,280.5 157.5,280.5 157.5,280.5 157.5,280.5 157.5,280.5 158.5,280.5 158.5,280.5 158.5,279.5 158.5,279.5 
		158.5,279.5 158.5,279.5 158.5,279.5 158.5,279.5 158.5,279.5 158.5,279.5 158.5,279.5 158.5,279.5 158.5,279.5 159.5,279.5 
		159.5,279.5 159.5,279.5 159.5,279.5 159.5,279.5 159.5,278.5 159.5,278.5 159.5,278.5 159.5,278.5 159.5,278.5 159.5,278.5 
		159.5,278.5 159.5,278.5 160.5,278.5 160.5,278.5 160.5,278.5 160.5,278.5 160.5,278.5 160.5,278.5 160.5,278.5 160.5,278.5 
		160.5,279.5 160.5,279.5 160.5,279.5 160.5,280.5 160.5,280.5 161.5,280.5 161.5,280.5 161.5,281.5 161.5,281.5 161.5,281.5 
		161.5,281.5 161.5,280.5 161.5,280.5 161.5,280.5 161.5,280.5 161.5,280.5 161.5,280.5 161.5,280.5 162.5,279.5 162.5,279.5 
		162.5,279.5 162.5,279.5 162.5,279.5 162.5,279.5 162.5,279.5 162.5,279.5 162.5,279.5 162.5,279.5 162.5,278.5 162.5,278.5 
		162.5,278.5 163.5,278.5 163.5,278.5 163.5,279.5 163.5,279.5 163.5,279.5 163.5,279.5 163.5,280.5 163.5,281.5 163.5,282.5 
		163.5,283.5 163.5,283.5 163.5,283.5 163.5,284.5 164.5,284.5 164.5,284.5 164.5,284.5 164.5,284.5 164.5,285.5 164.5,285.5 
		164.5,285.5 164.5,285.5 164.5,286.5 164.5,286.5 164.5,285.5 164.5,285.5 164.5,284.5 165.5,283.5 165.5,281.5 165.5,280.5 
		165.5,278.5 165.5,278.5 165.5,278.5 165.5,278.5 165.5,278.5 165.5,277.5 165.5,277.5 165.5,277.5 165.5,278.5 165.5,278.5 
		166.5,278.5 166.5,278.5 166.5,278.5 166.5,278.5 166.5,278.5 166.5,278.5 166.5,278.5 166.5,278.5 166.5,279.5 166.5,279.5 
		166.5,279.5 166.5,279.5 166.5,278.5 167.5,278.5 167.5,278.5 167.5,278.5 167.5,278.5 167.5,279.5 167.5,279.5 167.5,279.5 
		167.5,278.5 167.5,278.5 167.5,278.5 167.5,278.5 167.5,279.5 167.5,279.5 168.5,279.5 168.5,279.5 168.5,280.5 168.5,280.5 
		168.5,281.5 168.5,281.5 168.5,281.5 168.5,282.5 168.5,282.5 168.5,282.5 168.5,283.5 168.5,283.5 168.5,283.5 169.5,284.5 
		169.5,284.5 169.5,284.5 169.5,284.5 169.5,284.5 169.5,284.5 169.5,284.5 169.5,284.5 169.5,284.5 169.5,284.5 169.5,285.5 
		169.5,285.5 169.5,285.5 170.5,285.5 170.5,285.5 170.5,285.5 170.5,285.5 170.5,285.5 170.5,285.5 170.5,285.5 170.5,285.5 
		170.5,285.5 170.5,285.5 170.5,285.5 170.5,286.5 170.5,286.5 171.5,286.5 171.5,285.5 171.5,285.5 171.5,285.5 171.5,285.5 
		171.5,285.5 171.5,284.5 171.5,284.5 171.5,284.5 171.5,284.5 171.5,284.5 171.5,284.5 171.5,284.5 172.5,284.5 172.5,283.5 
		172.5,283.5 172.5,283.5 172.5,283.5 172.5,283.5 172.5,283.5 172.5,283.5 172.5,283.5 172.5,283.5 172.5,283.5 172.5,283.5 
		172.5,283.5 173.5,283.5 173.5,283.5 173.5,283.5 173.5,283.5 173.5,283.5 173.5,284.5 173.5,284.5 173.5,284.5 173.5,284.5 
		173.5,284.5 173.5,283.5 173.5,283.5 173.5,283.5 174.5,283.5 174.5,284.5 174.5,284.5 174.5,284.5 174.5,284.5 174.5,283.5 
		174.5,283.5 174.5,283.5 174.5,284.5 174.5,284.5 174.5,284.5 174.5,284.5 174.5,284.5 175.5,284.5 175.5,284.5 175.5,284.5 
		175.5,284.5 175.5,284.5 175.5,284.5 175.5,284.5 175.5,284.5 175.5,284.5 175.5,284.5 175.5,284.5 175.5,284.5 175.5,284.5 
		176.5,284.5 176.5,284.5 176.5,284.5 176.5,284.5 176.5,284.5 176.5,284.5 176.5,284.5 176.5,284.5 176.5,284.5 176.5,284.5 
		176.5,284.5 176.5,284.5 176.5,284.5 177.5,284.5 177.5,284.5 177.5,284.5 177.5,284.5 177.5,284.5 177.5,284.5 177.5,284.5 
		177.5,284.5 177.5,284.5 177.5,284.5 177.5,284.5 177.5,284.5 177.5,284.5 178.5,284.5 178.5,284.5 178.5,284.5 178.5,284.5 
		178.5,284.5 178.5,284.5 178.5,284.5 178.5,284.5 178.5,284.5 178.5,284.5 178.5,284.5 178.5,284.5 178.5,285.5 179.5,285.5 
		179.5,285.5 179.5,284.5 179.5,285.5 179.5,285.5 179.5,285.5 179.5,285.5 179.5,285.5 179.5,285.5 179.5,286.5 179.5,286.5 
		179.5,286.5 179.5,286.5 180.5,286.5 180.5,286.5 180.5,286.5 180.5,287.5 180.5,287.5 180.5,287.5 180.5,287.5 180.5,287.5 
		180.5,288.5 180.5,288.5 180.5,288.5 180.5,288.5 180.5,288.5 181.5,289.5 181.5,289.5 181.5,290.5 181.5,290.5 181.5,290.5 
		181.5,289.5 181.5,289.5 181.5,289.5 181.5,289.5 181.5,289.5 181.5,289.5 181.5,289.5 181.5,289.5 182.5,289.5 182.5,289.5 
		182.5,289.5 182.5,289.5 182.5,289.5 182.5,289.5 182.5,289.5 182.5,289.5 182.5,289.5 182.5,289.5 182.5,289.5 182.5,289.5 
		182.5,289.5 183.5,289.5 183.5,289.5 183.5,289.5 183.5,289.5 183.5,289.5 183.5,288.5 183.5,288.5 183.5,288.5 183.5,288.5 
		183.5,288.5 183.5,288.5 183.5,288.5 183.5,288.5 184.5,288.5 184.5,288.5 184.5,288.5 184.5,288.5 184.5,288.5 184.5,288.5 
		184.5,288.5 184.5,288.5 184.5,288.5 184.5,288.5 184.5,287.5 184.5,287.5 184.5,287.5 185.5,287.5 185.5,287.5 185.5,287.5 
		185.5,287.5 185.5,287.5 185.5,287.5 185.5,286.5 185.5,286.5 185.5,286.5 185.5,286.5 185.5,286.5 185.5,286.5 185.5,286.5 
		186.5,285.5 186.5,285.5 186.5,285.5 186.5,285.5 186.5,285.5 186.5,285.5 186.5,284.5 186.5,284.5 186.5,284.5 186.5,284.5 
		186.5,284.5 186.5,283.5 186.5,283.5 187.5,283.5 187.5,283.5 187.5,283.5 187.5,282.5 187.5,282.5 187.5,282.5 187.5,282.5 
		187.5,281.5 187.5,281.5 187.5,281.5 187.5,281.5 187.5,281.5 187.5,280.5 188.5,280.5 188.5,280.5 188.5,280.5 188.5,280.5 
		188.5,279.5 188.5,279.5 188.5,279.5 188.5,279.5 188.5,279.5 188.5,278.5 188.5,278.5 188.5,278.5 188.5,278.5 189.5,278.5 
		189.5,278.5 189.5,277.5 189.5,277.5 189.5,277.5 189.5,277.5 189.5,277.5 189.5,277.5 189.5,277.5 189.5,277.5 189.5,277.5 
		189.5,276.5 189.5,277.5 190.5,277.5 190.5,277.5 190.5,277.5 190.5,277.5 190.5,277.5 190.5,277.5 190.5,277.5 190.5,277.5 
		190.5,277.5 190.5,278.5 190.5,278.5 190.5,278.5 190.5,278.5 191.5,278.5 191.5,278.5 191.5,278.5 191.5,278.5 191.5,278.5 
		191.5,278.5 191.5,278.5 191.5,278.5 191.5,278.5 191.5,278.5 191.5,278.5 191.5,278.5 191.5,278.5 192.5,278.5 192.5,278.5 
		192.5,279.5 192.5,279.5 192.5,279.5 192.5,279.5 192.5,279.5 192.5,279.5 192.5,279.5 192.5,279.5 192.5,280.5 192.5,280.5 
		192.5,281.5 193.5,281.5 193.5,281.5 193.5,281.5 193.5,281.5 193.5,282.5 193.5,281.5 193.5,281.5 193.5,282.5 193.5,282.5 
		193.5,282.5 193.5,282.5 193.5,282.5 193.5,282.5 194.5,282.5 194.5,282.5 194.5,282.5 194.5,282.5 194.5,282.5 194.5,282.5 
		194.5,282.5 194.5,282.5 194.5,282.5 194.5,282.5 194.5,281.5 194.5,281.5 194.5,281.5 195.5,281.5 195.5,281.5 195.5,281.5 
		195.5,281.5 195.5,281.5 195.5,281.5 195.5,281.5 195.5,281.5 195.5,280.5 195.5,280.5 195.5,280.5 195.5,280.5 195.5,280.5 
		196.5,280.5 196.5,280.5 196.5,280.5 196.5,280.5 196.5,280.5 196.5,280.5 196.5,280.5 196.5,280.5 196.5,280.5 196.5,280.5 
		196.5,280.5 196.5,280.5 196.5,280.5 197.5,280.5 197.5,280.5 197.5,280.5 197.5,280.5 197.5,279.5 197.5,279.5 197.5,279.5 
		197.5,279.5 197.5,279.5 197.5,279.5 197.5,279.5 197.5,279.5 197.5,279.5 198.5,279.5 198.5,278.5 198.5,278.5 198.5,278.5 
		198.5,278.5 198.5,278.5 198.5,278.5 198.5,278.5 198.5,277.5 198.5,277.5 198.5,277.5 198.5,277.5 198.5,277.5 199.5,277.5 
		199.5,277.5 199.5,277.5 199.5,277.5 199.5,277.5 199.5,277.5 199.5,277.5 199.5,277.5 199.5,277.5 199.5,277.5 199.5,276.5 
		199.5,276.5 199.5,276.5 200.5,277.5 200.5,276.5 200.5,276.5 200.5,276.5 200.5,276.5 200.5,276.5 200.5,276.5 200.5,276.5 
		200.5,276.5 200.5,276.5 200.5,276.5 200.5,277.5 200.5,277.5 201.5,277.5 201.5,276.5 201.5,276.5 201.5,276.5 201.5,276.5 
		201.5,276.5 201.5,276.5 201.5,276.5 201.5,275.5 201.5,276.5 201.5,276.5 201.5,276.5 201.5,276.5 202.5,276.5 202.5,275.5 
		202.5,275.5 202.5,275.5 202.5,275.5 202.5,275.5 202.5,275.5 202.5,275.5 202.5,275.5 202.5,275.5 202.5,275.5 202.5,275.5 
		202.5,275.5 203.5,275.5 203.5,275.5 203.5,275.5 203.5,275.5 203.5,275.5 203.5,275.5 203.5,275.5 203.5,275.5 203.5,275.5 
		203.5,274.5 203.5,274.5 203.5,274.5 203.5,274.5 204.5,274.5 204.5,274.5 204.5,274.5 204.5,274.5 204.5,274.5 204.5,274.5 
		204.5,274.5 204.5,274.5 204.5,274.5 204.5,274.5 204.5,274.5 204.5,274.5 204.5,273.5 205.5,273.5 205.5,273.5 205.5,273.5 
		205.5,273.5 205.5,273.5 205.5,273.5 205.5,273.5 205.5,273.5 205.5,273.5 205.5,273.5 205.5,273.5 205.5,273.5 205.5,272.5 
		206.5,272.5 206.5,272.5 206.5,271.5 206.5,271.5 206.5,271.5 206.5,271.5 206.5,272.5 206.5,271.5 206.5,271.5 206.5,271.5 
		206.5,271.5 206.5,271.5 206.5,270.5 206.5,270.5 207.5,270.5 207.5,270.5 207.5,270.5 207.5,270.5 207.5,270.5 207.5,270.5 
		207.5,269.5 207.5,269.5 207.5,269.5 207.5,269.5 207.5,269.5 207.5,269.5 207.5,269.5 208.5,269.5 208.5,269.5 208.5,269.5 
		208.5,268.5 208.5,268.5 208.5,268.5 208.5,268.5 208.5,268.5 208.5,268.5 208.5,268.5 208.5,268.5 208.5,268.5 208.5,268.5 
		209.5,268.5 209.5,268.5 209.5,267.5 209.5,267.5 209.5,267.5 209.5,266.5 209.5,266.5 209.5,266.5 209.5,266.5 209.5,266.5 
		209.5,266.5 209.5,266.5 209.5,266.5 210.5,266.5 210.5,266.5 210.5,266.5 210.5,266.5 210.5,266.5 210.5,266.5 210.5,265.5 
		210.5,265.5 210.5,265.5 210.5,265.5 210.5,265.5 210.5,265.5 210.5,265.5 211.5,265.5 211.5,265.5 211.5,265.5 211.5,265.5 
		211.5,265.5 211.5,265.5 211.5,264.5 211.5,264.5 211.5,264.5 211.5,264.5 211.5,264.5 211.5,264.5 211.5,264.5 212.5,264.5 
		212.5,264.5 212.5,264.5 212.5,264.5 212.5,264.5 212.5,264.5 212.5,264.5 212.5,264.5 212.5,264.5 212.5,264.5 212.5,264.5 
		212.5,263.5 212.5,263.5 213.5,263.5 213.5,263.5 213.5,263.5 213.5,263.5 213.5,263.5 213.5,263.5 213.5,263.5 213.5,263.5 
		213.5,263.5 213.5,263.5 213.5,263.5 213.5,263.5 213.5,263.5 214.5,263.5 214.5,264.5 214.5,264.5 214.5,263.5 214.5,263.5 
		214.5,263.5 214.5,263.5 214.5,263.5 214.5,262.5 214.5,262.5 214.5,262.5 214.5,262.5 214.5,263.5 215.5,263.5 215.5,263.5 
		215.5,263.5 215.5,262.5 215.5,262.5 215.5,262.5 215.5,262.5 215.5,262.5 215.5,262.5 215.5,262.5 215.5,262.5 215.5,262.5 
		215.5,262.5 216.5,262.5 216.5,262.5 216.5,262.5 216.5,262.5 216.5,262.5 216.5,262.5 216.5,262.5 216.5,262.5 216.5,261.5 
		216.5,261.5 216.5,261.5 216.5,261.5 216.5,261.5 217.5,261.5 217.5,261.5 217.5,261.5 217.5,262.5 217.5,262.5 217.5,262.5 
		217.5,262.5 217.5,262.5 217.5,262.5 217.5,262.5 217.5,262.5 217.5,262.5 217.5,262.5 218.5,261.5 218.5,261.5 218.5,261.5 
		218.5,261.5 218.5,261.5 218.5,261.5 218.5,261.5 218.5,260.5 218.5,260.5 218.5,260.5 218.5,260.5 218.5,260.5 218.5,260.5 
		219.5,260.5 219.5,260.5 219.5,260.5 219.5,260.5 219.5,260.5 219.5,260.5 219.5,260.5 219.5,260.5 219.5,260.5 219.5,260.5 
		219.5,260.5 219.5,260.5 219.5,260.5 220.5,260.5 220.5,259.5 220.5,259.5 220.5,259.5 220.5,259.5 220.5,259.5 220.5,259.5 
		220.5,259.5 220.5,259.5 220.5,259.5 220.5,259.5 220.5,259.5 220.5,259.5 221.5,259.5 221.5,259.5 221.5,259.5 221.5,259.5 
		221.5,259.5 221.5,259.5 221.5,259.5 221.5,259.5 221.5,259.5 221.5,259.5 221.5,259.5 221.5,259.5 221.5,259.5 222.5,259.5 
		222.5,259.5 222.5,258.5 222.5,258.5 222.5,258.5 222.5,258.5 222.5,258.5 222.5,258.5 222.5,258.5 222.5,257.5 222.5,257.5 
		222.5,257.5 222.5,257.5 223.5,257.5 223.5,257.5 223.5,256.5 223.5,256.5 223.5,255.5 223.5,255.5 223.5,255.5 223.5,255.5 
		223.5,254.5 223.5,254.5 223.5,254.5 223.5,254.5 223.5,254.5 224.5,254.5 224.5,253.5 224.5,253.5 224.5,252.5 224.5,252.5 
		224.5,252.5 224.5,252.5 224.5,251.5 224.5,251.5 224.5,251.5 224.5,250.5 224.5,250.5 224.5,250.5 225.5,250.5 225.5,249.5 
		225.5,249.5 225.5,248.5 225.5,248.5 225.5,247.5 225.5,247.5 225.5,247.5 225.5,246.5 225.5,246.5 225.5,246.5 225.5,245.5 
		225.5,245.5 226.5,245.5 226.5,245.5 226.5,245.5 226.5,245.5 226.5,244.5 226.5,244.5 226.5,244.5 226.5,243.5 226.5,243.5 
		226.5,242.5 226.5,242.5 226.5,242.5 226.5,241.5 227.5,241.5 227.5,241.5 227.5,241.5 227.5,241.5 227.5,241.5 227.5,241.5 
		227.5,241.5 227.5,241.5 227.5,241.5 227.5,240.5 227.5,240.5 227.5,240.5 227.5,240.5 228.5,239.5 228.5,239.5 228.5,239.5 
		228.5,239.5 228.5,239.5 228.5,239.5 228.5,238.5 228.5,238.5 228.5,238.5 228.5,238.5 228.5,238.5 228.5,237.5 228.5,237.5 
		229.5,237.5 229.5,237.5 229.5,236.5 229.5,236.5 229.5,236.5 229.5,237.5 229.5,237.5 229.5,237.5 229.5,237.5 229.5,237.5 
		229.5,237.5 229.5,237.5 229.5,237.5 230.5,238.5 230.5,238.5 230.5,238.5 230.5,238.5 230.5,239.5 230.5,239.5 230.5,239.5 
		230.5,239.5 230.5,240.5 230.5,240.5 230.5,240.5 230.5,240.5 230.5,240.5 231.5,240.5 231.5,240.5 231.5,240.5 231.5,240.5 
		231.5,240.5 231.5,240.5 231.5,239.5 231.5,239.5 231.5,239.5 231.5,239.5 231.5,239.5 231.5,238.5 231.5,238.5 232.5,238.5 
		232.5,238.5 232.5,238.5 232.5,237.5 232.5,237.5 232.5,237.5 232.5,236.5 232.5,236.5 232.5,236.5 232.5,235.5 232.5,235.5 
		232.5,235.5 232.5,235.5 233.5,235.5 233.5,234.5 233.5,234.5 233.5,234.5 233.5,234.5 233.5,234.5 233.5,234.5 233.5,234.5 
		233.5,235.5 233.5,235.5 233.5,235.5 233.5,235.5 233.5,235.5 234.5,235.5 234.5,235.5 234.5,235.5 234.5,235.5 234.5,235.5 
		234.5,235.5 234.5,235.5 234.5,235.5 234.5,235.5 234.5,235.5 234.5,235.5 234.5,235.5 234.5,235.5 235.5,235.5 235.5,235.5 
		235.5,235.5 235.5,236.5 235.5,236.5 235.5,236.5 235.5,236.5 235.5,236.5 235.5,236.5 235.5,237.5 235.5,237.5 235.5,237.5 
		235.5,237.5 236.5,237.5 236.5,237.5 236.5,237.5 236.5,237.5 236.5,236.5 236.5,236.5 236.5,235.5 236.5,235.5 236.5,235.5 
		236.5,235.5 236.5,236.5 236.5,236.5 236.5,236.5 237.5,236.5 237.5,237.5 237.5,237.5 237.5,237.5 237.5,238.5 237.5,238.5 
		237.5,238.5 237.5,238.5 237.5,238.5 237.5,238.5 237.5,238.5 237.5,238.5 237.5,238.5 238.5,237.5 238.5,238.5 238.5,237.5 
		238.5,237.5 238.5,237.5 238.5,237.5 238.5,237.5 238.5,237.5 238.5,237.5 238.5,237.5 238.5,237.5 238.5,237.5 238.5,237.5 
		239.5,236.5 239.5,237.5 239.5,237.5 239.5,237.5 239.5,238.5 239.5,237.5 239.5,237.5 239.5,235.5 239.5,235.5 239.5,235.5 
		239.5,235.5 239.5,235.5 239.5,235.5 240.5,235.5 240.5,235.5 240.5,235.5 240.5,236.5 240.5,236.5 240.5,235.5 240.5,235.5 
		240.5,235.5 240.5,235.5 240.5,235.5 240.5,235.5 240.5,235.5 240.5,235.5 241.5,235.5 241.5,235.5 241.5,234.5 241.5,234.5 
		241.5,234.5 241.5,234.5 241.5,234.5 241.5,233.5 241.5,233.5 241.5,233.5 241.5,232.5 241.5,232.5 241.5,232.5 242.5,231.5 
		242.5,231.5 242.5,230.5 242.5,230.5 242.5,229.5 242.5,229.5 242.5,228.5 242.5,228.5 242.5,227.5 242.5,226.5 242.5,225.5 
		242.5,225.5 242.5,224.5 243.5,223.5 243.5,221.5 243.5,220.5 243.5,220.5 243.5,219.5 243.5,218.5 243.5,216.5 243.5,214.5 
		243.5,213.5 243.5,211.5 243.5,211.5 243.5,211.5 243.5,210.5 244.5,210.5 244.5,209.5 244.5,209.5 244.5,208.5 244.5,208.5 
		244.5,207.5 244.5,207.5 244.5,207.5 244.5,206.5 244.5,206.5 244.5,205.5 244.5,205.5 244.5,205.5 245.5,205.5 245.5,205.5 
		245.5,205.5 245.5,205.5 245.5,205.5 245.5,205.5 245.5,205.5 245.5,205.5 245.5,205.5 245.5,205.5 245.5,205.5 245.5,205.5 
		245.5,205.5 246.5,205.5 246.5,205.5 246.5,205.5 246.5,204.5 246.5,204.5 246.5,204.5 246.5,204.5 246.5,205.5 246.5,206.5 
		246.5,206.5 246.5,206.5 246.5,207.5 246.5,208.5 247.5,209.5 247.5,209.5 247.5,210.5 247.5,210.5 247.5,211.5 247.5,211.5 
		247.5,210.5 247.5,210.5 247.5,210.5 247.5,210.5 247.5,209.5 247.5,209.5 247.5,208.5 248.5,208.5 248.5,208.5 248.5,208.5 
		248.5,208.5 248.5,207.5 248.5,207.5 248.5,207.5 248.5,207.5 248.5,207.5 248.5,207.5 248.5,207.5 248.5,207.5 248.5,207.5 
		249.5,207.5 249.5,206.5 249.5,206.5 249.5,205.5 249.5,204.5 249.5,204.5 249.5,203.5 249.5,202.5 249.5,202.5 249.5,202.5 
		249.5,202.5 249.5,202.5 249.5,201.5 250.5,201.5 250.5,200.5 250.5,200.5 250.5,199.5 250.5,199.5 250.5,199.5 250.5,199.5 
		250.5,199.5 250.5,199.5 250.5,199.5 250.5,199.5 250.5,198.5 250.5,198.5 251.5,198.5 251.5,198.5 251.5,198.5 251.5,198.5 
		251.5,198.5 251.5,198.5 251.5,198.5 251.5,199.5 251.5,199.5 251.5,198.5 251.5,198.5 251.5,197.5 251.5,197.5 252.5,197.5 
		252.5,196.5 252.5,195.5 252.5,195.5 252.5,194.5 252.5,194.5 252.5,193.5 252.5,193.5 252.5,192.5 252.5,192.5 252.5,192.5 
		252.5,191.5 252.5,191.5 253.5,190.5 253.5,190.5 253.5,189.5 253.5,189.5 253.5,188.5 253.5,188.5 253.5,188.5 253.5,187.5 
		253.5,186.5 253.5,185.5 253.5,185.5 253.5,184.5 253.5,184.5 254.5,183.5 254.5,183.5 254.5,183.5 254.5,182.5 254.5,182.5 
		254.5,181.5 254.5,181.5 254.5,180.5 254.5,179.5 254.5,178.5 254.5,178.5 254.5,177.5 254.5,176.5 255.5,176.5 255.5,175.5 
		255.5,175.5 255.5,174.5 255.5,174.5 255.5,173.5 255.5,173.5 255.5,173.5 255.5,173.5 255.5,172.5 255.5,172.5 255.5,172.5 
		255.5,172.5 256.5,172.5 256.5,172.5 256.5,172.5 256.5,173.5 256.5,173.5 256.5,173.5 256.5,173.5 256.5,173.5 256.5,173.5 
		256.5,173.5 256.5,173.5 256.5,173.5 256.5,173.5 257.5,173.5 257.5,173.5 257.5,173.5 257.5,173.5 257.5,173.5 257.5,173.5 
		257.5,173.5 257.5,173.5 257.5,174.5 257.5,174.5 257.5,174.5 257.5,174.5 257.5,174.5 258.5,174.5 258.5,175.5 258.5,175.5 
		258.5,175.5 258.5,176.5 258.5,176.5 258.5,176.5 258.5,177.5 258.5,177.5 258.5,177.5 258.5,178.5 258.5,178.5 258.5,179.5 
		259.5,179.5 259.5,180.5 259.5,180.5 259.5,181.5 259.5,181.5 259.5,181.5 259.5,181.5 259.5,182.5 259.5,182.5 259.5,182.5 
		259.5,182.5 259.5,182.5 259.5,182.5 260.5,182.5 260.5,182.5 260.5,183.5 260.5,183.5 260.5,183.5 260.5,183.5 260.5,183.5 
		260.5,183.5 260.5,184.5 260.5,184.5 260.5,184.5 260.5,185.5 260.5,185.5 261.5,185.5 261.5,185.5 261.5,186.5 261.5,186.5 
		261.5,186.5 261.5,186.5 261.5,187.5 261.5,187.5 261.5,187.5 261.5,187.5 261.5,186.5 261.5,187.5 261.5,188.5 262.5,189.5 
		262.5,189.5 262.5,190.5 262.5,190.5 262.5,191.5 262.5,191.5 262.5,192.5 262.5,192.5 262.5,193.5 262.5,193.5 262.5,193.5 
		262.5,194.5 262.5,194.5 263.5,195.5 263.5,195.5 263.5,196.5 263.5,197.5 263.5,198.5 263.5,199.5 263.5,199.5 263.5,200.5 
		263.5,200.5 263.5,201.5 263.5,201.5 263.5,202.5 263.5,202.5 264.5,203.5 264.5,203.5 264.5,204.5 264.5,204.5 264.5,205.5 
		264.5,205.5 264.5,206.5 264.5,206.5 264.5,207.5 264.5,207.5 264.5,208.5 264.5,208.5 264.5,208.5 265.5,209.5 265.5,209.5 
		265.5,210.5 265.5,210.5 265.5,210.5 265.5,211.5 265.5,211.5 265.5,211.5 265.5,212.5 265.5,212.5 265.5,213.5 265.5,214.5 
		265.5,214.5 266.5,215.5 266.5,216.5 266.5,216.5 266.5,216.5 266.5,215.5 266.5,215.5 266.5,216.5 266.5,216.5 266.5,216.5 
		266.5,216.5 266.5,216.5 266.5,216.5 266.5,215.5 267.5,215.5 267.5,215.5 267.5,215.5 267.5,214.5 267.5,214.5 267.5,213.5 
		267.5,213.5 267.5,212.5 267.5,211.5 267.5,211.5 267.5,210.5 267.5,209.5 267.5,208.5 268.5,208.5 268.5,207.5 268.5,207.5 
		268.5,206.5 268.5,206.5 268.5,206.5 268.5,206.5 268.5,206.5 268.5,206.5 268.5,206.5 268.5,206.5 268.5,206.5 268.5,206.5 
		269.5,206.5 269.5,206.5 269.5,206.5 269.5,206.5 269.5,206.5 269.5,206.5 269.5,206.5 269.5,206.5 269.5,207.5 269.5,208.5 
		269.5,209.5 269.5,210.5 269.5,210.5 270.5,211.5 270.5,211.5 270.5,212.5 270.5,213.5 270.5,213.5 270.5,214.5 270.5,215.5 
		270.5,215.5 270.5,215.5 270.5,215.5 270.5,215.5 270.5,215.5 270.5,214.5 271.5,213.5 271.5,213.5 271.5,212.5 271.5,211.5 
		271.5,211.5 271.5,211.5 271.5,210.5 271.5,211.5 271.5,210.5 271.5,210.5 271.5,210.5 271.5,210.5 271.5,210.5 272.5,210.5 
		272.5,210.5 272.5,210.5 272.5,210.5 272.5,210.5 272.5,209.5 272.5,209.5 272.5,209.5 272.5,209.5 272.5,209.5 272.5,209.5 
		272.5,209.5 272.5,209.5 273.5,209.5 273.5,209.5 273.5,209.5 273.5,209.5 273.5,210.5 273.5,210.5 273.5,210.5 273.5,211.5 
		273.5,211.5 273.5,212.5 273.5,212.5 273.5,213.5 273.5,214.5 274.5,214.5 274.5,215.5 274.5,216.5 274.5,215.5 274.5,215.5 
		274.5,215.5 274.5,214.5 274.5,214.5 274.5,213.5 274.5,212.5 274.5,212.5 274.5,211.5 274.5,210.5 275.5,209.5 275.5,208.5 
		275.5,207.5 275.5,206.5 275.5,205.5 275.5,204.5 275.5,203.5 275.5,202.5 275.5,202.5 275.5,201.5 275.5,201.5 275.5,201.5 
		275.5,200.5 276.5,200.5 276.5,200.5 276.5,200.5 276.5,199.5 276.5,199.5 276.5,199.5 276.5,199.5 276.5,199.5 276.5,198.5 
		276.5,198.5 276.5,198.5 276.5,198.5 276.5,197.5 277.5,197.5 277.5,197.5 277.5,197.5 277.5,197.5 277.5,197.5 277.5,197.5 
		277.5,197.5 277.5,197.5 277.5,197.5 277.5,197.5 277.5,196.5 277.5,196.5 277.5,196.5 278.5,196.5 278.5,196.5 278.5,196.5 
		278.5,196.5 278.5,196.5 278.5,196.5 278.5,196.5 278.5,196.5 278.5,197.5 278.5,196.5 278.5,196.5 278.5,196.5 278.5,197.5 
		279.5,197.5 279.5,197.5 279.5,197.5 279.5,197.5 279.5,197.5 279.5,197.5 279.5,197.5 279.5,197.5 279.5,197.5 279.5,197.5 
		279.5,198.5 279.5,198.5 279.5,198.5 280.5,198.5 280.5,198.5 280.5,198.5 280.5,198.5 280.5,198.5 280.5,198.5 280.5,198.5 
		280.5,198.5 280.5,198.5 280.5,199.5 280.5,199.5 280.5,199.5 280.5,200.5 281.5,200.5 281.5,201.5 281.5,201.5 281.5,202.5 
		281.5,203.5 281.5,203.5 281.5,204.5 281.5,205.5 281.5,206.5 281.5,207.5 281.5,207.5 281.5,208.5 281.5,208.5 282.5,209.5 
		282.5,210.5 282.5,210.5 282.5,212.5 282.5,213.5 282.5,214.5 282.5,215.5 282.5,216.5 282.5,216.5 282.5,217.5 282.5,217.5 
		282.5,218.5 282.5,219.5 283.5,219.5 283.5,220.5 283.5,220.5 283.5,221.5 283.5,221.5 283.5,222.5 283.5,222.5 283.5,223.5 
		283.5,223.5 283.5,224.5 283.5,225.5 283.5,225.5 283.5,225.5 284.5,225.5 284.5,226.5 284.5,227.5 284.5,228.5 284.5,229.5 
		284.5,230.5 284.5,230.5 284.5,231.5 284.5,232.5 284.5,232.5 284.5,233.5 284.5,234.5 284.5,235.5 285.5,235.5 285.5,235.5 
		285.5,235.5 285.5,235.5 285.5,235.5 285.5,234.5 285.5,234.5 285.5,234.5 285.5,234.5 285.5,234.5 285.5,234.5 285.5,235.5 
		285.5,234.5 286.5,234.5 286.5,234.5 286.5,234.5 286.5,234.5 286.5,234.5 286.5,234.5 286.5,233.5 286.5,233.5 286.5,232.5 
		286.5,231.5 286.5,231.5 286.5,230.5 286.5,229.5 287.5,229.5 287.5,228.5 287.5,228.5 287.5,227.5 287.5,227.5 287.5,227.5 
		287.5,226.5 287.5,226.5 287.5,226.5 287.5,225.5 287.5,225.5 287.5,224.5 287.5,224.5 288.5,223.5 288.5,223.5 288.5,223.5 
		288.5,223.5 288.5,223.5 288.5,223.5 288.5,222.5 288.5,222.5 288.5,222.5 288.5,222.5 288.5,222.5 288.5,222.5 288.5,222.5 
		288.5,222.5 289.5,222.5 289.5,223.5 289.5,223.5 289.5,223.5 289.5,223.5 289.5,223.5 289.5,224.5 289.5,224.5 289.5,224.5 
		289.5,224.5 289.5,225.5 289.5,225.5 289.5,226.5 290.5,226.5 290.5,227.5 290.5,227.5 290.5,227.5 290.5,227.5 290.5,227.5 
		290.5,227.5 290.5,228.5 290.5,228.5 290.5,228.5 290.5,228.5 290.5,227.5 290.5,227.5 291.5,227.5 291.5,227.5 291.5,228.5 
		291.5,228.5 291.5,228.5 291.5,227.5 291.5,227.5 291.5,227.5 291.5,227.5 291.5,226.5 291.5,226.5 291.5,225.5 291.5,225.5 
		292.5,224.5 292.5,223.5 292.5,223.5 292.5,222.5 292.5,222.5 292.5,221.5 292.5,221.5 292.5,220.5 292.5,220.5 292.5,219.5 
		292.5,218.5 292.5,218.5 292.5,217.5 293.5,216.5 293.5,215.5 293.5,214.5 293.5,213.5 293.5,213.5 293.5,212.5 293.5,211.5 
		293.5,210.5 293.5,209.5 293.5,208.5 293.5,207.5 293.5,206.5 293.5,206.5 294.5,205.5 294.5,204.5 294.5,203.5 294.5,202.5 
		294.5,202.5 294.5,201.5 294.5,200.5 294.5,200.5 294.5,199.5 294.5,199.5 294.5,198.5 294.5,198.5 294.5,197.5 295.5,197.5 
		295.5,197.5 295.5,196.5 295.5,196.5 295.5,196.5 295.5,196.5 295.5,196.5 295.5,196.5 295.5,195.5 295.5,195.5 295.5,195.5 
		295.5,195.5 295.5,195.5 296.5,195.5 296.5,195.5 296.5,194.5 296.5,194.5 296.5,194.5 296.5,194.5 296.5,193.5 296.5,193.5 
		296.5,193.5 296.5,192.5 296.5,191.5 296.5,191.5 296.5,190.5 297.5,190.5 297.5,191.5 297.5,190.5 297.5,190.5 297.5,190.5 
		297.5,191.5 297.5,191.5 297.5,192.5 297.5,192.5 297.5,192.5 297.5,193.5 297.5,193.5 297.5,194.5 298.5,195.5 298.5,195.5 
		298.5,196.5 298.5,196.5 298.5,196.5 298.5,196.5 298.5,196.5 298.5,196.5 298.5,196.5 298.5,197.5 298.5,198.5 298.5,198.5 
		298.5,199.5 299.5,200.5 299.5,200.5 299.5,201.5 299.5,202.5 299.5,202.5 299.5,203.5 299.5,204.5 299.5,204.5 299.5,205.5 
		299.5,205.5 299.5,206.5 299.5,206.5 299.5,207.5 300.5,207.5 300.5,208.5 300.5,208.5 300.5,208.5 300.5,208.5 300.5,209.5 
		300.5,209.5 300.5,209.5 300.5,209.5 300.5,209.5 300.5,209.5 300.5,209.5 300.5,209.5 301.5,209.5 301.5,208.5 301.5,208.5 
		301.5,207.5 301.5,207.5 301.5,207.5 301.5,206.5 301.5,206.5 301.5,205.5 301.5,205.5 301.5,205.5 301.5,205.5 301.5,204.5 
		302.5,204.5 302.5,204.5 302.5,204.5 302.5,204.5 302.5,205.5 302.5,205.5 302.5,205.5 302.5,205.5 302.5,205.5 302.5,205.5 
		302.5,205.5 302.5,206.5 302.5,206.5 303.5,206.5 303.5,206.5 303.5,206.5 303.5,207.5 303.5,207.5 303.5,208.5 303.5,208.5 
		303.5,209.5 303.5,210.5 303.5,210.5 303.5,211.5 303.5,211.5 303.5,212.5 304.5,212.5 304.5,212.5 304.5,212.5 304.5,213.5 
		304.5,213.5 304.5,213.5 304.5,213.5 304.5,213.5 304.5,213.5 304.5,214.5 304.5,214.5 304.5,214.5 304.5,214.5 305.5,213.5 
		305.5,213.5 305.5,213.5 305.5,213.5 305.5,213.5 305.5,212.5 305.5,212.5 305.5,212.5 305.5,211.5 305.5,211.5 305.5,211.5 
		305.5,210.5 305.5,210.5 306.5,210.5 306.5,210.5 306.5,210.5 306.5,209.5 306.5,209.5 306.5,209.5 306.5,209.5 306.5,208.5 
		306.5,208.5 306.5,208.5 306.5,208.5 306.5,208.5 306.5,208.5 307.5,208.5 307.5,208.5 307.5,208.5 307.5,208.5 307.5,208.5 
		307.5,208.5 307.5,208.5 307.5,207.5 307.5,207.5 307.5,207.5 307.5,207.5 307.5,207.5 307.5,207.5 308.5,207.5 308.5,207.5 
		308.5,207.5 308.5,207.5 308.5,207.5 308.5,208.5 308.5,208.5 308.5,208.5 308.5,209.5 308.5,209.5 308.5,209.5 308.5,210.5 
		308.5,210.5 309.5,210.5 309.5,210.5 309.5,210.5 309.5,210.5 309.5,210.5 309.5,209.5 309.5,209.5 309.5,208.5 309.5,208.5 
		309.5,207.5 309.5,207.5 309.5,206.5 309.5,206.5 310.5,205.5 310.5,205.5 310.5,205.5 310.5,205.5 310.5,204.5 310.5,204.5 
		310.5,204.5 310.5,204.5 310.5,203.5 310.5,203.5 310.5,203.5 310.5,203.5 310.5,203.5 311.5,203.5 311.5,204.5 311.5,204.5 
		311.5,204.5 311.5,204.5 311.5,204.5 311.5,204.5 311.5,204.5 311.5,204.5 311.5,204.5 311.5,205.5 311.5,205.5 311.5,205.5 
		312.5,205.5 312.5,206.5 312.5,206.5 312.5,206.5 312.5,205.5 312.5,205.5 312.5,205.5 312.5,205.5 312.5,205.5 312.5,205.5 
		312.5,205.5 312.5,205.5 312.5,205.5 313.5,205.5 313.5,205.5 313.5,204.5 313.5,203.5 313.5,203.5 313.5,202.5 313.5,202.5 
		313.5,202.5 313.5,201.5 313.5,200.5 313.5,200.5 313.5,199.5 313.5,199.5 314.5,198.5 314.5,198.5 314.5,197.5 314.5,197.5 
		314.5,196.5 314.5,196.5 314.5,195.5 314.5,194.5 314.5,194.5 314.5,193.5 314.5,193.5 314.5,192.5 314.5,191.5 315.5,190.5 
		315.5,190.5 315.5,189.5 315.5,189.5 315.5,188.5 315.5,187.5 315.5,187.5 315.5,186.5 315.5,185.5 315.5,185.5 315.5,184.5 
		315.5,183.5 315.5,183.5 316.5,182.5 316.5,182.5 316.5,181.5 316.5,181.5 316.5,181.5 316.5,181.5 316.5,181.5 316.5,181.5 
		316.5,180.5 316.5,180.5 316.5,180.5 316.5,180.5 316.5,180.5 317.5,180.5 317.5,180.5 317.5,180.5 317.5,180.5 317.5,180.5 
		317.5,180.5 317.5,180.5 317.5,180.5 317.5,180.5 317.5,180.5 317.5,180.5 317.5,179.5 317.5,179.5 318.5,179.5 318.5,179.5 
		318.5,178.5 318.5,178.5 318.5,178.5 318.5,178.5 318.5,177.5 318.5,177.5 318.5,177.5 318.5,177.5 318.5,176.5 318.5,176.5 
		318.5,176.5 319.5,176.5 319.5,176.5 319.5,175.5 319.5,175.5 319.5,175.5 319.5,175.5 319.5,174.5 319.5,174.5 319.5,174.5 
		319.5,174.5 319.5,174.5 319.5,174.5 319.5,174.5 320.5,173.5 320.5,173.5 320.5,173.5 320.5,173.5 320.5,173.5 320.5,173.5 
		320.5,173.5 320.5,173.5 320.5,174.5 320.5,174.5 320.5,174.5 320.5,174.5 320.5,174.5 321.5,175.5 321.5,175.5 321.5,175.5 
		321.5,175.5 321.5,176.5 321.5,176.5 321.5,176.5 321.5,176.5 321.5,176.5 321.5,176.5 321.5,176.5 321.5,175.5 321.5,175.5 
		322.5,175.5 322.5,175.5 322.5,175.5 322.5,175.5 322.5,175.5 322.5,174.5 322.5,174.5 322.5,174.5 322.5,174.5 322.5,173.5 
		322.5,173.5 322.5,173.5 322.5,172.5 323.5,172.5 323.5,172.5 323.5,172.5 323.5,171.5 323.5,171.5 323.5,170.5 323.5,170.5 
		323.5,169.5 323.5,169.5 323.5,168.5 323.5,168.5 323.5,168.5 323.5,167.5 324.5,167.5 324.5,166.5 324.5,166.5 324.5,165.5 
		324.5,165.5 324.5,164.5 324.5,164.5 324.5,163.5 324.5,163.5 324.5,162.5 324.5,162.5 324.5,161.5 324.5,160.5 325.5,160.5 
		325.5,159.5 325.5,159.5 325.5,159.5 325.5,158.5 325.5,158.5 325.5,158.5 325.5,158.5 325.5,158.5 325.5,158.5 325.5,158.5 
		325.5,158.5 325.5,158.5 326.5,159.5 326.5,159.5 326.5,159.5 326.5,159.5 326.5,159.5 326.5,159.5 326.5,159.5 326.5,159.5 
		326.5,159.5 326.5,160.5 326.5,160.5 326.5,160.5 326.5,160.5 327.5,161.5 327.5,161.5 327.5,162.5 327.5,163.5 327.5,163.5 
		327.5,164.5 327.5,165.5 327.5,166.5 327.5,167.5 327.5,168.5 327.5,169.5 327.5,170.5 327.5,170.5 328.5,170.5 328.5,170.5 
		328.5,171.5 328.5,170.5 328.5,170.5 328.5,169.5 328.5,167.5 328.5,167.5 328.5,166.5 328.5,165.5 328.5,164.5 328.5,163.5 
		328.5,162.5 329.5,161.5 329.5,161.5 329.5,160.5 329.5,159.5 329.5,159.5 329.5,158.5 329.5,158.5 329.5,157.5 329.5,156.5 
		329.5,155.5 329.5,155.5 329.5,155.5 329.5,155.5 330.5,154.5 330.5,154.5 330.5,154.5 330.5,154.5 330.5,154.5 330.5,153.5 
		330.5,153.5 330.5,153.5 330.5,153.5 330.5,152.5 330.5,152.5 330.5,152.5 330.5,151.5 331.5,151.5 331.5,150.5 331.5,150.5 
		331.5,149.5 331.5,149.5 331.5,148.5 331.5,148.5 331.5,147.5 331.5,147.5 331.5,147.5 331.5,146.5 331.5,146.5 331.5,146.5 
		332.5,146.5 332.5,146.5 332.5,146.5 332.5,146.5 332.5,146.5 332.5,146.5 332.5,146.5 332.5,146.5 332.5,146.5 332.5,146.5 
		332.5,147.5 332.5,147.5 332.5,147.5 333.5,147.5 333.5,147.5 333.5,147.5 333.5,146.5 333.5,146.5 333.5,146.5 333.5,146.5 
		333.5,147.5 333.5,148.5 333.5,149.5 333.5,149.5 333.5,150.5 333.5,151.5 334.5,151.5 334.5,152.5 334.5,153.5 334.5,153.5 
		334.5,154.5 334.5,154.5 334.5,155.5 334.5,155.5 334.5,155.5 334.5,155.5 334.5,154.5 334.5,152.5 334.5,151.5 335.5,150.5 
		335.5,149.5 335.5,148.5 335.5,147.5 335.5,146.5 335.5,146.5 335.5,146.5 335.5,146.5 335.5,146.5 335.5,146.5 335.5,146.5 
		335.5,146.5 335.5,146.5 336.5,146.5 336.5,146.5 336.5,146.5 336.5,146.5 336.5,146.5 336.5,146.5 336.5,146.5 336.5,146.5 
		336.5,147.5 336.5,147.5 336.5,147.5 336.5,147.5 336.5,148.5 337.5,148.5 337.5,148.5 337.5,148.5 337.5,149.5 337.5,149.5 
		337.5,149.5 337.5,149.5 337.5,150.5 337.5,150.5 337.5,150.5 337.5,150.5 337.5,150.5 337.5,151.5 338.5,151.5 338.5,151.5 
		338.5,151.5 338.5,152.5 338.5,152.5 338.5,152.5 338.5,152.5 338.5,152.5 338.5,152.5 338.5,153.5 338.5,154.5 338.5,155.5 
		338.5,156.5 339.5,157.5 339.5,157.5 339.5,158.5 339.5,158.5 339.5,159.5 339.5,160.5 339.5,160.5 339.5,161.5 339.5,162.5 
		339.5,163.5 339.5,163.5 339.5,164.5 339.5,164.5 340.5,164.5 340.5,165.5 340.5,165.5 340.5,166.5 340.5,166.5 340.5,166.5 
		340.5,166.5 340.5,167.5 340.5,167.5 340.5,167.5 340.5,167.5 340.5,168.5 340.5,168.5 341.5,168.5 341.5,168.5 341.5,169.5 
		341.5,170.5 341.5,170.5 341.5,171.5 341.5,172.5 341.5,172.5 341.5,173.5 341.5,174.5 341.5,175.5 341.5,175.5 341.5,175.5 
		342.5,175.5 342.5,175.5 342.5,175.5 342.5,175.5 342.5,175.5 342.5,175.5 342.5,174.5 342.5,174.5 342.5,175.5 342.5,175.5 
		342.5,174.5 342.5,174.5 342.5,174.5 343.5,173.5 343.5,173.5 343.5,173.5 343.5,173.5 343.5,172.5 343.5,172.5 343.5,172.5 
		343.5,172.5 343.5,172.5 343.5,172.5 343.5,173.5 343.5,173.5 343.5,173.5 344.5,173.5 344.5,173.5 344.5,172.5 344.5,172.5 
		344.5,172.5 344.5,173.5 344.5,173.5 344.5,173.5 344.5,173.5 344.5,173.5 344.5,172.5 344.5,172.5 344.5,173.5 345.5,173.5 
		345.5,173.5 345.5,173.5 345.5,174.5 345.5,174.5 345.5,174.5 345.5,175.5 345.5,175.5 345.5,176.5 345.5,176.5 345.5,177.5 
		345.5,177.5 345.5,178.5 346.5,179.5 346.5,180.5 346.5,180.5 346.5,181.5 346.5,181.5 346.5,182.5 346.5,182.5 346.5,183.5 
		346.5,183.5 346.5,184.5 346.5,184.5 346.5,184.5 346.5,185.5 347.5,185.5 347.5,185.5 347.5,185.5 347.5,185.5 347.5,185.5 
		347.5,185.5 347.5,185.5 347.5,185.5 347.5,185.5 347.5,185.5 347.5,185.5 347.5,185.5 347.5,185.5 348.5,185.5 348.5,185.5 
		348.5,185.5 348.5,185.5 348.5,185.5 348.5,185.5 348.5,185.5 348.5,184.5 348.5,185.5 348.5,185.5 348.5,185.5 348.5,185.5 
		348.5,185.5 349.5,184.5 349.5,184.5 349.5,184.5 349.5,183.5 349.5,183.5 349.5,182.5 349.5,182.5 349.5,181.5 349.5,180.5 
		349.5,179.5 349.5,179.5 349.5,178.5 349.5,178.5 350.5,178.5 350.5,177.5 350.5,177.5 350.5,176.5 350.5,176.5 350.5,176.5 
		350.5,175.5 350.5,175.5 350.5,175.5 350.5,175.5 350.5,175.5 350.5,175.5 350.5,174.5 351.5,174.5 351.5,174.5 351.5,174.5 
		351.5,173.5 351.5,173.5 351.5,173.5 351.5,173.5 351.5,173.5 351.5,173.5 351.5,173.5 351.5,173.5 351.5,173.5 351.5,173.5 
		352.5,173.5 352.5,173.5 352.5,173.5 352.5,173.5 352.5,174.5 352.5,174.5 352.5,174.5 352.5,174.5 352.5,174.5 352.5,174.5 
		352.5,174.5 352.5,174.5 352.5,174.5 353.5,174.5 353.5,174.5 353.5,174.5 353.5,174.5 353.5,174.5 353.5,174.5 353.5,174.5 
		353.5,174.5 353.5,174.5 353.5,175.5 353.5,175.5 353.5,176.5 353.5,176.5 354.5,176.5 354.5,176.5 354.5,176.5 354.5,176.5 
		354.5,176.5 354.5,176.5 354.5,175.5 354.5,175.5 354.5,175.5 354.5,175.5 354.5,174.5 354.5,174.5 354.5,173.5 355.5,173.5 
		355.5,173.5 355.5,172.5 355.5,172.5 355.5,172.5 355.5,172.5 355.5,172.5 355.5,172.5 355.5,172.5 355.5,172.5 355.5,172.5 
		355.5,172.5 355.5,172.5 356.5,172.5 356.5,172.5 356.5,172.5 356.5,172.5 356.5,172.5 356.5,172.5 356.5,172.5 356.5,172.5 
		356.5,172.5 356.5,173.5 356.5,173.5 356.5,174.5 356.5,175.5 357.5,175.5 357.5,176.5 357.5,177.5 357.5,177.5 357.5,178.5 
		357.5,179.5 357.5,180.5 357.5,180.5 357.5,181.5 357.5,181.5 357.5,182.5 357.5,182.5 357.5,182.5 358.5,182.5 358.5,183.5 
		358.5,183.5 358.5,184.5 358.5,184.5 358.5,184.5 358.5,185.5 358.5,185.5 358.5,185.5 358.5,185.5 358.5,185.5 358.5,185.5 
		358.5,185.5 359.5,185.5 359.5,185.5 359.5,185.5 359.5,185.5 359.5,185.5 359.5,185.5 359.5,184.5 359.5,184.5 359.5,184.5 
		359.5,184.5 359.5,184.5 359.5,184.5 359.5,184.5 360.5,184.5 360.5,184.5 360.5,184.5 360.5,184.5 360.5,184.5 360.5,183.5 
		360.5,183.5 360.5,183.5 360.5,183.5 360.5,183.5 360.5,183.5 360.5,184.5 360.5,185.5 361.5,186.5 361.5,188.5 361.5,188.5 
		361.5,189.5 361.5,189.5 361.5,189.5 361.5,190.5 361.5,191.5 361.5,191.5 361.5,192.5 361.5,192.5 361.5,192.5 361.5,192.5 
		362.5,192.5 362.5,192.5 362.5,191.5 362.5,191.5 362.5,191.5 362.5,191.5 362.5,190.5 362.5,190.5 362.5,190.5 362.5,190.5 
		362.5,190.5 362.5,189.5 362.5,189.5 363.5,189.5 363.5,189.5 363.5,189.5 363.5,189.5 363.5,189.5 363.5,189.5 363.5,190.5 
		363.5,190.5 363.5,190.5 363.5,190.5 363.5,189.5 363.5,189.5 363.5,190.5 364.5,190.5 364.5,191.5 364.5,191.5 364.5,192.5 
		364.5,192.5 364.5,193.5 364.5,194.5 364.5,194.5 364.5,195.5 364.5,195.5 364.5,196.5 364.5,196.5 364.5,197.5 365.5,197.5 
		365.5,197.5 365.5,198.5 365.5,198.5 365.5,198.5 365.5,198.5 365.5,199.5 365.5,199.5 365.5,199.5 365.5,199.5 365.5,199.5 
		365.5,198.5 365.5,198.5 366.5,197.5 366.5,197.5 366.5,197.5 366.5,196.5 366.5,196.5 366.5,196.5 366.5,196.5 366.5,195.5 
		366.5,195.5 366.5,195.5 366.5,195.5 366.5,195.5 366.5,195.5 367.5,194.5 367.5,194.5 367.5,194.5 367.5,194.5 367.5,194.5 
		367.5,193.5 367.5,193.5 367.5,193.5 367.5,193.5 367.5,193.5 367.5,193.5 367.5,193.5 367.5,193.5 368.5,194.5 368.5,194.5 
		368.5,194.5 368.5,195.5 368.5,195.5 368.5,196.5 368.5,196.5 368.5,197.5 368.5,198.5 368.5,198.5 368.5,199.5 368.5,199.5 
		368.5,199.5 369.5,199.5 369.5,199.5 369.5,199.5 369.5,199.5 369.5,199.5 369.5,199.5 369.5,199.5 369.5,199.5 369.5,199.5 
		369.5,199.5 369.5,199.5 369.5,199.5 369.5,199.5 370.5,199.5 370.5,199.5 370.5,199.5 370.5,199.5 370.5,199.5 370.5,199.5 
		370.5,199.5 370.5,199.5 370.5,199.5 370.5,199.5 370.5,198.5 370.5,198.5 370.5,198.5 371.5,197.5 371.5,197.5 371.5,196.5 
		371.5,196.5 371.5,196.5 371.5,195.5 371.5,195.5 371.5,194.5 371.5,194.5 371.5,194.5 371.5,193.5 371.5,193.5 371.5,193.5 
		371.5,193.5 372.5,193.5 372.5,193.5 372.5,194.5 372.5,194.5 372.5,194.5 372.5,195.5 372.5,195.5 372.5,196.5 372.5,197.5 
		372.5,197.5 372.5,198.5 372.5,198.5 372.5,199.5 373.5,199.5 373.5,199.5 373.5,200.5 373.5,200.5 373.5,200.5 373.5,200.5 
		373.5,200.5 373.5,200.5 373.5,200.5 373.5,200.5 373.5,199.5 373.5,199.5 373.5,199.5 374.5,198.5 374.5,198.5 374.5,198.5 
		374.5,198.5 374.5,197.5 374.5,197.5 374.5,197.5 374.5,196.5 374.5,196.5 374.5,196.5 374.5,196.5 374.5,196.5 374.5,195.5 
		375.5,195.5 375.5,195.5 375.5,195.5 375.5,195.5 375.5,195.5 375.5,194.5 375.5,194.5 375.5,194.5 375.5,194.5 375.5,194.5 
		375.5,193.5 375.5,193.5 375.5,193.5 376.5,192.5 376.5,192.5 376.5,192.5 376.5,192.5 376.5,192.5 376.5,191.5 376.5,191.5 
		376.5,191.5 376.5,191.5 376.5,191.5 376.5,191.5 376.5,191.5 376.5,192.5 377.5,192.5 377.5,192.5 377.5,192.5 377.5,192.5 
		377.5,193.5 377.5,193.5 377.5,193.5 377.5,193.5 377.5,193.5 377.5,194.5 377.5,194.5 377.5,195.5 377.5,195.5 378.5,196.5 
		378.5,197.5 378.5,197.5 378.5,198.5 378.5,198.5 378.5,198.5 378.5,199.5 378.5,198.5 378.5,198.5 378.5,198.5 378.5,198.5 
		378.5,199.5 378.5,199.5 379.5,199.5 379.5,199.5 379.5,200.5 379.5,200.5 379.5,200.5 379.5,200.5 379.5,200.5 379.5,201.5 
		379.5,201.5 379.5,201.5 379.5,201.5 379.5,201.5 379.5,202.5 380.5,202.5 380.5,202.5 380.5,203.5 380.5,203.5 380.5,203.5 
		380.5,204.5 380.5,204.5 380.5,204.5 380.5,204.5 380.5,205.5 380.5,205.5 380.5,205.5 380.5,205.5 381.5,205.5 381.5,205.5 
		381.5,205.5 381.5,205.5 381.5,205.5 381.5,205.5 381.5,205.5 381.5,205.5 381.5,204.5 381.5,204.5 381.5,204.5 381.5,204.5 
		381.5,203.5 382.5,203.5 382.5,203.5 382.5,203.5 382.5,203.5 382.5,202.5 382.5,202.5 382.5,202.5 382.5,202.5 382.5,202.5 
		382.5,203.5 382.5,202.5 382.5,202.5 382.5,202.5 383.5,202.5 383.5,202.5 383.5,202.5 383.5,201.5 383.5,201.5 383.5,201.5 
		383.5,201.5 383.5,201.5 383.5,201.5 383.5,201.5 383.5,201.5 383.5,201.5 383.5,200.5 384.5,200.5 384.5,200.5 384.5,200.5 
		384.5,200.5 384.5,200.5 384.5,200.5 384.5,200.5 384.5,200.5 384.5,200.5 384.5,200.5 384.5,200.5 384.5,200.5 384.5,199.5 
		385.5,199.5 385.5,199.5 385.5,199.5 385.5,199.5 385.5,199.5 385.5,199.5 385.5,199.5 385.5,199.5 385.5,199.5 385.5,199.5 
		385.5,199.5 385.5,199.5 385.5,199.5 386.5,199.5 386.5,199.5 386.5,199.5 386.5,199.5 386.5,198.5 386.5,198.5 386.5,198.5 
		386.5,198.5 386.5,198.5 386.5,198.5 386.5,198.5 386.5,198.5 386.5,198.5 387.5,198.5 387.5,198.5 387.5,198.5 387.5,198.5 
		387.5,198.5 387.5,198.5 387.5,198.5 387.5,198.5 387.5,197.5 387.5,197.5 387.5,197.5 387.5,197.5 387.5,197.5 388.5,197.5 
		388.5,197.5 388.5,197.5 388.5,197.5 388.5,197.5 388.5,197.5 388.5,197.5 388.5,197.5 388.5,196.5 388.5,196.5 388.5,196.5 
		388.5,196.5 388.5,196.5 389.5,196.5 389.5,196.5 389.5,196.5 389.5,196.5 389.5,196.5 389.5,196.5 389.5,196.5 389.5,196.5 
		389.5,196.5 389.5,196.5 389.5,197.5 389.5,198.5 389.5,199.5 390.5,199.5 390.5,198.5 390.5,197.5 390.5,197.5 390.5,197.5 
		390.5,197.5 390.5,197.5 390.5,196.5 390.5,196.5 390.5,196.5 390.5,195.5 390.5,195.5 390.5,195.5 391.5,195.5 391.5,195.5 
		391.5,195.5 391.5,194.5 391.5,194.5 391.5,194.5 391.5,194.5 391.5,194.5 391.5,194.5 391.5,195.5 391.5,195.5 391.5,195.5 
		391.5,195.5 392.5,194.5 392.5,194.5 392.5,194.5 392.5,194.5 392.5,194.5 392.5,195.5 392.5,195.5 392.5,194.5 392.5,194.5 
		392.5,193.5 392.5,193.5 392.5,192.5 392.5,192.5 393.5,192.5 393.5,192.5 393.5,192.5 393.5,192.5 393.5,192.5 393.5,192.5 
		393.5,192.5 393.5,191.5 393.5,191.5 393.5,191.5 393.5,191.5 393.5,191.5 393.5,191.5 394.5,191.5 394.5,191.5 394.5,191.5 
		394.5,191.5 394.5,191.5 394.5,191.5 394.5,191.5 394.5,191.5 394.5,191.5 394.5,192.5 394.5,192.5 394.5,192.5 394.5,192.5 
		395.5,191.5 395.5,191.5 395.5,190.5 395.5,190.5 395.5,189.5 395.5,189.5 395.5,189.5 395.5,188.5 395.5,188.5 395.5,188.5 
		395.5,188.5 395.5,188.5 395.5,187.5 396.5,187.5 396.5,187.5 396.5,187.5 396.5,186.5 396.5,186.5 396.5,186.5 396.5,186.5 
		396.5,185.5 396.5,185.5 396.5,185.5 396.5,185.5 396.5,184.5 396.5,184.5 397.5,184.5 397.5,184.5 397.5,184.5 397.5,184.5 
		397.5,183.5 397.5,183.5 397.5,183.5 397.5,183.5 397.5,182.5 397.5,182.5 397.5,182.5 397.5,182.5 397.5,181.5 398.5,181.5 
		398.5,181.5 398.5,181.5 398.5,181.5 398.5,180.5 398.5,180.5 398.5,180.5 398.5,180.5 398.5,180.5 398.5,179.5 398.5,179.5 
		398.5,179.5 398.5,179.5 399.5,178.5 399.5,178.5 399.5,178.5 399.5,177.5 399.5,177.5 399.5,176.5 399.5,176.5 399.5,176.5 
		399.5,176.5 399.5,175.5 399.5,175.5 399.5,175.5 399.5,174.5 400.5,174.5 400.5,173.5 400.5,173.5 400.5,172.5 400.5,172.5 
		400.5,172.5 400.5,171.5 400.5,171.5 400.5,171.5 400.5,170.5 400.5,170.5 400.5,169.5 400.5,169.5 401.5,168.5 401.5,167.5 
		401.5,167.5 401.5,166.5 401.5,165.5 401.5,164.5 401.5,163.5 401.5,162.5 401.5,161.5 401.5,161.5 401.5,160.5 401.5,160.5 
		401.5,159.5 402.5,159.5 402.5,159.5 402.5,158.5 402.5,158.5 402.5,158.5 402.5,158.5 402.5,157.5 402.5,157.5 402.5,157.5 
		402.5,157.5 402.5,157.5 402.5,158.5 402.5,158.5 403.5,158.5 403.5,157.5 403.5,157.5 403.5,156.5 403.5,156.5 403.5,156.5 
		403.5,156.5 403.5,156.5 403.5,155.5 403.5,155.5 403.5,155.5 403.5,155.5 403.5,155.5 404.5,156.5 404.5,156.5 404.5,156.5 
		404.5,156.5 404.5,156.5 404.5,155.5 404.5,156.5 404.5,157.5 404.5,158.5 404.5,159.5 404.5,159.5 404.5,159.5 404.5,159.5 
		405.5,159.5 405.5,159.5 405.5,159.5 405.5,160.5 405.5,160.5 405.5,160.5 405.5,161.5 405.5,161.5 405.5,162.5 405.5,163.5 
		405.5,163.5 405.5,164.5 405.5,165.5 406.5,165.5 406.5,165.5 406.5,166.5 406.5,166.5 406.5,166.5 406.5,166.5 406.5,166.5 
		406.5,166.5 406.5,166.5 406.5,166.5 406.5,166.5 406.5,166.5 406.5,166.5 407.5,166.5 407.5,167.5 407.5,166.5 407.5,166.5 
		407.5,165.5 407.5,165.5 407.5,164.5 407.5,163.5 407.5,163.5 407.5,162.5 407.5,161.5 407.5,161.5 407.5,160.5 408.5,160.5 
		408.5,159.5 408.5,159.5 408.5,158.5 408.5,158.5 408.5,158.5 408.5,158.5 408.5,157.5 408.5,157.5 408.5,157.5 408.5,158.5 
		408.5,158.5 408.5,158.5 409.5,159.5 409.5,159.5 409.5,159.5 409.5,160.5 409.5,160.5 409.5,160.5 409.5,160.5 409.5,161.5 
		409.5,161.5 409.5,160.5 409.5,160.5 409.5,160.5 409.5,159.5 410.5,159.5 410.5,158.5 410.5,157.5 410.5,157.5 410.5,156.5 
		410.5,155.5 410.5,154.5 410.5,153.5 410.5,152.5 410.5,152.5 410.5,151.5 410.5,150.5 410.5,150.5 411.5,149.5 411.5,149.5 
		411.5,148.5 411.5,148.5 411.5,148.5 411.5,148.5 411.5,148.5 411.5,148.5 411.5,148.5 411.5,148.5 411.5,148.5 411.5,148.5 
		411.5,148.5 412.5,148.5 412.5,148.5 412.5,148.5 412.5,148.5 412.5,148.5 412.5,148.5 412.5,148.5 412.5,148.5 412.5,148.5 
		412.5,148.5 412.5,148.5 412.5,148.5 412.5,148.5 413.5,148.5 413.5,148.5 413.5,148.5 413.5,149.5 413.5,150.5 413.5,151.5 
		413.5,152.5 413.5,152.5 413.5,153.5 413.5,154.5 413.5,155.5 413.5,155.5 413.5,156.5 414.5,156.5 414.5,157.5 414.5,157.5 
		414.5,157.5 414.5,157.5 414.5,157.5 414.5,157.5 414.5,157.5 414.5,157.5 414.5,157.5 414.5,157.5 414.5,157.5 414.5,156.5 
		415.5,156.5 415.5,155.5 415.5,155.5 415.5,154.5 415.5,154.5 415.5,153.5 415.5,153.5 415.5,153.5 415.5,153.5 415.5,153.5 
		415.5,153.5 415.5,153.5 415.5,153.5 416.5,153.5 416.5,154.5 416.5,154.5 416.5,154.5 416.5,155.5 416.5,155.5 416.5,156.5 
		416.5,156.5 416.5,157.5 416.5,157.5 416.5,158.5 416.5,158.5 416.5,159.5 417.5,159.5 417.5,160.5 417.5,160.5 417.5,160.5 
		417.5,160.5 417.5,160.5 417.5,160.5 417.5,160.5 417.5,161.5 417.5,160.5 417.5,160.5 417.5,160.5 417.5,160.5 418.5,160.5 
		418.5,159.5 418.5,159.5 418.5,158.5 418.5,158.5 418.5,158.5 418.5,158.5 418.5,158.5 418.5,158.5 418.5,158.5 418.5,158.5 
		418.5,158.5 418.5,158.5 419.5,157.5 419.5,157.5 419.5,157.5 419.5,157.5 419.5,156.5 419.5,156.5 419.5,155.5 419.5,155.5 
		419.5,154.5 419.5,153.5 419.5,152.5 419.5,151.5 419.5,151.5 420.5,150.5 420.5,149.5 420.5,148.5 420.5,147.5 420.5,146.5 
		420.5,146.5 420.5,146.5 420.5,146.5 420.5,146.5 420.5,146.5 420.5,146.5 420.5,145.5 420.5,145.5 421.5,145.5 421.5,145.5 
		421.5,145.5 421.5,144.5 421.5,144.5 421.5,144.5 421.5,144.5 421.5,144.5 421.5,143.5 421.5,143.5 421.5,143.5 421.5,142.5 
		421.5,142.5 422.5,142.5 422.5,142.5 422.5,142.5 422.5,142.5 422.5,141.5 422.5,141.5 422.5,140.5 422.5,140.5 422.5,140.5 
		422.5,140.5 422.5,139.5 422.5,139.5 422.5,138.5 423.5,138.5 423.5,137.5 423.5,137.5 423.5,136.5 423.5,136.5 423.5,135.5 
		423.5,134.5 423.5,133.5 423.5,133.5 423.5,132.5 423.5,131.5 423.5,130.5 423.5,130.5 424.5,129.5 424.5,128.5 424.5,128.5 
		424.5,128.5 424.5,127.5 424.5,127.5 424.5,127.5 424.5,127.5 424.5,126.5 424.5,126.5 424.5,126.5 424.5,126.5 424.5,126.5 
		425.5,126.5 425.5,126.5 425.5,126.5 425.5,126.5 425.5,125.5 425.5,125.5 425.5,125.5 425.5,125.5 425.5,125.5 425.5,125.5 
		425.5,124.5 425.5,124.5 425.5,124.5 426.5,124.5 426.5,123.5 426.5,123.5 426.5,123.5 426.5,123.5 426.5,124.5 426.5,125.5 
		426.5,127.5 426.5,128.5 426.5,130.5 426.5,131.5 426.5,133.5 426.5,134.5 427.5,135.5 427.5,136.5 427.5,137.5 427.5,138.5 
		427.5,140.5 427.5,141.5 427.5,142.5 427.5,143.5 427.5,144.5 427.5,144.5 427.5,145.5 427.5,147.5 427.5,148.5 428.5,149.5 
		428.5,149.5 428.5,150.5 428.5,151.5 428.5,151.5 428.5,152.5 428.5,153.5 428.5,153.5 428.5,153.5 428.5,154.5 428.5,154.5 
		428.5,155.5 428.5,155.5 429.5,156.5 429.5,157.5 429.5,157.5 429.5,158.5 429.5,159.5 429.5,159.5 429.5,159.5 429.5,159.5 
		429.5,159.5 429.5,159.5 429.5,159.5 429.5,159.5 429.5,159.5 430.5,158.5 430.5,158.5 430.5,158.5 430.5,158.5 430.5,157.5 
		430.5,157.5 430.5,157.5 430.5,157.5 430.5,156.5 430.5,156.5 430.5,156.5 430.5,156.5 430.5,156.5 431.5,155.5 431.5,155.5 
		431.5,155.5 431.5,155.5 431.5,154.5 431.5,154.5 431.5,153.5 431.5,153.5 431.5,154.5 431.5,154.5 431.5,155.5 431.5,155.5 
		431.5,156.5 432.5,156.5 432.5,157.5 432.5,157.5 432.5,157.5 432.5,157.5 432.5,157.5 432.5,158.5 432.5,158.5 432.5,159.5 
		432.5,159.5 432.5,160.5 432.5,160.5 432.5,160.5 433.5,161.5 433.5,161.5 433.5,162.5 433.5,162.5 433.5,163.5 433.5,163.5 
		433.5,164.5 433.5,164.5 433.5,165.5 433.5,166.5 433.5,166.5 433.5,167.5 433.5,167.5 434.5,168.5 434.5,168.5 434.5,169.5 
		434.5,169.5 434.5,169.5 434.5,169.5 434.5,170.5 434.5,170.5 434.5,170.5 434.5,170.5 434.5,170.5 434.5,170.5 434.5,169.5 
		435.5,169.5 435.5,169.5 435.5,168.5 435.5,168.5 435.5,168.5 435.5,168.5 435.5,167.5 435.5,167.5 435.5,167.5 435.5,166.5 
		435.5,166.5 435.5,166.5 435.5,166.5 436.5,166.5 436.5,166.5 436.5,166.5 436.5,166.5 436.5,167.5 436.5,167.5 436.5,167.5 
		436.5,168.5 436.5,168.5 436.5,169.5 436.5,169.5 436.5,169.5 436.5,169.5 437.5,169.5 437.5,169.5 437.5,168.5 437.5,167.5 
		437.5,166.5 437.5,166.5 437.5,166.5 437.5,166.5 437.5,165.5 437.5,165.5 437.5,164.5 437.5,164.5 437.5,164.5 438.5,163.5 
		438.5,163.5 438.5,163.5 438.5,162.5 438.5,162.5 438.5,162.5 438.5,162.5 438.5,162.5 438.5,162.5 438.5,162.5 438.5,163.5 
		438.5,163.5 438.5,163.5 439.5,163.5 439.5,163.5 439.5,163.5 439.5,164.5 439.5,164.5 439.5,164.5 439.5,165.5 439.5,166.5 
		439.5,166.5 439.5,167.5 439.5,168.5 439.5,168.5 439.5,169.5 440.5,170.5 440.5,171.5 440.5,171.5 440.5,171.5 440.5,172.5 
		440.5,172.5 440.5,172.5 440.5,172.5 440.5,172.5 440.5,172.5 440.5,172.5 440.5,172.5 440.5,172.5 441.5,171.5 441.5,171.5 
		441.5,171.5 441.5,170.5 441.5,170.5 441.5,169.5 441.5,169.5 441.5,169.5 441.5,168.5 441.5,168.5 441.5,168.5 441.5,168.5 
		441.5,168.5 442.5,168.5 442.5,168.5 442.5,168.5 442.5,168.5 442.5,168.5 442.5,168.5 442.5,168.5 442.5,168.5 442.5,168.5 
		442.5,168.5 442.5,168.5 442.5,168.5 442.5,168.5 443.5,168.5 443.5,168.5 443.5,169.5 443.5,169.5 443.5,170.5 443.5,170.5 
		443.5,171.5 443.5,171.5 443.5,171.5 443.5,171.5 443.5,172.5 443.5,172.5 443.5,172.5 444.5,172.5 444.5,171.5 444.5,172.5 
		444.5,172.5 444.5,172.5 444.5,172.5 444.5,172.5 444.5,172.5 444.5,172.5 444.5,172.5 444.5,173.5 444.5,173.5 444.5,173.5 
		445.5,174.5 445.5,174.5 445.5,175.5 445.5,175.5 445.5,175.5 445.5,176.5 445.5,176.5 445.5,177.5 445.5,177.5 445.5,177.5 
		445.5,178.5 445.5,178.5 445.5,179.5 446.5,179.5 446.5,180.5 446.5,180.5 446.5,181.5 446.5,181.5 446.5,182.5 446.5,182.5 
		446.5,182.5 446.5,183.5 446.5,183.5 446.5,184.5 446.5,185.5 446.5,185.5 447.5,186.5 447.5,186.5 447.5,187.5 447.5,187.5 
		447.5,188.5 447.5,188.5 447.5,189.5 447.5,189.5 447.5,189.5 447.5,189.5 447.5,189.5 447.5,190.5 447.5,190.5 448.5,190.5 
		448.5,190.5 448.5,190.5 448.5,190.5 448.5,190.5 448.5,190.5 448.5,190.5 448.5,190.5 448.5,190.5 448.5,190.5 448.5,190.5 
		448.5,190.5 448.5,190.5 449.5,190.5 449.5,190.5 449.5,190.5 449.5,189.5 449.5,189.5 449.5,189.5 449.5,189.5 449.5,189.5 
		449.5,188.5 449.5,188.5 449.5,188.5 449.5,188.5 449.5,188.5 450.5,187.5 450.5,187.5 450.5,187.5 450.5,186.5 450.5,186.5 
		450.5,186.5 450.5,186.5 450.5,185.5 450.5,185.5 450.5,185.5 450.5,184.5 450.5,184.5 450.5,184.5 451.5,183.5 451.5,183.5 
		451.5,183.5 451.5,183.5 451.5,182.5 451.5,182.5 451.5,182.5 451.5,181.5 451.5,181.5 451.5,181.5 451.5,180.5 451.5,180.5 
		451.5,180.5 452.5,180.5 452.5,179.5 452.5,179.5 452.5,180.5 452.5,180.5 452.5,180.5 452.5,181.5 452.5,181.5 452.5,181.5 
		452.5,182.5 452.5,182.5 452.5,182.5 452.5,182.5 453.5,181.5 453.5,181.5 453.5,181.5 453.5,181.5 453.5,181.5 453.5,181.5 
		453.5,181.5 453.5,181.5 453.5,181.5 453.5,181.5 453.5,181.5 453.5,181.5 453.5,181.5 453.5,181.5 454.5,182.5 454.5,182.5 
		454.5,182.5 454.5,182.5 454.5,183.5 454.5,184.5 454.5,185.5 454.5,186.5 454.5,186.5 454.5,187.5 454.5,187.5 454.5,187.5 
		454.5,187.5 455.5,186.5 455.5,185.5 455.5,185.5 455.5,185.5 455.5,185.5 455.5,184.5 455.5,184.5 455.5,184.5 455.5,184.5 
		455.5,185.5 455.5,185.5 455.5,185.5 455.5,184.5 456.5,184.5 456.5,184.5 456.5,184.5 456.5,183.5 456.5,183.5 456.5,182.5 
		456.5,182.5 456.5,182.5 456.5,181.5 456.5,181.5 456.5,181.5 456.5,181.5 456.5,181.5 457.5,181.5 457.5,180.5 457.5,180.5 
		457.5,180.5 457.5,180.5 457.5,179.5 457.5,179.5 457.5,179.5 457.5,179.5 457.5,178.5 457.5,178.5 457.5,178.5 457.5,177.5 
		458.5,177.5 458.5,177.5 458.5,177.5 458.5,176.5 458.5,176.5 458.5,176.5 458.5,176.5 458.5,176.5 458.5,175.5 458.5,175.5 
		458.5,175.5 458.5,175.5 458.5,175.5 459.5,174.5 459.5,174.5 459.5,174.5 459.5,174.5 459.5,174.5 459.5,174.5 459.5,174.5 
		459.5,173.5 459.5,173.5 459.5,173.5 459.5,173.5 459.5,173.5 459.5,173.5 460.5,172.5 460.5,172.5 460.5,172.5 460.5,172.5 
		460.5,172.5 460.5,172.5 460.5,172.5 460.5,172.5 460.5,172.5 460.5,172.5 460.5,171.5 460.5,171.5 460.5,171.5 461.5,171.5 
		461.5,171.5 461.5,171.5 461.5,171.5 461.5,171.5 461.5,171.5 461.5,171.5 461.5,171.5 461.5,171.5 461.5,170.5 461.5,170.5 
		461.5,170.5 461.5,170.5 462.5,170.5 462.5,170.5 462.5,170.5 462.5,170.5 462.5,170.5 462.5,170.5 462.5,170.5 462.5,170.5 
		462.5,170.5 462.5,170.5 462.5,170.5 462.5,170.5 462.5,170.5 463.5,170.5 463.5,170.5 463.5,170.5 463.5,170.5 463.5,170.5 
		463.5,170.5 463.5,170.5 463.5,169.5 463.5,169.5 463.5,169.5 463.5,169.5 463.5,169.5 463.5,168.5 464.5,168.5 464.5,168.5 
		464.5,168.5 464.5,168.5 464.5,168.5 464.5,167.5 464.5,167.5 464.5,167.5 464.5,167.5 464.5,167.5 464.5,166.5 464.5,166.5 
		464.5,166.5 465.5,166.5 465.5,166.5 465.5,166.5 465.5,166.5 465.5,166.5 465.5,165.5 465.5,165.5 465.5,165.5 465.5,165.5 
		465.5,165.5 465.5,165.5 465.5,165.5 465.5,165.5 466.5,165.5 466.5,165.5 466.5,164.5 466.5,164.5 466.5,164.5 466.5,164.5 
		466.5,164.5 466.5,164.5 466.5,164.5 466.5,164.5 466.5,164.5 466.5,164.5 466.5,164.5 467.5,164.5 467.5,164.5 467.5,164.5 
		467.5,164.5 467.5,163.5 467.5,163.5 467.5,163.5 467.5,163.5 467.5,163.5 467.5,163.5 467.5,163.5 467.5,163.5 467.5,163.5 
		468.5,163.5 468.5,163.5 468.5,163.5 468.5,163.5 468.5,163.5 468.5,163.5 468.5,162.5 468.5,162.5 468.5,162.5 468.5,162.5 
		468.5,162.5 468.5,162.5 468.5,162.5 469.5,162.5 469.5,162.5 469.5,161.5 469.5,161.5 469.5,161.5 469.5,161.5 469.5,161.5 
		469.5,161.5 469.5,161.5 469.5,161.5 469.5,161.5 469.5,162.5 469.5,162.5 470.5,162.5 470.5,162.5 470.5,162.5 470.5,162.5 
		470.5,162.5 470.5,162.5 470.5,162.5 470.5,163.5 470.5,163.5 470.5,163.5 470.5,163.5 470.5,163.5 470.5,163.5 471.5,163.5 
		471.5,163.5 471.5,163.5 471.5,162.5 471.5,162.5 471.5,162.5 471.5,162.5 471.5,161.5 471.5,161.5 471.5,161.5 471.5,161.5 
		471.5,161.5 471.5,161.5 472.5,160.5 472.5,160.5 472.5,160.5 472.5,160.5 472.5,160.5 472.5,159.5 472.5,159.5 472.5,159.5 
		472.5,159.5 472.5,159.5 472.5,159.5 472.5,159.5 472.5,158.5 473.5,158.5 473.5,158.5 473.5,158.5 473.5,158.5 473.5,158.5 
		473.5,158.5 473.5,158.5 473.5,158.5 473.5,158.5 473.5,158.5 473.5,158.5 473.5,158.5 473.5,158.5 474.5,159.5 474.5,159.5 
		474.5,159.5 474.5,159.5 474.5,158.5 474.5,158.5 474.5,158.5 474.5,158.5 474.5,158.5 474.5,158.5 474.5,158.5 474.5,158.5 
		474.5,157.5 475.5,157.5 475.5,157.5 475.5,157.5 475.5,156.5 475.5,156.5 475.5,156.5 475.5,156.5 475.5,156.5 475.5,155.5 
		475.5,155.5 475.5,155.5 475.5,155.5 475.5,154.5 476.5,154.5 476.5,154.5 476.5,154.5 476.5,154.5 476.5,153.5 476.5,153.5 
		476.5,153.5 476.5,153.5 476.5,152.5 476.5,152.5 476.5,152.5 476.5,152.5 476.5,152.5 477.5,152.5 477.5,152.5 477.5,151.5 
		477.5,151.5 477.5,151.5 477.5,151.5 477.5,151.5 477.5,151.5 477.5,151.5 477.5,151.5 477.5,151.5 477.5,151.5 477.5,151.5 
		478.5,151.5 478.5,151.5 478.5,151.5 478.5,151.5 478.5,151.5 478.5,151.5 478.5,151.5 478.5,151.5 478.5,151.5 478.5,151.5 
		478.5,151.5 478.5,151.5 478.5,151.5 479.5,150.5 479.5,150.5 479.5,150.5 479.5,150.5 479.5,149.5 479.5,149.5 479.5,149.5 
		479.5,148.5 479.5,148.5 479.5,148.5 479.5,148.5 479.5,147.5 479.5,147.5 480.5,147.5 480.5,147.5 480.5,147.5 480.5,146.5 
		480.5,146.5 480.5,146.5 480.5,146.5 480.5,146.5 480.5,145.5 480.5,145.5 480.5,145.5 480.5,145.5 480.5,145.5 481.5,145.5 
		481.5,144.5 481.5,145.5 481.5,145.5 481.5,145.5 481.5,145.5 481.5,145.5 481.5,145.5 481.5,145.5 481.5,145.5 481.5,145.5 
		481.5,144.5 481.5,144.5 482.5,144.5 482.5,144.5 482.5,144.5 482.5,144.5 482.5,144.5 482.5,144.5 482.5,144.5 482.5,144.5 
		482.5,144.5 482.5,144.5 482.5,144.5 482.5,144.5 482.5,144.5 483.5,143.5 483.5,143.5 483.5,143.5 483.5,143.5 483.5,143.5 
		483.5,143.5 483.5,143.5 483.5,143.5 483.5,143.5 483.5,142.5 483.5,142.5 483.5,142.5 483.5,142.5 484.5,141.5 484.5,141.5 
		484.5,141.5 484.5,140.5 484.5,140.5 484.5,140.5 484.5,140.5 484.5,139.5 484.5,139.5 484.5,139.5 484.5,139.5 484.5,139.5 
		484.5,139.5 485.5,139.5 485.5,138.5 485.5,138.5 485.5,138.5 485.5,138.5 485.5,138.5 485.5,137.5 485.5,137.5 485.5,137.5 
		485.5,137.5 485.5,136.5 485.5,136.5 485.5,136.5 486.5,136.5 486.5,135.5 486.5,135.5 486.5,135.5 486.5,135.5 486.5,134.5 
		486.5,134.5 486.5,134.5 486.5,134.5 486.5,134.5 486.5,133.5 486.5,133.5 486.5,132.5 487.5,132.5 487.5,132.5 487.5,131.5 
		487.5,131.5 487.5,131.5 487.5,131.5 487.5,130.5 487.5,130.5 487.5,130.5 487.5,130.5 487.5,129.5 487.5,129.5 487.5,129.5 
		488.5,129.5 488.5,129.5 488.5,128.5 488.5,128.5 488.5,128.5 488.5,128.5 488.5,128.5 488.5,128.5 488.5,127.5 488.5,127.5 
		488.5,128.5 488.5,128.5 488.5,128.5 489.5,128.5 489.5,128.5 489.5,128.5 489.5,128.5 489.5,128.5 489.5,129.5 489.5,129.5 
		489.5,130.5 489.5,130.5 489.5,130.5 489.5,131.5 489.5,131.5 489.5,132.5 490.5,132.5 490.5,133.5 490.5,133.5 490.5,133.5 
		490.5,134.5 490.5,134.5 490.5,134.5 490.5,135.5 490.5,135.5 490.5,136.5 490.5,136.5 490.5,136.5 490.5,137.5 491.5,138.5 
		491.5,139.5 491.5,139.5 491.5,140.5 491.5,140.5 491.5,141.5 491.5,141.5 491.5,141.5 491.5,142.5 491.5,142.5 491.5,142.5 
		491.5,141.5 491.5,141.5 492.5,141.5 492.5,141.5 492.5,141.5 492.5,140.5 492.5,140.5 492.5,140.5 492.5,140.5 492.5,140.5 
		492.5,140.5 492.5,140.5 492.5,140.5 492.5,140.5 492.5,140.5 493.5,140.5 493.5,140.5 493.5,140.5 493.5,140.5 493.5,139.5 
		493.5,139.5 493.5,139.5 493.5,139.5 493.5,139.5 493.5,139.5 493.5,138.5 493.5,138.5 493.5,138.5 494.5,138.5 494.5,138.5 
		494.5,137.5 494.5,137.5 494.5,137.5 494.5,137.5 494.5,136.5 494.5,136.5 494.5,136.5 494.5,136.5 494.5,135.5 494.5,135.5 
		494.5,135.5 495.5,135.5 495.5,134.5 495.5,134.5 495.5,133.5 495.5,133.5 495.5,132.5 495.5,132.5 495.5,131.5 495.5,131.5 
		495.5,130.5 495.5,129.5 495.5,128.5 495.5,127.5 496.5,126.5 496.5,125.5 496.5,125.5 496.5,124.5 496.5,123.5 496.5,123.5 
		496.5,122.5 496.5,122.5 496.5,122.5 496.5,121.5 496.5,120.5 496.5,120.5 496.5,119.5 497.5,119.5 497.5,118.5 497.5,117.5 
		497.5,116.5 497.5,115.5 497.5,114.5 497.5,114.5 497.5,113.5 497.5,112.5 497.5,111.5 497.5,111.5 497.5,110.5 497.5,110.5 
		498.5,110.5 498.5,110.5 498.5,110.5 498.5,109.5 498.5,109.5 498.5,109.5 498.5,109.5 498.5,109.5 498.5,109.5 498.5,108.5 
		498.5,108.5 498.5,108.5 498.5,108.5 499.5,108.5 499.5,108.5 499.5,107.5 499.5,107.5 499.5,107.5 499.5,107.5 499.5,106.5 
		499.5,106.5 499.5,106.5 499.5,106.5 499.5,106.5 499.5,106.5 499.5,106.5 500.5,106.5 500.5,106.5 500.5,106.5 500.5,106.5 
		500.5,107.5 500.5,107.5 500.5,108.5 500.5,109.5 500.5,109.5 500.5,110.5 500.5,110.5 500.5,111.5 500.5,111.5 501.5,112.5 
		501.5,113.5 501.5,113.5 501.5,114.5 501.5,114.5 501.5,115.5 501.5,115.5 501.5,116.5 501.5,117.5 501.5,117.5 501.5,117.5 
		501.5,117.5 501.5,118.5 502.5,118.5 502.5,119.5 502.5,119.5 502.5,119.5 502.5,120.5 502.5,120.5 502.5,120.5 502.5,121.5 
		502.5,121.5 502.5,122.5 502.5,122.5 502.5,123.5 502.5,123.5 503.5,123.5 503.5,123.5 503.5,124.5 503.5,124.5 503.5,124.5 
		503.5,125.5 503.5,125.5 503.5,126.5 503.5,126.5 503.5,127.5 503.5,127.5 503.5,128.5 503.5,128.5 504.5,129.5 504.5,129.5 
		504.5,130.5 504.5,130.5 504.5,131.5 504.5,131.5 504.5,132.5 504.5,132.5 504.5,133.5 504.5,133.5 504.5,133.5 504.5,134.5 
		504.5,134.5 505.5,135.5 505.5,135.5 505.5,135.5 505.5,136.5 505.5,136.5 505.5,137.5 505.5,137.5 505.5,138.5 505.5,138.5 
		505.5,138.5 505.5,138.5 505.5,139.5 505.5,139.5 506.5,139.5 506.5,140.5 506.5,140.5 506.5,140.5 506.5,140.5 506.5,140.5 
		506.5,141.5 506.5,141.5 506.5,141.5 506.5,141.5 506.5,141.5 506.5,142.5 506.5,142.5 507.5,142.5 507.5,142.5 507.5,143.5 
		507.5,143.5 507.5,143.5 507.5,143.5 507.5,143.5 507.5,143.5 507.5,143.5 507.5,143.5 507.5,143.5 507.5,143.5 507.5,143.5 
		508.5,142.5 508.5,142.5 508.5,141.5 508.5,141.5 508.5,141.5 508.5,140.5 508.5,139.5 508.5,139.5 508.5,138.5 508.5,138.5 
		508.5,137.5 508.5,137.5 508.5,136.5 509.5,136.5 509.5,136.5 509.5,135.5 509.5,135.5 509.5,135.5 509.5,134.5 509.5,134.5 
		509.5,134.5 509.5,133.5 509.5,132.5 509.5,132.5 509.5,132.5 509.5,132.5 510.5,132.5 510.5,132.5 510.5,132.5 510.5,132.5 
		510.5,131.5 510.5,131.5 510.5,131.5 510.5,131.5 510.5,131.5 510.5,131.5 510.5,131.5 510.5,131.5 510.5,131.5 511.5,131.5 
		511.5,132.5 511.5,132.5 511.5,132.5 511.5,132.5 511.5,133.5 511.5,133.5 511.5,134.5 511.5,134.5 511.5,134.5 511.5,135.5 
		511.5,135.5 511.5,135.5 512.5,136.5 512.5,136.5 512.5,136.5 512.5,137.5 512.5,137.5 512.5,138.5 512.5,138.5 512.5,139.5 
		512.5,139.5 512.5,139.5 512.5,140.5 512.5,140.5 512.5,141.5 513.5,141.5 513.5,141.5 513.5,142.5 513.5,142.5 513.5,143.5 
		513.5,143.5 513.5,143.5 513.5,143.5 513.5,144.5 513.5,144.5 513.5,144.5 513.5,144.5 513.5,145.5 514.5,145.5 514.5,145.5 
		514.5,145.5 514.5,146.5 514.5,146.5 514.5,146.5 514.5,146.5 514.5,147.5 514.5,147.5 514.5,147.5 514.5,147.5 514.5,148.5 
		514.5,148.5 515.5,148.5 515.5,149.5 515.5,149.5 515.5,149.5 515.5,149.5 515.5,150.5 515.5,150.5 515.5,150.5 515.5,150.5 
		515.5,150.5 515.5,150.5 515.5,151.5 515.5,151.5 516.5,151.5 516.5,151.5 516.5,151.5 516.5,151.5 516.5,152.5 516.5,152.5 
		516.5,152.5 516.5,152.5 516.5,152.5 516.5,152.5 516.5,152.5 516.5,152.5 516.5,152.5 517.5,152.5 517.5,153.5 517.5,153.5 
		517.5,153.5 517.5,153.5 517.5,153.5 517.5,153.5 517.5,154.5 517.5,154.5 517.5,154.5 517.5,154.5 517.5,154.5 517.5,154.5 
		518.5,154.5 518.5,154.5 518.5,154.5 518.5,154.5 518.5,154.5 518.5,155.5 518.5,155.5 518.5,155.5 518.5,155.5 518.5,155.5 
		518.5,155.5 518.5,155.5 518.5,156.5 519.5,156.5 519.5,156.5 519.5,156.5 519.5,156.5 519.5,156.5 519.5,157.5 519.5,157.5 
		519.5,157.5 519.5,157.5 519.5,157.5 519.5,158.5 519.5,158.5 519.5,158.5 520.5,158.5 520.5,159.5 520.5,159.5 520.5,159.5 
		520.5,159.5 520.5,160.5 520.5,160.5 520.5,160.5 520.5,160.5 520.5,161.5 520.5,161.5 520.5,161.5 520.5,161.5 521.5,161.5 
		521.5,161.5 521.5,161.5 521.5,161.5 521.5,161.5 521.5,161.5 521.5,161.5 521.5,161.5 521.5,161.5 521.5,161.5 521.5,162.5 
		521.5,161.5 521.5,161.5 522.5,162.5 522.5,162.5 522.5,162.5 522.5,162.5 522.5,162.5 522.5,161.5 522.5,161.5 522.5,161.5 
		522.5,161.5 522.5,160.5 522.5,160.5 522.5,160.5 522.5,159.5 523.5,159.5 523.5,159.5 523.5,159.5 523.5,158.5 523.5,158.5 
		523.5,158.5 523.5,158.5 523.5,158.5 523.5,158.5 523.5,158.5 523.5,157.5 523.5,157.5 523.5,157.5 524.5,157.5 524.5,157.5 
		524.5,157.5 524.5,156.5 524.5,156.5 524.5,156.5 524.5,156.5 524.5,156.5 524.5,156.5 524.5,155.5 524.5,155.5 524.5,155.5 
		524.5,155.5 525.5,154.5 525.5,154.5 525.5,154.5 525.5,154.5 525.5,153.5 525.5,153.5 525.5,153.5 525.5,153.5 525.5,152.5 
		525.5,152.5 525.5,152.5 525.5,152.5 525.5,151.5 526.5,151.5 526.5,151.5 526.5,151.5 526.5,151.5 526.5,151.5 526.5,151.5 
		526.5,151.5 526.5,150.5 526.5,151.5 526.5,150.5 526.5,150.5 526.5,150.5 526.5,151.5 527.5,151.5 527.5,151.5 527.5,151.5 
		527.5,151.5 527.5,151.5 527.5,151.5 527.5,151.5 527.5,151.5 527.5,151.5 527.5,151.5 527.5,151.5 527.5,151.5 527.5,151.5 
		528.5,151.5 528.5,151.5 528.5,151.5 528.5,151.5 528.5,151.5 528.5,151.5 528.5,151.5 528.5,151.5 528.5,151.5 528.5,151.5 
		528.5,151.5 528.5,151.5 528.5,151.5 529.5,151.5 529.5,152.5 529.5,152.5 529.5,152.5 529.5,152.5 529.5,152.5 529.5,152.5 
		529.5,152.5 529.5,152.5 529.5,152.5 529.5,152.5 529.5,153.5 529.5,153.5 530.5,153.5 530.5,153.5 530.5,153.5 530.5,153.5 
		530.5,154.5 530.5,154.5 530.5,154.5 530.5,154.5 530.5,154.5 530.5,154.5 530.5,154.5 530.5,155.5 530.5,155.5 531.5,155.5 
		531.5,155.5 531.5,156.5 531.5,156.5 531.5,156.5 531.5,156.5 531.5,156.5 531.5,156.5 531.5,157.5 531.5,157.5 531.5,157.5 
		531.5,157.5 531.5,157.5 532.5,157.5 532.5,157.5 532.5,157.5 532.5,158.5 532.5,158.5 532.5,158.5 532.5,158.5 532.5,158.5 
		532.5,158.5 532.5,158.5 532.5,158.5 532.5,159.5 532.5,159.5 533.5,159.5 533.5,159.5 533.5,159.5 533.5,159.5 533.5,159.5 
		533.5,159.5 533.5,160.5 533.5,160.5 533.5,160.5 533.5,160.5 533.5,160.5 533.5,160.5 533.5,160.5 534.5,160.5 534.5,160.5 
		534.5,160.5 534.5,160.5 534.5,160.5 534.5,160.5 534.5,160.5 534.5,161.5 534.5,161.5 534.5,161.5 534.5,161.5 534.5,161.5 
		534.5,161.5 535.5,161.5 535.5,161.5 535.5,161.5 535.5,161.5 535.5,162.5 535.5,162.5 535.5,162.5 535.5,162.5 535.5,162.5 
		535.5,162.5 535.5,162.5 535.5,163.5 535.5,163.5 536.5,163.5 536.5,163.5 536.5,163.5 536.5,163.5 536.5,163.5 536.5,163.5 
		536.5,162.5 536.5,162.5 536.5,162.5 536.5,162.5 536.5,162.5 536.5,162.5 536.5,162.5 536.5,162.5 537.5,162.5 537.5,162.5 
		537.5,161.5 537.5,161.5 537.5,161.5 537.5,161.5 537.5,161.5 537.5,161.5 537.5,160.5 537.5,160.5 537.5,160.5 537.5,160.5 
		537.5,160.5 538.5,159.5 538.5,159.5 538.5,159.5 538.5,159.5 538.5,158.5 538.5,158.5 538.5,158.5 538.5,158.5 538.5,157.5 
		538.5,157.5 538.5,157.5 538.5,157.5 538.5,157.5 539.5,157.5 539.5,157.5 539.5,157.5 539.5,157.5 539.5,157.5 539.5,157.5 
		539.5,157.5 539.5,157.5 539.5,157.5 539.5,157.5 539.5,157.5 539.5,158.5 539.5,158.5 540.5,158.5 540.5,158.5 540.5,158.5 
		540.5,158.5 540.5,157.5 540.5,157.5 540.5,157.5 540.5,157.5 540.5,157.5 540.5,156.5 540.5,156.5 540.5,156.5 540.5,156.5 
		541.5,155.5 541.5,155.5 541.5,155.5 541.5,155.5 541.5,155.5 541.5,155.5 541.5,154.5 541.5,154.5 541.5,154.5 541.5,154.5 
		541.5,154.5 541.5,154.5 541.5,154.5 542.5,154.5 542.5,153.5 542.5,153.5 542.5,153.5 542.5,153.5 542.5,153.5 542.5,153.5 
		542.5,153.5 542.5,153.5 542.5,152.5 542.5,153.5 542.5,153.5 542.5,153.5 543.5,153.5 543.5,153.5 543.5,154.5 543.5,154.5 
		543.5,154.5 543.5,154.5 543.5,154.5 543.5,154.5 543.5,154.5 543.5,153.5 543.5,153.5 543.5,153.5 543.5,153.5 544.5,153.5 
		544.5,153.5 544.5,153.5 544.5,153.5 544.5,153.5 544.5,153.5 544.5,153.5 544.5,153.5 544.5,153.5 544.5,154.5 544.5,154.5 
		544.5,154.5 544.5,154.5 545.5,154.5 545.5,154.5 545.5,154.5 545.5,154.5 545.5,154.5 545.5,154.5 545.5,154.5 545.5,154.5 
		545.5,154.5 545.5,154.5 545.5,154.5 545.5,153.5 545.5,153.5 546.5,153.5 546.5,152.5 546.5,152.5 546.5,152.5 546.5,152.5 
		546.5,152.5 546.5,152.5 546.5,152.5 546.5,151.5 546.5,151.5 546.5,151.5 546.5,151.5 546.5,151.5 547.5,152.5 547.5,152.5 
		547.5,152.5 547.5,152.5 547.5,152.5 547.5,152.5 547.5,152.5 547.5,152.5 547.5,152.5 547.5,152.5 547.5,152.5 547.5,152.5 
		547.5,152.5 548.5,152.5 548.5,152.5 548.5,152.5 548.5,152.5 548.5,152.5 548.5,151.5 548.5,151.5 548.5,151.5 548.5,150.5 
		548.5,150.5 548.5,149.5 548.5,149.5 548.5,149.5 549.5,149.5 549.5,149.5 549.5,148.5 549.5,148.5 549.5,148.5 549.5,148.5 
		549.5,148.5 549.5,148.5 549.5,148.5 549.5,149.5 549.5,149.5 549.5,149.5 549.5,149.5 550.5,150.5 550.5,150.5 550.5,150.5 
		550.5,150.5 550.5,150.5 550.5,150.5 550.5,151.5 550.5,151.5 550.5,151.5 550.5,151.5 550.5,151.5 550.5,151.5 550.5,151.5 
		551.5,152.5 551.5,152.5 551.5,152.5 551.5,152.5 551.5,152.5 551.5,152.5 551.5,152.5 551.5,151.5 551.5,151.5 551.5,151.5 
		551.5,151.5 551.5,151.5 551.5,150.5 552.5,150.5 552.5,150.5 552.5,150.5 552.5,150.5 552.5,150.5 552.5,150.5 552.5,150.5 
		552.5,150.5 552.5,150.5 552.5,150.5 552.5,150.5 552.5,150.5 552.5,150.5 553.5,150.5 553.5,150.5 553.5,149.5 553.5,149.5 
		553.5,149.5 553.5,149.5 553.5,149.5 553.5,149.5 553.5,148.5 553.5,148.5 553.5,148.5 553.5,148.5 553.5,148.5 554.5,148.5 
		554.5,147.5 554.5,147.5 554.5,147.5 554.5,147.5 554.5,147.5 554.5,147.5 554.5,146.5 554.5,146.5 554.5,146.5 554.5,146.5 
		554.5,145.5 554.5,145.5 555.5,145.5 555.5,145.5 555.5,144.5 555.5,144.5 555.5,144.5 555.5,144.5 555.5,143.5 555.5,143.5 
		555.5,143.5 555.5,143.5 555.5,142.5 555.5,142.5 555.5,141.5 556.5,141.5 556.5,141.5 556.5,140.5 556.5,140.5 556.5,140.5 
		556.5,140.5 556.5,140.5 556.5,140.5 556.5,140.5 556.5,141.5 556.5,141.5 556.5,141.5 556.5,141.5 557.5,141.5 557.5,141.5 
		557.5,142.5 557.5,142.5 557.5,142.5 557.5,142.5 557.5,142.5 557.5,142.5 557.5,142.5 557.5,142.5 557.5,141.5 557.5,141.5 
		557.5,141.5 558.5,141.5 558.5,140.5 558.5,140.5 558.5,140.5 558.5,139.5 558.5,138.5 558.5,138.5 558.5,138.5 558.5,139.5 
		558.5,139.5 558.5,139.5 558.5,139.5 558.5,139.5 559.5,139.5 559.5,139.5 559.5,139.5 559.5,139.5 559.5,139.5 559.5,139.5 
		559.5,139.5 559.5,139.5 559.5,139.5 559.5,139.5 559.5,139.5 559.5,139.5 559.5,139.5 560.5,139.5 560.5,139.5 560.5,139.5 
		560.5,139.5 560.5,139.5 560.5,139.5 560.5,139.5 560.5,139.5 560.5,139.5 560.5,139.5 560.5,139.5 560.5,139.5 560.5,139.5 
		561.5,139.5 561.5,139.5 561.5,139.5 561.5,139.5 561.5,140.5 561.5,140.5 561.5,141.5 561.5,141.5 561.5,141.5 561.5,141.5 
		561.5,141.5 561.5,142.5 561.5,142.5 562.5,143.5 562.5,143.5 562.5,144.5 562.5,144.5 562.5,144.5 562.5,145.5 562.5,145.5 
		562.5,146.5 562.5,146.5 562.5,146.5 562.5,147.5 562.5,147.5 562.5,148.5 563.5,149.5 563.5,149.5 563.5,150.5 563.5,150.5 
		563.5,151.5 563.5,152.5 563.5,152.5 563.5,152.5 563.5,153.5 563.5,153.5 563.5,154.5 563.5,154.5 563.5,154.5 564.5,155.5 
		564.5,155.5 564.5,156.5 564.5,156.5 564.5,157.5 564.5,157.5 564.5,158.5 564.5,158.5 564.5,159.5 564.5,159.5 564.5,160.5 
		564.5,160.5 564.5,160.5 565.5,160.5 565.5,161.5 565.5,161.5 565.5,161.5 565.5,161.5 565.5,162.5 565.5,162.5 565.5,162.5 
		565.5,162.5 565.5,162.5 565.5,162.5 565.5,162.5 565.5,162.5 566.5,163.5 566.5,163.5 566.5,163.5 566.5,163.5 566.5,163.5 
		566.5,163.5 566.5,163.5 566.5,163.5 566.5,163.5 566.5,163.5 566.5,163.5 566.5,163.5 566.5,164.5 567.5,164.5 567.5,164.5 
		567.5,164.5 567.5,164.5 567.5,164.5 567.5,164.5 567.5,165.5 567.5,165.5 567.5,165.5 567.5,165.5 567.5,165.5 567.5,165.5 
		567.5,164.5 568.5,164.5 568.5,164.5 568.5,164.5 568.5,164.5 568.5,164.5 568.5,164.5 568.5,165.5 568.5,165.5 568.5,165.5 
		568.5,165.5 568.5,165.5 568.5,165.5 568.5,165.5 569.5,165.5 569.5,164.5 569.5,164.5 569.5,164.5 569.5,164.5 569.5,164.5 
		569.5,164.5 569.5,164.5 569.5,164.5 569.5,164.5 569.5,164.5 569.5,164.5 569.5,164.5 570.5,164.5 570.5,163.5 570.5,163.5 
		570.5,163.5 570.5,163.5 570.5,163.5 570.5,163.5 570.5,163.5 570.5,163.5 570.5,163.5 570.5,163.5 570.5,163.5 570.5,163.5 
		571.5,162.5 571.5,162.5 571.5,162.5 571.5,162.5 571.5,162.5 571.5,162.5 571.5,162.5 571.5,162.5 571.5,162.5 571.5,162.5 
		571.5,162.5 571.5,161.5 571.5,161.5 572.5,161.5 572.5,161.5 572.5,161.5 572.5,161.5 572.5,161.5 572.5,161.5 572.5,160.5 
		572.5,160.5 572.5,160.5 572.5,160.5 572.5,160.5 572.5,160.5 572.5,159.5 573.5,159.5 573.5,159.5 573.5,159.5 573.5,159.5 
		573.5,159.5 573.5,159.5 573.5,159.5 573.5,159.5 573.5,158.5 573.5,158.5 573.5,158.5 573.5,158.5 573.5,158.5 574.5,158.5 
		574.5,158.5 574.5,158.5 574.5,158.5 574.5,158.5 574.5,158.5 574.5,158.5 574.5,158.5 574.5,157.5 574.5,157.5 574.5,157.5 
		574.5,157.5 574.5,157.5 575.5,156.5 575.5,156.5 575.5,156.5 575.5,156.5 575.5,155.5 575.5,155.5 575.5,155.5 575.5,155.5 
		575.5,155.5 575.5,154.5 575.5,154.5 575.5,154.5 575.5,154.5 576.5,154.5 576.5,153.5 576.5,153.5 576.5,153.5 576.5,153.5 
		576.5,152.5 576.5,152.5 576.5,152.5 576.5,152.5 576.5,152.5 576.5,152.5 576.5,152.5 576.5,152.5 577.5,152.5 577.5,152.5 
		577.5,151.5 577.5,152.5 577.5,152.5 577.5,152.5 577.5,152.5 577.5,152.5 577.5,152.5 577.5,152.5 577.5,152.5 577.5,153.5 
		577.5,153.5 578.5,153.5 578.5,153.5 578.5,153.5 578.5,153.5 578.5,153.5 578.5,153.5 578.5,154.5 578.5,153.5 578.5,153.5 
		578.5,153.5 578.5,153.5 578.5,153.5 578.5,153.5 579.5,152.5 579.5,152.5 579.5,152.5 579.5,152.5 579.5,151.5 579.5,151.5 
		579.5,151.5 579.5,150.5 579.5,151.5 579.5,151.5 579.5,151.5 579.5,151.5 579.5,151.5 580.5,151.5 580.5,151.5 580.5,151.5 
		580.5,151.5 580.5,151.5 580.5,151.5 580.5,150.5 580.5,150.5 580.5,150.5 580.5,150.5 580.5,149.5 580.5,149.5 580.5,149.5 
		581.5,149.5 581.5,149.5 581.5,149.5 581.5,149.5 581.5,149.5 581.5,149.5 581.5,149.5 581.5,150.5 581.5,150.5 581.5,150.5 
		581.5,150.5 581.5,150.5 581.5,150.5 582.5,150.5 582.5,151.5 582.5,151.5 582.5,151.5 582.5,152.5 582.5,152.5 582.5,153.5 
		582.5,153.5 582.5,154.5 582.5,154.5 582.5,154.5 582.5,154.5 582.5,155.5 583.5,155.5 583.5,155.5 583.5,155.5 583.5,156.5 
		583.5,156.5 583.5,156.5 583.5,156.5 583.5,156.5 583.5,157.5 583.5,157.5 583.5,157.5 583.5,157.5 583.5,157.5 584.5,157.5 
		584.5,157.5 584.5,158.5 584.5,157.5 584.5,158.5 584.5,158.5 584.5,158.5 584.5,158.5 584.5,158.5 584.5,158.5 584.5,158.5 
		584.5,159.5 584.5,159.5 585.5,159.5 585.5,159.5 585.5,159.5 585.5,159.5 585.5,159.5 585.5,160.5 585.5,160.5 585.5,160.5 
		585.5,160.5 585.5,161.5 585.5,161.5 585.5,161.5 585.5,161.5 586.5,161.5 586.5,161.5 586.5,161.5 586.5,161.5 586.5,161.5 
		586.5,161.5 586.5,161.5 586.5,161.5 586.5,161.5 586.5,161.5 586.5,161.5 586.5,161.5 586.5,161.5 587.5,161.5 587.5,161.5 
		587.5,161.5 587.5,161.5 587.5,161.5 587.5,161.5 587.5,161.5 587.5,161.5 587.5,161.5 587.5,161.5 587.5,161.5 587.5,160.5 
		587.5,160.5 588.5,160.5 588.5,160.5 588.5,160.5 588.5,159.5 588.5,159.5 588.5,159.5 588.5,159.5 588.5,159.5 588.5,158.5 
		588.5,158.5 588.5,158.5 588.5,158.5 588.5,157.5 589.5,157.5 589.5,157.5 589.5,156.5 589.5,156.5 589.5,156.5 589.5,156.5 
		589.5,156.5 589.5,156.5 589.5,156.5 589.5,155.5 589.5,155.5 589.5,155.5 589.5,155.5 590.5,155.5 590.5,154.5 590.5,154.5 
		590.5,154.5 590.5,153.5 590.5,153.5 590.5,153.5 590.5,152.5 590.5,152.5 590.5,152.5 590.5,152.5 590.5,151.5 590.5,151.5 
		591.5,151.5 591.5,151.5 591.5,151.5 591.5,151.5 591.5,151.5 591.5,151.5 591.5,151.5 591.5,151.5 591.5,151.5 591.5,151.5 
		591.5,151.5 591.5,151.5 591.5,151.5 592.5,151.5 592.5,151.5 592.5,151.5 592.5,151.5 592.5,151.5 592.5,151.5 592.5,151.5 
		592.5,151.5 592.5,151.5 592.5,151.5 592.5,151.5 592.5,152.5 592.5,152.5 593.5,151.5 593.5,151.5 593.5,151.5 593.5,151.5 
		593.5,151.5 593.5,152.5 593.5,152.5 593.5,152.5 593.5,152.5 593.5,152.5 593.5,152.5 593.5,153.5 593.5,153.5 594.5,153.5 
		594.5,152.5 594.5,152.5 594.5,152.5 594.5,152.5 594.5,152.5 594.5,152.5 594.5,152.5 594.5,151.5 594.5,151.5 594.5,151.5 
		594.5,150.5 594.5,150.5 595.5,150.5 595.5,149.5 595.5,149.5 595.5,149.5 595.5,148.5 595.5,148.5 595.5,148.5 595.5,148.5 
		595.5,147.5 595.5,147.5 595.5,147.5 595.5,147.5 595.5,146.5 596.5,146.5 596.5,146.5 596.5,146.5 596.5,146.5 596.5,146.5 
		596.5,146.5 596.5,146.5 596.5,146.5 596.5,147.5 596.5,147.5 596.5,147.5 596.5,148.5 596.5,148.5 597.5,148.5 597.5,149.5 
		597.5,149.5 597.5,149.5 597.5,150.5 597.5,150.5 597.5,151.5 597.5,151.5 597.5,152.5 597.5,152.5 597.5,153.5 597.5,153.5 
		597.5,154.5 598.5,154.5 598.5,155.5 598.5,155.5 598.5,156.5 598.5,156.5 598.5,157.5 598.5,157.5 598.5,158.5 598.5,158.5 
		598.5,158.5 598.5,158.5 598.5,158.5 598.5,159.5 599.5,159.5 599.5,159.5 599.5,159.5 599.5,159.5 599.5,159.5 599.5,159.5 
		599.5,160.5 599.5,160.5 599.5,160.5 599.5,160.5 599.5,160.5 599.5,160.5 599.5,160.5 600.5,160.5 600.5,160.5 600.5,160.5 
		600.5,160.5 600.5,160.5 600.5,160.5 600.5,160.5 600.5,160.5 600.5,160.5 600.5,160.5 600.5,160.5 600.5,160.5 600.5,160.5 
		601.5,160.5 601.5,160.5 601.5,160.5 601.5,160.5 601.5,160.5 601.5,160.5 601.5,160.5 601.5,160.5 601.5,160.5 601.5,160.5 
		601.5,160.5 601.5,160.5 601.5,160.5 602.5,160.5 602.5,160.5 602.5,160.5 602.5,160.5 602.5,160.5 602.5,159.5 602.5,159.5 
		602.5,159.5 602.5,159.5 602.5,159.5 602.5,159.5 602.5,159.5 602.5,159.5 603.5,159.5 603.5,159.5 603.5,159.5 603.5,159.5 
		603.5,159.5 603.5,160.5 603.5,160.5 603.5,160.5 603.5,160.5 603.5,160.5 603.5,160.5 603.5,161.5 603.5,161.5 604.5,161.5 
		604.5,162.5 604.5,163.5 604.5,163.5 604.5,163.5 604.5,162.5 604.5,161.5 604.5,161.5 604.5,160.5 604.5,160.5 604.5,160.5 
		604.5,160.5 604.5,159.5 605.5,159.5 605.5,159.5 605.5,159.5 605.5,159.5 605.5,159.5 605.5,158.5 605.5,158.5 605.5,158.5 
		605.5,157.5 605.5,157.5 605.5,157.5 605.5,156.5 605.5,156.5 606.5,156.5 606.5,156.5 606.5,156.5 606.5,155.5 606.5,155.5 
		606.5,155.5 606.5,155.5 606.5,155.5 606.5,154.5 606.5,154.5 606.5,154.5 606.5,154.5 606.5,154.5 607.5,154.5 607.5,154.5 
		607.5,154.5 607.5,154.5 607.5,154.5 607.5,154.5 607.5,154.5 607.5,154.5 607.5,154.5 607.5,154.5 607.5,154.5 607.5,154.5 
		607.5,154.5 608.5,154.5 608.5,154.5 608.5,154.5 608.5,154.5 608.5,154.5 608.5,154.5 608.5,154.5 608.5,154.5 608.5,154.5 
		608.5,154.5 608.5,154.5 608.5,154.5 608.5,154.5 609.5,154.5 609.5,153.5 609.5,153.5 609.5,153.5 609.5,153.5 609.5,153.5 
		609.5,153.5 609.5,153.5 609.5,153.5 609.5,152.5 609.5,152.5 609.5,152.5 609.5,152.5 610.5,152.5 610.5,152.5 610.5,152.5 
		610.5,152.5 610.5,152.5 610.5,152.5 610.5,152.5 610.5,152.5 610.5,152.5 610.5,152.5 610.5,152.5 610.5,152.5 610.5,152.5 
		611.5,152.5 611.5,152.5 611.5,152.5 611.5,152.5 611.5,152.5 611.5,152.5 611.5,152.5 611.5,152.5 611.5,152.5 611.5,152.5 
		611.5,152.5 611.5,152.5 611.5,152.5 612.5,152.5 612.5,153.5 612.5,153.5 612.5,153.5 612.5,153.5 612.5,153.5 612.5,153.5 
		612.5,153.5 612.5,153.5 612.5,153.5 612.5,153.5 612.5,154.5 612.5,154.5 613.5,154.5 613.5,154.5 613.5,154.5 613.5,154.5 
		613.5,154.5 613.5,154.5 613.5,154.5 613.5,154.5 613.5,154.5 613.5,154.5 613.5,154.5 613.5,155.5 613.5,155.5 614.5,155.5 
		614.5,155.5 614.5,155.5 614.5,155.5 614.5,155.5 614.5,155.5 614.5,155.5 614.5,155.5 614.5,155.5 614.5,155.5 614.5,155.5 
		614.5,155.5 614.5,155.5 615.5,155.5 615.5,155.5 615.5,155.5 615.5,155.5 615.5,155.5 615.5,155.5 615.5,155.5 615.5,155.5 
		615.5,155.5 615.5,155.5 615.5,155.5 615.5,154.5 615.5,154.5 616.5,154.5 616.5,154.5 616.5,154.5 616.5,154.5 616.5,154.5 
		616.5,154.5 616.5,154.5 616.5,154.5 616.5,154.5 616.5,154.5 616.5,154.5 616.5,154.5 616.5,154.5 617.5,154.5 617.5,154.5 
		617.5,154.5 617.5,154.5 617.5,154.5 617.5,154.5 617.5,154.5 617.5,153.5 617.5,153.5 617.5,153.5 617.5,153.5 617.5,153.5 
		617.5,153.5 618.5,153.5 618.5,153.5 618.5,153.5 618.5,153.5 618.5,153.5 618.5,153.5 618.5,153.5 618.5,153.5 618.5,153.5 
		618.5,153.5 618.5,153.5 618.5,152.5 618.5,152.5 618.5,152.5 619.5,152.5 619.5,152.5 619.5,152.5 619.5,152.5 619.5,152.5 
		619.5,152.5 619.5,152.5 619.5,152.5 619.5,151.5 619.5,151.5 619.5,151.5 619.5,151.5 619.5,151.5 620.5,151.5 620.5,151.5 
		620.5,151.5 620.5,151.5 620.5,151.5 620.5,151.5 620.5,151.5 620.5,151.5 620.5,151.5 620.5,150.5 620.5,150.5 620.5,150.5 
		620.5,150.5 621.5,150.5 621.5,150.5 621.5,150.5 621.5,150.5 621.5,150.5 621.5,150.5 621.5,150.5 621.5,150.5 621.5,150.5 
		621.5,149.5 621.5,149.5 621.5,149.5 621.5,149.5 622.5,149.5 622.5,149.5 622.5,149.5 622.5,149.5 622.5,149.5 622.5,149.5 
		622.5,149.5 622.5,149.5 622.5,148.5 622.5,148.5 622.5,148.5 622.5,148.5 622.5,148.5 623.5,148.5 623.5,148.5 623.5,148.5 
		623.5,147.5 623.5,147.5 623.5,147.5 623.5,147.5 623.5,146.5 623.5,146.5 623.5,146.5 623.5,146.5 623.5,146.5 623.5,146.5 
		624.5,146.5 624.5,146.5 624.5,146.5 624.5,146.5 624.5,145.5 624.5,145.5 624.5,145.5 624.5,145.5 624.5,145.5 624.5,145.5 
		624.5,145.5 624.5,145.5 624.5,145.5 625.5,145.5 625.5,144.5 625.5,144.5 625.5,144.5 625.5,144.5 625.5,144.5 625.5,144.5 
		625.5,144.5 625.5,144.5 625.5,144.5 625.5,144.5 625.5,144.5 625.5,144.5 626.5,144.5 626.5,144.5 626.5,144.5 626.5,144.5 
		626.5,144.5 626.5,143.5 626.5,143.5 626.5,143.5 626.5,143.5 626.5,143.5 626.5,143.5 626.5,143.5 626.5,143.5 627.5,142.5 
		627.5,142.5 627.5,142.5 627.5,142.5 627.5,142.5 627.5,142.5 627.5,142.5 627.5,142.5 627.5,142.5 627.5,142.5 627.5,142.5 
		627.5,142.5 627.5,142.5 628.5,142.5 628.5,142.5 628.5,142.5 628.5,142.5 628.5,142.5 628.5,142.5 628.5,142.5 628.5,142.5 
		628.5,142.5 628.5,142.5 628.5,142.5 628.5,142.5 628.5,142.5 629.5,143.5 629.5,143.5 629.5,143.5 629.5,143.5 629.5,143.5 
		629.5,143.5 629.5,143.5 629.5,143.5 629.5,143.5 629.5,143.5 629.5,143.5 629.5,143.5 629.5,143.5 630.5,143.5 630.5,143.5 
		630.5,143.5 630.5,143.5 630.5,143.5 630.5,144.5 630.5,144.5 630.5,144.5 630.5,144.5 630.5,144.5 630.5,144.5 630.5,144.5 
		630.5,144.5 631.5,144.5 631.5,144.5 631.5,144.5 631.5,144.5 631.5,144.5 631.5,144.5 631.5,145.5 631.5,145.5 631.5,145.5 
		631.5,145.5 631.5,145.5 631.5,145.5 631.5,145.5 632.5,146.5 632.5,146.5 632.5,146.5 632.5,146.5 632.5,146.5 632.5,146.5 
		632.5,146.5 632.5,146.5 632.5,146.5 632.5,147.5 632.5,147.5 632.5,147.5 632.5,147.5 633.5,147.5 633.5,147.5 633.5,147.5 
		633.5,147.5 633.5,147.5 633.5,147.5 633.5,147.5 633.5,147.5 633.5,147.5 633.5,147.5 633.5,147.5 633.5,148.5 633.5,148.5 
		634.5,148.5 634.5,148.5 634.5,148.5 634.5,148.5 634.5,148.5 634.5,148.5 634.5,148.5 634.5,148.5 634.5,148.5 634.5,148.5 
		634.5,148.5 634.5,148.5 634.5,148.5 635.5,148.5 635.5,148.5 635.5,147.5 635.5,148.5 635.5,148.5 635.5,148.5 635.5,148.5 
		635.5,148.5 635.5,148.5 635.5,148.5 635.5,148.5 635.5,148.5 635.5,149.5 636.5,149.5 636.5,149.5 636.5,149.5 636.5,149.5 
		636.5,149.5 636.5,149.5 636.5,149.5 636.5,149.5 636.5,149.5 636.5,149.5 636.5,149.5 636.5,149.5 636.5,150.5 637.5,150.5 
		637.5,150.5 637.5,150.5 637.5,150.5 637.5,150.5 637.5,150.5 637.5,150.5 637.5,150.5 637.5,150.5 637.5,150.5 637.5,150.5 
		637.5,150.5 637.5,150.5 638.5,150.5 638.5,150.5 638.5,150.5 638.5,150.5 638.5,150.5 638.5,150.5 638.5,150.5 638.5,150.5 
		638.5,150.5 638.5,150.5 638.5,150.5 638.5,150.5 638.5,150.5 639.5,150.5 639.5,150.5 639.5,150.5 639.5,150.5 639.5,150.5 
		639.5,150.5 639.5,150.5 639.5,150.5 639.5,150.5 639.5,150.5 639.5,149.5 639.5,149.5 639.5,149.5 640.5,149.5 640.5,149.5 
		640.5,149.5 640.5,149.5 640.5,149.5 640.5,149.5 640.5,149.5 640.5,149.5 640.5,149.5 640.5,149.5 640.5,149.5 640.5,149.5 
		640.5,148.5 641.5,148.5 641.5,148.5 641.5,148.5 641.5,148.5 641.5,148.5 641.5,148.5 641.5,148.5 641.5,148.5 641.5,148.5 
		641.5,148.5 641.5,147.5 641.5,147.5 641.5,147.5 642.5,147.5 642.5,147.5 642.5,147.5 642.5,147.5 642.5,147.5 642.5,147.5 
		642.5,147.5 642.5,147.5 642.5,146.5 642.5,146.5 642.5,146.5 642.5,146.5 642.5,146.5 643.5,146.5 643.5,146.5 643.5,145.5 
		643.5,145.5 643.5,145.5 643.5,145.5 643.5,145.5 643.5,145.5 643.5,145.5 643.5,145.5 643.5,145.5 643.5,145.5 643.5,144.5 
		644.5,144.5 644.5,144.5 644.5,144.5 644.5,144.5 644.5,144.5 644.5,144.5 644.5,144.5 644.5,144.5 644.5,144.5 644.5,144.5 
		644.5,144.5 644.5,144.5 644.5,144.5 645.5,144.5 645.5,144.5 645.5,144.5 645.5,144.5 645.5,144.5 645.5,144.5 645.5,144.5 
		645.5,143.5 645.5,143.5 645.5,143.5 645.5,142.5 645.5,142.5 645.5,142.5 646.5,142.5 646.5,142.5 646.5,142.5 646.5,142.5 
		646.5,141.5 646.5,141.5 646.5,141.5 646.5,141.5 646.5,141.5 646.5,141.5 646.5,141.5 646.5,141.5 646.5,141.5 647.5,141.5 
		647.5,141.5 647.5,141.5 647.5,141.5 647.5,141.5 647.5,142.5 647.5,142.5 647.5,142.5 647.5,142.5 647.5,142.5 647.5,142.5 
		647.5,142.5 647.5,141.5 648.5,141.5 648.5,141.5 648.5,141.5 648.5,141.5 648.5,141.5 648.5,141.5 648.5,141.5 648.5,141.5 
		648.5,142.5 648.5,142.5 648.5,142.5 648.5,142.5 648.5,142.5 649.5,142.5 649.5,142.5 649.5,142.5 649.5,142.5 649.5,142.5 
		649.5,142.5 649.5,142.5 649.5,142.5 649.5,142.5 649.5,142.5 649.5,142.5 649.5,142.5 649.5,142.5 650.5,142.5 650.5,142.5 
		650.5,142.5 650.5,142.5 650.5,141.5 650.5,141.5 650.5,141.5 650.5,141.5 650.5,142.5 650.5,142.5 650.5,142.5 650.5,142.5 
		650.5,142.5 651.5,142.5 651.5,142.5 651.5,142.5 651.5,142.5 651.5,142.5 651.5,141.5 651.5,141.5 651.5,141.5 651.5,141.5 
		651.5,141.5 651.5,141.5 651.5,141.5 651.5,141.5 652.5,140.5 652.5,141.5 652.5,141.5 652.5,141.5 652.5,141.5 652.5,140.5 
		652.5,140.5 652.5,140.5 652.5,140.5 652.5,140.5 652.5,140.5 652.5,140.5 652.5,140.5 653.5,140.5 653.5,139.5 653.5,139.5 
		653.5,139.5 653.5,139.5 653.5,139.5 653.5,139.5 653.5,139.5 653.5,139.5 653.5,139.5 653.5,139.5 653.5,138.5 653.5,138.5 
		654.5,138.5 654.5,138.5 654.5,138.5 654.5,138.5 654.5,137.5 654.5,137.5 654.5,137.5 654.5,137.5 654.5,137.5 654.5,136.5 
		654.5,136.5 654.5,136.5 654.5,136.5 655.5,136.5 655.5,135.5 655.5,135.5 655.5,135.5 655.5,135.5 655.5,135.5 655.5,135.5 
		655.5,135.5 655.5,134.5 655.5,135.5 655.5,135.5 655.5,135.5 655.5,135.5 656.5,135.5 656.5,135.5 656.5,135.5 656.5,134.5 
		656.5,134.5 656.5,134.5 656.5,134.5 656.5,134.5 656.5,134.5 656.5,134.5 656.5,134.5 656.5,134.5 656.5,134.5 657.5,134.5 
		657.5,134.5 657.5,133.5 657.5,133.5 657.5,133.5 657.5,133.5 657.5,133.5 657.5,133.5 657.5,133.5 657.5,133.5 657.5,132.5 
		657.5,132.5 657.5,132.5 658.5,132.5 658.5,132.5 658.5,132.5 658.5,132.5 658.5,132.5 658.5,131.5 658.5,131.5 658.5,131.5 
		658.5,131.5 658.5,131.5 658.5,131.5 658.5,131.5 658.5,130.5 659.5,130.5 659.5,129.5 659.5,129.5 659.5,129.5 659.5,128.5 
		659.5,128.5 659.5,127.5 659.5,127.5 659.5,126.5 659.5,126.5 659.5,126.5 659.5,126.5 659.5,125.5 660.5,125.5 660.5,125.5 
		660.5,125.5 660.5,125.5 660.5,124.5 660.5,124.5 660.5,123.5 660.5,123.5 660.5,124.5 660.5,124.5 660.5,124.5 660.5,124.5 
		660.5,124.5 661.5,124.5 661.5,125.5 661.5,125.5 661.5,125.5 661.5,125.5 661.5,124.5 661.5,124.5 661.5,124.5 661.5,123.5 
		661.5,123.5 661.5,123.5 661.5,123.5 661.5,123.5 662.5,123.5 662.5,122.5 662.5,122.5 662.5,122.5 662.5,122.5 662.5,122.5 
		662.5,122.5 662.5,122.5 662.5,122.5 662.5,122.5 662.5,122.5 662.5,122.5 662.5,122.5 663.5,122.5 663.5,122.5 663.5,122.5 
		663.5,122.5 663.5,122.5 663.5,122.5 663.5,122.5 663.5,122.5 663.5,122.5 663.5,122.5 663.5,122.5 663.5,122.5 663.5,122.5 
		664.5,122.5 664.5,122.5 664.5,122.5 664.5,122.5 664.5,122.5 664.5,122.5 664.5,122.5 664.5,122.5 664.5,122.5 664.5,122.5 
		664.5,122.5 664.5,122.5 664.5,122.5 665.5,122.5 665.5,122.5 665.5,122.5 665.5,122.5 665.5,122.5 665.5,123.5 665.5,123.5 
		665.5,123.5 665.5,123.5 665.5,123.5 665.5,123.5 665.5,123.5 665.5,123.5 666.5,123.5 666.5,124.5 666.5,124.5 666.5,124.5 
		666.5,124.5 666.5,125.5 666.5,125.5 666.5,125.5 666.5,126.5 666.5,126.5 666.5,126.5 666.5,126.5 666.5,127.5 667.5,127.5 
		667.5,127.5 667.5,127.5 667.5,127.5 667.5,127.5 667.5,127.5 667.5,127.5 667.5,127.5 667.5,127.5 667.5,127.5 667.5,128.5 
		667.5,128.5 667.5,128.5 668.5,128.5 668.5,128.5 668.5,128.5 668.5,128.5 668.5,128.5 668.5,128.5 668.5,128.5 668.5,128.5 
		668.5,128.5 668.5,128.5 668.5,128.5 668.5,128.5 668.5,127.5 669.5,127.5 669.5,127.5 669.5,126.5 669.5,126.5 669.5,126.5 
		669.5,125.5 669.5,125.5 669.5,124.5 669.5,123.5 669.5,122.5 669.5,122.5 669.5,122.5 669.5,121.5 670.5,121.5 670.5,120.5 
		670.5,120.5 670.5,120.5 670.5,120.5 670.5,120.5 670.5,119.5 670.5,119.5 670.5,119.5 670.5,119.5 670.5,118.5 670.5,118.5 
		670.5,118.5 671.5,118.5 671.5,118.5 671.5,118.5 671.5,118.5 671.5,118.5 671.5,118.5 671.5,118.5 671.5,119.5 671.5,119.5 
		671.5,119.5 671.5,119.5 671.5,119.5 671.5,120.5 672.5,120.5 672.5,120.5 672.5,120.5 672.5,120.5 672.5,120.5 672.5,120.5 
		672.5,121.5 672.5,121.5 672.5,121.5 672.5,121.5 672.5,121.5 672.5,121.5 672.5,121.5 673.5,121.5 673.5,121.5 673.5,121.5 
		673.5,121.5 673.5,121.5 673.5,121.5 673.5,121.5 673.5,121.5 673.5,122.5 673.5,122.5 673.5,122.5 673.5,123.5 673.5,123.5 
		674.5,123.5 674.5,123.5 674.5,123.5 674.5,124.5 674.5,124.5 674.5,124.5 674.5,124.5 674.5,124.5 674.5,124.5 674.5,125.5 
		674.5,126.5 674.5,127.5 674.5,128.5 675.5,128.5 675.5,128.5 675.5,127.5 675.5,127.5 675.5,127.5 675.5,128.5 675.5,128.5 
		675.5,128.5 675.5,128.5 675.5,129.5 675.5,129.5 675.5,129.5 675.5,129.5 676.5,129.5 676.5,130.5 676.5,130.5 676.5,130.5 
		676.5,130.5 676.5,130.5 676.5,130.5 676.5,131.5 676.5,130.5 676.5,131.5 676.5,131.5 676.5,131.5 676.5,131.5 677.5,131.5 
		677.5,131.5 677.5,132.5 677.5,132.5 677.5,132.5 677.5,132.5 677.5,132.5 677.5,132.5 677.5,132.5 677.5,133.5 677.5,133.5 
		677.5,133.5 677.5,133.5 678.5,133.5 678.5,133.5 678.5,134.5 678.5,134.5 678.5,134.5 678.5,134.5 678.5,134.5 678.5,134.5 
		678.5,134.5 678.5,134.5 678.5,134.5 678.5,135.5 678.5,135.5 679.5,135.5 679.5,135.5 679.5,135.5 679.5,135.5 679.5,135.5 
		679.5,135.5 679.5,135.5 679.5,135.5 679.5,135.5 679.5,135.5 679.5,135.5 679.5,135.5 679.5,135.5 680.5,136.5 680.5,136.5 
		680.5,137.5 680.5,137.5 680.5,137.5 680.5,137.5 680.5,137.5 680.5,137.5 680.5,137.5 680.5,137.5 680.5,138.5 680.5,138.5 
		680.5,138.5 681.5,138.5 681.5,138.5 681.5,139.5 681.5,139.5 681.5,139.5 681.5,139.5 681.5,139.5 681.5,139.5 681.5,139.5 
		681.5,139.5 681.5,140.5 681.5,140.5 681.5,140.5 682.5,140.5 682.5,140.5 682.5,140.5 682.5,140.5 682.5,140.5 682.5,140.5 
		682.5,140.5 682.5,140.5 682.5,140.5 682.5,141.5 682.5,141.5 682.5,141.5 682.5,141.5 683.5,141.5 683.5,141.5 683.5,141.5 
		683.5,141.5 683.5,142.5 683.5,142.5 683.5,142.5 683.5,142.5 683.5,142.5 683.5,142.5 683.5,143.5 683.5,143.5 683.5,143.5 
		684.5,143.5 684.5,143.5 684.5,143.5 684.5,143.5 684.5,143.5 684.5,143.5 684.5,143.5 684.5,144.5 684.5,144.5 684.5,144.5 
		684.5,144.5 684.5,144.5 684.5,144.5 685.5,145.5 685.5,145.5 685.5,145.5 685.5,144.5 685.5,144.5 685.5,144.5 685.5,144.5 
		685.5,144.5 685.5,144.5 685.5,144.5 685.5,144.5 685.5,144.5 685.5,144.5 686.5,144.5 686.5,144.5 686.5,144.5 686.5,144.5 
		686.5,144.5 686.5,144.5 686.5,144.5 686.5,145.5 686.5,145.5 686.5,145.5 686.5,145.5 686.5,145.5 686.5,145.5 687.5,145.5 
		687.5,145.5 687.5,145.5 687.5,146.5 687.5,146.5 687.5,146.5 687.5,146.5 687.5,146.5 687.5,146.5 687.5,146.5 687.5,146.5 
		687.5,146.5 687.5,147.5 688.5,147.5 688.5,147.5 688.5,147.5 688.5,148.5 688.5,148.5 688.5,148.5 688.5,148.5 688.5,148.5 
		688.5,149.5 688.5,149.5 688.5,149.5 688.5,149.5 688.5,149.5 689.5,149.5 689.5,150.5 689.5,150.5 689.5,150.5 689.5,150.5 
		689.5,150.5 689.5,150.5 689.5,150.5 689.5,150.5 689.5,150.5 689.5,150.5 689.5,150.5 689.5,150.5 690.5,150.5 690.5,150.5 
		690.5,150.5 690.5,150.5 690.5,150.5 690.5,149.5 690.5,149.5 690.5,149.5 690.5,149.5 690.5,149.5 690.5,149.5 690.5,149.5 
		690.5,149.5 691.5,149.5 691.5,149.5 691.5,149.5 691.5,149.5 691.5,149.5 691.5,149.5 691.5,148.5 691.5,148.5 691.5,148.5 
		691.5,148.5 691.5,148.5 691.5,148.5 691.5,148.5 692.5,148.5 692.5,148.5 692.5,148.5 692.5,148.5 692.5,148.5 692.5,148.5 
		692.5,148.5 692.5,149.5 692.5,149.5 692.5,149.5 692.5,149.5 692.5,149.5 692.5,149.5 693.5,149.5 693.5,149.5 693.5,149.5 
		693.5,149.5 693.5,149.5 693.5,149.5 693.5,149.5 693.5,149.5 693.5,149.5 693.5,149.5 693.5,148.5 693.5,148.5 693.5,148.5 
		694.5,148.5 694.5,148.5 694.5,149.5 694.5,149.5 694.5,149.5 694.5,149.5 694.5,150.5 694.5,150.5 694.5,150.5 694.5,150.5 
		694.5,151.5 694.5,151.5 694.5,151.5 695.5,151.5 695.5,151.5 695.5,152.5 695.5,152.5 695.5,152.5 695.5,152.5 695.5,153.5 
		695.5,153.5 695.5,153.5 695.5,154.5 695.5,154.5 695.5,154.5 695.5,154.5 696.5,155.5 696.5,155.5 696.5,155.5 696.5,156.5 
		696.5,156.5 696.5,156.5 696.5,156.5 696.5,156.5 696.5,157.5 696.5,157.5 696.5,157.5 696.5,158.5 696.5,158.5 697.5,158.5 
		697.5,159.5 697.5,159.5 697.5,159.5 697.5,159.5 697.5,159.5 697.5,160.5 697.5,160.5 697.5,160.5 697.5,160.5 697.5,160.5 
		697.5,160.5 697.5,160.5 698.5,160.5 698.5,160.5 698.5,161.5 698.5,161.5 698.5,161.5 698.5,162.5 698.5,162.5 698.5,162.5 
		698.5,162.5 698.5,161.5 698.5,161.5 698.5,161.5 698.5,161.5 699.5,161.5 699.5,161.5 699.5,161.5 699.5,161.5 699.5,161.5 
		699.5,161.5 699.5,161.5 699.5,161.5 699.5,161.5 699.5,161.5 699.5,161.5 699.5,161.5 699.5,161.5 700.5,161.5 700.5,161.5 
		700.5,161.5 700.5,161.5 700.5,161.5 700.5,161.5 700.5,161.5 700.5,162.5 700.5,162.5 700.5,162.5 700.5,162.5 700.5,162.5 
		700.5,162.5 700.5,162.5 701.5,161.5 701.5,161.5 701.5,161.5 701.5,161.5 701.5,161.5 701.5,161.5 701.5,161.5 701.5,161.5 
		701.5,161.5 701.5,161.5 701.5,161.5 701.5,161.5 701.5,161.5 702.5,161.5 702.5,160.5 702.5,159.5 702.5,159.5 702.5,159.5 
		702.5,158.5 702.5,158.5 702.5,157.5 702.5,157.5 702.5,157.5 702.5,157.5 702.5,157.5 702.5,157.5 703.5,157.5 703.5,157.5 
		703.5,157.5 703.5,157.5 703.5,157.5 703.5,157.5 703.5,157.5 703.5,157.5 703.5,157.5 703.5,157.5 703.5,157.5 703.5,157.5 
		703.5,157.5 704.5,157.5 704.5,157.5 704.5,157.5 704.5,157.5 704.5,156.5 704.5,156.5 704.5,156.5 704.5,156.5 704.5,156.5 
		704.5,155.5 704.5,155.5 704.5,155.5 704.5,155.5 705.5,155.5 705.5,156.5 705.5,156.5 705.5,156.5 705.5,157.5 705.5,157.5 
		705.5,157.5 705.5,157.5 705.5,157.5 705.5,157.5 705.5,157.5 705.5,157.5 705.5,157.5 706.5,157.5 706.5,157.5 706.5,157.5 
		706.5,157.5 706.5,157.5 706.5,156.5 706.5,156.5 706.5,156.5 706.5,156.5 706.5,156.5 706.5,156.5 706.5,156.5 706.5,156.5 
		707.5,156.5 707.5,155.5 707.5,155.5 707.5,155.5 707.5,155.5 707.5,155.5 707.5,155.5 707.5,155.5 707.5,155.5 707.5,155.5 
		707.5,155.5 707.5,155.5 707.5,155.5 708.5,155.5 708.5,156.5 708.5,156.5 708.5,156.5 708.5,156.5 708.5,156.5 708.5,156.5 
		708.5,156.5 708.5,156.5 708.5,156.5 708.5,156.5 708.5,156.5 708.5,156.5 709.5,156.5 709.5,156.5 709.5,156.5 709.5,156.5 
		709.5,156.5 709.5,155.5 709.5,155.5 709.5,155.5 709.5,155.5 709.5,154.5 709.5,154.5 	"/>
</g>
</svg>
