<?xml version="1.0" encoding="UTF-8" standalone="no"?><svg width="282.222mm" height="141.111mm" xmlns="http://www.w3.org/2000/svg" xmlns:xlink="http://www.w3.org/1999/xlink"  version="1.2" baseProfile="tiny"><g fill="none" stroke="#ff0000" stroke-linecap="round" stroke-linejoin="round" stroke-opacity="1" stroke-width="1.5" transform="matrix(1,0,0,1,0,0)">
<polyline fill="none" points="145,354 146,354 146,354 146,353 146,353 146,353 146,352 146,352 146,352 146,352 146,352 146,352 146,352 146,352 147,351 147,351 147,351 147,351 147,351 147,350 147,350 147,350 147,350 147,350 147,350 147,350 147,349 148,349 148,349 148,349 148,349 148,349 148,349 148,348 148,348 148,348 148,348 148,348 148,348 148,348 149,347 149,347 149,347 149,347 149,347 149,347 149,346 149,346 149,346 149,346 149,346 149,346 149,346 150,346 150,345 150,345 150,345 150,345 150,345 150,344 150,344 150,344 150,343 150,343 150,343 150,343 151,343 151,343 151,343 151,342 151,342 151,341 151,341 151,341 151,341 151,341 151,341 151,341 151,340 151,340 152,340 152,340 152,340 152,340 152,339 152,339 152,339 152,339 152,338 152,338 152,338 152,338 152,337 153,337 153,337 153,336 153,336 153,336 153,335 153,335 153,335 153,334 153,334 153,334 153,333 153,333 154,333 154,332 154,332 154,332 154,331 154,331 154,331 154,330 154,330 154,330 154,330 154,329 154,329 155,329 155,328 155,328 155,327 155,327 155,327 155,327 155,327 155,327 155,327 155,326 155,326 155,326 156,325 156,325 156,325 156,325 156,325 156,325 156,324 156,324 156,324 156,323 156,323 156,323 156,322 157,322 157,322 157,322 157,322 157,321 157,321 157,321 157,321 157,320 157,320 157,320 157,320 157,320 158,319 158,319 158,318 158,318 158,318 158,317 158,317 158,316 158,316 158,316 158,315 158,315 158,314 159,314 159,313 159,313 159,312 159,312 159,311 159,311 159,311 159,310 159,310 159,310 159,309 159,309 160,309 160,309 160,309 160,308 160,308 160,308 160,308 160,308 160,308 160,308 160,307 160,307 160,307 161,307 161,306 161,306 161,306 161,306 161,306 161,306 161,305 161,305 161,305 161,305 161,306 161,306 162,306 162,306 162,306 162,306 162,306 162,307 162,307 162,307 162,307 162,307 162,307 162,307 162,307 163,307 163,306 163,306 163,306 163,306 163,305 163,306 163,305 163,305 163,305 163,305 163,305 163,305 164,305 164,305 164,305 164,305 164,306 164,306 164,306 164,306 164,306 164,306 164,306 164,306 164,307 165,307 165,307 165,308 165,308 165,309 165,309 165,309 165,309 165,308 165,308 165,307 165,306 165,306 166,305 166,304 166,304 166,304 166,303 166,303 166,303 166,303 166,303 166,303 166,303 166,302 166,301 167,301 167,302 167,301 167,302 167,302 167,302 167,302 167,302 167,301 167,301 167,302 167,302 167,301 168,301 168,302 168,301 168,301 168,301 168,301 168,301 168,301 168,300 168,300 168,300 168,299 168,299 169,298 169,298 169,297 169,297 169,296 169,295 169,294 169,294 169,294 169,293 169,293 169,293 169,292 170,292 170,292 170,291 170,291 170,290 170,289 170,289 170,289 170,289 170,289 170,288 170,288 170,288 171,288 171,287 171,287 171,287 171,287 171,287 171,286 171,286 171,286 171,285 171,285 171,285 171,285 172,284 172,284 172,284 172,284 172,284 172,284 172,284 172,284 172,283 172,283 172,283 172,283 172,283 173,283 173,283 173,283 173,283 173,284 173,284 173,284 173,285 173,285 173,285 173,285 173,285 173,285 174,285 174,285 174,285 174,286 174,286 174,287 174,287 174,287 174,288 174,288 174,288 174,288 174,288 175,288 175,287 175,287 175,287 175,286 175,286 175,286 175,286 175,286 175,286 175,286 175,285 175,285 176,285 176,285 176,284 176,284 176,284 176,284 176,284 176,283 176,283 176,283 176,283 176,283 176,284 177,284 177,284 177,285 177,285 177,285 177,284 177,284 177,284 177,284 177,285 177,285 177,285 177,285 178,285 178,285 178,285 178,285 178,285 178,285 178,285 178,285 178,285 178,285 178,285 178,286 178,286 179,286 179,286 179,286 179,285 179,285 179,285 179,284 179,284 179,284 179,284 179,284 179,284 179,284 180,283 180,283 180,283 180,283 180,283 180,283 180,283 180,283 180,283 180,283 180,283 180,283 180,283 181,283 181,283 181,282 181,282 181,282 181,282 181,282 181,282 181,282 181,282 181,282 181,282 181,282 182,282 182,282 182,282 182,282 182,282 182,282 182,282 182,282 182,281 182,281 182,281 182,281 182,281 183,281 183,281 183,281 183,281 183,281 183,281 183,281 183,281 183,281 183,281 183,281 183,281 183,280 184,280 184,280 184,280 184,280 184,280 184,280 184,280 184,280 184,280 184,280 184,280 184,280 184,280 185,280 185,280 185,279 185,279 185,279 185,279 185,279 185,279 185,279 185,279 185,279 185,279 185,279 186,279 186,279 186,279 186,279 186,279 186,278 186,278 186,278 186,278 186,278 186,278 186,278 186,278 187,278 187,278 187,278 187,278 187,278 187,278 187,278 187,278 187,279 187,279 187,279 187,280 187,280 188,280 188,280 188,281 188,281 188,281 188,281 188,280 188,280 188,280 188,280 188,280 188,280 188,280 189,279 189,279 189,279 189,279 189,279 189,279 189,279 189,279 189,279 189,279 189,278 189,278 189,278 190,278 190,278 190,279 190,279 190,279 190,279 190,280 190,281 190,282 190,283 190,283 190,283 190,284 191,284 191,284 191,284 191,284 191,285 191,285 191,285 191,285 191,286 191,286 191,285 191,285 191,284 192,283 192,281 192,280 192,278 192,278 192,278 192,278 192,278 192,277 192,277 192,277 192,278 192,278 193,278 193,278 193,278 193,278 193,278 193,278 193,278 193,278 193,279 193,279 193,279 193,279 193,278 194,278 194,278 194,278 194,278 194,279 194,279 194,279 194,278 194,278 194,278 194,278 194,279 194,279 195,279 195,279 195,280 195,280 195,281 195,281 195,281 195,282 195,282 195,282 195,283 195,283 195,283 196,284 196,284 196,284 196,284 196,284 196,284 196,284 196,284 196,284 196,284 196,285 196,285 196,285 197,285 197,285 197,285 197,285 197,285 197,285 197,285 197,285 197,285 197,285 197,285 197,286 197,286 198,286 198,285 198,285 198,285 198,285 198,285 198,284 198,284 198,284 198,284 198,284 198,284 198,284 199,284 199,283 199,283 199,283 199,283 199,283 199,283 199,283 199,283 199,283 199,283 199,283 199,283 200,283 200,283 200,283 200,283 200,283 200,284 200,284 200,284 200,284 200,284 200,283 200,283 200,283 201,283 201,284 201,284 201,284 201,284 201,283 201,283 201,283 201,284 201,284 201,284 201,284 201,284 202,284 202,284 202,284 202,284 202,284 202,284 202,284 202,284 202,284 202,284 202,284 202,284 202,284 203,284 203,284 203,284 203,284 203,284 203,284 203,284 203,284 203,284 203,284 203,284 203,284 203,284 204,284 204,284 204,284 204,284 204,284 204,284 204,284 204,284 204,284 204,284 204,284 204,284 204,284 205,284 205,284 205,284 205,284 205,284 205,284 205,284 205,284 205,284 205,284 205,284 205,284 205,285 206,285 206,285 206,284 206,285 206,285 206,285 206,285 206,285 206,285 206,286 206,286 206,286 206,286 207,286 207,286 207,286 207,287 207,287 207,287 207,287 207,287 207,288 207,288 207,288 207,288 207,288 208,289 208,289 208,290 208,290 208,290 208,289 208,289 208,289 208,289 208,289 208,289 208,289 208,289 209,289 209,289 209,289 209,289 209,289 209,289 209,289 209,289 209,289 209,289 209,289 209,289 209,289 210,289 210,289 210,289 210,289 210,289 210,288 210,288 210,288 210,288 210,288 210,288 210,288 210,288 211,288 211,288 211,288 211,288 211,288 211,288 211,288 211,288 211,288 211,288 211,287 211,287 211,287 212,287 212,287 212,287 212,287 212,287 212,287 212,286 212,286 212,286 212,286 212,286 212,286 212,286 213,285 213,285 213,285 213,285 213,285 213,285 213,284 213,284 213,284 213,284 213,284 213,283 213,283 214,283 214,283 214,283 214,282 214,282 214,282 214,282 214,281 214,281 214,281 214,281 214,281 214,280 215,280 215,280 215,280 215,280 215,279 215,279 215,279 215,279 215,279 215,278 215,278 215,278 215,278 216,278 216,278 216,277 216,277 216,277 216,277 216,277 216,277 216,277 216,277 216,277 216,276 216,277 217,277 217,277 217,277 217,277 217,277 217,277 217,277 217,277 217,277 217,278 217,278 217,278 217,278 218,278 218,278 218,278 218,278 218,278 218,278 218,278 218,278 218,278 218,278 218,278 218,278 218,278 219,278 219,278 219,279 219,279 219,279 219,279 219,279 219,279 219,279 219,279 219,280 219,280 219,281 220,281 220,281 220,281 220,281 220,282 220,281 220,281 220,282 220,282 220,282 220,282 220,282 220,282 221,282 221,282 221,282 221,282 221,282 221,282 221,282 221,282 221,282 221,282 221,281 221,281 221,281 222,281 222,281 222,281 222,281 222,281 222,281 222,281 222,281 222,280 222,280 222,280 222,280 222,280 223,280 223,280 223,280 223,280 223,280 223,280 223,280 223,280 223,280 223,280 223,280 223,280 223,280 224,280 224,280 224,280 224,280 224,279 224,279 224,279 224,279 224,279 224,279 224,279 224,279 224,279 225,279 225,278 225,278 225,278 225,278 225,278 225,278 225,278 225,277 225,277 225,277 225,277 225,277 226,277 226,277 226,277 226,277 226,277 226,277 226,277 226,277 226,277 226,277 226,276 226,276 226,276 227,277 227,276 227,276 227,276 227,276 227,276 227,276 227,276 227,276 227,276 227,276 227,277 227,277 228,277 228,276 228,276 228,276 228,276 228,276 228,276 228,276 228,275 228,276 228,276 228,276 228,276 229,276 229,275 229,275 229,275 229,275 229,275 229,275 229,275 229,275 229,275 229,275 229,275 229,275 230,275 230,275 230,275 230,275 230,275 230,275 230,275 230,275 230,275 230,274 230,274 230,274 230,274 231,274 231,274 231,274 231,274 231,274 231,274 231,274 231,274 231,274 231,274 231,274 231,274 231,273 232,273 232,273 232,273 232,273 232,273 232,273 232,273 232,273 232,273 232,273 232,273 232,273 232,272 233,272 233,272 233,271 233,271 233,271 233,271 233,272 233,271 233,271 233,271 233,271 233,271 233,270 233,270 234,270 234,270 234,270 234,270 234,270 234,270 234,269 234,269 234,269 234,269 234,269 234,269 234,269 235,269 235,269 235,269 235,268 235,268 235,268 235,268 235,268 235,268 235,268 235,268 235,268 235,268 236,268 236,268 236,267 236,267 236,267 236,266 236,266 236,266 236,266 236,266 236,266 236,266 236,266 237,266 237,266 237,266 237,266 237,266 237,266 237,265 237,265 237,265 237,265 237,265 237,265 237,265 238,265 238,265 238,265 238,265 238,265 238,265 238,264 238,264 238,264 238,264 238,264 238,264 238,264 239,264 239,264 239,264 239,264 239,264 239,264 239,264 239,264 239,264 239,264 239,264 239,263 239,263 240,263 240,263 240,263 240,263 240,263 240,263 240,263 240,263 240,263 240,263 240,263 240,263 240,263 241,263 241,264 241,264 241,263 241,263 241,263 241,263 241,263 241,262 241,262 241,262 241,262 241,263 242,263 242,263 242,263 242,262 242,262 242,262 242,262 242,262 242,262 242,262 242,262 242,262 242,262 243,262 243,262 243,262 243,262 243,262 243,262 243,262 243,262 243,261 243,261 243,261 243,261 243,261 244,261 244,261 244,261 244,262 244,262 244,262 244,262 244,262 244,262 244,262 244,262 244,262 244,262 245,261 245,261 245,261 245,261 245,261 245,261 245,261 245,260 245,260 245,260 245,260 245,260 245,260 246,260 246,260 246,260 246,260 246,260 246,260 246,260 246,260 246,260 246,260 246,260 246,260 246,260 247,260 247,259 247,259 247,259 247,259 247,259 247,259 247,259 247,259 247,259 247,259 247,259 247,259 248,259 248,259 248,259 248,259 248,259 248,259 248,259 248,259 248,259 248,259 248,259 248,259 248,259 249,259 249,259 249,258 249,258 249,258 249,258 249,258 249,258 249,258 249,257 249,257 249,257 249,257 250,257 250,257 250,256 250,256 250,255 250,255 250,255 250,255 250,254 250,254 250,254 250,254 250,254 251,254 251,253 251,253 251,252 251,252 251,252 251,252 251,251 251,251 251,251 251,250 251,250 251,250 252,250 252,249 252,249 252,248 252,248 252,247 252,247 252,247 252,246 252,246 252,246 252,245 252,245 253,245 253,245 253,245 253,245 253,244 253,244 253,244 253,243 253,243 253,242 253,242 253,242 253,241 254,241 254,241 254,241 254,241 254,241 254,241 254,241 254,241 254,241 254,240 254,240 254,240 254,240 255,239 255,239 255,239 255,239 255,239 255,239 255,238 255,238 255,238 255,238 255,238 255,237 255,237 256,237 256,237 256,236 256,236 256,236 256,237 256,237 256,237 256,237 256,237 256,237 256,237 256,237 257,238 257,238 257,238 257,238 257,239 257,239 257,239 257,239 257,240 257,240 257,240 257,240 257,240 258,240 258,240 258,240 258,240 258,240 258,240 258,239 258,239 258,239 258,239 258,239 258,238 258,238 259,238 259,238 259,238 259,237 259,237 259,237 259,236 259,236 259,236 259,235 259,235 259,235 259,235 260,235 260,234 260,234 260,234 260,234 260,234 260,234 260,234 260,235 260,235 260,235 260,235 260,235 261,235 261,235 261,235 261,235 261,235 261,235 261,235 261,235 261,235 261,235 261,235 261,235 261,235 262,235 262,235 262,235 262,236 262,236 262,236 262,236 262,236 262,236 262,237 262,237 262,237 262,237 263,237 263,237 263,237 263,237 263,236 263,236 263,235 263,235 263,235 263,235 263,236 263,236 263,236 264,236 264,237 264,237 264,237 264,238 264,238 264,238 264,238 264,238 264,238 264,238 264,238 264,238 265,237 265,238 265,237 265,237 265,237 265,237 265,237 265,237 265,237 265,237 265,237 265,237 265,237 266,236 266,237 266,237 266,237 266,238 266,237 266,237 266,235 266,235 266,235 266,235 266,235 266,235 267,235 267,235 267,235 267,236 267,236 267,235 267,235 267,235 267,235 267,235 267,235 267,235 267,235 268,235 268,235 268,234 268,234 268,234 268,234 268,234 268,233 268,233 268,233 268,232 268,232 268,232 269,231 269,231 269,230 269,230 269,229 269,229 269,228 269,228 269,227 269,226 269,225 269,225 269,224 270,223 270,221 270,220 270,220 270,219 270,218 270,216 270,214 270,213 270,211 270,211 270,211 270,210 271,210 271,209 271,209 271,208 271,208 271,207 271,207 271,207 271,206 271,206 271,205 271,205 271,205 272,205 272,205 272,205 272,205 272,205 272,205 272,205 272,205 272,205 272,205 272,205 272,205 272,205 273,205 273,205 273,205 273,204 273,204 273,204 273,204 273,205 273,206 273,206 273,206 273,207 273,208 274,209 274,209 274,210 274,210 274,211 274,211 274,210 274,210 274,210 274,210 274,209 274,209 274,208 275,208 275,208 275,208 275,208 275,207 275,207 275,207 275,207 275,207 275,207 275,207 275,207 275,207 276,207 276,206 276,206 276,205 276,204 276,204 276,203 276,202 276,202 276,202 276,202 276,202 276,201 277,201 277,200 277,200 277,199 277,199 277,199 277,199 277,199 277,199 277,199 277,199 277,198 277,198 278,198 278,198 278,198 278,198 278,198 278,198 278,198 278,199 278,199 278,198 278,198 278,197 278,197 279,197 279,196 279,195 279,195 279,194 279,194 279,193 279,193 279,192 279,192 279,192 279,191 279,191 280,190 280,190 280,189 280,189 280,188 280,188 280,188 280,187 280,186 280,185 280,185 280,184 280,184 281,183 281,183 281,183 281,182 281,182 281,181 281,181 281,180 281,179 281,178 281,178 281,177 281,176 282,176 282,175 282,175 282,174 282,174 282,173 282,173 282,173 282,173 282,172 282,172 282,172 282,172 283,172 283,172 283,172 283,173 283,173 283,173 283,173 283,173 283,173 283,173 283,173 283,173 283,173 284,173 284,173 284,173 284,173 284,173 284,173 284,173 284,173 284,174 284,174 284,174 284,174 284,174 285,174 285,175 285,175 285,175 285,176 285,176 285,176 285,177 285,177 285,177 285,178 285,178 285,179 286,179 286,180 286,180 286,181 286,181 286,181 286,181 286,182 286,182 286,182 286,182 286,182 286,182 287,182 287,182 287,183 287,183 287,183 287,183 287,183 287,183 287,184 287,184 287,184 287,185 287,185 288,185 288,185 288,186 288,186 288,186 288,186 288,187 288,187 288,187 288,187 288,186 288,187 288,188 289,189 289,189 289,190 289,190 289,191 289,191 289,192 289,192 289,193 289,193 289,193 289,194 289,194 290,195 290,195 290,196 290,197 290,198 290,199 290,199 290,200 290,200 290,201 290,201 290,202 290,202 291,203 291,203 291,204 291,204 291,205 291,205 291,206 291,206 291,207 291,207 291,208 291,208 291,208 292,209 292,209 292,210 292,210 292,210 292,211 292,211 292,211 292,212 292,212 292,213 292,214 292,214 293,215 293,216 293,216 293,216 293,215 293,215 293,216 293,216 293,216 293,216 293,216 293,216 293,215 294,215 294,215 294,215 294,214 294,214 294,213 294,213 294,212 294,211 294,211 294,210 294,209 294,208 295,208 295,207 295,207 295,206 295,206 295,206 295,206 295,206 295,206 295,206 295,206 295,206 295,206 296,206 296,206 296,206 296,206 296,206 296,206 296,206 296,206 296,207 296,208 296,209 296,210 296,210 297,211 297,211 297,212 297,213 297,213 297,214 297,215 297,215 297,215 297,215 297,215 297,215 297,214 298,213 298,213 298,212 298,211 298,211 298,211 298,210 298,211 298,210 298,210 298,210 298,210 298,210 299,210 299,210 299,210 299,210 299,210 299,209 299,209 299,209 299,209 299,209 299,209 299,209 299,209 300,209 300,209 300,209 300,209 300,210 300,210 300,210 300,211 300,211 300,212 300,212 300,213 300,214 301,214 301,215 301,216 301,215 301,215 301,215 301,214 301,214 301,213 301,212 301,212 301,211 301,210 302,209 302,208 302,207 302,206 302,205 302,204 302,203 302,202 302,202 302,201 302,201 302,201 302,200 303,200 303,200 303,200 303,199 303,199 303,199 303,199 303,199 303,198 303,198 303,198 303,198 303,197 304,197 304,197 304,197 304,197 304,197 304,197 304,197 304,197 304,197 304,197 304,196 304,196 304,196 305,196 305,196 305,196 305,196 305,196 305,196 305,196 305,196 305,197 305,196 305,196 305,196 305,197 306,197 306,197 306,197 306,197 306,197 306,197 306,197 306,197 306,197 306,197 306,198 306,198 306,198 307,198 307,198 307,198 307,198 307,198 307,198 307,198 307,198 307,198 307,199 307,199 307,199 307,200 308,200 308,201 308,201 308,202 308,203 308,203 308,204 308,205 308,206 308,207 308,207 308,208 308,208 309,209 309,210 309,210 309,212 309,213 309,214 309,215 309,216 309,216 309,217 309,217 309,218 309,219 310,219 310,220 310,220 310,221 310,221 310,222 310,222 310,223 310,223 310,224 310,225 310,225 310,225 311,225 311,226 311,227 311,228 311,229 311,230 311,230 311,231 311,232 311,232 311,233 311,234 311,235 312,235 312,235 312,235 312,235 312,235 312,234 312,234 312,234 312,234 312,234 312,234 312,235 312,234 313,234 313,234 313,234 313,234 313,234 313,234 313,233 313,233 313,232 313,231 313,231 313,230 313,229 314,229 314,228 314,228 314,227 314,227 314,227 314,226 314,226 314,226 314,225 314,225 314,224 314,224 315,223 315,223 315,223 315,223 315,223 315,223 315,222 315,222 315,222 315,222 315,222 315,222 315,222 315,222 316,222 316,223 316,223 316,223 316,223 316,223 316,224 316,224 316,224 316,224 316,225 316,225 316,226 317,226 317,227 317,227 317,227 317,227 317,227 317,227 317,228 317,228 317,228 317,228 317,227 317,227 318,227 318,227 318,228 318,228 318,228 318,227 318,227 318,227 318,227 318,226 318,226 318,225 318,225 319,224 319,223 319,223 319,222 319,222 319,221 319,221 319,220 319,220 319,219 319,218 319,218 319,217 320,216 320,215 320,214 320,213 320,213 320,212 320,211 320,210 320,209 320,208 320,207 320,206 320,206 321,205 321,204 321,203 321,202 321,202 321,201 321,200 321,200 321,199 321,199 321,198 321,198 321,197 322,197 322,197 322,196 322,196 322,196 322,196 322,196 322,196 322,195 322,195 322,195 322,195 322,195 323,195 323,195 323,194 323,194 323,194 323,194 323,193 323,193 323,193 323,192 323,191 323,191 323,190 324,190 324,191 324,190 324,190 324,190 324,191 324,191 324,192 324,192 324,192 324,193 324,193 324,194 325,195 325,195 325,196 325,196 325,196 325,196 325,196 325,196 325,196 325,197 325,198 325,198 325,199 326,200 326,200 326,201 326,202 326,202 326,203 326,204 326,204 326,205 326,205 326,206 326,206 326,207 327,207 327,208 327,208 327,208 327,208 327,209 327,209 327,209 327,209 327,209 327,209 327,209 327,209 328,209 328,208 328,208 328,207 328,207 328,207 328,206 328,206 328,205 328,205 328,205 328,205 328,204 329,204 329,204 329,204 329,204 329,205 329,205 329,205 329,205 329,205 329,205 329,205 329,206 329,206 330,206 330,206 330,206 330,207 330,207 330,208 330,208 330,209 330,210 330,210 330,211 330,211 330,212 331,212 331,212 331,212 331,213 331,213 331,213 331,213 331,213 331,213 331,214 331,214 331,214 331,214 332,213 332,213 332,213 332,213 332,213 332,212 332,212 332,212 332,211 332,211 332,211 332,210 332,210 333,210 333,210 333,210 333,209 333,209 333,209 333,209 333,208 333,208 333,208 333,208 333,208 333,208 334,208 334,208 334,208 334,208 334,208 334,208 334,208 334,207 334,207 334,207 334,207 334,207 334,207 335,207 335,207 335,207 335,207 335,207 335,208 335,208 335,208 335,209 335,209 335,209 335,210 335,210 336,210 336,210 336,210 336,210 336,210 336,209 336,209 336,208 336,208 336,207 336,207 336,206 336,206 337,205 337,205 337,205 337,205 337,204 337,204 337,204 337,204 337,203 337,203 337,203 337,203 337,203 338,203 338,204 338,204 338,204 338,204 338,204 338,204 338,204 338,204 338,204 338,205 338,205 338,205 339,205 339,206 339,206 339,206 339,205 339,205 339,205 339,205 339,205 339,205 339,205 339,205 339,205 340,205 340,205 340,204 340,203 340,203 340,202 340,202 340,202 340,201 340,200 340,200 340,199 340,199 341,198 341,198 341,197 341,197 341,196 341,196 341,195 341,194 341,194 341,193 341,193 341,192 341,191 342,190 342,190 342,189 342,189 342,188 342,187 342,187 342,186 342,185 342,185 342,184 342,183 342,183 343,182 343,182 343,181 343,181 343,181 343,181 343,181 343,181 343,180 343,180 343,180 343,180 343,180 344,180 344,180 344,180 344,180 344,180 344,180 344,180 344,180 344,180 344,180 344,180 344,179 344,179 345,179 345,179 345,178 345,178 345,178 345,178 345,177 345,177 345,177 345,177 345,176 345,176 345,176 346,176 346,176 346,175 346,175 346,175 346,175 346,174 346,174 346,174 346,174 346,174 346,174 346,174 347,173 347,173 347,173 347,173 347,173 347,173 347,173 347,173 347,174 347,174 347,174 347,174 347,174 348,175 348,175 348,175 348,175 348,176 348,176 348,176 348,176 348,176 348,176 348,176 348,175 348,175 349,175 349,175 349,175 349,175 349,175 349,174 349,174 349,174 349,174 349,173 349,173 349,173 349,172 350,172 350,172 350,172 350,171 350,171 350,170 350,170 350,169 350,169 350,168 350,168 350,168 350,167 351,167 351,166 351,166 351,165 351,165 351,164 351,164 351,163 351,163 351,162 351,162 351,161 351,160 352,160 352,159 352,159 352,159 352,158 352,158 352,158 352,158 352,158 352,158 352,158 352,158 352,158 353,159 353,159 353,159 353,159 353,159 353,159 353,159 353,159 353,159 353,160 353,160 353,160 353,160 354,161 354,161 354,162 354,163 354,163 354,164 354,165 354,166 354,167 354,168 354,169 354,170 354,170 355,170 355,170 355,171 355,170 355,170 355,169 355,167 355,167 355,166 355,165 355,164 355,163 355,162 356,161 356,161 356,160 356,159 356,159 356,158 356,158 356,157 356,156 356,155 356,155 356,155 356,155 357,154 357,154 357,154 357,154 357,154 357,153 357,153 357,153 357,153 357,152 357,152 357,152 357,151 358,151 358,150 358,150 358,149 358,149 358,148 358,148 358,147 358,147 358,147 358,146 358,146 358,146 359,146 359,146 359,146 359,146 359,146 359,146 359,146 359,146 359,146 359,146 359,147 359,147 359,147 360,147 360,147 360,147 360,146 360,146 360,146 360,146 360,147 360,148 360,149 360,149 360,150 360,151 361,151 361,152 361,153 361,153 361,154 361,154 361,155 361,155 361,155 361,155 361,154 361,152 361,151 362,150 362,149 362,148 362,147 362,146 362,146 362,146 362,146 362,146 362,146 362,146 362,146 362,146 363,146 363,146 363,146 363,146 363,146 363,146 363,146 363,146 363,147 363,147 363,147 363,147 363,148 364,148 364,148 364,148 364,149 364,149 364,149 364,149 364,150 364,150 364,150 364,150 364,150 364,151 365,151 365,151 365,151 365,152 365,152 365,152 365,152 365,152 365,152 365,153 365,154 365,155 365,156 366,157 366,157 366,158 366,158 366,159 366,160 366,160 366,161 366,162 366,163 366,163 366,164 366,164 367,164 367,165 367,165 367,166 367,166 367,166 367,166 367,167 367,167 367,167 367,167 367,168 367,168 368,168 368,168 368,169 368,170 368,170 368,171 368,172 368,172 368,173 368,174 368,175 368,175 368,175 369,175 369,175 369,175 369,175 369,175 369,175 369,174 369,174 369,175 369,175 369,174 369,174 369,174 370,173 370,173 370,173 370,173 370,172 370,172 370,172 370,172 370,172 370,172 370,173 370,173 370,173 371,173 371,173 371,172 371,172 371,172 371,173 371,173 371,173 371,173 371,173 371,172 371,172 371,173 372,173 372,173 372,173 372,174 372,174 372,174 372,175 372,175 372,176 372,176 372,177 372,177 372,178 373,179 373,180 373,180 373,181 373,181 373,182 373,182 373,183 373,183 373,184 373,184 373,184 373,185 374,185 374,185 374,185 374,185 374,185 374,185 374,185 374,185 374,185 374,185 374,185 374,185 374,185 375,185 375,185 375,185 375,185 375,185 375,185 375,185 375,184 375,185 375,185 375,185 375,185 375,185 376,184 376,184 376,184 376,183 376,183 376,182 376,182 376,181 376,180 376,179 376,179 376,178 376,178 377,178 377,177 377,177 377,176 377,176 377,176 377,175 377,175 377,175 377,175 377,175 377,175 377,174 378,174 378,174 378,174 378,173 378,173 378,173 378,173 378,173 378,173 378,173 378,173 378,173 378,173 379,173 379,173 379,173 379,173 379,174 379,174 379,174 379,174 379,174 379,174 379,174 379,174 379,174 380,174 380,174 380,174 380,174 380,174 380,174 380,174 380,174 380,174 380,175 380,175 380,176 380,176 381,176 381,176 381,176 381,176 381,176 381,176 381,175 381,175 381,175 381,175 381,174 381,174 381,173 382,173 382,173 382,172 382,172 382,172 382,172 382,172 382,172 382,172 382,172 382,172 382,172 382,172 383,172 383,172 383,172 383,172 383,172 383,172 383,172 383,172 383,172 383,173 383,173 383,174 383,175 384,175 384,176 384,177 384,177 384,178 384,179 384,180 384,180 384,181 384,181 384,182 384,182 384,182 385,182 385,183 385,183 385,184 385,184 385,184 385,185 385,185 385,185 385,185 385,185 385,185 385,185 386,185 386,185 386,185 386,185 386,185 386,185 386,184 386,184 386,184 386,184 386,184 386,184 386,184 387,184 387,184 387,184 387,184 387,184 387,183 387,183 387,183 387,183 387,183 387,183 387,184 387,185 388,186 388,188 388,188 388,189 388,189 388,189 388,190 388,191 388,191 388,192 388,192 388,192 388,192 389,192 389,192 389,191 389,191 389,191 389,191 389,190 389,190 389,190 389,190 389,190 389,189 389,189 390,189 390,189 390,189 390,189 390,189 390,189 390,190 390,190 390,190 390,190 390,189 390,189 390,190 391,190 391,191 391,191 391,192 391,192 391,193 391,194 391,194 391,195 391,195 391,196 391,196 391,197 392,197 392,197 392,198 392,198 392,198 392,198 392,199 392,199 392,199 392,199 392,199 392,198 392,198 393,197 393,197 393,197 393,196 393,196 393,196 393,196 393,195 393,195 393,195 393,195 393,195 393,195 394,194 394,194 394,194 394,194 394,194 394,193 394,193 394,193 394,193 394,193 394,193 394,193 394,193 395,194 395,194 395,194 395,195 395,195 395,196 395,196 395,197 395,198 395,198 395,199 395,199 395,199 396,199 396,199 396,199 396,199 396,199 396,199 396,199 396,199 396,199 396,199 396,199 396,199 396,199 397,199 397,199 397,199 397,199 397,199 397,199 397,199 397,199 397,199 397,199 397,198 397,198 397,198 398,197 398,197 398,196 398,196 398,196 398,195 398,195 398,194 398,194 398,194 398,193 398,193 398,193 398,193 399,193 399,193 399,194 399,194 399,194 399,195 399,195 399,196 399,197 399,197 399,198 399,198 399,199 400,199 400,199 400,200 400,200 400,200 400,200 400,200 400,200 400,200 400,200 400,199 400,199 400,199 401,198 401,198 401,198 401,198 401,197 401,197 401,197 401,196 401,196 401,196 401,196 401,196 401,195 402,195 402,195 402,195 402,195 402,195 402,194 402,194 402,194 402,194 402,194 402,193 402,193 402,193 403,192 403,192 403,192 403,192 403,192 403,191 403,191 403,191 403,191 403,191 403,191 403,191 403,192 404,192 404,192 404,192 404,192 404,193 404,193 404,193 404,193 404,193 404,194 404,194 404,195 404,195 405,196 405,197 405,197 405,198 405,198 405,198 405,199 405,198 405,198 405,198 405,198 405,199 405,199 406,199 406,199 406,200 406,200 406,200 406,200 406,200 406,201 406,201 406,201 406,201 406,201 406,202 407,202 407,202 407,203 407,203 407,203 407,204 407,204 407,204 407,204 407,205 407,205 407,205 407,205 408,205 408,205 408,205 408,205 408,205 408,205 408,205 408,205 408,204 408,204 408,204 408,204 408,203 409,203 409,203 409,203 409,203 409,202 409,202 409,202 409,202 409,202 409,203 409,202 409,202 409,202 410,202 410,202 410,202 410,201 410,201 410,201 410,201 410,201 410,201 410,201 410,201 410,201 410,200 411,200 411,200 411,200 411,200 411,200 411,200 411,200 411,200 411,200 411,200 411,200 411,200 411,199 412,199 412,199 412,199 412,199 412,199 412,199 412,199 412,199 412,199 412,199 412,199 412,199 412,199 413,199 413,199 413,199 413,199 413,198 413,198 413,198 413,198 413,198 413,198 413,198 413,198 413,198 414,198 414,198 414,198 414,198 414,198 414,198 414,198 414,198 414,197 414,197 414,197 414,197 414,197 415,197 415,197 415,197 415,197 415,197 415,197 415,197 415,197 415,196 415,196 415,196 415,196 415,196 416,196 416,196 416,196 416,196 416,196 416,196 416,196 416,196 416,196 416,196 416,197 416,198 416,199 417,199 417,198 417,197 417,197 417,197 417,197 417,197 417,196 417,196 417,196 417,195 417,195 417,195 418,195 418,195 418,195 418,194 418,194 418,194 418,194 418,194 418,194 418,195 418,195 418,195 418,195 419,194 419,194 419,194 419,194 419,194 419,195 419,195 419,194 419,194 419,193 419,193 419,192 419,192 420,192 420,192 420,192 420,192 420,192 420,192 420,192 420,191 420,191 420,191 420,191 420,191 420,191 421,191 421,191 421,191 421,191 421,191 421,191 421,191 421,191 421,191 421,192 421,192 421,192 421,192 422,191 422,191 422,190 422,190 422,189 422,189 422,189 422,188 422,188 422,188 422,188 422,188 422,187 423,187 423,187 423,187 423,186 423,186 423,186 423,186 423,185 423,185 423,185 423,185 423,184 423,184 424,184 424,184 424,184 424,184 424,183 424,183 424,183 424,183 424,182 424,182 424,182 424,182 424,181 425,181 425,181 425,181 425,181 425,180 425,180 425,180 425,180 425,180 425,179 425,179 425,179 425,179 426,178 426,178 426,178 426,177 426,177 426,176 426,176 426,176 426,176 426,175 426,175 426,175 426,174 427,174 427,173 427,173 427,172 427,172 427,172 427,171 427,171 427,171 427,170 427,170 427,169 427,169 428,168 428,167 428,167 428,166 428,165 428,164 428,163 428,162 428,161 428,161 428,160 428,160 428,159 429,159 429,159 429,158 429,158 429,158 429,158 429,157 429,157 429,157 429,157 429,157 429,158 429,158 430,158 430,157 430,157 430,156 430,156 430,156 430,156 430,156 430,155 430,155 430,155 430,155 430,155 431,156 431,156 431,156 431,156 431,156 431,155 431,156 431,157 431,158 431,159 431,159 431,159 431,159 432,159 432,159 432,159 432,160 432,160 432,160 432,161 432,161 432,162 432,163 432,163 432,164 432,165 433,165 433,165 433,166 433,166 433,166 433,166 433,166 433,166 433,166 433,166 433,166 433,166 433,166 434,166 434,167 434,166 434,166 434,165 434,165 434,164 434,163 434,163 434,162 434,161 434,161 434,160 435,160 435,159 435,159 435,158 435,158 435,158 435,158 435,157 435,157 435,157 435,158 435,158 435,158 436,159 436,159 436,159 436,160 436,160 436,160 436,160 436,161 436,161 436,160 436,160 436,160 436,159 437,159 437,158 437,157 437,157 437,156 437,155 437,154 437,153 437,152 437,152 437,151 437,150 437,150 438,149 438,149 438,148 438,148 438,148 438,148 438,148 438,148 438,148 438,148 438,148 438,148 438,148 439,148 439,148 439,148 439,148 439,148 439,148 439,148 439,148 439,148 439,148 439,148 439,148 439,148 440,148 440,148 440,148 440,149 440,150 440,151 440,152 440,152 440,153 440,154 440,155 440,155 440,156 441,156 441,157 441,157 441,157 441,157 441,157 441,157 441,157 441,157 441,157 441,157 441,157 441,156 442,156 442,155 442,155 442,154 442,154 442,153 442,153 442,153 442,153 442,153 442,153 442,153 442,153 443,153 443,154 443,154 443,154 443,155 443,155 443,156 443,156 443,157 443,157 443,158 443,158 443,159 444,159 444,160 444,160 444,160 444,160 444,160 444,160 444,160 444,161 444,160 444,160 444,160 444,160 445,160 445,159 445,159 445,158 445,158 445,158 445,158 445,158 445,158 445,158 445,158 445,158 445,158 446,157 446,157 446,157 446,157 446,156 446,156 446,155 446,155 446,154 446,153 446,152 446,151 446,151 447,150 447,149 447,148 447,147 447,146 447,146 447,146 447,146 447,146 447,146 447,146 447,145 447,145 448,145 448,145 448,145 448,144 448,144 448,144 448,144 448,144 448,143 448,143 448,143 448,142 448,142 449,142 449,142 449,142 449,142 449,141 449,141 449,140 449,140 449,140 449,140 449,139 449,139 449,138 450,138 450,137 450,137 450,136 450,136 450,135 450,134 450,133 450,133 450,132 450,131 450,130 450,130 451,129 451,128 451,128 451,128 451,127 451,127 451,127 451,127 451,126 451,126 451,126 451,126 451,126 452,126 452,126 452,126 452,126 452,125 452,125 452,125 452,125 452,125 452,125 452,124 452,124 452,124 453,124 453,123 453,123 453,123 453,123 453,124 453,125 453,127 453,128 453,130 453,131 453,133 453,134 454,135 454,136 454,137 454,138 454,140 454,141 454,142 454,143 454,144 454,144 454,145 454,147 454,148 455,149 455,149 455,150 455,151 455,151 455,152 455,153 455,153 455,153 455,154 455,154 455,155 455,155 456,156 456,157 456,157 456,158 456,159 456,159 456,159 456,159 456,159 456,159 456,159 456,159 456,159 457,158 457,158 457,158 457,158 457,157 457,157 457,157 457,157 457,156 457,156 457,156 457,156 457,156 458,155 458,155 458,155 458,155 458,154 458,154 458,153 458,153 458,154 458,154 458,155 458,155 458,156 459,156 459,157 459,157 459,157 459,157 459,157 459,158 459,158 459,159 459,159 459,160 459,160 459,160 460,161 460,161 460,162 460,162 460,163 460,163 460,164 460,164 460,165 460,166 460,166 460,167 460,167 461,168 461,168 461,169 461,169 461,169 461,169 461,170 461,170 461,170 461,170 461,170 461,170 461,169 462,169 462,169 462,168 462,168 462,168 462,168 462,167 462,167 462,167 462,166 462,166 462,166 462,166 463,166 463,166 463,166 463,166 463,167 463,167 463,167 463,168 463,168 463,169 463,169 463,169 463,169 464,169 464,169 464,168 464,167 464,166 464,166 464,166 464,166 464,165 464,165 464,164 464,164 464,164 465,163 465,163 465,163 465,162 465,162 465,162 465,162 465,162 465,162 465,162 465,163 465,163 465,163 466,163 466,163 466,163 466,164 466,164 466,164 466,165 466,166 466,166 466,167 466,168 466,168 466,169 467,170 467,171 467,171 467,171 467,172 467,172 467,172 467,172 467,172 467,172 467,172 467,172 467,172 468,171 468,171 468,171 468,170 468,170 468,169 468,169 468,169 468,168 468,168 468,168 468,168 468,168 469,168 469,168 469,168 469,168 469,168 469,168 469,168 469,168 469,168 469,168 469,168 469,168 469,168 470,168 470,168 470,169 470,169 470,170 470,170 470,171 470,171 470,171 470,171 470,172 470,172 470,172 471,172 471,171 471,172 471,172 471,172 471,172 471,172 471,172 471,172 471,172 471,173 471,173 471,173 472,174 472,174 472,175 472,175 472,175 472,176 472,176 472,177 472,177 472,177 472,178 472,178 472,179 473,179 473,180 473,180 473,181 473,181 473,182 473,182 473,182 473,183 473,183 473,184 473,185 473,185 474,186 474,186 474,187 474,187 474,188 474,188 474,189 474,189 474,189 474,189 474,189 474,190 474,190 475,190 475,190 475,190 475,190 475,190 475,190 475,190 475,190 475,190 475,190 475,190 475,190 475,190 476,190 476,190 476,190 476,189 476,189 476,189 476,189 476,189 476,188 476,188 476,188 476,188 476,188 477,187 477,187 477,187 477,186 477,186 477,186 477,186 477,185 477,185 477,185 477,184 477,184 477,184 478,183 478,183 478,183 478,183 478,182 478,182 478,182 478,181 478,181 478,181 478,180 478,180 478,180 479,180 479,179 479,179 479,180 479,180 479,180 479,181 479,181 479,181 479,182 479,182 479,182 479,182 480,181 480,181 480,181 480,181 480,181 480,181 480,181 480,181 480,181 480,181 480,181 480,181 480,181 480,181 481,182 481,182 481,182 481,182 481,183 481,184 481,185 481,186 481,186 481,187 481,187 481,187 481,187 482,186 482,185 482,185 482,185 482,185 482,184 482,184 482,184 482,184 482,185 482,185 482,185 482,184 483,184 483,184 483,184 483,183 483,183 483,182 483,182 483,182 483,181 483,181 483,181 483,181 483,181 484,181 484,180 484,180 484,180 484,180 484,179 484,179 484,179 484,179 484,178 484,178 484,178 484,177 485,177 485,177 485,177 485,176 485,176 485,176 485,176 485,176 485,175 485,175 485,175 485,175 485,175 486,174 486,174 486,174 486,174 486,174 486,174 486,174 486,173 486,173 486,173 486,173 486,173 486,173 487,172 487,172 487,172 487,172 487,172 487,172 487,172 487,172 487,172 487,172 487,171 487,171 487,171 488,171 488,171 488,171 488,171 488,171 488,171 488,171 488,171 488,171 488,170 488,170 488,170 488,170 489,170 489,170 489,170 489,170 489,170 489,170 489,170 489,170 489,170 489,170 489,170 489,170 489,170 490,170 490,170 490,170 490,170 490,170 490,170 490,170 490,169 490,169 490,169 490,169 490,169 490,168 491,168 491,168 491,168 491,168 491,168 491,167 491,167 491,167 491,167 491,167 491,166 491,166 491,166 492,166 492,166 492,166 492,166 492,166 492,165 492,165 492,165 492,165 492,165 492,165 492,165 492,165 493,165 493,165 493,164 493,164 493,164 493,164 493,164 493,164 493,164 493,164 493,164 493,164 493,164 494,164 494,164 494,164 494,164 494,163 494,163 494,163 494,163 494,163 494,163 494,163 494,163 494,163 495,163 495,163 495,163 495,163 495,163 495,163 495,162 495,162 495,162 495,162 495,162 495,162 495,162 496,162 496,162 496,161 496,161 496,161 496,161 496,161 496,161 496,161 496,161 496,161 496,162 496,162 497,162 497,162 497,162 497,162 497,162 497,162 497,162 497,163 497,163 497,163 497,163 497,163 497,163 498,163 498,163 498,163 498,162 498,162 498,162 498,162 498,161 498,161 498,161 498,161 498,161 498,161 499,160 499,160 499,160 499,160 499,160 499,159 499,159 499,159 499,159 499,159 499,159 499,159 499,158 500,158 500,158 500,158 500,158 500,158 500,158 500,158 500,158 500,158 500,158 500,158 500,158 500,158 501,159 501,159 501,159 501,159 501,158 501,158 501,158 501,158 501,158 501,158 501,158 501,158 501,157 502,157 502,157 502,157 502,156 502,156 502,156 502,156 502,156 502,155 502,155 502,155 502,155 502,154 503,154 503,154 503,154 503,154 503,153 503,153 503,153 503,153 503,152 503,152 503,152 503,152 503,152 504,152 504,152 504,151 504,151 504,151 504,151 504,151 504,151 504,151 504,151 504,151 504,151 504,151 505,151 505,151 505,151 505,151 505,151 505,151 505,151 505,151 505,151 505,151 505,151 505,151 505,151 506,150 506,150 506,150 506,150 506,149 506,149 506,149 506,148 506,148 506,148 506,148 506,147 506,147 507,147 507,147 507,147 507,146 507,146 507,146 507,146 507,146 507,145 507,145 507,145 507,145 507,145 508,145 508,144 508,145 508,145 508,145 508,145 508,145 508,145 508,145 508,145 508,145 508,144 508,144 509,144 509,144 509,144 509,144 509,144 509,144 509,144 509,144 509,144 509,144 509,144 509,144 509,144 510,143 510,143 510,143 510,143 510,143 510,143 510,143 510,143 510,143 510,142 510,142 510,142 510,142 511,141 511,141 511,141 511,140 511,140 511,140 511,140 511,139 511,139 511,139 511,139 511,139 511,139 512,139 512,138 512,138 512,138 512,138 512,138 512,137 512,137 512,137 512,137 512,136 512,136 512,136 513,136 513,135 513,135 513,135 513,135 513,134 513,134 513,134 513,134 513,134 513,133 513,133 513,132 514,132 514,132 514,131 514,131 514,131 514,131 514,130 514,130 514,130 514,130 514,129 514,129 514,129 515,129 515,129 515,128 515,128 515,128 515,128 515,128 515,128 515,127 515,127 515,128 515,128 515,128 516,128 516,128 516,128 516,128 516,128 516,129 516,129 516,130 516,130 516,130 516,131 516,131 516,132 517,132 517,133 517,133 517,133 517,134 517,134 517,134 517,135 517,135 517,136 517,136 517,136 517,137 518,138 518,139 518,139 518,140 518,140 518,141 518,141 518,141 518,142 518,142 518,142 518,141 518,141 519,141 519,141 519,141 519,140 519,140 519,140 519,140 519,140 519,140 519,140 519,140 519,140 519,140 520,140 520,140 520,140 520,140 520,139 520,139 520,139 520,139 520,139 520,139 520,138 520,138 520,138 521,138 521,138 521,137 521,137 521,137 521,137 521,136 521,136 521,136 521,136 521,135 521,135 521,135 522,135 522,134 522,134 522,133 522,133 522,132 522,132 522,131 522,131 522,130 522,129 522,128 522,127 523,126 523,125 523,125 523,124 523,123 523,123 523,122 523,122 523,122 523,121 523,120 523,120 523,119 524,119 524,118 524,117 524,116 524,115 524,114 524,114 524,113 524,112 524,111 524,111 524,110 524,110 525,110 525,110 525,110 525,109 525,109 525,109 525,109 525,109 525,109 525,108 525,108 525,108 525,108 526,108 526,108 526,107 526,107 526,107 526,107 526,106 526,106 526,106 526,106 526,106 526,106 526,106 527,106 527,106 527,106 527,106 527,107 527,107 527,108 527,109 527,109 527,110 527,110 527,111 527,111 528,112 528,113 528,113 528,114 528,114 528,115 528,115 528,116 528,117 528,117 528,117 528,117 528,118 529,118 529,119 529,119 529,119 529,120 529,120 529,120 529,121 529,121 529,122 529,122 529,123 529,123 530,123 530,123 530,124 530,124 530,124 530,125 530,125 530,126 530,126 530,127 530,127 530,128 530,128 531,129 531,129 531,130 531,130 531,131 531,131 531,132 531,132 531,133 531,133 531,133 531,134 531,134 532,135 532,135 532,135 532,136 532,136 532,137 532,137 532,138 532,138 532,138 532,138 532,139 532,139 533,139 533,140 533,140 533,140 533,140 533,140 533,141 533,141 533,141 533,141 533,141 533,142 533,142 534,142 534,142 534,143 534,143 534,143 534,143 534,143 534,143 534,143 534,143 534,143 534,143 534,143 535,142 535,142 535,141 535,141 535,141 535,140 535,139 535,139 535,138 535,138 535,137 535,137 535,136 536,136 536,136 536,135 536,135 536,135 536,134 536,134 536,134 536,133 536,132 536,132 536,132 536,132 537,132 537,132 537,132 537,132 537,131 537,131 537,131 537,131 537,131 537,131 537,131 537,131 537,131 538,131 538,132 538,132 538,132 538,132 538,133 538,133 538,134 538,134 538,134 538,135 538,135 538,135 539,136 539,136 539,136 539,137 539,137 539,138 539,138 539,139 539,139 539,139 539,140 539,140 539,141 540,141 540,141 540,142 540,142 540,143 540,143 540,143 540,143 540,144 540,144 540,144 540,144 540,145 541,145 541,145 541,145 541,146 541,146 541,146 541,146 541,147 541,147 541,147 541,147 541,148 541,148 542,148 542,149 542,149 542,149 542,149 542,150 542,150 542,150 542,150 542,150 542,150 542,151 542,151 543,151 543,151 543,151 543,151 543,152 543,152 543,152 543,152 543,152 543,152 543,152 543,152 543,152 544,152 544,153 544,153 544,153 544,153 544,153 544,153 544,154 544,154 544,154 544,154 544,154 544,154 545,154 545,154 545,154 545,154 545,154 545,155 545,155 545,155 545,155 545,155 545,155 545,155 545,156 546,156 546,156 546,156 546,156 546,156 546,157 546,157 546,157 546,157 546,157 546,158 546,158 546,158 547,158 547,159 547,159 547,159 547,159 547,160 547,160 547,160 547,160 547,161 547,161 547,161 547,161 548,161 548,161 548,161 548,161 548,161 548,161 548,161 548,161 548,161 548,161 548,162 548,161 548,161 549,162 549,162 549,162 549,162 549,162 549,161 549,161 549,161 549,161 549,160 549,160 549,160 549,159 550,159 550,159 550,159 550,158 550,158 550,158 550,158 550,158 550,158 550,158 550,157 550,157 550,157 551,157 551,157 551,157 551,156 551,156 551,156 551,156 551,156 551,156 551,155 551,155 551,155 551,155 552,154 552,154 552,154 552,154 552,153 552,153 552,153 552,153 552,152 552,152 552,152 552,152 552,151 553,151 553,151 553,151 553,151 553,151 553,151 553,151 553,150 553,151 553,150 553,150 553,150 553,151 554,151 554,151 554,151 554,151 554,151 554,151 554,151 554,151 554,151 554,151 554,151 554,151 554,151 555,151 555,151 555,151 555,151 555,151 555,151 555,151 555,151 555,151 555,151 555,151 555,151 555,151 556,151 556,152 556,152 556,152 556,152 556,152 556,152 556,152 556,152 556,152 556,152 556,153 556,153 557,153 557,153 557,153 557,153 557,154 557,154 557,154 557,154 557,154 557,154 557,154 557,155 557,155 558,155 558,155 558,156 558,156 558,156 558,156 558,156 558,156 558,157 558,157 558,157 558,157 558,157 559,157 559,157 559,157 559,158 559,158 559,158 559,158 559,158 559,158 559,158 559,158 559,159 559,159 560,159 560,159 560,159 560,159 560,159 560,159 560,160 560,160 560,160 560,160 560,160 560,160 560,160 561,160 561,160 561,160 561,160 561,160 561,160 561,160 561,161 561,161 561,161 561,161 561,161 561,161 562,161 562,161 562,161 562,161 562,162 562,162 562,162 562,162 562,162 562,162 562,162 562,163 562,163 563,163 563,163 563,163 563,163 563,163 563,163 563,162 563,162 563,162 563,162 563,162 563,162 563,162 563,162 564,162 564,162 564,161 564,161 564,161 564,161 564,161 564,161 564,160 564,160 564,160 564,160 564,160 565,159 565,159 565,159 565,159 565,158 565,158 565,158 565,158 565,157 565,157 565,157 565,157 565,157 566,157 566,157 566,157 566,157 566,157 566,157 566,157 566,157 566,157 566,157 566,157 566,158 566,158 567,158 567,158 567,158 567,158 567,157 567,157 567,157 567,157 567,157 567,156 567,156 567,156 567,156 568,155 568,155 568,155 568,155 568,155 568,155 568,154 568,154 568,154 568,154 568,154 568,154 568,154 569,154 569,153 569,153 569,153 569,153 569,153 569,153 569,153 569,153 569,152 569,153 569,153 569,153 570,153 570,153 570,154 570,154 570,154 570,154 570,154 570,154 570,154 570,153 570,153 570,153 570,153 571,153 571,153 571,153 571,153 571,153 571,153 571,153 571,153 571,153 571,154 571,154 571,154 571,154 572,154 572,154 572,154 572,154 572,154 572,154 572,154 572,154 572,154 572,154 572,154 572,153 572,153 573,153 573,152 573,152 573,152 573,152 573,152 573,152 573,152 573,151 573,151 573,151 573,151 573,151 574,152 574,152 574,152 574,152 574,152 574,152 574,152 574,152 574,152 574,152 574,152 574,152 574,152 575,152 575,152 575,152 575,152 575,152 575,151 575,151 575,151 575,150 575,150 575,149 575,149 575,149 576,149 576,149 576,148 576,148 576,148 576,148 576,148 576,148 576,148 576,149 576,149 576,149 576,149 577,150 577,150 577,150 577,150 577,150 577,150 577,151 577,151 577,151 577,151 577,151 577,151 577,151 578,152 578,152 578,152 578,152 578,152 578,152 578,152 578,151 578,151 578,151 578,151 578,151 578,150 579,150 579,150 579,150 579,150 579,150 579,150 579,150 579,150 579,150 579,150 579,150 579,150 579,150 580,150 580,150 580,149 580,149 580,149 580,149 580,149 580,149 580,148 580,148 580,148 580,148 580,148 581,148 581,147 581,147 581,147 581,147 581,147 581,147 581,146 581,146 581,146 581,146 581,145 581,145 582,145 582,145 582,144 582,144 582,144 582,144 582,143 582,143 582,143 582,143 582,142 582,142 582,141 583,141 583,141 583,140 583,140 583,140 583,140 583,140 583,140 583,140 583,141 583,141 583,141 583,141 584,141 584,141 584,142 584,142 584,142 584,142 584,142 584,142 584,142 584,142 584,141 584,141 584,141 585,141 585,140 585,140 585,140 585,139 585,138 585,138 585,138 585,139 585,139 585,139 585,139 585,139 586,139 586,139 586,139 586,139 586,139 586,139 586,139 586,139 586,139 586,139 586,139 586,139 586,139 587,139 587,139 587,139 587,139 587,139 587,139 587,139 587,139 587,139 587,139 587,139 587,139 587,139 588,139 588,139 588,139 588,139 588,140 588,140 588,141 588,141 588,141 588,141 588,141 588,142 588,142 589,143 589,143 589,144 589,144 589,144 589,145 589,145 589,146 589,146 589,146 589,147 589,147 589,148 590,149 590,149 590,150 590,150 590,151 590,152 590,152 590,152 590,153 590,153 590,154 590,154 590,154 591,155 591,155 591,156 591,156 591,157 591,157 591,158 591,158 591,159 591,159 591,160 591,160 591,160 592,160 592,161 592,161 592,161 592,161 592,162 592,162 592,162 592,162 592,162 592,162 592,162 592,162 593,163 593,163 593,163 593,163 593,163 593,163 593,163 593,163 593,163 593,163 593,163 593,163 593,164 594,164 594,164 594,164 594,164 594,164 594,164 594,165 594,165 594,165 594,165 594,165 594,165 594,164 595,164 595,164 595,164 595,164 595,164 595,164 595,165 595,165 595,165 595,165 595,165 595,165 595,165 596,165 596,164 596,164 596,164 596,164 596,164 596,164 596,164 596,164 596,164 596,164 596,164 596,164 597,164 597,163 597,163 597,163 597,163 597,163 597,163 597,163 597,163 597,163 597,163 597,163 597,163 598,162 598,162 598,162 598,162 598,162 598,162 598,162 598,162 598,162 598,162 598,162 598,161 598,161 599,161 599,161 599,161 599,161 599,161 599,161 599,160 599,160 599,160 599,160 599,160 599,160 599,159 600,159 600,159 600,159 600,159 600,159 600,159 600,159 600,159 600,158 600,158 600,158 600,158 600,158 601,158 601,158 601,158 601,158 601,158 601,158 601,158 601,158 601,157 601,157 601,157 601,157 601,157 602,156 602,156 602,156 602,156 602,155 602,155 602,155 602,155 602,155 602,154 602,154 602,154 602,154 603,154 603,153 603,153 603,153 603,153 603,152 603,152 603,152 603,152 603,152 603,152 603,152 603,152 604,152 604,152 604,151 604,152 604,152 604,152 604,152 604,152 604,152 604,152 604,152 604,153 604,153 605,153 605,153 605,153 605,153 605,153 605,153 605,154 605,153 605,153 605,153 605,153 605,153 605,153 606,152 606,152 606,152 606,152 606,151 606,151 606,151 606,150 606,151 606,151 606,151 606,151 606,151 607,151 607,151 607,151 607,151 607,151 607,151 607,150 607,150 607,150 607,150 607,149 607,149 607,149 608,149 608,149 608,149 608,149 608,149 608,149 608,149 608,150 608,150 608,150 608,150 608,150 608,150 609,150 609,151 609,151 609,151 609,152 609,152 609,153 609,153 609,154 609,154 609,154 609,154 609,155 610,155 610,155 610,155 610,156 610,156 610,156 610,156 610,156 610,157 610,157 610,157 610,157 610,157 611,157 611,157 611,158 611,157 611,158 611,158 611,158 611,158 611,158 611,158 611,158 611,159 611,159 612,159 612,159 612,159 612,159 612,159 612,160 612,160 612,160 612,160 612,161 612,161 612,161 612,161 613,161 613,161 613,161 613,161 613,161 613,161 613,161 613,161 613,161 613,161 613,161 613,161 613,161 614,161 614,161 614,161 614,161 614,161 614,161 614,161 614,161 614,161 614,161 614,161 614,160 614,160 615,160 615,160 615,160 615,159 615,159 615,159 615,159 615,159 615,158 615,158 615,158 615,158 615,157 616,157 616,157 616,156 616,156 616,156 616,156 616,156 616,156 616,156 616,155 616,155 616,155 616,155 617,155 617,154 617,154 617,154 617,153 617,153 617,153 617,152 617,152 617,152 617,152 617,151 617,151 618,151 618,151 618,151 618,151 618,151 618,151 618,151 618,151 618,151 618,151 618,151 618,151 618,151 619,151 619,151 619,151 619,151 619,151 619,151 619,151 619,151 619,151 619,151 619,151 619,152 619,152 620,151 620,151 620,151 620,151 620,151 620,152 620,152 620,152 620,152 620,152 620,152 620,153 620,153 621,153 621,152 621,152 621,152 621,152 621,152 621,152 621,152 621,151 621,151 621,151 621,150 621,150 622,150 622,149 622,149 622,149 622,148 622,148 622,148 622,148 622,147 622,147 622,147 622,147 622,146 623,146 623,146 623,146 623,146 623,146 623,146 623,146 623,146 623,147 623,147 623,147 623,148 623,148 624,148 624,149 624,149 624,149 624,150 624,150 624,151 624,151 624,152 624,152 624,153 624,153 624,154 625,154 625,155 625,155 625,156 625,156 625,157 625,157 625,158 625,158 625,158 625,158 625,158 625,159 626,159 626,159 626,159 626,159 626,159 626,159 626,160 626,160 626,160 626,160 626,160 626,160 626,160 627,160 627,160 627,160 627,160 627,160 627,160 627,160 627,160 627,160 627,160 627,160 627,160 627,160 628,160 628,160 628,160 628,160 628,160 628,160 628,160 628,160 628,160 628,160 628,160 628,160 628,160 629,160 629,160 629,160 629,160 629,160 629,159 629,159 629,159 629,159 629,159 629,159 629,159 629,159 630,159 630,159 630,159 630,159 630,159 630,160 630,160 630,160 630,160 630,160 630,160 630,161 630,161 631,161 631,162 631,163 631,163 631,163 631,162 631,161 631,161 631,160 631,160 631,160 631,160 631,159 632,159 632,159 632,159 632,159 632,159 632,158 632,158 632,158 632,157 632,157 632,157 632,156 632,156 633,156 633,156 633,156 633,155 633,155 633,155 633,155 633,155 633,154 633,154 633,154 633,154 633,154 634,154 634,154 634,154 634,154 634,154 634,154 634,154 634,154 634,154 634,154 634,154 634,154 634,154 635,154 635,154 635,154 635,154 635,154 635,154 635,154 635,154 635,154 635,154 635,154 635,154 635,154 636,154 636,153 636,153 636,153 636,153 636,153 636,153 636,153 636,153 636,152 636,152 636,152 636,152 637,152 637,152 637,152 637,152 637,152 637,152 637,152 637,152 637,152 637,152 637,152 637,152 637,152 638,152 638,152 638,152 638,152 638,152 638,152 638,152 638,152 638,152 638,152 638,152 638,152 638,152 639,152 639,153 639,153 639,153 639,153 639,153 639,153 639,153 639,153 639,153 639,153 639,154 639,154 640,154 640,154 640,154 640,154 640,154 640,154 640,154 640,154 640,154 640,154 640,154 640,155 640,155 641,155 641,155 641,155 641,155 641,155 641,155 641,155 641,155 641,155 641,155 641,155 641,155 641,155 642,155 642,155 642,155 642,155 642,155 642,155 642,155 642,155 642,155 642,155 642,155 642,154 642,154 643,154 643,154 643,154 643,154 643,154 643,154 643,154 643,154 643,154 643,154 643,154 643,154 643,154 644,154 644,154 644,154 644,154 644,154 644,154 644,154 644,153 644,153 644,153 644,153 644,153 644,153 645,153 645,153 645,153 645,153 645,153 645,153 645,153 645,153 645,153 645,153 645,153 645,152 645,152 645,152 646,152 646,152 646,152 646,152 646,152 646,152 646,152 646,152 646,151 646,151 646,151 646,151 646,151 647,151 647,151 647,151 647,151 647,151 647,151 647,151 647,151 647,151 647,150 647,150 647,150 647,150 648,150 648,150 648,150 648,150 648,150 648,150 648,150 648,150 648,150 648,149 648,149 648,149 648,149 649,149 649,149 649,149 649,149 649,149 649,149 649,149 649,149 649,148 649,148 649,148 649,148 649,148 650,148 650,148 650,148 650,147 650,147 650,147 650,147 650,146 650,146 650,146 650,146 650,146 650,146 651,146 651,146 651,146 651,146 651,145 651,145 651,145 651,145 651,145 651,145 651,145 651,145 651,145 652,145 652,144 652,144 652,144 652,144 652,144 652,144 652,144 652,144 652,144 652,144 652,144 652,144 653,144 653,144 653,144 653,144 653,144 653,143 653,143 653,143 653,143 653,143 653,143 653,143 653,143 654,142 654,142 654,142 654,142 654,142 654,142 654,142 654,142 654,142 654,142 654,142 654,142 654,142 655,142 655,142 655,142 655,142 655,142 655,142 655,142 655,142 655,142 655,142 655,142 655,142 655,142 656,143 656,143 656,143 656,143 656,143 656,143 656,143 656,143 656,143 656,143 656,143 656,143 656,143 657,143 657,143 657,143 657,143 657,143 657,144 657,144 657,144 657,144 657,144 657,144 657,144 657,144 658,144 658,144 658,144 658,144 658,144 658,144 658,145 658,145 658,145 658,145 658,145 658,145 658,145 659,146 659,146 659,146 659,146 659,146 659,146 659,146 659,146 659,146 659,147 659,147 659,147 659,147 660,147 660,147 660,147 660,147 660,147 660,147 660,147 660,147 660,147 660,147 660,147 660,148 660,148 661,148 661,148 661,148 661,148 661,148 661,148 661,148 661,148 661,148 661,148 661,148 661,148 661,148 662,148 662,148 662,147 662,148 662,148 662,148 662,148 662,148 662,148 662,148 662,148 662,148 662,149 663,149 663,149 663,149 663,149 663,149 663,149 663,149 663,149 663,149 663,149 663,149 663,149 663,150 664,150 664,150 664,150 664,150 664,150 664,150 664,150 664,150 664,150 664,150 664,150 664,150 664,150 665,150 665,150 665,150 665,150 665,150 665,150 665,150 665,150 665,150 665,150 665,150 665,150 665,150 666,150 666,150 666,150 666,150 666,150 666,150 666,150 666,150 666,150 666,150 666,149 666,149 666,149 667,149 667,149 667,149 667,149 667,149 667,149 667,149 667,149 667,149 667,149 667,149 667,149 667,148 668,148 668,148 668,148 668,148 668,148 668,148 668,148 668,148 668,148 668,148 668,147 668,147 668,147 669,147 669,147 669,147 669,147 669,147 669,147 669,147 669,147 669,146 669,146 669,146 669,146 669,146 670,146 670,146 670,145 670,145 670,145 670,145 670,145 670,145 670,145 670,145 670,145 670,145 670,144 671,144 671,144 671,144 671,144 671,144 671,144 671,144 671,144 671,144 671,144 671,144 671,144 671,144 672,144 672,144 672,144 672,144 672,144 672,144 672,144 672,143 672,143 672,143 672,142 672,142 672,142 673,142 673,142 673,142 673,142 673,141 673,141 673,141 673,141 673,141 673,141 673,141 673,141 673,141 674,141 674,141 674,141 674,141 674,141 674,142 674,142 674,142 674,142 674,142 674,142 674,142 674,141 675,141 675,141 675,141 675,141 675,141 675,141 675,141 675,141 675,142 675,142 675,142 675,142 675,142 676,142 676,142 676,142 676,142 676,142 676,142 676,142 676,142 676,142 676,142 676,142 676,142 676,142 677,142 677,142 677,142 677,142 677,141 677,141 677,141 677,141 677,142 677,142 677,142 677,142 677,142 678,142 678,142 678,142 678,142 678,142 678,141 678,141 678,141 678,141 678,141 678,141 678,141 678,141 679,140 679,141 679,141 679,141 679,141 679,140 679,140 679,140 679,140 679,140 679,140 679,140 679,140 680,140 680,139 680,139 680,139 680,139 680,139 680,139 680,139 680,139 680,139 680,139 680,138 680,138 681,138 681,138 681,138 681,138 681,137 681,137 681,137 681,137 681,137 681,136 681,136 681,136 681,136 682,136 682,135 682,135 682,135 682,135 682,135 682,135 682,135 682,134 682,135 682,135 682,135 682,135 683,135 683,135 683,135 683,134 683,134 683,134 683,134 683,134 683,134 683,134 683,134 683,134 683,134 684,134 684,134 684,133 684,133 684,133 684,133 684,133 684,133 684,133 684,133 684,132 684,132 684,132 685,132 685,132 685,132 685,132 685,132 685,131 685,131 685,131 685,131 685,131 685,131 685,131 685,130 686,130 686,129 686,129 686,129 686,128 686,128 686,127 686,127 686,126 686,126 686,126 686,126 686,125 687,125 687,125 687,125 687,125 687,124 687,124 687,123 687,123 687,124 687,124 687,124 687,124 687,124 688,124 688,125 688,125 688,125 688,125 688,124 688,124 688,124 688,123 688,123 688,123 688,123 688,123 689,123 689,122 689,122 689,122 689,122 689,122 689,122 689,122 689,122 689,122 689,122 689,122 689,122 690,122 690,122 690,122 690,122 690,122 690,122 690,122 690,122 690,122 690,122 690,122 690,122 690,122 691,122 691,122 691,122 691,122 691,122 691,122 691,122 691,122 691,122 691,122 691,122 691,122 691,122 692,122 692,122 692,122 692,122 692,122 692,123 692,123 692,123 692,123 692,123 692,123 692,123 692,123 693,123 693,124 693,124 693,124 693,124 693,125 693,125 693,125 693,126 693,126 693,126 693,126 693,127 694,127 694,127 694,127 694,127 694,127 694,127 694,127 694,127 694,127 694,127 694,128 694,128 694,128 695,128 695,128 695,128 695,128 695,128 695,128 695,128 695,128 695,128 695,128 695,128 695,128 695,127 696,127 696,127 696,126 696,126 696,126 696,125 696,125 696,124 696,123 696,122 696,122 696,122 696,121 697,121 697,120 697,120 697,120 697,120 697,120 697,119 697,119 697,119 697,119 697,118 697,118 697,118 698,118 698,118 698,118 698,118 698,118 698,118 698,118 698,119 698,119 698,119 698,119 698,119 698,120 699,120 699,120 699,120 699,120 699,120 699,120 699,121 699,121 699,121 699,121 699,121 699,121 699,121 700,121 700,121 700,121 700,121 700,121 700,121 700,121 700,121 700,122 700,122 700,122 700,123 700,123 701,123 701,123 701,123 701,124 701,124 701,124 701,124 701,124 701,124 701,125 701,126 701,127 701,128 702,128 702,128 702,127 702,127 702,127 702,128 702,128 702,128 702,128 702,129 702,129 702,129 702,129 703,129 703,130 703,130 703,130 703,130 703,130 703,130 703,131 703,130 703,131 703,131 703,131 703,131 704,131 704,131 704,132 704,132 704,132 704,132 704,132 704,132 704,132 704,133 704,133 704,133 704,133 705,133 705,133 705,134 705,134 705,134 705,134 705,134 705,134 705,134 705,134 705,134 705,135 705,135 706,135 706,135 706,135 706,135 706,135 706,135 706,135 706,135 706,135 706,135 706,135 706,135 706,135 707,136 707,136 707,137 707,137 707,137 707,137 707,137 707,137 707,137 707,137 707,138 707,138 707,138 708,138 708,138 708,139 708,139 708,139 708,139 708,139 708,139 708,139 708,139 708,140 708,140 708,140 709,140 709,140 709,140 709,140 709,140 709,140 709,140 709,140 709,140 709,141 709,141 709,141 709,141 710,141 710,141 710,141 710,141 710,142 710,142 710,142 710,142 710,142 710,142 710,143 710,143 710,143 711,143 711,143 711,143 711,143 711,143 711,143 711,143 711,144 711,144 711,144 711,144 711,144 711,144 712,145 712,145 712,145 712,144 712,144 712,144 712,144 712,144 712,144 712,144 712,144 712,144 712,144 713,144 713,144 713,144 713,144 713,144 713,144 713,144 713,145 713,145 713,145 713,145 713,145 713,145 714,145 714,145 714,145 714,146 714,146 714,146 714,146 714,146 714,146 714,146 714,146 714,146 714,147 715,147 715,147 715,147 715,148 715,148 715,148 715,148 715,148 715,149 715,149 715,149 715,149 715,149 716,149 716,150 716,150 716,150 716,150 716,150 716,150 716,150 716,150 716,150 716,150 716,150 716,150 717,150 717,150 717,150 717,150 717,150 717,149 717,149 717,149 717,149 717,149 717,149 717,149 717,149 718,149 718,149 718,149 718,149 718,149 718,149 718,148 718,148 718,148 718,148 718,148 718,148 718,148 719,148 719,148 719,148 719,148 719,148 719,148 719,148 719,149 719,149 719,149 719,149 719,149 719,149 720,149 720,149 720,149 720,149 720,149 720,149 720,149 720,149 720,149 720,149 720,148 720,148 720,148 721,148 721,148 721,149 721,149 721,149 721,149 721,150 721,150 721,150 721,150 721,151 721,151 721,151 722,151 722,151 722,152 722,152 722,152 722,152 722,153 722,153 722,153 722,154 722,154 722,154 722,154 723,155 723,155 723,155 723,156 723,156 723,156 723,156 723,156 723,157 723,157 723,157 723,158 723,158 724,158 724,159 724,159 724,159 724,159 724,159 724,160 724,160 724,160 724,160 724,160 724,160 724,160 725,160 725,160 725,161 725,161 725,161 725,162 725,162 725,162 725,162 725,161 725,161 725,161 725,161 726,161 726,161 726,161 726,161 726,161 726,161 726,161 726,161 726,161 726,161 726,161 726,161 726,161 727,161 727,161 727,161 727,161 727,161 727,161 727,161 727,162 727,162 727,162 727,162 727,162 727,162 727,162 728,161 728,161 728,161 728,161 728,161 728,161 728,161 728,161 728,161 728,161 728,161 728,161 728,161 729,161 729,160 729,159 729,159 729,159 729,158 729,158 729,157 729,157 729,157 729,157 729,157 729,157 730,157 730,157 730,157 730,157 730,157 730,157 730,157 730,157 730,157 730,157 730,157 730,157 730,157 731,157 731,157 731,157 731,157 731,156 731,156 731,156 731,156 731,156 731,155 731,155 731,155 731,155 732,155 732,156 732,156 732,156 732,157 732,157 732,157 732,157 732,157 732,157 732,157 732,157 732,157 733,157 733,157 733,157 733,157 733,157 733,156 733,156 733,156 733,156 733,156 733,156 733,156 733,156 734,156 734,155 734,155 734,155 734,155 734,155 734,155 734,155 734,155 734,155 734,155 734,155 734,155 735,155 735,156 735,156 735,156 735,156 735,156 735,156 735,156 735,156 735,156 735,156 735,156 735,156 736,156 736,156 736,156 736,156 736,156 736,155 736,155 736,155 736,155 736,154 736,154 " vector-effect="non-scaling-stroke"></polyline>
</g></svg>