<?xml version="1.0" encoding="UTF-8" standalone="no"?><svg width="282.222mm" height="141.111mm" xmlns="http://www.w3.org/2000/svg" xmlns:xlink="http://www.w3.org/1999/xlink"  version="1.2" baseProfile="tiny"><g fill="none" stroke="#ff0000" stroke-linecap="round" stroke-linejoin="round" stroke-opacity="1" stroke-width="1.5" transform="matrix(1,0,0,1,0,0)">
<polyline fill="none" points="145,337 145,337 145,336 145,336 145,335 145,335 145,334 145,333 146,333 146,333 146,332 146,332 146,332 146,331 146,331 146,331 146,331 146,330 146,330 146,330 146,330 147,330 147,330 147,330 147,329 147,329 147,329 147,329 147,328 147,328 147,328 147,328 147,327 147,327 148,327 148,326 148,326 148,326 148,326 148,325 148,325 148,325 148,324 148,324 148,324 148,324 148,323 149,323 149,323 149,323 149,322 149,322 149,322 149,321 149,321 149,321 149,321 149,320 149,320 149,320 150,320 150,319 150,319 150,319 150,318 150,318 150,318 150,318 150,317 150,317 150,317 150,316 150,316 151,316 151,316 151,315 151,315 151,315 151,315 151,314 151,314 151,314 151,314 151,314 151,314 151,313 152,313 152,313 152,313 152,312 152,312 152,312 152,312 152,312 152,311 152,311 152,311 152,311 152,311 153,311 153,311 153,311 153,311 153,311 153,311 153,311 153,311 153,311 153,311 153,311 153,311 153,311 154,311 154,311 154,311 154,311 154,311 154,311 154,311 154,311 154,311 154,311 154,310 154,310 154,310 155,310 155,310 155,310 155,311 155,312 155,313 155,313 155,313 155,313 155,313 155,313 155,313 155,313 156,313 156,312 156,312 156,312 156,312 156,311 156,311 156,311 156,311 156,311 156,310 156,310 156,310 157,309 157,309 157,309 157,308 157,308 157,307 157,307 157,307 157,307 157,307 157,307 157,306 157,306 158,306 158,307 158,307 158,307 158,307 158,307 158,307 158,307 158,307 158,307 158,307 158,307 158,307 159,307 159,307 159,307 159,307 159,307 159,306 159,306 159,306 159,305 159,304 159,304 159,303 159,303 160,303 160,303 160,302 160,302 160,302 160,301 160,301 160,301 160,300 160,300 160,300 160,300 160,299 161,299 161,299 161,299 161,299 161,299 161,299 161,299 161,299 161,299 161,300 161,300 161,300 161,300 162,300 162,300 162,299 162,299 162,299 162,298 162,298 162,298 162,298 162,298 162,298 162,298 162,299 163,299 163,299 163,299 163,299 163,299 163,298 163,298 163,298 163,298 163,297 163,297 163,297 163,297 164,297 164,297 164,297 164,298 164,298 164,298 164,299 164,299 164,299 164,300 164,300 164,300 164,301 165,301 165,301 165,301 165,301 165,301 165,301 165,301 165,302 165,302 165,302 165,302 165,303 165,303 166,303 166,303 166,303 166,303 166,302 166,302 166,302 166,302 166,302 166,302 166,302 166,301 166,301 167,300 167,300 167,299 167,299 167,298 167,298 167,298 167,297 167,297 167,298 167,297 167,297 167,297 168,297 168,296 168,296 168,296 168,296 168,296 168,296 168,296 168,296 168,296 168,296 168,296 168,296 169,296 169,296 169,296 169,296 169,296 169,296 169,296 169,296 169,296 169,296 169,295 169,295 169,295 170,295 170,295 170,295 170,295 170,295 170,294 170,294 170,294 170,294 170,293 170,293 170,293 170,293 171,293 171,293 171,293 171,293 171,293 171,293 171,293 171,293 171,293 171,293 171,293 171,293 171,293 172,293 172,293 172,293 172,293 172,293 172,293 172,293 172,293 172,292 172,292 172,292 172,292 172,292 173,292 173,291 173,291 173,291 173,291 173,291 173,291 173,291 173,290 173,290 173,290 173,290 173,290 174,290 174,289 174,289 174,290 174,289 174,289 174,289 174,289 174,289 174,289 174,289 174,289 174,289 175,289 175,289 175,289 175,289 175,288 175,288 175,288 175,287 175,287 175,287 175,288 175,288 175,287 176,287 176,287 176,287 176,287 176,287 176,286 176,286 176,286 176,286 176,286 176,286 176,286 176,286 177,286 177,286 177,286 177,286 177,285 177,285 177,285 177,285 177,285 177,285 177,285 177,285 177,285 178,285 178,285 178,285 178,285 178,285 178,284 178,284 178,284 178,284 178,284 178,284 178,284 178,284 179,284 179,284 179,284 179,284 179,284 179,284 179,284 179,283 179,283 179,283 179,283 179,282 179,282 180,282 180,282 180,282 180,282 180,283 180,283 180,283 180,283 180,283 180,283 180,283 180,282 180,282 181,282 181,282 181,282 181,282 181,282 181,282 181,282 181,282 181,282 181,282 181,282 181,283 181,283 182,283 182,283 182,283 182,283 182,283 182,283 182,283 182,284 182,284 182,284 182,285 182,285 182,285 183,286 183,286 183,286 183,286 183,287 183,287 183,287 183,287 183,287 183,287 183,287 183,288 183,288 184,288 184,289 184,289 184,289 184,289 184,290 184,290 184,290 184,290 184,289 184,289 184,289 184,290 185,290 185,290 185,290 185,290 185,290 185,290 185,290 185,290 185,290 185,291 185,291 185,291 185,291 186,291 186,291 186,291 186,291 186,291 186,291 186,291 186,291 186,291 186,291 186,291 186,292 186,292 187,292 187,292 187,292 187,292 187,293 187,293 187,293 187,293 187,293 187,293 187,293 187,293 187,293 188,293 188,293 188,293 188,293 188,293 188,293 188,293 188,293 188,293 188,293 188,293 188,293 188,293 188,293 189,293 189,293 189,292 189,292 189,292 189,292 189,292 189,292 189,292 189,292 189,292 189,292 189,292 190,292 190,293 190,293 190,293 190,293 190,293 190,293 190,293 190,293 190,293 190,293 190,294 190,294 191,294 191,294 191,294 191,294 191,294 191,294 191,294 191,295 191,295 191,295 191,295 191,295 191,295 192,296 192,296 192,296 192,296 192,297 192,297 192,298 192,298 192,299 192,299 192,299 192,300 192,300 193,300 193,301 193,301 193,302 193,302 193,303 193,303 193,304 193,305 193,305 193,305 193,305 193,305 194,305 194,305 194,305 194,305 194,305 194,305 194,305 194,305 194,304 194,304 194,304 194,304 194,304 195,304 195,303 195,303 195,303 195,303 195,303 195,303 195,303 195,302 195,302 195,302 195,302 195,302 196,302 196,302 196,302 196,302 196,302 196,302 196,302 196,301 196,301 196,301 196,301 196,300 196,300 197,300 197,300 197,300 197,300 197,300 197,300 197,300 197,300 197,300 197,299 197,299 197,299 197,298 198,298 198,298 198,298 198,298 198,298 198,297 198,297 198,297 198,297 198,297 198,297 198,297 198,297 199,297 199,297 199,297 199,297 199,297 199,296 199,295 199,295 199,295 199,295 199,295 199,295 199,295 200,295 200,295 200,295 200,295 200,295 200,294 200,294 200,294 200,294 200,293 200,293 200,293 200,293 201,293 201,292 201,292 201,292 201,293 201,293 201,292 201,292 201,292 201,292 201,292 201,292 201,292 202,292 202,292 202,291 202,291 202,291 202,291 202,291 202,290 202,290 202,290 202,290 202,289 202,289 203,289 203,289 203,289 203,289 203,289 203,288 203,288 203,288 203,288 203,288 203,287 203,287 203,287 204,286 204,286 204,286 204,285 204,285 204,285 204,284 204,284 204,284 204,284 204,284 204,283 204,283 205,283 205,283 205,283 205,283 205,282 205,282 205,282 205,282 205,281 205,281 205,281 205,280 205,280 206,280 206,280 206,280 206,280 206,280 206,280 206,280 206,280 206,280 206,280 206,280 206,280 206,280 207,280 207,280 207,280 207,280 207,280 207,280 207,280 207,280 207,280 207,280 207,280 207,279 207,279 208,279 208,279 208,279 208,279 208,279 208,278 208,278 208,277 208,276 208,276 208,276 208,276 208,276 209,276 209,276 209,276 209,275 209,275 209,275 209,275 209,274 209,274 209,275 209,275 209,275 209,275 210,276 210,276 210,276 210,276 210,276 210,276 210,276 210,276 210,277 210,277 210,277 210,277 210,277 211,277 211,277 211,278 211,278 211,278 211,278 211,278 211,279 211,279 211,280 211,280 211,280 211,279 212,279 212,279 212,279 212,279 212,280 212,280 212,280 212,280 212,280 212,281 212,281 212,281 212,281 213,281 213,281 213,281 213,281 213,281 213,281 213,281 213,281 213,281 213,282 213,282 213,281 213,281 214,281 214,282 214,282 214,282 214,282 214,282 214,282 214,282 214,283 214,283 214,284 214,284 214,284 215,285 215,285 215,285 215,285 215,285 215,285 215,285 215,285 215,285 215,285 215,285 215,285 215,285 216,285 216,284 216,284 216,283 216,283 216,283 216,283 216,282 216,282 216,282 216,282 216,282 216,282 217,282 217,281 217,281 217,281 217,281 217,281 217,281 217,281 217,281 217,282 217,282 217,282 217,282 218,283 218,283 218,283 218,284 218,284 218,284 218,285 218,285 218,285 218,286 218,286 218,286 218,287 219,287 219,287 219,287 219,288 219,288 219,288 219,289 219,289 219,289 219,289 219,289 219,288 219,288 220,288 220,288 220,288 220,287 220,287 220,287 220,286 220,286 220,286 220,285 220,285 220,285 220,285 221,284 221,284 221,284 221,284 221,283 221,283 221,282 221,282 221,282 221,281 221,281 221,281 221,280 222,280 222,280 222,280 222,280 222,280 222,280 222,281 222,281 222,281 222,281 222,281 222,281 222,281 223,281 223,281 223,282 223,282 223,282 223,282 223,283 223,283 223,283 223,284 223,284 223,284 223,284 224,284 224,284 224,284 224,284 224,285 224,285 224,285 224,285 224,285 224,286 224,286 224,286 224,287 225,287 225,287 225,287 225,287 225,287 225,287 225,287 225,287 225,287 225,287 225,287 225,287 225,287 226,287 226,286 226,286 226,286 226,286 226,285 226,285 226,285 226,285 226,285 226,285 226,285 226,285 227,285 227,284 227,284 227,284 227,284 227,284 227,283 227,283 227,283 227,283 227,283 227,283 227,282 228,282 228,282 228,282 228,282 228,281 228,281 228,281 228,281 228,281 228,281 228,281 228,281 228,281 229,281 229,281 229,281 229,281 229,281 229,281 229,281 229,281 229,281 229,281 229,281 229,280 229,280 230,280 230,280 230,280 230,280 230,280 230,280 230,280 230,280 230,280 230,280 230,280 230,280 230,280 231,279 231,279 231,279 231,279 231,280 231,280 231,280 231,280 231,280 231,280 231,280 231,280 231,280 232,280 232,280 232,280 232,280 232,279 232,279 232,279 232,279 232,279 232,279 232,278 232,278 232,278 233,278 233,278 233,278 233,278 233,278 233,278 233,278 233,277 233,277 233,277 233,277 233,277 233,277 234,277 234,277 234,277 234,277 234,277 234,277 234,277 234,277 234,277 234,277 234,276 234,276 234,276 235,276 235,276 235,276 235,276 235,276 235,276 235,276 235,275 235,275 235,275 235,275 235,274 235,274 236,274 236,274 236,273 236,273 236,273 236,273 236,273 236,273 236,273 236,273 236,273 236,273 236,273 237,272 237,272 237,272 237,272 237,272 237,272 237,272 237,271 237,271 237,271 237,271 237,271 237,271 238,270 238,270 238,270 238,269 238,269 238,269 238,269 238,269 238,269 238,269 238,269 238,269 238,269 239,269 239,269 239,269 239,268 239,268 239,268 239,268 239,268 239,267 239,267 239,267 239,267 239,267 240,267 240,267 240,267 240,267 240,267 240,267 240,266 240,266 240,266 240,266 240,265 240,265 240,265 241,265 241,265 241,265 241,265 241,265 241,265 241,265 241,264 241,264 241,264 241,264 241,264 241,264 242,263 242,263 242,263 242,263 242,263 242,263 242,263 242,263 242,263 242,262 242,262 242,262 242,261 243,261 243,261 243,261 243,260 243,260 243,260 243,260 243,259 243,259 243,259 243,259 243,259 243,258 244,259 244,258 244,258 244,258 244,258 244,258 244,258 244,258 244,257 244,257 244,257 244,256 244,256 245,256 245,255 245,255 245,255 245,255 245,255 245,255 245,255 245,255 245,255 245,255 245,255 245,254 246,254 246,254 246,254 246,254 246,254 246,253 246,253 246,253 246,253 246,253 246,253 246,253 246,253 247,253 247,252 247,252 247,252 247,252 247,251 247,251 247,251 247,250 247,250 247,249 247,249 247,249 248,249 248,248 248,248 248,248 248,248 248,248 248,247 248,247 248,246 248,246 248,246 248,246 248,246 249,246 249,246 249,246 249,246 249,245 249,245 249,245 249,245 249,245 249,245 249,244 249,244 249,244 250,244 250,244 250,243 250,243 250,243 250,243 250,243 250,243 250,242 250,242 250,242 250,242 250,241 251,241 251,241 251,241 251,241 251,241 251,241 251,241 251,241 251,241 251,240 251,240 251,240 251,240 252,240 252,240 252,239 252,239 252,239 252,239 252,239 252,239 252,239 252,238 252,238 252,238 252,238 253,238 253,238 253,238 253,238 253,238 253,238 253,237 253,238 253,238 253,238 253,239 253,239 253,239 254,238 254,238 254,237 254,236 254,236 254,236 254,235 254,235 254,235 254,235 254,234 254,234 254,234 255,234 255,233 255,233 255,232 255,232 255,231 255,231 255,230 255,230 255,229 255,228 255,228 255,227 256,227 256,226 256,225 256,224 256,223 256,223 256,222 256,222 256,221 256,220 256,219 256,218 256,217 257,216 257,215 257,214 257,213 257,212 257,211 257,210 257,209 257,207 257,206 257,205 257,204 257,203 258,202 258,201 258,201 258,200 258,199 258,199 258,198 258,198 258,197 258,197 258,197 258,196 258,196 259,195 259,194 259,194 259,193 259,193 259,192 259,192 259,191 259,191 259,190 259,190 259,189 259,189 260,189 260,189 260,189 260,188 260,188 260,188 260,187 260,187 260,186 260,186 260,185 260,185 260,184 261,184 261,183 261,183 261,182 261,182 261,181 261,181 261,181 261,180 261,180 261,179 261,179 261,179 262,179 262,179 262,179 262,178 262,178 262,179 262,179 262,179 262,178 262,178 262,178 262,178 262,177 263,177 263,177 263,176 263,176 263,176 263,175 263,175 263,175 263,175 263,175 263,174 263,174 263,174 264,174 264,173 264,173 264,173 264,172 264,172 264,172 264,172 264,172 264,172 264,172 264,173 264,173 265,173 265,173 265,173 265,173 265,173 265,173 265,173 265,173 265,173 265,172 265,172 265,172 265,172 266,171 266,171 266,170 266,170 266,170 266,170 266,170 266,170 266,170 266,170 266,170 266,170 266,170 267,171 267,171 267,172 267,172 267,171 267,171 267,171 267,171 267,171 267,171 267,171 267,171 267,171 268,171 268,170 268,170 268,170 268,169 268,169 268,169 268,169 268,168 268,168 268,167 268,167 268,167 269,166 269,166 269,166 269,165 269,164 269,164 269,163 269,163 269,162 269,162 269,162 269,162 269,161 270,161 270,161 270,160 270,160 270,159 270,159 270,159 270,158 270,158 270,158 270,158 270,158 270,158 271,158 271,158 271,158 271,159 271,159 271,160 271,160 271,161 271,161 271,162 271,163 271,164 271,164 272,165 272,166 272,166 272,167 272,168 272,168 272,169 272,169 272,170 272,170 272,171 272,171 272,172 273,172 273,173 273,173 273,174 273,174 273,174 273,174 273,175 273,175 273,176 273,177 273,177 273,178 274,178 274,178 274,179 274,179 274,180 274,180 274,181 274,181 274,182 274,182 274,183 274,183 274,184 275,184 275,185 275,186 275,186 275,187 275,187 275,188 275,188 275,189 275,190 275,190 275,190 275,191 276,191 276,192 276,192 276,193 276,193 276,193 276,194 276,194 276,194 276,194 276,194 276,194 276,194 277,194 277,194 277,194 277,194 277,194 277,194 277,194 277,194 277,194 277,194 277,194 277,194 277,194 278,194 278,194 278,194 278,194 278,194 278,194 278,195 278,195 278,195 278,195 278,195 278,194 278,194 279,194 279,193 279,193 279,193 279,193 279,193 279,193 279,193 279,193 279,193 279,193 279,193 279,193 280,193 280,194 280,194 280,195 280,196 280,196 280,196 280,196 280,196 280,196 280,196 280,195 280,195 281,194 281,194 281,193 281,193 281,192 281,192 281,191 281,191 281,191 281,191 281,191 281,191 281,191 282,192 282,192 282,192 282,192 282,192 282,193 282,192 282,192 282,192 282,192 282,192 282,192 282,192 283,191 283,191 283,191 283,191 283,191 283,190 283,190 283,189 283,189 283,188 283,188 283,188 283,187 284,187 284,186 284,186 284,186 284,185 284,185 284,185 284,184 284,184 284,185 284,185 284,186 284,186 285,186 285,187 285,187 285,187 285,187 285,188 285,188 285,188 285,188 285,188 285,189 285,189 285,189 286,189 286,189 286,189 286,189 286,189 286,189 286,189 286,189 286,189 286,189 286,189 286,189 286,189 287,189 287,189 287,189 287,189 287,189 287,189 287,189 287,189 287,188 287,188 287,188 287,188 287,187 288,187 288,186 288,186 288,186 288,185 288,185 288,185 288,185 288,184 288,184 288,185 288,185 288,185 289,185 289,185 289,185 289,186 289,186 289,186 289,186 289,186 289,186 289,186 289,187 289,187 289,187 290,187 290,187 290,188 290,188 290,189 290,189 290,190 290,190 290,191 290,192 290,194 290,194 290,195 291,195 291,196 291,196 291,197 291,197 291,198 291,199 291,200 291,200 291,201 291,202 291,203 291,204 292,205 292,206 292,207 292,208 292,209 292,210 292,211 292,213 292,214 292,215 292,216 292,217 292,218 293,219 293,220 293,220 293,221 293,222 293,222 293,222 293,223 293,223 293,223 293,223 293,223 293,223 294,223 294,223 294,222 294,222 294,222 294,222 294,222 294,222 294,222 294,222 294,222 294,222 294,222 295,222 295,222 295,222 295,222 295,222 295,221 295,221 295,221 295,221 295,221 295,221 295,221 295,220 295,220 296,220 296,219 296,219 296,219 296,218 296,218 296,218 296,218 296,217 296,217 296,216 296,216 296,215 297,215 297,215 297,214 297,214 297,213 297,213 297,212 297,212 297,212 297,211 297,211 297,210 297,210 298,210 298,209 298,209 298,208 298,208 298,208 298,207 298,207 298,207 298,206 298,206 298,205 298,205 299,204 299,204 299,204 299,203 299,203 299,202 299,202 299,202 299,201 299,201 299,201 299,200 299,200 300,200 300,199 300,199 300,199 300,198 300,198 300,198 300,198 300,197 300,197 300,197 300,197 300,197 301,197 301,197 301,197 301,197 301,197 301,196 301,196 301,196 301,196 301,196 301,196 301,196 301,197 302,197 302,197 302,198 302,198 302,198 302,198 302,199 302,199 302,200 302,200 302,201 302,201 302,201 303,202 303,202 303,202 303,203 303,203 303,203 303,203 303,203 303,204 303,204 303,203 303,203 303,203 304,203 304,202 304,202 304,201 304,201 304,200 304,199 304,199 304,198 304,198 304,197 304,197 304,196 305,196 305,196 305,195 305,195 305,194 305,194 305,194 305,193 305,193 305,192 305,192 305,192 305,191 306,191 306,191 306,191 306,191 306,190 306,190 306,190 306,189 306,189 306,189 306,189 306,188 306,188 307,188 307,187 307,187 307,187 307,187 307,186 307,186 307,186 307,185 307,185 307,185 307,184 307,184 308,184 308,184 308,183 308,183 308,183 308,183 308,182 308,182 308,182 308,182 308,182 308,181 308,181 309,181 309,181 309,181 309,181 309,181 309,181 309,181 309,181 309,181 309,181 309,182 309,182 309,182 310,182 310,182 310,182 310,183 310,183 310,183 310,183 310,184 310,184 310,184 310,185 310,185 310,185 311,186 311,186 311,186 311,187 311,187 311,187 311,187 311,188 311,188 311,189 311,189 311,189 311,190 312,190 312,190 312,190 312,190 312,190 312,189 312,189 312,189 312,188 312,187 312,187 312,186 312,186 313,185 313,185 313,185 313,185 313,184 313,184 313,183 313,183 313,182 313,181 313,181 313,180 313,180 314,179 314,179 314,178 314,177 314,177 314,176 314,176 314,176 314,176 314,175 314,175 314,175 314,174 315,174 315,174 315,174 315,173 315,173 315,173 315,173 315,173 315,173 315,173 315,173 315,173 315,173 316,173 316,174 316,174 316,175 316,176 316,177 316,178 316,178 316,179 316,180 316,181 316,182 316,183 317,183 317,184 317,185 317,186 317,187 317,188 317,188 317,189 317,190 317,191 317,192 317,193 317,194 318,195 318,196 318,197 318,198 318,199 318,200 318,201 318,202 318,202 318,203 318,204 318,204 318,205 319,205 319,205 319,205 319,204 319,204 319,203 319,202 319,201 319,200 319,199 319,199 319,198 319,198 320,197 320,197 320,196 320,196 320,195 320,195 320,195 320,194 320,194 320,193 320,193 320,192 320,192 321,191 321,191 321,191 321,191 321,190 321,190 321,190 321,189 321,189 321,188 321,188 321,188 321,187 322,187 322,187 322,186 322,186 322,185 322,185 322,185 322,185 322,184 322,184 322,184 322,184 322,184 323,184 323,184 323,184 323,184 323,184 323,184 323,184 323,184 323,184 323,184 323,185 323,185 323,186 324,186 324,186 324,186 324,187 324,186 324,186 324,185 324,185 324,184 324,184 324,183 324,183 324,183 325,183 325,183 325,183 325,183 325,183 325,183 325,183 325,183 325,184 325,184 325,184 325,184 325,184 326,185 326,185 326,185 326,185 326,186 326,186 326,187 326,187 326,187 326,187 326,188 326,188 326,189 327,189 327,190 327,190 327,191 327,191 327,191 327,191 327,191 327,190 327,190 327,189 327,188 327,187 328,186 328,186 328,185 328,184 328,183 328,183 328,182 328,181 328,180 328,180 328,179 328,178 328,177 329,177 329,176 329,176 329,175 329,175 329,174 329,174 329,173 329,173 329,172 329,172 329,171 329,171 330,171 330,170 330,170 330,169 330,169 330,169 330,169 330,169 330,169 330,169 330,169 330,168 330,168 331,168 331,168 331,168 331,168 331,168 331,168 331,168 331,168 331,168 331,168 331,169 331,169 331,169 332,170 332,170 332,170 332,171 332,172 332,172 332,173 332,174 332,174 332,175 332,175 332,176 332,176 333,177 333,177 333,177 333,178 333,178 333,178 333,179 333,179 333,179 333,180 333,180 333,180 333,180 334,180 334,180 334,180 334,181 334,181 334,181 334,182 334,182 334,182 334,182 334,182 334,183 334,183 335,183 335,183 335,183 335,183 335,184 335,184 335,184 335,184 335,185 335,185 335,185 335,185 335,186 336,186 336,186 336,185 336,185 336,185 336,184 336,184 336,183 336,183 336,183 336,182 336,182 336,182 337,181 337,181 337,181 337,181 337,181 337,180 337,180 337,180 337,180 337,180 337,180 337,180 337,181 338,181 338,181 338,182 338,182 338,182 338,183 338,183 338,183 338,183 338,184 338,184 338,184 338,184 339,184 339,185 339,185 339,185 339,185 339,185 339,185 339,185 339,185 339,185 339,185 339,185 339,184 340,184 340,184 340,184 340,184 340,184 340,184 340,184 340,183 340,183 340,183 340,183 340,183 340,182 341,182 341,182 341,182 341,182 341,182 341,181 341,181 341,181 341,181 341,181 341,180 341,180 341,180 342,179 342,179 342,178 342,178 342,178 342,177 342,177 342,176 342,176 342,176 342,175 342,175 342,175 343,175 343,175 343,175 343,175 343,175 343,175 343,175 343,175 343,175 343,175 343,175 343,175 343,176 344,176 344,176 344,176 344,176 344,176 344,176 344,176 344,176 344,176 344,176 344,176 344,176 344,176 345,176 345,176 345,175 345,175 345,175 345,174 345,174 345,174 345,174 345,175 345,175 345,176 345,176 346,176 346,177 346,177 346,177 346,178 346,178 346,178 346,179 346,179 346,179 346,179 346,180 346,180 347,181 347,181 347,182 347,183 347,184 347,184 347,185 347,185 347,185 347,186 347,187 347,187 347,188 348,188 348,189 348,189 348,190 348,190 348,190 348,190 348,190 348,190 348,190 348,190 348,189 348,189 349,188 349,188 349,188 349,188 349,188 349,188 349,188 349,188 349,188 349,188 349,188 349,188 349,188 350,188 350,188 350,188 350,188 350,188 350,188 350,188 350,188 350,188 350,187 350,187 350,187 350,187 351,187 351,187 351,187 351,187 351,188 351,188 351,188 351,188 351,188 351,188 351,188 351,189 351,189 352,189 352,190 352,190 352,191 352,191 352,191 352,192 352,192 352,192 352,192 352,192 352,192 352,192 353,192 353,193 353,193 353,194 353,194 353,194 353,194 353,194 353,195 353,195 353,195 353,196 353,196 354,196 354,197 354,197 354,197 354,197 354,197 354,198 354,198 354,198 354,199 354,199 354,199 354,199 355,199 355,200 355,200 355,200 355,201 355,201 355,201 355,201 355,201 355,201 355,201 355,201 355,202 356,202 356,201 356,201 356,201 356,201 356,201 356,201 356,201 356,200 356,200 356,200 356,199 356,199 357,198 357,198 357,198 357,198 357,197 357,197 357,196 357,196 357,195 357,195 357,194 357,194 357,193 358,192 358,192 358,191 358,191 358,191 358,190 358,190 358,189 358,189 358,188 358,188 358,187 358,187 359,187 359,187 359,186 359,185 359,185 359,185 359,184 359,185 359,184 359,184 359,184 359,183 359,183 360,182 360,182 360,181 360,181 360,180 360,179 360,179 360,178 360,177 360,177 360,176 360,175 360,175 361,174 361,173 361,172 361,171 361,171 361,170 361,169 361,169 361,168 361,167 361,166 361,165 361,165 362,164 362,163 362,163 362,162 362,161 362,161 362,160 362,160 362,160 362,160 362,160 362,160 362,160 363,160 363,160 363,160 363,160 363,160 363,160 363,160 363,160 363,160 363,160 363,160 363,159 363,159 364,159 364,159 364,159 364,159 364,159 364,159 364,159 364,159 364,159 364,159 364,159 364,159 364,159 365,159 365,159 365,159 365,159 365,159 365,159 365,159 365,159 365,159 365,158 365,158 365,158 365,158 366,158 366,158 366,158 366,158 366,158 366,157 366,158 366,159 366,159 366,160 366,161 366,161 366,162 367,163 367,163 367,162 367,162 367,161 367,161 367,161 367,160 367,160 367,160 367,160 367,161 367,161 368,161 368,162 368,162 368,162 368,162 368,162 368,163 368,163 368,163 368,163 368,163 368,163 368,163 369,163 369,163 369,163 369,164 369,164 369,165 369,165 369,165 369,166 369,166 369,166 369,167 369,167 370,168 370,168 370,168 370,168 370,168 370,168 370,169 370,169 370,169 370,169 370,169 370,169 370,170 371,170 371,170 371,169 371,169 371,169 371,169 371,169 371,169 371,169 371,168 371,168 371,168 371,168 372,167 372,167 372,166 372,166 372,166 372,166 372,166 372,166 372,166 372,166 372,166 372,166 372,167 373,167 373,167 373,167 373,167 373,168 373,168 373,168 373,168 373,168 373,168 373,169 373,169 373,169 374,169 374,169 374,169 374,169 374,169 374,169 374,169 374,169 374,169 374,169 374,169 374,169 374,169 375,169 375,170 375,171 375,172 375,173 375,174 375,174 375,175 375,175 375,176 375,176 375,177 375,177 376,177 376,177 376,177 376,177 376,178 376,178 376,178 376,178 376,178 376,178 376,178 376,178 376,178 377,178 377,178 377,178 377,178 377,177 377,177 377,177 377,177 377,178 377,178 377,179 377,179 377,180 378,181 378,182 378,183 378,184 378,185 378,186 378,186 378,186 378,187 378,187 378,188 378,188 378,188 379,188 379,188 379,188 379,189 379,189 379,190 379,190 379,191 379,191 379,191 379,191 379,191 379,191 380,190 380,190 380,189 380,189 380,188 380,188 380,188 380,188 380,188 380,188 380,188 380,188 380,188 381,188 381,188 381,188 381,189 381,189 381,189 381,189 381,189 381,189 381,189 381,189 381,189 381,189 382,189 382,189 382,189 382,189 382,189 382,189 382,189 382,189 382,190 382,190 382,191 382,192 382,192 383,193 383,194 383,195 383,196 383,196 383,196 383,197 383,197 383,198 383,199 383,199 383,199 383,199 384,200 384,200 384,200 384,200 384,200 384,200 384,201 384,201 384,202 384,202 384,203 384,204 384,204 385,205 385,206 385,206 385,207 385,207 385,208 385,208 385,208 385,209 385,209 385,209 385,210 385,210 386,210 386,210 386,211 386,211 386,211 386,211 386,211 386,211 386,211 386,211 386,211 386,211 386,211 387,211 387,211 387,211 387,210 387,210 387,210 387,211 387,211 387,210 387,210 387,210 387,209 387,208 388,208 388,207 388,207 388,207 388,207 388,207 388,208 388,208 388,208 388,208 388,208 388,209 388,209 389,209 389,209 389,209 389,209 389,209 389,209 389,209 389,209 389,210 389,210 389,210 389,210 389,210 390,211 390,211 390,211 390,212 390,212 390,213 390,213 390,213 390,213 390,213 390,213 390,213 390,213 391,213 391,213 391,213 391,213 391,213 391,213 391,214 391,214 391,214 391,214 391,214 391,214 391,214 392,214 392,214 392,214 392,214 392,214 392,213 392,213 392,213 392,213 392,212 392,212 392,212 392,212 393,212 393,212 393,212 393,212 393,212 393,211 393,211 393,211 393,211 393,211 393,211 393,211 393,212 394,212 394,212 394,212 394,212 394,212 394,212 394,212 394,212 394,213 394,213 394,213 394,213 394,213 395,213 395,213 395,213 395,213 395,213 395,213 395,212 395,212 395,212 395,212 395,211 395,211 395,211 396,211 396,211 396,211 396,211 396,211 396,211 396,210 396,210 396,210 396,209 396,209 396,209 396,209 397,209 397,208 397,208 397,208 397,208 397,207 397,207 397,207 397,207 397,207 397,207 397,207 397,207 398,206 398,206 398,206 398,206 398,206 398,206 398,206 398,205 398,206 398,206 398,206 398,206 398,206 399,205 399,205 399,206 399,206 399,206 399,205 399,205 399,205 399,204 399,204 399,204 399,204 399,203 400,203 400,203 400,203 400,204 400,204 400,204 400,204 400,204 400,204 400,204 400,203 400,203 400,203 401,203 401,202 401,203 401,203 401,203 401,203 401,203 401,203 401,203 401,203 401,203 401,203 401,203 402,203 402,203 402,203 402,203 402,203 402,203 402,203 402,203 402,202 402,202 402,202 402,202 402,202 403,202 403,202 403,201 403,201 403,201 403,201 403,201 403,200 403,200 403,200 403,200 403,200 403,200 403,200 404,200 404,200 404,200 404,200 404,200 404,200 404,200 404,199 404,199 404,199 404,199 404,198 404,199 405,199 405,199 405,199 405,199 405,199 405,199 405,199 405,198 405,198 405,198 405,198 405,198 405,198 406,198 406,198 406,198 406,198 406,198 406,198 406,198 406,198 406,198 406,199 406,200 406,201 406,202 407,202 407,201 407,201 407,200 407,200 407,200 407,199 407,199 407,198 407,198 407,197 407,197 407,196 408,196 408,196 408,196 408,196 408,196 408,196 408,195 408,195 408,195 408,195 408,195 408,195 408,194 409,194 409,194 409,194 409,194 409,193 409,193 409,193 409,193 409,193 409,193 409,192 409,192 409,191 410,191 410,191 410,190 410,190 410,189 410,189 410,189 410,188 410,188 410,188 410,187 410,187 410,187 411,186 411,186 411,186 411,186 411,185 411,185 411,185 411,185 411,185 411,185 411,184 411,185 411,185 412,185 412,185 412,184 412,184 412,184 412,184 412,184 412,184 412,184 412,184 412,183 412,183 412,182 413,182 413,181 413,180 413,180 413,178 413,177 413,176 413,175 413,174 413,173 413,173 413,172 413,171 414,170 414,170 414,169 414,168 414,167 414,167 414,166 414,165 414,165 414,164 414,164 414,163 414,163 415,162 415,162 415,161 415,160 415,160 415,160 415,160 415,161 415,161 415,161 415,161 415,162 415,162 416,162 416,162 416,162 416,162 416,162 416,162 416,162 416,162 416,161 416,160 416,160 416,159 416,159 417,159 417,160 417,160 417,160 417,161 417,161 417,162 417,162 417,163 417,163 417,164 417,164 417,165 418,166 418,166 418,166 418,166 418,166 418,166 418,165 418,165 418,165 418,164 418,163 418,162 418,162 419,161 419,161 419,161 419,160 419,160 419,160 419,159 419,159 419,158 419,158 419,158 419,157 419,157 420,156 420,156 420,156 420,155 420,155 420,154 420,153 420,153 420,152 420,152 420,151 420,151 420,150 421,150 421,150 421,149 421,149 421,149 421,148 421,148 421,147 421,147 421,146 421,146 421,147 421,147 422,147 422,147 422,147 422,147 422,147 422,146 422,146 422,146 422,146 422,146 422,146 422,146 422,145 423,145 423,145 423,145 423,145 423,145 423,144 423,144 423,144 423,144 423,143 423,143 423,143 423,143 424,143 424,142 424,142 424,141 424,141 424,141 424,141 424,141 424,141 424,141 424,141 424,141 424,142 425,143 425,144 425,145 425,146 425,146 425,147 425,148 425,149 425,149 425,150 425,150 425,151 425,151 426,151 426,151 426,151 426,151 426,151 426,150 426,150 426,149 426,149 426,148 426,149 426,149 426,149 427,149 427,149 427,149 427,149 427,149 427,149 427,149 427,149 427,149 427,149 427,149 427,149 427,150 428,150 428,151 428,152 428,153 428,154 428,155 428,156 428,157 428,157 428,157 428,158 428,158 428,158 429,158 429,158 429,158 429,158 429,157 429,157 429,157 429,156 429,156 429,155 429,155 429,154 429,154 430,153 430,153 430,152 430,152 430,152 430,152 430,152 430,151 430,151 430,151 430,151 430,151 430,152 431,152 431,151 431,151 431,151 431,151 431,150 431,149 431,148 431,147 431,146 431,146 431,145 431,144 432,143 432,143 432,142 432,142 432,141 432,140 432,139 432,139 432,138 432,137 432,137 432,136 432,136 433,136 433,136 433,136 433,136 433,135 433,135 433,135 433,135 433,135 433,135 433,134 433,134 433,134 434,134 434,134 434,134 434,134 434,134 434,134 434,134 434,134 434,134 434,134 434,134 434,134 434,134 435,134 435,134 435,134 435,134 435,134 435,134 435,134 435,134 435,134 435,134 435,134 435,134 435,134 436,134 436,134 436,134 436,134 436,134 436,134 436,134 436,134 436,134 436,134 436,134 436,134 436,134 437,135 437,135 437,135 437,135 437,135 437,135 437,136 437,136 437,136 437,136 437,136 437,136 437,136 438,137 438,137 438,137 438,137 438,137 438,138 438,138 438,138 438,138 438,139 438,139 438,139 438,140 439,140 439,141 439,141 439,142 439,143 439,144 439,145 439,146 439,146 439,146 439,147 439,149 439,150 440,151 440,153 440,155 440,157 440,157 440,158 440,158 440,158 440,159 440,159 440,159 440,159 440,160 441,161 441,161 441,162 441,162 441,163 441,164 441,164 441,164 441,165 441,166 441,166 441,167 441,169 442,170 442,171 442,171 442,172 442,173 442,173 442,171 442,170 442,170 442,169 442,168 442,167 442,166 443,165 443,164 443,162 443,161 443,160 443,159 443,158 443,156 443,155 443,154 443,153 443,153 443,152 444,151 444,150 444,149 444,148 444,148 444,148 444,149 444,148 444,148 444,147 444,146 444,147 444,148 445,149 445,150 445,150 445,151 445,151 445,151 445,152 445,152 445,152 445,152 445,153 445,153 445,153 446,153 446,154 446,154 446,154 446,154 446,155 446,155 446,155 446,156 446,156 446,157 446,158 446,159 447,160 447,160 447,160 447,160 447,160 447,160 447,161 447,161 447,161 447,161 447,161 447,161 447,161 448,161 448,161 448,160 448,160 448,159 448,160 448,160 448,160 448,160 448,160 448,160 448,160 448,160 449,160 449,160 449,160 449,160 449,160 449,161 449,161 449,162 449,163 449,164 449,166 449,167 449,169 450,170 450,171 450,171 450,172 450,172 450,172 450,172 450,172 450,172 450,172 450,172 450,172 450,173 451,172 451,172 451,172 451,171 451,171 451,171 451,171 451,171 451,171 451,171 451,170 451,170 451,170 452,170 452,170 452,170 452,170 452,170 452,169 452,169 452,170 452,170 452,170 452,171 452,171 452,172 453,172 453,173 453,174 453,174 453,175 453,176 453,176 453,176 453,177 453,177 453,178 453,178 453,178 454,178 454,178 454,178 454,178 454,178 454,178 454,178 454,178 454,178 454,178 454,178 454,177 454,177 455,177 455,177 455,177 455,176 455,176 455,176 455,175 455,175 455,175 455,174 455,174 455,173 455,173 456,173 456,172 456,172 456,172 456,171 456,171 456,170 456,170 456,170 456,169 456,169 456,168 456,168 457,167 457,167 457,166 457,166 457,166 457,165 457,165 457,165 457,165 457,164 457,164 457,164 457,164 458,164 458,164 458,163 458,163 458,163 458,163 458,164 458,164 458,164 458,164 458,164 458,165 458,165 459,165 459,166 459,166 459,167 459,167 459,167 459,168 459,168 459,169 459,169 459,169 459,170 459,170 460,170 460,171 460,171 460,171 460,171 460,172 460,172 460,172 460,172 460,173 460,173 460,173 460,174 461,174 461,174 461,175 461,175 461,176 461,176 461,177 461,178 461,178 461,179 461,179 461,180 461,180 462,181 462,181 462,181 462,182 462,182 462,183 462,183 462,184 462,184 462,184 462,185 462,185 462,186 463,186 463,187 463,187 463,187 463,188 463,188 463,188 463,189 463,189 463,190 463,190 463,190 463,190 464,191 464,191 464,191 464,192 464,192 464,192 464,193 464,193 464,193 464,194 464,194 464,194 464,195 465,195 465,195 465,196 465,196 465,196 465,197 465,197 465,197 465,197 465,198 465,198 465,198 465,198 466,198 466,198 466,198 466,198 466,198 466,198 466,199 466,199 466,199 466,199 466,199 466,199 466,199 467,199 467,199 467,200 467,200 467,199 467,199 467,199 467,199 467,199 467,199 467,199 467,199 467,199 468,199 468,199 468,199 468,199 468,199 468,199 468,199 468,199 468,200 468,200 468,200 468,200 468,199 469,199 469,199 469,198 469,198 469,198 469,198 469,198 469,198 469,198 469,198 469,198 469,198 469,198 470,198 470,198 470,198 470,198 470,197 470,197 470,197 470,197 470,197 470,197 470,197 470,197 470,197 471,196 471,196 471,196 471,196 471,196 471,195 471,195 471,195 471,195 471,195 471,195 471,195 471,195 472,194 472,194 472,194 472,194 472,194 472,194 472,194 472,194 472,194 472,193 472,193 472,193 472,193 473,193 473,193 473,193 473,192 473,192 473,192 473,192 473,192 473,192 473,192 473,192 473,192 473,192 474,192 474,191 474,191 474,191 474,191 474,191 474,191 474,191 474,191 474,190 474,190 474,190 474,190 475,190 475,189 475,189 475,189 475,189 475,189 475,188 475,188 475,188 475,188 475,188 475,187 475,187 476,187 476,187 476,187 476,187 476,186 476,186 476,186 476,186 476,186 476,185 476,185 476,185 476,185 477,185 477,185 477,184 477,184 477,184 477,184 477,184 477,183 477,183 477,183 477,183 477,182 477,182 478,182 478,182 478,182 478,181 478,181 478,181 478,181 478,181 478,181 478,180 478,180 478,180 478,180 479,179 479,179 479,179 479,179 479,179 479,178 479,178 479,178 479,178 479,177 479,177 479,177 479,177 480,176 480,176 480,176 480,176 480,176 480,176 480,176 480,176 480,176 480,176 480,175 480,175 480,175 481,175 481,175 481,175 481,175 481,175 481,175 481,175 481,175 481,175 481,175 481,175 481,175 481,175 482,175 482,174 482,174 482,174 482,175 482,175 482,174 482,174 482,174 482,174 482,174 482,174 482,174 483,174 483,175 483,174 483,174 483,174 483,174 483,175 483,175 483,175 483,175 483,175 483,175 483,175 484,175 484,176 484,176 484,176 484,176 484,177 484,177 484,177 484,177 484,177 484,177 484,177 484,177 485,177 485,177 485,177 485,177 485,176 485,176 485,176 485,176 485,176 485,176 485,175 485,175 485,175 486,174 486,174 486,174 486,173 486,173 486,173 486,173 486,173 486,173 486,173 486,172 486,172 486,172 487,171 487,171 487,171 487,170 487,170 487,170 487,170 487,169 487,169 487,169 487,169 487,169 487,169 488,169 488,169 488,169 488,170 488,170 488,170 488,170 488,170 488,171 488,171 488,171 488,172 488,172 489,172 489,172 489,172 489,173 489,173 489,173 489,173 489,174 489,174 489,174 489,174 489,174 489,174 490,174 490,174 490,174 490,174 490,173 490,173 490,173 490,173 490,172 490,172 490,172 490,171 490,171 491,171 491,171 491,170 491,170 491,170 491,170 491,170 491,170 491,170 491,169 491,169 491,169 491,169 492,169 492,168 492,168 492,168 492,168 492,168 492,167 492,167 492,167 492,167 492,166 492,166 492,166 493,166 493,166 493,166 493,166 493,166 493,166 493,166 493,166 493,166 493,166 493,166 493,166 493,166 494,167 494,167 494,167 494,167 494,167 494,167 494,167 494,167 494,167 494,167 494,166 494,166 494,166 495,166 495,165 495,165 495,165 495,164 495,164 495,164 495,164 495,164 495,164 495,163 495,163 495,163 496,163 496,163 496,163 496,163 496,163 496,163 496,162 496,162 496,162 496,162 496,162 496,162 496,162 497,162 497,162 497,162 497,162 497,162 497,162 497,162 497,162 497,162 497,162 497,162 497,162 497,162 498,162 498,162 498,162 498,162 498,162 498,162 498,162 498,162 498,162 498,162 498,161 498,161 498,161 499,161 499,161 499,161 499,161 499,161 499,161 499,161 499,160 499,160 499,160 499,160 499,160 499,160 500,159 500,159 500,159 500,159 500,159 500,158 500,158 500,158 500,158 500,157 500,157 500,157 500,157 501,157 501,156 501,156 501,156 501,156 501,156 501,156 501,156 501,156 501,156 501,156 501,156 501,156 502,156 502,156 502,156 502,156 502,156 502,156 502,156 502,155 502,155 502,155 502,155 502,155 502,155 503,154 503,154 503,154 503,154 503,154 503,154 503,153 503,153 503,153 503,153 503,153 503,152 503,152 504,152 504,152 504,152 504,152 504,152 504,152 504,152 504,152 504,152 504,152 504,153 504,153 504,153 505,153 505,154 505,154 505,154 505,154 505,155 505,155 505,155 505,156 505,156 505,156 505,157 505,157 506,157 506,158 506,158 506,159 506,159 506,160 506,160 506,160 506,161 506,161 506,161 506,162 506,162 507,162 507,163 507,163 507,163 507,163 507,164 507,164 507,164 507,164 507,165 507,165 507,165 507,165 508,165 508,166 508,166 508,166 508,166 508,167 508,167 508,167 508,167 508,167 508,167 508,168 508,168 509,168 509,168 509,168 509,169 509,169 509,169 509,169 509,169 509,169 509,169 509,169 509,169 509,169 510,169 510,169 510,169 510,169 510,169 510,168 510,168 510,167 510,166 510,166 510,166 510,165 510,165 510,165 511,164 511,164 511,163 511,163 511,162 511,161 511,161 511,160 511,160 511,159 511,159 511,158 511,158 512,157 512,157 512,157 512,156 512,156 512,156 512,155 512,155 512,155 512,155 512,155 512,155 512,155 513,156 513,156 513,156 513,156 513,156 513,156 513,157 513,157 513,157 513,157 513,158 513,158 513,158 514,158 514,157 514,157 514,157 514,157 514,156 514,156 514,156 514,156 514,155 514,155 514,155 514,155 515,154 515,154 515,154 515,153 515,153 515,152 515,152 515,151 515,151 515,151 515,150 515,150 515,150 516,150 516,150 516,149 516,149 516,149 516,149 516,148 516,148 516,148 516,147 516,147 516,146 516,146 517,146 517,145 517,145 517,145 517,144 517,144 517,144 517,144 517,144 517,144 517,144 517,144 517,144 518,144 518,144 518,144 518,145 518,145 518,145 518,145 518,145 518,145 518,146 518,146 518,146 518,146 519,146 519,146 519,145 519,145 519,146 519,146 519,146 519,146 519,145 519,145 519,145 519,144 519,145 520,145 520,145 520,145 520,145 520,145 520,145 520,145 520,145 520,145 520,145 520,145 520,145 520,145 521,145 521,145 521,146 521,146 521,147 521,147 521,147 521,147 521,147 521,147 521,147 521,147 521,147 522,147 522,146 522,146 522,145 522,145 522,144 522,143 522,142 522,142 522,141 522,140 522,141 522,140 523,140 523,140 523,139 523,139 523,139 523,139 523,139 523,139 523,139 523,139 523,139 523,139 523,138 524,138 524,138 524,138 524,138 524,138 524,138 524,138 524,138 524,138 524,138 524,138 524,137 524,137 525,136 525,135 525,135 525,134 525,133 525,133 525,132 525,132 525,131 525,130 525,129 525,129 525,128 526,127 526,126 526,126 526,125 526,125 526,125 526,125 526,125 526,125 526,125 526,125 526,125 526,125 527,125 527,125 527,125 527,125 527,125 527,125 527,125 527,125 527,125 527,125 527,125 527,126 527,126 528,126 528,126 528,126 528,127 528,127 528,127 528,127 528,128 528,128 528,129 528,129 528,130 528,130 529,130 529,131 529,132 529,132 529,132 529,133 529,133 529,134 529,134 529,135 529,135 529,136 529,137 530,137 530,138 530,138 530,139 530,139 530,140 530,141 530,141 530,141 530,142 530,142 530,142 530,143 531,143 531,144 531,144 531,145 531,146 531,146 531,147 531,148 531,149 531,150 531,151 531,150 531,150 532,150 532,150 532,150 532,151 532,151 532,151 532,151 532,151 532,151 532,151 532,151 532,151 532,151 533,151 533,151 533,151 533,151 533,151 533,151 533,152 533,152 533,152 533,152 533,153 533,153 533,153 534,154 534,154 534,154 534,155 534,155 534,156 534,156 534,157 534,157 534,157 534,158 534,158 534,158 535,158 535,159 535,159 535,159 535,159 535,159 535,159 535,159 535,159 535,159 535,160 535,160 535,161 536,161 536,162 536,162 536,163 536,163 536,164 536,164 536,165 536,165 536,166 536,166 536,167 536,167 537,168 537,168 537,168 537,168 537,169 537,169 537,169 537,170 537,170 537,170 537,170 537,170 537,171 538,171 538,171 538,171 538,171 538,172 538,172 538,172 538,172 538,173 538,173 538,173 538,173 538,173 539,173 539,173 539,174 539,174 539,174 539,174 539,174 539,174 539,174 539,175 539,175 539,175 539,175 540,175 540,175 540,175 540,175 540,176 540,176 540,176 540,176 540,175 540,175 540,175 540,175 540,175 541,175 541,175 541,175 541,175 541,175 541,175 541,175 541,175 541,175 541,175 541,174 541,174 541,174 542,174 542,174 542,174 542,174 542,173 542,173 542,173 542,173 542,173 542,173 542,173 542,173 542,173 543,172 543,172 543,172 543,172 543,172 543,172 543,172 543,172 543,172 543,172 543,172 543,172 543,172 544,172 544,172 544,171 544,171 544,171 544,171 544,171 544,171 544,171 544,171 544,171 544,171 544,171 545,171 545,171 545,171 545,170 545,170 545,170 545,170 545,170 545,170 545,170 545,170 545,170 545,170 546,170 546,170 546,170 546,170 546,170 546,170 546,170 546,170 546,170 546,170 546,171 546,171 546,171 547,171 547,172 547,172 547,172 547,172 547,172 547,172 547,173 547,173 547,173 547,173 547,173 547,173 548,173 548,173 548,173 548,173 548,173 548,173 548,173 548,173 548,172 548,172 548,172 548,172 548,172 549,172 549,172 549,172 549,172 549,171 549,171 549,171 549,171 549,170 549,170 549,170 549,170 549,169 550,169 550,169 550,169 550,169 550,168 550,168 550,168 550,168 550,168 550,168 550,168 550,168 550,168 551,168 551,168 551,168 551,168 551,168 551,168 551,168 551,168 551,168 551,168 551,168 551,168 551,168 552,168 552,168 552,168 552,168 552,168 552,168 552,168 552,168 552,168 552,168 552,168 552,168 552,168 553,168 553,167 553,167 553,167 553,167 553,167 553,166 553,166 553,166 553,166 553,165 553,165 553,165 554,164 554,164 554,163 554,163 554,163 554,162 554,162 554,162 554,162 554,161 554,161 554,161 554,160 555,160 555,160 555,160 555,160 555,160 555,160 555,160 555,160 555,161 555,161 555,161 555,161 555,161 556,161 556,161 556,161 556,161 556,161 556,161 556,161 556,161 556,161 556,161 556,160 556,160 556,160 557,160 557,160 557,160 557,160 557,160 557,160 557,160 557,160 557,160 557,160 557,160 557,161 557,161 558,161 558,161 558,161 558,161 558,161 558,161 558,161 558,161 558,161 558,161 558,161 558,161 558,161 559,161 559,161 559,161 559,161 559,161 559,161 559,161 559,161 559,161 559,161 559,160 559,160 559,160 560,160 560,160 560,160 560,160 560,160 560,160 560,160 560,160 560,160 560,159 560,159 560,159 560,159 561,159 561,159 561,159 561,158 561,158 561,158 561,158 561,158 561,158 561,157 561,157 561,157 561,157 562,157 562,156 562,156 562,156 562,156 562,156 562,156 562,156 562,156 562,156 562,156 562,156 562,156 563,156 563,156 563,156 563,157 563,157 563,157 563,157 563,157 563,157 563,157 563,157 563,157 563,157 564,157 564,156 564,156 564,156 564,156 564,156 564,156 564,156 564,156 564,156 564,156 564,156 564,155 565,155 565,155 565,155 565,155 565,155 565,155 565,155 565,155 565,155 565,155 565,155 565,155 565,155 566,155 566,154 566,154 566,154 566,154 566,154 566,154 566,154 566,153 566,153 566,153 566,153 566,153 567,153 567,153 567,152 567,152 567,152 567,152 567,152 567,152 567,152 567,151 567,151 567,151 567,151 568,151 568,151 568,151 568,151 568,150 568,150 568,150 568,150 568,150 568,150 568,150 568,150 568,150 569,150 569,150 569,150 569,150 569,149 569,149 569,149 569,149 569,149 569,149 569,149 569,149 569,149 570,148 570,148 570,148 570,148 570,148 570,148 570,148 570,147 570,147 570,147 570,147 570,147 570,147 571,147 571,146 571,146 571,146 571,147 571,147 571,147 571,147 571,146 571,146 571,146 571,146 571,146 572,146 572,146 572,147 572,146 572,146 572,146 572,147 572,147 572,147 572,147 572,147 572,147 572,147 573,147 573,147 573,147 573,148 573,148 573,148 573,148 573,148 573,149 573,149 573,150 573,151 573,152 574,152 574,152 574,153 574,152 574,153 574,153 574,153 574,153 574,153 574,153 574,154 574,154 574,154 575,154 575,154 575,155 575,155 575,155 575,155 575,155 575,155 575,156 575,156 575,156 575,156 575,156 576,156 576,156 576,156 576,156 576,156 576,156 576,156 576,156 576,156 576,156 576,156 576,156 576,156 577,156 577,156 577,157 577,157 577,157 577,157 577,157 577,158 577,158 577,158 577,158 577,158 577,158 578,158 578,158 578,158 578,158 578,158 578,158 578,159 578,159 578,159 578,159 578,159 578,159 578,159 579,159 579,158 579,158 579,158 579,158 579,158 579,158 579,158 579,158 579,158 579,158 579,159 579,159 580,159 580,159 580,159 580,159 580,160 580,160 580,160 580,161 580,161 580,162 580,162 580,163 580,163 581,163 581,163 581,163 581,163 581,163 581,163 581,163 581,163 581,163 581,162 581,162 581,161 581,161 582,161 582,160 582,160 582,160 582,159 582,159 582,159 582,158 582,158 582,157 582,157 582,156 582,156 583,155 583,155 583,154 583,154 583,153 583,153 583,152 583,152 583,151 583,150 583,150 583,149 583,148 584,148 584,148 584,148 584,148 584,148 584,148 584,148 584,149 584,149 584,149 584,149 584,149 584,150 585,150 585,150 585,151 585,151 585,151 585,151 585,152 585,152 585,152 585,153 585,153 585,153 585,153 586,154 586,154 586,154 586,155 586,155 586,155 586,156 586,156 586,157 586,157 586,158 586,158 586,159 587,159 587,160 587,160 587,161 587,162 587,162 587,163 587,164 587,165 587,165 587,166 587,167 587,167 588,168 588,169 588,169 588,170 588,170 588,171 588,171 588,171 588,171 588,171 588,171 588,170 588,170 589,170 589,170 589,170 589,170 589,170 589,170 589,170 589,170 589,170 589,170 589,170 589,170 589,170 590,170 590,170 590,170 590,170 590,170 590,170 590,170 590,170 590,170 590,170 590,170 590,170 590,170 591,170 591,170 591,170 591,170 591,170 591,170 591,169 591,169 591,169 591,169 591,169 591,169 591,169 592,169 592,169 592,169 592,169 592,169 592,169 592,169 592,169 592,169 592,169 592,169 592,168 592,168 593,168 593,168 593,168 593,168 593,168 593,167 593,167 593,167 593,167 593,167 593,167 593,167 593,167 594,167 594,167 594,167 594,167 594,167 594,167 594,167 594,167 594,167 594,167 594,167 594,167 594,166 595,166 595,166 595,166 595,166 595,166 595,166 595,166 595,166 595,165 595,165 595,165 595,165 595,165 596,164 596,164 596,164 596,164 596,164 596,164 596,164 596,163 596,163 596,163 596,163 596,163 596,163 597,163 597,162 597,162 597,162 597,162 597,162 597,162 597,162 597,161 597,161 597,161 597,161 597,160 598,160 598,160 598,160 598,160 598,159 598,159 598,159 598,159 598,159 598,159 598,159 598,158 598,158 599,158 599,158 599,158 599,158 599,158 599,157 599,157 599,157 599,157 599,157 599,157 599,157 599,157 600,158 600,158 600,158 600,158 600,158 600,158 600,158 600,158 600,158 600,159 600,159 600,159 600,159 601,159 601,160 601,160 601,160 601,160 601,160 601,161 601,161 601,161 601,161 601,161 601,161 601,161 602,161 602,160 602,160 602,160 602,160 602,160 602,160 602,160 602,160 602,159 602,159 602,159 602,159 603,159 603,158 603,158 603,158 603,158 603,159 603,159 603,159 603,159 603,159 603,159 603,159 603,160 604,160 604,160 604,160 604,160 604,160 604,161 604,161 604,161 604,161 604,161 604,162 604,162 604,162 605,162 605,162 605,162 605,162 605,162 605,162 605,162 605,162 605,162 605,162 605,163 605,163 605,163 606,163 606,163 606,163 606,163 606,163 606,163 606,163 606,163 606,163 606,163 606,163 606,163 606,163 607,163 607,163 607,163 607,163 607,162 607,162 607,162 607,162 607,162 607,162 607,161 607,161 607,161 608,161 608,161 608,161 608,161 608,161 608,161 608,161 608,161 608,161 608,160 608,160 608,160 608,160 609,160 609,160 609,160 609,159 609,159 609,159 609,159 609,159 609,158 609,158 609,158 609,158 609,158 610,157 610,157 610,157 610,157 610,157 610,157 610,157 610,157 610,157 610,157 610,156 610,156 610,157 611,157 611,157 611,157 611,157 611,157 611,157 611,157 611,157 611,157 611,158 611,158 611,158 611,158 612,158 612,158 612,158 612,159 612,159 612,159 612,159 612,159 612,159 612,159 612,159 612,159 612,159 613,159 613,159 613,159 613,159 613,159 613,159 613,159 613,159 613,159 613,159 613,159 613,159 613,159 614,158 614,158 614,158 614,158 614,158 614,158 614,158 614,157 614,157 614,157 614,157 614,157 614,157 615,157 615,157 615,157 615,156 615,156 615,156 615,156 615,156 615,156 615,156 615,156 615,156 615,155 616,155 616,155 616,155 616,154 616,154 616,154 616,154 616,154 616,154 616,154 616,154 616,154 616,154 617,153 617,153 617,153 617,153 617,153 617,153 617,153 617,153 617,154 617,154 617,154 617,154 617,154 617,154 618,155 618,155 618,155 618,156 618,156 618,156 618,156 618,156 618,156 618,156 618,156 618,156 618,156 619,156 619,156 619,155 619,155 619,155 619,155 619,155 619,155 619,155 619,155 619,154 619,154 619,154 620,154 620,153 620,153 620,153 620,153 620,152 620,152 620,152 620,152 620,152 620,151 620,151 620,151 621,151 621,151 621,151 621,151 621,150 621,150 621,150 621,150 621,149 621,149 621,149 621,148 621,148 622,148 622,147 622,147 622,147 622,146 622,146 622,146 622,146 622,145 622,145 622,145 622,144 622,144 623,144 623,143 623,143 623,143 623,142 623,142 623,142 623,141 623,141 623,140 623,140 623,139 623,139 624,139 624,139 624,139 624,139 624,139 624,139 624,138 624,138 624,138 624,138 624,138 624,138 624,138 625,138 625,138 625,138 625,138 625,138 625,138 625,138 625,138 625,138 625,138 625,138 625,138 625,139 626,139 626,139 626,139 626,140 626,140 626,140 626,140 626,141 626,141 626,141 626,142 626,142 626,143 627,143 627,144 627,144 627,144 627,145 627,145 627,145 627,145 627,146 627,146 627,146 627,147 627,147 628,147 628,148 628,148 628,148 628,148 628,148 628,149 628,149 628,149 628,149 628,149 628,149 628,149 629,149 629,149 629,149 629,149 629,149 629,149 629,149 629,149 629,149 629,149 629,149 629,149 629,149 630,149 630,149 630,148 630,148 630,148 630,148 630,148 630,148 630,148 630,147 630,147 630,147 630,147 631,147 631,147 631,147 631,147 631,147 631,147 631,147 631,147 631,147 631,147 631,147 631,147 631,147 632,147 632,147 632,146 632,146 632,146 632,146 632,146 632,146 632,146 632,146 632,146 632,146 632,146 633,147 633,147 633,147 633,147 633,147 633,147 633,147 633,147 633,146 633,146 633,146 633,146 633,146 634,146 634,146 634,146 634,146 634,146 634,146 634,146 634,147 634,147 634,147 634,147 634,147 634,148 635,148 635,148 635,148 635,149 635,149 635,149 635,149 635,150 635,150 635,150 635,150 635,150 635,150 636,150 636,150 636,150 636,150 636,149 636,149 636,149 636,149 636,149 636,149 636,149 636,149 636,149 637,149 637,149 637,149 637,149 637,149 637,149 637,149 637,149 637,149 637,148 637,148 637,148 637,148 638,147 638,147 638,147 638,147 638,147 638,147 638,147 638,147 638,147 638,147 638,147 638,147 638,147 639,147 639,146 639,146 639,146 639,146 639,146 639,146 639,145 639,145 639,145 639,145 639,145 639,145 640,145 640,145 640,145 640,144 640,144 640,144 640,144 640,144 640,144 640,144 640,144 640,143 640,143 641,143 641,143 641,143 641,143 641,143 641,144 641,144 641,144 641,143 641,143 641,143 641,143 641,143 642,142 642,142 642,142 642,142 642,142 642,142 642,142 642,142 642,141 642,141 642,141 642,141 642,141 643,141 643,141 643,140 643,140 643,140 643,140 643,140 643,140 643,139 643,139 643,139 643,139 643,139 644,139 644,138 644,138 644,138 644,137 644,137 644,137 644,137 644,137 644,136 644,136 644,136 644,136 645,136 645,136 645,135 645,135 645,135 645,135 645,135 645,136 645,136 645,136 645,136 645,136 645,136 646,136 646,136 646,136 646,136 646,136 646,136 646,136 646,136 646,137 646,137 646,137 646,137 646,137 647,137 647,138 647,138 647,138 647,138 647,138 647,138 647,138 647,138 647,138 647,138 647,139 647,139 648,139 648,139 648,139 648,139 648,139 648,139 648,139 648,139 648,139 648,139 648,139 648,139 648,139 649,139 649,139 649,139 649,139 649,140 649,140 649,140 649,140 649,140 649,140 649,140 649,140 649,141 650,141 650,141 650,141 650,141 650,141 650,141 650,142 650,142 650,142 650,142 650,142 650,142 650,142 651,142 651,142 651,142 651,142 651,142 651,142 651,142 651,143 651,143 651,143 651,143 651,143 651,143 652,143 652,142 652,142 652,141 652,141 652,141 652,141 652,141 652,141 652,141 652,141 652,141 652,140 653,140 653,139 653,139 653,139 653,139 653,139 653,139 653,139 653,139 653,139 653,139 653,139 653,139 654,139 654,139 654,139 654,139 654,140 654,140 654,140 654,140 654,141 654,141 654,141 654,141 654,141 655,141 655,142 655,142 655,142 655,142 655,142 655,142 655,141 655,141 655,141 655,141 655,141 655,141 656,141 656,141 656,141 656,141 656,141 656,141 656,141 656,141 656,141 656,141 656,141 656,141 656,141 657,141 657,142 657,142 657,142 657,142 657,142 657,142 657,142 657,142 657,142 657,142 657,142 657,142 658,143 658,143 658,143 658,143 658,143 658,143 658,143 658,143 658,143 658,143 658,143 658,143 658,143 659,143 659,143 659,143 659,143 659,142 659,142 659,142 659,142 659,142 659,142 659,142 659,142 659,142 660,142 660,142 660,142 660,142 660,142 660,142 660,142 660,141 660,141 660,141 660,141 660,141 660,141 661,141 661,142 661,142 661,141 661,141 661,141 661,141 661,141 661,141 661,141 661,141 661,140 661,140 662,140 662,140 662,140 662,140 662,140 662,140 662,140 662,140 662,140 662,140 662,140 662,140 662,139 663,139 663,139 663,139 663,139 663,139 663,139 663,139 663,138 663,138 663,138 663,138 663,138 663,138 664,137 664,137 664,136 664,136 664,136 664,136 664,136 664,136 664,136 664,136 664,135 664,135 664,134 665,134 665,133 665,133 665,132 665,132 665,131 665,131 665,131 665,131 665,131 665,131 665,130 665,131 666,131 666,131 666,131 666,131 666,131 666,131 666,131 666,131 666,131 666,130 666,130 666,130 666,130 667,130 667,131 667,131 667,131 667,131 667,131 667,132 667,132 667,133 667,133 667,133 667,133 667,133 668,133 668,133 668,134 668,134 668,134 668,134 668,134 668,135 668,135 668,135 668,135 668,135 668,136 669,136 669,136 669,136 669,136 669,136 669,136 669,136 669,136 669,137 669,137 669,137 669,137 669,137 670,137 670,137 670,137 670,137 670,137 670,137 670,138 670,138 670,138 670,138 670,138 670,138 670,138 671,138 671,138 671,138 671,138 671,138 671,137 671,137 671,137 671,137 671,137 671,137 671,137 671,137 672,137 672,137 672,137 672,137 672,138 672,138 672,138 672,138 672,138 672,138 672,139 672,139 672,139 673,139 673,139 673,139 673,140 673,140 673,140 673,140 673,140 673,140 673,140 673,140 673,141 673,141 674,141 674,141 674,141 674,142 674,142 674,142 674,142 674,142 674,142 674,142 674,142 674,142 674,142 675,142 675,142 675,142 675,142 675,142 675,142 675,142 675,142 675,142 675,142 675,142 675,142 675,142 676,142 676,142 676,142 676,142 676,142 676,142 676,142 676,142 676,142 676,141 676,141 676,141 676,141 677,141 677,141 677,141 677,141 677,141 677,141 677,141 677,141 677,140 677,140 677,140 677,140 677,140 678,139 678,139 678,139 678,139 678,139 678,139 678,138 678,138 678,138 678,138 678,138 678,138 678,137 679,137 679,137 679,137 679,137 679,137 679,137 679,137 679,137 679,137 679,137 679,136 679,136 679,136 680,136 680,136 680,136 680,136 680,135 680,135 680,135 680,135 680,135 680,134 680,134 680,134 680,134 681,134 681,134 681,134 681,134 681,134 681,134 681,134 681,134 681,134 681,134 681,134 681,134 681,134 682,134 682,134 682,134 682,134 682,134 682,134 682,134 682,134 682,133 682,133 682,133 682,133 682,133 683,133 683,133 683,133 683,133 683,133 683,133 683,133 683,132 683,132 683,132 683,132 683,132 683,132 684,131 684,131 684,131 684,131 684,130 684,130 684,130 684,130 684,130 684,129 684,129 684,129 684,129 685,129 685,128 685,128 685,128 685,128 685,128 685,127 685,127 685,127 685,127 685,127 685,127 685,127 686,127 686,127 686,128 686,128 686,128 686,128 686,128 686,128 686,129 686,129 686,129 686,129 686,129 687,129 687,129 687,129 687,128 687,128 687,128 687,128 687,128 687,128 687,127 687,128 687,128 687,128 688,128 688,128 688,128 688,129 688,129 688,129 688,129 688,129 688,129 688,129 688,130 688,130 688,130 689,130 689,130 689,131 689,131 689,131 689,131 689,131 689,131 689,131 689,131 689,132 689,132 689,132 690,132 690,132 690,132 690,133 690,133 690,133 690,133 690,133 690,134 690,134 690,134 690,134 690,134 691,134 691,135 691,135 691,135 691,135 691,135 691,135 691,135 691,136 691,136 691,136 691,136 691,137 692,137 692,137 692,137 692,138 692,138 692,138 692,139 692,139 692,140 692,140 692,140 692,140 692,141 693,141 693,141 693,142 693,142 693,142 693,143 693,143 693,143 693,143 693,144 693,144 693,144 693,144 694,144 694,145 694,145 694,145 694,145 694,145 694,145 694,146 694,146 694,146 694,146 694,147 694,147 695,147 695,148 695,148 695,148 695,148 695,148 695,149 695,149 695,149 695,149 695,149 695,149 695,149 696,150 696,150 696,150 696,150 696,150 696,150 696,151 696,151 696,151 696,151 696,152 696,152 696,152 697,152 697,153 697,153 697,153 697,153 697,154 697,155 697,155 697,156 697,156 697,156 697,156 697,156 698,156 698,156 698,156 698,156 698,156 698,156 698,156 698,156 698,156 698,156 698,156 698,155 698,155 699,155 699,154 699,153 699,153 699,152 699,152 699,151 699,151 699,151 699,150 699,150 699,150 699,150 700,150 700,150 700,150 700,150 700,150 700,150 700,150 700,150 700,150 700,150 700,150 700,150 700,150 701,150 701,150 701,150 701,150 701,149 701,149 701,149 701,149 701,149 701,148 701,148 701,148 701,148 702,148 702,148 702,148 702,148 702,149 702,149 702,149 702,150 702,150 702,150 702,151 702,151 702,151 703,151 703,151 703,152 703,152 703,152 703,152 703,153 703,153 703,153 703,153 703,153 703,153 703,153 704,153 704,153 704,153 704,153 704,153 704,153 704,154 704,154 704,154 704,154 704,154 704,154 704,154 705,154 705,155 705,155 705,155 705,155 705,155 705,155 705,155 705,154 705,154 705,154 705,154 705,153 706,153 706,153 706,153 706,152 706,152 706,152 706,151 706,151 706,151 706,151 706,150 706,150 706,150 707,150 707,150 707,149 707,149 707,149 707,149 707,149 707,149 707,149 707,150 707,150 707,150 707,150 708,150 708,150 708,150 708,150 708,150 708,149 708,149 708,149 708,149 708,149 708,148 708,148 708,148 709,148 709,148 709,148 709,148 709,148 709,147 709,147 709,147 709,147 709,147 709,147 709,147 709,147 710,147 710,147 710,146 710,146 710,146 710,146 710,146 710,145 710,145 710,145 710,145 710,144 710,144 711,144 711,144 711,144 711,144 711,143 711,143 711,143 711,143 711,143 711,143 711,143 711,143 711,143 712,143 712,143 712,143 712,143 712,143 712,142 712,142 712,142 712,142 712,142 712,142 712,142 712,142 713,141 713,141 713,141 713,141 713,141 713,141 713,141 713,141 713,141 713,141 713,141 713,141 713,141 714,141 714,142 714,142 714,142 714,142 714,142 714,142 714,142 714,142 714,141 714,141 714,141 714,140 715,140 715,140 715,140 715,140 715,140 715,140 715,140 715,140 715,139 715,140 715,140 715,140 715,140 716,141 716,141 716,141 716,141 716,142 716,142 716,142 716,142 716,142 716,143 716,143 716,143 716,143 717,143 717,143 717,143 717,143 717,143 717,143 717,143 717,144 717,144 717,144 717,145 717,145 717,145 718,145 718,145 718,146 718,146 718,146 718,146 718,146 718,146 718,146 718,146 718,146 718,146 718,147 719,147 719,147 719,147 719,147 719,148 719,148 719,148 719,148 719,148 719,149 719,149 719,149 719,149 720,149 720,149 720,149 720,149 720,149 720,149 720,149 720,149 720,149 720,149 720,149 720,149 720,149 721,149 721,149 721,149 721,149 721,149 721,149 721,149 721,149 721,149 721,149 721,149 721,149 721,149 722,150 722,150 722,150 722,150 722,150 722,150 722,150 722,150 722,149 722,149 722,149 722,149 722,149 723,149 723,149 723,149 723,149 723,148 723,148 723,148 723,148 723,148 723,148 723,148 723,148 723,148 724,148 724,148 724,149 724,149 724,149 724,149 724,149 724,150 724,150 724,150 724,150 724,151 724,151 725,152 725,152 725,152 725,152 725,152 725,152 725,153 725,153 725,153 725,153 725,153 725,154 725,154 725,154 726,154 726,154 726,154 726,154 726,155 726,155 726,155 726,155 726,155 726,156 726,156 726,156 726,156 727,156 727,156 727,156 727,156 727,156 727,156 727,156 727,156 727,156 727,156 727,156 727,157 727,157 728,157 728,157 728,157 728,157 728,157 728,157 728,157 728,157 728,157 728,157 728,157 728,157 728,157 729,157 729,157 729,157 729,156 729,156 729,156 729,156 729,156 729,156 729,156 729,156 729,156 729,157 730,157 730,157 730,157 730,157 730,157 730,157 730,157 730,157 730,157 730,158 730,158 730,158 730,158 731,159 731,159 731,159 731,159 731,159 731,159 731,160 731,160 731,160 731,160 731,161 731,161 731,161 732,162 732,162 732,163 732,163 732,163 732,164 732,164 732,164 732,164 732,164 732,164 732,164 732,164 733,164 733,164 733,164 733,164 733,164 733,164 733,164 733,164 733,164 733,164 733,164 733,165 733,165 734,165 734,165 734,165 734,165 734,166 734,166 734,166 734,166 734,166 734,166 734,167 734,167 734,167 735,167 735,168 735,168 735,168 735,168 735,169 735,169 735,169 735,169 735,169 735,169 735,169 735,169 736,169 736,168 736,168 736,168 736,168 736,168 736,167 736,167 736,167 736,166 736,166 " vector-effect="non-scaling-stroke"></polyline>
</g></svg>