<!-- Generator: Adobe Illustrator 19.2.0, SVG Export Plug-In  -->
<!DOCTYPE svg PUBLIC "-//W3C//DTD SVG 1.1//EN" "http://www.w3.org/Graphics/SVG/1.1/DTD/svg11.dtd" [
	<!ENTITY ns_flows "http://ns.adobe.com/Flows/1.0/">
	<!ENTITY st0 "fill:none;stroke:#FFFFFF;stroke-linecap:square;stroke-linejoin:bevel;stroke-dasharray:1,2;">
	<!ENTITY st1 "fill:none;stroke:#624949;stroke-width:1.5;stroke-linecap:round;stroke-linejoin:round;">
	<!ENTITY st2 "fill:#624949;">
]>
<svg version="1.1"
	 xmlns="http://www.w3.org/2000/svg" xmlns:xlink="http://www.w3.org/1999/xlink" xmlns:a="http://ns.adobe.com/AdobeSVGViewerExtensions/3.0/"
	 x="0px" y="0px" width="759px" height="380px" preserveAspectRatio="none" viewBox="0 0 759 380" style="enable-background:new 0 0 759 380;"
	 xml:space="preserve">
<defs>
</defs>
<line vector-effect="non-scaling-stroke" style="&st0;" x1="0.5" y1="0.5" x2="0.5" y2="379.5"/>
<line vector-effect="non-scaling-stroke" style="&st0;" x1="95.5" y1="0.5" x2="95.5" y2="379.5"/>
<line vector-effect="non-scaling-stroke" style="&st0;" x1="190.5" y1="0.5" x2="190.5" y2="379.5"/>
<line vector-effect="non-scaling-stroke" style="&st0;" x1="284.5" y1="0.5" x2="284.5" y2="379.5"/>
<line vector-effect="non-scaling-stroke" style="&st0;" x1="379.5" y1="0.5" x2="379.5" y2="379.5"/>
<line vector-effect="non-scaling-stroke" style="&st0;" x1="474.5" y1="0.5" x2="474.5" y2="379.5"/>
<line vector-effect="non-scaling-stroke" style="&st0;" x1="569.5" y1="0.5" x2="569.5" y2="379.5"/>
<line vector-effect="non-scaling-stroke" style="&st0;" x1="663.5" y1="0.5" x2="663.5" y2="379.5"/>
<line vector-effect="non-scaling-stroke" style="&st0;" x1="758.5" y1="0.5" x2="758.5" y2="379.5"/>
<line vector-effect="non-scaling-stroke" style="&st0;" x1="0.5" y1="379.5" x2="758.5" y2="379.5"/>
<line vector-effect="non-scaling-stroke" style="&st0;" x1="0.5" y1="325.5" x2="758.5" y2="325.5"/>
<line vector-effect="non-scaling-stroke" style="&st0;" x1="0.5" y1="270.5" x2="758.5" y2="270.5"/>
<line vector-effect="non-scaling-stroke" style="&st0;" x1="0.5" y1="216.5" x2="758.5" y2="216.5"/>
<line vector-effect="non-scaling-stroke" style="&st0;" x1="0.5" y1="162.5" x2="758.5" y2="162.5"/>
<line vector-effect="non-scaling-stroke" style="&st0;" x1="0.5" y1="108.5" x2="758.5" y2="108.5"/>
<line vector-effect="non-scaling-stroke" style="&st0;" x1="0.5" y1="53.5" x2="758.5" y2="53.5"/>
<g transform="matrix(1,0,0,1,0,0)">
	<polyline vector-effect="non-scaling-stroke" style="&st1;" points="716.5,324.5 716.5,324.5 716.5,324.5 716.5,324.5 716.5,324.5 
		716.5,324.5 716.5,324.5 716.5,324.5 716.5,324.5 	"/>
</g>
<g transform="matrix(1,0,0,1,0,0)">
	<polyline vector-effect="non-scaling-stroke" style="&st2;" points="709.5,379.5 118.5,379.5 118.5,337.5 118.5,337.5 118.5,336.5 
		118.5,336.5 118.5,335.5 118.5,335.5 118.5,334.5 118.5,333.5 119.5,333.5 119.5,333.5 119.5,332.5 119.5,332.5 119.5,332.5 
		119.5,331.5 119.5,331.5 119.5,331.5 119.5,331.5 119.5,330.5 119.5,330.5 119.5,330.5 119.5,330.5 120.5,330.5 120.5,330.5 
		120.5,330.5 120.5,329.5 120.5,329.5 120.5,329.5 120.5,329.5 120.5,328.5 120.5,328.5 120.5,328.5 120.5,328.5 120.5,327.5 
		120.5,327.5 121.5,327.5 121.5,326.5 121.5,326.5 121.5,326.5 121.5,326.5 121.5,325.5 121.5,325.5 121.5,325.5 121.5,324.5 
		121.5,324.5 121.5,324.5 121.5,324.5 121.5,323.5 122.5,323.5 122.5,323.5 122.5,323.5 122.5,322.5 122.5,322.5 122.5,322.5 
		122.5,321.5 122.5,321.5 122.5,321.5 122.5,321.5 122.5,320.5 122.5,320.5 122.5,320.5 123.5,320.5 123.5,319.5 123.5,319.5 
		123.5,319.5 123.5,318.5 123.5,318.5 123.5,318.5 123.5,318.5 123.5,317.5 123.5,317.5 123.5,317.5 123.5,316.5 123.5,316.5 
		124.5,316.5 124.5,316.5 124.5,315.5 124.5,315.5 124.5,315.5 124.5,315.5 124.5,314.5 124.5,314.5 124.5,314.5 124.5,314.5 
		124.5,314.5 124.5,314.5 124.5,313.5 125.5,313.5 125.5,313.5 125.5,313.5 125.5,312.5 125.5,312.5 125.5,312.5 125.5,312.5 
		125.5,312.5 125.5,311.5 125.5,311.5 125.5,311.5 125.5,311.5 125.5,311.5 126.5,311.5 126.5,311.5 126.5,311.5 126.5,311.5 
		126.5,311.5 126.5,311.5 126.5,311.5 126.5,311.5 126.5,311.5 126.5,311.5 126.5,311.5 126.5,311.5 126.5,311.5 127.5,311.5 
		127.5,311.5 127.5,311.5 127.5,311.5 127.5,311.5 127.5,311.5 127.5,311.5 127.5,311.5 127.5,311.5 127.5,311.5 127.5,310.5 
		127.5,310.5 127.5,310.5 128.5,310.5 128.5,310.5 128.5,310.5 128.5,311.5 128.5,312.5 128.5,313.5 128.5,313.5 128.5,313.5 
		128.5,313.5 128.5,313.5 128.5,313.5 128.5,313.5 128.5,313.5 129.5,313.5 129.5,312.5 129.5,312.5 129.5,312.5 129.5,312.5 
		129.5,311.5 129.5,311.5 129.5,311.5 129.5,311.5 129.5,311.5 129.5,310.5 129.5,310.5 129.5,310.5 130.5,309.5 130.5,309.5 
		130.5,309.5 130.5,308.5 130.5,308.5 130.5,307.5 130.5,307.5 130.5,307.5 130.5,307.5 130.5,307.5 130.5,307.5 130.5,306.5 
		130.5,306.5 131.5,306.5 131.5,307.5 131.5,307.5 131.5,307.5 131.5,307.5 131.5,307.5 131.5,307.5 131.5,307.5 131.5,307.5 
		131.5,307.5 131.5,307.5 131.5,307.5 131.5,307.5 132.5,307.5 132.5,307.5 132.5,307.5 132.5,307.5 132.5,307.5 132.5,306.5 
		132.5,306.5 132.5,306.5 132.5,305.5 132.5,304.5 132.5,304.5 132.5,303.5 132.5,303.5 133.5,303.5 133.5,303.5 133.5,302.5 
		133.5,302.5 133.5,302.5 133.5,301.5 133.5,301.5 133.5,301.5 133.5,300.5 133.5,300.5 133.5,300.5 133.5,300.5 133.5,299.5 
		134.5,299.5 134.5,299.5 134.5,299.5 134.5,299.5 134.5,299.5 134.5,299.5 134.5,299.5 134.5,299.5 134.5,299.5 134.5,300.5 
		134.5,300.5 134.5,300.5 134.5,300.5 135.5,300.5 135.5,300.5 135.5,299.5 135.5,299.5 135.5,299.5 135.5,298.5 135.5,298.5 
		135.5,298.5 135.5,298.5 135.5,298.5 135.5,298.5 135.5,298.5 135.5,299.5 136.5,299.5 136.5,299.5 136.5,299.5 136.5,299.5 
		136.5,299.5 136.5,298.5 136.5,298.5 136.5,298.5 136.5,298.5 136.5,297.5 136.5,297.5 136.5,297.5 136.5,297.5 137.5,297.5 
		137.5,297.5 137.5,297.5 137.5,298.5 137.5,298.5 137.5,298.5 137.5,299.5 137.5,299.5 137.5,299.5 137.5,300.5 137.5,300.5 
		137.5,300.5 137.5,301.5 138.5,301.5 138.5,301.5 138.5,301.5 138.5,301.5 138.5,301.5 138.5,301.5 138.5,301.5 138.5,302.5 
		138.5,302.5 138.5,302.5 138.5,302.5 138.5,303.5 138.5,303.5 139.5,303.5 139.5,303.5 139.5,303.5 139.5,303.5 139.5,302.5 
		139.5,302.5 139.5,302.5 139.5,302.5 139.5,302.5 139.5,302.5 139.5,302.5 139.5,301.5 139.5,301.5 140.5,300.5 140.5,300.5 
		140.5,299.5 140.5,299.5 140.5,298.5 140.5,298.5 140.5,298.5 140.5,297.5 140.5,297.5 140.5,298.5 140.5,297.5 140.5,297.5 
		140.5,297.5 141.5,297.5 141.5,296.5 141.5,296.5 141.5,296.5 141.5,296.5 141.5,296.5 141.5,296.5 141.5,296.5 141.5,296.5 
		141.5,296.5 141.5,296.5 141.5,296.5 141.5,296.5 142.5,296.5 142.5,296.5 142.5,296.5 142.5,296.5 142.5,296.5 142.5,296.5 
		142.5,296.5 142.5,296.5 142.5,296.5 142.5,296.5 142.5,295.5 142.5,295.5 142.5,295.5 143.5,295.5 143.5,295.5 143.5,295.5 
		143.5,295.5 143.5,295.5 143.5,294.5 143.5,294.5 143.5,294.5 143.5,294.5 143.5,293.5 143.5,293.5 143.5,293.5 143.5,293.5 
		144.5,293.5 144.5,293.5 144.5,293.5 144.5,293.5 144.5,293.5 144.5,293.5 144.5,293.5 144.5,293.5 144.5,293.5 144.5,293.5 
		144.5,293.5 144.5,293.5 144.5,293.5 145.5,293.5 145.5,293.5 145.5,293.5 145.5,293.5 145.5,293.5 145.5,293.5 145.5,293.5 
		145.5,293.5 145.5,292.5 145.5,292.5 145.5,292.5 145.5,292.5 145.5,292.5 146.5,292.5 146.5,291.5 146.5,291.5 146.5,291.5 
		146.5,291.5 146.5,291.5 146.5,291.5 146.5,291.5 146.5,290.5 146.5,290.5 146.5,290.5 146.5,290.5 146.5,290.5 147.5,290.5 
		147.5,289.5 147.5,289.5 147.5,290.5 147.5,289.5 147.5,289.5 147.5,289.5 147.5,289.5 147.5,289.5 147.5,289.5 147.5,289.5 
		147.5,289.5 147.5,289.5 148.5,289.5 148.5,289.5 148.5,289.5 148.5,289.5 148.5,288.5 148.5,288.5 148.5,288.5 148.5,287.5 
		148.5,287.5 148.5,287.5 148.5,288.5 148.5,288.5 148.5,287.5 149.5,287.5 149.5,287.5 149.5,287.5 149.5,287.5 149.5,287.5 
		149.5,286.5 149.5,286.5 149.5,286.5 149.5,286.5 149.5,286.5 149.5,286.5 149.5,286.5 149.5,286.5 150.5,286.5 150.5,286.5 
		150.5,286.5 150.5,286.5 150.5,285.5 150.5,285.5 150.5,285.5 150.5,285.5 150.5,285.5 150.5,285.5 150.5,285.5 150.5,285.5 
		150.5,285.5 151.5,285.5 151.5,285.5 151.5,285.5 151.5,285.5 151.5,285.5 151.5,284.5 151.5,284.5 151.5,284.5 151.5,284.5 
		151.5,284.5 151.5,284.5 151.5,284.5 151.5,284.5 152.5,284.5 152.5,284.5 152.5,284.5 152.5,284.5 152.5,284.5 152.5,284.5 
		152.5,284.5 152.5,283.5 152.5,283.5 152.5,283.5 152.5,283.5 152.5,282.5 152.5,282.5 153.5,282.5 153.5,282.5 153.5,282.5 
		153.5,282.5 153.5,283.5 153.5,283.5 153.5,283.5 153.5,283.5 153.5,283.5 153.5,283.5 153.5,283.5 153.5,282.5 153.5,282.5 
		154.5,282.5 154.5,282.5 154.5,282.5 154.5,282.5 154.5,282.5 154.5,282.5 154.5,282.5 154.5,282.5 154.5,282.5 154.5,282.5 
		154.5,282.5 154.5,283.5 154.5,283.5 155.5,283.5 155.5,283.5 155.5,283.5 155.5,283.5 155.5,283.5 155.5,283.5 155.5,283.5 
		155.5,284.5 155.5,284.5 155.5,284.5 155.5,285.5 155.5,285.5 155.5,285.5 156.5,286.5 156.5,286.5 156.5,286.5 156.5,286.5 
		156.5,287.5 156.5,287.5 156.5,287.5 156.5,287.5 156.5,287.5 156.5,287.5 156.5,287.5 156.5,288.5 156.5,288.5 157.5,288.5 
		157.5,289.5 157.5,289.5 157.5,289.5 157.5,289.5 157.5,290.5 157.5,290.5 157.5,290.5 157.5,290.5 157.5,289.5 157.5,289.5 
		157.5,289.5 157.5,290.5 158.5,290.5 158.5,290.5 158.5,290.5 158.5,290.5 158.5,290.5 158.5,290.5 158.5,290.5 158.5,290.5 
		158.5,290.5 158.5,291.5 158.5,291.5 158.5,291.5 158.5,291.5 159.5,291.5 159.5,291.5 159.5,291.5 159.5,291.5 159.5,291.5 
		159.5,291.5 159.5,291.5 159.5,291.5 159.5,291.5 159.5,291.5 159.5,291.5 159.5,292.5 159.5,292.5 160.5,292.5 160.5,292.5 
		160.5,292.5 160.5,292.5 160.5,293.5 160.5,293.5 160.5,293.5 160.5,293.5 160.5,293.5 160.5,293.5 160.5,293.5 160.5,293.5 
		160.5,293.5 161.5,293.5 161.5,293.5 161.5,293.5 161.5,293.5 161.5,293.5 161.5,293.5 161.5,293.5 161.5,293.5 161.5,293.5 
		161.5,293.5 161.5,293.5 161.5,293.5 161.5,293.5 161.5,293.5 162.5,293.5 162.5,293.5 162.5,292.5 162.5,292.5 162.5,292.5 
		162.5,292.5 162.5,292.5 162.5,292.5 162.5,292.5 162.5,292.5 162.5,292.5 162.5,292.5 162.5,292.5 163.5,292.5 163.5,293.5 
		163.5,293.5 163.5,293.5 163.5,293.5 163.5,293.5 163.5,293.5 163.5,293.5 163.5,293.5 163.5,293.5 163.5,293.5 163.5,294.5 
		163.5,294.5 164.5,294.5 164.5,294.5 164.5,294.5 164.5,294.5 164.5,294.5 164.5,294.5 164.5,294.5 164.5,295.5 164.5,295.5 
		164.5,295.5 164.5,295.5 164.5,295.5 164.5,295.5 165.5,296.5 165.5,296.5 165.5,296.5 165.5,296.5 165.5,297.5 165.5,297.5 
		165.5,298.5 165.5,298.5 165.5,299.5 165.5,299.5 165.5,299.5 165.5,300.5 165.5,300.5 166.5,300.5 166.5,301.5 166.5,301.5 
		166.5,302.5 166.5,302.5 166.5,303.5 166.5,303.5 166.5,304.5 166.5,305.5 166.5,305.5 166.5,305.5 166.5,305.5 166.5,305.5 
		167.5,305.5 167.5,305.5 167.5,305.5 167.5,305.5 167.5,305.5 167.5,305.5 167.5,305.5 167.5,305.5 167.5,304.5 167.5,304.5 
		167.5,304.5 167.5,304.5 167.5,304.5 168.5,304.5 168.5,303.5 168.5,303.5 168.5,303.5 168.5,303.5 168.5,303.5 168.5,303.5 
		168.5,303.5 168.5,302.5 168.5,302.5 168.5,302.5 168.5,302.5 168.5,302.5 169.5,302.5 169.5,302.5 169.5,302.5 169.5,302.5 
		169.5,302.5 169.5,302.5 169.5,302.5 169.5,301.5 169.5,301.5 169.5,301.5 169.5,301.5 169.5,300.5 169.5,300.5 170.5,300.5 
		170.5,300.5 170.5,300.5 170.5,300.5 170.5,300.5 170.5,300.5 170.5,300.5 170.5,300.5 170.5,300.5 170.5,299.5 170.5,299.5 
		170.5,299.5 170.5,298.5 171.5,298.5 171.5,298.5 171.5,298.5 171.5,298.5 171.5,298.5 171.5,297.5 171.5,297.5 171.5,297.5 
		171.5,297.5 171.5,297.5 171.5,297.5 171.5,297.5 171.5,297.5 172.5,297.5 172.5,297.5 172.5,297.5 172.5,297.5 172.5,297.5 
		172.5,296.5 172.5,295.5 172.5,295.5 172.5,295.5 172.5,295.5 172.5,295.5 172.5,295.5 172.5,295.5 173.5,295.5 173.5,295.5 
		173.5,295.5 173.5,295.5 173.5,295.5 173.5,294.5 173.5,294.5 173.5,294.5 173.5,294.5 173.5,293.5 173.5,293.5 173.5,293.5 
		173.5,293.5 174.5,293.5 174.5,292.5 174.5,292.5 174.5,292.5 174.5,293.5 174.5,293.5 174.5,292.5 174.5,292.5 174.5,292.5 
		174.5,292.5 174.5,292.5 174.5,292.5 174.5,292.5 175.5,292.5 175.5,292.5 175.5,291.5 175.5,291.5 175.5,291.5 175.5,291.5 
		175.5,291.5 175.5,290.5 175.5,290.5 175.5,290.5 175.5,290.5 175.5,289.5 175.5,289.5 176.5,289.5 176.5,289.5 176.5,289.5 
		176.5,289.5 176.5,289.5 176.5,288.5 176.5,288.5 176.5,288.5 176.5,288.5 176.5,288.5 176.5,287.5 176.5,287.5 176.5,287.5 
		177.5,286.5 177.5,286.5 177.5,286.5 177.5,285.5 177.5,285.5 177.5,285.5 177.5,284.5 177.5,284.5 177.5,284.5 177.5,284.5 
		177.5,284.5 177.5,283.5 177.5,283.5 178.5,283.5 178.5,283.5 178.5,283.5 178.5,283.5 178.5,282.5 178.5,282.5 178.5,282.5 
		178.5,282.5 178.5,281.5 178.5,281.5 178.5,281.5 178.5,280.5 178.5,280.5 179.5,280.5 179.5,280.5 179.5,280.5 179.5,280.5 
		179.5,280.5 179.5,280.5 179.5,280.5 179.5,280.5 179.5,280.5 179.5,280.5 179.5,280.5 179.5,280.5 179.5,280.5 180.5,280.5 
		180.5,280.5 180.5,280.5 180.5,280.5 180.5,280.5 180.5,280.5 180.5,280.5 180.5,280.5 180.5,280.5 180.5,280.5 180.5,280.5 
		180.5,279.5 180.5,279.5 181.5,279.5 181.5,279.5 181.5,279.5 181.5,279.5 181.5,279.5 181.5,278.5 181.5,278.5 181.5,277.5 
		181.5,276.5 181.5,276.5 181.5,276.5 181.5,276.5 181.5,276.5 182.5,276.5 182.5,276.5 182.5,276.5 182.5,275.5 182.5,275.5 
		182.5,275.5 182.5,275.5 182.5,274.5 182.5,274.5 182.5,275.5 182.5,275.5 182.5,275.5 182.5,275.5 183.5,276.5 183.5,276.5 
		183.5,276.5 183.5,276.5 183.5,276.5 183.5,276.5 183.5,276.5 183.5,276.5 183.5,277.5 183.5,277.5 183.5,277.5 183.5,277.5 
		183.5,277.5 184.5,277.5 184.5,277.5 184.5,278.5 184.5,278.5 184.5,278.5 184.5,278.5 184.5,278.5 184.5,279.5 184.5,279.5 
		184.5,280.5 184.5,280.5 184.5,280.5 184.5,279.5 185.5,279.5 185.5,279.5 185.5,279.5 185.5,279.5 185.5,280.5 185.5,280.5 
		185.5,280.5 185.5,280.5 185.5,280.5 185.5,281.5 185.5,281.5 185.5,281.5 185.5,281.5 186.5,281.5 186.5,281.5 186.5,281.5 
		186.5,281.5 186.5,281.5 186.5,281.5 186.5,281.5 186.5,281.5 186.5,281.5 186.5,282.5 186.5,282.5 186.5,281.5 186.5,281.5 
		187.5,281.5 187.5,282.5 187.5,282.5 187.5,282.5 187.5,282.5 187.5,282.5 187.5,282.5 187.5,282.5 187.5,283.5 187.5,283.5 
		187.5,284.5 187.5,284.5 187.5,284.5 188.5,285.5 188.5,285.5 188.5,285.5 188.5,285.5 188.5,285.5 188.5,285.5 188.5,285.5 
		188.5,285.5 188.5,285.5 188.5,285.5 188.5,285.5 188.5,285.5 188.5,285.5 189.5,285.5 189.5,284.5 189.5,284.5 189.5,283.5 
		189.5,283.5 189.5,283.5 189.5,283.5 189.5,282.5 189.5,282.5 189.5,282.5 189.5,282.5 189.5,282.5 189.5,282.5 190.5,282.5 
		190.5,281.5 190.5,281.5 190.5,281.5 190.5,281.5 190.5,281.5 190.5,281.5 190.5,281.5 190.5,281.5 190.5,282.5 190.5,282.5 
		190.5,282.5 190.5,282.5 191.5,283.5 191.5,283.5 191.5,283.5 191.5,284.5 191.5,284.5 191.5,284.5 191.5,285.5 191.5,285.5 
		191.5,285.5 191.5,286.5 191.5,286.5 191.5,286.5 191.5,287.5 192.5,287.5 192.5,287.5 192.5,287.5 192.5,288.5 192.5,288.5 
		192.5,288.5 192.5,289.5 192.5,289.5 192.5,289.5 192.5,289.5 192.5,289.5 192.5,288.5 192.5,288.5 193.5,288.5 193.5,288.5 
		193.5,288.5 193.5,287.5 193.5,287.5 193.5,287.5 193.5,286.5 193.5,286.5 193.5,286.5 193.5,285.5 193.5,285.5 193.5,285.5 
		193.5,285.5 194.5,284.5 194.5,284.5 194.5,284.5 194.5,284.5 194.5,283.5 194.5,283.5 194.5,282.5 194.5,282.5 194.5,282.5 
		194.5,281.5 194.5,281.5 194.5,281.5 194.5,280.5 195.5,280.5 195.5,280.5 195.5,280.5 195.5,280.5 195.5,280.5 195.5,280.5 
		195.5,281.5 195.5,281.5 195.5,281.5 195.5,281.5 195.5,281.5 195.5,281.5 195.5,281.5 196.5,281.5 196.5,281.5 196.5,282.5 
		196.5,282.5 196.5,282.5 196.5,282.5 196.5,283.5 196.5,283.5 196.5,283.5 196.5,284.5 196.5,284.5 196.5,284.5 196.5,284.5 
		197.5,284.5 197.5,284.5 197.5,284.5 197.5,284.5 197.5,285.5 197.5,285.5 197.5,285.5 197.5,285.5 197.5,285.5 197.5,286.5 
		197.5,286.5 197.5,286.5 197.5,287.5 198.5,287.5 198.5,287.5 198.5,287.5 198.5,287.5 198.5,287.5 198.5,287.5 198.5,287.5 
		198.5,287.5 198.5,287.5 198.5,287.5 198.5,287.5 198.5,287.5 198.5,287.5 199.5,287.5 199.5,286.5 199.5,286.5 199.5,286.5 
		199.5,286.5 199.5,285.5 199.5,285.5 199.5,285.5 199.5,285.5 199.5,285.5 199.5,285.5 199.5,285.5 199.5,285.5 200.5,285.5 
		200.5,284.5 200.5,284.5 200.5,284.5 200.5,284.5 200.5,284.5 200.5,283.5 200.5,283.5 200.5,283.5 200.5,283.5 200.5,283.5 
		200.5,283.5 200.5,282.5 201.5,282.5 201.5,282.5 201.5,282.5 201.5,282.5 201.5,281.5 201.5,281.5 201.5,281.5 201.5,281.5 
		201.5,281.5 201.5,281.5 201.5,281.5 201.5,281.5 201.5,281.5 202.5,281.5 202.5,281.5 202.5,281.5 202.5,281.5 202.5,281.5 
		202.5,281.5 202.5,281.5 202.5,281.5 202.5,281.5 202.5,281.5 202.5,281.5 202.5,280.5 202.5,280.5 203.5,280.5 203.5,280.5 
		203.5,280.5 203.5,280.5 203.5,280.5 203.5,280.5 203.5,280.5 203.5,280.5 203.5,280.5 203.5,280.5 203.5,280.5 203.5,280.5 
		203.5,280.5 204.5,279.5 204.5,279.5 204.5,279.5 204.5,279.5 204.5,280.5 204.5,280.5 204.5,280.5 204.5,280.5 204.5,280.5 
		204.5,280.5 204.5,280.5 204.5,280.5 204.5,280.5 205.5,280.5 205.5,280.5 205.5,280.5 205.5,280.5 205.5,279.5 205.5,279.5 
		205.5,279.5 205.5,279.5 205.5,279.5 205.5,279.5 205.5,278.5 205.5,278.5 205.5,278.5 206.5,278.5 206.5,278.5 206.5,278.5 
		206.5,278.5 206.5,278.5 206.5,278.5 206.5,278.5 206.5,277.5 206.5,277.5 206.5,277.5 206.5,277.5 206.5,277.5 206.5,277.5 
		207.5,277.5 207.5,277.5 207.5,277.5 207.5,277.5 207.5,277.5 207.5,277.5 207.5,277.5 207.5,277.5 207.5,277.5 207.5,277.5 
		207.5,276.5 207.5,276.5 207.5,276.5 208.5,276.5 208.5,276.5 208.5,276.5 208.5,276.5 208.5,276.5 208.5,276.5 208.5,276.5 
		208.5,275.5 208.5,275.5 208.5,275.5 208.5,275.5 208.5,274.5 208.5,274.5 209.5,274.5 209.5,274.5 209.5,273.5 209.5,273.5 
		209.5,273.5 209.5,273.5 209.5,273.5 209.5,273.5 209.5,273.5 209.5,273.5 209.5,273.5 209.5,273.5 209.5,273.5 210.5,272.5 
		210.5,272.5 210.5,272.5 210.5,272.5 210.5,272.5 210.5,272.5 210.5,272.5 210.5,271.5 210.5,271.5 210.5,271.5 210.5,271.5 
		210.5,271.5 210.5,271.5 211.5,270.5 211.5,270.5 211.5,270.5 211.5,269.5 211.5,269.5 211.5,269.5 211.5,269.5 211.5,269.5 
		211.5,269.5 211.5,269.5 211.5,269.5 211.5,269.5 211.5,269.5 212.5,269.5 212.5,269.5 212.5,269.5 212.5,268.5 212.5,268.5 
		212.5,268.5 212.5,268.5 212.5,268.5 212.5,267.5 212.5,267.5 212.5,267.5 212.5,267.5 212.5,267.5 213.5,267.5 213.5,267.5 
		213.5,267.5 213.5,267.5 213.5,267.5 213.5,267.5 213.5,266.5 213.5,266.5 213.5,266.5 213.5,266.5 213.5,265.5 213.5,265.5 
		213.5,265.5 214.5,265.5 214.5,265.5 214.5,265.5 214.5,265.5 214.5,265.5 214.5,265.5 214.5,265.5 214.5,264.5 214.5,264.5 
		214.5,264.5 214.5,264.5 214.5,264.5 214.5,264.5 215.5,263.5 215.5,263.5 215.5,263.5 215.5,263.5 215.5,263.5 215.5,263.5 
		215.5,263.5 215.5,263.5 215.5,263.5 215.5,262.5 215.5,262.5 215.5,262.5 215.5,261.5 216.5,261.5 216.5,261.5 216.5,261.5 
		216.5,260.5 216.5,260.5 216.5,260.5 216.5,260.5 216.5,259.5 216.5,259.5 216.5,259.5 216.5,259.5 216.5,259.5 216.5,258.5 
		217.5,259.5 217.5,258.5 217.5,258.5 217.5,258.5 217.5,258.5 217.5,258.5 217.5,258.5 217.5,258.5 217.5,257.5 217.5,257.5 
		217.5,257.5 217.5,256.5 217.5,256.5 218.5,256.5 218.5,255.5 218.5,255.5 218.5,255.5 218.5,255.5 218.5,255.5 218.5,255.5 
		218.5,255.5 218.5,255.5 218.5,255.5 218.5,255.5 218.5,255.5 218.5,254.5 219.5,254.5 219.5,254.5 219.5,254.5 219.5,254.5 
		219.5,254.5 219.5,253.5 219.5,253.5 219.5,253.5 219.5,253.5 219.5,253.5 219.5,253.5 219.5,253.5 219.5,253.5 220.5,253.5 
		220.5,252.5 220.5,252.5 220.5,252.5 220.5,252.5 220.5,251.5 220.5,251.5 220.5,251.5 220.5,250.5 220.5,250.5 220.5,249.5 
		220.5,249.5 220.5,249.5 221.5,249.5 221.5,248.5 221.5,248.5 221.5,248.5 221.5,248.5 221.5,248.5 221.5,247.5 221.5,247.5 
		221.5,246.5 221.5,246.5 221.5,246.5 221.5,246.5 221.5,246.5 222.5,246.5 222.5,246.5 222.5,246.5 222.5,246.5 222.5,245.5 
		222.5,245.5 222.5,245.5 222.5,245.5 222.5,245.5 222.5,245.5 222.5,244.5 222.5,244.5 222.5,244.5 223.5,244.5 223.5,244.5 
		223.5,243.5 223.5,243.5 223.5,243.5 223.5,243.5 223.5,243.5 223.5,243.5 223.5,242.5 223.5,242.5 223.5,242.5 223.5,242.5 
		223.5,241.5 224.5,241.5 224.5,241.5 224.5,241.5 224.5,241.5 224.5,241.5 224.5,241.5 224.5,241.5 224.5,241.5 224.5,241.5 
		224.5,240.5 224.5,240.5 224.5,240.5 224.5,240.5 225.5,240.5 225.5,240.5 225.5,239.5 225.5,239.5 225.5,239.5 225.5,239.5 
		225.5,239.5 225.5,239.5 225.5,239.5 225.5,238.5 225.5,238.5 225.5,238.5 225.5,238.5 226.5,238.5 226.5,238.5 226.5,238.5 
		226.5,238.5 226.5,238.5 226.5,238.5 226.5,237.5 226.5,238.5 226.5,238.5 226.5,238.5 226.5,239.5 226.5,239.5 226.5,239.5 
		227.5,238.5 227.5,238.5 227.5,237.5 227.5,236.5 227.5,236.5 227.5,236.5 227.5,235.5 227.5,235.5 227.5,235.5 227.5,235.5 
		227.5,234.5 227.5,234.5 227.5,234.5 228.5,234.5 228.5,233.5 228.5,233.5 228.5,232.5 228.5,232.5 228.5,231.5 228.5,231.5 
		228.5,230.5 228.5,230.5 228.5,229.5 228.5,228.5 228.5,228.5 228.5,227.5 229.5,227.5 229.5,226.5 229.5,225.5 229.5,224.5 
		229.5,223.5 229.5,223.5 229.5,222.5 229.5,222.5 229.5,221.5 229.5,220.5 229.5,219.5 229.5,218.5 229.5,217.5 230.5,216.5 
		230.5,215.5 230.5,214.5 230.5,213.5 230.5,212.5 230.5,211.5 230.5,210.5 230.5,209.5 230.5,207.5 230.5,206.5 230.5,205.5 
		230.5,204.5 230.5,203.5 231.5,202.5 231.5,201.5 231.5,201.5 231.5,200.5 231.5,199.5 231.5,199.5 231.5,198.5 231.5,198.5 
		231.5,197.5 231.5,197.5 231.5,197.5 231.5,196.5 231.5,196.5 232.5,195.5 232.5,194.5 232.5,194.5 232.5,193.5 232.5,193.5 
		232.5,192.5 232.5,192.5 232.5,191.5 232.5,191.5 232.5,190.5 232.5,190.5 232.5,189.5 232.5,189.5 233.5,189.5 233.5,189.5 
		233.5,189.5 233.5,188.5 233.5,188.5 233.5,188.5 233.5,187.5 233.5,187.5 233.5,186.5 233.5,186.5 233.5,185.5 233.5,185.5 
		233.5,184.5 234.5,184.5 234.5,183.5 234.5,183.5 234.5,182.5 234.5,182.5 234.5,181.5 234.5,181.5 234.5,181.5 234.5,180.5 
		234.5,180.5 234.5,179.5 234.5,179.5 234.5,179.5 235.5,179.5 235.5,179.5 235.5,179.5 235.5,178.5 235.5,178.5 235.5,179.5 
		235.5,179.5 235.5,179.5 235.5,178.5 235.5,178.5 235.5,178.5 235.5,178.5 235.5,177.5 236.5,177.5 236.5,177.5 236.5,176.5 
		236.5,176.5 236.5,176.5 236.5,175.5 236.5,175.5 236.5,175.5 236.5,175.5 236.5,175.5 236.5,174.5 236.5,174.5 236.5,174.5 
		237.5,174.5 237.5,173.5 237.5,173.5 237.5,173.5 237.5,172.5 237.5,172.5 237.5,172.5 237.5,172.5 237.5,172.5 237.5,172.5 
		237.5,172.5 237.5,173.5 237.5,173.5 238.5,173.5 238.5,173.5 238.5,173.5 238.5,173.5 238.5,173.5 238.5,173.5 238.5,173.5 
		238.5,173.5 238.5,173.5 238.5,172.5 238.5,172.5 238.5,172.5 238.5,172.5 239.5,171.5 239.5,171.5 239.5,170.5 239.5,170.5 
		239.5,170.5 239.5,170.5 239.5,170.5 239.5,170.5 239.5,170.5 239.5,170.5 239.5,170.5 239.5,170.5 239.5,170.5 240.5,171.5 
		240.5,171.5 240.5,172.5 240.5,172.5 240.5,171.5 240.5,171.5 240.5,171.5 240.5,171.5 240.5,171.5 240.5,171.5 240.5,171.5 
		240.5,171.5 240.5,171.5 241.5,171.5 241.5,170.5 241.5,170.5 241.5,170.5 241.5,169.5 241.5,169.5 241.5,169.5 241.5,169.5 
		241.5,168.5 241.5,168.5 241.5,167.5 241.5,167.5 241.5,167.5 242.5,166.5 242.5,166.5 242.5,166.5 242.5,165.5 242.5,164.5 
		242.5,164.5 242.5,163.5 242.5,163.5 242.5,162.5 242.5,162.5 242.5,162.5 242.5,162.5 242.5,161.5 243.5,161.5 243.5,161.5 
		243.5,160.5 243.5,160.5 243.5,159.5 243.5,159.5 243.5,159.5 243.5,158.5 243.5,158.5 243.5,158.5 243.5,158.5 243.5,158.5 
		243.5,158.5 244.5,158.5 244.5,158.5 244.5,158.5 244.5,159.5 244.5,159.5 244.5,160.5 244.5,160.5 244.5,161.5 244.5,161.5 
		244.5,162.5 244.5,163.5 244.5,164.5 244.5,164.5 245.5,165.5 245.5,166.5 245.5,166.5 245.5,167.5 245.5,168.5 245.5,168.5 
		245.5,169.5 245.5,169.5 245.5,170.5 245.5,170.5 245.5,171.5 245.5,171.5 245.5,172.5 246.5,172.5 246.5,173.5 246.5,173.5 
		246.5,174.5 246.5,174.5 246.5,174.5 246.5,174.5 246.5,175.5 246.5,175.5 246.5,176.5 246.5,177.5 246.5,177.5 246.5,178.5 
		247.5,178.5 247.5,178.5 247.5,179.5 247.5,179.5 247.5,180.5 247.5,180.5 247.5,181.5 247.5,181.5 247.5,182.5 247.5,182.5 
		247.5,183.5 247.5,183.5 247.5,184.5 248.5,184.5 248.5,185.5 248.5,186.5 248.5,186.5 248.5,187.5 248.5,187.5 248.5,188.5 
		248.5,188.5 248.5,189.5 248.5,190.5 248.5,190.5 248.5,190.5 248.5,191.5 249.5,191.5 249.5,192.5 249.5,192.5 249.5,193.5 
		249.5,193.5 249.5,193.5 249.5,194.5 249.5,194.5 249.5,194.5 249.5,194.5 249.5,194.5 249.5,194.5 249.5,194.5 250.5,194.5 
		250.5,194.5 250.5,194.5 250.5,194.5 250.5,194.5 250.5,194.5 250.5,194.5 250.5,194.5 250.5,194.5 250.5,194.5 250.5,194.5 
		250.5,194.5 250.5,194.5 251.5,194.5 251.5,194.5 251.5,194.5 251.5,194.5 251.5,194.5 251.5,194.5 251.5,195.5 251.5,195.5 
		251.5,195.5 251.5,195.5 251.5,195.5 251.5,194.5 251.5,194.5 252.5,194.5 252.5,193.5 252.5,193.5 252.5,193.5 252.5,193.5 
		252.5,193.5 252.5,193.5 252.5,193.5 252.5,193.5 252.5,193.5 252.5,193.5 252.5,193.5 252.5,193.5 253.5,193.5 253.5,194.5 
		253.5,194.5 253.5,195.5 253.5,196.5 253.5,196.5 253.5,196.5 253.5,196.5 253.5,196.5 253.5,196.5 253.5,196.5 253.5,195.5 
		253.5,195.5 254.5,194.5 254.5,194.5 254.5,193.5 254.5,193.5 254.5,192.5 254.5,192.5 254.5,191.5 254.5,191.5 254.5,191.5 
		254.5,191.5 254.5,191.5 254.5,191.5 254.5,191.5 255.5,192.5 255.5,192.5 255.5,192.5 255.5,192.5 255.5,192.5 255.5,193.5 
		255.5,192.5 255.5,192.5 255.5,192.5 255.5,192.5 255.5,192.5 255.5,192.5 255.5,192.5 256.5,191.5 256.5,191.5 256.5,191.5 
		256.5,191.5 256.5,191.5 256.5,190.5 256.5,190.5 256.5,189.5 256.5,189.5 256.5,188.5 256.5,188.5 256.5,188.5 256.5,187.5 
		257.5,187.5 257.5,186.5 257.5,186.5 257.5,186.5 257.5,185.5 257.5,185.5 257.5,185.5 257.5,184.5 257.5,184.5 257.5,185.5 
		257.5,185.5 257.5,186.5 257.5,186.5 258.5,186.5 258.5,187.5 258.5,187.5 258.5,187.5 258.5,187.5 258.5,188.5 258.5,188.5 
		258.5,188.5 258.5,188.5 258.5,188.5 258.5,189.5 258.5,189.5 258.5,189.5 259.5,189.5 259.5,189.5 259.5,189.5 259.5,189.5 
		259.5,189.5 259.5,189.5 259.5,189.5 259.5,189.5 259.5,189.5 259.5,189.5 259.5,189.5 259.5,189.5 259.5,189.5 260.5,189.5 
		260.5,189.5 260.5,189.5 260.5,189.5 260.5,189.5 260.5,189.5 260.5,189.5 260.5,189.5 260.5,188.5 260.5,188.5 260.5,188.5 
		260.5,188.5 260.5,187.5 261.5,187.5 261.5,186.5 261.5,186.5 261.5,186.5 261.5,185.5 261.5,185.5 261.5,185.5 261.5,185.5 
		261.5,184.5 261.5,184.5 261.5,185.5 261.5,185.5 261.5,185.5 262.5,185.5 262.5,185.5 262.5,185.5 262.5,186.5 262.5,186.5 
		262.5,186.5 262.5,186.5 262.5,186.5 262.5,186.5 262.5,186.5 262.5,187.5 262.5,187.5 262.5,187.5 263.5,187.5 263.5,187.5 
		263.5,188.5 263.5,188.5 263.5,189.5 263.5,189.5 263.5,190.5 263.5,190.5 263.5,191.5 263.5,192.5 263.5,194.5 263.5,194.5 
		263.5,195.5 264.5,195.5 264.5,196.5 264.5,196.5 264.5,197.5 264.5,197.5 264.5,198.5 264.5,199.5 264.5,200.5 264.5,200.5 
		264.5,201.5 264.5,202.5 264.5,203.5 264.5,204.5 265.5,205.5 265.5,206.5 265.5,207.5 265.5,208.5 265.5,209.5 265.5,210.5 
		265.5,211.5 265.5,213.5 265.5,214.5 265.5,215.5 265.5,216.5 265.5,217.5 265.5,218.5 266.5,219.5 266.5,220.5 266.5,220.5 
		266.5,221.5 266.5,222.5 266.5,222.5 266.5,222.5 266.5,223.5 266.5,223.5 266.5,223.5 266.5,223.5 266.5,223.5 266.5,223.5 
		267.5,223.5 267.5,223.5 267.5,222.5 267.5,222.5 267.5,222.5 267.5,222.5 267.5,222.5 267.5,222.5 267.5,222.5 267.5,222.5 
		267.5,222.5 267.5,222.5 267.5,222.5 268.5,222.5 268.5,222.5 268.5,222.5 268.5,222.5 268.5,222.5 268.5,221.5 268.5,221.5 
		268.5,221.5 268.5,221.5 268.5,221.5 268.5,221.5 268.5,221.5 268.5,220.5 268.5,220.5 269.5,220.5 269.5,219.5 269.5,219.5 
		269.5,219.5 269.5,218.5 269.5,218.5 269.5,218.5 269.5,218.5 269.5,217.5 269.5,217.5 269.5,216.5 269.5,216.5 269.5,215.5 
		270.5,215.5 270.5,215.5 270.5,214.5 270.5,214.5 270.5,213.5 270.5,213.5 270.5,212.5 270.5,212.5 270.5,212.5 270.5,211.5 
		270.5,211.5 270.5,210.5 270.5,210.5 271.5,210.5 271.5,209.5 271.5,209.5 271.5,208.5 271.5,208.5 271.5,208.5 271.5,207.5 
		271.5,207.5 271.5,207.5 271.5,206.5 271.5,206.5 271.5,205.5 271.5,205.5 272.5,204.5 272.5,204.5 272.5,204.5 272.5,203.5 
		272.5,203.5 272.5,202.5 272.5,202.5 272.5,202.5 272.5,201.5 272.5,201.5 272.5,201.5 272.5,200.5 272.5,200.5 273.5,200.5 
		273.5,199.5 273.5,199.5 273.5,199.5 273.5,198.5 273.5,198.5 273.5,198.5 273.5,198.5 273.5,197.5 273.5,197.5 273.5,197.5 
		273.5,197.5 273.5,197.5 274.5,197.5 274.5,197.5 274.5,197.5 274.5,197.5 274.5,197.5 274.5,196.5 274.5,196.5 274.5,196.5 
		274.5,196.5 274.5,196.5 274.5,196.5 274.5,196.5 274.5,197.5 275.5,197.5 275.5,197.5 275.5,198.5 275.5,198.5 275.5,198.5 
		275.5,198.5 275.5,199.5 275.5,199.5 275.5,200.5 275.5,200.5 275.5,201.5 275.5,201.5 275.5,201.5 276.5,202.5 276.5,202.5 
		276.5,202.5 276.5,203.5 276.5,203.5 276.5,203.5 276.5,203.5 276.5,203.5 276.5,204.5 276.5,204.5 276.5,203.5 276.5,203.5 
		276.5,203.5 277.5,203.5 277.5,202.5 277.5,202.5 277.5,201.5 277.5,201.5 277.5,200.5 277.5,199.5 277.5,199.5 277.5,198.5 
		277.5,198.5 277.5,197.5 277.5,197.5 277.5,196.5 278.5,196.5 278.5,196.5 278.5,195.5 278.5,195.5 278.5,194.5 278.5,194.5 
		278.5,194.5 278.5,193.5 278.5,193.5 278.5,192.5 278.5,192.5 278.5,192.5 278.5,191.5 279.5,191.5 279.5,191.5 279.5,191.5 
		279.5,191.5 279.5,190.5 279.5,190.5 279.5,190.5 279.5,189.5 279.5,189.5 279.5,189.5 279.5,189.5 279.5,188.5 279.5,188.5 
		280.5,188.5 280.5,187.5 280.5,187.5 280.5,187.5 280.5,187.5 280.5,186.5 280.5,186.5 280.5,186.5 280.5,185.5 280.5,185.5 
		280.5,185.5 280.5,184.5 280.5,184.5 281.5,184.5 281.5,184.5 281.5,183.5 281.5,183.5 281.5,183.5 281.5,183.5 281.5,182.5 
		281.5,182.5 281.5,182.5 281.5,182.5 281.5,182.5 281.5,181.5 281.5,181.5 282.5,181.5 282.5,181.5 282.5,181.5 282.5,181.5 
		282.5,181.5 282.5,181.5 282.5,181.5 282.5,181.5 282.5,181.5 282.5,181.5 282.5,182.5 282.5,182.5 282.5,182.5 283.5,182.5 
		283.5,182.5 283.5,182.5 283.5,183.5 283.5,183.5 283.5,183.5 283.5,183.5 283.5,184.5 283.5,184.5 283.5,184.5 283.5,185.5 
		283.5,185.5 283.5,185.5 284.5,186.5 284.5,186.5 284.5,186.5 284.5,187.5 284.5,187.5 284.5,187.5 284.5,187.5 284.5,188.5 
		284.5,188.5 284.5,189.5 284.5,189.5 284.5,189.5 284.5,190.5 285.5,190.5 285.5,190.5 285.5,190.5 285.5,190.5 285.5,190.5 
		285.5,189.5 285.5,189.5 285.5,189.5 285.5,188.5 285.5,187.5 285.5,187.5 285.5,186.5 285.5,186.5 286.5,185.5 286.5,185.5 
		286.5,185.5 286.5,185.5 286.5,184.5 286.5,184.5 286.5,183.5 286.5,183.5 286.5,182.5 286.5,181.5 286.5,181.5 286.5,180.5 
		286.5,180.5 287.5,179.5 287.5,179.5 287.5,178.5 287.5,177.5 287.5,177.5 287.5,176.5 287.5,176.5 287.5,176.5 287.5,176.5 
		287.5,175.5 287.5,175.5 287.5,175.5 287.5,174.5 288.5,174.5 288.5,174.5 288.5,174.5 288.5,173.5 288.5,173.5 288.5,173.5 
		288.5,173.5 288.5,173.5 288.5,173.5 288.5,173.5 288.5,173.5 288.5,173.5 288.5,173.5 289.5,173.5 289.5,174.5 289.5,174.5 
		289.5,175.5 289.5,176.5 289.5,177.5 289.5,178.5 289.5,178.5 289.5,179.5 289.5,180.5 289.5,181.5 289.5,182.5 289.5,183.5 
		290.5,183.5 290.5,184.5 290.5,185.5 290.5,186.5 290.5,187.5 290.5,188.5 290.5,188.5 290.5,189.5 290.5,190.5 290.5,191.5 
		290.5,192.5 290.5,193.5 290.5,194.5 291.5,195.5 291.5,196.5 291.5,197.5 291.5,198.5 291.5,199.5 291.5,200.5 291.5,201.5 
		291.5,202.5 291.5,202.5 291.5,203.5 291.5,204.5 291.5,204.5 291.5,205.5 292.5,205.5 292.5,205.5 292.5,205.5 292.5,204.5 
		292.5,204.5 292.5,203.5 292.5,202.5 292.5,201.5 292.5,200.5 292.5,199.5 292.5,199.5 292.5,198.5 292.5,198.5 293.5,197.5 
		293.5,197.5 293.5,196.5 293.5,196.5 293.5,195.5 293.5,195.5 293.5,195.5 293.5,194.5 293.5,194.5 293.5,193.5 293.5,193.5 
		293.5,192.5 293.5,192.5 294.5,191.5 294.5,191.5 294.5,191.5 294.5,191.5 294.5,190.5 294.5,190.5 294.5,190.5 294.5,189.5 
		294.5,189.5 294.5,188.5 294.5,188.5 294.5,188.5 294.5,187.5 295.5,187.5 295.5,187.5 295.5,186.5 295.5,186.5 295.5,185.5 
		295.5,185.5 295.5,185.5 295.5,185.5 295.5,184.5 295.5,184.5 295.5,184.5 295.5,184.5 295.5,184.5 296.5,184.5 296.5,184.5 
		296.5,184.5 296.5,184.5 296.5,184.5 296.5,184.5 296.5,184.5 296.5,184.5 296.5,184.5 296.5,184.5 296.5,185.5 296.5,185.5 
		296.5,186.5 297.5,186.5 297.5,186.5 297.5,186.5 297.5,187.5 297.5,186.5 297.5,186.5 297.5,185.5 297.5,185.5 297.5,184.5 
		297.5,184.5 297.5,183.5 297.5,183.5 297.5,183.5 298.5,183.5 298.5,183.5 298.5,183.5 298.5,183.5 298.5,183.5 298.5,183.5 
		298.5,183.5 298.5,183.5 298.5,184.5 298.5,184.5 298.5,184.5 298.5,184.5 298.5,184.5 299.5,185.5 299.5,185.5 299.5,185.5 
		299.5,185.5 299.5,186.5 299.5,186.5 299.5,187.5 299.5,187.5 299.5,187.5 299.5,187.5 299.5,188.5 299.5,188.5 299.5,189.5 
		300.5,189.5 300.5,190.5 300.5,190.5 300.5,191.5 300.5,191.5 300.5,191.5 300.5,191.5 300.5,191.5 300.5,190.5 300.5,190.5 
		300.5,189.5 300.5,188.5 300.5,187.5 301.5,186.5 301.5,186.5 301.5,185.5 301.5,184.5 301.5,183.5 301.5,183.5 301.5,182.5 
		301.5,181.5 301.5,180.5 301.5,180.5 301.5,179.5 301.5,178.5 301.5,177.5 302.5,177.5 302.5,176.5 302.5,176.5 302.5,175.5 
		302.5,175.5 302.5,174.5 302.5,174.5 302.5,173.5 302.5,173.5 302.5,172.5 302.5,172.5 302.5,171.5 302.5,171.5 303.5,171.5 
		303.5,170.5 303.5,170.5 303.5,169.5 303.5,169.5 303.5,169.5 303.5,169.5 303.5,169.5 303.5,169.5 303.5,169.5 303.5,169.5 
		303.5,168.5 303.5,168.5 304.5,168.5 304.5,168.5 304.5,168.5 304.5,168.5 304.5,168.5 304.5,168.5 304.5,168.5 304.5,168.5 
		304.5,168.5 304.5,168.5 304.5,169.5 304.5,169.5 304.5,169.5 305.5,170.5 305.5,170.5 305.5,170.5 305.5,171.5 305.5,172.5 
		305.5,172.5 305.5,173.5 305.5,174.5 305.5,174.5 305.5,175.5 305.5,175.5 305.5,176.5 305.5,176.5 306.5,177.5 306.5,177.5 
		306.5,177.5 306.5,178.5 306.5,178.5 306.5,178.5 306.5,179.5 306.5,179.5 306.5,179.5 306.5,180.5 306.5,180.5 306.5,180.5 
		306.5,180.5 307.5,180.5 307.5,180.5 307.5,180.5 307.5,181.5 307.5,181.5 307.5,181.5 307.5,182.5 307.5,182.5 307.5,182.5 
		307.5,182.5 307.5,182.5 307.5,183.5 307.5,183.5 308.5,183.5 308.5,183.5 308.5,183.5 308.5,183.5 308.5,184.5 308.5,184.5 
		308.5,184.5 308.5,184.5 308.5,185.5 308.5,185.5 308.5,185.5 308.5,185.5 308.5,186.5 309.5,186.5 309.5,186.5 309.5,185.5 
		309.5,185.5 309.5,185.5 309.5,184.5 309.5,184.5 309.5,183.5 309.5,183.5 309.5,183.5 309.5,182.5 309.5,182.5 309.5,182.5 
		310.5,181.5 310.5,181.5 310.5,181.5 310.5,181.5 310.5,181.5 310.5,180.5 310.5,180.5 310.5,180.5 310.5,180.5 310.5,180.5 
		310.5,180.5 310.5,180.5 310.5,181.5 311.5,181.5 311.5,181.5 311.5,182.5 311.5,182.5 311.5,182.5 311.5,183.5 311.5,183.5 
		311.5,183.5 311.5,183.5 311.5,184.5 311.5,184.5 311.5,184.5 311.5,184.5 312.5,184.5 312.5,185.5 312.5,185.5 312.5,185.5 
		312.5,185.5 312.5,185.5 312.5,185.5 312.5,185.5 312.5,185.5 312.5,185.5 312.5,185.5 312.5,185.5 312.5,184.5 313.5,184.5 
		313.5,184.5 313.5,184.5 313.5,184.5 313.5,184.5 313.5,184.5 313.5,184.5 313.5,183.5 313.5,183.5 313.5,183.5 313.5,183.5 
		313.5,183.5 313.5,182.5 314.5,182.5 314.5,182.5 314.5,182.5 314.5,182.5 314.5,182.5 314.5,181.5 314.5,181.5 314.5,181.5 
		314.5,181.5 314.5,181.5 314.5,180.5 314.5,180.5 314.5,180.5 315.5,179.5 315.5,179.5 315.5,178.5 315.5,178.5 315.5,178.5 
		315.5,177.5 315.5,177.5 315.5,176.5 315.5,176.5 315.5,176.5 315.5,175.5 315.5,175.5 315.5,175.5 316.5,175.5 316.5,175.5 
		316.5,175.5 316.5,175.5 316.5,175.5 316.5,175.5 316.5,175.5 316.5,175.5 316.5,175.5 316.5,175.5 316.5,175.5 316.5,175.5 
		316.5,176.5 317.5,176.5 317.5,176.5 317.5,176.5 317.5,176.5 317.5,176.5 317.5,176.5 317.5,176.5 317.5,176.5 317.5,176.5 
		317.5,176.5 317.5,176.5 317.5,176.5 317.5,176.5 318.5,176.5 318.5,176.5 318.5,175.5 318.5,175.5 318.5,175.5 318.5,174.5 
		318.5,174.5 318.5,174.5 318.5,174.5 318.5,175.5 318.5,175.5 318.5,176.5 318.5,176.5 319.5,176.5 319.5,177.5 319.5,177.5 
		319.5,177.5 319.5,178.5 319.5,178.5 319.5,178.5 319.5,179.5 319.5,179.5 319.5,179.5 319.5,179.5 319.5,180.5 319.5,180.5 
		320.5,181.5 320.5,181.5 320.5,182.5 320.5,183.5 320.5,184.5 320.5,184.5 320.5,185.5 320.5,185.5 320.5,185.5 320.5,186.5 
		320.5,187.5 320.5,187.5 320.5,188.5 321.5,188.5 321.5,189.5 321.5,189.5 321.5,190.5 321.5,190.5 321.5,190.5 321.5,190.5 
		321.5,190.5 321.5,190.5 321.5,190.5 321.5,190.5 321.5,189.5 321.5,189.5 322.5,188.5 322.5,188.5 322.5,188.5 322.5,188.5 
		322.5,188.5 322.5,188.5 322.5,188.5 322.5,188.5 322.5,188.5 322.5,188.5 322.5,188.5 322.5,188.5 322.5,188.5 323.5,188.5 
		323.5,188.5 323.5,188.5 323.5,188.5 323.5,188.5 323.5,188.5 323.5,188.5 323.5,188.5 323.5,188.5 323.5,187.5 323.5,187.5 
		323.5,187.5 323.5,187.5 324.5,187.5 324.5,187.5 324.5,187.5 324.5,187.5 324.5,188.5 324.5,188.5 324.5,188.5 324.5,188.5 
		324.5,188.5 324.5,188.5 324.5,188.5 324.5,189.5 324.5,189.5 325.5,189.5 325.5,190.5 325.5,190.5 325.5,191.5 325.5,191.5 
		325.5,191.5 325.5,192.5 325.5,192.5 325.5,192.5 325.5,192.5 325.5,192.5 325.5,192.5 325.5,192.5 326.5,192.5 326.5,193.5 
		326.5,193.5 326.5,194.5 326.5,194.5 326.5,194.5 326.5,194.5 326.5,194.5 326.5,195.5 326.5,195.5 326.5,195.5 326.5,196.5 
		326.5,196.5 327.5,196.5 327.5,197.5 327.5,197.5 327.5,197.5 327.5,197.5 327.5,197.5 327.5,198.5 327.5,198.5 327.5,198.5 
		327.5,199.5 327.5,199.5 327.5,199.5 327.5,199.5 328.5,199.5 328.5,200.5 328.5,200.5 328.5,200.5 328.5,201.5 328.5,201.5 
		328.5,201.5 328.5,201.5 328.5,201.5 328.5,201.5 328.5,201.5 328.5,201.5 328.5,202.5 329.5,202.5 329.5,201.5 329.5,201.5 
		329.5,201.5 329.5,201.5 329.5,201.5 329.5,201.5 329.5,201.5 329.5,200.5 329.5,200.5 329.5,200.5 329.5,199.5 329.5,199.5 
		330.5,198.5 330.5,198.5 330.5,198.5 330.5,198.5 330.5,197.5 330.5,197.5 330.5,196.5 330.5,196.5 330.5,195.5 330.5,195.5 
		330.5,194.5 330.5,194.5 330.5,193.5 331.5,192.5 331.5,192.5 331.5,191.5 331.5,191.5 331.5,191.5 331.5,190.5 331.5,190.5 
		331.5,189.5 331.5,189.5 331.5,188.5 331.5,188.5 331.5,187.5 331.5,187.5 332.5,187.5 332.5,187.5 332.5,186.5 332.5,185.5 
		332.5,185.5 332.5,185.5 332.5,184.5 332.5,185.5 332.5,184.5 332.5,184.5 332.5,184.5 332.5,183.5 332.5,183.5 333.5,182.5 
		333.5,182.5 333.5,181.5 333.5,181.5 333.5,180.5 333.5,179.5 333.5,179.5 333.5,178.5 333.5,177.5 333.5,177.5 333.5,176.5 
		333.5,175.5 333.5,175.5 334.5,174.5 334.5,173.5 334.5,172.5 334.5,171.5 334.5,171.5 334.5,170.5 334.5,169.5 334.5,169.5 
		334.5,168.5 334.5,167.5 334.5,166.5 334.5,165.5 334.5,165.5 335.5,164.5 335.5,163.5 335.5,163.5 335.5,162.5 335.5,161.5 
		335.5,161.5 335.5,160.5 335.5,160.5 335.5,160.5 335.5,160.5 335.5,160.5 335.5,160.5 335.5,160.5 336.5,160.5 336.5,160.5 
		336.5,160.5 336.5,160.5 336.5,160.5 336.5,160.5 336.5,160.5 336.5,160.5 336.5,160.5 336.5,160.5 336.5,160.5 336.5,159.5 
		336.5,159.5 337.5,159.5 337.5,159.5 337.5,159.5 337.5,159.5 337.5,159.5 337.5,159.5 337.5,159.5 337.5,159.5 337.5,159.5 
		337.5,159.5 337.5,159.5 337.5,159.5 337.5,159.5 338.5,159.5 338.5,159.5 338.5,159.5 338.5,159.5 338.5,159.5 338.5,159.5 
		338.5,159.5 338.5,159.5 338.5,159.5 338.5,158.5 338.5,158.5 338.5,158.5 338.5,158.5 339.5,158.5 339.5,158.5 339.5,158.5 
		339.5,158.5 339.5,158.5 339.5,157.5 339.5,158.5 339.5,159.5 339.5,159.5 339.5,160.5 339.5,161.5 339.5,161.5 339.5,162.5 
		340.5,163.5 340.5,163.5 340.5,162.5 340.5,162.5 340.5,161.5 340.5,161.5 340.5,161.5 340.5,160.5 340.5,160.5 340.5,160.5 
		340.5,160.5 340.5,161.5 340.5,161.5 341.5,161.5 341.5,162.5 341.5,162.5 341.5,162.5 341.5,162.5 341.5,162.5 341.5,163.5 
		341.5,163.5 341.5,163.5 341.5,163.5 341.5,163.5 341.5,163.5 341.5,163.5 342.5,163.5 342.5,163.5 342.5,163.5 342.5,164.5 
		342.5,164.5 342.5,165.5 342.5,165.5 342.5,165.5 342.5,166.5 342.5,166.5 342.5,166.5 342.5,167.5 342.5,167.5 343.5,168.5 
		343.5,168.5 343.5,168.5 343.5,168.5 343.5,168.5 343.5,168.5 343.5,169.5 343.5,169.5 343.5,169.5 343.5,169.5 343.5,169.5 
		343.5,169.5 343.5,170.5 344.5,170.5 344.5,170.5 344.5,169.5 344.5,169.5 344.5,169.5 344.5,169.5 344.5,169.5 344.5,169.5 
		344.5,169.5 344.5,168.5 344.5,168.5 344.5,168.5 344.5,168.5 345.5,167.5 345.5,167.5 345.5,166.5 345.5,166.5 345.5,166.5 
		345.5,166.5 345.5,166.5 345.5,166.5 345.5,166.5 345.5,166.5 345.5,166.5 345.5,166.5 345.5,167.5 346.5,167.5 346.5,167.5 
		346.5,167.5 346.5,167.5 346.5,168.5 346.5,168.5 346.5,168.5 346.5,168.5 346.5,168.5 346.5,168.5 346.5,169.5 346.5,169.5 
		346.5,169.5 347.5,169.5 347.5,169.5 347.5,169.5 347.5,169.5 347.5,169.5 347.5,169.5 347.5,169.5 347.5,169.5 347.5,169.5 
		347.5,169.5 347.5,169.5 347.5,169.5 347.5,169.5 348.5,169.5 348.5,170.5 348.5,171.5 348.5,172.5 348.5,173.5 348.5,174.5 
		348.5,174.5 348.5,175.5 348.5,175.5 348.5,176.5 348.5,176.5 348.5,177.5 348.5,177.5 349.5,177.5 349.5,177.5 349.5,177.5 
		349.5,177.5 349.5,178.5 349.5,178.5 349.5,178.5 349.5,178.5 349.5,178.5 349.5,178.5 349.5,178.5 349.5,178.5 349.5,178.5 
		350.5,178.5 350.5,178.5 350.5,178.5 350.5,178.5 350.5,177.5 350.5,177.5 350.5,177.5 350.5,177.5 350.5,178.5 350.5,178.5 
		350.5,179.5 350.5,179.5 350.5,180.5 351.5,181.5 351.5,182.5 351.5,183.5 351.5,184.5 351.5,185.5 351.5,186.5 351.5,186.5 
		351.5,186.5 351.5,187.5 351.5,187.5 351.5,188.5 351.5,188.5 351.5,188.5 352.5,188.5 352.5,188.5 352.5,188.5 352.5,189.5 
		352.5,189.5 352.5,190.5 352.5,190.5 352.5,191.5 352.5,191.5 352.5,191.5 352.5,191.5 352.5,191.5 352.5,191.5 353.5,190.5 
		353.5,190.5 353.5,189.5 353.5,189.5 353.5,188.5 353.5,188.5 353.5,188.5 353.5,188.5 353.5,188.5 353.5,188.5 353.5,188.5 
		353.5,188.5 353.5,188.5 354.5,188.5 354.5,188.5 354.5,188.5 354.5,189.5 354.5,189.5 354.5,189.5 354.5,189.5 354.5,189.5 
		354.5,189.5 354.5,189.5 354.5,189.5 354.5,189.5 354.5,189.5 355.5,189.5 355.5,189.5 355.5,189.5 355.5,189.5 355.5,189.5 
		355.5,189.5 355.5,189.5 355.5,189.5 355.5,190.5 355.5,190.5 355.5,191.5 355.5,192.5 355.5,192.5 356.5,193.5 356.5,194.5 
		356.5,195.5 356.5,196.5 356.5,196.5 356.5,196.5 356.5,197.5 356.5,197.5 356.5,198.5 356.5,199.5 356.5,199.5 356.5,199.5 
		356.5,199.5 357.5,200.5 357.5,200.5 357.5,200.5 357.5,200.5 357.5,200.5 357.5,200.5 357.5,201.5 357.5,201.5 357.5,202.5 
		357.5,202.5 357.5,203.5 357.5,204.5 357.5,204.5 358.5,205.5 358.5,206.5 358.5,206.5 358.5,207.5 358.5,207.5 358.5,208.5 
		358.5,208.5 358.5,208.5 358.5,209.5 358.5,209.5 358.5,209.5 358.5,210.5 358.5,210.5 359.5,210.5 359.5,210.5 359.5,211.5 
		359.5,211.5 359.5,211.5 359.5,211.5 359.5,211.5 359.5,211.5 359.5,211.5 359.5,211.5 359.5,211.5 359.5,211.5 359.5,211.5 
		360.5,211.5 360.5,211.5 360.5,211.5 360.5,210.5 360.5,210.5 360.5,210.5 360.5,211.5 360.5,211.5 360.5,210.5 360.5,210.5 
		360.5,210.5 360.5,209.5 360.5,208.5 361.5,208.5 361.5,207.5 361.5,207.5 361.5,207.5 361.5,207.5 361.5,207.5 361.5,208.5 
		361.5,208.5 361.5,208.5 361.5,208.5 361.5,208.5 361.5,209.5 361.5,209.5 362.5,209.5 362.5,209.5 362.5,209.5 362.5,209.5 
		362.5,209.5 362.5,209.5 362.5,209.5 362.5,209.5 362.5,210.5 362.5,210.5 362.5,210.5 362.5,210.5 362.5,210.5 363.5,211.5 
		363.5,211.5 363.5,211.5 363.5,212.5 363.5,212.5 363.5,213.5 363.5,213.5 363.5,213.5 363.5,213.5 363.5,213.5 363.5,213.5 
		363.5,213.5 363.5,213.5 364.5,213.5 364.5,213.5 364.5,213.5 364.5,213.5 364.5,213.5 364.5,213.5 364.5,214.5 364.5,214.5 
		364.5,214.5 364.5,214.5 364.5,214.5 364.5,214.5 364.5,214.5 365.5,214.5 365.5,214.5 365.5,214.5 365.5,214.5 365.5,214.5 
		365.5,213.5 365.5,213.5 365.5,213.5 365.5,213.5 365.5,212.5 365.5,212.5 365.5,212.5 365.5,212.5 366.5,212.5 366.5,212.5 
		366.5,212.5 366.5,212.5 366.5,212.5 366.5,211.5 366.5,211.5 366.5,211.5 366.5,211.5 366.5,211.5 366.5,211.5 366.5,211.5 
		366.5,212.5 367.5,212.5 367.5,212.5 367.5,212.5 367.5,212.5 367.5,212.5 367.5,212.5 367.5,212.5 367.5,212.5 367.5,213.5 
		367.5,213.5 367.5,213.5 367.5,213.5 367.5,213.5 368.5,213.5 368.5,213.5 368.5,213.5 368.5,213.5 368.5,213.5 368.5,213.5 
		368.5,212.5 368.5,212.5 368.5,212.5 368.5,212.5 368.5,211.5 368.5,211.5 368.5,211.5 369.5,211.5 369.5,211.5 369.5,211.5 
		369.5,211.5 369.5,211.5 369.5,211.5 369.5,210.5 369.5,210.5 369.5,210.5 369.5,209.5 369.5,209.5 369.5,209.5 369.5,209.5 
		370.5,209.5 370.5,208.5 370.5,208.5 370.5,208.5 370.5,208.5 370.5,207.5 370.5,207.5 370.5,207.5 370.5,207.5 370.5,207.5 
		370.5,207.5 370.5,207.5 370.5,207.5 371.5,206.5 371.5,206.5 371.5,206.5 371.5,206.5 371.5,206.5 371.5,206.5 371.5,206.5 
		371.5,205.5 371.5,206.5 371.5,206.5 371.5,206.5 371.5,206.5 371.5,206.5 372.5,205.5 372.5,205.5 372.5,206.5 372.5,206.5 
		372.5,206.5 372.5,205.5 372.5,205.5 372.5,205.5 372.5,204.5 372.5,204.5 372.5,204.5 372.5,204.5 372.5,203.5 373.5,203.5 
		373.5,203.5 373.5,203.5 373.5,204.5 373.5,204.5 373.5,204.5 373.5,204.5 373.5,204.5 373.5,204.5 373.5,204.5 373.5,203.5 
		373.5,203.5 373.5,203.5 374.5,203.5 374.5,202.5 374.5,203.5 374.5,203.5 374.5,203.5 374.5,203.5 374.5,203.5 374.5,203.5 
		374.5,203.5 374.5,203.5 374.5,203.5 374.5,203.5 374.5,203.5 375.5,203.5 375.5,203.5 375.5,203.5 375.5,203.5 375.5,203.5 
		375.5,203.5 375.5,203.5 375.5,203.5 375.5,202.5 375.5,202.5 375.5,202.5 375.5,202.5 375.5,202.5 376.5,202.5 376.5,202.5 
		376.5,201.5 376.5,201.5 376.5,201.5 376.5,201.5 376.5,201.5 376.5,200.5 376.5,200.5 376.5,200.5 376.5,200.5 376.5,200.5 
		376.5,200.5 376.5,200.5 377.5,200.5 377.5,200.5 377.5,200.5 377.5,200.5 377.5,200.5 377.5,200.5 377.5,200.5 377.5,199.5 
		377.5,199.5 377.5,199.5 377.5,199.5 377.5,198.5 377.5,199.5 378.5,199.5 378.5,199.5 378.5,199.5 378.5,199.5 378.5,199.5 
		378.5,199.5 378.5,199.5 378.5,198.5 378.5,198.5 378.5,198.5 378.5,198.5 378.5,198.5 378.5,198.5 379.5,198.5 379.5,198.5 
		379.5,198.5 379.5,198.5 379.5,198.5 379.5,198.5 379.5,198.5 379.5,198.5 379.5,198.5 379.5,199.5 379.5,200.5 379.5,201.5 
		379.5,202.5 380.5,202.5 380.5,201.5 380.5,201.5 380.5,200.5 380.5,200.5 380.5,200.5 380.5,199.5 380.5,199.5 380.5,198.5 
		380.5,198.5 380.5,197.5 380.5,197.5 380.5,196.5 381.5,196.5 381.5,196.5 381.5,196.5 381.5,196.5 381.5,196.5 381.5,196.5 
		381.5,195.5 381.5,195.5 381.5,195.5 381.5,195.5 381.5,195.5 381.5,195.5 381.5,194.5 382.5,194.5 382.5,194.5 382.5,194.5 
		382.5,194.5 382.5,193.5 382.5,193.5 382.5,193.5 382.5,193.5 382.5,193.5 382.5,193.5 382.5,192.5 382.5,192.5 382.5,191.5 
		383.5,191.5 383.5,191.5 383.5,190.5 383.5,190.5 383.5,189.5 383.5,189.5 383.5,189.5 383.5,188.5 383.5,188.5 383.5,188.5 
		383.5,187.5 383.5,187.5 383.5,187.5 384.5,186.5 384.5,186.5 384.5,186.5 384.5,186.5 384.5,185.5 384.5,185.5 384.5,185.5 
		384.5,185.5 384.5,185.5 384.5,185.5 384.5,184.5 384.5,185.5 384.5,185.5 385.5,185.5 385.5,185.5 385.5,184.5 385.5,184.5 
		385.5,184.5 385.5,184.5 385.5,184.5 385.5,184.5 385.5,184.5 385.5,184.5 385.5,183.5 385.5,183.5 385.5,182.5 386.5,182.5 
		386.5,181.5 386.5,180.5 386.5,180.5 386.5,178.5 386.5,177.5 386.5,176.5 386.5,175.5 386.5,174.5 386.5,173.5 386.5,173.5 
		386.5,172.5 386.5,171.5 387.5,170.5 387.5,170.5 387.5,169.5 387.5,168.5 387.5,167.5 387.5,167.5 387.5,166.5 387.5,165.5 
		387.5,165.5 387.5,164.5 387.5,164.5 387.5,163.5 387.5,163.5 388.5,162.5 388.5,162.5 388.5,161.5 388.5,160.5 388.5,160.5 
		388.5,160.5 388.5,160.5 388.5,161.5 388.5,161.5 388.5,161.5 388.5,161.5 388.5,162.5 388.5,162.5 389.5,162.5 389.5,162.5 
		389.5,162.5 389.5,162.5 389.5,162.5 389.5,162.5 389.5,162.5 389.5,162.5 389.5,161.5 389.5,160.5 389.5,160.5 389.5,159.5 
		389.5,159.5 390.5,159.5 390.5,160.5 390.5,160.5 390.5,160.5 390.5,161.5 390.5,161.5 390.5,162.5 390.5,162.5 390.5,163.5 
		390.5,163.5 390.5,164.5 390.5,164.5 390.5,165.5 391.5,166.5 391.5,166.5 391.5,166.5 391.5,166.5 391.5,166.5 391.5,166.5 
		391.5,165.5 391.5,165.5 391.5,165.5 391.5,164.5 391.5,163.5 391.5,162.5 391.5,162.5 392.5,161.5 392.5,161.5 392.5,161.5 
		392.5,160.5 392.5,160.5 392.5,160.5 392.5,159.5 392.5,159.5 392.5,158.5 392.5,158.5 392.5,158.5 392.5,157.5 392.5,157.5 
		393.5,156.5 393.5,156.5 393.5,156.5 393.5,155.5 393.5,155.5 393.5,154.5 393.5,153.5 393.5,153.5 393.5,152.5 393.5,152.5 
		393.5,151.5 393.5,151.5 393.5,150.5 394.5,150.5 394.5,150.5 394.5,149.5 394.5,149.5 394.5,149.5 394.5,148.5 394.5,148.5 
		394.5,147.5 394.5,147.5 394.5,146.5 394.5,146.5 394.5,147.5 394.5,147.5 395.5,147.5 395.5,147.5 395.5,147.5 395.5,147.5 
		395.5,147.5 395.5,146.5 395.5,146.5 395.5,146.5 395.5,146.5 395.5,146.5 395.5,146.5 395.5,146.5 395.5,145.5 396.5,145.5 
		396.5,145.5 396.5,145.5 396.5,145.5 396.5,145.5 396.5,144.5 396.5,144.5 396.5,144.5 396.5,144.5 396.5,143.5 396.5,143.5 
		396.5,143.5 396.5,143.5 397.5,143.5 397.5,142.5 397.5,142.5 397.5,141.5 397.5,141.5 397.5,141.5 397.5,141.5 397.5,141.5 
		397.5,141.5 397.5,141.5 397.5,141.5 397.5,141.5 397.5,142.5 398.5,143.5 398.5,144.5 398.5,145.5 398.5,146.5 398.5,146.5 
		398.5,147.5 398.5,148.5 398.5,149.5 398.5,149.5 398.5,150.5 398.5,150.5 398.5,151.5 398.5,151.5 399.5,151.5 399.5,151.5 
		399.5,151.5 399.5,151.5 399.5,151.5 399.5,150.5 399.5,150.5 399.5,149.5 399.5,149.5 399.5,148.5 399.5,149.5 399.5,149.5 
		399.5,149.5 400.5,149.5 400.5,149.5 400.5,149.5 400.5,149.5 400.5,149.5 400.5,149.5 400.5,149.5 400.5,149.5 400.5,149.5 
		400.5,149.5 400.5,149.5 400.5,149.5 400.5,150.5 401.5,150.5 401.5,151.5 401.5,152.5 401.5,153.5 401.5,154.5 401.5,155.5 
		401.5,156.5 401.5,157.5 401.5,157.5 401.5,157.5 401.5,158.5 401.5,158.5 401.5,158.5 402.5,158.5 402.5,158.5 402.5,158.5 
		402.5,158.5 402.5,157.5 402.5,157.5 402.5,157.5 402.5,156.5 402.5,156.5 402.5,155.5 402.5,155.5 402.5,154.5 402.5,154.5 
		403.5,153.5 403.5,153.5 403.5,152.5 403.5,152.5 403.5,152.5 403.5,152.5 403.5,152.5 403.5,151.5 403.5,151.5 403.5,151.5 
		403.5,151.5 403.5,151.5 403.5,152.5 404.5,152.5 404.5,151.5 404.5,151.5 404.5,151.5 404.5,151.5 404.5,150.5 404.5,149.5 
		404.5,148.5 404.5,147.5 404.5,146.5 404.5,146.5 404.5,145.5 404.5,144.5 405.5,143.5 405.5,143.5 405.5,142.5 405.5,142.5 
		405.5,141.5 405.5,140.5 405.5,139.5 405.5,139.5 405.5,138.5 405.5,137.5 405.5,137.5 405.5,136.5 405.5,136.5 406.5,136.5 
		406.5,136.5 406.5,136.5 406.5,136.5 406.5,135.5 406.5,135.5 406.5,135.5 406.5,135.5 406.5,135.5 406.5,135.5 406.5,134.5 
		406.5,134.5 406.5,134.5 407.5,134.5 407.5,134.5 407.5,134.5 407.5,134.5 407.5,134.5 407.5,134.5 407.5,134.5 407.5,134.5 
		407.5,134.5 407.5,134.5 407.5,134.5 407.5,134.5 407.5,134.5 408.5,134.5 408.5,134.5 408.5,134.5 408.5,134.5 408.5,134.5 
		408.5,134.5 408.5,134.5 408.5,134.5 408.5,134.5 408.5,134.5 408.5,134.5 408.5,134.5 408.5,134.5 409.5,134.5 409.5,134.5 
		409.5,134.5 409.5,134.5 409.5,134.5 409.5,134.5 409.5,134.5 409.5,134.5 409.5,134.5 409.5,134.5 409.5,134.5 409.5,134.5 
		409.5,134.5 410.5,135.5 410.5,135.5 410.5,135.5 410.5,135.5 410.5,135.5 410.5,135.5 410.5,136.5 410.5,136.5 410.5,136.5 
		410.5,136.5 410.5,136.5 410.5,136.5 410.5,136.5 411.5,137.5 411.5,137.5 411.5,137.5 411.5,137.5 411.5,137.5 411.5,138.5 
		411.5,138.5 411.5,138.5 411.5,138.5 411.5,139.5 411.5,139.5 411.5,139.5 411.5,140.5 412.5,140.5 412.5,141.5 412.5,141.5 
		412.5,142.5 412.5,143.5 412.5,144.5 412.5,145.5 412.5,146.5 412.5,146.5 412.5,146.5 412.5,147.5 412.5,149.5 412.5,150.5 
		413.5,151.5 413.5,153.5 413.5,155.5 413.5,157.5 413.5,157.5 413.5,158.5 413.5,158.5 413.5,158.5 413.5,159.5 413.5,159.5 
		413.5,159.5 413.5,159.5 413.5,160.5 414.5,161.5 414.5,161.5 414.5,162.5 414.5,162.5 414.5,163.5 414.5,164.5 414.5,164.5 
		414.5,164.5 414.5,165.5 414.5,166.5 414.5,166.5 414.5,167.5 414.5,169.5 415.5,170.5 415.5,171.5 415.5,171.5 415.5,172.5 
		415.5,173.5 415.5,173.5 415.5,171.5 415.5,170.5 415.5,170.5 415.5,169.5 415.5,168.5 415.5,167.5 415.5,166.5 416.5,165.5 
		416.5,164.5 416.5,162.5 416.5,161.5 416.5,160.5 416.5,159.5 416.5,158.5 416.5,156.5 416.5,155.5 416.5,154.5 416.5,153.5 
		416.5,153.5 416.5,152.5 417.5,151.5 417.5,150.5 417.5,149.5 417.5,148.5 417.5,148.5 417.5,148.5 417.5,149.5 417.5,148.5 
		417.5,148.5 417.5,147.5 417.5,146.5 417.5,147.5 417.5,148.5 418.5,149.5 418.5,150.5 418.5,150.5 418.5,151.5 418.5,151.5 
		418.5,151.5 418.5,152.5 418.5,152.5 418.5,152.5 418.5,152.5 418.5,153.5 418.5,153.5 418.5,153.5 419.5,153.5 419.5,154.5 
		419.5,154.5 419.5,154.5 419.5,154.5 419.5,155.5 419.5,155.5 419.5,155.5 419.5,156.5 419.5,156.5 419.5,157.5 419.5,158.5 
		419.5,159.5 420.5,160.5 420.5,160.5 420.5,160.5 420.5,160.5 420.5,160.5 420.5,160.5 420.5,161.5 420.5,161.5 420.5,161.5 
		420.5,161.5 420.5,161.5 420.5,161.5 420.5,161.5 421.5,161.5 421.5,161.5 421.5,160.5 421.5,160.5 421.5,159.5 421.5,160.5 
		421.5,160.5 421.5,160.5 421.5,160.5 421.5,160.5 421.5,160.5 421.5,160.5 421.5,160.5 422.5,160.5 422.5,160.5 422.5,160.5 
		422.5,160.5 422.5,160.5 422.5,161.5 422.5,161.5 422.5,162.5 422.5,163.5 422.5,164.5 422.5,166.5 422.5,167.5 422.5,169.5 
		423.5,170.5 423.5,171.5 423.5,171.5 423.5,172.5 423.5,172.5 423.5,172.5 423.5,172.5 423.5,172.5 423.5,172.5 423.5,172.5 
		423.5,172.5 423.5,172.5 423.5,173.5 424.5,172.5 424.5,172.5 424.5,172.5 424.5,171.5 424.5,171.5 424.5,171.5 424.5,171.5 
		424.5,171.5 424.5,171.5 424.5,171.5 424.5,170.5 424.5,170.5 424.5,170.5 425.5,170.5 425.5,170.5 425.5,170.5 425.5,170.5 
		425.5,170.5 425.5,169.5 425.5,169.5 425.5,170.5 425.5,170.5 425.5,170.5 425.5,171.5 425.5,171.5 425.5,172.5 426.5,172.5 
		426.5,173.5 426.5,174.5 426.5,174.5 426.5,175.5 426.5,176.5 426.5,176.5 426.5,176.5 426.5,177.5 426.5,177.5 426.5,178.5 
		426.5,178.5 426.5,178.5 427.5,178.5 427.5,178.5 427.5,178.5 427.5,178.5 427.5,178.5 427.5,178.5 427.5,178.5 427.5,178.5 
		427.5,178.5 427.5,178.5 427.5,178.5 427.5,177.5 427.5,177.5 428.5,177.5 428.5,177.5 428.5,177.5 428.5,176.5 428.5,176.5 
		428.5,176.5 428.5,175.5 428.5,175.5 428.5,175.5 428.5,174.5 428.5,174.5 428.5,173.5 428.5,173.5 429.5,173.5 429.5,172.5 
		429.5,172.5 429.5,172.5 429.5,171.5 429.5,171.5 429.5,170.5 429.5,170.5 429.5,170.5 429.5,169.5 429.5,169.5 429.5,168.5 
		429.5,168.5 430.5,167.5 430.5,167.5 430.5,166.5 430.5,166.5 430.5,166.5 430.5,165.5 430.5,165.5 430.5,165.5 430.5,165.5 
		430.5,164.5 430.5,164.5 430.5,164.5 430.5,164.5 431.5,164.5 431.5,164.5 431.5,163.5 431.5,163.5 431.5,163.5 431.5,163.5 
		431.5,164.5 431.5,164.5 431.5,164.5 431.5,164.5 431.5,164.5 431.5,165.5 431.5,165.5 432.5,165.5 432.5,166.5 432.5,166.5 
		432.5,167.5 432.5,167.5 432.5,167.5 432.5,168.5 432.5,168.5 432.5,169.5 432.5,169.5 432.5,169.5 432.5,170.5 432.5,170.5 
		433.5,170.5 433.5,171.5 433.5,171.5 433.5,171.5 433.5,171.5 433.5,172.5 433.5,172.5 433.5,172.5 433.5,172.5 433.5,173.5 
		433.5,173.5 433.5,173.5 433.5,174.5 434.5,174.5 434.5,174.5 434.5,175.5 434.5,175.5 434.5,176.5 434.5,176.5 434.5,177.5 
		434.5,178.5 434.5,178.5 434.5,179.5 434.5,179.5 434.5,180.5 434.5,180.5 435.5,181.5 435.5,181.5 435.5,181.5 435.5,182.5 
		435.5,182.5 435.5,183.5 435.5,183.5 435.5,184.5 435.5,184.5 435.5,184.5 435.5,185.5 435.5,185.5 435.5,186.5 436.5,186.5 
		436.5,187.5 436.5,187.5 436.5,187.5 436.5,188.5 436.5,188.5 436.5,188.5 436.5,189.5 436.5,189.5 436.5,190.5 436.5,190.5 
		436.5,190.5 436.5,190.5 437.5,191.5 437.5,191.5 437.5,191.5 437.5,192.5 437.5,192.5 437.5,192.5 437.5,193.5 437.5,193.5 
		437.5,193.5 437.5,194.5 437.5,194.5 437.5,194.5 437.5,195.5 438.5,195.5 438.5,195.5 438.5,196.5 438.5,196.5 438.5,196.5 
		438.5,197.5 438.5,197.5 438.5,197.5 438.5,197.5 438.5,198.5 438.5,198.5 438.5,198.5 438.5,198.5 439.5,198.5 439.5,198.5 
		439.5,198.5 439.5,198.5 439.5,198.5 439.5,198.5 439.5,199.5 439.5,199.5 439.5,199.5 439.5,199.5 439.5,199.5 439.5,199.5 
		439.5,199.5 440.5,199.5 440.5,199.5 440.5,200.5 440.5,200.5 440.5,199.5 440.5,199.5 440.5,199.5 440.5,199.5 440.5,199.5 
		440.5,199.5 440.5,199.5 440.5,199.5 440.5,199.5 441.5,199.5 441.5,199.5 441.5,199.5 441.5,199.5 441.5,199.5 441.5,199.5 
		441.5,199.5 441.5,199.5 441.5,200.5 441.5,200.5 441.5,200.5 441.5,200.5 441.5,199.5 442.5,199.5 442.5,199.5 442.5,198.5 
		442.5,198.5 442.5,198.5 442.5,198.5 442.5,198.5 442.5,198.5 442.5,198.5 442.5,198.5 442.5,198.5 442.5,198.5 442.5,198.5 
		443.5,198.5 443.5,198.5 443.5,198.5 443.5,198.5 443.5,197.5 443.5,197.5 443.5,197.5 443.5,197.5 443.5,197.5 443.5,197.5 
		443.5,197.5 443.5,197.5 443.5,197.5 444.5,196.5 444.5,196.5 444.5,196.5 444.5,196.5 444.5,196.5 444.5,195.5 444.5,195.5 
		444.5,195.5 444.5,195.5 444.5,195.5 444.5,195.5 444.5,195.5 444.5,195.5 445.5,194.5 445.5,194.5 445.5,194.5 445.5,194.5 
		445.5,194.5 445.5,194.5 445.5,194.5 445.5,194.5 445.5,194.5 445.5,193.5 445.5,193.5 445.5,193.5 445.5,193.5 446.5,193.5 
		446.5,193.5 446.5,193.5 446.5,192.5 446.5,192.5 446.5,192.5 446.5,192.5 446.5,192.5 446.5,192.5 446.5,192.5 446.5,192.5 
		446.5,192.5 446.5,192.5 447.5,192.5 447.5,191.5 447.5,191.5 447.5,191.5 447.5,191.5 447.5,191.5 447.5,191.5 447.5,191.5 
		447.5,191.5 447.5,190.5 447.5,190.5 447.5,190.5 447.5,190.5 448.5,190.5 448.5,189.5 448.5,189.5 448.5,189.5 448.5,189.5 
		448.5,189.5 448.5,188.5 448.5,188.5 448.5,188.5 448.5,188.5 448.5,188.5 448.5,187.5 448.5,187.5 449.5,187.5 449.5,187.5 
		449.5,187.5 449.5,187.5 449.5,186.5 449.5,186.5 449.5,186.5 449.5,186.5 449.5,186.5 449.5,185.5 449.5,185.5 449.5,185.5 
		449.5,185.5 450.5,185.5 450.5,185.5 450.5,184.5 450.5,184.5 450.5,184.5 450.5,184.5 450.5,184.5 450.5,183.5 450.5,183.5 
		450.5,183.5 450.5,183.5 450.5,182.5 450.5,182.5 451.5,182.5 451.5,182.5 451.5,182.5 451.5,181.5 451.5,181.5 451.5,181.5 
		451.5,181.5 451.5,181.5 451.5,181.5 451.5,180.5 451.5,180.5 451.5,180.5 451.5,180.5 452.5,179.5 452.5,179.5 452.5,179.5 
		452.5,179.5 452.5,179.5 452.5,178.5 452.5,178.5 452.5,178.5 452.5,178.5 452.5,177.5 452.5,177.5 452.5,177.5 452.5,177.5 
		453.5,176.5 453.5,176.5 453.5,176.5 453.5,176.5 453.5,176.5 453.5,176.5 453.5,176.5 453.5,176.5 453.5,176.5 453.5,176.5 
		453.5,175.5 453.5,175.5 453.5,175.5 454.5,175.5 454.5,175.5 454.5,175.5 454.5,175.5 454.5,175.5 454.5,175.5 454.5,175.5 
		454.5,175.5 454.5,175.5 454.5,175.5 454.5,175.5 454.5,175.5 454.5,175.5 455.5,175.5 455.5,174.5 455.5,174.5 455.5,174.5 
		455.5,175.5 455.5,175.5 455.5,174.5 455.5,174.5 455.5,174.5 455.5,174.5 455.5,174.5 455.5,174.5 455.5,174.5 456.5,174.5 
		456.5,175.5 456.5,174.5 456.5,174.5 456.5,174.5 456.5,174.5 456.5,175.5 456.5,175.5 456.5,175.5 456.5,175.5 456.5,175.5 
		456.5,175.5 456.5,175.5 457.5,175.5 457.5,176.5 457.5,176.5 457.5,176.5 457.5,176.5 457.5,177.5 457.5,177.5 457.5,177.5 
		457.5,177.5 457.5,177.5 457.5,177.5 457.5,177.5 457.5,177.5 458.5,177.5 458.5,177.5 458.5,177.5 458.5,177.5 458.5,176.5 
		458.5,176.5 458.5,176.5 458.5,176.5 458.5,176.5 458.5,176.5 458.5,175.5 458.5,175.5 458.5,175.5 459.5,174.5 459.5,174.5 
		459.5,174.5 459.5,173.5 459.5,173.5 459.5,173.5 459.5,173.5 459.5,173.5 459.5,173.5 459.5,173.5 459.5,172.5 459.5,172.5 
		459.5,172.5 460.5,171.5 460.5,171.5 460.5,171.5 460.5,170.5 460.5,170.5 460.5,170.5 460.5,170.5 460.5,169.5 460.5,169.5 
		460.5,169.5 460.5,169.5 460.5,169.5 460.5,169.5 461.5,169.5 461.5,169.5 461.5,169.5 461.5,170.5 461.5,170.5 461.5,170.5 
		461.5,170.5 461.5,170.5 461.5,171.5 461.5,171.5 461.5,171.5 461.5,172.5 461.5,172.5 462.5,172.5 462.5,172.5 462.5,172.5 
		462.5,173.5 462.5,173.5 462.5,173.5 462.5,173.5 462.5,174.5 462.5,174.5 462.5,174.5 462.5,174.5 462.5,174.5 462.5,174.5 
		463.5,174.5 463.5,174.5 463.5,174.5 463.5,174.5 463.5,173.5 463.5,173.5 463.5,173.5 463.5,173.5 463.5,172.5 463.5,172.5 
		463.5,172.5 463.5,171.5 463.5,171.5 464.5,171.5 464.5,171.5 464.5,170.5 464.5,170.5 464.5,170.5 464.5,170.5 464.5,170.5 
		464.5,170.5 464.5,170.5 464.5,169.5 464.5,169.5 464.5,169.5 464.5,169.5 465.5,169.5 465.5,168.5 465.5,168.5 465.5,168.5 
		465.5,168.5 465.5,168.5 465.5,167.5 465.5,167.5 465.5,167.5 465.5,167.5 465.5,166.5 465.5,166.5 465.5,166.5 466.5,166.5 
		466.5,166.5 466.5,166.5 466.5,166.5 466.5,166.5 466.5,166.5 466.5,166.5 466.5,166.5 466.5,166.5 466.5,166.5 466.5,166.5 
		466.5,166.5 466.5,166.5 467.5,167.5 467.5,167.5 467.5,167.5 467.5,167.5 467.5,167.5 467.5,167.5 467.5,167.5 467.5,167.5 
		467.5,167.5 467.5,167.5 467.5,166.5 467.5,166.5 467.5,166.5 468.5,166.5 468.5,165.5 468.5,165.5 468.5,165.5 468.5,164.5 
		468.5,164.5 468.5,164.5 468.5,164.5 468.5,164.5 468.5,164.5 468.5,163.5 468.5,163.5 468.5,163.5 469.5,163.5 469.5,163.5 
		469.5,163.5 469.5,163.5 469.5,163.5 469.5,163.5 469.5,162.5 469.5,162.5 469.5,162.5 469.5,162.5 469.5,162.5 469.5,162.5 
		469.5,162.5 470.5,162.5 470.5,162.5 470.5,162.5 470.5,162.5 470.5,162.5 470.5,162.5 470.5,162.5 470.5,162.5 470.5,162.5 
		470.5,162.5 470.5,162.5 470.5,162.5 470.5,162.5 471.5,162.5 471.5,162.5 471.5,162.5 471.5,162.5 471.5,162.5 471.5,162.5 
		471.5,162.5 471.5,162.5 471.5,162.5 471.5,162.5 471.5,161.5 471.5,161.5 471.5,161.5 472.5,161.5 472.5,161.5 472.5,161.5 
		472.5,161.5 472.5,161.5 472.5,161.5 472.5,161.5 472.5,160.5 472.5,160.5 472.5,160.5 472.5,160.5 472.5,160.5 472.5,160.5 
		473.5,159.5 473.5,159.5 473.5,159.5 473.5,159.5 473.5,159.5 473.5,158.5 473.5,158.5 473.5,158.5 473.5,158.5 473.5,157.5 
		473.5,157.5 473.5,157.5 473.5,157.5 474.5,157.5 474.5,156.5 474.5,156.5 474.5,156.5 474.5,156.5 474.5,156.5 474.5,156.5 
		474.5,156.5 474.5,156.5 474.5,156.5 474.5,156.5 474.5,156.5 474.5,156.5 475.5,156.5 475.5,156.5 475.5,156.5 475.5,156.5 
		475.5,156.5 475.5,156.5 475.5,156.5 475.5,155.5 475.5,155.5 475.5,155.5 475.5,155.5 475.5,155.5 475.5,155.5 476.5,154.5 
		476.5,154.5 476.5,154.5 476.5,154.5 476.5,154.5 476.5,154.5 476.5,153.5 476.5,153.5 476.5,153.5 476.5,153.5 476.5,153.5 
		476.5,152.5 476.5,152.5 477.5,152.5 477.5,152.5 477.5,152.5 477.5,152.5 477.5,152.5 477.5,152.5 477.5,152.5 477.5,152.5 
		477.5,152.5 477.5,152.5 477.5,153.5 477.5,153.5 477.5,153.5 478.5,153.5 478.5,154.5 478.5,154.5 478.5,154.5 478.5,154.5 
		478.5,155.5 478.5,155.5 478.5,155.5 478.5,156.5 478.5,156.5 478.5,156.5 478.5,157.5 478.5,157.5 479.5,157.5 479.5,158.5 
		479.5,158.5 479.5,159.5 479.5,159.5 479.5,160.5 479.5,160.5 479.5,160.5 479.5,161.5 479.5,161.5 479.5,161.5 479.5,162.5 
		479.5,162.5 480.5,162.5 480.5,163.5 480.5,163.5 480.5,163.5 480.5,163.5 480.5,164.5 480.5,164.5 480.5,164.5 480.5,164.5 
		480.5,165.5 480.5,165.5 480.5,165.5 480.5,165.5 481.5,165.5 481.5,166.5 481.5,166.5 481.5,166.5 481.5,166.5 481.5,167.5 
		481.5,167.5 481.5,167.5 481.5,167.5 481.5,167.5 481.5,167.5 481.5,168.5 481.5,168.5 482.5,168.5 482.5,168.5 482.5,168.5 
		482.5,169.5 482.5,169.5 482.5,169.5 482.5,169.5 482.5,169.5 482.5,169.5 482.5,169.5 482.5,169.5 482.5,169.5 482.5,169.5 
		483.5,169.5 483.5,169.5 483.5,169.5 483.5,169.5 483.5,169.5 483.5,168.5 483.5,168.5 483.5,167.5 483.5,166.5 483.5,166.5 
		483.5,166.5 483.5,165.5 483.5,165.5 483.5,165.5 484.5,164.5 484.5,164.5 484.5,163.5 484.5,163.5 484.5,162.5 484.5,161.5 
		484.5,161.5 484.5,160.5 484.5,160.5 484.5,159.5 484.5,159.5 484.5,158.5 484.5,158.5 485.5,157.5 485.5,157.5 485.5,157.5 
		485.5,156.5 485.5,156.5 485.5,156.5 485.5,155.5 485.5,155.5 485.5,155.5 485.5,155.5 485.5,155.5 485.5,155.5 485.5,155.5 
		486.5,156.5 486.5,156.5 486.5,156.5 486.5,156.5 486.5,156.5 486.5,156.5 486.5,157.5 486.5,157.5 486.5,157.5 486.5,157.5 
		486.5,158.5 486.5,158.5 486.5,158.5 487.5,158.5 487.5,157.5 487.5,157.5 487.5,157.5 487.5,157.5 487.5,156.5 487.5,156.5 
		487.5,156.5 487.5,156.5 487.5,155.5 487.5,155.5 487.5,155.5 487.5,155.5 488.5,154.5 488.5,154.5 488.5,154.5 488.5,153.5 
		488.5,153.5 488.5,152.5 488.5,152.5 488.5,151.5 488.5,151.5 488.5,151.5 488.5,150.5 488.5,150.5 488.5,150.5 489.5,150.5 
		489.5,150.5 489.5,149.5 489.5,149.5 489.5,149.5 489.5,149.5 489.5,148.5 489.5,148.5 489.5,148.5 489.5,147.5 489.5,147.5 
		489.5,146.5 489.5,146.5 490.5,146.5 490.5,145.5 490.5,145.5 490.5,145.5 490.5,144.5 490.5,144.5 490.5,144.5 490.5,144.5 
		490.5,144.5 490.5,144.5 490.5,144.5 490.5,144.5 490.5,144.5 491.5,144.5 491.5,144.5 491.5,144.5 491.5,145.5 491.5,145.5 
		491.5,145.5 491.5,145.5 491.5,145.5 491.5,145.5 491.5,146.5 491.5,146.5 491.5,146.5 491.5,146.5 492.5,146.5 492.5,146.5 
		492.5,145.5 492.5,145.5 492.5,146.5 492.5,146.5 492.5,146.5 492.5,146.5 492.5,145.5 492.5,145.5 492.5,145.5 492.5,144.5 
		492.5,145.5 493.5,145.5 493.5,145.5 493.5,145.5 493.5,145.5 493.5,145.5 493.5,145.5 493.5,145.5 493.5,145.5 493.5,145.5 
		493.5,145.5 493.5,145.5 493.5,145.5 493.5,145.5 494.5,145.5 494.5,145.5 494.5,146.5 494.5,146.5 494.5,147.5 494.5,147.5 
		494.5,147.5 494.5,147.5 494.5,147.5 494.5,147.5 494.5,147.5 494.5,147.5 494.5,147.5 495.5,147.5 495.5,146.5 495.5,146.5 
		495.5,145.5 495.5,145.5 495.5,144.5 495.5,143.5 495.5,142.5 495.5,142.5 495.5,141.5 495.5,140.5 495.5,141.5 495.5,140.5 
		496.5,140.5 496.5,140.5 496.5,139.5 496.5,139.5 496.5,139.5 496.5,139.5 496.5,139.5 496.5,139.5 496.5,139.5 496.5,139.5 
		496.5,139.5 496.5,139.5 496.5,138.5 497.5,138.5 497.5,138.5 497.5,138.5 497.5,138.5 497.5,138.5 497.5,138.5 497.5,138.5 
		497.5,138.5 497.5,138.5 497.5,138.5 497.5,138.5 497.5,137.5 497.5,137.5 498.5,136.5 498.5,135.5 498.5,135.5 498.5,134.5 
		498.5,133.5 498.5,133.5 498.5,132.5 498.5,132.5 498.5,131.5 498.5,130.5 498.5,129.5 498.5,129.5 498.5,128.5 499.5,127.5 
		499.5,126.5 499.5,126.5 499.5,125.5 499.5,125.5 499.5,125.5 499.5,125.5 499.5,125.5 499.5,125.5 499.5,125.5 499.5,125.5 
		499.5,125.5 499.5,125.5 500.5,125.5 500.5,125.5 500.5,125.5 500.5,125.5 500.5,125.5 500.5,125.5 500.5,125.5 500.5,125.5 
		500.5,125.5 500.5,125.5 500.5,125.5 500.5,126.5 500.5,126.5 501.5,126.5 501.5,126.5 501.5,126.5 501.5,127.5 501.5,127.5 
		501.5,127.5 501.5,127.5 501.5,128.5 501.5,128.5 501.5,129.5 501.5,129.5 501.5,130.5 501.5,130.5 502.5,130.5 502.5,131.5 
		502.5,132.5 502.5,132.5 502.5,132.5 502.5,133.5 502.5,133.5 502.5,134.5 502.5,134.5 502.5,135.5 502.5,135.5 502.5,136.5 
		502.5,137.5 503.5,137.5 503.5,138.5 503.5,138.5 503.5,139.5 503.5,139.5 503.5,140.5 503.5,141.5 503.5,141.5 503.5,141.5 
		503.5,142.5 503.5,142.5 503.5,142.5 503.5,143.5 504.5,143.5 504.5,144.5 504.5,144.5 504.5,145.5 504.5,146.5 504.5,146.5 
		504.5,147.5 504.5,148.5 504.5,149.5 504.5,150.5 504.5,151.5 504.5,150.5 504.5,150.5 505.5,150.5 505.5,150.5 505.5,150.5 
		505.5,151.5 505.5,151.5 505.5,151.5 505.5,151.5 505.5,151.5 505.5,151.5 505.5,151.5 505.5,151.5 505.5,151.5 505.5,151.5 
		506.5,151.5 506.5,151.5 506.5,151.5 506.5,151.5 506.5,151.5 506.5,151.5 506.5,152.5 506.5,152.5 506.5,152.5 506.5,152.5 
		506.5,153.5 506.5,153.5 506.5,153.5 507.5,154.5 507.5,154.5 507.5,154.5 507.5,155.5 507.5,155.5 507.5,156.5 507.5,156.5 
		507.5,157.5 507.5,157.5 507.5,157.5 507.5,158.5 507.5,158.5 507.5,158.5 508.5,158.5 508.5,159.5 508.5,159.5 508.5,159.5 
		508.5,159.5 508.5,159.5 508.5,159.5 508.5,159.5 508.5,159.5 508.5,159.5 508.5,160.5 508.5,160.5 508.5,161.5 509.5,161.5 
		509.5,162.5 509.5,162.5 509.5,163.5 509.5,163.5 509.5,164.5 509.5,164.5 509.5,165.5 509.5,165.5 509.5,166.5 509.5,166.5 
		509.5,167.5 509.5,167.5 510.5,168.5 510.5,168.5 510.5,168.5 510.5,168.5 510.5,169.5 510.5,169.5 510.5,169.5 510.5,170.5 
		510.5,170.5 510.5,170.5 510.5,170.5 510.5,170.5 510.5,171.5 511.5,171.5 511.5,171.5 511.5,171.5 511.5,171.5 511.5,172.5 
		511.5,172.5 511.5,172.5 511.5,172.5 511.5,173.5 511.5,173.5 511.5,173.5 511.5,173.5 511.5,173.5 512.5,173.5 512.5,173.5 
		512.5,174.5 512.5,174.5 512.5,174.5 512.5,174.5 512.5,174.5 512.5,174.5 512.5,174.5 512.5,175.5 512.5,175.5 512.5,175.5 
		512.5,175.5 513.5,175.5 513.5,175.5 513.5,175.5 513.5,175.5 513.5,176.5 513.5,176.5 513.5,176.5 513.5,176.5 513.5,175.5 
		513.5,175.5 513.5,175.5 513.5,175.5 513.5,175.5 514.5,175.5 514.5,175.5 514.5,175.5 514.5,175.5 514.5,175.5 514.5,175.5 
		514.5,175.5 514.5,175.5 514.5,175.5 514.5,175.5 514.5,174.5 514.5,174.5 514.5,174.5 515.5,174.5 515.5,174.5 515.5,174.5 
		515.5,174.5 515.5,173.5 515.5,173.5 515.5,173.5 515.5,173.5 515.5,173.5 515.5,173.5 515.5,173.5 515.5,173.5 515.5,173.5 
		516.5,172.5 516.5,172.5 516.5,172.5 516.5,172.5 516.5,172.5 516.5,172.5 516.5,172.5 516.5,172.5 516.5,172.5 516.5,172.5 
		516.5,172.5 516.5,172.5 516.5,172.5 517.5,172.5 517.5,172.5 517.5,171.5 517.5,171.5 517.5,171.5 517.5,171.5 517.5,171.5 
		517.5,171.5 517.5,171.5 517.5,171.5 517.5,171.5 517.5,171.5 517.5,171.5 518.5,171.5 518.5,171.5 518.5,171.5 518.5,170.5 
		518.5,170.5 518.5,170.5 518.5,170.5 518.5,170.5 518.5,170.5 518.5,170.5 518.5,170.5 518.5,170.5 518.5,170.5 519.5,170.5 
		519.5,170.5 519.5,170.5 519.5,170.5 519.5,170.5 519.5,170.5 519.5,170.5 519.5,170.5 519.5,170.5 519.5,170.5 519.5,171.5 
		519.5,171.5 519.5,171.5 520.5,171.5 520.5,172.5 520.5,172.5 520.5,172.5 520.5,172.5 520.5,172.5 520.5,172.5 520.5,173.5 
		520.5,173.5 520.5,173.5 520.5,173.5 520.5,173.5 520.5,173.5 521.5,173.5 521.5,173.5 521.5,173.5 521.5,173.5 521.5,173.5 
		521.5,173.5 521.5,173.5 521.5,173.5 521.5,172.5 521.5,172.5 521.5,172.5 521.5,172.5 521.5,172.5 522.5,172.5 522.5,172.5 
		522.5,172.5 522.5,172.5 522.5,171.5 522.5,171.5 522.5,171.5 522.5,171.5 522.5,170.5 522.5,170.5 522.5,170.5 522.5,170.5 
		522.5,169.5 523.5,169.5 523.5,169.5 523.5,169.5 523.5,169.5 523.5,168.5 523.5,168.5 523.5,168.5 523.5,168.5 523.5,168.5 
		523.5,168.5 523.5,168.5 523.5,168.5 523.5,168.5 524.5,168.5 524.5,168.5 524.5,168.5 524.5,168.5 524.5,168.5 524.5,168.5 
		524.5,168.5 524.5,168.5 524.5,168.5 524.5,168.5 524.5,168.5 524.5,168.5 524.5,168.5 525.5,168.5 525.5,168.5 525.5,168.5 
		525.5,168.5 525.5,168.5 525.5,168.5 525.5,168.5 525.5,168.5 525.5,168.5 525.5,168.5 525.5,168.5 525.5,168.5 525.5,168.5 
		526.5,168.5 526.5,167.5 526.5,167.5 526.5,167.5 526.5,167.5 526.5,167.5 526.5,166.5 526.5,166.5 526.5,166.5 526.5,166.5 
		526.5,165.5 526.5,165.5 526.5,165.5 527.5,164.5 527.5,164.5 527.5,163.5 527.5,163.5 527.5,163.5 527.5,162.5 527.5,162.5 
		527.5,162.5 527.5,162.5 527.5,161.5 527.5,161.5 527.5,161.5 527.5,160.5 528.5,160.5 528.5,160.5 528.5,160.5 528.5,160.5 
		528.5,160.5 528.5,160.5 528.5,160.5 528.5,160.5 528.5,161.5 528.5,161.5 528.5,161.5 528.5,161.5 528.5,161.5 529.5,161.5 
		529.5,161.5 529.5,161.5 529.5,161.5 529.5,161.5 529.5,161.5 529.5,161.5 529.5,161.5 529.5,161.5 529.5,161.5 529.5,160.5 
		529.5,160.5 529.5,160.5 530.5,160.5 530.5,160.5 530.5,160.5 530.5,160.5 530.5,160.5 530.5,160.5 530.5,160.5 530.5,160.5 
		530.5,160.5 530.5,160.5 530.5,160.5 530.5,161.5 530.5,161.5 531.5,161.5 531.5,161.5 531.5,161.5 531.5,161.5 531.5,161.5 
		531.5,161.5 531.5,161.5 531.5,161.5 531.5,161.5 531.5,161.5 531.5,161.5 531.5,161.5 531.5,161.5 532.5,161.5 532.5,161.5 
		532.5,161.5 532.5,161.5 532.5,161.5 532.5,161.5 532.5,161.5 532.5,161.5 532.5,161.5 532.5,161.5 532.5,160.5 532.5,160.5 
		532.5,160.5 533.5,160.5 533.5,160.5 533.5,160.5 533.5,160.5 533.5,160.5 533.5,160.5 533.5,160.5 533.5,160.5 533.5,160.5 
		533.5,159.5 533.5,159.5 533.5,159.5 533.5,159.5 534.5,159.5 534.5,159.5 534.5,159.5 534.5,158.5 534.5,158.5 534.5,158.5 
		534.5,158.5 534.5,158.5 534.5,158.5 534.5,157.5 534.5,157.5 534.5,157.5 534.5,157.5 535.5,157.5 535.5,156.5 535.5,156.5 
		535.5,156.5 535.5,156.5 535.5,156.5 535.5,156.5 535.5,156.5 535.5,156.5 535.5,156.5 535.5,156.5 535.5,156.5 535.5,156.5 
		536.5,156.5 536.5,156.5 536.5,156.5 536.5,157.5 536.5,157.5 536.5,157.5 536.5,157.5 536.5,157.5 536.5,157.5 536.5,157.5 
		536.5,157.5 536.5,157.5 536.5,157.5 537.5,157.5 537.5,156.5 537.5,156.5 537.5,156.5 537.5,156.5 537.5,156.5 537.5,156.5 
		537.5,156.5 537.5,156.5 537.5,156.5 537.5,156.5 537.5,156.5 537.5,155.5 538.5,155.5 538.5,155.5 538.5,155.5 538.5,155.5 
		538.5,155.5 538.5,155.5 538.5,155.5 538.5,155.5 538.5,155.5 538.5,155.5 538.5,155.5 538.5,155.5 538.5,155.5 539.5,155.5 
		539.5,154.5 539.5,154.5 539.5,154.5 539.5,154.5 539.5,154.5 539.5,154.5 539.5,154.5 539.5,153.5 539.5,153.5 539.5,153.5 
		539.5,153.5 539.5,153.5 540.5,153.5 540.5,153.5 540.5,152.5 540.5,152.5 540.5,152.5 540.5,152.5 540.5,152.5 540.5,152.5 
		540.5,152.5 540.5,151.5 540.5,151.5 540.5,151.5 540.5,151.5 541.5,151.5 541.5,151.5 541.5,151.5 541.5,151.5 541.5,150.5 
		541.5,150.5 541.5,150.5 541.5,150.5 541.5,150.5 541.5,150.5 541.5,150.5 541.5,150.5 541.5,150.5 542.5,150.5 542.5,150.5 
		542.5,150.5 542.5,150.5 542.5,149.5 542.5,149.5 542.5,149.5 542.5,149.5 542.5,149.5 542.5,149.5 542.5,149.5 542.5,149.5 
		542.5,149.5 543.5,148.5 543.5,148.5 543.5,148.5 543.5,148.5 543.5,148.5 543.5,148.5 543.5,148.5 543.5,147.5 543.5,147.5 
		543.5,147.5 543.5,147.5 543.5,147.5 543.5,147.5 544.5,147.5 544.5,146.5 544.5,146.5 544.5,146.5 544.5,147.5 544.5,147.5 
		544.5,147.5 544.5,147.5 544.5,146.5 544.5,146.5 544.5,146.5 544.5,146.5 544.5,146.5 545.5,146.5 545.5,146.5 545.5,147.5 
		545.5,146.5 545.5,146.5 545.5,146.5 545.5,147.5 545.5,147.5 545.5,147.5 545.5,147.5 545.5,147.5 545.5,147.5 545.5,147.5 
		546.5,147.5 546.5,147.5 546.5,147.5 546.5,148.5 546.5,148.5 546.5,148.5 546.5,148.5 546.5,148.5 546.5,149.5 546.5,149.5 
		546.5,150.5 546.5,151.5 546.5,152.5 547.5,152.5 547.5,152.5 547.5,153.5 547.5,152.5 547.5,153.5 547.5,153.5 547.5,153.5 
		547.5,153.5 547.5,153.5 547.5,153.5 547.5,154.5 547.5,154.5 547.5,154.5 548.5,154.5 548.5,154.5 548.5,155.5 548.5,155.5 
		548.5,155.5 548.5,155.5 548.5,155.5 548.5,155.5 548.5,156.5 548.5,156.5 548.5,156.5 548.5,156.5 548.5,156.5 549.5,156.5 
		549.5,156.5 549.5,156.5 549.5,156.5 549.5,156.5 549.5,156.5 549.5,156.5 549.5,156.5 549.5,156.5 549.5,156.5 549.5,156.5 
		549.5,156.5 549.5,156.5 550.5,156.5 550.5,156.5 550.5,157.5 550.5,157.5 550.5,157.5 550.5,157.5 550.5,157.5 550.5,158.5 
		550.5,158.5 550.5,158.5 550.5,158.5 550.5,158.5 550.5,158.5 551.5,158.5 551.5,158.5 551.5,158.5 551.5,158.5 551.5,158.5 
		551.5,158.5 551.5,159.5 551.5,159.5 551.5,159.5 551.5,159.5 551.5,159.5 551.5,159.5 551.5,159.5 552.5,159.5 552.5,158.5 
		552.5,158.5 552.5,158.5 552.5,158.5 552.5,158.5 552.5,158.5 552.5,158.5 552.5,158.5 552.5,158.5 552.5,158.5 552.5,159.5 
		552.5,159.5 553.5,159.5 553.5,159.5 553.5,159.5 553.5,159.5 553.5,160.5 553.5,160.5 553.5,160.5 553.5,161.5 553.5,161.5 
		553.5,162.5 553.5,162.5 553.5,163.5 553.5,163.5 554.5,163.5 554.5,163.5 554.5,163.5 554.5,163.5 554.5,163.5 554.5,163.5 
		554.5,163.5 554.5,163.5 554.5,163.5 554.5,162.5 554.5,162.5 554.5,161.5 554.5,161.5 555.5,161.5 555.5,160.5 555.5,160.5 
		555.5,160.5 555.5,159.5 555.5,159.5 555.5,159.5 555.5,158.5 555.5,158.5 555.5,157.5 555.5,157.5 555.5,156.5 555.5,156.5 
		556.5,155.5 556.5,155.5 556.5,154.5 556.5,154.5 556.5,153.5 556.5,153.5 556.5,152.5 556.5,152.5 556.5,151.5 556.5,150.5 
		556.5,150.5 556.5,149.5 556.5,148.5 557.5,148.5 557.5,148.5 557.5,148.5 557.5,148.5 557.5,148.5 557.5,148.5 557.5,148.5 
		557.5,149.5 557.5,149.5 557.5,149.5 557.5,149.5 557.5,149.5 557.5,150.5 558.5,150.5 558.5,150.5 558.5,151.5 558.5,151.5 
		558.5,151.5 558.5,151.5 558.5,152.5 558.5,152.5 558.5,152.5 558.5,153.5 558.5,153.5 558.5,153.5 558.5,153.5 559.5,154.5 
		559.5,154.5 559.5,154.5 559.5,155.5 559.5,155.5 559.5,155.5 559.5,156.5 559.5,156.5 559.5,157.5 559.5,157.5 559.5,158.5 
		559.5,158.5 559.5,159.5 560.5,159.5 560.5,160.5 560.5,160.5 560.5,161.5 560.5,162.5 560.5,162.5 560.5,163.5 560.5,164.5 
		560.5,165.5 560.5,165.5 560.5,166.5 560.5,167.5 560.5,167.5 561.5,168.5 561.5,169.5 561.5,169.5 561.5,170.5 561.5,170.5 
		561.5,171.5 561.5,171.5 561.5,171.5 561.5,171.5 561.5,171.5 561.5,171.5 561.5,170.5 561.5,170.5 562.5,170.5 562.5,170.5 
		562.5,170.5 562.5,170.5 562.5,170.5 562.5,170.5 562.5,170.5 562.5,170.5 562.5,170.5 562.5,170.5 562.5,170.5 562.5,170.5 
		562.5,170.5 563.5,170.5 563.5,170.5 563.5,170.5 563.5,170.5 563.5,170.5 563.5,170.5 563.5,170.5 563.5,170.5 563.5,170.5 
		563.5,170.5 563.5,170.5 563.5,170.5 563.5,170.5 564.5,170.5 564.5,170.5 564.5,170.5 564.5,170.5 564.5,170.5 564.5,170.5 
		564.5,169.5 564.5,169.5 564.5,169.5 564.5,169.5 564.5,169.5 564.5,169.5 564.5,169.5 565.5,169.5 565.5,169.5 565.5,169.5 
		565.5,169.5 565.5,169.5 565.5,169.5 565.5,169.5 565.5,169.5 565.5,169.5 565.5,169.5 565.5,169.5 565.5,168.5 565.5,168.5 
		566.5,168.5 566.5,168.5 566.5,168.5 566.5,168.5 566.5,168.5 566.5,167.5 566.5,167.5 566.5,167.5 566.5,167.5 566.5,167.5 
		566.5,167.5 566.5,167.5 566.5,167.5 567.5,167.5 567.5,167.5 567.5,167.5 567.5,167.5 567.5,167.5 567.5,167.5 567.5,167.5 
		567.5,167.5 567.5,167.5 567.5,167.5 567.5,167.5 567.5,167.5 567.5,166.5 568.5,166.5 568.5,166.5 568.5,166.5 568.5,166.5 
		568.5,166.5 568.5,166.5 568.5,166.5 568.5,166.5 568.5,165.5 568.5,165.5 568.5,165.5 568.5,165.5 568.5,165.5 569.5,164.5 
		569.5,164.5 569.5,164.5 569.5,164.5 569.5,164.5 569.5,164.5 569.5,164.5 569.5,163.5 569.5,163.5 569.5,163.5 569.5,163.5 
		569.5,163.5 569.5,163.5 570.5,163.5 570.5,162.5 570.5,162.5 570.5,162.5 570.5,162.5 570.5,162.5 570.5,162.5 570.5,162.5 
		570.5,161.5 570.5,161.5 570.5,161.5 570.5,161.5 570.5,160.5 571.5,160.5 571.5,160.5 571.5,160.5 571.5,160.5 571.5,159.5 
		571.5,159.5 571.5,159.5 571.5,159.5 571.5,159.5 571.5,159.5 571.5,159.5 571.5,158.5 571.5,158.5 572.5,158.5 572.5,158.5 
		572.5,158.5 572.5,158.5 572.5,158.5 572.5,157.5 572.5,157.5 572.5,157.5 572.5,157.5 572.5,157.5 572.5,157.5 572.5,157.5 
		572.5,157.5 573.5,158.5 573.5,158.5 573.5,158.5 573.5,158.5 573.5,158.5 573.5,158.5 573.5,158.5 573.5,158.5 573.5,158.5 
		573.5,159.5 573.5,159.5 573.5,159.5 573.5,159.5 574.5,159.5 574.5,160.5 574.5,160.5 574.5,160.5 574.5,160.5 574.5,160.5 
		574.5,161.5 574.5,161.5 574.5,161.5 574.5,161.5 574.5,161.5 574.5,161.5 574.5,161.5 575.5,161.5 575.5,160.5 575.5,160.5 
		575.5,160.5 575.5,160.5 575.5,160.5 575.5,160.5 575.5,160.5 575.5,160.5 575.5,159.5 575.5,159.5 575.5,159.5 575.5,159.5 
		576.5,159.5 576.5,158.5 576.5,158.5 576.5,158.5 576.5,158.5 576.5,159.5 576.5,159.5 576.5,159.5 576.5,159.5 576.5,159.5 
		576.5,159.5 576.5,159.5 576.5,160.5 577.5,160.5 577.5,160.5 577.5,160.5 577.5,160.5 577.5,160.5 577.5,161.5 577.5,161.5 
		577.5,161.5 577.5,161.5 577.5,161.5 577.5,162.5 577.5,162.5 577.5,162.5 578.5,162.5 578.5,162.5 578.5,162.5 578.5,162.5 
		578.5,162.5 578.5,162.5 578.5,162.5 578.5,162.5 578.5,162.5 578.5,162.5 578.5,163.5 578.5,163.5 578.5,163.5 579.5,163.5 
		579.5,163.5 579.5,163.5 579.5,163.5 579.5,163.5 579.5,163.5 579.5,163.5 579.5,163.5 579.5,163.5 579.5,163.5 579.5,163.5 
		579.5,163.5 579.5,163.5 580.5,163.5 580.5,163.5 580.5,163.5 580.5,163.5 580.5,162.5 580.5,162.5 580.5,162.5 580.5,162.5 
		580.5,162.5 580.5,162.5 580.5,161.5 580.5,161.5 580.5,161.5 581.5,161.5 581.5,161.5 581.5,161.5 581.5,161.5 581.5,161.5 
		581.5,161.5 581.5,161.5 581.5,161.5 581.5,161.5 581.5,160.5 581.5,160.5 581.5,160.5 581.5,160.5 582.5,160.5 582.5,160.5 
		582.5,160.5 582.5,159.5 582.5,159.5 582.5,159.5 582.5,159.5 582.5,159.5 582.5,158.5 582.5,158.5 582.5,158.5 582.5,158.5 
		582.5,158.5 583.5,157.5 583.5,157.5 583.5,157.5 583.5,157.5 583.5,157.5 583.5,157.5 583.5,157.5 583.5,157.5 583.5,157.5 
		583.5,157.5 583.5,156.5 583.5,156.5 583.5,157.5 584.5,157.5 584.5,157.5 584.5,157.5 584.5,157.5 584.5,157.5 584.5,157.5 
		584.5,157.5 584.5,157.5 584.5,157.5 584.5,158.5 584.5,158.5 584.5,158.5 584.5,158.5 585.5,158.5 585.5,158.5 585.5,158.5 
		585.5,159.5 585.5,159.5 585.5,159.5 585.5,159.5 585.5,159.5 585.5,159.5 585.5,159.5 585.5,159.5 585.5,159.5 585.5,159.5 
		586.5,159.5 586.5,159.5 586.5,159.5 586.5,159.5 586.5,159.5 586.5,159.5 586.5,159.5 586.5,159.5 586.5,159.5 586.5,159.5 
		586.5,159.5 586.5,159.5 586.5,159.5 587.5,158.5 587.5,158.5 587.5,158.5 587.5,158.5 587.5,158.5 587.5,158.5 587.5,158.5 
		587.5,157.5 587.5,157.5 587.5,157.5 587.5,157.5 587.5,157.5 587.5,157.5 588.5,157.5 588.5,157.5 588.5,157.5 588.5,156.5 
		588.5,156.5 588.5,156.5 588.5,156.5 588.5,156.5 588.5,156.5 588.5,156.5 588.5,156.5 588.5,156.5 588.5,155.5 589.5,155.5 
		589.5,155.5 589.5,155.5 589.5,154.5 589.5,154.5 589.5,154.5 589.5,154.5 589.5,154.5 589.5,154.5 589.5,154.5 589.5,154.5 
		589.5,154.5 589.5,154.5 590.5,153.5 590.5,153.5 590.5,153.5 590.5,153.5 590.5,153.5 590.5,153.5 590.5,153.5 590.5,153.5 
		590.5,154.5 590.5,154.5 590.5,154.5 590.5,154.5 590.5,154.5 590.5,154.5 591.5,155.5 591.5,155.5 591.5,155.5 591.5,156.5 
		591.5,156.5 591.5,156.5 591.5,156.5 591.5,156.5 591.5,156.5 591.5,156.5 591.5,156.5 591.5,156.5 591.5,156.5 592.5,156.5 
		592.5,156.5 592.5,155.5 592.5,155.5 592.5,155.5 592.5,155.5 592.5,155.5 592.5,155.5 592.5,155.5 592.5,155.5 592.5,154.5 
		592.5,154.5 592.5,154.5 593.5,154.5 593.5,153.5 593.5,153.5 593.5,153.5 593.5,153.5 593.5,152.5 593.5,152.5 593.5,152.5 
		593.5,152.5 593.5,152.5 593.5,151.5 593.5,151.5 593.5,151.5 594.5,151.5 594.5,151.5 594.5,151.5 594.5,151.5 594.5,150.5 
		594.5,150.5 594.5,150.5 594.5,150.5 594.5,149.5 594.5,149.5 594.5,149.5 594.5,148.5 594.5,148.5 595.5,148.5 595.5,147.5 
		595.5,147.5 595.5,147.5 595.5,146.5 595.5,146.5 595.5,146.5 595.5,146.5 595.5,145.5 595.5,145.5 595.5,145.5 595.5,144.5 
		595.5,144.5 596.5,144.5 596.5,143.5 596.5,143.5 596.5,143.5 596.5,142.5 596.5,142.5 596.5,142.5 596.5,141.5 596.5,141.5 
		596.5,140.5 596.5,140.5 596.5,139.5 596.5,139.5 597.5,139.5 597.5,139.5 597.5,139.5 597.5,139.5 597.5,139.5 597.5,139.5 
		597.5,138.5 597.5,138.5 597.5,138.5 597.5,138.5 597.5,138.5 597.5,138.5 597.5,138.5 598.5,138.5 598.5,138.5 598.5,138.5 
		598.5,138.5 598.5,138.5 598.5,138.5 598.5,138.5 598.5,138.5 598.5,138.5 598.5,138.5 598.5,138.5 598.5,138.5 598.5,139.5 
		599.5,139.5 599.5,139.5 599.5,139.5 599.5,140.5 599.5,140.5 599.5,140.5 599.5,140.5 599.5,141.5 599.5,141.5 599.5,141.5 
		599.5,142.5 599.5,142.5 599.5,143.5 600.5,143.5 600.5,144.5 600.5,144.5 600.5,144.5 600.5,145.5 600.5,145.5 600.5,145.5 
		600.5,145.5 600.5,146.5 600.5,146.5 600.5,146.5 600.5,147.5 600.5,147.5 601.5,147.5 601.5,148.5 601.5,148.5 601.5,148.5 
		601.5,148.5 601.5,148.5 601.5,149.5 601.5,149.5 601.5,149.5 601.5,149.5 601.5,149.5 601.5,149.5 601.5,149.5 602.5,149.5 
		602.5,149.5 602.5,149.5 602.5,149.5 602.5,149.5 602.5,149.5 602.5,149.5 602.5,149.5 602.5,149.5 602.5,149.5 602.5,149.5 
		602.5,149.5 602.5,149.5 603.5,149.5 603.5,149.5 603.5,148.5 603.5,148.5 603.5,148.5 603.5,148.5 603.5,148.5 603.5,148.5 
		603.5,148.5 603.5,147.5 603.5,147.5 603.5,147.5 603.5,147.5 604.5,147.5 604.5,147.5 604.5,147.5 604.5,147.5 604.5,147.5 
		604.5,147.5 604.5,147.5 604.5,147.5 604.5,147.5 604.5,147.5 604.5,147.5 604.5,147.5 604.5,147.5 605.5,147.5 605.5,147.5 
		605.5,146.5 605.5,146.5 605.5,146.5 605.5,146.5 605.5,146.5 605.5,146.5 605.5,146.5 605.5,146.5 605.5,146.5 605.5,146.5 
		605.5,146.5 606.5,147.5 606.5,147.5 606.5,147.5 606.5,147.5 606.5,147.5 606.5,147.5 606.5,147.5 606.5,147.5 606.5,146.5 
		606.5,146.5 606.5,146.5 606.5,146.5 606.5,146.5 607.5,146.5 607.5,146.5 607.5,146.5 607.5,146.5 607.5,146.5 607.5,146.5 
		607.5,146.5 607.5,147.5 607.5,147.5 607.5,147.5 607.5,147.5 607.5,147.5 607.5,148.5 608.5,148.5 608.5,148.5 608.5,148.5 
		608.5,149.5 608.5,149.5 608.5,149.5 608.5,149.5 608.5,150.5 608.5,150.5 608.5,150.5 608.5,150.5 608.5,150.5 608.5,150.5 
		609.5,150.5 609.5,150.5 609.5,150.5 609.5,150.5 609.5,149.5 609.5,149.5 609.5,149.5 609.5,149.5 609.5,149.5 609.5,149.5 
		609.5,149.5 609.5,149.5 609.5,149.5 610.5,149.5 610.5,149.5 610.5,149.5 610.5,149.5 610.5,149.5 610.5,149.5 610.5,149.5 
		610.5,149.5 610.5,149.5 610.5,148.5 610.5,148.5 610.5,148.5 610.5,148.5 611.5,147.5 611.5,147.5 611.5,147.5 611.5,147.5 
		611.5,147.5 611.5,147.5 611.5,147.5 611.5,147.5 611.5,147.5 611.5,147.5 611.5,147.5 611.5,147.5 611.5,147.5 612.5,147.5 
		612.5,146.5 612.5,146.5 612.5,146.5 612.5,146.5 612.5,146.5 612.5,146.5 612.5,145.5 612.5,145.5 612.5,145.5 612.5,145.5 
		612.5,145.5 612.5,145.5 613.5,145.5 613.5,145.5 613.5,145.5 613.5,144.5 613.5,144.5 613.5,144.5 613.5,144.5 613.5,144.5 
		613.5,144.5 613.5,144.5 613.5,144.5 613.5,143.5 613.5,143.5 614.5,143.5 614.5,143.5 614.5,143.5 614.5,143.5 614.5,143.5 
		614.5,144.5 614.5,144.5 614.5,144.5 614.5,143.5 614.5,143.5 614.5,143.5 614.5,143.5 614.5,143.5 615.5,142.5 615.5,142.5 
		615.5,142.5 615.5,142.5 615.5,142.5 615.5,142.5 615.5,142.5 615.5,142.5 615.5,141.5 615.5,141.5 615.5,141.5 615.5,141.5 
		615.5,141.5 616.5,141.5 616.5,141.5 616.5,140.5 616.5,140.5 616.5,140.5 616.5,140.5 616.5,140.5 616.5,140.5 616.5,139.5 
		616.5,139.5 616.5,139.5 616.5,139.5 616.5,139.5 617.5,139.5 617.5,138.5 617.5,138.5 617.5,138.5 617.5,137.5 617.5,137.5 
		617.5,137.5 617.5,137.5 617.5,137.5 617.5,136.5 617.5,136.5 617.5,136.5 617.5,136.5 618.5,136.5 618.5,136.5 618.5,135.5 
		618.5,135.5 618.5,135.5 618.5,135.5 618.5,135.5 618.5,136.5 618.5,136.5 618.5,136.5 618.5,136.5 618.5,136.5 618.5,136.5 
		619.5,136.5 619.5,136.5 619.5,136.5 619.5,136.5 619.5,136.5 619.5,136.5 619.5,136.5 619.5,136.5 619.5,137.5 619.5,137.5 
		619.5,137.5 619.5,137.5 619.5,137.5 620.5,137.5 620.5,138.5 620.5,138.5 620.5,138.5 620.5,138.5 620.5,138.5 620.5,138.5 
		620.5,138.5 620.5,138.5 620.5,138.5 620.5,138.5 620.5,139.5 620.5,139.5 621.5,139.5 621.5,139.5 621.5,139.5 621.5,139.5 
		621.5,139.5 621.5,139.5 621.5,139.5 621.5,139.5 621.5,139.5 621.5,139.5 621.5,139.5 621.5,139.5 621.5,139.5 622.5,139.5 
		622.5,139.5 622.5,139.5 622.5,139.5 622.5,140.5 622.5,140.5 622.5,140.5 622.5,140.5 622.5,140.5 622.5,140.5 622.5,140.5 
		622.5,140.5 622.5,141.5 623.5,141.5 623.5,141.5 623.5,141.5 623.5,141.5 623.5,141.5 623.5,141.5 623.5,142.5 623.5,142.5 
		623.5,142.5 623.5,142.5 623.5,142.5 623.5,142.5 623.5,142.5 624.5,142.5 624.5,142.5 624.5,142.5 624.5,142.5 624.5,142.5 
		624.5,142.5 624.5,142.5 624.5,143.5 624.5,143.5 624.5,143.5 624.5,143.5 624.5,143.5 624.5,143.5 625.5,143.5 625.5,142.5 
		625.5,142.5 625.5,141.5 625.5,141.5 625.5,141.5 625.5,141.5 625.5,141.5 625.5,141.5 625.5,141.5 625.5,141.5 625.5,141.5 
		625.5,140.5 626.5,140.5 626.5,139.5 626.5,139.5 626.5,139.5 626.5,139.5 626.5,139.5 626.5,139.5 626.5,139.5 626.5,139.5 
		626.5,139.5 626.5,139.5 626.5,139.5 626.5,139.5 627.5,139.5 627.5,139.5 627.5,139.5 627.5,139.5 627.5,140.5 627.5,140.5 
		627.5,140.5 627.5,140.5 627.5,141.5 627.5,141.5 627.5,141.5 627.5,141.5 627.5,141.5 628.5,141.5 628.5,142.5 628.5,142.5 
		628.5,142.5 628.5,142.5 628.5,142.5 628.5,142.5 628.5,141.5 628.5,141.5 628.5,141.5 628.5,141.5 628.5,141.5 628.5,141.5 
		629.5,141.5 629.5,141.5 629.5,141.5 629.5,141.5 629.5,141.5 629.5,141.5 629.5,141.5 629.5,141.5 629.5,141.5 629.5,141.5 
		629.5,141.5 629.5,141.5 629.5,141.5 630.5,141.5 630.5,142.5 630.5,142.5 630.5,142.5 630.5,142.5 630.5,142.5 630.5,142.5 
		630.5,142.5 630.5,142.5 630.5,142.5 630.5,142.5 630.5,142.5 630.5,142.5 631.5,143.5 631.5,143.5 631.5,143.5 631.5,143.5 
		631.5,143.5 631.5,143.5 631.5,143.5 631.5,143.5 631.5,143.5 631.5,143.5 631.5,143.5 631.5,143.5 631.5,143.5 632.5,143.5 
		632.5,143.5 632.5,143.5 632.5,143.5 632.5,142.5 632.5,142.5 632.5,142.5 632.5,142.5 632.5,142.5 632.5,142.5 632.5,142.5 
		632.5,142.5 632.5,142.5 633.5,142.5 633.5,142.5 633.5,142.5 633.5,142.5 633.5,142.5 633.5,142.5 633.5,142.5 633.5,141.5 
		633.5,141.5 633.5,141.5 633.5,141.5 633.5,141.5 633.5,141.5 634.5,141.5 634.5,142.5 634.5,142.5 634.5,141.5 634.5,141.5 
		634.5,141.5 634.5,141.5 634.5,141.5 634.5,141.5 634.5,141.5 634.5,141.5 634.5,140.5 634.5,140.5 635.5,140.5 635.5,140.5 
		635.5,140.5 635.5,140.5 635.5,140.5 635.5,140.5 635.5,140.5 635.5,140.5 635.5,140.5 635.5,140.5 635.5,140.5 635.5,140.5 
		635.5,139.5 636.5,139.5 636.5,139.5 636.5,139.5 636.5,139.5 636.5,139.5 636.5,139.5 636.5,139.5 636.5,138.5 636.5,138.5 
		636.5,138.5 636.5,138.5 636.5,138.5 636.5,138.5 637.5,137.5 637.5,137.5 637.5,136.5 637.5,136.5 637.5,136.5 637.5,136.5 
		637.5,136.5 637.5,136.5 637.5,136.5 637.5,136.5 637.5,135.5 637.5,135.5 637.5,134.5 638.5,134.5 638.5,133.5 638.5,133.5 
		638.5,132.5 638.5,132.5 638.5,131.5 638.5,131.5 638.5,131.5 638.5,131.5 638.5,131.5 638.5,131.5 638.5,130.5 638.5,131.5 
		639.5,131.5 639.5,131.5 639.5,131.5 639.5,131.5 639.5,131.5 639.5,131.5 639.5,131.5 639.5,131.5 639.5,131.5 639.5,130.5 
		639.5,130.5 639.5,130.5 639.5,130.5 640.5,130.5 640.5,131.5 640.5,131.5 640.5,131.5 640.5,131.5 640.5,131.5 640.5,132.5 
		640.5,132.5 640.5,133.5 640.5,133.5 640.5,133.5 640.5,133.5 640.5,133.5 641.5,133.5 641.5,133.5 641.5,134.5 641.5,134.5 
		641.5,134.5 641.5,134.5 641.5,134.5 641.5,135.5 641.5,135.5 641.5,135.5 641.5,135.5 641.5,135.5 641.5,136.5 642.5,136.5 
		642.5,136.5 642.5,136.5 642.5,136.5 642.5,136.5 642.5,136.5 642.5,136.5 642.5,136.5 642.5,137.5 642.5,137.5 642.5,137.5 
		642.5,137.5 642.5,137.5 643.5,137.5 643.5,137.5 643.5,137.5 643.5,137.5 643.5,137.5 643.5,137.5 643.5,138.5 643.5,138.5 
		643.5,138.5 643.5,138.5 643.5,138.5 643.5,138.5 643.5,138.5 644.5,138.5 644.5,138.5 644.5,138.5 644.5,138.5 644.5,138.5 
		644.5,137.5 644.5,137.5 644.5,137.5 644.5,137.5 644.5,137.5 644.5,137.5 644.5,137.5 644.5,137.5 645.5,137.5 645.5,137.5 
		645.5,137.5 645.5,137.5 645.5,138.5 645.5,138.5 645.5,138.5 645.5,138.5 645.5,138.5 645.5,138.5 645.5,139.5 645.5,139.5 
		645.5,139.5 646.5,139.5 646.5,139.5 646.5,139.5 646.5,140.5 646.5,140.5 646.5,140.5 646.5,140.5 646.5,140.5 646.5,140.5 
		646.5,140.5 646.5,140.5 646.5,141.5 646.5,141.5 647.5,141.5 647.5,141.5 647.5,141.5 647.5,142.5 647.5,142.5 647.5,142.5 
		647.5,142.5 647.5,142.5 647.5,142.5 647.5,142.5 647.5,142.5 647.5,142.5 647.5,142.5 648.5,142.5 648.5,142.5 648.5,142.5 
		648.5,142.5 648.5,142.5 648.5,142.5 648.5,142.5 648.5,142.5 648.5,142.5 648.5,142.5 648.5,142.5 648.5,142.5 648.5,142.5 
		649.5,142.5 649.5,142.5 649.5,142.5 649.5,142.5 649.5,142.5 649.5,142.5 649.5,142.5 649.5,142.5 649.5,142.5 649.5,141.5 
		649.5,141.5 649.5,141.5 649.5,141.5 650.5,141.5 650.5,141.5 650.5,141.5 650.5,141.5 650.5,141.5 650.5,141.5 650.5,141.5 
		650.5,141.5 650.5,140.5 650.5,140.5 650.5,140.5 650.5,140.5 650.5,140.5 651.5,139.5 651.5,139.5 651.5,139.5 651.5,139.5 
		651.5,139.5 651.5,139.5 651.5,138.5 651.5,138.5 651.5,138.5 651.5,138.5 651.5,138.5 651.5,138.5 651.5,137.5 652.5,137.5 
		652.5,137.5 652.5,137.5 652.5,137.5 652.5,137.5 652.5,137.5 652.5,137.5 652.5,137.5 652.5,137.5 652.5,137.5 652.5,136.5 
		652.5,136.5 652.5,136.5 653.5,136.5 653.5,136.5 653.5,136.5 653.5,136.5 653.5,135.5 653.5,135.5 653.5,135.5 653.5,135.5 
		653.5,135.5 653.5,134.5 653.5,134.5 653.5,134.5 653.5,134.5 654.5,134.5 654.5,134.5 654.5,134.5 654.5,134.5 654.5,134.5 
		654.5,134.5 654.5,134.5 654.5,134.5 654.5,134.5 654.5,134.5 654.5,134.5 654.5,134.5 654.5,134.5 655.5,134.5 655.5,134.5 
		655.5,134.5 655.5,134.5 655.5,134.5 655.5,134.5 655.5,134.5 655.5,134.5 655.5,133.5 655.5,133.5 655.5,133.5 655.5,133.5 
		655.5,133.5 656.5,133.5 656.5,133.5 656.5,133.5 656.5,133.5 656.5,133.5 656.5,133.5 656.5,133.5 656.5,132.5 656.5,132.5 
		656.5,132.5 656.5,132.5 656.5,132.5 656.5,132.5 657.5,131.5 657.5,131.5 657.5,131.5 657.5,131.5 657.5,130.5 657.5,130.5 
		657.5,130.5 657.5,130.5 657.5,130.5 657.5,129.5 657.5,129.5 657.5,129.5 657.5,129.5 658.5,129.5 658.5,128.5 658.5,128.5 
		658.5,128.5 658.5,128.5 658.5,128.5 658.5,127.5 658.5,127.5 658.5,127.5 658.5,127.5 658.5,127.5 658.5,127.5 658.5,127.5 
		659.5,127.5 659.5,127.5 659.5,128.5 659.5,128.5 659.5,128.5 659.5,128.5 659.5,128.5 659.5,128.5 659.5,129.5 659.5,129.5 
		659.5,129.5 659.5,129.5 659.5,129.5 660.5,129.5 660.5,129.5 660.5,129.5 660.5,128.5 660.5,128.5 660.5,128.5 660.5,128.5 
		660.5,128.5 660.5,128.5 660.5,127.5 660.5,128.5 660.5,128.5 660.5,128.5 661.5,128.5 661.5,128.5 661.5,128.5 661.5,129.5 
		661.5,129.5 661.5,129.5 661.5,129.5 661.5,129.5 661.5,129.5 661.5,129.5 661.5,130.5 661.5,130.5 661.5,130.5 662.5,130.5 
		662.5,130.5 662.5,131.5 662.5,131.5 662.5,131.5 662.5,131.5 662.5,131.5 662.5,131.5 662.5,131.5 662.5,131.5 662.5,132.5 
		662.5,132.5 662.5,132.5 663.5,132.5 663.5,132.5 663.5,132.5 663.5,133.5 663.5,133.5 663.5,133.5 663.5,133.5 663.5,133.5 
		663.5,134.5 663.5,134.5 663.5,134.5 663.5,134.5 663.5,134.5 664.5,134.5 664.5,135.5 664.5,135.5 664.5,135.5 664.5,135.5 
		664.5,135.5 664.5,135.5 664.5,135.5 664.5,136.5 664.5,136.5 664.5,136.5 664.5,136.5 664.5,137.5 665.5,137.5 665.5,137.5 
		665.5,137.5 665.5,138.5 665.5,138.5 665.5,138.5 665.5,139.5 665.5,139.5 665.5,140.5 665.5,140.5 665.5,140.5 665.5,140.5 
		665.5,141.5 666.5,141.5 666.5,141.5 666.5,142.5 666.5,142.5 666.5,142.5 666.5,143.5 666.5,143.5 666.5,143.5 666.5,143.5 
		666.5,144.5 666.5,144.5 666.5,144.5 666.5,144.5 667.5,144.5 667.5,145.5 667.5,145.5 667.5,145.5 667.5,145.5 667.5,145.5 
		667.5,145.5 667.5,146.5 667.5,146.5 667.5,146.5 667.5,146.5 667.5,147.5 667.5,147.5 668.5,147.5 668.5,148.5 668.5,148.5 
		668.5,148.5 668.5,148.5 668.5,148.5 668.5,149.5 668.5,149.5 668.5,149.5 668.5,149.5 668.5,149.5 668.5,149.5 668.5,149.5 
		669.5,150.5 669.5,150.5 669.5,150.5 669.5,150.5 669.5,150.5 669.5,150.5 669.5,151.5 669.5,151.5 669.5,151.5 669.5,151.5 
		669.5,152.5 669.5,152.5 669.5,152.5 670.5,152.5 670.5,153.5 670.5,153.5 670.5,153.5 670.5,153.5 670.5,154.5 670.5,155.5 
		670.5,155.5 670.5,156.5 670.5,156.5 670.5,156.5 670.5,156.5 670.5,156.5 671.5,156.5 671.5,156.5 671.5,156.5 671.5,156.5 
		671.5,156.5 671.5,156.5 671.5,156.5 671.5,156.5 671.5,156.5 671.5,156.5 671.5,156.5 671.5,155.5 671.5,155.5 672.5,155.5 
		672.5,154.5 672.5,153.5 672.5,153.5 672.5,152.5 672.5,152.5 672.5,151.5 672.5,151.5 672.5,151.5 672.5,150.5 672.5,150.5 
		672.5,150.5 672.5,150.5 673.5,150.5 673.5,150.5 673.5,150.5 673.5,150.5 673.5,150.5 673.5,150.5 673.5,150.5 673.5,150.5 
		673.5,150.5 673.5,150.5 673.5,150.5 673.5,150.5 673.5,150.5 674.5,150.5 674.5,150.5 674.5,150.5 674.5,150.5 674.5,149.5 
		674.5,149.5 674.5,149.5 674.5,149.5 674.5,149.5 674.5,148.5 674.5,148.5 674.5,148.5 674.5,148.5 675.5,148.5 675.5,148.5 
		675.5,148.5 675.5,148.5 675.5,149.5 675.5,149.5 675.5,149.5 675.5,150.5 675.5,150.5 675.5,150.5 675.5,151.5 675.5,151.5 
		675.5,151.5 676.5,151.5 676.5,151.5 676.5,152.5 676.5,152.5 676.5,152.5 676.5,152.5 676.5,153.5 676.5,153.5 676.5,153.5 
		676.5,153.5 676.5,153.5 676.5,153.5 676.5,153.5 677.5,153.5 677.5,153.5 677.5,153.5 677.5,153.5 677.5,153.5 677.5,153.5 
		677.5,154.5 677.5,154.5 677.5,154.5 677.5,154.5 677.5,154.5 677.5,154.5 677.5,154.5 678.5,154.5 678.5,155.5 678.5,155.5 
		678.5,155.5 678.5,155.5 678.5,155.5 678.5,155.5 678.5,155.5 678.5,154.5 678.5,154.5 678.5,154.5 678.5,154.5 678.5,153.5 
		679.5,153.5 679.5,153.5 679.5,153.5 679.5,152.5 679.5,152.5 679.5,152.5 679.5,151.5 679.5,151.5 679.5,151.5 679.5,151.5 
		679.5,150.5 679.5,150.5 679.5,150.5 680.5,150.5 680.5,150.5 680.5,149.5 680.5,149.5 680.5,149.5 680.5,149.5 680.5,149.5 
		680.5,149.5 680.5,149.5 680.5,150.5 680.5,150.5 680.5,150.5 680.5,150.5 681.5,150.5 681.5,150.5 681.5,150.5 681.5,150.5 
		681.5,150.5 681.5,149.5 681.5,149.5 681.5,149.5 681.5,149.5 681.5,149.5 681.5,148.5 681.5,148.5 681.5,148.5 682.5,148.5 
		682.5,148.5 682.5,148.5 682.5,148.5 682.5,148.5 682.5,147.5 682.5,147.5 682.5,147.5 682.5,147.5 682.5,147.5 682.5,147.5 
		682.5,147.5 682.5,147.5 683.5,147.5 683.5,147.5 683.5,146.5 683.5,146.5 683.5,146.5 683.5,146.5 683.5,146.5 683.5,145.5 
		683.5,145.5 683.5,145.5 683.5,145.5 683.5,144.5 683.5,144.5 684.5,144.5 684.5,144.5 684.5,144.5 684.5,144.5 684.5,143.5 
		684.5,143.5 684.5,143.5 684.5,143.5 684.5,143.5 684.5,143.5 684.5,143.5 684.5,143.5 684.5,143.5 685.5,143.5 685.5,143.5 
		685.5,143.5 685.5,143.5 685.5,143.5 685.5,142.5 685.5,142.5 685.5,142.5 685.5,142.5 685.5,142.5 685.5,142.5 685.5,142.5 
		685.5,142.5 686.5,141.5 686.5,141.5 686.5,141.5 686.5,141.5 686.5,141.5 686.5,141.5 686.5,141.5 686.5,141.5 686.5,141.5 
		686.5,141.5 686.5,141.5 686.5,141.5 686.5,141.5 687.5,141.5 687.5,142.5 687.5,142.5 687.5,142.5 687.5,142.5 687.5,142.5 
		687.5,142.5 687.5,142.5 687.5,142.5 687.5,141.5 687.5,141.5 687.5,141.5 687.5,140.5 688.5,140.5 688.5,140.5 688.5,140.5 
		688.5,140.5 688.5,140.5 688.5,140.5 688.5,140.5 688.5,140.5 688.5,139.5 688.5,140.5 688.5,140.5 688.5,140.5 688.5,140.5 
		689.5,141.5 689.5,141.5 689.5,141.5 689.5,141.5 689.5,142.5 689.5,142.5 689.5,142.5 689.5,142.5 689.5,142.5 689.5,143.5 
		689.5,143.5 689.5,143.5 689.5,143.5 690.5,143.5 690.5,143.5 690.5,143.5 690.5,143.5 690.5,143.5 690.5,143.5 690.5,143.5 
		690.5,144.5 690.5,144.5 690.5,144.5 690.5,145.5 690.5,145.5 690.5,145.5 691.5,145.5 691.5,145.5 691.5,146.5 691.5,146.5 
		691.5,146.5 691.5,146.5 691.5,146.5 691.5,146.5 691.5,146.5 691.5,146.5 691.5,146.5 691.5,146.5 691.5,147.5 692.5,147.5 
		692.5,147.5 692.5,147.5 692.5,147.5 692.5,148.5 692.5,148.5 692.5,148.5 692.5,148.5 692.5,148.5 692.5,149.5 692.5,149.5 
		692.5,149.5 692.5,149.5 693.5,149.5 693.5,149.5 693.5,149.5 693.5,149.5 693.5,149.5 693.5,149.5 693.5,149.5 693.5,149.5 
		693.5,149.5 693.5,149.5 693.5,149.5 693.5,149.5 693.5,149.5 694.5,149.5 694.5,149.5 694.5,149.5 694.5,149.5 694.5,149.5 
		694.5,149.5 694.5,149.5 694.5,149.5 694.5,149.5 694.5,149.5 694.5,149.5 694.5,149.5 694.5,149.5 695.5,150.5 695.5,150.5 
		695.5,150.5 695.5,150.5 695.5,150.5 695.5,150.5 695.5,150.5 695.5,150.5 695.5,149.5 695.5,149.5 695.5,149.5 695.5,149.5 
		695.5,149.5 696.5,149.5 696.5,149.5 696.5,149.5 696.5,149.5 696.5,148.5 696.5,148.5 696.5,148.5 696.5,148.5 696.5,148.5 
		696.5,148.5 696.5,148.5 696.5,148.5 696.5,148.5 697.5,148.5 697.5,148.5 697.5,149.5 697.5,149.5 697.5,149.5 697.5,149.5 
		697.5,149.5 697.5,150.5 697.5,150.5 697.5,150.5 697.5,150.5 697.5,151.5 697.5,151.5 698.5,152.5 698.5,152.5 698.5,152.5 
		698.5,152.5 698.5,152.5 698.5,152.5 698.5,153.5 698.5,153.5 698.5,153.5 698.5,153.5 698.5,153.5 698.5,154.5 698.5,154.5 
		698.5,154.5 699.5,154.5 699.5,154.5 699.5,154.5 699.5,154.5 699.5,155.5 699.5,155.5 699.5,155.5 699.5,155.5 699.5,155.5 
		699.5,156.5 699.5,156.5 699.5,156.5 699.5,156.5 700.5,156.5 700.5,156.5 700.5,156.5 700.5,156.5 700.5,156.5 700.5,156.5 
		700.5,156.5 700.5,156.5 700.5,156.5 700.5,156.5 700.5,156.5 700.5,157.5 700.5,157.5 701.5,157.5 701.5,157.5 701.5,157.5 
		701.5,157.5 701.5,157.5 701.5,157.5 701.5,157.5 701.5,157.5 701.5,157.5 701.5,157.5 701.5,157.5 701.5,157.5 701.5,157.5 
		702.5,157.5 702.5,157.5 702.5,157.5 702.5,156.5 702.5,156.5 702.5,156.5 702.5,156.5 702.5,156.5 702.5,156.5 702.5,156.5 
		702.5,156.5 702.5,156.5 702.5,157.5 703.5,157.5 703.5,157.5 703.5,157.5 703.5,157.5 703.5,157.5 703.5,157.5 703.5,157.5 
		703.5,157.5 703.5,157.5 703.5,158.5 703.5,158.5 703.5,158.5 703.5,158.5 704.5,159.5 704.5,159.5 704.5,159.5 704.5,159.5 
		704.5,159.5 704.5,159.5 704.5,160.5 704.5,160.5 704.5,160.5 704.5,160.5 704.5,161.5 704.5,161.5 704.5,161.5 705.5,162.5 
		705.5,162.5 705.5,163.5 705.5,163.5 705.5,163.5 705.5,164.5 705.5,164.5 705.5,164.5 705.5,164.5 705.5,164.5 705.5,164.5 
		705.5,164.5 705.5,164.5 706.5,164.5 706.5,164.5 706.5,164.5 706.5,164.5 706.5,164.5 706.5,164.5 706.5,164.5 706.5,164.5 
		706.5,164.5 706.5,164.5 706.5,164.5 706.5,165.5 706.5,165.5 707.5,165.5 707.5,165.5 707.5,165.5 707.5,165.5 707.5,166.5 
		707.5,166.5 707.5,166.5 707.5,166.5 707.5,166.5 707.5,166.5 707.5,167.5 707.5,167.5 707.5,167.5 708.5,167.5 708.5,168.5 
		708.5,168.5 708.5,168.5 708.5,168.5 708.5,169.5 708.5,169.5 708.5,169.5 708.5,169.5 708.5,169.5 708.5,169.5 708.5,169.5 
		708.5,169.5 709.5,169.5 709.5,168.5 709.5,168.5 709.5,168.5 709.5,168.5 709.5,168.5 709.5,167.5 709.5,167.5 709.5,167.5 
		709.5,166.5 709.5,166.5 	"/>
</g>
</svg>
