<?xml version="1.0" encoding="UTF-8" standalone="no"?><svg width="282.222mm" height="141.111mm" xmlns="http://www.w3.org/2000/svg" xmlns:xlink="http://www.w3.org/1999/xlink"  version="1.2" baseProfile="tiny"><g fill="none" stroke="#ff0000" stroke-linecap="round" stroke-linejoin="round" stroke-opacity="1" stroke-width="1.5" transform="matrix(1,0,0,1,0,0)">
<polyline fill="none" points="144,320 144,320 145,319 145,319 145,319 145,319 145,318 145,318 145,318 145,318 145,317 145,317 145,317 145,317 145,317 146,317 146,316 146,316 146,316 146,316 146,317 146,317 146,317 146,317 146,317 146,316 146,317 146,317 147,317 147,317 147,317 147,317 147,317 147,317 147,316 147,316 147,316 147,316 147,316 147,316 147,316 148,316 148,316 148,316 148,316 148,316 148,316 148,316 148,316 148,316 148,316 148,316 148,316 148,316 149,316 149,316 149,316 149,316 149,316 149,316 149,316 149,316 149,316 149,316 149,316 149,315 149,315 150,315 150,315 150,315 150,314 150,314 150,314 150,314 150,314 150,314 150,314 150,314 150,314 150,314 151,314 151,314 151,314 151,314 151,314 151,314 151,314 151,314 151,314 151,313 151,313 151,313 151,313 152,313 152,313 152,313 152,313 152,313 152,313 152,312 152,312 152,313 152,313 152,313 152,313 152,313 153,313 153,313 153,313 153,313 153,313 153,313 153,313 153,312 153,312 153,312 153,312 153,312 153,312 154,312 154,312 154,312 154,312 154,312 154,312 154,312 154,312 154,312 154,312 154,312 154,311 154,311 155,311 155,311 155,311 155,310 155,310 155,310 155,310 155,310 155,310 155,309 155,309 155,309 155,309 156,309 156,309 156,309 156,309 156,309 156,309 156,309 156,309 156,309 156,309 156,309 156,309 156,309 157,309 157,309 157,309 157,308 157,308 157,308 157,308 157,308 157,308 157,308 157,308 157,308 157,308 158,308 158,307 158,307 158,307 158,307 158,307 158,306 158,306 158,306 158,305 158,305 158,305 158,305 159,305 159,305 159,305 159,304 159,304 159,305 159,305 159,305 159,305 159,305 159,305 159,305 159,305 160,305 160,305 160,304 160,304 160,304 160,304 160,304 160,304 160,304 160,304 160,304 160,304 160,304 161,304 161,304 161,304 161,304 161,304 161,304 161,304 161,304 161,304 161,303 161,304 161,304 161,304 162,304 162,304 162,304 162,304 162,304 162,304 162,304 162,304 162,304 162,304 162,305 162,305 162,305 163,305 163,305 163,305 163,305 163,305 163,305 163,305 163,306 163,306 163,306 163,306 163,306 163,306 164,306 164,306 164,306 164,306 164,306 164,306 164,306 164,306 164,306 164,306 164,307 164,307 164,307 165,307 165,307 165,307 165,307 165,308 165,308 165,308 165,308 165,308 165,308 165,307 165,307 165,307 166,307 166,307 166,307 166,307 166,307 166,307 166,307 166,307 166,307 166,307 166,307 166,307 166,307 167,306 167,306 167,306 167,306 167,306 167,306 167,306 167,306 167,306 167,306 167,306 167,306 167,306 168,306 168,307 168,307 168,307 168,307 168,306 168,306 168,306 168,306 168,306 168,306 168,306 168,306 169,306 169,306 169,306 169,306 169,306 169,306 169,306 169,306 169,305 169,305 169,305 169,306 169,306 170,306 170,306 170,306 170,306 170,306 170,306 170,306 170,306 170,305 170,305 170,305 170,305 170,305 171,305 171,306 171,306 171,306 171,306 171,307 171,308 171,309 171,308 171,307 171,306 171,306 171,305 172,305 172,305 172,304 172,304 172,304 172,304 172,304 172,304 172,304 172,304 172,304 172,304 172,304 173,303 173,303 173,303 173,303 173,303 173,303 173,302 173,302 173,302 173,302 173,302 173,302 173,302 174,303 174,303 174,302 174,302 174,302 174,302 174,302 174,302 174,302 174,302 174,302 174,302 174,302 175,302 175,302 175,303 175,303 175,303 175,303 175,303 175,303 175,304 175,304 175,304 175,304 175,304 176,304 176,305 176,305 176,305 176,306 176,306 176,306 176,306 176,306 176,306 176,307 176,307 176,307 177,307 177,308 177,308 177,308 177,308 177,309 177,309 177,309 177,309 177,309 177,309 177,310 177,310 178,310 178,310 178,310 178,310 178,311 178,311 178,311 178,311 178,311 178,311 178,311 178,310 178,310 179,310 179,310 179,310 179,310 179,309 179,309 179,309 179,309 179,309 179,309 179,309 179,309 179,310 180,310 180,310 180,310 180,310 180,310 180,310 180,310 180,310 180,310 180,310 180,310 180,310 180,311 181,311 181,311 181,311 181,311 181,311 181,311 181,311 181,311 181,311 181,311 181,311 181,311 181,311 182,310 182,310 182,310 182,310 182,310 182,309 182,309 182,309 182,309 182,308 182,308 182,308 182,307 183,307 183,307 183,307 183,307 183,307 183,307 183,307 183,307 183,306 183,306 183,306 183,305 183,305 184,305 184,305 184,305 184,305 184,305 184,305 184,305 184,305 184,304 184,304 184,304 184,303 184,303 185,303 185,303 185,303 185,303 185,303 185,303 185,303 185,303 185,302 185,302 185,302 185,302 185,302 186,302 186,302 186,302 186,302 186,302 186,302 186,302 186,302 186,302 186,302 186,303 186,303 186,303 187,303 187,303 187,304 187,304 187,304 187,304 187,304 187,304 187,304 187,305 187,306 187,306 187,306 188,306 188,306 188,307 188,307 188,308 188,308 188,308 188,309 188,309 188,309 188,309 188,310 188,310 189,310 189,310 189,311 189,311 189,311 189,311 189,312 189,312 189,312 189,312 189,312 189,312 189,313 190,313 190,313 190,313 190,313 190,313 190,313 190,314 190,314 190,314 190,314 190,314 190,315 190,315 191,316 191,316 191,316 191,316 191,316 191,316 191,316 191,316 191,316 191,316 191,316 191,315 191,315 192,315 192,315 192,315 192,315 192,315 192,315 192,315 192,315 192,315 192,315 192,315 192,315 192,315 193,315 193,315 193,315 193,315 193,314 193,314 193,314 193,314 193,314 193,314 193,314 193,314 193,313 194,313 194,313 194,313 194,312 194,312 194,312 194,312 194,312 194,312 194,312 194,312 194,312 194,312 195,312 195,312 195,312 195,312 195,312 195,312 195,312 195,311 195,311 195,311 195,311 195,311 195,311 196,310 196,310 196,310 196,310 196,310 196,310 196,310 196,310 196,310 196,310 196,309 196,310 196,310 197,310 197,310 197,310 197,309 197,309 197,309 197,309 197,309 197,309 197,309 197,309 197,309 197,309 198,309 198,309 198,308 198,308 198,308 198,308 198,308 198,308 198,308 198,308 198,308 198,307 198,307 199,307 199,307 199,307 199,307 199,306 199,306 199,306 199,306 199,306 199,305 199,305 199,305 199,305 200,305 200,305 200,304 200,304 200,304 200,304 200,304 200,304 200,304 200,304 200,304 200,303 200,304 201,304 201,304 201,303 201,303 201,303 201,303 201,303 201,303 201,303 201,303 201,304 201,304 201,304 202,304 202,304 202,304 202,304 202,304 202,304 202,304 202,304 202,304 202,304 202,304 202,304 202,304 203,304 203,304 203,304 203,304 203,304 203,304 203,304 203,304 203,304 203,303 203,303 203,303 203,303 204,303 204,303 204,303 204,303 204,303 204,303 204,303 204,303 204,303 204,303 204,302 204,302 204,302 205,302 205,302 205,302 205,302 205,302 205,302 205,302 205,302 205,301 205,301 205,301 205,301 205,301 206,301 206,301 206,301 206,300 206,300 206,300 206,300 206,300 206,300 206,300 206,300 206,300 206,300 207,300 207,300 207,300 207,299 207,299 207,299 207,299 207,299 207,299 207,299 207,300 207,300 207,300 208,300 208,300 208,299 208,299 208,299 208,299 208,299 208,299 208,298 208,298 208,298 208,298 208,298 209,297 209,297 209,297 209,297 209,297 209,297 209,297 209,296 209,296 209,296 209,296 209,296 209,296 210,296 210,296 210,295 210,295 210,295 210,294 210,294 210,294 210,294 210,294 210,293 210,293 210,293 211,293 211,293 211,293 211,292 211,292 211,292 211,292 211,291 211,291 211,291 211,291 211,291 211,291 212,291 212,291 212,291 212,291 212,291 212,291 212,291 212,290 212,290 212,290 212,290 212,290 212,290 213,289 213,289 213,289 213,289 213,289 213,289 213,289 213,289 213,289 213,289 213,289 213,289 213,289 214,289 214,289 214,289 214,290 214,289 214,289 214,289 214,289 214,289 214,289 214,289 214,289 214,289 215,289 215,289 215,290 215,290 215,289 215,289 215,289 215,290 215,290 215,290 215,290 215,290 215,290 216,289 216,289 216,289 216,289 216,289 216,289 216,289 216,289 216,289 216,289 216,289 216,289 216,289 217,289 217,289 217,288 217,288 217,288 217,288 217,288 217,288 217,288 217,288 217,288 217,288 217,288 217,287 218,287 218,287 218,287 218,287 218,287 218,287 218,287 218,287 218,287 218,287 218,287 218,286 218,286 219,286 219,286 219,286 219,286 219,287 219,286 219,286 219,286 219,286 219,286 219,286 219,286 219,285 220,285 220,285 220,285 220,284 220,284 220,284 220,284 220,284 220,283 220,283 220,283 220,283 220,283 221,283 221,284 221,284 221,284 221,283 221,283 221,284 221,284 221,284 221,284 221,284 221,284 221,283 222,283 222,283 222,283 222,283 222,283 222,283 222,283 222,283 222,283 222,282 222,282 222,282 222,282 223,282 223,281 223,281 223,281 223,281 223,281 223,281 223,280 223,280 223,280 223,280 223,280 223,280 224,280 224,280 224,280 224,280 224,279 224,279 224,279 224,279 224,279 224,280 224,279 224,279 224,279 225,279 225,279 225,279 225,279 225,278 225,278 225,278 225,278 225,277 225,277 225,277 225,277 225,277 226,277 226,277 226,277 226,277 226,277 226,276 226,276 226,276 226,276 226,276 226,275 226,275 226,275 227,275 227,275 227,275 227,275 227,274 227,274 227,274 227,274 227,274 227,274 227,274 227,274 227,274 228,274 228,274 228,274 228,274 228,274 228,274 228,274 228,274 228,274 228,274 228,274 228,274 228,275 229,275 229,275 229,274 229,274 229,274 229,274 229,274 229,274 229,274 229,274 229,274 229,274 229,274 230,274 230,273 230,273 230,273 230,273 230,273 230,273 230,273 230,273 230,273 230,273 230,273 230,273 231,273 231,272 231,272 231,271 231,271 231,271 231,271 231,271 231,271 231,271 231,271 231,271 231,270 232,270 232,270 232,270 232,270 232,270 232,270 232,270 232,270 232,270 232,270 232,270 232,269 232,269 233,269 233,269 233,269 233,269 233,269 233,268 233,268 233,268 233,268 233,268 233,268 233,268 233,268 234,268 234,268 234,267 234,267 234,267 234,267 234,267 234,267 234,267 234,267 234,267 234,266 234,266 235,266 235,266 235,266 235,266 235,266 235,266 235,266 235,266 235,266 235,266 235,266 235,266 235,265 236,265 236,265 236,265 236,265 236,265 236,265 236,265 236,264 236,264 236,264 236,264 236,264 236,264 237,263 237,263 237,263 237,263 237,263 237,263 237,262 237,262 237,262 237,262 237,262 237,262 237,261 238,261 238,261 238,261 238,261 238,260 238,260 238,260 238,259 238,259 238,259 238,259 238,258 238,258 239,258 239,258 239,258 239,258 239,258 239,258 239,258 239,258 239,258 239,257 239,257 239,257 239,257 240,257 240,257 240,257 240,256 240,256 240,256 240,255 240,255 240,255 240,254 240,254 240,254 240,254 241,254 241,254 241,254 241,254 241,254 241,254 241,253 241,253 241,253 241,253 241,252 241,252 241,252 242,251 242,251 242,251 242,251 242,251 242,251 242,251 242,251 242,251 242,251 242,251 242,251 242,251 243,251 243,251 243,251 243,251 243,251 243,251 243,251 243,251 243,251 243,251 243,251 243,251 243,251 244,251 244,251 244,251 244,251 244,251 244,251 244,251 244,251 244,251 244,250 244,250 244,250 244,250 245,250 245,250 245,249 245,249 245,249 245,249 245,249 245,249 245,248 245,248 245,248 245,248 245,248 246,248 246,248 246,248 246,248 246,248 246,248 246,248 246,248 246,248 246,247 246,247 246,247 246,247 247,246 247,246 247,246 247,246 247,246 247,246 247,246 247,246 247,246 247,245 247,245 247,244 247,244 248,244 248,244 248,244 248,244 248,244 248,243 248,243 248,243 248,243 248,242 248,242 248,242 248,242 249,242 249,242 249,242 249,241 249,241 249,241 249,241 249,240 249,240 249,240 249,239 249,238 249,238 250,237 250,237 250,236 250,236 250,235 250,235 250,235 250,234 250,234 250,234 250,234 250,233 250,233 251,233 251,233 251,233 251,233 251,233 251,234 251,234 251,234 251,235 251,235 251,236 251,236 251,235 252,234 252,234 252,233 252,233 252,233 252,234 252,233 252,233 252,233 252,233 252,233 252,232 252,232 253,231 253,231 253,231 253,230 253,230 253,230 253,229 253,229 253,229 253,229 253,228 253,228 253,227 254,227 254,226 254,225 254,225 254,224 254,223 254,221 254,220 254,219 254,219 254,218 254,218 254,216 255,215 255,213 255,212 255,211 255,211 255,210 255,209 255,209 255,208 255,207 255,206 255,205 255,205 256,205 256,205 256,205 256,205 256,205 256,204 256,204 256,204 256,204 256,203 256,203 256,203 256,202 257,202 257,202 257,201 257,201 257,201 257,200 257,200 257,199 257,198 257,198 257,198 257,197 257,197 258,196 258,196 258,196 258,196 258,195 258,195 258,195 258,195 258,195 258,194 258,194 258,194 258,194 259,194 259,194 259,194 259,194 259,194 259,194 259,193 259,193 259,193 259,193 259,192 259,192 259,192 260,192 260,191 260,191 260,191 260,190 260,190 260,190 260,189 260,189 260,188 260,187 260,187 260,186 261,186 261,185 261,184 261,184 261,183 261,183 261,183 261,183 261,183 261,183 261,183 261,183 261,183 262,183 262,182 262,182 262,182 262,182 262,182 262,182 262,182 262,182 262,182 262,182 262,181 262,181 263,181 263,181 263,181 263,181 263,181 263,181 263,182 263,182 263,182 263,182 263,182 263,182 263,182 264,182 264,182 264,182 264,182 264,182 264,182 264,182 264,182 264,182 264,182 264,182 264,182 264,182 265,182 265,182 265,182 265,183 265,184 265,184 265,184 265,184 265,184 265,184 265,184 265,183 265,183 266,182 266,182 266,182 266,181 266,181 266,181 266,180 266,180 266,180 266,179 266,179 266,178 266,177 267,177 267,176 267,175 267,174 267,173 267,173 267,172 267,172 267,171 267,170 267,169 267,168 267,168 268,167 268,167 268,166 268,166 268,166 268,166 268,166 268,166 268,166 268,166 268,166 268,166 268,166 269,166 269,166 269,166 269,166 269,166 269,166 269,166 269,166 269,166 269,167 269,167 269,167 269,167 270,167 270,167 270,167 270,167 270,166 270,166 270,166 270,166 270,166 270,166 270,167 270,167 270,167 271,167 271,168 271,169 271,169 271,170 271,170 271,171 271,172 271,172 271,173 271,173 271,174 271,174 272,175 272,175 272,175 272,175 272,176 272,176 272,177 272,177 272,177 272,178 272,178 272,179 272,179 273,179 273,179 273,179 273,179 273,178 273,178 273,178 273,178 273,178 273,178 273,178 273,178 273,178 274,178 274,177 274,177 274,177 274,177 274,176 274,175 274,175 274,175 274,174 274,174 274,174 274,173 275,173 275,173 275,172 275,172 275,171 275,171 275,170 275,170 275,170 275,169 275,169 275,168 275,168 276,168 276,168 276,168 276,168 276,168 276,168 276,168 276,168 276,168 276,167 276,167 276,167 276,167 277,167 277,167 277,167 277,167 277,167 277,166 277,166 277,166 277,166 277,166 277,166 277,166 277,166 278,166 278,166 278,166 278,165 278,165 278,166 278,166 278,167 278,167 278,168 278,168 278,168 278,168 279,169 279,169 279,170 279,170 279,171 279,171 279,172 279,172 279,173 279,173 279,174 279,174 279,174 280,174 280,174 280,175 280,175 280,176 280,176 280,177 280,177 280,178 280,179 280,179 280,180 280,180 281,181 281,181 281,182 281,182 281,182 281,182 281,183 281,183 281,183 281,183 281,184 281,184 281,184 282,184 282,184 282,185 282,185 282,185 282,185 282,185 282,185 282,185 282,185 282,185 282,185 282,184 283,184 283,184 283,184 283,184 283,184 283,184 283,185 283,185 283,185 283,185 283,185 283,185 283,185 284,185 284,185 284,185 284,185 284,184 284,184 284,184 284,184 284,185 284,185 284,185 284,185 284,185 285,185 285,185 285,185 285,185 285,185 285,185 285,186 285,186 285,186 285,186 285,186 285,186 285,186 286,186 286,186 286,186 286,187 286,187 286,187 286,187 286,187 286,187 286,187 286,187 286,187 286,188 287,188 287,188 287,189 287,189 287,190 287,190 287,191 287,191 287,192 287,192 287,193 287,194 287,194 288,195 288,195 288,196 288,197 288,197 288,198 288,199 288,199 288,200 288,201 288,201 288,201 288,202 289,203 289,203 289,203 289,204 289,204 289,204 289,204 289,203 289,203 289,202 289,202 289,201 289,201 290,200 290,200 290,199 290,198 290,198 290,197 290,197 290,196 290,195 290,195 290,194 290,194 290,193 291,193 291,193 291,192 291,192 291,192 291,191 291,191 291,191 291,191 291,190 291,190 291,190 291,190 292,189 292,189 292,189 292,189 292,190 292,190 292,190 292,191 292,191 292,191 292,192 292,192 292,193 293,193 293,194 293,195 293,195 293,196 293,197 293,198 293,199 293,200 293,200 293,201 293,202 293,203 294,203 294,203 294,203 294,203 294,203 294,202 294,202 294,201 294,201 294,200 294,200 294,199 294,199 295,199 295,199 295,199 295,200 295,199 295,199 295,199 295,199 295,199 295,200 295,200 295,201 295,201 296,203 296,204 296,203 296,203 296,202 296,201 296,201 296,201 296,201 296,200 296,200 296,201 296,201 297,201 297,202 297,202 297,203 297,203 297,204 297,205 297,206 297,207 297,207 297,207 297,208 297,208 298,208 298,207 298,207 298,207 298,207 298,206 298,206 298,206 298,206 298,206 298,206 298,206 298,206 299,206 299,206 299,206 299,206 299,206 299,206 299,207 299,206 299,206 299,206 299,206 299,207 299,207 300,206 300,206 300,206 300,206 300,206 300,206 300,206 300,206 300,206 300,206 300,205 300,205 300,205 301,205 301,205 301,205 301,204 301,204 301,204 301,204 301,204 301,204 301,204 301,204 301,204 301,204 302,204 302,204 302,204 302,204 302,203 302,203 302,203 302,203 302,203 302,203 302,202 302,202 302,201 303,200 303,200 303,199 303,198 303,198 303,197 303,196 303,196 303,195 303,194 303,194 303,193 303,192 304,192 304,191 304,190 304,190 304,190 304,189 304,189 304,188 304,188 304,188 304,187 304,187 304,187 305,186 305,186 305,186 305,186 305,185 305,185 305,185 305,185 305,185 305,185 305,185 305,185 305,185 306,185 306,185 306,185 306,186 306,186 306,186 306,186 306,187 306,187 306,187 306,187 306,186 306,186 307,185 307,185 307,185 307,185 307,185 307,185 307,185 307,185 307,185 307,185 307,185 307,185 307,185 308,185 308,185 308,185 308,184 308,184 308,184 308,183 308,183 308,182 308,181 308,181 308,180 308,180 309,179 309,179 309,178 309,178 309,178 309,177 309,177 309,177 309,176 309,176 309,176 309,175 309,175 310,175 310,175 310,174 310,174 310,174 310,173 310,173 310,173 310,173 310,172 310,172 310,172 310,172 311,171 311,171 311,171 311,171 311,171 311,170 311,170 311,170 311,170 311,170 311,170 311,170 311,170 312,170 312,170 312,170 312,170 312,171 312,171 312,171 312,172 312,172 312,172 312,173 312,173 312,173 313,174 313,174 313,174 313,175 313,175 313,176 313,176 313,176 313,177 313,177 313,177 313,177 313,178 314,178 314,178 314,179 314,179 314,179 314,179 314,179 314,180 314,180 314,180 314,180 314,180 314,180 315,180 315,180 315,180 315,180 315,180 315,180 315,179 315,180 315,180 315,180 315,181 315,181 315,182 316,182 316,182 316,183 316,183 316,184 316,184 316,184 316,184 316,184 316,185 316,184 316,184 316,184 317,183 317,183 317,182 317,181 317,181 317,180 317,180 317,180 317,180 317,180 317,179 317,179 317,179 318,178 318,178 318,178 318,178 318,178 318,178 318,178 318,178 318,178 318,178 318,178 318,179 318,179 319,179 319,179 319,179 319,179 319,178 319,179 319,179 319,179 319,178 319,178 319,178 319,177 319,177 320,177 320,177 320,177 320,177 320,177 320,177 320,177 320,177 320,176 320,176 320,176 320,176 320,176 321,176 321,175 321,175 321,175 321,175 321,174 321,174 321,174 321,174 321,174 321,173 321,173 321,173 322,172 322,172 322,171 322,171 322,170 322,170 322,169 322,168 322,168 322,167 322,167 322,166 322,166 323,166 323,166 323,165 323,165 323,165 323,165 323,164 323,164 323,164 323,164 323,163 323,163 323,163 324,163 324,163 324,163 324,163 324,164 324,164 324,164 324,164 324,164 324,164 324,163 324,163 324,162 325,162 325,161 325,161 325,161 325,160 325,160 325,159 325,159 325,159 325,159 325,158 325,158 325,158 326,158 326,157 326,156 326,156 326,156 326,155 326,155 326,155 326,154 326,153 326,153 326,152 326,151 327,151 327,150 327,150 327,150 327,149 327,149 327,149 327,149 327,148 327,148 327,148 327,148 327,148 328,148 328,147 328,147 328,147 328,147 328,147 328,147 328,147 328,146 328,146 328,146 328,146 328,146 329,146 329,146 329,145 329,145 329,145 329,145 329,145 329,145 329,145 329,144 329,144 329,144 329,144 330,144 330,144 330,144 330,143 330,143 330,143 330,144 330,144 330,144 330,144 330,144 330,144 330,144 331,145 331,145 331,145 331,145 331,146 331,146 331,146 331,146 331,146 331,146 331,146 331,146 331,147 332,147 332,147 332,148 332,149 332,149 332,149 332,149 332,150 332,150 332,151 332,151 332,152 332,152 333,152 333,153 333,153 333,153 333,154 333,154 333,155 333,155 333,156 333,156 333,156 333,156 333,157 334,157 334,157 334,157 334,157 334,158 334,158 334,158 334,158 334,159 334,159 334,160 334,160 334,160 335,161 335,162 335,162 335,163 335,164 335,164 335,165 335,166 335,166 335,167 335,167 335,168 335,168 336,168 336,169 336,169 336,169 336,169 336,169 336,169 336,168 336,168 336,167 336,167 336,167 336,166 337,166 337,165 337,165 337,165 337,165 337,165 337,165 337,165 337,166 337,166 337,166 337,166 337,166 338,166 338,166 338,167 338,167 338,167 338,167 338,167 338,167 338,167 338,168 338,168 338,168 338,168 339,168 339,169 339,169 339,169 339,169 339,170 339,170 339,170 339,171 339,171 339,172 339,172 339,173 340,173 340,174 340,175 340,175 340,176 340,177 340,177 340,177 340,177 340,177 340,177 340,177 340,177 341,176 341,176 341,176 341,176 341,176 341,176 341,176 341,177 341,177 341,177 341,178 341,178 341,179 342,179 342,180 342,180 342,181 342,182 342,182 342,183 342,184 342,185 342,186 342,187 342,189 342,189 343,190 343,191 343,192 343,193 343,194 343,194 343,195 343,195 343,195 343,196 343,196 343,197 343,197 343,197 344,197 344,197 344,197 344,197 344,197 344,197 344,196 344,196 344,195 344,195 344,195 344,195 344,194 345,193 345,193 345,193 345,193 345,194 345,194 345,194 345,194 345,193 345,193 345,194 345,194 345,194 346,194 346,194 346,194 346,194 346,194 346,194 346,194 346,194 346,194 346,195 346,196 346,197 346,198 347,198 347,199 347,200 347,200 347,201 347,202 347,203 347,203 347,204 347,205 347,205 347,206 347,206 348,206 348,207 348,207 348,208 348,208 348,209 348,209 348,209 348,209 348,210 348,210 348,210 348,210 349,210 349,210 349,209 349,208 349,208 349,208 349,208 349,208 349,208 349,209 349,209 349,209 349,210 350,210 350,211 350,211 350,211 350,212 350,212 350,212 350,212 350,213 350,213 350,213 350,214 350,213 351,213 351,213 351,213 351,213 351,214 351,214 351,214 351,214 351,214 351,214 351,214 351,214 351,214 352,214 352,215 352,215 352,215 352,215 352,215 352,215 352,216 352,216 352,216 352,216 352,215 352,215 353,215 353,215 353,215 353,215 353,215 353,215 353,215 353,216 353,216 353,216 353,216 353,216 353,216 354,216 354,216 354,216 354,216 354,215 354,215 354,215 354,215 354,215 354,215 354,215 354,215 354,215 355,215 355,215 355,216 355,216 355,216 355,216 355,216 355,216 355,216 355,216 355,216 355,216 355,216 356,216 356,217 356,217 356,217 356,217 356,217 356,217 356,217 356,217 356,217 356,217 356,217 356,217 357,217 357,216 357,216 357,216 357,216 357,216 357,216 357,216 357,216 357,216 357,216 357,216 357,216 358,216 358,216 358,216 358,216 358,216 358,216 358,216 358,216 358,216 358,216 358,216 358,216 358,216 359,216 359,216 359,216 359,216 359,216 359,216 359,216 359,216 359,216 359,216 359,216 359,216 359,216 360,216 360,216 360,216 360,216 360,216 360,216 360,216 360,216 360,216 360,216 360,216 360,216 360,216 361,216 361,216 361,216 361,216 361,216 361,215 361,215 361,215 361,215 361,215 361,215 361,215 361,214 362,214 362,214 362,214 362,214 362,213 362,213 362,213 362,213 362,213 362,213 362,212 362,212 362,212 363,212 363,212 363,212 363,213 363,213 363,213 363,213 363,213 363,213 363,213 363,213 363,213 363,213 364,213 364,213 364,212 364,212 364,212 364,212 364,212 364,212 364,211 364,211 364,211 364,211 364,211 365,210 365,210 365,210 365,210 365,209 365,209 365,209 365,209 365,209 365,209 365,209 365,209 365,209 366,209 366,209 366,210 366,210 366,210 366,211 366,211 366,212 366,212 366,212 366,213 366,213 366,213 367,213 367,213 367,213 367,212 367,212 367,211 367,211 367,210 367,209 367,208 367,208 367,208 367,208 368,207 368,207 368,207 368,207 368,207 368,207 368,207 368,207 368,207 368,207 368,207 368,207 368,208 369,208 369,208 369,208 369,208 369,208 369,208 369,208 369,208 369,208 369,209 369,210 369,210 369,211 370,212 370,213 370,214 370,215 370,215 370,216 370,216 370,217 370,217 370,217 370,217 370,218 370,218 371,218 371,217 371,216 371,216 371,216 371,216 371,216 371,216 371,216 371,216 371,217 371,217 371,217 372,217 372,217 372,217 372,217 372,217 372,218 372,218 372,218 372,219 372,219 372,219 372,219 372,219 373,219 373,219 373,219 373,219 373,219 373,219 373,219 373,218 373,218 373,218 373,218 373,218 373,218 374,218 374,217 374,217 374,217 374,217 374,217 374,217 374,217 374,217 374,217 374,216 374,216 374,216 375,216 375,216 375,216 375,216 375,216 375,216 375,216 375,216 375,216 375,216 375,216 375,216 375,216 376,216 376,216 376,216 376,216 376,216 376,216 376,216 376,216 376,216 376,216 376,216 376,217 376,217 377,217 377,217 377,218 377,218 377,218 377,218 377,218 377,218 377,218 377,218 377,218 377,218 377,218 378,218 378,218 378,218 378,219 378,219 378,219 378,219 378,219 378,220 378,220 378,221 378,221 378,222 379,223 379,224 379,224 379,223 379,222 379,221 379,220 379,219 379,217 379,216 379,215 379,214 379,213 380,212 380,211 380,211 380,210 380,209 380,209 380,208 380,208 380,207 380,207 380,207 380,206 380,206 381,206 381,205 381,205 381,205 381,205 381,205 381,205 381,205 381,204 381,204 381,204 381,204 381,204 382,204 382,204 382,203 382,203 382,203 382,203 382,203 382,203 382,203 382,203 382,203 382,202 382,202 383,202 383,202 383,202 383,201 383,201 383,200 383,200 383,200 383,200 383,200 383,200 383,200 383,201 384,201 384,201 384,201 384,201 384,201 384,201 384,201 384,201 384,202 384,202 384,202 384,202 384,202 385,202 385,202 385,202 385,202 385,202 385,202 385,202 385,202 385,202 385,202 385,202 385,202 385,202 386,202 386,202 386,202 386,202 386,202 386,202 386,202 386,202 386,202 386,202 386,202 386,202 386,202 387,202 387,202 387,202 387,202 387,202 387,202 387,201 387,201 387,200 387,199 387,199 387,199 387,198 388,198 388,197 388,197 388,196 388,196 388,196 388,196 388,196 388,196 388,196 388,196 388,196 388,196 389,196 389,196 389,196 389,196 389,196 389,196 389,196 389,196 389,197 389,197 389,197 389,197 389,197 390,198 390,198 390,198 390,199 390,199 390,199 390,199 390,199 390,199 390,199 390,199 390,199 390,199 391,199 391,198 391,198 391,198 391,198 391,198 391,198 391,198 391,198 391,198 391,198 391,197 391,197 392,197 392,196 392,196 392,196 392,195 392,195 392,195 392,194 392,194 392,194 392,193 392,193 392,193 393,192 393,192 393,192 393,192 393,191 393,191 393,191 393,190 393,190 393,190 393,189 393,189 393,189 394,188 394,188 394,188 394,187 394,187 394,187 394,186 394,186 394,186 394,186 394,186 394,186 394,185 395,185 395,185 395,185 395,185 395,185 395,185 395,185 395,184 395,184 395,183 395,183 395,183 395,182 396,182 396,182 396,181 396,181 396,181 396,180 396,180 396,180 396,179 396,179 396,179 396,178 396,178 397,178 397,178 397,177 397,177 397,177 397,176 397,176 397,176 397,175 397,175 397,174 397,174 397,173 398,173 398,173 398,172 398,172 398,171 398,171 398,170 398,170 398,169 398,169 398,169 398,168 398,168 399,167 399,167 399,166 399,166 399,166 399,165 399,165 399,165 399,164 399,164 399,164 399,164 399,164 400,164 400,164 400,164 400,164 400,164 400,164 400,164 400,164 400,165 400,165 400,164 400,164 400,164 401,164 401,165 401,165 401,165 401,165 401,165 401,165 401,165 401,165 401,165 401,165 401,164 401,165 402,165 402,166 402,167 402,167 402,168 402,168 402,168 402,168 402,168 402,168 402,168 402,168 402,168 403,168 403,168 403,168 403,168 403,168 403,168 403,167 403,167 403,167 403,167 403,167 403,167 403,167 404,167 404,168 404,168 404,169 404,170 404,171 404,172 404,172 404,173 404,173 404,174 404,174 404,174 405,175 405,175 405,175 405,175 405,176 405,176 405,177 405,177 405,177 405,178 405,178 405,178 405,179 406,179 406,179 406,179 406,180 406,180 406,180 406,181 406,181 406,182 406,182 406,183 406,183 406,184 407,185 407,186 407,186 407,187 407,188 407,188 407,189 407,189 407,190 407,191 407,191 407,192 407,192 408,193 408,193 408,194 408,194 408,195 408,195 408,195 408,196 408,196 408,196 408,197 408,197 408,197 409,197 409,197 409,198 409,198 409,198 409,198 409,198 409,198 409,198 409,198 409,198 409,198 409,198 410,198 410,199 410,199 410,200 410,200 410,201 410,201 410,202 410,203 410,204 410,205 410,206 410,207 411,208 411,209 411,210 411,211 411,211 411,212 411,213 411,213 411,213 411,213 411,213 411,213 411,213 412,213 412,212 412,212 412,212 412,212 412,211 412,211 412,211 412,211 412,211 412,211 412,211 412,211 413,211 413,211 413,211 413,211 413,212 413,212 413,212 413,212 413,212 413,211 413,211 413,211 413,211 414,211 414,211 414,211 414,211 414,211 414,210 414,210 414,210 414,210 414,210 414,210 414,209 414,209 415,209 415,209 415,208 415,208 415,208 415,208 415,207 415,207 415,206 415,206 415,205 415,205 415,204 416,204 416,203 416,202 416,201 416,200 416,200 416,199 416,199 416,199 416,199 416,199 416,199 416,199 417,199 417,198 417,198 417,197 417,196 417,196 417,196 417,195 417,195 417,195 417,194 417,194 417,194 418,194 418,193 418,193 418,192 418,191 418,190 418,190 418,189 418,188 418,188 418,187 418,187 418,187 419,187 419,186 419,186 419,186 419,186 419,186 419,185 419,185 419,185 419,185 419,184 419,185 419,185 420,185 420,186 420,186 420,187 420,188 420,188 420,189 420,189 420,190 420,190 420,191 420,191 420,191 421,191 421,192 421,192 421,192 421,193 421,193 421,193 421,194 421,194 421,195 421,195 421,196 421,196 422,196 422,195 422,195 422,195 422,195 422,195 422,195 422,195 422,195 422,195 422,195 422,195 422,195 423,195 423,195 423,195 423,194 423,193 423,193 423,192 423,192 423,192 423,192 423,191 423,191 423,191 424,191 424,191 424,191 424,191 424,191 424,191 424,191 424,191 424,191 424,190 424,190 424,190 424,190 425,190 425,190 425,190 425,190 425,190 425,190 425,190 425,189 425,189 425,189 425,189 425,189 425,189 426,190 426,190 426,190 426,190 426,190 426,191 426,191 426,191 426,191 426,191 426,191 426,191 426,191 427,191 427,191 427,191 427,191 427,191 427,191 427,191 427,191 427,191 427,191 427,191 427,190 427,190 428,190 428,190 428,190 428,190 428,189 428,189 428,189 428,188 428,188 428,188 428,187 428,187 428,186 429,186 429,185 429,185 429,185 429,184 429,184 429,183 429,183 429,183 429,182 429,182 429,181 429,181 430,180 430,180 430,179 430,179 430,179 430,178 430,178 430,178 430,178 430,178 430,178 430,179 430,179 431,179 431,179 431,179 431,179 431,180 431,180 431,180 431,180 431,180 431,180 431,180 431,180 431,181 432,181 432,181 432,181 432,181 432,182 432,182 432,183 432,184 432,184 432,185 432,186 432,186 432,187 433,188 433,189 433,190 433,190 433,190 433,190 433,190 433,190 433,190 433,190 433,190 433,190 433,190 434,190 434,190 434,190 434,190 434,189 434,188 434,187 434,187 434,186 434,186 434,185 434,185 434,184 435,184 435,183 435,183 435,183 435,182 435,182 435,181 435,181 435,181 435,180 435,180 435,180 435,179 436,179 436,178 436,178 436,178 436,178 436,177 436,177 436,177 436,177 436,177 436,177 436,177 436,177 437,178 437,178 437,178 437,178 437,178 437,179 437,179 437,179 437,179 437,179 437,180 437,180 437,180 438,180 438,181 438,181 438,181 438,181 438,181 438,181 438,182 438,182 438,182 438,182 438,182 438,182 439,183 439,183 439,183 439,183 439,183 439,183 439,183 439,183 439,184 439,184 439,184 439,184 439,185 440,185 440,185 440,185 440,185 440,185 440,185 440,184 440,184 440,184 440,183 440,183 440,182 440,182 441,182 441,181 441,181 441,180 441,180 441,180 441,179 441,179 441,178 441,178 441,177 441,177 441,176 442,176 442,176 442,175 442,175 442,175 442,174 442,174 442,174 442,174 442,173 442,173 442,173 442,173 443,173 443,172 443,172 443,172 443,173 443,173 443,173 443,174 443,174 443,174 443,174 443,174 443,175 444,175 444,175 444,175 444,176 444,176 444,176 444,177 444,177 444,177 444,178 444,178 444,179 444,179 445,180 445,181 445,182 445,182 445,183 445,183 445,184 445,184 445,185 445,185 445,185 445,186 445,186 446,186 446,186 446,187 446,187 446,187 446,187 446,188 446,188 446,188 446,188 446,188 446,189 446,189 447,189 447,189 447,190 447,190 447,190 447,191 447,191 447,191 447,191 447,191 447,192 447,192 447,192 448,192 448,192 448,193 448,192 448,192 448,192 448,192 448,192 448,192 448,192 448,192 448,192 448,192 449,192 449,192 449,192 449,192 449,192 449,191 449,191 449,191 449,191 449,190 449,190 449,189 449,189 450,189 450,188 450,188 450,187 450,187 450,186 450,186 450,185 450,185 450,185 450,185 450,185 450,185 451,185 451,185 451,185 451,185 451,185 451,185 451,185 451,186 451,186 451,186 451,186 451,186 451,187 452,187 452,187 452,187 452,188 452,188 452,189 452,190 452,191 452,191 452,192 452,193 452,194 452,195 453,196 453,196 453,196 453,197 453,197 453,198 453,198 453,198 453,198 453,198 453,199 453,199 453,199 454,199 454,199 454,199 454,199 454,199 454,199 454,199 454,199 454,199 454,199 454,199 454,199 454,199 455,199 455,200 455,200 455,200 455,200 455,201 455,201 455,201 455,201 455,201 455,201 455,201 455,201 456,200 456,200 456,199 456,199 456,198 456,198 456,198 456,199 456,198 456,198 456,198 456,198 456,198 457,198 457,198 457,198 457,198 457,198 457,198 457,198 457,198 457,198 457,198 457,199 457,199 457,199 458,199 458,199 458,199 458,200 458,199 458,199 458,199 458,199 458,199 458,199 458,199 458,199 458,199 459,199 459,198 459,198 459,199 459,199 459,199 459,199 459,199 459,199 459,198 459,198 459,198 459,198 460,199 460,199 460,199 460,199 460,199 460,199 460,199 460,199 460,199 460,199 460,198 460,198 460,198 461,197 461,197 461,197 461,197 461,196 461,196 461,196 461,196 461,196 461,196 461,195 461,195 461,195 462,195 462,195 462,195 462,195 462,195 462,195 462,195 462,195 462,195 462,195 462,195 462,195 462,195 463,195 463,195 463,195 463,195 463,195 463,195 463,195 463,194 463,194 463,194 463,194 463,194 463,193 464,193 464,192 464,192 464,192 464,192 464,192 464,192 464,192 464,192 464,192 464,191 464,191 464,191 465,190 465,190 465,189 465,189 465,188 465,188 465,188 465,188 465,188 465,188 465,187 465,187 465,187 466,187 466,187 466,187 466,187 466,187 466,187 466,187 466,187 466,188 466,188 466,188 466,188 466,188 467,188 467,187 467,187 467,187 467,187 467,187 467,187 467,187 467,187 467,187 467,186 467,186 467,186 468,185 468,185 468,185 468,184 468,184 468,184 468,184 468,184 468,184 468,184 468,184 468,184 468,184 469,185 469,185 469,185 469,185 469,185 469,185 469,185 469,186 469,186 469,186 469,186 469,186 469,187 470,187 470,188 470,188 470,188 470,188 470,188 470,188 470,188 470,189 470,189 470,189 470,189 470,189 470,189 471,189 471,189 471,189 471,189 471,190 471,190 471,190 471,190 471,190 471,190 471,191 471,191 471,191 472,191 472,192 472,192 472,192 472,192 472,193 472,193 472,193 472,193 472,193 472,193 472,193 472,193 473,193 473,193 473,193 473,193 473,193 473,192 473,192 473,192 473,192 473,192 473,193 473,193 473,193 474,193 474,193 474,193 474,193 474,192 474,192 474,192 474,192 474,192 474,192 474,192 474,191 474,191 475,191 475,191 475,191 475,190 475,190 475,190 475,190 475,189 475,189 475,189 475,189 475,189 475,189 476,189 476,189 476,189 476,189 476,189 476,188 476,188 476,188 476,188 476,188 476,188 476,187 476,187 477,187 477,187 477,186 477,186 477,186 477,186 477,185 477,185 477,185 477,185 477,185 477,185 477,185 478,185 478,185 478,186 478,186 478,186 478,186 478,187 478,187 478,188 478,188 478,189 478,189 478,190 479,191 479,191 479,191 479,192 479,192 479,192 479,192 479,193 479,193 479,192 479,192 479,192 479,191 480,191 480,191 480,191 480,190 480,190 480,190 480,190 480,190 480,190 480,190 480,189 480,189 480,189 481,188 481,188 481,188 481,188 481,188 481,187 481,187 481,187 481,187 481,187 481,186 481,186 481,186 482,185 482,185 482,184 482,184 482,184 482,183 482,183 482,183 482,182 482,182 482,181 482,181 482,181 483,180 483,180 483,179 483,179 483,178 483,178 483,178 483,177 483,177 483,176 483,176 483,176 483,176 484,175 484,175 484,175 484,175 484,175 484,175 484,175 484,175 484,175 484,175 484,175 484,175 484,175 485,175 485,175 485,175 485,175 485,175 485,175 485,175 485,175 485,175 485,175 485,175 485,175 485,176 486,176 486,176 486,177 486,177 486,178 486,178 486,179 486,180 486,180 486,181 486,182 486,183 486,183 487,184 487,184 487,185 487,185 487,186 487,186 487,186 487,186 487,186 487,187 487,187 487,187 487,187 488,187 488,187 488,187 488,187 488,187 488,187 488,188 488,188 488,188 488,188 488,189 488,189 488,189 489,189 489,189 489,189 489,189 489,189 489,189 489,189 489,189 489,188 489,188 489,187 489,187 489,186 490,186 490,186 490,185 490,184 490,184 490,183 490,183 490,182 490,181 490,181 490,180 490,179 490,179 491,178 491,178 491,177 491,177 491,177 491,176 491,176 491,175 491,175 491,174 491,174 491,173 491,173 492,173 492,173 492,173 492,173 492,173 492,173 492,173 492,173 492,173 492,173 492,173 492,173 492,173 493,173 493,173 493,173 493,173 493,173 493,173 493,174 493,173 493,173 493,173 493,173 493,173 493,173 494,173 494,172 494,172 494,172 494,172 494,172 494,172 494,172 494,172 494,171 494,171 494,172 494,172 495,172 495,172 495,172 495,173 495,173 495,173 495,173 495,173 495,173 495,173 495,173 495,173 495,173 496,173 496,173 496,172 496,172 496,172 496,172 496,171 496,171 496,171 496,171 496,172 496,172 496,172 497,173 497,173 497,174 497,174 497,175 497,175 497,176 497,176 497,177 497,177 497,177 497,178 497,178 498,178 498,178 498,179 498,179 498,179 498,180 498,180 498,180 498,181 498,181 498,181 498,182 498,182 499,182 499,183 499,183 499,184 499,184 499,184 499,184 499,185 499,185 499,185 499,185 499,185 499,186 500,186 500,186 500,186 500,186 500,187 500,187 500,187 500,187 500,187 500,188 500,188 500,189 500,189 501,189 501,190 501,190 501,190 501,191 501,191 501,191 501,192 501,191 501,191 501,191 501,191 501,191 502,191 502,191 502,191 502,190 502,190 502,190 502,190 502,189 502,189 502,189 502,189 502,188 502,188 503,188 503,188 503,187 503,187 503,187 503,186 503,186 503,186 503,185 503,185 503,185 503,184 503,184 504,184 504,184 504,183 504,183 504,183 504,183 504,183 504,183 504,183 504,183 504,183 504,183 504,183 505,183 505,184 505,184 505,184 505,184 505,184 505,184 505,185 505,185 505,185 505,185 505,185 505,185 506,185 506,185 506,185 506,185 506,185 506,185 506,185 506,185 506,185 506,185 506,185 506,185 506,185 507,185 507,185 507,184 507,184 507,184 507,184 507,184 507,184 507,184 507,184 507,184 507,184 507,184 508,183 508,183 508,183 508,183 508,183 508,183 508,182 508,182 508,182 508,182 508,182 508,181 508,181 509,181 509,181 509,181 509,180 509,180 509,180 509,180 509,179 509,179 509,179 509,178 509,178 509,178 510,177 510,177 510,177 510,176 510,175 510,175 510,174 510,174 510,173 510,172 510,172 510,171 510,171 511,171 511,170 511,170 511,170 511,169 511,169 511,168 511,168 511,168 511,167 511,167 511,167 511,167 512,167 512,167 512,167 512,167 512,167 512,167 512,167 512,167 512,167 512,167 512,167 512,168 512,168 513,168 513,169 513,169 513,170 513,170 513,170 513,171 513,171 513,172 513,172 513,173 513,173 513,173 514,174 514,174 514,174 514,175 514,175 514,175 514,176 514,176 514,177 514,177 514,177 514,177 514,177 515,178 515,178 515,178 515,179 515,179 515,179 515,179 515,179 515,180 515,180 515,180 515,180 515,180 516,180 516,181 516,181 516,182 516,182 516,183 516,184 516,184 516,185 516,186 516,186 516,187 516,187 517,187 517,187 517,188 517,188 517,188 517,187 517,187 517,187 517,187 517,186 517,186 517,186 517,186 518,185 518,185 518,185 518,185 518,184 518,184 518,184 518,184 518,184 518,184 518,184 518,184 518,184 519,184 519,184 519,184 519,184 519,184 519,184 519,184 519,184 519,184 519,184 519,184 519,184 519,184 520,184 520,184 520,184 520,184 520,184 520,184 520,185 520,185 520,185 520,185 520,185 520,185 520,185 521,185 521,185 521,186 521,186 521,186 521,186 521,186 521,186 521,187 521,187 521,187 521,187 521,187 522,187 522,186 522,186 522,186 522,186 522,186 522,186 522,185 522,185 522,184 522,184 522,184 522,183 523,183 523,183 523,182 523,182 523,181 523,181 523,181 523,181 523,180 523,180 523,180 523,180 523,180 524,180 524,179 524,179 524,179 524,179 524,180 524,180 524,180 524,179 524,179 524,179 524,178 524,178 525,178 525,178 525,177 525,177 525,177 525,176 525,176 525,176 525,175 525,175 525,175 525,174 525,174 526,174 526,173 526,173 526,173 526,173 526,172 526,172 526,172 526,172 526,172 526,172 526,172 526,172 527,172 527,172 527,172 527,172 527,173 527,173 527,174 527,175 527,176 527,176 527,177 527,177 527,178 528,178 528,179 528,179 528,180 528,180 528,180 528,180 528,181 528,181 528,181 528,181 528,181 528,181 529,181 529,181 529,181 529,181 529,181 529,181 529,181 529,181 529,181 529,181 529,181 529,181 529,182 530,182 530,182 530,182 530,182 530,182 530,182 530,182 530,182 530,182 530,182 530,182 530,182 530,182 531,182 531,182 531,182 531,181 531,181 531,181 531,181 531,181 531,181 531,181 531,181 531,181 531,181 532,181 532,181 532,181 532,181 532,180 532,180 532,180 532,180 532,180 532,180 532,179 532,179 532,179 533,179 533,179 533,179 533,179 533,179 533,179 533,179 533,179 533,179 533,179 533,179 533,179 533,179 534,179 534,179 534,179 534,179 534,179 534,178 534,178 534,179 534,179 534,179 534,179 534,179 534,179 535,179 535,180 535,180 535,181 535,181 535,182 535,182 535,183 535,183 535,183 535,183 535,183 535,184 536,183 536,183 536,182 536,182 536,181 536,181 536,180 536,180 536,179 536,179 536,179 536,179 536,178 537,178 537,178 537,178 537,178 537,178 537,177 537,178 537,177 537,177 537,177 537,177 537,177 537,177 538,177 538,177 538,177 538,177 538,177 538,177 538,177 538,177 538,177 538,177 538,177 538,177 538,177 539,177 539,176 539,176 539,176 539,176 539,176 539,176 539,176 539,176 539,175 539,175 539,175 539,175 540,175 540,174 540,174 540,174 540,174 540,174 540,174 540,174 540,174 540,174 540,174 540,173 540,173 541,174 541,174 541,173 541,173 541,173 541,174 541,174 541,174 541,174 541,174 541,173 541,173 541,173 542,173 542,173 542,173 542,174 542,174 542,174 542,174 542,174 542,174 542,174 542,174 542,174 542,174 543,173 543,173 543,174 543,174 543,174 543,174 543,174 543,174 543,174 543,174 543,174 543,174 543,174 544,174 544,174 544,174 544,174 544,174 544,174 544,174 544,174 544,174 544,174 544,174 544,174 544,174 545,174 545,174 545,174 545,174 545,173 545,173 545,173 545,173 545,172 545,172 545,172 545,172 545,171 546,171 546,171 546,171 546,171 546,171 546,171 546,170 546,170 546,170 546,170 546,170 546,170 546,170 547,171 547,171 547,170 547,170 547,170 547,170 547,170 547,170 547,169 547,169 547,169 547,168 547,168 548,167 548,167 548,167 548,167 548,167 548,167 548,167 548,167 548,167 548,167 548,167 548,167 548,167 549,167 549,167 549,168 549,168 549,168 549,168 549,168 549,168 549,168 549,168 549,168 549,168 549,168 550,168 550,168 550,168 550,168 550,168 550,168 550,168 550,167 550,167 550,167 550,166 550,166 550,166 551,166 551,166 551,166 551,166 551,167 551,167 551,167 551,167 551,167 551,168 551,168 551,168 551,168 552,168 552,168 552,168 552,168 552,169 552,169 552,169 552,169 552,169 552,169 552,169 552,169 552,169 553,169 553,168 553,168 553,168 553,168 553,168 553,168 553,168 553,167 553,167 553,167 553,166 553,166 554,167 554,167 554,166 554,166 554,166 554,166 554,166 554,165 554,165 554,165 554,165 554,165 554,165 555,164 555,164 555,164 555,164 555,164 555,164 555,164 555,164 555,164 555,164 555,164 555,165 555,165 556,165 556,165 556,165 556,165 556,166 556,166 556,166 556,166 556,166 556,166 556,166 556,166 556,166 557,166 557,166 557,166 557,166 557,166 557,166 557,166 557,166 557,166 557,166 557,166 557,166 557,166 558,166 558,167 558,167 558,167 558,167 558,167 558,167 558,166 558,166 558,166 558,166 558,166 558,166 559,166 559,165 559,165 559,165 559,165 559,165 559,165 559,165 559,165 559,165 559,165 559,165 559,165 560,165 560,166 560,166 560,166 560,166 560,166 560,167 560,167 560,167 560,167 560,167 560,167 560,167 561,167 561,167 561,168 561,168 561,168 561,168 561,169 561,169 561,169 561,169 561,169 561,169 561,170 562,170 562,170 562,170 562,170 562,170 562,170 562,170 562,170 562,170 562,170 562,170 562,170 562,170 563,170 563,170 563,170 563,170 563,170 563,170 563,169 563,169 563,169 563,169 563,169 563,169 563,169 564,169 564,169 564,169 564,169 564,169 564,169 564,168 564,168 564,168 564,168 564,168 564,168 564,168 565,168 565,168 565,168 565,168 565,167 565,167 565,167 565,166 565,166 565,166 565,165 565,165 565,165 566,165 566,164 566,164 566,164 566,164 566,164 566,164 566,164 566,164 566,164 566,164 566,164 566,163 567,163 567,163 567,163 567,163 567,162 567,162 567,162 567,162 567,162 567,162 567,161 567,161 567,161 568,161 568,161 568,161 568,160 568,160 568,160 568,160 568,160 568,160 568,160 568,160 568,160 568,160 569,160 569,161 569,161 569,161 569,161 569,161 569,161 569,161 569,162 569,162 569,162 569,162 569,162 570,162 570,163 570,163 570,163 570,164 570,164 570,164 570,164 570,164 570,165 570,165 570,165 570,165 571,165 571,165 571,165 571,166 571,166 571,166 571,166 571,167 571,167 571,167 571,167 571,167 571,168 572,168 572,168 572,168 572,168 572,168 572,168 572,168 572,168 572,168 572,168 572,168 572,168 572,168 573,168 573,168 573,168 573,168 573,168 573,168 573,168 573,168 573,168 573,168 573,168 573,168 573,168 574,168 574,168 574,168 574,168 574,168 574,167 574,167 574,167 574,167 574,167 574,167 574,167 574,167 575,167 575,167 575,167 575,167 575,167 575,167 575,166 575,166 575,166 575,166 575,166 575,166 575,166 576,166 576,166 576,166 576,166 576,166 576,166 576,166 576,166 576,166 576,166 576,166 576,166 576,166 577,166 577,166 577,166 577,166 577,166 577,166 577,166 577,166 577,166 577,166 577,166 577,166 577,166 578,167 578,167 578,167 578,167 578,167 578,167 578,167 578,167 578,167 578,167 578,167 578,167 578,168 579,168 579,168 579,168 579,168 579,168 579,168 579,168 579,168 579,169 579,169 579,169 579,169 579,169 580,169 580,169 580,169 580,169 580,169 580,169 580,169 580,170 580,170 580,170 580,170 580,170 580,170 581,170 581,170 581,170 581,170 581,170 581,170 581,170 581,170 581,170 581,170 581,171 581,171 581,171 582,171 582,171 582,170 582,170 582,170 582,170 582,170 582,170 582,170 582,170 582,170 582,170 582,170 583,170 583,170 583,170 583,170 583,170 583,170 583,170 583,170 583,170 583,170 583,170 583,170 583,170 584,170 584,170 584,169 584,169 584,169 584,169 584,169 584,169 584,169 584,168 584,168 584,168 584,168 585,167 585,167 585,167 585,167 585,167 585,167 585,167 585,167 585,167 585,167 585,167 585,167 585,167 586,166 586,166 586,166 586,166 586,166 586,166 586,166 586,166 586,165 586,165 586,165 586,165 586,165 587,165 587,165 587,164 587,164 587,164 587,164 587,164 587,164 587,164 587,164 587,164 587,164 587,164 588,164 588,164 588,164 588,163 588,163 588,163 588,163 588,162 588,162 588,162 588,162 588,161 588,161 589,161 589,161 589,160 589,160 589,160 589,159 589,159 589,159 589,159 589,158 589,158 589,158 589,157 590,157 590,157 590,157 590,157 590,156 590,156 590,156 590,156 590,156 590,156 590,156 590,155 590,155 591,155 591,155 591,155 591,155 591,155 591,155 591,154 591,154 591,154 591,154 591,154 591,154 591,154 592,154 592,154 592,154 592,154 592,154 592,154 592,154 592,154 592,155 592,155 592,155 592,155 592,155 593,155 593,155 593,155 593,155 593,155 593,155 593,155 593,155 593,155 593,155 593,155 593,155 593,155 594,155 594,155 594,155 594,155 594,156 594,156 594,156 594,156 594,156 594,156 594,156 594,155 594,155 595,155 595,155 595,155 595,155 595,155 595,155 595,155 595,155 595,155 595,155 595,155 595,155 595,155 596,155 596,155 596,154 596,154 596,154 596,154 596,153 596,153 596,152 596,152 596,152 596,151 596,151 596,151 597,150 597,150 597,149 597,149 597,149 597,148 597,148 597,147 597,147 597,146 597,146 597,145 597,145 598,145 598,145 598,145 598,144 598,144 598,144 598,144 598,144 598,143 598,143 598,143 598,143 598,143 599,143 599,143 599,143 599,143 599,143 599,143 599,143 599,143 599,143 599,143 599,143 599,143 599,143 600,143 600,143 600,144 600,144 600,144 600,144 600,145 600,145 600,145 600,146 600,146 600,146 600,146 601,146 601,147 601,147 601,147 601,148 601,148 601,149 601,149 601,149 601,149 601,150 601,150 601,150 602,150 602,150 602,150 602,150 602,150 602,151 602,151 602,151 602,151 602,152 602,152 602,152 602,152 603,153 603,153 603,153 603,153 603,153 603,153 603,153 603,152 603,152 603,152 603,151 603,151 603,151 604,150 604,150 604,149 604,149 604,148 604,148 604,147 604,147 604,146 604,146 604,145 604,145 604,145 605,145 605,144 605,144 605,144 605,144 605,143 605,143 605,143 605,143 605,143 605,143 605,143 605,143 606,143 606,143 606,143 606,144 606,144 606,144 606,144 606,144 606,144 606,145 606,145 606,145 606,145 607,145 607,145 607,145 607,145 607,145 607,144 607,144 607,144 607,143 607,143 607,143 607,142 607,142 608,142 608,141 608,141 608,140 608,140 608,140 608,139 608,139 608,139 608,138 608,138 608,138 608,137 609,137 609,136 609,136 609,136 609,135 609,134 609,134 609,134 609,134 609,133 609,133 609,133 609,133 610,132 610,132 610,132 610,131 610,131 610,131 610,131 610,130 610,130 610,130 610,130 610,130 610,129 611,129 611,129 611,129 611,129 611,130 611,130 611,130 611,131 611,131 611,131 611,132 611,132 611,132 612,133 612,134 612,134 612,135 612,135 612,136 612,136 612,137 612,137 612,137 612,137 612,137 612,137 613,137 613,137 613,136 613,135 613,135 613,134 613,134 613,133 613,132 613,131 613,131 613,130 613,129 614,128 614,127 614,126 614,126 614,125 614,124 614,123 614,122 614,122 614,122 614,121 614,121 614,121 615,121 615,120 615,120 615,120 615,120 615,119 615,119 615,119 615,119 615,119 615,118 615,117 615,117 616,117 616,116 616,116 616,116 616,116 616,115 616,115 616,115 616,115 616,114 616,114 616,114 616,114 617,113 617,113 617,113 617,113 617,113 617,112 617,112 617,112 617,111 617,111 617,111 617,111 617,110 618,110 618,110 618,110 618,110 618,109 618,109 618,108 618,108 618,108 618,107 618,107 618,107 618,107 619,106 619,106 619,106 619,106 619,105 619,105 619,105 619,105 619,104 619,103 619,103 619,102 619,102 620,102 620,102 620,101 620,101 620,101 620,101 620,101 620,101 620,100 620,100 620,100 620,99 620,99 621,99 621,99 621,99 621,99 621,99 621,99 621,98 621,98 621,98 621,98 621,98 621,98 621,99 622,99 622,99 622,99 622,99 622,99 622,99 622,100 622,100 622,100 622,101 622,101 622,101 622,101 623,102 623,102 623,103 623,103 623,103 623,104 623,104 623,104 623,105 623,105 623,105 623,105 623,106 624,106 624,107 624,107 624,108 624,108 624,108 624,108 624,109 624,109 624,109 624,110 624,110 624,110 625,111 625,111 625,111 625,112 625,112 625,113 625,113 625,113 625,113 625,113 625,114 625,114 625,114 626,115 626,115 626,115 626,115 626,115 626,115 626,115 626,115 626,115 626,115 626,115 626,115 626,114 627,114 627,114 627,114 627,114 627,115 627,115 627,115 627,115 627,115 627,116 627,116 627,116 627,116 628,116 628,116 628,116 628,116 628,116 628,116 628,116 628,116 628,115 628,115 628,115 628,115 628,115 629,115 629,115 629,115 629,115 629,115 629,115 629,115 629,115 629,115 629,115 629,115 629,116 629,116 630,116 630,116 630,116 630,116 630,116 630,116 630,116 630,116 630,117 630,117 630,117 630,117 630,117 631,117 631,118 631,118 631,118 631,118 631,119 631,119 631,119 631,119 631,119 631,120 631,120 631,120 632,121 632,121 632,121 632,122 632,122 632,122 632,123 632,123 632,123 632,124 632,124 632,124 632,125 633,125 633,125 633,125 633,126 633,126 633,126 633,127 633,127 633,127 633,127 633,127 633,128 633,128 634,128 634,128 634,129 634,129 634,129 634,129 634,130 634,130 634,130 634,130 634,130 634,131 634,131 635,131 635,132 635,132 635,132 635,132 635,132 635,132 635,132 635,133 635,133 635,133 635,133 635,133 636,133 636,133 636,133 636,133 636,133 636,133 636,133 636,133 636,133 636,133 636,133 636,133 636,134 637,134 637,134 637,134 637,134 637,134 637,134 637,134 637,134 637,135 637,135 637,135 637,135 637,135 638,135 638,135 638,136 638,136 638,136 638,136 638,136 638,136 638,136 638,136 638,136 638,136 638,137 639,137 639,137 639,137 639,137 639,137 639,137 639,137 639,137 639,137 639,137 639,137 639,137 639,137 640,137 640,137 640,137 640,137 640,137 640,137 640,137 640,137 640,137 640,137 640,137 640,137 640,137 641,137 641,137 641,137 641,137 641,137 641,137 641,137 641,137 641,137 641,137 641,137 641,137 641,137 642,137 642,137 642,136 642,136 642,136 642,136 642,136 642,136 642,135 642,135 642,135 642,135 642,135 643,135 643,135 643,135 643,135 643,135 643,135 643,135 643,135 643,135 643,135 643,135 643,135 643,135 644,135 644,135 644,135 644,135 644,135 644,135 644,135 644,135 644,135 644,135 644,135 644,135 644,135 645,135 645,135 645,135 645,135 645,135 645,135 645,135 645,135 645,136 645,136 645,137 645,137 645,138 646,138 646,139 646,140 646,141 646,142 646,142 646,142 646,140 646,139 646,137 646,136 646,135 646,134 647,133 647,132 647,132 647,132 647,131 647,131 647,131 647,130 647,130 647,130 647,130 647,130 647,130 648,130 648,130 648,130 648,130 648,129 648,129 648,129 648,129 648,128 648,128 648,128 648,128 648,128 649,128 649,128 649,128 649,128 649,128 649,128 649,128 649,128 649,128 649,128 649,128 649,129 649,129 650,129 650,129 650,129 650,128 650,128 650,128 650,128 650,128 650,128 650,128 650,128 650,128 650,128 651,128 651,128 651,128 651,128 651,128 651,128 651,128 651,127 651,127 651,127 651,127 651,127 651,127 652,127 652,127 652,127 652,127 652,127 652,127 652,127 652,127 652,127 652,127 652,127 652,126 652,126 653,126 653,126 653,126 653,126 653,126 653,125 653,125 653,125 653,125 653,124 653,124 653,124 653,124 654,123 654,123 654,123 654,123 654,123 654,123 654,123 654,122 654,122 654,122 654,122 654,122 654,122 655,122 655,122 655,122 655,122 655,123 655,123 655,123 655,123 655,123 655,123 655,123 655,122 655,122 656,122 656,123 656,123 656,123 656,123 656,123 656,123 656,123 656,123 656,124 656,124 656,124 656,124 657,124 657,124 657,124 657,124 657,124 657,124 657,125 657,125 657,125 657,125 657,125 657,125 657,125 658,125 658,125 658,125 658,125 658,126 658,126 658,126 658,126 658,126 658,126 658,126 658,126 658,126 659,126 659,126 659,126 659,127 659,127 659,127 659,127 659,127 659,127 659,127 659,127 659,127 659,127 660,127 660,127 660,127 660,127 660,127 660,127 660,127 660,127 660,127 660,127 660,127 660,127 660,128 661,128 661,128 661,128 661,128 661,128 661,128 661,128 661,128 661,128 661,129 661,129 661,129 661,130 662,130 662,130 662,130 662,130 662,130 662,130 662,130 662,131 662,131 662,131 662,131 662,130 662,130 663,130 663,130 663,130 663,130 663,130 663,130 663,130 663,130 663,130 663,130 663,130 663,130 663,130 664,130 664,130 664,130 664,130 664,130 664,130 664,130 664,130 664,130 664,130 664,131 664,131 664,131 665,131 665,131 665,131 665,131 665,131 665,131 665,131 665,131 665,131 665,131 665,131 665,131 665,131 666,131 666,131 666,131 666,131 666,132 666,132 666,132 666,132 666,132 666,132 666,132 666,132 666,132 667,132 667,132 667,132 667,132 667,132 667,132 667,132 667,132 667,132 667,132 667,132 667,132 667,132 668,132 668,132 668,132 668,132 668,132 668,132 668,132 668,132 668,132 668,132 668,132 668,131 668,131 669,131 669,131 669,131 669,131 669,131 669,131 669,131 669,131 669,131 669,131 669,131 669,131 669,131 670,131 670,131 670,131 670,131 670,130 670,130 670,130 670,130 670,130 670,130 670,130 670,130 670,130 671,130 671,130 671,130 671,130 671,129 671,129 671,129 671,129 671,129 671,128 671,128 671,128 671,127 672,127 672,127 672,127 672,127 672,127 672,126 672,126 672,125 672,125 672,125 672,125 672,125 672,124 673,124 673,124 673,123 673,124 673,124 673,124 673,123 673,123 673,123 673,123 673,123 673,123 673,123 674,123 674,123 674,123 674,123 674,123 674,123 674,123 674,122 674,122 674,122 674,122 674,122 674,121 675,121 675,121 675,120 675,119 675,119 675,118 675,118 675,117 675,117 675,117 675,116 675,116 675,115 676,115 676,115 676,115 676,115 676,114 676,114 676,114 676,114 676,114 676,114 676,114 676,114 676,113 677,113 677,113 677,113 677,113 677,113 677,112 677,112 677,113 677,113 677,114 677,114 677,115 677,116 678,117 678,117 678,118 678,118 678,119 678,120 678,120 678,121 678,121 678,122 678,122 678,123 678,124 679,124 679,125 679,125 679,125 679,126 679,126 679,127 679,127 679,128 679,129 679,129 679,130 679,130 680,131 680,131 680,132 680,132 680,132 680,133 680,133 680,133 680,133 680,133 680,134 680,134 680,134 681,134 681,134 681,134 681,134 681,134 681,135 681,135 681,135 681,135 681,135 681,135 681,135 681,136 682,136 682,136 682,136 682,136 682,137 682,137 682,136 682,136 682,136 682,136 682,136 682,135 682,135 683,135 683,135 683,135 683,135 683,135 683,135 683,136 683,136 683,136 683,136 683,136 683,136 683,136 684,136 684,136 684,136 684,136 684,136 684,136 684,136 684,136 684,137 684,137 684,138 684,138 684,139 685,140 685,140 685,141 685,141 685,141 685,142 685,142 685,143 685,143 685,143 685,143 685,143 685,143 686,143 686,143 686,143 686,143 686,143 686,143 686,143 686,143 686,143 686,144 686,144 686,145 686,145 687,146 687,146 687,146 687,147 687,147 687,147 687,147 687,147 687,148 687,148 687,148 687,148 687,148 688,148 688,149 688,149 688,149 688,149 688,149 688,149 688,150 688,150 688,150 688,150 688,150 688,149 689,149 689,149 689,149 689,149 689,148 689,148 689,148 689,148 689,147 689,147 689,147 689,147 689,147 690,147 690,147 690,147 690,147 690,147 690,147 690,147 690,147 690,147 690,147 690,147 690,146 690,146 691,146 691,146 691,145 691,145 691,145 691,145 691,144 691,144 691,144 691,143 691,143 691,142 691,142 692,142 692,142 692,141 692,141 692,141 692,141 692,141 692,141 692,141 692,141 692,141 692,141 692,142 693,142 693,142 693,142 693,143 693,143 693,143 693,143 693,144 693,144 693,144 693,145 693,145 693,146 694,146 694,147 694,147 694,147 694,148 694,148 694,149 694,149 694,149 694,150 694,150 694,150 694,151 695,151 695,151 695,152 695,152 695,152 695,153 695,153 695,154 695,154 695,154 695,155 695,155 695,155 696,155 696,156 696,156 696,156 696,157 696,157 696,157 696,158 696,158 696,158 696,158 696,159 696,159 697,159 697,159 697,160 697,160 697,160 697,160 697,161 697,161 697,161 697,161 697,162 697,162 697,162 698,163 698,163 698,163 698,164 698,164 698,164 698,164 698,165 698,165 698,165 698,166 698,166 698,166 699,166 699,167 699,167 699,167 699,167 699,168 699,168 699,168 699,168 699,168 699,169 699,169 699,169 700,169 700,169 700,170 700,170 700,170 700,170 700,170 700,170 700,170 700,170 700,171 700,171 700,171 701,171 701,171 701,171 701,171 701,171 701,172 701,172 701,172 701,172 701,172 701,172 701,172 701,172 702,172 702,172 702,172 702,172 702,172 702,172 702,172 702,172 702,172 702,172 702,172 702,171 702,171 703,171 703,171 703,171 703,171 703,171 703,171 703,171 703,171 703,171 703,171 703,171 703,171 703,171 704,171 704,171 704,171 704,171 704,170 704,170 704,171 704,171 704,170 704,170 704,170 704,170 704,170 705,170 705,170 705,170 705,170 705,170 705,170 705,169 705,169 705,169 705,169 705,169 705,169 705,169 706,169 706,169 706,169 706,169 706,169 706,168 706,168 706,168 706,168 706,167 706,167 706,167 706,166 707,166 707,166 707,166 707,166 707,166 707,165 707,165 707,165 707,165 707,165 707,164 707,164 707,164 708,164 708,163 708,163 708,163 708,162 708,162 708,161 708,161 708,161 708,160 708,160 708,159 708,159 709,159 709,158 709,158 709,157 709,157 709,157 709,156 709,156 709,156 709,155 709,155 709,155 709,154 710,154 710,154 710,153 710,153 710,153 710,153 710,153 710,152 710,152 710,152 710,152 710,152 710,152 711,152 711,151 711,151 711,151 711,151 711,151 711,151 711,151 711,151 711,151 711,151 711,151 711,151 712,151 712,151 712,151 712,151 712,151 712,151 712,151 712,151 712,151 712,152 712,152 712,152 712,152 713,152 713,153 713,153 713,153 713,154 713,154 713,154 713,155 713,155 713,155 713,156 713,156 713,156 714,157 714,157 714,157 714,157 714,158 714,158 714,158 714,158 714,158 714,158 714,158 714,158 714,159 715,159 715,159 715,159 715,159 715,159 715,159 715,159 715,159 715,159 715,159 715,159 715,159 715,160 716,160 716,160 716,160 716,160 716,160 716,160 716,160 716,160 716,160 716,160 716,159 716,159 716,158 717,159 717,159 717,159 717,159 717,159 717,159 717,159 717,159 717,159 717,159 717,160 717,160 717,160 718,160 718,160 718,160 718,160 718,159 718,159 718,160 718,160 718,160 718,161 718,161 718,161 718,161 719,161 719,161 719,161 719,162 719,162 719,163 719,163 719,164 719,164 719,164 719,165 719,165 719,165 720,166 720,166 720,166 720,167 720,167 720,167 720,168 720,168 720,168 720,168 720,169 720,169 720,169 721,169 721,169 721,170 721,170 721,170 721,170 721,170 721,170 721,170 721,171 721,171 721,171 721,171 722,171 722,171 722,171 722,172 722,172 722,172 722,172 722,172 722,172 722,172 722,172 722,172 722,172 723,172 723,172 723,172 723,173 723,173 723,173 723,173 723,173 723,173 723,173 723,173 723,173 723,173 723,173 724,173 724,173 724,174 724,174 724,174 724,174 724,174 724,174 724,174 724,174 724,174 724,174 724,174 725,174 725,174 725,174 725,174 725,174 725,174 725,174 725,174 725,175 725,175 725,175 725,175 725,175 726,175 726,175 726,175 726,175 726,175 726,175 726,175 726,175 726,175 726,175 726,175 726,175 726,175 727,175 727,176 727,176 727,176 727,176 727,176 727,176 727,176 727,176 727,176 727,176 727,176 727,176 728,176 728,176 728,176 728,176 728,176 728,177 728,177 728,177 728,177 728,177 728,177 728,177 728,177 729,177 729,177 729,177 729,178 729,178 729,178 729,178 729,178 729,178 729,178 729,179 729,179 729,179 730,179 730,179 730,179 730,179 730,179 730,179 730,179 730,180 730,180 730,180 730,180 730,180 730,180 731,180 731,180 731,180 731,180 731,180 731,180 731,180 731,180 731,180 731,180 731,180 731,180 731,181 732,181 732,181 732,181 732,181 732,181 732,181 732,181 732,181 732,181 732,181 732,182 732,182 732,182 733,182 733,182 733,182 733,182 733,183 733,183 733,183 733,183 733,183 733,183 733,183 733,183 733,183 734,183 734,184 734,184 734,184 734,184 734,184 734,184 734,184 734,184 734,184 734,185 734,185 734,185 735,185 735,185 735,185 735,185 735,185 735,185 735,186 735,186 735,186 735,186 735,186 735,186 735,186 736,186 736,186 736,186 736,186 736,186 736,186 736,186 736,186 736,186 736,186 736,186 " vector-effect="non-scaling-stroke"></polyline>
</g></svg>