<!-- Generator: Adobe Illustrator 19.2.0, SVG Export Plug-In  -->
<!DOCTYPE svg PUBLIC "-//W3C//DTD SVG 1.1//EN" "http://www.w3.org/Graphics/SVG/1.1/DTD/svg11.dtd" [
	<!ENTITY ns_flows "http://ns.adobe.com/Flows/1.0/">
	<!ENTITY st0 "fill:none;stroke:#FFFFFF;stroke-linecap:square;stroke-linejoin:bevel;stroke-dasharray:1,2;">
	<!ENTITY st1 "fill:none;stroke:#624949;stroke-width:1.5;stroke-linecap:round;stroke-linejoin:round;">
	<!ENTITY st2 "fill:#624949;">
]>
<svg version="1.1"
	 xmlns="http://www.w3.org/2000/svg" xmlns:xlink="http://www.w3.org/1999/xlink" xmlns:a="http://ns.adobe.com/AdobeSVGViewerExtensions/3.0/"
	 x="0px" y="0px" width="759px" height="380px" preserveAspectRatio="none" viewBox="0 0 759 380" style="enable-background:new 0 0 759 380;"
	 xml:space="preserve">
<defs>
</defs>
<line vector-effect="non-scaling-stroke" style="&st0;" x1="0.5" y1="0.5" x2="0.5" y2="379.5"/>
<line vector-effect="non-scaling-stroke" style="&st0;" x1="95.5" y1="0.5" x2="95.5" y2="379.5"/>
<line vector-effect="non-scaling-stroke" style="&st0;" x1="190.5" y1="0.5" x2="190.5" y2="379.5"/>
<line vector-effect="non-scaling-stroke" style="&st0;" x1="284.5" y1="0.5" x2="284.5" y2="379.5"/>
<line vector-effect="non-scaling-stroke" style="&st0;" x1="379.5" y1="0.5" x2="379.5" y2="379.5"/>
<line vector-effect="non-scaling-stroke" style="&st0;" x1="474.5" y1="0.5" x2="474.5" y2="379.5"/>
<line vector-effect="non-scaling-stroke" style="&st0;" x1="569.5" y1="0.5" x2="569.5" y2="379.5"/>
<line vector-effect="non-scaling-stroke" style="&st0;" x1="663.5" y1="0.5" x2="663.5" y2="379.5"/>
<line vector-effect="non-scaling-stroke" style="&st0;" x1="758.5" y1="0.5" x2="758.5" y2="379.5"/>
<line vector-effect="non-scaling-stroke" style="&st0;" x1="0.5" y1="379.5" x2="758.5" y2="379.5"/>
<line vector-effect="non-scaling-stroke" style="&st0;" x1="0.5" y1="325.5" x2="758.5" y2="325.5"/>
<line vector-effect="non-scaling-stroke" style="&st0;" x1="0.5" y1="270.5" x2="758.5" y2="270.5"/>
<line vector-effect="non-scaling-stroke" style="&st0;" x1="0.5" y1="216.5" x2="758.5" y2="216.5"/>
<line vector-effect="non-scaling-stroke" style="&st0;" x1="0.5" y1="162.5" x2="758.5" y2="162.5"/>
<line vector-effect="non-scaling-stroke" style="&st0;" x1="0.5" y1="108.5" x2="758.5" y2="108.5"/>
<line vector-effect="non-scaling-stroke" style="&st0;" x1="0.5" y1="53.5" x2="758.5" y2="53.5"/>
<g transform="matrix(1,0,0,1,0,0)">
	<polyline vector-effect="non-scaling-stroke" style="&st1;" points="716.5,324.5 716.5,324.5 716.5,324.5 716.5,324.5 716.5,324.5 
		716.5,324.5 716.5,324.5 716.5,324.5 716.5,324.5 	"/>
</g>
<g transform="matrix(1,0,0,1,0,0)">
	<polyline vector-effect="non-scaling-stroke" style="&st2;" points="709.5,379.5 117.5,379.5 117.5,320.5 117.5,320.5 118.5,319.5 
		118.5,319.5 118.5,319.5 118.5,319.5 118.5,318.5 118.5,318.5 118.5,318.5 118.5,318.5 118.5,317.5 118.5,317.5 118.5,317.5 
		118.5,317.5 118.5,317.5 119.5,317.5 119.5,316.5 119.5,316.5 119.5,316.5 119.5,316.5 119.5,317.5 119.5,317.5 119.5,317.5 
		119.5,317.5 119.5,317.5 119.5,316.5 119.5,317.5 119.5,317.5 120.5,317.5 120.5,317.5 120.5,317.5 120.5,317.5 120.5,317.5 
		120.5,317.5 120.5,316.5 120.5,316.5 120.5,316.5 120.5,316.5 120.5,316.5 120.5,316.5 120.5,316.5 121.5,316.5 121.5,316.5 
		121.5,316.5 121.5,316.5 121.5,316.5 121.5,316.5 121.5,316.5 121.5,316.5 121.5,316.5 121.5,316.5 121.5,316.5 121.5,316.5 
		121.5,316.5 122.5,316.5 122.5,316.5 122.5,316.5 122.5,316.5 122.5,316.5 122.5,316.5 122.5,316.5 122.5,316.5 122.5,316.5 
		122.5,316.5 122.5,316.5 122.5,315.5 122.5,315.5 123.5,315.5 123.5,315.5 123.5,315.5 123.5,314.5 123.5,314.5 123.5,314.5 
		123.5,314.5 123.5,314.5 123.5,314.5 123.5,314.5 123.5,314.5 123.5,314.5 123.5,314.5 124.5,314.5 124.5,314.5 124.5,314.5 
		124.5,314.5 124.5,314.5 124.5,314.5 124.5,314.5 124.5,314.5 124.5,314.5 124.5,313.5 124.5,313.5 124.5,313.5 124.5,313.5 
		125.5,313.5 125.5,313.5 125.5,313.5 125.5,313.5 125.5,313.5 125.5,313.5 125.5,312.5 125.5,312.5 125.5,313.5 125.5,313.5 
		125.5,313.5 125.5,313.5 125.5,313.5 126.5,313.5 126.5,313.5 126.5,313.5 126.5,313.5 126.5,313.5 126.5,313.5 126.5,313.5 
		126.5,312.5 126.5,312.5 126.5,312.5 126.5,312.5 126.5,312.5 126.5,312.5 127.5,312.5 127.5,312.5 127.5,312.5 127.5,312.5 
		127.5,312.5 127.5,312.5 127.5,312.5 127.5,312.5 127.5,312.5 127.5,312.5 127.5,312.5 127.5,311.5 127.5,311.5 128.5,311.5 
		128.5,311.5 128.5,311.5 128.5,310.5 128.5,310.5 128.5,310.5 128.5,310.5 128.5,310.5 128.5,310.5 128.5,309.5 128.5,309.5 
		128.5,309.5 128.5,309.5 129.5,309.5 129.5,309.5 129.5,309.5 129.5,309.5 129.5,309.5 129.5,309.5 129.5,309.5 129.5,309.5 
		129.5,309.5 129.5,309.5 129.5,309.5 129.5,309.5 129.5,309.5 130.5,309.5 130.5,309.5 130.5,309.5 130.5,308.5 130.5,308.5 
		130.5,308.5 130.5,308.5 130.5,308.5 130.5,308.5 130.5,308.5 130.5,308.5 130.5,308.5 130.5,308.5 131.5,308.5 131.5,307.5 
		131.5,307.5 131.5,307.5 131.5,307.5 131.5,307.5 131.5,306.5 131.5,306.5 131.5,306.5 131.5,305.5 131.5,305.5 131.5,305.5 
		131.5,305.5 132.5,305.5 132.5,305.5 132.5,305.5 132.5,304.5 132.5,304.5 132.5,305.5 132.5,305.5 132.5,305.5 132.5,305.5 
		132.5,305.5 132.5,305.5 132.5,305.5 132.5,305.5 133.5,305.5 133.5,305.5 133.5,304.5 133.5,304.5 133.5,304.5 133.5,304.5 
		133.5,304.5 133.5,304.5 133.5,304.5 133.5,304.5 133.5,304.5 133.5,304.5 133.5,304.5 134.5,304.5 134.5,304.5 134.5,304.5 
		134.5,304.5 134.5,304.5 134.5,304.5 134.5,304.5 134.5,304.5 134.5,304.5 134.5,303.5 134.5,304.5 134.5,304.5 134.5,304.5 
		135.5,304.5 135.5,304.5 135.5,304.5 135.5,304.5 135.5,304.5 135.5,304.5 135.5,304.5 135.5,304.5 135.5,304.5 135.5,304.5 
		135.5,305.5 135.5,305.5 135.5,305.5 136.5,305.5 136.5,305.5 136.5,305.5 136.5,305.5 136.5,305.5 136.5,305.5 136.5,305.5 
		136.5,306.5 136.5,306.5 136.5,306.5 136.5,306.5 136.5,306.5 136.5,306.5 137.5,306.5 137.5,306.5 137.5,306.5 137.5,306.5 
		137.5,306.5 137.5,306.5 137.5,306.5 137.5,306.5 137.5,306.5 137.5,306.5 137.5,307.5 137.5,307.5 137.5,307.5 138.5,307.5 
		138.5,307.5 138.5,307.5 138.5,307.5 138.5,308.5 138.5,308.5 138.5,308.5 138.5,308.5 138.5,308.5 138.5,308.5 138.5,307.5 
		138.5,307.5 138.5,307.5 139.5,307.5 139.5,307.5 139.5,307.5 139.5,307.5 139.5,307.5 139.5,307.5 139.5,307.5 139.5,307.5 
		139.5,307.5 139.5,307.5 139.5,307.5 139.5,307.5 139.5,307.5 140.5,306.5 140.5,306.5 140.5,306.5 140.5,306.5 140.5,306.5 
		140.5,306.5 140.5,306.5 140.5,306.5 140.5,306.5 140.5,306.5 140.5,306.5 140.5,306.5 140.5,306.5 141.5,306.5 141.5,307.5 
		141.5,307.5 141.5,307.5 141.5,307.5 141.5,306.5 141.5,306.5 141.5,306.5 141.5,306.5 141.5,306.5 141.5,306.5 141.5,306.5 
		141.5,306.5 142.5,306.5 142.5,306.5 142.5,306.5 142.5,306.5 142.5,306.5 142.5,306.5 142.5,306.5 142.5,306.5 142.5,305.5 
		142.5,305.5 142.5,305.5 142.5,306.5 142.5,306.5 143.5,306.5 143.5,306.5 143.5,306.5 143.5,306.5 143.5,306.5 143.5,306.5 
		143.5,306.5 143.5,306.5 143.5,305.5 143.5,305.5 143.5,305.5 143.5,305.5 143.5,305.5 144.5,305.5 144.5,306.5 144.5,306.5 
		144.5,306.5 144.5,306.5 144.5,307.5 144.5,308.5 144.5,309.5 144.5,308.5 144.5,307.5 144.5,306.5 144.5,306.5 144.5,305.5 
		145.5,305.5 145.5,305.5 145.5,304.5 145.5,304.5 145.5,304.5 145.5,304.5 145.5,304.5 145.5,304.5 145.5,304.5 145.5,304.5 
		145.5,304.5 145.5,304.5 145.5,304.5 146.5,303.5 146.5,303.5 146.5,303.5 146.5,303.5 146.5,303.5 146.5,303.5 146.5,302.5 
		146.5,302.5 146.5,302.5 146.5,302.5 146.5,302.5 146.5,302.5 146.5,302.5 147.5,303.5 147.5,303.5 147.5,302.5 147.5,302.5 
		147.5,302.5 147.5,302.5 147.5,302.5 147.5,302.5 147.5,302.5 147.5,302.5 147.5,302.5 147.5,302.5 147.5,302.5 148.5,302.5 
		148.5,302.5 148.5,303.5 148.5,303.5 148.5,303.5 148.5,303.5 148.5,303.5 148.5,303.5 148.5,304.5 148.5,304.5 148.5,304.5 
		148.5,304.5 148.5,304.5 149.5,304.5 149.5,305.5 149.5,305.5 149.5,305.5 149.5,306.5 149.5,306.5 149.5,306.5 149.5,306.5 
		149.5,306.5 149.5,306.5 149.5,307.5 149.5,307.5 149.5,307.5 150.5,307.5 150.5,308.5 150.5,308.5 150.5,308.5 150.5,308.5 
		150.5,309.5 150.5,309.5 150.5,309.5 150.5,309.5 150.5,309.5 150.5,309.5 150.5,310.5 150.5,310.5 151.5,310.5 151.5,310.5 
		151.5,310.5 151.5,310.5 151.5,311.5 151.5,311.5 151.5,311.5 151.5,311.5 151.5,311.5 151.5,311.5 151.5,311.5 151.5,310.5 
		151.5,310.5 152.5,310.5 152.5,310.5 152.5,310.5 152.5,310.5 152.5,309.5 152.5,309.5 152.5,309.5 152.5,309.5 152.5,309.5 
		152.5,309.5 152.5,309.5 152.5,309.5 152.5,310.5 153.5,310.5 153.5,310.5 153.5,310.5 153.5,310.5 153.5,310.5 153.5,310.5 
		153.5,310.5 153.5,310.5 153.5,310.5 153.5,310.5 153.5,310.5 153.5,310.5 153.5,311.5 154.5,311.5 154.5,311.5 154.5,311.5 
		154.5,311.5 154.5,311.5 154.5,311.5 154.5,311.5 154.5,311.5 154.5,311.5 154.5,311.5 154.5,311.5 154.5,311.5 154.5,311.5 
		155.5,310.5 155.5,310.5 155.5,310.5 155.5,310.5 155.5,310.5 155.5,309.5 155.5,309.5 155.5,309.5 155.5,309.5 155.5,308.5 
		155.5,308.5 155.5,308.5 155.5,307.5 156.5,307.5 156.5,307.5 156.5,307.5 156.5,307.5 156.5,307.5 156.5,307.5 156.5,307.5 
		156.5,307.5 156.5,306.5 156.5,306.5 156.5,306.5 156.5,305.5 156.5,305.5 157.5,305.5 157.5,305.5 157.5,305.5 157.5,305.5 
		157.5,305.5 157.5,305.5 157.5,305.5 157.5,305.5 157.5,304.5 157.5,304.5 157.5,304.5 157.5,303.5 157.5,303.5 158.5,303.5 
		158.5,303.5 158.5,303.5 158.5,303.5 158.5,303.5 158.5,303.5 158.5,303.5 158.5,303.5 158.5,302.5 158.5,302.5 158.5,302.5 
		158.5,302.5 158.5,302.5 159.5,302.5 159.5,302.5 159.5,302.5 159.5,302.5 159.5,302.5 159.5,302.5 159.5,302.5 159.5,302.5 
		159.5,302.5 159.5,302.5 159.5,303.5 159.5,303.5 159.5,303.5 160.5,303.5 160.5,303.5 160.5,304.5 160.5,304.5 160.5,304.5 
		160.5,304.5 160.5,304.5 160.5,304.5 160.5,304.5 160.5,305.5 160.5,306.5 160.5,306.5 160.5,306.5 161.5,306.5 161.5,306.5 
		161.5,307.5 161.5,307.5 161.5,308.5 161.5,308.5 161.5,308.5 161.5,309.5 161.5,309.5 161.5,309.5 161.5,309.5 161.5,310.5 
		161.5,310.5 162.5,310.5 162.5,310.5 162.5,311.5 162.5,311.5 162.5,311.5 162.5,311.5 162.5,312.5 162.5,312.5 162.5,312.5 
		162.5,312.5 162.5,312.5 162.5,312.5 162.5,313.5 163.5,313.5 163.5,313.5 163.5,313.5 163.5,313.5 163.5,313.5 163.5,313.5 
		163.5,314.5 163.5,314.5 163.5,314.5 163.5,314.5 163.5,314.5 163.5,315.5 163.5,315.5 164.5,316.5 164.5,316.5 164.5,316.5 
		164.5,316.5 164.5,316.5 164.5,316.5 164.5,316.5 164.5,316.5 164.5,316.5 164.5,316.5 164.5,316.5 164.5,315.5 164.5,315.5 
		165.5,315.5 165.5,315.5 165.5,315.5 165.5,315.5 165.5,315.5 165.5,315.5 165.5,315.5 165.5,315.5 165.5,315.5 165.5,315.5 
		165.5,315.5 165.5,315.5 165.5,315.5 166.5,315.5 166.5,315.5 166.5,315.5 166.5,315.5 166.5,314.5 166.5,314.5 166.5,314.5 
		166.5,314.5 166.5,314.5 166.5,314.5 166.5,314.5 166.5,314.5 166.5,313.5 167.5,313.5 167.5,313.5 167.5,313.5 167.5,312.5 
		167.5,312.5 167.5,312.5 167.5,312.5 167.5,312.5 167.5,312.5 167.5,312.5 167.5,312.5 167.5,312.5 167.5,312.5 168.5,312.5 
		168.5,312.5 168.5,312.5 168.5,312.5 168.5,312.5 168.5,312.5 168.5,312.5 168.5,311.5 168.5,311.5 168.5,311.5 168.5,311.5 
		168.5,311.5 168.5,311.5 169.5,310.5 169.5,310.5 169.5,310.5 169.5,310.5 169.5,310.5 169.5,310.5 169.5,310.5 169.5,310.5 
		169.5,310.5 169.5,310.5 169.5,309.5 169.5,310.5 169.5,310.5 170.5,310.5 170.5,310.5 170.5,310.5 170.5,309.5 170.5,309.5 
		170.5,309.5 170.5,309.5 170.5,309.5 170.5,309.5 170.5,309.5 170.5,309.5 170.5,309.5 170.5,309.5 171.5,309.5 171.5,309.5 
		171.5,308.5 171.5,308.5 171.5,308.5 171.5,308.5 171.5,308.5 171.5,308.5 171.5,308.5 171.5,308.5 171.5,308.5 171.5,307.5 
		171.5,307.5 172.5,307.5 172.5,307.5 172.5,307.5 172.5,307.5 172.5,306.5 172.5,306.5 172.5,306.5 172.5,306.5 172.5,306.5 
		172.5,305.5 172.5,305.5 172.5,305.5 172.5,305.5 173.5,305.5 173.5,305.5 173.5,304.5 173.5,304.5 173.5,304.5 173.5,304.5 
		173.5,304.5 173.5,304.5 173.5,304.5 173.5,304.5 173.5,304.5 173.5,303.5 173.5,304.5 174.5,304.5 174.5,304.5 174.5,303.5 
		174.5,303.5 174.5,303.5 174.5,303.5 174.5,303.5 174.5,303.5 174.5,303.5 174.5,303.5 174.5,304.5 174.5,304.5 174.5,304.5 
		175.5,304.5 175.5,304.5 175.5,304.5 175.5,304.5 175.5,304.5 175.5,304.5 175.5,304.5 175.5,304.5 175.5,304.5 175.5,304.5 
		175.5,304.5 175.5,304.5 175.5,304.5 176.5,304.5 176.5,304.5 176.5,304.5 176.5,304.5 176.5,304.5 176.5,304.5 176.5,304.5 
		176.5,304.5 176.5,304.5 176.5,303.5 176.5,303.5 176.5,303.5 176.5,303.5 177.5,303.5 177.5,303.5 177.5,303.5 177.5,303.5 
		177.5,303.5 177.5,303.5 177.5,303.5 177.5,303.5 177.5,303.5 177.5,303.5 177.5,302.5 177.5,302.5 177.5,302.5 178.5,302.5 
		178.5,302.5 178.5,302.5 178.5,302.5 178.5,302.5 178.5,302.5 178.5,302.5 178.5,302.5 178.5,301.5 178.5,301.5 178.5,301.5 
		178.5,301.5 178.5,301.5 179.5,301.5 179.5,301.5 179.5,301.5 179.5,300.5 179.5,300.5 179.5,300.5 179.5,300.5 179.5,300.5 
		179.5,300.5 179.5,300.5 179.5,300.5 179.5,300.5 179.5,300.5 180.5,300.5 180.5,300.5 180.5,300.5 180.5,299.5 180.5,299.5 
		180.5,299.5 180.5,299.5 180.5,299.5 180.5,299.5 180.5,299.5 180.5,300.5 180.5,300.5 180.5,300.5 181.5,300.5 181.5,300.5 
		181.5,299.5 181.5,299.5 181.5,299.5 181.5,299.5 181.5,299.5 181.5,299.5 181.5,298.5 181.5,298.5 181.5,298.5 181.5,298.5 
		181.5,298.5 182.5,297.5 182.5,297.5 182.5,297.5 182.5,297.5 182.5,297.5 182.5,297.5 182.5,297.5 182.5,296.5 182.5,296.5 
		182.5,296.5 182.5,296.5 182.5,296.5 182.5,296.5 183.5,296.5 183.5,296.5 183.5,295.5 183.5,295.5 183.5,295.5 183.5,294.5 
		183.5,294.5 183.5,294.5 183.5,294.5 183.5,294.5 183.5,293.5 183.5,293.5 183.5,293.5 184.5,293.5 184.5,293.5 184.5,293.5 
		184.5,292.5 184.5,292.5 184.5,292.5 184.5,292.5 184.5,291.5 184.5,291.5 184.5,291.5 184.5,291.5 184.5,291.5 184.5,291.5 
		185.5,291.5 185.5,291.5 185.5,291.5 185.5,291.5 185.5,291.5 185.5,291.5 185.5,291.5 185.5,290.5 185.5,290.5 185.5,290.5 
		185.5,290.5 185.5,290.5 185.5,290.5 186.5,289.5 186.5,289.5 186.5,289.5 186.5,289.5 186.5,289.5 186.5,289.5 186.5,289.5 
		186.5,289.5 186.5,289.5 186.5,289.5 186.5,289.5 186.5,289.5 186.5,289.5 187.5,289.5 187.5,289.5 187.5,289.5 187.5,290.5 
		187.5,289.5 187.5,289.5 187.5,289.5 187.5,289.5 187.5,289.5 187.5,289.5 187.5,289.5 187.5,289.5 187.5,289.5 188.5,289.5 
		188.5,289.5 188.5,290.5 188.5,290.5 188.5,289.5 188.5,289.5 188.5,289.5 188.5,290.5 188.5,290.5 188.5,290.5 188.5,290.5 
		188.5,290.5 188.5,290.5 189.5,289.5 189.5,289.5 189.5,289.5 189.5,289.5 189.5,289.5 189.5,289.5 189.5,289.5 189.5,289.5 
		189.5,289.5 189.5,289.5 189.5,289.5 189.5,289.5 189.5,289.5 190.5,289.5 190.5,289.5 190.5,288.5 190.5,288.5 190.5,288.5 
		190.5,288.5 190.5,288.5 190.5,288.5 190.5,288.5 190.5,288.5 190.5,288.5 190.5,288.5 190.5,288.5 190.5,287.5 191.5,287.5 
		191.5,287.5 191.5,287.5 191.5,287.5 191.5,287.5 191.5,287.5 191.5,287.5 191.5,287.5 191.5,287.5 191.5,287.5 191.5,287.5 
		191.5,286.5 191.5,286.5 192.5,286.5 192.5,286.5 192.5,286.5 192.5,286.5 192.5,287.5 192.5,286.5 192.5,286.5 192.5,286.5 
		192.5,286.5 192.5,286.5 192.5,286.5 192.5,286.5 192.5,285.5 193.5,285.5 193.5,285.5 193.5,285.5 193.5,284.5 193.5,284.5 
		193.5,284.5 193.5,284.5 193.5,284.5 193.5,283.5 193.5,283.5 193.5,283.5 193.5,283.5 193.5,283.5 194.5,283.5 194.5,284.5 
		194.5,284.5 194.5,284.5 194.5,283.5 194.5,283.5 194.5,284.5 194.5,284.5 194.5,284.5 194.5,284.5 194.5,284.5 194.5,284.5 
		194.5,283.5 195.5,283.5 195.5,283.5 195.5,283.5 195.5,283.5 195.5,283.5 195.5,283.5 195.5,283.5 195.5,283.5 195.5,283.5 
		195.5,282.5 195.5,282.5 195.5,282.5 195.5,282.5 196.5,282.5 196.5,281.5 196.5,281.5 196.5,281.5 196.5,281.5 196.5,281.5 
		196.5,281.5 196.5,280.5 196.5,280.5 196.5,280.5 196.5,280.5 196.5,280.5 196.5,280.5 197.5,280.5 197.5,280.5 197.5,280.5 
		197.5,280.5 197.5,279.5 197.5,279.5 197.5,279.5 197.5,279.5 197.5,279.5 197.5,280.5 197.5,279.5 197.5,279.5 197.5,279.5 
		198.5,279.5 198.5,279.5 198.5,279.5 198.5,279.5 198.5,278.5 198.5,278.5 198.5,278.5 198.5,278.5 198.5,277.5 198.5,277.5 
		198.5,277.5 198.5,277.5 198.5,277.5 199.5,277.5 199.5,277.5 199.5,277.5 199.5,277.5 199.5,277.5 199.5,276.5 199.5,276.5 
		199.5,276.5 199.5,276.5 199.5,276.5 199.5,275.5 199.5,275.5 199.5,275.5 200.5,275.5 200.5,275.5 200.5,275.5 200.5,275.5 
		200.5,274.5 200.5,274.5 200.5,274.5 200.5,274.5 200.5,274.5 200.5,274.5 200.5,274.5 200.5,274.5 200.5,274.5 201.5,274.5 
		201.5,274.5 201.5,274.5 201.5,274.5 201.5,274.5 201.5,274.5 201.5,274.5 201.5,274.5 201.5,274.5 201.5,274.5 201.5,274.5 
		201.5,274.5 201.5,275.5 202.5,275.5 202.5,275.5 202.5,274.5 202.5,274.5 202.5,274.5 202.5,274.5 202.5,274.5 202.5,274.5 
		202.5,274.5 202.5,274.5 202.5,274.5 202.5,274.5 202.5,274.5 203.5,274.5 203.5,273.5 203.5,273.5 203.5,273.5 203.5,273.5 
		203.5,273.5 203.5,273.5 203.5,273.5 203.5,273.5 203.5,273.5 203.5,273.5 203.5,273.5 203.5,273.5 204.5,273.5 204.5,272.5 
		204.5,272.5 204.5,271.5 204.5,271.5 204.5,271.5 204.5,271.5 204.5,271.5 204.5,271.5 204.5,271.5 204.5,271.5 204.5,271.5 
		204.5,270.5 205.5,270.5 205.5,270.5 205.5,270.5 205.5,270.5 205.5,270.5 205.5,270.5 205.5,270.5 205.5,270.5 205.5,270.5 
		205.5,270.5 205.5,270.5 205.5,269.5 205.5,269.5 206.5,269.5 206.5,269.5 206.5,269.5 206.5,269.5 206.5,269.5 206.5,268.5 
		206.5,268.5 206.5,268.5 206.5,268.5 206.5,268.5 206.5,268.5 206.5,268.5 206.5,268.5 207.5,268.5 207.5,268.5 207.5,267.5 
		207.5,267.5 207.5,267.5 207.5,267.5 207.5,267.5 207.5,267.5 207.5,267.5 207.5,267.5 207.5,267.5 207.5,266.5 207.5,266.5 
		208.5,266.5 208.5,266.5 208.5,266.5 208.5,266.5 208.5,266.5 208.5,266.5 208.5,266.5 208.5,266.5 208.5,266.5 208.5,266.5 
		208.5,266.5 208.5,266.5 208.5,265.5 209.5,265.5 209.5,265.5 209.5,265.5 209.5,265.5 209.5,265.5 209.5,265.5 209.5,265.5 
		209.5,264.5 209.5,264.5 209.5,264.5 209.5,264.5 209.5,264.5 209.5,264.5 210.5,263.5 210.5,263.5 210.5,263.5 210.5,263.5 
		210.5,263.5 210.5,263.5 210.5,262.5 210.5,262.5 210.5,262.5 210.5,262.5 210.5,262.5 210.5,262.5 210.5,261.5 211.5,261.5 
		211.5,261.5 211.5,261.5 211.5,261.5 211.5,260.5 211.5,260.5 211.5,260.5 211.5,259.5 211.5,259.5 211.5,259.5 211.5,259.5 
		211.5,258.5 211.5,258.5 212.5,258.5 212.5,258.5 212.5,258.5 212.5,258.5 212.5,258.5 212.5,258.5 212.5,258.5 212.5,258.5 
		212.5,258.5 212.5,257.5 212.5,257.5 212.5,257.5 212.5,257.5 213.5,257.5 213.5,257.5 213.5,257.5 213.5,256.5 213.5,256.5 
		213.5,256.5 213.5,255.5 213.5,255.5 213.5,255.5 213.5,254.5 213.5,254.5 213.5,254.5 213.5,254.5 214.5,254.5 214.5,254.5 
		214.5,254.5 214.5,254.5 214.5,254.5 214.5,254.5 214.5,253.5 214.5,253.5 214.5,253.5 214.5,253.5 214.5,252.5 214.5,252.5 
		214.5,252.5 215.5,251.5 215.5,251.5 215.5,251.5 215.5,251.5 215.5,251.5 215.5,251.5 215.5,251.5 215.5,251.5 215.5,251.5 
		215.5,251.5 215.5,251.5 215.5,251.5 215.5,251.5 216.5,251.5 216.5,251.5 216.5,251.5 216.5,251.5 216.5,251.5 216.5,251.5 
		216.5,251.5 216.5,251.5 216.5,251.5 216.5,251.5 216.5,251.5 216.5,251.5 216.5,251.5 217.5,251.5 217.5,251.5 217.5,251.5 
		217.5,251.5 217.5,251.5 217.5,251.5 217.5,251.5 217.5,251.5 217.5,251.5 217.5,250.5 217.5,250.5 217.5,250.5 217.5,250.5 
		218.5,250.5 218.5,250.5 218.5,249.5 218.5,249.5 218.5,249.5 218.5,249.5 218.5,249.5 218.5,249.5 218.5,248.5 218.5,248.5 
		218.5,248.5 218.5,248.5 218.5,248.5 219.5,248.5 219.5,248.5 219.5,248.5 219.5,248.5 219.5,248.5 219.5,248.5 219.5,248.5 
		219.5,248.5 219.5,248.5 219.5,247.5 219.5,247.5 219.5,247.5 219.5,247.5 220.5,246.5 220.5,246.5 220.5,246.5 220.5,246.5 
		220.5,246.5 220.5,246.5 220.5,246.5 220.5,246.5 220.5,246.5 220.5,245.5 220.5,245.5 220.5,244.5 220.5,244.5 221.5,244.5 
		221.5,244.5 221.5,244.5 221.5,244.5 221.5,244.5 221.5,243.5 221.5,243.5 221.5,243.5 221.5,243.5 221.5,242.5 221.5,242.5 
		221.5,242.5 221.5,242.5 222.5,242.5 222.5,242.5 222.5,242.5 222.5,241.5 222.5,241.5 222.5,241.5 222.5,241.5 222.5,240.5 
		222.5,240.5 222.5,240.5 222.5,239.5 222.5,238.5 222.5,238.5 223.5,237.5 223.5,237.5 223.5,236.5 223.5,236.5 223.5,235.5 
		223.5,235.5 223.5,235.5 223.5,234.5 223.5,234.5 223.5,234.5 223.5,234.5 223.5,233.5 223.5,233.5 224.5,233.5 224.5,233.5 
		224.5,233.5 224.5,233.5 224.5,233.5 224.5,234.5 224.5,234.5 224.5,234.5 224.5,235.5 224.5,235.5 224.5,236.5 224.5,236.5 
		224.5,235.5 225.5,234.5 225.5,234.5 225.5,233.5 225.5,233.5 225.5,233.5 225.5,234.5 225.5,233.5 225.5,233.5 225.5,233.5 
		225.5,233.5 225.5,233.5 225.5,232.5 225.5,232.5 226.5,231.5 226.5,231.5 226.5,231.5 226.5,230.5 226.5,230.5 226.5,230.5 
		226.5,229.5 226.5,229.5 226.5,229.5 226.5,229.5 226.5,228.5 226.5,228.5 226.5,227.5 227.5,227.5 227.5,226.5 227.5,225.5 
		227.5,225.5 227.5,224.5 227.5,223.5 227.5,221.5 227.5,220.5 227.5,219.5 227.5,219.5 227.5,218.5 227.5,218.5 227.5,216.5 
		228.5,215.5 228.5,213.5 228.5,212.5 228.5,211.5 228.5,211.5 228.5,210.5 228.5,209.5 228.5,209.5 228.5,208.5 228.5,207.5 
		228.5,206.5 228.5,205.5 228.5,205.5 229.5,205.5 229.5,205.5 229.5,205.5 229.5,205.5 229.5,205.5 229.5,204.5 229.5,204.5 
		229.5,204.5 229.5,204.5 229.5,203.5 229.5,203.5 229.5,203.5 229.5,202.5 230.5,202.5 230.5,202.5 230.5,201.5 230.5,201.5 
		230.5,201.5 230.5,200.5 230.5,200.5 230.5,199.5 230.5,198.5 230.5,198.5 230.5,198.5 230.5,197.5 230.5,197.5 231.5,196.5 
		231.5,196.5 231.5,196.5 231.5,196.5 231.5,195.5 231.5,195.5 231.5,195.5 231.5,195.5 231.5,195.5 231.5,194.5 231.5,194.5 
		231.5,194.5 231.5,194.5 232.5,194.5 232.5,194.5 232.5,194.5 232.5,194.5 232.5,194.5 232.5,194.5 232.5,193.5 232.5,193.5 
		232.5,193.5 232.5,193.5 232.5,192.5 232.5,192.5 232.5,192.5 233.5,192.5 233.5,191.5 233.5,191.5 233.5,191.5 233.5,190.5 
		233.5,190.5 233.5,190.5 233.5,189.5 233.5,189.5 233.5,188.5 233.5,187.5 233.5,187.5 233.5,186.5 234.5,186.5 234.5,185.5 
		234.5,184.5 234.5,184.5 234.5,183.5 234.5,183.5 234.5,183.5 234.5,183.5 234.5,183.5 234.5,183.5 234.5,183.5 234.5,183.5 
		234.5,183.5 235.5,183.5 235.5,182.5 235.5,182.5 235.5,182.5 235.5,182.5 235.5,182.5 235.5,182.5 235.5,182.5 235.5,182.5 
		235.5,182.5 235.5,182.5 235.5,181.5 235.5,181.5 236.5,181.5 236.5,181.5 236.5,181.5 236.5,181.5 236.5,181.5 236.5,181.5 
		236.5,182.5 236.5,182.5 236.5,182.5 236.5,182.5 236.5,182.5 236.5,182.5 236.5,182.5 237.5,182.5 237.5,182.5 237.5,182.5 
		237.5,182.5 237.5,182.5 237.5,182.5 237.5,182.5 237.5,182.5 237.5,182.5 237.5,182.5 237.5,182.5 237.5,182.5 237.5,182.5 
		238.5,182.5 238.5,182.5 238.5,182.5 238.5,183.5 238.5,184.5 238.5,184.5 238.5,184.5 238.5,184.5 238.5,184.5 238.5,184.5 
		238.5,184.5 238.5,183.5 238.5,183.5 239.5,182.5 239.5,182.5 239.5,182.5 239.5,181.5 239.5,181.5 239.5,181.5 239.5,180.5 
		239.5,180.5 239.5,180.5 239.5,179.5 239.5,179.5 239.5,178.5 239.5,177.5 240.5,177.5 240.5,176.5 240.5,175.5 240.5,174.5 
		240.5,173.5 240.5,173.5 240.5,172.5 240.5,172.5 240.5,171.5 240.5,170.5 240.5,169.5 240.5,168.5 240.5,168.5 241.5,167.5 
		241.5,167.5 241.5,166.5 241.5,166.5 241.5,166.5 241.5,166.5 241.5,166.5 241.5,166.5 241.5,166.5 241.5,166.5 241.5,166.5 
		241.5,166.5 241.5,166.5 242.5,166.5 242.5,166.5 242.5,166.5 242.5,166.5 242.5,166.5 242.5,166.5 242.5,166.5 242.5,166.5 
		242.5,166.5 242.5,167.5 242.5,167.5 242.5,167.5 242.5,167.5 243.5,167.5 243.5,167.5 243.5,167.5 243.5,167.5 243.5,166.5 
		243.5,166.5 243.5,166.5 243.5,166.5 243.5,166.5 243.5,166.5 243.5,167.5 243.5,167.5 243.5,167.5 244.5,167.5 244.5,168.5 
		244.5,169.5 244.5,169.5 244.5,170.5 244.5,170.5 244.5,171.5 244.5,172.5 244.5,172.5 244.5,173.5 244.5,173.5 244.5,174.5 
		244.5,174.5 245.5,175.5 245.5,175.5 245.5,175.5 245.5,175.5 245.5,176.5 245.5,176.5 245.5,177.5 245.5,177.5 245.5,177.5 
		245.5,178.5 245.5,178.5 245.5,179.5 245.5,179.5 246.5,179.5 246.5,179.5 246.5,179.5 246.5,179.5 246.5,178.5 246.5,178.5 
		246.5,178.5 246.5,178.5 246.5,178.5 246.5,178.5 246.5,178.5 246.5,178.5 246.5,178.5 247.5,178.5 247.5,177.5 247.5,177.5 
		247.5,177.5 247.5,177.5 247.5,176.5 247.5,175.5 247.5,175.5 247.5,175.5 247.5,174.5 247.5,174.5 247.5,174.5 247.5,173.5 
		248.5,173.5 248.5,173.5 248.5,172.5 248.5,172.5 248.5,171.5 248.5,171.5 248.5,170.5 248.5,170.5 248.5,170.5 248.5,169.5 
		248.5,169.5 248.5,168.5 248.5,168.5 249.5,168.5 249.5,168.5 249.5,168.5 249.5,168.5 249.5,168.5 249.5,168.5 249.5,168.5 
		249.5,168.5 249.5,168.5 249.5,167.5 249.5,167.5 249.5,167.5 249.5,167.5 250.5,167.5 250.5,167.5 250.5,167.5 250.5,167.5 
		250.5,167.5 250.5,166.5 250.5,166.5 250.5,166.5 250.5,166.5 250.5,166.5 250.5,166.5 250.5,166.5 250.5,166.5 251.5,166.5 
		251.5,166.5 251.5,166.5 251.5,165.5 251.5,165.5 251.5,166.5 251.5,166.5 251.5,167.5 251.5,167.5 251.5,168.5 251.5,168.5 
		251.5,168.5 251.5,168.5 252.5,169.5 252.5,169.5 252.5,170.5 252.5,170.5 252.5,171.5 252.5,171.5 252.5,172.5 252.5,172.5 
		252.5,173.5 252.5,173.5 252.5,174.5 252.5,174.5 252.5,174.5 253.5,174.5 253.5,174.5 253.5,175.5 253.5,175.5 253.5,176.5 
		253.5,176.5 253.5,177.5 253.5,177.5 253.5,178.5 253.5,179.5 253.5,179.5 253.5,180.5 253.5,180.5 254.5,181.5 254.5,181.5 
		254.5,182.5 254.5,182.5 254.5,182.5 254.5,182.5 254.5,183.5 254.5,183.5 254.5,183.5 254.5,183.5 254.5,184.5 254.5,184.5 
		254.5,184.5 255.5,184.5 255.5,184.5 255.5,185.5 255.5,185.5 255.5,185.5 255.5,185.5 255.5,185.5 255.5,185.5 255.5,185.5 
		255.5,185.5 255.5,185.5 255.5,185.5 255.5,184.5 256.5,184.5 256.5,184.5 256.5,184.5 256.5,184.5 256.5,184.5 256.5,184.5 
		256.5,185.5 256.5,185.5 256.5,185.5 256.5,185.5 256.5,185.5 256.5,185.5 256.5,185.5 257.5,185.5 257.5,185.5 257.5,185.5 
		257.5,185.5 257.5,184.5 257.5,184.5 257.5,184.5 257.5,184.5 257.5,185.5 257.5,185.5 257.5,185.5 257.5,185.5 257.5,185.5 
		258.5,185.5 258.5,185.5 258.5,185.5 258.5,185.5 258.5,185.5 258.5,185.5 258.5,186.5 258.5,186.5 258.5,186.5 258.5,186.5 
		258.5,186.5 258.5,186.5 258.5,186.5 259.5,186.5 259.5,186.5 259.5,186.5 259.5,187.5 259.5,187.5 259.5,187.5 259.5,187.5 
		259.5,187.5 259.5,187.5 259.5,187.5 259.5,187.5 259.5,187.5 259.5,188.5 260.5,188.5 260.5,188.5 260.5,189.5 260.5,189.5 
		260.5,190.5 260.5,190.5 260.5,191.5 260.5,191.5 260.5,192.5 260.5,192.5 260.5,193.5 260.5,194.5 260.5,194.5 261.5,195.5 
		261.5,195.5 261.5,196.5 261.5,197.5 261.5,197.5 261.5,198.5 261.5,199.5 261.5,199.5 261.5,200.5 261.5,201.5 261.5,201.5 
		261.5,201.5 261.5,202.5 262.5,203.5 262.5,203.5 262.5,203.5 262.5,204.5 262.5,204.5 262.5,204.5 262.5,204.5 262.5,203.5 
		262.5,203.5 262.5,202.5 262.5,202.5 262.5,201.5 262.5,201.5 263.5,200.5 263.5,200.5 263.5,199.5 263.5,198.5 263.5,198.5 
		263.5,197.5 263.5,197.5 263.5,196.5 263.5,195.5 263.5,195.5 263.5,194.5 263.5,194.5 263.5,193.5 264.5,193.5 264.5,193.5 
		264.5,192.5 264.5,192.5 264.5,192.5 264.5,191.5 264.5,191.5 264.5,191.5 264.5,191.5 264.5,190.5 264.5,190.5 264.5,190.5 
		264.5,190.5 265.5,189.5 265.5,189.5 265.5,189.5 265.5,189.5 265.5,190.5 265.5,190.5 265.5,190.5 265.5,191.5 265.5,191.5 
		265.5,191.5 265.5,192.5 265.5,192.5 265.5,193.5 266.5,193.5 266.5,194.5 266.5,195.5 266.5,195.5 266.5,196.5 266.5,197.5 
		266.5,198.5 266.5,199.5 266.5,200.5 266.5,200.5 266.5,201.5 266.5,202.5 266.5,203.5 267.5,203.5 267.5,203.5 267.5,203.5 
		267.5,203.5 267.5,203.5 267.5,202.5 267.5,202.5 267.5,201.5 267.5,201.5 267.5,200.5 267.5,200.5 267.5,199.5 267.5,199.5 
		268.5,199.5 268.5,199.5 268.5,199.5 268.5,200.5 268.5,199.5 268.5,199.5 268.5,199.5 268.5,199.5 268.5,199.5 268.5,200.5 
		268.5,200.5 268.5,201.5 268.5,201.5 269.5,203.5 269.5,204.5 269.5,203.5 269.5,203.5 269.5,202.5 269.5,201.5 269.5,201.5 
		269.5,201.5 269.5,201.5 269.5,200.5 269.5,200.5 269.5,201.5 269.5,201.5 270.5,201.5 270.5,202.5 270.5,202.5 270.5,203.5 
		270.5,203.5 270.5,204.5 270.5,205.5 270.5,206.5 270.5,207.5 270.5,207.5 270.5,207.5 270.5,208.5 270.5,208.5 271.5,208.5 
		271.5,207.5 271.5,207.5 271.5,207.5 271.5,207.5 271.5,206.5 271.5,206.5 271.5,206.5 271.5,206.5 271.5,206.5 271.5,206.5 
		271.5,206.5 271.5,206.5 272.5,206.5 272.5,206.5 272.5,206.5 272.5,206.5 272.5,206.5 272.5,206.5 272.5,207.5 272.5,206.5 
		272.5,206.5 272.5,206.5 272.5,206.5 272.5,207.5 272.5,207.5 273.5,206.5 273.5,206.5 273.5,206.5 273.5,206.5 273.5,206.5 
		273.5,206.5 273.5,206.5 273.5,206.5 273.5,206.5 273.5,206.5 273.5,205.5 273.5,205.5 273.5,205.5 274.5,205.5 274.5,205.5 
		274.5,205.5 274.5,204.5 274.5,204.5 274.5,204.5 274.5,204.5 274.5,204.5 274.5,204.5 274.5,204.5 274.5,204.5 274.5,204.5 
		274.5,204.5 275.5,204.5 275.5,204.5 275.5,204.5 275.5,204.5 275.5,203.5 275.5,203.5 275.5,203.5 275.5,203.5 275.5,203.5 
		275.5,203.5 275.5,202.5 275.5,202.5 275.5,201.5 276.5,200.5 276.5,200.5 276.5,199.5 276.5,198.5 276.5,198.5 276.5,197.5 
		276.5,196.5 276.5,196.5 276.5,195.5 276.5,194.5 276.5,194.5 276.5,193.5 276.5,192.5 277.5,192.5 277.5,191.5 277.5,190.5 
		277.5,190.5 277.5,190.5 277.5,189.5 277.5,189.5 277.5,188.5 277.5,188.5 277.5,188.5 277.5,187.5 277.5,187.5 277.5,187.5 
		278.5,186.5 278.5,186.5 278.5,186.5 278.5,186.5 278.5,185.5 278.5,185.5 278.5,185.5 278.5,185.5 278.5,185.5 278.5,185.5 
		278.5,185.5 278.5,185.5 278.5,185.5 279.5,185.5 279.5,185.5 279.5,185.5 279.5,186.5 279.5,186.5 279.5,186.5 279.5,186.5 
		279.5,187.5 279.5,187.5 279.5,187.5 279.5,187.5 279.5,186.5 279.5,186.5 280.5,185.5 280.5,185.5 280.5,185.5 280.5,185.5 
		280.5,185.5 280.5,185.5 280.5,185.5 280.5,185.5 280.5,185.5 280.5,185.5 280.5,185.5 280.5,185.5 280.5,185.5 281.5,185.5 
		281.5,185.5 281.5,185.5 281.5,184.5 281.5,184.5 281.5,184.5 281.5,183.5 281.5,183.5 281.5,182.5 281.5,181.5 281.5,181.5 
		281.5,180.5 281.5,180.5 282.5,179.5 282.5,179.5 282.5,178.5 282.5,178.5 282.5,178.5 282.5,177.5 282.5,177.5 282.5,177.5 
		282.5,176.5 282.5,176.5 282.5,176.5 282.5,175.5 282.5,175.5 283.5,175.5 283.5,175.5 283.5,174.5 283.5,174.5 283.5,174.5 
		283.5,173.5 283.5,173.5 283.5,173.5 283.5,173.5 283.5,172.5 283.5,172.5 283.5,172.5 283.5,172.5 284.5,171.5 284.5,171.5 
		284.5,171.5 284.5,171.5 284.5,171.5 284.5,170.5 284.5,170.5 284.5,170.5 284.5,170.5 284.5,170.5 284.5,170.5 284.5,170.5 
		284.5,170.5 285.5,170.5 285.5,170.5 285.5,170.5 285.5,170.5 285.5,171.5 285.5,171.5 285.5,171.5 285.5,172.5 285.5,172.5 
		285.5,172.5 285.5,173.5 285.5,173.5 285.5,173.5 286.5,174.5 286.5,174.5 286.5,174.5 286.5,175.5 286.5,175.5 286.5,176.5 
		286.5,176.5 286.5,176.5 286.5,177.5 286.5,177.5 286.5,177.5 286.5,177.5 286.5,178.5 287.5,178.5 287.5,178.5 287.5,179.5 
		287.5,179.5 287.5,179.5 287.5,179.5 287.5,179.5 287.5,180.5 287.5,180.5 287.5,180.5 287.5,180.5 287.5,180.5 287.5,180.5 
		288.5,180.5 288.5,180.5 288.5,180.5 288.5,180.5 288.5,180.5 288.5,180.5 288.5,179.5 288.5,180.5 288.5,180.5 288.5,180.5 
		288.5,181.5 288.5,181.5 288.5,182.5 289.5,182.5 289.5,182.5 289.5,183.5 289.5,183.5 289.5,184.5 289.5,184.5 289.5,184.5 
		289.5,184.5 289.5,184.5 289.5,185.5 289.5,184.5 289.5,184.5 289.5,184.5 290.5,183.5 290.5,183.5 290.5,182.5 290.5,181.5 
		290.5,181.5 290.5,180.5 290.5,180.5 290.5,180.5 290.5,180.5 290.5,180.5 290.5,179.5 290.5,179.5 290.5,179.5 291.5,178.5 
		291.5,178.5 291.5,178.5 291.5,178.5 291.5,178.5 291.5,178.5 291.5,178.5 291.5,178.5 291.5,178.5 291.5,178.5 291.5,178.5 
		291.5,179.5 291.5,179.5 292.5,179.5 292.5,179.5 292.5,179.5 292.5,179.5 292.5,178.5 292.5,179.5 292.5,179.5 292.5,179.5 
		292.5,178.5 292.5,178.5 292.5,178.5 292.5,177.5 292.5,177.5 293.5,177.5 293.5,177.5 293.5,177.5 293.5,177.5 293.5,177.5 
		293.5,177.5 293.5,177.5 293.5,177.5 293.5,176.5 293.5,176.5 293.5,176.5 293.5,176.5 293.5,176.5 294.5,176.5 294.5,175.5 
		294.5,175.5 294.5,175.5 294.5,175.5 294.5,174.5 294.5,174.5 294.5,174.5 294.5,174.5 294.5,174.5 294.5,173.5 294.5,173.5 
		294.5,173.5 295.5,172.5 295.5,172.5 295.5,171.5 295.5,171.5 295.5,170.5 295.5,170.5 295.5,169.5 295.5,168.5 295.5,168.5 
		295.5,167.5 295.5,167.5 295.5,166.5 295.5,166.5 296.5,166.5 296.5,166.5 296.5,165.5 296.5,165.5 296.5,165.5 296.5,165.5 
		296.5,164.5 296.5,164.5 296.5,164.5 296.5,164.5 296.5,163.5 296.5,163.5 296.5,163.5 297.5,163.5 297.5,163.5 297.5,163.5 
		297.5,163.5 297.5,164.5 297.5,164.5 297.5,164.5 297.5,164.5 297.5,164.5 297.5,164.5 297.5,163.5 297.5,163.5 297.5,162.5 
		298.5,162.5 298.5,161.5 298.5,161.5 298.5,161.5 298.5,160.5 298.5,160.5 298.5,159.5 298.5,159.5 298.5,159.5 298.5,159.5 
		298.5,158.5 298.5,158.5 298.5,158.5 299.5,158.5 299.5,157.5 299.5,156.5 299.5,156.5 299.5,156.5 299.5,155.5 299.5,155.5 
		299.5,155.5 299.5,154.5 299.5,153.5 299.5,153.5 299.5,152.5 299.5,151.5 300.5,151.5 300.5,150.5 300.5,150.5 300.5,150.5 
		300.5,149.5 300.5,149.5 300.5,149.5 300.5,149.5 300.5,148.5 300.5,148.5 300.5,148.5 300.5,148.5 300.5,148.5 301.5,148.5 
		301.5,147.5 301.5,147.5 301.5,147.5 301.5,147.5 301.5,147.5 301.5,147.5 301.5,147.5 301.5,146.5 301.5,146.5 301.5,146.5 
		301.5,146.5 301.5,146.5 302.5,146.5 302.5,146.5 302.5,145.5 302.5,145.5 302.5,145.5 302.5,145.5 302.5,145.5 302.5,145.5 
		302.5,145.5 302.5,144.5 302.5,144.5 302.5,144.5 302.5,144.5 303.5,144.5 303.5,144.5 303.5,144.5 303.5,143.5 303.5,143.5 
		303.5,143.5 303.5,144.5 303.5,144.5 303.5,144.5 303.5,144.5 303.5,144.5 303.5,144.5 303.5,144.5 304.5,145.5 304.5,145.5 
		304.5,145.5 304.5,145.5 304.5,146.5 304.5,146.5 304.5,146.5 304.5,146.5 304.5,146.5 304.5,146.5 304.5,146.5 304.5,146.5 
		304.5,147.5 305.5,147.5 305.5,147.5 305.5,148.5 305.5,149.5 305.5,149.5 305.5,149.5 305.5,149.5 305.5,150.5 305.5,150.5 
		305.5,151.5 305.5,151.5 305.5,152.5 305.5,152.5 306.5,152.5 306.5,153.5 306.5,153.5 306.5,153.5 306.5,154.5 306.5,154.5 
		306.5,155.5 306.5,155.5 306.5,156.5 306.5,156.5 306.5,156.5 306.5,156.5 306.5,157.5 307.5,157.5 307.5,157.5 307.5,157.5 
		307.5,157.5 307.5,158.5 307.5,158.5 307.5,158.5 307.5,158.5 307.5,159.5 307.5,159.5 307.5,160.5 307.5,160.5 307.5,160.5 
		308.5,161.5 308.5,162.5 308.5,162.5 308.5,163.5 308.5,164.5 308.5,164.5 308.5,165.5 308.5,166.5 308.5,166.5 308.5,167.5 
		308.5,167.5 308.5,168.5 308.5,168.5 309.5,168.5 309.5,169.5 309.5,169.5 309.5,169.5 309.5,169.5 309.5,169.5 309.5,169.5 
		309.5,168.5 309.5,168.5 309.5,167.5 309.5,167.5 309.5,167.5 309.5,166.5 310.5,166.5 310.5,165.5 310.5,165.5 310.5,165.5 
		310.5,165.5 310.5,165.5 310.5,165.5 310.5,165.5 310.5,166.5 310.5,166.5 310.5,166.5 310.5,166.5 310.5,166.5 311.5,166.5 
		311.5,166.5 311.5,167.5 311.5,167.5 311.5,167.5 311.5,167.5 311.5,167.5 311.5,167.5 311.5,167.5 311.5,168.5 311.5,168.5 
		311.5,168.5 311.5,168.5 312.5,168.5 312.5,169.5 312.5,169.5 312.5,169.5 312.5,169.5 312.5,170.5 312.5,170.5 312.5,170.5 
		312.5,171.5 312.5,171.5 312.5,172.5 312.5,172.5 312.5,173.5 313.5,173.5 313.5,174.5 313.5,175.5 313.5,175.5 313.5,176.5 
		313.5,177.5 313.5,177.5 313.5,177.5 313.5,177.5 313.5,177.5 313.5,177.5 313.5,177.5 313.5,177.5 314.5,176.5 314.5,176.5 
		314.5,176.5 314.5,176.5 314.5,176.5 314.5,176.5 314.5,176.5 314.5,177.5 314.5,177.5 314.5,177.5 314.5,178.5 314.5,178.5 
		314.5,179.5 315.5,179.5 315.5,180.5 315.5,180.5 315.5,181.5 315.5,182.5 315.5,182.5 315.5,183.5 315.5,184.5 315.5,185.5 
		315.5,186.5 315.5,187.5 315.5,189.5 315.5,189.5 316.5,190.5 316.5,191.5 316.5,192.5 316.5,193.5 316.5,194.5 316.5,194.5 
		316.5,195.5 316.5,195.5 316.5,195.5 316.5,196.5 316.5,196.5 316.5,197.5 316.5,197.5 316.5,197.5 317.5,197.5 317.5,197.5 
		317.5,197.5 317.5,197.5 317.5,197.5 317.5,197.5 317.5,196.5 317.5,196.5 317.5,195.5 317.5,195.5 317.5,195.5 317.5,195.5 
		317.5,194.5 318.5,193.5 318.5,193.5 318.5,193.5 318.5,193.5 318.5,194.5 318.5,194.5 318.5,194.5 318.5,194.5 318.5,193.5 
		318.5,193.5 318.5,194.5 318.5,194.5 318.5,194.5 319.5,194.5 319.5,194.5 319.5,194.5 319.5,194.5 319.5,194.5 319.5,194.5 
		319.5,194.5 319.5,194.5 319.5,194.5 319.5,195.5 319.5,196.5 319.5,197.5 319.5,198.5 320.5,198.5 320.5,199.5 320.5,200.5 
		320.5,200.5 320.5,201.5 320.5,202.5 320.5,203.5 320.5,203.5 320.5,204.5 320.5,205.5 320.5,205.5 320.5,206.5 320.5,206.5 
		321.5,206.5 321.5,207.5 321.5,207.5 321.5,208.5 321.5,208.5 321.5,209.5 321.5,209.5 321.5,209.5 321.5,209.5 321.5,210.5 
		321.5,210.5 321.5,210.5 321.5,210.5 322.5,210.5 322.5,210.5 322.5,209.5 322.5,208.5 322.5,208.5 322.5,208.5 322.5,208.5 
		322.5,208.5 322.5,208.5 322.5,209.5 322.5,209.5 322.5,209.5 322.5,210.5 323.5,210.5 323.5,211.5 323.5,211.5 323.5,211.5 
		323.5,212.5 323.5,212.5 323.5,212.5 323.5,212.5 323.5,213.5 323.5,213.5 323.5,213.5 323.5,214.5 323.5,213.5 324.5,213.5 
		324.5,213.5 324.5,213.5 324.5,213.5 324.5,214.5 324.5,214.5 324.5,214.5 324.5,214.5 324.5,214.5 324.5,214.5 324.5,214.5 
		324.5,214.5 324.5,214.5 325.5,214.5 325.5,215.5 325.5,215.5 325.5,215.5 325.5,215.5 325.5,215.5 325.5,215.5 325.5,216.5 
		325.5,216.5 325.5,216.5 325.5,216.5 325.5,215.5 325.5,215.5 326.5,215.5 326.5,215.5 326.5,215.5 326.5,215.5 326.5,215.5 
		326.5,215.5 326.5,215.5 326.5,216.5 326.5,216.5 326.5,216.5 326.5,216.5 326.5,216.5 326.5,216.5 327.5,216.5 327.5,216.5 
		327.5,216.5 327.5,216.5 327.5,215.5 327.5,215.5 327.5,215.5 327.5,215.5 327.5,215.5 327.5,215.5 327.5,215.5 327.5,215.5 
		327.5,215.5 328.5,215.5 328.5,215.5 328.5,216.5 328.5,216.5 328.5,216.5 328.5,216.5 328.5,216.5 328.5,216.5 328.5,216.5 
		328.5,216.5 328.5,216.5 328.5,216.5 328.5,216.5 329.5,216.5 329.5,217.5 329.5,217.5 329.5,217.5 329.5,217.5 329.5,217.5 
		329.5,217.5 329.5,217.5 329.5,217.5 329.5,217.5 329.5,217.5 329.5,217.5 329.5,217.5 330.5,217.5 330.5,216.5 330.5,216.5 
		330.5,216.5 330.5,216.5 330.5,216.5 330.5,216.5 330.5,216.5 330.5,216.5 330.5,216.5 330.5,216.5 330.5,216.5 330.5,216.5 
		331.5,216.5 331.5,216.5 331.5,216.5 331.5,216.5 331.5,216.5 331.5,216.5 331.5,216.5 331.5,216.5 331.5,216.5 331.5,216.5 
		331.5,216.5 331.5,216.5 331.5,216.5 332.5,216.5 332.5,216.5 332.5,216.5 332.5,216.5 332.5,216.5 332.5,216.5 332.5,216.5 
		332.5,216.5 332.5,216.5 332.5,216.5 332.5,216.5 332.5,216.5 332.5,216.5 333.5,216.5 333.5,216.5 333.5,216.5 333.5,216.5 
		333.5,216.5 333.5,216.5 333.5,216.5 333.5,216.5 333.5,216.5 333.5,216.5 333.5,216.5 333.5,216.5 333.5,216.5 334.5,216.5 
		334.5,216.5 334.5,216.5 334.5,216.5 334.5,216.5 334.5,215.5 334.5,215.5 334.5,215.5 334.5,215.5 334.5,215.5 334.5,215.5 
		334.5,215.5 334.5,214.5 335.5,214.5 335.5,214.5 335.5,214.5 335.5,214.5 335.5,213.5 335.5,213.5 335.5,213.5 335.5,213.5 
		335.5,213.5 335.5,213.5 335.5,212.5 335.5,212.5 335.5,212.5 336.5,212.5 336.5,212.5 336.5,212.5 336.5,213.5 336.5,213.5 
		336.5,213.5 336.5,213.5 336.5,213.5 336.5,213.5 336.5,213.5 336.5,213.5 336.5,213.5 336.5,213.5 337.5,213.5 337.5,213.5 
		337.5,212.5 337.5,212.5 337.5,212.5 337.5,212.5 337.5,212.5 337.5,212.5 337.5,211.5 337.5,211.5 337.5,211.5 337.5,211.5 
		337.5,211.5 338.5,210.5 338.5,210.5 338.5,210.5 338.5,210.5 338.5,209.5 338.5,209.5 338.5,209.5 338.5,209.5 338.5,209.5 
		338.5,209.5 338.5,209.5 338.5,209.5 338.5,209.5 339.5,209.5 339.5,209.5 339.5,210.5 339.5,210.5 339.5,210.5 339.5,211.5 
		339.5,211.5 339.5,212.5 339.5,212.5 339.5,212.5 339.5,213.5 339.5,213.5 339.5,213.5 340.5,213.5 340.5,213.5 340.5,213.5 
		340.5,212.5 340.5,212.5 340.5,211.5 340.5,211.5 340.5,210.5 340.5,209.5 340.5,208.5 340.5,208.5 340.5,208.5 340.5,208.5 
		341.5,207.5 341.5,207.5 341.5,207.5 341.5,207.5 341.5,207.5 341.5,207.5 341.5,207.5 341.5,207.5 341.5,207.5 341.5,207.5 
		341.5,207.5 341.5,207.5 341.5,208.5 342.5,208.5 342.5,208.5 342.5,208.5 342.5,208.5 342.5,208.5 342.5,208.5 342.5,208.5 
		342.5,208.5 342.5,208.5 342.5,209.5 342.5,210.5 342.5,210.5 342.5,211.5 343.5,212.5 343.5,213.5 343.5,214.5 343.5,215.5 
		343.5,215.5 343.5,216.5 343.5,216.5 343.5,217.5 343.5,217.5 343.5,217.5 343.5,217.5 343.5,218.5 343.5,218.5 344.5,218.5 
		344.5,217.5 344.5,216.5 344.5,216.5 344.5,216.5 344.5,216.5 344.5,216.5 344.5,216.5 344.5,216.5 344.5,216.5 344.5,217.5 
		344.5,217.5 344.5,217.5 345.5,217.5 345.5,217.5 345.5,217.5 345.5,217.5 345.5,217.5 345.5,218.5 345.5,218.5 345.5,218.5 
		345.5,219.5 345.5,219.5 345.5,219.5 345.5,219.5 345.5,219.5 346.5,219.5 346.5,219.5 346.5,219.5 346.5,219.5 346.5,219.5 
		346.5,219.5 346.5,219.5 346.5,218.5 346.5,218.5 346.5,218.5 346.5,218.5 346.5,218.5 346.5,218.5 347.5,218.5 347.5,217.5 
		347.5,217.5 347.5,217.5 347.5,217.5 347.5,217.5 347.5,217.5 347.5,217.5 347.5,217.5 347.5,217.5 347.5,216.5 347.5,216.5 
		347.5,216.5 348.5,216.5 348.5,216.5 348.5,216.5 348.5,216.5 348.5,216.5 348.5,216.5 348.5,216.5 348.5,216.5 348.5,216.5 
		348.5,216.5 348.5,216.5 348.5,216.5 348.5,216.5 349.5,216.5 349.5,216.5 349.5,216.5 349.5,216.5 349.5,216.5 349.5,216.5 
		349.5,216.5 349.5,216.5 349.5,216.5 349.5,216.5 349.5,216.5 349.5,217.5 349.5,217.5 350.5,217.5 350.5,217.5 350.5,218.5 
		350.5,218.5 350.5,218.5 350.5,218.5 350.5,218.5 350.5,218.5 350.5,218.5 350.5,218.5 350.5,218.5 350.5,218.5 350.5,218.5 
		351.5,218.5 351.5,218.5 351.5,218.5 351.5,219.5 351.5,219.5 351.5,219.5 351.5,219.5 351.5,219.5 351.5,220.5 351.5,220.5 
		351.5,221.5 351.5,221.5 351.5,222.5 352.5,223.5 352.5,224.5 352.5,224.5 352.5,223.5 352.5,222.5 352.5,221.5 352.5,220.5 
		352.5,219.5 352.5,217.5 352.5,216.5 352.5,215.5 352.5,214.5 352.5,213.5 353.5,212.5 353.5,211.5 353.5,211.5 353.5,210.5 
		353.5,209.5 353.5,209.5 353.5,208.5 353.5,208.5 353.5,207.5 353.5,207.5 353.5,207.5 353.5,206.5 353.5,206.5 354.5,206.5 
		354.5,205.5 354.5,205.5 354.5,205.5 354.5,205.5 354.5,205.5 354.5,205.5 354.5,205.5 354.5,204.5 354.5,204.5 354.5,204.5 
		354.5,204.5 354.5,204.5 355.5,204.5 355.5,204.5 355.5,203.5 355.5,203.5 355.5,203.5 355.5,203.5 355.5,203.5 355.5,203.5 
		355.5,203.5 355.5,203.5 355.5,203.5 355.5,202.5 355.5,202.5 356.5,202.5 356.5,202.5 356.5,202.5 356.5,201.5 356.5,201.5 
		356.5,200.5 356.5,200.5 356.5,200.5 356.5,200.5 356.5,200.5 356.5,200.5 356.5,200.5 356.5,201.5 357.5,201.5 357.5,201.5 
		357.5,201.5 357.5,201.5 357.5,201.5 357.5,201.5 357.5,201.5 357.5,201.5 357.5,202.5 357.5,202.5 357.5,202.5 357.5,202.5 
		357.5,202.5 358.5,202.5 358.5,202.5 358.5,202.5 358.5,202.5 358.5,202.5 358.5,202.5 358.5,202.5 358.5,202.5 358.5,202.5 
		358.5,202.5 358.5,202.5 358.5,202.5 358.5,202.5 359.5,202.5 359.5,202.5 359.5,202.5 359.5,202.5 359.5,202.5 359.5,202.5 
		359.5,202.5 359.5,202.5 359.5,202.5 359.5,202.5 359.5,202.5 359.5,202.5 359.5,202.5 360.5,202.5 360.5,202.5 360.5,202.5 
		360.5,202.5 360.5,202.5 360.5,202.5 360.5,201.5 360.5,201.5 360.5,200.5 360.5,199.5 360.5,199.5 360.5,199.5 360.5,198.5 
		361.5,198.5 361.5,197.5 361.5,197.5 361.5,196.5 361.5,196.5 361.5,196.5 361.5,196.5 361.5,196.5 361.5,196.5 361.5,196.5 
		361.5,196.5 361.5,196.5 361.5,196.5 362.5,196.5 362.5,196.5 362.5,196.5 362.5,196.5 362.5,196.5 362.5,196.5 362.5,196.5 
		362.5,196.5 362.5,197.5 362.5,197.5 362.5,197.5 362.5,197.5 362.5,197.5 363.5,198.5 363.5,198.5 363.5,198.5 363.5,199.5 
		363.5,199.5 363.5,199.5 363.5,199.5 363.5,199.5 363.5,199.5 363.5,199.5 363.5,199.5 363.5,199.5 363.5,199.5 364.5,199.5 
		364.5,198.5 364.5,198.5 364.5,198.5 364.5,198.5 364.5,198.5 364.5,198.5 364.5,198.5 364.5,198.5 364.5,198.5 364.5,198.5 
		364.5,197.5 364.5,197.5 365.5,197.5 365.5,196.5 365.5,196.5 365.5,196.5 365.5,195.5 365.5,195.5 365.5,195.5 365.5,194.5 
		365.5,194.5 365.5,194.5 365.5,193.5 365.5,193.5 365.5,193.5 366.5,192.5 366.5,192.5 366.5,192.5 366.5,192.5 366.5,191.5 
		366.5,191.5 366.5,191.5 366.5,190.5 366.5,190.5 366.5,190.5 366.5,189.5 366.5,189.5 366.5,189.5 367.5,188.5 367.5,188.5 
		367.5,188.5 367.5,187.5 367.5,187.5 367.5,187.5 367.5,186.5 367.5,186.5 367.5,186.5 367.5,186.5 367.5,186.5 367.5,186.5 
		367.5,185.5 368.5,185.5 368.5,185.5 368.5,185.5 368.5,185.5 368.5,185.5 368.5,185.5 368.5,185.5 368.5,184.5 368.5,184.5 
		368.5,183.5 368.5,183.5 368.5,183.5 368.5,182.5 369.5,182.5 369.5,182.5 369.5,181.5 369.5,181.5 369.5,181.5 369.5,180.5 
		369.5,180.5 369.5,180.5 369.5,179.5 369.5,179.5 369.5,179.5 369.5,178.5 369.5,178.5 370.5,178.5 370.5,178.5 370.5,177.5 
		370.5,177.5 370.5,177.5 370.5,176.5 370.5,176.5 370.5,176.5 370.5,175.5 370.5,175.5 370.5,174.5 370.5,174.5 370.5,173.5 
		371.5,173.5 371.5,173.5 371.5,172.5 371.5,172.5 371.5,171.5 371.5,171.5 371.5,170.5 371.5,170.5 371.5,169.5 371.5,169.5 
		371.5,169.5 371.5,168.5 371.5,168.5 372.5,167.5 372.5,167.5 372.5,166.5 372.5,166.5 372.5,166.5 372.5,165.5 372.5,165.5 
		372.5,165.5 372.5,164.5 372.5,164.5 372.5,164.5 372.5,164.5 372.5,164.5 373.5,164.5 373.5,164.5 373.5,164.5 373.5,164.5 
		373.5,164.5 373.5,164.5 373.5,164.5 373.5,164.5 373.5,165.5 373.5,165.5 373.5,164.5 373.5,164.5 373.5,164.5 374.5,164.5 
		374.5,165.5 374.5,165.5 374.5,165.5 374.5,165.5 374.5,165.5 374.5,165.5 374.5,165.5 374.5,165.5 374.5,165.5 374.5,165.5 
		374.5,164.5 374.5,165.5 375.5,165.5 375.5,166.5 375.5,167.5 375.5,167.5 375.5,168.5 375.5,168.5 375.5,168.5 375.5,168.5 
		375.5,168.5 375.5,168.5 375.5,168.5 375.5,168.5 375.5,168.5 376.5,168.5 376.5,168.5 376.5,168.5 376.5,168.5 376.5,168.5 
		376.5,168.5 376.5,167.5 376.5,167.5 376.5,167.5 376.5,167.5 376.5,167.5 376.5,167.5 376.5,167.5 377.5,167.5 377.5,168.5 
		377.5,168.5 377.5,169.5 377.5,170.5 377.5,171.5 377.5,172.5 377.5,172.5 377.5,173.5 377.5,173.5 377.5,174.5 377.5,174.5 
		377.5,174.5 378.5,175.5 378.5,175.5 378.5,175.5 378.5,175.5 378.5,176.5 378.5,176.5 378.5,177.5 378.5,177.5 378.5,177.5 
		378.5,178.5 378.5,178.5 378.5,178.5 378.5,179.5 379.5,179.5 379.5,179.5 379.5,179.5 379.5,180.5 379.5,180.5 379.5,180.5 
		379.5,181.5 379.5,181.5 379.5,182.5 379.5,182.5 379.5,183.5 379.5,183.5 379.5,184.5 380.5,185.5 380.5,186.5 380.5,186.5 
		380.5,187.5 380.5,188.5 380.5,188.5 380.5,189.5 380.5,189.5 380.5,190.5 380.5,191.5 380.5,191.5 380.5,192.5 380.5,192.5 
		381.5,193.5 381.5,193.5 381.5,194.5 381.5,194.5 381.5,195.5 381.5,195.5 381.5,195.5 381.5,196.5 381.5,196.5 381.5,196.5 
		381.5,197.5 381.5,197.5 381.5,197.5 382.5,197.5 382.5,197.5 382.5,198.5 382.5,198.5 382.5,198.5 382.5,198.5 382.5,198.5 
		382.5,198.5 382.5,198.5 382.5,198.5 382.5,198.5 382.5,198.5 382.5,198.5 383.5,198.5 383.5,199.5 383.5,199.5 383.5,200.5 
		383.5,200.5 383.5,201.5 383.5,201.5 383.5,202.5 383.5,203.5 383.5,204.5 383.5,205.5 383.5,206.5 383.5,207.5 384.5,208.5 
		384.5,209.5 384.5,210.5 384.5,211.5 384.5,211.5 384.5,212.5 384.5,213.5 384.5,213.5 384.5,213.5 384.5,213.5 384.5,213.5 
		384.5,213.5 384.5,213.5 385.5,213.5 385.5,212.5 385.5,212.5 385.5,212.5 385.5,212.5 385.5,211.5 385.5,211.5 385.5,211.5 
		385.5,211.5 385.5,211.5 385.5,211.5 385.5,211.5 385.5,211.5 386.5,211.5 386.5,211.5 386.5,211.5 386.5,211.5 386.5,212.5 
		386.5,212.5 386.5,212.5 386.5,212.5 386.5,212.5 386.5,211.5 386.5,211.5 386.5,211.5 386.5,211.5 387.5,211.5 387.5,211.5 
		387.5,211.5 387.5,211.5 387.5,211.5 387.5,210.5 387.5,210.5 387.5,210.5 387.5,210.5 387.5,210.5 387.5,210.5 387.5,209.5 
		387.5,209.5 388.5,209.5 388.5,209.5 388.5,208.5 388.5,208.5 388.5,208.5 388.5,208.5 388.5,207.5 388.5,207.5 388.5,206.5 
		388.5,206.5 388.5,205.5 388.5,205.5 388.5,204.5 389.5,204.5 389.5,203.5 389.5,202.5 389.5,201.5 389.5,200.5 389.5,200.5 
		389.5,199.5 389.5,199.5 389.5,199.5 389.5,199.5 389.5,199.5 389.5,199.5 389.5,199.5 390.5,199.5 390.5,198.5 390.5,198.5 
		390.5,197.5 390.5,196.5 390.5,196.5 390.5,196.5 390.5,195.5 390.5,195.5 390.5,195.5 390.5,194.5 390.5,194.5 390.5,194.5 
		391.5,194.5 391.5,193.5 391.5,193.5 391.5,192.5 391.5,191.5 391.5,190.5 391.5,190.5 391.5,189.5 391.5,188.5 391.5,188.5 
		391.5,187.5 391.5,187.5 391.5,187.5 392.5,187.5 392.5,186.5 392.5,186.5 392.5,186.5 392.5,186.5 392.5,186.5 392.5,185.5 
		392.5,185.5 392.5,185.5 392.5,185.5 392.5,184.5 392.5,185.5 392.5,185.5 393.5,185.5 393.5,186.5 393.5,186.5 393.5,187.5 
		393.5,188.5 393.5,188.5 393.5,189.5 393.5,189.5 393.5,190.5 393.5,190.5 393.5,191.5 393.5,191.5 393.5,191.5 394.5,191.5 
		394.5,192.5 394.5,192.5 394.5,192.5 394.5,193.5 394.5,193.5 394.5,193.5 394.5,194.5 394.5,194.5 394.5,195.5 394.5,195.5 
		394.5,196.5 394.5,196.5 395.5,196.5 395.5,195.5 395.5,195.5 395.5,195.5 395.5,195.5 395.5,195.5 395.5,195.5 395.5,195.5 
		395.5,195.5 395.5,195.5 395.5,195.5 395.5,195.5 395.5,195.5 396.5,195.5 396.5,195.5 396.5,195.5 396.5,194.5 396.5,193.5 
		396.5,193.5 396.5,192.5 396.5,192.5 396.5,192.5 396.5,192.5 396.5,191.5 396.5,191.5 396.5,191.5 397.5,191.5 397.5,191.5 
		397.5,191.5 397.5,191.5 397.5,191.5 397.5,191.5 397.5,191.5 397.5,191.5 397.5,191.5 397.5,190.5 397.5,190.5 397.5,190.5 
		397.5,190.5 398.5,190.5 398.5,190.5 398.5,190.5 398.5,190.5 398.5,190.5 398.5,190.5 398.5,190.5 398.5,189.5 398.5,189.5 
		398.5,189.5 398.5,189.5 398.5,189.5 398.5,189.5 399.5,190.5 399.5,190.5 399.5,190.5 399.5,190.5 399.5,190.5 399.5,191.5 
		399.5,191.5 399.5,191.5 399.5,191.5 399.5,191.5 399.5,191.5 399.5,191.5 399.5,191.5 400.5,191.5 400.5,191.5 400.5,191.5 
		400.5,191.5 400.5,191.5 400.5,191.5 400.5,191.5 400.5,191.5 400.5,191.5 400.5,191.5 400.5,191.5 400.5,190.5 400.5,190.5 
		401.5,190.5 401.5,190.5 401.5,190.5 401.5,190.5 401.5,189.5 401.5,189.5 401.5,189.5 401.5,188.5 401.5,188.5 401.5,188.5 
		401.5,187.5 401.5,187.5 401.5,186.5 402.5,186.5 402.5,185.5 402.5,185.5 402.5,185.5 402.5,184.5 402.5,184.5 402.5,183.5 
		402.5,183.5 402.5,183.5 402.5,182.5 402.5,182.5 402.5,181.5 402.5,181.5 403.5,180.5 403.5,180.5 403.5,179.5 403.5,179.5 
		403.5,179.5 403.5,178.5 403.5,178.5 403.5,178.5 403.5,178.5 403.5,178.5 403.5,178.5 403.5,179.5 403.5,179.5 404.5,179.5 
		404.5,179.5 404.5,179.5 404.5,179.5 404.5,180.5 404.5,180.5 404.5,180.5 404.5,180.5 404.5,180.5 404.5,180.5 404.5,180.5 
		404.5,180.5 404.5,181.5 405.5,181.5 405.5,181.5 405.5,181.5 405.5,181.5 405.5,182.5 405.5,182.5 405.5,183.5 405.5,184.5 
		405.5,184.5 405.5,185.5 405.5,186.5 405.5,186.5 405.5,187.5 406.5,188.5 406.5,189.5 406.5,190.5 406.5,190.5 406.5,190.5 
		406.5,190.5 406.5,190.5 406.5,190.5 406.5,190.5 406.5,190.5 406.5,190.5 406.5,190.5 406.5,190.5 407.5,190.5 407.5,190.5 
		407.5,190.5 407.5,190.5 407.5,189.5 407.5,188.5 407.5,187.5 407.5,187.5 407.5,186.5 407.5,186.5 407.5,185.5 407.5,185.5 
		407.5,184.5 408.5,184.5 408.5,183.5 408.5,183.5 408.5,183.5 408.5,182.5 408.5,182.5 408.5,181.5 408.5,181.5 408.5,181.5 
		408.5,180.5 408.5,180.5 408.5,180.5 408.5,179.5 409.5,179.5 409.5,178.5 409.5,178.5 409.5,178.5 409.5,178.5 409.5,177.5 
		409.5,177.5 409.5,177.5 409.5,177.5 409.5,177.5 409.5,177.5 409.5,177.5 409.5,177.5 410.5,178.5 410.5,178.5 410.5,178.5 
		410.5,178.5 410.5,178.5 410.5,179.5 410.5,179.5 410.5,179.5 410.5,179.5 410.5,179.5 410.5,180.5 410.5,180.5 410.5,180.5 
		411.5,180.5 411.5,181.5 411.5,181.5 411.5,181.5 411.5,181.5 411.5,181.5 411.5,181.5 411.5,182.5 411.5,182.5 411.5,182.5 
		411.5,182.5 411.5,182.5 411.5,182.5 412.5,183.5 412.5,183.5 412.5,183.5 412.5,183.5 412.5,183.5 412.5,183.5 412.5,183.5 
		412.5,183.5 412.5,184.5 412.5,184.5 412.5,184.5 412.5,184.5 412.5,185.5 413.5,185.5 413.5,185.5 413.5,185.5 413.5,185.5 
		413.5,185.5 413.5,185.5 413.5,184.5 413.5,184.5 413.5,184.5 413.5,183.5 413.5,183.5 413.5,182.5 413.5,182.5 414.5,182.5 
		414.5,181.5 414.5,181.5 414.5,180.5 414.5,180.5 414.5,180.5 414.5,179.5 414.5,179.5 414.5,178.5 414.5,178.5 414.5,177.5 
		414.5,177.5 414.5,176.5 415.5,176.5 415.5,176.5 415.5,175.5 415.5,175.5 415.5,175.5 415.5,174.5 415.5,174.5 415.5,174.5 
		415.5,174.5 415.5,173.5 415.5,173.5 415.5,173.5 415.5,173.5 416.5,173.5 416.5,172.5 416.5,172.5 416.5,172.5 416.5,173.5 
		416.5,173.5 416.5,173.5 416.5,174.5 416.5,174.5 416.5,174.5 416.5,174.5 416.5,174.5 416.5,175.5 417.5,175.5 417.5,175.5 
		417.5,175.5 417.5,176.5 417.5,176.5 417.5,176.5 417.5,177.5 417.5,177.5 417.5,177.5 417.5,178.5 417.5,178.5 417.5,179.5 
		417.5,179.5 418.5,180.5 418.5,181.5 418.5,182.5 418.5,182.5 418.5,183.5 418.5,183.5 418.5,184.5 418.5,184.5 418.5,185.5 
		418.5,185.5 418.5,185.5 418.5,186.5 418.5,186.5 419.5,186.5 419.5,186.5 419.5,187.5 419.5,187.5 419.5,187.5 419.5,187.5 
		419.5,188.5 419.5,188.5 419.5,188.5 419.5,188.5 419.5,188.5 419.5,189.5 419.5,189.5 420.5,189.5 420.5,189.5 420.5,190.5 
		420.5,190.5 420.5,190.5 420.5,191.5 420.5,191.5 420.5,191.5 420.5,191.5 420.5,191.5 420.5,192.5 420.5,192.5 420.5,192.5 
		421.5,192.5 421.5,192.5 421.5,193.5 421.5,192.5 421.5,192.5 421.5,192.5 421.5,192.5 421.5,192.5 421.5,192.5 421.5,192.5 
		421.5,192.5 421.5,192.5 421.5,192.5 422.5,192.5 422.5,192.5 422.5,192.5 422.5,192.5 422.5,192.5 422.5,191.5 422.5,191.5 
		422.5,191.5 422.5,191.5 422.5,190.5 422.5,190.5 422.5,189.5 422.5,189.5 423.5,189.5 423.5,188.5 423.5,188.5 423.5,187.5 
		423.5,187.5 423.5,186.5 423.5,186.5 423.5,185.5 423.5,185.5 423.5,185.5 423.5,185.5 423.5,185.5 423.5,185.5 424.5,185.5 
		424.5,185.5 424.5,185.5 424.5,185.5 424.5,185.5 424.5,185.5 424.5,185.5 424.5,186.5 424.5,186.5 424.5,186.5 424.5,186.5 
		424.5,186.5 424.5,187.5 425.5,187.5 425.5,187.5 425.5,187.5 425.5,188.5 425.5,188.5 425.5,189.5 425.5,190.5 425.5,191.5 
		425.5,191.5 425.5,192.5 425.5,193.5 425.5,194.5 425.5,195.5 426.5,196.5 426.5,196.5 426.5,196.5 426.5,197.5 426.5,197.5 
		426.5,198.5 426.5,198.5 426.5,198.5 426.5,198.5 426.5,198.5 426.5,199.5 426.5,199.5 426.5,199.5 427.5,199.5 427.5,199.5 
		427.5,199.5 427.5,199.5 427.5,199.5 427.5,199.5 427.5,199.5 427.5,199.5 427.5,199.5 427.5,199.5 427.5,199.5 427.5,199.5 
		427.5,199.5 428.5,199.5 428.5,200.5 428.5,200.5 428.5,200.5 428.5,200.5 428.5,201.5 428.5,201.5 428.5,201.5 428.5,201.5 
		428.5,201.5 428.5,201.5 428.5,201.5 428.5,201.5 429.5,200.5 429.5,200.5 429.5,199.5 429.5,199.5 429.5,198.5 429.5,198.5 
		429.5,198.5 429.5,199.5 429.5,198.5 429.5,198.5 429.5,198.5 429.5,198.5 429.5,198.5 430.5,198.5 430.5,198.5 430.5,198.5 
		430.5,198.5 430.5,198.5 430.5,198.5 430.5,198.5 430.5,198.5 430.5,198.5 430.5,198.5 430.5,199.5 430.5,199.5 430.5,199.5 
		431.5,199.5 431.5,199.5 431.5,199.5 431.5,200.5 431.5,199.5 431.5,199.5 431.5,199.5 431.5,199.5 431.5,199.5 431.5,199.5 
		431.5,199.5 431.5,199.5 431.5,199.5 432.5,199.5 432.5,198.5 432.5,198.5 432.5,199.5 432.5,199.5 432.5,199.5 432.5,199.5 
		432.5,199.5 432.5,199.5 432.5,198.5 432.5,198.5 432.5,198.5 432.5,198.5 433.5,199.5 433.5,199.5 433.5,199.5 433.5,199.5 
		433.5,199.5 433.5,199.5 433.5,199.5 433.5,199.5 433.5,199.5 433.5,199.5 433.5,198.5 433.5,198.5 433.5,198.5 434.5,197.5 
		434.5,197.5 434.5,197.5 434.5,197.5 434.5,196.5 434.5,196.5 434.5,196.5 434.5,196.5 434.5,196.5 434.5,196.5 434.5,195.5 
		434.5,195.5 434.5,195.5 435.5,195.5 435.5,195.5 435.5,195.5 435.5,195.5 435.5,195.5 435.5,195.5 435.5,195.5 435.5,195.5 
		435.5,195.5 435.5,195.5 435.5,195.5 435.5,195.5 435.5,195.5 436.5,195.5 436.5,195.5 436.5,195.5 436.5,195.5 436.5,195.5 
		436.5,195.5 436.5,195.5 436.5,194.5 436.5,194.5 436.5,194.5 436.5,194.5 436.5,194.5 436.5,193.5 437.5,193.5 437.5,192.5 
		437.5,192.5 437.5,192.5 437.5,192.5 437.5,192.5 437.5,192.5 437.5,192.5 437.5,192.5 437.5,192.5 437.5,191.5 437.5,191.5 
		437.5,191.5 438.5,190.5 438.5,190.5 438.5,189.5 438.5,189.5 438.5,188.5 438.5,188.5 438.5,188.5 438.5,188.5 438.5,188.5 
		438.5,188.5 438.5,187.5 438.5,187.5 438.5,187.5 439.5,187.5 439.5,187.5 439.5,187.5 439.5,187.5 439.5,187.5 439.5,187.5 
		439.5,187.5 439.5,187.5 439.5,188.5 439.5,188.5 439.5,188.5 439.5,188.5 439.5,188.5 440.5,188.5 440.5,187.5 440.5,187.5 
		440.5,187.5 440.5,187.5 440.5,187.5 440.5,187.5 440.5,187.5 440.5,187.5 440.5,187.5 440.5,186.5 440.5,186.5 440.5,186.5 
		441.5,185.5 441.5,185.5 441.5,185.5 441.5,184.5 441.5,184.5 441.5,184.5 441.5,184.5 441.5,184.5 441.5,184.5 441.5,184.5 
		441.5,184.5 441.5,184.5 441.5,184.5 442.5,185.5 442.5,185.5 442.5,185.5 442.5,185.5 442.5,185.5 442.5,185.5 442.5,185.5 
		442.5,186.5 442.5,186.5 442.5,186.5 442.5,186.5 442.5,186.5 442.5,187.5 443.5,187.5 443.5,188.5 443.5,188.5 443.5,188.5 
		443.5,188.5 443.5,188.5 443.5,188.5 443.5,188.5 443.5,189.5 443.5,189.5 443.5,189.5 443.5,189.5 443.5,189.5 443.5,189.5 
		444.5,189.5 444.5,189.5 444.5,189.5 444.5,189.5 444.5,190.5 444.5,190.5 444.5,190.5 444.5,190.5 444.5,190.5 444.5,190.5 
		444.5,191.5 444.5,191.5 444.5,191.5 445.5,191.5 445.5,192.5 445.5,192.5 445.5,192.5 445.5,192.5 445.5,193.5 445.5,193.5 
		445.5,193.5 445.5,193.5 445.5,193.5 445.5,193.5 445.5,193.5 445.5,193.5 446.5,193.5 446.5,193.5 446.5,193.5 446.5,193.5 
		446.5,193.5 446.5,192.5 446.5,192.5 446.5,192.5 446.5,192.5 446.5,192.5 446.5,193.5 446.5,193.5 446.5,193.5 447.5,193.5 
		447.5,193.5 447.5,193.5 447.5,193.5 447.5,192.5 447.5,192.5 447.5,192.5 447.5,192.5 447.5,192.5 447.5,192.5 447.5,192.5 
		447.5,191.5 447.5,191.5 448.5,191.5 448.5,191.5 448.5,191.5 448.5,190.5 448.5,190.5 448.5,190.5 448.5,190.5 448.5,189.5 
		448.5,189.5 448.5,189.5 448.5,189.5 448.5,189.5 448.5,189.5 449.5,189.5 449.5,189.5 449.5,189.5 449.5,189.5 449.5,189.5 
		449.5,188.5 449.5,188.5 449.5,188.5 449.5,188.5 449.5,188.5 449.5,188.5 449.5,187.5 449.5,187.5 450.5,187.5 450.5,187.5 
		450.5,186.5 450.5,186.5 450.5,186.5 450.5,186.5 450.5,185.5 450.5,185.5 450.5,185.5 450.5,185.5 450.5,185.5 450.5,185.5 
		450.5,185.5 451.5,185.5 451.5,185.5 451.5,186.5 451.5,186.5 451.5,186.5 451.5,186.5 451.5,187.5 451.5,187.5 451.5,188.5 
		451.5,188.5 451.5,189.5 451.5,189.5 451.5,190.5 452.5,191.5 452.5,191.5 452.5,191.5 452.5,192.5 452.5,192.5 452.5,192.5 
		452.5,192.5 452.5,193.5 452.5,193.5 452.5,192.5 452.5,192.5 452.5,192.5 452.5,191.5 453.5,191.5 453.5,191.5 453.5,191.5 
		453.5,190.5 453.5,190.5 453.5,190.5 453.5,190.5 453.5,190.5 453.5,190.5 453.5,190.5 453.5,189.5 453.5,189.5 453.5,189.5 
		454.5,188.5 454.5,188.5 454.5,188.5 454.5,188.5 454.5,188.5 454.5,187.5 454.5,187.5 454.5,187.5 454.5,187.5 454.5,187.5 
		454.5,186.5 454.5,186.5 454.5,186.5 455.5,185.5 455.5,185.5 455.5,184.5 455.5,184.5 455.5,184.5 455.5,183.5 455.5,183.5 
		455.5,183.5 455.5,182.5 455.5,182.5 455.5,181.5 455.5,181.5 455.5,181.5 456.5,180.5 456.5,180.5 456.5,179.5 456.5,179.5 
		456.5,178.5 456.5,178.5 456.5,178.5 456.5,177.5 456.5,177.5 456.5,176.5 456.5,176.5 456.5,176.5 456.5,176.5 457.5,175.5 
		457.5,175.5 457.5,175.5 457.5,175.5 457.5,175.5 457.5,175.5 457.5,175.5 457.5,175.5 457.5,175.5 457.5,175.5 457.5,175.5 
		457.5,175.5 457.5,175.5 458.5,175.5 458.5,175.5 458.5,175.5 458.5,175.5 458.5,175.5 458.5,175.5 458.5,175.5 458.5,175.5 
		458.5,175.5 458.5,175.5 458.5,175.5 458.5,175.5 458.5,176.5 459.5,176.5 459.5,176.5 459.5,177.5 459.5,177.5 459.5,178.5 
		459.5,178.5 459.5,179.5 459.5,180.5 459.5,180.5 459.5,181.5 459.5,182.5 459.5,183.5 459.5,183.5 460.5,184.5 460.5,184.5 
		460.5,185.5 460.5,185.5 460.5,186.5 460.5,186.5 460.5,186.5 460.5,186.5 460.5,186.5 460.5,187.5 460.5,187.5 460.5,187.5 
		460.5,187.5 461.5,187.5 461.5,187.5 461.5,187.5 461.5,187.5 461.5,187.5 461.5,187.5 461.5,188.5 461.5,188.5 461.5,188.5 
		461.5,188.5 461.5,189.5 461.5,189.5 461.5,189.5 462.5,189.5 462.5,189.5 462.5,189.5 462.5,189.5 462.5,189.5 462.5,189.5 
		462.5,189.5 462.5,189.5 462.5,188.5 462.5,188.5 462.5,187.5 462.5,187.5 462.5,186.5 463.5,186.5 463.5,186.5 463.5,185.5 
		463.5,184.5 463.5,184.5 463.5,183.5 463.5,183.5 463.5,182.5 463.5,181.5 463.5,181.5 463.5,180.5 463.5,179.5 463.5,179.5 
		464.5,178.5 464.5,178.5 464.5,177.5 464.5,177.5 464.5,177.5 464.5,176.5 464.5,176.5 464.5,175.5 464.5,175.5 464.5,174.5 
		464.5,174.5 464.5,173.5 464.5,173.5 465.5,173.5 465.5,173.5 465.5,173.5 465.5,173.5 465.5,173.5 465.5,173.5 465.5,173.5 
		465.5,173.5 465.5,173.5 465.5,173.5 465.5,173.5 465.5,173.5 465.5,173.5 466.5,173.5 466.5,173.5 466.5,173.5 466.5,173.5 
		466.5,173.5 466.5,173.5 466.5,174.5 466.5,173.5 466.5,173.5 466.5,173.5 466.5,173.5 466.5,173.5 466.5,173.5 467.5,173.5 
		467.5,172.5 467.5,172.5 467.5,172.5 467.5,172.5 467.5,172.5 467.5,172.5 467.5,172.5 467.5,172.5 467.5,171.5 467.5,171.5 
		467.5,172.5 467.5,172.5 468.5,172.5 468.5,172.5 468.5,172.5 468.5,173.5 468.5,173.5 468.5,173.5 468.5,173.5 468.5,173.5 
		468.5,173.5 468.5,173.5 468.5,173.5 468.5,173.5 468.5,173.5 469.5,173.5 469.5,173.5 469.5,172.5 469.5,172.5 469.5,172.5 
		469.5,172.5 469.5,171.5 469.5,171.5 469.5,171.5 469.5,171.5 469.5,172.5 469.5,172.5 469.5,172.5 470.5,173.5 470.5,173.5 
		470.5,174.5 470.5,174.5 470.5,175.5 470.5,175.5 470.5,176.5 470.5,176.5 470.5,177.5 470.5,177.5 470.5,177.5 470.5,178.5 
		470.5,178.5 471.5,178.5 471.5,178.5 471.5,179.5 471.5,179.5 471.5,179.5 471.5,180.5 471.5,180.5 471.5,180.5 471.5,181.5 
		471.5,181.5 471.5,181.5 471.5,182.5 471.5,182.5 472.5,182.5 472.5,183.5 472.5,183.5 472.5,184.5 472.5,184.5 472.5,184.5 
		472.5,184.5 472.5,185.5 472.5,185.5 472.5,185.5 472.5,185.5 472.5,185.5 472.5,186.5 473.5,186.5 473.5,186.5 473.5,186.5 
		473.5,186.5 473.5,187.5 473.5,187.5 473.5,187.5 473.5,187.5 473.5,187.5 473.5,188.5 473.5,188.5 473.5,189.5 473.5,189.5 
		474.5,189.5 474.5,190.5 474.5,190.5 474.5,190.5 474.5,191.5 474.5,191.5 474.5,191.5 474.5,192.5 474.5,191.5 474.5,191.5 
		474.5,191.5 474.5,191.5 474.5,191.5 475.5,191.5 475.5,191.5 475.5,191.5 475.5,190.5 475.5,190.5 475.5,190.5 475.5,190.5 
		475.5,189.5 475.5,189.5 475.5,189.5 475.5,189.5 475.5,188.5 475.5,188.5 476.5,188.5 476.5,188.5 476.5,187.5 476.5,187.5 
		476.5,187.5 476.5,186.5 476.5,186.5 476.5,186.5 476.5,185.5 476.5,185.5 476.5,185.5 476.5,184.5 476.5,184.5 477.5,184.5 
		477.5,184.5 477.5,183.5 477.5,183.5 477.5,183.5 477.5,183.5 477.5,183.5 477.5,183.5 477.5,183.5 477.5,183.5 477.5,183.5 
		477.5,183.5 477.5,183.5 478.5,183.5 478.5,184.5 478.5,184.5 478.5,184.5 478.5,184.5 478.5,184.5 478.5,184.5 478.5,185.5 
		478.5,185.5 478.5,185.5 478.5,185.5 478.5,185.5 478.5,185.5 479.5,185.5 479.5,185.5 479.5,185.5 479.5,185.5 479.5,185.5 
		479.5,185.5 479.5,185.5 479.5,185.5 479.5,185.5 479.5,185.5 479.5,185.5 479.5,185.5 479.5,185.5 480.5,185.5 480.5,185.5 
		480.5,184.5 480.5,184.5 480.5,184.5 480.5,184.5 480.5,184.5 480.5,184.5 480.5,184.5 480.5,184.5 480.5,184.5 480.5,184.5 
		480.5,184.5 481.5,183.5 481.5,183.5 481.5,183.5 481.5,183.5 481.5,183.5 481.5,183.5 481.5,182.5 481.5,182.5 481.5,182.5 
		481.5,182.5 481.5,182.5 481.5,181.5 481.5,181.5 482.5,181.5 482.5,181.5 482.5,181.5 482.5,180.5 482.5,180.5 482.5,180.5 
		482.5,180.5 482.5,179.5 482.5,179.5 482.5,179.5 482.5,178.5 482.5,178.5 482.5,178.5 483.5,177.5 483.5,177.5 483.5,177.5 
		483.5,176.5 483.5,175.5 483.5,175.5 483.5,174.5 483.5,174.5 483.5,173.5 483.5,172.5 483.5,172.5 483.5,171.5 483.5,171.5 
		484.5,171.5 484.5,170.5 484.5,170.5 484.5,170.5 484.5,169.5 484.5,169.5 484.5,168.5 484.5,168.5 484.5,168.5 484.5,167.5 
		484.5,167.5 484.5,167.5 484.5,167.5 485.5,167.5 485.5,167.5 485.5,167.5 485.5,167.5 485.5,167.5 485.5,167.5 485.5,167.5 
		485.5,167.5 485.5,167.5 485.5,167.5 485.5,167.5 485.5,168.5 485.5,168.5 486.5,168.5 486.5,169.5 486.5,169.5 486.5,170.5 
		486.5,170.5 486.5,170.5 486.5,171.5 486.5,171.5 486.5,172.5 486.5,172.5 486.5,173.5 486.5,173.5 486.5,173.5 487.5,174.5 
		487.5,174.5 487.5,174.5 487.5,175.5 487.5,175.5 487.5,175.5 487.5,176.5 487.5,176.5 487.5,177.5 487.5,177.5 487.5,177.5 
		487.5,177.5 487.5,177.5 488.5,178.5 488.5,178.5 488.5,178.5 488.5,179.5 488.5,179.5 488.5,179.5 488.5,179.5 488.5,179.5 
		488.5,180.5 488.5,180.5 488.5,180.5 488.5,180.5 488.5,180.5 489.5,180.5 489.5,181.5 489.5,181.5 489.5,182.5 489.5,182.5 
		489.5,183.5 489.5,184.5 489.5,184.5 489.5,185.5 489.5,186.5 489.5,186.5 489.5,187.5 489.5,187.5 490.5,187.5 490.5,187.5 
		490.5,188.5 490.5,188.5 490.5,188.5 490.5,187.5 490.5,187.5 490.5,187.5 490.5,187.5 490.5,186.5 490.5,186.5 490.5,186.5 
		490.5,186.5 491.5,185.5 491.5,185.5 491.5,185.5 491.5,185.5 491.5,184.5 491.5,184.5 491.5,184.5 491.5,184.5 491.5,184.5 
		491.5,184.5 491.5,184.5 491.5,184.5 491.5,184.5 492.5,184.5 492.5,184.5 492.5,184.5 492.5,184.5 492.5,184.5 492.5,184.5 
		492.5,184.5 492.5,184.5 492.5,184.5 492.5,184.5 492.5,184.5 492.5,184.5 492.5,184.5 493.5,184.5 493.5,184.5 493.5,184.5 
		493.5,184.5 493.5,184.5 493.5,184.5 493.5,185.5 493.5,185.5 493.5,185.5 493.5,185.5 493.5,185.5 493.5,185.5 493.5,185.5 
		494.5,185.5 494.5,185.5 494.5,186.5 494.5,186.5 494.5,186.5 494.5,186.5 494.5,186.5 494.5,186.5 494.5,187.5 494.5,187.5 
		494.5,187.5 494.5,187.5 494.5,187.5 495.5,187.5 495.5,186.5 495.5,186.5 495.5,186.5 495.5,186.5 495.5,186.5 495.5,186.5 
		495.5,185.5 495.5,185.5 495.5,184.5 495.5,184.5 495.5,184.5 495.5,183.5 496.5,183.5 496.5,183.5 496.5,182.5 496.5,182.5 
		496.5,181.5 496.5,181.5 496.5,181.5 496.5,181.5 496.5,180.5 496.5,180.5 496.5,180.5 496.5,180.5 496.5,180.5 497.5,180.5 
		497.5,179.5 497.5,179.5 497.5,179.5 497.5,179.5 497.5,180.5 497.5,180.5 497.5,180.5 497.5,179.5 497.5,179.5 497.5,179.5 
		497.5,178.5 497.5,178.5 498.5,178.5 498.5,178.5 498.5,177.5 498.5,177.5 498.5,177.5 498.5,176.5 498.5,176.5 498.5,176.5 
		498.5,175.5 498.5,175.5 498.5,175.5 498.5,174.5 498.5,174.5 499.5,174.5 499.5,173.5 499.5,173.5 499.5,173.5 499.5,173.5 
		499.5,172.5 499.5,172.5 499.5,172.5 499.5,172.5 499.5,172.5 499.5,172.5 499.5,172.5 499.5,172.5 500.5,172.5 500.5,172.5 
		500.5,172.5 500.5,172.5 500.5,173.5 500.5,173.5 500.5,174.5 500.5,175.5 500.5,176.5 500.5,176.5 500.5,177.5 500.5,177.5 
		500.5,178.5 501.5,178.5 501.5,179.5 501.5,179.5 501.5,180.5 501.5,180.5 501.5,180.5 501.5,180.5 501.5,181.5 501.5,181.5 
		501.5,181.5 501.5,181.5 501.5,181.5 501.5,181.5 502.5,181.5 502.5,181.5 502.5,181.5 502.5,181.5 502.5,181.5 502.5,181.5 
		502.5,181.5 502.5,181.5 502.5,181.5 502.5,181.5 502.5,181.5 502.5,181.5 502.5,182.5 503.5,182.5 503.5,182.5 503.5,182.5 
		503.5,182.5 503.5,182.5 503.5,182.5 503.5,182.5 503.5,182.5 503.5,182.5 503.5,182.5 503.5,182.5 503.5,182.5 503.5,182.5 
		504.5,182.5 504.5,182.5 504.5,182.5 504.5,181.5 504.5,181.5 504.5,181.5 504.5,181.5 504.5,181.5 504.5,181.5 504.5,181.5 
		504.5,181.5 504.5,181.5 504.5,181.5 505.5,181.5 505.5,181.5 505.5,181.5 505.5,181.5 505.5,180.5 505.5,180.5 505.5,180.5 
		505.5,180.5 505.5,180.5 505.5,180.5 505.5,179.5 505.5,179.5 505.5,179.5 506.5,179.5 506.5,179.5 506.5,179.5 506.5,179.5 
		506.5,179.5 506.5,179.5 506.5,179.5 506.5,179.5 506.5,179.5 506.5,179.5 506.5,179.5 506.5,179.5 506.5,179.5 507.5,179.5 
		507.5,179.5 507.5,179.5 507.5,179.5 507.5,179.5 507.5,178.5 507.5,178.5 507.5,179.5 507.5,179.5 507.5,179.5 507.5,179.5 
		507.5,179.5 507.5,179.5 508.5,179.5 508.5,180.5 508.5,180.5 508.5,181.5 508.5,181.5 508.5,182.5 508.5,182.5 508.5,183.5 
		508.5,183.5 508.5,183.5 508.5,183.5 508.5,183.5 508.5,184.5 509.5,183.5 509.5,183.5 509.5,182.5 509.5,182.5 509.5,181.5 
		509.5,181.5 509.5,180.5 509.5,180.5 509.5,179.5 509.5,179.5 509.5,179.5 509.5,179.5 509.5,178.5 510.5,178.5 510.5,178.5 
		510.5,178.5 510.5,178.5 510.5,178.5 510.5,177.5 510.5,178.5 510.5,177.5 510.5,177.5 510.5,177.5 510.5,177.5 510.5,177.5 
		510.5,177.5 511.5,177.5 511.5,177.5 511.5,177.5 511.5,177.5 511.5,177.5 511.5,177.5 511.5,177.5 511.5,177.5 511.5,177.5 
		511.5,177.5 511.5,177.5 511.5,177.5 511.5,177.5 512.5,177.5 512.5,176.5 512.5,176.5 512.5,176.5 512.5,176.5 512.5,176.5 
		512.5,176.5 512.5,176.5 512.5,176.5 512.5,175.5 512.5,175.5 512.5,175.5 512.5,175.5 513.5,175.5 513.5,174.5 513.5,174.5 
		513.5,174.5 513.5,174.5 513.5,174.5 513.5,174.5 513.5,174.5 513.5,174.5 513.5,174.5 513.5,174.5 513.5,173.5 513.5,173.5 
		514.5,174.5 514.5,174.5 514.5,173.5 514.5,173.5 514.5,173.5 514.5,174.5 514.5,174.5 514.5,174.5 514.5,174.5 514.5,174.5 
		514.5,173.5 514.5,173.5 514.5,173.5 515.5,173.5 515.5,173.5 515.5,173.5 515.5,174.5 515.5,174.5 515.5,174.5 515.5,174.5 
		515.5,174.5 515.5,174.5 515.5,174.5 515.5,174.5 515.5,174.5 515.5,174.5 516.5,173.5 516.5,173.5 516.5,174.5 516.5,174.5 
		516.5,174.5 516.5,174.5 516.5,174.5 516.5,174.5 516.5,174.5 516.5,174.5 516.5,174.5 516.5,174.5 516.5,174.5 517.5,174.5 
		517.5,174.5 517.5,174.5 517.5,174.5 517.5,174.5 517.5,174.5 517.5,174.5 517.5,174.5 517.5,174.5 517.5,174.5 517.5,174.5 
		517.5,174.5 517.5,174.5 518.5,174.5 518.5,174.5 518.5,174.5 518.5,174.5 518.5,173.5 518.5,173.5 518.5,173.5 518.5,173.5 
		518.5,172.5 518.5,172.5 518.5,172.5 518.5,172.5 518.5,171.5 519.5,171.5 519.5,171.5 519.5,171.5 519.5,171.5 519.5,171.5 
		519.5,171.5 519.5,170.5 519.5,170.5 519.5,170.5 519.5,170.5 519.5,170.5 519.5,170.5 519.5,170.5 520.5,171.5 520.5,171.5 
		520.5,170.5 520.5,170.5 520.5,170.5 520.5,170.5 520.5,170.5 520.5,170.5 520.5,169.5 520.5,169.5 520.5,169.5 520.5,168.5 
		520.5,168.5 521.5,167.5 521.5,167.5 521.5,167.5 521.5,167.5 521.5,167.5 521.5,167.5 521.5,167.5 521.5,167.5 521.5,167.5 
		521.5,167.5 521.5,167.5 521.5,167.5 521.5,167.5 522.5,167.5 522.5,167.5 522.5,168.5 522.5,168.5 522.5,168.5 522.5,168.5 
		522.5,168.5 522.5,168.5 522.5,168.5 522.5,168.5 522.5,168.5 522.5,168.5 522.5,168.5 523.5,168.5 523.5,168.5 523.5,168.5 
		523.5,168.5 523.5,168.5 523.5,168.5 523.5,168.5 523.5,167.5 523.5,167.5 523.5,167.5 523.5,166.5 523.5,166.5 523.5,166.5 
		524.5,166.5 524.5,166.5 524.5,166.5 524.5,166.5 524.5,167.5 524.5,167.5 524.5,167.5 524.5,167.5 524.5,167.5 524.5,168.5 
		524.5,168.5 524.5,168.5 524.5,168.5 525.5,168.5 525.5,168.5 525.5,168.5 525.5,168.5 525.5,169.5 525.5,169.5 525.5,169.5 
		525.5,169.5 525.5,169.5 525.5,169.5 525.5,169.5 525.5,169.5 525.5,169.5 526.5,169.5 526.5,168.5 526.5,168.5 526.5,168.5 
		526.5,168.5 526.5,168.5 526.5,168.5 526.5,168.5 526.5,167.5 526.5,167.5 526.5,167.5 526.5,166.5 526.5,166.5 527.5,167.5 
		527.5,167.5 527.5,166.5 527.5,166.5 527.5,166.5 527.5,166.5 527.5,166.5 527.5,165.5 527.5,165.5 527.5,165.5 527.5,165.5 
		527.5,165.5 527.5,165.5 528.5,164.5 528.5,164.5 528.5,164.5 528.5,164.5 528.5,164.5 528.5,164.5 528.5,164.5 528.5,164.5 
		528.5,164.5 528.5,164.5 528.5,164.5 528.5,165.5 528.5,165.5 529.5,165.5 529.5,165.5 529.5,165.5 529.5,165.5 529.5,166.5 
		529.5,166.5 529.5,166.5 529.5,166.5 529.5,166.5 529.5,166.5 529.5,166.5 529.5,166.5 529.5,166.5 530.5,166.5 530.5,166.5 
		530.5,166.5 530.5,166.5 530.5,166.5 530.5,166.5 530.5,166.5 530.5,166.5 530.5,166.5 530.5,166.5 530.5,166.5 530.5,166.5 
		530.5,166.5 531.5,166.5 531.5,167.5 531.5,167.5 531.5,167.5 531.5,167.5 531.5,167.5 531.5,167.5 531.5,166.5 531.5,166.5 
		531.5,166.5 531.5,166.5 531.5,166.5 531.5,166.5 532.5,166.5 532.5,165.5 532.5,165.5 532.5,165.5 532.5,165.5 532.5,165.5 
		532.5,165.5 532.5,165.5 532.5,165.5 532.5,165.5 532.5,165.5 532.5,165.5 532.5,165.5 533.5,165.5 533.5,166.5 533.5,166.5 
		533.5,166.5 533.5,166.5 533.5,166.5 533.5,167.5 533.5,167.5 533.5,167.5 533.5,167.5 533.5,167.5 533.5,167.5 533.5,167.5 
		534.5,167.5 534.5,167.5 534.5,168.5 534.5,168.5 534.5,168.5 534.5,168.5 534.5,169.5 534.5,169.5 534.5,169.5 534.5,169.5 
		534.5,169.5 534.5,169.5 534.5,170.5 535.5,170.5 535.5,170.5 535.5,170.5 535.5,170.5 535.5,170.5 535.5,170.5 535.5,170.5 
		535.5,170.5 535.5,170.5 535.5,170.5 535.5,170.5 535.5,170.5 535.5,170.5 536.5,170.5 536.5,170.5 536.5,170.5 536.5,170.5 
		536.5,170.5 536.5,170.5 536.5,169.5 536.5,169.5 536.5,169.5 536.5,169.5 536.5,169.5 536.5,169.5 536.5,169.5 537.5,169.5 
		537.5,169.5 537.5,169.5 537.5,169.5 537.5,169.5 537.5,169.5 537.5,168.5 537.5,168.5 537.5,168.5 537.5,168.5 537.5,168.5 
		537.5,168.5 537.5,168.5 538.5,168.5 538.5,168.5 538.5,168.5 538.5,168.5 538.5,167.5 538.5,167.5 538.5,167.5 538.5,166.5 
		538.5,166.5 538.5,166.5 538.5,165.5 538.5,165.5 538.5,165.5 539.5,165.5 539.5,164.5 539.5,164.5 539.5,164.5 539.5,164.5 
		539.5,164.5 539.5,164.5 539.5,164.5 539.5,164.5 539.5,164.5 539.5,164.5 539.5,164.5 539.5,163.5 540.5,163.5 540.5,163.5 
		540.5,163.5 540.5,163.5 540.5,162.5 540.5,162.5 540.5,162.5 540.5,162.5 540.5,162.5 540.5,162.5 540.5,161.5 540.5,161.5 
		540.5,161.5 541.5,161.5 541.5,161.5 541.5,161.5 541.5,160.5 541.5,160.5 541.5,160.5 541.5,160.5 541.5,160.5 541.5,160.5 
		541.5,160.5 541.5,160.5 541.5,160.5 541.5,160.5 542.5,160.5 542.5,161.5 542.5,161.5 542.5,161.5 542.5,161.5 542.5,161.5 
		542.5,161.5 542.5,161.5 542.5,162.5 542.5,162.5 542.5,162.5 542.5,162.5 542.5,162.5 543.5,162.5 543.5,163.5 543.5,163.5 
		543.5,163.5 543.5,164.5 543.5,164.5 543.5,164.5 543.5,164.5 543.5,164.5 543.5,165.5 543.5,165.5 543.5,165.5 543.5,165.5 
		544.5,165.5 544.5,165.5 544.5,165.5 544.5,166.5 544.5,166.5 544.5,166.5 544.5,166.5 544.5,167.5 544.5,167.5 544.5,167.5 
		544.5,167.5 544.5,167.5 544.5,168.5 545.5,168.5 545.5,168.5 545.5,168.5 545.5,168.5 545.5,168.5 545.5,168.5 545.5,168.5 
		545.5,168.5 545.5,168.5 545.5,168.5 545.5,168.5 545.5,168.5 545.5,168.5 546.5,168.5 546.5,168.5 546.5,168.5 546.5,168.5 
		546.5,168.5 546.5,168.5 546.5,168.5 546.5,168.5 546.5,168.5 546.5,168.5 546.5,168.5 546.5,168.5 546.5,168.5 547.5,168.5 
		547.5,168.5 547.5,168.5 547.5,168.5 547.5,168.5 547.5,167.5 547.5,167.5 547.5,167.5 547.5,167.5 547.5,167.5 547.5,167.5 
		547.5,167.5 547.5,167.5 548.5,167.5 548.5,167.5 548.5,167.5 548.5,167.5 548.5,167.5 548.5,167.5 548.5,166.5 548.5,166.5 
		548.5,166.5 548.5,166.5 548.5,166.5 548.5,166.5 548.5,166.5 549.5,166.5 549.5,166.5 549.5,166.5 549.5,166.5 549.5,166.5 
		549.5,166.5 549.5,166.5 549.5,166.5 549.5,166.5 549.5,166.5 549.5,166.5 549.5,166.5 549.5,166.5 550.5,166.5 550.5,166.5 
		550.5,166.5 550.5,166.5 550.5,166.5 550.5,166.5 550.5,166.5 550.5,166.5 550.5,166.5 550.5,166.5 550.5,166.5 550.5,166.5 
		550.5,166.5 551.5,167.5 551.5,167.5 551.5,167.5 551.5,167.5 551.5,167.5 551.5,167.5 551.5,167.5 551.5,167.5 551.5,167.5 
		551.5,167.5 551.5,167.5 551.5,167.5 551.5,168.5 552.5,168.5 552.5,168.5 552.5,168.5 552.5,168.5 552.5,168.5 552.5,168.5 
		552.5,168.5 552.5,168.5 552.5,169.5 552.5,169.5 552.5,169.5 552.5,169.5 552.5,169.5 553.5,169.5 553.5,169.5 553.5,169.5 
		553.5,169.5 553.5,169.5 553.5,169.5 553.5,169.5 553.5,170.5 553.5,170.5 553.5,170.5 553.5,170.5 553.5,170.5 553.5,170.5 
		554.5,170.5 554.5,170.5 554.5,170.5 554.5,170.5 554.5,170.5 554.5,170.5 554.5,170.5 554.5,170.5 554.5,170.5 554.5,170.5 
		554.5,171.5 554.5,171.5 554.5,171.5 555.5,171.5 555.5,171.5 555.5,170.5 555.5,170.5 555.5,170.5 555.5,170.5 555.5,170.5 
		555.5,170.5 555.5,170.5 555.5,170.5 555.5,170.5 555.5,170.5 555.5,170.5 556.5,170.5 556.5,170.5 556.5,170.5 556.5,170.5 
		556.5,170.5 556.5,170.5 556.5,170.5 556.5,170.5 556.5,170.5 556.5,170.5 556.5,170.5 556.5,170.5 556.5,170.5 557.5,170.5 
		557.5,170.5 557.5,169.5 557.5,169.5 557.5,169.5 557.5,169.5 557.5,169.5 557.5,169.5 557.5,169.5 557.5,168.5 557.5,168.5 
		557.5,168.5 557.5,168.5 558.5,167.5 558.5,167.5 558.5,167.5 558.5,167.5 558.5,167.5 558.5,167.5 558.5,167.5 558.5,167.5 
		558.5,167.5 558.5,167.5 558.5,167.5 558.5,167.5 558.5,167.5 559.5,166.5 559.5,166.5 559.5,166.5 559.5,166.5 559.5,166.5 
		559.5,166.5 559.5,166.5 559.5,166.5 559.5,165.5 559.5,165.5 559.5,165.5 559.5,165.5 559.5,165.5 560.5,165.5 560.5,165.5 
		560.5,164.5 560.5,164.5 560.5,164.5 560.5,164.5 560.5,164.5 560.5,164.5 560.5,164.5 560.5,164.5 560.5,164.5 560.5,164.5 
		560.5,164.5 561.5,164.5 561.5,164.5 561.5,164.5 561.5,163.5 561.5,163.5 561.5,163.5 561.5,163.5 561.5,162.5 561.5,162.5 
		561.5,162.5 561.5,162.5 561.5,161.5 561.5,161.5 562.5,161.5 562.5,161.5 562.5,160.5 562.5,160.5 562.5,160.5 562.5,159.5 
		562.5,159.5 562.5,159.5 562.5,159.5 562.5,158.5 562.5,158.5 562.5,158.5 562.5,157.5 563.5,157.5 563.5,157.5 563.5,157.5 
		563.5,157.5 563.5,156.5 563.5,156.5 563.5,156.5 563.5,156.5 563.5,156.5 563.5,156.5 563.5,156.5 563.5,155.5 563.5,155.5 
		564.5,155.5 564.5,155.5 564.5,155.5 564.5,155.5 564.5,155.5 564.5,155.5 564.5,154.5 564.5,154.5 564.5,154.5 564.5,154.5 
		564.5,154.5 564.5,154.5 564.5,154.5 565.5,154.5 565.5,154.5 565.5,154.5 565.5,154.5 565.5,154.5 565.5,154.5 565.5,154.5 
		565.5,154.5 565.5,155.5 565.5,155.5 565.5,155.5 565.5,155.5 565.5,155.5 566.5,155.5 566.5,155.5 566.5,155.5 566.5,155.5 
		566.5,155.5 566.5,155.5 566.5,155.5 566.5,155.5 566.5,155.5 566.5,155.5 566.5,155.5 566.5,155.5 566.5,155.5 567.5,155.5 
		567.5,155.5 567.5,155.5 567.5,155.5 567.5,156.5 567.5,156.5 567.5,156.5 567.5,156.5 567.5,156.5 567.5,156.5 567.5,156.5 
		567.5,155.5 567.5,155.5 568.5,155.5 568.5,155.5 568.5,155.5 568.5,155.5 568.5,155.5 568.5,155.5 568.5,155.5 568.5,155.5 
		568.5,155.5 568.5,155.5 568.5,155.5 568.5,155.5 568.5,155.5 569.5,155.5 569.5,155.5 569.5,154.5 569.5,154.5 569.5,154.5 
		569.5,154.5 569.5,153.5 569.5,153.5 569.5,152.5 569.5,152.5 569.5,152.5 569.5,151.5 569.5,151.5 569.5,151.5 570.5,150.5 
		570.5,150.5 570.5,149.5 570.5,149.5 570.5,149.5 570.5,148.5 570.5,148.5 570.5,147.5 570.5,147.5 570.5,146.5 570.5,146.5 
		570.5,145.5 570.5,145.5 571.5,145.5 571.5,145.5 571.5,145.5 571.5,144.5 571.5,144.5 571.5,144.5 571.5,144.5 571.5,144.5 
		571.5,143.5 571.5,143.5 571.5,143.5 571.5,143.5 571.5,143.5 572.5,143.5 572.5,143.5 572.5,143.5 572.5,143.5 572.5,143.5 
		572.5,143.5 572.5,143.5 572.5,143.5 572.5,143.5 572.5,143.5 572.5,143.5 572.5,143.5 572.5,143.5 573.5,143.5 573.5,143.5 
		573.5,144.5 573.5,144.5 573.5,144.5 573.5,144.5 573.5,145.5 573.5,145.5 573.5,145.5 573.5,146.5 573.5,146.5 573.5,146.5 
		573.5,146.5 574.5,146.5 574.5,147.5 574.5,147.5 574.5,147.5 574.5,148.5 574.5,148.5 574.5,149.5 574.5,149.5 574.5,149.5 
		574.5,149.5 574.5,150.5 574.5,150.5 574.5,150.5 575.5,150.5 575.5,150.5 575.5,150.5 575.5,150.5 575.5,150.5 575.5,151.5 
		575.5,151.5 575.5,151.5 575.5,151.5 575.5,152.5 575.5,152.5 575.5,152.5 575.5,152.5 576.5,153.5 576.5,153.5 576.5,153.5 
		576.5,153.5 576.5,153.5 576.5,153.5 576.5,153.5 576.5,152.5 576.5,152.5 576.5,152.5 576.5,151.5 576.5,151.5 576.5,151.5 
		577.5,150.5 577.5,150.5 577.5,149.5 577.5,149.5 577.5,148.5 577.5,148.5 577.5,147.5 577.5,147.5 577.5,146.5 577.5,146.5 
		577.5,145.5 577.5,145.5 577.5,145.5 578.5,145.5 578.5,144.5 578.5,144.5 578.5,144.5 578.5,144.5 578.5,143.5 578.5,143.5 
		578.5,143.5 578.5,143.5 578.5,143.5 578.5,143.5 578.5,143.5 578.5,143.5 579.5,143.5 579.5,143.5 579.5,143.5 579.5,144.5 
		579.5,144.5 579.5,144.5 579.5,144.5 579.5,144.5 579.5,144.5 579.5,145.5 579.5,145.5 579.5,145.5 579.5,145.5 580.5,145.5 
		580.5,145.5 580.5,145.5 580.5,145.5 580.5,145.5 580.5,144.5 580.5,144.5 580.5,144.5 580.5,143.5 580.5,143.5 580.5,143.5 
		580.5,142.5 580.5,142.5 581.5,142.5 581.5,141.5 581.5,141.5 581.5,140.5 581.5,140.5 581.5,140.5 581.5,139.5 581.5,139.5 
		581.5,139.5 581.5,138.5 581.5,138.5 581.5,138.5 581.5,137.5 582.5,137.5 582.5,136.5 582.5,136.5 582.5,136.5 582.5,135.5 
		582.5,134.5 582.5,134.5 582.5,134.5 582.5,134.5 582.5,133.5 582.5,133.5 582.5,133.5 582.5,133.5 583.5,132.5 583.5,132.5 
		583.5,132.5 583.5,131.5 583.5,131.5 583.5,131.5 583.5,131.5 583.5,130.5 583.5,130.5 583.5,130.5 583.5,130.5 583.5,130.5 
		583.5,129.5 584.5,129.5 584.5,129.5 584.5,129.5 584.5,129.5 584.5,130.5 584.5,130.5 584.5,130.5 584.5,131.5 584.5,131.5 
		584.5,131.5 584.5,132.5 584.5,132.5 584.5,132.5 585.5,133.5 585.5,134.5 585.5,134.5 585.5,135.5 585.5,135.5 585.5,136.5 
		585.5,136.5 585.5,137.5 585.5,137.5 585.5,137.5 585.5,137.5 585.5,137.5 585.5,137.5 586.5,137.5 586.5,137.5 586.5,136.5 
		586.5,135.5 586.5,135.5 586.5,134.5 586.5,134.5 586.5,133.5 586.5,132.5 586.5,131.5 586.5,131.5 586.5,130.5 586.5,129.5 
		587.5,128.5 587.5,127.5 587.5,126.5 587.5,126.5 587.5,125.5 587.5,124.5 587.5,123.5 587.5,122.5 587.5,122.5 587.5,122.5 
		587.5,121.5 587.5,121.5 587.5,121.5 588.5,121.5 588.5,120.5 588.5,120.5 588.5,120.5 588.5,120.5 588.5,119.5 588.5,119.5 
		588.5,119.5 588.5,119.5 588.5,119.5 588.5,118.5 588.5,117.5 588.5,117.5 589.5,117.5 589.5,116.5 589.5,116.5 589.5,116.5 
		589.5,116.5 589.5,115.5 589.5,115.5 589.5,115.5 589.5,115.5 589.5,114.5 589.5,114.5 589.5,114.5 589.5,114.5 590.5,113.5 
		590.5,113.5 590.5,113.5 590.5,113.5 590.5,113.5 590.5,112.5 590.5,112.5 590.5,112.5 590.5,111.5 590.5,111.5 590.5,111.5 
		590.5,111.5 590.5,110.5 591.5,110.5 591.5,110.5 591.5,110.5 591.5,110.5 591.5,109.5 591.5,109.5 591.5,108.5 591.5,108.5 
		591.5,108.5 591.5,107.5 591.5,107.5 591.5,107.5 591.5,107.5 592.5,106.5 592.5,106.5 592.5,106.5 592.5,106.5 592.5,105.5 
		592.5,105.5 592.5,105.5 592.5,105.5 592.5,104.5 592.5,103.5 592.5,103.5 592.5,102.5 592.5,102.5 593.5,102.5 593.5,102.5 
		593.5,101.5 593.5,101.5 593.5,101.5 593.5,101.5 593.5,101.5 593.5,101.5 593.5,100.5 593.5,100.5 593.5,100.5 593.5,99.5 
		593.5,99.5 594.5,99.5 594.5,99.5 594.5,99.5 594.5,99.5 594.5,99.5 594.5,99.5 594.5,98.5 594.5,98.5 594.5,98.5 594.5,98.5 
		594.5,98.5 594.5,98.5 594.5,99.5 595.5,99.5 595.5,99.5 595.5,99.5 595.5,99.5 595.5,99.5 595.5,99.5 595.5,100.5 595.5,100.5 
		595.5,100.5 595.5,101.5 595.5,101.5 595.5,101.5 595.5,101.5 596.5,102.5 596.5,102.5 596.5,103.5 596.5,103.5 596.5,103.5 
		596.5,104.5 596.5,104.5 596.5,104.5 596.5,105.5 596.5,105.5 596.5,105.5 596.5,105.5 596.5,106.5 597.5,106.5 597.5,107.5 
		597.5,107.5 597.5,108.5 597.5,108.5 597.5,108.5 597.5,108.5 597.5,109.5 597.5,109.5 597.5,109.5 597.5,110.5 597.5,110.5 
		597.5,110.5 598.5,111.5 598.5,111.5 598.5,111.5 598.5,112.5 598.5,112.5 598.5,113.5 598.5,113.5 598.5,113.5 598.5,113.5 
		598.5,113.5 598.5,114.5 598.5,114.5 598.5,114.5 599.5,115.5 599.5,115.5 599.5,115.5 599.5,115.5 599.5,115.5 599.5,115.5 
		599.5,115.5 599.5,115.5 599.5,115.5 599.5,115.5 599.5,115.5 599.5,115.5 599.5,114.5 600.5,114.5 600.5,114.5 600.5,114.5 
		600.5,114.5 600.5,115.5 600.5,115.5 600.5,115.5 600.5,115.5 600.5,115.5 600.5,116.5 600.5,116.5 600.5,116.5 600.5,116.5 
		601.5,116.5 601.5,116.5 601.5,116.5 601.5,116.5 601.5,116.5 601.5,116.5 601.5,116.5 601.5,116.5 601.5,115.5 601.5,115.5 
		601.5,115.5 601.5,115.5 601.5,115.5 602.5,115.5 602.5,115.5 602.5,115.5 602.5,115.5 602.5,115.5 602.5,115.5 602.5,115.5 
		602.5,115.5 602.5,115.5 602.5,115.5 602.5,115.5 602.5,116.5 602.5,116.5 603.5,116.5 603.5,116.5 603.5,116.5 603.5,116.5 
		603.5,116.5 603.5,116.5 603.5,116.5 603.5,116.5 603.5,117.5 603.5,117.5 603.5,117.5 603.5,117.5 603.5,117.5 604.5,117.5 
		604.5,118.5 604.5,118.5 604.5,118.5 604.5,118.5 604.5,119.5 604.5,119.5 604.5,119.5 604.5,119.5 604.5,119.5 604.5,120.5 
		604.5,120.5 604.5,120.5 605.5,121.5 605.5,121.5 605.5,121.5 605.5,122.5 605.5,122.5 605.5,122.5 605.5,123.5 605.5,123.5 
		605.5,123.5 605.5,124.5 605.5,124.5 605.5,124.5 605.5,125.5 606.5,125.5 606.5,125.5 606.5,125.5 606.5,126.5 606.5,126.5 
		606.5,126.5 606.5,127.5 606.5,127.5 606.5,127.5 606.5,127.5 606.5,127.5 606.5,128.5 606.5,128.5 607.5,128.5 607.5,128.5 
		607.5,129.5 607.5,129.5 607.5,129.5 607.5,129.5 607.5,130.5 607.5,130.5 607.5,130.5 607.5,130.5 607.5,130.5 607.5,131.5 
		607.5,131.5 608.5,131.5 608.5,132.5 608.5,132.5 608.5,132.5 608.5,132.5 608.5,132.5 608.5,132.5 608.5,132.5 608.5,133.5 
		608.5,133.5 608.5,133.5 608.5,133.5 608.5,133.5 609.5,133.5 609.5,133.5 609.5,133.5 609.5,133.5 609.5,133.5 609.5,133.5 
		609.5,133.5 609.5,133.5 609.5,133.5 609.5,133.5 609.5,133.5 609.5,133.5 609.5,134.5 610.5,134.5 610.5,134.5 610.5,134.5 
		610.5,134.5 610.5,134.5 610.5,134.5 610.5,134.5 610.5,134.5 610.5,135.5 610.5,135.5 610.5,135.5 610.5,135.5 610.5,135.5 
		611.5,135.5 611.5,135.5 611.5,136.5 611.5,136.5 611.5,136.5 611.5,136.5 611.5,136.5 611.5,136.5 611.5,136.5 611.5,136.5 
		611.5,136.5 611.5,136.5 611.5,137.5 612.5,137.5 612.5,137.5 612.5,137.5 612.5,137.5 612.5,137.5 612.5,137.5 612.5,137.5 
		612.5,137.5 612.5,137.5 612.5,137.5 612.5,137.5 612.5,137.5 612.5,137.5 613.5,137.5 613.5,137.5 613.5,137.5 613.5,137.5 
		613.5,137.5 613.5,137.5 613.5,137.5 613.5,137.5 613.5,137.5 613.5,137.5 613.5,137.5 613.5,137.5 613.5,137.5 614.5,137.5 
		614.5,137.5 614.5,137.5 614.5,137.5 614.5,137.5 614.5,137.5 614.5,137.5 614.5,137.5 614.5,137.5 614.5,137.5 614.5,137.5 
		614.5,137.5 614.5,137.5 615.5,137.5 615.5,137.5 615.5,136.5 615.5,136.5 615.5,136.5 615.5,136.5 615.5,136.5 615.5,136.5 
		615.5,135.5 615.5,135.5 615.5,135.5 615.5,135.5 615.5,135.5 616.5,135.5 616.5,135.5 616.5,135.5 616.5,135.5 616.5,135.5 
		616.5,135.5 616.5,135.5 616.5,135.5 616.5,135.5 616.5,135.5 616.5,135.5 616.5,135.5 616.5,135.5 617.5,135.5 617.5,135.5 
		617.5,135.5 617.5,135.5 617.5,135.5 617.5,135.5 617.5,135.5 617.5,135.5 617.5,135.5 617.5,135.5 617.5,135.5 617.5,135.5 
		617.5,135.5 618.5,135.5 618.5,135.5 618.5,135.5 618.5,135.5 618.5,135.5 618.5,135.5 618.5,135.5 618.5,135.5 618.5,136.5 
		618.5,136.5 618.5,137.5 618.5,137.5 618.5,138.5 619.5,138.5 619.5,139.5 619.5,140.5 619.5,141.5 619.5,142.5 619.5,142.5 
		619.5,142.5 619.5,140.5 619.5,139.5 619.5,137.5 619.5,136.5 619.5,135.5 619.5,134.5 620.5,133.5 620.5,132.5 620.5,132.5 
		620.5,132.5 620.5,131.5 620.5,131.5 620.5,131.5 620.5,130.5 620.5,130.5 620.5,130.5 620.5,130.5 620.5,130.5 620.5,130.5 
		621.5,130.5 621.5,130.5 621.5,130.5 621.5,130.5 621.5,129.5 621.5,129.5 621.5,129.5 621.5,129.5 621.5,128.5 621.5,128.5 
		621.5,128.5 621.5,128.5 621.5,128.5 622.5,128.5 622.5,128.5 622.5,128.5 622.5,128.5 622.5,128.5 622.5,128.5 622.5,128.5 
		622.5,128.5 622.5,128.5 622.5,128.5 622.5,128.5 622.5,129.5 622.5,129.5 623.5,129.5 623.5,129.5 623.5,129.5 623.5,128.5 
		623.5,128.5 623.5,128.5 623.5,128.5 623.5,128.5 623.5,128.5 623.5,128.5 623.5,128.5 623.5,128.5 623.5,128.5 624.5,128.5 
		624.5,128.5 624.5,128.5 624.5,128.5 624.5,128.5 624.5,128.5 624.5,128.5 624.5,127.5 624.5,127.5 624.5,127.5 624.5,127.5 
		624.5,127.5 624.5,127.5 625.5,127.5 625.5,127.5 625.5,127.5 625.5,127.5 625.5,127.5 625.5,127.5 625.5,127.5 625.5,127.5 
		625.5,127.5 625.5,127.5 625.5,127.5 625.5,126.5 625.5,126.5 626.5,126.5 626.5,126.5 626.5,126.5 626.5,126.5 626.5,126.5 
		626.5,125.5 626.5,125.5 626.5,125.5 626.5,125.5 626.5,124.5 626.5,124.5 626.5,124.5 626.5,124.5 627.5,123.5 627.5,123.5 
		627.5,123.5 627.5,123.5 627.5,123.5 627.5,123.5 627.5,123.5 627.5,122.5 627.5,122.5 627.5,122.5 627.5,122.5 627.5,122.5 
		627.5,122.5 628.5,122.5 628.5,122.5 628.5,122.5 628.5,122.5 628.5,123.5 628.5,123.5 628.5,123.5 628.5,123.5 628.5,123.5 
		628.5,123.5 628.5,123.5 628.5,122.5 628.5,122.5 629.5,122.5 629.5,123.5 629.5,123.5 629.5,123.5 629.5,123.5 629.5,123.5 
		629.5,123.5 629.5,123.5 629.5,123.5 629.5,124.5 629.5,124.5 629.5,124.5 629.5,124.5 630.5,124.5 630.5,124.5 630.5,124.5 
		630.5,124.5 630.5,124.5 630.5,124.5 630.5,125.5 630.5,125.5 630.5,125.5 630.5,125.5 630.5,125.5 630.5,125.5 630.5,125.5 
		631.5,125.5 631.5,125.5 631.5,125.5 631.5,125.5 631.5,126.5 631.5,126.5 631.5,126.5 631.5,126.5 631.5,126.5 631.5,126.5 
		631.5,126.5 631.5,126.5 631.5,126.5 632.5,126.5 632.5,126.5 632.5,126.5 632.5,127.5 632.5,127.5 632.5,127.5 632.5,127.5 
		632.5,127.5 632.5,127.5 632.5,127.5 632.5,127.5 632.5,127.5 632.5,127.5 633.5,127.5 633.5,127.5 633.5,127.5 633.5,127.5 
		633.5,127.5 633.5,127.5 633.5,127.5 633.5,127.5 633.5,127.5 633.5,127.5 633.5,127.5 633.5,127.5 633.5,128.5 634.5,128.5 
		634.5,128.5 634.5,128.5 634.5,128.5 634.5,128.5 634.5,128.5 634.5,128.5 634.5,128.5 634.5,128.5 634.5,129.5 634.5,129.5 
		634.5,129.5 634.5,130.5 635.5,130.5 635.5,130.5 635.5,130.5 635.5,130.5 635.5,130.5 635.5,130.5 635.5,130.5 635.5,131.5 
		635.5,131.5 635.5,131.5 635.5,131.5 635.5,130.5 635.5,130.5 636.5,130.5 636.5,130.5 636.5,130.5 636.5,130.5 636.5,130.5 
		636.5,130.5 636.5,130.5 636.5,130.5 636.5,130.5 636.5,130.5 636.5,130.5 636.5,130.5 636.5,130.5 637.5,130.5 637.5,130.5 
		637.5,130.5 637.5,130.5 637.5,130.5 637.5,130.5 637.5,130.5 637.5,130.5 637.5,130.5 637.5,130.5 637.5,131.5 637.5,131.5 
		637.5,131.5 638.5,131.5 638.5,131.5 638.5,131.5 638.5,131.5 638.5,131.5 638.5,131.5 638.5,131.5 638.5,131.5 638.5,131.5 
		638.5,131.5 638.5,131.5 638.5,131.5 638.5,131.5 639.5,131.5 639.5,131.5 639.5,131.5 639.5,131.5 639.5,132.5 639.5,132.5 
		639.5,132.5 639.5,132.5 639.5,132.5 639.5,132.5 639.5,132.5 639.5,132.5 639.5,132.5 640.5,132.5 640.5,132.5 640.5,132.5 
		640.5,132.5 640.5,132.5 640.5,132.5 640.5,132.5 640.5,132.5 640.5,132.5 640.5,132.5 640.5,132.5 640.5,132.5 640.5,132.5 
		641.5,132.5 641.5,132.5 641.5,132.5 641.5,132.5 641.5,132.5 641.5,132.5 641.5,132.5 641.5,132.5 641.5,132.5 641.5,132.5 
		641.5,132.5 641.5,131.5 641.5,131.5 642.5,131.5 642.5,131.5 642.5,131.5 642.5,131.5 642.5,131.5 642.5,131.5 642.5,131.5 
		642.5,131.5 642.5,131.5 642.5,131.5 642.5,131.5 642.5,131.5 642.5,131.5 643.5,131.5 643.5,131.5 643.5,131.5 643.5,131.5 
		643.5,130.5 643.5,130.5 643.5,130.5 643.5,130.5 643.5,130.5 643.5,130.5 643.5,130.5 643.5,130.5 643.5,130.5 644.5,130.5 
		644.5,130.5 644.5,130.5 644.5,130.5 644.5,129.5 644.5,129.5 644.5,129.5 644.5,129.5 644.5,129.5 644.5,128.5 644.5,128.5 
		644.5,128.5 644.5,127.5 645.5,127.5 645.5,127.5 645.5,127.5 645.5,127.5 645.5,127.5 645.5,126.5 645.5,126.5 645.5,125.5 
		645.5,125.5 645.5,125.5 645.5,125.5 645.5,125.5 645.5,124.5 646.5,124.5 646.5,124.5 646.5,123.5 646.5,124.5 646.5,124.5 
		646.5,124.5 646.5,123.5 646.5,123.5 646.5,123.5 646.5,123.5 646.5,123.5 646.5,123.5 646.5,123.5 647.5,123.5 647.5,123.5 
		647.5,123.5 647.5,123.5 647.5,123.5 647.5,123.5 647.5,123.5 647.5,122.5 647.5,122.5 647.5,122.5 647.5,122.5 647.5,122.5 
		647.5,121.5 648.5,121.5 648.5,121.5 648.5,120.5 648.5,119.5 648.5,119.5 648.5,118.5 648.5,118.5 648.5,117.5 648.5,117.5 
		648.5,117.5 648.5,116.5 648.5,116.5 648.5,115.5 649.5,115.5 649.5,115.5 649.5,115.5 649.5,115.5 649.5,114.5 649.5,114.5 
		649.5,114.5 649.5,114.5 649.5,114.5 649.5,114.5 649.5,114.5 649.5,114.5 649.5,113.5 650.5,113.5 650.5,113.5 650.5,113.5 
		650.5,113.5 650.5,113.5 650.5,112.5 650.5,112.5 650.5,113.5 650.5,113.5 650.5,114.5 650.5,114.5 650.5,115.5 650.5,116.5 
		651.5,117.5 651.5,117.5 651.5,118.5 651.5,118.5 651.5,119.5 651.5,120.5 651.5,120.5 651.5,121.5 651.5,121.5 651.5,122.5 
		651.5,122.5 651.5,123.5 651.5,124.5 652.5,124.5 652.5,125.5 652.5,125.5 652.5,125.5 652.5,126.5 652.5,126.5 652.5,127.5 
		652.5,127.5 652.5,128.5 652.5,129.5 652.5,129.5 652.5,130.5 652.5,130.5 653.5,131.5 653.5,131.5 653.5,132.5 653.5,132.5 
		653.5,132.5 653.5,133.5 653.5,133.5 653.5,133.5 653.5,133.5 653.5,133.5 653.5,134.5 653.5,134.5 653.5,134.5 654.5,134.5 
		654.5,134.5 654.5,134.5 654.5,134.5 654.5,134.5 654.5,135.5 654.5,135.5 654.5,135.5 654.5,135.5 654.5,135.5 654.5,135.5 
		654.5,135.5 654.5,136.5 655.5,136.5 655.5,136.5 655.5,136.5 655.5,136.5 655.5,137.5 655.5,137.5 655.5,136.5 655.5,136.5 
		655.5,136.5 655.5,136.5 655.5,136.5 655.5,135.5 655.5,135.5 656.5,135.5 656.5,135.5 656.5,135.5 656.5,135.5 656.5,135.5 
		656.5,135.5 656.5,136.5 656.5,136.5 656.5,136.5 656.5,136.5 656.5,136.5 656.5,136.5 656.5,136.5 657.5,136.5 657.5,136.5 
		657.5,136.5 657.5,136.5 657.5,136.5 657.5,136.5 657.5,136.5 657.5,136.5 657.5,137.5 657.5,137.5 657.5,138.5 657.5,138.5 
		657.5,139.5 658.5,140.5 658.5,140.5 658.5,141.5 658.5,141.5 658.5,141.5 658.5,142.5 658.5,142.5 658.5,143.5 658.5,143.5 
		658.5,143.5 658.5,143.5 658.5,143.5 658.5,143.5 659.5,143.5 659.5,143.5 659.5,143.5 659.5,143.5 659.5,143.5 659.5,143.5 
		659.5,143.5 659.5,143.5 659.5,143.5 659.5,144.5 659.5,144.5 659.5,145.5 659.5,145.5 660.5,146.5 660.5,146.5 660.5,146.5 
		660.5,147.5 660.5,147.5 660.5,147.5 660.5,147.5 660.5,147.5 660.5,148.5 660.5,148.5 660.5,148.5 660.5,148.5 660.5,148.5 
		661.5,148.5 661.5,149.5 661.5,149.5 661.5,149.5 661.5,149.5 661.5,149.5 661.5,149.5 661.5,150.5 661.5,150.5 661.5,150.5 
		661.5,150.5 661.5,150.5 661.5,149.5 662.5,149.5 662.5,149.5 662.5,149.5 662.5,149.5 662.5,148.5 662.5,148.5 662.5,148.5 
		662.5,148.5 662.5,147.5 662.5,147.5 662.5,147.5 662.5,147.5 662.5,147.5 663.5,147.5 663.5,147.5 663.5,147.5 663.5,147.5 
		663.5,147.5 663.5,147.5 663.5,147.5 663.5,147.5 663.5,147.5 663.5,147.5 663.5,147.5 663.5,146.5 663.5,146.5 664.5,146.5 
		664.5,146.5 664.5,145.5 664.5,145.5 664.5,145.5 664.5,145.5 664.5,144.5 664.5,144.5 664.5,144.5 664.5,143.5 664.5,143.5 
		664.5,142.5 664.5,142.5 665.5,142.5 665.5,142.5 665.5,141.5 665.5,141.5 665.5,141.5 665.5,141.5 665.5,141.5 665.5,141.5 
		665.5,141.5 665.5,141.5 665.5,141.5 665.5,141.5 665.5,142.5 666.5,142.5 666.5,142.5 666.5,142.5 666.5,143.5 666.5,143.5 
		666.5,143.5 666.5,143.5 666.5,144.5 666.5,144.5 666.5,144.5 666.5,145.5 666.5,145.5 666.5,146.5 667.5,146.5 667.5,147.5 
		667.5,147.5 667.5,147.5 667.5,148.5 667.5,148.5 667.5,149.5 667.5,149.5 667.5,149.5 667.5,150.5 667.5,150.5 667.5,150.5 
		667.5,151.5 668.5,151.5 668.5,151.5 668.5,152.5 668.5,152.5 668.5,152.5 668.5,153.5 668.5,153.5 668.5,154.5 668.5,154.5 
		668.5,154.5 668.5,155.5 668.5,155.5 668.5,155.5 669.5,155.5 669.5,156.5 669.5,156.5 669.5,156.5 669.5,157.5 669.5,157.5 
		669.5,157.5 669.5,158.5 669.5,158.5 669.5,158.5 669.5,158.5 669.5,159.5 669.5,159.5 670.5,159.5 670.5,159.5 670.5,160.5 
		670.5,160.5 670.5,160.5 670.5,160.5 670.5,161.5 670.5,161.5 670.5,161.5 670.5,161.5 670.5,162.5 670.5,162.5 670.5,162.5 
		671.5,163.5 671.5,163.5 671.5,163.5 671.5,164.5 671.5,164.5 671.5,164.5 671.5,164.5 671.5,165.5 671.5,165.5 671.5,165.5 
		671.5,166.5 671.5,166.5 671.5,166.5 672.5,166.5 672.5,167.5 672.5,167.5 672.5,167.5 672.5,167.5 672.5,168.5 672.5,168.5 
		672.5,168.5 672.5,168.5 672.5,168.5 672.5,169.5 672.5,169.5 672.5,169.5 673.5,169.5 673.5,169.5 673.5,170.5 673.5,170.5 
		673.5,170.5 673.5,170.5 673.5,170.5 673.5,170.5 673.5,170.5 673.5,170.5 673.5,171.5 673.5,171.5 673.5,171.5 674.5,171.5 
		674.5,171.5 674.5,171.5 674.5,171.5 674.5,171.5 674.5,172.5 674.5,172.5 674.5,172.5 674.5,172.5 674.5,172.5 674.5,172.5 
		674.5,172.5 674.5,172.5 675.5,172.5 675.5,172.5 675.5,172.5 675.5,172.5 675.5,172.5 675.5,172.5 675.5,172.5 675.5,172.5 
		675.5,172.5 675.5,172.5 675.5,172.5 675.5,171.5 675.5,171.5 676.5,171.5 676.5,171.5 676.5,171.5 676.5,171.5 676.5,171.5 
		676.5,171.5 676.5,171.5 676.5,171.5 676.5,171.5 676.5,171.5 676.5,171.5 676.5,171.5 676.5,171.5 677.5,171.5 677.5,171.5 
		677.5,171.5 677.5,171.5 677.5,170.5 677.5,170.5 677.5,171.5 677.5,171.5 677.5,170.5 677.5,170.5 677.5,170.5 677.5,170.5 
		677.5,170.5 678.5,170.5 678.5,170.5 678.5,170.5 678.5,170.5 678.5,170.5 678.5,170.5 678.5,169.5 678.5,169.5 678.5,169.5 
		678.5,169.5 678.5,169.5 678.5,169.5 678.5,169.5 679.5,169.5 679.5,169.5 679.5,169.5 679.5,169.5 679.5,169.5 679.5,168.5 
		679.5,168.5 679.5,168.5 679.5,168.5 679.5,167.5 679.5,167.5 679.5,167.5 679.5,166.5 680.5,166.5 680.5,166.5 680.5,166.5 
		680.5,166.5 680.5,166.5 680.5,165.5 680.5,165.5 680.5,165.5 680.5,165.5 680.5,165.5 680.5,164.5 680.5,164.5 680.5,164.5 
		681.5,164.5 681.5,163.5 681.5,163.5 681.5,163.5 681.5,162.5 681.5,162.5 681.5,161.5 681.5,161.5 681.5,161.5 681.5,160.5 
		681.5,160.5 681.5,159.5 681.5,159.5 682.5,159.5 682.5,158.5 682.5,158.5 682.5,157.5 682.5,157.5 682.5,157.5 682.5,156.5 
		682.5,156.5 682.5,156.5 682.5,155.5 682.5,155.5 682.5,155.5 682.5,154.5 683.5,154.5 683.5,154.5 683.5,153.5 683.5,153.5 
		683.5,153.5 683.5,153.5 683.5,153.5 683.5,152.5 683.5,152.5 683.5,152.5 683.5,152.5 683.5,152.5 683.5,152.5 684.5,152.5 
		684.5,151.5 684.5,151.5 684.5,151.5 684.5,151.5 684.5,151.5 684.5,151.5 684.5,151.5 684.5,151.5 684.5,151.5 684.5,151.5 
		684.5,151.5 684.5,151.5 685.5,151.5 685.5,151.5 685.5,151.5 685.5,151.5 685.5,151.5 685.5,151.5 685.5,151.5 685.5,151.5 
		685.5,151.5 685.5,152.5 685.5,152.5 685.5,152.5 685.5,152.5 686.5,152.5 686.5,153.5 686.5,153.5 686.5,153.5 686.5,154.5 
		686.5,154.5 686.5,154.5 686.5,155.5 686.5,155.5 686.5,155.5 686.5,156.5 686.5,156.5 686.5,156.5 687.5,157.5 687.5,157.5 
		687.5,157.5 687.5,157.5 687.5,158.5 687.5,158.5 687.5,158.5 687.5,158.5 687.5,158.5 687.5,158.5 687.5,158.5 687.5,158.5 
		687.5,159.5 688.5,159.5 688.5,159.5 688.5,159.5 688.5,159.5 688.5,159.5 688.5,159.5 688.5,159.5 688.5,159.5 688.5,159.5 
		688.5,159.5 688.5,159.5 688.5,159.5 688.5,160.5 689.5,160.5 689.5,160.5 689.5,160.5 689.5,160.5 689.5,160.5 689.5,160.5 
		689.5,160.5 689.5,160.5 689.5,160.5 689.5,160.5 689.5,159.5 689.5,159.5 689.5,158.5 690.5,159.5 690.5,159.5 690.5,159.5 
		690.5,159.5 690.5,159.5 690.5,159.5 690.5,159.5 690.5,159.5 690.5,159.5 690.5,159.5 690.5,160.5 690.5,160.5 690.5,160.5 
		691.5,160.5 691.5,160.5 691.5,160.5 691.5,160.5 691.5,159.5 691.5,159.5 691.5,160.5 691.5,160.5 691.5,160.5 691.5,161.5 
		691.5,161.5 691.5,161.5 691.5,161.5 692.5,161.5 692.5,161.5 692.5,161.5 692.5,162.5 692.5,162.5 692.5,163.5 692.5,163.5 
		692.5,164.5 692.5,164.5 692.5,164.5 692.5,165.5 692.5,165.5 692.5,165.5 693.5,166.5 693.5,166.5 693.5,166.5 693.5,167.5 
		693.5,167.5 693.5,167.5 693.5,168.5 693.5,168.5 693.5,168.5 693.5,168.5 693.5,169.5 693.5,169.5 693.5,169.5 694.5,169.5 
		694.5,169.5 694.5,170.5 694.5,170.5 694.5,170.5 694.5,170.5 694.5,170.5 694.5,170.5 694.5,170.5 694.5,171.5 694.5,171.5 
		694.5,171.5 694.5,171.5 695.5,171.5 695.5,171.5 695.5,171.5 695.5,172.5 695.5,172.5 695.5,172.5 695.5,172.5 695.5,172.5 
		695.5,172.5 695.5,172.5 695.5,172.5 695.5,172.5 695.5,172.5 696.5,172.5 696.5,172.5 696.5,172.5 696.5,173.5 696.5,173.5 
		696.5,173.5 696.5,173.5 696.5,173.5 696.5,173.5 696.5,173.5 696.5,173.5 696.5,173.5 696.5,173.5 696.5,173.5 697.5,173.5 
		697.5,173.5 697.5,174.5 697.5,174.5 697.5,174.5 697.5,174.5 697.5,174.5 697.5,174.5 697.5,174.5 697.5,174.5 697.5,174.5 
		697.5,174.5 697.5,174.5 698.5,174.5 698.5,174.5 698.5,174.5 698.5,174.5 698.5,174.5 698.5,174.5 698.5,174.5 698.5,174.5 
		698.5,175.5 698.5,175.5 698.5,175.5 698.5,175.5 698.5,175.5 699.5,175.5 699.5,175.5 699.5,175.5 699.5,175.5 699.5,175.5 
		699.5,175.5 699.5,175.5 699.5,175.5 699.5,175.5 699.5,175.5 699.5,175.5 699.5,175.5 699.5,175.5 700.5,175.5 700.5,176.5 
		700.5,176.5 700.5,176.5 700.5,176.5 700.5,176.5 700.5,176.5 700.5,176.5 700.5,176.5 700.5,176.5 700.5,176.5 700.5,176.5 
		700.5,176.5 701.5,176.5 701.5,176.5 701.5,176.5 701.5,176.5 701.5,176.5 701.5,177.5 701.5,177.5 701.5,177.5 701.5,177.5 
		701.5,177.5 701.5,177.5 701.5,177.5 701.5,177.5 702.5,177.5 702.5,177.5 702.5,177.5 702.5,178.5 702.5,178.5 702.5,178.5 
		702.5,178.5 702.5,178.5 702.5,178.5 702.5,178.5 702.5,179.5 702.5,179.5 702.5,179.5 703.5,179.5 703.5,179.5 703.5,179.5 
		703.5,179.5 703.5,179.5 703.5,179.5 703.5,179.5 703.5,180.5 703.5,180.5 703.5,180.5 703.5,180.5 703.5,180.5 703.5,180.5 
		704.5,180.5 704.5,180.5 704.5,180.5 704.5,180.5 704.5,180.5 704.5,180.5 704.5,180.5 704.5,180.5 704.5,180.5 704.5,180.5 
		704.5,180.5 704.5,180.5 704.5,181.5 705.5,181.5 705.5,181.5 705.5,181.5 705.5,181.5 705.5,181.5 705.5,181.5 705.5,181.5 
		705.5,181.5 705.5,181.5 705.5,181.5 705.5,182.5 705.5,182.5 705.5,182.5 706.5,182.5 706.5,182.5 706.5,182.5 706.5,182.5 
		706.5,183.5 706.5,183.5 706.5,183.5 706.5,183.5 706.5,183.5 706.5,183.5 706.5,183.5 706.5,183.5 706.5,183.5 707.5,183.5 
		707.5,184.5 707.5,184.5 707.5,184.5 707.5,184.5 707.5,184.5 707.5,184.5 707.5,184.5 707.5,184.5 707.5,184.5 707.5,185.5 
		707.5,185.5 707.5,185.5 708.5,185.5 708.5,185.5 708.5,185.5 708.5,185.5 708.5,185.5 708.5,185.5 708.5,186.5 708.5,186.5 
		708.5,186.5 708.5,186.5 708.5,186.5 708.5,186.5 708.5,186.5 709.5,186.5 709.5,186.5 709.5,186.5 709.5,186.5 709.5,186.5 
		709.5,186.5 709.5,186.5 709.5,186.5 709.5,186.5 709.5,186.5 709.5,186.5 	"/>
</g>
</svg>
