<?xml version="1.0" encoding="UTF-8" standalone="no"?><svg width="282.222mm" height="141.111mm" xmlns="http://www.w3.org/2000/svg" xmlns:xlink="http://www.w3.org/1999/xlink"  version="1.2" baseProfile="tiny"><g fill="none" stroke="#ff0000" stroke-linecap="round" stroke-linejoin="round" stroke-opacity="1" stroke-width="1.5" transform="matrix(1,0,0,1,0,0)">
<polyline fill="none" points="144,323 144,323 144,323 144,323 144,323 144,323 144,323 144,323 144,323 145,323 145,323 145,324 145,324 145,324 145,324 145,324 145,324 145,324 145,324 145,324 145,324 145,324 146,324 146,324 146,324 146,324 146,324 146,324 146,324 146,324 146,324 146,324 146,324 146,324 146,324 147,324 147,324 147,324 147,324 147,324 147,324 147,324 147,324 147,324 147,324 147,324 147,324 147,324 148,324 148,324 148,324 148,324 148,323 148,323 148,323 148,323 148,323 148,323 148,323 148,323 148,323 149,322 149,322 149,322 149,322 149,322 149,322 149,322 149,323 149,323 149,323 149,323 149,323 149,323 150,323 150,323 150,322 150,322 150,322 150,322 150,322 150,322 150,323 150,323 150,323 150,322 150,322 151,322 151,322 151,322 151,322 151,321 151,321 151,321 151,321 151,321 151,322 151,322 151,322 151,322 152,322 152,321 152,322 152,322 152,322 152,322 152,322 152,322 152,321 152,321 152,321 152,321 152,320 153,320 153,320 153,320 153,320 153,320 153,320 153,320 153,319 153,319 153,319 153,319 153,319 153,319 154,319 154,319 154,319 154,319 154,319 154,319 154,319 154,318 154,318 154,318 154,318 154,318 154,318 155,318 155,318 155,317 155,317 155,317 155,317 155,317 155,316 155,316 155,316 155,316 155,316 155,316 156,316 156,316 156,316 156,316 156,316 156,316 156,316 156,316 156,316 156,316 156,316 156,316 156,316 157,316 157,316 157,316 157,316 157,316 157,316 157,316 157,316 157,316 157,316 157,316 157,316 157,316 158,316 158,316 158,316 158,316 158,316 158,316 158,316 158,316 158,316 158,316 158,316 158,316 158,316 159,316 159,316 159,316 159,316 159,316 159,316 159,316 159,316 159,316 159,316 159,316 159,317 159,317 160,317 160,317 160,317 160,317 160,318 160,317 160,317 160,317 160,317 160,317 160,317 160,317 160,317 161,318 161,318 161,319 161,319 161,319 161,319 161,319 161,319 161,319 161,319 161,319 161,319 161,320 162,320 162,320 162,321 162,321 162,321 162,321 162,321 162,322 162,322 162,323 162,323 162,323 162,324 163,324 163,324 163,324 163,324 163,324 163,325 163,325 163,325 163,325 163,325 163,325 163,325 163,325 164,326 164,326 164,327 164,327 164,327 164,327 164,327 164,326 164,326 164,326 164,326 164,326 164,326 165,327 165,327 165,327 165,327 165,327 165,327 165,327 165,327 165,327 165,327 165,327 165,327 165,326 166,326 166,326 166,326 166,326 166,326 166,326 166,326 166,326 166,326 166,327 166,327 166,327 166,326 167,326 167,326 167,326 167,325 167,325 167,325 167,325 167,325 167,325 167,325 167,325 167,325 167,325 168,325 168,325 168,325 168,325 168,325 168,325 168,325 168,325 168,324 168,325 168,325 168,325 168,325 169,325 169,325 169,325 169,325 169,325 169,325 169,325 169,325 169,325 169,325 169,325 169,326 169,326 170,326 170,326 170,326 170,326 170,326 170,327 170,327 170,327 170,327 170,327 170,328 170,328 170,328 171,328 171,328 171,329 171,329 171,329 171,329 171,329 171,329 171,329 171,329 171,329 171,329 171,329 172,329 172,328 172,328 172,328 172,328 172,328 172,328 172,328 172,328 172,327 172,327 172,327 172,327 173,327 173,327 173,327 173,327 173,327 173,327 173,327 173,327 173,327 173,327 173,327 173,326 173,326 174,326 174,325 174,325 174,325 174,325 174,325 174,325 174,325 174,325 174,326 174,325 174,325 174,325 175,325 175,325 175,325 175,325 175,325 175,325 175,325 175,325 175,325 175,325 175,325 175,325 175,325 176,325 176,325 176,325 176,324 176,324 176,324 176,324 176,324 176,324 176,324 176,325 176,325 176,325 177,325 177,325 177,325 177,325 177,325 177,324 177,324 177,324 177,324 177,324 177,324 177,324 177,324 178,324 178,324 178,324 178,324 178,324 178,324 178,324 178,323 178,323 178,323 178,323 178,323 178,323 179,323 179,323 179,323 179,323 179,323 179,323 179,323 179,323 179,323 179,323 179,323 179,323 179,323 180,322 180,322 180,322 180,322 180,322 180,322 180,322 180,322 180,322 180,322 180,322 180,322 180,322 181,322 181,322 181,322 181,322 181,322 181,322 181,322 181,322 181,322 181,322 181,322 181,322 181,321 182,321 182,321 182,321 182,321 182,321 182,321 182,321 182,321 182,321 182,320 182,320 182,321 182,321 183,321 183,321 183,320 183,320 183,320 183,320 183,320 183,320 183,320 183,320 183,320 183,320 183,320 184,320 184,320 184,320 184,320 184,319 184,319 184,319 184,319 184,319 184,319 184,319 184,318 184,318 185,318 185,318 185,318 185,318 185,318 185,318 185,317 185,317 185,317 185,317 185,317 185,317 185,317 186,317 186,316 186,316 186,316 186,316 186,316 186,316 186,316 186,316 186,316 186,316 186,316 186,316 187,316 187,315 187,315 187,315 187,315 187,315 187,315 187,315 187,315 187,315 187,315 187,316 187,316 188,316 188,316 188,317 188,317 188,317 188,317 188,317 188,317 188,318 188,318 188,318 188,318 188,318 189,318 189,318 189,317 189,317 189,317 189,317 189,317 189,317 189,317 189,317 189,317 189,317 189,316 190,316 190,316 190,316 190,316 190,315 190,315 190,315 190,315 190,316 190,315 190,315 190,315 190,315 191,315 191,315 191,315 191,315 191,315 191,315 191,315 191,315 191,315 191,315 191,315 191,315 191,315 192,315 192,315 192,315 192,315 192,315 192,315 192,314 192,314 192,314 192,314 192,314 192,314 192,314 193,314 193,314 193,314 193,314 193,314 193,314 193,314 193,314 193,314 193,314 193,314 193,314 193,314 194,314 194,314 194,314 194,314 194,314 194,314 194,314 194,314 194,314 194,314 194,314 194,314 194,314 195,314 195,313 195,313 195,313 195,313 195,313 195,313 195,313 195,313 195,312 195,312 195,312 195,312 196,312 196,312 196,312 196,311 196,311 196,311 196,311 196,311 196,311 196,311 196,311 196,311 196,311 197,311 197,311 197,311 197,311 197,310 197,310 197,310 197,310 197,310 197,310 197,310 197,310 197,310 198,310 198,310 198,310 198,309 198,309 198,309 198,309 198,309 198,309 198,309 198,309 198,309 198,309 199,309 199,309 199,309 199,309 199,309 199,309 199,309 199,309 199,308 199,308 199,308 199,308 199,308 200,308 200,308 200,309 200,309 200,309 200,309 200,309 200,309 200,308 200,308 200,308 200,308 200,308 201,308 201,308 201,308 201,308 201,308 201,308 201,308 201,307 201,307 201,307 201,307 201,307 201,307 202,307 202,307 202,307 202,307 202,307 202,306 202,306 202,306 202,306 202,306 202,306 202,306 202,306 203,306 203,306 203,306 203,306 203,306 203,306 203,306 203,306 203,306 203,306 203,306 203,306 203,306 204,306 204,306 204,306 204,305 204,305 204,305 204,305 204,305 204,305 204,305 204,305 204,304 204,304 205,305 205,305 205,305 205,305 205,304 205,304 205,304 205,304 205,304 205,304 205,304 205,304 205,304 206,304 206,304 206,304 206,304 206,304 206,303 206,303 206,303 206,303 206,303 206,303 206,303 206,303 207,303 207,303 207,302 207,302 207,302 207,302 207,302 207,302 207,302 207,302 207,302 207,302 207,301 208,301 208,301 208,301 208,301 208,301 208,301 208,301 208,301 208,300 208,300 208,300 208,300 208,300 209,300 209,299 209,299 209,299 209,299 209,299 209,299 209,299 209,298 209,298 209,298 209,298 209,298 210,298 210,298 210,298 210,298 210,298 210,298 210,298 210,298 210,298 210,297 210,297 210,297 210,297 211,297 211,297 211,297 211,297 211,296 211,296 211,296 211,296 211,296 211,296 211,296 211,296 211,296 212,296 212,296 212,296 212,296 212,296 212,296 212,296 212,295 212,295 212,295 212,295 212,295 212,295 213,295 213,295 213,295 213,295 213,295 213,294 213,294 213,294 213,294 213,294 213,294 213,294 213,294 214,294 214,294 214,293 214,293 214,293 214,293 214,293 214,293 214,293 214,293 214,293 214,293 214,293 215,293 215,292 215,292 215,292 215,292 215,292 215,292 215,292 215,292 215,292 215,292 215,292 215,291 216,291 216,291 216,291 216,291 216,291 216,291 216,291 216,291 216,291 216,290 216,290 216,290 216,290 217,290 217,290 217,290 217,290 217,289 217,289 217,289 217,289 217,289 217,289 217,288 217,288 217,288 218,288 218,288 218,288 218,288 218,289 218,288 218,288 218,288 218,288 218,288 218,288 218,288 218,288 219,288 219,289 219,289 219,289 219,289 219,289 219,289 219,289 219,290 219,290 219,290 219,290 219,290 220,289 220,289 220,289 220,288 220,288 220,288 220,288 220,288 220,288 220,288 220,288 220,288 220,287 221,287 221,287 221,287 221,287 221,287 221,286 221,286 221,286 221,286 221,286 221,285 221,285 221,285 222,285 222,284 222,284 222,284 222,284 222,284 222,284 222,284 222,284 222,284 222,284 222,284 222,283 223,283 223,283 223,283 223,283 223,283 223,283 223,282 223,282 223,282 223,282 223,282 223,282 223,282 224,282 224,282 224,282 224,281 224,281 224,281 224,281 224,281 224,281 224,281 224,281 224,280 224,280 225,280 225,280 225,280 225,280 225,280 225,280 225,280 225,280 225,279 225,279 225,279 225,279 225,279 226,279 226,279 226,279 226,279 226,279 226,279 226,279 226,279 226,279 226,279 226,279 226,278 226,278 227,278 227,278 227,278 227,278 227,278 227,278 227,278 227,278 227,278 227,278 227,278 227,278 227,278 228,278 228,278 228,278 228,277 228,277 228,277 228,278 228,278 228,278 228,278 228,278 228,278 228,278 229,277 229,277 229,277 229,277 229,276 229,276 229,275 229,275 229,275 229,275 229,274 229,274 229,274 230,274 230,274 230,274 230,274 230,274 230,274 230,274 230,273 230,273 230,272 230,272 230,272 230,271 231,271 231,271 231,271 231,271 231,271 231,270 231,270 231,270 231,270 231,270 231,270 231,269 231,269 232,268 232,268 232,268 232,268 232,268 232,268 232,267 232,267 232,267 232,267 232,267 232,267 232,267 233,267 233,267 233,267 233,267 233,267 233,266 233,266 233,266 233,266 233,265 233,265 233,265 233,265 234,266 234,266 234,265 234,265 234,265 234,265 234,265 234,265 234,264 234,264 234,264 234,264 234,264 235,264 235,264 235,264 235,263 235,263 235,263 235,263 235,263 235,263 235,263 235,263 235,263 235,263 236,262 236,262 236,262 236,262 236,261 236,261 236,261 236,261 236,261 236,261 236,260 236,260 236,260 237,260 237,260 237,259 237,259 237,259 237,259 237,259 237,259 237,258 237,258 237,258 237,257 237,257 238,257 238,257 238,256 238,256 238,256 238,256 238,255 238,255 238,254 238,254 238,253 238,252 238,251 239,251 239,250 239,249 239,248 239,248 239,247 239,247 239,247 239,247 239,247 239,247 239,247 239,247 240,246 240,246 240,246 240,245 240,245 240,244 240,244 240,243 240,242 240,242 240,241 240,241 240,240 241,239 241,239 241,238 241,238 241,237 241,237 241,237 241,236 241,236 241,236 241,235 241,235 241,235 242,235 242,234 242,234 242,234 242,234 242,234 242,233 242,233 242,232 242,232 242,232 242,231 242,230 243,230 243,229 243,228 243,227 243,226 243,226 243,225 243,223 243,222 243,221 243,219 243,218 243,216 244,215 244,215 244,215 244,215 244,215 244,214 244,214 244,214 244,214 244,213 244,213 244,213 244,212 245,212 245,212 245,212 245,212 245,212 245,211 245,211 245,211 245,211 245,211 245,211 245,211 245,210 246,210 246,210 246,209 246,209 246,209 246,209 246,208 246,208 246,208 246,208 246,209 246,209 246,209 247,209 247,209 247,209 247,209 247,209 247,208 247,208 247,209 247,208 247,208 247,208 247,208 247,209 248,210 248,212 248,213 248,214 248,216 248,218 248,220 248,221 248,223 248,225 248,227 248,228 248,229 249,230 249,231 249,233 249,234 249,234 249,235 249,236 249,236 249,236 249,237 249,237 249,237 249,236 250,235 250,236 250,236 250,236 250,236 250,236 250,236 250,236 250,236 250,236 250,236 250,235 250,235 251,235 251,234 251,234 251,234 251,234 251,234 251,233 251,233 251,233 251,232 251,231 251,230 251,229 252,228 252,227 252,226 252,225 252,224 252,222 252,222 252,221 252,220 252,219 252,219 252,218 252,217 253,217 253,217 253,216 253,216 253,216 253,215 253,215 253,215 253,216 253,215 253,215 253,215 253,215 254,215 254,215 254,215 254,215 254,215 254,215 254,215 254,214 254,214 254,214 254,214 254,213 254,213 255,213 255,212 255,213 255,213 255,213 255,213 255,213 255,212 255,212 255,213 255,212 255,212 255,212 256,212 256,211 256,211 256,211 256,211 256,211 256,211 256,211 256,211 256,211 256,211 256,211 256,211 257,211 257,211 257,210 257,210 257,209 257,208 257,207 257,206 257,206 257,205 257,204 257,203 257,202 258,201 258,200 258,199 258,198 258,197 258,196 258,195 258,194 258,193 258,193 258,192 258,191 258,190 259,189 259,189 259,188 259,187 259,187 259,186 259,185 259,185 259,184 259,183 259,183 259,182 259,182 260,181 260,180 260,180 260,179 260,178 260,177 260,176 260,175 260,175 260,175 260,174 260,173 260,172 261,172 261,171 261,170 261,170 261,169 261,168 261,167 261,167 261,166 261,165 261,164 261,164 261,163 262,163 262,162 262,162 262,161 262,161 262,161 262,160 262,160 262,159 262,159 262,158 262,158 262,158 263,157 263,157 263,157 263,157 263,156 263,156 263,156 263,156 263,156 263,156 263,156 263,155 263,155 264,155 264,155 264,155 264,155 264,155 264,155 264,155 264,155 264,155 264,155 264,156 264,156 264,156 265,156 265,157 265,157 265,157 265,157 265,157 265,157 265,157 265,156 265,156 265,156 265,155 265,155 266,155 266,154 266,154 266,154 266,154 266,154 266,154 266,154 266,154 266,154 266,154 266,154 266,154 267,154 267,154 267,154 267,155 267,155 267,155 267,155 267,155 267,156 267,156 267,156 267,156 267,157 268,157 268,157 268,157 268,157 268,158 268,158 268,158 268,158 268,158 268,159 268,159 268,159 268,159 269,160 269,160 269,161 269,161 269,161 269,161 269,162 269,162 269,162 269,162 269,162 269,162 269,162 270,162 270,162 270,162 270,162 270,162 270,163 270,163 270,162 270,162 270,162 270,162 270,162 270,162 271,162 271,162 271,162 271,162 271,162 271,162 271,162 271,163 271,163 271,163 271,162 271,162 271,162 272,162 272,162 272,162 272,162 272,162 272,161 272,161 272,161 272,161 272,161 272,161 272,161 272,161 273,162 273,162 273,163 273,163 273,164 273,165 273,165 273,166 273,166 273,167 273,168 273,168 273,169 274,169 274,170 274,170 274,171 274,171 274,172 274,172 274,173 274,173 274,174 274,174 274,174 274,175 275,175 275,175 275,176 275,176 275,176 275,177 275,177 275,177 275,178 275,178 275,179 275,179 275,179 276,180 276,180 276,180 276,181 276,181 276,181 276,181 276,181 276,181 276,181 276,181 276,180 276,180 277,179 277,179 277,178 277,178 277,177 277,176 277,176 277,175 277,175 277,174 277,174 277,173 277,173 278,172 278,172 278,172 278,172 278,172 278,172 278,172 278,172 278,172 278,172 278,172 278,172 278,172 279,172 279,172 279,172 279,172 279,172 279,172 279,173 279,173 279,173 279,174 279,174 279,174 279,175 280,175 280,175 280,175 280,176 280,176 280,176 280,177 280,177 280,177 280,178 280,178 280,178 280,179 281,179 281,179 281,179 281,180 281,179 281,179 281,179 281,179 281,179 281,179 281,179 281,178 281,178 282,178 282,177 282,177 282,177 282,176 282,176 282,175 282,175 282,175 282,174 282,174 282,174 282,173 283,173 283,172 283,172 283,172 283,171 283,171 283,171 283,170 283,170 283,170 283,169 283,169 283,169 284,168 284,168 284,168 284,168 284,167 284,167 284,166 284,166 284,166 284,166 284,166 284,166 284,166 285,165 285,165 285,165 285,164 285,164 285,164 285,164 285,164 285,164 285,163 285,163 285,163 285,163 286,162 286,162 286,162 286,161 286,161 286,161 286,160 286,160 286,159 286,159 286,159 286,158 286,158 287,158 287,158 287,158 287,157 287,157 287,157 287,157 287,157 287,157 287,157 287,157 287,157 287,157 288,157 288,157 288,157 288,157 288,157 288,157 288,157 288,157 288,157 288,157 288,157 288,157 288,157 289,157 289,157 289,157 289,157 289,157 289,158 289,158 289,158 289,158 289,158 289,158 289,159 289,159 290,159 290,159 290,160 290,160 290,160 290,160 290,161 290,161 290,161 290,161 290,161 290,162 290,162 291,162 291,162 291,163 291,163 291,163 291,163 291,164 291,164 291,164 291,164 291,164 291,165 291,165 292,165 292,166 292,166 292,167 292,167 292,167 292,168 292,168 292,168 292,169 292,169 292,169 292,169 293,170 293,170 293,170 293,170 293,171 293,171 293,171 293,171 293,172 293,172 293,173 293,173 293,173 294,174 294,174 294,175 294,176 294,176 294,176 294,176 294,177 294,177 294,178 294,178 294,178 294,179 295,179 295,179 295,179 295,179 295,179 295,179 295,178 295,178 295,178 295,178 295,178 295,178 295,178 296,177 296,177 296,177 296,176 296,176 296,176 296,175 296,175 296,175 296,174 296,174 296,174 296,173 297,173 297,173 297,173 297,172 297,172 297,172 297,171 297,171 297,171 297,170 297,170 297,170 297,170 298,169 298,169 298,169 298,169 298,168 298,168 298,168 298,168 298,167 298,167 298,167 298,166 298,166 299,166 299,166 299,166 299,165 299,165 299,165 299,165 299,165 299,165 299,165 299,166 299,166 299,166 300,166 300,166 300,166 300,166 300,166 300,166 300,166 300,166 300,166 300,166 300,167 300,167 300,167 301,168 301,168 301,168 301,169 301,169 301,169 301,170 301,170 301,170 301,170 301,171 301,171 301,171 302,171 302,172 302,172 302,172 302,173 302,173 302,173 302,174 302,174 302,174 302,175 302,175 302,175 303,175 303,176 303,176 303,176 303,176 303,176 303,176 303,176 303,176 303,176 303,176 303,177 303,177 304,176 304,176 304,176 304,176 304,176 304,176 304,176 304,176 304,176 304,176 304,175 304,175 304,175 305,175 305,175 305,174 305,174 305,174 305,174 305,174 305,173 305,173 305,173 305,173 305,172 305,172 306,172 306,171 306,171 306,171 306,170 306,170 306,170 306,170 306,170 306,170 306,170 306,169 306,169 307,169 307,169 307,168 307,168 307,168 307,168 307,168 307,167 307,167 307,167 307,167 307,167 307,166 308,166 308,166 308,165 308,165 308,165 308,164 308,164 308,164 308,163 308,163 308,163 308,163 308,162 309,162 309,163 309,163 309,163 309,163 309,163 309,163 309,163 309,163 309,163 309,163 309,163 309,163 310,163 310,163 310,163 310,164 310,164 310,163 310,163 310,164 310,164 310,165 310,165 310,166 310,166 311,167 311,167 311,168 311,168 311,168 311,169 311,169 311,170 311,170 311,171 311,171 311,171 311,172 312,172 312,172 312,173 312,173 312,173 312,174 312,174 312,174 312,174 312,175 312,175 312,175 312,175 313,175 313,176 313,176 313,176 313,176 313,176 313,176 313,176 313,176 313,176 313,177 313,177 313,177 314,177 314,177 314,177 314,177 314,177 314,178 314,178 314,178 314,178 314,178 314,179 314,179 314,179 315,179 315,180 315,180 315,180 315,181 315,181 315,181 315,181 315,181 315,181 315,181 315,182 315,182 316,182 316,182 316,182 316,183 316,183 316,183 316,183 316,183 316,183 316,183 316,183 316,183 316,183 317,183 317,183 317,183 317,183 317,183 317,183 317,183 317,183 317,183 317,184 317,184 317,184 317,184 318,184 318,184 318,184 318,184 318,185 318,185 318,185 318,185 318,185 318,185 318,185 318,185 318,185 319,185 319,185 319,185 319,185 319,185 319,185 319,185 319,185 319,185 319,184 319,184 319,184 319,183 320,183 320,183 320,183 320,182 320,182 320,182 320,182 320,181 320,181 320,181 320,181 320,181 320,180 321,180 321,180 321,180 321,179 321,179 321,179 321,179 321,179 321,179 321,179 321,179 321,179 321,179 322,179 322,179 322,179 322,179 322,179 322,179 322,179 322,179 322,179 322,179 322,179 322,178 322,178 322,178 323,178 323,178 323,178 323,178 323,177 323,177 323,177 323,177 323,177 323,177 323,177 323,176 323,176 324,176 324,175 324,175 324,175 324,175 324,175 324,174 324,174 324,174 324,174 324,174 324,174 324,173 325,173 325,173 325,173 325,172 325,172 325,172 325,172 325,171 325,171 325,171 325,171 325,171 325,170 326,170 326,170 326,170 326,170 326,169 326,169 326,169 326,169 326,169 326,168 326,168 326,168 326,168 327,168 327,168 327,168 327,167 327,167 327,167 327,167 327,167 327,166 327,166 327,166 327,165 327,165 328,165 328,164 328,164 328,164 328,164 328,163 328,163 328,163 328,162 328,162 328,162 328,162 328,162 329,161 329,161 329,161 329,161 329,161 329,160 329,160 329,160 329,160 329,160 329,159 329,159 329,159 330,159 330,159 330,159 330,158 330,158 330,158 330,158 330,158 330,158 330,158 330,158 330,159 330,159 331,159 331,160 331,160 331,161 331,161 331,162 331,162 331,162 331,163 331,163 331,163 331,163 331,164 332,164 332,164 332,164 332,164 332,164 332,164 332,165 332,165 332,165 332,166 332,166 332,167 332,167 333,167 333,168 333,168 333,168 333,168 333,169 333,169 333,169 333,169 333,169 333,170 333,170 333,170 334,171 334,171 334,172 334,172 334,172 334,172 334,172 334,172 334,173 334,173 334,173 334,173 334,173 335,174 335,174 335,174 335,176 335,176 335,176 335,177 335,177 335,178 335,178 335,179 335,179 335,180 336,180 336,180 336,181 336,181 336,182 336,182 336,183 336,183 336,184 336,184 336,185 336,185 336,186 337,186 337,187 337,187 337,188 337,188 337,189 337,190 337,191 337,192 337,193 337,194 337,194 337,195 338,195 338,195 338,196 338,196 338,196 338,196 338,197 338,197 338,197 338,198 338,198 338,198 338,198 339,198 339,198 339,198 339,198 339,199 339,199 339,198 339,198 339,198 339,199 339,199 339,199 339,199 340,200 340,200 340,200 340,201 340,201 340,200 340,200 340,200 340,200 340,200 340,200 340,200 340,201 341,201 341,202 341,202 341,201 341,201 341,201 341,201 341,201 341,201 341,201 341,201 341,201 341,201 342,201 342,201 342,201 342,202 342,201 342,201 342,202 342,202 342,202 342,202 342,202 342,202 342,202 343,202 343,203 343,203 343,203 343,204 343,204 343,205 343,205 343,206 343,206 343,207 343,207 343,208 344,208 344,209 344,209 344,210 344,210 344,210 344,211 344,211 344,211 344,212 344,212 344,212 344,212 345,213 345,213 345,213 345,213 345,213 345,213 345,214 345,214 345,215 345,216 345,217 345,217 345,218 346,218 346,219 346,219 346,219 346,221 346,222 346,223 346,225 346,225 346,226 346,227 346,228 346,229 347,229 347,230 347,231 347,232 347,232 347,232 347,232 347,232 347,232 347,232 347,232 347,232 347,232 348,232 348,232 348,232 348,232 348,231 348,230 348,229 348,228 348,227 348,226 348,224 348,223 348,223 349,223 349,222 349,222 349,222 349,222 349,222 349,222 349,222 349,222 349,222 349,222 349,222 349,222 350,222 350,222 350,222 350,222 350,222 350,222 350,222 350,222 350,223 350,223 350,224 350,224 350,224 351,225 351,225 351,225 351,224 351,224 351,223 351,223 351,222 351,222 351,222 351,222 351,222 351,222 352,221 352,221 352,221 352,221 352,221 352,221 352,221 352,221 352,221 352,221 352,221 352,221 352,221 353,223 353,223 353,223 353,223 353,223 353,223 353,223 353,223 353,223 353,223 353,223 353,223 353,222 354,222 354,222 354,222 354,222 354,222 354,222 354,222 354,222 354,222 354,222 354,222 354,222 354,222 355,222 355,222 355,222 355,222 355,222 355,221 355,221 355,220 355,220 355,220 355,220 355,220 355,219 356,219 356,219 356,219 356,219 356,218 356,218 356,218 356,217 356,217 356,216 356,216 356,216 356,215 357,215 357,215 357,214 357,214 357,214 357,213 357,213 357,213 357,213 357,212 357,212 357,211 357,211 358,211 358,210 358,210 358,209 358,209 358,209 358,208 358,208 358,208 358,207 358,207 358,207 358,207 359,207 359,207 359,207 359,207 359,207 359,207 359,207 359,207 359,207 359,207 359,207 359,207 359,207 360,207 360,207 360,207 360,207 360,207 360,207 360,207 360,207 360,207 360,207 360,208 360,208 360,208 361,208 361,209 361,209 361,209 361,209 361,209 361,209 361,209 361,209 361,209 361,209 361,210 361,210 362,210 362,210 362,210 362,210 362,210 362,210 362,210 362,210 362,210 362,210 362,210 362,210 362,210 363,210 363,209 363,209 363,209 363,209 363,209 363,209 363,209 363,209 363,209 363,209 363,210 363,210 364,210 364,210 364,210 364,210 364,210 364,210 364,210 364,210 364,210 364,210 364,210 364,209 364,209 365,209 365,208 365,208 365,208 365,208 365,208 365,207 365,207 365,207 365,207 365,206 365,206 365,206 366,205 366,205 366,205 366,204 366,204 366,204 366,203 366,203 366,203 366,202 366,202 366,201 366,201 367,201 367,201 367,200 367,200 367,200 367,200 367,199 367,199 367,199 367,200 367,200 367,200 367,201 368,201 368,201 368,201 368,202 368,202 368,203 368,203 368,204 368,204 368,205 368,205 368,205 368,206 369,206 369,206 369,207 369,207 369,207 369,208 369,208 369,208 369,208 369,209 369,209 369,209 369,209 370,209 370,208 370,208 370,208 370,208 370,208 370,207 370,207 370,207 370,207 370,207 370,207 370,207 371,207 371,207 371,208 371,208 371,208 371,207 371,206 371,205 371,205 371,205 371,204 371,204 371,204 372,204 372,203 372,203 372,202 372,202 372,202 372,201 372,201 372,200 372,200 372,199 372,199 372,198 373,198 373,197 373,197 373,196 373,195 373,195 373,194 373,194 373,194 373,194 373,194 373,194 373,194 374,194 374,194 374,194 374,194 374,194 374,195 374,195 374,194 374,195 374,195 374,196 374,196 374,197 375,197 375,197 375,197 375,198 375,198 375,198 375,198 375,198 375,198 375,198 375,198 375,198 375,198 376,198 376,197 376,197 376,197 376,197 376,196 376,196 376,196 376,196 376,195 376,195 376,195 376,195 377,194 377,194 377,194 377,194 377,194 377,194 377,193 377,193 377,193 377,193 377,193 377,193 377,192 378,192 378,192 378,192 378,191 378,191 378,191 378,191 378,191 378,190 378,190 378,190 378,190 378,190 379,190 379,189 379,189 379,189 379,188 379,188 379,188 379,187 379,187 379,187 379,187 379,186 379,186 380,186 380,185 380,185 380,184 380,184 380,183 380,183 380,182 380,182 380,181 380,181 380,180 380,180 381,179 381,179 381,178 381,178 381,177 381,177 381,176 381,175 381,175 381,174 381,174 381,173 381,173 382,173 382,173 382,173 382,173 382,172 382,172 382,172 382,172 382,172 382,172 382,172 382,172 382,172 383,172 383,172 383,172 383,172 383,172 383,172 383,172 383,171 383,171 383,171 383,171 383,171 383,171 384,172 384,173 384,173 384,174 384,175 384,175 384,176 384,176 384,177 384,177 384,177 384,177 384,178 385,178 385,178 385,178 385,178 385,178 385,178 385,178 385,177 385,177 385,177 385,177 385,177 385,177 386,176 386,176 386,176 386,175 386,175 386,175 386,175 386,175 386,174 386,174 386,174 386,173 386,173 387,173 387,172 387,172 387,171 387,171 387,170 387,169 387,168 387,167 387,166 387,166 387,165 387,164 388,163 388,163 388,162 388,161 388,161 388,161 388,160 388,159 388,159 388,159 388,158 388,158 388,158 389,158 389,158 389,158 389,158 389,158 389,158 389,158 389,158 389,158 389,158 389,158 389,158 389,157 390,157 390,156 390,156 390,156 390,155 390,154 390,154 390,153 390,153 390,152 390,151 390,151 390,150 391,150 391,149 391,149 391,148 391,148 391,147 391,147 391,146 391,146 391,146 391,145 391,145 391,145 392,145 392,144 392,143 392,143 392,143 392,143 392,142 392,142 392,142 392,142 392,142 392,142 392,142 393,143 393,143 393,143 393,143 393,144 393,144 393,144 393,144 393,144 393,144 393,144 393,144 393,144 394,145 394,146 394,147 394,148 394,148 394,149 394,150 394,151 394,151 394,152 394,153 394,153 394,154 395,154 395,155 395,155 395,156 395,157 395,157 395,157 395,158 395,159 395,159 395,160 395,161 395,161 396,162 396,163 396,164 396,164 396,164 396,164 396,165 396,165 396,165 396,165 396,165 396,165 396,165 397,165 397,165 397,166 397,166 397,166 397,166 397,166 397,166 397,166 397,167 397,167 397,167 397,167 398,167 398,168 398,168 398,168 398,168 398,168 398,169 398,169 398,169 398,169 398,169 398,169 398,169 399,169 399,169 399,169 399,169 399,169 399,169 399,169 399,169 399,169 399,169 399,169 399,170 399,170 400,170 400,170 400,170 400,170 400,170 400,170 400,170 400,170 400,170 400,170 400,170 400,170 400,170 401,170 401,169 401,169 401,169 401,169 401,169 401,169 401,169 401,169 401,169 401,169 401,168 401,168 402,168 402,168 402,169 402,169 402,170 402,170 402,171 402,171 402,172 402,173 402,174 402,174 402,175 403,175 403,176 403,177 403,177 403,178 403,179 403,180 403,181 403,182 403,183 403,184 403,185 403,186 404,187 404,188 404,189 404,190 404,191 404,192 404,193 404,194 404,195 404,196 404,197 404,197 404,198 405,199 405,200 405,201 405,202 405,202 405,203 405,204 405,204 405,205 405,207 405,208 405,209 405,210 406,211 406,212 406,214 406,215 406,215 406,216 406,216 406,216 406,217 406,217 406,217 406,217 406,217 407,216 407,216 407,215 407,214 407,213 407,213 407,212 407,212 407,212 407,211 407,211 407,211 407,210 408,210 408,209 408,209 408,208 408,208 408,207 408,206 408,206 408,205 408,204 408,203 408,202 408,201 409,200 409,199 409,198 409,197 409,196 409,194 409,193 409,192 409,192 409,191 409,190 409,190 409,189 410,188 410,187 410,187 410,186 410,185 410,184 410,183 410,183 410,183 410,183 410,183 410,183 410,183 411,184 411,184 411,184 411,184 411,184 411,184 411,184 411,184 411,185 411,185 411,185 411,185 411,185 412,185 412,185 412,185 412,186 412,187 412,187 412,188 412,188 412,189 412,189 412,189 412,190 412,191 413,191 413,192 413,193 413,194 413,195 413,196 413,197 413,197 413,198 413,199 413,200 413,200 413,201 414,202 414,202 414,202 414,203 414,203 414,203 414,203 414,203 414,203 414,203 414,203 414,203 414,203 415,202 415,202 415,201 415,201 415,200 415,200 415,200 415,199 415,198 415,198 415,197 415,197 415,197 416,197 416,197 416,197 416,197 416,197 416,196 416,196 416,196 416,196 416,196 416,195 416,195 416,195 417,195 417,195 417,195 417,195 417,194 417,194 417,194 417,194 417,194 417,194 417,194 417,193 417,193 418,192 418,192 418,191 418,191 418,190 418,190 418,189 418,189 418,189 418,189 418,189 418,189 418,189 419,189 419,189 419,189 419,189 419,189 419,189 419,189 419,189 419,189 419,189 419,189 419,189 419,188 420,187 420,187 420,186 420,185 420,185 420,184 420,183 420,182 420,181 420,180 420,179 420,178 420,177 421,177 421,176 421,175 421,174 421,173 421,172 421,171 421,171 421,171 421,171 421,170 421,170 421,170 422,169 422,169 422,169 422,169 422,168 422,168 422,168 422,168 422,168 422,169 422,169 422,170 422,170 423,170 423,170 423,170 423,170 423,170 423,170 423,170 423,170 423,170 423,170 423,170 423,169 423,169 424,169 424,169 424,169 424,168 424,168 424,168 424,168 424,168 424,168 424,168 424,168 424,168 424,168 425,168 425,167 425,167 425,167 425,167 425,167 425,167 425,166 425,166 425,166 425,166 425,166 425,166 426,166 426,166 426,166 426,166 426,166 426,166 426,166 426,166 426,167 426,167 426,166 426,166 426,166 427,166 427,166 427,166 427,166 427,166 427,166 427,166 427,166 427,166 427,165 427,165 427,165 427,165 428,164 428,164 428,164 428,165 428,165 428,165 428,165 428,166 428,166 428,166 428,166 428,165 428,165 429,165 429,165 429,164 429,164 429,164 429,163 429,163 429,162 429,162 429,161 429,161 429,161 429,160 430,160 430,160 430,159 430,159 430,159 430,158 430,158 430,158 430,158 430,157 430,157 430,157 430,156 431,156 431,155 431,155 431,155 431,154 431,153 431,153 431,152 431,152 431,151 431,151 431,150 431,150 432,150 432,149 432,149 432,149 432,148 432,148 432,148 432,147 432,147 432,147 432,146 432,146 432,145 433,145 433,145 433,144 433,144 433,143 433,143 433,142 433,142 433,141 433,140 433,140 433,139 433,139 434,138 434,138 434,138 434,137 434,137 434,136 434,136 434,136 434,135 434,135 434,135 434,134 434,134 435,134 435,134 435,135 435,135 435,135 435,135 435,135 435,135 435,135 435,135 435,135 435,135 435,135 436,134 436,134 436,134 436,133 436,133 436,133 436,132 436,132 436,131 436,131 436,131 436,130 436,130 437,130 437,130 437,130 437,130 437,129 437,129 437,130 437,130 437,130 437,130 437,130 437,130 437,130 438,130 438,130 438,130 438,131 438,131 438,131 438,131 438,131 438,131 438,131 438,131 438,132 438,132 439,132 439,132 439,132 439,133 439,133 439,133 439,133 439,134 439,134 439,133 439,133 439,134 439,134 440,134 440,134 440,134 440,135 440,135 440,135 440,135 440,136 440,136 440,137 440,137 440,138 440,139 441,140 441,140 441,141 441,141 441,141 441,142 441,142 441,143 441,143 441,143 441,144 441,144 441,144 442,145 442,145 442,146 442,146 442,146 442,146 442,145 442,145 442,145 442,145 442,145 442,144 442,144 443,144 443,145 443,145 443,145 443,145 443,145 443,145 443,146 443,146 443,146 443,146 443,146 443,146 444,146 444,146 444,145 444,145 444,145 444,144 444,145 444,146 444,147 444,147 444,148 444,148 444,149 445,149 445,149 445,148 445,148 445,147 445,147 445,148 445,148 445,149 445,149 445,150 445,151 445,151 446,152 446,152 446,152 446,153 446,153 446,153 446,153 446,153 446,153 446,153 446,153 446,153 446,153 447,153 447,153 447,153 447,153 447,153 447,153 447,153 447,153 447,153 447,153 447,153 447,153 447,153 448,153 448,153 448,154 448,154 448,155 448,156 448,156 448,157 448,158 448,159 448,160 448,161 448,161 449,162 449,163 449,164 449,165 449,166 449,166 449,167 449,167 449,167 449,168 449,168 449,168 449,168 450,168 450,168 450,168 450,168 450,168 450,168 450,168 450,168 450,168 450,168 450,168 450,168 450,168 451,167 451,167 451,166 451,166 451,165 451,165 451,165 451,164 451,164 451,163 451,163 451,162 451,162 452,162 452,161 452,161 452,160 452,160 452,160 452,160 452,159 452,159 452,159 452,158 452,158 452,158 453,158 453,157 453,157 453,157 453,157 453,157 453,156 453,156 453,156 453,156 453,155 453,155 453,155 454,155 454,155 454,154 454,154 454,154 454,153 454,153 454,153 454,152 454,152 454,151 454,151 454,150 455,150 455,150 455,149 455,149 455,149 455,149 455,149 455,149 455,149 455,149 455,149 455,149 455,149 456,150 456,150 456,150 456,151 456,151 456,151 456,152 456,152 456,153 456,153 456,153 456,154 456,154 457,155 457,155 457,156 457,156 457,156 457,157 457,157 457,158 457,159 457,159 457,159 457,159 457,159 458,159 458,159 458,158 458,158 458,158 458,158 458,157 458,157 458,157 458,156 458,156 458,156 458,155 459,155 459,155 459,155 459,155 459,154 459,154 459,154 459,154 459,154 459,154 459,154 459,154 459,154 460,154 460,153 460,153 460,153 460,153 460,153 460,153 460,152 460,152 460,152 460,151 460,151 460,150 461,149 461,149 461,148 461,147 461,147 461,146 461,145 461,144 461,143 461,142 461,141 461,141 461,140 462,140 462,140 462,140 462,140 462,141 462,141 462,141 462,141 462,142 462,142 462,142 462,142 462,142 463,142 463,143 463,143 463,143 463,143 463,143 463,143 463,143 463,144 463,144 463,144 463,144 463,144 464,144 464,145 464,145 464,145 464,146 464,146 464,146 464,147 464,147 464,148 464,148 464,148 464,149 465,149 465,149 465,150 465,150 465,150 465,151 465,151 465,151 465,152 465,152 465,152 465,153 465,153 466,153 466,154 466,155 466,155 466,155 466,156 466,156 466,156 466,156 466,156 466,157 466,157 466,158 467,158 467,159 467,160 467,161 467,161 467,162 467,163 467,164 467,164 467,165 467,166 467,166 467,167 468,168 468,168 468,169 468,170 468,171 468,171 468,172 468,173 468,174 468,175 468,175 468,176 468,177 469,177 469,178 469,178 469,179 469,179 469,179 469,179 469,179 469,179 469,179 469,179 469,180 469,180 470,180 470,180 470,181 470,181 470,181 470,181 470,180 470,180 470,179 470,178 470,178 470,177 470,177 471,176 471,176 471,175 471,175 471,174 471,173 471,173 471,172 471,172 471,171 471,171 471,170 471,170 472,170 472,169 472,169 472,168 472,168 472,167 472,167 472,167 472,166 472,166 472,165 472,165 472,165 473,164 473,164 473,164 473,163 473,163 473,163 473,162 473,162 473,162 473,161 473,161 473,161 473,160 474,160 474,161 474,161 474,161 474,161 474,162 474,162 474,163 474,163 474,163 474,164 474,164 474,165 475,165 475,166 475,166 475,166 475,167 475,167 475,168 475,168 475,168 475,168 475,169 475,169 475,168 476,168 476,168 476,167 476,166 476,166 476,165 476,164 476,163 476,162 476,161 476,160 476,160 476,159 477,158 477,158 477,157 477,157 477,157 477,156 477,156 477,156 477,156 477,155 477,155 477,155 477,155 478,155 478,154 478,154 478,154 478,154 478,154 478,154 478,153 478,153 478,153 478,153 478,152 478,152 479,152 479,152 479,151 479,151 479,151 479,150 479,150 479,150 479,149 479,149 479,149 479,148 479,148 480,147 480,147 480,146 480,146 480,146 480,145 480,145 480,144 480,144 480,143 480,143 480,143 480,143 481,142 481,142 481,141 481,141 481,141 481,140 481,140 481,140 481,140 481,139 481,139 481,139 481,138 482,138 482,138 482,138 482,138 482,138 482,138 482,138 482,137 482,137 482,137 482,137 482,136 482,136 483,136 483,136 483,136 483,136 483,136 483,136 483,136 483,136 483,135 483,135 483,135 483,135 483,136 484,136 484,137 484,137 484,138 484,138 484,139 484,139 484,139 484,140 484,140 484,141 484,141 484,142 485,142 485,142 485,142 485,143 485,143 485,143 485,144 485,144 485,145 485,145 485,146 485,146 485,146 486,147 486,147 486,148 486,148 486,149 486,149 486,150 486,150 486,151 486,151 486,151 486,151 486,151 487,151 487,151 487,151 487,151 487,151 487,150 487,150 487,150 487,150 487,149 487,149 487,149 487,149 488,149 488,149 488,149 488,149 488,148 488,148 488,148 488,148 488,148 488,148 488,148 488,148 488,148 489,148 489,147 489,147 489,147 489,147 489,147 489,147 489,147 489,147 489,147 489,147 489,147 489,147 490,147 490,147 490,147 490,147 490,147 490,148 490,148 490,148 490,148 490,148 490,148 490,148 490,148 491,149 491,149 491,149 491,149 491,150 491,150 491,150 491,150 491,150 491,150 491,150 491,150 491,150 492,149 492,149 492,149 492,149 492,148 492,148 492,148 492,148 492,148 492,148 492,148 492,148 492,147 493,147 493,147 493,146 493,146 493,146 493,145 493,145 493,145 493,144 493,144 493,143 493,143 493,143 494,142 494,142 494,142 494,141 494,141 494,141 494,140 494,140 494,140 494,140 494,139 494,139 494,139 495,139 495,138 495,138 495,138 495,138 495,137 495,137 495,137 495,137 495,136 495,136 495,136 495,135 496,135 496,134 496,134 496,133 496,133 496,132 496,132 496,131 496,131 496,130 496,130 496,129 496,128 497,128 497,127 497,126 497,126 497,125 497,125 497,125 497,125 497,124 497,124 497,124 497,125 497,125 498,125 498,125 498,125 498,125 498,125 498,125 498,125 498,125 498,125 498,125 498,125 498,125 498,126 499,126 499,126 499,126 499,126 499,126 499,126 499,126 499,126 499,126 499,126 499,126 499,126 499,126 500,126 500,126 500,126 500,126 500,127 500,127 500,127 500,127 500,127 500,127 500,127 500,127 500,127 501,127 501,127 501,127 501,127 501,127 501,127 501,127 501,127 501,127 501,127 501,127 501,127 501,127 502,127 502,127 502,128 502,128 502,128 502,128 502,128 502,128 502,128 502,128 502,128 502,128 502,128 503,128 503,128 503,128 503,128 503,128 503,128 503,128 503,128 503,128 503,128 503,128 503,128 503,128 504,129 504,129 504,129 504,130 504,130 504,131 504,132 504,132 504,133 504,133 504,134 504,134 504,135 505,136 505,136 505,137 505,138 505,138 505,138 505,138 505,138 505,138 505,138 505,138 505,138 505,138 506,137 506,137 506,137 506,137 506,137 506,137 506,137 506,137 506,138 506,138 506,138 506,138 506,138 507,138 507,138 507,138 507,138 507,138 507,138 507,138 507,138 507,138 507,138 507,138 507,138 507,138 508,138 508,138 508,137 508,137 508,137 508,137 508,137 508,137 508,137 508,138 508,138 508,138 508,138 509,138 509,138 509,139 509,140 509,140 509,141 509,142 509,143 509,144 509,144 509,145 509,145 509,145 510,146 510,146 510,147 510,148 510,148 510,149 510,149 510,150 510,150 510,149 510,149 510,149 510,148 511,147 511,146 511,145 511,144 511,143 511,142 511,141 511,141 511,141 511,141 511,141 511,141 511,140 512,140 512,140 512,140 512,140 512,140 512,140 512,140 512,140 512,140 512,140 512,139 512,140 512,140 513,140 513,140 513,140 513,140 513,140 513,140 513,141 513,141 513,142 513,142 513,143 513,143 513,143 514,144 514,144 514,145 514,145 514,146 514,146 514,147 514,147 514,147 514,148 514,148 514,148 514,149 515,149 515,149 515,149 515,149 515,149 515,150 515,150 515,150 515,151 515,151 515,152 515,152 515,153 516,153 516,154 516,154 516,155 516,155 516,156 516,157 516,157 516,158 516,158 516,159 516,159 516,159 517,160 517,160 517,161 517,162 517,162 517,163 517,163 517,164 517,164 517,165 517,165 517,165 517,166 518,166 518,167 518,167 518,168 518,168 518,169 518,169 518,169 518,170 518,170 518,171 518,171 518,172 519,172 519,173 519,173 519,173 519,174 519,174 519,175 519,175 519,175 519,175 519,176 519,176 519,176 519,176 520,176 520,176 520,176 520,176 520,176 520,176 520,175 520,175 520,174 520,174 520,173 520,173 520,172 521,172 521,171 521,171 521,170 521,170 521,170 521,169 521,169 521,169 521,169 521,168 521,168 521,168 522,167 522,167 522,167 522,167 522,166 522,166 522,166 522,166 522,165 522,165 522,165 522,165 522,165 523,165 523,164 523,164 523,164 523,164 523,164 523,165 523,165 523,165 523,165 523,165 523,165 523,165 524,165 524,165 524,165 524,165 524,165 524,166 524,166 524,166 524,167 524,167 524,168 524,168 524,168 525,169 525,169 525,169 525,169 525,169 525,169 525,169 525,170 525,170 525,170 525,170 525,170 525,170 526,170 526,170 526,170 526,170 526,170 526,170 526,170 526,171 526,170 526,170 526,170 526,170 526,170 527,169 527,169 527,168 527,168 527,168 527,167 527,167 527,167 527,167 527,167 527,166 527,166 527,166 528,166 528,166 528,166 528,165 528,165 528,165 528,165 528,165 528,165 528,165 528,165 528,164 528,164 529,164 529,164 529,164 529,163 529,163 529,163 529,163 529,162 529,162 529,162 529,162 529,162 529,162 530,162 530,162 530,162 530,162 530,162 530,162 530,163 530,163 530,164 530,164 530,164 530,165 530,165 531,166 531,166 531,167 531,167 531,168 531,169 531,169 531,170 531,171 531,171 531,172 531,172 531,173 532,174 532,174 532,174 532,174 532,175 532,175 532,175 532,175 532,175 532,175 532,175 532,175 532,175 533,175 533,175 533,175 533,175 533,175 533,175 533,175 533,175 533,175 533,174 533,174 533,174 533,174 534,174 534,174 534,173 534,173 534,173 534,173 534,173 534,173 534,172 534,172 534,172 534,171 534,171 535,171 535,171 535,171 535,170 535,170 535,170 535,170 535,170 535,169 535,169 535,169 535,169 535,169 536,168 536,168 536,168 536,168 536,168 536,168 536,169 536,169 536,169 536,169 536,169 536,169 536,169 537,169 537,168 537,168 537,168 537,168 537,168 537,168 537,168 537,168 537,168 537,168 537,168 537,168 538,168 538,168 538,168 538,167 538,167 538,167 538,167 538,167 538,167 538,167 538,166 538,166 538,166 539,166 539,166 539,166 539,166 539,166 539,166 539,166 539,166 539,166 539,166 539,166 539,167 539,167 540,167 540,167 540,167 540,168 540,168 540,168 540,168 540,168 540,168 540,168 540,168 540,168 540,168 541,168 541,168 541,168 541,168 541,168 541,168 541,168 541,168 541,168 541,168 541,168 541,168 541,168 542,168 542,168 542,168 542,168 542,168 542,168 542,168 542,168 542,168 542,168 542,168 542,168 542,168 543,168 543,167 543,167 543,168 543,168 543,168 543,168 543,168 543,168 543,168 543,169 543,169 543,169 544,169 544,169 544,169 544,169 544,169 544,169 544,169 544,169 544,169 544,169 544,169 544,169 544,169 545,169 545,169 545,169 545,168 545,168 545,168 545,168 545,168 545,168 545,168 545,168 545,168 545,168 546,168 546,168 546,168 546,168 546,167 546,167 546,167 546,167 546,167 546,167 546,167 546,167 546,167 547,167 547,167 547,167 547,167 547,167 547,167 547,166 547,166 547,166 547,166 547,166 547,166 547,166 548,165 548,165 548,165 548,165 548,165 548,165 548,164 548,164 548,164 548,163 548,163 548,163 548,163 549,163 549,163 549,163 549,162 549,162 549,163 549,163 549,163 549,163 549,163 549,163 549,163 549,163 550,163 550,163 550,163 550,163 550,163 550,163 550,163 550,163 550,163 550,163 550,163 550,163 550,163 551,163 551,163 551,163 551,163 551,163 551,163 551,163 551,163 551,163 551,163 551,163 551,164 551,164 552,164 552,164 552,164 552,163 552,163 552,163 552,163 552,163 552,162 552,162 552,162 552,163 552,163 553,163 553,163 553,163 553,164 553,164 553,164 553,164 553,165 553,165 553,165 553,166 553,166 553,166 554,167 554,167 554,167 554,168 554,168 554,169 554,169 554,169 554,169 554,170 554,170 554,170 554,170 555,170 555,170 555,170 555,170 555,170 555,170 555,170 555,170 555,170 555,170 555,170 555,170 555,169 556,169 556,169 556,169 556,169 556,169 556,169 556,169 556,169 556,169 556,169 556,169 556,169 556,169 557,168 557,168 557,168 557,168 557,168 557,168 557,168 557,168 557,167 557,167 557,167 557,167 557,166 558,166 558,166 558,166 558,166 558,166 558,166 558,165 558,165 558,165 558,165 558,165 558,165 558,165 559,165 559,164 559,164 559,164 559,164 559,164 559,164 559,164 559,164 559,164 559,164 559,165 559,165 560,165 560,165 560,166 560,166 560,166 560,166 560,166 560,166 560,166 560,166 560,166 560,166 560,166 561,166 561,166 561,166 561,166 561,166 561,166 561,166 561,166 561,166 561,165 561,165 561,165 561,165 562,165 562,165 562,165 562,165 562,164 562,164 562,164 562,164 562,164 562,164 562,164 562,164 562,163 563,163 563,163 563,163 563,163 563,163 563,163 563,163 563,163 563,163 563,163 563,163 563,164 563,164 564,164 564,164 564,165 564,165 564,165 564,165 564,166 564,166 564,166 564,166 564,166 564,167 564,167 565,167 565,167 565,167 565,167 565,168 565,168 565,168 565,168 565,168 565,168 565,168 565,169 565,169 566,169 566,169 566,169 566,169 566,169 566,169 566,170 566,170 566,170 566,170 566,170 566,170 566,170 567,170 567,170 567,170 567,170 567,170 567,170 567,170 567,170 567,170 567,170 567,170 567,170 567,170 568,170 568,170 568,170 568,170 568,170 568,170 568,170 568,170 568,170 568,170 568,170 568,170 568,170 569,170 569,170 569,170 569,170 569,170 569,170 569,170 569,170 569,170 569,170 569,170 569,170 569,170 570,170 570,169 570,169 570,169 570,169 570,169 570,169 570,169 570,169 570,169 570,168 570,168 570,168 571,168 571,168 571,168 571,168 571,168 571,168 571,168 571,167 571,167 571,167 571,167 571,167 571,166 572,166 572,166 572,166 572,166 572,166 572,166 572,166 572,167 572,167 572,167 572,167 572,167 572,167 573,167 573,167 573,167 573,167 573,167 573,167 573,167 573,167 573,167 573,167 573,167 573,167 573,168 574,168 574,168 574,168 574,168 574,168 574,168 574,168 574,168 574,169 574,169 574,169 574,169 574,169 575,169 575,169 575,169 575,169 575,169 575,169 575,169 575,169 575,169 575,169 575,169 575,169 575,169 576,169 576,169 576,169 576,169 576,169 576,169 576,169 576,169 576,169 576,169 576,169 576,169 576,169 577,169 577,169 577,169 577,169 577,169 577,169 577,169 577,169 577,169 577,169 577,168 577,168 577,168 578,168 578,168 578,168 578,168 578,168 578,168 578,168 578,168 578,168 578,168 578,168 578,168 578,168 579,167 579,167 579,167 579,167 579,167 579,166 579,166 579,166 579,167 579,167 579,167 579,167 579,167 580,167 580,167 580,167 580,167 580,166 580,166 580,166 580,166 580,166 580,166 580,165 580,165 580,165 581,165 581,165 581,165 581,165 581,164 581,164 581,164 581,164 581,164 581,164 581,164 581,164 581,164 582,164 582,164 582,164 582,163 582,163 582,163 582,163 582,162 582,162 582,162 582,162 582,162 582,162 583,162 583,162 583,162 583,163 583,163 583,163 583,163 583,163 583,163 583,163 583,163 583,163 583,162 584,162 584,162 584,162 584,162 584,162 584,162 584,162 584,162 584,162 584,162 584,162 584,162 584,162 585,162 585,162 585,162 585,162 585,162 585,162 585,162 585,163 585,162 585,162 585,162 585,161 585,161 586,161 586,161 586,160 586,160 586,160 586,160 586,160 586,160 586,160 586,160 586,160 586,160 586,160 587,159 587,159 587,159 587,159 587,159 587,159 587,159 587,159 587,159 587,159 587,159 587,159 587,159 588,159 588,159 588,158 588,158 588,158 588,158 588,158 588,158 588,157 588,157 588,157 588,157 588,156 589,156 589,156 589,156 589,155 589,155 589,155 589,155 589,155 589,155 589,154 589,154 589,154 589,154 590,153 590,153 590,153 590,153 590,153 590,153 590,153 590,152 590,152 590,152 590,152 590,152 590,151 591,151 591,151 591,150 591,150 591,150 591,150 591,150 591,150 591,150 591,150 591,149 591,149 591,149 592,149 592,148 592,148 592,148 592,147 592,147 592,147 592,146 592,146 592,146 592,145 592,145 592,144 593,144 593,143 593,143 593,142 593,142 593,142 593,141 593,141 593,141 593,141 593,140 593,140 593,140 594,140 594,140 594,140 594,140 594,140 594,140 594,140 594,140 594,140 594,141 594,141 594,141 594,141 595,142 595,142 595,142 595,143 595,143 595,143 595,144 595,144 595,145 595,145 595,146 595,147 595,147 596,147 596,148 596,148 596,149 596,149 596,150 596,150 596,150 596,151 596,151 596,151 596,151 596,152 597,152 597,152 597,152 597,152 597,153 597,153 597,153 597,153 597,152 597,152 597,152 597,151 597,151 598,151 598,150 598,150 598,149 598,149 598,149 598,149 598,148 598,148 598,147 598,147 598,147 598,147 599,146 599,146 599,146 599,146 599,145 599,145 599,145 599,145 599,144 599,144 599,144 599,144 599,143 600,143 600,143 600,143 600,143 600,143 600,143 600,142 600,142 600,142 600,142 600,142 600,141 600,141 601,140 601,140 601,140 601,139 601,139 601,139 601,139 601,139 601,139 601,139 601,139 601,139 601,138 602,138 602,138 602,138 602,138 602,138 602,138 602,137 602,137 602,136 602,136 602,136 602,135 602,135 603,134 603,134 603,134 603,134 603,133 603,133 603,132 603,132 603,131 603,131 603,130 603,130 603,130 604,129 604,129 604,129 604,128 604,128 604,128 604,127 604,127 604,127 604,126 604,126 604,126 604,125 605,125 605,125 605,125 605,124 605,124 605,124 605,124 605,124 605,124 605,124 605,124 605,124 605,124 606,124 606,124 606,124 606,125 606,125 606,125 606,125 606,125 606,125 606,126 606,126 606,126 606,126 607,126 607,126 607,126 607,126 607,126 607,126 607,126 607,126 607,126 607,126 607,126 607,125 607,125 608,125 608,124 608,124 608,124 608,123 608,123 608,123 608,122 608,122 608,121 608,121 608,120 608,120 609,120 609,120 609,119 609,119 609,118 609,118 609,118 609,117 609,117 609,117 609,116 609,116 609,116 610,115 610,115 610,115 610,115 610,115 610,115 610,115 610,114 610,114 610,114 610,114 610,113 610,113 611,113 611,113 611,113 611,112 611,112 611,112 611,112 611,112 611,112 611,112 611,112 611,112 611,112 612,112 612,112 612,112 612,112 612,112 612,112 612,112 612,112 612,112 612,112 612,113 612,113 612,113 613,113 613,113 613,114 613,114 613,114 613,114 613,115 613,115 613,115 613,116 613,116 613,116 613,116 614,116 614,116 614,116 614,117 614,117 614,117 614,117 614,117 614,117 614,117 614,117 614,117 614,117 615,117 615,117 615,117 615,117 615,118 615,118 615,118 615,118 615,118 615,118 615,118 615,118 615,118 616,118 616,117 616,117 616,117 616,117 616,117 616,117 616,118 616,118 616,118 616,118 616,118 616,119 617,119 617,119 617,119 617,118 617,117 617,117 617,117 617,116 617,116 617,116 617,116 617,116 617,115 618,115 618,115 618,115 618,115 618,115 618,115 618,115 618,115 618,115 618,115 618,115 618,115 618,116 619,117 619,117 619,116 619,114 619,112 619,111 619,110 619,109 619,109 619,109 619,109 619,109 619,108 620,108 620,108 620,108 620,107 620,107 620,107 620,107 620,106 620,106 620,106 620,106 620,106 620,105 621,105 621,105 621,105 621,104 621,104 621,104 621,104 621,103 621,103 621,103 621,103 621,102 621,102 622,102 622,101 622,101 622,101 622,101 622,100 622,100 622,100 622,100 622,99 622,99 622,99 622,99 623,98 623,98 623,98 623,98 623,97 623,97 623,97 623,97 623,98 623,98 623,98 623,98 623,98 624,98 624,99 624,99 624,99 624,99 624,99 624,99 624,99 624,99 624,99 624,99 624,99 624,99 625,100 625,100 625,100 625,100 625,100 625,100 625,100 625,100 625,100 625,100 625,101 625,101 625,101 626,102 626,102 626,102 626,103 626,103 626,103 626,104 626,104 626,104 626,105 626,105 626,105 626,105 627,106 627,106 627,106 627,107 627,107 627,107 627,107 627,107 627,107 627,108 627,108 627,108 627,108 628,108 628,109 628,109 628,109 628,109 628,109 628,109 628,109 628,109 628,109 628,110 628,110 628,110 629,110 629,110 629,110 629,110 629,110 629,110 629,110 629,111 629,111 629,112 629,113 629,114 629,114 630,114 630,113 630,113 630,113 630,113 630,112 630,112 630,112 630,112 630,112 630,112 630,112 630,112 631,112 631,112 631,113 631,113 631,113 631,113 631,113 631,113 631,113 631,113 631,113 631,113 631,113 632,113 632,113 632,113 632,113 632,113 632,113 632,113 632,114 632,114 632,115 632,115 632,115 632,116 633,116 633,116 633,116 633,116 633,116 633,117 633,117 633,117 633,118 633,118 633,119 633,119 633,120 634,120 634,120 634,119 634,119 634,119 634,119 634,119 634,119 634,119 634,118 634,118 634,118 634,118 635,117 635,117 635,117 635,116 635,116 635,116 635,115 635,115 635,115 635,115 635,115 635,114 635,114 636,114 636,114 636,114 636,114 636,114 636,114 636,114 636,115 636,115 636,115 636,115 636,116 636,116 637,116 637,116 637,116 637,116 637,116 637,116 637,116 637,115 637,115 637,115 637,115 637,115 637,115 638,115 638,115 638,115 638,115 638,115 638,115 638,115 638,115 638,116 638,116 638,116 638,116 638,117 639,117 639,118 639,118 639,119 639,119 639,120 639,120 639,121 639,122 639,122 639,123 639,123 639,124 640,124 640,125 640,126 640,126 640,127 640,127 640,128 640,128 640,129 640,129 640,129 640,130 640,130 641,130 641,131 641,131 641,132 641,132 641,132 641,133 641,133 641,133 641,133 641,133 641,134 641,134 642,134 642,134 642,135 642,135 642,135 642,135 642,135 642,136 642,136 642,136 642,136 642,137 642,137 643,137 643,137 643,137 643,137 643,138 643,138 643,138 643,138 643,138 643,138 643,139 643,139 643,139 644,139 644,140 644,140 644,140 644,140 644,140 644,140 644,140 644,140 644,140 644,140 644,139 644,139 645,140 645,140 645,140 645,140 645,140 645,140 645,140 645,140 645,140 645,140 645,140 645,140 645,140 646,140 646,140 646,140 646,139 646,139 646,139 646,139 646,139 646,138 646,138 646,137 646,137 646,137 647,136 647,136 647,136 647,135 647,135 647,135 647,135 647,135 647,135 647,135 647,135 647,135 647,135 648,135 648,135 648,135 648,135 648,136 648,136 648,136 648,136 648,136 648,137 648,137 648,137 648,137 649,137 649,137 649,138 649,138 649,138 649,138 649,138 649,139 649,139 649,139 649,139 649,139 649,139 650,139 650,140 650,140 650,140 650,140 650,140 650,140 650,140 650,141 650,141 650,141 650,141 650,141 651,142 651,142 651,142 651,142 651,142 651,143 651,143 651,143 651,143 651,143 651,144 651,143 651,143 652,143 652,143 652,143 652,143 652,143 652,143 652,143 652,142 652,142 652,142 652,142 652,142 652,142 653,142 653,142 653,142 653,142 653,141 653,141 653,141 653,141 653,141 653,141 653,141 653,140 653,140 654,140 654,140 654,140 654,139 654,139 654,139 654,139 654,139 654,138 654,138 654,137 654,137 654,137 655,137 655,136 655,136 655,136 655,136 655,136 655,136 655,136 655,136 655,136 655,136 655,136 655,136 656,136 656,136 656,136 656,136 656,136 656,136 656,136 656,136 656,137 656,137 656,137 656,137 656,137 657,137 657,137 657,137 657,137 657,137 657,137 657,137 657,137 657,137 657,138 657,138 657,138 657,138 658,138 658,138 658,138 658,138 658,138 658,138 658,138 658,138 658,138 658,138 658,138 658,138 658,138 659,138 659,139 659,139 659,139 659,139 659,140 659,140 659,140 659,140 659,140 659,141 659,141 659,141 660,141 660,141 660,141 660,141 660,141 660,141 660,141 660,141 660,141 660,141 660,141 660,141 660,140 661,140 661,140 661,140 661,140 661,139 661,139 661,139 661,139 661,139 661,139 661,138 661,138 661,138 662,138 662,138 662,138 662,138 662,138 662,138 662,138 662,138 662,138 662,138 662,138 662,138 662,139 663,139 663,139 663,139 663,140 663,140 663,140 663,141 663,141 663,141 663,142 663,142 663,143 663,143 664,143 664,143 664,144 664,144 664,145 664,145 664,145 664,145 664,145 664,146 664,146 664,147 664,147 665,148 665,148 665,148 665,148 665,148 665,148 665,148 665,148 665,148 665,148 665,149 665,149 665,149 666,149 666,149 666,149 666,149 666,149 666,149 666,149 666,149 666,149 666,149 666,149 666,149 666,149 667,149 667,149 667,150 667,150 667,150 667,150 667,150 667,151 667,151 667,152 667,152 667,152 667,153 668,153 668,153 668,154 668,154 668,154 668,155 668,155 668,156 668,156 668,157 668,157 668,158 668,158 669,158 669,158 669,159 669,159 669,159 669,160 669,160 669,160 669,161 669,161 669,161 669,161 669,162 670,162 670,162 670,162 670,163 670,163 670,163 670,163 670,163 670,163 670,163 670,163 670,163 670,163 671,163 671,163 671,163 671,163 671,163 671,164 671,164 671,164 671,164 671,164 671,164 671,164 671,165 672,165 672,165 672,164 672,164 672,164 672,164 672,164 672,164 672,164 672,164 672,164 672,164 672,164 673,164 673,164 673,163 673,163 673,163 673,163 673,163 673,162 673,162 673,162 673,161 673,161 673,161 674,160 674,160 674,160 674,159 674,159 674,158 674,158 674,158 674,158 674,158 674,157 674,157 674,157 675,157 675,157 675,157 675,157 675,157 675,157 675,157 675,157 675,157 675,157 675,156 675,156 675,156 676,156 676,156 676,156 676,156 676,156 676,156 676,156 676,156 676,157 676,157 676,157 676,157 676,157 677,157 677,157 677,157 677,157 677,157 677,158 677,158 677,159 677,159 677,159 677,159 677,160 677,160 678,160 678,161 678,161 678,161 678,161 678,161 678,161 678,161 678,161 678,161 678,161 678,161 678,161 679,160 679,160 679,160 679,160 679,160 679,160 679,160 679,159 679,159 679,159 679,159 679,159 679,158 680,158 680,158 680,158 680,158 680,158 680,158 680,158 680,157 680,157 680,157 680,156 680,156 680,155 681,155 681,154 681,154 681,153 681,153 681,153 681,152 681,152 681,151 681,151 681,151 681,150 681,150 682,149 682,149 682,149 682,148 682,148 682,147 682,147 682,146 682,146 682,146 682,146 682,145 682,145 683,144 683,144 683,143 683,142 683,142 683,141 683,141 683,141 683,140 683,140 683,140 683,139 683,139 684,139 684,139 684,139 684,138 684,138 684,138 684,138 684,138 684,138 684,138 684,138 684,138 684,138 685,138 685,137 685,137 685,137 685,137 685,138 685,138 685,139 685,139 685,140 685,141 685,141 685,142 686,143 686,143 686,144 686,144 686,145 686,145 686,145 686,145 686,145 686,145 686,145 686,144 686,144 687,144 687,144 687,144 687,144 687,145 687,145 687,145 687,145 687,145 687,146 687,146 687,146 687,147 688,147 688,147 688,147 688,147 688,148 688,148 688,148 688,148 688,148 688,148 688,148 688,148 688,147 689,147 689,147 689,147 689,147 689,147 689,147 689,147 689,147 689,148 689,148 689,147 689,147 689,148 690,148 690,149 690,149 690,149 690,150 690,150 690,151 690,151 690,152 690,152 690,152 690,153 690,153 691,154 691,154 691,155 691,155 691,156 691,156 691,156 691,157 691,157 691,157 691,158 691,159 691,159 692,159 692,160 692,160 692,161 692,162 692,163 692,163 692,164 692,165 692,165 692,165 692,165 692,166 693,166 693,166 693,166 693,166 693,166 693,167 693,167 693,168 693,168 693,169 693,169 693,170 693,170 694,171 694,171 694,172 694,172 694,172 694,173 694,173 694,173 694,174 694,174 694,174 694,175 694,175 695,175 695,175 695,176 695,176 695,176 695,176 695,176 695,176 695,176 695,176 695,176 695,176 695,176 696,176 696,176 696,176 696,176 696,176 696,176 696,176 696,175 696,175 696,175 696,174 696,174 696,173 697,173 697,173 697,172 697,172 697,172 697,171 697,171 697,171 697,170 697,170 697,170 697,169 697,169 698,169 698,169 698,169 698,169 698,169 698,169 698,169 698,169 698,169 698,169 698,169 698,169 698,169 699,169 699,169 699,169 699,169 699,169 699,169 699,170 699,170 699,170 699,170 699,170 699,171 699,171 700,171 700,172 700,172 700,172 700,172 700,173 700,173 700,173 700,174 700,174 700,174 700,174 700,174 701,175 701,175 701,175 701,175 701,176 701,176 701,176 701,176 701,177 701,177 701,177 701,177 701,178 702,178 702,178 702,179 702,179 702,180 702,180 702,181 702,181 702,181 702,182 702,182 702,183 702,183 703,184 703,184 703,184 703,183 703,183 703,183 703,183 703,183 703,183 703,183 703,183 703,183 703,183 704,183 704,183 704,183 704,183 704,183 704,183 704,183 704,183 704,183 704,183 704,183 704,183 704,183 705,183 705,183 705,183 705,183 705,183 705,183 705,183 705,183 705,182 705,182 705,182 705,182 705,181 706,181 706,180 706,180 706,179 706,179 706,178 706,177 706,176 706,175 706,174 706,173 706,172 706,172 707,171 707,170 707,169 707,168 707,167 707,167 707,166 707,166 707,165 707,165 707,164 707,164 707,164 708,163 708,163 708,162 708,162 708,162 708,162 708,162 708,162 708,162 708,162 708,163 708,163 708,163 709,163 709,163 709,164 709,164 709,164 709,164 709,164 709,164 709,164 709,164 709,164 709,164 709,164 710,164 710,163 710,163 710,163 710,163 710,163 710,163 710,162 710,162 710,162 710,161 710,161 710,161 711,160 711,160 711,159 711,159 711,158 711,158 711,158 711,157 711,157 711,156 711,155 711,155 711,154 712,154 712,153 712,153 712,152 712,152 712,151 712,151 712,151 712,150 712,150 712,149 712,149 712,149 713,148 713,148 713,148 713,147 713,147 713,147 713,147 713,146 713,146 713,146 713,146 713,146 713,145 714,145 714,145 714,145 714,145 714,145 714,145 714,145 714,145 714,145 714,145 714,145 714,145 714,145 715,145 715,145 715,146 715,146 715,146 715,146 715,146 715,147 715,147 715,147 715,148 715,148 715,148 715,149 716,149 716,150 716,150 716,150 716,151 716,151 716,152 716,152 716,152 716,153 716,153 716,153 716,154 717,154 717,154 717,154 717,154 717,154 717,154 717,154 717,154 717,154 717,154 717,154 717,154 717,154 718,154 718,154 718,154 718,154 718,154 718,154 718,154 718,154 718,154 718,154 718,154 718,154 718,155 719,155 719,155 719,155 719,155 719,155 719,155 719,155 719,155 719,155 719,155 719,155 719,155 719,155 720,155 720,155 720,156 720,156 720,156 720,156 720,156 720,156 720,156 720,156 720,156 720,156 720,156 721,157 721,157 721,157 721,157 721,157 721,158 721,158 721,158 721,158 721,158 721,159 721,159 721,159 722,159 722,159 722,159 722,160 722,160 722,160 722,160 722,160 722,160 722,160 722,160 722,160 722,160 723,160 723,160 723,159 723,159 723,159 723,159 723,159 723,159 723,159 723,158 723,158 723,158 723,158 724,158 724,158 724,157 724,157 724,157 724,157 724,157 724,156 724,156 724,156 724,156 724,156 724,156 725,156 725,156 725,156 725,156 725,155 725,155 725,155 725,155 725,155 725,155 725,155 725,156 725,156 726,156 726,156 726,156 726,156 726,156 726,156 726,156 726,156 726,156 726,156 726,156 726,156 726,156 727,156 727,157 727,157 727,157 727,158 727,158 727,158 727,159 727,159 727,159 727,160 727,160 727,160 728,161 728,161 728,162 728,162 728,162 728,163 728,163 728,163 728,164 728,164 728,164 728,165 728,165 729,165 729,166 729,166 729,166 729,166 729,167 729,167 729,167 729,166 729,166 729,166 729,166 729,166 730,166 730,166 730,166 730,166 730,166 730,166 730,166 730,166 730,166 730,166 730,166 730,166 730,166 731,166 731,166 731,166 731,166 731,166 731,166 731,166 731,166 731,166 731,166 731,166 731,167 731,167 732,167 732,167 732,167 732,167 732,167 732,167 732,168 732,168 732,168 732,168 732,168 732,168 732,168 733,168 733,168 733,168 733,168 733,168 733,168 733,168 733,168 733,168 733,168 733,168 733,168 733,168 734,168 734,168 734,168 734,168 734,168 734,168 734,168 734,168 734,168 734,168 734,168 734,168 734,168 735,168 735,168 735,169 735,169 735,169 735,169 735,169 735,169 735,169 735,169 735,170 735,170 735,170 736,170 736,170 736,170 736,170 736,170 736,170 736,170 736,170 736,170 736,170 736,170 " vector-effect="non-scaling-stroke"></polyline>
</g></svg>