<!-- Generator: Adobe Illustrator 19.2.0, SVG Export Plug-In  -->
<!DOCTYPE svg PUBLIC "-//W3C//DTD SVG 1.1//EN" "http://www.w3.org/Graphics/SVG/1.1/DTD/svg11.dtd" [
	<!ENTITY ns_flows "http://ns.adobe.com/Flows/1.0/">
	<!ENTITY st0 "fill:none;stroke:#FFFFFF;stroke-linecap:square;stroke-linejoin:bevel;stroke-dasharray:1,2;">
	<!ENTITY st1 "fill:none;stroke:#624949;stroke-width:1.5;stroke-linecap:round;stroke-linejoin:round;">
	<!ENTITY st2 "fill:#624949;">
]>
<svg version="1.1"
	 xmlns="http://www.w3.org/2000/svg" xmlns:xlink="http://www.w3.org/1999/xlink" xmlns:a="http://ns.adobe.com/AdobeSVGViewerExtensions/3.0/"
	 x="0px" y="0px" width="759px" height="380px" preserveAspectRatio="none" viewBox="0 0 759 380" style="enable-background:new 0 0 759 380;"
	 xml:space="preserve">
<defs>
</defs>
<line vector-effect="non-scaling-stroke" style="&st0;" x1="0.5" y1="0.5" x2="0.5" y2="379.5"/>
<line vector-effect="non-scaling-stroke" style="&st0;" x1="95.5" y1="0.5" x2="95.5" y2="379.5"/>
<line vector-effect="non-scaling-stroke" style="&st0;" x1="190.5" y1="0.5" x2="190.5" y2="379.5"/>
<line vector-effect="non-scaling-stroke" style="&st0;" x1="284.5" y1="0.5" x2="284.5" y2="379.5"/>
<line vector-effect="non-scaling-stroke" style="&st0;" x1="379.5" y1="0.5" x2="379.5" y2="379.5"/>
<line vector-effect="non-scaling-stroke" style="&st0;" x1="474.5" y1="0.5" x2="474.5" y2="379.5"/>
<line vector-effect="non-scaling-stroke" style="&st0;" x1="569.5" y1="0.5" x2="569.5" y2="379.5"/>
<line vector-effect="non-scaling-stroke" style="&st0;" x1="663.5" y1="0.5" x2="663.5" y2="379.5"/>
<line vector-effect="non-scaling-stroke" style="&st0;" x1="758.5" y1="0.5" x2="758.5" y2="379.5"/>
<line vector-effect="non-scaling-stroke" style="&st0;" x1="0.5" y1="379.5" x2="758.5" y2="379.5"/>
<line vector-effect="non-scaling-stroke" style="&st0;" x1="0.5" y1="325.5" x2="758.5" y2="325.5"/>
<line vector-effect="non-scaling-stroke" style="&st0;" x1="0.5" y1="270.5" x2="758.5" y2="270.5"/>
<line vector-effect="non-scaling-stroke" style="&st0;" x1="0.5" y1="216.5" x2="758.5" y2="216.5"/>
<line vector-effect="non-scaling-stroke" style="&st0;" x1="0.5" y1="162.5" x2="758.5" y2="162.5"/>
<line vector-effect="non-scaling-stroke" style="&st0;" x1="0.5" y1="108.5" x2="758.5" y2="108.5"/>
<line vector-effect="non-scaling-stroke" style="&st0;" x1="0.5" y1="53.5" x2="758.5" y2="53.5"/>
<g transform="matrix(1,0,0,1,0,0)">
	<polyline vector-effect="non-scaling-stroke" style="&st1;" points="716.5,324.5 716.5,324.5 716.5,324.5 716.5,324.5 716.5,324.5 
		716.5,324.5 716.5,324.5 716.5,324.5 716.5,324.5 	"/>
</g>
<polyline style="&st2;" points="709.5,379.5 117.5,379.5 117.5,323.5 117.5,323.5 117.5,323.5 117.5,323.5 117.5,323.5 117.5,323.5 
	117.5,323.5 117.5,323.5 117.5,323.5 118.5,323.5 118.5,323.5 118.5,324.5 118.5,324.5 118.5,324.5 118.5,324.5 118.5,324.5 
	118.5,324.5 118.5,324.5 118.5,324.5 118.5,324.5 118.5,324.5 118.5,324.5 119.5,324.5 119.5,324.5 119.5,324.5 119.5,324.5 
	119.5,324.5 119.5,324.5 119.5,324.5 119.5,324.5 119.5,324.5 119.5,324.5 119.5,324.5 119.5,324.5 119.5,324.5 120.5,324.5 
	120.5,324.5 120.5,324.5 120.5,324.5 120.5,324.5 120.5,324.5 120.5,324.5 120.5,324.5 120.5,324.5 120.5,324.5 120.5,324.5 
	120.5,324.5 120.5,324.5 121.5,324.5 121.5,324.5 121.5,324.5 121.5,324.5 121.5,323.5 121.5,323.5 121.5,323.5 121.5,323.5 
	121.5,323.5 121.5,323.5 121.5,323.5 121.5,323.5 121.5,323.5 122.5,322.5 122.5,322.5 122.5,322.5 122.5,322.5 122.5,322.5 
	122.5,322.5 122.5,322.5 122.5,323.5 122.5,323.5 122.5,323.5 122.5,323.5 122.5,323.5 122.5,323.5 123.5,323.5 123.5,323.5 
	123.5,322.5 123.5,322.5 123.5,322.5 123.5,322.5 123.5,322.5 123.5,322.5 123.5,323.5 123.5,323.5 123.5,323.5 123.5,322.5 
	123.5,322.5 124.5,322.5 124.5,322.5 124.5,322.5 124.5,322.5 124.5,321.5 124.5,321.5 124.5,321.5 124.5,321.5 124.5,321.5 
	124.5,322.5 124.5,322.5 124.5,322.5 124.5,322.5 125.5,322.5 125.5,321.5 125.5,322.5 125.5,322.5 125.5,322.5 125.5,322.5 
	125.5,322.5 125.5,322.5 125.5,321.5 125.5,321.5 125.5,321.5 125.5,321.5 125.5,320.5 126.5,320.5 126.5,320.5 126.5,320.5 
	126.5,320.5 126.5,320.5 126.5,320.5 126.5,320.5 126.5,319.5 126.5,319.5 126.5,319.5 126.5,319.5 126.5,319.5 126.5,319.5 
	127.5,319.5 127.5,319.5 127.5,319.5 127.5,319.5 127.5,319.5 127.5,319.5 127.5,319.5 127.5,318.5 127.5,318.5 127.5,318.5 
	127.5,318.5 127.5,318.5 127.5,318.5 128.5,318.5 128.5,318.5 128.5,317.5 128.5,317.5 128.5,317.5 128.5,317.5 128.5,317.5 
	128.5,316.5 128.5,316.5 128.5,316.5 128.5,316.5 128.5,316.5 128.5,316.5 129.5,316.5 129.5,316.5 129.5,316.5 129.5,316.5 
	129.5,316.5 129.5,316.5 129.5,316.5 129.5,316.5 129.5,316.5 129.5,316.5 129.5,316.5 129.5,316.5 129.5,316.5 130.5,316.5 
	130.5,316.5 130.5,316.5 130.5,316.5 130.5,316.5 130.5,316.5 130.5,316.5 130.5,316.5 130.5,316.5 130.5,316.5 130.5,316.5 
	130.5,316.5 130.5,316.5 131.5,316.5 131.5,316.5 131.5,316.5 131.5,316.5 131.5,316.5 131.5,316.5 131.5,316.5 131.5,316.5 
	131.5,316.5 131.5,316.5 131.5,316.5 131.5,316.5 131.5,316.5 132.5,316.5 132.5,316.5 132.5,316.5 132.5,316.5 132.5,316.5 
	132.5,316.5 132.5,316.5 132.5,316.5 132.5,316.5 132.5,316.5 132.5,316.5 132.5,317.5 132.5,317.5 133.5,317.5 133.5,317.5 
	133.5,317.5 133.5,317.5 133.5,318.5 133.5,317.5 133.5,317.5 133.5,317.5 133.5,317.5 133.5,317.5 133.5,317.5 133.5,317.5 
	133.5,317.5 134.5,318.5 134.5,318.5 134.5,319.5 134.5,319.5 134.5,319.5 134.5,319.5 134.5,319.5 134.5,319.5 134.5,319.5 
	134.5,319.5 134.5,319.5 134.5,319.5 134.5,320.5 135.5,320.5 135.5,320.5 135.5,321.5 135.5,321.5 135.5,321.5 135.5,321.5 
	135.5,321.5 135.5,322.5 135.5,322.5 135.5,323.5 135.5,323.5 135.5,323.5 135.5,324.5 136.5,324.5 136.5,324.5 136.5,324.5 
	136.5,324.5 136.5,324.5 136.5,325.5 136.5,325.5 136.5,325.5 136.5,325.5 136.5,325.5 136.5,325.5 136.5,325.5 136.5,325.5 
	137.5,326.5 137.5,326.5 137.5,327.5 137.5,327.5 137.5,327.5 137.5,327.5 137.5,327.5 137.5,326.5 137.5,326.5 137.5,326.5 
	137.5,326.5 137.5,326.5 137.5,326.5 138.5,327.5 138.5,327.5 138.5,327.5 138.5,327.5 138.5,327.5 138.5,327.5 138.5,327.5 
	138.5,327.5 138.5,327.5 138.5,327.5 138.5,327.5 138.5,327.5 138.5,326.5 139.5,326.5 139.5,326.5 139.5,326.5 139.5,326.5 
	139.5,326.5 139.5,326.5 139.5,326.5 139.5,326.5 139.5,326.5 139.5,327.5 139.5,327.5 139.5,327.5 139.5,326.5 140.5,326.5 
	140.5,326.5 140.5,326.5 140.5,325.5 140.5,325.5 140.5,325.5 140.5,325.5 140.5,325.5 140.5,325.5 140.5,325.5 140.5,325.5 
	140.5,325.5 140.5,325.5 141.5,325.5 141.5,325.5 141.5,325.5 141.5,325.5 141.5,325.5 141.5,325.5 141.5,325.5 141.5,325.5 
	141.5,324.5 141.5,325.5 141.5,325.5 141.5,325.5 141.5,325.5 142.5,325.5 142.5,325.5 142.5,325.5 142.5,325.5 142.5,325.5 
	142.5,325.5 142.5,325.5 142.5,325.5 142.5,325.5 142.5,325.5 142.5,325.5 142.5,326.5 142.5,326.5 143.5,326.5 143.5,326.5 
	143.5,326.5 143.5,326.5 143.5,326.5 143.5,327.5 143.5,327.5 143.5,327.5 143.5,327.5 143.5,327.5 143.5,328.5 143.5,328.5 
	143.5,328.5 144.5,328.5 144.5,328.5 144.5,329.5 144.5,329.5 144.5,329.5 144.5,329.5 144.5,329.5 144.5,329.5 144.5,329.5 
	144.5,329.5 144.5,329.5 144.5,329.5 144.5,329.5 145.5,329.5 145.5,328.5 145.5,328.5 145.5,328.5 145.5,328.5 145.5,328.5 
	145.5,328.5 145.5,328.5 145.5,328.5 145.5,327.5 145.5,327.5 145.5,327.5 145.5,327.5 146.5,327.5 146.5,327.5 146.5,327.5 
	146.5,327.5 146.5,327.5 146.5,327.5 146.5,327.5 146.5,327.5 146.5,327.5 146.5,327.5 146.5,327.5 146.5,326.5 146.5,326.5 
	147.5,326.5 147.5,325.5 147.5,325.5 147.5,325.5 147.5,325.5 147.5,325.5 147.5,325.5 147.5,325.5 147.5,325.5 147.5,326.5 
	147.5,325.5 147.5,325.5 147.5,325.5 148.5,325.5 148.5,325.5 148.5,325.5 148.5,325.5 148.5,325.5 148.5,325.5 148.5,325.5 
	148.5,325.5 148.5,325.5 148.5,325.5 148.5,325.5 148.5,325.5 148.5,325.5 149.5,325.5 149.5,325.5 149.5,325.5 149.5,324.5 
	149.5,324.5 149.5,324.5 149.5,324.5 149.5,324.5 149.5,324.5 149.5,324.5 149.5,325.5 149.5,325.5 149.5,325.5 150.5,325.5 
	150.5,325.5 150.5,325.5 150.5,325.5 150.5,325.5 150.5,324.5 150.5,324.5 150.5,324.5 150.5,324.5 150.5,324.5 150.5,324.5 
	150.5,324.5 150.5,324.5 151.5,324.5 151.5,324.5 151.5,324.5 151.5,324.5 151.5,324.5 151.5,324.5 151.5,324.5 151.5,323.5 
	151.5,323.5 151.5,323.5 151.5,323.5 151.5,323.5 151.5,323.5 152.5,323.5 152.5,323.5 152.5,323.5 152.5,323.5 152.5,323.5 
	152.5,323.5 152.5,323.5 152.5,323.5 152.5,323.5 152.5,323.5 152.5,323.5 152.5,323.5 152.5,323.5 153.5,322.5 153.5,322.5 
	153.5,322.5 153.5,322.5 153.5,322.5 153.5,322.5 153.5,322.5 153.5,322.5 153.5,322.5 153.5,322.5 153.5,322.5 153.5,322.5 
	153.5,322.5 154.5,322.5 154.5,322.5 154.5,322.5 154.5,322.5 154.5,322.5 154.5,322.5 154.5,322.5 154.5,322.5 154.5,322.5 
	154.5,322.5 154.5,322.5 154.5,322.5 154.5,321.5 155.5,321.5 155.5,321.5 155.5,321.5 155.5,321.5 155.5,321.5 155.5,321.5 
	155.5,321.5 155.5,321.5 155.5,321.5 155.5,320.5 155.5,320.5 155.5,321.5 155.5,321.5 156.5,321.5 156.5,321.5 156.5,320.5 
	156.5,320.5 156.5,320.5 156.5,320.5 156.5,320.5 156.5,320.5 156.5,320.5 156.5,320.5 156.5,320.5 156.5,320.5 156.5,320.5 
	157.5,320.5 157.5,320.5 157.5,320.5 157.5,320.5 157.5,319.5 157.5,319.5 157.5,319.5 157.5,319.5 157.5,319.5 157.5,319.5 
	157.5,319.5 157.5,318.5 157.5,318.5 158.5,318.5 158.5,318.5 158.5,318.5 158.5,318.5 158.5,318.5 158.5,318.5 158.5,317.5 
	158.5,317.5 158.5,317.5 158.5,317.5 158.5,317.5 158.5,317.5 158.5,317.5 159.5,317.5 159.5,316.5 159.5,316.5 159.5,316.5 
	159.5,316.5 159.5,316.5 159.5,316.5 159.5,316.5 159.5,316.5 159.5,316.5 159.5,316.5 159.5,316.5 159.5,316.5 160.5,316.5 
	160.5,315.5 160.5,315.5 160.5,315.5 160.5,315.5 160.5,315.5 160.5,315.5 160.5,315.5 160.5,315.5 160.5,315.5 160.5,315.5 
	160.5,316.5 160.5,316.5 161.5,316.5 161.5,316.5 161.5,317.5 161.5,317.5 161.5,317.5 161.5,317.5 161.5,317.5 161.5,317.5 
	161.5,318.5 161.5,318.5 161.5,318.5 161.5,318.5 161.5,318.5 162.5,318.5 162.5,318.5 162.5,317.5 162.5,317.5 162.5,317.5 
	162.5,317.5 162.5,317.5 162.5,317.5 162.5,317.5 162.5,317.5 162.5,317.5 162.5,317.5 162.5,316.5 163.5,316.5 163.5,316.5 
	163.5,316.5 163.5,316.5 163.5,315.5 163.5,315.5 163.5,315.5 163.5,315.5 163.5,316.5 163.5,315.5 163.5,315.5 163.5,315.5 
	163.5,315.5 164.5,315.5 164.5,315.5 164.5,315.5 164.5,315.5 164.5,315.5 164.5,315.5 164.5,315.5 164.5,315.5 164.5,315.5 
	164.5,315.5 164.5,315.5 164.5,315.5 164.5,315.5 165.5,315.5 165.5,315.5 165.5,315.5 165.5,315.5 165.5,315.5 165.5,315.5 
	165.5,314.5 165.5,314.5 165.5,314.5 165.5,314.5 165.5,314.5 165.5,314.5 165.5,314.5 166.5,314.5 166.5,314.5 166.5,314.5 
	166.5,314.5 166.5,314.5 166.5,314.5 166.5,314.5 166.5,314.5 166.5,314.5 166.5,314.5 166.5,314.5 166.5,314.5 166.5,314.5 
	167.5,314.5 167.5,314.5 167.5,314.5 167.5,314.5 167.5,314.5 167.5,314.5 167.5,314.5 167.5,314.5 167.5,314.5 167.5,314.5 
	167.5,314.5 167.5,314.5 167.5,314.5 168.5,314.5 168.5,313.5 168.5,313.5 168.5,313.5 168.5,313.5 168.5,313.5 168.5,313.5 
	168.5,313.5 168.5,313.5 168.5,312.5 168.5,312.5 168.5,312.5 168.5,312.5 169.5,312.5 169.5,312.5 169.5,312.5 169.5,311.5 
	169.5,311.5 169.5,311.5 169.5,311.5 169.5,311.5 169.5,311.5 169.5,311.5 169.5,311.5 169.5,311.5 169.5,311.5 170.5,311.5 
	170.5,311.5 170.5,311.5 170.5,311.5 170.5,310.5 170.5,310.5 170.5,310.5 170.5,310.5 170.5,310.5 170.5,310.5 170.5,310.5 
	170.5,310.5 170.5,310.5 171.5,310.5 171.5,310.5 171.5,310.5 171.5,309.5 171.5,309.5 171.5,309.5 171.5,309.5 171.5,309.5 
	171.5,309.5 171.5,309.5 171.5,309.5 171.5,309.5 171.5,309.5 172.5,309.5 172.5,309.5 172.5,309.5 172.5,309.5 172.5,309.5 
	172.5,309.5 172.5,309.5 172.5,309.5 172.5,308.5 172.5,308.5 172.5,308.5 172.5,308.5 172.5,308.5 173.5,308.5 173.5,308.5 
	173.5,309.5 173.5,309.5 173.5,309.5 173.5,309.5 173.5,309.5 173.5,309.5 173.5,308.5 173.5,308.5 173.5,308.5 173.5,308.5 
	173.5,308.5 174.5,308.5 174.5,308.5 174.5,308.5 174.5,308.5 174.5,308.5 174.5,308.5 174.5,308.5 174.5,307.5 174.5,307.5 
	174.5,307.5 174.5,307.5 174.5,307.5 174.5,307.5 175.5,307.5 175.5,307.5 175.5,307.5 175.5,307.5 175.5,307.5 175.5,306.5 
	175.5,306.5 175.5,306.5 175.5,306.5 175.5,306.5 175.5,306.5 175.5,306.5 175.5,306.5 176.5,306.5 176.5,306.5 176.5,306.5 
	176.5,306.5 176.5,306.5 176.5,306.5 176.5,306.5 176.5,306.5 176.5,306.5 176.5,306.5 176.5,306.5 176.5,306.5 176.5,306.5 
	177.5,306.5 177.5,306.5 177.5,306.5 177.5,305.5 177.5,305.5 177.5,305.5 177.5,305.5 177.5,305.5 177.5,305.5 177.5,305.5 
	177.5,305.5 177.5,304.5 177.5,304.5 178.5,305.5 178.5,305.5 178.5,305.5 178.5,305.5 178.5,304.5 178.5,304.5 178.5,304.5 
	178.5,304.5 178.5,304.5 178.5,304.5 178.5,304.5 178.5,304.5 178.5,304.5 179.5,304.5 179.5,304.5 179.5,304.5 179.5,304.5 
	179.5,304.5 179.5,303.5 179.5,303.5 179.5,303.5 179.5,303.5 179.5,303.5 179.5,303.5 179.5,303.5 179.5,303.5 180.5,303.5 
	180.5,303.5 180.5,302.5 180.5,302.5 180.5,302.5 180.5,302.5 180.5,302.5 180.5,302.5 180.5,302.5 180.5,302.5 180.5,302.5 
	180.5,302.5 180.5,301.5 181.5,301.5 181.5,301.5 181.5,301.5 181.5,301.5 181.5,301.5 181.5,301.5 181.5,301.5 181.5,301.5 
	181.5,300.5 181.5,300.5 181.5,300.5 181.5,300.5 181.5,300.5 182.5,300.5 182.5,299.5 182.5,299.5 182.5,299.5 182.5,299.5 
	182.5,299.5 182.5,299.5 182.5,299.5 182.5,298.5 182.5,298.5 182.5,298.5 182.5,298.5 182.5,298.5 183.5,298.5 183.5,298.5 
	183.5,298.5 183.5,298.5 183.5,298.5 183.5,298.5 183.5,298.5 183.5,298.5 183.5,298.5 183.5,297.5 183.5,297.5 183.5,297.5 
	183.5,297.5 184.5,297.5 184.5,297.5 184.5,297.5 184.5,297.5 184.5,296.5 184.5,296.5 184.5,296.5 184.5,296.5 184.5,296.5 
	184.5,296.5 184.5,296.5 184.5,296.5 184.5,296.5 185.5,296.5 185.5,296.5 185.5,296.5 185.5,296.5 185.5,296.5 185.5,296.5 
	185.5,296.5 185.5,295.5 185.5,295.5 185.5,295.5 185.5,295.5 185.5,295.5 185.5,295.5 186.5,295.5 186.5,295.5 186.5,295.5 
	186.5,295.5 186.5,295.5 186.5,294.5 186.5,294.5 186.5,294.5 186.5,294.5 186.5,294.5 186.5,294.5 186.5,294.5 186.5,294.5 
	187.5,294.5 187.5,294.5 187.5,293.5 187.5,293.5 187.5,293.5 187.5,293.5 187.5,293.5 187.5,293.5 187.5,293.5 187.5,293.5 
	187.5,293.5 187.5,293.5 187.5,293.5 188.5,293.5 188.5,292.5 188.5,292.5 188.5,292.5 188.5,292.5 188.5,292.5 188.5,292.5 
	188.5,292.5 188.5,292.5 188.5,292.5 188.5,292.5 188.5,292.5 188.5,291.5 189.5,291.5 189.5,291.5 189.5,291.5 189.5,291.5 
	189.5,291.5 189.5,291.5 189.5,291.5 189.5,291.5 189.5,291.5 189.5,290.5 189.5,290.5 189.5,290.5 189.5,290.5 190.5,290.5 
	190.5,290.5 190.5,290.5 190.5,290.5 190.5,289.5 190.5,289.5 190.5,289.5 190.5,289.5 190.5,289.5 190.5,289.5 190.5,288.5 
	190.5,288.5 190.5,288.5 191.5,288.5 191.5,288.5 191.5,288.5 191.5,288.5 191.5,289.5 191.5,288.5 191.5,288.5 191.5,288.5 
	191.5,288.5 191.5,288.5 191.5,288.5 191.5,288.5 191.5,288.5 192.5,288.5 192.5,289.5 192.5,289.5 192.5,289.5 192.5,289.5 
	192.5,289.5 192.5,289.5 192.5,289.5 192.5,290.5 192.5,290.5 192.5,290.5 192.5,290.5 192.5,290.5 193.5,289.5 193.5,289.5 
	193.5,289.5 193.5,288.5 193.5,288.5 193.5,288.5 193.5,288.5 193.5,288.5 193.5,288.5 193.5,288.5 193.5,288.5 193.5,288.5 
	193.5,287.5 194.5,287.5 194.5,287.5 194.5,287.5 194.5,287.5 194.5,287.5 194.5,286.5 194.5,286.5 194.5,286.5 194.5,286.5 
	194.5,286.5 194.5,285.5 194.5,285.5 194.5,285.5 195.5,285.5 195.5,284.5 195.5,284.5 195.5,284.5 195.5,284.5 195.5,284.5 
	195.5,284.5 195.5,284.5 195.5,284.5 195.5,284.5 195.5,284.5 195.5,284.5 195.5,283.5 196.5,283.5 196.5,283.5 196.5,283.5 
	196.5,283.5 196.5,283.5 196.5,283.5 196.5,282.5 196.5,282.5 196.5,282.5 196.5,282.5 196.5,282.5 196.5,282.5 196.5,282.5 
	197.5,282.5 197.5,282.5 197.5,282.5 197.5,281.5 197.5,281.5 197.5,281.5 197.5,281.5 197.5,281.5 197.5,281.5 197.5,281.5 
	197.5,281.5 197.5,280.5 197.5,280.5 198.5,280.5 198.5,280.5 198.5,280.5 198.5,280.5 198.5,280.5 198.5,280.5 198.5,280.5 
	198.5,280.5 198.5,279.5 198.5,279.5 198.5,279.5 198.5,279.5 198.5,279.5 199.5,279.5 199.5,279.5 199.5,279.5 199.5,279.5 
	199.5,279.5 199.5,279.5 199.5,279.5 199.5,279.5 199.5,279.5 199.5,279.5 199.5,279.5 199.5,278.5 199.5,278.5 200.5,278.5 
	200.5,278.5 200.5,278.5 200.5,278.5 200.5,278.5 200.5,278.5 200.5,278.5 200.5,278.5 200.5,278.5 200.5,278.5 200.5,278.5 
	200.5,278.5 200.5,278.5 201.5,278.5 201.5,278.5 201.5,278.5 201.5,277.5 201.5,277.5 201.5,277.5 201.5,278.5 201.5,278.5 
	201.5,278.5 201.5,278.5 201.5,278.5 201.5,278.5 201.5,278.5 202.5,277.5 202.5,277.5 202.5,277.5 202.5,277.5 202.5,276.5 
	202.5,276.5 202.5,275.5 202.5,275.5 202.5,275.5 202.5,275.5 202.5,274.5 202.5,274.5 202.5,274.5 203.5,274.5 203.5,274.5 
	203.5,274.5 203.5,274.5 203.5,274.5 203.5,274.5 203.5,274.5 203.5,273.5 203.5,273.5 203.5,272.5 203.5,272.5 203.5,272.5 
	203.5,271.5 204.5,271.5 204.5,271.5 204.5,271.5 204.5,271.5 204.5,271.5 204.5,270.5 204.5,270.5 204.5,270.5 204.5,270.5 
	204.5,270.5 204.5,270.5 204.5,269.5 204.5,269.5 205.5,268.5 205.5,268.5 205.5,268.5 205.5,268.5 205.5,268.5 205.5,268.5 
	205.5,267.5 205.5,267.5 205.5,267.5 205.5,267.5 205.5,267.5 205.5,267.5 205.5,267.5 206.5,267.5 206.5,267.5 206.5,267.5 
	206.5,267.5 206.5,267.5 206.5,266.5 206.5,266.5 206.5,266.5 206.5,266.5 206.5,265.5 206.5,265.5 206.5,265.5 206.5,265.5 
	207.5,266.5 207.5,266.5 207.5,265.5 207.5,265.5 207.5,265.5 207.5,265.5 207.5,265.5 207.5,265.5 207.5,264.5 207.5,264.5 
	207.5,264.5 207.5,264.5 207.5,264.5 208.5,264.5 208.5,264.5 208.5,264.5 208.5,263.5 208.5,263.5 208.5,263.5 208.5,263.5 
	208.5,263.5 208.5,263.5 208.5,263.5 208.5,263.5 208.5,263.5 208.5,263.5 209.5,262.5 209.5,262.5 209.5,262.5 209.5,262.5 
	209.5,261.5 209.5,261.5 209.5,261.5 209.5,261.5 209.5,261.5 209.5,261.5 209.5,260.5 209.5,260.5 209.5,260.5 210.5,260.5 
	210.5,260.5 210.5,259.5 210.5,259.5 210.5,259.5 210.5,259.5 210.5,259.5 210.5,259.5 210.5,258.5 210.5,258.5 210.5,258.5 
	210.5,257.5 210.5,257.5 211.5,257.5 211.5,257.5 211.5,256.5 211.5,256.5 211.5,256.5 211.5,256.5 211.5,255.5 211.5,255.5 
	211.5,254.5 211.5,254.5 211.5,253.5 211.5,252.5 211.5,251.5 212.5,251.5 212.5,250.5 212.5,249.5 212.5,248.5 212.5,248.5 
	212.5,247.5 212.5,247.5 212.5,247.5 212.5,247.5 212.5,247.5 212.5,247.5 212.5,247.5 212.5,247.5 213.5,246.5 213.5,246.5 
	213.5,246.5 213.5,245.5 213.5,245.5 213.5,244.5 213.5,244.5 213.5,243.5 213.5,242.5 213.5,242.5 213.5,241.5 213.5,241.5 
	213.5,240.5 214.5,239.5 214.5,239.5 214.5,238.5 214.5,238.5 214.5,237.5 214.5,237.5 214.5,237.5 214.5,236.5 214.5,236.5 
	214.5,236.5 214.5,235.5 214.5,235.5 214.5,235.5 215.5,235.5 215.5,234.5 215.5,234.5 215.5,234.5 215.5,234.5 215.5,234.5 
	215.5,233.5 215.5,233.5 215.5,232.5 215.5,232.5 215.5,232.5 215.5,231.5 215.5,230.5 216.5,230.5 216.5,229.5 216.5,228.5 
	216.5,227.5 216.5,226.5 216.5,226.5 216.5,225.5 216.5,223.5 216.5,222.5 216.5,221.5 216.5,219.5 216.5,218.5 216.5,216.5 
	217.5,215.5 217.5,215.5 217.5,215.5 217.5,215.5 217.5,215.5 217.5,214.5 217.5,214.5 217.5,214.5 217.5,214.5 217.5,213.5 
	217.5,213.5 217.5,213.5 217.5,212.5 218.5,212.5 218.5,212.5 218.5,212.5 218.5,212.5 218.5,212.5 218.5,211.5 218.5,211.5 
	218.5,211.5 218.5,211.5 218.5,211.5 218.5,211.5 218.5,211.5 218.5,210.5 219.5,210.5 219.5,210.5 219.5,209.5 219.5,209.5 
	219.5,209.5 219.5,209.5 219.5,208.5 219.5,208.5 219.5,208.5 219.5,208.5 219.5,209.5 219.5,209.5 219.5,209.5 220.5,209.5 
	220.5,209.5 220.5,209.5 220.5,209.5 220.5,209.5 220.5,208.5 220.5,208.5 220.5,209.5 220.5,208.5 220.5,208.5 220.5,208.5 
	220.5,208.5 220.5,209.5 221.5,210.5 221.5,212.5 221.5,213.5 221.5,214.5 221.5,216.5 221.5,218.5 221.5,220.5 221.5,221.5 
	221.5,223.5 221.5,225.5 221.5,227.5 221.5,228.5 221.5,229.5 222.5,230.5 222.5,231.5 222.5,233.5 222.5,234.5 222.5,234.5 
	222.5,235.5 222.5,236.5 222.5,236.5 222.5,236.5 222.5,237.5 222.5,237.5 222.5,237.5 222.5,236.5 223.5,235.5 223.5,236.5 
	223.5,236.5 223.5,236.5 223.5,236.5 223.5,236.5 223.5,236.5 223.5,236.5 223.5,236.5 223.5,236.5 223.5,236.5 223.5,235.5 
	223.5,235.5 224.5,235.5 224.5,234.5 224.5,234.5 224.5,234.5 224.5,234.5 224.5,234.5 224.5,233.5 224.5,233.5 224.5,233.5 
	224.5,232.5 224.5,231.5 224.5,230.5 224.5,229.5 225.5,228.5 225.5,227.5 225.5,226.5 225.5,225.5 225.5,224.5 225.5,222.5 
	225.5,222.5 225.5,221.5 225.5,220.5 225.5,219.5 225.5,219.5 225.5,218.5 225.5,217.5 226.5,217.5 226.5,217.5 226.5,216.5 
	226.5,216.5 226.5,216.5 226.5,215.5 226.5,215.5 226.5,215.5 226.5,216.5 226.5,215.5 226.5,215.5 226.5,215.5 226.5,215.5 
	227.5,215.5 227.5,215.5 227.5,215.5 227.5,215.5 227.5,215.5 227.5,215.5 227.5,215.5 227.5,214.5 227.5,214.5 227.5,214.5 
	227.5,214.5 227.5,213.5 227.5,213.5 228.5,213.5 228.5,212.5 228.5,213.5 228.5,213.5 228.5,213.5 228.5,213.5 228.5,213.5 
	228.5,212.5 228.5,212.5 228.5,213.5 228.5,212.5 228.5,212.5 228.5,212.5 229.5,212.5 229.5,211.5 229.5,211.5 229.5,211.5 
	229.5,211.5 229.5,211.5 229.5,211.5 229.5,211.5 229.5,211.5 229.5,211.5 229.5,211.5 229.5,211.5 229.5,211.5 230.5,211.5 
	230.5,211.5 230.5,210.5 230.5,210.5 230.5,209.5 230.5,208.5 230.5,207.5 230.5,206.5 230.5,206.5 230.5,205.5 230.5,204.5 
	230.5,203.5 230.5,202.5 231.5,201.5 231.5,200.5 231.5,199.5 231.5,198.5 231.5,197.5 231.5,196.5 231.5,195.5 231.5,194.5 
	231.5,193.5 231.5,193.5 231.5,192.5 231.5,191.5 231.5,190.5 232.5,189.5 232.5,189.5 232.5,188.5 232.5,187.5 232.5,187.5 
	232.5,186.5 232.5,185.5 232.5,185.5 232.5,184.5 232.5,183.5 232.5,183.5 232.5,182.5 232.5,182.5 233.5,181.5 233.5,180.5 
	233.5,180.5 233.5,179.5 233.5,178.5 233.5,177.5 233.5,176.5 233.5,175.5 233.5,175.5 233.5,175.5 233.5,174.5 233.5,173.5 
	233.5,172.5 234.5,172.5 234.5,171.5 234.5,170.5 234.5,170.5 234.5,169.5 234.5,168.5 234.5,167.5 234.5,167.5 234.5,166.5 
	234.5,165.5 234.5,164.5 234.5,164.5 234.5,163.5 235.5,163.5 235.5,162.5 235.5,162.5 235.5,161.5 235.5,161.5 235.5,161.5 
	235.5,160.5 235.5,160.5 235.5,159.5 235.5,159.5 235.5,158.5 235.5,158.5 235.5,158.5 236.5,157.5 236.5,157.5 236.5,157.5 
	236.5,157.5 236.5,156.5 236.5,156.5 236.5,156.5 236.5,156.5 236.5,156.5 236.5,156.5 236.5,156.5 236.5,155.5 236.5,155.5 
	237.5,155.5 237.5,155.5 237.5,155.5 237.5,155.5 237.5,155.5 237.5,155.5 237.5,155.5 237.5,155.5 237.5,155.5 237.5,155.5 
	237.5,156.5 237.5,156.5 237.5,156.5 238.5,156.5 238.5,157.5 238.5,157.5 238.5,157.5 238.5,157.5 238.5,157.5 238.5,157.5 
	238.5,157.5 238.5,156.5 238.5,156.5 238.5,156.5 238.5,155.5 238.5,155.5 239.5,155.5 239.5,154.5 239.5,154.5 239.5,154.5 
	239.5,154.5 239.5,154.5 239.5,154.5 239.5,154.5 239.5,154.5 239.5,154.5 239.5,154.5 239.5,154.5 239.5,154.5 240.5,154.5 
	240.5,154.5 240.5,154.5 240.5,155.5 240.5,155.5 240.5,155.5 240.5,155.5 240.5,155.5 240.5,156.5 240.5,156.5 240.5,156.5 
	240.5,156.5 240.5,157.5 241.5,157.5 241.5,157.5 241.5,157.5 241.5,157.5 241.5,158.5 241.5,158.5 241.5,158.5 241.5,158.5 
	241.5,158.5 241.5,159.5 241.5,159.5 241.5,159.5 241.5,159.5 242.5,160.5 242.5,160.5 242.5,161.5 242.5,161.5 242.5,161.5 
	242.5,161.5 242.5,162.5 242.5,162.5 242.5,162.5 242.5,162.5 242.5,162.5 242.5,162.5 242.5,162.5 243.5,162.5 243.5,162.5 
	243.5,162.5 243.5,162.5 243.5,162.5 243.5,163.5 243.5,163.5 243.5,162.5 243.5,162.5 243.5,162.5 243.5,162.5 243.5,162.5 
	243.5,162.5 244.5,162.5 244.5,162.5 244.5,162.5 244.5,162.5 244.5,162.5 244.5,162.5 244.5,162.5 244.5,163.5 244.5,163.5 
	244.5,163.5 244.5,162.5 244.5,162.5 244.5,162.5 245.5,162.5 245.5,162.5 245.5,162.5 245.5,162.5 245.5,162.5 245.5,161.5 
	245.5,161.5 245.5,161.5 245.5,161.5 245.5,161.5 245.5,161.5 245.5,161.5 245.5,161.5 246.5,162.5 246.5,162.5 246.5,163.5 
	246.5,163.5 246.5,164.5 246.5,165.5 246.5,165.5 246.5,166.5 246.5,166.5 246.5,167.5 246.5,168.5 246.5,168.5 246.5,169.5 
	247.5,169.5 247.5,170.5 247.5,170.5 247.5,171.5 247.5,171.5 247.5,172.5 247.5,172.5 247.5,173.5 247.5,173.5 247.5,174.5 
	247.5,174.5 247.5,174.5 247.5,175.5 248.5,175.5 248.5,175.5 248.5,176.5 248.5,176.5 248.5,176.5 248.5,177.5 248.5,177.5 
	248.5,177.5 248.5,178.5 248.5,178.5 248.5,179.5 248.5,179.5 248.5,179.5 249.5,180.5 249.5,180.5 249.5,180.5 249.5,181.5 
	249.5,181.5 249.5,181.5 249.5,181.5 249.5,181.5 249.5,181.5 249.5,181.5 249.5,181.5 249.5,180.5 249.5,180.5 250.5,179.5 
	250.5,179.5 250.5,178.5 250.5,178.5 250.5,177.5 250.5,176.5 250.5,176.5 250.5,175.5 250.5,175.5 250.5,174.5 250.5,174.5 
	250.5,173.5 250.5,173.5 251.5,172.5 251.5,172.5 251.5,172.5 251.5,172.5 251.5,172.5 251.5,172.5 251.5,172.5 251.5,172.5 
	251.5,172.5 251.5,172.5 251.5,172.5 251.5,172.5 251.5,172.5 252.5,172.5 252.5,172.5 252.5,172.5 252.5,172.5 252.5,172.5 
	252.5,172.5 252.5,173.5 252.5,173.5 252.5,173.5 252.5,174.5 252.5,174.5 252.5,174.5 252.5,175.5 253.5,175.5 253.5,175.5 
	253.5,175.5 253.5,176.5 253.5,176.5 253.5,176.5 253.5,177.5 253.5,177.5 253.5,177.5 253.5,178.5 253.5,178.5 253.5,178.5 
	253.5,179.5 254.5,179.5 254.5,179.5 254.5,179.5 254.5,180.5 254.5,179.5 254.5,179.5 254.5,179.5 254.5,179.5 254.5,179.5 
	254.5,179.5 254.5,179.5 254.5,178.5 254.5,178.5 255.5,178.5 255.5,177.5 255.5,177.5 255.5,177.5 255.5,176.5 255.5,176.5 
	255.5,175.5 255.5,175.5 255.5,175.5 255.5,174.5 255.5,174.5 255.5,174.5 255.5,173.5 256.5,173.5 256.5,172.5 256.5,172.5 
	256.5,172.5 256.5,171.5 256.5,171.5 256.5,171.5 256.5,170.5 256.5,170.5 256.5,170.5 256.5,169.5 256.5,169.5 256.5,169.5 
	257.5,168.5 257.5,168.5 257.5,168.5 257.5,168.5 257.5,167.5 257.5,167.5 257.5,166.5 257.5,166.5 257.5,166.5 257.5,166.5 
	257.5,166.5 257.5,166.5 257.5,166.5 258.5,165.5 258.5,165.5 258.5,165.5 258.5,164.5 258.5,164.5 258.5,164.5 258.5,164.5 
	258.5,164.5 258.5,164.5 258.5,163.5 258.5,163.5 258.5,163.5 258.5,163.5 259.5,162.5 259.5,162.5 259.5,162.5 259.5,161.5 
	259.5,161.5 259.5,161.5 259.5,160.5 259.5,160.5 259.5,159.5 259.5,159.5 259.5,159.5 259.5,158.5 259.5,158.5 260.5,158.5 
	260.5,158.5 260.5,158.5 260.5,157.5 260.5,157.5 260.5,157.5 260.5,157.5 260.5,157.5 260.5,157.5 260.5,157.5 260.5,157.5 
	260.5,157.5 260.5,157.5 261.5,157.5 261.5,157.5 261.5,157.5 261.5,157.5 261.5,157.5 261.5,157.5 261.5,157.5 261.5,157.5 
	261.5,157.5 261.5,157.5 261.5,157.5 261.5,157.5 261.5,157.5 262.5,157.5 262.5,157.5 262.5,157.5 262.5,157.5 262.5,157.5 
	262.5,158.5 262.5,158.5 262.5,158.5 262.5,158.5 262.5,158.5 262.5,158.5 262.5,159.5 262.5,159.5 263.5,159.5 263.5,159.5 
	263.5,160.5 263.5,160.5 263.5,160.5 263.5,160.5 263.5,161.5 263.5,161.5 263.5,161.5 263.5,161.5 263.5,161.5 263.5,162.5 
	263.5,162.5 264.5,162.5 264.5,162.5 264.5,163.5 264.5,163.5 264.5,163.5 264.5,163.5 264.5,164.5 264.5,164.5 264.5,164.5 
	264.5,164.5 264.5,164.5 264.5,165.5 264.5,165.5 265.5,165.5 265.5,166.5 265.5,166.5 265.5,167.5 265.5,167.5 265.5,167.5 
	265.5,168.5 265.5,168.5 265.5,168.5 265.5,169.5 265.5,169.5 265.5,169.5 265.5,169.5 266.5,170.5 266.5,170.5 266.5,170.5 
	266.5,170.5 266.5,171.5 266.5,171.5 266.5,171.5 266.5,171.5 266.5,172.5 266.5,172.5 266.5,173.5 266.5,173.5 266.5,173.5 
	267.5,174.5 267.5,174.5 267.5,175.5 267.5,176.5 267.5,176.5 267.5,176.5 267.5,176.5 267.5,177.5 267.5,177.5 267.5,178.5 
	267.5,178.5 267.5,178.5 267.5,179.5 268.5,179.5 268.5,179.5 268.5,179.5 268.5,179.5 268.5,179.5 268.5,179.5 268.5,178.5 
	268.5,178.5 268.5,178.5 268.5,178.5 268.5,178.5 268.5,178.5 268.5,178.5 269.5,177.5 269.5,177.5 269.5,177.5 269.5,176.5 
	269.5,176.5 269.5,176.5 269.5,175.5 269.5,175.5 269.5,175.5 269.5,174.5 269.5,174.5 269.5,174.5 269.5,173.5 270.5,173.5 
	270.5,173.5 270.5,173.5 270.5,172.5 270.5,172.5 270.5,172.5 270.5,171.5 270.5,171.5 270.5,171.5 270.5,170.5 270.5,170.5 
	270.5,170.5 270.5,170.5 271.5,169.5 271.5,169.5 271.5,169.5 271.5,169.5 271.5,168.5 271.5,168.5 271.5,168.5 271.5,168.5 
	271.5,167.5 271.5,167.5 271.5,167.5 271.5,166.5 271.5,166.5 272.5,166.5 272.5,166.5 272.5,166.5 272.5,165.5 272.5,165.5 
	272.5,165.5 272.5,165.5 272.5,165.5 272.5,165.5 272.5,165.5 272.5,166.5 272.5,166.5 272.5,166.5 273.5,166.5 273.5,166.5 
	273.5,166.5 273.5,166.5 273.5,166.5 273.5,166.5 273.5,166.5 273.5,166.5 273.5,166.5 273.5,166.5 273.5,167.5 273.5,167.5 
	273.5,167.5 274.5,168.5 274.5,168.5 274.5,168.5 274.5,169.5 274.5,169.5 274.5,169.5 274.5,170.5 274.5,170.5 274.5,170.5 
	274.5,170.5 274.5,171.5 274.5,171.5 274.5,171.5 275.5,171.5 275.5,172.5 275.5,172.5 275.5,172.5 275.5,173.5 275.5,173.5 
	275.5,173.5 275.5,174.5 275.5,174.5 275.5,174.5 275.5,175.5 275.5,175.5 275.5,175.5 276.5,175.5 276.5,176.5 276.5,176.5 
	276.5,176.5 276.5,176.5 276.5,176.5 276.5,176.5 276.5,176.5 276.5,176.5 276.5,176.5 276.5,176.5 276.5,177.5 276.5,177.5 
	277.5,176.5 277.5,176.5 277.5,176.5 277.5,176.5 277.5,176.5 277.5,176.5 277.5,176.5 277.5,176.5 277.5,176.5 277.5,176.5 
	277.5,175.5 277.5,175.5 277.5,175.5 278.5,175.5 278.5,175.5 278.5,174.5 278.5,174.5 278.5,174.5 278.5,174.5 278.5,174.5 
	278.5,173.5 278.5,173.5 278.5,173.5 278.5,173.5 278.5,172.5 278.5,172.5 279.5,172.5 279.5,171.5 279.5,171.5 279.5,171.5 
	279.5,170.5 279.5,170.5 279.5,170.5 279.5,170.5 279.5,170.5 279.5,170.5 279.5,170.5 279.5,169.5 279.5,169.5 280.5,169.5 
	280.5,169.5 280.5,168.5 280.5,168.5 280.5,168.5 280.5,168.5 280.5,168.5 280.5,167.5 280.5,167.5 280.5,167.5 280.5,167.5 
	280.5,167.5 280.5,166.5 281.5,166.5 281.5,166.5 281.5,165.5 281.5,165.5 281.5,165.5 281.5,164.5 281.5,164.5 281.5,164.5 
	281.5,163.5 281.5,163.5 281.5,163.5 281.5,163.5 281.5,162.5 282.5,162.5 282.5,163.5 282.5,163.5 282.5,163.5 282.5,163.5 
	282.5,163.5 282.5,163.5 282.5,163.5 282.5,163.5 282.5,163.5 282.5,163.5 282.5,163.5 282.5,163.5 283.5,163.5 283.5,163.5 
	283.5,163.5 283.5,164.5 283.5,164.5 283.5,163.5 283.5,163.5 283.5,164.5 283.5,164.5 283.5,165.5 283.5,165.5 283.5,166.5 
	283.5,166.5 284.5,167.5 284.5,167.5 284.5,168.5 284.5,168.5 284.5,168.5 284.5,169.5 284.5,169.5 284.5,170.5 284.5,170.5 
	284.5,171.5 284.5,171.5 284.5,171.5 284.5,172.5 285.5,172.5 285.5,172.5 285.5,173.5 285.5,173.5 285.5,173.5 285.5,174.5 
	285.5,174.5 285.5,174.5 285.5,174.5 285.5,175.5 285.5,175.5 285.5,175.5 285.5,175.5 286.5,175.5 286.5,176.5 286.5,176.5 
	286.5,176.5 286.5,176.5 286.5,176.5 286.5,176.5 286.5,176.5 286.5,176.5 286.5,176.5 286.5,177.5 286.5,177.5 286.5,177.5 
	287.5,177.5 287.5,177.5 287.5,177.5 287.5,177.5 287.5,177.5 287.5,178.5 287.5,178.5 287.5,178.5 287.5,178.5 287.5,178.5 
	287.5,179.5 287.5,179.5 287.5,179.5 288.5,179.5 288.5,180.5 288.5,180.5 288.5,180.5 288.5,181.5 288.5,181.5 288.5,181.5 
	288.5,181.5 288.5,181.5 288.5,181.5 288.5,181.5 288.5,182.5 288.5,182.5 289.5,182.5 289.5,182.5 289.5,182.5 289.5,183.5 
	289.5,183.5 289.5,183.5 289.5,183.5 289.5,183.5 289.5,183.5 289.5,183.5 289.5,183.5 289.5,183.5 289.5,183.5 290.5,183.5 
	290.5,183.5 290.5,183.5 290.5,183.5 290.5,183.5 290.5,183.5 290.5,183.5 290.5,183.5 290.5,183.5 290.5,184.5 290.5,184.5 
	290.5,184.5 290.5,184.5 291.5,184.5 291.5,184.5 291.5,184.5 291.5,184.5 291.5,185.5 291.5,185.5 291.5,185.5 291.5,185.5 
	291.5,185.5 291.5,185.5 291.5,185.5 291.5,185.5 291.5,185.5 292.5,185.5 292.5,185.5 292.5,185.5 292.5,185.5 292.5,185.5 
	292.5,185.5 292.5,185.5 292.5,185.5 292.5,185.5 292.5,184.5 292.5,184.5 292.5,184.5 292.5,183.5 293.5,183.5 293.5,183.5 
	293.5,183.5 293.5,182.5 293.5,182.5 293.5,182.5 293.5,182.5 293.5,181.5 293.5,181.5 293.5,181.5 293.5,181.5 293.5,181.5 
	293.5,180.5 294.5,180.5 294.5,180.5 294.5,180.5 294.5,179.5 294.5,179.5 294.5,179.5 294.5,179.5 294.5,179.5 294.5,179.5 
	294.5,179.5 294.5,179.5 294.5,179.5 294.5,179.5 295.5,179.5 295.5,179.5 295.5,179.5 295.5,179.5 295.5,179.5 295.5,179.5 
	295.5,179.5 295.5,179.5 295.5,179.5 295.5,179.5 295.5,179.5 295.5,178.5 295.5,178.5 295.5,178.5 296.5,178.5 296.5,178.5 
	296.5,178.5 296.5,178.5 296.5,177.5 296.5,177.5 296.5,177.5 296.5,177.5 296.5,177.5 296.5,177.5 296.5,177.5 296.5,176.5 
	296.5,176.5 297.5,176.5 297.5,175.5 297.5,175.5 297.5,175.5 297.5,175.5 297.5,175.5 297.5,174.5 297.5,174.5 297.5,174.5 
	297.5,174.5 297.5,174.5 297.5,174.5 297.5,173.5 298.5,173.5 298.5,173.5 298.5,173.5 298.5,172.5 298.5,172.5 298.5,172.5 
	298.5,172.5 298.5,171.5 298.5,171.5 298.5,171.5 298.5,171.5 298.5,171.5 298.5,170.5 299.5,170.5 299.5,170.5 299.5,170.5 
	299.5,170.5 299.5,169.5 299.5,169.5 299.5,169.5 299.5,169.5 299.5,169.5 299.5,168.5 299.5,168.5 299.5,168.5 299.5,168.5 
	300.5,168.5 300.5,168.5 300.5,168.5 300.5,167.5 300.5,167.5 300.5,167.5 300.5,167.5 300.5,167.5 300.5,166.5 300.5,166.5 
	300.5,166.5 300.5,165.5 300.5,165.5 301.5,165.5 301.5,164.5 301.5,164.5 301.5,164.5 301.5,164.5 301.5,163.5 301.5,163.5 
	301.5,163.5 301.5,162.5 301.5,162.5 301.5,162.5 301.5,162.5 301.5,162.5 302.5,161.5 302.5,161.5 302.5,161.5 302.5,161.5 
	302.5,161.5 302.5,160.5 302.5,160.5 302.5,160.5 302.5,160.5 302.5,160.5 302.5,159.5 302.5,159.5 302.5,159.5 303.5,159.5 
	303.5,159.5 303.5,159.5 303.5,158.5 303.5,158.5 303.5,158.5 303.5,158.5 303.5,158.5 303.5,158.5 303.5,158.5 303.5,158.5 
	303.5,159.5 303.5,159.5 304.5,159.5 304.5,160.5 304.5,160.5 304.5,161.5 304.5,161.5 304.5,162.5 304.5,162.5 304.5,162.5 
	304.5,163.5 304.5,163.5 304.5,163.5 304.5,163.5 304.5,164.5 305.5,164.5 305.5,164.5 305.5,164.5 305.5,164.5 305.5,164.5 
	305.5,164.5 305.5,165.5 305.5,165.5 305.5,165.5 305.5,166.5 305.5,166.5 305.5,167.5 305.5,167.5 306.5,167.5 306.5,168.5 
	306.5,168.5 306.5,168.5 306.5,168.5 306.5,169.5 306.5,169.5 306.5,169.5 306.5,169.5 306.5,169.5 306.5,170.5 306.5,170.5 
	306.5,170.5 307.5,171.5 307.5,171.5 307.5,172.5 307.5,172.5 307.5,172.5 307.5,172.5 307.5,172.5 307.5,172.5 307.5,173.5 
	307.5,173.5 307.5,173.5 307.5,173.5 307.5,173.5 308.5,174.5 308.5,174.5 308.5,174.5 308.5,176.5 308.5,176.5 308.5,176.5 
	308.5,177.5 308.5,177.5 308.5,178.5 308.5,178.5 308.5,179.5 308.5,179.5 308.5,180.5 309.5,180.5 309.5,180.5 309.5,181.5 
	309.5,181.5 309.5,182.5 309.5,182.5 309.5,183.5 309.5,183.5 309.5,184.5 309.5,184.5 309.5,185.5 309.5,185.5 309.5,186.5 
	310.5,186.5 310.5,187.5 310.5,187.5 310.5,188.5 310.5,188.5 310.5,189.5 310.5,190.5 310.5,191.5 310.5,192.5 310.5,193.5 
	310.5,194.5 310.5,194.5 310.5,195.5 311.5,195.5 311.5,195.5 311.5,196.5 311.5,196.5 311.5,196.5 311.5,196.5 311.5,197.5 
	311.5,197.5 311.5,197.5 311.5,198.5 311.5,198.5 311.5,198.5 311.5,198.5 312.5,198.5 312.5,198.5 312.5,198.5 312.5,198.5 
	312.5,199.5 312.5,199.5 312.5,198.5 312.5,198.5 312.5,198.5 312.5,199.5 312.5,199.5 312.5,199.5 312.5,199.5 313.5,200.5 
	313.5,200.5 313.5,200.5 313.5,201.5 313.5,201.5 313.5,200.5 313.5,200.5 313.5,200.5 313.5,200.5 313.5,200.5 313.5,200.5 
	313.5,200.5 313.5,201.5 314.5,201.5 314.5,202.5 314.5,202.5 314.5,201.5 314.5,201.5 314.5,201.5 314.5,201.5 314.5,201.5 
	314.5,201.5 314.5,201.5 314.5,201.5 314.5,201.5 314.5,201.5 315.5,201.5 315.5,201.5 315.5,201.5 315.5,202.5 315.5,201.5 
	315.5,201.5 315.5,202.5 315.5,202.5 315.5,202.5 315.5,202.5 315.5,202.5 315.5,202.5 315.5,202.5 316.5,202.5 316.5,203.5 
	316.5,203.5 316.5,203.5 316.5,204.5 316.5,204.5 316.5,205.5 316.5,205.5 316.5,206.5 316.5,206.5 316.5,207.5 316.5,207.5 
	316.5,208.5 317.5,208.5 317.5,209.5 317.5,209.5 317.5,210.5 317.5,210.5 317.5,210.5 317.5,211.5 317.5,211.5 317.5,211.5 
	317.5,212.5 317.5,212.5 317.5,212.5 317.5,212.5 318.5,213.5 318.5,213.5 318.5,213.5 318.5,213.5 318.5,213.5 318.5,213.5 
	318.5,214.5 318.5,214.5 318.5,215.5 318.5,216.5 318.5,217.5 318.5,217.5 318.5,218.5 319.5,218.5 319.5,219.5 319.5,219.5 
	319.5,219.5 319.5,221.5 319.5,222.5 319.5,223.5 319.5,225.5 319.5,225.5 319.5,226.5 319.5,227.5 319.5,228.5 319.5,229.5 
	320.5,229.5 320.5,230.5 320.5,231.5 320.5,232.5 320.5,232.5 320.5,232.5 320.5,232.5 320.5,232.5 320.5,232.5 320.5,232.5 
	320.5,232.5 320.5,232.5 320.5,232.5 321.5,232.5 321.5,232.5 321.5,232.5 321.5,232.5 321.5,231.5 321.5,230.5 321.5,229.5 
	321.5,228.5 321.5,227.5 321.5,226.5 321.5,224.5 321.5,223.5 321.5,223.5 322.5,223.5 322.5,222.5 322.5,222.5 322.5,222.5 
	322.5,222.5 322.5,222.5 322.5,222.5 322.5,222.5 322.5,222.5 322.5,222.5 322.5,222.5 322.5,222.5 322.5,222.5 323.5,222.5 
	323.5,222.5 323.5,222.5 323.5,222.5 323.5,222.5 323.5,222.5 323.5,222.5 323.5,222.5 323.5,223.5 323.5,223.5 323.5,224.5 
	323.5,224.5 323.5,224.5 324.5,225.5 324.5,225.5 324.5,225.5 324.5,224.5 324.5,224.5 324.5,223.5 324.5,223.5 324.5,222.5 
	324.5,222.5 324.5,222.5 324.5,222.5 324.5,222.5 324.5,222.5 325.5,221.5 325.5,221.5 325.5,221.5 325.5,221.5 325.5,221.5 
	325.5,221.5 325.5,221.5 325.5,221.5 325.5,221.5 325.5,221.5 325.5,221.5 325.5,221.5 325.5,221.5 326.5,223.5 326.5,223.5 
	326.5,223.5 326.5,223.5 326.5,223.5 326.5,223.5 326.5,223.5 326.5,223.5 326.5,223.5 326.5,223.5 326.5,223.5 326.5,223.5 
	326.5,222.5 327.5,222.5 327.5,222.5 327.5,222.5 327.5,222.5 327.5,222.5 327.5,222.5 327.5,222.5 327.5,222.5 327.5,222.5 
	327.5,222.5 327.5,222.5 327.5,222.5 327.5,222.5 328.5,222.5 328.5,222.5 328.5,222.5 328.5,222.5 328.5,222.5 328.5,221.5 
	328.5,221.5 328.5,220.5 328.5,220.5 328.5,220.5 328.5,220.5 328.5,220.5 328.5,219.5 329.5,219.5 329.5,219.5 329.5,219.5 
	329.5,219.5 329.5,218.5 329.5,218.5 329.5,218.5 329.5,217.5 329.5,217.5 329.5,216.5 329.5,216.5 329.5,216.5 329.5,215.5 
	330.5,215.5 330.5,215.5 330.5,214.5 330.5,214.5 330.5,214.5 330.5,213.5 330.5,213.5 330.5,213.5 330.5,213.5 330.5,212.5 
	330.5,212.5 330.5,211.5 330.5,211.5 331.5,211.5 331.5,210.5 331.5,210.5 331.5,209.5 331.5,209.5 331.5,209.5 331.5,208.5 
	331.5,208.5 331.5,208.5 331.5,207.5 331.5,207.5 331.5,207.5 331.5,207.5 332.5,207.5 332.5,207.5 332.5,207.5 332.5,207.5 
	332.5,207.5 332.5,207.5 332.5,207.5 332.5,207.5 332.5,207.5 332.5,207.5 332.5,207.5 332.5,207.5 332.5,207.5 333.5,207.5 
	333.5,207.5 333.5,207.5 333.5,207.5 333.5,207.5 333.5,207.5 333.5,207.5 333.5,207.5 333.5,207.5 333.5,207.5 333.5,208.5 
	333.5,208.5 333.5,208.5 334.5,208.5 334.5,209.5 334.5,209.5 334.5,209.5 334.5,209.5 334.5,209.5 334.5,209.5 334.5,209.5 
	334.5,209.5 334.5,209.5 334.5,209.5 334.5,210.5 334.5,210.5 335.5,210.5 335.5,210.5 335.5,210.5 335.5,210.5 335.5,210.5 
	335.5,210.5 335.5,210.5 335.5,210.5 335.5,210.5 335.5,210.5 335.5,210.5 335.5,210.5 335.5,210.5 336.5,210.5 336.5,209.5 
	336.5,209.5 336.5,209.5 336.5,209.5 336.5,209.5 336.5,209.5 336.5,209.5 336.5,209.5 336.5,209.5 336.5,209.5 336.5,210.5 
	336.5,210.5 337.5,210.5 337.5,210.5 337.5,210.5 337.5,210.5 337.5,210.5 337.5,210.5 337.5,210.5 337.5,210.5 337.5,210.5 
	337.5,210.5 337.5,210.5 337.5,209.5 337.5,209.5 338.5,209.5 338.5,208.5 338.5,208.5 338.5,208.5 338.5,208.5 338.5,208.5 
	338.5,207.5 338.5,207.5 338.5,207.5 338.5,207.5 338.5,206.5 338.5,206.5 338.5,206.5 339.5,205.5 339.5,205.5 339.5,205.5 
	339.5,204.5 339.5,204.5 339.5,204.5 339.5,203.5 339.5,203.5 339.5,203.5 339.5,202.5 339.5,202.5 339.5,201.5 339.5,201.5 
	340.5,201.5 340.5,201.5 340.5,200.5 340.5,200.5 340.5,200.5 340.5,200.5 340.5,199.5 340.5,199.5 340.5,199.5 340.5,200.5 
	340.5,200.5 340.5,200.5 340.5,201.5 341.5,201.5 341.5,201.5 341.5,201.5 341.5,202.5 341.5,202.5 341.5,203.5 341.5,203.5 
	341.5,204.5 341.5,204.5 341.5,205.5 341.5,205.5 341.5,205.5 341.5,206.5 342.5,206.5 342.5,206.5 342.5,207.5 342.5,207.5 
	342.5,207.5 342.5,208.5 342.5,208.5 342.5,208.5 342.5,208.5 342.5,209.5 342.5,209.5 342.5,209.5 342.5,209.5 343.5,209.5 
	343.5,208.5 343.5,208.5 343.5,208.5 343.5,208.5 343.5,208.5 343.5,207.5 343.5,207.5 343.5,207.5 343.5,207.5 343.5,207.5 
	343.5,207.5 343.5,207.5 344.5,207.5 344.5,207.5 344.5,208.5 344.5,208.5 344.5,208.5 344.5,207.5 344.5,206.5 344.5,205.5 
	344.5,205.5 344.5,205.5 344.5,204.5 344.5,204.5 344.5,204.5 345.5,204.5 345.5,203.5 345.5,203.5 345.5,202.5 345.5,202.5 
	345.5,202.5 345.5,201.5 345.5,201.5 345.5,200.5 345.5,200.5 345.5,199.5 345.5,199.5 345.5,198.5 346.5,198.5 346.5,197.5 
	346.5,197.5 346.5,196.5 346.5,195.5 346.5,195.5 346.5,194.5 346.5,194.5 346.5,194.5 346.5,194.5 346.5,194.5 346.5,194.5 
	346.5,194.5 347.5,194.5 347.5,194.5 347.5,194.5 347.5,194.5 347.5,194.5 347.5,195.5 347.5,195.5 347.5,194.5 347.5,195.5 
	347.5,195.5 347.5,196.5 347.5,196.5 347.5,197.5 348.5,197.5 348.5,197.5 348.5,197.5 348.5,198.5 348.5,198.5 348.5,198.5 
	348.5,198.5 348.5,198.5 348.5,198.5 348.5,198.5 348.5,198.5 348.5,198.5 348.5,198.5 349.5,198.5 349.5,197.5 349.5,197.5 
	349.5,197.5 349.5,197.5 349.5,196.5 349.5,196.5 349.5,196.5 349.5,196.5 349.5,195.5 349.5,195.5 349.5,195.5 349.5,195.5 
	350.5,194.5 350.5,194.5 350.5,194.5 350.5,194.5 350.5,194.5 350.5,194.5 350.5,193.5 350.5,193.5 350.5,193.5 350.5,193.5 
	350.5,193.5 350.5,193.5 350.5,192.5 351.5,192.5 351.5,192.5 351.5,192.5 351.5,191.5 351.5,191.5 351.5,191.5 351.5,191.5 
	351.5,191.5 351.5,190.5 351.5,190.5 351.5,190.5 351.5,190.5 351.5,190.5 352.5,190.5 352.5,189.5 352.5,189.5 352.5,189.5 
	352.5,188.5 352.5,188.5 352.5,188.5 352.5,187.5 352.5,187.5 352.5,187.5 352.5,187.5 352.5,186.5 352.5,186.5 353.5,186.5 
	353.5,185.5 353.5,185.5 353.5,184.5 353.5,184.5 353.5,183.5 353.5,183.5 353.5,182.5 353.5,182.5 353.5,181.5 353.5,181.5 
	353.5,180.5 353.5,180.5 354.5,179.5 354.5,179.5 354.5,178.5 354.5,178.5 354.5,177.5 354.5,177.5 354.5,176.5 354.5,175.5 
	354.5,175.5 354.5,174.5 354.5,174.5 354.5,173.5 354.5,173.5 355.5,173.5 355.5,173.5 355.5,173.5 355.5,173.5 355.5,172.5 
	355.5,172.5 355.5,172.5 355.5,172.5 355.5,172.5 355.5,172.5 355.5,172.5 355.5,172.5 355.5,172.5 356.5,172.5 356.5,172.5 
	356.5,172.5 356.5,172.5 356.5,172.5 356.5,172.5 356.5,172.5 356.5,171.5 356.5,171.5 356.5,171.5 356.5,171.5 356.5,171.5 
	356.5,171.5 357.5,172.5 357.5,173.5 357.5,173.5 357.5,174.5 357.5,175.5 357.5,175.5 357.5,176.5 357.5,176.5 357.5,177.5 
	357.5,177.5 357.5,177.5 357.5,177.5 357.5,178.5 358.5,178.5 358.5,178.5 358.5,178.5 358.5,178.5 358.5,178.5 358.5,178.5 
	358.5,178.5 358.5,177.5 358.5,177.5 358.5,177.5 358.5,177.5 358.5,177.5 358.5,177.5 359.5,176.5 359.5,176.5 359.5,176.5 
	359.5,175.5 359.5,175.5 359.5,175.5 359.5,175.5 359.5,175.5 359.5,174.5 359.5,174.5 359.5,174.5 359.5,173.5 359.5,173.5 
	360.5,173.5 360.5,172.5 360.5,172.5 360.5,171.5 360.5,171.5 360.5,170.5 360.5,169.5 360.5,168.5 360.5,167.5 360.5,166.5 
	360.5,166.5 360.5,165.5 360.5,164.5 361.5,163.5 361.5,163.5 361.5,162.5 361.5,161.5 361.5,161.5 361.5,161.5 361.5,160.5 
	361.5,159.5 361.5,159.5 361.5,159.5 361.5,158.5 361.5,158.5 361.5,158.5 362.5,158.5 362.5,158.5 362.5,158.5 362.5,158.5 
	362.5,158.5 362.5,158.5 362.5,158.5 362.5,158.5 362.5,158.5 362.5,158.5 362.5,158.5 362.5,158.5 362.5,157.5 363.5,157.5 
	363.5,156.5 363.5,156.5 363.5,156.5 363.5,155.5 363.5,154.5 363.5,154.5 363.5,153.5 363.5,153.5 363.5,152.5 363.5,151.5 
	363.5,151.5 363.5,150.5 364.5,150.5 364.5,149.5 364.5,149.5 364.5,148.5 364.5,148.5 364.5,147.5 364.5,147.5 364.5,146.5 
	364.5,146.5 364.5,146.5 364.5,145.5 364.5,145.5 364.5,145.5 365.5,145.5 365.5,144.5 365.5,143.5 365.5,143.5 365.5,143.5 
	365.5,143.5 365.5,142.5 365.5,142.5 365.5,142.5 365.5,142.5 365.5,142.5 365.5,142.5 365.5,142.5 366.5,143.5 366.5,143.5 
	366.5,143.5 366.5,143.5 366.5,144.5 366.5,144.5 366.5,144.5 366.5,144.5 366.5,144.5 366.5,144.5 366.5,144.5 366.5,144.5 
	366.5,144.5 367.5,145.5 367.5,146.5 367.5,147.5 367.5,148.5 367.5,148.5 367.5,149.5 367.5,150.5 367.5,151.5 367.5,151.5 
	367.5,152.5 367.5,153.5 367.5,153.5 367.5,154.5 368.5,154.5 368.5,155.5 368.5,155.5 368.5,156.5 368.5,157.5 368.5,157.5 
	368.5,157.5 368.5,158.5 368.5,159.5 368.5,159.5 368.5,160.5 368.5,161.5 368.5,161.5 369.5,162.5 369.5,163.5 369.5,164.5 
	369.5,164.5 369.5,164.5 369.5,164.5 369.5,165.5 369.5,165.5 369.5,165.5 369.5,165.5 369.5,165.5 369.5,165.5 369.5,165.5 
	370.5,165.5 370.5,165.5 370.5,166.5 370.5,166.5 370.5,166.5 370.5,166.5 370.5,166.5 370.5,166.5 370.5,166.5 370.5,167.5 
	370.5,167.5 370.5,167.5 370.5,167.5 371.5,167.5 371.5,168.5 371.5,168.5 371.5,168.5 371.5,168.5 371.5,168.5 371.5,169.5 
	371.5,169.5 371.5,169.5 371.5,169.5 371.5,169.5 371.5,169.5 371.5,169.5 372.5,169.5 372.5,169.5 372.5,169.5 372.5,169.5 
	372.5,169.5 372.5,169.5 372.5,169.5 372.5,169.5 372.5,169.5 372.5,169.5 372.5,169.5 372.5,170.5 372.5,170.5 373.5,170.5 
	373.5,170.5 373.5,170.5 373.5,170.5 373.5,170.5 373.5,170.5 373.5,170.5 373.5,170.5 373.5,170.5 373.5,170.5 373.5,170.5 
	373.5,170.5 373.5,170.5 374.5,170.5 374.5,169.5 374.5,169.5 374.5,169.5 374.5,169.5 374.5,169.5 374.5,169.5 374.5,169.5 
	374.5,169.5 374.5,169.5 374.5,169.5 374.5,168.5 374.5,168.5 375.5,168.5 375.5,168.5 375.5,169.5 375.5,169.5 375.5,170.5 
	375.5,170.5 375.5,171.5 375.5,171.5 375.5,172.5 375.5,173.5 375.5,174.5 375.5,174.5 375.5,175.5 376.5,175.5 376.5,176.5 
	376.5,177.5 376.5,177.5 376.5,178.5 376.5,179.5 376.5,180.5 376.5,181.5 376.5,182.5 376.5,183.5 376.5,184.5 376.5,185.5 
	376.5,186.5 377.5,187.5 377.5,188.5 377.5,189.5 377.5,190.5 377.5,191.5 377.5,192.5 377.5,193.5 377.5,194.5 377.5,195.5 
	377.5,196.5 377.5,197.5 377.5,197.5 377.5,198.5 378.5,199.5 378.5,200.5 378.5,201.5 378.5,202.5 378.5,202.5 378.5,203.5 
	378.5,204.5 378.5,204.5 378.5,205.5 378.5,207.5 378.5,208.5 378.5,209.5 378.5,210.5 379.5,211.5 379.5,212.5 379.5,214.5 
	379.5,215.5 379.5,215.5 379.5,216.5 379.5,216.5 379.5,216.5 379.5,217.5 379.5,217.5 379.5,217.5 379.5,217.5 379.5,217.5 
	380.5,216.5 380.5,216.5 380.5,215.5 380.5,214.5 380.5,213.5 380.5,213.5 380.5,212.5 380.5,212.5 380.5,212.5 380.5,211.5 
	380.5,211.5 380.5,211.5 380.5,210.5 381.5,210.5 381.5,209.5 381.5,209.5 381.5,208.5 381.5,208.5 381.5,207.5 381.5,206.5 
	381.5,206.5 381.5,205.5 381.5,204.5 381.5,203.5 381.5,202.5 381.5,201.5 382.5,200.5 382.5,199.5 382.5,198.5 382.5,197.5 
	382.5,196.5 382.5,194.5 382.5,193.5 382.5,192.5 382.5,192.5 382.5,191.5 382.5,190.5 382.5,190.5 382.5,189.5 383.5,188.5 
	383.5,187.5 383.5,187.5 383.5,186.5 383.5,185.5 383.5,184.5 383.5,183.5 383.5,183.5 383.5,183.5 383.5,183.5 383.5,183.5 
	383.5,183.5 383.5,183.5 384.5,184.5 384.5,184.5 384.5,184.5 384.5,184.5 384.5,184.5 384.5,184.5 384.5,184.5 384.5,184.5 
	384.5,185.5 384.5,185.5 384.5,185.5 384.5,185.5 384.5,185.5 385.5,185.5 385.5,185.5 385.5,185.5 385.5,186.5 385.5,187.5 
	385.5,187.5 385.5,188.5 385.5,188.5 385.5,189.5 385.5,189.5 385.5,189.5 385.5,190.5 385.5,191.5 386.5,191.5 386.5,192.5 
	386.5,193.5 386.5,194.5 386.5,195.5 386.5,196.5 386.5,197.5 386.5,197.5 386.5,198.5 386.5,199.5 386.5,200.5 386.5,200.5 
	386.5,201.5 387.5,202.5 387.5,202.5 387.5,202.5 387.5,203.5 387.5,203.5 387.5,203.5 387.5,203.5 387.5,203.5 387.5,203.5 
	387.5,203.5 387.5,203.5 387.5,203.5 387.5,203.5 388.5,202.5 388.5,202.5 388.5,201.5 388.5,201.5 388.5,200.5 388.5,200.5 
	388.5,200.5 388.5,199.5 388.5,198.5 388.5,198.5 388.5,197.5 388.5,197.5 388.5,197.5 389.5,197.5 389.5,197.5 389.5,197.5 
	389.5,197.5 389.5,197.5 389.5,196.5 389.5,196.5 389.5,196.5 389.5,196.5 389.5,196.5 389.5,195.5 389.5,195.5 389.5,195.5 
	390.5,195.5 390.5,195.5 390.5,195.5 390.5,195.5 390.5,194.5 390.5,194.5 390.5,194.5 390.5,194.5 390.5,194.5 390.5,194.5 
	390.5,194.5 390.5,193.5 390.5,193.5 391.5,192.5 391.5,192.5 391.5,191.5 391.5,191.5 391.5,190.5 391.5,190.5 391.5,189.5 
	391.5,189.5 391.5,189.5 391.5,189.5 391.5,189.5 391.5,189.5 391.5,189.5 392.5,189.5 392.5,189.5 392.5,189.5 392.5,189.5 
	392.5,189.5 392.5,189.5 392.5,189.5 392.5,189.5 392.5,189.5 392.5,189.5 392.5,189.5 392.5,189.5 392.5,188.5 393.5,187.5 
	393.5,187.5 393.5,186.5 393.5,185.5 393.5,185.5 393.5,184.5 393.5,183.5 393.5,182.5 393.5,181.5 393.5,180.5 393.5,179.5 
	393.5,178.5 393.5,177.5 394.5,177.5 394.5,176.5 394.5,175.5 394.5,174.5 394.5,173.5 394.5,172.5 394.5,171.5 394.5,171.5 
	394.5,171.5 394.5,171.5 394.5,170.5 394.5,170.5 394.5,170.5 395.5,169.5 395.5,169.5 395.5,169.5 395.5,169.5 395.5,168.5 
	395.5,168.5 395.5,168.5 395.5,168.5 395.5,168.5 395.5,169.5 395.5,169.5 395.5,170.5 395.5,170.5 396.5,170.5 396.5,170.5 
	396.5,170.5 396.5,170.5 396.5,170.5 396.5,170.5 396.5,170.5 396.5,170.5 396.5,170.5 396.5,170.5 396.5,170.5 396.5,169.5 
	396.5,169.5 397.5,169.5 397.5,169.5 397.5,169.5 397.5,168.5 397.5,168.5 397.5,168.5 397.5,168.5 397.5,168.5 397.5,168.5 
	397.5,168.5 397.5,168.5 397.5,168.5 397.5,168.5 398.5,168.5 398.5,167.5 398.5,167.5 398.5,167.5 398.5,167.5 398.5,167.5 
	398.5,167.5 398.5,166.5 398.5,166.5 398.5,166.5 398.5,166.5 398.5,166.5 398.5,166.5 399.5,166.5 399.5,166.5 399.5,166.5 
	399.5,166.5 399.5,166.5 399.5,166.5 399.5,166.5 399.5,166.5 399.5,167.5 399.5,167.5 399.5,166.5 399.5,166.5 399.5,166.5 
	400.5,166.5 400.5,166.5 400.5,166.5 400.5,166.5 400.5,166.5 400.5,166.5 400.5,166.5 400.5,166.5 400.5,166.5 400.5,165.5 
	400.5,165.5 400.5,165.5 400.5,165.5 401.5,164.5 401.5,164.5 401.5,164.5 401.5,165.5 401.5,165.5 401.5,165.5 401.5,165.5 
	401.5,166.5 401.5,166.5 401.5,166.5 401.5,166.5 401.5,165.5 401.5,165.5 402.5,165.5 402.5,165.5 402.5,164.5 402.5,164.5 
	402.5,164.5 402.5,163.5 402.5,163.5 402.5,162.5 402.5,162.5 402.5,161.5 402.5,161.5 402.5,161.5 402.5,160.5 403.5,160.5 
	403.5,160.5 403.5,159.5 403.5,159.5 403.5,159.5 403.5,158.5 403.5,158.5 403.5,158.5 403.5,158.5 403.5,157.5 403.5,157.5 
	403.5,157.5 403.5,156.5 404.5,156.5 404.5,155.5 404.5,155.5 404.5,155.5 404.5,154.5 404.5,153.5 404.5,153.5 404.5,152.5 
	404.5,152.5 404.5,151.5 404.5,151.5 404.5,150.5 404.5,150.5 405.5,150.5 405.5,149.5 405.5,149.5 405.5,149.5 405.5,148.5 
	405.5,148.5 405.5,148.5 405.5,147.5 405.5,147.5 405.5,147.5 405.5,146.5 405.5,146.5 405.5,145.5 406.5,145.5 406.5,145.5 
	406.5,144.5 406.5,144.5 406.5,143.5 406.5,143.5 406.5,142.5 406.5,142.5 406.5,141.5 406.5,140.5 406.5,140.5 406.5,139.5 
	406.5,139.5 407.5,138.5 407.5,138.5 407.5,138.5 407.5,137.5 407.5,137.5 407.5,136.5 407.5,136.5 407.5,136.5 407.5,135.5 
	407.5,135.5 407.5,135.5 407.5,134.5 407.5,134.5 408.5,134.5 408.5,134.5 408.5,135.5 408.5,135.5 408.5,135.5 408.5,135.5 
	408.5,135.5 408.5,135.5 408.5,135.5 408.5,135.5 408.5,135.5 408.5,135.5 408.5,135.5 409.5,134.5 409.5,134.5 409.5,134.5 
	409.5,133.5 409.5,133.5 409.5,133.5 409.5,132.5 409.5,132.5 409.5,131.5 409.5,131.5 409.5,131.5 409.5,130.5 409.5,130.5 
	410.5,130.5 410.5,130.5 410.5,130.5 410.5,130.5 410.5,129.5 410.5,129.5 410.5,130.5 410.5,130.5 410.5,130.5 410.5,130.5 
	410.5,130.5 410.5,130.5 410.5,130.5 411.5,130.5 411.5,130.5 411.5,130.5 411.5,131.5 411.5,131.5 411.5,131.5 411.5,131.5 
	411.5,131.5 411.5,131.5 411.5,131.5 411.5,131.5 411.5,132.5 411.5,132.5 412.5,132.5 412.5,132.5 412.5,132.5 412.5,133.5 
	412.5,133.5 412.5,133.5 412.5,133.5 412.5,134.5 412.5,134.5 412.5,133.5 412.5,133.5 412.5,134.5 412.5,134.5 413.5,134.5 
	413.5,134.5 413.5,134.5 413.5,135.5 413.5,135.5 413.5,135.5 413.5,135.5 413.5,136.5 413.5,136.5 413.5,137.5 413.5,137.5 
	413.5,138.5 413.5,139.5 414.5,140.5 414.5,140.5 414.5,141.5 414.5,141.5 414.5,141.5 414.5,142.5 414.5,142.5 414.5,143.5 
	414.5,143.5 414.5,143.5 414.5,144.5 414.5,144.5 414.5,144.5 415.5,145.5 415.5,145.5 415.5,146.5 415.5,146.5 415.5,146.5 
	415.5,146.5 415.5,145.5 415.5,145.5 415.5,145.5 415.5,145.5 415.5,145.5 415.5,144.5 415.5,144.5 416.5,144.5 416.5,145.5 
	416.5,145.5 416.5,145.5 416.5,145.5 416.5,145.5 416.5,145.5 416.5,146.5 416.5,146.5 416.5,146.5 416.5,146.5 416.5,146.5 
	416.5,146.5 417.5,146.5 417.5,146.5 417.5,145.5 417.5,145.5 417.5,145.5 417.5,144.5 417.5,145.5 417.5,146.5 417.5,147.5 
	417.5,147.5 417.5,148.5 417.5,148.5 417.5,149.5 418.5,149.5 418.5,149.5 418.5,148.5 418.5,148.5 418.5,147.5 418.5,147.5 
	418.5,148.5 418.5,148.5 418.5,149.5 418.5,149.5 418.5,150.5 418.5,151.5 418.5,151.5 419.5,152.5 419.5,152.5 419.5,152.5 
	419.5,153.5 419.5,153.5 419.5,153.5 419.5,153.5 419.5,153.5 419.5,153.5 419.5,153.5 419.5,153.5 419.5,153.5 419.5,153.5 
	420.5,153.5 420.5,153.5 420.5,153.5 420.5,153.5 420.5,153.5 420.5,153.5 420.5,153.5 420.5,153.5 420.5,153.5 420.5,153.5 
	420.5,153.5 420.5,153.5 420.5,153.5 421.5,153.5 421.5,153.5 421.5,154.5 421.5,154.5 421.5,155.5 421.5,156.5 421.5,156.5 
	421.5,157.5 421.5,158.5 421.5,159.5 421.5,160.5 421.5,161.5 421.5,161.5 422.5,162.5 422.5,163.5 422.5,164.5 422.5,165.5 
	422.5,166.5 422.5,166.5 422.5,167.5 422.5,167.5 422.5,167.5 422.5,168.5 422.5,168.5 422.5,168.5 422.5,168.5 423.5,168.5 
	423.5,168.5 423.5,168.5 423.5,168.5 423.5,168.5 423.5,168.5 423.5,168.5 423.5,168.5 423.5,168.5 423.5,168.5 423.5,168.5 
	423.5,168.5 423.5,168.5 424.5,167.5 424.5,167.5 424.5,166.5 424.5,166.5 424.5,165.5 424.5,165.5 424.5,165.5 424.5,164.5 
	424.5,164.5 424.5,163.5 424.5,163.5 424.5,162.5 424.5,162.5 425.5,162.5 425.5,161.5 425.5,161.5 425.5,160.5 425.5,160.5 
	425.5,160.5 425.5,160.5 425.5,159.5 425.5,159.5 425.5,159.5 425.5,158.5 425.5,158.5 425.5,158.5 426.5,158.5 426.5,157.5 
	426.5,157.5 426.5,157.5 426.5,157.5 426.5,157.5 426.5,156.5 426.5,156.5 426.5,156.5 426.5,156.5 426.5,155.5 426.5,155.5 
	426.5,155.5 427.5,155.5 427.5,155.5 427.5,154.5 427.5,154.5 427.5,154.5 427.5,153.5 427.5,153.5 427.5,153.5 427.5,152.5 
	427.5,152.5 427.5,151.5 427.5,151.5 427.5,150.5 428.5,150.5 428.5,150.5 428.5,149.5 428.5,149.5 428.5,149.5 428.5,149.5 
	428.5,149.5 428.5,149.5 428.5,149.5 428.5,149.5 428.5,149.5 428.5,149.5 428.5,149.5 429.5,150.5 429.5,150.5 429.5,150.5 
	429.5,151.5 429.5,151.5 429.5,151.5 429.5,152.5 429.5,152.5 429.5,153.5 429.5,153.5 429.5,153.5 429.5,154.5 429.5,154.5 
	430.5,155.5 430.5,155.5 430.5,156.5 430.5,156.5 430.5,156.5 430.5,157.5 430.5,157.5 430.5,158.5 430.5,159.5 430.5,159.5 
	430.5,159.5 430.5,159.5 430.5,159.5 431.5,159.5 431.5,159.5 431.5,158.5 431.5,158.5 431.5,158.5 431.5,158.5 431.5,157.5 
	431.5,157.5 431.5,157.5 431.5,156.5 431.5,156.5 431.5,156.5 431.5,155.5 432.5,155.5 432.5,155.5 432.5,155.5 432.5,155.5 
	432.5,154.5 432.5,154.5 432.5,154.5 432.5,154.5 432.5,154.5 432.5,154.5 432.5,154.5 432.5,154.5 432.5,154.5 433.5,154.5 
	433.5,153.5 433.5,153.5 433.5,153.5 433.5,153.5 433.5,153.5 433.5,153.5 433.5,152.5 433.5,152.5 433.5,152.5 433.5,151.5 
	433.5,151.5 433.5,150.5 434.5,149.5 434.5,149.5 434.5,148.5 434.5,147.5 434.5,147.5 434.5,146.5 434.5,145.5 434.5,144.5 
	434.5,143.5 434.5,142.5 434.5,141.5 434.5,141.5 434.5,140.5 435.5,140.5 435.5,140.5 435.5,140.5 435.5,140.5 435.5,141.5 
	435.5,141.5 435.5,141.5 435.5,141.5 435.5,142.5 435.5,142.5 435.5,142.5 435.5,142.5 435.5,142.5 436.5,142.5 436.5,143.5 
	436.5,143.5 436.5,143.5 436.5,143.5 436.5,143.5 436.5,143.5 436.5,143.5 436.5,144.5 436.5,144.5 436.5,144.5 436.5,144.5 
	436.5,144.5 437.5,144.5 437.5,145.5 437.5,145.5 437.5,145.5 437.5,146.5 437.5,146.5 437.5,146.5 437.5,147.5 437.5,147.5 
	437.5,148.5 437.5,148.5 437.5,148.5 437.5,149.5 438.5,149.5 438.5,149.5 438.5,150.5 438.5,150.5 438.5,150.5 438.5,151.5 
	438.5,151.5 438.5,151.5 438.5,152.5 438.5,152.5 438.5,152.5 438.5,153.5 438.5,153.5 439.5,153.5 439.5,154.5 439.5,155.5 
	439.5,155.5 439.5,155.5 439.5,156.5 439.5,156.5 439.5,156.5 439.5,156.5 439.5,156.5 439.5,157.5 439.5,157.5 439.5,158.5 
	440.5,158.5 440.5,159.5 440.5,160.5 440.5,161.5 440.5,161.5 440.5,162.5 440.5,163.5 440.5,164.5 440.5,164.5 440.5,165.5 
	440.5,166.5 440.5,166.5 440.5,167.5 441.5,168.5 441.5,168.5 441.5,169.5 441.5,170.5 441.5,171.5 441.5,171.5 441.5,172.5 
	441.5,173.5 441.5,174.5 441.5,175.5 441.5,175.5 441.5,176.5 441.5,177.5 442.5,177.5 442.5,178.5 442.5,178.5 442.5,179.5 
	442.5,179.5 442.5,179.5 442.5,179.5 442.5,179.5 442.5,179.5 442.5,179.5 442.5,179.5 442.5,180.5 442.5,180.5 443.5,180.5 
	443.5,180.5 443.5,181.5 443.5,181.5 443.5,181.5 443.5,181.5 443.5,180.5 443.5,180.5 443.5,179.5 443.5,178.5 443.5,178.5 
	443.5,177.5 443.5,177.5 444.5,176.5 444.5,176.5 444.5,175.5 444.5,175.5 444.5,174.5 444.5,173.5 444.5,173.5 444.5,172.5 
	444.5,172.5 444.5,171.5 444.5,171.5 444.5,170.5 444.5,170.5 445.5,170.5 445.5,169.5 445.5,169.5 445.5,168.5 445.5,168.5 
	445.5,167.5 445.5,167.5 445.5,167.5 445.5,166.5 445.5,166.5 445.5,165.5 445.5,165.5 445.5,165.5 446.5,164.5 446.5,164.5 
	446.5,164.5 446.5,163.5 446.5,163.5 446.5,163.5 446.5,162.5 446.5,162.5 446.5,162.5 446.5,161.5 446.5,161.5 446.5,161.5 
	446.5,160.5 447.5,160.5 447.5,161.5 447.5,161.5 447.5,161.5 447.5,161.5 447.5,162.5 447.5,162.5 447.5,163.5 447.5,163.5 
	447.5,163.5 447.5,164.5 447.5,164.5 447.5,165.5 448.5,165.5 448.5,166.5 448.5,166.5 448.5,166.5 448.5,167.5 448.5,167.5 
	448.5,168.5 448.5,168.5 448.5,168.5 448.5,168.5 448.5,169.5 448.5,169.5 448.5,168.5 449.5,168.5 449.5,168.5 449.5,167.5 
	449.5,166.5 449.5,166.5 449.5,165.5 449.5,164.5 449.5,163.5 449.5,162.5 449.5,161.5 449.5,160.5 449.5,160.5 449.5,159.5 
	450.5,158.5 450.5,158.5 450.5,157.5 450.5,157.5 450.5,157.5 450.5,156.5 450.5,156.5 450.5,156.5 450.5,156.5 450.5,155.5 
	450.5,155.5 450.5,155.5 450.5,155.5 451.5,155.5 451.5,154.5 451.5,154.5 451.5,154.5 451.5,154.5 451.5,154.5 451.5,154.5 
	451.5,153.5 451.5,153.5 451.5,153.5 451.5,153.5 451.5,152.5 451.5,152.5 452.5,152.5 452.5,152.5 452.5,151.5 452.5,151.5 
	452.5,151.5 452.5,150.5 452.5,150.5 452.5,150.5 452.5,149.5 452.5,149.5 452.5,149.5 452.5,148.5 452.5,148.5 453.5,147.5 
	453.5,147.5 453.5,146.5 453.5,146.5 453.5,146.5 453.5,145.5 453.5,145.5 453.5,144.5 453.5,144.5 453.5,143.5 453.5,143.5 
	453.5,143.5 453.5,143.5 454.5,142.5 454.5,142.5 454.5,141.5 454.5,141.5 454.5,141.5 454.5,140.5 454.5,140.5 454.5,140.5 
	454.5,140.5 454.5,139.5 454.5,139.5 454.5,139.5 454.5,138.5 455.5,138.5 455.5,138.5 455.5,138.5 455.5,138.5 455.5,138.5 
	455.5,138.5 455.5,138.5 455.5,137.5 455.5,137.5 455.5,137.5 455.5,137.5 455.5,136.5 455.5,136.5 456.5,136.5 456.5,136.5 
	456.5,136.5 456.5,136.5 456.5,136.5 456.5,136.5 456.5,136.5 456.5,136.5 456.5,135.5 456.5,135.5 456.5,135.5 456.5,135.5 
	456.5,136.5 457.5,136.5 457.5,137.5 457.5,137.5 457.5,138.5 457.5,138.5 457.5,139.5 457.5,139.5 457.5,139.5 457.5,140.5 
	457.5,140.5 457.5,141.5 457.5,141.5 457.5,142.5 458.5,142.5 458.5,142.5 458.5,142.5 458.5,143.5 458.5,143.5 458.5,143.5 
	458.5,144.5 458.5,144.5 458.5,145.5 458.5,145.5 458.5,146.5 458.5,146.5 458.5,146.5 459.5,147.5 459.5,147.5 459.5,148.5 
	459.5,148.5 459.5,149.5 459.5,149.5 459.5,150.5 459.5,150.5 459.5,151.5 459.5,151.5 459.5,151.5 459.5,151.5 459.5,151.5 
	460.5,151.5 460.5,151.5 460.5,151.5 460.5,151.5 460.5,151.5 460.5,150.5 460.5,150.5 460.5,150.5 460.5,150.5 460.5,149.5 
	460.5,149.5 460.5,149.5 460.5,149.5 461.5,149.5 461.5,149.5 461.5,149.5 461.5,149.5 461.5,148.5 461.5,148.5 461.5,148.5 
	461.5,148.5 461.5,148.5 461.5,148.5 461.5,148.5 461.5,148.5 461.5,148.5 462.5,148.5 462.5,147.5 462.5,147.5 462.5,147.5 
	462.5,147.5 462.5,147.5 462.5,147.5 462.5,147.5 462.5,147.5 462.5,147.5 462.5,147.5 462.5,147.5 462.5,147.5 463.5,147.5 
	463.5,147.5 463.5,147.5 463.5,147.5 463.5,147.5 463.5,148.5 463.5,148.5 463.5,148.5 463.5,148.5 463.5,148.5 463.5,148.5 
	463.5,148.5 463.5,148.5 464.5,149.5 464.5,149.5 464.5,149.5 464.5,149.5 464.5,150.5 464.5,150.5 464.5,150.5 464.5,150.5 
	464.5,150.5 464.5,150.5 464.5,150.5 464.5,150.5 464.5,150.5 465.5,149.5 465.5,149.5 465.5,149.5 465.5,149.5 465.5,148.5 
	465.5,148.5 465.5,148.5 465.5,148.5 465.5,148.5 465.5,148.5 465.5,148.5 465.5,148.5 465.5,147.5 466.5,147.5 466.5,147.5 
	466.5,146.5 466.5,146.5 466.5,146.5 466.5,145.5 466.5,145.5 466.5,145.5 466.5,144.5 466.5,144.5 466.5,143.5 466.5,143.5 
	466.5,143.5 467.5,142.5 467.5,142.5 467.5,142.5 467.5,141.5 467.5,141.5 467.5,141.5 467.5,140.5 467.5,140.5 467.5,140.5 
	467.5,140.5 467.5,139.5 467.5,139.5 467.5,139.5 468.5,139.5 468.5,138.5 468.5,138.5 468.5,138.5 468.5,138.5 468.5,137.5 
	468.5,137.5 468.5,137.5 468.5,137.5 468.5,136.5 468.5,136.5 468.5,136.5 468.5,135.5 469.5,135.5 469.5,134.5 469.5,134.5 
	469.5,133.5 469.5,133.5 469.5,132.5 469.5,132.5 469.5,131.5 469.5,131.5 469.5,130.5 469.5,130.5 469.5,129.5 469.5,128.5 
	470.5,128.5 470.5,127.5 470.5,126.5 470.5,126.5 470.5,125.5 470.5,125.5 470.5,125.5 470.5,125.5 470.5,124.5 470.5,124.5 
	470.5,124.5 470.5,125.5 470.5,125.5 471.5,125.5 471.5,125.5 471.5,125.5 471.5,125.5 471.5,125.5 471.5,125.5 471.5,125.5 
	471.5,125.5 471.5,125.5 471.5,125.5 471.5,125.5 471.5,125.5 471.5,126.5 472.5,126.5 472.5,126.5 472.5,126.5 472.5,126.5 
	472.5,126.5 472.5,126.5 472.5,126.5 472.5,126.5 472.5,126.5 472.5,126.5 472.5,126.5 472.5,126.5 472.5,126.5 473.5,126.5 
	473.5,126.5 473.5,126.5 473.5,126.5 473.5,127.5 473.5,127.5 473.5,127.5 473.5,127.5 473.5,127.5 473.5,127.5 473.5,127.5 
	473.5,127.5 473.5,127.5 474.5,127.5 474.5,127.5 474.5,127.5 474.5,127.5 474.5,127.5 474.5,127.5 474.5,127.5 474.5,127.5 
	474.5,127.5 474.5,127.5 474.5,127.5 474.5,127.5 474.5,127.5 475.5,127.5 475.5,127.5 475.5,128.5 475.5,128.5 475.5,128.5 
	475.5,128.5 475.5,128.5 475.5,128.5 475.5,128.5 475.5,128.5 475.5,128.5 475.5,128.5 475.5,128.5 476.5,128.5 476.5,128.5 
	476.5,128.5 476.5,128.5 476.5,128.5 476.5,128.5 476.5,128.5 476.5,128.5 476.5,128.5 476.5,128.5 476.5,128.5 476.5,128.5 
	476.5,128.5 477.5,129.5 477.5,129.5 477.5,129.5 477.5,130.5 477.5,130.5 477.5,131.5 477.5,132.5 477.5,132.5 477.5,133.5 
	477.5,133.5 477.5,134.5 477.5,134.5 477.5,135.5 478.5,136.5 478.5,136.5 478.5,137.5 478.5,138.5 478.5,138.5 478.5,138.5 
	478.5,138.5 478.5,138.5 478.5,138.5 478.5,138.5 478.5,138.5 478.5,138.5 478.5,138.5 479.5,137.5 479.5,137.5 479.5,137.5 
	479.5,137.5 479.5,137.5 479.5,137.5 479.5,137.5 479.5,137.5 479.5,138.5 479.5,138.5 479.5,138.5 479.5,138.5 479.5,138.5 
	480.5,138.5 480.5,138.5 480.5,138.5 480.5,138.5 480.5,138.5 480.5,138.5 480.5,138.5 480.5,138.5 480.5,138.5 480.5,138.5 
	480.5,138.5 480.5,138.5 480.5,138.5 481.5,138.5 481.5,138.5 481.5,137.5 481.5,137.5 481.5,137.5 481.5,137.5 481.5,137.5 
	481.5,137.5 481.5,137.5 481.5,138.5 481.5,138.5 481.5,138.5 481.5,138.5 482.5,138.5 482.5,138.5 482.5,139.5 482.5,140.5 
	482.5,140.5 482.5,141.5 482.5,142.5 482.5,143.5 482.5,144.5 482.5,144.5 482.5,145.5 482.5,145.5 482.5,145.5 483.5,146.5 
	483.5,146.5 483.5,147.5 483.5,148.5 483.5,148.5 483.5,149.5 483.5,149.5 483.5,150.5 483.5,150.5 483.5,149.5 483.5,149.5 
	483.5,149.5 483.5,148.5 484.5,147.5 484.5,146.5 484.5,145.5 484.5,144.5 484.5,143.5 484.5,142.5 484.5,141.5 484.5,141.5 
	484.5,141.5 484.5,141.5 484.5,141.5 484.5,141.5 484.5,140.5 485.5,140.5 485.5,140.5 485.5,140.5 485.5,140.5 485.5,140.5 
	485.5,140.5 485.5,140.5 485.5,140.5 485.5,140.5 485.5,140.5 485.5,139.5 485.5,140.5 485.5,140.5 486.5,140.5 486.5,140.5 
	486.5,140.5 486.5,140.5 486.5,140.5 486.5,140.5 486.5,141.5 486.5,141.5 486.5,142.5 486.5,142.5 486.5,143.5 486.5,143.5 
	486.5,143.5 487.5,144.5 487.5,144.5 487.5,145.5 487.5,145.5 487.5,146.5 487.5,146.5 487.5,147.5 487.5,147.5 487.5,147.5 
	487.5,148.5 487.5,148.5 487.5,148.5 487.5,149.5 488.5,149.5 488.5,149.5 488.5,149.5 488.5,149.5 488.5,149.5 488.5,150.5 
	488.5,150.5 488.5,150.5 488.5,151.5 488.5,151.5 488.5,152.5 488.5,152.5 488.5,153.5 489.5,153.5 489.5,154.5 489.5,154.5 
	489.5,155.5 489.5,155.5 489.5,156.5 489.5,157.5 489.5,157.5 489.5,158.5 489.5,158.5 489.5,159.5 489.5,159.5 489.5,159.5 
	490.5,160.5 490.5,160.5 490.5,161.5 490.5,162.5 490.5,162.5 490.5,163.5 490.5,163.5 490.5,164.5 490.5,164.5 490.5,165.5 
	490.5,165.5 490.5,165.5 490.5,166.5 491.5,166.5 491.5,167.5 491.5,167.5 491.5,168.5 491.5,168.5 491.5,169.5 491.5,169.5 
	491.5,169.5 491.5,170.5 491.5,170.5 491.5,171.5 491.5,171.5 491.5,172.5 492.5,172.5 492.5,173.5 492.5,173.5 492.5,173.5 
	492.5,174.5 492.5,174.5 492.5,175.5 492.5,175.5 492.5,175.5 492.5,175.5 492.5,176.5 492.5,176.5 492.5,176.5 492.5,176.5 
	493.5,176.5 493.5,176.5 493.5,176.5 493.5,176.5 493.5,176.5 493.5,176.5 493.5,175.5 493.5,175.5 493.5,174.5 493.5,174.5 
	493.5,173.5 493.5,173.5 493.5,172.5 494.5,172.5 494.5,171.5 494.5,171.5 494.5,170.5 494.5,170.5 494.5,170.5 494.5,169.5 
	494.5,169.5 494.5,169.5 494.5,169.5 494.5,168.5 494.5,168.5 494.5,168.5 495.5,167.5 495.5,167.5 495.5,167.5 495.5,167.5 
	495.5,166.5 495.5,166.5 495.5,166.5 495.5,166.5 495.5,165.5 495.5,165.5 495.5,165.5 495.5,165.5 495.5,165.5 496.5,165.5 
	496.5,164.5 496.5,164.5 496.5,164.5 496.5,164.5 496.5,164.5 496.5,165.5 496.5,165.5 496.5,165.5 496.5,165.5 496.5,165.5 
	496.5,165.5 496.5,165.5 497.5,165.5 497.5,165.5 497.5,165.5 497.5,165.5 497.5,165.5 497.5,166.5 497.5,166.5 497.5,166.5 
	497.5,167.5 497.5,167.5 497.5,168.5 497.5,168.5 497.5,168.5 498.5,169.5 498.5,169.5 498.5,169.5 498.5,169.5 498.5,169.5 
	498.5,169.5 498.5,169.5 498.5,170.5 498.5,170.5 498.5,170.5 498.5,170.5 498.5,170.5 498.5,170.5 499.5,170.5 499.5,170.5 
	499.5,170.5 499.5,170.5 499.5,170.5 499.5,170.5 499.5,170.5 499.5,171.5 499.5,170.5 499.5,170.5 499.5,170.5 499.5,170.5 
	499.5,170.5 500.5,169.5 500.5,169.5 500.5,168.5 500.5,168.5 500.5,168.5 500.5,167.5 500.5,167.5 500.5,167.5 500.5,167.5 
	500.5,167.5 500.5,166.5 500.5,166.5 500.5,166.5 501.5,166.5 501.5,166.5 501.5,166.5 501.5,165.5 501.5,165.5 501.5,165.5 
	501.5,165.5 501.5,165.5 501.5,165.5 501.5,165.5 501.5,165.5 501.5,164.5 501.5,164.5 502.5,164.5 502.5,164.5 502.5,164.5 
	502.5,163.5 502.5,163.5 502.5,163.5 502.5,163.5 502.5,162.5 502.5,162.5 502.5,162.5 502.5,162.5 502.5,162.5 502.5,162.5 
	503.5,162.5 503.5,162.5 503.5,162.5 503.5,162.5 503.5,162.5 503.5,162.5 503.5,163.5 503.5,163.5 503.5,164.5 503.5,164.5 
	503.5,164.5 503.5,165.5 503.5,165.5 504.5,166.5 504.5,166.5 504.5,167.5 504.5,167.5 504.5,168.5 504.5,169.5 504.5,169.5 
	504.5,170.5 504.5,171.5 504.5,171.5 504.5,172.5 504.5,172.5 504.5,173.5 505.5,174.5 505.5,174.5 505.5,174.5 505.5,174.5 
	505.5,175.5 505.5,175.5 505.5,175.5 505.5,175.5 505.5,175.5 505.5,175.5 505.5,175.5 505.5,175.5 505.5,175.5 506.5,175.5 
	506.5,175.5 506.5,175.5 506.5,175.5 506.5,175.5 506.5,175.5 506.5,175.5 506.5,175.5 506.5,175.5 506.5,174.5 506.5,174.5 
	506.5,174.5 506.5,174.5 507.5,174.5 507.5,174.5 507.5,173.5 507.5,173.5 507.5,173.5 507.5,173.5 507.5,173.5 507.5,173.5 
	507.5,172.5 507.5,172.5 507.5,172.5 507.5,171.5 507.5,171.5 508.5,171.5 508.5,171.5 508.5,171.5 508.5,170.5 508.5,170.5 
	508.5,170.5 508.5,170.5 508.5,170.5 508.5,169.5 508.5,169.5 508.5,169.5 508.5,169.5 508.5,169.5 509.5,168.5 509.5,168.5 
	509.5,168.5 509.5,168.5 509.5,168.5 509.5,168.5 509.5,169.5 509.5,169.5 509.5,169.5 509.5,169.5 509.5,169.5 509.5,169.5 
	509.5,169.5 510.5,169.5 510.5,168.5 510.5,168.5 510.5,168.5 510.5,168.5 510.5,168.5 510.5,168.5 510.5,168.5 510.5,168.5 
	510.5,168.5 510.5,168.5 510.5,168.5 510.5,168.5 511.5,168.5 511.5,168.5 511.5,168.5 511.5,167.5 511.5,167.5 511.5,167.5 
	511.5,167.5 511.5,167.5 511.5,167.5 511.5,167.5 511.5,166.5 511.5,166.5 511.5,166.5 512.5,166.5 512.5,166.5 512.5,166.5 
	512.5,166.5 512.5,166.5 512.5,166.5 512.5,166.5 512.5,166.5 512.5,166.5 512.5,166.5 512.5,166.5 512.5,167.5 512.5,167.5 
	513.5,167.5 513.5,167.5 513.5,167.5 513.5,168.5 513.5,168.5 513.5,168.5 513.5,168.5 513.5,168.5 513.5,168.5 513.5,168.5 
	513.5,168.5 513.5,168.5 513.5,168.5 514.5,168.5 514.5,168.5 514.5,168.5 514.5,168.5 514.5,168.5 514.5,168.5 514.5,168.5 
	514.5,168.5 514.5,168.5 514.5,168.5 514.5,168.5 514.5,168.5 514.5,168.5 515.5,168.5 515.5,168.5 515.5,168.5 515.5,168.5 
	515.5,168.5 515.5,168.5 515.5,168.5 515.5,168.5 515.5,168.5 515.5,168.5 515.5,168.5 515.5,168.5 515.5,168.5 516.5,168.5 
	516.5,167.5 516.5,167.5 516.5,168.5 516.5,168.5 516.5,168.5 516.5,168.5 516.5,168.5 516.5,168.5 516.5,168.5 516.5,169.5 
	516.5,169.5 516.5,169.5 517.5,169.5 517.5,169.5 517.5,169.5 517.5,169.5 517.5,169.5 517.5,169.5 517.5,169.5 517.5,169.5 
	517.5,169.5 517.5,169.5 517.5,169.5 517.5,169.5 517.5,169.5 518.5,169.5 518.5,169.5 518.5,169.5 518.5,168.5 518.5,168.5 
	518.5,168.5 518.5,168.5 518.5,168.5 518.5,168.5 518.5,168.5 518.5,168.5 518.5,168.5 518.5,168.5 519.5,168.5 519.5,168.5 
	519.5,168.5 519.5,168.5 519.5,167.5 519.5,167.5 519.5,167.5 519.5,167.5 519.5,167.5 519.5,167.5 519.5,167.5 519.5,167.5 
	519.5,167.5 520.5,167.5 520.5,167.5 520.5,167.5 520.5,167.5 520.5,167.5 520.5,167.5 520.5,166.5 520.5,166.5 520.5,166.5 
	520.5,166.5 520.5,166.5 520.5,166.5 520.5,166.5 521.5,165.5 521.5,165.5 521.5,165.5 521.5,165.5 521.5,165.5 521.5,165.5 
	521.5,164.5 521.5,164.5 521.5,164.5 521.5,163.5 521.5,163.5 521.5,163.5 521.5,163.5 522.5,163.5 522.5,163.5 522.5,163.5 
	522.5,162.5 522.5,162.5 522.5,163.5 522.5,163.5 522.5,163.5 522.5,163.5 522.5,163.5 522.5,163.5 522.5,163.5 522.5,163.5 
	523.5,163.5 523.5,163.5 523.5,163.5 523.5,163.5 523.5,163.5 523.5,163.5 523.5,163.5 523.5,163.5 523.5,163.5 523.5,163.5 
	523.5,163.5 523.5,163.5 523.5,163.5 524.5,163.5 524.5,163.5 524.5,163.5 524.5,163.5 524.5,163.5 524.5,163.5 524.5,163.5 
	524.5,163.5 524.5,163.5 524.5,163.5 524.5,163.5 524.5,164.5 524.5,164.5 525.5,164.5 525.5,164.5 525.5,164.5 525.5,163.5 
	525.5,163.5 525.5,163.5 525.5,163.5 525.5,163.5 525.5,162.5 525.5,162.5 525.5,162.5 525.5,163.5 525.5,163.5 526.5,163.5 
	526.5,163.5 526.5,163.5 526.5,164.5 526.5,164.5 526.5,164.5 526.5,164.5 526.5,165.5 526.5,165.5 526.5,165.5 526.5,166.5 
	526.5,166.5 526.5,166.5 527.5,167.5 527.5,167.5 527.5,167.5 527.5,168.5 527.5,168.5 527.5,169.5 527.5,169.5 527.5,169.5 
	527.5,169.5 527.5,170.5 527.5,170.5 527.5,170.5 527.5,170.5 528.5,170.5 528.5,170.5 528.5,170.5 528.5,170.5 528.5,170.5 
	528.5,170.5 528.5,170.5 528.5,170.5 528.5,170.5 528.5,170.5 528.5,170.5 528.5,170.5 528.5,169.5 529.5,169.5 529.5,169.5 
	529.5,169.5 529.5,169.5 529.5,169.5 529.5,169.5 529.5,169.5 529.5,169.5 529.5,169.5 529.5,169.5 529.5,169.5 529.5,169.5 
	529.5,169.5 530.5,168.5 530.5,168.5 530.5,168.5 530.5,168.5 530.5,168.5 530.5,168.5 530.5,168.5 530.5,168.5 530.5,167.5 
	530.5,167.5 530.5,167.5 530.5,167.5 530.5,166.5 531.5,166.5 531.5,166.5 531.5,166.5 531.5,166.5 531.5,166.5 531.5,166.5 
	531.5,165.5 531.5,165.5 531.5,165.5 531.5,165.5 531.5,165.5 531.5,165.5 531.5,165.5 532.5,165.5 532.5,164.5 532.5,164.5 
	532.5,164.5 532.5,164.5 532.5,164.5 532.5,164.5 532.5,164.5 532.5,164.5 532.5,164.5 532.5,164.5 532.5,165.5 532.5,165.5 
	533.5,165.5 533.5,165.5 533.5,166.5 533.5,166.5 533.5,166.5 533.5,166.5 533.5,166.5 533.5,166.5 533.5,166.5 533.5,166.5 
	533.5,166.5 533.5,166.5 533.5,166.5 534.5,166.5 534.5,166.5 534.5,166.5 534.5,166.5 534.5,166.5 534.5,166.5 534.5,166.5 
	534.5,166.5 534.5,166.5 534.5,165.5 534.5,165.5 534.5,165.5 534.5,165.5 535.5,165.5 535.5,165.5 535.5,165.5 535.5,165.5 
	535.5,164.5 535.5,164.5 535.5,164.5 535.5,164.5 535.5,164.5 535.5,164.5 535.5,164.5 535.5,164.5 535.5,163.5 536.5,163.5 
	536.5,163.5 536.5,163.5 536.5,163.5 536.5,163.5 536.5,163.5 536.5,163.5 536.5,163.5 536.5,163.5 536.5,163.5 536.5,163.5 
	536.5,164.5 536.5,164.5 537.5,164.5 537.5,164.5 537.5,165.5 537.5,165.5 537.5,165.5 537.5,165.5 537.5,166.5 537.5,166.5 
	537.5,166.5 537.5,166.5 537.5,166.5 537.5,167.5 537.5,167.5 538.5,167.5 538.5,167.5 538.5,167.5 538.5,167.5 538.5,168.5 
	538.5,168.5 538.5,168.5 538.5,168.5 538.5,168.5 538.5,168.5 538.5,168.5 538.5,169.5 538.5,169.5 539.5,169.5 539.5,169.5 
	539.5,169.5 539.5,169.5 539.5,169.5 539.5,169.5 539.5,170.5 539.5,170.5 539.5,170.5 539.5,170.5 539.5,170.5 539.5,170.5 
	539.5,170.5 540.5,170.5 540.5,170.5 540.5,170.5 540.5,170.5 540.5,170.5 540.5,170.5 540.5,170.5 540.5,170.5 540.5,170.5 
	540.5,170.5 540.5,170.5 540.5,170.5 540.5,170.5 541.5,170.5 541.5,170.5 541.5,170.5 541.5,170.5 541.5,170.5 541.5,170.5 
	541.5,170.5 541.5,170.5 541.5,170.5 541.5,170.5 541.5,170.5 541.5,170.5 541.5,170.5 542.5,170.5 542.5,170.5 542.5,170.5 
	542.5,170.5 542.5,170.5 542.5,170.5 542.5,170.5 542.5,170.5 542.5,170.5 542.5,170.5 542.5,170.5 542.5,170.5 542.5,170.5 
	543.5,170.5 543.5,169.5 543.5,169.5 543.5,169.5 543.5,169.5 543.5,169.5 543.5,169.5 543.5,169.5 543.5,169.5 543.5,169.5 
	543.5,168.5 543.5,168.5 543.5,168.5 544.5,168.5 544.5,168.5 544.5,168.5 544.5,168.5 544.5,168.5 544.5,168.5 544.5,168.5 
	544.5,167.5 544.5,167.5 544.5,167.5 544.5,167.5 544.5,167.5 544.5,166.5 545.5,166.5 545.5,166.5 545.5,166.5 545.5,166.5 
	545.5,166.5 545.5,166.5 545.5,166.5 545.5,167.5 545.5,167.5 545.5,167.5 545.5,167.5 545.5,167.5 545.5,167.5 546.5,167.5 
	546.5,167.5 546.5,167.5 546.5,167.5 546.5,167.5 546.5,167.5 546.5,167.5 546.5,167.5 546.5,167.5 546.5,167.5 546.5,167.5 
	546.5,167.5 546.5,168.5 547.5,168.5 547.5,168.5 547.5,168.5 547.5,168.5 547.5,168.5 547.5,168.5 547.5,168.5 547.5,168.5 
	547.5,169.5 547.5,169.5 547.5,169.5 547.5,169.5 547.5,169.5 548.5,169.5 548.5,169.5 548.5,169.5 548.5,169.5 548.5,169.5 
	548.5,169.5 548.5,169.5 548.5,169.5 548.5,169.5 548.5,169.5 548.5,169.5 548.5,169.5 548.5,169.5 549.5,169.5 549.5,169.5 
	549.5,169.5 549.5,169.5 549.5,169.5 549.5,169.5 549.5,169.5 549.5,169.5 549.5,169.5 549.5,169.5 549.5,169.5 549.5,169.5 
	549.5,169.5 550.5,169.5 550.5,169.5 550.5,169.5 550.5,169.5 550.5,169.5 550.5,169.5 550.5,169.5 550.5,169.5 550.5,169.5 
	550.5,169.5 550.5,168.5 550.5,168.5 550.5,168.5 551.5,168.5 551.5,168.5 551.5,168.5 551.5,168.5 551.5,168.5 551.5,168.5 
	551.5,168.5 551.5,168.5 551.5,168.5 551.5,168.5 551.5,168.5 551.5,168.5 551.5,168.5 552.5,167.5 552.5,167.5 552.5,167.5 
	552.5,167.5 552.5,167.5 552.5,166.5 552.5,166.5 552.5,166.5 552.5,167.5 552.5,167.5 552.5,167.5 552.5,167.5 552.5,167.5 
	553.5,167.5 553.5,167.5 553.5,167.5 553.5,167.5 553.5,166.5 553.5,166.5 553.5,166.5 553.5,166.5 553.5,166.5 553.5,166.5 
	553.5,165.5 553.5,165.5 553.5,165.5 554.5,165.5 554.5,165.5 554.5,165.5 554.5,165.5 554.5,164.5 554.5,164.5 554.5,164.5 
	554.5,164.5 554.5,164.5 554.5,164.5 554.5,164.5 554.5,164.5 554.5,164.5 555.5,164.5 555.5,164.5 555.5,164.5 555.5,163.5 
	555.5,163.5 555.5,163.5 555.5,163.5 555.5,162.5 555.5,162.5 555.5,162.5 555.5,162.5 555.5,162.5 555.5,162.5 556.5,162.5 
	556.5,162.5 556.5,162.5 556.5,163.5 556.5,163.5 556.5,163.5 556.5,163.5 556.5,163.5 556.5,163.5 556.5,163.5 556.5,163.5 
	556.5,163.5 556.5,162.5 557.5,162.5 557.5,162.5 557.5,162.5 557.5,162.5 557.5,162.5 557.5,162.5 557.5,162.5 557.5,162.5 
	557.5,162.5 557.5,162.5 557.5,162.5 557.5,162.5 557.5,162.5 558.5,162.5 558.5,162.5 558.5,162.5 558.5,162.5 558.5,162.5 
	558.5,162.5 558.5,162.5 558.5,163.5 558.5,162.5 558.5,162.5 558.5,162.5 558.5,161.5 558.5,161.5 559.5,161.5 559.5,161.5 
	559.5,160.5 559.5,160.5 559.5,160.5 559.5,160.5 559.5,160.5 559.5,160.5 559.5,160.5 559.5,160.5 559.5,160.5 559.5,160.5 
	559.5,160.5 560.5,159.5 560.5,159.5 560.5,159.5 560.5,159.5 560.5,159.5 560.5,159.5 560.5,159.5 560.5,159.5 560.5,159.5 
	560.5,159.5 560.5,159.5 560.5,159.5 560.5,159.5 561.5,159.5 561.5,159.5 561.5,158.5 561.5,158.5 561.5,158.5 561.5,158.5 
	561.5,158.5 561.5,158.5 561.5,157.5 561.5,157.5 561.5,157.5 561.5,157.5 561.5,156.5 562.5,156.5 562.5,156.5 562.5,156.5 
	562.5,155.5 562.5,155.5 562.5,155.5 562.5,155.5 562.5,155.5 562.5,155.5 562.5,154.5 562.5,154.5 562.5,154.5 562.5,154.5 
	563.5,153.5 563.5,153.5 563.5,153.5 563.5,153.5 563.5,153.5 563.5,153.5 563.5,153.5 563.5,152.5 563.5,152.5 563.5,152.5 
	563.5,152.5 563.5,152.5 563.5,151.5 564.5,151.5 564.5,151.5 564.5,150.5 564.5,150.5 564.5,150.5 564.5,150.5 564.5,150.5 
	564.5,150.5 564.5,150.5 564.5,150.5 564.5,149.5 564.5,149.5 564.5,149.5 565.5,149.5 565.5,148.5 565.5,148.5 565.5,148.5 
	565.5,147.5 565.5,147.5 565.5,147.5 565.5,146.5 565.5,146.5 565.5,146.5 565.5,145.5 565.5,145.5 565.5,144.5 566.5,144.5 
	566.5,143.5 566.5,143.5 566.5,142.5 566.5,142.5 566.5,142.5 566.5,141.5 566.5,141.5 566.5,141.5 566.5,141.5 566.5,140.5 
	566.5,140.5 566.5,140.5 567.5,140.5 567.5,140.5 567.5,140.5 567.5,140.5 567.5,140.5 567.5,140.5 567.5,140.5 567.5,140.5 
	567.5,140.5 567.5,141.5 567.5,141.5 567.5,141.5 567.5,141.5 568.5,142.5 568.5,142.5 568.5,142.5 568.5,143.5 568.5,143.5 
	568.5,143.5 568.5,144.5 568.5,144.5 568.5,145.5 568.5,145.5 568.5,146.5 568.5,147.5 568.5,147.5 569.5,147.5 569.5,148.5 
	569.5,148.5 569.5,149.5 569.5,149.5 569.5,150.5 569.5,150.5 569.5,150.5 569.5,151.5 569.5,151.5 569.5,151.5 569.5,151.5 
	569.5,152.5 570.5,152.5 570.5,152.5 570.5,152.5 570.5,152.5 570.5,153.5 570.5,153.5 570.5,153.5 570.5,153.5 570.5,152.5 
	570.5,152.5 570.5,152.5 570.5,151.5 570.5,151.5 571.5,151.5 571.5,150.5 571.5,150.5 571.5,149.5 571.5,149.5 571.5,149.5 
	571.5,149.5 571.5,148.5 571.5,148.5 571.5,147.5 571.5,147.5 571.5,147.5 571.5,147.5 572.5,146.5 572.5,146.5 572.5,146.5 
	572.5,146.5 572.5,145.5 572.5,145.5 572.5,145.5 572.5,145.5 572.5,144.5 572.5,144.5 572.5,144.5 572.5,144.5 572.5,143.5 
	573.5,143.5 573.5,143.5 573.5,143.5 573.5,143.5 573.5,143.5 573.5,143.5 573.5,142.5 573.5,142.5 573.5,142.5 573.5,142.5 
	573.5,142.5 573.5,141.5 573.5,141.5 574.5,140.5 574.5,140.5 574.5,140.5 574.5,139.5 574.5,139.5 574.5,139.5 574.5,139.5 
	574.5,139.5 574.5,139.5 574.5,139.5 574.5,139.5 574.5,139.5 574.5,138.5 575.5,138.5 575.5,138.5 575.5,138.5 575.5,138.5 
	575.5,138.5 575.5,138.5 575.5,137.5 575.5,137.5 575.5,136.5 575.5,136.5 575.5,136.5 575.5,135.5 575.5,135.5 576.5,134.5 
	576.5,134.5 576.5,134.5 576.5,134.5 576.5,133.5 576.5,133.5 576.5,132.5 576.5,132.5 576.5,131.5 576.5,131.5 576.5,130.5 
	576.5,130.5 576.5,130.5 577.5,129.5 577.5,129.5 577.5,129.5 577.5,128.5 577.5,128.5 577.5,128.5 577.5,127.5 577.5,127.5 
	577.5,127.5 577.5,126.5 577.5,126.5 577.5,126.5 577.5,125.5 578.5,125.5 578.5,125.5 578.5,125.5 578.5,124.5 578.5,124.5 
	578.5,124.5 578.5,124.5 578.5,124.5 578.5,124.5 578.5,124.5 578.5,124.5 578.5,124.5 578.5,124.5 579.5,124.5 579.5,124.5 
	579.5,124.5 579.5,125.5 579.5,125.5 579.5,125.5 579.5,125.5 579.5,125.5 579.5,125.5 579.5,126.5 579.5,126.5 579.5,126.5 
	579.5,126.5 580.5,126.5 580.5,126.5 580.5,126.5 580.5,126.5 580.5,126.5 580.5,126.5 580.5,126.5 580.5,126.5 580.5,126.5 
	580.5,126.5 580.5,126.5 580.5,125.5 580.5,125.5 581.5,125.5 581.5,124.5 581.5,124.5 581.5,124.5 581.5,123.5 581.5,123.5 
	581.5,123.5 581.5,122.5 581.5,122.5 581.5,121.5 581.5,121.5 581.5,120.5 581.5,120.5 582.5,120.5 582.5,120.5 582.5,119.5 
	582.5,119.5 582.5,118.5 582.5,118.5 582.5,118.5 582.5,117.5 582.5,117.5 582.5,117.5 582.5,116.5 582.5,116.5 582.5,116.5 
	583.5,115.5 583.5,115.5 583.5,115.5 583.5,115.5 583.5,115.5 583.5,115.5 583.5,115.5 583.5,114.5 583.5,114.5 583.5,114.5 
	583.5,114.5 583.5,113.5 583.5,113.5 584.5,113.5 584.5,113.5 584.5,113.5 584.5,112.5 584.5,112.5 584.5,112.5 584.5,112.5 
	584.5,112.5 584.5,112.5 584.5,112.5 584.5,112.5 584.5,112.5 584.5,112.5 585.5,112.5 585.5,112.5 585.5,112.5 585.5,112.5 
	585.5,112.5 585.5,112.5 585.5,112.5 585.5,112.5 585.5,112.5 585.5,112.5 585.5,113.5 585.5,113.5 585.5,113.5 586.5,113.5 
	586.5,113.5 586.5,114.5 586.5,114.5 586.5,114.5 586.5,114.5 586.5,115.5 586.5,115.5 586.5,115.5 586.5,116.5 586.5,116.5 
	586.5,116.5 586.5,116.5 587.5,116.5 587.5,116.5 587.5,116.5 587.5,117.5 587.5,117.5 587.5,117.5 587.5,117.5 587.5,117.5 
	587.5,117.5 587.5,117.5 587.5,117.5 587.5,117.5 587.5,117.5 588.5,117.5 588.5,117.5 588.5,117.5 588.5,117.5 588.5,118.5 
	588.5,118.5 588.5,118.5 588.5,118.5 588.5,118.5 588.5,118.5 588.5,118.5 588.5,118.5 588.5,118.5 589.5,118.5 589.5,117.5 
	589.5,117.5 589.5,117.5 589.5,117.5 589.5,117.5 589.5,117.5 589.5,118.5 589.5,118.5 589.5,118.5 589.5,118.5 589.5,118.5 
	589.5,119.5 590.5,119.5 590.5,119.5 590.5,119.5 590.5,118.5 590.5,117.5 590.5,117.5 590.5,117.5 590.5,116.5 590.5,116.5 
	590.5,116.5 590.5,116.5 590.5,116.5 590.5,115.5 591.5,115.5 591.5,115.5 591.5,115.5 591.5,115.5 591.5,115.5 591.5,115.5 
	591.5,115.5 591.5,115.5 591.5,115.5 591.5,115.5 591.5,115.5 591.5,115.5 591.5,116.5 592.5,117.5 592.5,117.5 592.5,116.5 
	592.5,114.5 592.5,112.5 592.5,111.5 592.5,110.5 592.5,109.5 592.5,109.5 592.5,109.5 592.5,109.5 592.5,109.5 592.5,108.5 
	593.5,108.5 593.5,108.5 593.5,108.5 593.5,107.5 593.5,107.5 593.5,107.5 593.5,107.5 593.5,106.5 593.5,106.5 593.5,106.5 
	593.5,106.5 593.5,106.5 593.5,105.5 594.5,105.5 594.5,105.5 594.5,105.5 594.5,104.5 594.5,104.5 594.5,104.5 594.5,104.5 
	594.5,103.5 594.5,103.5 594.5,103.5 594.5,103.5 594.5,102.5 594.5,102.5 595.5,102.5 595.5,101.5 595.5,101.5 595.5,101.5 
	595.5,101.5 595.5,100.5 595.5,100.5 595.5,100.5 595.5,100.5 595.5,99.5 595.5,99.5 595.5,99.5 595.5,99.5 596.5,98.5 596.5,98.5 
	596.5,98.5 596.5,98.5 596.5,97.5 596.5,97.5 596.5,97.5 596.5,97.5 596.5,98.5 596.5,98.5 596.5,98.5 596.5,98.5 596.5,98.5 
	597.5,98.5 597.5,99.5 597.5,99.5 597.5,99.5 597.5,99.5 597.5,99.5 597.5,99.5 597.5,99.5 597.5,99.5 597.5,99.5 597.5,99.5 
	597.5,99.5 597.5,99.5 598.5,100.5 598.5,100.5 598.5,100.5 598.5,100.5 598.5,100.5 598.5,100.5 598.5,100.5 598.5,100.5 
	598.5,100.5 598.5,100.5 598.5,101.5 598.5,101.5 598.5,101.5 599.5,102.5 599.5,102.5 599.5,102.5 599.5,103.5 599.5,103.5 
	599.5,103.5 599.5,104.5 599.5,104.5 599.5,104.5 599.5,105.5 599.5,105.5 599.5,105.5 599.5,105.5 600.5,106.5 600.5,106.5 
	600.5,106.5 600.5,107.5 600.5,107.5 600.5,107.5 600.5,107.5 600.5,107.5 600.5,107.5 600.5,108.5 600.5,108.5 600.5,108.5 
	600.5,108.5 601.5,108.5 601.5,109.5 601.5,109.5 601.5,109.5 601.5,109.5 601.5,109.5 601.5,109.5 601.5,109.5 601.5,109.5 
	601.5,109.5 601.5,110.5 601.5,110.5 601.5,110.5 602.5,110.5 602.5,110.5 602.5,110.5 602.5,110.5 602.5,110.5 602.5,110.5 
	602.5,110.5 602.5,111.5 602.5,111.5 602.5,112.5 602.5,113.5 602.5,114.5 602.5,114.5 603.5,114.5 603.5,113.5 603.5,113.5 
	603.5,113.5 603.5,113.5 603.5,112.5 603.5,112.5 603.5,112.5 603.5,112.5 603.5,112.5 603.5,112.5 603.5,112.5 603.5,112.5 
	604.5,112.5 604.5,112.5 604.5,113.5 604.5,113.5 604.5,113.5 604.5,113.5 604.5,113.5 604.5,113.5 604.5,113.5 604.5,113.5 
	604.5,113.5 604.5,113.5 604.5,113.5 605.5,113.5 605.5,113.5 605.5,113.5 605.5,113.5 605.5,113.5 605.5,113.5 605.5,113.5 
	605.5,114.5 605.5,114.5 605.5,115.5 605.5,115.5 605.5,115.5 605.5,116.5 606.5,116.5 606.5,116.5 606.5,116.5 606.5,116.5 
	606.5,116.5 606.5,117.5 606.5,117.5 606.5,117.5 606.5,118.5 606.5,118.5 606.5,119.5 606.5,119.5 606.5,120.5 607.5,120.5 
	607.5,120.5 607.5,119.5 607.5,119.5 607.5,119.5 607.5,119.5 607.5,119.5 607.5,119.5 607.5,119.5 607.5,118.5 607.5,118.5 
	607.5,118.5 607.5,118.5 608.5,117.5 608.5,117.5 608.5,117.5 608.5,116.5 608.5,116.5 608.5,116.5 608.5,115.5 608.5,115.5 
	608.5,115.5 608.5,115.5 608.5,115.5 608.5,114.5 608.5,114.5 609.5,114.5 609.5,114.5 609.5,114.5 609.5,114.5 609.5,114.5 
	609.5,114.5 609.5,114.5 609.5,115.5 609.5,115.5 609.5,115.5 609.5,115.5 609.5,116.5 609.5,116.5 610.5,116.5 610.5,116.5 
	610.5,116.5 610.5,116.5 610.5,116.5 610.5,116.5 610.5,116.5 610.5,115.5 610.5,115.5 610.5,115.5 610.5,115.5 610.5,115.5 
	610.5,115.5 611.5,115.5 611.5,115.5 611.5,115.5 611.5,115.5 611.5,115.5 611.5,115.5 611.5,115.5 611.5,115.5 611.5,116.5 
	611.5,116.5 611.5,116.5 611.5,116.5 611.5,117.5 612.5,117.5 612.5,118.5 612.5,118.5 612.5,119.5 612.5,119.5 612.5,120.5 
	612.5,120.5 612.5,121.5 612.5,122.5 612.5,122.5 612.5,123.5 612.5,123.5 612.5,124.5 613.5,124.5 613.5,125.5 613.5,126.5 
	613.5,126.5 613.5,127.5 613.5,127.5 613.5,128.5 613.5,128.5 613.5,129.5 613.5,129.5 613.5,129.5 613.5,130.5 613.5,130.5 
	614.5,130.5 614.5,131.5 614.5,131.5 614.5,132.5 614.5,132.5 614.5,132.5 614.5,133.5 614.5,133.5 614.5,133.5 614.5,133.5 
	614.5,133.5 614.5,134.5 614.5,134.5 615.5,134.5 615.5,134.5 615.5,135.5 615.5,135.5 615.5,135.5 615.5,135.5 615.5,135.5 
	615.5,136.5 615.5,136.5 615.5,136.5 615.5,136.5 615.5,137.5 615.5,137.5 616.5,137.5 616.5,137.5 616.5,137.5 616.5,137.5 
	616.5,138.5 616.5,138.5 616.5,138.5 616.5,138.5 616.5,138.5 616.5,138.5 616.5,139.5 616.5,139.5 616.5,139.5 617.5,139.5 
	617.5,140.5 617.5,140.5 617.5,140.5 617.5,140.5 617.5,140.5 617.5,140.5 617.5,140.5 617.5,140.5 617.5,140.5 617.5,140.5 
	617.5,139.5 617.5,139.5 618.5,140.5 618.5,140.5 618.5,140.5 618.5,140.5 618.5,140.5 618.5,140.5 618.5,140.5 618.5,140.5 
	618.5,140.5 618.5,140.5 618.5,140.5 618.5,140.5 618.5,140.5 619.5,140.5 619.5,140.5 619.5,140.5 619.5,139.5 619.5,139.5 
	619.5,139.5 619.5,139.5 619.5,139.5 619.5,138.5 619.5,138.5 619.5,137.5 619.5,137.5 619.5,137.5 620.5,136.5 620.5,136.5 
	620.5,136.5 620.5,135.5 620.5,135.5 620.5,135.5 620.5,135.5 620.5,135.5 620.5,135.5 620.5,135.5 620.5,135.5 620.5,135.5 
	620.5,135.5 621.5,135.5 621.5,135.5 621.5,135.5 621.5,135.5 621.5,136.5 621.5,136.5 621.5,136.5 621.5,136.5 621.5,136.5 
	621.5,137.5 621.5,137.5 621.5,137.5 621.5,137.5 622.5,137.5 622.5,137.5 622.5,138.5 622.5,138.5 622.5,138.5 622.5,138.5 
	622.5,138.5 622.5,139.5 622.5,139.5 622.5,139.5 622.5,139.5 622.5,139.5 622.5,139.5 623.5,139.5 623.5,140.5 623.5,140.5 
	623.5,140.5 623.5,140.5 623.5,140.5 623.5,140.5 623.5,140.5 623.5,141.5 623.5,141.5 623.5,141.5 623.5,141.5 623.5,141.5 
	624.5,142.5 624.5,142.5 624.5,142.5 624.5,142.5 624.5,142.5 624.5,143.5 624.5,143.5 624.5,143.5 624.5,143.5 624.5,143.5 
	624.5,144.5 624.5,143.5 624.5,143.5 625.5,143.5 625.5,143.5 625.5,143.5 625.5,143.5 625.5,143.5 625.5,143.5 625.5,143.5 
	625.5,142.5 625.5,142.5 625.5,142.5 625.5,142.5 625.5,142.5 625.5,142.5 626.5,142.5 626.5,142.5 626.5,142.5 626.5,142.5 
	626.5,141.5 626.5,141.5 626.5,141.5 626.5,141.5 626.5,141.5 626.5,141.5 626.5,141.5 626.5,140.5 626.5,140.5 627.5,140.5 
	627.5,140.5 627.5,140.5 627.5,139.5 627.5,139.5 627.5,139.5 627.5,139.5 627.5,139.5 627.5,138.5 627.5,138.5 627.5,137.5 
	627.5,137.5 627.5,137.5 628.5,137.5 628.5,136.5 628.5,136.5 628.5,136.5 628.5,136.5 628.5,136.5 628.5,136.5 628.5,136.5 
	628.5,136.5 628.5,136.5 628.5,136.5 628.5,136.5 628.5,136.5 629.5,136.5 629.5,136.5 629.5,136.5 629.5,136.5 629.5,136.5 
	629.5,136.5 629.5,136.5 629.5,136.5 629.5,137.5 629.5,137.5 629.5,137.5 629.5,137.5 629.5,137.5 630.5,137.5 630.5,137.5 
	630.5,137.5 630.5,137.5 630.5,137.5 630.5,137.5 630.5,137.5 630.5,137.5 630.5,137.5 630.5,138.5 630.5,138.5 630.5,138.5 
	630.5,138.5 631.5,138.5 631.5,138.5 631.5,138.5 631.5,138.5 631.5,138.5 631.5,138.5 631.5,138.5 631.5,138.5 631.5,138.5 
	631.5,138.5 631.5,138.5 631.5,138.5 631.5,138.5 632.5,138.5 632.5,139.5 632.5,139.5 632.5,139.5 632.5,139.5 632.5,140.5 
	632.5,140.5 632.5,140.5 632.5,140.5 632.5,140.5 632.5,141.5 632.5,141.5 632.5,141.5 633.5,141.5 633.5,141.5 633.5,141.5 
	633.5,141.5 633.5,141.5 633.5,141.5 633.5,141.5 633.5,141.5 633.5,141.5 633.5,141.5 633.5,141.5 633.5,141.5 633.5,140.5 
	634.5,140.5 634.5,140.5 634.5,140.5 634.5,140.5 634.5,139.5 634.5,139.5 634.5,139.5 634.5,139.5 634.5,139.5 634.5,139.5 
	634.5,138.5 634.5,138.5 634.5,138.5 635.5,138.5 635.5,138.5 635.5,138.5 635.5,138.5 635.5,138.5 635.5,138.5 635.5,138.5 
	635.5,138.5 635.5,138.5 635.5,138.5 635.5,138.5 635.5,138.5 635.5,139.5 636.5,139.5 636.5,139.5 636.5,139.5 636.5,140.5 
	636.5,140.5 636.5,140.5 636.5,141.5 636.5,141.5 636.5,141.5 636.5,142.5 636.5,142.5 636.5,143.5 636.5,143.5 637.5,143.5 
	637.5,143.5 637.5,144.5 637.5,144.5 637.5,145.5 637.5,145.5 637.5,145.5 637.5,145.5 637.5,145.5 637.5,146.5 637.5,146.5 
	637.5,147.5 637.5,147.5 638.5,148.5 638.5,148.5 638.5,148.5 638.5,148.5 638.5,148.5 638.5,148.5 638.5,148.5 638.5,148.5 
	638.5,148.5 638.5,148.5 638.5,149.5 638.5,149.5 638.5,149.5 639.5,149.5 639.5,149.5 639.5,149.5 639.5,149.5 639.5,149.5 
	639.5,149.5 639.5,149.5 639.5,149.5 639.5,149.5 639.5,149.5 639.5,149.5 639.5,149.5 639.5,149.5 640.5,149.5 640.5,149.5 
	640.5,150.5 640.5,150.5 640.5,150.5 640.5,150.5 640.5,150.5 640.5,151.5 640.5,151.5 640.5,152.5 640.5,152.5 640.5,152.5 
	640.5,153.5 641.5,153.5 641.5,153.5 641.5,154.5 641.5,154.5 641.5,154.5 641.5,155.5 641.5,155.5 641.5,156.5 641.5,156.5 
	641.5,157.5 641.5,157.5 641.5,158.5 641.5,158.5 642.5,158.5 642.5,158.5 642.5,159.5 642.5,159.5 642.5,159.5 642.5,160.5 
	642.5,160.5 642.5,160.5 642.5,161.5 642.5,161.5 642.5,161.5 642.5,161.5 642.5,162.5 643.5,162.5 643.5,162.5 643.5,162.5 
	643.5,163.5 643.5,163.5 643.5,163.5 643.5,163.5 643.5,163.5 643.5,163.5 643.5,163.5 643.5,163.5 643.5,163.5 643.5,163.5 
	644.5,163.5 644.5,163.5 644.5,163.5 644.5,163.5 644.5,163.5 644.5,164.5 644.5,164.5 644.5,164.5 644.5,164.5 644.5,164.5 
	644.5,164.5 644.5,164.5 644.5,165.5 645.5,165.5 645.5,165.5 645.5,164.5 645.5,164.5 645.5,164.5 645.5,164.5 645.5,164.5 
	645.5,164.5 645.5,164.5 645.5,164.5 645.5,164.5 645.5,164.5 645.5,164.5 646.5,164.5 646.5,164.5 646.5,163.5 646.5,163.5 
	646.5,163.5 646.5,163.5 646.5,163.5 646.5,162.5 646.5,162.5 646.5,162.5 646.5,161.5 646.5,161.5 646.5,161.5 647.5,160.5 
	647.5,160.5 647.5,160.5 647.5,159.5 647.5,159.5 647.5,158.5 647.5,158.5 647.5,158.5 647.5,158.5 647.5,158.5 647.5,157.5 
	647.5,157.5 647.5,157.5 648.5,157.5 648.5,157.5 648.5,157.5 648.5,157.5 648.5,157.5 648.5,157.5 648.5,157.5 648.5,157.5 
	648.5,157.5 648.5,157.5 648.5,156.5 648.5,156.5 648.5,156.5 649.5,156.5 649.5,156.5 649.5,156.5 649.5,156.5 649.5,156.5 
	649.5,156.5 649.5,156.5 649.5,156.5 649.5,157.5 649.5,157.5 649.5,157.5 649.5,157.5 649.5,157.5 650.5,157.5 650.5,157.5 
	650.5,157.5 650.5,157.5 650.5,157.5 650.5,158.5 650.5,158.5 650.5,159.5 650.5,159.5 650.5,159.5 650.5,159.5 650.5,160.5 
	650.5,160.5 651.5,160.5 651.5,161.5 651.5,161.5 651.5,161.5 651.5,161.5 651.5,161.5 651.5,161.5 651.5,161.5 651.5,161.5 
	651.5,161.5 651.5,161.5 651.5,161.5 651.5,161.5 652.5,160.5 652.5,160.5 652.5,160.5 652.5,160.5 652.5,160.5 652.5,160.5 
	652.5,160.5 652.5,159.5 652.5,159.5 652.5,159.5 652.5,159.5 652.5,159.5 652.5,158.5 653.5,158.5 653.5,158.5 653.5,158.5 
	653.5,158.5 653.5,158.5 653.5,158.5 653.5,158.5 653.5,157.5 653.5,157.5 653.5,157.5 653.5,156.5 653.5,156.5 653.5,155.5 
	654.5,155.5 654.5,154.5 654.5,154.5 654.5,153.5 654.5,153.5 654.5,153.5 654.5,152.5 654.5,152.5 654.5,151.5 654.5,151.5 
	654.5,151.5 654.5,150.5 654.5,150.5 655.5,149.5 655.5,149.5 655.5,149.5 655.5,148.5 655.5,148.5 655.5,147.5 655.5,147.5 
	655.5,146.5 655.5,146.5 655.5,146.5 655.5,146.5 655.5,145.5 655.5,145.5 656.5,144.5 656.5,144.5 656.5,143.5 656.5,142.5 
	656.5,142.5 656.5,141.5 656.5,141.5 656.5,141.5 656.5,140.5 656.5,140.5 656.5,140.5 656.5,139.5 656.5,139.5 657.5,139.5 
	657.5,139.5 657.5,139.5 657.5,138.5 657.5,138.5 657.5,138.5 657.5,138.5 657.5,138.5 657.5,138.5 657.5,138.5 657.5,138.5 
	657.5,138.5 657.5,138.5 658.5,138.5 658.5,137.5 658.5,137.5 658.5,137.5 658.5,137.5 658.5,138.5 658.5,138.5 658.5,139.5 
	658.5,139.5 658.5,140.5 658.5,141.5 658.5,141.5 658.5,142.5 659.5,143.5 659.5,143.5 659.5,144.5 659.5,144.5 659.5,145.5 
	659.5,145.5 659.5,145.5 659.5,145.5 659.5,145.5 659.5,145.5 659.5,145.5 659.5,144.5 659.5,144.5 660.5,144.5 660.5,144.5 
	660.5,144.5 660.5,144.5 660.5,145.5 660.5,145.5 660.5,145.5 660.5,145.5 660.5,145.5 660.5,146.5 660.5,146.5 660.5,146.5 
	660.5,147.5 661.5,147.5 661.5,147.5 661.5,147.5 661.5,147.5 661.5,148.5 661.5,148.5 661.5,148.5 661.5,148.5 661.5,148.5 
	661.5,148.5 661.5,148.5 661.5,148.5 661.5,147.5 662.5,147.5 662.5,147.5 662.5,147.5 662.5,147.5 662.5,147.5 662.5,147.5 
	662.5,147.5 662.5,147.5 662.5,148.5 662.5,148.5 662.5,147.5 662.5,147.5 662.5,148.5 663.5,148.5 663.5,149.5 663.5,149.5 
	663.5,149.5 663.5,150.5 663.5,150.5 663.5,151.5 663.5,151.5 663.5,152.5 663.5,152.5 663.5,152.5 663.5,153.5 663.5,153.5 
	664.5,154.5 664.5,154.5 664.5,155.5 664.5,155.5 664.5,156.5 664.5,156.5 664.5,156.5 664.5,157.5 664.5,157.5 664.5,157.5 
	664.5,158.5 664.5,159.5 664.5,159.5 665.5,159.5 665.5,160.5 665.5,160.5 665.5,161.5 665.5,162.5 665.5,163.5 665.5,163.5 
	665.5,164.5 665.5,165.5 665.5,165.5 665.5,165.5 665.5,165.5 665.5,166.5 666.5,166.5 666.5,166.5 666.5,166.5 666.5,166.5 
	666.5,166.5 666.5,167.5 666.5,167.5 666.5,168.5 666.5,168.5 666.5,169.5 666.5,169.5 666.5,170.5 666.5,170.5 667.5,171.5 
	667.5,171.5 667.5,172.5 667.5,172.5 667.5,172.5 667.5,173.5 667.5,173.5 667.5,173.5 667.5,174.5 667.5,174.5 667.5,174.5 
	667.5,175.5 667.5,175.5 668.5,175.5 668.5,175.5 668.5,176.5 668.5,176.5 668.5,176.5 668.5,176.5 668.5,176.5 668.5,176.5 
	668.5,176.5 668.5,176.5 668.5,176.5 668.5,176.5 668.5,176.5 669.5,176.5 669.5,176.5 669.5,176.5 669.5,176.5 669.5,176.5 
	669.5,176.5 669.5,176.5 669.5,175.5 669.5,175.5 669.5,175.5 669.5,174.5 669.5,174.5 669.5,173.5 670.5,173.5 670.5,173.5 
	670.5,172.5 670.5,172.5 670.5,172.5 670.5,171.5 670.5,171.5 670.5,171.5 670.5,170.5 670.5,170.5 670.5,170.5 670.5,169.5 
	670.5,169.5 671.5,169.5 671.5,169.5 671.5,169.5 671.5,169.5 671.5,169.5 671.5,169.5 671.5,169.5 671.5,169.5 671.5,169.5 
	671.5,169.5 671.5,169.5 671.5,169.5 671.5,169.5 672.5,169.5 672.5,169.5 672.5,169.5 672.5,169.5 672.5,169.5 672.5,169.5 
	672.5,170.5 672.5,170.5 672.5,170.5 672.5,170.5 672.5,170.5 672.5,171.5 672.5,171.5 673.5,171.5 673.5,172.5 673.5,172.5 
	673.5,172.5 673.5,172.5 673.5,173.5 673.5,173.5 673.5,173.5 673.5,174.5 673.5,174.5 673.5,174.5 673.5,174.5 673.5,174.5 
	674.5,175.5 674.5,175.5 674.5,175.5 674.5,175.5 674.5,176.5 674.5,176.5 674.5,176.5 674.5,176.5 674.5,177.5 674.5,177.5 
	674.5,177.5 674.5,177.5 674.5,178.5 675.5,178.5 675.5,178.5 675.5,179.5 675.5,179.5 675.5,180.5 675.5,180.5 675.5,181.5 
	675.5,181.5 675.5,181.5 675.5,182.5 675.5,182.5 675.5,183.5 675.5,183.5 676.5,184.5 676.5,184.5 676.5,184.5 676.5,183.5 
	676.5,183.5 676.5,183.5 676.5,183.5 676.5,183.5 676.5,183.5 676.5,183.5 676.5,183.5 676.5,183.5 676.5,183.5 677.5,183.5 
	677.5,183.5 677.5,183.5 677.5,183.5 677.5,183.5 677.5,183.5 677.5,183.5 677.5,183.5 677.5,183.5 677.5,183.5 677.5,183.5 
	677.5,183.5 677.5,183.5 678.5,183.5 678.5,183.5 678.5,183.5 678.5,183.5 678.5,183.5 678.5,183.5 678.5,183.5 678.5,183.5 
	678.5,182.5 678.5,182.5 678.5,182.5 678.5,182.5 678.5,181.5 679.5,181.5 679.5,180.5 679.5,180.5 679.5,179.5 679.5,179.5 
	679.5,178.5 679.5,177.5 679.5,176.5 679.5,175.5 679.5,174.5 679.5,173.5 679.5,172.5 679.5,172.5 680.5,171.5 680.5,170.5 
	680.5,169.5 680.5,168.5 680.5,167.5 680.5,167.5 680.5,166.5 680.5,166.5 680.5,165.5 680.5,165.5 680.5,164.5 680.5,164.5 
	680.5,164.5 681.5,163.5 681.5,163.5 681.5,162.5 681.5,162.5 681.5,162.5 681.5,162.5 681.5,162.5 681.5,162.5 681.5,162.5 
	681.5,162.5 681.5,163.5 681.5,163.5 681.5,163.5 682.5,163.5 682.5,163.5 682.5,164.5 682.5,164.5 682.5,164.5 682.5,164.5 
	682.5,164.5 682.5,164.5 682.5,164.5 682.5,164.5 682.5,164.5 682.5,164.5 682.5,164.5 683.5,164.5 683.5,163.5 683.5,163.5 
	683.5,163.5 683.5,163.5 683.5,163.5 683.5,163.5 683.5,162.5 683.5,162.5 683.5,162.5 683.5,161.5 683.5,161.5 683.5,161.5 
	684.5,160.5 684.5,160.5 684.5,159.5 684.5,159.5 684.5,158.5 684.5,158.5 684.5,158.5 684.5,157.5 684.5,157.5 684.5,156.5 
	684.5,155.5 684.5,155.5 684.5,154.5 685.5,154.5 685.5,153.5 685.5,153.5 685.5,152.5 685.5,152.5 685.5,151.5 685.5,151.5 
	685.5,151.5 685.5,150.5 685.5,150.5 685.5,149.5 685.5,149.5 685.5,149.5 686.5,148.5 686.5,148.5 686.5,148.5 686.5,147.5 
	686.5,147.5 686.5,147.5 686.5,147.5 686.5,146.5 686.5,146.5 686.5,146.5 686.5,146.5 686.5,146.5 686.5,145.5 687.5,145.5 
	687.5,145.5 687.5,145.5 687.5,145.5 687.5,145.5 687.5,145.5 687.5,145.5 687.5,145.5 687.5,145.5 687.5,145.5 687.5,145.5 
	687.5,145.5 687.5,145.5 688.5,145.5 688.5,145.5 688.5,146.5 688.5,146.5 688.5,146.5 688.5,146.5 688.5,146.5 688.5,147.5 
	688.5,147.5 688.5,147.5 688.5,148.5 688.5,148.5 688.5,148.5 688.5,149.5 689.5,149.5 689.5,150.5 689.5,150.5 689.5,150.5 
	689.5,151.5 689.5,151.5 689.5,152.5 689.5,152.5 689.5,152.5 689.5,153.5 689.5,153.5 689.5,153.5 689.5,154.5 690.5,154.5 
	690.5,154.5 690.5,154.5 690.5,154.5 690.5,154.5 690.5,154.5 690.5,154.5 690.5,154.5 690.5,154.5 690.5,154.5 690.5,154.5 
	690.5,154.5 690.5,154.5 691.5,154.5 691.5,154.5 691.5,154.5 691.5,154.5 691.5,154.5 691.5,154.5 691.5,154.5 691.5,154.5 
	691.5,154.5 691.5,154.5 691.5,154.5 691.5,154.5 691.5,155.5 692.5,155.5 692.5,155.5 692.5,155.5 692.5,155.5 692.5,155.5 
	692.5,155.5 692.5,155.5 692.5,155.5 692.5,155.5 692.5,155.5 692.5,155.5 692.5,155.5 692.5,155.5 693.5,155.5 693.5,155.5 
	693.5,156.5 693.5,156.5 693.5,156.5 693.5,156.5 693.5,156.5 693.5,156.5 693.5,156.5 693.5,156.5 693.5,156.5 693.5,156.5 
	693.5,156.5 694.5,157.5 694.5,157.5 694.5,157.5 694.5,157.5 694.5,157.5 694.5,158.5 694.5,158.5 694.5,158.5 694.5,158.5 
	694.5,158.5 694.5,159.5 694.5,159.5 694.5,159.5 695.5,159.5 695.5,159.5 695.5,159.5 695.5,160.5 695.5,160.5 695.5,160.5 
	695.5,160.5 695.5,160.5 695.5,160.5 695.5,160.5 695.5,160.5 695.5,160.5 695.5,160.5 696.5,160.5 696.5,160.5 696.5,159.5 
	696.5,159.5 696.5,159.5 696.5,159.5 696.5,159.5 696.5,159.5 696.5,159.5 696.5,158.5 696.5,158.5 696.5,158.5 696.5,158.5 
	697.5,158.5 697.5,158.5 697.5,157.5 697.5,157.5 697.5,157.5 697.5,157.5 697.5,157.5 697.5,156.5 697.5,156.5 697.5,156.5 
	697.5,156.5 697.5,156.5 697.5,156.5 698.5,156.5 698.5,156.5 698.5,156.5 698.5,156.5 698.5,155.5 698.5,155.5 698.5,155.5 
	698.5,155.5 698.5,155.5 698.5,155.5 698.5,155.5 698.5,156.5 698.5,156.5 699.5,156.5 699.5,156.5 699.5,156.5 699.5,156.5 
	699.5,156.5 699.5,156.5 699.5,156.5 699.5,156.5 699.5,156.5 699.5,156.5 699.5,156.5 699.5,156.5 699.5,156.5 700.5,156.5 
	700.5,157.5 700.5,157.5 700.5,157.5 700.5,158.5 700.5,158.5 700.5,158.5 700.5,159.5 700.5,159.5 700.5,159.5 700.5,160.5 
	700.5,160.5 700.5,160.5 701.5,161.5 701.5,161.5 701.5,162.5 701.5,162.5 701.5,162.5 701.5,163.5 701.5,163.5 701.5,163.5 
	701.5,164.5 701.5,164.5 701.5,164.5 701.5,165.5 701.5,165.5 702.5,165.5 702.5,166.5 702.5,166.5 702.5,166.5 702.5,166.5 
	702.5,167.5 702.5,167.5 702.5,167.5 702.5,166.5 702.5,166.5 702.5,166.5 702.5,166.5 702.5,166.5 703.5,166.5 703.5,166.5 
	703.5,166.5 703.5,166.5 703.5,166.5 703.5,166.5 703.5,166.5 703.5,166.5 703.5,166.5 703.5,166.5 703.5,166.5 703.5,166.5 
	703.5,166.5 704.5,166.5 704.5,166.5 704.5,166.5 704.5,166.5 704.5,166.5 704.5,166.5 704.5,166.5 704.5,166.5 704.5,166.5 
	704.5,166.5 704.5,166.5 704.5,167.5 704.5,167.5 705.5,167.5 705.5,167.5 705.5,167.5 705.5,167.5 705.5,167.5 705.5,167.5 
	705.5,168.5 705.5,168.5 705.5,168.5 705.5,168.5 705.5,168.5 705.5,168.5 705.5,168.5 706.5,168.5 706.5,168.5 706.5,168.5 
	706.5,168.5 706.5,168.5 706.5,168.5 706.5,168.5 706.5,168.5 706.5,168.5 706.5,168.5 706.5,168.5 706.5,168.5 706.5,168.5 
	707.5,168.5 707.5,168.5 707.5,168.5 707.5,168.5 707.5,168.5 707.5,168.5 707.5,168.5 707.5,168.5 707.5,168.5 707.5,168.5 
	707.5,168.5 707.5,168.5 707.5,168.5 708.5,168.5 708.5,168.5 708.5,169.5 708.5,169.5 708.5,169.5 708.5,169.5 708.5,169.5 
	708.5,169.5 708.5,169.5 708.5,169.5 708.5,170.5 708.5,170.5 708.5,170.5 709.5,170.5 709.5,170.5 709.5,170.5 709.5,170.5 
	709.5,170.5 709.5,170.5 709.5,170.5 709.5,170.5 709.5,170.5 709.5,170.5 "/>
</svg>
