<?xml version="1.0" encoding="UTF-8" standalone="no"?><svg width="282.222mm" height="141.111mm" xmlns="http://www.w3.org/2000/svg" xmlns:xlink="http://www.w3.org/1999/xlink"  version="1.2" baseProfile="tiny"><g fill="none" stroke="#ff0000" stroke-linecap="round" stroke-linejoin="round" stroke-opacity="1" stroke-width="1.5" transform="matrix(1,0,0,1,0,0)">
<polyline fill="none" points="143,328 143,328 144,328 144,328 144,328 144,328 144,328 144,327 144,327 144,327 144,327 144,327 144,327 144,327 144,327 145,327 145,327 145,327 145,327 145,327 145,327 145,327 145,328 145,328 145,328 145,328 145,328 145,328 146,329 146,329 146,329 146,329 146,329 146,329 146,329 146,329 146,329 146,328 146,328 146,328 146,328 147,328 147,328 147,329 147,329 147,328 147,328 147,328 147,328 147,328 147,328 147,328 147,328 147,328 148,328 148,328 148,328 148,328 148,328 148,329 148,329 148,329 148,329 148,329 148,329 148,329 148,329 149,329 149,329 149,329 149,329 149,329 149,329 149,329 149,329 149,329 149,329 149,330 149,330 149,330 150,330 150,330 150,329 150,329 150,329 150,329 150,329 150,329 150,330 150,330 150,330 150,330 150,330 151,330 151,330 151,330 151,330 151,330 151,330 151,330 151,330 151,331 151,331 151,331 151,331 151,331 152,331 152,331 152,331 152,331 152,331 152,331 152,331 152,331 152,331 152,331 152,331 152,331 152,331 153,331 153,331 153,331 153,331 153,331 153,331 153,331 153,331 153,331 153,331 153,331 153,331 153,331 154,332 154,332 154,332 154,332 154,332 154,332 154,332 154,332 154,332 154,333 154,333 154,333 154,333 155,333 155,333 155,334 155,334 155,334 155,334 155,334 155,334 155,334 155,334 155,334 155,334 155,333 156,333 156,333 156,333 156,332 156,332 156,332 156,332 156,332 156,332 156,332 156,331 156,331 156,331 157,331 157,331 157,331 157,331 157,331 157,331 157,331 157,331 157,331 157,331 157,331 157,331 157,331 158,330 158,330 158,330 158,330 158,329 158,329 158,329 158,329 158,329 158,329 158,329 158,328 158,328 159,328 159,328 159,328 159,328 159,327 159,327 159,327 159,327 159,327 159,327 159,327 159,327 159,327 160,327 160,327 160,327 160,327 160,327 160,327 160,327 160,326 160,326 160,326 160,326 160,326 160,326 161,325 161,325 161,325 161,325 161,325 161,325 161,324 161,324 161,324 161,324 161,323 161,323 161,323 162,323 162,323 162,323 162,323 162,323 162,323 162,324 162,324 162,323 162,323 162,323 162,323 162,322 163,322 163,322 163,322 163,322 163,322 163,322 163,322 163,322 163,321 163,321 163,321 163,321 163,321 163,321 164,321 164,321 164,321 164,321 164,321 164,321 164,320 164,320 164,320 164,320 164,320 164,320 164,320 165,320 165,320 165,320 165,320 165,320 165,320 165,320 165,320 165,320 165,320 165,320 165,320 165,320 166,320 166,320 166,320 166,320 166,320 166,320 166,320 166,320 166,320 166,320 166,320 166,320 166,320 167,320 167,320 167,320 167,320 167,320 167,320 167,320 167,320 167,320 167,320 167,320 167,321 167,321 168,321 168,321 168,321 168,321 168,321 168,321 168,321 168,321 168,321 168,321 168,321 168,321 168,321 169,321 169,321 169,321 169,320 169,320 169,320 169,321 169,321 169,321 169,321 169,321 169,321 169,321 170,321 170,321 170,320 170,320 170,320 170,320 170,320 170,320 170,320 170,320 170,321 170,321 170,320 171,320 171,320 171,320 171,320 171,320 171,320 171,320 171,320 171,320 171,320 171,320 171,320 171,319 172,319 172,319 172,319 172,319 172,320 172,320 172,320 172,320 172,320 172,320 172,320 172,320 172,320 173,320 173,320 173,320 173,320 173,320 173,320 173,320 173,320 173,320 173,320 173,320 173,319 173,319 174,319 174,319 174,319 174,319 174,320 174,320 174,320 174,320 174,320 174,320 174,320 174,320 174,320 175,320 175,320 175,320 175,320 175,320 175,320 175,320 175,320 175,320 175,320 175,321 175,321 175,321 176,321 176,321 176,321 176,321 176,321 176,322 176,322 176,322 176,322 176,322 176,322 176,322 176,322 177,322 177,322 177,323 177,323 177,323 177,323 177,323 177,323 177,323 177,323 177,323 177,323 177,323 178,323 178,323 178,322 178,322 178,322 178,322 178,322 178,322 178,321 178,321 178,321 178,321 178,321 179,320 179,320 179,320 179,320 179,320 179,319 179,319 179,319 179,319 179,319 179,318 179,318 179,318 180,318 180,318 180,318 180,318 180,318 180,318 180,319 180,319 180,319 180,319 180,319 180,319 180,320 181,320 181,320 181,320 181,320 181,320 181,321 181,321 181,321 181,321 181,321 181,321 181,321 181,321 182,321 182,322 182,322 182,322 182,322 182,323 182,323 182,323 182,322 182,322 182,322 182,323 182,323 183,323 183,323 183,323 183,323 183,323 183,323 183,323 183,323 183,323 183,324 183,324 183,324 183,324 184,324 184,324 184,324 184,324 184,325 184,325 184,325 184,325 184,325 184,325 184,325 184,325 184,325 185,325 185,325 185,325 185,325 185,325 185,325 185,325 185,325 185,325 185,325 185,325 185,325 185,325 186,325 186,325 186,325 186,325 186,325 186,325 186,325 186,325 186,325 186,324 186,324 186,324 186,324 187,324 187,324 187,324 187,324 187,324 187,325 187,325 187,325 187,325 187,325 187,325 187,325 187,325 188,325 188,325 188,325 188,324 188,324 188,324 188,324 188,324 188,324 188,324 188,324 188,324 188,324 189,324 189,324 189,323 189,323 189,323 189,323 189,323 189,322 189,322 189,322 189,322 189,322 189,322 190,322 190,322 190,322 190,321 190,321 190,321 190,321 190,321 190,321 190,321 190,321 190,321 190,321 191,321 191,321 191,321 191,321 191,320 191,320 191,320 191,320 191,320 191,321 191,320 191,320 191,320 192,320 192,319 192,319 192,319 192,319 192,319 192,318 192,318 192,318 192,318 192,318 192,318 192,318 193,318 193,318 193,318 193,317 193,317 193,317 193,317 193,317 193,317 193,317 193,316 193,316 193,316 194,315 194,315 194,315 194,315 194,315 194,315 194,315 194,315 194,315 194,315 194,315 194,315 194,315 195,314 195,314 195,314 195,314 195,314 195,314 195,313 195,313 195,313 195,313 195,312 195,312 195,312 196,312 196,312 196,312 196,312 196,312 196,312 196,312 196,311 196,311 196,311 196,311 196,311 196,311 197,311 197,311 197,311 197,312 197,312 197,312 197,311 197,310 197,310 197,310 197,310 197,310 197,310 198,310 198,310 198,310 198,309 198,309 198,309 198,309 198,309 198,309 198,309 198,308 198,308 198,308 199,308 199,308 199,308 199,308 199,308 199,308 199,308 199,308 199,308 199,308 199,308 199,308 199,308 200,308 200,308 200,308 200,308 200,308 200,307 200,307 200,307 200,307 200,307 200,307 200,307 200,307 201,307 201,307 201,307 201,307 201,307 201,307 201,307 201,307 201,307 201,307 201,307 201,307 201,307 202,307 202,307 202,308 202,308 202,308 202,308 202,308 202,308 202,308 202,308 202,309 202,309 202,309 203,309 203,309 203,309 203,309 203,309 203,309 203,309 203,309 203,309 203,309 203,309 203,309 203,308 204,308 204,308 204,308 204,307 204,307 204,307 204,306 204,306 204,306 204,306 204,305 204,305 204,305 205,305 205,305 205,304 205,304 205,304 205,304 205,304 205,304 205,303 205,303 205,303 205,302 205,302 206,302 206,302 206,302 206,302 206,302 206,302 206,302 206,302 206,302 206,302 206,302 206,302 206,301 207,301 207,301 207,301 207,301 207,301 207,301 207,301 207,302 207,302 207,302 207,302 207,302 207,302 208,302 208,302 208,302 208,303 208,303 208,303 208,303 208,303 208,303 208,303 208,303 208,303 208,303 209,303 209,304 209,304 209,304 209,304 209,304 209,304 209,304 209,304 209,304 209,305 209,305 209,305 210,305 210,305 210,305 210,305 210,305 210,305 210,306 210,306 210,306 210,306 210,307 210,307 210,306 211,306 211,306 211,305 211,305 211,305 211,305 211,305 211,305 211,305 211,305 211,305 211,305 211,304 212,304 212,304 212,304 212,304 212,303 212,303 212,303 212,303 212,303 212,303 212,303 212,303 212,303 213,303 213,303 213,303 213,303 213,303 213,303 213,303 213,303 213,302 213,302 213,302 213,302 213,302 214,302 214,302 214,301 214,301 214,301 214,301 214,301 214,301 214,301 214,301 214,301 214,301 214,301 215,301 215,301 215,301 215,301 215,301 215,301 215,301 215,301 215,301 215,301 215,301 215,301 215,301 216,301 216,301 216,301 216,300 216,300 216,300 216,300 216,300 216,300 216,300 216,300 216,300 216,300 217,300 217,300 217,299 217,299 217,298 217,298 217,298 217,298 217,298 217,297 217,297 217,297 217,297 218,297 218,297 218,297 218,296 218,296 218,296 218,296 218,296 218,296 218,296 218,295 218,295 218,295 219,295 219,295 219,295 219,295 219,295 219,295 219,296 219,296 219,296 219,296 219,296 219,296 219,296 220,296 220,296 220,296 220,296 220,296 220,295 220,295 220,295 220,295 220,295 220,295 220,296 220,296 221,296 221,295 221,295 221,295 221,295 221,295 221,294 221,294 221,294 221,294 221,294 221,293 221,293 222,293 222,293 222,292 222,292 222,292 222,292 222,292 222,292 222,292 222,292 222,292 222,292 222,292 223,292 223,291 223,291 223,291 223,291 223,290 223,290 223,290 223,291 223,291 223,291 223,291 223,292 224,292 224,292 224,293 224,293 224,294 224,294 224,295 224,295 224,295 224,295 224,296 224,296 224,296 225,296 225,297 225,297 225,297 225,297 225,297 225,297 225,297 225,298 225,298 225,298 225,298 225,299 226,299 226,299 226,299 226,300 226,300 226,300 226,300 226,300 226,300 226,300 226,300 226,300 226,300 227,300 227,300 227,301 227,301 227,301 227,301 227,301 227,301 227,301 227,301 227,301 227,301 227,300 228,300 228,300 228,300 228,300 228,300 228,300 228,300 228,300 228,300 228,301 228,301 228,301 228,301 229,302 229,303 229,303 229,304 229,304 229,304 229,304 229,304 229,304 229,304 229,304 229,304 229,304 230,304 230,303 230,303 230,302 230,302 230,301 230,301 230,300 230,300 230,300 230,299 230,299 230,299 231,299 231,299 231,299 231,299 231,300 231,300 231,300 231,300 231,300 231,300 231,300 231,301 231,302 232,302 232,303 232,303 232,303 232,303 232,303 232,303 232,303 232,303 232,303 232,303 232,303 232,303 233,303 233,303 233,302 233,302 233,302 233,302 233,302 233,302 233,302 233,301 233,301 233,301 233,301 234,300 234,300 234,300 234,300 234,299 234,299 234,299 234,298 234,298 234,297 234,297 234,296 234,295 235,295 235,294 235,293 235,293 235,293 235,293 235,292 235,292 235,292 235,292 235,292 235,292 235,291 236,291 236,290 236,289 236,289 236,288 236,287 236,287 236,286 236,285 236,285 236,285 236,284 236,284 237,284 237,284 237,284 237,284 237,284 237,284 237,284 237,284 237,285 237,285 237,285 237,284 237,284 238,283 238,283 238,283 238,283 238,283 238,283 238,283 238,282 238,282 238,282 238,281 238,282 238,282 239,283 239,283 239,283 239,284 239,284 239,284 239,283 239,283 239,283 239,284 239,284 239,283 239,283 240,282 240,282 240,281 240,280 240,279 240,279 240,278 240,277 240,276 240,275 240,275 240,274 240,274 241,274 241,273 241,273 241,273 241,273 241,272 241,272 241,271 241,271 241,270 241,270 241,269 241,268 242,266 242,265 242,264 242,263 242,262 242,261 242,260 242,259 242,259 242,259 242,259 242,259 242,257 243,255 243,254 243,254 243,254 243,254 243,254 243,255 243,254 243,254 243,254 243,254 243,253 243,253 244,253 244,253 244,252 244,251 244,250 244,249 244,249 244,248 244,248 244,247 244,246 244,245 244,244 245,244 245,243 245,243 245,242 245,242 245,242 245,241 245,241 245,240 245,240 245,239 245,238 245,237 246,237 246,236 246,235 246,234 246,233 246,232 246,231 246,229 246,228 246,227 246,226 246,225 246,225 247,224 247,223 247,223 247,222 247,221 247,220 247,220 247,219 247,218 247,217 247,216 247,216 247,215 248,214 248,213 248,212 248,211 248,210 248,209 248,208 248,207 248,206 248,205 248,204 248,203 248,202 249,201 249,200 249,199 249,198 249,198 249,198 249,198 249,198 249,198 249,197 249,197 249,197 249,197 250,197 250,197 250,197 250,197 250,197 250,197 250,196 250,196 250,196 250,196 250,196 250,196 250,196 251,196 251,196 251,196 251,196 251,196 251,196 251,197 251,199 251,201 251,203 251,204 251,206 251,207 252,208 252,209 252,209 252,210 252,210 252,211 252,211 252,211 252,211 252,212 252,212 252,213 252,214 253,214 253,214 253,215 253,215 253,216 253,216 253,217 253,217 253,219 253,220 253,220 253,220 253,221 254,221 254,221 254,222 254,222 254,223 254,224 254,225 254,226 254,226 254,228 254,229 254,230 254,231 255,233 255,234 255,237 255,239 255,240 255,240 255,240 255,240 255,240 255,240 255,240 255,240 255,240 256,240 256,241 256,241 256,241 256,241 256,241 256,240 256,240 256,240 256,240 256,239 256,238 256,238 257,236 257,234 257,230 257,227 257,223 257,222 257,221 257,219 257,217 257,214 257,210 257,207 257,204 258,202 258,200 258,198 258,197 258,196 258,195 258,194 258,192 258,192 258,191 258,190 258,189 258,188 259,187 259,186 259,185 259,184 259,183 259,182 259,180 259,179 259,178 259,176 259,175 259,174 259,173 260,172 260,171 260,170 260,170 260,169 260,168 260,167 260,167 260,166 260,165 260,165 260,164 260,163 261,163 261,163 261,162 261,162 261,162 261,162 261,162 261,162 261,162 261,161 261,161 261,160 261,160 262,159 262,158 262,158 262,157 262,157 262,157 262,156 262,156 262,156 262,156 262,156 262,156 262,156 263,156 263,156 263,156 263,157 263,157 263,157 263,158 263,158 263,158 263,159 263,159 263,159 263,160 264,160 264,160 264,161 264,161 264,161 264,162 264,162 264,162 264,163 264,163 264,164 264,164 264,165 265,166 265,166 265,167 265,168 265,169 265,170 265,171 265,173 265,174 265,174 265,175 265,175 265,176 266,177 266,178 266,178 266,179 266,180 266,180 266,181 266,182 266,183 266,183 266,184 266,185 266,186 267,186 267,187 267,188 267,188 267,188 267,189 267,189 267,189 267,190 267,190 267,190 267,190 267,190 268,191 268,191 268,192 268,192 268,193 268,193 268,193 268,193 268,192 268,192 268,192 268,192 268,192 269,192 269,191 269,191 269,191 269,191 269,191 269,191 269,190 269,190 269,190 269,190 269,190 269,189 270,189 270,189 270,189 270,189 270,189 270,190 270,190 270,190 270,190 270,191 270,191 270,192 270,192 271,193 271,193 271,194 271,195 271,196 271,197 271,198 271,198 271,199 271,199 271,200 271,201 271,201 272,202 272,202 272,203 272,203 272,203 272,204 272,204 272,204 272,204 272,204 272,204 272,205 272,205 273,205 273,206 273,206 273,206 273,206 273,206 273,207 273,207 273,207 273,208 273,208 273,208 273,209 274,209 274,209 274,210 274,210 274,210 274,211 274,211 274,211 274,212 274,212 274,212 274,212 274,212 275,212 275,212 275,212 275,211 275,211 275,210 275,209 275,209 275,208 275,207 275,206 275,206 275,205 276,204 276,204 276,203 276,202 276,202 276,201 276,201 276,200 276,199 276,199 276,199 276,199 276,199 277,198 277,198 277,198 277,198 277,198 277,199 277,199 277,199 277,199 277,199 277,199 277,200 277,200 278,200 278,201 278,201 278,201 278,200 278,199 278,199 278,197 278,196 278,195 278,194 278,193 278,192 279,190 279,189 279,187 279,187 279,186 279,184 279,183 279,182 279,180 279,179 279,178 279,176 279,174 280,173 280,171 280,170 280,169 280,168 280,166 280,165 280,164 280,164 280,163 280,162 280,162 280,161 281,161 281,161 281,161 281,160 281,160 281,160 281,160 281,160 281,159 281,159 281,159 281,159 281,159 282,158 282,157 282,157 282,156 282,156 282,155 282,154 282,153 282,153 282,152 282,151 282,151 282,151 283,150 283,150 283,150 283,150 283,150 283,150 283,149 283,150 283,150 283,150 283,150 283,150 283,150 284,149 284,149 284,149 284,149 284,149 284,149 284,149 284,149 284,150 284,150 284,150 284,150 284,151 285,151 285,152 285,152 285,152 285,153 285,153 285,154 285,155 285,155 285,155 285,156 285,157 285,157 286,157 286,158 286,158 286,158 286,157 286,157 286,156 286,156 286,155 286,155 286,154 286,154 286,154 287,153 287,153 287,153 287,153 287,152 287,152 287,152 287,151 287,151 287,150 287,150 287,149 287,149 288,148 288,148 288,148 288,148 288,148 288,148 288,148 288,148 288,149 288,149 288,149 288,149 288,149 289,149 289,149 289,149 289,149 289,149 289,148 289,148 289,148 289,148 289,148 289,147 289,147 289,147 290,147 290,147 290,147 290,147 290,147 290,147 290,147 290,147 290,147 290,147 290,147 290,147 290,147 291,147 291,147 291,147 291,147 291,147 291,147 291,147 291,147 291,147 291,148 291,148 291,148 291,148 292,148 292,148 292,148 292,148 292,148 292,148 292,148 292,148 292,149 292,149 292,149 292,149 292,149 293,149 293,149 293,149 293,149 293,149 293,149 293,149 293,149 293,149 293,149 293,149 293,149 293,149 294,149 294,149 294,149 294,149 294,149 294,149 294,149 294,150 294,150 294,150 294,150 294,150 294,150 295,150 295,150 295,149 295,149 295,149 295,149 295,149 295,150 295,150 295,150 295,150 295,150 295,150 296,150 296,150 296,150 296,150 296,151 296,151 296,151 296,151 296,152 296,152 296,152 296,153 296,153 297,153 297,153 297,153 297,153 297,153 297,153 297,154 297,154 297,154 297,154 297,154 297,154 297,154 298,154 298,154 298,154 298,154 298,154 298,154 298,154 298,154 298,153 298,153 298,153 298,153 298,154 299,154 299,154 299,154 299,154 299,154 299,154 299,154 299,155 299,155 299,155 299,155 299,155 299,156 300,156 300,156 300,156 300,156 300,157 300,157 300,157 300,157 300,157 300,157 300,156 300,156 300,156 301,156 301,156 301,155 301,155 301,155 301,155 301,154 301,154 301,154 301,153 301,153 301,153 301,153 302,153 302,152 302,152 302,152 302,151 302,151 302,151 302,151 302,151 302,151 302,150 302,150 302,150 303,150 303,150 303,150 303,150 303,151 303,151 303,151 303,151 303,151 303,151 303,151 303,151 303,151 304,151 304,151 304,151 304,151 304,151 304,152 304,152 304,152 304,152 304,152 304,152 304,152 304,152 305,152 305,152 305,152 305,152 305,152 305,152 305,152 305,152 305,152 305,152 305,152 305,152 305,152 306,151 306,151 306,151 306,151 306,151 306,151 306,151 306,151 306,151 306,152 306,152 306,152 306,152 307,152 307,152 307,153 307,153 307,153 307,154 307,154 307,155 307,155 307,155 307,156 307,156 307,156 308,157 308,157 308,158 308,158 308,159 308,159 308,159 308,159 308,159 308,160 308,160 308,160 308,160 309,160 309,160 309,161 309,161 309,161 309,161 309,161 309,161 309,161 309,161 309,160 309,160 309,160 310,160 310,160 310,160 310,160 310,160 310,160 310,160 310,160 310,160 310,160 310,160 310,160 310,160 311,160 311,160 311,160 311,160 311,160 311,159 311,159 311,159 311,159 311,159 311,160 311,160 311,160 312,159 312,159 312,159 312,159 312,160 312,160 312,160 312,160 312,160 312,160 312,161 312,160 312,160 313,161 313,161 313,161 313,161 313,161 313,162 313,162 313,162 313,162 313,162 313,162 313,162 313,163 314,163 314,163 314,163 314,164 314,164 314,164 314,164 314,164 314,164 314,164 314,164 314,164 314,164 315,164 315,164 315,164 315,164 315,163 315,163 315,163 315,163 315,162 315,162 315,162 315,162 315,161 316,161 316,161 316,161 316,161 316,160 316,160 316,160 316,159 316,159 316,158 316,158 316,158 316,158 317,158 317,158 317,158 317,158 317,158 317,158 317,158 317,158 317,158 317,158 317,158 317,158 317,158 318,158 318,158 318,158 318,158 318,159 318,159 318,159 318,159 318,160 318,160 318,160 318,160 318,160 319,160 319,160 319,161 319,161 319,161 319,161 319,161 319,161 319,161 319,161 319,161 319,162 319,162 320,162 320,162 320,161 320,161 320,161 320,161 320,161 320,161 320,161 320,162 320,162 320,162 320,163 321,163 321,163 321,164 321,164 321,164 321,165 321,165 321,165 321,166 321,166 321,167 321,167 321,167 322,168 322,168 322,169 322,169 322,170 322,170 322,171 322,171 322,172 322,172 322,173 322,173 322,174 323,175 323,176 323,177 323,178 323,179 323,180 323,181 323,182 323,183 323,183 323,184 323,185 323,186 324,186 324,187 324,187 324,187 324,187 324,187 324,187 324,187 324,187 324,186 324,186 324,186 324,186 325,186 325,187 325,188 325,189 325,190 325,190 325,191 325,191 325,192 325,192 325,192 325,193 325,193 326,194 326,194 326,194 326,195 326,195 326,195 326,196 326,196 326,196 326,197 326,197 326,197 326,197 327,198 327,198 327,198 327,199 327,199 327,199 327,200 327,200 327,201 327,201 327,202 327,202 327,203 328,204 328,204 328,205 328,206 328,207 328,207 328,208 328,209 328,210 328,211 328,212 328,213 328,214 329,215 329,216 329,216 329,217 329,218 329,217 329,217 329,217 329,217 329,218 329,218 329,218 329,219 330,219 330,220 330,221 330,221 330,220 330,219 330,218 330,218 330,217 330,217 330,216 330,216 330,216 331,216 331,216 331,216 331,215 331,215 331,215 331,214 331,214 331,213 331,212 331,211 331,212 331,213 332,213 332,214 332,215 332,215 332,216 332,216 332,216 332,216 332,217 332,217 332,216 332,216 332,216 333,216 333,217 333,217 333,218 333,218 333,219 333,219 333,219 333,219 333,220 333,220 333,220 333,220 334,220 334,220 334,220 334,220 334,220 334,220 334,220 334,220 334,220 334,220 334,220 334,220 334,221 335,221 335,221 335,221 335,221 335,221 335,221 335,222 335,222 335,222 335,222 335,222 335,222 335,222 336,222 336,222 336,222 336,223 336,223 336,223 336,223 336,223 336,223 336,223 336,223 336,223 336,223 337,223 337,223 337,223 337,223 337,223 337,223 337,223 337,223 337,223 337,224 337,224 337,224 337,224 338,224 338,225 338,225 338,225 338,226 338,226 338,227 338,227 338,228 338,228 338,229 338,230 338,230 339,231 339,231 339,232 339,233 339,233 339,233 339,234 339,234 339,234 339,235 339,235 339,237 339,238 340,239 340,240 340,241 340,242 340,243 340,244 340,245 340,246 340,247 340,247 340,248 340,249 340,250 341,250 341,250 341,250 341,250 341,250 341,250 341,249 341,249 341,249 341,248 341,248 341,248 341,248 342,247 342,247 342,247 342,247 342,246 342,246 342,247 342,247 342,246 342,246 342,245 342,245 342,245 343,245 343,245 343,245 343,244 343,244 343,244 343,244 343,243 343,242 343,241 343,240 343,239 343,237 344,236 344,235 344,235 344,234 344,234 344,234 344,233 344,233 344,232 344,231 344,231 344,230 344,230 345,229 345,229 345,228 345,228 345,227 345,227 345,227 345,227 345,227 345,227 345,228 345,228 345,228 346,229 346,230 346,230 346,230 346,230 346,230 346,230 346,230 346,230 346,230 346,230 346,230 346,230 347,230 347,230 347,230 347,230 347,230 347,230 347,230 347,230 347,230 347,230 347,230 347,230 347,229 348,229 348,229 348,229 348,229 348,229 348,229 348,229 348,229 348,229 348,229 348,229 348,229 348,229 349,229 349,229 349,229 349,229 349,229 349,229 349,229 349,230 349,230 349,230 349,230 349,230 349,230 350,230 350,229 350,229 350,229 350,229 350,229 350,229 350,229 350,229 350,229 350,229 350,229 350,229 351,228 351,228 351,228 351,228 351,228 351,228 351,228 351,228 351,227 351,227 351,227 351,227 351,227 352,227 352,227 352,227 352,226 352,226 352,226 352,225 352,225 352,225 352,225 352,225 352,224 352,224 353,224 353,224 353,224 353,224 353,224 353,223 353,223 353,223 353,223 353,223 353,223 353,224 353,224 354,224 354,223 354,223 354,223 354,223 354,223 354,222 354,222 354,222 354,221 354,221 354,221 354,220 355,220 355,219 355,219 355,218 355,217 355,217 355,216 355,216 355,215 355,215 355,215 355,214 355,214 356,213 356,213 356,212 356,212 356,211 356,210 356,210 356,209 356,209 356,209 356,209 356,209 356,208 357,208 357,208 357,208 357,208 357,208 357,208 357,208 357,208 357,207 357,207 357,207 357,207 357,207 358,207 358,207 358,207 358,207 358,207 358,207 358,207 358,207 358,207 358,207 358,207 358,207 358,207 359,207 359,207 359,206 359,206 359,206 359,206 359,206 359,206 359,206 359,206 359,206 359,206 359,206 360,206 360,206 360,207 360,207 360,207 360,207 360,207 360,207 360,207 360,207 360,207 360,208 360,208 361,208 361,208 361,208 361,208 361,208 361,208 361,208 361,207 361,207 361,207 361,207 361,206 361,206 362,206 362,205 362,205 362,205 362,205 362,204 362,204 362,204 362,203 362,203 362,202 362,202 362,202 363,201 363,201 363,201 363,200 363,200 363,200 363,199 363,199 363,199 363,198 363,198 363,198 363,198 364,197 364,197 364,197 364,197 364,196 364,196 364,195 364,195 364,194 364,194 364,193 364,193 364,192 365,192 365,191 365,190 365,190 365,189 365,188 365,188 365,187 365,186 365,185 365,184 365,184 365,183 366,182 366,181 366,180 366,180 366,179 366,179 366,178 366,178 366,177 366,177 366,177 366,176 366,176 367,176 367,177 367,177 367,177 367,178 367,178 367,178 367,178 367,178 367,178 367,178 367,178 367,178 368,178 368,178 368,178 368,178 368,178 368,178 368,178 368,178 368,177 368,177 368,177 368,178 368,178 369,179 369,180 369,181 369,182 369,183 369,184 369,185 369,187 369,188 369,189 369,190 369,191 369,193 370,194 370,196 370,197 370,198 370,200 370,202 370,204 370,205 370,207 370,209 370,210 370,212 370,213 371,215 371,216 371,217 371,218 371,219 371,220 371,220 371,220 371,220 371,221 371,221 371,220 371,220 372,220 372,220 372,219 372,219 372,218 372,217 372,217 372,216 372,215 372,214 372,213 372,212 372,211 373,211 373,210 373,209 373,208 373,207 373,207 373,206 373,205 373,204 373,204 373,203 373,203 373,202 374,202 374,201 374,201 374,200 374,200 374,200 374,199 374,199 374,199 374,199 374,199 374,198 374,198 375,198 375,198 375,197 375,197 375,197 375,197 375,197 375,196 375,196 375,196 375,196 375,196 375,196 376,196 376,196 376,196 376,196 376,196 376,196 376,196 376,196 376,196 376,196 376,196 376,196 376,196 377,196 377,196 377,196 377,197 377,197 377,197 377,197 377,197 377,197 377,197 377,196 377,196 377,196 378,195 378,195 378,194 378,194 378,194 378,193 378,192 378,192 378,191 378,190 378,190 378,189 378,188 379,188 379,187 379,186 379,185 379,185 379,184 379,183 379,183 379,182 379,181 379,180 379,179 379,179 380,178 380,177 380,177 380,176 380,175 380,174 380,174 380,173 380,173 380,173 380,173 380,173 380,172 381,172 381,172 381,172 381,172 381,172 381,172 381,172 381,172 381,172 381,172 381,171 381,171 381,171 382,171 382,171 382,171 382,171 382,171 382,171 382,171 382,171 382,172 382,172 382,173 382,174 382,174 383,175 383,176 383,176 383,177 383,178 383,179 383,179 383,180 383,181 383,181 383,182 383,182 383,183 384,183 384,184 384,184 384,185 384,185 384,185 384,185 384,186 384,186 384,186 384,187 384,187 384,187 385,187 385,188 385,188 385,188 385,188 385,188 385,188 385,188 385,187 385,187 385,187 385,186 385,186 386,186 386,185 386,185 386,185 386,185 386,185 386,185 386,185 386,185 386,185 386,185 386,185 386,185 387,185 387,186 387,186 387,186 387,186 387,186 387,186 387,186 387,186 387,186 387,186 387,186 387,186 388,186 388,187 388,188 388,188 388,189 388,190 388,191 388,192 388,193 388,194 388,195 388,196 388,197 389,198 389,198 389,199 389,200 389,201 389,202 389,202 389,203 389,204 389,204 389,205 389,205 389,206 390,206 390,206 390,206 390,206 390,206 390,205 390,205 390,205 390,204 390,204 390,203 390,203 390,202 391,202 391,202 391,202 391,201 391,201 391,201 391,201 391,201 391,200 391,200 391,200 391,200 391,200 392,200 392,200 392,201 392,201 392,201 392,202 392,202 392,202 392,202 392,203 392,203 392,204 392,204 393,204 393,205 393,205 393,206 393,206 393,206 393,207 393,207 393,208 393,208 393,209 393,209 393,210 394,210 394,211 394,211 394,212 394,213 394,214 394,214 394,213 394,213 394,213 394,212 394,212 394,211 395,211 395,211 395,211 395,210 395,210 395,210 395,210 395,210 395,210 395,210 395,210 395,209 395,209 396,209 396,209 396,209 396,209 396,208 396,208 396,208 396,207 396,207 396,207 396,206 396,206 396,205 397,205 397,204 397,203 397,203 397,203 397,202 397,202 397,201 397,201 397,200 397,200 397,200 397,199 398,199 398,198 398,197 398,196 398,195 398,194 398,194 398,193 398,193 398,192 398,191 398,191 398,191 399,191 399,191 399,191 399,191 399,191 399,191 399,191 399,191 399,190 399,190 399,190 399,190 399,190 400,190 400,190 400,189 400,189 400,189 400,189 400,189 400,190 400,190 400,191 400,190 400,190 400,190 401,190 401,189 401,189 401,188 401,188 401,187 401,187 401,186 401,185 401,185 401,184 401,184 401,183 402,182 402,181 402,180 402,180 402,179 402,178 402,177 402,176 402,175 402,174 402,173 402,172 402,171 403,170 403,169 403,168 403,167 403,166 403,165 403,165 403,164 403,164 403,163 403,163 403,161 403,160 404,159 404,158 404,158 404,158 404,158 404,157 404,157 404,157 404,157 404,157 404,157 404,157 404,156 405,156 405,156 405,156 405,156 405,156 405,156 405,156 405,156 405,156 405,156 405,155 405,155 405,156 406,157 406,159 406,161 406,162 406,162 406,160 406,160 406,160 406,160 406,160 406,160 406,160 406,160 407,160 407,159 407,159 407,159 407,159 407,159 407,160 407,160 407,160 407,160 407,160 407,160 407,160 408,160 408,160 408,160 408,161 408,161 408,161 408,162 408,163 408,165 408,166 408,167 408,169 408,170 409,171 409,171 409,171 409,171 409,171 409,171 409,171 409,170 409,170 409,170 409,170 409,170 409,169 410,169 410,169 410,169 410,169 410,169 410,169 410,169 410,169 410,169 410,169 410,169 410,168 410,167 411,165 411,164 411,163 411,162 411,161 411,160 411,159 411,158 411,157 411,157 411,157 411,157 411,156 412,156 412,155 412,153 412,153 412,152 412,152 412,151 412,151 412,151 412,150 412,150 412,150 412,149 413,149 413,149 413,148 413,148 413,148 413,148 413,147 413,147 413,146 413,145 413,145 413,144 413,143 414,142 414,141 414,140 414,139 414,137 414,135 414,133 414,132 414,132 414,131 414,131 414,130 414,130 415,130 415,131 415,131 415,130 415,130 415,130 415,129 415,129 415,129 415,128 415,128 415,128 415,128 416,128 416,128 416,128 416,128 416,127 416,127 416,127 416,127 416,127 416,127 416,126 416,126 416,126 417,126 417,125 417,125 417,125 417,125 417,125 417,125 417,125 417,125 417,125 417,125 417,126 417,126 418,126 418,127 418,127 418,127 418,128 418,128 418,128 418,129 418,129 418,130 418,130 418,131 418,131 419,132 419,132 419,133 419,133 419,134 419,135 419,135 419,136 419,137 419,138 419,139 419,140 419,140 420,141 420,142 420,143 420,144 420,145 420,145 420,146 420,147 420,148 420,149 420,150 420,150 420,151 421,152 421,152 421,153 421,154 421,155 421,157 421,158 421,159 421,160 421,161 421,161 421,162 421,162 422,161 422,160 422,159 422,158 422,157 422,156 422,155 422,154 422,153 422,152 422,151 422,149 422,148 423,147 423,146 423,145 423,143 423,141 423,140 423,139 423,139 423,140 423,140 423,140 423,140 423,140 424,140 424,140 424,140 424,140 424,140 424,140 424,139 424,139 424,138 424,138 424,137 424,136 424,134 425,134 425,135 425,136 425,137 425,137 425,137 425,137 425,136 425,136 425,135 425,135 425,135 425,135 426,135 426,134 426,133 426,132 426,131 426,129 426,128 426,127 426,127 426,128 426,129 426,129 426,129 427,129 427,129 427,128 427,128 427,128 427,127 427,126 427,125 427,125 427,126 427,126 427,126 427,125 428,125 428,125 428,125 428,125 428,125 428,125 428,125 428,125 428,125 428,124 428,124 428,124 428,123 429,123 429,123 429,122 429,122 429,121 429,121 429,120 429,120 429,119 429,119 429,119 429,118 429,118 430,118 430,117 430,117 430,117 430,117 430,116 430,116 430,116 430,115 430,115 430,114 430,114 430,113 431,111 431,110 431,110 431,110 431,110 431,110 431,109 431,108 431,108 431,107 431,107 431,107 431,107 432,107 432,107 432,107 432,107 432,107 432,108 432,108 432,108 432,108 432,108 432,108 432,108 432,109 433,109 433,109 433,109 433,109 433,109 433,109 433,109 433,109 433,109 433,109 433,109 433,109 433,109 434,109 434,109 434,110 434,110 434,110 434,110 434,111 434,111 434,111 434,112 434,112 434,112 434,113 435,113 435,113 435,114 435,114 435,114 435,114 435,114 435,114 435,114 435,115 435,115 435,115 435,115 435,115 436,115 436,115 436,115 436,115 436,115 436,115 436,115 436,115 436,115 436,115 436,115 436,115 436,115 437,115 437,115 437,115 437,115 437,115 437,115 437,114 437,114 437,114 437,114 437,114 437,114 437,114 438,114 438,114 438,115 438,115 438,115 438,115 438,115 438,115 438,115 438,115 438,115 438,115 438,115 439,115 439,115 439,115 439,114 439,114 439,114 439,113 439,114 439,114 439,114 439,114 439,115 439,115 440,115 440,115 440,115 440,115 440,115 440,115 440,115 440,115 440,115 440,115 440,115 440,114 440,114 441,114 441,114 441,114 441,114 441,114 441,114 441,115 441,115 441,115 441,115 441,116 441,117 441,117 442,117 442,118 442,119 442,119 442,120 442,120 442,121 442,122 442,122 442,122 442,123 442,123 442,124 443,124 443,124 443,125 443,125 443,125 443,125 443,126 443,126 443,126 443,126 443,126 443,126 443,126 444,126 444,126 444,126 444,126 444,125 444,125 444,125 444,125 444,124 444,124 444,124 444,123 444,123 445,124 445,124 445,124 445,124 445,124 445,124 445,124 445,124 445,124 445,124 445,124 445,124 445,124 446,124 446,124 446,124 446,124 446,124 446,124 446,124 446,124 446,124 446,124 446,124 446,124 446,124 447,124 447,123 447,123 447,123 447,123 447,122 447,122 447,122 447,121 447,120 447,120 447,120 447,119 448,119 448,118 448,117 448,116 448,116 448,115 448,115 448,114 448,114 448,114 448,113 448,113 448,113 449,113 449,113 449,113 449,113 449,113 449,113 449,113 449,113 449,112 449,112 449,112 449,113 449,113 450,113 450,113 450,113 450,114 450,114 450,114 450,115 450,115 450,116 450,116 450,117 450,117 450,118 451,118 451,118 451,119 451,119 451,120 451,120 451,121 451,121 451,122 451,122 451,123 451,123 451,123 452,124 452,124 452,124 452,125 452,125 452,125 452,126 452,126 452,126 452,126 452,127 452,128 452,128 453,129 453,129 453,129 453,129 453,129 453,129 453,130 453,130 453,130 453,130 453,130 453,130 453,130 454,131 454,131 454,131 454,131 454,131 454,131 454,132 454,132 454,132 454,133 454,133 454,133 454,134 455,134 455,134 455,134 455,135 455,135 455,135 455,135 455,136 455,136 455,136 455,137 455,137 455,137 456,137 456,138 456,138 456,138 456,138 456,139 456,139 456,140 456,140 456,140 456,140 456,140 456,140 457,141 457,141 457,141 457,141 457,142 457,142 457,142 457,142 457,142 457,143 457,143 457,143 457,143 458,144 458,144 458,144 458,145 458,145 458,145 458,146 458,146 458,146 458,147 458,147 458,147 458,147 459,148 459,148 459,148 459,149 459,149 459,149 459,149 459,149 459,149 459,149 459,149 459,149 459,149 460,149 460,149 460,149 460,149 460,149 460,149 460,149 460,149 460,149 460,150 460,150 460,150 460,150 461,150 461,150 461,150 461,150 461,150 461,150 461,151 461,151 461,151 461,151 461,151 461,151 461,151 462,152 462,152 462,152 462,152 462,152 462,152 462,152 462,152 462,152 462,152 462,152 462,151 462,151 463,151 463,151 463,151 463,151 463,151 463,152 463,152 463,152 463,152 463,152 463,152 463,152 463,152 464,152 464,152 464,152 464,152 464,152 464,152 464,152 464,152 464,152 464,152 464,152 464,152 464,152 465,152 465,152 465,152 465,152 465,152 465,152 465,152 465,152 465,152 465,152 465,152 465,152 465,153 466,153 466,153 466,153 466,153 466,153 466,153 466,154 466,154 466,154 466,154 466,155 466,155 466,155 467,155 467,155 467,155 467,155 467,156 467,156 467,156 467,156 467,156 467,156 467,157 467,157 467,157 468,157 468,158 468,158 468,159 468,159 468,159 468,159 468,160 468,160 468,160 468,161 468,161 468,161 469,162 469,162 469,162 469,163 469,163 469,163 469,163 469,164 469,164 469,164 469,164 469,164 469,164 470,164 470,164 470,164 470,164 470,164 470,164 470,164 470,164 470,164 470,164 470,164 470,163 470,163 471,162 471,162 471,161 471,161 471,160 471,160 471,159 471,159 471,158 471,157 471,157 471,156 471,155 472,155 472,154 472,153 472,152 472,152 472,151 472,151 472,150 472,150 472,149 472,149 472,148 472,148 473,147 473,147 473,146 473,146 473,146 473,145 473,145 473,145 473,145 473,144 473,144 473,144 473,143 474,143 474,143 474,143 474,143 474,143 474,143 474,142 474,142 474,142 474,143 474,142 474,142 474,142 475,142 475,142 475,142 475,142 475,142 475,142 475,142 475,141 475,141 475,141 475,141 475,141 475,141 476,141 476,140 476,140 476,140 476,140 476,140 476,141 476,141 476,141 476,140 476,140 476,140 476,140 477,140 477,140 477,140 477,140 477,139 477,139 477,139 477,139 477,138 477,138 477,138 477,137 477,137 478,136 478,136 478,137 478,137 478,137 478,137 478,137 478,137 478,137 478,137 478,137 478,138 478,138 479,138 479,138 479,139 479,139 479,140 479,140 479,140 479,141 479,141 479,142 479,141 479,141 479,142 480,142 480,141 480,141 480,141 480,140 480,140 480,140 480,140 480,140 480,139 480,139 480,139 480,139 481,139 481,138 481,138 481,138 481,138 481,138 481,138 481,137 481,137 481,137 481,137 481,137 481,137 482,136 482,136 482,136 482,136 482,136 482,136 482,135 482,135 482,135 482,134 482,134 482,134 482,133 483,133 483,132 483,132 483,132 483,131 483,131 483,130 483,129 483,129 483,128 483,128 483,127 483,126 484,126 484,125 484,124 484,124 484,123 484,123 484,123 484,122 484,122 484,122 484,122 484,122 484,122 485,123 485,123 485,124 485,124 485,124 485,125 485,125 485,125 485,126 485,126 485,126 485,127 485,127 486,127 486,128 486,128 486,129 486,129 486,129 486,130 486,130 486,130 486,131 486,131 486,131 486,131 487,132 487,132 487,132 487,132 487,132 487,132 487,132 487,132 487,133 487,133 487,133 487,134 487,134 488,134 488,134 488,134 488,134 488,134 488,134 488,134 488,133 488,133 488,133 488,132 488,132 488,132 489,132 489,132 489,132 489,131 489,131 489,131 489,131 489,131 489,131 489,130 489,130 489,130 489,130 490,130 490,129 490,129 490,129 490,129 490,128 490,128 490,128 490,128 490,127 490,127 490,127 490,126 491,126 491,126 491,125 491,125 491,125 491,125 491,124 491,124 491,124 491,124 491,124 491,124 491,123 492,123 492,123 492,123 492,124 492,124 492,123 492,122 492,120 492,119 492,119 492,119 492,118 492,118 493,118 493,117 493,117 493,117 493,116 493,116 493,116 493,116 493,117 493,117 493,117 493,117 493,117 494,117 494,118 494,118 494,118 494,118 494,118 494,119 494,119 494,119 494,119 494,119 494,120 494,120 495,120 495,120 495,120 495,121 495,121 495,121 495,121 495,121 495,121 495,121 495,122 495,122 495,123 496,124 496,124 496,125 496,126 496,126 496,127 496,127 496,128 496,128 496,129 496,129 496,129 496,129 497,130 497,130 497,130 497,130 497,130 497,130 497,130 497,130 497,130 497,130 497,131 497,130 497,130 498,130 498,130 498,130 498,130 498,130 498,130 498,130 498,130 498,130 498,130 498,130 498,130 498,130 499,130 499,130 499,130 499,130 499,130 499,130 499,130 499,131 499,131 499,131 499,131 499,131 499,131 500,131 500,131 500,131 500,131 500,131 500,131 500,132 500,133 500,133 500,134 500,135 500,135 500,136 501,137 501,137 501,138 501,139 501,139 501,140 501,141 501,141 501,142 501,142 501,143 501,143 501,144 502,144 502,145 502,145 502,146 502,146 502,146 502,147 502,147 502,147 502,147 502,147 502,147 502,148 503,148 503,148 503,148 503,148 503,148 503,148 503,148 503,148 503,148 503,148 503,148 503,148 503,148 504,147 504,147 504,147 504,147 504,146 504,146 504,146 504,146 504,146 504,147 504,147 504,147 504,147 505,148 505,148 505,148 505,149 505,149 505,149 505,149 505,150 505,150 505,151 505,151 505,151 505,152 506,152 506,153 506,153 506,154 506,154 506,154 506,155 506,155 506,155 506,156 506,156 506,156 506,157 507,157 507,157 507,157 507,158 507,158 507,158 507,158 507,158 507,158 507,158 507,158 507,158 507,158 508,158 508,158 508,158 508,158 508,158 508,158 508,158 508,158 508,158 508,157 508,157 508,156 508,156 509,155 509,155 509,154 509,154 509,153 509,152 509,152 509,151 509,151 509,150 509,149 509,149 509,148 510,148 510,147 510,147 510,147 510,147 510,147 510,147 510,147 510,147 510,147 510,147 510,147 510,147 511,147 511,147 511,147 511,148 511,148 511,148 511,148 511,149 511,150 511,150 511,151 511,152 511,152 512,153 512,153 512,154 512,155 512,155 512,156 512,157 512,157 512,158 512,158 512,159 512,159 512,159 513,160 513,160 513,161 513,161 513,161 513,162 513,162 513,162 513,162 513,162 513,162 513,162 513,162 514,162 514,162 514,162 514,162 514,162 514,162 514,162 514,162 514,162 514,162 514,162 514,162 514,162 515,161 515,161 515,161 515,161 515,161 515,161 515,161 515,161 515,161 515,161 515,161 515,161 515,161 516,161 516,160 516,160 516,160 516,160 516,160 516,160 516,160 516,160 516,160 516,160 516,160 516,160 517,161 517,161 517,161 517,161 517,161 517,161 517,161 517,161 517,161 517,161 517,161 517,160 517,160 518,160 518,160 518,160 518,160 518,160 518,160 518,160 518,160 518,160 518,160 518,160 518,160 518,160 519,159 519,159 519,159 519,159 519,159 519,159 519,159 519,159 519,159 519,159 519,159 519,159 519,159 520,160 520,160 520,160 520,160 520,160 520,160 520,160 520,160 520,160 520,160 520,160 520,160 520,160 521,160 521,160 521,160 521,160 521,160 521,160 521,160 521,160 521,160 521,160 521,160 521,160 521,160 522,159 522,159 522,159 522,159 522,159 522,159 522,159 522,158 522,158 522,158 522,158 522,158 522,158 523,157 523,157 523,157 523,157 523,157 523,157 523,156 523,156 523,156 523,156 523,156 523,156 523,156 524,155 524,155 524,155 524,155 524,155 524,154 524,154 524,154 524,154 524,154 524,154 524,154 524,154 525,154 525,154 525,154 525,154 525,154 525,154 525,154 525,154 525,154 525,155 525,155 525,155 525,156 526,156 526,156 526,156 526,157 526,157 526,157 526,157 526,158 526,158 526,158 526,158 526,159 526,159 527,160 527,161 527,161 527,162 527,162 527,163 527,163 527,164 527,165 527,165 527,165 527,165 527,166 528,165 528,164 528,163 528,162 528,162 528,162 528,162 528,161 528,161 528,161 528,161 528,161 528,161 529,162 529,162 529,162 529,162 529,163 529,163 529,164 529,164 529,164 529,163 529,163 529,162 529,162 530,162 530,162 530,162 530,161 530,161 530,161 530,161 530,161 530,161 530,161 530,161 530,160 530,160 531,160 531,160 531,160 531,159 531,159 531,159 531,159 531,159 531,159 531,159 531,159 531,159 531,158 532,158 532,158 532,158 532,158 532,158 532,157 532,157 532,157 532,157 532,157 532,156 532,156 532,156 533,156 533,156 533,156 533,156 533,156 533,157 533,157 533,157 533,158 533,158 533,158 533,159 533,159 534,159 534,160 534,159 534,160 534,160 534,160 534,160 534,160 534,160 534,160 534,160 534,160 534,160 535,160 535,160 535,161 535,161 535,161 535,161 535,161 535,162 535,162 535,162 535,162 535,162 535,162 536,162 536,162 536,162 536,162 536,161 536,161 536,162 536,162 536,162 536,162 536,162 536,163 536,163 537,163 537,163 537,164 537,165 537,166 537,166 537,167 537,167 537,167 537,167 537,168 537,168 537,168 538,168 538,169 538,169 538,169 538,169 538,169 538,169 538,169 538,169 538,169 538,169 538,169 538,169 539,169 539,169 539,169 539,168 539,168 539,168 539,168 539,168 539,168 539,168 539,168 539,168 539,168 540,168 540,168 540,167 540,167 540,167 540,167 540,167 540,167 540,167 540,166 540,166 540,166 540,166 541,166 541,166 541,165 541,165 541,165 541,165 541,165 541,165 541,165 541,164 541,164 541,164 541,165 542,165 542,165 542,165 542,166 542,166 542,166 542,166 542,166 542,167 542,167 542,167 542,167 542,167 543,168 543,168 543,168 543,168 543,168 543,168 543,168 543,168 543,167 543,167 543,167 543,167 543,167 544,167 544,167 544,167 544,167 544,167 544,167 544,166 544,166 544,166 544,166 544,165 544,165 544,165 545,164 545,164 545,164 545,163 545,163 545,162 545,162 545,161 545,160 545,160 545,159 545,159 545,158 546,157 546,156 546,156 546,156 546,155 546,155 546,155 546,155 546,155 546,155 546,155 546,154 546,154 547,154 547,154 547,153 547,153 547,153 547,153 547,153 547,153 547,153 547,153 547,153 547,153 547,153 548,153 548,153 548,153 548,153 548,153 548,153 548,153 548,153 548,153 548,152 548,152 548,152 548,152 549,152 549,152 549,152 549,152 549,152 549,152 549,152 549,152 549,152 549,151 549,151 549,151 549,150 550,150 550,150 550,150 550,150 550,150 550,150 550,150 550,150 550,150 550,150 550,150 550,150 550,150 551,150 551,150 551,150 551,150 551,150 551,150 551,150 551,149 551,149 551,149 551,149 551,148 551,148 552,148 552,148 552,148 552,148 552,148 552,148 552,148 552,147 552,147 552,147 552,147 552,147 552,147 553,147 553,146 553,146 553,146 553,146 553,145 553,145 553,144 553,144 553,144 553,143 553,143 553,143 554,142 554,142 554,142 554,142 554,141 554,141 554,140 554,140 554,140 554,140 554,140 554,139 554,139 555,139 555,139 555,138 555,138 555,138 555,138 555,138 555,137 555,137 555,137 555,137 555,136 555,136 556,136 556,136 556,136 556,136 556,136 556,135 556,135 556,135 556,135 556,135 556,135 556,134 556,134 557,134 557,134 557,134 557,134 557,134 557,133 557,133 557,133 557,133 557,133 557,133 557,133 557,133 558,133 558,133 558,134 558,134 558,134 558,134 558,135 558,135 558,135 558,135 558,136 558,136 558,137 559,137 559,138 559,138 559,139 559,139 559,139 559,140 559,140 559,140 559,140 559,141 559,141 559,142 560,142 560,143 560,143 560,143 560,144 560,144 560,144 560,144 560,145 560,145 560,146 560,147 560,147 561,147 561,148 561,148 561,148 561,149 561,149 561,150 561,150 561,151 561,151 561,152 561,152 561,153 562,153 562,153 562,154 562,154 562,154 562,155 562,155 562,155 562,155 562,156 562,156 562,156 562,156 563,156 563,157 563,157 563,157 563,158 563,158 563,158 563,158 563,158 563,159 563,159 563,159 563,159 564,159 564,159 564,159 564,159 564,159 564,159 564,160 564,159 564,159 564,160 564,160 564,160 564,160 565,160 565,160 565,161 565,161 565,161 565,161 565,161 565,161 565,162 565,162 565,162 565,162 565,162 566,162 566,163 566,163 566,163 566,163 566,163 566,163 566,163 566,163 566,163 566,163 566,164 566,164 567,164 567,164 567,164 567,164 567,164 567,164 567,164 567,164 567,164 567,164 567,165 567,165 567,164 568,164 568,164 568,164 568,165 568,165 568,165 568,165 568,165 568,165 568,165 568,165 568,165 568,165 569,165 569,165 569,165 569,165 569,165 569,165 569,165 569,165 569,165 569,165 569,165 569,165 569,165 570,165 570,165 570,165 570,165 570,165 570,165 570,165 570,165 570,165 570,165 570,165 570,165 570,165 571,165 571,165 571,165 571,165 571,165 571,164 571,164 571,164 571,164 571,163 571,163 571,163 571,163 572,163 572,162 572,162 572,162 572,162 572,162 572,161 572,161 572,161 572,161 572,160 572,160 572,160 573,159 573,159 573,159 573,159 573,158 573,158 573,158 573,158 573,157 573,157 573,157 573,156 573,156 574,156 574,156 574,156 574,156 574,156 574,156 574,155 574,156 574,156 574,156 574,156 574,156 574,156 575,156 575,156 575,156 575,157 575,157 575,157 575,157 575,157 575,157 575,158 575,158 575,158 575,158 576,158 576,159 576,159 576,159 576,159 576,159 576,159 576,160 576,160 576,160 576,161 576,161 576,162 577,162 577,162 577,162 577,163 577,162 577,162 577,162 577,162 577,162 577,162 577,162 577,162 577,162 578,162 578,162 578,162 578,162 578,162 578,162 578,162 578,162 578,162 578,162 578,162 578,161 578,161 579,161 579,161 579,161 579,161 579,161 579,161 579,161 579,161 579,161 579,160 579,160 579,160 579,160 580,160 580,160 580,160 580,160 580,160 580,159 580,159 580,159 580,159 580,159 580,159 580,158 580,158 581,158 581,158 581,158 581,158 581,157 581,157 581,157 581,157 581,157 581,156 581,156 581,156 581,155 582,155 582,154 582,154 582,153 582,153 582,152 582,151 582,150 582,149 582,148 582,147 582,146 582,145 583,145 583,144 583,143 583,142 583,141 583,140 583,138 583,137 583,136 583,136 583,136 583,135 583,135 584,135 584,134 584,134 584,134 584,134 584,134 584,134 584,134 584,134 584,134 584,134 584,134 584,134 585,134 585,133 585,133 585,133 585,133 585,132 585,132 585,132 585,131 585,130 585,130 585,129 585,129 586,128 586,128 586,127 586,127 586,126 586,126 586,125 586,125 586,124 586,124 586,123 586,123 586,122 587,122 587,121 587,121 587,121 587,120 587,120 587,120 587,120 587,119 587,119 587,119 587,119 587,118 588,118 588,118 588,117 588,117 588,117 588,117 588,117 588,116 588,116 588,116 588,116 588,116 588,116 589,116 589,117 589,117 589,117 589,118 589,118 589,119 589,119 589,119 589,120 589,120 589,120 589,120 590,120 590,120 590,120 590,120 590,120 590,120 590,120 590,120 590,120 590,120 590,119 590,119 590,119 591,120 591,120 591,120 591,120 591,120 591,120 591,121 591,121 591,121 591,121 591,121 591,122 591,122 592,122 592,122 592,123 592,123 592,123 592,124 592,124 592,124 592,124 592,124 592,124 592,124 592,124 593,124 593,125 593,125 593,125 593,125 593,125 593,125 593,125 593,125 593,125 593,126 593,125 593,124 594,124 594,123 594,122 594,122 594,121 594,120 594,119 594,118 594,117 594,117 594,116 594,116 594,116 595,115 595,115 595,114 595,114 595,113 595,112 595,112 595,111 595,110 595,110 595,109 595,108 595,108 596,107 596,107 596,106 596,106 596,105 596,105 596,104 596,104 596,104 596,103 596,103 596,102 596,102 597,101 597,101 597,101 597,100 597,100 597,100 597,100 597,100 597,100 597,100 597,100 597,100 597,100 598,100 598,101 598,101 598,101 598,101 598,101 598,101 598,101 598,101 598,101 598,101 598,100 598,100 599,100 599,100 599,100 599,100 599,100 599,100 599,100 599,100 599,100 599,100 599,100 599,100 599,100 600,100 600,100 600,100 600,100 600,101 600,101 600,101 600,101 600,101 600,101 600,101 600,101 600,101 601,101 601,101 601,101 601,100 601,100 601,100 601,100 601,100 601,100 601,100 601,99 601,99 601,99 602,99 602,99 602,98 602,98 602,98 602,98 602,98 602,98 602,98 602,97 602,97 602,97 602,97 603,97 603,97 603,97 603,97 603,97 603,97 603,97 603,97 603,97 603,97 603,97 603,97 603,97 604,97 604,97 604,97 604,97 604,97 604,97 604,97 604,97 604,97 604,97 604,97 604,97 604,98 605,98 605,98 605,98 605,99 605,99 605,99 605,99 605,99 605,100 605,100 605,100 605,100 605,100 606,101 606,101 606,101 606,102 606,102 606,102 606,103 606,103 606,103 606,104 606,104 606,105 606,105 607,105 607,105 607,105 607,106 607,106 607,106 607,107 607,107 607,107 607,108 607,108 607,108 607,108 608,108 608,108 608,108 608,108 608,108 608,108 608,108 608,108 608,108 608,109 608,110 608,110 608,110 609,109 609,108 609,108 609,108 609,108 609,108 609,108 609,109 609,109 609,109 609,109 609,109 609,109 610,109 610,109 610,109 610,109 610,110 610,110 610,110 610,110 610,110 610,110 610,110 610,109 610,109 611,109 611,109 611,109 611,109 611,109 611,109 611,109 611,109 611,109 611,109 611,109 611,109 611,109 612,109 612,109 612,109 612,109 612,109 612,108 612,108 612,108 612,108 612,109 612,109 612,109 612,109 613,109 613,109 613,109 613,109 613,109 613,109 613,109 613,109 613,109 613,109 613,109 613,109 613,110 614,110 614,110 614,110 614,111 614,111 614,111 614,111 614,111 614,111 614,111 614,111 614,110 614,110 615,110 615,110 615,110 615,110 615,109 615,109 615,109 615,109 615,109 615,109 615,109 615,109 615,109 616,109 616,109 616,109 616,109 616,109 616,109 616,109 616,109 616,109 616,109 616,109 616,109 616,109 617,109 617,109 617,109 617,109 617,109 617,109 617,109 617,109 617,110 617,110 617,110 617,110 617,110 618,111 618,111 618,111 618,111 618,112 618,112 618,112 618,113 618,113 618,113 618,113 618,113 618,114 619,114 619,114 619,114 619,114 619,114 619,114 619,114 619,115 619,115 619,115 619,114 619,114 619,114 620,114 620,114 620,114 620,114 620,114 620,114 620,114 620,114 620,114 620,113 620,114 620,114 620,114 621,114 621,114 621,114 621,114 621,114 621,113 621,113 621,113 621,113 621,113 621,113 621,113 621,113 622,113 622,113 622,113 622,113 622,113 622,113 622,113 622,113 622,113 622,112 622,112 622,112 622,113 623,113 623,112 623,112 623,112 623,112 623,112 623,112 623,112 623,112 623,112 623,112 623,112 623,112 624,112 624,112 624,112 624,112 624,112 624,112 624,112 624,112 624,112 624,112 624,112 624,112 624,112 625,112 625,112 625,112 625,112 625,112 625,112 625,112 625,112 625,112 625,112 625,112 625,112 625,112 626,112 626,112 626,112 626,112 626,112 626,112 626,112 626,112 626,112 626,112 626,112 626,112 626,112 627,112 627,112 627,112 627,112 627,112 627,111 627,111 627,111 627,111 627,111 627,111 627,111 627,111 628,111 628,111 628,111 628,112 628,112 628,112 628,112 628,112 628,113 628,113 628,113 628,114 628,114 629,113 629,113 629,113 629,114 629,114 629,114 629,114 629,115 629,115 629,115 629,116 629,116 629,117 630,117 630,117 630,117 630,117 630,118 630,118 630,118 630,118 630,118 630,118 630,118 630,118 630,118 631,118 631,118 631,118 631,118 631,118 631,118 631,118 631,117 631,117 631,117 631,117 631,117 631,116 632,116 632,116 632,116 632,116 632,116 632,116 632,116 632,116 632,116 632,116 632,117 632,117 632,117 633,117 633,118 633,118 633,118 633,118 633,119 633,119 633,119 633,120 633,120 633,120 633,121 633,121 634,121 634,121 634,122 634,122 634,122 634,122 634,123 634,123 634,123 634,123 634,123 634,123 634,123 635,123 635,123 635,123 635,123 635,123 635,124 635,124 635,124 635,124 635,124 635,124 635,124 635,125 636,125 636,126 636,126 636,126 636,127 636,127 636,127 636,128 636,128 636,128 636,129 636,129 636,130 637,130 637,130 637,131 637,131 637,131 637,132 637,132 637,132 637,133 637,133 637,133 637,134 637,134 638,134 638,134 638,135 638,135 638,135 638,135 638,135 638,136 638,136 638,136 638,136 638,136 638,136 639,135 639,135 639,135 639,135 639,135 639,135 639,135 639,135 639,135 639,136 639,136 639,136 639,136 640,136 640,136 640,136 640,136 640,136 640,136 640,136 640,136 640,136 640,137 640,137 640,137 640,137 641,137 641,137 641,137 641,137 641,137 641,137 641,138 641,138 641,138 641,138 641,138 641,139 641,139 642,139 642,139 642,140 642,140 642,140 642,141 642,141 642,141 642,142 642,142 642,142 642,142 642,143 643,143 643,143 643,143 643,143 643,144 643,144 643,144 643,144 643,144 643,144 643,144 643,144 643,144 644,144 644,144 644,144 644,145 644,145 644,145 644,145 644,145 644,145 644,145 644,145 644,145 644,145 645,145 645,145 645,145 645,146 645,146 645,146 645,146 645,146 645,146 645,146 645,147 645,147 645,147 646,147 646,147 646,148 646,148 646,148 646,148 646,148 646,148 646,148 646,149 646,149 646,149 646,149 647,149 647,149 647,149 647,149 647,149 647,149 647,150 647,150 647,150 647,150 647,150 647,150 647,150 648,150 648,151 648,151 648,151 648,151 648,151 648,152 648,152 648,152 648,152 648,152 648,153 648,153 649,153 649,153 649,153 649,153 649,154 649,154 649,154 649,154 649,154 649,154 649,154 649,155 649,155 650,155 650,155 650,155 650,155 650,155 650,156 650,156 650,156 650,156 650,157 650,157 650,157 650,157 651,158 651,158 651,158 651,158 651,158 651,157 651,156 651,156 651,155 651,155 651,154 651,154 651,154 652,154 652,154 652,153 652,153 652,153 652,153 652,153 652,153 652,153 652,153 652,153 652,153 652,153 653,153 653,153 653,153 653,153 653,153 653,154 653,154 653,154 653,154 653,155 653,155 653,155 653,155 654,156 654,156 654,156 654,156 654,156 654,156 654,157 654,157 654,157 654,157 654,157 654,157 654,157 655,157 655,157 655,158 655,158 655,158 655,159 655,159 655,160 655,160 655,160 655,160 655,160 655,160 656,160 656,160 656,160 656,159 656,159 656,159 656,159 656,159 656,160 656,160 656,160 656,160 656,160 657,160 657,160 657,160 657,160 657,160 657,160 657,160 657,160 657,160 657,160 657,159 657,159 657,158 658,158 658,158 658,158 658,157 658,157 658,157 658,157 658,156 658,156 658,156 658,155 658,155 658,155 659,155 659,154 659,154 659,154 659,154 659,153 659,153 659,153 659,153 659,152 659,152 659,152 659,152 660,151 660,151 660,151 660,150 660,150 660,150 660,149 660,149 660,149 660,148 660,148 660,147 660,147 661,146 661,146 661,146 661,146 661,146 661,146 661,146 661,146 661,146 661,146 661,147 661,147 661,147 662,147 662,147 662,148 662,148 662,148 662,149 662,149 662,150 662,151 662,151 662,152 662,152 662,153 663,154 663,154 663,155 663,155 663,156 663,156 663,157 663,157 663,157 663,158 663,158 663,159 663,159 664,159 664,160 664,160 664,160 664,161 664,161 664,161 664,162 664,162 664,162 664,163 664,163 664,163 665,164 665,164 665,164 665,165 665,165 665,165 665,165 665,165 665,166 665,166 665,166 665,166 665,166 666,166 666,166 666,166 666,166 666,166 666,166 666,165 666,165 666,165 666,165 666,165 666,164 666,164 667,164 667,163 667,163 667,162 667,162 667,161 667,161 667,160 667,160 667,159 667,159 667,158 667,158 668,158 668,157 668,157 668,156 668,156 668,156 668,156 668,156 668,156 668,156 668,156 668,156 668,156 669,156 669,156 669,156 669,156 669,157 669,157 669,157 669,158 669,158 669,158 669,159 669,159 669,160 670,160 670,160 670,161 670,161 670,161 670,161 670,162 670,162 670,162 670,163 670,163 670,164 670,165 671,165 671,166 671,166 671,166 671,167 671,167 671,168 671,168 671,168 671,168 671,169 671,169 671,169 672,170 672,170 672,170 672,170 672,170 672,170 672,170 672,170 672,170 672,170 672,170 672,170 672,170 673,170 673,170 673,170 673,170 673,170 673,170 673,170 673,170 673,170 673,170 673,170 673,170 673,169 674,169 674,169 674,169 674,168 674,168 674,168 674,168 674,168 674,168 674,167 674,167 674,167 674,167 675,167 675,167 675,166 675,166 675,166 675,166 675,166 675,166 675,166 675,166 675,166 675,166 675,166 676,166 676,166 676,166 676,167 676,167 676,167 676,167 676,167 676,167 676,167 676,167 676,167 676,167 677,168 677,168 677,168 677,168 677,168 677,168 677,168 677,168 677,168 677,167 677,167 677,167 677,166 678,166 678,166 678,165 678,165 678,165 678,165 678,165 678,165 678,164 678,164 678,164 678,164 678,164 679,164 679,164 679,164 679,164 679,164 679,165 679,165 679,165 679,165 679,165 679,165 679,166 679,166 680,166 680,166 680,166 680,166 680,165 680,165 680,165 680,165 680,165 680,165 680,164 680,164 680,164 681,164 681,164 681,164 681,163 681,163 681,163 681,163 681,162 681,162 681,162 681,162 681,162 681,162 682,162 682,161 682,161 682,161 682,161 682,161 682,161 682,161 682,161 682,161 682,161 682,161 682,161 683,161 683,161 683,161 683,161 683,161 683,161 683,161 683,161 683,161 683,161 683,161 683,162 683,162 684,162 684,162 684,162 684,163 684,163 684,163 684,164 684,164 684,164 684,164 684,165 684,165 684,165 685,164 685,164 685,164 685,164 685,164 685,164 685,164 685,164 685,164 685,164 685,164 685,164 685,164 686,165 686,165 686,165 686,166 686,166 686,166 686,166 686,166 686,166 686,166 686,166 686,166 686,166 687,166 687,166 687,166 687,166 687,166 687,166 687,165 687,165 687,165 687,164 687,164 687,164 687,163 688,163 688,163 688,163 688,162 688,162 688,162 688,162 688,162 688,161 688,161 688,161 688,161 688,162 689,162 689,162 689,162 689,162 689,163 689,163 689,163 689,164 689,164 689,164 689,164 689,165 689,165 690,165 690,165 690,165 690,166 690,166 690,166 690,166 690,166 690,166 690,166 690,166 690,166 690,166 691,166 691,166 691,166 691,166 691,166 691,166 691,166 691,166 691,166 691,166 691,166 691,166 691,166 692,166 692,166 692,166 692,166 692,166 692,166 692,166 692,166 692,166 692,166 692,166 692,166 692,166 693,166 693,166 693,166 693,166 693,166 693,165 693,165 693,165 693,165 693,165 693,166 693,166 693,166 694,167 694,167 694,167 694,167 694,167 694,167 694,167 694,167 694,167 694,167 694,168 694,168 694,168 695,168 695,168 695,168 695,169 695,169 695,169 695,169 695,169 695,169 695,170 695,170 695,170 695,170 696,170 696,170 696,170 696,170 696,170 696,170 696,170 696,170 696,170 696,170 696,170 696,171 696,170 697,170 697,170 697,170 697,170 697,170 697,170 697,170 697,170 697,170 697,170 697,170 697,170 697,170 698,170 698,170 698,170 698,170 698,169 698,169 698,169 698,169 698,169 698,169 698,169 698,168 698,168 699,168 699,168 699,168 699,167 699,167 699,167 699,167 699,167 699,167 699,167 699,167 699,167 699,167 700,167 700,167 700,167 700,167 700,167 700,167 700,167 700,167 700,167 700,167 700,167 700,167 700,167 701,168 701,168 701,168 701,168 701,168 701,169 701,169 701,169 701,169 701,170 701,170 701,170 701,170 702,171 702,171 702,171 702,172 702,172 702,172 702,172 702,172 702,173 702,173 702,173 702,173 702,173 703,173 703,174 703,174 703,174 703,174 703,174 703,174 703,174 703,174 703,175 703,175 703,175 703,175 704,176 704,176 704,176 704,176 704,177 704,177 704,177 704,177 704,178 704,178 704,178 704,178 704,178 705,178 705,178 705,179 705,179 705,179 705,179 705,179 705,179 705,179 705,180 705,180 705,180 705,180 706,180 706,180 706,181 706,181 706,181 706,181 706,181 706,181 706,182 706,182 706,182 706,181 706,182 707,182 707,182 707,183 707,183 707,183 707,183 707,183 707,183 707,183 707,184 707,184 707,184 707,184 707,185 708,185 708,186 708,186 708,186 708,187 708,187 708,187 708,187 708,188 708,188 708,188 708,188 708,188 709,188 709,189 709,189 709,189 709,190 709,190 709,190 709,190 709,190 709,191 709,191 709,191 709,191 710,191 710,192 710,192 710,192 710,192 710,192 710,192 710,193 710,193 710,193 710,193 710,194 710,194 711,194 711,194 711,194 711,194 711,193 711,193 711,192 711,192 711,191 711,191 711,190 711,190 711,189 712,189 712,188 712,188 712,187 712,187 712,186 712,185 712,185 712,184 712,183 712,183 712,182 712,181 713,181 713,180 713,180 713,179 713,179 713,179 713,178 713,178 713,178 713,177 713,177 713,177 713,177 714,176 714,176 714,176 714,176 714,176 714,176 714,176 714,176 714,176 714,176 714,176 714,176 714,175 715,175 715,175 715,175 715,175 715,175 715,174 715,174 715,174 715,174 715,174 715,174 715,174 715,173 716,173 716,173 716,173 716,173 716,173 716,173 716,172 716,172 716,172 716,171 716,171 716,171 716,170 717,170 717,170 717,170 717,169 717,169 717,169 717,169 717,169 717,168 717,168 717,168 717,168 717,168 718,168 718,167 718,167 718,167 718,167 718,167 718,167 718,167 718,167 718,167 718,167 718,167 718,166 719,166 719,166 719,166 719,166 719,166 719,166 719,167 719,167 719,167 719,167 719,167 719,167 719,168 720,168 720,168 720,168 720,168 720,168 720,168 720,168 720,167 720,167 720,167 720,166 720,166 720,165 721,165 721,165 721,164 721,164 721,164 721,163 721,163 721,163 721,163 721,163 721,163 721,163 721,163 722,162 722,162 722,162 722,162 722,162 722,161 722,161 722,161 722,161 722,161 722,161 722,160 722,160 723,160 723,160 723,160 723,161 723,161 723,161 723,162 723,162 723,162 723,163 723,163 723,163 723,163 724,164 724,164 724,164 724,164 724,164 724,164 724,164 724,164 724,164 724,164 724,164 724,164 724,164 725,164 725,164 725,164 725,164 725,165 725,165 725,165 725,165 725,165 725,166 725,166 725,166 725,166 726,166 726,167 726,167 726,167 726,167 726,167 726,167 726,167 726,167 726,167 726,167 726,168 726,168 727,168 727,168 727,169 727,169 727,169 727,169 727,170 727,170 727,170 727,170 727,170 727,170 727,171 728,171 728,171 728,172 728,172 728,172 728,172 728,173 728,173 728,173 728,174 728,174 728,174 728,175 729,175 729,175 729,175 729,176 729,176 729,176 729,176 729,177 729,177 729,177 729,177 729,177 729,178 730,178 730,178 730,178 730,178 730,179 730,179 730,179 730,179 730,179 730,180 730,180 730,180 730,180 731,181 731,181 731,181 731,181 731,182 731,182 731,182 731,182 731,183 731,183 731,183 731,183 731,184 732,184 732,184 732,184 732,185 732,185 732,185 732,186 732,186 732,186 732,186 732,187 732,187 732,187 733,187 733,188 733,188 733,188 733,188 733,189 733,189 733,189 733,190 733,190 733,190 733,191 733,191 734,191 734,191 734,192 734,192 734,192 734,192 734,192 734,192 734,192 734,192 734,192 734,192 734,192 735,192 735,192 735,192 735,192 735,192 735,192 735,192 735,192 735,191 735,191 735,191 735,191 735,191 736,190 736,190 736,190 736,190 736,189 736,189 736,189 736,188 736,188 736,188 736,188 " vector-effect="non-scaling-stroke"></polyline>
</g></svg>