<!-- Generator: Adobe Illustrator 19.2.0, SVG Export Plug-In  -->
<!DOCTYPE svg PUBLIC "-//W3C//DTD SVG 1.1//EN" "http://www.w3.org/Graphics/SVG/1.1/DTD/svg11.dtd" [
	<!ENTITY ns_flows "http://ns.adobe.com/Flows/1.0/">
	<!ENTITY st0 "fill:none;stroke:#FFFFFF;stroke-linecap:square;stroke-linejoin:bevel;stroke-dasharray:1,2;">
	<!ENTITY st1 "fill:none;stroke:#624949;stroke-width:1.5;stroke-linecap:round;stroke-linejoin:round;">
	<!ENTITY st2 "fill:#624949;">
]>
<svg version="1.1"
	 xmlns="http://www.w3.org/2000/svg" xmlns:xlink="http://www.w3.org/1999/xlink" xmlns:a="http://ns.adobe.com/AdobeSVGViewerExtensions/3.0/"
	 x="0px" y="0px" width="759px" height="380px" preserveAspectRatio="none" viewBox="0 0 759 380" style="enable-background:new 0 0 759 380;"
	 xml:space="preserve">
<defs>
</defs>
<line vector-effect="non-scaling-stroke" style="&st0;" x1="0.5" y1="0.5" x2="0.5" y2="379.5"/>
<line vector-effect="non-scaling-stroke" style="&st0;" x1="95.5" y1="0.5" x2="95.5" y2="379.5"/>
<line vector-effect="non-scaling-stroke" style="&st0;" x1="190.5" y1="0.5" x2="190.5" y2="379.5"/>
<line vector-effect="non-scaling-stroke" style="&st0;" x1="284.5" y1="0.5" x2="284.5" y2="379.5"/>
<line vector-effect="non-scaling-stroke" style="&st0;" x1="379.5" y1="0.5" x2="379.5" y2="379.5"/>
<line vector-effect="non-scaling-stroke" style="&st0;" x1="474.5" y1="0.5" x2="474.5" y2="379.5"/>
<line vector-effect="non-scaling-stroke" style="&st0;" x1="569.5" y1="0.5" x2="569.5" y2="379.5"/>
<line vector-effect="non-scaling-stroke" style="&st0;" x1="663.5" y1="0.5" x2="663.5" y2="379.5"/>
<line vector-effect="non-scaling-stroke" style="&st0;" x1="758.5" y1="0.5" x2="758.5" y2="379.5"/>
<line vector-effect="non-scaling-stroke" style="&st0;" x1="0.5" y1="379.5" x2="758.5" y2="379.5"/>
<line vector-effect="non-scaling-stroke" style="&st0;" x1="0.5" y1="325.5" x2="758.5" y2="325.5"/>
<line vector-effect="non-scaling-stroke" style="&st0;" x1="0.5" y1="270.5" x2="758.5" y2="270.5"/>
<line vector-effect="non-scaling-stroke" style="&st0;" x1="0.5" y1="216.5" x2="758.5" y2="216.5"/>
<line vector-effect="non-scaling-stroke" style="&st0;" x1="0.5" y1="162.5" x2="758.5" y2="162.5"/>
<line vector-effect="non-scaling-stroke" style="&st0;" x1="0.5" y1="108.5" x2="758.5" y2="108.5"/>
<line vector-effect="non-scaling-stroke" style="&st0;" x1="0.5" y1="53.5" x2="758.5" y2="53.5"/>
<g transform="matrix(1,0,0,1,0,0)">
	<polyline vector-effect="non-scaling-stroke" style="&st1;" points="716.5,324.5 716.5,324.5 716.5,324.5 716.5,324.5 716.5,324.5 
		716.5,324.5 716.5,324.5 716.5,324.5 716.5,324.5 	"/>
</g>
<g transform="matrix(1,0,0,1,0,0)">
	<polyline vector-effect="non-scaling-stroke" style="&st2;" points="709.5,379.5 116.5,379.5 116.5,328.5 116.5,328.5 117.5,328.5 
		117.5,328.5 117.5,328.5 117.5,328.5 117.5,328.5 117.5,327.5 117.5,327.5 117.5,327.5 117.5,327.5 117.5,327.5 117.5,327.5 
		117.5,327.5 117.5,327.5 118.5,327.5 118.5,327.5 118.5,327.5 118.5,327.5 118.5,327.5 118.5,327.5 118.5,327.5 118.5,328.5 
		118.5,328.5 118.5,328.5 118.5,328.5 118.5,328.5 118.5,328.5 119.5,329.5 119.5,329.5 119.5,329.5 119.5,329.5 119.5,329.5 
		119.5,329.5 119.5,329.5 119.5,329.5 119.5,329.5 119.5,328.5 119.5,328.5 119.5,328.5 119.5,328.5 120.5,328.5 120.5,328.5 
		120.5,329.5 120.5,329.5 120.5,328.5 120.5,328.5 120.5,328.5 120.5,328.5 120.5,328.5 120.5,328.5 120.5,328.5 120.5,328.5 
		120.5,328.5 121.5,328.5 121.5,328.5 121.5,328.5 121.5,328.5 121.5,328.5 121.5,329.5 121.5,329.5 121.5,329.5 121.5,329.5 
		121.5,329.5 121.5,329.5 121.5,329.5 121.5,329.5 122.5,329.5 122.5,329.5 122.5,329.5 122.5,329.5 122.5,329.5 122.5,329.5 
		122.5,329.5 122.5,329.5 122.5,329.5 122.5,329.5 122.5,330.5 122.5,330.5 122.5,330.5 123.5,330.5 123.5,330.5 123.5,329.5 
		123.5,329.5 123.5,329.5 123.5,329.5 123.5,329.5 123.5,329.5 123.5,330.5 123.5,330.5 123.5,330.5 123.5,330.5 123.5,330.5 
		124.5,330.5 124.5,330.5 124.5,330.5 124.5,330.5 124.5,330.5 124.5,330.5 124.5,330.5 124.5,330.5 124.5,331.5 124.5,331.5 
		124.5,331.5 124.5,331.5 124.5,331.5 125.5,331.5 125.5,331.5 125.5,331.5 125.5,331.5 125.5,331.5 125.5,331.5 125.5,331.5 
		125.5,331.5 125.5,331.5 125.5,331.5 125.5,331.5 125.5,331.5 125.5,331.5 126.5,331.5 126.5,331.5 126.5,331.5 126.5,331.5 
		126.5,331.5 126.5,331.5 126.5,331.5 126.5,331.5 126.5,331.5 126.5,331.5 126.5,331.5 126.5,331.5 126.5,331.5 127.5,332.5 
		127.5,332.5 127.5,332.5 127.5,332.5 127.5,332.5 127.5,332.5 127.5,332.5 127.5,332.5 127.5,332.5 127.5,333.5 127.5,333.5 
		127.5,333.5 127.5,333.5 128.5,333.5 128.5,333.5 128.5,334.5 128.5,334.5 128.5,334.5 128.5,334.5 128.5,334.5 128.5,334.5 
		128.5,334.5 128.5,334.5 128.5,334.5 128.5,334.5 128.5,333.5 129.5,333.5 129.5,333.5 129.5,333.5 129.5,332.5 129.5,332.5 
		129.5,332.5 129.5,332.5 129.5,332.5 129.5,332.5 129.5,332.5 129.5,331.5 129.5,331.5 129.5,331.5 130.5,331.5 130.5,331.5 
		130.5,331.5 130.5,331.5 130.5,331.5 130.5,331.5 130.5,331.5 130.5,331.5 130.5,331.5 130.5,331.5 130.5,331.5 130.5,331.5 
		130.5,331.5 131.5,330.5 131.5,330.5 131.5,330.5 131.5,330.5 131.5,329.5 131.5,329.5 131.5,329.5 131.5,329.5 131.5,329.5 
		131.5,329.5 131.5,329.5 131.5,328.5 131.5,328.5 132.5,328.5 132.5,328.5 132.5,328.5 132.5,328.5 132.5,327.5 132.5,327.5 
		132.5,327.5 132.5,327.5 132.5,327.5 132.5,327.5 132.5,327.5 132.5,327.5 132.5,327.5 133.5,327.5 133.5,327.5 133.5,327.5 
		133.5,327.5 133.5,327.5 133.5,327.5 133.5,327.5 133.5,326.5 133.5,326.5 133.5,326.5 133.5,326.5 133.5,326.5 133.5,326.5 
		134.5,325.5 134.5,325.5 134.5,325.5 134.5,325.5 134.5,325.5 134.5,325.5 134.5,324.5 134.5,324.5 134.5,324.5 134.5,324.5 
		134.5,323.5 134.5,323.5 134.5,323.5 135.5,323.5 135.5,323.5 135.5,323.5 135.5,323.5 135.5,323.5 135.5,323.5 135.5,324.5 
		135.5,324.5 135.5,323.5 135.5,323.5 135.5,323.5 135.5,323.5 135.5,322.5 136.5,322.5 136.5,322.5 136.5,322.5 136.5,322.5 
		136.5,322.5 136.5,322.5 136.5,322.5 136.5,322.5 136.5,321.5 136.5,321.5 136.5,321.5 136.5,321.5 136.5,321.5 136.5,321.5 
		137.5,321.5 137.5,321.5 137.5,321.5 137.5,321.5 137.5,321.5 137.5,321.5 137.5,320.5 137.5,320.5 137.5,320.5 137.5,320.5 
		137.5,320.5 137.5,320.5 137.5,320.5 138.5,320.5 138.5,320.5 138.5,320.5 138.5,320.5 138.5,320.5 138.5,320.5 138.5,320.5 
		138.5,320.5 138.5,320.5 138.5,320.5 138.5,320.5 138.5,320.5 138.5,320.5 139.5,320.5 139.5,320.5 139.5,320.5 139.5,320.5 
		139.5,320.5 139.5,320.5 139.5,320.5 139.5,320.5 139.5,320.5 139.5,320.5 139.5,320.5 139.5,320.5 139.5,320.5 140.5,320.5 
		140.5,320.5 140.5,320.5 140.5,320.5 140.5,320.5 140.5,320.5 140.5,320.5 140.5,320.5 140.5,320.5 140.5,320.5 140.5,320.5 
		140.5,321.5 140.5,321.5 141.5,321.5 141.5,321.5 141.5,321.5 141.5,321.5 141.5,321.5 141.5,321.5 141.5,321.5 141.5,321.5 
		141.5,321.5 141.5,321.5 141.5,321.5 141.5,321.5 141.5,321.5 142.5,321.5 142.5,321.5 142.5,321.5 142.5,320.5 142.5,320.5 
		142.5,320.5 142.5,321.5 142.5,321.5 142.5,321.5 142.5,321.5 142.5,321.5 142.5,321.5 142.5,321.5 143.5,321.5 143.5,321.5 
		143.5,320.5 143.5,320.5 143.5,320.5 143.5,320.5 143.5,320.5 143.5,320.5 143.5,320.5 143.5,320.5 143.5,321.5 143.5,321.5 
		143.5,320.5 144.5,320.5 144.5,320.5 144.5,320.5 144.5,320.5 144.5,320.5 144.5,320.5 144.5,320.5 144.5,320.5 144.5,320.5 
		144.5,320.5 144.5,320.5 144.5,320.5 144.5,319.5 145.5,319.5 145.5,319.5 145.5,319.5 145.5,319.5 145.5,320.5 145.5,320.5 
		145.5,320.5 145.5,320.5 145.5,320.5 145.5,320.5 145.5,320.5 145.5,320.5 145.5,320.5 146.5,320.5 146.5,320.5 146.5,320.5 
		146.5,320.5 146.5,320.5 146.5,320.5 146.5,320.5 146.5,320.5 146.5,320.5 146.5,320.5 146.5,320.5 146.5,319.5 146.5,319.5 
		147.5,319.5 147.5,319.5 147.5,319.5 147.5,319.5 147.5,320.5 147.5,320.5 147.5,320.5 147.5,320.5 147.5,320.5 147.5,320.5 
		147.5,320.5 147.5,320.5 147.5,320.5 148.5,320.5 148.5,320.5 148.5,320.5 148.5,320.5 148.5,320.5 148.5,320.5 148.5,320.5 
		148.5,320.5 148.5,320.5 148.5,320.5 148.5,321.5 148.5,321.5 148.5,321.5 149.5,321.5 149.5,321.5 149.5,321.5 149.5,321.5 
		149.5,321.5 149.5,322.5 149.5,322.5 149.5,322.5 149.5,322.5 149.5,322.5 149.5,322.5 149.5,322.5 149.5,322.5 150.5,322.5 
		150.5,322.5 150.5,323.5 150.5,323.5 150.5,323.5 150.5,323.5 150.5,323.5 150.5,323.5 150.5,323.5 150.5,323.5 150.5,323.5 
		150.5,323.5 150.5,323.5 151.5,323.5 151.5,323.5 151.5,322.5 151.5,322.5 151.5,322.5 151.5,322.5 151.5,322.5 151.5,322.5 
		151.5,321.5 151.5,321.5 151.5,321.5 151.5,321.5 151.5,321.5 152.5,320.5 152.5,320.5 152.5,320.5 152.5,320.5 152.5,320.5 
		152.5,319.5 152.5,319.5 152.5,319.5 152.5,319.5 152.5,319.5 152.5,318.5 152.5,318.5 152.5,318.5 153.5,318.5 153.5,318.5 
		153.5,318.5 153.5,318.5 153.5,318.5 153.5,318.5 153.5,319.5 153.5,319.5 153.5,319.5 153.5,319.5 153.5,319.5 153.5,319.5 
		153.5,320.5 154.5,320.5 154.5,320.5 154.5,320.5 154.5,320.5 154.5,320.5 154.5,321.5 154.5,321.5 154.5,321.5 154.5,321.5 
		154.5,321.5 154.5,321.5 154.5,321.5 154.5,321.5 155.5,321.5 155.5,322.5 155.5,322.5 155.5,322.5 155.5,322.5 155.5,323.5 
		155.5,323.5 155.5,323.5 155.5,322.5 155.5,322.5 155.5,322.5 155.5,323.5 155.5,323.5 156.5,323.5 156.5,323.5 156.5,323.5 
		156.5,323.5 156.5,323.5 156.5,323.5 156.5,323.5 156.5,323.5 156.5,323.5 156.5,324.5 156.5,324.5 156.5,324.5 156.5,324.5 
		157.5,324.5 157.5,324.5 157.5,324.5 157.5,324.5 157.5,325.5 157.5,325.5 157.5,325.5 157.5,325.5 157.5,325.5 157.5,325.5 
		157.5,325.5 157.5,325.5 157.5,325.5 158.5,325.5 158.5,325.5 158.5,325.5 158.5,325.5 158.5,325.5 158.5,325.5 158.5,325.5 
		158.5,325.5 158.5,325.5 158.5,325.5 158.5,325.5 158.5,325.5 158.5,325.5 159.5,325.5 159.5,325.5 159.5,325.5 159.5,325.5 
		159.5,325.5 159.5,325.5 159.5,325.5 159.5,325.5 159.5,325.5 159.5,324.5 159.5,324.5 159.5,324.5 159.5,324.5 160.5,324.5 
		160.5,324.5 160.5,324.5 160.5,324.5 160.5,324.5 160.5,325.5 160.5,325.5 160.5,325.5 160.5,325.5 160.5,325.5 160.5,325.5 
		160.5,325.5 160.5,325.5 161.5,325.5 161.5,325.5 161.5,325.5 161.5,324.5 161.5,324.5 161.5,324.5 161.5,324.5 161.5,324.5 
		161.5,324.5 161.5,324.5 161.5,324.5 161.5,324.5 161.5,324.5 162.5,324.5 162.5,324.5 162.5,323.5 162.5,323.5 162.5,323.5 
		162.5,323.5 162.5,323.5 162.5,322.5 162.5,322.5 162.5,322.5 162.5,322.5 162.5,322.5 162.5,322.5 163.5,322.5 163.5,322.5 
		163.5,322.5 163.5,321.5 163.5,321.5 163.5,321.5 163.5,321.5 163.5,321.5 163.5,321.5 163.5,321.5 163.5,321.5 163.5,321.5 
		163.5,321.5 164.5,321.5 164.5,321.5 164.5,321.5 164.5,321.5 164.5,320.5 164.5,320.5 164.5,320.5 164.5,320.5 164.5,320.5 
		164.5,321.5 164.5,320.5 164.5,320.5 164.5,320.5 165.5,320.5 165.5,319.5 165.5,319.5 165.5,319.5 165.5,319.5 165.5,319.5 
		165.5,318.5 165.5,318.5 165.5,318.5 165.5,318.5 165.5,318.5 165.5,318.5 165.5,318.5 166.5,318.5 166.5,318.5 166.5,318.5 
		166.5,317.5 166.5,317.5 166.5,317.5 166.5,317.5 166.5,317.5 166.5,317.5 166.5,317.5 166.5,316.5 166.5,316.5 166.5,316.5 
		167.5,315.5 167.5,315.5 167.5,315.5 167.5,315.5 167.5,315.5 167.5,315.5 167.5,315.5 167.5,315.5 167.5,315.5 167.5,315.5 
		167.5,315.5 167.5,315.5 167.5,315.5 168.5,314.5 168.5,314.5 168.5,314.5 168.5,314.5 168.5,314.5 168.5,314.5 168.5,313.5 
		168.5,313.5 168.5,313.5 168.5,313.5 168.5,312.5 168.5,312.5 168.5,312.5 169.5,312.5 169.5,312.5 169.5,312.5 169.5,312.5 
		169.5,312.5 169.5,312.5 169.5,312.5 169.5,311.5 169.5,311.5 169.5,311.5 169.5,311.5 169.5,311.5 169.5,311.5 170.5,311.5 
		170.5,311.5 170.5,311.5 170.5,312.5 170.5,312.5 170.5,312.5 170.5,311.5 170.5,310.5 170.5,310.5 170.5,310.5 170.5,310.5 
		170.5,310.5 170.5,310.5 171.5,310.5 171.5,310.5 171.5,310.5 171.5,309.5 171.5,309.5 171.5,309.5 171.5,309.5 171.5,309.5 
		171.5,309.5 171.5,309.5 171.5,308.5 171.5,308.5 171.5,308.5 172.5,308.5 172.5,308.5 172.5,308.5 172.5,308.5 172.5,308.5 
		172.5,308.5 172.5,308.5 172.5,308.5 172.5,308.5 172.5,308.5 172.5,308.5 172.5,308.5 172.5,308.5 173.5,308.5 173.5,308.5 
		173.5,308.5 173.5,308.5 173.5,308.5 173.5,307.5 173.5,307.5 173.5,307.5 173.5,307.5 173.5,307.5 173.5,307.5 173.5,307.5 
		173.5,307.5 174.5,307.5 174.5,307.5 174.5,307.5 174.5,307.5 174.5,307.5 174.5,307.5 174.5,307.5 174.5,307.5 174.5,307.5 
		174.5,307.5 174.5,307.5 174.5,307.5 174.5,307.5 175.5,307.5 175.5,307.5 175.5,308.5 175.5,308.5 175.5,308.5 175.5,308.5 
		175.5,308.5 175.5,308.5 175.5,308.5 175.5,308.5 175.5,309.5 175.5,309.5 175.5,309.5 176.5,309.5 176.5,309.5 176.5,309.5 
		176.5,309.5 176.5,309.5 176.5,309.5 176.5,309.5 176.5,309.5 176.5,309.5 176.5,309.5 176.5,309.5 176.5,309.5 176.5,308.5 
		177.5,308.5 177.5,308.5 177.5,308.5 177.5,307.5 177.5,307.5 177.5,307.5 177.5,306.5 177.5,306.5 177.5,306.5 177.5,306.5 
		177.5,305.5 177.5,305.5 177.5,305.5 178.5,305.5 178.5,305.5 178.5,304.5 178.5,304.5 178.5,304.5 178.5,304.5 178.5,304.5 
		178.5,304.5 178.5,303.5 178.5,303.5 178.5,303.5 178.5,302.5 178.5,302.5 179.5,302.5 179.5,302.5 179.5,302.5 179.5,302.5 
		179.5,302.5 179.5,302.5 179.5,302.5 179.5,302.5 179.5,302.5 179.5,302.5 179.5,302.5 179.5,302.5 179.5,301.5 180.5,301.5 
		180.5,301.5 180.5,301.5 180.5,301.5 180.5,301.5 180.5,301.5 180.5,301.5 180.5,302.5 180.5,302.5 180.5,302.5 180.5,302.5 
		180.5,302.5 180.5,302.5 181.5,302.5 181.5,302.5 181.5,302.5 181.5,303.5 181.5,303.5 181.5,303.5 181.5,303.5 181.5,303.5 
		181.5,303.5 181.5,303.5 181.5,303.5 181.5,303.5 181.5,303.5 182.5,303.5 182.5,304.5 182.5,304.5 182.5,304.5 182.5,304.5 
		182.5,304.5 182.5,304.5 182.5,304.5 182.5,304.5 182.5,304.5 182.5,305.5 182.5,305.5 182.5,305.5 183.5,305.5 183.5,305.5 
		183.5,305.5 183.5,305.5 183.5,305.5 183.5,305.5 183.5,306.5 183.5,306.5 183.5,306.5 183.5,306.5 183.5,307.5 183.5,307.5 
		183.5,306.5 184.5,306.5 184.5,306.5 184.5,305.5 184.5,305.5 184.5,305.5 184.5,305.5 184.5,305.5 184.5,305.5 184.5,305.5 
		184.5,305.5 184.5,305.5 184.5,305.5 184.5,304.5 185.5,304.5 185.5,304.5 185.5,304.5 185.5,304.5 185.5,303.5 185.5,303.5 
		185.5,303.5 185.5,303.5 185.5,303.5 185.5,303.5 185.5,303.5 185.5,303.5 185.5,303.5 186.5,303.5 186.5,303.5 186.5,303.5 
		186.5,303.5 186.5,303.5 186.5,303.5 186.5,303.5 186.5,303.5 186.5,302.5 186.5,302.5 186.5,302.5 186.5,302.5 186.5,302.5 
		187.5,302.5 187.5,302.5 187.5,301.5 187.5,301.5 187.5,301.5 187.5,301.5 187.5,301.5 187.5,301.5 187.5,301.5 187.5,301.5 
		187.5,301.5 187.5,301.5 187.5,301.5 188.5,301.5 188.5,301.5 188.5,301.5 188.5,301.5 188.5,301.5 188.5,301.5 188.5,301.5 
		188.5,301.5 188.5,301.5 188.5,301.5 188.5,301.5 188.5,301.5 188.5,301.5 189.5,301.5 189.5,301.5 189.5,301.5 189.5,300.5 
		189.5,300.5 189.5,300.5 189.5,300.5 189.5,300.5 189.5,300.5 189.5,300.5 189.5,300.5 189.5,300.5 189.5,300.5 190.5,300.5 
		190.5,300.5 190.5,299.5 190.5,299.5 190.5,298.5 190.5,298.5 190.5,298.5 190.5,298.5 190.5,298.5 190.5,297.5 190.5,297.5 
		190.5,297.5 190.5,297.5 191.5,297.5 191.5,297.5 191.5,297.5 191.5,296.5 191.5,296.5 191.5,296.5 191.5,296.5 191.5,296.5 
		191.5,296.5 191.5,296.5 191.5,295.5 191.5,295.5 191.5,295.5 192.5,295.5 192.5,295.5 192.5,295.5 192.5,295.5 192.5,295.5 
		192.5,295.5 192.5,296.5 192.5,296.5 192.5,296.5 192.5,296.5 192.5,296.5 192.5,296.5 192.5,296.5 193.5,296.5 193.5,296.5 
		193.5,296.5 193.5,296.5 193.5,296.5 193.5,295.5 193.5,295.5 193.5,295.5 193.5,295.5 193.5,295.5 193.5,295.5 193.5,296.5 
		193.5,296.5 194.5,296.5 194.5,295.5 194.5,295.5 194.5,295.5 194.5,295.5 194.5,295.5 194.5,294.5 194.5,294.5 194.5,294.5 
		194.5,294.5 194.5,294.5 194.5,293.5 194.5,293.5 195.5,293.5 195.5,293.5 195.5,292.5 195.5,292.5 195.5,292.5 195.5,292.5 
		195.5,292.5 195.5,292.5 195.5,292.5 195.5,292.5 195.5,292.5 195.5,292.5 195.5,292.5 196.5,292.5 196.5,291.5 196.5,291.5 
		196.5,291.5 196.5,291.5 196.5,290.5 196.5,290.5 196.5,290.5 196.5,291.5 196.5,291.5 196.5,291.5 196.5,291.5 196.5,292.5 
		197.5,292.5 197.5,292.5 197.5,293.5 197.5,293.5 197.5,294.5 197.5,294.5 197.5,295.5 197.5,295.5 197.5,295.5 197.5,295.5 
		197.5,296.5 197.5,296.5 197.5,296.5 198.5,296.5 198.5,297.5 198.5,297.5 198.5,297.5 198.5,297.5 198.5,297.5 198.5,297.5 
		198.5,297.5 198.5,298.5 198.5,298.5 198.5,298.5 198.5,298.5 198.5,299.5 199.5,299.5 199.5,299.5 199.5,299.5 199.5,300.5 
		199.5,300.5 199.5,300.5 199.5,300.5 199.5,300.5 199.5,300.5 199.5,300.5 199.5,300.5 199.5,300.5 199.5,300.5 200.5,300.5 
		200.5,300.5 200.5,301.5 200.5,301.5 200.5,301.5 200.5,301.5 200.5,301.5 200.5,301.5 200.5,301.5 200.5,301.5 200.5,301.5 
		200.5,301.5 200.5,300.5 201.5,300.5 201.5,300.5 201.5,300.5 201.5,300.5 201.5,300.5 201.5,300.5 201.5,300.5 201.5,300.5 
		201.5,300.5 201.5,301.5 201.5,301.5 201.5,301.5 201.5,301.5 202.5,302.5 202.5,303.5 202.5,303.5 202.5,304.5 202.5,304.5 
		202.5,304.5 202.5,304.5 202.5,304.5 202.5,304.5 202.5,304.5 202.5,304.5 202.5,304.5 202.5,304.5 203.5,304.5 203.5,303.5 
		203.5,303.5 203.5,302.5 203.5,302.5 203.5,301.5 203.5,301.5 203.5,300.5 203.5,300.5 203.5,300.5 203.5,299.5 203.5,299.5 
		203.5,299.5 204.5,299.5 204.5,299.5 204.5,299.5 204.5,299.5 204.5,300.5 204.5,300.5 204.5,300.5 204.5,300.5 204.5,300.5 
		204.5,300.5 204.5,300.5 204.5,301.5 204.5,302.5 205.5,302.5 205.5,303.5 205.5,303.5 205.5,303.5 205.5,303.5 205.5,303.5 
		205.5,303.5 205.5,303.5 205.5,303.5 205.5,303.5 205.5,303.5 205.5,303.5 205.5,303.5 206.5,303.5 206.5,303.5 206.5,302.5 
		206.5,302.5 206.5,302.5 206.5,302.5 206.5,302.5 206.5,302.5 206.5,302.5 206.5,301.5 206.5,301.5 206.5,301.5 206.5,301.5 
		207.5,300.5 207.5,300.5 207.5,300.5 207.5,300.5 207.5,299.5 207.5,299.5 207.5,299.5 207.5,298.5 207.5,298.5 207.5,297.5 
		207.5,297.5 207.5,296.5 207.5,295.5 208.5,295.5 208.5,294.5 208.5,293.5 208.5,293.5 208.5,293.5 208.5,293.5 208.5,292.5 
		208.5,292.5 208.5,292.5 208.5,292.5 208.5,292.5 208.5,292.5 208.5,291.5 209.5,291.5 209.5,290.5 209.5,289.5 209.5,289.5 
		209.5,288.5 209.5,287.5 209.5,287.5 209.5,286.5 209.5,285.5 209.5,285.5 209.5,285.5 209.5,284.5 209.5,284.5 210.5,284.5 
		210.5,284.5 210.5,284.5 210.5,284.5 210.5,284.5 210.5,284.5 210.5,284.5 210.5,284.5 210.5,285.5 210.5,285.5 210.5,285.5 
		210.5,284.5 210.5,284.5 211.5,283.5 211.5,283.5 211.5,283.5 211.5,283.5 211.5,283.5 211.5,283.5 211.5,283.5 211.5,282.5 
		211.5,282.5 211.5,282.5 211.5,281.5 211.5,282.5 211.5,282.5 212.5,283.5 212.5,283.5 212.5,283.5 212.5,284.5 212.5,284.5 
		212.5,284.5 212.5,283.5 212.5,283.5 212.5,283.5 212.5,284.5 212.5,284.5 212.5,283.5 212.5,283.5 213.5,282.5 213.5,282.5 
		213.5,281.5 213.5,280.5 213.5,279.5 213.5,279.5 213.5,278.5 213.5,277.5 213.5,276.5 213.5,275.5 213.5,275.5 213.5,274.5 
		213.5,274.5 214.5,274.5 214.5,273.5 214.5,273.5 214.5,273.5 214.5,273.5 214.5,272.5 214.5,272.5 214.5,271.5 214.5,271.5 
		214.5,270.5 214.5,270.5 214.5,269.5 214.5,268.5 215.5,266.5 215.5,265.5 215.5,264.5 215.5,263.5 215.5,262.5 215.5,261.5 
		215.5,260.5 215.5,259.5 215.5,259.5 215.5,259.5 215.5,259.5 215.5,259.5 215.5,257.5 216.5,255.5 216.5,254.5 216.5,254.5 
		216.5,254.5 216.5,254.5 216.5,254.5 216.5,255.5 216.5,254.5 216.5,254.5 216.5,254.5 216.5,254.5 216.5,253.5 216.5,253.5 
		217.5,253.5 217.5,253.5 217.5,252.5 217.5,251.5 217.5,250.5 217.5,249.5 217.5,249.5 217.5,248.5 217.5,248.5 217.5,247.5 
		217.5,246.5 217.5,245.5 217.5,244.5 218.5,244.5 218.5,243.5 218.5,243.5 218.5,242.5 218.5,242.5 218.5,242.5 218.5,241.5 
		218.5,241.5 218.5,240.5 218.5,240.5 218.5,239.5 218.5,238.5 218.5,237.5 219.5,237.5 219.5,236.5 219.5,235.5 219.5,234.5 
		219.5,233.5 219.5,232.5 219.5,231.5 219.5,229.5 219.5,228.5 219.5,227.5 219.5,226.5 219.5,225.5 219.5,225.5 220.5,224.5 
		220.5,223.5 220.5,223.5 220.5,222.5 220.5,221.5 220.5,220.5 220.5,220.5 220.5,219.5 220.5,218.5 220.5,217.5 220.5,216.5 
		220.5,216.5 220.5,215.5 221.5,214.5 221.5,213.5 221.5,212.5 221.5,211.5 221.5,210.5 221.5,209.5 221.5,208.5 221.5,207.5 
		221.5,206.5 221.5,205.5 221.5,204.5 221.5,203.5 221.5,202.5 222.5,201.5 222.5,200.5 222.5,199.5 222.5,198.5 222.5,198.5 
		222.5,198.5 222.5,198.5 222.5,198.5 222.5,198.5 222.5,197.5 222.5,197.5 222.5,197.5 222.5,197.5 223.5,197.5 223.5,197.5 
		223.5,197.5 223.5,197.5 223.5,197.5 223.5,197.5 223.5,196.5 223.5,196.5 223.5,196.5 223.5,196.5 223.5,196.5 223.5,196.5 
		223.5,196.5 224.5,196.5 224.5,196.5 224.5,196.5 224.5,196.5 224.5,196.5 224.5,196.5 224.5,197.5 224.5,199.5 224.5,201.5 
		224.5,203.5 224.5,204.5 224.5,206.5 224.5,207.5 225.5,208.5 225.5,209.5 225.5,209.5 225.5,210.5 225.5,210.5 225.5,211.5 
		225.5,211.5 225.5,211.5 225.5,211.5 225.5,212.5 225.5,212.5 225.5,213.5 225.5,214.5 226.5,214.5 226.5,214.5 226.5,215.5 
		226.5,215.5 226.5,216.5 226.5,216.5 226.5,217.5 226.5,217.5 226.5,219.5 226.5,220.5 226.5,220.5 226.5,220.5 226.5,221.5 
		227.5,221.5 227.5,221.5 227.5,222.5 227.5,222.5 227.5,223.5 227.5,224.5 227.5,225.5 227.5,226.5 227.5,226.5 227.5,228.5 
		227.5,229.5 227.5,230.5 227.5,231.5 228.5,233.5 228.5,234.5 228.5,237.5 228.5,239.5 228.5,240.5 228.5,240.5 228.5,240.5 
		228.5,240.5 228.5,240.5 228.5,240.5 228.5,240.5 228.5,240.5 228.5,240.5 229.5,240.5 229.5,241.5 229.5,241.5 229.5,241.5 
		229.5,241.5 229.5,241.5 229.5,240.5 229.5,240.5 229.5,240.5 229.5,240.5 229.5,239.5 229.5,238.5 229.5,238.5 230.5,236.5 
		230.5,234.5 230.5,230.5 230.5,227.5 230.5,223.5 230.5,222.5 230.5,221.5 230.5,219.5 230.5,217.5 230.5,214.5 230.5,210.5 
		230.5,207.5 230.5,204.5 231.5,202.5 231.5,200.5 231.5,198.5 231.5,197.5 231.5,196.5 231.5,195.5 231.5,194.5 231.5,192.5 
		231.5,192.5 231.5,191.5 231.5,190.5 231.5,189.5 231.5,188.5 232.5,187.5 232.5,186.5 232.5,185.5 232.5,184.5 232.5,183.5 
		232.5,182.5 232.5,180.5 232.5,179.5 232.5,178.5 232.5,176.5 232.5,175.5 232.5,174.5 232.5,173.5 233.5,172.5 233.5,171.5 
		233.5,170.5 233.5,170.5 233.5,169.5 233.5,168.5 233.5,167.5 233.5,167.5 233.5,166.5 233.5,165.5 233.5,165.5 233.5,164.5 
		233.5,163.5 234.5,163.5 234.5,163.5 234.5,162.5 234.5,162.5 234.5,162.5 234.5,162.5 234.5,162.5 234.5,162.5 234.5,162.5 
		234.5,161.5 234.5,161.5 234.5,160.5 234.5,160.5 235.5,159.5 235.5,158.5 235.5,158.5 235.5,157.5 235.5,157.5 235.5,157.5 
		235.5,156.5 235.5,156.5 235.5,156.5 235.5,156.5 235.5,156.5 235.5,156.5 235.5,156.5 236.5,156.5 236.5,156.5 236.5,156.5 
		236.5,157.5 236.5,157.5 236.5,157.5 236.5,158.5 236.5,158.5 236.5,158.5 236.5,159.5 236.5,159.5 236.5,159.5 236.5,160.5 
		237.5,160.5 237.5,160.5 237.5,161.5 237.5,161.5 237.5,161.5 237.5,162.5 237.5,162.5 237.5,162.5 237.5,163.5 237.5,163.5 
		237.5,164.5 237.5,164.5 237.5,165.5 238.5,166.5 238.5,166.5 238.5,167.5 238.5,168.5 238.5,169.5 238.5,170.5 238.5,171.5 
		238.5,173.5 238.5,174.5 238.5,174.5 238.5,175.5 238.5,175.5 238.5,176.5 239.5,177.5 239.5,178.5 239.5,178.5 239.5,179.5 
		239.5,180.5 239.5,180.5 239.5,181.5 239.5,182.5 239.5,183.5 239.5,183.5 239.5,184.5 239.5,185.5 239.5,186.5 240.5,186.5 
		240.5,187.5 240.5,188.5 240.5,188.5 240.5,188.5 240.5,189.5 240.5,189.5 240.5,189.5 240.5,190.5 240.5,190.5 240.5,190.5 
		240.5,190.5 240.5,190.5 241.5,191.5 241.5,191.5 241.5,192.5 241.5,192.5 241.5,193.5 241.5,193.5 241.5,193.5 241.5,193.5 
		241.5,192.5 241.5,192.5 241.5,192.5 241.5,192.5 241.5,192.5 242.5,192.5 242.5,191.5 242.5,191.5 242.5,191.5 242.5,191.5 
		242.5,191.5 242.5,191.5 242.5,190.5 242.5,190.5 242.5,190.5 242.5,190.5 242.5,190.5 242.5,189.5 243.5,189.5 243.5,189.5 
		243.5,189.5 243.5,189.5 243.5,189.5 243.5,190.5 243.5,190.5 243.5,190.5 243.5,190.5 243.5,191.5 243.5,191.5 243.5,192.5 
		243.5,192.5 244.5,193.5 244.5,193.5 244.5,194.5 244.5,195.5 244.5,196.5 244.5,197.5 244.5,198.5 244.5,198.5 244.5,199.5 
		244.5,199.5 244.5,200.5 244.5,201.5 244.5,201.5 245.5,202.5 245.5,202.5 245.5,203.5 245.5,203.5 245.5,203.5 245.5,204.5 
		245.5,204.5 245.5,204.5 245.5,204.5 245.5,204.5 245.5,204.5 245.5,205.5 245.5,205.5 246.5,205.5 246.5,206.5 246.5,206.5 
		246.5,206.5 246.5,206.5 246.5,206.5 246.5,207.5 246.5,207.5 246.5,207.5 246.5,208.5 246.5,208.5 246.5,208.5 246.5,209.5 
		247.5,209.5 247.5,209.5 247.5,210.5 247.5,210.5 247.5,210.5 247.5,211.5 247.5,211.5 247.5,211.5 247.5,212.5 247.5,212.5 
		247.5,212.5 247.5,212.5 247.5,212.5 248.5,212.5 248.5,212.5 248.5,212.5 248.5,211.5 248.5,211.5 248.5,210.5 248.5,209.5 
		248.5,209.5 248.5,208.5 248.5,207.5 248.5,206.5 248.5,206.5 248.5,205.5 249.5,204.5 249.5,204.5 249.5,203.5 249.5,202.5 
		249.5,202.5 249.5,201.5 249.5,201.5 249.5,200.5 249.5,199.5 249.5,199.5 249.5,199.5 249.5,199.5 249.5,199.5 250.5,198.5 
		250.5,198.5 250.5,198.5 250.5,198.5 250.5,198.5 250.5,199.5 250.5,199.5 250.5,199.5 250.5,199.5 250.5,199.5 250.5,199.5 
		250.5,200.5 250.5,200.5 251.5,200.5 251.5,201.5 251.5,201.5 251.5,201.5 251.5,200.5 251.5,199.5 251.5,199.5 251.5,197.5 
		251.5,196.5 251.5,195.5 251.5,194.5 251.5,193.5 251.5,192.5 252.5,190.5 252.5,189.5 252.5,187.5 252.5,187.5 252.5,186.5 
		252.5,184.5 252.5,183.5 252.5,182.5 252.5,180.5 252.5,179.5 252.5,178.5 252.5,176.5 252.5,174.5 253.5,173.5 253.5,171.5 
		253.5,170.5 253.5,169.5 253.5,168.5 253.5,166.5 253.5,165.5 253.5,164.5 253.5,164.5 253.5,163.5 253.5,162.5 253.5,162.5 
		253.5,161.5 254.5,161.5 254.5,161.5 254.5,161.5 254.5,160.5 254.5,160.5 254.5,160.5 254.5,160.5 254.5,160.5 254.5,159.5 
		254.5,159.5 254.5,159.5 254.5,159.5 254.5,159.5 255.5,158.5 255.5,157.5 255.5,157.5 255.5,156.5 255.5,156.5 255.5,155.5 
		255.5,154.5 255.5,153.5 255.5,153.5 255.5,152.5 255.5,151.5 255.5,151.5 255.5,151.5 256.5,150.5 256.5,150.5 256.5,150.5 
		256.5,150.5 256.5,150.5 256.5,150.5 256.5,149.5 256.5,150.5 256.5,150.5 256.5,150.5 256.5,150.5 256.5,150.5 256.5,150.5 
		257.5,149.5 257.5,149.5 257.5,149.5 257.5,149.5 257.5,149.5 257.5,149.5 257.5,149.5 257.5,149.5 257.5,150.5 257.5,150.5 
		257.5,150.5 257.5,150.5 257.5,151.5 258.5,151.5 258.5,152.5 258.5,152.5 258.5,152.5 258.5,153.5 258.5,153.5 258.5,154.5 
		258.5,155.5 258.5,155.5 258.5,155.5 258.5,156.5 258.5,157.5 258.5,157.5 259.5,157.5 259.5,158.5 259.5,158.5 259.5,158.5 
		259.5,157.5 259.5,157.5 259.5,156.5 259.5,156.5 259.5,155.5 259.5,155.5 259.5,154.5 259.5,154.5 259.5,154.5 260.5,153.5 
		260.5,153.5 260.5,153.5 260.5,153.5 260.5,152.5 260.5,152.5 260.5,152.5 260.5,151.5 260.5,151.5 260.5,150.5 260.5,150.5 
		260.5,149.5 260.5,149.5 261.5,148.5 261.5,148.5 261.5,148.5 261.5,148.5 261.5,148.5 261.5,148.5 261.5,148.5 261.5,148.5 
		261.5,149.5 261.5,149.5 261.5,149.5 261.5,149.5 261.5,149.5 262.5,149.5 262.5,149.5 262.5,149.5 262.5,149.5 262.5,149.5 
		262.5,148.5 262.5,148.5 262.5,148.5 262.5,148.5 262.5,148.5 262.5,147.5 262.5,147.5 262.5,147.5 263.5,147.5 263.5,147.5 
		263.5,147.5 263.5,147.5 263.5,147.5 263.5,147.5 263.5,147.5 263.5,147.5 263.5,147.5 263.5,147.5 263.5,147.5 263.5,147.5 
		263.5,147.5 264.5,147.5 264.5,147.5 264.5,147.5 264.5,147.5 264.5,147.5 264.5,147.5 264.5,147.5 264.5,147.5 264.5,147.5 
		264.5,148.5 264.5,148.5 264.5,148.5 264.5,148.5 265.5,148.5 265.5,148.5 265.5,148.5 265.5,148.5 265.5,148.5 265.5,148.5 
		265.5,148.5 265.5,148.5 265.5,149.5 265.5,149.5 265.5,149.5 265.5,149.5 265.5,149.5 266.5,149.5 266.5,149.5 266.5,149.5 
		266.5,149.5 266.5,149.5 266.5,149.5 266.5,149.5 266.5,149.5 266.5,149.5 266.5,149.5 266.5,149.5 266.5,149.5 266.5,149.5 
		267.5,149.5 267.5,149.5 267.5,149.5 267.5,149.5 267.5,149.5 267.5,149.5 267.5,149.5 267.5,150.5 267.5,150.5 267.5,150.5 
		267.5,150.5 267.5,150.5 267.5,150.5 268.5,150.5 268.5,150.5 268.5,149.5 268.5,149.5 268.5,149.5 268.5,149.5 268.5,149.5 
		268.5,150.5 268.5,150.5 268.5,150.5 268.5,150.5 268.5,150.5 268.5,150.5 269.5,150.5 269.5,150.5 269.5,150.5 269.5,150.5 
		269.5,151.5 269.5,151.5 269.5,151.5 269.5,151.5 269.5,152.5 269.5,152.5 269.5,152.5 269.5,153.5 269.5,153.5 270.5,153.5 
		270.5,153.5 270.5,153.5 270.5,153.5 270.5,153.5 270.5,153.5 270.5,154.5 270.5,154.5 270.5,154.5 270.5,154.5 270.5,154.5 
		270.5,154.5 270.5,154.5 271.5,154.5 271.5,154.5 271.5,154.5 271.5,154.5 271.5,154.5 271.5,154.5 271.5,154.5 271.5,154.5 
		271.5,153.5 271.5,153.5 271.5,153.5 271.5,153.5 271.5,154.5 272.5,154.5 272.5,154.5 272.5,154.5 272.5,154.5 272.5,154.5 
		272.5,154.5 272.5,154.5 272.5,155.5 272.5,155.5 272.5,155.5 272.5,155.5 272.5,155.5 272.5,156.5 273.5,156.5 273.5,156.5 
		273.5,156.5 273.5,156.5 273.5,157.5 273.5,157.5 273.5,157.5 273.5,157.5 273.5,157.5 273.5,157.5 273.5,156.5 273.5,156.5 
		273.5,156.5 274.5,156.5 274.5,156.5 274.5,155.5 274.5,155.5 274.5,155.5 274.5,155.5 274.5,154.5 274.5,154.5 274.5,154.5 
		274.5,153.5 274.5,153.5 274.5,153.5 274.5,153.5 275.5,153.5 275.5,152.5 275.5,152.5 275.5,152.5 275.5,151.5 275.5,151.5 
		275.5,151.5 275.5,151.5 275.5,151.5 275.5,151.5 275.5,150.5 275.5,150.5 275.5,150.5 276.5,150.5 276.5,150.5 276.5,150.5 
		276.5,150.5 276.5,151.5 276.5,151.5 276.5,151.5 276.5,151.5 276.5,151.5 276.5,151.5 276.5,151.5 276.5,151.5 276.5,151.5 
		277.5,151.5 277.5,151.5 277.5,151.5 277.5,151.5 277.5,151.5 277.5,152.5 277.5,152.5 277.5,152.5 277.5,152.5 277.5,152.5 
		277.5,152.5 277.5,152.5 277.5,152.5 278.5,152.5 278.5,152.5 278.5,152.5 278.5,152.5 278.5,152.5 278.5,152.5 278.5,152.5 
		278.5,152.5 278.5,152.5 278.5,152.5 278.5,152.5 278.5,152.5 278.5,152.5 279.5,151.5 279.5,151.5 279.5,151.5 279.5,151.5 
		279.5,151.5 279.5,151.5 279.5,151.5 279.5,151.5 279.5,151.5 279.5,152.5 279.5,152.5 279.5,152.5 279.5,152.5 280.5,152.5 
		280.5,152.5 280.5,153.5 280.5,153.5 280.5,153.5 280.5,154.5 280.5,154.5 280.5,155.5 280.5,155.5 280.5,155.5 280.5,156.5 
		280.5,156.5 280.5,156.5 281.5,157.5 281.5,157.5 281.5,158.5 281.5,158.5 281.5,159.5 281.5,159.5 281.5,159.5 281.5,159.5 
		281.5,159.5 281.5,160.5 281.5,160.5 281.5,160.5 281.5,160.5 282.5,160.5 282.5,160.5 282.5,161.5 282.5,161.5 282.5,161.5 
		282.5,161.5 282.5,161.5 282.5,161.5 282.5,161.5 282.5,161.5 282.5,160.5 282.5,160.5 282.5,160.5 283.5,160.5 283.5,160.5 
		283.5,160.5 283.5,160.5 283.5,160.5 283.5,160.5 283.5,160.5 283.5,160.5 283.5,160.5 283.5,160.5 283.5,160.5 283.5,160.5 
		283.5,160.5 284.5,160.5 284.5,160.5 284.5,160.5 284.5,160.5 284.5,160.5 284.5,159.5 284.5,159.5 284.5,159.5 284.5,159.5 
		284.5,159.5 284.5,160.5 284.5,160.5 284.5,160.5 285.5,159.5 285.5,159.5 285.5,159.5 285.5,159.5 285.5,160.5 285.5,160.5 
		285.5,160.5 285.5,160.5 285.5,160.5 285.5,160.5 285.5,161.5 285.5,160.5 285.5,160.5 286.5,161.5 286.5,161.5 286.5,161.5 
		286.5,161.5 286.5,161.5 286.5,162.5 286.5,162.5 286.5,162.5 286.5,162.5 286.5,162.5 286.5,162.5 286.5,162.5 286.5,163.5 
		287.5,163.5 287.5,163.5 287.5,163.5 287.5,164.5 287.5,164.5 287.5,164.5 287.5,164.5 287.5,164.5 287.5,164.5 287.5,164.5 
		287.5,164.5 287.5,164.5 287.5,164.5 288.5,164.5 288.5,164.5 288.5,164.5 288.5,164.5 288.5,163.5 288.5,163.5 288.5,163.5 
		288.5,163.5 288.5,162.5 288.5,162.5 288.5,162.5 288.5,162.5 288.5,161.5 289.5,161.5 289.5,161.5 289.5,161.5 289.5,161.5 
		289.5,160.5 289.5,160.5 289.5,160.5 289.5,159.5 289.5,159.5 289.5,158.5 289.5,158.5 289.5,158.5 289.5,158.5 290.5,158.5 
		290.5,158.5 290.5,158.5 290.5,158.5 290.5,158.5 290.5,158.5 290.5,158.5 290.5,158.5 290.5,158.5 290.5,158.5 290.5,158.5 
		290.5,158.5 290.5,158.5 291.5,158.5 291.5,158.5 291.5,158.5 291.5,158.5 291.5,159.5 291.5,159.5 291.5,159.5 291.5,159.5 
		291.5,160.5 291.5,160.5 291.5,160.5 291.5,160.5 291.5,160.5 292.5,160.5 292.5,160.5 292.5,161.5 292.5,161.5 292.5,161.5 
		292.5,161.5 292.5,161.5 292.5,161.5 292.5,161.5 292.5,161.5 292.5,161.5 292.5,162.5 292.5,162.5 293.5,162.5 293.5,162.5 
		293.5,161.5 293.5,161.5 293.5,161.5 293.5,161.5 293.5,161.5 293.5,161.5 293.5,161.5 293.5,162.5 293.5,162.5 293.5,162.5 
		293.5,163.5 294.5,163.5 294.5,163.5 294.5,164.5 294.5,164.5 294.5,164.5 294.5,165.5 294.5,165.5 294.5,165.5 294.5,166.5 
		294.5,166.5 294.5,167.5 294.5,167.5 294.5,167.5 295.5,168.5 295.5,168.5 295.5,169.5 295.5,169.5 295.5,170.5 295.5,170.5 
		295.5,171.5 295.5,171.5 295.5,172.5 295.5,172.5 295.5,173.5 295.5,173.5 295.5,174.5 296.5,175.5 296.5,176.5 296.5,177.5 
		296.5,178.5 296.5,179.5 296.5,180.5 296.5,181.5 296.5,182.5 296.5,183.5 296.5,183.5 296.5,184.5 296.5,185.5 296.5,186.5 
		297.5,186.5 297.5,187.5 297.5,187.5 297.5,187.5 297.5,187.5 297.5,187.5 297.5,187.5 297.5,187.5 297.5,187.5 297.5,186.5 
		297.5,186.5 297.5,186.5 297.5,186.5 298.5,186.5 298.5,187.5 298.5,188.5 298.5,189.5 298.5,190.5 298.5,190.5 298.5,191.5 
		298.5,191.5 298.5,192.5 298.5,192.5 298.5,192.5 298.5,193.5 298.5,193.5 299.5,194.5 299.5,194.5 299.5,194.5 299.5,195.5 
		299.5,195.5 299.5,195.5 299.5,196.5 299.5,196.5 299.5,196.5 299.5,197.5 299.5,197.5 299.5,197.5 299.5,197.5 300.5,198.5 
		300.5,198.5 300.5,198.5 300.5,199.5 300.5,199.5 300.5,199.5 300.5,200.5 300.5,200.5 300.5,201.5 300.5,201.5 300.5,202.5 
		300.5,202.5 300.5,203.5 301.5,204.5 301.5,204.5 301.5,205.5 301.5,206.5 301.5,207.5 301.5,207.5 301.5,208.5 301.5,209.5 
		301.5,210.5 301.5,211.5 301.5,212.5 301.5,213.5 301.5,214.5 302.5,215.5 302.5,216.5 302.5,216.5 302.5,217.5 302.5,218.5 
		302.5,217.5 302.5,217.5 302.5,217.5 302.5,217.5 302.5,218.5 302.5,218.5 302.5,218.5 302.5,219.5 303.5,219.5 303.5,220.5 
		303.5,221.5 303.5,221.5 303.5,220.5 303.5,219.5 303.5,218.5 303.5,218.5 303.5,217.5 303.5,217.5 303.5,216.5 303.5,216.5 
		303.5,216.5 304.5,216.5 304.5,216.5 304.5,216.5 304.5,215.5 304.5,215.5 304.5,215.5 304.5,214.5 304.5,214.5 304.5,213.5 
		304.5,212.5 304.5,211.5 304.5,212.5 304.5,213.5 305.5,213.5 305.5,214.5 305.5,215.5 305.5,215.5 305.5,216.5 305.5,216.5 
		305.5,216.5 305.5,216.5 305.5,217.5 305.5,217.5 305.5,216.5 305.5,216.5 305.5,216.5 306.5,216.5 306.5,217.5 306.5,217.5 
		306.5,218.5 306.5,218.5 306.5,219.5 306.5,219.5 306.5,219.5 306.5,219.5 306.5,220.5 306.5,220.5 306.5,220.5 306.5,220.5 
		307.5,220.5 307.5,220.5 307.5,220.5 307.5,220.5 307.5,220.5 307.5,220.5 307.5,220.5 307.5,220.5 307.5,220.5 307.5,220.5 
		307.5,220.5 307.5,220.5 307.5,221.5 308.5,221.5 308.5,221.5 308.5,221.5 308.5,221.5 308.5,221.5 308.5,221.5 308.5,222.5 
		308.5,222.5 308.5,222.5 308.5,222.5 308.5,222.5 308.5,222.5 308.5,222.5 309.5,222.5 309.5,222.5 309.5,222.5 309.5,223.5 
		309.5,223.5 309.5,223.5 309.5,223.5 309.5,223.5 309.5,223.5 309.5,223.5 309.5,223.5 309.5,223.5 309.5,223.5 310.5,223.5 
		310.5,223.5 310.5,223.5 310.5,223.5 310.5,223.5 310.5,223.5 310.5,223.5 310.5,223.5 310.5,223.5 310.5,224.5 310.5,224.5 
		310.5,224.5 310.5,224.5 311.5,224.5 311.5,225.5 311.5,225.5 311.5,225.5 311.5,226.5 311.5,226.5 311.5,227.5 311.5,227.5 
		311.5,228.5 311.5,228.5 311.5,229.5 311.5,230.5 311.5,230.5 312.5,231.5 312.5,231.5 312.5,232.5 312.5,233.5 312.5,233.5 
		312.5,233.5 312.5,234.5 312.5,234.5 312.5,234.5 312.5,235.5 312.5,235.5 312.5,237.5 312.5,238.5 313.5,239.5 313.5,240.5 
		313.5,241.5 313.5,242.5 313.5,243.5 313.5,244.5 313.5,245.5 313.5,246.5 313.5,247.5 313.5,247.5 313.5,248.5 313.5,249.5 
		313.5,250.5 314.5,250.5 314.5,250.5 314.5,250.5 314.5,250.5 314.5,250.5 314.5,250.5 314.5,249.5 314.5,249.5 314.5,249.5 
		314.5,248.5 314.5,248.5 314.5,248.5 314.5,248.5 315.5,247.5 315.5,247.5 315.5,247.5 315.5,247.5 315.5,246.5 315.5,246.5 
		315.5,247.5 315.5,247.5 315.5,246.5 315.5,246.5 315.5,245.5 315.5,245.5 315.5,245.5 316.5,245.5 316.5,245.5 316.5,245.5 
		316.5,244.5 316.5,244.5 316.5,244.5 316.5,244.5 316.5,243.5 316.5,242.5 316.5,241.5 316.5,240.5 316.5,239.5 316.5,237.5 
		317.5,236.5 317.5,235.5 317.5,235.5 317.5,234.5 317.5,234.5 317.5,234.5 317.5,233.5 317.5,233.5 317.5,232.5 317.5,231.5 
		317.5,231.5 317.5,230.5 317.5,230.5 318.5,229.5 318.5,229.5 318.5,228.5 318.5,228.5 318.5,227.5 318.5,227.5 318.5,227.5 
		318.5,227.5 318.5,227.5 318.5,227.5 318.5,228.5 318.5,228.5 318.5,228.5 319.5,229.5 319.5,230.5 319.5,230.5 319.5,230.5 
		319.5,230.5 319.5,230.5 319.5,230.5 319.5,230.5 319.5,230.5 319.5,230.5 319.5,230.5 319.5,230.5 319.5,230.5 320.5,230.5 
		320.5,230.5 320.5,230.5 320.5,230.5 320.5,230.5 320.5,230.5 320.5,230.5 320.5,230.5 320.5,230.5 320.5,230.5 320.5,230.5 
		320.5,230.5 320.5,229.5 321.5,229.5 321.5,229.5 321.5,229.5 321.5,229.5 321.5,229.5 321.5,229.5 321.5,229.5 321.5,229.5 
		321.5,229.5 321.5,229.5 321.5,229.5 321.5,229.5 321.5,229.5 322.5,229.5 322.5,229.5 322.5,229.5 322.5,229.5 322.5,229.5 
		322.5,229.5 322.5,229.5 322.5,230.5 322.5,230.5 322.5,230.5 322.5,230.5 322.5,230.5 322.5,230.5 323.5,230.5 323.5,229.5 
		323.5,229.5 323.5,229.5 323.5,229.5 323.5,229.5 323.5,229.5 323.5,229.5 323.5,229.5 323.5,229.5 323.5,229.5 323.5,229.5 
		323.5,229.5 324.5,228.5 324.5,228.5 324.5,228.5 324.5,228.5 324.5,228.5 324.5,228.5 324.5,228.5 324.5,228.5 324.5,227.5 
		324.5,227.5 324.5,227.5 324.5,227.5 324.5,227.5 325.5,227.5 325.5,227.5 325.5,227.5 325.5,226.5 325.5,226.5 325.5,226.5 
		325.5,225.5 325.5,225.5 325.5,225.5 325.5,225.5 325.5,225.5 325.5,224.5 325.5,224.5 326.5,224.5 326.5,224.5 326.5,224.5 
		326.5,224.5 326.5,224.5 326.5,223.5 326.5,223.5 326.5,223.5 326.5,223.5 326.5,223.5 326.5,223.5 326.5,224.5 326.5,224.5 
		327.5,224.5 327.5,223.5 327.5,223.5 327.5,223.5 327.5,223.5 327.5,223.5 327.5,222.5 327.5,222.5 327.5,222.5 327.5,221.5 
		327.5,221.5 327.5,221.5 327.5,220.5 328.5,220.5 328.5,219.5 328.5,219.5 328.5,218.5 328.5,217.5 328.5,217.5 328.5,216.5 
		328.5,216.5 328.5,215.5 328.5,215.5 328.5,215.5 328.5,214.5 328.5,214.5 329.5,213.5 329.5,213.5 329.5,212.5 329.5,212.5 
		329.5,211.5 329.5,210.5 329.5,210.5 329.5,209.5 329.5,209.5 329.5,209.5 329.5,209.5 329.5,209.5 329.5,208.5 330.5,208.5 
		330.5,208.5 330.5,208.5 330.5,208.5 330.5,208.5 330.5,208.5 330.5,208.5 330.5,208.5 330.5,207.5 330.5,207.5 330.5,207.5 
		330.5,207.5 330.5,207.5 331.5,207.5 331.5,207.5 331.5,207.5 331.5,207.5 331.5,207.5 331.5,207.5 331.5,207.5 331.5,207.5 
		331.5,207.5 331.5,207.5 331.5,207.5 331.5,207.5 331.5,207.5 332.5,207.5 332.5,207.5 332.5,206.5 332.5,206.5 332.5,206.5 
		332.5,206.5 332.5,206.5 332.5,206.5 332.5,206.5 332.5,206.5 332.5,206.5 332.5,206.5 332.5,206.5 333.5,206.5 333.5,206.5 
		333.5,207.5 333.5,207.5 333.5,207.5 333.5,207.5 333.5,207.5 333.5,207.5 333.5,207.5 333.5,207.5 333.5,207.5 333.5,208.5 
		333.5,208.5 334.5,208.5 334.5,208.5 334.5,208.5 334.5,208.5 334.5,208.5 334.5,208.5 334.5,208.5 334.5,207.5 334.5,207.5 
		334.5,207.5 334.5,207.5 334.5,206.5 334.5,206.5 335.5,206.5 335.5,205.5 335.5,205.5 335.5,205.5 335.5,205.5 335.5,204.5 
		335.5,204.5 335.5,204.5 335.5,203.5 335.5,203.5 335.5,202.5 335.5,202.5 335.5,202.5 336.5,201.5 336.5,201.5 336.5,201.5 
		336.5,200.5 336.5,200.5 336.5,200.5 336.5,199.5 336.5,199.5 336.5,199.5 336.5,198.5 336.5,198.5 336.5,198.5 336.5,198.5 
		337.5,197.5 337.5,197.5 337.5,197.5 337.5,197.5 337.5,196.5 337.5,196.5 337.5,195.5 337.5,195.5 337.5,194.5 337.5,194.5 
		337.5,193.5 337.5,193.5 337.5,192.5 338.5,192.5 338.5,191.5 338.5,190.5 338.5,190.5 338.5,189.5 338.5,188.5 338.5,188.5 
		338.5,187.5 338.5,186.5 338.5,185.5 338.5,184.5 338.5,184.5 338.5,183.5 339.5,182.5 339.5,181.5 339.5,180.5 339.5,180.5 
		339.5,179.5 339.5,179.5 339.5,178.5 339.5,178.5 339.5,177.5 339.5,177.5 339.5,177.5 339.5,176.5 339.5,176.5 340.5,176.5 
		340.5,177.5 340.5,177.5 340.5,177.5 340.5,178.5 340.5,178.5 340.5,178.5 340.5,178.5 340.5,178.5 340.5,178.5 340.5,178.5 
		340.5,178.5 340.5,178.5 341.5,178.5 341.5,178.5 341.5,178.5 341.5,178.5 341.5,178.5 341.5,178.5 341.5,178.5 341.5,178.5 
		341.5,177.5 341.5,177.5 341.5,177.5 341.5,178.5 341.5,178.5 342.5,179.5 342.5,180.5 342.5,181.5 342.5,182.5 342.5,183.5 
		342.5,184.5 342.5,185.5 342.5,187.5 342.5,188.5 342.5,189.5 342.5,190.5 342.5,191.5 342.5,193.5 343.5,194.5 343.5,196.5 
		343.5,197.5 343.5,198.5 343.5,200.5 343.5,202.5 343.5,204.5 343.5,205.5 343.5,207.5 343.5,209.5 343.5,210.5 343.5,212.5 
		343.5,213.5 344.5,215.5 344.5,216.5 344.5,217.5 344.5,218.5 344.5,219.5 344.5,220.5 344.5,220.5 344.5,220.5 344.5,220.5 
		344.5,221.5 344.5,221.5 344.5,220.5 344.5,220.5 345.5,220.5 345.5,220.5 345.5,219.5 345.5,219.5 345.5,218.5 345.5,217.5 
		345.5,217.5 345.5,216.5 345.5,215.5 345.5,214.5 345.5,213.5 345.5,212.5 345.5,211.5 346.5,211.5 346.5,210.5 346.5,209.5 
		346.5,208.5 346.5,207.5 346.5,207.5 346.5,206.5 346.5,205.5 346.5,204.5 346.5,204.5 346.5,203.5 346.5,203.5 346.5,202.5 
		347.5,202.5 347.5,201.5 347.5,201.5 347.5,200.5 347.5,200.5 347.5,200.5 347.5,199.5 347.5,199.5 347.5,199.5 347.5,199.5 
		347.5,199.5 347.5,198.5 347.5,198.5 348.5,198.5 348.5,198.5 348.5,197.5 348.5,197.5 348.5,197.5 348.5,197.5 348.5,197.5 
		348.5,196.5 348.5,196.5 348.5,196.5 348.5,196.5 348.5,196.5 348.5,196.5 349.5,196.5 349.5,196.5 349.5,196.5 349.5,196.5 
		349.5,196.5 349.5,196.5 349.5,196.5 349.5,196.5 349.5,196.5 349.5,196.5 349.5,196.5 349.5,196.5 349.5,196.5 350.5,196.5 
		350.5,196.5 350.5,196.5 350.5,197.5 350.5,197.5 350.5,197.5 350.5,197.5 350.5,197.5 350.5,197.5 350.5,197.5 350.5,196.5 
		350.5,196.5 350.5,196.5 351.5,195.5 351.5,195.5 351.5,194.5 351.5,194.5 351.5,194.5 351.5,193.5 351.5,192.5 351.5,192.5 
		351.5,191.5 351.5,190.5 351.5,190.5 351.5,189.5 351.5,188.5 352.5,188.5 352.5,187.5 352.5,186.5 352.5,185.5 352.5,185.5 
		352.5,184.5 352.5,183.5 352.5,183.5 352.5,182.5 352.5,181.5 352.5,180.5 352.5,179.5 352.5,179.5 353.5,178.5 353.5,177.5 
		353.5,177.5 353.5,176.5 353.5,175.5 353.5,174.5 353.5,174.5 353.5,173.5 353.5,173.5 353.5,173.5 353.5,173.5 353.5,173.5 
		353.5,172.5 354.5,172.5 354.5,172.5 354.5,172.5 354.5,172.5 354.5,172.5 354.5,172.5 354.5,172.5 354.5,172.5 354.5,172.5 
		354.5,172.5 354.5,171.5 354.5,171.5 354.5,171.5 355.5,171.5 355.5,171.5 355.5,171.5 355.5,171.5 355.5,171.5 355.5,171.5 
		355.5,171.5 355.5,171.5 355.5,172.5 355.5,172.5 355.5,173.5 355.5,174.5 355.5,174.5 356.5,175.5 356.5,176.5 356.5,176.5 
		356.5,177.5 356.5,178.5 356.5,179.5 356.5,179.5 356.5,180.5 356.5,181.5 356.5,181.5 356.5,182.5 356.5,182.5 356.5,183.5 
		357.5,183.5 357.5,184.5 357.5,184.5 357.5,185.5 357.5,185.5 357.5,185.5 357.5,185.5 357.5,186.5 357.5,186.5 357.5,186.5 
		357.5,187.5 357.5,187.5 357.5,187.5 358.5,187.5 358.5,188.5 358.5,188.5 358.5,188.5 358.5,188.5 358.5,188.5 358.5,188.5 
		358.5,188.5 358.5,187.5 358.5,187.5 358.5,187.5 358.5,186.5 358.5,186.5 359.5,186.5 359.5,185.5 359.5,185.5 359.5,185.5 
		359.5,185.5 359.5,185.5 359.5,185.5 359.5,185.5 359.5,185.5 359.5,185.5 359.5,185.5 359.5,185.5 359.5,185.5 360.5,185.5 
		360.5,186.5 360.5,186.5 360.5,186.5 360.5,186.5 360.5,186.5 360.5,186.5 360.5,186.5 360.5,186.5 360.5,186.5 360.5,186.5 
		360.5,186.5 360.5,186.5 361.5,186.5 361.5,187.5 361.5,188.5 361.5,188.5 361.5,189.5 361.5,190.5 361.5,191.5 361.5,192.5 
		361.5,193.5 361.5,194.5 361.5,195.5 361.5,196.5 361.5,197.5 362.5,198.5 362.5,198.5 362.5,199.5 362.5,200.5 362.5,201.5 
		362.5,202.5 362.5,202.5 362.5,203.5 362.5,204.5 362.5,204.5 362.5,205.5 362.5,205.5 362.5,206.5 363.5,206.5 363.5,206.5 
		363.5,206.5 363.5,206.5 363.5,206.5 363.5,205.5 363.5,205.5 363.5,205.5 363.5,204.5 363.5,204.5 363.5,203.5 363.5,203.5 
		363.5,202.5 364.5,202.5 364.5,202.5 364.5,202.5 364.5,201.5 364.5,201.5 364.5,201.5 364.5,201.5 364.5,201.5 364.5,200.5 
		364.5,200.5 364.5,200.5 364.5,200.5 364.5,200.5 365.5,200.5 365.5,200.5 365.5,201.5 365.5,201.5 365.5,201.5 365.5,202.5 
		365.5,202.5 365.5,202.5 365.5,202.5 365.5,203.5 365.5,203.5 365.5,204.5 365.5,204.5 366.5,204.5 366.5,205.5 366.5,205.5 
		366.5,206.5 366.5,206.5 366.5,206.5 366.5,207.5 366.5,207.5 366.5,208.5 366.5,208.5 366.5,209.5 366.5,209.5 366.5,210.5 
		367.5,210.5 367.5,211.5 367.5,211.5 367.5,212.5 367.5,213.5 367.5,214.5 367.5,214.5 367.5,213.5 367.5,213.5 367.5,213.5 
		367.5,212.5 367.5,212.5 367.5,211.5 368.5,211.5 368.5,211.5 368.5,211.5 368.5,210.5 368.5,210.5 368.5,210.5 368.5,210.5 
		368.5,210.5 368.5,210.5 368.5,210.5 368.5,210.5 368.5,209.5 368.5,209.5 369.5,209.5 369.5,209.5 369.5,209.5 369.5,209.5 
		369.5,208.5 369.5,208.5 369.5,208.5 369.5,207.5 369.5,207.5 369.5,207.5 369.5,206.5 369.5,206.5 369.5,205.5 370.5,205.5 
		370.5,204.5 370.5,203.5 370.5,203.5 370.5,203.5 370.5,202.5 370.5,202.5 370.5,201.5 370.5,201.5 370.5,200.5 370.5,200.5 
		370.5,200.5 370.5,199.5 371.5,199.5 371.5,198.5 371.5,197.5 371.5,196.5 371.5,195.5 371.5,194.5 371.5,194.5 371.5,193.5 
		371.5,193.5 371.5,192.5 371.5,191.5 371.5,191.5 371.5,191.5 372.5,191.5 372.5,191.5 372.5,191.5 372.5,191.5 372.5,191.5 
		372.5,191.5 372.5,191.5 372.5,191.5 372.5,190.5 372.5,190.5 372.5,190.5 372.5,190.5 372.5,190.5 373.5,190.5 373.5,190.5 
		373.5,189.5 373.5,189.5 373.5,189.5 373.5,189.5 373.5,189.5 373.5,190.5 373.5,190.5 373.5,191.5 373.5,190.5 373.5,190.5 
		373.5,190.5 374.5,190.5 374.5,189.5 374.5,189.5 374.5,188.5 374.5,188.5 374.5,187.5 374.5,187.5 374.5,186.5 374.5,185.5 
		374.5,185.5 374.5,184.5 374.5,184.5 374.5,183.5 375.5,182.5 375.5,181.5 375.5,180.5 375.5,180.5 375.5,179.5 375.5,178.5 
		375.5,177.5 375.5,176.5 375.5,175.5 375.5,174.5 375.5,173.5 375.5,172.5 375.5,171.5 376.5,170.5 376.5,169.5 376.5,168.5 
		376.5,167.5 376.5,166.5 376.5,165.5 376.5,165.5 376.5,164.5 376.5,164.5 376.5,163.5 376.5,163.5 376.5,161.5 376.5,160.5 
		377.5,159.5 377.5,158.5 377.5,158.5 377.5,158.5 377.5,158.5 377.5,157.5 377.5,157.5 377.5,157.5 377.5,157.5 377.5,157.5 
		377.5,157.5 377.5,157.5 377.5,156.5 378.5,156.5 378.5,156.5 378.5,156.5 378.5,156.5 378.5,156.5 378.5,156.5 378.5,156.5 
		378.5,156.5 378.5,156.5 378.5,156.5 378.5,155.5 378.5,155.5 378.5,156.5 379.5,157.5 379.5,159.5 379.5,161.5 379.5,162.5 
		379.5,162.5 379.5,160.5 379.5,160.5 379.5,160.5 379.5,160.5 379.5,160.5 379.5,160.5 379.5,160.5 379.5,160.5 380.5,160.5 
		380.5,159.5 380.5,159.5 380.5,159.5 380.5,159.5 380.5,159.5 380.5,160.5 380.5,160.5 380.5,160.5 380.5,160.5 380.5,160.5 
		380.5,160.5 380.5,160.5 381.5,160.5 381.5,160.5 381.5,160.5 381.5,161.5 381.5,161.5 381.5,161.5 381.5,162.5 381.5,163.5 
		381.5,165.5 381.5,166.5 381.5,167.5 381.5,169.5 381.5,170.5 382.5,171.5 382.5,171.5 382.5,171.5 382.5,171.5 382.5,171.5 
		382.5,171.5 382.5,171.5 382.5,170.5 382.5,170.5 382.5,170.5 382.5,170.5 382.5,170.5 382.5,169.5 383.5,169.5 383.5,169.5 
		383.5,169.5 383.5,169.5 383.5,169.5 383.5,169.5 383.5,169.5 383.5,169.5 383.5,169.5 383.5,169.5 383.5,169.5 383.5,168.5 
		383.5,167.5 384.5,165.5 384.5,164.5 384.5,163.5 384.5,162.5 384.5,161.5 384.5,160.5 384.5,159.5 384.5,158.5 384.5,157.5 
		384.5,157.5 384.5,157.5 384.5,157.5 384.5,156.5 385.5,156.5 385.5,155.5 385.5,153.5 385.5,153.5 385.5,152.5 385.5,152.5 
		385.5,151.5 385.5,151.5 385.5,151.5 385.5,150.5 385.5,150.5 385.5,150.5 385.5,149.5 386.5,149.5 386.5,149.5 386.5,148.5 
		386.5,148.5 386.5,148.5 386.5,148.5 386.5,147.5 386.5,147.5 386.5,146.5 386.5,145.5 386.5,145.5 386.5,144.5 386.5,143.5 
		387.5,142.5 387.5,141.5 387.5,140.5 387.5,139.5 387.5,137.5 387.5,135.5 387.5,133.5 387.5,132.5 387.5,132.5 387.5,131.5 
		387.5,131.5 387.5,130.5 387.5,130.5 388.5,130.5 388.5,131.5 388.5,131.5 388.5,130.5 388.5,130.5 388.5,130.5 388.5,129.5 
		388.5,129.5 388.5,129.5 388.5,128.5 388.5,128.5 388.5,128.5 388.5,128.5 389.5,128.5 389.5,128.5 389.5,128.5 389.5,128.5 
		389.5,127.5 389.5,127.5 389.5,127.5 389.5,127.5 389.5,127.5 389.5,127.5 389.5,126.5 389.5,126.5 389.5,126.5 390.5,126.5 
		390.5,125.5 390.5,125.5 390.5,125.5 390.5,125.5 390.5,125.5 390.5,125.5 390.5,125.5 390.5,125.5 390.5,125.5 390.5,125.5 
		390.5,126.5 390.5,126.5 391.5,126.5 391.5,127.5 391.5,127.5 391.5,127.5 391.5,128.5 391.5,128.5 391.5,128.5 391.5,129.5 
		391.5,129.5 391.5,130.5 391.5,130.5 391.5,131.5 391.5,131.5 392.5,132.5 392.5,132.5 392.5,133.5 392.5,133.5 392.5,134.5 
		392.5,135.5 392.5,135.5 392.5,136.5 392.5,137.5 392.5,138.5 392.5,139.5 392.5,140.5 392.5,140.5 393.5,141.5 393.5,142.5 
		393.5,143.5 393.5,144.5 393.5,145.5 393.5,145.5 393.5,146.5 393.5,147.5 393.5,148.5 393.5,149.5 393.5,150.5 393.5,150.5 
		393.5,151.5 394.5,152.5 394.5,152.5 394.5,153.5 394.5,154.5 394.5,155.5 394.5,157.5 394.5,158.5 394.5,159.5 394.5,160.5 
		394.5,161.5 394.5,161.5 394.5,162.5 394.5,162.5 395.5,161.5 395.5,160.5 395.5,159.5 395.5,158.5 395.5,157.5 395.5,156.5 
		395.5,155.5 395.5,154.5 395.5,153.5 395.5,152.5 395.5,151.5 395.5,149.5 395.5,148.5 396.5,147.5 396.5,146.5 396.5,145.5 
		396.5,143.5 396.5,141.5 396.5,140.5 396.5,139.5 396.5,139.5 396.5,140.5 396.5,140.5 396.5,140.5 396.5,140.5 396.5,140.5 
		397.5,140.5 397.5,140.5 397.5,140.5 397.5,140.5 397.5,140.5 397.5,140.5 397.5,139.5 397.5,139.5 397.5,138.5 397.5,138.5 
		397.5,137.5 397.5,136.5 397.5,134.5 398.5,134.5 398.5,135.5 398.5,136.5 398.5,137.5 398.5,137.5 398.5,137.5 398.5,137.5 
		398.5,136.5 398.5,136.5 398.5,135.5 398.5,135.5 398.5,135.5 398.5,135.5 399.5,135.5 399.5,134.5 399.5,133.5 399.5,132.5 
		399.5,131.5 399.5,129.5 399.5,128.5 399.5,127.5 399.5,127.5 399.5,128.5 399.5,129.5 399.5,129.5 399.5,129.5 400.5,129.5 
		400.5,129.5 400.5,128.5 400.5,128.5 400.5,128.5 400.5,127.5 400.5,126.5 400.5,125.5 400.5,125.5 400.5,126.5 400.5,126.5 
		400.5,126.5 400.5,125.5 401.5,125.5 401.5,125.5 401.5,125.5 401.5,125.5 401.5,125.5 401.5,125.5 401.5,125.5 401.5,125.5 
		401.5,125.5 401.5,124.5 401.5,124.5 401.5,124.5 401.5,123.5 402.5,123.5 402.5,123.5 402.5,122.5 402.5,122.5 402.5,121.5 
		402.5,121.5 402.5,120.5 402.5,120.5 402.5,119.5 402.5,119.5 402.5,119.5 402.5,118.5 402.5,118.5 403.5,118.5 403.5,117.5 
		403.5,117.5 403.5,117.5 403.5,117.5 403.5,116.5 403.5,116.5 403.5,116.5 403.5,115.5 403.5,115.5 403.5,114.5 403.5,114.5 
		403.5,113.5 404.5,111.5 404.5,110.5 404.5,110.5 404.5,110.5 404.5,110.5 404.5,110.5 404.5,109.5 404.5,108.5 404.5,108.5 
		404.5,107.5 404.5,107.5 404.5,107.5 404.5,107.5 405.5,107.5 405.5,107.5 405.5,107.5 405.5,107.5 405.5,107.5 405.5,108.5 
		405.5,108.5 405.5,108.5 405.5,108.5 405.5,108.5 405.5,108.5 405.5,108.5 405.5,109.5 406.5,109.5 406.5,109.5 406.5,109.5 
		406.5,109.5 406.5,109.5 406.5,109.5 406.5,109.5 406.5,109.5 406.5,109.5 406.5,109.5 406.5,109.5 406.5,109.5 406.5,109.5 
		407.5,109.5 407.5,109.5 407.5,110.5 407.5,110.5 407.5,110.5 407.5,110.5 407.5,111.5 407.5,111.5 407.5,111.5 407.5,112.5 
		407.5,112.5 407.5,112.5 407.5,113.5 408.5,113.5 408.5,113.5 408.5,114.5 408.5,114.5 408.5,114.5 408.5,114.5 408.5,114.5 
		408.5,114.5 408.5,114.5 408.5,115.5 408.5,115.5 408.5,115.5 408.5,115.5 408.5,115.5 409.5,115.5 409.5,115.5 409.5,115.5 
		409.5,115.5 409.5,115.5 409.5,115.5 409.5,115.5 409.5,115.5 409.5,115.5 409.5,115.5 409.5,115.5 409.5,115.5 409.5,115.5 
		410.5,115.5 410.5,115.5 410.5,115.5 410.5,115.5 410.5,115.5 410.5,115.5 410.5,114.5 410.5,114.5 410.5,114.5 410.5,114.5 
		410.5,114.5 410.5,114.5 410.5,114.5 411.5,114.5 411.5,114.5 411.5,115.5 411.5,115.5 411.5,115.5 411.5,115.5 411.5,115.5 
		411.5,115.5 411.5,115.5 411.5,115.5 411.5,115.5 411.5,115.5 411.5,115.5 412.5,115.5 412.5,115.5 412.5,115.5 412.5,114.5 
		412.5,114.5 412.5,114.5 412.5,113.5 412.5,114.5 412.5,114.5 412.5,114.5 412.5,114.5 412.5,115.5 412.5,115.5 413.5,115.5 
		413.5,115.5 413.5,115.5 413.5,115.5 413.5,115.5 413.5,115.5 413.5,115.5 413.5,115.5 413.5,115.5 413.5,115.5 413.5,115.5 
		413.5,114.5 413.5,114.5 414.5,114.5 414.5,114.5 414.5,114.5 414.5,114.5 414.5,114.5 414.5,114.5 414.5,115.5 414.5,115.5 
		414.5,115.5 414.5,115.5 414.5,116.5 414.5,117.5 414.5,117.5 415.5,117.5 415.5,118.5 415.5,119.5 415.5,119.5 415.5,120.5 
		415.5,120.5 415.5,121.5 415.5,122.5 415.5,122.5 415.5,122.5 415.5,123.5 415.5,123.5 415.5,124.5 416.5,124.5 416.5,124.5 
		416.5,125.5 416.5,125.5 416.5,125.5 416.5,125.5 416.5,126.5 416.5,126.5 416.5,126.5 416.5,126.5 416.5,126.5 416.5,126.5 
		416.5,126.5 417.5,126.5 417.5,126.5 417.5,126.5 417.5,126.5 417.5,125.5 417.5,125.5 417.5,125.5 417.5,125.5 417.5,124.5 
		417.5,124.5 417.5,124.5 417.5,123.5 417.5,123.5 418.5,124.5 418.5,124.5 418.5,124.5 418.5,124.5 418.5,124.5 418.5,124.5 
		418.5,124.5 418.5,124.5 418.5,124.5 418.5,124.5 418.5,124.5 418.5,124.5 418.5,124.5 419.5,124.5 419.5,124.5 419.5,124.5 
		419.5,124.5 419.5,124.5 419.5,124.5 419.5,124.5 419.5,124.5 419.5,124.5 419.5,124.5 419.5,124.5 419.5,124.5 419.5,124.5 
		420.5,124.5 420.5,123.5 420.5,123.5 420.5,123.5 420.5,123.5 420.5,122.5 420.5,122.5 420.5,122.5 420.5,121.5 420.5,120.5 
		420.5,120.5 420.5,120.5 420.5,119.5 421.5,119.5 421.5,118.5 421.5,117.5 421.5,116.5 421.5,116.5 421.5,115.5 421.5,115.5 
		421.5,114.5 421.5,114.5 421.5,114.5 421.5,113.5 421.5,113.5 421.5,113.5 422.5,113.5 422.5,113.5 422.5,113.5 422.5,113.5 
		422.5,113.5 422.5,113.5 422.5,113.5 422.5,113.5 422.5,112.5 422.5,112.5 422.5,112.5 422.5,113.5 422.5,113.5 423.5,113.5 
		423.5,113.5 423.5,113.5 423.5,114.5 423.5,114.5 423.5,114.5 423.5,115.5 423.5,115.5 423.5,116.5 423.5,116.5 423.5,117.5 
		423.5,117.5 423.5,118.5 424.5,118.5 424.5,118.5 424.5,119.5 424.5,119.5 424.5,120.5 424.5,120.5 424.5,121.5 424.5,121.5 
		424.5,122.5 424.5,122.5 424.5,123.5 424.5,123.5 424.5,123.5 425.5,124.5 425.5,124.5 425.5,124.5 425.5,125.5 425.5,125.5 
		425.5,125.5 425.5,126.5 425.5,126.5 425.5,126.5 425.5,126.5 425.5,127.5 425.5,128.5 425.5,128.5 426.5,129.5 426.5,129.5 
		426.5,129.5 426.5,129.5 426.5,129.5 426.5,129.5 426.5,130.5 426.5,130.5 426.5,130.5 426.5,130.5 426.5,130.5 426.5,130.5 
		426.5,130.5 427.5,131.5 427.5,131.5 427.5,131.5 427.5,131.5 427.5,131.5 427.5,131.5 427.5,132.5 427.5,132.5 427.5,132.5 
		427.5,133.5 427.5,133.5 427.5,133.5 427.5,134.5 428.5,134.5 428.5,134.5 428.5,134.5 428.5,135.5 428.5,135.5 428.5,135.5 
		428.5,135.5 428.5,136.5 428.5,136.5 428.5,136.5 428.5,137.5 428.5,137.5 428.5,137.5 429.5,137.5 429.5,138.5 429.5,138.5 
		429.5,138.5 429.5,138.5 429.5,139.5 429.5,139.5 429.5,140.5 429.5,140.5 429.5,140.5 429.5,140.5 429.5,140.5 429.5,140.5 
		430.5,141.5 430.5,141.5 430.5,141.5 430.5,141.5 430.5,142.5 430.5,142.5 430.5,142.5 430.5,142.5 430.5,142.5 430.5,143.5 
		430.5,143.5 430.5,143.5 430.5,143.5 431.5,144.5 431.5,144.5 431.5,144.5 431.5,145.5 431.5,145.5 431.5,145.5 431.5,146.5 
		431.5,146.5 431.5,146.5 431.5,147.5 431.5,147.5 431.5,147.5 431.5,147.5 432.5,148.5 432.5,148.5 432.5,148.5 432.5,149.5 
		432.5,149.5 432.5,149.5 432.5,149.5 432.5,149.5 432.5,149.5 432.5,149.5 432.5,149.5 432.5,149.5 432.5,149.5 433.5,149.5 
		433.5,149.5 433.5,149.5 433.5,149.5 433.5,149.5 433.5,149.5 433.5,149.5 433.5,149.5 433.5,149.5 433.5,150.5 433.5,150.5 
		433.5,150.5 433.5,150.5 434.5,150.5 434.5,150.5 434.5,150.5 434.5,150.5 434.5,150.5 434.5,150.5 434.5,151.5 434.5,151.5 
		434.5,151.5 434.5,151.5 434.5,151.5 434.5,151.5 434.5,151.5 435.5,152.5 435.5,152.5 435.5,152.5 435.5,152.5 435.5,152.5 
		435.5,152.5 435.5,152.5 435.5,152.5 435.5,152.5 435.5,152.5 435.5,152.5 435.5,151.5 435.5,151.5 436.5,151.5 436.5,151.5 
		436.5,151.5 436.5,151.5 436.5,151.5 436.5,152.5 436.5,152.5 436.5,152.5 436.5,152.5 436.5,152.5 436.5,152.5 436.5,152.5 
		436.5,152.5 437.5,152.5 437.5,152.5 437.5,152.5 437.5,152.5 437.5,152.5 437.5,152.5 437.5,152.5 437.5,152.5 437.5,152.5 
		437.5,152.5 437.5,152.5 437.5,152.5 437.5,152.5 438.5,152.5 438.5,152.5 438.5,152.5 438.5,152.5 438.5,152.5 438.5,152.5 
		438.5,152.5 438.5,152.5 438.5,152.5 438.5,152.5 438.5,152.5 438.5,152.5 438.5,153.5 439.5,153.5 439.5,153.5 439.5,153.5 
		439.5,153.5 439.5,153.5 439.5,153.5 439.5,154.5 439.5,154.5 439.5,154.5 439.5,154.5 439.5,155.5 439.5,155.5 439.5,155.5 
		440.5,155.5 440.5,155.5 440.5,155.5 440.5,155.5 440.5,156.5 440.5,156.5 440.5,156.5 440.5,156.5 440.5,156.5 440.5,156.5 
		440.5,157.5 440.5,157.5 440.5,157.5 441.5,157.5 441.5,158.5 441.5,158.5 441.5,159.5 441.5,159.5 441.5,159.5 441.5,159.5 
		441.5,160.5 441.5,160.5 441.5,160.5 441.5,161.5 441.5,161.5 441.5,161.5 442.5,162.5 442.5,162.5 442.5,162.5 442.5,163.5 
		442.5,163.5 442.5,163.5 442.5,163.5 442.5,164.5 442.5,164.5 442.5,164.5 442.5,164.5 442.5,164.5 442.5,164.5 443.5,164.5 
		443.5,164.5 443.5,164.5 443.5,164.5 443.5,164.5 443.5,164.5 443.5,164.5 443.5,164.5 443.5,164.5 443.5,164.5 443.5,164.5 
		443.5,163.5 443.5,163.5 444.5,162.5 444.5,162.5 444.5,161.5 444.5,161.5 444.5,160.5 444.5,160.5 444.5,159.5 444.5,159.5 
		444.5,158.5 444.5,157.5 444.5,157.5 444.5,156.5 444.5,155.5 445.5,155.5 445.5,154.5 445.5,153.5 445.5,152.5 445.5,152.5 
		445.5,151.5 445.5,151.5 445.5,150.5 445.5,150.5 445.5,149.5 445.5,149.5 445.5,148.5 445.5,148.5 446.5,147.5 446.5,147.5 
		446.5,146.5 446.5,146.5 446.5,146.5 446.5,145.5 446.5,145.5 446.5,145.5 446.5,145.5 446.5,144.5 446.5,144.5 446.5,144.5 
		446.5,143.5 447.5,143.5 447.5,143.5 447.5,143.5 447.5,143.5 447.5,143.5 447.5,143.5 447.5,142.5 447.5,142.5 447.5,142.5 
		447.5,143.5 447.5,142.5 447.5,142.5 447.5,142.5 448.5,142.5 448.5,142.5 448.5,142.5 448.5,142.5 448.5,142.5 448.5,142.5 
		448.5,142.5 448.5,141.5 448.5,141.5 448.5,141.5 448.5,141.5 448.5,141.5 448.5,141.5 449.5,141.5 449.5,140.5 449.5,140.5 
		449.5,140.5 449.5,140.5 449.5,140.5 449.5,141.5 449.5,141.5 449.5,141.5 449.5,140.5 449.5,140.5 449.5,140.5 449.5,140.5 
		450.5,140.5 450.5,140.5 450.5,140.5 450.5,140.5 450.5,139.5 450.5,139.5 450.5,139.5 450.5,139.5 450.5,138.5 450.5,138.5 
		450.5,138.5 450.5,137.5 450.5,137.5 451.5,136.5 451.5,136.5 451.5,137.5 451.5,137.5 451.5,137.5 451.5,137.5 451.5,137.5 
		451.5,137.5 451.5,137.5 451.5,137.5 451.5,137.5 451.5,138.5 451.5,138.5 452.5,138.5 452.5,138.5 452.5,139.5 452.5,139.5 
		452.5,140.5 452.5,140.5 452.5,140.5 452.5,141.5 452.5,141.5 452.5,142.5 452.5,141.5 452.5,141.5 452.5,142.5 453.5,142.5 
		453.5,141.5 453.5,141.5 453.5,141.5 453.5,140.5 453.5,140.5 453.5,140.5 453.5,140.5 453.5,140.5 453.5,139.5 453.5,139.5 
		453.5,139.5 453.5,139.5 454.5,139.5 454.5,138.5 454.5,138.5 454.5,138.5 454.5,138.5 454.5,138.5 454.5,138.5 454.5,137.5 
		454.5,137.5 454.5,137.5 454.5,137.5 454.5,137.5 454.5,137.5 455.5,136.5 455.5,136.5 455.5,136.5 455.5,136.5 455.5,136.5 
		455.5,136.5 455.5,135.5 455.5,135.5 455.5,135.5 455.5,134.5 455.5,134.5 455.5,134.5 455.5,133.5 456.5,133.5 456.5,132.5 
		456.5,132.5 456.5,132.5 456.5,131.5 456.5,131.5 456.5,130.5 456.5,129.5 456.5,129.5 456.5,128.5 456.5,128.5 456.5,127.5 
		456.5,126.5 457.5,126.5 457.5,125.5 457.5,124.5 457.5,124.5 457.5,123.5 457.5,123.5 457.5,123.5 457.5,122.5 457.5,122.5 
		457.5,122.5 457.5,122.5 457.5,122.5 457.5,122.5 458.5,123.5 458.5,123.5 458.5,124.5 458.5,124.5 458.5,124.5 458.5,125.5 
		458.5,125.5 458.5,125.5 458.5,126.5 458.5,126.5 458.5,126.5 458.5,127.5 458.5,127.5 459.5,127.5 459.5,128.5 459.5,128.5 
		459.5,129.5 459.5,129.5 459.5,129.5 459.5,130.5 459.5,130.5 459.5,130.5 459.5,131.5 459.5,131.5 459.5,131.5 459.5,131.5 
		460.5,132.5 460.5,132.5 460.5,132.5 460.5,132.5 460.5,132.5 460.5,132.5 460.5,132.5 460.5,132.5 460.5,133.5 460.5,133.5 
		460.5,133.5 460.5,134.5 460.5,134.5 461.5,134.5 461.5,134.5 461.5,134.5 461.5,134.5 461.5,134.5 461.5,134.5 461.5,134.5 
		461.5,133.5 461.5,133.5 461.5,133.5 461.5,132.5 461.5,132.5 461.5,132.5 462.5,132.5 462.5,132.5 462.5,132.5 462.5,131.5 
		462.5,131.5 462.5,131.5 462.5,131.5 462.5,131.5 462.5,131.5 462.5,130.5 462.5,130.5 462.5,130.5 462.5,130.5 463.5,130.5 
		463.5,129.5 463.5,129.5 463.5,129.5 463.5,129.5 463.5,128.5 463.5,128.5 463.5,128.5 463.5,128.5 463.5,127.5 463.5,127.5 
		463.5,127.5 463.5,126.5 464.5,126.5 464.5,126.5 464.5,125.5 464.5,125.5 464.5,125.5 464.5,125.5 464.5,124.5 464.5,124.5 
		464.5,124.5 464.5,124.5 464.5,124.5 464.5,124.5 464.5,123.5 465.5,123.5 465.5,123.5 465.5,123.5 465.5,124.5 465.5,124.5 
		465.5,123.5 465.5,122.5 465.5,120.5 465.5,119.5 465.5,119.5 465.5,119.5 465.5,118.5 465.5,118.5 466.5,118.5 466.5,117.5 
		466.5,117.5 466.5,117.5 466.5,116.5 466.5,116.5 466.5,116.5 466.5,116.5 466.5,117.5 466.5,117.5 466.5,117.5 466.5,117.5 
		466.5,117.5 467.5,117.5 467.5,118.5 467.5,118.5 467.5,118.5 467.5,118.5 467.5,118.5 467.5,119.5 467.5,119.5 467.5,119.5 
		467.5,119.5 467.5,119.5 467.5,120.5 467.5,120.5 468.5,120.5 468.5,120.5 468.5,120.5 468.5,121.5 468.5,121.5 468.5,121.5 
		468.5,121.5 468.5,121.5 468.5,121.5 468.5,121.5 468.5,122.5 468.5,122.5 468.5,123.5 469.5,124.5 469.5,124.5 469.5,125.5 
		469.5,126.5 469.5,126.5 469.5,127.5 469.5,127.5 469.5,128.5 469.5,128.5 469.5,129.5 469.5,129.5 469.5,129.5 469.5,129.5 
		470.5,130.5 470.5,130.5 470.5,130.5 470.5,130.5 470.5,130.5 470.5,130.5 470.5,130.5 470.5,130.5 470.5,130.5 470.5,130.5 
		470.5,131.5 470.5,130.5 470.5,130.5 471.5,130.5 471.5,130.5 471.5,130.5 471.5,130.5 471.5,130.5 471.5,130.5 471.5,130.5 
		471.5,130.5 471.5,130.5 471.5,130.5 471.5,130.5 471.5,130.5 471.5,130.5 472.5,130.5 472.5,130.5 472.5,130.5 472.5,130.5 
		472.5,130.5 472.5,130.5 472.5,130.5 472.5,131.5 472.5,131.5 472.5,131.5 472.5,131.5 472.5,131.5 472.5,131.5 473.5,131.5 
		473.5,131.5 473.5,131.5 473.5,131.5 473.5,131.5 473.5,131.5 473.5,132.5 473.5,133.5 473.5,133.5 473.5,134.5 473.5,135.5 
		473.5,135.5 473.5,136.5 474.5,137.5 474.5,137.5 474.5,138.5 474.5,139.5 474.5,139.5 474.5,140.5 474.5,141.5 474.5,141.5 
		474.5,142.5 474.5,142.5 474.5,143.5 474.5,143.5 474.5,144.5 475.5,144.5 475.5,145.5 475.5,145.5 475.5,146.5 475.5,146.5 
		475.5,146.5 475.5,147.5 475.5,147.5 475.5,147.5 475.5,147.5 475.5,147.5 475.5,147.5 475.5,148.5 476.5,148.5 476.5,148.5 
		476.5,148.5 476.5,148.5 476.5,148.5 476.5,148.5 476.5,148.5 476.5,148.5 476.5,148.5 476.5,148.5 476.5,148.5 476.5,148.5 
		476.5,148.5 477.5,147.5 477.5,147.5 477.5,147.5 477.5,147.5 477.5,146.5 477.5,146.5 477.5,146.5 477.5,146.5 477.5,146.5 
		477.5,147.5 477.5,147.5 477.5,147.5 477.5,147.5 478.5,148.5 478.5,148.5 478.5,148.5 478.5,149.5 478.5,149.5 478.5,149.5 
		478.5,149.5 478.5,150.5 478.5,150.5 478.5,151.5 478.5,151.5 478.5,151.5 478.5,152.5 479.5,152.5 479.5,153.5 479.5,153.5 
		479.5,154.5 479.5,154.5 479.5,154.5 479.5,155.5 479.5,155.5 479.5,155.5 479.5,156.5 479.5,156.5 479.5,156.5 479.5,157.5 
		480.5,157.5 480.5,157.5 480.5,157.5 480.5,158.5 480.5,158.5 480.5,158.5 480.5,158.5 480.5,158.5 480.5,158.5 480.5,158.5 
		480.5,158.5 480.5,158.5 480.5,158.5 481.5,158.5 481.5,158.5 481.5,158.5 481.5,158.5 481.5,158.5 481.5,158.5 481.5,158.5 
		481.5,158.5 481.5,158.5 481.5,157.5 481.5,157.5 481.5,156.5 481.5,156.5 482.5,155.5 482.5,155.5 482.5,154.5 482.5,154.5 
		482.5,153.5 482.5,152.5 482.5,152.5 482.5,151.5 482.5,151.5 482.5,150.5 482.5,149.5 482.5,149.5 482.5,148.5 483.5,148.5 
		483.5,147.5 483.5,147.5 483.5,147.5 483.5,147.5 483.5,147.5 483.5,147.5 483.5,147.5 483.5,147.5 483.5,147.5 483.5,147.5 
		483.5,147.5 483.5,147.5 484.5,147.5 484.5,147.5 484.5,147.5 484.5,148.5 484.5,148.5 484.5,148.5 484.5,148.5 484.5,149.5 
		484.5,150.5 484.5,150.5 484.5,151.5 484.5,152.5 484.5,152.5 485.5,153.5 485.5,153.5 485.5,154.5 485.5,155.5 485.5,155.5 
		485.5,156.5 485.5,157.5 485.5,157.5 485.5,158.5 485.5,158.5 485.5,159.5 485.5,159.5 485.5,159.5 486.5,160.5 486.5,160.5 
		486.5,161.5 486.5,161.5 486.5,161.5 486.5,162.5 486.5,162.5 486.5,162.5 486.5,162.5 486.5,162.5 486.5,162.5 486.5,162.5 
		486.5,162.5 487.5,162.5 487.5,162.5 487.5,162.5 487.5,162.5 487.5,162.5 487.5,162.5 487.5,162.5 487.5,162.5 487.5,162.5 
		487.5,162.5 487.5,162.5 487.5,162.5 487.5,162.5 488.5,161.5 488.5,161.5 488.5,161.5 488.5,161.5 488.5,161.5 488.5,161.5 
		488.5,161.5 488.5,161.5 488.5,161.5 488.5,161.5 488.5,161.5 488.5,161.5 488.5,161.5 489.5,161.5 489.5,160.5 489.5,160.5 
		489.5,160.5 489.5,160.5 489.5,160.5 489.5,160.5 489.5,160.5 489.5,160.5 489.5,160.5 489.5,160.5 489.5,160.5 489.5,160.5 
		490.5,161.5 490.5,161.5 490.5,161.5 490.5,161.5 490.5,161.5 490.5,161.5 490.5,161.5 490.5,161.5 490.5,161.5 490.5,161.5 
		490.5,161.5 490.5,160.5 490.5,160.5 491.5,160.5 491.5,160.5 491.5,160.5 491.5,160.5 491.5,160.5 491.5,160.5 491.5,160.5 
		491.5,160.5 491.5,160.5 491.5,160.5 491.5,160.5 491.5,160.5 491.5,160.5 492.5,159.5 492.5,159.5 492.5,159.5 492.5,159.5 
		492.5,159.5 492.5,159.5 492.5,159.5 492.5,159.5 492.5,159.5 492.5,159.5 492.5,159.5 492.5,159.5 492.5,159.5 493.5,160.5 
		493.5,160.5 493.5,160.5 493.5,160.5 493.5,160.5 493.5,160.5 493.5,160.5 493.5,160.5 493.5,160.5 493.5,160.5 493.5,160.5 
		493.5,160.5 493.5,160.5 494.5,160.5 494.5,160.5 494.5,160.5 494.5,160.5 494.5,160.5 494.5,160.5 494.5,160.5 494.5,160.5 
		494.5,160.5 494.5,160.5 494.5,160.5 494.5,160.5 494.5,160.5 495.5,159.5 495.5,159.5 495.5,159.5 495.5,159.5 495.5,159.5 
		495.5,159.5 495.5,159.5 495.5,158.5 495.5,158.5 495.5,158.5 495.5,158.5 495.5,158.5 495.5,158.5 496.5,157.5 496.5,157.5 
		496.5,157.5 496.5,157.5 496.5,157.5 496.5,157.5 496.5,156.5 496.5,156.5 496.5,156.5 496.5,156.5 496.5,156.5 496.5,156.5 
		496.5,156.5 497.5,155.5 497.5,155.5 497.5,155.5 497.5,155.5 497.5,155.5 497.5,154.5 497.5,154.5 497.5,154.5 497.5,154.5 
		497.5,154.5 497.5,154.5 497.5,154.5 497.5,154.5 498.5,154.5 498.5,154.5 498.5,154.5 498.5,154.5 498.5,154.5 498.5,154.5 
		498.5,154.5 498.5,154.5 498.5,154.5 498.5,155.5 498.5,155.5 498.5,155.5 498.5,156.5 499.5,156.5 499.5,156.5 499.5,156.5 
		499.5,157.5 499.5,157.5 499.5,157.5 499.5,157.5 499.5,158.5 499.5,158.5 499.5,158.5 499.5,158.5 499.5,159.5 499.5,159.5 
		500.5,160.5 500.5,161.5 500.5,161.5 500.5,162.5 500.5,162.5 500.5,163.5 500.5,163.5 500.5,164.5 500.5,165.5 500.5,165.5 
		500.5,165.5 500.5,165.5 500.5,166.5 501.5,165.5 501.5,164.5 501.5,163.5 501.5,162.5 501.5,162.5 501.5,162.5 501.5,162.5 
		501.5,161.5 501.5,161.5 501.5,161.5 501.5,161.5 501.5,161.5 501.5,161.5 502.5,162.5 502.5,162.5 502.5,162.5 502.5,162.5 
		502.5,163.5 502.5,163.5 502.5,164.5 502.5,164.5 502.5,164.5 502.5,163.5 502.5,163.5 502.5,162.5 502.5,162.5 503.5,162.5 
		503.5,162.5 503.5,162.5 503.5,161.5 503.5,161.5 503.5,161.5 503.5,161.5 503.5,161.5 503.5,161.5 503.5,161.5 503.5,161.5 
		503.5,160.5 503.5,160.5 504.5,160.5 504.5,160.5 504.5,160.5 504.5,159.5 504.5,159.5 504.5,159.5 504.5,159.5 504.5,159.5 
		504.5,159.5 504.5,159.5 504.5,159.5 504.5,159.5 504.5,158.5 505.5,158.5 505.5,158.5 505.5,158.5 505.5,158.5 505.5,158.5 
		505.5,157.5 505.5,157.5 505.5,157.5 505.5,157.5 505.5,157.5 505.5,156.5 505.5,156.5 505.5,156.5 506.5,156.5 506.5,156.5 
		506.5,156.5 506.5,156.5 506.5,156.5 506.5,157.5 506.5,157.5 506.5,157.5 506.5,158.5 506.5,158.5 506.5,158.5 506.5,159.5 
		506.5,159.5 507.5,159.5 507.5,160.5 507.5,159.5 507.5,160.5 507.5,160.5 507.5,160.5 507.5,160.5 507.5,160.5 507.5,160.5 
		507.5,160.5 507.5,160.5 507.5,160.5 507.5,160.5 508.5,160.5 508.5,160.5 508.5,161.5 508.5,161.5 508.5,161.5 508.5,161.5 
		508.5,161.5 508.5,162.5 508.5,162.5 508.5,162.5 508.5,162.5 508.5,162.5 508.5,162.5 509.5,162.5 509.5,162.5 509.5,162.5 
		509.5,162.5 509.5,161.5 509.5,161.5 509.5,162.5 509.5,162.5 509.5,162.5 509.5,162.5 509.5,162.5 509.5,163.5 509.5,163.5 
		510.5,163.5 510.5,163.5 510.5,164.5 510.5,165.5 510.5,166.5 510.5,166.5 510.5,167.5 510.5,167.5 510.5,167.5 510.5,167.5 
		510.5,168.5 510.5,168.5 510.5,168.5 511.5,168.5 511.5,169.5 511.5,169.5 511.5,169.5 511.5,169.5 511.5,169.5 511.5,169.5 
		511.5,169.5 511.5,169.5 511.5,169.5 511.5,169.5 511.5,169.5 511.5,169.5 512.5,169.5 512.5,169.5 512.5,169.5 512.5,168.5 
		512.5,168.5 512.5,168.5 512.5,168.5 512.5,168.5 512.5,168.5 512.5,168.5 512.5,168.5 512.5,168.5 512.5,168.5 513.5,168.5 
		513.5,168.5 513.5,167.5 513.5,167.5 513.5,167.5 513.5,167.5 513.5,167.5 513.5,167.5 513.5,167.5 513.5,166.5 513.5,166.5 
		513.5,166.5 513.5,166.5 514.5,166.5 514.5,166.5 514.5,165.5 514.5,165.5 514.5,165.5 514.5,165.5 514.5,165.5 514.5,165.5 
		514.5,165.5 514.5,164.5 514.5,164.5 514.5,164.5 514.5,165.5 515.5,165.5 515.5,165.5 515.5,165.5 515.5,166.5 515.5,166.5 
		515.5,166.5 515.5,166.5 515.5,166.5 515.5,167.5 515.5,167.5 515.5,167.5 515.5,167.5 515.5,167.5 516.5,168.5 516.5,168.5 
		516.5,168.5 516.5,168.5 516.5,168.5 516.5,168.5 516.5,168.5 516.5,168.5 516.5,167.5 516.5,167.5 516.5,167.5 516.5,167.5 
		516.5,167.5 517.5,167.5 517.5,167.5 517.5,167.5 517.5,167.5 517.5,167.5 517.5,167.5 517.5,166.5 517.5,166.5 517.5,166.5 
		517.5,166.5 517.5,165.5 517.5,165.5 517.5,165.5 518.5,164.5 518.5,164.5 518.5,164.5 518.5,163.5 518.5,163.5 518.5,162.5 
		518.5,162.5 518.5,161.5 518.5,160.5 518.5,160.5 518.5,159.5 518.5,159.5 518.5,158.5 519.5,157.5 519.5,156.5 519.5,156.5 
		519.5,156.5 519.5,155.5 519.5,155.5 519.5,155.5 519.5,155.5 519.5,155.5 519.5,155.5 519.5,155.5 519.5,154.5 519.5,154.5 
		520.5,154.5 520.5,154.5 520.5,153.5 520.5,153.5 520.5,153.5 520.5,153.5 520.5,153.5 520.5,153.5 520.5,153.5 520.5,153.5 
		520.5,153.5 520.5,153.5 520.5,153.5 521.5,153.5 521.5,153.5 521.5,153.5 521.5,153.5 521.5,153.5 521.5,153.5 521.5,153.5 
		521.5,153.5 521.5,153.5 521.5,152.5 521.5,152.5 521.5,152.5 521.5,152.5 522.5,152.5 522.5,152.5 522.5,152.5 522.5,152.5 
		522.5,152.5 522.5,152.5 522.5,152.5 522.5,152.5 522.5,152.5 522.5,151.5 522.5,151.5 522.5,151.5 522.5,150.5 523.5,150.5 
		523.5,150.5 523.5,150.5 523.5,150.5 523.5,150.5 523.5,150.5 523.5,150.5 523.5,150.5 523.5,150.5 523.5,150.5 523.5,150.5 
		523.5,150.5 523.5,150.5 524.5,150.5 524.5,150.5 524.5,150.5 524.5,150.5 524.5,150.5 524.5,150.5 524.5,150.5 524.5,149.5 
		524.5,149.5 524.5,149.5 524.5,149.5 524.5,148.5 524.5,148.5 525.5,148.5 525.5,148.5 525.5,148.5 525.5,148.5 525.5,148.5 
		525.5,148.5 525.5,148.5 525.5,147.5 525.5,147.5 525.5,147.5 525.5,147.5 525.5,147.5 525.5,147.5 526.5,147.5 526.5,146.5 
		526.5,146.5 526.5,146.5 526.5,146.5 526.5,145.5 526.5,145.5 526.5,144.5 526.5,144.5 526.5,144.5 526.5,143.5 526.5,143.5 
		526.5,143.5 527.5,142.5 527.5,142.5 527.5,142.5 527.5,142.5 527.5,141.5 527.5,141.5 527.5,140.5 527.5,140.5 527.5,140.5 
		527.5,140.5 527.5,140.5 527.5,139.5 527.5,139.5 528.5,139.5 528.5,139.5 528.5,138.5 528.5,138.5 528.5,138.5 528.5,138.5 
		528.5,138.5 528.5,137.5 528.5,137.5 528.5,137.5 528.5,137.5 528.5,136.5 528.5,136.5 529.5,136.5 529.5,136.5 529.5,136.5 
		529.5,136.5 529.5,136.5 529.5,135.5 529.5,135.5 529.5,135.5 529.5,135.5 529.5,135.5 529.5,135.5 529.5,134.5 529.5,134.5 
		530.5,134.5 530.5,134.5 530.5,134.5 530.5,134.5 530.5,134.5 530.5,133.5 530.5,133.5 530.5,133.5 530.5,133.5 530.5,133.5 
		530.5,133.5 530.5,133.5 530.5,133.5 531.5,133.5 531.5,133.5 531.5,134.5 531.5,134.5 531.5,134.5 531.5,134.5 531.5,135.5 
		531.5,135.5 531.5,135.5 531.5,135.5 531.5,136.5 531.5,136.5 531.5,137.5 532.5,137.5 532.5,138.5 532.5,138.5 532.5,139.5 
		532.5,139.5 532.5,139.5 532.5,140.5 532.5,140.5 532.5,140.5 532.5,140.5 532.5,141.5 532.5,141.5 532.5,142.5 533.5,142.5 
		533.5,143.5 533.5,143.5 533.5,143.5 533.5,144.5 533.5,144.5 533.5,144.5 533.5,144.5 533.5,145.5 533.5,145.5 533.5,146.5 
		533.5,147.5 533.5,147.5 534.5,147.5 534.5,148.5 534.5,148.5 534.5,148.5 534.5,149.5 534.5,149.5 534.5,150.5 534.5,150.5 
		534.5,151.5 534.5,151.5 534.5,152.5 534.5,152.5 534.5,153.5 535.5,153.5 535.5,153.5 535.5,154.5 535.5,154.5 535.5,154.5 
		535.5,155.5 535.5,155.5 535.5,155.5 535.5,155.5 535.5,156.5 535.5,156.5 535.5,156.5 535.5,156.5 536.5,156.5 536.5,157.5 
		536.5,157.5 536.5,157.5 536.5,158.5 536.5,158.5 536.5,158.5 536.5,158.5 536.5,158.5 536.5,159.5 536.5,159.5 536.5,159.5 
		536.5,159.5 537.5,159.5 537.5,159.5 537.5,159.5 537.5,159.5 537.5,159.5 537.5,159.5 537.5,160.5 537.5,159.5 537.5,159.5 
		537.5,160.5 537.5,160.5 537.5,160.5 537.5,160.5 538.5,160.5 538.5,160.5 538.5,161.5 538.5,161.5 538.5,161.5 538.5,161.5 
		538.5,161.5 538.5,161.5 538.5,162.5 538.5,162.5 538.5,162.5 538.5,162.5 538.5,162.5 539.5,162.5 539.5,163.5 539.5,163.5 
		539.5,163.5 539.5,163.5 539.5,163.5 539.5,163.5 539.5,163.5 539.5,163.5 539.5,163.5 539.5,163.5 539.5,164.5 539.5,164.5 
		540.5,164.5 540.5,164.5 540.5,164.5 540.5,164.5 540.5,164.5 540.5,164.5 540.5,164.5 540.5,164.5 540.5,164.5 540.5,164.5 
		540.5,165.5 540.5,165.5 540.5,164.5 541.5,164.5 541.5,164.5 541.5,164.5 541.5,165.5 541.5,165.5 541.5,165.5 541.5,165.5 
		541.5,165.5 541.5,165.5 541.5,165.5 541.5,165.5 541.5,165.5 541.5,165.5 542.5,165.5 542.5,165.5 542.5,165.5 542.5,165.5 
		542.5,165.5 542.5,165.5 542.5,165.5 542.5,165.5 542.5,165.5 542.5,165.5 542.5,165.5 542.5,165.5 542.5,165.5 543.5,165.5 
		543.5,165.5 543.5,165.5 543.5,165.5 543.5,165.5 543.5,165.5 543.5,165.5 543.5,165.5 543.5,165.5 543.5,165.5 543.5,165.5 
		543.5,165.5 543.5,165.5 544.5,165.5 544.5,165.5 544.5,165.5 544.5,165.5 544.5,165.5 544.5,164.5 544.5,164.5 544.5,164.5 
		544.5,164.5 544.5,163.5 544.5,163.5 544.5,163.5 544.5,163.5 545.5,163.5 545.5,162.5 545.5,162.5 545.5,162.5 545.5,162.5 
		545.5,162.5 545.5,161.5 545.5,161.5 545.5,161.5 545.5,161.5 545.5,160.5 545.5,160.5 545.5,160.5 546.5,159.5 546.5,159.5 
		546.5,159.5 546.5,159.5 546.5,158.5 546.5,158.5 546.5,158.5 546.5,158.5 546.5,157.5 546.5,157.5 546.5,157.5 546.5,156.5 
		546.5,156.5 547.5,156.5 547.5,156.5 547.5,156.5 547.5,156.5 547.5,156.5 547.5,156.5 547.5,155.5 547.5,156.5 547.5,156.5 
		547.5,156.5 547.5,156.5 547.5,156.5 547.5,156.5 548.5,156.5 548.5,156.5 548.5,156.5 548.5,157.5 548.5,157.5 548.5,157.5 
		548.5,157.5 548.5,157.5 548.5,157.5 548.5,158.5 548.5,158.5 548.5,158.5 548.5,158.5 549.5,158.5 549.5,159.5 549.5,159.5 
		549.5,159.5 549.5,159.5 549.5,159.5 549.5,159.5 549.5,160.5 549.5,160.5 549.5,160.5 549.5,161.5 549.5,161.5 549.5,162.5 
		550.5,162.5 550.5,162.5 550.5,162.5 550.5,163.5 550.5,162.5 550.5,162.5 550.5,162.5 550.5,162.5 550.5,162.5 550.5,162.5 
		550.5,162.5 550.5,162.5 550.5,162.5 551.5,162.5 551.5,162.5 551.5,162.5 551.5,162.5 551.5,162.5 551.5,162.5 551.5,162.5 
		551.5,162.5 551.5,162.5 551.5,162.5 551.5,162.5 551.5,161.5 551.5,161.5 552.5,161.5 552.5,161.5 552.5,161.5 552.5,161.5 
		552.5,161.5 552.5,161.5 552.5,161.5 552.5,161.5 552.5,161.5 552.5,160.5 552.5,160.5 552.5,160.5 552.5,160.5 553.5,160.5 
		553.5,160.5 553.5,160.5 553.5,160.5 553.5,160.5 553.5,159.5 553.5,159.5 553.5,159.5 553.5,159.5 553.5,159.5 553.5,159.5 
		553.5,158.5 553.5,158.5 554.5,158.5 554.5,158.5 554.5,158.5 554.5,158.5 554.5,157.5 554.5,157.5 554.5,157.5 554.5,157.5 
		554.5,157.5 554.5,156.5 554.5,156.5 554.5,156.5 554.5,155.5 555.5,155.5 555.5,154.5 555.5,154.5 555.5,153.5 555.5,153.5 
		555.5,152.5 555.5,151.5 555.5,150.5 555.5,149.5 555.5,148.5 555.5,147.5 555.5,146.5 555.5,145.5 556.5,145.5 556.5,144.5 
		556.5,143.5 556.5,142.5 556.5,141.5 556.5,140.5 556.5,138.5 556.5,137.5 556.5,136.5 556.5,136.5 556.5,136.5 556.5,135.5 
		556.5,135.5 557.5,135.5 557.5,134.5 557.5,134.5 557.5,134.5 557.5,134.5 557.5,134.5 557.5,134.5 557.5,134.5 557.5,134.5 
		557.5,134.5 557.5,134.5 557.5,134.5 557.5,134.5 558.5,134.5 558.5,133.5 558.5,133.5 558.5,133.5 558.5,133.5 558.5,132.5 
		558.5,132.5 558.5,132.5 558.5,131.5 558.5,130.5 558.5,130.5 558.5,129.5 558.5,129.5 559.5,128.5 559.5,128.5 559.5,127.5 
		559.5,127.5 559.5,126.5 559.5,126.5 559.5,125.5 559.5,125.5 559.5,124.5 559.5,124.5 559.5,123.5 559.5,123.5 559.5,122.5 
		560.5,122.5 560.5,121.5 560.5,121.5 560.5,121.5 560.5,120.5 560.5,120.5 560.5,120.5 560.5,120.5 560.5,119.5 560.5,119.5 
		560.5,119.5 560.5,119.5 560.5,118.5 561.5,118.5 561.5,118.5 561.5,117.5 561.5,117.5 561.5,117.5 561.5,117.5 561.5,117.5 
		561.5,116.5 561.5,116.5 561.5,116.5 561.5,116.5 561.5,116.5 561.5,116.5 562.5,116.5 562.5,117.5 562.5,117.5 562.5,117.5 
		562.5,118.5 562.5,118.5 562.5,119.5 562.5,119.5 562.5,119.5 562.5,120.5 562.5,120.5 562.5,120.5 562.5,120.5 563.5,120.5 
		563.5,120.5 563.5,120.5 563.5,120.5 563.5,120.5 563.5,120.5 563.5,120.5 563.5,120.5 563.5,120.5 563.5,120.5 563.5,119.5 
		563.5,119.5 563.5,119.5 564.5,120.5 564.5,120.5 564.5,120.5 564.5,120.5 564.5,120.5 564.5,120.5 564.5,121.5 564.5,121.5 
		564.5,121.5 564.5,121.5 564.5,121.5 564.5,122.5 564.5,122.5 565.5,122.5 565.5,122.5 565.5,123.5 565.5,123.5 565.5,123.5 
		565.5,124.5 565.5,124.5 565.5,124.5 565.5,124.5 565.5,124.5 565.5,124.5 565.5,124.5 565.5,124.5 566.5,124.5 566.5,125.5 
		566.5,125.5 566.5,125.5 566.5,125.5 566.5,125.5 566.5,125.5 566.5,125.5 566.5,125.5 566.5,125.5 566.5,126.5 566.5,125.5 
		566.5,124.5 567.5,124.5 567.5,123.5 567.5,122.5 567.5,122.5 567.5,121.5 567.5,120.5 567.5,119.5 567.5,118.5 567.5,117.5 
		567.5,117.5 567.5,116.5 567.5,116.5 567.5,116.5 568.5,115.5 568.5,115.5 568.5,114.5 568.5,114.5 568.5,113.5 568.5,112.5 
		568.5,112.5 568.5,111.5 568.5,110.5 568.5,110.5 568.5,109.5 568.5,108.5 568.5,108.5 569.5,107.5 569.5,107.5 569.5,106.5 
		569.5,106.5 569.5,105.5 569.5,105.5 569.5,104.5 569.5,104.5 569.5,104.5 569.5,103.5 569.5,103.5 569.5,102.5 569.5,102.5 
		570.5,101.5 570.5,101.5 570.5,101.5 570.5,100.5 570.5,100.5 570.5,100.5 570.5,100.5 570.5,100.5 570.5,100.5 570.5,100.5 
		570.5,100.5 570.5,100.5 570.5,100.5 571.5,100.5 571.5,101.5 571.5,101.5 571.5,101.5 571.5,101.5 571.5,101.5 571.5,101.5 
		571.5,101.5 571.5,101.5 571.5,101.5 571.5,101.5 571.5,100.5 571.5,100.5 572.5,100.5 572.5,100.5 572.5,100.5 572.5,100.5 
		572.5,100.5 572.5,100.5 572.5,100.5 572.5,100.5 572.5,100.5 572.5,100.5 572.5,100.5 572.5,100.5 572.5,100.5 573.5,100.5 
		573.5,100.5 573.5,100.5 573.5,100.5 573.5,101.5 573.5,101.5 573.5,101.5 573.5,101.5 573.5,101.5 573.5,101.5 573.5,101.5 
		573.5,101.5 573.5,101.5 574.5,101.5 574.5,101.5 574.5,101.5 574.5,100.5 574.5,100.5 574.5,100.5 574.5,100.5 574.5,100.5 
		574.5,100.5 574.5,100.5 574.5,99.5 574.5,99.5 574.5,99.5 575.5,99.5 575.5,99.5 575.5,98.5 575.5,98.5 575.5,98.5 575.5,98.5 
		575.5,98.5 575.5,98.5 575.5,98.5 575.5,97.5 575.5,97.5 575.5,97.5 575.5,97.5 576.5,97.5 576.5,97.5 576.5,97.5 576.5,97.5 
		576.5,97.5 576.5,97.5 576.5,97.5 576.5,97.5 576.5,97.5 576.5,97.5 576.5,97.5 576.5,97.5 576.5,97.5 577.5,97.5 577.5,97.5 
		577.5,97.5 577.5,97.5 577.5,97.5 577.5,97.5 577.5,97.5 577.5,97.5 577.5,97.5 577.5,97.5 577.5,97.5 577.5,97.5 577.5,98.5 
		578.5,98.5 578.5,98.5 578.5,98.5 578.5,99.5 578.5,99.5 578.5,99.5 578.5,99.5 578.5,99.5 578.5,100.5 578.5,100.5 578.5,100.5 
		578.5,100.5 578.5,100.5 579.5,101.5 579.5,101.5 579.5,101.5 579.5,102.5 579.5,102.5 579.5,102.5 579.5,103.5 579.5,103.5 
		579.5,103.5 579.5,104.5 579.5,104.5 579.5,105.5 579.5,105.5 580.5,105.5 580.5,105.5 580.5,105.5 580.5,106.5 580.5,106.5 
		580.5,106.5 580.5,107.5 580.5,107.5 580.5,107.5 580.5,108.5 580.5,108.5 580.5,108.5 580.5,108.5 581.5,108.5 581.5,108.5 
		581.5,108.5 581.5,108.5 581.5,108.5 581.5,108.5 581.5,108.5 581.5,108.5 581.5,108.5 581.5,109.5 581.5,110.5 581.5,110.5 
		581.5,110.5 582.5,109.5 582.5,108.5 582.5,108.5 582.5,108.5 582.5,108.5 582.5,108.5 582.5,108.5 582.5,109.5 582.5,109.5 
		582.5,109.5 582.5,109.5 582.5,109.5 582.5,109.5 583.5,109.5 583.5,109.5 583.5,109.5 583.5,109.5 583.5,110.5 583.5,110.5 
		583.5,110.5 583.5,110.5 583.5,110.5 583.5,110.5 583.5,110.5 583.5,109.5 583.5,109.5 584.5,109.5 584.5,109.5 584.5,109.5 
		584.5,109.5 584.5,109.5 584.5,109.5 584.5,109.5 584.5,109.5 584.5,109.5 584.5,109.5 584.5,109.5 584.5,109.5 584.5,109.5 
		585.5,109.5 585.5,109.5 585.5,109.5 585.5,109.5 585.5,109.5 585.5,108.5 585.5,108.5 585.5,108.5 585.5,108.5 585.5,109.5 
		585.5,109.5 585.5,109.5 585.5,109.5 586.5,109.5 586.5,109.5 586.5,109.5 586.5,109.5 586.5,109.5 586.5,109.5 586.5,109.5 
		586.5,109.5 586.5,109.5 586.5,109.5 586.5,109.5 586.5,109.5 586.5,110.5 587.5,110.5 587.5,110.5 587.5,110.5 587.5,111.5 
		587.5,111.5 587.5,111.5 587.5,111.5 587.5,111.5 587.5,111.5 587.5,111.5 587.5,111.5 587.5,110.5 587.5,110.5 588.5,110.5 
		588.5,110.5 588.5,110.5 588.5,110.5 588.5,109.5 588.5,109.5 588.5,109.5 588.5,109.5 588.5,109.5 588.5,109.5 588.5,109.5 
		588.5,109.5 588.5,109.5 589.5,109.5 589.5,109.5 589.5,109.5 589.5,109.5 589.5,109.5 589.5,109.5 589.5,109.5 589.5,109.5 
		589.5,109.5 589.5,109.5 589.5,109.5 589.5,109.5 589.5,109.5 590.5,109.5 590.5,109.5 590.5,109.5 590.5,109.5 590.5,109.5 
		590.5,109.5 590.5,109.5 590.5,109.5 590.5,110.5 590.5,110.5 590.5,110.5 590.5,110.5 590.5,110.5 591.5,111.5 591.5,111.5 
		591.5,111.5 591.5,111.5 591.5,112.5 591.5,112.5 591.5,112.5 591.5,113.5 591.5,113.5 591.5,113.5 591.5,113.5 591.5,113.5 
		591.5,114.5 592.5,114.5 592.5,114.5 592.5,114.5 592.5,114.5 592.5,114.5 592.5,114.5 592.5,114.5 592.5,115.5 592.5,115.5 
		592.5,115.5 592.5,114.5 592.5,114.5 592.5,114.5 593.5,114.5 593.5,114.5 593.5,114.5 593.5,114.5 593.5,114.5 593.5,114.5 
		593.5,114.5 593.5,114.5 593.5,114.5 593.5,113.5 593.5,114.5 593.5,114.5 593.5,114.5 594.5,114.5 594.5,114.5 594.5,114.5 
		594.5,114.5 594.5,114.5 594.5,113.5 594.5,113.5 594.5,113.5 594.5,113.5 594.5,113.5 594.5,113.5 594.5,113.5 594.5,113.5 
		595.5,113.5 595.5,113.5 595.5,113.5 595.5,113.5 595.5,113.5 595.5,113.5 595.5,113.5 595.5,113.5 595.5,113.5 595.5,112.5 
		595.5,112.5 595.5,112.5 595.5,113.5 596.5,113.5 596.5,112.5 596.5,112.5 596.5,112.5 596.5,112.5 596.5,112.5 596.5,112.5 
		596.5,112.5 596.5,112.5 596.5,112.5 596.5,112.5 596.5,112.5 596.5,112.5 597.5,112.5 597.5,112.5 597.5,112.5 597.5,112.5 
		597.5,112.5 597.5,112.5 597.5,112.5 597.5,112.5 597.5,112.5 597.5,112.5 597.5,112.5 597.5,112.5 597.5,112.5 598.5,112.5 
		598.5,112.5 598.5,112.5 598.5,112.5 598.5,112.5 598.5,112.5 598.5,112.5 598.5,112.5 598.5,112.5 598.5,112.5 598.5,112.5 
		598.5,112.5 598.5,112.5 599.5,112.5 599.5,112.5 599.5,112.5 599.5,112.5 599.5,112.5 599.5,112.5 599.5,112.5 599.5,112.5 
		599.5,112.5 599.5,112.5 599.5,112.5 599.5,112.5 599.5,112.5 600.5,112.5 600.5,112.5 600.5,112.5 600.5,112.5 600.5,112.5 
		600.5,111.5 600.5,111.5 600.5,111.5 600.5,111.5 600.5,111.5 600.5,111.5 600.5,111.5 600.5,111.5 601.5,111.5 601.5,111.5 
		601.5,111.5 601.5,112.5 601.5,112.5 601.5,112.5 601.5,112.5 601.5,112.5 601.5,113.5 601.5,113.5 601.5,113.5 601.5,114.5 
		601.5,114.5 602.5,113.5 602.5,113.5 602.5,113.5 602.5,114.5 602.5,114.5 602.5,114.5 602.5,114.5 602.5,115.5 602.5,115.5 
		602.5,115.5 602.5,116.5 602.5,116.5 602.5,117.5 603.5,117.5 603.5,117.5 603.5,117.5 603.5,117.5 603.5,118.5 603.5,118.5 
		603.5,118.5 603.5,118.5 603.5,118.5 603.5,118.5 603.5,118.5 603.5,118.5 603.5,118.5 604.5,118.5 604.5,118.5 604.5,118.5 
		604.5,118.5 604.5,118.5 604.5,118.5 604.5,118.5 604.5,117.5 604.5,117.5 604.5,117.5 604.5,117.5 604.5,117.5 604.5,116.5 
		605.5,116.5 605.5,116.5 605.5,116.5 605.5,116.5 605.5,116.5 605.5,116.5 605.5,116.5 605.5,116.5 605.5,116.5 605.5,116.5 
		605.5,117.5 605.5,117.5 605.5,117.5 606.5,117.5 606.5,118.5 606.5,118.5 606.5,118.5 606.5,118.5 606.5,119.5 606.5,119.5 
		606.5,119.5 606.5,120.5 606.5,120.5 606.5,120.5 606.5,121.5 606.5,121.5 607.5,121.5 607.5,121.5 607.5,122.5 607.5,122.5 
		607.5,122.5 607.5,122.5 607.5,123.5 607.5,123.5 607.5,123.5 607.5,123.5 607.5,123.5 607.5,123.5 607.5,123.5 608.5,123.5 
		608.5,123.5 608.5,123.5 608.5,123.5 608.5,123.5 608.5,124.5 608.5,124.5 608.5,124.5 608.5,124.5 608.5,124.5 608.5,124.5 
		608.5,124.5 608.5,125.5 609.5,125.5 609.5,126.5 609.5,126.5 609.5,126.5 609.5,127.5 609.5,127.5 609.5,127.5 609.5,128.5 
		609.5,128.5 609.5,128.5 609.5,129.5 609.5,129.5 609.5,130.5 610.5,130.5 610.5,130.5 610.5,131.5 610.5,131.5 610.5,131.5 
		610.5,132.5 610.5,132.5 610.5,132.5 610.5,133.5 610.5,133.5 610.5,133.5 610.5,134.5 610.5,134.5 611.5,134.5 611.5,134.5 
		611.5,135.5 611.5,135.5 611.5,135.5 611.5,135.5 611.5,135.5 611.5,136.5 611.5,136.5 611.5,136.5 611.5,136.5 611.5,136.5 
		611.5,136.5 612.5,135.5 612.5,135.5 612.5,135.5 612.5,135.5 612.5,135.5 612.5,135.5 612.5,135.5 612.5,135.5 612.5,135.5 
		612.5,136.5 612.5,136.5 612.5,136.5 612.5,136.5 613.5,136.5 613.5,136.5 613.5,136.5 613.5,136.5 613.5,136.5 613.5,136.5 
		613.5,136.5 613.5,136.5 613.5,136.5 613.5,137.5 613.5,137.5 613.5,137.5 613.5,137.5 614.5,137.5 614.5,137.5 614.5,137.5 
		614.5,137.5 614.5,137.5 614.5,137.5 614.5,138.5 614.5,138.5 614.5,138.5 614.5,138.5 614.5,138.5 614.5,139.5 614.5,139.5 
		615.5,139.5 615.5,139.5 615.5,140.5 615.5,140.5 615.5,140.5 615.5,141.5 615.5,141.5 615.5,141.5 615.5,142.5 615.5,142.5 
		615.5,142.5 615.5,142.5 615.5,143.5 616.5,143.5 616.5,143.5 616.5,143.5 616.5,143.5 616.5,144.5 616.5,144.5 616.5,144.5 
		616.5,144.5 616.5,144.5 616.5,144.5 616.5,144.5 616.5,144.5 616.5,144.5 617.5,144.5 617.5,144.5 617.5,144.5 617.5,145.5 
		617.5,145.5 617.5,145.5 617.5,145.5 617.5,145.5 617.5,145.5 617.5,145.5 617.5,145.5 617.5,145.5 617.5,145.5 618.5,145.5 
		618.5,145.5 618.5,145.5 618.5,146.5 618.5,146.5 618.5,146.5 618.5,146.5 618.5,146.5 618.5,146.5 618.5,146.5 618.5,147.5 
		618.5,147.5 618.5,147.5 619.5,147.5 619.5,147.5 619.5,148.5 619.5,148.5 619.5,148.5 619.5,148.5 619.5,148.5 619.5,148.5 
		619.5,148.5 619.5,149.5 619.5,149.5 619.5,149.5 619.5,149.5 620.5,149.5 620.5,149.5 620.5,149.5 620.5,149.5 620.5,149.5 
		620.5,149.5 620.5,150.5 620.5,150.5 620.5,150.5 620.5,150.5 620.5,150.5 620.5,150.5 620.5,150.5 621.5,150.5 621.5,151.5 
		621.5,151.5 621.5,151.5 621.5,151.5 621.5,151.5 621.5,152.5 621.5,152.5 621.5,152.5 621.5,152.5 621.5,152.5 621.5,153.5 
		621.5,153.5 622.5,153.5 622.5,153.5 622.5,153.5 622.5,153.5 622.5,154.5 622.5,154.5 622.5,154.5 622.5,154.5 622.5,154.5 
		622.5,154.5 622.5,154.5 622.5,155.5 622.5,155.5 623.5,155.5 623.5,155.5 623.5,155.5 623.5,155.5 623.5,155.5 623.5,156.5 
		623.5,156.5 623.5,156.5 623.5,156.5 623.5,157.5 623.5,157.5 623.5,157.5 623.5,157.5 624.5,158.5 624.5,158.5 624.5,158.5 
		624.5,158.5 624.5,158.5 624.5,157.5 624.5,156.5 624.5,156.5 624.5,155.5 624.5,155.5 624.5,154.5 624.5,154.5 624.5,154.5 
		625.5,154.5 625.5,154.5 625.5,153.5 625.5,153.5 625.5,153.5 625.5,153.5 625.5,153.5 625.5,153.5 625.5,153.5 625.5,153.5 
		625.5,153.5 625.5,153.5 625.5,153.5 626.5,153.5 626.5,153.5 626.5,153.5 626.5,153.5 626.5,153.5 626.5,154.5 626.5,154.5 
		626.5,154.5 626.5,154.5 626.5,155.5 626.5,155.5 626.5,155.5 626.5,155.5 627.5,156.5 627.5,156.5 627.5,156.5 627.5,156.5 
		627.5,156.5 627.5,156.5 627.5,157.5 627.5,157.5 627.5,157.5 627.5,157.5 627.5,157.5 627.5,157.5 627.5,157.5 628.5,157.5 
		628.5,157.5 628.5,158.5 628.5,158.5 628.5,158.5 628.5,159.5 628.5,159.5 628.5,160.5 628.5,160.5 628.5,160.5 628.5,160.5 
		628.5,160.5 628.5,160.5 629.5,160.5 629.5,160.5 629.5,160.5 629.5,159.5 629.5,159.5 629.5,159.5 629.5,159.5 629.5,159.5 
		629.5,160.5 629.5,160.5 629.5,160.5 629.5,160.5 629.5,160.5 630.5,160.5 630.5,160.5 630.5,160.5 630.5,160.5 630.5,160.5 
		630.5,160.5 630.5,160.5 630.5,160.5 630.5,160.5 630.5,160.5 630.5,159.5 630.5,159.5 630.5,158.5 631.5,158.5 631.5,158.5 
		631.5,158.5 631.5,157.5 631.5,157.5 631.5,157.5 631.5,157.5 631.5,156.5 631.5,156.5 631.5,156.5 631.5,155.5 631.5,155.5 
		631.5,155.5 632.5,155.5 632.5,154.5 632.5,154.5 632.5,154.5 632.5,154.5 632.5,153.5 632.5,153.5 632.5,153.5 632.5,153.5 
		632.5,152.5 632.5,152.5 632.5,152.5 632.5,152.5 633.5,151.5 633.5,151.5 633.5,151.5 633.5,150.5 633.5,150.5 633.5,150.5 
		633.5,149.5 633.5,149.5 633.5,149.5 633.5,148.5 633.5,148.5 633.5,147.5 633.5,147.5 634.5,146.5 634.5,146.5 634.5,146.5 
		634.5,146.5 634.5,146.5 634.5,146.5 634.5,146.5 634.5,146.5 634.5,146.5 634.5,146.5 634.5,147.5 634.5,147.5 634.5,147.5 
		635.5,147.5 635.5,147.5 635.5,148.5 635.5,148.5 635.5,148.5 635.5,149.5 635.5,149.5 635.5,150.5 635.5,151.5 635.5,151.5 
		635.5,152.5 635.5,152.5 635.5,153.5 636.5,154.5 636.5,154.5 636.5,155.5 636.5,155.5 636.5,156.5 636.5,156.5 636.5,157.5 
		636.5,157.5 636.5,157.5 636.5,158.5 636.5,158.5 636.5,159.5 636.5,159.5 637.5,159.5 637.5,160.5 637.5,160.5 637.5,160.5 
		637.5,161.5 637.5,161.5 637.5,161.5 637.5,162.5 637.5,162.5 637.5,162.5 637.5,163.5 637.5,163.5 637.5,163.5 638.5,164.5 
		638.5,164.5 638.5,164.5 638.5,165.5 638.5,165.5 638.5,165.5 638.5,165.5 638.5,165.5 638.5,166.5 638.5,166.5 638.5,166.5 
		638.5,166.5 638.5,166.5 639.5,166.5 639.5,166.5 639.5,166.5 639.5,166.5 639.5,166.5 639.5,166.5 639.5,165.5 639.5,165.5 
		639.5,165.5 639.5,165.5 639.5,165.5 639.5,164.5 639.5,164.5 640.5,164.5 640.5,163.5 640.5,163.5 640.5,162.5 640.5,162.5 
		640.5,161.5 640.5,161.5 640.5,160.5 640.5,160.5 640.5,159.5 640.5,159.5 640.5,158.5 640.5,158.5 641.5,158.5 641.5,157.5 
		641.5,157.5 641.5,156.5 641.5,156.5 641.5,156.5 641.5,156.5 641.5,156.5 641.5,156.5 641.5,156.5 641.5,156.5 641.5,156.5 
		641.5,156.5 642.5,156.5 642.5,156.5 642.5,156.5 642.5,156.5 642.5,157.5 642.5,157.5 642.5,157.5 642.5,158.5 642.5,158.5 
		642.5,158.5 642.5,159.5 642.5,159.5 642.5,160.5 643.5,160.5 643.5,160.5 643.5,161.5 643.5,161.5 643.5,161.5 643.5,161.5 
		643.5,162.5 643.5,162.5 643.5,162.5 643.5,163.5 643.5,163.5 643.5,164.5 643.5,165.5 644.5,165.5 644.5,166.5 644.5,166.5 
		644.5,166.5 644.5,167.5 644.5,167.5 644.5,168.5 644.5,168.5 644.5,168.5 644.5,168.5 644.5,169.5 644.5,169.5 644.5,169.5 
		645.5,170.5 645.5,170.5 645.5,170.5 645.5,170.5 645.5,170.5 645.5,170.5 645.5,170.5 645.5,170.5 645.5,170.5 645.5,170.5 
		645.5,170.5 645.5,170.5 645.5,170.5 646.5,170.5 646.5,170.5 646.5,170.5 646.5,170.5 646.5,170.5 646.5,170.5 646.5,170.5 
		646.5,170.5 646.5,170.5 646.5,170.5 646.5,170.5 646.5,170.5 646.5,169.5 647.5,169.5 647.5,169.5 647.5,169.5 647.5,168.5 
		647.5,168.5 647.5,168.5 647.5,168.5 647.5,168.5 647.5,168.5 647.5,167.5 647.5,167.5 647.5,167.5 647.5,167.5 648.5,167.5 
		648.5,167.5 648.5,166.5 648.5,166.5 648.5,166.5 648.5,166.5 648.5,166.5 648.5,166.5 648.5,166.5 648.5,166.5 648.5,166.5 
		648.5,166.5 648.5,166.5 649.5,166.5 649.5,166.5 649.5,166.5 649.5,167.5 649.5,167.5 649.5,167.5 649.5,167.5 649.5,167.5 
		649.5,167.5 649.5,167.5 649.5,167.5 649.5,167.5 649.5,167.5 650.5,168.5 650.5,168.5 650.5,168.5 650.5,168.5 650.5,168.5 
		650.5,168.5 650.5,168.5 650.5,168.5 650.5,168.5 650.5,167.5 650.5,167.5 650.5,167.5 650.5,166.5 651.5,166.5 651.5,166.5 
		651.5,165.5 651.5,165.5 651.5,165.5 651.5,165.5 651.5,165.5 651.5,165.5 651.5,164.5 651.5,164.5 651.5,164.5 651.5,164.5 
		651.5,164.5 652.5,164.5 652.5,164.5 652.5,164.5 652.5,164.5 652.5,164.5 652.5,165.5 652.5,165.5 652.5,165.5 652.5,165.5 
		652.5,165.5 652.5,165.5 652.5,166.5 652.5,166.5 653.5,166.5 653.5,166.5 653.5,166.5 653.5,166.5 653.5,165.5 653.5,165.5 
		653.5,165.5 653.5,165.5 653.5,165.5 653.5,165.5 653.5,164.5 653.5,164.5 653.5,164.5 654.5,164.5 654.5,164.5 654.5,164.5 
		654.5,163.5 654.5,163.5 654.5,163.5 654.5,163.5 654.5,162.5 654.5,162.5 654.5,162.5 654.5,162.5 654.5,162.5 654.5,162.5 
		655.5,162.5 655.5,161.5 655.5,161.5 655.5,161.5 655.5,161.5 655.5,161.5 655.5,161.5 655.5,161.5 655.5,161.5 655.5,161.5 
		655.5,161.5 655.5,161.5 655.5,161.5 656.5,161.5 656.5,161.5 656.5,161.5 656.5,161.5 656.5,161.5 656.5,161.5 656.5,161.5 
		656.5,161.5 656.5,161.5 656.5,161.5 656.5,161.5 656.5,162.5 656.5,162.5 657.5,162.5 657.5,162.5 657.5,162.5 657.5,163.5 
		657.5,163.5 657.5,163.5 657.5,164.5 657.5,164.5 657.5,164.5 657.5,164.5 657.5,165.5 657.5,165.5 657.5,165.5 658.5,164.5 
		658.5,164.5 658.5,164.5 658.5,164.5 658.5,164.5 658.5,164.5 658.5,164.5 658.5,164.5 658.5,164.5 658.5,164.5 658.5,164.5 
		658.5,164.5 658.5,164.5 659.5,165.5 659.5,165.5 659.5,165.5 659.5,166.5 659.5,166.5 659.5,166.5 659.5,166.5 659.5,166.5 
		659.5,166.5 659.5,166.5 659.5,166.5 659.5,166.5 659.5,166.5 660.5,166.5 660.5,166.5 660.5,166.5 660.5,166.5 660.5,166.5 
		660.5,166.5 660.5,165.5 660.5,165.5 660.5,165.5 660.5,164.5 660.5,164.5 660.5,164.5 660.5,163.5 661.5,163.5 661.5,163.5 
		661.5,163.5 661.5,162.5 661.5,162.5 661.5,162.5 661.5,162.5 661.5,162.5 661.5,161.5 661.5,161.5 661.5,161.5 661.5,161.5 
		661.5,162.5 662.5,162.5 662.5,162.5 662.5,162.5 662.5,162.5 662.5,163.5 662.5,163.5 662.5,163.5 662.5,164.5 662.5,164.5 
		662.5,164.5 662.5,164.5 662.5,165.5 662.5,165.5 663.5,165.5 663.5,165.5 663.5,165.5 663.5,166.5 663.5,166.5 663.5,166.5 
		663.5,166.5 663.5,166.5 663.5,166.5 663.5,166.5 663.5,166.5 663.5,166.5 663.5,166.5 664.5,166.5 664.5,166.5 664.5,166.5 
		664.5,166.5 664.5,166.5 664.5,166.5 664.5,166.5 664.5,166.5 664.5,166.5 664.5,166.5 664.5,166.5 664.5,166.5 664.5,166.5 
		665.5,166.5 665.5,166.5 665.5,166.5 665.5,166.5 665.5,166.5 665.5,166.5 665.5,166.5 665.5,166.5 665.5,166.5 665.5,166.5 
		665.5,166.5 665.5,166.5 665.5,166.5 666.5,166.5 666.5,166.5 666.5,166.5 666.5,166.5 666.5,166.5 666.5,165.5 666.5,165.5 
		666.5,165.5 666.5,165.5 666.5,165.5 666.5,166.5 666.5,166.5 666.5,166.5 667.5,167.5 667.5,167.5 667.5,167.5 667.5,167.5 
		667.5,167.5 667.5,167.5 667.5,167.5 667.5,167.5 667.5,167.5 667.5,167.5 667.5,168.5 667.5,168.5 667.5,168.5 668.5,168.5 
		668.5,168.5 668.5,168.5 668.5,169.5 668.5,169.5 668.5,169.5 668.5,169.5 668.5,169.5 668.5,169.5 668.5,170.5 668.5,170.5 
		668.5,170.5 668.5,170.5 669.5,170.5 669.5,170.5 669.5,170.5 669.5,170.5 669.5,170.5 669.5,170.5 669.5,170.5 669.5,170.5 
		669.5,170.5 669.5,170.5 669.5,170.5 669.5,171.5 669.5,170.5 670.5,170.5 670.5,170.5 670.5,170.5 670.5,170.5 670.5,170.5 
		670.5,170.5 670.5,170.5 670.5,170.5 670.5,170.5 670.5,170.5 670.5,170.5 670.5,170.5 670.5,170.5 671.5,170.5 671.5,170.5 
		671.5,170.5 671.5,170.5 671.5,169.5 671.5,169.5 671.5,169.5 671.5,169.5 671.5,169.5 671.5,169.5 671.5,169.5 671.5,168.5 
		671.5,168.5 672.5,168.5 672.5,168.5 672.5,168.5 672.5,167.5 672.5,167.5 672.5,167.5 672.5,167.5 672.5,167.5 672.5,167.5 
		672.5,167.5 672.5,167.5 672.5,167.5 672.5,167.5 673.5,167.5 673.5,167.5 673.5,167.5 673.5,167.5 673.5,167.5 673.5,167.5 
		673.5,167.5 673.5,167.5 673.5,167.5 673.5,167.5 673.5,167.5 673.5,167.5 673.5,167.5 674.5,168.5 674.5,168.5 674.5,168.5 
		674.5,168.5 674.5,168.5 674.5,169.5 674.5,169.5 674.5,169.5 674.5,169.5 674.5,170.5 674.5,170.5 674.5,170.5 674.5,170.5 
		675.5,171.5 675.5,171.5 675.5,171.5 675.5,172.5 675.5,172.5 675.5,172.5 675.5,172.5 675.5,172.5 675.5,173.5 675.5,173.5 
		675.5,173.5 675.5,173.5 675.5,173.5 676.5,173.5 676.5,174.5 676.5,174.5 676.5,174.5 676.5,174.5 676.5,174.5 676.5,174.5 
		676.5,174.5 676.5,174.5 676.5,175.5 676.5,175.5 676.5,175.5 676.5,175.5 677.5,176.5 677.5,176.5 677.5,176.5 677.5,176.5 
		677.5,177.5 677.5,177.5 677.5,177.5 677.5,177.5 677.5,178.5 677.5,178.5 677.5,178.5 677.5,178.5 677.5,178.5 678.5,178.5 
		678.5,178.5 678.5,179.5 678.5,179.5 678.5,179.5 678.5,179.5 678.5,179.5 678.5,179.5 678.5,179.5 678.5,180.5 678.5,180.5 
		678.5,180.5 678.5,180.5 679.5,180.5 679.5,180.5 679.5,181.5 679.5,181.5 679.5,181.5 679.5,181.5 679.5,181.5 679.5,181.5 
		679.5,182.5 679.5,182.5 679.5,182.5 679.5,181.5 679.5,182.5 680.5,182.5 680.5,182.5 680.5,183.5 680.5,183.5 680.5,183.5 
		680.5,183.5 680.5,183.5 680.5,183.5 680.5,183.5 680.5,184.5 680.5,184.5 680.5,184.5 680.5,184.5 680.5,185.5 681.5,185.5 
		681.5,186.5 681.5,186.5 681.5,186.5 681.5,187.5 681.5,187.5 681.5,187.5 681.5,187.5 681.5,188.5 681.5,188.5 681.5,188.5 
		681.5,188.5 681.5,188.5 682.5,188.5 682.5,189.5 682.5,189.5 682.5,189.5 682.5,190.5 682.5,190.5 682.5,190.5 682.5,190.5 
		682.5,190.5 682.5,191.5 682.5,191.5 682.5,191.5 682.5,191.5 683.5,191.5 683.5,192.5 683.5,192.5 683.5,192.5 683.5,192.5 
		683.5,192.5 683.5,192.5 683.5,193.5 683.5,193.5 683.5,193.5 683.5,193.5 683.5,194.5 683.5,194.5 684.5,194.5 684.5,194.5 
		684.5,194.5 684.5,194.5 684.5,193.5 684.5,193.5 684.5,192.5 684.5,192.5 684.5,191.5 684.5,191.5 684.5,190.5 684.5,190.5 
		684.5,189.5 685.5,189.5 685.5,188.5 685.5,188.5 685.5,187.5 685.5,187.5 685.5,186.5 685.5,185.5 685.5,185.5 685.5,184.5 
		685.5,183.5 685.5,183.5 685.5,182.5 685.5,181.5 686.5,181.5 686.5,180.5 686.5,180.5 686.5,179.5 686.5,179.5 686.5,179.5 
		686.5,178.5 686.5,178.5 686.5,178.5 686.5,177.5 686.5,177.5 686.5,177.5 686.5,177.5 687.5,176.5 687.5,176.5 687.5,176.5 
		687.5,176.5 687.5,176.5 687.5,176.5 687.5,176.5 687.5,176.5 687.5,176.5 687.5,176.5 687.5,176.5 687.5,176.5 687.5,175.5 
		688.5,175.5 688.5,175.5 688.5,175.5 688.5,175.5 688.5,175.5 688.5,174.5 688.5,174.5 688.5,174.5 688.5,174.5 688.5,174.5 
		688.5,174.5 688.5,174.5 688.5,173.5 689.5,173.5 689.5,173.5 689.5,173.5 689.5,173.5 689.5,173.5 689.5,173.5 689.5,172.5 
		689.5,172.5 689.5,172.5 689.5,171.5 689.5,171.5 689.5,171.5 689.5,170.5 690.5,170.5 690.5,170.5 690.5,170.5 690.5,169.5 
		690.5,169.5 690.5,169.5 690.5,169.5 690.5,169.5 690.5,168.5 690.5,168.5 690.5,168.5 690.5,168.5 690.5,168.5 691.5,168.5 
		691.5,167.5 691.5,167.5 691.5,167.5 691.5,167.5 691.5,167.5 691.5,167.5 691.5,167.5 691.5,167.5 691.5,167.5 691.5,167.5 
		691.5,167.5 691.5,166.5 692.5,166.5 692.5,166.5 692.5,166.5 692.5,166.5 692.5,166.5 692.5,166.5 692.5,167.5 692.5,167.5 
		692.5,167.5 692.5,167.5 692.5,167.5 692.5,167.5 692.5,168.5 693.5,168.5 693.5,168.5 693.5,168.5 693.5,168.5 693.5,168.5 
		693.5,168.5 693.5,168.5 693.5,167.5 693.5,167.5 693.5,167.5 693.5,166.5 693.5,166.5 693.5,165.5 694.5,165.5 694.5,165.5 
		694.5,164.5 694.5,164.5 694.5,164.5 694.5,163.5 694.5,163.5 694.5,163.5 694.5,163.5 694.5,163.5 694.5,163.5 694.5,163.5 
		694.5,163.5 695.5,162.5 695.5,162.5 695.5,162.5 695.5,162.5 695.5,162.5 695.5,161.5 695.5,161.5 695.5,161.5 695.5,161.5 
		695.5,161.5 695.5,161.5 695.5,160.5 695.5,160.5 696.5,160.5 696.5,160.5 696.5,160.5 696.5,161.5 696.5,161.5 696.5,161.5 
		696.5,162.5 696.5,162.5 696.5,162.5 696.5,163.5 696.5,163.5 696.5,163.5 696.5,163.5 697.5,164.5 697.5,164.5 697.5,164.5 
		697.5,164.5 697.5,164.5 697.5,164.5 697.5,164.5 697.5,164.5 697.5,164.5 697.5,164.5 697.5,164.5 697.5,164.5 697.5,164.5 
		698.5,164.5 698.5,164.5 698.5,164.5 698.5,164.5 698.5,165.5 698.5,165.5 698.5,165.5 698.5,165.5 698.5,165.5 698.5,166.5 
		698.5,166.5 698.5,166.5 698.5,166.5 699.5,166.5 699.5,167.5 699.5,167.5 699.5,167.5 699.5,167.5 699.5,167.5 699.5,167.5 
		699.5,167.5 699.5,167.5 699.5,167.5 699.5,167.5 699.5,168.5 699.5,168.5 700.5,168.5 700.5,168.5 700.5,169.5 700.5,169.5 
		700.5,169.5 700.5,169.5 700.5,170.5 700.5,170.5 700.5,170.5 700.5,170.5 700.5,170.5 700.5,170.5 700.5,171.5 701.5,171.5 
		701.5,171.5 701.5,172.5 701.5,172.5 701.5,172.5 701.5,172.5 701.5,173.5 701.5,173.5 701.5,173.5 701.5,174.5 701.5,174.5 
		701.5,174.5 701.5,175.5 702.5,175.5 702.5,175.5 702.5,175.5 702.5,176.5 702.5,176.5 702.5,176.5 702.5,176.5 702.5,177.5 
		702.5,177.5 702.5,177.5 702.5,177.5 702.5,177.5 702.5,178.5 703.5,178.5 703.5,178.5 703.5,178.5 703.5,178.5 703.5,179.5 
		703.5,179.5 703.5,179.5 703.5,179.5 703.5,179.5 703.5,180.5 703.5,180.5 703.5,180.5 703.5,180.5 704.5,181.5 704.5,181.5 
		704.5,181.5 704.5,181.5 704.5,182.5 704.5,182.5 704.5,182.5 704.5,182.5 704.5,183.5 704.5,183.5 704.5,183.5 704.5,183.5 
		704.5,184.5 705.5,184.5 705.5,184.5 705.5,184.5 705.5,185.5 705.5,185.5 705.5,185.5 705.5,186.5 705.5,186.5 705.5,186.5 
		705.5,186.5 705.5,187.5 705.5,187.5 705.5,187.5 706.5,187.5 706.5,188.5 706.5,188.5 706.5,188.5 706.5,188.5 706.5,189.5 
		706.5,189.5 706.5,189.5 706.5,190.5 706.5,190.5 706.5,190.5 706.5,191.5 706.5,191.5 707.5,191.5 707.5,191.5 707.5,192.5 
		707.5,192.5 707.5,192.5 707.5,192.5 707.5,192.5 707.5,192.5 707.5,192.5 707.5,192.5 707.5,192.5 707.5,192.5 707.5,192.5 
		708.5,192.5 708.5,192.5 708.5,192.5 708.5,192.5 708.5,192.5 708.5,192.5 708.5,192.5 708.5,192.5 708.5,191.5 708.5,191.5 
		708.5,191.5 708.5,191.5 708.5,191.5 709.5,190.5 709.5,190.5 709.5,190.5 709.5,190.5 709.5,189.5 709.5,189.5 709.5,189.5 
		709.5,188.5 709.5,188.5 709.5,188.5 709.5,188.5 	"/>
</g>
</svg>
