<?xml version="1.0" encoding="UTF-8" standalone="no"?><svg width="282.222mm" height="141.111mm" xmlns="http://www.w3.org/2000/svg" xmlns:xlink="http://www.w3.org/1999/xlink"  version="1.2" baseProfile="tiny"><g fill="none" stroke="#ff0000" stroke-linecap="round" stroke-linejoin="round" stroke-opacity="1" stroke-width="1.5" transform="matrix(1,0,0,1,0,0)">
<polyline fill="none" points="69,351 69,350 69,350 69,350 69,350 69,350 69,350 69,350 69,350 69,350 69,350 70,350 70,350 70,350 70,350 70,350 70,350 70,350 70,350 70,349 70,349 70,349 70,349 70,349 71,349 71,349 71,349 71,349 71,349 71,349 71,349 71,349 71,349 71,349 71,349 71,349 71,349 72,349 72,349 72,349 72,349 72,349 72,349 72,349 72,349 72,349 72,349 72,349 72,349 72,349 73,349 73,349 73,349 73,349 73,349 73,349 73,349 73,349 73,349 73,349 73,349 73,349 73,349 74,348 74,348 74,348 74,348 74,348 74,348 74,348 74,348 74,348 74,348 74,348 74,348 74,348 75,348 75,348 75,348 75,348 75,347 75,347 75,347 75,347 75,347 75,347 75,347 75,347 75,347 76,347 76,347 76,347 76,347 76,347 76,347 76,347 76,347 76,347 76,347 76,347 76,347 76,347 77,347 77,347 77,346 77,346 77,346 77,346 77,346 77,346 77,346 77,346 77,346 77,346 77,346 78,346 78,346 78,346 78,346 78,346 78,346 78,346 78,346 78,346 78,346 78,346 78,346 78,346 79,346 79,346 79,346 79,346 79,346 79,346 79,346 79,345 79,345 79,345 79,345 79,345 79,345 80,345 80,345 80,345 80,345 80,345 80,345 80,345 80,345 80,345 80,345 80,345 80,345 80,345 81,345 81,344 81,344 81,344 81,344 81,344 81,344 81,344 81,344 81,344 81,344 81,344 81,344 82,344 82,345 82,345 82,345 82,345 82,345 82,345 82,345 82,345 82,345 82,345 82,345 82,345 83,345 83,345 83,344 83,344 83,344 83,344 83,344 83,344 83,344 83,344 83,344 83,345 83,345 84,345 84,345 84,345 84,345 84,345 84,345 84,345 84,345 84,345 84,345 84,345 84,345 84,345 85,345 85,345 85,344 85,344 85,344 85,344 85,344 85,344 85,344 85,344 85,344 85,344 85,344 86,344 86,343 86,343 86,343 86,343 86,343 86,343 86,343 86,343 86,343 86,343 86,343 86,343 87,343 87,343 87,343 87,343 87,343 87,343 87,343 87,343 87,343 87,343 87,343 87,343 87,343 88,343 88,343 88,343 88,343 88,343 88,343 88,343 88,343 88,343 88,343 88,343 88,343 88,343 89,343 89,343 89,343 89,343 89,343 89,343 89,343 89,342 89,342 89,342 89,342 89,342 89,342 90,342 90,341 90,341 90,341 90,341 90,341 90,341 90,341 90,341 90,341 90,341 90,341 90,341 91,341 91,341 91,341 91,341 91,341 91,341 91,341 91,341 91,341 91,341 91,341 91,341 91,341 92,341 92,341 92,341 92,341 92,341 92,341 92,341 92,341 92,341 92,341 92,341 92,341 92,341 93,341 93,341 93,341 93,341 93,341 93,341 93,341 93,341 93,341 93,341 93,341 93,341 93,341 94,341 94,341 94,341 94,341 94,342 94,342 94,342 94,342 94,342 94,342 94,342 94,342 94,342 95,342 95,342 95,342 95,342 95,342 95,342 95,342 95,342 95,342 95,342 95,341 95,341 95,341 96,341 96,341 96,341 96,341 96,341 96,341 96,341 96,341 96,341 96,341 96,341 96,341 96,341 97,340 97,340 97,340 97,340 97,340 97,340 97,340 97,340 97,340 97,340 97,340 97,340 97,340 98,340 98,340 98,340 98,340 98,340 98,340 98,340 98,341 98,341 98,341 98,341 98,341 98,341 99,341 99,341 99,341 99,341 99,341 99,341 99,341 99,341 99,341 99,341 99,341 99,341 99,341 100,341 100,340 100,340 100,340 100,340 100,340 100,340 100,340 100,340 100,340 100,340 100,339 100,339 101,339 101,339 101,339 101,339 101,339 101,339 101,339 101,339 101,339 101,339 101,339 101,339 101,339 102,339 102,339 102,339 102,339 102,339 102,340 102,340 102,340 102,340 102,340 102,340 102,340 102,340 103,340 103,340 103,340 103,340 103,341 103,341 103,341 103,341 103,341 103,341 103,341 103,341 103,341 104,341 104,341 104,341 104,341 104,342 104,342 104,342 104,342 104,342 104,342 104,342 104,342 104,342 105,342 105,342 105,342 105,342 105,342 105,342 105,342 105,342 105,342 105,342 105,342 105,342 105,342 106,342 106,341 106,341 106,341 106,341 106,341 106,341 106,341 106,341 106,341 106,341 106,341 106,341 107,341 107,341 107,341 107,341 107,341 107,341 107,341 107,341 107,341 107,341 107,341 107,341 107,341 108,341 108,341 108,341 108,341 108,341 108,341 108,341 108,340 108,340 108,340 108,340 108,340 108,339 109,339 109,339 109,339 109,339 109,338 109,338 109,338 109,338 109,338 109,338 109,338 109,338 109,338 110,338 110,338 110,338 110,338 110,338 110,338 110,338 110,338 110,338 110,338 110,338 110,338 110,338 111,338 111,338 111,338 111,339 111,339 111,338 111,338 111,338 111,338 111,338 111,338 111,338 111,338 112,338 112,338 112,338 112,338 112,338 112,338 112,338 112,338 112,338 112,338 112,338 112,338 112,338 113,338 113,338 113,338 113,338 113,338 113,337 113,337 113,337 113,337 113,337 113,337 113,337 113,337 114,337 114,337 114,337 114,338 114,338 114,338 114,337 114,337 114,337 114,337 114,337 114,337 114,337 115,337 115,337 115,336 115,336 115,336 115,336 115,336 115,336 115,336 115,336 115,336 115,336 115,336 116,336 116,336 116,336 116,336 116,336 116,336 116,336 116,336 116,336 116,336 116,336 116,336 116,336 117,336 117,336 117,336 117,336 117,336 117,336 117,336 117,336 117,335 117,335 117,335 117,335 117,335 118,335 118,335 118,335 118,335 118,335 118,335 118,335 118,335 118,335 118,335 118,335 118,335 118,335 119,335 119,335 119,335 119,335 119,335 119,335 119,335 119,335 119,335 119,335 119,335 119,335 119,335 120,336 120,336 120,336 120,336 120,336 120,336 120,336 120,336 120,336 120,336 120,336 120,335 120,335 121,335 121,335 121,335 121,335 121,335 121,335 121,335 121,335 121,335 121,336 121,336 121,336 121,336 122,336 122,336 122,336 122,336 122,336 122,336 122,336 122,336 122,336 122,336 122,336 122,336 122,336 123,337 123,337 123,337 123,337 123,337 123,337 123,337 123,337 123,337 123,337 123,337 123,338 123,338 124,338 124,338 124,338 124,338 124,338 124,338 124,338 124,338 124,338 124,338 124,338 124,338 124,338 125,338 125,338 125,338 125,338 125,338 125,337 125,338 125,338 125,338 125,338 125,339 125,339 125,339 126,339 126,339 126,339 126,339 126,339 126,339 126,339 126,339 126,339 126,339 126,339 126,339 126,339 127,339 127,339 127,339 127,339 127,339 127,339 127,339 127,339 127,339 127,339 127,339 127,339 127,339 128,339 128,339 128,339 128,339 128,339 128,339 128,339 128,339 128,340 128,340 128,340 128,340 128,340 129,340 129,340 129,340 129,340 129,340 129,340 129,340 129,340 129,340 129,340 129,340 129,340 129,341 130,340 130,340 130,341 130,341 130,341 130,341 130,341 130,341 130,341 130,340 130,340 130,340 130,340 131,340 131,340 131,340 131,340 131,340 131,340 131,340 131,340 131,340 131,340 131,340 131,340 131,340 132,340 132,340 132,340 132,340 132,340 132,340 132,340 132,340 132,340 132,340 132,340 132,340 132,340 133,340 133,340 133,340 133,339 133,339 133,339 133,339 133,339 133,339 133,339 133,339 133,339 133,339 134,339 134,339 134,339 134,339 134,339 134,339 134,339 134,339 134,339 134,339 134,339 134,339 134,340 135,340 135,340 135,340 135,340 135,340 135,340 135,340 135,340 135,340 135,340 135,340 135,340 135,340 136,340 136,340 136,340 136,340 136,340 136,340 136,340 136,340 136,340 136,340 136,340 136,340 136,340 137,340 137,340 137,340 137,340 137,340 137,340 137,340 137,340 137,340 137,340 137,340 137,340 137,340 138,340 138,340 138,340 138,340 138,341 138,340 138,340 138,340 138,339 138,339 138,339 138,339 138,339 139,339 139,339 139,339 139,339 139,339 139,339 139,339 139,339 139,340 139,340 139,340 139,340 139,340 140,339 140,339 140,339 140,339 140,339 140,339 140,338 140,338 140,338 140,338 140,338 140,338 140,338 141,338 141,338 141,338 141,338 141,338 141,338 141,338 141,337 141,337 141,337 141,337 141,337 141,337 142,337 142,338 142,338 142,338 142,338 142,338 142,338 142,338 142,338 142,338 142,338 142,338 142,338 143,338 143,338 143,338 143,338 143,338 143,338 143,338 143,338 143,338 143,338 143,338 143,337 143,337 144,337 144,337 144,337 144,337 144,337 144,337 144,337 144,337 144,337 144,337 144,337 144,337 144,337 145,338 145,338 145,338 145,338 145,338 145,338 145,339 145,339 145,339 145,339 145,339 145,339 145,339 146,339 146,339 146,339 146,339 146,339 146,339 146,339 146,339 146,339 146,339 146,339 146,339 146,339 147,339 147,339 147,340 147,340 147,340 147,340 147,340 147,340 147,340 147,340 147,340 147,340 147,340 148,340 148,340 148,340 148,340 148,340 148,340 148,340 148,340 148,340 148,340 148,340 148,340 148,340 149,340 149,340 149,340 149,340 149,340 149,340 149,340 149,340 149,340 149,340 149,340 149,340 149,340 150,340 150,340 150,340 150,340 150,339 150,339 150,339 150,339 150,339 150,340 150,340 150,340 150,340 151,340 151,340 151,340 151,340 151,340 151,339 151,338 151,338 151,338 151,338 151,338 151,337 151,337 152,337 152,337 152,337 152,337 152,337 152,337 152,337 152,337 152,337 152,337 152,338 152,338 152,338 153,338 153,338 153,338 153,338 153,338 153,338 153,338 153,339 153,339 153,339 153,339 153,339 153,340 154,340 154,340 154,340 154,341 154,341 154,341 154,342 154,342 154,342 154,342 154,342 154,343 154,343 155,343 155,343 155,343 155,343 155,342 155,342 155,342 155,342 155,342 155,342 155,343 155,343 155,342 156,342 156,341 156,341 156,340 156,340 156,340 156,339 156,339 156,339 156,339 156,338 156,338 156,338 157,337 157,337 157,337 157,337 157,337 157,337 157,337 157,337 157,337 157,337 157,337 157,337 157,337 158,337 158,336 158,336 158,336 158,337 158,337 158,337 158,336 158,336 158,336 158,336 158,336 158,336 159,336 159,336 159,336 159,336 159,336 159,336 159,336 159,336 159,336 159,336 159,336 159,336 159,336 160,336 160,336 160,336 160,336 160,336 160,336 160,336 160,336 160,336 160,336 160,336 160,336 160,336 161,336 161,336 161,336 161,336 161,336 161,336 161,336 161,336 161,336 161,336 161,336 161,336 161,336 162,336 162,336 162,336 162,336 162,336 162,336 162,336 162,336 162,336 162,336 162,336 162,336 162,336 163,336 163,336 163,335 163,335 163,335 163,335 163,335 163,335 163,335 163,334 163,334 163,334 163,334 164,334 164,334 164,333 164,333 164,333 164,334 164,334 164,334 164,333 164,333 164,333 164,333 164,333 165,333 165,333 165,333 165,332 165,332 165,332 165,332 165,332 165,333 165,333 165,333 165,333 165,333 166,333 166,333 166,333 166,333 166,333 166,333 166,333 166,332 166,332 166,332 166,332 166,332 166,332 167,332 167,332 167,332 167,332 167,332 167,332 167,331 167,331 167,331 167,331 167,332 167,332 167,332 168,332 168,332 168,332 168,332 168,332 168,333 168,333 168,333 168,333 168,333 168,333 168,333 168,333 169,333 169,333 169,333 169,333 169,333 169,333 169,333 169,333 169,333 169,333 169,333 169,333 169,334 170,334 170,334 170,334 170,334 170,334 170,334 170,334 170,335 170,335 170,335 170,335 170,335 170,335 171,335 171,335 171,335 171,335 171,335 171,335 171,335 171,335 171,335 171,335 171,335 171,335 171,335 172,335 172,335 172,335 172,335 172,335 172,335 172,335 172,335 172,335 172,335 172,335 172,335 172,335 173,335 173,335 173,335 173,335 173,335 173,334 173,334 173,334 173,335 173,335 173,335 173,335 173,335 174,335 174,335 174,335 174,335 174,335 174,335 174,335 174,335 174,335 174,335 174,334 174,334 174,334 175,334 175,333 175,334 175,334 175,334 175,334 175,334 175,334 175,334 175,334 175,334 175,335 175,335 176,335 176,335 176,335 176,335 176,335 176,334 176,334 176,334 176,334 176,334 176,334 176,334 176,334 177,333 177,333 177,333 177,332 177,332 177,332 177,333 177,333 177,333 177,333 177,333 177,333 177,333 178,334 178,334 178,334 178,334 178,334 178,334 178,334 178,334 178,334 178,334 178,334 178,334 178,334 179,333 179,333 179,333 179,333 179,333 179,333 179,333 179,333 179,333 179,333 179,333 179,333 179,333 180,334 180,334 180,334 180,334 180,334 180,334 180,334 180,334 180,334 180,334 180,334 180,334 180,334 181,334 181,334 181,334 181,334 181,334 181,334 181,334 181,333 181,332 181,332 181,331 181,332 181,332 182,332 182,331 182,331 182,331 182,331 182,331 182,331 182,330 182,330 182,330 182,329 182,329 182,329 183,329 183,329 183,328 183,328 183,328 183,328 183,327 183,327 183,326 183,326 183,326 183,326 183,326 184,326 184,325 184,325 184,325 184,324 184,324 184,324 184,324 184,324 184,323 184,323 184,323 184,323 185,323 185,322 185,322 185,322 185,322 185,322 185,322 185,322 185,321 185,321 185,321 185,321 185,321 186,321 186,321 186,321 186,321 186,320 186,320 186,320 186,321 186,321 186,321 186,321 186,322 186,322 187,322 187,323 187,324 187,324 187,324 187,325 187,325 187,325 187,325 187,326 187,326 187,326 187,326 188,327 188,327 188,328 188,328 188,329 188,329 188,330 188,330 188,330 188,330 188,331 188,331 188,331 189,332 189,332 189,333 189,333 189,333 189,333 189,333 189,334 189,334 189,333 189,333 189,333 189,334 190,334 190,335 190,335 190,335 190,336 190,336 190,336 190,336 190,336 190,337 190,338 190,338 190,339 191,339 191,340 191,340 191,341 191,341 191,341 191,341 191,341 191,341 191,341 191,341 191,341 191,341 192,341 192,342 192,342 192,342 192,342 192,342 192,342 192,342 192,341 192,341 192,340 192,340 192,339 193,338 193,338 193,337 193,337 193,336 193,336 193,336 193,335 193,335 193,335 193,334 193,334 193,333 194,333 194,333 194,333 194,333 194,333 194,333 194,332 194,332 194,332 194,332 194,332 194,332 194,332 195,331 195,331 195,331 195,331 195,331 195,331 195,331 195,331 195,331 195,330 195,330 195,330 195,330 196,329 196,329 196,329 196,329 196,329 196,329 196,329 196,329 196,329 196,329 196,329 196,329 196,329 197,329 197,328 197,328 197,328 197,328 197,328 197,328 197,328 197,328 197,328 197,328 197,327 197,327 198,327 198,327 198,327 198,327 198,327 198,327 198,327 198,327 198,327 198,328 198,328 198,328 198,328 199,328 199,328 199,328 199,328 199,328 199,328 199,329 199,329 199,329 199,330 199,330 199,331 199,331 200,332 200,332 200,332 200,332 200,332 200,333 200,333 200,334 200,334 200,335 200,335 200,336 200,336 201,336 201,337 201,337 201,337 201,337 201,337 201,338 201,338 201,338 201,338 201,338 201,338 201,338 202,337 202,337 202,338 202,338 202,338 202,338 202,338 202,338 202,338 202,338 202,337 202,337 202,337 203,337 203,337 203,337 203,337 203,337 203,336 203,336 203,337 203,337 203,337 203,337 203,337 203,337 204,337 204,337 204,337 204,337 204,338 204,339 204,340 204,340 204,340 204,340 204,340 204,339 204,338 205,337 205,337 205,336 205,335 205,335 205,334 205,334 205,334 205,334 205,334 205,334 205,334 205,333 206,333 206,333 206,333 206,333 206,333 206,333 206,333 206,333 206,333 206,333 206,333 206,333 206,333 207,333 207,333 207,333 207,333 207,332 207,332 207,332 207,332 207,331 207,331 207,331 207,331 207,330 208,330 208,330 208,329 208,329 208,329 208,329 208,329 208,329 208,329 208,329 208,329 208,328 208,328 209,328 209,328 209,328 209,328 209,328 209,327 209,327 209,327 209,327 209,327 209,327 209,326 209,326 210,326 210,326 210,326 210,326 210,326 210,327 210,327 210,327 210,327 210,328 210,328 210,327 210,327 211,329 211,330 211,331 211,332 211,332 211,332 211,332 211,332 211,333 211,333 211,333 211,333 211,333 212,333 212,333 212,333 212,333 212,333 212,333 212,333 212,333 212,333 212,333 212,333 212,333 212,332 213,332 213,332 213,332 213,331 213,331 213,331 213,331 213,331 213,330 213,330 213,330 213,330 213,330 214,329 214,329 214,329 214,329 214,329 214,328 214,328 214,328 214,328 214,328 214,327 214,327 214,327 215,326 215,326 215,326 215,326 215,326 215,326 215,326 215,326 215,326 215,326 215,325 215,325 215,325 216,325 216,324 216,324 216,324 216,324 216,323 216,323 216,323 216,323 216,323 216,323 216,323 216,323 217,322 217,322 217,322 217,322 217,323 217,323 217,323 217,323 217,323 217,323 217,323 217,322 217,322 218,322 218,322 218,323 218,323 218,323 218,323 218,323 218,322 218,322 218,322 218,323 218,323 218,323 219,324 219,324 219,324 219,324 219,324 219,324 219,324 219,324 219,325 219,325 219,325 219,325 219,325 220,325 220,325 220,326 220,326 220,326 220,327 220,327 220,328 220,328 220,328 220,328 220,328 220,329 221,329 221,329 221,329 221,330 221,330 221,330 221,331 221,331 221,332 221,332 221,332 221,332 221,332 222,332 222,332 222,332 222,332 222,332 222,332 222,331 222,331 222,331 222,331 222,331 222,331 222,331 223,331 223,332 223,333 223,333 223,334 223,333 223,333 223,332 223,332 223,332 223,332 223,332 223,332 224,332 224,332 224,332 224,332 224,332 224,332 224,331 224,331 224,331 224,331 224,331 224,331 224,331 225,331 225,331 225,331 225,330 225,330 225,330 225,330 225,330 225,330 225,329 225,329 225,329 225,329 226,329 226,329 226,329 226,329 226,329 226,329 226,329 226,329 226,329 226,329 226,329 226,329 226,329 227,329 227,329 227,330 227,330 227,330 227,330 227,330 227,330 227,330 227,330 227,330 227,330 227,330 228,330 228,330 228,330 228,330 228,330 228,330 228,330 228,330 228,330 228,330 228,330 228,330 228,330 229,329 229,329 229,329 229,329 229,329 229,328 229,328 229,328 229,328 229,328 229,328 229,327 229,326 230,326 230,325 230,325 230,325 230,325 230,325 230,325 230,324 230,324 230,323 230,323 230,323 230,322 231,322 231,322 231,321 231,321 231,320 231,320 231,320 231,319 231,319 231,318 231,318 231,317 231,317 232,316 232,314 232,313 232,312 232,309 232,308 232,307 232,306 232,305 232,304 232,303 232,302 232,302 233,303 233,303 233,303 233,303 233,303 233,302 233,302 233,302 233,301 233,301 233,301 233,300 233,299 234,299 234,298 234,298 234,297 234,297 234,297 234,296 234,296 234,295 234,295 234,295 234,295 234,294 235,294 235,294 235,294 235,293 235,293 235,293 235,293 235,292 235,292 235,292 235,291 235,292 235,291 236,291 236,291 236,290 236,290 236,289 236,289 236,288 236,287 236,287 236,286 236,285 236,283 236,281 237,280 237,278 237,278 237,279 237,280 237,281 237,281 237,282 237,282 237,282 237,281 237,281 237,281 238,280 238,280 238,279 238,279 238,278 238,278 238,278 238,278 238,278 238,278 238,278 238,278 238,278 239,279 239,279 239,279 239,279 239,279 239,281 239,282 239,282 239,282 239,282 239,281 239,280 239,279 240,279 240,279 240,278 240,277 240,277 240,276 240,276 240,275 240,273 240,272 240,271 240,270 240,269 241,268 241,267 241,266 241,265 241,265 241,263 241,262 241,262 241,261 241,260 241,259 241,259 241,258 242,257 242,257 242,256 242,255 242,255 242,255 242,254 242,253 242,253 242,252 242,252 242,251 242,251 243,251 243,251 243,251 243,251 243,250 243,250 243,250 243,249 243,249 243,248 243,248 243,247 243,247 244,247 244,246 244,246 244,245 244,245 244,244 244,244 244,244 244,243 244,243 244,243 244,242 244,242 245,242 245,242 245,241 245,241 245,241 245,241 245,240 245,240 245,240 245,240 245,239 245,239 245,239 246,238 246,238 246,237 246,236 246,236 246,236 246,237 246,240 246,241 246,242 246,244 246,245 246,247 247,248 247,248 247,249 247,250 247,250 247,251 247,252 247,253 247,254 247,255 247,255 247,255 247,256 248,256 248,257 248,257 248,257 248,256 248,256 248,255 248,255 248,256 248,257 248,258 248,259 248,260 248,261 249,262 249,263 249,263 249,263 249,264 249,265 249,266 249,268 249,269 249,271 249,273 249,275 249,278 250,280 250,281 250,283 250,284 250,285 250,286 250,287 250,287 250,288 250,287 250,287 250,287 250,286 251,285 251,285 251,284 251,283 251,281 251,279 251,277 251,275 251,273 251,271 251,269 251,268 251,268 252,268 252,267 252,267 252,267 252,267 252,267 252,267 252,268 252,268 252,268 252,268 252,268 252,269 253,269 253,269 253,269 253,269 253,270 253,270 253,271 253,273 253,273 253,274 253,276 253,277 253,277 254,278 254,278 254,278 254,278 254,278 254,278 254,278 254,278 254,278 254,278 254,279 254,280 254,281 255,281 255,281 255,281 255,281 255,280 255,279 255,279 255,278 255,278 255,279 255,279 255,280 255,281 256,281 256,282 256,282 256,283 256,283 256,284 256,284 256,285 256,285 256,286 256,286 256,287 256,287 257,288 257,289 257,290 257,290 257,290 257,291 257,291 257,291 257,291 257,292 257,294 257,296 257,298 258,300 258,302 258,304 258,306 258,308 258,309 258,309 258,310 258,310 258,310 258,310 258,311 258,311 259,310 259,310 259,309 259,309 259,309 259,308 259,308 259,307 259,307 259,306 259,306 259,306 259,305 260,305 260,305 260,305 260,305 260,305 260,305 260,305 260,305 260,305 260,305 260,304 260,304 260,304 261,304 261,304 261,305 261,305 261,305 261,305 261,305 261,305 261,305 261,306 261,306 261,306 261,306 262,307 262,307 262,307 262,308 262,308 262,308 262,309 262,309 262,309 262,309 262,309 262,310 262,309 263,309 263,309 263,308 263,308 263,308 263,308 263,308 263,308 263,308 263,308 263,308 263,308 263,308 264,308 264,308 264,308 264,308 264,308 264,307 264,307 264,307 264,307 264,307 264,307 264,307 264,306 265,306 265,306 265,306 265,306 265,306 265,306 265,306 265,306 265,306 265,306 265,306 265,306 265,306 266,306 266,306 266,306 266,306 266,306 266,306 266,306 266,306 266,306 266,307 266,307 266,307 266,307 267,307 267,307 267,307 267,307 267,307 267,307 267,307 267,308 267,308 267,308 267,308 267,307 267,307 268,306 268,305 268,305 268,304 268,303 268,301 268,299 268,297 268,295 268,293 268,291 268,289 268,286 269,284 269,281 269,279 269,276 269,274 269,271 269,269 269,268 269,267 269,267 269,266 269,266 269,266 270,266 270,266 270,266 270,265 270,265 270,264 270,264 270,263 270,263 270,262 270,262 270,261 270,261 271,261 271,260 271,260 271,260 271,259 271,258 271,258 271,258 271,257 271,257 271,257 271,256 271,256 272,256 272,255 272,255 272,254 272,254 272,253 272,253 272,252 272,251 272,251 272,250 272,249 272,248 273,247 273,246 273,245 273,245 273,245 273,244 273,244 273,244 273,244 273,244 273,244 273,244 273,244 274,244 274,244 274,243 274,243 274,243 274,243 274,243 274,243 274,243 274,242 274,243 274,243 274,243 275,243 275,244 275,244 275,244 275,245 275,246 275,246 275,247 275,248 275,249 275,249 275,250 275,251 276,252 276,253 276,254 276,255 276,256 276,257 276,258 276,259 276,260 276,261 276,262 276,264 276,265 277,267 277,268 277,269 277,270 277,271 277,273 277,275 277,277 277,279 277,280 277,281 277,281 277,282 278,283 278,283 278,283 278,283 278,284 278,283 278,283 278,283 278,283 278,283 278,283 278,283 278,283 279,284 279,284 279,284 279,283 279,282 279,280 279,279 279,278 279,277 279,277 279,276 279,275 279,274 280,274 280,273 280,272 280,271 280,269 280,268 280,267 280,266 280,266 280,266 280,265 280,264 280,264 281,263 281,262 281,262 281,261 281,260 281,259 281,259 281,258 281,257 281,257 281,257 281,257 281,256 282,256 282,256 282,256 282,257 282,257 282,258 282,258 282,258 282,258 282,259 282,259 282,259 282,260 283,261 283,262 283,262 283,263 283,264 283,265 283,266 283,266 283,266 283,265 283,266 283,265 283,263 284,262 284,261 284,260 284,258 284,257 284,255 284,254 284,253 284,251 284,250 284,249 284,248 284,247 285,246 285,244 285,243 285,241 285,240 285,239 285,238 285,237 285,236 285,235 285,234 285,233 285,232 286,230 286,229 286,228 286,226 286,225 286,224 286,223 286,222 286,221 286,220 286,219 286,217 286,217 287,217 287,217 287,216 287,216 287,216 287,217 287,218 287,218 287,218 287,219 287,219 287,219 287,220 288,220 288,220 288,221 288,221 288,222 288,222 288,223 288,223 288,224 288,224 288,225 288,226 288,227 289,229 289,231 289,232 289,233 289,234 289,234 289,235 289,235 289,236 289,236 289,237 289,237 289,238 290,239 290,240 290,241 290,242 290,244 290,246 290,248 290,250 290,251 290,251 290,251 290,251 290,251 291,251 291,251 291,251 291,250 291,249 291,249 291,248 291,247 291,246 291,246 291,245 291,244 291,243 292,242 292,241 292,241 292,241 292,240 292,240 292,239 292,239 292,237 292,236 292,236 292,235 292,235 293,234 293,233 293,233 293,232 293,231 293,230 293,229 293,228 293,227 293,226 293,224 293,223 293,221 294,220 294,218 294,215 294,213 294,212 294,211 294,210 294,209 294,208 294,207 294,206 294,204 294,203 295,202 295,201 295,200 295,199 295,198 295,197 295,196 295,195 295,194 295,193 295,193 295,192 295,191 296,190 296,189 296,189 296,188 296,187 296,186 296,186 296,186 296,186 296,186 296,186 296,186 296,185 297,185 297,185 297,184 297,184 297,184 297,183 297,183 297,183 297,182 297,182 297,182 297,181 297,181 298,181 298,181 298,180 298,179 298,180 298,180 298,181 298,181 298,182 298,182 298,183 298,183 298,183 299,183 299,184 299,184 299,184 299,184 299,185 299,185 299,185 299,185 299,185 299,185 299,185 299,185 300,185 300,185 300,185 300,184 300,183 300,182 300,181 300,180 300,179 300,178 300,178 300,178 300,178 301,177 301,177 301,178 301,178 301,178 301,179 301,179 301,179 301,180 301,180 301,180 301,180 301,181 302,181 302,180 302,180 302,181 302,181 302,181 302,182 302,182 302,183 302,185 302,185 302,186 302,187 303,188 303,189 303,190 303,191 303,191 303,192 303,193 303,194 303,194 303,195 303,195 303,196 303,196 304,196 304,197 304,197 304,198 304,198 304,198 304,199 304,199 304,200 304,200 304,200 304,199 304,199 305,199 305,198 305,198 305,197 305,197 305,196 305,195 305,194 305,193 305,192 305,191 305,190 305,189 306,188 306,187 306,185 306,184 306,183 306,184 306,184 306,185 306,185 306,185 306,185 306,185 306,185 307,185 307,184 307,184 307,184 307,184 307,184 307,184 307,184 307,184 307,183 307,183 307,183 307,183 308,183 308,183 308,183 308,183 308,183 308,183 308,183 308,183 308,183 308,184 308,184 308,184 308,185 309,185 309,186 309,186 309,186 309,187 309,187 309,187 309,188 309,188 309,188 309,188 309,188 309,188 310,188 310,188 310,188 310,188 310,189 310,188 310,188 310,188 310,187 310,187 310,187 310,187 310,187 311,186 311,186 311,186 311,185 311,185 311,184 311,184 311,184 311,183 311,183 311,182 311,182 311,182 312,181 312,181 312,180 312,180 312,180 312,179 312,179 312,179 312,178 312,178 312,178 312,178 312,178 313,177 313,177 313,177 313,177 313,177 313,177 313,177 313,177 313,177 313,176 313,176 313,176 313,176 314,176 314,176 314,176 314,176 314,176 314,176 314,177 314,177 314,177 314,177 314,178 314,178 314,178 315,179 315,179 315,180 315,180 315,180 315,181 315,181 315,181 315,182 315,181 315,181 315,181 315,182 316,183 316,184 316,186 316,187 316,189 316,191 316,192 316,194 316,196 316,197 316,199 316,200 316,201 317,202 317,202 317,202 317,202 317,203 317,204 317,205 317,207 317,209 317,210 317,211 317,212 317,214 318,215 318,216 318,217 318,219 318,220 318,221 318,222 318,223 318,224 318,224 318,225 318,225 318,226 319,228 319,230 319,232 319,233 319,235 319,237 319,238 319,240 319,241 319,242 319,243 319,245 319,246 320,247 320,249 320,250 320,251 320,253 320,254 320,255 320,255 320,256 320,256 320,257 320,256 320,256 321,256 321,256 321,256 321,256 321,256 321,256 321,256 321,255 321,255 321,255 321,255 321,256 321,256 322,256 322,255 322,255 322,255 322,255 322,255 322,256 322,256 322,256 322,257 322,257 322,258 322,258 323,258 323,258 323,258 323,258 323,258 323,259 323,259 323,259 323,259 323,259 323,259 323,259 323,259 324,259 324,259 324,258 324,257 324,256 324,255 324,254 324,253 324,251 324,251 324,251 324,251 324,250 325,248 325,247 325,246 325,245 325,244 325,243 325,242 325,241 325,241 325,240 325,239 325,238 325,236 326,236 326,236 326,236 326,235 326,235 326,235 326,235 326,236 326,236 326,236 326,236 326,236 326,236 327,236 327,236 327,236 327,236 327,236 327,235 327,235 327,235 327,235 327,235 327,234 327,234 327,234 328,234 328,234 328,234 328,234 328,235 328,236 328,236 328,236 328,236 328,237 328,237 328,236 328,236 329,236 329,235 329,235 329,236 329,237 329,237 329,238 329,237 329,236 329,236 329,236 329,236 329,235 330,236 330,238 330,238 330,239 330,239 330,239 330,241 330,242 330,243 330,243 330,243 330,243 330,244 331,244 331,245 331,245 331,245 331,245 331,245 331,245 331,245 331,247 331,247 331,247 331,248 331,247 332,247 332,246 332,246 332,245 332,245 332,245 332,244 332,243 332,243 332,242 332,241 332,240 332,239 333,238 333,238 333,237 333,236 333,235 333,234 333,233 333,233 333,232 333,231 333,230 333,229 333,228 334,227 334,226 334,225 334,224 334,223 334,222 334,221 334,220 334,219 334,219 334,218 334,217 334,216 335,215 335,215 335,214 335,214 335,214 335,214 335,214 335,214 335,214 335,214 335,214 335,214 335,214 336,214 336,214 336,214 336,214 336,214 336,214 336,214 336,214 336,213 336,213 336,213 336,213 336,214 337,214 337,214 337,214 337,214 337,215 337,215 337,215 337,215 337,215 337,215 337,215 337,215 337,215 338,215 338,215 338,215 338,215 338,214 338,213 338,212 338,212 338,211 338,210 338,209 338,208 338,206 339,205 339,204 339,203 339,203 339,202 339,202 339,201 339,201 339,201 339,201 339,201 339,201 339,201 340,201 340,201 340,201 340,201 340,201 340,201 340,201 340,201 340,201 340,201 340,201 340,201 340,201 341,201 341,201 341,201 341,201 341,201 341,202 341,203 341,204 341,205 341,207 341,209 341,211 341,212 342,213 342,214 342,215 342,216 342,217 342,217 342,217 342,218 342,217 342,217 342,216 342,216 342,215 343,214 343,213 343,212 343,211 343,210 343,209 343,208 343,207 343,206 343,204 343,203 343,202 343,200 344,199 344,198 344,197 344,195 344,194 344,193 344,191 344,190 344,188 344,187 344,185 344,184 344,183 345,181 345,180 345,178 345,176 345,175 345,173 345,173 345,172 345,170 345,170 345,171 345,172 345,172 346,172 346,172 346,173 346,173 346,173 346,173 346,173 346,174 346,174 346,174 346,174 346,174 346,174 347,174 347,173 347,173 347,173 347,174 347,174 347,174 347,174 347,175 347,175 347,175 347,176 347,177 348,178 348,179 348,180 348,181 348,182 348,183 348,184 348,185 348,186 348,186 348,187 348,188 348,189 349,189 349,190 349,191 349,191 349,192 349,193 349,193 349,194 349,194 349,194 349,195 349,195 349,195 350,195 350,194 350,194 350,193 350,192 350,191 350,190 350,189 350,188 350,188 350,187 350,186 350,185 351,184 351,183 351,182 351,182 351,182 351,181 351,181 351,181 351,181 351,181 351,181 351,181 351,181 352,180 352,180 352,180 352,180 352,180 352,180 352,180 352,180 352,180 352,180 352,180 352,180 352,181 353,180 353,181 353,181 353,182 353,183 353,183 353,184 353,185 353,186 353,187 353,188 353,189 353,190 354,190 354,190 354,190 354,191 354,190 354,189 354,189 354,188 354,188 354,188 354,188 354,188 354,189 355,189 355,189 355,189 355,190 355,190 355,190 355,191 355,191 355,191 355,192 355,192 355,192 355,192 356,192 356,193 356,193 356,193 356,194 356,194 356,194 356,196 356,195 356,195 356,195 356,195 356,195 357,195 357,195 357,195 357,195 357,194 357,194 357,194 357,194 357,194 357,194 357,194 357,193 357,192 358,192 358,192 358,192 358,192 358,192 358,191 358,191 358,190 358,190 358,190 358,189 358,189 358,189 359,189 359,188 359,188 359,188 359,187 359,187 359,187 359,187 359,186 359,186 359,186 359,185 359,185 360,184 360,184 360,183 360,182 360,182 360,181 360,180 360,179 360,177 360,176 360,175 360,173 360,172 361,171 361,169 361,168 361,167 361,165 361,164 361,164 361,163 361,163 361,162 361,161 361,161 361,160 362,159 362,159 362,159 362,159 362,158 362,158 362,157 362,156 362,156 362,155 362,155 362,155 362,155 363,154 363,154 363,154 363,154 363,153 363,153 363,153 363,152 363,152 363,151 363,150 363,150 363,150 364,150 364,150 364,150 364,150 364,150 364,150 364,150 364,150 364,150 364,149 364,149 364,148 364,148 365,147 365,147 365,146 365,145 365,145 365,144 365,144 365,143 365,142 365,142 365,142 365,142 365,142 366,142 366,141 366,141 366,141 366,140 366,140 366,139 366,139 366,138 366,138 366,137 366,137 366,136 367,135 367,135 367,134 367,133 367,132 367,131 367,130 367,129 367,128 367,127 367,125 367,124 367,123 368,122 368,122 368,123 368,123 368,124 368,125 368,125 368,125 368,126 368,126 368,126 368,126 368,126 369,126 369,125 369,125 369,125 369,126 369,126 369,126 369,126 369,126 369,126 369,126 369,127 369,127 370,127 370,128 370,129 370,129 370,130 370,130 370,131 370,132 370,133 370,133 370,134 370,135 370,135 371,136 371,136 371,137 371,137 371,138 371,138 371,138 371,138 371,138 371,138 371,138 371,138 371,138 372,139 372,139 372,139 372,139 372,139 372,139 372,139 372,139 372,139 372,139 372,139 372,139 372,139 373,139 373,140 373,141 373,141 373,141 373,142 373,144 373,145 373,146 373,147 373,148 373,149 373,150 374,150 374,151 374,152 374,153 374,154 374,155 374,157 374,158 374,159 374,160 374,161 374,162 374,163 375,163 375,163 375,163 375,164 375,165 375,166 375,167 375,168 375,169 375,169 375,169 375,169 375,169 376,169 376,169 376,169 376,169 376,169 376,169 376,169 376,169 376,170 376,170 376,170 376,170 376,170 377,169 377,170 377,169 377,168 377,168 377,168 377,169 377,170 377,171 377,172 377,172 377,173 377,174 378,175 378,177 378,179 378,181 378,182 378,184 378,186 378,187 378,188 378,188 378,188 378,187 378,188 379,188 379,188 379,188 379,187 379,187 379,187 379,187 379,187 379,187 379,187 379,187 379,187 379,186 380,186 380,186 380,185 380,185 380,184 380,183 380,182 380,182 380,181 380,181 380,180 380,180 380,180 381,179 381,179 381,178 381,177 381,176 381,176 381,176 381,175 381,174 381,174 381,173 381,172 381,171 382,169 382,168 382,167 382,166 382,165 382,164 382,163 382,162 382,161 382,159 382,158 382,157 382,156 383,156 383,155 383,155 383,156 383,156 383,157 383,157 383,157 383,157 383,157 383,157 383,157 383,157 384,157 384,157 384,157 384,157 384,157 384,157 384,156 384,157 384,157 384,156 384,156 384,156 384,157 385,159 385,160 385,162 385,163 385,165 385,166 385,167 385,169 385,170 385,171 385,172 385,174 385,175 386,176 386,177 386,179 386,180 386,182 386,183 386,183 386,184 386,184 386,184 386,184 386,183 386,183 387,182 387,182 387,181 387,181 387,180 387,179 387,179 387,178 387,177 387,177 387,176 387,175 387,174 388,173 388,173 388,172 388,171 388,170 388,170 388,170 388,170 388,169 388,169 388,168 388,168 388,168 389,168 389,168 389,167 389,167 389,166 389,166 389,166 389,165 389,164 389,164 389,163 389,162 389,161 390,160 390,159 390,158 390,157 390,156 390,154 390,153 390,152 390,151 390,150 390,149 390,148 390,146 391,144 391,143 391,141 391,139 391,138 391,137 391,135 391,134 391,134 391,133 391,132 391,131 391,130 392,129 392,128 392,127 392,128 392,128 392,128 392,128 392,129 392,129 392,129 392,129 392,130 392,130 393,130 393,131 393,131 393,131 393,132 393,132 393,132 393,132 393,132 393,133 393,132 393,132 393,132 394,132 394,132 394,131 394,131 394,130 394,130 394,130 394,130 394,132 394,132 394,133 394,134 394,135 395,136 395,137 395,138 395,139 395,140 395,141 395,142 395,144 395,145 395,146 395,147 395,148 395,150 396,151 396,152 396,153 396,155 396,156 396,158 396,160 396,162 396,163 396,165 396,166 396,166 396,167 397,169 397,170 397,172 397,173 397,175 397,176 397,178 397,179 397,181 397,182 397,183 397,184 397,185 398,186 398,186 398,187 398,188 398,188 398,188 398,189 398,189 398,190 398,191 398,193 398,194 398,195 399,195 399,195 399,195 399,195 399,195 399,196 399,196 399,196 399,196 399,196 399,196 399,196 399,197 400,197 400,197 400,197 400,197 400,196 400,196 400,196 400,196 400,195 400,195 400,195 400,194 400,193 401,193 401,193 401,192 401,191 401,190 401,189 401,188 401,188 401,187 401,186 401,185 401,185 401,184 402,184 402,183 402,183 402,183 402,182 402,182 402,182 402,182 402,182 402,182 402,181 402,181 402,181 403,181 403,181 403,181 403,180 403,180 403,179 403,179 403,178 403,177 403,177 403,176 403,175 403,174 404,173 404,172 404,171 404,170 404,169 404,168 404,167 404,166 404,165 404,164 404,163 404,162 404,161 405,160 405,159 405,158 405,157 405,156 405,155 405,154 405,154 405,153 405,152 405,152 405,151 405,151 406,150 406,150 406,149 406,149 406,148 406,148 406,147 406,147 406,147 406,147 406,146 406,146 406,146 407,146 407,146 407,146 407,146 407,146 407,147 407,147 407,147 407,147 407,146 407,146 407,146 407,146 408,145 408,145 408,145 408,146 408,146 408,147 408,148 408,150 408,152 408,154 408,156 408,157 408,159 409,161 409,162 409,164 409,166 409,168 409,171 409,173 409,176 409,178 409,180 409,180 409,181 409,182 410,183 410,183 410,183 410,184 410,184 410,184 410,184 410,184 410,184 410,184 410,184 410,184 410,184 411,184 411,184 411,184 411,184 411,184 411,185 411,185 411,185 411,185 411,185 411,185 411,185 411,185 412,185 412,186 412,186 412,185 412,185 412,185 412,186 412,187 412,187 412,188 412,188 412,189 412,190 413,191 413,191 413,192 413,192 413,192 413,193 413,193 413,193 413,193 413,193 413,193 413,193 413,194 414,194 414,194 414,194 414,194 414,194 414,194 414,194 414,194 414,194 414,194 414,194 414,194 414,194 415,194 415,194 415,194 415,194 415,194 415,193 415,193 415,193 415,192 415,192 415,191 415,190 415,189 416,189 416,188 416,188 416,188 416,187 416,187 416,187 416,187 416,187 416,187 416,187 416,185 416,185 417,185 417,185 417,186 417,186 417,187 417,187 417,188 417,188 417,189 417,189 417,189 417,189 417,189 418,189 418,189 418,189 418,188 418,188 418,187 418,186 418,186 418,185 418,184 418,183 418,182 418,182 419,181 419,180 419,179 419,178 419,177 419,176 419,176 419,175 419,174 419,173 419,173 419,172 419,171 420,170 420,170 420,169 420,168 420,167 420,165 420,164 420,163 420,162 420,161 420,160 420,160 420,159 421,158 421,157 421,156 421,155 421,154 421,153 421,153 421,152 421,151 421,151 421,150 421,149 421,148 422,148 422,147 422,147 422,147 422,146 422,146 422,146 422,145 422,145 422,145 422,145 422,145 422,144 423,144 423,144 423,144 423,144 423,145 423,145 423,145 423,145 423,145 423,145 423,146 423,146 423,147 424,148 424,148 424,149 424,149 424,150 424,151 424,152 424,153 424,154 424,154 424,155 424,155 424,155 425,155 425,156 425,156 425,156 425,157 425,157 425,159 425,160 425,160 425,161 425,160 425,160 425,160 426,159 426,159 426,159 426,160 426,159 426,158 426,157 426,156 426,155 426,155 426,154 426,153 426,151 427,150 427,149 427,147 427,147 427,148 427,149 427,150 427,151 427,151 427,152 427,152 427,152 427,152 428,153 428,153 428,153 428,153 428,153 428,153 428,153 428,152 428,153 428,153 428,154 428,156 428,157 429,158 429,159 429,159 429,160 429,161 429,162 429,162 429,162 429,162 429,162 429,162 429,163 429,163 430,163 430,164 430,164 430,165 430,165 430,166 430,167 430,168 430,168 430,168 430,169 430,169 430,169 431,169 431,170 431,170 431,171 431,171 431,172 431,172 431,172 431,171 431,170 431,170 431,169 431,169 432,168 432,168 432,168 432,168 432,168 432,168 432,169 432,169 432,169 432,170 432,170 432,170 432,170 433,170 433,169 433,169 433,169 433,169 433,169 433,169 433,168 433,168 433,168 433,168 433,167 433,167 434,167 434,167 434,167 434,167 434,166 434,166 434,166 434,166 434,167 434,167 434,167 434,167 434,167 435,167 435,168 435,168 435,168 435,169 435,170 435,171 435,171 435,171 435,170 435,169 435,170 435,170 436,169 436,169 436,170 436,170 436,171 436,171 436,171 436,170 436,169 436,168 436,168 436,167 436,167 437,166 437,166 437,165 437,165 437,165 437,164 437,164 437,164 437,163 437,163 437,163 437,163 437,163 438,162 438,162 438,162 438,161 438,161 438,161 438,160 438,160 438,160 438,160 438,160 438,159 438,159 439,158 439,157 439,156 439,156 439,155 439,154 439,153 439,152 439,152 439,151 439,150 439,149 439,149 440,148 440,147 440,147 440,146 440,146 440,145 440,145 440,144 440,143 440,143 440,142 440,142 440,141 441,141 441,140 441,140 441,139 441,139 441,138 441,138 441,138 441,137 441,137 441,136 441,136 441,136 442,136 442,136 442,136 442,136 442,136 442,136 442,136 442,136 442,136 442,136 442,135 442,135 442,135 443,136 443,136 443,136 443,137 443,138 443,138 443,138 443,139 443,140 443,141 443,141 443,142 443,144 444,145 444,146 444,147 444,147 444,148 444,148 444,149 444,149 444,150 444,149 444,149 444,148 444,148 445,147 445,147 445,146 445,146 445,145 445,145 445,144 445,144 445,143 445,143 445,142 445,142 445,141 446,141 446,140 446,140 446,139 446,139 446,138 446,138 446,138 446,137 446,137 446,136 446,136 446,136 447,136 447,136 447,136 447,136 447,136 447,136 447,136 447,136 447,136 447,136 447,136 447,136 447,135 448,135 448,135 448,135 448,135 448,135 448,135 448,135 448,134 448,134 448,134 448,134 448,133 448,133 449,132 449,132 449,132 449,131 449,131 449,130 449,130 449,130 449,129 449,129 449,129 449,128 449,128 450,128 450,128 450,127 450,127 450,127 450,127 450,126 450,126 450,126 450,126 450,126 450,126 450,126 451,126 451,126 451,126 451,126 451,126 451,126 451,126 451,126 451,127 451,127 451,127 451,127 451,127 452,128 452,128 452,129 452,129 452,129 452,129 452,130 452,130 452,130 452,130 452,131 452,131 452,131 453,131 453,131 453,132 453,132 453,132 453,132 453,132 453,132 453,133 453,133 453,133 453,133 453,133 454,133 454,133 454,133 454,134 454,134 454,134 454,135 454,135 454,135 454,136 454,136 454,136 454,137 455,137 455,137 455,137 455,138 455,138 455,138 455,138 455,138 455,138 455,137 455,137 455,137 455,137 456,137 456,136 456,136 456,136 456,136 456,136 456,136 456,135 456,135 456,135 456,135 456,135 456,135 457,135 457,135 457,135 457,135 457,135 457,135 457,135 457,135 457,135 457,135 457,135 457,135 457,135 458,135 458,135 458,135 458,135 458,135 458,135 458,135 458,135 458,135 458,135 458,135 458,135 458,136 459,136 459,136 459,136 459,136 459,136 459,137 459,137 459,137 459,138 459,138 459,138 459,139 459,139 460,140 460,140 460,141 460,141 460,141 460,141 460,141 460,141 460,141 460,141 460,141 460,141 460,141 461,140 461,140 461,140 461,140 461,139 461,139 461,139 461,139 461,138 461,138 461,138 461,137 461,137 462,137 462,136 462,136 462,136 462,136 462,136 462,135 462,135 462,135 462,134 462,134 462,134 462,133 463,133 463,133 463,132 463,132 463,132 463,131 463,131 463,131 463,131 463,130 463,130 463,130 463,129 464,129 464,129 464,129 464,129 464,128 464,128 464,128 464,128 464,128 464,128 464,128 464,127 464,127 465,127 465,127 465,127 465,127 465,127 465,127 465,127 465,127 465,127 465,127 465,127 465,127 465,127 466,127 466,127 466,127 466,128 466,128 466,128 466,129 466,130 466,130 466,130 466,131 466,131 466,132 467,133 467,134 467,134 467,135 467,136 467,137 467,137 467,138 467,139 467,140 467,140 467,141 467,142 468,142 468,144 468,144 468,145 468,145 468,145 468,145 468,145 468,145 468,145 468,145 468,145 468,146 469,146 469,146 469,146 469,146 469,146 469,146 469,146 469,146 469,146 469,146 469,146 469,146 469,146 470,146 470,146 470,146 470,145 470,145 470,145 470,145 470,145 470,145 470,145 470,145 470,145 470,145 471,145 471,145 471,145 471,145 471,145 471,145 471,145 471,145 471,145 471,145 471,144 471,144 471,144 472,144 472,143 472,143 472,143 472,143 472,143 472,142 472,142 472,142 472,142 472,142 472,141 472,141 473,141 473,141 473,141 473,141 473,141 473,141 473,141 473,140 473,140 473,140 473,140 473,140 473,140 474,140 474,140 474,140 474,140 474,140 474,140 474,140 474,140 474,140 474,140 474,140 474,140 474,140 475,140 475,140 475,140 475,140 475,140 475,140 475,140 475,140 475,140 475,140 475,140 475,140 475,140 476,140 476,140 476,140 476,140 476,140 476,140 476,140 476,140 476,140 476,139 476,139 476,139 476,139 477,139 477,138 477,138 477,138 477,138 477,138 477,138 477,138 477,138 477,138 477,138 477,138 477,138 478,138 478,138 478,138 478,138 478,138 478,138 478,138 478,138 478,138 478,138 478,138 478,138 478,139 479,139 479,139 479,139 479,139 479,139 479,138 479,138 479,138 479,138 479,138 479,138 479,137 479,137 480,137 480,136 480,136 480,136 480,135 480,135 480,135 480,134 480,134 480,133 480,133 480,133 480,132 481,132 481,132 481,131 481,131 481,131 481,130 481,130 481,130 481,130 481,129 481,129 481,129 481,128 482,128 482,128 482,127 482,127 482,127 482,127 482,127 482,126 482,126 482,126 482,126 482,125 482,125 483,125 483,125 483,125 483,125 483,125 483,125 483,125 483,126 483,126 483,125 483,125 483,125 483,125 484,125 484,125 484,125 484,124 484,124 484,124 484,124 484,124 484,123 484,123 484,123 484,122 484,122 485,121 485,121 485,121 485,120 485,119 485,119 485,118 485,118 485,118 485,117 485,117 485,117 485,117 486,116 486,116 486,116 486,117 486,117 486,117 486,117 486,117 486,117 486,118 486,118 486,118 486,118 487,118 487,118 487,118 487,118 487,118 487,118 487,118 487,118 487,118 487,118 487,118 487,119 487,119 488,120 488,120 488,121 488,122 488,123 488,124 488,125 488,125 488,125 488,125 488,125 488,125 488,126 489,126 489,126 489,126 489,126 489,126 489,126 489,126 489,126 489,126 489,126 489,126 489,126 489,126 490,126 490,126 490,126 490,127 490,127 490,127 490,128 490,128 490,128 490,129 490,129 490,129 490,130 491,130 491,131 491,131 491,131 491,132 491,132 491,132 491,133 491,133 491,133 491,133 491,134 491,134 492,134 492,134 492,135 492,135 492,135 492,135 492,135 492,135 492,135 492,135 492,135 492,135 492,134 493,134 493,134 493,133 493,132 493,132 493,131 493,131 493,131 493,130 493,130 493,129 493,129 493,128 494,128 494,128 494,127 494,127 494,126 494,126 494,125 494,125 494,124 494,124 494,124 494,123 494,123 495,122 495,122 495,121 495,121 495,121 495,121 495,120 495,120 495,120 495,120 495,120 495,119 495,119 496,119 496,119 496,119 496,119 496,119 496,119 496,119 496,119 496,119 496,119 496,119 496,119 496,119 497,119 497,119 497,119 497,119 497,119 497,119 497,119 497,119 497,119 497,120 497,120 497,121 497,121 498,122 498,122 498,123 498,123 498,124 498,124 498,125 498,125 498,125 498,126 498,126 498,127 498,127 499,128 499,128 499,128 499,129 499,129 499,129 499,129 499,129 499,129 499,129 499,129 499,129 499,129 500,129 500,129 500,130 500,130 500,130 500,130 500,130 500,131 500,131 500,131 500,131 500,132 500,132 501,132 501,132 501,133 501,133 501,133 501,133 501,134 501,134 501,134 501,135 501,135 501,135 501,135 502,136 502,136 502,136 502,136 502,136 502,137 502,137 502,137 502,137 502,138 502,138 502,138 502,138 503,139 503,139 503,139 503,139 503,139 503,139 503,139 503,139 503,139 503,139 503,139 503,139 503,140 504,140 504,140 504,141 504,141 504,142 504,143 504,143 504,143 504,143 504,143 504,143 504,143 504,143 505,142 505,142 505,142 505,141 505,141 505,141 505,140 505,140 505,140 505,139 505,139 505,139 505,138 506,138 506,138 506,138 506,138 506,137 506,137 506,137 506,137 506,137 506,137 506,136 506,136 506,136 507,136 507,136 507,136 507,136 507,136 507,136 507,136 507,136 507,136 507,136 507,136 507,136 507,136 508,137 508,137 508,137 508,138 508,138 508,138 508,138 508,138 508,139 508,139 508,139 508,139 508,138 509,138 509,138 509,138 509,137 509,137 509,137 509,136 509,136 509,135 509,135 509,135 509,135 509,134 510,134 510,134 510,134 510,134 510,134 510,133 510,133 510,133 510,133 510,133 510,133 510,133 510,133 511,133 511,133 511,133 511,133 511,133 511,133 511,133 511,134 511,134 511,134 511,135 511,135 511,135 512,136 512,136 512,136 512,137 512,137 512,137 512,138 512,138 512,138 512,138 512,139 512,139 512,139 513,139 513,140 513,140 513,140 513,141 513,141 513,142 513,142 513,142 513,143 513,143 513,144 513,144 514,145 514,145 514,145 514,145 514,145 514,145 514,145 514,145 514,145 514,144 514,144 514,144 514,144 515,143 515,143 515,143 515,142 515,142 515,142 515,142 515,141 515,141 515,141 515,140 515,140 515,139 516,139 516,139 516,138 516,138 516,138 516,137 516,137 516,137 516,136 516,136 516,135 516,135 516,135 517,134 517,134 517,134 517,133 517,133 517,133 517,132 517,132 517,132 517,132 517,132 517,132 517,132 518,132 518,131 518,131 518,131 518,131 518,131 518,131 518,131 518,131 518,131 518,131 518,131 518,131 519,131 519,132 519,132 519,132 519,132 519,132 519,132 519,132 519,132 519,132 519,132 519,133 519,133 520,133 520,133 520,133 520,133 520,133 520,133 520,132 520,132 520,132 520,131 520,131 520,130 520,130 521,130 521,129 521,129 521,129 521,128 521,128 521,128 521,128 521,127 521,127 521,127 521,127 521,127 522,127 522,126 522,126 522,126 522,126 522,126 522,126 522,126 522,127 522,127 522,127 522,127 522,128 523,128 523,128 523,129 523,129 523,129 523,128 523,129 523,129 523,129 523,130 523,130 523,131 523,131 524,132 524,132 524,132 524,133 524,133 524,134 524,135 524,135 524,135 524,136 524,136 524,137 524,137 525,137 525,138 525,138 525,139 525,139 525,140 525,140 525,141 525,141 525,142 525,143 525,143 525,144 526,144 526,145 526,145 526,146 526,146 526,146 526,147 526,147 526,147 526,148 526,148 526,148 526,149 527,149 527,149 527,149 527,149 527,149 527,149 527,149 527,149 527,149 527,149 527,149 527,149 527,149 528,149 528,149 528,149 528,149 528,149 528,149 528,149 528,149 528,148 528,148 528,148 528,148 528,147 529,147 529,147 529,147 529,147 529,147 529,147 529,147 529,148 529,148 529,148 529,149 529,149 529,150 530,150 530,150 530,151 530,151 530,152 530,152 530,152 530,153 530,153 530,153 530,154 530,154 530,155 531,155 531,155 531,155 531,155 531,156 531,156 531,156 531,156 531,156 531,156 531,156 531,156 531,156 532,156 532,156 532,156 532,156 532,156 532,156 532,156 532,156 532,156 532,156 532,156 532,156 532,156 533,156 533,156 533,156 533,156 533,156 533,156 533,156 533,156 533,156 533,155 533,155 533,155 533,155 534,155 534,155 534,155 534,155 534,155 534,155 534,154 534,154 534,154 534,154 534,154 534,154 534,154 535,153 535,153 535,153 535,153 535,153 535,152 535,152 535,152 535,152 535,152 535,152 535,152 535,151 536,151 536,151 536,151 536,151 536,151 536,151 536,151 536,151 536,151 536,151 536,151 536,151 536,151 537,152 537,151 537,151 537,151 537,151 537,151 537,151 537,151 537,151 537,151 537,151 537,151 537,151 538,151 538,151 538,151 538,151 538,151 538,151 538,151 538,151 538,151 538,151 538,151 538,151 538,151 539,151 539,151 539,152 539,152 539,152 539,152 539,152 539,152 539,152 539,152 539,152 539,152 539,152 540,152 540,152 540,152 540,152 540,152 540,152 540,152 540,152 540,152 540,152 540,152 540,152 540,152 541,152 541,152 541,152 541,152 541,152 541,152 541,152 541,152 541,152 541,152 541,152 541,152 541,152 542,152 542,151 542,151 542,151 542,151 542,151 542,150 542,150 542,150 542,149 542,149 542,149 542,148 543,148 543,148 543,148 543,148 543,148 543,148 543,148 543,148 543,148 543,148 543,148 543,147 543,147 544,147 544,147 544,147 544,147 544,147 544,147 544,146 544,146 544,146 544,146 544,146 544,145 544,145 545,144 545,144 545,144 545,144 545,144 545,144 545,144 545,144 545,143 545,143 545,143 545,143 545,143 546,142 546,142 546,142 546,142 546,141 546,141 546,141 546,141 546,141 546,141 546,141 546,141 546,141 547,140 547,140 547,140 547,140 547,140 547,139 547,139 547,139 547,139 547,138 547,138 547,137 547,137 548,137 548,137 548,137 548,137 548,136 548,136 548,136 548,136 548,137 548,137 548,137 548,137 548,137 549,137 549,137 549,138 549,138 549,139 549,139 549,139 549,139 549,139 549,140 549,140 549,140 549,140 550,141 550,141 550,141 550,141 550,141 550,141 550,141 550,141 550,141 550,141 550,141 550,141 550,141 551,140 551,140 551,140 551,140 551,140 551,140 551,140 551,139 551,139 551,139 551,139 551,139 551,138 552,138 552,138 552,137 552,137 552,137 552,136 552,136 552,136 552,135 552,135 552,135 552,135 552,135 553,134 553,134 553,134 553,134 553,134 553,134 553,134 553,134 553,134 553,133 553,133 553,133 553,133 554,133 554,133 554,133 554,133 554,133 554,133 554,133 554,133 554,134 554,134 554,134 554,134 554,134 555,134 555,134 555,135 555,135 555,135 555,135 555,136 555,136 555,136 555,136 555,136 555,136 555,137 556,137 556,137 556,137 556,137 556,137 556,137 556,138 556,138 556,138 556,138 556,138 556,138 556,139 557,139 557,139 557,139 557,139 557,139 557,140 557,140 557,140 557,140 557,140 557,140 557,141 557,141 558,141 558,142 558,142 558,142 558,142 558,142 558,143 558,143 558,143 558,144 558,144 558,144 558,144 559,145 559,145 559,145 559,145 559,146 559,146 559,146 559,146 559,147 559,147 559,147 559,147 559,147 560,148 560,148 560,148 560,148 560,148 560,148 560,148 560,148 560,148 560,149 560,149 560,149 560,149 561,149 561,149 561,149 561,149 561,149 561,150 561,150 561,150 561,150 561,150 561,150 561,150 561,150 562,151 562,151 562,151 562,151 562,151 562,151 562,151 562,151 562,151 562,151 562,151 562,151 562,152 563,152 563,152 563,152 563,152 563,152 563,152 563,152 563,152 563,152 563,152 563,152 563,153 563,153 564,153 564,153 564,153 564,153 564,153 564,153 564,153 564,153 564,153 564,153 564,153 564,153 564,153 565,153 565,153 565,153 565,153 565,153 565,153 565,153 565,153 565,153 565,153 565,153 565,153 565,153 566,153 566,153 566,153 566,153 566,153 566,153 566,153 566,153 566,153 566,153 566,154 566,154 566,154 567,154 567,154 567,155 567,155 567,155 567,155 567,156 567,156 567,156 567,156 567,157 567,157 567,157 568,157 568,157 568,157 568,157 568,157 568,158 568,158 568,157 568,157 568,156 568,156 568,154 568,153 569,152 569,151 569,150 569,148 569,147 569,146 569,145 569,144 569,144 569,143 569,143 569,143 569,142 570,142 570,141 570,141 570,140 570,140 570,140 570,140 570,140 570,140 570,140 570,140 570,140 570,139 571,139 571,139 571,139 571,139 571,139 571,138 571,138 571,137 571,137 571,137 571,136 571,136 571,135 572,135 572,134 572,133 572,133 572,132 572,132 572,131 572,131 572,130 572,129 572,129 572,129 572,129 573,129 573,129 573,129 573,129 573,129 573,130 573,130 573,130 573,130 573,130 573,131 573,131 573,131 574,131 574,132 574,132 574,132 574,132 574,132 574,133 574,133 574,133 574,133 574,133 574,133 574,134 575,134 575,134 575,134 575,134 575,135 575,135 575,136 575,136 575,137 575,137 575,137 575,138 575,138 576,138 576,138 576,138 576,137 576,137 576,137 576,137 576,136 576,136 576,136 576,135 576,135 576,134 577,134 577,133 577,133 577,132 577,132 577,132 577,131 577,131 577,130 577,130 577,130 577,129 577,129 578,129 578,128 578,128 578,128 578,127 578,127 578,127 578,127 578,127 578,127 578,127 578,126 578,126 579,126 579,126 579,126 579,126 579,126 579,126 579,126 579,126 579,126 579,126 579,126 579,126 579,126 580,126 580,126 580,125 580,125 580,125 580,125 580,125 580,124 580,124 580,124 580,123 580,123 580,123 581,122 581,122 581,122 581,122 581,121 581,121 581,121 581,121 581,120 581,120 581,120 581,120 581,120 582,120 582,121 582,121 582,121 582,121 582,121 582,121 582,121 582,122 582,122 582,122 582,123 582,123 583,123 583,124 583,124 583,125 583,125 583,125 583,126 583,126 583,126 583,126 583,126 583,126 583,126 584,126 584,126 584,126 584,126 584,126 584,126 584,126 584,126 584,126 584,126 584,126 584,125 584,125 585,125 585,125 585,126 585,126 585,126 585,126 585,126 585,127 585,127 585,127 585,127 585,128 585,128 586,129 586,129 586,129 586,130 586,130 586,129 586,129 586,129 586,129 586,128 586,128 586,128 586,127 587,127 587,126 587,126 587,125 587,125 587,124 587,123 587,123 587,122 587,121 587,121 587,120 587,120 588,120 588,120 588,120 588,120 588,120 588,120 588,120 588,120 588,120 588,121 588,121 588,121 588,121 589,121 589,122 589,122 589,122 589,122 589,123 589,123 589,123 589,123 589,124 589,124 589,124 589,125 590,125 590,125 590,125 590,125 590,126 590,126 590,126 590,126 590,126 590,126 590,126 590,126 590,126 591,126 591,126 591,126 591,126 591,126 591,126 591,126 591,127 591,127 591,127 591,127 591,128 591,128 592,128 592,128 592,128 592,129 592,129 592,130 592,130 592,130 592,131 592,131 592,131 592,131 592,132 593,132 593,132 593,132 593,132 593,132 593,132 593,131 593,131 593,130 593,130 593,129 593,129 593,128 594,128 594,128 594,128 594,127 594,127 594,128 594,128 594,128 594,128 594,128 594,128 594,128 594,128 595,128 595,128 595,128 595,128 595,128 595,128 595,128 595,128 595,128 595,129 595,129 595,129 595,129 596,129 596,130 596,130 596,130 596,130 596,129 596,129 596,129 596,129 596,129 596,129 596,129 596,129 597,129 597,129 597,129 597,129 597,129 597,129 597,129 597,130 597,130 597,130 597,129 597,129 597,129 598,129 598,129 598,128 598,128 598,128 598,128 598,128 598,127 598,127 598,127 598,127 598,127 598,127 599,127 599,127 599,127 599,127 599,127 599,127 599,127 599,127 599,127 599,127 599,127 599,126 599,126 600,126 600,126 600,126 600,126 600,126 600,126 600,126 600,126 600,126 600,125 600,125 600,126 600,126 601,126 601,126 601,126 601,126 601,126 601,126 601,126 601,127 601,127 601,127 601,127 601,128 601,128 602,128 602,128 602,129 602,129 602,129 602,129 602,129 602,129 602,130 602,130 602,129 602,129 602,129 603,130 603,130 603,130 603,130 603,130 603,130 603,130 603,130 603,130 603,130 603,130 603,130 603,130 604,129 604,129 604,129 604,129 604,129 604,129 604,129 604,129 604,129 604,129 604,129 604,129 604,128 605,128 605,128 605,128 605,128 605,128 605,128 605,128 605,128 605,128 605,128 605,128 605,128 605,128 606,128 606,128 606,128 606,128 606,128 606,128 606,128 606,128 606,128 606,128 606,128 606,128 606,128 607,128 607,128 607,128 607,127 607,127 607,127 607,127 607,127 607,127 607,127 607,127 607,127 607,126 608,126 608,126 608,126 608,126 608,126 608,126 608,126 608,126 608,127 608,127 608,128 608,128 608,128 609,129 609,129 609,129 609,129 609,129 609,128 609,128 609,128 609,128 609,128 609,128 609,128 609,128 610,127 610,127 610,127 610,127 610,127 610,127 610,127 610,127 610,127 610,127 610,127 610,127 610,127 611,127 611,127 611,127 611,127 611,127 611,127 611,127 611,127 611,128 611,128 611,129 611,129 611,130 612,130 612,130 612,131 612,131 612,130 612,130 612,130 612,130 612,130 612,130 612,130 612,129 612,129 613,129 613,129 613,129 613,129 613,129 613,129 613,129 613,129 613,129 613,129 613,129 613,129 613,129 614,129 614,129 614,128 614,128 614,128 614,128 614,128 614,127 614,127 614,127 614,128 614,128 614,128 615,128 615,128 615,128 615,128 615,127 615,127 615,127 615,127 615,127 615,127 615,127 615,127 615,127 616,127 616,127 616,127 616,126 616,126 616,126 616,126 616,126 616,126 616,126 616,126 616,125 616,125 617,125 617,125 617,125 617,125 617,125 617,124 617,124 617,124 617,124 617,124 617,123 617,123 617,123 618,123 618,123 618,123 618,122 618,122 618,122 618,121 618,121 618,121 618,120 618,120 618,120 618,120 619,120 619,119 619,119 619,118 619,118 619,118 619,117 619,117 619,116 619,116 619,115 619,115 619,116 620,116 620,117 620,117 620,117 620,117 620,118 620,118 620,118 620,118 620,119 620,119 620,119 620,119 621,119 621,120 621,120 621,120 621,120 621,120 621,121 621,121 621,121 621,121 621,122 621,122 621,122 622,123 622,123 622,123 622,123 622,123 622,123 622,123 622,123 622,123 622,123 622,123 622,123 622,123 623,123 623,123 623,123 623,123 623,123 623,122 623,122 623,122 623,122 623,122 623,122 623,122 623,122 624,122 624,122 624,122 624,121 624,121 624,121 624,121 624,121 624,121 624,121 624,121 624,121 624,120 625,120 625,120 625,120 625,120 625,120 625,120 625,120 625,119 625,119 625,119 625,119 625,119 625,119 626,119 626,119 626,119 626,119 626,119 626,119 626,119 626,119 626,119 626,119 626,118 626,118 626,118 627,118 627,118 627,118 627,118 627,118 627,118 627,118 627,118 627,118 627,118 627,118 627,118 627,118 628,118 628,118 628,118 628,118 628,118 628,118 628,118 628,118 628,118 628,118 628,118 628,118 628,118 629,118 629,118 629,118 629,118 629,118 629,118 629,118 629,117 629,117 629,117 629,117 629,117 629,117 630,117 630,117 630,117 630,117 630,117 630,117 630,117 630,117 630,117 630,116 630,116 630,116 630,116 631,116 631,116 631,116 631,116 631,116 631,116 631,116 631,116 631,115 631,115 631,115 631,115 631,115 632,115 632,115 632,115 632,115 632,115 632,115 632,115 632,115 632,115 632,115 632,115 632,115 632,115 633,115 633,115 633,115 633,115 633,115 633,115 633,115 633,115 633,115 633,115 633,115 633,115 633,116 634,116 634,116 634,116 634,116 634,116 634,116 634,116 634,116 634,116 634,116 634,116 634,115 634,116 635,116 635,116 635,117 635,117 635,117 635,117 635,117 635,117 635,117 635,116 635,116 635,116 635,116 636,117 636,117 636,117 636,117 636,118 636,118 636,118 636,118 636,118 636,118 636,118 636,118 636,118 637,119 637,119 637,119 637,120 637,120 637,120 637,120 637,121 637,121 637,121 637,121 637,121 637,121 638,122 638,122 638,122 638,122 638,122 638,122 638,123 638,123 638,123 638,123 638,124 638,124 638,124 639,124 639,125 639,125 639,125 639,126 639,126 639,127 639,127 639,128 639,128 639,129 639,129 639,130 640,130 640,131 640,131 640,131 640,132 640,132 640,132 640,133 640,133 640,133 640,134 640,134 640,134 641,134 641,135 641,135 641,135 641,135 641,135 641,136 641,136 641,136 641,136 641,136 641,136 641,137 642,137 642,137 642,137 642,137 642,137 642,137 642,137 642,137 642,137 642,137 642,137 642,137 642,137 643,137 643,137 643,137 643,137 643,137 643,137 643,137 643,137 643,137 643,137 643,137 643,137 643,137 644,137 644,138 644,138 644,138 644,138 644,138 644,138 644,138 644,138 644,139 644,139 644,139 644,139 645,140 645,140 645,140 645,140 645,141 645,141 645,141 645,141 645,142 645,142 645,142 645,142 645,142 646,143 646,143 646,143 646,143 646,143 646,143 646,143 646,143 646,143 646,143 646,143 646,143 646,143 647,143 647,143 647,142 647,142 647,142 647,142 647,142 647,142 647,142 647,142 647,142 647,142 647,142 648,142 648,141 648,141 648,141 648,141 648,141 648,141 648,141 648,141 648,141 648,140 648,140 648,140 649,140 649,140 649,140 649,139 649,139 649,139 649,139 649,139 649,138 649,138 649,138 649,138 649,138 650,138 650,138 650,138 650,138 650,138 650,138 650,138 650,138 650,138 650,138 650,139 650,139 650,139 651,139 651,140 651,140 651,140 651,141 651,141 651,142 651,142 651,142 651,142 651,143 651,143 651,143 652,144 652,144 652,144 652,145 652,145 652,145 652,145 652,145 652,146 652,146 652,146 652,146 652,147 653,147 653,147 653,147 653,148 653,148 653,148 653,148 653,149 653,149 653,149 653,149 653,150 653,150 654,150 654,150 654,150 654,151 654,151 654,151 654,151 654,151 654,151 654,151 654,151 654,152 654,152 655,152 655,152 655,152 655,152 655,152 655,152 655,152 655,152 655,151 655,151 655,151 655,151 655,151 656,151 656,151 656,151 656,150 656,150 656,150 656,150 656,150 656,150 656,149 656,149 656,149 656,149 657,149 657,149 657,149 657,149 657,149 657,149 657,149 657,149 657,149 657,149 657,149 657,149 657,149 658,149 658,149 658,149 658,148 658,148 658,148 658,148 658,147 658,147 658,147 658,146 658,146 658,146 659,145 659,145 659,145 659,145 659,145 659,144 659,144 659,144 659,144 659,144 659,144 659,143 659,143 660,143 660,143 660,143 660,143 660,143 660,143 660,143 660,143 660,143 660,143 660,143 660,144 660,144 661,145 661,145 661,146 661,146 661,147 661,147 661,148 661,148 661,149 661,149 661,150 661,149 661,150 662,150 662,150 662,150 662,149 662,149 662,149 662,149 662,149 662,149 662,149 662,149 662,149 662,150 663,150 663,150 663,150 663,151 663,151 663,151 663,151 663,151 663,151 663,151 663,152 663,152 663,151 664,151 664,151 664,150 664,150 664,150 664,150 664,150 664,149 664,149 664,148 664,148 664,148 664,147 665,147 665,147 665,146 665,146 665,145 665,145 665,144 665,144 665,143 665,142 665,142 665,142 665,141 666,141 666,141 666,141 666,141 666,141 666,142 666,142 666,142 666,142 666,142 666,142 666,143 666,143 667,143 667,144 667,144 667,145 667,145 667,146 667,146 667,147 667,147 667,148 667,148 667,149 667,149 668,149 668,150 668,150 668,151 668,151 668,152 668,152 668,152 668,152 668,152 668,152 668,152 668,152 669,152 669,152 669,151 669,151 669,150 669,149 669,149 669,149 669,148 669,148 669,148 669,148 669,148 670,148 670,148 670,147 670,147 670,147 670,147 670,148 670,148 670,149 670,149 670,150 670,151 670,151 671,152 671,153 671,153 671,154 671,154 671,155 671,155 671,156 671,156 671,157 671,157 671,157 671,158 672,158 672,158 672,159 672,159 672,159 672,159 672,159 672,159 672,160 672,160 672,160 672,160 672,160 673,160 673,160 673,160 673,160 673,161 673,161 673,161 673,161 673,161 673,161 673,161 673,161 673,161 674,161 674,161 674,161 674,161 674,161 674,160 674,160 674,160 674,160 674,160 674,159 674,159 674,159 675,159 675,159 675,159 675,158 675,158 675,158 675,158 675,158 675,158 675,158 675,158 675,158 675,158 676,158 676,158 676,158 676,159 676,159 676,159 676,160 676,160 676,160 676,161 676,161 676,161 676,161 677,162 677,162 677,163 677,163 677,163 677,164 677,164 677,164 677,164 677,164 677,165 677,165 677,165 678,165 678,165 678,165 678,166 678,166 678,166 678,166 678,166 678,166 678,167 678,167 678,167 678,167 679,168 679,168 679,169 679,169 679,169 679,169 679,169 679,169 679,169 679,169 679,169 679,170 679,170 680,170 680,170 680,170 680,170 680,170 680,170 680,170 680,169 680,169 680,169 680,169 680,169 680,169 681,168 681,168 681,168 681,168 681,168 681,168 681,168 681,168 681,168 681,168 681,168 681,169 681,169 682,169 682,169 682,169 682,169 682,169 682,169 682,169 682,169 682,169 682,169 682,168 682,168 682,168 683,168 683,168 683,168 683,168 683,168 683,168 683,168 683,168 683,168 683,168 683,168 683,168 683,168 684,169 684,169 684,169 684,169 684,169 684,169 684,169 684,169 684,169 684,169 684,169 684,170 684,170 685,170 685,170 685,170 685,170 685,170 685,170 685,170 685,170 685,171 685,171 685,171 685,171 685,171 686,171 686,171 686,171 686,171 686,171 686,172 686,172 686,172 686,172 686,172 686,173 686,173 686,173 687,173 687,173 687,174 687,174 687,174 687,174 687,174 687,174 687,174 687,174 687,174 687,174 687,174 688,174 688,175 688,175 688,175 688,175 688,175 688,175 688,175 688,175 688,175 688,175 688,175 688,175 689,176 689,176 689,176 689,176 689,176 689,176 689,176 689,176 689,176 689,176 689,176 689,176 689,176 689,177 690,177 690,177 690,177 690,177 690,177 690,177 690,178 690,178 690,178 690,178 690,178 690,178 690,178 691,178 691,178 691,178 691,178 691,178 691,178 691,178 691,178 691,178 691,178 691,178 691,178 691,178 692,178 692,178 692,178 692,178 692,178 692,178 692,178 692,178 692,178 692,178 692,178 692,178 692,178 693,178 693,178 693,177 693,177 693,177 693,177 693,177 693,177 693,177 693,177 693,177 693,177 693,177 694,176 694,176 694,176 694,176 694,175 694,175 694,175 694,175 694,174 694,174 694,174 694,174 694,173 695,173 695,173 695,172 695,172 695,172 695,171 695,171 695,171 695,170 695,170 695,170 695,169 695,169 696,169 696,169 696,169 696,169 696,169 696,169 696,169 696,169 696,169 696,170 696,170 696,170 696,170 697,170 697,170 697,170 697,170 697,171 697,171 697,171 697,171 697,171 697,171 697,171 697,171 697,171 698,171 698,171 698,170 698,170 698,170 698,170 698,170 698,170 698,170 698,170 698,170 698,170 698,170 699,170 699,170 699,170 699,170 699,170 699,170 699,170 699,170 699,170 699,170 699,171 699,171 699,171 700,171 700,171 700,172 700,172 700,172 700,173 700,173 700,173 700,173 700,174 700,174 700,175 700,175 701,175 701,175 701,176 701,176 701,176 701,177 701,177 701,177 701,177 701,178 701,178 701,178 701,178 702,178 702,179 702,179 702,179 702,179 702,179 702,180 702,180 702,180 702,180 702,180 702,180 702,180 703,180 703,180 703,180 703,180 703,180 703,181 703,181 703,180 703,180 703,180 703,180 703,180 703,179 704,179 704,179 704,179 704,179 704,179 704,179 704,179 704,179 704,179 704,179 704,179 704,179 704,179 705,179 705,179 705,179 705,179 705,180 705,180 705,180 705,180 705,180 705,180 705,180 705,180 705,180 706,181 706,181 706,181 706,181 706,182 706,182 706,182 706,183 706,183 706,183 706,184 706,184 706,185 707,185 707,185 707,185 707,186 707,186 707,186 707,187 707,187 707,187 707,187 707,188 707,188 707,189 708,189 708,189 708,190 708,190 708,190 708,191 708,191 708,191 708,192 708,192 708,193 708,193 708,193 709,194 709,194 709,194 709,195 709,195 709,195 709,195 709,196 709,196 709,196 709,196 709,196 709,196 710,196 710,196 710,196 710,195 710,195 710,195 710,195 710,195 710,195 710,195 710,194 710,194 710,194 711,194 711,194 711,194 711,194 711,194 711,194 711,195 711,195 711,195 711,195 711,195 711,195 711,196 712,196 712,196 712,196 712,197 712,197 712,197 712,198 712,198 712,198 712,199 712,199 712,199 712,200 713,200 713,200 713,201 713,201 713,202 713,202 713,202 713,203 713,203 713,203 713,203 713,202 713,202 714,202 714,202 714,201 714,201 714,201 714,201 714,200 714,200 714,200 714,199 714,199 714,199 714,198 715,198 715,197 715,197 715,197 715,197 715,196 715,196 715,196 715,196 715,195 715,195 715,195 715,195 716,195 716,194 716,194 716,194 716,194 716,194 716,193 716,193 716,193 716,193 716,193 716,192 716,192 717,192 717,192 717,192 717,192 717,192 717,192 717,192 717,192 717,192 717,192 717,192 717,192 717,192 718,192 718,192 718,192 718,192 718,192 718,191 718,191 718,191 718,191 718,191 718,191 718,190 718,190 719,190 719,190 719,189 719,189 719,189 719,188 719,188 719,188 719,188 719,188 719,188 719,187 719,187 720,187 720,187 720,187 720,187 720,187 720,187 720,187 720,187 720,187 720,187 720,187 720,188 720,188 721,188 721,188 721,188 721,188 721,188 721,188 721,187 721,187 721,187 721,187 721,187 721,187 721,187 722,187 722,187 722,187 722,187 722,187 722,186 722,186 722,186 722,186 722,186 722,186 722,186 722,186 723,186 723,186 723,186 723,186 723,186 723,186 723,186 723,186 723,186 723,186 723,186 723,186 723,186 724,185 724,185 724,185 724,185 724,185 724,185 724,185 724,185 724,185 724,185 724,185 724,185 724,184 725,184 725,184 725,184 725,184 725,184 725,184 725,183 725,183 725,183 725,183 725,183 725,182 725,182 726,182 726,182 726,181 726,181 726,181 726,181 726,181 726,181 726,181 726,181 726,181 726,181 726,180 727,180 727,180 727,179 727,179 727,179 727,178 727,178 727,178 727,178 727,178 727,177 727,177 727,177 728,177 728,177 728,177 728,177 728,177 728,177 728,177 728,177 728,177 728,177 728,177 728,177 728,177 729,177 729,177 729,177 729,177 729,177 729,177 729,177 729,177 729,177 729,177 729,177 729,177 729,177 730,177 730,177 730,177 730,177 730,177 730,177 730,177 730,177 730,177 730,177 730,178 730,178 730,178 731,178 731,178 731,178 731,178 731,178 731,178 731,178 731,178 731,179 731,179 731,179 731,179 731,179 732,179 732,179 732,180 732,180 732,180 732,180 732,180 732,181 732,181 732,181 732,181 732,181 732,182 733,182 733,182 733,182 733,182 733,183 733,183 733,183 733,183 733,183 733,183 733,183 733,183 733,184 734,184 734,184 734,185 734,185 734,186 734,186 734,187 734,187 734,187 734,187 734,187 734,188 734,188 735,188 735,189 735,189 735,189 735,190 735,190 735,190 735,190 735,191 735,191 735,191 735,191 735,192 736,192 736,192 736,192 736,192 736,192 736,192 736,192 736,192 736,192 736,193 736,193 " vector-effect="non-scaling-stroke"></polyline>
</g></svg>