<?xml version="1.0" encoding="UTF-8" standalone="no"?><svg width="282.222mm" height="141.111mm" xmlns="http://www.w3.org/2000/svg" xmlns:xlink="http://www.w3.org/1999/xlink"  version="1.2" baseProfile="tiny"><g fill="none" stroke="#ff0000" stroke-linecap="round" stroke-linejoin="round" stroke-opacity="1" stroke-width="1.5" transform="matrix(1,0,0,1,0,0)">
<polyline fill="none" points="68,350 68,350 68,350 68,350 68,350 69,350 69,350 69,350 69,350 69,350 69,350 69,350 69,350 69,350 69,350 69,350 69,350 69,350 70,350 70,350 70,350 70,350 70,350 70,350 70,350 70,350 70,350 70,350 70,350 70,350 70,350 71,350 71,350 71,350 71,350 71,350 71,350 71,350 71,350 71,350 71,350 71,350 71,350 71,350 72,350 72,350 72,350 72,350 72,350 72,350 72,350 72,350 72,350 72,350 72,350 72,350 72,349 73,349 73,349 73,349 73,349 73,349 73,349 73,349 73,349 73,349 73,349 73,349 73,349 73,349 74,348 74,348 74,348 74,348 74,348 74,348 74,348 74,348 74,348 74,348 74,348 74,348 74,348 75,348 75,348 75,348 75,348 75,348 75,348 75,348 75,348 75,348 75,348 75,348 75,348 75,348 76,348 76,348 76,348 76,348 76,348 76,348 76,348 76,348 76,348 76,348 76,348 76,348 76,348 77,348 77,348 77,348 77,348 77,348 77,348 77,348 77,348 77,348 77,348 77,348 77,348 77,348 78,348 78,348 78,348 78,348 78,348 78,348 78,348 78,348 78,348 78,348 78,348 78,348 78,348 79,348 79,348 79,348 79,348 79,348 79,348 79,347 79,347 79,347 79,347 79,347 79,347 79,347 80,347 80,347 80,347 80,347 80,347 80,347 80,347 80,347 80,347 80,347 80,347 80,347 80,347 81,347 81,347 81,347 81,347 81,347 81,346 81,346 81,346 81,346 81,346 81,346 81,346 81,346 82,346 82,346 82,346 82,346 82,346 82,346 82,346 82,346 82,346 82,346 82,346 82,346 82,346 83,346 83,346 83,345 83,345 83,345 83,345 83,345 83,345 83,346 83,346 83,346 83,346 83,346 84,346 84,346 84,346 84,346 84,346 84,346 84,346 84,345 84,345 84,345 84,345 84,345 84,345 85,344 85,344 85,344 85,344 85,344 85,344 85,344 85,344 85,344 85,344 85,343 85,344 85,344 86,344 86,345 86,345 86,345 86,345 86,345 86,345 86,345 86,345 86,346 86,346 86,346 86,346 87,346 87,346 87,346 87,346 87,346 87,346 87,346 87,346 87,346 87,346 87,346 87,346 87,346 88,346 88,346 88,346 88,347 88,347 88,347 88,347 88,347 88,347 88,347 88,347 88,347 88,347 89,347 89,347 89,347 89,347 89,347 89,347 89,347 89,347 89,347 89,347 89,347 89,347 89,347 90,347 90,347 90,347 90,347 90,347 90,347 90,347 90,347 90,347 90,347 90,348 90,348 90,348 91,348 91,348 91,349 91,349 91,349 91,349 91,349 91,349 91,349 91,349 91,349 91,349 91,349 92,349 92,349 92,349 92,349 92,349 92,349 92,349 92,349 92,349 92,349 92,349 92,349 92,349 93,349 93,349 93,349 93,349 93,349 93,349 93,349 93,349 93,349 93,349 93,349 93,348 93,348 94,348 94,348 94,348 94,348 94,348 94,348 94,348 94,348 94,348 94,348 94,348 94,348 94,348 95,348 95,348 95,348 95,348 95,348 95,348 95,348 95,348 95,348 95,348 95,348 95,348 95,348 96,348 96,348 96,348 96,348 96,348 96,348 96,348 96,348 96,348 96,348 96,348 96,348 96,348 97,348 97,348 97,348 97,348 97,348 97,348 97,348 97,348 97,348 97,348 97,348 97,348 97,348 98,348 98,348 98,348 98,348 98,348 98,348 98,348 98,348 98,348 98,348 98,348 98,348 98,348 99,348 99,348 99,348 99,348 99,348 99,348 99,348 99,348 99,348 99,348 99,348 99,348 99,348 100,348 100,348 100,348 100,347 100,347 100,347 100,347 100,347 100,347 100,347 100,347 100,347 100,347 101,347 101,347 101,347 101,347 101,347 101,347 101,347 101,347 101,347 101,347 101,347 101,347 101,347 102,347 102,347 102,347 102,347 102,347 102,347 102,347 102,347 102,347 102,348 102,348 102,348 102,348 103,348 103,348 103,348 103,348 103,348 103,348 103,348 103,348 103,348 103,348 103,348 103,348 103,348 104,348 104,348 104,348 104,348 104,348 104,348 104,348 104,348 104,348 104,348 104,348 104,348 104,348 105,348 105,348 105,348 105,348 105,348 105,348 105,348 105,348 105,348 105,348 105,348 105,348 105,348 106,348 106,348 106,348 106,348 106,348 106,349 106,349 106,349 106,349 106,349 106,349 106,349 106,349 107,349 107,349 107,349 107,349 107,349 107,349 107,349 107,349 107,349 107,349 107,349 107,349 107,349 108,349 108,349 108,349 108,349 108,349 108,349 108,349 108,349 108,349 108,349 108,349 108,349 108,349 109,349 109,349 109,349 109,349 109,349 109,349 109,349 109,349 109,349 109,349 109,349 109,349 109,349 110,349 110,349 110,350 110,350 110,350 110,350 110,350 110,350 110,350 110,350 110,350 110,350 110,350 111,350 111,350 111,350 111,350 111,350 111,350 111,350 111,350 111,350 111,350 111,351 111,351 111,351 112,351 112,351 112,351 112,351 112,351 112,351 112,351 112,351 112,350 112,350 112,350 112,350 112,350 113,350 113,350 113,350 113,349 113,349 113,349 113,349 113,349 113,349 113,349 113,349 113,350 113,350 114,350 114,350 114,350 114,350 114,349 114,349 114,349 114,349 114,349 114,349 114,349 114,349 114,349 115,349 115,349 115,349 115,349 115,349 115,349 115,349 115,349 115,349 115,349 115,349 115,349 115,349 116,349 116,349 116,349 116,349 116,349 116,349 116,349 116,349 116,350 116,350 116,350 116,350 116,350 117,350 117,350 117,350 117,350 117,350 117,350 117,350 117,350 117,349 117,349 117,349 117,349 117,349 118,349 118,349 118,349 118,349 118,349 118,349 118,349 118,349 118,349 118,349 118,349 118,350 118,350 119,350 119,350 119,350 119,350 119,351 119,351 119,351 119,351 119,352 119,352 119,352 119,352 119,352 120,352 120,352 120,353 120,353 120,353 120,353 120,353 120,353 120,353 120,353 120,353 120,353 120,353 121,353 121,352 121,352 121,352 121,352 121,352 121,352 121,352 121,351 121,352 121,352 121,352 121,352 122,352 122,352 122,352 122,352 122,352 122,352 122,351 122,351 122,351 122,351 122,350 122,350 122,350 123,350 123,350 123,350 123,350 123,350 123,350 123,350 123,350 123,350 123,349 123,349 123,349 123,349 124,349 124,348 124,348 124,348 124,348 124,348 124,348 124,348 124,348 124,348 124,348 124,348 124,348 125,348 125,348 125,348 125,348 125,348 125,348 125,348 125,348 125,348 125,348 125,349 125,349 125,349 126,349 126,350 126,350 126,351 126,351 126,351 126,352 126,353 126,354 126,355 126,355 126,355 126,355 127,355 127,355 127,355 127,355 127,355 127,355 127,355 127,355 127,354 127,354 127,354 127,354 127,354 128,354 128,354 128,354 128,354 128,354 128,354 128,354 128,354 128,354 128,354 128,354 128,354 128,353 129,353 129,353 129,353 129,353 129,353 129,352 129,352 129,352 129,352 129,352 129,352 129,352 129,352 130,352 130,352 130,352 130,352 130,352 130,352 130,353 130,352 130,352 130,353 130,353 130,353 130,353 131,352 131,352 131,352 131,352 131,352 131,352 131,351 131,351 131,351 131,352 131,352 131,352 131,352 132,352 132,352 132,352 132,352 132,351 132,351 132,351 132,351 132,350 132,350 132,350 132,350 132,350 133,350 133,350 133,350 133,350 133,350 133,350 133,351 133,351 133,351 133,351 133,350 133,350 133,350 134,350 134,350 134,349 134,349 134,350 134,350 134,350 134,350 134,350 134,350 134,350 134,350 134,350 135,350 135,350 135,350 135,350 135,351 135,351 135,351 135,351 135,351 135,351 135,351 135,351 135,350 136,350 136,350 136,350 136,350 136,350 136,350 136,350 136,350 136,351 136,350 136,350 136,350 136,350 137,350 137,350 137,351 137,351 137,351 137,351 137,351 137,351 137,351 137,351 137,351 137,352 137,351 138,351 138,351 138,351 138,350 138,350 138,350 138,350 138,350 138,350 138,350 138,350 138,350 138,350 139,350 139,350 139,350 139,350 139,350 139,350 139,350 139,350 139,349 139,349 139,349 139,349 139,349 140,349 140,349 140,349 140,349 140,349 140,349 140,349 140,349 140,349 140,349 140,349 140,349 140,348 141,348 141,348 141,347 141,347 141,347 141,347 141,347 141,347 141,347 141,347 141,347 141,347 141,348 142,348 142,348 142,348 142,348 142,348 142,348 142,348 142,348 142,348 142,348 142,348 142,348 142,348 143,348 143,348 143,348 143,348 143,348 143,348 143,348 143,348 143,348 143,348 143,348 143,348 143,348 144,348 144,348 144,348 144,348 144,347 144,347 144,347 144,347 144,347 144,347 144,347 144,347 144,347 145,348 145,348 145,348 145,348 145,348 145,347 145,347 145,347 145,347 145,347 145,347 145,347 145,347 146,347 146,347 146,347 146,347 146,347 146,347 146,347 146,347 146,347 146,347 146,347 146,347 146,347 147,347 147,347 147,347 147,347 147,347 147,346 147,346 147,346 147,347 147,347 147,347 147,347 147,347 148,346 148,346 148,346 148,346 148,346 148,346 148,346 148,346 148,346 148,346 148,346 148,346 148,346 149,346 149,346 149,346 149,346 149,346 149,346 149,346 149,346 149,346 149,346 149,346 149,346 149,346 150,346 150,346 150,346 150,346 150,346 150,346 150,346 150,346 150,345 150,345 150,345 150,345 150,345 151,345 151,345 151,345 151,346 151,346 151,346 151,346 151,346 151,346 151,346 151,346 151,346 151,346 152,345 152,345 152,345 152,345 152,344 152,345 152,345 152,345 152,345 152,345 152,345 152,344 152,345 153,345 153,345 153,345 153,345 153,345 153,345 153,345 153,345 153,345 153,345 153,345 153,345 153,345 154,345 154,345 154,345 154,345 154,345 154,344 154,344 154,344 154,344 154,344 154,344 154,344 154,344 155,344 155,343 155,343 155,343 155,343 155,343 155,343 155,343 155,343 155,343 155,343 155,343 155,343 156,343 156,344 156,344 156,344 156,344 156,344 156,344 156,344 156,344 156,343 156,343 156,343 156,343 157,343 157,343 157,343 157,343 157,343 157,343 157,343 157,343 157,343 157,343 157,343 157,343 157,343 158,343 158,343 158,343 158,343 158,343 158,343 158,343 158,343 158,343 158,343 158,343 158,343 158,342 159,342 159,342 159,342 159,342 159,341 159,341 159,342 159,342 159,342 159,341 159,341 159,341 159,341 160,341 160,341 160,341 160,341 160,341 160,341 160,340 160,340 160,340 160,341 160,341 160,341 160,341 161,341 161,341 161,341 161,341 161,341 161,341 161,341 161,341 161,341 161,340 161,340 161,340 161,340 162,340 162,340 162,340 162,340 162,339 162,339 162,339 162,339 162,339 162,339 162,339 162,339 162,339 163,339 163,339 163,339 163,339 163,339 163,339 163,340 163,340 163,340 163,340 163,340 163,340 163,340 164,340 164,340 164,340 164,340 164,340 164,340 164,340 164,340 164,341 164,341 164,341 164,341 164,340 165,340 165,340 165,340 165,340 165,340 165,340 165,340 165,340 165,340 165,340 165,339 165,339 165,339 166,339 166,339 166,339 166,339 166,339 166,340 166,340 166,340 166,340 166,339 166,339 166,339 166,339 167,339 167,339 167,339 167,339 167,339 167,339 167,339 167,339 167,339 167,339 167,339 167,339 167,339 168,339 168,339 168,340 168,340 168,340 168,339 168,339 168,339 168,339 168,339 168,339 168,339 168,339 169,340 169,340 169,340 169,340 169,340 169,339 169,339 169,339 169,339 169,339 169,339 169,339 169,339 170,339 170,339 170,339 170,339 170,338 170,338 170,338 170,338 170,338 170,338 170,338 170,338 170,338 171,338 171,338 171,338 171,338 171,338 171,338 171,338 171,338 171,338 171,338 171,338 171,338 171,338 172,338 172,338 172,338 172,338 172,337 172,337 172,337 172,337 172,337 172,337 172,337 172,337 172,337 173,337 173,337 173,337 173,337 173,337 173,337 173,337 173,337 173,337 173,337 173,337 173,337 173,337 174,337 174,337 174,336 174,336 174,336 174,336 174,336 174,335 174,335 174,335 174,335 174,336 174,336 175,336 175,336 175,336 175,336 175,336 175,335 175,335 175,335 175,335 175,335 175,335 175,335 175,335 176,335 176,335 176,335 176,335 176,335 176,335 176,335 176,335 176,335 176,335 176,335 176,334 176,334 177,334 177,334 177,334 177,334 177,334 177,334 177,334 177,334 177,334 177,334 177,334 177,334 177,333 178,333 178,333 178,333 178,333 178,333 178,333 178,333 178,333 178,333 178,333 178,333 178,332 178,332 179,332 179,332 179,332 179,332 179,331 179,331 179,331 179,331 179,330 179,330 179,330 179,331 179,331 180,331 180,331 180,332 180,332 180,332 180,332 180,332 180,333 180,333 180,333 180,333 180,333 180,333 181,333 181,333 181,333 181,333 181,333 181,333 181,333 181,333 181,333 181,333 181,333 181,333 181,333 182,333 182,333 182,333 182,333 182,333 182,333 182,333 182,333 182,333 182,333 182,333 182,333 182,333 183,333 183,333 183,332 183,332 183,332 183,332 183,332 183,332 183,332 183,331 183,331 183,331 183,330 184,330 184,330 184,330 184,330 184,329 184,329 184,329 184,329 184,329 184,329 184,328 184,328 184,328 185,328 185,327 185,327 185,326 185,326 185,326 185,326 185,325 185,325 185,325 185,325 185,324 185,324 186,324 186,323 186,323 186,323 186,323 186,323 186,323 186,323 186,323 186,323 186,323 186,323 186,323 187,323 187,323 187,323 187,323 187,323 187,323 187,323 187,323 187,323 187,323 187,323 187,323 187,323 188,323 188,323 188,323 188,323 188,323 188,323 188,323 188,323 188,323 188,323 188,323 188,323 188,323 189,323 189,323 189,323 189,323 189,323 189,323 189,323 189,323 189,323 189,323 189,323 189,323 189,323 190,323 190,323 190,323 190,323 190,323 190,323 190,323 190,323 190,324 190,323 190,323 190,323 190,323 191,323 191,323 191,323 191,323 191,323 191,323 191,323 191,323 191,323 191,323 191,324 191,324 191,324 192,324 192,324 192,324 192,324 192,323 192,323 192,323 192,323 192,323 192,323 192,323 192,323 192,324 193,324 193,324 193,324 193,324 193,324 193,323 193,323 193,323 193,323 193,324 193,324 193,324 193,324 194,324 194,324 194,324 194,324 194,324 194,324 194,324 194,324 194,324 194,324 194,324 194,324 194,324 195,324 195,324 195,324 195,323 195,323 195,323 195,323 195,323 195,323 195,323 195,323 195,323 195,324 196,324 196,323 196,323 196,323 196,323 196,323 196,323 196,323 196,323 196,323 196,323 196,323 196,323 197,323 197,323 197,323 197,323 197,323 197,323 197,323 197,323 197,323 197,322 197,322 197,322 197,322 198,322 198,322 198,322 198,321 198,321 198,321 198,320 198,320 198,320 198,319 198,319 198,319 198,319 199,318 199,318 199,318 199,318 199,317 199,317 199,317 199,317 199,317 199,317 199,316 199,316 199,316 200,316 200,316 200,316 200,316 200,316 200,315 200,315 200,315 200,315 200,315 200,314 200,314 200,314 201,313 201,313 201,313 201,313 201,313 201,313 201,313 201,312 201,312 201,312 201,312 201,312 201,312 202,312 202,312 202,311 202,311 202,311 202,311 202,311 202,311 202,311 202,310 202,310 202,310 202,310 203,310 203,310 203,310 203,309 203,309 203,309 203,309 203,309 203,309 203,309 203,309 203,308 203,308 204,308 204,308 204,308 204,307 204,307 204,307 204,307 204,307 204,307 204,306 204,306 204,306 204,305 205,305 205,305 205,305 205,305 205,304 205,304 205,304 205,303 205,303 205,303 205,303 205,303 205,303 206,303 206,302 206,302 206,302 206,302 206,302 206,301 206,301 206,301 206,301 206,300 206,300 206,300 207,300 207,299 207,299 207,299 207,299 207,299 207,298 207,298 207,298 207,297 207,297 207,297 207,297 208,297 208,296 208,296 208,296 208,296 208,296 208,296 208,295 208,295 208,295 208,295 208,294 208,294 209,294 209,294 209,294 209,294 209,294 209,293 209,293 209,292 209,292 209,292 209,292 209,291 209,291 210,291 210,291 210,291 210,290 210,290 210,289 210,289 210,289 210,289 210,289 210,289 210,289 210,289 211,289 211,288 211,288 211,288 211,287 211,287 211,287 211,286 211,286 211,286 211,285 211,285 211,285 212,284 212,284 212,284 212,283 212,283 212,283 212,283 212,282 212,282 212,282 212,282 212,281 212,281 213,281 213,281 213,280 213,280 213,280 213,279 213,279 213,279 213,278 213,278 213,278 213,278 213,277 214,277 214,277 214,277 214,276 214,277 214,276 214,275 214,275 214,275 214,275 214,275 214,275 214,275 215,274 215,274 215,274 215,274 215,273 215,273 215,273 215,273 215,273 215,273 215,272 215,272 215,272 216,272 216,272 216,271 216,271 216,271 216,272 216,272 216,272 216,272 216,272 216,271 216,271 216,271 217,270 217,270 217,269 217,269 217,269 217,269 217,269 217,268 217,268 217,268 217,268 217,268 217,267 218,267 218,266 218,266 218,265 218,265 218,264 218,264 218,264 218,263 218,263 218,262 218,262 218,261 219,261 219,260 219,260 219,259 219,259 219,259 219,258 219,258 219,257 219,257 219,256 219,256 219,256 220,255 220,255 220,255 220,255 220,255 220,256 220,256 220,256 220,256 220,256 220,256 220,256 220,256 221,256 221,257 221,258 221,258 221,259 221,261 221,261 221,261 221,261 221,261 221,261 221,261 221,261 222,260 222,260 222,259 222,259 222,258 222,257 222,257 222,256 222,255 222,255 222,254 222,254 222,254 223,253 223,253 223,252 223,252 223,252 223,251 223,251 223,250 223,250 223,249 223,249 223,249 223,248 224,248 224,248 224,247 224,247 224,246 224,246 224,246 224,246 224,245 224,245 224,245 224,244 224,245 225,244 225,244 225,244 225,243 225,243 225,243 225,243 225,242 225,241 225,241 225,241 225,242 225,243 226,244 226,246 226,246 226,246 226,246 226,247 226,247 226,247 226,247 226,247 226,247 226,247 226,248 227,248 227,249 227,250 227,250 227,251 227,252 227,253 227,254 227,255 227,256 227,257 227,257 227,258 228,258 228,259 228,259 228,260 228,259 228,259 228,259 228,258 228,258 228,257 228,256 228,255 228,254 229,253 229,252 229,251 229,249 229,248 229,246 229,245 229,245 229,245 229,245 229,244 229,244 229,243 230,243 230,242 230,242 230,242 230,241 230,241 230,240 230,240 230,239 230,239 230,239 230,238 230,238 231,237 231,237 231,236 231,236 231,235 231,234 231,234 231,233 231,232 231,231 231,230 231,230 231,229 232,229 232,228 232,227 232,227 232,226 232,226 232,225 232,224 232,224 232,223 232,224 232,224 232,224 233,225 233,225 233,226 233,227 233,227 233,228 233,229 233,229 233,230 233,231 233,232 233,233 233,234 234,235 234,236 234,237 234,238 234,239 234,240 234,240 234,240 234,240 234,240 234,240 234,240 234,240 235,240 235,240 235,241 235,240 235,240 235,240 235,240 235,240 235,240 235,239 235,239 235,238 235,237 236,237 236,236 236,236 236,235 236,235 236,234 236,233 236,233 236,232 236,232 236,231 236,231 236,230 237,230 237,229 237,229 237,228 237,227 237,227 237,226 237,225 237,224 237,224 237,223 237,223 237,222 238,221 238,221 238,220 238,219 238,219 238,218 238,217 238,217 238,216 238,215 238,215 238,214 238,212 239,211 239,210 239,210 239,210 239,209 239,209 239,208 239,207 239,206 239,205 239,205 239,204 239,204 240,203 240,203 240,202 240,202 240,201 240,200 240,199 240,199 240,198 240,197 240,196 240,195 240,195 241,194 241,193 241,193 241,192 241,191 241,191 241,190 241,189 241,188 241,187 241,186 241,185 241,184 242,183 242,182 242,181 242,180 242,179 242,178 242,176 242,174 242,173 242,170 242,169 242,167 242,165 243,163 243,161 243,159 243,158 243,157 243,157 243,157 243,157 243,156 243,156 243,156 243,156 243,156 244,156 244,156 244,156 244,156 244,156 244,156 244,156 244,155 244,155 244,155 244,155 244,155 244,155 245,155 245,155 245,154 245,154 245,155 245,155 245,154 245,154 245,155 245,156 245,158 245,160 245,161 246,162 246,163 246,165 246,166 246,167 246,168 246,169 246,171 246,172 246,173 246,174 246,175 246,176 247,177 247,178 247,179 247,180 247,181 247,182 247,183 247,183 247,183 247,184 247,184 247,185 247,186 248,186 248,187 248,187 248,188 248,188 248,188 248,189 248,189 248,190 248,190 248,190 248,191 248,191 249,191 249,192 249,192 249,192 249,192 249,191 249,191 249,191 249,191 249,191 249,190 249,191 249,191 250,191 250,192 250,192 250,193 250,193 250,194 250,194 250,194 250,195 250,195 250,195 250,196 250,196 251,196 251,197 251,197 251,197 251,197 251,197 251,197 251,198 251,198 251,198 251,198 251,198 251,198 252,199 252,201 252,203 252,205 252,206 252,207 252,207 252,208 252,209 252,211 252,212 252,214 252,215 253,216 253,216 253,217 253,217 253,216 253,216 253,217 253,217 253,217 253,217 253,218 253,218 253,219 254,219 254,220 254,221 254,221 254,222 254,222 254,222 254,223 254,223 254,224 254,224 254,223 254,223 255,223 255,223 255,222 255,222 255,221 255,221 255,221 255,222 255,222 255,222 255,223 255,223 255,223 256,224 256,224 256,225 256,225 256,226 256,226 256,227 256,228 256,228 256,229 256,229 256,228 256,229 257,230 257,230 257,231 257,231 257,232 257,233 257,233 257,234 257,235 257,236 257,237 257,239 257,240 258,241 258,243 258,245 258,246 258,248 258,249 258,251 258,252 258,254 258,255 258,257 258,258 258,259 259,260 259,261 259,262 259,262 259,263 259,264 259,264 259,263 259,263 259,263 259,262 259,261 259,260 260,259 260,258 260,257 260,256 260,255 260,255 260,255 260,254 260,254 260,253 260,253 260,252 260,252 261,252 261,252 261,252 261,252 261,252 261,252 261,252 261,252 261,252 261,252 261,252 261,252 261,251 262,251 262,250 262,250 262,249 262,249 262,248 262,248 262,248 262,248 262,247 262,247 262,246 262,246 263,245 263,245 263,244 263,244 263,244 263,243 263,243 263,241 263,240 263,239 263,238 263,237 263,235 264,234 264,233 264,232 264,231 264,231 264,229 264,228 264,227 264,225 264,224 264,223 264,222 264,221 265,220 265,218 265,217 265,216 265,215 265,213 265,212 265,211 265,210 265,208 265,207 265,206 265,205 266,205 266,204 266,203 266,202 266,201 266,200 266,199 266,198 266,197 266,196 266,195 266,194 266,193 267,193 267,192 267,192 267,193 267,193 267,193 267,193 267,193 267,193 267,193 267,193 267,193 267,192 268,192 268,192 268,192 268,192 268,192 268,193 268,193 268,193 268,193 268,193 268,194 268,194 268,194 269,195 269,195 269,195 269,195 269,196 269,196 269,196 269,196 269,197 269,197 269,197 269,198 269,198 270,199 270,199 270,200 270,200 270,201 270,201 270,202 270,203 270,203 270,204 270,205 270,206 270,207 271,208 271,208 271,210 271,211 271,212 271,214 271,215 271,216 271,217 271,219 271,220 271,221 271,222 272,223 272,225 272,226 272,227 272,229 272,230 272,232 272,233 272,234 272,236 272,237 272,239 272,240 273,242 273,244 273,246 273,247 273,249 273,251 273,252 273,254 273,254 273,255 273,256 273,257 273,256 274,256 274,256 274,257 274,256 274,256 274,256 274,256 274,256 274,257 274,257 274,257 274,257 274,257 275,257 275,257 275,257 275,257 275,257 275,257 275,257 275,257 275,258 275,258 275,258 275,258 275,258 276,258 276,259 276,259 276,259 276,260 276,261 276,262 276,263 276,264 276,265 276,266 276,267 276,268 277,269 277,270 277,271 277,272 277,273 277,274 277,275 277,276 277,277 277,279 277,280 277,281 277,283 278,284 278,285 278,287 278,289 278,290 278,292 278,293 278,293 278,292 278,292 278,291 278,290 278,288 279,287 279,285 279,283 279,281 279,279 279,278 279,276 279,275 279,273 279,272 279,271 279,270 279,269 280,267 280,266 280,264 280,262 280,260 280,259 280,257 280,255 280,253 280,253 280,252 280,251 280,250 281,249 281,248 281,248 281,247 281,246 281,245 281,244 281,244 281,243 281,242 281,241 281,240 281,239 282,238 282,237 282,236 282,234 282,233 282,232 282,230 282,229 282,228 282,226 282,225 282,223 282,222 283,220 283,219 283,218 283,217 283,216 283,214 283,213 283,212 283,211 283,210 283,210 283,209 283,209 284,209 284,209 284,209 284,209 284,209 284,209 284,209 284,209 284,209 284,209 284,209 284,209 284,209 285,209 285,209 285,209 285,209 285,209 285,209 285,209 285,209 285,208 285,208 285,208 285,208 285,208 286,208 286,208 286,208 286,208 286,208 286,208 286,208 286,208 286,208 286,208 286,208 286,208 286,208 287,208 287,208 287,208 287,208 287,208 287,208 287,208 287,208 287,208 287,208 287,207 287,207 287,207 288,206 288,206 288,205 288,204 288,204 288,205 288,206 288,207 288,208 288,209 288,212 288,213 288,215 289,216 289,217 289,219 289,220 289,221 289,223 289,223 289,224 289,225 289,226 289,228 289,230 289,231 290,232 290,232 290,233 290,233 290,234 290,234 290,234 290,233 290,233 290,232 290,232 290,231 290,231 291,231 291,231 291,231 291,231 291,231 291,231 291,231 291,231 291,231 291,231 291,231 291,231 291,231 292,231 292,231 292,231 292,231 292,231 292,232 292,232 292,231 292,231 292,231 292,231 292,230 292,231 293,232 293,233 293,234 293,235 293,235 293,236 293,237 293,237 293,237 293,237 293,237 293,237 293,237 294,237 294,237 294,237 294,237 294,237 294,238 294,238 294,237 294,236 294,236 294,236 294,236 294,235 295,235 295,235 295,235 295,235 295,235 295,235 295,234 295,234 295,233 295,233 295,233 295,232 295,232 296,232 296,231 296,231 296,230 296,230 296,230 296,229 296,229 296,229 296,228 296,228 296,227 296,227 297,226 297,225 297,225 297,224 297,223 297,222 297,221 297,219 297,218 297,217 297,215 297,214 297,212 298,210 298,209 298,207 298,205 298,203 298,202 298,200 298,198 298,197 298,195 298,193 298,191 298,190 299,188 299,186 299,184 299,182 299,181 299,179 299,176 299,175 299,174 299,172 299,172 299,171 299,171 300,172 300,172 300,173 300,173 300,173 300,173 300,173 300,173 300,173 300,173 300,173 300,173 300,173 301,173 301,173 301,173 301,173 301,173 301,173 301,172 301,172 301,172 301,172 301,171 301,171 301,171 302,171 302,172 302,172 302,174 302,175 302,177 302,178 302,178 302,178 302,179 302,180 302,180 302,180 303,182 303,182 303,182 303,183 303,183 303,183 303,184 303,184 303,184 303,185 303,186 303,187 303,187 304,188 304,189 304,190 304,191 304,192 304,193 304,195 304,196 304,197 304,198 304,198 304,199 304,200 305,200 305,202 305,203 305,204 305,205 305,205 305,205 305,205 305,205 305,206 305,206 305,206 305,206 306,206 306,206 306,205 306,205 306,204 306,203 306,202 306,202 306,201 306,200 306,199 306,198 306,197 307,196 307,196 307,196 307,196 307,197 307,197 307,197 307,197 307,197 307,197 307,197 307,197 307,197 308,197 308,197 308,197 308,197 308,197 308,197 308,197 308,197 308,197 308,197 308,197 308,197 308,198 309,198 309,199 309,199 309,200 309,201 309,201 309,202 309,204 309,204 309,205 309,206 309,207 309,208 310,209 310,210 310,211 310,212 310,214 310,215 310,216 310,218 310,219 310,221 310,222 310,223 310,224 311,225 311,226 311,226 311,226 311,226 311,226 311,225 311,224 311,223 311,222 311,221 311,219 311,218 312,217 312,216 312,215 312,214 312,213 312,213 312,212 312,211 312,211 312,210 312,210 312,210 312,209 313,209 313,209 313,209 313,209 313,209 313,209 313,210 313,209 313,211 313,211 313,210 313,210 313,210 314,210 314,209 314,208 314,208 314,209 314,208 314,208 314,208 314,208 314,207 314,206 314,205 314,205 315,205 315,205 315,204 315,204 315,202 315,201 315,200 315,199 315,199 315,198 315,197 315,197 315,196 316,195 316,194 316,193 316,192 316,191 316,189 316,188 316,186 316,185 316,183 316,182 316,180 316,178 317,176 317,173 317,172 317,174 317,174 317,173 317,173 317,173 317,173 317,172 317,172 317,172 317,172 318,172 318,171 318,171 318,171 318,171 318,170 318,170 318,171 318,172 318,173 318,174 318,175 318,176 319,177 319,178 319,179 319,179 319,180 319,180 319,181 319,182 319,184 319,184 319,184 319,185 319,186 320,186 320,186 320,186 320,185 320,185 320,185 320,186 320,186 320,186 320,186 320,188 320,188 320,188 321,188 321,189 321,189 321,190 321,190 321,191 321,191 321,192 321,192 321,193 321,194 321,194 321,195 322,196 322,197 322,198 322,199 322,200 322,201 322,202 322,203 322,203 322,203 322,204 322,205 322,205 323,206 323,206 323,207 323,208 323,209 323,209 323,210 323,210 323,211 323,211 323,211 323,211 323,211 324,211 324,211 324,211 324,211 324,213 324,213 324,214 324,215 324,216 324,216 324,217 324,217 324,218 325,219 325,220 325,221 325,221 325,222 325,223 325,224 325,225 325,225 325,226 325,226 325,227 325,228 326,228 326,229 326,230 326,231 326,232 326,233 326,234 326,235 326,236 326,236 326,237 326,237 326,236 327,236 327,236 327,236 327,236 327,235 327,235 327,235 327,235 327,235 327,235 327,236 327,236 327,237 328,237 328,237 328,238 328,238 328,238 328,238 328,239 328,239 328,239 328,239 328,239 328,239 328,239 329,238 329,239 329,239 329,239 329,239 329,238 329,238 329,238 329,238 329,237 329,237 329,236 329,234 330,233 330,233 330,232 330,231 330,230 330,229 330,228 330,227 330,227 330,226 330,224 330,223 330,221 331,220 331,218 331,217 331,215 331,213 331,211 331,213 331,212 331,212 331,212 331,211 331,211 331,210 332,208 332,206 332,204 332,203 332,201 332,200 332,198 332,196 332,195 332,194 332,193 332,192 332,191 333,190 333,189 333,188 333,187 333,187 333,187 333,186 333,186 333,186 333,185 333,185 333,185 333,185 334,184 334,184 334,184 334,184 334,184 334,184 334,183 334,183 334,183 334,183 334,183 334,182 334,182 335,182 335,182 335,181 335,180 335,180 335,179 335,179 335,179 335,178 335,178 335,178 335,177 335,177 336,176 336,175 336,175 336,174 336,174 336,173 336,172 336,171 336,171 336,170 336,168 336,167 336,166 337,165 337,163 337,162 337,161 337,160 337,159 337,158 337,157 337,156 337,155 337,154 337,153 337,151 338,150 338,148 338,147 338,146 338,145 338,145 338,143 338,141 338,140 338,139 338,138 338,138 338,137 339,136 339,136 339,137 339,138 339,138 339,138 339,139 339,139 339,139 339,140 339,140 339,140 339,141 340,141 340,141 340,141 340,142 340,142 340,142 340,143 340,143 340,144 340,144 340,145 340,146 340,147 341,148 341,149 341,151 341,153 341,155 341,157 341,159 341,161 341,162 341,164 341,166 341,168 341,169 342,171 342,172 342,173 342,172 342,172 342,171 342,170 342,169 342,168 342,167 342,165 342,164 342,162 343,161 343,160 343,159 343,158 343,158 343,157 343,156 343,154 343,153 343,153 343,152 343,152 343,151 344,151 344,150 344,150 344,151 344,151 344,151 344,151 344,150 344,150 344,150 344,150 344,150 344,150 345,150 345,150 345,150 345,150 345,150 345,150 345,150 345,150 345,149 345,149 345,148 345,148 345,148 346,147 346,148 346,148 346,148 346,148 346,148 346,148 346,149 346,149 346,150 346,150 346,152 346,153 347,154 347,156 347,158 347,160 347,162 347,165 347,167 347,168 347,170 347,172 347,173 347,175 347,176 348,176 348,175 348,175 348,174 348,172 348,171 348,169 348,168 348,167 348,165 348,164 348,163 348,162 349,162 349,161 349,159 349,158 349,157 349,157 349,156 349,156 349,155 349,155 349,155 349,155 349,155 350,155 350,155 350,156 350,156 350,156 350,155 350,154 350,153 350,151 350,150 350,149 350,148 350,147 351,145 351,144 351,143 351,142 351,142 351,141 351,141 351,141 351,140 351,140 351,140 351,139 351,139 352,139 352,138 352,138 352,138 352,138 352,138 352,138 352,138 352,138 352,137 352,137 352,136 352,135 353,134 353,133 353,132 353,130 353,128 353,126 353,125 353,123 353,122 353,120 353,119 353,119 353,120 354,120 354,120 354,120 354,120 354,120 354,120 354,120 354,120 354,120 354,120 354,120 354,120 354,120 355,120 355,120 355,120 355,120 355,121 355,122 355,123 355,124 355,125 355,126 355,127 355,128 355,129 356,130 356,131 356,132 356,131 356,130 356,129 356,128 356,127 356,126 356,125 356,123 356,122 356,122 357,121 357,121 357,120 357,119 357,119 357,117 357,116 357,115 357,115 357,114 357,113 357,113 357,113 358,112 358,112 358,112 358,111 358,111 358,111 358,110 358,110 358,109 358,109 358,109 358,108 358,108 359,107 359,107 359,107 359,106 359,106 359,106 359,106 359,106 359,106 359,106 359,106 359,106 359,106 360,106 360,106 360,106 360,106 360,106 360,106 360,106 360,106 360,105 360,104 360,104 360,104 360,104 361,104 361,104 361,105 361,105 361,105 361,106 361,106 361,106 361,107 361,107 361,107 361,107 361,108 362,109 362,109 362,110 362,111 362,111 362,113 362,115 362,116 362,117 362,117 362,118 362,119 362,119 363,119 363,119 363,119 363,118 363,118 363,117 363,117 363,116 363,116 363,115 363,114 363,114 363,113 364,112 364,111 364,110 364,110 364,110 364,110 364,110 364,110 364,110 364,110 364,110 364,110 364,109 365,109 365,108 365,107 365,106 365,105 365,104 365,104 365,104 365,105 365,106 365,106 365,107 365,107 366,107 366,107 366,108 366,108 366,108 366,108 366,108 366,109 366,109 366,109 366,109 366,109 366,110 367,110 367,110 367,111 367,111 367,111 367,112 367,113 367,113 367,114 367,114 367,115 367,116 367,116 368,116 368,116 368,116 368,117 368,116 368,115 368,114 368,114 368,113 368,113 368,113 368,112 368,112 369,112 369,112 369,112 369,112 369,112 369,112 369,112 369,112 369,112 369,113 369,113 369,113 369,113 370,112 370,113 370,112 370,112 370,112 370,112 370,113 370,113 370,113 370,113 370,113 370,114 370,114 371,114 371,114 371,114 371,114 371,115 371,115 371,115 371,115 371,115 371,115 371,115 371,115 371,115 372,116 372,117 372,119 372,119 372,120 372,120 372,121 372,121 372,120 372,121 372,121 372,121 372,120 373,120 373,119 373,119 373,118 373,118 373,118 373,117 373,117 373,116 373,116 373,115 373,115 373,114 374,114 374,113 374,113 374,112 374,112 374,112 374,111 374,111 374,110 374,110 374,109 374,108 374,108 375,107 375,107 375,107 375,107 375,106 375,106 375,105 375,105 375,104 375,104 375,103 375,103 375,102 376,102 376,101 376,101 376,100 376,99 376,97 376,96 376,96 376,95 376,95 376,94 376,94 376,94 377,95 377,95 377,96 377,96 377,96 377,96 377,96 377,96 377,97 377,97 377,97 377,97 377,97 378,97 378,97 378,97 378,97 378,97 378,96 378,97 378,97 378,97 378,97 378,97 378,97 378,97 379,98 379,98 379,98 379,99 379,99 379,99 379,99 379,99 379,99 379,100 379,100 379,100 379,100 380,100 380,100 380,100 380,100 380,101 380,101 380,101 380,101 380,100 380,98 380,97 380,96 380,99 381,102 381,105 381,106 381,105 381,105 381,105 381,105 381,105 381,105 381,105 381,105 381,105 381,105 382,105 382,105 382,105 382,106 382,106 382,106 382,106 382,106 382,106 382,106 382,106 382,106 382,106 383,106 383,107 383,107 383,107 383,107 383,107 383,107 383,107 383,108 383,108 383,108 383,109 383,109 384,110 384,110 384,111 384,112 384,112 384,113 384,113 384,114 384,116 384,117 384,118 384,118 384,119 385,120 385,120 385,121 385,122 385,122 385,123 385,124 385,125 385,125 385,126 385,127 385,128 385,129 386,129 386,130 386,132 386,133 386,134 386,134 386,135 386,135 386,137 386,137 386,138 386,138 386,139 387,140 387,142 387,144 387,144 387,144 387,144 387,144 387,144 387,144 387,144 387,145 387,145 387,145 388,145 388,144 388,144 388,143 388,142 388,141 388,140 388,140 388,140 388,141 388,141 388,141 388,141 389,141 389,142 389,141 389,141 389,141 389,141 389,141 389,140 389,140 389,139 389,138 389,136 389,136 390,136 390,136 390,136 390,136 390,136 390,137 390,139 390,140 390,141 390,141 390,142 390,143 390,143 391,144 391,145 391,146 391,148 391,149 391,149 391,150 391,151 391,152 391,153 391,153 391,154 391,155 392,155 392,156 392,157 392,157 392,158 392,159 392,159 392,160 392,161 392,162 392,163 392,164 392,165 393,166 393,167 393,168 393,170 393,171 393,172 393,173 393,174 393,176 393,177 393,177 393,178 393,179 394,179 394,180 394,180 394,180 394,180 394,180 394,180 394,180 394,180 394,180 394,179 394,179 394,178 395,178 395,177 395,176 395,176 395,175 395,174 395,173 395,172 395,171 395,170 395,170 395,169 395,168 396,167 396,166 396,165 396,164 396,163 396,161 396,160 396,159 396,158 396,157 396,155 396,154 396,153 397,151 397,150 397,149 397,147 397,146 397,145 397,144 397,143 397,142 397,141 397,140 397,141 397,141 398,142 398,142 398,142 398,142 398,142 398,142 398,142 398,142 398,142 398,142 398,142 398,142 398,142 399,142 399,141 399,141 399,141 399,140 399,140 399,140 399,140 399,139 399,139 399,139 399,139 399,139 400,140 400,140 400,140 400,141 400,141 400,141 400,142 400,142 400,142 400,143 400,143 400,143 400,143 401,143 401,144 401,144 401,144 401,143 401,143 401,143 401,143 401,142 401,142 401,141 401,140 401,140 402,139 402,138 402,137 402,135 402,134 402,135 402,136 402,136 402,137 402,137 402,137 402,138 402,138 403,138 403,138 403,138 403,138 403,139 403,139 403,139 403,139 403,139 403,139 403,140 403,140 403,140 404,140 404,140 404,140 404,140 404,140 404,140 404,140 404,140 404,141 404,141 404,141 404,141 404,141 405,141 405,142 405,142 405,142 405,142 405,142 405,142 405,142 405,142 405,142 405,142 405,142 405,143 406,143 406,143 406,142 406,142 406,142 406,141 406,141 406,141 406,140 406,140 406,139 406,138 406,137 407,137 407,137 407,137 407,137 407,137 407,136 407,136 407,136 407,135 407,135 407,134 407,134 407,133 408,133 408,133 408,132 408,132 408,132 408,131 408,131 408,131 408,130 408,130 408,130 408,130 408,130 409,129 409,129 409,129 409,129 409,129 409,128 409,128 409,128 409,128 409,127 409,127 409,127 409,127 410,126 410,126 410,126 410,126 410,125 410,125 410,125 410,124 410,124 410,124 410,123 410,123 410,123 411,122 411,122 411,122 411,122 411,121 411,121 411,121 411,120 411,120 411,120 411,120 411,120 411,119 412,119 412,119 412,119 412,118 412,118 412,118 412,118 412,118 412,117 412,117 412,117 412,117 412,117 413,117 413,117 413,117 413,117 413,117 413,117 413,117 413,117 413,117 413,117 413,117 413,117 413,117 414,117 414,117 414,117 414,117 414,116 414,116 414,116 414,116 414,115 414,116 414,118 414,120 414,121 415,123 415,124 415,126 415,127 415,129 415,130 415,131 415,132 415,133 415,134 415,135 415,136 415,137 416,136 416,136 416,137 416,138 416,138 416,138 416,138 416,138 416,139 416,138 416,138 416,138 416,138 417,139 417,139 417,139 417,139 417,139 417,139 417,139 417,138 417,138 417,138 417,138 417,138 417,138 418,138 418,137 418,137 418,137 418,137 418,137 418,137 418,137 418,137 418,136 418,136 418,136 418,136 419,136 419,136 419,136 419,136 419,136 419,136 419,136 419,136 419,137 419,138 419,138 419,138 419,139 420,139 420,140 420,141 420,141 420,142 420,142 420,143 420,143 420,144 420,144 420,145 420,145 420,146 421,146 421,147 421,148 421,148 421,149 421,150 421,150 421,151 421,152 421,153 421,153 421,154 421,155 422,156 422,157 422,157 422,158 422,158 422,159 422,159 422,158 422,158 422,158 422,158 422,157 422,157 423,156 423,156 423,156 423,155 423,155 423,154 423,154 423,153 423,153 423,153 423,153 423,153 423,152 424,152 424,152 424,152 424,151 424,151 424,150 424,150 424,149 424,149 424,148 424,147 424,147 424,147 425,147 425,146 425,146 425,146 425,146 425,145 425,145 425,145 425,144 425,144 425,144 425,143 425,142 426,142 426,142 426,141 426,141 426,141 426,141 426,140 426,140 426,139 426,139 426,140 426,140 426,140 427,140 427,140 427,141 427,141 427,142 427,142 427,143 427,143 427,143 427,144 427,144 427,145 427,145 428,146 428,147 428,147 428,148 428,148 428,149 428,150 428,151 428,152 428,152 428,153 428,154 428,155 429,156 429,157 429,158 429,159 429,159 429,160 429,160 429,159 429,159 429,158 429,158 429,157 429,157 430,157 430,156 430,156 430,154 430,153 430,152 430,152 430,151 430,151 430,150 430,150 430,150 430,149 431,149 431,149 431,148 431,148 431,147 431,147 431,147 431,146 431,146 431,146 431,145 431,145 431,145 432,145 432,144 432,144 432,144 432,144 432,144 432,144 432,144 432,144 432,144 432,144 432,144 432,144 433,144 433,144 433,144 433,144 433,144 433,144 433,144 433,144 433,144 433,144 433,144 433,145 433,145 434,145 434,146 434,146 434,146 434,147 434,147 434,148 434,148 434,148 434,149 434,149 434,149 434,150 435,150 435,150 435,150 435,150 435,149 435,149 435,148 435,148 435,147 435,146 435,146 435,145 435,144 436,143 436,142 436,142 436,141 436,140 436,140 436,139 436,139 436,139 436,138 436,138 436,137 436,137 437,137 437,136 437,136 437,136 437,136 437,135 437,135 437,135 437,135 437,135 437,134 437,134 437,134 438,134 438,133 438,133 438,133 438,133 438,133 438,132 438,132 438,131 438,131 438,130 438,129 438,128 439,127 439,127 439,126 439,125 439,124 439,124 439,123 439,122 439,122 439,121 439,121 439,120 439,120 440,120 440,120 440,120 440,120 440,120 440,120 440,120 440,120 440,119 440,119 440,119 440,119 440,119 441,119 441,119 441,118 441,118 441,118 441,118 441,118 441,117 441,117 441,117 441,116 441,116 441,116 442,116 442,116 442,115 442,115 442,114 442,114 442,114 442,113 442,113 442,112 442,112 442,112 442,112 443,111 443,110 443,109 443,109 443,108 443,108 443,108 443,107 443,107 443,107 443,106 443,106 443,106 444,106 444,106 444,106 444,106 444,106 444,105 444,105 444,105 444,105 444,104 444,104 444,103 444,104 445,104 445,104 445,104 445,104 445,104 445,104 445,104 445,104 445,104 445,104 445,104 445,105 445,105 446,105 446,105 446,106 446,106 446,106 446,107 446,108 446,108 446,109 446,110 446,110 446,111 446,112 447,113 447,113 447,114 447,115 447,115 447,116 447,116 447,116 447,117 447,117 447,117 447,117 447,117 448,117 448,117 448,117 448,117 448,118 448,118 448,119 448,119 448,120 448,120 448,121 448,121 448,122 449,122 449,123 449,123 449,124 449,124 449,125 449,126 449,126 449,127 449,128 449,128 449,129 449,129 450,129 450,129 450,129 450,129 450,129 450,129 450,129 450,129 450,129 450,128 450,128 450,128 450,127 451,127 451,127 451,127 451,127 451,127 451,127 451,127 451,127 451,127 451,126 451,126 451,126 451,126 452,125 452,125 452,125 452,124 452,124 452,123 452,123 452,122 452,122 452,121 452,121 452,120 452,120 453,120 453,119 453,119 453,119 453,119 453,119 453,119 453,119 453,119 453,119 453,119 453,119 453,120 454,120 454,120 454,120 454,120 454,120 454,121 454,121 454,121 454,121 454,122 454,122 454,122 454,123 455,123 455,124 455,124 455,124 455,125 455,125 455,126 455,126 455,127 455,127 455,127 455,127 455,127 456,127 456,127 456,127 456,127 456,126 456,126 456,125 456,125 456,124 456,124 456,124 456,123 456,123 457,123 457,122 457,122 457,122 457,121 457,121 457,121 457,120 457,120 457,120 457,120 457,119 457,119 458,118 458,118 458,118 458,118 458,118 458,118 458,118 458,118 458,118 458,118 458,118 458,118 458,118 459,119 459,119 459,119 459,119 459,119 459,119 459,119 459,119 459,119 459,119 459,119 459,118 459,118 460,118 460,118 460,118 460,117 460,117 460,117 460,116 460,116 460,115 460,115 460,115 460,115 460,115 461,116 461,116 461,116 461,116 461,116 461,116 461,117 461,117 461,117 461,118 461,118 461,119 461,119 462,120 462,120 462,120 462,121 462,121 462,122 462,122 462,122 462,123 462,123 462,123 462,123 462,123 463,124 463,124 463,124 463,124 463,124 463,124 463,124 463,124 463,124 463,124 463,124 463,125 463,125 464,124 464,124 464,124 464,124 464,124 464,124 464,123 464,123 464,123 464,123 464,123 464,123 464,122 465,122 465,122 465,122 465,122 465,122 465,122 465,122 465,122 465,122 465,122 465,122 465,122 465,122 466,122 466,123 466,123 466,123 466,124 466,124 466,124 466,124 466,125 466,125 466,125 466,125 466,125 467,125 467,125 467,125 467,124 467,124 467,124 467,123 467,123 467,123 467,123 467,122 467,122 467,122 468,122 468,121 468,121 468,121 468,121 468,120 468,120 468,120 468,120 468,119 468,119 468,119 468,118 469,118 469,118 469,118 469,118 469,118 469,118 469,118 469,118 469,119 469,119 469,119 469,119 469,119 470,119 470,118 470,118 470,118 470,118 470,117 470,117 470,117 470,116 470,116 470,116 470,115 470,115 471,115 471,115 471,115 471,115 471,115 471,115 471,115 471,115 471,114 471,114 471,113 471,113 471,112 472,112 472,112 472,112 472,112 472,111 472,111 472,110 472,110 472,110 472,109 472,109 472,108 472,108 473,107 473,107 473,106 473,106 473,105 473,105 473,105 473,104 473,104 473,103 473,102 473,102 473,102 474,101 474,101 474,101 474,101 474,101 474,101 474,101 474,101 474,101 474,101 474,101 474,101 474,101 475,101 475,102 475,103 475,104 475,104 475,105 475,106 475,107 475,108 475,108 475,109 475,110 475,110 476,111 476,112 476,112 476,113 476,113 476,113 476,114 476,114 476,114 476,114 476,115 476,115 476,115 477,115 477,115 477,115 477,115 477,115 477,115 477,115 477,115 477,116 477,116 477,116 477,116 477,117 478,117 478,117 478,117 478,118 478,118 478,118 478,118 478,119 478,119 478,118 478,118 478,117 478,117 479,116 479,116 479,115 479,115 479,115 479,114 479,114 479,114 479,114 479,114 479,114 479,114 479,114 480,114 480,114 480,114 480,115 480,115 480,115 480,114 480,114 480,114 480,114 480,114 480,114 480,114 481,114 481,115 481,115 481,115 481,115 481,115 481,115 481,115 481,115 481,115 481,115 481,115 481,115 482,115 482,115 482,115 482,115 482,115 482,115 482,115 482,115 482,115 482,115 482,116 482,116 482,116 483,117 483,117 483,117 483,118 483,118 483,119 483,119 483,119 483,120 483,120 483,120 483,120 483,121 484,121 484,122 484,122 484,123 484,123 484,123 484,123 484,124 484,124 484,125 484,125 484,125 484,126 485,126 485,126 485,127 485,127 485,128 485,128 485,128 485,128 485,128 485,128 485,128 485,128 485,128 486,128 486,128 486,128 486,127 486,127 486,127 486,126 486,126 486,126 486,125 486,125 486,124 486,124 487,123 487,123 487,122 487,122 487,121 487,121 487,121 487,121 487,120 487,120 487,120 487,121 487,121 488,121 488,121 488,121 488,121 488,121 488,121 488,121 488,121 488,121 488,121 488,121 488,121 488,120 489,120 489,121 489,121 489,122 489,122 489,122 489,123 489,123 489,124 489,124 489,124 489,125 489,126 490,127 490,128 490,127 490,127 490,127 490,127 490,126 490,126 490,126 490,125 490,125 490,124 490,124 491,124 491,123 491,123 491,122 491,122 491,122 491,122 491,121 491,121 491,122 491,122 491,122 491,122 492,122 492,122 492,123 492,123 492,123 492,124 492,124 492,124 492,125 492,125 492,126 492,126 492,128 493,129 493,130 493,130 493,131 493,131 493,132 493,132 493,131 493,131 493,131 493,131 493,130 493,130 494,129 494,129 494,128 494,128 494,127 494,127 494,127 494,126 494,126 494,125 494,126 494,126 494,126 495,126 495,126 495,126 495,126 495,126 495,126 495,126 495,127 495,127 495,127 495,127 495,127 495,127 496,127 496,127 496,128 496,128 496,128 496,128 496,128 496,128 496,128 496,128 496,127 496,127 496,127 497,126 497,126 497,125 497,124 497,124 497,123 497,123 497,123 497,123 497,123 497,122 497,122 497,122 498,122 498,122 498,122 498,122 498,122 498,122 498,122 498,121 498,121 498,121 498,121 498,122 498,122 499,122 499,123 499,123 499,123 499,124 499,124 499,125 499,126 499,126 499,127 499,127 499,128 499,128 500,128 500,128 500,129 500,129 500,128 500,128 500,128 500,128 500,128 500,127 500,127 500,127 500,127 501,126 501,126 501,126 501,126 501,125 501,125 501,125 501,124 501,124 501,124 501,123 501,123 501,122 502,122 502,122 502,121 502,121 502,120 502,120 502,119 502,119 502,119 502,118 502,118 502,118 502,117 503,117 503,117 503,116 503,116 503,116 503,116 503,116 503,116 503,116 503,116 503,116 503,117 503,117 504,118 504,118 504,119 504,119 504,120 504,120 504,121 504,121 504,122 504,122 504,122 504,123 504,123 505,124 505,124 505,125 505,125 505,125 505,125 505,126 505,126 505,126 505,126 505,126 505,126 505,126 506,126 506,127 506,128 506,128 506,129 506,130 506,130 506,130 506,131 506,131 506,131 506,131 506,131 507,131 507,131 507,130 507,130 507,129 507,129 507,128 507,128 507,127 507,127 507,126 507,126 507,126 508,126 508,126 508,126 508,126 508,126 508,126 508,126 508,126 508,126 508,125 508,125 508,125 508,125 509,125 509,125 509,125 509,125 509,125 509,125 509,125 509,125 509,125 509,125 509,125 509,125 509,125 510,125 510,125 510,124 510,124 510,123 510,123 510,123 510,123 510,122 510,122 510,122 510,122 510,121 511,121 511,122 511,122 511,122 511,123 511,123 511,123 511,124 511,124 511,124 511,124 511,125 511,125 512,125 512,126 512,126 512,127 512,127 512,128 512,128 512,128 512,128 512,129 512,129 512,129 512,130 513,130 513,130 513,130 513,130 513,130 513,130 513,130 513,130 513,130 513,130 513,131 513,131 513,131 514,131 514,131 514,131 514,131 514,131 514,131 514,131 514,131 514,131 514,131 514,131 514,131 514,131 515,132 515,132 515,132 515,132 515,133 515,133 515,134 515,134 515,135 515,135 515,135 515,136 515,136 516,136 516,136 516,137 516,137 516,137 516,138 516,138 516,138 516,139 516,139 516,139 516,139 516,139 517,139 517,139 517,139 517,139 517,139 517,139 517,139 517,139 517,139 517,139 517,139 517,139 517,139 518,139 518,139 518,139 518,139 518,139 518,139 518,139 518,140 518,140 518,140 518,140 518,141 518,141 519,141 519,142 519,142 519,142 519,142 519,142 519,142 519,142 519,142 519,142 519,141 519,141 519,141 520,141 520,141 520,141 520,141 520,141 520,141 520,141 520,141 520,141 520,141 520,141 520,141 520,141 521,141 521,141 521,140 521,140 521,140 521,140 521,139 521,139 521,138 521,138 521,138 521,137 521,137 522,136 522,136 522,135 522,135 522,134 522,134 522,134 522,134 522,134 522,133 522,133 522,133 522,133 523,132 523,132 523,132 523,132 523,132 523,132 523,131 523,131 523,131 523,131 523,130 523,130 523,130 524,130 524,129 524,129 524,129 524,128 524,128 524,127 524,127 524,126 524,125 524,125 524,124 524,123 525,123 525,122 525,121 525,121 525,121 525,120 525,120 525,119 525,119 525,118 525,117 525,117 525,116 526,116 526,115 526,115 526,114 526,114 526,113 526,113 526,112 526,112 526,111 526,111 526,110 526,109 527,109 527,109 527,108 527,107 527,107 527,106 527,106 527,105 527,105 527,104 527,104 527,103 527,103 528,102 528,101 528,101 528,100 528,100 528,100 528,99 528,98 528,98 528,97 528,97 528,96 528,96 529,95 529,94 529,94 529,93 529,92 529,91 529,91 529,90 529,90 529,89 529,89 529,88 529,88 530,88 530,88 530,87 530,87 530,87 530,86 530,86 530,86 530,86 530,86 530,86 530,86 530,85 531,85 531,85 531,85 531,85 531,85 531,84 531,84 531,84 531,84 531,84 531,84 531,84 531,83 532,83 532,83 532,83 532,83 532,84 532,84 532,84 532,84 532,84 532,84 532,84 532,84 532,84 533,84 533,84 533,84 533,84 533,84 533,83 533,83 533,83 533,83 533,83 533,82 533,82 533,82 534,82 534,82 534,82 534,82 534,82 534,82 534,82 534,83 534,83 534,83 534,83 534,83 534,83 535,82 535,82 535,82 535,82 535,83 535,83 535,82 535,82 535,82 535,83 535,84 535,85 535,86 536,87 536,88 536,88 536,89 536,89 536,90 536,90 536,91 536,91 536,92 536,92 536,92 536,93 537,93 537,93 537,93 537,93 537,93 537,93 537,93 537,93 537,93 537,93 537,94 537,94 537,94 538,93 538,93 538,93 538,93 538,93 538,93 538,93 538,93 538,93 538,93 538,93 538,93 538,92 539,92 539,92 539,92 539,91 539,91 539,91 539,91 539,91 539,91 539,91 539,90 539,90 539,90 540,90 540,91 540,91 540,91 540,91 540,91 540,91 540,91 540,91 540,91 540,90 540,91 540,91 541,91 541,91 541,91 541,91 541,92 541,92 541,93 541,93 541,94 541,94 541,95 541,96 541,97 542,97 542,98 542,98 542,99 542,100 542,100 542,101 542,101 542,102 542,103 542,104 542,104 542,105 543,106 543,105 543,105 543,106 543,106 543,106 543,107 543,107 543,107 543,107 543,108 543,108 543,108 544,108 544,109 544,109 544,109 544,109 544,108 544,108 544,109 544,109 544,110 544,110 544,111 544,111 545,112 545,114 545,114 545,115 545,115 545,115 545,116 545,116 545,116 545,117 545,117 545,117 545,118 546,118 546,118 546,119 546,119 546,119 546,119 546,119 546,120 546,120 546,120 546,121 546,121 546,121 547,121 547,121 547,122 547,122 547,122 547,123 547,123 547,123 547,123 547,124 547,124 547,124 547,124 548,124 548,125 548,125 548,125 548,125 548,126 548,126 548,126 548,126 548,126 548,126 548,126 548,127 549,127 549,128 549,128 549,129 549,129 549,130 549,130 549,130 549,130 549,131 549,131 549,131 549,131 550,131 550,131 550,131 550,131 550,131 550,132 550,132 550,132 550,132 550,132 550,133 550,133 550,133 551,133 551,133 551,133 551,133 551,133 551,133 551,133 551,133 551,133 551,133 551,133 551,133 551,133 552,133 552,133 552,133 552,133 552,132 552,132 552,132 552,132 552,132 552,132 552,132 552,132 552,132 553,132 553,132 553,132 553,132 553,132 553,133 553,133 553,133 553,133 553,133 553,133 553,133 553,133 554,133 554,133 554,133 554,133 554,133 554,133 554,133 554,133 554,133 554,133 554,134 554,134 554,134 555,134 555,134 555,134 555,135 555,135 555,135 555,135 555,135 555,135 555,135 555,135 555,135 555,135 556,135 556,134 556,134 556,134 556,134 556,134 556,134 556,134 556,134 556,134 556,134 556,134 556,134 557,134 557,134 557,134 557,134 557,135 557,135 557,135 557,135 557,135 557,135 557,135 557,135 557,136 558,136 558,136 558,136 558,136 558,136 558,136 558,136 558,137 558,137 558,137 558,137 558,137 558,137 559,137 559,137 559,137 559,137 559,137 559,137 559,137 559,137 559,138 559,138 559,138 559,138 559,137 560,137 560,137 560,137 560,137 560,137 560,137 560,137 560,137 560,137 560,137 560,137 560,137 560,137 561,137 561,136 561,136 561,136 561,136 561,136 561,136 561,136 561,137 561,137 561,137 561,138 561,138 562,138 562,139 562,139 562,140 562,140 562,141 562,141 562,142 562,143 562,143 562,144 562,144 562,145 563,145 563,145 563,145 563,145 563,145 563,145 563,145 563,144 563,144 563,144 563,144 563,144 563,144 564,144 564,144 564,144 564,144 564,144 564,144 564,144 564,144 564,144 564,143 564,143 564,143 564,143 565,143 565,143 565,143 565,143 565,143 565,143 565,143 565,143 565,143 565,143 565,143 565,143 565,143 566,143 566,143 566,143 566,143 566,142 566,142 566,142 566,143 566,143 566,143 566,143 566,142 566,142 567,142 567,142 567,142 567,142 567,142 567,142 567,142 567,141 567,141 567,142 567,142 567,142 567,142 568,142 568,141 568,141 568,141 568,141 568,141 568,141 568,140 568,140 568,140 568,139 568,139 568,139 569,139 569,139 569,139 569,139 569,139 569,139 569,139 569,139 569,139 569,138 569,138 569,138 569,138 570,138 570,138 570,138 570,139 570,139 570,139 570,139 570,139 570,139 570,139 570,139 570,139 570,139 571,139 571,139 571,138 571,138 571,138 571,138 571,138 571,138 571,138 571,138 571,138 571,139 571,139 572,138 572,138 572,138 572,139 572,138 572,138 572,137 572,136 572,136 572,136 572,136 572,136 572,136 573,135 573,135 573,135 573,135 573,134 573,134 573,134 573,133 573,133 573,133 573,132 573,131 573,131 574,130 574,130 574,130 574,129 574,128 574,128 574,127 574,127 574,127 574,127 574,126 574,126 574,125 575,125 575,125 575,125 575,125 575,125 575,124 575,124 575,124 575,123 575,123 575,123 575,123 575,123 576,123 576,123 576,123 576,123 576,122 576,122 576,122 576,121 576,121 576,121 576,120 576,120 576,120 577,119 577,119 577,119 577,118 577,118 577,118 577,117 577,117 577,117 577,116 577,116 577,116 577,116 578,116 578,116 578,116 578,115 578,115 578,114 578,114 578,113 578,113 578,113 578,112 578,112 578,111 579,111 579,110 579,110 579,109 579,109 579,109 579,109 579,108 579,108 579,108 579,108 579,108 579,108 580,107 580,107 580,107 580,107 580,107 580,106 580,106 580,106 580,106 580,105 580,105 580,105 580,104 581,104 581,104 581,103 581,103 581,102 581,102 581,102 581,101 581,101 581,101 581,101 581,100 581,100 582,100 582,100 582,100 582,100 582,100 582,100 582,100 582,99 582,99 582,99 582,99 582,99 582,99 583,99 583,98 583,98 583,98 583,98 583,97 583,97 583,97 583,97 583,97 583,97 583,97 583,97 584,97 584,97 584,97 584,97 584,97 584,98 584,98 584,97 584,96 584,95 584,94 584,93 584,93 585,92 585,92 585,92 585,92 585,92 585,92 585,92 585,92 585,92 585,92 585,92 585,92 585,92 586,92 586,92 586,92 586,92 586,92 586,92 586,92 586,92 586,92 586,92 586,92 586,92 586,92 587,92 587,92 587,92 587,92 587,93 587,93 587,93 587,93 587,94 587,94 587,95 587,95 587,95 588,95 588,96 588,96 588,96 588,96 588,96 588,97 588,97 588,97 588,97 588,97 588,98 588,98 589,98 589,98 589,99 589,99 589,99 589,99 589,100 589,100 589,100 589,100 589,101 589,101 589,101 590,102 590,102 590,102 590,102 590,102 590,103 590,103 590,103 590,103 590,103 590,104 590,104 590,104 591,104 591,104 591,105 591,105 591,105 591,105 591,105 591,106 591,106 591,106 591,107 591,107 591,107 592,108 592,108 592,108 592,108 592,109 592,109 592,109 592,110 592,110 592,110 592,110 592,110 592,111 593,111 593,111 593,111 593,111 593,112 593,112 593,112 593,112 593,112 593,112 593,112 593,112 593,113 594,113 594,113 594,113 594,113 594,114 594,114 594,114 594,114 594,114 594,114 594,114 594,114 594,114 595,114 595,114 595,114 595,114 595,114 595,114 595,114 595,114 595,114 595,114 595,114 595,114 595,114 596,114 596,114 596,114 596,114 596,114 596,114 596,114 596,114 596,114 596,114 596,114 596,114 596,114 597,114 597,114 597,114 597,114 597,114 597,114 597,114 597,114 597,114 597,114 597,114 597,114 597,115 598,115 598,115 598,114 598,114 598,115 598,115 598,115 598,115 598,115 598,115 598,115 598,116 598,116 599,116 599,116 599,116 599,116 599,116 599,116 599,116 599,116 599,117 599,117 599,117 599,117 599,117 600,117 600,117 600,117 600,117 600,117 600,117 600,117 600,117 600,117 600,117 600,117 600,117 600,117 601,117 601,117 601,118 601,118 601,118 601,118 601,118 601,118 601,118 601,118 601,118 601,118 601,118 602,118 602,118 602,119 602,119 602,119 602,119 602,119 602,119 602,119 602,119 602,119 602,119 602,120 603,120 603,120 603,120 603,120 603,120 603,120 603,120 603,120 603,120 603,120 603,121 603,121 603,121 604,121 604,121 604,121 604,121 604,121 604,121 604,121 604,121 604,121 604,121 604,121 604,121 604,121 605,121 605,121 605,121 605,122 605,122 605,122 605,122 605,122 605,122 605,122 605,122 605,122 605,121 606,121 606,121 606,121 606,121 606,121 606,121 606,121 606,120 606,120 606,120 606,120 606,120 606,120 607,119 607,119 607,119 607,119 607,119 607,119 607,119 607,118 607,118 607,118 607,118 607,118 607,118 608,117 608,117 608,117 608,117 608,117 608,117 608,117 608,117 608,116 608,116 608,116 608,116 608,116 609,116 609,116 609,115 609,115 609,115 609,115 609,114 609,114 609,114 609,114 609,114 609,113 609,113 610,113 610,113 610,113 610,113 610,113 610,113 610,113 610,113 610,112 610,113 610,113 610,113 610,114 611,114 611,114 611,114 611,115 611,115 611,115 611,115 611,116 611,116 611,116 611,116 611,116 611,117 612,117 612,117 612,117 612,117 612,117 612,117 612,117 612,117 612,118 612,118 612,118 612,118 612,118 613,118 613,119 613,119 613,119 613,119 613,120 613,120 613,120 613,120 613,121 613,121 613,121 613,121 614,122 614,122 614,122 614,122 614,122 614,123 614,123 614,123 614,123 614,123 614,123 614,123 614,123 615,123 615,123 615,124 615,124 615,123 615,123 615,123 615,123 615,123 615,122 615,122 615,122 615,122 616,121 616,121 616,121 616,121 616,121 616,120 616,120 616,120 616,119 616,119 616,118 616,118 616,118 617,118 617,117 617,117 617,117 617,117 617,117 617,118 617,117 617,117 617,117 617,117 617,117 617,117 618,117 618,117 618,117 618,117 618,117 618,118 618,118 618,118 618,119 618,119 618,120 618,120 618,120 619,121 619,121 619,121 619,122 619,122 619,122 619,123 619,123 619,123 619,124 619,124 619,124 619,125 620,125 620,125 620,126 620,126 620,126 620,126 620,126 620,127 620,127 620,127 620,127 620,128 620,128 621,128 621,129 621,129 621,129 621,129 621,129 621,129 621,128 621,128 621,127 621,127 621,127 621,127 622,127 622,127 622,127 622,126 622,126 622,126 622,126 622,126 622,125 622,125 622,126 622,126 622,126 623,126 623,126 623,126 623,126 623,127 623,127 623,127 623,128 623,128 623,128 623,129 623,129 623,129 624,130 624,130 624,130 624,131 624,131 624,131 624,131 624,132 624,132 624,132 624,132 624,133 624,133 625,134 625,135 625,135 625,136 625,136 625,136 625,137 625,137 625,138 625,138 625,139 625,139 625,140 626,140 626,141 626,141 626,142 626,142 626,142 626,143 626,143 626,143 626,144 626,144 626,144 626,145 627,145 627,146 627,146 627,146 627,147 627,147 627,147 627,147 627,147 627,147 627,147 627,147 627,146 628,146 628,145 628,145 628,144 628,144 628,143 628,142 628,142 628,142 628,142 628,142 628,141 628,141 629,141 629,141 629,140 629,140 629,140 629,139 629,139 629,140 629,140 629,140 629,140 629,141 629,141 630,142 630,142 630,143 630,143 630,144 630,144 630,144 630,145 630,145 630,145 630,145 630,145 630,145 631,144 631,144 631,143 631,143 631,142 631,142 631,141 631,141 631,141 631,141 631,140 631,140 631,140 632,140 632,140 632,140 632,140 632,140 632,140 632,141 632,141 632,141 632,141 632,142 632,142 632,142 633,142 633,142 633,142 633,142 633,142 633,142 633,142 633,142 633,142 633,142 633,141 633,141 633,141 634,140 634,140 634,140 634,140 634,139 634,139 634,139 634,138 634,138 634,138 634,138 634,137 634,137 635,137 635,137 635,136 635,136 635,136 635,136 635,136 635,136 635,136 635,136 635,136 635,136 635,136 636,136 636,136 636,136 636,136 636,137 636,137 636,137 636,137 636,137 636,138 636,138 636,138 636,138 637,138 637,138 637,138 637,138 637,138 637,138 637,138 637,137 637,137 637,137 637,137 637,137 637,137 638,136 638,136 638,136 638,136 638,136 638,137 638,137 638,137 638,137 638,137 638,137 638,137 638,137 639,136 639,136 639,136 639,136 639,136 639,136 639,136 639,136 639,135 639,135 639,135 639,135 639,135 640,135 640,135 640,135 640,135 640,135 640,135 640,135 640,135 640,135 640,136 640,136 640,136 640,136 641,137 641,137 641,137 641,138 641,138 641,138 641,139 641,139 641,139 641,140 641,140 641,140 641,141 642,141 642,141 642,142 642,142 642,142 642,143 642,143 642,143 642,143 642,144 642,144 642,144 642,144 643,145 643,145 643,145 643,146 643,146 643,147 643,147 643,147 643,147 643,148 643,148 643,148 643,149 644,149 644,149 644,149 644,149 644,150 644,150 644,150 644,150 644,151 644,151 644,151 644,151 644,152 645,152 645,152 645,152 645,152 645,152 645,153 645,153 645,153 645,153 645,153 645,153 645,153 645,153 646,154 646,154 646,154 646,154 646,154 646,154 646,154 646,155 646,155 646,155 646,155 646,155 646,155 647,155 647,155 647,155 647,155 647,155 647,156 647,156 647,156 647,156 647,156 647,156 647,156 647,156 648,156 648,156 648,156 648,156 648,156 648,156 648,156 648,156 648,156 648,156 648,156 648,156 648,156 649,156 649,156 649,156 649,156 649,156 649,157 649,157 649,157 649,157 649,157 649,157 649,157 649,157 650,158 650,158 650,158 650,158 650,158 650,158 650,159 650,159 650,159 650,159 650,159 650,160 650,160 651,160 651,160 651,160 651,161 651,161 651,161 651,161 651,161 651,161 651,161 651,161 651,161 651,161 652,161 652,161 652,161 652,161 652,161 652,161 652,161 652,161 652,162 652,162 652,162 652,162 652,162 653,162 653,162 653,162 653,162 653,162 653,162 653,162 653,162 653,162 653,162 653,162 653,162 653,162 654,162 654,162 654,162 654,162 654,162 654,163 654,163 654,163 654,163 654,163 654,163 654,163 654,163 655,163 655,163 655,163 655,163 655,163 655,163 655,163 655,163 655,164 655,164 655,164 655,164 655,164 656,165 656,165 656,165 656,165 656,165 656,166 656,166 656,166 656,166 656,166 656,166 656,166 656,166 657,167 657,167 657,167 657,167 657,167 657,167 657,167 657,167 657,167 657,167 657,167 657,167 657,167 658,167 658,167 658,167 658,167 658,167 658,167 658,167 658,167 658,167 658,167 658,167 658,167 658,167 659,168 659,168 659,168 659,168 659,168 659,168 659,168 659,168 659,169 659,169 659,169 659,169 659,169 660,169 660,170 660,170 660,170 660,170 660,170 660,171 660,171 660,171 660,171 660,171 660,172 660,172 661,172 661,172 661,172 661,172 661,172 661,172 661,173 661,173 661,173 661,173 661,173 661,173 661,173 662,173 662,173 662,174 662,174 662,174 662,174 662,174 662,174 662,175 662,175 662,175 662,175 662,175 663,175 663,175 663,175 663,175 663,175 663,175 663,175 663,175 663,175 663,175 663,176 663,176 663,176 664,176 664,176 664,176 664,176 664,176 664,176 664,175 664,175 664,175 664,175 664,175 664,175 664,175 665,175 665,175 665,175 665,175 665,175 665,175 665,175 665,175 665,175 665,175 665,175 665,175 665,175 666,175 666,175 666,175 666,175 666,175 666,174 666,174 666,174 666,174 666,174 666,174 666,173 666,173 667,173 667,173 667,173 667,172 667,172 667,172 667,172 667,171 667,171 667,170 667,170 667,169 667,169 668,169 668,168 668,168 668,168 668,167 668,167 668,167 668,167 668,166 668,166 668,166 668,165 668,165 669,165 669,164 669,164 669,164 669,163 669,163 669,163 669,162 669,162 669,162 669,162 669,162 669,162 670,162 670,162 670,163 670,163 670,164 670,164 670,165 670,165 670,166 670,166 670,167 670,168 670,168 671,169 671,169 671,170 671,171 671,171 671,172 671,172 671,173 671,173 671,173 671,174 671,174 671,174 672,174 672,175 672,175 672,175 672,176 672,176 672,176 672,176 672,177 672,177 672,177 672,177 672,177 673,177 673,177 673,177 673,177 673,177 673,177 673,177 673,177 673,177 673,177 673,177 673,178 673,178 674,178 674,178 674,178 674,178 674,178 674,178 674,178 674,178 674,178 674,177 674,177 674,177 674,176 675,176 675,175 675,175 675,175 675,174 675,174 675,174 675,174 675,173 675,173 675,172 675,172 675,172 676,171 676,171 676,171 676,171 676,170 676,170 676,170 676,170 676,169 676,169 676,169 676,169 676,169 677,169 677,168 677,168 677,168 677,168 677,168 677,168 677,168 677,168 677,168 677,168 677,168 677,168 678,169 678,169 678,169 678,170 678,170 678,171 678,172 678,172 678,173 678,173 678,173 678,174 678,174 679,174 679,175 679,175 679,175 679,176 679,176 679,176 679,176 679,177 679,177 679,177 679,177 679,178 680,178 680,178 680,178 680,179 680,179 680,179 680,179 680,179 680,179 680,179 680,179 680,180 680,180 681,180 681,180 681,180 681,180 681,180 681,181 681,181 681,180 681,180 681,180 681,179 681,179 681,179 682,178 682,178 682,178 682,178 682,177 682,177 682,177 682,177 682,177 682,177 682,177 682,177 682,177 683,177 683,177 683,177 683,177 683,177 683,178 683,178 683,179 683,179 683,180 683,180 683,181 683,182 684,182 684,183 684,183 684,184 684,184 684,184 684,185 684,185 684,185 684,186 684,186 684,186 684,186 685,187 685,187 685,187 685,187 685,187 685,187 685,188 685,188 685,188 685,188 685,188 685,188 685,188 686,188 686,188 686,188 686,188 686,188 686,188 686,188 686,188 686,188 686,188 686,188 686,188 686,188 687,188 687,188 687,188 687,187 687,187 687,187 687,186 687,186 687,186 687,185 687,185 687,184 687,184 688,184 688,183 688,183 688,183 688,182 688,182 688,182 688,182 688,182 688,182 688,182 688,182 688,182 689,182 689,182 689,182 689,182 689,183 689,183 689,183 689,184 689,184 689,184 689,185 689,185 689,185 690,186 690,186 690,187 690,187 690,187 690,188 690,188 690,189 690,189 690,189 690,190 690,190 690,190 691,191 691,191 691,191 691,191 691,192 691,192 691,192 691,192 691,192 691,192 691,192 691,193 691,193 692,193 692,193 692,193 692,194 692,194 692,194 692,194 692,194 692,194 692,194 692,194 692,194 692,195 693,195 693,195 693,195 693,195 693,195 693,195 693,196 693,195 693,195 693,195 693,195 693,195 693,195 694,195 694,195 694,195 694,195 694,195 694,195 694,195 694,195 694,194 694,195 694,195 694,195 694,195 695,195 695,195 695,195 695,195 695,195 695,195 695,195 695,195 695,195 695,195 695,196 695,196 695,196 696,196 696,196 696,196 696,196 696,196 696,196 696,195 696,195 696,195 696,195 696,195 696,195 696,195 697,195 697,195 697,195 697,195 697,195 697,195 697,195 697,195 697,195 697,195 697,195 697,195 697,195 698,195 698,195 698,195 698,195 698,195 698,195 698,195 698,195 698,195 698,195 698,195 698,196 698,196 699,196 699,196 699,196 699,196 699,196 699,196 699,196 699,196 699,196 699,196 699,196 699,197 699,197 700,197 700,197 700,197 700,197 700,197 700,198 700,198 700,198 700,198 700,198 700,198 700,198 700,198 701,198 701,198 701,198 701,198 701,197 701,197 701,197 701,197 701,196 701,196 701,196 701,196 701,196 702,196 702,195 702,195 702,195 702,195 702,195 702,195 702,195 702,195 702,195 702,195 702,195 702,195 703,195 703,195 703,195 703,195 703,194 703,194 703,194 703,194 703,194 703,194 703,193 703,193 703,193 704,193 704,194 704,194 704,194 704,194 704,194 704,194 704,194 704,194 704,194 704,194 704,194 704,194 705,194 705,194 705,194 705,195 705,195 705,195 705,195 705,195 705,196 705,196 705,196 705,197 705,197 706,198 706,198 706,199 706,199 706,200 706,200 706,200 706,200 706,200 706,200 706,200 706,199 706,199 707,199 707,199 707,199 707,199 707,198 707,197 707,197 707,196 707,196 707,196 707,197 707,197 707,197 708,197 708,197 708,198 708,198 708,198 708,198 708,199 708,199 708,199 708,199 708,199 708,199 708,199 709,199 709,199 709,199 709,200 709,200 709,200 709,200 709,200 709,201 709,201 709,201 709,202 709,203 710,203 710,204 710,204 710,204 710,204 710,204 710,203 710,203 710,203 710,203 710,202 710,202 710,201 711,201 711,201 711,200 711,200 711,200 711,200 711,200 711,200 711,200 711,200 711,200 711,200 711,200 712,200 712,201 712,201 712,201 712,202 712,202 712,203 712,203 712,203 712,203 712,204 712,204 712,204 713,204 713,205 713,205 713,205 713,205 713,204 713,204 713,204 713,204 713,203 713,203 713,202 713,201 714,200 714,199 714,199 714,198 714,197 714,197 714,196 714,196 714,196 714,195 714,195 714,194 714,194 715,194 715,194 715,194 715,194 715,194 715,193 715,193 715,193 715,193 715,193 715,193 715,193 715,193 716,193 716,193 716,193 716,194 716,194 716,194 716,194 716,195 716,195 716,195 716,195 716,195 716,196 717,196 717,197 717,197 717,198 717,198 717,199 717,199 717,200 717,200 717,201 717,202 717,202 717,203 718,204 718,205 718,205 718,206 718,207 718,208 718,209 718,210 718,211 718,211 718,212 718,213 718,214 719,214 719,215 719,216 719,217 719,218 719,219 719,219 719,220 719,220 719,220 719,220 719,219 719,219 720,219 720,219 720,219 720,219 720,219 720,219 720,219 720,219 720,219 720,220 720,220 720,220 720,220 721,220 721,220 721,220 721,220 721,220 721,220 721,220 721,220 721,220 721,220 721,220 721,220 721,219 722,218 722,218 722,216 722,215 722,214 722,213 722,213 722,213 722,213 722,212 722,212 722,212 722,212 723,211 723,211 723,211 723,210 723,210 723,209 723,209 723,208 723,208 723,208 723,208 723,208 723,208 724,208 724,208 724,209 724,209 724,209 724,209 724,209 724,210 724,210 724,210 724,210 724,210 724,211 725,211 725,211 725,212 725,212 725,212 725,213 725,214 725,214 725,214 725,214 725,214 725,215 725,215 726,215 726,216 726,216 726,216 726,217 726,217 726,218 726,218 726,218 726,218 726,218 726,219 726,219 727,219 727,219 727,219 727,219 727,219 727,219 727,220 727,220 727,220 727,220 727,220 727,220 727,220 728,220 728,220 728,221 728,221 728,221 728,221 728,221 728,222 728,222 728,222 728,222 728,222 728,223 729,223 729,223 729,223 729,223 729,223 729,223 729,222 729,220 729,219 729,218 729,217 729,216 729,215 730,214 730,214 730,213 730,213 730,213 730,213 730,213 730,212 730,212 730,212 730,213 730,213 730,213 731,213 731,214 731,214 731,214 731,215 731,215 731,215 731,215 731,216 731,216 731,216 731,216 731,216 732,216 732,216 732,216 732,216 732,216 732,216 732,215 732,215 732,216 732,217 732,218 732,217 732,216 733,215 733,214 733,214 733,214 733,214 733,213 733,213 733,213 733,213 733,213 733,212 733,212 733,212 734,212 734,211 734,211 734,211 734,210 734,210 734,210 734,210 734,209 734,209 734,209 734,208 734,208 735,208 735,207 735,207 735,207 735,207 735,207 735,206 735,206 735,206 735,206 735,206 735,206 735,206 736,206 736,206 736,206 736,206 736,206 736,206 736,206 736,206 736,206 736,206 736,207 " vector-effect="non-scaling-stroke"></polyline>
</g></svg>