<?xml version="1.0" encoding="UTF-8" standalone="no"?><svg width="282.222mm" height="141.111mm" xmlns="http://www.w3.org/2000/svg" xmlns:xlink="http://www.w3.org/1999/xlink"  version="1.2" baseProfile="tiny"><g fill="none" stroke="#ff0000" stroke-linecap="round" stroke-linejoin="round" stroke-opacity="1" stroke-width="1.5" transform="matrix(1,0,0,1,0,0)">
<polyline fill="none" points="68,347 68,347 68,347 68,347 68,348 68,348 68,348 68,348 68,348 68,348 68,348 68,348 69,348 69,348 69,347 69,347 69,347 69,347 69,347 69,347 69,347 69,347 69,347 69,347 69,347 70,346 70,346 70,346 70,346 70,346 70,346 70,346 70,346 70,346 70,346 70,346 70,346 70,346 71,346 71,346 71,346 71,346 71,346 71,346 71,346 71,346 71,346 71,346 71,346 71,346 71,346 72,346 72,346 72,346 72,346 72,346 72,346 72,346 72,346 72,346 72,346 72,346 72,346 72,346 73,346 73,346 73,346 73,346 73,346 73,346 73,346 73,346 73,346 73,346 73,346 73,346 73,346 74,346 74,346 74,346 74,347 74,347 74,347 74,347 74,347 74,347 74,347 74,347 74,347 74,347 75,347 75,347 75,347 75,347 75,347 75,347 75,347 75,346 75,346 75,346 75,346 75,346 75,346 76,346 76,346 76,346 76,346 76,346 76,346 76,346 76,346 76,346 76,346 76,346 76,346 76,346 77,346 77,346 77,346 77,346 77,346 77,346 77,346 77,346 77,346 77,346 77,346 77,346 77,346 78,346 78,345 78,345 78,345 78,345 78,345 78,345 78,345 78,345 78,345 78,345 78,344 78,344 79,344 79,344 79,344 79,344 79,344 79,344 79,344 79,344 79,344 79,344 79,344 79,344 79,344 80,344 80,345 80,345 80,345 80,345 80,345 80,345 80,346 80,346 80,346 80,346 80,346 80,346 81,346 81,346 81,347 81,347 81,347 81,347 81,347 81,347 81,347 81,347 81,347 81,347 81,347 82,347 82,347 82,347 82,347 82,347 82,347 82,347 82,347 82,347 82,347 82,347 82,347 82,347 83,347 83,347 83,347 83,347 83,347 83,347 83,347 83,347 83,347 83,347 83,347 83,347 83,347 84,347 84,347 84,347 84,347 84,347 84,347 84,347 84,347 84,347 84,347 84,347 84,347 84,347 85,347 85,347 85,347 85,347 85,347 85,347 85,347 85,347 85,347 85,347 85,347 85,347 85,347 86,347 86,347 86,347 86,347 86,347 86,347 86,347 86,347 86,347 86,347 86,347 86,347 86,348 87,348 87,348 87,348 87,349 87,350 87,351 87,352 87,352 87,352 87,353 87,353 87,353 87,353 88,353 88,353 88,353 88,353 88,353 88,353 88,354 88,354 88,354 88,354 88,354 88,354 88,354 89,354 89,354 89,354 89,354 89,354 89,354 89,354 89,354 89,355 89,355 89,355 89,355 89,355 90,355 90,355 90,355 90,355 90,355 90,355 90,355 90,355 90,355 90,355 90,356 90,356 90,356 91,356 91,356 91,356 91,356 91,356 91,356 91,356 91,356 91,356 91,356 91,356 91,356 91,356 92,356 92,356 92,356 92,356 92,356 92,356 92,356 92,356 92,356 92,356 92,356 92,356 92,356 93,356 93,356 93,356 93,356 93,356 93,356 93,356 93,357 93,357 93,357 93,357 93,357 93,357 94,357 94,357 94,357 94,357 94,357 94,357 94,357 94,357 94,357 94,357 94,357 94,357 94,357 95,357 95,357 95,357 95,357 95,357 95,357 95,357 95,357 95,357 95,357 95,357 95,357 95,357 96,357 96,357 96,357 96,357 96,357 96,357 96,357 96,357 96,357 96,357 96,357 96,357 96,357 97,357 97,357 97,357 97,357 97,357 97,357 97,357 97,357 97,357 97,357 97,357 97,357 97,357 98,357 98,357 98,357 98,357 98,357 98,357 98,357 98,357 98,357 98,357 98,357 98,357 98,357 99,356 99,356 99,356 99,356 99,355 99,355 99,355 99,354 99,354 99,354 99,354 99,353 99,353 100,353 100,353 100,354 100,354 100,354 100,355 100,355 100,356 100,357 100,357 100,357 100,357 100,357 101,357 101,357 101,357 101,357 101,357 101,357 101,356 101,356 101,356 101,357 101,357 101,357 101,357 102,358 102,358 102,358 102,359 102,359 102,359 102,359 102,359 102,359 102,359 102,359 102,359 102,359 103,359 103,358 103,358 103,358 103,358 103,357 103,357 103,357 103,357 103,357 103,357 103,357 103,356 104,356 104,356 104,356 104,356 104,356 104,356 104,356 104,356 104,356 104,356 104,356 104,356 104,356 105,356 105,356 105,356 105,356 105,356 105,356 105,355 105,355 105,355 105,356 105,356 105,356 105,357 106,357 106,358 106,358 106,358 106,359 106,359 106,359 106,360 106,360 106,361 106,361 106,362 106,362 107,362 107,362 107,362 107,362 107,361 107,361 107,361 107,361 107,361 107,361 107,361 107,361 107,361 108,361 108,360 108,360 108,360 108,360 108,360 108,360 108,360 108,360 108,360 108,360 108,360 108,359 109,359 109,359 109,359 109,359 109,358 109,358 109,358 109,358 109,358 109,358 109,358 109,358 109,358 110,358 110,358 110,358 110,358 110,358 110,358 110,358 110,358 110,358 110,358 110,358 110,358 110,358 111,358 111,358 111,357 111,357 111,357 111,357 111,357 111,357 111,357 111,357 111,357 111,357 111,357 112,357 112,357 112,357 112,357 112,357 112,357 112,357 112,358 112,358 112,358 112,358 112,359 112,359 113,359 113,360 113,360 113,360 113,360 113,359 113,358 113,358 113,357 113,357 113,357 113,357 113,357 114,357 114,357 114,357 114,357 114,357 114,357 114,356 114,356 114,356 114,356 114,356 114,356 114,356 115,356 115,356 115,357 115,357 115,357 115,357 115,358 115,358 115,358 115,358 115,358 115,358 115,358 116,358 116,357 116,358 116,358 116,358 116,358 116,357 116,357 116,357 116,357 116,357 116,357 116,357 117,357 117,357 117,357 117,357 117,357 117,357 117,357 117,357 117,357 117,357 117,356 117,356 117,356 118,356 118,356 118,356 118,356 118,356 118,356 118,356 118,356 118,356 118,356 118,356 118,356 118,356 119,356 119,356 119,356 119,356 119,356 119,356 119,356 119,356 119,356 119,356 119,356 119,355 119,356 120,356 120,356 120,356 120,356 120,356 120,356 120,356 120,356 120,356 120,356 120,356 120,356 120,356 121,356 121,356 121,356 121,356 121,356 121,356 121,356 121,356 121,356 121,356 121,356 121,356 121,356 122,356 122,356 122,356 122,356 122,356 122,356 122,356 122,356 122,356 122,356 122,355 122,355 122,355 123,355 123,355 123,355 123,355 123,355 123,355 123,355 123,355 123,355 123,356 123,356 123,356 123,356 124,356 124,356 124,356 124,356 124,355 124,355 124,355 124,355 124,355 124,355 124,355 124,355 124,355 125,355 125,355 125,355 125,355 125,355 125,355 125,355 125,355 125,355 125,355 125,355 125,355 125,355 126,355 126,355 126,355 126,355 126,355 126,355 126,355 126,355 126,355 126,355 126,355 126,355 126,355 127,355 127,355 127,355 127,355 127,355 127,355 127,355 127,355 127,355 127,355 127,355 127,355 127,355 128,355 128,355 128,356 128,356 128,356 128,356 128,356 128,356 128,356 128,356 128,356 128,355 128,355 129,355 129,355 129,355 129,355 129,354 129,354 129,354 129,354 129,354 129,354 129,353 129,353 129,353 130,352 130,352 130,351 130,351 130,351 130,351 130,351 130,351 130,351 130,351 130,351 130,351 130,351 131,350 131,350 131,350 131,350 131,350 131,350 131,350 131,350 131,350 131,350 131,350 131,350 131,350 132,350 132,350 132,350 132,350 132,350 132,350 132,350 132,350 132,350 132,350 132,349 132,349 132,349 133,349 133,349 133,349 133,349 133,349 133,349 133,350 133,349 133,349 133,349 133,349 133,349 133,349 134,349 134,350 134,350 134,350 134,350 134,350 134,350 134,350 134,350 134,350 134,350 134,350 134,350 135,350 135,350 135,350 135,350 135,350 135,349 135,349 135,349 135,349 135,350 135,350 135,349 135,349 136,349 136,349 136,349 136,349 136,349 136,349 136,349 136,349 136,349 136,349 136,349 136,349 136,349 137,349 137,349 137,349 137,349 137,349 137,349 137,350 137,350 137,350 137,350 137,350 137,350 137,350 138,350 138,349 138,349 138,349 138,349 138,349 138,349 138,349 138,348 138,348 138,348 138,348 138,348 139,348 139,348 139,348 139,348 139,348 139,348 139,348 139,348 139,348 139,348 139,349 139,349 139,349 140,349 140,349 140,348 140,348 140,348 140,347 140,348 140,348 140,348 140,348 140,348 140,348 140,348 141,348 141,348 141,348 141,348 141,348 141,348 141,348 141,348 141,348 141,348 141,348 141,347 141,347 142,347 142,347 142,348 142,348 142,348 142,347 142,347 142,347 142,347 142,347 142,348 142,348 142,348 143,348 143,347 143,347 143,347 143,347 143,347 143,347 143,347 143,347 143,347 143,347 143,347 143,347 144,347 144,347 144,347 144,347 144,347 144,348 144,347 144,347 144,347 144,347 144,347 144,347 144,347 145,347 145,347 145,347 145,347 145,347 145,347 145,347 145,347 145,347 145,346 145,346 145,346 145,346 146,346 146,345 146,345 146,345 146,345 146,345 146,345 146,345 146,345 146,345 146,346 146,346 146,346 147,346 147,346 147,346 147,346 147,345 147,345 147,345 147,345 147,345 147,345 147,345 147,345 147,345 148,345 148,345 148,345 148,344 148,344 148,344 148,345 148,345 148,345 148,344 148,344 148,344 148,344 149,343 149,344 149,344 149,343 149,343 149,343 149,343 149,343 149,343 149,343 149,343 149,343 149,343 150,342 150,342 150,342 150,342 150,343 150,343 150,343 150,343 150,343 150,343 150,343 150,343 150,343 151,343 151,342 151,342 151,342 151,343 151,343 151,343 151,342 151,342 151,342 151,342 151,342 151,342 152,342 152,342 152,342 152,342 152,342 152,342 152,342 152,342 152,342 152,342 152,342 152,341 152,341 153,341 153,341 153,341 153,341 153,341 153,341 153,341 153,341 153,341 153,341 153,341 153,341 153,341 154,341 154,341 154,341 154,341 154,340 154,340 154,340 154,340 154,340 154,340 154,340 154,340 154,340 155,340 155,340 155,340 155,340 155,340 155,340 155,340 155,340 155,340 155,340 155,340 155,340 155,340 156,339 156,339 156,339 156,339 156,338 156,338 156,338 156,338 156,339 156,339 156,339 156,338 156,338 157,338 157,338 157,338 157,338 157,338 157,338 157,338 157,338 157,338 157,338 157,338 157,338 157,338 158,338 158,338 158,337 158,337 158,337 158,338 158,338 158,337 158,337 158,337 158,337 158,337 158,337 159,337 159,337 159,337 159,337 159,337 159,337 159,337 159,337 159,337 159,337 159,337 159,337 159,337 160,337 160,337 160,337 160,337 160,337 160,336 160,336 160,336 160,336 160,336 160,336 160,336 160,336 161,336 161,336 161,336 161,336 161,336 161,336 161,336 161,336 161,336 161,336 161,336 161,336 161,336 162,336 162,335 162,335 162,336 162,336 162,336 162,336 162,335 162,335 162,335 162,335 162,335 162,335 163,335 163,335 163,335 163,335 163,335 163,335 163,335 163,335 163,335 163,335 163,334 163,334 163,334 164,334 164,334 164,334 164,334 164,333 164,333 164,333 164,334 164,334 164,334 164,334 164,333 164,333 165,333 165,333 165,333 165,333 165,334 165,334 165,334 165,334 165,334 165,334 165,333 165,333 165,333 166,333 166,333 166,333 166,332 166,332 166,332 166,332 166,332 166,332 166,332 166,332 166,332 166,332 167,332 167,333 167,333 167,333 167,333 167,333 167,333 167,333 167,332 167,332 167,332 167,332 167,332 168,332 168,332 168,332 168,332 168,332 168,332 168,332 168,332 168,331 168,331 168,332 168,332 168,332 169,332 169,332 169,332 169,332 169,332 169,331 169,331 169,331 169,330 169,331 169,331 169,331 169,331 170,331 170,331 170,331 170,331 170,331 170,331 170,331 170,331 170,331 170,330 170,330 170,330 170,330 171,330 171,330 171,330 171,330 171,330 171,330 171,330 171,330 171,330 171,329 171,329 171,329 171,329 172,329 172,329 172,329 172,329 172,329 172,329 172,329 172,329 172,329 172,329 172,329 172,330 172,330 173,330 173,329 173,329 173,329 173,329 173,329 173,329 173,329 173,329 173,329 173,329 173,328 173,328 174,328 174,328 174,328 174,328 174,328 174,328 174,328 174,328 174,328 174,328 174,328 174,328 174,328 175,328 175,328 175,328 175,328 175,328 175,328 175,327 175,327 175,327 175,327 175,327 175,327 175,327 176,327 176,327 176,327 176,327 176,327 176,327 176,327 176,326 176,326 176,326 176,326 176,326 176,326 177,326 177,326 177,326 177,326 177,326 177,326 177,326 177,326 177,326 177,326 177,326 177,326 177,326 178,326 178,326 178,326 178,326 178,326 178,325 178,325 178,325 178,325 178,325 178,325 178,325 178,325 179,325 179,325 179,325 179,325 179,325 179,325 179,325 179,325 179,325 179,324 179,324 179,324 179,324 180,324 180,324 180,324 180,324 180,324 180,324 180,324 180,324 180,324 180,324 180,324 180,324 180,324 181,324 181,324 181,324 181,324 181,323 181,323 181,323 181,323 181,323 181,323 181,323 181,323 181,323 182,323 182,323 182,323 182,323 182,323 182,323 182,323 182,323 182,322 182,322 182,322 182,322 182,322 183,322 183,322 183,322 183,322 183,321 183,321 183,321 183,321 183,321 183,321 183,321 183,321 183,320 184,320 184,320 184,320 184,319 184,319 184,319 184,320 184,320 184,320 184,320 184,320 184,320 184,320 185,320 185,320 185,320 185,319 185,319 185,319 185,320 185,320 185,320 185,320 185,320 185,320 185,319 186,319 186,319 186,319 186,319 186,319 186,318 186,318 186,318 186,318 186,318 186,318 186,318 186,317 187,317 187,317 187,317 187,317 187,317 187,317 187,317 187,317 187,317 187,317 187,317 187,316 187,316 188,316 188,316 188,316 188,316 188,315 188,315 188,315 188,316 188,316 188,316 188,316 188,316 188,316 189,316 189,316 189,316 189,316 189,315 189,315 189,315 189,315 189,315 189,315 189,315 189,314 189,314 190,314 190,314 190,314 190,314 190,314 190,313 190,313 190,313 190,313 190,313 190,313 190,313 190,313 191,313 191,313 191,312 191,312 191,313 191,312 191,312 191,312 191,312 191,312 191,312 191,312 191,312 192,312 192,312 192,312 192,312 192,312 192,312 192,311 192,311 192,310 192,310 192,310 192,310 192,310 193,310 193,310 193,310 193,310 193,310 193,310 193,310 193,310 193,310 193,309 193,309 193,309 193,309 194,309 194,308 194,308 194,308 194,309 194,308 194,308 194,308 194,308 194,308 194,308 194,308 194,307 195,307 195,306 195,306 195,306 195,306 195,306 195,306 195,305 195,305 195,305 195,305 195,305 195,305 196,306 196,306 196,306 196,305 196,305 196,305 196,305 196,305 196,304 196,304 196,304 196,304 196,304 197,304 197,304 197,303 197,303 197,303 197,303 197,303 197,303 197,303 197,302 197,301 197,301 197,300 198,300 198,300 198,300 198,300 198,299 198,299 198,299 198,298 198,298 198,297 198,297 198,297 198,297 199,296 199,296 199,296 199,296 199,296 199,296 199,296 199,295 199,295 199,295 199,295 199,295 199,294 200,294 200,294 200,294 200,294 200,293 200,293 200,292 200,291 200,290 200,290 200,290 200,289 200,289 201,289 201,288 201,287 201,286 201,286 201,285 201,284 201,283 201,283 201,282 201,282 201,282 201,281 202,281 202,281 202,280 202,280 202,279 202,279 202,279 202,278 202,278 202,277 202,277 202,277 202,276 203,276 203,276 203,276 203,276 203,276 203,276 203,276 203,276 203,275 203,275 203,276 203,276 203,276 204,276 204,276 204,276 204,277 204,277 204,277 204,277 204,277 204,277 204,277 204,277 204,278 204,278 205,278 205,278 205,278 205,278 205,278 205,277 205,277 205,276 205,275 205,274 205,273 205,272 205,270 206,269 206,268 206,267 206,266 206,264 206,263 206,262 206,261 206,260 206,259 206,258 206,257 206,257 207,257 207,256 207,256 207,256 207,256 207,255 207,255 207,255 207,255 207,255 207,254 207,254 207,254 208,254 208,253 208,253 208,253 208,253 208,252 208,252 208,252 208,252 208,252 208,252 208,252 208,251 209,252 209,253 209,255 209,256 209,257 209,258 209,259 209,261 209,262 209,263 209,264 209,266 209,267 210,267 210,268 210,269 210,270 210,272 210,273 210,274 210,274 210,275 210,275 210,275 210,275 210,276 211,276 211,277 211,278 211,278 211,278 211,279 211,279 211,280 211,280 211,280 211,280 211,281 211,281 212,282 212,282 212,282 212,283 212,283 212,283 212,283 212,283 212,283 212,283 212,283 212,283 212,283 213,283 213,283 213,283 213,284 213,283 213,283 213,283 213,282 213,282 213,281 213,280 213,280 213,279 214,278 214,277 214,276 214,275 214,274 214,274 214,273 214,272 214,271 214,270 214,270 214,269 214,270 215,270 215,270 215,270 215,270 215,270 215,270 215,269 215,269 215,269 215,268 215,268 215,267 215,267 216,266 216,265 216,265 216,264 216,264 216,263 216,263 216,262 216,262 216,261 216,260 216,259 216,259 217,258 217,257 217,256 217,255 217,254 217,255 217,255 217,254 217,254 217,254 217,253 217,253 217,253 218,253 218,252 218,253 218,253 218,254 218,255 218,255 218,255 218,255 218,255 218,255 218,255 218,254 219,254 219,254 219,254 219,253 219,253 219,253 219,253 219,253 219,253 219,253 219,252 219,253 219,253 220,253 220,253 220,252 220,252 220,252 220,252 220,252 220,252 220,252 220,252 220,253 220,254 220,256 221,257 221,259 221,260 221,262 221,263 221,265 221,266 221,267 221,268 221,270 221,270 221,270 221,271 222,271 222,270 222,270 222,269 222,269 222,268 222,267 222,266 222,266 222,265 222,265 222,264 222,264 223,263 223,262 223,262 223,261 223,260 223,260 223,259 223,258 223,257 223,255 223,254 223,253 223,250 224,247 224,246 224,245 224,244 224,243 224,242 224,239 224,239 224,238 224,237 224,237 224,236 224,235 225,235 225,235 225,235 225,235 225,235 225,236 225,236 225,236 225,237 225,237 225,237 225,238 225,238 226,238 226,239 226,239 226,240 226,241 226,241 226,242 226,243 226,244 226,245 226,246 226,247 226,247 227,247 227,247 227,248 227,248 227,247 227,247 227,248 227,248 227,248 227,248 227,248 227,248 227,248 228,246 228,246 228,246 228,246 228,246 228,246 228,246 228,246 228,246 228,246 228,246 228,246 228,245 229,245 229,244 229,243 229,242 229,241 229,239 229,236 229,234 229,232 229,230 229,228 229,225 229,223 230,221 230,219 230,218 230,216 230,215 230,214 230,213 230,212 230,212 230,212 230,212 230,213 230,213 231,213 231,213 231,214 231,214 231,214 231,214 231,215 231,215 231,214 231,215 231,215 231,215 231,215 232,216 232,216 232,216 232,217 232,217 232,218 232,219 232,220 232,220 232,222 232,223 232,225 232,227 233,228 233,230 233,231 233,232 233,234 233,235 233,236 233,237 233,237 233,236 233,235 233,234 233,234 234,234 234,234 234,234 234,233 234,233 234,233 234,233 234,233 234,233 234,233 234,233 234,233 234,233 235,233 235,233 235,232 235,233 235,233 235,233 235,233 235,234 235,235 235,236 235,236 235,236 235,237 236,237 236,238 236,237 236,237 236,236 236,236 236,234 236,233 236,232 236,231 236,230 236,228 236,227 237,226 237,225 237,223 237,222 237,220 237,219 237,219 237,218 237,217 237,216 237,215 237,215 237,214 238,213 238,212 238,211 238,210 238,209 238,208 238,208 238,207 238,206 238,205 238,205 238,204 238,204 239,203 239,202 239,202 239,201 239,201 239,200 239,200 239,200 239,199 239,199 239,198 239,198 239,198 240,197 240,197 240,197 240,196 240,196 240,195 240,195 240,194 240,194 240,193 240,193 240,192 240,192 241,191 241,191 241,190 241,190 241,190 241,190 241,190 241,191 241,191 241,191 241,191 241,191 241,191 242,190 242,189 242,189 242,188 242,187 242,186 242,185 242,184 242,182 242,181 242,180 242,179 242,178 243,177 243,176 243,174 243,173 243,172 243,171 243,170 243,169 243,168 243,167 243,165 243,164 243,162 244,161 244,160 244,159 244,157 244,156 244,156 244,155 244,154 244,154 244,154 244,156 244,157 244,158 245,159 245,159 245,159 245,160 245,160 245,160 245,160 245,160 245,160 245,160 245,159 245,159 245,159 246,159 246,158 246,158 246,158 246,158 246,158 246,158 246,159 246,160 246,162 246,162 246,163 246,164 247,165 247,166 247,166 247,167 247,167 247,168 247,169 247,170 247,170 247,171 247,171 247,171 247,171 248,171 248,171 248,172 248,172 248,172 248,172 248,173 248,173 248,175 248,176 248,176 248,177 248,178 249,179 249,181 249,182 249,183 249,184 249,185 249,187 249,188 249,190 249,192 249,194 249,195 249,196 250,196 250,197 250,198 250,199 250,200 250,200 250,201 250,201 250,202 250,203 250,203 250,204 250,204 251,205 251,205 251,206 251,206 251,206 251,206 251,205 251,205 251,205 251,204 251,204 251,203 251,202 252,202 252,201 252,200 252,198 252,197 252,196 252,195 252,195 252,194 252,194 252,193 252,193 252,192 253,191 253,190 253,189 253,188 253,188 253,187 253,185 253,184 253,183 253,182 253,181 253,180 253,179 254,178 254,177 254,176 254,175 254,174 254,174 254,173 254,172 254,171 254,171 254,170 254,170 254,169 255,169 255,168 255,168 255,167 255,167 255,166 255,166 255,166 255,166 255,166 255,166 255,167 255,167 256,167 256,167 256,167 256,167 256,167 256,166 256,166 256,166 256,166 256,166 256,166 256,165 256,165 257,165 257,165 257,166 257,166 257,167 257,168 257,170 257,171 257,172 257,174 257,175 257,177 257,178 258,179 258,179 258,180 258,181 258,182 258,183 258,184 258,186 258,187 258,187 258,188 258,190 258,191 259,192 259,193 259,194 259,194 259,195 259,195 259,195 259,196 259,196 259,196 259,196 259,196 259,195 260,194 260,194 260,193 260,192 260,191 260,190 260,190 260,190 260,190 260,190 260,191 260,191 260,191 261,191 261,191 261,191 261,191 261,191 261,191 261,191 261,191 261,191 261,191 261,191 261,191 261,191 262,192 262,193 262,193 262,194 262,195 262,196 262,197 262,198 262,198 262,198 262,198 262,198 262,198 263,198 263,198 263,198 263,197 263,197 263,197 263,196 263,194 263,193 263,193 263,192 263,191 263,190 264,189 264,188 264,188 264,187 264,187 264,187 264,187 264,187 264,187 264,187 264,187 264,187 264,187 265,187 265,187 265,187 265,186 265,186 265,186 265,186 265,186 265,186 265,186 265,186 265,186 265,186 266,186 266,186 266,186 266,185 266,185 266,184 266,183 266,182 266,182 266,181 266,181 266,180 266,180 267,180 267,178 267,178 267,178 267,178 267,177 267,177 267,177 267,177 267,177 267,177 267,176 267,175 268,175 268,174 268,175 268,175 268,176 268,176 268,177 268,177 268,177 268,177 268,177 268,178 268,178 269,178 269,178 269,178 269,179 269,179 269,179 269,179 269,179 269,180 269,179 269,179 269,179 269,179 270,180 270,181 270,182 270,182 270,184 270,185 270,186 270,187 270,189 270,190 270,191 270,192 270,192 271,193 271,194 271,195 271,196 271,197 271,198 271,199 271,200 271,201 271,202 271,203 271,203 271,203 272,203 272,204 272,204 272,204 272,205 272,205 272,205 272,205 272,205 272,205 272,205 272,205 272,205 273,205 273,206 273,206 273,207 273,207 273,208 273,209 273,209 273,210 273,211 273,212 273,213 273,214 274,215 274,216 274,218 274,219 274,220 274,221 274,222 274,224 274,225 274,226 274,228 274,229 274,230 275,231 275,232 275,232 275,233 275,233 275,234 275,234 275,235 275,235 275,235 275,235 275,235 275,235 276,234 276,234 276,233 276,232 276,232 276,231 276,230 276,228 276,227 276,226 276,225 276,224 276,223 277,222 277,221 277,221 277,220 277,219 277,218 277,218 277,217 277,216 277,215 277,214 277,213 277,212 278,212 278,211 278,210 278,209 278,209 278,208 278,206 278,205 278,204 278,203 278,203 278,202 278,201 279,200 279,199 279,198 279,197 279,196 279,196 279,196 279,195 279,195 279,195 279,195 279,195 279,194 280,194 280,194 280,194 280,193 280,193 280,193 280,193 280,192 280,192 280,192 280,192 280,191 280,191 281,191 281,191 281,190 281,190 281,190 281,190 281,189 281,189 281,189 281,188 281,188 281,188 281,188 282,189 282,191 282,192 282,194 282,196 282,198 282,200 282,201 282,201 282,202 282,203 282,204 283,204 283,205 283,206 283,207 283,209 283,211 283,213 283,214 283,213 283,213 283,212 283,212 283,213 284,214 284,215 284,215 284,215 284,216 284,216 284,217 284,217 284,218 284,218 284,218 284,219 284,220 285,221 285,221 285,220 285,219 285,218 285,217 285,216 285,215 285,213 285,213 285,212 285,211 285,211 286,210 286,209 286,208 286,208 286,206 286,205 286,204 286,203 286,203 286,203 286,204 286,204 286,205 287,205 287,205 287,206 287,206 287,207 287,207 287,207 287,208 287,208 287,208 287,208 287,209 287,209 288,209 288,209 288,210 288,210 288,210 288,211 288,210 288,211 288,212 288,213 288,215 288,216 288,218 289,220 289,221 289,223 289,225 289,226 289,228 289,230 289,231 289,233 289,234 289,234 289,235 289,236 290,237 290,239 290,241 290,243 290,245 290,246 290,247 290,248 290,249 290,251 290,253 290,256 290,258 291,259 291,260 291,261 291,261 291,262 291,263 291,264 291,265 291,266 291,267 291,268 291,269 291,269 292,271 292,271 292,271 292,271 292,271 292,271 292,272 292,271 292,271 292,270 292,270 292,270 292,270 293,270 293,269 293,269 293,269 293,268 293,268 293,268 293,267 293,266 293,266 293,266 293,266 293,265 294,264 294,263 294,262 294,262 294,261 294,261 294,261 294,260 294,260 294,260 294,260 294,260 294,260 295,260 295,260 295,260 295,260 295,260 295,261 295,261 295,260 295,260 295,260 295,261 295,261 295,262 296,262 296,263 296,263 296,264 296,265 296,265 296,266 296,266 296,265 296,265 296,265 296,264 296,263 297,263 297,262 297,261 297,260 297,259 297,259 297,259 297,259 297,259 297,258 297,258 297,257 297,257 298,256 298,256 298,256 298,256 298,255 298,255 298,254 298,254 298,253 298,252 298,252 298,251 298,250 299,248 299,245 299,244 299,243 299,243 299,242 299,242 299,241 299,240 299,239 299,238 299,237 299,236 300,235 300,234 300,232 300,231 300,229 300,228 300,227 300,226 300,225 300,224 300,222 300,221 300,220 301,219 301,218 301,218 301,218 301,218 301,217 301,217 301,217 301,217 301,217 301,217 301,217 301,217 302,217 302,216 302,216 302,216 302,216 302,216 302,216 302,216 302,215 302,215 302,215 302,215 302,216 303,216 303,217 303,217 303,217 303,218 303,219 303,219 303,219 303,220 303,220 303,221 303,221 303,220 304,219 304,218 304,218 304,217 304,216 304,216 304,215 304,214 304,213 304,213 304,212 304,210 304,208 305,206 305,205 305,204 305,204 305,203 305,203 305,203 305,202 305,202 305,202 305,201 305,201 305,201 306,201 306,201 306,201 306,201 306,201 306,200 306,200 306,200 306,200 306,200 306,200 306,200 306,200 307,200 307,200 307,200 307,200 307,200 307,200 307,200 307,200 307,200 307,200 307,200 307,200 307,200 308,201 308,201 308,201 308,201 308,201 308,201 308,201 308,201 308,201 308,201 308,201 308,200 308,201 309,201 309,202 309,202 309,203 309,203 309,204 309,205 309,205 309,205 309,207 309,207 309,208 309,209 310,210 310,211 310,212 310,213 310,214 310,215 310,216 310,217 310,218 310,219 310,219 310,220 310,220 311,221 311,221 311,222 311,222 311,223 311,224 311,225 311,226 311,227 311,228 311,229 311,231 311,232 312,233 312,234 312,235 312,237 312,239 312,240 312,241 312,242 312,243 312,244 312,245 312,245 312,245 313,245 313,245 313,245 313,244 313,243 313,242 313,241 313,241 313,240 313,240 313,239 313,239 313,238 314,237 314,237 314,237 314,236 314,236 314,235 314,235 314,234 314,234 314,234 314,234 314,234 314,233 315,231 315,229 315,227 315,226 315,225 315,224 315,224 315,223 315,222 315,220 315,219 315,218 315,217 316,216 316,214 316,214 316,214 316,213 316,213 316,212 316,210 316,209 316,208 316,207 316,205 316,204 317,203 317,202 317,201 317,201 317,200 317,198 317,196 317,195 317,193 317,192 317,191 317,190 317,189 318,188 318,188 318,188 318,188 318,186 318,185 318,184 318,184 318,183 318,183 318,182 318,180 318,178 319,176 319,174 319,174 319,174 319,173 319,173 319,171 319,170 319,168 319,167 319,166 319,165 319,164 320,163 320,162 320,162 320,162 320,163 320,163 320,163 320,163 320,163 320,164 320,164 320,164 320,164 321,164 321,164 321,164 321,164 321,164 321,164 321,164 321,164 321,164 321,164 321,165 321,166 321,166 322,167 322,168 322,168 322,168 322,168 322,169 322,170 322,171 322,173 322,173 322,175 322,176 322,178 323,178 323,180 323,181 323,182 323,181 323,180 323,179 323,178 323,178 323,177 323,177 323,176 323,174 324,173 324,173 324,172 324,172 324,172 324,172 324,172 324,172 324,172 324,171 324,171 324,171 324,170 325,170 325,170 325,169 325,168 325,168 325,167 325,167 325,167 325,167 325,165 325,163 325,162 325,160 326,158 326,157 326,155 326,153 326,152 326,151 326,150 326,149 326,147 326,145 326,143 326,140 326,139 327,139 327,138 327,137 327,136 327,136 327,136 327,134 327,133 327,132 327,130 327,129 327,129 327,128 328,127 328,127 328,126 328,126 328,125 328,125 328,124 328,124 328,123 328,123 328,124 328,124 328,125 329,126 329,126 329,126 329,126 329,127 329,127 329,126 329,126 329,126 329,126 329,125 329,124 329,123 330,123 330,123 330,123 330,122 330,122 330,121 330,121 330,120 330,119 330,119 330,118 330,117 330,116 331,116 331,115 331,114 331,113 331,112 331,112 331,111 331,110 331,109 331,108 331,107 331,106 331,106 332,105 332,105 332,104 332,103 332,102 332,100 332,99 332,99 332,98 332,97 332,96 332,96 332,95 333,95 333,95 333,95 333,96 333,96 333,96 333,96 333,96 333,96 333,96 333,96 333,96 333,96 334,96 334,97 334,97 334,97 334,97 334,97 334,97 334,97 334,98 334,98 334,98 334,98 334,98 335,98 335,98 335,98 335,98 335,98 335,98 335,98 335,98 335,97 335,97 335,97 335,97 335,96 336,96 336,96 336,95 336,95 336,95 336,95 336,95 336,95 336,95 336,95 336,94 336,94 336,93 337,93 337,93 337,93 337,93 337,92 337,92 337,91 337,91 337,91 337,91 337,91 337,91 337,90 338,90 338,90 338,90 338,90 338,90 338,90 338,89 338,89 338,89 338,89 338,88 338,88 338,88 339,88 339,88 339,87 339,87 339,88 339,88 339,88 339,88 339,88 339,88 339,88 339,88 339,88 340,88 340,88 340,88 340,88 340,87 340,87 340,87 340,88 340,88 340,88 340,89 340,90 340,91 341,92 341,92 341,93 341,94 341,94 341,95 341,95 341,95 341,95 341,96 341,96 341,96 341,96 342,96 342,97 342,97 342,97 342,97 342,97 342,97 342,97 342,96 342,95 342,94 342,93 342,92 343,92 343,92 343,91 343,90 343,90 343,89 343,89 343,89 343,88 343,88 343,88 343,88 343,88 344,88 344,88 344,88 344,88 344,88 344,89 344,89 344,89 344,89 344,89 344,89 344,89 344,89 345,89 345,89 345,89 345,89 345,89 345,89 345,89 345,89 345,89 345,89 345,90 345,90 345,90 346,91 346,91 346,92 346,93 346,93 346,94 346,94 346,95 346,95 346,96 346,97 346,98 346,99 347,100 347,101 347,102 347,103 347,104 347,105 347,105 347,106 347,107 347,108 347,110 347,111 347,112 348,113 348,113 348,114 348,115 348,116 348,118 348,118 348,119 348,119 348,119 348,120 348,120 348,120 349,120 349,120 349,120 349,121 349,121 349,121 349,120 349,120 349,119 349,119 349,119 349,119 349,119 350,118 350,118 350,118 350,118 350,118 350,118 350,118 350,118 350,118 350,118 350,118 350,117 350,117 351,118 351,118 351,118 351,118 351,119 351,119 351,119 351,119 351,120 351,121 351,122 351,123 351,123 352,123 352,123 352,123 352,123 352,123 352,123 352,122 352,121 352,121 352,120 352,120 352,120 352,119 353,119 353,118 353,118 353,117 353,116 353,116 353,115 353,115 353,114 353,114 353,114 353,113 353,113 354,112 354,112 354,111 354,111 354,110 354,110 354,109 354,109 354,109 354,108 354,108 354,108 354,107 355,106 355,106 355,105 355,105 355,104 355,104 355,103 355,102 355,102 355,101 355,101 355,100 355,99 356,98 356,98 356,97 356,96 356,96 356,95 356,95 356,95 356,95 356,96 356,96 356,96 356,96 357,96 357,95 357,95 357,95 357,95 357,95 357,95 357,95 357,94 357,94 357,94 357,93 357,93 358,92 358,92 358,91 358,90 358,91 358,92 358,93 358,94 358,95 358,96 358,96 358,97 358,97 359,98 359,98 359,98 359,98 359,99 359,101 359,101 359,101 359,101 359,102 359,102 359,102 359,102 360,102 360,102 360,102 360,103 360,103 360,104 360,105 360,106 360,106 360,107 360,108 360,108 360,109 361,110 361,111 361,111 361,112 361,113 361,114 361,115 361,116 361,117 361,118 361,119 361,119 361,120 362,120 362,119 362,118 362,118 362,118 362,118 362,118 362,117 362,117 362,116 362,115 362,115 362,117 363,117 363,116 363,115 363,114 363,113 363,112 363,112 363,111 363,111 363,110 363,109 363,109 363,109 364,109 364,109 364,109 364,109 364,109 364,109 364,110 364,110 364,110 364,110 364,110 364,110 364,111 365,111 365,111 365,111 365,111 365,111 365,111 365,111 365,111 365,111 365,110 365,110 365,110 365,109 366,109 366,109 366,108 366,108 366,108 366,107 366,108 366,107 366,107 366,107 366,106 366,105 366,105 367,104 367,103 367,102 367,102 367,101 367,99 367,98 367,98 367,97 367,97 367,96 367,96 367,95 368,94 368,93 368,93 368,92 368,91 368,91 368,90 368,89 368,88 368,88 368,87 368,86 368,85 369,84 369,84 369,83 369,82 369,81 369,80 369,79 369,78 369,77 369,76 369,76 369,75 369,74 370,74 370,74 370,74 370,74 370,73 370,73 370,73 370,73 370,73 370,73 370,73 370,73 370,73 371,73 371,73 371,73 371,72 371,72 371,72 371,72 371,72 371,72 371,72 371,72 371,72 371,72 372,72 372,72 372,71 372,71 372,71 372,71 372,71 372,71 372,71 372,71 372,71 372,72 372,72 373,72 373,72 373,73 373,73 373,73 373,73 373,73 373,73 373,73 373,74 373,74 373,74 373,75 374,75 374,75 374,75 374,76 374,76 374,76 374,76 374,77 374,77 374,77 374,77 374,78 374,78 375,78 375,78 375,78 375,79 375,79 375,79 375,79 375,79 375,79 375,79 375,79 375,79 375,79 376,80 376,79 376,79 376,79 376,80 376,79 376,79 376,79 376,79 376,79 376,79 376,80 376,80 377,80 377,80 377,80 377,80 377,80 377,81 377,81 377,81 377,81 377,81 377,82 377,82 377,82 378,82 378,82 378,82 378,82 378,82 378,82 378,81 378,81 378,81 378,81 378,81 378,81 378,81 379,81 379,81 379,81 379,81 379,81 379,81 379,80 379,80 379,80 379,80 379,80 379,80 379,79 380,79 380,79 380,79 380,79 380,79 380,79 380,79 380,79 380,79 380,78 380,78 380,79 380,79 381,79 381,79 381,79 381,80 381,80 381,80 381,80 381,80 381,80 381,80 381,80 381,79 381,79 382,79 382,79 382,80 382,81 382,81 382,81 382,81 382,82 382,82 382,82 382,82 382,83 382,83 383,83 383,83 383,84 383,84 383,84 383,85 383,85 383,85 383,86 383,86 383,87 383,87 383,88 384,89 384,89 384,90 384,90 384,91 384,92 384,92 384,93 384,94 384,94 384,95 384,96 384,96 385,97 385,97 385,98 385,99 385,100 385,101 385,102 385,103 385,104 385,105 385,106 385,106 385,107 386,108 386,109 386,110 386,112 386,113 386,113 386,114 386,115 386,116 386,117 386,119 386,120 386,121 387,121 387,122 387,122 387,122 387,121 387,121 387,120 387,119 387,119 387,118 387,118 387,117 387,117 388,117 388,117 388,117 388,117 388,116 388,116 388,116 388,116 388,116 388,116 388,116 388,115 388,115 389,115 389,115 389,115 389,115 389,114 389,114 389,114 389,114 389,114 389,114 389,114 389,114 389,114 390,114 390,114 390,114 390,114 390,114 390,114 390,114 390,114 390,114 390,114 390,114 390,114 390,114 391,114 391,114 391,115 391,115 391,115 391,115 391,115 391,115 391,115 391,115 391,116 391,116 391,116 392,116 392,116 392,116 392,115 392,115 392,116 392,116 392,117 392,117 392,118 392,119 392,121 392,121 393,122 393,123 393,124 393,124 393,125 393,125 393,126 393,126 393,126 393,127 393,127 393,129 393,130 394,131 394,132 394,132 394,133 394,134 394,134 394,133 394,133 394,133 394,133 394,133 394,134 394,134 395,134 395,134 395,134 395,134 395,134 395,135 395,135 395,135 395,135 395,136 395,136 395,136 395,136 396,136 396,136 396,136 396,136 396,135 396,135 396,135 396,133 396,132 396,131 396,130 396,129 396,128 397,127 397,127 397,127 397,127 397,127 397,126 397,126 397,125 397,125 397,124 397,124 397,124 397,123 398,123 398,122 398,122 398,122 398,121 398,121 398,121 398,121 398,120 398,120 398,120 398,120 398,120 399,119 399,119 399,119 399,119 399,119 399,118 399,118 399,117 399,117 399,117 399,116 399,116 399,116 400,116 400,116 400,116 400,116 400,116 400,116 400,116 400,116 400,116 400,116 400,116 400,115 400,115 401,115 401,115 401,115 401,115 401,114 401,115 401,115 401,116 401,116 401,117 401,117 401,118 401,119 402,119 402,119 402,119 402,119 402,119 402,119 402,119 402,118 402,118 402,118 402,117 402,117 402,117 403,117 403,116 403,116 403,116 403,116 403,117 403,117 403,117 403,117 403,118 403,118 403,118 403,118 404,118 404,118 404,118 404,118 404,118 404,118 404,118 404,117 404,117 404,117 404,117 404,117 404,117 405,116 405,116 405,116 405,116 405,115 405,115 405,115 405,114 405,114 405,114 405,113 405,113 405,112 406,112 406,111 406,111 406,111 406,110 406,110 406,109 406,109 406,108 406,108 406,108 406,108 406,108 407,108 407,108 407,108 407,108 407,109 407,109 407,109 407,109 407,109 407,109 407,109 407,109 407,109 408,109 408,109 408,109 408,109 408,109 408,109 408,109 408,109 408,109 408,110 408,109 408,109 408,109 409,109 409,109 409,110 409,110 409,111 409,111 409,111 409,111 409,112 409,112 409,112 409,113 409,113 410,113 410,114 410,114 410,114 410,115 410,115 410,116 410,117 410,117 410,118 410,119 410,119 410,120 411,120 411,121 411,121 411,122 411,122 411,123 411,124 411,124 411,124 411,124 411,125 411,125 411,125 412,125 412,125 412,125 412,125 412,125 412,125 412,125 412,125 412,125 412,125 412,125 412,125 412,126 413,126 413,126 413,126 413,127 413,127 413,127 413,127 413,127 413,127 413,127 413,127 413,126 413,126 414,125 414,125 414,125 414,125 414,124 414,123 414,123 414,122 414,121 414,120 414,120 414,119 414,119 415,119 415,118 415,118 415,118 415,118 415,118 415,118 415,117 415,117 415,117 415,116 415,116 415,116 416,116 416,116 416,116 416,117 416,117 416,117 416,118 416,118 416,118 416,119 416,119 416,119 416,119 417,120 417,120 417,120 417,120 417,120 417,120 417,121 417,121 417,121 417,121 417,121 417,121 417,121 418,122 418,122 418,122 418,123 418,123 418,123 418,123 418,123 418,123 418,123 418,123 418,123 418,123 419,123 419,122 419,122 419,122 419,122 419,122 419,122 419,122 419,121 419,121 419,121 419,121 419,121 420,121 420,121 420,121 420,121 420,120 420,120 420,120 420,120 420,120 420,120 420,120 420,121 420,121 421,122 421,122 421,123 421,123 421,123 421,123 421,124 421,124 421,124 421,125 421,126 421,127 421,128 422,129 422,129 422,130 422,131 422,132 422,132 422,133 422,134 422,134 422,135 422,135 422,136 422,136 423,136 423,136 423,136 423,135 423,135 423,134 423,134 423,133 423,132 423,130 423,129 423,128 423,128 424,127 424,126 424,126 424,125 424,124 424,123 424,123 424,123 424,123 424,123 424,123 424,123 424,122 425,122 425,122 425,122 425,122 425,122 425,122 425,122 425,122 425,122 425,122 425,122 425,122 425,121 426,121 426,121 426,121 426,121 426,121 426,122 426,122 426,122 426,123 426,123 426,123 426,122 426,122 427,121 427,120 427,120 427,119 427,119 427,118 427,118 427,117 427,117 427,116 427,116 427,116 427,116 428,115 428,115 428,115 428,115 428,114 428,114 428,114 428,114 428,114 428,114 428,114 428,114 428,114 429,114 429,114 429,114 429,114 429,114 429,114 429,114 429,114 429,114 429,114 429,114 429,114 429,114 430,114 430,114 430,114 430,114 430,114 430,114 430,113 430,114 430,114 430,115 430,115 430,116 430,116 431,117 431,118 431,118 431,118 431,119 431,120 431,120 431,121 431,122 431,122 431,123 431,124 431,124 432,124 432,124 432,125 432,125 432,125 432,125 432,125 432,125 432,125 432,126 432,126 432,126 432,126 433,126 433,126 433,125 433,125 433,125 433,124 433,124 433,123 433,123 433,123 433,123 433,123 433,124 434,124 434,125 434,125 434,125 434,125 434,126 434,126 434,127 434,127 434,128 434,128 434,128 434,128 435,129 435,129 435,130 435,131 435,131 435,132 435,132 435,132 435,133 435,133 435,133 435,133 435,133 436,133 436,133 436,133 436,133 436,133 436,133 436,133 436,133 436,132 436,132 436,132 436,132 436,132 437,131 437,131 437,131 437,131 437,130 437,130 437,129 437,129 437,129 437,129 437,129 437,129 437,129 438,129 438,129 438,128 438,128 438,128 438,128 438,128 438,128 438,128 438,128 438,128 438,127 438,127 439,127 439,126 439,126 439,126 439,125 439,125 439,124 439,124 439,124 439,123 439,123 439,122 439,122 440,121 440,121 440,120 440,120 440,120 440,119 440,119 440,118 440,118 440,118 440,117 440,117 440,116 441,116 441,115 441,115 441,114 441,114 441,114 441,113 441,113 441,113 441,112 441,112 441,111 441,111 442,110 442,110 442,109 442,109 442,108 442,108 442,108 442,107 442,107 442,107 442,107 442,107 442,107 443,108 443,108 443,109 443,109 443,110 443,111 443,112 443,112 443,112 443,112 443,112 443,112 443,112 444,112 444,112 444,112 444,112 444,112 444,113 444,113 444,114 444,114 444,115 444,115 444,116 444,116 445,116 445,116 445,116 445,115 445,115 445,115 445,115 445,115 445,115 445,115 445,116 445,116 445,116 446,116 446,116 446,116 446,116 446,116 446,117 446,117 446,117 446,117 446,117 446,117 446,117 446,117 447,118 447,118 447,119 447,119 447,120 447,121 447,122 447,123 447,124 447,125 447,125 447,126 447,127 448,128 448,128 448,129 448,129 448,129 448,130 448,130 448,129 448,129 448,128 448,127 448,126 448,126 449,125 449,125 449,124 449,123 449,123 449,122 449,121 449,121 449,120 449,120 449,119 449,119 449,118 450,117 450,117 450,116 450,116 450,115 450,115 450,115 450,115 450,115 450,115 450,115 450,115 450,115 451,115 451,115 451,115 451,115 451,115 451,114 451,114 451,114 451,114 451,114 451,114 451,115 451,116 452,116 452,117 452,118 452,119 452,119 452,120 452,121 452,122 452,122 452,123 452,124 452,125 452,125 453,126 453,127 453,127 453,128 453,129 453,129 453,129 453,130 453,130 453,130 453,131 453,131 453,132 454,132 454,131 454,131 454,130 454,130 454,129 454,129 454,128 454,128 454,127 454,127 454,127 454,126 455,126 455,125 455,124 455,124 455,123 455,123 455,123 455,122 455,122 455,122 455,121 455,121 455,120 456,120 456,119 456,119 456,118 456,118 456,117 456,117 456,116 456,116 456,115 456,115 456,115 456,114 457,114 457,114 457,113 457,113 457,112 457,112 457,113 457,113 457,113 457,113 457,113 457,113 457,113 458,113 458,113 458,113 458,113 458,113 458,113 458,113 458,113 458,113 458,113 458,113 458,113 458,113 459,112 459,112 459,112 459,112 459,112 459,112 459,112 459,112 459,112 459,112 459,112 459,113 459,113 460,113 460,113 460,113 460,113 460,113 460,113 460,113 460,114 460,114 460,114 460,115 460,115 460,115 461,116 461,116 461,116 461,117 461,117 461,117 461,118 461,118 461,119 461,119 461,119 461,120 461,120 462,120 462,120 462,121 462,121 462,121 462,122 462,122 462,122 462,122 462,122 462,122 462,123 462,123 463,123 463,123 463,124 463,124 463,124 463,124 463,125 463,125 463,125 463,126 463,126 463,126 463,126 464,127 464,127 464,127 464,128 464,128 464,128 464,128 464,129 464,129 464,129 464,129 464,130 464,130 465,130 465,130 465,131 465,131 465,131 465,132 465,132 465,132 465,133 465,133 465,133 465,133 465,134 466,134 466,133 466,133 466,133 466,133 466,133 466,133 466,132 466,132 466,132 466,132 466,132 466,132 467,132 467,132 467,133 467,133 467,133 467,133 467,133 467,133 467,133 467,133 467,133 467,133 467,134 468,134 468,134 468,134 468,134 468,134 468,134 468,134 468,135 468,135 468,135 468,135 468,135 468,135 469,135 469,135 469,135 469,135 469,135 469,136 469,136 469,136 469,136 469,136 469,136 469,137 469,137 470,137 470,137 470,138 470,138 470,138 470,138 470,138 470,139 470,139 470,139 470,139 470,140 470,140 471,140 471,140 471,140 471,140 471,140 471,140 471,140 471,140 471,140 471,140 471,139 471,139 471,139 472,139 472,138 472,138 472,138 472,137 472,137 472,137 472,136 472,136 472,136 472,135 472,135 472,134 473,134 473,134 473,133 473,133 473,132 473,132 473,132 473,131 473,131 473,131 473,131 473,130 473,130 474,130 474,131 474,131 474,131 474,131 474,131 474,131 474,132 474,132 474,132 474,132 474,132 474,132 475,133 475,133 475,133 475,133 475,133 475,134 475,134 475,134 475,134 475,135 475,135 475,135 475,136 476,136 476,136 476,137 476,137 476,137 476,138 476,138 476,138 476,138 476,139 476,139 476,139 476,139 477,139 477,140 477,140 477,140 477,140 477,140 477,141 477,141 477,141 477,141 477,141 477,141 477,142 478,142 478,142 478,142 478,142 478,142 478,142 478,143 478,143 478,143 478,143 478,143 478,143 478,143 479,143 479,144 479,144 479,144 479,144 479,144 479,144 479,144 479,145 479,145 479,145 479,145 479,145 480,145 480,145 480,145 480,145 480,145 480,145 480,145 480,145 480,145 480,145 480,145 480,145 480,145 481,145 481,145 481,145 481,145 481,145 481,144 481,144 481,144 481,144 481,144 481,144 481,144 481,144 482,144 482,144 482,143 482,143 482,143 482,143 482,143 482,143 482,143 482,143 482,143 482,142 482,142 483,142 483,142 483,142 483,142 483,142 483,141 483,141 483,141 483,141 483,141 483,141 483,141 483,141 484,141 484,141 484,141 484,141 484,141 484,142 484,142 484,142 484,142 484,142 484,142 484,142 484,142 485,142 485,142 485,141 485,141 485,141 485,141 485,141 485,141 485,141 485,140 485,140 485,140 485,140 486,140 486,139 486,139 486,139 486,139 486,139 486,138 486,138 486,138 486,138 486,138 486,138 486,138 487,139 487,139 487,139 487,139 487,140 487,140 487,140 487,140 487,141 487,141 487,141 487,142 487,142 488,142 488,143 488,143 488,143 488,143 488,144 488,144 488,144 488,144 488,144 488,145 488,145 488,145 489,145 489,146 489,146 489,146 489,146 489,146 489,147 489,147 489,147 489,147 489,147 489,148 489,148 490,148 490,148 490,148 490,149 490,149 490,149 490,149 490,149 490,149 490,149 490,149 490,149 490,149 491,149 491,149 491,150 491,149 491,149 491,149 491,149 491,149 491,149 491,149 491,149 491,149 491,149 492,149 492,149 492,148 492,148 492,148 492,148 492,148 492,148 492,148 492,147 492,147 492,147 492,147 493,146 493,146 493,146 493,146 493,146 493,146 493,145 493,145 493,145 493,145 493,145 493,144 493,144 494,144 494,143 494,143 494,143 494,143 494,142 494,142 494,142 494,141 494,141 494,140 494,140 494,140 495,139 495,139 495,138 495,138 495,138 495,137 495,137 495,137 495,136 495,136 495,136 495,135 495,135 496,134 496,134 496,134 496,133 496,133 496,133 496,132 496,132 496,132 496,132 496,131 496,131 496,130 497,129 497,129 497,129 497,129 497,130 497,130 497,130 497,130 497,130 497,129 497,129 497,129 497,129 498,129 498,129 498,128 498,128 498,128 498,128 498,128 498,128 498,127 498,127 498,127 498,127 498,127 499,127 499,127 499,127 499,127 499,127 499,127 499,127 499,127 499,127 499,127 499,127 499,127 499,127 500,127 500,127 500,127 500,127 500,127 500,127 500,127 500,127 500,126 500,126 500,126 500,127 500,127 501,128 501,128 501,129 501,130 501,130 501,131 501,131 501,132 501,132 501,133 501,134 501,134 501,135 502,136 502,137 502,137 502,138 502,139 502,139 502,139 502,140 502,140 502,140 502,140 502,141 502,141 503,142 503,143 503,143 503,143 503,144 503,144 503,145 503,145 503,145 503,146 503,147 503,147 503,147 504,148 504,148 504,148 504,148 504,148 504,148 504,148 504,148 504,147 504,147 504,146 504,145 504,145 505,144 505,144 505,143 505,143 505,142 505,142 505,142 505,141 505,141 505,141 505,141 505,140 505,140 506,140 506,140 506,140 506,140 506,140 506,140 506,140 506,140 506,140 506,139 506,139 506,139 506,138 507,138 507,138 507,137 507,137 507,137 507,137 507,136 507,136 507,136 507,136 507,136 507,136 507,135 508,135 508,135 508,136 508,136 508,136 508,136 508,136 508,136 508,137 508,137 508,137 508,137 508,138 509,138 509,138 509,138 509,138 509,138 509,139 509,139 509,139 509,139 509,139 509,139 509,140 509,140 510,140 510,140 510,140 510,140 510,141 510,141 510,141 510,141 510,141 510,142 510,142 510,142 510,142 511,142 511,142 511,143 511,143 511,143 511,143 511,144 511,144 511,144 511,145 511,145 511,145 511,146 512,146 512,147 512,147 512,148 512,148 512,149 512,149 512,150 512,150 512,151 512,151 512,152 512,152 513,153 513,153 513,153 513,153 513,154 513,154 513,154 513,154 513,154 513,154 513,154 513,154 513,154 514,154 514,154 514,154 514,154 514,154 514,155 514,155 514,155 514,155 514,155 514,154 514,154 514,154 515,154 515,154 515,154 515,154 515,154 515,154 515,154 515,154 515,154 515,155 515,155 515,155 515,155 516,155 516,155 516,155 516,155 516,155 516,155 516,155 516,155 516,155 516,154 516,154 516,154 516,154 517,154 517,154 517,154 517,154 517,154 517,154 517,154 517,153 517,153 517,153 517,153 517,153 517,153 518,153 518,152 518,152 518,152 518,152 518,152 518,152 518,152 518,151 518,151 518,151 518,151 518,151 519,150 519,150 519,150 519,150 519,150 519,150 519,149 519,149 519,149 519,149 519,149 519,149 519,148 520,148 520,148 520,148 520,147 520,147 520,147 520,147 520,146 520,146 520,146 520,146 520,145 520,145 521,145 521,145 521,144 521,144 521,144 521,144 521,144 521,144 521,143 521,143 521,143 521,143 521,143 522,143 522,142 522,142 522,142 522,142 522,141 522,141 522,141 522,141 522,141 522,140 522,140 522,140 523,140 523,140 523,139 523,139 523,139 523,139 523,139 523,139 523,139 523,139 523,138 523,138 523,138 524,138 524,138 524,138 524,138 524,139 524,139 524,139 524,139 524,139 524,140 524,140 524,140 524,141 525,141 525,141 525,142 525,142 525,143 525,143 525,144 525,144 525,144 525,145 525,145 525,146 525,146 526,146 526,147 526,147 526,147 526,147 526,148 526,148 526,148 526,148 526,148 526,148 526,148 526,149 527,149 527,149 527,149 527,149 527,149 527,149 527,149 527,149 527,148 527,148 527,148 527,148 527,148 528,147 528,147 528,147 528,147 528,146 528,146 528,146 528,145 528,145 528,145 528,145 528,144 528,144 529,144 529,144 529,143 529,143 529,143 529,143 529,143 529,143 529,144 529,143 529,144 529,144 529,145 530,145 530,145 530,145 530,146 530,146 530,145 530,145 530,146 530,146 530,146 530,146 530,147 530,147 531,147 531,147 531,148 531,148 531,148 531,148 531,148 531,148 531,148 531,148 531,148 531,148 531,148 532,148 532,148 532,148 532,148 532,148 532,148 532,148 532,148 532,148 532,148 532,148 532,148 532,148 533,147 533,147 533,147 533,148 533,148 533,148 533,147 533,147 533,147 533,147 533,147 533,147 533,147 534,147 534,147 534,147 534,147 534,147 534,147 534,147 534,146 534,146 534,146 534,146 534,145 534,145 535,145 535,146 535,146 535,146 535,146 535,146 535,146 535,147 535,147 535,147 535,147 535,147 535,147 536,147 536,147 536,147 536,147 536,147 536,147 536,147 536,146 536,146 536,146 536,146 536,146 536,146 537,146 537,146 537,146 537,146 537,146 537,146 537,146 537,146 537,146 537,147 537,147 537,146 537,146 538,146 538,146 538,146 538,146 538,146 538,146 538,146 538,146 538,145 538,145 538,145 538,145 538,145 539,145 539,145 539,145 539,145 539,145 539,145 539,145 539,145 539,145 539,144 539,144 539,144 539,144 540,144 540,144 540,144 540,144 540,144 540,144 540,144 540,144 540,144 540,144 540,144 540,144 540,144 541,144 541,144 541,144 541,144 541,144 541,144 541,144 541,144 541,144 541,144 541,144 541,144 541,144 542,144 542,144 542,144 542,144 542,144 542,144 542,144 542,144 542,144 542,144 542,144 542,144 542,144 543,144 543,144 543,143 543,143 543,144 543,144 543,144 543,144 543,144 543,144 543,144 543,144 543,143 544,143 544,143 544,143 544,143 544,143 544,143 544,143 544,143 544,143 544,143 544,143 544,143 544,143 545,143 545,143 545,143 545,143 545,143 545,143 545,143 545,143 545,143 545,143 545,143 545,143 545,143 546,143 546,142 546,142 546,142 546,142 546,142 546,142 546,142 546,142 546,142 546,142 546,142 546,141 547,141 547,141 547,141 547,141 547,141 547,141 547,140 547,140 547,140 547,140 547,140 547,140 547,139 548,139 548,139 548,138 548,138 548,137 548,137 548,136 548,136 548,135 548,135 548,135 548,134 548,134 549,133 549,133 549,133 549,133 549,132 549,132 549,132 549,132 549,132 549,132 549,132 549,132 549,132 550,132 550,132 550,132 550,132 550,132 550,132 550,133 550,133 550,133 550,133 550,133 550,133 550,133 551,133 551,133 551,133 551,132 551,132 551,132 551,132 551,132 551,132 551,131 551,131 551,131 551,131 552,131 552,130 552,130 552,131 552,131 552,131 552,131 552,131 552,131 552,131 552,131 552,131 552,132 553,132 553,132 553,132 553,132 553,131 553,131 553,131 553,131 553,131 553,131 553,130 553,130 553,130 554,130 554,130 554,130 554,130 554,130 554,129 554,129 554,129 554,129 554,129 554,129 554,128 554,128 555,129 555,129 555,129 555,130 555,130 555,130 555,130 555,130 555,130 555,130 555,130 555,130 555,130 556,130 556,130 556,130 556,130 556,130 556,130 556,130 556,130 556,130 556,130 556,130 556,130 556,130 557,130 557,130 557,130 557,130 557,130 557,129 557,129 557,129 557,129 557,129 557,129 557,129 557,129 558,129 558,129 558,128 558,128 558,128 558,128 558,128 558,128 558,128 558,127 558,127 558,127 558,127 559,127 559,127 559,127 559,126 559,126 559,126 559,126 559,126 559,126 559,125 559,125 559,125 559,125 560,124 560,124 560,124 560,124 560,124 560,124 560,124 560,124 560,125 560,125 560,125 560,125 560,125 561,125 561,125 561,125 561,125 561,126 561,126 561,126 561,126 561,127 561,127 561,127 561,127 561,127 562,128 562,128 562,128 562,128 562,128 562,129 562,129 562,129 562,129 562,129 562,129 562,129 562,129 563,130 563,130 563,130 563,130 563,129 563,129 563,129 563,129 563,129 563,129 563,129 563,129 563,129 564,129 564,129 564,129 564,129 564,129 564,128 564,128 564,128 564,128 564,128 564,128 564,127 564,127 565,127 565,126 565,126 565,126 565,126 565,125 565,125 565,124 565,124 565,124 565,123 565,123 565,122 566,122 566,122 566,122 566,121 566,121 566,121 566,121 566,121 566,121 566,121 566,121 566,121 566,122 567,122 567,122 567,122 567,122 567,122 567,122 567,122 567,123 567,123 567,123 567,123 567,123 567,123 568,123 568,123 568,123 568,123 568,124 568,124 568,124 568,124 568,125 568,125 568,125 568,125 568,125 569,125 569,126 569,126 569,126 569,126 569,126 569,126 569,125 569,125 569,125 569,125 569,125 569,125 570,125 570,124 570,124 570,124 570,123 570,123 570,123 570,123 570,122 570,122 570,122 570,122 570,122 571,121 571,121 571,121 571,121 571,120 571,120 571,120 571,119 571,119 571,118 571,118 571,118 571,117 572,117 572,117 572,116 572,116 572,115 572,115 572,115 572,114 572,114 572,114 572,113 572,113 572,113 573,112 573,112 573,112 573,112 573,111 573,111 573,111 573,111 573,111 573,111 573,111 573,111 573,111 574,111 574,111 574,111 574,110 574,110 574,110 574,110 574,109 574,109 574,109 574,108 574,108 574,108 575,107 575,107 575,107 575,107 575,106 575,106 575,106 575,106 575,105 575,105 575,105 575,105 575,104 576,104 576,104 576,104 576,104 576,103 576,103 576,103 576,103 576,102 576,102 576,102 576,102 576,101 577,101 577,101 577,101 577,101 577,100 577,100 577,100 577,100 577,100 577,100 577,100 577,100 577,100 578,100 578,100 578,100 578,100 578,100 578,100 578,100 578,101 578,101 578,101 578,101 578,101 578,101 579,101 579,102 579,102 579,102 579,102 579,103 579,103 579,103 579,103 579,104 579,104 579,104 579,104 580,104 580,105 580,105 580,105 580,105 580,106 580,106 580,106 580,106 580,107 580,107 580,107 580,107 581,107 581,108 581,108 581,108 581,108 581,108 581,109 581,109 581,109 581,109 581,109 581,109 581,110 582,110 582,110 582,110 582,110 582,110 582,110 582,110 582,110 582,110 582,109 582,109 582,109 582,108 583,108 583,108 583,107 583,107 583,107 583,106 583,106 583,105 583,105 583,104 583,104 583,104 583,103 584,103 584,102 584,102 584,102 584,102 584,101 584,101 584,101 584,101 584,102 584,102 584,102 584,102 585,102 585,102 585,102 585,103 585,103 585,103 585,103 585,103 585,103 585,103 585,103 585,103 585,102 586,102 586,102 586,102 586,101 586,101 586,101 586,101 586,101 586,100 586,100 586,100 586,99 586,99 587,99 587,98 587,98 587,98 587,98 587,98 587,98 587,98 587,98 587,98 587,99 587,99 587,99 588,98 588,98 588,98 588,97 588,97 588,96 588,95 588,95 588,94 588,93 588,93 588,93 588,93 589,92 589,92 589,92 589,92 589,92 589,93 589,93 589,93 589,93 589,93 589,93 589,93 589,94 590,94 590,94 590,94 590,94 590,94 590,94 590,94 590,94 590,94 590,94 590,94 590,94 590,94 591,94 591,93 591,93 591,93 591,93 591,94 591,94 591,94 591,94 591,94 591,94 591,95 591,95 592,95 592,95 592,95 592,96 592,96 592,96 592,96 592,97 592,97 592,97 592,97 592,98 592,98 593,98 593,98 593,98 593,99 593,99 593,99 593,99 593,99 593,100 593,100 593,100 593,100 593,100 594,101 594,101 594,101 594,101 594,101 594,101 594,102 594,102 594,102 594,102 594,102 594,102 594,102 595,102 595,102 595,102 595,102 595,102 595,102 595,102 595,103 595,103 595,103 595,103 595,103 595,103 596,104 596,104 596,104 596,104 596,105 596,105 596,105 596,105 596,106 596,106 596,106 596,106 596,106 597,106 597,107 597,107 597,107 597,107 597,107 597,107 597,107 597,107 597,107 597,107 597,107 597,107 598,107 598,106 598,106 598,106 598,106 598,106 598,105 598,105 598,105 598,105 598,105 598,105 598,105 599,105 599,105 599,105 599,105 599,105 599,106 599,106 599,106 599,106 599,107 599,107 599,107 599,107 600,108 600,108 600,108 600,108 600,108 600,109 600,109 600,109 600,109 600,109 600,109 600,110 600,110 601,110 601,110 601,111 601,112 601,112 601,112 601,112 601,112 601,113 601,113 601,113 601,113 601,113 602,114 602,114 602,114 602,114 602,115 602,115 602,116 602,116 602,116 602,116 602,117 602,117 602,117 603,117 603,117 603,117 603,118 603,118 603,118 603,118 603,118 603,117 603,117 603,117 603,117 603,117 604,117 604,117 604,117 604,116 604,116 604,116 604,117 604,117 604,117 604,117 604,117 604,117 604,117 605,117 605,117 605,118 605,118 605,118 605,118 605,118 605,118 605,118 605,119 605,119 605,119 605,119 606,119 606,119 606,119 606,120 606,120 606,120 606,120 606,120 606,120 606,121 606,121 606,121 606,121 607,121 607,121 607,121 607,121 607,122 607,122 607,122 607,122 607,122 607,122 607,122 607,122 607,122 608,122 608,123 608,123 608,123 608,123 608,123 608,123 608,124 608,124 608,124 608,124 608,124 608,125 609,125 609,125 609,125 609,125 609,125 609,125 609,126 609,127 609,127 609,128 609,128 609,128 609,129 610,129 610,129 610,129 610,129 610,129 610,129 610,129 610,129 610,129 610,128 610,128 610,128 610,128 611,128 611,128 611,128 611,128 611,128 611,128 611,129 611,129 611,129 611,129 611,130 611,130 611,131 612,131 612,132 612,132 612,133 612,134 612,134 612,135 612,135 612,136 612,136 612,137 612,137 612,138 613,138 613,138 613,139 613,139 613,139 613,139 613,140 613,140 613,140 613,140 613,140 613,141 613,141 614,141 614,141 614,141 614,141 614,141 614,141 614,141 614,141 614,141 614,141 614,141 614,140 614,140 615,141 615,141 615,141 615,141 615,141 615,141 615,142 615,142 615,142 615,142 615,142 615,143 615,143 616,143 616,143 616,143 616,144 616,144 616,144 616,144 616,145 616,145 616,145 616,145 616,145 616,146 617,146 617,146 617,146 617,146 617,146 617,146 617,146 617,146 617,146 617,146 617,147 617,147 617,147 618,147 618,148 618,148 618,148 618,148 618,148 618,148 618,149 618,149 618,149 618,149 618,150 618,150 619,150 619,150 619,151 619,151 619,151 619,151 619,151 619,152 619,152 619,152 619,152 619,152 619,152 620,153 620,153 620,153 620,153 620,153 620,154 620,154 620,154 620,154 620,155 620,155 620,155 620,155 621,155 621,155 621,156 621,156 621,156 621,156 621,156 621,156 621,156 621,156 621,156 621,156 621,156 622,156 622,156 622,155 622,155 622,155 622,155 622,155 622,155 622,155 622,155 622,155 622,155 622,155 623,155 623,155 623,156 623,155 623,155 623,155 623,155 623,155 623,155 623,155 623,155 623,154 623,154 624,154 624,154 624,154 624,154 624,154 624,154 624,154 624,154 624,154 624,154 624,154 624,154 624,154 625,154 625,155 625,155 625,155 625,156 625,156 625,156 625,157 625,158 625,158 625,157 625,157 625,157 626,157 626,156 626,156 626,156 626,156 626,156 626,156 626,155 626,155 626,155 626,155 626,155 626,155 627,154 627,154 627,154 627,154 627,154 627,154 627,153 627,153 627,153 627,154 627,154 627,154 627,154 628,154 628,154 628,154 628,154 628,155 628,155 628,155 628,156 628,156 628,156 628,156 628,157 628,157 629,157 629,157 629,157 629,157 629,157 629,157 629,157 629,157 629,157 629,156 629,156 629,156 629,156 630,156 630,155 630,155 630,155 630,155 630,154 630,154 630,154 630,153 630,153 630,153 630,153 630,152 631,152 631,152 631,151 631,151 631,151 631,150 631,150 631,150 631,150 631,149 631,149 631,149 631,149 632,149 632,149 632,149 632,150 632,150 632,150 632,151 632,151 632,151 632,151 632,151 632,151 632,150 633,149 633,149 633,148 633,148 633,148 633,148 633,148 633,147 633,147 633,146 633,146 633,146 633,145 634,145 634,145 634,144 634,144 634,144 634,144 634,143 634,143 634,143 634,143 634,143 634,142 634,143 635,143 635,143 635,144 635,144 635,145 635,145 635,145 635,146 635,146 635,147 635,148 635,148 635,149 636,149 636,150 636,150 636,151 636,151 636,151 636,152 636,152 636,153 636,153 636,153 636,153 636,154 637,154 637,154 637,154 637,155 637,155 637,155 637,155 637,155 637,156 637,156 637,156 637,156 637,157 638,157 638,158 638,158 638,159 638,159 638,159 638,159 638,159 638,159 638,160 638,160 638,160 638,160 639,161 639,161 639,161 639,161 639,161 639,161 639,161 639,161 639,161 639,161 639,161 639,161 639,160 640,160 640,160 640,160 640,160 640,160 640,160 640,160 640,159 640,159 640,159 640,159 640,159 640,159 641,158 641,158 641,158 641,158 641,158 641,157 641,157 641,157 641,157 641,157 641,156 641,156 641,156 642,156 642,155 642,155 642,155 642,155 642,154 642,154 642,154 642,154 642,154 642,154 642,153 642,153 643,153 643,153 643,152 643,152 643,152 643,152 643,152 643,152 643,151 643,151 643,151 643,151 643,151 644,151 644,151 644,151 644,151 644,151 644,151 644,151 644,151 644,151 644,151 644,151 644,151 644,151 645,151 645,151 645,151 645,150 645,150 645,149 645,149 645,148 645,148 645,148 645,147 645,147 645,146 646,146 646,146 646,146 646,146 646,146 646,145 646,145 646,145 646,145 646,145 646,144 646,144 646,144 647,144 647,144 647,144 647,144 647,145 647,145 647,145 647,145 647,145 647,146 647,146 647,146 647,146 648,146 648,147 648,147 648,147 648,147 648,147 648,148 648,148 648,148 648,148 648,149 648,149 648,149 649,149 649,149 649,150 649,150 649,150 649,151 649,151 649,151 649,152 649,152 649,152 649,153 649,153 650,153 650,154 650,154 650,154 650,155 650,154 650,155 650,155 650,155 650,156 650,156 650,157 650,157 651,157 651,158 651,158 651,159 651,159 651,159 651,160 651,160 651,161 651,161 651,161 651,162 651,162 652,163 652,163 652,163 652,164 652,164 652,164 652,164 652,165 652,165 652,165 652,165 652,165 652,166 653,166 653,166 653,167 653,167 653,167 653,167 653,168 653,168 653,168 653,169 653,169 653,169 653,170 654,170 654,170 654,170 654,170 654,170 654,170 654,170 654,170 654,170 654,170 654,171 654,171 654,171 655,171 655,171 655,171 655,171 655,171 655,171 655,171 655,171 655,171 655,171 655,171 655,171 655,171 656,170 656,170 656,170 656,170 656,170 656,170 656,170 656,170 656,170 656,170 656,170 656,170 656,170 657,170 657,170 657,170 657,170 657,170 657,170 657,170 657,170 657,170 657,170 657,170 657,170 657,170 658,170 658,170 658,169 658,169 658,169 658,169 658,169 658,169 658,169 658,169 658,169 658,169 658,169 659,169 659,169 659,169 659,169 659,169 659,169 659,168 659,168 659,168 659,168 659,168 659,168 659,168 660,168 660,168 660,168 660,167 660,167 660,167 660,167 660,167 660,167 660,167 660,167 660,167 660,167 661,166 661,166 661,166 661,166 661,166 661,166 661,165 661,165 661,165 661,165 661,165 661,164 661,164 662,164 662,163 662,163 662,163 662,163 662,162 662,162 662,162 662,162 662,162 662,161 662,161 662,161 663,161 663,161 663,160 663,160 663,160 663,160 663,159 663,159 663,158 663,158 663,158 663,157 663,157 664,157 664,156 664,156 664,155 664,155 664,155 664,155 664,154 664,154 664,153 664,153 664,153 664,152 665,152 665,152 665,151 665,151 665,150 665,150 665,150 665,149 665,149 665,149 665,149 665,148 665,148 666,148 666,148 666,148 666,148 666,148 666,148 666,148 666,148 666,147 666,147 666,147 666,147 666,147 667,147 667,147 667,147 667,147 667,148 667,148 667,148 667,148 667,149 667,149 667,149 667,149 667,149 668,149 668,149 668,149 668,149 668,149 668,149 668,149 668,149 668,149 668,149 668,150 668,150 668,150 669,150 669,150 669,151 669,151 669,151 669,151 669,151 669,152 669,152 669,152 669,152 669,152 669,153 670,153 670,153 670,153 670,153 670,154 670,154 670,154 670,154 670,155 670,155 670,155 670,155 670,155 671,155 671,156 671,156 671,156 671,156 671,156 671,156 671,157 671,157 671,157 671,157 671,157 671,157 672,158 672,158 672,158 672,158 672,158 672,158 672,158 672,159 672,159 672,159 672,159 672,160 672,160 673,160 673,161 673,161 673,162 673,162 673,162 673,163 673,163 673,163 673,164 673,164 673,164 673,165 674,165 674,165 674,166 674,166 674,167 674,167 674,168 674,168 674,169 674,170 674,171 674,171 674,172 675,172 675,172 675,172 675,172 675,172 675,172 675,172 675,172 675,171 675,171 675,171 675,171 675,170 676,170 676,170 676,170 676,169 676,169 676,169 676,168 676,168 676,168 676,168 676,167 676,167 676,167 677,166 677,166 677,166 677,166 677,166 677,166 677,166 677,166 677,166 677,166 677,166 677,166 677,167 678,167 678,167 678,167 678,168 678,168 678,168 678,168 678,168 678,168 678,168 678,168 678,167 678,167 679,167 679,166 679,166 679,166 679,166 679,166 679,166 679,166 679,166 679,166 679,166 679,166 679,167 680,167 680,167 680,167 680,168 680,168 680,168 680,169 680,169 680,170 680,171 680,171 680,172 680,172 681,173 681,173 681,173 681,174 681,174 681,174 681,175 681,175 681,175 681,175 681,176 681,176 681,176 682,176 682,176 682,176 682,176 682,176 682,176 682,176 682,176 682,176 682,176 682,175 682,175 682,175 683,175 683,174 683,174 683,173 683,173 683,173 683,173 683,173 683,173 683,173 683,173 683,173 683,173 684,173 684,173 684,173 684,173 684,173 684,174 684,174 684,173 684,173 684,173 684,173 684,173 684,173 685,172 685,172 685,172 685,172 685,172 685,172 685,171 685,171 685,171 685,171 685,170 685,170 685,170 686,169 686,169 686,169 686,168 686,168 686,167 686,167 686,167 686,166 686,166 686,165 686,165 686,164 687,164 687,164 687,163 687,163 687,162 687,162 687,161 687,161 687,161 687,161 687,160 687,160 687,160 688,160 688,159 688,159 688,159 688,159 688,159 688,158 688,158 688,158 688,158 688,158 688,158 688,158 689,157 689,157 689,157 689,158 689,158 689,158 689,158 689,159 689,159 689,159 689,160 689,160 689,160 690,160 690,161 690,161 690,161 690,161 690,161 690,161 690,160 690,160 690,161 690,161 690,161 690,161 691,161 691,161 691,161 691,161 691,162 691,162 691,162 691,163 691,163 691,164 691,164 691,164 691,165 692,165 692,165 692,166 692,166 692,166 692,166 692,167 692,166 692,166 692,166 692,166 692,166 692,166 693,165 693,165 693,165 693,165 693,165 693,165 693,164 693,164 693,164 693,165 693,166 693,168 693,170 694,170 694,169 694,169 694,169 694,168 694,167 694,166 694,165 694,165 694,165 694,165 694,166 694,166 695,166 695,166 695,166 695,167 695,167 695,167 695,167 695,167 695,168 695,168 695,168 695,168 695,168 696,168 696,168 696,167 696,167 696,167 696,167 696,167 696,166 696,166 696,166 696,166 696,166 696,166 697,166 697,166 697,167 697,167 697,167 697,167 697,167 697,167 697,167 697,167 697,168 697,168 697,168 698,168 698,168 698,168 698,168 698,168 698,169 698,169 698,169 698,169 698,170 698,170 698,170 698,170 699,170 699,170 699,170 699,171 699,171 699,171 699,171 699,172 699,172 699,172 699,173 699,173 699,173 700,174 700,174 700,174 700,175 700,175 700,175 700,175 700,176 700,176 700,177 700,178 700,178 700,178 701,178 701,179 701,179 701,179 701,179 701,179 701,179 701,180 701,180 701,180 701,180 701,180 701,180 702,180 702,180 702,180 702,180 702,180 702,180 702,180 702,180 702,180 702,180 702,180 702,180 702,181 703,181 703,181 703,181 703,181 703,181 703,182 703,182 703,183 703,183 703,183 703,184 703,184 703,185 704,185 704,185 704,186 704,186 704,186 704,186 704,187 704,187 704,187 704,187 704,187 704,188 704,188 705,188 705,188 705,189 705,189 705,189 705,190 705,191 705,191 705,192 705,192 705,193 705,193 705,194 706,195 706,195 706,195 706,196 706,196 706,196 706,196 706,196 706,196 706,196 706,196 706,196 706,196 707,196 707,197 707,197 707,197 707,197 707,197 707,197 707,197 707,197 707,197 707,197 707,196 707,197 708,197 708,197 708,197 708,197 708,197 708,198 708,198 708,198 708,198 708,198 708,198 708,198 708,198 709,198 709,198 709,198 709,198 709,198 709,198 709,197 709,196 709,196 709,195 709,194 709,194 709,193 710,193 710,192 710,192 710,192 710,191 710,191 710,191 710,191 710,190 710,190 710,190 710,190 710,189 711,189 711,189 711,188 711,188 711,188 711,188 711,188 711,188 711,188 711,188 711,188 711,188 711,188 712,189 712,189 712,189 712,190 712,190 712,190 712,190 712,190 712,190 712,190 712,190 712,190 712,191 713,191 713,191 713,191 713,192 713,192 713,192 713,192 713,193 713,193 713,193 713,193 713,192 713,192 714,192 714,191 714,191 714,191 714,190 714,190 714,189 714,189 714,188 714,188 714,188 714,187 714,187 715,187 715,187 715,187 715,187 715,187 715,187 715,186 715,186 715,186 715,187 715,187 715,187 715,186 716,185 716,185 716,184 716,184 716,184 716,184 716,184 716,184 716,183 716,183 716,183 716,183 716,183 717,183 717,183 717,183 717,182 717,182 717,182 717,182 717,181 717,181 717,181 717,181 717,181 717,181 718,181 718,181 718,181 718,181 718,181 718,180 718,180 718,180 718,180 718,180 718,180 718,180 718,180 719,180 719,180 719,179 719,179 719,179 719,178 719,178 719,178 719,177 719,177 719,176 719,176 719,176 720,176 720,175 720,175 720,175 720,174 720,174 720,173 720,173 720,173 720,173 720,172 720,172 720,172 721,171 721,171 721,170 721,170 721,170 721,169 721,169 721,169 721,168 721,168 721,168 721,168 721,168 722,168 722,168 722,168 722,167 722,168 722,168 722,168 722,168 722,168 722,169 722,170 722,170 722,171 723,172 723,172 723,173 723,173 723,174 723,174 723,175 723,175 723,176 723,176 723,176 723,177 723,177 724,177 724,178 724,178 724,178 724,179 724,179 724,179 724,179 724,180 724,180 724,180 724,180 724,181 725,181 725,181 725,181 725,182 725,182 725,182 725,182 725,182 725,183 725,183 725,183 725,183 725,183 726,183 726,183 726,183 726,183 726,183 726,184 726,184 726,184 726,185 726,185 726,185 726,185 726,186 727,186 727,186 727,186 727,186 727,186 727,186 727,186 727,186 727,186 727,186 727,186 727,186 727,186 728,187 728,187 728,187 728,187 728,187 728,187 728,188 728,188 728,188 728,188 728,189 728,189 728,189 729,190 729,190 729,190 729,191 729,191 729,191 729,191 729,192 729,192 729,192 729,192 729,193 729,193 730,193 730,193 730,193 730,194 730,194 730,194 730,195 730,195 730,195 730,196 730,196 730,196 730,197 731,197 731,197 731,198 731,198 731,199 731,199 731,200 731,200 731,200 731,201 731,201 731,202 731,202 732,203 732,203 732,204 732,204 732,205 732,205 732,205 732,206 732,206 732,206 732,207 732,207 732,207 733,208 733,208 733,208 733,208 733,208 733,208 733,208 733,208 733,208 733,208 733,209 733,209 733,209 734,209 734,209 734,209 734,209 734,209 734,209 734,209 734,209 734,209 734,209 734,209 734,209 734,209 735,209 735,209 735,209 735,209 735,208 735,208 735,208 735,207 735,207 735,207 735,206 735,206 735,206 736,206 736,206 736,206 736,205 736,205 736,205 736,205 736,205 736,206 736,206 736,206 " vector-effect="non-scaling-stroke"></polyline>
</g></svg>