<?xml version="1.0" encoding="UTF-8" standalone="no"?><svg width="282.222mm" height="141.111mm" xmlns="http://www.w3.org/2000/svg" xmlns:xlink="http://www.w3.org/1999/xlink"  version="1.2" baseProfile="tiny"><g fill="none" stroke="#ff0000" stroke-linecap="round" stroke-linejoin="round" stroke-opacity="1" stroke-width="1.5" transform="matrix(1,0,0,1,0,0)">
<polyline fill="none" points="67,355 67,355 67,355 67,356 67,356 67,356 68,356 68,356 68,356 68,356 68,356 68,356 68,356 68,356 68,356 68,356 68,356 68,356 68,356 69,356 69,356 69,356 69,356 69,356 69,356 69,356 69,356 69,356 69,356 69,356 69,356 69,356 70,356 70,356 70,356 70,356 70,356 70,356 70,356 70,356 70,356 70,356 70,356 70,356 70,356 71,356 71,356 71,356 71,356 71,356 71,356 71,356 71,357 71,357 71,357 71,357 71,357 71,357 72,357 72,357 72,357 72,357 72,357 72,357 72,357 72,357 72,357 72,357 72,357 72,357 72,357 73,357 73,357 73,357 73,357 73,357 73,357 73,357 73,357 73,357 73,357 73,357 73,357 73,357 74,357 74,357 74,357 74,357 74,357 74,357 74,357 74,357 74,357 74,357 74,357 74,357 74,357 75,357 75,357 75,357 75,357 75,357 75,357 75,357 75,357 75,357 75,357 75,357 75,357 75,357 76,356 76,356 76,356 76,356 76,356 76,356 76,356 76,356 76,356 76,356 76,356 76,356 76,356 77,356 77,356 77,356 77,356 77,356 77,356 77,356 77,356 77,356 77,356 77,356 77,356 77,356 78,356 78,356 78,356 78,356 78,356 78,356 78,356 78,356 78,356 78,356 78,356 78,356 78,356 79,356 79,356 79,356 79,356 79,356 79,356 79,356 79,356 79,356 79,356 79,356 79,356 79,356 80,356 80,356 80,356 80,356 80,356 80,356 80,356 80,356 80,356 80,356 80,356 80,356 80,356 81,356 81,356 81,357 81,357 81,357 81,357 81,357 81,357 81,357 81,357 81,357 81,357 81,357 82,357 82,357 82,357 82,357 82,357 82,357 82,357 82,357 82,357 82,357 82,357 82,357 82,357 83,357 83,357 83,357 83,357 83,357 83,357 83,357 83,357 83,357 83,357 83,357 83,357 83,357 84,357 84,357 84,357 84,357 84,357 84,357 84,357 84,357 84,357 84,357 84,357 84,357 84,357 85,357 85,357 85,357 85,357 85,357 85,357 85,357 85,357 85,357 85,357 85,357 85,357 85,357 86,357 86,357 86,357 86,357 86,357 86,357 86,357 86,357 86,357 86,357 86,357 86,357 86,357 87,357 87,357 87,357 87,357 87,357 87,357 87,358 87,358 87,358 87,358 87,358 87,358 87,358 88,358 88,358 88,359 88,359 88,359 88,359 88,359 88,359 88,360 88,360 88,360 88,359 88,359 89,359 89,359 89,359 89,359 89,359 89,359 89,359 89,359 89,359 89,360 89,360 89,360 89,360 90,360 90,360 90,360 90,360 90,360 90,360 90,360 90,360 90,360 90,360 90,360 90,360 90,360 91,360 91,360 91,361 91,361 91,360 91,360 91,360 91,360 91,360 91,360 91,360 91,360 91,360 92,361 92,361 92,361 92,361 92,361 92,361 92,361 92,361 92,360 92,360 92,360 92,360 92,360 93,360 93,360 93,360 93,360 93,360 93,360 93,360 93,360 93,359 93,359 93,359 93,359 93,359 94,359 94,359 94,359 94,359 94,359 94,359 94,359 94,359 94,359 94,359 94,359 94,360 94,359 95,359 95,359 95,359 95,359 95,359 95,359 95,359 95,359 95,359 95,359 95,358 95,358 95,358 96,357 96,357 96,357 96,356 96,356 96,356 96,356 96,356 96,356 96,356 96,357 96,357 96,357 97,357 97,357 97,357 97,357 97,356 97,356 97,356 97,356 97,356 97,356 97,356 97,356 97,356 98,356 98,356 98,356 98,356 98,356 98,356 98,356 98,356 98,356 98,357 98,357 98,357 98,357 99,357 99,357 99,357 99,357 99,358 99,358 99,358 99,358 99,358 99,358 99,358 99,358 99,358 100,358 100,358 100,358 100,358 100,358 100,357 100,357 100,357 100,357 100,357 100,357 100,357 100,357 101,356 101,356 101,357 101,357 101,357 101,357 101,357 101,357 101,357 101,357 101,357 101,357 101,357 102,357 102,356 102,356 102,356 102,356 102,356 102,356 102,356 102,356 102,356 102,356 102,356 102,356 103,355 103,355 103,355 103,355 103,356 103,356 103,356 103,356 103,356 103,356 103,356 103,356 103,356 104,356 104,356 104,356 104,356 104,355 104,355 104,355 104,356 104,356 104,356 104,356 104,356 104,356 105,356 105,356 105,356 105,356 105,356 105,356 105,356 105,356 105,356 105,356 105,356 105,356 105,356 106,356 106,355 106,355 106,355 106,355 106,355 106,355 106,354 106,354 106,355 106,355 106,355 106,355 107,355 107,355 107,355 107,355 107,355 107,355 107,355 107,354 107,354 107,354 107,354 107,354 107,354 108,354 108,354 108,354 108,354 108,354 108,354 108,354 108,354 108,354 108,354 108,354 108,354 108,354 109,354 109,354 109,354 109,354 109,353 109,353 109,353 109,354 109,354 109,354 109,354 109,354 109,354 110,354 110,354 110,354 110,353 110,353 110,353 110,353 110,353 110,353 110,353 110,353 110,353 110,353 111,353 111,353 111,353 111,353 111,353 111,353 111,352 111,352 111,352 111,352 111,352 111,352 111,352 112,352 112,352 112,352 112,352 112,352 112,352 112,352 112,352 112,352 112,352 112,352 112,351 112,351 113,351 113,351 113,351 113,351 113,351 113,351 113,351 113,351 113,351 113,351 113,351 113,351 113,351 114,351 114,351 114,351 114,351 114,351 114,351 114,351 114,351 114,351 114,351 114,351 114,351 114,351 115,351 115,351 115,351 115,351 115,351 115,351 115,350 115,350 115,350 115,350 115,350 115,350 115,350 116,350 116,350 116,350 116,350 116,350 116,350 116,350 116,349 116,349 116,349 116,349 116,349 116,349 117,349 117,349 117,349 117,349 117,349 117,349 117,349 117,349 117,349 117,349 117,349 117,349 117,349 118,349 118,349 118,349 118,349 118,349 118,349 118,349 118,349 118,349 118,349 118,349 118,349 118,349 119,349 119,349 119,350 119,350 119,350 119,350 119,350 119,350 119,350 119,350 119,349 119,349 119,349 120,349 120,349 120,348 120,348 120,348 120,348 120,348 120,348 120,348 120,348 120,348 120,348 120,349 121,348 121,348 121,348 121,347 121,347 121,347 121,348 121,348 121,348 121,347 121,347 121,347 121,347 122,347 122,347 122,347 122,347 122,347 122,347 122,347 122,347 122,346 122,346 122,346 122,346 122,346 123,346 123,346 123,347 123,347 123,347 123,347 123,347 123,347 123,347 123,347 123,347 123,347 123,346 124,346 124,346 124,346 124,347 124,347 124,347 124,346 124,346 124,346 124,346 124,346 124,346 124,346 125,346 125,346 125,346 125,346 125,346 125,346 125,347 125,347 125,347 125,346 125,346 125,346 125,346 126,346 126,346 126,346 126,346 126,346 126,346 126,347 126,347 126,347 126,346 126,346 126,346 126,346 127,346 127,346 127,346 127,346 127,346 127,346 127,346 127,346 127,346 127,346 127,346 127,346 127,346 128,346 128,345 128,345 128,345 128,345 128,345 128,345 128,345 128,345 128,345 128,345 128,345 128,345 129,345 129,345 129,344 129,344 129,344 129,344 129,344 129,344 129,344 129,344 129,344 129,344 129,344 130,344 130,344 130,344 130,344 130,344 130,344 130,344 130,344 130,344 130,344 130,344 130,344 130,344 131,344 131,343 131,343 131,343 131,343 131,343 131,343 131,343 131,343 131,343 131,343 131,343 131,343 132,343 132,343 132,343 132,343 132,343 132,342 132,342 132,342 132,342 132,342 132,342 132,342 133,342 133,342 133,342 133,342 133,342 133,342 133,342 133,342 133,342 133,341 133,341 133,341 133,341 134,341 134,341 134,341 134,341 134,341 134,341 134,341 134,341 134,341 134,341 134,341 134,341 134,341 135,341 135,341 135,341 135,341 135,341 135,341 135,341 135,341 135,341 135,341 135,341 135,340 135,340 136,340 136,340 136,340 136,340 136,340 136,340 136,340 136,340 136,340 136,340 136,340 136,340 136,340 137,340 137,340 137,340 137,339 137,339 137,339 137,339 137,339 137,339 137,339 137,339 137,339 137,339 138,339 138,339 138,339 138,339 138,339 138,339 138,339 138,339 138,339 138,338 138,338 138,338 138,338 139,338 139,338 139,338 139,338 139,338 139,338 139,338 139,338 139,338 139,338 139,338 139,338 139,339 140,339 140,339 140,339 140,339 140,338 140,338 140,337 140,337 140,337 140,337 140,337 140,337 140,337 141,337 141,337 141,337 141,337 141,337 141,337 141,337 141,337 141,337 141,337 141,337 141,337 141,337 142,337 142,337 142,337 142,336 142,336 142,337 142,336 142,336 142,336 142,336 142,336 142,336 142,336 143,336 143,336 143,336 143,336 143,336 143,336 143,336 143,335 143,336 143,336 143,336 143,336 143,335 144,335 144,335 144,335 144,335 144,335 144,335 144,335 144,335 144,334 144,334 144,334 144,334 144,334 145,335 145,335 145,335 145,335 145,335 145,335 145,334 145,334 145,334 145,334 145,334 145,334 145,334 146,334 146,334 146,334 146,334 146,334 146,334 146,334 146,333 146,333 146,333 146,333 146,333 146,333 147,333 147,333 147,333 147,333 147,333 147,333 147,333 147,333 147,333 147,333 147,333 147,333 147,333 148,333 148,333 148,333 148,332 148,332 148,332 148,332 148,332 148,332 148,332 148,332 148,332 148,333 149,333 149,333 149,333 149,332 149,332 149,332 149,332 149,332 149,332 149,332 149,332 149,332 149,332 150,332 150,332 150,332 150,332 150,332 150,332 150,332 150,332 150,331 150,331 150,331 150,331 150,331 151,331 151,331 151,331 151,331 151,331 151,331 151,331 151,331 151,331 151,331 151,331 151,331 151,331 152,331 152,331 152,331 152,331 152,331 152,331 152,331 152,330 152,330 152,330 152,330 152,330 152,330 153,330 153,330 153,330 153,329 153,329 153,329 153,329 153,330 153,330 153,330 153,330 153,330 153,330 154,330 154,330 154,330 154,329 154,329 154,329 154,329 154,329 154,329 154,329 154,329 154,329 154,329 155,329 155,329 155,329 155,329 155,329 155,329 155,329 155,329 155,329 155,329 155,329 155,329 155,329 156,329 156,329 156,329 156,329 156,329 156,329 156,329 156,329 156,329 156,329 156,329 156,329 156,329 157,329 157,329 157,329 157,329 157,329 157,329 157,329 157,329 157,329 157,329 157,328 157,328 157,328 158,328 158,328 158,328 158,328 158,328 158,328 158,328 158,328 158,328 158,328 158,328 158,328 158,328 159,327 159,327 159,327 159,327 159,327 159,326 159,326 159,326 159,326 159,326 159,326 159,326 159,326 160,326 160,326 160,326 160,326 160,326 160,326 160,326 160,326 160,326 160,326 160,326 160,326 160,326 161,326 161,325 161,325 161,325 161,325 161,325 161,325 161,325 161,325 161,325 161,325 161,326 161,326 162,326 162,326 162,326 162,326 162,325 162,325 162,325 162,324 162,324 162,325 162,325 162,325 162,325 163,325 163,324 163,324 163,324 163,324 163,324 163,324 163,324 163,324 163,324 163,324 163,324 163,324 164,323 164,323 164,323 164,323 164,323 164,323 164,323 164,323 164,323 164,323 164,323 164,323 164,323 165,323 165,323 165,323 165,323 165,323 165,323 165,323 165,323 165,322 165,322 165,322 165,322 165,322 166,321 166,321 166,321 166,321 166,321 166,321 166,321 166,321 166,321 166,321 166,321 166,321 166,321 167,320 167,320 167,320 167,320 167,320 167,320 167,320 167,319 167,319 167,319 167,319 167,319 167,319 168,319 168,319 168,319 168,318 168,318 168,318 168,318 168,318 168,318 168,318 168,318 168,317 168,317 169,317 169,317 169,317 169,317 169,317 169,316 169,316 169,316 169,316 169,316 169,316 169,316 169,315 170,315 170,315 170,315 170,315 170,315 170,314 170,314 170,314 170,313 170,313 170,313 170,313 170,313 171,313 171,313 171,313 171,313 171,313 171,312 171,312 171,312 171,312 171,312 171,312 171,313 171,313 172,313 172,313 172,313 172,312 172,312 172,311 172,311 172,311 172,311 172,311 172,310 172,310 172,310 173,310 173,310 173,310 173,310 173,309 173,309 173,309 173,309 173,309 173,309 173,309 173,309 173,310 174,310 174,309 174,309 174,309 174,309 174,309 174,308 174,308 174,308 174,308 174,308 174,308 174,308 175,307 175,307 175,307 175,307 175,307 175,307 175,307 175,307 175,307 175,307 175,307 175,307 175,307 176,307 176,307 176,306 176,306 176,306 176,305 176,305 176,305 176,305 176,305 176,305 176,305 176,305 177,305 177,305 177,305 177,305 177,305 177,305 177,305 177,305 177,304 177,304 177,304 177,305 177,305 178,304 178,304 178,304 178,304 178,304 178,304 178,304 178,304 178,304 178,304 178,304 178,304 178,304 179,303 179,303 179,303 179,303 179,303 179,303 179,303 179,303 179,303 179,303 179,303 179,303 179,303 180,303 180,303 180,303 180,303 180,303 180,303 180,303 180,303 180,302 180,302 180,302 180,302 180,302 181,302 181,302 181,302 181,302 181,302 181,302 181,302 181,302 181,302 181,302 181,302 181,302 181,302 182,302 182,302 182,302 182,302 182,302 182,301 182,301 182,302 182,302 182,301 182,301 182,301 182,301 183,301 183,301 183,301 183,301 183,301 183,301 183,301 183,301 183,301 183,301 183,301 183,301 183,301 184,301 184,300 184,300 184,300 184,300 184,299 184,299 184,299 184,298 184,298 184,298 184,297 184,297 185,297 185,297 185,297 185,297 185,297 185,297 185,297 185,297 185,297 185,297 185,296 185,296 185,296 186,296 186,295 186,295 186,294 186,294 186,294 186,293 186,293 186,292 186,292 186,292 186,292 186,291 187,291 187,290 187,290 187,289 187,289 187,288 187,287 187,287 187,287 187,287 187,287 187,287 187,286 188,286 188,286 188,286 188,286 188,286 188,286 188,287 188,287 188,287 188,288 188,287 188,287 188,287 189,287 189,286 189,285 189,285 189,284 189,283 189,283 189,282 189,281 189,280 189,280 189,279 189,278 190,277 190,277 190,276 190,276 190,275 190,274 190,273 190,272 190,271 190,271 190,270 190,270 190,269 191,267 191,266 191,264 191,264 191,263 191,262 191,261 191,260 191,259 191,258 191,258 191,257 191,257 192,257 192,256 192,256 192,256 192,256 192,256 192,256 192,256 192,256 192,257 192,258 192,258 192,258 193,258 193,259 193,259 193,259 193,259 193,259 193,259 193,259 193,260 193,260 193,260 193,260 193,261 194,261 194,262 194,262 194,263 194,264 194,265 194,266 194,267 194,268 194,270 194,272 194,273 194,275 195,276 195,278 195,279 195,281 195,282 195,284 195,285 195,285 195,285 195,286 195,288 195,288 195,287 196,286 196,286 196,285 196,285 196,284 196,284 196,283 196,283 196,282 196,281 196,279 196,278 196,277 197,276 197,275 197,274 197,273 197,272 197,270 197,268 197,267 197,266 197,266 197,267 197,267 197,266 198,266 198,267 198,267 198,267 198,267 198,267 198,266 198,266 198,266 198,266 198,266 198,265 198,265 199,265 199,266 199,266 199,266 199,268 199,269 199,271 199,272 199,273 199,275 199,276 199,277 199,278 200,278 200,279 200,281 200,282 200,284 200,286 200,288 200,289 200,290 200,291 200,291 200,292 200,292 201,292 201,292 201,292 201,292 201,292 201,291 201,290 201,290 201,289 201,288 201,288 201,287 201,287 202,286 202,286 202,285 202,284 202,284 202,283 202,282 202,282 202,281 202,278 202,277 202,276 202,275 203,275 203,275 203,275 203,274 203,273 203,272 203,271 203,271 203,271 203,270 203,270 203,269 203,268 204,267 204,265 204,264 204,263 204,261 204,260 204,258 204,257 204,256 204,255 204,254 204,252 204,251 205,250 205,248 205,247 205,245 205,244 205,243 205,241 205,240 205,239 205,238 205,238 205,239 205,239 206,236 206,233 206,229 206,225 206,223 206,222 206,221 206,220 206,219 206,218 206,217 206,216 206,216 207,215 207,215 207,214 207,214 207,214 207,213 207,214 207,213 207,213 207,212 207,212 207,211 207,211 208,211 208,211 208,210 208,209 208,208 208,208 208,207 208,205 208,204 208,203 208,202 208,201 208,199 209,199 209,198 209,199 209,199 209,199 209,198 209,197 209,196 209,195 209,195 209,194 209,193 209,192 210,191 210,190 210,189 210,187 210,186 210,183 210,181 210,179 210,178 210,179 210,179 210,178 210,178 211,178 211,178 211,177 211,177 211,178 211,178 211,178 211,178 211,178 211,178 211,179 211,179 211,178 212,179 212,179 212,179 212,179 212,179 212,179 212,179 212,179 212,178 212,178 212,178 212,177 212,177 213,177 213,178 213,179 213,181 213,181 213,183 213,183 213,184 213,185 213,186 213,187 213,187 213,187 214,188 214,188 214,189 214,189 214,189 214,190 214,191 214,192 214,193 214,194 214,195 214,197 214,199 215,200 215,201 215,202 215,203 215,204 215,204 215,205 215,205 215,205 215,204 215,204 215,203 215,203 216,202 216,201 216,200 216,198 216,197 216,196 216,194 216,192 216,190 216,188 216,186 216,183 216,180 217,178 217,176 217,174 217,172 217,171 217,169 217,167 217,166 217,164 217,163 217,161 217,160 217,159 218,157 218,156 218,154 218,153 218,152 218,152 218,152 218,152 218,151 218,151 218,151 218,150 218,150 219,149 219,149 219,148 219,148 219,147 219,147 219,146 219,146 219,145 219,145 219,144 219,144 219,144 220,143 220,143 220,142 220,142 220,141 220,141 220,141 220,141 220,140 220,140 220,139 220,139 220,139 221,139 221,139 221,139 221,140 221,140 221,140 221,140 221,140 221,140 221,140 221,140 221,140 221,140 222,140 222,140 222,140 222,140 222,139 222,139 222,138 222,138 222,137 222,136 222,135 222,134 222,133 223,133 223,132 223,131 223,131 223,130 223,130 223,129 223,129 223,129 223,128 223,128 223,128 223,127 224,127 224,127 224,127 224,127 224,127 224,127 224,127 224,127 224,127 224,127 224,127 224,128 224,128 225,128 225,128 225,129 225,130 225,130 225,130 225,129 225,128 225,126 225,125 225,125 225,126 225,125 226,125 226,125 226,125 226,125 226,125 226,125 226,125 226,124 226,124 226,124 226,124 226,124 226,124 227,125 227,125 227,125 227,125 227,126 227,126 227,126 227,127 227,127 227,127 227,127 227,128 227,128 228,128 228,129 228,129 228,130 228,131 228,132 228,132 228,132 228,131 228,131 228,130 228,130 228,130 229,130 229,130 229,130 229,130 229,129 229,129 229,129 229,129 229,129 229,129 229,129 229,130 229,130 230,130 230,130 230,130 230,130 230,130 230,130 230,130 230,130 230,129 230,129 230,128 230,128 230,128 231,127 231,127 231,127 231,126 231,126 231,126 231,125 231,125 231,124 231,123 231,123 231,123 231,122 232,122 232,122 232,121 232,121 232,120 232,120 232,119 232,119 232,119 232,119 232,118 232,118 232,118 233,118 233,118 233,118 233,118 233,118 233,117 233,117 233,117 233,117 233,117 233,117 233,117 233,117 234,117 234,117 234,117 234,117 234,117 234,117 234,118 234,118 234,118 234,118 234,118 234,119 234,119 235,118 235,118 235,118 235,118 235,118 235,118 235,118 235,118 235,118 235,118 235,117 235,117 235,117 236,117 236,117 236,117 236,117 236,117 236,116 236,116 236,116 236,116 236,116 236,116 236,116 236,116 237,116 237,116 237,116 237,116 237,117 237,117 237,116 237,116 237,116 237,116 237,116 237,116 237,116 238,116 238,116 238,116 238,116 238,116 238,116 238,116 238,116 238,116 238,116 238,116 238,116 238,116 239,116 239,116 239,115 239,115 239,115 239,115 239,115 239,115 239,116 239,116 239,116 239,116 239,116 240,116 240,116 240,116 240,116 240,116 240,116 240,116 240,116 240,116 240,116 240,116 240,117 240,117 241,117 241,117 241,117 241,117 241,118 241,118 241,118 241,118 241,119 241,119 241,119 241,119 241,120 242,120 242,121 242,121 242,122 242,122 242,123 242,124 242,125 242,127 242,128 242,130 242,131 242,133 243,135 243,136 243,137 243,138 243,141 243,143 243,146 243,148 243,149 243,151 243,152 243,153 243,154 244,155 244,156 244,156 244,157 244,158 244,158 244,159 244,160 244,161 244,162 244,163 244,163 244,163 245,163 245,163 245,164 245,166 245,167 245,167 245,168 245,168 245,169 245,170 245,170 245,171 245,172 246,172 246,173 246,173 246,174 246,175 246,175 246,176 246,176 246,177 246,178 246,179 246,179 246,180 247,181 247,182 247,183 247,184 247,184 247,185 247,186 247,187 247,187 247,188 247,188 247,189 247,189 248,190 248,190 248,191 248,191 248,191 248,192 248,192 248,192 248,192 248,192 248,193 248,193 248,193 249,193 249,193 249,193 249,193 249,192 249,192 249,192 249,193 249,192 249,192 249,192 249,193 249,192 250,192 250,192 250,191 250,191 250,191 250,191 250,191 250,191 250,190 250,190 250,189 250,189 250,188 251,188 251,187 251,186 251,186 251,185 251,185 251,184 251,183 251,183 251,182 251,182 251,181 251,180 252,179 252,178 252,176 252,175 252,174 252,173 252,172 252,171 252,170 252,168 252,167 252,165 252,165 253,164 253,163 253,162 253,161 253,160 253,160 253,159 253,159 253,158 253,158 253,157 253,157 253,157 254,156 254,156 254,156 254,156 254,155 254,155 254,155 254,155 254,155 254,155 254,155 254,154 254,155 255,155 255,155 255,155 255,156 255,156 255,156 255,157 255,157 255,157 255,158 255,158 255,159 255,159 256,159 256,159 256,159 256,160 256,160 256,160 256,160 256,160 256,161 256,161 256,161 256,162 256,162 257,163 257,163 257,164 257,165 257,166 257,167 257,168 257,170 257,171 257,172 257,174 257,176 257,178 258,178 258,179 258,179 258,179 258,179 258,179 258,179 258,180 258,180 258,179 258,179 258,179 258,179 259,179 259,179 259,179 259,180 259,180 259,181 259,181 259,181 259,181 259,181 259,182 259,182 259,182 260,182 260,182 260,182 260,182 260,181 260,181 260,181 260,180 260,179 260,178 260,178 260,176 260,175 261,174 261,173 261,174 261,174 261,174 261,174 261,174 261,174 261,174 261,174 261,174 261,174 261,174 262,174 262,174 262,174 262,173 262,173 262,173 262,173 262,173 262,173 262,173 262,173 262,174 262,174 263,175 263,175 263,175 263,175 263,174 263,175 263,175 263,175 263,175 263,176 263,176 263,176 263,175 264,175 264,175 264,174 264,174 264,173 264,173 264,172 264,171 264,170 264,169 264,169 264,168 264,167 265,166 265,165 265,165 265,164 265,163 265,162 265,161 265,160 265,159 265,158 265,157 265,156 265,155 266,154 266,153 266,152 266,152 266,151 266,152 266,153 266,153 266,153 266,153 266,154 266,154 266,154 267,153 267,153 267,153 267,153 267,153 267,153 267,152 267,152 267,151 267,152 267,153 267,154 267,156 268,157 268,158 268,159 268,160 268,161 268,162 268,162 268,163 268,164 268,165 268,166 268,166 268,166 269,166 269,166 269,165 269,164 269,162 269,161 269,160 269,159 269,158 269,157 269,155 269,155 269,154 270,153 270,153 270,152 270,152 270,151 270,152 270,153 270,154 270,155 270,155 270,155 270,155 270,156 271,156 271,156 271,156 271,156 271,156 271,157 271,157 271,157 271,157 271,157 271,158 271,158 271,158 272,158 272,158 272,159 272,160 272,162 272,163 272,165 272,166 272,167 272,169 272,170 272,172 272,173 273,175 273,176 273,178 273,179 273,181 273,182 273,183 273,184 273,185 273,186 273,186 273,186 273,186 274,185 274,185 274,184 274,183 274,183 274,182 274,181 274,180 274,178 274,177 274,175 274,174 274,173 275,171 275,169 275,168 275,166 275,165 275,163 275,161 275,160 275,157 275,155 275,153 275,150 275,149 276,148 276,147 276,145 276,144 276,142 276,141 276,139 276,138 276,137 276,136 276,135 276,134 276,133 277,132 277,131 277,130 277,129 277,128 277,127 277,126 277,125 277,124 277,123 277,122 277,122 277,121 278,121 278,120 278,119 278,119 278,119 278,119 278,119 278,118 278,118 278,118 278,119 278,119 278,119 279,119 279,119 279,119 279,119 279,120 279,120 279,120 279,120 279,120 279,120 279,120 279,121 279,121 280,121 280,121 280,122 280,123 280,124 280,124 280,125 280,126 280,127 280,128 280,128 280,128 280,128 281,128 281,128 281,128 281,128 281,128 281,128 281,128 281,128 281,127 281,127 281,126 281,127 281,127 282,127 282,126 282,124 282,122 282,121 282,120 282,119 282,118 282,118 282,117 282,117 282,116 282,116 283,116 283,115 283,115 283,115 283,115 283,114 283,114 283,114 283,114 283,113 283,113 283,113 283,112 284,112 284,112 284,111 284,111 284,110 284,110 284,110 284,109 284,109 284,109 284,108 284,108 284,107 285,107 285,107 285,106 285,105 285,105 285,104 285,104 285,103 285,103 285,103 285,103 285,103 285,103 286,104 286,104 286,104 286,104 286,104 286,104 286,104 286,104 286,103 286,103 286,103 286,103 286,102 287,102 287,102 287,101 287,101 287,101 287,101 287,100 287,100 287,100 287,100 287,101 287,100 287,100 288,100 288,100 288,100 288,100 288,100 288,100 288,99 288,99 288,99 288,99 288,98 288,98 288,98 289,98 289,97 289,97 289,97 289,96 289,96 289,95 289,95 289,95 289,94 289,94 289,94 289,93 290,93 290,93 290,93 290,93 290,93 290,93 290,93 290,93 290,93 290,93 290,93 290,93 290,94 291,94 291,94 291,94 291,95 291,95 291,95 291,95 291,96 291,96 291,96 291,96 291,97 291,97 292,97 292,98 292,98 292,99 292,99 292,99 292,100 292,101 292,101 292,102 292,103 292,104 292,105 293,105 293,106 293,108 293,110 293,112 293,113 293,114 293,114 293,116 293,117 293,119 293,121 293,122 294,124 294,126 294,128 294,129 294,130 294,131 294,133 294,134 294,135 294,136 294,137 294,138 294,139 295,140 295,140 295,140 295,141 295,143 295,145 295,147 295,149 295,150 295,151 295,152 295,153 295,154 296,155 296,157 296,158 296,158 296,159 296,159 296,159 296,159 296,160 296,160 296,160 296,160 296,160 297,160 297,160 297,159 297,158 297,157 297,156 297,155 297,153 297,151 297,151 297,150 297,150 297,150 298,150 298,150 298,149 298,149 298,149 298,149 298,150 298,149 298,149 298,149 298,149 298,149 298,148 299,148 299,148 299,148 299,148 299,148 299,148 299,148 299,148 299,148 299,147 299,147 299,147 299,146 300,144 300,143 300,143 300,142 300,141 300,140 300,139 300,139 300,139 300,140 300,140 300,140 300,140 301,140 301,141 301,141 301,141 301,142 301,142 301,142 301,143 301,143 301,143 301,143 301,143 301,143 302,143 302,143 302,143 302,143 302,143 302,143 302,143 302,143 302,143 302,144 302,144 302,145 302,146 303,147 303,148 303,150 303,151 303,153 303,154 303,156 303,158 303,160 303,162 303,164 303,165 303,167 304,169 304,170 304,172 304,174 304,176 304,178 304,179 304,181 304,182 304,183 304,184 304,186 304,187 305,188 305,188 305,189 305,189 305,189 305,190 305,190 305,190 305,191 305,191 305,192 305,193 305,194 306,195 306,197 306,198 306,199 306,201 306,202 306,203 306,204 306,206 306,206 306,207 306,208 306,209 307,210 307,210 307,211 307,211 307,212 307,212 307,213 307,213 307,213 307,214 307,214 307,214 307,215 308,216 308,216 308,217 308,217 308,218 308,218 308,219 308,219 308,220 308,220 308,221 308,221 308,222 309,222 309,222 309,223 309,223 309,223 309,224 309,224 309,224 309,225 309,225 309,225 309,225 309,225 310,226 310,226 310,226 310,226 310,226 310,227 310,227 310,228 310,229 310,229 310,230 310,231 310,232 311,233 311,234 311,234 311,235 311,237 311,238 311,239 311,240 311,242 311,244 311,246 311,247 311,248 312,250 312,251 312,252 312,251 312,251 312,251 312,250 312,250 312,250 312,249 312,249 312,250 312,250 313,250 313,250 313,249 313,249 313,248 313,248 313,247 313,247 313,247 313,246 313,246 313,245 313,245 314,244 314,243 314,242 314,242 314,240 314,239 314,238 314,237 314,236 314,235 314,234 314,233 314,232 315,232 315,231 315,230 315,229 315,228 315,227 315,226 315,225 315,224 315,223 315,222 315,221 315,219 316,218 316,217 316,216 316,215 316,214 316,213 316,213 316,212 316,212 316,211 316,211 316,211 316,211 317,211 317,211 317,210 317,210 317,210 317,210 317,210 317,210 317,209 317,209 317,208 317,208 317,207 318,207 318,206 318,205 318,204 318,204 318,203 318,202 318,201 318,200 318,199 318,198 318,197 318,195 319,194 319,192 319,191 319,191 319,191 319,191 319,192 319,191 319,191 319,192 319,191 319,190 319,189 320,188 320,187 320,186 320,186 320,186 320,186 320,185 320,184 320,184 320,185 320,184 320,184 320,184 321,184 321,184 321,183 321,182 321,182 321,181 321,179 321,179 321,179 321,178 321,176 321,175 321,174 322,174 322,175 322,176 322,177 322,176 322,176 322,175 322,175 322,174 322,174 322,174 322,174 322,173 323,173 323,172 323,171 323,171 323,170 323,169 323,168 323,168 323,167 323,166 323,165 323,164 323,163 324,161 324,160 324,158 324,157 324,155 324,154 324,154 324,153 324,153 324,152 324,151 324,149 324,148 325,146 325,145 325,144 325,143 325,141 325,140 325,139 325,137 325,136 325,135 325,134 325,133 325,131 326,130 326,128 326,127 326,126 326,126 326,126 326,124 326,122 326,121 326,120 326,119 326,119 326,118 327,118 327,117 327,116 327,116 327,115 327,114 327,113 327,112 327,110 327,109 327,107 327,105 327,105 328,105 328,104 328,104 328,104 328,104 328,103 328,103 328,103 328,103 328,103 328,102 328,102 328,102 329,102 329,101 329,101 329,101 329,100 329,100 329,100 329,99 329,99 329,98 329,98 329,97 329,96 330,96 330,95 330,94 330,93 330,92 330,91 330,91 330,90 330,89 330,88 330,88 330,87 330,86 331,85 331,85 331,84 331,84 331,83 331,83 331,82 331,82 331,81 331,81 331,81 331,80 331,80 332,80 332,79 332,79 332,79 332,79 332,79 332,78 332,78 332,78 332,78 332,78 332,78 332,78 333,77 333,77 333,77 333,77 333,77 333,76 333,76 333,75 333,75 333,74 333,74 333,73 333,73 334,73 334,73 334,73 334,73 334,73 334,73 334,74 334,74 334,74 334,75 334,75 334,76 334,76 335,76 335,77 335,77 335,77 335,77 335,76 335,77 335,77 335,78 335,79 335,80 335,80 335,81 336,82 336,83 336,83 336,84 336,85 336,85 336,85 336,86 336,86 336,86 336,86 336,87 336,87 337,87 337,88 337,89 337,90 337,91 337,92 337,93 337,94 337,96 337,97 337,98 337,99 337,100 338,101 338,102 338,103 338,104 338,104 338,104 338,105 338,105 338,105 338,105 338,105 338,106 338,106 339,106 339,106 339,106 339,106 339,106 339,106 339,106 339,106 339,106 339,106 339,106 339,106 339,106 340,106 340,106 340,106 340,106 340,106 340,107 340,107 340,107 340,107 340,107 340,107 340,106 340,105 341,104 341,103 341,103 341,103 341,103 341,102 341,102 341,102 341,101 341,101 341,101 341,100 342,100 342,99 342,99 342,99 342,98 342,98 342,97 342,96 342,96 342,96 342,96 342,97 342,97 343,97 343,96 343,95 343,94 343,93 343,92 343,91 343,90 343,90 343,90 343,90 343,90 343,90 344,90 344,90 344,90 344,89 344,89 344,89 344,89 344,89 344,89 344,89 344,89 344,89 344,89 345,89 345,89 345,89 345,89 345,90 345,90 345,91 345,92 345,93 345,94 345,95 345,97 345,98 346,99 346,100 346,101 346,102 346,102 346,103 346,103 346,102 346,102 346,102 346,101 346,100 346,99 347,98 347,98 347,97 347,97 347,97 347,97 347,97 347,97 347,97 347,97 347,97 347,97 347,97 348,97 348,97 348,97 348,97 348,97 348,97 348,97 348,97 348,97 348,97 348,97 348,97 348,97 349,97 349,97 349,97 349,95 349,94 349,93 349,91 349,90 349,88 349,87 349,87 349,87 349,87 350,86 350,85 350,85 350,85 350,84 350,84 350,83 350,83 350,83 350,82 350,82 350,82 350,81 351,80 351,79 351,79 351,78 351,77 351,76 351,75 351,74 351,73 351,73 351,73 351,73 351,73 352,74 352,74 352,74 352,74 352,74 352,74 352,74 352,74 352,74 352,74 352,74 352,74 352,74 353,74 353,74 353,74 353,74 353,74 353,74 353,74 353,74 353,74 353,74 353,74 353,74 353,74 354,74 354,74 354,75 354,75 354,75 354,75 354,76 354,76 354,76 354,77 354,77 354,77 354,77 355,78 355,78 355,78 355,78 355,78 355,78 355,78 355,79 355,79 355,79 355,79 355,79 355,79 356,79 356,79 356,79 356,79 356,79 356,79 356,79 356,80 356,80 356,80 356,80 356,80 356,80 357,81 357,81 357,81 357,81 357,81 357,81 357,82 357,82 357,82 357,82 357,82 357,82 357,83 358,83 358,83 358,83 358,83 358,82 358,82 358,81 358,80 358,79 358,79 358,80 358,81 358,83 359,84 359,85 359,85 359,86 359,87 359,88 359,88 359,89 359,90 359,90 359,91 359,92 359,92 360,92 360,92 360,92 360,92 360,92 360,92 360,92 360,91 360,91 360,91 360,91 360,91 360,92 361,92 361,92 361,92 361,92 361,92 361,92 361,92 361,92 361,92 361,91 361,91 361,91 361,91 362,91 362,91 362,90 362,90 362,90 362,89 362,89 362,89 362,89 362,89 362,88 362,88 362,88 363,88 363,87 363,87 363,87 363,86 363,86 363,86 363,86 363,85 363,85 363,84 363,84 363,83 364,83 364,83 364,82 364,82 364,81 364,81 364,81 364,80 364,80 364,80 364,80 364,79 364,79 365,79 365,79 365,79 365,79 365,79 365,79 365,79 365,79 365,79 365,80 365,80 365,80 365,80 366,81 366,81 366,81 366,81 366,81 366,82 366,82 366,82 366,82 366,83 366,83 366,84 366,84 367,84 367,84 367,84 367,85 367,85 367,85 367,85 367,85 367,85 367,86 367,86 367,86 367,86 368,86 368,87 368,87 368,87 368,87 368,87 368,88 368,88 368,88 368,88 368,88 368,88 368,88 369,88 369,88 369,88 369,88 369,88 369,88 369,87 369,87 369,87 369,87 369,87 369,86 369,86 370,86 370,86 370,86 370,86 370,86 370,86 370,86 370,87 370,87 370,87 370,88 370,88 370,88 371,89 371,89 371,89 371,90 371,90 371,91 371,91 371,91 371,92 371,92 371,92 371,92 371,93 372,93 372,93 372,94 372,94 372,95 372,95 372,96 372,96 372,96 372,97 372,97 372,97 372,97 373,96 373,95 373,95 373,95 373,95 373,95 373,95 373,95 373,95 373,95 373,95 373,95 373,95 374,95 374,95 374,95 374,95 374,95 374,95 374,96 374,96 374,96 374,96 374,96 374,96 374,97 375,97 375,97 375,98 375,99 375,99 375,100 375,100 375,101 375,102 375,102 375,103 375,104 375,104 376,105 376,105 376,105 376,105 376,105 376,105 376,106 376,105 376,105 376,106 376,106 376,106 376,106 377,107 377,107 377,107 377,108 377,108 377,109 377,109 377,109 377,110 377,110 377,111 377,111 377,111 378,112 378,112 378,112 378,111 378,110 378,110 378,109 378,109 378,108 378,107 378,106 378,106 378,105 379,105 379,105 379,105 379,105 379,105 379,105 379,105 379,105 379,105 379,106 379,106 379,106 379,106 380,106 380,106 380,106 380,106 380,106 380,106 380,106 380,106 380,106 380,107 380,108 380,108 380,109 381,109 381,110 381,110 381,109 381,109 381,108 381,108 381,108 381,107 381,106 381,106 381,106 381,107 382,107 382,107 382,107 382,107 382,107 382,107 382,107 382,107 382,107 382,107 382,107 382,107 382,107 383,107 383,108 383,109 383,109 383,109 383,110 383,110 383,111 383,111 383,112 383,113 383,113 383,114 384,114 384,115 384,115 384,116 384,117 384,117 384,118 384,118 384,119 384,119 384,120 384,121 384,121 385,122 385,122 385,123 385,124 385,124 385,125 385,125 385,126 385,127 385,128 385,128 385,128 385,128 386,128 386,128 386,128 386,128 386,128 386,128 386,128 386,127 386,127 386,126 386,126 386,126 386,125 387,125 387,125 387,125 387,125 387,124 387,124 387,124 387,123 387,123 387,123 387,122 387,122 387,122 388,122 388,121 388,121 388,121 388,120 388,120 388,119 388,119 388,119 388,118 388,118 388,117 388,117 389,117 389,116 389,116 389,115 389,115 389,115 389,114 389,114 389,113 389,113 389,113 389,112 389,112 390,112 390,111 390,111 390,111 390,110 390,110 390,110 390,110 390,110 390,110 390,110 390,111 390,110 391,110 391,110 391,110 391,110 391,110 391,109 391,109 391,109 391,109 391,108 391,108 391,108 391,108 392,107 392,107 392,107 392,107 392,107 392,107 392,107 392,107 392,107 392,107 392,107 392,107 392,108 393,108 393,108 393,108 393,108 393,108 393,107 393,107 393,106 393,105 393,105 393,104 393,103 393,103 394,102 394,102 394,102 394,102 394,101 394,101 394,100 394,100 394,100 394,100 394,100 394,100 394,99 395,99 395,98 395,98 395,98 395,97 395,97 395,96 395,96 395,96 395,96 395,96 395,96 395,96 396,96 396,96 396,96 396,96 396,96 396,96 396,96 396,96 396,96 396,96 396,96 396,96 396,96 397,96 397,96 397,96 397,97 397,97 397,97 397,98 397,99 397,99 397,100 397,100 397,100 397,101 398,101 398,102 398,102 398,102 398,103 398,103 398,102 398,102 398,102 398,102 398,102 398,103 398,103 399,103 399,103 399,104 399,104 399,105 399,105 399,105 399,106 399,106 399,106 399,107 399,107 399,108 400,108 400,109 400,109 400,110 400,110 400,111 400,111 400,112 400,112 400,112 400,112 400,112 400,113 401,113 401,114 401,114 401,114 401,114 401,115 401,115 401,115 401,115 401,115 401,115 401,115 401,115 402,116 402,116 402,117 402,117 402,118 402,118 402,119 402,119 402,120 402,120 402,120 402,120 402,120 403,121 403,121 403,121 403,121 403,121 403,122 403,122 403,122 403,123 403,123 403,123 403,123 403,123 404,123 404,123 404,123 404,124 404,124 404,125 404,125 404,126 404,127 404,128 404,129 404,130 404,131 405,131 405,131 405,131 405,131 405,131 405,131 405,132 405,132 405,132 405,132 405,133 405,134 405,135 406,136 406,136 406,137 406,138 406,138 406,138 406,138 406,138 406,138 406,137 406,136 406,135 406,133 407,133 407,133 407,133 407,133 407,133 407,133 407,132 407,132 407,132 407,132 407,132 407,132 407,132 408,132 408,131 408,131 408,131 408,131 408,131 408,131 408,131 408,131 408,131 408,131 408,131 408,131 409,132 409,133 409,133 409,134 409,135 409,135 409,136 409,136 409,137 409,137 409,138 409,138 409,138 410,138 410,139 410,139 410,139 410,139 410,139 410,139 410,139 410,140 410,140 410,140 410,140 410,140 411,140 411,140 411,140 411,140 411,140 411,141 411,141 411,141 411,141 411,141 411,141 411,141 411,141 412,141 412,141 412,140 412,140 412,140 412,140 412,140 412,140 412,140 412,140 412,140 412,140 412,140 413,140 413,140 413,140 413,140 413,140 413,140 413,140 413,140 413,140 413,140 413,140 413,139 413,139 414,138 414,138 414,137 414,136 414,136 414,135 414,135 414,134 414,134 414,134 414,133 414,133 414,132 415,132 415,132 415,132 415,131 415,131 415,131 415,131 415,131 415,130 415,130 415,130 415,130 415,130 416,129 416,129 416,128 416,128 416,128 416,128 416,128 416,128 416,128 416,129 416,129 416,129 416,129 417,129 417,129 417,129 417,129 417,129 417,129 417,129 417,129 417,129 417,129 417,129 417,129 417,129 418,129 418,129 418,130 418,130 418,130 418,131 418,132 418,132 418,133 418,134 418,134 418,134 418,134 419,134 419,134 419,134 419,134 419,134 419,134 419,134 419,134 419,134 419,134 419,134 419,134 419,134 420,134 420,134 420,134 420,134 420,135 420,135 420,135 420,135 420,135 420,135 420,136 420,137 420,138 421,139 421,139 421,140 421,141 421,141 421,142 421,142 421,143 421,143 421,144 421,144 421,145 421,146 422,147 422,148 422,149 422,149 422,150 422,151 422,151 422,152 422,152 422,153 422,153 422,153 422,154 423,154 423,154 423,154 423,154 423,154 423,154 423,154 423,155 423,155 423,155 423,155 423,155 423,155 424,155 424,155 424,155 424,155 424,155 424,155 424,155 424,155 424,155 424,155 424,155 424,155 424,155 425,155 425,155 425,155 425,155 425,155 425,155 425,155 425,155 425,155 425,155 425,155 425,155 425,155 426,155 426,155 426,155 426,156 426,156 426,156 426,156 426,156 426,156 426,156 426,156 426,157 426,157 427,157 427,157 427,157 427,158 427,158 427,158 427,158 427,158 427,158 427,158 427,158 427,158 427,158 428,158 428,158 428,158 428,158 428,158 428,158 428,157 428,157 428,157 428,157 428,157 428,156 428,155 429,154 429,154 429,153 429,152 429,151 429,151 429,150 429,149 429,149 429,148 429,148 429,147 429,147 430,146 430,146 430,145 430,145 430,144 430,144 430,144 430,143 430,143 430,143 430,142 430,142 430,142 431,142 431,142 431,141 431,141 431,141 431,141 431,141 431,141 431,140 431,140 431,140 431,140 431,139 432,139 432,138 432,138 432,138 432,137 432,137 432,136 432,136 432,135 432,135 432,134 432,133 432,133 433,132 433,132 433,131 433,131 433,130 433,130 433,129 433,129 433,128 433,128 433,127 433,127 433,126 434,126 434,125 434,124 434,124 434,123 434,123 434,123 434,123 434,122 434,122 434,122 434,122 434,122 435,122 435,122 435,122 435,122 435,122 435,122 435,122 435,122 435,122 435,122 435,122 435,122 435,122 436,122 436,121 436,121 436,121 436,121 436,121 436,121 436,121 436,121 436,121 436,121 436,121 436,121 437,122 437,122 437,123 437,123 437,124 437,124 437,125 437,125 437,126 437,126 437,126 437,127 437,127 438,127 438,128 438,128 438,128 438,128 438,129 438,129 438,129 438,129 438,129 438,130 438,130 438,131 439,131 439,132 439,132 439,133 439,134 439,134 439,135 439,136 439,136 439,137 439,138 439,138 439,139 440,139 440,140 440,140 440,140 440,141 440,142 440,142 440,143 440,143 440,143 440,144 440,144 440,144 441,145 441,145 441,145 441,146 441,146 441,146 441,146 441,147 441,147 441,147 441,147 441,147 441,147 442,147 442,147 442,147 442,148 442,148 442,148 442,149 442,149 442,150 442,150 442,151 442,151 442,151 443,152 443,152 443,152 443,152 443,152 443,153 443,153 443,153 443,154 443,154 443,154 443,154 443,154 444,154 444,154 444,155 444,155 444,155 444,155 444,154 444,154 444,154 444,154 444,154 444,154 444,154 445,154 445,154 445,153 445,153 445,153 445,153 445,153 445,153 445,153 445,153 445,152 445,152 445,152 446,152 446,151 446,151 446,151 446,151 446,150 446,150 446,150 446,150 446,149 446,149 446,149 446,148 447,148 447,148 447,147 447,147 447,147 447,147 447,147 447,147 447,147 447,147 447,147 447,146 447,146 448,146 448,146 448,145 448,145 448,145 448,145 448,145 448,144 448,144 448,144 448,144 448,144 448,144 449,143 449,143 449,143 449,143 449,143 449,142 449,142 449,142 449,141 449,141 449,141 449,141 449,141 450,140 450,140 450,140 450,140 450,139 450,139 450,139 450,139 450,139 450,139 450,139 450,139 450,139 451,139 451,139 451,138 451,138 451,138 451,139 451,139 451,139 451,139 451,139 451,138 451,138 451,138 452,138 452,138 452,138 452,137 452,137 452,137 452,137 452,137 452,136 452,136 452,136 452,136 452,135 453,135 453,135 453,134 453,134 453,133 453,133 453,132 453,132 453,132 453,132 453,131 453,132 453,132 454,132 454,132 454,132 454,132 454,132 454,132 454,133 454,133 454,133 454,133 454,133 454,133 454,133 455,133 455,134 455,135 455,135 455,136 455,136 455,136 455,137 455,137 455,138 455,138 455,138 455,139 456,139 456,139 456,140 456,140 456,140 456,140 456,141 456,141 456,141 456,141 456,142 456,142 456,142 457,142 457,142 457,142 457,142 457,142 457,142 457,141 457,141 457,141 457,140 457,140 457,140 457,140 458,140 458,141 458,141 458,141 458,141 458,141 458,141 458,141 458,142 458,142 458,142 458,142 458,142 459,142 459,141 459,141 459,141 459,141 459,141 459,141 459,141 459,141 459,141 459,142 459,142 459,142 460,142 460,143 460,143 460,143 460,143 460,144 460,144 460,144 460,144 460,144 460,144 460,144 460,144 461,144 461,144 461,144 461,143 461,143 461,143 461,143 461,142 461,142 461,142 461,142 461,141 461,141 462,141 462,141 462,140 462,140 462,140 462,140 462,140 462,140 462,140 462,140 462,140 462,140 462,140 463,141 463,141 463,141 463,142 463,142 463,143 463,143 463,143 463,144 463,144 463,144 463,144 463,145 464,145 464,145 464,145 464,146 464,146 464,146 464,146 464,147 464,147 464,147 464,147 464,147 464,147 465,147 465,147 465,148 465,148 465,148 465,148 465,148 465,149 465,149 465,149 465,149 465,149 465,149 466,149 466,150 466,150 466,150 466,150 466,150 466,150 466,150 466,150 466,150 466,151 466,151 466,151 467,151 467,151 467,151 467,151 467,151 467,150 467,151 467,151 467,150 467,150 467,150 467,150 467,149 468,149 468,149 468,149 468,148 468,148 468,148 468,148 468,147 468,147 468,147 468,147 468,146 468,146 469,146 469,146 469,146 469,145 469,145 469,145 469,145 469,145 469,145 469,145 469,144 469,144 469,144 470,144 470,144 470,144 470,144 470,144 470,144 470,144 470,144 470,144 470,144 470,144 470,144 470,144 471,144 471,144 471,144 471,144 471,144 471,145 471,145 471,145 471,145 471,145 471,145 471,145 471,145 472,145 472,145 472,145 472,145 472,145 472,145 472,145 472,145 472,146 472,146 472,146 472,146 472,146 473,146 473,146 473,146 473,146 473,147 473,147 473,147 473,147 473,147 473,147 473,147 473,147 473,147 474,148 474,148 474,148 474,148 474,148 474,148 474,148 474,148 474,149 474,149 474,149 474,149 474,149 475,149 475,149 475,150 475,150 475,150 475,150 475,150 475,150 475,151 475,151 475,151 475,152 475,152 476,152 476,152 476,152 476,152 476,152 476,152 476,152 476,152 476,152 476,152 476,152 476,152 476,152 477,152 477,152 477,152 477,152 477,152 477,152 477,152 477,152 477,152 477,152 477,152 477,152 477,152 478,152 478,151 478,151 478,151 478,151 478,150 478,150 478,150 478,150 478,150 478,150 478,150 478,150 479,150 479,150 479,149 479,149 479,149 479,149 479,149 479,150 479,150 479,150 479,151 479,151 479,151 480,152 480,152 480,152 480,152 480,153 480,153 480,153 480,153 480,153 480,154 480,154 480,154 480,154 481,154 481,154 481,154 481,154 481,154 481,154 481,154 481,154 481,154 481,154 481,154 481,154 481,154 482,154 482,154 482,153 482,153 482,153 482,152 482,152 482,152 482,151 482,151 482,151 482,150 482,150 483,149 483,149 483,149 483,149 483,149 483,149 483,149 483,149 483,148 483,149 483,149 483,149 483,149 484,149 484,149 484,149 484,149 484,148 484,148 484,148 484,148 484,148 484,148 484,148 484,149 484,149 485,149 485,149 485,149 485,150 485,150 485,150 485,151 485,151 485,151 485,151 485,151 485,151 485,150 486,150 486,150 486,150 486,150 486,150 486,150 486,149 486,150 486,150 486,150 486,150 486,150 486,150 487,150 487,150 487,150 487,150 487,150 487,150 487,151 487,151 487,151 487,151 487,151 487,151 487,151 488,151 488,151 488,151 488,151 488,151 488,150 488,150 488,150 488,150 488,150 488,150 488,150 488,150 489,150 489,150 489,150 489,151 489,151 489,151 489,152 489,152 489,152 489,152 489,152 489,153 489,154 490,154 490,155 490,155 490,155 490,156 490,156 490,156 490,156 490,156 490,157 490,157 490,157 490,157 491,157 491,157 491,157 491,157 491,157 491,157 491,156 491,156 491,156 491,156 491,156 491,156 491,156 492,157 492,157 492,157 492,157 492,157 492,157 492,157 492,157 492,157 492,158 492,157 492,158 492,158 493,158 493,158 493,159 493,159 493,159 493,160 493,160 493,160 493,160 493,160 493,161 493,161 493,161 494,161 494,161 494,161 494,162 494,162 494,162 494,162 494,162 494,162 494,162 494,162 494,163 494,163 495,163 495,163 495,163 495,163 495,163 495,163 495,163 495,164 495,164 495,164 495,164 495,164 495,164 496,165 496,165 496,165 496,165 496,165 496,165 496,165 496,165 496,165 496,165 496,165 496,165 496,165 497,165 497,165 497,165 497,165 497,165 497,165 497,165 497,165 497,165 497,165 497,165 497,166 497,166 498,166 498,166 498,166 498,166 498,166 498,166 498,166 498,166 498,166 498,166 498,166 498,166 498,166 499,166 499,166 499,166 499,166 499,166 499,166 499,166 499,166 499,166 499,166 499,166 499,166 499,166 500,166 500,166 500,166 500,166 500,166 500,166 500,166 500,166 500,166 500,166 500,166 500,166 500,166 501,166 501,166 501,166 501,166 501,166 501,166 501,166 501,166 501,166 501,165 501,165 501,165 501,165 502,165 502,165 502,165 502,165 502,165 502,165 502,165 502,165 502,165 502,165 502,165 502,165 502,165 503,165 503,165 503,165 503,165 503,164 503,164 503,164 503,164 503,164 503,164 503,164 503,163 503,163 504,163 504,163 504,163 504,163 504,163 504,162 504,162 504,162 504,162 504,162 504,162 504,162 504,162 505,162 505,162 505,162 505,162 505,162 505,161 505,161 505,161 505,161 505,161 505,161 505,161 505,161 506,161 506,160 506,160 506,160 506,160 506,160 506,159 506,159 506,159 506,159 506,159 506,159 506,159 507,158 507,158 507,158 507,158 507,158 507,158 507,158 507,157 507,157 507,157 507,157 507,157 507,157 508,157 508,157 508,157 508,157 508,156 508,156 508,156 508,156 508,156 508,156 508,156 508,156 508,156 509,155 509,155 509,155 509,155 509,155 509,155 509,155 509,155 509,155 509,155 509,155 509,155 509,155 510,155 510,155 510,155 510,155 510,155 510,155 510,155 510,155 510,155 510,155 510,155 510,155 510,155 511,155 511,155 511,155 511,155 511,155 511,155 511,156 511,156 511,156 511,156 511,156 511,156 511,157 512,157 512,157 512,157 512,157 512,157 512,157 512,157 512,157 512,156 512,156 512,156 512,156 512,156 513,156 513,155 513,155 513,155 513,155 513,155 513,155 513,155 513,155 513,155 513,155 513,155 513,155 514,156 514,156 514,156 514,156 514,156 514,156 514,156 514,156 514,156 514,156 514,156 514,157 514,156 515,156 515,156 515,156 515,156 515,156 515,156 515,156 515,156 515,156 515,156 515,156 515,156 515,156 516,156 516,156 516,156 516,155 516,155 516,155 516,155 516,154 516,154 516,154 516,154 516,154 516,154 517,154 517,154 517,154 517,154 517,155 517,155 517,155 517,155 517,155 517,155 517,155 517,155 517,154 518,154 518,154 518,154 518,154 518,154 518,153 518,153 518,153 518,153 518,153 518,153 518,153 518,153 519,153 519,153 519,153 519,152 519,152 519,152 519,152 519,151 519,151 519,151 519,151 519,151 519,151 520,151 520,151 520,151 520,150 520,150 520,150 520,150 520,150 520,149 520,149 520,149 520,148 520,148 521,147 521,147 521,147 521,146 521,146 521,146 521,145 521,145 521,145 521,144 521,144 521,144 521,143 522,143 522,143 522,143 522,142 522,142 522,142 522,142 522,142 522,143 522,143 522,143 522,143 522,143 523,143 523,143 523,143 523,143 523,144 523,144 523,144 523,145 523,145 523,145 523,145 523,146 523,146 524,146 524,146 524,147 524,147 524,147 524,147 524,147 524,147 524,147 524,147 524,147 524,147 524,147 525,147 525,146 525,146 525,146 525,146 525,146 525,146 525,146 525,145 525,145 525,145 525,145 525,146 526,146 526,146 526,146 526,146 526,146 526,146 526,146 526,146 526,146 526,146 526,146 526,146 526,146 527,146 527,146 527,146 527,146 527,146 527,146 527,146 527,146 527,146 527,146 527,146 527,146 527,146 528,146 528,146 528,146 528,146 528,146 528,146 528,146 528,146 528,146 528,146 528,146 528,146 528,146 529,146 529,146 529,146 529,146 529,146 529,146 529,146 529,145 529,145 529,145 529,145 529,145 529,144 530,144 530,144 530,143 530,143 530,143 530,143 530,142 530,142 530,142 530,141 530,141 530,141 530,140 531,140 531,140 531,140 531,139 531,139 531,139 531,139 531,138 531,138 531,138 531,138 531,138 531,137 532,137 532,137 532,137 532,137 532,137 532,136 532,136 532,136 532,136 532,136 532,136 532,136 532,136 533,136 533,136 533,136 533,136 533,136 533,136 533,136 533,136 533,136 533,136 533,136 533,136 533,136 534,136 534,136 534,136 534,136 534,136 534,136 534,137 534,137 534,137 534,137 534,137 534,137 534,137 535,137 535,137 535,137 535,137 535,137 535,137 535,137 535,137 535,137 535,137 535,137 535,136 535,136 536,137 536,137 536,136 536,136 536,136 536,136 536,137 536,137 536,137 536,137 536,137 536,137 536,138 537,138 537,138 537,138 537,139 537,139 537,139 537,139 537,139 537,139 537,139 537,139 537,139 537,139 538,139 538,139 538,139 538,139 538,139 538,139 538,139 538,139 538,139 538,139 538,139 538,140 538,140 539,140 539,139 539,139 539,139 539,139 539,139 539,139 539,139 539,139 539,139 539,138 539,138 539,138 540,138 540,138 540,138 540,137 540,137 540,137 540,137 540,137 540,136 540,136 540,136 540,136 540,136 541,136 541,136 541,136 541,135 541,135 541,135 541,135 541,135 541,135 541,135 541,134 541,134 541,134 542,134 542,134 542,134 542,134 542,134 542,134 542,134 542,134 542,134 542,134 542,134 542,134 542,134 543,133 543,133 543,133 543,133 543,133 543,133 543,133 543,134 543,134 543,134 543,134 543,134 543,134 544,134 544,134 544,134 544,134 544,134 544,134 544,134 544,134 544,134 544,134 544,134 544,134 544,134 545,134 545,134 545,134 545,133 545,133 545,133 545,133 545,133 545,133 545,133 545,132 545,132 545,132 546,132 546,132 546,131 546,131 546,131 546,130 546,130 546,130 546,129 546,129 546,128 546,128 546,127 547,127 547,126 547,126 547,125 547,125 547,124 547,124 547,123 547,123 547,123 547,122 547,122 547,122 548,121 548,121 548,120 548,120 548,120 548,120 548,119 548,119 548,119 548,119 548,118 548,118 548,118 549,117 549,117 549,117 549,116 549,116 549,116 549,115 549,115 549,115 549,114 549,114 549,114 549,114 550,113 550,113 550,113 550,113 550,113 550,113 550,112 550,112 550,112 550,112 550,112 550,112 551,111 551,111 551,111 551,111 551,110 551,110 551,110 551,110 551,110 551,110 551,110 551,110 551,110 552,110 552,110 552,110 552,110 552,111 552,111 552,111 552,112 552,112 552,112 552,112 552,112 552,112 553,113 553,113 553,113 553,113 553,114 553,114 553,115 553,115 553,116 553,116 553,116 553,117 553,117 554,117 554,117 554,117 554,118 554,118 554,118 554,118 554,118 554,119 554,119 554,119 554,120 554,120 555,120 555,120 555,120 555,121 555,121 555,121 555,121 555,121 555,122 555,122 555,122 555,122 555,123 556,123 556,123 556,123 556,123 556,123 556,123 556,123 556,123 556,123 556,124 556,124 556,124 556,124 557,124 557,124 557,124 557,124 557,124 557,125 557,125 557,125 557,125 557,126 557,126 557,126 557,126 558,126 558,126 558,126 558,125 558,125 558,125 558,124 558,124 558,124 558,124 558,124 558,123 558,123 559,123 559,123 559,123 559,123 559,123 559,123 559,123 559,123 559,123 559,123 559,123 559,123 559,123 560,123 560,123 560,122 560,122 560,122 560,122 560,122 560,122 560,122 560,121 560,121 560,121 560,121 561,120 561,120 561,120 561,120 561,120 561,120 561,120 561,119 561,119 561,119 561,119 561,119 561,119 562,119 562,119 562,119 562,119 562,118 562,118 562,118 562,118 562,118 562,117 562,117 562,117 562,117 563,117 563,117 563,117 563,117 563,117 563,117 563,116 563,116 563,116 563,116 563,116 563,116 563,116 564,116 564,116 564,116 564,117 564,117 564,117 564,117 564,116 564,116 564,115 564,115 564,115 564,115 565,114 565,114 565,114 565,114 565,114 565,113 565,113 565,113 565,113 565,113 565,113 565,113 565,113 566,113 566,113 566,113 566,113 566,113 566,113 566,113 566,113 566,113 566,113 566,113 566,114 566,114 567,114 567,114 567,114 567,114 567,114 567,114 567,114 567,115 567,115 567,115 567,115 567,115 567,115 568,115 568,116 568,116 568,116 568,116 568,116 568,116 568,117 568,117 568,117 568,117 568,117 568,117 569,117 569,117 569,117 569,117 569,117 569,117 569,117 569,117 569,117 569,117 569,117 569,117 569,117 570,117 570,117 570,116 570,117 570,117 570,117 570,117 570,117 570,117 570,117 570,117 570,117 570,117 571,117 571,117 571,117 571,116 571,116 571,116 571,116 571,116 571,116 571,116 571,116 571,117 571,117 572,117 572,116 572,116 572,116 572,116 572,116 572,115 572,115 572,115 572,115 572,114 572,114 572,114 573,113 573,113 573,113 573,113 573,113 573,113 573,113 573,113 573,113 573,113 573,113 573,113 573,113 574,113 574,114 574,114 574,114 574,114 574,115 574,115 574,115 574,115 574,115 574,115 574,115 574,116 575,116 575,116 575,117 575,117 575,117 575,116 575,115 575,114 575,113 575,113 575,113 575,113 575,113 576,112 576,112 576,112 576,112 576,112 576,112 576,112 576,112 576,112 576,112 576,111 576,111 576,111 577,111 577,111 577,110 577,110 577,110 577,109 577,109 577,108 577,108 577,108 577,107 577,107 577,107 578,106 578,106 578,106 578,106 578,106 578,105 578,105 578,105 578,105 578,105 578,105 578,105 578,105 579,105 579,105 579,105 579,105 579,105 579,105 579,105 579,105 579,105 579,105 579,105 579,105 579,104 580,104 580,105 580,105 580,105 580,105 580,104 580,104 580,104 580,103 580,103 580,103 580,103 580,103 581,103 581,102 581,102 581,102 581,102 581,102 581,102 581,101 581,101 581,101 581,101 581,101 581,100 582,100 582,100 582,100 582,100 582,101 582,101 582,101 582,100 582,100 582,100 582,100 582,100 582,100 583,100 583,100 583,100 583,100 583,100 583,100 583,100 583,100 583,100 583,101 583,100 583,100 583,100 584,100 584,100 584,100 584,100 584,99 584,99 584,99 584,99 584,99 584,98 584,98 584,98 584,98 585,98 585,97 585,97 585,97 585,97 585,97 585,97 585,97 585,97 585,97 585,97 585,96 585,97 586,97 586,97 586,97 586,97 586,97 586,97 586,96 586,96 586,95 586,95 586,95 586,95 586,95 587,95 587,95 587,95 587,95 587,95 587,95 587,95 587,96 587,96 587,96 587,96 587,96 587,97 588,97 588,97 588,97 588,98 588,98 588,98 588,99 588,99 588,99 588,100 588,100 588,100 588,100 589,101 589,101 589,101 589,101 589,102 589,102 589,102 589,103 589,103 589,103 589,103 589,103 589,103 590,103 590,104 590,104 590,104 590,104 590,104 590,104 590,104 590,104 590,104 590,105 590,105 590,105 591,105 591,105 591,106 591,106 591,106 591,107 591,107 591,107 591,108 591,108 591,108 591,108 591,108 592,108 592,108 592,109 592,109 592,109 592,109 592,109 592,109 592,109 592,109 592,109 592,109 592,109 593,110 593,110 593,110 593,110 593,110 593,111 593,111 593,111 593,111 593,111 593,111 593,111 593,111 594,111 594,110 594,110 594,110 594,110 594,110 594,110 594,110 594,110 594,109 594,109 594,109 594,109 595,109 595,109 595,109 595,109 595,109 595,110 595,110 595,110 595,110 595,111 595,112 595,113 595,113 596,113 596,113 596,113 596,112 596,112 596,112 596,112 596,113 596,113 596,113 596,113 596,113 596,113 597,114 597,114 597,114 597,114 597,115 597,115 597,115 597,115 597,116 597,116 597,116 597,117 597,117 598,118 598,118 598,119 598,119 598,119 598,120 598,120 598,121 598,121 598,122 598,122 598,122 598,123 599,123 599,123 599,124 599,124 599,124 599,125 599,125 599,125 599,125 599,125 599,126 599,126 599,126 600,127 600,127 600,127 600,128 600,128 600,129 600,129 600,129 600,129 600,129 600,130 600,130 600,130 601,130 601,130 601,130 601,130 601,129 601,129 601,129 601,129 601,129 601,130 601,130 601,130 601,130 602,130 602,130 602,130 602,131 602,131 602,131 602,131 602,131 602,131 602,131 602,131 602,131 602,131 603,132 603,132 603,132 603,132 603,132 603,133 603,133 603,133 603,133 603,134 603,134 603,134 603,135 604,135 604,135 604,136 604,136 604,136 604,137 604,137 604,137 604,137 604,138 604,138 604,138 604,138 605,138 605,138 605,139 605,139 605,139 605,139 605,140 605,140 605,140 605,141 605,141 605,141 605,142 606,142 606,142 606,143 606,143 606,143 606,143 606,144 606,144 606,144 606,144 606,145 606,145 606,146 607,146 607,146 607,147 607,148 607,148 607,148 607,149 607,149 607,150 607,150 607,150 607,151 607,151 608,151 608,151 608,151 608,151 608,151 608,152 608,152 608,152 608,152 608,152 608,152 608,153 608,153 609,153 609,153 609,153 609,153 609,154 609,154 609,154 609,154 609,155 609,155 609,155 609,155 609,155 610,156 610,156 610,156 610,156 610,156 610,157 610,157 610,157 610,157 610,158 610,158 610,158 610,158 611,158 611,159 611,159 611,159 611,159 611,159 611,159 611,159 611,159 611,159 611,159 611,158 611,158 612,158 612,157 612,157 612,157 612,157 612,156 612,156 612,156 612,156 612,156 612,156 612,156 612,155 613,155 613,155 613,155 613,155 613,155 613,155 613,155 613,155 613,155 613,154 613,154 613,154 613,154 614,154 614,154 614,154 614,154 614,154 614,154 614,154 614,153 614,153 614,153 614,153 614,153 614,153 615,153 615,153 615,153 615,152 615,152 615,152 615,152 615,152 615,152 615,152 615,152 615,152 615,152 616,152 616,152 616,152 616,152 616,152 616,152 616,152 616,152 616,152 616,152 616,152 616,152 616,152 617,152 617,152 617,152 617,152 617,152 617,152 617,152 617,152 617,152 617,152 617,152 617,152 617,152 618,152 618,152 618,152 618,152 618,153 618,153 618,153 618,153 618,153 618,153 618,153 618,153 618,153 619,153 619,153 619,153 619,153 619,154 619,154 619,154 619,154 619,154 619,155 619,155 619,156 619,156 620,157 620,156 620,156 620,156 620,157 620,157 620,157 620,157 620,157 620,157 620,157 620,157 620,157 621,157 621,157 621,157 621,157 621,157 621,157 621,158 621,158 621,158 621,158 621,158 621,158 621,158 622,158 622,158 622,158 622,158 622,158 622,158 622,158 622,158 622,158 622,158 622,158 622,158 622,158 623,158 623,158 623,158 623,157 623,157 623,157 623,157 623,157 623,156 623,156 623,156 623,156 623,155 624,155 624,155 624,155 624,155 624,155 624,155 624,155 624,154 624,154 624,154 624,154 624,154 624,154 625,154 625,154 625,154 625,154 625,154 625,154 625,154 625,154 625,154 625,154 625,154 625,154 625,153 626,153 626,153 626,153 626,153 626,153 626,153 626,153 626,153 626,153 626,153 626,154 626,154 626,154 627,155 627,155 627,155 627,155 627,156 627,156 627,156 627,156 627,156 627,156 627,156 627,156 627,157 628,157 628,157 628,157 628,157 628,157 628,157 628,157 628,157 628,157 628,157 628,158 628,158 628,158 629,158 629,157 629,157 629,157 629,157 629,157 629,157 629,157 629,157 629,157 629,157 629,157 629,157 630,157 630,158 630,158 630,158 630,158 630,158 630,158 630,158 630,158 630,158 630,158 630,158 630,158 631,158 631,159 631,158 631,158 631,158 631,158 631,157 631,157 631,156 631,156 631,156 631,155 631,155 632,155 632,155 632,154 632,154 632,154 632,153 632,153 632,153 632,152 632,152 632,152 632,151 632,151 633,150 633,150 633,150 633,149 633,149 633,148 633,148 633,147 633,147 633,146 633,146 633,146 633,145 634,145 634,145 634,144 634,144 634,143 634,143 634,142 634,142 634,141 634,141 634,140 634,139 634,139 635,138 635,138 635,138 635,138 635,138 635,138 635,138 635,137 635,137 635,137 635,137 635,137 635,137 636,137 636,137 636,137 636,137 636,137 636,137 636,136 636,136 636,136 636,136 636,136 636,136 636,136 637,137 637,137 637,137 637,137 637,138 637,138 637,139 637,139 637,139 637,140 637,140 637,140 637,141 638,141 638,141 638,141 638,141 638,141 638,141 638,141 638,141 638,141 638,141 638,141 638,141 638,142 639,142 639,142 639,142 639,142 639,142 639,142 639,143 639,143 639,143 639,143 639,143 639,143 639,143 640,144 640,144 640,144 640,144 640,144 640,144 640,144 640,144 640,144 640,144 640,144 640,144 640,144 641,144 641,144 641,144 641,144 641,144 641,143 641,143 641,143 641,143 641,143 641,143 641,142 641,142 642,142 642,142 642,141 642,141 642,141 642,141 642,140 642,140 642,140 642,140 642,140 642,140 642,140 643,140 643,139 643,139 643,139 643,139 643,139 643,140 643,140 643,140 643,140 643,141 643,141 643,141 644,142 644,142 644,142 644,142 644,143 644,143 644,143 644,144 644,144 644,144 644,144 644,145 644,145 645,145 645,145 645,145 645,146 645,146 645,146 645,146 645,146 645,146 645,146 645,146 645,146 645,146 646,146 646,146 646,146 646,146 646,146 646,146 646,146 646,146 646,146 646,146 646,146 646,146 646,146 647,146 647,146 647,146 647,146 647,147 647,147 647,147 647,147 647,148 647,148 647,148 647,148 647,148 648,148 648,148 648,149 648,149 648,149 648,149 648,149 648,149 648,150 648,150 648,150 648,150 648,151 649,151 649,151 649,151 649,151 649,152 649,152 649,152 649,152 649,152 649,153 649,153 649,153 649,153 650,153 650,153 650,153 650,153 650,153 650,153 650,153 650,153 650,153 650,153 650,153 650,154 650,154 651,154 651,154 651,154 651,155 651,155 651,156 651,156 651,157 651,157 651,158 651,158 651,158 651,159 652,159 652,159 652,160 652,160 652,161 652,161 652,161 652,161 652,161 652,161 652,161 652,161 652,161 653,161 653,161 653,161 653,161 653,162 653,162 653,162 653,162 653,162 653,162 653,162 653,162 653,162 654,162 654,161 654,161 654,161 654,161 654,160 654,160 654,160 654,160 654,160 654,160 654,160 654,160 655,159 655,159 655,159 655,159 655,159 655,159 655,159 655,159 655,159 655,159 655,159 655,159 655,159 656,159 656,158 656,158 656,158 656,158 656,158 656,158 656,158 656,158 656,157 656,157 656,157 656,157 657,157 657,157 657,157 657,157 657,157 657,156 657,156 657,156 657,156 657,156 657,156 657,156 657,156 658,155 658,155 658,155 658,155 658,155 658,154 658,154 658,154 658,154 658,154 658,153 658,153 658,153 659,153 659,152 659,152 659,152 659,152 659,152 659,151 659,151 659,150 659,150 659,150 659,149 659,149 660,149 660,148 660,148 660,148 660,148 660,148 660,147 660,147 660,147 660,146 660,146 660,146 660,145 661,145 661,145 661,144 661,144 661,144 661,143 661,143 661,143 661,142 661,141 661,141 661,141 661,140 662,140 662,140 662,139 662,139 662,139 662,139 662,138 662,138 662,138 662,137 662,137 662,137 662,137 663,136 663,136 663,136 663,135 663,135 663,134 663,134 663,133 663,132 663,132 663,132 663,131 663,131 664,130 664,130 664,130 664,130 664,130 664,130 664,130 664,130 664,130 664,130 664,130 664,130 664,131 665,131 665,131 665,131 665,132 665,132 665,132 665,133 665,133 665,133 665,133 665,134 665,134 665,134 666,134 666,134 666,134 666,134 666,134 666,134 666,134 666,134 666,134 666,134 666,134 666,134 666,134 667,134 667,134 667,134 667,134 667,134 667,134 667,134 667,134 667,134 667,133 667,133 667,133 667,132 668,132 668,131 668,131 668,131 668,130 668,130 668,130 668,130 668,129 668,129 668,129 668,128 668,128 669,128 669,128 669,128 669,127 669,128 669,128 669,128 669,128 669,129 669,129 669,129 669,129 669,130 670,130 670,130 670,131 670,131 670,131 670,131 670,132 670,132 670,132 670,132 670,133 670,133 670,133 671,133 671,134 671,134 671,134 671,134 671,134 671,134 671,134 671,135 671,135 671,135 671,135 671,135 672,135 672,135 672,135 672,135 672,135 672,134 672,134 672,134 672,134 672,133 672,133 672,133 672,133 673,132 673,132 673,132 673,132 673,131 673,131 673,130 673,130 673,130 673,129 673,129 673,129 673,128 674,128 674,127 674,127 674,127 674,126 674,126 674,126 674,125 674,125 674,125 674,124 674,124 674,124 675,124 675,123 675,123 675,123 675,123 675,123 675,124 675,124 675,124 675,124 675,125 675,125 675,126 676,126 676,126 676,127 676,127 676,127 676,128 676,128 676,128 676,129 676,129 676,129 676,129 676,130 677,130 677,130 677,131 677,131 677,131 677,131 677,131 677,131 677,131 677,131 677,131 677,131 677,131 678,131 678,132 678,132 678,132 678,132 678,132 678,132 678,133 678,133 678,133 678,134 678,134 678,134 679,134 679,135 679,135 679,135 679,135 679,135 679,135 679,135 679,135 679,136 679,136 679,136 679,136 680,136 680,136 680,136 680,136 680,136 680,136 680,136 680,136 680,137 680,137 680,137 680,137 680,137 681,138 681,138 681,138 681,138 681,139 681,139 681,139 681,140 681,140 681,141 681,141 681,141 681,142 682,142 682,142 682,143 682,143 682,143 682,143 682,144 682,144 682,144 682,145 682,145 682,146 682,146 683,147 683,147 683,148 683,148 683,148 683,149 683,149 683,149 683,150 683,150 683,151 683,151 683,151 684,152 684,153 684,154 684,155 684,155 684,155 684,155 684,155 684,155 684,156 684,156 684,156 684,156 685,156 685,156 685,156 685,156 685,157 685,157 685,158 685,158 685,159 685,159 685,160 685,160 685,160 686,161 686,161 686,161 686,162 686,162 686,162 686,162 686,163 686,163 686,163 686,163 686,163 686,163 687,163 687,164 687,164 687,164 687,164 687,164 687,164 687,164 687,164 687,164 687,164 687,164 687,164 688,164 688,163 688,163 688,163 688,163 688,162 688,162 688,162 688,162 688,161 688,162 688,161 688,161 689,161 689,161 689,160 689,160 689,160 689,160 689,159 689,159 689,159 689,159 689,159 689,158 689,158 690,158 690,158 690,158 690,158 690,158 690,159 690,159 690,159 690,159 690,159 690,159 690,159 690,159 691,159 691,159 691,159 691,159 691,159 691,159 691,159 691,159 691,159 691,159 691,159 691,160 691,160 692,160 692,160 692,161 692,161 692,161 692,161 692,162 692,162 692,162 692,163 692,163 692,163 692,164 693,164 693,164 693,164 693,164 693,164 693,164 693,164 693,164 693,164 693,164 693,164 693,164 693,164 694,164 694,164 694,164 694,164 694,164 694,164 694,164 694,165 694,165 694,165 694,165 694,165 694,165 695,166 695,166 695,166 695,167 695,167 695,167 695,167 695,167 695,167 695,167 695,167 695,167 695,167 696,167 696,167 696,167 696,167 696,167 696,167 696,167 696,167 696,167 696,167 696,167 696,167 696,167 697,167 697,167 697,167 697,167 697,167 697,167 697,168 697,168 697,168 697,169 697,169 697,169 697,170 698,170 698,170 698,171 698,171 698,171 698,171 698,171 698,171 698,171 698,171 698,171 698,171 698,171 699,171 699,171 699,171 699,172 699,172 699,172 699,172 699,173 699,173 699,173 699,174 699,174 699,174 700,175 700,175 700,176 700,176 700,176 700,176 700,177 700,177 700,177 700,178 700,178 700,178 700,178 701,179 701,179 701,180 701,180 701,181 701,181 701,181 701,182 701,182 701,183 701,183 701,184 701,184 702,185 702,185 702,186 702,186 702,186 702,186 702,186 702,186 702,186 702,186 702,185 702,185 702,185 703,185 703,185 703,184 703,184 703,184 703,184 703,184 703,184 703,183 703,183 703,183 703,183 703,183 704,183 704,183 704,183 704,183 704,183 704,183 704,182 704,182 704,182 704,182 704,182 704,182 704,182 705,182 705,182 705,182 705,182 705,182 705,182 705,182 705,182 705,182 705,182 705,181 705,181 705,181 706,181 706,181 706,181 706,181 706,181 706,180 706,180 706,180 706,180 706,180 706,179 706,179 706,179 707,179 707,179 707,179 707,179 707,179 707,178 707,178 707,178 707,178 707,178 707,178 707,178 707,177 708,177 708,177 708,177 708,177 708,176 708,176 708,176 708,175 708,175 708,175 708,175 708,174 708,174 709,174 709,174 709,174 709,174 709,174 709,174 709,173 709,173 709,173 709,173 709,173 709,172 709,172 710,172 710,172 710,172 710,172 710,171 710,171 710,171 710,171 710,171 710,171 710,171 710,171 710,171 711,171 711,171 711,171 711,171 711,171 711,171 711,171 711,171 711,171 711,171 711,171 711,171 711,171 712,171 712,171 712,171 712,171 712,171 712,171 712,171 712,171 712,171 712,170 712,170 712,170 712,170 713,170 713,170 713,170 713,170 713,170 713,170 713,170 713,169 713,169 713,169 713,169 713,169 713,168 714,168 714,168 714,168 714,167 714,167 714,167 714,167 714,167 714,167 714,167 714,167 714,167 714,167 715,167 715,167 715,168 715,168 715,168 715,169 715,169 715,169 715,170 715,170 715,170 715,171 715,171 716,171 716,171 716,171 716,171 716,172 716,172 716,172 716,172 716,172 716,172 716,172 716,172 716,172 717,173 717,173 717,173 717,173 717,173 717,173 717,173 717,173 717,174 717,174 717,174 717,174 717,175 718,175 718,175 718,175 718,175 718,176 718,176 718,176 718,176 718,176 718,177 718,177 718,177 718,177 719,177 719,178 719,178 719,178 719,178 719,178 719,178 719,179 719,179 719,179 719,179 719,179 719,180 720,180 720,180 720,180 720,180 720,181 720,181 720,181 720,181 720,181 720,182 720,182 720,182 720,182 721,182 721,182 721,182 721,183 721,183 721,183 721,183 721,183 721,183 721,184 721,184 721,184 721,184 722,184 722,184 722,184 722,185 722,185 722,185 722,185 722,185 722,185 722,186 722,186 722,186 722,186 723,186 723,186 723,186 723,187 723,187 723,187 723,187 723,187 723,187 723,187 723,187 723,187 723,187 724,187 724,188 724,188 724,188 724,188 724,188 724,188 724,189 724,189 724,189 724,189 724,189 724,189 725,190 725,190 725,190 725,190 725,190 725,191 725,191 725,191 725,191 725,191 725,191 725,192 725,192 726,192 726,192 726,192 726,192 726,192 726,192 726,192 726,192 726,192 726,192 726,193 726,193 726,193 727,193 727,193 727,193 727,193 727,193 727,193 727,193 727,193 727,193 727,193 727,193 727,194 727,194 728,194 728,194 728,194 728,194 728,194 728,194 728,194 728,194 728,194 728,194 728,195 728,195 728,195 729,195 729,195 729,195 729,195 729,195 729,195 729,196 729,196 729,196 729,196 729,196 729,196 729,196 730,196 730,196 730,196 730,196 730,196 730,197 730,197 730,197 730,197 730,197 730,197 730,197 730,197 731,197 731,198 731,198 731,198 731,198 731,198 731,198 731,198 731,199 731,199 731,199 731,199 731,199 732,199 732,199 732,199 732,199 732,199 732,199 732,199 732,199 732,199 732,199 732,199 732,199 732,199 733,199 733,199 733,199 733,199 733,199 733,199 733,199 733,199 733,199 733,199 733,199 733,199 733,199 734,199 734,199 734,199 734,199 734,199 734,199 734,199 734,200 734,200 734,200 734,200 734,200 734,200 735,200 735,200 735,200 735,200 735,200 735,200 735,200 735,200 735,200 735,201 735,201 735,201 735,201 736,201 736,201 736,201 736,201 736,201 736,201 736,201 736,201 736,202 736,202 736,202 " vector-effect="non-scaling-stroke"></polyline>
</g></svg>