<?xml version="1.0" encoding="UTF-8" standalone="no"?><svg width="282.222mm" height="141.111mm" xmlns="http://www.w3.org/2000/svg" xmlns:xlink="http://www.w3.org/1999/xlink"  version="1.2" baseProfile="tiny"><g fill="none" stroke="#ff0000" stroke-linecap="round" stroke-linejoin="round" stroke-opacity="1" stroke-width="1.5" transform="matrix(1,0,0,1,0,0)">
<polyline fill="none" points="66,359 67,359 67,359 67,359 67,359 67,359 67,359 67,359 67,359 67,358 67,358 67,358 67,358 67,358 68,358 68,358 68,358 68,358 68,358 68,358 68,358 68,358 68,358 68,358 68,358 68,358 68,358 69,358 69,358 69,358 69,358 69,358 69,358 69,358 69,358 69,358 69,358 69,358 69,358 69,358 70,358 70,358 70,358 70,358 70,358 70,358 70,358 70,358 70,358 70,358 70,358 70,358 70,358 71,358 71,358 71,358 71,358 71,358 71,358 71,358 71,358 71,358 71,358 71,358 71,357 71,357 72,357 72,357 72,357 72,356 72,356 72,356 72,356 72,356 72,355 72,355 72,355 72,355 72,355 73,355 73,355 73,355 73,355 73,356 73,356 73,356 73,356 73,356 73,356 73,356 73,356 73,356 74,356 74,356 74,356 74,356 74,356 74,356 74,356 74,356 74,356 74,356 74,356 74,356 74,356 75,356 75,356 75,356 75,356 75,357 75,357 75,357 75,357 75,357 75,357 75,357 75,357 75,356 76,356 76,356 76,356 76,356 76,356 76,356 76,356 76,356 76,356 76,356 76,356 76,356 76,356 77,355 77,355 77,355 77,355 77,355 77,355 77,354 77,353 77,353 77,353 77,353 77,353 77,353 78,353 78,353 78,353 78,353 78,353 78,353 78,353 78,353 78,353 78,353 78,354 78,354 78,354 79,354 79,354 79,354 79,354 79,354 79,354 79,354 79,355 79,355 79,355 79,355 79,355 79,355 80,356 80,356 80,356 80,356 80,356 80,356 80,356 80,356 80,357 80,357 80,357 80,357 80,357 81,357 81,357 81,357 81,357 81,358 81,358 81,358 81,358 81,358 81,358 81,358 81,358 81,358 82,358 82,358 82,358 82,358 82,358 82,358 82,358 82,358 82,358 82,358 82,358 82,358 82,357 83,357 83,357 83,357 83,357 83,357 83,357 83,357 83,356 83,356 83,356 83,356 83,356 83,356 84,356 84,355 84,356 84,356 84,357 84,357 84,357 84,357 84,358 84,359 84,359 84,359 84,359 85,359 85,359 85,359 85,359 85,359 85,359 85,359 85,359 85,359 85,359 85,359 85,359 85,359 86,359 86,358 86,358 86,358 86,358 86,358 86,357 86,357 86,357 86,357 86,356 86,356 86,356 87,356 87,356 87,356 87,356 87,356 87,356 87,356 87,356 87,356 87,356 87,356 87,356 87,356 88,356 88,356 88,356 88,356 88,356 88,356 88,356 88,356 88,356 88,356 88,356 88,356 88,356 89,356 89,356 89,356 89,356 89,356 89,356 89,356 89,357 89,357 89,357 89,356 89,356 89,356 90,356 90,356 90,356 90,356 90,356 90,356 90,356 90,357 90,357 90,357 90,357 90,357 90,357 91,357 91,357 91,357 91,357 91,356 91,356 91,356 91,356 91,356 91,356 91,356 91,356 91,356 92,356 92,357 92,357 92,356 92,356 92,356 92,356 92,356 92,356 92,356 92,356 92,356 92,356 93,356 93,356 93,356 93,356 93,356 93,356 93,356 93,355 93,355 93,355 93,355 93,355 93,355 94,355 94,355 94,356 94,356 94,356 94,356 94,356 94,356 94,355 94,355 94,355 94,355 94,355 95,356 95,356 95,356 95,356 95,356 95,356 95,355 95,355 95,355 95,355 95,355 95,355 95,355 96,355 96,355 96,355 96,355 96,355 96,355 96,355 96,355 96,355 96,355 96,355 96,355 96,355 97,354 97,354 97,354 97,354 97,354 97,354 97,354 97,354 97,354 97,354 97,354 97,354 97,354 98,354 98,354 98,355 98,355 98,355 98,355 98,355 98,355 98,355 98,355 98,354 98,354 98,354 99,354 99,354 99,354 99,353 99,353 99,353 99,353 99,353 99,353 99,353 99,353 99,354 99,354 100,354 100,354 100,353 100,353 100,354 100,354 100,354 100,354 100,353 100,353 100,353 100,353 100,353 101,353 101,353 101,353 101,353 101,353 101,353 101,353 101,353 101,353 101,353 101,353 101,353 101,353 102,352 102,352 102,352 102,352 102,352 102,352 102,352 102,352 102,352 102,352 102,352 102,352 102,352 103,352 103,353 103,353 103,353 103,353 103,353 103,352 103,352 103,352 103,352 103,352 103,352 103,352 104,352 104,352 104,352 104,352 104,352 104,352 104,352 104,352 104,352 104,352 104,352 104,351 104,351 105,351 105,351 105,351 105,351 105,352 105,352 105,352 105,352 105,351 105,351 105,351 105,351 105,351 106,351 106,351 106,351 106,351 106,351 106,351 106,351 106,351 106,351 106,351 106,351 106,351 106,351 107,351 107,351 107,350 107,350 107,351 107,351 107,351 107,351 107,351 107,350 107,350 107,350 107,350 108,350 108,350 108,350 108,350 108,349 108,349 108,349 108,349 108,349 108,349 108,349 108,349 109,350 109,350 109,350 109,350 109,350 109,350 109,350 109,350 109,350 109,350 109,350 109,350 109,350 110,350 110,350 110,350 110,351 110,350 110,350 110,350 110,350 110,350 110,350 110,350 110,350 110,350 111,350 111,350 111,350 111,350 111,350 111,350 111,350 111,350 111,350 111,350 111,349 111,349 111,349 112,349 112,349 112,349 112,349 112,349 112,349 112,349 112,349 112,349 112,349 112,348 112,349 112,349 113,349 113,349 113,349 113,349 113,349 113,349 113,349 113,349 113,348 113,348 113,348 113,348 113,348 114,348 114,348 114,348 114,348 114,348 114,348 114,348 114,348 114,348 114,348 114,348 114,348 114,348 115,348 115,348 115,348 115,348 115,348 115,348 115,348 115,348 115,348 115,348 115,348 115,348 115,348 116,348 116,348 116,348 116,348 116,348 116,348 116,348 116,348 116,348 116,348 116,348 116,348 116,348 117,348 117,348 117,348 117,348 117,348 117,347 117,347 117,347 117,347 117,347 117,347 117,347 117,347 118,347 118,347 118,347 118,347 118,347 118,347 118,347 118,347 118,347 118,347 118,346 118,346 118,346 119,346 119,346 119,345 119,345 119,345 119,345 119,345 119,345 119,345 119,345 119,345 119,345 119,346 120,345 120,345 120,345 120,345 120,344 120,344 120,344 120,344 120,344 120,344 120,344 120,344 120,344 121,344 121,344 121,344 121,344 121,344 121,344 121,344 121,344 121,344 121,344 121,344 121,344 121,344 122,344 122,344 122,344 122,344 122,344 122,344 122,344 122,344 122,344 122,344 122,344 122,344 122,344 123,344 123,344 123,344 123,344 123,344 123,344 123,344 123,344 123,344 123,344 123,343 123,343 123,343 124,343 124,343 124,343 124,343 124,343 124,343 124,343 124,343 124,343 124,343 124,343 124,343 124,343 125,343 125,343 125,343 125,343 125,343 125,343 125,343 125,343 125,343 125,343 125,343 125,343 125,343 126,343 126,343 126,343 126,343 126,343 126,343 126,343 126,343 126,343 126,342 126,342 126,342 126,342 127,342 127,343 127,342 127,342 127,342 127,342 127,342 127,342 127,342 127,341 127,341 127,341 127,341 128,341 128,341 128,341 128,341 128,341 128,341 128,341 128,341 128,341 128,341 128,341 128,341 128,341 129,341 129,341 129,341 129,341 129,341 129,340 129,340 129,340 129,340 129,340 129,340 129,340 129,340 130,340 130,340 130,340 130,340 130,340 130,340 130,340 130,340 130,340 130,340 130,339 130,339 130,339 131,339 131,339 131,339 131,338 131,338 131,338 131,338 131,338 131,338 131,339 131,339 131,339 131,339 132,339 132,339 132,339 132,339 132,339 132,339 132,339 132,338 132,338 132,338 132,338 132,337 132,337 133,337 133,337 133,337 133,337 133,337 133,337 133,337 133,337 133,337 133,336 133,336 133,336 133,336 134,336 134,336 134,336 134,336 134,336 134,336 134,336 134,336 134,336 134,336 134,335 134,335 134,335 135,335 135,335 135,336 135,336 135,336 135,336 135,336 135,336 135,336 135,336 135,336 135,336 135,336 136,336 136,336 136,335 136,335 136,335 136,335 136,334 136,335 136,335 136,335 136,335 136,335 136,335 137,335 137,335 137,335 137,335 137,335 137,334 137,334 137,334 137,335 137,335 137,335 137,335 137,335 138,334 138,334 138,334 138,335 138,335 138,335 138,335 138,335 138,335 138,335 138,335 138,335 138,335 139,335 139,335 139,334 139,334 139,334 139,334 139,334 139,333 139,333 139,333 139,333 139,333 139,333 140,333 140,333 140,333 140,333 140,333 140,333 140,333 140,333 140,333 140,333 140,333 140,333 140,333 141,332 141,332 141,332 141,332 141,332 141,333 141,333 141,333 141,333 141,333 141,332 141,332 141,332 142,331 142,331 142,331 142,331 142,331 142,331 142,331 142,331 142,331 142,331 142,331 142,331 142,331 143,331 143,331 143,330 143,330 143,330 143,330 143,330 143,330 143,330 143,330 143,330 143,330 143,330 144,330 144,330 144,330 144,330 144,330 144,330 144,329 144,329 144,329 144,330 144,330 144,330 144,330 145,329 145,329 145,329 145,329 145,329 145,329 145,329 145,329 145,329 145,330 145,329 145,329 145,329 146,329 146,329 146,329 146,328 146,328 146,328 146,328 146,328 146,328 146,328 146,328 146,328 146,328 147,328 147,327 147,327 147,327 147,327 147,327 147,327 147,327 147,327 147,327 147,328 147,328 147,328 148,327 148,327 148,326 148,326 148,326 148,326 148,327 148,327 148,326 148,326 148,326 148,326 148,326 149,326 149,326 149,326 149,326 149,326 149,326 149,326 149,326 149,326 149,326 149,326 149,326 149,326 150,326 150,326 150,326 150,326 150,325 150,325 150,325 150,325 150,325 150,325 150,325 150,325 150,324 151,324 151,324 151,324 151,324 151,323 151,323 151,323 151,323 151,324 151,324 151,324 151,324 151,324 152,324 152,324 152,324 152,324 152,324 152,324 152,324 152,323 152,323 152,323 152,323 152,323 152,323 153,323 153,323 153,323 153,323 153,323 153,323 153,323 153,323 153,322 153,322 153,322 153,322 153,322 154,321 154,321 154,321 154,321 154,321 154,321 154,321 154,321 154,321 154,321 154,321 154,321 154,321 155,321 155,321 155,321 155,321 155,321 155,320 155,320 155,320 155,320 155,320 155,320 155,320 155,320 156,319 156,319 156,319 156,319 156,319 156,319 156,319 156,319 156,319 156,319 156,319 156,319 156,318 157,318 157,318 157,318 157,318 157,318 157,318 157,318 157,318 157,318 157,318 157,318 157,318 157,317 158,317 158,317 158,317 158,317 158,317 158,317 158,317 158,317 158,316 158,316 158,316 158,316 158,316 159,316 159,316 159,316 159,316 159,316 159,316 159,316 159,315 159,315 159,315 159,315 159,315 159,315 160,315 160,315 160,315 160,315 160,315 160,315 160,315 160,315 160,314 160,314 160,314 160,314 160,314 161,314 161,314 161,314 161,314 161,314 161,314 161,314 161,314 161,314 161,314 161,314 161,314 161,314 162,313 162,313 162,313 162,313 162,313 162,313 162,313 162,312 162,312 162,312 162,312 162,312 162,312 163,312 163,312 163,312 163,312 163,312 163,312 163,312 163,311 163,311 163,311 163,311 163,311 163,311 164,311 164,311 164,311 164,311 164,311 164,310 164,310 164,310 164,310 164,310 164,311 164,311 164,310 165,310 165,310 165,310 165,310 165,309 165,309 165,309 165,309 165,309 165,309 165,309 165,309 165,309 166,308 166,309 166,309 166,308 166,308 166,309 166,309 166,309 166,310 166,309 166,309 166,308 166,308 167,307 167,307 167,307 167,307 167,307 167,307 167,306 167,306 167,306 167,306 167,306 167,306 167,306 168,306 168,306 168,306 168,306 168,306 168,305 168,305 168,305 168,305 168,305 168,304 168,304 168,304 169,304 169,304 169,304 169,304 169,304 169,304 169,304 169,304 169,304 169,304 169,304 169,304 169,304 170,304 170,304 170,304 170,304 170,304 170,304 170,304 170,304 170,304 170,304 170,303 170,303 170,303 171,303 171,303 171,303 171,303 171,303 171,303 171,302 171,302 171,302 171,302 171,302 171,302 171,302 172,302 172,302 172,302 172,302 172,302 172,302 172,302 172,302 172,302 172,301 172,301 172,301 172,301 173,301 173,301 173,301 173,300 173,300 173,300 173,300 173,300 173,300 173,300 173,300 173,300 173,300 174,300 174,300 174,299 174,299 174,299 174,299 174,299 174,298 174,298 174,298 174,298 174,298 174,298 175,298 175,298 175,297 175,297 175,297 175,297 175,297 175,297 175,296 175,296 175,295 175,295 175,294 176,294 176,293 176,293 176,293 176,293 176,293 176,293 176,293 176,293 176,292 176,292 176,291 176,291 177,291 177,291 177,290 177,290 177,290 177,290 177,290 177,290 177,289 177,289 177,289 177,289 177,289 178,289 178,289 178,288 178,288 178,288 178,288 178,287 178,287 178,287 178,286 178,286 178,286 178,286 179,286 179,286 179,286 179,286 179,286 179,286 179,286 179,286 179,286 179,285 179,285 179,285 179,285 180,285 180,285 180,285 180,285 180,284 180,284 180,284 180,284 180,285 180,285 180,285 180,285 180,285 181,286 181,286 181,285 181,285 181,285 181,285 181,285 181,284 181,283 181,283 181,283 181,282 181,282 182,282 182,282 182,281 182,281 182,280 182,279 182,279 182,279 182,279 182,279 182,279 182,279 182,279 183,278 183,279 183,279 183,279 183,279 183,280 183,280 183,281 183,281 183,281 183,281 183,282 183,281 184,281 184,281 184,281 184,280 184,279 184,279 184,279 184,279 184,279 184,279 184,279 184,279 184,279 185,279 185,279 185,279 185,280 185,280 185,280 185,280 185,280 185,281 185,281 185,281 185,281 185,282 186,282 186,282 186,283 186,283 186,284 186,284 186,284 186,284 186,285 186,285 186,285 186,285 186,286 187,286 187,286 187,286 187,286 187,286 187,287 187,287 187,287 187,287 187,288 187,287 187,287 187,287 188,287 188,287 188,287 188,287 188,287 188,286 188,286 188,286 188,286 188,286 188,286 188,286 188,285 189,285 189,284 189,284 189,284 189,284 189,285 189,284 189,284 189,283 189,283 189,282 189,281 189,280 190,279 190,278 190,278 190,277 190,276 190,276 190,275 190,274 190,273 190,273 190,272 190,271 190,270 191,269 191,267 191,266 191,265 191,262 191,260 191,258 191,256 191,255 191,253 191,252 191,251 191,250 192,250 192,249 192,248 192,247 192,245 192,243 192,242 192,240 192,239 192,237 192,236 192,235 192,234 193,232 193,231 193,230 193,230 193,229 193,228 193,228 193,228 193,227 193,227 193,226 193,226 193,225 194,225 194,224 194,224 194,223 194,223 194,222 194,222 194,221 194,220 194,220 194,219 194,217 194,217 195,216 195,216 195,215 195,214 195,214 195,213 195,213 195,213 195,212 195,211 195,211 195,210 195,210 196,210 196,210 196,210 196,210 196,210 196,209 196,209 196,209 196,209 196,209 196,209 196,209 196,209 197,209 197,209 197,209 197,209 197,209 197,209 197,208 197,208 197,208 197,208 197,207 197,207 197,207 198,206 198,206 198,205 198,205 198,204 198,203 198,203 198,203 198,203 198,203 198,203 198,203 198,203 199,203 199,203 199,203 199,203 199,204 199,204 199,204 199,204 199,204 199,204 199,205 199,205 199,205 200,206 200,206 200,206 200,207 200,208 200,208 200,209 200,209 200,209 200,210 200,210 200,211 200,211 201,211 201,211 201,212 201,212 201,213 201,213 201,214 201,215 201,215 201,216 201,216 201,216 201,217 202,217 202,217 202,217 202,217 202,217 202,217 202,216 202,216 202,216 202,216 202,215 202,215 202,215 203,215 203,215 203,214 203,214 203,213 203,213 203,213 203,213 203,212 203,211 203,211 203,210 203,210 204,209 204,209 204,209 204,209 204,207 204,206 204,205 204,203 204,202 204,201 204,200 204,199 204,198 205,197 205,196 205,194 205,193 205,191 205,189 205,187 205,186 205,185 205,184 205,183 205,182 205,180 206,179 206,178 206,177 206,177 206,176 206,175 206,174 206,173 206,172 206,171 206,170 206,169 206,168 207,167 207,166 207,165 207,164 207,164 207,163 207,163 207,162 207,161 207,161 207,160 207,159 207,159 208,158 208,158 208,157 208,157 208,156 208,155 208,155 208,154 208,153 208,152 208,151 208,151 208,151 209,152 209,152 209,152 209,152 209,152 209,152 209,152 209,151 209,151 209,151 209,151 209,150 209,150 210,150 210,150 210,149 210,149 210,149 210,148 210,148 210,148 210,148 210,148 210,148 210,148 210,148 211,148 211,148 211,148 211,147 211,147 211,147 211,147 211,147 211,146 211,146 211,146 211,146 211,146 212,146 212,145 212,145 212,145 212,145 212,145 212,145 212,145 212,145 212,145 212,145 212,145 212,145 213,145 213,145 213,145 213,145 213,145 213,145 213,145 213,145 213,144 213,144 213,144 213,144 213,144 214,144 214,144 214,145 214,146 214,146 214,147 214,147 214,147 214,148 214,147 214,147 214,147 214,147 215,146 215,146 215,146 215,145 215,145 215,144 215,143 215,143 215,143 215,142 215,142 215,142 215,142 216,142 216,142 216,142 216,143 216,143 216,143 216,143 216,143 216,143 216,144 216,144 216,144 216,144 217,144 217,143 217,143 217,143 217,142 217,142 217,141 217,142 217,142 217,142 217,142 217,142 217,142 218,142 218,143 218,143 218,143 218,143 218,143 218,143 218,143 218,143 218,143 218,143 218,143 218,143 219,143 219,143 219,143 219,143 219,143 219,143 219,143 219,143 219,143 219,143 219,143 219,143 219,143 220,143 220,143 220,143 220,143 220,143 220,143 220,143 220,143 220,143 220,144 220,145 220,145 220,146 221,146 221,147 221,147 221,148 221,148 221,149 221,149 221,149 221,149 221,149 221,150 221,150 221,150 222,151 222,151 222,151 222,151 222,151 222,151 222,152 222,152 222,152 222,152 222,152 222,152 222,152 223,152 223,151 223,152 223,151 223,151 223,151 223,151 223,150 223,150 223,150 223,150 223,150 223,150 224,149 224,150 224,150 224,150 224,150 224,150 224,150 224,150 224,150 224,151 224,151 224,151 224,152 225,152 225,152 225,153 225,154 225,155 225,156 225,157 225,157 225,158 225,159 225,159 225,160 225,160 226,161 226,162 226,162 226,163 226,164 226,164 226,164 226,165 226,166 226,166 226,168 226,169 226,169 227,169 227,169 227,169 227,169 227,169 227,169 227,169 227,168 227,168 227,168 227,168 227,168 227,169 228,169 228,169 228,169 228,169 228,169 228,169 228,169 228,169 228,169 228,169 228,169 228,170 228,170 229,170 229,170 229,170 229,170 229,170 229,169 229,169 229,169 229,169 229,169 229,169 229,168 229,168 230,168 230,168 230,167 230,167 230,167 230,166 230,166 230,166 230,166 230,166 230,165 230,165 230,165 231,165 231,165 231,165 231,164 231,164 231,164 231,164 231,163 231,163 231,163 231,163 231,163 231,164 232,164 232,164 232,164 232,164 232,163 232,163 232,162 232,162 232,161 232,161 232,160 232,160 232,160 233,160 233,160 233,161 233,160 233,160 233,160 233,160 233,160 233,160 233,160 233,161 233,161 233,161 234,161 234,161 234,161 234,161 234,161 234,161 234,162 234,162 234,162 234,162 234,162 234,162 234,163 235,163 235,163 235,164 235,164 235,164 235,165 235,165 235,165 235,165 235,166 235,166 235,167 235,167 236,167 236,167 236,168 236,168 236,168 236,168 236,168 236,167 236,166 236,165 236,165 236,164 236,163 237,163 237,163 237,162 237,161 237,161 237,160 237,159 237,159 237,158 237,158 237,158 237,157 237,157 238,156 238,156 238,155 238,155 238,154 238,154 238,154 238,153 238,153 238,153 238,152 238,151 238,151 239,150 239,150 239,149 239,149 239,148 239,147 239,147 239,146 239,145 239,144 239,143 239,143 239,142 240,142 240,142 240,141 240,141 240,141 240,140 240,140 240,140 240,140 240,139 240,139 240,139 240,138 241,138 241,138 241,137 241,137 241,136 241,136 241,135 241,134 241,134 241,133 241,133 241,133 241,133 242,133 242,133 242,132 242,132 242,132 242,132 242,132 242,132 242,131 242,131 242,131 242,131 242,131 243,131 243,131 243,131 243,131 243,131 243,131 243,131 243,131 243,131 243,130 243,130 243,130 243,130 244,130 244,130 244,130 244,130 244,130 244,130 244,129 244,129 244,130 244,131 244,131 244,131 244,132 245,132 245,132 245,133 245,133 245,133 245,133 245,133 245,133 245,133 245,133 245,133 245,133 245,133 246,133 246,133 246,133 246,133 246,133 246,133 246,132 246,132 246,132 246,132 246,132 246,131 246,131 247,130 247,130 247,131 247,131 247,130 247,130 247,130 247,129 247,129 247,129 247,129 247,129 247,128 248,128 248,128 248,128 248,128 248,127 248,127 248,127 248,127 248,127 248,127 248,126 248,126 248,126 249,126 249,126 249,126 249,126 249,126 249,126 249,126 249,126 249,126 249,126 249,126 249,126 249,126 250,125 250,125 250,125 250,124 250,124 250,124 250,125 250,125 250,125 250,126 250,126 250,126 250,127 251,127 251,128 251,129 251,130 251,130 251,131 251,131 251,132 251,133 251,133 251,134 251,134 251,135 252,136 252,137 252,137 252,138 252,139 252,140 252,140 252,141 252,141 252,142 252,142 252,143 252,143 253,144 253,144 253,144 253,144 253,144 253,144 253,144 253,143 253,143 253,143 253,142 253,142 253,142 254,142 254,142 254,141 254,141 254,141 254,140 254,140 254,139 254,138 254,138 254,138 254,138 254,137 255,137 255,136 255,136 255,135 255,135 255,135 255,134 255,134 255,133 255,133 255,132 255,131 255,131 256,130 256,130 256,129 256,128 256,128 256,127 256,127 256,126 256,126 256,126 256,125 256,125 256,124 257,124 257,123 257,123 257,122 257,122 257,121 257,121 257,121 257,121 257,121 257,121 257,120 257,120 258,120 258,119 258,119 258,119 258,118 258,118 258,118 258,118 258,118 258,119 258,119 258,119 258,120 259,120 259,120 259,120 259,120 259,119 259,119 259,119 259,119 259,119 259,119 259,119 259,119 259,119 260,119 260,118 260,118 260,118 260,118 260,118 260,118 260,117 260,117 260,117 260,117 260,117 260,117 261,117 261,116 261,116 261,116 261,115 261,115 261,114 261,114 261,114 261,114 261,114 261,114 261,114 262,114 262,114 262,116 262,116 262,117 262,117 262,118 262,118 262,119 262,119 262,119 262,119 262,119 263,120 263,120 263,121 263,121 263,121 263,122 263,122 263,123 263,124 263,124 263,125 263,125 263,125 264,124 264,123 264,123 264,121 264,121 264,120 264,119 264,119 264,118 264,118 264,117 264,117 264,116 265,116 265,115 265,115 265,115 265,115 265,114 265,114 265,114 265,113 265,113 265,113 265,112 265,112 266,111 266,111 266,111 266,110 266,110 266,109 266,109 266,109 266,108 266,108 266,108 266,108 266,107 267,107 267,107 267,107 267,107 267,107 267,107 267,107 267,107 267,107 267,108 267,108 267,108 267,108 268,108 268,108 268,109 268,109 268,110 268,111 268,111 268,112 268,113 268,114 268,114 268,115 268,115 269,115 269,115 269,115 269,116 269,116 269,117 269,117 269,117 269,118 269,118 269,119 269,119 270,119 270,118 270,118 270,118 270,117 270,117 270,117 270,116 270,115 270,114 270,113 270,113 270,113 271,113 271,113 271,112 271,112 271,112 271,112 271,111 271,111 271,111 271,111 271,111 271,110 271,109 272,109 272,108 272,108 272,108 272,108 272,107 272,107 272,108 272,108 272,108 272,107 272,107 272,106 273,106 273,106 273,106 273,106 273,105 273,104 273,104 273,103 273,102 273,102 273,101 273,101 273,100 274,100 274,99 274,98 274,97 274,96 274,95 274,95 274,95 274,96 274,96 274,95 274,95 274,95 275,95 275,95 275,95 275,95 275,95 275,95 275,94 275,94 275,94 275,94 275,93 275,93 275,92 276,91 276,91 276,90 276,90 276,89 276,89 276,88 276,87 276,87 276,86 276,86 276,85 276,85 277,85 277,85 277,85 277,84 277,84 277,84 277,84 277,84 277,84 277,84 277,84 277,84 277,84 278,84 278,84 278,85 278,85 278,85 278,85 278,85 278,86 278,86 278,86 278,86 278,86 278,86 279,86 279,87 279,87 279,87 279,87 279,87 279,87 279,87 279,87 279,89 279,92 279,94 279,97 280,97 280,98 280,99 280,100 280,101 280,102 280,102 280,102 280,102 280,102 280,102 280,102 280,102 281,101 281,101 281,102 281,102 281,103 281,104 281,104 281,105 281,107 281,108 281,110 281,112 281,114 282,115 282,116 282,118 282,119 282,120 282,121 282,122 282,123 282,124 282,125 282,126 282,127 282,127 283,128 283,129 283,129 283,130 283,131 283,131 283,131 283,131 283,131 283,131 283,131 283,131 283,131 284,130 284,130 284,129 284,127 284,126 284,126 284,126 284,126 284,126 284,126 284,126 284,126 284,126 285,127 285,127 285,127 285,127 285,127 285,128 285,128 285,129 285,129 285,130 285,130 285,131 285,132 286,132 286,133 286,134 286,135 286,136 286,136 286,137 286,139 286,140 286,141 286,141 286,141 286,142 287,142 287,143 287,143 287,144 287,145 287,146 287,146 287,146 287,147 287,147 287,147 287,147 287,147 288,147 288,146 288,145 288,145 288,144 288,143 288,142 288,141 288,140 288,140 288,140 288,140 288,140 289,140 289,140 289,140 289,140 289,140 289,140 289,140 289,140 289,140 289,140 289,140 289,140 289,140 290,140 290,140 290,140 290,141 290,142 290,142 290,143 290,143 290,143 290,144 290,145 290,146 290,147 291,148 291,148 291,149 291,150 291,151 291,150 291,149 291,148 291,147 291,146 291,145 291,144 291,144 292,143 292,143 292,143 292,142 292,142 292,142 292,142 292,142 292,142 292,142 292,142 292,141 292,141 293,140 293,139 293,138 293,138 293,136 293,135 293,134 293,133 293,132 293,131 293,130 293,128 293,127 294,125 294,123 294,121 294,120 294,118 294,117 294,116 294,116 294,115 294,115 294,115 294,115 294,115 295,114 295,114 295,114 295,114 295,113 295,113 295,113 295,113 295,112 295,112 295,112 295,111 295,111 296,110 296,110 296,109 296,109 296,109 296,109 296,109 296,109 296,110 296,112 296,113 296,114 296,115 297,116 297,116 297,117 297,117 297,117 297,116 297,117 297,117 297,117 297,116 297,117 297,117 297,118 298,118 298,119 298,119 298,121 298,121 298,122 298,122 298,123 298,124 298,124 298,125 298,127 298,127 299,128 299,128 299,128 299,129 299,129 299,130 299,131 299,131 299,132 299,132 299,133 299,133 299,134 300,134 300,135 300,136 300,137 300,138 300,139 300,140 300,140 300,141 300,142 300,144 300,145 300,146 301,147 301,147 301,146 301,146 301,146 301,146 301,147 301,147 301,148 301,148 301,148 301,148 301,149 302,150 302,150 302,151 302,151 302,151 302,152 302,152 302,153 302,153 302,153 302,154 302,154 302,155 303,155 303,156 303,156 303,157 303,158 303,158 303,158 303,158 303,158 303,159 303,159 303,160 303,160 304,161 304,161 304,162 304,162 304,163 304,164 304,165 304,166 304,167 304,168 304,169 304,170 304,171 305,172 305,172 305,173 305,173 305,174 305,174 305,175 305,175 305,176 305,176 305,177 305,177 305,177 306,178 306,178 306,178 306,179 306,179 306,180 306,180 306,180 306,180 306,179 306,179 306,179 306,179 307,179 307,180 307,180 307,180 307,180 307,180 307,179 307,179 307,179 307,179 307,181 307,182 307,184 308,185 308,186 308,187 308,188 308,188 308,188 308,188 308,188 308,188 308,189 308,189 308,190 308,191 309,192 309,192 309,192 309,193 309,194 309,196 309,197 309,198 309,199 309,201 309,202 309,203 309,205 310,206 310,207 310,208 310,210 310,211 310,212 310,213 310,214 310,215 310,216 310,217 310,218 310,219 311,220 311,221 311,222 311,223 311,223 311,224 311,225 311,226 311,226 311,228 311,229 311,229 311,229 312,229 312,229 312,229 312,229 312,229 312,228 312,228 312,228 312,228 312,228 312,229 312,229 312,229 313,229 313,229 313,229 313,229 313,229 313,229 313,230 313,230 313,230 313,230 313,230 313,231 313,231 314,231 314,231 314,232 314,232 314,232 314,233 314,233 314,233 314,233 314,233 314,233 314,233 314,233 315,233 315,233 315,233 315,233 315,232 315,232 315,232 315,231 315,231 315,231 315,230 315,230 315,230 316,229 316,229 316,228 316,228 316,227 316,227 316,226 316,226 316,225 316,225 316,224 316,224 316,223 317,222 317,221 317,221 317,220 317,218 317,217 317,216 317,214 317,212 317,210 317,208 317,207 317,207 318,206 318,206 318,205 318,205 318,205 318,205 318,204 318,203 318,202 318,202 318,201 318,199 318,198 319,197 319,196 319,195 319,193 319,192 319,191 319,190 319,188 319,187 319,186 319,185 319,183 319,182 320,181 320,180 320,178 320,177 320,175 320,174 320,172 320,170 320,168 320,166 320,164 320,162 320,160 321,159 321,157 321,155 321,154 321,153 321,151 321,150 321,150 321,149 321,149 321,149 321,148 321,147 322,146 322,146 322,145 322,144 322,143 322,143 322,142 322,140 322,139 322,139 322,138 322,137 322,136 323,136 323,135 323,134 323,133 323,132 323,132 323,131 323,130 323,129 323,128 323,127 323,126 323,125 324,124 324,123 324,122 324,121 324,120 324,119 324,118 324,117 324,116 324,115 324,115 324,114 324,113 325,113 325,112 325,112 325,112 325,111 325,111 325,110 325,110 325,109 325,109 325,108 325,107 325,107 326,106 326,105 326,104 326,103 326,102 326,101 326,100 326,98 326,98 326,97 326,96 326,95 326,95 327,95 327,95 327,96 327,96 327,96 327,96 327,96 327,96 327,96 327,96 327,96 327,95 327,95 328,95 328,95 328,94 328,94 328,93 328,93 328,92 328,92 328,91 328,91 328,91 328,90 328,90 329,90 329,89 329,89 329,89 329,88 329,88 329,88 329,88 329,87 329,87 329,87 329,87 329,86 330,86 330,86 330,85 330,85 330,85 330,85 330,85 330,84 330,84 330,84 330,84 330,84 330,84 331,84 331,84 331,84 331,83 331,83 331,83 331,83 331,83 331,82 331,82 331,82 331,82 331,81 332,81 332,81 332,81 332,81 332,81 332,80 332,80 332,80 332,80 332,80 332,79 332,79 332,79 333,79 333,78 333,78 333,77 333,77 333,77 333,77 333,77 333,77 333,77 333,76 333,76 333,76 334,76 334,75 334,75 334,75 334,75 334,75 334,75 334,75 334,75 334,75 334,75 334,75 334,75 335,76 335,76 335,76 335,76 335,76 335,76 335,76 335,77 335,77 335,77 335,77 335,77 335,77 336,77 336,77 336,78 336,78 336,78 336,78 336,78 336,78 336,78 336,78 336,78 336,78 336,78 337,78 337,78 337,78 337,78 337,78 337,78 337,78 337,78 337,79 337,79 337,79 337,79 337,79 338,79 338,80 338,80 338,80 338,80 338,80 338,80 338,81 338,81 338,81 338,82 338,82 338,83 339,83 339,84 339,84 339,85 339,85 339,86 339,86 339,87 339,88 339,89 339,89 339,90 339,91 340,91 340,92 340,93 340,93 340,93 340,92 340,91 340,91 340,90 340,90 340,90 340,89 340,89 341,89 341,89 341,89 341,88 341,88 341,88 341,88 341,88 341,88 341,88 341,88 341,88 341,87 342,87 342,87 342,87 342,87 342,87 342,87 342,88 342,88 342,89 342,90 342,91 342,92 342,92 343,93 343,94 343,95 343,96 343,97 343,97 343,98 343,98 343,98 343,98 343,97 343,96 343,95 344,95 344,95 344,95 344,94 344,94 344,94 344,94 344,94 344,94 344,94 344,94 344,94 344,94 345,94 345,94 345,94 345,94 345,94 345,94 345,94 345,94 345,94 345,94 345,95 345,95 345,96 346,96 346,97 346,98 346,99 346,99 346,100 346,101 346,101 346,102 346,103 346,103 346,104 346,105 347,105 347,106 347,106 347,107 347,107 347,108 347,108 347,109 347,109 347,110 347,111 347,111 347,112 348,112 348,113 348,114 348,115 348,115 348,116 348,116 348,117 348,117 348,116 348,115 348,114 348,114 349,114 349,114 349,114 349,114 349,114 349,115 349,115 349,115 349,115 349,116 349,116 349,116 349,116 350,117 350,117 350,117 350,117 350,117 350,118 350,118 350,118 350,118 350,119 350,119 350,119 350,120 351,120 351,121 351,121 351,122 351,122 351,123 351,123 351,124 351,124 351,124 351,125 351,125 351,125 352,125 352,126 352,126 352,126 352,126 352,126 352,126 352,127 352,127 352,127 352,126 352,126 352,127 353,127 353,127 353,127 353,127 353,127 353,127 353,128 353,128 353,128 353,128 353,128 353,128 353,128 354,128 354,129 354,129 354,129 354,130 354,130 354,130 354,130 354,130 354,130 354,130 354,130 354,130 355,130 355,130 355,130 355,130 355,130 355,130 355,130 355,130 355,131 355,131 355,131 355,131 355,132 356,132 356,132 356,132 356,132 356,132 356,132 356,132 356,131 356,131 356,131 356,131 356,131 356,131 357,131 357,130 357,130 357,130 357,129 357,129 357,129 357,128 357,129 357,128 357,128 357,128 357,129 358,128 358,128 358,128 358,128 358,128 358,128 358,128 358,128 358,128 358,127 358,127 358,127 358,126 359,126 359,125 359,125 359,124 359,124 359,124 359,124 359,124 359,124 359,124 359,124 359,124 359,124 360,124 360,124 360,124 360,124 360,124 360,124 360,124 360,124 360,124 360,124 360,124 360,124 360,124 361,124 361,124 361,124 361,124 361,125 361,125 361,125 361,125 361,125 361,126 361,126 361,126 361,127 362,127 362,127 362,128 362,128 362,128 362,129 362,129 362,130 362,130 362,130 362,131 362,131 362,132 363,132 363,133 363,133 363,133 363,133 363,134 363,134 363,135 363,135 363,136 363,137 363,137 363,138 364,138 364,139 364,139 364,139 364,140 364,140 364,140 364,140 364,140 364,140 364,140 364,140 364,140 365,140 365,139 365,139 365,139 365,139 365,139 365,139 365,139 365,139 365,140 365,140 365,140 365,140 366,139 366,140 366,139 366,139 366,138 366,137 366,137 366,136 366,136 366,135 366,135 366,134 366,133 367,132 367,132 367,131 367,131 367,130 367,129 367,128 367,127 367,126 367,125 367,124 367,124 367,123 368,122 368,122 368,121 368,121 368,121 368,121 368,120 368,120 368,119 368,119 368,119 368,119 368,118 369,118 369,118 369,118 369,118 369,118 369,118 369,117 369,117 369,117 369,117 369,117 369,116 369,116 370,116 370,116 370,116 370,115 370,115 370,115 370,114 370,114 370,114 370,114 370,113 370,113 370,113 371,112 371,112 371,111 371,111 371,111 371,111 371,111 371,110 371,110 371,110 371,110 371,109 371,109 372,109 372,109 372,108 372,108 372,108 372,108 372,107 372,107 372,107 372,107 372,107 372,107 372,108 373,108 373,108 373,109 373,109 373,109 373,109 373,110 373,110 373,111 373,111 373,111 373,112 373,112 374,113 374,113 374,113 374,113 374,113 374,113 374,113 374,113 374,113 374,113 374,114 374,114 374,114 375,114 375,114 375,114 375,115 375,115 375,115 375,115 375,116 375,116 375,116 375,116 375,117 375,117 376,117 376,117 376,118 376,118 376,118 376,118 376,119 376,119 376,119 376,119 376,119 376,119 376,120 377,121 377,121 377,122 377,122 377,123 377,123 377,124 377,124 377,124 377,125 377,125 377,126 377,126 378,127 378,127 378,128 378,128 378,129 378,129 378,130 378,131 378,131 378,132 378,133 378,134 378,134 379,135 379,136 379,137 379,138 379,139 379,139 379,140 379,141 379,142 379,143 379,144 379,145 379,145 380,146 380,146 380,146 380,146 380,146 380,146 380,146 380,146 380,146 380,146 380,146 380,146 380,146 381,145 381,145 381,144 381,144 381,144 381,143 381,143 381,142 381,142 381,141 381,141 381,140 381,140 382,139 382,139 382,139 382,139 382,138 382,138 382,138 382,138 382,138 382,137 382,137 382,137 382,137 383,137 383,136 383,136 383,136 383,136 383,136 383,136 383,136 383,136 383,135 383,135 383,135 383,135 384,134 384,134 384,134 384,133 384,133 384,133 384,132 384,132 384,132 384,131 384,131 384,131 384,131 385,131 385,130 385,130 385,129 385,129 385,129 385,128 385,128 385,128 385,127 385,127 385,127 385,126 386,126 386,126 386,126 386,125 386,125 386,125 386,125 386,124 386,124 386,124 386,124 386,123 386,123 387,123 387,122 387,122 387,122 387,122 387,122 387,121 387,121 387,121 387,121 387,120 387,120 387,120 388,120 388,119 388,119 388,119 388,119 388,119 388,120 388,120 388,121 388,121 388,121 388,121 388,121 389,122 389,123 389,124 389,125 389,125 389,126 389,127 389,127 389,127 389,127 389,128 389,128 389,127 390,126 390,125 390,124 390,123 390,123 390,122 390,121 390,121 390,121 390,120 390,120 390,120 390,121 391,121 391,121 391,121 391,121 391,121 391,121 391,121 391,121 391,121 391,121 391,121 391,121 391,121 392,121 392,121 392,121 392,121 392,121 392,121 392,122 392,122 392,122 392,122 392,123 392,123 392,123 393,122 393,122 393,122 393,122 393,121 393,121 393,120 393,120 393,119 393,119 393,118 393,118 393,118 394,118 394,117 394,117 394,117 394,117 394,116 394,116 394,116 394,115 394,115 394,115 394,115 394,114 395,114 395,114 395,114 395,114 395,115 395,114 395,114 395,113 395,113 395,113 395,113 395,113 395,113 396,112 396,112 396,112 396,112 396,111 396,110 396,110 396,110 396,109 396,110 396,110 396,110 396,110 397,110 397,110 397,110 397,111 397,111 397,112 397,112 397,113 397,113 397,114 397,114 397,115 397,116 398,116 398,117 398,118 398,118 398,119 398,120 398,121 398,121 398,122 398,123 398,123 398,124 398,125 399,126 399,126 399,127 399,127 399,128 399,128 399,128 399,128 399,128 399,128 399,128 399,128 399,128 400,128 400,129 400,129 400,129 400,129 400,130 400,130 400,130 400,130 400,130 400,130 400,130 400,130 401,131 401,131 401,131 401,131 401,132 401,132 401,133 401,133 401,134 401,134 401,134 401,135 401,135 402,135 402,136 402,136 402,136 402,136 402,136 402,136 402,137 402,137 402,137 402,137 402,137 402,137 403,137 403,137 403,137 403,137 403,137 403,137 403,137 403,137 403,137 403,138 403,138 403,138 403,138 404,138 404,137 404,138 404,138 404,138 404,138 404,138 404,139 404,139 404,139 404,139 404,140 404,140 405,140 405,140 405,140 405,140 405,140 405,140 405,140 405,140 405,139 405,139 405,139 405,138 405,138 406,137 406,137 406,136 406,136 406,135 406,135 406,134 406,133 406,133 406,132 406,131 406,131 406,130 407,129 407,129 407,128 407,128 407,127 407,127 407,127 407,127 407,126 407,126 407,126 407,126 407,126 408,125 408,125 408,125 408,125 408,124 408,124 408,123 408,123 408,123 408,123 408,123 408,123 408,123 409,122 409,122 409,122 409,122 409,122 409,122 409,122 409,122 409,122 409,122 409,122 409,122 409,122 410,122 410,122 410,122 410,122 410,123 410,123 410,124 410,125 410,126 410,127 410,127 410,128 410,128 411,129 411,129 411,129 411,130 411,130 411,130 411,130 411,131 411,131 411,132 411,132 411,132 411,132 412,133 412,133 412,132 412,132 412,132 412,132 412,132 412,132 412,132 412,133 412,133 412,133 412,133 413,134 413,134 413,134 413,134 413,135 413,135 413,135 413,135 413,135 413,135 413,134 413,134 413,135 414,135 414,136 414,136 414,136 414,136 414,137 414,137 414,138 414,138 414,138 414,137 414,137 414,137 415,137 415,137 415,137 415,137 415,137 415,137 415,137 415,137 415,138 415,138 415,138 415,137 415,137 416,137 416,138 416,138 416,138 416,138 416,139 416,139 416,140 416,140 416,141 416,141 416,141 416,142 417,142 417,142 417,142 417,143 417,143 417,144 417,144 417,144 417,144 417,145 417,145 417,145 417,146 418,146 418,147 418,147 418,147 418,148 418,148 418,149 418,149 418,150 418,150 418,150 418,151 418,151 419,151 419,152 419,152 419,152 419,153 419,153 419,152 419,152 419,152 419,152 419,151 419,151 419,151 420,151 420,151 420,151 420,151 420,151 420,152 420,152 420,152 420,152 420,153 420,153 420,153 420,153 421,154 421,154 421,154 421,154 421,155 421,155 421,155 421,155 421,155 421,155 421,154 421,154 421,154 422,154 422,154 422,154 422,153 422,153 422,153 422,153 422,153 422,153 422,153 422,153 422,153 422,153 423,153 423,153 423,153 423,153 423,153 423,153 423,152 423,152 423,152 423,153 423,153 423,154 423,155 424,155 424,156 424,156 424,157 424,157 424,158 424,158 424,159 424,159 424,160 424,160 424,160 424,161 425,160 425,160 425,161 425,161 425,161 425,161 425,161 425,161 425,160 425,160 425,160 425,160 425,160 426,160 426,159 426,159 426,159 426,158 426,158 426,158 426,158 426,158 426,158 426,157 426,157 426,157 427,157 427,156 427,156 427,156 427,156 427,155 427,155 427,155 427,154 427,155 427,155 427,155 427,155 428,155 428,156 428,157 428,157 428,158 428,158 428,159 428,160 428,160 428,161 428,161 428,162 428,162 429,163 429,163 429,164 429,164 429,165 429,165 429,166 429,166 429,166 429,167 429,167 429,167 429,167 430,168 430,168 430,168 430,168 430,168 430,169 430,169 430,169 430,169 430,169 430,169 430,169 430,169 431,169 431,169 431,170 431,170 431,170 431,170 431,170 431,170 431,170 431,170 431,170 431,170 432,170 432,170 432,170 432,170 432,170 432,170 432,170 432,170 432,170 432,170 432,170 432,170 432,170 433,170 433,170 433,170 433,170 433,170 433,170 433,170 433,170 433,170 433,170 433,170 433,170 433,170 434,170 434,170 434,170 434,170 434,170 434,170 434,170 434,170 434,170 434,170 434,170 434,170 434,170 435,170 435,170 435,170 435,170 435,170 435,170 435,170 435,170 435,170 435,170 435,170 435,170 435,170 436,170 436,170 436,170 436,170 436,169 436,169 436,169 436,169 436,169 436,169 436,169 436,169 436,169 437,169 437,169 437,169 437,169 437,169 437,169 437,169 437,169 437,169 437,169 437,169 437,169 437,169 438,169 438,169 438,168 438,168 438,168 438,168 438,168 438,168 438,168 438,168 438,168 438,168 438,168 439,168 439,168 439,168 439,168 439,168 439,168 439,168 439,168 439,168 439,168 439,168 439,168 439,168 440,168 440,168 440,168 440,168 440,168 440,168 440,168 440,168 440,167 440,167 440,167 440,167 440,167 441,167 441,167 441,167 441,167 441,166 441,166 441,166 441,166 441,166 441,166 441,166 441,166 441,166 442,166 442,165 442,165 442,165 442,165 442,164 442,164 442,164 442,164 442,164 442,163 442,163 442,163 443,163 443,163 443,162 443,162 443,162 443,162 443,162 443,162 443,162 443,162 443,162 443,161 443,161 444,161 444,161 444,161 444,161 444,160 444,160 444,160 444,160 444,160 444,160 444,160 444,160 444,160 445,160 445,160 445,160 445,160 445,160 445,160 445,160 445,160 445,160 445,159 445,159 445,159 445,159 446,159 446,158 446,158 446,158 446,157 446,157 446,157 446,157 446,157 446,157 446,157 446,157 446,156 447,156 447,156 447,156 447,156 447,156 447,155 447,155 447,155 447,155 447,154 447,154 447,153 447,153 448,152 448,152 448,151 448,151 448,150 448,150 448,149 448,148 448,148 448,147 448,146 448,145 448,144 449,144 449,144 449,143 449,143 449,143 449,143 449,143 449,143 449,143 449,143 449,143 449,143 449,143 450,143 450,143 450,143 450,143 450,143 450,143 450,142 450,143 450,143 450,144 450,144 450,145 450,145 451,146 451,146 451,146 451,147 451,147 451,147 451,148 451,148 451,148 451,148 451,149 451,149 451,149 452,149 452,149 452,149 452,150 452,150 452,150 452,150 452,150 452,150 452,149 452,149 452,149 452,149 453,149 453,149 453,148 453,148 453,148 453,148 453,147 453,147 453,146 453,146 453,146 453,145 453,145 454,145 454,145 454,145 454,145 454,145 454,145 454,145 454,145 454,145 454,145 454,145 454,145 454,145 455,146 455,146 455,146 455,146 455,146 455,146 455,146 455,146 455,146 455,145 455,145 455,145 455,145 456,145 456,145 456,145 456,145 456,145 456,145 456,146 456,146 456,146 456,146 456,147 456,147 456,148 457,148 457,148 457,149 457,149 457,149 457,149 457,149 457,150 457,150 457,150 457,150 457,151 457,151 458,151 458,151 458,151 458,151 458,151 458,152 458,152 458,152 458,152 458,152 458,152 458,152 458,152 459,152 459,153 459,153 459,153 459,153 459,153 459,153 459,153 459,154 459,154 459,154 459,154 459,154 460,154 460,154 460,154 460,155 460,155 460,155 460,155 460,155 460,155 460,155 460,156 460,156 460,156 461,156 461,156 461,157 461,157 461,157 461,157 461,157 461,158 461,158 461,158 461,158 461,158 461,158 462,159 462,159 462,159 462,159 462,159 462,160 462,160 462,160 462,160 462,160 462,160 462,161 462,161 463,161 463,161 463,162 463,162 463,162 463,162 463,163 463,163 463,163 463,163 463,163 463,163 463,163 464,164 464,164 464,164 464,164 464,164 464,164 464,164 464,164 464,164 464,164 464,164 464,164 464,164 465,165 465,165 465,165 465,165 465,165 465,165 465,166 465,166 465,166 465,166 465,166 465,166 465,167 466,167 466,167 466,167 466,167 466,167 466,167 466,168 466,168 466,168 466,168 466,168 466,168 466,168 467,168 467,168 467,168 467,167 467,167 467,167 467,167 467,167 467,167 467,167 467,167 467,167 467,167 468,166 468,166 468,166 468,166 468,166 468,166 468,165 468,165 468,165 468,165 468,165 468,165 468,164 469,164 469,164 469,164 469,164 469,163 469,163 469,163 469,163 469,163 469,163 469,162 469,162 469,162 470,162 470,162 470,162 470,162 470,161 470,161 470,161 470,161 470,161 470,161 470,160 470,160 470,160 471,160 471,160 471,159 471,159 471,159 471,159 471,159 471,159 471,159 471,158 471,158 471,158 471,158 472,158 472,158 472,158 472,158 472,158 472,158 472,158 472,158 472,158 472,158 472,159 472,159 472,159 473,159 473,160 473,160 473,160 473,160 473,160 473,161 473,161 473,161 473,162 473,162 473,162 473,162 474,163 474,163 474,163 474,163 474,163 474,163 474,164 474,164 474,164 474,164 474,164 474,165 474,165 475,165 475,165 475,165 475,165 475,165 475,164 475,164 475,164 475,164 475,164 475,163 475,163 475,163 476,163 476,163 476,163 476,163 476,163 476,163 476,163 476,163 476,163 476,163 476,164 476,164 476,164 477,165 477,165 477,166 477,166 477,166 477,167 477,167 477,167 477,167 477,168 477,168 477,168 477,168 478,168 478,168 478,168 478,168 478,168 478,168 478,168 478,168 478,168 478,168 478,169 478,169 478,169 479,169 479,170 479,170 479,170 479,170 479,171 479,171 479,171 479,171 479,171 479,171 479,171 479,171 480,172 480,171 480,171 480,171 480,171 480,171 480,171 480,171 480,171 480,171 480,171 480,170 480,170 481,170 481,170 481,171 481,171 481,171 481,171 481,172 481,172 481,172 481,172 481,172 481,173 481,173 482,173 482,173 482,173 482,173 482,173 482,173 482,173 482,173 482,173 482,173 482,173 482,173 482,173 483,173 483,173 483,173 483,173 483,173 483,173 483,173 483,173 483,172 483,172 483,172 483,172 483,173 484,173 484,173 484,173 484,173 484,173 484,173 484,173 484,173 484,173 484,173 484,173 484,173 484,173 485,173 485,173 485,173 485,172 485,172 485,172 485,172 485,172 485,172 485,172 485,172 485,172 485,171 486,171 486,171 486,171 486,171 486,171 486,171 486,171 486,171 486,171 486,171 486,171 486,171 486,171 487,171 487,172 487,172 487,171 487,171 487,171 487,171 487,171 487,171 487,171 487,171 487,171 487,171 488,171 488,171 488,171 488,171 488,171 488,171 488,171 488,171 488,171 488,171 488,171 488,170 488,170 489,170 489,170 489,170 489,171 489,171 489,171 489,170 489,170 489,170 489,170 489,170 489,170 489,170 490,170 490,170 490,170 490,170 490,170 490,170 490,170 490,170 490,170 490,170 490,170 490,170 490,170 491,170 491,170 491,170 491,170 491,170 491,170 491,170 491,170 491,169 491,169 491,169 491,169 491,169 492,169 492,169 492,169 492,169 492,169 492,169 492,169 492,169 492,169 492,169 492,169 492,169 492,169 493,169 493,169 493,169 493,169 493,169 493,169 493,169 493,169 493,169 493,169 493,169 493,168 493,168 494,168 494,168 494,168 494,168 494,168 494,168 494,168 494,168 494,168 494,168 494,168 494,168 494,168 495,168 495,168 495,168 495,167 495,167 495,167 495,167 495,167 495,167 495,167 495,167 495,167 495,167 496,167 496,167 496,167 496,167 496,167 496,167 496,167 496,167 496,167 496,167 496,167 496,167 496,167 497,167 497,167 497,166 497,166 497,166 497,166 497,166 497,166 497,166 497,166 497,166 497,166 497,166 498,166 498,166 498,166 498,166 498,166 498,166 498,166 498,166 498,166 498,166 498,166 498,166 498,166 499,166 499,166 499,166 499,166 499,166 499,165 499,165 499,165 499,165 499,165 499,165 499,165 499,165 500,165 500,165 500,165 500,165 500,165 500,165 500,165 500,165 500,165 500,165 500,165 500,165 500,165 501,165 501,165 501,164 501,164 501,164 501,164 501,164 501,164 501,164 501,164 501,164 501,164 501,164 502,164 502,164 502,164 502,163 502,163 502,163 502,163 502,163 502,163 502,163 502,163 502,163 502,163 503,163 503,163 503,163 503,163 503,163 503,163 503,163 503,163 503,163 503,163 503,163 503,162 503,162 504,162 504,162 504,162 504,162 504,161 504,161 504,161 504,161 504,160 504,160 504,160 504,159 504,159 505,159 505,158 505,158 505,157 505,157 505,157 505,156 505,156 505,156 505,155 505,155 505,155 505,154 506,154 506,154 506,153 506,153 506,153 506,152 506,152 506,152 506,152 506,151 506,151 506,151 506,151 507,150 507,150 507,150 507,149 507,149 507,149 507,149 507,148 507,148 507,148 507,148 507,148 507,148 508,147 508,147 508,147 508,147 508,147 508,147 508,148 508,148 508,148 508,148 508,148 508,148 508,149 509,149 509,149 509,149 509,150 509,150 509,150 509,151 509,151 509,152 509,152 509,152 509,152 509,152 510,152 510,153 510,153 510,153 510,153 510,152 510,152 510,152 510,152 510,151 510,151 510,151 510,151 511,151 511,152 511,152 511,152 511,152 511,152 511,152 511,152 511,152 511,153 511,153 511,153 511,153 512,153 512,153 512,153 512,153 512,153 512,153 512,153 512,153 512,153 512,153 512,153 512,153 512,153 513,153 513,152 513,152 513,152 513,152 513,152 513,152 513,151 513,151 513,151 513,151 513,151 513,151 514,151 514,150 514,150 514,150 514,150 514,149 514,149 514,149 514,149 514,149 514,149 514,149 514,149 515,149 515,149 515,150 515,150 515,150 515,150 515,150 515,150 515,150 515,150 515,150 515,150 515,150 516,150 516,150 516,150 516,150 516,151 516,151 516,151 516,151 516,151 516,151 516,151 516,151 516,151 517,151 517,151 517,151 517,151 517,151 517,151 517,151 517,151 517,151 517,151 517,151 517,151 517,151 518,151 518,151 518,151 518,151 518,151 518,151 518,151 518,151 518,151 518,150 518,150 518,150 518,150 519,150 519,150 519,150 519,149 519,149 519,149 519,149 519,149 519,149 519,149 519,149 519,149 519,149 520,149 520,149 520,149 520,149 520,149 520,149 520,149 520,149 520,148 520,148 520,148 520,148 520,148 521,148 521,148 521,148 521,148 521,148 521,148 521,148 521,148 521,148 521,148 521,148 521,148 521,147 522,147 522,147 522,147 522,147 522,147 522,147 522,146 522,146 522,146 522,146 522,146 522,146 522,146 523,146 523,146 523,146 523,146 523,146 523,146 523,146 523,146 523,146 523,145 523,145 523,145 523,145 524,144 524,144 524,144 524,144 524,144 524,144 524,144 524,144 524,144 524,144 524,144 524,144 524,144 525,144 525,144 525,144 525,144 525,144 525,144 525,144 525,144 525,144 525,143 525,143 525,143 525,142 526,142 526,142 526,141 526,141 526,140 526,140 526,140 526,140 526,139 526,139 526,139 526,139 526,139 527,139 527,139 527,139 527,139 527,139 527,139 527,139 527,139 527,139 527,138 527,138 527,138 527,138 528,138 528,138 528,138 528,138 528,139 528,139 528,139 528,139 528,139 528,140 528,140 528,140 528,140 529,140 529,141 529,141 529,141 529,141 529,142 529,142 529,143 529,143 529,143 529,142 529,142 529,141 530,141 530,141 530,141 530,140 530,140 530,140 530,140 530,139 530,139 530,139 530,139 530,139 530,138 531,138 531,138 531,138 531,137 531,137 531,136 531,136 531,136 531,137 531,137 531,137 531,137 531,137 532,137 532,137 532,136 532,136 532,136 532,136 532,136 532,135 532,135 532,135 532,135 532,135 532,135 533,135 533,134 533,134 533,134 533,133 533,133 533,133 533,133 533,132 533,132 533,131 533,131 533,131 534,130 534,129 534,129 534,128 534,127 534,127 534,126 534,126 534,125 534,125 534,125 534,124 534,124 535,124 535,124 535,124 535,124 535,124 535,125 535,125 535,125 535,125 535,125 535,125 535,125 535,125 536,125 536,125 536,126 536,126 536,127 536,127 536,128 536,128 536,128 536,129 536,129 536,129 536,130 537,130 537,130 537,130 537,130 537,129 537,129 537,129 537,129 537,128 537,128 537,128 537,128 537,128 538,128 538,127 538,127 538,126 538,126 538,125 538,125 538,124 538,124 538,124 538,123 538,123 538,123 539,123 539,122 539,122 539,121 539,121 539,121 539,120 539,120 539,120 539,121 539,121 539,121 539,121 540,120 540,120 540,120 540,119 540,119 540,119 540,118 540,118 540,118 540,118 540,117 540,117 540,117 541,117 541,117 541,117 541,116 541,116 541,116 541,117 541,117 541,117 541,117 541,118 541,118 541,118 542,118 542,119 542,119 542,119 542,119 542,119 542,120 542,120 542,120 542,120 542,120 542,120 542,120 543,120 543,120 543,120 543,120 543,120 543,121 543,121 543,120 543,120 543,120 543,120 543,120 543,120 544,120 544,120 544,120 544,120 544,120 544,120 544,119 544,119 544,118 544,118 544,118 544,118 544,118 545,118 545,118 545,118 545,118 545,118 545,118 545,118 545,118 545,118 545,118 545,118 545,118 545,118 546,118 546,118 546,119 546,119 546,119 546,118 546,118 546,118 546,118 546,118 546,118 546,118 546,118 547,118 547,118 547,118 547,119 547,119 547,119 547,119 547,119 547,119 547,119 547,120 547,120 547,120 548,120 548,121 548,121 548,121 548,121 548,121 548,120 548,120 548,120 548,120 548,121 548,121 548,121 549,121 549,121 549,121 549,121 549,121 549,121 549,121 549,121 549,120 549,120 549,120 549,120 549,120 550,120 550,119 550,119 550,119 550,119 550,119 550,118 550,118 550,118 550,118 550,118 550,118 550,117 551,117 551,117 551,117 551,117 551,116 551,116 551,116 551,115 551,115 551,115 551,114 551,114 551,114 552,113 552,113 552,113 552,113 552,113 552,112 552,112 552,112 552,111 552,111 552,110 552,110 552,110 553,109 553,109 553,109 553,108 553,108 553,108 553,107 553,107 553,107 553,106 553,106 553,105 553,105 554,105 554,105 554,105 554,104 554,104 554,104 554,104 554,103 554,103 554,103 554,102 554,102 554,102 555,101 555,101 555,101 555,100 555,101 555,101 555,101 555,100 555,100 555,100 555,100 555,100 555,100 556,100 556,100 556,100 556,100 556,100 556,101 556,101 556,101 556,101 556,101 556,101 556,101 556,101 557,101 557,101 557,101 557,101 557,101 557,101 557,100 557,100 557,100 557,100 557,100 557,100 557,100 558,99 558,99 558,99 558,99 558,99 558,100 558,100 558,100 558,100 558,99 558,99 558,99 558,99 559,99 559,99 559,99 559,99 559,99 559,98 559,98 559,98 559,98 559,98 559,98 559,98 559,98 560,98 560,98 560,98 560,98 560,98 560,98 560,98 560,98 560,98 560,98 560,98 560,98 560,98 561,98 561,97 561,97 561,97 561,97 561,97 561,96 561,96 561,96 561,95 561,95 561,94 561,94 562,94 562,94 562,94 562,93 562,93 562,93 562,93 562,93 562,93 562,93 562,93 562,93 562,92 563,92 563,92 563,92 563,92 563,92 563,92 563,92 563,92 563,92 563,92 563,92 563,92 563,92 564,92 564,91 564,91 564,91 564,91 564,91 564,91 564,91 564,91 564,91 564,91 564,91 564,91 565,91 565,91 565,91 565,91 565,91 565,91 565,91 565,90 565,90 565,90 565,90 565,90 565,89 566,89 566,89 566,89 566,89 566,88 566,88 566,88 566,88 566,88 566,88 566,88 566,87 566,87 567,87 567,87 567,87 567,87 567,87 567,86 567,86 567,86 567,86 567,86 567,86 567,86 567,87 568,87 568,87 568,87 568,87 568,87 568,87 568,87 568,88 568,88 568,89 568,89 568,89 568,89 569,89 569,89 569,90 569,90 569,90 569,90 569,90 569,91 569,91 569,91 569,91 569,91 569,92 570,92 570,92 570,92 570,92 570,92 570,93 570,93 570,93 570,93 570,93 570,93 570,93 570,93 571,93 571,93 571,93 571,94 571,94 571,94 571,94 571,94 571,94 571,95 571,95 571,95 571,95 572,95 572,95 572,95 572,95 572,95 572,95 572,95 572,95 572,95 572,95 572,95 572,95 572,95 573,95 573,94 573,94 573,94 573,94 573,94 573,94 573,94 573,94 573,94 573,94 573,94 573,93 574,93 574,93 574,93 574,93 574,93 574,93 574,93 574,93 574,93 574,94 574,94 574,94 574,94 575,94 575,94 575,95 575,95 575,95 575,95 575,96 575,96 575,96 575,97 575,97 575,97 575,98 576,98 576,98 576,99 576,99 576,99 576,99 576,100 576,100 576,100 576,101 576,101 576,101 576,101 577,102 577,102 577,102 577,103 577,103 577,103 577,103 577,104 577,104 577,104 577,105 577,105 577,105 578,105 578,106 578,106 578,106 578,106 578,106 578,107 578,107 578,107 578,107 578,107 578,108 578,108 579,108 579,108 579,108 579,109 579,109 579,109 579,109 579,109 579,109 579,109 579,110 579,110 579,110 580,111 580,111 580,111 580,112 580,112 580,112 580,112 580,113 580,113 580,113 580,114 580,114 580,114 581,114 581,115 581,115 581,115 581,116 581,116 581,117 581,117 581,118 581,118 581,118 581,118 581,119 582,119 582,119 582,120 582,120 582,120 582,120 582,120 582,121 582,121 582,121 582,121 582,121 582,122 583,122 583,122 583,123 583,123 583,124 583,124 583,125 583,125 583,125 583,125 583,125 583,125 583,125 584,125 584,124 584,124 584,124 584,123 584,123 584,123 584,123 584,123 584,122 584,122 584,122 584,122 585,121 585,121 585,121 585,120 585,120 585,120 585,120 585,120 585,119 585,119 585,119 585,119 585,119 586,119 586,119 586,119 586,119 586,118 586,118 586,118 586,118 586,118 586,118 586,119 586,119 586,119 587,118 587,118 587,118 587,118 587,118 587,118 587,118 587,118 587,117 587,117 587,117 587,118 587,118 588,118 588,118 588,119 588,119 588,119 588,120 588,120 588,120 588,120 588,120 588,121 588,121 588,121 589,121 589,121 589,121 589,122 589,122 589,122 589,122 589,123 589,123 589,123 589,123 589,124 589,124 590,124 590,125 590,125 590,125 590,126 590,126 590,127 590,127 590,128 590,128 590,129 590,129 590,130 591,130 591,130 591,131 591,131 591,131 591,132 591,132 591,132 591,133 591,133 591,133 591,134 591,134 592,135 592,135 592,135 592,136 592,137 592,137 592,138 592,138 592,139 592,140 592,140 592,141 593,141 593,142 593,142 593,141 593,142 593,142 593,141 593,141 593,141 593,140 593,141 593,141 593,141 594,141 594,141 594,141 594,141 594,142 594,142 594,142 594,142 594,142 594,142 594,142 594,142 594,142 595,142 595,142 595,142 595,142 595,141 595,141 595,141 595,141 595,140 595,140 595,140 595,139 595,139 596,139 596,139 596,139 596,139 596,139 596,139 596,139 596,139 596,139 596,139 596,139 596,139 596,138 597,138 597,138 597,137 597,137 597,137 597,137 597,136 597,136 597,136 597,136 597,137 597,137 597,136 598,136 598,136 598,136 598,136 598,136 598,136 598,136 598,136 598,136 598,136 598,136 598,136 598,136 599,136 599,136 599,136 599,135 599,135 599,135 599,135 599,135 599,135 599,135 599,135 599,135 599,135 600,135 600,134 600,134 600,134 600,135 600,135 600,135 600,135 600,135 600,136 600,136 600,136 600,137 601,137 601,137 601,138 601,138 601,138 601,139 601,139 601,139 601,140 601,140 601,140 601,140 601,141 602,141 602,141 602,142 602,142 602,142 602,142 602,143 602,143 602,143 602,143 602,143 602,143 602,143 603,143 603,143 603,143 603,144 603,144 603,144 603,144 603,145 603,145 603,146 603,146 603,146 603,147 604,147 604,147 604,147 604,148 604,148 604,148 604,148 604,148 604,149 604,149 604,149 604,149 604,150 605,150 605,150 605,150 605,151 605,151 605,151 605,152 605,152 605,152 605,153 605,153 605,153 605,153 606,154 606,154 606,154 606,154 606,155 606,155 606,155 606,155 606,156 606,156 606,156 606,156 606,157 607,157 607,158 607,159 607,159 607,159 607,159 607,160 607,160 607,160 607,160 607,161 607,161 607,162 608,162 608,162 608,163 608,163 608,163 608,164 608,164 608,164 608,164 608,165 608,165 608,165 608,166 609,166 609,166 609,166 609,166 609,166 609,166 609,167 609,167 609,167 609,168 609,168 609,168 609,168 610,168 610,168 610,168 610,169 610,169 610,169 610,169 610,169 610,169 610,169 610,169 610,169 610,169 611,169 611,169 611,169 611,169 611,169 611,169 611,169 611,169 611,169 611,169 611,169 611,169 611,169 612,169 612,170 612,170 612,170 612,170 612,170 612,170 612,170 612,170 612,171 612,171 612,171 612,171 613,172 613,172 613,172 613,172 613,172 613,172 613,172 613,172 613,172 613,172 613,172 613,172 613,172 614,172 614,172 614,172 614,172 614,172 614,172 614,172 614,172 614,172 614,172 614,172 614,172 614,172 615,171 615,171 615,171 615,171 615,171 615,171 615,170 615,170 615,170 615,170 615,169 615,169 615,169 616,169 616,169 616,169 616,168 616,168 616,168 616,168 616,168 616,168 616,168 616,168 616,168 616,168 617,167 617,167 617,167 617,167 617,167 617,167 617,167 617,167 617,167 617,167 617,167 617,167 617,166 618,166 618,166 618,166 618,166 618,166 618,166 618,165 618,165 618,165 618,165 618,165 618,165 618,165 619,165 619,165 619,165 619,165 619,166 619,166 619,166 619,166 619,166 619,167 619,167 619,167 619,167 620,167 620,168 620,168 620,168 620,168 620,169 620,169 620,169 620,169 620,169 620,170 620,170 620,170 621,170 621,170 621,170 621,170 621,170 621,171 621,171 621,171 621,171 621,171 621,171 621,171 621,171 622,171 622,171 622,171 622,171 622,172 622,172 622,172 622,172 622,172 622,172 622,172 622,172 622,173 623,173 623,173 623,173 623,173 623,174 623,174 623,174 623,174 623,174 623,175 623,175 623,175 623,176 624,176 624,176 624,177 624,177 624,178 624,178 624,178 624,179 624,179 624,180 624,180 624,180 624,180 625,181 625,181 625,181 625,181 625,181 625,181 625,181 625,181 625,181 625,180 625,180 625,180 625,180 626,179 626,179 626,178 626,178 626,178 626,177 626,177 626,177 626,177 626,176 626,176 626,176 626,176 627,175 627,175 627,175 627,175 627,174 627,174 627,174 627,174 627,173 627,173 627,173 627,173 627,173 628,173 628,173 628,173 628,173 628,174 628,174 628,174 628,174 628,174 628,174 628,174 628,174 628,174 629,174 629,174 629,173 629,173 629,173 629,173 629,173 629,173 629,173 629,173 629,173 629,173 629,173 630,173 630,173 630,173 630,174 630,174 630,174 630,173 630,173 630,173 630,173 630,173 630,172 630,172 631,172 631,172 631,171 631,171 631,171 631,171 631,170 631,170 631,170 631,170 631,170 631,170 631,169 632,169 632,169 632,169 632,168 632,168 632,168 632,167 632,167 632,167 632,166 632,166 632,166 632,166 633,166 633,166 633,166 633,166 633,166 633,166 633,166 633,165 633,165 633,165 633,165 633,165 633,165 634,165 634,164 634,164 634,164 634,163 634,163 634,163 634,163 634,162 634,162 634,162 634,162 634,161 635,161 635,161 635,161 635,161 635,161 635,161 635,161 635,160 635,160 635,160 635,160 635,160 635,159 636,159 636,159 636,158 636,158 636,158 636,158 636,158 636,157 636,157 636,157 636,157 636,156 636,156 637,156 637,156 637,155 637,155 637,155 637,154 637,154 637,154 637,154 637,153 637,153 637,153 637,153 638,154 638,154 638,154 638,155 638,156 638,156 638,157 638,157 638,158 638,158 638,159 638,159 638,160 639,160 639,161 639,161 639,161 639,162 639,162 639,163 639,163 639,164 639,164 639,164 639,164 639,165 640,165 640,165 640,166 640,166 640,167 640,167 640,168 640,168 640,168 640,168 640,169 640,169 640,169 641,170 641,170 641,170 641,170 641,170 641,170 641,170 641,170 641,169 641,169 641,169 641,168 641,168 642,168 642,167 642,167 642,167 642,166 642,166 642,166 642,165 642,165 642,165 642,164 642,164 642,164 643,163 643,163 643,162 643,162 643,162 643,161 643,161 643,161 643,160 643,160 643,159 643,159 643,159 644,159 644,158 644,158 644,158 644,158 644,158 644,158 644,159 644,159 644,159 644,160 644,160 644,161 645,161 645,162 645,162 645,163 645,163 645,164 645,164 645,165 645,165 645,165 645,166 645,166 645,166 646,167 646,167 646,166 646,166 646,166 646,166 646,166 646,165 646,165 646,165 646,165 646,164 646,164 647,164 647,164 647,164 647,163 647,163 647,163 647,163 647,163 647,163 647,163 647,164 647,164 647,164 648,164 648,164 648,164 648,164 648,165 648,165 648,165 648,165 648,165 648,166 648,166 648,166 648,166 649,166 649,166 649,166 649,167 649,167 649,167 649,167 649,167 649,167 649,167 649,168 649,168 649,168 650,169 650,169 650,169 650,170 650,170 650,170 650,170 650,170 650,170 650,170 650,170 650,169 650,169 651,169 651,168 651,168 651,168 651,168 651,167 651,167 651,167 651,167 651,167 651,166 651,166 651,166 652,166 652,166 652,166 652,166 652,166 652,166 652,166 652,166 652,166 652,166 652,167 652,167 652,167 653,168 653,168 653,168 653,169 653,169 653,169 653,169 653,170 653,170 653,170 653,170 653,170 653,171 654,171 654,170 654,170 654,170 654,170 654,170 654,170 654,170 654,169 654,169 654,169 654,168 654,168 655,168 655,168 655,167 655,167 655,167 655,167 655,167 655,166 655,166 655,166 655,166 655,165 655,165 656,165 656,165 656,164 656,164 656,164 656,164 656,163 656,163 656,163 656,163 656,162 656,162 656,162 657,161 657,161 657,161 657,161 657,161 657,160 657,160 657,160 657,160 657,159 657,159 657,159 657,158 658,158 658,158 658,157 658,157 658,157 658,156 658,156 658,155 658,155 658,154 658,154 658,154 658,153 659,153 659,152 659,152 659,151 659,150 659,150 659,149 659,148 659,147 659,146 659,145 659,144 659,143 660,141 660,140 660,139 660,138 660,138 660,137 660,136 660,136 660,136 660,136 660,136 660,136 660,136 661,136 661,136 661,135 661,135 661,135 661,135 661,135 661,135 661,134 661,134 661,134 661,134 661,134 662,134 662,133 662,133 662,133 662,133 662,133 662,133 662,133 662,133 662,133 662,133 662,133 662,132 663,132 663,132 663,132 663,132 663,132 663,132 663,132 663,132 663,132 663,132 663,132 663,132 663,132 664,133 664,133 664,133 664,134 664,135 664,135 664,135 664,135 664,135 664,135 664,135 664,134 664,133 665,132 665,131 665,130 665,129 665,128 665,127 665,127 665,126 665,126 665,125 665,125 665,125 665,124 666,124 666,123 666,122 666,122 666,122 666,122 666,122 666,121 666,121 666,121 666,121 666,121 666,121 667,121 667,121 667,122 667,122 667,122 667,123 667,123 667,123 667,123 667,124 667,124 667,124 667,125 668,125 668,126 668,126 668,127 668,127 668,127 668,128 668,128 668,128 668,129 668,129 668,129 668,130 669,130 669,130 669,131 669,131 669,131 669,132 669,132 669,133 669,133 669,133 669,134 669,134 669,135 670,135 670,136 670,136 670,137 670,137 670,138 670,138 670,138 670,139 670,139 670,140 670,140 670,140 671,141 671,141 671,141 671,142 671,142 671,142 671,142 671,143 671,143 671,143 671,144 671,144 671,144 672,144 672,144 672,145 672,145 672,145 672,145 672,145 672,145 672,145 672,146 672,146 672,147 672,147 673,148 673,148 673,149 673,149 673,149 673,150 673,150 673,150 673,150 673,150 673,149 673,149 673,149 674,149 674,149 674,149 674,149 674,149 674,149 674,149 674,149 674,149 674,150 674,150 674,150 674,150 675,150 675,151 675,151 675,152 675,152 675,152 675,153 675,153 675,153 675,153 675,153 675,153 675,153 676,153 676,153 676,153 676,153 676,153 676,153 676,153 676,153 676,153 676,153 676,153 676,153 676,153 677,153 677,153 677,153 677,154 677,153 677,154 677,154 677,154 677,154 677,154 677,154 677,155 677,155 678,155 678,155 678,155 678,155 678,155 678,155 678,155 678,155 678,155 678,155 678,155 678,154 678,154 679,154 679,154 679,154 679,154 679,154 679,154 679,154 679,154 679,154 679,154 679,154 679,154 679,154 680,154 680,154 680,154 680,154 680,154 680,154 680,154 680,154 680,154 680,154 680,155 680,155 680,155 681,155 681,156 681,156 681,156 681,156 681,157 681,157 681,157 681,157 681,157 681,158 681,158 681,158 682,159 682,159 682,160 682,161 682,161 682,162 682,162 682,163 682,163 682,164 682,164 682,165 682,165 683,165 683,165 683,166 683,166 683,166 683,166 683,167 683,167 683,167 683,167 683,168 683,168 683,168 684,168 684,168 684,169 684,169 684,169 684,169 684,169 684,169 684,169 684,169 684,169 684,169 684,169 685,169 685,169 685,169 685,169 685,168 685,168 685,168 685,168 685,168 685,168 685,168 685,168 685,169 686,168 686,168 686,168 686,168 686,168 686,168 686,168 686,168 686,168 686,167 686,167 686,167 686,167 687,167 687,167 687,167 687,166 687,166 687,166 687,166 687,166 687,166 687,166 687,166 687,165 687,165 688,165 688,165 688,165 688,165 688,164 688,164 688,164 688,164 688,164 688,163 688,163 688,163 688,163 689,163 689,162 689,162 689,162 689,162 689,162 689,162 689,162 689,162 689,161 689,161 689,161 689,161 690,161 690,161 690,161 690,161 690,161 690,161 690,162 690,162 690,162 690,162 690,162 690,162 690,161 691,161 691,160 691,160 691,160 691,159 691,159 691,159 691,159 691,158 691,158 691,157 691,157 691,158 692,158 692,157 692,157 692,157 692,157 692,157 692,156 692,156 692,156 692,156 692,155 692,155 692,155 693,155 693,155 693,155 693,154 693,154 693,154 693,154 693,154 693,154 693,155 693,155 693,155 693,155 694,156 694,156 694,156 694,157 694,157 694,157 694,157 694,158 694,158 694,158 694,158 694,158 694,159 695,159 695,159 695,159 695,159 695,159 695,159 695,159 695,160 695,160 695,160 695,160 695,160 695,161 696,161 696,161 696,161 696,161 696,162 696,162 696,162 696,162 696,162 696,163 696,163 696,163 696,163 697,163 697,163 697,163 697,163 697,164 697,164 697,164 697,164 697,164 697,164 697,165 697,165 697,165 698,165 698,165 698,166 698,166 698,166 698,166 698,167 698,167 698,167 698,167 698,168 698,168 698,168 699,168 699,169 699,169 699,169 699,169 699,169 699,170 699,170 699,170 699,170 699,170 699,171 699,171 700,172 700,172 700,172 700,173 700,173 700,173 700,173 700,173 700,173 700,174 700,174 700,174 700,174 701,174 701,175 701,175 701,175 701,175 701,176 701,176 701,176 701,176 701,176 701,176 701,176 701,176 702,175 702,175 702,175 702,174 702,174 702,174 702,174 702,174 702,174 702,173 702,173 702,173 702,173 703,173 703,173 703,172 703,172 703,172 703,172 703,171 703,171 703,171 703,171 703,170 703,170 703,170 704,170 704,170 704,169 704,169 704,169 704,169 704,169 704,169 704,169 704,168 704,168 704,168 704,168 705,168 705,168 705,167 705,167 705,167 705,167 705,166 705,166 705,166 705,166 705,166 705,165 705,165 706,165 706,165 706,166 706,166 706,166 706,166 706,166 706,167 706,167 706,168 706,169 706,170 706,169 707,169 707,168 707,168 707,168 707,168 707,168 707,168 707,168 707,168 707,168 707,168 707,168 707,168 708,168 708,168 708,168 708,169 708,169 708,169 708,169 708,169 708,169 708,169 708,169 708,169 708,169 709,169 709,169 709,169 709,169 709,169 709,169 709,169 709,169 709,169 709,169 709,169 709,169 709,169 710,169 710,169 710,169 710,169 710,168 710,168 710,168 710,168 710,168 710,168 710,168 710,168 710,168 711,168 711,168 711,168 711,167 711,167 711,167 711,167 711,167 711,167 711,166 711,166 711,166 711,166 712,166 712,166 712,166 712,165 712,165 712,165 712,165 712,165 712,164 712,164 712,164 712,164 712,164 713,164 713,163 713,163 713,163 713,163 713,163 713,162 713,162 713,162 713,162 713,162 713,161 713,161 714,161 714,161 714,160 714,160 714,160 714,160 714,160 714,160 714,160 714,160 714,160 714,160 714,160 715,161 715,161 715,161 715,161 715,162 715,162 715,162 715,162 715,162 715,163 715,163 715,163 715,163 716,163 716,163 716,163 716,162 716,162 716,162 716,162 716,161 716,161 716,161 716,161 716,160 716,160 717,160 717,160 717,159 717,159 717,159 717,159 717,159 717,159 717,158 717,158 717,158 717,158 717,158 718,158 718,158 718,158 718,158 718,158 718,158 718,158 718,159 718,159 718,159 718,159 718,160 718,160 719,160 719,160 719,161 719,161 719,161 719,162 719,162 719,163 719,163 719,163 719,164 719,164 719,164 720,165 720,165 720,165 720,166 720,166 720,167 720,167 720,167 720,168 720,168 720,168 720,169 720,169 721,169 721,170 721,170 721,170 721,170 721,170 721,171 721,171 721,171 721,171 721,172 721,172 721,172 722,172 722,173 722,173 722,173 722,173 722,174 722,174 722,174 722,174 722,174 722,174 722,174 722,175 723,175 723,175 723,175 723,175 723,176 723,175 723,176 723,176 723,176 723,176 723,176 723,176 723,176 724,177 724,177 724,177 724,177 724,177 724,177 724,178 724,178 724,178 724,178 724,178 724,178 724,178 725,178 725,179 725,179 725,179 725,179 725,179 725,179 725,180 725,180 725,180 725,180 725,181 725,181 726,181 726,181 726,182 726,182 726,182 726,183 726,183 726,183 726,183 726,184 726,184 726,184 726,184 727,184 727,184 727,184 727,184 727,184 727,184 727,184 727,185 727,185 727,185 727,185 727,185 727,185 728,186 728,186 728,186 728,186 728,186 728,187 728,187 728,187 728,187 728,187 728,188 728,188 728,188 729,188 729,189 729,189 729,189 729,190 729,190 729,190 729,191 729,191 729,191 729,192 729,192 729,192 730,192 730,193 730,193 730,193 730,193 730,193 730,194 730,194 730,194 730,194 730,194 730,194 730,194 731,195 731,195 731,195 731,195 731,196 731,196 731,196 731,197 731,197 731,197 731,197 731,198 731,198 732,198 732,198 732,198 732,198 732,198 732,197 732,198 732,197 732,197 732,197 732,197 732,197 732,197 733,197 733,197 733,197 733,197 733,197 733,197 733,198 733,198 733,198 733,198 733,198 733,198 733,198 734,198 734,198 734,198 734,198 734,198 734,198 734,197 734,197 734,197 734,197 734,197 734,197 734,197 735,197 735,197 735,197 735,197 735,197 735,197 735,197 735,197 735,197 735,198 735,198 735,198 735,198 736,199 736,199 736,199 736,199 736,199 736,199 736,199 736,199 736,199 736,199 736,199 " vector-effect="non-scaling-stroke"></polyline>
</g></svg>