<?xml version="1.0" encoding="UTF-8" standalone="no"?><svg width="282.222mm" height="141.111mm" xmlns="http://www.w3.org/2000/svg" xmlns:xlink="http://www.w3.org/1999/xlink"  version="1.2" baseProfile="tiny"><g fill="none" stroke="#ff0000" stroke-linecap="round" stroke-linejoin="round" stroke-opacity="1" stroke-width="1.5" transform="matrix(1,0,0,1,0,0)">
<polyline fill="none" points="66,351 66,351 66,351 66,351 66,351 66,351 66,351 66,351 67,351 67,351 67,351 67,351 67,351 67,351 67,351 67,352 67,352 67,352 67,352 67,352 67,352 68,352 68,352 68,352 68,352 68,352 68,352 68,352 68,353 68,353 68,353 68,353 68,353 68,353 69,353 69,353 69,353 69,353 69,354 69,354 69,354 69,354 69,354 69,354 69,354 69,354 69,354 70,354 70,354 70,354 70,353 70,353 70,353 70,353 70,353 70,353 70,353 70,353 70,353 70,353 71,353 71,353 71,353 71,352 71,352 71,352 71,352 71,352 71,352 71,352 71,352 71,352 71,352 72,352 72,352 72,352 72,352 72,352 72,352 72,352 72,351 72,352 72,352 72,351 72,351 72,351 73,350 73,351 73,351 73,351 73,351 73,351 73,351 73,350 73,350 73,350 73,350 73,350 73,350 74,350 74,350 74,351 74,351 74,351 74,351 74,351 74,352 74,352 74,352 74,352 74,352 74,352 75,352 75,352 75,352 75,352 75,352 75,352 75,352 75,352 75,353 75,353 75,352 75,352 75,352 76,352 76,352 76,352 76,352 76,352 76,352 76,352 76,353 76,353 76,353 76,353 76,353 76,353 77,353 77,353 77,353 77,353 77,353 77,353 77,353 77,353 77,353 77,353 77,353 77,353 77,353 78,354 78,354 78,354 78,354 78,354 78,354 78,354 78,354 78,354 78,354 78,354 78,354 78,354 79,354 79,354 79,354 79,354 79,354 79,354 79,354 79,354 79,354 79,354 79,354 79,354 79,354 80,354 80,354 80,354 80,354 80,354 80,354 80,354 80,355 80,355 80,355 80,355 80,355 80,355 81,355 81,356 81,356 81,356 81,356 81,356 81,356 81,356 81,356 81,356 81,356 81,356 81,356 82,357 82,357 82,357 82,357 82,357 82,357 82,357 82,357 82,357 82,357 82,357 82,357 83,357 83,357 83,357 83,357 83,357 83,357 83,357 83,357 83,357 83,357 83,357 83,357 83,357 84,357 84,357 84,357 84,357 84,357 84,356 84,356 84,356 84,356 84,356 84,356 84,356 84,356 85,356 85,356 85,355 85,355 85,355 85,355 85,355 85,355 85,354 85,354 85,354 85,354 85,354 86,354 86,354 86,354 86,354 86,354 86,354 86,353 86,353 86,353 86,353 86,353 86,353 86,353 87,353 87,353 87,353 87,353 87,353 87,353 87,353 87,353 87,353 87,353 87,353 87,353 87,353 88,353 88,353 88,353 88,353 88,353 88,353 88,353 88,352 88,352 88,352 88,352 88,352 88,352 89,352 89,352 89,352 89,352 89,352 89,352 89,352 89,352 89,353 89,353 89,353 89,353 89,353 90,352 90,352 90,352 90,352 90,352 90,352 90,352 90,352 90,352 90,352 90,352 90,352 90,352 91,352 91,352 91,352 91,352 91,352 91,352 91,352 91,352 91,352 91,352 91,352 91,352 91,352 92,352 92,352 92,352 92,352 92,352 92,352 92,352 92,352 92,352 92,351 92,351 92,351 92,351 93,351 93,351 93,351 93,351 93,351 93,351 93,351 93,351 93,351 93,350 93,350 93,350 93,351 94,351 94,351 94,351 94,351 94,351 94,351 94,351 94,351 94,351 94,351 94,350 94,350 94,350 95,350 95,350 95,350 95,350 95,350 95,350 95,350 95,350 95,350 95,350 95,350 95,350 95,350 96,350 96,350 96,350 96,350 96,350 96,350 96,350 96,350 96,350 96,350 96,350 96,350 96,349 97,349 97,350 97,350 97,350 97,349 97,349 97,349 97,349 97,349 97,349 97,349 97,349 97,349 98,349 98,348 98,348 98,348 98,348 98,348 98,349 98,349 98,349 98,349 98,349 98,349 98,349 99,349 99,349 99,349 99,348 99,348 99,348 99,348 99,348 99,349 99,349 99,348 99,348 99,348 100,348 100,348 100,348 100,348 100,348 100,348 100,348 100,348 100,347 100,348 100,348 100,348 100,348 101,347 101,347 101,347 101,347 101,348 101,348 101,348 101,348 101,347 101,347 101,347 101,348 101,348 102,348 102,348 102,347 102,347 102,347 102,347 102,347 102,347 102,347 102,347 102,347 102,347 102,347 103,347 103,347 103,347 103,347 103,347 103,347 103,347 103,347 103,347 103,347 103,347 103,346 103,346 104,346 104,346 104,346 104,346 104,346 104,346 104,346 104,346 104,347 104,347 104,346 104,346 104,346 105,346 105,346 105,346 105,346 105,347 105,347 105,347 105,347 105,347 105,346 105,346 105,346 105,346 106,346 106,346 106,346 106,346 106,346 106,346 106,346 106,346 106,346 106,346 106,346 106,346 106,346 107,346 107,346 107,345 107,345 107,345 107,345 107,345 107,345 107,345 107,345 107,345 107,345 107,345 108,344 108,344 108,344 108,344 108,344 108,344 108,344 108,344 108,344 108,344 108,344 108,344 108,344 109,344 109,344 109,344 109,344 109,343 109,343 109,343 109,343 109,343 109,343 109,343 109,343 109,343 110,343 110,343 110,343 110,343 110,343 110,343 110,343 110,343 110,343 110,343 110,343 110,343 110,342 111,342 111,342 111,342 111,342 111,342 111,342 111,342 111,342 111,342 111,342 111,342 111,342 111,342 112,342 112,342 112,341 112,341 112,342 112,341 112,341 112,341 112,341 112,342 112,342 112,342 112,342 113,342 113,342 113,341 113,341 113,341 113,341 113,341 113,341 113,341 113,341 113,341 113,341 113,341 114,341 114,341 114,341 114,341 114,341 114,341 114,341 114,341 114,341 114,341 114,341 114,341 114,341 115,341 115,340 115,340 115,340 115,340 115,340 115,340 115,340 115,339 115,339 115,339 115,339 115,339 116,340 116,340 116,340 116,340 116,340 116,340 116,340 116,340 116,340 116,340 116,340 116,340 116,340 117,340 117,340 117,340 117,339 117,339 117,339 117,339 117,339 117,339 117,339 117,339 117,340 117,340 118,340 118,340 118,340 118,340 118,340 118,340 118,340 118,340 118,340 118,339 118,339 118,340 118,339 119,339 119,339 119,339 119,339 119,339 119,339 119,339 119,339 119,339 119,339 119,339 119,339 119,338 120,338 120,338 120,338 120,338 120,338 120,338 120,338 120,338 120,338 120,338 120,338 120,338 120,338 121,337 121,337 121,337 121,337 121,337 121,337 121,337 121,337 121,337 121,337 121,337 121,337 121,337 122,337 122,337 122,337 122,337 122,336 122,336 122,336 122,336 122,336 122,336 122,336 122,336 122,336 123,336 123,336 123,336 123,336 123,336 123,336 123,336 123,336 123,336 123,336 123,336 123,336 123,336 124,336 124,336 124,336 124,336 124,336 124,336 124,336 124,336 124,336 124,335 124,335 124,335 124,335 125,335 125,335 125,335 125,335 125,335 125,335 125,335 125,334 125,334 125,334 125,334 125,334 125,334 126,334 126,334 126,334 126,334 126,334 126,333 126,333 126,334 126,333 126,333 126,333 126,333 126,333 127,333 127,334 127,334 127,334 127,334 127,334 127,334 127,334 127,334 127,334 127,334 127,333 127,333 128,333 128,333 128,332 128,332 128,333 128,333 128,333 128,333 128,333 128,333 128,333 128,333 128,333 129,333 129,332 129,332 129,332 129,332 129,332 129,332 129,332 129,332 129,332 129,332 129,332 129,332 130,332 130,331 130,331 130,331 130,331 130,331 130,330 130,330 130,330 130,330 130,330 130,330 130,330 131,330 131,330 131,330 131,330 131,330 131,330 131,330 131,330 131,330 131,330 131,330 131,331 131,331 132,330 132,330 132,330 132,330 132,330 132,330 132,329 132,329 132,329 132,329 132,329 132,329 132,329 133,329 133,329 133,329 133,329 133,329 133,328 133,328 133,328 133,328 133,328 133,328 133,328 133,328 134,328 134,328 134,328 134,327 134,327 134,327 134,327 134,327 134,327 134,327 134,327 134,327 134,327 135,327 135,327 135,327 135,327 135,327 135,327 135,327 135,327 135,327 135,326 135,326 135,326 135,326 136,326 136,326 136,326 136,326 136,325 136,325 136,325 136,325 136,325 136,325 136,325 136,325 136,325 137,325 137,325 137,325 137,325 137,324 137,324 137,324 137,324 137,324 137,324 137,324 137,324 137,324 138,324 138,324 138,324 138,324 138,324 138,324 138,324 138,323 138,323 138,323 138,323 138,323 138,323 139,323 139,323 139,323 139,322 139,322 139,322 139,322 139,322 139,321 139,321 139,321 139,321 139,321 140,321 140,321 140,321 140,321 140,321 140,321 140,321 140,321 140,321 140,321 140,321 140,321 140,320 141,320 141,320 141,320 141,320 141,320 141,319 141,319 141,319 141,319 141,319 141,319 141,319 141,319 142,319 142,319 142,319 142,319 142,319 142,319 142,319 142,319 142,319 142,319 142,319 142,320 142,320 143,320 143,320 143,319 143,317 143,317 143,317 143,317 143,317 143,317 143,317 143,317 143,317 143,317 144,317 144,317 144,317 144,317 144,317 144,317 144,317 144,316 144,316 144,316 144,316 144,316 144,316 145,316 145,316 145,316 145,316 145,315 145,315 145,315 145,315 145,315 145,315 145,315 145,315 145,315 146,315 146,315 146,314 146,314 146,314 146,313 146,313 146,313 146,313 146,313 146,313 146,313 146,313 147,313 147,313 147,313 147,313 147,313 147,313 147,313 147,312 147,312 147,312 147,311 147,311 147,311 148,311 148,311 148,311 148,311 148,312 148,311 148,311 148,311 148,311 148,311 148,311 148,311 148,311 149,310 149,310 149,310 149,310 149,310 149,310 149,310 149,310 149,310 149,310 149,310 149,310 149,309 150,309 150,309 150,309 150,309 150,309 150,308 150,308 150,308 150,308 150,307 150,307 150,307 150,307 151,307 151,307 151,307 151,307 151,307 151,307 151,307 151,307 151,307 151,307 151,306 151,306 151,306 152,306 152,305 152,305 152,305 152,305 152,305 152,305 152,305 152,305 152,305 152,305 152,305 152,305 153,305 153,305 153,305 153,305 153,305 153,304 153,304 153,304 153,304 153,304 153,304 153,304 153,304 154,303 154,303 154,303 154,303 154,303 154,303 154,303 154,303 154,303 154,303 154,303 154,303 154,303 155,303 155,302 155,302 155,302 155,302 155,302 155,302 155,302 155,302 155,302 155,301 155,301 155,301 156,301 156,301 156,301 156,301 156,301 156,301 156,301 156,301 156,301 156,301 156,300 156,300 156,300 157,300 157,300 157,300 157,300 157,299 157,299 157,299 157,299 157,299 157,298 157,298 157,298 157,298 158,298 158,298 158,298 158,298 158,298 158,298 158,298 158,298 158,297 158,297 158,297 158,297 158,296 159,296 159,296 159,297 159,297 159,297 159,297 159,297 159,297 159,297 159,297 159,297 159,297 159,297 160,297 160,297 160,297 160,297 160,296 160,296 160,296 160,296 160,296 160,296 160,296 160,296 160,296 161,296 161,296 161,295 161,295 161,295 161,295 161,295 161,295 161,294 161,294 161,294 161,294 161,293 162,293 162,293 162,293 162,293 162,293 162,293 162,292 162,292 162,292 162,292 162,291 162,291 162,291 163,291 163,291 163,291 163,291 163,291 163,291 163,290 163,290 163,290 163,290 163,290 163,290 163,290 164,290 164,289 164,289 164,288 164,288 164,288 164,289 164,289 164,289 164,289 164,289 164,289 164,289 165,289 165,289 165,289 165,289 165,289 165,289 165,289 165,290 165,290 165,290 165,290 165,290 165,289 166,289 166,289 166,289 166,289 166,288 166,288 166,288 166,287 166,287 166,287 166,287 166,286 166,286 167,286 167,286 167,286 167,286 167,285 167,285 167,285 167,285 167,285 167,285 167,285 167,285 167,285 168,285 168,284 168,283 168,283 168,283 168,282 168,282 168,282 168,282 168,282 168,282 168,282 168,282 169,282 169,282 169,282 169,282 169,281 169,281 169,281 169,280 169,280 169,280 169,280 169,279 169,279 170,279 170,279 170,279 170,279 170,278 170,278 170,278 170,277 170,277 170,277 170,277 170,276 170,276 171,276 171,275 171,275 171,274 171,274 171,274 171,273 171,273 171,273 171,273 171,272 171,272 171,271 172,271 172,271 172,271 172,271 172,270 172,270 172,269 172,269 172,269 172,268 172,268 172,267 172,267 173,266 173,266 173,267 173,266 173,266 173,266 173,266 173,266 173,265 173,265 173,264 173,264 173,264 174,263 174,262 174,262 174,261 174,260 174,259 174,258 174,257 174,257 174,256 174,256 174,255 174,254 175,253 175,253 175,252 175,252 175,251 175,251 175,250 175,250 175,249 175,249 175,249 175,248 175,247 176,247 176,247 176,246 176,246 176,246 176,246 176,246 176,246 176,246 176,245 176,245 176,245 176,244 177,244 177,244 177,243 177,243 177,242 177,242 177,241 177,241 177,241 177,242 177,242 177,242 177,242 178,242 178,243 178,243 178,243 178,243 178,243 178,243 178,243 178,244 178,244 178,244 178,244 178,245 179,245 179,246 179,246 179,247 179,248 179,249 179,250 179,251 179,252 179,253 179,253 179,253 179,253 180,253 180,253 180,253 180,253 180,252 180,252 180,251 180,250 180,250 180,249 180,249 180,249 180,248 181,248 181,249 181,249 181,249 181,248 181,248 181,248 181,249 181,249 181,249 181,249 181,249 181,250 182,250 182,251 182,251 182,250 182,250 182,250 182,250 182,249 182,248 182,247 182,246 182,246 182,245 183,245 183,244 183,244 183,242 183,242 183,241 183,240 183,240 183,239 183,239 183,237 183,236 183,236 184,235 184,235 184,235 184,234 184,233 184,232 184,231 184,230 184,229 184,228 184,227 184,226 184,225 185,224 185,223 185,222 185,221 185,220 185,219 185,218 185,217 185,216 185,214 185,212 185,211 185,210 186,208 186,207 186,206 186,206 186,205 186,204 186,204 186,203 186,203 186,203 186,203 186,203 186,202 187,202 187,202 187,201 187,201 187,201 187,201 187,201 187,200 187,200 187,200 187,200 187,200 187,200 188,200 188,200 188,200 188,200 188,201 188,202 188,203 188,205 188,206 188,208 188,209 188,211 188,212 189,213 189,214 189,215 189,215 189,214 189,212 189,211 189,209 189,207 189,206 189,205 189,204 189,203 190,202 190,200 190,199 190,198 190,197 190,195 190,194 190,193 190,192 190,191 190,191 190,191 190,191 191,191 191,191 191,191 191,192 191,192 191,192 191,192 191,192 191,192 191,192 191,192 191,192 191,192 192,192 192,191 192,191 192,191 192,191 192,191 192,192 192,192 192,193 192,195 192,196 192,198 192,199 193,200 193,201 193,203 193,204 193,205 193,207 193,209 193,210 193,211 193,212 193,213 193,214 194,217 194,218 194,219 194,220 194,221 194,223 194,224 194,225 194,227 194,229 194,231 194,232 194,234 195,235 195,237 195,238 195,239 195,240 195,242 195,243 195,244 195,244 195,245 195,246 195,246 195,246 196,246 196,246 196,246 196,245 196,245 196,244 196,244 196,244 196,244 196,244 196,244 196,244 196,245 197,245 197,245 197,245 197,246 197,246 197,247 197,248 197,250 197,251 197,252 197,253 197,253 197,254 198,254 198,254 198,254 198,253 198,253 198,253 198,252 198,252 198,251 198,250 198,250 198,249 198,249 199,249 199,249 199,249 199,249 199,249 199,249 199,249 199,249 199,248 199,248 199,248 199,247 199,247 200,247 200,247 200,247 200,246 200,245 200,245 200,245 200,245 200,244 200,244 200,243 200,243 200,242 201,242 201,241 201,241 201,242 201,242 201,242 201,242 201,242 201,243 201,243 201,243 201,244 201,244 202,244 202,245 202,246 202,246 202,245 202,245 202,245 202,245 202,245 202,245 202,245 202,245 202,244 203,244 203,245 203,245 203,244 203,244 203,243 203,242 203,242 203,242 203,241 203,241 203,241 203,242 204,243 204,243 204,243 204,243 204,243 204,243 204,243 204,242 204,240 204,239 204,239 204,239 204,239 205,238 205,237 205,236 205,235 205,234 205,233 205,233 205,232 205,231 205,231 205,230 205,229 205,229 206,228 206,227 206,226 206,226 206,226 206,225 206,225 206,224 206,223 206,222 206,222 206,222 206,222 207,222 207,223 207,223 207,222 207,222 207,221 207,222 207,222 207,222 207,223 207,222 207,223 207,223 208,224 208,224 208,223 208,223 208,224 208,224 208,224 208,224 208,223 208,224 208,224 208,224 208,225 209,225 209,226 209,226 209,226 209,227 209,226 209,226 209,226 209,226 209,226 209,225 209,225 209,224 210,223 210,222 210,221 210,220 210,219 210,218 210,217 210,216 210,215 210,215 210,214 210,213 210,212 211,212 211,211 211,210 211,210 211,209 211,209 211,209 211,208 211,208 211,208 211,208 211,207 211,207 212,206 212,206 212,205 212,205 212,204 212,204 212,203 212,203 212,202 212,202 212,201 212,201 212,200 213,200 213,199 213,199 213,199 213,199 213,199 213,199 213,199 213,199 213,199 213,199 213,199 213,198 214,198 214,198 214,198 214,197 214,196 214,195 214,195 214,196 214,199 214,201 214,202 214,202 214,202 215,202 215,202 215,202 215,204 215,205 215,205 215,206 215,207 215,208 215,208 215,209 215,211 215,210 216,210 216,210 216,209 216,209 216,209 216,208 216,207 216,205 216,204 216,202 216,201 216,199 216,198 217,197 217,195 217,193 217,192 217,190 217,188 217,187 217,185 217,184 217,182 217,181 217,179 217,178 218,176 218,174 218,172 218,170 218,169 218,168 218,167 218,166 218,165 218,164 218,164 218,164 218,163 219,162 219,161 219,160 219,159 219,158 219,157 219,156 219,155 219,154 219,153 219,153 219,152 219,151 220,150 220,150 220,149 220,149 220,148 220,148 220,147 220,146 220,146 220,145 220,144 220,142 220,141 221,140 221,141 221,143 221,144 221,144 221,145 221,145 221,145 221,145 221,145 221,145 221,145 221,145 222,145 222,145 222,144 222,144 222,144 222,144 222,144 222,144 222,144 222,144 222,144 222,144 222,145 223,145 223,145 223,145 223,145 223,145 223,145 223,145 223,146 223,146 223,146 223,146 223,147 223,147 224,147 224,148 224,148 224,149 224,150 224,150 224,151 224,152 224,153 224,154 224,154 224,155 224,156 225,157 225,158 225,159 225,159 225,160 225,161 225,162 225,162 225,163 225,164 225,165 225,166 225,167 226,168 226,169 226,170 226,171 226,172 226,172 226,173 226,174 226,175 226,176 226,177 226,177 226,177 227,177 227,177 227,178 227,178 227,178 227,178 227,178 227,178 227,178 227,178 227,178 227,177 227,177 228,177 228,177 228,177 228,177 228,177 228,177 228,177 228,177 228,177 228,177 228,177 228,178 228,178 229,179 229,179 229,179 229,180 229,180 229,181 229,181 229,182 229,182 229,182 229,181 229,181 229,181 230,181 230,181 230,180 230,180 230,180 230,180 230,180 230,180 230,180 230,180 230,180 230,179 230,179 231,179 231,178 231,178 231,178 231,178 231,178 231,177 231,177 231,177 231,177 231,176 231,176 231,176 232,176 232,176 232,176 232,175 232,175 232,175 232,175 232,174 232,174 232,174 232,173 232,172 232,171 233,170 233,169 233,168 233,167 233,166 233,165 233,164 233,163 233,163 233,163 233,163 233,163 233,163 234,163 234,163 234,163 234,162 234,162 234,162 234,162 234,162 234,162 234,162 234,162 234,162 234,161 235,161 235,161 235,161 235,161 235,161 235,161 235,161 235,161 235,162 235,162 235,162 235,162 235,162 236,162 236,162 236,162 236,161 236,161 236,161 236,160 236,160 236,160 236,159 236,158 236,157 236,157 237,156 237,155 237,154 237,153 237,152 237,151 237,150 237,149 237,148 237,147 237,146 237,145 237,143 238,142 238,141 238,140 238,140 238,139 238,139 238,138 238,138 238,137 238,137 238,136 238,136 238,136 239,135 239,135 239,134 239,133 239,133 239,132 239,132 239,132 239,132 239,132 239,132 239,132 239,131 240,131 240,131 240,131 240,131 240,131 240,131 240,131 240,132 240,132 240,132 240,132 240,132 240,132 241,132 241,132 241,132 241,132 241,132 241,132 241,132 241,132 241,132 241,132 241,131 241,131 241,131 242,131 242,131 242,130 242,130 242,130 242,129 242,129 242,128 242,128 242,127 242,126 242,126 242,126 243,126 243,126 243,126 243,126 243,126 243,126 243,126 243,126 243,126 243,126 243,126 243,126 243,126 244,127 244,127 244,127 244,127 244,127 244,127 244,127 244,127 244,127 244,127 244,127 244,127 244,127 245,127 245,126 245,127 245,127 245,127 245,128 245,129 245,130 245,131 245,131 245,132 245,132 245,133 246,134 246,136 246,137 246,138 246,139 246,140 246,141 246,141 246,142 246,142 246,143 246,143 246,143 247,143 247,142 247,142 247,141 247,141 247,140 247,139 247,139 247,139 247,138 247,138 247,137 247,137 248,137 248,137 248,137 248,137 248,137 248,137 248,137 248,137 248,138 248,138 248,138 248,139 248,139 249,140 249,140 249,140 249,140 249,141 249,140 249,140 249,140 249,140 249,139 249,139 249,138 249,137 250,135 250,134 250,133 250,131 250,131 250,130 250,129 250,128 250,127 250,126 250,125 250,124 250,124 251,123 251,122 251,121 251,121 251,120 251,119 251,119 251,118 251,118 251,117 251,117 251,117 251,116 252,116 252,116 252,115 252,115 252,115 252,115 252,115 252,115 252,115 252,114 252,114 252,114 252,114 253,114 253,114 253,114 253,114 253,114 253,114 253,114 253,114 253,115 253,115 253,115 253,115 253,115 254,115 254,116 254,116 254,116 254,116 254,117 254,117 254,118 254,118 254,118 254,118 254,118 254,118 255,118 255,118 255,118 255,118 255,118 255,118 255,118 255,118 255,118 255,117 255,116 255,116 255,115 256,114 256,114 256,113 256,112 256,112 256,111 256,111 256,110 256,110 256,109 256,109 256,109 256,108 257,108 257,107 257,106 257,106 257,106 257,104 257,103 257,102 257,102 257,101 257,100 257,99 257,99 258,98 258,98 258,97 258,97 258,97 258,98 258,98 258,99 258,99 258,99 258,99 258,99 258,98 259,98 259,98 259,98 259,98 259,98 259,97 259,97 259,96 259,95 259,95 259,95 259,95 259,95 260,96 260,96 260,96 260,96 260,97 260,97 260,96 260,96 260,96 260,96 260,95 260,95 260,95 261,95 261,95 261,94 261,94 261,94 261,93 261,93 261,92 261,92 261,91 261,90 261,89 261,89 262,88 262,87 262,86 262,86 262,86 262,86 262,86 262,86 262,86 262,86 262,86 262,86 262,86 263,86 263,86 263,86 263,86 263,85 263,85 263,85 263,85 263,84 263,84 263,84 263,83 263,83 264,83 264,83 264,83 264,83 264,83 264,83 264,83 264,83 264,83 264,83 264,83 264,83 264,84 265,84 265,84 265,84 265,84 265,84 265,84 265,84 265,84 265,84 265,84 265,84 265,84 265,84 266,84 266,84 266,84 266,84 266,83 266,83 266,83 266,83 266,84 266,85 266,86 266,86 266,87 267,87 267,88 267,88 267,88 267,89 267,90 267,90 267,91 267,92 267,93 267,94 267,94 267,95 268,95 268,96 268,96 268,97 268,97 268,97 268,97 268,97 268,97 268,97 268,97 268,97 268,98 269,99 269,99 269,99 269,100 269,100 269,100 269,100 269,100 269,100 269,100 269,100 269,101 269,100 270,100 270,100 270,100 270,100 270,100 270,100 270,100 270,100 270,100 270,101 270,101 270,101 270,101 271,101 271,101 271,101 271,101 271,101 271,101 271,102 271,102 271,102 271,102 271,103 271,104 271,104 272,104 272,104 272,104 272,105 272,105 272,105 272,105 272,106 272,106 272,106 272,106 272,107 272,107 273,107 273,107 273,107 273,107 273,108 273,108 273,109 273,110 273,110 273,111 273,111 273,112 273,113 274,113 274,114 274,115 274,115 274,115 274,116 274,116 274,116 274,116 274,116 274,116 274,117 274,117 275,117 275,117 275,117 275,118 275,118 275,118 275,118 275,118 275,119 275,119 275,120 275,120 275,120 276,120 276,120 276,120 276,120 276,120 276,120 276,120 276,119 276,119 276,118 276,118 276,118 276,117 277,117 277,117 277,116 277,116 277,116 277,115 277,115 277,115 277,114 277,114 277,114 277,113 277,113 278,112 278,112 278,112 278,111 278,111 278,111 278,111 278,110 278,110 278,110 278,110 278,110 278,110 279,110 279,110 279,110 279,109 279,109 279,108 279,108 279,107 279,107 279,106 279,106 279,106 279,105 280,105 280,105 280,104 280,104 280,104 280,104 280,103 280,103 280,103 280,103 280,103 280,103 280,104 281,104 281,104 281,104 281,104 281,104 281,105 281,105 281,105 281,105 281,105 281,105 281,104 281,104 282,103 282,103 282,102 282,102 282,102 282,102 282,101 282,101 282,102 282,102 282,103 282,103 282,104 283,104 283,105 283,105 283,106 283,106 283,106 283,107 283,107 283,107 283,108 283,108 283,108 283,108 284,108 284,108 284,108 284,108 284,108 284,108 284,109 284,109 284,109 284,109 284,110 284,110 284,110 285,111 285,112 285,112 285,112 285,113 285,114 285,115 285,115 285,116 285,117 285,117 285,118 285,118 286,119 286,119 286,120 286,120 286,120 286,121 286,121 286,122 286,122 286,123 286,123 286,123 286,124 287,124 287,125 287,125 287,125 287,125 287,126 287,126 287,126 287,127 287,127 287,127 287,128 287,128 288,128 288,129 288,129 288,130 288,130 288,130 288,131 288,131 288,132 288,133 288,133 288,134 288,134 289,135 289,136 289,136 289,137 289,138 289,138 289,139 289,140 289,141 289,142 289,143 289,144 289,145 290,146 290,147 290,148 290,149 290,150 290,151 290,152 290,153 290,154 290,155 290,155 290,156 290,157 291,158 291,159 291,160 291,160 291,161 291,162 291,163 291,163 291,164 291,165 291,165 291,166 291,166 292,167 292,167 292,167 292,168 292,168 292,168 292,169 292,169 292,169 292,170 292,170 292,171 292,171 293,172 293,173 293,173 293,174 293,175 293,175 293,176 293,177 293,177 293,178 293,179 293,179 293,180 294,181 294,182 294,183 294,184 294,185 294,186 294,187 294,188 294,189 294,190 294,191 294,192 294,193 295,194 295,195 295,195 295,195 295,195 295,194 295,195 295,195 295,195 295,195 295,196 295,196 295,196 296,196 296,196 296,196 296,197 296,197 296,197 296,198 296,198 296,199 296,199 296,200 296,200 296,200 297,200 297,200 297,200 297,199 297,199 297,198 297,197 297,196 297,196 297,196 297,196 297,196 297,196 298,196 298,195 298,195 298,195 298,195 298,195 298,194 298,194 298,194 298,194 298,194 298,193 298,193 299,193 299,193 299,193 299,193 299,192 299,192 299,192 299,191 299,191 299,191 299,191 299,192 299,192 300,192 300,193 300,193 300,193 300,193 300,193 300,193 300,192 300,192 300,192 300,192 300,191 300,191 301,190 301,189 301,188 301,187 301,186 301,185 301,184 301,183 301,182 301,181 301,179 301,177 301,176 302,176 302,176 302,175 302,175 302,174 302,174 302,175 302,175 302,175 302,175 302,175 302,175 302,174 303,174 303,174 303,174 303,174 303,174 303,174 303,173 303,173 303,173 303,173 303,173 303,173 303,172 304,172 304,172 304,172 304,172 304,171 304,171 304,171 304,171 304,171 304,171 304,171 304,171 305,171 305,171 305,171 305,171 305,171 305,171 305,171 305,171 305,171 305,170 305,171 305,171 305,171 306,172 306,173 306,174 306,174 306,175 306,176 306,178 306,179 306,180 306,180 306,181 306,181 306,182 307,181 307,181 307,181 307,180 307,180 307,179 307,179 307,178 307,177 307,176 307,176 307,175 307,174 308,174 308,173 308,173 308,172 308,172 308,171 308,171 308,171 308,171 308,171 308,171 308,171 308,171 309,171 309,171 309,171 309,171 309,171 309,171 309,172 309,172 309,172 309,171 309,171 309,171 309,172 310,172 310,172 310,173 310,173 310,173 310,173 310,173 310,173 310,174 310,174 310,174 310,175 310,176 311,180 311,181 311,181 311,181 311,182 311,182 311,183 311,184 311,184 311,185 311,185 311,186 311,186 312,187 312,187 312,187 312,187 312,187 312,187 312,186 312,186 312,186 312,186 312,186 312,185 312,185 313,185 313,184 313,184 313,183 313,183 313,183 313,182 313,182 313,181 313,180 313,180 313,179 313,178 314,177 314,176 314,175 314,175 314,174 314,173 314,173 314,172 314,171 314,171 314,170 314,170 314,169 315,169 315,169 315,168 315,168 315,167 315,167 315,167 315,167 315,166 315,166 315,166 315,165 315,165 316,165 316,164 316,164 316,164 316,164 316,164 316,163 316,163 316,162 316,162 316,162 316,161 316,160 317,160 317,159 317,159 317,158 317,158 317,157 317,156 317,156 317,155 317,155 317,154 317,153 317,152 318,152 318,151 318,151 318,150 318,149 318,149 318,148 318,147 318,147 318,146 318,146 318,145 318,144 319,144 319,143 319,142 319,142 319,141 319,140 319,140 319,139 319,139 319,138 319,137 319,137 319,136 320,136 320,135 320,135 320,134 320,134 320,133 320,133 320,132 320,132 320,132 320,131 320,131 320,130 321,130 321,129 321,129 321,129 321,128 321,128 321,127 321,127 321,126 321,126 321,126 321,125 321,125 322,125 322,125 322,124 322,124 322,124 322,124 322,124 322,125 322,125 322,125 322,125 322,125 322,125 323,125 323,126 323,126 323,126 323,126 323,126 323,126 323,126 323,126 323,126 323,126 323,126 323,126 324,126 324,126 324,126 324,126 324,126 324,126 324,127 324,127 324,127 324,127 324,127 324,127 324,127 325,127 325,126 325,126 325,125 325,124 325,123 325,122 325,121 325,120 325,119 325,118 325,117 325,116 326,115 326,114 326,114 326,113 326,113 326,112 326,112 326,111 326,110 326,109 326,109 326,108 326,107 327,106 327,106 327,105 327,104 327,103 327,103 327,102 327,102 327,101 327,101 327,100 327,100 327,100 328,99 328,99 328,99 328,99 328,99 328,99 328,98 328,98 328,98 328,98 328,98 328,97 328,97 329,97 329,96 329,96 329,96 329,95 329,95 329,94 329,94 329,94 329,93 329,93 329,92 329,92 330,91 330,91 330,90 330,90 330,89 330,89 330,88 330,86 330,85 330,85 330,84 330,84 330,83 331,83 331,82 331,82 331,81 331,81 331,81 331,80 331,80 331,80 331,80 331,79 331,79 331,79 332,79 332,78 332,78 332,78 332,78 332,78 332,78 332,79 332,79 332,80 332,80 332,80 332,81 333,82 333,82 333,83 333,83 333,84 333,84 333,85 333,85 333,86 333,87 333,87 333,87 333,87 334,87 334,87 334,86 334,86 334,86 334,86 334,85 334,85 334,85 334,85 334,85 334,85 334,84 335,84 335,84 335,84 335,84 335,83 335,83 335,83 335,83 335,83 335,82 335,82 335,82 335,82 336,82 336,81 336,81 336,81 336,81 336,81 336,81 336,81 336,81 336,81 336,81 336,81 336,81 337,81 337,81 337,81 337,81 337,81 337,81 337,82 337,82 337,83 337,84 337,84 337,85 337,85 338,86 338,86 338,87 338,88 338,88 338,89 338,89 338,90 338,90 338,90 338,91 338,91 338,91 339,92 339,92 339,92 339,92 339,92 339,92 339,92 339,92 339,92 339,92 339,92 339,92 339,91 340,91 340,91 340,91 340,92 340,92 340,92 340,93 340,93 340,93 340,93 340,93 340,93 340,93 341,94 341,93 341,93 341,93 341,93 341,94 341,94 341,95 341,95 341,95 341,95 341,95 341,96 342,96 342,96 342,96 342,96 342,96 342,97 342,97 342,98 342,98 342,98 342,99 342,99 342,99 343,100 343,100 343,100 343,101 343,101 343,101 343,101 343,102 343,102 343,102 343,102 343,102 343,102 344,103 344,103 344,103 344,103 344,104 344,104 344,104 344,105 344,105 344,106 344,107 344,107 344,108 345,108 345,109 345,109 345,109 345,110 345,110 345,111 345,111 345,111 345,112 345,112 345,112 345,112 346,113 346,113 346,113 346,113 346,114 346,114 346,114 346,114 346,114 346,114 346,115 346,115 346,115 347,115 347,115 347,115 347,116 347,116 347,117 347,117 347,118 347,119 347,120 347,121 347,122 347,122 348,123 348,124 348,124 348,125 348,125 348,126 348,126 348,126 348,126 348,127 348,127 348,127 348,127 349,127 349,128 349,128 349,128 349,128 349,128 349,128 349,128 349,128 349,128 349,128 349,128 349,129 350,129 350,129 350,129 350,129 350,129 350,129 350,129 350,129 350,129 350,128 350,128 350,128 350,128 351,128 351,127 351,127 351,127 351,126 351,126 351,126 351,125 351,125 351,124 351,124 351,123 351,123 352,123 352,122 352,122 352,121 352,121 352,120 352,120 352,120 352,119 352,119 352,119 352,119 352,119 353,119 353,119 353,119 353,119 353,118 353,118 353,118 353,118 353,118 353,117 353,117 353,117 353,116 354,116 354,116 354,116 354,115 354,115 354,115 354,114 354,114 354,113 354,113 354,112 354,112 354,111 355,111 355,110 355,110 355,109 355,109 355,108 355,108 355,108 355,107 355,107 355,106 355,106 355,105 356,105 356,104 356,103 356,103 356,103 356,103 356,103 356,103 356,103 356,104 356,104 356,104 356,104 357,105 357,105 357,105 357,105 357,105 357,105 357,105 357,105 357,105 357,105 357,105 357,105 357,105 358,105 358,105 358,104 358,104 358,104 358,104 358,105 358,105 358,105 358,105 358,105 358,105 358,105 359,105 359,105 359,105 359,105 359,105 359,105 359,106 359,106 359,107 359,107 359,107 359,107 359,108 360,108 360,108 360,108 360,108 360,108 360,108 360,108 360,108 360,108 360,108 360,108 360,108 360,108 361,108 361,108 361,108 361,107 361,107 361,107 361,108 361,110 361,112 361,113 361,114 361,115 361,115 362,116 362,117 362,118 362,120 362,121 362,121 362,121 362,122 362,122 362,122 362,122 362,122 362,122 363,122 363,122 363,123 363,123 363,124 363,125 363,126 363,126 363,126 363,126 363,125 363,125 363,125 364,125 364,124 364,124 364,124 364,125 364,125 364,126 364,126 364,127 364,128 364,129 364,130 364,131 365,132 365,133 365,133 365,133 365,134 365,134 365,133 365,133 365,133 365,133 365,133 365,133 365,134 366,134 366,134 366,135 366,135 366,135 366,136 366,136 366,136 366,137 366,137 366,137 366,138 366,138 367,138 367,139 367,139 367,139 367,140 367,140 367,140 367,140 367,141 367,140 367,140 367,141 367,142 368,142 368,143 368,143 368,144 368,144 368,145 368,145 368,145 368,145 368,145 368,146 368,146 368,146 369,146 369,146 369,146 369,147 369,147 369,147 369,147 369,147 369,148 369,148 369,148 369,148 369,148 370,149 370,149 370,149 370,149 370,149 370,149 370,149 370,149 370,149 370,150 370,150 370,150 370,150 371,150 371,151 371,151 371,151 371,151 371,151 371,152 371,152 371,152 371,152 371,153 371,153 371,153 372,153 372,153 372,154 372,154 372,154 372,154 372,154 372,155 372,155 372,155 372,155 372,156 372,157 373,157 373,158 373,158 373,159 373,159 373,159 373,159 373,159 373,159 373,159 373,159 373,159 373,159 374,159 374,159 374,159 374,159 374,159 374,160 374,160 374,160 374,160 374,160 374,160 374,160 374,160 375,159 375,159 375,159 375,159 375,159 375,159 375,159 375,159 375,159 375,159 375,159 375,159 375,159 376,159 376,159 376,159 376,159 376,159 376,159 376,159 376,159 376,159 376,159 376,159 376,159 376,158 377,158 377,158 377,158 377,158 377,157 377,157 377,157 377,157 377,156 377,156 377,156 377,155 377,155 378,155 378,155 378,155 378,155 378,155 378,155 378,155 378,155 378,154 378,154 378,154 378,154 378,154 379,153 379,153 379,153 379,152 379,152 379,152 379,152 379,151 379,151 379,151 379,151 379,150 379,150 380,150 380,150 380,149 380,149 380,148 380,148 380,148 380,147 380,147 380,147 380,146 380,146 380,146 381,146 381,146 381,146 381,145 381,145 381,145 381,145 381,144 381,144 381,143 381,143 381,143 381,143 382,142 382,142 382,141 382,140 382,139 382,139 382,137 382,136 382,135 382,135 382,134 382,133 382,132 383,131 383,131 383,130 383,129 383,129 383,128 383,128 383,127 383,127 383,126 383,125 383,125 383,124 384,124 384,124 384,124 384,124 384,124 384,124 384,123 384,123 384,123 384,123 384,123 384,123 384,122 385,122 385,122 385,122 385,122 385,122 385,122 385,122 385,122 385,122 385,122 385,122 385,123 385,123 386,123 386,124 386,124 386,124 386,125 386,125 386,125 386,125 386,125 386,126 386,126 386,126 386,126 387,127 387,127 387,128 387,128 387,128 387,129 387,129 387,130 387,130 387,131 387,131 387,131 387,132 388,132 388,132 388,133 388,133 388,133 388,134 388,134 388,134 388,134 388,135 388,135 388,136 388,136 389,137 389,137 389,137 389,138 389,138 389,138 389,139 389,139 389,139 389,139 389,140 389,140 389,140 390,141 390,141 390,141 390,141 390,142 390,142 390,142 390,143 390,143 390,143 390,142 390,142 390,142 391,141 391,140 391,140 391,139 391,138 391,137 391,136 391,136 391,135 391,134 391,133 391,133 391,133 392,133 392,133 392,133 392,133 392,133 392,133 392,133 392,133 392,133 392,133 392,133 392,133 392,133 393,133 393,132 393,132 393,132 393,132 393,132 393,132 393,132 393,132 393,132 393,131 393,131 393,131 394,131 394,131 394,131 394,131 394,132 394,132 394,132 394,132 394,133 394,133 394,134 394,134 394,135 395,135 395,136 395,136 395,136 395,136 395,135 395,135 395,134 395,134 395,133 395,133 395,132 395,132 396,131 396,130 396,130 396,129 396,129 396,129 396,128 396,128 396,128 396,128 396,128 396,128 396,128 397,128 397,128 397,128 397,129 397,129 397,129 397,129 397,130 397,130 397,130 397,131 397,131 397,131 398,132 398,132 398,132 398,133 398,133 398,134 398,134 398,135 398,135 398,136 398,136 398,137 398,137 399,137 399,137 399,137 399,137 399,137 399,136 399,136 399,136 399,136 399,136 399,136 399,136 399,137 400,137 400,138 400,138 400,139 400,140 400,141 400,141 400,142 400,143 400,144 400,144 400,145 400,146 401,147 401,147 401,148 401,148 401,148 401,148 401,148 401,148 401,148 401,148 401,147 401,147 401,146 402,146 402,146 402,146 402,145 402,145 402,145 402,145 402,145 402,145 402,145 402,145 402,145 402,145 403,144 403,144 403,144 403,144 403,143 403,143 403,143 403,142 403,142 403,141 403,140 403,140 403,139 404,139 404,138 404,138 404,138 404,138 404,139 404,139 404,139 404,139 404,139 404,139 404,139 404,139 405,140 405,140 405,140 405,140 405,140 405,140 405,140 405,140 405,141 405,141 405,141 405,141 405,141 406,141 406,142 406,142 406,143 406,143 406,144 406,145 406,146 406,147 406,148 406,149 406,150 406,150 407,150 407,150 407,150 407,150 407,150 407,150 407,150 407,150 407,149 407,148 407,148 407,147 407,146 408,146 408,145 408,145 408,144 408,144 408,143 408,143 408,143 408,144 408,144 408,144 408,143 408,143 409,143 409,143 409,143 409,143 409,143 409,143 409,143 409,143 409,143 409,143 409,142 409,142 409,142 410,142 410,142 410,142 410,142 410,142 410,142 410,142 410,142 410,142 410,142 410,142 410,143 410,143 411,143 411,143 411,143 411,143 411,143 411,144 411,144 411,145 411,145 411,145 411,145 411,146 411,147 412,148 412,148 412,149 412,150 412,151 412,151 412,151 412,152 412,152 412,153 412,153 412,153 412,153 413,153 413,153 413,154 413,154 413,154 413,154 413,154 413,154 413,154 413,153 413,153 413,152 413,152 414,151 414,151 414,150 414,150 414,150 414,150 414,150 414,150 414,150 414,150 414,150 414,150 414,150 415,151 415,150 415,150 415,151 415,151 415,152 415,152 415,153 415,153 415,154 415,155 415,155 416,155 416,155 416,155 416,155 416,154 416,154 416,153 416,152 416,152 416,152 416,152 416,151 416,151 417,151 417,151 417,151 417,151 417,151 417,151 417,151 417,151 417,151 417,151 417,151 417,152 417,152 418,152 418,153 418,153 418,153 418,154 418,154 418,154 418,155 418,155 418,155 418,155 418,156 418,156 419,156 419,156 419,156 419,156 419,155 419,155 419,155 419,155 419,155 419,154 419,154 419,153 419,153 420,152 420,152 420,151 420,151 420,150 420,150 420,149 420,149 420,148 420,148 420,147 420,147 420,146 421,146 421,145 421,145 421,145 421,145 421,145 421,146 421,146 421,146 421,146 421,146 421,146 421,146 422,146 422,146 422,146 422,146 422,146 422,146 422,146 422,146 422,146 422,146 422,146 422,147 422,147 423,147 423,148 423,149 423,149 423,150 423,150 423,151 423,152 423,153 423,154 423,154 423,155 423,156 424,156 424,157 424,157 424,158 424,159 424,159 424,160 424,160 424,161 424,162 424,162 424,163 424,163 425,164 425,164 425,165 425,165 425,165 425,166 425,166 425,166 425,166 425,167 425,167 425,167 425,167 426,168 426,168 426,168 426,168 426,169 426,169 426,169 426,169 426,169 426,169 426,170 426,170 426,170 427,170 427,170 427,170 427,170 427,170 427,170 427,170 427,170 427,170 427,170 427,170 427,171 427,171 428,171 428,171 428,171 428,171 428,172 428,172 428,172 428,172 428,173 428,173 428,174 428,174 428,175 429,175 429,175 429,176 429,176 429,176 429,177 429,177 429,177 429,177 429,178 429,178 429,178 429,178 430,178 430,178 430,178 430,178 430,178 430,178 430,178 430,178 430,178 430,178 430,178 430,178 430,178 431,178 431,178 431,178 431,178 431,178 431,178 431,178 431,178 431,178 431,178 431,178 431,178 431,178 432,178 432,178 432,177 432,177 432,177 432,177 432,176 432,176 432,176 432,176 432,176 432,176 432,175 433,175 433,175 433,175 433,175 433,175 433,174 433,174 433,174 433,174 433,174 433,174 433,174 433,173 434,173 434,173 434,173 434,173 434,172 434,172 434,172 434,172 434,172 434,171 434,171 434,171 434,171 435,171 435,170 435,170 435,170 435,170 435,170 435,169 435,169 435,169 435,169 435,168 435,168 435,168 436,167 436,167 436,167 436,167 436,166 436,166 436,166 436,165 436,165 436,165 436,164 436,164 436,164 437,163 437,163 437,163 437,162 437,162 437,162 437,161 437,161 437,160 437,159 437,159 437,159 437,159 438,158 438,158 438,158 438,158 438,158 438,157 438,157 438,157 438,157 438,157 438,156 438,156 438,156 439,156 439,155 439,155 439,154 439,154 439,154 439,153 439,153 439,153 439,152 439,152 439,151 439,151 440,150 440,150 440,150 440,149 440,149 440,149 440,148 440,148 440,148 440,147 440,147 440,147 440,147 441,146 441,146 441,146 441,146 441,145 441,145 441,145 441,145 441,145 441,145 441,144 441,145 441,145 442,145 442,145 442,145 442,145 442,146 442,146 442,146 442,146 442,147 442,147 442,147 442,148 442,148 443,148 443,148 443,148 443,148 443,149 443,149 443,149 443,149 443,149 443,150 443,150 443,150 443,150 444,151 444,151 444,151 444,152 444,152 444,152 444,152 444,153 444,153 444,153 444,153 444,153 444,154 445,154 445,154 445,154 445,154 445,154 445,155 445,155 445,155 445,155 445,155 445,155 445,155 445,156 446,156 446,156 446,156 446,156 446,156 446,156 446,156 446,156 446,156 446,156 446,156 446,155 446,155 447,155 447,156 447,157 447,158 447,159 447,159 447,159 447,159 447,159 447,160 447,160 447,160 447,160 448,161 448,161 448,161 448,161 448,161 448,161 448,161 448,161 448,161 448,161 448,161 448,161 448,161 449,161 449,161 449,161 449,161 449,160 449,160 449,160 449,160 449,160 449,160 449,159 449,159 449,159 450,159 450,159 450,159 450,159 450,159 450,159 450,159 450,160 450,160 450,160 450,160 450,160 450,160 451,160 451,161 451,161 451,161 451,161 451,162 451,162 451,162 451,162 451,162 451,163 451,163 451,163 452,163 452,163 452,163 452,164 452,164 452,164 452,164 452,165 452,165 452,165 452,165 452,165 452,166 453,166 453,166 453,166 453,166 453,166 453,166 453,167 453,167 453,167 453,167 453,167 453,168 453,168 454,168 454,168 454,168 454,169 454,169 454,169 454,169 454,169 454,169 454,169 454,169 454,170 454,170 455,170 455,170 455,170 455,170 455,170 455,170 455,170 455,170 455,170 455,169 455,169 455,169 455,169 456,169 456,168 456,168 456,168 456,168 456,168 456,167 456,167 456,167 456,167 456,166 456,166 456,166 457,166 457,166 457,166 457,165 457,165 457,165 457,165 457,165 457,165 457,164 457,164 457,164 457,164 458,164 458,164 458,164 458,164 458,164 458,165 458,165 458,165 458,165 458,166 458,166 458,166 458,166 459,167 459,167 459,167 459,168 459,168 459,168 459,169 459,169 459,169 459,169 459,170 459,170 459,171 460,171 460,171 460,172 460,172 460,172 460,173 460,173 460,173 460,174 460,174 460,174 460,175 460,175 461,175 461,175 461,176 461,176 461,176 461,177 461,177 461,177 461,177 461,178 461,178 461,179 461,179 462,180 462,180 462,180 462,180 462,180 462,180 462,180 462,180 462,180 462,180 462,180 462,180 462,180 463,180 463,180 463,180 463,180 463,180 463,180 463,179 463,179 463,179 463,179 463,179 463,179 463,179 464,179 464,179 464,179 464,179 464,179 464,179 464,179 464,179 464,179 464,178 464,178 464,178 464,178 465,178 465,178 465,178 465,178 465,178 465,178 465,178 465,178 465,178 465,178 465,178 465,178 465,178 466,177 466,177 466,177 466,177 466,177 466,177 466,177 466,177 466,177 466,177 466,176 466,176 466,176 467,176 467,176 467,176 467,176 467,175 467,175 467,175 467,175 467,175 467,175 467,174 467,174 467,174 468,174 468,174 468,174 468,174 468,174 468,175 468,175 468,175 468,175 468,174 468,174 468,174 468,174 469,174 469,174 469,174 469,174 469,173 469,173 469,173 469,173 469,173 469,173 469,173 469,172 469,172 470,172 470,172 470,172 470,171 470,171 470,171 470,171 470,171 470,171 470,171 470,171 470,170 470,170 471,170 471,170 471,169 471,169 471,169 471,168 471,168 471,168 471,168 471,167 471,167 471,167 471,167 472,167 472,167 472,167 472,167 472,167 472,166 472,166 472,166 472,166 472,166 472,166 472,166 472,166 473,166 473,166 473,166 473,166 473,166 473,166 473,166 473,166 473,166 473,166 473,166 473,166 473,166 474,165 474,165 474,165 474,165 474,164 474,164 474,164 474,164 474,163 474,163 474,163 474,163 474,162 475,162 475,162 475,162 475,162 475,161 475,161 475,161 475,161 475,160 475,160 475,159 475,159 475,159 476,158 476,158 476,157 476,157 476,156 476,156 476,155 476,155 476,154 476,154 476,154 476,154 476,154 477,154 477,153 477,153 477,153 477,152 477,152 477,152 477,152 477,151 477,151 477,151 477,151 477,151 478,151 478,150 478,150 478,150 478,150 478,150 478,149 478,149 478,149 478,149 478,148 478,148 478,148 479,148 479,147 479,147 479,147 479,146 479,146 479,146 479,145 479,145 479,145 479,144 479,144 479,144 480,144 480,143 480,143 480,143 480,143 480,143 480,142 480,143 480,143 480,143 480,143 480,143 480,143 481,143 481,144 481,144 481,145 481,145 481,144 481,144 481,143 481,143 481,142 481,141 481,139 481,138 482,137 482,137 482,136 482,135 482,134 482,134 482,133 482,132 482,131 482,130 482,129 482,129 482,128 483,128 483,127 483,126 483,125 483,124 483,124 483,123 483,122 483,122 483,122 483,122 483,121 483,120 484,120 484,119 484,119 484,118 484,118 484,117 484,117 484,116 484,116 484,115 484,114 484,114 484,113 485,113 485,112 485,112 485,111 485,111 485,111 485,110 485,110 485,109 485,109 485,109 485,108 485,108 486,108 486,108 486,107 486,107 486,107 486,107 486,106 486,106 486,106 486,105 486,105 486,105 486,105 487,105 487,104 487,104 487,104 487,104 487,104 487,104 487,103 487,103 487,103 487,103 487,103 487,103 488,103 488,103 488,103 488,104 488,104 488,105 488,105 488,105 488,105 488,106 488,106 488,106 488,106 489,106 489,106 489,106 489,107 489,107 489,107 489,107 489,107 489,107 489,107 489,107 489,107 489,107 490,107 490,107 490,107 490,107 490,107 490,107 490,107 490,107 490,107 490,107 490,107 490,107 490,107 491,107 491,107 491,107 491,107 491,107 491,107 491,107 491,107 491,107 491,106 491,106 491,106 491,106 492,106 492,105 492,105 492,105 492,105 492,104 492,104 492,104 492,104 492,104 492,103 492,103 492,104 493,104 493,104 493,104 493,104 493,104 493,104 493,104 493,103 493,103 493,103 493,103 493,103 493,103 494,103 494,103 494,103 494,103 494,103 494,103 494,104 494,104 494,104 494,104 494,104 494,104 494,104 495,104 495,104 495,104 495,105 495,104 495,105 495,104 495,104 495,104 495,104 495,104 495,104 495,104 496,104 496,104 496,104 496,104 496,105 496,105 496,105 496,105 496,105 496,106 496,106 496,106 496,106 497,106 497,107 497,107 497,107 497,107 497,108 497,108 497,108 497,108 497,108 497,108 497,108 497,108 498,108 498,108 498,108 498,108 498,108 498,108 498,108 498,107 498,107 498,107 498,107 498,106 498,106 499,106 499,106 499,105 499,105 499,105 499,104 499,104 499,104 499,104 499,103 499,103 499,102 499,102 500,102 500,102 500,102 500,101 500,101 500,101 500,100 500,100 500,100 500,100 500,99 500,99 500,99 501,98 501,97 501,97 501,97 501,97 501,97 501,97 501,97 501,97 501,98 501,98 501,98 501,98 502,98 502,98 502,98 502,98 502,99 502,99 502,99 502,99 502,100 502,100 502,100 502,101 502,101 503,101 503,101 503,102 503,102 503,102 503,103 503,103 503,103 503,103 503,104 503,104 503,104 503,105 504,104 504,104 504,104 504,104 504,104 504,104 504,104 504,104 504,104 504,104 504,104 504,104 504,104 505,104 505,104 505,104 505,104 505,104 505,104 505,104 505,104 505,104 505,104 505,104 505,104 505,104 506,102 506,103 506,103 506,103 506,104 506,104 506,104 506,104 506,104 506,104 506,105 506,105 506,106 507,106 507,106 507,106 507,106 507,106 507,106 507,106 507,106 507,106 507,106 507,106 507,106 507,107 508,107 508,107 508,107 508,107 508,107 508,108 508,108 508,108 508,109 508,109 508,110 508,110 508,111 509,111 509,112 509,112 509,113 509,113 509,114 509,114 509,114 509,115 509,116 509,116 509,117 509,118 510,118 510,119 510,120 510,120 510,121 510,121 510,121 510,121 510,121 510,121 510,121 510,121 510,121 511,121 511,121 511,120 511,120 511,119 511,119 511,119 511,118 511,118 511,119 511,119 511,120 511,120 512,121 512,121 512,121 512,122 512,122 512,123 512,123 512,124 512,124 512,124 512,124 512,124 512,124 513,124 513,124 513,124 513,124 513,124 513,124 513,124 513,124 513,124 513,123 513,123 513,123 513,123 514,123 514,123 514,123 514,123 514,123 514,123 514,123 514,123 514,123 514,123 514,123 514,123 514,123 515,123 515,123 515,123 515,124 515,124 515,124 515,125 515,125 515,125 515,125 515,125 515,125 515,125 516,125 516,125 516,125 516,124 516,124 516,124 516,123 516,123 516,123 516,122 516,122 516,122 516,122 517,121 517,121 517,121 517,121 517,120 517,120 517,120 517,121 517,121 517,122 517,122 517,122 517,123 518,123 518,123 518,123 518,123 518,123 518,123 518,122 518,122 518,122 518,121 518,121 518,121 518,121 519,121 519,121 519,120 519,120 519,120 519,119 519,119 519,118 519,118 519,118 519,118 519,119 519,119 520,119 520,119 520,119 520,118 520,118 520,118 520,118 520,119 520,119 520,119 520,119 520,119 520,119 521,120 521,120 521,120 521,120 521,120 521,120 521,120 521,120 521,121 521,121 521,121 521,121 521,122 522,122 522,123 522,123 522,123 522,124 522,124 522,125 522,125 522,125 522,126 522,126 522,127 522,127 523,128 523,128 523,128 523,128 523,128 523,129 523,129 523,129 523,129 523,129 523,128 523,128 523,128 524,128 524,128 524,128 524,128 524,128 524,128 524,128 524,128 524,127 524,127 524,127 524,127 524,127 525,126 525,126 525,126 525,126 525,125 525,125 525,125 525,124 525,124 525,123 525,123 525,123 525,123 526,122 526,122 526,122 526,122 526,121 526,121 526,121 526,121 526,120 526,120 526,120 526,120 527,120 527,120 527,120 527,120 527,120 527,120 527,120 527,119 527,119 527,119 527,119 527,119 527,119 528,119 528,119 528,119 528,119 528,119 528,119 528,118 528,118 528,118 528,118 528,118 528,118 528,118 529,117 529,117 529,117 529,117 529,117 529,116 529,116 529,116 529,116 529,116 529,116 529,115 529,115 530,115 530,115 530,115 530,114 530,114 530,114 530,114 530,114 530,114 530,113 530,113 530,113 530,114 531,114 531,114 531,114 531,114 531,114 531,114 531,114 531,114 531,114 531,114 531,114 531,114 531,114 532,114 532,114 532,113 532,113 532,113 532,113 532,113 532,112 532,112 532,112 532,112 532,112 532,112 533,112 533,112 533,111 533,111 533,111 533,111 533,111 533,111 533,110 533,110 533,110 533,109 533,109 534,108 534,108 534,107 534,107 534,107 534,107 534,108 534,108 534,108 534,108 534,108 534,108 534,107 535,107 535,107 535,107 535,107 535,107 535,107 535,107 535,106 535,106 535,106 535,105 535,105 535,105 536,104 536,104 536,103 536,103 536,102 536,102 536,102 536,101 536,101 536,101 536,101 536,100 536,100 537,100 537,100 537,99 537,99 537,99 537,99 537,98 537,98 537,97 537,97 537,97 537,96 537,96 538,96 538,96 538,96 538,95 538,95 538,95 538,95 538,94 538,94 538,94 538,94 538,94 538,94 539,93 539,93 539,93 539,93 539,93 539,93 539,93 539,93 539,93 539,92 539,92 539,92 539,92 540,92 540,92 540,93 540,93 540,93 540,93 540,93 540,93 540,93 540,93 540,93 540,93 540,93 541,93 541,93 541,93 541,93 541,93 541,93 541,94 541,94 541,94 541,94 541,94 541,95 541,95 542,95 542,95 542,96 542,96 542,96 542,96 542,97 542,97 542,97 542,97 542,97 542,97 542,97 543,98 543,98 543,98 543,98 543,98 543,98 543,98 543,98 543,98 543,98 543,98 543,98 543,98 544,98 544,99 544,99 544,99 544,99 544,99 544,99 544,100 544,100 544,100 544,100 544,100 544,100 545,100 545,99 545,99 545,99 545,100 545,100 545,100 545,100 545,100 545,100 545,101 545,101 545,101 546,101 546,101 546,102 546,102 546,102 546,102 546,102 546,101 546,101 546,101 546,101 546,101 546,101 547,101 547,101 547,101 547,101 547,101 547,100 547,101 547,101 547,101 547,101 547,101 547,101 547,101 548,101 548,101 548,101 548,101 548,102 548,102 548,102 548,102 548,102 548,103 548,103 548,103 548,103 549,104 549,104 549,105 549,105 549,105 549,106 549,106 549,106 549,106 549,107 549,107 549,107 549,107 550,108 550,108 550,108 550,109 550,109 550,109 550,110 550,110 550,110 550,110 550,110 550,110 550,111 551,111 551,111 551,111 551,111 551,111 551,111 551,111 551,110 551,110 551,110 551,110 551,110 551,110 552,110 552,110 552,110 552,110 552,109 552,109 552,109 552,109 552,109 552,110 552,110 552,110 552,110 553,111 553,111 553,112 553,112 553,112 553,113 553,113 553,113 553,113 553,114 553,114 553,114 553,114 554,114 554,114 554,114 554,114 554,114 554,114 554,114 554,114 554,114 554,115 554,115 554,115 554,115 555,115 555,115 555,115 555,115 555,115 555,115 555,115 555,115 555,115 555,115 555,114 555,114 555,114 556,114 556,114 556,114 556,115 556,115 556,115 556,115 556,115 556,115 556,115 556,115 556,115 556,115 557,115 557,114 557,114 557,114 557,114 557,114 557,114 557,114 557,114 557,114 557,114 557,114 557,114 558,114 558,114 558,114 558,114 558,114 558,114 558,114 558,114 558,113 558,113 558,113 558,113 558,113 559,113 559,113 559,112 559,112 559,112 559,112 559,112 559,112 559,113 559,113 559,113 559,113 559,112 560,112 560,112 560,112 560,112 560,112 560,112 560,113 560,113 560,113 560,113 560,112 560,112 560,112 561,112 561,112 561,112 561,112 561,112 561,112 561,112 561,112 561,112 561,112 561,112 561,112 561,112 562,112 562,112 562,112 562,112 562,112 562,112 562,112 562,112 562,112 562,112 562,112 562,112 562,112 563,111 563,111 563,111 563,111 563,111 563,111 563,111 563,111 563,111 563,111 563,111 563,111 563,111 564,111 564,111 564,110 564,110 564,110 564,110 564,110 564,110 564,110 564,110 564,109 564,109 564,109 565,109 565,109 565,109 565,109 565,109 565,108 565,108 565,108 565,108 565,108 565,108 565,108 565,108 566,108 566,108 566,108 566,108 566,108 566,109 566,109 566,109 566,109 566,109 566,109 566,109 566,109 567,109 567,109 567,109 567,109 567,109 567,109 567,109 567,109 567,109 567,108 567,108 567,108 567,108 568,108 568,108 568,108 568,108 568,108 568,108 568,107 568,107 568,107 568,107 568,107 568,107 568,106 569,106 569,106 569,106 569,106 569,106 569,106 569,106 569,105 569,105 569,105 569,105 569,105 569,105 570,105 570,105 570,105 570,105 570,105 570,105 570,105 570,105 570,105 570,105 570,105 570,105 570,105 571,105 571,105 571,105 571,105 571,105 571,105 571,104 571,104 571,103 571,103 571,103 571,103 571,102 572,102 572,102 572,102 572,103 572,103 572,103 572,102 572,102 572,101 572,101 572,101 572,101 572,101 573,101 573,101 573,101 573,101 573,101 573,101 573,101 573,101 573,100 573,100 573,100 573,100 573,100 574,100 574,100 574,100 574,100 574,100 574,100 574,100 574,100 574,100 574,99 574,99 574,99 574,99 575,99 575,99 575,99 575,99 575,99 575,100 575,100 575,101 575,102 575,102 575,103 575,103 575,104 576,104 576,105 576,105 576,105 576,106 576,106 576,106 576,107 576,107 576,107 576,107 576,107 576,107 577,107 577,108 577,108 577,108 577,108 577,108 577,109 577,109 577,109 577,109 577,109 577,109 577,109 578,109 578,109 578,110 578,111 578,111 578,112 578,112 578,112 578,113 578,113 578,113 578,113 578,113 579,113 579,113 579,113 579,114 579,114 579,114 579,114 579,113 579,113 579,113 579,113 579,113 579,113 580,113 580,113 580,113 580,113 580,113 580,113 580,113 580,113 580,112 580,112 580,112 580,112 580,112 581,112 581,112 581,112 581,112 581,112 581,112 581,112 581,112 581,112 581,113 581,113 581,113 581,114 582,114 582,114 582,115 582,115 582,116 582,116 582,116 582,116 582,117 582,117 582,118 582,119 582,119 583,120 583,120 583,120 583,120 583,120 583,120 583,120 583,120 583,119 583,119 583,119 583,119 583,119 584,119 584,119 584,120 584,120 584,120 584,120 584,121 584,121 584,121 584,122 584,122 584,122 584,123 585,123 585,123 585,124 585,125 585,125 585,125 585,125 585,126 585,126 585,126 585,127 585,127 585,128 586,128 586,128 586,129 586,129 586,130 586,131 586,131 586,131 586,132 586,132 586,132 586,133 586,133 587,133 587,134 587,134 587,134 587,135 587,135 587,135 587,135 587,135 587,135 587,135 587,135 587,135 588,135 588,135 588,135 588,135 588,135 588,135 588,136 588,136 588,136 588,136 588,136 588,136 588,136 589,136 589,136 589,136 589,136 589,136 589,137 589,137 589,137 589,137 589,137 589,137 589,137 589,137 590,137 590,137 590,137 590,137 590,137 590,137 590,137 590,137 590,137 590,137 590,137 590,137 590,137 591,137 591,137 591,137 591,138 591,138 591,138 591,139 591,139 591,139 591,139 591,140 591,140 591,140 592,141 592,141 592,141 592,141 592,141 592,141 592,141 592,141 592,142 592,142 592,142 592,142 592,142 593,142 593,143 593,143 593,143 593,144 593,144 593,145 593,145 593,145 593,146 593,146 593,146 593,146 594,146 594,147 594,147 594,147 594,148 594,148 594,148 594,148 594,149 594,149 594,149 594,149 594,149 595,149 595,150 595,150 595,150 595,151 595,151 595,151 595,152 595,152 595,152 595,152 595,153 595,153 596,154 596,154 596,154 596,154 596,155 596,156 596,156 596,157 596,158 596,158 596,159 596,160 596,160 597,160 597,161 597,161 597,162 597,162 597,162 597,162 597,163 597,163 597,164 597,164 597,164 597,164 598,165 598,165 598,165 598,165 598,165 598,164 598,164 598,164 598,164 598,164 598,164 598,164 598,164 599,164 599,164 599,164 599,164 599,164 599,164 599,164 599,164 599,163 599,164 599,164 599,164 599,165 600,165 600,166 600,166 600,167 600,167 600,167 600,168 600,168 600,168 600,169 600,169 600,170 600,170 601,170 601,171 601,172 601,172 601,172 601,172 601,172 601,172 601,172 601,172 601,172 601,172 601,172 602,172 602,172 602,172 602,172 602,172 602,173 602,173 602,173 602,173 602,173 602,173 602,173 602,173 603,173 603,173 603,173 603,172 603,172 603,172 603,172 603,172 603,172 603,172 603,172 603,172 603,172 604,172 604,172 604,171 604,171 604,171 604,172 604,172 604,172 604,172 604,172 604,172 604,172 604,173 605,173 605,173 605,173 605,173 605,174 605,174 605,174 605,174 605,174 605,174 605,174 605,175 605,175 606,175 606,175 606,175 606,176 606,176 606,176 606,176 606,176 606,176 606,176 606,176 606,177 606,177 607,177 607,177 607,177 607,177 607,177 607,177 607,177 607,177 607,178 607,178 607,177 607,177 607,177 608,177 608,178 608,178 608,178 608,178 608,178 608,178 608,179 608,179 608,178 608,178 608,178 608,178 609,178 609,178 609,178 609,178 609,178 609,177 609,178 609,178 609,178 609,178 609,177 609,177 609,177 610,177 610,178 610,178 610,178 610,177 610,177 610,177 610,176 610,176 610,176 610,176 610,176 610,176 611,175 611,175 611,175 611,175 611,175 611,175 611,174 611,174 611,174 611,174 611,174 611,173 611,173 612,173 612,173 612,172 612,172 612,172 612,172 612,171 612,171 612,171 612,171 612,171 612,171 612,171 613,171 613,171 613,172 613,172 613,172 613,172 613,172 613,172 613,172 613,173 613,173 613,173 613,173 614,173 614,174 614,174 614,174 614,174 614,174 614,174 614,174 614,174 614,174 614,174 614,174 614,174 615,174 615,174 615,174 615,174 615,174 615,174 615,174 615,174 615,174 615,174 615,174 615,174 615,174 616,174 616,174 616,174 616,175 616,175 616,175 616,175 616,175 616,176 616,176 616,176 616,176 616,176 617,176 617,177 617,177 617,177 617,177 617,177 617,177 617,177 617,177 617,177 617,177 617,177 617,177 618,177 618,177 618,177 618,177 618,176 618,176 618,176 618,176 618,176 618,175 618,175 618,175 618,175 619,175 619,175 619,175 619,174 619,174 619,173 619,173 619,173 619,172 619,172 619,172 619,172 619,172 620,172 620,172 620,172 620,171 620,172 620,172 620,172 620,172 620,172 620,172 620,172 620,173 620,173 621,173 621,173 621,173 621,173 621,174 621,174 621,175 621,175 621,175 621,176 621,176 621,176 621,177 622,177 622,177 622,178 622,178 622,178 622,179 622,179 622,180 622,180 622,180 622,181 622,181 622,181 623,182 623,182 623,182 623,182 623,182 623,183 623,183 623,183 623,183 623,183 623,183 623,183 623,183 624,184 624,184 624,184 624,184 624,184 624,185 624,185 624,185 624,185 624,186 624,186 624,186 624,187 625,187 625,187 625,188 625,188 625,189 625,190 625,190 625,191 625,192 625,192 625,193 625,194 625,194 626,194 626,195 626,195 626,195 626,195 626,195 626,196 626,196 626,196 626,196 626,196 626,196 626,196 627,196 627,196 627,197 627,197 627,197 627,197 627,197 627,197 627,197 627,197 627,197 627,197 627,197 628,197 628,197 628,197 628,196 628,196 628,196 628,196 628,196 628,197 628,197 628,197 628,197 628,197 629,197 629,197 629,197 629,197 629,197 629,198 629,198 629,198 629,198 629,198 629,199 629,199 629,198 630,198 630,198 630,198 630,197 630,197 630,197 630,196 630,196 630,196 630,195 630,195 630,195 630,194 631,194 631,194 631,194 631,193 631,193 631,193 631,193 631,192 631,192 631,192 631,192 631,191 631,191 632,191 632,191 632,190 632,190 632,190 632,190 632,190 632,190 632,189 632,189 632,189 632,189 632,189 633,189 633,189 633,189 633,189 633,189 633,188 633,188 633,188 633,188 633,188 633,188 633,187 633,187 634,187 634,187 634,186 634,186 634,185 634,185 634,185 634,185 634,185 634,185 634,184 634,184 634,184 635,184 635,183 635,183 635,183 635,183 635,183 635,182 635,182 635,182 635,182 635,182 635,181 635,181 636,181 636,181 636,181 636,180 636,180 636,180 636,180 636,179 636,179 636,179 636,178 636,178 636,178 637,178 637,178 637,177 637,178 637,177 637,177 637,178 637,178 637,178 637,178 637,179 637,179 638,179 638,179 638,180 638,180 638,180 638,180 638,180 638,181 638,181 638,181 638,181 638,181 638,182 639,182 639,182 639,183 639,183 639,183 639,183 639,183 639,184 639,184 639,184 639,184 639,184 639,184 640,184 640,185 640,184 640,184 640,184 640,184 640,184 640,184 640,184 640,184 640,183 640,183 640,183 641,183 641,183 641,182 641,182 641,182 641,182 641,181 641,181 641,181 641,180 641,180 641,180 641,180 642,179 642,179 642,179 642,178 642,178 642,178 642,177 642,177 642,177 642,177 642,177 642,177 642,177 643,177 643,177 643,177 643,177 643,176 643,176 643,176 643,176 643,176 643,176 643,176 643,176 643,175 644,175 644,175 644,175 644,175 644,175 644,175 644,175 644,175 644,174 644,175 644,175 644,175 644,175 645,175 645,175 645,175 645,175 645,175 645,176 645,176 645,176 645,177 645,177 645,177 645,178 645,178 646,178 646,179 646,179 646,180 646,180 646,181 646,181 646,182 646,182 646,183 646,183 646,184 646,185 647,185 647,186 647,186 647,187 647,188 647,189 647,189 647,190 647,190 647,190 647,191 647,191 647,192 648,192 648,192 648,192 648,192 648,193 648,193 648,192 648,192 648,192 648,192 648,192 648,192 648,192 649,192 649,192 649,192 649,191 649,192 649,192 649,192 649,193 649,193 649,193 649,193 649,193 649,193 650,193 650,192 650,192 650,192 650,193 650,193 650,193 650,193 650,193 650,193 650,194 650,194 650,194 651,194 651,195 651,195 651,195 651,195 651,195 651,195 651,195 651,195 651,195 651,195 651,195 651,195 652,194 652,194 652,194 652,194 652,194 652,194 652,194 652,194 652,194 652,194 652,195 652,195 652,195 653,195 653,195 653,195 653,195 653,195 653,195 653,194 653,194 653,194 653,193 653,193 653,192 653,192 654,191 654,191 654,190 654,190 654,189 654,188 654,188 654,187 654,187 654,187 654,186 654,186 654,185 655,185 655,184 655,184 655,184 655,183 655,183 655,183 655,182 655,182 655,182 655,182 655,182 655,182 656,182 656,182 656,182 656,182 656,182 656,182 656,183 656,183 656,184 656,184 656,184 656,185 656,185 657,185 657,185 657,184 657,184 657,183 657,182 657,181 657,180 657,179 657,178 657,178 657,177 657,176 658,176 658,175 658,174 658,173 658,172 658,172 658,171 658,171 658,171 658,171 658,170 658,170 658,170 659,170 659,170 659,169 659,169 659,169 659,168 659,168 659,167 659,167 659,166 659,165 659,164 659,163 660,162 660,161 660,160 660,159 660,158 660,158 660,157 660,157 660,157 660,156 660,156 660,156 660,156 661,155 661,155 661,155 661,154 661,154 661,154 661,153 661,153 661,153 661,152 661,152 661,152 661,151 662,151 662,150 662,149 662,149 662,148 662,148 662,148 662,147 662,147 662,146 662,146 662,145 662,144 663,143 663,143 663,143 663,143 663,144 663,145 663,145 663,146 663,147 663,148 663,148 663,148 663,147 664,147 664,146 664,145 664,143 664,142 664,141 664,139 664,138 664,137 664,135 664,134 664,133 664,131 665,130 665,129 665,128 665,126 665,125 665,125 665,124 665,123 665,122 665,122 665,121 665,121 665,121 666,120 666,120 666,120 666,120 666,120 666,120 666,120 666,120 666,120 666,119 666,119 666,119 666,119 667,119 667,119 667,119 667,119 667,120 667,120 667,120 667,121 667,121 667,122 667,123 667,123 667,124 668,125 668,125 668,125 668,126 668,126 668,126 668,125 668,125 668,125 668,125 668,124 668,124 668,124 669,124 669,124 669,124 669,124 669,124 669,124 669,124 669,124 669,124 669,124 669,124 669,124 669,124 670,124 670,124 670,124 670,124 670,124 670,124 670,125 670,125 670,125 670,126 670,127 670,127 670,126 671,126 671,126 671,126 671,126 671,126 671,126 671,127 671,127 671,127 671,127 671,127 671,128 671,128 672,128 672,128 672,129 672,131 672,133 672,133 672,133 672,131 672,129 672,129 672,130 672,129 672,129 673,129 673,130 673,130 673,130 673,130 673,131 673,131 673,131 673,131 673,132 673,132 673,133 673,133 674,133 674,134 674,134 674,134 674,134 674,134 674,135 674,135 674,135 674,135 674,136 674,136 674,137 675,137 675,137 675,138 675,138 675,138 675,138 675,139 675,139 675,139 675,139 675,139 675,139 675,138 676,138 676,138 676,139 676,139 676,140 676,140 676,140 676,141 676,141 676,141 676,142 676,142 676,142 677,143 677,143 677,143 677,143 677,143 677,144 677,144 677,144 677,144 677,144 677,145 677,145 677,145 678,145 678,146 678,146 678,146 678,146 678,147 678,147 678,148 678,148 678,149 678,149 678,150 678,150 679,150 679,151 679,151 679,151 679,150 679,150 679,150 679,150 679,149 679,149 679,149 679,149 679,148 680,148 680,148 680,147 680,147 680,147 680,146 680,146 680,146 680,145 680,145 680,145 680,144 680,144 681,143 681,143 681,143 681,142 681,142 681,141 681,141 681,141 681,140 681,140 681,140 681,139 681,139 682,139 682,138 682,138 682,137 682,137 682,137 682,137 682,136 682,136 682,136 682,136 682,136 682,136 683,136 683,136 683,136 683,136 683,136 683,136 683,136 683,136 683,136 683,136 683,136 683,137 683,137 684,137 684,137 684,137 684,137 684,137 684,137 684,137 684,138 684,138 684,138 684,139 684,139 684,139 685,140 685,140 685,140 685,141 685,141 685,142 685,142 685,143 685,143 685,143 685,144 685,144 685,144 686,145 686,145 686,145 686,145 686,145 686,145 686,144 686,144 686,144 686,144 686,144 686,143 686,143 687,142 687,142 687,142 687,142 687,142 687,142 687,142 687,142 687,142 687,142 687,142 687,142 687,142 688,143 688,143 688,143 688,144 688,144 688,145 688,145 688,146 688,146 688,147 688,147 688,148 688,148 689,148 689,149 689,149 689,150 689,150 689,150 689,150 689,151 689,151 689,151 689,152 689,152 689,152 690,153 690,153 690,153 690,153 690,154 690,154 690,154 690,154 690,154 690,155 690,155 690,155 690,155 691,155 691,156 691,156 691,156 691,156 691,156 691,156 691,156 691,156 691,156 691,156 691,156 691,156 692,156 692,157 692,157 692,157 692,157 692,157 692,157 692,157 692,157 692,157 692,157 692,157 692,157 693,158 693,158 693,158 693,158 693,158 693,158 693,158 693,159 693,159 693,159 693,159 693,159 693,159 694,160 694,159 694,160 694,160 694,160 694,160 694,160 694,160 694,160 694,160 694,161 694,161 694,161 695,161 695,161 695,161 695,161 695,161 695,161 695,161 695,161 695,162 695,162 695,162 695,162 695,162 696,162 696,162 696,162 696,163 696,163 696,163 696,163 696,163 696,163 696,163 696,163 696,163 696,163 697,163 697,164 697,164 697,164 697,164 697,164 697,164 697,164 697,164 697,164 697,164 697,164 697,165 698,165 698,165 698,165 698,166 698,166 698,166 698,166 698,166 698,166 698,166 698,166 698,167 698,167 699,167 699,167 699,167 699,167 699,167 699,167 699,167 699,167 699,167 699,167 699,167 699,168 699,168 700,168 700,168 700,168 700,168 700,168 700,168 700,168 700,168 700,168 700,168 700,168 700,168 700,168 701,168 701,168 701,168 701,168 701,168 701,168 701,168 701,168 701,168 701,168 701,168 701,168 701,168 702,168 702,168 702,168 702,168 702,168 702,168 702,167 702,167 702,167 702,167 702,167 702,167 702,167 703,167 703,167 703,167 703,167 703,167 703,167 703,167 703,167 703,166 703,166 703,166 703,166 703,166 704,166 704,166 704,166 704,166 704,165 704,165 704,165 704,165 704,165 704,165 704,165 704,165 704,165 705,165 705,165 705,165 705,165 705,165 705,164 705,164 705,164 705,164 705,164 705,164 705,164 705,164 706,164 706,164 706,163 706,163 706,163 706,163 706,163 706,162 706,162 706,162 706,162 706,161 706,161 707,161 707,161 707,161 707,161 707,161 707,161 707,161 707,161 707,161 707,161 707,161 707,161 707,161 708,161 708,162 708,162 708,162 708,163 708,163 708,163 708,164 708,164 708,164 708,165 708,165 708,165 709,165 709,165 709,166 709,166 709,166 709,166 709,167 709,167 709,167 709,167 709,167 709,167 709,167 710,167 710,167 710,168 710,168 710,168 710,168 710,168 710,169 710,169 710,169 710,170 710,170 710,170 711,171 711,171 711,171 711,172 711,172 711,172 711,172 711,173 711,173 711,173 711,174 711,174 711,174 712,175 712,175 712,175 712,176 712,176 712,177 712,177 712,177 712,178 712,178 712,178 712,178 712,179 713,179 713,179 713,179 713,179 713,179 713,179 713,179 713,179 713,179 713,179 713,179 713,179 713,179 714,179 714,178 714,178 714,178 714,178 714,178 714,177 714,177 714,178 714,178 714,178 714,178 714,179 715,179 715,179 715,179 715,180 715,180 715,180 715,181 715,181 715,182 715,182 715,182 715,183 715,183 716,183 716,184 716,184 716,184 716,184 716,185 716,185 716,185 716,185 716,185 716,186 716,186 716,186 717,186 717,186 717,186 717,187 717,187 717,187 717,187 717,187 717,188 717,188 717,188 717,188 717,188 718,188 718,189 718,189 718,189 718,189 718,189 718,189 718,189 718,190 718,190 718,190 718,190 718,190 719,190 719,190 719,190 719,190 719,190 719,190 719,190 719,190 719,190 719,190 719,190 719,190 719,190 720,190 720,190 720,191 720,191 720,191 720,191 720,191 720,191 720,191 720,191 720,191 720,191 720,191 721,191 721,191 721,191 721,192 721,192 721,192 721,192 721,192 721,192 721,192 721,192 721,192 721,192 722,192 722,192 722,192 722,192 722,192 722,192 722,192 722,192 722,192 722,191 722,191 722,191 722,191 723,191 723,191 723,191 723,191 723,191 723,190 723,190 723,190 723,190 723,190 723,190 723,190 723,190 724,189 724,189 724,189 724,189 724,189 724,189 724,189 724,189 724,189 724,189 724,189 724,189 724,189 725,189 725,189 725,189 725,189 725,189 725,188 725,188 725,188 725,188 725,188 725,188 725,188 725,188 726,188 726,188 726,187 726,187 726,187 726,187 726,187 726,186 726,186 726,186 726,185 726,185 726,185 727,185 727,185 727,185 727,185 727,185 727,185 727,186 727,186 727,186 727,187 727,187 727,188 727,188 728,189 728,189 728,189 728,190 728,190 728,191 728,191 728,192 728,192 728,192 728,193 728,193 728,194 729,194 729,195 729,195 729,195 729,196 729,196 729,196 729,197 729,197 729,197 729,197 729,198 729,198 730,198 730,198 730,199 730,199 730,199 730,199 730,199 730,200 730,200 730,200 730,200 730,200 730,200 731,200 731,200 731,201 731,201 731,201 731,201 731,201 731,201 731,201 731,201 731,202 731,202 731,202 732,202 732,202 732,202 732,202 732,203 732,203 732,203 732,203 732,203 732,203 732,204 732,204 732,204 733,205 733,205 733,205 733,206 733,206 733,206 733,207 733,207 733,207 733,208 733,208 733,208 733,208 734,209 734,209 734,209 734,209 734,209 734,209 734,210 734,210 734,210 734,210 734,210 734,210 734,210 735,210 735,210 735,210 735,210 735,210 735,210 735,210 735,210 735,210 735,210 735,210 735,210 735,210 736,210 736,210 736,210 736,211 736,211 736,211 736,211 736,211 736,211 736,211 736,211 " vector-effect="non-scaling-stroke"></polyline>
</g></svg>