<?xml version="1.0" encoding="UTF-8" standalone="no"?><svg width="282.222mm" height="141.111mm" xmlns="http://www.w3.org/2000/svg" xmlns:xlink="http://www.w3.org/1999/xlink"  version="1.2" baseProfile="tiny"><g fill="none" stroke="#ff0000" stroke-linecap="round" stroke-linejoin="round" stroke-opacity="1" stroke-width="1.5" transform="matrix(1,0,0,1,0,0)">
<polyline fill="none" points="65,356 65,357 66,357 66,357 66,357 66,357 66,357 66,357 66,357 66,357 66,357 66,357 66,357 66,357 66,357 67,357 67,357 67,357 67,357 67,357 67,357 67,357 67,357 67,357 67,357 67,357 67,357 67,357 68,357 68,357 68,357 68,357 68,357 68,357 68,357 68,357 68,357 68,357 68,357 68,357 68,357 69,357 69,357 69,357 69,357 69,357 69,357 69,357 69,357 69,357 69,357 69,357 69,357 69,357 70,357 70,358 70,357 70,357 70,357 70,357 70,357 70,357 70,357 70,357 70,357 70,357 70,357 71,357 71,357 71,357 71,357 71,357 71,357 71,356 71,356 71,356 71,356 71,356 71,356 71,356 72,356 72,356 72,356 72,356 72,356 72,356 72,356 72,356 72,356 72,356 72,355 72,355 72,355 73,355 73,355 73,356 73,356 73,356 73,356 73,356 73,355 73,355 73,355 73,355 73,355 73,355 74,355 74,355 74,355 74,355 74,355 74,355 74,355 74,355 74,355 74,355 74,355 74,355 74,355 75,355 75,355 75,355 75,355 75,355 75,355 75,355 75,354 75,355 75,355 75,355 75,355 76,355 76,355 76,355 76,355 76,355 76,355 76,355 76,354 76,354 76,354 76,354 76,354 76,354 77,354 77,354 77,354 77,354 77,354 77,354 77,354 77,354 77,354 77,354 77,354 77,354 77,354 78,354 78,354 78,354 78,354 78,354 78,354 78,354 78,354 78,354 78,354 78,354 78,354 78,354 79,354 79,354 79,354 79,354 79,354 79,353 79,353 79,353 79,353 79,353 79,353 79,353 79,354 80,354 80,354 80,354 80,353 80,353 80,353 80,353 80,353 80,353 80,353 80,353 80,353 80,353 81,353 81,353 81,353 81,353 81,353 81,353 81,353 81,353 81,353 81,353 81,353 81,353 81,353 82,353 82,353 82,353 82,353 82,353 82,353 82,353 82,353 82,352 82,352 82,352 82,352 82,352 83,352 83,352 83,352 83,352 83,352 83,352 83,352 83,352 83,352 83,352 83,352 83,352 83,352 84,352 84,352 84,352 84,352 84,352 84,352 84,352 84,352 84,352 84,352 84,352 84,352 84,352 85,352 85,352 85,352 85,352 85,352 85,352 85,352 85,351 85,351 85,351 85,351 85,351 85,351 86,351 86,351 86,351 86,351 86,351 86,351 86,351 86,351 86,351 86,351 86,351 86,351 86,351 87,351 87,351 87,351 87,351 87,351 87,351 87,351 87,350 87,350 87,350 87,350 87,350 87,350 88,350 88,350 88,350 88,350 88,350 88,350 88,350 88,350 88,350 88,350 88,350 88,350 88,350 89,350 89,350 89,350 89,350 89,350 89,350 89,350 89,350 89,350 89,350 89,350 89,350 89,350 90,350 90,350 90,350 90,349 90,349 90,349 90,349 90,349 90,349 90,349 90,349 90,348 90,348 91,348 91,348 91,348 91,348 91,348 91,348 91,348 91,348 91,348 91,348 91,348 91,348 91,348 92,348 92,348 92,348 92,348 92,348 92,348 92,348 92,348 92,348 92,348 92,348 92,348 92,348 93,348 93,348 93,348 93,348 93,348 93,348 93,348 93,348 93,348 93,348 93,348 93,348 93,348 94,348 94,348 94,348 94,348 94,348 94,348 94,348 94,348 94,348 94,347 94,347 94,347 94,348 95,348 95,348 95,348 95,348 95,348 95,348 95,348 95,348 95,348 95,348 95,348 95,348 95,348 96,348 96,348 96,348 96,348 96,348 96,348 96,348 96,348 96,348 96,348 96,348 96,348 96,347 97,347 97,347 97,347 97,347 97,347 97,346 97,346 97,346 97,346 97,346 97,346 97,347 97,347 98,346 98,346 98,346 98,346 98,346 98,346 98,346 98,346 98,346 98,346 98,346 98,346 98,346 99,346 99,346 99,346 99,346 99,346 99,346 99,346 99,346 99,346 99,345 99,346 99,346 99,346 100,346 100,346 100,346 100,345 100,345 100,345 100,345 100,345 100,345 100,345 100,345 100,345 100,345 101,344 101,344 101,344 101,344 101,344 101,344 101,344 101,344 101,344 101,344 101,344 101,344 101,344 102,344 102,344 102,344 102,344 102,344 102,343 102,344 102,344 102,344 102,344 102,344 102,344 102,343 103,343 103,343 103,343 103,343 103,343 103,343 103,343 103,343 103,343 103,343 103,343 103,343 103,343 104,343 104,343 104,343 104,343 104,343 104,343 104,343 104,343 104,343 104,343 104,343 104,343 104,343 105,343 105,343 105,342 105,342 105,342 105,342 105,342 105,342 105,342 105,342 105,342 105,342 105,342 106,342 106,342 106,342 106,342 106,342 106,342 106,342 106,342 106,342 106,342 106,342 106,342 106,342 107,342 107,342 107,342 107,342 107,341 107,341 107,341 107,341 107,341 107,341 107,340 107,340 107,340 108,340 108,340 108,340 108,340 108,340 108,340 108,340 108,340 108,340 108,340 108,340 108,340 108,340 109,340 109,340 109,340 109,340 109,340 109,340 109,340 109,340 109,339 109,339 109,339 109,339 109,339 110,339 110,339 110,339 110,339 110,339 110,339 110,339 110,339 110,339 110,339 110,339 110,339 110,339 111,339 111,339 111,338 111,338 111,338 111,338 111,338 111,339 111,339 111,339 111,339 111,339 111,338 112,338 112,338 112,338 112,338 112,338 112,337 112,337 112,338 112,338 112,338 112,338 112,338 112,338 113,338 113,338 113,338 113,338 113,338 113,338 113,337 113,337 113,337 113,337 113,337 113,337 113,337 114,337 114,337 114,337 114,337 114,337 114,337 114,337 114,337 114,337 114,337 114,336 114,336 114,336 115,336 115,336 115,336 115,337 115,337 115,336 115,336 115,336 115,336 115,336 115,336 115,336 115,336 116,336 116,336 116,336 116,336 116,336 116,335 116,335 116,335 116,336 116,336 116,336 116,336 116,335 117,335 117,335 117,335 117,335 117,335 117,335 117,335 117,335 117,335 117,335 117,335 117,335 117,335 118,335 118,335 118,335 118,335 118,335 118,335 118,335 118,335 118,335 118,335 118,335 118,335 118,335 119,334 119,334 119,334 119,334 119,334 119,334 119,334 119,334 119,334 119,334 119,334 119,334 119,334 120,333 120,333 120,333 120,333 120,333 120,333 120,333 120,333 120,333 120,333 120,333 120,332 120,332 121,332 121,332 121,332 121,332 121,332 121,332 121,332 121,331 121,331 121,331 121,331 121,331 121,331 122,331 122,331 122,331 122,331 122,331 122,331 122,331 122,330 122,330 122,330 122,329 122,329 122,329 123,329 123,329 123,330 123,330 123,329 123,329 123,329 123,329 123,329 123,329 123,329 123,329 123,329 124,329 124,329 124,329 124,329 124,328 124,329 124,328 124,328 124,328 124,328 124,328 124,328 124,328 125,328 125,328 125,327 125,327 125,327 125,327 125,327 125,327 125,327 125,327 125,327 125,327 125,327 126,327 126,327 126,327 126,327 126,327 126,327 126,327 126,326 126,327 126,327 126,327 126,327 126,327 127,327 127,327 127,327 127,327 127,327 127,326 127,326 127,326 127,326 127,326 127,325 127,325 127,325 128,325 128,325 128,325 128,325 128,325 128,325 128,325 128,325 128,325 128,325 128,325 128,325 128,325 129,325 129,325 129,325 129,325 129,325 129,325 129,324 129,324 129,324 129,324 129,324 129,324 129,323 130,323 130,323 130,323 130,323 130,323 130,323 130,323 130,324 130,323 130,323 130,323 130,323 130,323 131,323 131,323 131,323 131,322 131,322 131,323 131,323 131,322 131,322 131,322 131,322 131,322 131,322 132,322 132,322 132,322 132,321 132,321 132,321 132,321 132,321 132,321 132,321 132,321 132,321 132,321 133,321 133,321 133,321 133,321 133,321 133,321 133,321 133,321 133,320 133,320 133,320 133,320 133,319 134,319 134,319 134,319 134,319 134,319 134,319 134,319 134,319 134,319 134,319 134,319 134,319 134,319 135,318 135,318 135,318 135,318 135,318 135,318 135,318 135,318 135,318 135,318 135,318 135,319 135,318 136,318 136,319 136,318 136,318 136,318 136,318 136,318 136,318 136,318 136,317 136,317 136,317 136,317 137,317 137,317 137,317 137,316 137,316 137,316 137,317 137,317 137,317 137,317 137,317 137,317 137,317 138,316 138,316 138,316 138,316 138,316 138,316 138,316 138,316 138,316 138,316 138,316 138,316 138,316 139,316 139,316 139,316 139,316 139,316 139,316 139,316 139,316 139,316 139,316 139,316 139,316 139,316 140,316 140,316 140,315 140,315 140,315 140,315 140,315 140,315 140,315 140,315 140,315 140,315 140,315 141,315 141,315 141,315 141,315 141,315 141,315 141,315 141,315 141,314 141,314 141,314 141,314 141,314 142,314 142,313 142,313 142,313 142,313 142,313 142,313 142,312 142,312 142,313 142,313 142,313 142,312 143,312 143,312 143,312 143,312 143,312 143,312 143,312 143,312 143,312 143,312 143,312 143,312 143,312 144,311 144,311 144,311 144,312 144,312 144,312 144,312 144,312 144,312 144,312 144,312 144,311 144,311 145,311 145,311 145,311 145,311 145,311 145,311 145,311 145,311 145,311 145,311 145,311 145,311 145,311 146,311 146,310 146,310 146,310 146,310 146,309 146,309 146,309 146,309 146,309 146,308 146,308 146,308 147,307 147,307 147,307 147,306 147,306 147,306 147,306 147,305 147,305 147,305 147,305 147,305 147,304 148,304 148,304 148,304 148,303 148,303 148,303 148,303 148,302 148,302 148,302 148,302 148,301 148,301 149,301 149,301 149,301 149,302 149,302 149,301 149,301 149,301 149,301 149,301 149,301 149,300 149,300 150,300 150,300 150,300 150,299 150,299 150,299 150,299 150,299 150,299 150,299 150,298 150,298 150,298 151,297 151,297 151,297 151,296 151,296 151,296 151,296 151,295 151,295 151,295 151,294 151,294 151,294 152,293 152,293 152,293 152,293 152,293 152,293 152,292 152,291 152,290 152,290 152,290 152,289 152,289 153,289 153,288 153,288 153,288 153,288 153,287 153,287 153,287 153,287 153,286 153,286 153,286 153,285 154,285 154,285 154,285 154,284 154,284 154,284 154,284 154,284 154,283 154,283 154,283 154,283 154,283 155,283 155,282 155,282 155,282 155,282 155,282 155,282 155,281 155,281 155,281 155,281 155,281 155,281 156,281 156,281 156,280 156,279 156,279 156,278 156,278 156,278 156,278 156,278 156,278 156,278 156,278 157,278 157,277 157,277 157,277 157,277 157,276 157,276 157,276 157,276 157,275 157,274 157,274 157,273 158,273 158,273 158,272 158,272 158,271 158,270 158,270 158,270 158,270 158,270 158,270 158,269 158,269 159,269 159,269 159,269 159,268 159,268 159,268 159,268 159,268 159,268 159,268 159,268 159,268 159,268 160,267 160,267 160,267 160,267 160,267 160,267 160,267 160,267 160,267 160,267 160,267 160,267 160,266 161,266 161,265 161,264 161,263 161,262 161,262 161,261 161,261 161,260 161,259 161,258 161,258 161,257 162,257 162,256 162,255 162,254 162,253 162,253 162,252 162,251 162,251 162,250 162,250 162,249 162,249 163,249 163,248 163,248 163,248 163,248 163,248 163,248 163,248 163,248 163,248 163,248 163,247 163,248 164,248 164,248 164,248 164,248 164,249 164,249 164,251 164,252 164,253 164,253 164,253 164,254 164,254 165,254 165,255 165,256 165,256 165,257 165,259 165,260 165,261 165,262 165,263 165,265 165,266 165,268 166,269 166,270 166,270 166,271 166,272 166,272 166,273 166,273 166,273 166,273 166,273 166,272 166,272 167,272 167,272 167,272 167,271 167,271 167,271 167,270 167,269 167,268 167,267 167,267 167,266 167,265 168,265 168,264 168,264 168,263 168,262 168,262 168,261 168,261 168,260 168,259 168,258 168,257 168,257 169,256 169,255 169,254 169,253 169,252 169,251 169,250 169,249 169,248 169,247 169,246 169,245 169,243 170,242 170,241 170,239 170,238 170,237 170,235 170,234 170,232 170,231 170,230 170,228 170,227 170,225 171,224 171,223 171,221 171,220 171,219 171,217 171,215 171,213 171,211 171,209 171,207 171,206 172,205 172,204 172,203 172,202 172,201 172,199 172,197 172,194 172,192 172,189 172,187 172,185 172,184 173,183 173,182 173,181 173,180 173,180 173,180 173,180 173,179 173,179 173,180 173,181 173,182 173,182 174,182 174,182 174,183 174,183 174,183 174,183 174,183 174,183 174,183 174,183 174,183 174,182 174,182 175,182 175,182 175,182 175,181 175,181 175,181 175,181 175,180 175,180 175,180 175,180 175,180 175,179 176,179 176,179 176,179 176,179 176,178 176,178 176,178 176,178 176,177 176,177 176,177 176,177 176,177 177,178 177,179 177,180 177,180 177,180 177,181 177,182 177,184 177,185 177,187 177,188 177,189 177,190 178,191 178,191 178,192 178,192 178,192 178,192 178,192 178,192 178,191 178,191 178,191 178,191 178,190 179,189 179,187 179,186 179,184 179,183 179,182 179,180 179,179 179,178 179,177 179,175 179,174 179,173 180,173 180,172 180,171 180,169 180,168 180,167 180,165 180,164 180,162 180,161 180,159 180,157 180,155 181,154 181,152 181,152 181,151 181,150 181,150 181,149 181,149 181,148 181,148 181,147 181,147 181,146 182,145 182,145 182,144 182,143 182,143 182,143 182,142 182,142 182,142 182,141 182,140 182,139 182,139 183,138 183,138 183,138 183,137 183,136 183,135 183,135 183,134 183,133 183,133 183,132 183,132 183,131 184,131 184,131 184,130 184,130 184,129 184,129 184,128 184,128 184,128 184,128 184,128 184,127 184,127 185,127 185,127 185,127 185,127 185,127 185,127 185,126 185,126 185,126 185,126 185,126 185,126 185,126 186,126 186,126 186,125 186,125 186,125 186,125 186,125 186,125 186,125 186,125 186,124 186,124 186,124 187,124 187,124 187,124 187,124 187,124 187,123 187,123 187,123 187,123 187,123 187,123 187,123 187,122 188,122 188,122 188,122 188,122 188,122 188,121 188,121 188,121 188,121 188,121 188,121 188,122 188,122 189,122 189,122 189,123 189,123 189,123 189,124 189,124 189,124 189,125 189,125 189,125 189,126 189,126 190,126 190,127 190,127 190,127 190,127 190,127 190,128 190,128 190,128 190,128 190,129 190,129 190,129 191,130 191,130 191,130 191,131 191,131 191,132 191,132 191,133 191,133 191,134 191,134 191,135 191,136 192,136 192,136 192,137 192,138 192,139 192,140 192,141 192,143 192,144 192,146 192,147 192,148 192,148 193,149 193,149 193,150 193,151 193,151 193,152 193,151 193,151 193,151 193,150 193,149 193,148 193,148 194,147 194,145 194,144 194,143 194,142 194,141 194,140 194,139 194,139 194,140 194,141 194,142 194,142 195,143 195,143 195,143 195,144 195,144 195,144 195,144 195,144 195,144 195,144 195,144 195,143 195,144 196,144 196,145 196,146 196,146 196,146 196,147 196,148 196,147 196,147 196,146 196,146 196,146 196,146 197,146 197,146 197,146 197,146 197,146 197,146 197,146 197,146 197,146 197,146 197,146 197,146 197,146 198,146 198,146 198,146 198,145 198,146 198,148 198,149 198,151 198,152 198,152 198,153 198,154 198,155 199,156 199,157 199,158 199,159 199,159 199,160 199,161 199,162 199,162 199,163 199,164 199,166 199,167 200,171 200,171 200,172 200,172 200,172 200,172 200,172 200,172 200,171 200,170 200,168 200,167 200,166 201,165 201,163 201,162 201,162 201,162 201,161 201,160 201,158 201,157 201,156 201,156 201,155 201,154 202,153 202,152 202,152 202,152 202,152 202,152 202,153 202,153 202,153 202,152 202,151 202,151 202,151 203,150 203,149 203,148 203,147 203,145 203,142 203,141 203,138 203,136 203,134 203,132 203,131 203,129 204,127 204,125 204,124 204,123 204,122 204,121 204,120 204,119 204,119 204,119 204,118 204,118 204,118 205,118 205,118 205,117 205,116 205,115 205,114 205,113 205,112 205,111 205,110 205,109 205,108 205,107 206,107 206,106 206,106 206,106 206,106 206,105 206,105 206,105 206,105 206,105 206,105 206,105 206,105 207,105 207,104 207,104 207,104 207,104 207,104 207,104 207,104 207,104 207,103 207,103 207,103 207,104 208,105 208,105 208,106 208,107 208,108 208,109 208,111 208,112 208,114 208,116 208,117 208,118 208,119 209,120 209,120 209,120 209,120 209,119 209,118 209,117 209,116 209,115 209,114 209,113 209,112 209,111 210,111 210,111 210,111 210,111 210,111 210,110 210,110 210,109 210,109 210,109 210,108 210,107 210,105 211,104 211,103 211,102 211,101 211,100 211,98 211,97 211,96 211,96 211,96 211,96 211,95 211,95 212,95 212,95 212,95 212,95 212,95 212,95 212,96 212,96 212,96 212,96 212,96 212,96 212,97 213,97 213,97 213,97 213,97 213,97 213,98 213,98 213,98 213,98 213,98 213,98 213,98 213,99 214,98 214,98 214,97 214,96 214,96 214,95 214,94 214,94 214,93 214,93 214,92 214,91 214,91 215,90 215,90 215,90 215,89 215,89 215,89 215,89 215,89 215,89 215,89 215,89 215,89 215,89 216,89 216,89 216,89 216,89 216,89 216,89 216,89 216,89 216,89 216,90 216,90 216,91 216,91 217,92 217,93 217,94 217,95 217,96 217,97 217,98 217,99 217,101 217,102 217,103 217,104 217,104 218,105 218,106 218,107 218,108 218,109 218,111 218,111 218,112 218,113 218,114 218,115 218,117 218,118 219,119 219,120 219,122 219,124 219,125 219,126 219,126 219,127 219,128 219,130 219,132 219,133 219,134 220,135 220,136 220,136 220,137 220,138 220,139 220,139 220,137 220,137 220,137 220,137 220,137 220,136 221,135 221,135 221,135 221,137 221,137 221,137 221,138 221,138 221,139 221,139 221,138 221,138 221,137 222,137 222,137 222,137 222,137 222,137 222,136 222,136 222,135 222,135 222,134 222,134 222,133 222,133 223,133 223,133 223,133 223,132 223,131 223,130 223,129 223,129 223,129 223,128 223,128 223,128 223,127 224,127 224,126 224,125 224,125 224,124 224,124 224,123 224,122 224,122 224,121 224,120 224,119 224,118 225,118 225,117 225,116 225,115 225,114 225,113 225,112 225,111 225,110 225,109 225,108 225,107 225,107 226,105 226,104 226,102 226,100 226,99 226,97 226,95 226,94 226,92 226,92 226,91 226,90 226,90 227,89 227,89 227,88 227,88 227,88 227,88 227,88 227,88 227,88 227,88 227,88 227,88 227,88 228,88 228,88 228,88 228,87 228,87 228,87 228,87 228,87 228,86 228,86 228,86 228,86 228,86 229,86 229,86 229,86 229,86 229,86 229,87 229,87 229,87 229,88 229,89 229,89 229,89 229,89 230,89 230,88 230,87 230,87 230,86 230,85 230,84 230,84 230,83 230,82 230,82 230,81 230,80 231,79 231,79 231,78 231,79 231,80 231,80 231,80 231,80 231,81 231,81 231,82 231,82 231,82 232,82 232,83 232,83 232,83 232,83 232,83 232,83 232,83 232,84 232,84 232,84 232,84 232,84 233,84 233,85 233,85 233,86 233,86 233,87 233,88 233,89 233,89 233,90 233,91 233,92 233,92 234,93 234,94 234,95 234,95 234,96 234,96 234,96 234,96 234,96 234,95 234,94 234,94 234,94 235,93 235,92 235,92 235,92 235,92 235,92 235,92 235,92 235,92 235,92 235,92 235,92 235,92 236,92 236,92 236,92 236,92 236,92 236,92 236,92 236,92 236,92 236,92 236,92 236,92 236,92 237,92 237,92 237,92 237,92 237,92 237,93 237,93 237,94 237,94 237,94 237,95 237,95 237,95 238,95 238,95 238,96 238,96 238,95 238,94 238,93 238,92 238,92 238,92 238,92 238,93 238,92 239,91 239,91 239,90 239,90 239,89 239,89 239,89 239,88 239,88 239,87 239,87 239,86 239,86 240,85 240,85 240,84 240,84 240,83 240,82 240,82 240,82 240,81 240,81 240,81 240,81 240,80 241,80 241,80 241,80 241,79 241,79 241,79 241,79 241,79 241,79 241,79 241,79 241,79 241,79 242,79 242,78 242,78 242,78 242,78 242,78 242,78 242,78 242,78 242,78 242,78 242,77 242,77 243,77 243,77 243,77 243,77 243,77 243,77 243,77 243,78 243,78 243,78 243,78 243,79 243,79 244,79 244,80 244,80 244,80 244,81 244,81 244,82 244,82 244,83 244,83 244,84 244,84 244,85 245,86 245,86 245,87 245,88 245,89 245,89 245,90 245,91 245,91 245,92 245,92 245,93 245,94 246,95 246,94 246,94 246,94 246,93 246,93 246,92 246,92 246,91 246,91 246,91 246,90 246,90 247,90 247,90 247,89 247,89 247,89 247,88 247,88 247,88 247,88 247,88 247,88 247,88 247,88 248,88 248,88 248,87 248,87 248,87 248,87 248,87 248,87 248,86 248,86 248,86 248,86 248,85 249,85 249,85 249,84 249,84 249,83 249,82 249,82 249,82 249,82 249,82 249,81 249,81 249,81 250,80 250,80 250,80 250,79 250,79 250,79 250,79 250,80 250,80 250,80 250,80 250,80 250,80 251,80 251,80 251,81 251,81 251,81 251,81 251,81 251,81 251,82 251,82 251,82 251,82 251,82 252,82 252,82 252,83 252,83 252,83 252,83 252,84 252,84 252,84 252,84 252,84 252,84 252,84 253,84 253,84 253,85 253,85 253,85 253,85 253,85 253,85 253,85 253,85 253,85 253,85 253,85 254,85 254,85 254,85 254,85 254,85 254,85 254,85 254,84 254,85 254,86 254,86 254,87 254,88 255,88 255,89 255,89 255,90 255,90 255,91 255,91 255,91 255,92 255,92 255,93 255,93 255,93 256,93 256,93 256,94 256,94 256,94 256,94 256,94 256,94 256,95 256,96 256,96 256,97 256,97 257,97 257,98 257,98 257,99 257,99 257,99 257,99 257,99 257,99 257,99 257,99 257,99 257,100 258,100 258,101 258,101 258,102 258,102 258,102 258,102 258,102 258,101 258,102 258,102 258,101 258,101 259,101 259,102 259,101 259,101 259,100 259,100 259,100 259,100 259,100 259,100 259,100 259,100 259,99 260,98 260,97 260,97 260,96 260,95 260,95 260,94 260,94 260,93 260,92 260,91 260,91 260,91 261,91 261,90 261,90 261,91 261,92 261,92 261,93 261,93 261,93 261,94 261,94 261,94 261,94 262,94 262,95 262,95 262,95 262,95 262,95 262,95 262,95 262,95 262,95 262,95 262,96 262,96 263,97 263,98 263,98 263,99 263,99 263,101 263,102 263,103 263,104 263,104 263,105 263,105 263,106 264,107 264,107 264,108 264,109 264,109 264,110 264,110 264,111 264,112 264,112 264,113 264,114 264,114 265,115 265,116 265,117 265,117 265,118 265,119 265,119 265,120 265,120 265,121 265,121 265,121 265,122 266,122 266,122 266,122 266,123 266,123 266,123 266,123 266,123 266,123 266,123 266,123 266,123 266,123 267,123 267,123 267,123 267,123 267,121 267,121 267,121 267,121 267,121 267,122 267,122 267,123 268,123 268,123 268,124 268,124 268,124 268,125 268,125 268,126 268,126 268,126 268,127 268,127 268,128 269,128 269,129 269,129 269,129 269,129 269,129 269,129 269,129 269,129 269,129 269,129 269,129 269,129 270,129 270,129 270,129 270,129 270,130 270,129 270,130 270,130 270,130 270,130 270,130 270,130 270,130 271,130 271,130 271,130 271,130 271,129 271,129 271,128 271,128 271,129 271,129 271,130 271,131 271,132 272,132 272,132 272,133 272,133 272,134 272,134 272,134 272,135 272,135 272,135 272,135 272,135 272,135 273,135 273,136 273,136 273,136 273,136 273,136 273,136 273,136 273,136 273,136 273,136 273,136 273,136 274,135 274,135 274,135 274,135 274,135 274,135 274,135 274,135 274,135 274,135 274,135 274,135 274,135 275,135 275,135 275,136 275,136 275,136 275,136 275,136 275,136 275,136 275,136 275,137 275,137 275,138 276,139 276,139 276,140 276,141 276,142 276,142 276,143 276,143 276,144 276,145 276,145 276,145 276,145 277,145 277,145 277,147 277,149 277,150 277,151 277,153 277,154 277,155 277,156 277,157 277,158 277,159 278,159 278,160 278,161 278,161 278,162 278,162 278,163 278,163 278,164 278,164 278,164 278,164 278,164 279,164 279,164 279,164 279,163 279,163 279,162 279,161 279,161 279,160 279,160 279,160 279,160 279,159 280,159 280,159 280,158 280,158 280,158 280,157 280,157 280,156 280,156 280,155 280,155 280,154 280,153 281,153 281,152 281,152 281,151 281,151 281,150 281,149 281,150 281,149 281,149 281,149 281,148 281,148 282,148 282,148 282,148 282,148 282,148 282,147 282,147 282,147 282,147 282,147 282,147 282,146 282,146 283,146 283,145 283,144 283,143 283,143 283,143 283,142 283,142 283,142 283,141 283,141 283,140 283,140 284,139 284,138 284,138 284,137 284,136 284,135 284,134 284,133 284,133 284,133 284,133 284,132 284,132 285,131 285,131 285,131 285,130 285,130 285,130 285,129 285,129 285,129 285,128 285,128 285,128 285,127 286,127 286,127 286,127 286,127 286,126 286,126 286,126 286,125 286,125 286,125 286,124 286,124 286,124 287,123 287,123 287,123 287,122 287,122 287,122 287,122 287,121 287,121 287,121 287,121 287,120 287,120 288,120 288,120 288,120 288,120 288,121 288,121 288,121 288,121 288,121 288,121 288,121 288,121 288,122 289,122 289,122 289,122 289,122 289,122 289,123 289,123 289,123 289,123 289,123 289,124 289,124 289,124 290,124 290,125 290,125 290,125 290,125 290,126 290,126 290,126 290,126 290,127 290,127 290,128 290,128 291,128 291,129 291,129 291,130 291,130 291,132 291,132 291,133 291,133 291,134 291,135 291,135 291,136 292,137 292,137 292,138 292,139 292,140 292,140 292,141 292,142 292,143 292,144 292,145 292,146 292,147 293,147 293,148 293,149 293,149 293,150 293,151 293,152 293,153 293,154 293,155 293,156 293,157 293,158 294,159 294,160 294,161 294,161 294,162 294,162 294,162 294,161 294,161 294,161 294,161 294,160 294,160 295,160 295,159 295,159 295,159 295,159 295,158 295,158 295,158 295,158 295,158 295,158 295,158 295,158 296,158 296,158 296,158 296,157 296,157 296,157 296,156 296,156 296,155 296,154 296,154 296,153 296,153 297,153 297,153 297,153 297,153 297,153 297,153 297,153 297,153 297,153 297,153 297,153 297,153 297,153 298,153 298,153 298,153 298,153 298,153 298,153 298,153 298,153 298,153 298,153 298,154 298,155 298,156 299,157 299,158 299,158 299,160 299,161 299,162 299,163 299,163 299,164 299,164 299,165 299,165 299,166 300,167 300,169 300,169 300,170 300,170 300,171 300,170 300,170 300,170 300,171 300,170 300,170 300,169 301,168 301,168 301,167 301,166 301,166 301,165 301,165 301,165 301,164 301,164 301,164 301,164 301,164 302,164 302,164 302,164 302,164 302,164 302,164 302,164 302,164 302,164 302,163 302,163 302,163 302,163 303,163 303,163 303,163 303,162 303,163 303,164 303,165 303,166 303,167 303,167 303,168 303,169 303,170 304,170 304,170 304,170 304,170 304,170 304,169 304,169 304,169 304,168 304,168 304,167 304,166 304,165 305,164 305,163 305,162 305,161 305,160 305,160 305,159 305,158 305,157 305,156 305,155 305,154 305,153 306,152 306,151 306,151 306,150 306,149 306,149 306,148 306,148 306,147 306,146 306,146 306,145 306,145 307,144 307,144 307,143 307,143 307,143 307,143 307,143 307,142 307,142 307,142 307,141 307,141 307,141 308,140 308,140 308,140 308,139 308,139 308,140 308,140 308,139 308,139 308,139 308,139 308,139 308,139 309,139 309,139 309,139 309,139 309,139 309,139 309,139 309,139 309,140 309,140 309,141 309,140 309,140 310,140 310,140 310,140 310,140 310,140 310,141 310,142 310,143 310,144 310,144 310,143 310,143 310,143 311,142 311,142 311,141 311,140 311,140 311,141 311,141 311,141 311,141 311,140 311,140 311,140 311,140 312,140 312,139 312,139 312,139 312,140 312,140 312,141 312,141 312,142 312,142 312,143 312,143 312,142 313,142 313,141 313,141 313,140 313,139 313,139 313,139 313,139 313,138 313,138 313,137 313,137 313,136 314,136 314,136 314,135 314,135 314,135 314,135 314,135 314,134 314,133 314,133 314,132 314,132 314,132 315,132 315,132 315,132 315,132 315,132 315,131 315,131 315,131 315,131 315,133 315,134 315,134 315,134 316,133 316,132 316,132 316,132 316,132 316,132 316,132 316,132 316,133 316,133 316,134 316,134 316,134 317,133 317,132 317,131 317,131 317,131 317,131 317,131 317,130 317,130 317,130 317,130 317,130 317,129 318,129 318,128 318,127 318,127 318,127 318,126 318,125 318,124 318,123 318,122 318,121 318,121 318,120 319,119 319,118 319,117 319,116 319,116 319,115 319,115 319,114 319,114 319,114 319,114 319,114 319,114 320,114 320,114 320,114 320,114 320,114 320,114 320,114 320,113 320,113 320,113 320,112 320,112 320,111 321,111 321,111 321,110 321,110 321,110 321,109 321,109 321,109 321,108 321,108 321,108 321,108 321,107 322,107 322,107 322,107 322,108 322,108 322,108 322,107 322,107 322,106 322,106 322,105 322,105 322,104 323,103 323,103 323,102 323,101 323,101 323,100 323,99 323,98 323,97 323,96 323,95 323,93 323,93 324,92 324,92 324,91 324,91 324,90 324,89 324,89 324,89 324,89 324,89 324,89 324,88 324,88 325,88 325,88 325,88 325,88 325,87 325,87 325,87 325,87 325,86 325,86 325,86 325,85 325,85 326,85 326,84 326,84 326,83 326,83 326,82 326,82 326,81 326,81 326,80 326,80 326,80 326,80 327,80 327,80 327,80 327,80 327,80 327,80 327,81 327,81 327,81 327,80 327,80 327,80 327,80 328,80 328,79 328,79 328,79 328,79 328,79 328,79 328,80 328,80 328,80 328,80 328,81 328,81 329,82 329,82 329,82 329,81 329,81 329,80 329,80 329,79 329,78 329,78 329,78 329,78 329,78 330,78 330,78 330,78 330,78 330,78 330,79 330,79 330,80 330,80 330,80 330,81 330,81 330,82 331,82 331,81 331,80 331,80 331,79 331,78 331,77 331,76 331,75 331,74 331,73 331,72 331,71 332,71 332,70 332,69 332,69 332,68 332,68 332,67 332,67 332,66 332,66 332,65 332,64 332,64 333,63 333,64 333,64 333,64 333,65 333,65 333,65 333,65 333,65 333,65 333,65 333,65 333,65 334,66 334,66 334,66 334,66 334,66 334,66 334,67 334,67 334,67 334,68 334,68 334,68 334,69 335,69 335,69 335,70 335,70 335,70 335,71 335,71 335,71 335,72 335,72 335,73 335,73 335,74 336,75 336,76 336,77 336,78 336,79 336,80 336,80 336,81 336,82 336,82 336,83 336,84 336,84 337,85 337,85 337,85 337,86 337,86 337,86 337,86 337,86 337,87 337,87 337,87 337,87 337,88 338,88 338,88 338,89 338,89 338,89 338,89 338,90 338,90 338,90 338,90 338,90 338,90 338,90 339,91 339,90 339,90 339,90 339,90 339,90 339,90 339,89 339,89 339,88 339,88 339,87 339,87 340,87 340,87 340,88 340,87 340,87 340,87 340,87 340,87 340,87 340,87 340,87 340,87 340,88 341,88 341,88 341,88 341,88 341,88 341,88 341,88 341,89 341,89 341,89 341,89 341,89 341,89 342,89 342,89 342,89 342,90 342,90 342,90 342,90 342,90 342,90 342,90 342,89 342,88 342,89 343,90 343,92 343,94 343,95 343,96 343,97 343,98 343,99 343,100 343,100 343,101 343,102 343,103 344,103 344,104 344,105 344,106 344,107 344,107 344,108 344,109 344,109 344,110 344,111 344,111 344,111 345,112 345,113 345,113 345,114 345,115 345,115 345,116 345,116 345,117 345,117 345,118 345,118 345,118 346,119 346,119 346,119 346,120 346,120 346,120 346,120 346,121 346,121 346,122 346,122 346,122 346,123 347,123 347,124 347,124 347,124 347,125 347,125 347,126 347,126 347,126 347,126 347,126 347,127 347,127 348,127 348,127 348,127 348,127 348,127 348,128 348,128 348,128 348,128 348,128 348,127 348,127 348,127 349,127 349,127 349,127 349,127 349,127 349,127 349,126 349,126 349,126 349,126 349,126 349,126 349,126 350,126 350,126 350,126 350,126 350,126 350,126 350,126 350,127 350,127 350,127 350,127 350,127 350,127 351,127 351,127 351,127 351,127 351,128 351,128 351,128 351,128 351,129 351,129 351,130 351,130 351,130 352,131 352,132 352,132 352,133 352,134 352,134 352,135 352,135 352,136 352,136 352,137 352,138 352,138 353,139 353,139 353,140 353,140 353,141 353,141 353,142 353,142 353,142 353,143 353,143 353,143 353,144 354,144 354,145 354,145 354,145 354,146 354,146 354,146 354,147 354,147 354,147 354,148 354,148 354,148 355,148 355,149 355,149 355,150 355,150 355,150 355,151 355,151 355,151 355,151 355,151 355,151 355,151 356,151 356,150 356,150 356,150 356,150 356,149 356,149 356,149 356,149 356,149 356,149 356,149 356,148 357,148 357,148 357,147 357,147 357,147 357,146 357,146 357,146 357,145 357,145 357,145 357,144 357,144 358,144 358,144 358,143 358,143 358,143 358,143 358,143 358,144 358,143 358,144 358,145 358,145 358,146 359,146 359,146 359,147 359,148 359,149 359,149 359,150 359,151 359,152 359,152 359,153 359,154 359,154 360,155 360,156 360,156 360,157 360,156 360,157 360,157 360,157 360,157 360,157 360,157 360,158 360,158 361,158 361,158 361,159 361,159 361,160 361,160 361,161 361,162 361,162 361,162 361,163 361,163 361,163 362,164 362,164 362,164 362,164 362,165 362,165 362,166 362,166 362,165 362,165 362,165 362,165 362,165 363,165 363,165 363,165 363,165 363,165 363,165 363,164 363,164 363,164 363,164 363,165 363,165 364,165 364,164 364,163 364,162 364,162 364,161 364,160 364,159 364,160 364,160 364,161 364,162 364,161 365,162 365,162 365,162 365,162 365,163 365,163 365,163 365,163 365,163 365,164 365,164 365,164 365,164 366,164 366,164 366,164 366,165 366,165 366,165 366,165 366,165 366,166 366,166 366,166 366,166 366,167 367,167 367,167 367,167 367,167 367,166 367,166 367,166 367,166 367,165 367,165 367,165 367,165 367,165 368,165 368,164 368,164 368,164 368,164 368,164 368,164 368,164 368,165 368,164 368,164 368,164 368,164 369,164 369,164 369,164 369,164 369,165 369,165 369,165 369,165 369,165 369,165 369,165 369,165 369,165 370,165 370,165 370,165 370,165 370,165 370,165 370,164 370,164 370,164 370,164 370,164 370,164 370,164 371,163 371,163 371,163 371,163 371,163 371,163 371,162 371,162 371,162 371,162 371,162 371,162 371,162 372,162 372,162 372,161 372,161 372,161 372,160 372,160 372,160 372,160 372,159 372,159 372,159 372,158 373,158 373,158 373,157 373,157 373,157 373,156 373,156 373,156 373,155 373,155 373,155 373,154 373,154 374,153 374,153 374,152 374,152 374,151 374,150 374,150 374,149 374,149 374,148 374,148 374,147 374,147 375,146 375,146 375,146 375,145 375,145 375,144 375,144 375,144 375,143 375,143 375,143 375,143 375,143 376,143 376,143 376,143 376,143 376,143 376,143 376,143 376,143 376,143 376,143 376,143 376,143 376,143 377,143 377,143 377,143 377,144 377,144 377,144 377,144 377,144 377,144 377,144 377,144 377,144 377,144 378,144 378,144 378,144 378,143 378,143 378,143 378,143 378,143 378,143 378,143 378,142 378,142 378,142 379,142 379,142 379,142 379,141 379,141 379,141 379,140 379,140 379,139 379,139 379,139 379,139 379,140 380,140 380,140 380,140 380,140 380,140 380,140 380,140 380,141 380,141 380,141 380,141 380,141 380,141 381,141 381,141 381,141 381,141 381,141 381,141 381,141 381,141 381,140 381,140 381,140 381,140 381,140 382,139 382,139 382,139 382,139 382,138 382,138 382,138 382,138 382,138 382,138 382,137 382,137 382,137 383,137 383,137 383,137 383,136 383,136 383,136 383,136 383,136 383,136 383,136 383,136 383,137 383,137 384,138 384,139 384,139 384,140 384,140 384,141 384,142 384,142 384,142 384,142 384,143 384,143 384,143 385,142 385,142 385,142 385,142 385,142 385,141 385,141 385,141 385,141 385,141 385,141 385,141 385,141 386,140 386,140 386,140 386,140 386,140 386,140 386,139 386,139 386,139 386,139 386,139 386,139 386,139 387,139 387,139 387,139 387,139 387,140 387,140 387,139 387,139 387,140 387,140 387,140 387,140 387,140 388,140 388,141 388,141 388,141 388,141 388,141 388,141 388,141 388,142 388,142 388,142 388,142 388,142 389,142 389,142 389,142 389,142 389,142 389,143 389,143 389,144 389,145 389,145 389,146 389,147 389,147 390,148 390,148 390,149 390,150 390,150 390,151 390,152 390,153 390,154 390,154 390,155 390,155 390,156 391,156 391,156 391,156 391,156 391,156 391,156 391,156 391,156 391,155 391,155 391,155 391,155 391,155 392,155 392,154 392,154 392,154 392,154 392,153 392,153 392,153 392,153 392,152 392,152 392,152 392,152 393,152 393,152 393,151 393,151 393,152 393,152 393,152 393,152 393,153 393,153 393,153 393,154 393,154 394,155 394,155 394,156 394,156 394,157 394,157 394,157 394,158 394,158 394,159 394,159 394,159 394,159 395,159 395,159 395,158 395,157 395,157 395,156 395,156 395,156 395,156 395,155 395,155 395,154 395,153 396,153 396,153 396,153 396,153 396,153 396,153 396,153 396,153 396,153 396,153 396,153 396,153 396,153 397,153 397,153 397,153 397,152 397,152 397,152 397,152 397,152 397,152 397,152 397,153 397,153 397,152 398,152 398,152 398,152 398,152 398,152 398,152 398,152 398,152 398,152 398,152 398,152 398,152 398,152 399,152 399,152 399,152 399,152 399,152 399,152 399,152 399,152 399,152 399,152 399,152 399,152 399,152 400,151 400,151 400,151 400,151 400,152 400,152 400,153 400,153 400,154 400,154 400,154 400,155 400,155 401,156 401,156 401,157 401,157 401,158 401,158 401,159 401,159 401,159 401,158 401,159 401,158 401,158 402,158 402,157 402,157 402,157 402,157 402,157 402,156 402,156 402,156 402,156 402,156 402,156 402,155 403,155 403,155 403,155 403,155 403,155 403,154 403,154 403,154 403,153 403,153 403,153 403,152 403,152 404,152 404,151 404,151 404,151 404,151 404,151 404,151 404,151 404,151 404,152 404,152 404,152 404,152 405,152 405,153 405,153 405,153 405,153 405,153 405,153 405,153 405,153 405,154 405,154 405,154 405,154 406,154 406,154 406,155 406,155 406,155 406,155 406,155 406,156 406,156 406,156 406,156 406,156 406,157 407,157 407,157 407,157 407,157 407,157 407,158 407,158 407,158 407,158 407,158 407,158 407,158 407,158 408,158 408,158 408,158 408,158 408,157 408,157 408,157 408,157 408,157 408,157 408,156 408,156 408,156 409,156 409,156 409,156 409,156 409,156 409,156 409,156 409,156 409,156 409,157 409,157 409,158 409,158 410,159 410,159 410,159 410,160 410,160 410,160 410,161 410,161 410,161 410,161 410,161 410,161 410,161 411,161 411,161 411,161 411,161 411,161 411,161 411,161 411,161 411,161 411,161 411,161 411,161 411,162 412,162 412,162 412,162 412,163 412,163 412,163 412,163 412,163 412,164 412,164 412,164 412,164 412,164 413,164 413,164 413,164 413,164 413,163 413,163 413,164 413,164 413,164 413,164 413,164 413,164 413,164 414,164 414,165 414,165 414,166 414,166 414,167 414,167 414,167 414,168 414,168 414,168 414,168 414,168 415,168 415,168 415,168 415,168 415,168 415,168 415,168 415,168 415,169 415,169 415,169 415,169 415,170 416,170 416,170 416,170 416,170 416,170 416,170 416,170 416,169 416,169 416,169 416,169 416,169 416,169 417,168 417,168 417,168 417,168 417,167 417,167 417,166 417,166 417,166 417,166 417,165 417,166 417,166 418,166 418,166 418,166 418,167 418,167 418,168 418,168 418,169 418,169 418,169 418,170 418,170 418,171 419,171 419,171 419,172 419,172 419,172 419,173 419,173 419,173 419,174 419,174 419,174 419,175 419,175 420,175 420,175 420,176 420,176 420,176 420,176 420,176 420,177 420,177 420,177 420,177 420,177 420,178 421,179 421,179 421,180 421,181 421,181 421,182 421,182 421,183 421,184 421,184 421,185 421,185 421,185 422,185 422,186 422,186 422,186 422,186 422,186 422,186 422,186 422,186 422,186 422,186 422,186 422,186 423,186 423,186 423,186 423,186 423,186 423,186 423,185 423,185 423,185 423,185 423,185 423,185 423,185 424,185 424,185 424,185 424,185 424,185 424,185 424,185 424,185 424,185 424,185 424,185 424,185 424,185 425,185 425,184 425,184 425,184 425,184 425,184 425,184 425,184 425,184 425,184 425,184 425,184 425,184 426,184 426,184 426,184 426,184 426,184 426,184 426,184 426,183 426,183 426,183 426,183 426,183 426,183 427,183 427,183 427,183 427,183 427,183 427,182 427,182 427,182 427,182 427,182 427,182 427,182 427,182 428,182 428,182 428,182 428,182 428,182 428,182 428,181 428,181 428,181 428,181 428,181 428,181 428,181 429,181 429,181 429,180 429,180 429,180 429,180 429,180 429,180 429,180 429,180 429,179 429,179 429,179 430,179 430,179 430,179 430,178 430,178 430,178 430,178 430,178 430,177 430,177 430,177 430,177 430,177 431,177 431,176 431,176 431,176 431,176 431,176 431,176 431,175 431,175 431,174 431,174 431,174 431,174 432,174 432,174 432,174 432,174 432,174 432,173 432,173 432,173 432,173 432,173 432,172 432,172 432,172 433,172 433,172 433,172 433,172 433,172 433,172 433,172 433,171 433,171 433,171 433,171 433,171 433,171 434,171 434,171 434,171 434,171 434,170 434,170 434,170 434,170 434,170 434,170 434,169 434,169 434,169 435,169 435,169 435,168 435,168 435,168 435,168 435,168 435,168 435,167 435,167 435,167 435,167 435,167 436,167 436,167 436,167 436,166 436,166 436,166 436,165 436,165 436,165 436,165 436,164 436,164 436,164 437,164 437,164 437,164 437,164 437,164 437,164 437,163 437,163 437,163 437,163 437,164 437,164 437,164 438,164 438,164 438,164 438,164 438,164 438,164 438,164 438,164 438,164 438,164 438,164 438,164 438,164 439,164 439,164 439,164 439,165 439,165 439,165 439,165 439,165 439,166 439,166 439,166 439,166 439,166 440,167 440,167 440,167 440,167 440,168 440,168 440,168 440,168 440,169 440,169 440,169 440,169 440,169 441,170 441,170 441,170 441,170 441,170 441,170 441,171 441,171 441,170 441,170 441,170 441,170 441,170 442,170 442,170 442,170 442,170 442,169 442,169 442,169 442,169 442,169 442,169 442,169 442,168 442,168 443,168 443,168 443,168 443,168 443,168 443,168 443,167 443,167 443,167 443,167 443,167 443,167 443,167 444,167 444,167 444,167 444,167 444,167 444,167 444,167 444,167 444,167 444,167 444,167 444,167 444,167 445,167 445,167 445,168 445,168 445,168 445,169 445,169 445,170 445,170 445,171 445,171 445,172 445,172 446,173 446,173 446,173 446,174 446,174 446,175 446,175 446,176 446,176 446,176 446,177 446,177 446,178 447,178 447,179 447,179 447,180 447,180 447,180 447,181 447,181 447,181 447,182 447,182 447,182 447,182 448,182 448,183 448,183 448,183 448,183 448,183 448,183 448,184 448,184 448,184 448,184 448,185 448,185 449,185 449,185 449,185 449,185 449,185 449,185 449,185 449,185 449,185 449,186 449,186 449,186 449,186 450,185 450,185 450,185 450,185 450,185 450,185 450,186 450,186 450,186 450,186 450,186 450,186 450,186 451,186 451,186 451,186 451,186 451,186 451,185 451,185 451,185 451,185 451,185 451,185 451,185 451,185 452,185 452,185 452,185 452,185 452,185 452,184 452,184 452,184 452,184 452,184 452,184 452,184 452,184 453,184 453,183 453,183 453,183 453,183 453,182 453,182 453,182 453,182 453,182 453,183 453,183 453,183 454,183 454,183 454,182 454,182 454,182 454,182 454,182 454,182 454,181 454,181 454,181 454,181 454,181 455,181 455,181 455,181 455,181 455,181 455,181 455,182 455,182 455,181 455,181 455,181 455,181 455,181 456,182 456,181 456,181 456,181 456,181 456,181 456,181 456,181 456,181 456,181 456,181 456,181 456,181 457,181 457,181 457,181 457,181 457,181 457,181 457,181 457,181 457,181 457,181 457,181 457,180 457,180 458,180 458,180 458,180 458,180 458,180 458,180 458,180 458,180 458,180 458,180 458,180 458,180 458,180 459,180 459,180 459,180 459,179 459,179 459,179 459,179 459,179 459,179 459,179 459,179 459,179 460,179 460,179 460,179 460,179 460,179 460,179 460,178 460,178 460,178 460,178 460,178 460,178 460,178 461,178 461,178 461,177 461,177 461,177 461,177 461,177 461,176 461,176 461,176 461,176 461,176 461,176 462,176 462,176 462,176 462,175 462,175 462,176 462,176 462,176 462,176 462,176 462,176 462,176 462,176 463,176 463,176 463,176 463,176 463,176 463,176 463,176 463,176 463,176 463,176 463,176 463,176 463,176 464,175 464,175 464,175 464,175 464,175 464,175 464,175 464,175 464,174 464,174 464,174 464,174 464,174 465,174 465,173 465,173 465,173 465,173 465,173 465,173 465,173 465,173 465,172 465,172 465,172 465,172 466,172 466,172 466,172 466,172 466,172 466,171 466,171 466,171 466,171 466,171 466,171 466,171 466,170 467,170 467,170 467,170 467,169 467,169 467,169 467,168 467,167 467,167 467,166 467,166 467,166 467,166 468,166 468,166 468,166 468,166 468,165 468,165 468,165 468,164 468,164 468,164 468,164 468,164 468,164 469,164 469,163 469,163 469,163 469,163 469,162 469,162 469,161 469,161 469,160 469,160 469,159 469,159 470,159 470,158 470,158 470,157 470,156 470,155 470,155 470,155 470,155 470,155 470,154 470,153 470,153 471,152 471,152 471,151 471,151 471,150 471,150 471,149 471,148 471,147 471,147 471,146 471,145 471,145 472,144 472,144 472,144 472,143 472,143 472,143 472,143 472,143 472,143 472,142 472,142 472,142 472,142 473,142 473,142 473,142 473,142 473,142 473,141 473,141 473,141 473,141 473,142 473,142 473,142 473,142 474,142 474,143 474,143 474,143 474,144 474,144 474,145 474,145 474,146 474,146 474,147 474,148 474,148 475,149 475,149 475,150 475,150 475,151 475,152 475,152 475,153 475,153 475,154 475,154 475,155 475,155 476,156 476,156 476,157 476,158 476,158 476,158 476,158 476,159 476,159 476,159 476,158 476,158 476,158 477,157 477,157 477,157 477,156 477,156 477,155 477,155 477,155 477,154 477,154 477,154 477,153 477,153 478,153 478,153 478,152 478,152 478,152 478,152 478,151 478,151 478,151 478,150 478,150 478,149 478,149 479,149 479,149 479,149 479,149 479,149 479,149 479,149 479,149 479,149 479,148 479,148 479,148 479,148 480,148 480,148 480,148 480,147 480,147 480,147 480,147 480,147 480,147 480,147 480,147 480,146 480,146 481,146 481,146 481,146 481,146 481,146 481,145 481,145 481,145 481,145 481,145 481,145 481,145 481,145 482,144 482,144 482,144 482,144 482,144 482,144 482,144 482,144 482,143 482,143 482,143 482,143 482,143 483,143 483,143 483,143 483,143 483,143 483,143 483,143 483,143 483,143 483,143 483,143 483,143 483,143 484,144 484,144 484,144 484,144 484,144 484,145 484,145 484,145 484,145 484,145 484,146 484,146 484,146 485,146 485,146 485,147 485,147 485,147 485,147 485,147 485,148 485,148 485,148 485,148 485,149 485,149 486,149 486,149 486,150 486,150 486,150 486,151 486,151 486,151 486,151 486,151 486,152 486,152 486,152 487,152 487,153 487,153 487,153 487,154 487,154 487,154 487,155 487,155 487,155 487,155 487,156 487,156 488,157 488,157 488,157 488,158 488,158 488,158 488,159 488,159 488,159 488,159 488,159 488,159 488,160 489,160 489,160 489,160 489,160 489,160 489,160 489,160 489,160 489,160 489,160 489,159 489,159 489,158 490,158 490,158 490,157 490,157 490,156 490,156 490,156 490,155 490,155 490,155 490,154 490,154 490,154 491,153 491,153 491,153 491,152 491,152 491,152 491,151 491,151 491,151 491,151 491,150 491,150 491,150 492,150 492,149 492,149 492,149 492,148 492,148 492,148 492,147 492,147 492,147 492,147 492,147 492,146 493,146 493,146 493,146 493,145 493,145 493,145 493,145 493,145 493,145 493,144 493,144 493,144 493,144 494,145 494,145 494,145 494,145 494,145 494,145 494,146 494,146 494,146 494,147 494,147 494,148 494,149 495,150 495,151 495,152 495,152 495,153 495,154 495,154 495,155 495,155 495,156 495,156 495,156 495,156 496,156 496,156 496,156 496,156 496,156 496,156 496,156 496,156 496,156 496,156 496,156 496,156 496,156 497,156 497,156 497,156 497,156 497,156 497,156 497,156 497,156 497,156 497,156 497,156 497,156 497,156 498,155 498,155 498,155 498,155 498,155 498,155 498,155 498,155 498,154 498,154 498,154 498,154 498,154 499,154 499,153 499,153 499,153 499,153 499,152 499,152 499,152 499,152 499,152 499,151 499,151 499,151 500,150 500,150 500,150 500,150 500,150 500,149 500,149 500,149 500,149 500,149 500,149 500,149 500,149 501,149 501,149 501,148 501,148 501,148 501,147 501,147 501,147 501,147 501,146 501,146 501,146 501,146 502,146 502,146 502,146 502,146 502,145 502,145 502,145 502,145 502,145 502,144 502,144 502,144 502,144 503,143 503,143 503,143 503,143 503,142 503,142 503,142 503,141 503,141 503,141 503,141 503,140 503,140 504,140 504,140 504,139 504,139 504,139 504,139 504,139 504,139 504,138 504,138 504,138 504,138 504,138 505,138 505,138 505,137 505,137 505,137 505,137 505,137 505,136 505,136 505,136 505,136 505,135 505,135 506,135 506,134 506,134 506,134 506,133 506,133 506,133 506,132 506,132 506,131 506,131 506,131 506,130 507,130 507,130 507,129 507,129 507,128 507,128 507,127 507,127 507,126 507,126 507,125 507,125 507,125 508,124 508,124 508,123 508,123 508,123 508,123 508,123 508,122 508,122 508,122 508,121 508,121 508,121 509,121 509,120 509,120 509,120 509,119 509,119 509,119 509,119 509,118 509,118 509,118 509,118 509,118 510,118 510,118 510,118 510,118 510,118 510,118 510,118 510,118 510,118 510,118 510,119 510,119 510,119 511,119 511,120 511,120 511,120 511,121 511,121 511,121 511,122 511,122 511,123 511,123 511,124 511,124 512,124 512,125 512,125 512,125 512,125 512,125 512,125 512,125 512,125 512,125 512,126 512,127 512,127 513,127 513,127 513,127 513,127 513,128 513,128 513,129 513,129 513,129 513,131 513,131 513,132 513,132 514,133 514,133 514,134 514,135 514,136 514,136 514,137 514,137 514,137 514,137 514,138 514,138 514,138 515,138 515,138 515,138 515,137 515,137 515,137 515,136 515,136 515,135 515,135 515,134 515,134 515,134 516,133 516,133 516,133 516,133 516,132 516,132 516,132 516,131 516,131 516,131 516,131 516,131 516,130 517,130 517,130 517,130 517,129 517,129 517,129 517,129 517,128 517,128 517,128 517,128 517,128 517,128 518,128 518,128 518,128 518,128 518,128 518,128 518,128 518,128 518,128 518,128 518,128 518,128 518,128 519,128 519,128 519,128 519,128 519,129 519,129 519,129 519,129 519,128 519,128 519,128 519,128 519,128 520,128 520,127 520,127 520,127 520,126 520,126 520,125 520,125 520,124 520,124 520,123 520,123 520,123 521,122 521,122 521,121 521,121 521,121 521,120 521,120 521,120 521,119 521,119 521,118 521,118 521,118 522,117 522,117 522,117 522,117 522,117 522,116 522,116 522,116 522,116 522,116 522,116 522,116 522,116 523,116 523,116 523,116 523,116 523,116 523,116 523,116 523,116 523,116 523,116 523,116 523,116 523,116 524,115 524,115 524,115 524,115 524,115 524,114 524,114 524,114 524,113 524,113 524,113 524,113 524,113 525,113 525,112 525,112 525,112 525,112 525,112 525,112 525,112 525,112 525,112 525,111 525,111 525,111 526,111 526,111 526,111 526,111 526,111 526,110 526,110 526,110 526,110 526,110 526,110 526,110 526,109 527,109 527,109 527,109 527,109 527,109 527,109 527,108 527,108 527,108 527,108 527,108 527,108 527,108 528,108 528,108 528,108 528,108 528,108 528,107 528,107 528,107 528,107 528,107 528,107 528,107 528,107 529,107 529,107 529,107 529,107 529,106 529,106 529,106 529,106 529,106 529,106 529,106 529,106 529,106 530,106 530,106 530,106 530,106 530,106 530,106 530,106 530,106 530,106 530,106 530,106 530,106 530,106 531,106 531,106 531,107 531,107 531,107 531,107 531,107 531,107 531,107 531,107 531,107 531,107 531,107 532,107 532,107 532,107 532,108 532,108 532,108 532,108 532,108 532,109 532,109 532,109 532,110 532,110 533,110 533,111 533,111 533,111 533,112 533,112 533,112 533,112 533,113 533,113 533,113 533,113 533,113 534,114 534,114 534,114 534,114 534,114 534,115 534,115 534,115 534,115 534,115 534,116 534,116 534,116 535,116 535,116 535,117 535,117 535,117 535,117 535,118 535,118 535,118 535,118 535,118 535,119 535,119 536,119 536,120 536,120 536,120 536,119 536,119 536,119 536,119 536,119 536,119 536,119 536,119 536,118 537,118 537,118 537,118 537,118 537,118 537,118 537,117 537,117 537,117 537,117 537,117 537,117 537,117 538,116 538,116 538,116 538,116 538,116 538,116 538,116 538,116 538,116 538,116 538,116 538,116 538,116 539,116 539,116 539,117 539,117 539,117 539,117 539,117 539,117 539,117 539,117 539,118 539,118 539,119 540,119 540,120 540,120 540,120 540,120 540,120 540,121 540,121 540,121 540,122 540,122 540,122 540,122 541,122 541,123 541,123 541,123 541,123 541,123 541,123 541,123 541,123 541,124 541,124 541,124 541,124 542,124 542,124 542,124 542,124 542,124 542,124 542,125 542,125 542,125 542,125 542,125 542,125 542,125 543,125 543,126 543,126 543,126 543,126 543,125 543,125 543,125 543,125 543,125 543,124 543,124 543,124 544,124 544,124 544,124 544,123 544,123 544,123 544,123 544,123 544,123 544,122 544,122 544,122 544,122 545,122 545,122 545,122 545,122 545,122 545,122 545,122 545,122 545,122 545,122 545,122 545,121 545,121 546,121 546,121 546,121 546,121 546,121 546,121 546,121 546,121 546,121 546,120 546,120 546,120 546,120 547,120 547,120 547,120 547,119 547,119 547,119 547,119 547,119 547,119 547,118 547,118 547,118 547,118 548,118 548,117 548,117 548,117 548,117 548,117 548,116 548,116 548,116 548,116 548,116 548,116 548,115 549,115 549,115 549,115 549,115 549,115 549,115 549,115 549,114 549,114 549,114 549,114 549,114 549,113 550,113 550,113 550,113 550,112 550,112 550,112 550,112 550,112 550,112 550,111 550,111 550,111 550,111 551,111 551,111 551,111 551,110 551,110 551,110 551,110 551,110 551,109 551,109 551,109 551,109 551,109 552,108 552,108 552,108 552,108 552,108 552,108 552,108 552,108 552,108 552,107 552,107 552,107 552,107 553,107 553,107 553,106 553,106 553,106 553,106 553,105 553,105 553,105 553,104 553,104 553,103 553,103 554,103 554,103 554,103 554,103 554,103 554,103 554,103 554,103 554,103 554,104 554,104 554,104 554,104 555,105 555,105 555,105 555,105 555,105 555,105 555,105 555,105 555,105 555,105 555,105 555,106 556,106 556,106 556,106 556,106 556,107 556,107 556,107 556,107 556,107 556,107 556,108 556,108 556,108 557,108 557,108 557,109 557,109 557,109 557,109 557,109 557,110 557,110 557,110 557,110 557,110 557,111 558,111 558,111 558,111 558,112 558,112 558,112 558,112 558,113 558,113 558,113 558,113 558,113 558,114 559,114 559,114 559,114 559,114 559,114 559,114 559,114 559,113 559,113 559,113 559,113 559,113 559,113 560,113 560,113 560,113 560,113 560,113 560,113 560,113 560,113 560,113 560,114 560,114 560,114 560,114 561,114 561,114 561,114 561,114 561,114 561,114 561,114 561,114 561,114 561,114 561,114 561,115 561,115 562,115 562,115 562,115 562,115 562,115 562,115 562,116 562,116 562,116 562,116 562,116 562,116 562,116 563,116 563,116 563,117 563,117 563,117 563,117 563,117 563,117 563,117 563,117 563,117 563,118 563,117 564,117 564,117 564,117 564,117 564,117 564,117 564,117 564,117 564,116 564,116 564,116 564,116 564,116 565,116 565,116 565,115 565,115 565,115 565,115 565,115 565,115 565,114 565,114 565,114 565,114 565,114 566,114 566,114 566,114 566,113 566,113 566,113 566,113 566,113 566,112 566,112 566,112 566,112 566,112 567,112 567,111 567,111 567,111 567,111 567,111 567,111 567,110 567,110 567,110 567,110 567,110 567,110 568,109 568,109 568,109 568,109 568,109 568,109 568,109 568,109 568,108 568,108 568,108 568,108 568,108 569,108 569,107 569,107 569,107 569,107 569,107 569,107 569,107 569,107 569,107 569,107 569,106 569,106 570,106 570,106 570,106 570,106 570,106 570,106 570,106 570,106 570,106 570,106 570,106 570,106 570,106 571,106 571,106 571,106 571,106 571,106 571,106 571,106 571,106 571,106 571,107 571,107 571,107 571,106 572,106 572,107 572,107 572,107 572,106 572,107 572,107 572,107 572,107 572,107 572,107 572,107 572,107 573,107 573,107 573,107 573,107 573,108 573,108 573,108 573,108 573,108 573,108 573,108 573,108 573,108 574,108 574,108 574,108 574,108 574,108 574,108 574,108 574,109 574,109 574,109 574,109 574,109 574,109 575,109 575,109 575,109 575,109 575,109 575,110 575,110 575,110 575,111 575,111 575,111 575,112 575,111 576,112 576,112 576,112 576,113 576,113 576,114 576,114 576,115 576,115 576,115 576,116 576,116 576,117 577,117 577,118 577,118 577,119 577,119 577,120 577,120 577,120 577,120 577,121 577,121 577,121 577,121 578,122 578,122 578,122 578,122 578,123 578,123 578,123 578,123 578,124 578,124 578,124 578,124 578,124 579,124 579,124 579,124 579,124 579,124 579,124 579,124 579,124 579,124 579,124 579,125 579,125 579,125 580,125 580,125 580,125 580,125 580,125 580,126 580,126 580,126 580,126 580,126 580,127 580,127 580,127 581,127 581,128 581,128 581,128 581,129 581,129 581,129 581,129 581,129 581,129 581,130 581,130 581,130 582,130 582,130 582,131 582,131 582,131 582,132 582,132 582,132 582,133 582,133 582,133 582,134 582,134 583,134 583,135 583,135 583,135 583,135 583,136 583,136 583,136 583,137 583,137 583,137 583,137 583,137 584,138 584,138 584,138 584,138 584,138 584,138 584,138 584,138 584,139 584,139 584,139 584,139 584,139 585,139 585,139 585,139 585,139 585,140 585,140 585,140 585,140 585,140 585,141 585,141 585,141 585,141 586,142 586,142 586,142 586,143 586,143 586,143 586,144 586,144 586,145 586,145 586,146 586,146 586,146 587,147 587,147 587,147 587,147 587,148 587,148 587,148 587,148 587,148 587,149 587,149 587,149 587,150 588,150 588,150 588,150 588,151 588,151 588,152 588,152 588,152 588,152 588,153 588,153 588,153 588,153 589,153 589,154 589,154 589,154 589,154 589,154 589,154 589,154 589,154 589,154 589,154 589,155 589,155 590,155 590,155 590,156 590,156 590,156 590,156 590,157 590,157 590,157 590,157 590,157 590,157 590,158 591,158 591,158 591,158 591,158 591,159 591,159 591,159 591,159 591,159 591,159 591,159 591,159 591,159 592,160 592,160 592,160 592,160 592,160 592,160 592,160 592,160 592,161 592,161 592,161 592,161 592,161 593,161 593,161 593,161 593,161 593,161 593,161 593,162 593,162 593,163 593,163 593,163 593,163 593,163 594,163 594,163 594,163 594,163 594,163 594,163 594,163 594,164 594,164 594,164 594,164 594,164 594,164 595,164 595,165 595,165 595,165 595,165 595,165 595,165 595,165 595,166 595,166 595,166 595,166 595,166 596,166 596,166 596,166 596,167 596,167 596,167 596,167 596,168 596,168 596,168 596,168 596,168 596,169 597,169 597,169 597,169 597,169 597,169 597,169 597,170 597,170 597,170 597,170 597,170 597,170 597,170 598,170 598,170 598,170 598,170 598,170 598,171 598,171 598,171 598,171 598,171 598,171 598,171 598,170 599,171 599,171 599,171 599,171 599,171 599,170 599,170 599,170 599,169 599,169 599,169 599,168 599,168 600,168 600,168 600,168 600,168 600,168 600,168 600,168 600,168 600,168 600,168 600,167 600,167 600,167 601,167 601,167 601,167 601,167 601,167 601,167 601,167 601,167 601,167 601,167 601,167 601,167 601,168 602,168 602,168 602,168 602,168 602,168 602,168 602,168 602,168 602,168 602,168 602,168 602,168 602,168 603,168 603,168 603,168 603,168 603,168 603,168 603,168 603,169 603,169 603,169 603,169 603,169 603,169 604,169 604,169 604,169 604,169 604,169 604,169 604,169 604,169 604,169 604,169 604,169 604,169 604,169 605,169 605,169 605,169 605,170 605,170 605,170 605,170 605,170 605,171 605,171 605,171 605,171 605,172 606,172 606,172 606,173 606,173 606,173 606,174 606,174 606,174 606,175 606,175 606,175 606,175 606,175 607,176 607,176 607,177 607,177 607,178 607,178 607,178 607,179 607,179 607,179 607,179 607,179 607,179 608,180 608,180 608,180 608,180 608,180 608,180 608,180 608,180 608,180 608,180 608,180 608,180 608,180 609,180 609,180 609,181 609,181 609,181 609,181 609,181 609,182 609,182 609,182 609,182 609,182 609,182 610,182 610,182 610,182 610,182 610,182 610,182 610,182 610,182 610,182 610,182 610,182 610,182 610,182 611,182 611,183 611,183 611,183 611,184 611,184 611,184 611,184 611,184 611,184 611,185 611,185 611,185 612,185 612,185 612,186 612,186 612,186 612,186 612,186 612,186 612,186 612,186 612,186 612,187 612,187 613,187 613,187 613,187 613,187 613,187 613,187 613,187 613,187 613,186 613,186 613,186 613,186 613,186 614,186 614,186 614,186 614,186 614,186 614,185 614,185 614,185 614,185 614,185 614,185 614,186 614,186 615,186 615,186 615,186 615,186 615,187 615,187 615,187 615,187 615,187 615,188 615,188 615,188 615,188 616,188 616,188 616,188 616,188 616,188 616,187 616,187 616,187 616,187 616,187 616,186 616,186 616,186 617,186 617,186 617,187 617,187 617,187 617,187 617,188 617,188 617,189 617,189 617,189 617,190 617,190 618,191 618,191 618,191 618,191 618,192 618,192 618,193 618,193 618,193 618,193 618,194 618,194 618,194 619,195 619,195 619,195 619,196 619,196 619,196 619,196 619,197 619,197 619,197 619,198 619,198 619,198 620,198 620,198 620,199 620,199 620,199 620,199 620,199 620,199 620,199 620,200 620,200 620,200 620,200 621,200 621,200 621,200 621,200 621,200 621,200 621,200 621,200 621,199 621,199 621,199 621,199 621,199 622,198 622,198 622,198 622,197 622,197 622,197 622,196 622,196 622,195 622,195 622,195 622,195 622,195 623,195 623,195 623,195 623,195 623,196 623,196 623,196 623,196 623,196 623,196 623,197 623,197 623,197 624,197 624,198 624,198 624,198 624,199 624,199 624,199 624,199 624,200 624,200 624,200 624,200 624,200 625,200 625,199 625,199 625,199 625,199 625,199 625,199 625,198 625,198 625,198 625,198 625,197 625,197 626,197 626,197 626,196 626,196 626,196 626,196 626,196 626,196 626,196 626,196 626,196 626,196 626,196 627,196 627,196 627,196 627,196 627,197 627,197 627,197 627,198 627,198 627,198 627,199 627,199 627,200 628,200 628,201 628,202 628,202 628,203 628,204 628,205 628,205 628,206 628,207 628,209 628,211 628,213 629,215 629,216 629,218 629,219 629,221 629,222 629,222 629,222 629,223 629,223 629,223 629,222 629,222 630,222 630,222 630,222 630,222 630,222 630,221 630,221 630,221 630,221 630,221 630,221 630,221 630,221 631,221 631,221 631,221 631,220 631,220 631,220 631,220 631,220 631,219 631,219 631,219 631,219 631,218 632,218 632,217 632,217 632,216 632,216 632,216 632,216 632,215 632,216 632,215 632,215 632,215 632,215 633,215 633,214 633,214 633,213 633,213 633,213 633,213 633,213 633,213 633,213 633,213 633,213 633,213 634,213 634,213 634,213 634,212 634,212 634,212 634,211 634,211 634,210 634,209 634,209 634,208 634,207 635,207 635,206 635,206 635,205 635,205 635,205 635,205 635,205 635,205 635,205 635,205 635,205 635,205 636,206 636,206 636,206 636,207 636,207 636,207 636,207 636,207 636,207 636,207 636,207 636,207 636,207 637,207 637,207 637,207 637,208 637,208 637,208 637,208 637,208 637,208 637,208 637,207 637,207 637,207 638,207 638,207 638,206 638,206 638,206 638,206 638,205 638,205 638,205 638,204 638,204 638,203 638,203 639,203 639,203 639,203 639,203 639,203 639,203 639,203 639,203 639,203 639,204 639,204 639,203 639,203 640,203 640,202 640,202 640,202 640,202 640,202 640,201 640,201 640,201 640,201 640,201 640,201 640,201 641,201 641,201 641,201 641,201 641,201 641,201 641,201 641,201 641,201 641,201 641,202 641,202 641,202 642,202 642,202 642,203 642,203 642,203 642,204 642,204 642,204 642,205 642,205 642,205 642,205 642,206 643,206 643,206 643,207 643,207 643,207 643,207 643,208 643,208 643,208 643,208 643,209 643,209 643,209 644,209 644,210 644,210 644,210 644,210 644,211 644,211 644,211 644,211 644,212 644,212 644,212 644,212 645,212 645,212 645,213 645,213 645,213 645,213 645,213 645,213 645,213 645,213 645,214 645,214 645,214 646,214 646,213 646,213 646,213 646,213 646,213 646,212 646,212 646,212 646,212 646,212 646,211 646,211 647,211 647,211 647,211 647,210 647,210 647,210 647,210 647,210 647,210 647,210 647,210 647,210 647,210 648,211 648,211 648,211 648,211 648,211 648,212 648,212 648,212 648,212 648,213 648,213 648,213 648,213 649,214 649,214 649,214 649,215 649,215 649,215 649,216 649,216 649,216 649,216 649,217 649,217 649,217 650,217 650,218 650,218 650,219 650,220 650,220 650,220 650,221 650,221 650,221 650,222 650,222 650,222 651,223 651,223 651,223 651,223 651,223 651,223 651,223 651,224 651,224 651,224 651,224 651,224 652,224 652,224 652,224 652,224 652,224 652,223 652,223 652,223 652,223 652,223 652,223 652,222 652,222 653,222 653,222 653,222 653,222 653,222 653,222 653,221 653,221 653,221 653,221 653,221 653,221 653,221 654,221 654,221 654,221 654,221 654,221 654,220 654,220 654,220 654,220 654,220 654,220 654,219 654,219 655,219 655,219 655,219 655,219 655,219 655,219 655,219 655,219 655,219 655,219 655,219 655,219 655,219 656,219 656,219 656,218 656,218 656,218 656,218 656,218 656,218 656,217 656,217 656,217 656,216 656,216 657,215 657,215 657,214 657,214 657,213 657,212 657,212 657,211 657,210 657,209 657,209 657,208 657,207 658,206 658,205 658,205 658,204 658,203 658,202 658,201 658,200 658,200 658,199 658,198 658,197 658,197 659,196 659,195 659,194 659,194 659,193 659,192 659,191 659,190 659,189 659,189 659,188 659,188 659,188 660,187 660,187 660,187 660,186 660,186 660,186 660,185 660,185 660,185 660,184 660,184 660,183 660,183 661,183 661,182 661,182 661,181 661,181 661,181 661,180 661,180 661,180 661,179 661,179 661,179 661,178 662,178 662,178 662,178 662,177 662,177 662,177 662,176 662,176 662,176 662,176 662,175 662,175 662,175 663,175 663,174 663,174 663,174 663,173 663,173 663,173 663,172 663,172 663,172 663,171 663,171 663,171 664,170 664,169 664,169 664,168 664,168 664,168 664,168 664,167 664,167 664,167 664,168 664,167 664,167 665,168 665,168 665,167 665,167 665,167 665,167 665,167 665,167 665,167 665,167 665,166 665,166 665,166 666,166 666,166 666,166 666,166 666,166 666,165 666,165 666,165 666,164 666,164 666,164 666,163 666,163 667,163 667,163 667,163 667,164 667,164 667,163 667,163 667,163 667,163 667,163 667,162 667,162 667,162 668,162 668,162 668,162 668,162 668,163 668,163 668,163 668,163 668,164 668,164 668,164 668,164 668,163 669,163 669,163 669,164 669,164 669,165 669,166 669,167 669,168 669,169 669,170 669,171 669,172 669,173 670,174 670,175 670,174 670,174 670,173 670,172 670,170 670,169 670,167 670,166 670,165 670,164 670,162 671,162 671,161 671,160 671,159 671,158 671,158 671,157 671,157 671,155 671,155 671,154 671,154 671,154 672,154 672,154 672,154 672,153 672,154 672,154 672,154 672,154 672,154 672,155 672,155 672,155 672,155 673,155 673,156 673,155 673,155 673,154 673,154 673,153 673,152 673,152 673,151 673,150 673,149 673,149 674,148 674,147 674,146 674,146 674,145 674,144 674,143 674,142 674,142 674,141 674,140 674,139 674,138 675,138 675,137 675,136 675,135 675,135 675,134 675,134 675,133 675,133 675,133 675,132 675,132 675,131 676,131 676,131 676,131 676,130 676,130 676,130 676,130 676,129 676,129 676,129 676,129 676,129 676,129 677,129 677,129 677,129 677,129 677,129 677,129 677,129 677,129 677,130 677,130 677,130 677,130 677,131 678,131 678,131 678,132 678,132 678,132 678,132 678,133 678,133 678,133 678,133 678,134 678,134 678,134 679,135 679,135 679,135 679,135 679,135 679,135 679,136 679,136 679,137 679,137 679,137 679,138 679,138 680,138 680,138 680,138 680,138 680,139 680,139 680,139 680,139 680,139 680,139 680,140 680,140 680,140 681,140 681,140 681,140 681,140 681,140 681,140 681,141 681,141 681,141 681,141 681,141 681,141 681,141 682,141 682,141 682,141 682,141 682,142 682,141 682,141 682,141 682,141 682,141 682,140 682,140 682,140 683,140 683,140 683,140 683,140 683,140 683,140 683,139 683,139 683,139 683,139 683,139 683,139 683,139 684,138 684,138 684,138 684,138 684,138 684,138 684,138 684,138 684,137 684,138 684,138 684,138 684,138 685,138 685,139 685,139 685,139 685,139 685,140 685,140 685,140 685,141 685,141 685,141 685,141 685,142 686,142 686,142 686,142 686,142 686,142 686,143 686,143 686,143 686,143 686,143 686,144 686,144 686,144 687,144 687,144 687,145 687,145 687,145 687,145 687,145 687,146 687,146 687,146 687,146 687,147 687,147 688,147 688,148 688,148 688,149 688,149 688,150 688,150 688,151 688,151 688,152 688,152 688,152 688,153 689,153 689,153 689,154 689,155 689,156 689,156 689,157 689,158 689,158 689,159 689,159 689,159 689,160 690,160 690,160 690,160 690,160 690,160 690,160 690,160 690,160 690,160 690,160 690,160 690,159 690,159 691,158 691,158 691,157 691,156 691,155 691,154 691,153 691,151 691,150 691,150 691,150 691,150 691,149 692,149 692,149 692,148 692,148 692,148 692,147 692,147 692,147 692,146 692,146 692,146 692,145 692,145 693,144 693,144 693,143 693,143 693,142 693,142 693,141 693,141 693,141 693,140 693,140 693,140 693,140 694,141 694,141 694,141 694,141 694,141 694,142 694,142 694,142 694,142 694,143 694,143 694,143 694,143 695,144 695,144 695,144 695,144 695,144 695,145 695,145 695,145 695,145 695,145 695,146 695,146 695,146 696,146 696,147 696,147 696,147 696,147 696,147 696,148 696,148 696,148 696,148 696,149 696,149 696,149 697,149 697,149 697,150 697,150 697,150 697,150 697,150 697,151 697,151 697,151 697,151 697,151 697,152 698,152 698,152 698,152 698,153 698,153 698,153 698,153 698,153 698,154 698,154 698,154 698,154 698,154 699,154 699,155 699,155 699,155 699,155 699,155 699,155 699,155 699,155 699,155 699,156 699,156 699,156 700,156 700,156 700,156 700,156 700,155 700,155 700,155 700,155 700,155 700,155 700,155 700,154 700,154 701,154 701,154 701,154 701,154 701,154 701,154 701,154 701,153 701,153 701,153 701,153 701,153 701,153 702,153 702,153 702,152 702,152 702,152 702,152 702,152 702,152 702,152 702,152 702,152 702,152 702,152 703,152 703,152 703,152 703,152 703,152 703,152 703,152 703,152 703,151 703,151 703,151 703,151 703,150 704,150 704,150 704,150 704,150 704,150 704,150 704,150 704,150 704,150 704,150 704,151 704,151 704,151 705,152 705,152 705,152 705,152 705,153 705,153 705,153 705,154 705,154 705,154 705,154 705,155 705,155 706,155 706,155 706,155 706,155 706,155 706,156 706,156 706,156 706,157 706,157 706,157 706,157 706,158 707,158 707,158 707,158 707,158 707,158 707,158 707,157 707,157 707,157 707,157 707,156 707,156 707,155 708,155 708,155 708,155 708,155 708,155 708,155 708,155 708,155 708,155 708,155 708,155 708,155 708,155 709,155 709,155 709,155 709,156 709,156 709,156 709,156 709,157 709,157 709,157 709,157 709,158 709,158 710,158 710,158 710,158 710,159 710,159 710,159 710,159 710,160 710,160 710,160 710,161 710,161 710,161 711,162 711,162 711,163 711,163 711,164 711,164 711,165 711,166 711,166 711,167 711,168 711,168 711,169 712,170 712,170 712,171 712,172 712,173 712,173 712,174 712,175 712,176 712,177 712,178 712,179 712,180 713,181 713,182 713,183 713,183 713,184 713,185 713,185 713,186 713,187 713,188 713,188 713,189 713,190 714,191 714,192 714,192 714,193 714,193 714,194 714,194 714,195 714,195 714,196 714,196 714,196 714,196 715,197 715,197 715,197 715,197 715,197 715,197 715,197 715,197 715,197 715,198 715,198 715,198 715,198 716,198 716,199 716,199 716,199 716,199 716,200 716,200 716,200 716,201 716,201 716,201 716,202 716,202 717,202 717,202 717,203 717,203 717,203 717,204 717,204 717,204 717,205 717,204 717,204 717,205 717,205 718,205 718,206 718,206 718,206 718,206 718,207 718,207 718,207 718,207 718,207 718,207 718,208 718,208 719,208 719,209 719,209 719,209 719,209 719,209 719,209 719,210 719,210 719,210 719,210 719,210 719,210 720,210 720,210 720,210 720,211 720,211 720,211 720,211 720,211 720,211 720,211 720,212 720,212 720,212 721,212 721,212 721,212 721,212 721,212 721,212 721,212 721,212 721,212 721,213 721,213 721,213 721,213 722,213 722,213 722,213 722,213 722,213 722,213 722,213 722,213 722,213 722,213 722,213 722,213 722,213 723,213 723,213 723,214 723,214 723,214 723,214 723,214 723,214 723,214 723,214 723,214 723,214 723,214 724,214 724,214 724,214 724,214 724,214 724,214 724,214 724,214 724,214 724,214 724,214 724,215 724,215 725,215 725,215 725,215 725,215 725,215 725,215 725,215 725,215 725,215 725,215 725,215 725,215 725,215 726,215 726,215 726,215 726,215 726,215 726,215 726,215 726,214 726,214 726,214 726,214 726,214 726,214 727,214 727,214 727,214 727,214 727,214 727,213 727,213 727,213 727,213 727,213 727,213 727,213 727,213 728,213 728,213 728,213 728,213 728,213 728,213 728,213 728,213 728,213 728,213 728,213 728,213 728,213 729,213 729,213 729,213 729,213 729,213 729,213 729,213 729,213 729,213 729,213 729,213 729,213 729,213 730,213 730,212 730,212 730,212 730,212 730,212 730,212 730,212 730,212 730,212 730,212 730,212 730,212 731,213 731,213 731,213 731,213 731,213 731,213 731,214 731,214 731,214 731,214 731,214 731,214 731,215 732,215 732,215 732,215 732,216 732,216 732,216 732,216 732,216 732,215 732,215 732,214 732,214 732,214 733,214 733,214 733,214 733,215 733,215 733,215 733,216 733,216 733,216 733,217 733,217 733,217 733,218 734,218 734,218 734,219 734,219 734,219 734,220 734,220 734,220 734,221 734,221 734,221 734,221 734,222 735,222 735,222 735,222 735,222 735,223 735,223 735,223 735,223 735,223 735,223 735,223 735,223 735,223 736,224 736,224 736,224 736,224 736,224 736,225 736,225 736,225 736,225 736,225 736,225 " vector-effect="non-scaling-stroke"></polyline>
</g></svg>