<?xml version="1.0" encoding="UTF-8" standalone="no"?><svg width="282.222mm" height="141.111mm" xmlns="http://www.w3.org/2000/svg" xmlns:xlink="http://www.w3.org/1999/xlink"  version="1.2" baseProfile="tiny"><g fill="none" stroke="#ff0000" stroke-linecap="round" stroke-linejoin="round" stroke-opacity="1" stroke-width="1.5" transform="matrix(1,0,0,1,0,0)">
<polyline fill="none" points="65,355 65,355 65,354 65,354 65,354 65,354 65,354 65,355 66,355 66,355 66,355 66,354 66,354 66,354 66,354 66,354 66,354 66,354 66,354 66,354 66,354 67,354 67,354 67,354 67,354 67,354 67,354 67,354 67,355 67,355 67,354 67,354 67,353 67,353 68,353 68,353 68,353 68,353 68,353 68,353 68,353 68,353 68,353 68,353 68,353 68,353 68,353 69,353 69,353 69,354 69,354 69,354 69,354 69,354 69,354 69,354 69,354 69,354 69,354 69,354 70,354 70,354 70,353 70,353 70,353 70,353 70,353 70,353 70,353 70,353 70,353 70,353 70,353 71,353 71,353 71,353 71,353 71,353 71,353 71,353 71,353 71,353 71,353 71,354 71,354 71,354 72,354 72,354 72,354 72,353 72,353 72,353 72,353 72,353 72,353 72,353 72,353 72,353 72,353 73,354 73,353 73,353 73,353 73,353 73,353 73,353 73,353 73,353 73,353 73,353 73,353 73,353 74,352 74,352 74,352 74,352 74,352 74,352 74,352 74,353 74,353 74,352 74,352 74,352 74,352 75,352 75,352 75,352 75,352 75,352 75,353 75,353 75,353 75,353 75,352 75,352 75,352 75,352 76,352 76,352 76,352 76,352 76,352 76,353 76,353 76,353 76,352 76,352 76,352 76,352 76,352 77,352 77,351 77,351 77,351 77,351 77,351 77,351 77,351 77,351 77,351 77,351 77,351 77,351 78,351 78,351 78,351 78,351 78,351 78,351 78,351 78,352 78,352 78,351 78,351 78,351 78,351 79,351 79,351 79,351 79,351 79,351 79,351 79,351 79,351 79,352 79,351 79,351 79,351 79,352 80,352 80,353 80,352 80,352 80,351 80,351 80,350 80,350 80,350 80,350 80,350 80,350 80,350 81,350 81,350 81,350 81,350 81,350 81,350 81,350 81,350 81,350 81,350 81,350 81,350 81,350 82,350 82,350 82,350 82,349 82,349 82,349 82,349 82,349 82,349 82,349 82,349 82,349 82,349 83,349 83,349 83,349 83,348 83,349 83,349 83,349 83,349 83,349 83,349 83,349 83,349 83,349 84,348 84,348 84,348 84,348 84,348 84,347 84,347 84,347 84,347 84,347 84,347 84,347 84,347 85,347 85,347 85,347 85,347 85,347 85,347 85,347 85,347 85,347 85,347 85,347 85,347 85,347 86,347 86,347 86,347 86,347 86,347 86,347 86,347 86,347 86,347 86,347 86,347 86,347 86,347 87,347 87,347 87,346 87,346 87,346 87,346 87,346 87,346 87,346 87,346 87,346 87,346 87,346 88,346 88,346 88,346 88,346 88,345 88,345 88,345 88,345 88,346 88,346 88,346 88,346 88,346 89,346 89,345 89,345 89,345 89,345 89,345 89,345 89,345 89,345 89,345 89,345 89,345 89,344 90,344 90,345 90,345 90,345 90,345 90,344 90,344 90,344 90,344 90,344 90,344 90,344 90,344 91,344 91,344 91,344 91,344 91,344 91,343 91,343 91,343 91,343 91,343 91,343 91,343 91,343 92,344 92,344 92,343 92,343 92,343 92,343 92,343 92,343 92,343 92,343 92,343 92,343 92,343 93,343 93,343 93,343 93,343 93,343 93,343 93,342 93,342 93,342 93,342 93,342 93,342 93,341 94,342 94,342 94,342 94,342 94,342 94,342 94,342 94,342 94,342 94,342 94,342 94,342 94,342 95,342 95,342 95,342 95,342 95,342 95,342 95,342 95,342 95,341 95,342 95,342 95,342 95,342 96,341 96,341 96,341 96,341 96,341 96,341 96,341 96,340 96,340 96,340 96,340 96,340 96,340 97,340 97,340 97,340 97,340 97,339 97,339 97,339 97,339 97,339 97,339 97,339 97,339 97,339 98,339 98,339 98,339 98,339 98,338 98,338 98,338 98,338 98,338 98,338 98,338 98,338 98,338 99,338 99,338 99,338 99,338 99,338 99,338 99,338 99,338 99,337 99,337 99,337 99,337 99,337 100,337 100,338 100,337 100,337 100,337 100,337 100,337 100,337 100,337 100,337 100,337 100,337 100,337 101,337 101,337 101,337 101,337 101,337 101,337 101,336 101,336 101,336 101,336 101,336 101,336 101,336 102,336 102,336 102,336 102,335 102,335 102,335 102,335 102,335 102,335 102,335 102,335 102,335 102,335 103,335 103,335 103,335 103,335 103,335 103,335 103,334 103,334 103,334 103,334 103,334 103,334 103,333 104,333 104,333 104,333 104,334 104,334 104,334 104,334 104,333 104,333 104,334 104,334 104,334 104,334 105,334 105,334 105,333 105,333 105,333 105,333 105,333 105,333 105,332 105,332 105,332 105,332 105,332 106,332 106,332 106,332 106,332 106,332 106,332 106,332 106,332 106,332 106,332 106,332 106,332 106,332 107,332 107,332 107,332 107,332 107,332 107,332 107,332 107,331 107,331 107,331 107,331 107,331 107,331 108,331 108,331 108,331 108,331 108,331 108,331 108,331 108,331 108,331 108,331 108,331 108,331 108,331 109,331 109,331 109,331 109,330 109,330 109,330 109,330 109,330 109,330 109,330 109,330 109,330 109,330 110,330 110,330 110,330 110,330 110,330 110,330 110,330 110,331 110,331 110,331 110,330 110,330 110,330 111,330 111,329 111,329 111,329 111,329 111,329 111,329 111,329 111,329 111,329 111,329 111,329 111,329 112,329 112,329 112,329 112,328 112,328 112,328 112,327 112,327 112,327 112,327 112,327 112,327 112,327 113,327 113,327 113,327 113,327 113,327 113,328 113,328 113,328 113,328 113,328 113,328 113,328 113,328 114,328 114,328 114,328 114,327 114,327 114,327 114,327 114,327 114,327 114,326 114,326 114,326 114,326 115,326 115,326 115,326 115,326 115,326 115,326 115,326 115,326 115,326 115,325 115,325 115,325 115,325 116,325 116,324 116,325 116,325 116,325 116,324 116,324 116,324 116,324 116,324 116,324 116,324 116,324 117,324 117,323 117,323 117,323 117,323 117,323 117,323 117,323 117,323 117,323 117,322 117,322 117,322 118,322 118,323 118,323 118,323 118,323 118,322 118,322 118,322 118,322 118,322 118,321 118,321 118,321 119,321 119,321 119,321 119,321 119,321 119,321 119,320 119,320 119,320 119,320 119,320 119,319 119,319 120,319 120,319 120,318 120,318 120,318 120,318 120,318 120,318 120,318 120,318 120,318 120,317 120,317 121,317 121,317 121,317 121,316 121,316 121,316 121,316 121,316 121,316 121,315 121,315 121,315 121,315 122,314 122,314 122,314 122,314 122,314 122,313 122,313 122,313 122,313 122,312 122,312 122,312 122,312 123,312 123,311 123,311 123,311 123,311 123,311 123,310 123,310 123,310 123,310 123,310 123,309 123,309 124,309 124,309 124,309 124,309 124,309 124,308 124,308 124,308 124,307 124,307 124,307 124,307 124,307 125,306 125,306 125,306 125,306 125,306 125,306 125,306 125,306 125,305 125,305 125,305 125,305 125,305 126,305 126,305 126,304 126,304 126,304 126,304 126,304 126,304 126,304 126,304 126,304 126,304 126,303 127,303 127,303 127,302 127,302 127,302 127,302 127,303 127,303 127,302 127,302 127,302 127,302 127,302 128,302 128,302 128,302 128,302 128,301 128,301 128,301 128,301 128,301 128,301 128,301 128,301 128,301 129,300 129,300 129,300 129,300 129,300 129,300 129,300 129,300 129,300 129,300 129,300 129,300 129,300 130,300 130,300 130,300 130,300 130,300 130,300 130,300 130,299 130,299 130,299 130,299 130,299 130,298 131,298 131,298 131,298 131,298 131,298 131,298 131,298 131,297 131,297 131,297 131,297 131,296 131,296 132,296 132,296 132,295 132,295 132,295 132,295 132,295 132,294 132,294 132,294 132,293 132,293 132,292 133,292 133,292 133,291 133,291 133,291 133,291 133,291 133,291 133,291 133,291 133,290 133,290 133,290 134,290 134,289 134,289 134,289 134,289 134,288 134,288 134,288 134,288 134,287 134,287 134,287 134,287 135,286 135,286 135,286 135,285 135,285 135,284 135,284 135,284 135,283 135,283 135,283 135,283 135,283 136,283 136,283 136,283 136,283 136,282 136,282 136,282 136,281 136,282 136,282 136,282 136,282 136,283 137,283 137,283 137,283 137,283 137,283 137,283 137,283 137,282 137,282 137,282 137,282 137,281 137,280 138,280 138,279 138,279 138,279 138,278 138,278 138,278 138,278 138,278 138,277 138,277 138,276 138,276 139,276 139,275 139,275 139,275 139,274 139,274 139,274 139,273 139,272 139,272 139,271 139,271 139,270 140,270 140,269 140,269 140,268 140,268 140,268 140,267 140,267 140,266 140,266 140,265 140,265 141,264 141,264 141,263 141,263 141,262 141,262 141,261 141,260 141,260 141,260 141,259 141,259 141,258 142,257 142,257 142,257 142,257 142,257 142,256 142,256 142,255 142,254 142,254 142,253 142,253 142,253 143,252 143,252 143,252 143,252 143,252 143,251 143,251 143,251 143,251 143,250 143,250 143,250 143,250 144,249 144,249 144,249 144,249 144,249 144,249 144,249 144,249 144,249 144,249 144,249 144,249 144,249 145,249 145,249 145,248 145,248 145,247 145,247 145,246 145,246 145,245 145,244 145,244 145,243 145,242 146,241 146,241 146,241 146,241 146,241 146,241 146,241 146,241 146,240 146,240 146,240 146,240 146,240 147,240 147,240 147,240 147,240 147,240 147,240 147,239 147,240 147,240 147,241 147,242 147,242 147,243 148,244 148,245 148,246 148,246 148,247 148,248 148,249 148,249 148,250 148,250 148,250 148,250 148,249 149,249 149,248 149,247 149,246 149,246 149,245 149,245 149,245 149,244 149,244 149,243 149,243 149,243 150,242 150,242 150,242 150,241 150,241 150,241 150,240 150,240 150,239 150,239 150,239 150,238 150,238 151,238 151,237 151,237 151,236 151,236 151,236 151,237 151,237 151,238 151,239 151,240 151,241 151,241 152,242 152,242 152,242 152,242 152,241 152,241 152,240 152,240 152,239 152,239 152,238 152,238 152,237 153,236 153,236 153,235 153,235 153,234 153,234 153,233 153,233 153,232 153,232 153,231 153,231 153,231 154,230 154,230 154,230 154,230 154,230 154,230 154,229 154,229 154,228 154,228 154,227 154,226 154,225 155,224 155,223 155,223 155,222 155,221 155,221 155,221 155,220 155,220 155,220 155,220 155,220 155,220 156,220 156,220 156,220 156,221 156,221 156,220 156,220 156,220 156,221 156,222 156,222 156,223 156,223 157,224 157,224 157,225 157,225 157,226 157,227 157,227 157,228 157,229 157,229 157,230 157,231 157,231 158,232 158,233 158,233 158,234 158,235 158,235 158,236 158,237 158,238 158,238 158,239 158,240 158,241 159,242 159,243 159,244 159,245 159,246 159,247 159,248 159,249 159,251 159,252 159,254 159,256 159,257 160,258 160,259 160,260 160,261 160,263 160,264 160,266 160,267 160,268 160,269 160,271 160,272 160,274 161,277 161,279 161,280 161,281 161,281 161,282 161,282 161,282 161,282 161,281 161,281 161,280 161,279 162,279 162,278 162,277 162,276 162,276 162,275 162,274 162,273 162,272 162,271 162,270 162,269 162,268 163,267 163,266 163,264 163,263 163,262 163,260 163,259 163,257 163,255 163,254 163,252 163,249 163,248 164,246 164,244 164,242 164,240 164,239 164,237 164,235 164,234 164,233 164,231 164,230 164,228 164,227 165,225 165,224 165,223 165,222 165,220 165,219 165,217 165,215 165,214 165,213 165,212 165,211 165,209 166,208 166,207 166,206 166,205 166,204 166,203 166,201 166,200 166,199 166,198 166,197 166,196 166,195 167,194 167,193 167,192 167,191 167,191 167,190 167,189 167,188 167,188 167,188 167,188 167,188 167,188 168,188 168,188 168,188 168,188 168,188 168,188 168,188 168,188 168,188 168,188 168,188 168,188 168,188 169,188 169,188 169,188 169,188 169,188 169,187 169,187 169,187 169,186 169,185 169,185 169,185 169,186 170,187 170,188 170,189 170,190 170,191 170,193 170,194 170,196 170,197 170,198 170,199 170,200 170,201 171,203 171,203 171,204 171,205 171,205 171,206 171,206 171,207 171,208 171,208 171,209 171,210 171,211 172,212 172,214 172,216 172,217 172,219 172,220 172,222 172,223 172,223 172,223 172,223 172,224 172,225 173,226 173,227 173,228 173,229 173,230 173,230 173,231 173,232 173,233 173,233 173,234 173,234 173,236 174,237 174,237 174,237 174,236 174,236 174,236 174,236 174,236 174,236 174,236 174,236 174,236 174,236 175,236 175,236 175,236 175,236 175,236 175,237 175,237 175,237 175,237 175,237 175,237 175,237 175,237 176,237 176,237 176,237 176,236 176,236 176,236 176,236 176,236 176,236 176,236 176,236 176,236 176,236 177,236 177,236 177,236 177,236 177,237 177,236 177,236 177,236 177,235 177,235 177,235 177,234 177,234 178,234 178,234 178,234 178,234 178,235 178,235 178,234 178,234 178,233 178,233 178,233 178,233 178,234 179,234 179,233 179,233 179,233 179,232 179,231 179,230 179,229 179,228 179,227 179,226 179,226 179,226 180,226 180,226 180,225 180,224 180,222 180,221 180,220 180,219 180,218 180,217 180,217 180,217 180,217 181,217 181,216 181,216 181,216 181,217 181,217 181,217 181,217 181,216 181,216 181,216 181,216 181,216 182,216 182,216 182,216 182,216 182,216 182,216 182,216 182,216 182,216 182,217 182,217 182,217 182,217 183,218 183,219 183,220 183,221 183,222 183,222 183,222 183,222 183,222 183,222 183,222 183,222 183,221 184,222 184,222 184,222 184,222 184,222 184,222 184,223 184,223 184,223 184,223 184,223 184,223 184,223 185,223 185,224 185,224 185,224 185,224 185,225 185,225 185,225 185,225 185,225 185,225 185,224 185,223 186,222 186,222 186,222 186,222 186,221 186,221 186,221 186,221 186,221 186,221 186,221 186,220 186,220 187,220 187,219 187,218 187,217 187,216 187,215 187,215 187,214 187,213 187,212 187,212 187,211 187,210 188,209 188,208 188,207 188,206 188,206 188,205 188,204 188,203 188,201 188,199 188,198 188,197 188,196 189,195 189,194 189,193 189,192 189,191 189,190 189,189 189,187 189,185 189,184 189,183 189,182 189,182 190,180 190,180 190,179 190,179 190,178 190,177 190,176 190,176 190,175 190,174 190,174 190,173 190,172 191,171 191,171 191,170 191,169 191,169 191,168 191,168 191,167 191,166 191,165 191,165 191,165 191,164 192,164 192,163 192,163 192,162 192,162 192,161 192,161 192,160 192,159 192,158 192,157 192,157 192,156 193,156 193,155 193,155 193,154 193,153 193,153 193,152 193,151 193,150 193,149 193,148 193,147 193,146 194,145 194,144 194,143 194,142 194,141 194,140 194,139 194,138 194,137 194,137 194,138 194,138 194,138 195,138 195,138 195,136 195,136 195,136 195,136 195,136 195,136 195,136 195,136 195,136 195,136 195,136 196,135 196,135 196,134 196,133 196,133 196,133 196,133 196,132 196,131 196,129 196,128 196,127 196,126 197,125 197,124 197,123 197,123 197,122 197,121 197,121 197,121 197,120 197,120 197,120 197,120 197,120 198,121 198,120 198,120 198,120 198,120 198,120 198,120 198,120 198,119 198,119 198,119 198,119 198,119 199,119 199,119 199,118 199,118 199,118 199,118 199,118 199,118 199,118 199,118 199,118 199,118 199,118 200,118 200,118 200,118 200,118 200,118 200,118 200,118 200,119 200,119 200,119 200,119 200,119 200,119 201,119 201,119 201,119 201,118 201,118 201,118 201,118 201,118 201,118 201,119 201,119 201,119 201,120 202,120 202,120 202,121 202,121 202,121 202,121 202,122 202,122 202,122 202,122 202,122 202,122 202,122 203,123 203,123 203,123 203,122 203,122 203,123 203,123 203,123 203,124 203,124 203,124 203,125 203,125 204,125 204,126 204,126 204,126 204,126 204,125 204,125 204,125 204,125 204,124 204,124 204,124 204,124 205,123 205,123 205,122 205,122 205,121 205,121 205,121 205,121 205,121 205,121 205,121 205,122 205,122 206,122 206,122 206,123 206,123 206,123 206,124 206,124 206,125 206,125 206,126 206,127 206,128 206,128 207,129 207,130 207,131 207,131 207,132 207,133 207,134 207,135 207,135 207,136 207,137 207,138 207,138 208,139 208,138 208,138 208,138 208,138 208,137 208,136 208,135 208,134 208,134 208,133 208,132 208,131 209,131 209,130 209,129 209,129 209,129 209,128 209,127 209,127 209,126 209,126 209,125 209,124 209,124 210,123 210,122 210,122 210,121 210,120 210,119 210,119 210,119 210,119 210,119 210,118 210,118 210,117 211,117 211,117 211,117 211,116 211,116 211,116 211,116 211,117 211,117 211,117 211,117 211,117 211,117 212,117 212,116 212,116 212,116 212,116 212,115 212,115 212,115 212,114 212,114 212,113 212,113 212,113 213,112 213,112 213,111 213,110 213,110 213,109 213,108 213,108 213,107 213,107 213,106 213,106 213,105 214,105 214,105 214,104 214,104 214,104 214,104 214,104 214,104 214,104 214,104 214,103 214,103 214,103 215,103 215,102 215,102 215,101 215,101 215,100 215,100 215,100 215,99 215,98 215,98 215,97 215,97 216,96 216,96 216,96 216,95 216,95 216,96 216,96 216,95 216,95 216,94 216,94 216,93 217,93 217,92 217,92 217,91 217,91 217,90 217,90 217,89 217,89 217,89 217,89 217,89 217,89 218,89 218,89 218,89 218,89 218,90 218,90 218,91 218,90 218,89 218,90 218,90 218,90 218,90 219,89 219,89 219,88 219,88 219,87 219,87 219,88 219,88 219,89 219,89 219,90 219,90 219,90 220,90 220,90 220,90 220,90 220,90 220,89 220,89 220,89 220,89 220,88 220,88 220,87 220,87 221,86 221,86 221,85 221,85 221,84 221,84 221,83 221,83 221,83 221,81 221,79 221,78 221,78 222,76 222,75 222,75 222,74 222,74 222,74 222,73 222,73 222,72 222,72 222,71 222,71 222,71 223,70 223,70 223,70 223,69 223,69 223,68 223,67 223,67 223,66 223,65 223,65 223,65 223,64 224,64 224,64 224,63 224,63 224,63 224,63 224,63 224,63 224,63 224,62 224,62 224,62 224,62 225,62 225,62 225,62 225,62 225,61 225,61 225,61 225,61 225,61 225,61 225,62 225,62 225,63 226,64 226,64 226,65 226,66 226,66 226,67 226,67 226,68 226,68 226,69 226,69 226,70 226,70 227,70 227,71 227,72 227,72 227,73 227,73 227,73 227,74 227,74 227,75 227,75 227,76 227,76 228,77 228,77 228,77 228,78 228,78 228,78 228,78 228,78 228,78 228,78 228,78 228,78 228,78 229,79 229,79 229,80 229,80 229,81 229,81 229,81 229,81 229,82 229,82 229,82 229,82 229,83 230,83 230,83 230,83 230,83 230,83 230,83 230,84 230,84 230,84 230,84 230,84 230,84 230,84 231,84 231,85 231,85 231,85 231,85 231,85 231,86 231,86 231,86 231,86 231,86 231,86 231,86 232,86 232,86 232,87 232,87 232,87 232,87 232,87 232,87 232,87 232,87 232,87 232,87 232,87 233,88 233,88 233,88 233,88 233,88 233,88 233,88 233,88 233,88 233,88 233,88 233,88 233,88 234,87 234,87 234,87 234,88 234,88 234,88 234,88 234,88 234,87 234,87 234,87 234,87 234,87 235,87 235,87 235,87 235,87 235,87 235,86 235,86 235,86 235,86 235,86 235,86 235,86 235,86 236,86 236,86 236,86 236,86 236,85 236,85 236,85 236,85 236,85 236,85 236,86 236,86 236,86 237,86 237,86 237,86 237,86 237,86 237,86 237,86 237,86 237,86 237,86 237,86 237,86 237,86 238,86 238,86 238,87 238,87 238,87 238,87 238,87 238,87 238,87 238,87 238,87 238,87 238,87 239,87 239,87 239,87 239,87 239,88 239,88 239,89 239,89 239,90 239,91 239,91 239,92 239,92 240,93 240,94 240,94 240,95 240,95 240,96 240,96 240,96 240,97 240,97 240,98 240,98 240,99 241,99 241,100 241,100 241,101 241,101 241,101 241,101 241,101 241,102 241,102 241,103 241,103 241,103 242,103 242,103 242,102 242,102 242,101 242,101 242,100 242,101 242,101 242,101 242,101 242,101 242,101 243,101 243,101 243,101 243,101 243,102 243,102 243,102 243,102 243,102 243,103 243,103 243,103 243,103 244,103 244,104 244,104 244,104 244,104 244,105 244,105 244,105 244,105 244,106 244,106 244,106 244,106 245,106 245,107 245,107 245,107 245,107 245,107 245,107 245,107 245,107 245,107 245,107 245,107 245,107 246,107 246,108 246,108 246,108 246,108 246,108 246,108 246,108 246,108 246,109 246,109 246,108 246,108 247,107 247,107 247,107 247,107 247,107 247,107 247,106 247,106 247,106 247,106 247,106 247,105 247,105 248,105 248,105 248,106 248,106 248,107 248,107 248,108 248,108 248,109 248,109 248,110 248,110 248,110 249,111 249,111 249,111 249,112 249,112 249,113 249,113 249,113 249,114 249,114 249,115 249,115 249,115 250,115 250,116 250,116 250,115 250,116 250,116 250,116 250,116 250,116 250,116 250,115 250,115 250,115 251,114 251,114 251,113 251,113 251,113 251,113 251,112 251,112 251,112 251,112 251,111 251,111 251,111 252,110 252,110 252,109 252,109 252,108 252,108 252,107 252,107 252,107 252,107 252,107 252,107 252,106 253,106 253,106 253,106 253,106 253,106 253,106 253,106 253,106 253,106 253,106 253,106 253,107 253,107 254,107 254,107 254,108 254,108 254,108 254,108 254,108 254,108 254,108 254,109 254,109 254,109 254,109 255,109 255,110 255,110 255,111 255,111 255,112 255,112 255,113 255,114 255,114 255,115 255,115 255,116 256,116 256,117 256,117 256,117 256,118 256,118 256,118 256,119 256,119 256,119 256,120 256,120 256,120 257,120 257,121 257,121 257,121 257,122 257,122 257,122 257,123 257,123 257,124 257,124 257,124 257,125 258,126 258,126 258,127 258,127 258,128 258,128 258,128 258,129 258,130 258,130 258,130 258,130 258,130 259,130 259,130 259,130 259,130 259,130 259,130 259,130 259,129 259,129 259,129 259,128 259,128 259,128 260,128 260,128 260,127 260,127 260,128 260,129 260,129 260,129 260,129 260,129 260,129 260,129 260,128 261,127 261,126 261,126 261,125 261,124 261,123 261,122 261,121 261,120 261,119 261,118 261,118 261,117 262,117 262,116 262,116 262,115 262,115 262,114 262,114 262,114 262,114 262,114 262,114 262,114 262,113 263,113 263,113 263,113 263,113 263,113 263,113 263,113 263,112 263,112 263,112 263,112 263,112 263,112 264,111 264,111 264,111 264,111 264,111 264,111 264,111 264,111 264,110 264,110 264,110 264,110 264,110 265,110 265,111 265,110 265,110 265,110 265,111 265,111 265,111 265,111 265,111 265,111 265,111 265,110 266,110 266,110 266,110 266,110 266,109 266,109 266,110 266,110 266,110 266,110 266,111 266,111 266,111 267,111 267,111 267,111 267,111 267,111 267,111 267,111 267,112 267,112 267,112 267,112 267,112 267,112 268,112 268,111 268,111 268,110 268,110 268,109 268,109 268,108 268,107 268,107 268,106 268,105 268,104 269,103 269,102 269,102 269,101 269,100 269,100 269,99 269,98 269,97 269,96 269,94 269,93 269,93 270,92 270,92 270,91 270,90 270,89 270,88 270,87 270,87 270,87 270,86 270,86 270,86 270,86 271,86 271,85 271,85 271,85 271,85 271,85 271,85 271,85 271,85 271,85 271,85 271,85 271,85 272,84 272,84 272,84 272,84 272,84 272,84 272,84 272,84 272,84 272,84 272,83 272,83 272,83 273,83 273,83 273,83 273,83 273,83 273,83 273,82 273,82 273,82 273,82 273,82 273,82 273,82 274,82 274,82 274,82 274,82 274,82 274,82 274,82 274,82 274,82 274,82 274,82 274,82 274,82 275,82 275,82 275,82 275,82 275,82 275,82 275,82 275,82 275,82 275,82 275,82 275,82 275,82 276,82 276,83 276,83 276,83 276,82 276,82 276,82 276,82 276,83 276,83 276,83 276,83 276,84 277,84 277,84 277,85 277,85 277,86 277,86 277,87 277,88 277,88 277,89 277,90 277,91 277,91 278,91 278,91 278,91 278,91 278,91 278,90 278,90 278,90 278,91 278,91 278,91 278,91 278,91 279,91 279,91 279,91 279,91 279,91 279,91 279,91 279,92 279,92 279,92 279,92 279,92 279,93 280,93 280,93 280,93 280,94 280,94 280,94 280,94 280,94 280,94 280,94 280,94 280,94 280,94 281,94 281,94 281,94 281,94 281,94 281,94 281,94 281,95 281,95 281,94 281,94 281,95 281,95 282,95 282,95 282,95 282,95 282,96 282,96 282,96 282,96 282,96 282,96 282,97 282,97 282,98 283,98 283,99 283,100 283,100 283,101 283,102 283,102 283,103 283,104 283,104 283,105 283,106 283,106 284,107 284,108 284,108 284,109 284,109 284,110 284,111 284,112 284,112 284,113 284,114 284,115 284,115 285,116 285,117 285,117 285,118 285,118 285,119 285,120 285,120 285,121 285,121 285,122 285,122 285,122 286,123 286,123 286,123 286,124 286,124 286,125 286,125 286,125 286,126 286,126 286,126 286,126 286,127 287,127 287,127 287,127 287,128 287,128 287,128 287,128 287,128 287,128 287,128 287,128 287,128 287,127 288,127 288,126 288,126 288,126 288,126 288,125 288,125 288,125 288,125 288,126 288,126 288,127 288,127 289,127 289,128 289,128 289,128 289,128 289,129 289,129 289,129 289,129 289,129 289,130 289,130 289,130 290,131 290,131 290,131 290,132 290,132 290,133 290,133 290,134 290,134 290,135 290,136 290,136 290,136 291,137 291,137 291,138 291,139 291,140 291,140 291,141 291,141 291,142 291,143 291,143 291,143 292,143 292,143 292,143 292,143 292,143 292,143 292,143 292,144 292,144 292,144 292,144 292,144 292,144 293,143 293,143 293,143 293,144 293,143 293,143 293,143 293,143 293,143 293,143 293,143 293,142 293,142 294,141 294,141 294,140 294,140 294,140 294,140 294,140 294,140 294,140 294,139 294,138 294,138 294,138 295,138 295,138 295,138 295,138 295,137 295,137 295,136 295,136 295,135 295,135 295,135 295,134 295,134 296,133 296,132 296,132 296,131 296,131 296,131 296,130 296,130 296,130 296,130 296,130 296,130 296,129 297,130 297,130 297,130 297,130 297,130 297,130 297,130 297,131 297,131 297,131 297,131 297,130 297,130 298,131 298,131 298,131 298,131 298,131 298,131 298,131 298,131 298,131 298,130 298,130 298,129 298,129 299,129 299,129 299,129 299,128 299,128 299,127 299,127 299,127 299,127 299,126 299,126 299,126 299,126 300,126 300,126 300,126 300,126 300,125 300,125 300,125 300,125 300,125 300,125 300,125 300,124 300,124 301,123 301,121 301,120 301,119 301,119 301,118 301,118 301,118 301,118 301,118 301,118 301,118 301,118 302,118 302,118 302,117 302,117 302,117 302,117 302,117 302,117 302,116 302,116 302,116 302,115 302,115 303,115 303,115 303,115 303,116 303,117 303,118 303,119 303,120 303,122 303,123 303,123 303,124 303,124 304,124 304,124 304,124 304,124 304,124 304,124 304,123 304,123 304,122 304,122 304,121 304,120 304,118 305,117 305,116 305,115 305,113 305,112 305,111 305,110 305,109 305,108 305,107 305,106 305,105 305,104 306,104 306,103 306,102 306,102 306,101 306,100 306,100 306,99 306,98 306,98 306,97 306,97 306,96 307,95 307,95 307,94 307,93 307,92 307,92 307,91 307,90 307,89 307,89 307,88 307,87 307,87 308,86 308,86 308,85 308,85 308,84 308,84 308,83 308,82 308,82 308,82 308,81 308,80 308,80 309,79 309,79 309,78 309,77 309,76 309,76 309,75 309,74 309,74 309,74 309,73 309,73 309,73 310,73 310,72 310,72 310,71 310,71 310,71 310,71 310,71 310,71 310,71 310,70 310,70 310,71 311,71 311,71 311,71 311,70 311,69 311,69 311,68 311,67 311,66 311,65 311,64 311,64 311,63 312,62 312,62 312,62 312,61 312,61 312,61 312,61 312,61 312,61 312,61 312,61 312,61 312,61 313,61 313,61 313,61 313,61 313,61 313,61 313,60 313,60 313,60 313,60 313,60 313,60 313,60 314,60 314,60 314,60 314,60 314,60 314,61 314,61 314,61 314,61 314,62 314,62 314,62 314,63 315,63 315,63 315,64 315,65 315,66 315,67 315,67 315,68 315,68 315,68 315,68 315,69 315,70 316,70 316,71 316,71 316,73 316,75 316,77 316,78 316,79 316,80 316,80 316,81 316,81 316,82 317,82 317,82 317,81 317,81 317,80 317,80 317,79 317,79 317,79 317,79 317,79 317,78 317,78 318,78 318,78 318,78 318,78 318,78 318,78 318,78 318,78 318,78 318,78 318,79 318,79 318,79 319,79 319,79 319,79 319,79 319,79 319,78 319,78 319,79 319,79 319,79 319,79 319,79 319,80 320,80 320,80 320,81 320,81 320,82 320,82 320,82 320,83 320,83 320,84 320,85 320,85 320,84 321,84 321,85 321,86 321,87 321,89 321,89 321,90 321,92 321,93 321,93 321,94 321,94 321,95 322,94 322,95 322,95 322,96 322,96 322,96 322,97 322,97 322,97 322,98 322,98 322,98 322,99 323,99 323,99 323,99 323,99 323,99 323,98 323,98 323,98 323,97 323,97 323,96 323,96 323,96 324,96 324,96 324,96 324,96 324,96 324,96 324,96 324,96 324,96 324,96 324,96 324,96 324,96 325,96 325,97 325,97 325,97 325,98 325,98 325,99 325,99 325,100 325,100 325,100 325,100 325,100 326,99 326,99 326,99 326,98 326,99 326,99 326,99 326,100 326,100 326,100 326,101 326,101 326,102 327,102 327,103 327,103 327,104 327,104 327,105 327,105 327,105 327,106 327,106 327,107 327,107 327,107 328,108 328,108 328,108 328,107 328,107 328,107 328,109 328,110 328,111 328,111 328,110 328,110 328,109 329,109 329,108 329,107 329,106 329,105 329,104 329,103 329,102 329,101 329,100 329,98 329,97 329,95 330,94 330,92 330,92 330,90 330,89 330,88 330,86 330,85 330,84 330,83 330,81 330,81 330,81 331,81 331,81 331,81 331,81 331,81 331,81 331,81 331,81 331,81 331,81 331,80 331,80 331,80 332,81 332,81 332,81 332,81 332,81 332,81 332,81 332,81 332,82 332,82 332,83 332,84 332,84 333,85 333,85 333,86 333,86 333,87 333,88 333,88 333,89 333,90 333,90 333,92 333,93 333,94 334,95 334,95 334,95 334,96 334,96 334,96 334,98 334,99 334,99 334,100 334,101 334,102 334,102 335,104 335,105 335,105 335,106 335,106 335,107 335,107 335,107 335,108 335,109 335,110 335,111 335,112 336,113 336,113 336,114 336,115 336,115 336,116 336,116 336,117 336,117 336,117 336,118 336,118 336,118 337,118 337,118 337,119 337,119 337,119 337,119 337,119 337,120 337,120 337,120 337,120 337,121 337,121 338,121 338,122 338,122 338,122 338,123 338,123 338,123 338,124 338,125 338,126 338,126 338,127 338,128 339,129 339,130 339,130 339,131 339,132 339,133 339,133 339,134 339,134 339,135 339,136 339,136 339,136 340,136 340,136 340,136 340,136 340,136 340,136 340,136 340,135 340,135 340,134 340,134 340,134 340,133 341,133 341,132 341,132 341,131 341,131 341,131 341,132 341,132 341,132 341,132 341,132 341,133 341,133 342,134 342,134 342,135 342,135 342,136 342,136 342,137 342,137 342,138 342,138 342,138 342,139 342,139 343,139 343,139 343,139 343,140 343,140 343,140 343,141 343,141 343,141 343,142 343,142 343,143 343,143 344,144 344,144 344,144 344,145 344,145 344,145 344,145 344,145 344,145 344,145 344,145 344,145 344,145 345,146 345,146 345,146 345,146 345,146 345,146 345,146 345,146 345,146 345,146 345,146 345,146 345,146 346,145 346,145 346,145 346,145 346,144 346,144 346,143 346,143 346,142 346,142 346,141 346,141 346,141 347,141 347,142 347,142 347,142 347,142 347,142 347,142 347,142 347,142 347,142 347,143 347,143 347,143 348,143 348,143 348,143 348,143 348,143 348,143 348,143 348,143 348,143 348,143 348,144 348,144 348,145 349,145 349,146 349,146 349,146 349,147 349,147 349,147 349,148 349,148 349,148 349,148 349,148 349,149 350,149 350,149 350,149 350,149 350,150 350,151 350,151 350,152 350,152 350,152 350,153 350,153 350,153 351,153 351,153 351,153 351,153 351,153 351,153 351,153 351,153 351,153 351,153 351,153 351,153 351,152 352,152 352,152 352,153 352,153 352,154 352,154 352,154 352,154 352,155 352,155 352,154 352,154 352,153 353,153 353,153 353,153 353,153 353,153 353,153 353,154 353,154 353,154 353,154 353,154 353,154 353,155 354,154 354,154 354,154 354,154 354,153 354,152 354,151 354,151 354,151 354,151 354,151 354,151 354,151 355,151 355,151 355,151 355,151 355,151 355,151 355,151 355,151 355,151 355,151 355,151 355,151 355,151 356,151 356,151 356,151 356,151 356,151 356,151 356,151 356,152 356,152 356,152 356,152 356,152 356,152 357,152 357,152 357,153 357,153 357,153 357,153 357,154 357,154 357,154 357,155 357,155 357,156 357,156 358,156 358,156 358,156 358,156 358,156 358,155 358,155 358,155 358,155 358,155 358,155 358,155 358,155 359,155 359,155 359,155 359,155 359,155 359,155 359,155 359,155 359,156 359,156 359,156 359,157 359,157 360,157 360,157 360,158 360,158 360,159 360,159 360,159 360,160 360,160 360,160 360,161 360,161 360,161 361,162 361,162 361,162 361,162 361,162 361,162 361,162 361,163 361,163 361,163 361,163 361,163 361,164 362,164 362,164 362,164 362,164 362,164 362,164 362,165 362,165 362,165 362,165 362,165 362,166 362,166 363,166 363,167 363,167 363,167 363,167 363,168 363,168 363,169 363,169 363,169 363,170 363,170 363,171 364,171 364,172 364,172 364,173 364,174 364,174 364,174 364,174 364,174 364,175 364,175 364,175 364,175 365,175 365,175 365,175 365,175 365,175 365,175 365,175 365,175 365,175 365,175 365,175 365,175 365,175 366,175 366,175 366,175 366,175 366,175 366,174 366,174 366,174 366,174 366,174 366,174 366,174 366,173 367,173 367,173 367,173 367,173 367,173 367,173 367,172 367,172 367,172 367,172 367,172 367,172 368,172 368,172 368,171 368,171 368,171 368,171 368,171 368,170 368,170 368,170 368,170 368,169 368,169 369,169 369,169 369,168 369,168 369,168 369,167 369,167 369,167 369,167 369,167 369,167 369,166 369,166 370,166 370,165 370,165 370,164 370,164 370,163 370,163 370,163 370,162 370,162 370,161 370,161 370,161 371,160 371,160 371,160 371,160 371,159 371,159 371,159 371,159 371,159 371,159 371,158 371,158 371,158 372,158 372,158 372,157 372,157 372,157 372,157 372,156 372,156 372,156 372,155 372,155 372,155 372,154 373,154 373,153 373,153 373,152 373,152 373,152 373,152 373,152 373,152 373,151 373,151 373,151 373,151 374,150 374,150 374,150 374,150 374,150 374,150 374,150 374,150 374,150 374,150 374,150 374,150 374,150 375,150 375,150 375,150 375,150 375,150 375,150 375,150 375,150 375,149 375,149 375,149 375,149 375,150 376,150 376,151 376,152 376,153 376,153 376,154 376,154 376,154 376,155 376,156 376,156 376,156 376,156 377,156 377,156 377,155 377,155 377,155 377,155 377,154 377,154 377,153 377,153 377,152 377,151 377,150 378,149 378,149 378,148 378,147 378,147 378,147 378,148 378,148 378,148 378,147 378,147 378,147 378,147 379,147 379,146 379,146 379,146 379,146 379,146 379,146 379,146 379,146 379,146 379,146 379,146 379,146 380,146 380,146 380,146 380,146 380,147 380,147 380,147 380,147 380,148 380,148 380,148 380,149 380,149 381,149 381,150 381,150 381,150 381,151 381,151 381,152 381,152 381,152 381,153 381,153 381,153 381,153 382,153 382,153 382,154 382,154 382,154 382,154 382,154 382,155 382,155 382,155 382,155 382,156 382,156 383,156 383,156 383,157 383,157 383,157 383,158 383,158 383,158 383,159 383,159 383,159 383,160 383,160 384,160 384,161 384,161 384,161 384,162 384,162 384,162 384,162 384,162 384,162 384,163 384,163 384,163 385,164 385,164 385,164 385,164 385,164 385,164 385,164 385,164 385,164 385,165 385,165 385,165 385,165 386,165 386,165 386,164 386,164 386,164 386,164 386,164 386,163 386,163 386,163 386,163 386,163 386,162 387,162 387,161 387,161 387,161 387,161 387,160 387,160 387,160 387,160 387,160 387,160 387,160 387,161 388,161 388,162 388,163 388,163 388,164 388,164 388,165 388,165 388,165 388,165 388,165 388,165 388,165 389,165 389,165 389,165 389,164 389,164 389,164 389,164 389,164 389,164 389,164 389,164 389,164 389,163 390,163 390,163 390,163 390,163 390,164 390,164 390,165 390,165 390,165 390,166 390,166 390,167 390,167 391,168 391,168 391,168 391,169 391,169 391,169 391,169 391,170 391,170 391,170 391,170 391,170 391,171 392,171 392,171 392,171 392,172 392,172 392,172 392,173 392,173 392,173 392,174 392,174 392,174 392,175 393,175 393,176 393,176 393,176 393,177 393,177 393,177 393,178 393,178 393,178 393,178 393,179 393,179 394,179 394,179 394,180 394,180 394,180 394,180 394,180 394,180 394,180 394,180 394,180 394,180 394,180 395,180 395,180 395,181 395,181 395,181 395,181 395,181 395,181 395,181 395,181 395,181 395,181 395,182 396,182 396,182 396,182 396,183 396,183 396,183 396,184 396,184 396,184 396,184 396,184 396,185 396,185 397,185 397,185 397,185 397,185 397,185 397,185 397,185 397,185 397,185 397,185 397,185 397,185 397,185 398,185 398,184 398,184 398,184 398,183 398,183 398,183 398,183 398,183 398,183 398,182 398,182 398,182 399,182 399,182 399,181 399,181 399,181 399,181 399,180 399,180 399,180 399,179 399,179 399,179 399,178 400,178 400,178 400,178 400,178 400,178 400,179 400,179 400,179 400,180 400,180 400,180 400,180 400,180 401,180 401,180 401,180 401,180 401,180 401,179 401,179 401,179 401,179 401,179 401,179 401,179 401,179 402,179 402,178 402,178 402,178 402,177 402,177 402,176 402,176 402,175 402,175 402,174 402,174 402,173 403,173 403,172 403,172 403,172 403,171 403,171 403,171 403,171 403,171 403,171 403,171 403,172 403,172 404,172 404,173 404,173 404,173 404,173 404,174 404,174 404,174 404,175 404,175 404,176 404,176 404,176 405,177 405,177 405,178 405,178 405,178 405,179 405,179 405,180 405,180 405,180 405,181 405,181 405,181 406,181 406,182 406,182 406,182 406,182 406,182 406,182 406,182 406,182 406,182 406,182 406,182 406,181 407,181 407,181 407,181 407,181 407,181 407,181 407,181 407,181 407,181 407,181 407,181 407,181 407,180 408,180 408,180 408,180 408,180 408,180 408,180 408,180 408,179 408,179 408,179 408,179 408,178 408,178 409,177 409,177 409,176 409,176 409,175 409,175 409,175 409,175 409,175 409,175 409,175 409,176 409,176 410,176 410,176 410,176 410,177 410,177 410,177 410,177 410,177 410,178 410,179 410,179 410,180 410,181 411,181 411,182 411,183 411,184 411,185 411,186 411,186 411,187 411,188 411,189 411,190 411,190 411,191 412,191 412,191 412,192 412,192 412,192 412,192 412,192 412,192 412,192 412,192 412,192 412,192 412,192 413,192 413,192 413,192 413,192 413,192 413,192 413,192 413,192 413,192 413,192 413,192 413,192 413,192 414,192 414,192 414,192 414,192 414,192 414,192 414,192 414,192 414,192 414,192 414,192 414,191 414,191 415,191 415,191 415,191 415,191 415,191 415,191 415,191 415,191 415,191 415,191 415,191 415,191 415,190 416,190 416,190 416,190 416,190 416,190 416,190 416,190 416,190 416,190 416,190 416,190 416,190 416,189 417,189 417,189 417,189 417,189 417,189 417,189 417,188 417,188 417,188 417,188 417,188 417,187 417,187 418,187 418,187 418,187 418,187 418,186 418,186 418,186 418,186 418,186 418,186 418,186 418,185 418,185 419,185 419,185 419,185 419,185 419,185 419,185 419,185 419,184 419,184 419,184 419,183 419,183 419,183 420,183 420,183 420,183 420,183 420,183 420,183 420,183 420,183 420,183 420,183 420,183 420,183 420,183 421,183 421,183 421,183 421,183 421,183 421,183 421,184 421,184 421,184 421,184 421,184 421,184 421,184 422,184 422,184 422,184 422,184 422,184 422,184 422,183 422,183 422,183 422,183 422,183 422,183 422,183 423,183 423,183 423,183 423,183 423,183 423,183 423,183 423,183 423,183 423,183 423,183 423,183 423,182 424,182 424,182 424,182 424,182 424,182 424,182 424,182 424,182 424,182 424,182 424,182 424,182 424,182 425,182 425,182 425,182 425,181 425,181 425,181 425,181 425,181 425,181 425,180 425,181 425,181 425,181 426,181 426,181 426,181 426,181 426,181 426,181 426,180 426,180 426,180 426,180 426,180 426,180 426,180 427,180 427,180 427,180 427,180 427,180 427,179 427,179 427,179 427,179 427,179 427,179 427,179 427,179 428,178 428,178 428,178 428,178 428,178 428,178 428,177 428,177 428,177 428,177 428,177 428,177 428,177 429,177 429,177 429,176 429,176 429,176 429,176 429,176 429,176 429,175 429,175 429,175 429,174 429,174 430,174 430,174 430,174 430,173 430,173 430,173 430,173 430,173 430,172 430,172 430,172 430,172 430,172 431,172 431,172 431,171 431,171 431,171 431,171 431,171 431,171 431,171 431,170 431,170 431,170 431,170 432,170 432,170 432,170 432,170 432,170 432,171 432,171 432,171 432,171 432,171 432,171 432,172 432,172 433,172 433,173 433,173 433,174 433,174 433,174 433,175 433,175 433,175 433,176 433,176 433,176 433,177 434,177 434,177 434,178 434,178 434,178 434,179 434,179 434,179 434,179 434,179 434,179 434,179 434,179 435,179 435,179 435,179 435,179 435,179 435,179 435,179 435,179 435,179 435,179 435,179 435,178 435,178 436,178 436,177 436,177 436,176 436,176 436,175 436,175 436,175 436,175 436,175 436,175 436,175 436,175 437,175 437,175 437,176 437,176 437,176 437,176 437,176 437,176 437,176 437,176 437,176 437,176 437,176 438,176 438,176 438,176 438,176 438,176 438,177 438,177 438,177 438,177 438,177 438,178 438,178 438,178 439,178 439,178 439,179 439,179 439,179 439,179 439,179 439,179 439,179 439,179 439,179 439,179 439,179 440,179 440,180 440,180 440,180 440,180 440,180 440,181 440,181 440,182 440,182 440,183 440,183 440,183 441,184 441,184 441,184 441,185 441,185 441,185 441,185 441,186 441,186 441,186 441,186 441,186 441,186 442,186 442,187 442,187 442,187 442,187 442,187 442,188 442,188 442,188 442,188 442,189 442,189 443,189 443,189 443,190 443,190 443,190 443,190 443,190 443,190 443,190 443,190 443,190 443,190 443,190 444,190 444,190 444,190 444,190 444,190 444,190 444,190 444,190 444,189 444,189 444,189 444,189 444,188 445,188 445,188 445,188 445,188 445,188 445,187 445,187 445,187 445,187 445,187 445,187 445,187 445,187 446,187 446,187 446,187 446,187 446,187 446,187 446,186 446,186 446,186 446,186 446,186 446,186 446,186 447,186 447,185 447,185 447,185 447,185 447,185 447,185 447,184 447,184 447,184 447,184 447,184 447,184 448,184 448,184 448,184 448,184 448,184 448,184 448,184 448,184 448,184 448,184 448,184 448,184 448,184 449,184 449,184 449,184 449,184 449,183 449,183 449,183 449,182 449,183 449,183 449,183 449,182 449,182 450,182 450,182 450,182 450,182 450,182 450,183 450,183 450,183 450,183 450,184 450,184 450,183 450,183 451,183 451,183 451,183 451,183 451,183 451,183 451,183 451,182 451,182 451,182 451,182 451,182 451,182 452,182 452,181 452,181 452,181 452,181 452,181 452,181 452,181 452,181 452,181 452,181 452,181 452,180 453,180 453,180 453,180 453,179 453,179 453,179 453,179 453,179 453,178 453,178 453,178 453,178 453,178 454,178 454,178 454,178 454,178 454,179 454,179 454,179 454,179 454,179 454,179 454,179 454,179 454,179 455,179 455,178 455,178 455,178 455,178 455,178 455,177 455,177 455,177 455,177 455,177 455,177 455,177 456,177 456,177 456,177 456,177 456,177 456,177 456,177 456,176 456,176 456,176 456,176 456,176 456,176 457,176 457,176 457,176 457,175 457,175 457,175 457,175 457,174 457,174 457,174 457,174 457,173 457,173 458,173 458,173 458,173 458,173 458,173 458,173 458,173 458,173 458,172 458,172 458,172 458,172 458,172 459,172 459,172 459,172 459,172 459,172 459,172 459,171 459,172 459,171 459,171 459,171 459,171 459,171 460,170 460,170 460,170 460,170 460,169 460,169 460,169 460,169 460,169 460,168 460,168 460,168 460,167 461,167 461,166 461,166 461,166 461,165 461,165 461,164 461,164 461,164 461,163 461,163 461,163 461,163 462,163 462,163 462,163 462,164 462,164 462,164 462,164 462,162 462,161 462,160 462,160 462,160 462,159 463,159 463,159 463,158 463,158 463,158 463,158 463,158 463,159 463,159 463,159 463,159 463,160 463,160 464,160 464,161 464,161 464,161 464,162 464,162 464,162 464,163 464,163 464,164 464,164 464,165 464,166 465,167 465,167 465,168 465,168 465,169 465,169 465,170 465,172 465,173 465,174 465,175 465,176 465,177 466,178 466,179 466,179 466,179 466,180 466,180 466,180 466,180 466,180 466,180 466,180 466,180 466,180 467,180 467,180 467,180 467,180 467,180 467,180 467,180 467,180 467,180 467,180 467,180 467,180 467,180 468,180 468,180 468,180 468,180 468,180 468,180 468,180 468,180 468,180 468,180 468,180 468,180 468,181 469,181 469,181 469,181 469,180 469,180 469,179 469,179 469,179 469,179 469,179 469,179 469,179 469,179 470,179 470,179 470,179 470,179 470,179 470,179 470,179 470,179 470,179 470,179 470,178 470,178 470,178 471,178 471,178 471,178 471,178 471,178 471,178 471,178 471,177 471,177 471,177 471,176 471,176 471,176 472,176 472,175 472,175 472,175 472,175 472,175 472,175 472,175 472,176 472,176 472,176 472,177 472,177 473,178 473,178 473,178 473,178 473,177 473,177 473,177 473,177 473,177 473,177 473,177 473,177 473,177 474,177 474,177 474,177 474,177 474,177 474,177 474,177 474,177 474,177 474,177 474,177 474,176 474,176 475,176 475,176 475,176 475,176 475,176 475,175 475,175 475,175 475,175 475,175 475,175 475,175 475,175 476,174 476,174 476,174 476,174 476,174 476,174 476,174 476,174 476,173 476,173 476,173 476,173 476,173 477,172 477,172 477,172 477,171 477,171 477,171 477,171 477,171 477,170 477,170 477,170 477,170 477,170 478,170 478,170 478,170 478,169 478,169 478,169 478,169 478,169 478,169 478,168 478,168 478,168 478,168 479,167 479,167 479,167 479,167 479,167 479,167 479,167 479,166 479,166 479,166 479,166 479,166 479,166 480,166 480,165 480,165 480,165 480,165 480,165 480,165 480,165 480,164 480,164 480,164 480,164 480,164 481,163 481,163 481,163 481,163 481,163 481,163 481,163 481,163 481,163 481,163 481,163 481,163 481,162 482,162 482,162 482,162 482,162 482,162 482,162 482,162 482,162 482,162 482,162 482,162 482,162 482,162 483,162 483,162 483,162 483,162 483,162 483,161 483,161 483,161 483,161 483,161 483,161 483,161 483,161 484,161 484,161 484,161 484,161 484,161 484,161 484,162 484,162 484,161 484,161 484,161 484,160 484,160 485,160 485,160 485,159 485,159 485,159 485,159 485,159 485,159 485,159 485,158 485,158 485,158 485,158 486,158 486,158 486,158 486,158 486,158 486,158 486,158 486,158 486,157 486,157 486,157 486,157 486,157 487,157 487,157 487,157 487,157 487,157 487,157 487,156 487,156 487,156 487,156 487,155 487,155 487,155 488,155 488,155 488,155 488,155 488,155 488,155 488,155 488,155 488,155 488,155 488,155 488,155 488,155 489,155 489,155 489,155 489,154 489,154 489,154 489,154 489,154 489,154 489,154 489,154 489,153 489,153 490,153 490,153 490,153 490,153 490,153 490,153 490,153 490,152 490,152 490,152 490,152 490,152 490,152 491,151 491,151 491,151 491,151 491,151 491,150 491,150 491,150 491,150 491,149 491,149 491,148 491,148 492,148 492,148 492,148 492,148 492,147 492,147 492,147 492,146 492,146 492,146 492,145 492,145 492,145 493,145 493,144 493,144 493,144 493,144 493,143 493,143 493,143 493,142 493,142 493,142 493,141 493,141 494,141 494,140 494,140 494,140 494,140 494,140 494,139 494,139 494,139 494,139 494,138 494,138 494,138 495,138 495,137 495,137 495,137 495,137 495,137 495,136 495,136 495,136 495,136 495,136 495,136 495,135 496,135 496,135 496,135 496,134 496,134 496,134 496,134 496,135 496,134 496,134 496,134 496,134 496,134 497,134 497,133 497,133 497,133 497,132 497,132 497,132 497,131 497,131 497,130 497,130 497,129 497,129 498,128 498,128 498,127 498,127 498,126 498,126 498,126 498,126 498,127 498,126 498,126 498,125 498,124 499,124 499,124 499,124 499,124 499,124 499,123 499,123 499,123 499,123 499,123 499,122 499,122 499,122 500,122 500,122 500,122 500,122 500,122 500,122 500,121 500,121 500,121 500,121 500,121 500,120 500,120 501,120 501,120 501,119 501,119 501,118 501,118 501,118 501,118 501,118 501,118 501,118 501,118 501,118 502,118 502,118 502,118 502,118 502,119 502,119 502,119 502,119 502,119 502,119 502,119 502,119 502,119 503,119 503,119 503,119 503,119 503,119 503,120 503,120 503,120 503,120 503,120 503,121 503,121 503,121 504,121 504,122 504,122 504,122 504,122 504,121 504,121 504,121 504,121 504,121 504,121 504,121 504,121 505,121 505,121 505,121 505,121 505,121 505,121 505,121 505,121 505,121 505,121 505,121 505,121 505,121 506,121 506,121 506,121 506,121 506,121 506,121 506,121 506,121 506,121 506,121 506,121 506,121 506,121 507,121 507,121 507,121 507,121 507,121 507,122 507,122 507,122 507,122 507,123 507,123 507,123 507,124 508,124 508,124 508,124 508,124 508,124 508,125 508,125 508,125 508,125 508,125 508,126 508,126 508,126 509,126 509,127 509,127 509,128 509,129 509,129 509,129 509,128 509,127 509,125 509,125 509,124 509,124 510,124 510,123 510,123 510,123 510,122 510,122 510,122 510,122 510,121 510,122 510,121 510,121 510,121 511,121 511,121 511,121 511,121 511,121 511,120 511,120 511,120 511,120 511,120 511,120 511,120 511,120 512,120 512,120 512,121 512,121 512,121 512,121 512,121 512,122 512,122 512,122 512,122 512,122 512,122 513,122 513,122 513,123 513,123 513,123 513,123 513,123 513,123 513,123 513,124 513,124 513,124 513,124 514,124 514,125 514,125 514,126 514,126 514,127 514,127 514,127 514,127 514,127 514,127 514,126 514,126 515,126 515,126 515,126 515,127 515,127 515,127 515,127 515,127 515,127 515,127 515,127 515,127 515,128 516,128 516,128 516,128 516,128 516,128 516,128 516,128 516,128 516,128 516,128 516,128 516,128 516,128 517,128 517,128 517,128 517,128 517,128 517,128 517,128 517,128 517,128 517,127 517,127 517,127 517,127 518,126 518,126 518,126 518,126 518,126 518,125 518,125 518,125 518,125 518,125 518,125 518,124 519,124 519,124 519,124 519,124 519,124 519,124 519,124 519,124 519,124 519,124 519,124 519,124 519,124 520,124 520,123 520,123 520,122 520,122 520,122 520,122 520,121 520,121 520,121 520,121 520,121 520,121 521,121 521,121 521,122 521,122 521,122 521,122 521,122 521,122 521,122 521,122 521,122 521,122 521,122 522,123 522,123 522,123 522,123 522,123 522,123 522,123 522,124 522,124 522,124 522,124 522,124 522,124 523,124 523,125 523,125 523,125 523,125 523,125 523,126 523,126 523,126 523,126 523,126 523,126 523,126 524,126 524,126 524,126 524,126 524,126 524,126 524,126 524,126 524,126 524,126 524,126 524,126 524,126 525,126 525,126 525,126 525,126 525,126 525,126 525,126 525,125 525,125 525,125 525,125 525,125 525,125 526,125 526,125 526,125 526,125 526,125 526,125 526,125 526,125 526,124 526,124 526,124 526,124 526,123 527,123 527,123 527,123 527,123 527,123 527,122 527,122 527,122 527,122 527,121 527,121 527,121 527,121 528,120 528,120 528,120 528,120 528,120 528,120 528,120 528,120 528,120 528,120 528,119 528,120 528,120 529,121 529,121 529,121 529,121 529,120 529,119 529,119 529,119 529,119 529,119 529,119 529,119 529,119 530,119 530,120 530,120 530,120 530,120 530,120 530,120 530,121 530,121 530,121 530,121 530,122 530,122 531,122 531,122 531,123 531,123 531,123 531,124 531,124 531,124 531,124 531,124 531,124 531,124 531,124 532,124 532,124 532,124 532,124 532,124 532,124 532,124 532,124 532,125 532,125 532,125 532,125 532,125 533,125 533,125 533,125 533,125 533,125 533,125 533,125 533,125 533,126 533,126 533,127 533,126 533,125 534,125 534,126 534,126 534,126 534,125 534,125 534,125 534,125 534,125 534,125 534,125 534,125 534,126 535,126 535,126 535,126 535,126 535,126 535,127 535,127 535,127 535,127 535,127 535,128 535,128 535,128 536,128 536,128 536,129 536,129 536,129 536,129 536,130 536,130 536,130 536,130 536,131 536,131 536,132 537,132 537,132 537,133 537,133 537,133 537,134 537,134 537,134 537,135 537,135 537,135 537,136 537,136 538,136 538,136 538,136 538,137 538,137 538,137 538,137 538,138 538,138 538,138 538,138 538,138 538,139 539,139 539,139 539,139 539,139 539,139 539,139 539,139 539,139 539,139 539,140 539,140 539,140 539,140 540,140 540,140 540,140 540,140 540,139 540,139 540,139 540,139 540,139 540,139 540,138 540,138 540,138 541,137 541,137 541,137 541,136 541,136 541,136 541,136 541,136 541,136 541,135 541,135 541,135 541,135 542,135 542,135 542,135 542,135 542,134 542,134 542,134 542,134 542,134 542,134 542,134 542,134 542,134 543,133 543,133 543,133 543,133 543,133 543,133 543,133 543,133 543,133 543,133 543,133 543,133 543,133 544,134 544,134 544,134 544,134 544,134 544,135 544,135 544,135 544,136 544,136 544,137 544,137 544,137 545,137 545,138 545,138 545,138 545,138 545,138 545,139 545,139 545,139 545,139 545,139 545,139 545,139 546,139 546,139 546,139 546,139 546,139 546,139 546,139 546,139 546,139 546,138 546,138 546,138 546,138 547,137 547,137 547,137 547,137 547,137 547,137 547,137 547,137 547,137 547,137 547,137 547,137 547,137 548,137 548,138 548,138 548,138 548,138 548,138 548,138 548,138 548,138 548,138 548,138 548,138 548,138 549,138 549,138 549,138 549,138 549,138 549,138 549,138 549,138 549,137 549,137 549,136 549,136 549,136 550,136 550,136 550,136 550,136 550,136 550,136 550,136 550,136 550,136 550,135 550,135 550,135 550,135 551,135 551,135 551,135 551,135 551,135 551,135 551,135 551,134 551,134 551,134 551,134 551,134 551,134 552,134 552,133 552,133 552,133 552,133 552,133 552,133 552,133 552,132 552,132 552,132 552,132 552,131 553,131 553,131 553,131 553,131 553,131 553,131 553,131 553,131 553,131 553,130 553,130 553,130 553,130 554,130 554,129 554,129 554,129 554,129 554,129 554,129 554,129 554,128 554,128 554,128 554,128 554,128 555,128 555,128 555,128 555,128 555,128 555,128 555,128 555,128 555,128 555,128 555,127 555,127 555,126 556,126 556,126 556,126 556,125 556,125 556,125 556,125 556,125 556,125 556,124 556,124 556,123 556,123 557,123 557,123 557,122 557,122 557,122 557,122 557,121 557,121 557,120 557,120 557,119 557,119 557,119 558,119 558,119 558,119 558,118 558,118 558,117 558,117 558,117 558,117 558,117 558,117 558,117 558,117 559,117 559,117 559,117 559,118 559,118 559,118 559,119 559,119 559,119 559,120 559,120 559,121 559,121 560,121 560,122 560,122 560,123 560,123 560,124 560,124 560,125 560,125 560,125 560,126 560,126 560,127 561,127 561,127 561,127 561,128 561,128 561,128 561,129 561,129 561,129 561,130 561,130 561,130 561,130 562,131 562,131 562,131 562,131 562,132 562,132 562,132 562,132 562,133 562,133 562,133 562,133 562,134 563,134 563,134 563,135 563,135 563,135 563,135 563,135 563,136 563,136 563,136 563,136 563,137 563,137 564,137 564,138 564,138 564,139 564,139 564,140 564,140 564,141 564,141 564,141 564,141 564,141 564,142 565,142 565,142 565,142 565,142 565,142 565,142 565,142 565,142 565,142 565,142 565,141 565,141 565,142 566,142 566,142 566,142 566,142 566,143 566,143 566,143 566,143 566,143 566,143 566,143 566,143 566,143 567,143 567,143 567,143 567,144 567,144 567,144 567,144 567,144 567,144 567,143 567,143 567,143 567,142 568,142 568,142 568,142 568,141 568,141 568,141 568,141 568,141 568,142 568,142 568,142 568,142 568,142 569,142 569,142 569,142 569,143 569,143 569,143 569,143 569,143 569,143 569,142 569,142 569,142 569,142 570,142 570,142 570,141 570,141 570,141 570,141 570,140 570,140 570,140 570,140 570,139 570,139 570,139 571,139 571,139 571,138 571,138 571,138 571,138 571,138 571,138 571,138 571,138 571,138 571,138 571,138 572,138 572,138 572,138 572,139 572,139 572,139 572,139 572,139 572,138 572,138 572,138 572,138 572,138 573,138 573,138 573,138 573,138 573,138 573,138 573,138 573,138 573,138 573,138 573,138 573,138 573,138 574,138 574,138 574,138 574,139 574,139 574,139 574,139 574,139 574,139 574,139 574,139 574,139 574,140 575,140 575,140 575,140 575,140 575,140 575,140 575,140 575,140 575,141 575,141 575,141 575,141 575,141 576,141 576,141 576,141 576,141 576,141 576,141 576,141 576,141 576,141 576,141 576,141 576,141 576,141 577,141 577,141 577,141 577,142 577,142 577,142 577,143 577,144 577,144 577,143 577,142 577,141 577,141 578,141 578,141 578,140 578,140 578,140 578,140 578,140 578,140 578,140 578,140 578,140 578,139 578,139 579,139 579,138 579,138 579,138 579,137 579,137 579,137 579,137 579,137 579,137 579,137 579,136 579,136 580,136 580,136 580,136 580,136 580,136 580,136 580,136 580,136 580,136 580,137 580,137 580,137 580,137 581,137 581,137 581,137 581,137 581,138 581,138 581,138 581,138 581,138 581,138 581,138 581,138 581,137 582,137 582,137 582,137 582,137 582,138 582,138 582,138 582,138 582,139 582,139 582,139 582,139 582,140 583,140 583,140 583,141 583,141 583,141 583,141 583,142 583,142 583,142 583,142 583,143 583,143 583,143 584,143 584,143 584,143 584,144 584,144 584,144 584,144 584,144 584,145 584,145 584,145 584,145 584,145 585,146 585,146 585,146 585,146 585,147 585,147 585,147 585,147 585,148 585,148 585,148 585,148 585,148 586,149 586,149 586,149 586,150 586,150 586,150 586,150 586,151 586,151 586,151 586,152 586,152 586,152 587,153 587,153 587,153 587,153 587,154 587,154 587,154 587,154 587,155 587,155 587,155 587,155 587,155 588,156 588,156 588,156 588,156 588,157 588,157 588,157 588,157 588,157 588,158 588,158 588,158 588,158 589,158 589,158 589,158 589,158 589,158 589,158 589,157 589,157 589,157 589,157 589,156 589,156 589,156 590,156 590,156 590,155 590,155 590,155 590,155 590,155 590,155 590,155 590,155 590,155 590,155 590,155 591,155 591,155 591,155 591,154 591,154 591,154 591,154 591,154 591,154 591,154 591,154 591,154 591,154 592,154 592,154 592,154 592,154 592,154 592,154 592,154 592,154 592,154 592,154 592,154 592,154 592,154 593,154 593,154 593,154 593,154 593,154 593,154 593,154 593,154 593,154 593,154 593,154 593,154 594,154 594,154 594,154 594,154 594,154 594,155 594,155 594,155 594,155 594,155 594,155 594,156 594,156 595,156 595,156 595,156 595,156 595,156 595,156 595,156 595,156 595,156 595,156 595,156 595,156 595,156 596,157 596,157 596,157 596,156 596,156 596,156 596,156 596,156 596,156 596,156 596,156 596,156 596,156 597,156 597,156 597,155 597,155 597,155 597,155 597,155 597,155 597,155 597,154 597,154 597,154 597,154 598,154 598,154 598,153 598,154 598,154 598,154 598,154 598,154 598,154 598,155 598,155 598,155 598,155 599,155 599,155 599,155 599,155 599,155 599,155 599,155 599,155 599,155 599,155 599,155 599,155 599,155 600,155 600,155 600,154 600,154 600,154 600,154 600,154 600,154 600,154 600,154 600,154 600,154 600,154 601,154 601,154 601,154 601,154 601,154 601,154 601,154 601,154 601,154 601,154 601,154 601,154 601,154 602,155 602,155 602,155 602,155 602,155 602,155 602,155 602,155 602,155 602,155 602,155 602,155 602,156 603,156 603,156 603,156 603,156 603,156 603,156 603,157 603,157 603,157 603,157 603,157 603,157 603,157 604,158 604,158 604,158 604,158 604,158 604,158 604,158 604,159 604,159 604,159 604,159 604,159 604,159 605,159 605,159 605,160 605,160 605,160 605,160 605,160 605,160 605,161 605,161 605,161 605,161 605,161 606,162 606,162 606,162 606,162 606,162 606,163 606,163 606,163 606,163 606,163 606,163 606,163 606,163 607,163 607,163 607,163 607,163 607,163 607,164 607,164 607,164 607,164 607,164 607,164 607,164 607,164 608,165 608,165 608,165 608,165 608,165 608,165 608,166 608,166 608,166 608,167 608,167 608,167 608,168 609,168 609,168 609,168 609,168 609,168 609,168 609,168 609,169 609,169 609,169 609,169 609,169 609,169 610,169 610,168 610,168 610,168 610,168 610,168 610,169 610,169 610,169 610,169 610,170 610,170 610,171 611,171 611,172 611,173 611,173 611,174 611,174 611,175 611,176 611,176 611,177 611,177 611,178 611,178 612,179 612,179 612,180 612,180 612,181 612,182 612,182 612,183 612,184 612,184 612,185 612,185 612,186 613,187 613,188 613,189 613,189 613,190 613,191 613,191 613,192 613,192 613,192 613,193 613,193 613,194 614,194 614,194 614,194 614,194 614,195 614,195 614,195 614,195 614,195 614,195 614,196 614,196 614,196 615,196 615,197 615,197 615,197 615,197 615,198 615,198 615,199 615,199 615,200 615,200 615,200 615,201 616,201 616,202 616,202 616,203 616,204 616,204 616,205 616,205 616,206 616,206 616,206 616,207 616,207 617,207 617,208 617,207 617,208 617,208 617,208 617,209 617,209 617,209 617,209 617,209 617,210 617,210 618,210 618,211 618,211 618,211 618,212 618,212 618,213 618,213 618,213 618,213 618,214 618,214 618,214 619,213 619,213 619,213 619,213 619,213 619,213 619,213 619,213 619,213 619,213 619,213 619,212 619,212 620,213 620,212 620,212 620,212 620,212 620,212 620,212 620,212 620,212 620,212 620,212 620,212 620,212 621,212 621,212 621,212 621,212 621,212 621,212 621,212 621,211 621,211 621,211 621,211 621,211 621,211 622,211 622,211 622,210 622,210 622,210 622,210 622,210 622,210 622,210 622,210 622,210 622,210 622,210 623,210 623,210 623,210 623,210 623,210 623,210 623,210 623,211 623,211 623,211 623,211 623,212 623,212 624,213 624,213 624,213 624,214 624,214 624,215 624,215 624,216 624,216 624,216 624,217 624,217 624,218 625,218 625,218 625,218 625,219 625,219 625,219 625,219 625,219 625,219 625,219 625,219 625,219 625,219 626,219 626,219 626,218 626,218 626,218 626,217 626,217 626,217 626,217 626,217 626,217 626,218 626,218 627,218 627,219 627,219 627,220 627,221 627,221 627,222 627,222 627,222 627,222 627,222 627,222 627,222 628,222 628,221 628,221 628,222 628,222 628,222 628,222 628,222 628,222 628,222 628,222 628,223 628,223 629,223 629,223 629,223 629,224 629,224 629,224 629,224 629,224 629,224 629,224 629,224 629,224 629,224 630,224 630,223 630,223 630,222 630,222 630,221 630,220 630,219 630,219 630,218 630,217 630,217 630,217 631,216 631,216 631,215 631,215 631,215 631,214 631,214 631,214 631,213 631,212 631,212 631,212 631,212 632,212 632,212 632,212 632,212 632,212 632,212 632,212 632,211 632,211 632,211 632,211 632,212 632,212 633,212 633,212 633,212 633,212 633,212 633,212 633,213 633,213 633,213 633,213 633,213 633,213 633,214 634,214 634,214 634,214 634,214 634,214 634,215 634,215 634,215 634,215 634,215 634,215 634,215 634,215 635,216 635,216 635,216 635,216 635,216 635,216 635,216 635,216 635,216 635,216 635,216 635,216 635,216 636,216 636,216 636,216 636,216 636,215 636,215 636,215 636,215 636,215 636,215 636,216 636,216 636,216 637,216 637,216 637,217 637,217 637,217 637,217 637,218 637,218 637,218 637,219 637,219 637,219 637,220 638,220 638,221 638,221 638,221 638,222 638,222 638,223 638,223 638,224 638,225 638,226 638,226 638,227 639,228 639,228 639,229 639,230 639,230 639,231 639,232 639,232 639,233 639,233 639,234 639,234 639,233 640,233 640,233 640,233 640,232 640,232 640,232 640,232 640,231 640,231 640,231 640,230 640,230 640,229 641,229 641,229 641,229 641,229 641,229 641,229 641,228 641,228 641,228 641,228 641,228 641,228 641,228 642,227 642,227 642,227 642,226 642,226 642,225 642,225 642,225 642,224 642,224 642,224 642,223 642,223 643,223 643,223 643,223 643,223 643,223 643,223 643,223 643,223 643,223 643,223 643,223 643,222 643,222 644,222 644,222 644,222 644,222 644,222 644,222 644,222 644,222 644,222 644,222 644,223 644,223 644,223 645,223 645,223 645,224 645,224 645,224 645,225 645,225 645,225 645,226 645,226 645,227 645,227 645,228 646,228 646,229 646,229 646,230 646,230 646,231 646,231 646,232 646,232 646,233 646,233 646,234 646,234 647,235 647,235 647,236 647,236 647,236 647,237 647,237 647,237 647,236 647,236 647,236 647,235 647,235 648,234 648,234 648,233 648,233 648,232 648,232 648,231 648,231 648,230 648,230 648,230 648,229 648,229 649,229 649,229 649,229 649,229 649,229 649,228 649,228 649,228 649,228 649,228 649,228 649,228 649,228 650,228 650,228 650,228 650,228 650,229 650,229 650,229 650,229 650,230 650,230 650,231 650,231 650,231 651,231 651,231 651,231 651,231 651,231 651,231 651,231 651,231 651,231 651,231 651,231 651,232 651,232 652,232 652,232 652,233 652,233 652,234 652,234 652,236 652,238 652,239 652,240 652,240 652,241 652,241 653,241 653,241 653,241 653,242 653,242 653,242 653,242 653,242 653,243 653,243 653,243 653,243 653,243 654,243 654,243 654,244 654,244 654,244 654,244 654,244 654,244 654,244 654,244 654,244 654,244 654,244 655,244 655,243 655,243 655,243 655,243 655,242 655,242 655,242 655,242 655,242 655,242 655,241 655,241 656,241 656,241 656,241 656,241 656,241 656,241 656,241 656,240 656,240 656,240 656,240 656,240 656,240 657,239 657,239 657,239 657,239 657,239 657,239 657,238 657,238 657,238 657,238 657,238 657,238 657,238 658,238 658,239 658,239 658,239 658,239 658,240 658,240 658,240 658,240 658,241 658,241 658,241 658,241 659,241 659,241 659,241 659,240 659,240 659,240 659,239 659,239 659,238 659,238 659,237 659,237 659,236 660,236 660,236 660,236 660,235 660,235 660,234 660,235 660,234 660,234 660,234 660,234 660,234 660,233 661,233 661,232 661,231 661,231 661,230 661,229 661,228 661,227 661,226 661,225 661,224 661,224 661,223 662,222 662,222 662,221 662,221 662,221 662,221 662,220 662,220 662,221 662,221 662,220 662,221 662,221 663,221 663,221 663,220 663,221 663,222 663,222 663,223 663,224 663,224 663,225 663,226 663,226 663,226 664,227 664,227 664,227 664,227 664,227 664,227 664,227 664,227 664,228 664,228 664,228 664,228 664,229 665,229 665,229 665,230 665,230 665,230 665,231 665,231 665,231 665,231 665,230 665,230 665,230 665,230 666,230 666,230 666,230 666,230 666,230 666,230 666,229 666,229 666,229 666,229 666,229 666,229 666,228 667,228 667,228 667,228 667,228 667,227 667,227 667,227 667,226 667,226 667,225 667,225 667,224 667,223 668,222 668,221 668,220 668,219 668,218 668,217 668,215 668,214 668,212 668,211 668,209 668,208 668,206 669,205 669,203 669,202 669,201 669,200 669,198 669,197 669,196 669,195 669,194 669,193 669,192 670,192 670,191 670,190 670,190 670,190 670,190 670,190 670,190 670,190 670,190 670,190 670,190 670,190 671,190 671,190 671,190 671,190 671,190 671,190 671,190 671,190 671,190 671,190 671,190 671,190 671,190 672,190 672,190 672,191 672,191 672,191 672,191 672,191 672,192 672,193 672,194 672,195 672,196 672,197 673,198 673,199 673,199 673,200 673,200 673,201 673,202 673,202 673,203 673,204 673,205 673,205 673,206 674,207 674,208 674,209 674,210 674,211 674,211 674,212 674,213 674,214 674,215 674,215 674,215 674,216 675,216 675,215 675,215 675,215 675,215 675,215 675,215 675,215 675,216 675,216 675,216 675,217 675,216 676,217 676,217 676,217 676,216 676,216 676,215 676,215 676,214 676,214 676,213 676,213 676,212 676,212 677,211 677,211 677,211 677,210 677,210 677,210 677,210 677,209 677,209 677,209 677,208 677,208 677,208 678,207 678,207 678,207 678,207 678,207 678,206 678,206 678,206 678,206 678,206 678,206 678,207 678,207 679,207 679,208 679,208 679,209 679,209 679,210 679,210 679,211 679,211 679,212 679,212 679,213 679,213 680,214 680,214 680,214 680,214 680,213 680,213 680,213 680,212 680,212 680,211 680,211 680,210 680,210 681,210 681,209 681,209 681,209 681,209 681,208 681,208 681,208 681,208 681,208 681,208 681,208 681,208 682,207 682,207 682,207 682,207 682,207 682,207 682,207 682,207 682,207 682,207 682,207 682,207 682,207 683,206 683,206 683,206 683,206 683,206 683,206 683,206 683,206 683,205 683,205 683,205 683,204 683,204 684,203 684,202 684,202 684,201 684,201 684,200 684,200 684,199 684,198 684,198 684,197 684,197 684,197 685,197 685,196 685,196 685,196 685,196 685,196 685,196 685,196 685,196 685,196 685,197 685,198 685,198 686,198 686,199 686,200 686,200 686,201 686,202 686,202 686,203 686,203 686,204 686,204 686,204 686,204 687,203 687,203 687,203 687,202 687,201 687,201 687,200 687,199 687,199 687,198 687,197 687,197 687,196 688,196 688,194 688,194 688,194 688,193 688,193 688,193 688,193 688,192 688,192 688,192 688,192 688,192 689,192 689,193 689,193 689,192 689,192 689,192 689,192 689,193 689,193 689,193 689,193 689,194 689,194 690,195 690,196 690,196 690,197 690,198 690,200 690,201 690,202 690,203 690,203 690,204 690,205 690,205 691,205 691,204 691,204 691,203 691,202 691,201 691,200 691,199 691,198 691,197 691,196 691,196 691,195 692,194 692,194 692,193 692,192 692,192 692,191 692,191 692,191 692,190 692,190 692,190 692,189 692,189 693,189 693,189 693,188 693,188 693,188 693,187 693,187 693,186 693,186 693,185 693,184 693,183 693,182 694,182 694,181 694,180 694,180 694,179 694,180 694,180 694,181 694,181 694,181 694,181 694,181 694,181 695,182 695,182 695,182 695,182 695,182 695,182 695,182 695,183 695,183 695,183 695,183 695,183 695,183 696,183 696,183 696,183 696,182 696,182 696,182 696,181 696,180 696,180 696,179 696,178 696,178 696,178 697,178 697,178 697,178 697,177 697,177 697,177 697,177 697,176 697,176 697,176 697,176 697,176 697,176 698,176 698,176 698,176 698,176 698,176 698,176 698,176 698,176 698,176 698,176 698,176 698,176 698,176 699,176 699,176 699,176 699,175 699,175 699,175 699,175 699,174 699,174 699,174 699,173 699,173 699,173 700,172 700,172 700,172 700,171 700,171 700,171 700,170 700,170 700,170 700,169 700,169 700,169 700,169 701,168 701,168 701,167 701,167 701,166 701,165 701,164 701,163 701,163 701,162 701,162 701,162 701,161 702,161 702,161 702,161 702,160 702,160 702,160 702,159 702,159 702,159 702,159 702,160 702,159 702,159 703,160 703,160 703,160 703,160 703,160 703,161 703,161 703,161 703,161 703,161 703,161 703,161 703,160 704,160 704,160 704,159 704,159 704,159 704,159 704,158 704,158 704,158 704,158 704,158 704,158 704,158 705,158 705,158 705,158 705,159 705,159 705,159 705,159 705,159 705,159 705,160 705,160 705,160 705,161 706,161 706,161 706,161 706,162 706,162 706,162 706,163 706,163 706,163 706,163 706,163 706,163 706,163 707,163 707,164 707,164 707,164 707,164 707,164 707,164 707,164 707,164 707,164 707,164 707,164 707,164 708,164 708,164 708,164 708,164 708,164 708,165 708,165 708,165 708,165 708,166 708,166 708,166 708,166 709,166 709,167 709,167 709,167 709,168 709,168 709,168 709,168 709,169 709,169 709,169 709,170 709,170 710,170 710,170 710,170 710,171 710,171 710,171 710,171 710,171 710,171 710,172 710,172 710,172 710,172 711,173 711,173 711,173 711,173 711,173 711,173 711,174 711,174 711,174 711,174 711,174 711,174 711,174 712,175 712,175 712,175 712,175 712,175 712,176 712,176 712,176 712,176 712,176 712,177 712,177 712,177 713,178 713,178 713,178 713,179 713,179 713,180 713,180 713,181 713,181 713,182 713,182 713,182 713,183 714,183 714,184 714,185 714,185 714,186 714,186 714,186 714,187 714,187 714,187 714,187 714,187 714,188 715,188 715,188 715,189 715,189 715,189 715,189 715,190 715,190 715,190 715,190 715,190 715,190 715,190 716,190 716,190 716,190 716,190 716,190 716,190 716,190 716,190 716,190 716,190 716,190 716,190 716,190 717,190 717,190 717,191 717,191 717,191 717,191 717,191 717,192 717,192 717,192 717,192 717,193 717,193 718,193 718,194 718,194 718,194 718,195 718,195 718,195 718,195 718,196 718,196 718,196 718,197 718,197 719,197 719,197 719,198 719,198 719,199 719,199 719,199 719,200 719,200 719,201 719,201 719,202 719,202 720,203 720,203 720,204 720,205 720,205 720,206 720,207 720,207 720,208 720,209 720,209 720,210 720,210 721,211 721,211 721,211 721,211 721,211 721,211 721,211 721,210 721,210 721,210 721,210 721,210 721,209 722,209 722,209 722,209 722,209 722,209 722,209 722,209 722,209 722,209 722,209 722,209 722,209 722,209 723,210 723,210 723,210 723,211 723,211 723,211 723,211 723,212 723,212 723,212 723,213 723,213 723,213 724,213 724,213 724,213 724,213 724,213 724,213 724,212 724,212 724,212 724,211 724,211 724,210 724,210 725,209 725,209 725,209 725,209 725,209 725,209 725,208 725,208 725,208 725,208 725,208 725,207 725,207 726,207 726,207 726,206 726,206 726,206 726,206 726,206 726,206 726,206 726,206 726,206 726,206 726,206 727,206 727,206 727,206 727,206 727,206 727,206 727,206 727,206 727,206 727,207 727,207 727,207 727,208 728,208 728,208 728,208 728,208 728,208 728,209 728,209 728,209 728,209 728,210 728,210 728,210 728,210 729,211 729,211 729,211 729,211 729,211 729,212 729,212 729,212 729,212 729,213 729,213 729,214 729,214 730,215 730,215 730,216 730,217 730,217 730,218 730,219 730,219 730,220 730,220 730,221 730,221 730,221 731,221 731,221 731,221 731,221 731,221 731,221 731,221 731,221 731,221 731,221 731,221 731,221 731,221 732,222 732,222 732,222 732,222 732,222 732,222 732,221 732,221 732,220 732,219 732,219 732,218 732,218 733,217 733,217 733,217 733,216 733,216 733,216 733,216 733,216 733,216 733,216 733,217 733,217 733,217 734,217 734,217 734,217 734,217 734,216 734,216 734,216 734,216 734,216 734,216 734,216 734,216 734,216 735,216 735,216 735,215 735,215 735,216 735,216 735,216 735,216 735,216 735,217 735,217 735,217 735,217 736,218 736,218 736,218 736,219 736,219 736,219 736,220 736,220 736,220 736,221 736,221 " vector-effect="non-scaling-stroke"></polyline>
</g></svg>