<?xml version="1.0" encoding="UTF-8" standalone="no"?><svg width="282.222mm" height="141.111mm" xmlns="http://www.w3.org/2000/svg" xmlns:xlink="http://www.w3.org/1999/xlink"  version="1.2" baseProfile="tiny"><g fill="none" stroke="#ff0000" stroke-linecap="round" stroke-linejoin="round" stroke-opacity="1" stroke-width="1.5" transform="matrix(1,0,0,1,0,0)">
<polyline fill="none" points="64,349 64,349 65,349 65,349 65,349 65,349 65,349 65,349 65,349 65,349 65,349 65,349 65,348 65,348 65,348 66,348 66,349 66,349 66,349 66,349 66,349 66,349 66,349 66,348 66,348 66,348 66,348 66,348 67,348 67,348 67,348 67,349 67,349 67,349 67,349 67,349 67,349 67,349 67,348 67,348 67,348 68,348 68,348 68,348 68,348 68,348 68,347 68,347 68,347 68,347 68,347 68,348 68,348 68,348 69,348 69,348 69,348 69,348 69,348 69,348 69,347 69,347 69,347 69,347 69,347 69,347 69,346 70,346 70,346 70,346 70,347 70,347 70,347 70,347 70,347 70,347 70,347 70,347 70,347 70,347 71,347 71,347 71,347 71,347 71,347 71,347 71,347 71,347 71,347 71,347 71,347 71,347 71,347 72,347 72,347 72,346 72,346 72,346 72,346 72,346 72,346 72,346 72,346 72,346 72,346 72,346 73,346 73,346 73,346 73,346 73,346 73,346 73,346 73,346 73,346 73,345 73,345 73,345 73,345 74,345 74,345 74,345 74,345 74,345 74,345 74,345 74,345 74,345 74,345 74,345 74,345 74,345 75,345 75,345 75,345 75,345 75,345 75,345 75,345 75,345 75,345 75,345 75,345 75,345 75,345 76,345 76,345 76,345 76,345 76,345 76,345 76,345 76,345 76,345 76,345 76,345 76,345 76,345 77,345 77,345 77,345 77,344 77,344 77,344 77,344 77,344 77,344 77,345 77,345 77,345 77,345 78,345 78,345 78,345 78,344 78,344 78,344 78,344 78,344 78,344 78,344 78,344 78,344 78,344 79,344 79,344 79,344 79,344 79,344 79,344 79,344 79,344 79,344 79,344 79,344 79,344 79,344 80,344 80,344 80,344 80,344 80,344 80,343 80,343 80,343 80,343 80,343 80,343 80,343 80,343 81,343 81,343 81,344 81,344 81,344 81,344 81,343 81,343 81,343 81,343 81,342 81,342 81,343 82,343 82,343 82,343 82,343 82,343 82,343 82,343 82,343 82,343 82,343 82,343 82,343 82,343 83,343 83,343 83,343 83,343 83,343 83,343 83,343 83,343 83,343 83,343 83,343 83,343 83,343 84,342 84,342 84,342 84,342 84,342 84,342 84,342 84,342 84,343 84,343 84,343 84,343 84,343 85,343 85,343 85,343 85,343 85,343 85,343 85,343 85,343 85,342 85,342 85,342 85,342 85,342 86,341 86,341 86,341 86,342 86,342 86,342 86,342 86,342 86,342 86,342 86,342 86,342 86,342 87,342 87,342 87,342 87,342 87,342 87,342 87,342 87,342 87,342 87,342 87,342 87,342 87,342 88,341 88,341 88,341 88,341 88,341 88,341 88,341 88,341 88,341 88,341 88,341 88,341 88,341 89,341 89,341 89,341 89,341 89,341 89,341 89,341 89,340 89,340 89,340 89,340 89,340 89,340 90,340 90,340 90,340 90,340 90,340 90,340 90,340 90,340 90,340 90,340 90,339 90,339 90,339 91,339 91,339 91,339 91,339 91,339 91,339 91,338 91,338 91,338 91,338 91,337 91,337 91,337 92,338 92,338 92,338 92,338 92,337 92,337 92,337 92,337 92,337 92,337 92,337 92,337 92,337 93,337 93,337 93,337 93,337 93,337 93,337 93,337 93,337 93,337 93,337 93,337 93,337 93,337 94,337 94,337 94,337 94,336 94,336 94,336 94,336 94,336 94,336 94,336 94,336 94,336 94,336 95,336 95,336 95,335 95,335 95,335 95,335 95,335 95,335 95,335 95,335 95,335 95,335 95,335 96,335 96,335 96,334 96,334 96,334 96,334 96,334 96,334 96,334 96,334 96,334 96,334 96,334 97,334 97,334 97,334 97,334 97,334 97,334 97,334 97,334 97,334 97,334 97,334 97,333 97,333 98,333 98,333 98,333 98,333 98,333 98,332 98,332 98,332 98,332 98,332 98,332 98,332 98,332 99,332 99,332 99,332 99,332 99,331 99,331 99,331 99,331 99,330 99,330 99,330 99,330 99,330 100,330 100,330 100,330 100,330 100,330 100,330 100,330 100,330 100,330 100,330 100,330 100,329 100,329 101,329 101,329 101,329 101,329 101,329 101,329 101,329 101,329 101,329 101,328 101,328 101,328 101,328 102,328 102,328 102,328 102,328 102,328 102,328 102,328 102,328 102,328 102,328 102,327 102,327 102,327 103,327 103,327 103,326 103,326 103,326 103,326 103,326 103,326 103,326 103,326 103,326 103,326 103,325 104,325 104,325 104,325 104,325 104,325 104,325 104,325 104,325 104,325 104,325 104,325 104,325 104,325 105,325 105,324 105,325 105,325 105,324 105,324 105,324 105,324 105,324 105,324 105,324 105,324 105,323 106,323 106,323 106,323 106,323 106,323 106,323 106,323 106,323 106,322 106,322 106,322 106,322 106,322 107,322 107,322 107,322 107,321 107,321 107,321 107,321 107,321 107,321 107,320 107,320 107,320 107,320 108,319 108,319 108,319 108,319 108,319 108,319 108,318 108,318 108,318 108,318 108,318 108,318 108,318 109,318 109,317 109,317 109,317 109,317 109,317 109,316 109,316 109,316 109,316 109,316 109,316 109,316 110,316 110,316 110,315 110,315 110,315 110,315 110,315 110,315 110,315 110,315 110,315 110,314 110,314 111,314 111,314 111,314 111,314 111,313 111,313 111,313 111,313 111,313 111,313 111,312 111,312 111,312 112,312 112,312 112,312 112,312 112,312 112,312 112,312 112,312 112,312 112,312 112,312 112,312 112,311 113,311 113,311 113,311 113,311 113,310 113,310 113,309 113,309 113,310 113,310 113,309 113,309 113,309 114,309 114,309 114,309 114,308 114,308 114,308 114,308 114,308 114,308 114,308 114,308 114,308 114,307 115,307 115,307 115,307 115,306 115,306 115,306 115,305 115,305 115,304 115,304 115,305 115,305 115,305 116,304 116,304 116,304 116,304 116,303 116,303 116,303 116,303 116,303 116,303 116,302 116,302 116,302 117,302 117,301 117,301 117,301 117,301 117,300 117,300 117,299 117,299 117,298 117,298 117,297 117,297 118,297 118,297 118,297 118,297 118,297 118,297 118,297 118,296 118,296 118,296 118,296 118,296 118,295 119,295 119,295 119,295 119,294 119,294 119,294 119,294 119,294 119,294 119,294 119,293 119,293 119,293 120,292 120,292 120,292 120,291 120,291 120,291 120,291 120,290 120,290 120,290 120,290 120,289 120,289 121,289 121,288 121,288 121,288 121,288 121,287 121,287 121,287 121,287 121,286 121,286 121,286 121,285 122,285 122,284 122,284 122,283 122,283 122,283 122,283 122,283 122,282 122,282 122,282 122,282 122,283 123,283 123,283 123,283 123,283 123,283 123,283 123,283 123,283 123,283 123,283 123,284 123,284 123,284 124,284 124,284 124,284 124,284 124,285 124,285 124,285 124,285 124,286 124,286 124,286 124,287 124,287 125,287 125,287 125,287 125,287 125,287 125,286 125,286 125,286 125,286 125,286 125,286 125,286 125,287 126,287 126,287 126,287 126,287 126,286 126,285 126,285 126,285 126,285 126,285 126,285 126,286 126,286 127,286 127,286 127,286 127,286 127,286 127,286 127,286 127,286 127,287 127,287 127,287 127,288 127,288 128,288 128,288 128,288 128,288 128,288 128,287 128,287 128,287 128,286 128,285 128,284 128,283 128,282 129,281 129,280 129,279 129,278 129,277 129,277 129,276 129,275 129,274 129,273 129,272 129,271 130,270 130,269 130,268 130,267 130,267 130,266 130,265 130,265 130,264 130,263 130,263 130,262 130,261 131,260 131,258 131,257 131,255 131,254 131,252 131,251 131,249 131,247 131,246 131,245 131,243 131,242 132,241 132,240 132,239 132,237 132,236 132,235 132,233 132,232 132,231 132,230 132,229 132,228 132,226 133,225 133,224 133,222 133,221 133,220 133,219 133,217 133,216 133,215 133,214 133,213 133,212 133,211 134,210 134,209 134,208 134,207 134,207 134,206 134,205 134,203 134,202 134,202 134,201 134,201 134,201 135,201 135,200 135,200 135,200 135,199 135,199 135,198 135,198 135,197 135,197 135,196 135,196 135,195 136,195 136,194 136,194 136,193 136,193 136,192 136,192 136,192 136,192 136,191 136,190 136,190 136,190 137,190 137,190 137,190 137,190 137,189 137,189 137,189 137,189 137,189 137,188 137,188 137,188 137,188 138,188 138,188 138,188 138,187 138,187 138,187 138,187 138,187 138,186 138,186 138,186 138,186 138,185 139,185 139,185 139,185 139,185 139,185 139,184 139,184 139,183 139,183 139,183 139,183 139,183 139,183 140,184 140,184 140,184 140,184 140,184 140,184 140,184 140,184 140,184 140,185 140,185 140,185 140,186 141,187 141,187 141,188 141,188 141,189 141,190 141,190 141,191 141,191 141,191 141,191 141,192 141,192 142,193 142,194 142,195 142,195 142,196 142,196 142,197 142,197 142,198 142,198 142,199 142,200 142,201 143,202 143,202 143,203 143,204 143,205 143,205 143,206 143,207 143,208 143,209 143,210 143,210 143,211 144,212 144,213 144,214 144,215 144,216 144,217 144,218 144,220 144,220 144,221 144,223 144,224 144,224 145,223 145,223 145,222 145,221 145,220 145,218 145,217 145,216 145,214 145,213 145,212 145,210 145,209 146,208 146,207 146,206 146,205 146,205 146,204 146,203 146,202 146,201 146,201 146,200 146,200 146,200 147,199 147,199 147,200 147,200 147,201 147,201 147,201 147,201 147,201 147,200 147,201 147,201 147,201 148,201 148,201 148,202 148,202 148,202 148,202 148,203 148,202 148,203 148,203 148,203 148,203 148,204 149,205 149,205 149,206 149,206 149,206 149,206 149,207 149,207 149,207 149,207 149,208 149,209 149,209 150,209 150,210 150,211 150,212 150,212 150,213 150,213 150,214 150,215 150,215 150,216 150,217 150,217 151,218 151,219 151,220 151,220 151,220 151,221 151,222 151,223 151,224 151,225 151,225 151,226 151,227 152,227 152,227 152,227 152,227 152,227 152,227 152,227 152,227 152,227 152,227 152,227 152,227 152,226 153,226 153,226 153,226 153,226 153,225 153,225 153,225 153,225 153,225 153,224 153,224 153,224 153,224 154,223 154,223 154,223 154,222 154,222 154,222 154,222 154,221 154,221 154,221 154,222 154,221 154,221 155,221 155,221 155,221 155,220 155,220 155,220 155,220 155,220 155,220 155,219 155,219 155,219 155,219 156,219 156,219 156,219 156,218 156,218 156,218 156,218 156,218 156,218 156,217 156,217 156,217 156,217 157,217 157,217 157,217 157,216 157,216 157,216 157,216 157,216 157,216 157,216 157,215 157,215 157,215 158,215 158,215 158,215 158,214 158,213 158,212 158,211 158,211 158,210 158,209 158,208 158,207 158,206 159,205 159,205 159,205 159,204 159,204 159,203 159,203 159,203 159,203 159,202 159,201 159,200 159,199 160,199 160,198 160,198 160,197 160,197 160,197 160,197 160,198 160,197 160,196 160,195 160,193 160,192 161,191 161,190 161,189 161,188 161,187 161,186 161,185 161,184 161,184 161,183 161,183 161,182 161,181 162,181 162,180 162,180 162,179 162,179 162,178 162,177 162,176 162,176 162,175 162,175 162,174 162,174 163,173 163,173 163,173 163,172 163,172 163,172 163,171 163,170 163,170 163,170 163,170 163,170 163,170 164,171 164,171 164,171 164,171 164,172 164,172 164,172 164,172 164,172 164,172 164,172 164,172 164,172 165,172 165,172 165,172 165,173 165,173 165,173 165,173 165,173 165,173 165,173 165,173 165,173 165,173 166,173 166,173 166,173 166,174 166,176 166,176 166,177 166,178 166,179 166,179 166,180 166,181 166,182 167,183 167,185 167,185 167,187 167,188 167,189 167,190 167,192 167,193 167,194 167,196 167,197 167,198 168,198 168,199 168,200 168,201 168,202 168,203 168,204 168,204 168,205 168,206 168,207 168,208 168,210 169,211 169,212 169,213 169,214 169,215 169,216 169,217 169,219 169,220 169,221 169,223 169,223 169,224 170,226 170,227 170,229 170,230 170,232 170,233 170,235 170,236 170,237 170,239 170,240 170,242 170,244 171,245 171,247 171,247 171,248 171,248 171,248 171,248 171,247 171,247 171,246 171,245 171,244 171,243 172,242 172,240 172,239 172,238 172,237 172,236 172,236 172,234 172,233 172,233 172,233 172,234 172,233 173,232 173,230 173,229 173,228 173,228 173,227 173,226 173,225 173,225 173,225 173,224 173,224 173,224 174,224 174,224 174,223 174,223 174,222 174,221 174,220 174,219 174,218 174,216 174,216 174,215 174,214 175,213 175,211 175,210 175,208 175,207 175,205 175,204 175,202 175,201 175,199 175,196 175,193 175,190 176,188 176,185 176,183 176,180 176,178 176,176 176,174 176,172 176,170 176,168 176,166 176,164 176,162 177,160 177,159 177,157 177,156 177,154 177,152 177,151 177,149 177,148 177,146 177,145 177,144 177,143 178,142 178,141 178,140 178,139 178,139 178,138 178,137 178,137 178,136 178,136 178,135 178,134 178,134 179,133 179,132 179,131 179,131 179,130 179,129 179,128 179,128 179,128 179,127 179,126 179,126 179,125 180,125 180,125 180,124 180,124 180,123 180,123 180,123 180,123 180,122 180,122 180,122 180,122 180,122 181,122 181,122 181,122 181,122 181,122 181,122 181,122 181,122 181,122 181,122 181,122 181,122 181,122 182,123 182,123 182,123 182,124 182,124 182,124 182,124 182,125 182,125 182,126 182,126 182,127 182,127 183,127 183,128 183,128 183,128 183,128 183,128 183,129 183,129 183,129 183,129 183,130 183,130 183,130 184,130 184,130 184,130 184,130 184,130 184,131 184,131 184,131 184,131 184,131 184,131 184,131 184,130 185,130 185,129 185,129 185,128 185,128 185,127 185,126 185,126 185,125 185,125 185,125 185,125 185,124 186,124 186,124 186,123 186,123 186,122 186,122 186,121 186,120 186,120 186,119 186,119 186,118 186,117 187,117 187,117 187,117 187,117 187,117 187,116 187,116 187,116 187,115 187,116 187,116 187,116 187,116 188,116 188,116 188,116 188,115 188,115 188,115 188,115 188,114 188,114 188,114 188,115 188,115 188,115 189,115 189,115 189,115 189,115 189,115 189,114 189,114 189,114 189,114 189,114 189,113 189,113 189,113 190,113 190,113 190,113 190,113 190,112 190,112 190,112 190,112 190,112 190,112 190,111 190,111 190,111 191,110 191,110 191,109 191,108 191,108 191,108 191,107 191,107 191,107 191,107 191,106 191,106 191,106 192,106 192,106 192,106 192,106 192,106 192,105 192,105 192,105 192,105 192,105 192,105 192,104 192,104 193,104 193,104 193,103 193,103 193,103 193,103 193,103 193,102 193,102 193,102 193,102 193,102 193,102 194,102 194,102 194,101 194,101 194,101 194,101 194,101 194,101 194,101 194,101 194,101 194,102 194,101 195,101 195,101 195,101 195,101 195,101 195,101 195,101 195,101 195,102 195,102 195,102 195,102 195,102 196,102 196,102 196,102 196,102 196,102 196,102 196,102 196,103 196,103 196,103 196,103 196,103 196,103 197,103 197,104 197,104 197,104 197,105 197,106 197,106 197,107 197,106 197,106 197,105 197,105 197,104 198,103 198,102 198,101 198,100 198,100 198,99 198,99 198,99 198,99 198,99 198,99 198,98 199,98 199,97 199,97 199,97 199,97 199,96 199,96 199,96 199,95 199,95 199,94 199,94 199,94 200,93 200,93 200,93 200,93 200,93 200,93 200,92 200,92 200,91 200,91 200,91 200,91 200,91 201,90 201,90 201,90 201,90 201,90 201,90 201,89 201,89 201,89 201,89 201,89 201,89 201,89 202,89 202,89 202,89 202,89 202,90 202,91 202,91 202,92 202,92 202,93 202,93 202,94 202,94 203,95 203,95 203,96 203,96 203,97 203,97 203,98 203,98 203,99 203,99 203,100 203,100 203,101 204,102 204,103 204,104 204,105 204,106 204,107 204,108 204,108 204,108 204,108 204,107 204,106 204,105 205,103 205,102 205,101 205,100 205,99 205,97 205,96 205,94 205,92 205,91 205,91 205,92 205,92 206,92 206,92 206,92 206,92 206,92 206,92 206,92 206,92 206,92 206,92 206,92 206,92 206,92 207,92 207,92 207,93 207,93 207,93 207,93 207,93 207,93 207,93 207,94 207,94 207,95 207,96 208,98 208,98 208,97 208,99 208,100 208,101 208,103 208,103 208,103 208,103 208,104 208,105 208,107 209,108 209,109 209,109 209,110 209,110 209,110 209,110 209,110 209,111 209,111 209,111 209,111 209,112 210,112 210,113 210,113 210,112 210,111 210,110 210,109 210,107 210,106 210,105 210,103 210,101 210,100 211,100 211,99 211,99 211,99 211,98 211,97 211,96 211,94 211,93 211,92 211,91 211,90 211,90 212,89 212,88 212,87 212,87 212,86 212,85 212,83 212,82 212,81 212,81 212,80 212,80 212,80 213,79 213,79 213,78 213,78 213,77 213,76 213,76 213,75 213,75 213,74 213,73 213,73 213,72 214,71 214,70 214,69 214,68 214,67 214,65 214,64 214,63 214,62 214,62 214,61 214,60 214,60 215,59 215,58 215,58 215,57 215,56 215,56 215,55 215,54 215,53 215,52 215,51 215,50 215,48 216,47 216,46 216,45 216,44 216,43 216,42 216,41 216,41 216,40 216,39 216,38 216,37 216,36 217,35 217,35 217,34 217,34 217,33 217,32 217,30 217,29 217,28 217,27 217,27 217,26 217,25 218,24 218,23 218,22 218,21 218,20 218,20 218,19 218,19 218,19 218,19 218,18 218,18 218,19 219,19 219,20 219,20 219,21 219,21 219,22 219,22 219,22 219,23 219,23 219,23 219,23 219,23 220,23 220,23 220,23 220,23 220,23 220,23 220,23 220,23 220,24 220,24 220,24 220,24 220,24 221,25 221,26 221,27 221,27 221,28 221,28 221,29 221,30 221,31 221,32 221,33 221,34 221,35 222,36 222,36 222,37 222,37 222,37 222,37 222,38 222,39 222,40 222,42 222,43 222,44 222,45 223,46 223,47 223,48 223,49 223,50 223,51 223,52 223,53 223,53 223,54 223,55 223,55 223,56 224,57 224,58 224,59 224,59 224,61 224,62 224,62 224,63 224,63 224,64 224,65 224,65 224,66 225,67 225,68 225,69 225,69 225,70 225,70 225,70 225,71 225,71 225,71 225,71 225,72 225,72 226,73 226,73 226,74 226,74 226,75 226,75 226,75 226,76 226,76 226,76 226,77 226,77 226,77 227,77 227,78 227,78 227,78 227,79 227,79 227,79 227,80 227,80 227,80 227,81 227,81 227,81 228,82 228,82 228,83 228,83 228,83 228,84 228,84 228,84 228,84 228,85 228,85 228,86 228,86 229,87 229,87 229,88 229,88 229,89 229,89 229,90 229,90 229,91 229,91 229,92 229,92 229,93 230,93 230,93 230,94 230,94 230,94 230,94 230,94 230,95 230,95 230,95 230,96 230,96 230,96 231,96 231,96 231,96 231,97 231,97 231,97 231,98 231,98 231,99 231,99 231,99 231,100 231,100 232,100 232,101 232,101 232,101 232,102 232,102 232,102 232,102 232,102 232,102 232,102 232,102 232,102 233,102 233,102 233,102 233,102 233,102 233,101 233,101 233,101 233,101 233,101 233,101 233,100 233,100 234,100 234,100 234,101 234,101 234,101 234,100 234,101 234,101 234,101 234,101 234,101 234,101 234,101 235,101 235,101 235,101 235,101 235,101 235,101 235,101 235,101 235,101 235,101 235,101 235,101 235,101 236,101 236,102 236,102 236,102 236,101 236,101 236,101 236,101 236,101 236,101 236,101 236,101 236,101 237,101 237,101 237,101 237,101 237,101 237,101 237,101 237,102 237,102 237,102 237,102 237,102 237,102 238,103 238,103 238,103 238,103 238,103 238,104 238,104 238,104 238,104 238,104 238,104 238,104 238,104 239,104 239,103 239,103 239,104 239,103 239,103 239,103 239,103 239,103 239,103 239,103 239,104 239,104 240,104 240,104 240,104 240,104 240,104 240,104 240,104 240,104 240,104 240,104 240,105 240,105 240,105 241,105 241,105 241,105 241,105 241,105 241,105 241,105 241,105 241,106 241,106 241,106 241,106 241,106 242,106 242,106 242,106 242,106 242,105 242,105 242,105 242,105 242,105 242,105 242,105 242,105 242,105 243,105 243,105 243,105 243,105 243,106 243,106 243,106 243,106 243,106 243,106 243,106 243,107 243,107 244,107 244,107 244,107 244,107 244,108 244,108 244,108 244,108 244,109 244,109 244,109 244,109 244,109 245,109 245,110 245,110 245,110 245,110 245,111 245,111 245,111 245,111 245,112 245,112 245,112 245,112 246,112 246,113 246,113 246,113 246,113 246,113 246,113 246,114 246,114 246,114 246,114 246,115 246,115 247,116 247,116 247,116 247,117 247,117 247,117 247,118 247,118 247,118 247,119 247,119 247,119 247,120 248,120 248,120 248,121 248,121 248,122 248,122 248,122 248,123 248,123 248,123 248,123 248,124 248,124 249,124 249,124 249,124 249,124 249,124 249,124 249,124 249,124 249,124 249,124 249,124 249,124 249,124 250,124 250,124 250,124 250,124 250,124 250,125 250,125 250,125 250,125 250,125 250,125 250,125 250,125 251,125 251,125 251,125 251,125 251,125 251,125 251,126 251,126 251,125 251,125 251,125 251,125 251,125 252,125 252,125 252,125 252,125 252,125 252,125 252,125 252,124 252,124 252,124 252,124 252,124 252,124 253,124 253,124 253,123 253,123 253,123 253,123 253,123 253,123 253,123 253,123 253,122 253,122 253,122 254,122 254,122 254,122 254,122 254,122 254,122 254,122 254,122 254,121 254,121 254,121 254,121 254,121 255,121 255,121 255,120 255,120 255,120 255,120 255,120 255,120 255,119 255,119 255,119 255,119 255,119 256,119 256,118 256,118 256,118 256,118 256,117 256,117 256,117 256,117 256,116 256,116 256,116 256,115 257,115 257,114 257,114 257,114 257,113 257,113 257,112 257,111 257,111 257,111 257,110 257,110 257,110 258,109 258,109 258,109 258,108 258,108 258,107 258,107 258,107 258,106 258,106 258,106 258,106 258,105 259,105 259,105 259,105 259,104 259,104 259,104 259,104 259,103 259,103 259,103 259,103 259,102 259,102 260,102 260,102 260,102 260,101 260,101 260,101 260,101 260,102 260,102 260,102 260,102 260,102 260,102 261,102 261,102 261,102 261,102 261,102 261,102 261,102 261,102 261,103 261,103 261,104 261,104 261,104 262,104 262,104 262,105 262,105 262,105 262,105 262,105 262,106 262,105 262,105 262,105 262,105 262,105 263,105 263,105 263,105 263,105 263,105 263,105 263,105 263,105 263,105 263,105 263,104 263,104 263,104 264,104 264,104 264,104 264,104 264,104 264,103 264,103 264,103 264,103 264,103 264,103 264,102 264,102 265,102 265,102 265,102 265,101 265,101 265,101 265,101 265,100 265,100 265,100 265,100 265,99 265,99 266,99 266,98 266,98 266,97 266,97 266,96 266,96 266,95 266,94 266,93 266,92 266,91 267,91 267,90 267,90 267,89 267,88 267,87 267,86 267,85 267,84 267,84 267,83 267,83 267,83 268,83 268,82 268,82 268,82 268,81 268,81 268,80 268,80 268,79 268,79 268,78 268,77 268,76 269,75 269,74 269,73 269,72 269,71 269,70 269,70 269,70 269,69 269,68 269,67 269,66 269,64 270,63 270,62 270,61 270,60 270,59 270,60 270,60 270,60 270,60 270,60 270,60 270,60 270,60 271,60 271,60 271,60 271,60 271,60 271,59 271,59 271,59 271,59 271,59 271,59 271,59 271,59 272,59 272,59 272,60 272,60 272,60 272,60 272,61 272,62 272,63 272,64 272,64 272,65 272,66 273,66 273,67 273,68 273,69 273,70 273,71 273,72 273,73 273,73 273,74 273,75 273,76 273,77 274,78 274,79 274,79 274,80 274,81 274,82 274,83 274,83 274,84 274,85 274,85 274,86 274,87 275,87 275,88 275,88 275,89 275,89 275,90 275,91 275,92 275,92 275,93 275,93 275,93 275,94 276,94 276,94 276,95 276,95 276,96 276,96 276,96 276,97 276,97 276,98 276,98 276,98 276,99 277,99 277,99 277,99 277,99 277,99 277,99 277,99 277,98 277,98 277,98 277,98 277,98 277,98 278,98 278,98 278,98 278,98 278,98 278,98 278,98 278,98 278,97 278,97 278,97 278,97 278,97 279,97 279,97 279,97 279,97 279,97 279,98 279,98 279,98 279,99 279,99 279,99 279,99 279,99 280,99 280,99 280,99 280,99 280,99 280,99 280,99 280,99 280,98 280,97 280,96 280,96 280,95 281,95 281,94 281,93 281,93 281,92 281,92 281,91 281,91 281,90 281,89 281,89 281,89 281,88 282,88 282,88 282,87 282,87 282,86 282,86 282,86 282,86 282,86 282,86 282,86 282,86 282,86 283,86 283,85 283,85 283,85 283,85 283,85 283,85 283,85 283,85 283,84 283,84 283,84 283,85 284,85 284,85 284,85 284,84 284,84 284,83 284,83 284,83 284,83 284,82 284,82 284,82 284,82 285,82 285,82 285,82 285,82 285,82 285,81 285,81 285,81 285,81 285,81 285,80 285,80 285,80 286,80 286,80 286,79 286,79 286,79 286,79 286,78 286,78 286,78 286,79 286,79 286,79 286,79 287,80 287,80 287,80 287,81 287,81 287,81 287,81 287,82 287,82 287,82 287,82 287,83 287,83 288,83 288,84 288,84 288,84 288,84 288,85 288,85 288,85 288,85 288,85 288,85 288,85 288,85 289,85 289,85 289,86 289,86 289,86 289,86 289,87 289,86 289,87 289,87 289,87 289,87 289,87 290,88 290,88 290,87 290,88 290,88 290,87 290,87 290,87 290,87 290,87 290,86 290,86 290,86 291,86 291,86 291,85 291,85 291,85 291,84 291,84 291,84 291,84 291,84 291,83 291,84 291,84 292,84 292,84 292,85 292,85 292,86 292,87 292,87 292,88 292,88 292,89 292,89 292,90 292,90 293,91 293,91 293,91 293,91 293,92 293,92 293,93 293,94 293,94 293,95 293,95 293,96 293,97 294,97 294,97 294,98 294,98 294,98 294,98 294,98 294,97 294,97 294,97 294,97 294,97 294,97 295,97 295,97 295,97 295,97 295,97 295,97 295,97 295,96 295,96 295,96 295,96 295,96 295,96 296,96 296,96 296,96 296,96 296,95 296,95 296,95 296,96 296,96 296,96 296,96 296,96 296,95 297,95 297,94 297,94 297,93 297,93 297,93 297,92 297,92 297,92 297,91 297,92 297,92 297,92 298,92 298,92 298,93 298,93 298,93 298,93 298,93 298,93 298,94 298,94 298,93 298,93 298,93 299,93 299,93 299,93 299,93 299,93 299,94 299,94 299,95 299,95 299,96 299,96 299,97 299,97 300,97 300,98 300,98 300,99 300,99 300,99 300,100 300,100 300,100 300,101 300,101 300,101 300,102 301,102 301,102 301,102 301,103 301,103 301,103 301,103 301,104 301,104 301,105 301,105 301,106 301,107 302,107 302,108 302,109 302,109 302,110 302,111 302,111 302,112 302,112 302,112 302,113 302,113 302,113 303,113 303,113 303,114 303,114 303,114 303,114 303,114 303,115 303,115 303,115 303,115 303,115 303,114 304,114 304,114 304,114 304,114 304,114 304,113 304,113 304,113 304,113 304,113 304,113 304,112 304,112 305,112 305,112 305,112 305,111 305,111 305,111 305,110 305,110 305,110 305,109 305,109 305,109 305,109 306,109 306,109 306,109 306,109 306,109 306,108 306,108 306,108 306,107 306,107 306,107 306,106 306,106 307,105 307,105 307,104 307,104 307,104 307,103 307,103 307,102 307,102 307,102 307,102 307,101 307,101 308,101 308,101 308,100 308,100 308,100 308,100 308,100 308,100 308,100 308,100 308,100 308,100 308,101 309,101 309,102 309,102 309,102 309,103 309,103 309,103 309,103 309,103 309,103 309,103 309,103 309,104 310,104 310,104 310,104 310,104 310,104 310,105 310,105 310,105 310,105 310,105 310,106 310,106 310,106 311,106 311,106 311,106 311,106 311,106 311,106 311,106 311,106 311,107 311,107 311,107 311,108 311,108 312,109 312,110 312,111 312,111 312,111 312,112 312,112 312,112 312,112 312,113 312,113 312,113 312,113 313,114 313,114 313,115 313,115 313,116 313,117 313,118 313,118 313,119 313,120 313,121 313,122 313,123 314,123 314,124 314,125 314,125 314,126 314,127 314,129 314,130 314,131 314,132 314,133 314,134 314,135 315,136 315,137 315,138 315,139 315,140 315,141 315,142 315,143 315,144 315,146 315,147 315,147 315,147 316,147 316,146 316,146 316,146 316,146 316,146 316,146 316,146 316,146 316,146 316,146 316,146 316,146 317,146 317,146 317,146 317,146 317,146 317,146 317,147 317,147 317,148 317,148 317,149 317,150 317,150 318,151 318,152 318,152 318,152 318,152 318,152 318,152 318,152 318,152 318,151 318,150 318,150 318,149 319,148 319,148 319,147 319,146 319,146 319,145 319,145 319,144 319,143 319,143 319,142 319,142 319,142 320,141 320,141 320,140 320,140 320,140 320,140 320,140 320,140 320,139 320,139 320,139 320,139 320,139 321,138 321,138 321,137 321,136 321,135 321,135 321,134 321,134 321,133 321,133 321,132 321,132 321,131 322,130 322,130 322,130 322,129 322,129 322,128 322,128 322,127 322,127 322,127 322,126 322,126 322,125 323,124 323,124 323,123 323,123 323,122 323,121 323,120 323,120 323,119 323,118 323,118 323,118 323,118 324,118 324,118 324,118 324,118 324,118 324,117 324,117 324,117 324,117 324,117 324,117 324,117 324,117 325,117 325,117 325,117 325,117 325,117 325,117 325,117 325,117 325,117 325,117 325,117 325,117 325,117 326,118 326,118 326,119 326,119 326,120 326,120 326,121 326,121 326,122 326,122 326,123 326,123 326,124 327,125 327,125 327,126 327,126 327,127 327,128 327,128 327,129 327,129 327,130 327,130 327,131 327,131 328,131 328,132 328,132 328,133 328,133 328,133 328,133 328,134 328,134 328,134 328,135 328,135 328,135 329,136 329,136 329,136 329,136 329,137 329,137 329,137 329,137 329,138 329,138 329,138 329,138 329,139 330,139 330,139 330,139 330,140 330,140 330,140 330,141 330,141 330,142 330,142 330,142 330,142 330,143 331,143 331,143 331,144 331,144 331,144 331,144 331,145 331,145 331,146 331,146 331,147 331,147 331,148 332,149 332,149 332,149 332,149 332,150 332,150 332,150 332,150 332,150 332,150 332,150 332,150 332,150 333,150 333,149 333,149 333,149 333,149 333,149 333,149 333,149 333,149 333,149 333,149 333,149 333,149 334,150 334,150 334,150 334,150 334,150 334,150 334,151 334,151 334,151 334,151 334,151 334,151 335,151 335,151 335,151 335,151 335,150 335,150 335,150 335,150 335,150 335,150 335,150 335,150 335,150 336,150 336,149 336,149 336,149 336,149 336,149 336,149 336,149 336,149 336,149 336,149 336,150 336,150 337,150 337,151 337,151 337,151 337,152 337,152 337,152 337,152 337,152 337,152 337,153 337,152 337,153 338,153 338,153 338,153 338,153 338,152 338,152 338,153 338,153 338,153 338,153 338,153 338,153 338,153 339,153 339,153 339,154 339,154 339,154 339,153 339,153 339,153 339,153 339,152 339,152 339,152 339,152 340,151 340,151 340,151 340,151 340,150 340,150 340,149 340,149 340,149 340,149 340,149 340,149 340,149 341,149 341,149 341,149 341,149 341,149 341,149 341,149 341,149 341,149 341,149 341,149 341,149 341,149 342,149 342,150 342,150 342,151 342,151 342,152 342,153 342,154 342,154 342,155 342,156 342,156 342,157 343,157 343,158 343,158 343,158 343,158 343,158 343,158 343,158 343,157 343,157 343,157 343,157 343,157 344,157 344,157 344,156 344,156 344,156 344,156 344,156 344,156 344,155 344,155 344,155 344,155 344,155 345,155 345,155 345,154 345,154 345,153 345,153 345,153 345,154 345,154 345,155 345,155 345,155 345,155 346,156 346,156 346,156 346,157 346,157 346,157 346,157 346,158 346,158 346,158 346,159 346,159 346,159 347,160 347,161 347,161 347,162 347,162 347,163 347,163 347,164 347,164 347,164 347,165 347,165 347,165 348,166 348,166 348,166 348,167 348,168 348,169 348,169 348,170 348,170 348,170 348,171 348,171 348,172 349,172 349,172 349,172 349,172 349,172 349,172 349,172 349,172 349,172 349,172 349,173 349,173 349,173 350,174 350,174 350,174 350,174 350,175 350,175 350,175 350,175 350,175 350,175 350,175 350,175 350,175 351,175 351,175 351,175 351,174 351,174 351,173 351,173 351,173 351,172 351,172 351,171 351,171 351,170 352,170 352,169 352,169 352,168 352,168 352,167 352,167 352,167 352,167 352,167 352,167 352,166 352,165 353,165 353,165 353,164 353,164 353,163 353,162 353,161 353,161 353,160 353,159 353,158 353,158 353,157 354,157 354,156 354,156 354,156 354,156 354,156 354,156 354,155 354,155 354,155 354,155 354,155 354,155 355,155 355,155 355,155 355,155 355,155 355,155 355,155 355,155 355,156 355,156 355,156 355,156 355,156 356,156 356,156 356,156 356,157 356,157 356,157 356,157 356,157 356,158 356,158 356,159 356,160 356,160 357,161 357,161 357,162 357,162 357,162 357,162 357,163 357,163 357,163 357,163 357,163 357,163 357,164 358,164 358,164 358,164 358,164 358,165 358,165 358,165 358,165 358,165 358,165 358,166 358,166 358,167 359,167 359,168 359,168 359,169 359,169 359,169 359,170 359,170 359,171 359,171 359,171 359,172 359,172 360,172 360,173 360,173 360,173 360,173 360,174 360,174 360,174 360,174 360,175 360,175 360,175 360,175 361,175 361,175 361,175 361,175 361,175 361,176 361,176 361,176 361,176 361,176 361,175 361,175 361,175 362,175 362,174 362,174 362,174 362,174 362,174 362,174 362,174 362,174 362,175 362,175 362,175 362,175 363,175 363,175 363,175 363,176 363,176 363,175 363,175 363,175 363,175 363,174 363,174 363,174 363,174 364,173 364,173 364,173 364,172 364,172 364,172 364,172 364,171 364,171 364,170 364,170 364,170 364,169 365,169 365,169 365,169 365,168 365,168 365,168 365,168 365,168 365,167 365,167 365,167 365,167 365,166 366,166 366,166 366,165 366,165 366,165 366,164 366,164 366,164 366,164 366,163 366,164 366,164 366,164 367,164 367,164 367,163 367,163 367,163 367,163 367,163 367,163 367,163 367,163 367,163 367,163 367,163 368,163 368,163 368,163 368,162 368,162 368,162 368,162 368,162 368,162 368,162 368,162 368,162 368,162 369,162 369,162 369,163 369,163 369,163 369,163 369,163 369,163 369,163 369,163 369,163 369,163 369,164 370,164 370,164 370,164 370,164 370,164 370,164 370,164 370,164 370,164 370,165 370,165 370,166 370,166 371,167 371,167 371,168 371,168 371,169 371,169 371,169 371,170 371,170 371,170 371,170 371,171 371,171 372,171 372,171 372,172 372,172 372,172 372,173 372,173 372,173 372,173 372,174 372,174 372,174 372,175 373,175 373,175 373,175 373,176 373,176 373,176 373,176 373,176 373,176 373,176 373,177 373,177 373,177 374,177 374,178 374,178 374,178 374,178 374,178 374,178 374,178 374,179 374,179 374,179 374,179 374,180 375,180 375,180 375,180 375,180 375,181 375,181 375,181 375,181 375,181 375,181 375,181 375,181 375,181 376,181 376,181 376,181 376,181 376,181 376,181 376,181 376,181 376,181 376,181 376,181 376,181 376,181 377,181 377,181 377,181 377,182 377,182 377,182 377,182 377,182 377,182 377,182 377,182 377,182 377,183 378,183 378,183 378,183 378,183 378,184 378,184 378,184 378,184 378,184 378,184 378,184 378,184 378,184 379,184 379,185 379,185 379,185 379,185 379,185 379,185 379,185 379,185 379,186 379,185 379,185 379,185 380,185 380,186 380,186 380,186 380,186 380,186 380,186 380,186 380,187 380,187 380,186 380,187 380,187 381,187 381,187 381,187 381,187 381,187 381,187 381,187 381,187 381,187 381,187 381,187 381,187 381,187 382,188 382,188 382,188 382,188 382,188 382,188 382,188 382,188 382,188 382,188 382,188 382,188 382,188 383,188 383,188 383,188 383,188 383,188 383,188 383,188 383,187 383,187 383,187 383,187 383,187 383,187 384,187 384,187 384,187 384,187 384,187 384,187 384,187 384,187 384,187 384,187 384,188 384,188 384,188 385,188 385,188 385,188 385,188 385,189 385,189 385,189 385,189 385,189 385,189 385,189 385,189 385,189 386,189 386,189 386,189 386,189 386,189 386,189 386,189 386,189 386,189 386,189 386,189 386,189 386,189 387,189 387,189 387,189 387,189 387,189 387,189 387,189 387,189 387,189 387,189 387,189 387,189 387,189 388,189 388,189 388,189 388,189 388,189 388,189 388,188 388,188 388,188 388,188 388,188 388,187 388,187 389,187 389,186 389,186 389,185 389,185 389,185 389,184 389,184 389,184 389,184 389,184 389,183 389,183 390,183 390,183 390,183 390,183 390,184 390,184 390,184 390,184 390,184 390,184 390,184 390,184 390,184 391,184 391,184 391,184 391,184 391,184 391,185 391,185 391,185 391,185 391,185 391,186 391,186 391,186 392,186 392,186 392,186 392,187 392,187 392,187 392,187 392,187 392,187 392,188 392,188 392,188 392,188 393,188 393,188 393,187 393,188 393,188 393,188 393,188 393,188 393,188 393,188 393,188 393,188 393,188 394,188 394,188 394,189 394,189 394,189 394,189 394,188 394,188 394,188 394,188 394,188 394,188 394,189 395,189 395,189 395,189 395,189 395,189 395,189 395,190 395,190 395,190 395,191 395,191 395,191 395,191 396,191 396,191 396,191 396,191 396,191 396,192 396,192 396,192 396,193 396,193 396,193 396,193 396,194 397,194 397,195 397,195 397,195 397,195 397,195 397,195 397,195 397,195 397,196 397,196 397,196 397,196 398,196 398,196 398,196 398,196 398,196 398,196 398,196 398,196 398,196 398,196 398,196 398,196 398,196 399,196 399,196 399,196 399,196 399,196 399,195 399,195 399,195 399,195 399,195 399,195 399,195 399,195 400,195 400,195 400,196 400,196 400,196 400,196 400,196 400,196 400,195 400,195 400,194 400,194 400,194 401,193 401,193 401,192 401,192 401,191 401,191 401,191 401,190 401,190 401,190 401,190 401,189 401,189 402,189 402,189 402,189 402,189 402,189 402,189 402,189 402,190 402,190 402,190 402,190 402,190 403,190 403,190 403,191 403,191 403,191 403,191 403,191 403,192 403,192 403,192 403,193 403,193 403,194 404,194 404,195 404,196 404,196 404,197 404,197 404,197 404,197 404,198 404,198 404,198 404,198 404,198 405,198 405,198 405,198 405,198 405,198 405,198 405,198 405,198 405,198 405,198 405,198 405,198 405,198 406,198 406,198 406,198 406,198 406,198 406,198 406,198 406,198 406,198 406,198 406,198 406,198 406,198 407,198 407,198 407,197 407,197 407,197 407,197 407,197 407,197 407,197 407,197 407,197 407,196 407,196 408,196 408,196 408,195 408,195 408,195 408,194 408,194 408,194 408,194 408,194 408,194 408,194 408,194 409,194 409,193 409,193 409,193 409,193 409,193 409,193 409,192 409,192 409,192 409,192 409,192 409,191 410,191 410,191 410,190 410,190 410,190 410,190 410,189 410,189 410,189 410,188 410,188 410,187 410,187 411,187 411,186 411,186 411,185 411,185 411,185 411,184 411,184 411,183 411,183 411,183 411,182 411,182 412,182 412,181 412,181 412,181 412,180 412,180 412,180 412,179 412,179 412,178 412,178 412,178 412,177 413,177 413,177 413,177 413,177 413,177 413,177 413,177 413,177 413,177 413,177 413,177 413,176 413,176 414,176 414,176 414,176 414,176 414,176 414,176 414,176 414,176 414,176 414,176 414,176 414,176 414,176 415,176 415,176 415,177 415,177 415,178 415,178 415,179 415,179 415,180 415,180 415,180 415,181 415,181 416,181 416,182 416,182 416,182 416,183 416,183 416,183 416,184 416,184 416,184 416,185 416,185 416,185 417,185 417,186 417,186 417,186 417,186 417,186 417,187 417,187 417,187 417,188 417,188 417,188 417,188 418,189 418,189 418,189 418,189 418,189 418,189 418,190 418,190 418,190 418,190 418,190 418,190 418,191 419,191 419,191 419,191 419,191 419,191 419,191 419,191 419,191 419,191 419,192 419,192 419,192 419,192 420,192 420,192 420,192 420,192 420,193 420,193 420,193 420,193 420,193 420,193 420,193 420,193 420,193 421,193 421,193 421,193 421,193 421,193 421,193 421,194 421,194 421,194 421,194 421,194 421,194 421,194 422,194 422,194 422,194 422,194 422,194 422,194 422,194 422,194 422,194 422,194 422,194 422,194 422,194 423,194 423,194 423,194 423,194 423,194 423,194 423,194 423,194 423,194 423,194 423,194 423,194 423,194 424,194 424,194 424,194 424,194 424,194 424,194 424,194 424,194 424,194 424,194 424,194 424,194 424,195 425,195 425,195 425,195 425,195 425,195 425,195 425,195 425,195 425,195 425,195 425,195 425,195 425,195 426,195 426,195 426,195 426,195 426,195 426,195 426,195 426,195 426,195 426,195 426,195 426,195 426,196 427,196 427,196 427,196 427,196 427,196 427,196 427,196 427,196 427,196 427,196 427,196 427,196 427,196 428,196 428,196 428,196 428,196 428,196 428,196 428,196 428,196 428,196 428,196 428,196 428,196 428,196 429,196 429,196 429,196 429,196 429,196 429,196 429,196 429,196 429,196 429,196 429,196 429,196 429,196 430,196 430,196 430,196 430,196 430,196 430,196 430,196 430,197 430,197 430,197 430,197 430,196 430,196 431,196 431,195 431,195 431,195 431,195 431,195 431,195 431,196 431,196 431,196 431,196 431,196 431,195 432,195 432,195 432,195 432,195 432,194 432,194 432,194 432,195 432,195 432,194 432,194 432,194 432,194 433,194 433,194 433,194 433,194 433,194 433,194 433,194 433,194 433,194 433,194 433,194 433,194 433,194 434,194 434,194 434,194 434,194 434,194 434,194 434,194 434,194 434,194 434,194 434,194 434,194 434,194 435,194 435,194 435,194 435,194 435,194 435,194 435,194 435,194 435,194 435,194 435,194 435,194 435,193 436,193 436,193 436,193 436,193 436,193 436,193 436,193 436,193 436,193 436,192 436,192 436,192 436,192 437,191 437,191 437,191 437,191 437,191 437,191 437,191 437,190 437,190 437,190 437,189 437,189 437,189 438,189 438,188 438,188 438,188 438,188 438,188 438,188 438,188 438,187 438,187 438,187 438,187 438,187 439,187 439,187 439,187 439,187 439,187 439,187 439,187 439,188 439,188 439,188 439,188 439,188 439,189 440,189 440,189 440,189 440,189 440,189 440,189 440,189 440,189 440,190 440,189 440,189 440,189 440,189 441,189 441,189 441,189 441,189 441,189 441,189 441,189 441,188 441,188 441,188 441,188 441,188 441,188 442,187 442,187 442,187 442,187 442,187 442,187 442,187 442,187 442,186 442,186 442,186 442,186 442,186 443,186 443,186 443,186 443,186 443,186 443,186 443,186 443,186 443,186 443,186 443,186 443,187 443,187 444,187 444,187 444,187 444,187 444,187 444,187 444,187 444,187 444,187 444,187 444,187 444,187 444,188 445,188 445,188 445,188 445,188 445,188 445,188 445,188 445,188 445,188 445,188 445,188 445,188 445,188 446,188 446,188 446,188 446,188 446,188 446,188 446,188 446,187 446,187 446,187 446,187 446,187 446,187 447,187 447,187 447,187 447,187 447,187 447,187 447,187 447,187 447,187 447,187 447,187 447,187 447,186 448,186 448,186 448,186 448,186 448,186 448,186 448,186 448,186 448,186 448,186 448,186 448,186 448,186 449,186 449,186 449,186 449,186 449,186 449,186 449,186 449,187 449,187 449,188 449,188 449,188 449,189 450,190 450,191 450,191 450,190 450,189 450,187 450,187 450,187 450,186 450,186 450,186 450,185 450,185 451,185 451,185 451,184 451,184 451,184 451,184 451,184 451,184 451,184 451,184 451,184 451,184 451,184 452,184 452,184 452,184 452,184 452,184 452,184 452,184 452,184 452,183 452,183 452,183 452,183 452,183 453,183 453,183 453,183 453,183 453,183 453,183 453,183 453,183 453,183 453,183 453,183 453,183 453,183 454,184 454,185 454,185 454,184 454,183 454,182 454,182 454,182 454,182 454,182 454,182 454,182 454,182 455,182 455,182 455,182 455,182 455,182 455,182 455,182 455,182 455,182 455,182 455,181 455,181 455,181 456,180 456,180 456,180 456,180 456,179 456,179 456,179 456,179 456,179 456,179 456,178 456,178 456,178 457,178 457,178 457,177 457,177 457,177 457,176 457,176 457,176 457,176 457,176 457,176 457,176 457,176 458,176 458,176 458,176 458,176 458,176 458,176 458,176 458,176 458,176 458,176 458,176 458,176 458,177 459,177 459,177 459,177 459,177 459,177 459,178 459,178 459,178 459,179 459,179 459,179 459,179 459,179 460,179 460,179 460,179 460,179 460,179 460,179 460,180 460,180 460,180 460,180 460,180 460,180 460,181 461,181 461,181 461,181 461,181 461,181 461,181 461,181 461,181 461,181 461,181 461,182 461,182 461,182 462,182 462,182 462,181 462,181 462,181 462,181 462,181 462,181 462,181 462,181 462,181 462,181 462,181 463,181 463,181 463,181 463,181 463,180 463,180 463,180 463,180 463,180 463,180 463,181 463,181 463,181 464,180 464,180 464,180 464,180 464,180 464,180 464,180 464,180 464,180 464,180 464,180 464,179 464,179 465,179 465,179 465,179 465,179 465,179 465,179 465,179 465,178 465,178 465,178 465,178 465,178 465,178 466,177 466,177 466,177 466,177 466,177 466,176 466,176 466,176 466,176 466,175 466,175 466,175 466,175 467,174 467,174 467,174 467,173 467,173 467,173 467,172 467,172 467,172 467,171 467,171 467,171 467,170 468,170 468,169 468,169 468,169 468,168 468,168 468,168 468,168 468,168 468,168 468,168 468,169 468,169 469,169 469,168 469,168 469,168 469,168 469,168 469,168 469,168 469,168 469,168 469,168 469,168 469,168 470,168 470,168 470,168 470,167 470,167 470,167 470,167 470,167 470,166 470,166 470,166 470,166 470,166 471,166 471,166 471,166 471,165 471,165 471,165 471,165 471,165 471,165 471,165 471,165 471,164 472,164 472,164 472,164 472,164 472,164 472,164 472,164 472,163 472,163 472,163 472,163 472,163 472,163 473,163 473,162 473,162 473,162 473,162 473,162 473,162 473,161 473,162 473,162 473,162 473,162 473,162 474,162 474,162 474,162 474,163 474,163 474,163 474,163 474,163 474,163 474,164 474,164 474,164 474,164 475,164 475,164 475,164 475,164 475,164 475,164 475,164 475,164 475,164 475,164 475,164 475,164 475,164 476,164 476,164 476,164 476,164 476,164 476,164 476,164 476,164 476,164 476,164 476,163 476,163 476,163 477,163 477,164 477,164 477,164 477,164 477,164 477,164 477,164 477,164 477,164 477,164 477,164 477,164 478,164 478,164 478,164 478,165 478,165 478,165 478,165 478,165 478,165 478,165 478,166 478,166 478,166 479,166 479,166 479,166 479,166 479,166 479,165 479,165 479,165 479,165 479,165 479,165 479,165 479,164 480,164 480,164 480,164 480,164 480,164 480,163 480,163 480,163 480,163 480,163 480,163 480,162 480,162 481,162 481,162 481,161 481,161 481,161 481,160 481,160 481,160 481,160 481,159 481,159 481,159 481,159 482,159 482,158 482,158 482,158 482,158 482,158 482,158 482,158 482,157 482,157 482,157 482,157 482,157 483,156 483,156 483,156 483,156 483,155 483,155 483,155 483,155 483,154 483,154 483,154 483,154 483,154 484,153 484,153 484,153 484,153 484,153 484,152 484,152 484,152 484,152 484,152 484,152 484,151 484,151 485,151 485,151 485,151 485,150 485,150 485,150 485,150 485,150 485,150 485,150 485,149 485,149 485,149 486,149 486,149 486,150 486,150 486,150 486,150 486,150 486,150 486,150 486,150 486,150 486,149 486,149 487,149 487,149 487,149 487,148 487,148 487,148 487,148 487,147 487,147 487,147 487,146 487,146 487,145 488,145 488,144 488,144 488,143 488,142 488,142 488,141 488,140 488,140 488,139 488,139 488,138 488,138 489,137 489,137 489,136 489,136 489,136 489,135 489,135 489,134 489,134 489,134 489,134 489,134 489,134 490,134 490,134 490,134 490,134 490,134 490,134 490,134 490,134 490,134 490,134 490,134 490,134 490,134 491,135 491,135 491,135 491,135 491,135 491,135 491,135 491,135 491,135 491,135 491,135 491,135 491,135 492,135 492,135 492,135 492,135 492,135 492,135 492,135 492,135 492,135 492,135 492,135 492,135 492,135 493,135 493,135 493,135 493,135 493,135 493,135 493,135 493,135 493,135 493,135 493,134 493,134 493,134 494,134 494,134 494,134 494,134 494,134 494,134 494,134 494,134 494,134 494,134 494,134 494,134 494,133 495,133 495,133 495,133 495,133 495,133 495,133 495,133 495,133 495,133 495,133 495,133 495,133 495,133 496,133 496,133 496,133 496,132 496,132 496,132 496,132 496,132 496,132 496,132 496,131 496,131 496,131 497,131 497,131 497,131 497,132 497,132 497,132 497,132 497,132 497,132 497,132 497,131 497,131 497,131 498,131 498,131 498,131 498,131 498,131 498,131 498,130 498,130 498,130 498,130 498,129 498,129 498,129 499,129 499,129 499,128 499,128 499,128 499,128 499,128 499,127 499,127 499,127 499,127 499,127 499,127 500,126 500,126 500,126 500,126 500,126 500,126 500,126 500,126 500,126 500,126 500,126 500,126 500,126 501,126 501,126 501,126 501,126 501,126 501,126 501,126 501,126 501,127 501,127 501,127 501,127 501,127 502,127 502,127 502,127 502,127 502,127 502,127 502,127 502,127 502,127 502,128 502,128 502,128 502,128 503,128 503,129 503,129 503,129 503,129 503,130 503,130 503,130 503,130 503,131 503,131 503,131 503,131 504,131 504,132 504,132 504,132 504,132 504,132 504,133 504,133 504,133 504,133 504,133 504,134 504,134 505,134 505,134 505,134 505,135 505,135 505,135 505,135 505,135 505,135 505,135 505,136 505,136 505,136 506,136 506,136 506,136 506,136 506,136 506,136 506,136 506,136 506,136 506,136 506,137 506,137 506,137 507,137 507,137 507,137 507,137 507,137 507,138 507,138 507,138 507,138 507,138 507,138 507,139 507,139 508,139 508,139 508,139 508,139 508,139 508,140 508,140 508,140 508,140 508,140 508,140 508,140 508,140 509,141 509,141 509,141 509,141 509,141 509,141 509,141 509,141 509,142 509,142 509,142 509,142 509,142 510,142 510,142 510,142 510,142 510,143 510,144 510,144 510,144 510,145 510,145 510,145 510,145 510,145 511,145 511,145 511,145 511,145 511,145 511,146 511,146 511,146 511,146 511,147 511,147 511,147 511,147 512,147 512,147 512,147 512,147 512,147 512,147 512,147 512,148 512,148 512,148 512,148 512,148 512,148 513,148 513,148 513,148 513,148 513,148 513,148 513,149 513,149 513,149 513,149 513,149 513,149 513,149 514,149 514,149 514,149 514,149 514,149 514,150 514,150 514,150 514,150 514,150 514,150 514,150 514,150 515,151 515,151 515,151 515,151 515,152 515,152 515,152 515,153 515,154 515,155 515,154 515,153 515,152 516,151 516,151 516,151 516,151 516,151 516,151 516,151 516,152 516,152 516,152 516,151 516,149 516,149 517,149 517,149 517,148 517,148 517,148 517,147 517,147 517,147 517,146 517,146 517,146 517,145 517,145 518,144 518,144 518,144 518,143 518,143 518,142 518,142 518,142 518,141 518,141 518,141 518,141 518,141 519,141 519,140 519,140 519,140 519,140 519,140 519,140 519,140 519,140 519,140 519,140 519,141 519,141 520,141 520,141 520,142 520,142 520,142 520,143 520,143 520,143 520,143 520,143 520,143 520,143 520,143 521,143 521,143 521,144 521,144 521,144 521,144 521,145 521,145 521,145 521,145 521,145 521,145 521,146 522,146 522,146 522,146 522,146 522,146 522,147 522,147 522,147 522,147 522,147 522,148 522,148 522,148 523,148 523,148 523,149 523,149 523,149 523,149 523,150 523,150 523,150 523,150 523,150 523,150 523,151 524,151 524,151 524,151 524,152 524,152 524,152 524,152 524,152 524,152 524,152 524,152 524,152 524,152 525,152 525,152 525,152 525,152 525,152 525,153 525,153 525,153 525,153 525,153 525,153 525,152 525,152 526,152 526,152 526,152 526,152 526,151 526,151 526,151 526,151 526,151 526,150 526,150 526,150 526,150 527,150 527,149 527,149 527,149 527,149 527,148 527,148 527,148 527,148 527,147 527,147 527,147 527,146 528,146 528,146 528,145 528,145 528,145 528,145 528,144 528,144 528,144 528,144 528,144 528,144 528,143 529,143 529,143 529,143 529,143 529,142 529,142 529,142 529,142 529,142 529,142 529,142 529,141 529,141 530,141 530,141 530,141 530,141 530,141 530,141 530,141 530,141 530,141 530,141 530,142 530,142 530,142 531,142 531,142 531,143 531,142 531,142 531,141 531,140 531,140 531,140 531,140 531,140 531,140 531,140 532,140 532,140 532,140 532,140 532,140 532,140 532,140 532,140 532,140 532,140 532,141 532,141 532,143 533,144 533,144 533,144 533,143 533,143 533,143 533,143 533,142 533,142 533,142 533,142 533,142 533,142 534,142 534,142 534,143 534,143 534,143 534,143 534,144 534,144 534,144 534,145 534,145 534,145 534,146 535,146 535,146 535,147 535,147 535,147 535,147 535,148 535,148 535,148 535,148 535,149 535,149 535,149 536,149 536,150 536,150 536,151 536,151 536,151 536,152 536,152 536,152 536,153 536,153 536,154 536,154 537,154 537,155 537,155 537,155 537,156 537,156 537,157 537,157 537,158 537,158 537,158 537,159 537,159 538,159 538,159 538,160 538,160 538,160 538,160 538,160 538,160 538,160 538,160 538,159 538,159 538,159 539,158 539,158 539,158 539,157 539,157 539,156 539,156 539,156 539,155 539,155 539,155 539,155 540,154 540,154 540,154 540,154 540,153 540,153 540,153 540,153 540,152 540,152 540,152 540,152 540,152 541,152 541,151 541,151 541,151 541,151 541,151 541,151 541,151 541,151 541,151 541,152 541,152 541,152 542,153 542,153 542,153 542,153 542,154 542,154 542,154 542,155 542,155 542,155 542,156 542,156 542,156 543,157 543,157 543,157 543,157 543,158 543,158 543,158 543,159 543,159 543,159 543,159 543,159 543,159 544,160 544,160 544,160 544,160 544,161 544,161 544,161 544,161 544,161 544,161 544,161 544,161 544,161 545,161 545,161 545,161 545,160 545,160 545,160 545,160 545,159 545,159 545,159 545,158 545,158 545,158 546,158 546,157 546,157 546,157 546,157 546,157 546,157 546,156 546,156 546,156 546,156 546,156 546,156 547,156 547,156 547,155 547,155 547,155 547,155 547,155 547,155 547,155 547,155 547,155 547,155 547,155 548,155 548,156 548,156 548,156 548,156 548,157 548,157 548,157 548,157 548,158 548,158 548,158 548,158 549,159 549,159 549,159 549,159 549,159 549,159 549,159 549,159 549,159 549,159 549,159 549,159 549,159 550,159 550,159 550,159 550,159 550,159 550,159 550,159 550,159 550,159 550,159 550,159 550,159 550,159 551,159 551,159 551,159 551,159 551,159 551,159 551,160 551,160 551,159 551,159 551,159 551,159 551,159 552,159 552,159 552,159 552,159 552,159 552,159 552,159 552,159 552,159 552,158 552,158 552,158 552,158 553,158 553,158 553,158 553,158 553,158 553,158 553,158 553,158 553,158 553,158 553,158 553,159 553,159 554,159 554,159 554,158 554,158 554,158 554,158 554,157 554,157 554,157 554,157 554,157 554,157 554,157 555,157 555,157 555,157 555,157 555,157 555,157 555,157 555,156 555,156 555,156 555,156 555,156 555,156 556,156 556,156 556,156 556,156 556,155 556,155 556,155 556,155 556,155 556,155 556,155 556,155 556,155 557,155 557,155 557,155 557,155 557,155 557,155 557,155 557,155 557,155 557,155 557,155 557,155 557,155 558,155 558,155 558,155 558,155 558,155 558,155 558,155 558,155 558,155 558,155 558,155 558,155 558,155 559,155 559,155 559,155 559,155 559,155 559,155 559,155 559,155 559,155 559,155 559,155 559,155 559,155 560,155 560,155 560,155 560,155 560,155 560,155 560,154 560,154 560,154 560,154 560,154 560,154 560,154 561,154 561,154 561,154 561,155 561,155 561,155 561,154 561,154 561,154 561,154 561,154 561,154 561,154 562,154 562,154 562,154 562,154 562,154 562,154 562,154 562,154 562,154 562,154 562,154 562,154 562,153 563,153 563,153 563,153 563,153 563,153 563,153 563,153 563,153 563,153 563,153 563,153 563,152 563,152 564,152 564,152 564,152 564,152 564,152 564,152 564,152 564,152 564,152 564,152 564,151 564,151 564,151 565,151 565,151 565,150 565,150 565,150 565,150 565,150 565,150 565,150 565,150 565,150 565,150 565,149 566,149 566,149 566,149 566,149 566,149 566,149 566,149 566,149 566,149 566,149 566,149 566,149 566,149 567,149 567,148 567,148 567,148 567,148 567,147 567,147 567,147 567,146 567,146 567,146 567,146 567,145 568,145 568,145 568,145 568,144 568,144 568,144 568,143 568,143 568,143 568,142 568,142 568,142 568,142 569,141 569,141 569,141 569,140 569,140 569,139 569,139 569,138 569,138 569,138 569,137 569,137 569,137 570,136 570,136 570,136 570,135 570,135 570,134 570,134 570,134 570,133 570,133 570,133 570,133 570,132 571,132 571,132 571,132 571,132 571,131 571,131 571,131 571,131 571,131 571,131 571,131 571,131 571,131 572,131 572,131 572,131 572,131 572,131 572,131 572,131 572,131 572,131 572,131 572,131 572,132 572,132 573,132 573,132 573,132 573,132 573,132 573,132 573,132 573,132 573,132 573,132 573,132 573,132 573,133 574,133 574,133 574,133 574,133 574,133 574,134 574,134 574,134 574,134 574,135 574,136 574,136 574,136 575,137 575,137 575,137 575,138 575,138 575,138 575,139 575,139 575,139 575,140 575,140 575,140 575,140 576,141 576,141 576,141 576,141 576,142 576,142 576,142 576,142 576,143 576,143 576,143 576,144 576,144 577,144 577,145 577,145 577,145 577,145 577,146 577,146 577,146 577,147 577,147 577,147 577,148 577,148 578,148 578,148 578,148 578,149 578,149 578,149 578,149 578,149 578,149 578,149 578,149 578,149 578,149 579,148 579,148 579,148 579,148 579,148 579,148 579,148 579,148 579,149 579,149 579,149 579,149 579,149 580,149 580,149 580,149 580,149 580,150 580,150 580,150 580,150 580,150 580,150 580,150 580,150 580,151 581,151 581,151 581,151 581,151 581,151 581,151 581,151 581,151 581,152 581,152 581,152 581,152 581,152 582,152 582,152 582,153 582,153 582,153 582,153 582,153 582,153 582,153 582,154 582,154 582,154 582,154 583,154 583,155 583,155 583,155 583,155 583,155 583,156 583,156 583,156 583,156 583,157 583,157 583,157 584,157 584,158 584,158 584,158 584,158 584,158 584,158 584,159 584,159 584,159 584,159 584,159 584,160 585,160 585,160 585,160 585,161 585,161 585,162 585,162 585,162 585,162 585,162 585,163 585,163 585,163 586,164 586,164 586,165 586,165 586,165 586,166 586,166 586,166 586,167 586,167 586,167 586,168 586,168 587,168 587,169 587,169 587,169 587,170 587,171 587,172 587,172 587,173 587,173 587,174 587,174 587,174 588,175 588,175 588,176 588,176 588,177 588,177 588,177 588,177 588,177 588,178 588,178 588,177 588,177 589,177 589,177 589,177 589,177 589,176 589,176 589,176 589,176 589,176 589,176 589,176 589,176 589,176 590,176 590,176 590,175 590,175 590,175 590,175 590,175 590,175 590,175 590,175 590,175 590,175 590,175 591,175 591,175 591,175 591,175 591,175 591,175 591,175 591,175 591,175 591,175 591,175 591,176 591,176 592,176 592,176 592,176 592,176 592,176 592,176 592,176 592,176 592,175 592,175 592,175 592,175 592,175 593,174 593,174 593,173 593,173 593,172 593,172 593,172 593,172 593,171 593,171 593,171 593,171 593,171 594,170 594,170 594,170 594,170 594,170 594,170 594,170 594,169 594,169 594,169 594,169 594,169 594,169 595,169 595,169 595,169 595,169 595,170 595,170 595,170 595,170 595,170 595,170 595,170 595,170 595,170 596,169 596,169 596,169 596,168 596,168 596,167 596,167 596,167 596,168 596,168 596,168 596,169 596,169 597,169 597,169 597,170 597,170 597,170 597,171 597,171 597,172 597,172 597,173 597,173 597,174 597,175 598,176 598,177 598,178 598,179 598,180 598,181 598,182 598,183 598,184 598,185 598,185 598,186 598,187 599,187 599,187 599,187 599,187 599,186 599,186 599,185 599,185 599,184 599,184 599,183 599,182 599,182 600,182 600,181 600,181 600,181 600,180 600,180 600,179 600,179 600,179 600,178 600,178 600,177 600,177 601,176 601,176 601,176 601,175 601,175 601,175 601,175 601,175 601,175 601,175 601,174 601,174 601,174 602,174 602,174 602,174 602,174 602,174 602,174 602,173 602,173 602,173 602,173 602,173 602,173 602,173 603,173 603,173 603,173 603,173 603,174 603,174 603,174 603,175 603,175 603,175 603,175 603,175 603,176 604,176 604,176 604,176 604,176 604,176 604,177 604,177 604,177 604,177 604,177 604,177 604,177 604,178 605,178 605,178 605,178 605,178 605,178 605,178 605,178 605,178 605,178 605,178 605,177 605,177 605,177 606,176 606,176 606,176 606,176 606,176 606,177 606,177 606,177 606,177 606,177 606,178 606,178 606,178 607,179 607,179 607,179 607,180 607,179 607,180 607,180 607,180 607,180 607,180 607,179 607,179 608,180 608,180 608,180 608,180 608,180 608,180 608,180 608,180 608,180 608,180 608,180 608,180 608,180 609,179 609,179 609,179 609,179 609,178 609,178 609,178 609,178 609,178 609,178 609,178 609,178 609,178 610,178 610,178 610,179 610,179 610,179 610,179 610,180 610,180 610,180 610,180 610,181 610,181 610,181 611,181 611,182 611,182 611,182 611,182 611,182 611,183 611,183 611,183 611,183 611,184 611,184 611,184 612,185 612,185 612,186 612,186 612,187 612,187 612,188 612,188 612,189 612,189 612,190 612,190 612,191 613,191 613,192 613,192 613,192 613,193 613,193 613,193 613,194 613,194 613,195 613,195 613,195 613,196 614,196 614,196 614,197 614,197 614,197 614,198 614,198 614,198 614,199 614,199 614,199 614,200 614,200 615,200 615,201 615,201 615,201 615,201 615,202 615,202 615,202 615,202 615,202 615,203 615,203 615,203 616,203 616,204 616,204 616,204 616,204 616,204 616,204 616,204 616,204 616,204 616,204 616,204 616,203 617,203 617,203 617,203 617,203 617,203 617,203 617,203 617,203 617,203 617,203 617,203 617,203 617,203 618,203 618,203 618,204 618,204 618,204 618,204 618,205 618,205 618,205 618,206 618,206 618,207 618,207 619,207 619,208 619,208 619,208 619,209 619,209 619,209 619,209 619,210 619,210 619,210 619,210 619,210 620,210 620,210 620,209 620,209 620,209 620,209 620,208 620,208 620,208 620,208 620,208 620,208 620,208 621,208 621,208 621,208 621,209 621,209 621,209 621,209 621,210 621,210 621,210 621,210 621,210 621,210 622,210 622,210 622,210 622,211 622,211 622,211 622,210 622,210 622,210 622,210 622,209 622,209 622,209 623,209 623,209 623,209 623,209 623,209 623,210 623,210 623,210 623,210 623,210 623,210 623,210 623,210 624,211 624,211 624,211 624,211 624,211 624,210 624,210 624,210 624,210 624,210 624,210 624,210 624,210 625,209 625,209 625,209 625,209 625,209 625,209 625,208 625,208 625,208 625,208 625,208 625,208 625,208 626,208 626,208 626,209 626,209 626,209 626,209 626,209 626,210 626,210 626,210 626,210 626,210 626,210 627,211 627,211 627,211 627,211 627,211 627,212 627,212 627,212 627,212 627,212 627,212 627,213 627,213 628,213 628,213 628,213 628,213 628,214 628,214 628,214 628,214 628,214 628,214 628,214 628,214 628,214 629,215 629,215 629,215 629,215 629,215 629,215 629,215 629,215 629,215 629,215 629,215 629,215 629,215 630,214 630,214 630,214 630,214 630,214 630,214 630,214 630,213 630,213 630,213 630,213 630,213 630,213 631,213 631,214 631,214 631,214 631,214 631,214 631,214 631,214 631,215 631,215 631,215 631,215 631,215 632,216 632,216 632,216 632,216 632,217 632,217 632,217 632,218 632,218 632,218 632,219 632,219 632,219 633,220 633,220 633,221 633,221 633,222 633,222 633,222 633,223 633,223 633,223 633,224 633,224 633,224 634,225 634,225 634,225 634,226 634,226 634,226 634,226 634,227 634,227 634,227 634,226 634,226 634,225 635,225 635,224 635,224 635,223 635,223 635,222 635,222 635,221 635,221 635,221 635,220 635,220 635,219 636,219 636,219 636,218 636,218 636,218 636,217 636,217 636,217 636,216 636,216 636,216 636,215 636,215 637,215 637,214 637,214 637,214 637,214 637,214 637,214 637,213 637,213 637,213 637,213 637,213 637,213 638,213 638,213 638,214 638,214 638,214 638,214 638,214 638,214 638,214 638,215 638,215 638,215 638,215 639,216 639,216 639,216 639,216 639,217 639,217 639,217 639,218 639,218 639,218 639,218 639,219 639,219 640,219 640,220 640,220 640,220 640,220 640,220 640,220 640,220 640,220 640,220 640,220 640,220 640,220 641,220 641,220 641,220 641,220 641,220 641,221 641,221 641,221 641,221 641,221 641,222 641,222 641,222 642,222 642,222 642,222 642,222 642,223 642,223 642,223 642,223 642,223 642,223 642,223 642,223 642,223 643,224 643,224 643,224 643,224 643,224 643,225 643,225 643,225 643,225 643,226 643,226 643,226 643,227 644,226 644,227 644,227 644,227 644,228 644,228 644,228 644,229 644,229 644,229 644,230 644,230 644,230 645,229 645,229 645,229 645,229 645,229 645,229 645,229 645,229 645,228 645,228 645,228 645,228 645,228 646,228 646,228 646,228 646,227 646,227 646,227 646,227 646,227 646,227 646,227 646,227 646,226 646,226 647,226 647,226 647,226 647,226 647,226 647,226 647,226 647,225 647,225 647,225 647,225 647,225 647,225 648,225 648,225 648,224 648,224 648,224 648,224 648,224 648,224 648,224 648,225 648,225 648,225 648,225 649,225 649,225 649,225 649,225 649,226 649,226 649,226 649,226 649,226 649,227 649,227 649,227 649,227 650,227 650,227 650,227 650,228 650,228 650,228 650,228 650,228 650,228 650,228 650,228 650,228 650,228 651,228 651,229 651,229 651,229 651,229 651,229 651,229 651,229 651,229 651,229 651,229 651,229 651,229 652,229 652,229 652,229 652,229 652,229 652,229 652,229 652,229 652,229 652,229 652,229 652,229 652,229 653,229 653,230 653,230 653,230 653,230 653,231 653,231 653,231 653,232 653,232 653,232 653,233 653,233 654,234 654,234 654,235 654,235 654,236 654,236 654,236 654,236 654,236 654,236 654,236 654,236 654,236 655,236 655,236 655,236 655,235 655,235 655,235 655,235 655,235 655,235 655,235 655,235 655,235 655,235 656,235 656,235 656,235 656,236 656,236 656,236 656,236 656,237 656,237 656,238 656,238 656,239 656,239 657,239 657,239 657,240 657,240 657,240 657,240 657,241 657,241 657,241 657,241 657,241 657,241 657,241 658,242 658,242 658,242 658,242 658,243 658,243 658,243 658,243 658,243 658,243 658,243 658,243 658,243 659,243 659,244 659,244 659,244 659,244 659,244 659,244 659,244 659,244 659,244 659,244 659,244 659,244 660,245 660,245 660,245 660,245 660,246 660,246 660,246 660,247 660,247 660,247 660,248 660,248 660,249 661,249 661,249 661,250 661,250 661,250 661,251 661,251 661,251 661,251 661,251 661,251 661,251 661,251 662,251 662,251 662,251 662,251 662,252 662,252 662,253 662,253 662,253 662,253 662,253 662,253 662,252 663,252 663,252 663,252 663,252 663,252 663,252 663,252 663,252 663,253 663,253 663,253 663,253 663,253 664,253 664,253 664,253 664,253 664,253 664,252 664,252 664,252 664,252 664,252 664,251 664,251 664,251 665,251 665,251 665,251 665,251 665,251 665,252 665,252 665,252 665,252 665,252 665,252 665,252 665,252 666,252 666,252 666,252 666,252 666,253 666,253 666,253 666,253 666,253 666,253 666,254 666,254 666,254 667,254 667,254 667,254 667,254 667,254 667,254 667,254 667,254 667,254 667,254 667,254 667,254 667,254 668,254 668,255 668,255 668,255 668,255 668,255 668,255 668,255 668,254 668,254 668,254 668,254 668,254 669,254 669,254 669,254 669,254 669,254 669,254 669,254 669,254 669,254 669,254 669,253 669,253 669,253 670,253 670,253 670,252 670,251 670,250 670,248 670,247 670,245 670,243 670,242 670,241 670,240 670,239 671,237 671,236 671,235 671,234 671,234 671,234 671,234 671,233 671,233 671,233 671,233 671,233 671,233 672,233 672,233 672,233 672,233 672,232 672,232 672,232 672,232 672,232 672,232 672,233 672,233 672,234 673,235 673,235 673,236 673,236 673,237 673,238 673,238 673,239 673,239 673,240 673,240 673,241 673,241 674,242 674,242 674,243 674,243 674,244 674,244 674,245 674,245 674,246 674,246 674,246 674,247 674,247 675,247 675,248 675,248 675,248 675,249 675,249 675,249 675,250 675,250 675,250 675,251 675,251 676,251 676,251 676,251 676,251 676,250 676,249 676,249 676,248 676,247 676,246 676,246 676,245 676,244 677,242 677,241 677,240 677,239 677,238 677,237 677,236 677,235 677,235 677,233 677,232 677,231 677,230 678,229 678,229 678,228 678,227 678,226 678,226 678,225 678,224 678,224 678,223 678,223 678,223 678,222 679,222 679,222 679,221 679,221 679,221 679,220 679,220 679,219 679,218 679,218 679,217 679,216 679,216 680,215 680,215 680,214 680,214 680,214 680,213 680,213 680,213 680,212 680,212 680,211 680,211 680,210 681,210 681,210 681,210 681,209 681,209 681,208 681,208 681,207 681,206 681,206 681,205 681,205 681,204 682,204 682,203 682,203 682,202 682,202 682,202 682,201 682,200 682,200 682,199 682,198 682,198 682,197 683,197 683,196 683,195 683,195 683,195 683,194 683,194 683,193 683,193 683,192 683,192 683,192 683,191 684,191 684,190 684,190 684,190 684,190 684,189 684,189 684,189 684,189 684,189 684,188 684,188 684,188 685,187 685,187 685,187 685,186 685,186 685,186 685,185 685,185 685,184 685,184 685,184 685,183 685,183 686,182 686,182 686,182 686,181 686,181 686,180 686,180 686,180 686,179 686,179 686,179 686,179 686,178 687,178 687,178 687,178 687,178 687,178 687,178 687,177 687,177 687,177 687,177 687,177 687,176 687,176 688,176 688,176 688,175 688,175 688,175 688,175 688,175 688,175 688,175 688,175 688,174 688,174 688,175 689,175 689,175 689,175 689,175 689,175 689,175 689,175 689,176 689,176 689,176 689,177 689,177 689,177 690,177 690,178 690,178 690,179 690,179 690,179 690,180 690,180 690,181 690,181 690,182 690,182 690,183 691,184 691,184 691,185 691,185 691,186 691,186 691,187 691,187 691,188 691,188 691,188 691,187 691,187 692,187 692,186 692,186 692,185 692,185 692,184 692,184 692,183 692,183 692,183 692,182 692,182 692,182 693,182 693,182 693,182 693,182 693,182 693,182 693,182 693,182 693,182 693,182 693,181 693,181 693,181 694,181 694,181 694,181 694,181 694,180 694,180 694,180 694,180 694,180 694,180 694,180 694,179 694,179 695,179 695,179 695,179 695,179 695,179 695,178 695,178 695,178 695,178 695,178 695,178 695,178 695,179 696,179 696,179 696,179 696,179 696,179 696,179 696,180 696,180 696,180 696,180 696,180 696,180 696,181 697,181 697,181 697,181 697,181 697,181 697,181 697,181 697,181 697,181 697,181 697,181 697,182 697,182 698,182 698,182 698,182 698,182 698,182 698,182 698,182 698,182 698,182 698,182 698,182 698,182 698,182 699,182 699,182 699,183 699,183 699,183 699,183 699,183 699,183 699,183 699,183 699,183 699,183 699,183 700,182 700,182 700,182 700,181 700,181 700,181 700,181 700,181 700,181 700,180 700,180 700,180 700,181 701,181 701,181 701,181 701,180 701,180 701,180 701,180 701,180 701,180 701,180 701,181 701,181 701,181 702,181 702,181 702,181 702,181 702,181 702,181 702,181 702,182 702,182 702,182 702,182 702,183 702,183 703,183 703,183 703,183 703,183 703,183 703,183 703,183 703,183 703,183 703,183 703,183 703,183 703,183 704,183 704,183 704,183 704,183 704,183 704,183 704,183 704,184 704,184 704,184 704,184 704,184 704,184 705,185 705,185 705,185 705,185 705,185 705,186 705,186 705,186 705,187 705,187 705,187 705,187 705,187 706,188 706,188 706,188 706,188 706,188 706,189 706,189 706,189 706,189 706,189 706,190 706,190 706,190 707,190 707,190 707,190 707,190 707,190 707,191 707,191 707,191 707,191 707,191 707,191 707,191 707,191 708,191 708,191 708,191 708,191 708,192 708,192 708,192 708,192 708,192 708,192 708,192 708,192 708,192 709,192 709,192 709,192 709,192 709,192 709,192 709,192 709,192 709,192 709,192 709,192 709,193 709,193 710,193 710,193 710,194 710,194 710,194 710,194 710,195 710,195 710,195 710,195 710,195 710,195 710,195 711,195 711,195 711,195 711,195 711,194 711,195 711,195 711,195 711,195 711,195 711,195 711,195 711,195 712,195 712,195 712,195 712,195 712,195 712,195 712,195 712,195 712,196 712,196 712,196 712,196 712,196 713,196 713,197 713,197 713,197 713,197 713,197 713,197 713,197 713,197 713,197 713,197 713,197 713,197 714,197 714,197 714,197 714,198 714,198 714,198 714,198 714,198 714,198 714,199 714,199 714,199 714,199 715,200 715,200 715,200 715,200 715,200 715,200 715,200 715,200 715,200 715,200 715,201 715,201 715,201 716,201 716,201 716,201 716,202 716,202 716,202 716,202 716,202 716,202 716,202 716,202 716,203 716,203 717,203 717,203 717,203 717,203 717,203 717,203 717,203 717,203 717,203 717,203 717,203 717,203 717,203 718,203 718,203 718,203 718,204 718,204 718,204 718,204 718,205 718,205 718,205 718,205 718,205 718,205 719,206 719,206 719,206 719,206 719,206 719,207 719,207 719,207 719,207 719,207 719,207 719,208 719,208 720,208 720,208 720,208 720,208 720,208 720,208 720,208 720,209 720,209 720,209 720,210 720,211 720,212 721,212 721,213 721,215 721,215 721,216 721,216 721,217 721,217 721,218 721,218 721,218 721,218 721,218 722,217 722,218 722,218 722,218 722,218 722,218 722,218 722,218 722,218 722,218 722,218 722,218 722,218 723,218 723,218 723,218 723,219 723,219 723,219 723,219 723,219 723,220 723,220 723,220 723,220 723,220 724,220 724,220 724,220 724,220 724,221 724,221 724,221 724,221 724,222 724,222 724,223 724,223 724,223 725,223 725,223 725,223 725,223 725,223 725,222 725,222 725,222 725,221 725,221 725,221 725,221 725,221 726,221 726,221 726,221 726,221 726,221 726,221 726,221 726,221 726,221 726,221 726,221 726,221 726,221 727,221 727,221 727,221 727,221 727,221 727,221 727,220 727,220 727,220 727,220 727,219 727,219 727,219 728,218 728,218 728,218 728,218 728,218 728,218 728,217 728,217 728,217 728,217 728,218 728,218 728,218 729,218 729,219 729,219 729,219 729,220 729,220 729,220 729,220 729,220 729,220 729,219 729,219 729,219 730,219 730,218 730,218 730,218 730,218 730,218 730,218 730,218 730,218 730,218 730,219 730,219 730,219 731,219 731,219 731,219 731,220 731,220 731,220 731,220 731,221 731,221 731,221 731,222 731,222 731,222 732,223 732,223 732,224 732,224 732,224 732,225 732,225 732,225 732,225 732,225 732,225 732,225 732,225 733,225 733,225 733,225 733,225 733,225 733,225 733,225 733,225 733,225 733,225 733,226 733,226 733,226 734,226 734,226 734,226 734,226 734,226 734,225 734,225 734,225 734,225 734,225 734,225 734,225 734,225 735,225 735,225 735,225 735,225 735,225 735,225 735,224 735,224 735,224 735,224 735,224 735,224 735,224 736,224 736,224 736,223 736,223 736,223 736,223 736,223 736,223 736,223 736,223 736,223 " vector-effect="non-scaling-stroke"></polyline>
</g></svg>