<?xml version="1.0" encoding="UTF-8" standalone="no"?><svg width="282.222mm" height="141.111mm" xmlns="http://www.w3.org/2000/svg" xmlns:xlink="http://www.w3.org/1999/xlink"  version="1.2" baseProfile="tiny"><g fill="none" stroke="#ff0000" stroke-linecap="round" stroke-linejoin="round" stroke-opacity="1" stroke-width="1.5" transform="matrix(1,0,0,1,0,0)">
<polyline fill="none" points="64,345 64,345 64,345 64,345 64,344 64,344 64,344 64,344 64,344 65,344 65,344 65,344 65,344 65,344 65,344 65,344 65,344 65,344 65,344 65,344 65,344 65,344 66,344 66,344 66,344 66,344 66,344 66,344 66,344 66,344 66,344 66,345 66,345 66,345 66,344 67,344 67,344 67,343 67,343 67,343 67,342 67,342 67,342 67,342 67,342 67,342 67,342 67,343 68,342 68,342 68,342 68,342 68,342 68,342 68,342 68,342 68,342 68,342 68,342 68,342 68,342 69,342 69,342 69,342 69,342 69,342 69,342 69,342 69,342 69,342 69,342 69,342 69,341 69,341 70,341 70,341 70,341 70,341 70,341 70,341 70,341 70,341 70,341 70,340 70,340 70,340 70,340 71,340 71,340 71,340 71,340 71,340 71,340 71,340 71,340 71,340 71,340 71,340 71,340 71,340 72,339 72,339 72,339 72,339 72,339 72,339 72,339 72,339 72,339 72,339 72,339 72,339 72,339 73,339 73,339 73,339 73,339 73,339 73,339 73,339 73,339 73,339 73,339 73,339 73,339 73,339 74,338 74,338 74,338 74,338 74,338 74,338 74,338 74,338 74,338 74,338 74,338 74,337 74,337 75,337 75,336 75,336 75,336 75,336 75,336 75,337 75,337 75,337 75,337 75,337 75,337 75,336 76,336 76,336 76,336 76,336 76,336 76,336 76,336 76,336 76,336 76,336 76,335 76,335 76,335 77,335 77,335 77,335 77,335 77,334 77,334 77,334 77,334 77,334 77,335 77,335 77,335 77,335 78,334 78,334 78,334 78,334 78,334 78,334 78,334 78,334 78,334 78,334 78,334 78,334 78,334 79,334 79,334 79,334 79,334 79,334 79,334 79,334 79,334 79,334 79,334 79,334 79,334 79,334 80,334 80,334 80,334 80,334 80,334 80,334 80,333 80,333 80,333 80,333 80,333 80,332 80,332 81,332 81,331 81,331 81,331 81,331 81,331 81,332 81,332 81,332 81,332 81,332 81,333 81,333 82,333 82,333 82,333 82,333 82,333 82,333 82,333 82,333 82,333 82,333 82,333 82,333 82,333 83,333 83,333 83,333 83,333 83,333 83,333 83,333 83,333 83,333 83,333 83,333 83,333 83,333 84,333 84,333 84,333 84,332 84,332 84,332 84,332 84,332 84,332 84,332 84,332 84,332 84,332 85,332 85,332 85,332 85,332 85,332 85,332 85,332 85,332 85,332 85,331 85,331 85,331 85,331 86,331 86,332 86,332 86,332 86,331 86,331 86,331 86,331 86,331 86,331 86,331 86,331 86,331 87,331 87,331 87,331 87,331 87,331 87,331 87,331 87,331 87,331 87,331 87,331 87,330 87,330 88,330 88,330 88,330 88,330 88,330 88,330 88,330 88,330 88,330 88,330 88,330 88,330 88,329 89,329 89,329 89,329 89,329 89,329 89,329 89,329 89,329 89,329 89,329 89,329 89,329 89,329 90,329 90,329 90,329 90,329 90,328 90,328 90,328 90,328 90,328 90,328 90,328 90,328 90,328 91,328 91,328 91,328 91,327 91,327 91,327 91,327 91,327 91,327 91,327 91,327 91,327 91,327 92,327 92,327 92,327 92,327 92,327 92,327 92,327 92,327 92,327 92,327 92,327 92,327 92,326 93,326 93,325 93,324 93,324 93,324 93,324 93,324 93,323 93,323 93,323 93,323 93,323 93,322 94,322 94,321 94,321 94,321 94,320 94,320 94,319 94,319 94,319 94,319 94,319 94,319 94,319 95,318 95,318 95,318 95,317 95,317 95,317 95,317 95,316 95,316 95,316 95,316 95,316 95,316 96,315 96,315 96,315 96,315 96,315 96,315 96,315 96,314 96,314 96,314 96,314 96,313 96,313 97,313 97,312 97,312 97,312 97,312 97,311 97,311 97,311 97,311 97,311 97,311 97,310 97,310 98,310 98,310 98,310 98,309 98,309 98,309 98,309 98,309 98,309 98,309 98,308 98,308 98,307 99,307 99,307 99,306 99,306 99,306 99,306 99,306 99,306 99,306 99,306 99,306 99,306 99,305 100,305 100,305 100,305 100,305 100,305 100,305 100,305 100,305 100,304 100,304 100,304 100,304 100,304 101,303 101,303 101,303 101,303 101,303 101,303 101,303 101,302 101,303 101,303 101,303 101,303 101,303 102,302 102,302 102,302 102,302 102,302 102,302 102,302 102,302 102,301 102,301 102,301 102,300 102,300 103,300 103,300 103,299 103,299 103,299 103,298 103,298 103,298 103,297 103,297 103,297 103,297 103,296 104,296 104,296 104,295 104,295 104,295 104,294 104,294 104,294 104,293 104,293 104,293 104,293 104,293 105,293 105,294 105,294 105,294 105,293 105,293 105,293 105,292 105,292 105,292 105,291 105,291 105,290 106,290 106,289 106,289 106,288 106,288 106,287 106,287 106,286 106,286 106,286 106,285 106,285 106,285 107,285 107,285 107,285 107,284 107,284 107,284 107,284 107,284 107,284 107,284 107,284 107,284 107,284 108,284 108,284 108,284 108,284 108,284 108,284 108,284 108,283 108,283 108,282 108,282 108,281 108,281 109,281 109,281 109,280 109,279 109,278 109,276 109,276 109,275 109,275 109,274 109,274 109,273 109,272 110,272 110,271 110,270 110,269 110,269 110,268 110,267 110,266 110,266 110,265 110,264 110,263 110,262 111,262 111,261 111,260 111,259 111,258 111,258 111,257 111,256 111,255 111,255 111,254 111,253 111,253 112,252 112,252 112,251 112,250 112,250 112,249 112,249 112,248 112,248 112,247 112,247 112,246 112,246 113,245 113,245 113,244 113,244 113,243 113,243 113,242 113,242 113,242 113,241 113,241 113,240 114,240 114,239 114,239 114,238 114,238 114,237 114,237 114,236 114,236 114,236 114,235 114,235 114,234 115,233 115,232 115,231 115,231 115,231 115,230 115,230 115,229 115,229 115,228 115,227 115,227 115,226 116,226 116,225 116,225 116,224 116,224 116,224 116,224 116,223 116,223 116,223 116,223 116,223 116,223 117,223 117,222 117,222 117,221 117,220 117,220 117,219 117,219 117,218 117,217 117,216 117,215 117,215 118,216 118,216 118,217 118,217 118,217 118,217 118,218 118,218 118,218 118,218 118,218 118,218 118,218 119,218 119,218 119,218 119,217 119,217 119,217 119,217 119,216 119,216 119,216 119,216 119,215 119,214 120,213 120,213 120,213 120,213 120,214 120,213 120,213 120,213 120,213 120,213 120,213 120,213 120,212 121,212 121,212 121,212 121,212 121,212 121,212 121,212 121,211 121,211 121,211 121,211 121,211 121,212 122,212 122,212 122,212 122,212 122,212 122,212 122,212 122,212 122,212 122,212 122,212 122,212 122,212 123,213 123,213 123,213 123,213 123,213 123,213 123,213 123,213 123,214 123,214 123,214 123,215 123,215 124,215 124,215 124,215 124,215 124,215 124,215 124,215 124,215 124,215 124,215 124,215 124,215 124,214 125,214 125,214 125,213 125,213 125,213 125,213 125,214 125,214 125,215 125,215 125,215 125,216 125,217 126,217 126,218 126,218 126,218 126,219 126,219 126,219 126,219 126,220 126,220 126,221 126,221 126,222 127,223 127,224 127,226 127,227 127,228 127,229 127,230 127,231 127,232 127,234 127,235 127,237 127,238 128,240 128,241 128,242 128,243 128,244 128,246 128,246 128,247 128,247 128,248 128,250 128,252 128,254 129,256 129,257 129,259 129,261 129,262 129,262 129,263 129,264 129,264 129,265 129,265 129,266 129,266 130,267 130,268 130,269 130,269 130,270 130,270 130,271 130,271 130,272 130,273 130,273 130,274 130,274 131,273 131,273 131,273 131,273 131,273 131,273 131,273 131,272 131,271 131,269 131,269 131,268 131,268 132,267 132,267 132,267 132,267 132,267 132,266 132,266 132,266 132,266 132,266 132,266 132,266 132,266 133,266 133,266 133,265 133,265 133,266 133,266 133,266 133,266 133,266 133,267 133,267 133,268 133,268 134,267 134,267 134,266 134,266 134,266 134,266 134,266 134,266 134,266 134,266 134,267 134,267 134,267 135,266 135,266 135,266 135,265 135,265 135,265 135,265 135,264 135,264 135,264 135,264 135,263 135,263 136,263 136,263 136,262 136,262 136,261 136,261 136,260 136,260 136,259 136,258 136,258 136,257 136,257 137,256 137,256 137,255 137,254 137,254 137,253 137,252 137,252 137,251 137,250 137,250 137,249 137,248 138,247 138,247 138,246 138,245 138,245 138,244 138,243 138,243 138,243 138,243 138,243 138,243 138,242 139,242 139,241 139,241 139,240 139,240 139,239 139,238 139,237 139,236 139,236 139,235 139,234 139,234 140,233 140,233 140,233 140,232 140,231 140,231 140,231 140,231 140,231 140,231 140,232 140,231 140,231 141,231 141,231 141,232 141,233 141,233 141,232 141,232 141,233 141,233 141,233 141,233 141,233 141,233 142,233 142,233 142,232 142,232 142,232 142,232 142,232 142,232 142,229 142,229 142,229 142,228 142,228 143,228 143,227 143,227 143,227 143,227 143,227 143,227 143,227 143,226 143,226 143,225 143,226 143,226 144,226 144,226 144,226 144,225 144,225 144,225 144,224 144,224 144,224 144,224 144,224 144,224 144,224 145,223 145,223 145,223 145,223 145,223 145,223 145,223 145,224 145,224 145,225 145,226 145,227 145,227 146,228 146,229 146,228 146,229 146,230 146,231 146,233 146,233 146,234 146,234 146,234 146,235 146,236 147,236 147,237 147,237 147,238 147,239 147,240 147,241 147,241 147,241 147,241 147,242 147,242 147,242 148,242 148,242 148,242 148,241 148,241 148,241 148,241 148,241 148,240 148,240 148,238 148,237 148,236 149,235 149,233 149,231 149,230 149,228 149,226 149,224 149,222 149,221 149,220 149,219 149,219 149,218 150,217 150,217 150,216 150,215 150,214 150,214 150,213 150,212 150,211 150,210 150,209 150,208 150,208 151,207 151,206 151,206 151,205 151,204 151,203 151,203 151,202 151,202 151,202 151,202 151,202 151,202 152,201 152,201 152,201 152,201 152,201 152,201 152,201 152,201 152,201 152,201 152,201 152,201 152,201 153,201 153,200 153,200 153,202 153,202 153,202 153,202 153,203 153,203 153,203 153,202 153,202 153,202 154,202 154,201 154,200 154,200 154,200 154,199 154,198 154,197 154,197 154,196 154,196 154,195 154,193 155,192 155,190 155,188 155,187 155,185 155,184 155,183 155,182 155,182 155,182 155,182 155,182 155,182 156,182 156,182 156,182 156,182 156,182 156,182 156,182 156,182 156,181 156,181 156,181 156,181 156,181 157,181 157,181 157,181 157,181 157,180 157,180 157,180 157,180 157,180 157,180 157,181 157,181 157,181 158,182 158,183 158,184 158,184 158,184 158,185 158,185 158,185 158,184 158,183 158,182 158,182 158,182 159,182 159,182 159,181 159,181 159,181 159,181 159,181 159,181 159,181 159,181 159,181 159,181 159,181 160,181 160,181 160,182 160,182 160,183 160,183 160,184 160,185 160,185 160,186 160,185 160,185 160,185 161,184 161,183 161,183 161,182 161,180 161,179 161,178 161,177 161,175 161,174 161,173 161,172 161,171 162,170 162,170 162,169 162,169 162,168 162,168 162,167 162,166 162,166 162,165 162,165 162,164 162,164 163,164 163,163 163,163 163,163 163,163 163,163 163,162 163,162 163,162 163,162 163,162 163,162 163,162 164,162 164,162 164,161 164,161 164,161 164,160 164,160 164,160 164,160 164,160 164,159 164,159 164,159 165,159 165,158 165,157 165,157 165,156 165,155 165,154 165,154 165,153 165,153 165,153 165,153 165,153 166,152 166,152 166,152 166,152 166,152 166,151 166,151 166,151 166,150 166,149 166,149 166,149 166,149 167,148 167,148 167,148 167,147 167,147 167,147 167,146 167,146 167,146 167,145 167,145 167,145 167,145 168,144 168,144 168,144 168,144 168,144 168,144 168,144 168,144 168,144 168,144 168,144 168,144 168,144 169,144 169,144 169,144 169,144 169,145 169,145 169,146 169,146 169,146 169,147 169,148 169,149 169,149 170,148 170,148 170,148 170,148 170,148 170,148 170,147 170,147 170,146 170,146 170,145 170,144 171,144 171,143 171,142 171,141 171,140 171,139 171,138 171,137 171,136 171,134 171,133 171,133 171,132 172,131 172,130 172,130 172,130 172,130 172,131 172,131 172,131 172,131 172,131 172,131 172,131 172,131 173,132 173,132 173,132 173,132 173,132 173,132 173,132 173,132 173,132 173,132 173,133 173,133 173,134 174,135 174,135 174,136 174,136 174,137 174,138 174,138 174,139 174,141 174,142 174,143 174,145 174,146 175,148 175,150 175,151 175,153 175,156 175,158 175,160 175,161 175,163 175,164 175,165 175,166 175,166 176,167 176,167 176,167 176,167 176,167 176,168 176,167 176,165 176,164 176,162 176,161 176,160 176,158 177,157 177,156 177,155 177,153 177,152 177,151 177,149 177,148 177,147 177,146 177,145 177,143 177,142 178,142 178,141 178,141 178,140 178,140 178,138 178,137 178,136 178,135 178,135 178,135 178,134 178,133 179,133 179,132 179,132 179,131 179,131 179,130 179,130 179,129 179,129 179,128 179,128 179,127 179,127 180,126 180,126 180,125 180,125 180,124 180,124 180,123 180,123 180,122 180,122 180,121 180,120 180,120 181,119 181,119 181,118 181,118 181,117 181,116 181,116 181,115 181,115 181,114 181,114 181,114 181,113 182,113 182,112 182,113 182,113 182,113 182,113 182,113 182,113 182,113 182,113 182,113 182,113 182,113 183,113 183,113 183,113 183,113 183,113 183,113 183,113 183,113 183,112 183,112 183,112 183,112 183,112 184,112 184,112 184,114 184,116 184,117 184,120 184,122 184,124 184,126 184,127 184,127 184,127 184,128 185,128 185,127 185,129 185,128 185,128 185,128 185,128 185,128 185,128 185,128 185,127 185,127 185,127 186,127 186,127 186,127 186,127 186,127 186,128 186,128 186,128 186,129 186,129 186,130 186,130 186,130 187,130 187,131 187,131 187,131 187,132 187,132 187,133 187,133 187,134 187,134 187,135 187,136 187,137 188,138 188,139 188,139 188,140 188,141 188,142 188,142 188,143 188,143 188,144 188,145 188,145 188,145 189,146 189,146 189,146 189,147 189,147 189,147 189,147 189,147 189,147 189,147 189,147 189,147 189,147 190,147 190,147 190,146 190,146 190,146 190,146 190,146 190,146 190,145 190,145 190,145 190,144 190,144 191,143 191,142 191,142 191,141 191,140 191,139 191,139 191,138 191,137 191,137 191,136 191,136 191,135 192,134 192,134 192,133 192,133 192,132 192,131 192,131 192,130 192,129 192,129 192,128 192,127 192,127 193,126 193,126 193,125 193,125 193,125 193,125 193,125 193,126 193,125 193,125 193,125 193,125 193,125 194,125 194,125 194,125 194,124 194,124 194,124 194,123 194,123 194,123 194,122 194,122 194,122 194,122 195,122 195,122 195,121 195,121 195,121 195,121 195,120 195,120 195,120 195,119 195,119 195,119 195,118 196,118 196,118 196,117 196,117 196,117 196,116 196,116 196,115 196,115 196,115 196,115 196,114 196,114 197,113 197,113 197,112 197,112 197,112 197,113 197,113 197,113 197,113 197,113 197,112 197,111 197,111 198,111 198,111 198,110 198,110 198,110 198,110 198,109 198,109 198,109 198,109 198,109 198,109 198,109 199,108 199,108 199,107 199,107 199,107 199,107 199,106 199,106 199,105 199,105 199,105 199,104 199,103 200,103 200,102 200,102 200,101 200,101 200,100 200,100 200,99 200,99 200,98 200,98 200,98 200,98 201,97 201,97 201,97 201,97 201,97 201,97 201,98 201,98 201,98 201,98 201,97 201,96 201,95 202,94 202,94 202,93 202,92 202,91 202,90 202,89 202,88 202,87 202,86 202,85 202,84 202,83 203,82 203,81 203,80 203,79 203,78 203,77 203,77 203,76 203,75 203,74 203,73 203,73 203,72 204,71 204,70 204,70 204,69 204,69 204,68 204,67 204,67 204,66 204,65 204,65 204,64 204,64 205,63 205,63 205,62 205,62 205,61 205,61 205,60 205,60 205,59 205,59 205,58 205,57 205,56 206,55 206,54 206,53 206,52 206,52 206,51 206,50 206,50 206,49 206,48 206,47 206,47 206,46 207,45 207,44 207,44 207,43 207,42 207,41 207,41 207,40 207,39 207,38 207,37 207,37 207,36 208,35 208,35 208,34 208,33 208,33 208,32 208,31 208,30 208,30 208,29 208,28 208,28 208,27 209,26 209,25 209,25 209,24 209,23 209,22 209,21 209,21 209,20 209,19 209,19 209,18 209,18 210,17 210,17 210,16 210,16 210,15 210,15 210,14 210,14 210,13 210,13 210,12 210,11 210,11 211,11 211,10 211,10 211,10 211,10 211,10 211,10 211,9 211,9 211,9 211,9 211,9 211,8 212,8 212,8 212,8 212,8 212,8 212,8 212,8 212,8 212,8 212,8 212,8 212,8 212,8 213,8 213,8 213,8 213,8 213,8 213,8 213,8 213,8 213,8 213,8 213,9 213,9 213,9 214,9 214,9 214,9 214,10 214,10 214,11 214,11 214,12 214,12 214,13 214,13 214,14 214,14 215,15 215,15 215,15 215,16 215,17 215,18 215,20 215,21 215,22 215,23 215,23 215,24 215,26 216,27 216,28 216,30 216,31 216,32 216,34 216,35 216,35 216,36 216,36 216,37 216,38 216,39 217,40 217,41 217,43 217,44 217,45 217,46 217,47 217,48 217,49 217,50 217,51 217,52 217,53 218,54 218,55 218,55 218,56 218,58 218,58 218,59 218,60 218,60 218,61 218,62 218,62 218,62 219,63 219,64 219,65 219,66 219,67 219,68 219,69 219,69 219,70 219,71 219,72 219,73 219,74 220,75 220,76 220,76 220,77 220,77 220,78 220,78 220,79 220,80 220,80 220,81 220,81 220,81 221,81 221,81 221,81 221,81 221,82 221,82 221,82 221,83 221,83 221,84 221,84 221,84 221,85 222,85 222,86 222,87 222,88 222,89 222,89 222,90 222,89 222,89 222,90 222,90 222,90 222,90 223,91 223,91 223,91 223,91 223,92 223,92 223,92 223,93 223,93 223,93 223,93 223,94 223,94 224,94 224,94 224,95 224,95 224,95 224,95 224,95 224,96 224,96 224,97 224,97 224,98 224,99 225,99 225,100 225,100 225,101 225,102 225,102 225,102 225,102 225,102 225,102 225,102 225,102 225,102 226,102 226,102 226,102 226,102 226,102 226,103 226,103 226,103 226,104 226,104 226,104 226,104 226,105 227,105 227,105 227,106 227,106 227,106 227,107 227,107 227,108 227,108 227,108 227,108 227,108 228,109 228,109 228,109 228,109 228,110 228,110 228,110 228,110 228,111 228,111 228,111 228,112 228,112 229,112 229,112 229,112 229,112 229,112 229,112 229,112 229,112 229,112 229,111 229,111 229,111 229,111 230,111 230,110 230,110 230,110 230,110 230,110 230,109 230,109 230,109 230,109 230,109 230,108 230,108 231,108 231,108 231,109 231,109 231,109 231,109 231,109 231,109 231,110 231,110 231,111 231,111 231,112 232,112 232,113 232,114 232,114 232,114 232,114 232,114 232,114 232,114 232,114 232,114 232,115 232,115 233,115 233,115 233,116 233,116 233,116 233,116 233,117 233,117 233,117 233,118 233,118 233,119 233,119 234,119 234,120 234,120 234,120 234,120 234,120 234,120 234,120 234,120 234,121 234,121 234,121 234,122 235,122 235,122 235,122 235,122 235,121 235,121 235,121 235,121 235,121 235,121 235,121 235,121 235,121 236,121 236,121 236,121 236,121 236,121 236,121 236,121 236,121 236,121 236,121 236,120 236,120 236,120 237,120 237,120 237,120 237,120 237,120 237,119 237,119 237,119 237,119 237,118 237,118 237,118 237,118 238,117 238,117 238,117 238,117 238,117 238,117 238,117 238,117 238,117 238,117 238,116 238,116 238,116 239,116 239,116 239,116 239,116 239,115 239,115 239,115 239,115 239,115 239,115 239,114 239,114 239,114 240,114 240,114 240,113 240,113 240,113 240,113 240,113 240,113 240,113 240,113 240,113 240,113 240,113 241,113 241,113 241,113 241,113 241,113 241,113 241,113 241,113 241,113 241,113 241,113 241,113 241,113 242,113 242,113 242,113 242,113 242,113 242,113 242,113 242,113 242,113 242,113 242,113 242,113 242,113 243,113 243,113 243,114 243,114 243,114 243,115 243,115 243,116 243,117 243,117 243,118 243,118 243,119 244,120 244,120 244,121 244,121 244,122 244,122 244,123 244,123 244,124 244,124 244,125 244,125 244,126 245,126 245,127 245,127 245,127 245,128 245,128 245,128 245,129 245,129 245,129 245,130 245,130 245,130 246,131 246,131 246,131 246,131 246,132 246,132 246,132 246,132 246,132 246,133 246,133 246,133 246,133 247,134 247,134 247,134 247,135 247,135 247,135 247,135 247,136 247,136 247,136 247,136 247,136 247,136 248,137 248,137 248,137 248,137 248,137 248,137 248,137 248,137 248,138 248,138 248,138 248,138 248,138 249,138 249,138 249,139 249,139 249,139 249,140 249,140 249,140 249,140 249,141 249,141 249,141 249,141 250,141 250,141 250,141 250,141 250,141 250,141 250,141 250,141 250,141 250,141 250,140 250,140 250,139 251,139 251,138 251,137 251,137 251,137 251,136 251,136 251,136 251,135 251,135 251,135 251,135 251,134 252,134 252,134 252,133 252,133 252,132 252,132 252,131 252,131 252,131 252,130 252,130 252,130 252,129 253,129 253,128 253,128 253,128 253,127 253,127 253,127 253,126 253,126 253,126 253,126 253,125 253,125 254,125 254,125 254,125 254,125 254,124 254,124 254,124 254,124 254,124 254,123 254,123 254,123 254,123 255,123 255,123 255,123 255,123 255,123 255,123 255,123 255,123 255,123 255,123 255,123 255,123 255,122 256,122 256,122 256,122 256,122 256,122 256,122 256,122 256,122 256,122 256,122 256,122 256,122 256,121 257,121 257,121 257,120 257,120 257,119 257,118 257,118 257,118 257,117 257,117 257,117 257,117 257,116 258,116 258,116 258,116 258,116 258,116 258,116 258,116 258,116 258,116 258,116 258,116 258,116 258,116 259,116 259,116 259,115 259,115 259,115 259,116 259,117 259,117 259,117 259,118 259,119 259,119 259,120 260,121 260,123 260,124 260,124 260,125 260,126 260,126 260,126 260,126 260,126 260,126 260,126 260,127 261,127 261,127 261,127 261,128 261,128 261,128 261,129 261,129 261,130 261,130 261,130 261,131 261,132 262,132 262,133 262,134 262,134 262,135 262,135 262,136 262,136 262,137 262,137 262,137 262,137 262,137 263,137 263,136 263,136 263,136 263,136 263,136 263,136 263,135 263,135 263,135 263,134 263,134 263,134 264,133 264,133 264,132 264,132 264,131 264,131 264,130 264,130 264,129 264,129 264,128 264,128 264,127 265,126 265,126 265,125 265,125 265,124 265,124 265,124 265,124 265,124 265,123 265,123 265,123 265,123 266,123 266,123 266,122 266,122 266,122 266,122 266,121 266,121 266,121 266,121 266,120 266,120 266,120 267,119 267,119 267,119 267,118 267,118 267,118 267,118 267,118 267,118 267,118 267,118 267,118 267,117 268,117 268,117 268,116 268,116 268,116 268,115 268,115 268,114 268,114 268,113 268,113 268,112 268,112 269,111 269,111 269,110 269,110 269,110 269,110 269,109 269,109 269,109 269,108 269,108 269,108 269,107 270,107 270,106 270,105 270,104 270,104 270,103 270,102 270,101 270,101 270,100 270,100 270,99 270,99 271,98 271,98 271,98 271,98 271,98 271,98 271,98 271,98 271,98 271,98 271,98 271,98 271,98 272,97 272,97 272,97 272,97 272,97 272,97 272,96 272,96 272,96 272,96 272,96 272,95 272,95 273,95 273,95 273,95 273,95 273,95 273,95 273,95 273,95 273,95 273,96 273,96 273,96 273,96 274,96 274,96 274,96 274,96 274,97 274,97 274,97 274,97 274,97 274,98 274,99 274,100 274,101 275,102 275,103 275,104 275,105 275,105 275,105 275,106 275,106 275,107 275,107 275,108 275,108 275,109 276,109 276,110 276,110 276,110 276,111 276,111 276,111 276,111 276,111 276,111 276,111 276,112 276,112 277,113 277,114 277,114 277,114 277,115 277,115 277,115 277,116 277,115 277,115 277,115 277,115 277,115 278,116 278,116 278,116 278,116 278,117 278,117 278,117 278,118 278,118 278,118 278,118 278,119 278,119 279,119 279,119 279,119 279,120 279,119 279,119 279,119 279,119 279,119 279,119 279,119 279,118 279,118 280,118 280,118 280,118 280,118 280,118 280,118 280,119 280,119 280,119 280,120 280,120 280,120 280,120 281,121 281,121 281,121 281,121 281,122 281,122 281,122 281,122 281,122 281,122 281,122 281,122 281,122 282,122 282,122 282,122 282,122 282,122 282,122 282,122 282,122 282,122 282,122 282,122 282,121 282,121 283,121 283,121 283,121 283,121 283,121 283,121 283,121 283,120 283,120 283,120 283,120 283,120 283,120 284,120 284,120 284,119 284,119 284,119 284,119 284,119 284,119 284,119 284,118 284,118 284,118 284,118 285,118 285,117 285,117 285,117 285,117 285,116 285,116 285,116 285,115 285,115 285,115 285,115 286,115 286,114 286,114 286,114 286,114 286,114 286,113 286,113 286,112 286,112 286,112 286,111 286,111 287,111 287,111 287,111 287,111 287,111 287,111 287,111 287,110 287,110 287,110 287,110 287,110 287,110 288,110 288,110 288,110 288,110 288,110 288,110 288,110 288,110 288,110 288,109 288,109 288,109 288,109 289,109 289,109 289,109 289,109 289,109 289,109 289,109 289,109 289,109 289,110 289,110 289,110 289,110 290,110 290,110 290,110 290,110 290,111 290,111 290,111 290,112 290,112 290,112 290,113 290,113 290,113 291,114 291,114 291,114 291,115 291,115 291,115 291,116 291,116 291,117 291,117 291,117 291,117 291,117 292,117 292,117 292,117 292,117 292,117 292,117 292,116 292,116 292,116 292,116 292,116 292,115 292,115 293,115 293,115 293,115 293,115 293,116 293,116 293,116 293,116 293,116 293,117 293,117 293,117 293,117 294,117 294,117 294,118 294,118 294,118 294,118 294,118 294,118 294,118 294,118 294,118 294,118 294,119 295,119 295,119 295,119 295,120 295,120 295,121 295,121 295,122 295,122 295,122 295,123 295,123 295,124 296,124 296,124 296,124 296,123 296,123 296,123 296,123 296,123 296,123 296,123 296,123 296,123 296,123 297,123 297,123 297,123 297,123 297,123 297,123 297,123 297,123 297,123 297,123 297,123 297,123 297,124 298,124 298,124 298,124 298,124 298,124 298,125 298,125 298,125 298,126 298,126 298,126 298,127 298,127 299,127 299,127 299,127 299,127 299,127 299,128 299,128 299,128 299,128 299,128 299,127 299,127 299,126 300,125 300,125 300,124 300,123 300,122 300,122 300,121 300,121 300,121 300,121 300,121 300,121 300,121 301,121 301,121 301,121 301,121 301,121 301,121 301,121 301,121 301,121 301,122 301,122 301,122 301,123 302,124 302,124 302,125 302,125 302,125 302,125 302,125 302,125 302,125 302,125 302,125 302,125 302,125 303,125 303,126 303,126 303,126 303,126 303,126 303,126 303,126 303,126 303,127 303,128 303,129 303,130 304,131 304,131 304,131 304,130 304,131 304,131 304,131 304,132 304,132 304,132 304,133 304,133 304,134 305,135 305,135 305,136 305,137 305,137 305,138 305,139 305,139 305,139 305,140 305,140 305,140 305,140 306,140 306,139 306,140 306,140 306,140 306,140 306,140 306,140 306,140 306,140 306,140 306,140 306,140 307,140 307,140 307,141 307,141 307,141 307,141 307,142 307,143 307,143 307,144 307,144 307,145 307,145 308,146 308,146 308,146 308,147 308,146 308,146 308,146 308,146 308,145 308,144 308,144 308,143 308,143 309,142 309,141 309,141 309,141 309,141 309,141 309,140 309,140 309,139 309,139 309,138 309,137 309,136 310,136 310,136 310,136 310,137 310,136 310,136 310,136 310,136 310,136 310,137 310,137 310,137 310,137 311,138 311,138 311,138 311,138 311,138 311,139 311,139 311,139 311,139 311,139 311,139 311,140 311,140 312,140 312,140 312,141 312,141 312,141 312,142 312,142 312,143 312,143 312,143 312,144 312,145 312,145 313,146 313,147 313,147 313,148 313,148 313,147 313,147 313,147 313,146 313,146 313,146 313,146 313,146 314,146 314,146 314,146 314,146 314,145 314,145 314,145 314,145 314,145 314,145 314,146 314,146 314,146 315,146 315,146 315,147 315,147 315,147 315,147 315,148 315,148 315,148 315,148 315,148 315,148 315,148 316,149 316,149 316,149 316,149 316,150 316,150 316,150 316,150 316,151 316,152 316,153 316,154 316,154 317,155 317,156 317,157 317,158 317,159 317,160 317,162 317,162 317,163 317,163 317,163 317,163 317,163 318,163 318,163 318,163 318,163 318,162 318,162 318,162 318,161 318,161 318,161 318,161 318,161 318,161 319,161 319,161 319,161 319,161 319,161 319,161 319,161 319,160 319,160 319,160 319,159 319,159 319,158 320,157 320,156 320,156 320,155 320,154 320,154 320,153 320,152 320,151 320,151 320,151 320,150 320,150 321,151 321,151 321,151 321,151 321,151 321,152 321,152 321,152 321,152 321,152 321,152 321,153 321,153 322,153 322,153 322,153 322,153 322,153 322,154 322,154 322,154 322,154 322,155 322,155 322,155 322,156 323,156 323,156 323,155 323,155 323,155 323,156 323,156 323,156 323,156 323,157 323,157 323,158 323,158 324,159 324,160 324,161 324,161 324,162 324,163 324,163 324,164 324,165 324,166 324,166 324,167 324,168 325,168 325,169 325,170 325,170 325,171 325,171 325,172 325,172 325,171 325,171 325,171 325,171 325,171 326,171 326,171 326,171 326,172 326,172 326,172 326,172 326,173 326,173 326,173 326,173 326,173 326,174 327,174 327,174 327,174 327,175 327,175 327,175 327,175 327,175 327,175 327,175 327,175 327,175 327,175 328,175 328,175 328,176 328,176 328,176 328,176 328,177 328,178 328,178 328,178 328,178 328,179 328,179 329,179 329,180 329,180 329,181 329,181 329,181 329,181 329,181 329,181 329,181 329,181 329,181 329,182 330,182 330,183 330,183 330,184 330,185 330,186 330,186 330,187 330,187 330,188 330,188 330,188 330,188 331,188 331,187 331,187 331,187 331,187 331,186 331,186 331,186 331,185 331,185 331,186 331,186 331,186 332,186 332,186 332,186 332,186 332,186 332,186 332,185 332,185 332,185 332,184 332,183 332,183 332,183 333,182 333,182 333,181 333,181 333,180 333,179 333,179 333,178 333,177 333,177 333,176 333,175 333,174 334,173 334,173 334,172 334,173 334,173 334,173 334,173 334,173 334,173 334,173 334,173 334,173 334,173 335,173 335,173 335,172 335,172 335,172 335,172 335,171 335,170 335,170 335,170 335,171 335,171 335,171 336,172 336,173 336,174 336,174 336,175 336,176 336,176 336,177 336,178 336,179 336,179 336,180 336,181 337,181 337,181 337,182 337,182 337,182 337,183 337,183 337,183 337,183 337,182 337,182 337,181 337,180 338,180 338,179 338,178 338,178 338,177 338,177 338,176 338,175 338,175 338,175 338,175 338,175 338,175 339,174 339,174 339,174 339,175 339,175 339,175 339,175 339,176 339,176 339,177 339,177 339,177 339,178 340,178 340,179 340,179 340,179 340,180 340,180 340,180 340,181 340,181 340,181 340,182 340,182 340,182 341,183 341,183 341,184 341,184 341,185 341,185 341,186 341,187 341,187 341,188 341,189 341,190 341,190 342,191 342,192 342,192 342,193 342,193 342,193 342,193 342,193 342,193 342,193 342,193 342,193 343,193 343,193 343,193 343,193 343,193 343,193 343,193 343,193 343,193 343,192 343,192 343,192 343,191 344,191 344,190 344,190 344,189 344,188 344,187 344,187 344,186 344,185 344,184 344,183 344,182 344,181 345,181 345,180 345,179 345,179 345,179 345,179 345,179 345,180 345,180 345,180 345,180 345,181 345,181 346,181 346,181 346,181 346,181 346,181 346,181 346,182 346,182 346,182 346,182 346,182 346,181 346,181 347,181 347,180 347,180 347,181 347,182 347,183 347,184 347,185 347,186 347,187 347,187 347,187 347,187 348,187 348,188 348,187 348,187 348,187 348,187 348,186 348,185 348,185 348,184 348,183 348,182 348,182 349,181 349,181 349,180 349,179 349,179 349,179 349,178 349,178 349,177 349,177 349,177 349,177 349,177 350,177 350,177 350,177 350,177 350,177 350,177 350,177 350,176 350,176 350,176 350,176 350,176 350,176 351,176 351,176 351,176 351,176 351,176 351,175 351,175 351,174 351,174 351,173 351,173 351,172 351,172 352,171 352,171 352,171 352,170 352,170 352,170 352,169 352,169 352,168 352,168 352,168 352,168 352,168 353,168 353,167 353,168 353,168 353,168 353,168 353,168 353,168 353,168 353,167 353,167 353,167 353,167 354,167 354,168 354,168 354,168 354,168 354,168 354,168 354,169 354,169 354,169 354,170 354,170 354,170 355,171 355,171 355,172 355,172 355,173 355,173 355,173 355,173 355,174 355,174 355,174 355,174 355,174 356,174 356,174 356,174 356,174 356,174 356,174 356,175 356,175 356,175 356,175 356,175 356,175 356,175 357,175 357,174 357,174 357,174 357,174 357,174 357,174 357,173 357,173 357,173 357,173 357,173 357,173 358,173 358,173 358,173 358,173 358,173 358,173 358,173 358,172 358,172 358,172 358,172 358,173 358,173 359,172 359,172 359,172 359,172 359,172 359,172 359,172 359,172 359,172 359,171 359,171 359,171 359,171 360,170 360,170 360,170 360,170 360,170 360,169 360,169 360,169 360,168 360,168 360,168 360,167 360,167 361,167 361,166 361,166 361,166 361,165 361,165 361,165 361,165 361,164 361,164 361,164 361,164 361,164 362,164 362,163 362,163 362,163 362,163 362,164 362,164 362,164 362,165 362,165 362,165 362,166 362,166 363,167 363,167 363,168 363,169 363,170 363,170 363,171 363,172 363,172 363,173 363,174 363,175 363,175 364,176 364,176 364,177 364,178 364,178 364,179 364,179 364,180 364,180 364,181 364,181 364,181 364,182 365,182 365,182 365,182 365,182 365,183 365,183 365,183 365,183 365,183 365,183 365,183 365,183 365,182 366,182 366,182 366,182 366,182 366,182 366,182 366,182 366,183 366,183 366,183 366,184 366,184 366,184 367,185 367,186 367,186 367,186 367,187 367,187 367,188 367,188 367,188 367,189 367,189 367,189 367,189 368,189 368,189 368,188 368,188 368,188 368,188 368,188 368,188 368,188 368,188 368,189 368,189 368,189 369,189 369,190 369,190 369,190 369,191 369,192 369,191 369,192 369,192 369,192 369,192 369,193 369,193 370,194 370,194 370,194 370,195 370,195 370,195 370,196 370,196 370,196 370,196 370,197 370,197 370,197 371,197 371,197 371,197 371,197 371,197 371,197 371,197 371,197 371,197 371,197 371,196 371,195 371,195 372,194 372,194 372,193 372,192 372,191 372,191 372,190 372,190 372,190 372,189 372,188 372,188 372,187 373,186 373,186 373,186 373,186 373,186 373,186 373,187 373,187 373,187 373,187 373,187 373,187 373,187 374,187 374,187 374,187 374,187 374,187 374,187 374,187 374,187 374,187 374,187 374,188 374,187 374,187 375,187 375,187 375,187 375,187 375,187 375,187 375,187 375,187 375,187 375,187 375,187 375,187 375,187 376,187 376,188 376,188 376,188 376,188 376,188 376,188 376,189 376,189 376,189 376,189 376,190 376,190 377,190 377,190 377,191 377,191 377,192 377,192 377,192 377,192 377,192 377,192 377,192 377,192 377,192 378,191 378,191 378,191 378,190 378,190 378,190 378,190 378,189 378,189 378,189 378,189 378,189 378,189 379,188 379,188 379,188 379,188 379,188 379,187 379,187 379,187 379,187 379,187 379,187 379,186 379,186 380,186 380,186 380,185 380,185 380,185 380,185 380,185 380,185 380,185 380,185 380,185 380,185 380,185 381,185 381,185 381,185 381,185 381,185 381,185 381,185 381,185 381,184 381,184 381,184 381,184 381,183 382,183 382,183 382,183 382,183 382,183 382,182 382,182 382,182 382,182 382,182 382,182 382,182 382,182 383,181 383,181 383,181 383,182 383,182 383,183 383,183 383,184 383,183 383,184 383,184 383,184 383,184 384,184 384,184 384,184 384,184 384,184 384,183 384,183 384,183 384,182 384,182 384,182 384,181 384,181 385,181 385,180 385,179 385,179 385,179 385,179 385,178 385,178 385,178 385,178 385,177 385,177 385,177 386,177 386,176 386,176 386,176 386,176 386,175 386,175 386,175 386,175 386,175 386,174 386,174 386,174 387,174 387,174 387,174 387,174 387,174 387,174 387,174 387,174 387,174 387,174 387,175 387,175 387,175 388,176 388,176 388,176 388,177 388,177 388,178 388,178 388,178 388,179 388,179 388,179 388,180 388,180 389,181 389,181 389,181 389,182 389,182 389,182 389,183 389,183 389,184 389,184 389,184 389,185 389,185 390,185 390,185 390,185 390,185 390,185 390,184 390,184 390,184 390,184 390,183 390,183 390,183 390,183 391,183 391,183 391,183 391,183 391,183 391,184 391,184 391,184 391,184 391,185 391,185 391,185 391,185 392,186 392,186 392,186 392,187 392,187 392,188 392,189 392,189 392,190 392,191 392,191 392,192 392,192 393,193 393,193 393,193 393,193 393,193 393,193 393,193 393,193 393,193 393,192 393,192 393,192 393,191 394,191 394,191 394,191 394,190 394,190 394,190 394,190 394,190 394,190 394,190 394,190 394,190 394,190 395,190 395,190 395,190 395,190 395,190 395,190 395,190 395,190 395,190 395,190 395,190 395,190 395,190 396,190 396,190 396,190 396,190 396,190 396,191 396,191 396,191 396,191 396,192 396,192 396,193 396,193 397,194 397,194 397,195 397,195 397,195 397,195 397,196 397,196 397,196 397,196 397,196 397,196 397,196 398,196 398,196 398,196 398,196 398,196 398,196 398,196 398,196 398,196 398,196 398,197 398,197 398,197 399,197 399,198 399,198 399,199 399,199 399,200 399,200 399,200 399,201 399,201 399,202 399,202 400,202 400,203 400,203 400,203 400,203 400,203 400,203 400,202 400,202 400,202 400,202 400,202 400,202 401,202 401,202 401,202 401,202 401,202 401,203 401,203 401,203 401,203 401,203 401,203 401,202 401,202 402,202 402,202 402,202 402,202 402,202 402,202 402,202 402,201 402,202 402,202 402,202 402,202 402,202 403,202 403,202 403,202 403,201 403,201 403,201 403,201 403,201 403,201 403,201 403,201 403,201 403,201 404,201 404,200 404,200 404,200 404,200 404,200 404,200 404,200 404,201 404,201 404,201 404,201 404,201 405,201 405,201 405,201 405,201 405,201 405,201 405,201 405,201 405,202 405,202 405,201 405,201 405,201 406,201 406,201 406,201 406,201 406,201 406,201 406,201 406,201 406,201 406,201 406,201 406,201 406,201 407,200 407,200 407,200 407,200 407,201 407,201 407,201 407,200 407,200 407,200 407,200 407,200 407,200 408,201 408,201 408,201 408,201 408,201 408,201 408,201 408,201 408,201 408,201 408,201 408,201 408,201 409,201 409,201 409,201 409,200 409,200 409,200 409,200 409,200 409,200 409,200 409,200 409,200 409,200 410,200 410,200 410,200 410,200 410,201 410,200 410,200 410,200 410,200 410,200 410,200 410,200 410,200 411,200 411,199 411,199 411,199 411,199 411,199 411,199 411,199 411,198 411,198 411,199 411,198 411,198 412,198 412,198 412,198 412,198 412,198 412,198 412,198 412,198 412,198 412,198 412,198 412,198 412,198 413,198 413,198 413,198 413,198 413,198 413,198 413,198 413,198 413,198 413,198 413,197 413,197 413,197 414,197 414,197 414,197 414,196 414,196 414,196 414,196 414,196 414,195 414,195 414,195 414,195 414,195 415,194 415,194 415,194 415,194 415,194 415,194 415,194 415,193 415,193 415,193 415,193 415,192 415,192 416,192 416,192 416,192 416,191 416,191 416,191 416,190 416,190 416,190 416,190 416,190 416,190 416,190 417,189 417,189 417,189 417,189 417,189 417,188 417,188 417,188 417,188 417,188 417,187 417,187 417,187 418,187 418,187 418,187 418,187 418,187 418,187 418,187 418,187 418,187 418,188 418,188 418,188 418,188 419,188 419,188 419,188 419,188 419,189 419,189 419,189 419,189 419,189 419,189 419,189 419,190 419,190 420,190 420,190 420,190 420,190 420,190 420,190 420,190 420,190 420,190 420,190 420,190 420,190 420,191 421,191 421,191 421,191 421,191 421,191 421,191 421,191 421,191 421,191 421,190 421,190 421,190 421,190 422,190 422,190 422,190 422,190 422,190 422,190 422,190 422,190 422,190 422,190 422,190 422,190 422,190 423,190 423,189 423,189 423,189 423,189 423,189 423,189 423,188 423,188 423,188 423,188 423,188 423,188 424,188 424,188 424,188 424,188 424,187 424,186 424,185 424,184 424,184 424,183 424,183 424,182 424,181 425,180 425,180 425,179 425,179 425,179 425,179 425,178 425,178 425,178 425,177 425,177 425,177 425,176 426,176 426,176 426,176 426,176 426,175 426,175 426,175 426,175 426,175 426,175 426,174 426,174 426,174 427,174 427,174 427,174 427,173 427,173 427,173 427,173 427,173 427,172 427,172 427,172 427,172 427,172 428,172 428,171 428,172 428,172 428,172 428,172 428,172 428,172 428,172 428,172 428,172 428,173 428,173 429,173 429,173 429,173 429,173 429,174 429,174 429,174 429,174 429,174 429,175 429,175 429,175 429,175 430,175 430,176 430,177 430,178 430,178 430,177 430,177 430,177 430,177 430,177 430,177 430,177 430,177 431,178 431,178 431,178 431,178 431,178 431,179 431,179 431,179 431,179 431,179 431,179 431,179 431,179 432,180 432,180 432,180 432,180 432,180 432,180 432,180 432,181 432,181 432,181 432,181 432,181 432,181 433,181 433,181 433,182 433,182 433,182 433,182 433,182 433,182 433,182 433,182 433,182 433,182 433,182 434,183 434,183 434,183 434,183 434,183 434,183 434,183 434,184 434,184 434,184 434,184 434,184 434,184 435,184 435,184 435,184 435,184 435,184 435,184 435,184 435,185 435,185 435,185 435,185 435,185 435,185 436,185 436,185 436,185 436,185 436,185 436,185 436,185 436,185 436,185 436,185 436,185 436,185 436,185 437,185 437,185 437,185 437,185 437,185 437,185 437,185 437,185 437,185 437,185 437,185 437,185 437,185 438,184 438,184 438,184 438,184 438,184 438,184 438,184 438,184 438,183 438,183 438,183 438,183 438,183 439,183 439,183 439,182 439,182 439,182 439,182 439,182 439,182 439,182 439,182 439,182 439,182 439,182 440,182 440,182 440,182 440,182 440,182 440,182 440,183 440,183 440,183 440,183 440,183 440,183 440,183 441,184 441,184 441,184 441,184 441,184 441,184 441,184 441,184 441,185 441,185 441,185 441,185 441,185 442,185 442,185 442,185 442,185 442,185 442,185 442,185 442,185 442,185 442,185 442,185 442,185 442,185 443,185 443,185 443,185 443,185 443,185 443,185 443,185 443,185 443,185 443,184 443,184 443,184 443,184 444,184 444,184 444,184 444,184 444,184 444,184 444,184 444,184 444,183 444,183 444,183 444,183 444,183 445,183 445,183 445,183 445,183 445,182 445,182 445,182 445,182 445,182 445,182 445,182 445,182 445,182 446,182 446,182 446,182 446,182 446,181 446,181 446,181 446,181 446,181 446,181 446,181 446,181 446,181 447,180 447,180 447,180 447,180 447,180 447,180 447,179 447,179 447,179 447,179 447,179 447,179 447,178 448,178 448,178 448,178 448,178 448,178 448,177 448,177 448,177 448,177 448,177 448,177 448,177 448,176 449,176 449,176 449,176 449,176 449,176 449,175 449,175 449,175 449,175 449,175 449,175 449,175 449,175 450,174 450,174 450,174 450,174 450,174 450,174 450,174 450,174 450,174 450,174 450,174 450,174 450,174 451,174 451,174 451,174 451,174 451,174 451,174 451,174 451,174 451,174 451,174 451,174 451,174 451,174 452,174 452,174 452,174 452,174 452,174 452,174 452,175 452,175 452,175 452,174 452,174 452,174 452,174 453,174 453,174 453,174 453,174 453,174 453,174 453,174 453,174 453,174 453,174 453,174 453,174 453,174 454,174 454,174 454,174 454,174 454,174 454,174 454,174 454,174 454,174 454,174 454,175 454,175 454,175 455,175 455,175 455,176 455,176 455,176 455,176 455,177 455,177 455,177 455,177 455,177 455,177 455,177 456,177 456,177 456,177 456,177 456,177 456,178 456,178 456,178 456,178 456,179 456,179 456,179 457,179 457,179 457,179 457,180 457,180 457,180 457,180 457,180 457,180 457,180 457,181 457,181 457,181 458,181 458,181 458,181 458,182 458,182 458,182 458,182 458,182 458,182 458,183 458,183 458,183 458,183 459,183 459,183 459,183 459,183 459,182 459,182 459,182 459,181 459,181 459,181 459,181 459,181 459,181 460,181 460,180 460,180 460,180 460,180 460,180 460,180 460,179 460,179 460,179 460,179 460,179 460,179 461,178 461,178 461,178 461,178 461,178 461,178 461,178 461,178 461,178 461,178 461,177 461,177 461,177 462,177 462,177 462,177 462,177 462,177 462,177 462,176 462,177 462,177 462,177 462,176 462,176 462,176 463,176 463,176 463,176 463,176 463,176 463,176 463,176 463,175 463,175 463,175 463,175 463,175 463,175 464,175 464,174 464,174 464,174 464,173 464,173 464,173 464,173 464,172 464,172 464,172 464,172 464,172 465,172 465,172 465,172 465,172 465,172 465,171 465,171 465,171 465,172 465,171 465,171 465,171 465,171 466,171 466,171 466,171 466,171 466,171 466,171 466,171 466,171 466,171 466,171 466,171 466,171 466,171 467,171 467,171 467,171 467,171 467,170 467,170 467,170 467,170 467,169 467,169 467,169 467,168 467,168 468,168 468,168 468,168 468,168 468,168 468,168 468,168 468,169 468,169 468,169 468,170 468,170 468,170 469,169 469,169 469,169 469,169 469,168 469,168 469,168 469,167 469,167 469,166 469,166 469,166 469,166 470,165 470,165 470,165 470,165 470,165 470,165 470,164 470,164 470,164 470,164 470,164 470,165 470,165 471,165 471,165 471,165 471,165 471,165 471,165 471,166 471,166 471,166 471,167 471,167 471,167 471,167 472,167 472,167 472,167 472,167 472,167 472,166 472,166 472,166 472,166 472,166 472,165 472,165 472,165 473,165 473,165 473,165 473,164 473,164 473,164 473,164 473,164 473,164 473,164 473,164 473,164 473,164 474,164 474,164 474,164 474,164 474,164 474,164 474,164 474,164 474,164 474,164 474,163 474,163 474,162 475,162 475,162 475,162 475,162 475,162 475,162 475,162 475,162 475,162 475,162 475,162 475,162 475,162 476,162 476,162 476,162 476,163 476,164 476,165 476,164 476,164 476,162 476,161 476,161 476,161 476,161 477,160 477,160 477,160 477,160 477,160 477,160 477,160 477,161 477,161 477,161 477,161 477,161 477,161 478,160 478,160 478,160 478,160 478,160 478,160 478,161 478,161 478,161 478,161 478,161 478,161 478,161 479,161 479,161 479,160 479,160 479,159 479,159 479,159 479,159 479,159 479,159 479,159 479,159 479,159 480,159 480,159 480,159 480,159 480,158 480,158 480,158 480,158 480,158 480,158 480,158 480,157 480,157 481,157 481,156 481,156 481,156 481,155 481,155 481,155 481,155 481,155 481,154 481,154 481,154 481,154 482,154 482,154 482,153 482,153 482,153 482,153 482,152 482,152 482,152 482,152 482,152 482,152 482,152 483,152 483,151 483,151 483,151 483,151 483,151 483,151 483,150 483,150 483,150 483,150 483,150 483,150 484,150 484,150 484,150 484,149 484,149 484,149 484,149 484,149 484,149 484,149 484,148 484,148 484,148 485,148 485,147 485,147 485,147 485,147 485,147 485,146 485,146 485,145 485,145 485,144 485,144 485,143 486,143 486,142 486,141 486,141 486,140 486,140 486,140 486,140 486,140 486,141 486,141 486,141 486,141 487,142 487,142 487,142 487,142 487,142 487,143 487,143 487,143 487,143 487,143 487,143 487,143 487,143 488,143 488,143 488,143 488,143 488,143 488,143 488,143 488,143 488,143 488,142 488,142 488,142 488,142 489,142 489,141 489,141 489,141 489,141 489,141 489,140 489,140 489,140 489,140 489,140 489,140 489,139 490,139 490,139 490,139 490,139 490,139 490,139 490,139 490,139 490,139 490,139 490,139 490,139 490,139 491,139 491,139 491,139 491,139 491,139 491,139 491,139 491,139 491,139 491,139 491,139 491,138 491,138 492,138 492,138 492,138 492,138 492,137 492,137 492,137 492,137 492,137 492,137 492,137 492,136 492,136 493,136 493,136 493,136 493,136 493,136 493,135 493,135 493,135 493,135 493,135 493,134 493,134 493,133 494,133 494,132 494,132 494,131 494,131 494,130 494,130 494,129 494,129 494,128 494,128 494,127 494,127 495,127 495,127 495,127 495,127 495,127 495,127 495,127 495,126 495,126 495,126 495,125 495,125 495,125 496,125 496,124 496,124 496,124 496,124 496,123 496,123 496,123 496,123 496,122 496,122 496,122 496,122 497,121 497,121 497,121 497,121 497,120 497,120 497,120 497,119 497,119 497,119 497,119 497,118 497,118 498,118 498,117 498,117 498,116 498,116 498,116 498,115 498,115 498,114 498,114 498,113 498,113 498,112 499,112 499,112 499,111 499,111 499,111 499,110 499,110 499,109 499,109 499,108 499,107 499,106 499,106 500,107 500,107 500,107 500,107 500,107 500,108 500,108 500,108 500,108 500,108 500,108 500,109 500,109 501,109 501,109 501,109 501,110 501,110 501,110 501,110 501,110 501,111 501,111 501,111 501,111 501,111 502,112 502,112 502,112 502,112 502,113 502,113 502,113 502,114 502,114 502,114 502,114 502,114 502,115 503,115 503,115 503,115 503,115 503,115 503,116 503,116 503,116 503,116 503,116 503,116 503,116 503,116 504,116 504,116 504,116 504,116 504,116 504,117 504,116 504,116 504,117 504,117 504,117 504,117 504,117 505,117 505,118 505,118 505,118 505,118 505,118 505,118 505,118 505,119 505,119 505,119 505,120 505,120 506,120 506,121 506,121 506,121 506,122 506,122 506,122 506,123 506,123 506,123 506,124 506,124 506,124 507,125 507,125 507,125 507,125 507,126 507,126 507,126 507,126 507,126 507,126 507,127 507,127 507,127 508,127 508,127 508,127 508,127 508,128 508,128 508,128 508,128 508,128 508,128 508,128 508,129 508,129 509,129 509,129 509,129 509,129 509,130 509,130 509,130 509,130 509,130 509,131 509,131 509,131 509,131 510,131 510,131 510,131 510,131 510,131 510,132 510,132 510,132 510,132 510,132 510,133 510,133 510,133 511,133 511,133 511,133 511,133 511,133 511,134 511,134 511,134 511,134 511,134 511,134 511,134 511,134 512,134 512,134 512,134 512,134 512,134 512,134 512,134 512,134 512,134 512,134 512,134 512,134 512,135 513,135 513,135 513,135 513,135 513,135 513,135 513,135 513,135 513,135 513,134 513,134 513,134 513,134 514,134 514,134 514,134 514,134 514,134 514,134 514,134 514,134 514,134 514,134 514,135 514,135 515,135 515,135 515,135 515,135 515,135 515,135 515,135 515,135 515,135 515,135 515,136 515,136 515,136 516,136 516,136 516,136 516,136 516,136 516,136 516,136 516,136 516,137 516,137 516,137 516,137 516,137 517,138 517,138 517,138 517,138 517,138 517,138 517,139 517,139 517,139 517,139 517,139 517,139 517,139 518,138 518,138 518,138 518,138 518,138 518,138 518,138 518,138 518,138 518,138 518,138 518,138 518,138 519,138 519,138 519,138 519,138 519,138 519,138 519,139 519,139 519,139 519,139 519,139 519,140 519,140 520,140 520,140 520,141 520,141 520,141 520,142 520,142 520,142 520,143 520,143 520,143 520,143 520,144 521,144 521,145 521,145 521,146 521,146 521,146 521,147 521,147 521,147 521,147 521,147 521,148 521,148 522,148 522,148 522,149 522,149 522,149 522,149 522,149 522,149 522,150 522,150 522,150 522,150 522,150 523,150 523,151 523,151 523,151 523,152 523,152 523,152 523,153 523,153 523,153 523,153 523,153 523,153 524,153 524,153 524,154 524,154 524,154 524,154 524,154 524,155 524,155 524,155 524,155 524,155 524,155 525,155 525,156 525,156 525,156 525,156 525,157 525,157 525,157 525,157 525,158 525,158 525,158 525,158 526,159 526,159 526,159 526,159 526,159 526,159 526,159 526,160 526,160 526,160 526,160 526,160 526,160 527,161 527,161 527,161 527,160 527,160 527,160 527,161 527,161 527,161 527,161 527,161 527,161 527,161 528,161 528,162 528,162 528,162 528,162 528,162 528,162 528,162 528,162 528,162 528,162 528,162 528,162 529,162 529,163 529,163 529,163 529,163 529,163 529,163 529,164 529,164 529,164 529,165 529,165 529,165 530,165 530,165 530,166 530,166 530,166 530,166 530,166 530,167 530,167 530,167 530,167 530,167 530,167 531,167 531,167 531,168 531,168 531,168 531,169 531,169 531,169 531,169 531,170 531,170 531,170 531,170 532,170 532,170 532,169 532,169 532,169 532,170 532,170 532,169 532,169 532,169 532,169 532,169 532,169 533,169 533,169 533,168 533,168 533,168 533,168 533,168 533,168 533,168 533,167 533,167 533,167 533,168 534,167 534,167 534,167 534,167 534,167 534,167 534,167 534,167 534,167 534,167 534,167 534,167 534,167 535,167 535,167 535,167 535,167 535,167 535,168 535,168 535,168 535,168 535,168 535,168 535,169 535,169 536,169 536,170 536,170 536,170 536,170 536,171 536,171 536,172 536,172 536,172 536,172 536,172 536,173 537,173 537,173 537,174 537,174 537,174 537,174 537,175 537,175 537,176 537,176 537,176 537,176 537,177 538,177 538,177 538,177 538,177 538,178 538,178 538,178 538,178 538,178 538,178 538,178 538,178 538,178 539,178 539,178 539,178 539,178 539,178 539,178 539,178 539,178 539,178 539,178 539,178 539,178 539,178 540,178 540,178 540,178 540,178 540,178 540,178 540,178 540,177 540,177 540,177 540,177 540,177 540,177 541,177 541,177 541,177 541,176 541,176 541,176 541,176 541,176 541,177 541,177 541,177 541,178 541,178 542,178 542,178 542,178 542,178 542,177 542,177 542,177 542,177 542,177 542,177 542,177 542,177 542,177 543,177 543,177 543,177 543,177 543,177 543,177 543,177 543,177 543,177 543,177 543,177 543,177 543,177 544,177 544,177 544,177 544,176 544,176 544,177 544,177 544,176 544,176 544,176 544,176 544,176 544,176 545,177 545,177 545,177 545,176 545,176 545,175 545,175 545,175 545,175 545,176 545,175 545,175 545,176 546,176 546,176 546,175 546,175 546,175 546,175 546,175 546,175 546,175 546,175 546,175 546,175 546,175 547,175 547,175 547,175 547,175 547,175 547,174 547,174 547,174 547,174 547,174 547,174 547,174 547,173 548,173 548,173 548,173 548,173 548,173 548,173 548,173 548,172 548,172 548,172 548,172 548,172 548,172 549,172 549,172 549,172 549,172 549,172 549,172 549,172 549,172 549,172 549,172 549,172 549,172 549,172 550,172 550,172 550,172 550,172 550,172 550,172 550,172 550,171 550,171 550,171 550,171 550,171 550,171 551,171 551,171 551,171 551,171 551,171 551,171 551,171 551,171 551,170 551,170 551,170 551,170 551,170 552,170 552,170 552,170 552,170 552,169 552,169 552,169 552,169 552,169 552,169 552,169 552,169 552,169 553,169 553,169 553,169 553,169 553,169 553,169 553,169 553,169 553,169 553,169 553,169 553,169 553,169 554,169 554,169 554,169 554,169 554,169 554,169 554,169 554,169 554,169 554,169 554,169 554,169 554,169 555,169 555,169 555,169 555,169 555,169 555,169 555,169 555,169 555,169 555,169 555,169 555,169 555,169 556,169 556,169 556,169 556,169 556,169 556,169 556,169 556,169 556,169 556,169 556,169 556,168 556,168 557,168 557,168 557,168 557,169 557,169 557,169 557,169 557,169 557,169 557,169 557,169 557,169 557,168 558,168 558,168 558,168 558,168 558,167 558,167 558,167 558,167 558,167 558,167 558,167 558,167 558,167 559,167 559,167 559,166 559,166 559,166 559,166 559,166 559,166 559,166 559,166 559,166 559,166 559,166 560,166 560,166 560,166 560,165 560,165 560,165 560,164 560,164 560,164 560,164 560,164 560,164 560,164 561,164 561,163 561,163 561,163 561,163 561,162 561,162 561,162 561,162 561,162 561,162 561,162 561,161 562,161 562,161 562,161 562,162 562,162 562,162 562,162 562,162 562,162 562,162 562,161 562,161 562,161 563,161 563,161 563,161 563,161 563,161 563,161 563,161 563,161 563,161 563,161 563,161 563,160 563,160 564,160 564,160 564,160 564,160 564,160 564,160 564,159 564,159 564,159 564,159 564,159 564,159 564,159 565,159 565,159 565,159 565,160 565,160 565,160 565,160 565,159 565,159 565,158 565,158 565,158 565,158 566,158 566,158 566,158 566,158 566,158 566,157 566,157 566,157 566,157 566,157 566,157 566,157 566,157 567,157 567,157 567,156 567,156 567,156 567,156 567,156 567,156 567,156 567,156 567,156 567,156 567,156 568,155 568,155 568,155 568,155 568,155 568,155 568,155 568,155 568,155 568,155 568,155 568,155 568,155 569,155 569,155 569,155 569,155 569,155 569,155 569,156 569,156 569,156 569,156 569,157 569,157 569,157 570,157 570,157 570,158 570,158 570,158 570,158 570,159 570,159 570,159 570,160 570,160 570,160 570,161 571,161 571,161 571,162 571,162 571,162 571,163 571,163 571,163 571,163 571,164 571,164 571,164 572,165 572,165 572,165 572,166 572,166 572,166 572,167 572,167 572,167 572,167 572,168 572,168 572,168 573,169 573,169 573,169 573,169 573,169 573,170 573,170 573,170 573,170 573,170 573,170 573,171 573,171 574,171 574,171 574,172 574,172 574,172 574,172 574,172 574,172 574,172 574,173 574,173 574,173 574,173 575,173 575,173 575,173 575,173 575,174 575,174 575,174 575,174 575,174 575,174 575,174 575,175 575,175 576,175 576,175 576,175 576,175 576,176 576,176 576,176 576,176 576,176 576,176 576,177 576,177 576,177 577,177 577,177 577,178 577,178 577,178 577,179 577,179 577,180 577,180 577,181 577,182 577,182 577,182 578,182 578,182 578,182 578,182 578,182 578,182 578,182 578,182 578,182 578,183 578,183 578,183 578,184 579,184 579,184 579,185 579,185 579,185 579,185 579,185 579,186 579,186 579,186 579,186 579,186 579,186 580,186 580,186 580,185 580,185 580,185 580,185 580,185 580,185 580,185 580,185 580,185 580,184 580,184 581,184 581,184 581,183 581,183 581,183 581,183 581,183 581,183 581,183 581,183 581,183 581,183 581,183 582,182 582,183 582,182 582,182 582,182 582,183 582,183 582,183 582,183 582,183 582,183 582,183 582,183 583,183 583,183 583,183 583,183 583,183 583,183 583,184 583,184 583,184 583,184 583,185 583,185 583,185 584,186 584,186 584,186 584,187 584,187 584,187 584,188 584,188 584,188 584,189 584,189 584,190 584,190 585,190 585,190 585,189 585,189 585,190 585,190 585,190 585,191 585,191 585,190 585,191 585,191 585,191 586,192 586,192 586,193 586,193 586,194 586,194 586,195 586,196 586,197 586,197 586,198 586,199 586,199 587,200 587,201 587,201 587,201 587,202 587,202 587,203 587,203 587,204 587,204 587,205 587,205 587,205 588,206 588,206 588,207 588,207 588,207 588,208 588,208 588,208 588,207 588,207 588,207 588,207 588,207 589,207 589,206 589,206 589,205 589,205 589,205 589,205 589,205 589,205 589,205 589,205 589,205 589,205 590,204 590,204 590,204 590,204 590,204 590,204 590,204 590,204 590,204 590,204 590,204 590,204 590,204 591,204 591,204 591,205 591,205 591,205 591,206 591,206 591,207 591,207 591,208 591,208 591,208 591,208 592,208 592,207 592,207 592,206 592,206 592,205 592,205 592,204 592,204 592,204 592,204 592,203 592,203 593,202 593,202 593,201 593,201 593,201 593,200 593,200 593,199 593,199 593,199 593,198 593,198 593,197 594,197 594,196 594,196 594,196 594,196 594,195 594,195 594,195 594,195 594,195 594,195 594,196 594,196 595,196 595,196 595,196 595,196 595,196 595,196 595,197 595,197 595,197 595,197 595,197 595,197 595,197 596,196 596,196 596,196 596,196 596,196 596,196 596,197 596,197 596,197 596,198 596,198 596,199 596,200 597,200 597,201 597,202 597,203 597,204 597,205 597,206 597,207 597,208 597,208 597,209 597,210 597,211 598,211 598,212 598,213 598,214 598,215 598,215 598,216 598,217 598,217 598,218 598,218 598,218 598,219 599,219 599,219 599,220 599,220 599,220 599,221 599,221 599,221 599,222 599,222 599,222 599,223 599,223 600,223 600,223 600,223 600,224 600,224 600,223 600,222 600,222 600,221 600,221 600,221 600,220 600,220 601,220 601,220 601,220 601,220 601,220 601,220 601,220 601,221 601,221 601,221 601,221 601,222 601,222 602,222 602,223 602,223 602,223 602,224 602,224 602,225 602,225 602,226 602,226 602,226 602,226 602,227 603,227 603,227 603,226 603,226 603,226 603,225 603,225 603,225 603,225 603,225 603,226 603,226 603,226 604,226 604,226 604,227 604,227 604,227 604,227 604,227 604,227 604,228 604,228 604,228 604,228 604,228 605,228 605,229 605,229 605,229 605,229 605,229 605,229 605,229 605,229 605,229 605,229 605,229 605,229 606,229 606,229 606,229 606,229 606,230 606,230 606,230 606,230 606,230 606,230 606,230 606,230 606,230 607,230 607,230 607,230 607,230 607,230 607,231 607,231 607,231 607,231 607,231 607,231 607,231 607,230 608,229 608,228 608,228 608,227 608,227 608,227 608,226 608,226 608,225 608,225 608,225 608,225 608,225 609,225 609,225 609,225 609,225 609,225 609,225 609,225 609,226 609,226 609,226 609,227 609,227 609,227 610,227 610,227 610,228 610,228 610,228 610,228 610,228 610,227 610,227 610,226 610,226 610,225 610,225 611,224 611,224 611,224 611,224 611,223 611,223 611,223 611,223 611,222 611,222 611,222 611,222 611,222 612,222 612,222 612,222 612,222 612,222 612,223 612,223 612,223 612,223 612,224 612,224 612,224 612,224 613,225 613,225 613,225 613,226 613,226 613,226 613,226 613,226 613,226 613,226 613,227 613,226 613,226 614,226 614,226 614,226 614,226 614,225 614,225 614,225 614,224 614,224 614,224 614,224 614,224 614,224 615,224 615,223 615,223 615,223 615,223 615,223 615,223 615,223 615,223 615,223 615,223 615,223 615,224 616,224 616,224 616,225 616,225 616,226 616,226 616,226 616,226 616,226 616,227 616,227 616,228 616,228 617,228 617,228 617,229 617,229 617,229 617,230 617,230 617,230 617,231 617,231 617,231 617,232 617,232 618,232 618,232 618,233 618,233 618,233 618,233 618,234 618,234 618,234 618,234 618,234 618,234 618,235 619,235 619,235 619,235 619,235 619,235 619,235 619,235 619,235 619,235 619,236 619,236 619,236 619,236 620,236 620,236 620,236 620,236 620,236 620,237 620,237 620,237 620,237 620,237 620,237 620,237 620,238 621,238 621,238 621,238 621,238 621,238 621,238 621,238 621,238 621,238 621,238 621,238 621,238 621,238 622,238 622,237 622,237 622,237 622,237 622,236 622,236 622,236 622,235 622,235 622,235 622,235 622,234 623,234 623,234 623,234 623,234 623,234 623,233 623,233 623,233 623,233 623,233 623,233 623,233 623,233 624,233 624,233 624,233 624,233 624,233 624,233 624,233 624,233 624,233 624,233 624,233 624,233 624,233 625,233 625,233 625,233 625,233 625,233 625,233 625,233 625,233 625,234 625,234 625,234 625,234 625,234 626,234 626,234 626,235 626,235 626,235 626,235 626,236 626,236 626,237 626,237 626,237 626,238 626,238 627,238 627,239 627,239 627,239 627,240 627,240 627,240 627,240 627,241 627,241 627,241 627,241 627,241 628,242 628,242 628,242 628,242 628,243 628,243 628,243 628,243 628,243 628,243 628,243 628,243 629,243 629,243 629,244 629,244 629,244 629,244 629,244 629,244 629,244 629,244 629,244 629,244 629,244 630,243 630,243 630,242 630,242 630,241 630,241 630,240 630,240 630,239 630,239 630,238 630,238 630,237 631,237 631,236 631,236 631,236 631,236 631,235 631,235 631,235 631,235 631,234 631,234 631,234 631,234 632,234 632,233 632,233 632,233 632,233 632,232 632,232 632,232 632,232 632,231 632,231 632,231 632,231 633,230 633,230 633,230 633,230 633,230 633,229 633,229 633,229 633,229 633,229 633,229 633,228 633,228 634,228 634,228 634,228 634,227 634,227 634,227 634,227 634,227 634,227 634,227 634,227 634,227 634,227 635,228 635,228 635,228 635,229 635,229 635,229 635,230 635,230 635,231 635,231 635,232 635,232 635,233 636,233 636,233 636,234 636,234 636,235 636,235 636,235 636,236 636,236 636,237 636,237 636,237 636,238 637,238 637,239 637,239 637,239 637,240 637,240 637,240 637,241 637,241 637,242 637,242 637,242 637,243 638,243 638,243 638,243 638,244 638,244 638,244 638,244 638,244 638,244 638,243 638,243 638,243 638,242 639,242 639,242 639,242 639,242 639,242 639,242 639,242 639,242 639,242 639,242 639,242 639,241 639,241 640,241 640,241 640,241 640,241 640,240 640,240 640,240 640,240 640,239 640,239 640,239 640,239 640,239 641,239 641,239 641,239 641,239 641,240 641,240 641,240 641,240 641,241 641,241 641,241 641,241 641,242 642,242 642,242 642,243 642,243 642,244 642,244 642,244 642,245 642,245 642,246 642,247 642,247 642,248 643,248 643,249 643,249 643,249 643,249 643,249 643,248 643,248 643,248 643,247 643,247 643,246 643,246 644,245 644,245 644,244 644,244 644,243 644,242 644,242 644,241 644,240 644,240 644,239 644,239 644,238 645,238 645,237 645,237 645,237 645,236 645,236 645,236 645,235 645,235 645,235 645,235 645,235 645,234 646,234 646,234 646,234 646,234 646,234 646,234 646,233 646,233 646,233 646,233 646,233 646,233 646,233 647,232 647,232 647,232 647,232 647,232 647,232 647,232 647,232 647,232 647,233 647,233 647,233 647,233 648,233 648,233 648,233 648,234 648,234 648,234 648,234 648,234 648,234 648,234 648,234 648,234 648,234 649,234 649,234 649,234 649,234 649,234 649,234 649,234 649,234 649,235 649,235 649,235 649,235 649,235 650,235 650,235 650,235 650,235 650,235 650,235 650,235 650,234 650,234 650,234 650,234 650,233 650,233 651,233 651,233 651,232 651,232 651,231 651,231 651,230 651,230 651,230 651,230 651,230 651,230 651,230 652,230 652,230 652,230 652,230 652,229 652,229 652,229 652,229 652,229 652,229 652,229 652,229 652,229 653,229 653,229 653,229 653,229 653,229 653,229 653,229 653,229 653,229 653,229 653,230 653,230 653,230 654,230 654,230 654,230 654,230 654,230 654,230 654,230 654,230 654,230 654,230 654,230 654,230 654,231 655,231 655,231 655,232 655,232 655,232 655,232 655,233 655,233 655,233 655,234 655,234 655,234 655,235 656,235 656,235 656,236 656,236 656,236 656,237 656,237 656,237 656,237 656,238 656,238 656,238 656,239 657,239 657,239 657,240 657,240 657,240 657,241 657,241 657,242 657,242 657,243 657,243 657,243 657,244 658,244 658,245 658,245 658,246 658,246 658,247 658,247 658,248 658,248 658,249 658,249 658,250 658,250 659,251 659,251 659,251 659,252 659,252 659,253 659,253 659,254 659,254 659,254 659,255 659,255 659,255 660,255 660,255 660,256 660,256 660,256 660,256 660,257 660,257 660,257 660,257 660,258 660,258 660,258 661,259 661,259 661,259 661,260 661,260 661,260 661,260 661,260 661,260 661,261 661,261 661,261 661,261 662,261 662,261 662,261 662,261 662,261 662,260 662,260 662,260 662,259 662,258 662,258 662,257 662,257 663,256 663,256 663,255 663,255 663,254 663,254 663,253 663,253 663,253 663,252 663,252 663,251 663,251 664,250 664,250 664,250 664,249 664,249 664,249 664,249 664,249 664,248 664,248 664,248 664,248 664,248 665,248 665,248 665,248 665,248 665,248 665,248 665,248 665,248 665,248 665,247 665,247 665,247 665,247 666,247 666,247 666,247 666,247 666,247 666,247 666,247 666,246 666,246 666,246 666,246 666,245 666,245 667,244 667,244 667,244 667,243 667,243 667,242 667,242 667,242 667,241 667,241 667,241 667,241 667,241 668,242 668,242 668,242 668,242 668,243 668,243 668,243 668,244 668,244 668,244 668,245 668,245 668,245 669,246 669,246 669,247 669,247 669,247 669,248 669,248 669,249 669,249 669,250 669,250 669,250 669,250 670,251 670,251 670,251 670,251 670,251 670,252 670,252 670,252 670,252 670,252 670,252 670,252 670,253 671,253 671,253 671,253 671,254 671,254 671,254 671,254 671,255 671,255 671,255 671,255 671,256 671,256 672,257 672,257 672,257 672,257 672,257 672,258 672,258 672,258 672,258 672,259 672,259 672,259 672,259 673,260 673,260 673,260 673,260 673,261 673,261 673,261 673,261 673,261 673,261 673,262 673,262 673,262 674,262 674,263 674,263 674,263 674,264 674,264 674,264 674,264 674,264 674,264 674,264 674,264 674,263 675,263 675,263 675,263 675,263 675,263 675,263 675,263 675,262 675,262 675,262 675,262 675,262 675,262 676,262 676,263 676,263 676,263 676,263 676,263 676,264 676,264 676,264 676,265 676,265 676,266 676,266 677,266 677,266 677,266 677,266 677,266 677,266 677,266 677,266 677,267 677,267 677,266 677,267 677,266 678,266 678,266 678,266 678,266 678,266 678,265 678,265 678,265 678,265 678,265 678,265 678,265 678,265 679,265 679,265 679,265 679,265 679,265 679,265 679,265 679,264 679,264 679,264 679,264 679,264 679,263 680,263 680,263 680,263 680,263 680,263 680,262 680,262 680,262 680,262 680,261 680,261 680,260 680,260 681,260 681,259 681,259 681,258 681,258 681,257 681,257 681,256 681,256 681,255 681,254 681,254 681,253 682,252 682,252 682,251 682,250 682,249 682,249 682,248 682,247 682,247 682,246 682,245 682,245 682,244 683,244 683,244 683,243 683,243 683,242 683,242 683,242 683,241 683,240 683,240 683,239 683,239 683,238 684,238 684,238 684,237 684,236 684,236 684,235 684,235 684,234 684,233 684,233 684,232 684,231 684,230 685,229 685,228 685,227 685,226 685,225 685,224 685,223 685,222 685,221 685,220 685,219 685,218 686,217 686,216 686,214 686,213 686,212 686,211 686,210 686,209 686,208 686,207 686,207 686,206 686,206 687,205 687,204 687,203 687,203 687,202 687,202 687,202 687,201 687,201 687,201 687,201 687,201 687,201 688,202 688,202 688,202 688,202 688,202 688,202 688,201 688,201 688,201 688,200 688,200 688,200 688,199 689,199 689,198 689,198 689,198 689,197 689,197 689,196 689,196 689,196 689,195 689,195 689,194 689,193 690,193 690,193 690,192 690,192 690,192 690,192 690,192 690,192 690,192 690,192 690,192 690,192 690,192 691,192 691,193 691,193 691,193 691,194 691,194 691,194 691,195 691,195 691,196 691,196 691,196 691,197 692,197 692,198 692,199 692,199 692,200 692,200 692,201 692,201 692,202 692,203 692,204 692,204 692,205 693,205 693,206 693,206 693,207 693,207 693,208 693,208 693,209 693,209 693,210 693,210 693,210 693,210 694,210 694,210 694,210 694,209 694,209 694,209 694,209 694,209 694,208 694,208 694,208 694,208 694,208 695,208 695,208 695,208 695,208 695,209 695,209 695,209 695,209 695,209 695,209 695,210 695,210 695,210 696,210 696,210 696,210 696,209 696,209 696,209 696,208 696,207 696,207 696,206 696,206 696,205 696,204 697,204 697,203 697,203 697,202 697,201 697,201 697,200 697,199 697,199 697,198 697,198 697,197 697,197 698,196 698,195 698,195 698,194 698,194 698,193 698,193 698,193 698,192 698,192 698,191 698,191 698,191 699,191 699,191 699,190 699,190 699,190 699,190 699,190 699,190 699,190 699,190 699,190 699,189 699,189 700,189 700,189 700,189 700,188 700,188 700,188 700,188 700,188 700,188 700,187 700,187 700,187 700,187 701,187 701,187 701,187 701,187 701,187 701,187 701,187 701,187 701,188 701,188 701,188 701,188 701,189 702,189 702,189 702,189 702,189 702,190 702,190 702,190 702,190 702,191 702,191 702,191 702,191 702,191 703,192 703,192 703,192 703,192 703,192 703,193 703,193 703,193 703,193 703,193 703,193 703,194 703,194 704,194 704,194 704,194 704,194 704,195 704,195 704,195 704,195 704,195 704,195 704,196 704,196 704,196 705,196 705,196 705,196 705,196 705,196 705,197 705,197 705,197 705,197 705,198 705,198 705,198 705,198 706,198 706,199 706,199 706,199 706,199 706,200 706,200 706,200 706,201 706,201 706,201 706,201 706,201 707,201 707,201 707,201 707,202 707,202 707,202 707,202 707,202 707,202 707,202 707,202 707,202 707,202 708,202 708,202 708,203 708,203 708,203 708,203 708,203 708,203 708,203 708,204 708,204 708,204 708,204 709,204 709,204 709,204 709,204 709,204 709,204 709,204 709,204 709,205 709,205 709,205 709,205 709,205 710,205 710,205 710,205 710,205 710,205 710,205 710,205 710,205 710,205 710,205 710,205 710,205 710,205 711,205 711,205 711,205 711,205 711,206 711,206 711,206 711,206 711,206 711,206 711,206 711,206 711,207 712,207 712,207 712,207 712,207 712,207 712,207 712,207 712,207 712,207 712,207 712,207 712,206 712,206 713,206 713,206 713,206 713,206 713,207 713,207 713,207 713,207 713,207 713,207 713,208 713,208 713,208 714,208 714,208 714,208 714,208 714,208 714,209 714,209 714,209 714,209 714,209 714,209 714,209 714,209 715,209 715,209 715,209 715,209 715,210 715,210 715,210 715,211 715,211 715,211 715,211 715,212 715,212 716,212 716,213 716,213 716,214 716,214 716,215 716,215 716,216 716,216 716,216 716,217 716,217 716,218 717,218 717,218 717,218 717,219 717,219 717,219 717,219 717,220 717,219 717,219 717,219 717,219 717,219 718,219 718,218 718,218 718,218 718,218 718,219 718,219 718,219 718,220 718,220 718,220 718,221 718,221 719,222 719,222 719,222 719,222 719,222 719,222 719,222 719,222 719,222 719,222 719,222 719,222 719,222 720,222 720,222 720,222 720,222 720,223 720,223 720,223 720,223 720,224 720,224 720,224 720,225 720,225 721,225 721,225 721,225 721,225 721,225 721,225 721,225 721,225 721,225 721,225 721,225 721,224 721,224 722,224 722,223 722,223 722,223 722,222 722,222 722,222 722,222 722,222 722,221 722,221 722,221 722,221 723,221 723,221 723,221 723,221 723,221 723,221 723,221 723,221 723,221 723,221 723,221 723,221 723,221 724,221 724,221 724,221 724,221 724,221 724,221 724,220 724,220 724,220 724,219 724,219 724,219 724,219 725,219 725,218 725,218 725,218 725,218 725,218 725,218 725,217 725,217 725,217 725,217 725,216 725,216 726,216 726,215 726,215 726,214 726,214 726,214 726,213 726,213 726,213 726,213 726,212 726,212 726,212 727,212 727,212 727,212 727,211 727,211 727,211 727,211 727,211 727,211 727,211 727,211 727,210 727,210 728,210 728,210 728,210 728,210 728,210 728,210 728,210 728,210 728,210 728,210 728,210 728,210 728,210 729,211 729,211 729,211 729,211 729,211 729,212 729,212 729,212 729,212 729,212 729,212 729,212 729,212 730,213 730,213 730,213 730,213 730,213 730,213 730,214 730,214 730,214 730,214 730,214 730,214 730,214 731,215 731,215 731,215 731,216 731,216 731,217 731,217 731,218 731,218 731,219 731,220 731,220 731,221 732,221 732,222 732,222 732,222 732,222 732,222 732,222 732,221 732,220 732,219 732,219 732,218 732,218 733,218 733,218 733,218 733,217 733,217 733,217 733,217 733,217 733,216 733,216 733,216 733,216 733,216 734,215 734,215 734,215 734,215 734,215 734,215 734,215 734,215 734,215 734,215 734,215 734,215 734,215 735,215 735,215 735,215 735,215 735,215 735,215 735,216 735,216 735,216 735,216 735,216 735,216 735,216 736,216 736,216 736,216 736,216 736,216 736,216 736,216 736,217 736,217 736,217 736,217 " vector-effect="non-scaling-stroke"></polyline>
</g></svg>