<!-- Generator: Adobe Illustrator 19.2.0, SVG Export Plug-In  -->
<!DOCTYPE svg PUBLIC "-//W3C//DTD SVG 1.1//EN" "http://www.w3.org/Graphics/SVG/1.1/DTD/svg11.dtd" [
	<!ENTITY ns_flows "http://ns.adobe.com/Flows/1.0/">
	<!ENTITY st0 "fill:none;stroke:#FFFFFF;stroke-linecap:square;stroke-linejoin:bevel;stroke-dasharray:1,2;">
	<!ENTITY st1 "fill:none;stroke:#624949;stroke-width:1.5;stroke-linecap:round;stroke-linejoin:round;">
	<!ENTITY st2 "fill:#624949;">
]>
<svg version="1.1"
	 xmlns="http://www.w3.org/2000/svg" xmlns:xlink="http://www.w3.org/1999/xlink" xmlns:a="http://ns.adobe.com/AdobeSVGViewerExtensions/3.0/"
	 x="0px" y="0px" width="759px" height="382.5px" preserveAspectRatio="none" viewBox="0 0 759 382.5" style="enable-background:new 0 0 759 382.5;"
	 xml:space="preserve">
<defs>
</defs>
<line vector-effect="non-scaling-stroke" style="&st0;" x1="0.5" y1="3" x2="0.5" y2="382"/>
<line vector-effect="non-scaling-stroke" style="&st0;" x1="95.5" y1="3" x2="95.5" y2="382"/>
<line vector-effect="non-scaling-stroke" style="&st0;" x1="190.5" y1="3" x2="190.5" y2="382"/>
<line vector-effect="non-scaling-stroke" style="&st0;" x1="284.5" y1="3" x2="284.5" y2="382"/>
<line vector-effect="non-scaling-stroke" style="&st0;" x1="379.5" y1="3" x2="379.5" y2="382"/>
<line vector-effect="non-scaling-stroke" style="&st0;" x1="474.5" y1="3" x2="474.5" y2="382"/>
<line vector-effect="non-scaling-stroke" style="&st0;" x1="569.5" y1="3" x2="569.5" y2="382"/>
<line vector-effect="non-scaling-stroke" style="&st0;" x1="663.5" y1="3" x2="663.5" y2="382"/>
<line vector-effect="non-scaling-stroke" style="&st0;" x1="758.5" y1="3" x2="758.5" y2="382"/>
<line vector-effect="non-scaling-stroke" style="&st0;" x1="0.5" y1="382" x2="758.5" y2="382"/>
<line vector-effect="non-scaling-stroke" style="&st0;" x1="0.5" y1="328" x2="758.5" y2="328"/>
<line vector-effect="non-scaling-stroke" style="&st0;" x1="0.5" y1="273" x2="758.5" y2="273"/>
<line vector-effect="non-scaling-stroke" style="&st0;" x1="0.5" y1="219" x2="758.5" y2="219"/>
<line vector-effect="non-scaling-stroke" style="&st0;" x1="0.5" y1="165" x2="758.5" y2="165"/>
<line vector-effect="non-scaling-stroke" style="&st0;" x1="0.5" y1="111" x2="758.5" y2="111"/>
<line vector-effect="non-scaling-stroke" style="&st0;" x1="0.5" y1="56" x2="758.5" y2="56"/>
<g transform="matrix(1,0,0,1,0,0)">
	<polyline vector-effect="non-scaling-stroke" style="&st1;" points="716.5,327 716.5,327 716.5,327 716.5,327 716.5,327 716.5,327 
		716.5,327 716.5,327 716.5,327 	"/>
</g>
<g transform="matrix(1,0,0,1,0,0)">
	<polyline vector-effect="non-scaling-stroke" style="&st2;" points="716.5,382 44.5,382 44.5,337 44.5,337 44.5,337 44.5,337 
		44.5,336 44.5,336 44.5,336 44.5,336 44.5,336 45.5,336 45.5,336 45.5,336 45.5,336 45.5,336 45.5,336 45.5,336 45.5,336 45.5,336 
		45.5,336 45.5,336 45.5,336 45.5,336 46.5,336 46.5,336 46.5,336 46.5,336 46.5,336 46.5,336 46.5,336 46.5,336 46.5,336 46.5,337 
		46.5,337 46.5,337 46.5,336 47.5,336 47.5,336 47.5,335 47.5,335 47.5,335 47.5,334 47.5,334 47.5,334 47.5,334 47.5,334 47.5,334 
		47.5,334 47.5,335 48.5,334 48.5,334 48.5,334 48.5,334 48.5,334 48.5,334 48.5,334 48.5,334 48.5,334 48.5,334 48.5,334 48.5,334 
		48.5,334 49.5,334 49.5,334 49.5,334 49.5,334 49.5,334 49.5,334 49.5,334 49.5,334 49.5,334 49.5,334 49.5,334 49.5,333 49.5,333 
		50.5,333 50.5,333 50.5,333 50.5,333 50.5,333 50.5,333 50.5,333 50.5,333 50.5,333 50.5,332 50.5,332 50.5,332 50.5,332 51.5,332 
		51.5,332 51.5,332 51.5,332 51.5,332 51.5,332 51.5,332 51.5,332 51.5,332 51.5,332 51.5,332 51.5,332 51.5,332 52.5,331 52.5,331 
		52.5,331 52.5,331 52.5,331 52.5,331 52.5,331 52.5,331 52.5,331 52.5,331 52.5,331 52.5,331 52.5,331 53.5,331 53.5,331 53.5,331 
		53.5,331 53.5,331 53.5,331 53.5,331 53.5,331 53.5,331 53.5,331 53.5,331 53.5,331 53.5,331 54.5,330 54.5,330 54.5,330 54.5,330 
		54.5,330 54.5,330 54.5,330 54.5,330 54.5,330 54.5,330 54.5,330 54.5,329 54.5,329 55.5,329 55.5,328 55.5,328 55.5,328 55.5,328 
		55.5,328 55.5,329 55.5,329 55.5,329 55.5,329 55.5,329 55.5,329 55.5,328 56.5,328 56.5,328 56.5,328 56.5,328 56.5,328 56.5,328 
		56.5,328 56.5,328 56.5,328 56.5,328 56.5,327 56.5,327 56.5,327 57.5,327 57.5,327 57.5,327 57.5,327 57.5,326 57.5,326 57.5,326 
		57.5,326 57.5,326 57.5,327 57.5,327 57.5,327 57.5,327 58.5,326 58.5,326 58.5,326 58.5,326 58.5,326 58.5,326 58.5,326 58.5,326 
		58.5,326 58.5,326 58.5,326 58.5,326 58.5,326 59.5,326 59.5,326 59.5,326 59.5,326 59.5,326 59.5,326 59.5,326 59.5,326 59.5,326 
		59.5,326 59.5,326 59.5,326 59.5,326 60.5,326 60.5,326 60.5,326 60.5,326 60.5,326 60.5,326 60.5,325 60.5,325 60.5,325 60.5,325 
		60.5,325 60.5,324 60.5,324 61.5,324 61.5,323 61.5,323 61.5,323 61.5,323 61.5,323 61.5,324 61.5,324 61.5,324 61.5,324 61.5,324 
		61.5,325 61.5,325 62.5,325 62.5,325 62.5,325 62.5,325 62.5,325 62.5,325 62.5,325 62.5,325 62.5,325 62.5,325 62.5,325 62.5,325 
		62.5,325 63.5,325 63.5,325 63.5,325 63.5,325 63.5,325 63.5,325 63.5,325 63.5,325 63.5,325 63.5,325 63.5,325 63.5,325 63.5,325 
		64.5,325 64.5,325 64.5,325 64.5,324 64.5,324 64.5,324 64.5,324 64.5,324 64.5,324 64.5,324 64.5,324 64.5,324 64.5,324 65.5,324 
		65.5,324 65.5,324 65.5,324 65.5,324 65.5,324 65.5,324 65.5,324 65.5,324 65.5,323 65.5,323 65.5,323 65.5,323 66.5,323 66.5,324 
		66.5,324 66.5,324 66.5,323 66.5,323 66.5,323 66.5,323 66.5,323 66.5,323 66.5,323 66.5,323 66.5,323 67.5,323 67.5,323 67.5,323 
		67.5,323 67.5,323 67.5,323 67.5,323 67.5,323 67.5,323 67.5,323 67.5,323 67.5,322 67.5,322 68.5,322 68.5,322 68.5,322 68.5,322 
		68.5,322 68.5,322 68.5,322 68.5,322 68.5,322 68.5,322 68.5,322 68.5,322 68.5,321 69.5,321 69.5,321 69.5,321 69.5,321 69.5,321 
		69.5,321 69.5,321 69.5,321 69.5,321 69.5,321 69.5,321 69.5,321 69.5,321 70.5,321 70.5,321 70.5,321 70.5,321 70.5,320 70.5,320 
		70.5,320 70.5,320 70.5,320 70.5,320 70.5,320 70.5,320 70.5,320 71.5,320 71.5,320 71.5,320 71.5,319 71.5,319 71.5,319 71.5,319 
		71.5,319 71.5,319 71.5,319 71.5,319 71.5,319 71.5,319 72.5,319 72.5,319 72.5,319 72.5,319 72.5,319 72.5,319 72.5,319 72.5,319 
		72.5,319 72.5,319 72.5,319 72.5,319 72.5,318 73.5,318 73.5,317 73.5,316 73.5,316 73.5,316 73.5,316 73.5,316 73.5,315 73.5,315 
		73.5,315 73.5,315 73.5,315 73.5,314 74.5,314 74.5,313 74.5,313 74.5,313 74.5,312 74.5,312 74.5,311 74.5,311 74.5,311 74.5,311 
		74.5,311 74.5,311 74.5,311 75.5,310 75.5,310 75.5,310 75.5,309 75.5,309 75.5,309 75.5,309 75.5,308 75.5,308 75.5,308 75.5,308 
		75.5,308 75.5,308 76.5,307 76.5,307 76.5,307 76.5,307 76.5,307 76.5,307 76.5,307 76.5,306 76.5,306 76.5,306 76.5,306 76.5,305 
		76.5,305 77.5,305 77.5,304 77.5,304 77.5,304 77.5,304 77.5,303 77.5,303 77.5,303 77.5,303 77.5,303 77.5,303 77.5,302 77.5,302 
		78.5,302 78.5,302 78.5,302 78.5,301 78.5,301 78.5,301 78.5,301 78.5,301 78.5,301 78.5,301 78.5,300 78.5,300 78.5,299 79.5,299 
		79.5,299 79.5,298 79.5,298 79.5,298 79.5,298 79.5,298 79.5,298 79.5,298 79.5,298 79.5,298 79.5,298 79.5,297 80.5,297 80.5,297 
		80.5,297 80.5,297 80.5,297 80.5,297 80.5,297 80.5,297 80.5,296 80.5,296 80.5,296 80.5,296 80.5,296 81.5,295 81.5,295 81.5,295 
		81.5,295 81.5,295 81.5,295 81.5,295 81.5,294 81.5,295 81.5,295 81.5,295 81.5,295 81.5,295 82.5,294 82.5,294 82.5,294 82.5,294 
		82.5,294 82.5,294 82.5,294 82.5,294 82.5,293 82.5,293 82.5,293 82.5,292 82.5,292 83.5,292 83.5,292 83.5,291 83.5,291 83.5,291 
		83.5,290 83.5,290 83.5,290 83.5,289 83.5,289 83.5,289 83.5,289 83.5,288 84.5,288 84.5,288 84.5,287 84.5,287 84.5,287 84.5,286 
		84.5,286 84.5,286 84.5,285 84.5,285 84.5,285 84.5,285 84.5,285 85.5,285 85.5,286 85.5,286 85.5,286 85.5,285 85.5,285 85.5,285 
		85.5,284 85.5,284 85.5,284 85.5,283 85.5,283 85.5,282 86.5,282 86.5,281 86.5,281 86.5,280 86.5,280 86.5,279 86.5,279 86.5,278 
		86.5,278 86.5,278 86.5,277 86.5,277 86.5,277 87.5,277 87.5,277 87.5,277 87.5,276 87.5,276 87.5,276 87.5,276 87.5,276 87.5,276 
		87.5,276 87.5,276 87.5,276 87.5,276 88.5,276 88.5,276 88.5,276 88.5,276 88.5,276 88.5,276 88.5,276 88.5,275 88.5,275 88.5,274 
		88.5,274 88.5,273 88.5,273 89.5,273 89.5,273 89.5,272 89.5,271 89.5,270 89.5,268 89.5,268 89.5,267 89.5,267 89.5,266 89.5,266 
		89.5,265 89.5,264 90.5,264 90.5,263 90.5,262 90.5,261 90.5,261 90.5,260 90.5,259 90.5,258 90.5,258 90.5,257 90.5,256 90.5,255 
		90.5,254 91.5,254 91.5,253 91.5,252 91.5,251 91.5,250 91.5,250 91.5,249 91.5,248 91.5,247 91.5,247 91.5,246 91.5,245 91.5,245 
		92.5,244 92.5,244 92.5,243 92.5,242 92.5,242 92.5,241 92.5,241 92.5,240 92.5,240 92.5,239 92.5,239 92.5,238 92.5,238 93.5,237 
		93.5,237 93.5,236 93.5,236 93.5,235 93.5,235 93.5,234 93.5,234 93.5,234 93.5,233 93.5,233 93.5,232 94.5,232 94.5,231 94.5,231 
		94.5,230 94.5,230 94.5,229 94.5,229 94.5,228 94.5,228 94.5,228 94.5,227 94.5,227 94.5,226 95.5,225 95.5,224 95.5,223 95.5,223 
		95.5,223 95.5,222 95.5,222 95.5,221 95.5,221 95.5,220 95.5,219 95.5,219 95.5,218 96.5,218 96.5,217 96.5,217 96.5,216 96.5,216 
		96.5,216 96.5,216 96.5,215 96.5,215 96.5,215 96.5,215 96.5,215 96.5,215 97.5,215 97.5,214 97.5,214 97.5,213 97.5,212 97.5,212 
		97.5,211 97.5,211 97.5,210 97.5,209 97.5,208 97.5,207 97.5,207 98.5,208 98.5,208 98.5,209 98.5,209 98.5,209 98.5,209 98.5,210 
		98.5,210 98.5,210 98.5,210 98.5,210 98.5,210 98.5,210 99.5,210 99.5,210 99.5,210 99.5,209 99.5,209 99.5,209 99.5,209 99.5,208 
		99.5,208 99.5,208 99.5,208 99.5,207 99.5,206 100.5,205 100.5,205 100.5,205 100.5,205 100.5,206 100.5,205 100.5,205 100.5,205 
		100.5,205 100.5,205 100.5,205 100.5,205 100.5,204 101.5,204 101.5,204 101.5,204 101.5,204 101.5,204 101.5,204 101.5,204 
		101.5,203 101.5,203 101.5,203 101.5,203 101.5,203 101.5,204 102.5,204 102.5,204 102.5,204 102.5,204 102.5,204 102.5,204 
		102.5,204 102.5,204 102.5,204 102.5,204 102.5,204 102.5,204 102.5,204 103.5,205 103.5,205 103.5,205 103.5,205 103.5,205 
		103.5,205 103.5,205 103.5,205 103.5,206 103.5,206 103.5,206 103.5,207 103.5,207 104.5,207 104.5,207 104.5,207 104.5,207 
		104.5,207 104.5,207 104.5,207 104.5,207 104.5,207 104.5,207 104.5,207 104.5,207 104.5,206 105.5,206 105.5,206 105.5,205 
		105.5,205 105.5,205 105.5,205 105.5,206 105.5,206 105.5,207 105.5,207 105.5,207 105.5,208 105.5,209 106.5,209 106.5,210 
		106.5,210 106.5,210 106.5,211 106.5,211 106.5,211 106.5,211 106.5,212 106.5,212 106.5,213 106.5,213 106.5,214 107.5,215 
		107.5,216 107.5,218 107.5,219 107.5,220 107.5,221 107.5,222 107.5,223 107.5,224 107.5,226 107.5,227 107.5,229 107.5,230 
		108.5,232 108.5,233 108.5,234 108.5,235 108.5,236 108.5,238 108.5,238 108.5,239 108.5,239 108.5,240 108.5,242 108.5,244 
		108.5,246 109.5,248 109.5,249 109.5,251 109.5,253 109.5,254 109.5,254 109.5,255 109.5,256 109.5,256 109.5,257 109.5,257 
		109.5,258 109.5,258 110.5,259 110.5,260 110.5,261 110.5,261 110.5,262 110.5,262 110.5,263 110.5,263 110.5,264 110.5,265 
		110.5,265 110.5,266 110.5,266 111.5,265 111.5,265 111.5,265 111.5,265 111.5,265 111.5,265 111.5,265 111.5,264 111.5,263 
		111.5,261 111.5,261 111.5,260 111.5,260 112.5,259 112.5,259 112.5,259 112.5,259 112.5,259 112.5,258 112.5,258 112.5,258 
		112.5,258 112.5,258 112.5,258 112.5,258 112.5,258 113.5,258 113.5,258 113.5,257 113.5,257 113.5,258 113.5,258 113.5,258 
		113.5,258 113.5,258 113.5,259 113.5,259 113.5,260 113.5,260 114.5,259 114.5,259 114.5,258 114.5,258 114.5,258 114.5,258 
		114.5,258 114.5,258 114.5,258 114.5,258 114.5,259 114.5,259 114.5,259 115.5,258 115.5,258 115.5,258 115.5,257 115.5,257 
		115.5,257 115.5,257 115.5,256 115.5,256 115.5,256 115.5,256 115.5,255 115.5,255 116.5,255 116.5,255 116.5,254 116.5,254 
		116.5,253 116.5,253 116.5,252 116.5,252 116.5,251 116.5,250 116.5,250 116.5,249 116.5,249 117.5,248 117.5,248 117.5,247 
		117.5,246 117.5,246 117.5,245 117.5,244 117.5,244 117.5,243 117.5,242 117.5,242 117.5,241 117.5,240 118.5,239 118.5,239 
		118.5,238 118.5,237 118.5,237 118.5,236 118.5,235 118.5,235 118.5,235 118.5,235 118.5,235 118.5,235 118.5,234 119.5,234 
		119.5,233 119.5,233 119.5,232 119.5,232 119.5,231 119.5,230 119.5,229 119.5,228 119.5,228 119.5,227 119.5,226 119.5,226 
		120.5,225 120.5,225 120.5,225 120.5,224 120.5,223 120.5,223 120.5,223 120.5,223 120.5,223 120.5,223 120.5,224 120.5,223 
		120.5,223 121.5,223 121.5,223 121.5,224 121.5,225 121.5,225 121.5,224 121.5,224 121.5,225 121.5,225 121.5,225 121.5,225 
		121.5,225 121.5,225 122.5,225 122.5,225 122.5,224 122.5,224 122.5,224 122.5,224 122.5,224 122.5,224 122.5,221 122.5,221 
		122.5,221 122.5,220 122.5,220 123.5,220 123.5,219 123.5,219 123.5,219 123.5,219 123.5,219 123.5,219 123.5,219 123.5,218 
		123.5,218 123.5,217 123.5,218 123.5,218 124.5,218 124.5,218 124.5,218 124.5,217 124.5,217 124.5,217 124.5,216 124.5,216 
		124.5,216 124.5,216 124.5,216 124.5,216 124.5,216 125.5,215 125.5,215 125.5,215 125.5,215 125.5,215 125.5,215 125.5,215 
		125.5,216 125.5,216 125.5,217 125.5,218 125.5,219 125.5,219 126.5,220 126.5,221 126.5,220 126.5,221 126.5,222 126.5,223 
		126.5,225 126.5,225 126.5,226 126.5,226 126.5,226 126.5,227 126.5,228 127.5,228 127.5,229 127.5,229 127.5,230 127.5,231 
		127.5,232 127.5,233 127.5,233 127.5,233 127.5,233 127.5,234 127.5,234 127.5,234 128.5,234 128.5,234 128.5,234 128.5,233 
		128.5,233 128.5,233 128.5,233 128.5,233 128.5,232 128.5,232 128.5,230 128.5,229 128.5,228 129.5,227 129.5,225 129.5,223 
		129.5,222 129.5,220 129.5,218 129.5,216 129.5,214 129.5,213 129.5,212 129.5,211 129.5,211 129.5,210 130.5,209 130.5,209 
		130.5,208 130.5,207 130.5,206 130.5,206 130.5,205 130.5,204 130.5,203 130.5,202 130.5,201 130.5,200 130.5,200 131.5,199 
		131.5,198 131.5,198 131.5,197 131.5,196 131.5,195 131.5,195 131.5,194 131.5,194 131.5,194 131.5,194 131.5,194 131.5,194 
		132.5,193 132.5,193 132.5,193 132.5,193 132.5,193 132.5,193 132.5,193 132.5,193 132.5,193 132.5,193 132.5,193 132.5,193 
		132.5,193 133.5,193 133.5,192 133.5,192 133.5,194 133.5,194 133.5,194 133.5,194 133.5,195 133.5,195 133.5,195 133.5,194 
		133.5,194 133.5,194 134.5,194 134.5,193 134.5,192 134.5,192 134.5,192 134.5,191 134.5,190 134.5,189 134.5,189 134.5,188 
		134.5,188 134.5,187 134.5,185 135.5,184 135.5,182 135.5,180 135.5,179 135.5,177 135.5,176 135.5,175 135.5,174 135.5,174 
		135.5,174 135.5,174 135.5,174 135.5,174 136.5,174 136.5,174 136.5,174 136.5,174 136.5,174 136.5,174 136.5,174 136.5,174 
		136.5,173 136.5,173 136.5,173 136.5,173 136.5,173 137.5,173 137.5,173 137.5,173 137.5,173 137.5,172 137.5,172 137.5,172 
		137.5,172 137.5,172 137.5,172 137.5,173 137.5,173 137.5,173 138.5,174 138.5,175 138.5,176 138.5,176 138.5,176 138.5,177 
		138.5,177 138.5,177 138.5,176 138.5,175 138.5,174 138.5,174 138.5,174 139.5,174 139.5,174 139.5,173 139.5,173 139.5,173 
		139.5,173 139.5,173 139.5,173 139.5,173 139.5,173 139.5,173 139.5,173 139.5,173 140.5,173 140.5,173 140.5,174 140.5,174 
		140.5,175 140.5,175 140.5,176 140.5,177 140.5,177 140.5,178 140.5,177 140.5,177 140.5,177 141.5,176 141.5,175 141.5,175 
		141.5,174 141.5,172 141.5,171 141.5,170 141.5,169 141.5,167 141.5,166 141.5,165 141.5,164 141.5,163 142.5,162 142.5,162 
		142.5,161 142.5,161 142.5,160 142.5,160 142.5,159 142.5,158 142.5,158 142.5,157 142.5,157 142.5,156 142.5,156 143.5,156 
		143.5,155 143.5,155 143.5,155 143.5,155 143.5,155 143.5,154 143.5,154 143.5,154 143.5,154 143.5,154 143.5,154 143.5,154 
		144.5,154 144.5,154 144.5,153 144.5,153 144.5,153 144.5,152 144.5,152 144.5,152 144.5,152 144.5,152 144.5,151 144.5,151 
		144.5,151 145.5,151 145.5,150 145.5,149 145.5,149 145.5,148 145.5,147 145.5,146 145.5,146 145.5,145 145.5,145 145.5,145 
		145.5,145 145.5,145 146.5,144 146.5,144 146.5,144 146.5,144 146.5,144 146.5,143 146.5,143 146.5,143 146.5,142 146.5,141 
		146.5,141 146.5,141 146.5,141 147.5,140 147.5,140 147.5,140 147.5,139 147.5,139 147.5,139 147.5,138 147.5,138 147.5,138 
		147.5,137 147.5,137 147.5,137 147.5,137 148.5,136 148.5,136 148.5,136 148.5,136 148.5,136 148.5,136 148.5,136 148.5,136 
		148.5,136 148.5,136 148.5,136 148.5,136 148.5,136 149.5,136 149.5,136 149.5,136 149.5,136 149.5,137 149.5,137 149.5,138 
		149.5,138 149.5,138 149.5,139 149.5,140 149.5,141 149.5,141 150.5,140 150.5,140 150.5,140 150.5,140 150.5,140 150.5,140 
		150.5,139 150.5,139 150.5,138 150.5,138 150.5,137 150.5,136 151.5,136 151.5,135 151.5,134 151.5,133 151.5,132 151.5,131 
		151.5,130 151.5,129 151.5,128 151.5,126 151.5,125 151.5,125 151.5,124 152.5,123 152.5,122 152.5,122 152.5,122 152.5,122 
		152.5,123 152.5,123 152.5,123 152.5,123 152.5,123 152.5,123 152.5,123 152.5,123 153.5,124 153.5,124 153.5,124 153.5,124 
		153.5,124 153.5,124 153.5,124 153.5,124 153.5,124 153.5,124 153.5,125 153.5,125 153.5,126 154.5,127 154.5,127 154.5,128 
		154.5,128 154.5,129 154.5,130 154.5,130 154.5,131 154.5,133 154.5,134 154.5,135 154.5,137 154.5,138 155.5,140 155.5,142 
		155.5,143 155.5,145 155.5,148 155.5,150 155.5,152 155.5,153 155.5,155 155.5,156 155.5,157 155.5,158 155.5,158 156.5,159 
		156.5,159 156.5,159 156.5,159 156.5,159 156.5,160 156.5,159 156.5,157 156.5,156 156.5,154 156.5,153 156.5,152 156.5,150 
		157.5,149 157.5,148 157.5,147 157.5,145 157.5,144 157.5,143 157.5,141 157.5,140 157.5,139 157.5,138 157.5,137 157.5,135 
		157.5,134 158.5,134 158.5,133 158.5,133 158.5,132 158.5,132 158.5,130 158.5,129 158.5,128 158.5,127 158.5,127 158.5,127 
		158.5,126 158.5,125 159.5,125 159.5,124 159.5,124 159.5,123 159.5,123 159.5,122 159.5,122 159.5,121 159.5,121 159.5,120 
		159.5,120 159.5,119 159.5,119 160.5,118 160.5,118 160.5,117 160.5,117 160.5,116 160.5,116 160.5,115 160.5,115 160.5,114 
		160.5,114 160.5,113 160.5,112 160.5,112 161.5,111 161.5,111 161.5,110 161.5,110 161.5,109 161.5,108 161.5,108 161.5,107 
		161.5,107 161.5,106 161.5,106 161.5,106 161.5,105 162.5,105 162.5,104 162.5,105 162.5,105 162.5,105 162.5,105 162.5,105 
		162.5,105 162.5,105 162.5,105 162.5,105 162.5,105 162.5,105 163.5,105 163.5,105 163.5,105 163.5,105 163.5,105 163.5,105 
		163.5,105 163.5,105 163.5,104 163.5,104 163.5,104 163.5,104 163.5,104 164.5,104 164.5,104 164.5,106 164.5,108 164.5,109 
		164.5,112 164.5,114 164.5,116 164.5,118 164.5,119 164.5,119 164.5,119 164.5,120 165.5,120 165.5,119 165.5,121 165.5,120 
		165.5,120 165.5,120 165.5,120 165.5,120 165.5,120 165.5,120 165.5,119 165.5,119 165.5,119 166.5,119 166.5,119 166.5,119 
		166.5,119 166.5,119 166.5,120 166.5,120 166.5,120 166.5,121 166.5,121 166.5,122 166.5,122 166.5,122 167.5,122 167.5,123 
		167.5,123 167.5,123 167.5,124 167.5,124 167.5,125 167.5,125 167.5,126 167.5,126 167.5,127 167.5,128 167.5,129 168.5,130 
		168.5,131 168.5,131 168.5,132 168.5,133 168.5,134 168.5,134 168.5,135 168.5,135 168.5,136 168.5,137 168.5,137 168.5,137 
		169.5,138 169.5,138 169.5,138 169.5,139 169.5,139 169.5,139 169.5,139 169.5,139 169.5,139 169.5,139 169.5,139 169.5,139 
		169.5,139 170.5,139 170.5,139 170.5,138 170.5,138 170.5,138 170.5,138 170.5,138 170.5,138 170.5,137 170.5,137 170.5,137 
		170.5,136 170.5,136 171.5,135 171.5,134 171.5,134 171.5,133 171.5,132 171.5,131 171.5,131 171.5,130 171.5,129 171.5,129 
		171.5,128 171.5,128 171.5,127 172.5,126 172.5,126 172.5,125 172.5,125 172.5,124 172.5,123 172.5,123 172.5,122 172.5,121 
		172.5,121 172.5,120 172.5,119 172.5,119 173.5,118 173.5,118 173.5,117 173.5,117 173.5,117 173.5,117 173.5,117 173.5,118 
		173.5,117 173.5,117 173.5,117 173.5,117 173.5,117 174.5,117 174.5,117 174.5,117 174.5,116 174.5,116 174.5,116 174.5,115 
		174.5,115 174.5,115 174.5,114 174.5,114 174.5,114 174.5,114 175.5,114 175.5,114 175.5,113 175.5,113 175.5,113 175.5,113 
		175.5,112 175.5,112 175.5,112 175.5,111 175.5,111 175.5,111 175.5,110 176.5,110 176.5,110 176.5,109 176.5,109 176.5,109 
		176.5,108 176.5,108 176.5,107 176.5,107 176.5,107 176.5,107 176.5,106 176.5,106 177.5,105 177.5,105 177.5,104 177.5,104 
		177.5,104 177.5,105 177.5,105 177.5,105 177.5,105 177.5,105 177.5,104 177.5,103 177.5,103 178.5,103 178.5,103 178.5,102 
		178.5,102 178.5,102 178.5,102 178.5,101 178.5,101 178.5,101 178.5,101 178.5,101 178.5,101 178.5,101 179.5,100 179.5,100 
		179.5,99 179.5,99 179.5,99 179.5,99 179.5,98 179.5,98 179.5,97 179.5,97 179.5,97 179.5,96 179.5,95 180.5,95 180.5,94 180.5,94 
		180.5,93 180.5,93 180.5,92 180.5,92 180.5,91 180.5,91 180.5,90 180.5,90 180.5,90 180.5,90 181.5,89 181.5,89 181.5,89 181.5,89 
		181.5,89 181.5,89 181.5,90 181.5,90 181.5,90 181.5,90 181.5,89 181.5,88 181.5,87 182.5,86 182.5,86 182.5,85 182.5,84 182.5,83 
		182.5,82 182.5,81 182.5,80 182.5,79 182.5,78 182.5,77 182.5,76 182.5,75 183.5,74 183.5,73 183.5,72 183.5,71 183.5,70 183.5,69 
		183.5,69 183.5,68 183.5,67 183.5,66 183.5,65 183.5,65 183.5,64 184.5,63 184.5,62 184.5,62 184.5,61 184.5,61 184.5,60 184.5,59 
		184.5,59 184.5,58 184.5,57 184.5,57 184.5,56 184.5,56 185.5,55 185.5,55 185.5,54 185.5,54 185.5,53 185.5,53 185.5,52 185.5,52 
		185.5,51 185.5,51 185.5,50 185.5,49 185.5,48 186.5,47 186.5,46 186.5,45 186.5,44 186.5,44 186.5,43 186.5,42 186.5,42 186.5,41 
		186.5,40 186.5,39 186.5,39 186.5,38 187.5,37 187.5,36 187.5,36 187.5,35 187.5,34 187.5,33 187.5,33 187.5,32 187.5,31 187.5,30 
		187.5,29 187.5,29 187.5,28 188.5,27 188.5,27 188.5,26 188.5,25 188.5,25 188.5,24 188.5,23 188.5,22 188.5,22 188.5,21 188.5,20 
		188.5,20 188.5,19 189.5,18 189.5,17 189.5,17 189.5,16 189.5,15 189.5,14 189.5,13 189.5,13 189.5,12 189.5,11 189.5,11 189.5,10 
		189.5,10 190.5,9 190.5,9 190.5,8 190.5,8 190.5,7 190.5,7 190.5,6 190.5,6 190.5,5 190.5,5 190.5,4 190.5,3 190.5,3 191.5,3 
		191.5,2 191.5,2 191.5,2 191.5,2 191.5,2 191.5,2 191.5,1 191.5,1 191.5,1 191.5,1 191.5,1 191.5,0 192.5,0 192.5,0 192.5,0 
		192.5,0 192.5,0 192.5,0 192.5,0 192.5,0 192.5,0 192.5,0 192.5,0 192.5,0 192.5,0 193.5,0 193.5,0 193.5,0 193.5,0 193.5,0 
		193.5,0 193.5,0 193.5,0 193.5,0 193.5,0 193.5,1 193.5,1 193.5,1 194.5,1 194.5,1 194.5,1 194.5,2 194.5,2 194.5,3 194.5,3 
		194.5,4 194.5,4 194.5,5 194.5,5 194.5,6 194.5,6 195.5,7 195.5,7 195.5,7 195.5,8 195.5,9 195.5,10 195.5,12 195.5,13 195.5,14 
		195.5,15 195.5,15 195.5,16 195.5,18 196.5,19 196.5,20 196.5,22 196.5,23 196.5,24 196.5,26 196.5,27 196.5,27 196.5,28 196.5,28 
		196.5,29 196.5,30 196.5,31 197.5,32 197.5,33 197.5,35 197.5,36 197.5,37 197.5,38 197.5,39 197.5,40 197.5,41 197.5,42 197.5,43 
		197.5,44 197.5,45 198.5,46 198.5,47 198.5,47 198.5,48 198.5,50 198.5,50 198.5,51 198.5,52 198.5,52 198.5,53 198.5,54 198.5,54 
		198.5,54 199.5,55 199.5,56 199.5,57 199.5,58 199.5,59 199.5,60 199.5,61 199.5,61 199.5,62 199.5,63 199.5,64 199.5,65 199.5,66 
		200.5,67 200.5,68 200.5,68 200.5,69 200.5,69 200.5,70 200.5,70 200.5,71 200.5,72 200.5,72 200.5,73 200.5,73 200.5,73 201.5,73 
		201.5,73 201.5,73 201.5,73 201.5,74 201.5,74 201.5,74 201.5,75 201.5,75 201.5,76 201.5,76 201.5,76 201.5,77 202.5,77 202.5,78 
		202.5,79 202.5,80 202.5,81 202.5,81 202.5,82 202.5,81 202.5,81 202.5,82 202.5,82 202.5,82 202.5,82 203.5,83 203.5,83 203.5,83 
		203.5,83 203.5,84 203.5,84 203.5,84 203.5,85 203.5,85 203.5,85 203.5,85 203.5,86 203.5,86 204.5,86 204.5,86 204.5,87 204.5,87 
		204.5,87 204.5,87 204.5,87 204.5,88 204.5,88 204.5,89 204.5,89 204.5,90 204.5,91 205.5,91 205.5,92 205.5,92 205.5,93 205.5,94 
		205.5,94 205.5,94 205.5,94 205.5,94 205.5,94 205.5,94 205.5,94 205.5,94 206.5,94 206.5,94 206.5,94 206.5,94 206.5,94 206.5,95 
		206.5,95 206.5,95 206.5,96 206.5,96 206.5,96 206.5,96 206.5,97 207.5,97 207.5,97 207.5,98 207.5,98 207.5,98 207.5,99 207.5,99 
		207.5,100 207.5,100 207.5,100 207.5,100 207.5,100 208.5,101 208.5,101 208.5,101 208.5,101 208.5,102 208.5,102 208.5,102 
		208.5,102 208.5,103 208.5,103 208.5,103 208.5,104 208.5,104 209.5,104 209.5,104 209.5,104 209.5,104 209.5,104 209.5,104 
		209.5,104 209.5,104 209.5,104 209.5,103 209.5,103 209.5,103 209.5,103 210.5,103 210.5,102 210.5,102 210.5,102 210.5,102 
		210.5,102 210.5,101 210.5,101 210.5,101 210.5,101 210.5,101 210.5,100 210.5,100 211.5,100 211.5,100 211.5,101 211.5,101 
		211.5,101 211.5,101 211.5,101 211.5,101 211.5,102 211.5,102 211.5,103 211.5,103 211.5,104 212.5,104 212.5,105 212.5,106 
		212.5,106 212.5,106 212.5,106 212.5,106 212.5,106 212.5,106 212.5,106 212.5,106 212.5,107 212.5,107 213.5,107 213.5,107 
		213.5,108 213.5,108 213.5,108 213.5,108 213.5,109 213.5,109 213.5,109 213.5,110 213.5,110 213.5,111 213.5,111 214.5,111 
		214.5,112 214.5,112 214.5,112 214.5,112 214.5,112 214.5,112 214.5,112 214.5,112 214.5,113 214.5,113 214.5,113 214.5,114 
		215.5,114 215.5,114 215.5,114 215.5,114 215.5,113 215.5,113 215.5,113 215.5,113 215.5,113 215.5,113 215.5,113 215.5,113 
		215.5,113 216.5,113 216.5,113 216.5,113 216.5,113 216.5,113 216.5,113 216.5,113 216.5,113 216.5,113 216.5,113 216.5,112 
		216.5,112 216.5,112 217.5,112 217.5,112 217.5,112 217.5,112 217.5,112 217.5,111 217.5,111 217.5,111 217.5,111 217.5,110 
		217.5,110 217.5,110 217.5,110 218.5,109 218.5,109 218.5,109 218.5,109 218.5,109 218.5,109 218.5,109 218.5,109 218.5,109 
		218.5,109 218.5,108 218.5,108 218.5,108 219.5,108 219.5,108 219.5,108 219.5,108 219.5,107 219.5,107 219.5,107 219.5,107 
		219.5,107 219.5,107 219.5,106 219.5,106 219.5,106 220.5,106 220.5,106 220.5,105 220.5,105 220.5,105 220.5,105 220.5,105 
		220.5,105 220.5,105 220.5,105 220.5,105 220.5,105 220.5,105 221.5,105 221.5,105 221.5,105 221.5,105 221.5,105 221.5,105 
		221.5,105 221.5,105 221.5,105 221.5,105 221.5,105 221.5,105 221.5,105 222.5,105 222.5,105 222.5,105 222.5,105 222.5,105 
		222.5,105 222.5,105 222.5,105 222.5,105 222.5,105 222.5,105 222.5,105 222.5,105 223.5,105 223.5,105 223.5,106 223.5,106 
		223.5,106 223.5,107 223.5,107 223.5,108 223.5,109 223.5,109 223.5,110 223.5,110 223.5,111 224.5,112 224.5,112 224.5,113 
		224.5,113 224.5,114 224.5,114 224.5,115 224.5,115 224.5,116 224.5,116 224.5,117 224.5,117 224.5,118 225.5,118 225.5,119 
		225.5,119 225.5,119 225.5,120 225.5,120 225.5,120 225.5,121 225.5,121 225.5,121 225.5,122 225.5,122 225.5,122 226.5,123 
		226.5,123 226.5,123 226.5,123 226.5,124 226.5,124 226.5,124 226.5,124 226.5,124 226.5,125 226.5,125 226.5,125 226.5,125 
		227.5,126 227.5,126 227.5,126 227.5,127 227.5,127 227.5,127 227.5,127 227.5,128 227.5,128 227.5,128 227.5,128 227.5,128 
		227.5,128 228.5,129 228.5,129 228.5,129 228.5,129 228.5,129 228.5,129 228.5,129 228.5,129 228.5,130 228.5,130 228.5,130 
		228.5,130 228.5,130 229.5,130 229.5,130 229.5,131 229.5,131 229.5,131 229.5,132 229.5,132 229.5,132 229.5,132 229.5,133 
		229.5,133 229.5,133 229.5,133 230.5,133 230.5,133 230.5,133 230.5,133 230.5,133 230.5,133 230.5,133 230.5,133 230.5,133 
		230.5,133 230.5,132 230.5,132 230.5,131 231.5,131 231.5,130 231.5,129 231.5,129 231.5,129 231.5,128 231.5,128 231.5,128 
		231.5,127 231.5,127 231.5,127 231.5,127 231.5,126 232.5,126 232.5,126 232.5,125 232.5,125 232.5,124 232.5,124 232.5,123 
		232.5,123 232.5,123 232.5,122 232.5,122 232.5,122 232.5,121 233.5,121 233.5,120 233.5,120 233.5,120 233.5,119 233.5,119 
		233.5,119 233.5,118 233.5,118 233.5,118 233.5,118 233.5,117 233.5,117 234.5,117 234.5,117 234.5,117 234.5,117 234.5,116 
		234.5,116 234.5,116 234.5,116 234.5,116 234.5,115 234.5,115 234.5,115 234.5,115 235.5,115 235.5,115 235.5,115 235.5,115 
		235.5,115 235.5,115 235.5,115 235.5,115 235.5,115 235.5,115 235.5,115 235.5,115 235.5,114 236.5,114 236.5,114 236.5,114 
		236.5,114 236.5,114 236.5,114 236.5,114 236.5,114 236.5,114 236.5,114 236.5,114 236.5,114 236.5,113 237.5,113 237.5,113 
		237.5,112 237.5,112 237.5,111 237.5,110 237.5,110 237.5,110 237.5,109 237.5,109 237.5,109 237.5,109 237.5,108 238.5,108 
		238.5,108 238.5,108 238.5,108 238.5,108 238.5,108 238.5,108 238.5,108 238.5,108 238.5,108 238.5,108 238.5,108 238.5,108 
		239.5,108 239.5,108 239.5,107 239.5,107 239.5,107 239.5,108 239.5,109 239.5,109 239.5,109 239.5,110 239.5,111 239.5,111 
		239.5,112 240.5,113 240.5,115 240.5,116 240.5,116 240.5,117 240.5,118 240.5,118 240.5,118 240.5,118 240.5,118 240.5,118 
		240.5,118 240.5,119 241.5,119 241.5,119 241.5,119 241.5,120 241.5,120 241.5,120 241.5,121 241.5,121 241.5,122 241.5,122 
		241.5,122 241.5,123 241.5,124 242.5,124 242.5,125 242.5,126 242.5,126 242.5,127 242.5,127 242.5,128 242.5,128 242.5,129 
		242.5,129 242.5,129 242.5,129 242.5,129 243.5,129 243.5,128 243.5,128 243.5,128 243.5,128 243.5,128 243.5,128 243.5,127 
		243.5,127 243.5,127 243.5,126 243.5,126 243.5,126 244.5,125 244.5,125 244.5,124 244.5,124 244.5,123 244.5,123 244.5,122 
		244.5,122 244.5,121 244.5,121 244.5,120 244.5,120 244.5,119 245.5,118 245.5,118 245.5,117 245.5,117 245.5,116 245.5,116 
		245.5,116 245.5,116 245.5,116 245.5,115 245.5,115 245.5,115 245.5,115 246.5,115 246.5,115 246.5,114 246.5,114 246.5,114 
		246.5,114 246.5,113 246.5,113 246.5,113 246.5,113 246.5,112 246.5,112 246.5,112 247.5,111 247.5,111 247.5,111 247.5,110 
		247.5,110 247.5,110 247.5,110 247.5,110 247.5,110 247.5,110 247.5,110 247.5,110 247.5,109 248.5,109 248.5,109 248.5,108 
		248.5,108 248.5,108 248.5,107 248.5,107 248.5,106 248.5,106 248.5,105 248.5,105 248.5,104 248.5,104 249.5,103 249.5,103 
		249.5,102 249.5,102 249.5,102 249.5,102 249.5,101 249.5,101 249.5,101 249.5,100 249.5,100 249.5,100 249.5,99 250.5,99 
		250.5,98 250.5,97 250.5,96 250.5,96 250.5,95 250.5,94 250.5,93 250.5,93 250.5,92 250.5,92 250.5,91 250.5,91 251.5,90 251.5,90 
		251.5,90 251.5,90 251.5,90 251.5,90 251.5,90 251.5,90 251.5,90 251.5,90 251.5,90 251.5,90 251.5,90 252.5,89 252.5,89 252.5,89 
		252.5,89 252.5,89 252.5,89 252.5,88 252.5,88 252.5,88 252.5,88 252.5,88 252.5,87 252.5,87 253.5,87 253.5,87 253.5,87 253.5,87 
		253.5,87 253.5,87 253.5,87 253.5,87 253.5,87 253.5,88 253.5,88 253.5,88 253.5,88 254.5,88 254.5,88 254.5,88 254.5,88 254.5,89 
		254.5,89 254.5,89 254.5,89 254.5,89 254.5,90 254.5,91 254.5,92 254.5,93 255.5,94 255.5,95 255.5,96 255.5,97 255.5,97 255.5,97 
		255.5,98 255.5,98 255.5,99 255.5,99 255.5,100 255.5,100 255.5,101 256.5,101 256.5,102 256.5,102 256.5,102 256.5,103 256.5,103 
		256.5,103 256.5,103 256.5,103 256.5,103 256.5,103 256.5,104 256.5,104 257.5,105 257.5,106 257.5,106 257.5,106 257.5,107 
		257.5,107 257.5,107 257.5,108 257.5,107 257.5,107 257.5,107 257.5,107 257.5,107 258.5,108 258.5,108 258.5,108 258.5,108 
		258.5,109 258.5,109 258.5,109 258.5,110 258.5,110 258.5,110 258.5,110 258.5,111 258.5,111 259.5,111 259.5,111 259.5,111 
		259.5,112 259.5,111 259.5,111 259.5,111 259.5,111 259.5,111 259.5,111 259.5,111 259.5,110 259.5,110 260.5,110 260.5,110 
		260.5,110 260.5,110 260.5,110 260.5,110 260.5,111 260.5,111 260.5,111 260.5,112 260.5,112 260.5,112 260.5,112 261.5,113 
		261.5,113 261.5,113 261.5,113 261.5,114 261.5,114 261.5,114 261.5,114 261.5,114 261.5,114 261.5,114 261.5,114 261.5,114 
		262.5,114 262.5,114 262.5,114 262.5,114 262.5,114 262.5,114 262.5,114 262.5,114 262.5,114 262.5,114 262.5,114 262.5,113 
		262.5,113 263.5,113 263.5,113 263.5,113 263.5,113 263.5,113 263.5,113 263.5,113 263.5,112 263.5,112 263.5,112 263.5,112 
		263.5,112 263.5,112 264.5,112 264.5,112 264.5,111 264.5,111 264.5,111 264.5,111 264.5,111 264.5,111 264.5,111 264.5,110 
		264.5,110 264.5,110 264.5,110 265.5,110 265.5,109 265.5,109 265.5,109 265.5,109 265.5,108 265.5,108 265.5,108 265.5,107 
		265.5,107 265.5,107 265.5,107 266.5,107 266.5,106 266.5,106 266.5,106 266.5,106 266.5,106 266.5,105 266.5,105 266.5,104 
		266.5,104 266.5,104 266.5,103 266.5,103 267.5,103 267.5,103 267.5,103 267.5,103 267.5,103 267.5,103 267.5,103 267.5,102 
		267.5,102 267.5,102 267.5,102 267.5,102 267.5,102 268.5,102 268.5,102 268.5,102 268.5,102 268.5,102 268.5,102 268.5,102 
		268.5,102 268.5,102 268.5,101 268.5,101 268.5,101 268.5,101 269.5,101 269.5,101 269.5,101 269.5,101 269.5,101 269.5,101 
		269.5,101 269.5,101 269.5,101 269.5,102 269.5,102 269.5,102 269.5,102 270.5,102 270.5,102 270.5,102 270.5,102 270.5,103 
		270.5,103 270.5,103 270.5,104 270.5,104 270.5,104 270.5,105 270.5,105 270.5,105 271.5,106 271.5,106 271.5,106 271.5,107 
		271.5,107 271.5,107 271.5,108 271.5,108 271.5,109 271.5,109 271.5,109 271.5,109 271.5,109 272.5,109 272.5,109 272.5,109 
		272.5,109 272.5,109 272.5,109 272.5,108 272.5,108 272.5,108 272.5,108 272.5,108 272.5,107 272.5,107 273.5,107 273.5,107 
		273.5,107 273.5,107 273.5,108 273.5,108 273.5,108 273.5,108 273.5,108 273.5,109 273.5,109 273.5,109 273.5,109 274.5,109 
		274.5,109 274.5,110 274.5,110 274.5,110 274.5,110 274.5,110 274.5,110 274.5,110 274.5,110 274.5,110 274.5,110 274.5,111 
		275.5,111 275.5,111 275.5,111 275.5,112 275.5,112 275.5,113 275.5,113 275.5,114 275.5,114 275.5,114 275.5,115 275.5,115 
		275.5,116 276.5,116 276.5,116 276.5,116 276.5,115 276.5,115 276.5,115 276.5,115 276.5,115 276.5,115 276.5,115 276.5,115 
		276.5,115 276.5,115 277.5,115 277.5,115 277.5,115 277.5,115 277.5,115 277.5,115 277.5,115 277.5,115 277.5,115 277.5,115 
		277.5,115 277.5,115 277.5,116 278.5,116 278.5,116 278.5,116 278.5,116 278.5,116 278.5,117 278.5,117 278.5,117 278.5,118 
		278.5,118 278.5,118 278.5,119 278.5,119 279.5,119 279.5,119 279.5,119 279.5,119 279.5,119 279.5,120 279.5,120 279.5,120 
		279.5,120 279.5,120 279.5,119 279.5,119 279.5,118 280.5,117 280.5,117 280.5,116 280.5,115 280.5,114 280.5,114 280.5,113 
		280.5,113 280.5,113 280.5,113 280.5,113 280.5,113 280.5,113 281.5,113 281.5,113 281.5,113 281.5,113 281.5,113 281.5,113 
		281.5,113 281.5,113 281.5,113 281.5,114 281.5,114 281.5,114 281.5,115 282.5,116 282.5,116 282.5,117 282.5,117 282.5,117 
		282.5,117 282.5,117 282.5,117 282.5,117 282.5,117 282.5,117 282.5,117 282.5,117 283.5,117 283.5,118 283.5,118 283.5,118 
		283.5,118 283.5,118 283.5,118 283.5,118 283.5,118 283.5,119 283.5,120 283.5,121 283.5,122 284.5,123 284.5,123 284.5,123 
		284.5,122 284.5,123 284.5,123 284.5,123 284.5,124 284.5,124 284.5,124 284.5,125 284.5,125 284.5,126 285.5,127 285.5,127 
		285.5,128 285.5,129 285.5,129 285.5,130 285.5,131 285.5,131 285.5,131 285.5,132 285.5,132 285.5,132 285.5,132 286.5,132 
		286.5,131 286.5,132 286.5,132 286.5,132 286.5,132 286.5,132 286.5,132 286.5,132 286.5,132 286.5,132 286.5,132 286.5,132 
		287.5,132 287.5,132 287.5,133 287.5,133 287.5,133 287.5,133 287.5,134 287.5,135 287.5,135 287.5,136 287.5,136 287.5,137 
		287.5,137 288.5,138 288.5,138 288.5,138 288.5,139 288.5,138 288.5,138 288.5,138 288.5,138 288.5,137 288.5,136 288.5,136 
		288.5,135 288.5,135 289.5,134 289.5,133 289.5,133 289.5,133 289.5,133 289.5,133 289.5,132 289.5,132 289.5,131 289.5,131 
		289.5,130 289.5,129 289.5,128 290.5,128 290.5,128 290.5,128 290.5,129 290.5,128 290.5,128 290.5,128 290.5,128 290.5,128 
		290.5,129 290.5,129 290.5,129 290.5,129 291.5,130 291.5,130 291.5,130 291.5,130 291.5,130 291.5,131 291.5,131 291.5,131 
		291.5,131 291.5,131 291.5,131 291.5,132 291.5,132 292.5,132 292.5,132 292.5,133 292.5,133 292.5,133 292.5,134 292.5,134 
		292.5,135 292.5,135 292.5,135 292.5,136 292.5,137 292.5,137 293.5,138 293.5,139 293.5,139 293.5,140 293.5,140 293.5,139 
		293.5,139 293.5,139 293.5,138 293.5,138 293.5,138 293.5,138 293.5,138 294.5,138 294.5,138 294.5,138 294.5,138 294.5,137 
		294.5,137 294.5,137 294.5,137 294.5,137 294.5,137 294.5,138 294.5,138 294.5,138 295.5,138 295.5,138 295.5,139 295.5,139 
		295.5,139 295.5,139 295.5,140 295.5,140 295.5,140 295.5,140 295.5,140 295.5,140 295.5,140 296.5,141 296.5,141 296.5,141 
		296.5,141 296.5,142 296.5,142 296.5,142 296.5,142 296.5,143 296.5,144 296.5,145 296.5,146 296.5,146 297.5,147 297.5,148 
		297.5,149 297.5,150 297.5,151 297.5,152 297.5,154 297.5,154 297.5,155 297.5,155 297.5,155 297.5,155 297.5,155 298.5,155 
		298.5,155 298.5,155 298.5,155 298.5,154 298.5,154 298.5,154 298.5,153 298.5,153 298.5,153 298.5,153 298.5,153 298.5,153 
		299.5,153 299.5,153 299.5,153 299.5,153 299.5,153 299.5,153 299.5,153 299.5,152 299.5,152 299.5,152 299.5,151 299.5,151 
		299.5,150 300.5,149 300.5,148 300.5,148 300.5,147 300.5,146 300.5,146 300.5,145 300.5,144 300.5,143 300.5,143 300.5,143 
		300.5,142 300.5,142 301.5,143 301.5,143 301.5,143 301.5,143 301.5,143 301.5,144 301.5,144 301.5,144 301.5,144 301.5,144 
		301.5,144 301.5,145 301.5,145 302.5,145 302.5,145 302.5,145 302.5,145 302.5,145 302.5,146 302.5,146 302.5,146 302.5,146 
		302.5,147 302.5,147 302.5,147 302.5,148 303.5,148 303.5,148 303.5,147 303.5,147 303.5,147 303.5,148 303.5,148 303.5,148 
		303.5,148 303.5,149 303.5,149 303.5,150 303.5,150 304.5,151 304.5,152 304.5,153 304.5,153 304.5,154 304.5,155 304.5,155 
		304.5,156 304.5,157 304.5,158 304.5,158 304.5,159 304.5,160 305.5,160 305.5,161 305.5,162 305.5,162 305.5,163 305.5,163 
		305.5,164 305.5,164 305.5,163 305.5,163 305.5,163 305.5,163 305.5,163 306.5,163 306.5,163 306.5,163 306.5,164 306.5,164 
		306.5,164 306.5,164 306.5,165 306.5,165 306.5,165 306.5,165 306.5,165 306.5,166 307.5,166 307.5,166 307.5,166 307.5,167 
		307.5,167 307.5,167 307.5,167 307.5,167 307.5,167 307.5,167 307.5,167 307.5,167 307.5,167 308.5,167 308.5,167 308.5,168 
		308.5,168 308.5,168 308.5,168 308.5,169 308.5,170 308.5,170 308.5,170 308.5,170 308.5,171 308.5,171 309.5,171 309.5,172 
		309.5,172 309.5,173 309.5,173 309.5,173 309.5,173 309.5,173 309.5,173 309.5,173 309.5,173 309.5,173 309.5,174 310.5,174 
		310.5,175 310.5,175 310.5,176 310.5,177 310.5,178 310.5,178 310.5,179 310.5,179 310.5,180 310.5,180 310.5,180 310.5,180 
		311.5,180 311.5,179 311.5,179 311.5,179 311.5,179 311.5,178 311.5,178 311.5,178 311.5,177 311.5,177 311.5,178 311.5,178 
		311.5,178 312.5,178 312.5,178 312.5,178 312.5,178 312.5,178 312.5,178 312.5,177 312.5,177 312.5,177 312.5,176 312.5,175 
		312.5,175 312.5,175 313.5,174 313.5,174 313.5,173 313.5,173 313.5,172 313.5,171 313.5,171 313.5,170 313.5,169 313.5,169 
		313.5,168 313.5,167 313.5,166 314.5,165 314.5,165 314.5,164 314.5,165 314.5,165 314.5,165 314.5,165 314.5,165 314.5,165 
		314.5,165 314.5,165 314.5,165 314.5,165 315.5,165 315.5,165 315.5,164 315.5,164 315.5,164 315.5,164 315.5,163 315.5,162 
		315.5,162 315.5,162 315.5,163 315.5,163 315.5,163 316.5,164 316.5,165 316.5,166 316.5,166 316.5,167 316.5,168 316.5,168 
		316.5,169 316.5,170 316.5,171 316.5,171 316.5,172 316.5,173 317.5,173 317.5,173 317.5,174 317.5,174 317.5,174 317.5,175 
		317.5,175 317.5,175 317.5,175 317.5,174 317.5,174 317.5,173 317.5,172 318.5,172 318.5,171 318.5,170 318.5,170 318.5,169 
		318.5,169 318.5,168 318.5,167 318.5,167 318.5,167 318.5,167 318.5,167 318.5,167 319.5,166 319.5,166 319.5,166 319.5,167 
		319.5,167 319.5,167 319.5,167 319.5,168 319.5,168 319.5,169 319.5,169 319.5,169 319.5,170 320.5,170 320.5,171 320.5,171 
		320.5,171 320.5,172 320.5,172 320.5,172 320.5,173 320.5,173 320.5,173 320.5,174 320.5,174 320.5,174 321.5,175 321.5,175 
		321.5,176 321.5,176 321.5,177 321.5,177 321.5,178 321.5,179 321.5,179 321.5,180 321.5,181 321.5,182 321.5,182 322.5,183 
		322.5,184 322.5,184 322.5,185 322.5,185 322.5,185 322.5,185 322.5,185 322.5,185 322.5,185 322.5,185 322.5,185 323.5,185 
		323.5,185 323.5,185 323.5,185 323.5,185 323.5,185 323.5,185 323.5,185 323.5,185 323.5,184 323.5,184 323.5,184 323.5,183 
		324.5,183 324.5,182 324.5,182 324.5,181 324.5,180 324.5,179 324.5,179 324.5,178 324.5,177 324.5,176 324.5,175 324.5,174 
		324.5,173 325.5,173 325.5,172 325.5,171 325.5,171 325.5,171 325.5,171 325.5,171 325.5,172 325.5,172 325.5,172 325.5,172 
		325.5,173 325.5,173 326.5,173 326.5,173 326.5,173 326.5,173 326.5,173 326.5,173 326.5,174 326.5,174 326.5,174 326.5,174 
		326.5,174 326.5,173 326.5,173 327.5,173 327.5,172 327.5,172 327.5,173 327.5,174 327.5,175 327.5,176 327.5,177 327.5,178 
		327.5,179 327.5,179 327.5,179 327.5,179 328.5,179 328.5,180 328.5,179 328.5,179 328.5,179 328.5,179 328.5,178 328.5,177 
		328.5,177 328.5,176 328.5,175 328.5,174 328.5,174 329.5,173 329.5,173 329.5,172 329.5,171 329.5,171 329.5,171 329.5,170 
		329.5,170 329.5,169 329.5,169 329.5,169 329.5,169 329.5,169 330.5,169 330.5,169 330.5,169 330.5,169 330.5,169 330.5,169 
		330.5,169 330.5,168 330.5,168 330.5,168 330.5,168 330.5,168 330.5,168 331.5,168 331.5,168 331.5,168 331.5,168 331.5,168 
		331.5,167 331.5,167 331.5,166 331.5,166 331.5,165 331.5,165 331.5,164 331.5,164 332.5,163 332.5,163 332.5,163 332.5,162 
		332.5,162 332.5,162 332.5,161 332.5,161 332.5,160 332.5,160 332.5,160 332.5,160 332.5,160 333.5,160 333.5,159 333.5,160 
		333.5,160 333.5,160 333.5,160 333.5,160 333.5,160 333.5,160 333.5,159 333.5,159 333.5,159 333.5,159 334.5,159 334.5,160 
		334.5,160 334.5,160 334.5,160 334.5,160 334.5,160 334.5,161 334.5,161 334.5,161 334.5,162 334.5,162 334.5,162 335.5,163 
		335.5,163 335.5,164 335.5,164 335.5,165 335.5,165 335.5,165 335.5,165 335.5,166 335.5,166 335.5,166 335.5,166 335.5,166 
		336.5,166 336.5,166 336.5,166 336.5,166 336.5,166 336.5,166 336.5,167 336.5,167 336.5,167 336.5,167 336.5,167 336.5,167 
		336.5,167 337.5,167 337.5,166 337.5,166 337.5,166 337.5,166 337.5,166 337.5,166 337.5,165 337.5,165 337.5,165 337.5,165 
		337.5,165 337.5,165 338.5,165 338.5,165 338.5,165 338.5,165 338.5,165 338.5,165 338.5,165 338.5,164 338.5,164 338.5,164 
		338.5,164 338.5,165 338.5,165 339.5,164 339.5,164 339.5,164 339.5,164 339.5,164 339.5,164 339.5,164 339.5,164 339.5,164 
		339.5,163 339.5,163 339.5,163 339.5,163 340.5,162 340.5,162 340.5,162 340.5,162 340.5,162 340.5,161 340.5,161 340.5,161 
		340.5,160 340.5,160 340.5,160 340.5,159 340.5,159 341.5,159 341.5,158 341.5,158 341.5,158 341.5,157 341.5,157 341.5,157 
		341.5,157 341.5,156 341.5,156 341.5,156 341.5,156 341.5,156 342.5,156 342.5,155 342.5,155 342.5,155 342.5,155 342.5,156 
		342.5,156 342.5,156 342.5,157 342.5,157 342.5,157 342.5,158 342.5,158 343.5,159 343.5,159 343.5,160 343.5,161 343.5,162 
		343.5,162 343.5,163 343.5,164 343.5,164 343.5,165 343.5,166 343.5,167 343.5,167 344.5,168 344.5,168 344.5,169 344.5,170 
		344.5,170 344.5,171 344.5,171 344.5,172 344.5,172 344.5,173 344.5,173 344.5,173 344.5,174 345.5,174 345.5,174 345.5,174 
		345.5,174 345.5,175 345.5,175 345.5,175 345.5,175 345.5,175 345.5,175 345.5,175 345.5,175 345.5,174 346.5,174 346.5,174 
		346.5,174 346.5,174 346.5,174 346.5,174 346.5,174 346.5,175 346.5,175 346.5,175 346.5,176 346.5,176 346.5,176 347.5,177 
		347.5,178 347.5,178 347.5,178 347.5,179 347.5,179 347.5,180 347.5,180 347.5,180 347.5,181 347.5,181 347.5,181 347.5,181 
		348.5,181 348.5,181 348.5,180 348.5,180 348.5,180 348.5,180 348.5,180 348.5,180 348.5,180 348.5,180 348.5,181 348.5,181 
		348.5,181 349.5,181 349.5,182 349.5,182 349.5,182 349.5,183 349.5,184 349.5,183 349.5,184 349.5,184 349.5,184 349.5,184 
		349.5,185 349.5,185 350.5,186 350.5,186 350.5,186 350.5,187 350.5,187 350.5,187 350.5,188 350.5,188 350.5,188 350.5,188 
		350.5,189 350.5,189 350.5,189 351.5,189 351.5,189 351.5,189 351.5,189 351.5,189 351.5,189 351.5,189 351.5,189 351.5,189 
		351.5,189 351.5,188 351.5,187 351.5,187 352.5,186 352.5,186 352.5,185 352.5,184 352.5,183 352.5,183 352.5,182 352.5,182 
		352.5,182 352.5,181 352.5,180 352.5,180 352.5,179 353.5,178 353.5,178 353.5,178 353.5,178 353.5,178 353.5,178 353.5,179 
		353.5,179 353.5,179 353.5,179 353.5,179 353.5,179 353.5,179 354.5,179 354.5,179 354.5,179 354.5,179 354.5,179 354.5,179 
		354.5,179 354.5,179 354.5,179 354.5,179 354.5,180 354.5,179 354.5,179 355.5,179 355.5,179 355.5,179 355.5,179 355.5,179 
		355.5,179 355.5,179 355.5,179 355.5,179 355.5,179 355.5,179 355.5,179 355.5,179 356.5,179 356.5,180 356.5,180 356.5,180 
		356.5,180 356.5,180 356.5,180 356.5,181 356.5,181 356.5,181 356.5,181 356.5,182 356.5,182 357.5,182 357.5,182 357.5,183 
		357.5,183 357.5,184 357.5,184 357.5,184 357.5,184 357.5,184 357.5,184 357.5,184 357.5,184 357.5,184 358.5,183 358.5,183 
		358.5,183 358.5,182 358.5,182 358.5,182 358.5,182 358.5,181 358.5,181 358.5,181 358.5,181 358.5,181 358.5,181 359.5,180 
		359.5,180 359.5,180 359.5,180 359.5,180 359.5,179 359.5,179 359.5,179 359.5,179 359.5,179 359.5,179 359.5,178 359.5,178 
		360.5,178 360.5,178 360.5,177 360.5,177 360.5,177 360.5,177 360.5,177 360.5,177 360.5,177 360.5,177 360.5,177 360.5,177 
		360.5,177 361.5,177 361.5,177 361.5,177 361.5,177 361.5,177 361.5,177 361.5,177 361.5,177 361.5,176 361.5,176 361.5,176 
		361.5,176 361.5,175 362.5,175 362.5,175 362.5,175 362.5,175 362.5,175 362.5,174 362.5,174 362.5,174 362.5,174 362.5,174 
		362.5,174 362.5,174 362.5,174 363.5,173 363.5,173 363.5,173 363.5,174 363.5,174 363.5,175 363.5,175 363.5,176 363.5,175 
		363.5,176 363.5,176 363.5,176 363.5,176 364.5,176 364.5,176 364.5,176 364.5,176 364.5,176 364.5,175 364.5,175 364.5,175 
		364.5,174 364.5,174 364.5,174 364.5,173 364.5,173 365.5,173 365.5,172 365.5,171 365.5,171 365.5,171 365.5,171 365.5,170 
		365.5,170 365.5,170 365.5,170 365.5,169 365.5,169 365.5,169 366.5,169 366.5,168 366.5,168 366.5,168 366.5,168 366.5,167 
		366.5,167 366.5,167 366.5,167 366.5,167 366.5,166 366.5,166 366.5,166 367.5,166 367.5,166 367.5,166 367.5,166 367.5,166 
		367.5,166 367.5,166 367.5,166 367.5,166 367.5,166 367.5,167 367.5,167 367.5,167 368.5,168 368.5,168 368.5,168 368.5,169 
		368.5,169 368.5,170 368.5,170 368.5,170 368.5,171 368.5,171 368.5,171 368.5,172 368.5,172 369.5,173 369.5,173 369.5,173 
		369.5,174 369.5,174 369.5,174 369.5,175 369.5,175 369.5,176 369.5,176 369.5,176 369.5,177 369.5,177 370.5,177 370.5,177 
		370.5,177 370.5,177 370.5,177 370.5,176 370.5,176 370.5,176 370.5,176 370.5,175 370.5,175 370.5,175 370.5,175 371.5,175 
		371.5,175 371.5,175 371.5,175 371.5,175 371.5,176 371.5,176 371.5,176 371.5,176 371.5,177 371.5,177 371.5,177 371.5,177 
		372.5,178 372.5,178 372.5,178 372.5,179 372.5,179 372.5,180 372.5,181 372.5,181 372.5,182 372.5,183 372.5,183 372.5,184 
		372.5,184 373.5,185 373.5,185 373.5,185 373.5,185 373.5,185 373.5,185 373.5,185 373.5,185 373.5,185 373.5,184 373.5,184 
		373.5,184 373.5,183 374.5,183 374.5,183 374.5,183 374.5,182 374.5,182 374.5,182 374.5,182 374.5,182 374.5,182 374.5,182 
		374.5,182 374.5,182 374.5,182 375.5,182 375.5,182 375.5,182 375.5,182 375.5,182 375.5,182 375.5,182 375.5,182 375.5,182 
		375.5,182 375.5,182 375.5,182 375.5,182 376.5,182 376.5,182 376.5,182 376.5,182 376.5,182 376.5,183 376.5,183 376.5,183 
		376.5,183 376.5,184 376.5,184 376.5,185 376.5,185 377.5,186 377.5,186 377.5,187 377.5,187 377.5,187 377.5,187 377.5,188 
		377.5,188 377.5,188 377.5,188 377.5,188 377.5,188 377.5,188 378.5,188 378.5,188 378.5,188 378.5,188 378.5,188 378.5,188 
		378.5,188 378.5,188 378.5,188 378.5,188 378.5,189 378.5,189 378.5,189 379.5,189 379.5,190 379.5,190 379.5,191 379.5,191 
		379.5,192 379.5,192 379.5,192 379.5,193 379.5,193 379.5,194 379.5,194 380.5,194 380.5,195 380.5,195 380.5,195 380.5,195 
		380.5,195 380.5,195 380.5,194 380.5,194 380.5,194 380.5,194 380.5,194 380.5,194 381.5,194 381.5,194 381.5,194 381.5,194 
		381.5,194 381.5,195 381.5,195 381.5,195 381.5,195 381.5,195 381.5,195 381.5,194 381.5,194 382.5,194 382.5,194 382.5,194 
		382.5,194 382.5,194 382.5,194 382.5,194 382.5,193 382.5,194 382.5,194 382.5,194 382.5,194 382.5,194 383.5,194 383.5,194 
		383.5,194 383.5,193 383.5,193 383.5,193 383.5,193 383.5,193 383.5,193 383.5,193 383.5,193 383.5,193 383.5,193 384.5,193 
		384.5,192 384.5,192 384.5,192 384.5,192 384.5,192 384.5,192 384.5,192 384.5,193 384.5,193 384.5,193 384.5,193 384.5,193 
		385.5,193 385.5,193 385.5,193 385.5,193 385.5,193 385.5,193 385.5,193 385.5,193 385.5,194 385.5,194 385.5,193 385.5,193 
		385.5,193 386.5,193 386.5,193 386.5,193 386.5,193 386.5,193 386.5,193 386.5,193 386.5,193 386.5,193 386.5,193 386.5,193 
		386.5,193 386.5,193 387.5,192 387.5,192 387.5,192 387.5,192 387.5,193 387.5,193 387.5,193 387.5,192 387.5,192 387.5,192 
		387.5,192 387.5,192 387.5,192 388.5,193 388.5,193 388.5,193 388.5,193 388.5,193 388.5,193 388.5,193 388.5,193 388.5,193 
		388.5,193 388.5,193 388.5,193 388.5,193 389.5,193 389.5,193 389.5,193 389.5,192 389.5,192 389.5,192 389.5,192 389.5,192 
		389.5,192 389.5,192 389.5,192 389.5,192 389.5,192 390.5,192 390.5,192 390.5,192 390.5,192 390.5,193 390.5,192 390.5,192 
		390.5,192 390.5,192 390.5,192 390.5,192 390.5,192 390.5,192 391.5,192 391.5,191 391.5,191 391.5,191 391.5,191 391.5,191 
		391.5,191 391.5,191 391.5,190 391.5,190 391.5,191 391.5,190 391.5,190 392.5,190 392.5,190 392.5,190 392.5,190 392.5,190 
		392.5,190 392.5,190 392.5,190 392.5,190 392.5,190 392.5,190 392.5,190 392.5,190 393.5,190 393.5,190 393.5,190 393.5,190 
		393.5,190 393.5,190 393.5,190 393.5,190 393.5,190 393.5,190 393.5,189 393.5,189 393.5,189 394.5,189 394.5,189 394.5,189 
		394.5,188 394.5,188 394.5,188 394.5,188 394.5,188 394.5,187 394.5,187 394.5,187 394.5,187 394.5,187 395.5,186 395.5,186 
		395.5,186 395.5,186 395.5,186 395.5,186 395.5,186 395.5,185 395.5,185 395.5,185 395.5,185 395.5,184 395.5,184 396.5,184 
		396.5,184 396.5,184 396.5,183 396.5,183 396.5,183 396.5,182 396.5,182 396.5,182 396.5,182 396.5,182 396.5,182 396.5,182 
		397.5,181 397.5,181 397.5,181 397.5,181 397.5,181 397.5,180 397.5,180 397.5,180 397.5,180 397.5,180 397.5,179 397.5,179 
		397.5,179 398.5,179 398.5,179 398.5,179 398.5,179 398.5,179 398.5,179 398.5,179 398.5,179 398.5,179 398.5,180 398.5,180 
		398.5,180 398.5,180 399.5,180 399.5,180 399.5,180 399.5,180 399.5,181 399.5,181 399.5,181 399.5,181 399.5,181 399.5,181 
		399.5,181 399.5,182 399.5,182 400.5,182 400.5,182 400.5,182 400.5,182 400.5,182 400.5,182 400.5,182 400.5,182 400.5,182 
		400.5,182 400.5,182 400.5,182 400.5,183 401.5,183 401.5,183 401.5,183 401.5,183 401.5,183 401.5,183 401.5,183 401.5,183 
		401.5,183 401.5,182 401.5,182 401.5,182 401.5,182 402.5,182 402.5,182 402.5,182 402.5,182 402.5,182 402.5,182 402.5,182 
		402.5,182 402.5,182 402.5,182 402.5,182 402.5,182 402.5,182 403.5,182 403.5,181 403.5,181 403.5,181 403.5,181 403.5,181 
		403.5,181 403.5,180 403.5,180 403.5,180 403.5,180 403.5,180 403.5,180 404.5,180 404.5,180 404.5,180 404.5,180 404.5,179 
		404.5,178 404.5,177 404.5,176 404.5,176 404.5,175 404.5,175 404.5,174 404.5,173 405.5,172 405.5,172 405.5,171 405.5,171 
		405.5,171 405.5,171 405.5,170 405.5,170 405.5,170 405.5,169 405.5,169 405.5,169 405.5,168 406.5,168 406.5,168 406.5,168 
		406.5,168 406.5,167 406.5,167 406.5,167 406.5,167 406.5,167 406.5,167 406.5,166 406.5,166 406.5,166 407.5,166 407.5,166 
		407.5,166 407.5,165 407.5,165 407.5,165 407.5,165 407.5,165 407.5,164 407.5,164 407.5,164 407.5,164 407.5,164 408.5,164 
		408.5,163 408.5,164 408.5,164 408.5,164 408.5,164 408.5,164 408.5,164 408.5,164 408.5,164 408.5,164 408.5,165 408.5,165 
		409.5,165 409.5,165 409.5,165 409.5,165 409.5,166 409.5,166 409.5,166 409.5,166 409.5,166 409.5,167 409.5,167 409.5,167 
		409.5,167 410.5,167 410.5,168 410.5,169 410.5,170 410.5,170 410.5,169 410.5,169 410.5,169 410.5,169 410.5,169 410.5,169 
		410.5,169 410.5,169 411.5,170 411.5,170 411.5,170 411.5,170 411.5,170 411.5,171 411.5,171 411.5,171 411.5,171 411.5,171 
		411.5,171 411.5,171 411.5,171 412.5,172 412.5,172 412.5,172 412.5,172 412.5,172 412.5,172 412.5,172 412.5,173 412.5,173 
		412.5,173 412.5,173 412.5,173 412.5,173 413.5,173 413.5,173 413.5,174 413.5,174 413.5,174 413.5,174 413.5,174 413.5,174 
		413.5,174 413.5,174 413.5,174 413.5,174 413.5,174 414.5,175 414.5,175 414.5,175 414.5,175 414.5,175 414.5,175 414.5,175 
		414.5,176 414.5,176 414.5,176 414.5,176 414.5,176 414.5,176 415.5,176 415.5,176 415.5,176 415.5,176 415.5,176 415.5,176 
		415.5,176 415.5,177 415.5,177 415.5,177 415.5,177 415.5,177 415.5,177 416.5,177 416.5,177 416.5,177 416.5,177 416.5,177 
		416.5,177 416.5,177 416.5,177 416.5,177 416.5,177 416.5,177 416.5,177 416.5,177 417.5,177 417.5,177 417.5,177 417.5,177 
		417.5,177 417.5,177 417.5,177 417.5,177 417.5,177 417.5,177 417.5,177 417.5,177 417.5,177 418.5,176 418.5,176 418.5,176 
		418.5,176 418.5,176 418.5,176 418.5,176 418.5,176 418.5,175 418.5,175 418.5,175 418.5,175 418.5,175 419.5,175 419.5,175 
		419.5,174 419.5,174 419.5,174 419.5,174 419.5,174 419.5,174 419.5,174 419.5,174 419.5,174 419.5,174 419.5,174 420.5,174 
		420.5,174 420.5,174 420.5,174 420.5,174 420.5,174 420.5,175 420.5,175 420.5,175 420.5,175 420.5,175 420.5,175 420.5,175 
		421.5,176 421.5,176 421.5,176 421.5,176 421.5,176 421.5,176 421.5,176 421.5,176 421.5,177 421.5,177 421.5,177 421.5,177 
		421.5,177 422.5,177 422.5,177 422.5,177 422.5,177 422.5,177 422.5,177 422.5,177 422.5,177 422.5,177 422.5,177 422.5,177 
		422.5,177 422.5,177 423.5,177 423.5,177 423.5,177 423.5,177 423.5,177 423.5,177 423.5,177 423.5,177 423.5,177 423.5,176 
		423.5,176 423.5,176 423.5,176 424.5,176 424.5,176 424.5,176 424.5,176 424.5,176 424.5,176 424.5,176 424.5,176 424.5,175 
		424.5,175 424.5,175 424.5,175 424.5,175 425.5,175 425.5,175 425.5,175 425.5,175 425.5,174 425.5,174 425.5,174 425.5,174 
		425.5,174 425.5,174 425.5,174 425.5,174 425.5,174 426.5,174 426.5,174 426.5,174 426.5,174 426.5,173 426.5,173 426.5,173 
		426.5,173 426.5,173 426.5,173 426.5,173 426.5,173 426.5,173 427.5,172 427.5,172 427.5,172 427.5,172 427.5,172 427.5,172 
		427.5,171 427.5,171 427.5,171 427.5,171 427.5,171 427.5,171 427.5,170 428.5,170 428.5,170 428.5,170 428.5,170 428.5,170 
		428.5,169 428.5,169 428.5,169 428.5,169 428.5,169 428.5,169 428.5,169 428.5,168 429.5,168 429.5,168 429.5,168 429.5,168 
		429.5,168 429.5,167 429.5,167 429.5,167 429.5,167 429.5,167 429.5,167 429.5,167 429.5,167 430.5,166 430.5,166 430.5,166 
		430.5,166 430.5,166 430.5,166 430.5,166 430.5,166 430.5,166 430.5,166 430.5,166 430.5,166 430.5,166 431.5,166 431.5,166 
		431.5,166 431.5,166 431.5,166 431.5,166 431.5,166 431.5,166 431.5,166 431.5,166 431.5,166 431.5,166 431.5,166 432.5,166 
		432.5,166 432.5,166 432.5,166 432.5,166 432.5,166 432.5,167 432.5,167 432.5,167 432.5,166 432.5,166 432.5,166 432.5,166 
		433.5,166 433.5,166 433.5,166 433.5,166 433.5,166 433.5,166 433.5,166 433.5,166 433.5,166 433.5,166 433.5,166 433.5,166 
		433.5,166 434.5,166 434.5,166 434.5,166 434.5,166 434.5,166 434.5,166 434.5,166 434.5,166 434.5,166 434.5,166 434.5,167 
		434.5,167 434.5,167 435.5,167 435.5,167 435.5,168 435.5,168 435.5,168 435.5,168 435.5,169 435.5,169 435.5,169 435.5,169 
		435.5,169 435.5,169 435.5,169 436.5,169 436.5,169 436.5,169 436.5,169 436.5,169 436.5,170 436.5,170 436.5,170 436.5,170 
		436.5,171 436.5,171 436.5,171 437.5,171 437.5,171 437.5,171 437.5,172 437.5,172 437.5,172 437.5,172 437.5,172 437.5,172 
		437.5,172 437.5,173 437.5,173 437.5,173 438.5,173 438.5,173 438.5,173 438.5,174 438.5,174 438.5,174 438.5,174 438.5,174 
		438.5,174 438.5,175 438.5,175 438.5,175 438.5,175 439.5,175 439.5,175 439.5,175 439.5,175 439.5,174 439.5,174 439.5,174 
		439.5,173 439.5,173 439.5,173 439.5,173 439.5,173 439.5,173 440.5,173 440.5,172 440.5,172 440.5,172 440.5,172 440.5,172 
		440.5,172 440.5,171 440.5,171 440.5,171 440.5,171 440.5,171 440.5,171 441.5,170 441.5,170 441.5,170 441.5,170 441.5,170 
		441.5,170 441.5,170 441.5,170 441.5,170 441.5,170 441.5,169 441.5,169 441.5,169 442.5,169 442.5,169 442.5,169 442.5,169 
		442.5,169 442.5,169 442.5,168 442.5,169 442.5,169 442.5,169 442.5,168 442.5,168 442.5,168 443.5,168 443.5,168 443.5,168 
		443.5,168 443.5,168 443.5,168 443.5,168 443.5,167 443.5,167 443.5,167 443.5,167 443.5,167 443.5,167 444.5,167 444.5,166 
		444.5,166 444.5,166 444.5,165 444.5,165 444.5,165 444.5,165 444.5,164 444.5,164 444.5,164 444.5,164 444.5,164 445.5,164 
		445.5,164 445.5,164 445.5,164 445.5,164 445.5,163 445.5,163 445.5,163 445.5,164 445.5,163 445.5,163 445.5,163 445.5,163 
		446.5,163 446.5,163 446.5,163 446.5,163 446.5,163 446.5,163 446.5,163 446.5,163 446.5,163 446.5,163 446.5,163 446.5,163 
		446.5,163 447.5,163 447.5,163 447.5,163 447.5,163 447.5,162 447.5,162 447.5,162 447.5,162 447.5,161 447.5,161 447.5,161 
		447.5,160 447.5,160 448.5,160 448.5,160 448.5,160 448.5,160 448.5,160 448.5,160 448.5,160 448.5,161 448.5,161 448.5,161 
		448.5,162 448.5,162 448.5,162 449.5,161 449.5,161 449.5,161 449.5,161 449.5,160 449.5,160 449.5,160 449.5,159 449.5,159 
		449.5,158 449.5,158 449.5,158 449.5,158 450.5,157 450.5,157 450.5,157 450.5,157 450.5,157 450.5,157 450.5,156 450.5,156 
		450.5,156 450.5,156 450.5,156 450.5,157 450.5,157 451.5,157 451.5,157 451.5,157 451.5,157 451.5,157 451.5,157 451.5,158 
		451.5,158 451.5,158 451.5,159 451.5,159 451.5,159 451.5,159 452.5,159 452.5,159 452.5,159 452.5,159 452.5,159 452.5,158 
		452.5,158 452.5,158 452.5,158 452.5,158 452.5,157 452.5,157 452.5,157 453.5,157 453.5,157 453.5,157 453.5,156 453.5,156 
		453.5,156 453.5,156 453.5,156 453.5,156 453.5,156 453.5,156 453.5,156 453.5,156 454.5,156 454.5,156 454.5,156 454.5,156 
		454.5,156 454.5,156 454.5,156 454.5,156 454.5,156 454.5,156 454.5,155 454.5,155 454.5,154 455.5,154 455.5,154 455.5,154 
		455.5,154 455.5,154 455.5,154 455.5,154 455.5,154 455.5,154 455.5,154 455.5,154 455.5,154 455.5,154 456.5,154 456.5,154 
		456.5,154 456.5,155 456.5,156 456.5,157 456.5,156 456.5,156 456.5,154 456.5,153 456.5,153 456.5,153 456.5,153 457.5,152 
		457.5,152 457.5,152 457.5,152 457.5,152 457.5,152 457.5,152 457.5,153 457.5,153 457.5,153 457.5,153 457.5,153 457.5,153 
		458.5,152 458.5,152 458.5,152 458.5,152 458.5,152 458.5,152 458.5,153 458.5,153 458.5,153 458.5,153 458.5,153 458.5,153 
		458.5,153 459.5,153 459.5,153 459.5,152 459.5,152 459.5,151 459.5,151 459.5,151 459.5,151 459.5,151 459.5,151 459.5,151 
		459.5,151 459.5,151 460.5,151 460.5,151 460.5,151 460.5,151 460.5,150 460.5,150 460.5,150 460.5,150 460.5,150 460.5,150 
		460.5,150 460.5,149 460.5,149 461.5,149 461.5,148 461.5,148 461.5,148 461.5,147 461.5,147 461.5,147 461.5,147 461.5,147 
		461.5,146 461.5,146 461.5,146 461.5,146 462.5,146 462.5,146 462.5,145 462.5,145 462.5,145 462.5,145 462.5,144 462.5,144 
		462.5,144 462.5,144 462.5,144 462.5,144 462.5,144 463.5,144 463.5,143 463.5,143 463.5,143 463.5,143 463.5,143 463.5,143 
		463.5,142 463.5,142 463.5,142 463.5,142 463.5,142 463.5,142 464.5,142 464.5,142 464.5,142 464.5,141 464.5,141 464.5,141 
		464.5,141 464.5,141 464.5,141 464.5,141 464.5,140 464.5,140 464.5,140 465.5,140 465.5,139 465.5,139 465.5,139 465.5,139 
		465.5,139 465.5,138 465.5,138 465.5,137 465.5,137 465.5,136 465.5,136 465.5,135 466.5,135 466.5,134 466.5,133 466.5,133 
		466.5,132 466.5,132 466.5,132 466.5,132 466.5,132 466.5,133 466.5,133 466.5,133 466.5,133 467.5,134 467.5,134 467.5,134 
		467.5,134 467.5,134 467.5,135 467.5,135 467.5,135 467.5,135 467.5,135 467.5,135 467.5,135 467.5,135 468.5,135 468.5,135 
		468.5,135 468.5,135 468.5,135 468.5,135 468.5,135 468.5,135 468.5,135 468.5,134 468.5,134 468.5,134 468.5,134 469.5,134 
		469.5,133 469.5,133 469.5,133 469.5,133 469.5,133 469.5,132 469.5,132 469.5,132 469.5,132 469.5,132 469.5,132 469.5,131 
		470.5,131 470.5,131 470.5,131 470.5,131 470.5,131 470.5,131 470.5,131 470.5,131 470.5,131 470.5,131 470.5,131 470.5,131 
		470.5,131 471.5,131 471.5,131 471.5,131 471.5,131 471.5,131 471.5,131 471.5,131 471.5,131 471.5,131 471.5,131 471.5,131 
		471.5,130 471.5,130 472.5,130 472.5,130 472.5,130 472.5,130 472.5,129 472.5,129 472.5,129 472.5,129 472.5,129 472.5,129 
		472.5,129 472.5,128 472.5,128 473.5,128 473.5,128 473.5,128 473.5,128 473.5,128 473.5,127 473.5,127 473.5,127 473.5,127 
		473.5,127 473.5,126 473.5,126 473.5,125 474.5,125 474.5,124 474.5,124 474.5,123 474.5,123 474.5,122 474.5,122 474.5,121 
		474.5,121 474.5,120 474.5,120 474.5,119 474.5,119 475.5,119 475.5,119 475.5,119 475.5,119 475.5,119 475.5,119 475.5,119 
		475.5,118 475.5,118 475.5,118 475.5,117 475.5,117 475.5,117 476.5,117 476.5,116 476.5,116 476.5,116 476.5,116 476.5,115 
		476.5,115 476.5,115 476.5,115 476.5,114 476.5,114 476.5,114 476.5,114 477.5,113 477.5,113 477.5,113 477.5,113 477.5,112 
		477.5,112 477.5,112 477.5,111 477.5,111 477.5,111 477.5,111 477.5,110 477.5,110 478.5,110 478.5,109 478.5,109 478.5,108 
		478.5,108 478.5,108 478.5,107 478.5,107 478.5,106 478.5,106 478.5,105 478.5,105 478.5,104 479.5,104 479.5,104 479.5,103 
		479.5,103 479.5,103 479.5,102 479.5,102 479.5,101 479.5,101 479.5,100 479.5,99 479.5,98 479.5,98 480.5,99 480.5,99 480.5,99 
		480.5,99 480.5,99 480.5,100 480.5,100 480.5,100 480.5,100 480.5,100 480.5,100 480.5,101 480.5,101 481.5,101 481.5,101 
		481.5,101 481.5,102 481.5,102 481.5,102 481.5,102 481.5,102 481.5,103 481.5,103 481.5,103 481.5,103 481.5,103 482.5,104 
		482.5,104 482.5,104 482.5,104 482.5,105 482.5,105 482.5,105 482.5,106 482.5,106 482.5,106 482.5,106 482.5,106 482.5,107 
		483.5,107 483.5,107 483.5,107 483.5,107 483.5,107 483.5,108 483.5,108 483.5,108 483.5,108 483.5,108 483.5,108 483.5,108 
		483.5,108 484.5,108 484.5,108 484.5,108 484.5,108 484.5,108 484.5,109 484.5,108 484.5,108 484.5,109 484.5,109 484.5,109 
		484.5,109 484.5,109 485.5,109 485.5,110 485.5,110 485.5,110 485.5,110 485.5,110 485.5,110 485.5,110 485.5,111 485.5,111 
		485.5,111 485.5,112 485.5,112 486.5,112 486.5,113 486.5,113 486.5,113 486.5,114 486.5,114 486.5,114 486.5,115 486.5,115 
		486.5,115 486.5,116 486.5,116 486.5,116 487.5,117 487.5,117 487.5,117 487.5,117 487.5,118 487.5,118 487.5,118 487.5,118 
		487.5,118 487.5,118 487.5,119 487.5,119 487.5,119 488.5,119 488.5,119 488.5,119 488.5,119 488.5,120 488.5,120 488.5,120 
		488.5,120 488.5,120 488.5,120 488.5,120 488.5,121 488.5,121 489.5,121 489.5,121 489.5,121 489.5,121 489.5,122 489.5,122 
		489.5,122 489.5,122 489.5,122 489.5,123 489.5,123 489.5,123 489.5,123 490.5,123 490.5,123 490.5,123 490.5,123 490.5,123 
		490.5,124 490.5,124 490.5,124 490.5,124 490.5,124 490.5,125 490.5,125 490.5,125 491.5,125 491.5,125 491.5,125 491.5,125 
		491.5,125 491.5,126 491.5,126 491.5,126 491.5,126 491.5,126 491.5,126 491.5,126 491.5,126 492.5,126 492.5,126 492.5,126 
		492.5,126 492.5,126 492.5,126 492.5,126 492.5,126 492.5,126 492.5,126 492.5,126 492.5,126 492.5,127 493.5,127 493.5,127 
		493.5,127 493.5,127 493.5,127 493.5,127 493.5,127 493.5,127 493.5,127 493.5,126 493.5,126 493.5,126 493.5,126 494.5,126 
		494.5,126 494.5,126 494.5,126 494.5,126 494.5,126 494.5,126 494.5,126 494.5,126 494.5,126 494.5,127 494.5,127 495.5,127 
		495.5,127 495.5,127 495.5,127 495.5,127 495.5,127 495.5,127 495.5,127 495.5,127 495.5,127 495.5,128 495.5,128 495.5,128 
		496.5,128 496.5,128 496.5,128 496.5,128 496.5,128 496.5,128 496.5,128 496.5,128 496.5,129 496.5,129 496.5,129 496.5,129 
		496.5,129 497.5,130 497.5,130 497.5,130 497.5,130 497.5,130 497.5,130 497.5,131 497.5,131 497.5,131 497.5,131 497.5,131 
		497.5,131 497.5,131 498.5,130 498.5,130 498.5,130 498.5,130 498.5,130 498.5,130 498.5,130 498.5,130 498.5,130 498.5,130 
		498.5,130 498.5,130 498.5,130 499.5,130 499.5,130 499.5,130 499.5,130 499.5,130 499.5,130 499.5,131 499.5,131 499.5,131 
		499.5,131 499.5,131 499.5,132 499.5,132 500.5,132 500.5,132 500.5,133 500.5,133 500.5,133 500.5,134 500.5,134 500.5,134 
		500.5,135 500.5,135 500.5,135 500.5,135 500.5,136 501.5,136 501.5,137 501.5,137 501.5,138 501.5,138 501.5,138 501.5,139 
		501.5,139 501.5,139 501.5,139 501.5,139 501.5,140 501.5,140 502.5,140 502.5,140 502.5,141 502.5,141 502.5,141 502.5,141 
		502.5,141 502.5,141 502.5,142 502.5,142 502.5,142 502.5,142 502.5,142 503.5,142 503.5,143 503.5,143 503.5,143 503.5,144 
		503.5,144 503.5,144 503.5,145 503.5,145 503.5,145 503.5,145 503.5,145 503.5,145 504.5,145 504.5,145 504.5,146 504.5,146 
		504.5,146 504.5,146 504.5,146 504.5,147 504.5,147 504.5,147 504.5,147 504.5,147 504.5,147 505.5,147 505.5,148 505.5,148 
		505.5,148 505.5,148 505.5,149 505.5,149 505.5,149 505.5,149 505.5,150 505.5,150 505.5,150 505.5,150 506.5,151 506.5,151 
		506.5,151 506.5,151 506.5,151 506.5,151 506.5,151 506.5,152 506.5,152 506.5,152 506.5,152 506.5,152 506.5,152 507.5,153 
		507.5,153 507.5,153 507.5,152 507.5,152 507.5,152 507.5,153 507.5,153 507.5,153 507.5,153 507.5,153 507.5,153 507.5,153 
		508.5,153 508.5,154 508.5,154 508.5,154 508.5,154 508.5,154 508.5,154 508.5,154 508.5,154 508.5,154 508.5,154 508.5,154 
		508.5,154 509.5,154 509.5,155 509.5,155 509.5,155 509.5,155 509.5,155 509.5,155 509.5,156 509.5,156 509.5,156 509.5,157 
		509.5,157 509.5,157 510.5,157 510.5,157 510.5,158 510.5,158 510.5,158 510.5,158 510.5,158 510.5,159 510.5,159 510.5,159 
		510.5,159 510.5,159 510.5,159 511.5,159 511.5,159 511.5,160 511.5,160 511.5,160 511.5,161 511.5,161 511.5,161 511.5,161 
		511.5,162 511.5,162 511.5,162 511.5,162 512.5,162 512.5,162 512.5,161 512.5,161 512.5,161 512.5,162 512.5,162 512.5,161 
		512.5,161 512.5,161 512.5,161 512.5,161 512.5,161 513.5,161 513.5,161 513.5,160 513.5,160 513.5,160 513.5,160 513.5,160 
		513.5,160 513.5,160 513.5,159 513.5,159 513.5,159 513.5,160 514.5,159 514.5,159 514.5,159 514.5,159 514.5,159 514.5,159 
		514.5,159 514.5,159 514.5,159 514.5,159 514.5,159 514.5,159 514.5,159 515.5,159 515.5,159 515.5,159 515.5,159 515.5,159 
		515.5,160 515.5,160 515.5,160 515.5,160 515.5,160 515.5,160 515.5,161 515.5,161 516.5,161 516.5,162 516.5,162 516.5,162 
		516.5,162 516.5,163 516.5,163 516.5,164 516.5,164 516.5,164 516.5,164 516.5,164 516.5,165 517.5,165 517.5,165 517.5,166 
		517.5,166 517.5,166 517.5,166 517.5,167 517.5,167 517.5,168 517.5,168 517.5,168 517.5,168 517.5,169 518.5,169 518.5,169 
		518.5,169 518.5,169 518.5,170 518.5,170 518.5,170 518.5,170 518.5,170 518.5,170 518.5,170 518.5,170 518.5,170 519.5,170 
		519.5,170 519.5,170 519.5,170 519.5,170 519.5,170 519.5,170 519.5,170 519.5,170 519.5,170 519.5,170 519.5,170 519.5,170 
		520.5,170 520.5,170 520.5,170 520.5,170 520.5,170 520.5,170 520.5,170 520.5,169 520.5,169 520.5,169 520.5,169 520.5,169 
		520.5,169 521.5,169 521.5,169 521.5,169 521.5,168 521.5,168 521.5,168 521.5,168 521.5,168 521.5,169 521.5,169 521.5,169 
		521.5,170 521.5,170 522.5,170 522.5,170 522.5,170 522.5,170 522.5,169 522.5,169 522.5,169 522.5,169 522.5,169 522.5,169 
		522.5,169 522.5,169 522.5,169 523.5,169 523.5,169 523.5,169 523.5,169 523.5,169 523.5,169 523.5,169 523.5,169 523.5,169 
		523.5,169 523.5,169 523.5,169 523.5,169 524.5,169 524.5,169 524.5,169 524.5,168 524.5,168 524.5,169 524.5,169 524.5,168 
		524.5,168 524.5,168 524.5,168 524.5,168 524.5,168 525.5,169 525.5,169 525.5,169 525.5,168 525.5,168 525.5,167 525.5,167 
		525.5,167 525.5,167 525.5,168 525.5,167 525.5,167 525.5,168 526.5,168 526.5,168 526.5,167 526.5,167 526.5,167 526.5,167 
		526.5,167 526.5,167 526.5,167 526.5,167 526.5,167 526.5,167 526.5,167 527.5,167 527.5,167 527.5,167 527.5,167 527.5,167 
		527.5,166 527.5,166 527.5,166 527.5,166 527.5,166 527.5,166 527.5,166 527.5,165 528.5,165 528.5,165 528.5,165 528.5,165 
		528.5,165 528.5,165 528.5,165 528.5,164 528.5,164 528.5,164 528.5,164 528.5,164 528.5,164 529.5,164 529.5,164 529.5,164 
		529.5,164 529.5,164 529.5,164 529.5,164 529.5,164 529.5,164 529.5,164 529.5,164 529.5,164 529.5,164 530.5,164 530.5,164 
		530.5,164 530.5,164 530.5,164 530.5,164 530.5,164 530.5,163 530.5,163 530.5,163 530.5,163 530.5,163 530.5,163 531.5,163 
		531.5,163 531.5,163 531.5,163 531.5,163 531.5,163 531.5,163 531.5,163 531.5,162 531.5,162 531.5,162 531.5,162 531.5,162 
		532.5,162 532.5,162 532.5,162 532.5,162 532.5,161 532.5,161 532.5,161 532.5,161 532.5,161 532.5,161 532.5,161 532.5,161 
		532.5,161 533.5,161 533.5,161 533.5,161 533.5,161 533.5,161 533.5,161 533.5,161 533.5,161 533.5,161 533.5,161 533.5,161 
		533.5,161 533.5,161 534.5,161 534.5,161 534.5,161 534.5,161 534.5,161 534.5,161 534.5,161 534.5,161 534.5,161 534.5,161 
		534.5,161 534.5,161 534.5,161 535.5,161 535.5,161 535.5,161 535.5,161 535.5,161 535.5,161 535.5,161 535.5,161 535.5,161 
		535.5,161 535.5,161 535.5,161 535.5,161 536.5,161 536.5,161 536.5,161 536.5,161 536.5,161 536.5,161 536.5,161 536.5,161 
		536.5,161 536.5,161 536.5,161 536.5,160 536.5,160 537.5,160 537.5,160 537.5,160 537.5,161 537.5,161 537.5,161 537.5,161 
		537.5,161 537.5,161 537.5,161 537.5,161 537.5,161 537.5,160 538.5,160 538.5,160 538.5,160 538.5,160 538.5,159 538.5,159 
		538.5,159 538.5,159 538.5,159 538.5,159 538.5,159 538.5,159 538.5,159 539.5,159 539.5,159 539.5,158 539.5,158 539.5,158 
		539.5,158 539.5,158 539.5,158 539.5,158 539.5,158 539.5,158 539.5,158 539.5,158 540.5,158 540.5,158 540.5,158 540.5,157 
		540.5,157 540.5,157 540.5,156 540.5,156 540.5,156 540.5,156 540.5,156 540.5,156 540.5,156 541.5,156 541.5,155 541.5,155 
		541.5,155 541.5,155 541.5,154 541.5,154 541.5,154 541.5,154 541.5,154 541.5,154 541.5,154 541.5,153 542.5,153 542.5,153 
		542.5,153 542.5,154 542.5,154 542.5,154 542.5,154 542.5,154 542.5,154 542.5,154 542.5,153 542.5,153 542.5,153 543.5,153 
		543.5,153 543.5,153 543.5,153 543.5,153 543.5,153 543.5,153 543.5,153 543.5,153 543.5,153 543.5,153 543.5,152 543.5,152 
		544.5,152 544.5,152 544.5,152 544.5,152 544.5,152 544.5,152 544.5,151 544.5,151 544.5,151 544.5,151 544.5,151 544.5,151 
		544.5,151 545.5,151 545.5,151 545.5,151 545.5,152 545.5,152 545.5,152 545.5,152 545.5,151 545.5,151 545.5,150 545.5,150 
		545.5,150 545.5,150 546.5,150 546.5,150 546.5,150 546.5,150 546.5,150 546.5,149 546.5,149 546.5,149 546.5,149 546.5,149 
		546.5,149 546.5,149 546.5,149 547.5,149 547.5,149 547.5,148 547.5,148 547.5,148 547.5,148 547.5,148 547.5,148 547.5,148 
		547.5,148 547.5,148 547.5,148 547.5,148 548.5,147 548.5,147 548.5,147 548.5,147 548.5,147 548.5,147 548.5,147 548.5,147 
		548.5,147 548.5,147 548.5,147 548.5,147 548.5,147 549.5,147 549.5,147 549.5,147 549.5,147 549.5,147 549.5,147 549.5,148 
		549.5,148 549.5,148 549.5,148 549.5,149 549.5,149 549.5,149 550.5,149 550.5,149 550.5,150 550.5,150 550.5,150 550.5,150 
		550.5,151 550.5,151 550.5,151 550.5,152 550.5,152 550.5,152 550.5,153 551.5,153 551.5,153 551.5,154 551.5,154 551.5,154 
		551.5,155 551.5,155 551.5,155 551.5,155 551.5,156 551.5,156 551.5,156 552.5,157 552.5,157 552.5,157 552.5,158 552.5,158 
		552.5,158 552.5,159 552.5,159 552.5,159 552.5,159 552.5,160 552.5,160 552.5,160 553.5,161 553.5,161 553.5,161 553.5,161 
		553.5,161 553.5,162 553.5,162 553.5,162 553.5,162 553.5,162 553.5,162 553.5,163 553.5,163 554.5,163 554.5,163 554.5,164 
		554.5,164 554.5,164 554.5,164 554.5,164 554.5,164 554.5,164 554.5,165 554.5,165 554.5,165 554.5,165 555.5,165 555.5,165 
		555.5,165 555.5,165 555.5,166 555.5,166 555.5,166 555.5,166 555.5,166 555.5,166 555.5,166 555.5,167 555.5,167 556.5,167 
		556.5,167 556.5,167 556.5,167 556.5,168 556.5,168 556.5,168 556.5,168 556.5,168 556.5,168 556.5,169 556.5,169 556.5,169 
		557.5,169 557.5,169 557.5,170 557.5,170 557.5,170 557.5,171 557.5,171 557.5,172 557.5,172 557.5,173 557.5,174 557.5,174 
		557.5,174 558.5,174 558.5,174 558.5,174 558.5,174 558.5,174 558.5,174 558.5,174 558.5,174 558.5,174 558.5,175 558.5,175 
		558.5,175 558.5,176 559.5,176 559.5,176 559.5,177 559.5,177 559.5,177 559.5,177 559.5,177 559.5,178 559.5,178 559.5,178 
		559.5,178 559.5,178 559.5,178 560.5,178 560.5,178 560.5,177 560.5,177 560.5,177 560.5,177 560.5,177 560.5,177 560.5,177 
		560.5,177 560.5,177 560.5,176 560.5,176 561.5,176 561.5,176 561.5,175 561.5,175 561.5,175 561.5,175 561.5,175 561.5,175 
		561.5,175 561.5,175 561.5,175 561.5,175 561.5,175 562.5,174 562.5,175 562.5,174 562.5,174 562.5,174 562.5,175 562.5,175 
		562.5,175 562.5,175 562.5,175 562.5,175 562.5,175 562.5,175 563.5,175 563.5,175 563.5,175 563.5,175 563.5,175 563.5,175 
		563.5,176 563.5,176 563.5,176 563.5,176 563.5,177 563.5,177 563.5,177 564.5,178 564.5,178 564.5,178 564.5,179 564.5,179 
		564.5,179 564.5,180 564.5,180 564.5,180 564.5,181 564.5,181 564.5,182 564.5,182 565.5,182 565.5,182 565.5,181 565.5,181 
		565.5,182 565.5,182 565.5,182 565.5,183 565.5,183 565.5,182 565.5,183 565.5,183 565.5,183 566.5,184 566.5,184 566.5,185 
		566.5,185 566.5,186 566.5,186 566.5,187 566.5,188 566.5,189 566.5,189 566.5,190 566.5,191 566.5,191 567.5,192 567.5,193 
		567.5,193 567.5,193 567.5,194 567.5,194 567.5,195 567.5,195 567.5,196 567.5,196 567.5,197 567.5,197 567.5,197 568.5,198 
		568.5,198 568.5,199 568.5,199 568.5,199 568.5,200 568.5,200 568.5,200 568.5,199 568.5,199 568.5,199 568.5,199 568.5,199 
		569.5,199 569.5,198 569.5,198 569.5,197 569.5,197 569.5,197 569.5,197 569.5,197 569.5,197 569.5,197 569.5,197 569.5,197 
		569.5,197 570.5,196 570.5,196 570.5,196 570.5,196 570.5,196 570.5,196 570.5,196 570.5,196 570.5,196 570.5,196 570.5,196 
		570.5,196 570.5,196 571.5,196 571.5,196 571.5,197 571.5,197 571.5,197 571.5,198 571.5,198 571.5,199 571.5,199 571.5,200 
		571.5,200 571.5,200 571.5,200 572.5,200 572.5,199 572.5,199 572.5,198 572.5,198 572.5,197 572.5,197 572.5,196 572.5,196 
		572.5,196 572.5,196 572.5,195 572.5,195 573.5,194 573.5,194 573.5,193 573.5,193 573.5,193 573.5,192 573.5,192 573.5,191 
		573.5,191 573.5,191 573.5,190 573.5,190 573.5,189 574.5,189 574.5,188 574.5,188 574.5,188 574.5,188 574.5,187 574.5,187 
		574.5,187 574.5,187 574.5,187 574.5,187 574.5,188 574.5,188 575.5,188 575.5,188 575.5,188 575.5,188 575.5,188 575.5,188 
		575.5,189 575.5,189 575.5,189 575.5,189 575.5,189 575.5,189 575.5,189 576.5,188 576.5,188 576.5,188 576.5,188 576.5,188 
		576.5,188 576.5,189 576.5,189 576.5,189 576.5,190 576.5,190 576.5,191 576.5,192 577.5,192 577.5,193 577.5,194 577.5,195 
		577.5,196 577.5,197 577.5,198 577.5,199 577.5,200 577.5,200 577.5,201 577.5,202 577.5,203 578.5,203 578.5,204 578.5,205 
		578.5,206 578.5,207 578.5,207 578.5,208 578.5,209 578.5,209 578.5,210 578.5,210 578.5,210 578.5,211 579.5,211 579.5,211 
		579.5,212 579.5,212 579.5,212 579.5,213 579.5,213 579.5,213 579.5,214 579.5,214 579.5,214 579.5,215 579.5,215 580.5,215 
		580.5,215 580.5,215 580.5,216 580.5,216 580.5,215 580.5,214 580.5,214 580.5,213 580.5,213 580.5,213 580.5,212 580.5,212 
		581.5,212 581.5,212 581.5,212 581.5,212 581.5,212 581.5,212 581.5,212 581.5,213 581.5,213 581.5,213 581.5,213 581.5,214 
		581.5,214 582.5,214 582.5,215 582.5,215 582.5,215 582.5,216 582.5,216 582.5,217 582.5,217 582.5,218 582.5,218 582.5,218 
		582.5,218 582.5,219 583.5,219 583.5,219 583.5,218 583.5,218 583.5,218 583.5,217 583.5,217 583.5,217 583.5,217 583.5,217 
		583.5,218 583.5,218 583.5,218 584.5,218 584.5,218 584.5,219 584.5,219 584.5,219 584.5,219 584.5,219 584.5,219 584.5,220 
		584.5,220 584.5,220 584.5,220 584.5,220 585.5,220 585.5,221 585.5,221 585.5,221 585.5,221 585.5,221 585.5,221 585.5,221 
		585.5,221 585.5,221 585.5,221 585.5,221 585.5,221 586.5,221 586.5,221 586.5,221 586.5,221 586.5,222 586.5,222 586.5,222 
		586.5,222 586.5,222 586.5,222 586.5,222 586.5,222 586.5,222 587.5,222 587.5,222 587.5,222 587.5,222 587.5,222 587.5,223 
		587.5,223 587.5,223 587.5,223 587.5,223 587.5,223 587.5,223 587.5,222 588.5,221 588.5,220 588.5,220 588.5,219 588.5,219 
		588.5,219 588.5,218 588.5,218 588.5,217 588.5,217 588.5,217 588.5,217 588.5,217 589.5,217 589.5,217 589.5,217 589.5,217 
		589.5,217 589.5,217 589.5,217 589.5,218 589.5,218 589.5,218 589.5,219 589.5,219 589.5,219 590.5,219 590.5,219 590.5,220 
		590.5,220 590.5,220 590.5,220 590.5,220 590.5,219 590.5,219 590.5,218 590.5,218 590.5,217 590.5,217 591.5,216 591.5,216 
		591.5,216 591.5,216 591.5,215 591.5,215 591.5,215 591.5,215 591.5,214 591.5,214 591.5,214 591.5,214 591.5,214 592.5,214 
		592.5,214 592.5,214 592.5,214 592.5,214 592.5,215 592.5,215 592.5,215 592.5,215 592.5,216 592.5,216 592.5,216 592.5,216 
		593.5,217 593.5,217 593.5,217 593.5,218 593.5,218 593.5,218 593.5,218 593.5,218 593.5,218 593.5,218 593.5,219 593.5,218 
		593.5,218 594.5,218 594.5,218 594.5,218 594.5,218 594.5,217 594.5,217 594.5,217 594.5,216 594.5,216 594.5,216 594.5,216 
		594.5,216 594.5,216 595.5,216 595.5,215 595.5,215 595.5,215 595.5,215 595.5,215 595.5,215 595.5,215 595.5,215 595.5,215 
		595.5,215 595.5,215 595.5,216 596.5,216 596.5,216 596.5,217 596.5,217 596.5,218 596.5,218 596.5,218 596.5,218 596.5,218 
		596.5,219 596.5,219 596.5,220 596.5,220 597.5,220 597.5,220 597.5,221 597.5,221 597.5,221 597.5,222 597.5,222 597.5,222 
		597.5,223 597.5,223 597.5,223 597.5,224 597.5,224 598.5,224 598.5,224 598.5,225 598.5,225 598.5,225 598.5,225 598.5,226 
		598.5,226 598.5,226 598.5,226 598.5,226 598.5,226 598.5,227 599.5,227 599.5,227 599.5,227 599.5,227 599.5,227 599.5,227 
		599.5,227 599.5,227 599.5,227 599.5,228 599.5,228 599.5,228 599.5,228 600.5,228 600.5,228 600.5,228 600.5,228 600.5,228 
		600.5,229 600.5,229 600.5,229 600.5,229 600.5,229 600.5,229 600.5,229 600.5,230 601.5,230 601.5,230 601.5,230 601.5,230 
		601.5,230 601.5,230 601.5,230 601.5,230 601.5,230 601.5,230 601.5,230 601.5,230 601.5,230 602.5,230 602.5,229 602.5,229 
		602.5,229 602.5,229 602.5,228 602.5,228 602.5,228 602.5,227 602.5,227 602.5,227 602.5,227 602.5,226 603.5,226 603.5,226 
		603.5,226 603.5,226 603.5,226 603.5,225 603.5,225 603.5,225 603.5,225 603.5,225 603.5,225 603.5,225 603.5,225 604.5,225 
		604.5,225 604.5,225 604.5,225 604.5,225 604.5,225 604.5,225 604.5,225 604.5,225 604.5,225 604.5,225 604.5,225 604.5,225 
		605.5,225 605.5,225 605.5,225 605.5,225 605.5,225 605.5,225 605.5,225 605.5,225 605.5,226 605.5,226 605.5,226 605.5,226 
		605.5,226 606.5,226 606.5,226 606.5,227 606.5,227 606.5,227 606.5,227 606.5,228 606.5,228 606.5,229 606.5,229 606.5,229 
		606.5,230 606.5,230 607.5,230 607.5,231 607.5,231 607.5,231 607.5,232 607.5,232 607.5,232 607.5,232 607.5,233 607.5,233 
		607.5,233 607.5,233 607.5,233 608.5,234 608.5,234 608.5,234 608.5,234 608.5,235 608.5,235 608.5,235 608.5,235 608.5,235 
		608.5,235 608.5,235 608.5,235 609.5,235 609.5,235 609.5,236 609.5,236 609.5,236 609.5,236 609.5,236 609.5,236 609.5,236 
		609.5,236 609.5,236 609.5,236 609.5,236 610.5,235 610.5,235 610.5,234 610.5,234 610.5,233 610.5,233 610.5,232 610.5,232 
		610.5,231 610.5,231 610.5,230 610.5,230 610.5,229 611.5,229 611.5,228 611.5,228 611.5,228 611.5,228 611.5,227 611.5,227 
		611.5,227 611.5,227 611.5,226 611.5,226 611.5,226 611.5,226 612.5,226 612.5,225 612.5,225 612.5,225 612.5,225 612.5,224 
		612.5,224 612.5,224 612.5,224 612.5,223 612.5,223 612.5,223 612.5,223 613.5,222 613.5,222 613.5,222 613.5,222 613.5,222 
		613.5,221 613.5,221 613.5,221 613.5,221 613.5,221 613.5,221 613.5,220 613.5,220 614.5,220 614.5,220 614.5,220 614.5,219 
		614.5,219 614.5,219 614.5,219 614.5,219 614.5,219 614.5,219 614.5,219 614.5,219 614.5,219 615.5,220 615.5,220 615.5,220 
		615.5,221 615.5,221 615.5,221 615.5,222 615.5,222 615.5,223 615.5,223 615.5,224 615.5,224 615.5,225 616.5,225 616.5,225 
		616.5,226 616.5,226 616.5,227 616.5,227 616.5,227 616.5,228 616.5,228 616.5,229 616.5,229 616.5,229 616.5,230 617.5,230 
		617.5,231 617.5,231 617.5,231 617.5,232 617.5,232 617.5,232 617.5,233 617.5,233 617.5,234 617.5,234 617.5,234 617.5,235 
		618.5,235 618.5,235 618.5,235 618.5,236 618.5,236 618.5,236 618.5,236 618.5,236 618.5,236 618.5,235 618.5,235 618.5,235 
		618.5,234 619.5,234 619.5,234 619.5,234 619.5,234 619.5,234 619.5,234 619.5,234 619.5,234 619.5,234 619.5,234 619.5,234 
		619.5,233 619.5,233 620.5,233 620.5,233 620.5,233 620.5,233 620.5,232 620.5,232 620.5,232 620.5,232 620.5,231 620.5,231 
		620.5,231 620.5,231 620.5,231 621.5,231 621.5,231 621.5,231 621.5,231 621.5,232 621.5,232 621.5,232 621.5,232 621.5,233 
		621.5,233 621.5,233 621.5,233 621.5,234 622.5,234 622.5,234 622.5,235 622.5,235 622.5,236 622.5,236 622.5,236 622.5,237 
		622.5,237 622.5,238 622.5,239 622.5,239 622.5,240 623.5,240 623.5,241 623.5,241 623.5,241 623.5,241 623.5,241 623.5,240 
		623.5,240 623.5,240 623.5,239 623.5,239 623.5,238 623.5,238 624.5,237 624.5,237 624.5,236 624.5,236 624.5,235 624.5,234 
		624.5,234 624.5,233 624.5,232 624.5,232 624.5,231 624.5,231 624.5,230 625.5,230 625.5,229 625.5,229 625.5,229 625.5,228 
		625.5,228 625.5,228 625.5,227 625.5,227 625.5,227 625.5,227 625.5,227 625.5,226 626.5,226 626.5,226 626.5,226 626.5,226 
		626.5,226 626.5,226 626.5,225 626.5,225 626.5,225 626.5,225 626.5,225 626.5,225 626.5,225 627.5,224 627.5,224 627.5,224 
		627.5,224 627.5,224 627.5,224 627.5,224 627.5,224 627.5,224 627.5,225 627.5,225 627.5,225 627.5,225 628.5,225 628.5,225 
		628.5,225 628.5,226 628.5,226 628.5,226 628.5,226 628.5,226 628.5,226 628.5,226 628.5,226 628.5,226 628.5,226 629.5,226 
		629.5,226 629.5,226 629.5,226 629.5,226 629.5,226 629.5,226 629.5,226 629.5,227 629.5,227 629.5,227 629.5,227 629.5,227 
		630.5,227 630.5,227 630.5,227 630.5,227 630.5,227 630.5,227 630.5,227 630.5,226 630.5,226 630.5,226 630.5,226 630.5,225 
		630.5,225 631.5,225 631.5,225 631.5,224 631.5,224 631.5,223 631.5,223 631.5,222 631.5,222 631.5,222 631.5,222 631.5,222 
		631.5,222 631.5,222 632.5,222 632.5,222 632.5,222 632.5,222 632.5,221 632.5,221 632.5,221 632.5,221 632.5,221 632.5,221 
		632.5,221 632.5,221 632.5,221 633.5,221 633.5,221 633.5,221 633.5,221 633.5,221 633.5,221 633.5,221 633.5,221 633.5,221 
		633.5,221 633.5,222 633.5,222 633.5,222 634.5,222 634.5,222 634.5,222 634.5,222 634.5,222 634.5,222 634.5,222 634.5,222 
		634.5,222 634.5,222 634.5,222 634.5,222 634.5,223 635.5,223 635.5,223 635.5,224 635.5,224 635.5,224 635.5,224 635.5,225 
		635.5,225 635.5,225 635.5,226 635.5,226 635.5,226 635.5,227 636.5,227 636.5,227 636.5,228 636.5,228 636.5,228 636.5,229 
		636.5,229 636.5,229 636.5,229 636.5,230 636.5,230 636.5,230 636.5,231 637.5,231 637.5,231 637.5,232 637.5,232 637.5,232 
		637.5,233 637.5,233 637.5,234 637.5,234 637.5,235 637.5,235 637.5,235 637.5,236 638.5,236 638.5,237 638.5,237 638.5,238 
		638.5,238 638.5,239 638.5,239 638.5,240 638.5,240 638.5,241 638.5,241 638.5,242 638.5,242 639.5,243 639.5,243 639.5,243 
		639.5,244 639.5,244 639.5,245 639.5,245 639.5,246 639.5,246 639.5,246 639.5,247 639.5,247 639.5,247 640.5,247 640.5,247 
		640.5,248 640.5,248 640.5,248 640.5,248 640.5,249 640.5,249 640.5,249 640.5,249 640.5,250 640.5,250 640.5,250 641.5,251 
		641.5,251 641.5,251 641.5,252 641.5,252 641.5,252 641.5,252 641.5,252 641.5,252 641.5,253 641.5,253 641.5,253 641.5,253 
		642.5,253 642.5,253 642.5,253 642.5,253 642.5,253 642.5,252 642.5,252 642.5,252 642.5,251 642.5,250 642.5,250 642.5,249 
		642.5,249 643.5,248 643.5,248 643.5,247 643.5,247 643.5,246 643.5,246 643.5,245 643.5,245 643.5,245 643.5,244 643.5,244 
		643.5,243 643.5,243 644.5,242 644.5,242 644.5,242 644.5,241 644.5,241 644.5,241 644.5,241 644.5,241 644.5,240 644.5,240 
		644.5,240 644.5,240 644.5,240 645.5,240 645.5,240 645.5,240 645.5,240 645.5,240 645.5,240 645.5,240 645.5,240 645.5,240 
		645.5,239 645.5,239 645.5,239 645.5,239 646.5,239 646.5,239 646.5,239 646.5,239 646.5,239 646.5,239 646.5,239 646.5,238 
		646.5,238 646.5,238 646.5,238 646.5,237 646.5,237 647.5,236 647.5,236 647.5,236 647.5,235 647.5,235 647.5,234 647.5,234 
		647.5,234 647.5,233 647.5,233 647.5,233 647.5,233 647.5,233 648.5,234 648.5,234 648.5,234 648.5,234 648.5,235 648.5,235 
		648.5,235 648.5,236 648.5,236 648.5,236 648.5,237 648.5,237 648.5,237 649.5,238 649.5,238 649.5,239 649.5,239 649.5,239 
		649.5,240 649.5,240 649.5,241 649.5,241 649.5,242 649.5,242 649.5,242 649.5,242 650.5,243 650.5,243 650.5,243 650.5,243 
		650.5,243 650.5,244 650.5,244 650.5,244 650.5,244 650.5,244 650.5,244 650.5,244 650.5,245 651.5,245 651.5,245 651.5,245 
		651.5,246 651.5,246 651.5,246 651.5,246 651.5,247 651.5,247 651.5,247 651.5,247 651.5,248 651.5,248 652.5,249 652.5,249 
		652.5,249 652.5,249 652.5,249 652.5,250 652.5,250 652.5,250 652.5,250 652.5,251 652.5,251 652.5,251 652.5,251 653.5,252 
		653.5,252 653.5,252 653.5,252 653.5,253 653.5,253 653.5,253 653.5,253 653.5,253 653.5,253 653.5,254 653.5,254 653.5,254 
		654.5,254 654.5,255 654.5,255 654.5,255 654.5,256 654.5,256 654.5,256 654.5,256 654.5,256 654.5,256 654.5,256 654.5,256 
		654.5,255 655.5,255 655.5,255 655.5,255 655.5,255 655.5,255 655.5,255 655.5,255 655.5,254 655.5,254 655.5,254 655.5,254 
		655.5,254 655.5,254 656.5,254 656.5,255 656.5,255 656.5,255 656.5,255 656.5,255 656.5,256 656.5,256 656.5,256 656.5,257 
		656.5,257 656.5,258 656.5,258 657.5,258 657.5,258 657.5,258 657.5,258 657.5,258 657.5,258 657.5,258 657.5,258 657.5,259 
		657.5,259 657.5,258 657.5,259 657.5,258 658.5,258 658.5,258 658.5,258 658.5,258 658.5,258 658.5,257 658.5,257 658.5,257 
		658.5,257 658.5,257 658.5,257 658.5,257 658.5,257 659.5,257 659.5,257 659.5,257 659.5,257 659.5,257 659.5,257 659.5,257 
		659.5,256 659.5,256 659.5,256 659.5,256 659.5,256 659.5,255 660.5,255 660.5,255 660.5,255 660.5,255 660.5,255 660.5,254 
		660.5,254 660.5,254 660.5,254 660.5,253 660.5,253 660.5,252 660.5,252 661.5,252 661.5,251 661.5,251 661.5,250 661.5,250 
		661.5,249 661.5,249 661.5,248 661.5,248 661.5,247 661.5,246 661.5,246 661.5,245 662.5,244 662.5,244 662.5,243 662.5,242 
		662.5,241 662.5,241 662.5,240 662.5,239 662.5,239 662.5,238 662.5,237 662.5,237 662.5,236 663.5,236 663.5,236 663.5,235 
		663.5,235 663.5,234 663.5,234 663.5,234 663.5,233 663.5,232 663.5,232 663.5,231 663.5,231 663.5,230 664.5,230 664.5,230 
		664.5,229 664.5,228 664.5,228 664.5,227 664.5,227 664.5,226 664.5,225 664.5,225 664.5,224 664.5,223 664.5,222 665.5,221 
		665.5,220 665.5,219 665.5,218 665.5,217 665.5,216 665.5,215 665.5,214 665.5,213 665.5,212 665.5,211 665.5,210 666.5,209 
		666.5,208 666.5,206 666.5,205 666.5,204 666.5,203 666.5,202 666.5,201 666.5,200 666.5,199 666.5,199 666.5,198 666.5,198 
		667.5,197 667.5,196 667.5,195 667.5,195 667.5,194 667.5,194 667.5,194 667.5,193 667.5,193 667.5,193 667.5,193 667.5,193 
		667.5,193 668.5,194 668.5,194 668.5,194 668.5,194 668.5,194 668.5,194 668.5,193 668.5,193 668.5,193 668.5,192 668.5,192 
		668.5,192 668.5,191 669.5,191 669.5,190 669.5,190 669.5,190 669.5,189 669.5,189 669.5,188 669.5,188 669.5,188 669.5,187 
		669.5,187 669.5,186 669.5,185 670.5,185 670.5,185 670.5,184 670.5,184 670.5,184 670.5,184 670.5,184 670.5,184 670.5,184 
		670.5,184 670.5,184 670.5,184 670.5,184 671.5,184 671.5,185 671.5,185 671.5,185 671.5,186 671.5,186 671.5,186 671.5,187 
		671.5,187 671.5,188 671.5,188 671.5,188 671.5,189 672.5,189 672.5,190 672.5,191 672.5,191 672.5,192 672.5,192 672.5,193 
		672.5,193 672.5,194 672.5,195 672.5,196 672.5,196 672.5,197 673.5,197 673.5,198 673.5,198 673.5,199 673.5,199 673.5,200 
		673.5,200 673.5,201 673.5,201 673.5,202 673.5,202 673.5,202 673.5,202 674.5,202 674.5,202 674.5,202 674.5,201 674.5,201 
		674.5,201 674.5,201 674.5,201 674.5,200 674.5,200 674.5,200 674.5,200 674.5,200 675.5,200 675.5,200 675.5,200 675.5,200 
		675.5,201 675.5,201 675.5,201 675.5,201 675.5,201 675.5,201 675.5,202 675.5,202 675.5,202 676.5,202 676.5,202 676.5,202 
		676.5,201 676.5,201 676.5,201 676.5,200 676.5,199 676.5,199 676.5,198 676.5,198 676.5,197 676.5,196 677.5,196 677.5,195 
		677.5,195 677.5,194 677.5,193 677.5,193 677.5,192 677.5,191 677.5,191 677.5,190 677.5,190 677.5,189 677.5,189 678.5,188 
		678.5,187 678.5,187 678.5,186 678.5,186 678.5,185 678.5,185 678.5,185 678.5,184 678.5,184 678.5,183 678.5,183 678.5,183 
		679.5,183 679.5,183 679.5,182 679.5,182 679.5,182 679.5,182 679.5,182 679.5,182 679.5,182 679.5,182 679.5,182 679.5,181 
		679.5,181 680.5,181 680.5,181 680.5,181 680.5,180 680.5,180 680.5,180 680.5,180 680.5,180 680.5,180 680.5,179 680.5,179 
		680.5,179 680.5,179 681.5,179 681.5,179 681.5,179 681.5,179 681.5,179 681.5,179 681.5,179 681.5,179 681.5,180 681.5,180 
		681.5,180 681.5,180 681.5,181 682.5,181 682.5,181 682.5,181 682.5,181 682.5,182 682.5,182 682.5,182 682.5,182 682.5,183 
		682.5,183 682.5,183 682.5,183 682.5,183 683.5,184 683.5,184 683.5,184 683.5,184 683.5,184 683.5,185 683.5,185 683.5,185 
		683.5,185 683.5,185 683.5,185 683.5,186 683.5,186 684.5,186 684.5,186 684.5,186 684.5,186 684.5,187 684.5,187 684.5,187 
		684.5,187 684.5,187 684.5,187 684.5,188 684.5,188 684.5,188 685.5,188 685.5,188 685.5,188 685.5,188 685.5,188 685.5,189 
		685.5,189 685.5,189 685.5,189 685.5,190 685.5,190 685.5,190 685.5,190 686.5,190 686.5,191 686.5,191 686.5,191 686.5,191 
		686.5,192 686.5,192 686.5,192 686.5,193 686.5,193 686.5,193 686.5,193 686.5,193 687.5,193 687.5,193 687.5,193 687.5,194 
		687.5,194 687.5,194 687.5,194 687.5,194 687.5,194 687.5,194 687.5,194 687.5,194 687.5,194 688.5,194 688.5,194 688.5,195 
		688.5,195 688.5,195 688.5,195 688.5,195 688.5,195 688.5,195 688.5,196 688.5,196 688.5,196 688.5,196 689.5,196 689.5,196 
		689.5,196 689.5,196 689.5,196 689.5,196 689.5,196 689.5,196 689.5,197 689.5,197 689.5,197 689.5,197 689.5,197 690.5,197 
		690.5,197 690.5,197 690.5,197 690.5,197 690.5,197 690.5,197 690.5,197 690.5,197 690.5,197 690.5,197 690.5,197 690.5,197 
		691.5,197 691.5,197 691.5,197 691.5,197 691.5,198 691.5,198 691.5,198 691.5,198 691.5,198 691.5,198 691.5,198 691.5,198 
		691.5,199 692.5,199 692.5,199 692.5,199 692.5,199 692.5,199 692.5,199 692.5,199 692.5,199 692.5,199 692.5,199 692.5,199 
		692.5,198 692.5,198 693.5,198 693.5,198 693.5,198 693.5,198 693.5,199 693.5,199 693.5,199 693.5,199 693.5,199 693.5,199 
		693.5,200 693.5,200 693.5,200 694.5,200 694.5,200 694.5,200 694.5,200 694.5,200 694.5,201 694.5,201 694.5,201 694.5,201 
		694.5,201 694.5,201 694.5,201 694.5,201 695.5,201 695.5,201 695.5,201 695.5,201 695.5,202 695.5,202 695.5,202 695.5,203 
		695.5,203 695.5,203 695.5,203 695.5,204 695.5,204 696.5,204 696.5,205 696.5,205 696.5,206 696.5,206 696.5,207 696.5,207 
		696.5,208 696.5,208 696.5,208 696.5,209 696.5,209 696.5,210 697.5,210 697.5,210 697.5,210 697.5,211 697.5,211 697.5,211 
		697.5,211 697.5,212 697.5,211 697.5,211 697.5,211 697.5,211 697.5,211 698.5,211 698.5,210 698.5,210 698.5,210 698.5,210 
		698.5,211 698.5,211 698.5,211 698.5,212 698.5,212 698.5,212 698.5,213 698.5,213 699.5,214 699.5,214 699.5,214 699.5,214 
		699.5,214 699.5,214 699.5,214 699.5,214 699.5,214 699.5,214 699.5,214 699.5,214 699.5,214 700.5,214 700.5,214 700.5,214 
		700.5,214 700.5,215 700.5,215 700.5,215 700.5,215 700.5,216 700.5,216 700.5,216 700.5,217 700.5,217 701.5,217 701.5,217 
		701.5,217 701.5,217 701.5,217 701.5,217 701.5,217 701.5,217 701.5,217 701.5,217 701.5,217 701.5,216 701.5,216 702.5,216 
		702.5,215 702.5,215 702.5,215 702.5,214 702.5,214 702.5,214 702.5,214 702.5,214 702.5,213 702.5,213 702.5,213 702.5,213 
		703.5,213 703.5,213 703.5,213 703.5,213 703.5,213 703.5,213 703.5,213 703.5,213 703.5,213 703.5,213 703.5,213 703.5,213 
		703.5,213 704.5,213 704.5,213 704.5,213 704.5,213 704.5,213 704.5,213 704.5,212 704.5,212 704.5,212 704.5,211 704.5,211 
		704.5,211 704.5,211 705.5,211 705.5,210 705.5,210 705.5,210 705.5,210 705.5,210 705.5,210 705.5,209 705.5,209 705.5,209 
		705.5,209 705.5,208 705.5,208 706.5,208 706.5,207 706.5,207 706.5,206 706.5,206 706.5,206 706.5,205 706.5,205 706.5,205 
		706.5,205 706.5,204 706.5,204 706.5,204 707.5,204 707.5,204 707.5,204 707.5,203 707.5,203 707.5,203 707.5,203 707.5,203 
		707.5,203 707.5,203 707.5,203 707.5,202 707.5,202 708.5,202 708.5,202 708.5,202 708.5,202 708.5,202 708.5,202 708.5,202 
		708.5,202 708.5,202 708.5,202 708.5,202 708.5,202 708.5,202 709.5,203 709.5,203 709.5,203 709.5,203 709.5,203 709.5,204 
		709.5,204 709.5,204 709.5,204 709.5,204 709.5,204 709.5,204 709.5,204 710.5,205 710.5,205 710.5,205 710.5,205 710.5,205 
		710.5,205 710.5,206 710.5,206 710.5,206 710.5,206 710.5,206 710.5,206 710.5,206 711.5,207 711.5,207 711.5,207 711.5,208 
		711.5,208 711.5,209 711.5,209 711.5,210 711.5,210 711.5,211 711.5,212 711.5,212 711.5,213 712.5,213 712.5,214 712.5,214 
		712.5,214 712.5,214 712.5,214 712.5,214 712.5,213 712.5,212 712.5,211 712.5,211 712.5,210 712.5,210 713.5,210 713.5,210 
		713.5,210 713.5,209 713.5,209 713.5,209 713.5,209 713.5,209 713.5,208 713.5,208 713.5,208 713.5,208 713.5,208 714.5,207 
		714.5,207 714.5,207 714.5,207 714.5,207 714.5,207 714.5,207 714.5,207 714.5,207 714.5,207 714.5,207 714.5,207 714.5,207 
		715.5,207 715.5,207 715.5,207 715.5,207 715.5,207 715.5,207 715.5,208 715.5,208 715.5,208 715.5,208 715.5,208 715.5,208 
		715.5,208 716.5,208 716.5,208 716.5,208 716.5,208 716.5,208 716.5,208 716.5,208 716.5,209 716.5,209 716.5,209 716.5,209 	"/>
</g>
</svg>
