<?xml version="1.0" encoding="UTF-8" standalone="no"?><svg width="282.222mm" height="141.111mm" xmlns="http://www.w3.org/2000/svg" xmlns:xlink="http://www.w3.org/1999/xlink"  version="1.2" baseProfile="tiny"><g fill="none" stroke="#ff0000" stroke-linecap="round" stroke-linejoin="round" stroke-opacity="1" stroke-width="1.5" transform="matrix(1,0,0,1,0,0)">
<polyline fill="none" points="63,334 63,334 63,334 64,334 64,334 64,334 64,334 64,333 64,333 64,332 64,332 64,331 64,331 64,331 64,331 64,330 65,330 65,330 65,329 65,329 65,329 65,329 65,329 65,329 65,329 65,329 65,329 65,329 65,329 66,329 66,329 66,329 66,329 66,328 66,328 66,328 66,328 66,327 66,327 66,326 66,326 66,326 67,326 67,326 67,325 67,325 67,325 67,325 67,325 67,325 67,325 67,325 67,325 67,325 67,325 68,324 68,324 68,324 68,324 68,324 68,324 68,323 68,323 68,323 68,323 68,323 68,323 68,323 69,323 69,323 69,322 69,322 69,322 69,322 69,322 69,322 69,322 69,322 69,321 69,321 69,321 70,321 70,321 70,321 70,321 70,320 70,320 70,320 70,320 70,320 70,320 70,319 70,319 70,319 71,319 71,318 71,318 71,318 71,318 71,318 71,318 71,317 71,317 71,317 71,317 71,317 71,316 72,316 72,316 72,316 72,316 72,315 72,315 72,314 72,314 72,314 72,314 72,313 72,313 72,312 73,312 73,312 73,312 73,311 73,311 73,310 73,309 73,309 73,309 73,309 73,308 73,308 73,308 74,308 74,307 74,307 74,307 74,307 74,306 74,306 74,305 74,305 74,304 74,304 74,304 74,303 75,303 75,303 75,302 75,302 75,302 75,301 75,301 75,300 75,300 75,300 75,300 75,299 75,299 76,299 76,299 76,299 76,299 76,299 76,299 76,299 76,299 76,299 76,299 76,299 76,299 76,300 77,300 77,301 77,301 77,302 77,302 77,302 77,302 77,302 77,302 77,302 77,302 77,302 77,301 78,302 78,302 78,302 78,301 78,301 78,301 78,301 78,300 78,300 78,299 78,298 78,298 78,297 79,297 79,297 79,296 79,295 79,294 79,293 79,293 79,292 79,291 79,290 79,289 79,288 79,288 80,287 80,286 80,285 80,284 80,283 80,283 80,282 80,281 80,280 80,279 80,278 80,277 80,276 81,275 81,273 81,272 81,271 81,270 81,269 81,267 81,266 81,265 81,264 81,262 81,261 81,260 82,260 82,259 82,258 82,257 82,256 82,256 82,255 82,255 82,254 82,254 82,253 82,253 82,252 83,251 83,251 83,251 83,250 83,250 83,249 83,249 83,249 83,249 83,249 83,248 83,248 83,248 84,248 84,247 84,247 84,247 84,247 84,246 84,246 84,246 84,245 84,245 84,245 84,245 84,246 85,246 85,246 85,246 85,246 85,247 85,247 85,247 85,247 85,247 85,248 85,248 85,249 85,249 86,250 86,250 86,251 86,251 86,252 86,252 86,253 86,253 86,253 86,252 86,251 86,251 86,250 87,249 87,249 87,248 87,247 87,246 87,245 87,244 87,243 87,242 87,241 87,240 87,239 87,238 88,237 88,236 88,235 88,234 88,233 88,232 88,232 88,231 88,230 88,230 88,230 88,230 88,230 89,230 89,230 89,231 89,231 89,231 89,231 89,232 89,232 89,232 89,232 89,233 89,233 89,233 90,233 90,234 90,234 90,234 90,235 90,235 90,235 90,236 90,237 90,237 90,238 90,239 90,241 91,242 91,244 91,246 91,246 91,246 91,246 91,246 91,247 91,247 91,247 91,247 91,248 91,248 92,249 92,249 92,249 92,250 92,250 92,251 92,251 92,251 92,251 92,251 92,251 92,251 92,251 93,250 93,250 93,250 93,250 93,250 93,250 93,250 93,249 93,249 93,249 93,249 93,249 93,249 94,248 94,248 94,248 94,248 94,248 94,248 94,248 94,247 94,247 94,247 94,248 94,247 94,246 95,246 95,245 95,244 95,243 95,242 95,241 95,241 95,240 95,240 95,239 95,238 95,238 95,237 96,237 96,236 96,236 96,236 96,235 96,235 96,235 96,235 96,235 96,235 96,234 96,234 96,233 97,233 97,233 97,233 97,232 97,232 97,233 97,233 97,233 97,233 97,233 97,233 97,233 97,234 98,234 98,234 98,234 98,234 98,236 98,236 98,236 98,237 98,238 98,238 98,238 98,238 98,239 99,241 99,242 99,243 99,244 99,245 99,246 99,247 99,248 99,249 99,250 99,252 99,252 99,253 100,255 100,256 100,257 100,259 100,260 100,262 100,263 100,264 100,265 100,266 100,267 100,268 100,268 101,269 101,269 101,270 101,271 101,271 101,271 101,272 101,272 101,272 101,272 101,270 101,270 101,269 102,268 102,267 102,266 102,265 102,264 102,263 102,262 102,261 102,261 102,262 102,262 102,262 102,262 103,262 103,262 103,262 103,262 103,262 103,262 103,262 103,262 103,262 103,262 103,262 103,261 103,261 104,260 104,260 104,260 104,261 104,261 104,263 104,265 104,268 104,271 104,272 104,274 104,275 104,277 105,277 105,277 105,277 105,277 105,277 105,277 105,277 105,276 105,275 105,273 105,270 105,268 105,266 106,265 106,263 106,261 106,260 106,259 106,258 106,256 106,255 106,253 106,252 106,250 106,250 107,249 107,249 107,248 107,248 107,247 107,247 107,246 107,246 107,245 107,245 107,245 107,245 107,245 108,246 108,246 108,246 108,246 108,247 108,247 108,247 108,247 108,247 108,247 108,247 108,247 108,247 109,248 109,248 109,248 109,248 109,248 109,247 109,247 109,246 109,246 109,246 109,245 109,244 109,243 110,243 110,242 110,241 110,240 110,240 110,240 110,240 110,240 110,240 110,240 110,240 110,239 110,239 111,239 111,240 111,239 111,239 111,239 111,239 111,239 111,239 111,239 111,239 111,240 111,240 111,241 112,241 112,241 112,242 112,243 112,244 112,244 112,245 112,246 112,247 112,249 112,250 112,251 112,252 113,252 113,253 113,252 113,252 113,252 113,252 113,253 113,253 113,254 113,255 113,255 113,256 113,256 114,256 114,257 114,257 114,258 114,258 114,258 114,259 114,259 114,260 114,260 114,260 114,261 114,261 115,261 115,261 115,261 115,262 115,262 115,263 115,264 115,265 115,265 115,264 115,264 115,263 115,263 116,262 116,262 116,261 116,260 116,258 116,257 116,256 116,255 116,254 116,253 116,252 116,252 116,251 117,251 117,250 117,249 117,248 117,248 117,247 117,247 117,246 117,245 117,245 117,244 117,244 117,243 118,242 118,242 118,242 118,241 118,241 118,241 118,241 118,240 118,240 118,240 118,239 118,239 118,238 119,237 119,237 119,236 119,235 119,235 119,234 119,233 119,232 119,232 119,231 119,231 119,230 119,229 120,229 120,228 120,227 120,227 120,226 120,226 120,225 120,224 120,223 120,222 120,222 120,221 120,221 121,220 121,220 121,220 121,219 121,219 121,218 121,218 121,218 121,217 121,217 121,216 121,216 121,215 122,215 122,214 122,214 122,214 122,213 122,213 122,213 122,212 122,212 122,212 122,212 122,212 122,212 123,212 123,212 123,212 123,213 123,213 123,213 123,213 123,213 123,213 123,214 123,214 123,214 123,215 124,215 124,216 124,216 124,216 124,217 124,217 124,217 124,217 124,218 124,218 124,218 124,219 124,220 125,221 125,221 125,222 125,222 125,223 125,224 125,225 125,226 125,227 125,228 125,229 125,229 125,229 126,229 126,229 126,229 126,228 126,228 126,227 126,226 126,226 126,225 126,226 126,226 126,225 126,224 127,224 127,224 127,223 127,223 127,223 127,222 127,222 127,222 127,221 127,221 127,220 127,220 127,219 128,219 128,219 128,218 128,218 128,217 128,217 128,217 128,216 128,216 128,216 128,216 128,216 128,216 129,215 129,215 129,215 129,214 129,214 129,213 129,213 129,213 129,212 129,212 129,212 129,211 129,211 130,210 130,210 130,210 130,211 130,211 130,211 130,211 130,211 130,211 130,211 130,211 130,211 130,211 131,210 131,210 131,210 131,210 131,210 131,210 131,210 131,210 131,210 131,211 131,211 131,212 131,213 132,215 132,216 132,217 132,219 132,220 132,221 132,223 132,225 132,227 132,229 132,230 132,232 132,233 133,235 133,236 133,236 133,237 133,237 133,238 133,238 133,239 133,240 133,241 133,241 133,242 133,244 134,245 134,245 134,245 134,246 134,247 134,247 134,248 134,249 134,250 134,251 134,252 134,253 134,254 135,254 135,255 135,256 135,257 135,257 135,258 135,258 135,259 135,260 135,261 135,262 135,262 135,262 136,263 136,263 136,263 136,264 136,264 136,265 136,265 136,264 136,264 136,264 136,263 136,262 136,261 137,260 137,259 137,258 137,256 137,255 137,254 137,252 137,250 137,249 137,247 137,246 137,244 137,243 138,241 138,240 138,240 138,238 138,237 138,236 138,235 138,234 138,233 138,232 138,231 138,230 138,228 139,227 139,226 139,225 139,224 139,223 139,222 139,222 139,221 139,221 139,221 139,220 139,220 139,219 140,219 140,219 140,219 140,218 140,218 140,218 140,218 140,217 140,217 140,217 140,216 140,216 140,216 141,215 141,215 141,215 141,214 141,214 141,214 141,213 141,213 141,213 141,212 141,212 141,212 141,212 142,212 142,211 142,211 142,211 142,211 142,210 142,210 142,210 142,210 142,209 142,209 142,209 142,208 143,208 143,207 143,207 143,206 143,205 143,204 143,204 143,203 143,202 143,201 143,200 143,199 143,199 144,197 144,196 144,195 144,194 144,194 144,195 144,195 144,194 144,193 144,193 144,192 144,192 144,193 145,193 145,192 145,191 145,191 145,190 145,190 145,190 145,190 145,190 145,190 145,189 145,188 145,188 146,187 146,187 146,187 146,187 146,186 146,184 146,182 146,180 146,179 146,177 146,176 146,175 146,173 147,172 147,170 147,169 147,168 147,169 147,169 147,170 147,171 147,171 147,171 147,171 147,171 147,172 148,172 148,171 148,171 148,171 148,171 148,171 148,170 148,170 148,169 148,168 148,169 148,169 148,170 149,171 149,171 149,171 149,172 149,172 149,173 149,174 149,175 149,176 149,177 149,180 149,182 149,184 150,185 150,187 150,188 150,189 150,191 150,191 150,192 150,193 150,193 150,192 150,192 150,192 150,192 151,192 151,192 151,192 151,191 151,191 151,191 151,193 151,192 151,192 151,192 151,192 151,192 151,192 152,192 152,192 152,193 152,194 152,195 152,195 152,196 152,197 152,198 152,199 152,200 152,200 152,201 153,201 153,202 153,203 153,203 153,204 153,204 153,204 153,205 153,206 153,208 153,209 153,211 153,211 154,211 154,210 154,210 154,209 154,208 154,208 154,208 154,207 154,206 154,205 154,204 154,203 154,202 155,200 155,199 155,198 155,198 155,197 155,196 155,195 155,195 155,194 155,193 155,192 155,192 155,191 156,190 156,190 156,189 156,188 156,188 156,187 156,187 156,186 156,185 156,185 156,184 156,183 156,183 157,182 157,182 157,181 157,181 157,180 157,179 157,178 157,177 157,177 157,176 157,175 157,175 157,174 158,174 158,174 158,174 158,173 158,173 158,172 158,172 158,171 158,171 158,171 158,171 158,170 158,170 159,170 159,170 159,171 159,171 159,171 159,171 159,172 159,172 159,172 159,173 159,173 159,173 160,174 160,174 160,174 160,174 160,175 160,175 160,175 160,175 160,175 160,175 160,174 160,174 160,174 161,174 161,174 161,174 161,174 161,175 161,175 161,176 161,176 161,177 161,178 161,178 161,179 161,179 162,180 162,180 162,180 162,181 162,182 162,182 162,181 162,180 162,179 162,179 162,179 162,178 162,178 163,178 163,178 163,178 163,178 163,178 163,178 163,178 163,178 163,178 163,179 163,179 163,180 163,180 164,179 164,179 164,179 164,179 164,179 164,179 164,179 164,180 164,180 164,180 164,180 164,180 164,180 165,180 165,180 165,180 165,179 165,179 165,179 165,179 165,179 165,179 165,178 165,178 165,178 165,178 166,177 166,177 166,177 166,177 166,177 166,177 166,176 166,175 166,175 166,175 166,175 166,175 166,175 167,174 167,174 167,174 167,174 167,173 167,173 167,172 167,172 167,172 167,171 167,171 167,170 167,170 168,170 168,170 168,169 168,169 168,169 168,168 168,168 168,168 168,168 168,168 168,168 168,168 168,168 169,168 169,168 169,167 169,165 169,165 169,165 169,164 169,164 169,164 169,165 169,165 169,164 169,164 170,164 170,164 170,164 170,164 170,164 170,164 170,163 170,163 170,163 170,162 170,162 170,162 170,161 171,161 171,161 171,161 171,161 171,161 171,161 171,160 171,160 171,159 171,159 171,159 171,158 171,158 172,158 172,158 172,158 172,158 172,157 172,157 172,157 172,157 172,157 172,157 172,156 172,156 172,156 173,156 173,156 173,156 173,156 173,156 173,155 173,155 173,156 173,156 173,156 173,156 173,156 173,155 174,155 174,155 174,155 174,154 174,154 174,153 174,152 174,152 174,151 174,150 174,150 174,149 174,148 175,148 175,147 175,146 175,146 175,145 175,144 175,144 175,143 175,143 175,142 175,142 175,141 175,140 176,140 176,139 176,139 176,138 176,138 176,137 176,137 176,137 176,136 176,136 176,136 176,135 176,135 177,135 177,134 177,134 177,134 177,134 177,133 177,133 177,133 177,132 177,132 177,131 177,131 177,130 178,130 178,129 178,128 178,128 178,127 178,126 178,126 178,125 178,124 178,124 178,123 178,123 178,122 179,122 179,121 179,121 179,120 179,120 179,120 179,119 179,119 179,119 179,118 179,118 179,118 179,118 180,117 180,117 180,117 180,117 180,117 180,116 180,116 180,116 180,116 180,115 180,115 180,115 180,114 181,114 181,114 181,113 181,113 181,112 181,111 181,111 181,110 181,109 181,108 181,107 181,107 181,106 182,105 182,104 182,103 182,102 182,101 182,100 182,99 182,98 182,97 182,97 182,96 182,95 182,95 183,95 183,94 183,93 183,93 183,92 183,92 183,91 183,90 183,90 183,89 183,88 183,88 183,87 184,87 184,87 184,86 184,86 184,85 184,85 184,85 184,85 184,85 184,84 184,84 184,84 184,84 185,85 185,85 185,85 185,85 185,85 185,85 185,85 185,85 185,84 185,84 185,84 185,83 185,83 186,83 186,82 186,81 186,80 186,80 186,80 186,79 186,79 186,78 186,78 186,78 186,78 186,78 187,79 187,79 187,79 187,79 187,79 187,79 187,79 187,79 187,79 187,78 187,78 187,78 187,78 188,77 188,77 188,76 188,76 188,75 188,75 188,75 188,74 188,74 188,73 188,73 188,72 188,72 189,72 189,72 189,71 189,71 189,71 189,71 189,70 189,70 189,70 189,69 189,69 189,69 189,68 190,68 190,68 190,68 190,67 190,67 190,67 190,67 190,66 190,66 190,66 190,66 190,66 190,65 191,65 191,65 191,64 191,64 191,64 191,64 191,63 191,63 191,63 191,63 191,63 191,64 191,64 192,64 192,63 192,63 192,63 192,63 192,62 192,62 192,62 192,63 192,63 192,64 192,64 192,64 193,65 193,65 193,65 193,65 193,66 193,66 193,66 193,66 193,66 193,67 193,67 193,67 193,67 194,67 194,67 194,67 194,68 194,68 194,68 194,68 194,68 194,68 194,68 194,69 194,69 194,69 195,69 195,69 195,69 195,69 195,69 195,69 195,69 195,69 195,69 195,69 195,69 195,69 195,69 196,69 196,69 196,69 196,69 196,69 196,69 196,68 196,68 196,68 196,68 196,68 196,68 196,68 197,68 197,68 197,68 197,68 197,69 197,70 197,71 197,74 197,76 197,77 197,78 197,79 197,79 198,80 198,80 198,81 198,81 198,81 198,82 198,83 198,84 198,85 198,86 198,86 198,86 198,86 199,86 199,86 199,85 199,85 199,85 199,84 199,83 199,83 199,82 199,81 199,80 199,80 199,79 200,79 200,78 200,78 200,77 200,76 200,77 200,78 200,78 200,77 200,76 200,76 200,76 200,75 201,75 201,75 201,75 201,74 201,74 201,73 201,72 201,72 201,72 201,71 201,71 201,71 201,70 202,70 202,70 202,70 202,70 202,70 202,69 202,69 202,69 202,68 202,68 202,68 202,67 202,67 203,67 203,67 203,67 203,67 203,67 203,67 203,67 203,67 203,67 203,66 203,65 203,65 203,64 204,64 204,63 204,63 204,62 204,62 204,61 204,60 204,60 204,59 204,59 204,58 204,58 204,57 205,56 205,56 205,55 205,54 205,53 205,53 205,52 205,51 205,50 205,49 205,48 205,48 205,47 206,47 206,46 206,46 206,45 206,45 206,44 206,44 206,44 206,44 206,43 206,43 206,42 206,41 207,41 207,41 207,40 207,40 207,40 207,40 207,40 207,40 207,40 207,40 207,40 207,40 207,40 208,40 208,41 208,40 208,41 208,40 208,40 208,40 208,40 208,40 208,40 208,40 208,40 208,40 209,40 209,40 209,40 209,40 209,40 209,39 209,39 209,39 209,39 209,39 209,39 209,39 209,39 210,39 210,40 210,40 210,41 210,41 210,41 210,41 210,41 210,42 210,42 210,43 210,43 210,43 211,44 211,44 211,45 211,46 211,46 211,47 211,48 211,49 211,50 211,50 211,51 211,52 211,52 212,52 212,52 212,52 212,52 212,52 212,52 212,53 212,53 212,54 212,55 212,56 212,57 213,58 213,58 213,59 213,59 213,59 213,60 213,60 213,60 213,61 213,61 213,62 213,62 213,62 214,63 214,63 214,63 214,64 214,64 214,64 214,64 214,65 214,65 214,65 214,65 214,64 214,64 215,64 215,65 215,65 215,65 215,65 215,66 215,67 215,67 215,68 215,69 215,69 215,70 215,70 216,71 216,71 216,72 216,72 216,73 216,73 216,74 216,74 216,75 216,75 216,76 216,77 216,77 217,77 217,77 217,77 217,77 217,77 217,77 217,77 217,77 217,77 217,77 217,77 217,77 217,76 218,76 218,75 218,75 218,75 218,75 218,75 218,75 218,75 218,75 218,75 218,75 218,75 218,75 219,76 219,76 219,76 219,76 219,76 219,76 219,76 219,76 219,76 219,76 219,76 219,76 219,76 220,76 220,76 220,76 220,76 220,76 220,76 220,75 220,75 220,75 220,75 220,75 220,74 220,74 221,74 221,74 221,74 221,74 221,74 221,74 221,74 221,74 221,73 221,73 221,72 221,72 221,72 222,72 222,72 222,72 222,72 222,72 222,72 222,71 222,71 222,71 222,71 222,71 222,71 222,71 223,71 223,71 223,71 223,71 223,71 223,71 223,71 223,71 223,71 223,71 223,72 223,72 223,72 224,72 224,73 224,73 224,73 224,73 224,74 224,74 224,74 224,75 224,76 224,76 224,76 224,76 225,76 225,76 225,76 225,76 225,76 225,77 225,77 225,77 225,77 225,77 225,78 225,78 225,77 226,78 226,78 226,78 226,78 226,79 226,79 226,79 226,80 226,80 226,80 226,80 226,81 226,81 227,81 227,81 227,81 227,81 227,82 227,82 227,83 227,83 227,84 227,84 227,84 227,84 227,84 228,85 228,85 228,85 228,86 228,86 228,86 228,86 228,86 228,86 228,87 228,87 228,87 228,88 229,88 229,88 229,88 229,88 229,89 229,89 229,88 229,89 229,89 229,89 229,90 229,90 229,90 230,91 230,91 230,91 230,92 230,92 230,92 230,92 230,92 230,92 230,92 230,92 230,93 230,94 231,94 231,95 231,96 231,96 231,97 231,97 231,98 231,98 231,98 231,98 231,98 231,98 231,98 232,99 232,98 232,98 232,98 232,98 232,99 232,99 232,100 232,100 232,100 232,101 232,101 232,102 233,102 233,103 233,104 233,105 233,105 233,105 233,105 233,106 233,106 233,106 233,106 233,106 233,106 234,106 234,106 234,106 234,106 234,106 234,107 234,107 234,106 234,106 234,106 234,106 234,106 234,105 235,105 235,105 235,105 235,105 235,105 235,106 235,106 235,106 235,106 235,106 235,106 235,106 235,106 236,106 236,107 236,107 236,107 236,107 236,106 236,106 236,106 236,106 236,106 236,106 236,106 236,106 237,106 237,106 237,105 237,105 237,105 237,106 237,106 237,106 237,106 237,106 237,107 237,107 237,107 238,108 238,108 238,108 238,109 238,109 238,109 238,110 238,110 238,111 238,112 238,113 238,113 238,114 239,114 239,115 239,114 239,114 239,115 239,115 239,115 239,115 239,115 239,115 239,115 239,115 239,115 240,115 240,116 240,116 240,117 240,117 240,117 240,117 240,117 240,118 240,118 240,118 240,118 240,119 241,119 241,119 241,119 241,120 241,120 241,121 241,122 241,123 241,123 241,124 241,124 241,125 241,126 242,126 242,127 242,127 242,127 242,128 242,128 242,129 242,129 242,129 242,130 242,130 242,130 242,131 243,131 243,131 243,131 243,130 243,130 243,130 243,130 243,129 243,129 243,128 243,128 243,128 243,128 244,128 244,128 244,128 244,128 244,128 244,128 244,128 244,128 244,129 244,129 244,129 244,129 244,129 245,129 245,129 245,129 245,129 245,129 245,129 245,129 245,130 245,130 245,130 245,130 245,131 245,131 246,131 246,131 246,131 246,131 246,131 246,130 246,130 246,131 246,131 246,131 246,131 246,130 246,130 247,130 247,129 247,130 247,130 247,130 247,129 247,129 247,129 247,129 247,129 247,129 247,129 247,129 248,129 248,129 248,129 248,129 248,128 248,128 248,128 248,128 248,128 248,128 248,129 248,129 248,129 249,130 249,130 249,131 249,131 249,132 249,132 249,133 249,134 249,134 249,134 249,134 249,135 249,135 250,135 250,135 250,135 250,135 250,135 250,135 250,135 250,134 250,134 250,134 250,134 250,134 250,133 251,133 251,133 251,133 251,133 251,133 251,133 251,132 251,132 251,132 251,132 251,131 251,131 251,131 252,131 252,131 252,131 252,131 252,131 252,131 252,131 252,130 252,130 252,130 252,130 252,130 252,130 253,130 253,130 253,130 253,130 253,130 253,131 253,131 253,132 253,132 253,132 253,133 253,133 253,133 254,134 254,134 254,134 254,135 254,135 254,136 254,136 254,137 254,137 254,137 254,138 254,138 254,139 255,139 255,140 255,140 255,140 255,141 255,141 255,142 255,142 255,142 255,142 255,143 255,143 255,143 256,143 256,143 256,144 256,144 256,144 256,144 256,144 256,144 256,144 256,144 256,145 256,145 256,145 257,145 257,145 257,145 257,145 257,145 257,144 257,144 257,144 257,144 257,143 257,143 257,143 257,143 258,143 258,142 258,142 258,142 258,142 258,142 258,142 258,142 258,142 258,142 258,142 258,142 258,142 259,142 259,142 259,142 259,142 259,142 259,142 259,142 259,143 259,143 259,143 259,144 259,144 259,144 260,144 260,144 260,143 260,143 260,143 260,143 260,143 260,143 260,143 260,143 260,143 260,143 260,143 261,143 261,143 261,143 261,143 261,143 261,143 261,143 261,143 261,143 261,143 261,143 261,143 261,142 262,142 262,142 262,142 262,142 262,142 262,143 262,143 262,143 262,144 262,144 262,144 262,145 262,145 263,145 263,145 263,145 263,145 263,144 263,144 263,144 263,144 263,144 263,144 263,144 263,144 263,144 264,144 264,144 264,144 264,144 264,144 264,144 264,144 264,144 264,144 264,144 264,144 264,144 264,144 265,144 265,144 265,144 265,143 265,142 265,142 265,142 265,141 265,141 265,140 265,140 265,140 266,141 266,141 266,141 266,141 266,141 266,142 266,142 266,142 266,142 266,142 266,142 266,142 266,142 267,143 267,143 267,143 267,143 267,143 267,143 267,144 267,144 267,144 267,144 267,145 267,146 267,147 268,148 268,149 268,149 268,150 268,151 268,152 268,153 268,153 268,154 268,155 268,155 268,156 268,156 269,156 269,156 269,155 269,154 269,154 269,153 269,153 269,153 269,153 269,153 269,153 269,153 269,153 270,153 270,153 270,153 270,153 270,153 270,153 270,153 270,153 270,153 270,153 270,153 270,153 270,153 271,153 271,152 271,152 271,153 271,152 271,151 271,151 271,152 271,154 271,155 271,155 271,155 271,155 272,155 272,154 272,153 272,152 272,151 272,151 272,150 272,149 272,148 272,148 272,147 272,146 272,145 273,144 273,144 273,143 273,143 273,142 273,142 273,141 273,141 273,140 273,140 273,139 273,138 273,137 274,136 274,135 274,134 274,133 274,133 274,132 274,131 274,130 274,129 274,128 274,126 274,126 274,124 275,123 275,122 275,121 275,120 275,119 275,119 275,118 275,117 275,116 275,115 275,115 275,114 275,114 276,113 276,113 276,113 276,113 276,112 276,112 276,112 276,111 276,111 276,111 276,111 276,110 276,110 277,110 277,109 277,109 277,109 277,108 277,108 277,108 277,107 277,107 277,107 277,106 277,106 277,106 278,105 278,104 278,103 278,102 278,103 278,104 278,105 278,106 278,106 278,107 278,107 278,107 278,107 279,107 279,107 279,106 279,105 279,106 279,106 279,106 279,107 279,108 279,109 279,110 279,112 279,113 280,114 280,115 280,116 280,117 280,118 280,119 280,120 280,121 280,122 280,123 280,124 280,125 280,126 281,126 281,127 281,128 281,128 281,129 281,129 281,130 281,130 281,131 281,131 281,132 281,132 281,133 282,134 282,135 282,135 282,136 282,136 282,137 282,138 282,138 282,138 282,138 282,139 282,139 282,139 283,139 283,139 283,139 283,139 283,139 283,139 283,139 283,139 283,139 283,139 283,138 283,138 283,138 284,137 284,137 284,136 284,136 284,135 284,135 284,134 284,134 284,134 284,133 284,133 284,132 284,132 285,131 285,131 285,131 285,130 285,130 285,130 285,130 285,129 285,129 285,129 285,129 285,129 285,129 286,129 286,129 286,129 286,130 286,130 286,130 286,130 286,130 286,129 286,129 286,129 286,129 286,128 287,128 287,127 287,126 287,125 287,125 287,124 287,123 287,123 287,122 287,121 287,121 287,120 287,120 288,120 288,120 288,119 288,119 288,119 288,119 288,119 288,119 288,119 288,120 288,120 288,120 288,121 289,121 289,121 289,121 289,122 289,122 289,122 289,122 289,123 289,123 289,123 289,123 289,123 289,123 290,124 290,124 290,124 290,124 290,124 290,124 290,124 290,124 290,123 290,123 290,122 290,122 290,122 291,122 291,122 291,122 291,122 291,122 291,122 291,121 291,121 291,121 291,121 291,121 291,122 291,122 292,122 292,123 292,123 292,123 292,124 292,124 292,125 292,125 292,126 292,126 292,126 292,126 292,126 293,126 293,126 293,126 293,126 293,126 293,126 293,126 293,127 293,127 293,127 293,127 293,127 293,127 294,127 294,127 294,128 294,128 294,128 294,128 294,128 294,128 294,128 294,128 294,128 294,128 294,128 295,128 295,128 295,129 295,129 295,129 295,129 295,129 295,129 295,130 295,130 295,131 295,131 295,132 296,132 296,132 296,133 296,133 296,133 296,133 296,133 296,134 296,133 296,133 296,133 296,132 296,132 297,132 297,132 297,132 297,132 297,132 297,132 297,131 297,131 297,130 297,130 297,129 297,128 297,128 298,128 298,128 298,128 298,128 298,127 298,127 298,127 298,126 298,126 298,126 298,126 298,126 298,126 299,126 299,127 299,127 299,128 299,128 299,128 299,129 299,129 299,129 299,129 299,129 299,130 299,131 300,131 300,132 300,132 300,133 300,134 300,132 300,133 300,133 300,133 300,133 300,132 300,131 300,131 301,130 301,131 301,131 301,131 301,132 301,132 301,132 301,132 301,132 301,132 301,132 301,132 301,132 302,132 302,132 302,132 302,132 302,132 302,131 302,130 302,130 302,132 302,133 302,134 302,135 302,136 303,137 303,137 303,138 303,139 303,139 303,140 303,141 303,141 303,142 303,142 303,143 303,144 303,144 304,144 304,145 304,145 304,146 304,146 304,147 304,147 304,148 304,148 304,148 304,148 304,148 304,148 305,148 305,148 305,148 305,147 305,147 305,146 305,146 305,145 305,144 305,144 305,143 305,143 305,142 306,141 306,141 306,140 306,140 306,140 306,139 306,139 306,139 306,139 306,139 306,139 306,139 306,139 307,138 307,138 307,138 307,138 307,138 307,138 307,138 307,138 307,138 307,139 307,139 307,140 307,140 308,140 308,141 308,141 308,141 308,142 308,142 308,143 308,143 308,144 308,145 308,145 308,146 308,146 309,147 309,147 309,148 309,148 309,149 309,149 309,149 309,150 309,150 309,150 309,150 309,151 309,151 310,152 310,153 310,153 310,153 310,154 310,154 310,154 310,155 310,156 310,156 310,157 310,157 310,158 311,159 311,160 311,161 311,162 311,163 311,163 311,163 311,164 311,164 311,164 311,164 311,164 311,165 312,165 312,165 312,165 312,166 312,166 312,166 312,167 312,167 312,167 312,168 312,168 312,168 312,169 313,169 313,169 313,169 313,169 313,170 313,170 313,171 313,171 313,172 313,172 313,173 313,174 313,174 314,175 314,175 314,176 314,176 314,177 314,177 314,177 314,178 314,179 314,180 314,181 314,181 314,182 315,182 315,182 315,183 315,183 315,183 315,183 315,183 315,183 315,183 315,184 315,184 315,184 315,185 316,186 316,186 316,187 316,187 316,188 316,188 316,188 316,188 316,189 316,189 316,188 316,188 316,188 317,188 317,188 317,188 317,188 317,188 317,188 317,188 317,188 317,188 317,188 317,188 317,187 317,188 318,188 318,188 318,189 318,189 318,189 318,189 318,189 318,190 318,190 318,190 318,190 318,190 319,190 319,191 319,191 319,191 319,191 319,191 319,191 319,191 319,191 319,191 319,191 319,191 319,191 320,191 320,191 320,190 320,189 320,188 320,187 320,187 320,187 320,187 320,187 320,187 320,187 320,187 321,187 321,188 321,188 321,188 321,188 321,189 321,189 321,190 321,190 321,190 321,191 321,191 321,192 322,192 322,192 322,192 322,193 322,193 322,193 322,193 322,193 322,194 322,194 322,194 322,195 322,195 323,194 323,195 323,195 323,195 323,194 323,194 323,194 323,193 323,193 323,192 323,191 323,191 323,191 324,191 324,190 324,190 324,190 324,190 324,190 324,189 324,189 324,188 324,188 324,187 324,187 324,187 325,186 325,186 325,185 325,184 325,184 325,183 325,183 325,182 325,182 325,182 325,181 325,181 325,181 326,181 326,181 326,181 326,181 326,181 326,181 326,181 326,181 326,181 326,181 326,181 326,180 326,180 327,180 327,180 327,180 327,180 327,180 327,181 327,181 327,182 327,182 327,182 327,183 327,183 327,184 328,184 328,184 328,185 328,185 328,186 328,186 328,187 328,187 328,188 328,188 328,189 328,189 328,189 329,189 329,190 329,191 329,191 329,192 329,192 329,193 329,193 329,193 329,193 329,193 329,194 329,194 330,194 330,194 330,194 330,194 330,194 330,194 330,193 330,193 330,193 330,193 330,193 330,193 330,192 331,192 331,192 331,191 331,191 331,191 331,191 331,190 331,190 331,190 331,189 331,189 331,189 331,189 332,188 332,188 332,188 332,188 332,188 332,187 332,187 332,187 332,187 332,186 332,186 332,186 332,186 333,185 333,185 333,185 333,185 333,185 333,184 333,184 333,184 333,184 333,183 333,183 333,183 333,183 334,182 334,182 334,182 334,182 334,181 334,181 334,181 334,181 334,181 334,180 334,180 334,180 334,180 335,179 335,179 335,179 335,179 335,178 335,178 335,178 335,178 335,178 335,177 335,177 335,178 335,178 336,177 336,177 336,177 336,177 336,177 336,177 336,177 336,176 336,176 336,176 336,176 336,175 336,175 337,175 337,174 337,174 337,174 337,173 337,173 337,173 337,173 337,172 337,172 337,171 337,171 337,171 338,171 338,170 338,170 338,170 338,170 338,170 338,170 338,170 338,170 338,170 338,170 338,170 338,171 339,171 339,171 339,171 339,171 339,171 339,172 339,173 339,173 339,173 339,172 339,172 339,173 339,173 340,173 340,173 340,173 340,173 340,174 340,174 340,174 340,174 340,175 340,175 340,175 340,176 340,176 341,176 341,176 341,176 341,176 341,176 341,176 341,176 341,176 341,176 341,176 341,177 341,177 341,177 342,177 342,177 342,178 342,178 342,178 342,177 342,177 342,177 342,176 342,176 342,176 342,175 342,176 343,176 343,176 343,176 343,176 343,176 343,177 343,177 343,177 343,178 343,178 343,178 343,179 343,179 344,179 344,180 344,180 344,180 344,181 344,181 344,181 344,182 344,182 344,182 344,182 344,183 344,183 345,183 345,183 345,183 345,184 345,184 345,184 345,184 345,185 345,185 345,185 345,185 345,186 345,186 346,186 346,186 346,187 346,187 346,187 346,187 346,188 346,188 346,188 346,188 346,189 346,189 346,189 347,189 347,189 347,189 347,189 347,189 347,188 347,188 347,188 347,188 347,187 347,187 347,187 347,186 348,186 348,186 348,186 348,185 348,185 348,185 348,184 348,184 348,183 348,183 348,183 348,182 348,182 349,182 349,181 349,181 349,181 349,180 349,180 349,180 349,180 349,180 349,180 349,180 349,180 349,180 350,181 350,181 350,181 350,181 350,181 350,181 350,182 350,182 350,182 350,182 350,182 350,182 350,182 351,183 351,183 351,183 351,183 351,183 351,184 351,184 351,184 351,184 351,184 351,184 351,184 351,184 352,184 352,184 352,185 352,185 352,185 352,185 352,185 352,185 352,186 352,186 352,186 352,186 352,187 353,187 353,188 353,188 353,189 353,189 353,190 353,190 353,191 353,191 353,192 353,192 353,192 353,193 354,193 354,193 354,193 354,194 354,194 354,194 354,194 354,194 354,194 354,194 354,195 354,195 354,195 355,195 355,195 355,196 355,196 355,197 355,198 355,198 355,198 355,199 355,200 355,201 355,202 355,203 356,204 356,205 356,205 356,206 356,206 356,207 356,207 356,207 356,207 356,207 356,207 356,207 356,207 357,207 357,207 357,207 357,207 357,207 357,207 357,207 357,207 357,207 357,207 357,207 357,207 357,207 358,207 358,207 358,207 358,207 358,207 358,207 358,207 358,206 358,206 358,206 358,206 358,205 358,205 359,205 359,204 359,204 359,204 359,204 359,204 359,204 359,203 359,203 359,203 359,203 359,203 359,203 360,202 360,202 360,202 360,202 360,201 360,201 360,201 360,201 360,200 360,200 360,200 360,199 360,199 361,199 361,199 361,198 361,198 361,198 361,197 361,197 361,197 361,196 361,196 361,196 361,195 361,195 362,195 362,194 362,194 362,194 362,193 362,193 362,193 362,192 362,192 362,191 362,191 362,191 362,190 363,190 363,190 363,190 363,190 363,191 363,191 363,191 363,191 363,192 363,192 363,193 363,193 363,193 364,194 364,194 364,194 364,194 364,194 364,195 364,195 364,195 364,196 364,196 364,196 364,196 364,196 365,196 365,197 365,197 365,197 365,197 365,198 365,198 365,198 365,198 365,198 365,199 365,199 365,199 366,199 366,200 366,200 366,200 366,200 366,200 366,201 366,201 366,201 366,201 366,202 366,202 366,202 367,202 367,202 367,203 367,203 367,203 367,204 367,204 367,205 367,205 367,205 367,206 367,206 367,206 368,206 368,206 368,206 368,206 368,206 368,206 368,207 368,207 368,207 368,207 368,207 368,207 368,207 369,207 369,207 369,206 369,206 369,206 369,206 369,206 369,206 369,205 369,205 369,205 369,205 369,205 370,205 370,204 370,204 370,204 370,204 370,204 370,204 370,204 370,204 370,204 370,204 370,203 370,203 371,203 371,203 371,203 371,203 371,203 371,203 371,203 371,203 371,203 371,203 371,203 371,203 372,202 372,202 372,202 372,202 372,202 372,202 372,201 372,201 372,201 372,201 372,200 372,200 372,199 373,199 373,198 373,198 373,198 373,198 373,198 373,197 373,197 373,197 373,197 373,196 373,196 373,196 374,195 374,195 374,196 374,196 374,196 374,196 374,196 374,196 374,196 374,196 374,196 374,197 374,197 375,197 375,197 375,197 375,197 375,197 375,197 375,196 375,196 375,196 375,195 375,195 375,194 375,194 376,194 376,194 376,194 376,194 376,194 376,194 376,194 376,194 376,194 376,195 376,195 376,195 376,195 377,195 377,195 377,196 377,196 377,196 377,196 377,196 377,196 377,196 377,196 377,196 377,196 377,196 378,196 378,196 378,196 378,196 378,196 378,196 378,196 378,196 378,195 378,195 378,195 378,195 378,195 379,195 379,195 379,195 379,195 379,195 379,195 379,195 379,196 379,196 379,196 379,196 379,197 379,197 380,197 380,197 380,197 380,197 380,197 380,198 380,198 380,198 380,198 380,198 380,198 380,199 380,199 381,199 381,199 381,199 381,199 381,199 381,199 381,199 381,199 381,199 381,199 381,200 381,200 381,200 382,200 382,200 382,200 382,200 382,200 382,200 382,200 382,200 382,200 382,200 382,200 382,200 382,200 383,200 383,200 383,200 383,200 383,200 383,200 383,200 383,200 383,200 383,199 383,200 383,200 383,200 384,200 384,200 384,200 384,199 384,199 384,199 384,199 384,198 384,198 384,198 384,198 384,197 384,197 385,197 385,196 385,196 385,196 385,196 385,196 385,196 385,196 385,196 385,196 385,196 385,196 385,196 386,196 386,197 386,196 386,196 386,196 386,196 386,196 386,195 386,195 386,195 386,195 386,195 386,195 387,194 387,195 387,195 387,195 387,195 387,195 387,195 387,195 387,194 387,194 387,194 387,194 387,194 388,193 388,193 388,193 388,193 388,193 388,193 388,193 388,193 388,193 388,193 388,192 388,192 388,192 389,192 389,192 389,192 389,192 389,192 389,192 389,191 389,191 389,191 389,191 389,190 389,190 389,190 390,190 390,190 390,190 390,190 390,190 390,190 390,189 390,189 390,189 390,189 390,189 390,189 390,189 391,189 391,188 391,188 391,188 391,188 391,188 391,187 391,187 391,187 391,187 391,187 391,186 391,186 392,186 392,186 392,186 392,186 392,186 392,186 392,186 392,186 392,186 392,186 392,186 392,186 392,186 393,186 393,187 393,187 393,187 393,187 393,187 393,187 393,187 393,187 393,187 393,188 393,188 393,188 394,188 394,188 394,188 394,188 394,188 394,188 394,188 394,188 394,187 394,187 394,186 394,186 394,185 395,185 395,185 395,184 395,184 395,184 395,183 395,183 395,183 395,182 395,182 395,182 395,182 395,182 396,181 396,181 396,181 396,181 396,180 396,180 396,180 396,179 396,179 396,179 396,179 396,178 396,178 397,178 397,178 397,178 397,178 397,177 397,177 397,177 397,177 397,177 397,177 397,177 397,177 397,177 398,177 398,177 398,177 398,177 398,177 398,177 398,177 398,177 398,177 398,177 398,177 398,177 398,177 399,177 399,177 399,177 399,177 399,178 399,178 399,178 399,178 399,178 399,179 399,179 399,179 399,179 400,179 400,179 400,179 400,180 400,180 400,180 400,180 400,180 400,180 400,180 400,180 400,180 400,180 401,180 401,180 401,181 401,181 401,181 401,181 401,181 401,181 401,181 401,181 401,181 401,181 401,182 402,182 402,182 402,182 402,182 402,182 402,182 402,182 402,182 402,182 402,182 402,182 402,182 402,182 403,182 403,183 403,184 403,184 403,184 403,184 403,183 403,183 403,183 403,182 403,182 403,181 403,181 404,181 404,180 404,180 404,180 404,180 404,179 404,179 404,179 404,179 404,178 404,178 404,178 404,178 405,177 405,177 405,177 405,176 405,176 405,176 405,176 405,175 405,175 405,175 405,175 405,175 405,174 406,174 406,174 406,174 406,174 406,173 406,173 406,173 406,173 406,172 406,172 406,172 406,171 406,171 407,171 407,172 407,172 407,172 407,172 407,172 407,172 407,172 407,172 407,172 407,172 407,173 407,173 408,173 408,173 408,174 408,174 408,174 408,175 408,175 408,175 408,176 408,176 408,176 408,177 408,177 409,177 409,178 409,178 409,178 409,178 409,178 409,179 409,179 409,179 409,179 409,179 409,179 409,180 410,180 410,180 410,180 410,180 410,180 410,180 410,181 410,181 410,181 410,181 410,181 410,181 410,181 411,181 411,180 411,180 411,179 411,179 411,179 411,179 411,179 411,179 411,180 411,180 411,180 411,180 412,180 412,180 412,180 412,180 412,180 412,180 412,180 412,180 412,180 412,180 412,180 412,180 412,181 413,181 413,181 413,182 413,182 413,182 413,182 413,182 413,182 413,182 413,182 413,183 413,183 413,183 414,183 414,183 414,184 414,184 414,184 414,184 414,184 414,184 414,184 414,184 414,184 414,184 414,184 415,184 415,184 415,184 415,184 415,184 415,184 415,184 415,184 415,183 415,183 415,183 415,183 415,183 416,183 416,182 416,182 416,182 416,182 416,182 416,182 416,181 416,181 416,181 416,181 416,181 416,181 417,182 417,182 417,182 417,182 417,182 417,182 417,182 417,181 417,181 417,181 417,181 417,181 417,181 418,181 418,181 418,181 418,181 418,181 418,181 418,181 418,181 418,181 418,181 418,181 418,181 418,180 419,180 419,180 419,180 419,180 419,180 419,180 419,180 419,180 419,179 419,179 419,179 419,178 419,178 420,178 420,178 420,177 420,177 420,177 420,177 420,176 420,176 420,176 420,176 420,176 420,175 420,175 421,174 421,174 421,174 421,173 421,173 421,173 421,173 421,173 421,173 421,172 421,172 421,172 421,172 422,172 422,172 422,172 422,172 422,172 422,171 422,171 422,171 422,171 422,171 422,171 422,171 422,171 423,171 423,171 423,171 423,171 423,170 423,170 423,171 423,171 423,170 423,170 423,170 423,170 423,170 424,170 424,170 424,170 424,170 424,170 424,169 424,169 424,169 424,169 424,169 424,169 424,169 425,168 425,168 425,168 425,167 425,167 425,166 425,165 425,165 425,165 425,164 425,164 425,164 425,163 426,163 426,163 426,163 426,162 426,162 426,161 426,161 426,160 426,160 426,160 426,159 426,159 426,159 427,158 427,158 427,158 427,157 427,157 427,157 427,156 427,156 427,156 427,156 427,156 427,156 427,156 428,156 428,156 428,156 428,156 428,156 428,156 428,157 428,157 428,157 428,157 428,157 428,157 428,157 429,158 429,158 429,159 429,159 429,159 429,160 429,160 429,160 429,160 429,160 429,160 429,160 429,159 430,159 430,159 430,158 430,158 430,157 430,157 430,157 430,157 430,156 430,156 430,156 430,155 430,155 431,154 431,154 431,154 431,154 431,154 431,154 431,154 431,154 431,154 431,154 431,154 431,154 431,154 432,154 432,155 432,155 432,155 432,155 432,155 432,155 432,156 432,156 432,157 432,158 432,159 432,159 433,158 433,158 433,158 433,157 433,157 433,156 433,156 433,156 433,155 433,155 433,155 433,154 433,154 434,153 434,152 434,152 434,151 434,151 434,150 434,149 434,148 434,147 434,146 434,146 434,146 434,145 435,145 435,144 435,144 435,144 435,143 435,143 435,142 435,142 435,141 435,141 435,141 435,140 435,140 436,139 436,139 436,138 436,138 436,138 436,138 436,138 436,138 436,138 436,138 436,138 436,137 436,137 437,137 437,137 437,137 437,137 437,137 437,137 437,136 437,136 437,136 437,136 437,136 437,136 437,136 438,135 438,135 438,135 438,135 438,135 438,135 438,135 438,135 438,135 438,135 438,135 438,135 438,135 439,135 439,135 439,135 439,134 439,134 439,134 439,134 439,134 439,134 439,134 439,134 439,134 439,134 440,134 440,134 440,134 440,134 440,134 440,134 440,134 440,134 440,134 440,134 440,134 440,134 440,134 441,134 441,134 441,134 441,135 441,135 441,135 441,136 441,136 441,136 441,137 441,137 441,137 441,137 442,138 442,138 442,138 442,138 442,138 442,138 442,139 442,139 442,140 442,141 442,141 442,142 442,142 443,143 443,143 443,144 443,144 443,145 443,145 443,146 443,146 443,147 443,147 443,147 443,148 443,148 444,149 444,149 444,150 444,150 444,151 444,151 444,151 444,152 444,152 444,153 444,153 444,154 444,154 445,155 445,155 445,156 445,156 445,156 445,157 445,157 445,157 445,158 445,158 445,158 445,158 445,158 446,158 446,158 446,158 446,158 446,158 446,158 446,158 446,158 446,158 446,158 446,158 446,158 446,158 447,159 447,159 447,159 447,159 447,159 447,159 447,159 447,159 447,159 447,159 447,159 447,159 447,160 448,160 448,160 448,160 448,160 448,160 448,160 448,160 448,160 448,160 448,160 448,160 448,160 448,160 449,160 449,160 449,160 449,160 449,160 449,160 449,160 449,160 449,160 449,160 449,160 449,160 449,160 450,160 450,160 450,160 450,160 450,160 450,160 450,161 450,161 450,161 450,161 450,161 450,160 450,160 451,160 451,160 451,160 451,160 451,160 451,160 451,160 451,160 451,160 451,160 451,160 451,160 451,160 452,160 452,160 452,160 452,160 452,161 452,161 452,161 452,161 452,161 452,161 452,161 452,161 452,161 453,161 453,161 453,161 453,162 453,162 453,162 453,162 453,162 453,162 453,162 453,162 453,162 453,163 454,163 454,163 454,163 454,163 454,163 454,163 454,163 454,163 454,164 454,164 454,164 454,164 454,164 455,164 455,164 455,164 455,164 455,164 455,165 455,165 455,165 455,165 455,165 455,165 455,165 455,165 456,165 456,165 456,165 456,165 456,165 456,165 456,165 456,165 456,165 456,164 456,164 456,164 456,164 457,163 457,163 457,163 457,162 457,162 457,162 457,162 457,162 457,162 457,162 457,161 457,161 457,161 458,161 458,161 458,161 458,161 458,161 458,162 458,162 458,162 458,162 458,161 458,161 458,161 458,162 459,162 459,162 459,162 459,161 459,161 459,161 459,161 459,161 459,161 459,161 459,161 459,161 459,161 460,161 460,161 460,161 460,161 460,161 460,161 460,161 460,161 460,161 460,162 460,162 460,162 460,162 461,163 461,163 461,163 461,163 461,163 461,163 461,163 461,163 461,163 461,163 461,163 461,163 461,164 462,164 462,164 462,164 462,164 462,164 462,164 462,165 462,165 462,165 462,165 462,165 462,165 462,166 463,166 463,166 463,166 463,166 463,167 463,167 463,167 463,167 463,168 463,168 463,168 463,168 463,169 464,169 464,169 464,169 464,170 464,170 464,170 464,170 464,171 464,171 464,171 464,171 464,172 464,172 465,172 465,172 465,172 465,172 465,172 465,172 465,172 465,172 465,172 465,172 465,172 465,172 465,172 466,173 466,173 466,173 466,173 466,173 466,173 466,173 466,173 466,173 466,172 466,172 466,172 466,172 467,172 467,171 467,171 467,171 467,171 467,171 467,171 467,170 467,170 467,170 467,170 467,170 467,169 468,169 468,169 468,168 468,168 468,168 468,168 468,168 468,168 468,168 468,168 468,168 468,168 468,167 469,167 469,167 469,167 469,167 469,167 469,166 469,166 469,166 469,166 469,166 469,166 469,166 469,165 470,165 470,165 470,164 470,164 470,164 470,164 470,164 470,163 470,163 470,163 470,163 470,163 470,162 471,162 471,162 471,162 471,161 471,161 471,161 471,160 471,160 471,160 471,160 471,160 471,159 471,159 472,159 472,158 472,158 472,158 472,157 472,157 472,157 472,157 472,157 472,157 472,157 472,157 472,157 473,157 473,157 473,157 473,157 473,156 473,156 473,156 473,155 473,155 473,155 473,155 473,155 473,154 474,154 474,154 474,154 474,153 474,153 474,152 474,152 474,152 474,151 474,151 474,151 474,150 474,150 475,149 475,149 475,149 475,148 475,148 475,148 475,148 475,148 475,147 475,147 475,147 475,146 475,146 476,146 476,145 476,145 476,145 476,145 476,145 476,145 476,144 476,144 476,144 476,144 476,145 476,145 477,145 477,145 477,145 477,145 477,145 477,145 477,145 477,146 477,146 477,146 477,146 477,146 478,146 478,147 478,147 478,147 478,147 478,147 478,147 478,147 478,147 478,147 478,147 478,146 478,146 479,146 479,146 479,146 479,146 479,146 479,146 479,145 479,145 479,145 479,145 479,145 479,145 479,145 480,145 480,145 480,145 480,145 480,145 480,145 480,145 480,145 480,145 480,145 480,145 480,145 480,145 481,146 481,146 481,146 481,146 481,146 481,146 481,146 481,146 481,147 481,147 481,147 481,147 481,147 482,147 482,148 482,148 482,148 482,148 482,149 482,149 482,149 482,149 482,149 482,149 482,149 482,149 483,149 483,149 483,149 483,150 483,150 483,150 483,150 483,150 483,150 483,149 483,149 483,150 483,150 484,150 484,150 484,149 484,149 484,149 484,149 484,149 484,149 484,149 484,148 484,148 484,148 484,148 485,148 485,147 485,147 485,147 485,147 485,147 485,146 485,146 485,146 485,146 485,146 485,145 485,145 486,145 486,145 486,145 486,145 486,144 486,144 486,144 486,144 486,144 486,144 486,144 486,144 486,143 487,143 487,143 487,143 487,143 487,142 487,142 487,142 487,142 487,141 487,141 487,141 487,141 487,141 488,141 488,141 488,140 488,140 488,140 488,140 488,140 488,139 488,139 488,139 488,139 488,139 488,138 489,138 489,138 489,138 489,137 489,137 489,137 489,137 489,136 489,136 489,136 489,136 489,136 489,135 490,135 490,135 490,135 490,135 490,134 490,134 490,134 490,133 490,133 490,133 490,134 490,134 490,134 491,134 491,134 491,133 491,133 491,133 491,133 491,133 491,133 491,133 491,133 491,133 491,133 491,132 492,132 492,132 492,132 492,132 492,131 492,131 492,131 492,131 492,130 492,130 492,130 492,129 492,129 493,129 493,129 493,128 493,128 493,128 493,128 493,127 493,127 493,127 493,127 493,127 493,128 493,128 494,128 494,128 494,128 494,128 494,128 494,128 494,128 494,128 494,128 494,128 494,128 494,128 494,128 495,128 495,128 495,128 495,128 495,127 495,127 495,127 495,127 495,127 495,127 495,127 495,127 495,127 496,127 496,127 496,127 496,127 496,128 496,128 496,128 496,128 496,128 496,128 496,129 496,129 496,129 497,129 497,129 497,130 497,130 497,130 497,130 497,131 497,131 497,131 497,131 497,131 497,132 497,132 498,132 498,132 498,132 498,133 498,133 498,133 498,133 498,133 498,133 498,134 498,134 498,134 498,134 499,135 499,135 499,135 499,135 499,135 499,135 499,135 499,135 499,136 499,136 499,136 499,137 499,137 500,138 500,138 500,138 500,138 500,139 500,139 500,139 500,139 500,140 500,140 500,139 500,139 500,139 501,138 501,138 501,137 501,137 501,136 501,137 501,137 501,137 501,137 501,137 501,137 501,137 501,137 502,137 502,137 502,138 502,138 502,138 502,137 502,137 502,137 502,137 502,137 502,137 502,138 502,138 503,138 503,138 503,138 503,139 503,139 503,139 503,139 503,139 503,139 503,140 503,140 503,140 503,140 504,140 504,140 504,141 504,141 504,141 504,141 504,141 504,141 504,141 504,141 504,142 504,142 504,142 505,142 505,142 505,142 505,142 505,142 505,142 505,142 505,142 505,142 505,142 505,143 505,143 505,143 506,143 506,143 506,143 506,143 506,143 506,143 506,143 506,143 506,143 506,144 506,144 506,144 506,144 507,144 507,144 507,144 507,144 507,144 507,144 507,144 507,144 507,144 507,144 507,144 507,145 507,145 508,145 508,145 508,145 508,145 508,145 508,145 508,145 508,145 508,145 508,145 508,145 508,145 508,145 509,145 509,145 509,145 509,144 509,144 509,144 509,144 509,143 509,143 509,142 509,142 509,141 509,141 510,141 510,140 510,140 510,139 510,139 510,139 510,139 510,138 510,138 510,138 510,138 510,138 510,137 511,137 511,137 511,137 511,136 511,136 511,135 511,135 511,135 511,135 511,134 511,134 511,134 511,133 512,133 512,133 512,133 512,133 512,133 512,132 512,132 512,132 512,132 512,132 512,132 512,132 512,132 513,132 513,132 513,132 513,132 513,132 513,132 513,132 513,132 513,132 513,132 513,132 513,132 513,132 514,133 514,133 514,133 514,133 514,133 514,133 514,133 514,133 514,133 514,133 514,133 514,133 514,133 515,133 515,133 515,134 515,134 515,134 515,134 515,134 515,135 515,135 515,135 515,135 515,135 515,136 516,136 516,136 516,136 516,136 516,137 516,137 516,137 516,137 516,137 516,137 516,138 516,138 516,138 517,139 517,139 517,140 517,140 517,140 517,140 517,140 517,141 517,141 517,141 517,142 517,142 517,142 518,143 518,143 518,143 518,143 518,143 518,143 518,143 518,143 518,143 518,143 518,143 518,143 518,143 519,143 519,143 519,143 519,143 519,143 519,143 519,143 519,143 519,143 519,143 519,143 519,143 519,143 520,143 520,143 520,143 520,143 520,143 520,143 520,143 520,143 520,143 520,143 520,143 520,143 520,143 521,143 521,143 521,143 521,142 521,142 521,142 521,142 521,142 521,142 521,142 521,142 521,142 521,142 522,142 522,142 522,142 522,141 522,141 522,141 522,141 522,141 522,142 522,142 522,142 522,142 522,142 523,142 523,142 523,142 523,142 523,142 523,142 523,142 523,142 523,142 523,142 523,142 523,142 523,142 524,142 524,142 524,142 524,142 524,142 524,142 524,142 524,142 524,142 524,142 524,142 524,142 524,142 525,142 525,141 525,141 525,141 525,141 525,141 525,141 525,141 525,141 525,141 525,141 525,141 525,141 526,141 526,141 526,141 526,141 526,141 526,141 526,141 526,141 526,141 526,141 526,141 526,141 526,141 527,141 527,141 527,140 527,140 527,140 527,140 527,140 527,140 527,140 527,140 527,140 527,139 527,139 528,139 528,139 528,139 528,138 528,138 528,138 528,138 528,138 528,138 528,138 528,137 528,137 528,137 529,137 529,137 529,137 529,136 529,136 529,136 529,136 529,136 529,136 529,136 529,135 529,135 529,135 530,135 530,135 530,135 530,135 530,134 530,134 530,134 530,134 530,134 530,134 530,134 530,134 531,134 531,134 531,135 531,135 531,135 531,136 531,136 531,136 531,137 531,137 531,137 531,138 531,138 532,139 532,140 532,141 532,142 532,143 532,144 532,145 532,146 532,147 532,148 532,149 532,149 532,150 533,151 533,152 533,152 533,153 533,153 533,154 533,154 533,154 533,154 533,154 533,154 533,154 533,154 534,153 534,152 534,151 534,151 534,149 534,148 534,147 534,147 534,146 534,145 534,145 534,145 534,145 535,145 535,145 535,145 535,145 535,145 535,145 535,145 535,145 535,145 535,144 535,144 535,144 535,144 536,144 536,144 536,144 536,144 536,144 536,144 536,144 536,145 536,145 536,145 536,146 536,146 536,146 537,147 537,147 537,148 537,148 537,149 537,150 537,150 537,151 537,152 537,153 537,154 537,155 537,156 538,157 538,157 538,158 538,159 538,160 538,161 538,161 538,162 538,163 538,164 538,164 538,165 538,165 539,166 539,167 539,167 539,168 539,169 539,169 539,170 539,171 539,172 539,172 539,173 539,174 539,174 540,175 540,175 540,176 540,177 540,178 540,178 540,179 540,180 540,180 540,180 540,181 540,181 540,182 541,182 541,182 541,182 541,182 541,183 541,183 541,183 541,184 541,184 541,184 541,185 541,185 541,185 542,186 542,186 542,186 542,186 542,186 542,186 542,187 542,187 542,186 542,185 542,184 542,183 542,183 543,182 543,182 543,181 543,181 543,180 543,180 543,179 543,179 543,179 543,178 543,178 543,177 543,177 544,177 544,177 544,177 544,177 544,177 544,177 544,177 544,177 544,177 544,177 544,177 544,177 544,177 545,177 545,177 545,177 545,177 545,177 545,177 545,177 545,177 545,177 545,177 545,177 545,177 545,177 546,177 546,177 546,178 546,178 546,178 546,178 546,179 546,179 546,180 546,180 546,180 546,181 546,181 547,182 547,182 547,182 547,183 547,183 547,183 547,183 547,183 547,183 547,183 547,183 547,184 547,184 548,184 548,184 548,184 548,184 548,184 548,184 548,184 548,184 548,184 548,184 548,184 548,184 548,184 549,184 549,184 549,184 549,184 549,184 549,184 549,184 549,184 549,183 549,183 549,183 549,183 549,183 550,183 550,183 550,183 550,183 550,183 550,182 550,182 550,181 550,181 550,181 550,181 550,181 550,181 551,181 551,181 551,181 551,181 551,181 551,181 551,181 551,182 551,182 551,182 551,182 551,181 551,181 552,181 552,180 552,180 552,180 552,180 552,180 552,180 552,179 552,179 552,178 552,178 552,178 552,177 553,177 553,177 553,177 553,176 553,176 553,176 553,176 553,176 553,175 553,175 553,175 553,175 553,175 554,174 554,174 554,174 554,174 554,174 554,175 554,175 554,175 554,174 554,174 554,174 554,174 554,174 555,174 555,174 555,174 555,174 555,174 555,174 555,174 555,173 555,173 555,173 555,173 555,173 555,173 556,173 556,173 556,173 556,173 556,173 556,174 556,174 556,174 556,174 556,174 556,173 556,173 556,173 557,173 557,173 557,173 557,173 557,172 557,172 557,172 557,172 557,171 557,171 557,171 557,171 557,171 558,171 558,171 558,171 558,171 558,171 558,172 558,172 558,172 558,172 558,172 558,172 558,172 558,172 559,172 559,171 559,171 559,171 559,172 559,172 559,172 559,173 559,173 559,173 559,173 559,173 559,173 560,173 560,173 560,173 560,173 560,173 560,173 560,173 560,173 560,173 560,173 560,173 560,173 560,173 561,173 561,173 561,173 561,173 561,173 561,173 561,173 561,173 561,174 561,174 561,174 561,174 561,174 562,174 562,174 562,173 562,173 562,173 562,174 562,174 562,174 562,174 562,174 562,174 562,174 562,174 563,174 563,175 563,175 563,175 563,175 563,175 563,175 563,176 563,176 563,176 563,176 563,176 563,176 564,176 564,176 564,176 564,176 564,176 564,176 564,176 564,176 564,176 564,176 564,176 564,176 564,176 565,176 565,176 565,176 565,176 565,176 565,176 565,176 565,176 565,176 565,176 565,176 565,176 565,176 566,176 566,177 566,177 566,177 566,177 566,177 566,177 566,177 566,176 566,176 566,176 566,176 566,176 567,175 567,175 567,175 567,175 567,175 567,174 567,174 567,174 567,174 567,173 567,173 567,173 567,173 568,172 568,172 568,172 568,171 568,171 568,171 568,171 568,171 568,171 568,170 568,170 568,170 568,170 569,170 569,170 569,169 569,169 569,169 569,169 569,169 569,169 569,168 569,168 569,168 569,168 569,168 570,168 570,168 570,168 570,168 570,168 570,168 570,168 570,167 570,167 570,167 570,167 570,167 570,167 571,167 571,167 571,167 571,167 571,167 571,166 571,166 571,166 571,166 571,166 571,166 571,167 571,167 572,167 572,168 572,168 572,168 572,168 572,169 572,169 572,169 572,169 572,169 572,169 572,169 572,169 573,169 573,169 573,169 573,168 573,168 573,168 573,168 573,168 573,168 573,168 573,168 573,168 573,168 574,168 574,168 574,169 574,169 574,169 574,169 574,169 574,169 574,168 574,168 574,168 574,168 574,168 575,168 575,169 575,169 575,169 575,169 575,169 575,169 575,169 575,169 575,169 575,169 575,169 575,169 576,169 576,169 576,169 576,169 576,168 576,168 576,168 576,168 576,168 576,168 576,168 576,168 576,167 577,167 577,167 577,168 577,167 577,167 577,167 577,167 577,167 577,167 577,167 577,167 577,167 577,167 578,167 578,167 578,167 578,167 578,167 578,167 578,167 578,167 578,167 578,166 578,166 578,166 578,166 579,166 579,166 579,166 579,165 579,165 579,165 579,165 579,165 579,165 579,165 579,165 579,166 579,166 580,166 580,167 580,167 580,167 580,168 580,168 580,168 580,168 580,168 580,168 580,168 580,168 580,168 581,168 581,168 581,168 581,168 581,168 581,168 581,169 581,169 581,169 581,169 581,169 581,169 581,170 582,170 582,170 582,170 582,170 582,170 582,170 582,171 582,171 582,171 582,171 582,171 582,171 582,171 583,171 583,171 583,171 583,171 583,171 583,172 583,172 583,172 583,172 583,172 583,172 583,172 584,172 584,172 584,172 584,172 584,172 584,172 584,171 584,171 584,171 584,171 584,171 584,171 584,170 585,170 585,170 585,170 585,170 585,170 585,169 585,169 585,169 585,169 585,169 585,169 585,169 585,169 586,169 586,169 586,169 586,169 586,169 586,169 586,169 586,169 586,169 586,169 586,169 586,169 586,169 587,169 587,169 587,169 587,169 587,169 587,169 587,170 587,170 587,170 587,170 587,170 587,171 587,171 588,171 588,171 588,171 588,172 588,172 588,172 588,173 588,173 588,173 588,173 588,173 588,174 588,174 589,174 589,175 589,175 589,175 589,175 589,176 589,176 589,176 589,176 589,176 589,176 589,176 589,176 590,176 590,177 590,177 590,177 590,177 590,178 590,178 590,178 590,179 590,179 590,179 590,180 590,180 591,180 591,181 591,181 591,181 591,182 591,182 591,183 591,183 591,184 591,184 591,185 591,185 591,185 592,186 592,186 592,187 592,187 592,187 592,188 592,188 592,188 592,188 592,188 592,187 592,187 592,187 593,187 593,186 593,186 593,186 593,186 593,186 593,186 593,187 593,187 593,187 593,188 593,188 593,189 594,189 594,189 594,190 594,190 594,191 594,191 594,192 594,192 594,193 594,194 594,194 594,195 594,195 595,195 595,196 595,196 595,197 595,197 595,198 595,198 595,198 595,199 595,199 595,199 595,200 595,200 596,200 596,200 596,201 596,201 596,202 596,202 596,203 596,203 596,204 596,204 596,205 596,205 596,206 597,206 597,207 597,207 597,207 597,208 597,208 597,208 597,208 597,209 597,209 597,209 597,209 597,209 598,209 598,208 598,208 598,207 598,207 598,207 598,206 598,206 598,206 598,205 598,205 598,205 598,205 599,205 599,205 599,205 599,205 599,205 599,205 599,205 599,206 599,206 599,206 599,207 599,207 599,208 600,208 600,208 600,208 600,207 600,207 600,207 600,206 600,206 600,206 600,205 600,205 600,205 600,205 601,206 601,206 601,206 601,207 601,207 601,208 601,208 601,208 601,208 601,208 601,209 601,209 601,210 602,210 602,211 602,211 602,212 602,212 602,213 602,213 602,213 602,214 602,214 602,215 602,215 602,215 603,216 603,216 603,217 603,217 603,217 603,218 603,218 603,218 603,219 603,219 603,219 603,219 603,220 604,220 604,220 604,220 604,220 604,220 604,220 604,220 604,220 604,220 604,220 604,220 604,220 604,220 605,221 605,221 605,221 605,221 605,221 605,221 605,221 605,221 605,221 605,221 605,221 605,221 605,221 606,221 606,221 606,221 606,221 606,222 606,222 606,221 606,221 606,221 606,221 606,221 606,221 606,221 607,221 607,221 607,221 607,221 607,220 607,220 607,220 607,220 607,220 607,220 607,220 607,220 607,220 608,220 608,220 608,220 608,219 608,219 608,219 608,219 608,219 608,219 608,219 608,219 608,219 608,219 609,219 609,219 609,219 609,219 609,219 609,219 609,219 609,219 609,220 609,220 609,220 609,220 609,220 610,220 610,220 610,220 610,220 610,220 610,220 610,220 610,221 610,221 610,221 610,221 610,221 610,221 611,221 611,222 611,222 611,222 611,222 611,222 611,222 611,222 611,222 611,223 611,223 611,223 611,223 612,223 612,223 612,224 612,224 612,224 612,224 612,225 612,225 612,225 612,225 612,225 612,225 612,225 613,225 613,226 613,226 613,226 613,226 613,226 613,225 613,225 613,225 613,225 613,225 613,225 613,224 614,224 614,224 614,224 614,224 614,224 614,224 614,224 614,224 614,224 614,224 614,224 614,224 614,224 615,224 615,224 615,224 615,224 615,224 615,224 615,224 615,223 615,223 615,223 615,223 615,223 615,223 616,223 616,222 616,222 616,222 616,222 616,222 616,222 616,222 616,222 616,222 616,222 616,222 616,222 617,222 617,222 617,222 617,222 617,223 617,223 617,223 617,223 617,224 617,224 617,224 617,224 617,225 618,225 618,225 618,225 618,226 618,226 618,226 618,226 618,227 618,227 618,227 618,228 618,228 618,228 619,229 619,229 619,229 619,230 619,230 619,230 619,230 619,230 619,230 619,230 619,230 619,230 619,230 620,230 620,230 620,230 620,230 620,229 620,229 620,229 620,229 620,229 620,229 620,229 620,229 620,229 621,229 621,229 621,229 621,229 621,229 621,230 621,230 621,230 621,230 621,230 621,230 621,230 621,230 622,230 622,230 622,230 622,230 622,231 622,231 622,231 622,231 622,231 622,231 622,232 622,232 622,232 623,232 623,233 623,233 623,233 623,234 623,234 623,234 623,234 623,234 623,234 623,235 623,235 623,235 624,235 624,235 624,235 624,235 624,235 624,235 624,236 624,236 624,236 624,236 624,236 624,236 624,236 625,237 625,237 625,237 625,238 625,238 625,238 625,239 625,239 625,240 625,240 625,240 625,241 625,241 626,242 626,242 626,242 626,242 626,242 626,242 626,242 626,242 626,242 626,242 626,242 626,242 626,242 627,242 627,242 627,242 627,242 627,242 627,242 627,242 627,241 627,241 627,241 627,240 627,240 627,239 628,238 628,238 628,237 628,236 628,236 628,235 628,235 628,235 628,234 628,234 628,233 628,233 628,233 629,232 629,232 629,231 629,231 629,231 629,230 629,230 629,230 629,229 629,229 629,228 629,228 629,228 630,228 630,227 630,227 630,226 630,226 630,226 630,225 630,225 630,225 630,225 630,225 630,225 630,225 631,225 631,225 631,225 631,225 631,225 631,225 631,226 631,226 631,226 631,226 631,226 631,226 631,226 632,226 632,226 632,226 632,227 632,227 632,227 632,227 632,228 632,228 632,229 632,229 632,230 632,231 633,232 633,233 633,233 633,234 633,234 633,235 633,235 633,235 633,235 633,235 633,234 633,234 633,233 634,232 634,231 634,231 634,231 634,231 634,230 634,230 634,230 634,230 634,229 634,229 634,229 634,229 635,228 635,228 635,228 635,228 635,228 635,228 635,228 635,228 635,228 635,228 635,228 635,228 635,228 636,228 636,228 636,229 636,229 636,229 636,229 636,229 636,230 636,230 636,230 636,231 636,231 637,231 637,232 637,232 637,232 637,232 637,233 637,233 637,233 637,234 637,234 637,234 637,235 637,235 638,235 638,235 638,236 638,236 638,236 638,236 638,236 638,237 638,237 638,237 638,237 638,237 638,238 639,238 639,238 639,238 639,238 639,238 639,239 639,239 639,239 639,239 639,239 639,239 639,240 639,240 640,240 640,240 640,241 640,241 640,241 640,241 640,241 640,242 640,242 640,243 640,243 640,243 640,243 641,243 641,243 641,243 641,243 641,243 641,243 641,243 641,243 641,243 641,243 641,243 641,243 641,243 642,243 642,243 642,243 642,243 642,244 642,244 642,244 642,244 642,244 642,244 642,244 642,244 642,244 643,244 643,244 643,245 643,245 643,245 643,245 643,245 643,245 643,245 643,246 643,246 643,246 643,246 644,246 644,246 644,247 644,247 644,247 644,247 644,247 644,247 644,247 644,247 644,247 644,247 644,246 645,246 645,246 645,246 645,246 645,246 645,246 645,246 645,246 645,246 645,246 645,246 645,246 645,246 646,246 646,246 646,246 646,246 646,246 646,246 646,245 646,245 646,245 646,245 646,245 646,245 646,245 647,245 647,245 647,245 647,245 647,245 647,245 647,245 647,245 647,245 647,245 647,245 647,246 647,246 648,246 648,246 648,246 648,246 648,246 648,246 648,246 648,246 648,245 648,245 648,245 648,245 648,244 649,244 649,244 649,244 649,243 649,243 649,243 649,242 649,242 649,242 649,241 649,241 649,241 649,241 650,240 650,240 650,240 650,240 650,240 650,240 650,240 650,239 650,239 650,239 650,239 650,239 650,239 651,239 651,239 651,239 651,239 651,238 651,238 651,238 651,238 651,238 651,238 651,238 651,238 651,238 652,238 652,238 652,237 652,237 652,237 652,237 652,237 652,237 652,237 652,237 652,237 652,237 652,237 653,237 653,237 653,237 653,237 653,237 653,238 653,238 653,238 653,238 653,238 653,238 653,238 653,238 654,239 654,239 654,239 654,239 654,239 654,239 654,239 654,239 654,239 654,240 654,240 654,240 654,240 655,240 655,240 655,241 655,241 655,241 655,241 655,241 655,241 655,241 655,241 655,241 655,242 655,242 656,242 656,242 656,242 656,242 656,242 656,242 656,242 656,242 656,242 656,242 656,242 656,242 656,243 657,243 657,243 657,243 657,243 657,243 657,243 657,243 657,244 657,244 657,244 657,244 657,244 657,245 658,245 658,245 658,245 658,245 658,246 658,246 658,246 658,246 658,247 658,247 658,247 658,247 658,248 659,248 659,248 659,249 659,249 659,250 659,250 659,250 659,251 659,251 659,252 659,252 659,252 659,253 660,253 660,254 660,255 660,255 660,256 660,257 660,257 660,258 660,258 660,259 660,259 660,260 660,261 661,261 661,262 661,263 661,263 661,264 661,264 661,265 661,265 661,265 661,265 661,266 661,266 661,267 662,267 662,267 662,267 662,267 662,267 662,267 662,267 662,267 662,266 662,266 662,266 662,265 662,265 663,265 663,265 663,265 663,264 663,264 663,264 663,264 663,264 663,264 663,264 663,264 663,264 663,264 664,264 664,263 664,263 664,263 664,263 664,263 664,264 664,264 664,264 664,264 664,265 664,265 664,265 665,266 665,266 665,266 665,267 665,267 665,267 665,267 665,268 665,268 665,268 665,269 665,269 665,269 666,270 666,270 666,270 666,271 666,271 666,271 666,271 666,271 666,270 666,270 666,270 666,270 666,269 667,269 667,268 667,267 667,266 667,266 667,265 667,264 667,263 667,262 667,261 667,261 667,260 667,259 668,259 668,258 668,258 668,258 668,258 668,258 668,257 668,257 668,257 668,257 668,256 668,256 668,256 669,256 669,255 669,255 669,255 669,255 669,255 669,256 669,256 669,256 669,257 669,257 669,258 669,258 670,258 670,258 670,258 670,258 670,259 670,259 670,259 670,259 670,259 670,259 670,259 670,259 670,260 671,260 671,260 671,261 671,261 671,262 671,262 671,263 671,264 671,264 671,265 671,266 671,266 671,267 672,268 672,268 672,269 672,269 672,270 672,270 672,270 672,271 672,271 672,271 672,271 672,272 672,272 673,272 673,273 673,273 673,273 673,273 673,273 673,273 673,273 673,272 673,272 673,271 673,270 673,269 674,268 674,267 674,266 674,265 674,264 674,263 674,263 674,263 674,262 674,262 674,262 674,262 674,261 675,261 675,261 675,261 675,261 675,261 675,261 675,261 675,262 675,262 675,262 675,262 675,262 675,262 676,261 676,261 676,261 676,261 676,261 676,261 676,261 676,261 676,261 676,261 676,261 676,262 676,262 677,261 677,261 677,261 677,261 677,261 677,261 677,261 677,261 677,261 677,260 677,260 677,260 677,260 678,260 678,260 678,260 678,260 678,260 678,260 678,260 678,260 678,260 678,260 678,260 678,260 678,260 679,260 679,259 679,259 679,259 679,259 679,259 679,259 679,259 679,259 679,259 679,259 679,259 679,258 680,258 680,258 680,258 680,258 680,258 680,257 680,257 680,257 680,257 680,257 680,256 680,256 680,256 681,256 681,256 681,255 681,255 681,255 681,255 681,255 681,255 681,255 681,255 681,255 681,255 681,255 682,255 682,255 682,255 682,255 682,254 682,254 682,254 682,254 682,254 682,254 682,253 682,253 682,253 683,253 683,253 683,252 683,252 683,252 683,252 683,251 683,251 683,251 683,251 683,251 683,250 683,250 684,250 684,250 684,250 684,250 684,249 684,249 684,249 684,249 684,249 684,249 684,248 684,248 684,248 685,248 685,248 685,248 685,248 685,247 685,247 685,247 685,247 685,247 685,246 685,246 685,246 685,245 686,245 686,245 686,245 686,245 686,245 686,245 686,245 686,245 686,245 686,245 686,246 686,246 686,246 687,246 687,246 687,246 687,246 687,246 687,246 687,246 687,246 687,246 687,246 687,245 687,245 687,245 688,244 688,244 688,243 688,243 688,243 688,242 688,242 688,241 688,241 688,241 688,241 688,240 688,240 689,240 689,240 689,240 689,240 689,240 689,240 689,240 689,240 689,241 689,241 689,241 689,242 690,242 690,243 690,243 690,244 690,244 690,244 690,245 690,245 690,244 690,244 690,244 690,244 690,244 691,244 691,243 691,243 691,243 691,243 691,243 691,242 691,242 691,242 691,241 691,241 691,241 691,241 692,240 692,240 692,239 692,239 692,239 692,238 692,238 692,237 692,237 692,237 692,236 692,236 692,235 693,235 693,234 693,234 693,234 693,233 693,232 693,231 693,231 693,230 693,229 693,228 693,227 693,226 694,225 694,224 694,223 694,221 694,220 694,219 694,217 694,216 694,215 694,214 694,213 694,212 694,211 695,209 695,208 695,207 695,206 695,206 695,205 695,204 695,204 695,203 695,203 695,202 695,202 695,202 696,201 696,201 696,201 696,201 696,201 696,201 696,201 696,201 696,200 696,200 696,199 696,199 696,199 697,199 697,198 697,198 697,197 697,197 697,197 697,197 697,197 697,197 697,196 697,196 697,196 697,196 698,195 698,195 698,195 698,195 698,194 698,194 698,194 698,194 698,194 698,193 698,193 698,193 698,193 699,193 699,192 699,192 699,192 699,191 699,191 699,191 699,191 699,191 699,191 699,191 699,190 699,190 700,190 700,190 700,190 700,190 700,189 700,189 700,189 700,189 700,189 700,188 700,188 700,188 700,188 701,188 701,188 701,188 701,188 701,188 701,188 701,188 701,188 701,188 701,187 701,187 701,187 701,187 702,187 702,187 702,187 702,187 702,187 702,187 702,187 702,187 702,187 702,187 702,187 702,187 702,187 703,187 703,187 703,187 703,186 703,186 703,186 703,186 703,186 703,186 703,186 703,186 703,186 703,186 704,186 704,186 704,186 704,186 704,186 704,187 704,187 704,187 704,187 704,187 704,188 704,188 704,188 705,188 705,188 705,189 705,189 705,189 705,189 705,190 705,190 705,190 705,191 705,191 705,191 705,191 706,191 706,192 706,192 706,192 706,192 706,192 706,192 706,192 706,193 706,193 706,193 706,193 706,193 707,193 707,193 707,193 707,193 707,193 707,193 707,194 707,194 707,194 707,194 707,194 707,194 707,195 708,195 708,195 708,195 708,196 708,196 708,196 708,196 708,196 708,196 708,197 708,197 708,197 708,198 709,198 709,198 709,198 709,198 709,199 709,199 709,199 709,199 709,199 709,200 709,200 709,200 709,201 710,201 710,201 710,202 710,202 710,203 710,203 710,204 710,204 710,205 710,205 710,205 710,206 710,206 711,206 711,206 711,206 711,206 711,206 711,206 711,207 711,207 711,207 711,207 711,207 711,207 711,207 712,207 712,208 712,208 712,208 712,208 712,209 712,209 712,209 712,209 712,210 712,210 712,210 712,210 713,211 713,211 713,212 713,212 713,212 713,213 713,213 713,213 713,214 713,214 713,214 713,215 713,215 714,215 714,216 714,216 714,217 714,217 714,218 714,218 714,219 714,220 714,220 714,221 714,221 714,222 715,222 715,223 715,223 715,223 715,224 715,224 715,224 715,224 715,224 715,224 715,224 715,225 715,225 716,225 716,225 716,225 716,225 716,225 716,225 716,225 716,225 716,225 716,225 716,225 716,225 716,225 717,226 717,226 717,226 717,226 717,226 717,226 717,226 717,226 717,226 717,226 717,226 717,226 717,226 718,227 718,227 718,227 718,227 718,227 718,228 718,228 718,228 718,229 718,229 718,230 718,230 718,230 719,231 719,231 719,231 719,232 719,232 719,232 719,232 719,232 719,232 719,232 719,232 719,231 719,231 720,230 720,229 720,229 720,228 720,227 720,226 720,226 720,225 720,224 720,223 720,222 720,222 720,221 721,221 721,221 721,221 721,221 721,221 721,220 721,220 721,220 721,220 721,220 721,219 721,218 721,218 722,218 722,218 722,218 722,218 722,218 722,218 722,217 722,217 722,217 722,217 722,218 722,218 722,218 723,218 723,218 723,218 723,218 723,217 723,217 723,217 723,217 723,216 723,216 723,216 723,216 723,215 724,215 724,215 724,215 724,215 724,215 724,215 724,215 724,215 724,215 724,215 724,214 724,214 724,214 725,213 725,213 725,213 725,212 725,212 725,212 725,211 725,211 725,211 725,211 725,211 725,212 725,212 726,212 726,213 726,213 726,213 726,214 726,214 726,214 726,215 726,215 726,215 726,215 726,216 726,216 727,216 727,216 727,216 727,216 727,217 727,217 727,217 727,217 727,217 727,218 727,218 727,218 727,219 728,219 728,219 728,219 728,219 728,219 728,220 728,220 728,220 728,220 728,220 728,221 728,221 728,221 729,221 729,221 729,221 729,221 729,222 729,222 729,222 729,222 729,222 729,222 729,222 729,222 729,222 730,222 730,222 730,222 730,222 730,222 730,222 730,222 730,222 730,222 730,222 730,222 730,222 730,222 731,222 731,222 731,223 731,223 731,223 731,223 731,223 731,223 731,223 731,223 731,223 731,223 731,223 732,223 732,223 732,223 732,223 732,223 732,224 732,224 732,224 732,224 732,224 732,224 732,224 732,224 733,224 733,224 733,225 733,225 733,225 733,225 733,225 733,225 733,226 733,226 733,226 733,226 733,226 734,226 734,226 734,227 734,227 734,227 734,227 734,228 734,228 734,228 734,228 734,229 734,229 734,229 735,229 735,229 735,229 735,229 735,230 735,230 735,230 735,230 735,230 735,230 735,230 735,230 735,230 736,230 736,231 736,231 736,231 736,232 736,232 736,232 736,233 736,233 736,233 736,232 " vector-effect="non-scaling-stroke"></polyline>
</g></svg>