<?xml version="1.0" encoding="UTF-8" standalone="no"?><svg width="282.222mm" height="141.111mm" xmlns="http://www.w3.org/2000/svg" xmlns:xlink="http://www.w3.org/1999/xlink"  version="1.2" baseProfile="tiny"><g fill="none" stroke="#ff0000" stroke-linecap="round" stroke-linejoin="round" stroke-opacity="1" stroke-width="1.5" transform="matrix(1,0,0,1,0,0)">
<polyline fill="none" points="63,282 63,281 63,281 63,280 63,280 63,279 63,279 63,278 63,277 63,276 64,275 64,274 64,273 64,272 64,271 64,270 64,269 64,268 64,268 64,268 64,267 64,267 64,267 65,266 65,266 65,266 65,265 65,264 65,264 65,264 65,264 65,264 65,264 65,264 65,264 65,264 66,264 66,264 66,264 66,264 66,264 66,264 66,264 66,264 66,264 66,264 66,263 66,263 66,264 67,264 67,265 67,266 67,266 67,266 67,266 67,267 67,267 67,267 67,267 67,267 67,266 67,266 68,265 68,265 68,265 68,265 68,264 68,263 68,262 68,262 68,261 68,260 68,259 68,258 68,257 69,256 69,255 69,254 69,253 69,252 69,252 69,251 69,251 69,250 69,250 69,250 69,250 69,249 70,249 70,248 70,248 70,248 70,247 70,247 70,247 70,246 70,246 70,245 70,245 70,245 70,245 71,245 71,246 71,246 71,246 71,246 71,246 71,246 71,246 71,246 71,246 71,246 71,246 71,246 72,246 72,246 72,247 72,247 72,247 72,247 72,247 72,247 72,247 72,247 72,247 72,247 72,246 73,246 73,245 73,244 73,244 73,243 73,243 73,242 73,242 73,242 73,242 73,241 73,241 73,241 74,240 74,240 74,240 74,240 74,240 74,239 74,239 74,239 74,239 74,239 74,239 74,239 74,238 75,238 75,238 75,238 75,238 75,237 75,237 75,236 75,236 75,236 75,236 75,235 75,235 75,235 76,236 76,236 76,236 76,236 76,236 76,236 76,236 76,236 76,236 76,236 76,236 76,236 76,236 77,236 77,236 77,236 77,237 77,237 77,237 77,237 77,237 77,237 77,237 77,237 77,237 77,237 78,238 78,238 78,238 78,239 78,239 78,240 78,241 78,242 78,243 78,244 78,244 78,245 78,245 79,246 79,247 79,248 79,249 79,249 79,249 79,249 79,249 79,249 79,249 79,249 79,248 79,248 80,248 80,248 80,247 80,247 80,247 80,247 80,246 80,246 80,246 80,245 80,245 80,244 80,243 81,243 81,242 81,242 81,241 81,241 81,241 81,240 81,240 81,239 81,238 81,238 81,237 81,236 82,235 82,235 82,234 82,233 82,232 82,231 82,230 82,229 82,229 82,228 82,227 82,226 82,226 83,226 83,225 83,225 83,225 83,225 83,226 83,226 83,226 83,226 83,226 83,226 83,226 83,226 84,226 84,226 84,226 84,227 84,227 84,227 84,227 84,227 84,228 84,228 84,228 84,229 84,229 85,230 85,231 85,231 85,232 85,233 85,233 85,234 85,234 85,235 85,235 85,236 85,236 85,236 86,236 86,236 86,236 86,236 86,236 86,236 86,236 86,235 86,235 86,235 86,234 86,234 86,233 87,233 87,233 87,232 87,232 87,232 87,231 87,230 87,230 87,230 87,229 87,229 87,229 87,229 88,229 88,229 88,229 88,230 88,230 88,230 88,230 88,230 88,230 88,230 88,230 88,230 88,230 89,230 89,230 89,230 89,230 89,230 89,230 89,230 89,230 89,231 89,231 89,232 89,233 89,233 90,234 90,234 90,235 90,235 90,236 90,236 90,237 90,237 90,237 90,237 90,238 90,238 90,238 91,238 91,238 91,238 91,238 91,238 91,237 91,237 91,237 91,236 91,236 91,236 91,235 91,235 92,234 92,234 92,233 92,233 92,232 92,232 92,231 92,231 92,231 92,230 92,230 92,230 92,230 93,230 93,229 93,229 93,229 93,229 93,229 93,228 93,228 93,227 93,226 93,226 93,226 93,226 94,225 94,225 94,224 94,224 94,223 94,223 94,223 94,222 94,222 94,222 94,222 94,222 94,221 95,221 95,221 95,220 95,220 95,219 95,219 95,219 95,218 95,218 95,218 95,218 95,218 95,218 96,218 96,218 96,218 96,218 96,218 96,218 96,218 96,218 96,218 96,218 96,218 96,218 97,218 97,218 97,218 97,218 97,219 97,219 97,219 97,219 97,219 97,219 97,219 97,219 97,220 98,220 98,220 98,221 98,221 98,221 98,222 98,222 98,223 98,224 98,224 98,224 98,225 98,225 99,225 99,226 99,226 99,227 99,227 99,228 99,228 99,228 99,229 99,230 99,230 99,231 99,231 100,232 100,232 100,232 100,232 100,232 100,232 100,232 100,232 100,232 100,232 100,232 100,232 100,232 101,232 101,232 101,232 101,232 101,232 101,232 101,232 101,232 101,232 101,233 101,233 101,233 101,233 102,233 102,234 102,234 102,234 102,235 102,235 102,235 102,235 102,236 102,236 102,236 102,237 102,237 103,238 103,238 103,238 103,239 103,239 103,240 103,240 103,240 103,240 103,241 103,241 103,241 103,241 104,241 104,241 104,242 104,242 104,242 104,242 104,243 104,243 104,243 104,243 104,243 104,243 104,243 105,243 105,243 105,243 105,243 105,243 105,242 105,242 105,242 105,242 105,242 105,241 105,241 105,241 106,241 106,241 106,240 106,240 106,240 106,240 106,240 106,239 106,239 106,239 106,239 106,239 106,239 107,239 107,239 107,238 107,238 107,238 107,238 107,238 107,238 107,238 107,238 107,238 107,238 107,239 108,239 108,239 108,239 108,239 108,239 108,239 108,239 108,239 108,239 108,239 108,239 108,239 108,239 109,239 109,239 109,239 109,239 109,239 109,239 109,239 109,239 109,239 109,239 109,239 109,239 109,239 110,239 110,239 110,239 110,239 110,239 110,239 110,239 110,239 110,239 110,239 110,239 110,239 110,239 111,239 111,239 111,239 111,239 111,239 111,239 111,239 111,239 111,239 111,239 111,239 111,239 111,239 112,239 112,239 112,239 112,239 112,239 112,239 112,239 112,239 112,238 112,238 112,238 112,238 112,238 113,238 113,238 113,238 113,238 113,238 113,238 113,238 113,238 113,237 113,237 113,237 113,237 113,237 114,237 114,237 114,237 114,236 114,237 114,237 114,237 114,236 114,236 114,236 114,236 114,236 114,236 115,236 115,236 115,236 115,236 115,236 115,236 115,236 115,236 115,236 115,236 115,235 115,235 115,235 116,235 116,235 116,235 116,234 116,234 116,234 116,234 116,234 116,233 116,233 116,233 116,233 116,233 117,233 117,233 117,233 117,232 117,232 117,232 117,232 117,232 117,232 117,232 117,232 117,231 117,231 118,231 118,231 118,231 118,230 118,230 118,230 118,230 118,230 118,230 118,229 118,229 118,229 118,229 119,229 119,228 119,228 119,228 119,228 119,228 119,228 119,227 119,227 119,227 119,227 119,227 119,226 120,226 120,226 120,226 120,226 120,226 120,225 120,225 120,225 120,225 120,225 120,225 120,225 120,225 121,224 121,224 121,224 121,224 121,224 121,224 121,224 121,224 121,223 121,223 121,223 121,223 121,223 122,223 122,223 122,223 122,223 122,223 122,223 122,222 122,222 122,222 122,222 122,222 122,222 122,222 123,222 123,222 123,222 123,222 123,222 123,221 123,221 123,221 123,221 123,221 123,221 123,221 123,221 124,221 124,221 124,221 124,221 124,221 124,221 124,221 124,221 124,221 124,221 124,221 124,221 124,221 125,221 125,221 125,220 125,220 125,220 125,220 125,220 125,220 125,220 125,220 125,220 125,220 125,220 126,220 126,220 126,219 126,219 126,218 126,218 126,218 126,218 126,218 126,218 126,218 126,218 126,218 127,218 127,218 127,218 127,218 127,218 127,218 127,218 127,218 127,218 127,218 127,218 127,218 127,218 128,217 128,217 128,217 128,216 128,216 128,216 128,216 128,216 128,216 128,215 128,215 128,215 128,214 129,214 129,214 129,214 129,214 129,213 129,213 129,213 129,212 129,212 129,211 129,211 129,210 129,210 130,209 130,209 130,208 130,208 130,207 130,207 130,206 130,206 130,205 130,205 130,204 130,204 130,203 131,203 131,202 131,201 131,200 131,200 131,199 131,198 131,198 131,197 131,197 131,197 131,196 131,196 132,196 132,195 132,195 132,194 132,193 132,192 132,191 132,190 132,189 132,188 132,188 132,187 132,186 133,186 133,185 133,184 133,184 133,183 133,182 133,182 133,181 133,181 133,180 133,180 133,179 133,179 134,178 134,178 134,177 134,177 134,177 134,177 134,176 134,176 134,175 134,175 134,175 134,174 134,174 135,173 135,173 135,173 135,173 135,172 135,172 135,172 135,172 135,172 135,171 135,171 135,171 135,171 136,171 136,171 136,171 136,171 136,171 136,171 136,171 136,171 136,171 136,172 136,172 136,172 136,173 137,173 137,173 137,174 137,174 137,175 137,176 137,176 137,176 137,177 137,177 137,178 137,178 137,178 138,179 138,179 138,178 138,178 138,177 138,176 138,175 138,174 138,173 138,172 138,171 138,170 138,169 139,168 139,168 139,167 139,167 139,166 139,167 139,167 139,166 139,166 139,165 139,164 139,163 139,163 140,163 140,162 140,162 140,161 140,161 140,161 140,161 140,160 140,160 140,160 140,160 140,160 140,159 141,159 141,159 141,159 141,159 141,158 141,158 141,158 141,158 141,157 141,157 141,158 141,158 141,158 142,158 142,158 142,158 142,158 142,158 142,158 142,158 142,159 142,159 142,160 142,160 142,162 143,163 143,164 143,164 143,165 143,165 143,166 143,167 143,167 143,168 143,168 143,168 143,168 143,167 144,167 144,166 144,165 144,164 144,163 144,163 144,162 144,162 144,161 144,161 144,161 144,161 144,161 145,161 145,161 145,161 145,161 145,161 145,160 145,160 145,160 145,160 145,160 145,160 145,160 145,160 146,160 146,159 146,160 146,160 146,160 146,160 146,160 146,161 146,161 146,161 146,161 146,162 146,163 147,163 147,164 147,165 147,165 147,166 147,166 147,167 147,167 147,167 147,167 147,168 147,168 147,169 148,169 148,170 148,170 148,171 148,171 148,171 148,171 148,171 148,172 148,172 148,172 148,172 148,173 149,173 149,174 149,174 149,174 149,174 149,173 149,173 149,172 149,172 149,171 149,171 149,171 149,171 150,170 150,170 150,170 150,170 150,169 150,169 150,169 150,168 150,167 150,167 150,166 150,165 150,165 151,164 151,164 151,163 151,162 151,161 151,161 151,160 151,159 151,158 151,157 151,157 151,156 151,155 152,154 152,154 152,153 152,153 152,152 152,152 152,151 152,150 152,150 152,149 152,149 152,148 152,148 153,147 153,147 153,146 153,145 153,144 153,143 153,142 153,141 153,141 153,140 153,139 153,138 153,138 154,137 154,137 154,136 154,135 154,134 154,134 154,134 154,134 154,133 154,133 154,133 154,133 154,132 155,132 155,131 155,131 155,131 155,131 155,131 155,131 155,131 155,131 155,131 155,131 155,131 155,131 156,131 156,131 156,131 156,131 156,131 156,131 156,131 156,131 156,131 156,131 156,130 156,130 156,130 157,130 157,130 157,130 157,130 157,130 157,129 157,129 157,129 157,129 157,129 157,129 157,129 157,130 158,130 158,129 158,129 158,129 158,130 158,130 158,131 158,131 158,131 158,131 158,132 158,132 158,132 159,132 159,132 159,131 159,131 159,130 159,130 159,130 159,129 159,128 159,128 159,128 159,128 159,128 160,128 160,127 160,127 160,127 160,127 160,127 160,127 160,127 160,127 160,127 160,127 160,127 160,127 161,127 161,127 161,127 161,127 161,127 161,127 161,127 161,127 161,128 161,128 161,128 161,128 161,128 162,128 162,128 162,128 162,128 162,129 162,129 162,129 162,129 162,130 162,130 162,130 162,130 162,130 163,129 163,129 163,129 163,128 163,128 163,127 163,127 163,126 163,126 163,125 163,125 163,125 163,126 164,125 164,125 164,125 164,125 164,125 164,125 164,124 164,124 164,124 164,124 164,123 164,123 164,123 165,123 165,123 165,123 165,123 165,123 165,123 165,123 165,123 165,123 165,123 165,123 165,124 165,124 166,124 166,124 166,124 166,124 166,124 166,124 166,124 166,124 166,124 166,124 166,124 166,124 166,124 167,124 167,125 167,125 167,125 167,125 167,125 167,125 167,126 167,126 167,126 167,126 167,126 167,126 168,127 168,127 168,127 168,127 168,127 168,126 168,126 168,125 168,125 168,125 168,125 168,125 168,126 169,127 169,127 169,127 169,128 169,129 169,129 169,130 169,131 169,131 169,131 169,130 169,130 169,130 170,129 170,130 170,131 170,131 170,130 170,130 170,130 170,130 170,130 170,130 170,130 170,130 170,131 171,131 171,131 171,131 171,131 171,131 171,131 171,131 171,131 171,131 171,131 171,131 171,131 171,131 172,132 172,132 172,133 172,134 172,134 172,135 172,135 172,134 172,134 172,133 172,132 172,133 172,132 173,132 173,132 173,131 173,130 173,130 173,129 173,129 173,129 173,129 173,128 173,128 173,128 173,128 174,128 174,128 174,127 174,127 174,127 174,127 174,127 174,127 174,126 174,126 174,126 174,125 174,125 175,124 175,124 175,124 175,125 175,125 175,125 175,124 175,124 175,124 175,124 175,124 175,124 175,124 176,124 176,124 176,124 176,124 176,123 176,123 176,123 176,123 176,122 176,121 176,121 176,120 176,119 177,119 177,118 177,117 177,116 177,115 177,114 177,113 177,112 177,113 177,113 177,113 177,112 177,112 178,112 178,112 178,112 178,112 178,112 178,112 178,113 178,113 178,113 178,113 178,113 178,113 178,113 179,113 179,113 179,113 179,112 179,112 179,112 179,112 179,112 179,112 179,111 179,111 179,111 179,111 180,111 180,112 180,113 180,114 180,115 180,116 180,117 180,118 180,119 180,119 180,120 180,120 180,120 181,121 181,122 181,123 181,123 181,123 181,124 181,125 181,126 181,126 181,127 181,128 181,128 181,128 182,129 182,129 182,130 182,131 182,133 182,133 182,134 182,135 182,137 182,137 182,138 182,139 182,139 183,140 183,141 183,141 183,141 183,142 183,142 183,141 183,141 183,140 183,139 183,138 183,137 183,136 184,135 184,134 184,133 184,132 184,132 184,131 184,131 184,130 184,129 184,128 184,127 184,127 184,126 185,124 185,123 185,122 185,121 185,120 185,119 185,118 185,118 185,117 185,116 185,115 185,114 185,113 186,112 186,112 186,111 186,112 186,112 186,112 186,112 186,112 186,112 186,112 186,112 186,112 186,111 187,111 187,111 187,111 187,111 187,110 187,110 187,110 187,109 187,109 187,109 187,108 187,108 187,107 188,107 188,106 188,106 188,105 188,104 188,104 188,103 188,103 188,103 188,102 188,102 188,101 189,101 189,100 189,99 189,98 189,97 189,96 189,95 189,94 189,94 189,95 189,96 189,96 189,96 190,97 190,97 190,98 190,99 190,99 190,99 190,99 190,99 190,99 190,98 190,98 190,98 190,97 191,96 191,96 191,96 191,95 191,95 191,94 191,94 191,94 191,94 191,94 191,93 191,93 191,93 192,93 192,93 192,93 192,93 192,93 192,92 192,92 192,92 192,92 192,92 192,92 192,92 192,92 193,92 193,92 193,92 193,92 193,92 193,92 193,92 193,92 193,92 193,92 193,92 193,92 193,92 194,91 194,91 194,91 194,91 194,91 194,91 194,91 194,91 194,90 194,90 194,90 194,89 194,89 195,89 195,89 195,89 195,88 195,88 195,88 195,88 195,88 195,87 195,87 195,87 195,86 195,86 196,85 196,85 196,84 196,84 196,83 196,83 196,82 196,82 196,81 196,81 196,80 196,80 196,80 197,79 197,79 197,79 197,79 197,78 197,78 197,78 197,78 197,78 197,79 197,79 197,79 197,79 198,79 198,79 198,79 198,79 198,79 198,79 198,79 198,79 198,79 198,79 198,79 198,78 198,78 199,78 199,79 199,79 199,80 199,80 199,80 199,81 199,81 199,82 199,82 199,83 199,84 199,84 200,85 200,87 200,89 200,90 200,92 200,93 200,93 200,93 200,93 200,93 200,94 200,95 200,96 201,97 201,99 201,100 201,100 201,101 201,101 201,102 201,102 201,102 201,102 201,103 201,104 201,104 202,105 202,105 202,105 202,106 202,107 202,107 202,107 202,107 202,107 202,107 202,106 202,107 202,107 203,108 203,108 203,109 203,110 203,112 203,113 203,113 203,114 203,114 203,114 203,114 203,115 203,115 204,115 204,115 204,115 204,115 204,115 204,115 204,116 204,116 204,116 204,116 204,116 204,117 204,117 205,117 205,117 205,118 205,118 205,118 205,118 205,117 205,117 205,117 205,117 205,117 205,117 205,116 206,116 206,116 206,116 206,115 206,114 206,114 206,113 206,113 206,112 206,112 206,111 206,111 206,111 207,111 207,111 207,111 207,110 207,109 207,108 207,108 207,109 207,110 207,111 207,111 207,111 207,111 208,112 208,112 208,112 208,112 208,112 208,112 208,112 208,112 208,112 208,112 208,111 208,111 208,111 209,111 209,111 209,111 209,111 209,111 209,110 209,110 209,110 209,110 209,110 209,110 209,109 209,109 210,109 210,109 210,109 210,109 210,109 210,109 210,109 210,109 210,108 210,108 210,108 210,108 210,108 211,108 211,108 211,108 211,108 211,108 211,108 211,108 211,107 211,107 211,107 211,107 211,107 211,107 212,107 212,107 212,107 212,107 212,108 212,108 212,108 212,108 212,108 212,108 212,108 212,108 212,108 213,108 213,108 213,108 213,108 213,108 213,108 213,108 213,108 213,109 213,109 213,109 213,109 213,109 214,109 214,110 214,110 214,110 214,110 214,111 214,111 214,111 214,111 214,111 214,111 214,111 214,110 215,110 215,110 215,109 215,109 215,109 215,108 215,108 215,108 215,108 215,107 215,107 215,107 215,107 216,106 216,106 216,105 216,105 216,104 216,104 216,103 216,103 216,103 216,103 216,102 216,102 216,102 217,101 217,101 217,101 217,101 217,100 217,100 217,100 217,100 217,100 217,99 217,99 217,99 217,99 218,99 218,99 218,99 218,99 218,99 218,99 218,100 218,100 218,100 218,100 218,100 218,100 218,100 219,100 219,100 219,100 219,100 219,100 219,100 219,101 219,101 219,101 219,101 219,101 219,101 219,101 220,102 220,102 220,102 220,102 220,101 220,101 220,101 220,101 220,101 220,101 220,101 220,101 220,101 221,101 221,101 221,101 221,101 221,101 221,101 221,101 221,101 221,101 221,101 221,101 221,101 221,101 222,102 222,102 222,102 222,102 222,103 222,103 222,103 222,104 222,104 222,105 222,105 222,105 222,105 223,105 223,105 223,106 223,106 223,107 223,107 223,107 223,107 223,107 223,107 223,107 223,107 223,107 224,108 224,108 224,108 224,108 224,108 224,108 224,109 224,110 224,110 224,110 224,110 224,109 224,110 225,110 225,110 225,110 225,110 225,110 225,110 225,110 225,110 225,110 225,110 225,110 225,110 225,110 226,111 226,111 226,111 226,111 226,112 226,112 226,112 226,112 226,112 226,112 226,112 226,112 226,112 227,112 227,112 227,112 227,112 227,112 227,112 227,111 227,111 227,111 227,111 227,111 227,111 227,111 228,111 228,111 228,111 228,112 228,112 228,113 228,113 228,113 228,113 228,113 228,114 228,114 228,114 229,114 229,114 229,114 229,114 229,114 229,115 229,115 229,116 229,116 229,116 229,116 229,117 229,117 230,117 230,117 230,118 230,118 230,118 230,118 230,118 230,118 230,119 230,119 230,119 230,119 230,119 231,120 231,120 231,120 231,120 231,121 231,121 231,121 231,122 231,122 231,123 231,124 231,124 231,124 232,125 232,125 232,125 232,124 232,124 232,124 232,124 232,124 232,123 232,123 232,123 232,123 232,123 233,123 233,123 233,123 233,123 233,123 233,123 233,123 233,123 233,123 233,124 233,124 233,125 233,125 234,126 234,127 234,127 234,128 234,128 234,129 234,130 234,130 234,129 234,129 234,129 234,129 235,129 235,129 235,129 235,129 235,130 235,130 235,131 235,131 235,132 235,132 235,133 235,133 235,133 236,133 236,133 236,133 236,132 236,132 236,132 236,132 236,132 236,132 236,132 236,132 236,132 236,132 237,132 237,132 237,132 237,133 237,134 237,134 237,134 237,134 237,135 237,135 237,134 237,134 237,134 238,134 238,134 238,134 238,134 238,134 238,134 238,134 238,134 238,134 238,135 238,135 238,136 238,135 239,135 239,135 239,136 239,136 239,137 239,137 239,137 239,137 239,137 239,137 239,137 239,137 239,137 240,137 240,137 240,137 240,137 240,137 240,137 240,138 240,138 240,138 240,138 240,138 240,138 240,137 241,138 241,138 241,138 241,138 241,138 241,138 241,138 241,139 241,138 241,138 241,136 241,136 241,136 242,135 242,135 242,135 242,135 242,135 242,135 242,135 242,135 242,135 242,135 242,135 242,134 242,134 243,134 243,134 243,134 243,134 243,134 243,134 243,134 243,134 243,134 243,134 243,134 243,133 243,133 244,133 244,134 244,134 244,134 244,133 244,133 244,133 244,133 244,132 244,132 244,132 244,132 244,132 245,132 245,132 245,132 245,132 245,132 245,131 245,131 245,131 245,131 245,130 245,130 245,130 245,130 246,130 246,129 246,128 246,128 246,128 246,127 246,127 246,127 246,126 246,126 246,126 246,125 246,125 247,125 247,125 247,125 247,125 247,124 247,123 247,122 247,122 247,122 247,121 247,121 247,121 247,120 248,120 248,120 248,119 248,119 248,119 248,118 248,118 248,118 248,117 248,117 248,116 248,117 248,117 249,117 249,117 249,117 249,117 249,118 249,117 249,117 249,117 249,116 249,116 249,117 249,117 249,117 250,117 250,117 250,117 250,118 250,117 250,117 250,117 250,117 250,117 250,117 250,117 250,117 250,117 251,116 251,116 251,116 251,115 251,115 251,115 251,114 251,114 251,114 251,114 251,113 251,113 251,113 252,113 252,112 252,112 252,112 252,112 252,112 252,111 252,111 252,111 252,111 252,111 252,111 252,110 253,110 253,110 253,110 253,110 253,109 253,109 253,109 253,108 253,108 253,108 253,108 253,108 253,108 254,108 254,108 254,109 254,109 254,109 254,109 254,110 254,109 254,109 254,110 254,110 254,110 254,110 255,110 255,110 255,110 255,110 255,110 255,110 255,111 255,111 255,111 255,111 255,112 255,112 255,112 256,112 256,112 256,113 256,113 256,113 256,114 256,115 256,115 256,116 256,117 256,117 256,118 256,119 257,119 257,119 257,119 257,119 257,118 257,118 257,118 257,118 257,118 257,117 257,117 257,117 257,116 258,116 258,115 258,115 258,116 258,116 258,116 258,117 258,117 258,117 258,117 258,117 258,117 258,118 259,118 259,119 259,119 259,120 259,120 259,121 259,121 259,122 259,122 259,122 259,123 259,123 259,124 260,124 260,125 260,125 260,126 260,126 260,127 260,127 260,128 260,128 260,129 260,129 260,130 260,131 261,132 261,132 261,131 261,131 261,130 261,130 261,130 261,130 261,130 261,130 261,130 261,130 261,129 262,129 262,129 262,130 262,130 262,130 262,130 262,130 262,130 262,130 262,130 262,131 262,131 262,132 263,132 263,132 263,133 263,133 263,134 263,134 263,134 263,135 263,135 263,136 263,136 263,137 263,138 264,139 264,139 264,139 264,139 264,140 264,140 264,140 264,140 264,141 264,141 264,141 264,142 264,142 265,143 265,143 265,143 265,144 265,144 265,145 265,145 265,145 265,146 265,145 265,146 265,146 265,146 266,146 266,146 266,146 266,146 266,146 266,147 266,147 266,147 266,147 266,147 266,146 266,146 266,146 267,145 267,144 267,144 267,144 267,144 267,145 267,145 267,145 267,145 267,145 267,145 267,145 267,145 268,145 268,145 268,146 268,146 268,146 268,146 268,146 268,146 268,146 268,146 268,146 268,147 268,147 269,147 269,147 269,147 269,147 269,148 269,148 269,150 269,151 269,152 269,152 269,152 269,152 269,152 270,153 270,153 270,153 270,153 270,153 270,154 270,154 270,154 270,154 270,154 270,154 270,154 270,154 271,155 271,155 271,155 271,156 271,156 271,156 271,157 271,157 271,157 271,157 271,157 271,157 271,157 272,157 272,157 272,156 272,156 272,156 272,156 272,156 272,156 272,157 272,157 272,157 272,157 272,157 273,157 273,157 273,157 273,157 273,158 273,158 273,158 273,158 273,159 273,159 273,159 273,159 273,160 274,160 274,160 274,161 274,161 274,162 274,162 274,163 274,163 274,163 274,164 274,165 274,165 274,166 275,166 275,167 275,167 275,167 275,167 275,167 275,167 275,167 275,166 275,166 275,165 275,165 275,165 276,165 276,165 276,165 276,164 276,164 276,164 276,164 276,163 276,163 276,162 276,162 276,161 276,159 277,158 277,157 277,155 277,153 277,152 277,151 277,151 277,150 277,150 277,150 277,150 277,151 277,151 278,151 278,151 278,151 278,151 278,151 278,151 278,151 278,150 278,150 278,150 278,150 278,150 278,149 279,149 279,149 279,148 279,148 279,148 279,148 279,149 279,149 279,149 279,150 279,150 279,150 279,150 280,150 280,150 280,150 280,150 280,150 280,150 280,150 280,150 280,150 280,150 280,150 280,150 281,150 281,150 281,150 281,151 281,152 281,152 281,152 281,153 281,153 281,153 281,153 281,153 281,153 282,153 282,153 282,153 282,153 282,153 282,153 282,153 282,153 282,153 282,153 282,153 282,153 282,153 283,154 283,154 283,154 283,154 283,154 283,154 283,154 283,154 283,154 283,154 283,155 283,155 283,155 284,155 284,154 284,155 284,156 284,157 284,157 284,158 284,158 284,158 284,158 284,158 284,158 284,158 285,157 285,157 285,157 285,157 285,157 285,156 285,156 285,156 285,156 285,156 285,156 285,156 285,156 286,156 286,156 286,156 286,156 286,156 286,156 286,156 286,156 286,156 286,156 286,156 286,156 286,156 287,156 287,156 287,156 287,157 287,157 287,157 287,157 287,158 287,158 287,158 287,158 287,158 287,158 288,158 288,158 288,157 288,157 288,157 288,157 288,157 288,156 288,156 288,156 288,156 288,156 288,155 289,155 289,155 289,154 289,155 289,155 289,156 289,156 289,156 289,157 289,157 289,157 289,157 289,158 290,158 290,158 290,159 290,159 290,159 290,160 290,160 290,160 290,161 290,161 290,162 290,163 290,164 291,164 291,164 291,164 291,163 291,163 291,162 291,162 291,161 291,161 291,160 291,159 291,158 291,158 292,157 292,157 292,157 292,156 292,155 292,155 292,154 292,153 292,153 292,152 292,151 292,151 292,151 293,151 293,150 293,150 293,150 293,150 293,150 293,149 293,149 293,149 293,149 293,149 293,149 293,148 294,148 294,148 294,148 294,148 294,148 294,147 294,147 294,147 294,147 294,147 294,147 294,147 294,147 295,147 295,147 295,147 295,147 295,147 295,146 295,146 295,146 295,146 295,146 295,146 295,146 295,147 296,147 296,147 296,147 296,148 296,148 296,148 296,148 296,148 296,148 296,148 296,149 296,149 296,149 297,149 297,149 297,149 297,149 297,149 297,149 297,149 297,149 297,149 297,149 297,149 297,149 297,149 298,149 298,149 298,148 298,148 298,148 298,149 298,149 298,150 298,150 298,150 298,151 298,151 298,152 299,153 299,154 299,154 299,154 299,155 299,155 299,155 299,156 299,156 299,156 299,156 299,157 299,157 300,157 300,157 300,157 300,157 300,157 300,157 300,157 300,158 300,158 300,158 300,158 300,158 300,157 301,157 301,157 301,157 301,157 301,157 301,157 301,157 301,157 301,157 301,157 301,157 301,157 301,157 302,157 302,157 302,157 302,157 302,157 302,157 302,157 302,158 302,158 302,157 302,157 302,157 302,157 303,157 303,157 303,157 303,157 303,157 303,157 303,157 303,156 303,156 303,156 303,156 303,156 303,155 304,155 304,154 304,154 304,154 304,154 304,154 304,154 304,155 304,155 304,156 304,157 304,157 304,158 305,158 305,158 305,159 305,159 305,159 305,159 305,160 305,160 305,161 305,161 305,162 305,162 305,162 306,162 306,163 306,163 306,164 306,164 306,165 306,165 306,165 306,166 306,166 306,167 306,167 306,167 307,168 307,168 307,168 307,168 307,168 307,168 307,169 307,169 307,169 307,169 307,169 307,169 307,169 308,169 308,169 308,168 308,169 308,169 308,169 308,169 308,169 308,169 308,170 308,170 308,170 308,170 309,170 309,171 309,172 309,172 309,173 309,174 309,175 309,175 309,176 309,176 309,176 309,177 309,177 310,177 310,177 310,177 310,177 310,177 310,177 310,177 310,177 310,177 310,177 310,177 310,177 310,178 311,178 311,178 311,178 311,178 311,179 311,179 311,179 311,179 311,180 311,180 311,180 311,180 311,180 312,181 312,182 312,182 312,183 312,183 312,184 312,184 312,185 312,185 312,186 312,187 312,187 312,188 313,188 313,188 313,188 313,188 313,188 313,189 313,189 313,189 313,189 313,189 313,189 313,189 313,189 314,189 314,190 314,190 314,190 314,191 314,191 314,191 314,192 314,193 314,193 314,192 314,192 314,192 315,192 315,192 315,192 315,192 315,193 315,193 315,193 315,193 315,193 315,194 315,194 315,195 315,195 316,195 316,195 316,196 316,196 316,196 316,197 316,197 316,197 316,197 316,198 316,198 316,198 316,198 317,198 317,198 317,198 317,198 317,198 317,198 317,198 317,198 317,198 317,198 317,198 317,198 317,198 318,198 318,198 318,198 318,198 318,198 318,198 318,198 318,198 318,199 318,199 318,198 318,198 318,198 319,198 319,197 319,197 319,196 319,196 319,196 319,196 319,195 319,196 319,195 319,195 319,195 319,195 320,195 320,195 320,195 320,195 320,195 320,195 320,195 320,195 320,195 320,195 320,195 320,195 320,196 321,196 321,196 321,197 321,197 321,198 321,198 321,199 321,199 321,199 321,199 321,200 321,200 321,201 322,201 322,201 322,202 322,202 322,203 322,203 322,203 322,203 322,204 322,204 322,204 322,204 322,205 323,205 323,205 323,205 323,206 323,206 323,206 323,206 323,206 323,206 323,206 323,206 323,207 323,207 324,207 324,207 324,207 324,207 324,207 324,207 324,207 324,208 324,208 324,208 324,208 324,208 324,209 325,209 325,209 325,209 325,209 325,209 325,209 325,209 325,209 325,209 325,210 325,210 325,210 325,210 326,210 326,210 326,210 326,210 326,210 326,210 326,210 326,210 326,210 326,210 326,210 326,210 326,210 327,210 327,210 327,210 327,210 327,210 327,210 327,210 327,210 327,210 327,210 327,210 327,210 328,210 328,210 328,210 328,210 328,210 328,210 328,210 328,210 328,209 328,209 328,209 328,209 328,209 329,209 329,209 329,209 329,209 329,209 329,209 329,209 329,209 329,210 329,210 329,210 329,210 329,211 330,211 330,211 330,211 330,211 330,211 330,211 330,212 330,212 330,212 330,212 330,212 330,212 330,212 331,213 331,213 331,213 331,213 331,213 331,214 331,214 331,214 331,215 331,214 331,214 331,213 331,213 332,213 332,213 332,213 332,213 332,213 332,213 332,213 332,213 332,213 332,213 332,213 332,213 332,213 333,212 333,212 333,212 333,212 333,212 333,212 333,212 333,212 333,211 333,211 333,211 333,211 333,211 334,210 334,210 334,210 334,210 334,210 334,209 334,209 334,209 334,209 334,209 334,209 334,209 334,209 335,208 335,208 335,208 335,208 335,208 335,207 335,207 335,207 335,207 335,206 335,206 335,206 335,206 336,205 336,205 336,205 336,205 336,205 336,205 336,205 336,205 336,205 336,205 336,205 336,205 336,204 337,204 337,204 337,204 337,204 337,205 337,205 337,204 337,204 337,204 337,204 337,204 337,204 337,204 338,203 338,203 338,203 338,203 338,203 338,203 338,203 338,204 338,204 338,204 338,204 338,204 338,204 339,204 339,204 339,204 339,204 339,204 339,204 339,205 339,205 339,205 339,205 339,206 339,206 339,206 340,206 340,207 340,207 340,207 340,207 340,207 340,207 340,207 340,207 340,207 340,207 340,207 340,207 341,207 341,207 341,207 341,207 341,207 341,207 341,206 341,206 341,206 341,206 341,206 341,206 341,205 342,205 342,205 342,205 342,205 342,205 342,205 342,205 342,205 342,205 342,205 342,205 342,205 342,205 343,205 343,205 343,205 343,205 343,205 343,205 343,204 343,204 343,204 343,204 343,204 343,204 343,203 344,203 344,203 344,203 344,203 344,203 344,202 344,202 344,202 344,202 344,202 344,202 344,202 344,202 345,202 345,202 345,201 345,201 345,201 345,201 345,201 345,201 345,201 345,201 345,201 345,201 345,201 346,201 346,201 346,201 346,201 346,201 346,201 346,201 346,201 346,201 346,202 346,202 346,202 346,202 347,202 347,202 347,202 347,202 347,202 347,202 347,202 347,202 347,202 347,202 347,202 347,202 347,202 348,202 348,202 348,202 348,202 348,202 348,202 348,203 348,202 348,202 348,202 348,202 348,201 348,201 349,200 349,200 349,200 349,200 349,200 349,200 349,200 349,200 349,200 349,200 349,200 349,200 349,200 350,200 350,200 350,200 350,200 350,200 350,200 350,200 350,200 350,200 350,201 350,201 350,201 350,202 351,202 351,202 351,202 351,202 351,202 351,202 351,202 351,202 351,202 351,202 351,202 351,202 351,202 352,202 352,202 352,202 352,202 352,202 352,202 352,203 352,203 352,203 352,203 352,203 352,202 352,202 353,202 353,202 353,202 353,202 353,202 353,202 353,202 353,202 353,202 353,202 353,202 353,202 353,202 354,202 354,201 354,201 354,201 354,201 354,200 354,200 354,200 354,199 354,199 354,199 354,199 354,199 355,198 355,198 355,198 355,197 355,197 355,196 355,196 355,196 355,195 355,195 355,194 355,194 355,194 356,194 356,193 356,193 356,193 356,193 356,193 356,193 356,193 356,193 356,193 356,193 356,192 356,192 357,193 357,193 357,193 357,193 357,193 357,193 357,193 357,193 357,193 357,193 357,192 357,192 357,192 358,192 358,193 358,193 358,193 358,194 358,194 358,194 358,195 358,195 358,196 358,196 358,196 358,196 359,196 359,196 359,196 359,196 359,196 359,197 359,197 359,197 359,197 359,197 359,197 359,197 359,197 360,197 360,197 360,198 360,198 360,198 360,198 360,198 360,198 360,197 360,197 360,197 360,197 360,197 361,197 361,197 361,197 361,197 361,198 361,198 361,198 361,198 361,198 361,198 361,198 361,198 361,198 362,198 362,198 362,198 362,198 362,198 362,198 362,198 362,198 362,198 362,198 362,198 362,198 362,198 363,198 363,198 363,198 363,198 363,198 363,198 363,198 363,198 363,198 363,198 363,198 363,198 363,198 364,197 364,197 364,197 364,196 364,196 364,195 364,195 364,195 364,195 364,195 364,194 364,194 364,194 365,194 365,194 365,194 365,193 365,193 365,192 365,192 365,192 365,192 365,192 365,192 365,192 365,192 366,192 366,192 366,191 366,191 366,191 366,190 366,190 366,190 366,190 366,190 366,189 366,189 366,189 367,189 367,188 367,188 367,188 367,187 367,187 367,187 367,187 367,186 367,186 367,186 367,185 367,185 368,185 368,185 368,185 368,185 368,185 368,185 368,185 368,185 368,185 368,185 368,185 368,185 368,184 369,184 369,184 369,184 369,184 369,184 369,184 369,184 369,184 369,184 369,184 369,184 369,184 369,184 370,184 370,184 370,184 370,184 370,185 370,185 370,185 370,185 370,186 370,186 370,186 370,186 370,186 371,186 371,186 371,186 371,186 371,186 371,186 371,186 371,186 371,186 371,186 371,186 371,186 371,186 372,186 372,186 372,186 372,186 372,186 372,186 372,186 372,185 372,185 372,185 372,185 372,185 372,185 373,184 373,184 373,184 373,184 373,183 373,183 373,183 373,182 373,182 373,182 373,182 373,181 374,181 374,181 374,181 374,181 374,181 374,181 374,181 374,181 374,181 374,181 374,182 374,182 374,182 375,182 375,182 375,182 375,182 375,183 375,183 375,183 375,183 375,183 375,184 375,184 375,184 375,184 376,185 376,185 376,185 376,186 376,186 376,186 376,187 376,187 376,188 376,188 376,189 376,189 376,190 377,190 377,190 377,191 377,191 377,190 377,190 377,190 377,190 377,190 377,190 377,190 377,190 377,190 378,189 378,189 378,189 378,189 378,189 378,189 378,188 378,188 378,188 378,188 378,187 378,187 378,187 379,186 379,186 379,186 379,186 379,185 379,185 379,184 379,184 379,183 379,183 379,183 379,182 379,182 380,182 380,182 380,181 380,181 380,181 380,180 380,180 380,180 380,179 380,179 380,179 380,179 380,179 381,179 381,179 381,178 381,178 381,178 381,178 381,178 381,178 381,178 381,178 381,178 381,178 381,178 382,178 382,178 382,178 382,178 382,177 382,177 382,177 382,177 382,177 382,176 382,176 382,176 382,176 383,176 383,176 383,176 383,176 383,176 383,176 383,176 383,176 383,176 383,176 383,176 383,176 383,176 384,176 384,177 384,176 384,176 384,176 384,176 384,176 384,176 384,176 384,176 384,176 384,175 384,175 385,175 385,175 385,175 385,175 385,175 385,175 385,175 385,175 385,175 385,175 385,175 385,175 385,175 386,175 386,175 386,175 386,175 386,175 386,176 386,176 386,176 386,176 386,176 386,176 386,176 386,176 387,177 387,177 387,177 387,177 387,178 387,178 387,178 387,178 387,178 387,178 387,178 387,178 387,178 388,178 388,178 388,178 388,177 388,177 388,177 388,177 388,176 388,176 388,176 388,175 388,175 388,174 389,174 389,173 389,173 389,172 389,172 389,171 389,170 389,170 389,170 389,170 389,170 389,169 389,169 390,169 390,169 390,169 390,168 390,168 390,167 390,167 390,166 390,166 390,165 390,165 390,165 390,164 391,164 391,164 391,164 391,164 391,164 391,164 391,164 391,164 391,164 391,164 391,165 391,165 391,165 392,165 392,165 392,165 392,165 392,165 392,165 392,165 392,165 392,165 392,165 392,165 392,165 392,165 393,165 393,165 393,165 393,166 393,166 393,166 393,166 393,167 393,167 393,167 393,168 393,168 393,168 394,168 394,169 394,169 394,169 394,170 394,170 394,170 394,170 394,171 394,171 394,171 394,171 394,171 395,170 395,170 395,170 395,170 395,170 395,170 395,170 395,169 395,169 395,169 395,169 395,169 395,168 396,168 396,168 396,168 396,167 396,167 396,167 396,167 396,167 396,167 396,167 396,167 396,167 396,167 397,167 397,167 397,167 397,167 397,167 397,167 397,167 397,167 397,168 397,168 397,168 397,169 397,169 398,169 398,169 398,169 398,169 398,170 398,170 398,170 398,171 398,171 398,171 398,172 398,172 398,172 399,173 399,173 399,173 399,174 399,174 399,174 399,176 399,176 399,176 399,177 399,178 399,178 399,179 400,179 400,180 400,180 400,180 400,180 400,180 400,180 400,180 400,180 400,179 400,179 400,179 400,180 401,180 401,180 401,180 401,180 401,181 401,181 401,181 401,181 401,181 401,182 401,182 401,182 401,182 402,183 402,183 402,183 402,183 402,183 402,183 402,184 402,184 402,184 402,184 402,185 402,185 402,185 403,186 403,186 403,185 403,185 403,185 403,184 403,184 403,184 403,184 403,183 403,183 403,183 403,183 404,183 404,183 404,183 404,182 404,182 404,182 404,182 404,181 404,181 404,181 404,181 404,180 404,180 405,180 405,179 405,179 405,179 405,179 405,178 405,178 405,178 405,178 405,178 405,178 405,178 405,178 406,178 406,178 406,178 406,178 406,177 406,177 406,177 406,177 406,177 406,177 406,177 406,177 406,177 407,177 407,177 407,177 407,177 407,177 407,177 407,177 407,177 407,177 407,177 407,177 407,177 407,177 408,177 408,177 408,177 408,176 408,177 408,177 408,177 408,177 408,177 408,177 408,176 408,176 408,176 409,176 409,176 409,176 409,176 409,176 409,176 409,176 409,176 409,176 409,176 409,176 409,176 409,176 410,176 410,176 410,176 410,176 410,176 410,176 410,176 410,176 410,176 410,176 410,176 410,175 410,175 411,175 411,175 411,175 411,175 411,175 411,175 411,175 411,174 411,174 411,174 411,174 411,174 411,174 412,174 412,174 412,174 412,174 412,174 412,174 412,174 412,174 412,174 412,174 412,174 412,174 412,174 413,174 413,174 413,174 413,174 413,174 413,174 413,174 413,174 413,174 413,174 413,174 413,174 413,174 414,174 414,174 414,174 414,174 414,174 414,175 414,175 414,175 414,175 414,175 414,175 414,175 414,176 415,176 415,176 415,176 415,176 415,176 415,176 415,176 415,176 415,176 415,175 415,175 415,175 415,175 416,175 416,175 416,175 416,175 416,175 416,174 416,174 416,174 416,174 416,173 416,173 416,173 416,172 417,172 417,172 417,172 417,171 417,171 417,170 417,170 417,170 417,169 417,169 417,169 417,169 417,168 418,168 418,168 418,168 418,167 418,167 418,167 418,167 418,166 418,166 418,166 418,166 418,166 418,166 419,166 419,166 419,165 419,165 419,164 419,164 419,163 419,162 419,161 419,161 419,160 419,159 420,159 420,158 420,158 420,157 420,156 420,156 420,155 420,155 420,155 420,154 420,154 420,154 420,153 421,153 421,153 421,152 421,152 421,152 421,152 421,152 421,152 421,151 421,151 421,151 421,151 421,151 422,152 422,152 422,152 422,152 422,153 422,153 422,154 422,153 422,153 422,153 422,153 422,153 422,153 423,153 423,153 423,153 423,153 423,153 423,153 423,153 423,153 423,153 423,153 423,153 423,153 423,153 424,153 424,153 424,152 424,152 424,152 424,152 424,152 424,151 424,151 424,151 424,151 424,150 424,150 425,150 425,150 425,149 425,149 425,149 425,149 425,149 425,148 425,148 425,149 425,149 425,149 425,149 426,149 426,149 426,149 426,149 426,149 426,149 426,150 426,150 426,150 426,150 426,150 426,150 426,150 427,150 427,150 427,150 427,150 427,150 427,150 427,150 427,151 427,151 427,151 427,151 427,151 427,150 428,150 428,150 428,150 428,149 428,149 428,149 428,149 428,148 428,148 428,148 428,148 428,148 428,148 429,148 429,149 429,149 429,149 429,149 429,149 429,149 429,149 429,149 429,149 429,149 429,149 429,149 430,149 430,149 430,149 430,149 430,149 430,149 430,149 430,149 430,149 430,149 430,149 430,149 430,149 431,149 431,149 431,149 431,149 431,148 431,148 431,148 431,148 431,148 431,148 431,148 431,148 431,147 432,147 432,147 432,146 432,146 432,146 432,146 432,145 432,145 432,145 432,145 432,145 432,145 432,145 433,145 433,145 433,145 433,145 433,145 433,145 433,145 433,145 433,145 433,144 433,144 433,144 433,144 434,143 434,143 434,143 434,142 434,142 434,142 434,141 434,141 434,141 434,141 434,141 434,140 434,140 435,140 435,139 435,139 435,139 435,138 435,138 435,138 435,137 435,137 435,137 435,137 435,136 435,136 436,136 436,136 436,136 436,135 436,135 436,135 436,135 436,135 436,135 436,135 436,135 436,135 436,136 437,136 437,136 437,137 437,137 437,137 437,137 437,137 437,138 437,138 437,138 437,138 437,138 437,138 438,138 438,138 438,138 438,139 438,138 438,138 438,138 438,138 438,138 438,138 438,138 438,138 438,138 439,137 439,137 439,137 439,137 439,137 439,136 439,136 439,135 439,134 439,133 439,133 439,133 439,132 440,132 440,132 440,132 440,132 440,131 440,131 440,130 440,130 440,130 440,129 440,129 440,129 440,129 441,129 441,129 441,129 441,128 441,128 441,128 441,128 441,128 441,128 441,128 441,128 441,128 441,128 442,128 442,128 442,128 442,128 442,128 442,128 442,128 442,129 442,129 442,129 442,129 442,129 442,130 443,130 443,131 443,131 443,132 443,132 443,133 443,133 443,134 443,134 443,135 443,135 443,136 443,136 444,137 444,137 444,137 444,138 444,138 444,139 444,139 444,139 444,140 444,140 444,140 444,141 444,141 445,142 445,142 445,142 445,142 445,143 445,143 445,143 445,143 445,143 445,144 445,144 445,144 445,144 446,145 446,145 446,146 446,146 446,146 446,146 446,146 446,147 446,147 446,147 446,147 446,147 446,147 447,147 447,147 447,147 447,147 447,147 447,147 447,147 447,147 447,147 447,147 447,147 447,147 447,147 448,147 448,147 448,148 448,148 448,148 448,148 448,148 448,148 448,149 448,149 448,149 448,149 448,149 449,149 449,150 449,150 449,150 449,150 449,150 449,150 449,150 449,150 449,151 449,151 449,151 449,151 450,151 450,151 450,151 450,152 450,152 450,152 450,152 450,152 450,152 450,152 450,152 450,152 450,152 451,152 451,153 451,153 451,153 451,153 451,153 451,153 451,153 451,153 451,154 451,154 451,154 451,154 452,155 452,155 452,155 452,155 452,155 452,155 452,156 452,156 452,156 452,156 452,156 452,156 452,156 453,157 453,157 453,157 453,157 453,157 453,157 453,157 453,157 453,157 453,157 453,158 453,158 453,158 454,158 454,158 454,158 454,158 454,158 454,158 454,158 454,158 454,158 454,158 454,158 454,158 454,158 455,158 455,158 455,158 455,158 455,159 455,159 455,159 455,159 455,159 455,159 455,159 455,159 455,159 456,159 456,159 456,159 456,159 456,159 456,159 456,159 456,159 456,159 456,159 456,160 456,160 456,160 457,160 457,160 457,159 457,159 457,159 457,159 457,160 457,160 457,160 457,160 457,160 457,160 457,161 458,161 458,161 458,161 458,161 458,161 458,161 458,161 458,161 458,161 458,161 458,161 458,161 458,162 459,162 459,162 459,162 459,162 459,162 459,162 459,162 459,162 459,162 459,162 459,162 459,162 459,162 460,162 460,162 460,162 460,162 460,162 460,162 460,162 460,162 460,162 460,162 460,162 460,162 460,162 461,162 461,162 461,162 461,162 461,162 461,162 461,162 461,162 461,162 461,162 461,162 461,162 461,162 462,162 462,162 462,162 462,162 462,162 462,162 462,162 462,162 462,162 462,163 462,163 462,163 462,163 463,163 463,163 463,163 463,163 463,163 463,163 463,163 463,162 463,162 463,162 463,162 463,162 463,162 464,162 464,162 464,162 464,162 464,162 464,162 464,162 464,162 464,163 464,163 464,163 464,163 464,163 465,163 465,163 465,163 465,163 465,163 465,163 465,163 465,163 465,163 465,162 465,162 465,162 466,162 466,162 466,162 466,162 466,162 466,162 466,162 466,162 466,161 466,161 466,161 466,161 466,161 467,161 467,160 467,160 467,160 467,160 467,160 467,159 467,159 467,159 467,159 467,159 467,158 467,158 468,158 468,158 468,157 468,157 468,157 468,157 468,156 468,156 468,156 468,156 468,156 468,156 468,155 469,155 469,155 469,155 469,155 469,154 469,154 469,154 469,154 469,154 469,153 469,153 469,153 469,153 470,152 470,152 470,152 470,152 470,152 470,151 470,151 470,151 470,151 470,151 470,151 470,151 470,151 471,151 471,151 471,151 471,151 471,152 471,152 471,152 471,152 471,152 471,153 471,153 471,153 471,153 472,154 472,154 472,154 472,154 472,154 472,154 472,155 472,155 472,155 472,155 472,155 472,155 472,156 473,156 473,156 473,156 473,156 473,156 473,157 473,157 473,157 473,157 473,158 473,158 473,158 473,158 474,158 474,158 474,158 474,159 474,159 474,159 474,159 474,159 474,159 474,159 474,159 474,159 474,159 475,159 475,158 475,158 475,158 475,158 475,158 475,157 475,157 475,157 475,157 475,157 475,156 475,156 476,156 476,156 476,156 476,155 476,155 476,155 476,155 476,154 476,154 476,154 476,154 476,154 476,153 477,153 477,153 477,153 477,153 477,152 477,152 477,152 477,152 477,152 477,152 477,152 477,152 477,152 478,153 478,153 478,154 478,154 478,154 478,154 478,155 478,155 478,156 478,156 478,157 478,158 478,159 479,159 479,159 479,160 479,160 479,161 479,161 479,162 479,162 479,162 479,162 479,163 479,163 479,163 480,164 480,164 480,164 480,164 480,165 480,165 480,165 480,165 480,165 480,165 480,165 480,165 480,165 481,165 481,165 481,165 481,165 481,165 481,165 481,165 481,165 481,165 481,165 481,165 481,165 481,165 482,165 482,165 482,165 482,164 482,164 482,164 482,164 482,164 482,164 482,164 482,164 482,164 482,164 483,164 483,164 483,164 483,163 483,163 483,163 483,163 483,163 483,163 483,163 483,163 483,162 483,162 484,162 484,162 484,162 484,162 484,162 484,162 484,162 484,162 484,161 484,161 484,161 484,161 484,161 485,161 485,161 485,161 485,161 485,161 485,160 485,160 485,160 485,160 485,160 485,160 485,160 485,159 486,159 486,159 486,159 486,159 486,159 486,159 486,158 486,158 486,158 486,158 486,158 486,157 486,157 487,157 487,157 487,157 487,157 487,156 487,156 487,156 487,156 487,156 487,155 487,155 487,155 487,155 488,155 488,155 488,154 488,154 488,154 488,154 488,154 488,154 488,153 488,153 488,153 488,153 488,153 489,152 489,152 489,152 489,152 489,151 489,151 489,151 489,151 489,151 489,151 489,151 489,151 489,151 490,151 490,150 490,150 490,150 490,149 490,149 490,149 490,149 490,148 490,148 490,148 490,147 490,147 491,147 491,146 491,146 491,146 491,146 491,145 491,145 491,145 491,145 491,145 491,145 491,145 491,145 492,145 492,144 492,144 492,145 492,145 492,145 492,145 492,145 492,146 492,146 492,146 492,145 492,145 493,145 493,145 493,145 493,144 493,144 493,143 493,143 493,142 493,142 493,141 493,141 493,141 493,140 494,140 494,139 494,139 494,139 494,139 494,138 494,138 494,138 494,137 494,137 494,137 494,136 494,136 495,135 495,135 495,135 495,134 495,134 495,134 495,133 495,133 495,132 495,132 495,131 495,131 495,130 496,130 496,129 496,129 496,129 496,128 496,128 496,128 496,128 496,127 496,127 496,127 496,127 496,126 497,126 497,126 497,126 497,126 497,125 497,126 497,126 497,126 497,126 497,126 497,126 497,126 497,127 498,127 498,127 498,127 498,127 498,127 498,127 498,127 498,127 498,127 498,128 498,128 498,128 498,128 499,129 499,129 499,129 499,129 499,129 499,130 499,130 499,130 499,131 499,131 499,131 499,131 499,132 500,132 500,132 500,133 500,133 500,133 500,134 500,134 500,134 500,135 500,135 500,135 500,136 500,136 501,137 501,137 501,137 501,138 501,138 501,138 501,138 501,139 501,139 501,139 501,139 501,140 501,140 502,140 502,141 502,141 502,141 502,141 502,142 502,142 502,142 502,142 502,142 502,142 502,143 502,143 503,143 503,143 503,143 503,144 503,144 503,144 503,144 503,144 503,144 503,145 503,145 503,145 503,145 504,145 504,145 504,145 504,145 504,146 504,146 504,146 504,146 504,146 504,146 504,146 504,146 504,147 505,147 505,147 505,147 505,147 505,147 505,147 505,147 505,147 505,147 505,147 505,147 505,147 505,148 506,148 506,148 506,148 506,148 506,148 506,148 506,148 506,148 506,148 506,148 506,149 506,149 506,149 507,149 507,149 507,149 507,149 507,149 507,149 507,148 507,148 507,148 507,148 507,149 507,149 507,149 508,149 508,149 508,149 508,149 508,150 508,149 508,149 508,150 508,150 508,151 508,151 508,151 508,151 509,152 509,152 509,152 509,152 509,153 509,153 509,153 509,154 509,154 509,154 509,154 509,154 509,154 510,154 510,155 510,155 510,155 510,155 510,155 510,155 510,155 510,155 510,155 510,155 510,156 510,156 511,155 511,156 511,156 511,156 511,156 511,156 511,156 511,156 511,157 511,157 511,157 511,157 512,158 512,158 512,159 512,159 512,160 512,160 512,161 512,161 512,161 512,162 512,162 512,162 512,162 513,162 513,163 513,163 513,163 513,163 513,163 513,163 513,163 513,163 513,163 513,163 513,163 513,163 514,163 514,163 514,163 514,163 514,163 514,163 514,163 514,163 514,162 514,162 514,162 514,162 514,162 515,162 515,161 515,161 515,161 515,161 515,161 515,161 515,160 515,160 515,160 515,159 515,159 515,159 516,158 516,158 516,158 516,157 516,157 516,157 516,157 516,156 516,156 516,156 516,156 516,155 516,155 517,155 517,155 517,155 517,155 517,154 517,154 517,154 517,154 517,153 517,153 517,153 517,153 517,153 518,153 518,152 518,152 518,152 518,152 518,152 518,151 518,151 518,151 518,151 518,150 518,150 518,150 519,149 519,149 519,149 519,149 519,148 519,148 519,148 519,148 519,148 519,148 519,147 519,147 519,147 520,146 520,146 520,146 520,145 520,145 520,145 520,144 520,144 520,144 520,144 520,143 520,143 520,143 521,143 521,143 521,143 521,143 521,142 521,142 521,142 521,142 521,142 521,142 521,142 521,142 521,142 522,142 522,142 522,142 522,142 522,141 522,141 522,141 522,141 522,141 522,141 522,141 522,142 522,142 523,142 523,142 523,142 523,142 523,142 523,143 523,143 523,143 523,143 523,143 523,144 523,144 523,144 524,144 524,144 524,144 524,145 524,145 524,145 524,145 524,145 524,146 524,146 524,146 524,146 524,146 525,147 525,147 525,147 525,147 525,147 525,147 525,147 525,148 525,148 525,148 525,148 525,148 525,148 526,149 526,149 526,149 526,149 526,150 526,150 526,150 526,151 526,151 526,151 526,151 526,152 526,152 527,152 527,153 527,153 527,153 527,154 527,154 527,154 527,155 527,155 527,155 527,156 527,156 527,156 528,156 528,157 528,157 528,157 528,158 528,158 528,159 528,159 528,160 528,160 528,161 528,161 528,162 529,163 529,164 529,165 529,166 529,167 529,168 529,168 529,169 529,170 529,171 529,172 529,174 529,175 530,177 530,178 530,179 530,179 530,180 530,180 530,180 530,180 530,181 530,181 530,182 530,184 530,185 531,185 531,186 531,186 531,187 531,187 531,186 531,186 531,186 531,186 531,185 531,184 531,183 531,182 532,181 532,180 532,179 532,179 532,179 532,179 532,179 532,179 532,179 532,179 532,179 532,179 532,179 533,178 533,178 533,178 533,177 533,177 533,177 533,177 533,176 533,176 533,176 533,176 533,177 533,177 534,178 534,178 534,178 534,179 534,179 534,180 534,181 534,181 534,182 534,182 534,183 534,183 534,184 535,184 535,185 535,185 535,186 535,186 535,187 535,187 535,188 535,189 535,189 535,190 535,191 535,191 536,192 536,193 536,193 536,194 536,194 536,195 536,195 536,195 536,195 536,195 536,195 536,195 536,195 537,195 537,195 537,195 537,195 537,194 537,194 537,194 537,194 537,194 537,194 537,195 537,195 537,195 538,195 538,195 538,194 538,194 538,194 538,194 538,194 538,194 538,194 538,194 538,193 538,193 538,193 539,193 539,193 539,193 539,192 539,192 539,192 539,192 539,192 539,192 539,192 539,192 539,192 539,192 540,191 540,190 540,190 540,189 540,188 540,187 540,186 540,185 540,185 540,184 540,183 540,183 540,182 541,181 541,181 541,180 541,179 541,178 541,178 541,177 541,176 541,175 541,175 541,174 541,174 541,173 542,172 542,172 542,172 542,172 542,172 542,171 542,171 542,171 542,171 542,171 542,172 542,172 542,172 543,172 543,172 543,172 543,172 543,172 543,172 543,172 543,172 543,172 543,172 543,173 543,173 543,173 544,173 544,173 544,173 544,173 544,173 544,173 544,173 544,173 544,173 544,173 544,173 544,173 544,173 545,173 545,173 545,173 545,174 545,174 545,174 545,174 545,173 545,173 545,173 545,173 545,173 545,173 546,173 546,173 546,173 546,173 546,173 546,173 546,173 546,173 546,173 546,173 546,173 546,173 546,173 547,173 547,173 547,174 547,174 547,174 547,174 547,174 547,174 547,174 547,174 547,174 547,174 547,174 548,174 548,174 548,174 548,174 548,174 548,174 548,174 548,173 548,173 548,172 548,172 548,172 548,172 549,172 549,172 549,172 549,172 549,172 549,173 549,173 549,173 549,173 549,173 549,173 549,173 549,173 550,173 550,173 550,173 550,173 550,173 550,173 550,172 550,172 550,172 550,172 550,172 550,172 550,172 551,172 551,172 551,172 551,172 551,172 551,172 551,172 551,172 551,172 551,172 551,172 551,172 551,172 552,172 552,171 552,171 552,172 552,172 552,173 552,173 552,173 552,173 552,174 552,174 552,174 552,174 553,175 553,175 553,175 553,175 553,176 553,176 553,176 553,176 553,176 553,177 553,177 553,177 553,177 554,178 554,178 554,178 554,178 554,178 554,178 554,178 554,179 554,179 554,179 554,179 554,179 554,179 555,179 555,179 555,179 555,178 555,178 555,178 555,177 555,177 555,177 555,176 555,176 555,176 555,176 556,176 556,175 556,175 556,175 556,175 556,175 556,175 556,174 556,174 556,174 556,174 556,174 556,174 557,174 557,174 557,174 557,174 557,174 557,174 557,174 557,174 557,173 557,173 557,173 557,173 558,173 558,173 558,173 558,173 558,173 558,173 558,173 558,173 558,173 558,173 558,173 558,174 558,175 559,176 559,176 559,176 559,175 559,174 559,174 559,174 559,174 559,174 559,174 559,174 559,174 559,174 560,174 560,174 560,173 560,173 560,173 560,173 560,173 560,173 560,172 560,172 560,172 560,172 560,171 561,171 561,171 561,170 561,170 561,170 561,170 561,170 561,170 561,170 561,169 561,169 561,169 561,169 562,170 562,170 562,170 562,169 562,169 562,169 562,169 562,169 562,169 562,169 562,169 562,169 562,168 563,168 563,168 563,168 563,168 563,167 563,167 563,167 563,166 563,166 563,166 563,166 563,165 563,165 564,165 564,165 564,164 564,164 564,164 564,164 564,164 564,163 564,163 564,163 564,163 564,163 564,163 565,162 565,162 565,162 565,161 565,161 565,161 565,160 565,160 565,160 565,160 565,159 565,159 565,159 566,159 566,159 566,159 566,159 566,159 566,159 566,159 566,159 566,159 566,159 566,158 566,158 566,158 567,158 567,158 567,158 567,158 567,158 567,159 567,159 567,159 567,159 567,159 567,159 567,159 567,159 568,159 568,159 568,160 568,160 568,160 568,160 568,160 568,161 568,161 568,161 568,161 568,161 568,161 569,161 569,161 569,162 569,162 569,162 569,163 569,164 569,164 569,165 569,165 569,165 569,165 569,165 570,165 570,165 570,165 570,165 570,165 570,166 570,166 570,166 570,167 570,167 570,167 570,167 570,168 571,168 571,169 571,169 571,170 571,170 571,171 571,171 571,171 571,171 571,172 571,172 571,172 571,172 572,172 572,172 572,173 572,173 572,173 572,174 572,174 572,175 572,175 572,175 572,175 572,176 572,176 573,176 573,177 573,177 573,177 573,177 573,178 573,178 573,179 573,179 573,179 573,179 573,179 573,179 574,180 574,180 574,180 574,181 574,181 574,181 574,181 574,181 574,181 574,181 574,182 574,182 574,182 575,182 575,183 575,182 575,182 575,182 575,182 575,182 575,182 575,182 575,182 575,183 575,183 575,183 576,184 576,184 576,184 576,184 576,184 576,184 576,184 576,184 576,184 576,184 576,184 576,184 576,184 577,184 577,184 577,184 577,185 577,185 577,185 577,185 577,185 577,186 577,186 577,186 577,186 577,186 578,187 578,187 578,187 578,188 578,189 578,189 578,189 578,189 578,189 578,190 578,190 578,190 578,190 579,190 579,190 579,191 579,191 579,191 579,192 579,192 579,192 579,193 579,193 579,192 579,192 579,192 580,191 580,191 580,191 580,191 580,191 580,191 580,191 580,191 580,191 580,191 580,191 580,191 580,191 581,191 581,191 581,191 581,191 581,191 581,191 581,191 581,191 581,191 581,191 581,191 581,191 581,191 582,191 582,191 582,191 582,190 582,190 582,190 582,190 582,190 582,190 582,190 582,189 582,189 582,189 583,189 583,189 583,189 583,188 583,188 583,188 583,187 583,187 583,187 583,186 583,186 583,186 583,185 584,185 584,185 584,184 584,184 584,184 584,184 584,183 584,183 584,183 584,183 584,183 584,182 584,182 585,182 585,182 585,181 585,181 585,181 585,181 585,181 585,181 585,181 585,181 585,180 585,180 585,180 586,180 586,180 586,180 586,180 586,180 586,180 586,180 586,180 586,180 586,181 586,181 586,181 586,181 587,182 587,182 587,182 587,183 587,183 587,183 587,184 587,184 587,185 587,185 587,185 587,186 587,186 588,186 588,187 588,187 588,187 588,188 588,188 588,188 588,188 588,189 588,189 588,189 588,189 588,190 589,190 589,190 589,191 589,191 589,191 589,191 589,191 589,191 589,191 589,192 589,192 589,192 589,192 590,192 590,192 590,192 590,192 590,192 590,192 590,192 590,193 590,193 590,193 590,193 590,193 590,194 591,194 591,194 591,194 591,195 591,195 591,195 591,195 591,195 591,196 591,196 591,196 591,196 591,196 592,197 592,197 592,197 592,197 592,197 592,198 592,198 592,198 592,198 592,199 592,199 592,199 592,200 593,200 593,201 593,201 593,201 593,202 593,202 593,202 593,203 593,203 593,204 593,205 593,205 593,206 594,206 594,207 594,207 594,208 594,208 594,208 594,208 594,209 594,209 594,209 594,209 594,209 594,209 595,209 595,210 595,210 595,210 595,210 595,210 595,210 595,210 595,210 595,211 595,211 595,211 595,211 596,211 596,212 596,212 596,213 596,213 596,213 596,214 596,214 596,214 596,215 596,215 596,216 596,216 597,217 597,217 597,218 597,218 597,218 597,219 597,219 597,219 597,220 597,220 597,220 597,221 597,221 598,222 598,222 598,222 598,223 598,223 598,223 598,224 598,224 598,224 598,224 598,225 598,225 598,225 599,225 599,226 599,226 599,226 599,226 599,226 599,226 599,225 599,224 599,224 599,224 599,223 599,223 600,223 600,223 600,223 600,223 600,223 600,223 600,223 600,223 600,223 600,223 600,224 600,224 600,224 601,224 601,224 601,224 601,224 601,223 601,223 601,223 601,222 601,221 601,221 601,220 601,220 601,219 602,219 602,218 602,218 602,218 602,217 602,217 602,217 602,216 602,216 602,216 602,216 602,216 602,216 603,216 603,215 603,215 603,215 603,215 603,215 603,215 603,215 603,215 603,215 603,215 603,215 604,215 604,215 604,215 604,215 604,215 604,215 604,215 604,215 604,215 604,215 604,215 604,215 604,215 605,215 605,216 605,216 605,216 605,216 605,216 605,217 605,217 605,217 605,217 605,217 605,216 605,216 606,216 606,216 606,216 606,216 606,216 606,216 606,216 606,216 606,216 606,216 606,215 606,216 606,216 607,216 607,217 607,217 607,217 607,217 607,217 607,217 607,217 607,218 607,218 607,218 607,218 607,218 608,218 608,218 608,218 608,218 608,218 608,218 608,218 608,218 608,218 608,219 608,219 608,219 608,219 609,219 609,219 609,218 609,219 609,219 609,219 609,219 609,219 609,219 609,219 609,220 609,220 609,220 610,220 610,220 610,221 610,221 610,221 610,221 610,221 610,221 610,221 610,221 610,221 610,221 610,221 611,221 611,221 611,221 611,221 611,222 611,222 611,222 611,222 611,223 611,223 611,223 611,223 611,224 612,224 612,224 612,225 612,225 612,225 612,226 612,226 612,226 612,226 612,227 612,227 612,227 612,227 613,227 613,227 613,227 613,227 613,227 613,227 613,227 613,227 613,226 613,226 613,226 613,226 613,226 614,225 614,225 614,225 614,226 614,226 614,227 614,227 614,227 614,229 614,230 614,231 614,232 614,230 615,228 615,226 615,225 615,225 615,225 615,225 615,225 615,225 615,225 615,225 615,225 615,225 615,225 616,225 616,225 616,226 616,226 616,226 616,226 616,226 616,226 616,226 616,226 616,226 616,226 616,226 617,226 617,226 617,226 617,226 617,227 617,227 617,227 617,227 617,227 617,228 617,228 617,228 617,229 618,229 618,229 618,229 618,230 618,230 618,230 618,231 618,231 618,231 618,232 618,232 618,232 618,232 619,233 619,233 619,233 619,234 619,234 619,234 619,235 619,235 619,235 619,236 619,236 619,236 619,237 620,237 620,237 620,238 620,238 620,238 620,238 620,238 620,239 620,239 620,239 620,239 620,239 620,239 621,240 621,240 621,240 621,240 621,240 621,240 621,240 621,240 621,241 621,241 621,241 621,241 621,241 622,241 622,241 622,242 622,242 622,242 622,242 622,242 622,242 622,242 622,243 622,243 622,243 622,243 623,243 623,243 623,243 623,243 623,243 623,243 623,243 623,244 623,244 623,244 623,244 623,244 623,245 624,245 624,245 624,245 624,246 624,246 624,246 624,246 624,246 624,246 624,246 624,246 624,246 624,246 625,246 625,245 625,245 625,245 625,245 625,244 625,244 625,244 625,244 625,244 625,244 625,244 625,243 626,243 626,243 626,243 626,243 626,243 626,243 626,243 626,243 626,243 626,243 626,243 626,243 626,243 627,243 627,243 627,243 627,243 627,243 627,243 627,243 627,243 627,243 627,243 627,243 627,243 627,243 628,242 628,242 628,242 628,243 628,243 628,243 628,243 628,243 628,243 628,243 628,243 628,243 628,243 629,243 629,243 629,243 629,243 629,243 629,242 629,242 629,242 629,242 629,241 629,241 629,240 629,240 630,240 630,239 630,239 630,238 630,238 630,238 630,238 630,237 630,237 630,237 630,237 630,237 630,236 631,236 631,236 631,236 631,235 631,235 631,235 631,235 631,235 631,234 631,234 631,234 631,234 631,233 632,233 632,233 632,233 632,233 632,232 632,232 632,232 632,232 632,232 632,231 632,231 632,231 632,231 633,231 633,231 633,231 633,231 633,231 633,231 633,231 633,231 633,231 633,230 633,230 633,230 633,230 634,230 634,230 634,230 634,230 634,230 634,230 634,230 634,230 634,230 634,230 634,230 634,231 634,231 635,231 635,232 635,232 635,232 635,233 635,233 635,233 635,233 635,234 635,234 635,235 635,235 635,236 636,236 636,237 636,237 636,238 636,238 636,238 636,239 636,239 636,240 636,240 636,241 636,241 636,241 637,242 637,242 637,242 637,243 637,243 637,244 637,244 637,245 637,245 637,245 637,245 637,245 637,245 638,245 638,245 638,244 638,244 638,244 638,244 638,244 638,244 638,244 638,244 638,244 638,244 638,243 639,243 639,243 639,243 639,243 639,243 639,243 639,243 639,242 639,242 639,242 639,242 639,242 639,242 640,242 640,242 640,242 640,242 640,242 640,242 640,242 640,242 640,242 640,242 640,243 640,243 640,243 641,243 641,243 641,243 641,244 641,244 641,244 641,244 641,245 641,245 641,245 641,246 641,246 641,246 642,247 642,247 642,247 642,248 642,248 642,248 642,249 642,249 642,249 642,249 642,249 642,249 642,250 643,250 643,250 643,250 643,250 643,250 643,250 643,251 643,251 643,251 643,251 643,251 643,252 643,252 644,252 644,252 644,252 644,252 644,252 644,252 644,252 644,252 644,253 644,253 644,253 644,253 644,253 645,253 645,253 645,253 645,253 645,253 645,254 645,254 645,254 645,254 645,254 645,254 645,254 645,255 646,255 646,255 646,255 646,255 646,256 646,257 646,258 646,258 646,257 646,257 646,256 646,256 646,256 647,256 647,256 647,256 647,256 647,257 647,257 647,257 647,257 647,257 647,257 647,258 647,258 647,258 648,258 648,258 648,258 648,259 648,259 648,259 648,259 648,259 648,259 648,260 648,260 648,260 648,260 649,261 649,261 649,261 649,262 649,262 649,262 649,263 649,263 649,263 649,264 649,264 649,264 650,264 650,264 650,264 650,263 650,263 650,263 650,262 650,262 650,261 650,261 650,260 650,260 650,259 651,258 651,258 651,257 651,257 651,257 651,256 651,256 651,256 651,256 651,256 651,255 651,255 651,255 652,255 652,255 652,254 652,254 652,254 652,253 652,253 652,253 652,253 652,253 652,252 652,253 652,253 653,253 653,253 653,253 653,253 653,253 653,252 653,252 653,252 653,251 653,251 653,251 653,250 653,250 654,249 654,249 654,249 654,248 654,248 654,248 654,247 654,247 654,246 654,246 654,246 654,245 654,245 655,245 655,244 655,244 655,244 655,243 655,243 655,243 655,243 655,243 655,242 655,242 655,242 655,242 656,242 656,241 656,241 656,241 656,241 656,240 656,240 656,240 656,240 656,240 656,240 656,240 656,240 657,240 657,240 657,240 657,240 657,241 657,241 657,241 657,241 657,241 657,241 657,241 657,241 657,241 658,241 658,241 658,241 658,241 658,241 658,241 658,242 658,242 658,242 658,242 658,242 658,242 658,242 659,242 659,242 659,242 659,242 659,243 659,243 659,243 659,243 659,243 659,244 659,244 659,244 659,244 660,244 660,245 660,245 660,245 660,246 660,246 660,246 660,247 660,247 660,247 660,248 660,248 660,248 661,249 661,249 661,249 661,249 661,250 661,250 661,250 661,250 661,251 661,251 661,251 661,252 661,252 662,252 662,252 662,253 662,253 662,253 662,254 662,254 662,254 662,255 662,255 662,255 662,256 662,256 663,256 663,257 663,257 663,257 663,258 663,258 663,258 663,259 663,259 663,259 663,259 663,260 663,260 664,260 664,261 664,261 664,262 664,262 664,262 664,263 664,263 664,264 664,264 664,265 664,265 664,266 665,266 665,267 665,268 665,268 665,269 665,269 665,270 665,270 665,271 665,272 665,272 665,273 665,273 666,274 666,274 666,275 666,275 666,276 666,276 666,277 666,277 666,278 666,278 666,279 666,279 666,279 667,280 667,280 667,280 667,280 667,281 667,281 667,281 667,281 667,281 667,281 667,281 667,281 667,281 668,282 668,282 668,282 668,282 668,282 668,282 668,282 668,282 668,282 668,282 668,282 668,282 668,282 669,282 669,282 669,282 669,282 669,281 669,281 669,281 669,281 669,281 669,281 669,280 669,280 669,280 670,280 670,280 670,280 670,279 670,279 670,279 670,279 670,279 670,279 670,279 670,279 670,279 670,279 671,279 671,279 671,279 671,279 671,280 671,280 671,280 671,280 671,280 671,280 671,279 671,279 671,279 672,279 672,279 672,279 672,279 672,279 672,279 672,279 672,279 672,279 672,279 672,279 672,279 672,279 673,279 673,279 673,279 673,278 673,278 673,278 673,278 673,278 673,278 673,278 673,277 673,277 673,277 674,277 674,277 674,276 674,276 674,276 674,276 674,276 674,276 674,275 674,275 674,275 674,275 674,275 675,275 675,275 675,275 675,274 675,274 675,274 675,274 675,274 675,274 675,274 675,273 675,273 675,273 676,273 676,273 676,273 676,272 676,272 676,272 676,272 676,272 676,271 676,271 676,271 676,271 676,271 677,270 677,270 677,270 677,270 677,270 677,270 677,269 677,269 677,269 677,269 677,268 677,268 677,268 678,268 678,267 678,267 678,267 678,267 678,266 678,266 678,266 678,266 678,265 678,265 678,265 678,265 679,264 679,264 679,264 679,264 679,264 679,265 679,265 679,265 679,265 679,265 679,266 679,266 679,266 680,266 680,266 680,266 680,267 680,267 680,267 680,267 680,267 680,267 680,267 680,267 680,266 680,266 681,266 681,265 681,265 681,265 681,265 681,264 681,264 681,264 681,264 681,264 681,264 681,264 681,264 682,264 682,264 682,264 682,264 682,264 682,264 682,264 682,264 682,264 682,264 682,263 682,263 682,263 683,263 683,263 683,262 683,262 683,262 683,261 683,261 683,261 683,261 683,260 683,260 683,260 683,260 684,260 684,260 684,260 684,261 684,261 684,261 684,261 684,262 684,262 684,262 684,262 684,262 684,263 685,263 685,263 685,263 685,264 685,264 685,264 685,264 685,263 685,263 685,263 685,263 685,262 685,262 686,262 686,262 686,262 686,262 686,262 686,262 686,261 686,261 686,261 686,261 686,261 686,261 686,261 687,260 687,260 687,260 687,260 687,260 687,260 687,259 687,259 687,259 687,259 687,259 687,259 687,259 688,258 688,258 688,258 688,258 688,258 688,258 688,257 688,257 688,257 688,257 688,257 688,257 688,257 689,257 689,257 689,257 689,257 689,257 689,257 689,257 689,257 689,257 689,257 689,258 689,258 689,258 690,258 690,259 690,259 690,260 690,260 690,260 690,260 690,261 690,260 690,260 690,259 690,259 690,258 691,258 691,258 691,257 691,257 691,257 691,256 691,256 691,256 691,255 691,255 691,255 691,254 691,254 692,254 692,254 692,253 692,253 692,253 692,253 692,253 692,253 692,252 692,252 692,252 692,252 692,252 693,252 693,252 693,251 693,251 693,251 693,251 693,251 693,251 693,251 693,251 693,251 693,251 693,251 694,251 694,251 694,251 694,251 694,251 694,251 694,251 694,251 694,251 694,251 694,251 694,251 694,251 695,251 695,250 695,250 695,250 695,249 695,249 695,249 695,248 695,248 695,247 695,247 695,247 696,247 696,246 696,246 696,246 696,246 696,245 696,245 696,245 696,245 696,244 696,244 696,244 696,244 697,244 697,243 697,243 697,243 697,242 697,242 697,242 697,241 697,241 697,241 697,240 697,240 697,239 698,239 698,239 698,239 698,239 698,238 698,238 698,239 698,239 698,239 698,239 698,239 698,239 698,238 699,238 699,238 699,239 699,239 699,239 699,239 699,239 699,239 699,239 699,239 699,239 699,239 699,239 700,239 700,239 700,239 700,239 700,239 700,238 700,238 700,238 700,237 700,236 700,234 700,233 700,232 701,231 701,230 701,229 701,228 701,227 701,226 701,226 701,225 701,224 701,224 701,223 701,222 701,222 702,222 702,221 702,221 702,221 702,221 702,221 702,222 702,222 702,222 702,222 702,223 702,223 702,223 703,223 703,224 703,224 703,225 703,225 703,224 703,224 703,224 703,223 703,223 703,222 703,222 703,222 704,222 704,222 704,221 704,221 704,221 704,221 704,221 704,221 704,221 704,221 704,221 704,221 704,221 705,221 705,221 705,221 705,220 705,220 705,220 705,220 705,220 705,219 705,219 705,219 705,219 705,218 706,218 706,218 706,217 706,217 706,216 706,216 706,215 706,214 706,213 706,212 706,211 706,210 706,209 707,208 707,208 707,207 707,207 707,206 707,206 707,205 707,205 707,204 707,204 707,204 707,204 707,203 708,203 708,203 708,203 708,203 708,203 708,203 708,203 708,203 708,203 708,203 708,203 708,203 708,203 709,203 709,203 709,203 709,203 709,203 709,204 709,204 709,204 709,205 709,205 709,206 709,206 709,206 710,206 710,206 710,206 710,206 710,206 710,206 710,206 710,206 710,206 710,206 710,207 710,207 710,207 711,207 711,207 711,207 711,207 711,207 711,207 711,207 711,207 711,207 711,207 711,207 711,207 711,207 712,207 712,207 712,208 712,208 712,208 712,208 712,208 712,208 712,208 712,208 712,208 712,209 712,209 713,209 713,210 713,210 713,210 713,210 713,210 713,210 713,210 713,210 713,211 713,211 713,211 713,211 714,211 714,211 714,211 714,212 714,212 714,212 714,212 714,213 714,213 714,213 714,213 714,214 714,214 715,214 715,215 715,215 715,216 715,216 715,216 715,217 715,217 715,217 715,217 715,218 715,218 715,218 716,218 716,218 716,219 716,219 716,219 716,219 716,220 716,220 716,220 716,220 716,221 716,221 716,221 717,221 717,222 717,222 717,222 717,222 717,223 717,223 717,223 717,223 717,224 717,224 717,224 717,224 718,224 718,224 718,224 718,224 718,224 718,224 718,224 718,224 718,224 718,224 718,224 718,224 718,224 719,223 719,223 719,222 719,221 719,221 719,220 719,220 719,220 719,219 719,219 719,219 719,219 719,219 720,219 720,219 720,219 720,219 720,219 720,219 720,219 720,219 720,219 720,219 720,219 720,219 720,219 721,219 721,219 721,219 721,219 721,219 721,219 721,219 721,219 721,219 721,219 721,219 721,219 721,220 722,220 722,220 722,220 722,220 722,220 722,220 722,221 722,221 722,221 722,221 722,221 722,221 722,221 723,222 723,221 723,221 723,222 723,222 723,222 723,222 723,221 723,221 723,221 723,221 723,221 723,221 724,221 724,221 724,221 724,221 724,221 724,221 724,221 724,221 724,221 724,221 724,221 724,221 724,220 725,220 725,220 725,220 725,220 725,220 725,220 725,221 725,221 725,220 725,220 725,220 725,220 725,220 726,220 726,220 726,220 726,219 726,219 726,219 726,219 726,219 726,219 726,219 726,219 726,219 726,219 727,219 727,220 727,220 727,220 727,220 727,220 727,220 727,220 727,220 727,220 727,220 727,221 727,221 728,221 728,222 728,222 728,222 728,223 728,223 728,223 728,223 728,223 728,223 728,223 728,224 728,224 729,224 729,224 729,224 729,224 729,224 729,224 729,224 729,224 729,224 729,224 729,224 729,224 729,225 730,225 730,225 730,225 730,225 730,225 730,225 730,225 730,225 730,225 730,225 730,226 730,226 730,226 731,226 731,226 731,226 731,226 731,226 731,226 731,226 731,227 731,227 731,227 731,227 731,227 731,227 732,227 732,228 732,228 732,228 732,228 732,228 732,228 732,229 732,229 732,229 732,229 732,229 732,230 733,230 733,230 733,230 733,230 733,230 733,230 733,230 733,230 733,230 733,230 733,230 733,230 733,230 734,230 734,230 734,231 734,231 734,231 734,231 734,232 734,232 734,232 734,232 734,232 734,232 734,232 735,233 735,233 735,233 735,233 735,233 735,233 735,233 735,233 735,233 735,233 735,233 735,233 735,233 736,234 736,234 736,234 736,234 736,234 736,235 736,235 736,236 736,236 736,236 736,236 " vector-effect="non-scaling-stroke"></polyline>
</g></svg>