<?xml version="1.0" encoding="UTF-8" standalone="no"?><svg width="282.222mm" height="141.111mm" xmlns="http://www.w3.org/2000/svg" xmlns:xlink="http://www.w3.org/1999/xlink"  version="1.2" baseProfile="tiny"><g fill="none" stroke="#ff0000" stroke-linecap="round" stroke-linejoin="round" stroke-opacity="1" stroke-width="1.5" transform="matrix(1,0,0,1,0,0)">
<polyline fill="none" points="62,264 62,264 62,264 62,264 63,264 63,265 63,265 63,265 63,266 63,266 63,266 63,266 63,266 63,266 63,266 63,265 63,265 64,265 64,265 64,265 64,265 64,264 64,264 64,263 64,263 64,262 64,262 64,261 64,261 64,260 65,260 65,259 65,259 65,259 65,258 65,258 65,258 65,257 65,256 65,255 65,254 65,254 65,254 66,253 66,253 66,252 66,252 66,252 66,252 66,251 66,251 66,250 66,250 66,249 66,249 66,248 67,248 67,248 67,247 67,247 67,247 67,247 67,247 67,247 67,246 67,246 67,246 67,246 67,246 68,246 68,246 68,245 68,245 68,245 68,245 68,245 68,245 68,245 68,245 68,245 68,245 68,244 69,244 69,244 69,244 69,244 69,244 69,245 69,245 69,245 69,244 69,244 69,244 69,244 69,244 70,244 70,244 70,244 70,244 70,244 70,244 70,244 70,244 70,245 70,245 70,245 70,245 70,246 71,246 71,246 71,246 71,246 71,246 71,246 71,246 71,247 71,247 71,247 71,247 71,247 71,247 72,247 72,247 72,247 72,248 72,248 72,248 72,248 72,248 72,248 72,248 72,248 72,248 72,248 73,248 73,248 73,249 73,250 73,250 73,250 73,250 73,250 73,251 73,251 73,252 73,252 73,252 74,252 74,252 74,252 74,253 74,253 74,253 74,252 74,253 74,253 74,253 74,253 74,253 74,253 75,253 75,252 75,252 75,252 75,251 75,251 75,251 75,250 75,250 75,250 75,249 75,248 75,247 76,247 76,247 76,246 76,246 76,246 76,246 76,245 76,245 76,244 76,244 76,244 76,243 76,243 77,243 77,243 77,243 77,242 77,242 77,241 77,241 77,241 77,240 77,240 77,240 77,240 77,239 78,239 78,239 78,239 78,239 78,238 78,238 78,238 78,238 78,237 78,237 78,237 78,237 78,237 79,237 79,237 79,236 79,236 79,236 79,236 79,236 79,236 79,236 79,236 79,236 79,236 79,236 80,236 80,236 80,236 80,235 80,235 80,235 80,235 80,235 80,235 80,235 80,235 80,235 80,234 81,234 81,234 81,234 81,234 81,234 81,234 81,235 81,235 81,235 81,235 81,235 81,235 81,236 82,236 82,236 82,236 82,236 82,236 82,236 82,236 82,236 82,236 82,236 82,236 82,236 82,235 83,236 83,236 83,236 83,236 83,237 83,237 83,237 83,237 83,238 83,238 83,238 83,238 83,238 84,239 84,239 84,240 84,240 84,240 84,240 84,240 84,241 84,241 84,241 84,241 84,241 84,240 85,240 85,240 85,241 85,241 85,241 85,241 85,242 85,242 85,242 85,243 85,243 85,243 85,243 86,243 86,243 86,243 86,243 86,243 86,244 86,244 86,244 86,244 86,245 86,245 86,245 86,245 87,246 87,246 87,246 87,246 87,247 87,247 87,248 87,248 87,248 87,249 87,249 87,249 87,249 88,249 88,249 88,249 88,249 88,249 88,249 88,250 88,250 88,250 88,251 88,251 88,251 88,251 89,251 89,252 89,252 89,252 89,252 89,253 89,253 89,253 89,253 89,254 89,254 89,254 89,254 90,254 90,255 90,255 90,255 90,255 90,256 90,256 90,256 90,257 90,257 90,257 90,257 90,257 91,257 91,257 91,258 91,258 91,259 91,259 91,259 91,259 91,259 91,259 91,260 91,260 91,260 92,260 92,260 92,260 92,260 92,260 92,260 92,260 92,260 92,260 92,260 92,260 92,260 93,259 93,259 93,259 93,259 93,258 93,258 93,258 93,258 93,258 93,257 93,257 93,257 93,256 94,256 94,255 94,255 94,254 94,254 94,254 94,254 94,253 94,253 94,252 94,252 94,251 94,251 95,251 95,250 95,250 95,249 95,249 95,249 95,248 95,248 95,248 95,247 95,247 95,247 95,246 96,246 96,246 96,245 96,245 96,244 96,244 96,244 96,243 96,243 96,243 96,242 96,242 96,241 97,241 97,240 97,240 97,239 97,238 97,237 97,237 97,236 97,236 97,236 97,236 97,235 97,235 98,236 98,235 98,235 98,235 98,235 98,234 98,234 98,234 98,234 98,234 98,234 98,234 98,234 99,234 99,234 99,233 99,233 99,233 99,233 99,233 99,233 99,233 99,234 99,234 99,234 99,234 100,234 100,234 100,235 100,235 100,235 100,236 100,237 100,237 100,238 100,238 100,239 100,240 100,241 101,241 101,241 101,242 101,242 101,243 101,243 101,244 101,243 101,244 101,244 101,245 101,245 101,246 102,247 102,248 102,249 102,249 102,251 102,253 102,253 102,252 102,251 102,252 102,252 102,251 102,251 103,251 103,251 103,252 103,252 103,252 103,252 103,252 103,252 103,252 103,251 103,251 103,251 103,251 104,251 104,251 104,251 104,251 104,251 104,251 104,251 104,251 104,251 104,250 104,250 104,250 104,250 105,250 105,250 105,250 105,250 105,250 105,250 105,250 105,250 105,250 105,250 105,250 105,249 105,249 106,249 106,249 106,249 106,249 106,249 106,249 106,249 106,249 106,248 106,248 106,248 106,248 106,248 107,248 107,248 107,248 107,248 107,248 107,248 107,248 107,247 107,247 107,247 107,247 107,247 107,247 108,247 108,247 108,247 108,246 108,246 108,246 108,246 108,247 108,246 108,246 108,246 108,246 108,246 109,246 109,246 109,247 109,247 109,247 109,247 109,246 109,246 109,246 109,245 109,245 109,245 109,245 110,245 110,246 110,246 110,245 110,245 110,245 110,245 110,245 110,245 110,244 110,245 110,244 110,244 111,244 111,244 111,244 111,244 111,244 111,244 111,244 111,244 111,243 111,243 111,243 111,243 111,243 112,243 112,242 112,242 112,242 112,241 112,241 112,241 112,242 112,242 112,242 112,242 112,241 112,241 113,241 113,241 113,241 113,241 113,241 113,241 113,240 113,240 113,240 113,239 113,239 113,239 113,238 114,238 114,238 114,238 114,238 114,237 114,237 114,236 114,236 114,236 114,235 114,235 114,235 114,235 115,235 115,235 115,234 115,234 115,234 115,234 115,234 115,233 115,233 115,233 115,233 115,233 115,233 116,232 116,232 116,232 116,232 116,232 116,232 116,232 116,232 116,232 116,231 116,230 116,229 116,228 117,228 117,228 117,227 117,227 117,227 117,226 117,226 117,226 117,225 117,225 117,225 117,224 117,224 118,223 118,223 118,223 118,222 118,222 118,221 118,220 118,220 118,219 118,218 118,217 118,217 118,216 119,215 119,214 119,213 119,213 119,212 119,211 119,211 119,210 119,210 119,209 119,209 119,208 119,208 120,207 120,207 120,207 120,207 120,207 120,206 120,206 120,206 120,205 120,206 120,206 120,206 120,206 121,206 121,206 121,206 121,206 121,206 121,206 121,206 121,206 121,207 121,207 121,208 121,208 121,209 122,210 122,211 122,212 122,212 122,211 122,211 122,211 122,212 122,212 122,213 122,215 122,215 122,216 123,217 123,217 123,217 123,217 123,217 123,217 123,217 123,217 123,217 123,217 123,216 123,216 123,216 124,215 124,214 124,213 124,212 124,211 124,210 124,209 124,208 124,207 124,206 124,205 124,204 124,203 125,202 125,201 125,201 125,200 125,199 125,198 125,198 125,197 125,197 125,197 125,197 125,196 125,196 126,195 126,195 126,194 126,194 126,192 126,192 126,192 126,192 126,191 126,190 126,190 126,190 126,189 127,190 127,190 127,190 127,190 127,191 127,190 127,190 127,190 127,190 127,190 127,189 127,189 127,188 128,188 128,187 128,187 128,186 128,186 128,185 128,184 128,183 128,183 128,182 128,181 128,180 128,179 129,178 129,178 129,177 129,177 129,176 129,175 129,175 129,175 129,174 129,174 129,174 129,174 129,174 130,174 130,174 130,173 130,173 130,173 130,173 130,173 130,173 130,172 130,172 130,172 130,172 130,172 131,172 131,172 131,172 131,172 131,172 131,172 131,172 131,172 131,172 131,172 131,172 131,173 131,173 132,173 132,173 132,173 132,173 132,174 132,174 132,174 132,175 132,175 132,175 132,176 132,176 132,177 133,177 133,178 133,179 133,180 133,180 133,182 133,182 133,183 133,183 133,183 133,183 133,183 133,184 134,184 134,184 134,184 134,183 134,182 134,181 134,180 134,180 134,179 134,178 134,178 134,178 134,178 135,177 135,177 135,177 135,177 135,177 135,178 135,178 135,178 135,178 135,179 135,179 135,180 136,180 136,181 136,182 136,183 136,183 136,184 136,185 136,185 136,186 136,187 136,188 136,189 136,190 137,192 137,191 137,191 137,190 137,190 137,189 137,189 137,188 137,187 137,186 137,185 137,184 137,184 138,184 138,185 138,185 138,185 138,185 138,185 138,185 138,186 138,186 138,186 138,186 138,186 138,187 139,187 139,187 139,187 139,187 139,187 139,188 139,188 139,188 139,189 139,189 139,190 139,190 139,191 140,192 140,193 140,193 140,194 140,194 140,195 140,194 140,194 140,194 140,194 140,193 140,193 140,192 141,192 141,191 141,191 141,190 141,189 141,189 141,189 141,189 141,189 141,188 141,188 141,188 141,188 142,188 142,188 142,188 142,188 142,188 142,188 142,188 142,188 142,188 142,188 142,188 142,188 142,188 143,189 143,189 143,189 143,190 143,190 143,191 143,192 143,192 143,193 143,193 143,194 143,195 143,196 144,196 144,197 144,197 144,197 144,197 144,197 144,197 144,197 144,197 144,196 144,196 144,196 144,195 145,195 145,195 145,195 145,195 145,195 145,195 145,194 145,194 145,194 145,194 145,194 145,193 145,193 146,193 146,193 146,193 146,193 146,193 146,193 146,193 146,193 146,193 146,193 146,193 146,193 146,193 147,192 147,192 147,192 147,193 147,193 147,193 147,193 147,193 147,194 147,195 147,195 147,195 147,195 148,195 148,195 148,196 148,196 148,196 148,196 148,197 148,197 148,198 148,198 148,198 148,198 148,198 149,198 149,198 149,198 149,198 149,198 149,198 149,198 149,198 149,198 149,197 149,197 149,196 149,196 150,196 150,195 150,195 150,195 150,195 150,195 150,195 150,194 150,194 150,193 150,193 150,193 150,192 151,192 151,192 151,192 151,192 151,192 151,192 151,192 151,192 151,192 151,192 151,191 151,191 151,190 152,190 152,190 152,190 152,190 152,190 152,190 152,191 152,191 152,191 152,191 152,191 152,192 152,192 153,192 153,192 153,192 153,192 153,192 153,192 153,192 153,193 153,193 153,193 153,193 153,193 153,193 154,193 154,193 154,192 154,192 154,193 154,193 154,193 154,193 154,193 154,192 154,191 154,191 154,191 155,191 155,190 155,189 155,189 155,189 155,190 155,190 155,189 155,188 155,188 155,187 155,187 155,186 156,186 156,186 156,186 156,186 156,186 156,186 156,186 156,186 156,186 156,185 156,184 156,182 156,180 157,179 157,178 157,178 157,178 157,178 157,177 157,176 157,176 157,175 157,174 157,174 157,172 157,171 158,170 158,170 158,169 158,167 158,167 158,166 158,165 158,165 158,164 158,163 158,163 158,163 158,162 159,162 159,161 159,161 159,161 159,161 159,160 159,160 159,159 159,159 159,159 159,159 159,159 159,159 160,159 160,159 160,159 160,159 160,158 160,158 160,158 160,158 160,159 160,159 160,159 160,159 160,159 161,159 161,158 161,158 161,158 161,158 161,159 161,159 161,158 161,158 161,158 161,158 161,158 161,158 162,158 162,158 162,157 162,157 162,157 162,157 162,156 162,156 162,155 162,155 162,154 162,153 162,153 163,152 163,151 163,150 163,150 163,149 163,148 163,147 163,147 163,146 163,145 163,145 163,144 163,143 164,142 164,142 164,141 164,140 164,140 164,139 164,139 164,138 164,138 164,137 164,137 164,136 164,136 165,136 165,135 165,135 165,135 165,134 165,134 165,134 165,133 165,133 165,133 165,133 165,133 165,133 166,133 166,133 166,133 166,133 166,133 166,133 166,133 166,133 166,134 166,134 166,134 166,134 166,135 167,135 167,135 167,136 167,136 167,136 167,136 167,137 167,137 167,138 167,138 167,139 167,139 167,139 168,139 168,139 168,140 168,140 168,141 168,141 168,141 168,141 168,141 168,141 168,140 168,141 168,141 169,140 169,140 169,140 169,139 169,138 169,138 169,137 169,137 169,136 169,136 169,136 169,135 169,135 170,135 170,135 170,135 170,135 170,135 170,135 170,134 170,134 170,133 170,133 170,134 170,134 170,135 171,135 171,136 171,136 171,136 171,137 171,137 171,138 171,138 171,138 171,137 171,137 171,136 171,136 172,136 172,137 172,137 172,138 172,137 172,137 172,137 172,137 172,137 172,137 172,137 172,136 172,136 173,136 173,136 173,136 173,136 173,136 173,136 173,135 173,135 173,135 173,135 173,135 173,135 173,135 174,135 174,136 174,136 174,137 174,137 174,137 174,138 174,138 174,139 174,139 174,140 174,140 174,140 175,140 175,139 175,139 175,139 175,138 175,138 175,137 175,137 175,136 175,135 175,134 175,133 175,132 176,132 176,132 176,131 176,131 176,131 176,131 176,131 176,131 176,131 176,131 176,131 176,131 176,131 177,131 177,131 177,131 177,131 177,131 177,131 177,131 177,131 177,131 177,130 177,130 177,130 177,130 178,130 178,130 178,130 178,130 178,130 178,130 178,130 178,130 178,130 178,131 178,131 178,131 179,131 179,131 179,131 179,132 179,132 179,132 179,132 179,133 179,133 179,133 179,134 179,134 179,134 180,134 180,134 180,135 180,136 180,137 180,138 180,139 180,140 180,141 180,142 180,142 180,143 180,143 181,144 181,145 181,145 181,146 181,147 181,147 181,148 181,148 181,149 181,149 181,150 181,151 181,151 182,152 182,153 182,154 182,155 182,156 182,156 182,157 182,158 182,160 182,161 182,162 182,164 182,164 183,164 183,164 183,165 183,165 183,164 183,164 183,163 183,163 183,162 183,161 183,161 183,160 183,159 184,159 184,158 184,158 184,158 184,158 184,157 184,155 184,152 184,149 184,148 184,147 184,146 184,146 185,145 185,144 185,144 185,144 185,144 185,143 185,143 185,143 185,143 185,143 185,143 185,143 185,142 186,142 186,142 186,142 186,142 186,142 186,142 186,142 186,143 186,142 186,142 186,142 186,142 186,142 187,142 187,142 187,142 187,143 187,143 187,143 187,144 187,144 187,144 187,145 187,145 187,145 187,146 188,146 188,147 188,147 188,147 188,147 188,147 188,147 188,147 188,147 188,147 188,148 188,148 188,148 189,149 189,148 189,148 189,148 189,148 189,148 189,148 189,148 189,148 189,148 189,148 189,148 189,148 190,148 190,148 190,148 190,149 190,149 190,149 190,149 190,150 190,150 190,150 190,151 190,151 190,151 191,152 191,152 191,152 191,153 191,153 191,153 191,154 191,154 191,154 191,155 191,155 191,156 191,156 192,157 192,157 192,157 192,158 192,158 192,159 192,159 192,159 192,159 192,159 192,160 192,161 192,162 193,164 193,165 193,165 193,166 193,167 193,167 193,167 193,167 193,167 193,167 193,167 193,167 193,167 194,167 194,167 194,167 194,167 194,167 194,167 194,167 194,167 194,167 194,167 194,167 194,167 194,166 195,165 195,165 195,164 195,163 195,162 195,161 195,161 195,160 195,159 195,158 195,157 195,156 195,155 196,155 196,154 196,153 196,152 196,152 196,151 196,151 196,150 196,150 196,149 196,149 196,149 196,148 197,148 197,147 197,147 197,147 197,146 197,146 197,146 197,145 197,145 197,145 197,145 197,145 197,145 198,145 198,145 198,146 198,146 198,146 198,146 198,146 198,146 198,146 198,146 198,146 198,145 198,145 199,145 199,145 199,145 199,145 199,145 199,145 199,145 199,145 199,144 199,144 199,144 199,144 199,144 200,144 200,144 200,144 200,144 200,144 200,145 200,145 200,144 200,144 200,144 200,144 200,144 200,144 201,144 201,144 201,144 201,144 201,144 201,143 201,143 201,142 201,141 201,141 201,142 201,142 201,142 202,142 202,143 202,143 202,144 202,144 202,144 202,143 202,143 202,143 202,144 202,145 202,145 202,145 203,145 203,146 203,146 203,146 203,146 203,146 203,146 203,146 203,146 203,146 203,146 203,146 203,146 204,146 204,147 204,147 204,146 204,146 204,145 204,145 204,146 204,146 204,146 204,145 204,145 204,145 205,144 205,144 205,143 205,143 205,142 205,142 205,141 205,140 205,140 205,139 205,139 205,138 205,138 206,138 206,138 206,138 206,138 206,137 206,137 206,137 206,137 206,137 206,137 206,137 206,137 206,137 207,137 207,137 207,137 207,137 207,137 207,137 207,136 207,137 207,137 207,138 207,139 207,139 207,140 208,141 208,141 208,142 208,143 208,143 208,144 208,144 208,145 208,145 208,145 208,145 208,145 208,144 209,144 209,144 209,143 209,143 209,142 209,142 209,142 209,141 209,141 209,140 209,140 209,140 209,139 210,139 210,139 210,139 210,139 210,138 210,138 210,138 210,137 210,137 210,136 210,135 210,135 210,134 211,134 211,134 211,133 211,133 211,133 211,133 211,133 211,133 211,132 211,132 211,131 211,131 211,131 212,130 212,130 212,130 212,129 212,129 212,128 212,128 212,128 212,127 212,127 212,127 212,126 212,126 213,126 213,126 213,126 213,126 213,126 213,125 213,125 213,125 213,125 213,125 213,124 213,124 213,124 214,124 214,124 214,124 214,123 214,123 214,123 214,123 214,123 214,123 214,123 214,123 214,123 214,123 215,123 215,123 215,124 215,124 215,124 215,124 215,124 215,124 215,124 215,125 215,125 215,126 215,126 216,126 216,126 216,127 216,127 216,126 216,126 216,126 216,126 216,127 216,127 216,127 216,127 216,127 217,127 217,127 217,127 217,127 217,127 217,128 217,128 217,128 217,128 217,128 217,129 217,129 217,130 218,130 218,130 218,130 218,130 218,130 218,130 218,130 218,130 218,130 218,130 218,130 218,130 218,130 219,131 219,131 219,131 219,131 219,131 219,131 219,131 219,131 219,132 219,132 219,132 219,132 219,132 220,132 220,132 220,132 220,132 220,132 220,132 220,132 220,132 220,131 220,131 220,131 220,131 220,131 221,130 221,130 221,130 221,130 221,130 221,130 221,130 221,130 221,130 221,130 221,130 221,130 221,129 222,129 222,129 222,129 222,129 222,129 222,128 222,128 222,128 222,128 222,128 222,128 222,128 223,128 223,128 223,129 223,129 223,129 223,129 223,129 223,130 223,129 223,129 223,130 223,130 223,130 224,130 224,129 224,129 224,129 224,130 224,130 224,130 224,130 224,131 224,131 224,131 224,132 224,132 225,133 225,133 225,133 225,133 225,134 225,134 225,134 225,134 225,134 225,135 225,135 225,135 225,135 226,136 226,136 226,136 226,136 226,136 226,136 226,137 226,137 226,137 226,137 226,137 226,137 226,137 227,137 227,137 227,137 227,137 227,137 227,137 227,137 227,137 227,137 227,136 227,136 227,136 227,136 228,136 228,137 228,137 228,137 228,137 228,137 228,137 228,137 228,137 228,137 228,137 228,137 228,137 229,138 229,137 229,137 229,137 229,138 229,138 229,138 229,139 229,139 229,139 229,139 229,140 229,140 230,140 230,140 230,140 230,140 230,140 230,140 230,140 230,140 230,140 230,140 230,139 230,139 230,139 231,139 231,139 231,139 231,139 231,139 231,139 231,139 231,140 231,140 231,140 231,140 231,140 231,140 232,140 232,140 232,140 232,140 232,140 232,140 232,140 232,140 232,140 232,140 232,140 232,140 232,140 233,140 233,140 233,140 233,140 233,140 233,140 233,140 233,140 233,140 233,140 233,140 233,140 233,140 234,140 234,140 234,139 234,139 234,139 234,139 234,139 234,138 234,138 234,138 234,138 234,138 234,138 235,137 235,137 235,137 235,137 235,137 235,136 235,136 235,136 235,136 235,136 235,135 235,135 235,135 236,135 236,135 236,135 236,135 236,135 236,135 236,135 236,135 236,135 236,135 236,135 236,135 236,135 237,135 237,134 237,134 237,134 237,134 237,135 237,134 237,135 237,135 237,135 237,135 237,134 237,134 238,134 238,133 238,133 238,132 238,131 238,131 238,130 238,130 238,130 238,129 238,129 238,128 238,128 239,127 239,127 239,127 239,126 239,126 239,126 239,126 239,127 239,126 239,126 239,126 239,126 239,125 240,125 240,125 240,125 240,125 240,125 240,125 240,125 240,125 240,125 240,125 240,125 240,125 240,125 241,125 241,124 241,124 241,124 241,124 241,123 241,123 241,123 241,123 241,123 241,123 241,123 241,123 242,122 242,122 242,123 242,123 242,123 242,124 242,124 242,124 242,124 242,124 242,124 242,124 242,124 243,124 243,124 243,124 243,124 243,124 243,124 243,124 243,125 243,125 243,125 243,125 243,126 243,126 244,126 244,126 244,126 244,126 244,127 244,127 244,127 244,128 244,128 244,128 244,128 244,128 244,129 245,129 245,129 245,129 245,130 245,130 245,130 245,131 245,131 245,131 245,131 245,132 245,132 245,132 246,132 246,133 246,133 246,133 246,134 246,134 246,134 246,134 246,134 246,134 246,134 246,135 246,135 247,135 247,135 247,135 247,136 247,136 247,136 247,137 247,137 247,137 247,137 247,138 247,138 247,138 248,138 248,139 248,139 248,140 248,140 248,140 248,140 248,140 248,141 248,141 248,142 248,142 248,142 249,142 249,143 249,143 249,143 249,144 249,144 249,144 249,145 249,145 249,146 249,146 249,146 249,146 250,146 250,146 250,147 250,147 250,147 250,147 250,148 250,148 250,149 250,149 250,150 250,150 250,151 251,151 251,151 251,151 251,151 251,152 251,153 251,154 251,155 251,155 251,155 251,155 251,155 251,155 252,155 252,155 252,155 252,156 252,156 252,156 252,156 252,156 252,156 252,156 252,156 252,155 252,155 253,155 253,155 253,155 253,155 253,155 253,155 253,155 253,155 253,155 253,155 253,155 253,155 253,155 254,155 254,155 254,154 254,154 254,154 254,153 254,154 254,154 254,153 254,153 254,153 254,153 254,153 255,153 255,153 255,153 255,154 255,154 255,154 255,153 255,153 255,153 255,153 255,153 255,153 255,153 256,153 256,153 256,153 256,153 256,153 256,153 256,153 256,153 256,154 256,154 256,154 256,154 256,154 257,155 257,155 257,156 257,156 257,157 257,157 257,158 257,158 257,159 257,159 257,160 257,161 257,162 258,164 258,164 258,164 258,164 258,164 258,164 258,164 258,164 258,164 258,163 258,163 258,162 258,161 259,161 259,161 259,161 259,160 259,160 259,160 259,160 259,159 259,159 259,159 259,159 259,159 259,159 260,159 260,159 260,159 260,159 260,158 260,158 260,158 260,158 260,157 260,157 260,157 260,157 260,156 261,156 261,156 261,155 261,155 261,155 261,154 261,154 261,154 261,154 261,154 261,153 261,153 261,153 262,153 262,153 262,153 262,153 262,153 262,153 262,153 262,153 262,153 262,153 262,153 262,152 262,152 263,152 263,152 263,152 263,153 263,152 263,152 263,152 263,152 263,152 263,152 263,152 263,151 263,151 264,151 264,151 264,151 264,151 264,151 264,151 264,151 264,151 264,151 264,151 264,151 264,151 264,151 265,151 265,151 265,150 265,150 265,149 265,149 265,149 265,148 265,148 265,148 265,148 265,147 266,147 266,147 266,147 266,146 266,146 266,146 266,145 266,145 266,145 266,144 266,144 266,144 266,144 267,144 267,143 267,143 267,143 267,143 267,143 267,143 267,143 267,143 267,142 267,141 267,141 267,140 268,140 268,140 268,140 268,140 268,140 268,140 268,140 268,140 268,140 268,140 268,140 268,140 268,140 269,139 269,139 269,139 269,139 269,139 269,139 269,138 269,138 269,138 269,138 269,139 269,139 269,139 270,139 270,139 270,139 270,139 270,139 270,140 270,139 270,139 270,139 270,139 270,139 270,139 270,139 271,139 271,139 271,139 271,139 271,139 271,139 271,138 271,138 271,138 271,138 271,137 271,137 271,137 272,137 272,137 272,137 272,138 272,138 272,138 272,138 272,138 272,138 272,139 272,139 272,139 272,139 273,139 273,139 273,139 273,139 273,139 273,139 273,140 273,140 273,140 273,140 273,141 273,141 273,142 274,142 274,142 274,142 274,143 274,143 274,144 274,144 274,145 274,145 274,146 274,146 274,147 274,147 275,148 275,148 275,149 275,149 275,149 275,150 275,150 275,150 275,150 275,150 275,150 275,150 275,151 276,151 276,151 276,151 276,151 276,152 276,152 276,151 276,151 276,151 276,151 276,151 276,151 276,152 277,151 277,151 277,151 277,151 277,151 277,151 277,152 277,152 277,152 277,153 277,153 277,154 277,154 278,155 278,155 278,155 278,156 278,156 278,156 278,157 278,157 278,157 278,158 278,158 278,158 278,159 279,159 279,159 279,159 279,160 279,160 279,160 279,160 279,161 279,161 279,161 279,162 279,162 279,162 280,163 280,163 280,163 280,164 280,164 280,163 280,163 280,163 280,163 280,162 280,162 280,162 280,162 281,161 281,161 281,160 281,159 281,159 281,159 281,159 281,159 281,160 281,160 281,160 281,160 281,160 282,160 282,160 282,160 282,160 282,161 282,161 282,161 282,161 282,161 282,161 282,161 282,161 282,161 283,161 283,162 283,162 283,162 283,162 283,162 283,162 283,163 283,163 283,163 283,163 283,163 283,163 284,164 284,164 284,165 284,165 284,165 284,166 284,166 284,167 284,167 284,167 284,168 284,168 284,169 285,169 285,169 285,170 285,170 285,170 285,171 285,171 285,171 285,172 285,172 285,172 285,172 285,171 286,172 286,172 286,172 286,172 286,172 286,173 286,173 286,173 286,173 286,173 286,173 286,174 286,174 287,174 287,174 287,175 287,175 287,175 287,175 287,175 287,176 287,176 287,176 287,176 287,176 287,176 288,177 288,177 288,177 288,177 288,178 288,178 288,178 288,178 288,179 288,179 288,180 288,180 288,181 289,182 289,183 289,184 289,185 289,186 289,187 289,189 289,189 289,191 289,192 289,193 289,194 289,195 290,196 290,197 290,198 290,198 290,198 290,198 290,197 290,196 290,195 290,194 290,193 290,192 290,191 291,190 291,189 291,188 291,188 291,187 291,187 291,186 291,185 291,185 291,184 291,185 291,185 291,185 292,185 292,185 292,185 292,185 292,185 292,185 292,185 292,185 292,185 292,185 292,185 292,184 292,184 293,185 293,186 293,187 293,187 293,187 293,187 293,187 293,188 293,188 293,188 293,188 293,188 293,188 294,189 294,189 294,189 294,189 294,190 294,190 294,190 294,190 294,190 294,190 294,190 294,190 294,190 295,190 295,190 295,190 295,190 295,190 295,189 295,189 295,190 295,190 295,190 295,190 295,189 295,189 296,190 296,190 296,190 296,191 296,191 296,191 296,191 296,192 296,192 296,192 296,192 296,192 296,192 297,191 297,190 297,190 297,190 297,190 297,189 297,189 297,188 297,188 297,187 297,186 297,185 297,185 298,185 298,184 298,184 298,184 298,184 298,184 298,184 298,184 298,184 298,183 298,183 298,183 298,183 299,183 299,183 299,183 299,183 299,183 299,183 299,183 299,183 299,183 299,183 299,183 299,184 299,183 300,183 300,183 300,183 300,183 300,183 300,184 300,184 300,184 300,184 300,184 300,185 300,185 300,185 301,184 301,184 301,184 301,184 301,183 301,183 301,183 301,183 301,183 301,182 301,182 301,182 301,182 302,182 302,182 302,182 302,182 302,182 302,182 302,182 302,182 302,182 302,182 302,182 302,183 302,183 303,183 303,183 303,183 303,184 303,185 303,186 303,186 303,187 303,187 303,188 303,189 303,190 303,191 304,192 304,192 304,193 304,193 304,193 304,192 304,191 304,190 304,189 304,189 304,190 304,190 304,190 305,190 305,190 305,190 305,190 305,190 305,190 305,190 305,190 305,190 305,190 305,190 305,190 305,190 306,190 306,190 306,190 306,190 306,190 306,190 306,190 306,190 306,190 306,190 306,191 306,191 306,192 307,193 307,194 307,195 307,196 307,197 307,198 307,199 307,200 307,200 307,201 307,200 307,200 307,199 308,198 308,198 308,197 308,196 308,196 308,196 308,196 308,196 308,196 308,196 308,196 308,196 309,196 309,196 309,196 309,196 309,196 309,196 309,196 309,196 309,197 309,196 309,196 309,195 309,195 310,195 310,194 310,194 310,194 310,193 310,193 310,193 310,193 310,192 310,192 310,192 310,192 310,192 311,192 311,192 311,192 311,192 311,192 311,192 311,191 311,191 311,191 311,190 311,190 311,190 311,190 312,190 312,189 312,189 312,189 312,189 312,189 312,190 312,190 312,190 312,190 312,190 312,191 312,191 313,191 313,191 313,192 313,192 313,192 313,193 313,193 313,194 313,194 313,194 313,194 313,194 313,195 314,195 314,195 314,195 314,195 314,195 314,195 314,196 314,196 314,196 314,196 314,196 314,196 314,196 315,196 315,196 315,196 315,196 315,195 315,195 315,195 315,195 315,195 315,195 315,195 315,195 315,194 316,194 316,194 316,194 316,194 316,194 316,194 316,194 316,194 316,194 316,195 316,195 316,196 316,197 317,198 317,198 317,199 317,199 317,200 317,201 317,201 317,202 317,202 317,203 317,203 317,204 317,205 318,206 318,206 318,207 318,208 318,208 318,208 318,208 318,208 318,208 318,208 318,208 318,208 318,207 319,206 319,205 319,205 319,204 319,202 319,201 319,201 319,201 319,201 319,201 319,201 319,201 319,201 320,201 320,201 320,201 320,201 320,201 320,201 320,201 320,201 320,201 320,201 320,201 320,201 320,201 321,201 321,201 321,201 321,201 321,201 321,201 321,201 321,202 321,202 321,202 321,202 321,203 321,204 322,204 322,205 322,206 322,206 322,207 322,207 322,207 322,208 322,208 322,208 322,209 322,209 322,209 323,210 323,210 323,211 323,211 323,211 323,211 323,212 323,212 323,212 323,212 323,212 323,212 323,212 324,213 324,213 324,213 324,213 324,213 324,213 324,213 324,213 324,213 324,213 324,213 324,213 324,213 325,213 325,213 325,213 325,213 325,213 325,213 325,213 325,213 325,213 325,213 325,213 325,213 325,213 326,213 326,213 326,213 326,213 326,213 326,213 326,213 326,213 326,213 326,213 326,213 326,214 326,214 327,214 327,214 327,214 327,214 327,215 327,214 327,215 327,215 327,215 327,215 327,215 327,215 327,215 328,215 328,215 328,215 328,214 328,214 328,214 328,214 328,214 328,214 328,214 328,214 328,214 328,214 329,214 329,214 329,214 329,214 329,214 329,214 329,214 329,214 329,214 329,214 329,214 329,214 329,214 330,214 330,214 330,214 330,214 330,214 330,213 330,214 330,213 330,213 330,213 330,213 330,213 330,213 331,213 331,213 331,213 331,213 331,213 331,213 331,213 331,213 331,213 331,213 331,213 331,212 331,213 332,213 332,213 332,213 332,213 332,213 332,213 332,213 332,213 332,213 332,213 332,214 332,214 332,214 333,214 333,214 333,214 333,214 333,214 333,214 333,214 333,214 333,214 333,214 333,214 333,214 333,213 334,213 334,213 334,213 334,213 334,213 334,213 334,213 334,213 334,213 334,213 334,212 334,212 334,212 335,212 335,212 335,212 335,212 335,211 335,211 335,211 335,211 335,211 335,210 335,210 335,210 335,210 336,210 336,210 336,209 336,209 336,209 336,209 336,209 336,209 336,209 336,209 336,209 336,209 336,208 337,208 337,208 337,208 337,208 337,208 337,207 337,207 337,207 337,207 337,207 337,207 337,207 337,206 338,206 338,206 338,206 338,206 338,206 338,206 338,205 338,205 338,205 338,205 338,205 338,205 338,205 339,205 339,205 339,205 339,205 339,205 339,205 339,205 339,205 339,205 339,205 339,205 339,205 339,205 340,205 340,205 340,205 340,205 340,205 340,205 340,205 340,205 340,205 340,205 340,205 340,204 340,204 341,204 341,204 341,204 341,204 341,204 341,204 341,204 341,204 341,204 341,204 341,204 341,204 341,204 342,204 342,204 342,204 342,204 342,204 342,204 342,204 342,204 342,203 342,203 342,203 342,202 342,202 343,202 343,202 343,202 343,202 343,203 343,203 343,203 343,203 343,203 343,203 343,203 343,203 343,203 344,202 344,202 344,203 344,203 344,203 344,203 344,203 344,203 344,203 344,203 344,203 344,203 344,203 345,203 345,203 345,203 345,204 345,204 345,204 345,204 345,204 345,204 345,204 345,204 345,205 345,205 346,205 346,205 346,205 346,205 346,205 346,205 346,205 346,205 346,205 346,205 346,205 346,206 346,206 347,206 347,206 347,206 347,206 347,207 347,207 347,207 347,207 347,207 347,207 347,208 347,208 347,208 348,208 348,208 348,208 348,208 348,208 348,208 348,207 348,207 348,207 348,206 348,206 348,206 348,206 349,206 349,205 349,205 349,205 349,204 349,204 349,204 349,203 349,203 349,203 349,202 349,202 349,202 350,202 350,202 350,202 350,202 350,202 350,202 350,202 350,202 350,201 350,201 350,201 350,200 350,200 351,200 351,199 351,199 351,199 351,198 351,198 351,198 351,198 351,197 351,197 351,197 351,196 351,196 352,196 352,196 352,195 352,195 352,195 352,195 352,195 352,195 352,195 352,195 352,195 352,195 353,195 353,195 353,195 353,196 353,196 353,196 353,196 353,197 353,197 353,197 353,198 353,198 353,198 354,199 354,199 354,199 354,199 354,200 354,199 354,199 354,199 354,199 354,199 354,198 354,198 354,198 355,197 355,197 355,197 355,196 355,196 355,196 355,195 355,195 355,194 355,194 355,194 355,194 355,193 356,193 356,193 356,192 356,192 356,192 356,192 356,191 356,191 356,190 356,190 356,190 356,190 356,189 357,189 357,188 357,188 357,188 357,187 357,187 357,187 357,186 357,186 357,186 357,185 357,185 357,185 358,184 358,184 358,183 358,183 358,182 358,182 358,181 358,181 358,180 358,180 358,179 358,179 358,178 359,178 359,177 359,177 359,177 359,177 359,177 359,177 359,177 359,177 359,178 359,178 359,178 359,179 360,179 360,179 360,179 360,179 360,180 360,180 360,181 360,181 360,182 360,182 360,182 360,183 360,183 361,184 361,184 361,185 361,185 361,186 361,186 361,187 361,187 361,188 361,188 361,189 361,189 361,190 362,191 362,191 362,191 362,192 362,192 362,193 362,193 362,193 362,194 362,194 362,194 362,195 362,195 363,195 363,195 363,195 363,195 363,195 363,195 363,195 363,195 363,195 363,195 363,195 363,195 363,195 364,195 364,195 364,195 364,195 364,195 364,194 364,194 364,194 364,194 364,194 364,194 364,194 364,194 365,194 365,194 365,194 365,195 365,195 365,195 365,195 365,195 365,195 365,195 365,195 365,195 365,195 366,195 366,195 366,195 366,195 366,195 366,194 366,194 366,194 366,194 366,194 366,194 366,193 366,193 367,193 367,193 367,192 367,192 367,192 367,192 367,191 367,191 367,191 367,191 367,191 367,191 367,190 368,190 368,190 368,190 368,190 368,190 368,190 368,190 368,190 368,190 368,190 368,189 368,189 368,189 369,189 369,189 369,189 369,189 369,189 369,189 369,188 369,188 369,188 369,188 369,188 369,188 369,188 370,188 370,188 370,188 370,188 370,188 370,188 370,188 370,189 370,189 370,189 370,189 370,189 370,189 371,189 371,189 371,189 371,189 371,189 371,189 371,188 371,188 371,188 371,187 371,187 371,186 371,186 372,185 372,185 372,185 372,184 372,184 372,184 372,184 372,184 372,184 372,184 372,184 372,184 372,183 373,183 373,183 373,183 373,183 373,182 373,182 373,182 373,181 373,181 373,181 373,181 373,181 373,182 374,182 374,182 374,182 374,182 374,181 374,181 374,181 374,181 374,181 374,181 374,181 374,181 374,181 375,181 375,181 375,181 375,181 375,180 375,180 375,180 375,180 375,180 375,180 375,179 375,179 375,179 376,179 376,179 376,179 376,178 376,178 376,178 376,177 376,177 376,177 376,177 376,177 376,176 376,175 377,174 377,174 377,174 377,174 377,174 377,174 377,174 377,174 377,174 377,174 377,174 377,174 377,174 378,174 378,174 378,174 378,174 378,174 378,174 378,174 378,174 378,174 378,174 378,175 378,175 378,175 379,175 379,175 379,174 379,174 379,174 379,173 379,173 379,173 379,172 379,172 379,171 379,171 379,170 380,169 380,169 380,168 380,168 380,167 380,167 380,166 380,165 380,165 380,164 380,163 380,163 380,162 381,162 381,162 381,162 381,162 381,162 381,162 381,162 381,162 381,162 381,161 381,161 381,161 381,161 382,161 382,162 382,162 382,163 382,163 382,164 382,164 382,165 382,165 382,166 382,166 382,167 382,167 383,168 383,169 383,169 383,169 383,169 383,169 383,169 383,169 383,169 383,168 383,168 383,168 383,168 384,168 384,168 384,168 384,168 384,168 384,169 384,169 384,170 384,170 384,171 384,171 384,172 384,173 385,173 385,173 385,174 385,174 385,174 385,174 385,174 385,174 385,174 385,173 385,173 385,172 385,172 386,171 386,171 386,171 386,170 386,170 386,169 386,169 386,169 386,168 386,168 386,168 386,168 386,168 387,167 387,167 387,167 387,166 387,166 387,165 387,165 387,164 387,164 387,164 387,163 387,163 387,163 388,163 388,162 388,162 388,162 388,162 388,161 388,161 388,161 388,160 388,160 388,160 388,160 388,159 389,159 389,158 389,158 389,158 389,157 389,157 389,156 389,156 389,155 389,155 389,155 389,155 389,154 390,154 390,154 390,154 390,154 390,155 390,155 390,155 390,155 390,155 390,155 390,156 390,156 390,156 391,156 391,156 391,156 391,156 391,156 391,156 391,156 391,156 391,156 391,156 391,156 391,156 391,156 392,156 392,156 392,156 392,156 392,156 392,156 392,156 392,156 392,156 392,156 392,156 392,156 392,156 393,156 393,156 393,156 393,156 393,156 393,156 393,156 393,156 393,156 393,156 393,155 393,155 393,155 394,155 394,155 394,155 394,154 394,154 394,154 394,154 394,154 394,154 394,154 394,154 394,154 394,154 395,154 395,154 395,153 395,153 395,153 395,153 395,153 395,154 395,154 395,154 395,154 395,154 396,154 396,154 396,154 396,153 396,153 396,153 396,153 396,153 396,152 396,152 396,152 396,152 396,151 397,151 397,151 397,151 397,151 397,151 397,152 397,151 397,151 397,151 397,150 397,150 397,150 397,150 398,150 398,150 398,150 398,150 398,150 398,150 398,149 398,148 398,148 398,147 398,147 398,146 398,146 399,146 399,145 399,145 399,145 399,145 399,145 399,144 399,144 399,144 399,143 399,143 399,142 399,142 400,142 400,141 400,141 400,141 400,140 400,140 400,140 400,140 400,139 400,139 400,139 400,139 400,139 401,139 401,139 401,139 401,140 401,140 401,140 401,140 401,141 401,141 401,141 401,142 401,142 401,142 402,142 402,142 402,142 402,142 402,142 402,142 402,142 402,142 402,142 402,142 402,142 402,142 402,142 403,142 403,142 403,142 403,142 403,142 403,142 403,143 403,143 403,143 403,143 403,143 403,143 403,143 404,144 404,145 404,145 404,146 404,146 404,147 404,148 404,148 404,149 404,150 404,150 404,151 404,151 405,152 405,152 405,153 405,153 405,154 405,154 405,154 405,155 405,155 405,156 405,156 405,156 405,156 406,157 406,157 406,157 406,158 406,158 406,158 406,158 406,158 406,158 406,158 406,159 406,159 406,159 407,159 407,159 407,159 407,159 407,159 407,159 407,160 407,160 407,160 407,160 407,160 407,160 407,161 408,161 408,161 408,161 408,162 408,162 408,162 408,162 408,163 408,163 408,163 408,164 408,164 408,164 409,165 409,165 409,165 409,165 409,166 409,166 409,166 409,167 409,167 409,167 409,167 409,168 409,168 410,169 410,169 410,169 410,170 410,170 410,170 410,171 410,171 410,171 410,171 410,171 410,171 410,171 411,171 411,171 411,171 411,170 411,170 411,170 411,170 411,170 411,169 411,169 411,169 411,169 411,168 412,168 412,168 412,168 412,168 412,167 412,167 412,167 412,167 412,167 412,167 412,167 412,167 412,167 413,167 413,167 413,167 413,167 413,167 413,167 413,167 413,167 413,167 413,167 413,167 413,167 413,167 414,167 414,167 414,167 414,167 414,167 414,167 414,167 414,166 414,166 414,166 414,166 414,166 414,167 415,167 415,167 415,167 415,167 415,167 415,167 415,167 415,167 415,167 415,167 415,167 415,167 415,167 416,167 416,167 416,167 416,167 416,167 416,167 416,167 416,167 416,167 416,167 416,167 416,167 416,167 417,167 417,167 417,167 417,167 417,167 417,167 417,167 417,167 417,167 417,167 417,167 417,167 417,167 418,168 418,168 418,168 418,168 418,168 418,168 418,168 418,168 418,168 418,169 418,169 418,169 418,169 419,169 419,169 419,169 419,169 419,169 419,169 419,169 419,169 419,169 419,169 419,169 419,169 419,169 420,168 420,168 420,168 420,167 420,168 420,168 420,168 420,168 420,168 420,167 420,167 420,167 420,167 421,167 421,166 421,166 421,166 421,166 421,166 421,166 421,166 421,165 421,165 421,165 421,165 421,165 422,164 422,164 422,164 422,164 422,164 422,164 422,164 422,164 422,164 422,164 422,164 422,164 422,163 423,163 423,163 423,163 423,163 423,163 423,162 423,162 423,162 423,162 423,161 423,161 423,161 423,161 424,160 424,160 424,160 424,159 424,159 424,159 424,158 424,158 424,158 424,157 424,157 424,156 424,155 425,155 425,154 425,154 425,153 425,153 425,153 425,152 425,152 425,151 425,151 425,151 425,150 425,150 426,150 426,150 426,150 426,149 426,149 426,149 426,149 426,149 426,149 426,149 426,149 426,149 426,148 427,149 427,149 427,150 427,150 427,150 427,150 427,150 427,150 427,150 427,150 427,150 427,150 427,150 428,149 428,149 428,149 428,149 428,149 428,148 428,148 428,148 428,148 428,148 428,147 428,147 428,147 429,147 429,147 429,147 429,147 429,147 429,147 429,147 429,147 429,147 429,147 429,147 429,148 429,148 430,148 430,148 430,148 430,149 430,149 430,149 430,149 430,150 430,150 430,150 430,150 430,151 430,151 431,151 431,151 431,151 431,152 431,152 431,152 431,152 431,152 431,153 431,153 431,153 431,153 431,153 432,154 432,154 432,154 432,154 432,154 432,154 432,154 432,154 432,154 432,154 432,154 432,154 432,154 433,154 433,154 433,154 433,154 433,154 433,154 433,154 433,154 433,154 433,154 433,153 433,153 433,153 434,153 434,153 434,153 434,153 434,153 434,153 434,153 434,152 434,152 434,152 434,152 434,152 434,152 435,152 435,152 435,152 435,152 435,152 435,152 435,153 435,153 435,153 435,153 435,154 435,154 435,154 436,155 436,155 436,155 436,156 436,156 436,156 436,157 436,156 436,156 436,155 436,155 436,154 436,153 437,151 437,150 437,149 437,149 437,149 437,149 437,149 437,149 437,149 437,149 437,149 437,149 437,149 438,149 438,149 438,149 438,149 438,149 438,149 438,149 438,149 438,149 438,149 438,149 438,149 439,149 439,150 439,150 439,150 439,150 439,151 439,151 439,151 439,151 439,152 439,152 439,152 439,152 440,152 440,152 440,152 440,152 440,152 440,152 440,153 440,153 440,153 440,153 440,153 440,153 440,153 441,153 441,153 441,153 441,153 441,153 441,153 441,153 441,153 441,153 441,153 441,153 441,153 441,153 442,153 442,153 442,153 442,153 442,153 442,153 442,153 442,153 442,153 442,154 442,154 442,154 442,154 443,154 443,154 443,155 443,155 443,155 443,156 443,156 443,156 443,156 443,157 443,157 443,157 443,157 444,157 444,157 444,157 444,157 444,158 444,158 444,158 444,158 444,158 444,159 444,159 444,159 444,160 445,160 445,160 445,160 445,160 445,160 445,161 445,161 445,161 445,161 445,161 445,161 445,162 445,162 446,162 446,162 446,162 446,162 446,163 446,163 446,163 446,163 446,163 446,163 446,163 446,163 446,164 447,164 447,164 447,164 447,164 447,164 447,164 447,164 447,164 447,164 447,164 447,163 447,163 447,163 448,163 448,163 448,163 448,163 448,163 448,164 448,164 448,164 448,164 448,164 448,164 448,164 448,164 449,163 449,163 449,163 449,163 449,163 449,162 449,162 449,162 449,162 449,161 449,161 449,161 449,161 450,162 450,162 450,162 450,162 450,162 450,162 450,162 450,162 450,162 450,162 450,162 450,162 450,162 451,162 451,161 451,161 451,161 451,161 451,161 451,160 451,160 451,160 451,160 451,159 451,159 451,159 452,158 452,157 452,156 452,155 452,155 452,155 452,155 452,155 452,154 452,154 452,154 452,154 452,153 453,153 453,153 453,152 453,152 453,152 453,151 453,151 453,151 453,150 453,150 453,150 453,149 453,149 454,149 454,149 454,149 454,149 454,149 454,149 454,149 454,149 454,150 454,150 454,150 454,151 454,151 455,151 455,151 455,151 455,152 455,152 455,152 455,152 455,152 455,152 455,152 455,152 455,153 455,153 456,153 456,153 456,153 456,153 456,153 456,153 456,154 456,154 456,154 456,154 456,154 456,155 456,155 457,155 457,155 457,155 457,155 457,155 457,156 457,156 457,156 457,156 457,156 457,156 457,156 457,156 458,156 458,156 458,157 458,157 458,157 458,157 458,158 458,158 458,158 458,158 458,158 458,158 458,158 459,159 459,159 459,159 459,159 459,159 459,159 459,159 459,160 459,160 459,160 459,160 459,160 459,160 460,160 460,161 460,161 460,161 460,161 460,161 460,161 460,162 460,162 460,162 460,162 460,162 460,163 461,163 461,163 461,163 461,163 461,163 461,163 461,164 461,164 461,164 461,164 461,164 461,164 461,164 462,164 462,164 462,164 462,164 462,164 462,164 462,164 462,164 462,164 462,164 462,164 462,164 462,164 463,163 463,163 463,163 463,163 463,163 463,162 463,162 463,162 463,162 463,161 463,161 463,161 463,161 464,160 464,160 464,160 464,160 464,159 464,159 464,158 464,157 464,157 464,157 464,156 464,156 464,156 465,155 465,155 465,155 465,155 465,154 465,154 465,154 465,153 465,153 465,152 465,152 465,152 465,152 466,152 466,151 466,151 466,151 466,151 466,151 466,151 466,151 466,151 466,151 466,151 466,151 466,151 467,151 467,151 467,152 467,152 467,153 467,153 467,153 467,153 467,152 467,153 467,153 467,153 467,153 468,154 468,154 468,154 468,154 468,154 468,154 468,154 468,154 468,155 468,155 468,155 468,155 468,155 469,155 469,155 469,155 469,155 469,155 469,155 469,155 469,155 469,154 469,154 469,154 469,154 469,154 470,154 470,154 470,154 470,154 470,154 470,154 470,154 470,154 470,154 470,154 470,154 470,154 470,154 471,154 471,155 471,155 471,155 471,155 471,155 471,155 471,155 471,155 471,155 471,155 471,155 471,156 472,156 472,156 472,156 472,156 472,156 472,156 472,156 472,156 472,155 472,155 472,155 472,155 472,155 473,155 473,155 473,155 473,155 473,155 473,155 473,155 473,155 473,155 473,154 473,154 473,154 473,155 474,155 474,155 474,155 474,155 474,156 474,156 474,156 474,156 474,157 474,157 474,158 474,158 474,158 475,159 475,159 475,159 475,160 475,160 475,160 475,161 475,161 475,161 475,161 475,162 475,162 475,162 476,162 476,162 476,163 476,163 476,163 476,163 476,163 476,163 476,163 476,163 476,163 476,164 476,164 477,163 477,163 477,163 477,163 477,163 477,162 477,162 477,162 477,162 477,163 477,163 477,163 477,163 478,164 478,164 478,164 478,164 478,164 478,164 478,164 478,165 478,165 478,165 478,165 478,165 478,165 479,165 479,165 479,165 479,165 479,165 479,165 479,165 479,165 479,165 479,165 479,165 479,165 479,164 480,164 480,164 480,164 480,164 480,164 480,165 480,165 480,165 480,166 480,166 480,166 480,166 480,167 481,167 481,168 481,168 481,169 481,169 481,169 481,170 481,170 481,170 481,170 481,171 481,171 482,171 482,171 482,171 482,172 482,172 482,172 482,172 482,172 482,172 482,172 482,172 482,173 482,173 483,173 483,173 483,173 483,173 483,173 483,173 483,173 483,173 483,173 483,174 483,174 483,174 483,174 484,174 484,174 484,174 484,174 484,174 484,174 484,174 484,174 484,174 484,174 484,174 484,174 484,174 485,174 485,174 485,174 485,174 485,174 485,173 485,173 485,173 485,173 485,173 485,173 485,173 485,173 486,173 486,173 486,173 486,173 486,173 486,173 486,172 486,172 486,172 486,172 486,172 486,171 486,171 487,171 487,171 487,171 487,170 487,170 487,170 487,170 487,170 487,170 487,169 487,169 487,169 487,169 488,169 488,169 488,169 488,170 488,170 488,170 488,170 488,170 488,171 488,171 488,171 488,170 488,170 489,170 489,170 489,169 489,169 489,169 489,168 489,168 489,168 489,167 489,167 489,167 489,166 489,166 490,166 490,165 490,165 490,165 490,164 490,164 490,164 490,163 490,163 490,163 490,163 490,162 490,162 491,162 491,162 491,162 491,161 491,161 491,161 491,161 491,161 491,161 491,160 491,160 491,161 491,161 492,161 492,161 492,162 492,162 492,163 492,163 492,164 492,164 492,165 492,166 492,166 492,166 492,166 493,166 493,166 493,165 493,165 493,164 493,164 493,163 493,163 493,162 493,162 493,161 493,161 493,161 494,160 494,160 494,159 494,159 494,159 494,159 494,159 494,159 494,158 494,158 494,158 494,158 494,158 495,158 495,158 495,158 495,158 495,158 495,158 495,157 495,157 495,157 495,157 495,157 495,158 495,158 496,159 496,159 496,160 496,161 496,161 496,162 496,163 496,163 496,164 496,164 496,164 496,164 496,164 497,164 497,164 497,164 497,164 497,164 497,164 497,163 497,163 497,163 497,163 497,163 497,163 497,163 498,163 498,162 498,162 498,162 498,162 498,162 498,162 498,162 498,161 498,161 498,161 498,161 498,160 499,160 499,160 499,159 499,159 499,159 499,158 499,157 499,157 499,156 499,156 499,155 499,155 499,154 500,154 500,154 500,153 500,153 500,152 500,152 500,151 500,151 500,150 500,150 500,149 500,148 500,147 501,147 501,146 501,146 501,145 501,145 501,144 501,144 501,143 501,143 501,142 501,142 501,142 501,142 502,142 502,141 502,141 502,141 502,141 502,141 502,140 502,140 502,140 502,140 502,140 502,140 502,140 503,141 503,141 503,141 503,141 503,141 503,141 503,141 503,142 503,142 503,143 503,143 503,143 503,142 504,142 504,142 504,142 504,142 504,141 504,141 504,141 504,141 504,140 504,140 504,140 504,140 504,140 505,140 505,140 505,140 505,139 505,139 505,140 505,139 505,139 505,139 505,140 505,140 505,140 505,140 506,140 506,140 506,141 506,141 506,141 506,141 506,141 506,141 506,141 506,141 506,141 506,141 506,142 507,142 507,142 507,142 507,142 507,142 507,142 507,143 507,143 507,143 507,143 507,143 507,143 507,142 508,142 508,142 508,141 508,141 508,141 508,140 508,140 508,140 508,140 508,139 508,139 508,139 508,139 509,139 509,139 509,139 509,139 509,139 509,139 509,138 509,138 509,138 509,138 509,137 509,137 509,137 510,136 510,136 510,135 510,135 510,135 510,134 510,134 510,133 510,133 510,133 510,133 510,133 510,133 511,134 511,134 511,134 511,135 511,135 511,136 511,136 511,136 511,137 511,137 511,138 511,138 511,139 512,139 512,139 512,140 512,140 512,141 512,141 512,141 512,141 512,142 512,142 512,143 512,143 512,143 513,143 513,144 513,144 513,144 513,144 513,145 513,145 513,145 513,145 513,146 513,146 513,146 513,146 514,147 514,147 514,147 514,147 514,148 514,148 514,148 514,148 514,148 514,149 514,149 514,149 514,149 515,149 515,149 515,150 515,150 515,150 515,150 515,150 515,150 515,151 515,151 515,151 515,151 515,151 516,151 516,151 516,151 516,151 516,152 516,152 516,152 516,152 516,152 516,152 516,152 516,152 516,152 517,152 517,152 517,152 517,152 517,152 517,152 517,152 517,152 517,152 517,152 517,152 517,152 517,152 518,152 518,152 518,153 518,153 518,153 518,154 518,154 518,155 518,155 518,155 518,155 518,155 518,155 519,155 519,155 519,155 519,155 519,155 519,155 519,155 519,154 519,154 519,155 519,155 519,155 519,155 520,155 520,155 520,155 520,156 520,156 520,156 520,156 520,156 520,156 520,156 520,156 520,157 520,157 521,157 521,158 521,158 521,158 521,159 521,159 521,159 521,159 521,159 521,160 521,160 521,160 521,161 522,161 522,162 522,162 522,162 522,162 522,162 522,163 522,163 522,163 522,163 522,164 522,164 522,164 523,164 523,164 523,164 523,165 523,165 523,165 523,166 523,166 523,166 523,167 523,167 523,168 523,168 524,168 524,169 524,169 524,169 524,170 524,170 524,171 524,171 524,171 524,171 524,172 524,172 524,172 525,172 525,173 525,173 525,173 525,173 525,174 525,174 525,174 525,175 525,175 525,176 525,176 526,176 526,176 526,176 526,176 526,177 526,177 526,178 526,178 526,178 526,178 526,178 526,179 526,179 527,179 527,180 527,180 527,180 527,180 527,180 527,180 527,181 527,181 527,181 527,181 527,181 527,182 528,182 528,182 528,182 528,182 528,182 528,182 528,183 528,183 528,183 528,184 528,184 528,184 528,184 529,184 529,185 529,185 529,185 529,185 529,185 529,185 529,186 529,186 529,186 529,186 529,186 529,186 530,187 530,187 530,187 530,187 530,187 530,188 530,188 530,188 530,188 530,188 530,188 530,188 530,189 531,189 531,189 531,189 531,190 531,190 531,190 531,190 531,191 531,191 531,191 531,192 531,192 531,192 532,193 532,193 532,194 532,194 532,195 532,195 532,196 532,196 532,196 532,196 532,197 532,197 532,197 533,197 533,197 533,197 533,198 533,198 533,198 533,199 533,199 533,199 533,200 533,200 533,200 533,200 534,200 534,201 534,201 534,201 534,201 534,202 534,202 534,202 534,202 534,202 534,202 534,202 534,203 535,203 535,203 535,203 535,203 535,203 535,204 535,204 535,204 535,204 535,204 535,203 535,204 535,204 536,205 536,205 536,205 536,205 536,205 536,205 536,206 536,206 536,206 536,206 536,206 536,207 536,207 537,208 537,208 537,207 537,207 537,207 537,207 537,207 537,207 537,207 537,207 537,207 537,207 537,207 538,207 538,208 538,208 538,209 538,209 538,209 538,209 538,210 538,210 538,211 538,211 538,211 538,211 539,211 539,211 539,212 539,212 539,212 539,211 539,211 539,211 539,211 539,211 539,211 539,211 539,211 540,211 540,211 540,210 540,210 540,210 540,210 540,210 540,210 540,211 540,211 540,211 540,211 540,212 541,212 541,213 541,213 541,213 541,214 541,214 541,214 541,214 541,215 541,215 541,215 541,215 541,216 542,216 542,216 542,216 542,216 542,217 542,217 542,217 542,217 542,217 542,217 542,217 542,217 542,216 543,216 543,215 543,214 543,214 543,213 543,213 543,212 543,212 543,212 543,211 543,211 543,210 543,210 544,209 544,209 544,209 544,208 544,208 544,207 544,207 544,207 544,206 544,206 544,206 544,206 544,206 545,206 545,205 545,205 545,205 545,205 545,205 545,205 545,204 545,204 545,204 545,204 545,204 545,204 546,203 546,203 546,202 546,201 546,201 546,201 546,200 546,200 546,199 546,199 546,198 546,198 546,197 547,196 547,196 547,195 547,194 547,194 547,193 547,193 547,192 547,192 547,191 547,191 547,191 547,190 548,190 548,189 548,189 548,189 548,188 548,188 548,187 548,187 548,187 548,186 548,186 548,186 548,186 549,186 549,185 549,185 549,185 549,185 549,185 549,185 549,185 549,185 549,185 549,185 549,186 549,186 550,186 550,186 550,187 550,187 550,187 550,188 550,188 550,189 550,189 550,189 550,189 550,190 550,190 551,190 551,191 551,191 551,191 551,192 551,192 551,192 551,193 551,193 551,194 551,194 551,194 551,193 552,193 552,193 552,193 552,193 552,193 552,193 552,193 552,193 552,193 552,193 552,193 552,193 552,194 553,194 553,194 553,194 553,194 553,194 553,194 553,194 553,194 553,194 553,194 553,194 553,193 553,194 554,194 554,193 554,193 554,193 554,193 554,192 554,192 554,191 554,191 554,191 554,190 554,190 554,190 555,190 555,189 555,189 555,189 555,188 555,188 555,188 555,188 555,187 555,187 555,187 555,187 555,186 556,186 556,186 556,186 556,185 556,185 556,185 556,185 556,185 556,185 556,184 556,184 556,184 556,184 557,184 557,184 557,183 557,183 557,183 557,183 557,183 557,183 557,183 557,183 557,183 557,182 557,182 558,182 558,182 558,182 558,181 558,181 558,181 558,180 558,180 558,179 558,179 558,178 558,178 558,178 559,177 559,177 559,177 559,176 559,176 559,176 559,176 559,176 559,176 559,176 559,176 559,175 559,175 560,175 560,175 560,175 560,175 560,175 560,175 560,175 560,175 560,175 560,174 560,175 560,175 560,175 561,176 561,176 561,176 561,177 561,177 561,178 561,178 561,179 561,179 561,180 561,180 561,180 561,180 562,181 562,182 562,183 562,184 562,185 562,185 562,186 562,186 562,187 562,188 562,188 562,189 562,190 563,191 563,192 563,193 563,194 563,194 563,195 563,196 563,197 563,197 563,198 563,199 563,200 563,200 564,201 564,202 564,202 564,203 564,203 564,204 564,204 564,205 564,206 564,206 564,206 564,206 564,205 565,205 565,205 565,204 565,204 565,204 565,203 565,203 565,202 565,202 565,202 565,202 565,201 565,201 566,201 566,200 566,200 566,200 566,200 566,200 566,199 566,199 566,199 566,198 566,198 566,198 566,198 567,198 567,198 567,198 567,197 567,197 567,197 567,196 567,196 567,195 567,195 567,195 567,194 567,193 568,192 568,191 568,191 568,190 568,189 568,189 568,188 568,187 568,187 568,186 568,185 568,185 569,184 569,184 569,184 569,184 569,183 569,183 569,182 569,182 569,182 569,182 569,181 569,181 569,181 570,182 570,182 570,182 570,182 570,182 570,182 570,182 570,183 570,183 570,183 570,183 570,184 570,184 571,184 571,185 571,185 571,185 571,186 571,186 571,186 571,187 571,187 571,188 571,188 571,188 571,189 572,189 572,189 572,190 572,190 572,190 572,191 572,191 572,192 572,193 572,193 572,193 572,194 572,195 573,195 573,196 573,197 573,197 573,198 573,198 573,199 573,199 573,200 573,201 573,201 573,202 573,202 574,203 574,203 574,204 574,205 574,205 574,206 574,206 574,207 574,207 574,208 574,209 574,209 574,210 575,210 575,211 575,211 575,212 575,212 575,212 575,212 575,213 575,213 575,213 575,214 575,214 575,214 576,215 576,215 576,216 576,216 576,217 576,217 576,218 576,218 576,218 576,218 576,218 576,218 576,218 577,218 577,218 577,217 577,217 577,217 577,216 577,215 577,215 577,214 577,213 577,213 577,212 577,211 578,211 578,210 578,209 578,208 578,208 578,208 578,208 578,208 578,208 578,208 578,208 578,208 578,208 579,208 579,208 579,208 579,207 579,207 579,207 579,207 579,207 579,206 579,206 579,206 579,205 579,205 580,205 580,205 580,205 580,205 580,205 580,206 580,206 580,206 580,206 580,206 580,207 580,207 580,207 581,207 581,207 581,207 581,207 581,207 581,207 581,207 581,207 581,207 581,207 581,208 581,208 581,208 582,208 582,208 582,208 582,208 582,208 582,209 582,209 582,209 582,209 582,210 582,210 582,210 582,211 583,211 583,212 583,212 583,213 583,213 583,215 583,215 583,216 583,217 583,217 583,218 583,219 583,220 584,221 584,221 584,222 584,222 584,222 584,222 584,223 584,222 584,222 584,223 584,223 584,223 584,223 585,223 585,223 585,223 585,223 585,223 585,223 585,223 585,223 585,222 585,222 585,222 585,223 585,223 586,223 586,223 586,224 586,224 586,224 586,224 586,224 586,224 586,224 586,223 586,222 586,222 586,220 587,220 587,219 587,218 587,217 587,217 587,216 587,216 587,215 587,215 587,215 587,215 587,214 587,214 588,214 588,214 588,214 588,214 588,214 588,214 588,214 588,214 588,214 588,214 588,215 588,215 588,216 589,216 589,217 589,217 589,218 589,219 589,219 589,220 589,221 589,222 589,222 589,223 589,223 589,224 590,223 590,223 590,222 590,221 590,220 590,219 590,218 590,217 590,216 590,216 590,215 590,215 590,214 591,214 591,213 591,213 591,213 591,212 591,212 591,212 591,212 591,212 591,211 591,211 591,211 591,211 592,211 592,211 592,211 592,211 592,211 592,211 592,212 592,212 592,212 592,212 592,213 592,213 592,213 593,214 593,214 593,214 593,215 593,215 593,216 593,216 593,216 593,217 593,217 593,218 593,218 593,219 594,220 594,220 594,221 594,222 594,222 594,223 594,223 594,224 594,225 594,225 594,226 594,226 594,227 595,228 595,228 595,229 595,229 595,230 595,230 595,230 595,231 595,231 595,231 595,231 595,232 595,232 596,232 596,232 596,232 596,232 596,232 596,232 596,232 596,231 596,230 596,230 596,229 596,228 596,227 597,227 597,226 597,225 597,224 597,223 597,222 597,222 597,221 597,220 597,219 597,219 597,218 597,217 598,216 598,216 598,215 598,215 598,214 598,214 598,214 598,214 598,214 598,214 598,214 598,214 598,214 599,214 599,215 599,215 599,215 599,216 599,216 599,217 599,218 599,218 599,219 599,219 599,220 599,220 600,221 600,221 600,221 600,222 600,222 600,223 600,223 600,223 600,223 600,223 600,223 600,224 600,224 601,224 601,224 601,224 601,225 601,225 601,226 601,226 601,226 601,227 601,227 601,227 601,228 601,228 602,228 602,228 602,229 602,229 602,229 602,229 602,229 602,230 602,230 602,230 602,231 602,231 602,231 603,232 603,232 603,233 603,233 603,234 603,234 603,235 603,235 603,236 603,236 603,237 603,237 603,237 604,238 604,238 604,239 604,239 604,239 604,240 604,240 604,241 604,242 604,242 604,242 604,243 604,243 605,243 605,243 605,244 605,244 605,245 605,245 605,245 605,245 605,246 605,246 605,246 605,246 605,247 606,246 606,246 606,246 606,246 606,246 606,246 606,246 606,246 606,246 606,246 606,246 606,246 606,246 607,246 607,245 607,245 607,245 607,244 607,244 607,243 607,243 607,243 607,242 607,242 607,242 607,241 608,241 608,241 608,240 608,240 608,240 608,240 608,239 608,239 608,239 608,239 608,239 608,239 608,240 609,240 609,240 609,240 609,240 609,240 609,241 609,241 609,242 609,242 609,242 609,243 609,243 609,243 610,243 610,243 610,243 610,244 610,244 610,244 610,245 610,245 610,245 610,245 610,246 610,246 610,246 611,246 611,247 611,247 611,247 611,247 611,247 611,247 611,247 611,246 611,246 611,246 611,246 612,245 612,245 612,245 612,244 612,244 612,243 612,243 612,242 612,241 612,241 612,240 612,240 612,240 613,239 613,239 613,238 613,238 613,238 613,238 613,237 613,237 613,237 613,237 613,237 613,237 613,237 614,236 614,236 614,236 614,236 614,236 614,236 614,236 614,236 614,236 614,236 614,236 614,236 614,236 615,236 615,236 615,236 615,236 615,236 615,237 615,237 615,237 615,237 615,238 615,238 615,238 615,239 616,239 616,239 616,240 616,240 616,240 616,241 616,241 616,241 616,242 616,242 616,243 616,243 616,243 617,244 617,244 617,244 617,244 617,245 617,245 617,245 617,246 617,246 617,246 617,246 617,246 617,247 618,247 618,247 618,247 618,248 618,248 618,248 618,248 618,248 618,249 618,249 618,249 618,249 618,250 619,250 619,250 619,250 619,250 619,251 619,251 619,251 619,251 619,251 619,252 619,252 619,252 619,252 620,252 620,253 620,253 620,253 620,253 620,253 620,254 620,254 620,254 620,254 620,255 620,255 620,255 621,255 621,255 621,255 621,255 621,255 621,255 621,255 621,255 621,255 621,255 621,255 621,255 621,255 622,255 622,255 622,255 622,255 622,254 622,254 622,254 622,254 622,254 622,254 622,254 622,254 622,254 623,254 623,254 623,255 623,255 623,255 623,255 623,255 623,255 623,256 623,256 623,256 623,256 623,256 624,256 624,257 624,257 624,257 624,258 624,258 624,258 624,259 624,259 624,259 624,260 624,260 624,260 625,260 625,261 625,261 625,261 625,261 625,261 625,261 625,262 625,262 625,262 625,262 625,262 625,262 626,262 626,262 626,262 626,262 626,262 626,262 626,262 626,262 626,262 626,262 626,262 626,262 626,262 627,262 627,262 627,262 627,262 627,262 627,261 627,261 627,261 627,261 627,261 627,260 627,260 627,260 628,260 628,260 628,260 628,260 628,260 628,260 628,260 628,260 628,260 628,260 628,260 628,260 628,261 629,261 629,261 629,261 629,261 629,261 629,262 629,262 629,262 629,262 629,262 629,263 629,263 629,263 630,263 630,263 630,263 630,264 630,264 630,264 630,264 630,264 630,264 630,264 630,264 630,264 630,264 631,265 631,265 631,265 631,265 631,265 631,265 631,265 631,265 631,265 631,265 631,265 631,265 631,265 632,266 632,266 632,266 632,266 632,266 632,266 632,266 632,266 632,266 632,266 632,266 632,266 632,266 633,267 633,267 633,267 633,267 633,267 633,266 633,266 633,266 633,266 633,266 633,266 633,266 633,266 634,266 634,267 634,267 634,267 634,267 634,267 634,267 634,267 634,268 634,268 634,268 634,268 634,268 635,268 635,268 635,268 635,269 635,269 635,269 635,269 635,269 635,269 635,269 635,269 635,270 635,270 636,270 636,270 636,270 636,270 636,270 636,270 636,270 636,270 636,270 636,270 636,270 636,270 636,270 637,270 637,270 637,270 637,270 637,270 637,270 637,270 637,271 637,271 637,270 637,270 637,270 637,270 638,270 638,270 638,270 638,271 638,271 638,271 638,270 638,270 638,270 638,269 638,269 638,268 638,268 639,267 639,267 639,267 639,266 639,266 639,266 639,266 639,265 639,265 639,265 639,265 639,264 639,264 640,263 640,262 640,262 640,262 640,262 640,262 640,261 640,261 640,262 640,262 640,262 640,262 640,263 641,263 641,263 641,264 641,264 641,264 641,265 641,265 641,265 641,266 641,266 641,266 641,267 641,267 642,267 642,268 642,268 642,268 642,269 642,269 642,269 642,270 642,270 642,270 642,271 642,271 642,271 643,271 643,272 643,272 643,272 643,272 643,272 643,273 643,273 643,273 643,273 643,273 643,273 643,273 644,273 644,274 644,274 644,274 644,274 644,274 644,274 644,274 644,274 644,274 644,274 644,274 644,274 645,274 645,274 645,274 645,273 645,273 645,272 645,271 645,270 645,270 645,269 645,268 645,267 645,267 646,266 646,265 646,265 646,264 646,263 646,263 646,262 646,262 646,261 646,261 646,260 646,259 646,259 647,258 647,258 647,257 647,257 647,256 647,255 647,255 647,254 647,254 647,253 647,253 647,253 647,253 648,253 648,253 648,253 648,253 648,253 648,253 648,253 648,253 648,253 648,253 648,253 648,254 648,254 649,254 649,254 649,255 649,255 649,256 649,256 649,257 649,257 649,258 649,258 649,259 649,260 649,260 650,261 650,261 650,262 650,262 650,263 650,263 650,264 650,264 650,265 650,265 650,266 650,266 650,266 651,267 651,267 651,267 651,267 651,268 651,268 651,268 651,268 651,268 651,268 651,267 651,267 651,266 652,266 652,265 652,265 652,264 652,264 652,264 652,263 652,263 652,263 652,262 652,262 652,262 652,261 653,261 653,261 653,261 653,261 653,261 653,261 653,261 653,261 653,261 653,261 653,261 653,261 653,261 654,260 654,260 654,260 654,260 654,259 654,259 654,259 654,258 654,258 654,258 654,257 654,257 655,256 655,256 655,255 655,255 655,255 655,254 655,254 655,253 655,253 655,252 655,252 655,251 655,251 656,251 656,250 656,250 656,250 656,249 656,249 656,250 656,250 656,250 656,250 656,251 656,251 656,251 657,252 657,252 657,252 657,252 657,253 657,253 657,253 657,253 657,253 657,253 657,254 657,254 657,254 658,254 658,254 658,254 658,254 658,254 658,255 658,255 658,255 658,255 658,255 658,255 658,255 658,255 659,255 659,255 659,255 659,255 659,255 659,255 659,255 659,255 659,255 659,255 659,256 659,256 659,256 660,256 660,257 660,257 660,257 660,257 660,257 660,257 660,257 660,257 660,257 660,257 660,257 660,257 661,257 661,257 661,257 661,257 661,257 661,257 661,257 661,257 661,257 661,257 661,257 661,257 661,257 662,257 662,257 662,257 662,257 662,258 662,258 662,258 662,258 662,258 662,258 662,259 662,259 662,259 663,259 663,259 663,260 663,260 663,260 663,261 663,262 663,262 663,263 663,264 663,264 663,265 663,266 664,267 664,267 664,268 664,268 664,269 664,270 664,270 664,271 664,271 664,272 664,272 664,273 664,274 665,275 665,275 665,276 665,277 665,278 665,279 665,279 665,280 665,281 665,281 665,282 665,282 665,283 666,283 666,283 666,284 666,284 666,284 666,284 666,284 666,284 666,284 666,285 666,284 666,283 666,282 667,282 667,281 667,279 667,278 667,277 667,277 667,276 667,275 667,275 667,274 667,274 667,273 667,273 668,272 668,272 668,271 668,271 668,271 668,270 668,270 668,270 668,269 668,269 668,269 668,269 668,269 669,269 669,269 669,269 669,269 669,269 669,269 669,269 669,269 669,269 669,269 669,269 669,269 669,269 670,270 670,270 670,270 670,270 670,271 670,271 670,271 670,272 670,272 670,273 670,273 670,273 670,274 671,274 671,275 671,275 671,275 671,275 671,275 671,275 671,275 671,275 671,275 671,275 671,275 671,275 672,275 672,276 672,276 672,276 672,277 672,278 672,278 672,279 672,280 672,280 672,281 672,282 672,282 673,283 673,284 673,285 673,285 673,286 673,287 673,288 673,289 673,290 673,290 673,291 673,291 673,291 674,291 674,291 674,290 674,289 674,288 674,287 674,287 674,287 674,286 674,286 674,286 674,286 674,285 675,285 675,285 675,285 675,285 675,284 675,284 675,284 675,284 675,284 675,283 675,283 675,283 675,283 676,283 676,283 676,282 676,282 676,282 676,282 676,282 676,282 676,282 676,282 676,282 676,281 676,281 677,281 677,281 677,281 677,281 677,281 677,281 677,281 677,281 677,281 677,281 677,281 677,281 677,281 678,281 678,281 678,281 678,280 678,280 678,280 678,280 678,280 678,280 678,279 678,279 678,279 678,279 679,279 679,279 679,279 679,279 679,279 679,279 679,279 679,278 679,278 679,278 679,278 679,278 679,278 680,278 680,278 680,278 680,277 680,277 680,277 680,277 680,277 680,277 680,277 680,276 680,276 680,276 681,276 681,276 681,276 681,276 681,276 681,276 681,276 681,276 681,276 681,276 681,276 681,276 681,275 682,275 682,275 682,275 682,275 682,275 682,275 682,275 682,275 682,275 682,275 682,275 682,275 682,274 683,274 683,274 683,274 683,274 683,274 683,274 683,274 683,274 683,274 683,274 683,273 683,273 683,273 684,273 684,273 684,273 684,273 684,273 684,272 684,272 684,272 684,272 684,272 684,272 684,272 684,272 685,271 685,271 685,271 685,271 685,271 685,271 685,271 685,271 685,271 685,271 685,270 685,270 685,270 686,270 686,270 686,270 686,269 686,269 686,269 686,269 686,269 686,269 686,269 686,268 686,268 686,268 687,268 687,268 687,268 687,268 687,269 687,269 687,269 687,269 687,269 687,269 687,269 687,269 687,269 688,269 688,269 688,269 688,269 688,269 688,269 688,269 688,269 688,269 688,269 688,269 688,270 688,270 689,270 689,270 689,270 689,270 689,270 689,270 689,270 689,270 689,270 689,270 689,270 689,270 689,270 690,270 690,270 690,270 690,270 690,270 690,270 690,270 690,269 690,269 690,269 690,269 690,270 690,270 691,270 691,270 691,270 691,270 691,270 691,270 691,271 691,271 691,271 691,271 691,271 691,270 691,270 692,269 692,269 692,269 692,268 692,268 692,268 692,268 692,268 692,268 692,268 692,268 692,268 692,268 693,267 693,267 693,267 693,267 693,267 693,267 693,267 693,267 693,267 693,266 693,266 693,266 693,266 694,266 694,266 694,266 694,265 694,265 694,265 694,265 694,265 694,265 694,265 694,264 694,264 694,264 695,264 695,264 695,264 695,264 695,263 695,263 695,263 695,263 695,263 695,263 695,262 695,262 695,262 696,262 696,262 696,262 696,261 696,261 696,261 696,261 696,261 696,260 696,260 696,260 696,260 696,260 697,259 697,259 697,259 697,259 697,259 697,258 697,258 697,258 697,258 697,258 697,258 697,258 697,257 698,257 698,257 698,257 698,257 698,257 698,257 698,257 698,257 698,256 698,256 698,255 698,255 699,254 699,254 699,254 699,253 699,253 699,253 699,252 699,252 699,252 699,251 699,251 699,251 699,250 700,250 700,250 700,249 700,249 700,250 700,249 700,249 700,249 700,249 700,249 700,249 700,248 700,248 701,248 701,248 701,247 701,247 701,247 701,246 701,246 701,246 701,245 701,245 701,245 701,244 701,244 702,243 702,243 702,242 702,242 702,241 702,241 702,241 702,240 702,240 702,239 702,239 702,238 702,238 703,238 703,237 703,237 703,236 703,236 703,235 703,235 703,235 703,235 703,235 703,234 703,234 703,234 704,234 704,234 704,234 704,234 704,234 704,234 704,234 704,234 704,233 704,233 704,233 704,233 704,233 705,233 705,233 705,233 705,233 705,233 705,233 705,233 705,234 705,234 705,234 705,234 705,234 705,234 706,234 706,233 706,233 706,232 706,232 706,231 706,230 706,230 706,229 706,229 706,228 706,228 706,228 707,227 707,227 707,226 707,226 707,226 707,226 707,225 707,225 707,225 707,224 707,224 707,224 707,224 708,224 708,224 708,224 708,225 708,225 708,225 708,225 708,225 708,225 708,225 708,225 708,225 708,225 709,224 709,224 709,224 709,224 709,224 709,224 709,224 709,224 709,223 709,222 709,222 709,222 709,221 710,221 710,220 710,219 710,219 710,218 710,218 710,217 710,217 710,217 710,216 710,216 710,216 710,216 711,216 711,216 711,215 711,215 711,216 711,216 711,216 711,216 711,216 711,216 711,216 711,216 711,216 712,216 712,216 712,216 712,216 712,216 712,217 712,217 712,217 712,217 712,217 712,217 712,217 712,217 713,217 713,218 713,218 713,218 713,218 713,218 713,218 713,219 713,219 713,219 713,219 713,219 713,219 714,220 714,220 714,220 714,220 714,220 714,221 714,221 714,221 714,221 714,221 714,221 714,221 714,221 715,222 715,222 715,222 715,222 715,222 715,223 715,223 715,223 715,224 715,224 715,224 715,224 715,224 716,225 716,225 716,225 716,225 716,225 716,225 716,225 716,225 716,225 716,225 716,225 716,225 716,225 717,225 717,225 717,225 717,225 717,225 717,225 717,226 717,226 717,226 717,226 717,226 717,226 717,227 718,227 718,227 718,227 718,228 718,228 718,228 718,228 718,228 718,228 718,228 718,228 718,228 718,228 719,227 719,227 719,227 719,227 719,227 719,227 719,227 719,227 719,226 719,226 719,226 719,226 719,226 720,226 720,226 720,226 720,226 720,226 720,226 720,226 720,226 720,227 720,227 720,227 720,227 720,227 721,227 721,227 721,227 721,228 721,228 721,227 721,227 721,227 721,227 721,227 721,227 721,227 721,227 722,227 722,227 722,227 722,227 722,227 722,227 722,227 722,227 722,227 722,227 722,227 722,227 722,227 723,227 723,227 723,227 723,227 723,227 723,227 723,227 723,227 723,227 723,227 723,227 723,228 723,228 724,228 724,228 724,228 724,228 724,228 724,228 724,228 724,228 724,228 724,228 724,228 724,228 724,228 725,228 725,228 725,227 725,227 725,227 725,227 725,227 725,227 725,227 725,227 725,227 725,226 725,226 726,227 726,227 726,227 726,227 726,227 726,227 726,227 726,227 726,227 726,227 726,227 726,227 726,227 727,227 727,227 727,226 727,226 727,226 727,226 727,226 727,226 727,226 727,226 727,226 727,226 727,226 728,226 728,226 728,226 728,226 728,227 728,227 728,227 728,227 728,227 728,227 728,227 728,227 728,227 729,227 729,227 729,227 729,227 729,227 729,227 729,227 729,227 729,227 729,227 729,227 729,227 729,227 730,227 730,227 730,227 730,227 730,227 730,227 730,227 730,227 730,227 730,228 730,228 730,228 730,228 731,228 731,228 731,228 731,228 731,228 731,229 731,229 731,229 731,229 731,229 731,230 731,230 731,230 732,230 732,231 732,231 732,231 732,232 732,232 732,232 732,232 732,233 732,233 732,233 732,234 732,234 733,234 733,235 733,235 733,235 733,235 733,235 733,235 733,235 733,235 733,235 733,235 733,236 733,236 734,236 734,235 734,235 734,235 734,236 734,236 734,236 734,236 734,236 734,237 734,237 734,237 734,237 735,237 735,237 735,237 735,237 735,236 735,236 735,235 735,235 735,235 735,234 735,234 735,234 735,233 736,233 736,233 736,233 736,233 736,232 736,232 736,232 736,232 736,232 736,232 736,232 " vector-effect="non-scaling-stroke"></polyline>
</g></svg>