<?xml version="1.0" encoding="UTF-8" standalone="no"?><svg width="282.222mm" height="141.111mm" xmlns="http://www.w3.org/2000/svg" xmlns:xlink="http://www.w3.org/1999/xlink"  version="1.2" baseProfile="tiny"><g fill="none" stroke="#ff0000" stroke-linecap="round" stroke-linejoin="round" stroke-opacity="1" stroke-width="1.5" transform="matrix(1,0,0,1,0,0)">
<polyline fill="none" points="62,275 62,275 62,275 62,275 62,276 62,277 62,277 62,277 62,278 62,278 62,278 63,279 63,278 63,277 63,277 63,276 63,275 63,274 63,274 63,273 63,272 63,272 63,271 63,270 64,270 64,269 64,269 64,268 64,268 64,267 64,267 64,267 64,266 64,266 64,266 64,266 64,265 65,265 65,264 65,264 65,264 65,264 65,263 65,263 65,263 65,263 65,263 65,263 65,263 65,262 66,262 66,262 66,262 66,262 66,261 66,261 66,261 66,260 66,260 66,260 66,259 66,259 66,259 67,259 67,259 67,259 67,258 67,258 67,258 67,258 67,258 67,258 67,258 67,258 67,258 67,258 68,258 68,257 68,257 68,257 68,257 68,257 68,257 68,256 68,256 68,256 68,256 68,256 68,256 69,256 69,256 69,256 69,256 69,256 69,256 69,256 69,255 69,255 69,255 69,255 69,255 69,254 70,254 70,254 70,254 70,254 70,254 70,254 70,254 70,254 70,253 70,253 70,253 70,253 70,253 71,253 71,254 71,254 71,254 71,254 71,254 71,253 71,253 71,253 71,253 71,253 71,253 71,253 72,253 72,253 72,254 72,254 72,254 72,253 72,253 72,253 72,253 72,253 72,253 72,253 72,253 73,253 73,253 73,253 73,253 73,253 73,253 73,253 73,253 73,253 73,253 73,253 73,254 73,254 74,254 74,254 74,254 74,254 74,254 74,254 74,254 74,254 74,254 74,254 74,255 74,255 74,255 75,256 75,256 75,256 75,256 75,256 75,256 75,257 75,257 75,257 75,257 75,258 75,258 75,258 76,259 76,259 76,259 76,260 76,260 76,261 76,261 76,261 76,261 76,261 76,261 76,262 76,262 77,262 77,262 77,263 77,263 77,263 77,263 77,263 77,263 77,263 77,263 77,263 77,263 77,263 78,263 78,262 78,262 78,262 78,262 78,262 78,262 78,262 78,262 78,262 78,262 78,261 78,261 79,261 79,260 79,260 79,260 79,259 79,259 79,259 79,259 79,259 79,259 79,259 79,259 79,259 80,259 80,259 80,259 80,259 80,259 80,258 80,258 80,258 80,258 80,258 80,258 80,257 80,257 81,257 81,256 81,256 81,255 81,255 81,255 81,255 81,255 81,255 81,255 81,255 81,255 81,254 82,254 82,254 82,253 82,253 82,253 82,252 82,252 82,252 82,252 82,252 82,252 82,251 82,251 83,251 83,251 83,251 83,251 83,251 83,250 83,250 83,250 83,250 83,250 83,251 83,251 83,251 84,251 84,251 84,251 84,251 84,251 84,251 84,251 84,251 84,251 84,251 84,251 84,251 84,251 85,251 85,251 85,251 85,251 85,251 85,251 85,251 85,251 85,251 85,250 85,250 85,250 86,250 86,249 86,249 86,249 86,249 86,249 86,249 86,248 86,248 86,248 86,248 86,248 86,247 87,247 87,246 87,246 87,246 87,246 87,246 87,245 87,245 87,245 87,245 87,245 87,244 87,244 88,244 88,244 88,243 88,243 88,243 88,242 88,242 88,242 88,242 88,242 88,242 88,242 88,242 89,243 89,243 89,243 89,244 89,244 89,245 89,245 89,246 89,246 89,247 89,247 89,248 89,248 90,249 90,250 90,250 90,250 90,251 90,251 90,252 90,252 90,253 90,253 90,254 90,255 90,255 91,256 91,256 91,257 91,257 91,258 91,259 91,259 91,260 91,261 91,262 91,262 91,262 91,263 92,264 92,265 92,266 92,267 92,267 92,268 92,269 92,269 92,270 92,271 92,271 92,271 92,272 93,272 93,272 93,273 93,273 93,274 93,274 93,274 93,275 93,275 93,275 93,275 93,275 93,274 94,274 94,274 94,274 94,274 94,274 94,274 94,273 94,273 94,273 94,273 94,273 94,273 94,273 95,273 95,272 95,272 95,272 95,272 95,272 95,272 95,272 95,272 95,272 95,271 95,271 95,271 96,271 96,271 96,271 96,271 96,270 96,270 96,270 96,270 96,269 96,269 96,270 96,270 96,270 97,270 97,270 97,269 97,269 97,269 97,269 97,269 97,268 97,268 97,268 97,268 97,269 97,268 98,268 98,268 98,268 98,268 98,268 98,268 98,268 98,268 98,268 98,268 98,269 98,269 98,269 99,269 99,270 99,270 99,270 99,269 99,270 99,270 99,270 99,270 99,270 99,270 99,270 99,270 100,270 100,270 100,270 100,270 100,270 100,270 100,269 100,269 100,268 100,268 100,268 100,268 100,268 101,267 101,267 101,267 101,267 101,267 101,267 101,267 101,267 101,267 101,267 101,267 101,267 101,267 102,267 102,267 102,266 102,266 102,266 102,265 102,265 102,265 102,264 102,264 102,263 102,264 102,264 103,263 103,262 103,261 103,261 103,261 103,261 103,261 103,261 103,261 103,261 103,261 103,261 103,261 104,261 104,261 104,262 104,262 104,261 104,261 104,261 104,261 104,261 104,260 104,260 104,260 104,260 105,260 105,260 105,260 105,261 105,261 105,261 105,262 105,262 105,263 105,263 105,264 105,264 105,265 106,265 106,265 106,265 106,265 106,265 106,265 106,265 106,265 106,264 106,264 106,264 106,264 106,263 107,263 107,263 107,262 107,262 107,262 107,261 107,261 107,260 107,260 107,260 107,259 107,259 107,258 108,258 108,257 108,257 108,256 108,255 108,255 108,255 108,254 108,254 108,254 108,253 108,253 108,252 109,252 109,251 109,250 109,250 109,249 109,248 109,247 109,246 109,246 109,244 109,243 109,242 109,242 110,241 110,240 110,239 110,238 110,237 110,236 110,235 110,234 110,232 110,231 110,230 110,229 110,228 111,226 111,225 111,224 111,223 111,222 111,221 111,219 111,218 111,217 111,216 111,215 111,214 111,213 112,212 112,211 112,210 112,209 112,208 112,207 112,206 112,205 112,204 112,203 112,202 112,202 112,201 113,201 113,200 113,200 113,199 113,199 113,198 113,197 113,197 113,197 113,197 113,197 113,196 113,196 114,196 114,195 114,195 114,195 114,195 114,195 114,194 114,194 114,194 114,194 114,193 114,193 114,194 115,194 115,193 115,193 115,193 115,194 115,194 115,194 115,194 115,194 115,193 115,193 115,193 115,192 116,192 116,192 116,191 116,191 116,190 116,190 116,189 116,189 116,188 116,187 116,187 116,186 116,185 117,184 117,184 117,183 117,183 117,183 117,182 117,182 117,181 117,181 117,181 117,181 117,181 117,181 118,181 118,181 118,181 118,182 118,182 118,182 118,183 118,183 118,184 118,184 118,184 118,184 118,184 119,184 119,183 119,183 119,183 119,183 119,182 119,182 119,182 119,181 119,181 119,180 119,180 119,180 120,180 120,180 120,180 120,180 120,181 120,181 120,181 120,180 120,181 120,181 120,181 120,181 120,181 121,181 121,181 121,182 121,182 121,182 121,183 121,184 121,185 121,186 121,186 121,187 121,188 121,188 122,188 122,187 122,187 122,187 122,188 122,190 122,191 122,192 122,192 122,192 122,192 122,191 122,191 123,192 123,192 123,192 123,191 123,191 123,191 123,190 123,190 123,189 123,189 123,188 123,188 124,187 124,187 124,186 124,185 124,184 124,183 124,183 124,182 124,182 124,181 124,181 124,181 124,180 125,180 125,180 125,180 125,180 125,180 125,180 125,180 125,179 125,179 125,179 125,179 125,178 125,178 126,178 126,177 126,177 126,177 126,176 126,176 126,176 126,176 126,176 126,176 126,176 126,176 126,176 127,176 127,176 127,176 127,176 127,176 127,176 127,176 127,177 127,179 127,181 127,182 127,183 127,183 128,184 128,185 128,187 128,188 128,189 128,190 128,191 128,192 128,192 128,193 128,194 128,194 128,194 129,194 129,194 129,194 129,194 129,195 129,194 129,193 129,192 129,191 129,189 129,188 129,187 129,186 130,185 130,184 130,183 130,182 130,181 130,180 130,179 130,179 130,178 130,177 130,176 130,176 130,175 131,174 131,173 131,172 131,171 131,172 131,172 131,172 131,173 131,173 131,173 131,173 131,173 131,173 132,174 132,174 132,174 132,174 132,174 132,174 132,174 132,174 132,174 132,174 132,175 132,175 132,175 133,175 133,175 133,175 133,176 133,177 133,178 133,179 133,181 133,182 133,183 133,185 133,186 133,187 134,189 134,190 134,190 134,191 134,193 134,195 134,196 134,197 134,198 134,199 134,199 134,200 134,201 135,203 135,204 135,206 135,208 135,211 135,216 135,217 135,217 135,216 135,216 135,214 135,213 135,211 136,210 136,209 136,208 136,207 136,206 136,205 136,204 136,203 136,202 136,201 136,200 136,199 136,198 137,197 137,196 137,195 137,194 137,193 137,192 137,191 137,190 137,189 137,188 137,186 137,185 137,184 138,183 138,182 138,181 138,180 138,179 138,178 138,177 138,175 138,174 138,172 138,170 138,169 138,168 139,167 139,166 139,165 139,164 139,164 139,163 139,163 139,163 139,162 139,162 139,161 139,161 139,161 140,161 140,160 140,160 140,160 140,159 140,159 140,159 140,159 140,158 140,158 140,158 140,158 140,157 141,157 141,157 141,156 141,156 141,156 141,156 141,155 141,155 141,155 141,154 141,154 141,154 141,153 142,154 142,154 142,154 142,154 142,155 142,156 142,156 142,157 142,157 142,158 142,158 142,159 142,159 143,159 143,160 143,160 143,160 143,160 143,160 143,160 143,159 143,159 143,159 143,159 143,159 143,159 144,159 144,159 144,160 144,160 144,161 144,161 144,160 144,159 144,158 144,158 144,157 144,156 144,155 145,155 145,154 145,153 145,153 145,152 145,152 145,152 145,151 145,151 145,151 145,151 145,150 145,150 146,150 146,150 146,150 146,150 146,151 146,151 146,151 146,152 146,152 146,153 146,153 146,154 146,156 147,157 147,158 147,159 147,160 147,161 147,162 147,163 147,164 147,164 147,165 147,167 147,169 147,171 148,172 148,173 148,175 148,177 148,178 148,179 148,179 148,179 148,180 148,180 148,179 148,178 148,176 149,175 149,175 149,175 149,174 149,174 149,173 149,172 149,171 149,169 149,169 149,168 149,167 149,167 150,167 150,167 150,167 150,166 150,166 150,166 150,166 150,166 150,167 150,167 150,167 150,167 150,167 151,167 151,167 151,166 151,166 151,165 151,165 151,165 151,167 151,168 151,169 151,170 151,170 151,170 152,170 152,171 152,174 152,176 152,179 152,180 152,181 152,182 152,183 152,184 152,185 152,186 152,187 153,187 153,188 153,188 153,188 153,189 153,189 153,190 153,190 153,190 153,190 153,190 153,191 153,191 154,191 154,192 154,192 154,192 154,191 154,190 154,189 154,189 154,191 154,192 154,193 154,193 154,194 155,194 155,195 155,196 155,196 155,197 155,197 155,198 155,199 155,200 155,201 155,202 155,202 155,203 156,201 156,202 156,202 156,202 156,202 156,202 156,203 156,203 156,204 156,204 156,204 156,204 156,204 157,204 157,204 157,204 157,207 157,208 157,209 157,209 157,209 157,208 157,208 157,208 157,208 157,208 158,208 158,209 158,210 158,211 158,211 158,211 158,211 158,211 158,211 158,211 158,210 158,210 158,210 159,210 159,209 159,209 159,208 159,208 159,208 159,207 159,205 159,204 159,204 159,203 159,202 159,201 160,200 160,199 160,198 160,197 160,196 160,195 160,195 160,194 160,193 160,192 160,192 160,191 160,191 161,191 161,190 161,190 161,190 161,190 161,189 161,189 161,189 161,188 161,188 161,188 161,188 161,187 162,187 162,187 162,187 162,186 162,186 162,186 162,186 162,186 162,186 162,186 162,186 162,186 163,186 163,186 163,187 163,187 163,188 163,188 163,188 163,189 163,190 163,190 163,191 163,192 163,193 164,193 164,194 164,195 164,196 164,197 164,198 164,199 164,199 164,200 164,200 164,201 164,201 164,201 165,201 165,201 165,200 165,200 165,200 165,199 165,199 165,198 165,197 165,197 165,197 165,197 165,196 166,196 166,196 166,196 166,196 166,196 166,196 166,196 166,196 166,196 166,195 166,195 166,195 166,195 167,195 167,195 167,195 167,195 167,195 167,195 167,194 167,194 167,194 167,194 167,194 167,194 167,194 168,194 168,194 168,194 168,194 168,194 168,194 168,194 168,194 168,193 168,193 168,193 168,193 168,194 169,194 169,194 169,195 169,195 169,195 169,195 169,194 169,194 169,194 169,193 169,193 169,192 169,192 170,192 170,191 170,191 170,190 170,190 170,190 170,189 170,189 170,188 170,187 170,186 170,186 170,185 171,184 171,182 171,181 171,181 171,180 171,179 171,178 171,177 171,176 171,175 171,174 171,173 171,172 172,172 172,171 172,170 172,170 172,169 172,168 172,168 172,168 172,168 172,167 172,167 172,167 172,167 173,167 173,167 173,167 173,166 173,166 173,166 173,166 173,166 173,166 173,165 173,164 173,164 173,164 174,164 174,164 174,163 174,163 174,163 174,163 174,163 174,164 174,164 174,164 174,164 174,164 174,164 175,164 175,163 175,163 175,163 175,163 175,162 175,162 175,162 175,162 175,162 175,162 175,162 175,162 176,161 176,161 176,161 176,160 176,160 176,160 176,159 176,159 176,158 176,157 176,157 176,157 176,157 177,157 177,157 177,156 177,155 177,155 177,155 177,156 177,156 177,157 177,157 177,157 177,157 177,158 178,158 178,158 178,159 178,159 178,160 178,159 178,159 178,159 178,158 178,158 178,158 178,159 178,158 179,158 179,158 179,157 179,157 179,156 179,156 179,155 179,155 179,155 179,155 179,155 179,155 179,155 180,154 180,154 180,155 180,155 180,156 180,156 180,157 180,157 180,157 180,158 180,158 180,158 180,159 181,160 181,161 181,161 181,162 181,162 181,163 181,163 181,164 181,164 181,165 181,165 181,166 181,166 182,166 182,167 182,167 182,168 182,168 182,168 182,167 182,167 182,167 182,166 182,165 182,164 182,164 183,163 183,162 183,161 183,160 183,160 183,160 183,159 183,159 183,159 183,159 183,159 183,159 183,159 184,159 184,159 184,159 184,159 184,159 184,159 184,159 184,159 184,159 184,159 184,159 184,159 184,159 185,159 185,158 185,158 185,158 185,158 185,158 185,158 185,157 185,157 185,157 185,157 185,156 185,156 186,156 186,156 186,156 186,155 186,155 186,155 186,155 186,155 186,155 186,155 186,155 186,155 186,155 187,155 187,155 187,155 187,155 187,155 187,155 187,155 187,156 187,156 187,156 187,157 187,156 187,156 188,156 188,157 188,158 188,158 188,157 188,155 188,154 188,154 188,154 188,153 188,153 188,153 188,153 189,153 189,153 189,154 189,154 189,154 189,154 189,153 189,152 189,152 189,151 189,151 189,150 189,149 190,149 190,149 190,148 190,148 190,148 190,148 190,148 190,147 190,147 190,146 190,146 190,145 190,145 191,145 191,144 191,144 191,144 191,144 191,143 191,143 191,143 191,143 191,142 191,142 191,142 191,141 192,141 192,141 192,140 192,140 192,140 192,140 192,139 192,139 192,139 192,139 192,138 192,138 192,137 193,137 193,137 193,136 193,136 193,135 193,135 193,135 193,134 193,134 193,133 193,133 193,132 193,132 194,131 194,131 194,131 194,131 194,130 194,130 194,131 194,131 194,131 194,131 194,131 194,131 194,131 195,131 195,131 195,131 195,131 195,131 195,131 195,132 195,132 195,132 195,132 195,132 195,132 195,132 196,132 196,133 196,133 196,133 196,133 196,134 196,134 196,134 196,134 196,134 196,135 196,135 196,135 197,135 197,135 197,135 197,135 197,135 197,134 197,134 197,134 197,134 197,134 197,134 197,134 197,133 198,134 198,134 198,134 198,134 198,134 198,134 198,134 198,134 198,134 198,134 198,134 198,134 198,134 199,134 199,134 199,134 199,134 199,134 199,134 199,134 199,135 199,135 199,135 199,136 199,136 199,137 200,137 200,138 200,138 200,139 200,139 200,140 200,140 200,140 200,140 200,141 200,141 200,141 200,141 201,141 201,141 201,141 201,141 201,141 201,141 201,142 201,142 201,143 201,144 201,144 201,145 202,146 202,146 202,146 202,147 202,148 202,148 202,149 202,149 202,149 202,149 202,149 202,149 202,150 203,150 203,151 203,151 203,151 203,151 203,152 203,152 203,152 203,152 203,153 203,152 203,151 203,151 204,151 204,153 204,154 204,154 204,155 204,155 204,155 204,156 204,155 204,156 204,156 204,157 204,158 205,158 205,159 205,159 205,160 205,160 205,161 205,162 205,162 205,162 205,163 205,163 205,163 205,163 206,163 206,163 206,163 206,163 206,163 206,163 206,163 206,163 206,163 206,163 206,163 206,163 206,163 207,163 207,164 207,164 207,164 207,164 207,164 207,165 207,165 207,165 207,165 207,166 207,166 207,166 208,166 208,166 208,166 208,167 208,167 208,167 208,167 208,167 208,168 208,168 208,168 208,169 208,168 209,168 209,168 209,168 209,167 209,167 209,167 209,167 209,167 209,166 209,166 209,166 209,166 209,166 210,166 210,165 210,165 210,165 210,165 210,165 210,165 210,165 210,165 210,165 210,165 210,164 210,164 211,164 211,164 211,163 211,163 211,162 211,162 211,162 211,161 211,161 211,161 211,161 211,161 211,161 212,161 212,161 212,160 212,160 212,160 212,160 212,160 212,161 212,161 212,162 212,162 212,162 212,162 213,162 213,163 213,164 213,165 213,166 213,167 213,167 213,167 213,167 213,168 213,168 213,168 213,168 214,168 214,168 214,167 214,166 214,166 214,165 214,164 214,163 214,162 214,162 214,161 214,161 214,160 215,160 215,160 215,160 215,160 215,160 215,160 215,160 215,160 215,159 215,159 215,159 215,159 215,159 216,159 216,159 216,159 216,159 216,158 216,158 216,158 216,158 216,158 216,158 216,157 216,157 216,158 217,157 217,157 217,157 217,158 217,158 217,158 217,158 217,158 217,158 217,158 217,158 217,158 217,158 218,158 218,158 218,157 218,157 218,157 218,156 218,156 218,155 218,154 218,154 218,153 218,153 218,152 219,152 219,151 219,151 219,151 219,151 219,150 219,150 219,150 219,150 219,149 219,150 219,149 219,149 220,148 220,148 220,147 220,147 220,146 220,145 220,144 220,144 220,143 220,142 220,142 220,141 220,140 221,140 221,139 221,138 221,137 221,135 221,134 221,133 221,132 221,131 221,130 221,129 221,128 221,127 222,126 222,125 222,124 222,122 222,121 222,120 222,119 222,119 222,118 222,118 222,119 222,119 222,120 223,120 223,120 223,120 223,121 223,121 223,121 223,121 223,121 223,121 223,121 223,121 223,121 223,122 224,122 224,122 224,122 224,122 224,122 224,123 224,123 224,123 224,124 224,125 224,125 224,127 224,128 225,129 225,130 225,131 225,131 225,132 225,133 225,133 225,133 225,134 225,135 225,135 225,136 225,137 226,138 226,139 226,140 226,141 226,142 226,142 226,143 226,145 226,146 226,146 226,147 226,148 226,149 227,150 227,151 227,152 227,153 227,153 227,154 227,155 227,156 227,157 227,158 227,159 227,159 227,160 228,160 228,160 228,160 228,160 228,160 228,160 228,159 228,159 228,159 228,159 228,158 228,158 228,158 229,158 229,158 229,158 229,157 229,157 229,157 229,156 229,155 229,154 229,153 229,153 229,152 229,151 230,150 230,149 230,149 230,147 230,146 230,145 230,144 230,144 230,144 230,144 230,144 230,144 230,144 231,144 231,144 231,143 231,143 231,143 231,142 231,142 231,142 231,141 231,141 231,141 231,141 231,141 232,142 232,142 232,142 232,142 232,142 232,142 232,142 232,142 232,142 232,142 232,143 232,143 232,143 233,143 233,143 233,143 233,142 233,142 233,142 233,142 233,142 233,142 233,142 233,143 233,144 233,141 234,141 234,140 234,142 234,144 234,146 234,147 234,145 234,143 234,141 234,140 234,140 234,140 234,140 235,140 235,140 235,139 235,139 235,139 235,140 235,141 235,142 235,143 235,142 235,142 235,142 235,142 236,142 236,142 236,142 236,142 236,143 236,145 236,146 236,145 236,145 236,144 236,144 236,143 236,143 237,143 237,143 237,143 237,144 237,144 237,145 237,145 237,145 237,145 237,145 237,145 237,146 237,146 238,146 238,146 238,146 238,146 238,146 238,146 238,146 238,146 238,146 238,146 238,146 238,146 238,146 239,146 239,146 239,146 239,147 239,147 239,147 239,147 239,147 239,147 239,147 239,147 239,147 240,147 240,147 240,148 240,148 240,148 240,148 240,148 240,148 240,149 240,149 240,149 240,149 240,149 241,149 241,151 241,150 241,150 241,150 241,150 241,151 241,151 241,151 241,151 241,150 241,150 241,149 242,149 242,148 242,147 242,147 242,147 242,147 242,148 242,148 242,148 242,148 242,148 242,148 242,148 243,149 243,149 243,149 243,148 243,147 243,146 243,146 243,146 243,145 243,145 243,145 243,144 243,144 244,143 244,143 244,143 244,142 244,142 244,142 244,142 244,142 244,142 244,142 244,142 244,142 244,142 245,142 245,143 245,143 245,143 245,143 245,143 245,142 245,142 245,143 245,143 245,143 245,143 245,143 246,143 246,143 246,144 246,144 246,144 246,144 246,145 246,145 246,145 246,145 246,145 246,146 246,146 247,147 247,147 247,148 247,148 247,149 247,149 247,149 247,149 247,149 247,149 247,150 247,150 247,150 248,150 248,150 248,150 248,150 248,151 248,150 248,150 248,150 248,150 248,150 248,150 248,150 248,150 249,150 249,150 249,150 249,150 249,149 249,149 249,148 249,148 249,148 249,147 249,147 249,146 249,146 250,146 250,146 250,146 250,146 250,146 250,145 250,145 250,145 250,145 250,145 250,145 250,144 250,144 251,144 251,144 251,144 251,144 251,144 251,144 251,144 251,143 251,143 251,144 251,144 251,144 251,145 252,145 252,146 252,146 252,146 252,147 252,147 252,148 252,148 252,148 252,148 252,148 252,149 252,149 253,148 253,148 253,148 253,148 253,148 253,148 253,148 253,149 253,149 253,150 253,150 253,151 253,151 254,151 254,151 254,151 254,151 254,152 254,152 254,153 254,153 254,154 254,155 254,155 254,156 254,157 255,158 255,159 255,159 255,159 255,159 255,159 255,159 255,160 255,160 255,160 255,160 255,160 255,160 256,160 256,160 256,160 256,160 256,160 256,160 256,160 256,161 256,161 256,161 256,161 256,161 256,161 257,161 257,161 257,161 257,162 257,162 257,162 257,162 257,162 257,162 257,163 257,163 257,163 257,163 258,163 258,164 258,164 258,164 258,164 258,165 258,165 258,165 258,166 258,166 258,166 258,167 258,167 259,167 259,168 259,169 259,170 259,170 259,171 259,172 259,173 259,174 259,175 259,176 259,177 259,178 260,178 260,179 260,180 260,182 260,182 260,182 260,182 260,182 260,182 260,182 260,182 260,181 260,181 261,182 261,182 261,182 261,183 261,183 261,183 261,183 261,183 261,183 261,183 261,183 261,183 261,183 262,183 262,183 262,184 262,184 262,184 262,185 262,185 262,185 262,185 262,184 262,184 262,184 262,185 263,185 263,185 263,185 263,185 263,186 263,186 263,186 263,186 263,186 263,186 263,186 263,186 263,186 264,186 264,186 264,186 264,186 264,186 264,186 264,186 264,186 264,186 264,186 264,187 264,187 264,188 265,188 265,189 265,189 265,189 265,189 265,189 265,189 265,189 265,189 265,189 265,190 265,190 265,189 266,189 266,189 266,189 266,189 266,189 266,189 266,189 266,189 266,190 266,190 266,190 266,191 266,191 267,192 267,192 267,193 267,193 267,193 267,193 267,193 267,194 267,194 267,194 267,194 267,194 267,193 268,193 268,193 268,193 268,194 268,194 268,194 268,194 268,194 268,194 268,194 268,194 268,194 268,194 269,194 269,194 269,195 269,195 269,195 269,195 269,195 269,195 269,195 269,194 269,194 269,194 269,194 270,194 270,194 270,193 270,191 270,190 270,189 270,188 270,188 270,188 270,187 270,187 270,186 270,186 271,186 271,186 271,185 271,185 271,185 271,184 271,184 271,184 271,184 271,183 271,183 271,183 271,182 272,182 272,182 272,182 272,181 272,181 272,181 272,181 272,181 272,180 272,180 272,180 272,180 272,179 273,179 273,179 273,178 273,178 273,177 273,177 273,177 273,176 273,175 273,175 273,174 273,174 273,173 274,173 274,172 274,172 274,172 274,172 274,172 274,173 274,173 274,173 274,173 274,173 274,173 274,173 275,173 275,173 275,173 275,172 275,172 275,172 275,172 275,171 275,171 275,171 275,171 275,172 275,173 276,174 276,174 276,175 276,176 276,177 276,176 276,177 276,178 276,178 276,179 276,180 276,180 276,181 277,181 277,181 277,181 277,181 277,181 277,180 277,180 277,180 277,180 277,180 277,180 277,180 277,180 278,180 278,180 278,181 278,181 278,181 278,181 278,181 278,181 278,181 278,181 278,181 278,181 279,181 279,181 279,181 279,182 279,182 279,182 279,183 279,184 279,185 279,186 279,187 279,188 279,188 280,189 280,190 280,191 280,192 280,193 280,195 280,196 280,197 280,199 280,198 280,197 280,196 280,195 281,194 281,193 281,193 281,192 281,191 281,191 281,190 281,189 281,189 281,188 281,188 281,188 281,187 282,187 282,187 282,187 282,187 282,187 282,188 282,188 282,188 282,188 282,189 282,189 282,189 282,189 283,189 283,189 283,190 283,190 283,190 283,190 283,190 283,190 283,190 283,191 283,191 283,191 283,191 284,192 284,192 284,192 284,193 284,193 284,193 284,194 284,194 284,195 284,195 284,195 284,196 284,196 285,195 285,195 285,194 285,194 285,193 285,192 285,191 285,190 285,189 285,189 285,188 285,187 285,186 286,185 286,185 286,183 286,183 286,183 286,183 286,183 286,183 286,183 286,183 286,183 286,183 286,183 287,183 287,183 287,183 287,183 287,183 287,183 287,183 287,183 287,183 287,183 287,183 287,182 287,182 288,182 288,182 288,182 288,182 288,182 288,182 288,182 288,182 288,183 288,183 288,183 288,184 288,184 289,185 289,186 289,186 289,187 289,188 289,188 289,189 289,189 289,190 289,190 289,191 289,191 289,192 290,192 290,192 290,192 290,192 290,193 290,193 290,193 290,194 290,194 290,195 290,195 290,196 290,196 291,196 291,197 291,197 291,198 291,198 291,199 291,199 291,200 291,200 291,201 291,201 291,201 291,201 292,201 292,201 292,201 292,201 292,201 292,201 292,201 292,201 292,201 292,201 292,201 292,200 292,200 293,199 293,199 293,199 293,199 293,199 293,199 293,199 293,199 293,199 293,199 293,199 293,198 293,198 294,198 294,197 294,197 294,196 294,196 294,196 294,195 294,195 294,195 294,195 294,194 294,194 294,194 295,194 295,194 295,193 295,192 295,192 295,191 295,190 295,190 295,189 295,188 295,188 295,187 295,187 296,187 296,186 296,186 296,186 296,186 296,186 296,186 296,186 296,186 296,185 296,185 296,185 296,185 297,185 297,185 297,184 297,184 297,184 297,184 297,184 297,184 297,184 297,184 297,184 297,184 297,184 298,184 298,184 298,184 298,184 298,184 298,183 298,183 298,183 298,184 298,184 298,184 298,184 298,184 299,184 299,184 299,184 299,184 299,184 299,185 299,184 299,184 299,184 299,184 299,184 299,185 299,185 300,185 300,186 300,186 300,187 300,187 300,187 300,188 300,189 300,189 300,190 300,190 300,191 300,191 301,192 301,193 301,193 301,194 301,194 301,194 301,194 301,193 301,193 301,193 301,192 301,192 301,192 302,192 302,192 302,192 302,192 302,192 302,192 302,192 302,192 302,192 302,191 302,191 302,191 302,192 303,192 303,191 303,191 303,190 303,190 303,190 303,189 303,189 303,189 303,189 303,189 303,189 303,190 304,190 304,190 304,190 304,190 304,190 304,191 304,191 304,191 304,191 304,191 304,191 304,192 304,192 305,193 305,193 305,193 305,194 305,194 305,194 305,195 305,195 305,195 305,196 305,196 305,197 305,197 306,198 306,198 306,199 306,200 306,200 306,201 306,202 306,202 306,203 306,204 306,204 306,205 306,205 307,206 307,206 307,206 307,207 307,207 307,207 307,208 307,208 307,209 307,209 307,210 307,210 307,210 308,211 308,211 308,211 308,212 308,212 308,212 308,213 308,213 308,214 308,214 308,215 308,215 308,216 309,216 309,217 309,217 309,217 309,218 309,218 309,218 309,218 309,218 309,218 309,218 309,218 309,218 310,218 310,218 310,217 310,217 310,217 310,216 310,216 310,216 310,216 310,216 310,215 310,215 310,215 311,215 311,215 311,214 311,214 311,214 311,214 311,214 311,214 311,213 311,213 311,213 311,213 311,213 312,213 312,212 312,212 312,212 312,212 312,212 312,211 312,211 312,211 312,211 312,211 312,210 312,210 313,210 313,210 313,210 313,209 313,209 313,209 313,208 313,208 313,208 313,207 313,207 313,207 313,207 314,207 314,207 314,206 314,206 314,206 314,206 314,206 314,205 314,205 314,204 314,204 314,204 314,204 315,204 315,204 315,204 315,203 315,203 315,203 315,203 315,203 315,204 315,204 315,204 315,204 315,204 316,205 316,205 316,205 316,205 316,206 316,206 316,206 316,207 316,208 316,209 316,209 316,208 317,207 317,207 317,207 317,207 317,207 317,207 317,207 317,207 317,207 317,207 317,207 317,207 317,207 318,207 318,208 318,208 318,208 318,208 318,209 318,209 318,209 318,209 318,209 318,210 318,210 318,210 319,211 319,211 319,211 319,211 319,211 319,211 319,211 319,211 319,211 319,211 319,211 319,211 319,212 320,212 320,212 320,212 320,212 320,212 320,212 320,212 320,212 320,212 320,212 320,212 320,212 320,212 321,212 321,212 321,212 321,212 321,212 321,212 321,213 321,213 321,213 321,213 321,213 321,213 321,212 322,212 322,212 322,212 322,212 322,212 322,211 322,211 322,211 322,211 322,210 322,210 322,210 322,210 323,209 323,209 323,208 323,208 323,207 323,207 323,206 323,206 323,206 323,205 323,205 323,204 323,204 324,203 324,203 324,203 324,202 324,202 324,202 324,201 324,201 324,200 324,200 324,199 324,199 324,199 325,198 325,198 325,198 325,198 325,198 325,198 325,198 325,198 325,198 325,198 325,198 325,198 325,198 326,198 326,198 326,198 326,198 326,198 326,198 326,198 326,198 326,198 326,198 326,198 326,199 326,199 327,199 327,200 327,200 327,201 327,201 327,202 327,202 327,203 327,204 327,204 327,205 327,206 327,206 328,207 328,207 328,207 328,207 328,207 328,207 328,207 328,208 328,208 328,208 328,207 328,207 328,207 329,207 329,206 329,206 329,206 329,206 329,206 329,206 329,205 329,205 329,205 329,205 329,205 329,204 330,204 330,204 330,204 330,204 330,204 330,204 330,204 330,204 330,204 330,204 330,204 330,203 330,203 331,203 331,203 331,203 331,203 331,203 331,203 331,203 331,203 331,203 331,203 331,203 331,203 331,203 332,203 332,203 332,203 332,202 332,202 332,202 332,202 332,202 332,202 332,202 332,202 332,202 332,202 333,202 333,202 333,201 333,201 333,201 333,201 333,201 333,201 333,200 333,200 333,200 333,200 333,200 334,200 334,200 334,199 334,199 334,199 334,199 334,199 334,199 334,199 334,199 334,199 334,198 334,198 335,198 335,198 335,198 335,197 335,197 335,197 335,197 335,197 335,197 335,196 335,196 335,196 335,196 336,196 336,196 336,195 336,195 336,195 336,195 336,194 336,194 336,194 336,194 336,194 336,193 336,193 337,193 337,193 337,192 337,192 337,192 337,192 337,191 337,191 337,191 337,191 337,190 337,190 337,190 338,189 338,189 338,188 338,188 338,188 338,188 338,188 338,187 338,187 338,187 338,186 338,186 338,185 339,185 339,185 339,184 339,184 339,183 339,183 339,182 339,182 339,181 339,181 339,180 339,180 339,180 340,179 340,179 340,178 340,178 340,177 340,177 340,176 340,175 340,175 340,174 340,173 340,172 340,172 341,171 341,171 341,171 341,170 341,170 341,169 341,169 341,169 341,168 341,168 341,168 341,168 341,168 342,168 342,167 342,167 342,167 342,167 342,167 342,166 342,166 342,166 342,166 342,166 342,165 342,165 343,165 343,165 343,165 343,165 343,164 343,164 343,164 343,164 343,164 343,164 343,163 343,163 343,163 344,163 344,163 344,163 344,163 344,163 344,163 344,163 344,163 344,163 344,163 344,163 344,163 344,163 345,163 345,163 345,164 345,164 345,164 345,165 345,165 345,166 345,166 345,167 345,167 345,168 345,168 346,169 346,169 346,170 346,171 346,171 346,172 346,172 346,173 346,173 346,174 346,174 346,174 346,175 347,175 347,176 347,176 347,176 347,177 347,178 347,178 347,179 347,179 347,180 347,180 347,180 347,180 348,180 348,180 348,181 348,181 348,181 348,181 348,181 348,181 348,182 348,182 348,183 348,183 348,183 349,184 349,184 349,184 349,184 349,185 349,185 349,185 349,185 349,185 349,185 349,185 349,185 349,186 350,186 350,186 350,186 350,186 350,186 350,186 350,185 350,185 350,185 350,185 350,186 350,186 350,186 351,186 351,187 351,187 351,187 351,188 351,188 351,188 351,188 351,188 351,189 351,189 351,189 351,189 352,189 352,189 352,190 352,190 352,190 352,190 352,190 352,190 352,190 352,190 352,190 352,190 352,191 353,191 353,191 353,191 353,192 353,192 353,192 353,193 353,193 353,193 353,194 353,194 353,195 353,195 354,195 354,196 354,196 354,197 354,197 354,197 354,197 354,198 354,198 354,198 354,198 354,198 354,198 355,198 355,198 355,198 355,197 355,197 355,197 355,197 355,196 355,196 355,196 355,196 355,196 356,196 356,196 356,196 356,196 356,196 356,197 356,197 356,197 356,197 356,197 356,197 356,197 356,197 357,196 357,197 357,197 357,197 357,198 357,198 357,198 357,198 357,198 357,198 357,197 357,197 357,197 358,197 358,197 358,197 358,197 358,197 358,197 358,197 358,197 358,197 358,197 358,196 358,196 358,196 359,196 359,196 359,196 359,196 359,195 359,195 359,195 359,195 359,195 359,195 359,195 359,195 359,195 360,195 360,195 360,195 360,195 360,195 360,195 360,195 360,195 360,194 360,194 360,194 360,194 360,194 361,194 361,194 361,194 361,194 361,194 361,194 361,194 361,194 361,194 361,194 361,194 361,194 361,193 362,193 362,193 362,193 362,193 362,193 362,193 362,193 362,193 362,193 362,193 362,193 362,193 362,193 363,193 363,193 363,194 363,194 363,194 363,194 363,194 363,194 363,194 363,194 363,194 363,194 363,194 364,194 364,194 364,194 364,194 364,194 364,194 364,193 364,193 364,193 364,193 364,193 364,192 364,192 365,192 365,192 365,192 365,192 365,192 365,192 365,192 365,191 365,191 365,191 365,191 365,191 365,191 366,191 366,191 366,191 366,191 366,190 366,190 366,190 366,190 366,190 366,190 366,190 366,190 366,190 367,190 367,189 367,189 367,189 367,189 367,188 367,188 367,188 367,188 367,188 367,187 367,187 367,187 368,187 368,187 368,186 368,186 368,186 368,185 368,185 368,184 368,183 368,183 368,183 368,183 368,183 369,182 369,181 369,181 369,180 369,180 369,180 369,180 369,179 369,179 369,179 369,178 369,178 369,178 370,177 370,177 370,177 370,177 370,176 370,176 370,176 370,176 370,176 370,176 370,176 370,176 370,176 371,176 371,176 371,176 371,176 371,176 371,176 371,176 371,176 371,176 371,176 371,176 371,176 371,176 372,176 372,176 372,176 372,176 372,176 372,176 372,176 372,176 372,176 372,176 372,177 372,177 372,177 373,177 373,177 373,177 373,177 373,176 373,176 373,176 373,176 373,176 373,176 373,176 373,175 373,175 374,175 374,175 374,174 374,174 374,174 374,173 374,172 374,172 374,172 374,172 374,171 374,170 374,170 375,169 375,169 375,168 375,168 375,168 375,168 375,167 375,167 375,168 375,168 375,168 375,167 375,167 376,167 376,167 376,166 376,167 376,167 376,168 376,168 376,169 376,169 376,169 376,170 376,170 376,169 377,169 377,169 377,169 377,168 377,167 377,167 377,166 377,166 377,165 377,165 377,164 377,164 377,163 378,163 378,162 378,162 378,161 378,161 378,160 378,160 378,159 378,158 378,158 378,158 378,158 378,157 379,157 379,157 379,157 379,157 379,157 379,157 379,157 379,157 379,157 379,157 379,157 379,158 379,158 380,158 380,158 380,158 380,158 380,158 380,158 380,158 380,158 380,158 380,157 380,157 380,157 380,157 381,157 381,157 381,158 381,158 381,158 381,158 381,158 381,158 381,158 381,158 381,158 381,158 381,157 382,157 382,157 382,157 382,157 382,157 382,157 382,156 382,156 382,156 382,156 382,156 382,156 382,155 383,155 383,155 383,155 383,154 383,154 383,154 383,154 383,153 383,153 383,153 383,153 383,153 383,153 384,154 384,154 384,154 384,154 384,155 384,155 384,155 384,155 384,155 384,155 384,155 384,155 384,155 385,155 385,155 385,155 385,155 385,155 385,155 385,155 385,155 385,155 385,154 385,154 385,154 385,154 386,153 386,153 386,153 386,153 386,152 386,152 386,152 386,152 386,151 386,151 386,151 386,151 386,150 387,150 387,150 387,149 387,149 387,149 387,149 387,148 387,148 387,148 387,147 387,147 387,147 387,146 388,146 388,146 388,145 388,145 388,145 388,144 388,144 388,144 388,143 388,142 388,142 388,141 388,141 389,140 389,140 389,139 389,139 389,139 389,139 389,139 389,139 389,138 389,138 389,138 389,138 389,138 390,137 390,137 390,137 390,137 390,137 390,136 390,136 390,136 390,135 390,135 390,135 390,134 390,134 391,134 391,134 391,134 391,134 391,134 391,133 391,133 391,133 391,133 391,133 391,133 391,133 391,133 392,133 392,133 392,133 392,133 392,133 392,133 392,133 392,133 392,133 392,133 392,133 392,133 392,133 393,133 393,133 393,133 393,133 393,133 393,133 393,133 393,133 393,133 393,133 393,132 393,132 394,132 394,132 394,132 394,132 394,132 394,132 394,132 394,132 394,132 394,133 394,133 394,133 394,133 395,133 395,133 395,133 395,133 395,133 395,134 395,134 395,134 395,134 395,134 395,134 395,133 395,133 396,133 396,134 396,134 396,134 396,134 396,134 396,134 396,134 396,135 396,135 396,135 396,135 396,136 397,136 397,136 397,136 397,136 397,136 397,136 397,136 397,136 397,136 397,136 397,136 397,136 397,136 398,136 398,135 398,135 398,135 398,135 398,135 398,134 398,134 398,134 398,134 398,133 398,133 398,133 399,132 399,132 399,132 399,132 399,132 399,132 399,132 399,132 399,133 399,133 399,133 399,133 399,134 400,134 400,134 400,134 400,135 400,135 400,135 400,135 400,135 400,135 400,136 400,136 400,136 400,137 401,137 401,137 401,137 401,137 401,137 401,137 401,137 401,136 401,136 401,136 401,135 401,135 401,135 402,135 402,134 402,134 402,134 402,135 402,135 402,135 402,136 402,136 402,136 402,136 402,136 402,137 403,137 403,137 403,137 403,137 403,137 403,138 403,138 403,138 403,138 403,138 403,139 403,139 403,139 404,139 404,140 404,140 404,141 404,142 404,142 404,143 404,143 404,143 404,144 404,144 404,145 404,145 405,145 405,145 405,145 405,145 405,145 405,145 405,145 405,145 405,144 405,144 405,143 405,143 405,142 406,141 406,141 406,140 406,140 406,140 406,140 406,139 406,139 406,139 406,139 406,139 406,138 406,138 407,138 407,138 407,138 407,138 407,138 407,138 407,138 407,137 407,138 407,138 407,138 407,138 407,138 408,138 408,138 408,138 408,138 408,138 408,138 408,138 408,138 408,138 408,138 408,138 408,138 408,138 409,139 409,139 409,140 409,140 409,140 409,141 409,141 409,142 409,142 409,142 409,143 409,143 409,143 410,144 410,144 410,144 410,144 410,145 410,145 410,146 410,146 410,146 410,146 410,147 410,147 410,147 411,147 411,147 411,148 411,148 411,148 411,148 411,148 411,148 411,148 411,148 411,149 411,149 411,149 412,149 412,149 412,149 412,149 412,149 412,148 412,148 412,148 412,147 412,147 412,147 412,147 412,147 413,147 413,147 413,147 413,147 413,147 413,147 413,147 413,148 413,148 413,149 413,149 413,149 413,149 414,150 414,150 414,151 414,151 414,152 414,152 414,152 414,153 414,153 414,153 414,154 414,154 414,155 415,156 415,156 415,156 415,156 415,156 415,156 415,156 415,156 415,156 415,156 415,156 415,156 415,156 416,156 416,156 416,157 416,157 416,157 416,157 416,158 416,158 416,158 416,156 416,155 416,154 416,154 417,154 417,153 417,153 417,153 417,153 417,153 417,153 417,153 417,153 417,153 417,153 417,153 417,153 418,154 418,154 418,154 418,154 418,154 418,154 418,154 418,154 418,154 418,154 418,154 418,154 418,154 419,154 419,155 419,155 419,155 419,155 419,155 419,155 419,155 419,155 419,155 419,155 419,155 419,155 420,155 420,155 420,155 420,155 420,155 420,155 420,156 420,156 420,156 420,156 420,156 420,156 420,156 421,156 421,156 421,156 421,156 421,157 421,157 421,157 421,157 421,157 421,157 421,157 421,158 421,158 422,158 422,158 422,159 422,159 422,159 422,160 422,160 422,161 422,161 422,161 422,161 422,162 422,162 423,162 423,162 423,163 423,163 423,163 423,163 423,163 423,164 423,164 423,164 423,164 423,165 423,165 424,165 424,165 424,165 424,166 424,166 424,166 424,166 424,167 424,167 424,167 424,167 424,167 424,168 425,168 425,168 425,168 425,168 425,168 425,169 425,169 425,169 425,169 425,169 425,170 425,170 425,170 426,170 426,170 426,171 426,171 426,171 426,171 426,171 426,171 426,171 426,171 426,172 426,172 426,172 427,172 427,172 427,172 427,172 427,172 427,172 427,173 427,173 427,173 427,173 427,173 427,173 427,174 428,174 428,174 428,174 428,174 428,175 428,175 428,175 428,175 428,175 428,175 428,175 428,175 428,176 429,176 429,176 429,176 429,176 429,176 429,176 429,176 429,176 429,176 429,176 429,176 429,176 429,176 430,176 430,176 430,176 430,176 430,176 430,176 430,176 430,177 430,177 430,177 430,177 430,176 430,176 431,176 431,176 431,176 431,177 431,177 431,177 431,177 431,177 431,177 431,177 431,177 431,177 431,177 432,177 432,177 432,177 432,177 432,177 432,177 432,177 432,177 432,177 432,177 432,177 432,177 433,176 433,176 433,176 433,175 433,175 433,175 433,174 433,174 433,174 433,174 433,174 433,174 433,174 434,174 434,174 434,174 434,174 434,175 434,175 434,175 434,175 434,176 434,176 434,176 434,176 434,176 435,177 435,177 435,177 435,177 435,177 435,177 435,177 435,177 435,177 435,177 435,177 435,177 435,177 436,176 436,176 436,176 436,176 436,175 436,175 436,175 436,175 436,175 436,175 436,175 436,175 436,175 437,175 437,176 437,176 437,176 437,176 437,176 437,177 437,177 437,177 437,177 437,177 437,177 437,177 438,178 438,178 438,178 438,178 438,178 438,178 438,178 438,178 438,178 438,178 438,178 438,178 438,178 439,178 439,178 439,178 439,178 439,178 439,178 439,178 439,178 439,178 439,178 439,178 439,178 439,178 440,178 440,179 440,178 440,178 440,178 440,178 440,178 440,177 440,177 440,177 440,177 440,177 440,177 441,177 441,177 441,178 441,178 441,178 441,178 441,178 441,178 441,178 441,178 441,178 441,178 441,178 442,178 442,178 442,178 442,178 442,177 442,177 442,177 442,177 442,177 442,177 442,177 442,177 442,177 443,177 443,177 443,177 443,177 443,177 443,177 443,177 443,177 443,177 443,177 443,177 443,176 443,176 444,176 444,176 444,176 444,176 444,176 444,176 444,176 444,176 444,176 444,176 444,176 444,176 444,176 445,176 445,176 445,176 445,176 445,176 445,176 445,176 445,175 445,175 445,175 445,175 445,175 445,175 446,175 446,175 446,175 446,175 446,175 446,175 446,175 446,175 446,175 446,175 446,175 446,175 446,175 447,175 447,175 447,175 447,174 447,174 447,174 447,174 447,174 447,174 447,174 447,174 447,174 447,174 448,174 448,174 448,174 448,174 448,174 448,174 448,173 448,173 448,173 448,173 448,173 448,173 448,173 449,173 449,173 449,173 449,173 449,172 449,172 449,172 449,172 449,172 449,172 449,172 449,172 449,172 450,172 450,172 450,172 450,172 450,172 450,172 450,172 450,172 450,172 450,172 450,172 450,172 450,172 451,172 451,171 451,171 451,171 451,171 451,171 451,171 451,171 451,171 451,170 451,170 451,170 451,170 452,170 452,170 452,170 452,171 452,171 452,170 452,170 452,170 452,170 452,170 452,170 452,170 452,169 453,169 453,169 453,170 453,170 453,170 453,169 453,169 453,169 453,169 453,169 453,169 453,169 453,169 454,169 454,169 454,168 454,168 454,168 454,168 454,168 454,168 454,168 454,168 454,168 454,168 454,168 455,167 455,167 455,167 455,167 455,167 455,167 455,167 455,167 455,167 455,167 455,167 455,167 455,166 456,166 456,166 456,166 456,166 456,166 456,166 456,166 456,166 456,166 456,165 456,165 456,165 456,165 457,165 457,165 457,164 457,164 457,164 457,164 457,164 457,163 457,163 457,163 457,163 457,163 457,162 458,162 458,162 458,162 458,161 458,161 458,161 458,161 458,160 458,160 458,160 458,160 458,160 458,159 459,159 459,159 459,159 459,158 459,158 459,158 459,157 459,157 459,157 459,156 459,156 459,155 459,155 460,155 460,154 460,154 460,153 460,153 460,153 460,153 460,152 460,151 460,151 460,151 460,151 460,151 461,151 461,151 461,151 461,151 461,151 461,150 461,150 461,150 461,150 461,150 461,150 461,150 461,150 462,150 462,149 462,149 462,149 462,149 462,149 462,149 462,149 462,149 462,150 462,150 462,150 462,150 463,151 463,151 463,151 463,151 463,151 463,152 463,152 463,152 463,152 463,153 463,153 463,153 463,153 464,154 464,154 464,154 464,154 464,155 464,155 464,155 464,155 464,155 464,155 464,155 464,155 464,155 465,155 465,155 465,155 465,155 465,155 465,155 465,156 465,156 465,156 465,156 465,157 465,157 465,157 466,157 466,158 466,158 466,158 466,158 466,158 466,159 466,159 466,160 466,161 466,162 466,163 466,163 467,164 467,165 467,165 467,165 467,166 467,166 467,167 467,167 467,167 467,167 467,167 467,168 467,168 468,168 468,168 468,169 468,169 468,169 468,170 468,170 468,170 468,170 468,170 468,170 468,170 468,170 469,170 469,170 469,170 469,170 469,170 469,170 469,170 469,170 469,170 469,170 469,170 469,170 469,170 470,170 470,170 470,171 470,171 470,171 470,171 470,171 470,171 470,171 470,171 470,171 470,171 470,171 471,171 471,171 471,172 471,171 471,172 471,172 471,172 471,173 471,174 471,174 471,174 471,173 472,172 472,172 472,172 472,172 472,171 472,171 472,171 472,170 472,170 472,170 472,169 472,169 472,169 473,169 473,169 473,168 473,168 473,168 473,167 473,167 473,167 473,166 473,166 473,166 473,165 473,165 474,165 474,165 474,166 474,166 474,166 474,166 474,166 474,166 474,166 474,166 474,166 474,166 474,166 475,166 475,166 475,166 475,166 475,165 475,165 475,165 475,165 475,165 475,165 475,165 475,165 475,165 476,165 476,165 476,165 476,165 476,165 476,166 476,165 476,165 476,165 476,165 476,165 476,165 476,165 477,165 477,165 477,166 477,166 477,166 477,166 477,166 477,166 477,166 477,166 477,167 477,167 477,167 478,167 478,167 478,167 478,167 478,167 478,167 478,167 478,167 478,167 478,168 478,168 478,168 478,168 479,168 479,168 479,168 479,168 479,168 479,168 479,168 479,168 479,168 479,168 479,168 479,168 479,168 480,168 480,168 480,168 480,168 480,167 480,167 480,167 480,168 480,168 480,168 480,168 480,168 480,168 481,168 481,168 481,168 481,168 481,168 481,168 481,168 481,168 481,168 481,168 481,168 481,168 481,168 482,168 482,168 482,168 482,169 482,169 482,169 482,169 482,169 482,169 482,169 482,170 482,170 482,170 483,170 483,170 483,170 483,170 483,170 483,170 483,171 483,171 483,171 483,171 483,172 483,172 483,172 484,172 484,172 484,172 484,172 484,172 484,172 484,173 484,173 484,173 484,173 484,174 484,174 484,174 485,174 485,175 485,175 485,175 485,175 485,175 485,175 485,175 485,175 485,175 485,175 485,175 485,174 486,174 486,174 486,174 486,174 486,174 486,174 486,173 486,173 486,173 486,172 486,172 486,172 486,172 487,171 487,172 487,172 487,172 487,172 487,172 487,173 487,173 487,172 487,171 487,171 487,170 487,170 488,170 488,169 488,169 488,169 488,170 488,170 488,170 488,170 488,170 488,170 488,170 488,170 488,170 489,170 489,170 489,170 489,170 489,170 489,170 489,171 489,171 489,171 489,171 489,171 489,172 489,172 490,173 490,173 490,174 490,175 490,176 490,176 490,176 490,177 490,177 490,177 490,177 490,177 490,178 491,178 491,178 491,178 491,178 491,178 491,178 491,179 491,179 491,179 491,179 491,179 491,179 491,179 492,179 492,179 492,179 492,179 492,179 492,179 492,179 492,179 492,179 492,179 492,179 492,179 492,179 493,179 493,179 493,179 493,179 493,180 493,180 493,180 493,180 493,179 493,179 493,179 493,180 493,180 494,180 494,179 494,179 494,179 494,179 494,179 494,178 494,178 494,178 494,178 494,178 494,178 494,178 495,178 495,178 495,178 495,178 495,178 495,178 495,177 495,178 495,178 495,178 495,178 495,178 495,178 496,178 496,179 496,179 496,179 496,179 496,179 496,180 496,180 496,180 496,180 496,180 496,181 496,181 497,181 497,181 497,181 497,181 497,181 497,181 497,181 497,181 497,181 497,181 497,181 497,181 497,181 498,180 498,180 498,179 498,179 498,179 498,179 498,179 498,178 498,178 498,178 498,178 498,177 498,177 499,177 499,177 499,176 499,176 499,175 499,175 499,175 499,174 499,174 499,173 499,173 499,173 499,172 500,172 500,172 500,171 500,171 500,171 500,170 500,170 500,169 500,169 500,168 500,168 500,168 500,167 501,167 501,166 501,166 501,165 501,165 501,165 501,164 501,164 501,163 501,163 501,162 501,162 501,161 502,160 502,160 502,159 502,158 502,158 502,158 502,158 502,158 502,158 502,158 502,158 502,158 502,158 503,158 503,158 503,158 503,158 503,158 503,158 503,158 503,158 503,158 503,158 503,159 503,159 503,159 504,159 504,160 504,160 504,160 504,160 504,160 504,160 504,160 504,160 504,160 504,160 504,160 504,159 505,159 505,159 505,159 505,159 505,159 505,159 505,159 505,158 505,158 505,158 505,158 505,158 505,158 506,158 506,158 506,158 506,158 506,158 506,158 506,158 506,158 506,158 506,158 506,158 506,158 506,159 507,159 507,159 507,159 507,160 507,160 507,160 507,161 507,161 507,161 507,161 507,162 507,162 507,162 508,162 508,162 508,163 508,163 508,163 508,163 508,163 508,163 508,163 508,163 508,163 508,163 508,163 509,163 509,163 509,163 509,163 509,164 509,164 509,164 509,164 509,165 509,165 509,165 509,165 510,165 510,165 510,165 510,165 510,165 510,165 510,166 510,166 510,166 510,167 510,167 510,167 510,168 511,168 511,168 511,169 511,169 511,170 511,170 511,170 511,171 511,171 511,171 511,171 511,171 511,171 512,171 512,171 512,171 512,171 512,171 512,171 512,171 512,171 512,171 512,171 512,172 512,172 512,172 513,172 513,172 513,172 513,172 513,172 513,172 513,172 513,172 513,172 513,172 513,172 513,172 513,172 514,172 514,172 514,172 514,172 514,172 514,172 514,173 514,173 514,173 514,174 514,175 514,176 514,177 515,177 515,178 515,178 515,179 515,179 515,180 515,180 515,180 515,181 515,181 515,181 515,181 515,181 516,181 516,182 516,182 516,182 516,182 516,182 516,182 516,182 516,183 516,182 516,182 516,182 516,182 517,182 517,182 517,182 517,182 517,181 517,181 517,181 517,181 517,180 517,180 517,179 517,179 517,179 518,178 518,178 518,178 518,177 518,177 518,176 518,176 518,176 518,176 518,176 518,176 518,176 518,176 519,175 519,175 519,175 519,175 519,175 519,175 519,175 519,175 519,175 519,175 519,175 519,175 519,175 520,175 520,175 520,175 520,175 520,175 520,175 520,176 520,176 520,176 520,176 520,176 520,176 520,176 521,176 521,176 521,176 521,177 521,177 521,177 521,177 521,177 521,176 521,176 521,176 521,175 521,175 522,175 522,175 522,174 522,174 522,174 522,173 522,173 522,173 522,173 522,172 522,172 522,172 522,172 523,172 523,172 523,172 523,171 523,171 523,171 523,171 523,171 523,171 523,170 523,170 523,170 523,170 524,170 524,170 524,170 524,170 524,170 524,170 524,170 524,170 524,170 524,170 524,170 524,170 524,170 525,170 525,171 525,171 525,171 525,171 525,171 525,172 525,172 525,172 525,172 525,172 525,173 525,173 526,173 526,173 526,173 526,173 526,173 526,173 526,173 526,173 526,173 526,174 526,174 526,174 526,174 527,174 527,174 527,174 527,175 527,175 527,175 527,175 527,175 527,176 527,176 527,177 527,177 527,177 528,177 528,177 528,178 528,178 528,178 528,179 528,179 528,179 528,179 528,180 528,180 528,181 528,181 529,181 529,182 529,182 529,182 529,182 529,182 529,182 529,182 529,182 529,183 529,183 529,183 529,183 530,183 530,183 530,184 530,184 530,184 530,184 530,184 530,184 530,185 530,185 530,185 530,185 530,185 531,185 531,186 531,186 531,186 531,186 531,186 531,187 531,187 531,187 531,187 531,188 531,188 531,188 532,189 532,189 532,189 532,190 532,190 532,190 532,191 532,191 532,192 532,192 532,193 532,193 532,193 533,193 533,193 533,193 533,194 533,194 533,194 533,195 533,195 533,195 533,194 533,195 533,195 533,195 534,195 534,195 534,195 534,195 534,195 534,195 534,195 534,195 534,195 534,196 534,196 534,197 534,198 535,198 535,199 535,199 535,200 535,200 535,201 535,201 535,202 535,202 535,203 535,203 535,203 535,204 536,204 536,205 536,206 536,206 536,206 536,206 536,206 536,207 536,207 536,207 536,207 536,207 536,207 537,206 537,206 537,206 537,206 537,205 537,205 537,205 537,205 537,204 537,204 537,204 537,204 537,204 538,203 538,203 538,203 538,203 538,203 538,203 538,203 538,202 538,202 538,202 538,201 538,201 538,200 539,199 539,199 539,198 539,198 539,198 539,197 539,197 539,197 539,197 539,197 539,198 539,198 539,198 540,198 540,199 540,199 540,199 540,200 540,200 540,201 540,201 540,201 540,202 540,202 540,203 540,203 541,203 541,204 541,204 541,205 541,205 541,206 541,206 541,207 541,207 541,208 541,208 541,209 541,210 542,210 542,209 542,210 542,210 542,211 542,212 542,212 542,212 542,212 542,212 542,213 542,213 542,213 543,214 543,214 543,214 543,215 543,215 543,216 543,216 543,216 543,217 543,217 543,217 543,218 543,218 544,218 544,219 544,219 544,219 544,219 544,220 544,220 544,220 544,220 544,221 544,221 544,222 544,222 545,222 545,222 545,222 545,222 545,222 545,222 545,223 545,223 545,222 545,222 545,222 545,222 545,222 546,222 546,221 546,221 546,221 546,221 546,221 546,221 546,221 546,221 546,222 546,222 546,222 546,223 547,223 547,223 547,224 547,224 547,224 547,224 547,225 547,225 547,225 547,225 547,225 547,226 547,226 548,226 548,226 548,226 548,227 548,227 548,227 548,227 548,227 548,227 548,228 548,228 548,228 549,228 549,228 549,228 549,228 549,228 549,228 549,228 549,227 549,227 549,227 549,227 549,227 549,227 550,227 550,226 550,226 550,226 550,226 550,225 550,225 550,225 550,224 550,224 550,224 550,223 550,223 551,223 551,222 551,222 551,221 551,221 551,220 551,220 551,219 551,219 551,219 551,218 551,218 551,217 552,217 552,216 552,215 552,215 552,214 552,214 552,214 552,214 552,213 552,213 552,213 552,212 552,212 553,212 553,212 553,212 553,212 553,212 553,212 553,213 553,213 553,213 553,214 553,214 553,214 553,215 554,215 554,215 554,215 554,216 554,215 554,215 554,215 554,215 554,215 554,214 554,214 554,213 554,213 555,212 555,212 555,212 555,211 555,211 555,211 555,210 555,210 555,209 555,209 555,208 555,207 555,206 556,206 556,206 556,205 556,205 556,204 556,204 556,203 556,203 556,202 556,202 556,201 556,201 556,200 557,200 557,200 557,199 557,199 557,199 557,198 557,198 557,198 557,198 557,197 557,197 557,196 557,196 558,195 558,195 558,195 558,194 558,194 558,194 558,194 558,194 558,194 558,194 558,194 558,194 558,193 559,193 559,193 559,193 559,193 559,193 559,192 559,192 559,192 559,192 559,192 559,192 559,192 559,192 560,192 560,192 560,192 560,192 560,192 560,192 560,192 560,192 560,192 560,192 560,192 560,192 560,192 561,192 561,192 561,192 561,192 561,192 561,192 561,193 561,193 561,193 561,193 561,193 561,194 561,194 562,194 562,194 562,195 562,195 562,196 562,196 562,196 562,197 562,197 562,197 562,198 562,198 562,199 563,199 563,200 563,200 563,201 563,202 563,202 563,203 563,204 563,204 563,205 563,205 563,205 563,206 564,206 564,207 564,207 564,208 564,208 564,208 564,208 564,208 564,208 564,208 564,208 564,208 564,208 565,208 565,208 565,209 565,209 565,209 565,210 565,210 565,211 565,211 565,212 565,212 565,212 565,213 566,213 566,214 566,214 566,214 566,214 566,214 566,214 566,214 566,215 566,215 566,215 566,215 566,216 567,216 567,216 567,216 567,216 567,216 567,216 567,216 567,216 567,216 567,216 567,216 567,216 567,216 568,215 568,215 568,215 568,215 568,214 568,215 568,215 568,215 568,215 568,214 568,214 568,214 568,214 569,214 569,213 569,213 569,213 569,213 569,212 569,212 569,212 569,211 569,211 569,211 569,211 569,211 570,210 570,210 570,209 570,209 570,209 570,208 570,208 570,208 570,209 570,209 570,210 570,209 570,208 571,208 571,208 571,207 571,207 571,207 571,207 571,207 571,207 571,207 571,206 571,206 571,206 571,206 572,206 572,206 572,206 572,206 572,206 572,205 572,205 572,205 572,205 572,205 572,205 572,205 572,205 573,206 573,206 573,206 573,206 573,206 573,206 573,207 573,207 573,207 573,207 573,208 573,208 573,208 574,209 574,209 574,209 574,209 574,209 574,209 574,210 574,210 574,210 574,210 574,210 574,211 574,211 575,212 575,213 575,213 575,214 575,215 575,215 575,216 575,216 575,217 575,217 575,217 575,218 575,218 576,218 576,218 576,219 576,219 576,219 576,220 576,220 576,221 576,221 576,222 576,222 576,223 576,223 577,224 577,225 577,225 577,226 577,226 577,227 577,227 577,228 577,228 577,229 577,229 577,230 577,230 578,231 578,231 578,232 578,232 578,232 578,232 578,232 578,233 578,233 578,233 578,233 578,233 578,233 579,233 579,233 579,234 579,234 579,234 579,234 579,234 579,234 579,234 579,234 579,234 579,234 579,234 580,234 580,234 580,234 580,234 580,235 580,235 580,235 580,235 580,235 580,235 580,235 580,235 580,235 581,235 581,236 581,236 581,236 581,236 581,236 581,236 581,236 581,236 581,236 581,236 581,236 581,237 582,237 582,237 582,236 582,236 582,236 582,236 582,236 582,236 582,236 582,236 582,236 582,236 582,236 583,235 583,235 583,235 583,235 583,235 583,235 583,235 583,235 583,235 583,235 583,235 583,235 583,235 584,235 584,235 584,235 584,235 584,235 584,235 584,236 584,236 584,236 584,236 584,236 584,236 584,237 585,237 585,237 585,237 585,237 585,237 585,237 585,238 585,238 585,238 585,238 585,238 585,239 585,239 586,239 586,239 586,239 586,240 586,240 586,240 586,240 586,240 586,240 586,240 586,241 586,241 587,241 587,241 587,241 587,241 587,241 587,242 587,242 587,242 587,242 587,242 587,242 587,243 587,243 588,243 588,243 588,243 588,243 588,243 588,243 588,244 588,244 588,244 588,244 588,244 588,244 588,244 589,244 589,244 589,244 589,244 589,245 589,245 589,245 589,245 589,245 589,245 589,245 589,245 589,245 590,245 590,245 590,245 590,245 590,246 590,246 590,246 590,246 590,246 590,246 590,246 590,246 590,246 591,246 591,246 591,246 591,246 591,246 591,246 591,246 591,246 591,246 591,247 591,247 591,247 591,247 592,247 592,247 592,247 592,247 592,247 592,247 592,247 592,247 592,248 592,248 592,247 592,247 592,247 593,247 593,247 593,247 593,247 593,248 593,247 593,247 593,247 593,247 593,247 593,247 593,247 593,247 594,247 594,248 594,248 594,248 594,248 594,248 594,248 594,248 594,248 594,248 594,248 594,248 594,248 595,248 595,248 595,248 595,248 595,248 595,248 595,248 595,248 595,248 595,248 595,248 595,248 595,249 596,249 596,249 596,249 596,249 596,249 596,249 596,249 596,249 596,249 596,249 596,249 596,249 596,249 597,249 597,249 597,249 597,249 597,249 597,249 597,249 597,249 597,249 597,249 597,249 597,249 597,250 598,250 598,250 598,250 598,250 598,250 598,250 598,250 598,250 598,250 598,250 598,250 598,250 598,250 599,250 599,250 599,250 599,250 599,250 599,250 599,250 599,250 599,250 599,250 599,250 599,250 599,250 600,250 600,250 600,250 600,250 600,250 600,250 600,250 600,250 600,250 600,250 600,250 600,250 600,250 601,250 601,250 601,250 601,250 601,250 601,250 601,250 601,250 601,250 601,250 601,250 601,249 601,249 602,249 602,249 602,249 602,249 602,249 602,248 602,248 602,248 602,248 602,248 602,248 602,248 602,248 603,247 603,247 603,247 603,247 603,247 603,247 603,246 603,246 603,246 603,246 603,246 603,245 603,245 604,245 604,245 604,244 604,244 604,244 604,243 604,243 604,243 604,242 604,242 604,241 604,241 604,241 605,240 605,240 605,239 605,239 605,238 605,238 605,237 605,237 605,236 605,236 605,235 605,235 605,234 606,234 606,234 606,233 606,233 606,233 606,233 606,232 606,232 606,232 606,232 606,233 606,233 606,233 607,233 607,233 607,232 607,232 607,231 607,231 607,231 607,230 607,230 607,229 607,229 607,228 607,228 608,228 608,228 608,227 608,227 608,227 608,227 608,227 608,227 608,227 608,227 608,228 608,228 608,228 609,228 609,228 609,229 609,229 609,229 609,229 609,230 609,230 609,230 609,231 609,231 609,231 609,231 610,232 610,232 610,232 610,233 610,233 610,233 610,234 610,234 610,234 610,235 610,235 610,235 610,236 611,236 611,237 611,237 611,237 611,238 611,238 611,239 611,239 611,240 611,240 611,241 611,241 611,242 612,242 612,242 612,243 612,243 612,244 612,244 612,245 612,245 612,245 612,246 612,246 612,246 612,247 613,247 613,247 613,247 613,248 613,248 613,248 613,248 613,248 613,248 613,248 613,248 613,248 613,248 614,248 614,248 614,248 614,248 614,248 614,248 614,248 614,248 614,248 614,248 614,248 614,248 614,248 615,248 615,248 615,249 615,249 615,249 615,249 615,249 615,250 615,250 615,250 615,250 615,251 615,251 616,251 616,252 616,252 616,253 616,253 616,253 616,254 616,254 616,254 616,255 616,255 616,255 616,255 617,256 617,256 617,256 617,256 617,256 617,256 617,256 617,256 617,255 617,255 617,254 617,254 617,253 618,253 618,252 618,251 618,251 618,250 618,250 618,249 618,249 618,249 618,249 618,250 618,250 618,250 619,250 619,250 619,250 619,250 619,250 619,250 619,250 619,250 619,250 619,250 619,250 619,250 619,250 620,250 620,250 620,250 620,250 620,249 620,249 620,249 620,249 620,249 620,249 620,249 620,249 620,249 621,249 621,250 621,250 621,250 621,250 621,250 621,251 621,251 621,251 621,252 621,252 621,252 621,252 622,253 622,253 622,254 622,254 622,254 622,255 622,255 622,255 622,256 622,256 622,257 622,257 622,257 623,258 623,258 623,259 623,259 623,259 623,259 623,260 623,260 623,260 623,261 623,261 623,261 623,262 624,262 624,262 624,262 624,263 624,263 624,263 624,263 624,262 624,262 624,262 624,262 624,261 624,260 625,260 625,259 625,259 625,259 625,258 625,258 625,258 625,257 625,257 625,256 625,256 625,256 626,255 626,255 626,255 626,254 626,254 626,254 626,253 626,253 626,253 626,253 626,253 626,252 626,252 627,252 627,252 627,252 627,251 627,251 627,251 627,251 627,252 627,252 627,252 627,252 627,252 627,252 628,252 628,252 628,252 628,253 628,253 628,253 628,253 628,253 628,253 628,254 628,254 628,254 628,254 629,254 629,254 629,253 629,253 629,253 629,252 629,252 629,251 629,251 629,251 629,251 629,250 629,250 630,250 630,250 630,250 630,250 630,250 630,250 630,250 630,250 630,249 630,249 630,249 630,248 630,248 631,247 631,247 631,247 631,246 631,246 631,246 631,245 631,245 631,245 631,244 631,244 631,244 631,244 632,244 632,244 632,244 632,244 632,244 632,244 632,243 632,243 632,243 632,243 632,243 632,243 632,243 633,242 633,242 633,242 633,242 633,242 633,243 633,243 633,243 633,244 633,244 633,244 633,245 633,245 634,246 634,246 634,247 634,247 634,248 634,248 634,249 634,249 634,250 634,250 634,250 634,251 634,251 635,251 635,251 635,252 635,252 635,252 635,252 635,252 635,252 635,253 635,253 635,253 635,254 635,254 636,254 636,255 636,255 636,255 636,256 636,256 636,256 636,256 636,257 636,257 636,257 636,257 636,258 637,258 637,258 637,258 637,259 637,259 637,259 637,259 637,260 637,260 637,260 637,261 637,261 637,261 638,261 638,261 638,262 638,262 638,262 638,262 638,262 638,262 638,262 638,263 638,263 638,263 638,263 639,264 639,264 639,264 639,264 639,265 639,265 639,266 639,266 639,266 639,267 639,267 639,267 639,267 640,268 640,268 640,268 640,268 640,268 640,268 640,268 640,268 640,268 640,268 640,268 640,268 640,268 641,267 641,267 641,268 641,268 641,268 641,268 641,268 641,268 641,268 641,268 641,268 641,268 641,268 642,268 642,268 642,268 642,267 642,267 642,267 642,267 642,267 642,267 642,267 642,267 642,267 642,267 643,267 643,267 643,267 643,267 643,268 643,268 643,268 643,268 643,269 643,269 643,269 643,269 643,269 644,269 644,269 644,269 644,269 644,269 644,269 644,269 644,269 644,269 644,269 644,269 644,269 644,269 645,269 645,269 645,269 645,269 645,269 645,269 645,269 645,270 645,270 645,270 645,270 645,270 645,271 646,271 646,271 646,271 646,272 646,272 646,272 646,273 646,273 646,273 646,273 646,274 646,274 646,274 647,275 647,275 647,275 647,276 647,276 647,276 647,277 647,277 647,277 647,277 647,277 647,277 647,277 648,277 648,277 648,277 648,277 648,278 648,278 648,278 648,278 648,279 648,279 648,279 648,279 648,279 649,279 649,280 649,280 649,280 649,280 649,281 649,281 649,281 649,281 649,280 649,280 649,280 649,280 650,280 650,279 650,278 650,277 650,277 650,276 650,275 650,275 650,274 650,274 650,273 650,272 650,272 651,271 651,271 651,271 651,270 651,270 651,270 651,269 651,269 651,269 651,269 651,269 651,268 651,268 652,268 652,268 652,268 652,269 652,269 652,269 652,269 652,270 652,270 652,270 652,271 652,271 652,271 653,272 653,272 653,272 653,272 653,272 653,272 653,272 653,272 653,272 653,272 653,271 653,271 653,271 654,271 654,271 654,270 654,270 654,270 654,270 654,270 654,270 654,270 654,270 654,270 654,271 654,271 655,272 655,272 655,272 655,273 655,274 655,274 655,276 655,276 655,277 655,277 655,278 655,278 655,277 656,277 656,277 656,276 656,276 656,276 656,276 656,276 656,276 656,276 656,276 656,276 656,276 656,276 657,275 657,275 657,275 657,275 657,274 657,274 657,275 657,275 657,275 657,275 657,276 657,277 657,277 658,278 658,279 658,280 658,280 658,281 658,281 658,282 658,282 658,283 658,283 658,282 658,282 658,282 659,282 659,281 659,281 659,280 659,280 659,280 659,280 659,280 659,280 659,279 659,279 659,279 659,280 660,280 660,280 660,280 660,280 660,281 660,281 660,281 660,282 660,282 660,282 660,283 660,284 660,285 661,286 661,287 661,288 661,289 661,290 661,291 661,292 661,292 661,293 661,294 661,294 661,295 661,295 662,296 662,296 662,297 662,297 662,298 662,298 662,298 662,299 662,299 662,299 662,299 662,299 662,299 663,299 663,299 663,299 663,299 663,299 663,299 663,300 663,299 663,299 663,299 663,299 663,299 664,299 664,299 664,299 664,299 664,299 664,299 664,299 664,299 664,299 664,299 664,299 664,299 664,300 665,300 665,300 665,300 665,300 665,300 665,300 665,300 665,300 665,300 665,300 665,300 665,300 665,301 666,301 666,301 666,301 666,301 666,300 666,300 666,300 666,299 666,299 666,299 666,298 666,298 666,298 667,297 667,297 667,297 667,296 667,296 667,296 667,296 667,295 667,295 667,294 667,294 667,293 667,292 668,292 668,292 668,291 668,290 668,290 668,289 668,288 668,288 668,287 668,287 668,286 668,285 668,284 669,284 669,283 669,282 669,281 669,280 669,280 669,279 669,279 669,278 669,277 669,277 669,277 669,277 670,276 670,276 670,276 670,276 670,275 670,275 670,275 670,275 670,274 670,274 670,274 670,274 670,274 671,273 671,273 671,273 671,273 671,273 671,273 671,273 671,272 671,272 671,272 671,272 671,272 671,272 672,272 672,272 672,272 672,272 672,272 672,272 672,272 672,272 672,272 672,272 672,272 672,272 672,273 673,273 673,273 673,273 673,273 673,273 673,273 673,273 673,273 673,273 673,273 673,273 673,274 673,274 674,274 674,274 674,274 674,274 674,274 674,274 674,274 674,274 674,274 674,274 674,274 674,274 674,274 675,274 675,274 675,274 675,274 675,274 675,274 675,274 675,275 675,275 675,275 675,275 675,275 675,275 676,275 676,275 676,275 676,275 676,274 676,274 676,274 676,274 676,274 676,274 676,274 676,274 676,274 677,273 677,273 677,273 677,273 677,273 677,273 677,273 677,273 677,273 677,272 677,272 677,272 677,272 678,272 678,272 678,272 678,272 678,271 678,271 678,271 678,271 678,271 678,271 678,271 678,270 678,270 679,270 679,270 679,270 679,270 679,270 679,269 679,269 679,269 679,269 679,269 679,269 679,268 679,268 680,268 680,268 680,268 680,267 680,267 680,267 680,267 680,267 680,266 680,266 680,266 680,266 680,266 681,266 681,266 681,265 681,265 681,265 681,265 681,265 681,265 681,265 681,265 681,265 681,265 681,265 682,265 682,266 682,266 682,266 682,266 682,266 682,266 682,266 682,266 682,266 682,266 682,266 682,266 683,267 683,267 683,267 683,267 683,267 683,267 683,267 683,268 683,268 683,268 683,268 683,268 683,268 684,269 684,269 684,269 684,269 684,269 684,269 684,269 684,269 684,270 684,270 684,270 684,270 684,270 685,270 685,270 685,270 685,271 685,271 685,271 685,271 685,271 685,271 685,272 685,272 685,272 685,272 686,272 686,272 686,273 686,273 686,273 686,273 686,273 686,273 686,273 686,274 686,274 686,274 686,274 687,274 687,274 687,274 687,274 687,274 687,274 687,275 687,275 687,275 687,275 687,275 687,275 687,275 688,275 688,275 688,275 688,275 688,275 688,275 688,276 688,276 688,276 688,276 688,276 688,276 688,276 689,276 689,276 689,276 689,276 689,276 689,276 689,277 689,277 689,277 689,277 689,277 689,277 689,277 690,277 690,277 690,277 690,277 690,278 690,278 690,278 690,278 690,278 690,278 690,278 690,278 690,278 691,278 691,278 691,278 691,278 691,278 691,278 691,278 691,278 691,278 691,278 691,278 691,278 691,278 692,278 692,278 692,278 692,278 692,278 692,278 692,278 692,278 692,278 692,278 692,278 692,277 692,277 693,277 693,277 693,277 693,277 693,277 693,277 693,277 693,277 693,277 693,277 693,277 693,277 693,277 694,277 694,276 694,276 694,276 694,276 694,276 694,276 694,276 694,276 694,276 694,276 694,276 694,276 695,276 695,276 695,275 695,275 695,275 695,275 695,275 695,275 695,275 695,275 695,275 695,275 695,275 696,274 696,274 696,274 696,274 696,274 696,274 696,274 696,274 696,273 696,273 696,273 696,273 696,273 697,273 697,273 697,273 697,273 697,272 697,272 697,272 697,272 697,272 697,272 697,272 697,272 697,271 698,271 698,271 698,271 698,271 698,271 698,271 698,271 698,270 698,270 698,270 698,270 698,270 698,270 699,270 699,270 699,270 699,270 699,269 699,269 699,269 699,269 699,269 699,269 699,269 699,268 699,268 700,268 700,268 700,268 700,268 700,268 700,267 700,267 700,267 700,267 700,267 700,267 700,266 700,266 701,266 701,266 701,266 701,266 701,266 701,266 701,266 701,266 701,265 701,265 701,265 701,265 701,265 702,265 702,264 702,264 702,264 702,264 702,264 702,264 702,263 702,263 702,263 702,263 702,263 703,262 703,262 703,262 703,262 703,262 703,262 703,261 703,261 703,261 703,261 703,261 703,261 703,261 704,261 704,261 704,261 704,261 704,260 704,260 704,260 704,260 704,260 704,260 704,260 704,260 704,260 705,260 705,259 705,259 705,259 705,259 705,259 705,259 705,259 705,259 705,259 705,258 705,258 705,258 706,258 706,258 706,258 706,258 706,258 706,257 706,257 706,257 706,257 706,257 706,257 706,256 706,256 707,256 707,256 707,256 707,256 707,255 707,255 707,255 707,255 707,255 707,255 707,255 707,254 707,254 708,254 708,253 708,252 708,252 708,251 708,251 708,251 708,250 708,249 708,249 708,249 708,249 708,249 709,248 709,248 709,248 709,248 709,249 709,249 709,249 709,248 709,248 709,247 709,247 709,246 709,245 710,243 710,241 710,240 710,239 710,238 710,237 710,236 710,235 710,235 710,234 710,234 710,233 710,232 711,232 711,231 711,230 711,230 711,229 711,229 711,228 711,228 711,227 711,227 711,226 711,225 711,224 712,224 712,223 712,223 712,222 712,222 712,221 712,221 712,221 712,221 712,221 712,221 712,221 712,221 713,221 713,222 713,222 713,222 713,222 713,222 713,222 713,222 713,223 713,223 713,223 713,223 713,223 714,223 714,224 714,224 714,224 714,224 714,224 714,225 714,225 714,225 714,225 714,225 714,225 714,226 715,226 715,226 715,226 715,226 715,227 715,227 715,227 715,227 715,227 715,228 715,228 715,228 715,228 716,228 716,228 716,228 716,228 716,229 716,229 716,229 716,229 716,230 716,230 716,230 716,230 716,231 717,231 717,231 717,231 717,231 717,231 717,231 717,231 717,232 717,232 717,232 717,232 717,233 717,233 718,233 718,233 718,233 718,233 718,234 718,234 718,234 718,234 718,235 718,235 718,235 718,235 718,235 719,236 719,236 719,236 719,236 719,236 719,236 719,236 719,236 719,236 719,237 719,237 719,237 719,237 720,237 720,237 720,237 720,238 720,238 720,238 720,238 720,238 720,238 720,238 720,239 720,239 720,239 721,239 721,239 721,239 721,239 721,239 721,239 721,239 721,238 721,238 721,238 721,238 721,238 721,237 722,237 722,237 722,237 722,237 722,237 722,237 722,237 722,237 722,237 722,237 722,237 722,236 722,236 723,236 723,236 723,236 723,236 723,236 723,236 723,236 723,236 723,236 723,236 723,236 723,236 723,236 724,236 724,236 724,237 724,237 724,237 724,237 724,237 724,237 724,238 724,238 724,238 724,239 724,239 725,239 725,239 725,240 725,240 725,240 725,241 725,241 725,241 725,241 725,241 725,241 725,241 725,241 726,241 726,241 726,241 726,241 726,241 726,241 726,241 726,241 726,241 726,241 726,241 726,242 726,242 727,242 727,243 727,243 727,243 727,244 727,244 727,244 727,245 727,245 727,245 727,246 727,246 727,246 728,247 728,247 728,247 728,247 728,248 728,248 728,248 728,249 728,249 728,249 728,249 728,249 728,249 729,249 729,248 729,248 729,247 729,247 729,246 729,246 729,246 729,246 729,245 729,245 729,245 729,245 730,245 730,245 730,244 730,243 730,242 730,240 730,239 730,239 730,239 730,239 730,238 730,238 730,237 731,237 731,237 731,236 731,236 731,236 731,236 731,236 731,235 731,235 731,235 731,235 731,235 731,234 732,234 732,235 732,236 732,237 732,238 732,236 732,235 732,234 732,233 732,233 732,233 732,233 732,233 733,233 733,233 733,232 733,232 733,232 733,232 733,232 733,232 733,231 733,231 733,231 733,231 733,231 734,231 734,231 734,231 734,231 734,231 734,231 734,230 734,230 734,230 734,230 734,230 734,230 734,230 735,230 735,230 735,230 735,230 735,230 735,230 735,230 735,230 735,229 735,229 735,230 735,230 735,230 736,230 736,230 736,230 736,230 736,230 736,231 736,231 736,231 736,231 736,231 736,232 " vector-effect="non-scaling-stroke"></polyline>
</g></svg>