<?xml version="1.0" encoding="UTF-8" standalone="no"?><svg width="282.222mm" height="141.111mm" xmlns="http://www.w3.org/2000/svg" xmlns:xlink="http://www.w3.org/1999/xlink"  version="1.2" baseProfile="tiny"><g fill="none" stroke="#ff0000" stroke-linecap="round" stroke-linejoin="round" stroke-opacity="1" stroke-width="1.5" transform="matrix(1,0,0,1,0,0)">
<polyline fill="none" points="61,284 61,284 61,284 61,284 61,284 62,284 62,284 62,283 62,283 62,283 62,283 62,283 62,283 62,283 62,283 62,283 62,283 62,283 63,283 63,283 63,283 63,283 63,282 63,282 63,282 63,282 63,282 63,282 63,282 63,282 63,282 64,282 64,281 64,281 64,281 64,281 64,281 64,281 64,281 64,281 64,281 64,281 64,281 64,281 65,280 65,280 65,280 65,280 65,280 65,280 65,280 65,280 65,280 65,280 65,280 65,279 65,279 66,279 66,279 66,279 66,279 66,279 66,279 66,278 66,278 66,278 66,278 66,278 66,278 66,278 67,278 67,278 67,278 67,278 67,278 67,278 67,278 67,278 67,278 67,278 67,278 67,277 67,277 68,277 68,277 68,277 68,277 68,276 68,276 68,276 68,276 68,276 68,276 68,275 68,275 68,275 69,275 69,275 69,274 69,274 69,274 69,274 69,274 69,274 69,274 69,274 69,274 69,274 69,273 70,273 70,273 70,273 70,273 70,273 70,273 70,273 70,273 70,273 70,273 70,273 70,273 70,273 71,273 71,272 71,272 71,272 71,272 71,272 71,272 71,272 71,272 71,271 71,271 71,271 71,271 72,271 72,271 72,270 72,270 72,270 72,270 72,269 72,269 72,269 72,269 72,268 72,268 72,268 73,267 73,267 73,266 73,266 73,266 73,266 73,266 73,265 73,265 73,265 73,264 73,264 73,264 74,264 74,264 74,264 74,264 74,265 74,265 74,265 74,265 74,265 74,265 74,265 74,265 74,266 75,266 75,266 75,267 75,267 75,267 75,267 75,267 75,267 75,267 75,267 75,267 75,267 75,267 76,267 76,268 76,268 76,268 76,268 76,268 76,268 76,269 76,270 76,272 76,273 76,274 76,275 77,275 77,276 77,277 77,277 77,277 77,277 77,277 77,278 77,279 77,280 77,281 77,282 77,283 78,284 78,285 78,286 78,286 78,286 78,286 78,286 78,285 78,284 78,283 78,283 78,283 78,282 79,282 79,282 79,282 79,282 79,282 79,281 79,281 79,281 79,281 79,281 79,281 79,281 79,280 80,280 80,280 80,280 80,280 80,280 80,280 80,280 80,281 80,281 80,281 80,282 80,282 80,282 81,283 81,284 81,285 81,286 81,286 81,286 81,287 81,287 81,287 81,287 81,287 81,287 81,288 82,288 82,288 82,288 82,288 82,288 82,288 82,288 82,288 82,288 82,288 82,287 82,287 83,287 83,288 83,288 83,288 83,288 83,288 83,288 83,288 83,288 83,288 83,289 83,289 83,289 84,289 84,289 84,289 84,289 84,289 84,289 84,289 84,289 84,289 84,289 84,289 84,288 84,288 85,288 85,287 85,287 85,286 85,286 85,287 85,287 85,287 85,287 85,287 85,287 85,287 85,287 86,287 86,287 86,287 86,287 86,287 86,287 86,287 86,287 86,286 86,286 86,286 86,286 86,286 87,286 87,286 87,286 87,286 87,286 87,285 87,285 87,285 87,285 87,284 87,284 87,283 87,283 88,282 88,282 88,281 88,281 88,280 88,280 88,280 88,280 88,280 88,280 88,280 88,280 88,280 89,279 89,279 89,279 89,279 89,279 89,278 89,278 89,278 89,277 89,277 89,277 89,277 89,277 90,277 90,276 90,275 90,275 90,274 90,274 90,274 90,274 90,273 90,273 90,273 90,272 90,272 91,271 91,270 91,270 91,269 91,269 91,268 91,268 91,267 91,267 91,266 91,266 91,266 91,265 92,265 92,265 92,265 92,265 92,265 92,265 92,265 92,265 92,266 92,266 92,266 92,266 92,266 93,267 93,267 93,267 93,267 93,267 93,267 93,268 93,268 93,269 93,269 93,270 93,270 93,271 94,271 94,272 94,272 94,273 94,273 94,273 94,274 94,274 94,274 94,275 94,275 94,275 94,275 95,275 95,275 95,275 95,275 95,275 95,274 95,274 95,274 95,274 95,273 95,273 95,273 95,273 96,273 96,273 96,273 96,272 96,272 96,271 96,271 96,270 96,269 96,269 96,268 96,268 96,268 97,267 97,267 97,266 97,265 97,265 97,265 97,264 97,264 97,263 97,263 97,262 97,262 97,261 98,260 98,260 98,259 98,259 98,258 98,258 98,257 98,257 98,257 98,256 98,256 98,255 98,255 99,255 99,255 99,254 99,254 99,253 99,253 99,252 99,252 99,251 99,250 99,250 99,249 99,248 100,248 100,247 100,246 100,246 100,245 100,244 100,243 100,242 100,241 100,241 100,240 100,240 100,239 101,239 101,238 101,238 101,237 101,237 101,236 101,235 101,235 101,234 101,234 101,233 101,233 101,232 102,232 102,232 102,231 102,231 102,230 102,230 102,229 102,229 102,228 102,228 102,227 102,227 102,226 103,226 103,225 103,225 103,225 103,225 103,224 103,224 103,223 103,223 103,222 103,222 103,221 103,221 104,221 104,220 104,219 104,219 104,219 104,219 104,218 104,218 104,218 104,217 104,217 104,217 104,217 105,217 105,217 105,216 105,216 105,216 105,215 105,215 105,214 105,214 105,214 105,213 105,213 105,212 106,212 106,211 106,211 106,211 106,211 106,211 106,211 106,211 106,211 106,211 106,211 106,211 106,210 107,210 107,210 107,210 107,209 107,209 107,208 107,208 107,207 107,207 107,207 107,206 107,206 107,205 108,205 108,204 108,204 108,203 108,203 108,203 108,202 108,201 108,200 108,200 108,199 108,199 108,199 109,198 109,198 109,197 109,197 109,196 109,196 109,196 109,195 109,195 109,195 109,194 109,194 109,194 110,194 110,193 110,193 110,193 110,193 110,193 110,193 110,193 110,193 110,193 110,194 110,194 110,193 111,193 111,192 111,192 111,192 111,192 111,192 111,192 111,192 111,192 111,192 111,192 111,192 111,192 112,192 112,192 112,192 112,192 112,192 112,192 112,192 112,192 112,192 112,192 112,192 112,192 112,192 113,192 113,191 113,191 113,190 113,190 113,190 113,189 113,189 113,189 113,188 113,188 113,188 113,188 114,188 114,188 114,188 114,188 114,188 114,188 114,188 114,188 114,188 114,187 114,187 114,187 114,187 115,187 115,186 115,186 115,186 115,186 115,185 115,185 115,185 115,185 115,184 115,184 115,184 115,184 116,183 116,183 116,183 116,182 116,182 116,182 116,183 116,184 116,184 116,185 116,185 116,186 116,186 117,187 117,187 117,188 117,189 117,189 117,190 117,190 117,191 117,192 117,192 117,192 117,192 117,193 118,193 118,193 118,194 118,194 118,194 118,193 118,193 118,192 118,192 118,191 118,190 118,190 119,189 119,188 119,187 119,186 119,186 119,185 119,185 119,185 119,186 119,186 119,186 119,186 119,186 120,186 120,186 120,186 120,186 120,186 120,186 120,186 120,186 120,186 120,186 120,186 120,186 120,187 121,188 121,189 121,189 121,190 121,191 121,192 121,193 121,194 121,194 121,194 121,194 121,194 121,194 122,193 122,193 122,193 122,193 122,192 122,191 122,190 122,189 122,188 122,186 122,185 122,183 122,182 123,181 123,179 123,178 123,177 123,176 123,174 123,173 123,171 123,170 123,168 123,167 123,165 123,164 124,164 124,163 124,162 124,161 124,160 124,160 124,159 124,158 124,158 124,157 124,157 124,157 124,156 125,156 125,156 125,156 125,155 125,155 125,155 125,155 125,155 125,155 125,155 125,154 125,154 125,154 126,154 126,153 126,153 126,153 126,152 126,152 126,152 126,152 126,152 126,152 126,152 126,152 126,152 127,153 127,153 127,153 127,153 127,153 127,153 127,153 127,153 127,153 127,152 127,152 127,152 127,152 128,152 128,152 128,152 128,153 128,153 128,153 128,153 128,153 128,154 128,154 128,154 128,153 128,153 129,153 129,154 129,154 129,154 129,154 129,154 129,154 129,155 129,155 129,155 129,155 129,156 129,156 130,156 130,157 130,158 130,158 130,158 130,158 130,158 130,158 130,158 130,158 130,158 130,158 130,157 131,157 131,157 131,157 131,157 131,157 131,157 131,157 131,157 131,157 131,157 131,157 131,157 131,157 132,157 132,157 132,157 132,157 132,158 132,158 132,158 132,158 132,158 132,159 132,159 132,159 132,159 133,159 133,160 133,160 133,161 133,161 133,162 133,162 133,163 133,164 133,164 133,165 133,165 133,166 134,166 134,168 134,169 134,170 134,171 134,171 134,172 134,172 134,172 134,172 134,171 134,170 134,169 135,168 135,168 135,167 135,166 135,165 135,164 135,164 135,163 135,163 135,162 135,162 135,162 135,161 136,161 136,161 136,160 136,160 136,160 136,160 136,160 136,160 136,160 136,159 136,159 136,159 136,159 137,159 137,159 137,159 137,159 137,159 137,159 137,159 137,159 137,160 137,160 137,160 137,161 137,161 138,161 138,161 138,162 138,162 138,162 138,162 138,163 138,163 138,163 138,164 138,164 138,164 138,164 139,165 139,165 139,165 139,165 139,166 139,166 139,166 139,166 139,166 139,165 139,165 139,165 139,167 140,169 140,170 140,172 140,173 140,174 140,175 140,176 140,177 140,178 140,179 140,180 140,181 140,183 141,185 141,185 141,185 141,185 141,185 141,185 141,183 141,181 141,179 141,178 141,177 141,176 141,175 142,174 142,174 142,174 142,174 142,174 142,174 142,174 142,174 142,174 142,174 142,174 142,174 142,174 143,173 143,173 143,173 143,173 143,173 143,173 143,173 143,174 143,174 143,175 143,176 143,177 143,178 144,179 144,179 144,180 144,181 144,183 144,183 144,184 144,183 144,183 144,183 144,183 144,182 144,181 145,181 145,180 145,180 145,179 145,178 145,177 145,176 145,175 145,175 145,174 145,174 145,173 145,173 146,172 146,172 146,172 146,171 146,171 146,171 146,170 146,170 146,169 146,168 146,167 146,167 146,166 147,165 147,165 147,164 147,164 147,163 147,162 147,161 147,161 147,160 147,159 147,159 147,158 147,158 148,157 148,157 148,157 148,157 148,156 148,156 148,156 148,156 148,157 148,157 148,157 148,157 148,158 149,158 149,158 149,159 149,159 149,159 149,159 149,158 149,158 149,158 149,157 149,157 149,157 149,157 150,156 150,156 150,156 150,155 150,155 150,155 150,155 150,155 150,154 150,154 150,154 150,154 150,154 151,154 151,154 151,153 151,153 151,153 151,153 151,153 151,153 151,153 151,152 151,152 151,152 151,152 152,152 152,152 152,152 152,152 152,152 152,152 152,152 152,152 152,152 152,152 152,152 152,152 152,152 153,152 153,152 153,152 153,152 153,152 153,152 153,152 153,152 153,152 153,153 153,153 153,153 153,153 154,153 154,153 154,153 154,153 154,153 154,153 154,154 154,154 154,154 154,154 154,155 154,155 154,155 155,156 155,156 155,156 155,157 155,157 155,157 155,158 155,158 155,158 155,158 155,158 155,159 156,159 156,159 156,158 156,159 156,160 156,160 156,161 156,162 156,163 156,163 156,164 156,164 156,163 157,163 157,162 157,162 157,163 157,163 157,163 157,163 157,162 157,162 157,162 157,162 157,162 157,162 158,162 158,162 158,163 158,163 158,163 158,164 158,164 158,165 158,165 158,166 158,167 158,167 158,168 159,168 159,169 159,170 159,171 159,172 159,173 159,174 159,174 159,174 159,174 159,174 159,174 159,174 160,175 160,175 160,175 160,175 160,175 160,175 160,174 160,173 160,172 160,170 160,169 160,168 160,167 161,166 161,164 161,163 161,162 161,161 161,160 161,160 161,159 161,159 161,158 161,158 161,158 161,157 162,157 162,156 162,156 162,155 162,155 162,155 162,155 162,154 162,154 162,154 162,154 162,154 162,153 163,153 163,153 163,153 163,152 163,152 163,152 163,152 163,152 163,152 163,152 163,152 163,152 163,152 164,152 164,152 164,153 164,153 164,153 164,153 164,153 164,153 164,153 164,153 164,153 164,153 164,153 165,153 165,153 165,154 165,154 165,154 165,154 165,154 165,154 165,154 165,155 165,155 165,154 165,154 166,154 166,154 166,154 166,154 166,154 166,154 166,154 166,154 166,154 166,155 166,157 166,158 166,159 167,160 167,161 167,162 167,163 167,163 167,164 167,164 167,165 167,165 167,166 167,168 167,169 167,170 168,170 168,170 168,171 168,171 168,170 168,170 168,170 168,169 168,169 168,169 168,168 168,168 168,167 169,167 169,167 169,166 169,166 169,165 169,165 169,164 169,164 169,164 169,164 169,163 169,163 169,163 170,163 170,163 170,163 170,163 170,163 170,164 170,164 170,165 170,166 170,166 170,166 170,166 170,167 171,167 171,167 171,168 171,168 171,169 171,169 171,169 171,169 171,169 171,169 171,169 171,169 171,170 172,170 172,171 172,171 172,172 172,173 172,174 172,175 172,176 172,177 172,178 172,179 172,180 172,181 173,182 173,183 173,183 173,182 173,183 173,183 173,183 173,182 173,180 173,180 173,179 173,178 173,177 174,177 174,176 174,175 174,175 174,174 174,174 174,173 174,173 174,172 174,172 174,171 174,170 174,170 175,169 175,169 175,168 175,168 175,168 175,167 175,167 175,166 175,167 175,168 175,169 175,170 175,170 176,170 176,170 176,171 176,171 176,170 176,170 176,169 176,169 176,169 176,169 176,169 176,170 176,170 177,170 177,170 177,170 177,170 177,170 177,171 177,171 177,171 177,173 177,174 177,175 177,174 177,174 178,174 178,174 178,174 178,174 178,173 178,173 178,173 178,172 178,172 178,172 178,172 178,171 178,171 179,171 179,171 179,170 179,170 179,170 179,170 179,169 179,169 179,168 179,168 179,167 179,166 179,166 180,166 180,166 180,166 180,166 180,166 180,165 180,165 180,165 180,165 180,165 180,165 180,165 180,166 181,166 181,166 181,166 181,166 181,166 181,166 181,166 181,165 181,165 181,164 181,163 181,163 181,162 182,161 182,161 182,160 182,160 182,159 182,158 182,158 182,158 182,157 182,157 182,157 182,156 182,156 183,156 183,156 183,155 183,155 183,155 183,154 183,154 183,153 183,153 183,153 183,153 183,153 183,153 184,153 184,153 184,153 184,153 184,154 184,154 184,154 184,154 184,155 184,155 184,155 184,156 184,156 185,156 185,157 185,157 185,158 185,158 185,158 185,159 185,159 185,159 185,160 185,160 185,160 185,160 186,160 186,160 186,160 186,160 186,160 186,159 186,159 186,158 186,157 186,156 186,156 186,155 186,154 187,154 187,153 187,153 187,152 187,152 187,151 187,150 187,150 187,149 187,149 187,148 187,148 187,148 188,148 188,147 188,147 188,147 188,146 188,145 188,145 188,145 188,144 188,144 188,143 188,142 188,142 189,142 189,141 189,141 189,141 189,141 189,141 189,140 189,140 189,140 189,140 189,139 189,139 189,139 190,139 190,138 190,138 190,137 190,137 190,137 190,137 190,137 190,137 190,137 190,137 190,137 190,136 191,135 191,135 191,134 191,134 191,134 191,134 191,133 191,133 191,133 191,133 191,133 191,133 191,133 192,133 192,133 192,132 192,132 192,132 192,132 192,132 192,132 192,133 192,133 192,134 192,134 193,135 193,135 193,136 193,136 193,135 193,134 193,134 193,134 193,134 193,134 193,134 193,135 193,134 194,134 194,134 194,134 194,134 194,133 194,133 194,133 194,133 194,133 194,133 194,133 194,133 194,132 195,132 195,132 195,132 195,132 195,132 195,132 195,132 195,132 195,132 195,132 195,132 195,132 195,132 196,132 196,132 196,132 196,132 196,132 196,133 196,133 196,133 196,134 196,134 196,134 196,135 196,135 197,135 197,135 197,135 197,136 197,136 197,136 197,136 197,136 197,137 197,137 197,137 197,137 197,138 198,138 198,138 198,138 198,138 198,138 198,138 198,138 198,137 198,136 198,135 198,135 198,136 198,137 199,138 199,138 199,138 199,139 199,139 199,139 199,139 199,139 199,139 199,139 199,139 199,139 199,138 200,138 200,138 200,137 200,137 200,138 200,138 200,138 200,138 200,139 200,139 200,140 200,140 200,141 201,141 201,142 201,142 201,142 201,142 201,143 201,143 201,143 201,144 201,145 201,146 201,147 201,147 202,148 202,149 202,150 202,151 202,151 202,152 202,152 202,152 202,152 202,151 202,151 202,151 202,151 203,151 203,151 203,151 203,150 203,150 203,150 203,150 203,150 203,150 203,150 203,150 203,150 203,150 204,150 204,150 204,150 204,150 204,150 204,150 204,151 204,151 204,151 204,152 204,152 204,152 204,152 205,152 205,152 205,152 205,153 205,153 205,153 205,153 205,153 205,153 205,152 205,152 205,152 205,152 206,152 206,152 206,152 206,153 206,153 206,153 206,154 206,154 206,155 206,156 206,156 206,157 206,158 207,158 207,159 207,160 207,161 207,162 207,162 207,163 207,164 207,165 207,165 207,166 207,167 207,168 208,169 208,169 208,170 208,170 208,170 208,171 208,172 208,172 208,173 208,173 208,173 208,173 208,173 209,173 209,174 209,174 209,174 209,174 209,175 209,175 209,175 209,175 209,175 209,175 209,175 209,175 210,175 210,175 210,175 210,176 210,176 210,177 210,177 210,177 210,177 210,177 210,178 210,178 210,178 211,178 211,179 211,179 211,179 211,179 211,180 211,180 211,180 211,181 211,181 211,181 211,181 211,181 212,182 212,182 212,182 212,182 212,182 212,183 212,183 212,184 212,184 212,184 212,185 212,185 212,185 213,186 213,186 213,186 213,186 213,187 213,187 213,188 213,188 213,188 213,189 213,189 213,190 213,190 214,190 214,190 214,191 214,191 214,191 214,191 214,191 214,191 214,191 214,191 214,191 214,191 214,191 215,191 215,191 215,191 215,191 215,191 215,191 215,191 215,191 215,191 215,191 215,191 215,191 215,191 216,191 216,191 216,191 216,191 216,191 216,191 216,191 216,191 216,191 216,191 216,191 216,191 216,190 217,190 217,190 217,190 217,190 217,190 217,189 217,189 217,189 217,189 217,189 217,188 217,188 217,188 218,188 218,187 218,187 218,187 218,187 218,187 218,186 218,186 218,186 218,186 218,186 218,185 218,185 219,185 219,185 219,184 219,184 219,184 219,184 219,184 219,184 219,184 219,184 219,184 219,184 219,184 220,184 220,184 220,184 220,184 220,184 220,184 220,184 220,184 220,184 220,184 220,184 220,184 220,184 221,184 221,184 221,184 221,184 221,184 221,184 221,184 221,184 221,184 221,184 221,184 221,184 221,184 222,184 222,184 222,184 222,184 222,184 222,184 222,184 222,184 222,183 222,183 222,183 222,182 222,182 223,181 223,180 223,179 223,178 223,177 223,176 223,176 223,175 223,175 223,175 223,174 223,174 223,174 224,173 224,172 224,171 224,170 224,170 224,169 224,168 224,168 224,167 224,167 224,167 224,167 224,166 225,166 225,166 225,165 225,165 225,165 225,164 225,164 225,164 225,163 225,163 225,162 225,162 225,162 226,162 226,161 226,161 226,161 226,161 226,161 226,160 226,160 226,159 226,158 226,158 226,157 226,157 227,156 227,156 227,155 227,155 227,155 227,154 227,154 227,153 227,153 227,153 227,152 227,152 227,151 228,151 228,151 228,150 228,150 228,150 228,149 228,149 228,149 228,149 228,149 228,149 228,149 229,149 229,149 229,149 229,149 229,148 229,148 229,148 229,148 229,148 229,148 229,148 229,147 229,147 230,147 230,147 230,147 230,147 230,147 230,147 230,147 230,146 230,146 230,146 230,146 230,146 230,146 231,147 231,148 231,148 231,148 231,148 231,148 231,147 231,144 231,143 231,142 231,141 231,141 231,140 232,140 232,140 232,140 232,140 232,140 232,140 232,140 232,140 232,140 232,139 232,139 232,139 232,139 233,139 233,139 233,139 233,139 233,139 233,139 233,139 233,140 233,140 233,140 233,140 233,140 233,140 234,140 234,140 234,140 234,140 234,140 234,140 234,140 234,140 234,140 234,140 234,140 234,140 234,139 235,139 235,140 235,139 235,139 235,139 235,138 235,138 235,138 235,137 235,137 235,137 235,136 235,136 236,136 236,136 236,135 236,135 236,135 236,134 236,134 236,134 236,134 236,134 236,134 236,134 236,134 237,134 237,133 237,133 237,132 237,132 237,132 237,131 237,131 237,131 237,131 237,130 237,130 237,130 238,130 238,130 238,129 238,129 238,129 238,129 238,128 238,128 238,129 238,129 238,129 238,129 238,129 239,129 239,129 239,129 239,129 239,130 239,130 239,130 239,130 239,130 239,130 239,130 239,130 239,130 240,130 240,130 240,130 240,130 240,130 240,130 240,131 240,131 240,131 240,131 240,131 240,131 240,132 241,132 241,132 241,132 241,132 241,132 241,132 241,132 241,132 241,132 241,133 241,133 241,133 241,134 242,134 242,135 242,135 242,135 242,135 242,136 242,137 242,138 242,139 242,140 242,140 242,140 242,141 243,142 243,144 243,145 243,147 243,148 243,150 243,151 243,152 243,153 243,154 243,154 243,155 243,156 244,156 244,157 244,158 244,159 244,160 244,160 244,161 244,161 244,160 244,160 244,159 244,159 244,158 245,158 245,158 245,157 245,157 245,157 245,157 245,157 245,156 245,156 245,157 245,156 245,156 245,156 246,156 246,156 246,156 246,156 246,156 246,156 246,155 246,155 246,155 246,155 246,155 246,155 246,155 247,155 247,156 247,156 247,156 247,156 247,156 247,156 247,157 247,157 247,157 247,158 247,158 247,159 248,159 248,159 248,160 248,160 248,161 248,161 248,161 248,162 248,162 248,163 248,163 248,163 248,164 249,164 249,164 249,165 249,165 249,165 249,166 249,166 249,166 249,166 249,166 249,167 249,167 249,167 250,167 250,167 250,167 250,167 250,167 250,167 250,167 250,167 250,167 250,166 250,166 250,166 250,166 251,166 251,165 251,165 251,165 251,165 251,165 251,165 251,165 251,165 251,165 251,165 251,165 251,165 252,164 252,164 252,164 252,164 252,164 252,163 252,163 252,163 252,162 252,162 252,162 252,161 252,160 253,160 253,160 253,160 253,160 253,160 253,160 253,160 253,160 253,159 253,159 253,159 253,159 253,158 254,158 254,157 254,157 254,156 254,156 254,156 254,156 254,156 254,155 254,155 254,155 254,155 254,154 255,154 255,153 255,153 255,153 255,153 255,153 255,152 255,152 255,152 255,152 255,152 255,152 255,152 256,152 256,152 256,152 256,152 256,152 256,152 256,152 256,152 256,152 256,152 256,152 256,152 256,152 257,152 257,152 257,152 257,152 257,152 257,152 257,152 257,153 257,153 257,153 257,153 257,154 257,154 258,154 258,155 258,155 258,155 258,156 258,156 258,156 258,157 258,157 258,158 258,158 258,158 258,159 259,160 259,160 259,160 259,161 259,161 259,162 259,162 259,163 259,163 259,164 259,164 259,164 259,164 260,165 260,165 260,165 260,164 260,164 260,163 260,163 260,162 260,162 260,162 260,161 260,161 260,160 261,160 261,160 261,159 261,159 261,159 261,159 261,158 261,158 261,158 261,157 261,157 261,157 261,157 262,158 262,158 262,157 262,157 262,158 262,157 262,157 262,157 262,158 262,158 262,159 262,160 262,160 263,160 263,160 263,160 263,160 263,160 263,160 263,161 263,161 263,161 263,161 263,161 263,161 263,161 264,161 264,161 264,161 264,162 264,162 264,162 264,162 264,163 264,163 264,163 264,163 264,163 264,163 265,164 265,164 265,164 265,164 265,164 265,164 265,164 265,164 265,165 265,165 265,165 265,165 266,165 266,165 266,165 266,165 266,166 266,165 266,165 266,165 266,165 266,165 266,166 266,166 266,167 267,167 267,168 267,169 267,170 267,171 267,171 267,172 267,172 267,172 267,172 267,172 267,172 267,172 268,173 268,173 268,173 268,173 268,173 268,173 268,173 268,173 268,173 268,173 268,173 268,173 268,173 269,173 269,173 269,173 269,172 269,172 269,172 269,172 269,172 269,172 269,172 269,171 269,171 269,171 270,171 270,171 270,171 270,170 270,170 270,170 270,170 270,170 270,171 270,171 270,171 270,171 270,171 271,172 271,172 271,172 271,173 271,173 271,173 271,174 271,174 271,175 271,175 271,175 271,175 271,176 272,176 272,176 272,177 272,177 272,177 272,177 272,178 272,179 272,181 272,181 272,182 272,182 272,182 273,182 273,182 273,183 273,183 273,183 273,184 273,184 273,184 273,185 273,185 273,185 273,186 273,186 274,186 274,186 274,187 274,187 274,188 274,188 274,188 274,189 274,189 274,189 274,190 274,191 274,191 275,191 275,191 275,192 275,192 275,193 275,193 275,194 275,194 275,195 275,196 275,196 275,197 275,198 276,199 276,200 276,200 276,201 276,201 276,202 276,202 276,202 276,203 276,203 276,203 276,204 276,204 277,204 277,205 277,205 277,205 277,206 277,206 277,206 277,206 277,206 277,207 277,207 277,208 277,208 278,208 278,209 278,209 278,209 278,210 278,210 278,210 278,210 278,210 278,210 278,210 278,210 278,210 279,211 279,211 279,211 279,211 279,211 279,211 279,211 279,211 279,211 279,211 279,210 279,210 279,210 280,210 280,210 280,210 280,211 280,211 280,211 280,211 280,211 280,211 280,211 280,211 280,210 280,210 281,210 281,210 281,210 281,210 281,210 281,210 281,210 281,210 281,210 281,210 281,210 281,210 281,210 282,210 282,210 282,210 282,210 282,210 282,210 282,211 282,211 282,211 282,211 282,211 282,211 282,211 283,211 283,211 283,211 283,211 283,212 283,212 283,212 283,212 283,212 283,213 283,213 283,213 283,214 284,214 284,214 284,215 284,215 284,215 284,216 284,216 284,216 284,216 284,217 284,217 284,217 284,216 285,217 285,217 285,217 285,217 285,217 285,217 285,217 285,218 285,218 285,218 285,218 285,218 285,218 286,218 286,218 286,217 286,217 286,217 286,217 286,217 286,217 286,217 286,217 286,216 286,216 286,216 287,216 287,215 287,215 287,215 287,214 287,214 287,214 287,213 287,212 287,211 287,210 287,209 287,208 288,207 288,206 288,205 288,204 288,204 288,203 288,203 288,202 288,202 288,201 288,201 288,201 288,200 289,199 289,199 289,198 289,198 289,198 289,198 289,198 289,198 289,198 289,197 289,197 289,197 289,197 290,197 290,197 290,197 290,198 290,198 290,198 290,198 290,199 290,199 290,199 290,200 290,200 290,200 291,201 291,201 291,201 291,202 291,202 291,203 291,203 291,203 291,203 291,204 291,204 291,205 291,205 292,205 292,206 292,206 292,206 292,207 292,207 292,207 292,208 292,208 292,209 292,209 292,210 292,210 293,211 293,211 293,212 293,212 293,213 293,213 293,213 293,214 293,214 293,215 293,215 293,216 293,216 294,216 294,217 294,217 294,217 294,218 294,218 294,218 294,218 294,219 294,219 294,219 294,219 294,219 295,220 295,220 295,220 295,220 295,220 295,220 295,220 295,219 295,219 295,219 295,219 295,218 295,218 296,218 296,217 296,217 296,217 296,216 296,216 296,216 296,216 296,216 296,215 296,215 296,215 296,215 297,215 297,215 297,215 297,214 297,214 297,214 297,214 297,213 297,213 297,213 297,212 297,212 297,212 298,211 298,211 298,210 298,210 298,210 298,210 298,210 298,210 298,210 298,210 298,210 298,210 298,210 299,210 299,210 299,210 299,210 299,209 299,209 299,209 299,209 299,209 299,210 299,210 299,210 299,210 300,210 300,210 300,211 300,211 300,211 300,211 300,211 300,212 300,212 300,212 300,212 300,212 300,211 301,211 301,211 301,210 301,210 301,210 301,209 301,209 301,209 301,208 301,208 301,208 301,208 302,207 302,207 302,207 302,206 302,206 302,206 302,207 302,207 302,207 302,207 302,207 302,207 302,207 303,207 303,207 303,207 303,207 303,207 303,207 303,207 303,207 303,207 303,208 303,208 303,208 303,208 304,208 304,207 304,207 304,207 304,207 304,207 304,207 304,206 304,206 304,205 304,205 304,204 304,204 305,204 305,204 305,203 305,203 305,203 305,202 305,202 305,202 305,201 305,201 305,200 305,200 305,200 306,199 306,199 306,198 306,198 306,198 306,198 306,197 306,197 306,196 306,196 306,196 306,195 306,195 307,195 307,194 307,194 307,193 307,193 307,193 307,192 307,192 307,191 307,191 307,191 307,191 307,190 308,190 308,190 308,189 308,189 308,189 308,188 308,188 308,188 308,187 308,187 308,187 308,187 308,187 309,187 309,187 309,188 309,188 309,188 309,189 309,189 309,189 309,189 309,189 309,189 309,189 309,188 310,188 310,188 310,188 310,188 310,188 310,188 310,188 310,188 310,188 310,188 310,188 310,188 310,188 311,188 311,188 311,188 311,188 311,188 311,188 311,188 311,188 311,188 311,188 311,188 311,188 311,188 312,189 312,189 312,190 312,190 312,190 312,190 312,190 312,189 312,189 312,189 312,189 312,189 312,189 313,190 313,190 313,190 313,190 313,190 313,189 313,189 313,188 313,188 313,187 313,187 313,187 313,186 314,186 314,185 314,185 314,185 314,184 314,184 314,184 314,184 314,184 314,184 314,184 314,184 314,184 315,184 315,185 315,185 315,185 315,186 315,186 315,186 315,187 315,187 315,188 315,188 315,189 315,189 316,190 316,190 316,190 316,191 316,191 316,191 316,191 316,192 316,192 316,192 316,193 316,193 316,193 317,193 317,193 317,193 317,192 317,192 317,192 317,192 317,192 317,191 317,191 317,191 317,191 317,191 318,190 318,190 318,190 318,190 318,190 318,189 318,189 318,189 318,189 318,189 318,189 318,189 318,189 319,190 319,190 319,191 319,191 319,192 319,192 319,193 319,193 319,194 319,194 319,194 319,194 319,194 320,193 320,193 320,193 320,193 320,192 320,192 320,192 320,192 320,192 320,192 320,192 320,192 320,192 321,192 321,192 321,193 321,193 321,193 321,194 321,194 321,194 321,194 321,194 321,194 321,195 321,195 322,195 322,195 322,195 322,196 322,196 322,196 322,196 322,196 322,196 322,196 322,196 322,195 322,195 323,195 323,195 323,194 323,194 323,194 323,194 323,193 323,193 323,193 323,193 323,192 323,192 323,192 324,192 324,192 324,192 324,192 324,192 324,192 324,192 324,192 324,191 324,191 324,191 324,191 324,191 325,190 325,190 325,190 325,189 325,189 325,189 325,189 325,189 325,188 325,188 325,188 325,187 325,187 326,187 326,186 326,186 326,185 326,185 326,184 326,183 326,183 326,182 326,182 326,181 326,180 326,179 327,179 327,178 327,177 327,177 327,176 327,175 327,175 327,174 327,173 327,172 327,172 327,171 327,170 328,170 328,170 328,169 328,169 328,168 328,168 328,167 328,167 328,166 328,166 328,166 328,165 328,165 329,165 329,165 329,165 329,164 329,164 329,164 329,164 329,163 329,163 329,163 329,163 329,162 329,162 330,162 330,162 330,161 330,161 330,161 330,161 330,161 330,161 330,161 330,161 330,160 330,160 330,160 331,160 331,160 331,160 331,160 331,159 331,159 331,159 331,159 331,159 331,159 331,160 331,160 331,160 332,160 332,160 332,160 332,160 332,160 332,160 332,160 332,161 332,161 332,161 332,162 332,162 332,163 333,163 333,163 333,164 333,164 333,164 333,165 333,165 333,166 333,166 333,167 333,167 333,167 333,168 334,168 334,168 334,168 334,168 334,168 334,167 334,167 334,166 334,166 334,165 334,164 334,164 334,163 335,162 335,162 335,161 335,161 335,160 335,160 335,160 335,159 335,159 335,159 335,159 335,159 335,159 336,159 336,159 336,159 336,159 336,159 336,159 336,158 336,158 336,158 336,158 336,158 336,158 336,158 337,158 337,157 337,157 337,158 337,158 337,159 337,159 337,159 337,160 337,160 337,160 337,161 337,161 338,162 338,162 338,163 338,163 338,164 338,164 338,165 338,165 338,165 338,166 338,166 338,166 339,167 339,167 339,167 339,168 339,168 339,169 339,169 339,169 339,170 339,170 339,170 339,171 339,171 340,171 340,171 340,172 340,172 340,172 340,172 340,173 340,173 340,173 340,173 340,173 340,173 340,173 341,173 341,173 341,173 341,173 341,173 341,172 341,172 341,172 341,171 341,171 341,171 341,171 341,170 342,170 342,170 342,170 342,170 342,170 342,169 342,169 342,169 342,169 342,169 342,169 342,169 342,169 343,169 343,169 343,169 343,169 343,169 343,169 343,169 343,169 343,169 343,169 343,168 343,168 343,168 344,168 344,168 344,168 344,168 344,168 344,168 344,168 344,168 344,168 344,169 344,169 344,169 344,169 345,169 345,169 345,169 345,170 345,170 345,170 345,170 345,170 345,171 345,171 345,171 345,171 345,170 346,170 346,170 346,170 346,170 346,170 346,170 346,171 346,171 346,171 346,171 346,172 346,172 346,172 347,172 347,173 347,173 347,173 347,173 347,173 347,174 347,174 347,174 347,174 347,174 347,174 347,174 348,174 348,175 348,175 348,175 348,176 348,176 348,176 348,176 348,176 348,176 348,176 348,176 348,176 349,176 349,176 349,177 349,177 349,177 349,177 349,177 349,177 349,178 349,178 349,178 349,178 349,178 350,178 350,178 350,178 350,178 350,179 350,179 350,179 350,179 350,179 350,179 350,180 350,179 350,179 351,179 351,179 351,179 351,179 351,179 351,179 351,180 351,180 351,180 351,180 351,180 351,180 351,180 352,180 352,181 352,181 352,181 352,181 352,181 352,181 352,181 352,181 352,180 352,180 352,180 352,180 353,180 353,179 353,179 353,179 353,179 353,179 353,179 353,178 353,178 353,178 353,177 353,177 353,177 354,176 354,176 354,175 354,175 354,175 354,175 354,175 354,174 354,174 354,174 354,174 354,174 354,174 355,174 355,174 355,174 355,174 355,174 355,174 355,173 355,174 355,173 355,173 355,173 355,173 355,173 356,173 356,173 356,173 356,173 356,173 356,173 356,173 356,173 356,173 356,173 356,174 356,174 356,174 357,174 357,175 357,175 357,175 357,176 357,176 357,177 357,177 357,178 357,178 357,179 357,179 357,180 358,180 358,181 358,181 358,182 358,182 358,182 358,183 358,183 358,183 358,183 358,183 358,183 358,184 359,184 359,184 359,184 359,184 359,184 359,185 359,185 359,185 359,185 359,185 359,185 359,185 359,185 360,185 360,185 360,185 360,185 360,185 360,184 360,184 360,184 360,184 360,184 360,184 360,184 360,183 361,183 361,183 361,183 361,183 361,183 361,183 361,183 361,183 361,183 361,183 361,183 361,182 361,182 362,182 362,182 362,182 362,182 362,182 362,181 362,181 362,182 362,182 362,182 362,182 362,181 362,181 363,181 363,181 363,181 363,181 363,181 363,181 363,181 363,181 363,181 363,181 363,181 363,181 363,181 364,181 364,181 364,181 364,181 364,181 364,181 364,181 364,181 364,182 364,182 364,182 364,182 364,182 365,182 365,182 365,182 365,182 365,182 365,182 365,182 365,182 365,181 365,181 365,181 365,181 365,181 366,180 366,180 366,180 366,180 366,180 366,179 366,179 366,179 366,179 366,178 366,178 366,178 366,178 367,177 367,177 367,177 367,176 367,176 367,175 367,175 367,174 367,173 367,173 367,172 367,172 367,171 368,171 368,171 368,171 368,170 368,170 368,171 368,171 368,171 368,171 368,170 368,170 368,170 368,170 369,169 369,169 369,169 369,168 369,168 369,167 369,167 369,167 369,166 369,166 369,166 369,165 369,165 370,165 370,165 370,165 370,164 370,164 370,163 370,163 370,162 370,162 370,161 370,161 370,160 370,159 371,159 371,158 371,157 371,157 371,156 371,156 371,156 371,155 371,155 371,155 371,154 371,154 371,154 372,154 372,154 372,154 372,154 372,154 372,153 372,153 372,153 372,152 372,152 372,152 372,152 372,151 373,151 373,150 373,151 373,150 373,150 373,150 373,150 373,150 373,150 373,149 373,149 373,149 373,149 374,149 374,149 374,149 374,149 374,149 374,149 374,149 374,149 374,149 374,149 374,149 374,149 375,149 375,149 375,150 375,150 375,150 375,150 375,150 375,150 375,150 375,150 375,150 375,150 375,150 376,150 376,150 376,150 376,150 376,150 376,150 376,150 376,150 376,150 376,151 376,151 376,151 376,151 377,151 377,151 377,152 377,152 377,152 377,152 377,153 377,153 377,153 377,153 377,153 377,153 377,153 378,153 378,153 378,153 378,153 378,153 378,153 378,153 378,153 378,153 378,153 378,152 378,152 378,152 379,152 379,152 379,152 379,152 379,152 379,152 379,152 379,152 379,152 379,152 379,152 379,152 379,152 380,152 380,152 380,153 380,153 380,153 380,153 380,153 380,153 380,154 380,154 380,154 380,154 380,154 381,154 381,154 381,155 381,155 381,155 381,155 381,155 381,155 381,155 381,156 381,156 381,156 381,156 382,156 382,156 382,157 382,157 382,157 382,157 382,157 382,157 382,158 382,158 382,158 382,158 382,158 383,158 383,159 383,159 383,158 383,157 383,157 383,157 383,156 383,156 383,156 383,156 383,155 383,155 384,154 384,154 384,154 384,153 384,153 384,153 384,152 384,152 384,152 384,151 384,151 384,151 384,151 385,150 385,150 385,150 385,149 385,149 385,149 385,149 385,148 385,148 385,148 385,148 385,148 385,147 386,147 386,147 386,147 386,147 386,146 386,146 386,146 386,146 386,146 386,146 386,145 386,145 386,145 387,145 387,145 387,145 387,144 387,144 387,144 387,144 387,144 387,144 387,143 387,143 387,143 387,143 388,142 388,142 388,142 388,142 388,142 388,142 388,142 388,142 388,142 388,142 388,142 388,141 388,141 389,141 389,141 389,141 389,141 389,141 389,141 389,141 389,141 389,141 389,142 389,142 389,143 389,143 390,144 390,144 390,145 390,145 390,146 390,146 390,147 390,147 390,148 390,148 390,148 390,148 390,149 391,149 391,150 391,150 391,151 391,152 391,152 391,153 391,153 391,153 391,153 391,153 391,153 391,153 392,153 392,153 392,153 392,152 392,152 392,152 392,151 392,151 392,150 392,150 392,150 392,150 392,150 393,150 393,150 393,150 393,150 393,150 393,150 393,150 393,150 393,150 393,150 393,150 393,149 393,149 394,149 394,149 394,149 394,149 394,149 394,149 394,149 394,150 394,150 394,151 394,151 394,151 394,152 395,153 395,153 395,154 395,155 395,155 395,156 395,157 395,157 395,158 395,158 395,159 395,159 395,160 396,161 396,161 396,162 396,162 396,163 396,163 396,164 396,165 396,165 396,166 396,166 396,166 396,166 397,166 397,165 397,165 397,164 397,163 397,163 397,162 397,161 397,160 397,159 397,159 397,158 397,157 398,156 398,156 398,155 398,154 398,154 398,153 398,152 398,152 398,152 398,151 398,151 398,150 398,150 399,149 399,149 399,149 399,148 399,148 399,148 399,147 399,147 399,147 399,147 399,147 399,147 399,147 400,148 400,148 400,148 400,148 400,148 400,148 400,148 400,148 400,148 400,148 400,148 400,148 400,148 401,148 401,148 401,148 401,148 401,148 401,149 401,149 401,150 401,150 401,150 401,151 401,151 401,152 402,152 402,152 402,152 402,153 402,153 402,153 402,153 402,153 402,153 402,153 402,153 402,154 402,154 403,154 403,155 403,155 403,155 403,155 403,156 403,156 403,156 403,157 403,157 403,158 403,159 403,159 404,160 404,161 404,161 404,162 404,162 404,163 404,163 404,164 404,164 404,164 404,165 404,165 404,166 405,166 405,166 405,167 405,167 405,167 405,168 405,168 405,168 405,168 405,169 405,169 405,169 405,169 406,170 406,170 406,170 406,170 406,171 406,171 406,171 406,171 406,171 406,172 406,172 406,172 406,172 407,173 407,173 407,173 407,174 407,174 407,174 407,175 407,175 407,176 407,176 407,176 407,177 407,177 408,178 408,178 408,178 408,178 408,179 408,179 408,180 408,180 408,181 408,181 408,181 408,181 408,181 409,181 409,181 409,181 409,181 409,181 409,181 409,180 409,180 409,180 409,179 409,179 409,178 409,178 410,178 410,177 410,176 410,176 410,176 410,175 410,175 410,175 410,175 410,174 410,174 410,174 410,173 411,173 411,172 411,172 411,171 411,171 411,170 411,170 411,169 411,169 411,168 411,168 411,167 412,166 412,166 412,165 412,165 412,164 412,164 412,164 412,164 412,163 412,163 412,163 412,163 412,163 413,163 413,163 413,162 413,162 413,162 413,162 413,162 413,162 413,162 413,162 413,162 413,162 413,162 414,162 414,162 414,162 414,162 414,163 414,163 414,163 414,162 414,163 414,163 414,163 414,164 414,164 415,165 415,165 415,166 415,166 415,167 415,167 415,168 415,169 415,169 415,170 415,170 415,171 415,171 416,171 416,172 416,172 416,172 416,173 416,173 416,173 416,174 416,174 416,174 416,175 416,175 416,175 417,175 417,176 417,176 417,176 417,177 417,177 417,177 417,177 417,177 417,178 417,178 417,179 417,179 418,179 418,180 418,180 418,181 418,181 418,181 418,182 418,182 418,182 418,182 418,183 418,183 418,183 419,183 419,184 419,184 419,184 419,185 419,185 419,185 419,185 419,185 419,185 419,185 419,185 419,185 420,185 420,185 420,186 420,186 420,186 420,186 420,186 420,185 420,185 420,185 420,185 420,186 420,186 421,187 421,187 421,187 421,187 421,187 421,187 421,187 421,187 421,187 421,187 421,187 421,187 421,187 422,187 422,187 422,187 422,187 422,187 422,187 422,187 422,187 422,187 422,187 422,186 422,186 422,186 423,186 423,186 423,186 423,185 423,185 423,184 423,183 423,183 423,182 423,181 423,180 423,180 423,179 424,178 424,177 424,176 424,175 424,174 424,173 424,173 424,172 424,171 424,171 424,170 424,170 424,170 425,169 425,169 425,169 425,169 425,169 425,168 425,168 425,168 425,167 425,167 425,167 425,167 425,167 426,167 426,167 426,167 426,166 426,166 426,166 426,166 426,166 426,167 426,167 426,167 426,168 426,168 427,168 427,169 427,169 427,170 427,170 427,171 427,171 427,172 427,172 427,173 427,173 427,174 427,175 428,175 428,176 428,177 428,177 428,177 428,178 428,179 428,179 428,180 428,181 428,181 428,182 428,182 429,183 429,183 429,184 429,184 429,184 429,185 429,185 429,186 429,186 429,187 429,187 429,187 429,188 430,188 430,189 430,189 430,189 430,189 430,189 430,190 430,190 430,190 430,190 430,190 430,190 430,190 431,190 431,190 431,190 431,190 431,190 431,190 431,190 431,190 431,190 431,190 431,190 431,190 431,190 432,190 432,190 432,190 432,190 432,190 432,189 432,189 432,189 432,189 432,189 432,189 432,189 432,189 433,189 433,189 433,189 433,189 433,189 433,189 433,189 433,189 433,188 433,188 433,188 433,188 433,188 434,188 434,188 434,188 434,188 434,188 434,188 434,188 434,188 434,188 434,188 434,188 434,188 434,188 435,188 435,188 435,187 435,187 435,187 435,187 435,187 435,187 435,187 435,187 435,187 435,186 435,186 436,186 436,186 436,186 436,186 436,186 436,186 436,186 436,186 436,186 436,186 436,185 436,185 436,185 437,185 437,185 437,185 437,185 437,185 437,185 437,185 437,185 437,184 437,184 437,184 437,184 437,184 438,184 438,184 438,185 438,185 438,184 438,184 438,184 438,184 438,184 438,184 438,184 438,184 438,184 439,183 439,183 439,183 439,183 439,183 439,183 439,183 439,183 439,183 439,183 439,183 439,183 439,183 440,183 440,183 440,182 440,182 440,183 440,183 440,182 440,182 440,182 440,182 440,182 440,182 440,182 441,182 441,182 441,182 441,182 441,181 441,181 441,181 441,181 441,181 441,181 441,181 441,181 441,181 442,181 442,181 442,181 442,181 442,181 442,180 442,180 442,180 442,180 442,180 442,180 442,180 442,180 443,180 443,180 443,180 443,180 443,180 443,180 443,180 443,180 443,180 443,180 443,180 443,180 443,180 444,179 444,179 444,179 444,179 444,179 444,179 444,179 444,179 444,179 444,179 444,179 444,179 444,179 445,179 445,179 445,179 445,179 445,178 445,178 445,178 445,178 445,178 445,178 445,178 445,178 445,178 446,178 446,178 446,178 446,178 446,178 446,177 446,177 446,177 446,177 446,177 446,177 446,177 446,177 447,177 447,177 447,177 447,177 447,177 447,177 447,176 447,176 447,176 447,176 447,176 447,175 447,176 448,176 448,176 448,176 448,177 448,177 448,177 448,177 448,177 448,177 448,177 448,177 448,177 449,177 449,178 449,178 449,178 449,178 449,178 449,178 449,178 449,179 449,179 449,179 449,179 449,179 450,180 450,180 450,180 450,180 450,180 450,181 450,181 450,181 450,181 450,181 450,182 450,182 450,182 451,182 451,182 451,183 451,183 451,183 451,183 451,183 451,183 451,183 451,184 451,184 451,184 451,184 452,184 452,184 452,185 452,185 452,185 452,185 452,185 452,186 452,186 452,186 452,186 452,186 452,186 453,186 453,186 453,186 453,186 453,186 453,186 453,186 453,186 453,186 453,186 453,186 453,186 453,187 454,187 454,187 454,187 454,187 454,187 454,187 454,187 454,187 454,187 454,187 454,187 454,188 454,187 455,187 455,187 455,187 455,187 455,187 455,187 455,187 455,187 455,186 455,186 455,186 455,186 455,186 456,186 456,185 456,185 456,185 456,185 456,184 456,184 456,184 456,184 456,183 456,183 456,183 456,183 457,183 457,183 457,183 457,183 457,183 457,183 457,183 457,183 457,184 457,184 457,184 457,184 457,184 458,184 458,184 458,184 458,184 458,184 458,184 458,183 458,183 458,183 458,183 458,182 458,182 458,182 459,182 459,182 459,182 459,181 459,181 459,181 459,181 459,181 459,180 459,180 459,180 459,180 459,179 460,179 460,178 460,178 460,178 460,178 460,177 460,177 460,177 460,177 460,176 460,176 460,176 460,176 461,176 461,176 461,176 461,176 461,176 461,176 461,176 461,176 461,176 461,176 461,176 461,176 461,176 462,176 462,176 462,176 462,176 462,176 462,176 462,176 462,175 462,175 462,175 462,175 462,175 462,176 463,176 463,176 463,176 463,176 463,176 463,177 463,177 463,177 463,178 463,178 463,178 463,178 463,178 464,178 464,178 464,178 464,178 464,178 464,179 464,180 464,179 464,178 464,177 464,176 464,176 464,175 465,175 465,174 465,174 465,173 465,173 465,173 465,172 465,172 465,171 465,171 465,170 465,170 465,170 466,170 466,170 466,170 466,170 466,169 466,169 466,169 466,169 466,169 466,168 466,168 466,168 466,168 467,168 467,168 467,168 467,168 467,168 467,169 467,169 467,169 467,169 467,169 467,170 467,170 467,171 468,171 468,172 468,172 468,172 468,173 468,173 468,173 468,174 468,174 468,175 468,175 468,175 468,175 469,175 469,175 469,176 469,176 469,177 469,177 469,177 469,178 469,178 469,179 469,179 469,180 469,180 470,180 470,181 470,181 470,181 470,181 470,181 470,181 470,181 470,181 470,182 470,183 470,184 470,184 471,184 471,185 471,185 471,185 471,186 471,186 471,186 471,187 471,187 471,187 471,187 471,188 471,188 472,188 472,189 472,189 472,189 472,189 472,189 472,189 472,189 472,190 472,190 472,190 472,191 472,191 473,192 473,193 473,193 473,193 473,193 473,194 473,194 473,194 473,194 473,194 473,194 473,194 473,194 474,194 474,194 474,194 474,194 474,194 474,194 474,194 474,194 474,194 474,194 474,194 474,193 474,193 475,193 475,193 475,193 475,193 475,192 475,192 475,192 475,192 475,192 475,191 475,191 475,191 475,191 476,191 476,190 476,190 476,190 476,190 476,190 476,190 476,189 476,189 476,189 476,189 476,189 476,189 477,189 477,188 477,188 477,188 477,188 477,188 477,187 477,187 477,187 477,187 477,187 477,186 477,186 478,186 478,185 478,185 478,185 478,185 478,184 478,184 478,184 478,184 478,183 478,183 478,183 478,183 479,182 479,182 479,182 479,181 479,181 479,181 479,181 479,180 479,180 479,180 479,180 479,179 479,179 480,179 480,178 480,178 480,178 480,178 480,177 480,177 480,177 480,176 480,176 480,176 480,176 480,176 481,176 481,175 481,175 481,175 481,175 481,175 481,175 481,175 481,175 481,175 481,175 481,175 481,175 482,175 482,175 482,175 482,175 482,175 482,175 482,175 482,175 482,175 482,175 482,175 482,175 482,174 483,174 483,174 483,174 483,174 483,174 483,174 483,174 483,175 483,175 483,175 483,175 483,175 483,175 484,174 484,174 484,174 484,174 484,174 484,173 484,173 484,173 484,173 484,173 484,172 484,172 485,172 485,171 485,171 485,171 485,170 485,170 485,170 485,170 485,169 485,169 485,169 485,168 485,168 486,168 486,167 486,167 486,167 486,167 486,167 486,166 486,166 486,166 486,166 486,167 486,167 486,167 487,168 487,168 487,169 487,169 487,170 487,171 487,171 487,172 487,172 487,173 487,174 487,175 487,176 488,176 488,177 488,177 488,178 488,178 488,178 488,178 488,177 488,177 488,177 488,177 488,177 488,177 489,176 489,176 489,176 489,176 489,176 489,176 489,175 489,175 489,175 489,175 489,175 489,174 489,174 490,174 490,174 490,173 490,173 490,173 490,173 490,172 490,172 490,172 490,172 490,171 490,171 490,171 491,171 491,171 491,170 491,170 491,170 491,169 491,169 491,169 491,169 491,168 491,168 491,168 491,168 492,167 492,167 492,167 492,166 492,166 492,166 492,165 492,165 492,164 492,164 492,164 492,164 492,163 493,163 493,163 493,162 493,162 493,161 493,161 493,161 493,160 493,160 493,160 493,159 493,159 493,158 494,158 494,157 494,157 494,156 494,156 494,155 494,155 494,154 494,153 494,153 494,152 494,152 494,152 495,152 495,151 495,151 495,151 495,150 495,150 495,150 495,149 495,149 495,149 495,149 495,149 495,149 496,149 496,150 496,150 496,150 496,150 496,150 496,150 496,150 496,150 496,150 496,150 496,150 496,150 497,150 497,150 497,151 497,151 497,151 497,152 497,152 497,152 497,153 497,153 497,153 497,153 497,153 498,153 498,154 498,154 498,155 498,155 498,155 498,156 498,156 498,157 498,157 498,157 498,158 498,158 499,158 499,158 499,158 499,159 499,159 499,159 499,159 499,160 499,160 499,160 499,161 499,161 499,161 500,162 500,162 500,162 500,162 500,162 500,162 500,162 500,162 500,162 500,163 500,163 500,162 500,162 501,163 501,163 501,163 501,163 501,163 501,163 501,163 501,163 501,163 501,163 501,163 501,163 501,163 502,163 502,163 502,163 502,163 502,163 502,163 502,163 502,163 502,163 502,163 502,163 502,163 502,162 503,162 503,162 503,162 503,162 503,162 503,161 503,161 503,161 503,161 503,161 503,161 503,160 503,160 504,160 504,160 504,160 504,160 504,160 504,161 504,161 504,161 504,161 504,161 504,161 504,162 504,162 505,162 505,162 505,162 505,162 505,162 505,163 505,163 505,163 505,163 505,163 505,163 505,163 505,163 506,164 506,164 506,164 506,165 506,166 506,166 506,167 506,167 506,166 506,166 506,166 506,167 506,167 507,167 507,168 507,168 507,169 507,170 507,170 507,170 507,171 507,171 507,172 507,172 507,172 507,173 508,173 508,173 508,173 508,173 508,173 508,173 508,173 508,173 508,174 508,174 508,174 508,174 508,174 509,175 509,176 509,176 509,176 509,177 509,177 509,177 509,178 509,178 509,179 509,179 509,180 509,180 510,180 510,181 510,181 510,182 510,182 510,183 510,183 510,183 510,183 510,184 510,184 510,184 510,184 511,184 511,184 511,184 511,184 511,184 511,184 511,184 511,184 511,184 511,184 511,184 511,184 511,184 512,185 512,185 512,185 512,186 512,186 512,186 512,186 512,186 512,186 512,187 512,187 512,187 512,187 513,187 513,187 513,187 513,187 513,187 513,187 513,188 513,188 513,188 513,189 513,189 513,189 513,189 514,190 514,190 514,190 514,190 514,190 514,191 514,191 514,191 514,192 514,192 514,192 514,192 514,192 515,192 515,192 515,192 515,192 515,193 515,193 515,193 515,193 515,193 515,193 515,194 515,194 515,193 516,193 516,194 516,194 516,194 516,194 516,195 516,195 516,195 516,195 516,195 516,195 516,196 516,196 517,196 517,196 517,197 517,197 517,197 517,197 517,197 517,197 517,197 517,197 517,198 517,198 517,198 518,198 518,198 518,197 518,197 518,197 518,197 518,197 518,196 518,196 518,196 518,196 518,196 518,197 519,197 519,197 519,197 519,197 519,197 519,197 519,197 519,198 519,198 519,198 519,199 519,199 519,200 520,200 520,200 520,201 520,201 520,201 520,201 520,202 520,202 520,202 520,202 520,203 520,203 520,203 521,203 521,204 521,204 521,204 521,204 521,204 521,205 521,205 521,205 521,205 521,205 521,206 522,205 522,205 522,205 522,205 522,205 522,205 522,204 522,204 522,204 522,204 522,204 522,204 522,204 523,205 523,205 523,205 523,205 523,205 523,206 523,206 523,206 523,206 523,206 523,206 523,206 523,206 524,206 524,206 524,205 524,205 524,205 524,205 524,204 524,204 524,204 524,203 524,203 524,203 524,203 525,203 525,203 525,202 525,202 525,202 525,202 525,202 525,202 525,202 525,202 525,202 525,202 525,202 526,202 526,202 526,201 526,201 526,201 526,201 526,200 526,200 526,199 526,199 526,199 526,198 526,198 527,198 527,198 527,197 527,197 527,197 527,196 527,196 527,196 527,196 527,195 527,195 527,195 527,194 528,194 528,194 528,194 528,193 528,193 528,193 528,193 528,193 528,192 528,192 528,192 528,192 528,192 529,192 529,191 529,191 529,191 529,191 529,191 529,190 529,190 529,190 529,190 529,190 529,190 529,189 530,189 530,189 530,189 530,189 530,189 530,189 530,188 530,188 530,188 530,188 530,188 530,188 530,188 531,187 531,187 531,187 531,187 531,187 531,187 531,187 531,187 531,187 531,187 531,187 531,187 531,187 532,187 532,187 532,186 532,186 532,186 532,186 532,186 532,186 532,186 532,185 532,185 532,185 532,185 533,185 533,185 533,185 533,185 533,185 533,185 533,185 533,184 533,184 533,184 533,184 533,184 533,184 534,184 534,184 534,184 534,184 534,184 534,184 534,184 534,184 534,184 534,184 534,184 534,184 534,184 535,184 535,184 535,184 535,184 535,184 535,184 535,184 535,185 535,185 535,185 535,185 535,184 535,184 536,184 536,184 536,184 536,184 536,184 536,183 536,183 536,183 536,183 536,184 536,184 536,184 536,184 537,184 537,185 537,185 537,185 537,186 537,186 537,186 537,186 537,187 537,187 537,187 537,187 537,188 538,187 538,187 538,187 538,187 538,187 538,187 538,187 538,187 538,187 538,186 538,186 538,186 538,185 539,185 539,185 539,185 539,185 539,185 539,185 539,185 539,185 539,185 539,185 539,186 539,186 539,186 540,187 540,187 540,188 540,188 540,189 540,189 540,190 540,190 540,191 540,191 540,191 540,192 540,192 541,192 541,192 541,193 541,193 541,193 541,193 541,194 541,194 541,194 541,194 541,195 541,195 541,195 542,195 542,195 542,196 542,196 542,196 542,197 542,197 542,197 542,198 542,198 542,198 542,198 542,198 543,198 543,199 543,199 543,199 543,200 543,200 543,200 543,200 543,201 543,201 543,201 543,201 543,202 544,202 544,202 544,203 544,203 544,203 544,203 544,203 544,203 544,203 544,204 544,204 544,204 544,204 545,204 545,204 545,204 545,205 545,205 545,205 545,205 545,205 545,205 545,205 545,206 545,206 545,206 546,207 546,208 546,208 546,209 546,210 546,211 546,212 546,213 546,214 546,215 546,216 546,217 546,218 547,218 547,219 547,220 547,221 547,222 547,223 547,224 547,224 547,225 547,226 547,227 547,227 547,228 548,228 548,229 548,229 548,230 548,230 548,231 548,231 548,231 548,232 548,232 548,232 548,233 548,233 549,234 549,234 549,234 549,235 549,235 549,235 549,236 549,236 549,236 549,236 549,236 549,236 549,237 550,237 550,237 550,237 550,238 550,239 550,239 550,240 550,240 550,240 550,240 550,241 550,241 550,241 551,241 551,241 551,240 551,239 551,239 551,238 551,237 551,236 551,235 551,234 551,233 551,232 551,231 552,231 552,230 552,230 552,230 552,230 552,229 552,229 552,229 552,229 552,229 552,229 552,229 552,229 553,229 553,230 553,230 553,230 553,230 553,231 553,231 553,232 553,232 553,233 553,233 553,233 553,234 554,235 554,236 554,236 554,237 554,238 554,239 554,239 554,240 554,240 554,241 554,241 554,242 554,242 555,242 555,242 555,242 555,242 555,242 555,243 555,244 555,244 555,245 555,246 555,245 555,244 555,243 556,242 556,242 556,241 556,241 556,241 556,240 556,240 556,240 556,239 556,239 556,239 556,238 556,238 557,238 557,237 557,237 557,237 557,237 557,237 557,236 557,236 557,236 557,236 557,236 557,235 558,235 558,235 558,236 558,236 558,236 558,235 558,236 558,238 558,239 558,239 558,239 558,238 558,238 559,238 559,239 559,239 559,239 559,239 559,239 559,239 559,239 559,239 559,239 559,239 559,239 559,238 560,238 560,238 560,237 560,237 560,236 560,235 560,235 560,234 560,233 560,232 560,231 560,231 560,231 561,230 561,230 561,229 561,227 561,226 561,226 561,225 561,224 561,224 561,223 561,223 561,222 561,221 562,220 562,220 562,219 562,218 562,218 562,217 562,216 562,216 562,215 562,215 562,215 562,214 562,214 563,214 563,213 563,213 563,212 563,212 563,212 563,212 563,212 563,211 563,211 563,211 563,211 563,211 564,211 564,211 564,212 564,212 564,212 564,212 564,212 564,212 564,212 564,213 564,213 564,213 564,213 565,213 565,214 565,214 565,214 565,214 565,215 565,215 565,215 565,215 565,216 565,216 565,216 565,217 566,217 566,217 566,217 566,218 566,218 566,218 566,218 566,218 566,218 566,218 566,219 566,219 566,219 567,219 567,219 567,219 567,220 567,220 567,220 567,220 567,220 567,220 567,220 567,220 567,220 567,221 568,221 568,221 568,221 568,221 568,222 568,222 568,222 568,222 568,222 568,222 568,223 568,223 568,223 569,223 569,223 569,224 569,224 569,224 569,224 569,224 569,225 569,225 569,225 569,225 569,225 569,225 570,225 570,225 570,226 570,226 570,226 570,226 570,227 570,227 570,227 570,228 570,228 570,229 570,230 571,230 571,230 571,230 571,231 571,231 571,232 571,232 571,232 571,233 571,233 571,234 571,234 571,234 572,235 572,235 572,235 572,236 572,236 572,236 572,236 572,237 572,237 572,237 572,237 572,238 572,238 573,238 573,238 573,238 573,238 573,238 573,238 573,238 573,238 573,237 573,237 573,236 573,235 573,235 574,234 574,233 574,232 574,232 574,231 574,231 574,230 574,230 574,230 574,229 574,229 574,228 574,228 575,227 575,226 575,225 575,225 575,224 575,224 575,223 575,223 575,222 575,222 575,221 575,221 575,221 576,220 576,220 576,219 576,219 576,219 576,219 576,219 576,219 576,219 576,219 576,218 576,218 576,218 577,219 577,219 577,219 577,219 577,219 577,219 577,219 577,220 577,220 577,220 577,220 577,220 577,221 578,221 578,221 578,221 578,221 578,221 578,221 578,220 578,220 578,219 578,219 578,219 578,218 578,218 579,217 579,217 579,217 579,216 579,216 579,216 579,216 579,215 579,215 579,215 579,215 579,215 579,215 580,215 580,215 580,215 580,214 580,214 580,214 580,214 580,214 580,214 580,214 580,214 580,214 580,213 581,213 581,213 581,213 581,213 581,213 581,213 581,213 581,213 581,213 581,213 581,213 581,213 581,212 582,212 582,212 582,212 582,212 582,212 582,212 582,212 582,212 582,212 582,211 582,211 582,211 582,211 583,211 583,211 583,211 583,211 583,211 583,211 583,211 583,211 583,211 583,211 583,211 583,212 583,212 584,212 584,212 584,212 584,212 584,213 584,213 584,213 584,213 584,214 584,214 584,214 584,214 584,215 585,215 585,215 585,216 585,216 585,216 585,217 585,217 585,217 585,218 585,218 585,218 585,218 585,219 586,219 586,219 586,219 586,220 586,220 586,220 586,220 586,221 586,221 586,221 586,221 586,222 586,222 587,222 587,222 587,222 587,222 587,222 587,223 587,223 587,223 587,223 587,223 587,223 587,223 587,223 588,223 588,223 588,223 588,223 588,223 588,224 588,224 588,224 588,224 588,224 588,224 588,224 588,224 589,224 589,224 589,224 589,223 589,223 589,223 589,223 589,223 589,223 589,223 589,223 589,224 589,224 590,224 590,224 590,223 590,223 590,223 590,223 590,223 590,223 590,223 590,223 590,223 590,223 590,223 591,223 591,223 591,222 591,222 591,222 591,222 591,222 591,222 591,222 591,222 591,222 591,222 591,222 592,222 592,222 592,222 592,222 592,222 592,222 592,222 592,222 592,222 592,222 592,223 592,223 592,223 593,223 593,224 593,224 593,224 593,223 593,223 593,223 593,223 593,223 593,223 593,223 593,223 593,223 594,223 594,223 594,223 594,223 594,223 594,223 594,224 594,224 594,224 594,225 594,225 594,226 595,226 595,227 595,227 595,228 595,228 595,229 595,229 595,230 595,230 595,231 595,231 595,232 595,233 596,233 596,234 596,234 596,234 596,234 596,234 596,234 596,233 596,233 596,233 596,232 596,232 596,231 597,231 597,231 597,231 597,232 597,232 597,232 597,232 597,232 597,231 597,232 597,232 597,231 597,231 598,231 598,231 598,231 598,231 598,231 598,231 598,231 598,231 598,231 598,231 598,231 598,232 598,232 599,232 599,232 599,232 599,232 599,232 599,232 599,231 599,231 599,231 599,231 599,231 599,231 599,231 600,231 600,231 600,231 600,231 600,231 600,231 600,231 600,231 600,232 600,232 600,232 600,233 600,233 601,234 601,235 601,235 601,236 601,237 601,237 601,238 601,238 601,239 601,240 601,240 601,241 601,241 602,241 602,242 602,242 602,242 602,243 602,243 602,243 602,243 602,244 602,244 602,244 602,244 602,245 603,245 603,245 603,245 603,245 603,246 603,246 603,246 603,246 603,246 603,247 603,247 603,247 603,247 604,247 604,247 604,247 604,247 604,246 604,246 604,246 604,246 604,246 604,245 604,245 604,245 604,245 605,245 605,245 605,245 605,245 605,245 605,245 605,244 605,244 605,244 605,244 605,244 605,244 605,244 606,244 606,244 606,245 606,245 606,245 606,245 606,245 606,245 606,245 606,245 606,245 606,245 606,245 607,246 607,246 607,245 607,245 607,245 607,245 607,244 607,244 607,243 607,243 607,242 607,242 607,241 608,241 608,240 608,240 608,239 608,239 608,238 608,238 608,237 608,237 608,237 608,236 608,236 608,236 609,235 609,235 609,235 609,235 609,235 609,235 609,235 609,235 609,235 609,235 609,235 609,236 609,236 610,236 610,237 610,237 610,237 610,238 610,238 610,238 610,239 610,239 610,240 610,240 610,241 610,241 611,242 611,243 611,243 611,244 611,244 611,245 611,246 611,246 611,246 611,247 611,247 611,248 611,248 612,248 612,248 612,248 612,248 612,248 612,248 612,248 612,248 612,247 612,247 612,247 612,247 612,247 613,247 613,247 613,246 613,246 613,246 613,246 613,246 613,246 613,246 613,246 613,246 613,246 613,246 614,246 614,246 614,247 614,247 614,247 614,248 614,249 614,249 614,249 614,249 614,248 614,249 614,249 615,248 615,248 615,248 615,247 615,247 615,247 615,246 615,246 615,246 615,245 615,246 615,246 615,246 616,246 616,247 616,247 616,248 616,248 616,248 616,248 616,248 616,249 616,249 616,249 616,249 616,249 617,250 617,250 617,250 617,251 617,251 617,251 617,251 617,252 617,252 617,252 617,252 617,252 617,252 618,252 618,252 618,252 618,252 618,253 618,253 618,253 618,252 618,252 618,252 618,252 618,252 618,252 619,252 619,252 619,252 619,252 619,252 619,251 619,251 619,251 619,250 619,250 619,250 619,249 619,249 620,249 620,249 620,249 620,249 620,249 620,248 620,248 620,248 620,248 620,248 620,248 620,248 620,247 621,247 621,247 621,247 621,247 621,247 621,247 621,247 621,247 621,247 621,247 621,247 621,247 621,247 622,247 622,247 622,247 622,247 622,248 622,248 622,248 622,248 622,248 622,249 622,248 622,248 622,248 623,248 623,248 623,249 623,249 623,249 623,249 623,249 623,249 623,249 623,249 623,249 623,249 623,249 624,248 624,248 624,248 624,248 624,248 624,248 624,247 624,247 624,247 624,247 624,247 624,247 624,247 625,247 625,247 625,247 625,247 625,247 625,247 625,247 625,247 625,248 625,248 625,248 625,248 625,248 626,248 626,248 626,248 626,249 626,249 626,249 626,249 626,250 626,250 626,250 626,250 626,250 626,251 627,251 627,251 627,252 627,252 627,252 627,252 627,252 627,252 627,252 627,252 627,252 627,252 627,251 628,251 628,251 628,251 628,251 628,251 628,251 628,251 628,251 628,251 628,251 628,251 628,251 628,251 629,250 629,250 629,250 629,250 629,250 629,250 629,250 629,250 629,250 629,250 629,251 629,251 629,251 630,251 630,251 630,252 630,252 630,252 630,252 630,252 630,252 630,252 630,252 630,252 630,252 630,252 631,253 631,253 631,253 631,253 631,253 631,253 631,253 631,253 631,253 631,253 631,253 631,253 632,253 632,253 632,253 632,254 632,254 632,254 632,254 632,254 632,255 632,255 632,255 632,255 632,256 633,256 633,256 633,257 633,257 633,258 633,258 633,258 633,258 633,259 633,259 633,259 633,259 633,260 634,261 634,262 634,262 634,262 634,262 634,262 634,263 634,263 634,263 634,264 634,264 634,264 634,265 635,265 635,265 635,265 635,265 635,265 635,266 635,266 635,266 635,266 635,266 635,266 635,267 635,267 636,267 636,267 636,267 636,267 636,267 636,267 636,267 636,266 636,266 636,266 636,266 636,266 636,266 637,266 637,266 637,266 637,265 637,265 637,265 637,265 637,265 637,265 637,265 637,264 637,264 637,264 638,264 638,264 638,263 638,263 638,263 638,263 638,263 638,262 638,262 638,262 638,262 638,262 638,262 639,261 639,262 639,262 639,262 639,263 639,263 639,263 639,264 639,264 639,264 639,265 639,265 639,265 640,266 640,266 640,266 640,267 640,267 640,268 640,268 640,269 640,269 640,269 640,270 640,270 640,270 641,270 641,270 641,271 641,271 641,271 641,271 641,271 641,271 641,271 641,271 641,271 641,271 641,271 642,271 642,270 642,270 642,270 642,270 642,270 642,269 642,269 642,269 642,269 642,269 642,269 642,269 643,269 643,268 643,268 643,268 643,268 643,268 643,269 643,269 643,269 643,269 643,269 643,269 643,269 644,269 644,269 644,269 644,270 644,270 644,270 644,270 644,270 644,270 644,270 644,271 644,271 644,271 645,271 645,272 645,272 645,272 645,272 645,273 645,273 645,273 645,274 645,274 645,274 645,275 645,275 646,275 646,276 646,276 646,276 646,277 646,277 646,278 646,278 646,278 646,279 646,279 646,279 646,279 647,280 647,280 647,280 647,280 647,281 647,281 647,281 647,282 647,282 647,282 647,282 647,283 647,283 648,283 648,283 648,283 648,283 648,283 648,283 648,283 648,284 648,284 648,284 648,284 648,284 648,284 649,284 649,284 649,285 649,285 649,285 649,285 649,285 649,285 649,285 649,285 649,285 649,285 649,285 650,285 650,285 650,285 650,285 650,284 650,284 650,284 650,284 650,284 650,284 650,284 650,283 650,283 651,283 651,283 651,283 651,282 651,282 651,282 651,281 651,281 651,280 651,279 651,279 651,278 651,277 652,276 652,275 652,274 652,273 652,273 652,273 652,272 652,272 652,272 652,272 652,271 652,271 652,271 653,270 653,270 653,270 653,269 653,269 653,269 653,269 653,269 653,269 653,270 653,270 653,270 653,270 654,271 654,271 654,271 654,271 654,271 654,271 654,271 654,271 654,271 654,271 654,271 654,271 654,271 655,271 655,272 655,272 655,272 655,273 655,273 655,274 655,274 655,275 655,275 655,276 655,276 655,277 656,278 656,279 656,280 656,281 656,282 656,283 656,283 656,285 656,286 656,286 656,287 656,288 656,288 657,289 657,289 657,290 657,290 657,290 657,291 657,291 657,292 657,292 657,293 657,294 657,294 657,295 658,295 658,296 658,296 658,297 658,297 658,298 658,298 658,298 658,299 658,299 658,300 658,300 658,301 659,302 659,302 659,303 659,303 659,304 659,304 659,305 659,305 659,304 659,304 659,305 659,304 659,304 660,304 660,303 660,303 660,302 660,302 660,302 660,302 660,301 660,301 660,300 660,300 660,300 660,299 661,299 661,298 661,298 661,297 661,297 661,296 661,295 661,295 661,295 661,295 661,294 661,294 661,294 662,295 662,295 662,295 662,295 662,295 662,296 662,296 662,297 662,297 662,297 662,298 662,298 662,299 663,299 663,300 663,300 663,301 663,301 663,301 663,302 663,302 663,303 663,303 663,303 663,304 663,304 664,304 664,304 664,305 664,305 664,305 664,305 664,305 664,306 664,306 664,306 664,306 664,306 664,307 665,307 665,307 665,307 665,307 665,307 665,306 665,306 665,306 665,306 665,306 665,306 665,306 665,307 666,307 666,308 666,308 666,308 666,309 666,309 666,310 666,310 666,310 666,310 666,310 666,309 666,308 667,307 667,306 667,305 667,305 667,304 667,304 667,303 667,303 667,303 667,302 667,302 667,302 668,301 668,301 668,301 668,301 668,300 668,300 668,300 668,299 668,299 668,299 668,299 668,298 668,298 669,298 669,297 669,297 669,297 669,296 669,296 669,296 669,296 669,295 669,295 669,295 669,294 669,294 670,294 670,293 670,293 670,292 670,292 670,292 670,291 670,291 670,290 670,290 670,289 670,289 670,288 671,288 671,287 671,287 671,287 671,286 671,286 671,286 671,286 671,286 671,285 671,285 671,285 671,285 672,285 672,285 672,284 672,284 672,284 672,284 672,284 672,284 672,284 672,284 672,284 672,284 672,284 673,284 673,284 673,284 673,284 673,284 673,284 673,284 673,284 673,284 673,284 673,284 673,284 673,284 674,284 674,284 674,284 674,284 674,284 674,284 674,284 674,284 674,283 674,283 674,283 674,283 674,283 675,283 675,283 675,283 675,283 675,283 675,283 675,282 675,282 675,282 675,282 675,281 675,281 675,281 676,281 676,280 676,280 676,281 676,281 676,281 676,281 676,281 676,281 676,281 676,281 676,281 676,281 677,280 677,280 677,280 677,280 677,280 677,280 677,280 677,280 677,280 677,280 677,280 677,280 677,279 678,279 678,279 678,279 678,279 678,279 678,279 678,278 678,278 678,278 678,278 678,277 678,277 678,277 679,277 679,276 679,276 679,276 679,275 679,275 679,275 679,275 679,275 679,275 679,274 679,275 679,275 680,275 680,275 680,275 680,275 680,275 680,276 680,276 680,276 680,276 680,277 680,277 680,277 680,278 681,278 681,278 681,278 681,278 681,278 681,279 681,279 681,279 681,279 681,279 681,279 681,279 681,279 682,279 682,279 682,280 682,280 682,280 682,280 682,280 682,280 682,280 682,280 682,280 682,280 682,280 683,281 683,281 683,281 683,281 683,281 683,281 683,281 683,282 683,282 683,282 683,282 683,282 683,282 684,282 684,282 684,283 684,283 684,283 684,283 684,283 684,283 684,283 684,283 684,283 684,283 684,283 685,284 685,284 685,284 685,284 685,284 685,284 685,284 685,284 685,284 685,284 685,284 685,284 685,284 686,284 686,284 686,284 686,284 686,284 686,284 686,284 686,284 686,284 686,284 686,284 686,285 686,285 687,285 687,285 687,285 687,285 687,285 687,285 687,285 687,285 687,285 687,285 687,285 687,285 687,285 688,285 688,285 688,285 688,285 688,285 688,284 688,284 688,284 688,284 688,284 688,284 688,284 688,284 689,284 689,284 689,284 689,284 689,284 689,284 689,285 689,285 689,285 689,285 689,285 689,285 689,285 690,285 690,285 690,285 690,285 690,285 690,285 690,285 690,285 690,285 690,285 690,285 690,285 690,285 691,285 691,285 691,286 691,286 691,286 691,286 691,286 691,286 691,286 691,286 691,286 691,286 691,286 692,286 692,287 692,287 692,287 692,287 692,287 692,287 692,287 692,287 692,288 692,288 692,288 692,288 693,288 693,288 693,288 693,288 693,288 693,288 693,288 693,288 693,289 693,288 693,288 693,288 693,288 694,288 694,288 694,288 694,288 694,288 694,288 694,288 694,288 694,288 694,288 694,288 694,288 694,288 695,287 695,287 695,287 695,287 695,287 695,287 695,287 695,287 695,287 695,287 695,287 695,287 695,287 696,286 696,286 696,286 696,286 696,286 696,286 696,286 696,286 696,286 696,286 696,285 696,285 696,285 697,285 697,285 697,285 697,285 697,285 697,285 697,284 697,284 697,284 697,284 697,284 697,284 697,284 698,284 698,284 698,284 698,284 698,283 698,283 698,283 698,283 698,283 698,282 698,282 698,282 698,282 699,282 699,281 699,281 699,281 699,281 699,281 699,281 699,281 699,281 699,280 699,280 699,280 699,280 700,280 700,280 700,279 700,279 700,279 700,279 700,279 700,279 700,278 700,278 700,278 700,278 700,278 701,278 701,278 701,278 701,278 701,278 701,277 701,277 701,277 701,277 701,277 701,277 701,276 701,276 702,276 702,276 702,275 702,275 702,275 702,275 702,275 702,274 702,274 702,274 702,274 702,274 702,273 703,273 703,273 703,273 703,273 703,273 703,272 703,272 703,272 703,272 703,272 703,271 703,271 703,271 704,271 704,270 704,270 704,270 704,269 704,269 704,268 704,268 704,267 704,266 704,266 704,265 705,265 705,265 705,264 705,264 705,263 705,263 705,262 705,262 705,262 705,261 705,261 705,261 705,260 706,260 706,260 706,259 706,259 706,258 706,257 706,256 706,254 706,253 706,252 706,251 706,250 706,249 707,248 707,247 707,246 707,245 707,244 707,243 707,243 707,242 707,241 707,241 707,240 707,240 707,239 708,239 708,238 708,238 708,237 708,237 708,237 708,236 708,236 708,236 708,236 708,235 708,235 708,235 709,235 709,235 709,235 709,235 709,235 709,235 709,235 709,235 709,235 709,234 709,234 709,234 709,233 710,233 710,233 710,233 710,232 710,232 710,232 710,232 710,231 710,231 710,231 710,231 710,231 710,231 711,231 711,231 711,231 711,231 711,231 711,230 711,230 711,230 711,230 711,230 711,230 711,230 711,230 712,230 712,230 712,230 712,230 712,230 712,230 712,230 712,230 712,230 712,230 712,230 712,230 712,231 713,231 713,231 713,231 713,231 713,232 713,232 713,232 713,232 713,233 713,233 713,233 713,233 713,233 714,234 714,234 714,234 714,234 714,235 714,235 714,235 714,235 714,235 714,236 714,236 714,236 714,236 715,237 715,237 715,237 715,237 715,238 715,238 715,238 715,238 715,238 715,239 715,239 715,239 715,239 716,239 716,240 716,240 716,240 716,240 716,240 716,240 716,240 716,241 716,241 716,241 716,241 716,241 717,242 717,242 717,242 717,242 717,242 717,243 717,243 717,243 717,243 717,244 717,243 717,243 717,243 718,243 718,243 718,243 718,244 718,244 718,244 718,244 718,244 718,244 718,245 718,245 718,245 718,245 719,245 719,245 719,245 719,246 719,246 719,246 719,246 719,246 719,246 719,246 719,246 719,247 719,247 720,247 720,247 720,247 720,247 720,247 720,247 720,247 720,247 720,247 720,247 720,247 720,247 720,247 721,247 721,247 721,247 721,247 721,247 721,248 721,248 721,248 721,248 721,248 721,248 721,248 721,248 722,248 722,248 722,248 722,248 722,248 722,248 722,248 722,248 722,248 722,248 722,248 722,248 722,248 723,248 723,248 723,248 723,249 723,249 723,249 723,249 723,249 723,250 723,250 723,250 723,251 723,251 724,251 724,252 724,252 724,252 724,252 724,252 724,253 724,253 724,253 724,253 724,253 724,254 724,254 725,254 725,254 725,255 725,255 725,255 725,255 725,255 725,255 725,256 725,256 725,256 725,256 725,256 726,256 726,256 726,256 726,256 726,256 726,256 726,256 726,256 726,256 726,256 726,256 726,256 726,256 727,256 727,256 727,256 727,256 727,256 727,256 727,256 727,257 727,257 727,257 727,257 727,258 727,258 728,258 728,259 728,259 728,259 728,260 728,260 728,260 728,260 728,260 728,260 728,260 728,260 728,260 729,260 729,260 729,260 729,260 729,260 729,260 729,260 729,260 729,260 729,260 729,260 729,260 729,260 730,259 730,259 730,259 730,259 730,259 730,259 730,259 730,259 730,259 730,260 730,260 730,260 730,260 731,260 731,260 731,260 731,260 731,260 731,259 731,259 731,259 731,258 731,258 731,258 731,257 731,257 732,257 732,257 732,257 732,257 732,257 732,257 732,257 732,257 732,258 732,258 732,258 732,258 732,259 733,259 733,259 733,260 733,260 733,261 733,261 733,262 733,262 733,262 733,263 733,264 733,264 733,265 734,265 734,265 734,265 734,266 734,266 734,266 734,265 734,265 734,265 734,265 734,265 734,265 734,265 735,264 735,264 735,264 735,264 735,264 735,264 735,264 735,263 735,263 735,263 735,263 735,263 735,263 736,263 736,263 736,262 736,262 736,262 736,262 736,262 736,262 736,262 736,262 736,262 " vector-effect="non-scaling-stroke"></polyline>
</g></svg>