<?xml version="1.0" encoding="UTF-8" standalone="no"?><svg width="282.222mm" height="141.111mm" xmlns="http://www.w3.org/2000/svg" xmlns:xlink="http://www.w3.org/1999/xlink"  version="1.2" baseProfile="tiny"><g fill="none" stroke="#ff0000" stroke-linecap="round" stroke-linejoin="round" stroke-opacity="1" stroke-width="1.5" transform="matrix(1,0,0,1,0,0)">
<polyline fill="none" points="61,277 61,277 61,277 61,277 61,277 61,276 61,276 61,276 61,276 61,276 61,276 61,275 61,275 62,275 62,275 62,275 62,275 62,275 62,274 62,274 62,274 62,274 62,274 62,274 62,274 62,273 63,273 63,272 63,272 63,272 63,271 63,271 63,271 63,271 63,271 63,270 63,270 63,270 63,270 64,270 64,270 64,270 64,269 64,269 64,269 64,269 64,269 64,269 64,269 64,269 64,269 64,269 65,269 65,269 65,269 65,268 65,268 65,268 65,268 65,268 65,268 65,268 65,268 65,268 65,269 66,269 66,269 66,269 66,269 66,269 66,269 66,269 66,269 66,269 66,269 66,269 66,269 66,270 67,270 67,270 67,270 67,270 67,270 67,271 67,271 67,271 67,271 67,271 67,271 67,272 67,272 68,272 68,273 68,273 68,273 68,273 68,273 68,273 68,273 68,273 68,273 68,273 68,274 68,274 69,275 69,275 69,275 69,276 69,276 69,276 69,277 69,277 69,278 69,278 69,278 69,278 69,278 70,278 70,278 70,279 70,279 70,279 70,279 70,279 70,279 70,279 70,279 70,279 70,279 70,279 71,279 71,279 71,279 71,278 71,278 71,277 71,277 71,276 71,276 71,275 71,275 71,274 71,274 72,274 72,274 72,273 72,273 72,273 72,272 72,272 72,272 72,271 72,271 72,270 72,270 72,270 73,269 73,269 73,269 73,269 73,269 73,268 73,268 73,267 73,267 73,266 73,266 73,265 73,265 74,265 74,265 74,264 74,264 74,264 74,263 74,263 74,263 74,262 74,262 74,262 74,261 74,261 75,261 75,260 75,260 75,260 75,260 75,260 75,260 75,260 75,260 75,260 75,260 75,260 75,260 76,260 76,260 76,260 76,260 76,260 76,260 76,260 76,260 76,260 76,261 76,261 76,261 76,261 77,261 77,261 77,262 77,262 77,262 77,262 77,262 77,262 77,262 77,263 77,263 77,263 78,263 78,263 78,263 78,263 78,264 78,264 78,264 78,265 78,265 78,265 78,265 78,265 78,265 79,265 79,265 79,265 79,265 79,265 79,265 79,265 79,265 79,266 79,266 79,266 79,266 79,266 80,266 80,267 80,267 80,267 80,267 80,267 80,268 80,268 80,268 80,268 80,268 80,268 80,268 81,268 81,268 81,268 81,268 81,268 81,268 81,268 81,267 81,267 81,267 81,267 81,267 81,267 82,267 82,267 82,267 82,267 82,267 82,267 82,266 82,266 82,266 82,265 82,265 82,264 82,264 83,264 83,264 83,264 83,264 83,264 83,263 83,263 83,263 83,263 83,262 83,262 83,261 83,261 84,261 84,260 84,260 84,259 84,259 84,258 84,258 84,257 84,257 84,256 84,256 84,255 84,255 85,255 85,254 85,254 85,254 85,254 85,253 85,253 85,252 85,252 85,252 85,252 85,252 85,252 86,252 86,252 86,252 86,251 86,251 86,251 86,251 86,251 86,251 86,251 86,252 86,252 86,252 87,252 87,252 87,253 87,252 87,252 87,252 87,252 87,252 87,251 87,251 87,251 87,250 87,250 88,249 88,249 88,248 88,248 88,247 88,246 88,246 88,246 88,246 88,245 88,245 88,244 88,244 89,244 89,244 89,244 89,244 89,244 89,243 89,243 89,243 89,243 89,243 89,244 89,245 89,245 90,246 90,247 90,248 90,249 90,249 90,249 90,250 90,250 90,250 90,249 90,249 90,249 90,249 91,249 91,249 91,249 91,249 91,249 91,249 91,249 91,249 91,249 91,249 91,249 91,249 91,249 92,248 92,248 92,247 92,247 92,247 92,246 92,246 92,246 92,245 92,244 92,244 92,243 92,243 93,242 93,241 93,241 93,240 93,239 93,238 93,238 93,237 93,236 93,235 93,234 93,233 93,232 94,231 94,230 94,229 94,228 94,227 94,226 94,225 94,224 94,223 94,222 94,221 94,220 94,219 95,219 95,219 95,219 95,220 95,220 95,219 95,219 95,219 95,220 95,220 95,220 95,220 95,220 96,220 96,221 96,221 96,221 96,221 96,221 96,221 96,221 96,221 96,221 96,222 96,221 96,220 97,220 97,220 97,221 97,223 97,224 97,225 97,226 97,228 97,229 97,230 97,230 97,230 97,231 98,232 98,230 98,229 98,228 98,226 98,225 98,224 98,223 98,222 98,221 98,220 98,219 98,218 99,217 99,217 99,216 99,216 99,215 99,215 99,214 99,214 99,214 99,214 99,213 99,213 99,213 100,214 100,214 100,214 100,214 100,215 100,215 100,215 100,216 100,216 100,217 100,218 100,219 100,220 101,221 101,222 101,222 101,223 101,224 101,225 101,226 101,227 101,228 101,229 101,230 101,230 101,231 102,232 102,233 102,234 102,234 102,235 102,235 102,236 102,237 102,239 102,241 102,243 102,245 102,246 103,248 103,249 103,251 103,253 103,254 103,256 103,257 103,258 103,259 103,260 103,261 103,262 103,262 104,263 104,263 104,262 104,262 104,261 104,260 104,258 104,257 104,256 104,255 104,254 104,253 104,251 105,250 105,249 105,248 105,246 105,245 105,244 105,243 105,241 105,240 105,239 105,238 105,237 105,235 106,234 106,234 106,233 106,232 106,231 106,231 106,230 106,230 106,229 106,229 106,229 106,228 106,228 107,227 107,227 107,227 107,226 107,226 107,226 107,226 107,226 107,226 107,225 107,225 107,225 107,224 108,223 108,223 108,222 108,221 108,220 108,219 108,218 108,216 108,215 108,214 108,213 108,213 108,212 109,212 109,211 109,211 109,210 109,210 109,209 109,210 109,210 109,210 109,210 109,210 109,210 109,210 110,210 110,210 110,210 110,210 110,210 110,211 110,211 110,211 110,211 110,211 110,211 110,211 111,211 111,211 111,212 111,213 111,213 111,214 111,214 111,215 111,216 111,217 111,217 111,218 111,219 112,221 112,222 112,223 112,224 112,225 112,227 112,228 112,229 112,230 112,231 112,232 112,233 112,234 113,235 113,236 113,236 113,236 113,235 113,235 113,234 113,234 113,233 113,233 113,232 113,231 113,230 114,230 114,229 114,229 114,229 114,229 114,229 114,229 114,229 114,229 114,229 114,230 114,230 114,231 115,231 115,232 115,232 115,233 115,233 115,234 115,235 115,235 115,236 115,236 115,237 115,237 115,238 116,238 116,239 116,239 116,240 116,240 116,240 116,241 116,241 116,241 116,241 116,242 116,242 116,242 117,242 117,242 117,242 117,242 117,242 117,242 117,242 117,242 117,243 117,243 117,243 117,243 117,243 118,244 118,244 118,244 118,245 118,245 118,245 118,245 118,245 118,244 118,244 118,243 118,243 118,243 119,243 119,243 119,242 119,242 119,242 119,242 119,242 119,242 119,242 119,242 119,242 119,242 119,242 120,242 120,242 120,242 120,241 120,241 120,240 120,239 120,239 120,238 120,237 120,237 120,236 120,236 121,235 121,234 121,233 121,232 121,232 121,231 121,230 121,228 121,227 121,226 121,225 121,225 121,223 122,222 122,221 122,221 122,220 122,219 122,219 122,218 122,218 122,217 122,216 122,216 122,215 122,214 123,214 123,213 123,213 123,213 123,212 123,212 123,211 123,211 123,211 123,210 123,210 123,209 123,209 124,208 124,208 124,208 124,207 124,207 124,206 124,206 124,206 124,205 124,205 124,205 124,205 124,205 125,205 125,205 125,205 125,205 125,205 125,205 125,205 125,205 125,205 125,205 125,205 125,205 125,205 126,205 126,205 126,205 126,205 126,206 126,206 126,206 126,206 126,206 126,206 126,207 126,207 126,207 127,207 127,208 127,208 127,208 127,209 127,209 127,209 127,210 127,210 127,211 127,212 127,212 127,213 128,214 128,215 128,215 128,216 128,217 128,219 128,220 128,221 128,223 128,224 128,225 128,225 128,225 129,224 129,223 129,223 129,222 129,220 129,219 129,218 129,217 129,217 129,216 129,215 129,215 129,214 130,214 130,213 130,213 130,213 130,213 130,213 130,212 130,212 130,212 130,212 130,212 130,212 130,212 131,212 131,212 131,212 131,212 131,212 131,212 131,212 131,213 131,214 131,215 131,216 131,217 131,218 132,219 132,220 132,221 132,221 132,221 132,221 132,222 132,222 132,222 132,221 132,221 132,220 132,218 133,217 133,215 133,214 133,213 133,212 133,211 133,210 133,209 133,208 133,208 133,207 133,206 133,205 134,204 134,203 134,203 134,202 134,202 134,201 134,200 134,200 134,199 134,199 134,198 134,197 134,197 135,196 135,196 135,195 135,194 135,194 135,193 135,193 135,192 135,192 135,191 135,191 135,190 135,190 136,189 136,189 136,188 136,188 136,187 136,187 136,187 136,186 136,186 136,186 136,185 136,185 136,184 137,184 137,183 137,183 137,183 137,182 137,182 137,181 137,181 137,181 137,180 137,180 137,180 137,179 138,179 138,179 138,179 138,179 138,178 138,178 138,179 138,179 138,179 138,179 138,179 138,179 138,179 139,179 139,179 139,179 139,179 139,179 139,179 139,179 139,179 139,179 139,180 139,180 139,180 139,180 140,180 140,180 140,180 140,180 140,179 140,179 140,179 140,180 140,180 140,181 140,182 140,182 140,183 141,183 141,184 141,185 141,185 141,186 141,187 141,187 141,187 141,187 141,187 141,187 141,188 141,188 142,188 142,189 142,189 142,189 142,190 142,190 142,190 142,191 142,191 142,192 142,192 142,193 142,194 143,194 143,194 143,194 143,194 143,194 143,194 143,194 143,194 143,193 143,193 143,193 143,193 144,193 144,194 144,194 144,194 144,194 144,194 144,194 144,194 144,195 144,195 144,195 144,195 144,196 145,196 145,196 145,196 145,197 145,197 145,197 145,197 145,198 145,198 145,198 145,198 145,199 145,199 146,199 146,199 146,200 146,200 146,200 146,200 146,201 146,201 146,202 146,203 146,203 146,204 146,205 147,206 147,206 147,207 147,207 147,207 147,208 147,208 147,208 147,208 147,208 147,207 147,207 147,207 148,207 148,207 148,207 148,207 148,207 148,206 148,206 148,206 148,205 148,205 148,204 148,204 148,203 149,203 149,203 149,203 149,203 149,202 149,202 149,202 149,201 149,201 149,202 149,202 149,202 149,202 150,202 150,202 150,202 150,202 150,202 150,202 150,201 150,201 150,201 150,201 150,201 150,200 150,200 151,199 151,199 151,199 151,198 151,198 151,198 151,197 151,197 151,196 151,196 151,196 151,195 151,195 152,195 152,194 152,194 152,194 152,194 152,193 152,193 152,193 152,193 152,193 152,193 152,193 152,193 153,192 153,192 153,192 153,192 153,192 153,192 153,191 153,191 153,191 153,191 153,191 153,190 153,190 154,190 154,190 154,189 154,189 154,189 154,188 154,188 154,188 154,187 154,187 154,187 154,186 154,186 155,185 155,184 155,183 155,182 155,181 155,181 155,181 155,181 155,181 155,181 155,181 155,181 155,181 156,181 156,180 156,180 156,180 156,180 156,180 156,180 156,180 156,180 156,180 156,180 156,180 156,180 157,180 157,180 157,179 157,179 157,179 157,178 157,178 157,178 157,178 157,178 157,178 157,177 157,177 158,177 158,177 158,177 158,176 158,176 158,175 158,175 158,175 158,174 158,174 158,173 158,173 158,173 159,172 159,172 159,171 159,171 159,171 159,171 159,170 159,170 159,170 159,170 159,170 159,169 159,169 160,169 160,169 160,169 160,169 160,169 160,169 160,169 160,168 160,168 160,168 160,168 160,168 160,168 161,168 161,168 161,168 161,168 161,168 161,168 161,167 161,167 161,167 161,167 161,167 161,167 161,167 162,167 162,167 162,167 162,167 162,167 162,167 162,167 162,167 162,166 162,166 162,166 162,166 162,166 163,166 163,166 163,165 163,165 163,165 163,165 163,165 163,165 163,165 163,165 163,165 163,164 163,164 164,164 164,164 164,164 164,164 164,163 164,163 164,163 164,163 164,163 164,163 164,162 164,162 164,162 165,162 165,162 165,162 165,162 165,162 165,162 165,162 165,162 165,162 165,162 165,162 165,162 165,162 166,163 166,163 166,163 166,163 166,163 166,163 166,164 166,164 166,164 166,165 166,165 166,165 166,165 167,166 167,166 167,166 167,166 167,166 167,166 167,166 167,166 167,166 167,165 167,165 167,165 167,165 168,165 168,165 168,165 168,165 168,165 168,165 168,165 168,165 168,165 168,164 168,164 168,164 168,163 169,163 169,163 169,163 169,163 169,162 169,162 169,162 169,161 169,161 169,161 169,161 169,161 169,161 170,161 170,161 170,161 170,161 170,160 170,160 170,160 170,160 170,160 170,160 170,160 170,160 170,161 171,161 171,161 171,161 171,161 171,162 171,162 171,162 171,162 171,162 171,163 171,163 171,163 171,163 172,164 172,164 172,164 172,165 172,165 172,165 172,165 172,165 172,165 172,166 172,166 172,167 172,168 173,168 173,168 173,169 173,169 173,170 173,171 173,172 173,172 173,173 173,173 173,173 173,173 173,173 174,173 174,172 174,172 174,171 174,171 174,171 174,170 174,170 174,169 174,169 174,168 174,168 174,167 175,167 175,167 175,167 175,166 175,166 175,166 175,165 175,165 175,165 175,164 175,164 175,164 175,164 176,164 176,164 176,163 176,163 176,163 176,163 176,163 176,163 176,162 176,162 176,162 176,162 177,162 177,162 177,162 177,162 177,162 177,162 177,163 177,163 177,163 177,163 177,163 177,163 177,163 178,163 178,163 178,164 178,164 178,165 178,165 178,166 178,167 178,167 178,168 178,168 178,169 178,169 179,170 179,171 179,171 179,172 179,173 179,173 179,174 179,175 179,176 179,177 179,178 179,179 179,180 180,181 180,181 180,182 180,183 180,184 180,185 180,186 180,187 180,188 180,188 180,189 180,189 180,190 181,190 181,190 181,190 181,190 181,190 181,189 181,188 181,188 181,187 181,188 181,188 181,188 181,188 182,188 182,188 182,188 182,188 182,188 182,188 182,189 182,189 182,189 182,189 182,189 182,189 182,189 183,188 183,189 183,189 183,188 183,188 183,188 183,189 183,192 183,194 183,196 183,198 183,200 183,202 184,205 184,206 184,206 184,205 184,205 184,205 184,205 184,204 184,204 184,203 184,203 184,203 184,203 185,203 185,203 185,203 185,203 185,203 185,203 185,203 185,203 185,203 185,202 185,202 185,202 185,201 186,201 186,201 186,201 186,201 186,200 186,200 186,199 186,200 186,200 186,200 186,200 186,199 186,199 187,198 187,198 187,197 187,197 187,197 187,197 187,196 187,196 187,196 187,196 187,196 187,195 187,194 188,194 188,193 188,193 188,192 188,192 188,191 188,190 188,189 188,188 188,188 188,187 188,187 188,186 189,185 189,185 189,184 189,184 189,183 189,183 189,183 189,183 189,182 189,182 189,182 189,181 189,181 190,181 190,180 190,180 190,180 190,179 190,179 190,179 190,179 190,178 190,178 190,178 190,178 190,177 191,177 191,177 191,177 191,176 191,176 191,176 191,175 191,175 191,174 191,173 191,173 191,173 191,173 192,173 192,173 192,173 192,173 192,173 192,173 192,173 192,174 192,174 192,174 192,174 192,175 192,175 193,176 193,177 193,177 193,177 193,178 193,179 193,180 193,181 193,182 193,183 193,183 193,184 193,185 194,186 194,186 194,187 194,187 194,188 194,188 194,189 194,189 194,190 194,190 194,191 194,191 194,192 195,192 195,193 195,193 195,194 195,194 195,195 195,195 195,196 195,196 195,197 195,197 195,198 195,198 196,199 196,199 196,199 196,200 196,200 196,201 196,201 196,201 196,202 196,202 196,203 196,203 196,203 197,204 197,203 197,203 197,204 197,204 197,205 197,205 197,205 197,206 197,207 197,208 197,208 197,209 198,209 198,210 198,211 198,211 198,211 198,212 198,212 198,212 198,212 198,212 198,212 198,212 198,212 199,211 199,211 199,211 199,211 199,211 199,211 199,211 199,211 199,211 199,211 199,211 199,210 199,210 200,210 200,209 200,209 200,209 200,208 200,208 200,208 200,208 200,208 200,208 200,208 200,208 200,207 201,207 201,208 201,208 201,207 201,207 201,207 201,206 201,206 201,206 201,206 201,206 201,205 201,205 202,205 202,205 202,205 202,205 202,205 202,204 202,204 202,203 202,202 202,202 202,202 202,201 202,201 203,200 203,200 203,200 203,200 203,200 203,199 203,199 203,199 203,199 203,199 203,199 203,200 203,200 204,200 204,200 204,200 204,200 204,200 204,200 204,200 204,200 204,201 204,201 204,201 204,201 204,201 205,201 205,200 205,200 205,200 205,200 205,199 205,199 205,198 205,198 205,198 205,198 205,198 205,198 206,198 206,197 206,197 206,197 206,196 206,196 206,195 206,195 206,195 206,194 206,194 206,193 206,193 207,194 207,194 207,194 207,194 207,194 207,194 207,194 207,194 207,194 207,194 207,194 207,194 207,194 208,193 208,193 208,193 208,192 208,192 208,192 208,191 208,191 208,191 208,190 208,190 208,190 208,190 209,189 209,189 209,189 209,189 209,188 209,188 209,188 209,188 209,188 209,187 209,187 209,187 210,187 210,186 210,186 210,186 210,186 210,185 210,185 210,185 210,185 210,184 210,184 210,184 210,184 211,184 211,184 211,183 211,183 211,184 211,184 211,183 211,183 211,183 211,183 211,183 211,183 211,183 212,182 212,182 212,182 212,181 212,181 212,180 212,180 212,180 212,179 212,179 212,179 212,178 212,178 213,178 213,177 213,177 213,176 213,176 213,176 213,175 213,175 213,174 213,174 213,173 213,173 213,172 214,172 214,171 214,171 214,171 214,170 214,170 214,169 214,169 214,168 214,168 214,167 214,167 214,167 215,166 215,165 215,165 215,164 215,164 215,163 215,163 215,163 215,163 215,163 215,163 215,163 215,163 216,162 216,162 216,162 216,162 216,162 216,162 216,161 216,161 216,161 216,161 216,161 216,160 216,160 217,160 217,159 217,159 217,159 217,159 217,159 217,159 217,160 217,161 217,161 217,162 217,162 217,162 218,163 218,164 218,164 218,165 218,165 218,166 218,167 218,167 218,168 218,168 218,169 218,169 218,170 219,171 219,172 219,172 219,173 219,173 219,173 219,174 219,174 219,174 219,174 219,174 219,173 219,173 220,172 220,171 220,171 220,170 220,170 220,169 220,169 220,169 220,168 220,168 220,167 220,166 220,166 221,165 221,165 221,164 221,164 221,163 221,163 221,162 221,161 221,161 221,161 221,160 221,160 221,160 222,160 222,160 222,159 222,159 222,159 222,159 222,159 222,159 222,159 222,159 222,159 222,159 222,159 223,159 223,159 223,160 223,160 223,160 223,160 223,160 223,160 223,160 223,160 223,160 223,160 223,161 224,161 224,162 224,162 224,163 224,163 224,163 224,164 224,164 224,164 224,164 224,163 224,163 224,163 225,163 225,163 225,163 225,163 225,163 225,163 225,162 225,162 225,162 225,162 225,162 225,162 225,161 226,161 226,161 226,161 226,161 226,161 226,161 226,161 226,161 226,161 226,161 226,161 226,161 226,161 227,162 227,162 227,162 227,163 227,163 227,164 227,164 227,164 227,165 227,165 227,166 227,166 227,166 228,166 228,166 228,167 228,167 228,167 228,167 228,167 228,168 228,168 228,168 228,168 228,168 228,167 229,167 229,166 229,166 229,166 229,166 229,166 229,166 229,166 229,166 229,166 229,166 229,166 229,166 230,166 230,166 230,166 230,166 230,166 230,166 230,165 230,165 230,165 230,165 230,165 230,165 230,165 231,165 231,165 231,164 231,164 231,164 231,164 231,164 231,164 231,163 231,163 231,163 231,163 231,163 232,163 232,162 232,162 232,162 232,162 232,162 232,161 232,161 232,161 232,161 232,160 232,160 232,159 233,159 233,159 233,159 233,158 233,158 233,158 233,157 233,157 233,156 233,156 233,156 233,156 233,156 234,156 234,155 234,155 234,155 234,155 234,155 234,155 234,155 234,155 234,155 234,155 234,155 234,155 235,155 235,155 235,155 235,155 235,156 235,156 235,156 235,156 235,156 235,156 235,157 235,157 235,158 236,158 236,158 236,159 236,159 236,159 236,159 236,160 236,160 236,160 236,161 236,161 236,161 236,161 237,162 237,162 237,162 237,163 237,163 237,163 237,163 237,164 237,164 237,164 237,164 237,164 237,164 238,164 238,164 238,164 238,164 238,164 238,164 238,164 238,164 238,164 238,164 238,164 238,164 238,164 239,165 239,165 239,165 239,165 239,165 239,166 239,166 239,166 239,166 239,165 239,165 239,165 239,165 240,164 240,164 240,164 240,164 240,164 240,163 240,163 240,163 240,163 240,163 240,163 240,163 240,164 241,164 241,163 241,162 241,162 241,161 241,161 241,161 241,161 241,160 241,160 241,160 241,160 241,160 242,160 242,160 242,160 242,159 242,159 242,159 242,159 242,159 242,159 242,159 242,159 242,159 242,159 243,159 243,159 243,159 243,159 243,159 243,159 243,159 243,159 243,159 243,159 243,160 243,160 244,160 244,160 244,160 244,160 244,161 244,161 244,161 244,161 244,162 244,162 244,163 244,163 244,163 245,164 245,164 245,165 245,165 245,166 245,166 245,167 245,167 245,168 245,168 245,168 245,168 245,168 246,169 246,169 246,169 246,169 246,168 246,168 246,168 246,168 246,168 246,169 246,169 246,169 246,168 247,168 247,168 247,168 247,168 247,168 247,169 247,169 247,169 247,170 247,171 247,171 247,171 247,172 248,173 248,173 248,174 248,174 248,175 248,175 248,176 248,176 248,176 248,177 248,177 248,178 248,178 249,178 249,178 249,178 249,178 249,178 249,178 249,178 249,178 249,178 249,178 249,178 249,178 249,178 250,178 250,178 250,178 250,178 250,178 250,178 250,178 250,178 250,177 250,177 250,177 250,177 250,177 251,177 251,177 251,177 251,177 251,177 251,177 251,177 251,177 251,177 251,177 251,177 251,177 251,176 252,176 252,176 252,176 252,176 252,176 252,175 252,175 252,175 252,174 252,174 252,174 252,173 252,173 253,173 253,172 253,172 253,172 253,171 253,171 253,171 253,171 253,170 253,170 253,170 253,169 253,169 254,168 254,168 254,168 254,168 254,168 254,168 254,168 254,168 254,169 254,169 254,169 254,169 254,169 255,170 255,170 255,170 255,170 255,171 255,171 255,171 255,171 255,171 255,171 255,171 255,171 255,171 256,171 256,171 256,171 256,170 256,170 256,170 256,170 256,170 256,170 256,170 256,170 256,170 256,170 257,169 257,169 257,170 257,169 257,170 257,170 257,170 257,171 257,172 257,171 257,171 257,172 257,172 258,173 258,173 258,174 258,174 258,174 258,174 258,175 258,175 258,176 258,176 258,177 258,178 258,179 259,180 259,181 259,182 259,183 259,183 259,183 259,181 259,180 259,180 259,179 259,179 259,178 259,178 260,177 260,177 260,177 260,177 260,176 260,176 260,176 260,176 260,176 260,176 260,176 260,176 260,176 261,176 261,177 261,177 261,177 261,177 261,177 261,178 261,178 261,178 261,178 261,178 261,178 261,178 262,178 262,178 262,178 262,179 262,179 262,179 262,179 262,180 262,180 262,181 262,181 262,181 262,181 263,180 263,180 263,180 263,180 263,181 263,182 263,182 263,182 263,182 263,183 263,184 263,185 263,185 264,185 264,186 264,187 264,187 264,187 264,188 264,189 264,189 264,190 264,190 264,191 264,191 264,192 265,192 265,193 265,194 265,194 265,195 265,196 265,197 265,197 265,198 265,198 265,199 265,200 265,200 266,201 266,202 266,202 266,203 266,204 266,204 266,205 266,206 266,206 266,207 266,207 266,208 266,208 267,208 267,209 267,209 267,209 267,209 267,209 267,210 267,210 267,210 267,210 267,210 267,210 267,210 268,209 268,209 268,209 268,209 268,209 268,209 268,209 268,209 268,208 268,208 268,208 268,208 268,208 269,208 269,207 269,207 269,207 269,207 269,207 269,207 269,207 269,207 269,207 269,206 269,206 269,206 270,205 270,205 270,206 270,206 270,206 270,207 270,207 270,208 270,208 270,209 270,210 270,210 270,211 271,211 271,212 271,212 271,213 271,213 271,213 271,213 271,212 271,213 271,213 271,213 271,213 271,213 272,213 272,213 272,213 272,213 272,213 272,212 272,212 272,212 272,212 272,212 272,212 272,212 272,212 273,212 273,212 273,212 273,212 273,212 273,212 273,212 273,213 273,213 273,213 273,213 273,214 273,214 274,215 274,215 274,215 274,215 274,216 274,216 274,216 274,216 274,216 274,217 274,217 274,217 274,217 275,218 275,218 275,218 275,219 275,219 275,219 275,219 275,219 275,219 275,219 275,219 275,219 275,219 276,219 276,219 276,219 276,220 276,220 276,220 276,221 276,221 276,221 276,221 276,221 276,221 277,221 277,221 277,222 277,222 277,222 277,222 277,222 277,222 277,222 277,222 277,223 277,223 277,223 278,223 278,223 278,224 278,224 278,224 278,224 278,224 278,224 278,224 278,224 278,224 278,224 278,224 279,223 279,223 279,223 279,223 279,223 279,223 279,223 279,223 279,223 279,223 279,223 279,223 279,223 280,223 280,223 280,223 280,223 280,223 280,223 280,223 280,223 280,223 280,223 280,223 280,223 280,223 281,223 281,223 281,223 281,223 281,223 281,223 281,223 281,223 281,223 281,222 281,222 281,222 281,222 282,222 282,222 282,222 282,222 282,222 282,222 282,222 282,222 282,222 282,222 282,222 282,222 282,221 283,221 283,221 283,221 283,221 283,221 283,221 283,221 283,221 283,221 283,220 283,220 283,220 283,219 284,219 284,219 284,219 284,219 284,219 284,218 284,218 284,218 284,217 284,217 284,217 284,217 284,216 285,216 285,216 285,216 285,215 285,215 285,215 285,215 285,215 285,214 285,214 285,214 285,214 285,214 286,213 286,213 286,213 286,213 286,212 286,212 286,212 286,211 286,211 286,211 286,211 286,211 286,210 287,210 287,210 287,210 287,209 287,209 287,209 287,208 287,208 287,207 287,207 287,207 287,207 287,206 288,206 288,206 288,205 288,205 288,205 288,205 288,205 288,204 288,204 288,204 288,204 288,204 288,205 289,205 289,205 289,205 289,205 289,205 289,205 289,205 289,206 289,206 289,206 289,206 289,206 289,206 290,206 290,206 290,206 290,206 290,206 290,206 290,206 290,206 290,206 290,206 290,206 290,207 290,207 291,208 291,208 291,208 291,209 291,209 291,209 291,210 291,210 291,211 291,211 291,211 291,211 291,210 292,210 292,210 292,210 292,210 292,209 292,209 292,209 292,208 292,208 292,208 292,208 292,207 292,207 293,207 293,207 293,207 293,207 293,207 293,207 293,207 293,207 293,207 293,207 293,207 293,207 293,207 294,207 294,207 294,207 294,207 294,208 294,208 294,208 294,208 294,209 294,209 294,210 294,210 294,209 295,209 295,209 295,209 295,208 295,208 295,207 295,207 295,206 295,206 295,205 295,204 295,204 295,203 296,202 296,202 296,201 296,200 296,200 296,199 296,199 296,199 296,199 296,199 296,198 296,198 296,197 297,197 297,197 297,196 297,196 297,196 297,195 297,195 297,194 297,194 297,193 297,193 297,192 297,192 298,192 298,191 298,191 298,191 298,191 298,190 298,190 298,191 298,191 298,191 298,192 298,192 298,192 299,192 299,192 299,192 299,193 299,193 299,193 299,193 299,193 299,193 299,193 299,193 299,193 299,193 300,193 300,194 300,194 300,194 300,194 300,195 300,195 300,195 300,196 300,196 300,197 300,197 300,198 301,198 301,198 301,198 301,199 301,199 301,199 301,199 301,198 301,198 301,198 301,198 301,197 301,197 302,196 302,196 302,195 302,195 302,195 302,195 302,194 302,194 302,193 302,193 302,192 302,192 302,192 303,191 303,190 303,190 303,189 303,188 303,188 303,187 303,187 303,186 303,186 303,185 303,185 303,185 304,185 304,185 304,185 304,184 304,184 304,184 304,184 304,184 304,185 304,185 304,185 304,185 304,186 305,186 305,186 305,185 305,185 305,186 305,186 305,186 305,186 305,186 305,186 305,186 305,185 305,185 306,185 306,184 306,184 306,184 306,183 306,183 306,183 306,183 306,182 306,182 306,182 306,181 306,181 307,181 307,180 307,180 307,180 307,180 307,180 307,180 307,180 307,180 307,180 307,180 307,180 307,180 308,181 308,181 308,181 308,182 308,182 308,182 308,183 308,183 308,183 308,183 308,183 308,183 308,183 309,184 309,184 309,185 309,185 309,185 309,186 309,186 309,186 309,187 309,187 309,187 309,188 310,188 310,189 310,189 310,189 310,190 310,190 310,191 310,191 310,191 310,192 310,192 310,192 310,192 311,192 311,193 311,193 311,193 311,193 311,193 311,193 311,193 311,193 311,193 311,193 311,193 311,193 312,194 312,194 312,194 312,194 312,194 312,194 312,193 312,193 312,192 312,192 312,191 312,190 312,190 313,189 313,189 313,189 313,188 313,188 313,188 313,188 313,188 313,187 313,187 313,187 313,187 313,187 314,186 314,186 314,186 314,185 314,185 314,185 314,185 314,185 314,185 314,185 314,185 314,185 314,185 315,186 315,186 315,186 315,187 315,187 315,187 315,188 315,188 315,189 315,189 315,190 315,191 315,192 316,193 316,194 316,195 316,196 316,196 316,197 316,198 316,199 316,200 316,201 316,201 316,202 316,203 317,203 317,204 317,205 317,205 317,206 317,206 317,206 317,206 317,206 317,206 317,206 317,207 317,207 318,206 318,206 318,206 318,206 318,206 318,206 318,206 318,206 318,206 318,206 318,206 318,206 318,206 319,206 319,205 319,205 319,205 319,205 319,205 319,205 319,205 319,205 319,205 319,205 319,205 319,205 320,205 320,204 320,204 320,204 320,203 320,203 320,203 320,203 320,203 320,202 320,202 320,202 320,202 321,201 321,200 321,200 321,200 321,200 321,200 321,200 321,200 321,200 321,200 321,201 321,201 321,201 322,201 322,202 322,202 322,202 322,202 322,201 322,201 322,201 322,200 322,200 322,200 322,200 322,200 323,200 323,199 323,199 323,199 323,199 323,199 323,198 323,198 323,198 323,198 323,198 323,198 323,198 324,198 324,197 324,197 324,197 324,197 324,197 324,197 324,197 324,197 324,197 324,197 324,197 324,196 325,196 325,196 325,196 325,196 325,195 325,195 325,195 325,195 325,194 325,194 325,194 325,194 325,194 326,194 326,194 326,194 326,194 326,194 326,194 326,194 326,194 326,194 326,194 326,194 326,194 326,194 327,194 327,194 327,194 327,193 327,193 327,193 327,193 327,193 327,193 327,193 327,193 327,193 327,193 328,193 328,193 328,193 328,193 328,193 328,193 328,193 328,193 328,193 328,192 328,192 328,192 328,191 329,191 329,191 329,190 329,190 329,190 329,189 329,189 329,189 329,188 329,188 329,188 329,187 329,187 330,187 330,187 330,186 330,186 330,185 330,185 330,185 330,184 330,184 330,184 330,183 330,183 330,183 331,182 331,182 331,182 331,181 331,181 331,181 331,180 331,180 331,180 331,180 331,179 331,179 331,179 332,179 332,179 332,178 332,178 332,178 332,178 332,178 332,178 332,178 332,178 332,178 332,178 332,177 333,177 333,177 333,177 333,177 333,177 333,178 333,178 333,178 333,178 333,178 333,178 333,178 333,178 334,179 334,179 334,179 334,180 334,180 334,180 334,180 334,181 334,181 334,181 334,182 334,182 334,182 335,182 335,183 335,183 335,183 335,183 335,183 335,183 335,184 335,184 335,184 335,184 335,184 335,184 336,184 336,184 336,184 336,184 336,185 336,185 336,185 336,186 336,187 336,187 336,187 336,187 336,187 337,187 337,188 337,188 337,188 337,188 337,189 337,189 337,189 337,190 337,190 337,190 337,191 337,191 338,191 338,191 338,190 338,190 338,190 338,190 338,189 338,189 338,189 338,189 338,189 338,189 338,189 339,189 339,189 339,189 339,189 339,189 339,189 339,189 339,190 339,190 339,190 339,190 339,190 339,191 340,191 340,191 340,192 340,192 340,192 340,193 340,193 340,194 340,195 340,195 340,195 340,195 340,196 341,196 341,196 341,196 341,196 341,196 341,196 341,196 341,196 341,196 341,196 341,196 341,196 341,196 342,196 342,196 342,196 342,195 342,195 342,195 342,194 342,194 342,194 342,193 342,193 342,192 343,192 343,192 343,192 343,192 343,192 343,192 343,192 343,192 343,192 343,192 343,192 343,192 343,193 344,193 344,194 344,194 344,194 344,194 344,194 344,194 344,194 344,194 344,195 344,195 344,195 344,195 345,195 345,195 345,195 345,195 345,194 345,194 345,194 345,194 345,194 345,194 345,194 345,194 345,194 346,194 346,194 346,193 346,193 346,193 346,193 346,193 346,193 346,193 346,193 346,193 346,193 346,193 347,193 347,193 347,192 347,192 347,192 347,192 347,192 347,192 347,191 347,191 347,191 347,191 347,191 348,191 348,191 348,191 348,191 348,191 348,191 348,191 348,191 348,191 348,190 348,190 348,190 348,190 349,190 349,190 349,190 349,189 349,189 349,189 349,189 349,189 349,190 349,189 349,189 349,189 349,189 350,189 350,189 350,189 350,189 350,189 350,189 350,189 350,188 350,188 350,188 350,188 350,188 350,188 351,188 351,188 351,188 351,188 351,188 351,188 351,188 351,188 351,188 351,188 351,188 351,188 351,187 352,187 352,187 352,187 352,187 352,187 352,187 352,187 352,187 352,187 352,187 352,187 352,187 352,187 353,187 353,187 353,187 353,187 353,187 353,187 353,187 353,187 353,187 353,187 353,187 353,187 353,187 354,187 354,187 354,187 354,187 354,188 354,188 354,188 354,188 354,188 354,187 354,187 354,187 354,187 355,187 355,187 355,187 355,187 355,187 355,187 355,187 355,188 355,188 355,188 355,188 355,187 355,187 356,187 356,187 356,187 356,187 356,187 356,187 356,187 356,187 356,187 356,187 356,187 356,187 356,187 357,187 357,187 357,187 357,186 357,186 357,186 357,186 357,185 357,185 357,185 357,185 357,184 357,184 358,184 358,184 358,184 358,184 358,184 358,184 358,183 358,183 358,183 358,183 358,183 358,183 358,183 359,182 359,182 359,182 359,182 359,182 359,182 359,182 359,182 359,182 359,182 359,182 359,182 359,181 360,181 360,181 360,181 360,181 360,181 360,180 360,180 360,180 360,180 360,180 360,180 360,179 360,179 361,179 361,179 361,178 361,178 361,178 361,178 361,177 361,177 361,177 361,177 361,176 361,176 361,175 362,175 362,175 362,175 362,174 362,174 362,174 362,173 362,173 362,172 362,172 362,172 362,171 362,171 363,171 363,170 363,170 363,169 363,169 363,169 363,168 363,168 363,168 363,168 363,168 363,167 363,167 364,167 364,167 364,167 364,167 364,167 364,167 364,167 364,167 364,167 364,167 364,167 364,167 364,167 365,167 365,167 365,167 365,167 365,167 365,167 365,167 365,166 365,166 365,166 365,166 365,166 365,166 366,166 366,166 366,166 366,166 366,166 366,166 366,166 366,166 366,166 366,166 366,166 366,166 366,166 367,166 367,166 367,166 367,165 367,165 367,165 367,165 367,164 367,164 367,164 367,163 367,163 367,163 368,163 368,162 368,162 368,162 368,162 368,162 368,162 368,161 368,161 368,161 368,161 368,161 368,161 369,160 369,160 369,160 369,160 369,160 369,160 369,160 369,160 369,160 369,160 369,160 369,159 369,159 370,159 370,159 370,159 370,159 370,159 370,159 370,159 370,159 370,159 370,159 370,159 370,159 370,159 371,159 371,159 371,159 371,159 371,159 371,159 371,159 371,159 371,159 371,159 371,159 371,159 371,159 372,159 372,159 372,159 372,159 372,159 372,160 372,160 372,160 372,160 372,160 372,160 372,160 372,160 373,160 373,160 373,159 373,159 373,159 373,159 373,159 373,159 373,159 373,159 373,159 373,159 373,159 374,159 374,159 374,159 374,159 374,159 374,159 374,159 374,159 374,159 374,159 374,159 374,159 374,159 375,159 375,160 375,160 375,160 375,160 375,160 375,160 375,160 375,160 375,160 375,160 375,160 376,160 376,160 376,160 376,160 376,160 376,160 376,160 376,159 376,159 376,159 376,159 376,159 376,159 377,159 377,159 377,158 377,158 377,158 377,158 377,158 377,157 377,157 377,157 377,156 377,156 377,156 378,156 378,156 378,156 378,155 378,155 378,155 378,155 378,154 378,154 378,154 378,154 378,153 378,153 379,153 379,153 379,153 379,152 379,152 379,152 379,151 379,151 379,151 379,150 379,150 379,150 379,149 380,149 380,149 380,148 380,148 380,148 380,147 380,147 380,146 380,146 380,146 380,147 380,146 380,146 381,146 381,146 381,146 381,145 381,144 381,144 381,144 381,144 381,143 381,143 381,143 381,142 381,142 382,141 382,140 382,140 382,139 382,139 382,139 382,139 382,139 382,139 382,139 382,139 382,139 382,139 383,139 383,139 383,139 383,140 383,140 383,140 383,139 383,139 383,139 383,139 383,139 383,139 383,139 384,139 384,139 384,139 384,139 384,139 384,139 384,139 384,139 384,138 384,138 384,138 384,138 384,138 385,138 385,138 385,137 385,137 385,137 385,137 385,137 385,137 385,137 385,137 385,137 385,138 385,138 386,138 386,138 386,139 386,139 386,139 386,139 386,140 386,140 386,141 386,141 386,142 386,142 386,142 387,143 387,143 387,142 387,143 387,143 387,143 387,143 387,143 387,143 387,143 387,144 387,144 387,144 388,144 388,145 388,145 388,145 388,146 388,146 388,147 388,147 388,148 388,148 388,148 388,149 388,150 389,150 389,151 389,151 389,152 389,152 389,153 389,153 389,153 389,154 389,154 389,154 389,154 389,155 390,155 390,155 390,156 390,156 390,156 390,156 390,157 390,157 390,157 390,157 390,158 390,158 390,159 391,160 391,159 391,159 391,159 391,159 391,158 391,158 391,158 391,158 391,157 391,157 391,157 391,157 392,157 392,156 392,156 392,156 392,155 392,154 392,154 392,153 392,153 392,153 392,152 392,152 392,152 393,152 393,152 393,152 393,151 393,151 393,151 393,151 393,151 393,151 393,151 393,151 393,151 393,151 394,151 394,151 394,152 394,152 394,152 394,153 394,153 394,153 394,153 394,154 394,154 394,155 394,155 395,155 395,156 395,156 395,157 395,157 395,158 395,158 395,158 395,159 395,159 395,159 395,159 395,160 396,160 396,160 396,160 396,160 396,161 396,161 396,161 396,161 396,161 396,162 396,162 396,162 396,162 397,162 397,163 397,163 397,163 397,164 397,164 397,164 397,164 397,164 397,164 397,165 397,165 397,165 398,165 398,165 398,165 398,165 398,165 398,165 398,166 398,166 398,167 398,167 398,167 398,168 398,168 399,169 399,169 399,169 399,170 399,170 399,170 399,170 399,170 399,171 399,171 399,171 399,171 399,171 400,171 400,171 400,171 400,172 400,172 400,172 400,172 400,172 400,172 400,172 400,173 400,173 400,173 401,173 401,173 401,173 401,173 401,173 401,173 401,173 401,173 401,174 401,174 401,174 401,174 401,174 402,174 402,174 402,174 402,174 402,174 402,175 402,175 402,175 402,175 402,175 402,175 402,175 402,176 403,176 403,176 403,176 403,176 403,177 403,177 403,177 403,177 403,177 403,177 403,177 403,177 403,177 404,178 404,178 404,178 404,178 404,178 404,178 404,178 404,179 404,179 404,179 404,179 404,179 404,179 405,179 405,179 405,179 405,180 405,180 405,180 405,180 405,180 405,180 405,180 405,180 405,180 405,181 406,180 406,181 406,181 406,181 406,181 406,181 406,181 406,181 406,181 406,181 406,181 406,182 406,182 407,182 407,182 407,182 407,182 407,182 407,182 407,182 407,182 407,183 407,183 407,183 407,183 407,183 408,183 408,183 408,184 408,184 408,184 408,184 408,185 408,185 408,185 408,185 408,185 408,185 409,185 409,185 409,185 409,185 409,185 409,185 409,186 409,186 409,186 409,186 409,186 409,186 409,186 410,186 410,186 410,186 410,186 410,186 410,186 410,186 410,186 410,186 410,186 410,186 410,186 410,186 411,186 411,186 411,186 411,187 411,187 411,187 411,187 411,187 411,187 411,187 411,187 411,187 411,187 412,187 412,187 412,187 412,187 412,187 412,187 412,187 412,187 412,187 412,187 412,187 412,187 412,187 413,187 413,187 413,187 413,187 413,187 413,187 413,187 413,187 413,187 413,187 413,187 413,187 413,187 414,188 414,188 414,188 414,189 414,189 414,189 414,189 414,189 414,189 414,189 414,189 414,189 414,188 415,188 415,188 415,187 415,187 415,187 415,187 415,187 415,187 415,187 415,187 415,186 415,186 415,186 416,186 416,187 416,187 416,187 416,187 416,187 416,187 416,187 416,187 416,187 416,187 416,187 416,187 417,187 417,187 417,187 417,187 417,187 417,187 417,187 417,187 417,187 417,188 417,188 417,188 417,188 418,188 418,188 418,188 418,188 418,189 418,189 418,189 418,189 418,189 418,189 418,190 418,190 418,190 419,190 419,190 419,191 419,191 419,191 419,192 419,192 419,192 419,192 419,193 419,193 419,193 419,194 420,194 420,194 420,194 420,194 420,195 420,195 420,195 420,196 420,196 420,196 420,197 420,197 420,197 421,198 421,198 421,198 421,199 421,199 421,199 421,199 421,199 421,199 421,199 421,199 421,199 421,199 422,199 422,199 422,199 422,200 422,200 422,200 422,201 422,201 422,201 422,202 422,202 422,202 422,202 423,202 423,203 423,203 423,203 423,203 423,203 423,203 423,203 423,203 423,203 423,203 423,203 423,203 424,203 424,203 424,203 424,203 424,203 424,203 424,203 424,203 424,203 424,203 424,203 424,203 424,203 425,203 425,203 425,203 425,203 425,203 425,203 425,202 425,202 425,202 425,202 425,202 425,202 425,202 426,202 426,202 426,202 426,202 426,202 426,202 426,202 426,202 426,202 426,202 426,202 426,201 426,201 427,201 427,201 427,201 427,201 427,201 427,201 427,201 427,201 427,201 427,201 427,200 427,200 427,200 428,200 428,200 428,200 428,200 428,200 428,199 428,199 428,199 428,199 428,199 428,198 428,198 428,198 429,197 429,197 429,197 429,196 429,196 429,195 429,195 429,194 429,194 429,194 429,194 429,194 429,193 430,193 430,193 430,193 430,192 430,192 430,191 430,190 430,190 430,189 430,189 430,189 430,189 430,189 431,190 431,190 431,190 431,190 431,190 431,190 431,190 431,190 431,190 431,190 431,190 431,189 431,189 432,189 432,188 432,188 432,187 432,187 432,186 432,186 432,186 432,185 432,185 432,184 432,183 432,182 433,182 433,181 433,181 433,181 433,180 433,180 433,179 433,179 433,179 433,178 433,178 433,177 433,177 434,177 434,177 434,176 434,176 434,176 434,176 434,177 434,177 434,177 434,177 434,177 434,177 434,177 435,176 435,177 435,177 435,177 435,177 435,177 435,177 435,177 435,178 435,178 435,177 435,177 435,177 436,177 436,177 436,177 436,177 436,177 436,177 436,178 436,178 436,178 436,179 436,179 436,179 436,179 437,179 437,179 437,179 437,179 437,179 437,179 437,178 437,178 437,178 437,178 437,178 437,178 437,177 438,177 438,177 438,176 438,176 438,176 438,176 438,176 438,175 438,175 438,175 438,175 438,175 438,174 439,174 439,174 439,174 439,174 439,173 439,173 439,173 439,173 439,173 439,173 439,173 439,173 439,173 440,174 440,174 440,174 440,175 440,175 440,176 440,176 440,176 440,177 440,177 440,178 440,178 440,178 441,178 441,179 441,179 441,179 441,179 441,180 441,180 441,180 441,180 441,180 441,181 441,181 442,181 442,182 442,182 442,182 442,182 442,183 442,183 442,183 442,183 442,184 442,184 442,184 442,185 443,185 443,185 443,186 443,186 443,186 443,187 443,187 443,187 443,187 443,187 443,188 443,188 443,188 444,188 444,188 444,189 444,189 444,189 444,189 444,189 444,189 444,190 444,190 444,190 444,190 444,190 445,191 445,191 445,191 445,191 445,191 445,192 445,192 445,192 445,192 445,192 445,192 445,193 445,193 446,193 446,194 446,194 446,194 446,194 446,194 446,194 446,194 446,194 446,194 446,194 446,194 446,194 447,194 447,194 447,194 447,194 447,195 447,195 447,195 447,195 447,195 447,195 447,195 447,194 447,194 448,194 448,193 448,193 448,193 448,192 448,192 448,192 448,192 448,192 448,192 448,191 448,191 448,191 449,191 449,191 449,190 449,190 449,190 449,190 449,190 449,189 449,189 449,189 449,189 449,189 449,188 450,188 450,188 450,188 450,187 450,187 450,187 450,187 450,187 450,186 450,186 450,186 450,185 450,185 451,185 451,185 451,184 451,184 451,184 451,184 451,184 451,183 451,183 451,183 451,182 451,182 451,182 452,182 452,181 452,181 452,181 452,181 452,180 452,180 452,180 452,180 452,179 452,179 452,179 452,178 453,178 453,178 453,177 453,177 453,177 453,177 453,177 453,177 453,177 453,176 453,176 453,176 453,175 454,175 454,175 454,174 454,174 454,174 454,174 454,174 454,174 454,174 454,173 454,173 454,173 454,173 455,173 455,172 455,172 455,172 455,172 455,172 455,172 455,172 455,171 455,171 455,171 455,170 455,170 456,170 456,169 456,169 456,169 456,169 456,169 456,168 456,168 456,168 456,167 456,167 456,167 456,166 457,166 457,166 457,166 457,166 457,166 457,166 457,167 457,167 457,167 457,167 457,168 457,168 457,169 458,169 458,169 458,170 458,170 458,170 458,171 458,171 458,172 458,172 458,173 458,173 458,173 458,174 459,174 459,175 459,175 459,175 459,175 459,176 459,176 459,176 459,176 459,177 459,177 459,177 459,177 460,177 460,177 460,177 460,177 460,177 460,177 460,177 460,177 460,177 460,177 460,177 460,176 460,176 461,176 461,177 461,177 461,177 461,177 461,177 461,177 461,177 461,177 461,178 461,178 461,178 461,178 462,178 462,178 462,179 462,179 462,179 462,180 462,180 462,181 462,182 462,182 462,183 462,184 462,184 463,185 463,186 463,186 463,187 463,187 463,188 463,188 463,189 463,189 463,190 463,190 463,190 463,190 464,190 464,189 464,189 464,189 464,189 464,189 464,189 464,190 464,190 464,190 464,191 464,191 464,192 465,192 465,193 465,193 465,194 465,194 465,194 465,195 465,195 465,195 465,196 465,196 465,196 465,197 466,197 466,198 466,198 466,198 466,198 466,199 466,199 466,199 466,199 466,199 466,200 466,200 466,200 467,200 467,200 467,200 467,200 467,200 467,200 467,200 467,200 467,200 467,200 467,200 467,200 467,200 468,200 468,200 468,200 468,200 468,200 468,200 468,200 468,200 468,200 468,200 468,201 468,201 468,201 469,202 469,202 469,203 469,203 469,203 469,204 469,204 469,204 469,204 469,205 469,205 469,205 469,205 470,205 470,206 470,206 470,206 470,206 470,206 470,206 470,206 470,206 470,206 470,206 470,206 470,206 471,206 471,206 471,206 471,206 471,206 471,206 471,206 471,206 471,206 471,205 471,205 471,205 471,205 472,205 472,205 472,205 472,205 472,205 472,204 472,204 472,204 472,204 472,203 472,203 472,203 472,202 473,202 473,202 473,202 473,201 473,201 473,200 473,200 473,200 473,200 473,199 473,199 473,199 473,198 474,198 474,198 474,197 474,197 474,197 474,197 474,196 474,196 474,196 474,196 474,196 474,195 474,195 475,195 475,195 475,194 475,194 475,194 475,194 475,193 475,193 475,193 475,193 475,193 475,192 476,192 476,192 476,192 476,192 476,192 476,192 476,191 476,191 476,191 476,191 476,191 476,191 476,191 477,191 477,191 477,191 477,191 477,191 477,191 477,191 477,191 477,191 477,191 477,190 477,190 477,190 478,190 478,190 478,190 478,190 478,190 478,190 478,190 478,190 478,190 478,190 478,190 478,190 478,190 479,191 479,191 479,191 479,191 479,191 479,191 479,191 479,191 479,191 479,191 479,191 479,190 479,190 480,190 480,190 480,190 480,190 480,190 480,190 480,190 480,189 480,189 480,189 480,189 480,189 480,189 481,188 481,188 481,188 481,188 481,188 481,187 481,187 481,187 481,187 481,187 481,186 481,186 481,186 482,186 482,185 482,185 482,185 482,185 482,185 482,185 482,184 482,184 482,184 482,184 482,183 482,183 483,183 483,183 483,183 483,183 483,182 483,182 483,182 483,182 483,182 483,181 483,181 483,181 483,181 484,181 484,180 484,180 484,180 484,179 484,179 484,179 484,178 484,178 484,178 484,177 484,177 484,176 485,176 485,175 485,175 485,175 485,175 485,175 485,175 485,175 485,175 485,175 485,175 485,175 485,175 486,175 486,176 486,176 486,176 486,177 486,177 486,178 486,178 486,179 486,179 486,179 486,180 486,180 487,181 487,181 487,182 487,182 487,183 487,183 487,184 487,184 487,185 487,185 487,185 487,185 487,185 488,185 488,185 488,185 488,185 488,185 488,185 488,185 488,185 488,185 488,185 488,185 488,185 488,185 489,185 489,185 489,185 489,185 489,185 489,185 489,185 489,185 489,185 489,185 489,185 489,185 489,185 490,186 490,186 490,186 490,186 490,186 490,186 490,186 490,187 490,187 490,187 490,187 490,187 490,187 491,188 491,188 491,188 491,188 491,188 491,188 491,188 491,187 491,187 491,187 491,187 491,187 491,186 492,186 492,186 492,185 492,185 492,185 492,184 492,184 492,184 492,184 492,183 492,183 492,183 492,183 493,182 493,182 493,182 493,182 493,181 493,181 493,181 493,181 493,180 493,180 493,180 493,180 493,180 494,179 494,179 494,179 494,179 494,178 494,178 494,178 494,178 494,178 494,178 494,178 494,177 494,177 495,177 495,177 495,176 495,176 495,176 495,176 495,176 495,176 495,176 495,175 495,175 495,175 495,174 496,174 496,174 496,174 496,174 496,174 496,174 496,173 496,174 496,174 496,174 496,174 496,173 496,173 497,172 497,172 497,172 497,172 497,172 497,171 497,171 497,171 497,170 497,170 497,170 497,170 497,170 498,169 498,169 498,169 498,168 498,168 498,167 498,167 498,166 498,166 498,166 498,166 498,165 498,165 499,165 499,164 499,164 499,164 499,163 499,163 499,163 499,162 499,162 499,162 499,162 499,161 499,161 500,161 500,160 500,160 500,160 500,159 500,159 500,159 500,158 500,158 500,158 500,157 500,157 500,157 501,156 501,156 501,156 501,156 501,156 501,156 501,156 501,155 501,155 501,155 501,155 501,155 501,155 502,155 502,155 502,154 502,154 502,154 502,154 502,154 502,154 502,154 502,154 502,155 502,155 502,155 503,155 503,155 503,155 503,155 503,155 503,155 503,156 503,156 503,156 503,156 503,156 503,157 503,157 504,157 504,157 504,157 504,157 504,158 504,158 504,158 504,158 504,159 504,159 504,159 504,158 504,158 505,158 505,158 505,159 505,159 505,158 505,158 505,158 505,157 505,157 505,156 505,156 505,156 505,155 506,155 506,154 506,154 506,153 506,153 506,153 506,152 506,152 506,152 506,152 506,152 506,152 506,152 507,152 507,152 507,152 507,152 507,152 507,152 507,152 507,153 507,153 507,154 507,154 507,154 507,154 508,154 508,154 508,154 508,153 508,153 508,152 508,152 508,152 508,152 508,152 508,152 508,152 509,152 509,152 509,152 509,151 509,151 509,151 509,150 509,150 509,150 509,150 509,150 509,150 509,150 510,150 510,149 510,149 510,149 510,148 510,148 510,147 510,147 510,146 510,146 510,145 510,145 510,144 511,144 511,144 511,144 511,144 511,144 511,144 511,144 511,143 511,143 511,143 511,143 511,143 511,143 512,143 512,143 512,143 512,143 512,144 512,144 512,144 512,144 512,145 512,145 512,146 512,146 512,147 513,147 513,148 513,148 513,149 513,149 513,150 513,151 513,151 513,152 513,152 513,153 513,153 513,154 514,154 514,154 514,155 514,155 514,156 514,156 514,156 514,157 514,157 514,158 514,158 514,159 514,159 515,160 515,161 515,161 515,162 515,162 515,163 515,163 515,163 515,163 515,164 515,164 515,165 515,166 516,166 516,167 516,167 516,167 516,167 516,167 516,168 516,168 516,168 516,168 516,169 516,169 516,169 517,170 517,170 517,170 517,170 517,170 517,171 517,171 517,171 517,171 517,171 517,172 517,172 517,172 518,172 518,172 518,172 518,173 518,173 518,173 518,173 518,173 518,174 518,174 518,174 518,174 518,175 519,175 519,175 519,176 519,176 519,176 519,177 519,177 519,177 519,177 519,178 519,178 519,178 519,178 520,179 520,179 520,179 520,179 520,180 520,180 520,180 520,180 520,181 520,181 520,182 520,182 520,182 521,182 521,182 521,182 521,183 521,183 521,183 521,183 521,184 521,184 521,184 521,184 521,184 521,184 522,184 522,185 522,185 522,185 522,185 522,185 522,186 522,186 522,186 522,186 522,186 522,187 522,187 523,187 523,187 523,188 523,188 523,188 523,189 523,189 523,189 523,189 523,189 523,189 523,190 523,190 524,190 524,190 524,190 524,190 524,190 524,190 524,190 524,190 524,190 524,190 524,190 524,190 524,190 525,190 525,190 525,190 525,190 525,190 525,190 525,190 525,190 525,190 525,190 525,190 525,190 525,190 526,190 526,190 526,190 526,190 526,191 526,191 526,191 526,191 526,191 526,191 526,191 526,191 526,191 527,191 527,191 527,191 527,191 527,192 527,192 527,192 527,192 527,192 527,192 527,192 527,193 527,193 528,193 528,193 528,194 528,194 528,194 528,194 528,195 528,195 528,195 528,195 528,196 528,196 528,196 529,197 529,197 529,197 529,197 529,198 529,198 529,199 529,199 529,200 529,200 529,200 529,201 529,201 530,202 530,202 530,202 530,202 530,203 530,203 530,203 530,204 530,204 530,204 530,205 530,205 530,205 531,206 531,206 531,207 531,207 531,207 531,208 531,208 531,209 531,209 531,209 531,210 531,210 531,210 532,210 532,210 532,211 532,211 532,211 532,211 532,211 532,212 532,212 532,212 532,212 532,213 532,213 533,213 533,214 533,214 533,214 533,214 533,214 533,215 533,215 533,215 533,216 533,216 533,216 533,217 534,217 534,217 534,218 534,218 534,218 534,219 534,219 534,219 534,219 534,220 534,220 534,220 534,220 535,221 535,221 535,221 535,221 535,222 535,222 535,222 535,222 535,222 535,222 535,223 535,223 535,223 536,223 536,223 536,223 536,224 536,224 536,224 536,224 536,224 536,224 536,225 536,225 536,225 536,225 537,225 537,225 537,225 537,225 537,225 537,226 537,226 537,226 537,226 537,226 537,226 537,226 537,226 538,226 538,226 538,226 538,226 538,226 538,226 538,226 538,227 538,227 538,227 538,227 538,227 538,227 539,227 539,227 539,227 539,228 539,228 539,228 539,228 539,228 539,228 539,228 539,228 539,228 539,229 540,229 540,229 540,229 540,229 540,230 540,230 540,231 540,230 540,230 540,230 540,229 540,229 540,228 541,227 541,227 541,226 541,226 541,225 541,225 541,225 541,224 541,224 541,224 541,223 541,223 542,223 542,223 542,222 542,222 542,222 542,222 542,222 542,221 542,221 542,221 542,220 542,220 542,219 543,219 543,219 543,218 543,218 543,218 543,217 543,217 543,216 543,216 543,215 543,215 543,215 543,214 544,214 544,213 544,212 544,211 544,211 544,210 544,210 544,209 544,209 544,209 544,208 544,208 544,207 545,207 545,207 545,207 545,206 545,206 545,206 545,205 545,205 545,205 545,204 545,204 545,204 545,204 546,203 546,203 546,203 546,203 546,203 546,202 546,203 546,203 546,203 546,203 546,203 546,203 546,203 547,203 547,203 547,203 547,203 547,203 547,204 547,204 547,204 547,204 547,204 547,205 547,205 547,205 548,205 548,205 548,205 548,205 548,204 548,204 548,204 548,204 548,204 548,204 548,204 548,204 548,204 549,204 549,204 549,204 549,205 549,205 549,205 549,205 549,206 549,206 549,206 549,206 549,206 549,206 550,207 550,207 550,207 550,207 550,208 550,208 550,208 550,208 550,209 550,209 550,209 550,209 550,210 551,210 551,211 551,211 551,212 551,212 551,212 551,213 551,213 551,213 551,214 551,214 551,215 551,215 552,216 552,217 552,218 552,218 552,219 552,220 552,221 552,222 552,223 552,224 552,224 552,225 552,226 553,227 553,228 553,229 553,230 553,230 553,231 553,232 553,232 553,233 553,233 553,234 553,234 553,235 554,235 554,236 554,237 554,237 554,238 554,239 554,240 554,241 554,241 554,242 554,243 554,244 554,245 555,245 555,246 555,247 555,247 555,248 555,249 555,250 555,251 555,252 555,253 555,254 555,255 555,256 556,256 556,257 556,258 556,259 556,260 556,260 556,261 556,261 556,261 556,261 556,261 556,261 556,261 557,260 557,260 557,260 557,260 557,260 557,260 557,259 557,259 557,259 557,259 557,259 557,259 557,259 558,259 558,259 558,259 558,259 558,258 558,258 558,258 558,258 558,258 558,258 558,258 558,258 558,258 559,258 559,258 559,258 559,258 559,258 559,258 559,258 559,258 559,258 559,258 559,258 559,258 559,258 560,258 560,258 560,258 560,258 560,257 560,257 560,257 560,257 560,257 560,256 560,256 560,256 560,255 561,255 561,254 561,254 561,253 561,253 561,252 561,252 561,251 561,251 561,250 561,249 561,249 561,248 562,247 562,246 562,245 562,245 562,244 562,243 562,242 562,242 562,241 562,240 562,239 562,239 562,238 563,237 563,236 563,235 563,234 563,234 563,233 563,232 563,231 563,230 563,230 563,229 563,228 563,228 564,227 564,227 564,227 564,226 564,226 564,226 564,225 564,225 564,225 564,225 564,225 564,224 564,224 565,224 565,224 565,224 565,224 565,224 565,224 565,224 565,224 565,224 565,224 565,224 565,223 565,223 566,223 566,223 566,223 566,222 566,222 566,222 566,222 566,222 566,222 566,222 566,221 566,221 566,221 567,221 567,221 567,221 567,221 567,221 567,220 567,220 567,220 567,220 567,220 567,220 567,220 567,220 568,220 568,220 568,220 568,220 568,221 568,221 568,221 568,221 568,221 568,221 568,221 568,221 568,222 569,222 569,222 569,222 569,223 569,223 569,223 569,223 569,224 569,224 569,224 569,224 569,225 569,225 570,225 570,225 570,225 570,225 570,225 570,226 570,226 570,226 570,226 570,227 570,227 570,227 570,227 571,227 571,228 571,228 571,228 571,228 571,228 571,228 571,228 571,228 571,228 571,228 571,228 571,228 572,228 572,228 572,228 572,228 572,229 572,229 572,229 572,229 572,229 572,229 572,229 572,230 572,230 573,230 573,230 573,231 573,231 573,231 573,231 573,231 573,232 573,232 573,232 573,232 573,233 573,233 574,233 574,233 574,233 574,233 574,233 574,232 574,232 574,232 574,232 574,232 574,232 574,232 575,232 575,232 575,232 575,232 575,232 575,232 575,232 575,232 575,232 575,232 575,232 575,232 575,232 576,232 576,232 576,233 576,233 576,233 576,233 576,234 576,234 576,234 576,235 576,235 576,235 576,235 577,236 577,236 577,237 577,237 577,237 577,238 577,238 577,239 577,239 577,240 577,240 577,241 577,241 578,241 578,242 578,242 578,242 578,243 578,243 578,243 578,243 578,244 578,244 578,244 578,244 578,244 579,244 579,245 579,245 579,245 579,245 579,245 579,246 579,245 579,246 579,246 579,246 579,246 579,246 580,247 580,247 580,247 580,247 580,247 580,247 580,247 580,247 580,247 580,246 580,247 580,247 580,247 581,247 581,247 581,247 581,248 581,248 581,248 581,249 581,249 581,249 581,250 581,250 581,250 581,251 582,251 582,251 582,251 582,251 582,252 582,252 582,252 582,253 582,253 582,254 582,254 582,255 582,256 583,256 583,257 583,257 583,258 583,259 583,259 583,260 583,260 583,260 583,260 583,260 583,260 583,260 584,260 584,259 584,259 584,259 584,259 584,258 584,258 584,258 584,258 584,257 584,257 584,257 584,256 585,256 585,256 585,255 585,255 585,255 585,255 585,254 585,254 585,254 585,254 585,253 585,253 585,253 586,253 586,253 586,252 586,252 586,252 586,252 586,251 586,251 586,251 586,251 586,250 586,250 586,250 587,249 587,249 587,249 587,248 587,248 587,248 587,248 587,247 587,247 587,247 587,247 587,247 587,247 588,247 588,247 588,247 588,247 588,246 588,246 588,246 588,246 588,246 588,246 588,246 588,246 588,246 589,246 589,246 589,245 589,245 589,245 589,245 589,245 589,245 589,245 589,245 589,245 589,245 589,245 590,245 590,245 590,245 590,245 590,245 590,245 590,245 590,245 590,245 590,245 590,245 590,245 590,244 591,244 591,244 591,245 591,245 591,245 591,245 591,245 591,245 591,245 591,245 591,245 591,245 591,245 592,245 592,245 592,245 592,245 592,245 592,245 592,244 592,244 592,244 592,244 592,244 592,243 592,243 593,243 593,243 593,243 593,243 593,242 593,242 593,242 593,242 593,241 593,241 593,241 593,241 593,240 594,240 594,240 594,239 594,239 594,239 594,239 594,239 594,239 594,239 594,239 594,238 594,238 594,238 595,238 595,238 595,238 595,238 595,238 595,238 595,237 595,237 595,237 595,237 595,237 595,236 595,236 596,236 596,236 596,235 596,235 596,234 596,234 596,234 596,234 596,233 596,233 596,233 596,233 596,233 597,233 597,232 597,232 597,232 597,232 597,231 597,231 597,230 597,230 597,230 597,230 597,229 597,229 598,229 598,229 598,229 598,229 598,228 598,228 598,228 598,228 598,227 598,227 598,227 598,227 598,227 599,227 599,227 599,227 599,227 599,227 599,227 599,227 599,227 599,227 599,228 599,228 599,228 599,229 600,229 600,230 600,230 600,231 600,231 600,232 600,232 600,233 600,233 600,234 600,234 600,234 600,235 601,235 601,235 601,235 601,235 601,235 601,235 601,236 601,236 601,236 601,236 601,236 601,236 601,237 602,237 602,237 602,237 602,238 602,237 602,237 602,237 602,237 602,237 602,237 602,236 602,236 602,236 603,236 603,236 603,236 603,237 603,237 603,237 603,237 603,238 603,238 603,239 603,239 603,240 603,240 604,240 604,240 604,240 604,240 604,240 604,240 604,239 604,239 604,238 604,238 604,238 604,237 604,237 605,236 605,236 605,236 605,236 605,236 605,236 605,236 605,236 605,236 605,236 605,236 605,236 605,236 606,236 606,237 606,237 606,237 606,238 606,238 606,239 606,239 606,240 606,240 606,240 606,241 606,242 607,242 607,243 607,243 607,244 607,244 607,245 607,245 607,246 607,246 607,247 607,247 607,247 608,248 608,248 608,248 608,248 608,249 608,249 608,249 608,249 608,249 608,249 608,249 608,249 608,249 609,249 609,249 609,249 609,249 609,249 609,249 609,249 609,249 609,248 609,248 609,248 609,248 609,248 610,248 610,248 610,248 610,248 610,248 610,248 610,248 610,247 610,247 610,247 610,247 610,247 610,247 611,247 611,247 611,247 611,247 611,247 611,247 611,247 611,247 611,247 611,247 611,247 611,247 611,247 612,247 612,247 612,247 612,248 612,248 612,248 612,248 612,248 612,248 612,248 612,249 612,249 612,249 613,249 613,249 613,250 613,250 613,250 613,250 613,250 613,250 613,250 613,250 613,251 613,251 613,251 614,251 614,251 614,251 614,251 614,252 614,252 614,252 614,252 614,252 614,252 614,253 614,253 614,253 615,253 615,253 615,254 615,254 615,254 615,254 615,255 615,255 615,255 615,255 615,255 615,256 615,256 616,256 616,256 616,257 616,257 616,257 616,257 616,258 616,258 616,258 616,259 616,259 616,259 616,260 617,260 617,261 617,261 617,261 617,262 617,262 617,262 617,263 617,263 617,263 617,264 617,264 617,265 618,265 618,265 618,266 618,266 618,267 618,267 618,268 618,268 618,269 618,269 618,269 618,270 618,270 619,270 619,271 619,271 619,271 619,271 619,271 619,271 619,271 619,271 619,271 619,272 619,272 619,272 620,272 620,272 620,272 620,273 620,273 620,273 620,273 620,274 620,274 620,274 620,274 620,275 620,275 621,275 621,275 621,276 621,276 621,276 621,276 621,276 621,276 621,275 621,275 621,275 621,275 621,274 622,274 622,273 622,273 622,273 622,273 622,272 622,272 622,272 622,272 622,271 622,271 622,270 622,270 623,269 623,269 623,268 623,268 623,268 623,268 623,268 623,267 623,267 623,267 623,267 623,266 623,266 624,266 624,266 624,266 624,265 624,265 624,265 624,264 624,264 624,264 624,264 624,264 624,264 624,264 625,263 625,263 625,263 625,263 625,263 625,263 625,262 625,262 625,262 625,262 625,262 625,262 625,262 626,262 626,262 626,262 626,262 626,262 626,262 626,263 626,263 626,263 626,263 626,263 626,263 626,263 627,263 627,263 627,263 627,263 627,263 627,263 627,263 627,263 627,263 627,263 627,263 627,264 627,264 628,264 628,264 628,264 628,264 628,264 628,264 628,264 628,264 628,264 628,265 628,265 628,265 628,265 629,265 629,265 629,265 629,265 629,265 629,265 629,265 629,265 629,265 629,265 629,265 629,265 629,265 630,265 630,265 630,265 630,265 630,266 630,266 630,266 630,266 630,266 630,266 630,267 630,267 630,267 631,268 631,268 631,269 631,269 631,269 631,270 631,270 631,270 631,271 631,271 631,272 631,272 631,272 632,273 632,273 632,273 632,273 632,274 632,274 632,274 632,274 632,275 632,275 632,275 632,275 632,275 633,275 633,275 633,275 633,275 633,276 633,275 633,275 633,275 633,275 633,275 633,275 633,275 633,274 634,274 634,274 634,274 634,274 634,274 634,274 634,274 634,274 634,275 634,275 634,275 634,276 634,276 635,276 635,276 635,277 635,277 635,277 635,277 635,277 635,278 635,278 635,278 635,278 635,278 635,278 636,278 636,279 636,279 636,279 636,280 636,280 636,280 636,281 636,281 636,282 636,282 636,283 636,283 637,283 637,284 637,284 637,284 637,285 637,285 637,285 637,285 637,285 637,285 637,285 637,285 637,285 638,285 638,285 638,285 638,285 638,285 638,285 638,285 638,285 638,285 638,285 638,285 638,285 638,285 639,285 639,285 639,285 639,284 639,284 639,284 639,284 639,284 639,284 639,284 639,284 639,284 639,284 640,284 640,284 640,284 640,283 640,283 640,283 640,283 640,283 640,283 640,283 640,283 640,283 641,283 641,283 641,283 641,283 641,283 641,283 641,282 641,282 641,282 641,282 641,282 641,282 641,281 642,281 642,281 642,281 642,281 642,281 642,281 642,281 642,281 642,280 642,280 642,280 642,280 642,280 643,280 643,280 643,279 643,279 643,279 643,279 643,279 643,279 643,279 643,278 643,278 643,278 643,278 644,278 644,278 644,277 644,277 644,277 644,277 644,277 644,276 644,276 644,276 644,276 644,276 644,275 645,275 645,275 645,274 645,274 645,273 645,273 645,273 645,272 645,272 645,272 645,271 645,271 645,271 646,271 646,270 646,270 646,270 646,270 646,270 646,269 646,269 646,269 646,269 646,269 646,269 646,269 647,269 647,269 647,269 647,269 647,269 647,269 647,269 647,269 647,270 647,270 647,270 647,270 647,270 648,270 648,270 648,271 648,271 648,271 648,271 648,272 648,272 648,272 648,272 648,272 648,272 648,272 649,273 649,273 649,273 649,273 649,273 649,273 649,273 649,273 649,274 649,274 649,274 649,275 649,275 650,275 650,276 650,276 650,276 650,277 650,277 650,277 650,278 650,278 650,278 650,278 650,278 650,279 651,279 651,279 651,279 651,278 651,278 651,278 651,278 651,277 651,277 651,277 651,277 651,276 651,276 652,276 652,276 652,276 652,276 652,276 652,276 652,276 652,276 652,277 652,277 652,277 652,277 652,277 653,277 653,278 653,278 653,277 653,277 653,277 653,277 653,277 653,276 653,276 653,276 653,275 653,275 654,275 654,274 654,274 654,274 654,274 654,274 654,274 654,274 654,274 654,274 654,274 654,274 654,274 655,274 655,274 655,274 655,274 655,274 655,274 655,274 655,274 655,275 655,275 655,275 655,275 655,275 656,275 656,276 656,276 656,276 656,276 656,276 656,276 656,277 656,277 656,277 656,277 656,277 656,278 657,278 657,278 657,278 657,279 657,279 657,280 657,281 657,281 657,282 657,282 657,283 657,284 657,284 658,285 658,286 658,287 658,287 658,288 658,289 658,290 658,291 658,293 658,294 658,295 658,296 658,297 659,298 659,299 659,299 659,300 659,301 659,301 659,301 659,301 659,301 659,301 659,301 659,302 659,302 660,302 660,302 660,302 660,302 660,303 660,302 660,302 660,302 660,302 660,302 660,301 660,301 660,301 661,301 661,301 661,301 661,301 661,302 661,302 661,302 661,302 661,303 661,303 661,303 661,303 661,304 662,304 662,304 662,304 662,304 662,305 662,305 662,305 662,306 662,306 662,307 662,308 662,310 662,311 663,312 663,313 663,314 663,315 663,316 663,316 663,316 663,316 663,316 663,315 663,315 663,314 663,314 664,313 664,313 664,313 664,313 664,312 664,312 664,311 664,310 664,310 664,309 664,308 664,308 664,307 665,306 665,306 665,305 665,304 665,304 665,303 665,302 665,302 665,301 665,300 665,300 665,299 665,299 666,298 666,297 666,297 666,297 666,296 666,296 666,295 666,295 666,294 666,294 666,294 666,294 666,293 667,293 667,293 667,293 667,293 667,293 667,293 667,293 667,293 667,293 667,293 667,293 667,293 667,293 668,293 668,293 668,293 668,293 668,293 668,292 668,292 668,292 668,292 668,292 668,292 668,292 668,292 669,292 669,292 669,292 669,292 669,292 669,292 669,292 669,292 669,292 669,293 669,293 669,293 669,294 670,294 670,295 670,295 670,295 670,296 670,296 670,297 670,297 670,298 670,298 670,299 670,299 670,299 671,299 671,300 671,300 671,300 671,300 671,300 671,300 671,300 671,300 671,300 671,300 671,300 671,300 672,300 672,300 672,300 672,300 672,300 672,300 672,300 672,300 672,300 672,300 672,300 672,300 672,300 673,300 673,300 673,300 673,300 673,300 673,300 673,300 673,300 673,300 673,300 673,300 673,300 673,300 674,300 674,300 674,300 674,300 674,300 674,300 674,300 674,300 674,300 674,300 674,300 674,300 675,300 675,300 675,300 675,300 675,300 675,300 675,300 675,300 675,300 675,300 675,300 675,300 675,300 676,300 676,300 676,300 676,300 676,300 676,300 676,300 676,300 676,300 676,300 676,300 676,300 676,300 677,300 677,300 677,300 677,300 677,300 677,300 677,300 677,300 677,300 677,300 677,300 677,300 677,300 678,300 678,300 678,300 678,300 678,300 678,300 678,299 678,299 678,299 678,299 678,299 678,299 678,299 679,299 679,299 679,299 679,299 679,299 679,299 679,299 679,299 679,299 679,298 679,299 679,299 679,299 680,299 680,299 680,298 680,298 680,298 680,298 680,298 680,298 680,298 680,298 680,298 680,298 680,298 681,298 681,298 681,298 681,298 681,298 681,298 681,298 681,298 681,298 681,298 681,298 681,298 681,298 682,297 682,297 682,297 682,297 682,297 682,297 682,297 682,297 682,297 682,297 682,297 682,297 682,297 683,297 683,297 683,296 683,296 683,296 683,296 683,296 683,296 683,296 683,296 683,296 683,296 683,296 684,296 684,296 684,296 684,296 684,295 684,295 684,295 684,295 684,295 684,295 684,295 684,295 684,295 685,295 685,295 685,295 685,295 685,295 685,295 685,294 685,294 685,294 685,294 685,294 685,294 685,294 686,294 686,294 686,294 686,294 686,294 686,294 686,294 686,294 686,293 686,293 686,293 686,293 686,293 687,293 687,293 687,293 687,293 687,293 687,293 687,293 687,293 687,293 687,293 687,292 687,292 687,292 688,292 688,292 688,292 688,292 688,292 688,292 688,292 688,292 688,292 688,292 688,292 688,292 688,292 689,292 689,291 689,291 689,291 689,291 689,291 689,291 689,291 689,291 689,291 689,291 689,291 689,291 690,291 690,290 690,290 690,290 690,290 690,290 690,290 690,290 690,290 690,290 690,290 690,290 690,290 691,290 691,290 691,290 691,290 691,290 691,290 691,290 691,289 691,289 691,289 691,289 691,289 691,289 692,289 692,289 692,289 692,289 692,289 692,289 692,288 692,288 692,288 692,288 692,288 692,288 692,288 693,288 693,288 693,288 693,288 693,288 693,288 693,287 693,287 693,287 693,287 693,287 693,287 693,287 694,287 694,287 694,287 694,287 694,286 694,286 694,286 694,286 694,286 694,286 694,286 694,286 694,286 695,286 695,286 695,285 695,285 695,285 695,285 695,285 695,285 695,285 695,285 695,285 695,285 695,284 696,284 696,284 696,284 696,284 696,284 696,284 696,284 696,284 696,284 696,284 696,283 696,283 696,283 697,283 697,283 697,283 697,283 697,283 697,283 697,283 697,283 697,282 697,282 697,282 697,282 697,282 698,282 698,282 698,282 698,282 698,282 698,281 698,281 698,281 698,281 698,281 698,281 698,281 698,281 699,280 699,280 699,280 699,280 699,280 699,280 699,280 699,280 699,280 699,279 699,279 699,279 699,279 700,279 700,279 700,279 700,279 700,279 700,278 700,278 700,278 700,278 700,278 700,278 700,278 700,277 701,277 701,277 701,277 701,277 701,277 701,277 701,277 701,276 701,276 701,276 701,276 701,276 701,276 702,276 702,276 702,275 702,275 702,275 702,275 702,275 702,275 702,275 702,274 702,274 702,274 702,274 703,274 703,274 703,273 703,273 703,273 703,273 703,273 703,272 703,272 703,272 703,272 703,272 703,271 704,271 704,271 704,271 704,271 704,270 704,270 704,270 704,270 704,269 704,269 704,269 704,269 704,268 705,268 705,268 705,268 705,267 705,267 705,267 705,266 705,266 705,266 705,265 705,265 705,265 705,264 706,264 706,264 706,263 706,263 706,262 706,262 706,261 706,260 706,260 706,259 706,258 706,258 706,257 707,257 707,256 707,256 707,255 707,255 707,254 707,254 707,253 707,253 707,252 707,252 707,251 708,250 708,250 708,250 708,249 708,249 708,248 708,248 708,247 708,247 708,247 708,247 708,246 708,246 709,246 709,246 709,245 709,245 709,245 709,245 709,245 709,245 709,244 709,244 709,244 709,244 709,244 710,244 710,244 710,244 710,245 710,245 710,245 710,245 710,245 710,244 710,244 710,244 710,244 710,244 711,243 711,243 711,243 711,243 711,243 711,243 711,243 711,243 711,243 711,243 711,243 711,243 711,243 712,243 712,244 712,243 712,243 712,243 712,242 712,242 712,241 712,241 712,241 712,240 712,240 712,240 713,239 713,239 713,239 713,238 713,238 713,238 713,238 713,238 713,237 713,237 713,237 713,237 713,236 714,236 714,236 714,236 714,236 714,236 714,235 714,235 714,235 714,235 714,235 714,235 714,234 714,234 715,234 715,234 715,234 715,234 715,234 715,234 715,234 715,234 715,234 715,234 715,234 715,235 715,235 716,235 716,235 716,235 716,235 716,235 716,235 716,236 716,236 716,236 716,236 716,236 716,236 716,236 717,237 717,237 717,237 717,237 717,237 717,237 717,237 717,237 717,238 717,238 717,238 717,238 717,238 718,238 718,238 718,238 718,239 718,239 718,239 718,239 718,239 718,239 718,239 718,239 718,239 718,239 719,240 719,240 719,240 719,240 719,240 719,240 719,240 719,240 719,240 719,240 719,240 719,241 719,241 720,241 720,241 720,241 720,241 720,241 720,241 720,241 720,241 720,241 720,241 720,241 720,241 720,241 721,241 721,241 721,241 721,240 721,240 721,240 721,240 721,240 721,240 721,241 721,241 721,241 721,241 722,241 722,241 722,241 722,241 722,242 722,242 722,242 722,242 722,242 722,243 722,243 722,243 722,243 723,243 723,243 723,243 723,243 723,243 723,243 723,243 723,243 723,243 723,243 723,243 723,243 723,244 724,244 724,244 724,244 724,244 724,244 724,244 724,245 724,245 724,245 724,245 724,245 724,245 724,245 725,245 725,245 725,245 725,245 725,246 725,246 725,246 725,246 725,246 725,246 725,246 725,246 725,246 726,246 726,246 726,246 726,246 726,246 726,246 726,246 726,246 726,246 726,246 726,246 726,246 726,246 727,246 727,246 727,246 727,246 727,246 727,246 727,246 727,246 727,246 727,247 727,247 727,247 727,247 728,247 728,247 728,247 728,247 728,247 728,247 728,247 728,247 728,247 728,247 728,247 728,247 728,247 729,248 729,248 729,248 729,248 729,248 729,248 729,248 729,248 729,248 729,249 729,249 729,249 729,249 730,249 730,249 730,249 730,249 730,249 730,249 730,249 730,249 730,249 730,249 730,249 730,249 730,249 731,249 731,250 731,250 731,250 731,250 731,250 731,250 731,250 731,250 731,251 731,251 731,251 731,251 732,251 732,251 732,251 732,251 732,251 732,251 732,252 732,252 732,252 732,252 732,252 732,252 732,252 733,252 733,252 733,252 733,252 733,253 733,253 733,253 733,253 733,253 733,253 733,254 733,254 733,254 734,254 734,254 734,254 734,254 734,255 734,255 734,255 734,255 734,255 734,255 734,255 734,255 734,255 735,256 735,256 735,256 735,256 735,257 735,257 735,257 735,257 735,258 735,258 735,258 735,258 735,259 736,259 736,259 736,259 736,259 736,259 736,259 736,259 736,259 736,258 736,258 736,258 " vector-effect="non-scaling-stroke"></polyline>
</g></svg>