<?xml version="1.0" encoding="UTF-8" standalone="no"?><svg width="282.222mm" height="141.111mm" xmlns="http://www.w3.org/2000/svg" xmlns:xlink="http://www.w3.org/1999/xlink"  version="1.2" baseProfile="tiny"><g fill="none" stroke="#ff0000" stroke-linecap="round" stroke-linejoin="round" stroke-opacity="1" stroke-width="1.5" transform="matrix(1,0,0,1,0,0)">
<polyline fill="none" points="60,271 60,271 60,271 60,271 60,271 60,271 60,271 61,271 61,271 61,271 61,271 61,271 61,271 61,271 61,271 61,271 61,271 61,271 61,271 61,271 62,271 62,272 62,272 62,272 62,272 62,272 62,272 62,271 62,271 62,272 62,272 62,272 62,272 63,272 63,273 63,273 63,273 63,273 63,273 63,273 63,273 63,273 63,273 63,273 63,272 63,272 64,272 64,272 64,272 64,271 64,271 64,271 64,271 64,271 64,270 64,270 64,270 64,270 64,270 65,270 65,269 65,269 65,269 65,269 65,269 65,269 65,269 65,269 65,268 65,268 65,268 65,268 66,268 66,268 66,268 66,268 66,268 66,268 66,268 66,268 66,268 66,268 66,268 66,268 66,268 67,268 67,268 67,268 67,268 67,268 67,268 67,268 67,268 67,268 67,268 67,268 67,267 67,267 68,267 68,267 68,266 68,266 68,265 68,265 68,265 68,265 68,265 68,264 68,264 68,263 68,263 69,262 69,262 69,261 69,261 69,261 69,260 69,260 69,260 69,259 69,259 69,258 69,258 69,257 70,257 70,257 70,256 70,256 70,256 70,255 70,255 70,255 70,255 70,254 70,254 70,254 70,253 71,253 71,252 71,252 71,251 71,251 71,251 71,250 71,250 71,250 71,249 71,249 71,249 71,249 72,249 72,248 72,248 72,248 72,247 72,247 72,246 72,246 72,246 72,245 72,245 72,245 72,244 73,243 73,243 73,244 73,244 73,244 73,243 73,243 73,243 73,242 73,242 73,242 73,241 73,241 74,241 74,240 74,240 74,239 74,239 74,239 74,238 74,238 74,238 74,238 74,238 74,238 74,238 75,237 75,237 75,237 75,237 75,237 75,237 75,237 75,237 75,237 75,237 75,237 75,237 76,237 76,237 76,237 76,237 76,237 76,237 76,237 76,237 76,237 76,237 76,237 76,237 76,237 77,236 77,236 77,236 77,236 77,235 77,235 77,235 77,235 77,235 77,236 77,236 77,236 77,236 78,236 78,236 78,236 78,236 78,236 78,236 78,236 78,236 78,236 78,236 78,236 78,236 78,236 79,236 79,236 79,236 79,236 79,236 79,236 79,236 79,236 79,236 79,236 79,236 79,236 79,236 80,236 80,236 80,237 80,237 80,237 80,238 80,238 80,238 80,239 80,239 80,240 80,240 80,241 81,242 81,242 81,244 81,244 81,245 81,246 81,247 81,247 81,247 81,248 81,248 81,247 81,247 82,246 82,246 82,245 82,244 82,243 82,242 82,241 82,240 82,239 82,238 82,237 82,236 82,236 83,235 83,234 83,233 83,232 83,231 83,231 83,230 83,229 83,228 83,227 83,226 83,225 83,225 84,224 84,223 84,223 84,222 84,221 84,220 84,219 84,219 84,218 84,217 84,216 84,215 84,214 85,214 85,213 85,212 85,211 85,211 85,210 85,210 85,209 85,209 85,208 85,208 85,207 85,207 86,206 86,206 86,205 86,204 86,204 86,203 86,202 86,201 86,201 86,200 86,200 86,199 86,199 87,198 87,198 87,197 87,197 87,196 87,196 87,195 87,195 87,194 87,194 87,193 87,193 87,193 88,192 88,192 88,192 88,192 88,191 88,191 88,191 88,191 88,191 88,191 88,191 88,191 88,191 89,191 89,191 89,191 89,191 89,191 89,191 89,191 89,191 89,191 89,191 89,190 89,190 89,190 90,190 90,189 90,189 90,189 90,189 90,189 90,189 90,189 90,189 90,189 90,189 90,189 90,189 91,189 91,189 91,190 91,190 91,190 91,190 91,191 91,191 91,191 91,191 91,192 91,192 91,192 92,192 92,191 92,191 92,191 92,191 92,191 92,191 92,191 92,191 92,191 92,191 92,191 92,191 93,191 93,191 93,191 93,192 93,192 93,192 93,192 93,192 93,193 93,193 93,193 93,194 93,194 94,194 94,194 94,194 94,194 94,195 94,195 94,195 94,195 94,195 94,195 94,195 94,195 94,194 95,194 95,194 95,194 95,194 95,194 95,194 95,193 95,193 95,192 95,192 95,192 95,192 95,192 96,192 96,191 96,191 96,191 96,190 96,189 96,188 96,188 96,187 96,187 96,187 96,186 96,185 97,184 97,184 97,183 97,182 97,181 97,180 97,180 97,179 97,178 97,177 97,177 97,177 97,177 98,177 98,177 98,177 98,177 98,177 98,177 98,177 98,177 98,177 98,177 98,177 98,177 98,177 99,177 99,177 99,177 99,177 99,178 99,179 99,179 99,180 99,181 99,182 99,183 99,184 99,184 100,185 100,185 100,186 100,186 100,186 100,186 100,186 100,186 100,186 100,186 100,185 100,185 100,185 101,184 101,184 101,184 101,183 101,183 101,182 101,182 101,182 101,183 101,183 101,183 101,183 101,183 102,183 102,183 102,183 102,183 102,183 102,183 102,183 102,183 102,184 102,184 102,184 102,185 102,185 103,185 103,185 103,186 103,186 103,186 103,186 103,187 103,187 103,187 103,188 103,188 103,189 103,189 104,189 104,190 104,190 104,191 104,191 104,191 104,192 104,192 104,192 104,193 104,193 104,193 104,194 105,194 105,194 105,195 105,195 105,195 105,196 105,196 105,196 105,196 105,196 105,197 105,198 105,198 106,198 106,198 106,198 106,198 106,198 106,198 106,198 106,198 106,198 106,198 106,198 106,198 107,198 107,198 107,198 107,198 107,198 107,197 107,197 107,197 107,197 107,197 107,197 107,196 107,196 108,196 108,195 108,195 108,195 108,194 108,194 108,194 108,194 108,193 108,193 108,193 108,193 108,192 109,192 109,192 109,192 109,192 109,192 109,193 109,192 109,193 109,193 109,193 109,194 109,194 109,195 110,195 110,196 110,196 110,196 110,196 110,197 110,197 110,196 110,196 110,196 110,195 110,195 110,194 111,194 111,193 111,193 111,192 111,192 111,191 111,191 111,190 111,190 111,190 111,190 111,190 111,189 112,189 112,189 112,189 112,189 112,189 112,189 112,189 112,189 112,188 112,188 112,188 112,188 112,188 113,187 113,187 113,186 113,186 113,185 113,184 113,184 113,183 113,183 113,182 113,182 113,181 113,181 114,180 114,180 114,180 114,180 114,179 114,179 114,179 114,179 114,179 114,179 114,179 114,179 114,179 115,179 115,179 115,179 115,179 115,179 115,179 115,179 115,179 115,179 115,179 115,179 115,179 115,179 116,179 116,179 116,179 116,179 116,179 116,179 116,179 116,179 116,179 116,178 116,178 116,178 116,178 117,179 117,179 117,179 117,180 117,180 117,181 117,181 117,182 117,184 117,185 117,186 117,187 117,187 118,188 118,189 118,189 118,190 118,190 118,191 118,191 118,192 118,192 118,193 118,193 118,193 118,194 119,194 119,194 119,194 119,195 119,195 119,195 119,195 119,196 119,196 119,196 119,196 119,197 119,197 120,197 120,196 120,196 120,196 120,195 120,195 120,195 120,195 120,194 120,194 120,194 120,194 120,194 121,194 121,194 121,194 121,194 121,194 121,194 121,194 121,193 121,193 121,193 121,193 121,193 121,193 122,193 122,193 122,193 122,193 122,193 122,193 122,193 122,193 122,193 122,193 122,193 122,193 122,193 123,193 123,192 123,192 123,192 123,192 123,192 123,192 123,192 123,191 123,191 123,190 123,190 123,190 124,189 124,190 124,190 124,190 124,190 124,190 124,190 124,190 124,190 124,190 124,190 124,190 124,190 125,190 125,191 125,191 125,191 125,191 125,191 125,191 125,191 125,191 125,191 125,191 125,191 125,191 126,191 126,191 126,191 126,191 126,191 126,191 126,191 126,191 126,192 126,192 126,193 126,193 126,194 127,194 127,195 127,195 127,196 127,196 127,197 127,197 127,197 127,198 127,198 127,199 127,200 127,201 128,201 128,201 128,202 128,202 128,203 128,203 128,204 128,205 128,205 128,206 128,206 128,207 128,207 129,208 129,209 129,209 129,210 129,210 129,211 129,211 129,212 129,212 129,212 129,213 129,213 129,214 130,214 130,214 130,215 130,215 130,215 130,215 130,215 130,215 130,215 130,215 130,215 130,215 130,215 131,215 131,214 131,214 131,214 131,213 131,213 131,213 131,212 131,212 131,211 131,211 131,211 131,210 132,210 132,209 132,209 132,209 132,208 132,208 132,207 132,207 132,207 132,206 132,206 132,205 132,205 133,205 133,204 133,204 133,204 133,203 133,202 133,202 133,201 133,200 133,200 133,199 133,199 133,198 134,198 134,197 134,196 134,196 134,195 134,195 134,195 134,194 134,194 134,194 134,193 134,193 134,193 135,192 135,192 135,192 135,191 135,191 135,191 135,190 135,190 135,190 135,189 135,190 135,189 135,189 136,189 136,190 136,190 136,190 136,190 136,191 136,191 136,191 136,192 136,192 136,192 136,192 136,193 137,193 137,193 137,194 137,194 137,194 137,195 137,195 137,195 137,196 137,196 137,197 137,198 137,198 138,199 138,199 138,200 138,201 138,201 138,202 138,202 138,203 138,204 138,204 138,205 138,206 139,207 139,207 139,208 139,208 139,209 139,209 139,209 139,209 139,209 139,209 139,208 139,208 139,207 140,207 140,207 140,206 140,206 140,205 140,205 140,205 140,204 140,204 140,204 140,204 140,203 140,203 141,203 141,203 141,203 141,203 141,203 141,203 141,203 141,203 141,203 141,203 141,203 141,203 141,204 142,204 142,204 142,204 142,205 142,205 142,205 142,205 142,205 142,205 142,205 142,205 142,205 142,205 143,205 143,205 143,205 143,204 143,204 143,204 143,203 143,203 143,204 143,204 143,204 143,204 143,204 144,204 144,205 144,205 144,205 144,205 144,205 144,206 144,206 144,206 144,207 144,207 144,207 144,207 145,208 145,208 145,208 145,209 145,209 145,209 145,209 145,209 145,209 145,208 145,208 145,208 145,207 146,207 146,207 146,207 146,207 146,206 146,206 146,206 146,205 146,205 146,204 146,204 146,204 146,204 147,204 147,203 147,203 147,203 147,203 147,203 147,203 147,203 147,202 147,202 147,202 147,201 147,201 148,201 148,201 148,200 148,200 148,200 148,200 148,199 148,199 148,199 148,198 148,198 148,198 148,198 149,198 149,197 149,197 149,197 149,197 149,196 149,196 149,196 149,196 149,195 149,195 149,195 149,195 150,194 150,194 150,194 150,194 150,193 150,193 150,193 150,193 150,193 150,192 150,192 150,192 150,192 151,192 151,192 151,192 151,192 151,191 151,191 151,191 151,191 151,191 151,191 151,191 151,190 151,191 152,190 152,190 152,190 152,190 152,190 152,190 152,190 152,190 152,190 152,190 152,189 152,189 152,189 153,189 153,189 153,189 153,189 153,188 153,188 153,188 153,188 153,188 153,187 153,187 153,187 153,187 154,186 154,186 154,186 154,186 154,186 154,186 154,186 154,185 154,184 154,184 154,183 154,183 154,183 155,183 155,183 155,182 155,182 155,182 155,182 155,182 155,182 155,181 155,181 155,181 155,181 155,180 156,180 156,180 156,180 156,179 156,179 156,179 156,179 156,179 156,179 156,179 156,178 156,178 156,178 157,178 157,177 157,177 157,177 157,177 157,177 157,177 157,177 157,176 157,176 157,176 157,176 157,176 158,176 158,176 158,176 158,176 158,176 158,176 158,175 158,175 158,175 158,175 158,175 158,175 158,175 159,176 159,176 159,176 159,176 159,176 159,176 159,176 159,176 159,177 159,177 159,177 159,177 159,177 160,177 160,177 160,177 160,177 160,177 160,177 160,177 160,177 160,177 160,177 160,178 160,178 160,178 161,178 161,178 161,178 161,178 161,178 161,178 161,178 161,179 161,179 161,180 161,180 161,181 161,182 162,182 162,183 162,184 162,184 162,185 162,186 162,187 162,187 162,188 162,188 162,188 162,188 162,189 163,189 163,190 163,190 163,191 163,191 163,192 163,192 163,193 163,193 163,193 163,193 163,193 163,194 164,195 164,195 164,196 164,195 164,195 164,195 164,195 164,196 164,196 164,197 164,197 164,197 164,197 165,197 165,197 165,197 165,197 165,197 165,197 165,198 165,199 165,200 165,200 165,201 165,201 165,201 166,202 166,202 166,202 166,203 166,203 166,203 166,204 166,204 166,204 166,205 166,205 166,205 166,206 167,206 167,206 167,207 167,207 167,207 167,208 167,208 167,209 167,209 167,209 167,210 167,210 167,210 168,211 168,211 168,211 168,212 168,212 168,213 168,213 168,214 168,214 168,214 168,215 168,215 168,215 169,216 169,216 169,217 169,217 169,217 169,218 169,218 169,219 169,219 169,220 169,220 169,221 169,222 170,222 170,223 170,224 170,224 170,224 170,225 170,225 170,226 170,226 170,226 170,227 170,227 171,227 171,227 171,227 171,227 171,228 171,228 171,228 171,228 171,228 171,229 171,229 171,229 171,229 172,230 172,230 172,230 172,229 172,229 172,228 172,228 172,227 172,226 172,225 172,224 172,223 172,222 173,221 173,219 173,218 173,217 173,216 173,215 173,215 173,215 173,215 173,215 173,215 173,215 173,215 174,215 174,215 174,215 174,215 174,215 174,215 174,214 174,214 174,214 174,214 174,214 174,214 174,214 175,214 175,214 175,214 175,214 175,214 175,214 175,215 175,215 175,216 175,216 175,217 175,218 175,219 176,220 176,220 176,221 176,222 176,223 176,223 176,224 176,225 176,225 176,225 176,226 176,227 176,228 177,229 177,230 177,230 177,231 177,232 177,232 177,232 177,233 177,234 177,234 177,235 177,235 177,236 178,236 178,236 178,236 178,236 178,236 178,236 178,236 178,237 178,237 178,237 178,237 178,237 178,237 179,237 179,237 179,237 179,237 179,237 179,237 179,237 179,237 179,237 179,237 179,238 179,238 179,238 180,238 180,238 180,238 180,238 180,238 180,238 180,238 180,238 180,238 180,238 180,238 180,238 180,238 181,238 181,238 181,238 181,238 181,238 181,237 181,237 181,237 181,237 181,236 181,236 181,236 181,236 182,236 182,236 182,236 182,235 182,235 182,235 182,235 182,235 182,234 182,234 182,234 182,234 182,234 183,234 183,234 183,233 183,233 183,233 183,233 183,233 183,233 183,232 183,232 183,232 183,232 183,232 184,232 184,232 184,232 184,231 184,231 184,231 184,231 184,231 184,231 184,231 184,231 184,231 184,231 185,231 185,230 185,230 185,229 185,229 185,228 185,227 185,226 185,226 185,225 185,224 185,224 185,223 186,223 186,222 186,221 186,221 186,220 186,220 186,219 186,219 186,218 186,218 186,217 186,217 186,217 187,217 187,216 187,216 187,216 187,215 187,215 187,214 187,214 187,214 187,213 187,213 187,213 187,213 188,212 188,212 188,212 188,211 188,211 188,210 188,210 188,210 188,210 188,210 188,209 188,209 188,209 189,209 189,208 189,208 189,208 189,208 189,208 189,209 189,209 189,209 189,210 189,210 189,211 189,212 190,213 190,214 190,215 190,216 190,217 190,217 190,218 190,218 190,219 190,219 190,219 190,219 190,219 191,218 191,218 191,218 191,218 191,217 191,217 191,218 191,218 191,217 191,217 191,216 191,216 191,215 192,216 192,216 192,216 192,215 192,215 192,216 192,215 192,215 192,215 192,215 192,214 192,214 192,214 193,213 193,213 193,213 193,212 193,211 193,211 193,210 193,209 193,209 193,208 193,208 193,208 193,207 194,207 194,207 194,207 194,206 194,206 194,206 194,206 194,206 194,206 194,206 194,206 194,206 194,206 195,206 195,206 195,206 195,206 195,205 195,205 195,205 195,205 195,205 195,205 195,205 195,205 195,205 196,205 196,206 196,206 196,207 196,207 196,208 196,208 196,208 196,209 196,209 196,209 196,209 196,209 197,209 197,208 197,208 197,207 197,207 197,206 197,206 197,206 197,205 197,205 197,205 197,204 197,204 198,204 198,203 198,203 198,203 198,202 198,202 198,202 198,202 198,202 198,202 198,202 198,202 198,202 199,202 199,202 199,202 199,202 199,202 199,201 199,201 199,201 199,201 199,201 199,201 199,200 199,200 200,200 200,200 200,200 200,199 200,199 200,199 200,198 200,198 200,197 200,197 200,197 200,196 200,196 201,196 201,196 201,196 201,196 201,196 201,197 201,198 201,198 201,197 201,197 201,197 201,197 202,197 202,197 202,197 202,197 202,198 202,198 202,198 202,198 202,198 202,199 202,199 202,200 202,200 203,200 203,201 203,201 203,201 203,201 203,200 203,199 203,199 203,198 203,197 203,196 203,195 203,194 204,193 204,193 204,192 204,191 204,190 204,189 204,188 204,187 204,186 204,186 204,185 204,184 204,183 205,183 205,181 205,181 205,180 205,179 205,179 205,178 205,178 205,178 205,177 205,177 205,177 205,177 206,177 206,177 206,176 206,176 206,176 206,176 206,176 206,176 206,176 206,176 206,176 206,176 206,176 207,176 207,176 207,177 207,177 207,177 207,178 207,178 207,179 207,179 207,179 207,179 207,180 207,180 208,179 208,179 208,179 208,178 208,178 208,177 208,176 208,175 208,174 208,174 208,174 208,173 208,173 209,172 209,172 209,171 209,171 209,171 209,171 209,170 209,170 209,169 209,169 209,168 209,168 209,168 210,167 210,167 210,167 210,167 210,168 210,168 210,168 210,168 210,168 210,168 210,168 210,168 210,168 211,168 211,168 211,168 211,168 211,168 211,168 211,168 211,168 211,168 211,168 211,168 211,168 211,168 212,168 212,168 212,168 212,168 212,168 212,168 212,168 212,168 212,168 212,168 212,168 212,168 212,168 213,169 213,169 213,169 213,169 213,169 213,169 213,169 213,169 213,169 213,169 213,169 213,169 213,169 214,170 214,170 214,169 214,169 214,169 214,169 214,169 214,169 214,169 214,169 214,169 214,169 214,169 215,169 215,169 215,169 215,169 215,169 215,169 215,169 215,168 215,168 215,168 215,168 215,168 215,168 216,168 216,168 216,167 216,167 216,166 216,166 216,165 216,165 216,165 216,165 216,165 216,165 216,165 217,165 217,165 217,166 217,166 217,166 217,167 217,167 217,168 217,168 217,169 217,169 217,169 217,170 218,170 218,171 218,171 218,171 218,171 218,172 218,172 218,172 218,172 218,173 218,173 218,173 218,173 219,173 219,173 219,173 219,173 219,173 219,173 219,172 219,172 219,172 219,171 219,170 219,169 219,169 220,169 220,169 220,169 220,169 220,169 220,169 220,169 220,169 220,169 220,169 220,169 220,169 220,169 221,169 221,169 221,169 221,170 221,169 221,169 221,170 221,170 221,169 221,169 221,169 221,169 221,170 222,170 222,171 222,171 222,172 222,172 222,173 222,173 222,173 222,174 222,175 222,175 222,176 222,177 223,177 223,178 223,178 223,179 223,180 223,180 223,181 223,181 223,182 223,183 223,184 223,184 223,185 224,185 224,186 224,186 224,186 224,186 224,186 224,186 224,185 224,185 224,185 224,184 224,184 224,183 225,183 225,182 225,182 225,181 225,181 225,180 225,180 225,180 225,180 225,179 225,179 225,179 225,179 226,179 226,178 226,178 226,178 226,178 226,178 226,178 226,178 226,178 226,179 226,179 226,179 226,180 227,180 227,181 227,182 227,183 227,184 227,185 227,186 227,187 227,188 227,189 227,191 227,192 227,193 228,194 228,195 228,196 228,196 228,197 228,198 228,199 228,200 228,201 228,201 228,202 228,202 228,205 229,207 229,209 229,210 229,210 229,209 229,209 229,209 229,207 229,206 229,205 229,204 229,203 229,201 230,200 230,198 230,197 230,196 230,195 230,194 230,193 230,192 230,191 230,191 230,191 230,191 230,191 231,191 231,191 231,191 231,191 231,191 231,191 231,191 231,191 231,191 231,190 231,190 231,190 231,190 232,190 232,189 232,189 232,189 232,189 232,188 232,188 232,188 232,188 232,187 232,187 232,187 232,186 233,186 233,186 233,186 233,185 233,186 233,185 233,185 233,186 233,185 233,185 233,185 233,184 234,184 234,184 234,183 234,183 234,182 234,182 234,181 234,181 234,181 234,180 234,180 234,179 234,179 235,178 235,178 235,178 235,177 235,177 235,176 235,176 235,176 235,175 235,175 235,175 235,176 235,176 236,176 236,176 236,176 236,176 236,176 236,176 236,176 236,177 236,177 236,178 236,178 236,178 236,178 237,179 237,180 237,180 237,181 237,182 237,183 237,183 237,184 237,185 237,185 237,186 237,187 237,188 238,189 238,190 238,192 238,193 238,194 238,195 238,196 238,196 238,196 238,196 238,196 238,196 238,197 239,197 239,196 239,195 239,194 239,194 239,193 239,192 239,191 239,190 239,189 239,188 239,188 239,187 240,187 240,186 240,186 240,186 240,185 240,185 240,185 240,185 240,185 240,185 240,185 240,185 240,185 241,185 241,185 241,185 241,185 241,185 241,185 241,185 241,185 241,185 241,185 241,185 241,185 241,185 242,185 242,185 242,185 242,185 242,185 242,185 242,185 242,185 242,185 242,185 242,185 242,185 242,186 243,186 243,186 243,187 243,187 243,187 243,188 243,190 243,191 243,192 243,193 243,193 243,194 243,195 244,194 244,194 244,195 244,195 244,195 244,196 244,196 244,196 244,197 244,197 244,198 244,198 244,198 245,199 245,199 245,200 245,200 245,200 245,200 245,200 245,200 245,200 245,200 245,200 245,200 245,200 246,200 246,200 246,200 246,200 246,200 246,200 246,200 246,200 246,200 246,200 246,201 246,201 246,201 247,201 247,201 247,202 247,202 247,202 247,202 247,202 247,202 247,202 247,202 247,202 247,203 247,203 248,203 248,203 248,204 248,203 248,204 248,204 248,204 248,204 248,205 248,205 248,205 248,206 248,206 249,207 249,207 249,207 249,208 249,209 249,209 249,209 249,209 249,210 249,211 249,213 249,214 249,214 250,215 250,216 250,216 250,217 250,217 250,218 250,218 250,219 250,219 250,220 250,220 250,221 250,221 251,221 251,221 251,222 251,222 251,222 251,222 251,222 251,223 251,223 251,223 251,222 251,222 251,222 252,222 252,222 252,222 252,223 252,223 252,224 252,225 252,226 252,226 252,227 252,227 252,227 252,228 253,228 253,228 253,228 253,229 253,229 253,229 253,229 253,230 253,230 253,231 253,231 253,232 253,232 254,232 254,233 254,233 254,234 254,234 254,234 254,235 254,235 254,235 254,236 254,236 254,235 254,234 255,234 255,233 255,233 255,232 255,231 255,231 255,230 255,230 255,229 255,229 255,229 255,229 255,228 256,228 256,227 256,227 256,226 256,226 256,226 256,225 256,225 256,224 256,224 256,223 256,223 256,222 257,222 257,222 257,221 257,221 257,220 257,220 257,220 257,219 257,219 257,219 257,219 257,219 257,219 258,219 258,219 258,219 258,219 258,218 258,218 258,218 258,218 258,218 258,218 258,217 258,217 258,217 259,216 259,216 259,215 259,215 259,214 259,214 259,214 259,214 259,214 259,214 259,214 259,214 259,214 260,214 260,213 260,213 260,213 260,213 260,213 260,213 260,213 260,213 260,212 260,212 260,212 260,212 261,213 261,213 261,213 261,212 261,212 261,212 261,212 261,212 261,212 261,211 261,211 261,210 261,210 262,210 262,209 262,209 262,210 262,210 262,209 262,209 262,210 262,210 262,210 262,210 262,211 262,211 263,211 263,211 263,212 263,213 263,213 263,214 263,214 263,214 263,214 263,214 263,215 263,215 263,215 264,215 264,216 264,216 264,216 264,216 264,216 264,217 264,217 264,217 264,217 264,216 264,216 264,216 265,216 265,215 265,214 265,214 265,213 265,213 265,213 265,213 265,212 265,212 265,212 265,212 266,211 266,211 266,211 266,210 266,210 266,210 266,210 266,209 266,209 266,209 266,209 266,209 266,209 267,209 267,208 267,208 267,208 267,207 267,207 267,207 267,207 267,207 267,207 267,208 267,208 267,208 268,208 268,209 268,209 268,209 268,210 268,210 268,210 268,211 268,211 268,211 268,211 268,211 268,212 269,212 269,212 269,213 269,213 269,213 269,214 269,214 269,214 269,214 269,215 269,215 269,216 269,217 270,218 270,219 270,221 270,221 270,222 270,222 270,222 270,223 270,224 270,225 270,226 270,227 270,227 271,227 271,227 271,227 271,227 271,226 271,226 271,226 271,226 271,226 271,226 271,226 271,225 271,225 272,224 272,224 272,224 272,225 272,225 272,225 272,224 272,224 272,224 272,223 272,222 272,221 272,221 273,221 273,221 273,221 273,221 273,221 273,221 273,221 273,221 273,221 273,221 273,221 273,221 273,221 274,222 274,222 274,222 274,222 274,222 274,222 274,222 274,222 274,221 274,221 274,220 274,220 274,219 275,218 275,218 275,217 275,217 275,216 275,216 275,215 275,215 275,215 275,215 275,215 275,215 275,215 276,215 276,214 276,214 276,214 276,214 276,213 276,213 276,213 276,213 276,213 276,213 276,213 276,213 277,213 277,212 277,212 277,212 277,212 277,212 277,212 277,212 277,212 277,212 277,212 277,212 277,212 278,211 278,211 278,211 278,211 278,211 278,211 278,211 278,211 278,211 278,211 278,211 278,211 278,211 279,211 279,212 279,212 279,212 279,212 279,212 279,212 279,212 279,212 279,212 279,212 279,212 279,213 280,213 280,213 280,213 280,213 280,213 280,213 280,213 280,212 280,212 280,212 280,212 280,212 280,212 281,212 281,212 281,212 281,211 281,211 281,211 281,211 281,211 281,211 281,210 281,210 281,210 281,210 282,209 282,209 282,208 282,208 282,208 282,207 282,207 282,207 282,206 282,206 282,206 282,206 282,205 283,205 283,205 283,205 283,205 283,205 283,205 283,205 283,205 283,205 283,205 283,205 283,205 283,205 284,205 284,205 284,205 284,204 284,204 284,204 284,203 284,203 284,203 284,202 284,202 284,202 284,202 285,202 285,202 285,201 285,201 285,201 285,201 285,201 285,200 285,201 285,201 285,202 285,202 285,201 286,200 286,199 286,198 286,197 286,197 286,196 286,196 286,196 286,196 286,195 286,195 286,195 286,195 287,195 287,194 287,194 287,194 287,194 287,194 287,193 287,193 287,193 287,193 287,193 287,193 287,193 288,193 288,193 288,193 288,193 288,193 288,193 288,193 288,193 288,193 288,193 288,194 288,194 288,194 289,194 289,194 289,194 289,194 289,194 289,194 289,195 289,195 289,195 289,196 289,196 289,196 289,196 290,197 290,197 290,198 290,198 290,199 290,199 290,199 290,199 290,199 290,200 290,200 290,200 290,200 291,201 291,201 291,201 291,200 291,199 291,198 291,198 291,197 291,197 291,197 291,197 291,197 291,196 292,196 292,196 292,195 292,195 292,194 292,194 292,193 292,193 292,193 292,193 292,193 292,192 292,192 293,192 293,192 293,191 293,191 293,191 293,191 293,191 293,190 293,190 293,190 293,190 293,190 293,189 294,190 294,190 294,190 294,190 294,190 294,190 294,190 294,190 294,190 294,190 294,189 294,189 294,189 295,189 295,189 295,189 295,189 295,188 295,188 295,188 295,188 295,188 295,187 295,187 295,187 295,187 296,187 296,186 296,187 296,187 296,187 296,187 296,188 296,188 296,188 296,189 296,189 296,190 297,190 297,191 297,191 297,191 297,191 297,191 297,192 297,192 297,192 297,192 297,192 297,192 297,192 298,193 298,193 298,193 298,193 298,194 298,194 298,194 298,194 298,194 298,194 298,194 298,194 298,194 299,194 299,194 299,194 299,194 299,194 299,194 299,194 299,194 299,195 299,195 299,195 299,195 299,195 300,196 300,196 300,196 300,196 300,196 300,196 300,196 300,197 300,197 300,197 300,197 300,197 300,198 301,198 301,198 301,198 301,198 301,199 301,199 301,199 301,200 301,200 301,200 301,201 301,201 301,201 302,202 302,202 302,202 302,203 302,203 302,203 302,204 302,204 302,205 302,205 302,206 302,206 302,207 303,207 303,207 303,208 303,208 303,208 303,208 303,208 303,208 303,209 303,209 303,209 303,209 303,209 304,209 304,209 304,209 304,209 304,209 304,209 304,209 304,209 304,209 304,209 304,209 304,209 304,209 305,209 305,209 305,209 305,210 305,210 305,210 305,210 305,210 305,210 305,210 305,210 305,210 305,210 306,210 306,210 306,210 306,210 306,210 306,210 306,210 306,210 306,209 306,209 306,209 306,209 306,209 307,209 307,209 307,209 307,210 307,210 307,210 307,210 307,210 307,210 307,211 307,211 307,211 307,211 308,211 308,211 308,211 308,211 308,211 308,211 308,211 308,211 308,210 308,210 308,210 308,210 308,210 309,210 309,209 309,209 309,209 309,208 309,208 309,208 309,208 309,208 309,208 309,207 309,207 309,207 310,207 310,207 310,207 310,207 310,207 310,206 310,206 310,206 310,206 310,206 310,206 310,206 310,206 311,206 311,205 311,205 311,205 311,205 311,205 311,205 311,205 311,204 311,204 311,204 311,204 311,204 312,204 312,203 312,203 312,203 312,203 312,203 312,202 312,202 312,202 312,201 312,201 312,201 312,201 313,201 313,201 313,200 313,200 313,200 313,200 313,200 313,200 313,200 313,200 313,200 313,200 313,199 314,199 314,199 314,199 314,199 314,199 314,199 314,198 314,198 314,198 314,198 314,198 314,198 314,197 315,197 315,197 315,197 315,196 315,196 315,196 315,196 315,196 315,195 315,195 315,195 315,195 315,194 316,194 316,194 316,194 316,193 316,193 316,193 316,192 316,192 316,192 316,191 316,191 316,191 316,191 317,191 317,191 317,191 317,191 317,191 317,191 317,190 317,190 317,190 317,190 317,190 317,189 317,189 318,189 318,189 318,189 318,189 318,189 318,189 318,189 318,189 318,189 318,189 318,189 318,189 318,189 319,189 319,189 319,189 319,189 319,189 319,189 319,189 319,188 319,188 319,188 319,188 319,188 319,187 320,187 320,187 320,187 320,187 320,186 320,186 320,186 320,186 320,186 320,186 320,186 320,185 320,185 321,185 321,185 321,185 321,185 321,184 321,184 321,184 321,184 321,184 321,184 321,183 321,184 321,184 322,184 322,184 322,184 322,184 322,184 322,184 322,184 322,184 322,184 322,184 322,184 322,184 322,184 323,184 323,184 323,184 323,184 323,184 323,184 323,184 323,184 323,184 323,184 323,185 323,185 323,185 324,185 324,186 324,186 324,186 324,186 324,187 324,187 324,188 324,188 324,188 324,189 324,189 324,189 325,190 325,190 325,190 325,191 325,191 325,191 325,192 325,192 325,192 325,192 325,192 325,192 325,192 326,192 326,192 326,191 326,191 326,191 326,191 326,191 326,190 326,190 326,190 326,190 326,190 326,189 327,189 327,189 327,189 327,189 327,189 327,189 327,189 327,189 327,189 327,189 327,189 327,189 327,189 328,189 328,189 328,189 328,189 328,189 328,189 328,189 328,189 328,189 328,189 328,189 328,189 329,189 329,190 329,190 329,190 329,190 329,190 329,190 329,190 329,190 329,190 329,190 329,190 329,190 330,190 330,190 330,191 330,191 330,191 330,191 330,191 330,192 330,192 330,192 330,192 330,192 330,192 331,193 331,193 331,193 331,193 331,194 331,194 331,194 331,194 331,194 331,194 331,194 331,194 331,194 332,195 332,195 332,195 332,195 332,195 332,195 332,195 332,195 332,195 332,195 332,195 332,195 332,195 333,195 333,195 333,195 333,195 333,195 333,195 333,195 333,195 333,195 333,195 333,195 333,195 333,195 334,195 334,195 334,195 334,195 334,195 334,194 334,194 334,194 334,194 334,194 334,194 334,194 334,194 335,194 335,195 335,195 335,195 335,195 335,196 335,196 335,196 335,197 335,197 335,197 335,197 335,197 336,197 336,197 336,197 336,197 336,197 336,197 336,197 336,197 336,197 336,197 336,197 336,197 336,197 337,197 337,197 337,197 337,197 337,196 337,196 337,196 337,196 337,196 337,196 337,196 337,196 337,196 338,196 338,196 338,196 338,196 338,196 338,196 338,196 338,196 338,196 338,196 338,196 338,196 338,196 339,196 339,196 339,196 339,196 339,195 339,195 339,195 339,195 339,195 339,195 339,195 339,195 339,195 340,195 340,195 340,195 340,195 340,195 340,194 340,194 340,194 340,194 340,194 340,194 340,194 340,194 341,194 341,193 341,193 341,193 341,193 341,193 341,192 341,192 341,192 341,192 341,191 341,191 341,191 342,190 342,190 342,190 342,189 342,189 342,189 342,188 342,188 342,187 342,187 342,187 342,186 342,186 343,186 343,185 343,185 343,185 343,185 343,185 343,185 343,185 343,185 343,186 343,185 343,185 343,185 344,186 344,186 344,185 344,185 344,185 344,185 344,185 344,185 344,185 344,185 344,185 344,185 344,185 345,185 345,186 345,186 345,186 345,186 345,187 345,187 345,187 345,187 345,187 345,187 345,187 345,187 346,187 346,187 346,186 346,186 346,186 346,186 346,186 346,185 346,185 346,185 346,185 346,184 346,184 347,184 347,184 347,184 347,183 347,183 347,183 347,183 347,183 347,183 347,182 347,182 347,182 347,182 348,182 348,182 348,181 348,181 348,181 348,181 348,181 348,180 348,180 348,180 348,180 348,180 348,180 349,180 349,180 349,180 349,180 349,179 349,179 349,179 349,179 349,179 349,179 349,179 349,179 349,179 350,179 350,179 350,179 350,179 350,179 350,179 350,179 350,179 350,179 350,179 350,179 350,179 350,179 351,178 351,178 351,178 351,178 351,178 351,178 351,178 351,178 351,178 351,178 351,177 351,177 351,177 352,177 352,177 352,177 352,176 352,176 352,176 352,176 352,176 352,175 352,175 352,175 352,175 352,175 353,175 353,174 353,174 353,174 353,174 353,173 353,173 353,173 353,173 353,172 353,172 353,172 353,172 354,171 354,171 354,171 354,170 354,170 354,170 354,169 354,169 354,168 354,168 354,168 354,167 354,167 355,166 355,166 355,165 355,165 355,164 355,164 355,164 355,163 355,163 355,162 355,162 355,161 355,161 356,160 356,160 356,159 356,159 356,158 356,158 356,157 356,157 356,156 356,156 356,156 356,155 356,155 357,154 357,154 357,154 357,155 357,155 357,155 357,155 357,155 357,156 357,156 357,156 357,157 357,158 358,158 358,159 358,160 358,160 358,161 358,162 358,162 358,162 358,162 358,162 358,162 358,162 358,161 359,161 359,160 359,159 359,158 359,157 359,157 359,156 359,156 359,156 359,156 359,156 359,156 359,156 360,156 360,156 360,156 360,156 360,156 360,156 360,156 360,157 360,157 360,157 360,158 360,159 361,159 361,160 361,160 361,161 361,161 361,162 361,162 361,162 361,162 361,163 361,163 361,163 361,163 362,163 362,163 362,163 362,164 362,164 362,164 362,165 362,165 362,165 362,165 362,166 362,166 362,166 363,166 363,166 363,167 363,167 363,167 363,167 363,167 363,167 363,167 363,167 363,167 363,167 363,167 364,167 364,167 364,167 364,166 364,166 364,166 364,166 364,166 364,166 364,165 364,165 364,165 364,165 365,165 365,165 365,164 365,164 365,164 365,164 365,163 365,163 365,163 365,163 365,163 365,163 365,163 366,162 366,162 366,162 366,162 366,161 366,161 366,161 366,161 366,161 366,160 366,160 366,160 366,160 367,159 367,159 367,159 367,159 367,159 367,159 367,159 367,159 367,159 367,159 367,159 367,159 367,158 368,158 368,158 368,158 368,158 368,158 368,158 368,158 368,157 368,157 368,157 368,157 368,157 368,157 369,157 369,156 369,156 369,156 369,156 369,156 369,156 369,155 369,155 369,155 369,155 369,155 369,155 370,154 370,154 370,154 370,154 370,154 370,153 370,153 370,153 370,153 370,152 370,152 370,152 370,151 371,151 371,151 371,151 371,150 371,150 371,150 371,149 371,149 371,149 371,149 371,149 371,149 371,148 372,148 372,148 372,148 372,148 372,148 372,148 372,148 372,148 372,148 372,148 372,148 372,147 372,148 373,148 373,148 373,148 373,148 373,148 373,149 373,149 373,149 373,149 373,150 373,150 373,150 373,150 374,151 374,151 374,151 374,152 374,152 374,153 374,153 374,153 374,154 374,154 374,154 374,154 374,155 375,155 375,155 375,155 375,156 375,156 375,156 375,156 375,157 375,157 375,157 375,157 375,158 375,158 376,159 376,159 376,159 376,159 376,159 376,159 376,159 376,160 376,160 376,160 376,160 376,160 376,160 377,160 377,160 377,161 377,161 377,161 377,161 377,161 377,161 377,162 377,162 377,162 377,162 377,163 378,163 378,163 378,164 378,164 378,164 378,164 378,165 378,165 378,165 378,165 378,165 378,165 378,165 379,165 379,166 379,166 379,166 379,166 379,166 379,166 379,166 379,166 379,166 379,166 379,166 379,166 380,166 380,166 380,166 380,166 380,166 380,166 380,166 380,166 380,166 380,166 380,166 380,167 380,167 381,167 381,168 381,168 381,168 381,169 381,169 381,169 381,170 381,170 381,170 381,170 381,170 381,170 382,171 382,171 382,171 382,171 382,171 382,171 382,171 382,171 382,172 382,172 382,172 382,172 382,172 383,172 383,171 383,171 383,171 383,171 383,171 383,172 383,173 383,174 383,174 383,174 383,174 383,175 384,175 384,175 384,175 384,175 384,176 384,176 384,176 384,176 384,176 384,176 384,176 384,176 384,176 385,176 385,176 385,176 385,176 385,176 385,175 385,175 385,176 385,176 385,176 385,176 385,176 385,177 386,177 386,177 386,177 386,177 386,177 386,177 386,177 386,178 386,178 386,178 386,178 386,178 386,178 387,178 387,179 387,179 387,179 387,179 387,179 387,179 387,179 387,179 387,179 387,179 387,179 387,179 388,179 388,179 388,179 388,179 388,179 388,179 388,178 388,178 388,178 388,178 388,178 388,178 388,178 389,178 389,177 389,177 389,177 389,177 389,177 389,177 389,177 389,177 389,176 389,176 389,176 389,176 390,177 390,177 390,177 390,177 390,177 390,177 390,178 390,178 390,178 390,179 390,179 390,179 390,180 391,180 391,180 391,181 391,181 391,181 391,181 391,182 391,182 391,182 391,182 391,182 391,182 392,182 392,182 392,182 392,181 392,181 392,181 392,181 392,181 392,180 392,180 392,180 392,180 392,180 393,180 393,179 393,179 393,179 393,179 393,179 393,179 393,179 393,179 393,179 393,179 393,179 393,179 394,179 394,179 394,179 394,179 394,178 394,178 394,178 394,178 394,178 394,178 394,178 394,178 394,178 395,178 395,177 395,177 395,177 395,177 395,177 395,176 395,176 395,176 395,176 395,176 395,175 395,175 396,175 396,175 396,175 396,174 396,174 396,174 396,174 396,174 396,174 396,173 396,173 396,173 396,173 397,173 397,173 397,173 397,173 397,172 397,172 397,172 397,172 397,172 397,172 397,172 397,171 397,171 398,171 398,171 398,170 398,170 398,170 398,170 398,170 398,170 398,170 398,170 398,170 398,171 398,171 399,171 399,171 399,171 399,171 399,171 399,172 399,172 399,172 399,172 399,172 399,172 399,172 399,172 400,173 400,173 400,173 400,173 400,174 400,174 400,174 400,174 400,174 400,174 400,175 400,175 400,175 401,175 401,176 401,176 401,176 401,176 401,176 401,177 401,177 401,177 401,177 401,177 401,178 401,178 402,178 402,178 402,179 402,179 402,179 402,179 402,180 402,180 402,180 402,180 402,180 402,180 402,181 403,181 403,181 403,181 403,180 403,180 403,181 403,181 403,181 403,181 403,181 403,182 403,182 403,182 404,182 404,182 404,182 404,182 404,182 404,183 404,183 404,183 404,183 404,183 404,183 404,183 404,183 405,183 405,183 405,183 405,183 405,183 405,184 405,184 405,184 405,184 405,184 405,184 405,185 405,185 406,185 406,185 406,185 406,185 406,185 406,185 406,185 406,185 406,185 406,186 406,186 406,187 406,187 407,187 407,187 407,187 407,187 407,187 407,188 407,188 407,188 407,188 407,188 407,188 407,189 407,189 408,189 408,189 408,189 408,189 408,190 408,190 408,190 408,190 408,190 408,191 408,191 408,190 408,190 409,191 409,191 409,191 409,192 409,192 409,192 409,192 409,192 409,192 409,193 409,193 409,193 409,193 410,192 410,192 410,192 410,192 410,192 410,193 410,193 410,193 410,193 410,194 410,194 410,194 410,194 411,194 411,195 411,195 411,195 411,195 411,195 411,195 411,195 411,195 411,195 411,196 411,196 411,196 412,196 412,197 412,197 412,197 412,197 412,198 412,198 412,198 412,198 412,198 412,198 412,198 412,199 413,199 413,199 413,200 413,200 413,200 413,200 413,200 413,200 413,200 413,200 413,200 413,200 413,200 414,200 414,200 414,200 414,201 414,201 414,201 414,201 414,201 414,201 414,201 414,201 414,201 414,201 415,201 415,200 415,200 415,201 415,201 415,201 415,201 415,201 415,201 415,201 415,201 415,202 415,202 416,202 416,202 416,202 416,202 416,202 416,203 416,203 416,203 416,203 416,203 416,203 416,204 416,204 417,204 417,204 417,204 417,204 417,204 417,204 417,204 417,204 417,204 417,204 417,204 417,204 417,205 418,205 418,205 418,205 418,205 418,205 418,205 418,205 418,204 418,204 418,204 418,204 418,204 418,204 419,205 419,205 419,205 419,205 419,205 419,205 419,205 419,205 419,205 419,205 419,205 419,205 419,205 420,205 420,205 420,205 420,205 420,205 420,205 420,205 420,205 420,205 420,205 420,205 420,205 420,205 421,205 421,205 421,204 421,204 421,204 421,204 421,204 421,204 421,204 421,204 421,204 421,204 421,204 422,204 422,204 422,204 422,204 422,204 422,204 422,204 422,204 422,204 422,204 422,204 422,204 422,204 423,204 423,204 423,204 423,204 423,204 423,204 423,204 423,204 423,204 423,204 423,204 423,204 424,204 424,204 424,204 424,204 424,204 424,203 424,203 424,204 424,204 424,204 424,204 424,203 424,203 425,203 425,203 425,203 425,203 425,203 425,203 425,203 425,203 425,203 425,203 425,203 425,203 425,203 426,202 426,202 426,202 426,202 426,202 426,202 426,202 426,202 426,202 426,202 426,202 426,202 426,202 427,201 427,201 427,201 427,201 427,200 427,200 427,200 427,200 427,200 427,200 427,200 427,200 427,200 428,201 428,201 428,201 428,201 428,201 428,201 428,201 428,201 428,201 428,201 428,202 428,202 428,202 429,202 429,202 429,202 429,202 429,202 429,202 429,202 429,203 429,203 429,203 429,203 429,203 429,203 430,203 430,203 430,203 430,204 430,204 430,203 430,203 430,203 430,203 430,203 430,204 430,204 430,204 431,204 431,204 431,204 431,204 431,204 431,205 431,205 431,205 431,205 431,205 431,205 431,205 431,206 432,206 432,206 432,206 432,206 432,206 432,206 432,206 432,206 432,207 432,207 432,207 432,207 432,207 433,207 433,207 433,207 433,207 433,207 433,207 433,207 433,208 433,208 433,208 433,208 433,208 433,208 434,208 434,208 434,208 434,208 434,208 434,208 434,208 434,208 434,207 434,207 434,207 434,207 434,207 435,207 435,207 435,207 435,206 435,207 435,207 435,207 435,207 435,206 435,206 435,206 435,206 435,206 436,205 436,205 436,205 436,204 436,204 436,203 436,203 436,204 436,204 436,204 436,204 436,204 436,205 437,205 437,205 437,205 437,205 437,205 437,205 437,205 437,205 437,205 437,205 437,205 437,206 437,206 438,206 438,206 438,205 438,205 438,205 438,205 438,206 438,206 438,206 438,206 438,206 438,206 438,206 439,206 439,206 439,205 439,206 439,206 439,206 439,206 439,205 439,205 439,205 439,205 439,205 439,205 440,206 440,206 440,206 440,206 440,206 440,206 440,206 440,206 440,206 440,205 440,205 440,206 440,206 441,206 441,206 441,206 441,206 441,206 441,206 441,206 441,206 441,206 441,206 441,206 441,206 441,206 442,206 442,206 442,206 442,207 442,207 442,207 442,207 442,207 442,207 442,208 442,208 442,208 442,208 443,208 443,209 443,209 443,209 443,209 443,209 443,209 443,209 443,209 443,210 443,210 443,210 443,210 444,210 444,210 444,210 444,209 444,209 444,209 444,209 444,208 444,208 444,207 444,207 444,207 444,207 445,207 445,207 445,207 445,207 445,207 445,207 445,207 445,207 445,208 445,208 445,207 445,207 445,208 446,208 446,208 446,207 446,207 446,207 446,207 446,207 446,207 446,207 446,207 446,207 446,207 446,207 447,207 447,207 447,207 447,207 447,207 447,207 447,207 447,207 447,207 447,207 447,207 447,207 447,207 448,207 448,207 448,207 448,207 448,207 448,207 448,207 448,207 448,207 448,207 448,207 448,208 448,208 449,208 449,208 449,208 449,208 449,208 449,208 449,208 449,208 449,208 449,208 449,209 449,209 449,209 450,209 450,209 450,209 450,208 450,208 450,208 450,208 450,208 450,208 450,208 450,208 450,208 450,208 451,208 451,208 451,208 451,208 451,208 451,208 451,208 451,208 451,208 451,209 451,209 451,209 451,209 452,209 452,209 452,209 452,209 452,209 452,209 452,209 452,209 452,209 452,209 452,209 452,209 452,209 453,209 453,209 453,209 453,209 453,209 453,209 453,209 453,209 453,209 453,209 453,209 453,209 453,209 454,209 454,209 454,209 454,209 454,209 454,209 454,209 454,209 454,209 454,209 454,209 454,208 454,208 455,208 455,208 455,208 455,208 455,208 455,207 455,207 455,207 455,207 455,207 455,207 455,207 456,207 456,207 456,207 456,207 456,207 456,207 456,207 456,207 456,207 456,208 456,208 456,207 456,207 457,207 457,207 457,207 457,207 457,207 457,207 457,208 457,208 457,208 457,208 457,208 457,209 457,209 458,209 458,209 458,209 458,209 458,209 458,209 458,209 458,209 458,209 458,209 458,210 458,210 458,210 459,210 459,210 459,210 459,210 459,211 459,211 459,211 459,211 459,211 459,211 459,212 459,212 459,212 460,212 460,212 460,212 460,213 460,213 460,213 460,213 460,213 460,213 460,213 460,213 460,213 460,213 461,213 461,213 461,213 461,213 461,213 461,213 461,213 461,212 461,212 461,212 461,212 461,212 461,212 462,212 462,212 462,212 462,212 462,212 462,212 462,212 462,212 462,212 462,212 462,212 462,212 462,212 463,212 463,212 463,212 463,212 463,212 463,212 463,212 463,212 463,212 463,212 463,212 463,212 463,212 464,213 464,213 464,213 464,213 464,213 464,213 464,213 464,213 464,213 464,213 464,214 464,214 464,214 465,214 465,214 465,214 465,214 465,214 465,214 465,214 465,214 465,214 465,214 465,214 465,214 465,214 466,214 466,213 466,213 466,213 466,213 466,212 466,212 466,212 466,212 466,212 466,212 466,212 466,212 467,212 467,212 467,213 467,213 467,213 467,213 467,213 467,213 467,214 467,214 467,214 467,214 467,214 468,214 468,214 468,214 468,214 468,214 468,214 468,214 468,214 468,214 468,214 468,214 468,214 468,214 469,214 469,214 469,214 469,214 469,214 469,214 469,214 469,214 469,214 469,214 469,214 469,214 469,214 470,214 470,214 470,214 470,215 470,215 470,215 470,215 470,215 470,215 470,215 470,215 470,215 470,215 471,215 471,215 471,215 471,214 471,214 471,214 471,213 471,213 471,213 471,213 471,213 471,213 471,212 472,211 472,210 472,210 472,210 472,210 472,210 472,210 472,210 472,210 472,210 472,210 472,210 472,210 473,211 473,211 473,211 473,211 473,211 473,212 473,212 473,212 473,212 473,212 473,212 473,213 473,213 474,213 474,213 474,213 474,214 474,214 474,214 474,214 474,214 474,215 474,215 474,215 474,215 474,215 475,215 475,215 475,215 475,215 475,215 475,215 475,215 475,215 475,215 475,215 475,215 475,215 475,215 476,215 476,215 476,215 476,215 476,215 476,215 476,215 476,215 476,215 476,215 476,215 476,215 476,215 477,215 477,215 477,215 477,215 477,215 477,214 477,214 477,214 477,213 477,213 477,213 477,213 477,212 478,212 478,212 478,212 478,211 478,211 478,211 478,211 478,211 478,210 478,210 478,210 478,209 478,209 479,209 479,209 479,208 479,208 479,208 479,208 479,208 479,207 479,207 479,207 479,207 479,207 479,206 480,206 480,206 480,205 480,205 480,205 480,204 480,204 480,204 480,203 480,203 480,203 480,202 480,202 481,202 481,202 481,201 481,201 481,201 481,200 481,200 481,199 481,199 481,199 481,198 481,197 481,197 482,196 482,195 482,195 482,194 482,194 482,194 482,194 482,194 482,194 482,194 482,194 482,194 482,194 483,195 483,195 483,195 483,195 483,195 483,195 483,195 483,195 483,196 483,196 483,197 483,198 483,198 484,199 484,200 484,201 484,201 484,202 484,202 484,203 484,204 484,204 484,204 484,205 484,205 484,206 485,206 485,206 485,207 485,207 485,207 485,207 485,208 485,208 485,208 485,209 485,209 485,209 485,209 486,210 486,210 486,210 486,209 486,210 486,209 486,209 486,209 486,209 486,209 486,209 486,209 487,208 487,208 487,208 487,207 487,207 487,207 487,207 487,207 487,207 487,207 487,207 487,207 487,207 488,207 488,208 488,208 488,208 488,208 488,208 488,208 488,208 488,208 488,208 488,208 488,208 488,208 489,208 489,208 489,208 489,208 489,208 489,208 489,209 489,209 489,209 489,209 489,209 489,209 489,210 490,210 490,211 490,211 490,212 490,212 490,212 490,213 490,212 490,212 490,213 490,213 490,213 490,213 491,212 491,212 491,213 491,212 491,212 491,212 491,211 491,211 491,211 491,211 491,211 491,211 491,211 492,210 492,210 492,210 492,209 492,209 492,209 492,209 492,208 492,208 492,208 492,207 492,207 492,206 493,206 493,205 493,205 493,205 493,204 493,204 493,204 493,204 493,203 493,203 493,203 493,203 493,203 494,203 494,202 494,202 494,203 494,203 494,203 494,203 494,203 494,203 494,204 494,204 494,204 494,204 495,205 495,205 495,205 495,205 495,205 495,205 495,205 495,205 495,205 495,205 495,205 495,205 495,205 496,206 496,205 496,205 496,205 496,205 496,206 496,206 496,206 496,206 496,206 496,206 496,206 496,206 497,206 497,206 497,207 497,207 497,207 497,206 497,206 497,206 497,205 497,205 497,205 497,205 497,205 498,204 498,204 498,204 498,204 498,204 498,203 498,203 498,203 498,203 498,202 498,202 498,202 498,202 499,201 499,201 499,201 499,200 499,200 499,200 499,199 499,199 499,199 499,198 499,198 499,198 499,197 500,197 500,196 500,196 500,196 500,195 500,195 500,195 500,194 500,194 500,193 500,193 500,192 500,192 501,192 501,191 501,191 501,190 501,190 501,190 501,189 501,189 501,188 501,188 501,188 501,187 501,187 502,186 502,186 502,185 502,185 502,184 502,184 502,184 502,183 502,183 502,182 502,182 502,181 502,180 503,180 503,179 503,179 503,178 503,178 503,177 503,176 503,176 503,175 503,175 503,174 503,174 503,173 504,172 504,172 504,171 504,171 504,170 504,170 504,169 504,168 504,168 504,167 504,167 504,166 504,166 505,165 505,165 505,164 505,164 505,163 505,162 505,161 505,160 505,159 505,159 505,158 505,158 505,157 506,156 506,156 506,155 506,154 506,153 506,152 506,151 506,150 506,149 506,149 506,148 506,147 506,146 507,145 507,144 507,144 507,144 507,144 507,144 507,143 507,143 507,143 507,143 507,142 507,142 507,142 508,141 508,141 508,141 508,141 508,140 508,140 508,140 508,140 508,139 508,139 508,139 508,138 508,138 509,138 509,138 509,137 509,137 509,136 509,136 509,135 509,135 509,135 509,135 509,136 509,136 509,136 510,137 510,137 510,138 510,139 510,139 510,140 510,140 510,140 510,141 510,141 510,141 510,142 510,142 511,142 511,143 511,144 511,144 511,145 511,145 511,146 511,146 511,146 511,147 511,147 511,148 511,148 512,148 512,149 512,149 512,149 512,149 512,150 512,150 512,151 512,151 512,151 512,152 512,152 512,152 513,152 513,153 513,153 513,154 513,154 513,154 513,155 513,156 513,156 513,157 513,157 513,158 513,158 514,158 514,159 514,159 514,160 514,161 514,161 514,161 514,162 514,162 514,162 514,163 514,163 514,163 515,164 515,164 515,164 515,165 515,165 515,165 515,166 515,166 515,166 515,167 515,167 515,167 515,167 516,167 516,168 516,168 516,168 516,169 516,169 516,169 516,169 516,170 516,170 516,170 516,170 516,170 517,170 517,170 517,171 517,171 517,170 517,170 517,170 517,170 517,170 517,170 517,171 517,171 517,171 518,172 518,172 518,172 518,172 518,172 518,172 518,173 518,173 518,173 518,173 518,173 518,173 519,173 519,173 519,173 519,174 519,174 519,174 519,175 519,175 519,175 519,175 519,176 519,176 519,176 520,176 520,177 520,177 520,177 520,178 520,178 520,179 520,180 520,180 520,181 520,181 520,182 520,182 521,182 521,183 521,183 521,183 521,184 521,184 521,184 521,185 521,185 521,185 521,186 521,186 521,187 522,187 522,187 522,188 522,188 522,188 522,189 522,189 522,189 522,189 522,190 522,190 522,190 522,190 523,191 523,191 523,191 523,191 523,191 523,192 523,192 523,192 523,192 523,193 523,193 523,193 523,193 524,193 524,194 524,194 524,194 524,195 524,195 524,195 524,195 524,195 524,195 524,195 524,195 524,195 525,195 525,195 525,195 525,196 525,196 525,196 525,196 525,197 525,197 525,197 525,197 525,198 525,198 526,198 526,198 526,199 526,199 526,199 526,199 526,199 526,199 526,199 526,199 526,199 526,200 526,200 527,200 527,200 527,200 527,200 527,200 527,200 527,200 527,200 527,201 527,201 527,201 527,201 527,201 528,201 528,201 528,201 528,201 528,202 528,202 528,202 528,202 528,202 528,202 528,203 528,203 528,203 529,204 529,204 529,204 529,205 529,205 529,205 529,206 529,206 529,206 529,206 529,206 529,207 529,207 530,207 530,207 530,207 530,207 530,207 530,207 530,207 530,207 530,207 530,207 530,207 530,207 530,207 531,207 531,207 531,207 531,207 531,208 531,208 531,208 531,208 531,208 531,208 531,208 531,209 531,209 532,209 532,209 532,209 532,209 532,209 532,209 532,209 532,209 532,210 532,210 532,210 532,210 532,210 533,210 533,210 533,210 533,210 533,210 533,211 533,211 533,210 533,210 533,210 533,210 533,210 533,210 534,210 534,210 534,210 534,210 534,210 534,210 534,210 534,210 534,210 534,210 534,210 534,210 534,210 535,210 535,210 535,210 535,210 535,210 535,210 535,210 535,210 535,210 535,210 535,210 535,210 535,210 536,211 536,211 536,211 536,211 536,211 536,211 536,211 536,211 536,211 536,211 536,211 536,211 536,211 537,211 537,211 537,212 537,212 537,212 537,212 537,212 537,212 537,212 537,212 537,212 537,212 537,213 538,213 538,213 538,213 538,213 538,213 538,213 538,213 538,213 538,213 538,213 538,213 538,213 538,214 539,214 539,214 539,214 539,214 539,214 539,214 539,214 539,214 539,214 539,214 539,215 539,215 539,215 540,215 540,215 540,216 540,216 540,216 540,217 540,217 540,217 540,217 540,217 540,218 540,218 540,218 541,218 541,219 541,219 541,219 541,219 541,220 541,220 541,221 541,221 541,221 541,222 541,222 541,222 542,222 542,222 542,223 542,223 542,223 542,223 542,224 542,224 542,224 542,224 542,225 542,225 542,225 543,225 543,226 543,226 543,226 543,226 543,227 543,227 543,227 543,228 543,228 543,228 543,228 543,228 544,228 544,228 544,228 544,228 544,228 544,227 544,227 544,227 544,227 544,227 544,226 544,226 544,225 545,225 545,225 545,224 545,224 545,224 545,223 545,223 545,223 545,222 545,222 545,221 545,220 545,220 546,220 546,220 546,220 546,220 546,220 546,219 546,219 546,220 546,220 546,220 546,220 546,220 546,220 547,220 547,220 547,220 547,219 547,219 547,219 547,219 547,219 547,219 547,219 547,220 547,220 547,220 548,220 548,220 548,220 548,220 548,221 548,221 548,221 548,221 548,222 548,222 548,222 548,222 548,222 549,223 549,223 549,223 549,223 549,224 549,225 549,225 549,226 549,227 549,227 549,228 549,229 549,229 550,230 550,231 550,231 550,232 550,233 550,234 550,234 550,235 550,236 550,237 550,237 550,238 551,239 551,240 551,240 551,241 551,242 551,243 551,244 551,245 551,245 551,246 551,246 551,246 551,247 552,248 552,248 552,249 552,250 552,250 552,251 552,251 552,252 552,252 552,252 552,252 552,253 552,253 553,253 553,252 553,252 553,252 553,252 553,252 553,252 553,251 553,251 553,251 553,251 553,251 553,251 554,250 554,250 554,249 554,249 554,248 554,247 554,246 554,245 554,245 554,245 554,245 554,245 554,244 555,244 555,243 555,242 555,241 555,240 555,239 555,238 555,237 555,237 555,236 555,235 555,234 555,233 556,233 556,232 556,231 556,231 556,230 556,229 556,229 556,228 556,227 556,226 556,226 556,225 556,225 557,225 557,224 557,224 557,224 557,224 557,224 557,224 557,224 557,223 557,223 557,223 557,223 557,223 558,223 558,223 558,223 558,223 558,224 558,224 558,224 558,224 558,224 558,225 558,225 558,226 558,226 559,226 559,227 559,227 559,227 559,228 559,228 559,228 559,229 559,229 559,230 559,230 559,231 559,231 560,232 560,232 560,233 560,233 560,233 560,233 560,233 560,233 560,234 560,234 560,234 560,234 560,235 561,235 561,236 561,236 561,237 561,237 561,238 561,238 561,239 561,240 561,240 561,241 561,242 561,243 562,244 562,245 562,245 562,246 562,247 562,248 562,248 562,249 562,249 562,250 562,250 562,251 562,252 563,252 563,253 563,254 563,255 563,255 563,256 563,256 563,257 563,257 563,257 563,258 563,258 563,258 564,258 564,258 564,258 564,258 564,258 564,258 564,258 564,258 564,258 564,258 564,257 564,257 564,257 565,257 565,256 565,256 565,256 565,255 565,255 565,255 565,254 565,254 565,253 565,253 565,253 565,252 566,252 566,252 566,252 566,252 566,251 566,251 566,251 566,251 566,250 566,250 566,250 566,250 566,249 567,249 567,249 567,248 567,248 567,248 567,249 567,249 567,249 567,249 567,249 567,250 567,250 567,250 568,250 568,251 568,251 568,251 568,252 568,252 568,253 568,253 568,254 568,254 568,254 568,254 568,253 569,253 569,253 569,253 569,253 569,253 569,253 569,253 569,253 569,253 569,253 569,254 569,254 569,254 570,254 570,254 570,254 570,254 570,254 570,254 570,254 570,254 570,254 570,254 570,253 570,253 570,252 571,252 571,251 571,250 571,250 571,249 571,248 571,248 571,247 571,246 571,246 571,245 571,245 571,245 572,244 572,244 572,243 572,243 572,243 572,242 572,242 572,242 572,242 572,241 572,241 572,241 572,241 573,241 573,241 573,241 573,241 573,241 573,241 573,241 573,241 573,241 573,241 573,241 573,241 573,241 574,241 574,241 574,242 574,242 574,242 574,243 574,243 574,243 574,243 574,243 574,244 574,244 574,245 575,245 575,246 575,247 575,247 575,247 575,248 575,248 575,249 575,249 575,250 575,250 575,251 575,251 576,252 576,253 576,253 576,254 576,255 576,256 576,257 576,258 576,259 576,260 576,262 576,263 576,265 577,266 577,267 577,268 577,270 577,271 577,272 577,272 577,273 577,273 577,273 577,272 577,272 577,271 578,271 578,271 578,270 578,270 578,270 578,270 578,269 578,269 578,268 578,268 578,268 578,268 578,268 579,268 579,268 579,268 579,268 579,268 579,268 579,268 579,268 579,268 579,268 579,269 579,269 579,270 580,270 580,271 580,271 580,271 580,272 580,272 580,272 580,273 580,273 580,273 580,274 580,274 580,274 581,275 581,275 581,276 581,276 581,276 581,276 581,276 581,276 581,276 581,276 581,276 581,276 582,276 582,276 582,276 582,276 582,276 582,276 582,276 582,277 582,277 582,277 582,277 582,276 582,276 583,276 583,275 583,274 583,273 583,273 583,273 583,273 583,272 583,272 583,272 583,272 583,272 583,272 584,272 584,272 584,272 584,272 584,272 584,273 584,273 584,273 584,273 584,273 584,273 584,273 584,273 585,273 585,274 585,274 585,275 585,275 585,276 585,276 585,277 585,277 585,278 585,278 585,278 585,278 586,278 586,278 586,278 586,279 586,279 586,278 586,278 586,278 586,278 586,278 586,278 586,278 586,278 587,278 587,278 587,277 587,277 587,277 587,276 587,276 587,275 587,275 587,274 587,273 587,272 587,271 588,270 588,270 588,269 588,268 588,267 588,266 588,266 588,265 588,264 588,264 588,263 588,262 588,262 589,261 589,261 589,260 589,260 589,260 589,259 589,259 589,259 589,259 589,258 589,258 589,258 589,258 590,258 590,258 590,258 590,258 590,258 590,257 590,257 590,257 590,257 590,257 590,257 590,257 590,256 591,256 591,256 591,256 591,255 591,255 591,254 591,254 591,253 591,253 591,252 591,251 591,251 591,250 592,249 592,248 592,247 592,247 592,246 592,245 592,245 592,244 592,244 592,244 592,243 592,243 592,243 593,243 593,243 593,243 593,243 593,243 593,243 593,243 593,243 593,243 593,243 593,243 593,243 593,243 594,243 594,243 594,243 594,243 594,243 594,243 594,242 594,242 594,241 594,241 594,241 594,241 594,240 595,240 595,240 595,240 595,240 595,240 595,240 595,240 595,240 595,240 595,240 595,240 595,239 595,239 596,239 596,239 596,239 596,239 596,239 596,239 596,238 596,238 596,238 596,238 596,238 596,238 596,238 597,238 597,238 597,238 597,237 597,237 597,237 597,237 597,237 597,237 597,237 597,237 597,237 597,238 598,238 598,238 598,238 598,238 598,238 598,239 598,239 598,239 598,239 598,239 598,240 598,240 598,240 599,240 599,240 599,241 599,241 599,241 599,241 599,242 599,242 599,242 599,242 599,243 599,243 599,243 600,243 600,244 600,244 600,244 600,244 600,244 600,244 600,245 600,245 600,245 600,245 600,245 600,245 601,245 601,246 601,246 601,246 601,246 601,246 601,246 601,246 601,246 601,247 601,247 601,247 601,247 602,247 602,247 602,247 602,248 602,248 602,248 602,248 602,248 602,248 602,248 602,249 602,249 602,249 603,249 603,250 603,250 603,250 603,250 603,251 603,251 603,251 603,251 603,251 603,252 603,252 603,252 604,252 604,253 604,253 604,253 604,254 604,254 604,254 604,255 604,255 604,255 604,255 604,255 604,255 605,255 605,254 605,254 605,254 605,254 605,254 605,254 605,253 605,253 605,253 605,252 605,252 605,252 606,251 606,251 606,251 606,250 606,250 606,250 606,250 606,250 606,250 606,250 606,249 606,249 606,249 607,249 607,249 607,249 607,249 607,249 607,249 607,249 607,249 607,249 607,250 607,250 607,251 607,251 608,250 608,250 608,250 608,249 608,250 608,250 608,250 608,250 608,250 608,250 608,250 608,250 608,250 609,250 609,250 609,250 609,250 609,251 609,251 609,251 609,251 609,251 609,251 609,251 609,251 609,252 610,252 610,252 610,252 610,253 610,253 610,253 610,253 610,253 610,253 610,254 610,254 610,254 610,254 611,254 611,254 611,254 611,254 611,255 611,255 611,255 611,255 611,256 611,256 611,257 611,257 611,257 612,258 612,258 612,259 612,259 612,260 612,260 612,261 612,261 612,261 612,262 612,262 612,262 612,262 613,262 613,263 613,263 613,263 613,263 613,263 613,263 613,263 613,264 613,264 613,264 613,263 614,263 614,263 614,263 614,263 614,262 614,262 614,262 614,261 614,261 614,261 614,261 614,260 614,260 615,260 615,260 615,260 615,260 615,260 615,260 615,260 615,260 615,260 615,260 615,260 615,260 615,260 616,260 616,260 616,260 616,260 616,260 616,260 616,260 616,260 616,260 616,261 616,261 616,261 616,261 617,261 617,261 617,261 617,261 617,261 617,261 617,261 617,261 617,261 617,261 617,261 617,261 617,261 618,261 618,261 618,261 618,262 618,262 618,262 618,262 618,262 618,263 618,263 618,263 618,263 618,263 619,263 619,263 619,263 619,263 619,262 619,262 619,262 619,262 619,262 619,262 619,262 619,262 619,261 620,261 620,261 620,262 620,262 620,262 620,262 620,262 620,262 620,262 620,262 620,263 620,263 620,263 621,264 621,264 621,265 621,265 621,266 621,266 621,267 621,267 621,267 621,266 621,266 621,266 621,265 622,264 622,264 622,263 622,263 622,262 622,262 622,262 622,261 622,261 622,261 622,261 622,261 622,261 623,261 623,261 623,261 623,260 623,260 623,260 623,260 623,260 623,260 623,260 623,260 623,260 623,260 624,260 624,260 624,260 624,260 624,260 624,260 624,260 624,260 624,261 624,261 624,261 624,261 624,261 625,261 625,261 625,261 625,261 625,261 625,261 625,261 625,261 625,261 625,261 625,261 625,261 625,261 626,261 626,261 626,262 626,262 626,262 626,262 626,263 626,263 626,263 626,263 626,264 626,264 626,264 627,264 627,264 627,264 627,264 627,264 627,264 627,264 627,264 627,264 627,264 627,264 627,264 627,264 628,264 628,264 628,263 628,263 628,263 628,263 628,263 628,262 628,262 628,262 628,262 628,261 628,261 629,261 629,260 629,260 629,260 629,259 629,259 629,258 629,258 629,257 629,257 629,257 629,257 629,257 630,257 630,258 630,258 630,258 630,258 630,259 630,259 630,259 630,259 630,259 630,260 630,260 630,260 631,260 631,261 631,261 631,261 631,262 631,262 631,262 631,263 631,263 631,264 631,264 631,265 631,266 632,267 632,268 632,269 632,270 632,271 632,272 632,273 632,273 632,274 632,275 632,276 632,277 632,277 633,278 633,278 633,279 633,279 633,280 633,280 633,280 633,281 633,281 633,281 633,282 633,282 633,282 634,283 634,283 634,283 634,283 634,284 634,284 634,284 634,284 634,284 634,284 634,285 634,285 634,285 635,285 635,286 635,286 635,286 635,286 635,286 635,286 635,286 635,287 635,287 635,287 635,287 635,288 636,288 636,288 636,289 636,289 636,290 636,290 636,290 636,291 636,291 636,291 636,291 636,291 636,291 637,291 637,292 637,292 637,292 637,292 637,292 637,292 637,292 637,292 637,292 637,292 637,292 637,292 638,292 638,292 638,292 638,292 638,292 638,292 638,293 638,293 638,293 638,293 638,293 638,293 638,293 639,293 639,293 639,293 639,293 639,293 639,293 639,293 639,293 639,293 639,293 639,293 639,293 639,293 640,293 640,293 640,294 640,294 640,294 640,294 640,294 640,294 640,295 640,295 640,295 640,295 640,295 641,295 641,295 641,295 641,295 641,295 641,295 641,295 641,295 641,295 641,295 641,295 641,295 641,295 642,295 642,295 642,295 642,295 642,295 642,295 642,295 642,295 642,295 642,295 642,295 642,294 642,294 643,293 643,293 643,293 643,292 643,292 643,291 643,291 643,290 643,290 643,289 643,289 643,288 643,287 644,287 644,287 644,286 644,286 644,286 644,285 644,285 644,285 644,284 644,284 644,284 644,283 644,283 645,283 645,282 645,282 645,282 645,281 645,281 645,281 645,281 645,280 645,280 645,280 645,279 646,279 646,279 646,279 646,279 646,279 646,279 646,278 646,278 646,278 646,278 646,279 646,279 646,278 647,278 647,278 647,278 647,278 647,278 647,278 647,278 647,278 647,278 647,278 647,278 647,278 647,278 648,278 648,278 648,278 648,277 648,277 648,277 648,277 648,277 648,277 648,278 648,278 648,278 648,278 649,278 649,278 649,278 649,279 649,279 649,279 649,279 649,280 649,280 649,280 649,280 649,280 649,281 650,281 650,281 650,281 650,282 650,282 650,282 650,283 650,283 650,283 650,284 650,284 650,284 650,285 651,285 651,286 651,286 651,286 651,286 651,287 651,287 651,287 651,287 651,287 651,287 651,287 651,288 652,288 652,288 652,288 652,288 652,288 652,288 652,288 652,288 652,289 652,289 652,289 652,289 652,289 653,290 653,290 653,290 653,290 653,291 653,291 653,291 653,291 653,291 653,292 653,292 653,292 653,293 654,293 654,293 654,294 654,294 654,295 654,295 654,295 654,296 654,296 654,297 654,298 654,298 654,299 655,299 655,299 655,299 655,299 655,299 655,299 655,299 655,300 655,300 655,300 655,300 655,301 655,301 656,301 656,302 656,302 656,302 656,303 656,303 656,304 656,304 656,305 656,305 656,306 656,306 656,307 657,307 657,307 657,308 657,308 657,309 657,309 657,309 657,310 657,310 657,310 657,311 657,311 657,310 658,310 658,310 658,310 658,310 658,310 658,310 658,310 658,310 658,310 658,310 658,310 658,310 658,309 659,309 659,309 659,309 659,309 659,309 659,308 659,308 659,308 659,308 659,308 659,308 659,308 659,308 660,308 660,308 660,308 660,308 660,308 660,307 660,307 660,306 660,306 660,305 660,305 660,304 660,304 661,304 661,303 661,303 661,302 661,302 661,301 661,301 661,300 661,300 661,299 661,299 661,298 661,298 662,297 662,297 662,297 662,297 662,297 662,297 662,297 662,297 662,297 662,297 662,298 662,298 662,298 663,299 663,299 663,299 663,300 663,301 663,301 663,302 663,303 663,303 663,304 663,305 663,306 663,306 664,307 664,308 664,309 664,310 664,311 664,312 664,312 664,313 664,314 664,314 664,315 664,315 664,315 665,315 665,315 665,315 665,315 665,315 665,315 665,315 665,315 665,315 665,316 665,316 665,316 665,316 666,316 666,316 666,317 666,317 666,317 666,317 666,317 666,317 666,317 666,317 666,317 666,317 666,317 667,317 667,317 667,317 667,317 667,317 667,317 667,318 667,318 667,318 667,318 667,319 667,319 667,320 668,320 668,321 668,321 668,322 668,323 668,323 668,322 668,321 668,321 668,320 668,320 668,320 668,320 669,320 669,319 669,319 669,318 669,318 669,317 669,317 669,316 669,316 669,316 669,315 669,315 669,315 670,314 670,314 670,314 670,314 670,313 670,313 670,313 670,313 670,313 670,313 670,312 670,312 670,312 671,312 671,312 671,312 671,312 671,311 671,311 671,311 671,311 671,311 671,311 671,310 671,310 671,310 672,310 672,310 672,310 672,310 672,309 672,309 672,309 672,309 672,309 672,309 672,309 672,309 672,309 673,309 673,308 673,308 673,308 673,308 673,308 673,308 673,308 673,308 673,308 673,308 673,307 673,307 674,307 674,307 674,307 674,307 674,307 674,307 674,306 674,306 674,306 674,306 674,306 674,307 674,307 675,307 675,307 675,307 675,308 675,308 675,308 675,309 675,309 675,309 675,310 675,310 675,310 675,310 676,310 676,311 676,311 676,311 676,311 676,311 676,311 676,312 676,312 676,312 676,311 676,311 677,311 677,311 677,311 677,311 677,311 677,310 677,310 677,310 677,310 677,310 677,310 677,310 677,309 678,309 678,309 678,309 678,309 678,309 678,309 678,309 678,309 678,309 678,309 678,309 678,309 678,309 679,309 679,309 679,309 679,309 679,309 679,309 679,309 679,309 679,309 679,309 679,309 679,309 679,309 680,308 680,308 680,308 680,308 680,308 680,308 680,308 680,308 680,308 680,308 680,308 680,308 680,308 681,308 681,307 681,307 681,307 681,307 681,307 681,307 681,307 681,307 681,307 681,306 681,306 681,306 682,306 682,306 682,306 682,305 682,305 682,305 682,305 682,305 682,305 682,305 682,304 682,304 682,304 683,304 683,304 683,304 683,304 683,304 683,303 683,303 683,303 683,303 683,303 683,303 683,303 683,302 684,302 684,302 684,302 684,302 684,301 684,301 684,301 684,301 684,301 684,301 684,301 684,300 684,300 685,300 685,300 685,300 685,300 685,300 685,300 685,300 685,300 685,300 685,300 685,300 685,300 685,301 686,301 686,301 686,301 686,301 686,301 686,301 686,301 686,301 686,301 686,301 686,300 686,300 686,300 687,300 687,300 687,300 687,300 687,300 687,300 687,300 687,300 687,300 687,300 687,300 687,300 687,300 688,299 688,299 688,299 688,299 688,299 688,299 688,299 688,299 688,299 688,299 688,299 688,299 688,299 689,299 689,299 689,299 689,299 689,299 689,299 689,299 689,299 689,298 689,298 689,298 689,298 689,298 690,298 690,298 690,298 690,298 690,298 690,298 690,298 690,298 690,298 690,298 690,297 690,297 690,297 691,297 691,297 691,297 691,297 691,297 691,297 691,297 691,297 691,297 691,297 691,297 691,297 691,297 692,297 692,296 692,296 692,296 692,296 692,296 692,296 692,296 692,296 692,296 692,296 692,296 692,296 693,296 693,296 693,296 693,296 693,295 693,295 693,295 693,295 693,295 693,295 693,295 693,295 693,295 694,295 694,295 694,295 694,295 694,295 694,295 694,294 694,294 694,294 694,294 694,294 694,294 694,294 695,294 695,294 695,294 695,294 695,294 695,294 695,294 695,294 695,294 695,294 695,293 695,293 695,293 696,293 696,293 696,293 696,293 696,293 696,293 696,293 696,293 696,293 696,293 696,292 696,292 696,292 697,292 697,292 697,292 697,292 697,292 697,292 697,292 697,292 697,291 697,291 697,291 697,291 697,291 698,291 698,291 698,291 698,291 698,290 698,290 698,290 698,290 698,290 698,290 698,290 698,290 698,290 699,289 699,289 699,289 699,289 699,289 699,289 699,289 699,289 699,289 699,288 699,288 699,288 699,288 700,288 700,288 700,288 700,288 700,287 700,287 700,287 700,287 700,287 700,287 700,287 700,287 700,287 701,286 701,286 701,286 701,286 701,286 701,286 701,286 701,286 701,285 701,285 701,285 701,285 701,285 702,285 702,285 702,284 702,284 702,284 702,284 702,283 702,283 702,283 702,283 702,282 702,282 702,282 703,281 703,281 703,280 703,280 703,280 703,279 703,279 703,278 703,278 703,278 703,278 703,277 703,277 704,277 704,277 704,276 704,277 704,277 704,277 704,276 704,276 704,276 704,276 704,276 704,276 704,275 705,275 705,275 705,275 705,275 705,275 705,275 705,275 705,274 705,274 705,274 705,273 705,273 705,273 706,273 706,273 706,273 706,273 706,273 706,273 706,273 706,273 706,272 706,272 706,272 706,271 706,271 707,271 707,271 707,270 707,270 707,270 707,270 707,269 707,269 707,269 707,269 707,268 707,268 707,268 708,267 708,267 708,267 708,266 708,266 708,266 708,265 708,265 708,265 708,265 708,265 708,266 709,266 709,266 709,266 709,266 709,266 709,266 709,266 709,266 709,266 709,266 709,266 709,265 709,265 710,265 710,264 710,263 710,263 710,262 710,262 710,261 710,261 710,260 710,260 710,260 710,260 710,260 711,259 711,259 711,259 711,259 711,259 711,259 711,259 711,259 711,259 711,259 711,260 711,260 711,260 712,259 712,259 712,259 712,258 712,258 712,257 712,257 712,256 712,256 712,256 712,255 712,255 712,255 713,255 713,254 713,254 713,254 713,254 713,254 713,254 713,254 713,254 713,254 713,254 713,254 713,254 714,255 714,255 714,256 714,257 714,258 714,258 714,259 714,260 714,261 714,262 714,262 714,263 714,264 715,263 715,262 715,262 715,261 715,261 715,260 715,259 715,258 715,257 715,257 715,256 715,255 715,255 716,254 716,254 716,253 716,253 716,253 716,253 716,252 716,252 716,252 716,251 716,251 716,251 716,251 717,251 717,250 717,250 717,250 717,250 717,250 717,250 717,250 717,249 717,249 717,249 717,249 717,249 718,249 718,249 718,249 718,248 718,248 718,248 718,248 718,248 718,248 718,248 718,248 718,248 718,248 719,247 719,247 719,247 719,247 719,247 719,247 719,247 719,247 719,247 719,247 719,247 719,247 719,247 720,247 720,247 720,247 720,247 720,247 720,247 720,247 720,247 720,247 720,247 720,247 720,247 720,247 721,247 721,247 721,247 721,248 721,248 721,248 721,248 721,248 721,248 721,248 721,248 721,248 721,248 722,248 722,248 722,248 722,248 722,249 722,249 722,249 722,249 722,249 722,249 722,249 722,249 722,249 723,249 723,249 723,249 723,249 723,249 723,249 723,249 723,250 723,250 723,250 723,250 723,250 723,250 724,250 724,250 724,250 724,250 724,250 724,250 724,250 724,250 724,251 724,251 724,251 724,251 724,251 725,251 725,251 725,251 725,251 725,251 725,251 725,251 725,251 725,252 725,252 725,252 725,252 725,252 726,252 726,252 726,252 726,252 726,253 726,253 726,253 726,253 726,253 726,253 726,253 726,253 726,253 727,253 727,253 727,253 727,253 727,253 727,254 727,254 727,254 727,254 727,254 727,254 727,254 727,255 728,255 728,255 728,255 728,255 728,255 728,255 728,255 728,255 728,255 728,255 728,255 728,255 728,255 729,255 729,255 729,255 729,256 729,256 729,256 729,256 729,256 729,256 729,256 729,256 729,257 729,257 730,257 730,257 730,257 730,257 730,257 730,257 730,257 730,257 730,258 730,258 730,258 730,258 730,258 731,258 731,259 731,259 731,259 731,259 731,259 731,259 731,260 731,260 731,260 731,260 731,260 731,260 732,260 732,261 732,261 732,261 732,261 732,261 732,261 732,262 732,262 732,262 732,262 732,262 732,262 733,262 733,262 733,262 733,262 733,262 733,262 733,262 733,263 733,263 733,263 733,263 733,263 733,263 734,263 734,264 734,264 734,264 734,264 734,264 734,264 734,264 734,264 734,264 734,264 734,264 734,264 735,264 735,264 735,264 735,264 735,264 735,265 735,265 735,265 735,265 735,265 735,265 735,265 735,265 736,265 736,265 736,265 736,265 736,265 736,265 736,265 736,265 736,265 736,265 736,265 " vector-effect="non-scaling-stroke"></polyline>
</g></svg>