<?xml version="1.0" encoding="UTF-8" standalone="no"?><svg width="282.222mm" height="141.111mm" xmlns="http://www.w3.org/2000/svg" xmlns:xlink="http://www.w3.org/1999/xlink"  version="1.2" baseProfile="tiny"><g fill="none" stroke="#ff0000" stroke-linecap="round" stroke-linejoin="round" stroke-opacity="1" stroke-width="1.5" transform="matrix(1,0,0,1,0,0)">
<polyline fill="none" points="59,253 60,253 60,252 60,252 60,251 60,251 60,251 60,250 60,250 60,249 60,249 60,248 60,248 60,247 61,247 61,246 61,246 61,245 61,245 61,244 61,243 61,242 61,241 61,241 61,240 61,239 61,238 62,237 62,236 62,235 62,235 62,234 62,233 62,232 62,232 62,231 62,230 62,229 62,228 62,227 63,226 63,225 63,225 63,224 63,223 63,223 63,222 63,221 63,221 63,220 63,220 63,219 63,219 64,219 64,219 64,219 64,218 64,218 64,217 64,217 64,217 64,217 64,216 64,216 64,216 64,216 65,216 65,216 65,216 65,216 65,216 65,216 65,216 65,216 65,216 65,216 65,216 65,216 65,216 66,216 66,216 66,216 66,215 66,215 66,215 66,215 66,215 66,214 66,214 66,214 66,214 66,214 67,213 67,213 67,212 67,211 67,211 67,210 67,210 67,209 67,209 67,209 67,209 67,208 67,208 68,207 68,207 68,207 68,206 68,206 68,206 68,206 68,205 68,205 68,204 68,204 68,204 68,203 69,203 69,203 69,202 69,202 69,202 69,202 69,201 69,201 69,201 69,201 69,201 69,200 69,200 70,200 70,200 70,200 70,200 70,200 70,200 70,200 70,200 70,200 70,200 70,200 70,200 70,200 71,200 71,200 71,200 71,200 71,200 71,199 71,199 71,199 71,199 71,198 71,198 71,198 72,198 72,198 72,197 72,197 72,197 72,197 72,197 72,196 72,196 72,196 72,196 72,196 72,195 73,195 73,195 73,195 73,194 73,194 73,194 73,193 73,193 73,193 73,193 73,192 73,192 73,192 74,191 74,191 74,191 74,191 74,190 74,190 74,190 74,190 74,190 74,190 74,189 74,189 74,189 75,189 75,189 75,189 75,189 75,189 75,189 75,189 75,189 75,189 75,189 75,188 75,188 75,188 76,187 76,187 76,186 76,186 76,186 76,186 76,186 76,186 76,187 76,187 76,188 76,189 76,190 77,191 77,191 77,193 77,193 77,194 77,194 77,195 77,195 77,195 77,196 77,197 77,197 77,197 78,198 78,198 78,199 78,199 78,200 78,200 78,201 78,201 78,201 78,202 78,202 78,202 78,202 79,201 79,201 79,201 79,201 79,200 79,200 79,200 79,200 79,200 79,200 79,199 79,200 79,200 80,200 80,200 80,200 80,200 80,200 80,200 80,200 80,201 80,201 80,201 80,201 80,201 80,201 81,201 81,201 81,201 81,201 81,200 81,200 81,200 81,200 81,199 81,199 81,199 81,199 81,198 82,197 82,197 82,196 82,196 82,196 82,195 82,195 82,195 82,195 82,195 82,195 82,195 82,195 83,195 83,195 83,195 83,195 83,195 83,195 83,195 83,195 83,195 83,195 83,195 83,195 83,196 84,196 84,196 84,196 84,196 84,196 84,196 84,196 84,196 84,196 84,196 84,196 84,196 84,196 85,196 85,196 85,195 85,195 85,195 85,195 85,195 85,195 85,195 85,195 85,196 85,196 85,196 86,196 86,196 86,196 86,196 86,196 86,196 86,196 86,196 86,196 86,196 86,195 86,195 86,195 87,195 87,195 87,195 87,195 87,194 87,194 87,194 87,194 87,194 87,194 87,194 87,194 87,194 88,194 88,194 88,194 88,194 88,194 88,194 88,194 88,194 88,194 88,194 88,194 88,194 88,194 89,195 89,195 89,195 89,195 89,195 89,195 89,195 89,195 89,195 89,195 89,195 89,195 89,196 90,196 90,196 90,196 90,196 90,196 90,196 90,196 90,197 90,197 90,198 90,198 90,198 90,199 91,199 91,200 91,200 91,201 91,201 91,202 91,202 91,203 91,203 91,204 91,204 91,205 91,205 92,206 92,206 92,206 92,207 92,207 92,208 92,209 92,209 92,210 92,210 92,210 92,211 92,211 93,212 93,212 93,212 93,213 93,213 93,214 93,214 93,215 93,215 93,216 93,216 93,217 93,218 94,218 94,219 94,219 94,220 94,220 94,220 94,221 94,220 94,220 94,220 94,220 94,220 94,220 95,220 95,220 95,220 95,219 95,219 95,218 95,218 95,217 95,217 95,216 95,216 95,215 95,214 96,214 96,213 96,212 96,211 96,210 96,209 96,208 96,207 96,207 96,206 96,205 96,205 96,204 97,204 97,203 97,202 97,202 97,201 97,201 97,200 97,200 97,200 97,200 97,199 97,199 97,199 98,199 98,199 98,199 98,199 98,199 98,199 98,198 98,199 98,199 98,199 98,199 98,199 98,199 99,199 99,199 99,199 99,199 99,199 99,199 99,198 99,198 99,198 99,197 99,197 99,197 99,196 100,196 100,196 100,196 100,195 100,195 100,195 100,195 100,194 100,194 100,194 100,194 100,194 101,194 101,194 101,194 101,194 101,194 101,194 101,195 101,195 101,196 101,196 101,196 101,197 101,197 102,198 102,198 102,199 102,199 102,200 102,200 102,201 102,201 102,201 102,202 102,202 102,203 102,203 103,203 103,204 103,205 103,205 103,205 103,206 103,206 103,207 103,207 103,208 103,208 103,209 103,209 104,210 104,210 104,211 104,211 104,212 104,212 104,213 104,213 104,214 104,214 104,215 104,216 104,217 105,217 105,217 105,218 105,218 105,219 105,219 105,220 105,220 105,221 105,221 105,221 105,222 105,222 106,223 106,223 106,224 106,224 106,225 106,225 106,226 106,226 106,227 106,228 106,228 106,229 106,229 107,230 107,230 107,230 107,231 107,231 107,231 107,231 107,232 107,232 107,233 107,233 107,233 107,234 108,234 108,234 108,234 108,235 108,235 108,235 108,235 108,235 108,235 108,235 108,236 108,236 108,236 109,236 109,236 109,236 109,235 109,235 109,235 109,235 109,235 109,235 109,235 109,234 109,234 109,233 110,233 110,233 110,231 110,231 110,231 110,230 110,230 110,230 110,230 110,230 110,230 110,230 110,230 111,230 111,230 111,230 111,230 111,230 111,230 111,230 111,230 111,230 111,230 111,229 111,229 111,229 112,229 112,229 112,229 112,229 112,228 112,228 112,228 112,228 112,228 112,228 112,227 112,227 112,227 113,227 113,226 113,226 113,226 113,225 113,225 113,224 113,224 113,224 113,223 113,223 113,223 113,223 114,223 114,223 114,223 114,223 114,223 114,223 114,224 114,224 114,224 114,224 114,224 114,224 114,225 115,225 115,225 115,225 115,226 115,226 115,226 115,227 115,227 115,227 115,227 115,227 115,227 115,228 116,228 116,228 116,228 116,228 116,228 116,228 116,229 116,229 116,229 116,230 116,230 116,231 116,231 117,232 117,232 117,233 117,234 117,234 117,235 117,236 117,236 117,237 117,238 117,238 117,239 117,239 118,239 118,239 118,238 118,238 118,237 118,237 118,237 118,237 118,237 118,237 118,237 118,237 118,236 119,236 119,236 119,236 119,236 119,236 119,236 119,236 119,236 119,235 119,235 119,235 119,235 119,235 120,234 120,234 120,234 120,234 120,234 120,234 120,234 120,234 120,234 120,233 120,233 120,233 120,233 121,233 121,233 121,233 121,233 121,233 121,233 121,233 121,233 121,233 121,233 121,233 121,233 121,233 122,233 122,233 122,233 122,233 122,232 122,232 122,232 122,231 122,231 122,231 122,230 122,230 122,229 123,229 123,229 123,229 123,228 123,228 123,227 123,226 123,226 123,225 123,225 123,224 123,224 123,223 124,223 124,222 124,222 124,221 124,221 124,220 124,220 124,219 124,219 124,219 124,218 124,218 124,217 125,217 125,217 125,217 125,217 125,217 125,217 125,217 125,217 125,217 125,217 125,217 125,217 125,217 126,218 126,218 126,218 126,219 126,219 126,220 126,221 126,221 126,222 126,222 126,223 126,224 126,224 127,225 127,226 127,226 127,227 127,227 127,228 127,228 127,229 127,229 127,229 127,229 127,230 127,230 128,231 128,232 128,232 128,233 128,234 128,234 128,235 128,235 128,236 128,236 128,236 128,237 128,237 129,237 129,236 129,236 129,236 129,236 129,236 129,235 129,235 129,235 129,234 129,234 129,233 130,232 130,232 130,231 130,230 130,229 130,228 130,227 130,227 130,226 130,225 130,224 130,223 130,222 131,221 131,221 131,220 131,219 131,219 131,218 131,217 131,216 131,215 131,214 131,213 131,212 131,211 132,210 132,208 132,207 132,207 132,206 132,205 132,205 132,204 132,203 132,203 132,203 132,202 132,202 133,202 133,201 133,201 133,200 133,200 133,200 133,200 133,200 133,199 133,199 133,199 133,199 133,199 134,199 134,199 134,199 134,199 134,199 134,199 134,199 134,198 134,198 134,198 134,198 134,198 134,199 135,199 135,199 135,199 135,199 135,199 135,199 135,199 135,198 135,198 135,198 135,198 135,198 135,197 136,197 136,197 136,197 136,197 136,196 136,196 136,196 136,196 136,196 136,195 136,195 136,195 136,194 137,194 137,194 137,194 137,194 137,194 137,194 137,194 137,194 137,193 137,193 137,193 137,193 137,193 138,193 138,193 138,193 138,193 138,193 138,193 138,193 138,193 138,193 138,193 138,193 138,193 138,193 139,192 139,192 139,192 139,192 139,192 139,192 139,192 139,192 139,192 139,192 139,192 139,192 139,192 140,192 140,192 140,192 140,192 140,192 140,192 140,192 140,192 140,192 140,192 140,192 140,192 140,192 141,193 141,193 141,193 141,193 141,193 141,193 141,193 141,193 141,193 141,193 141,194 141,194 141,194 142,194 142,194 142,194 142,194 142,194 142,194 142,194 142,194 142,194 142,194 142,194 142,194 142,193 143,193 143,193 143,193 143,193 143,193 143,192 143,192 143,192 143,192 143,192 143,192 143,192 143,192 144,192 144,192 144,192 144,193 144,193 144,194 144,194 144,195 144,195 144,196 144,196 144,197 144,198 145,199 145,199 145,199 145,200 145,200 145,201 145,202 145,202 145,203 145,203 145,204 145,205 145,205 146,206 146,206 146,207 146,207 146,208 146,208 146,209 146,209 146,210 146,210 146,211 146,211 146,212 147,212 147,212 147,213 147,213 147,213 147,214 147,214 147,214 147,215 147,215 147,215 147,216 147,217 148,217 148,218 148,218 148,217 148,217 148,217 148,217 148,216 148,215 148,215 148,215 148,215 148,214 149,214 149,214 149,214 149,214 149,214 149,214 149,214 149,215 149,215 149,215 149,215 149,215 149,215 150,215 150,215 150,215 150,215 150,215 150,215 150,215 150,215 150,215 150,214 150,214 150,214 150,214 151,214 151,214 151,214 151,213 151,213 151,213 151,213 151,213 151,213 151,213 151,212 151,212 151,212 152,212 152,212 152,213 152,213 152,214 152,214 152,215 152,214 152,215 152,216 152,217 152,217 152,218 153,219 153,220 153,221 153,222 153,224 153,225 153,226 153,227 153,228 153,229 153,229 153,229 153,228 154,228 154,228 154,228 154,228 154,228 154,226 154,225 154,224 154,223 154,222 154,221 154,221 154,220 155,219 155,218 155,218 155,217 155,216 155,216 155,215 155,215 155,214 155,213 155,212 155,211 155,211 156,211 156,211 156,210 156,210 156,210 156,210 156,209 156,208 156,208 156,207 156,207 156,206 156,206 157,206 157,205 157,205 157,205 157,205 157,205 157,205 157,205 157,205 157,206 157,205 157,205 157,205 158,205 158,205 158,205 158,205 158,206 158,206 158,206 158,207 158,207 158,206 158,206 158,206 159,207 159,208 159,208 159,209 159,210 159,211 159,212 159,213 159,214 159,215 159,215 159,216 159,217 160,217 160,217 160,217 160,218 160,219 160,220 160,220 160,221 160,221 160,222 160,223 160,223 160,224 161,224 161,224 161,225 161,225 161,225 161,226 161,226 161,226 161,227 161,227 161,227 161,227 161,228 162,228 162,228 162,229 162,229 162,229 162,229 162,230 162,230 162,230 162,230 162,231 162,231 162,231 163,232 163,232 163,232 163,233 163,233 163,234 163,234 163,235 163,235 163,236 163,236 163,237 163,238 164,239 164,240 164,241 164,242 164,243 164,244 164,245 164,246 164,247 164,248 164,249 164,249 164,250 165,250 165,251 165,252 165,252 165,252 165,252 165,252 165,252 165,252 165,252 165,251 165,250 165,249 166,248 166,248 166,247 166,246 166,245 166,244 166,243 166,241 166,240 166,239 166,237 166,237 166,236 167,236 167,235 167,235 167,234 167,234 167,235 167,236 167,237 167,237 167,238 167,238 167,238 167,239 168,239 168,239 168,240 168,240 168,240 168,240 168,240 168,241 168,241 168,241 168,241 168,241 168,241 169,241 169,241 169,241 169,241 169,241 169,242 169,242 169,242 169,243 169,243 169,243 169,244 169,245 170,245 170,245 170,246 170,246 170,245 170,245 170,246 170,246 170,246 170,246 170,247 170,248 170,248 171,248 171,248 171,248 171,248 171,248 171,249 171,249 171,249 171,250 171,250 171,250 171,250 171,250 172,250 172,250 172,250 172,250 172,250 172,250 172,250 172,250 172,250 172,250 172,250 172,250 172,250 173,250 173,250 173,250 173,250 173,250 173,250 173,250 173,250 173,249 173,249 173,249 173,249 173,248 174,248 174,247 174,247 174,246 174,246 174,246 174,245 174,245 174,244 174,244 174,244 174,243 174,243 175,242 175,242 175,241 175,241 175,240 175,240 175,240 175,239 175,239 175,239 175,239 175,239 175,238 176,238 176,238 176,238 176,238 176,238 176,237 176,237 176,237 176,237 176,237 176,237 176,237 176,237 177,237 177,236 177,236 177,236 177,236 177,236 177,236 177,236 177,235 177,235 177,235 177,235 177,235 178,234 178,234 178,234 178,233 178,233 178,233 178,232 178,232 178,232 178,232 178,231 178,231 178,231 179,231 179,231 179,231 179,230 179,230 179,230 179,230 179,230 179,230 179,230 179,230 179,229 179,229 180,229 180,229 180,229 180,229 180,229 180,229 180,229 180,229 180,228 180,228 180,227 180,227 180,227 181,226 181,226 181,225 181,224 181,224 181,223 181,223 181,222 181,222 181,222 181,221 181,221 181,221 182,220 182,220 182,220 182,219 182,219 182,219 182,219 182,220 182,220 182,220 182,221 182,221 182,221 183,221 183,221 183,220 183,220 183,220 183,220 183,220 183,220 183,220 183,220 183,221 183,221 183,221 184,221 184,222 184,222 184,222 184,223 184,222 184,223 184,223 184,224 184,224 184,225 184,225 184,225 185,226 185,226 185,226 185,225 185,225 185,224 185,223 185,223 185,223 185,222 185,222 185,221 185,221 186,220 186,220 186,220 186,220 186,220 186,220 186,220 186,219 186,219 186,219 186,218 186,218 186,218 187,218 187,217 187,217 187,217 187,217 187,217 187,216 187,216 187,216 187,216 187,216 187,216 188,216 188,216 188,216 188,216 188,216 188,216 188,216 188,216 188,216 188,215 188,215 188,215 188,215 189,216 189,217 189,217 189,217 189,217 189,217 189,217 189,217 189,216 189,216 189,216 189,216 189,216 190,215 190,215 190,215 190,214 190,214 190,214 190,213 190,213 190,213 190,213 190,212 190,212 190,212 191,212 191,211 191,210 191,209 191,208 191,207 191,206 191,205 191,204 191,203 191,203 191,202 191,201 192,201 192,200 192,199 192,198 192,197 192,197 192,196 192,195 192,194 192,194 192,193 192,192 192,191 193,191 193,190 193,190 193,189 193,188 193,188 193,187 193,187 193,186 193,186 193,185 193,184 193,184 194,183 194,182 194,182 194,181 194,180 194,179 194,178 194,178 194,178 194,177 194,177 194,176 194,176 195,176 195,176 195,176 195,175 195,175 195,175 195,175 195,175 195,175 195,175 195,175 195,174 195,174 196,174 196,174 196,174 196,174 196,174 196,174 196,174 196,174 196,174 196,174 196,174 196,174 196,174 197,173 197,173 197,173 197,173 197,173 197,172 197,172 197,172 197,172 197,172 197,172 197,173 197,173 198,174 198,174 198,175 198,175 198,175 198,175 198,175 198,174 198,175 198,174 198,174 198,173 198,173 199,173 199,172 199,172 199,171 199,170 199,170 199,170 199,169 199,169 199,169 199,169 199,170 199,170 200,170 200,170 200,170 200,170 200,170 200,170 200,170 200,170 200,170 200,170 200,170 200,170 200,170 201,170 201,170 201,170 201,170 201,171 201,171 201,171 201,171 201,172 201,172 201,172 201,173 201,173 202,174 202,174 202,174 202,175 202,175 202,176 202,177 202,178 202,179 202,179 202,180 202,180 202,180 203,181 203,181 203,181 203,182 203,182 203,183 203,184 203,184 203,185 203,185 203,186 203,186 203,187 204,187 204,187 204,188 204,188 204,189 204,189 204,190 204,190 204,191 204,191 204,192 204,192 204,192 205,192 205,192 205,192 205,193 205,193 205,193 205,193 205,192 205,192 205,191 205,190 205,190 205,189 206,188 206,187 206,185 206,184 206,184 206,183 206,182 206,182 206,182 206,182 206,181 206,180 206,179 207,179 207,178 207,179 207,179 207,179 207,179 207,178 207,178 207,178 207,178 207,179 207,179 207,179 208,179 208,178 208,178 208,178 208,178 208,178 208,178 208,179 208,179 208,180 208,181 208,182 208,183 209,184 209,185 209,186 209,186 209,187 209,188 209,189 209,190 209,189 209,189 209,189 209,188 209,189 210,189 210,189 210,189 210,189 210,189 210,189 210,189 210,189 210,189 210,189 210,189 210,189 210,189 211,189 211,189 211,190 211,190 211,191 211,192 211,193 211,193 211,194 211,195 211,195 211,196 211,197 212,197 212,198 212,198 212,199 212,200 212,200 212,201 212,201 212,202 212,203 212,203 212,204 212,204 213,205 213,205 213,206 213,206 213,205 213,204 213,204 213,203 213,201 213,200 213,199 213,198 213,197 214,196 214,195 214,195 214,195 214,194 214,194 214,194 214,194 214,194 214,194 214,194 214,194 214,195 215,195 215,195 215,195 215,195 215,195 215,195 215,195 215,195 215,195 215,195 215,195 215,195 215,195 216,196 216,196 216,197 216,197 216,197 216,198 216,199 216,200 216,201 216,202 216,203 216,204 217,205 217,206 217,206 217,207 217,208 217,208 217,209 217,209 217,210 217,211 217,211 217,212 217,212 218,213 218,213 218,214 218,214 218,214 218,215 218,215 218,215 218,216 218,216 218,216 218,217 218,217 219,217 219,217 219,217 219,218 219,218 219,218 219,218 219,218 219,218 219,218 219,218 219,217 219,218 220,219 220,220 220,221 220,222 220,223 220,224 220,225 220,227 220,228 220,230 220,231 220,232 220,233 221,234 221,236 221,237 221,238 221,239 221,241 221,242 221,244 221,245 221,246 221,246 221,247 221,247 222,246 222,246 222,247 222,246 222,246 222,245 222,245 222,244 222,244 222,244 222,243 222,242 222,241 223,240 223,239 223,238 223,238 223,237 223,237 223,237 223,236 223,236 223,236 223,236 223,235 223,235 224,235 224,235 224,235 224,234 224,234 224,234 224,234 224,234 224,234 224,233 224,233 224,233 224,233 225,233 225,232 225,232 225,232 225,231 225,231 225,231 225,231 225,231 225,231 225,232 225,232 225,233 226,233 226,233 226,233 226,233 226,233 226,233 226,233 226,233 226,233 226,233 226,233 226,233 226,234 227,234 227,235 227,235 227,236 227,236 227,236 227,237 227,237 227,237 227,238 227,238 227,239 227,239 228,239 228,239 228,240 228,240 228,240 228,239 228,239 228,238 228,237 228,236 228,236 228,235 228,235 229,234 229,234 229,233 229,233 229,233 229,233 229,233 229,233 229,233 229,233 229,233 229,233 229,233 230,232 230,232 230,232 230,232 230,232 230,231 230,230 230,230 230,229 230,229 230,228 230,228 230,228 231,228 231,228 231,228 231,228 231,227 231,227 231,227 231,227 231,226 231,226 231,226 231,226 231,226 232,226 232,226 232,226 232,226 232,226 232,226 232,226 232,226 232,226 232,226 232,226 232,226 232,225 233,225 233,226 233,226 233,226 233,225 233,225 233,224 233,224 233,223 233,223 233,222 233,222 233,221 234,220 234,220 234,220 234,219 234,219 234,218 234,218 234,217 234,217 234,217 234,217 234,217 234,217 235,217 235,217 235,217 235,217 235,217 235,218 235,218 235,218 235,218 235,218 235,218 235,218 235,218 236,218 236,218 236,218 236,218 236,218 236,218 236,218 236,219 236,219 236,219 236,219 236,219 236,219 237,219 237,219 237,220 237,222 237,222 237,223 237,224 237,225 237,225 237,224 237,224 237,223 237,223 238,222 238,222 238,221 238,221 238,220 238,220 238,219 238,218 238,218 238,217 238,216 238,216 238,216 239,216 239,216 239,216 239,216 239,216 239,215 239,215 239,215 239,215 239,215 239,215 239,215 239,215 240,215 240,215 240,214 240,214 240,214 240,214 240,214 240,213 240,213 240,213 240,213 240,214 240,214 241,214 241,213 241,213 241,213 241,214 241,214 241,215 241,215 241,215 241,215 241,215 241,215 241,215 242,214 242,214 242,213 242,213 242,212 242,212 242,211 242,211 242,211 242,210 242,210 242,209 242,209 243,209 243,208 243,208 243,208 243,207 243,207 243,206 243,206 243,206 243,205 243,205 243,204 243,204 244,204 244,203 244,203 244,203 244,202 244,202 244,202 244,202 244,202 244,201 244,201 244,202 244,202 245,202 245,202 245,202 245,202 245,202 245,202 245,202 245,202 245,202 245,202 245,202 245,202 246,202 246,203 246,203 246,203 246,203 246,203 246,203 246,203 246,203 246,203 246,203 246,203 246,203 247,203 247,203 247,203 247,203 247,203 247,202 247,203 247,203 247,203 247,203 247,203 247,204 247,204 248,203 248,204 248,204 248,204 248,204 248,204 248,205 248,205 248,205 248,205 248,205 248,205 248,206 249,206 249,206 249,206 249,206 249,206 249,206 249,206 249,205 249,205 249,205 249,204 249,203 249,203 250,202 250,202 250,201 250,201 250,200 250,200 250,199 250,199 250,198 250,198 250,197 250,197 250,196 251,196 251,196 251,195 251,195 251,195 251,195 251,195 251,195 251,194 251,195 251,195 251,195 251,195 252,196 252,196 252,196 252,197 252,197 252,198 252,198 252,198 252,198 252,198 252,197 252,197 252,196 253,195 253,195 253,194 253,193 253,193 253,192 253,192 253,192 253,191 253,191 253,190 253,190 253,189 254,189 254,189 254,189 254,188 254,188 254,188 254,188 254,187 254,187 254,187 254,187 254,186 254,186 255,186 255,186 255,186 255,186 255,186 255,186 255,185 255,185 255,185 255,185 255,185 255,184 255,184 256,184 256,183 256,183 256,183 256,183 256,182 256,182 256,182 256,182 256,181 256,181 256,181 256,181 257,181 257,181 257,181 257,181 257,181 257,180 257,180 257,180 257,180 257,180 257,180 257,180 257,180 258,180 258,180 258,180 258,180 258,180 258,179 258,179 258,179 258,179 258,179 258,179 258,179 258,179 259,179 259,179 259,179 259,179 259,179 259,179 259,179 259,179 259,180 259,180 259,180 259,180 259,180 260,180 260,180 260,180 260,180 260,180 260,180 260,180 260,180 260,179 260,179 260,179 260,179 260,179 261,179 261,179 261,179 261,179 261,179 261,179 261,179 261,179 261,179 261,179 261,179 261,179 261,180 262,180 262,180 262,180 262,180 262,180 262,180 262,180 262,180 262,180 262,180 262,180 262,180 262,180 263,180 263,180 263,181 263,181 263,181 263,181 263,181 263,181 263,182 263,182 263,182 263,182 263,182 264,183 264,183 264,183 264,183 264,184 264,184 264,184 264,184 264,185 264,185 264,185 264,186 264,186 265,186 265,186 265,187 265,187 265,187 265,187 265,187 265,188 265,188 265,188 265,188 265,188 265,188 266,189 266,189 266,189 266,189 266,189 266,189 266,189 266,189 266,189 266,190 266,190 266,190 266,191 267,191 267,191 267,191 267,191 267,191 267,191 267,192 267,192 267,192 267,192 267,192 267,192 267,193 268,193 268,193 268,193 268,193 268,193 268,193 268,194 268,194 268,194 268,194 268,194 268,194 268,194 269,194 269,194 269,193 269,193 269,193 269,192 269,192 269,192 269,192 269,192 269,192 269,192 269,192 270,191 270,191 270,191 270,191 270,191 270,192 270,192 270,193 270,193 270,193 270,194 270,194 270,194 271,194 271,194 271,194 271,194 271,194 271,195 271,195 271,195 271,195 271,196 271,196 271,196 271,196 272,197 272,197 272,197 272,198 272,198 272,198 272,198 272,199 272,199 272,199 272,199 272,199 272,198 273,198 273,198 273,198 273,197 273,197 273,197 273,197 273,196 273,196 273,195 273,195 273,195 273,194 274,194 274,194 274,193 274,193 274,193 274,193 274,192 274,192 274,192 274,192 274,192 274,192 275,192 275,192 275,192 275,192 275,192 275,193 275,193 275,193 275,193 275,193 275,193 275,193 275,193 276,194 276,194 276,194 276,194 276,194 276,194 276,194 276,194 276,195 276,195 276,195 276,196 276,196 277,196 277,196 277,196 277,196 277,196 277,196 277,195 277,195 277,195 277,195 277,195 277,194 277,194 278,194 278,194 278,194 278,194 278,194 278,194 278,194 278,193 278,193 278,193 278,194 278,194 278,193 279,193 279,194 279,194 279,194 279,194 279,194 279,194 279,195 279,195 279,195 279,196 279,196 279,196 280,196 280,196 280,196 280,196 280,196 280,196 280,196 280,197 280,197 280,197 280,197 280,197 280,197 281,198 281,198 281,198 281,198 281,198 281,198 281,198 281,198 281,198 281,198 281,198 281,198 281,197 282,197 282,197 282,197 282,197 282,197 282,196 282,196 282,196 282,196 282,195 282,195 282,195 282,195 283,195 283,195 283,195 283,195 283,194 283,194 283,194 283,194 283,194 283,194 283,194 283,194 283,194 284,194 284,194 284,193 284,193 284,193 284,193 284,193 284,193 284,193 284,193 284,193 284,193 284,193 285,193 285,193 285,193 285,193 285,193 285,193 285,193 285,193 285,193 285,192 285,192 285,192 285,192 286,192 286,192 286,191 286,191 286,191 286,191 286,191 286,191 286,190 286,190 286,190 286,189 286,189 287,189 287,189 287,189 287,188 287,188 287,188 287,188 287,188 287,188 287,188 287,187 287,187 287,187 288,187 288,187 288,187 288,187 288,187 288,187 288,186 288,186 288,186 288,187 288,187 288,187 288,187 289,186 289,187 289,187 289,187 289,187 289,187 289,187 289,187 289,187 289,187 289,187 289,187 289,188 290,188 290,188 290,188 290,188 290,188 290,188 290,188 290,188 290,188 290,188 290,188 290,188 290,188 291,188 291,188 291,188 291,188 291,188 291,188 291,188 291,188 291,188 291,188 291,188 291,188 291,187 292,187 292,187 292,187 292,187 292,187 292,186 292,186 292,186 292,186 292,186 292,186 292,185 292,185 293,185 293,185 293,185 293,185 293,184 293,184 293,184 293,184 293,184 293,184 293,184 293,184 293,184 294,184 294,184 294,184 294,184 294,184 294,184 294,184 294,184 294,184 294,183 294,184 294,184 294,184 295,184 295,184 295,184 295,184 295,185 295,185 295,185 295,185 295,185 295,185 295,185 295,185 295,185 296,185 296,186 296,186 296,186 296,186 296,186 296,187 296,187 296,187 296,187 296,187 296,187 296,187 297,187 297,187 297,187 297,187 297,187 297,187 297,187 297,187 297,187 297,187 297,187 297,187 297,187 298,187 298,187 298,187 298,188 298,188 298,188 298,188 298,188 298,188 298,188 298,188 298,188 298,188 299,188 299,188 299,188 299,188 299,188 299,188 299,187 299,187 299,187 299,187 299,187 299,187 299,187 300,186 300,186 300,186 300,186 300,186 300,186 300,185 300,185 300,185 300,185 300,184 300,184 300,184 301,184 301,184 301,183 301,183 301,183 301,182 301,182 301,182 301,182 301,182 301,182 301,182 301,182 302,181 302,181 302,181 302,181 302,181 302,181 302,181 302,181 302,181 302,181 302,181 302,181 302,181 303,181 303,181 303,181 303,181 303,181 303,181 303,182 303,182 303,182 303,182 303,182 303,182 304,182 304,182 304,181 304,181 304,182 304,182 304,182 304,182 304,182 304,183 304,183 304,183 304,183 305,183 305,184 305,184 305,184 305,184 305,184 305,184 305,185 305,185 305,185 305,185 305,186 305,186 306,186 306,186 306,187 306,187 306,187 306,188 306,188 306,188 306,188 306,188 306,188 306,189 306,189 307,189 307,189 307,189 307,190 307,190 307,190 307,190 307,190 307,191 307,191 307,191 307,191 307,191 308,191 308,191 308,191 308,192 308,192 308,192 308,193 308,193 308,193 308,194 308,194 308,194 308,194 309,194 309,195 309,195 309,195 309,195 309,195 309,195 309,195 309,195 309,195 309,195 309,195 309,195 310,195 310,196 310,196 310,196 310,196 310,196 310,196 310,196 310,196 310,196 310,196 310,196 310,196 311,196 311,196 311,197 311,197 311,197 311,197 311,197 311,197 311,197 311,197 311,197 311,197 311,198 312,198 312,198 312,198 312,198 312,198 312,198 312,198 312,198 312,198 312,198 312,198 312,198 312,198 313,198 313,199 313,199 313,198 313,198 313,198 313,198 313,198 313,197 313,197 313,197 313,197 313,196 314,196 314,196 314,196 314,195 314,195 314,195 314,195 314,195 314,194 314,194 314,194 314,194 314,194 315,194 315,193 315,193 315,193 315,193 315,193 315,193 315,193 315,193 315,192 315,192 315,192 315,192 316,192 316,192 316,192 316,193 316,193 316,193 316,193 316,193 316,193 316,193 316,193 316,193 316,193 317,192 317,192 317,192 317,192 317,192 317,192 317,192 317,192 317,192 317,192 317,192 317,192 317,192 318,192 318,192 318,192 318,192 318,192 318,192 318,192 318,192 318,192 318,192 318,192 318,192 318,192 319,193 319,193 319,193 319,193 319,193 319,193 319,193 319,193 319,193 319,193 319,193 319,193 319,193 320,193 320,193 320,193 320,193 320,193 320,193 320,193 320,193 320,193 320,193 320,193 320,193 320,193 321,193 321,193 321,193 321,192 321,192 321,192 321,192 321,192 321,192 321,192 321,192 321,192 321,192 322,192 322,192 322,192 322,192 322,192 322,192 322,192 322,192 322,192 322,192 322,192 322,192 322,192 323,192 323,192 323,192 323,192 323,192 323,192 323,192 323,192 323,192 323,192 323,192 323,192 323,192 324,192 324,192 324,192 324,192 324,192 324,192 324,192 324,192 324,192 324,192 324,192 324,191 324,191 325,191 325,192 325,192 325,192 325,192 325,192 325,192 325,192 325,192 325,192 325,192 325,193 325,193 326,193 326,193 326,193 326,193 326,192 326,192 326,192 326,192 326,192 326,192 326,192 326,193 326,193 327,193 327,193 327,193 327,193 327,193 327,193 327,193 327,193 327,193 327,193 327,192 327,192 327,192 328,192 328,192 328,192 328,192 328,192 328,192 328,192 328,192 328,192 328,191 328,191 328,191 328,191 329,191 329,191 329,191 329,191 329,191 329,191 329,190 329,191 329,191 329,191 329,191 329,191 329,191 330,191 330,190 330,190 330,190 330,189 330,189 330,189 330,188 330,188 330,187 330,187 330,187 330,187 331,186 331,186 331,186 331,186 331,186 331,186 331,186 331,185 331,185 331,185 331,185 331,185 331,185 332,185 332,185 332,185 332,185 332,186 332,186 332,186 332,186 332,186 332,186 332,186 332,187 333,187 333,187 333,186 333,186 333,186 333,186 333,186 333,185 333,185 333,185 333,185 333,185 333,185 334,185 334,185 334,185 334,184 334,184 334,184 334,184 334,184 334,184 334,183 334,183 334,183 334,183 335,183 335,183 335,183 335,182 335,182 335,182 335,182 335,182 335,182 335,182 335,182 335,182 335,182 336,181 336,181 336,181 336,181 336,181 336,180 336,180 336,180 336,180 336,180 336,180 336,180 336,180 337,180 337,180 337,180 337,180 337,180 337,180 337,180 337,180 337,180 337,180 337,180 337,180 337,180 338,180 338,180 338,179 338,179 338,179 338,179 338,179 338,179 338,179 338,179 338,179 338,179 338,179 339,179 339,179 339,180 339,180 339,180 339,180 339,180 339,180 339,180 339,180 339,181 339,181 339,181 340,181 340,181 340,181 340,181 340,181 340,181 340,181 340,181 340,181 340,182 340,182 340,182 340,183 341,183 341,183 341,182 341,182 341,182 341,182 341,182 341,182 341,182 341,181 341,181 341,181 341,181 342,181 342,181 342,181 342,180 342,180 342,180 342,180 342,180 342,180 342,180 342,179 342,180 342,180 343,180 343,180 343,180 343,180 343,179 343,179 343,179 343,179 343,179 343,179 343,180 343,180 343,180 344,180 344,180 344,179 344,179 344,179 344,179 344,179 344,178 344,178 344,178 344,177 344,177 344,176 345,176 345,176 345,176 345,175 345,175 345,174 345,174 345,174 345,173 345,173 345,173 345,172 345,172 346,172 346,171 346,171 346,170 346,170 346,170 346,169 346,169 346,168 346,168 346,168 346,167 346,167 347,166 347,165 347,165 347,164 347,164 347,164 347,163 347,163 347,162 347,162 347,162 347,162 347,161 348,161 348,161 348,160 348,160 348,160 348,160 348,160 348,160 348,160 348,160 348,160 348,160 348,160 349,160 349,160 349,160 349,160 349,160 349,160 349,160 349,160 349,160 349,160 349,160 349,160 349,160 350,160 350,160 350,161 350,160 350,160 350,160 350,160 350,159 350,159 350,159 350,159 350,159 350,159 351,159 351,159 351,159 351,159 351,159 351,159 351,159 351,159 351,159 351,159 351,159 351,159 351,159 352,159 352,159 352,159 352,159 352,159 352,159 352,159 352,159 352,159 352,159 352,159 352,159 352,159 353,159 353,159 353,159 353,159 353,159 353,159 353,160 353,160 353,160 353,161 353,162 353,162 353,163 354,163 354,163 354,163 354,164 354,164 354,164 354,164 354,164 354,164 354,164 354,164 354,164 354,164 355,163 355,163 355,162 355,162 355,162 355,161 355,161 355,160 355,160 355,159 355,159 355,159 355,158 356,158 356,157 356,157 356,156 356,156 356,155 356,155 356,155 356,154 356,154 356,153 356,153 356,153 357,152 357,152 357,151 357,151 357,150 357,150 357,149 357,149 357,148 357,148 357,148 357,148 357,147 358,147 358,147 358,146 358,146 358,146 358,145 358,145 358,145 358,145 358,145 358,145 358,145 358,145 359,145 359,145 359,145 359,145 359,145 359,145 359,145 359,145 359,146 359,146 359,146 359,146 359,146 360,146 360,146 360,146 360,146 360,146 360,146 360,146 360,146 360,146 360,145 360,145 360,145 360,145 361,145 361,145 361,145 361,145 361,145 361,145 361,145 361,145 361,145 361,145 361,145 361,145 362,145 362,145 362,145 362,145 362,145 362,145 362,145 362,145 362,145 362,146 362,146 362,146 362,146 363,146 363,147 363,147 363,147 363,147 363,147 363,147 363,147 363,147 363,147 363,147 363,147 363,147 364,147 364,147 364,147 364,147 364,147 364,147 364,147 364,147 364,147 364,146 364,146 364,146 364,146 365,146 365,146 365,145 365,145 365,145 365,145 365,145 365,145 365,145 365,144 365,144 365,144 365,144 366,144 366,143 366,143 366,143 366,143 366,143 366,142 366,142 366,142 366,141 366,141 366,141 366,141 367,140 367,140 367,140 367,139 367,139 367,139 367,138 367,138 367,138 367,138 367,137 367,137 367,137 368,137 368,136 368,136 368,136 368,136 368,135 368,135 368,135 368,135 368,135 368,135 368,134 368,134 369,134 369,134 369,134 369,134 369,134 369,134 369,134 369,134 369,135 369,135 369,135 369,135 369,135 370,136 370,136 370,136 370,136 370,136 370,136 370,136 370,136 370,135 370,135 370,134 370,134 370,134 371,136 371,137 371,139 371,140 371,141 371,142 371,144 371,145 371,145 371,145 371,145 371,146 371,147 372,148 372,148 372,149 372,149 372,150 372,151 372,151 372,152 372,152 372,153 372,154 372,154 372,154 373,155 373,155 373,155 373,155 373,155 373,156 373,156 373,157 373,157 373,158 373,158 373,159 373,160 374,161 374,161 374,161 374,161 374,161 374,161 374,161 374,161 374,162 374,162 374,162 374,162 374,162 375,162 375,162 375,162 375,162 375,163 375,163 375,163 375,163 375,163 375,163 375,163 375,163 375,163 376,163 376,163 376,163 376,163 376,163 376,162 376,162 376,162 376,162 376,162 376,163 376,163 376,163 377,163 377,163 377,163 377,163 377,163 377,163 377,163 377,163 377,163 377,163 377,163 377,163 377,163 378,163 378,163 378,164 378,164 378,164 378,164 378,164 378,164 378,164 378,164 378,164 378,164 378,164 379,164 379,164 379,164 379,164 379,164 379,164 379,163 379,164 379,165 379,165 379,166 379,167 379,168 380,168 380,169 380,169 380,170 380,170 380,170 380,171 380,171 380,171 380,171 380,171 380,171 380,171 381,171 381,171 381,171 381,171 381,172 381,172 381,172 381,172 381,172 381,172 381,172 381,172 381,172 382,172 382,173 382,173 382,174 382,174 382,174 382,175 382,175 382,175 382,175 382,176 382,176 382,176 383,177 383,177 383,177 383,177 383,177 383,178 383,178 383,178 383,178 383,178 383,178 383,178 383,178 384,178 384,178 384,178 384,178 384,178 384,179 384,179 384,179 384,179 384,179 384,179 384,179 384,179 385,179 385,179 385,179 385,179 385,179 385,179 385,179 385,179 385,179 385,179 385,180 385,180 385,180 386,180 386,180 386,180 386,180 386,180 386,180 386,180 386,181 386,181 386,181 386,181 386,181 386,181 387,181 387,182 387,182 387,182 387,182 387,182 387,182 387,182 387,182 387,182 387,182 387,182 387,182 388,183 388,183 388,183 388,183 388,183 388,183 388,184 388,184 388,184 388,184 388,184 388,184 388,185 389,185 389,185 389,186 389,186 389,186 389,187 389,187 389,188 389,188 389,188 389,189 389,190 389,190 390,191 390,191 390,192 390,193 390,193 390,194 390,194 390,195 390,195 390,195 390,196 390,196 390,196 391,196 391,196 391,196 391,196 391,196 391,196 391,196 391,196 391,197 391,197 391,197 391,197 392,197 392,197 392,197 392,197 392,197 392,197 392,197 392,197 392,197 392,196 392,196 392,196 392,196 393,196 393,196 393,196 393,195 393,195 393,195 393,195 393,195 393,195 393,195 393,195 393,194 393,194 394,194 394,194 394,194 394,194 394,194 394,194 394,194 394,194 394,194 394,194 394,194 394,194 394,194 395,194 395,194 395,194 395,194 395,194 395,194 395,194 395,194 395,195 395,195 395,195 395,195 395,195 396,195 396,195 396,195 396,195 396,195 396,195 396,195 396,195 396,195 396,195 396,196 396,196 396,196 397,196 397,196 397,196 397,196 397,196 397,196 397,197 397,197 397,196 397,196 397,196 397,197 397,197 398,197 398,197 398,197 398,197 398,196 398,196 398,196 398,196 398,196 398,196 398,196 398,196 398,196 399,196 399,196 399,195 399,195 399,195 399,195 399,195 399,195 399,195 399,195 399,195 399,195 399,195 400,194 400,194 400,194 400,194 400,194 400,194 400,194 400,194 400,193 400,193 400,193 400,193 400,193 401,193 401,193 401,193 401,193 401,192 401,192 401,192 401,192 401,192 401,191 401,191 401,191 401,191 402,191 402,191 402,191 402,190 402,190 402,190 402,190 402,189 402,189 402,189 402,189 402,189 402,189 403,188 403,188 403,188 403,187 403,187 403,187 403,187 403,187 403,186 403,186 403,186 403,186 403,186 404,186 404,186 404,185 404,185 404,185 404,185 404,185 404,185 404,185 404,185 404,185 404,186 404,186 405,186 405,186 405,186 405,187 405,186 405,186 405,186 405,186 405,186 405,187 405,187 405,187 405,187 406,187 406,188 406,188 406,188 406,188 406,188 406,188 406,189 406,189 406,189 406,189 406,189 406,189 407,189 407,189 407,189 407,189 407,189 407,189 407,189 407,189 407,189 407,189 407,189 407,189 407,189 408,189 408,189 408,189 408,189 408,189 408,189 408,189 408,189 408,189 408,190 408,190 408,190 408,190 409,190 409,190 409,190 409,190 409,190 409,190 409,190 409,190 409,191 409,191 409,191 409,191 409,191 410,191 410,191 410,191 410,192 410,192 410,192 410,192 410,192 410,192 410,192 410,192 410,192 410,192 411,192 411,192 411,192 411,192 411,192 411,192 411,192 411,191 411,191 411,191 411,191 411,191 411,191 412,191 412,191 412,190 412,190 412,190 412,191 412,191 412,191 412,191 412,191 412,191 412,191 412,191 413,191 413,191 413,191 413,191 413,191 413,191 413,191 413,191 413,191 413,191 413,191 413,191 413,191 414,191 414,191 414,191 414,191 414,191 414,191 414,192 414,192 414,192 414,192 414,192 414,192 414,192 415,192 415,192 415,192 415,191 415,191 415,191 415,190 415,190 415,190 415,190 415,189 415,189 415,188 416,188 416,188 416,188 416,188 416,188 416,188 416,188 416,188 416,188 416,187 416,187 416,187 416,187 417,187 417,187 417,187 417,187 417,187 417,187 417,186 417,186 417,186 417,186 417,185 417,185 417,185 418,186 418,186 418,186 418,185 418,184 418,184 418,184 418,184 418,184 418,184 418,183 418,183 418,184 419,183 419,183 419,183 419,183 419,183 419,183 419,183 419,182 419,182 419,182 419,182 419,182 419,182 420,182 420,182 420,182 420,182 420,182 420,182 420,182 420,183 420,183 420,183 420,183 420,183 421,183 421,184 421,184 421,185 421,185 421,185 421,186 421,186 421,186 421,186 421,187 421,187 421,187 422,187 422,188 422,188 422,188 422,189 422,189 422,190 422,190 422,190 422,190 422,191 422,191 422,192 423,192 423,192 423,193 423,193 423,193 423,193 423,193 423,194 423,194 423,194 423,194 423,194 423,194 424,194 424,194 424,195 424,195 424,195 424,196 424,196 424,196 424,196 424,196 424,196 424,196 424,197 425,197 425,197 425,197 425,198 425,198 425,198 425,198 425,198 425,198 425,199 425,199 425,199 425,199 426,199 426,199 426,199 426,199 426,199 426,200 426,200 426,200 426,200 426,200 426,200 426,200 426,200 427,200 427,200 427,200 427,201 427,201 427,201 427,201 427,201 427,201 427,201 427,201 427,201 427,201 428,201 428,202 428,202 428,202 428,202 428,202 428,202 428,202 428,202 428,202 428,202 428,202 428,202 429,202 429,202 429,202 429,202 429,202 429,203 429,203 429,203 429,203 429,203 429,203 429,203 429,203 430,203 430,203 430,203 430,203 430,203 430,203 430,203 430,203 430,203 430,203 430,203 430,203 430,203 431,203 431,203 431,203 431,203 431,203 431,203 431,203 431,203 431,203 431,203 431,203 431,203 431,203 432,203 432,203 432,203 432,203 432,203 432,203 432,203 432,204 432,204 432,204 432,204 432,203 432,203 433,203 433,203 433,203 433,203 433,202 433,202 433,202 433,202 433,202 433,201 433,201 433,201 433,201 434,201 434,200 434,200 434,200 434,200 434,200 434,200 434,200 434,200 434,200 434,200 434,200 434,200 435,200 435,200 435,200 435,200 435,200 435,200 435,200 435,199 435,199 435,198 435,198 435,198 435,198 436,198 436,198 436,198 436,198 436,198 436,198 436,198 436,198 436,198 436,198 436,198 436,198 436,198 437,198 437,198 437,198 437,198 437,198 437,198 437,198 437,198 437,198 437,198 437,198 437,198 437,198 438,197 438,197 438,197 438,197 438,197 438,196 438,196 438,196 438,196 438,196 438,195 438,195 438,195 439,195 439,194 439,195 439,195 439,195 439,195 439,194 439,193 439,192 439,192 439,191 439,191 439,191 440,191 440,191 440,191 440,191 440,191 440,191 440,190 440,190 440,190 440,190 440,190 440,190 440,190 441,190 441,190 441,190 441,190 441,190 441,190 441,190 441,190 441,190 441,190 441,190 441,190 441,190 442,191 442,191 442,191 442,191 442,191 442,191 442,191 442,192 442,192 442,192 442,192 442,193 442,193 443,193 443,193 443,193 443,194 443,194 443,194 443,194 443,194 443,194 443,194 443,194 443,195 443,195 444,195 444,195 444,195 444,195 444,195 444,195 444,195 444,195 444,195 444,195 444,195 444,195 444,195 445,195 445,195 445,195 445,195 445,195 445,194 445,194 445,194 445,194 445,194 445,193 445,193 445,193 446,193 446,193 446,192 446,192 446,192 446,192 446,192 446,192 446,191 446,191 446,191 446,191 446,191 447,190 447,190 447,190 447,190 447,190 447,190 447,190 447,189 447,189 447,189 447,189 447,189 447,189 448,189 448,188 448,188 448,188 448,188 448,187 448,187 448,187 448,187 448,186 448,186 448,185 448,185 449,185 449,184 449,184 449,184 449,183 449,183 449,183 449,182 449,182 449,182 449,181 449,181 450,181 450,181 450,181 450,181 450,181 450,181 450,181 450,181 450,181 450,181 450,181 450,181 450,182 451,182 451,182 451,183 451,183 451,184 451,184 451,185 451,185 451,186 451,186 451,187 451,187 451,188 452,188 452,189 452,189 452,189 452,189 452,190 452,190 452,190 452,191 452,191 452,191 452,192 452,192 453,192 453,193 453,193 453,193 453,194 453,194 453,194 453,194 453,194 453,194 453,195 453,195 453,195 454,195 454,195 454,195 454,195 454,195 454,195 454,196 454,196 454,196 454,196 454,196 454,197 454,197 455,197 455,197 455,197 455,198 455,199 455,200 455,201 455,201 455,201 455,201 455,201 455,201 455,200 456,200 456,200 456,201 456,201 456,201 456,201 456,201 456,201 456,202 456,202 456,202 456,203 456,203 457,203 457,204 457,204 457,204 457,204 457,204 457,204 457,204 457,204 457,204 457,204 457,204 457,204 458,204 458,203 458,203 458,203 458,203 458,202 458,202 458,202 458,202 458,202 458,201 458,201 458,201 459,201 459,201 459,201 459,201 459,201 459,200 459,200 459,200 459,200 459,200 459,200 459,200 459,200 460,200 460,200 460,200 460,199 460,199 460,199 460,198 460,198 460,198 460,197 460,197 460,197 460,197 461,197 461,197 461,196 461,196 461,196 461,196 461,196 461,196 461,195 461,195 461,195 461,195 461,195 462,195 462,195 462,195 462,194 462,194 462,194 462,194 462,194 462,194 462,193 462,193 462,193 462,193 463,193 463,193 463,193 463,193 463,193 463,193 463,192 463,192 463,192 463,192 463,192 463,192 463,192 464,192 464,192 464,192 464,192 464,192 464,192 464,192 464,193 464,193 464,193 464,193 464,193 464,193 465,193 465,193 465,193 465,193 465,193 465,193 465,193 465,193 465,193 465,194 465,194 465,194 465,194 466,194 466,194 466,194 466,194 466,194 466,194 466,194 466,194 466,194 466,194 466,194 466,194 466,194 467,194 467,194 467,194 467,194 467,194 467,194 467,195 467,195 467,196 467,196 467,196 467,196 467,195 468,195 468,195 468,195 468,195 468,195 468,195 468,195 468,194 468,194 468,194 468,194 468,194 468,194 469,194 469,194 469,193 469,193 469,193 469,193 469,193 469,193 469,193 469,193 469,193 469,192 469,192 470,192 470,192 470,192 470,192 470,192 470,191 470,191 470,191 470,191 470,191 470,191 470,191 470,191 471,191 471,191 471,191 471,190 471,190 471,190 471,190 471,190 471,190 471,190 471,190 471,189 471,189 472,189 472,189 472,189 472,189 472,189 472,188 472,188 472,188 472,188 472,188 472,188 472,188 472,187 473,187 473,187 473,187 473,187 473,186 473,186 473,186 473,186 473,186 473,186 473,185 473,185 473,185 474,185 474,185 474,184 474,184 474,184 474,184 474,184 474,184 474,184 474,183 474,183 474,183 474,183 475,183 475,182 475,182 475,182 475,182 475,182 475,181 475,181 475,181 475,181 475,180 475,180 475,180 476,180 476,180 476,179 476,179 476,179 476,179 476,179 476,179 476,179 476,180 476,180 476,180 476,180 477,180 477,181 477,181 477,181 477,181 477,181 477,182 477,183 477,183 477,183 477,184 477,184 477,185 478,185 478,185 478,185 478,185 478,186 478,187 478,187 478,188 478,188 478,188 478,189 478,189 479,190 479,190 479,190 479,191 479,191 479,192 479,192 479,193 479,193 479,194 479,194 479,195 479,195 480,196 480,196 480,196 480,197 480,198 480,198 480,199 480,199 480,200 480,200 480,200 480,200 480,200 481,200 481,200 481,201 481,201 481,201 481,201 481,202 481,202 481,202 481,203 481,203 481,203 481,204 482,204 482,204 482,204 482,204 482,204 482,204 482,205 482,205 482,205 482,205 482,204 482,204 482,204 483,204 483,204 483,203 483,203 483,203 483,203 483,203 483,202 483,202 483,202 483,202 483,202 483,202 484,201 484,201 484,201 484,201 484,201 484,201 484,201 484,201 484,200 484,200 484,200 484,201 484,201 485,201 485,201 485,201 485,201 485,201 485,201 485,201 485,201 485,201 485,201 485,201 485,202 485,202 486,202 486,202 486,202 486,202 486,202 486,203 486,203 486,203 486,203 486,203 486,203 486,203 486,204 487,204 487,205 487,205 487,205 487,205 487,204 487,205 487,205 487,206 487,206 487,206 487,206 487,207 488,207 488,207 488,207 488,208 488,208 488,208 488,208 488,208 488,208 488,208 488,208 488,208 488,208 489,208 489,208 489,208 489,208 489,209 489,208 489,208 489,208 489,208 489,208 489,208 489,208 489,207 490,207 490,207 490,207 490,207 490,207 490,207 490,206 490,206 490,206 490,206 490,206 490,206 490,206 491,206 491,205 491,205 491,205 491,205 491,205 491,205 491,205 491,205 491,204 491,204 491,204 491,204 492,204 492,204 492,204 492,204 492,204 492,205 492,205 492,205 492,206 492,206 492,206 492,207 492,207 493,207 493,208 493,208 493,209 493,210 493,210 493,211 493,211 493,212 493,212 493,212 493,212 493,213 494,213 494,213 494,213 494,213 494,213 494,213 494,213 494,213 494,213 494,212 494,212 494,212 494,212 495,212 495,211 495,211 495,211 495,211 495,210 495,210 495,210 495,210 495,210 495,210 495,210 495,210 496,210 496,210 496,209 496,209 496,209 496,209 496,209 496,209 496,210 496,210 496,210 496,210 496,210 497,211 497,211 497,211 497,211 497,212 497,212 497,212 497,212 497,212 497,213 497,213 497,214 497,214 498,215 498,215 498,215 498,216 498,216 498,216 498,217 498,217 498,217 498,217 498,217 498,218 498,218 499,218 499,218 499,219 499,219 499,220 499,220 499,220 499,221 499,221 499,222 499,222 499,222 499,223 500,223 500,224 500,224 500,225 500,226 500,226 500,227 500,227 500,227 500,228 500,228 500,228 500,228 501,229 501,229 501,229 501,229 501,230 501,230 501,230 501,230 501,230 501,229 501,229 501,229 501,229 502,228 502,228 502,227 502,227 502,226 502,225 502,224 502,223 502,223 502,223 502,223 502,222 502,222 503,222 503,222 503,222 503,221 503,221 503,221 503,221 503,221 503,221 503,221 503,221 503,221 503,221 504,221 504,221 504,221 504,221 504,222 504,222 504,223 504,223 504,224 504,224 504,224 504,224 504,224 505,224 505,224 505,225 505,225 505,225 505,225 505,225 505,226 505,226 505,226 505,226 505,226 505,226 506,227 506,227 506,227 506,227 506,227 506,228 506,228 506,227 506,227 506,227 506,227 506,228 506,228 507,228 507,229 507,229 507,229 507,229 507,229 507,229 507,229 507,230 507,230 507,230 507,230 508,231 508,231 508,231 508,231 508,232 508,232 508,232 508,233 508,233 508,233 508,233 508,233 508,233 509,233 509,232 509,232 509,232 509,232 509,232 509,232 509,231 509,231 509,231 509,231 509,231 509,231 510,231 510,231 510,231 510,231 510,231 510,231 510,231 510,232 510,232 510,232 510,232 510,232 510,232 511,232 511,232 511,232 511,232 511,232 511,232 511,232 511,232 511,232 511,232 511,232 511,232 511,232 512,231 512,231 512,231 512,231 512,232 512,233 512,234 512,234 512,234 512,234 512,235 512,234 512,233 513,232 513,231 513,229 513,228 513,227 513,226 513,225 513,223 513,222 513,221 513,219 513,218 513,217 514,216 514,215 514,214 514,214 514,213 514,212 514,211 514,211 514,210 514,210 514,209 514,209 514,208 515,208 515,208 515,207 515,207 515,207 515,207 515,207 515,207 515,207 515,207 515,207 515,207 515,207 516,207 516,208 516,208 516,208 516,208 516,209 516,209 516,209 516,209 516,209 516,210 516,210 516,211 517,211 517,212 517,212 517,213 517,214 517,214 517,215 517,215 517,216 517,216 517,217 517,217 517,218 518,218 518,219 518,219 518,220 518,220 518,221 518,221 518,221 518,222 518,222 518,222 518,223 518,223 519,223 519,223 519,223 519,222 519,222 519,222 519,222 519,221 519,221 519,221 519,221 519,220 519,220 520,220 520,219 520,219 520,218 520,218 520,218 520,217 520,217 520,217 520,217 520,216 520,216 520,216 521,216 521,216 521,216 521,216 521,216 521,216 521,216 521,216 521,216 521,217 521,217 521,217 521,218 522,218 522,218 522,219 522,219 522,220 522,220 522,220 522,221 522,221 522,221 522,222 522,222 522,222 523,222 523,223 523,223 523,223 523,223 523,223 523,224 523,224 523,224 523,224 523,224 523,224 523,223 524,223 524,223 524,223 524,223 524,223 524,223 524,223 524,222 524,222 524,222 524,222 524,222 524,222 525,221 525,221 525,221 525,221 525,220 525,220 525,220 525,219 525,219 525,219 525,218 525,218 525,217 526,217 526,216 526,216 526,215 526,215 526,214 526,213 526,213 526,212 526,212 526,212 526,211 526,211 527,210 527,210 527,210 527,209 527,209 527,208 527,208 527,207 527,207 527,206 527,206 527,206 527,206 528,206 528,205 528,205 528,205 528,205 528,205 528,204 528,204 528,204 528,204 528,204 528,204 528,204 529,204 529,204 529,204 529,203 529,203 529,203 529,203 529,203 529,203 529,203 529,202 529,202 529,202 530,202 530,202 530,202 530,201 530,201 530,201 530,201 530,201 530,201 530,201 530,201 530,201 530,201 531,201 531,200 531,200 531,200 531,200 531,200 531,200 531,199 531,199 531,199 531,199 531,199 531,199 532,199 532,199 532,199 532,199 532,199 532,199 532,199 532,199 532,199 532,198 532,198 532,198 532,198 533,198 533,198 533,198 533,199 533,199 533,199 533,199 533,199 533,199 533,199 533,199 533,200 533,200 534,200 534,200 534,200 534,200 534,201 534,201 534,201 534,201 534,201 534,202 534,202 534,202 534,202 535,202 535,203 535,203 535,203 535,203 535,203 535,204 535,204 535,204 535,204 535,204 535,205 535,205 536,205 536,205 536,206 536,206 536,206 536,206 536,207 536,207 536,207 536,207 536,207 536,208 537,208 537,208 537,208 537,208 537,208 537,209 537,209 537,209 537,209 537,209 537,209 537,210 537,210 538,210 538,210 538,210 538,210 538,210 538,210 538,210 538,210 538,211 538,211 538,211 538,211 538,211 539,211 539,211 539,211 539,211 539,211 539,211 539,211 539,211 539,212 539,212 539,212 539,212 539,212 540,212 540,212 540,212 540,212 540,212 540,212 540,213 540,213 540,213 540,213 540,213 540,213 540,213 541,214 541,214 541,214 541,214 541,214 541,215 541,215 541,215 541,215 541,215 541,216 541,216 541,216 542,216 542,217 542,217 542,217 542,217 542,217 542,218 542,218 542,218 542,218 542,219 542,219 542,219 543,219 543,219 543,219 543,219 543,219 543,220 543,220 543,220 543,220 543,220 543,221 543,221 543,221 544,222 544,222 544,222 544,223 544,223 544,223 544,224 544,224 544,224 544,225 544,225 544,225 544,226 545,226 545,227 545,227 545,227 545,227 545,228 545,228 545,229 545,229 545,230 545,230 545,230 545,231 546,231 546,232 546,232 546,233 546,233 546,233 546,234 546,234 546,235 546,235 546,235 546,236 546,236 547,237 547,237 547,237 547,238 547,238 547,238 547,239 547,239 547,239 547,240 547,240 547,240 547,241 548,241 548,241 548,241 548,241 548,242 548,242 548,242 548,242 548,242 548,242 548,242 548,242 548,242 549,243 549,242 549,242 549,242 549,242 549,242 549,242 549,242 549,242 549,242 549,242 549,241 549,241 550,241 550,240 550,240 550,240 550,240 550,239 550,239 550,239 550,239 550,239 550,239 550,238 550,238 551,238 551,238 551,238 551,237 551,237 551,237 551,237 551,237 551,237 551,236 551,236 551,236 551,236 552,236 552,237 552,237 552,237 552,237 552,238 552,238 552,239 552,239 552,239 552,240 552,240 552,240 553,241 553,241 553,242 553,242 553,242 553,243 553,243 553,244 553,245 553,245 553,246 553,246 553,247 554,247 554,248 554,248 554,249 554,249 554,250 554,250 554,250 554,250 554,250 554,250 554,250 554,250 555,250 555,251 555,251 555,251 555,251 555,251 555,251 555,251 555,251 555,251 555,252 555,252 555,252 556,252 556,252 556,252 556,252 556,252 556,252 556,252 556,253 556,253 556,253 556,254 556,254 556,254 557,255 557,255 557,255 557,256 557,256 557,256 557,256 557,256 557,255 557,255 557,255 557,254 557,253 558,252 558,250 558,249 558,248 558,247 558,246 558,245 558,245 558,245 558,245 558,245 558,245 558,245 559,245 559,245 559,244 559,244 559,244 559,244 559,244 559,244 559,244 559,243 559,243 559,243 559,243 560,243 560,244 560,244 560,244 560,245 560,246 560,246 560,247 560,247 560,247 560,248 560,248 560,248 561,248 561,248 561,248 561,248 561,248 561,248 561,248 561,247 561,247 561,247 561,247 561,246 561,246 562,246 562,247 562,247 562,247 562,247 562,247 562,247 562,247 562,246 562,246 562,246 562,246 562,247 563,247 563,247 563,247 563,248 563,248 563,248 563,249 563,249 563,249 563,249 563,248 563,248 563,248 564,247 564,247 564,247 564,247 564,246 564,246 564,246 564,245 564,245 564,245 564,245 564,245 564,245 565,246 565,246 565,246 565,246 565,246 565,247 565,247 565,247 565,247 565,247 565,246 565,247 566,247 566,247 566,247 566,248 566,248 566,249 566,250 566,250 566,251 566,251 566,252 566,253 566,253 567,254 567,254 567,255 567,255 567,255 567,256 567,256 567,256 567,257 567,257 567,258 567,258 567,258 568,259 568,259 568,260 568,260 568,261 568,261 568,262 568,262 568,263 568,263 568,263 568,263 568,263 569,263 569,263 569,262 569,262 569,262 569,262 569,262 569,262 569,263 569,263 569,263 569,264 569,264 570,264 570,265 570,265 570,266 570,266 570,267 570,267 570,267 570,268 570,268 570,268 570,269 570,270 571,270 571,271 571,271 571,272 571,273 571,273 571,274 571,274 571,275 571,275 571,276 571,276 571,277 572,278 572,278 572,277 572,277 572,277 572,277 572,276 572,275 572,275 572,274 572,274 572,274 572,273 573,272 573,272 573,272 573,271 573,271 573,271 573,270 573,270 573,270 573,270 573,269 573,269 573,269 574,270 574,270 574,270 574,270 574,271 574,271 574,271 574,272 574,273 574,273 574,273 574,273 574,274 575,274 575,275 575,276 575,276 575,277 575,277 575,278 575,278 575,279 575,280 575,280 575,281 575,281 576,282 576,282 576,283 576,283 576,283 576,284 576,284 576,284 576,284 576,284 576,285 576,285 576,285 577,285 577,285 577,286 577,286 577,286 577,287 577,287 577,287 577,287 577,287 577,287 577,287 577,287 578,288 578,288 578,288 578,287 578,287 578,287 578,287 578,287 578,287 578,286 578,286 578,286 578,285 579,285 579,285 579,284 579,284 579,283 579,283 579,283 579,282 579,281 579,281 579,280 579,279 579,278 580,277 580,276 580,275 580,273 580,272 580,270 580,269 580,268 580,267 580,265 580,265 580,264 580,263 581,262 581,262 581,261 581,261 581,260 581,260 581,259 581,259 581,258 581,258 581,258 581,257 581,257 582,257 582,258 582,258 582,258 582,258 582,258 582,258 582,258 582,259 582,259 582,260 582,260 582,261 583,261 583,262 583,263 583,264 583,264 583,265 583,266 583,267 583,267 583,268 583,269 583,270 583,271 584,272 584,273 584,273 584,274 584,275 584,275 584,274 584,274 584,274 584,274 584,274 584,274 584,275 585,275 585,275 585,276 585,276 585,277 585,277 585,277 585,278 585,278 585,278 585,279 585,279 585,280 586,280 586,281 586,281 586,281 586,281 586,282 586,282 586,282 586,283 586,283 586,283 586,283 586,283 587,283 587,283 587,283 587,282 587,282 587,281 587,281 587,280 587,280 587,279 587,279 587,278 587,278 588,277 588,277 588,276 588,276 588,276 588,275 588,275 588,275 588,275 588,275 588,275 588,275 588,275 589,275 589,275 589,274 589,274 589,274 589,273 589,273 589,273 589,272 589,272 589,271 589,270 589,270 590,269 590,268 590,267 590,267 590,267 590,266 590,266 590,266 590,265 590,265 590,264 590,264 590,264 591,264 591,264 591,264 591,264 591,264 591,264 591,264 591,263 591,263 591,262 591,262 591,261 591,261 592,260 592,260 592,259 592,258 592,258 592,257 592,256 592,256 592,255 592,255 592,254 592,254 592,254 593,253 593,253 593,252 593,252 593,252 593,252 593,252 593,252 593,252 593,252 593,252 593,252 593,253 594,253 594,253 594,254 594,254 594,255 594,255 594,256 594,257 594,257 594,258 594,259 594,259 595,260 595,260 595,261 595,261 595,262 595,262 595,263 595,263 595,264 595,264 595,265 595,266 595,266 596,267 596,267 596,268 596,268 596,269 596,269 596,269 596,269 596,270 596,270 596,270 596,270 596,270 597,270 597,271 597,271 597,271 597,272 597,272 597,272 597,273 597,273 597,273 597,273 597,274 597,274 598,273 598,273 598,273 598,272 598,272 598,271 598,271 598,270 598,269 598,269 598,269 598,268 598,268 599,268 599,268 599,267 599,267 599,267 599,268 599,268 599,268 599,267 599,267 599,267 599,267 599,267 600,267 600,267 600,267 600,267 600,267 600,267 600,267 600,267 600,267 600,267 600,268 600,268 600,269 601,270 601,270 601,271 601,271 601,272 601,271 601,271 601,271 601,271 601,270 601,269 601,268 601,267 602,266 602,265 602,263 602,262 602,261 602,260 602,260 602,259 602,258 602,258 602,257 602,257 602,257 603,256 603,256 603,256 603,256 603,256 603,256 603,255 603,255 603,255 603,255 603,255 603,255 603,255 604,255 604,255 604,255 604,255 604,255 604,256 604,256 604,256 604,256 604,256 604,256 604,257 604,257 605,257 605,258 605,258 605,259 605,259 605,260 605,260 605,261 605,261 605,262 605,263 605,264 605,265 606,266 606,266 606,267 606,268 606,269 606,269 606,270 606,270 606,269 606,269 606,268 606,267 606,266 607,265 607,264 607,264 607,263 607,263 607,263 607,263 607,263 607,263 607,263 607,262 607,262 607,262 608,262 608,261 608,260 608,259 608,258 608,258 608,258 608,258 608,257 608,257 608,257 608,257 608,257 609,257 609,257 609,257 609,257 609,257 609,257 609,257 609,257 609,257 609,257 609,257 609,257 609,257 610,257 610,257 610,258 610,258 610,258 610,258 610,259 610,259 610,259 610,259 610,259 610,259 610,259 611,260 611,260 611,260 611,261 611,261 611,261 611,261 611,261 611,261 611,261 611,262 611,262 611,262 612,262 612,262 612,262 612,262 612,262 612,262 612,262 612,262 612,262 612,262 612,262 612,262 612,262 613,262 613,262 613,262 613,262 613,262 613,262 613,262 613,262 613,262 613,262 613,262 613,262 613,262 614,262 614,262 614,262 614,262 614,262 614,262 614,262 614,262 614,262 614,262 614,262 614,262 614,261 615,261 615,261 615,261 615,261 615,260 615,260 615,260 615,260 615,260 615,259 615,259 615,259 615,259 616,258 616,258 616,258 616,258 616,258 616,258 616,258 616,259 616,260 616,261 616,261 616,262 616,262 617,263 617,264 617,264 617,265 617,265 617,266 617,267 617,267 617,268 617,268 617,268 617,268 617,268 618,268 618,268 618,268 618,268 618,268 618,268 618,268 618,268 618,268 618,268 618,267 618,267 618,267 619,267 619,267 619,267 619,267 619,267 619,267 619,267 619,267 619,267 619,267 619,266 619,266 619,266 620,266 620,266 620,266 620,266 620,265 620,265 620,265 620,265 620,265 620,265 620,265 620,265 620,265 621,265 621,265 621,265 621,265 621,265 621,265 621,265 621,264 621,264 621,264 621,264 621,264 621,264 622,264 622,264 622,264 622,264 622,264 622,264 622,264 622,263 622,263 622,263 622,263 622,263 622,264 623,264 623,264 623,264 623,264 623,264 623,264 623,264 623,264 623,263 623,263 623,263 623,263 624,262 624,262 624,262 624,262 624,261 624,261 624,261 624,261 624,260 624,260 624,260 624,260 624,259 625,259 625,259 625,259 625,259 625,258 625,258 625,258 625,258 625,258 625,258 625,258 625,258 625,258 626,258 626,258 626,259 626,259 626,259 626,259 626,260 626,260 626,260 626,260 626,260 626,260 626,259 627,259 627,258 627,257 627,257 627,257 627,256 627,255 627,255 627,255 627,254 627,254 627,253 627,253 628,253 628,253 628,253 628,253 628,254 628,254 628,254 628,254 628,254 628,254 628,255 628,255 628,255 629,255 629,255 629,255 629,256 629,256 629,256 629,256 629,257 629,257 629,258 629,259 629,260 629,260 630,261 630,262 630,263 630,263 630,263 630,264 630,263 630,263 630,263 630,263 630,264 630,264 630,265 631,265 631,265 631,265 631,265 631,265 631,265 631,265 631,265 631,265 631,266 631,266 631,266 631,266 632,266 632,267 632,267 632,267 632,267 632,267 632,268 632,268 632,268 632,269 632,270 632,270 632,271 633,271 633,272 633,272 633,273 633,273 633,274 633,274 633,274 633,274 633,274 633,274 633,274 633,274 634,274 634,274 634,274 634,275 634,275 634,275 634,276 634,276 634,277 634,277 634,278 634,279 634,280 635,280 635,281 635,282 635,282 635,282 635,282 635,283 635,283 635,283 635,283 635,283 635,283 635,283 636,283 636,283 636,283 636,283 636,282 636,282 636,282 636,282 636,282 636,282 636,282 636,282 636,283 637,283 637,283 637,284 637,284 637,285 637,285 637,285 637,286 637,286 637,286 637,287 637,287 637,287 638,287 638,287 638,287 638,288 638,288 638,288 638,288 638,288 638,288 638,288 638,288 638,288 638,288 639,288 639,288 639,288 639,288 639,288 639,288 639,288 639,288 639,288 639,288 639,288 639,288 639,288 640,288 640,288 640,288 640,288 640,288 640,288 640,288 640,288 640,288 640,288 640,288 640,289 640,289 641,289 641,289 641,289 641,289 641,289 641,289 641,289 641,289 641,289 641,289 641,289 641,289 641,289 642,289 642,289 642,289 642,289 642,289 642,289 642,289 642,289 642,288 642,288 642,288 642,288 642,288 643,287 643,287 643,287 643,287 643,287 643,287 643,286 643,286 643,286 643,286 643,286 643,286 643,286 644,286 644,286 644,286 644,286 644,285 644,285 644,285 644,286 644,286 644,286 644,286 644,286 644,286 645,286 645,286 645,286 645,286 645,285 645,285 645,285 645,285 645,285 645,285 645,285 645,285 645,284 646,284 646,284 646,284 646,283 646,283 646,283 646,283 646,283 646,282 646,282 646,282 646,282 646,281 647,281 647,281 647,281 647,281 647,281 647,281 647,281 647,281 647,281 647,281 647,281 647,281 647,282 648,282 648,282 648,283 648,284 648,284 648,285 648,285 648,286 648,286 648,287 648,287 648,288 648,288 649,289 649,290 649,290 649,291 649,292 649,292 649,293 649,294 649,294 649,295 649,296 649,296 649,297 650,297 650,298 650,299 650,299 650,300 650,300 650,300 650,301 650,301 650,301 650,302 650,302 650,302 651,303 651,303 651,304 651,304 651,304 651,305 651,305 651,305 651,306 651,306 651,306 651,306 651,306 652,307 652,307 652,307 652,307 652,307 652,307 652,307 652,308 652,308 652,308 652,308 652,308 653,309 653,309 653,309 653,309 653,309 653,309 653,309 653,308 653,308 653,308 653,308 653,308 653,308 654,308 654,308 654,308 654,308 654,308 654,308 654,308 654,308 654,308 654,308 654,308 654,308 654,308 655,308 655,308 655,308 655,308 655,308 655,308 655,308 655,308 655,308 655,308 655,308 655,308 655,308 656,308 656,308 656,308 656,308 656,308 656,308 656,308 656,307 656,307 656,307 656,307 656,306 656,306 657,306 657,305 657,305 657,304 657,304 657,303 657,303 657,302 657,302 657,302 657,301 657,301 657,301 658,300 658,300 658,300 658,300 658,300 658,300 658,299 658,299 658,299 658,299 658,299 658,299 658,299 659,299 659,299 659,300 659,300 659,300 659,301 659,301 659,301 659,302 659,302 659,302 659,302 659,303 660,303 660,303 660,303 660,304 660,304 660,304 660,304 660,304 660,304 660,305 660,305 660,305 660,305 661,305 661,305 661,305 661,305 661,305 661,305 661,305 661,305 661,305 661,305 661,305 661,305 661,305 662,305 662,305 662,305 662,305 662,304 662,304 662,304 662,304 662,304 662,304 662,303 662,303 662,303 663,303 663,302 663,302 663,301 663,301 663,301 663,300 663,300 663,300 663,299 663,299 663,299 663,299 664,298 664,298 664,298 664,297 664,297 664,297 664,297 664,297 664,297 664,297 664,297 664,297 664,297 665,297 665,297 665,297 665,297 665,297 665,297 665,297 665,298 665,298 665,298 665,299 665,299 665,300 666,300 666,300 666,300 666,301 666,301 666,301 666,301 666,301 666,302 666,302 666,302 666,302 666,302 667,302 667,302 667,303 667,303 667,303 667,303 667,303 667,303 667,303 667,303 667,303 667,303 667,303 668,303 668,303 668,303 668,303 668,303 668,303 668,303 668,303 668,303 668,303 668,303 668,303 668,304 669,304 669,304 669,305 669,305 669,305 669,306 669,306 669,306 669,307 669,307 669,307 669,308 669,308 670,309 670,309 670,309 670,310 670,310 670,311 670,311 670,312 670,312 670,312 670,313 670,313 670,313 671,314 671,314 671,315 671,315 671,316 671,316 671,317 671,317 671,318 671,318 671,319 671,319 671,320 672,320 672,320 672,320 672,321 672,321 672,321 672,321 672,322 672,322 672,322 672,322 672,322 672,322 673,322 673,323 673,323 673,323 673,324 673,324 673,324 673,324 673,324 673,324 673,324 673,325 673,325 674,325 674,325 674,326 674,327 674,328 674,328 674,328 674,328 674,328 674,328 674,327 674,327 674,326 675,326 675,325 675,325 675,324 675,324 675,324 675,323 675,323 675,323 675,323 675,322 675,322 675,322 676,322 676,322 676,321 676,321 676,321 676,321 676,321 676,321 676,320 676,320 676,320 676,320 676,320 677,320 677,320 677,320 677,320 677,319 677,319 677,319 677,319 677,319 677,319 677,319 677,318 677,318 678,318 678,318 678,318 678,317 678,317 678,317 678,317 678,316 678,316 678,316 678,316 678,315 678,315 679,315 679,315 679,315 679,314 679,314 679,314 679,315 679,315 679,315 679,315 679,315 679,315 679,316 680,316 680,316 680,317 680,317 680,317 680,317 680,317 680,318 680,318 680,318 680,318 680,318 680,318 681,318 681,318 681,318 681,318 681,317 681,317 681,317 681,317 681,317 681,317 681,317 681,317 682,317 682,317 682,317 682,317 682,317 682,317 682,317 682,317 682,317 682,317 682,316 682,316 682,316 683,316 683,316 683,316 683,316 683,316 683,316 683,316 683,316 683,316 683,315 683,315 683,315 683,315 684,315 684,315 684,315 684,315 684,315 684,314 684,314 684,314 684,314 684,314 684,314 684,314 684,314 685,313 685,313 685,313 685,313 685,313 685,313 685,313 685,313 685,313 685,312 685,312 685,312 685,312 686,312 686,312 686,312 686,312 686,311 686,311 686,311 686,311 686,311 686,311 686,311 686,310 686,310 687,310 687,310 687,310 687,310 687,309 687,309 687,309 687,309 687,309 687,308 687,308 687,308 687,308 688,307 688,307 688,307 688,307 688,307 688,306 688,306 688,306 688,306 688,306 688,306 688,306 688,306 689,306 689,306 689,305 689,305 689,305 689,305 689,305 689,305 689,305 689,305 689,305 689,305 689,304 690,304 690,304 690,304 690,304 690,304 690,304 690,304 690,304 690,304 690,304 690,305 690,305 690,305 691,305 691,305 691,305 691,305 691,305 691,305 691,305 691,305 691,305 691,305 691,305 691,305 691,305 692,305 692,305 692,305 692,305 692,305 692,305 692,306 692,306 692,306 692,306 692,306 692,306 692,306 693,306 693,306 693,306 693,306 693,306 693,306 693,306 693,306 693,306 693,307 693,307 693,307 693,307 694,307 694,307 694,307 694,307 694,307 694,307 694,307 694,307 694,307 694,307 694,307 694,307 694,307 695,307 695,307 695,307 695,308 695,308 695,308 695,308 695,308 695,308 695,308 695,308 695,308 695,308 696,308 696,308 696,308 696,308 696,308 696,308 696,308 696,308 696,308 696,308 696,308 696,308 696,308 697,308 697,308 697,308 697,308 697,308 697,308 697,308 697,308 697,308 697,308 697,308 697,308 697,308 698,308 698,307 698,307 698,307 698,307 698,307 698,307 698,307 698,307 698,307 698,307 698,307 698,307 699,307 699,307 699,307 699,307 699,308 699,308 699,307 699,307 699,307 699,307 699,307 699,307 699,307 700,307 700,307 700,307 700,307 700,307 700,307 700,307 700,307 700,307 700,307 700,307 700,307 700,306 701,306 701,306 701,306 701,306 701,306 701,306 701,306 701,306 701,306 701,306 701,306 701,306 701,306 702,306 702,306 702,306 702,306 702,306 702,306 702,306 702,306 702,306 702,306 702,306 702,306 702,305 703,305 703,305 703,305 703,305 703,305 703,305 703,305 703,305 703,305 703,305 703,305 703,305 703,305 704,305 704,305 704,305 704,305 704,305 704,305 704,305 704,305 704,305 704,305 704,305 704,304 704,304 705,304 705,304 705,304 705,304 705,304 705,304 705,304 705,304 705,304 705,303 705,303 705,303 705,303 706,303 706,304 706,304 706,304 706,305 706,306 706,306 706,305 706,305 706,304 706,304 706,303 706,303 707,302 707,302 707,302 707,301 707,301 707,301 707,301 707,301 707,301 707,301 707,301 707,300 707,300 708,300 708,300 708,300 708,300 708,300 708,300 708,299 708,299 708,299 708,299 708,299 708,299 708,299 709,299 709,299 709,299 709,299 709,298 709,298 709,298 709,297 709,297 709,297 709,297 709,297 709,297 710,296 710,296 710,296 710,296 710,296 710,295 710,295 710,295 710,295 710,295 710,294 710,293 711,293 711,292 711,292 711,292 711,291 711,291 711,291 711,290 711,290 711,289 711,289 711,288 711,288 712,287 712,287 712,286 712,286 712,285 712,284 712,284 712,283 712,282 712,282 712,281 712,280 712,279 713,279 713,278 713,277 713,277 713,276 713,276 713,275 713,275 713,274 713,273 713,273 713,272 713,272 714,271 714,271 714,270 714,269 714,269 714,268 714,267 714,267 714,266 714,266 714,265 714,265 714,265 715,264 715,264 715,264 715,263 715,263 715,263 715,262 715,262 715,262 715,261 715,261 715,261 715,261 716,261 716,261 716,261 716,261 716,260 716,260 716,260 716,260 716,260 716,260 716,259 716,259 716,259 717,259 717,259 717,259 717,259 717,259 717,259 717,259 717,259 717,259 717,259 717,259 717,259 717,259 718,258 718,258 718,258 718,258 718,258 718,258 718,258 718,258 718,258 718,258 718,258 718,258 718,258 719,258 719,258 719,258 719,258 719,259 719,259 719,259 719,260 719,260 719,261 719,261 719,263 719,264 720,265 720,266 720,267 720,268 720,269 720,270 720,269 720,268 720,268 720,267 720,266 720,265 720,265 721,265 721,264 721,264 721,264 721,264 721,265 721,265 721,266 721,266 721,265 721,265 721,265 721,265 722,264 722,264 722,263 722,263 722,263 722,262 722,262 722,261 722,261 722,261 722,260 722,260 722,260 723,260 723,259 723,259 723,259 723,259 723,259 723,259 723,258 723,258 723,258 723,258 723,258 723,258 724,258 724,258 724,258 724,258 724,258 724,258 724,258 724,258 724,258 724,258 724,258 724,258 724,258 725,258 725,258 725,257 725,257 725,257 725,257 725,257 725,257 725,257 725,257 725,257 725,257 725,257 726,257 726,257 726,257 726,257 726,257 726,257 726,257 726,257 726,257 726,258 726,258 726,258 726,258 727,258 727,258 727,258 727,258 727,258 727,259 727,259 727,259 727,259 727,259 727,259 727,260 727,260 728,260 728,260 728,260 728,260 728,260 728,260 728,261 728,261 728,261 728,261 728,261 728,261 728,261 729,261 729,262 729,262 729,262 729,262 729,262 729,262 729,262 729,263 729,263 729,263 729,263 729,263 730,263 730,263 730,264 730,264 730,264 730,264 730,264 730,264 730,265 730,265 730,265 730,265 730,265 731,265 731,265 731,266 731,266 731,266 731,266 731,266 731,266 731,266 731,266 731,266 731,266 731,267 732,267 732,267 732,267 732,267 732,267 732,267 732,268 732,268 732,268 732,268 732,268 732,268 732,268 733,268 733,268 733,268 733,268 733,268 733,269 733,269 733,269 733,269 733,269 733,270 733,270 733,270 734,270 734,271 734,271 734,271 734,271 734,272 734,272 734,272 734,272 734,272 734,273 734,273 734,273 735,273 735,273 735,274 735,274 735,274 735,274 735,274 735,274 735,274 735,274 735,274 735,274 735,274 736,274 736,274 736,274 736,274 736,274 736,274 736,274 736,274 736,273 736,273 736,273 " vector-effect="non-scaling-stroke"></polyline>
</g></svg>