<?xml version="1.0" encoding="UTF-8" standalone="no"?><svg width="282.222mm" height="141.111mm" xmlns="http://www.w3.org/2000/svg" xmlns:xlink="http://www.w3.org/1999/xlink"  version="1.2" baseProfile="tiny"><g fill="none" stroke="#ff0000" stroke-linecap="round" stroke-linejoin="round" stroke-opacity="1" stroke-width="1.5" transform="matrix(1,0,0,1,0,0)">
<polyline fill="none" points="59,190 59,189 59,189 59,188 59,188 59,189 59,189 59,189 60,189 60,190 60,190 60,190 60,190 60,190 60,190 60,190 60,191 60,191 60,191 60,191 60,191 61,191 61,191 61,191 61,191 61,191 61,191 61,191 61,191 61,191 61,191 61,191 61,190 61,190 62,190 62,190 62,190 62,190 62,190 62,190 62,190 62,190 62,190 62,190 62,190 62,190 62,191 63,191 63,191 63,191 63,191 63,191 63,191 63,191 63,191 63,191 63,191 63,191 63,191 63,191 64,191 64,191 64,191 64,191 64,191 64,191 64,191 64,192 64,192 64,192 64,192 64,192 64,192 65,192 65,192 65,192 65,193 65,194 65,194 65,195 65,196 65,196 65,196 65,197 65,197 65,198 66,198 66,199 66,199 66,200 66,200 66,201 66,201 66,202 66,203 66,203 66,204 66,204 66,205 67,205 67,205 67,206 67,205 67,205 67,205 67,205 67,204 67,204 67,204 67,204 67,203 67,203 68,203 68,203 68,202 68,202 68,202 68,201 68,201 68,201 68,201 68,200 68,200 68,200 68,200 69,200 69,200 69,200 69,200 69,201 69,201 69,201 69,202 69,202 69,203 69,203 69,204 70,204 70,205 70,205 70,205 70,205 70,206 70,206 70,206 70,206 70,206 70,206 70,206 70,206 71,205 71,205 71,205 71,204 71,204 71,204 71,203 71,203 71,202 71,202 71,202 71,201 71,201 72,200 72,200 72,200 72,199 72,199 72,199 72,198 72,198 72,197 72,197 72,196 72,196 72,196 73,196 73,195 73,195 73,195 73,195 73,195 73,195 73,195 73,195 73,196 73,196 73,197 73,197 74,197 74,198 74,198 74,198 74,199 74,199 74,199 74,199 74,199 74,199 74,199 74,199 74,200 75,200 75,200 75,200 75,200 75,200 75,200 75,200 75,200 75,200 75,200 75,200 75,200 75,200 76,201 76,201 76,202 76,202 76,202 76,203 76,203 76,203 76,203 76,204 76,204 76,204 76,204 77,204 77,204 77,205 77,205 77,205 77,205 77,206 77,206 77,207 77,207 77,208 77,208 77,209 78,209 78,210 78,210 78,211 78,212 78,212 78,213 78,213 78,213 78,213 78,213 78,212 78,212 79,212 79,211 79,211 79,210 79,210 79,209 79,208 79,208 79,207 79,206 79,206 79,205 79,205 80,204 80,204 80,204 80,203 80,203 80,203 80,202 80,202 80,202 80,202 80,202 80,202 80,202 81,202 81,202 81,202 81,201 81,201 81,201 81,201 81,201 81,201 81,201 81,201 81,201 81,201 82,201 82,201 82,201 82,202 82,201 82,202 82,202 82,202 82,202 82,202 82,202 82,202 82,203 83,203 83,203 83,204 83,204 83,204 83,204 83,205 83,204 83,204 83,204 83,205 83,206 83,206 84,207 84,207 84,207 84,207 84,207 84,208 84,208 84,209 84,210 84,211 84,211 84,212 84,212 85,213 85,213 85,214 85,214 85,215 85,215 85,215 85,216 85,216 85,216 85,217 85,218 85,218 86,219 86,219 86,220 86,220 86,221 86,222 86,223 86,223 86,224 86,224 86,225 86,225 86,226 87,226 87,226 87,226 87,226 87,226 87,226 87,226 87,225 87,225 87,225 87,225 87,224 87,224 88,224 88,224 88,224 88,224 88,224 88,224 88,224 88,224 88,224 88,224 88,224 88,223 88,223 89,223 89,223 89,222 89,222 89,222 89,222 89,222 89,222 89,222 89,223 89,223 89,223 89,223 90,223 90,223 90,223 90,224 90,224 90,224 90,225 90,225 90,226 90,226 90,227 90,227 90,228 91,228 91,229 91,229 91,230 91,230 91,231 91,232 91,232 91,233 91,234 91,235 91,236 91,238 92,239 92,240 92,241 92,242 92,242 92,243 92,244 92,245 92,245 92,246 92,246 92,246 92,246 93,246 93,245 93,245 93,245 93,244 93,243 93,243 93,242 93,241 93,241 93,240 93,240 93,239 94,239 94,239 94,238 94,238 94,237 94,237 94,236 94,235 94,235 94,235 94,235 94,234 94,234 95,235 95,235 95,235 95,235 95,235 95,235 95,235 95,235 95,234 95,234 95,234 95,233 95,233 96,233 96,233 96,233 96,233 96,232 96,232 96,231 96,230 96,230 96,230 96,230 96,230 96,231 97,231 97,231 97,231 97,231 97,230 97,230 97,230 97,230 97,229 97,229 97,229 97,228 98,228 98,227 98,226 98,226 98,225 98,225 98,224 98,223 98,223 98,222 98,222 98,221 98,221 99,220 99,220 99,219 99,218 99,218 99,217 99,216 99,216 99,215 99,214 99,214 99,213 99,212 100,211 100,211 100,211 100,210 100,210 100,210 100,210 100,211 100,211 100,212 100,212 100,212 100,212 101,212 101,213 101,213 101,213 101,213 101,213 101,213 101,213 101,213 101,214 101,214 101,214 101,214 102,214 102,215 102,215 102,215 102,215 102,215 102,216 102,216 102,216 102,216 102,217 102,217 102,217 103,218 103,218 103,219 103,219 103,220 103,220 103,221 103,221 103,222 103,222 103,223 103,223 103,224 104,225 104,225 104,226 104,227 104,228 104,228 104,229 104,230 104,231 104,232 104,233 104,233 104,234 105,235 105,236 105,237 105,238 105,239 105,239 105,240 105,241 105,242 105,243 105,244 105,245 105,246 106,247 106,248 106,249 106,250 106,250 106,251 106,251 106,251 106,252 106,252 106,253 106,253 106,253 107,253 107,254 107,254 107,254 107,254 107,254 107,254 107,255 107,255 107,255 107,256 107,256 107,256 108,257 108,257 108,257 108,257 108,257 108,258 108,258 108,258 108,258 108,259 108,259 108,260 108,260 109,261 109,261 109,262 109,262 109,263 109,264 109,264 109,264 109,265 109,265 109,266 109,266 109,266 110,266 110,266 110,266 110,266 110,266 110,266 110,266 110,266 110,264 110,264 110,264 110,263 110,263 111,263 111,263 111,263 111,262 111,262 111,262 111,261 111,261 111,260 111,259 111,259 111,258 111,257 112,257 112,256 112,255 112,254 112,254 112,253 112,252 112,252 112,252 112,251 112,251 112,250 112,250 113,250 113,250 113,250 113,249 113,249 113,249 113,249 113,249 113,249 113,249 113,249 113,249 113,249 114,249 114,249 114,248 114,248 114,248 114,249 114,249 114,249 114,249 114,249 114,248 114,248 114,248 115,247 115,247 115,246 115,246 115,245 115,245 115,244 115,244 115,243 115,242 115,241 115,240 115,239 116,238 116,237 116,236 116,236 116,235 116,235 116,234 116,234 116,234 116,233 116,233 116,234 116,234 117,234 117,234 117,234 117,235 117,235 117,235 117,235 117,235 117,235 117,236 117,236 117,237 117,237 118,238 118,239 118,240 118,240 118,241 118,242 118,243 118,244 118,244 118,245 118,246 118,246 118,247 119,247 119,247 119,248 119,248 119,248 119,248 119,248 119,248 119,248 119,247 119,247 119,246 119,245 120,244 120,243 120,242 120,241 120,240 120,239 120,238 120,237 120,236 120,235 120,234 120,234 120,234 121,233 121,233 121,233 121,232 121,232 121,232 121,232 121,232 121,232 121,232 121,232 121,232 121,232 122,232 122,233 122,233 122,233 122,233 122,234 122,234 122,234 122,234 122,234 122,234 122,234 122,235 123,235 123,235 123,235 123,235 123,235 123,235 123,236 123,236 123,235 123,235 123,235 123,234 123,233 124,233 124,232 124,232 124,231 124,230 124,229 124,228 124,228 124,227 124,226 124,226 124,225 124,225 125,224 125,224 125,223 125,223 125,222 125,222 125,221 125,221 125,221 125,220 125,220 125,220 126,220 126,220 126,220 126,220 126,220 126,220 126,221 126,221 126,221 126,222 126,222 126,222 126,223 127,223 127,223 127,224 127,224 127,225 127,225 127,226 127,226 127,227 127,227 127,228 127,229 127,230 128,230 128,231 128,232 128,233 128,234 128,234 128,235 128,235 128,235 128,235 128,235 128,235 128,234 129,234 129,233 129,232 129,232 129,231 129,231 129,230 129,230 129,230 129,229 129,229 129,229 129,228 130,228 130,228 130,228 130,228 130,228 130,228 130,228 130,228 130,228 130,228 130,228 130,228 130,228 131,228 131,229 131,229 131,229 131,229 131,230 131,230 131,230 131,231 131,232 131,232 131,233 131,234 132,235 132,236 132,237 132,238 132,239 132,240 132,241 132,241 132,241 132,241 132,241 132,241 132,241 133,241 133,241 133,241 133,241 133,241 133,240 133,240 133,240 133,240 133,240 133,240 133,240 133,240 134,240 134,240 134,240 134,240 134,240 134,240 134,240 134,240 134,240 134,239 134,239 134,239 134,239 135,238 135,238 135,238 135,237 135,237 135,236 135,236 135,236 135,236 135,236 135,236 135,236 135,236 136,236 136,236 136,237 136,237 136,237 136,238 136,239 136,239 136,240 136,241 136,241 136,242 136,242 137,243 137,244 137,245 137,246 137,246 137,247 137,247 137,247 137,248 137,248 137,248 137,249 137,249 138,249 138,250 138,250 138,251 138,251 138,252 138,252 138,252 138,253 138,253 138,254 138,254 138,254 139,254 139,253 139,252 139,251 139,250 139,249 139,248 139,247 139,246 139,245 139,244 139,243 139,243 140,242 140,242 140,241 140,240 140,240 140,240 140,239 140,239 140,238 140,238 140,237 140,237 140,236 141,236 141,235 141,235 141,234 141,234 141,234 141,233 141,233 141,233 141,233 141,233 141,233 141,233 142,233 142,232 142,232 142,232 142,231 142,231 142,232 142,231 142,231 142,231 142,231 142,231 142,231 143,231 143,231 143,231 143,231 143,231 143,231 143,232 143,232 143,232 143,232 143,232 143,232 143,232 144,233 144,233 144,233 144,233 144,233 144,233 144,234 144,233 144,233 144,233 144,233 144,233 144,232 145,232 145,232 145,231 145,230 145,230 145,229 145,228 145,227 145,226 145,225 145,224 145,224 145,223 146,222 146,221 146,221 146,220 146,220 146,220 146,219 146,219 146,218 146,218 146,217 146,217 146,216 147,216 147,215 147,215 147,214 147,214 147,214 147,213 147,213 147,212 147,212 147,212 147,211 147,211 148,211 148,211 148,211 148,210 148,210 148,210 148,210 148,210 148,211 148,211 148,211 148,211 148,212 149,212 149,212 149,213 149,213 149,214 149,214 149,215 149,215 149,215 149,216 149,216 149,217 149,218 150,218 150,218 150,218 150,219 150,219 150,219 150,219 150,219 150,220 150,220 150,220 150,220 150,220 151,221 151,221 151,221 151,221 151,222 151,222 151,222 151,222 151,223 151,223 151,223 151,224 151,224 152,224 152,225 152,226 152,227 152,227 152,229 152,230 152,232 152,234 152,235 152,237 152,238 152,240 153,242 153,245 153,247 153,247 153,248 153,248 153,249 153,249 153,249 153,250 153,250 153,250 154,251 154,251 154,251 154,251 154,251 154,251 154,251 154,251 154,251 154,251 154,250 154,250 154,250 155,250 155,249 155,248 155,247 155,245 155,244 155,243 155,241 155,240 155,238 155,237 155,236 155,234 156,233 156,232 156,231 156,230 156,230 156,229 156,229 156,229 156,229 156,229 156,229 156,230 156,230 157,230 157,230 157,231 157,231 157,231 157,231 157,231 157,231 157,231 157,231 157,231 157,232 157,232 158,232 158,232 158,233 158,234 158,234 158,235 158,236 158,237 158,238 158,238 158,239 158,240 158,241 159,241 159,242 159,243 159,243 159,244 159,245 159,245 159,246 159,247 159,248 159,248 159,249 159,250 160,250 160,250 160,251 160,251 160,251 160,252 160,252 160,252 160,253 160,253 160,254 160,254 160,255 161,255 161,255 161,255 161,256 161,256 161,256 161,257 161,257 161,258 161,258 161,258 161,259 161,259 162,260 162,260 162,261 162,262 162,262 162,263 162,263 162,263 162,264 162,264 162,264 162,264 162,265 163,265 163,265 163,265 163,265 163,265 163,265 163,266 163,266 163,266 163,266 163,266 163,266 163,266 164,265 164,265 164,264 164,264 164,263 164,263 164,262 164,261 164,261 164,260 164,259 164,258 164,258 165,257 165,256 165,255 165,254 165,253 165,253 165,252 165,251 165,250 165,249 165,248 165,248 165,247 166,247 166,246 166,246 166,245 166,244 166,244 166,243 166,242 166,242 166,241 166,240 166,240 166,239 167,239 167,239 167,238 167,237 167,236 167,236 167,235 167,234 167,233 167,233 167,233 167,232 167,232 168,231 168,232 168,232 168,232 168,233 168,233 168,233 168,233 168,233 168,233 168,233 168,233 168,233 169,233 169,233 169,233 169,233 169,233 169,233 169,233 169,233 169,233 169,233 169,233 169,233 169,233 170,233 170,233 170,233 170,233 170,234 170,234 170,234 170,234 170,234 170,235 170,235 170,235 170,235 171,235 171,235 171,234 171,234 171,233 171,233 171,232 171,231 171,231 171,230 171,230 171,230 171,229 172,229 172,229 172,228 172,228 172,228 172,229 172,229 172,230 172,230 172,230 172,230 172,230 172,229 173,229 173,229 173,229 173,228 173,228 173,228 173,227 173,227 173,227 173,226 173,226 173,226 173,226 174,226 174,226 174,226 174,226 174,225 174,225 174,225 174,225 174,225 174,225 174,225 174,225 174,225 175,226 175,226 175,226 175,226 175,226 175,226 175,225 175,225 175,225 175,225 175,225 175,225 175,225 176,225 176,225 176,225 176,225 176,225 176,225 176,225 176,225 176,224 176,224 176,224 176,224 176,224 177,224 177,224 177,224 177,224 177,224 177,224 177,224 177,224 177,224 177,224 177,224 177,225 177,225 178,225 178,225 178,225 178,225 178,225 178,225 178,225 178,225 178,225 178,225 178,225 178,225 178,225 179,225 179,226 179,226 179,226 179,226 179,227 179,227 179,227 179,227 179,227 179,227 179,227 179,227 180,227 180,228 180,228 180,228 180,228 180,228 180,228 180,228 180,229 180,229 180,229 180,229 180,229 181,230 181,230 181,230 181,231 181,231 181,232 181,232 181,232 181,232 181,232 181,233 181,233 182,233 182,233 182,233 182,234 182,233 182,233 182,233 182,233 182,233 182,232 182,232 182,232 182,232 183,231 183,231 183,231 183,230 183,230 183,230 183,230 183,229 183,229 183,228 183,228 183,228 183,227 184,227 184,226 184,225 184,225 184,224 184,223 184,223 184,222 184,221 184,220 184,220 184,219 184,218 185,217 185,216 185,216 185,215 185,214 185,213 185,213 185,212 185,212 185,212 185,212 185,212 185,212 186,212 186,212 186,211 186,211 186,211 186,211 186,210 186,210 186,210 186,209 186,208 186,208 186,207 187,207 187,206 187,206 187,205 187,205 187,205 187,204 187,204 187,204 187,203 187,203 187,203 187,203 188,203 188,202 188,202 188,202 188,202 188,202 188,202 188,202 188,202 188,201 188,201 188,201 188,201 189,201 189,200 189,200 189,200 189,199 189,199 189,198 189,198 189,197 189,196 189,195 189,195 189,194 190,194 190,194 190,194 190,193 190,193 190,193 190,192 190,192 190,192 190,191 190,191 190,191 190,190 191,190 191,189 191,189 191,188 191,188 191,188 191,187 191,187 191,187 191,186 191,186 191,186 191,186 192,185 192,185 192,185 192,185 192,185 192,185 192,185 192,185 192,186 192,186 192,185 192,185 192,185 193,185 193,185 193,185 193,185 193,185 193,185 193,185 193,185 193,185 193,185 193,185 193,185 193,185 194,185 194,185 194,185 194,186 194,186 194,186 194,186 194,186 194,185 194,185 194,185 194,185 194,185 195,185 195,184 195,183 195,183 195,182 195,182 195,181 195,181 195,180 195,179 195,179 195,178 195,178 196,178 196,177 196,177 196,177 196,176 196,176 196,176 196,176 196,176 196,175 196,175 196,175 196,175 197,175 197,175 197,174 197,174 197,174 197,174 197,173 197,173 197,173 197,173 197,173 197,173 197,173 198,172 198,172 198,172 198,172 198,172 198,171 198,171 198,171 198,171 198,171 198,171 198,171 198,171 199,171 199,171 199,172 199,172 199,172 199,172 199,172 199,172 199,172 199,172 199,172 199,173 199,173 200,173 200,173 200,173 200,173 200,173 200,172 200,172 200,172 200,172 200,172 200,172 200,172 200,172 201,172 201,171 201,171 201,171 201,171 201,170 201,170 201,169 201,169 201,169 201,169 201,169 201,169 202,170 202,171 202,172 202,172 202,172 202,173 202,173 202,173 202,173 202,174 202,173 202,173 202,174 203,174 203,176 203,177 203,177 203,178 203,179 203,179 203,180 203,180 203,181 203,181 203,182 203,183 204,183 204,184 204,185 204,186 204,186 204,187 204,188 204,189 204,190 204,191 204,192 204,193 204,194 205,194 205,193 205,192 205,192 205,191 205,190 205,189 205,188 205,188 205,187 205,186 205,185 205,184 206,184 206,183 206,182 206,182 206,182 206,182 206,182 206,182 206,182 206,182 206,182 206,182 206,182 207,182 207,182 207,182 207,182 207,181 207,181 207,181 207,181 207,181 207,181 207,180 207,180 207,180 208,180 208,180 208,180 208,180 208,179 208,180 208,180 208,180 208,181 208,181 208,182 208,183 208,184 209,184 209,184 209,184 209,185 209,185 209,185 209,185 209,185 209,185 209,184 209,184 209,184 210,184 210,184 210,184 210,184 210,184 210,183 210,183 210,183 210,183 210,183 210,183 210,183 210,183 211,183 211,183 211,183 211,183 211,183 211,184 211,184 211,184 211,185 211,185 211,185 211,186 211,186 212,186 212,186 212,186 212,186 212,186 212,186 212,186 212,186 212,185 212,185 212,185 212,185 212,185 213,186 213,186 213,186 213,187 213,187 213,187 213,188 213,188 213,188 213,188 213,188 213,188 213,188 214,188 214,188 214,188 214,188 214,188 214,188 214,188 214,188 214,188 214,188 214,188 214,188 214,189 215,189 215,189 215,190 215,190 215,190 215,190 215,191 215,191 215,191 215,191 215,191 215,191 215,191 216,191 216,191 216,191 216,191 216,191 216,191 216,191 216,191 216,192 216,193 216,193 216,193 216,193 217,193 217,194 217,194 217,194 217,194 217,194 217,194 217,194 217,194 217,195 217,195 217,195 217,196 218,196 218,197 218,198 218,199 218,199 218,200 218,201 218,201 218,202 218,203 218,203 218,204 218,205 219,205 219,206 219,207 219,207 219,207 219,207 219,208 219,208 219,208 219,208 219,207 219,207 219,208 220,208 220,208 220,208 220,208 220,208 220,208 220,208 220,208 220,209 220,209 220,210 220,210 220,211 221,212 221,212 221,213 221,213 221,214 221,215 221,215 221,217 221,218 221,219 221,221 221,221 221,222 222,223 222,224 222,224 222,225 222,226 222,227 222,227 222,227 222,228 222,229 222,229 222,230 222,231 223,231 223,232 223,233 223,234 223,234 223,235 223,236 223,237 223,239 223,240 223,241 223,242 223,243 224,244 224,245 224,246 224,247 224,248 224,249 224,249 224,250 224,250 224,250 224,250 224,250 224,250 225,250 225,250 225,250 225,250 225,250 225,250 225,250 225,250 225,250 225,250 225,249 225,249 225,249 226,249 226,249 226,249 226,249 226,249 226,249 226,249 226,249 226,249 226,250 226,250 226,250 226,250 227,250 227,250 227,250 227,249 227,249 227,249 227,249 227,249 227,249 227,249 227,249 227,249 227,249 228,249 228,249 228,249 228,249 228,249 228,249 228,249 228,250 228,250 228,250 228,250 228,250 228,250 229,250 229,251 229,251 229,251 229,251 229,251 229,251 229,251 229,250 229,250 229,250 229,250 229,249 230,249 230,249 230,249 230,248 230,248 230,248 230,248 230,247 230,247 230,247 230,246 230,246 230,245 231,245 231,245 231,244 231,244 231,244 231,243 231,243 231,242 231,242 231,241 231,241 231,240 231,240 232,239 232,239 232,238 232,237 232,237 232,236 232,236 232,235 232,235 232,234 232,234 232,233 232,233 233,233 233,232 233,232 233,232 233,232 233,232 233,231 233,231 233,230 233,230 233,229 233,229 233,228 234,228 234,228 234,227 234,226 234,226 234,225 234,226 234,225 234,225 234,224 234,224 234,224 234,223 235,224 235,223 235,223 235,223 235,223 235,223 235,223 235,223 235,223 235,223 235,223 235,223 235,223 236,223 236,223 236,224 236,224 236,224 236,224 236,224 236,224 236,224 236,225 236,225 236,224 236,224 237,224 237,224 237,224 237,224 237,224 237,224 237,224 237,224 237,224 237,224 237,225 237,225 238,226 238,226 238,225 238,225 238,224 238,224 238,223 238,222 238,222 238,221 238,221 238,220 238,220 239,220 239,220 239,219 239,219 239,219 239,219 239,219 239,219 239,219 239,218 239,218 239,218 239,217 240,217 240,217 240,216 240,216 240,216 240,216 240,216 240,215 240,215 240,215 240,214 240,214 240,213 241,213 241,212 241,212 241,211 241,211 241,210 241,210 241,209 241,208 241,208 241,207 241,207 241,206 242,205 242,205 242,204 242,204 242,203 242,203 242,202 242,201 242,201 242,200 242,200 242,199 242,199 243,199 243,199 243,199 243,199 243,198 243,198 243,198 243,198 243,197 243,197 243,197 243,197 243,197 244,196 244,196 244,196 244,196 244,196 244,196 244,196 244,195 244,195 244,195 244,195 244,195 244,195 245,195 245,195 245,195 245,194 245,194 245,194 245,194 245,193 245,193 245,193 245,193 245,192 245,192 246,192 246,191 246,191 246,191 246,191 246,192 246,191 246,191 246,191 246,191 246,191 246,191 246,190 247,190 247,190 247,190 247,189 247,189 247,189 247,188 247,188 247,188 247,188 247,188 247,187 247,187 248,187 248,187 248,187 248,187 248,187 248,187 248,187 248,187 248,187 248,187 248,187 248,187 248,187 249,186 249,186 249,186 249,186 249,185 249,185 249,185 249,185 249,184 249,184 249,184 249,184 249,184 250,183 250,183 250,183 250,183 250,184 250,184 250,184 250,184 250,185 250,185 250,185 250,185 250,186 251,186 251,186 251,186 251,187 251,187 251,187 251,187 251,188 251,188 251,188 251,189 251,189 251,189 252,189 252,190 252,190 252,190 252,191 252,191 252,191 252,191 252,192 252,192 252,192 252,192 252,192 253,192 253,192 253,192 253,192 253,192 253,193 253,192 253,192 253,192 253,192 253,192 253,192 253,192 254,192 254,192 254,192 254,192 254,192 254,192 254,192 254,192 254,191 254,191 254,192 254,192 254,192 255,193 255,193 255,193 255,193 255,193 255,193 255,194 255,194 255,194 255,195 255,195 255,196 255,196 256,197 256,198 256,198 256,199 256,200 256,200 256,201 256,201 256,202 256,202 256,203 256,203 256,203 257,203 257,203 257,203 257,203 257,203 257,202 257,202 257,202 257,202 257,202 257,201 257,201 257,200 258,200 258,199 258,199 258,198 258,197 258,197 258,196 258,196 258,195 258,194 258,194 258,194 258,194 259,193 259,193 259,193 259,192 259,192 259,192 259,192 259,192 259,191 259,191 259,191 259,190 259,190 260,190 260,190 260,189 260,189 260,189 260,189 260,189 260,188 260,188 260,188 260,188 260,188 260,188 261,188 261,188 261,188 261,188 261,189 261,189 261,189 261,190 261,190 261,190 261,190 261,190 261,190 262,190 262,190 262,190 262,190 262,191 262,191 262,191 262,191 262,192 262,192 262,192 262,192 262,192 263,193 263,193 263,194 263,194 263,195 263,195 263,196 263,196 263,196 263,196 263,196 263,197 263,197 264,197 264,197 264,197 264,198 264,198 264,198 264,198 264,198 264,200 264,201 264,203 264,204 265,205 265,206 265,207 265,207 265,206 265,206 265,205 265,205 265,204 265,204 265,203 265,203 265,203 266,204 266,204 266,204 266,204 266,204 266,204 266,205 266,205 266,206 266,207 266,207 266,207 266,207 267,208 267,208 267,208 267,208 267,208 267,208 267,207 267,207 267,207 267,206 267,207 267,207 267,207 268,207 268,207 268,207 268,207 268,207 268,207 268,207 268,207 268,207 268,207 268,207 268,207 268,207 269,207 269,207 269,207 269,207 269,208 269,208 269,208 269,208 269,209 269,209 269,210 269,210 269,211 270,211 270,212 270,212 270,213 270,214 270,215 270,215 270,214 270,213 270,212 270,212 270,212 270,212 271,212 271,211 271,210 271,209 271,207 271,206 271,206 271,206 271,206 271,205 271,205 271,204 271,204 272,204 272,203 272,203 272,202 272,202 272,202 272,202 272,202 272,202 272,202 272,202 272,202 272,202 273,202 273,202 273,202 273,202 273,202 273,202 273,202 273,202 273,201 273,201 273,201 273,201 273,201 274,201 274,200 274,200 274,200 274,200 274,200 274,200 274,200 274,200 274,200 274,199 274,199 274,199 275,199 275,198 275,198 275,198 275,198 275,197 275,197 275,197 275,197 275,197 275,196 275,196 275,196 276,196 276,195 276,195 276,195 276,194 276,194 276,193 276,193 276,193 276,193 276,192 276,192 276,192 277,192 277,192 277,192 277,192 277,192 277,192 277,192 277,192 277,192 277,191 277,191 277,191 277,191 278,190 278,190 278,190 278,190 278,190 278,189 278,189 278,189 278,189 278,189 278,189 278,188 278,188 279,188 279,188 279,188 279,188 279,188 279,188 279,188 279,188 279,188 279,188 279,188 279,188 279,188 280,188 280,188 280,188 280,188 280,188 280,188 280,188 280,188 280,188 280,188 280,188 280,188 280,187 281,187 281,187 281,187 281,187 281,187 281,187 281,187 281,187 281,187 281,187 281,187 281,187 281,187 282,187 282,188 282,188 282,188 282,188 282,188 282,188 282,187 282,187 282,187 282,187 282,187 282,187 283,187 283,187 283,187 283,187 283,187 283,187 283,187 283,187 283,187 283,187 283,187 283,187 283,187 284,187 284,187 284,188 284,188 284,188 284,188 284,188 284,188 284,188 284,188 284,188 284,188 284,188 285,188 285,187 285,187 285,187 285,187 285,187 285,187 285,187 285,186 285,186 285,186 285,186 285,186 286,186 286,186 286,186 286,186 286,186 286,186 286,186 286,186 286,186 286,186 286,186 286,186 286,187 287,187 287,187 287,187 287,187 287,187 287,187 287,187 287,187 287,187 287,187 287,188 287,188 287,188 288,188 288,188 288,189 288,189 288,189 288,189 288,189 288,189 288,189 288,190 288,190 288,190 288,190 289,190 289,190 289,190 289,190 289,191 289,191 289,190 289,190 289,190 289,190 289,190 289,190 289,190 290,190 290,190 290,190 290,190 290,190 290,190 290,191 290,191 290,191 290,191 290,191 290,191 290,191 291,191 291,190 291,190 291,190 291,190 291,190 291,190 291,190 291,190 291,190 291,190 291,190 291,189 292,189 292,189 292,189 292,188 292,188 292,188 292,188 292,188 292,188 292,188 292,188 292,188 293,188 293,188 293,188 293,189 293,189 293,189 293,189 293,189 293,190 293,190 293,190 293,190 293,190 294,191 294,191 294,191 294,191 294,192 294,192 294,192 294,192 294,192 294,192 294,193 294,193 294,193 295,193 295,194 295,194 295,194 295,194 295,195 295,195 295,195 295,195 295,195 295,196 295,196 295,196 296,196 296,197 296,197 296,197 296,197 296,198 296,198 296,198 296,199 296,199 296,200 296,200 296,200 297,201 297,201 297,202 297,202 297,202 297,202 297,202 297,203 297,203 297,203 297,203 297,203 297,203 298,203 298,203 298,203 298,203 298,203 298,203 298,203 298,203 298,203 298,203 298,203 298,203 298,203 299,204 299,204 299,204 299,203 299,203 299,202 299,202 299,202 299,201 299,201 299,201 299,200 299,200 300,199 300,199 300,198 300,198 300,198 300,197 300,197 300,197 300,197 300,197 300,197 300,197 300,197 301,197 301,197 301,197 301,197 301,197 301,197 301,197 301,197 301,197 301,197 301,196 301,196 301,196 302,195 302,195 302,195 302,194 302,194 302,194 302,193 302,193 302,193 302,192 302,192 302,192 302,191 303,191 303,191 303,190 303,190 303,190 303,190 303,190 303,190 303,190 303,190 303,190 303,190 303,190 304,190 304,190 304,190 304,190 304,190 304,190 304,190 304,189 304,189 304,189 304,188 304,188 304,187 305,187 305,187 305,187 305,187 305,186 305,186 305,186 305,186 305,186 305,185 305,185 305,185 305,185 306,185 306,185 306,185 306,185 306,185 306,185 306,185 306,185 306,185 306,185 306,185 306,184 306,185 307,185 307,185 307,185 307,185 307,186 307,186 307,186 307,186 307,186 307,185 307,185 307,185 307,185 308,184 308,184 308,184 308,184 308,184 308,184 308,184 308,185 308,185 308,185 308,185 308,184 308,184 309,184 309,184 309,184 309,184 309,184 309,184 309,183 309,183 309,183 309,183 309,182 309,182 309,182 310,182 310,181 310,181 310,181 310,180 310,180 310,180 310,179 310,179 310,179 310,179 310,178 310,178 311,177 311,177 311,176 311,176 311,176 311,175 311,175 311,175 311,174 311,174 311,174 311,173 311,173 312,173 312,172 312,172 312,172 312,172 312,172 312,171 312,171 312,171 312,171 312,171 312,171 312,171 313,171 313,171 313,170 313,170 313,170 313,170 313,170 313,170 313,170 313,170 313,170 313,170 313,170 314,171 314,171 314,171 314,171 314,171 314,171 314,171 314,172 314,172 314,172 314,172 314,172 314,172 315,173 315,173 315,173 315,173 315,173 315,173 315,173 315,174 315,174 315,174 315,174 315,174 315,174 316,175 316,175 316,175 316,175 316,175 316,176 316,176 316,176 316,176 316,176 316,176 316,176 316,176 317,176 317,177 317,177 317,177 317,177 317,177 317,177 317,177 317,177 317,177 317,178 317,178 317,178 318,178 318,178 318,178 318,178 318,178 318,178 318,178 318,178 318,179 318,179 318,179 318,179 318,179 319,179 319,179 319,179 319,179 319,178 319,178 319,178 319,178 319,178 319,177 319,177 319,178 319,178 320,178 320,178 320,178 320,178 320,178 320,179 320,179 320,179 320,179 320,179 320,179 320,179 321,180 321,180 321,180 321,180 321,180 321,180 321,181 321,181 321,181 321,181 321,181 321,182 321,182 322,182 322,182 322,182 322,182 322,182 322,183 322,183 322,183 322,184 322,184 322,184 322,184 322,184 323,184 323,185 323,185 323,185 323,185 323,186 323,186 323,186 323,186 323,186 323,186 323,186 323,186 324,186 324,186 324,187 324,187 324,187 324,188 324,188 324,187 324,187 324,187 324,187 324,187 324,187 325,187 325,187 325,187 325,187 325,187 325,186 325,186 325,186 325,186 325,186 325,186 325,186 325,185 326,185 326,185 326,185 326,185 326,185 326,186 326,186 326,186 326,186 326,186 326,186 326,186 326,187 327,187 327,187 327,187 327,188 327,188 327,189 327,189 327,189 327,188 327,187 327,186 327,186 327,186 328,185 328,185 328,185 328,185 328,185 328,185 328,185 328,185 328,185 328,185 328,185 328,185 328,185 329,185 329,185 329,186 329,186 329,186 329,186 329,187 329,187 329,187 329,187 329,187 329,187 329,187 330,187 330,187 330,187 330,187 330,187 330,187 330,187 330,187 330,187 330,187 330,187 330,187 330,187 331,187 331,186 331,186 331,186 331,187 331,187 331,187 331,187 331,187 331,186 331,186 331,186 331,186 332,186 332,186 332,186 332,186 332,186 332,186 332,186 332,186 332,186 332,185 332,185 332,185 332,185 333,185 333,185 333,185 333,185 333,185 333,184 333,184 333,184 333,184 333,184 333,184 333,184 333,184 334,184 334,184 334,183 334,183 334,183 334,183 334,183 334,183 334,183 334,183 334,183 334,182 334,182 335,182 335,182 335,182 335,182 335,182 335,182 335,182 335,182 335,182 335,181 335,181 335,181 335,181 336,181 336,181 336,181 336,181 336,181 336,181 336,181 336,180 336,180 336,180 336,180 336,180 336,180 337,180 337,180 337,180 337,180 337,179 337,179 337,179 337,179 337,179 337,178 337,178 337,178 337,178 338,178 338,177 338,177 338,177 338,177 338,176 338,176 338,176 338,176 338,176 338,175 338,175 338,175 339,175 339,174 339,174 339,174 339,174 339,174 339,174 339,174 339,173 339,173 339,173 339,173 339,173 340,173 340,173 340,173 340,172 340,172 340,171 340,171 340,171 340,171 340,171 340,170 340,170 340,170 341,170 341,169 341,169 341,169 341,169 341,169 341,169 341,168 341,168 341,168 341,168 341,168 341,168 342,167 342,167 342,167 342,167 342,167 342,167 342,167 342,167 342,166 342,166 342,166 342,166 342,166 343,165 343,165 343,165 343,165 343,164 343,164 343,164 343,163 343,163 343,163 343,163 343,163 343,162 344,162 344,162 344,162 344,162 344,162 344,162 344,163 344,163 344,163 344,163 344,164 344,164 344,164 345,164 345,165 345,165 345,165 345,165 345,166 345,166 345,166 345,166 345,167 345,167 345,167 345,168 346,168 346,168 346,168 346,168 346,168 346,168 346,167 346,167 346,167 346,167 346,166 346,166 346,166 347,165 347,165 347,165 347,164 347,164 347,164 347,164 347,164 347,163 347,163 347,163 347,163 347,163 348,163 348,163 348,163 348,163 348,162 348,162 348,162 348,162 348,162 348,162 348,162 348,162 349,162 349,162 349,162 349,162 349,161 349,161 349,161 349,161 349,161 349,161 349,161 349,161 349,161 350,161 350,161 350,161 350,162 350,162 350,162 350,162 350,161 350,161 350,161 350,162 350,162 350,162 351,162 351,162 351,163 351,163 351,164 351,164 351,164 351,164 351,164 351,164 351,164 351,164 351,164 352,164 352,164 352,164 352,164 352,164 352,164 352,163 352,163 352,163 352,163 352,163 352,162 352,162 353,162 353,161 353,161 353,161 353,161 353,160 353,160 353,160 353,160 353,159 353,159 353,159 353,159 354,158 354,158 354,158 354,158 354,157 354,157 354,157 354,157 354,157 354,156 354,156 354,156 354,156 355,156 355,156 355,155 355,155 355,155 355,155 355,155 355,154 355,154 355,154 355,154 355,154 355,153 356,153 356,153 356,153 356,153 356,153 356,152 356,152 356,152 356,152 356,152 356,152 356,151 356,151 357,151 357,151 357,151 357,150 357,150 357,150 357,150 357,150 357,150 357,150 357,150 357,150 357,150 358,150 358,149 358,149 358,149 358,149 358,149 358,149 358,149 358,149 358,149 358,148 358,148 358,148 359,148 359,148 359,148 359,147 359,147 359,147 359,147 359,147 359,147 359,147 359,147 359,147 359,147 360,147 360,147 360,147 360,147 360,147 360,147 360,147 360,147 360,146 360,146 360,146 360,146 360,146 361,146 361,146 361,145 361,145 361,145 361,145 361,144 361,144 361,144 361,144 361,144 361,143 361,143 362,143 362,143 362,143 362,142 362,142 362,142 362,142 362,142 362,142 362,142 362,142 362,143 362,143 363,143 363,143 363,143 363,143 363,143 363,143 363,143 363,143 363,143 363,143 363,143 363,143 363,143 364,143 364,143 364,143 364,144 364,144 364,145 364,146 364,147 364,147 364,148 364,148 364,149 364,150 365,151 365,151 365,152 365,153 365,154 365,155 365,155 365,156 365,157 365,157 365,158 365,159 365,159 366,160 366,160 366,160 366,161 366,161 366,161 366,160 366,160 366,160 366,159 366,158 366,157 366,156 367,156 367,155 367,154 367,153 367,153 367,153 367,153 367,153 367,153 367,153 367,153 367,153 367,153 368,153 368,153 368,153 368,152 368,152 368,152 368,152 368,152 368,152 368,152 368,152 368,152 368,152 369,152 369,152 369,152 369,152 369,152 369,152 369,152 369,153 369,153 369,154 369,154 369,155 369,155 370,156 370,156 370,156 370,157 370,157 370,157 370,158 370,158 370,158 370,158 370,159 370,159 370,159 371,159 371,159 371,160 371,160 371,160 371,160 371,161 371,161 371,161 371,161 371,161 371,162 371,162 372,162 372,163 372,163 372,163 372,164 372,164 372,164 372,165 372,165 372,166 372,166 372,166 372,166 373,167 373,167 373,167 373,167 373,167 373,167 373,168 373,168 373,168 373,168 373,168 373,169 373,169 374,170 374,170 374,171 374,171 374,172 374,172 374,173 374,173 374,173 374,174 374,174 374,174 374,174 375,174 375,175 375,175 375,175 375,175 375,176 375,176 375,177 375,177 375,177 375,177 375,177 375,177 376,178 376,178 376,178 376,178 376,179 376,179 376,179 376,179 376,179 376,180 376,180 376,180 377,181 377,181 377,181 377,181 377,182 377,182 377,182 377,182 377,182 377,182 377,182 377,183 377,183 378,183 378,183 378,184 378,184 378,184 378,184 378,184 378,184 378,184 378,184 378,184 378,184 378,184 379,184 379,184 379,184 379,184 379,185 379,185 379,185 379,185 379,185 379,185 379,185 379,186 379,186 380,186 380,186 380,187 380,187 380,187 380,187 380,188 380,188 380,188 380,188 380,188 380,189 380,189 381,189 381,189 381,189 381,189 381,190 381,190 381,190 381,191 381,191 381,191 381,191 381,191 381,191 382,191 382,191 382,191 382,191 382,191 382,191 382,191 382,191 382,191 382,191 382,191 382,191 382,191 383,191 383,191 383,191 383,191 383,191 383,191 383,191 383,190 383,190 383,190 383,190 383,190 383,190 384,190 384,189 384,189 384,189 384,189 384,189 384,189 384,188 384,188 384,188 384,188 384,188 384,187 385,187 385,187 385,187 385,187 385,187 385,186 385,186 385,186 385,186 385,186 385,186 385,185 385,185 386,185 386,185 386,185 386,184 386,184 386,184 386,184 386,184 386,184 386,184 386,184 386,184 386,183 387,183 387,183 387,183 387,183 387,183 387,183 387,183 387,182 387,182 387,182 387,182 387,182 387,182 388,182 388,182 388,182 388,182 388,182 388,182 388,182 388,181 388,181 388,181 388,181 388,181 388,181 389,181 389,181 389,181 389,181 389,181 389,181 389,181 389,180 389,180 389,180 389,180 389,180 389,180 390,180 390,180 390,180 390,180 390,180 390,179 390,179 390,179 390,179 390,179 390,179 390,179 390,179 391,179 391,179 391,179 391,179 391,178 391,178 391,178 391,178 391,178 391,178 391,178 391,178 391,178 392,178 392,178 392,178 392,178 392,178 392,177 392,177 392,177 392,177 392,177 392,177 392,176 392,176 393,176 393,176 393,175 393,175 393,175 393,175 393,174 393,174 393,174 393,174 393,174 393,174 393,174 394,173 394,173 394,173 394,174 394,174 394,174 394,174 394,174 394,174 394,175 394,175 394,175 394,175 395,175 395,175 395,175 395,176 395,176 395,176 395,176 395,176 395,176 395,176 395,176 395,176 395,176 396,176 396,175 396,175 396,175 396,175 396,175 396,174 396,174 396,174 396,174 396,174 396,174 396,174 397,174 397,174 397,174 397,174 397,174 397,174 397,173 397,173 397,173 397,173 397,173 397,173 397,173 398,173 398,173 398,173 398,173 398,173 398,173 398,173 398,173 398,173 398,174 398,174 398,174 398,174 399,174 399,173 399,173 399,173 399,173 399,172 399,172 399,172 399,172 399,172 399,172 399,172 399,172 400,172 400,171 400,171 400,171 400,171 400,171 400,171 400,170 400,170 400,170 400,170 400,170 400,170 401,170 401,170 401,170 401,170 401,170 401,170 401,170 401,170 401,170 401,170 401,170 401,170 401,170 402,170 402,170 402,171 402,171 402,171 402,171 402,171 402,171 402,171 402,172 402,172 402,172 402,172 403,172 403,171 403,171 403,171 403,171 403,171 403,171 403,171 403,170 403,170 403,170 403,170 403,170 404,169 404,169 404,169 404,169 404,169 404,169 404,169 404,169 404,169 404,168 404,168 404,168 405,168 405,168 405,168 405,168 405,168 405,168 405,168 405,168 405,168 405,167 405,167 405,167 405,167 406,167 406,167 406,166 406,166 406,166 406,166 406,165 406,165 406,165 406,164 406,164 406,164 406,163 407,163 407,163 407,163 407,163 407,163 407,163 407,163 407,163 407,163 407,163 407,163 407,162 407,163 408,162 408,162 408,162 408,161 408,161 408,161 408,160 408,160 408,160 408,159 408,159 408,159 408,158 409,158 409,158 409,157 409,157 409,157 409,156 409,156 409,156 409,156 409,156 409,156 409,155 409,155 410,155 410,156 410,156 410,156 410,156 410,157 410,157 410,157 410,158 410,159 410,159 410,160 410,161 411,162 411,162 411,163 411,164 411,165 411,165 411,166 411,167 411,167 411,168 411,168 411,169 411,169 412,170 412,171 412,171 412,172 412,172 412,173 412,173 412,174 412,174 412,175 412,175 412,175 412,176 413,176 413,176 413,176 413,177 413,177 413,177 413,177 413,178 413,178 413,178 413,178 413,178 413,178 414,178 414,179 414,179 414,179 414,179 414,179 414,179 414,179 414,179 414,179 414,179 414,179 414,179 415,179 415,179 415,179 415,179 415,179 415,179 415,179 415,179 415,179 415,179 415,179 415,179 415,179 416,180 416,180 416,180 416,180 416,180 416,181 416,182 416,183 416,183 416,183 416,183 416,183 416,183 417,183 417,183 417,183 417,184 417,184 417,184 417,185 417,185 417,185 417,185 417,186 417,186 417,186 418,187 418,187 418,187 418,188 418,188 418,188 418,189 418,189 418,189 418,189 418,189 418,190 418,190 419,190 419,190 419,190 419,191 419,191 419,191 419,191 419,191 419,192 419,192 419,192 419,192 419,193 420,193 420,193 420,193 420,193 420,193 420,193 420,193 420,193 420,193 420,193 420,193 420,193 420,193 421,193 421,193 421,193 421,193 421,193 421,193 421,193 421,193 421,193 421,193 421,193 421,192 421,192 422,192 422,192 422,192 422,192 422,192 422,192 422,192 422,192 422,192 422,192 422,192 422,192 422,192 423,192 423,192 423,192 423,192 423,191 423,191 423,191 423,191 423,191 423,191 423,190 423,190 423,190 424,190 424,190 424,190 424,189 424,189 424,189 424,189 424,189 424,189 424,189 424,189 424,189 424,188 425,188 425,188 425,188 425,188 425,188 425,188 425,188 425,188 425,188 425,188 425,188 425,188 425,188 426,188 426,188 426,188 426,188 426,188 426,188 426,188 426,188 426,188 426,188 426,188 426,188 426,189 427,189 427,189 427,189 427,189 427,190 427,190 427,190 427,190 427,190 427,191 427,191 427,192 427,192 428,192 428,192 428,192 428,192 428,191 428,191 428,191 428,191 428,191 428,191 428,191 428,191 428,192 429,192 429,192 429,192 429,192 429,192 429,192 429,192 429,192 429,192 429,192 429,193 429,193 429,193 430,194 430,194 430,195 430,195 430,195 430,194 430,194 430,194 430,195 430,195 430,195 430,195 430,195 431,195 431,195 431,195 431,195 431,196 431,196 431,196 431,196 431,196 431,196 431,196 431,196 431,196 432,196 432,196 432,196 432,196 432,196 432,196 432,196 432,196 432,196 432,196 432,196 432,196 433,196 433,196 433,196 433,196 433,196 433,196 433,195 433,195 433,195 433,195 433,195 433,194 433,194 434,194 434,194 434,194 434,193 434,193 434,193 434,193 434,193 434,193 434,192 434,192 434,192 434,192 435,192 435,192 435,191 435,191 435,191 435,191 435,191 435,191 435,191 435,192 435,192 435,192 435,192 436,193 436,194 436,194 436,194 436,193 436,192 436,192 436,191 436,191 436,191 436,191 436,190 436,190 437,190 437,190 437,190 437,190 437,190 437,190 437,190 437,190 437,191 437,191 437,191 437,191 437,191 438,191 438,191 438,191 438,191 438,191 438,192 438,192 438,192 438,192 438,192 438,192 438,192 438,192 439,192 439,193 439,193 439,193 439,193 439,193 439,193 439,193 439,193 439,193 439,193 439,193 439,193 440,193 440,193 440,192 440,192 440,192 440,192 440,192 440,192 440,192 440,192 440,193 440,193 440,193 441,193 441,193 441,193 441,193 441,193 441,193 441,193 441,193 441,193 441,193 441,193 441,193 441,193 442,193 442,193 442,193 442,193 442,193 442,193 442,192 442,192 442,192 442,192 442,192 442,192 442,191 443,191 443,191 443,191 443,191 443,191 443,190 443,190 443,190 443,190 443,190 443,190 443,190 443,190 444,189 444,189 444,189 444,189 444,189 444,189 444,189 444,189 444,189 444,189 444,189 444,189 444,189 445,189 445,189 445,190 445,190 445,190 445,190 445,190 445,190 445,190 445,190 445,190 445,189 445,189 446,189 446,189 446,189 446,189 446,189 446,190 446,190 446,190 446,190 446,190 446,190 446,190 446,190 447,190 447,190 447,189 447,189 447,189 447,189 447,189 447,189 447,188 447,188 447,188 447,188 447,188 448,188 448,187 448,187 448,187 448,187 448,186 448,186 448,186 448,186 448,186 448,185 448,185 448,185 449,185 449,185 449,184 449,184 449,184 449,184 449,184 449,184 449,183 449,183 449,183 449,183 449,183 450,183 450,182 450,182 450,182 450,182 450,182 450,181 450,181 450,181 450,181 450,181 450,181 450,181 451,180 451,180 451,180 451,180 451,180 451,179 451,179 451,179 451,179 451,179 451,179 451,179 451,179 452,179 452,179 452,179 452,179 452,179 452,179 452,179 452,178 452,178 452,178 452,178 452,179 452,179 453,179 453,179 453,179 453,179 453,179 453,179 453,179 453,179 453,179 453,179 453,179 453,179 453,179 454,179 454,179 454,179 454,179 454,178 454,179 454,179 454,179 454,179 454,179 454,179 454,179 454,179 455,180 455,180 455,180 455,180 455,180 455,181 455,181 455,181 455,182 455,182 455,183 455,183 455,183 456,183 456,184 456,184 456,184 456,184 456,185 456,185 456,185 456,186 456,186 456,186 456,186 456,185 457,185 457,185 457,184 457,184 457,184 457,184 457,183 457,183 457,183 457,183 457,183 457,183 457,182 458,182 458,182 458,182 458,181 458,181 458,181 458,181 458,180 458,180 458,180 458,180 458,179 458,179 459,179 459,179 459,178 459,178 459,178 459,178 459,177 459,177 459,177 459,177 459,176 459,177 459,177 460,177 460,177 460,177 460,177 460,176 460,176 460,176 460,177 460,177 460,176 460,176 460,176 461,175 461,174 461,174 461,174 461,173 461,173 461,173 461,172 461,172 461,172 461,172 461,171 461,171 462,171 462,170 462,170 462,169 462,169 462,168 462,168 462,168 462,167 462,167 462,167 462,167 462,166 463,166 463,166 463,166 463,166 463,165 463,165 463,165 463,165 463,165 463,165 463,165 463,165 463,165 464,165 464,165 464,165 464,165 464,165 464,165 464,165 464,165 464,165 464,165 464,165 464,165 464,165 465,165 465,165 465,165 465,164 465,164 465,164 465,164 465,164 465,164 465,164 465,164 465,164 465,164 466,164 466,164 466,164 466,164 466,164 466,164 466,164 466,164 466,164 466,164 466,164 466,165 466,165 467,165 467,165 467,165 467,165 467,165 467,165 467,165 467,165 467,165 467,165 467,165 467,164 467,164 468,164 468,163 468,163 468,164 468,164 468,164 468,165 468,165 468,165 468,165 468,165 468,166 468,166 469,166 469,166 469,165 469,165 469,165 469,165 469,165 469,165 469,165 469,165 469,165 469,165 469,166 470,166 470,166 470,166 470,167 470,167 470,167 470,166 470,166 470,166 470,166 470,166 470,166 470,167 471,167 471,167 471,167 471,167 471,167 471,168 471,168 471,169 471,169 471,169 471,169 471,170 471,170 472,171 472,171 472,171 472,172 472,172 472,173 472,174 472,175 472,175 472,176 472,176 472,176 472,176 473,177 473,177 473,177 473,178 473,178 473,179 473,179 473,179 473,179 473,180 473,180 473,180 473,181 474,181 474,181 474,182 474,182 474,182 474,182 474,182 474,182 474,182 474,183 474,183 474,183 474,183 475,183 475,184 475,183 475,184 475,184 475,184 475,184 475,184 475,184 475,184 475,184 475,184 475,185 476,185 476,185 476,185 476,185 476,185 476,185 476,186 476,186 476,186 476,186 476,186 476,186 476,186 477,186 477,186 477,186 477,187 477,187 477,187 477,187 477,187 477,187 477,187 477,187 477,188 477,188 478,188 478,188 478,188 478,188 478,188 478,188 478,189 478,189 478,189 478,189 478,189 478,189 478,189 479,190 479,190 479,190 479,190 479,190 479,190 479,190 479,191 479,191 479,191 479,191 479,191 479,191 480,191 480,192 480,192 480,192 480,192 480,192 480,193 480,193 480,193 480,193 480,193 480,194 480,194 481,194 481,194 481,194 481,195 481,195 481,195 481,195 481,195 481,196 481,196 481,196 481,196 481,196 482,196 482,197 482,197 482,197 482,197 482,197 482,197 482,197 482,197 482,197 482,197 482,198 482,198 483,198 483,198 483,198 483,198 483,198 483,198 483,198 483,198 483,198 483,198 483,198 483,198 483,198 484,198 484,198 484,198 484,199 484,199 484,199 484,199 484,199 484,199 484,199 484,199 484,199 484,199 485,199 485,199 485,199 485,199 485,199 485,199 485,199 485,199 485,199 485,199 485,198 485,198 485,198 486,198 486,199 486,199 486,199 486,199 486,199 486,199 486,199 486,199 486,199 486,199 486,199 486,199 487,199 487,199 487,199 487,199 487,199 487,198 487,198 487,198 487,198 487,198 487,198 487,198 487,198 488,198 488,198 488,198 488,198 488,198 488,198 488,198 488,198 488,199 488,199 488,199 488,199 489,200 489,200 489,200 489,200 489,200 489,200 489,200 489,201 489,201 489,201 489,201 489,201 489,201 490,201 490,201 490,201 490,201 490,200 490,200 490,200 490,200 490,199 490,199 490,199 490,199 490,199 491,199 491,199 491,199 491,199 491,199 491,199 491,199 491,198 491,198 491,198 491,197 491,197 491,197 492,197 492,196 492,196 492,196 492,195 492,195 492,195 492,194 492,194 492,194 492,193 492,193 492,193 493,192 493,192 493,191 493,191 493,191 493,190 493,190 493,190 493,190 493,189 493,189 493,189 493,188 494,188 494,188 494,188 494,187 494,187 494,187 494,186 494,186 494,186 494,186 494,186 494,185 494,185 495,185 495,185 495,185 495,185 495,185 495,185 495,185 495,185 495,185 495,185 495,186 495,186 495,186 496,186 496,186 496,186 496,186 496,186 496,187 496,187 496,187 496,187 496,187 496,187 496,187 496,187 497,187 497,186 497,186 497,186 497,186 497,186 497,186 497,187 497,187 497,187 497,187 497,187 497,187 498,187 498,187 498,188 498,188 498,188 498,188 498,188 498,189 498,189 498,189 498,189 498,189 498,190 499,190 499,190 499,190 499,191 499,191 499,191 499,191 499,192 499,192 499,192 499,193 499,193 499,193 500,194 500,194 500,194 500,195 500,195 500,196 500,196 500,197 500,197 500,198 500,199 500,200 500,200 501,201 501,202 501,202 501,203 501,203 501,204 501,204 501,205 501,206 501,206 501,207 501,207 501,208 502,208 502,209 502,209 502,209 502,210 502,210 502,210 502,210 502,210 502,210 502,210 502,210 502,210 503,210 503,210 503,211 503,211 503,211 503,211 503,212 503,213 503,213 503,213 503,213 503,213 503,213 504,213 504,212 504,211 504,211 504,210 504,210 504,209 504,209 504,209 504,208 504,208 504,208 504,208 505,208 505,209 505,209 505,209 505,210 505,210 505,210 505,211 505,211 505,212 505,212 505,213 505,214 506,214 506,215 506,215 506,216 506,216 506,217 506,217 506,218 506,218 506,219 506,219 506,219 506,219 507,219 507,219 507,219 507,218 507,218 507,218 507,217 507,216 507,215 507,214 507,213 507,212 507,212 508,211 508,210 508,210 508,209 508,209 508,208 508,207 508,207 508,206 508,206 508,205 508,205 508,204 509,204 509,203 509,203 509,203 509,203 509,202 509,202 509,202 509,202 509,201 509,201 509,201 509,200 510,200 510,200 510,199 510,199 510,200 510,200 510,199 510,199 510,199 510,199 510,199 510,199 510,199 511,199 511,199 511,199 511,199 511,199 511,199 511,199 511,199 511,199 511,199 511,199 511,199 511,199 512,199 512,199 512,199 512,200 512,200 512,200 512,200 512,200 512,200 512,200 512,201 512,201 512,201 513,202 513,202 513,202 513,202 513,203 513,203 513,204 513,204 513,204 513,205 513,205 513,205 513,205 514,206 514,206 514,206 514,207 514,207 514,207 514,207 514,208 514,208 514,209 514,209 514,209 514,209 515,209 515,210 515,210 515,211 515,212 515,212 515,213 515,213 515,214 515,214 515,215 515,215 515,216 516,216 516,217 516,218 516,218 516,219 516,220 516,220 516,221 516,221 516,222 516,223 516,223 517,224 517,224 517,225 517,225 517,226 517,226 517,226 517,226 517,226 517,226 517,226 517,226 517,226 518,227 518,227 518,227 518,227 518,227 518,227 518,228 518,228 518,228 518,229 518,229 518,229 518,230 519,230 519,230 519,230 519,231 519,231 519,231 519,232 519,232 519,231 519,231 519,231 519,231 519,231 520,231 520,231 520,232 520,232 520,232 520,232 520,232 520,232 520,233 520,233 520,233 520,233 520,233 521,233 521,233 521,234 521,233 521,233 521,233 521,233 521,233 521,233 521,234 521,234 521,234 521,234 522,234 522,235 522,235 522,235 522,235 522,235 522,234 522,234 522,235 522,235 522,235 522,235 522,235 523,235 523,235 523,235 523,235 523,235 523,235 523,235 523,235 523,235 523,235 523,235 523,235 523,235 524,235 524,235 524,235 524,236 524,236 524,236 524,236 524,236 524,237 524,237 524,237 524,238 524,238 525,239 525,240 525,241 525,242 525,243 525,244 525,245 525,245 525,246 525,247 525,248 525,248 525,249 526,250 526,251 526,252 526,253 526,254 526,256 526,257 526,257 526,258 526,258 526,259 526,258 526,258 527,258 527,258 527,257 527,257 527,257 527,257 527,256 527,256 527,255 527,255 527,254 527,254 527,253 528,253 528,253 528,252 528,251 528,250 528,249 528,249 528,248 528,247 528,245 528,244 528,242 528,240 529,239 529,237 529,235 529,234 529,233 529,232 529,231 529,230 529,229 529,229 529,228 529,227 529,227 530,227 530,226 530,226 530,226 530,225 530,225 530,225 530,225 530,224 530,224 530,224 530,224 530,224 531,223 531,223 531,223 531,224 531,224 531,224 531,224 531,224 531,224 531,223 531,223 531,223 531,224 532,224 532,224 532,225 532,225 532,225 532,225 532,225 532,226 532,226 532,226 532,226 532,227 532,227 533,227 533,227 533,227 533,227 533,227 533,226 533,226 533,226 533,226 533,226 533,226 533,226 533,226 534,226 534,225 534,225 534,225 534,225 534,225 534,225 534,225 534,225 534,225 534,225 534,225 534,225 535,225 535,224 535,224 535,224 535,224 535,223 535,223 535,223 535,223 535,224 535,223 535,223 535,223 536,222 536,222 536,222 536,222 536,222 536,221 536,221 536,221 536,221 536,221 536,221 536,221 536,220 537,220 537,220 537,220 537,220 537,219 537,219 537,219 537,219 537,219 537,219 537,219 537,219 537,219 538,218 538,218 538,218 538,218 538,218 538,218 538,218 538,218 538,218 538,218 538,217 538,217 538,217 539,217 539,217 539,217 539,217 539,217 539,217 539,216 539,216 539,216 539,216 539,216 539,216 539,216 540,216 540,216 540,216 540,216 540,216 540,216 540,216 540,216 540,216 540,216 540,216 540,216 540,216 541,216 541,216 541,216 541,216 541,217 541,217 541,217 541,217 541,217 541,218 541,218 541,218 541,219 542,219 542,220 542,220 542,220 542,221 542,221 542,221 542,222 542,222 542,222 542,223 542,223 542,223 543,223 543,224 543,224 543,224 543,224 543,225 543,225 543,225 543,226 543,226 543,226 543,226 543,227 544,227 544,227 544,228 544,228 544,228 544,228 544,228 544,229 544,229 544,229 544,229 544,230 545,230 545,230 545,230 545,231 545,231 545,231 545,231 545,232 545,232 545,232 545,232 545,233 545,233 546,234 546,234 546,234 546,235 546,235 546,236 546,236 546,236 546,236 546,237 546,237 546,237 546,237 547,237 547,237 547,236 547,236 547,236 547,235 547,235 547,235 547,234 547,234 547,234 547,234 547,233 548,233 548,233 548,233 548,233 548,233 548,233 548,233 548,233 548,233 548,233 548,233 548,233 548,233 549,233 549,233 549,233 549,234 549,234 549,234 549,234 549,234 549,234 549,234 549,235 549,235 549,235 550,235 550,236 550,236 550,236 550,236 550,237 550,237 550,237 550,238 550,238 550,238 550,239 550,239 551,239 551,240 551,240 551,240 551,240 551,241 551,241 551,241 551,242 551,242 551,242 551,242 551,243 552,243 552,244 552,244 552,244 552,245 552,245 552,246 552,246 552,247 552,248 552,248 552,249 552,249 553,250 553,251 553,252 553,253 553,253 553,254 553,255 553,256 553,256 553,257 553,258 553,259 553,259 554,260 554,261 554,261 554,262 554,263 554,264 554,264 554,265 554,266 554,267 554,267 554,268 554,268 555,269 555,269 555,269 555,269 555,269 555,269 555,269 555,269 555,269 555,268 555,268 555,268 555,268 556,268 556,268 556,268 556,268 556,268 556,269 556,269 556,269 556,269 556,270 556,270 556,270 556,271 557,271 557,271 557,272 557,272 557,272 557,272 557,273 557,273 557,273 557,273 557,274 557,274 557,274 558,274 558,274 558,274 558,274 558,274 558,273 558,272 558,271 558,270 558,269 558,268 558,267 558,266 559,265 559,263 559,262 559,261 559,260 559,260 559,259 559,258 559,257 559,256 559,256 559,255 559,254 560,254 560,253 560,253 560,252 560,252 560,251 560,251 560,251 560,251 560,251 560,250 560,250 560,250 561,250 561,250 561,249 561,249 561,249 561,249 561,249 561,249 561,249 561,249 561,249 561,249 561,248 562,248 562,249 562,249 562,248 562,249 562,249 562,249 562,249 562,249 562,249 562,249 562,250 562,250 563,250 563,250 563,250 563,250 563,250 563,250 563,250 563,250 563,250 563,250 563,250 563,250 563,251 564,251 564,251 564,251 564,251 564,251 564,251 564,251 564,251 564,251 564,251 564,252 564,252 564,253 565,254 565,255 565,255 565,256 565,257 565,258 565,258 565,259 565,260 565,261 565,261 565,262 565,262 566,263 566,263 566,264 566,264 566,265 566,265 566,265 566,266 566,266 566,266 566,266 566,265 566,265 567,265 567,265 567,264 567,264 567,263 567,263 567,263 567,262 567,262 567,261 567,260 567,260 567,259 568,258 568,257 568,256 568,256 568,255 568,254 568,254 568,253 568,253 568,252 568,251 568,251 568,250 569,250 569,249 569,249 569,249 569,249 569,248 569,248 569,248 569,248 569,248 569,248 569,248 569,248 570,248 570,248 570,249 570,249 570,249 570,249 570,249 570,250 570,250 570,250 570,250 570,251 570,251 571,251 571,251 571,252 571,252 571,252 571,253 571,253 571,253 571,254 571,254 571,254 571,255 571,255 572,255 572,255 572,256 572,256 572,257 572,257 572,257 572,257 572,256 572,256 572,256 572,255 573,255 573,254 573,253 573,253 573,252 573,251 573,251 573,251 573,250 573,250 573,250 573,249 573,249 574,249 574,249 574,249 574,248 574,248 574,248 574,248 574,248 574,248 574,248 574,248 574,248 574,248 575,248 575,248 575,248 575,249 575,249 575,249 575,249 575,249 575,249 575,249 575,249 575,249 575,249 576,249 576,249 576,249 576,249 576,249 576,250 576,250 576,250 576,251 576,251 576,251 576,251 576,251 577,251 577,252 577,252 577,252 577,252 577,252 577,252 577,252 577,252 577,252 577,252 577,252 577,252 578,252 578,252 578,253 578,253 578,253 578,253 578,253 578,253 578,254 578,254 578,254 578,254 578,254 579,254 579,255 579,255 579,255 579,256 579,256 579,256 579,257 579,257 579,257 579,257 579,258 579,258 580,258 580,259 580,259 580,260 580,260 580,260 580,261 580,261 580,262 580,262 580,262 580,262 580,262 581,262 581,262 581,261 581,261 581,260 581,259 581,259 581,259 581,258 581,258 581,257 581,257 581,256 582,256 582,255 582,255 582,255 582,254 582,254 582,254 582,253 582,253 582,253 582,252 582,252 582,252 583,252 583,252 583,251 583,251 583,251 583,251 583,251 583,251 583,251 583,250 583,250 583,250 583,249 584,249 584,249 584,249 584,249 584,248 584,248 584,248 584,248 584,248 584,248 584,248 584,248 584,247 585,247 585,247 585,247 585,247 585,247 585,247 585,247 585,247 585,247 585,247 585,247 585,247 585,247 586,247 586,246 586,246 586,246 586,246 586,246 586,246 586,246 586,246 586,246 586,246 586,246 586,246 587,246 587,246 587,246 587,247 587,247 587,247 587,247 587,247 587,248 587,248 587,248 587,249 587,249 588,249 588,249 588,249 588,249 588,249 588,249 588,248 588,248 588,248 588,248 588,248 588,248 588,248 589,248 589,248 589,248 589,248 589,248 589,248 589,248 589,248 589,248 589,249 589,249 589,249 589,249 590,249 590,249 590,249 590,249 590,249 590,249 590,249 590,250 590,250 590,250 590,250 590,250 590,250 591,250 591,251 591,251 591,251 591,251 591,251 591,251 591,251 591,252 591,252 591,252 591,253 591,253 592,253 592,254 592,254 592,255 592,255 592,256 592,257 592,257 592,258 592,259 592,259 592,260 592,260 593,261 593,261 593,262 593,262 593,262 593,263 593,263 593,263 593,263 593,263 593,263 593,263 593,263 594,263 594,263 594,264 594,264 594,264 594,264 594,265 594,265 594,266 594,266 594,266 594,267 594,267 595,267 595,268 595,268 595,268 595,269 595,269 595,269 595,270 595,270 595,270 595,271 595,271 595,272 596,272 596,273 596,274 596,274 596,275 596,276 596,276 596,277 596,278 596,279 596,279 596,280 596,281 597,281 597,282 597,283 597,283 597,284 597,285 597,286 597,287 597,287 597,288 597,289 597,290 597,291 598,292 598,293 598,294 598,295 598,296 598,297 598,298 598,299 598,300 598,300 598,300 598,301 598,301 599,299 599,299 599,298 599,298 599,298 599,297 599,297 599,297 599,297 599,297 599,297 599,297 599,297 600,297 600,297 600,297 600,297 600,297 600,297 600,297 600,297 600,298 600,298 600,298 600,298 601,298 601,298 601,299 601,299 601,300 601,300 601,301 601,302 601,302 601,303 601,304 601,304 601,305 602,305 602,306 602,306 602,306 602,307 602,307 602,307 602,307 602,308 602,308 602,308 602,307 602,307 603,306 603,305 603,304 603,304 603,303 603,302 603,301 603,301 603,300 603,299 603,298 603,297 603,297 604,296 604,295 604,294 604,293 604,293 604,293 604,292 604,291 604,291 604,290 604,290 604,290 604,289 605,289 605,289 605,289 605,288 605,288 605,288 605,288 605,288 605,288 605,288 605,288 605,288 605,287 606,287 606,287 606,287 606,287 606,286 606,286 606,286 606,286 606,286 606,285 606,285 606,285 606,285 607,285 607,285 607,285 607,286 607,286 607,286 607,286 607,286 607,286 607,287 607,287 607,288 607,288 608,289 608,289 608,290 608,290 608,290 608,291 608,291 608,292 608,292 608,292 608,292 608,292 608,292 609,291 609,291 609,291 609,290 609,290 609,290 609,289 609,289 609,288 609,287 609,287 609,286 609,286 610,286 610,286 610,285 610,285 610,285 610,285 610,285 610,284 610,284 610,284 610,284 610,283 610,283 611,283 611,283 611,282 611,282 611,282 611,282 611,282 611,282 611,281 611,281 611,281 611,281 611,281 612,281 612,281 612,280 612,280 612,280 612,280 612,280 612,279 612,279 612,279 612,279 612,279 612,279 613,278 613,278 613,278 613,278 613,278 613,278 613,277 613,278 613,278 613,278 613,278 613,278 613,278 614,278 614,278 614,278 614,278 614,278 614,279 614,279 614,279 614,279 614,280 614,280 614,280 614,280 615,280 615,281 615,281 615,281 615,281 615,281 615,282 615,282 615,282 615,282 615,282 615,282 615,282 616,281 616,281 616,281 616,281 616,280 616,280 616,279 616,279 616,279 616,278 616,278 616,278 616,277 617,277 617,277 617,277 617,277 617,276 617,276 617,276 617,276 617,276 617,276 617,277 617,277 617,277 618,278 618,278 618,278 618,279 618,279 618,279 618,279 618,280 618,280 618,281 618,281 618,281 618,282 619,282 619,283 619,283 619,284 619,284 619,284 619,285 619,285 619,286 619,286 619,287 619,287 619,287 620,288 620,288 620,289 620,289 620,290 620,290 620,290 620,291 620,291 620,291 620,292 620,292 620,292 621,292 621,293 621,293 621,293 621,293 621,293 621,293 621,294 621,293 621,293 621,293 621,293 621,293 622,293 622,293 622,293 622,293 622,293 622,293 622,293 622,292 622,292 622,292 622,292 622,292 622,292 623,292 623,291 623,291 623,291 623,291 623,291 623,291 623,291 623,291 623,291 623,291 623,291 623,290 624,290 624,290 624,289 624,289 624,289 624,288 624,287 624,287 624,286 624,286 624,285 624,284 624,283 625,282 625,281 625,279 625,278 625,278 625,277 625,276 625,275 625,274 625,273 625,273 625,272 625,271 626,270 626,269 626,269 626,269 626,269 626,268 626,269 626,269 626,269 626,270 626,270 626,270 626,270 627,269 627,270 627,271 627,271 627,271 627,272 627,273 627,274 627,274 627,275 627,276 627,276 627,277 628,277 628,277 628,277 628,277 628,277 628,276 628,276 628,276 628,276 628,276 628,276 628,276 629,276 629,276 629,276 629,276 629,276 629,276 629,277 629,278 629,279 629,279 629,280 629,281 629,281 630,282 630,283 630,284 630,285 630,285 630,286 630,286 630,287 630,288 630,288 630,289 630,289 630,289 631,290 631,290 631,291 631,291 631,292 631,292 631,293 631,293 631,293 631,293 631,293 631,293 631,293 632,292 632,292 632,292 632,293 632,293 632,293 632,293 632,293 632,294 632,294 632,294 632,294 632,293 633,293 633,293 633,293 633,292 633,292 633,293 633,293 633,293 633,294 633,294 633,295 633,295 633,296 634,296 634,297 634,297 634,298 634,298 634,298 634,298 634,298 634,299 634,299 634,299 634,299 634,299 635,299 635,300 635,300 635,300 635,300 635,300 635,300 635,300 635,300 635,300 635,300 635,300 635,300 636,300 636,300 636,299 636,299 636,299 636,299 636,300 636,300 636,301 636,301 636,302 636,302 636,303 637,303 637,303 637,303 637,303 637,303 637,303 637,303 637,303 637,303 637,303 637,304 637,304 637,304 638,303 638,303 638,303 638,303 638,303 638,303 638,303 638,303 638,303 638,303 638,303 638,303 638,304 639,304 639,304 639,304 639,304 639,303 639,303 639,303 639,303 639,303 639,303 639,303 639,303 639,303 640,303 640,303 640,303 640,303 640,303 640,302 640,302 640,302 640,302 640,303 640,303 640,303 640,303 641,303 641,303 641,303 641,303 641,303 641,302 641,302 641,302 641,302 641,302 641,302 641,302 641,302 642,302 642,302 642,302 642,301 642,301 642,301 642,301 642,301 642,301 642,300 642,300 642,300 642,300 643,300 643,300 643,300 643,299 643,299 643,299 643,299 643,299 643,299 643,299 643,299 643,299 643,299 644,299 644,299 644,299 644,299 644,299 644,300 644,300 644,300 644,301 644,301 644,302 644,302 644,302 645,302 645,303 645,303 645,303 645,303 645,303 645,303 645,304 645,304 645,304 645,304 645,304 645,304 646,304 646,304 646,304 646,304 646,305 646,305 646,305 646,305 646,305 646,306 646,306 646,306 646,306 647,306 647,306 647,306 647,306 647,307 647,307 647,307 647,308 647,308 647,308 647,309 647,309 647,309 648,309 648,309 648,310 648,310 648,310 648,310 648,310 648,310 648,310 648,310 648,310 648,310 648,310 649,310 649,310 649,310 649,310 649,310 649,310 649,310 649,310 649,310 649,310 649,310 649,310 649,310 650,310 650,310 650,310 650,310 650,310 650,310 650,310 650,310 650,310 650,310 650,310 650,310 650,310 651,311 651,311 651,311 651,311 651,311 651,311 651,310 651,310 651,310 651,310 651,310 651,309 651,309 652,309 652,308 652,308 652,308 652,307 652,307 652,307 652,307 652,307 652,307 652,306 652,306 652,306 653,306 653,306 653,306 653,306 653,306 653,306 653,306 653,306 653,306 653,306 653,306 653,306 653,306 654,306 654,306 654,306 654,306 654,306 654,306 654,306 654,306 654,306 654,306 654,306 654,306 654,306 655,305 655,305 655,305 655,305 655,305 655,305 655,305 655,305 655,305 655,305 655,304 655,304 655,304 656,304 656,304 656,304 656,304 656,304 656,304 656,304 656,305 656,305 656,305 656,305 656,305 657,306 657,306 657,306 657,306 657,306 657,307 657,307 657,307 657,308 657,308 657,308 657,308 657,309 658,309 658,309 658,310 658,310 658,311 658,311 658,312 658,312 658,312 658,313 658,313 658,314 658,315 659,315 659,316 659,316 659,316 659,317 659,317 659,318 659,318 659,318 659,318 659,319 659,319 659,319 660,319 660,319 660,319 660,319 660,319 660,319 660,319 660,319 660,319 660,320 660,320 660,321 660,321 661,322 661,322 661,322 661,321 661,321 661,320 661,320 661,319 661,319 661,319 661,319 661,319 661,319 662,319 662,319 662,319 662,319 662,319 662,319 662,319 662,319 662,319 662,319 662,319 662,319 662,319 663,319 663,319 663,319 663,319 663,320 663,320 663,320 663,320 663,320 663,320 663,320 663,320 663,320 664,320 664,319 664,319 664,319 664,319 664,319 664,319 664,319 664,319 664,319 664,319 664,319 664,319 665,319 665,319 665,319 665,319 665,319 665,319 665,319 665,319 665,319 665,319 665,319 665,319 665,319 666,319 666,319 666,319 666,319 666,319 666,319 666,319 666,319 666,319 666,319 666,319 666,318 666,318 667,318 667,318 667,318 667,318 667,318 667,318 667,318 667,318 667,318 667,318 667,318 667,318 667,318 668,318 668,317 668,317 668,317 668,317 668,317 668,317 668,317 668,317 668,317 668,317 668,317 668,317 669,317 669,317 669,317 669,317 669,317 669,317 669,317 669,317 669,317 669,317 669,317 669,317 669,317 670,317 670,318 670,318 670,318 670,318 670,318 670,318 670,318 670,318 670,319 670,319 670,319 670,319 671,319 671,319 671,319 671,319 671,319 671,319 671,319 671,319 671,319 671,319 671,319 671,320 671,320 672,320 672,320 672,320 672,320 672,320 672,320 672,320 672,320 672,320 672,320 672,320 672,320 672,320 673,320 673,320 673,320 673,320 673,321 673,321 673,321 673,321 673,321 673,321 673,321 673,321 673,321 674,321 674,321 674,321 674,322 674,322 674,321 674,321 674,321 674,321 674,321 674,321 674,321 674,321 675,321 675,321 675,321 675,321 675,321 675,321 675,321 675,321 675,321 675,321 675,322 675,322 675,322 676,322 676,322 676,322 676,322 676,322 676,323 676,323 676,323 676,323 676,323 676,323 676,323 676,324 677,324 677,324 677,324 677,324 677,325 677,325 677,325 677,325 677,326 677,326 677,326 677,327 677,327 678,327 678,327 678,328 678,328 678,328 678,328 678,328 678,329 678,329 678,329 678,329 678,329 678,330 679,330 679,331 679,331 679,332 679,332 679,332 679,332 679,332 679,332 679,332 679,332 679,331 679,331 680,331 680,330 680,330 680,330 680,330 680,329 680,329 680,329 680,329 680,329 680,329 680,329 680,329 681,328 681,328 681,328 681,328 681,328 681,328 681,328 681,328 681,328 681,328 681,328 681,328 681,327 682,327 682,327 682,327 682,327 682,326 682,326 682,326 682,326 682,326 682,326 682,326 682,326 682,326 683,325 683,325 683,325 683,325 683,325 683,325 683,325 683,325 683,325 683,325 683,324 683,324 684,324 684,324 684,324 684,324 684,323 684,323 684,323 684,323 684,323 684,323 684,323 684,322 684,322 685,322 685,322 685,322 685,322 685,321 685,321 685,321 685,321 685,321 685,321 685,321 685,321 685,321 686,321 686,321 686,321 686,321 686,321 686,321 686,321 686,321 686,321 686,321 686,321 686,321 686,321 687,321 687,321 687,321 687,321 687,321 687,321 687,321 687,321 687,321 687,321 687,321 687,321 687,321 688,321 688,321 688,321 688,321 688,321 688,321 688,321 688,321 688,321 688,321 688,321 688,320 688,320 689,320 689,320 689,320 689,320 689,320 689,320 689,321 689,321 689,321 689,321 689,321 689,321 689,321 690,321 690,321 690,321 690,321 690,321 690,321 690,321 690,321 690,321 690,321 690,321 690,321 690,321 691,321 691,321 691,321 691,321 691,321 691,321 691,321 691,321 691,322 691,322 691,322 691,322 691,322 692,322 692,322 692,322 692,322 692,322 692,322 692,322 692,322 692,322 692,322 692,322 692,322 692,322 693,322 693,322 693,322 693,322 693,323 693,323 693,323 693,323 693,323 693,323 693,323 693,323 693,323 694,323 694,323 694,323 694,323 694,323 694,323 694,323 694,323 694,323 694,324 694,324 694,324 694,324 695,323 695,323 695,323 695,323 695,323 695,323 695,323 695,323 695,323 695,323 695,323 695,323 695,323 696,323 696,323 696,323 696,322 696,322 696,322 696,322 696,322 696,322 696,322 696,322 696,322 696,322 697,322 697,322 697,322 697,322 697,322 697,322 697,322 697,322 697,322 697,322 697,322 697,322 697,322 698,322 698,322 698,322 698,322 698,322 698,322 698,322 698,322 698,322 698,322 698,322 698,322 698,322 699,322 699,322 699,322 699,321 699,321 699,321 699,321 699,321 699,321 699,321 699,321 699,321 699,321 700,321 700,321 700,320 700,320 700,320 700,320 700,320 700,320 700,320 700,320 700,320 700,320 700,320 701,320 701,319 701,319 701,319 701,319 701,319 701,319 701,319 701,319 701,319 701,319 701,319 701,319 702,319 702,318 702,318 702,318 702,318 702,318 702,318 702,318 702,318 702,318 702,318 702,317 702,317 703,317 703,317 703,317 703,317 703,317 703,317 703,317 703,317 703,316 703,316 703,316 703,316 703,316 704,316 704,316 704,316 704,316 704,316 704,315 704,315 704,315 704,315 704,315 704,315 704,315 704,315 705,315 705,315 705,315 705,314 705,314 705,314 705,314 705,314 705,314 705,314 705,314 705,314 705,313 706,313 706,313 706,313 706,313 706,313 706,313 706,313 706,313 706,313 706,313 706,312 706,312 706,312 707,312 707,312 707,312 707,312 707,312 707,312 707,311 707,311 707,311 707,311 707,311 707,311 707,311 708,311 708,311 708,310 708,310 708,310 708,310 708,310 708,310 708,310 708,310 708,309 708,309 708,309 709,309 709,309 709,309 709,309 709,308 709,308 709,308 709,308 709,308 709,307 709,307 709,307 709,307 710,307 710,307 710,307 710,307 710,307 710,307 710,306 710,306 710,306 710,306 710,306 710,306 710,305 711,305 711,305 711,305 711,305 711,305 711,304 711,304 711,304 711,304 711,304 711,304 711,303 712,303 712,303 712,303 712,303 712,303 712,302 712,302 712,302 712,302 712,301 712,301 712,301 712,301 713,300 713,300 713,300 713,300 713,299 713,299 713,299 713,299 713,298 713,298 713,298 713,298 713,298 714,298 714,298 714,298 714,298 714,297 714,297 714,297 714,297 714,297 714,297 714,297 714,297 714,297 715,297 715,297 715,297 715,296 715,296 715,296 715,296 715,296 715,296 715,296 715,296 715,295 715,295 716,295 716,295 716,295 716,295 716,295 716,295 716,295 716,295 716,295 716,294 716,294 716,294 716,294 717,294 717,294 717,294 717,294 717,294 717,294 717,293 717,293 717,293 717,293 717,293 717,293 717,292 718,292 718,292 718,291 718,291 718,290 718,290 718,290 718,289 718,289 718,289 718,288 718,288 718,287 719,287 719,287 719,286 719,286 719,285 719,285 719,284 719,284 719,283 719,282 719,281 719,280 719,280 720,279 720,278 720,277 720,276 720,276 720,275 720,275 720,275 720,275 720,275 720,275 720,274 720,274 721,274 721,274 721,274 721,274 721,273 721,273 721,273 721,273 721,273 721,274 721,274 721,275 721,275 722,276 722,277 722,277 722,277 722,278 722,278 722,277 722,276 722,275 722,274 722,274 722,273 722,273 723,273 723,273 723,272 723,272 723,272 723,272 723,271 723,271 723,271 723,270 723,270 723,269 723,269 724,269 724,269 724,268 724,268 724,268 724,268 724,267 724,267 724,267 724,267 724,266 724,266 724,266 725,266 725,266 725,266 725,266 725,266 725,266 725,266 725,265 725,265 725,265 725,265 725,265 725,265 726,265 726,265 726,265 726,265 726,265 726,265 726,265 726,265 726,264 726,264 726,264 726,264 726,264 727,264 727,264 727,265 727,265 727,265 727,265 727,265 727,265 727,265 727,265 727,265 727,265 727,266 728,266 728,266 728,267 728,267 728,267 728,267 728,267 728,267 728,267 728,267 728,267 728,267 728,267 729,267 729,267 729,267 729,268 729,268 729,268 729,268 729,268 729,268 729,268 729,268 729,269 729,269 730,269 730,269 730,269 730,269 730,269 730,269 730,270 730,270 730,270 730,270 730,270 730,270 730,270 731,270 731,270 731,270 731,270 731,271 731,271 731,271 731,271 731,271 731,271 731,271 731,271 731,271 732,271 732,271 732,271 732,271 732,271 732,271 732,271 732,272 732,272 732,272 732,272 732,272 732,272 733,273 733,273 733,273 733,273 733,273 733,273 733,273 733,273 733,273 733,273 733,274 733,274 733,274 734,274 734,274 734,274 734,274 734,274 734,274 734,274 734,274 734,274 734,275 734,275 734,275 734,275 735,275 735,275 735,275 735,275 735,275 735,275 735,275 735,275 735,275 735,275 735,275 735,275 735,275 736,275 736,275 736,275 736,276 736,276 736,276 736,276 736,276 736,276 736,276 736,276 " vector-effect="non-scaling-stroke"></polyline>
</g></svg>