<?xml version="1.0" encoding="UTF-8" standalone="no"?><svg width="282.222mm" height="141.111mm" xmlns="http://www.w3.org/2000/svg" xmlns:xlink="http://www.w3.org/1999/xlink"  version="1.2" baseProfile="tiny"><g fill="none" stroke="#ff0000" stroke-linecap="round" stroke-linejoin="round" stroke-opacity="1" stroke-width="1.5" transform="matrix(1,0,0,1,0,0)">
<polyline fill="none" points="58,232 58,231 59,230 59,229 59,228 59,227 59,226 59,225 59,224 59,224 59,223 59,223 59,222 59,222 59,221 60,220 60,220 60,219 60,219 60,218 60,218 60,218 60,218 60,217 60,217 60,217 60,216 60,216 61,215 61,215 61,215 61,215 61,215 61,214 61,214 61,214 61,214 61,215 61,215 61,215 61,215 62,216 62,216 62,216 62,217 62,217 62,217 62,218 62,218 62,219 62,219 62,219 62,220 62,220 63,221 63,221 63,222 63,222 63,223 63,223 63,223 63,224 63,225 63,225 63,226 63,226 63,227 64,228 64,228 64,229 64,229 64,230 64,231 64,232 64,232 64,233 64,234 64,234 64,235 64,236 65,236 65,237 65,238 65,238 65,239 65,239 65,239 65,239 65,239 65,239 65,239 65,239 65,238 66,238 66,237 66,237 66,236 66,236 66,235 66,235 66,234 66,234 66,233 66,233 66,232 67,232 67,231 67,230 67,230 67,229 67,229 67,228 67,228 67,227 67,227 67,226 67,226 67,226 68,225 68,225 68,224 68,224 68,224 68,223 68,223 68,223 68,222 68,222 68,222 68,222 68,222 69,221 69,221 69,221 69,221 69,221 69,220 69,220 69,220 69,220 69,220 69,220 69,220 69,220 70,219 70,219 70,219 70,219 70,219 70,219 70,219 70,219 70,219 70,219 70,219 70,219 70,219 71,220 71,220 71,220 71,220 71,221 71,221 71,222 71,222 71,223 71,223 71,224 71,224 71,225 72,225 72,225 72,226 72,226 72,227 72,227 72,228 72,228 72,229 72,230 72,230 72,231 72,231 73,232 73,233 73,233 73,234 73,234 73,235 73,236 73,236 73,237 73,237 73,238 73,238 73,239 74,239 74,240 74,240 74,241 74,242 74,242 74,243 74,243 74,244 74,244 74,245 74,245 74,246 75,247 75,247 75,248 75,248 75,249 75,250 75,250 75,251 75,251 75,252 75,252 75,253 75,253 76,253 76,253 76,253 76,253 76,254 76,254 76,254 76,254 76,254 76,254 76,254 76,254 76,253 77,253 77,253 77,253 77,252 77,252 77,252 77,251 77,251 77,250 77,250 77,249 77,249 77,249 78,249 78,249 78,249 78,249 78,249 78,250 78,249 78,249 78,249 78,249 78,248 78,248 78,247 79,246 79,245 79,245 79,244 79,244 79,243 79,242 79,242 79,241 79,241 79,240 79,240 79,239 80,238 80,238 80,237 80,236 80,235 80,235 80,234 80,234 80,233 80,233 80,232 80,232 80,232 81,232 81,232 81,231 81,231 81,230 81,230 81,229 81,229 81,228 81,228 81,228 81,228 81,228 82,228 82,228 82,228 82,228 82,228 82,227 82,227 82,227 82,227 82,227 82,227 82,227 82,227 83,227 83,227 83,227 83,227 83,227 83,227 83,227 83,227 83,227 83,227 83,227 83,227 83,227 84,227 84,227 84,227 84,226 84,226 84,225 84,225 84,225 84,225 84,225 84,226 84,226 84,226 85,227 85,227 85,227 85,226 85,226 85,226 85,227 85,227 85,227 85,227 85,227 85,227 85,227 86,227 86,227 86,227 86,227 86,227 86,227 86,226 86,226 86,226 86,226 86,226 86,226 86,226 87,226 87,226 87,226 87,226 87,226 87,226 87,226 87,226 87,226 87,226 87,226 87,226 87,226 88,227 88,227 88,227 88,227 88,227 88,227 88,227 88,227 88,228 88,228 88,228 88,228 88,228 89,228 89,228 89,229 89,229 89,229 89,229 89,229 89,229 89,230 89,230 89,230 89,230 89,230 90,230 90,231 90,231 90,231 90,231 90,231 90,231 90,231 90,231 90,231 90,231 90,231 90,231 91,232 91,232 91,232 91,232 91,232 91,232 91,232 91,232 91,232 91,232 91,232 91,232 91,232 92,232 92,232 92,232 92,232 92,233 92,233 92,233 92,233 92,233 92,233 92,233 92,233 93,233 93,234 93,234 93,234 93,234 93,234 93,234 93,235 93,235 93,235 93,236 93,236 93,236 94,237 94,237 94,237 94,237 94,238 94,238 94,239 94,239 94,240 94,240 94,241 94,241 94,242 95,242 95,243 95,244 95,245 95,246 95,247 95,247 95,248 95,249 95,250 95,250 95,250 95,251 96,251 96,252 96,253 96,253 96,254 96,255 96,256 96,257 96,257 96,258 96,259 96,260 96,261 97,261 97,262 97,262 97,262 97,263 97,263 97,264 97,264 97,265 97,265 97,266 97,266 97,267 98,267 98,268 98,268 98,269 98,269 98,270 98,270 98,270 98,270 98,270 98,271 98,271 98,271 99,271 99,271 99,272 99,272 99,272 99,273 99,274 99,275 99,275 99,276 99,277 99,278 99,279 100,280 100,281 100,282 100,283 100,284 100,286 100,287 100,288 100,289 100,290 100,291 100,291 100,292 101,293 101,294 101,294 101,295 101,295 101,295 101,295 101,295 101,295 101,295 101,295 101,294 101,294 102,294 102,294 102,294 102,293 102,293 102,293 102,293 102,293 102,293 102,292 102,292 102,292 102,292 103,292 103,292 103,292 103,292 103,292 103,292 103,292 103,292 103,292 103,292 103,292 103,292 103,292 104,292 104,292 104,291 104,291 104,291 104,291 104,291 104,290 104,290 104,289 104,289 104,289 104,290 105,290 105,290 105,290 105,290 105,290 105,290 105,290 105,290 105,290 105,290 105,290 105,290 105,290 106,290 106,290 106,290 106,290 106,290 106,290 106,290 106,290 106,290 106,290 106,290 106,290 106,290 107,291 107,291 107,291 107,291 107,291 107,291 107,292 107,292 107,292 107,292 107,292 107,292 107,292 108,291 108,291 108,291 108,291 108,291 108,291 108,291 108,291 108,290 108,290 108,290 108,290 108,291 109,290 109,290 109,290 109,290 109,291 109,291 109,291 109,291 109,291 109,291 109,291 109,291 109,291 110,291 110,290 110,290 110,290 110,290 110,290 110,290 110,290 110,289 110,289 110,289 110,289 110,289 111,289 111,289 111,289 111,289 111,289 111,289 111,289 111,289 111,289 111,289 111,289 111,289 111,289 112,289 112,289 112,289 112,289 112,289 112,289 112,290 112,289 112,289 112,289 112,289 112,289 112,289 113,289 113,289 113,289 113,289 113,289 113,289 113,289 113,289 113,289 113,289 113,289 113,289 113,289 114,289 114,289 114,289 114,290 114,290 114,291 114,290 114,291 114,291 114,291 114,291 114,291 114,290 115,291 115,291 115,291 115,291 115,291 115,291 115,291 115,291 115,291 115,291 115,291 115,290 115,290 116,290 116,290 116,290 116,290 116,290 116,290 116,290 116,290 116,290 116,290 116,290 116,290 116,290 117,290 117,290 117,290 117,290 117,290 117,290 117,290 117,290 117,290 117,290 117,290 117,290 117,290 118,290 118,290 118,290 118,290 118,289 118,289 118,289 118,289 118,289 118,288 118,288 118,288 119,288 119,287 119,287 119,286 119,286 119,286 119,285 119,285 119,285 119,284 119,284 119,284 119,284 120,284 120,284 120,283 120,283 120,283 120,283 120,283 120,283 120,283 120,283 120,282 120,282 120,282 121,282 121,282 121,282 121,282 121,281 121,281 121,281 121,281 121,282 121,282 121,282 121,282 121,282 122,281 122,281 122,281 122,281 122,282 122,282 122,283 122,283 122,284 122,284 122,285 122,287 122,287 123,287 123,288 123,288 123,288 123,288 123,289 123,289 123,289 123,289 123,288 123,288 123,288 123,288 124,288 124,288 124,288 124,288 124,287 124,287 124,287 124,287 124,286 124,285 124,284 124,284 124,283 125,283 125,282 125,281 125,279 125,277 125,275 125,273 125,272 125,271 125,270 125,269 125,268 125,266 126,265 126,263 126,262 126,262 126,261 126,261 126,260 126,259 126,259 126,258 126,257 126,256 126,256 127,255 127,255 127,254 127,254 127,253 127,253 127,252 127,252 127,251 127,251 127,251 127,251 127,251 128,250 128,250 128,250 128,250 128,250 128,249 128,249 128,249 128,249 128,249 128,249 128,249 128,249 129,249 129,249 129,249 129,249 129,250 129,250 129,250 129,250 129,250 129,251 129,251 129,251 129,252 130,252 130,253 130,253 130,254 130,254 130,255 130,256 130,256 130,257 130,258 130,258 130,259 130,260 131,260 131,261 131,262 131,262 131,263 131,264 131,264 131,265 131,266 131,266 131,267 131,267 131,268 132,269 132,269 132,269 132,270 132,270 132,270 132,270 132,270 132,270 132,269 132,269 132,268 132,267 133,267 133,266 133,266 133,265 133,264 133,264 133,263 133,262 133,262 133,261 133,261 133,260 133,260 134,259 134,259 134,259 134,258 134,258 134,258 134,258 134,259 134,259 134,259 134,260 134,260 134,260 135,261 135,261 135,262 135,262 135,263 135,263 135,263 135,263 135,264 135,265 135,267 135,269 135,271 136,273 136,275 136,277 136,279 136,281 136,283 136,284 136,284 136,285 136,285 136,285 136,285 136,285 137,284 137,284 137,284 137,284 137,284 137,284 137,285 137,285 137,285 137,285 137,285 137,285 137,285 138,285 138,285 138,285 138,285 138,285 138,284 138,284 138,284 138,284 138,284 138,284 138,284 138,284 139,284 139,283 139,283 139,282 139,281 139,281 139,280 139,280 139,279 139,279 139,278 139,277 139,277 140,276 140,275 140,274 140,274 140,273 140,273 140,273 140,273 140,273 140,273 140,273 140,273 140,272 141,272 141,272 141,272 141,272 141,272 141,271 141,270 141,270 141,269 141,269 141,268 141,268 141,267 142,267 142,266 142,266 142,265 142,265 142,264 142,264 142,263 142,263 142,262 142,261 142,261 142,260 143,259 143,259 143,258 143,258 143,257 143,257 143,256 143,256 143,255 143,254 143,254 143,253 143,252 144,251 144,250 144,249 144,248 144,247 144,246 144,245 144,244 144,244 144,243 144,242 144,241 145,240 145,240 145,239 145,238 145,238 145,238 145,238 145,238 145,238 145,238 145,238 145,238 145,238 146,238 146,238 146,238 146,238 146,238 146,238 146,238 146,238 146,239 146,239 146,239 146,239 146,239 147,239 147,239 147,239 147,240 147,240 147,240 147,240 147,240 147,241 147,241 147,241 147,242 147,242 148,243 148,243 148,244 148,245 148,245 148,246 148,246 148,247 148,248 148,249 148,249 148,250 148,250 149,251 149,251 149,251 149,251 149,251 149,251 149,250 149,250 149,250 149,250 149,250 149,249 149,250 150,249 150,249 150,249 150,248 150,248 150,248 150,248 150,248 150,248 150,248 150,248 150,248 150,248 151,249 151,249 151,249 151,250 151,250 151,251 151,251 151,251 151,252 151,252 151,252 151,253 151,253 152,253 152,253 152,253 152,253 152,253 152,252 152,252 152,252 152,251 152,251 152,250 152,250 152,250 153,249 153,249 153,249 153,248 153,248 153,248 153,248 153,248 153,248 153,248 153,248 153,248 153,248 154,249 154,249 154,249 154,249 154,249 154,249 154,249 154,250 154,249 154,249 154,249 154,249 154,250 155,251 155,252 155,254 155,257 155,260 155,263 155,265 155,268 155,271 155,273 155,275 155,276 155,277 156,278 156,278 156,278 156,278 156,278 156,278 156,278 156,278 156,278 156,277 156,277 156,276 156,275 157,275 157,274 157,274 157,273 157,273 157,272 157,272 157,271 157,270 157,270 157,269 157,269 157,268 158,268 158,267 158,266 158,266 158,265 158,265 158,265 158,265 158,265 158,264 158,264 158,264 158,264 159,264 159,264 159,264 159,264 159,265 159,265 159,265 159,266 159,266 159,267 159,267 159,268 159,268 160,269 160,269 160,269 160,269 160,269 160,269 160,270 160,269 160,270 160,270 160,271 160,271 160,271 161,272 161,272 161,272 161,273 161,273 161,274 161,274 161,275 161,275 161,275 161,276 161,276 161,277 162,277 162,277 162,277 162,276 162,276 162,276 162,275 162,274 162,273 162,272 162,271 162,271 162,270 163,270 163,270 163,270 163,269 163,269 163,269 163,269 163,269 163,269 163,268 163,268 163,268 163,268 164,268 164,268 164,268 164,268 164,268 164,268 164,268 164,268 164,267 164,267 164,268 164,268 164,268 165,269 165,269 165,269 165,270 165,270 165,270 165,270 165,270 165,270 165,271 165,271 165,272 165,272 166,272 166,273 166,273 166,273 166,273 166,273 166,273 166,272 166,271 166,271 166,270 166,270 166,270 167,270 167,268 167,268 167,267 167,267 167,266 167,266 167,265 167,264 167,264 167,263 167,262 167,262 168,261 168,260 168,260 168,259 168,258 168,258 168,257 168,257 168,256 168,256 168,256 168,256 168,255 169,255 169,256 169,256 169,256 169,256 169,256 169,257 169,257 169,257 169,258 169,258 169,259 170,259 170,259 170,260 170,260 170,260 170,260 170,260 170,261 170,261 170,261 170,261 170,261 170,261 171,260 171,260 171,260 171,260 171,260 171,260 171,259 171,259 171,259 171,259 171,259 171,259 171,259 172,260 172,260 172,260 172,260 172,261 172,261 172,261 172,261 172,260 172,260 172,260 172,260 172,259 173,259 173,259 173,258 173,258 173,258 173,258 173,257 173,257 173,257 173,256 173,256 173,256 173,255 174,255 174,255 174,254 174,254 174,254 174,254 174,253 174,253 174,253 174,252 174,252 174,252 174,252 175,252 175,251 175,251 175,251 175,250 175,250 175,249 175,249 175,248 175,248 175,247 175,246 175,246 176,245 176,245 176,245 176,244 176,244 176,243 176,243 176,242 176,242 176,242 176,241 176,241 176,241 177,241 177,240 177,240 177,240 177,239 177,239 177,239 177,239 177,239 177,239 177,239 177,238 177,238 178,237 178,237 178,236 178,235 178,234 178,233 178,233 178,232 178,232 178,231 178,231 178,230 178,230 179,229 179,229 179,228 179,228 179,227 179,227 179,226 179,225 179,225 179,224 179,223 179,222 179,222 180,221 180,220 180,219 180,218 180,217 180,216 180,215 180,215 180,214 180,213 180,212 180,212 180,211 181,210 181,210 181,210 181,211 181,211 181,211 181,211 181,211 181,211 181,211 181,212 181,212 181,212 182,212 182,212 182,212 182,213 182,213 182,213 182,213 182,213 182,213 182,212 182,212 182,211 182,212 183,212 183,212 183,212 183,212 183,214 183,215 183,217 183,218 183,218 183,219 183,220 183,220 183,219 184,218 184,217 184,216 184,215 184,215 184,214 184,214 184,213 184,213 184,212 184,212 184,211 184,211 185,210 185,210 185,210 185,209 185,209 185,209 185,208 185,208 185,208 185,208 185,207 185,207 185,207 186,207 186,207 186,207 186,206 186,206 186,206 186,206 186,206 186,206 186,206 186,206 186,206 186,206 187,206 187,207 187,207 187,207 187,208 187,208 187,208 187,208 187,209 187,209 187,209 187,209 187,209 188,209 188,209 188,209 188,209 188,209 188,208 188,208 188,208 188,208 188,208 188,207 188,207 188,208 189,209 189,210 189,210 189,211 189,211 189,212 189,212 189,213 189,213 189,214 189,214 189,215 189,215 190,215 190,217 190,218 190,219 190,220 190,220 190,219 190,219 190,219 190,219 190,219 190,219 190,219 191,219 191,219 191,219 191,219 191,219 191,219 191,219 191,219 191,219 191,219 191,219 191,219 191,219 192,219 192,219 192,218 192,218 192,218 192,218 192,218 192,218 192,218 192,217 192,217 192,217 192,217 193,217 193,217 193,217 193,217 193,216 193,216 193,216 193,216 193,216 193,216 193,217 193,217 193,218 194,219 194,219 194,220 194,221 194,221 194,222 194,222 194,222 194,223 194,224 194,224 194,225 194,225 195,225 195,226 195,226 195,226 195,227 195,227 195,227 195,227 195,227 195,227 195,227 195,227 196,227 196,227 196,227 196,227 196,227 196,227 196,226 196,227 196,226 196,226 196,226 196,226 196,226 197,226 197,226 197,226 197,226 197,226 197,226 197,225 197,225 197,225 197,225 197,225 197,225 197,225 198,225 198,225 198,224 198,224 198,224 198,224 198,223 198,223 198,222 198,222 198,221 198,221 198,221 199,220 199,220 199,219 199,218 199,218 199,217 199,216 199,216 199,215 199,215 199,215 199,215 199,215 200,215 200,216 200,216 200,216 200,216 200,216 200,216 200,216 200,216 200,216 200,217 200,217 200,217 201,218 201,218 201,218 201,217 201,216 201,215 201,214 201,213 201,211 201,210 201,209 201,208 201,207 202,206 202,205 202,205 202,204 202,203 202,202 202,201 202,201 202,200 202,199 202,199 202,198 202,198 203,197 203,196 203,196 203,195 203,195 203,194 203,194 203,193 203,193 203,192 203,192 203,191 203,191 204,190 204,190 204,189 204,189 204,188 204,188 204,187 204,187 204,187 204,186 204,186 204,185 204,185 205,185 205,184 205,184 205,183 205,183 205,183 205,183 205,182 205,182 205,182 205,182 205,182 205,182 206,182 206,182 206,182 206,182 206,182 206,182 206,182 206,182 206,182 206,182 206,182 206,183 206,183 207,183 207,183 207,184 207,184 207,184 207,184 207,185 207,185 207,185 207,185 207,185 207,185 207,185 208,185 208,185 208,185 208,186 208,186 208,186 208,186 208,187 208,187 208,188 208,188 208,189 208,189 209,190 209,190 209,191 209,191 209,192 209,192 209,193 209,193 209,194 209,194 209,194 209,195 209,195 210,196 210,196 210,196 210,196 210,197 210,197 210,197 210,197 210,197 210,197 210,197 210,198 210,198 211,198 211,198 211,198 211,198 211,198 211,198 211,198 211,198 211,198 211,199 211,199 211,199 211,199 212,199 212,199 212,199 212,199 212,200 212,200 212,200 212,200 212,201 212,201 212,202 212,202 212,203 213,203 213,204 213,204 213,205 213,205 213,206 213,206 213,206 213,207 213,208 213,208 213,209 213,209 214,210 214,210 214,211 214,213 214,214 214,214 214,215 214,216 214,218 214,220 214,221 214,223 214,225 215,226 215,228 215,229 215,230 215,232 215,234 215,236 215,238 215,240 215,242 215,244 215,245 215,246 216,246 216,246 216,246 216,247 216,247 216,247 216,247 216,247 216,247 216,247 216,247 216,247 216,247 217,247 217,247 217,247 217,247 217,247 217,247 217,247 217,247 217,247 217,247 217,247 217,247 217,247 218,247 218,247 218,247 218,247 218,247 218,247 218,247 218,247 218,247 218,247 218,247 218,246 218,246 219,246 219,246 219,246 219,246 219,246 219,246 219,246 219,246 219,246 219,246 219,246 219,246 219,246 220,246 220,246 220,247 220,247 220,247 220,247 220,247 220,247 220,248 220,248 220,248 220,249 220,249 221,249 221,250 221,250 221,250 221,250 221,251 221,251 221,251 221,251 221,251 221,251 221,251 222,251 222,251 222,251 222,251 222,251 222,251 222,250 222,250 222,250 222,250 222,250 222,250 222,250 223,249 223,249 223,249 223,249 223,249 223,249 223,249 223,248 223,248 223,247 223,247 223,247 223,246 224,246 224,245 224,245 224,244 224,244 224,243 224,243 224,242 224,242 224,241 224,241 224,240 224,240 225,240 225,239 225,239 225,239 225,238 225,238 225,238 225,237 225,237 225,237 225,236 225,236 225,235 226,235 226,235 226,234 226,234 226,234 226,234 226,234 226,234 226,234 226,234 226,234 226,234 226,234 227,234 227,234 227,234 227,234 227,234 227,234 227,234 227,234 227,234 227,234 227,233 227,233 227,233 228,233 228,234 228,234 228,235 228,234 228,233 228,232 228,231 228,231 228,229 228,228 228,226 228,225 229,223 229,222 229,220 229,219 229,218 229,218 229,217 229,215 229,214 229,213 229,212 229,211 229,211 230,210 230,209 230,209 230,208 230,208 230,207 230,207 230,206 230,206 230,206 230,205 230,205 230,205 231,205 231,205 231,205 231,205 231,206 231,206 231,206 231,207 231,207 231,207 231,207 231,207 231,207 232,207 232,207 232,207 232,206 232,206 232,206 232,206 232,206 232,207 232,207 232,207 232,207 232,207 233,207 233,207 233,207 233,207 233,207 233,207 233,207 233,207 233,207 233,207 233,208 233,208 233,209 234,209 234,210 234,210 234,210 234,210 234,211 234,211 234,210 234,210 234,210 234,209 234,208 234,208 235,207 235,207 235,206 235,206 235,206 235,206 235,206 235,206 235,206 235,206 235,206 235,206 235,206 236,206 236,206 236,206 236,206 236,205 236,205 236,205 236,204 236,204 236,204 236,204 236,204 236,203 237,203 237,202 237,202 237,202 237,201 237,201 237,200 237,200 237,200 237,199 237,199 237,199 237,198 238,198 238,198 238,197 238,197 238,196 238,196 238,196 238,195 238,195 238,194 238,194 238,194 238,193 239,193 239,192 239,192 239,192 239,192 239,191 239,191 239,191 239,191 239,191 239,191 239,190 239,190 240,190 240,190 240,190 240,190 240,190 240,190 240,190 240,190 240,190 240,191 240,191 240,192 240,192 241,193 241,193 241,194 241,195 241,195 241,196 241,196 241,197 241,197 241,198 241,199 241,200 241,200 242,200 242,200 242,201 242,201 242,201 242,202 242,202 242,203 242,204 242,204 242,205 242,205 242,206 243,206 243,207 243,207 243,208 243,209 243,209 243,208 243,208 243,207 243,207 243,205 243,204 243,203 244,203 244,202 244,202 244,202 244,202 244,201 244,201 244,201 244,201 244,201 244,201 244,201 244,202 245,202 245,202 245,203 245,203 245,203 245,203 245,204 245,204 245,204 245,205 245,205 245,205 245,206 246,206 246,206 246,206 246,206 246,206 246,206 246,206 246,206 246,206 246,205 246,205 246,205 246,204 247,204 247,204 247,204 247,203 247,203 247,203 247,203 247,203 247,203 247,203 247,203 247,202 248,203 248,203 248,203 248,203 248,203 248,203 248,203 248,204 248,204 248,204 248,205 248,205 248,206 249,206 249,207 249,207 249,208 249,208 249,209 249,209 249,210 249,211 249,211 249,212 249,212 249,213 250,213 250,214 250,214 250,215 250,215 250,215 250,215 250,216 250,216 250,216 250,216 250,216 250,216 251,216 251,216 251,215 251,215 251,215 251,215 251,215 251,214 251,214 251,214 251,213 251,213 251,212 252,212 252,212 252,211 252,211 252,211 252,211 252,210 252,210 252,210 252,210 252,210 252,210 252,210 253,211 253,211 253,211 253,212 253,212 253,213 253,213 253,213 253,214 253,215 253,215 253,216 253,216 254,217 254,218 254,219 254,219 254,220 254,220 254,220 254,220 254,220 254,220 254,219 254,219 254,219 255,219 255,219 255,218 255,218 255,217 255,217 255,216 255,216 255,215 255,215 255,214 255,214 255,213 256,213 256,212 256,212 256,212 256,212 256,212 256,212 256,212 256,212 256,213 256,213 256,214 256,214 257,214 257,215 257,215 257,216 257,216 257,216 257,216 257,216 257,215 257,215 257,215 257,215 257,215 258,214 258,214 258,214 258,213 258,213 258,212 258,212 258,212 258,211 258,211 258,210 258,210 258,209 259,209 259,208 259,208 259,208 259,207 259,207 259,207 259,207 259,207 259,207 259,207 259,207 259,208 260,208 260,208 260,208 260,209 260,209 260,209 260,209 260,210 260,210 260,211 260,211 260,211 260,212 261,212 261,212 261,213 261,213 261,214 261,214 261,214 261,215 261,215 261,215 261,216 261,216 261,216 262,217 262,217 262,217 262,217 262,218 262,218 262,218 262,218 262,219 262,220 262,220 262,220 262,221 263,221 263,221 263,222 263,222 263,221 263,221 263,221 263,221 263,221 263,221 263,220 263,220 263,220 264,219 264,219 264,219 264,218 264,218 264,218 264,217 264,217 264,217 264,216 264,216 264,216 264,215 265,215 265,215 265,215 265,214 265,214 265,214 265,214 265,214 265,214 265,214 265,214 265,214 265,214 266,214 266,213 266,213 266,213 266,213 266,213 266,213 266,212 266,212 266,212 266,212 266,213 266,212 267,212 267,212 267,211 267,211 267,211 267,211 267,211 267,211 267,211 267,211 267,210 267,210 267,210 268,210 268,209 268,209 268,209 268,209 268,209 268,209 268,208 268,208 268,208 268,208 268,207 268,207 269,207 269,207 269,207 269,208 269,208 269,208 269,209 269,209 269,210 269,210 269,211 269,211 269,212 270,212 270,213 270,213 270,214 270,215 270,216 270,217 270,218 270,218 270,219 270,220 270,220 270,220 271,220 271,220 271,220 271,220 271,220 271,220 271,220 271,219 271,219 271,218 271,218 271,218 271,218 272,217 272,217 272,217 272,216 272,216 272,216 272,216 272,216 272,216 272,215 272,215 272,215 272,215 273,215 273,215 273,215 273,215 273,215 273,216 273,216 273,216 273,216 273,216 273,216 273,216 274,216 274,216 274,217 274,217 274,217 274,217 274,218 274,218 274,218 274,218 274,218 274,218 274,218 275,218 275,218 275,218 275,218 275,218 275,218 275,218 275,218 275,218 275,218 275,218 275,218 275,218 276,218 276,218 276,218 276,218 276,218 276,218 276,218 276,218 276,218 276,218 276,218 276,218 276,218 277,218 277,218 277,218 277,218 277,218 277,218 277,218 277,218 277,218 277,218 277,218 277,218 277,217 278,217 278,217 278,217 278,216 278,216 278,216 278,215 278,215 278,215 278,214 278,214 278,214 278,214 279,214 279,214 279,214 279,214 279,214 279,213 279,213 279,213 279,213 279,213 279,213 279,213 279,213 280,213 280,213 280,213 280,213 280,213 280,213 280,214 280,214 280,214 280,213 280,213 280,213 280,213 281,213 281,213 281,213 281,212 281,212 281,211 281,211 281,211 281,210 281,210 281,209 281,209 281,208 282,208 282,208 282,208 282,207 282,207 282,207 282,207 282,207 282,206 282,206 282,206 282,206 282,206 283,206 283,205 283,205 283,205 283,204 283,204 283,204 283,204 283,203 283,203 283,203 283,203 283,202 284,202 284,202 284,202 284,202 284,203 284,203 284,202 284,202 284,202 284,202 284,201 284,201 284,201 285,200 285,200 285,200 285,199 285,199 285,199 285,198 285,198 285,197 285,197 285,197 285,196 285,196 286,196 286,196 286,195 286,195 286,195 286,195 286,196 286,196 286,196 286,195 286,195 286,195 286,195 287,195 287,195 287,195 287,195 287,195 287,194 287,194 287,194 287,194 287,194 287,194 287,193 287,193 288,193 288,193 288,193 288,193 288,192 288,193 288,193 288,193 288,193 288,193 288,193 288,193 288,194 289,194 289,194 289,194 289,194 289,194 289,194 289,194 289,194 289,194 289,194 289,195 289,195 289,195 290,195 290,195 290,195 290,195 290,195 290,195 290,194 290,194 290,194 290,194 290,194 290,194 290,194 291,194 291,194 291,194 291,193 291,193 291,193 291,193 291,193 291,193 291,193 291,193 291,193 291,193 292,193 292,193 292,193 292,193 292,192 292,192 292,192 292,192 292,192 292,191 292,191 292,191 292,191 293,190 293,190 293,190 293,189 293,189 293,189 293,189 293,189 293,188 293,188 293,188 293,188 293,188 294,188 294,188 294,188 294,188 294,188 294,188 294,188 294,189 294,189 294,189 294,189 294,189 294,189 295,189 295,190 295,190 295,190 295,190 295,190 295,190 295,190 295,190 295,190 295,190 295,191 295,191 296,191 296,191 296,191 296,191 296,191 296,191 296,191 296,191 296,191 296,192 296,192 296,192 296,191 297,191 297,191 297,192 297,192 297,192 297,192 297,192 297,192 297,192 297,192 297,192 297,193 297,193 298,193 298,193 298,193 298,193 298,193 298,193 298,193 298,193 298,193 298,193 298,193 298,193 298,193 299,193 299,193 299,193 299,193 299,193 299,193 299,192 299,192 299,192 299,192 299,192 299,192 300,192 300,192 300,192 300,191 300,191 300,191 300,190 300,190 300,190 300,190 300,190 300,190 300,190 301,189 301,189 301,189 301,189 301,189 301,189 301,188 301,188 301,188 301,188 301,187 301,187 301,187 302,187 302,186 302,186 302,186 302,186 302,186 302,185 302,185 302,185 302,185 302,185 302,184 302,184 303,184 303,184 303,184 303,183 303,183 303,183 303,183 303,183 303,182 303,182 303,182 303,182 303,182 304,182 304,182 304,182 304,182 304,182 304,182 304,182 304,182 304,182 304,182 304,181 304,181 304,182 305,182 305,182 305,182 305,182 305,182 305,183 305,183 305,183 305,183 305,183 305,184 305,184 305,184 306,185 306,185 306,185 306,185 306,186 306,186 306,186 306,186 306,186 306,186 306,186 306,186 306,186 307,186 307,186 307,185 307,185 307,185 307,185 307,185 307,185 307,185 307,185 307,185 307,185 307,185 308,185 308,185 308,185 308,185 308,185 308,185 308,185 308,186 308,185 308,185 308,185 308,185 308,185 309,185 309,185 309,185 309,186 309,186 309,186 309,186 309,186 309,187 309,187 309,187 309,188 309,188 310,189 310,189 310,190 310,191 310,192 310,193 310,194 310,194 310,195 310,195 310,196 310,196 310,197 311,197 311,197 311,198 311,198 311,198 311,198 311,199 311,199 311,199 311,199 311,199 311,200 311,200 312,200 312,200 312,200 312,200 312,200 312,200 312,200 312,200 312,200 312,200 312,200 312,200 312,199 313,199 313,199 313,199 313,199 313,199 313,199 313,199 313,199 313,199 313,199 313,199 313,199 313,199 314,199 314,199 314,199 314,199 314,199 314,199 314,199 314,199 314,199 314,199 314,199 314,199 314,199 315,199 315,199 315,199 315,198 315,198 315,198 315,198 315,198 315,198 315,198 315,198 315,198 315,198 316,198 316,198 316,198 316,198 316,198 316,198 316,198 316,198 316,198 316,198 316,198 316,198 316,198 317,197 317,197 317,197 317,197 317,197 317,197 317,197 317,197 317,197 317,197 317,197 317,197 317,197 318,196 318,196 318,196 318,196 318,196 318,195 318,195 318,195 318,195 318,195 318,195 318,195 318,196 319,196 319,196 319,196 319,196 319,195 319,195 319,195 319,195 319,195 319,195 319,195 319,195 319,195 320,195 320,195 320,195 320,195 320,195 320,195 320,195 320,195 320,195 320,195 320,195 320,194 320,194 321,194 321,194 321,194 321,194 321,194 321,194 321,194 321,194 321,194 321,194 321,194 321,194 321,194 322,193 322,193 322,193 322,193 322,193 322,193 322,193 322,193 322,193 322,193 322,193 322,193 322,193 323,193 323,193 323,193 323,193 323,193 323,193 323,193 323,193 323,193 323,193 323,193 323,193 323,193 324,193 324,193 324,193 324,193 324,193 324,193 324,193 324,193 324,193 324,193 324,193 324,193 324,193 325,193 325,194 325,193 325,193 325,193 325,193 325,193 325,193 325,193 325,192 325,192 325,192 326,192 326,192 326,192 326,192 326,192 326,192 326,192 326,191 326,191 326,191 326,191 326,191 326,191 327,191 327,191 327,191 327,191 327,191 327,191 327,191 327,190 327,190 327,190 327,190 327,190 327,190 328,190 328,190 328,190 328,190 328,190 328,190 328,190 328,189 328,189 328,189 328,189 328,189 328,189 329,189 329,189 329,188 329,188 329,188 329,188 329,188 329,188 329,188 329,188 329,188 329,188 329,188 330,188 330,188 330,188 330,188 330,188 330,187 330,187 330,187 330,187 330,187 330,187 330,187 330,187 331,186 331,186 331,186 331,186 331,186 331,186 331,185 331,185 331,185 331,185 331,185 331,185 331,185 332,185 332,185 332,184 332,184 332,184 332,184 332,183 332,183 332,183 332,183 332,183 332,183 332,183 333,183 333,182 333,182 333,182 333,181 333,181 333,181 333,181 333,180 333,180 333,180 333,180 333,179 334,179 334,179 334,179 334,178 334,178 334,178 334,178 334,178 334,178 334,177 334,177 334,177 334,177 335,177 335,177 335,176 335,176 335,176 335,176 335,176 335,176 335,176 335,175 335,175 335,175 335,175 336,175 336,174 336,174 336,174 336,174 336,174 336,174 336,173 336,173 336,173 336,172 336,172 336,172 337,171 337,171 337,171 337,171 337,171 337,171 337,171 337,171 337,171 337,171 337,171 337,171 337,171 338,171 338,171 338,170 338,170 338,170 338,170 338,170 338,170 338,170 338,170 338,170 338,170 338,170 339,170 339,169 339,169 339,169 339,169 339,169 339,170 339,170 339,170 339,170 339,170 339,170 339,171 340,171 340,171 340,171 340,171 340,171 340,171 340,171 340,170 340,170 340,170 340,170 340,170 340,170 341,170 341,170 341,170 341,170 341,170 341,170 341,170 341,170 341,170 341,170 341,170 341,170 341,170 342,170 342,170 342,170 342,169 342,169 342,168 342,168 342,167 342,167 342,167 342,166 342,166 342,166 343,165 343,165 343,164 343,164 343,164 343,163 343,163 343,163 343,162 343,162 343,162 343,162 343,162 344,162 344,161 344,161 344,161 344,161 344,160 344,160 344,159 344,159 344,159 344,158 344,158 344,157 345,157 345,157 345,157 345,157 345,156 345,156 345,156 345,156 345,156 345,156 345,155 345,155 345,155 346,155 346,154 346,154 346,154 346,154 346,154 346,153 346,153 346,153 346,153 346,153 346,153 346,153 347,153 347,153 347,153 347,153 347,153 347,153 347,153 347,153 347,153 347,153 347,153 347,153 347,153 348,153 348,153 348,152 348,152 348,152 348,152 348,152 348,152 348,152 348,152 348,151 348,151 348,151 349,151 349,151 349,150 349,150 349,150 349,149 349,149 349,149 349,148 349,148 349,148 349,147 349,147 350,147 350,147 350,147 350,147 350,147 350,147 350,147 350,147 350,147 350,146 350,146 350,146 350,146 351,146 351,146 351,146 351,146 351,146 351,146 351,146 351,146 351,146 351,146 351,146 351,146 352,145 352,145 352,145 352,145 352,145 352,145 352,145 352,145 352,145 352,146 352,146 352,146 352,146 353,146 353,146 353,147 353,147 353,147 353,147 353,148 353,148 353,148 353,148 353,149 353,149 353,149 354,150 354,150 354,150 354,151 354,151 354,151 354,151 354,151 354,151 354,152 354,152 354,152 354,153 355,153 355,153 355,153 355,153 355,153 355,154 355,154 355,154 355,154 355,154 355,155 355,155 355,155 356,155 356,155 356,156 356,156 356,156 356,156 356,157 356,157 356,157 356,157 356,157 356,157 356,158 357,158 357,158 357,158 357,158 357,158 357,158 357,159 357,159 357,159 357,159 357,159 357,160 357,160 358,160 358,160 358,160 358,160 358,160 358,160 358,160 358,160 358,160 358,160 358,160 358,160 358,160 359,160 359,160 359,159 359,159 359,159 359,159 359,159 359,158 359,158 359,158 359,158 359,157 359,157 360,157 360,157 360,156 360,156 360,156 360,155 360,155 360,155 360,155 360,155 360,155 360,155 360,155 361,155 361,155 361,155 361,155 361,155 361,155 361,155 361,154 361,154 361,155 361,155 361,155 361,155 362,155 362,156 362,156 362,156 362,156 362,156 362,156 362,156 362,157 362,158 362,158 362,158 362,159 363,159 363,160 363,160 363,160 363,161 363,161 363,162 363,162 363,162 363,163 363,163 363,163 363,164 364,164 364,164 364,164 364,164 364,164 364,164 364,164 364,164 364,163 364,163 364,163 364,162 364,162 365,162 365,162 365,162 365,162 365,162 365,162 365,163 365,163 365,163 365,163 365,164 365,164 365,164 366,164 366,165 366,165 366,165 366,165 366,165 366,165 366,165 366,165 366,165 366,165 366,165 366,165 367,165 367,165 367,164 367,164 367,164 367,164 367,163 367,164 367,164 367,164 367,165 367,165 367,165 368,165 368,166 368,166 368,166 368,166 368,167 368,167 368,167 368,167 368,167 368,168 368,168 368,169 369,169 369,169 369,169 369,170 369,170 369,170 369,171 369,171 369,171 369,171 369,171 369,172 369,172 370,172 370,172 370,172 370,172 370,172 370,172 370,172 370,173 370,173 370,173 370,174 370,174 370,174 371,174 371,175 371,175 371,175 371,175 371,175 371,176 371,176 371,176 371,176 371,176 371,176 371,176 372,176 372,176 372,176 372,176 372,176 372,176 372,176 372,176 372,176 372,176 372,176 372,177 372,177 373,177 373,177 373,177 373,177 373,177 373,177 373,178 373,178 373,178 373,178 373,178 373,179 373,179 374,179 374,179 374,179 374,179 374,180 374,180 374,180 374,180 374,180 374,180 374,180 374,180 374,180 375,181 375,181 375,181 375,181 375,181 375,181 375,181 375,181 375,182 375,182 375,182 375,182 375,182 376,182 376,182 376,182 376,182 376,183 376,183 376,183 376,183 376,183 376,183 376,183 376,184 376,184 377,184 377,184 377,184 377,184 377,184 377,184 377,184 377,184 377,184 377,184 377,184 377,185 378,185 378,185 378,185 378,185 378,185 378,185 378,185 378,185 378,186 378,186 378,186 378,186 378,186 379,186 379,186 379,186 379,187 379,187 379,187 379,187 379,187 379,187 379,187 379,187 379,187 379,187 380,187 380,187 380,187 380,187 380,187 380,187 380,187 380,187 380,187 380,187 380,187 380,187 380,187 381,187 381,187 381,187 381,186 381,186 381,186 381,186 381,185 381,185 381,185 381,185 381,185 381,185 382,185 382,185 382,185 382,185 382,185 382,185 382,185 382,184 382,184 382,184 382,184 382,184 382,183 383,183 383,183 383,182 383,182 383,182 383,182 383,182 383,182 383,182 383,182 383,182 383,182 383,182 384,182 384,182 384,182 384,182 384,182 384,182 384,181 384,181 384,181 384,181 384,181 384,181 384,181 385,180 385,181 385,181 385,181 385,181 385,181 385,181 385,181 385,181 385,181 385,182 385,182 385,182 386,182 386,182 386,182 386,183 386,183 386,183 386,182 386,182 386,182 386,182 386,182 386,182 386,182 387,182 387,182 387,183 387,182 387,182 387,182 387,182 387,182 387,182 387,181 387,181 387,181 387,181 388,181 388,181 388,181 388,181 388,181 388,181 388,181 388,181 388,181 388,180 388,180 388,180 388,180 389,180 389,179 389,180 389,180 389,180 389,180 389,180 389,180 389,180 389,181 389,181 389,181 389,181 390,181 390,181 390,181 390,181 390,181 390,180 390,180 390,180 390,180 390,180 390,180 390,180 390,180 391,180 391,179 391,179 391,179 391,179 391,179 391,179 391,179 391,179 391,179 391,179 391,178 391,178 392,178 392,178 392,178 392,177 392,177 392,176 392,176 392,176 392,176 392,176 392,175 392,175 392,175 393,175 393,175 393,175 393,175 393,175 393,175 393,175 393,175 393,175 393,175 393,175 393,175 393,175 394,174 394,174 394,174 394,174 394,174 394,173 394,173 394,173 394,173 394,173 394,173 394,173 394,173 395,173 395,173 395,173 395,173 395,173 395,173 395,172 395,172 395,172 395,172 395,172 395,171 395,171 396,171 396,171 396,171 396,171 396,171 396,170 396,170 396,170 396,169 396,169 396,168 396,168 396,168 397,168 397,168 397,167 397,167 397,167 397,167 397,166 397,166 397,166 397,166 397,166 397,166 397,165 398,165 398,165 398,165 398,164 398,164 398,164 398,164 398,163 398,163 398,163 398,163 398,163 398,162 399,162 399,162 399,162 399,162 399,162 399,161 399,161 399,161 399,161 399,160 399,160 399,160 399,160 400,160 400,159 400,159 400,159 400,159 400,159 400,159 400,159 400,159 400,159 400,159 400,159 400,159 401,159 401,158 401,158 401,158 401,158 401,158 401,158 401,158 401,158 401,158 401,158 401,158 401,158 402,158 402,158 402,159 402,159 402,159 402,159 402,159 402,159 402,159 402,159 402,159 402,160 403,160 403,160 403,160 403,160 403,160 403,161 403,161 403,161 403,161 403,161 403,161 403,161 403,161 404,161 404,161 404,160 404,160 404,160 404,161 404,161 404,160 404,160 404,160 404,160 404,160 404,160 405,159 405,159 405,159 405,158 405,158 405,159 405,159 405,159 405,159 405,159 405,159 405,158 405,159 406,159 406,159 406,158 406,158 406,158 406,158 406,158 406,158 406,158 406,158 406,157 406,157 406,157 407,157 407,157 407,157 407,157 407,157 407,157 407,157 407,156 407,156 407,156 407,156 407,157 407,157 408,157 408,157 408,157 408,157 408,157 408,157 408,157 408,157 408,157 408,157 408,157 408,157 408,157 409,157 409,157 409,158 409,158 409,158 409,158 409,158 409,159 409,159 409,159 409,159 409,160 409,160 410,160 410,161 410,161 410,162 410,162 410,162 410,162 410,163 410,163 410,163 410,163 410,164 410,164 411,164 411,165 411,165 411,165 411,165 411,166 411,166 411,166 411,167 411,167 411,167 411,168 411,168 412,168 412,168 412,169 412,169 412,169 412,169 412,169 412,170 412,170 412,171 412,171 412,171 412,171 413,171 413,171 413,171 413,171 413,171 413,171 413,171 413,171 413,171 413,171 413,171 413,171 413,170 414,170 414,170 414,170 414,170 414,170 414,170 414,170 414,170 414,170 414,170 414,169 414,169 414,169 415,169 415,169 415,169 415,170 415,170 415,170 415,170 415,171 415,171 415,171 415,171 415,172 415,172 416,173 416,173 416,173 416,174 416,174 416,174 416,174 416,175 416,175 416,175 416,175 416,175 416,176 417,176 417,176 417,176 417,177 417,177 417,177 417,178 417,178 417,178 417,179 417,179 417,179 417,179 418,179 418,178 418,178 418,178 418,178 418,178 418,178 418,179 418,179 418,178 418,178 418,179 418,179 419,179 419,178 419,178 419,178 419,178 419,179 419,179 419,179 419,179 419,179 419,179 419,179 419,179 420,179 420,179 420,179 420,179 420,179 420,179 420,179 420,179 420,179 420,179 420,179 420,179 420,178 421,178 421,178 421,178 421,178 421,178 421,178 421,178 421,178 421,178 421,178 421,178 421,178 421,178 422,178 422,178 422,178 422,178 422,178 422,178 422,178 422,178 422,177 422,177 422,177 422,177 422,177 423,177 423,176 423,176 423,176 423,176 423,176 423,176 423,176 423,176 423,176 423,176 423,176 423,176 424,176 424,175 424,175 424,176 424,176 424,176 424,176 424,177 424,177 424,177 424,178 424,178 424,178 425,179 425,179 425,179 425,180 425,181 425,181 425,182 425,182 425,183 425,183 425,184 425,184 425,184 426,185 426,185 426,185 426,185 426,185 426,185 426,185 426,185 426,185 426,185 426,185 426,185 426,185 427,185 427,185 427,185 427,185 427,185 427,185 427,185 427,184 427,184 427,184 427,184 427,184 427,184 428,184 428,184 428,184 428,184 428,184 428,184 428,184 428,184 428,184 428,183 428,183 428,184 429,184 429,184 429,183 429,183 429,183 429,183 429,183 429,183 429,183 429,183 429,183 429,183 429,183 430,183 430,183 430,183 430,183 430,183 430,183 430,183 430,183 430,183 430,183 430,183 430,183 430,183 431,183 431,183 431,183 431,183 431,183 431,183 431,183 431,183 431,184 431,184 431,184 431,184 431,184 432,184 432,184 432,184 432,184 432,184 432,184 432,184 432,184 432,184 432,184 432,184 432,184 432,184 433,184 433,184 433,184 433,184 433,184 433,184 433,184 433,184 433,184 433,184 433,184 433,184 433,184 434,184 434,183 434,184 434,183 434,183 434,183 434,183 434,183 434,183 434,183 434,182 434,182 434,182 435,181 435,181 435,181 435,180 435,180 435,180 435,179 435,179 435,178 435,178 435,178 435,178 435,177 436,177 436,177 436,176 436,176 436,176 436,176 436,175 436,175 436,175 436,175 436,174 436,174 436,174 437,174 437,174 437,174 437,174 437,173 437,173 437,173 437,173 437,173 437,173 437,173 437,173 437,173 438,173 438,173 438,173 438,172 438,172 438,172 438,172 438,172 438,172 438,172 438,172 438,172 438,172 439,171 439,171 439,171 439,170 439,170 439,170 439,169 439,169 439,169 439,168 439,168 439,168 439,168 440,167 440,167 440,166 440,166 440,166 440,166 440,165 440,165 440,165 440,164 440,164 440,163 440,163 441,162 441,162 441,161 441,161 441,160 441,160 441,159 441,159 441,159 441,158 441,158 441,158 441,157 442,157 442,157 442,157 442,157 442,157 442,157 442,157 442,157 442,157 442,157 442,157 442,157 442,157 443,157 443,158 443,158 443,158 443,158 443,158 443,158 443,158 443,159 443,159 443,160 443,160 443,160 444,160 444,160 444,160 444,160 444,160 444,160 444,160 444,160 444,160 444,160 444,160 444,160 444,160 445,161 445,161 445,161 445,161 445,161 445,161 445,161 445,162 445,162 445,162 445,162 445,162 445,162 446,162 446,162 446,162 446,162 446,162 446,162 446,162 446,162 446,162 446,162 446,163 446,163 446,163 447,163 447,163 447,163 447,163 447,163 447,163 447,164 447,164 447,164 447,164 447,164 447,164 447,164 448,164 448,164 448,164 448,164 448,164 448,163 448,163 448,163 448,163 448,163 448,163 448,163 448,163 449,163 449,163 449,163 449,163 449,162 449,162 449,162 449,162 449,162 449,162 449,162 449,162 449,162 450,162 450,162 450,162 450,163 450,163 450,164 450,164 450,164 450,164 450,164 450,164 450,164 450,164 451,165 451,164 451,164 451,164 451,163 451,164 451,164 451,164 451,164 451,165 451,165 451,166 451,166 452,167 452,167 452,167 452,167 452,168 452,168 452,168 452,168 452,168 452,168 452,168 452,169 452,169 453,169 453,170 453,170 453,170 453,170 453,171 453,171 453,171 453,172 453,172 453,172 453,173 453,173 454,173 454,174 454,174 454,175 454,175 454,175 454,176 454,176 454,176 454,176 454,177 454,177 455,178 455,178 455,178 455,179 455,179 455,180 455,180 455,180 455,181 455,181 455,181 455,181 455,181 456,181 456,181 456,181 456,181 456,181 456,181 456,181 456,181 456,181 456,180 456,180 456,180 456,180 457,179 457,179 457,179 457,178 457,178 457,178 457,178 457,178 457,178 457,178 457,177 457,177 457,177 458,176 458,176 458,176 458,175 458,175 458,174 458,174 458,173 458,173 458,172 458,172 458,171 458,171 459,170 459,170 459,169 459,169 459,169 459,168 459,168 459,167 459,167 459,166 459,166 459,166 459,165 460,165 460,165 460,165 460,164 460,164 460,164 460,164 460,164 460,163 460,163 460,163 460,163 460,163 461,163 461,163 461,163 461,163 461,163 461,163 461,163 461,163 461,163 461,163 461,163 461,163 461,163 462,164 462,164 462,164 462,164 462,165 462,165 462,165 462,166 462,166 462,166 462,167 462,167 462,167 463,167 463,167 463,168 463,168 463,169 463,169 463,170 463,170 463,170 463,170 463,170 463,170 463,171 464,171 464,171 464,171 464,171 464,171 464,171 464,171 464,171 464,171 464,171 464,172 464,172 464,172 465,172 465,172 465,172 465,172 465,172 465,172 465,172 465,172 465,172 465,172 465,172 465,172 465,172 466,171 466,171 466,172 466,172 466,172 466,172 466,172 466,172 466,171 466,171 466,171 466,172 466,172 467,172 467,172 467,173 467,173 467,173 467,173 467,173 467,173 467,174 467,174 467,174 467,174 467,174 468,174 468,174 468,174 468,174 468,174 468,174 468,174 468,174 468,173 468,173 468,173 468,173 468,173 469,173 469,173 469,173 469,173 469,173 469,174 469,174 469,174 469,174 469,174 469,174 469,174 469,175 470,175 470,175 470,175 470,175 470,175 470,176 470,176 470,176 470,176 470,177 470,177 470,177 470,177 471,177 471,177 471,178 471,178 471,178 471,178 471,178 471,178 471,179 471,179 471,179 471,179 471,179 472,180 472,180 472,180 472,181 472,181 472,181 472,182 472,182 472,183 472,183 472,183 472,184 472,184 473,184 473,185 473,185 473,185 473,185 473,185 473,185 473,186 473,186 473,185 473,185 473,185 473,185 474,185 474,185 474,185 474,185 474,185 474,185 474,185 474,185 474,185 474,185 474,185 474,185 474,185 475,185 475,185 475,185 475,184 475,184 475,184 475,184 475,184 475,184 475,184 475,184 475,184 475,184 476,183 476,183 476,183 476,183 476,183 476,183 476,183 476,183 476,183 476,183 476,183 476,183 476,183 477,183 477,184 477,184 477,184 477,184 477,185 477,185 477,185 477,185 477,186 477,186 477,186 477,187 478,187 478,188 478,188 478,188 478,189 478,189 478,189 478,189 478,190 478,190 478,190 478,190 478,191 479,191 479,191 479,191 479,192 479,192 479,192 479,192 479,193 479,193 479,193 479,193 479,193 479,193 480,193 480,194 480,194 480,194 480,194 480,193 480,193 480,193 480,193 480,193 480,192 480,192 481,192 481,192 481,191 481,191 481,191 481,190 481,190 481,189 481,189 481,189 481,188 481,188 481,188 482,187 482,187 482,187 482,187 482,186 482,186 482,186 482,186 482,186 482,186 482,186 482,186 482,186 483,186 483,186 483,186 483,186 483,186 483,186 483,186 483,186 483,186 483,185 483,185 483,185 483,185 484,185 484,185 484,185 484,184 484,184 484,184 484,184 484,184 484,184 484,184 484,184 484,184 484,184 485,184 485,184 485,185 485,185 485,185 485,185 485,185 485,185 485,186 485,186 485,186 485,186 485,186 486,186 486,186 486,186 486,186 486,187 486,187 486,187 486,187 486,187 486,188 486,189 486,189 486,190 487,190 487,191 487,192 487,192 487,193 487,193 487,194 487,194 487,195 487,196 487,196 487,197 487,197 488,197 488,198 488,198 488,198 488,199 488,199 488,199 488,200 488,200 488,200 488,201 488,201 488,201 489,202 489,202 489,202 489,203 489,203 489,204 489,204 489,204 489,204 489,204 489,204 489,204 489,204 490,204 490,204 490,204 490,204 490,204 490,204 490,204 490,204 490,204 490,204 490,204 490,204 490,204 491,204 491,204 491,204 491,204 491,204 491,203 491,203 491,203 491,203 491,203 491,203 491,203 491,203 492,203 492,203 492,203 492,202 492,202 492,202 492,201 492,201 492,200 492,200 492,200 492,200 492,200 493,200 493,200 493,199 493,199 493,199 493,199 493,199 493,199 493,199 493,199 493,199 493,199 493,199 494,199 494,199 494,200 494,200 494,200 494,199 494,199 494,199 494,199 494,199 494,199 494,199 494,200 495,200 495,200 495,200 495,200 495,200 495,199 495,200 495,200 495,200 495,200 495,200 495,200 495,200 496,200 496,200 496,201 496,201 496,201 496,201 496,202 496,202 496,202 496,203 496,203 496,203 496,203 497,203 497,204 497,204 497,204 497,204 497,204 497,204 497,205 497,205 497,205 497,205 497,206 497,206 498,206 498,206 498,207 498,207 498,207 498,208 498,208 498,209 498,209 498,210 498,210 498,210 498,211 499,211 499,212 499,212 499,212 499,212 499,212 499,213 499,213 499,213 499,213 499,213 499,213 499,213 500,213 500,213 500,213 500,213 500,213 500,213 500,213 500,213 500,213 500,213 500,213 500,213 500,213 501,214 501,214 501,214 501,214 501,214 501,215 501,215 501,215 501,215 501,216 501,216 501,216 501,217 502,217 502,217 502,217 502,218 502,218 502,218 502,218 502,219 502,219 502,219 502,219 502,220 502,220 503,220 503,220 503,221 503,221 503,221 503,222 503,222 503,222 503,222 503,223 503,223 503,223 503,224 504,224 504,224 504,225 504,225 504,225 504,225 504,225 504,226 504,226 504,226 504,227 504,227 504,227 505,227 505,227 505,228 505,228 505,228 505,228 505,228 505,228 505,228 505,228 505,228 505,228 505,229 506,229 506,229 506,229 506,229 506,230 506,230 506,230 506,230 506,229 506,229 506,229 506,228 507,228 507,228 507,228 507,227 507,227 507,227 507,226 507,226 507,226 507,226 507,226 507,226 507,226 508,225 508,225 508,225 508,225 508,224 508,224 508,224 508,224 508,224 508,223 508,223 508,223 508,223 509,222 509,222 509,222 509,222 509,221 509,221 509,221 509,221 509,221 509,221 509,220 509,220 509,220 510,220 510,220 510,220 510,220 510,220 510,220 510,220 510,220 510,220 510,220 510,220 510,220 510,220 511,220 511,220 511,220 511,220 511,221 511,221 511,221 511,221 511,222 511,222 511,222 511,222 511,222 512,222 512,223 512,223 512,223 512,223 512,223 512,224 512,224 512,224 512,224 512,225 512,225 512,225 513,225 513,226 513,226 513,226 513,226 513,227 513,227 513,227 513,227 513,228 513,228 513,228 513,228 514,228 514,229 514,229 514,230 514,230 514,229 514,230 514,230 514,230 514,230 514,230 514,230 514,229 515,229 515,229 515,229 515,229 515,229 515,229 515,229 515,229 515,229 515,229 515,229 515,229 515,229 516,228 516,228 516,228 516,228 516,228 516,228 516,228 516,228 516,228 516,228 516,228 516,228 516,228 517,228 517,228 517,228 517,228 517,228 517,228 517,228 517,228 517,227 517,227 517,228 517,228 517,227 518,227 518,227 518,227 518,227 518,227 518,227 518,227 518,227 518,227 518,227 518,227 518,227 518,228 519,228 519,228 519,228 519,228 519,228 519,228 519,228 519,228 519,228 519,228 519,228 519,228 519,229 520,229 520,229 520,229 520,229 520,230 520,230 520,230 520,230 520,231 520,231 520,231 520,232 520,232 521,233 521,233 521,233 521,234 521,234 521,235 521,235 521,236 521,236 521,236 521,237 521,238 521,238 522,239 522,239 522,239 522,240 522,240 522,240 522,239 522,239 522,238 522,237 522,237 522,236 522,235 523,234 523,234 523,233 523,233 523,233 523,232 523,232 523,232 523,231 523,231 523,231 523,230 523,230 524,230 524,230 524,230 524,229 524,229 524,229 524,229 524,229 524,229 524,228 524,228 524,228 524,228 525,228 525,228 525,227 525,227 525,227 525,227 525,227 525,227 525,227 525,226 525,226 525,226 525,226 526,226 526,226 526,226 526,225 526,225 526,225 526,225 526,225 526,225 526,225 526,225 526,224 526,224 527,224 527,224 527,224 527,224 527,223 527,223 527,223 527,223 527,223 527,223 527,223 527,223 527,223 528,223 528,223 528,223 528,223 528,223 528,223 528,223 528,223 528,223 528,223 528,223 528,223 528,223 529,223 529,223 529,223 529,223 529,223 529,224 529,224 529,224 529,224 529,224 529,224 529,224 529,224 530,224 530,224 530,225 530,225 530,225 530,225 530,225 530,225 530,225 530,226 530,226 530,226 530,226 531,226 531,226 531,227 531,227 531,227 531,227 531,227 531,228 531,228 531,229 531,229 531,230 531,232 532,234 532,234 532,234 532,233 532,231 532,232 532,232 532,232 532,232 532,232 532,232 532,232 533,233 533,233 533,233 533,233 533,234 533,234 533,234 533,235 533,235 533,235 533,235 533,236 533,236 534,236 534,236 534,237 534,237 534,237 534,237 534,238 534,238 534,238 534,239 534,239 534,239 534,240 535,240 535,240 535,240 535,241 535,241 535,241 535,241 535,241 535,241 535,241 535,240 535,240 535,240 536,240 536,240 536,240 536,240 536,240 536,240 536,240 536,240 536,240 536,240 536,240 536,240 536,240 537,240 537,241 537,241 537,241 537,241 537,241 537,241 537,241 537,241 537,241 537,241 537,242 537,242 538,242 538,242 538,242 538,242 538,242 538,242 538,242 538,242 538,243 538,243 538,243 538,243 538,243 539,243 539,243 539,244 539,244 539,244 539,244 539,245 539,245 539,245 539,245 539,245 539,245 539,245 540,245 540,245 540,245 540,245 540,245 540,245 540,245 540,245 540,245 540,245 540,245 540,244 540,244 541,244 541,244 541,244 541,244 541,244 541,244 541,244 541,244 541,244 541,244 541,244 541,244 541,244 542,244 542,244 542,244 542,244 542,244 542,244 542,244 542,244 542,244 542,245 542,245 542,245 542,245 543,245 543,245 543,245 543,245 543,245 543,245 543,245 543,245 543,246 543,246 543,246 543,246 543,246 544,246 544,247 544,247 544,247 544,247 544,247 544,248 544,248 544,248 544,248 544,248 544,248 544,248 545,249 545,249 545,249 545,249 545,250 545,250 545,250 545,251 545,251 545,251 545,251 545,252 545,252 546,252 546,252 546,253 546,253 546,253 546,254 546,255 546,255 546,256 546,256 546,257 546,258 546,258 547,259 547,260 547,261 547,262 547,262 547,263 547,264 547,265 547,266 547,267 547,267 547,268 547,269 548,270 548,270 548,271 548,272 548,272 548,273 548,274 548,274 548,275 548,275 548,276 548,277 548,279 549,279 549,280 549,279 549,278 549,278 549,278 549,277 549,277 549,277 549,278 549,278 549,278 549,277 550,277 550,277 550,276 550,275 550,275 550,274 550,274 550,273 550,273 550,273 550,272 550,272 550,272 551,272 551,272 551,272 551,273 551,273 551,273 551,273 551,273 551,273 551,273 551,273 551,273 551,273 552,273 552,273 552,273 552,273 552,273 552,274 552,274 552,275 552,275 552,275 552,275 552,275 552,275 553,275 553,275 553,275 553,276 553,278 553,279 553,278 553,276 553,274 553,273 553,272 553,273 553,273 554,273 554,273 554,273 554,273 554,273 554,273 554,273 554,273 554,273 554,273 554,273 554,273 554,273 555,273 555,273 555,273 555,273 555,273 555,274 555,274 555,274 555,275 555,275 555,275 555,276 555,276 556,277 556,278 556,278 556,279 556,280 556,281 556,282 556,283 556,284 556,285 556,286 556,287 556,288 557,289 557,290 557,291 557,292 557,293 557,294 557,295 557,296 557,296 557,297 557,298 557,298 557,298 558,298 558,298 558,298 558,298 558,298 558,298 558,298 558,298 558,298 558,298 558,298 558,298 559,298 559,298 559,298 559,298 559,298 559,298 559,298 559,298 559,298 559,298 559,298 559,298 559,298 560,298 560,297 560,297 560,297 560,297 560,297 560,297 560,297 560,297 560,297 560,297 560,297 560,297 561,297 561,296 561,296 561,296 561,296 561,296 561,295 561,296 561,296 561,297 561,298 561,298 561,297 562,298 562,298 562,298 562,297 562,297 562,296 562,296 562,297 562,296 562,296 562,296 562,296 562,296 563,296 563,296 563,296 563,296 563,296 563,296 563,296 563,296 563,296 563,296 563,296 563,296 563,296 564,296 564,296 564,296 564,295 564,295 564,295 564,295 564,294 564,294 564,294 564,293 564,293 564,293 565,292 565,292 565,291 565,291 565,290 565,290 565,290 565,289 565,289 565,288 565,288 565,288 565,288 566,288 566,288 566,288 566,288 566,288 566,288 566,288 566,289 566,289 566,289 566,290 566,290 566,290 567,291 567,291 567,291 567,292 567,292 567,292 567,292 567,292 567,293 567,293 567,293 567,293 567,293 568,293 568,293 568,293 568,293 568,293 568,293 568,293 568,292 568,292 568,292 568,291 568,291 568,291 569,291 569,291 569,290 569,290 569,290 569,290 569,289 569,289 569,289 569,289 569,288 569,288 569,288 570,287 570,287 570,287 570,286 570,286 570,286 570,285 570,285 570,285 570,284 570,284 570,284 570,284 571,283 571,283 571,283 571,283 571,283 571,283 571,283 571,283 571,283 571,283 571,283 571,282 571,283 572,282 572,281 572,280 572,279 572,278 572,277 572,275 572,274 572,273 572,272 572,271 572,270 572,269 573,268 573,267 573,266 573,265 573,265 573,264 573,264 573,263 573,262 573,262 573,262 573,261 573,261 574,261 574,261 574,260 574,260 574,260 574,260 574,260 574,259 574,259 574,259 574,259 574,259 574,259 575,259 575,259 575,258 575,257 575,257 575,257 575,256 575,255 575,255 575,254 575,254 575,253 575,253 576,252 576,252 576,252 576,251 576,251 576,251 576,251 576,251 576,251 576,251 576,251 576,251 576,251 577,251 577,251 577,251 577,251 577,251 577,251 577,252 577,252 577,252 577,252 577,252 577,252 577,253 578,253 578,253 578,254 578,254 578,255 578,255 578,256 578,256 578,256 578,257 578,257 578,258 578,258 579,258 579,259 579,259 579,260 579,260 579,261 579,261 579,261 579,262 579,262 579,263 579,263 579,263 580,263 580,264 580,264 580,264 580,265 580,265 580,265 580,266 580,266 580,266 580,266 580,267 580,267 581,268 581,268 581,269 581,269 581,269 581,270 581,270 581,270 581,270 581,270 581,271 581,271 581,271 582,272 582,272 582,272 582,273 582,273 582,273 582,274 582,274 582,274 582,275 582,275 582,276 582,276 583,276 583,277 583,277 583,278 583,278 583,278 583,279 583,279 583,280 583,280 583,280 583,280 583,281 584,281 584,281 584,281 584,281 584,282 584,281 584,281 584,281 584,281 584,281 584,281 584,280 585,280 585,280 585,280 585,280 585,280 585,280 585,279 585,279 585,279 585,279 585,279 585,278 585,278 586,278 586,278 586,277 586,277 586,276 586,276 586,276 586,276 586,276 586,276 586,276 586,276 586,276 587,276 587,276 587,276 587,276 587,277 587,277 587,277 587,277 587,277 587,277 587,277 587,277 587,278 588,278 588,278 588,279 588,280 588,280 588,280 588,281 588,282 588,283 588,284 588,284 588,285 588,286 589,287 589,287 589,288 589,288 589,289 589,289 589,290 589,291 589,291 589,292 589,292 589,293 589,293 590,294 590,294 590,295 590,295 590,295 590,295 590,296 590,296 590,295 590,294 590,294 590,293 590,292 591,292 591,291 591,290 591,290 591,289 591,289 591,289 591,289 591,288 591,288 591,288 591,288 591,287 592,287 592,287 592,287 592,287 592,287 592,287 592,288 592,288 592,289 592,289 592,289 592,289 592,290 593,290 593,290 593,290 593,290 593,290 593,291 593,291 593,291 593,291 593,291 593,292 593,292 593,292 594,293 594,293 594,293 594,294 594,294 594,295 594,295 594,296 594,296 594,297 594,297 594,298 594,299 595,300 595,301 595,301 595,302 595,303 595,304 595,304 595,303 595,303 595,303 595,303 595,302 595,301 596,301 596,300 596,300 596,299 596,299 596,298 596,298 596,297 596,297 596,297 596,297 596,297 596,297 597,297 597,298 597,298 597,298 597,298 597,298 597,298 597,298 597,298 597,298 597,299 597,299 597,299 598,299 598,298 598,298 598,299 598,300 598,300 598,301 598,302 598,303 598,304 598,305 598,307 598,308 599,309 599,310 599,311 599,312 599,313 599,313 599,313 599,314 599,314 599,314 599,314 599,314 599,314 600,314 600,314 600,314 600,315 600,315 600,315 600,315 600,315 600,315 600,315 600,315 600,315 600,315 601,315 601,314 601,314 601,314 601,314 601,314 601,314 601,314 601,314 601,315 601,315 601,315 601,315 602,315 602,315 602,315 602,314 602,314 602,314 602,314 602,314 602,314 602,314 602,314 602,313 602,313 603,313 603,313 603,313 603,313 603,313 603,313 603,312 603,312 603,312 603,312 603,312 603,313 603,313 604,313 604,313 604,313 604,313 604,313 604,314 604,314 604,314 604,315 604,315 604,316 604,316 604,317 605,317 605,318 605,319 605,319 605,320 605,320 605,321 605,321 605,322 605,322 605,322 605,322 605,323 606,323 606,323 606,324 606,324 606,324 606,323 606,323 606,323 606,322 606,322 606,321 606,320 606,320 607,319 607,319 607,318 607,318 607,317 607,316 607,316 607,316 607,315 607,315 607,314 607,314 607,313 608,313 608,313 608,312 608,312 608,312 608,311 608,311 608,312 608,312 608,312 608,312 608,312 608,313 609,313 609,314 609,314 609,315 609,315 609,315 609,316 609,316 609,316 609,316 609,315 609,315 609,315 610,315 610,314 610,314 610,314 610,313 610,313 610,312 610,312 610,311 610,310 610,310 610,309 611,308 611,307 611,306 611,306 611,305 611,305 611,304 611,304 611,303 611,303 611,302 611,302 611,302 612,302 612,302 612,302 612,302 612,302 612,302 612,303 612,303 612,303 612,304 612,304 612,305 612,305 613,306 613,306 613,307 613,307 613,307 613,307 613,307 613,306 613,306 613,306 613,306 613,306 613,306 614,305 614,305 614,304 614,304 614,303 614,303 614,302 614,301 614,300 614,300 614,299 614,299 614,298 615,298 615,298 615,297 615,297 615,297 615,298 615,298 615,298 615,298 615,298 615,298 615,298 615,298 616,298 616,299 616,299 616,300 616,300 616,301 616,302 616,302 616,303 616,304 616,305 616,306 616,306 617,307 617,307 617,308 617,308 617,309 617,309 617,310 617,310 617,311 617,311 617,312 617,312 617,312 618,313 618,313 618,313 618,314 618,314 618,314 618,314 618,314 618,314 618,315 618,315 618,315 618,315 619,315 619,316 619,316 619,316 619,316 619,316 619,316 619,316 619,315 619,315 619,315 619,315 619,314 620,314 620,314 620,314 620,314 620,313 620,313 620,313 620,313 620,313 620,312 620,312 620,312 620,312 621,312 621,312 621,312 621,312 621,312 621,312 621,312 621,311 621,311 621,311 621,311 621,311 621,311 622,310 622,310 622,310 622,310 622,310 622,310 622,309 622,309 622,309 622,309 622,308 622,308 622,307 623,307 623,307 623,306 623,306 623,305 623,305 623,304 623,303 623,302 623,301 623,300 623,299 623,298 624,297 624,296 624,295 624,295 624,294 624,294 624,293 624,292 624,292 624,291 624,290 624,290 624,289 625,288 625,288 625,287 625,287 625,286 625,286 625,285 625,285 625,285 625,284 625,284 625,284 625,284 626,283 626,283 626,283 626,283 626,283 626,283 626,283 626,283 626,283 626,283 626,283 626,283 626,283 627,283 627,283 627,283 627,283 627,283 627,283 627,283 627,283 627,283 627,283 627,283 627,283 627,282 628,282 628,282 628,282 628,282 628,282 628,282 628,282 628,282 628,283 628,283 628,283 628,283 628,284 629,284 629,284 629,284 629,285 629,285 629,285 629,286 629,286 629,286 629,287 629,287 629,287 629,287 630,287 630,287 630,287 630,287 630,287 630,287 630,288 630,288 630,288 630,288 630,288 630,288 630,288 631,288 631,288 631,288 631,288 631,287 631,287 631,287 631,287 631,287 631,287 631,287 631,287 631,287 632,287 632,287 632,287 632,287 632,287 632,287 632,287 632,287 632,287 632,287 632,287 632,287 632,288 633,288 633,288 633,288 633,288 633,289 633,289 633,289 633,289 633,289 633,290 633,290 633,290 633,290 634,290 634,290 634,291 634,291 634,291 634,291 634,292 634,292 634,292 634,293 634,293 634,293 634,293 635,294 635,294 635,294 635,294 635,294 635,295 635,295 635,295 635,295 635,296 635,296 635,296 635,296 636,296 636,296 636,296 636,296 636,296 636,296 636,296 636,296 636,296 636,296 636,296 636,296 637,296 637,296 637,296 637,296 637,296 637,296 637,296 637,296 637,296 637,296 637,296 637,296 637,295 638,295 638,295 638,295 638,296 638,296 638,296 638,296 638,296 638,297 638,297 638,297 638,298 638,298 639,298 639,299 639,299 639,299 639,299 639,299 639,299 639,299 639,299 639,299 639,299 639,299 639,298 640,298 640,297 640,297 640,297 640,296 640,296 640,296 640,295 640,295 640,294 640,294 640,293 640,293 641,292 641,292 641,292 641,292 641,291 641,291 641,291 641,291 641,291 641,291 641,291 641,291 641,291 642,291 642,291 642,291 642,291 642,291 642,291 642,291 642,291 642,291 642,291 642,291 642,291 642,291 643,291 643,291 643,291 643,291 643,291 643,291 643,292 643,292 643,292 643,292 643,292 643,292 643,292 644,292 644,292 644,292 644,292 644,293 644,293 644,293 644,293 644,292 644,292 644,292 644,292 644,292 645,292 645,292 645,292 645,292 645,292 645,292 645,291 645,291 645,291 645,291 645,291 645,292 645,292 646,292 646,292 646,292 646,292 646,292 646,293 646,293 646,293 646,293 646,293 646,293 646,293 646,293 647,293 647,293 647,293 647,293 647,293 647,293 647,292 647,292 647,292 647,292 647,292 647,292 647,292 648,291 648,291 648,291 648,291 648,291 648,291 648,291 648,292 648,292 648,292 648,292 648,292 648,292 649,292 649,293 649,293 649,293 649,293 649,293 649,293 649,293 649,293 649,293 649,293 649,293 649,293 650,293 650,293 650,293 650,294 650,294 650,294 650,294 650,294 650,294 650,294 650,294 650,294 650,294 651,294 651,294 651,294 651,294 651,294 651,294 651,294 651,293 651,293 651,293 651,293 651,293 651,293 652,294 652,294 652,294 652,294 652,294 652,294 652,295 652,295 652,295 652,296 652,296 652,297 652,297 653,298 653,298 653,299 653,300 653,300 653,301 653,302 653,303 653,304 653,305 653,306 653,306 653,307 654,308 654,308 654,309 654,310 654,311 654,311 654,311 654,311 654,312 654,312 654,313 654,313 654,313 655,313 655,314 655,314 655,314 655,314 655,314 655,315 655,315 655,315 655,315 655,315 655,316 655,316 656,316 656,316 656,316 656,316 656,316 656,316 656,316 656,316 656,317 656,317 656,317 656,317 656,317 657,317 657,317 657,317 657,317 657,318 657,318 657,318 657,318 657,318 657,319 657,319 657,319 657,319 658,319 658,319 658,319 658,320 658,320 658,320 658,320 658,320 658,320 658,320 658,320 658,320 658,320 659,321 659,321 659,321 659,321 659,321 659,321 659,321 659,321 659,321 659,321 659,321 659,321 659,321 660,321 660,321 660,321 660,321 660,321 660,321 660,321 660,321 660,321 660,321 660,321 660,321 660,321 661,321 661,321 661,321 661,321 661,321 661,321 661,321 661,321 661,321 661,321 661,321 661,321 662,321 662,321 662,321 662,322 662,322 662,322 662,322 662,322 662,322 662,322 662,322 662,322 662,322 663,321 663,322 663,321 663,321 663,321 663,321 663,321 663,321 663,321 663,322 663,322 663,322 663,322 664,322 664,323 664,323 664,323 664,324 664,324 664,324 664,324 664,325 664,325 664,325 664,325 664,325 665,326 665,326 665,326 665,326 665,326 665,326 665,327 665,327 665,327 665,327 665,327 665,327 665,328 666,328 666,328 666,328 666,328 666,328 666,328 666,328 666,329 666,329 666,329 666,329 666,329 666,329 667,329 667,329 667,329 667,330 667,330 667,329 667,329 667,329 667,329 667,329 667,330 667,330 667,331 668,331 668,330 668,330 668,330 668,330 668,330 668,330 668,330 668,330 668,330 668,330 668,330 668,330 669,330 669,330 669,330 669,330 669,330 669,330 669,330 669,330 669,330 669,330 669,330 669,330 669,330 670,330 670,330 670,330 670,330 670,330 670,330 670,330 670,330 670,330 670,330 670,330 670,330 670,330 671,330 671,330 671,330 671,330 671,330 671,330 671,330 671,330 671,330 671,330 671,330 671,329 671,329 672,329 672,329 672,329 672,329 672,329 672,329 672,329 672,329 672,328 672,328 672,328 672,328 672,328 673,327 673,327 673,327 673,327 673,327 673,327 673,327 673,327 673,326 673,326 673,326 673,326 673,326 674,326 674,326 674,326 674,326 674,326 674,326 674,326 674,326 674,326 674,326 674,326 674,326 674,326 675,326 675,327 675,327 675,327 675,327 675,327 675,327 675,327 675,327 675,327 675,327 675,328 675,328 676,328 676,328 676,328 676,328 676,328 676,328 676,328 676,328 676,328 676,328 676,329 676,329 676,329 677,329 677,329 677,329 677,329 677,329 677,329 677,329 677,329 677,329 677,329 677,329 677,329 677,330 678,330 678,330 678,330 678,330 678,330 678,330 678,330 678,330 678,330 678,330 678,330 678,330 678,330 679,330 679,330 679,330 679,330 679,330 679,330 679,330 679,330 679,330 679,330 679,330 679,330 679,331 680,331 680,331 680,331 680,331 680,331 680,331 680,331 680,332 680,332 680,332 680,332 680,332 680,332 681,332 681,332 681,332 681,332 681,332 681,332 681,332 681,332 681,332 681,332 681,332 681,332 681,332 682,332 682,332 682,332 682,332 682,332 682,332 682,332 682,332 682,332 682,332 682,332 682,332 682,332 683,332 683,333 683,333 683,333 683,333 683,334 683,334 683,334 683,334 683,334 683,334 683,334 683,334 684,334 684,333 684,333 684,332 684,332 684,332 684,331 684,331 684,331 684,330 684,330 684,330 684,330 685,330 685,330 685,330 685,330 685,330 685,330 685,331 685,331 685,331 685,331 685,331 685,331 685,331 686,331 686,331 686,331 686,331 686,331 686,331 686,331 686,331 686,331 686,331 686,331 686,331 686,331 687,331 687,331 687,331 687,331 687,331 687,331 687,331 687,331 687,331 687,331 687,331 687,331 688,331 688,331 688,331 688,331 688,331 688,331 688,331 688,331 688,331 688,331 688,331 688,331 688,331 689,331 689,331 689,331 689,331 689,331 689,331 689,331 689,331 689,331 689,331 689,331 689,331 689,331 690,331 690,331 690,331 690,331 690,331 690,331 690,331 690,331 690,331 690,331 690,331 690,331 690,331 691,331 691,331 691,331 691,331 691,331 691,331 691,331 691,331 691,331 691,331 691,331 691,331 691,331 692,331 692,331 692,331 692,331 692,331 692,331 692,331 692,331 692,331 692,331 692,331 692,331 692,331 693,331 693,331 693,331 693,331 693,331 693,331 693,331 693,331 693,331 693,331 693,331 693,331 693,331 694,331 694,331 694,331 694,331 694,331 694,330 694,330 694,330 694,330 694,330 694,330 694,330 694,330 695,330 695,330 695,330 695,330 695,330 695,330 695,330 695,330 695,330 695,330 695,330 695,330 695,330 696,330 696,330 696,330 696,330 696,330 696,330 696,330 696,330 696,330 696,330 696,329 696,329 696,329 697,329 697,329 697,329 697,329 697,329 697,329 697,329 697,329 697,329 697,329 697,329 697,329 697,329 698,329 698,329 698,328 698,328 698,328 698,328 698,328 698,328 698,328 698,328 698,328 698,328 698,328 699,328 699,327 699,327 699,327 699,327 699,327 699,327 699,327 699,327 699,327 699,327 699,327 699,326 700,326 700,326 700,326 700,326 700,326 700,326 700,326 700,326 700,326 700,326 700,326 700,326 700,326 701,326 701,326 701,326 701,326 701,326 701,326 701,326 701,326 701,326 701,325 701,325 701,325 701,325 702,325 702,325 702,325 702,325 702,324 702,324 702,324 702,324 702,324 702,324 702,324 702,324 702,324 703,324 703,324 703,323 703,323 703,323 703,323 703,323 703,323 703,323 703,323 703,323 703,322 703,322 704,322 704,322 704,322 704,322 704,322 704,322 704,322 704,321 704,321 704,321 704,321 704,321 704,321 705,321 705,320 705,320 705,320 705,320 705,320 705,320 705,320 705,320 705,320 705,320 705,320 705,320 706,320 706,320 706,320 706,320 706,319 706,319 706,319 706,319 706,319 706,319 706,319 706,319 706,318 707,318 707,318 707,318 707,318 707,318 707,318 707,318 707,318 707,317 707,317 707,317 707,317 707,317 708,317 708,317 708,317 708,317 708,317 708,317 708,316 708,316 708,316 708,316 708,316 708,316 708,316 709,316 709,316 709,315 709,315 709,315 709,315 709,315 709,315 709,315 709,315 709,315 709,314 709,314 710,314 710,314 710,314 710,314 710,314 710,314 710,314 710,313 710,313 710,313 710,313 710,313 710,313 711,313 711,313 711,313 711,312 711,312 711,312 711,312 711,312 711,312 711,312 711,312 711,312 711,311 712,311 712,311 712,311 712,311 712,311 712,311 712,311 712,311 712,311 712,311 712,311 712,311 712,310 713,310 713,310 713,310 713,310 713,310 713,310 713,310 713,310 713,310 713,310 713,310 713,310 714,309 714,309 714,309 714,309 714,309 714,309 714,309 714,309 714,308 714,308 714,308 714,308 714,308 715,308 715,308 715,308 715,307 715,307 715,307 715,307 715,307 715,307 715,307 715,307 715,306 715,306 716,306 716,306 716,306 716,306 716,306 716,305 716,305 716,305 716,305 716,304 716,304 716,304 716,303 717,303 717,302 717,302 717,301 717,301 717,300 717,300 717,299 717,299 717,298 717,298 717,297 717,297 718,296 718,296 718,296 718,296 718,296 718,295 718,295 718,295 718,295 718,294 718,294 718,294 718,293 719,293 719,293 719,293 719,292 719,292 719,292 719,291 719,291 719,291 719,290 719,290 719,289 719,289 720,288 720,288 720,287 720,287 720,286 720,286 720,285 720,285 720,284 720,284 720,283 720,283 720,283 721,282 721,282 721,282 721,281 721,281 721,281 721,281 721,280 721,280 721,280 721,280 721,279 721,279 722,279 722,279 722,279 722,279 722,279 722,279 722,278 722,278 722,278 722,278 722,279 722,279 722,279 723,279 723,279 723,279 723,279 723,279 723,279 723,279 723,279 723,279 723,279 723,279 723,279 723,279 724,279 724,279 724,279 724,279 724,279 724,279 724,279 724,279 724,279 724,279 724,279 724,279 724,279 725,278 725,278 725,278 725,278 725,278 725,277 725,277 725,277 725,276 725,276 725,276 725,276 725,275 726,275 726,275 726,275 726,275 726,275 726,274 726,274 726,274 726,274 726,274 726,274 726,274 726,274 727,274 727,274 727,274 727,274 727,274 727,274 727,274 727,274 727,274 727,274 727,274 727,274 727,273 728,273 728,273 728,273 728,273 728,273 728,273 728,273 728,273 728,273 728,272 728,272 728,272 728,272 729,272 729,272 729,272 729,272 729,272 729,272 729,273 729,273 729,273 729,272 729,272 729,272 729,272 730,273 730,273 730,273 730,273 730,273 730,273 730,273 730,273 730,274 730,274 730,274 730,274 730,274 731,274 731,274 731,274 731,274 731,274 731,274 731,275 731,275 731,275 731,275 731,275 731,275 731,275 732,275 732,275 732,274 732,274 732,274 732,274 732,274 732,275 732,275 732,275 732,275 732,275 732,274 733,274 733,274 733,274 733,274 733,274 733,274 733,274 733,274 733,274 733,273 733,273 733,273 733,273 734,273 734,273 734,273 734,273 734,273 734,272 734,272 734,272 734,272 734,272 734,272 734,272 734,272 735,272 735,272 735,272 735,272 735,273 735,273 735,273 735,273 735,273 735,273 735,273 735,273 735,273 736,274 736,274 736,274 736,274 736,274 736,274 736,274 736,275 736,275 736,275 736,275 " vector-effect="non-scaling-stroke"></polyline>
</g></svg>