<?xml version="1.0" encoding="UTF-8" standalone="no"?><svg width="282.222mm" height="141.111mm" xmlns="http://www.w3.org/2000/svg" xmlns:xlink="http://www.w3.org/1999/xlink"  version="1.2" baseProfile="tiny"><g fill="none" stroke="#ff0000" stroke-linecap="round" stroke-linejoin="round" stroke-opacity="1" stroke-width="1.5" transform="matrix(1,0,0,1,0,0)">
<polyline fill="none" points="58,251 58,252 58,253 58,254 58,254 58,255 58,256 58,257 58,258 59,259 59,260 59,261 59,262 59,263 59,264 59,265 59,266 59,267 59,269 59,270 59,271 59,273 60,274 60,276 60,277 60,279 60,280 60,282 60,283 60,284 60,285 60,287 60,287 60,286 60,285 61,284 61,283 61,282 61,280 61,279 61,278 61,278 61,277 61,276 61,276 61,276 61,276 61,276 62,275 62,276 62,275 62,275 62,275 62,274 62,274 62,274 62,273 62,273 62,272 62,272 62,272 63,273 63,274 63,274 63,274 63,275 63,275 63,275 63,276 63,276 63,276 63,277 63,277 63,277 64,277 64,277 64,278 64,280 64,282 64,284 64,286 64,288 64,290 64,292 64,294 64,296 65,298 65,300 65,302 65,302 65,302 65,303 65,304 65,304 65,304 65,304 65,304 65,304 65,303 66,303 66,303 66,302 66,302 66,302 66,301 66,301 66,301 66,301 66,300 66,300 66,300 66,300 67,300 67,300 67,300 67,300 67,300 67,300 67,301 67,301 67,301 67,302 67,302 67,302 67,302 68,302 68,302 68,303 68,303 68,303 68,302 68,302 68,301 68,301 68,300 68,300 68,300 68,299 69,299 69,298 69,298 69,297 69,297 69,296 69,296 69,295 69,294 69,294 69,293 69,293 69,292 70,292 70,291 70,291 70,290 70,289 70,289 70,288 70,287 70,286 70,286 70,285 70,285 70,285 71,285 71,285 71,285 71,285 71,285 71,285 71,285 71,285 71,286 71,286 71,287 71,287 71,287 72,288 72,288 72,289 72,289 72,289 72,290 72,291 72,292 72,292 72,293 72,294 72,295 72,296 73,297 73,298 73,299 73,299 73,300 73,301 73,301 73,302 73,302 73,302 73,302 73,302 73,302 74,303 74,303 74,303 74,303 74,302 74,302 74,302 74,301 74,301 74,301 74,301 74,301 74,300 75,300 75,300 75,299 75,298 75,298 75,297 75,297 75,296 75,295 75,294 75,295 75,294 75,294 76,293 76,293 76,293 76,293 76,293 76,293 76,293 76,292 76,291 76,290 76,289 76,289 76,289 77,289 77,289 77,289 77,289 77,289 77,289 77,289 77,289 77,289 77,291 77,292 77,293 77,294 78,293 78,294 78,295 78,296 78,296 78,296 78,296 78,296 78,296 78,296 78,297 78,299 78,299 79,300 79,301 79,301 79,301 79,302 79,302 79,302 79,302 79,302 79,302 79,302 79,302 79,302 80,302 80,302 80,301 80,301 80,301 80,301 80,301 80,301 80,301 80,301 80,301 80,301 80,301 81,302 81,302 81,302 81,302 81,302 81,302 81,302 81,302 81,302 81,302 81,302 81,301 81,301 82,300 82,300 82,300 82,300 82,300 82,301 82,301 82,301 82,301 82,301 82,301 82,301 82,302 83,302 83,302 83,302 83,302 83,302 83,302 83,302 83,301 83,301 83,301 83,301 83,301 83,301 84,301 84,301 84,300 84,300 84,300 84,301 84,301 84,301 84,301 84,301 84,301 84,301 84,301 85,301 85,301 85,301 85,301 85,301 85,301 85,301 85,301 85,300 85,300 85,299 85,299 85,299 86,299 86,299 86,299 86,299 86,299 86,299 86,298 86,298 86,298 86,298 86,298 86,297 86,297 87,297 87,297 87,297 87,297 87,297 87,297 87,297 87,296 87,296 87,296 87,296 87,296 87,296 88,296 88,296 88,296 88,297 88,297 88,298 88,298 88,298 88,299 88,300 88,300 88,300 88,301 89,301 89,301 89,301 89,301 89,301 89,301 89,300 89,299 89,298 89,297 89,296 89,294 90,293 90,292 90,290 90,290 90,289 90,287 90,287 90,286 90,286 90,285 90,284 90,284 90,284 91,283 91,283 91,282 91,281 91,281 91,281 91,281 91,280 91,280 91,280 91,280 91,280 91,280 92,280 92,280 92,280 92,280 92,280 92,280 92,280 92,280 92,280 92,280 92,280 92,280 92,280 93,280 93,280 93,280 93,280 93,280 93,280 93,281 93,281 93,281 93,281 93,281 93,281 93,281 94,281 94,281 94,281 94,282 94,282 94,282 94,282 94,282 94,282 94,283 94,283 94,283 94,283 95,284 95,284 95,285 95,285 95,286 95,286 95,287 95,287 95,288 95,288 95,287 95,288 95,288 96,288 96,287 96,286 96,286 96,286 96,285 96,285 96,284 96,284 96,284 96,284 96,284 96,284 97,284 97,284 97,284 97,284 97,284 97,284 97,284 97,284 97,285 97,285 97,285 97,285 97,286 98,286 98,286 98,286 98,286 98,287 98,287 98,287 98,287 98,287 98,287 98,287 98,286 98,286 99,285 99,285 99,284 99,283 99,282 99,282 99,281 99,280 99,279 99,279 99,278 99,277 99,277 100,276 100,275 100,275 100,274 100,273 100,272 100,271 100,269 100,269 100,268 100,267 100,266 100,265 101,265 101,265 101,264 101,264 101,264 101,263 101,263 101,262 101,262 101,262 101,261 101,261 101,261 102,261 102,260 102,260 102,260 102,260 102,260 102,259 102,259 102,259 102,259 102,259 102,259 102,259 103,259 103,259 103,259 103,259 103,259 103,259 103,259 103,260 103,260 103,260 103,260 103,261 103,261 104,261 104,261 104,262 104,262 104,263 104,263 104,264 104,264 104,265 104,265 104,265 104,266 104,266 105,266 105,266 105,267 105,267 105,267 105,267 105,268 105,268 105,268 105,268 105,268 105,268 105,268 106,267 106,267 106,267 106,267 106,266 106,266 106,265 106,265 106,264 106,264 106,264 106,263 106,263 107,262 107,262 107,262 107,261 107,261 107,260 107,260 107,260 107,259 107,259 107,258 107,258 107,258 108,257 108,257 108,257 108,256 108,256 108,255 108,255 108,255 108,254 108,254 108,253 108,253 108,252 109,252 109,252 109,252 109,251 109,251 109,251 109,250 109,250 109,250 109,249 109,249 109,249 109,248 110,248 110,247 110,247 110,247 110,246 110,246 110,246 110,246 110,246 110,245 110,245 110,245 110,245 111,244 111,244 111,244 111,243 111,243 111,243 111,243 111,243 111,243 111,243 111,243 111,243 111,242 112,242 112,242 112,242 112,242 112,242 112,242 112,241 112,241 112,241 112,241 112,241 112,241 112,241 113,241 113,241 113,240 113,240 113,240 113,240 113,240 113,240 113,240 113,240 113,241 113,241 113,241 114,241 114,241 114,241 114,240 114,240 114,240 114,240 114,240 114,240 114,239 114,239 114,239 115,239 115,239 115,239 115,238 115,238 115,238 115,238 115,238 115,238 115,238 115,238 115,239 115,239 116,239 116,239 116,240 116,240 116,241 116,241 116,241 116,242 116,242 116,242 116,243 116,243 116,244 117,244 117,245 117,245 117,246 117,246 117,246 117,247 117,247 117,247 117,247 117,247 117,247 117,248 118,248 118,249 118,249 118,249 118,249 118,250 118,250 118,250 118,250 118,250 118,250 118,250 118,250 119,250 119,250 119,250 119,250 119,250 119,250 119,250 119,249 119,249 119,249 119,249 119,248 119,248 120,248 120,247 120,247 120,247 120,247 120,246 120,246 120,247 120,246 120,246 120,246 120,246 120,246 121,246 121,246 121,245 121,245 121,244 121,244 121,244 121,244 121,243 121,243 121,243 121,243 121,243 122,244 122,244 122,244 122,244 122,244 122,244 122,245 122,245 122,245 122,245 122,245 122,246 122,246 123,246 123,246 123,246 123,246 123,246 123,247 123,247 123,247 123,247 123,247 123,247 123,247 123,248 124,248 124,248 124,248 124,248 124,248 124,248 124,249 124,249 124,249 124,249 124,249 124,249 124,249 125,250 125,250 125,250 125,250 125,250 125,250 125,250 125,250 125,250 125,250 125,250 125,250 125,250 126,251 126,251 126,251 126,251 126,251 126,251 126,251 126,251 126,250 126,250 126,250 126,250 126,250 127,250 127,250 127,251 127,251 127,251 127,251 127,251 127,251 127,251 127,251 127,251 127,251 127,251 128,251 128,251 128,251 128,251 128,251 128,251 128,251 128,250 128,250 128,250 128,250 128,251 128,251 129,251 129,251 129,251 129,252 129,252 129,252 129,252 129,252 129,252 129,252 129,252 129,253 129,253 130,253 130,253 130,254 130,254 130,254 130,254 130,254 130,254 130,255 130,255 130,255 130,255 130,256 131,256 131,256 131,256 131,256 131,257 131,257 131,257 131,257 131,257 131,258 131,258 131,258 131,258 132,258 132,258 132,258 132,258 132,258 132,258 132,258 132,258 132,257 132,257 132,257 132,257 132,257 133,257 133,256 133,256 133,256 133,255 133,255 133,255 133,255 133,255 133,254 133,254 133,254 133,254 134,254 134,253 134,253 134,253 134,253 134,253 134,253 134,252 134,252 134,252 134,252 134,252 134,252 135,252 135,252 135,252 135,252 135,253 135,253 135,253 135,253 135,254 135,254 135,254 135,254 135,254 136,254 136,255 136,255 136,255 136,255 136,255 136,255 136,255 136,255 136,256 136,256 136,256 136,256 137,256 137,256 137,256 137,256 137,256 137,256 137,256 137,256 137,256 137,256 137,256 137,257 137,257 138,257 138,257 138,257 138,257 138,257 138,257 138,258 138,258 138,258 138,258 138,258 138,258 138,259 139,259 139,259 139,259 139,259 139,260 139,260 139,261 139,261 139,261 139,261 139,261 139,261 140,261 140,260 140,260 140,260 140,260 140,260 140,260 140,260 140,260 140,260 140,260 140,260 140,259 141,259 141,258 141,258 141,258 141,258 141,258 141,258 141,257 141,257 141,257 141,256 141,256 141,256 142,256 142,256 142,256 142,255 142,255 142,255 142,255 142,255 142,255 142,255 142,255 142,255 142,255 143,255 143,255 143,255 143,255 143,255 143,255 143,255 143,255 143,254 143,254 143,253 143,254 143,254 144,254 144,254 144,254 144,253 144,253 144,253 144,253 144,253 144,253 144,253 144,253 144,253 144,253 145,253 145,253 145,253 145,253 145,253 145,253 145,254 145,254 145,254 145,254 145,254 145,254 145,254 146,254 146,254 146,253 146,253 146,252 146,252 146,252 146,252 146,252 146,251 146,251 146,251 146,251 147,251 147,251 147,251 147,251 147,251 147,251 147,251 147,251 147,251 147,250 147,250 147,250 147,250 148,250 148,250 148,250 148,250 148,249 148,249 148,249 148,249 148,249 148,249 148,249 148,249 148,248 149,248 149,248 149,248 149,247 149,247 149,247 149,247 149,247 149,247 149,246 149,246 149,246 149,246 150,246 150,245 150,245 150,245 150,245 150,245 150,246 150,246 150,246 150,246 150,246 150,246 150,247 151,247 151,247 151,248 151,248 151,248 151,249 151,249 151,250 151,250 151,250 151,251 151,251 151,251 152,252 152,252 152,253 152,253 152,253 152,254 152,254 152,255 152,255 152,255 152,256 152,256 152,256 153,256 153,256 153,257 153,257 153,257 153,257 153,258 153,258 153,259 153,259 153,259 153,259 153,260 154,260 154,260 154,260 154,261 154,261 154,261 154,261 154,261 154,262 154,262 154,262 154,262 154,262 155,263 155,263 155,263 155,263 155,263 155,264 155,264 155,264 155,264 155,264 155,264 155,265 155,265 156,265 156,265 156,265 156,265 156,266 156,266 156,266 156,266 156,266 156,266 156,266 156,266 156,266 157,266 157,265 157,265 157,265 157,265 157,264 157,264 157,264 157,264 157,264 157,264 157,264 157,264 158,264 158,264 158,263 158,263 158,263 158,263 158,263 158,263 158,263 158,263 158,263 158,263 158,263 159,262 159,262 159,262 159,262 159,262 159,262 159,262 159,262 159,262 159,262 159,261 159,261 159,261 160,261 160,261 160,261 160,261 160,261 160,261 160,261 160,261 160,261 160,261 160,261 160,261 160,261 161,260 161,261 161,261 161,261 161,261 161,262 161,262 161,262 161,262 161,262 161,262 161,262 161,263 162,264 162,265 162,266 162,267 162,267 162,267 162,266 162,266 162,265 162,265 162,265 162,265 162,264 163,264 163,264 163,263 163,263 163,262 163,262 163,261 163,261 163,262 163,262 163,261 163,261 163,261 164,261 164,261 164,262 164,262 164,262 164,263 164,263 164,264 164,264 164,264 164,265 164,267 165,268 165,269 165,270 165,270 165,270 165,270 165,270 165,270 165,270 165,270 165,270 165,270 165,270 166,270 166,270 166,270 166,270 166,270 166,270 166,270 166,270 166,270 166,270 166,270 166,269 166,269 167,269 167,268 167,268 167,268 167,267 167,267 167,266 167,265 167,265 167,264 167,263 167,262 167,262 168,261 168,261 168,261 168,260 168,260 168,260 168,259 168,259 168,258 168,258 168,258 168,257 168,257 169,257 169,257 169,256 169,256 169,256 169,256 169,255 169,255 169,255 169,254 169,254 169,254 169,253 170,253 170,252 170,252 170,252 170,252 170,251 170,251 170,250 170,250 170,249 170,249 170,248 170,248 171,248 171,247 171,247 171,247 171,246 171,246 171,246 171,246 171,245 171,245 171,246 171,246 171,246 172,246 172,246 172,246 172,246 172,246 172,247 172,247 172,247 172,248 172,248 172,248 172,249 172,249 173,250 173,251 173,252 173,255 173,257 173,260 173,261 173,262 173,263 173,264 173,265 173,265 173,266 174,266 174,267 174,267 174,267 174,268 174,267 174,267 174,266 174,265 174,265 174,264 174,264 174,264 175,263 175,262 175,261 175,260 175,259 175,259 175,259 175,258 175,257 175,256 175,256 175,255 175,254 176,254 176,253 176,252 176,251 176,251 176,250 176,249 176,248 176,247 176,246 176,245 176,243 176,242 177,240 177,239 177,238 177,237 177,237 177,236 177,236 177,235 177,234 177,233 177,232 177,232 177,231 178,230 178,230 178,229 178,228 178,227 178,227 178,226 178,225 178,224 178,224 178,223 178,222 178,221 179,220 179,219 179,218 179,218 179,217 179,217 179,217 179,218 179,218 179,218 179,218 179,218 179,218 180,219 180,219 180,219 180,219 180,219 180,220 180,220 180,220 180,220 180,220 180,220 180,220 180,221 181,221 181,220 181,220 181,221 181,221 181,222 181,222 181,223 181,225 181,226 181,227 181,228 181,229 182,229 182,230 182,231 182,231 182,232 182,232 182,230 182,229 182,227 182,226 182,225 182,224 182,223 183,222 183,221 183,220 183,219 183,219 183,218 183,218 183,218 183,218 183,218 183,218 183,218 183,218 184,218 184,218 184,218 184,218 184,218 184,218 184,218 184,218 184,218 184,218 184,218 184,218 184,218 185,218 185,218 185,218 185,219 185,219 185,219 185,221 185,221 185,222 185,223 185,224 185,224 185,225 186,226 186,227 186,227 186,228 186,229 186,229 186,229 186,229 186,228 186,228 186,227 186,227 186,226 187,225 187,224 187,223 187,222 187,222 187,221 187,220 187,219 187,219 187,218 187,217 187,217 187,216 188,216 188,216 188,215 188,215 188,215 188,214 188,214 188,214 188,214 188,213 188,213 188,213 188,214 189,213 189,213 189,213 189,213 189,212 189,212 189,212 189,212 189,212 189,211 189,211 189,211 190,211 190,211 190,211 190,211 190,212 190,212 190,212 190,213 190,214 190,214 190,214 190,215 190,216 191,217 191,218 191,220 191,221 191,222 191,223 191,224 191,225 191,227 191,228 191,229 191,230 191,231 192,232 192,232 192,232 192,233 192,233 192,232 192,232 192,232 192,231 192,230 192,228 192,227 192,226 193,225 193,224 193,223 193,223 193,222 193,222 193,222 193,221 193,221 193,221 193,221 193,221 193,221 194,221 194,221 194,221 194,221 194,220 194,220 194,220 194,220 194,220 194,220 194,219 194,219 194,219 195,219 195,219 195,220 195,220 195,221 195,221 195,222 195,223 195,224 195,224 195,225 195,226 195,227 196,228 196,229 196,230 196,231 196,232 196,232 196,233 196,234 196,235 196,236 196,237 196,238 196,238 197,239 197,240 197,241 197,242 197,242 197,243 197,243 197,244 197,245 197,246 197,247 197,248 197,249 198,249 198,249 198,250 198,250 198,250 198,250 198,249 198,249 198,249 198,248 198,248 198,247 198,247 199,246 199,246 199,245 199,244 199,244 199,243 199,242 199,242 199,241 199,241 199,241 199,240 199,240 200,239 200,239 200,238 200,238 200,237 200,235 200,234 200,232 200,232 200,231 200,230 200,229 200,229 201,229 201,228 201,228 201,228 201,228 201,227 201,227 201,227 201,227 201,227 201,227 201,227 201,227 202,227 202,227 202,227 202,227 202,227 202,227 202,228 202,228 202,228 202,229 202,229 202,229 202,230 203,230 203,231 203,232 203,232 203,233 203,233 203,234 203,234 203,235 203,235 203,236 203,236 203,237 204,237 204,238 204,238 204,238 204,238 204,238 204,237 204,238 204,240 204,242 204,245 204,247 204,248 205,248 205,249 205,249 205,249 205,250 205,250 205,250 205,250 205,250 205,250 205,248 205,247 205,245 206,244 206,243 206,243 206,242 206,241 206,241 206,240 206,239 206,238 206,237 206,237 206,236 206,235 207,235 207,234 207,234 207,233 207,233 207,232 207,231 207,231 207,230 207,230 207,229 207,229 207,228 208,228 208,227 208,227 208,226 208,226 208,225 208,225 208,225 208,224 208,224 208,224 208,224 208,223 209,223 209,223 209,223 209,223 209,223 209,223 209,223 209,223 209,223 209,223 209,223 209,223 209,224 210,224 210,225 210,225 210,226 210,227 210,227 210,228 210,228 210,229 210,230 210,230 210,231 210,232 211,233 211,233 211,234 211,235 211,235 211,236 211,237 211,238 211,238 211,239 211,239 211,239 211,240 212,240 212,241 212,241 212,241 212,241 212,242 212,242 212,242 212,242 212,242 212,242 212,243 212,243 213,243 213,243 213,243 213,243 213,244 213,244 213,245 213,245 213,245 213,246 213,246 213,247 213,247 214,247 214,248 214,248 214,248 214,249 214,249 214,249 214,249 214,249 214,250 214,250 214,249 215,249 215,249 215,249 215,248 215,248 215,247 215,247 215,246 215,245 215,244 215,243 215,243 215,242 216,241 216,240 216,239 216,239 216,238 216,237 216,237 216,236 216,236 216,235 216,234 216,234 216,233 217,232 217,232 217,232 217,231 217,230 217,230 217,229 217,229 217,229 217,229 217,228 217,228 217,228 218,228 218,227 218,227 218,227 218,226 218,226 218,226 218,226 218,225 218,225 218,225 218,225 218,224 219,224 219,224 219,224 219,224 219,223 219,223 219,223 219,223 219,223 219,223 219,222 219,222 219,222 220,222 220,222 220,221 220,221 220,221 220,221 220,220 220,220 220,220 220,220 220,219 220,219 220,219 221,219 221,218 221,218 221,218 221,217 221,217 221,217 221,216 221,216 221,216 221,216 221,216 221,216 222,215 222,215 222,215 222,215 222,215 222,215 222,215 222,215 222,215 222,215 222,215 222,215 222,215 223,215 223,215 223,215 223,215 223,215 223,215 223,215 223,215 223,215 223,215 223,215 223,215 223,215 224,215 224,215 224,215 224,215 224,214 224,215 224,215 224,214 224,214 224,214 224,213 224,213 224,212 225,212 225,211 225,210 225,209 225,209 225,209 225,209 225,208 225,208 225,209 225,209 225,209 225,209 226,210 226,210 226,210 226,211 226,211 226,211 226,211 226,211 226,211 226,211 226,211 226,212 226,212 227,213 227,214 227,214 227,214 227,214 227,214 227,215 227,215 227,215 227,216 227,216 227,216 227,216 228,217 228,218 228,219 228,220 228,221 228,222 228,223 228,224 228,225 228,226 228,226 228,227 228,228 229,229 229,230 229,230 229,231 229,232 229,233 229,234 229,234 229,235 229,236 229,237 229,238 229,239 230,240 230,240 230,241 230,242 230,242 230,243 230,243 230,244 230,244 230,244 230,244 230,244 230,244 231,244 231,244 231,244 231,244 231,245 231,245 231,246 231,246 231,246 231,246 231,246 231,246 231,246 232,246 232,246 232,246 232,246 232,246 232,246 232,246 232,246 232,246 232,246 232,246 232,246 232,246 233,247 233,247 233,247 233,247 233,247 233,247 233,247 233,247 233,247 233,247 233,246 233,246 233,245 234,244 234,243 234,242 234,241 234,239 234,238 234,237 234,236 234,234 234,233 234,231 234,229 234,228 235,226 235,225 235,224 235,223 235,222 235,221 235,221 235,220 235,219 235,218 235,217 235,216 235,215 236,214 236,214 236,214 236,213 236,212 236,212 236,213 236,213 236,213 236,213 236,213 236,213 236,213 237,213 237,213 237,213 237,213 237,213 237,212 237,212 237,212 237,212 237,212 237,212 237,212 237,212 238,212 238,212 238,211 238,211 238,211 238,211 238,211 238,210 238,210 238,210 238,210 238,211 238,212 239,213 239,214 239,215 239,216 239,216 239,217 239,218 239,219 239,220 239,221 239,222 239,223 240,224 240,225 240,225 240,226 240,227 240,228 240,228 240,229 240,229 240,230 240,231 240,232 240,233 241,233 241,234 241,235 241,236 241,237 241,238 241,238 241,238 241,238 241,238 241,238 241,237 241,237 242,237 242,237 242,236 242,236 242,235 242,235 242,235 242,234 242,234 242,234 242,234 242,234 242,234 243,234 243,234 243,234 243,234 243,233 243,233 243,233 243,232 243,232 243,231 243,231 243,230 243,229 244,229 244,228 244,228 244,227 244,227 244,226 244,225 244,225 244,225 244,224 244,224 244,223 244,223 245,222 245,222 245,222 245,221 245,221 245,220 245,220 245,219 245,219 245,218 245,218 245,218 245,218 246,218 246,218 246,218 246,218 246,218 246,219 246,219 246,219 246,219 246,219 246,220 246,220 246,220 247,220 247,220 247,220 247,221 247,221 247,221 247,221 247,221 247,221 247,222 247,222 247,222 247,222 248,222 248,223 248,223 248,223 248,224 248,224 248,224 248,224 248,225 248,225 248,226 248,227 248,229 249,230 249,231 249,231 249,231 249,232 249,232 249,232 249,233 249,233 249,233 249,233 249,233 249,233 250,233 250,233 250,233 250,233 250,233 250,233 250,233 250,233 250,233 250,233 250,233 250,233 250,233 251,233 251,233 251,233 251,233 251,233 251,233 251,233 251,233 251,232 251,232 251,232 251,232 251,232 252,232 252,232 252,232 252,232 252,232 252,232 252,232 252,232 252,232 252,232 252,232 252,232 252,232 253,232 253,232 253,232 253,232 253,232 253,232 253,232 253,232 253,232 253,232 253,232 253,231 253,231 254,231 254,231 254,230 254,230 254,229 254,229 254,228 254,227 254,227 254,226 254,226 254,225 254,225 255,224 255,224 255,223 255,223 255,223 255,223 255,224 255,224 255,223 255,223 255,223 255,222 255,222 256,222 256,221 256,221 256,221 256,220 256,220 256,220 256,219 256,219 256,219 256,219 256,219 256,219 257,219 257,219 257,219 257,219 257,219 257,219 257,219 257,220 257,220 257,220 257,220 257,221 257,221 258,221 258,221 258,221 258,221 258,221 258,220 258,220 258,220 258,219 258,219 258,219 258,219 258,219 259,218 259,218 259,218 259,218 259,218 259,217 259,217 259,217 259,217 259,217 259,216 259,216 259,215 260,215 260,215 260,215 260,214 260,214 260,214 260,213 260,213 260,213 260,212 260,212 260,211 260,211 261,210 261,210 261,210 261,209 261,209 261,208 261,208 261,207 261,207 261,206 261,206 261,206 261,205 262,205 262,205 262,205 262,204 262,204 262,204 262,205 262,205 262,205 262,205 262,205 262,206 262,206 263,205 263,205 263,205 263,205 263,204 263,204 263,203 263,203 263,202 263,202 263,201 263,201 263,201 264,201 264,200 264,200 264,201 264,201 264,201 264,201 264,202 264,202 264,202 264,202 264,203 265,203 265,203 265,203 265,204 265,204 265,204 265,205 265,205 265,205 265,205 265,206 265,206 265,205 266,205 266,205 266,205 266,205 266,206 266,206 266,205 266,205 266,205 266,205 266,204 266,204 266,204 267,204 267,204 267,203 267,203 267,203 267,202 267,202 267,201 267,201 267,201 267,200 267,200 267,200 268,199 268,199 268,199 268,198 268,198 268,197 268,197 268,197 268,196 268,196 268,196 268,195 268,195 269,195 269,195 269,194 269,194 269,194 269,194 269,194 269,194 269,194 269,194 269,194 269,194 269,194 270,194 270,194 270,194 270,194 270,194 270,194 270,194 270,194 270,194 270,194 270,194 270,194 270,194 271,194 271,194 271,195 271,195 271,195 271,195 271,195 271,195 271,195 271,195 271,194 271,194 271,194 272,194 272,193 272,193 272,193 272,192 272,192 272,192 272,192 272,192 272,192 272,192 272,191 272,191 273,191 273,191 273,191 273,191 273,191 273,191 273,191 273,191 273,191 273,191 273,191 273,191 273,191 274,191 274,191 274,191 274,191 274,191 274,191 274,190 274,190 274,190 274,190 274,190 274,190 274,190 275,190 275,189 275,189 275,189 275,189 275,189 275,189 275,189 275,189 275,189 275,189 275,188 275,188 276,188 276,188 276,188 276,188 276,187 276,187 276,187 276,187 276,187 276,187 276,187 276,187 276,187 277,187 277,188 277,188 277,187 277,187 277,187 277,187 277,187 277,187 277,188 277,188 277,189 277,189 278,190 278,190 278,191 278,191 278,191 278,192 278,192 278,192 278,192 278,193 278,193 278,194 278,194 279,194 279,195 279,195 279,196 279,196 279,196 279,197 279,197 279,197 279,198 279,198 279,198 279,198 280,199 280,199 280,200 280,200 280,200 280,200 280,201 280,201 280,201 280,201 280,202 280,202 280,202 281,202 281,202 281,203 281,203 281,203 281,203 281,204 281,204 281,204 281,204 281,204 281,204 281,204 282,204 282,204 282,204 282,204 282,204 282,204 282,204 282,204 282,204 282,204 282,204 282,204 282,204 283,204 283,204 283,204 283,204 283,204 283,204 283,204 283,204 283,204 283,204 283,205 283,205 283,205 284,205 284,205 284,205 284,205 284,205 284,205 284,205 284,205 284,204 284,204 284,204 284,203 284,203 285,202 285,202 285,201 285,201 285,200 285,200 285,199 285,199 285,199 285,198 285,198 285,198 285,197 286,197 286,196 286,196 286,196 286,195 286,195 286,195 286,195 286,194 286,194 286,194 286,194 286,193 287,193 287,193 287,193 287,192 287,192 287,192 287,192 287,192 287,192 287,192 287,193 287,193 287,193 288,193 288,193 288,193 288,194 288,194 288,194 288,194 288,194 288,194 288,195 288,195 288,195 288,195 289,195 289,195 289,195 289,195 289,195 289,195 289,196 289,196 289,196 289,196 289,195 289,195 290,195 290,195 290,195 290,195 290,195 290,195 290,195 290,195 290,195 290,195 290,195 290,195 290,195 291,195 291,195 291,195 291,195 291,195 291,196 291,196 291,196 291,197 291,197 291,198 291,198 291,198 292,198 292,198 292,199 292,199 292,200 292,200 292,200 292,200 292,201 292,201 292,201 292,202 292,202 293,202 293,202 293,203 293,203 293,203 293,203 293,203 293,203 293,204 293,204 293,204 293,204 293,204 294,204 294,204 294,204 294,204 294,204 294,204 294,204 294,204 294,204 294,204 294,203 294,203 294,203 295,203 295,203 295,203 295,202 295,202 295,202 295,202 295,201 295,201 295,201 295,201 295,200 295,200 296,200 296,200 296,200 296,199 296,199 296,199 296,199 296,199 296,199 296,198 296,198 296,198 296,198 297,198 297,198 297,197 297,197 297,197 297,197 297,197 297,196 297,196 297,196 297,196 297,195 297,195 298,195 298,195 298,195 298,195 298,195 298,195 298,195 298,195 298,195 298,195 298,195 298,195 298,195 299,195 299,195 299,195 299,195 299,195 299,195 299,195 299,195 299,195 299,195 299,195 299,195 299,195 300,195 300,195 300,195 300,195 300,195 300,195 300,195 300,195 300,195 300,195 300,196 300,196 300,196 301,196 301,197 301,197 301,197 301,197 301,197 301,197 301,198 301,198 301,198 301,198 301,198 301,198 302,199 302,199 302,199 302,199 302,199 302,199 302,199 302,199 302,199 302,199 302,200 302,199 302,199 303,199 303,199 303,199 303,199 303,199 303,199 303,199 303,199 303,198 303,198 303,197 303,197 303,197 304,197 304,197 304,197 304,197 304,197 304,196 304,196 304,196 304,196 304,196 304,196 304,196 304,196 305,196 305,196 305,196 305,196 305,196 305,196 305,196 305,196 305,197 305,197 305,197 305,197 305,197 306,197 306,197 306,197 306,197 306,197 306,197 306,197 306,197 306,197 306,198 306,198 306,198 306,198 307,198 307,197 307,197 307,197 307,197 307,197 307,197 307,197 307,197 307,197 307,197 307,196 307,196 308,196 308,196 308,196 308,196 308,196 308,196 308,196 308,196 308,196 308,195 308,195 308,195 308,195 309,195 309,194 309,194 309,194 309,194 309,194 309,193 309,193 309,193 309,192 309,192 309,192 309,192 310,192 310,192 310,192 310,192 310,192 310,191 310,191 310,191 310,191 310,191 310,191 310,191 310,191 311,191 311,191 311,192 311,192 311,192 311,192 311,192 311,192 311,191 311,191 311,191 311,191 311,191 312,191 312,191 312,190 312,190 312,190 312,190 312,190 312,190 312,189 312,189 312,189 312,189 312,190 313,190 313,190 313,190 313,190 313,190 313,190 313,190 313,190 313,190 313,190 313,190 313,190 313,191 314,191 314,191 314,191 314,191 314,192 314,192 314,192 314,192 314,192 314,192 314,192 314,192 315,192 315,192 315,192 315,192 315,192 315,192 315,191 315,191 315,191 315,191 315,191 315,191 315,191 316,190 316,190 316,191 316,191 316,191 316,191 316,190 316,190 316,191 316,191 316,191 316,192 316,192 317,192 317,191 317,191 317,190 317,190 317,189 317,188 317,188 317,188 317,188 317,188 317,188 317,188 318,188 318,188 318,188 318,188 318,188 318,188 318,187 318,187 318,187 318,187 318,187 318,187 318,187 319,187 319,187 319,187 319,187 319,186 319,186 319,186 319,186 319,186 319,185 319,185 319,185 319,185 320,185 320,185 320,184 320,184 320,184 320,184 320,184 320,184 320,184 320,184 320,184 320,184 320,184 321,184 321,183 321,183 321,183 321,183 321,183 321,183 321,183 321,183 321,183 321,182 321,182 321,182 322,182 322,182 322,182 322,181 322,181 322,181 322,181 322,181 322,181 322,180 322,180 322,180 322,180 323,180 323,180 323,179 323,179 323,179 323,179 323,179 323,179 323,178 323,178 323,178 323,178 323,177 324,177 324,177 324,177 324,177 324,176 324,176 324,176 324,176 324,175 324,175 324,175 324,175 324,174 325,174 325,174 325,174 325,173 325,173 325,173 325,172 325,172 325,172 325,172 325,171 325,171 325,171 326,170 326,170 326,170 326,170 326,169 326,169 326,169 326,169 326,168 326,168 326,168 326,167 326,167 327,167 327,166 327,166 327,166 327,165 327,165 327,165 327,164 327,164 327,164 327,163 327,163 327,163 328,162 328,162 328,162 328,161 328,161 328,160 328,160 328,160 328,159 328,159 328,158 328,158 328,157 329,157 329,156 329,156 329,155 329,155 329,154 329,154 329,153 329,153 329,152 329,152 329,151 329,151 330,150 330,150 330,149 330,149 330,149 330,148 330,148 330,148 330,148 330,148 330,148 330,148 330,148 331,148 331,148 331,148 331,148 331,148 331,148 331,148 331,148 331,148 331,148 331,148 331,147 331,147 332,147 332,147 332,147 332,147 332,147 332,146 332,146 332,146 332,146 332,145 332,145 332,145 332,144 333,144 333,144 333,143 333,143 333,143 333,142 333,142 333,142 333,142 333,142 333,141 333,141 333,141 334,141 334,140 334,140 334,139 334,139 334,138 334,138 334,137 334,136 334,135 334,135 334,134 334,134 335,133 335,132 335,132 335,132 335,131 335,131 335,131 335,132 335,132 335,132 335,132 335,132 335,132 336,132 336,132 336,132 336,132 336,132 336,132 336,132 336,132 336,132 336,132 336,132 336,131 336,131 337,131 337,132 337,132 337,133 337,134 337,134 337,135 337,136 337,137 337,137 337,138 337,139 337,140 338,141 338,142 338,143 338,144 338,145 338,147 338,148 338,149 338,149 338,149 338,150 338,150 338,151 339,151 339,152 339,152 339,153 339,153 339,153 339,153 339,153 339,152 339,152 339,151 339,151 340,150 340,150 340,149 340,149 340,149 340,148 340,148 340,148 340,147 340,147 340,147 340,146 340,146 341,146 341,146 341,146 341,145 341,144 341,144 341,144 341,144 341,144 341,143 341,143 341,142 341,142 342,141 342,141 342,141 342,140 342,139 342,139 342,138 342,137 342,136 342,136 342,135 342,134 342,134 343,133 343,132 343,131 343,130 343,130 343,129 343,128 343,128 343,127 343,126 343,126 343,126 343,126 344,126 344,127 344,127 344,127 344,127 344,127 344,126 344,126 344,126 344,126 344,126 344,126 344,127 345,127 345,128 345,128 345,128 345,128 345,129 345,129 345,129 345,129 345,129 345,130 345,130 345,130 346,130 346,130 346,130 346,130 346,130 346,131 346,131 346,131 346,131 346,131 346,131 346,131 346,131 347,131 347,131 347,131 347,131 347,132 347,132 347,132 347,132 347,132 347,133 347,133 347,133 347,134 348,134 348,134 348,134 348,134 348,134 348,134 348,135 348,135 348,135 348,135 348,135 348,135 348,134 349,134 349,134 349,134 349,134 349,134 349,134 349,134 349,135 349,135 349,135 349,135 349,135 349,135 350,135 350,136 350,136 350,136 350,137 350,137 350,138 350,138 350,139 350,139 350,139 350,140 350,140 351,140 351,141 351,141 351,141 351,142 351,142 351,142 351,143 351,143 351,144 351,144 351,145 351,145 352,145 352,146 352,146 352,147 352,147 352,147 352,148 352,148 352,149 352,149 352,149 352,150 352,150 353,151 353,151 353,151 353,151 353,152 353,152 353,152 353,153 353,153 353,153 353,154 353,154 353,155 354,155 354,155 354,155 354,155 354,155 354,155 354,156 354,156 354,157 354,157 354,157 354,157 354,158 355,158 355,158 355,158 355,158 355,158 355,159 355,159 355,159 355,159 355,159 355,159 355,160 355,160 356,160 356,160 356,160 356,160 356,160 356,160 356,160 356,160 356,160 356,161 356,161 356,161 356,161 357,160 357,161 357,161 357,161 357,162 357,162 357,162 357,162 357,162 357,162 357,162 357,162 357,162 358,162 358,163 358,163 358,163 358,163 358,163 358,164 358,164 358,164 358,164 358,164 358,164 358,164 359,163 359,163 359,163 359,163 359,163 359,162 359,162 359,162 359,162 359,161 359,161 359,161 359,161 360,161 360,161 360,160 360,160 360,160 360,160 360,160 360,160 360,160 360,160 360,160 360,160 360,160 361,160 361,160 361,161 361,161 361,161 361,162 361,162 361,162 361,162 361,162 361,163 361,163 361,163 362,163 362,163 362,164 362,164 362,164 362,164 362,164 362,164 362,165 362,165 362,165 362,165 362,165 363,165 363,165 363,165 363,165 363,165 363,165 363,165 363,165 363,165 363,165 363,165 363,165 363,165 364,165 364,165 364,165 364,165 364,165 364,164 364,164 364,164 364,164 364,164 364,164 364,164 365,164 365,164 365,164 365,164 365,163 365,163 365,163 365,163 365,163 365,163 365,163 365,163 365,163 366,163 366,163 366,163 366,163 366,163 366,163 366,163 366,163 366,163 366,163 366,163 366,163 366,163 367,163 367,164 367,164 367,164 367,164 367,165 367,165 367,165 367,166 367,166 367,166 367,166 367,167 368,167 368,167 368,167 368,168 368,168 368,168 368,169 368,169 368,169 368,170 368,170 368,170 368,171 369,171 369,171 369,172 369,172 369,172 369,172 369,172 369,172 369,173 369,173 369,173 369,173 369,173 370,173 370,173 370,173 370,173 370,173 370,173 370,173 370,173 370,173 370,173 370,173 370,173 370,173 371,172 371,172 371,171 371,171 371,171 371,171 371,170 371,170 371,170 371,170 371,170 371,170 371,170 372,170 372,170 372,170 372,171 372,171 372,171 372,171 372,171 372,172 372,172 372,172 372,172 372,173 373,173 373,173 373,173 373,173 373,174 373,174 373,174 373,174 373,175 373,175 373,175 373,175 373,175 374,175 374,176 374,176 374,176 374,176 374,176 374,176 374,177 374,177 374,177 374,177 374,177 374,178 375,178 375,178 375,178 375,178 375,178 375,178 375,178 375,178 375,178 375,178 375,178 375,178 375,178 376,178 376,178 376,178 376,178 376,178 376,178 376,178 376,178 376,178 376,178 376,178 376,178 376,178 377,178 377,178 377,178 377,178 377,178 377,178 377,178 377,178 377,179 377,179 377,179 377,179 377,180 378,180 378,180 378,180 378,181 378,181 378,181 378,181 378,181 378,181 378,182 378,182 378,182 378,182 379,182 379,182 379,182 379,182 379,182 379,182 379,182 379,182 379,182 379,182 379,181 379,181 379,181 380,181 380,181 380,181 380,181 380,181 380,181 380,181 380,181 380,180 380,180 380,180 380,180 380,180 381,180 381,180 381,180 381,180 381,180 381,180 381,180 381,180 381,180 381,180 381,180 381,180 381,180 382,180 382,180 382,180 382,180 382,179 382,179 382,179 382,179 382,179 382,179 382,179 382,179 382,179 383,179 383,179 383,179 383,179 383,179 383,179 383,179 383,179 383,179 383,179 383,179 383,179 383,179 384,179 384,179 384,179 384,179 384,179 384,179 384,179 384,179 384,179 384,179 384,179 384,179 384,179 385,179 385,179 385,179 385,179 385,179 385,179 385,179 385,179 385,179 385,179 385,179 385,179 385,179 386,179 386,179 386,179 386,179 386,179 386,179 386,179 386,179 386,178 386,178 386,178 386,178 386,178 387,178 387,177 387,177 387,177 387,177 387,176 387,176 387,176 387,176 387,176 387,176 387,176 387,176 388,176 388,176 388,176 388,175 388,175 388,175 388,175 388,174 388,174 388,174 388,174 388,174 388,174 389,173 389,173 389,173 389,173 389,173 389,173 389,173 389,173 389,173 389,173 389,173 389,173 390,173 390,173 390,173 390,172 390,172 390,172 390,172 390,172 390,171 390,171 390,171 390,171 390,171 391,171 391,170 391,170 391,170 391,170 391,170 391,169 391,169 391,169 391,169 391,169 391,169 391,168 392,168 392,168 392,168 392,168 392,168 392,168 392,168 392,168 392,168 392,168 392,168 392,168 392,168 393,168 393,168 393,167 393,167 393,167 393,167 393,167 393,166 393,166 393,166 393,166 393,166 393,166 394,166 394,166 394,166 394,166 394,167 394,167 394,167 394,167 394,167 394,167 394,167 394,166 394,166 395,166 395,166 395,166 395,167 395,167 395,167 395,167 395,167 395,167 395,167 395,167 395,167 395,166 396,166 396,166 396,166 396,166 396,166 396,166 396,166 396,166 396,166 396,166 396,166 396,166 396,166 397,167 397,167 397,167 397,167 397,167 397,168 397,168 397,168 397,169 397,170 397,171 397,170 397,170 398,170 398,169 398,169 398,168 398,168 398,168 398,167 398,167 398,167 398,166 398,166 398,166 398,166 399,166 399,166 399,166 399,166 399,167 399,167 399,167 399,167 399,167 399,167 399,168 399,168 399,168 400,168 400,168 400,169 400,169 400,169 400,169 400,170 400,170 400,170 400,170 400,170 400,170 400,170 401,170 401,171 401,171 401,171 401,172 401,172 401,172 401,172 401,172 401,172 401,172 401,172 401,172 402,172 402,172 402,172 402,172 402,172 402,172 402,172 402,172 402,172 402,172 402,172 402,171 402,171 403,171 403,171 403,170 403,170 403,170 403,170 403,170 403,169 403,169 403,169 403,169 403,169 403,168 404,168 404,168 404,168 404,168 404,168 404,167 404,167 404,167 404,167 404,167 404,166 404,166 404,166 405,166 405,166 405,166 405,166 405,166 405,166 405,165 405,165 405,165 405,165 405,165 405,164 405,164 406,164 406,164 406,164 406,164 406,164 406,164 406,164 406,164 406,164 406,164 406,164 406,164 406,164 407,163 407,163 407,163 407,163 407,164 407,164 407,164 407,164 407,164 407,164 407,164 407,164 407,164 408,165 408,165 408,165 408,165 408,165 408,165 408,166 408,166 408,166 408,166 408,166 408,166 408,166 409,166 409,166 409,167 409,167 409,167 409,167 409,167 409,167 409,167 409,167 409,167 409,167 409,167 410,167 410,167 410,167 410,168 410,168 410,168 410,168 410,168 410,168 410,168 410,168 410,168 410,168 411,168 411,168 411,168 411,168 411,168 411,168 411,168 411,168 411,168 411,168 411,168 411,168 411,169 412,168 412,168 412,168 412,168 412,168 412,169 412,169 412,169 412,168 412,168 412,168 412,168 412,168 413,168 413,168 413,168 413,168 413,168 413,167 413,167 413,167 413,167 413,167 413,167 413,167 413,167 414,167 414,167 414,167 414,168 414,168 414,169 414,169 414,168 414,168 414,168 414,168 414,167 415,167 415,166 415,166 415,166 415,166 415,166 415,166 415,166 415,166 415,165 415,165 415,165 415,164 416,164 416,164 416,164 416,163 416,163 416,163 416,162 416,162 416,162 416,161 416,161 416,161 416,160 417,160 417,160 417,159 417,159 417,158 417,158 417,157 417,157 417,157 417,157 417,156 417,156 417,155 418,155 418,155 418,154 418,154 418,154 418,154 418,154 418,154 418,154 418,154 418,154 418,153 418,153 419,153 419,153 419,153 419,153 419,153 419,153 419,152 419,152 419,152 419,152 419,152 419,152 419,152 420,152 420,152 420,152 420,152 420,152 420,152 420,152 420,152 420,152 420,152 420,152 420,152 420,152 421,152 421,152 421,152 421,152 421,152 421,151 421,151 421,151 421,150 421,150 421,150 421,149 421,149 422,149 422,148 422,148 422,148 422,147 422,147 422,147 422,146 422,146 422,146 422,146 422,146 422,146 423,145 423,145 423,145 423,145 423,145 423,144 423,144 423,144 423,144 423,144 423,143 423,143 423,143 424,143 424,143 424,143 424,143 424,144 424,144 424,144 424,144 424,144 424,144 424,146 424,147 424,148 425,148 425,147 425,147 425,146 425,145 425,145 425,144 425,144 425,143 425,143 425,142 425,141 425,141 426,141 426,141 426,141 426,141 426,141 426,141 426,140 426,140 426,140 426,140 426,139 426,139 426,139 427,139 427,139 427,138 427,138 427,138 427,138 427,138 427,138 427,137 427,137 427,137 427,137 427,137 428,136 428,136 428,136 428,136 428,136 428,136 428,137 428,137 428,137 428,137 428,138 428,139 428,140 429,140 429,141 429,142 429,142 429,143 429,144 429,145 429,145 429,146 429,147 429,147 429,148 429,149 430,150 430,151 430,151 430,152 430,153 430,153 430,154 430,155 430,155 430,156 430,156 430,157 430,157 431,158 431,158 431,159 431,159 431,160 431,160 431,160 431,161 431,161 431,161 431,162 431,162 431,162 432,162 432,163 432,163 432,163 432,163 432,163 432,164 432,164 432,164 432,164 432,165 432,165 432,165 433,165 433,166 433,166 433,167 433,167 433,167 433,168 433,168 433,168 433,169 433,169 433,170 433,170 434,170 434,171 434,171 434,171 434,171 434,171 434,172 434,172 434,172 434,173 434,173 434,173 434,174 435,174 435,174 435,174 435,174 435,175 435,175 435,175 435,175 435,175 435,176 435,176 435,176 435,176 436,176 436,176 436,176 436,177 436,177 436,177 436,178 436,178 436,178 436,178 436,179 436,179 436,179 437,179 437,179 437,179 437,179 437,179 437,179 437,179 437,179 437,179 437,179 437,179 437,179 437,179 438,180 438,180 438,180 438,180 438,180 438,181 438,181 438,181 438,181 438,181 438,181 438,181 438,181 439,180 439,180 439,179 439,179 439,179 439,178 439,178 439,178 439,178 439,177 439,177 439,177 440,177 440,176 440,176 440,176 440,175 440,175 440,175 440,175 440,175 440,175 440,174 440,174 440,174 441,174 441,174 441,174 441,174 441,174 441,174 441,174 441,174 441,174 441,174 441,174 441,174 441,174 442,173 442,173 442,173 442,173 442,173 442,173 442,173 442,172 442,172 442,172 442,172 442,172 442,172 443,172 443,172 443,172 443,172 443,172 443,172 443,172 443,172 443,172 443,172 443,172 443,173 443,173 444,173 444,173 444,173 444,173 444,173 444,173 444,173 444,174 444,174 444,174 444,175 444,175 444,175 445,176 445,176 445,176 445,177 445,177 445,177 445,178 445,178 445,178 445,178 445,179 445,179 445,179 446,180 446,180 446,180 446,181 446,181 446,181 446,181 446,182 446,182 446,182 446,182 446,182 446,183 447,183 447,183 447,183 447,184 447,184 447,185 447,185 447,185 447,185 447,185 447,185 447,185 447,186 448,186 448,187 448,187 448,187 448,187 448,187 448,188 448,188 448,188 448,189 448,189 448,189 448,189 449,190 449,190 449,190 449,191 449,191 449,191 449,191 449,192 449,192 449,192 449,193 449,193 449,193 450,194 450,195 450,195 450,195 450,196 450,195 450,196 450,196 450,196 450,196 450,197 450,197 450,197 451,197 451,197 451,197 451,198 451,198 451,198 451,198 451,198 451,198 451,198 451,198 451,198 451,198 452,198 452,198 452,198 452,198 452,198 452,198 452,198 452,198 452,198 452,198 452,198 452,198 452,198 453,198 453,198 453,198 453,198 453,197 453,197 453,197 453,196 453,196 453,196 453,195 453,195 453,195 454,195 454,194 454,194 454,194 454,193 454,193 454,192 454,192 454,192 454,191 454,191 454,190 454,190 455,190 455,189 455,189 455,189 455,188 455,188 455,188 455,187 455,187 455,187 455,187 455,187 455,186 456,186 456,186 456,186 456,185 456,185 456,185 456,185 456,185 456,184 456,184 456,184 456,184 456,184 457,183 457,183 457,183 457,183 457,183 457,183 457,183 457,183 457,183 457,183 457,183 457,183 457,183 458,183 458,183 458,182 458,182 458,182 458,182 458,182 458,182 458,182 458,182 458,182 458,183 458,183 459,183 459,183 459,183 459,183 459,183 459,183 459,183 459,183 459,184 459,184 459,184 459,185 459,185 460,185 460,186 460,186 460,187 460,187 460,188 460,188 460,189 460,189 460,190 460,190 460,191 460,192 461,192 461,193 461,193 461,193 461,193 461,194 461,194 461,195 461,195 461,195 461,196 461,196 461,197 462,197 462,198 462,198 462,198 462,199 462,199 462,200 462,200 462,201 462,201 462,202 462,202 462,202 463,203 463,203 463,203 463,204 463,204 463,205 463,205 463,206 463,206 463,206 463,207 463,207 463,207 464,207 464,207 464,207 464,207 464,207 464,207 464,207 464,207 464,207 464,207 464,207 464,207 465,207 465,207 465,207 465,207 465,207 465,207 465,207 465,206 465,206 465,206 465,206 465,206 465,206 466,206 466,205 466,205 466,205 466,205 466,204 466,204 466,204 466,204 466,204 466,204 466,203 466,203 467,203 467,203 467,203 467,203 467,203 467,202 467,202 467,202 467,202 467,202 467,201 467,201 467,201 468,200 468,200 468,200 468,200 468,199 468,199 468,199 468,199 468,198 468,198 468,198 468,198 468,197 469,197 469,197 469,197 469,197 469,197 469,197 469,197 469,197 469,196 469,196 469,196 469,196 469,196 470,195 470,195 470,195 470,194 470,194 470,194 470,193 470,193 470,193 470,193 470,193 470,193 470,193 471,192 471,192 471,192 471,192 471,192 471,192 471,191 471,191 471,191 471,191 471,191 471,191 471,191 472,190 472,190 472,190 472,190 472,190 472,190 472,189 472,189 472,189 472,189 472,189 472,189 472,189 473,189 473,189 473,189 473,189 473,189 473,189 473,188 473,188 473,188 473,188 473,188 473,188 473,189 474,189 474,189 474,189 474,189 474,190 474,190 474,190 474,191 474,191 474,191 474,192 474,192 474,192 475,193 475,193 475,193 475,194 475,194 475,195 475,195 475,195 475,195 475,196 475,196 475,197 475,197 476,198 476,198 476,199 476,199 476,199 476,200 476,200 476,201 476,201 476,201 476,202 476,202 476,203 477,203 477,203 477,204 477,204 477,204 477,205 477,205 477,205 477,206 477,206 477,207 477,207 477,207 478,208 478,208 478,208 478,209 478,209 478,209 478,210 478,210 478,210 478,210 478,210 478,210 478,210 479,210 479,209 479,209 479,208 479,208 479,207 479,207 479,206 479,206 479,206 479,205 479,205 479,204 480,204 480,204 480,203 480,203 480,203 480,203 480,202 480,202 480,202 480,201 480,201 480,200 480,200 481,200 481,200 481,200 481,199 481,199 481,199 481,199 481,199 481,198 481,198 481,198 481,198 481,197 482,197 482,196 482,196 482,196 482,196 482,195 482,195 482,194 482,194 482,194 482,193 482,193 482,193 483,192 483,192 483,191 483,191 483,191 483,191 483,190 483,190 483,190 483,190 483,190 483,190 483,190 484,190 484,191 484,191 484,191 484,192 484,192 484,192 484,192 484,193 484,193 484,193 484,193 484,193 485,193 485,193 485,194 485,194 485,194 485,194 485,194 485,194 485,194 485,195 485,195 485,195 485,195 486,196 486,196 486,196 486,197 486,197 486,197 486,197 486,198 486,198 486,198 486,198 486,198 486,198 487,198 487,198 487,198 487,198 487,198 487,198 487,198 487,198 487,198 487,198 487,198 487,198 487,198 488,198 488,198 488,198 488,198 488,198 488,199 488,199 488,199 488,199 488,199 488,199 488,199 488,199 489,199 489,199 489,199 489,199 489,199 489,199 489,199 489,199 489,199 489,199 489,200 489,200 490,200 490,200 490,201 490,201 490,201 490,201 490,202 490,202 490,202 490,202 490,203 490,203 490,203 491,203 491,203 491,203 491,203 491,203 491,203 491,203 491,203 491,203 491,203 491,203 491,203 491,203 492,203 492,203 492,203 492,203 492,203 492,203 492,202 492,202 492,202 492,202 492,202 492,202 492,202 493,202 493,202 493,202 493,202 493,202 493,202 493,203 493,203 493,203 493,203 493,203 493,203 493,203 494,203 494,203 494,203 494,203 494,203 494,203 494,202 494,202 494,202 494,202 494,202 494,202 494,202 495,202 495,202 495,202 495,202 495,201 495,201 495,201 495,201 495,201 495,201 495,201 495,201 495,202 496,202 496,202 496,202 496,202 496,202 496,202 496,202 496,202 496,202 496,202 496,202 496,203 496,203 497,203 497,203 497,203 497,203 497,203 497,203 497,204 497,204 497,204 497,204 497,204 497,204 497,204 498,204 498,204 498,204 498,204 498,204 498,204 498,205 498,205 498,205 498,205 498,205 498,205 498,205 499,205 499,206 499,206 499,206 499,207 499,207 499,208 499,208 499,208 499,209 499,209 499,210 499,210 500,210 500,211 500,211 500,211 500,212 500,212 500,213 500,213 500,213 500,214 500,214 500,214 500,214 501,215 501,215 501,215 501,215 501,215 501,215 501,215 501,216 501,216 501,216 501,216 501,216 501,216 502,216 502,216 502,216 502,216 502,216 502,217 502,217 502,217 502,217 502,217 502,217 502,217 502,217 503,216 503,216 503,216 503,216 503,216 503,216 503,216 503,216 503,216 503,216 503,216 503,216 503,216 504,216 504,216 504,216 504,216 504,216 504,216 504,216 504,216 504,216 504,216 504,216 504,216 504,217 505,217 505,217 505,217 505,217 505,217 505,217 505,217 505,217 505,217 505,216 505,216 505,216 505,216 506,216 506,216 506,216 506,215 506,215 506,215 506,215 506,215 506,215 506,215 506,215 506,215 506,215 507,215 507,215 507,215 507,216 507,216 507,216 507,216 507,216 507,217 507,217 507,217 507,217 507,217 508,217 508,217 508,217 508,217 508,217 508,218 508,219 508,220 508,220 508,218 508,217 508,216 508,216 509,216 509,216 509,216 509,216 509,216 509,216 509,216 509,217 509,217 509,217 509,217 509,217 509,218 510,218 510,218 510,219 510,219 510,219 510,219 510,219 510,219 510,220 510,220 510,220 510,221 510,221 511,221 511,221 511,222 511,222 511,222 511,222 511,222 511,223 511,223 511,223 511,224 511,224 511,224 512,224 512,224 512,225 512,225 512,225 512,225 512,226 512,226 512,227 512,227 512,227 512,228 512,228 513,228 513,228 513,228 513,229 513,229 513,229 513,229 513,229 513,229 513,230 513,230 513,230 513,230 514,230 514,231 514,231 514,231 514,231 514,231 514,232 514,232 514,232 514,232 514,232 514,233 515,233 515,233 515,233 515,233 515,233 515,234 515,234 515,234 515,234 515,234 515,234 515,234 515,234 516,235 516,235 516,235 516,235 516,235 516,235 516,236 516,236 516,236 516,236 516,237 516,237 516,237 517,237 517,237 517,237 517,238 517,238 517,238 517,238 517,239 517,239 517,239 517,239 517,239 517,239 518,240 518,240 518,240 518,241 518,241 518,242 518,242 518,242 518,242 518,242 518,243 518,243 518,243 519,243 519,243 519,243 519,243 519,243 519,243 519,243 519,243 519,243 519,243 519,242 519,243 519,243 520,243 520,243 520,243 520,243 520,243 520,243 520,243 520,243 520,243 520,243 520,243 520,243 520,244 521,244 521,244 521,244 521,244 521,244 521,244 521,244 521,245 521,245 521,245 521,245 521,246 521,246 522,246 522,246 522,246 522,247 522,247 522,247 522,247 522,248 522,248 522,248 522,248 522,248 522,249 523,249 523,249 523,249 523,249 523,250 523,250 523,250 523,250 523,250 523,250 523,251 523,251 523,251 524,251 524,251 524,251 524,250 524,250 524,250 524,250 524,249 524,249 524,249 524,249 524,249 524,248 525,248 525,248 525,248 525,248 525,248 525,247 525,247 525,247 525,247 525,248 525,248 525,248 525,248 526,249 526,249 526,249 526,250 526,250 526,250 526,250 526,251 526,251 526,251 526,251 526,251 526,252 527,252 527,252 527,252 527,252 527,252 527,252 527,252 527,253 527,253 527,253 527,253 527,253 527,253 528,254 528,254 528,254 528,254 528,254 528,254 528,254 528,254 528,254 528,254 528,254 528,254 528,254 529,254 529,254 529,255 529,254 529,254 529,254 529,254 529,254 529,253 529,253 529,252 529,252 529,251 530,250 530,250 530,249 530,249 530,248 530,248 530,248 530,247 530,247 530,247 530,247 530,247 530,247 531,247 531,246 531,246 531,246 531,246 531,245 531,245 531,245 531,245 531,244 531,244 531,244 531,244 532,244 532,243 532,243 532,243 532,243 532,243 532,243 532,243 532,243 532,243 532,243 532,243 532,243 533,244 533,244 533,244 533,245 533,245 533,245 533,246 533,246 533,247 533,247 533,248 533,248 533,248 534,249 534,249 534,249 534,249 534,249 534,249 534,249 534,249 534,248 534,248 534,247 534,247 534,247 535,246 535,246 535,246 535,246 535,246 535,246 535,247 535,247 535,247 535,247 535,247 535,247 535,247 536,247 536,247 536,247 536,247 536,247 536,247 536,247 536,247 536,247 536,247 536,248 536,248 536,248 537,248 537,248 537,248 537,248 537,249 537,249 537,249 537,249 537,249 537,249 537,250 537,250 537,250 538,251 538,251 538,252 538,252 538,252 538,252 538,253 538,253 538,253 538,253 538,253 538,254 538,254 539,254 539,254 539,255 539,255 539,255 539,255 539,255 539,256 539,256 539,256 539,256 539,257 540,257 540,257 540,257 540,258 540,258 540,258 540,258 540,258 540,258 540,257 540,257 540,257 540,256 541,256 541,256 541,255 541,255 541,255 541,255 541,255 541,255 541,255 541,255 541,255 541,256 541,256 542,257 542,257 542,258 542,258 542,259 542,259 542,260 542,260 542,261 542,261 542,262 542,262 542,263 543,263 543,264 543,264 543,265 543,265 543,265 543,266 543,266 543,266 543,267 543,267 543,267 543,267 544,268 544,268 544,268 544,269 544,269 544,269 544,270 544,270 544,270 544,270 544,271 544,271 544,271 545,271 545,271 545,271 545,271 545,270 545,270 545,269 545,269 545,268 545,268 545,267 545,267 545,267 546,267 546,267 546,267 546,267 546,267 546,267 546,267 546,267 546,267 546,268 546,268 546,269 546,269 547,270 547,270 547,271 547,271 547,271 547,271 547,271 547,271 547,271 547,271 547,270 547,270 547,270 548,271 548,271 548,271 548,271 548,271 548,271 548,271 548,272 548,272 548,272 548,272 548,273 548,274 549,274 549,275 549,277 549,278 549,279 549,279 549,280 549,281 549,281 549,281 549,281 549,282 549,282 550,283 550,283 550,283 550,283 550,283 550,282 550,282 550,282 550,281 550,281 550,281 550,280 550,280 551,280 551,279 551,279 551,278 551,278 551,277 551,277 551,276 551,276 551,275 551,275 551,275 551,275 552,274 552,274 552,274 552,273 552,273 552,273 552,273 552,273 552,273 552,273 552,273 552,273 552,273 553,273 553,274 553,274 553,275 553,276 553,276 553,276 553,276 553,276 553,275 553,275 553,274 553,274 554,274 554,273 554,273 554,272 554,271 554,270 554,270 554,269 554,269 554,268 554,267 554,266 554,265 555,264 555,263 555,262 555,262 555,261 555,260 555,260 555,259 555,259 555,259 555,258 555,258 555,258 556,257 556,257 556,257 556,257 556,256 556,256 556,256 556,256 556,255 556,255 556,255 556,254 556,253 557,253 557,253 557,252 557,252 557,252 557,251 557,251 557,251 557,251 557,250 557,250 557,249 557,249 558,249 558,248 558,248 558,248 558,247 558,247 558,247 558,247 558,246 558,246 558,246 558,246 558,246 559,246 559,246 559,246 559,247 559,247 559,247 559,247 559,247 559,247 559,248 559,248 559,248 559,249 560,249 560,249 560,250 560,251 560,251 560,252 560,252 560,253 560,253 560,254 560,254 560,255 560,256 561,257 561,257 561,258 561,259 561,260 561,260 561,261 561,262 561,262 561,263 561,263 561,264 561,264 562,265 562,265 562,266 562,267 562,267 562,267 562,267 562,268 562,268 562,267 562,267 562,267 562,267 563,266 563,266 563,265 563,265 563,265 563,265 563,265 563,265 563,265 563,264 563,264 563,264 563,264 564,265 564,265 564,265 564,265 564,265 564,265 564,265 564,265 564,265 564,265 564,265 564,265 565,266 565,266 565,267 565,268 565,269 565,269 565,270 565,271 565,272 565,272 565,272 565,272 565,271 566,271 566,270 566,270 566,269 566,268 566,267 566,266 566,266 566,265 566,265 566,264 566,264 566,263 567,263 567,263 567,263 567,262 567,262 567,262 567,262 567,262 567,262 567,262 567,262 567,262 567,262 568,262 568,262 568,263 568,263 568,263 568,263 568,263 568,263 568,263 568,263 568,263 568,263 568,263 569,263 569,263 569,263 569,263 569,264 569,264 569,264 569,264 569,264 569,264 569,265 569,265 569,265 570,266 570,266 570,266 570,267 570,267 570,267 570,268 570,268 570,269 570,269 570,270 570,270 570,270 571,271 571,271 571,271 571,271 571,271 571,271 571,271 571,271 571,271 571,270 571,270 571,269 571,269 572,268 572,268 572,267 572,267 572,267 572,266 572,266 572,266 572,265 572,265 572,265 572,265 572,265 573,264 573,264 573,264 573,265 573,265 573,265 573,265 573,266 573,266 573,266 573,266 573,267 573,268 574,268 574,268 574,269 574,270 574,271 574,271 574,272 574,272 574,273 574,273 574,273 574,274 574,274 575,275 575,275 575,275 575,275 575,274 575,274 575,274 575,274 575,273 575,273 575,273 575,273 575,272 576,272 576,272 576,272 576,272 576,273 576,273 576,273 576,274 576,274 576,275 576,276 576,276 576,276 577,275 577,275 577,275 577,274 577,274 577,273 577,273 577,273 577,273 577,273 577,273 577,273 577,273 578,273 578,272 578,273 578,272 578,272 578,272 578,272 578,271 578,271 578,271 578,271 578,271 578,271 579,271 579,271 579,271 579,271 579,271 579,271 579,272 579,272 579,273 579,274 579,274 579,275 579,276 580,277 580,277 580,278 580,279 580,280 580,281 580,282 580,283 580,283 580,284 580,285 580,286 580,287 581,288 581,288 581,289 581,290 581,290 581,291 581,291 581,291 581,290 581,289 581,289 581,289 581,288 582,288 582,288 582,287 582,287 582,287 582,287 582,287 582,287 582,287 582,287 582,287 582,288 582,288 583,288 583,288 583,288 583,289 583,289 583,289 583,289 583,290 583,290 583,290 583,291 583,291 583,291 584,291 584,292 584,292 584,293 584,293 584,294 584,295 584,296 584,297 584,297 584,298 584,299 584,300 585,301 585,302 585,303 585,303 585,304 585,304 585,305 585,306 585,305 585,305 585,305 585,305 585,305 586,305 586,305 586,305 586,304 586,304 586,304 586,304 586,303 586,303 586,302 586,302 586,302 586,301 587,301 587,301 587,301 587,301 587,301 587,302 587,302 587,303 587,303 587,304 587,304 587,305 587,305 588,305 588,305 588,305 588,304 588,303 588,303 588,302 588,301 588,300 588,299 588,299 588,297 588,296 589,295 589,294 589,293 589,292 589,291 589,290 589,289 589,288 589,288 589,287 589,287 589,286 590,286 590,285 590,284 590,284 590,283 590,283 590,282 590,282 590,281 590,281 590,281 590,281 590,280 591,280 591,280 591,280 591,280 591,280 591,280 591,280 591,280 591,280 591,280 591,281 591,281 591,281 592,282 592,282 592,283 592,283 592,284 592,284 592,285 592,285 592,286 592,286 592,287 592,288 592,288 593,289 593,290 593,291 593,292 593,293 593,294 593,295 593,296 593,297 593,298 593,298 593,300 593,301 594,302 594,303 594,305 594,306 594,307 594,308 594,309 594,310 594,311 594,313 594,314 594,314 594,315 595,316 595,317 595,317 595,318 595,319 595,319 595,320 595,320 595,321 595,321 595,322 595,322 595,323 596,323 596,323 596,322 596,322 596,322 596,321 596,320 596,320 596,319 596,319 596,318 596,317 596,317 597,316 597,316 597,316 597,315 597,315 597,314 597,314 597,313 597,313 597,313 597,313 597,312 597,312 598,312 598,312 598,312 598,312 598,312 598,312 598,312 598,312 598,311 598,311 598,311 598,311 598,311 599,311 599,311 599,311 599,311 599,311 599,311 599,311 599,311 599,310 599,310 599,310 599,310 599,310 600,311 600,312 600,313 600,313 600,314 600,315 600,316 600,316 600,316 600,316 600,316 600,316 600,316 601,316 601,316 601,316 601,316 601,316 601,315 601,316 601,316 601,316 601,316 601,317 601,317 601,317 602,318 602,319 602,319 602,319 602,320 602,320 602,320 602,321 602,321 602,321 602,321 602,321 602,319 603,319 603,319 603,318 603,317 603,316 603,315 603,314 603,313 603,312 603,311 603,310 603,308 603,307 604,306 604,305 604,304 604,303 604,302 604,301 604,300 604,300 604,299 604,299 604,298 604,297 604,297 605,296 605,295 605,294 605,294 605,293 605,293 605,293 605,292 605,292 605,292 605,292 605,291 605,291 606,291 606,291 606,291 606,291 606,292 606,293 606,293 606,293 606,294 606,294 606,295 606,295 606,296 607,296 607,296 607,297 607,297 607,297 607,298 607,298 607,298 607,299 607,299 607,299 607,300 607,300 608,300 608,301 608,301 608,301 608,301 608,302 608,302 608,302 608,302 608,303 608,303 608,303 608,303 609,304 609,304 609,304 609,304 609,304 609,304 609,305 609,305 609,305 609,305 609,305 609,305 609,305 610,306 610,306 610,306 610,306 610,306 610,306 610,305 610,305 610,305 610,305 610,305 610,305 610,305 611,305 611,305 611,305 611,305 611,305 611,305 611,305 611,305 611,304 611,304 611,304 611,304 611,304 612,304 612,304 612,304 612,304 612,304 612,304 612,304 612,304 612,304 612,305 612,305 612,305 612,306 613,307 613,308 613,308 613,309 613,310 613,311 613,312 613,313 613,314 613,315 613,316 613,317 613,318 614,318 614,319 614,320 614,320 614,321 614,322 614,322 614,323 614,325 614,325 614,326 614,327 615,328 615,328 615,329 615,329 615,330 615,330 615,331 615,331 615,331 615,330 615,330 615,330 615,331 616,330 616,330 616,330 616,330 616,331 616,331 616,331 616,331 616,331 616,331 616,331 616,331 616,330 617,330 617,329 617,327 617,327 617,326 617,325 617,324 617,323 617,323 617,322 617,322 617,321 617,321 618,320 618,320 618,320 618,320 618,319 618,319 618,319 618,318 618,318 618,317 618,317 618,316 618,316 619,315 619,315 619,314 619,314 619,313 619,313 619,312 619,312 619,311 619,311 619,310 619,310 619,309 620,309 620,308 620,308 620,308 620,307 620,307 620,306 620,306 620,305 620,305 620,304 620,303 620,303 621,303 621,302 621,302 621,301 621,301 621,300 621,300 621,299 621,299 621,299 621,298 621,298 621,297 622,297 622,297 622,297 622,297 622,297 622,296 622,296 622,296 622,297 622,297 622,297 622,297 622,297 623,297 623,297 623,297 623,298 623,298 623,298 623,299 623,299 623,300 623,300 623,301 623,302 623,303 624,304 624,305 624,305 624,306 624,307 624,308 624,309 624,310 624,311 624,312 624,313 624,314 624,315 625,316 625,317 625,318 625,319 625,320 625,321 625,322 625,323 625,324 625,325 625,326 625,327 625,328 626,328 626,329 626,330 626,330 626,330 626,330 626,330 626,331 626,331 626,331 626,331 626,331 626,330 627,330 627,330 627,330 627,330 627,330 627,329 627,329 627,329 627,329 627,329 627,328 627,328 627,328 628,328 628,328 628,327 628,327 628,327 628,327 628,327 628,327 628,326 628,326 628,326 628,326 628,326 629,326 629,326 629,325 629,325 629,325 629,325 629,324 629,324 629,324 629,323 629,323 629,322 629,322 630,321 630,321 630,320 630,319 630,319 630,318 630,318 630,317 630,317 630,317 630,316 630,316 630,316 631,316 631,316 631,315 631,314 631,313 631,313 631,312 631,311 631,310 631,309 631,308 631,307 631,306 632,304 632,303 632,303 632,302 632,301 632,301 632,301 632,301 632,301 632,301 632,301 632,301 632,301 633,300 633,300 633,300 633,299 633,299 633,299 633,299 633,300 633,300 633,300 633,299 633,299 633,299 634,300 634,300 634,300 634,300 634,300 634,300 634,300 634,300 634,300 634,301 634,300 634,300 634,301 635,301 635,302 635,301 635,302 635,302 635,303 635,302 635,302 635,302 635,302 635,301 635,301 635,300 636,299 636,299 636,298 636,297 636,297 636,296 636,296 636,296 636,295 636,295 636,295 636,295 636,294 637,294 637,294 637,294 637,293 637,293 637,293 637,293 637,292 637,292 637,292 637,292 637,292 637,291 638,291 638,291 638,291 638,291 638,291 638,291 638,290 638,290 638,290 638,290 638,290 638,290 638,290 639,290 639,290 639,289 639,289 639,289 639,289 639,289 639,289 639,289 639,289 639,289 639,289 640,289 640,289 640,289 640,289 640,289 640,290 640,290 640,290 640,290 640,290 640,290 640,290 640,290 641,291 641,291 641,291 641,291 641,291 641,292 641,292 641,292 641,292 641,292 641,293 641,293 641,293 642,293 642,293 642,293 642,294 642,294 642,294 642,294 642,294 642,294 642,295 642,295 642,295 642,295 643,295 643,295 643,296 643,296 643,296 643,296 643,296 643,296 643,296 643,297 643,297 643,297 643,297 644,297 644,297 644,297 644,297 644,297 644,297 644,297 644,297 644,297 644,297 644,297 644,297 644,297 645,297 645,298 645,298 645,298 645,298 645,298 645,298 645,298 645,298 645,298 645,298 645,298 645,298 646,298 646,298 646,298 646,298 646,299 646,299 646,299 646,299 646,299 646,300 646,300 646,300 646,301 647,301 647,301 647,302 647,302 647,303 647,303 647,303 647,304 647,305 647,305 647,306 647,306 647,307 648,308 648,308 648,309 648,310 648,310 648,311 648,312 648,312 648,313 648,313 648,313 648,313 648,314 649,314 649,314 649,314 649,314 649,313 649,313 649,313 649,313 649,314 649,314 649,314 649,314 649,314 650,314 650,314 650,314 650,314 650,314 650,314 650,314 650,314 650,314 650,315 650,315 650,315 650,315 651,315 651,315 651,315 651,315 651,315 651,314 651,314 651,314 651,314 651,314 651,314 651,313 651,313 652,313 652,313 652,313 652,312 652,312 652,312 652,312 652,312 652,312 652,311 652,311 652,311 652,310 653,310 653,310 653,310 653,309 653,309 653,309 653,308 653,308 653,308 653,307 653,307 653,307 653,306 654,306 654,306 654,305 654,305 654,305 654,304 654,304 654,304 654,304 654,303 654,303 654,303 654,303 655,302 655,302 655,302 655,302 655,302 655,302 655,301 655,301 655,301 655,301 655,301 655,301 655,301 656,301 656,301 656,301 656,301 656,301 656,302 656,302 656,302 656,302 656,303 656,303 656,303 656,304 657,304 657,305 657,305 657,306 657,307 657,307 657,308 657,309 657,310 657,310 657,311 657,312 657,312 658,313 658,314 658,314 658,315 658,315 658,315 658,316 658,316 658,316 658,317 658,317 658,318 658,318 659,318 659,319 659,319 659,319 659,318 659,318 659,318 659,318 659,318 659,317 659,317 659,317 659,317 660,317 660,317 660,316 660,316 660,316 660,316 660,316 660,315 660,315 660,314 660,314 660,314 660,313 661,313 661,312 661,312 661,311 661,311 661,311 661,311 661,311 661,310 661,310 661,310 661,310 661,310 662,310 662,310 662,310 662,310 662,310 662,310 662,310 662,311 662,311 662,311 662,311 662,312 662,312 663,312 663,312 663,313 663,313 663,314 663,314 663,315 663,316 663,316 663,317 663,318 663,319 663,319 664,320 664,321 664,322 664,322 664,323 664,324 664,324 664,325 664,325 664,326 664,326 664,327 665,327 665,328 665,328 665,328 665,329 665,329 665,329 665,329 665,329 665,330 665,330 665,330 665,330 666,330 666,330 666,331 666,331 666,331 666,331 666,331 666,331 666,331 666,331 666,331 666,331 666,331 667,331 667,331 667,331 667,331 667,331 667,331 667,331 667,331 667,331 667,331 667,331 667,331 667,330 668,330 668,330 668,330 668,330 668,330 668,330 668,330 668,330 668,330 668,330 668,330 668,330 668,331 669,331 669,331 669,331 669,331 669,331 669,331 669,332 669,332 669,332 669,332 669,332 669,332 669,332 670,333 670,333 670,333 670,333 670,333 670,333 670,333 670,333 670,333 670,333 670,334 670,334 670,334 671,334 671,334 671,334 671,334 671,334 671,334 671,334 671,334 671,335 671,336 671,336 671,337 671,337 672,338 672,338 672,337 672,337 672,336 672,336 672,336 672,336 672,335 672,335 672,335 672,335 672,336 673,336 673,336 673,336 673,336 673,336 673,335 673,335 673,335 673,335 673,335 673,335 673,335 673,335 674,335 674,335 674,335 674,334 674,334 674,334 674,333 674,333 674,333 674,332 674,332 674,332 674,331 675,331 675,331 675,331 675,331 675,331 675,331 675,331 675,331 675,331 675,331 675,331 675,331 675,331 676,331 676,331 676,331 676,331 676,331 676,331 676,331 676,331 676,331 676,331 676,331 676,331 676,331 677,331 677,331 677,331 677,331 677,331 677,331 677,331 677,331 677,331 677,331 677,331 677,331 677,331 678,331 678,331 678,331 678,331 678,331 678,331 678,331 678,331 678,331 678,331 678,331 678,330 678,330 679,330 679,330 679,330 679,330 679,330 679,330 679,329 679,329 679,329 679,329 679,329 679,329 679,329 680,329 680,329 680,329 680,329 680,329 680,328 680,328 680,328 680,328 680,328 680,328 680,328 680,328 681,328 681,328 681,328 681,328 681,328 681,328 681,328 681,328 681,328 681,328 681,328 681,328 681,328 682,328 682,328 682,327 682,327 682,327 682,327 682,327 682,327 682,327 682,327 682,327 682,327 682,327 683,326 683,326 683,326 683,326 683,326 683,326 683,326 683,326 683,326 683,326 683,326 683,326 683,326 684,326 684,326 684,326 684,325 684,326 684,325 684,325 684,325 684,325 684,325 684,325 684,325 684,325 685,325 685,325 685,325 685,325 685,325 685,325 685,325 685,325 685,325 685,325 685,325 685,325 685,325 686,325 686,325 686,325 686,325 686,325 686,325 686,325 686,325 686,325 686,325 686,325 686,325 686,325 687,325 687,325 687,325 687,325 687,325 687,325 687,325 687,325 687,325 687,325 687,326 687,326 687,326 688,326 688,326 688,326 688,325 688,325 688,325 688,325 688,325 688,325 688,325 688,325 688,325 688,325 689,325 689,325 689,325 689,325 689,325 689,325 689,325 689,325 689,325 689,325 689,325 689,325 690,325 690,325 690,324 690,324 690,324 690,324 690,324 690,324 690,324 690,324 690,324 690,324 690,324 691,324 691,324 691,324 691,324 691,324 691,324 691,324 691,324 691,324 691,324 691,324 691,324 691,324 692,324 692,324 692,324 692,324 692,324 692,324 692,324 692,324 692,324 692,324 692,324 692,324 692,324 693,324 693,324 693,324 693,324 693,324 693,324 693,324 693,324 693,324 693,324 693,324 693,324 693,324 694,324 694,324 694,324 694,324 694,324 694,324 694,324 694,324 694,324 694,324 694,324 694,324 694,324 695,324 695,324 695,324 695,324 695,324 695,324 695,324 695,324 695,324 695,324 695,324 695,324 695,324 696,324 696,324 696,324 696,324 696,324 696,324 696,324 696,324 696,325 696,325 696,325 696,325 696,325 697,325 697,325 697,325 697,325 697,325 697,325 697,325 697,325 697,325 697,325 697,326 697,326 697,326 698,326 698,326 698,326 698,326 698,326 698,326 698,326 698,326 698,326 698,326 698,326 698,326 698,326 699,326 699,326 699,326 699,326 699,326 699,326 699,326 699,326 699,326 699,326 699,326 699,326 699,326 700,326 700,326 700,326 700,326 700,326 700,326 700,326 700,326 700,326 700,326 700,325 700,325 700,325 701,325 701,325 701,325 701,325 701,325 701,325 701,325 701,324 701,324 701,324 701,324 701,324 701,324 702,324 702,324 702,323 702,323 702,323 702,323 702,323 702,323 702,323 702,323 702,323 702,323 702,323 703,323 703,323 703,322 703,322 703,322 703,322 703,322 703,322 703,321 703,321 703,321 703,321 703,321 704,321 704,321 704,321 704,321 704,321 704,321 704,321 704,321 704,321 704,320 704,320 704,320 704,319 705,319 705,319 705,318 705,318 705,318 705,318 705,318 705,318 705,318 705,318 705,318 705,318 705,317 706,317 706,317 706,317 706,317 706,317 706,317 706,317 706,317 706,317 706,317 706,317 706,316 706,316 707,316 707,316 707,315 707,315 707,315 707,315 707,314 707,314 707,314 707,314 707,314 707,314 707,313 708,313 708,313 708,313 708,313 708,313 708,312 708,312 708,312 708,312 708,312 708,311 708,311 708,311 709,311 709,311 709,311 709,311 709,311 709,310 709,310 709,310 709,310 709,310 709,310 709,310 709,310 710,309 710,309 710,309 710,308 710,308 710,308 710,307 710,307 710,307 710,307 710,306 710,306 710,306 711,306 711,306 711,306 711,306 711,306 711,305 711,305 711,305 711,305 711,304 711,304 711,304 711,304 712,304 712,303 712,303 712,303 712,303 712,302 712,302 712,302 712,301 712,301 712,300 712,300 712,299 713,298 713,298 713,297 713,297 713,296 713,295 713,295 713,294 713,294 713,293 713,292 713,292 713,291 714,291 714,291 714,290 714,290 714,290 714,290 714,289 714,289 714,289 714,288 714,288 714,288 715,287 715,287 715,287 715,286 715,286 715,286 715,285 715,285 715,285 715,285 715,284 715,284 715,284 716,283 716,283 716,283 716,283 716,283 716,282 716,282 716,282 716,282 716,282 716,282 716,282 716,282 717,282 717,281 717,281 717,281 717,281 717,281 717,281 717,281 717,281 717,281 717,281 717,281 717,281 718,281 718,281 718,281 718,281 718,281 718,281 718,281 718,282 718,282 718,282 718,283 718,283 718,283 719,284 719,284 719,284 719,285 719,285 719,286 719,286 719,287 719,287 719,288 719,288 719,288 719,287 720,287 720,287 720,287 720,287 720,287 720,287 720,287 720,287 720,287 720,288 720,288 720,289 720,289 721,290 721,290 721,290 721,290 721,290 721,290 721,290 721,290 721,289 721,289 721,289 721,288 721,288 722,287 722,287 722,286 722,286 722,285 722,285 722,284 722,284 722,284 722,284 722,283 722,283 722,283 723,284 723,284 723,283 723,283 723,283 723,283 723,283 723,283 723,283 723,283 723,283 723,283 723,283 724,283 724,283 724,283 724,283 724,283 724,283 724,283 724,283 724,283 724,283 724,282 724,282 724,282 725,282 725,283 725,283 725,283 725,283 725,283 725,283 725,283 725,283 725,283 725,283 725,282 725,283 726,283 726,283 726,282 726,282 726,282 726,282 726,282 726,282 726,282 726,282 726,282 726,282 726,282 727,282 727,282 727,282 727,282 727,282 727,282 727,282 727,282 727,282 727,282 727,282 727,283 727,283 728,283 728,283 728,283 728,283 728,283 728,283 728,283 728,283 728,283 728,283 728,283 728,283 728,283 729,283 729,283 729,283 729,283 729,283 729,283 729,283 729,283 729,283 729,283 729,283 729,283 729,283 730,283 730,283 730,283 730,284 730,284 730,284 730,284 730,284 730,284 730,284 730,284 730,284 730,284 731,284 731,284 731,284 731,284 731,284 731,284 731,284 731,284 731,284 731,284 731,284 731,284 731,285 732,285 732,285 732,285 732,285 732,285 732,285 732,285 732,285 732,285 732,285 732,285 732,285 732,285 733,285 733,286 733,286 733,286 733,286 733,286 733,287 733,287 733,287 733,287 733,288 733,288 733,288 734,288 734,288 734,288 734,288 734,288 734,287 734,287 734,288 734,288 734,288 734,288 734,288 734,288 735,289 735,289 735,289 735,289 735,289 735,289 735,289 735,289 735,289 735,289 735,289 735,289 735,289 736,289 736,289 736,289 736,289 736,289 736,290 736,290 736,290 736,291 736,290 736,290 " vector-effect="non-scaling-stroke"></polyline>
</g></svg>