<?xml version="1.0" encoding="UTF-8" standalone="no"?><svg width="282.222mm" height="141.111mm" xmlns="http://www.w3.org/2000/svg" xmlns:xlink="http://www.w3.org/1999/xlink"  version="1.2" baseProfile="tiny"><g fill="none" stroke="#ff0000" stroke-linecap="round" stroke-linejoin="round" stroke-opacity="1" stroke-width="1.5" transform="matrix(1,0,0,1,0,0)">
<polyline fill="none" points="57,267 57,267 57,266 58,266 58,265 58,265 58,265 58,264 58,264 58,264 58,264 58,264 58,264 58,264 58,264 58,264 59,264 59,264 59,264 59,264 59,265 59,265 59,265 59,265 59,265 59,265 59,265 59,266 59,266 60,266 60,266 60,267 60,267 60,267 60,267 60,267 60,267 60,267 60,268 60,268 60,268 60,268 61,268 61,268 61,268 61,268 61,268 61,268 61,268 61,268 61,268 61,268 61,268 61,268 61,268 62,268 62,268 62,268 62,268 62,269 62,269 62,269 62,269 62,269 62,269 62,269 62,269 63,269 63,269 63,269 63,269 63,270 63,270 63,270 63,271 63,271 63,272 63,273 63,274 63,274 64,275 64,276 64,277 64,278 64,279 64,280 64,281 64,282 64,283 64,285 64,286 64,287 64,288 65,290 65,291 65,293 65,295 65,296 65,298 65,299 65,300 65,302 65,303 65,304 65,306 65,307 66,309 66,310 66,311 66,312 66,312 66,313 66,313 66,313 66,312 66,312 66,311 66,310 66,309 67,308 67,307 67,306 67,305 67,304 67,303 67,303 67,302 67,301 67,301 67,301 67,300 67,300 68,299 68,299 68,299 68,298 68,298 68,298 68,298 68,297 68,297 68,297 68,296 68,296 68,296 69,295 69,295 69,295 69,294 69,294 69,294 69,294 69,293 69,293 69,293 69,292 69,292 69,292 70,291 70,291 70,291 70,291 70,291 70,290 70,290 70,290 70,290 70,290 70,289 70,289 70,289 71,289 71,289 71,289 71,289 71,289 71,288 71,288 71,288 71,288 71,288 71,288 71,288 71,288 72,288 72,288 72,287 72,287 72,287 72,286 72,286 72,286 72,286 72,286 72,285 72,285 72,285 73,285 73,285 73,285 73,285 73,285 73,285 73,285 73,285 73,285 73,285 73,285 73,285 73,285 74,285 74,285 74,285 74,286 74,286 74,286 74,286 74,287 74,287 74,287 74,288 74,288 74,288 75,289 75,289 75,290 75,290 75,291 75,291 75,291 75,292 75,292 75,293 75,293 75,293 75,293 76,293 76,294 76,293 76,293 76,293 76,292 76,292 76,292 76,292 76,291 76,290 76,290 76,290 77,289 77,289 77,288 77,288 77,287 77,287 77,286 77,285 77,285 77,285 77,284 77,284 77,284 78,283 78,283 78,283 78,282 78,282 78,282 78,281 78,281 78,281 78,280 78,280 78,280 78,280 79,279 79,279 79,279 79,279 79,279 79,278 79,278 79,278 79,278 79,278 79,278 79,278 79,278 80,278 80,278 80,278 80,278 80,278 80,278 80,278 80,277 80,277 80,277 80,277 80,277 80,277 81,277 81,277 81,277 81,277 81,277 81,277 81,277 81,277 81,277 81,276 81,276 81,276 81,276 82,275 82,275 82,275 82,275 82,275 82,275 82,274 82,274 82,274 82,274 82,274 82,273 82,273 83,273 83,273 83,273 83,273 83,273 83,273 83,273 83,273 83,274 83,274 83,274 83,274 83,274 84,274 84,274 84,275 84,275 84,275 84,275 84,276 84,276 84,276 84,276 84,277 84,277 84,277 85,277 85,278 85,278 85,278 85,279 85,279 85,279 85,280 85,280 85,281 85,282 85,282 86,283 86,283 86,284 86,284 86,284 86,284 86,283 86,283 86,283 86,282 86,282 86,282 86,281 87,281 87,280 87,280 87,279 87,279 87,278 87,278 87,278 87,277 87,277 87,276 87,276 87,276 88,275 88,275 88,275 88,275 88,274 88,274 88,273 88,273 88,272 88,272 88,272 88,272 88,272 89,272 89,271 89,271 89,271 89,271 89,271 89,270 89,270 89,270 89,269 89,269 89,268 89,268 90,268 90,268 90,267 90,267 90,267 90,266 90,266 90,266 90,266 90,266 90,266 90,266 90,265 91,265 91,265 91,265 91,266 91,266 91,266 91,266 91,266 91,266 91,266 91,266 91,266 91,266 92,266 92,266 92,266 92,266 92,266 92,266 92,266 92,266 92,267 92,267 92,267 92,268 92,269 93,269 93,270 93,270 93,271 93,271 93,271 93,272 93,272 93,273 93,273 93,273 93,274 93,274 94,275 94,275 94,275 94,276 94,276 94,276 94,277 94,277 94,277 94,277 94,278 94,278 94,278 95,278 95,279 95,279 95,279 95,280 95,280 95,280 95,280 95,281 95,281 95,281 95,281 95,282 96,282 96,282 96,282 96,282 96,282 96,283 96,283 96,283 96,283 96,283 96,283 96,283 96,284 97,284 97,284 97,284 97,284 97,284 97,283 97,283 97,283 97,282 97,282 97,281 97,280 97,280 98,279 98,279 98,278 98,277 98,277 98,277 98,277 98,277 98,276 98,276 98,276 98,276 98,276 99,276 99,275 99,275 99,275 99,275 99,275 99,275 99,275 99,275 99,275 99,275 99,275 99,275 100,275 100,275 100,275 100,275 100,275 100,275 100,275 100,275 100,275 100,275 100,275 100,276 100,276 101,277 101,277 101,277 101,277 101,277 101,277 101,277 101,277 101,278 101,278 101,278 101,278 101,279 102,279 102,280 102,281 102,281 102,282 102,282 102,282 102,283 102,283 102,283 102,284 102,284 102,285 103,285 103,286 103,286 103,287 103,288 103,288 103,289 103,288 103,288 103,288 103,288 103,288 103,288 104,288 104,288 104,287 104,287 104,286 104,286 104,285 104,285 104,284 104,284 104,283 104,283 104,283 105,282 105,282 105,281 105,281 105,281 105,281 105,281 105,281 105,281 105,280 105,280 105,280 105,280 106,280 106,280 106,280 106,280 106,279 106,278 106,278 106,277 106,277 106,277 106,276 106,276 106,275 107,275 107,275 107,275 107,275 107,275 107,274 107,274 107,274 107,274 107,273 107,273 107,273 107,272 108,272 108,272 108,272 108,272 108,271 108,271 108,271 108,270 108,270 108,270 108,270 108,270 108,270 109,270 109,270 109,269 109,269 109,269 109,269 109,269 109,269 109,269 109,269 109,268 109,268 110,268 110,268 110,268 110,268 110,268 110,268 110,268 110,268 110,268 110,268 110,268 110,268 110,268 111,267 111,267 111,267 111,268 111,268 111,268 111,268 111,267 111,267 111,267 111,267 111,267 111,267 112,267 112,267 112,267 112,267 112,267 112,267 112,267 112,266 112,266 112,266 112,266 112,266 112,266 113,266 113,266 113,266 113,266 113,266 113,266 113,266 113,266 113,266 113,266 113,267 113,267 113,267 114,268 114,268 114,269 114,269 114,269 114,270 114,270 114,271 114,271 114,271 114,272 114,272 114,272 115,273 115,273 115,273 115,273 115,273 115,274 115,274 115,274 115,274 115,274 115,274 115,275 115,275 116,275 116,275 116,275 116,276 116,276 116,276 116,276 116,276 116,276 116,276 116,276 116,276 116,276 117,277 117,277 117,276 117,276 117,276 117,276 117,276 117,276 117,276 117,276 117,276 117,276 117,276 118,276 118,276 118,276 118,276 118,276 118,276 118,276 118,276 118,276 118,276 118,276 118,275 118,275 119,275 119,275 119,275 119,275 119,275 119,274 119,274 119,274 119,274 119,274 119,273 119,273 119,273 120,272 120,272 120,271 120,271 120,271 120,271 120,271 120,270 120,270 120,270 120,269 120,269 120,268 121,268 121,268 121,267 121,267 121,267 121,266 121,266 121,266 121,266 121,266 121,265 121,265 121,265 122,265 122,265 122,265 122,265 122,265 122,266 122,266 122,266 122,267 122,267 122,268 122,268 122,269 123,269 123,270 123,270 123,270 123,271 123,271 123,272 123,272 123,273 123,273 123,274 123,274 123,274 124,275 124,275 124,275 124,275 124,276 124,276 124,276 124,277 124,277 124,277 124,277 124,277 124,278 125,278 125,278 125,278 125,278 125,278 125,278 125,278 125,278 125,279 125,279 125,279 125,279 125,279 126,280 126,280 126,280 126,281 126,281 126,281 126,281 126,282 126,282 126,282 126,282 126,282 126,282 127,282 127,282 127,282 127,282 127,282 127,282 127,282 127,282 127,282 127,282 127,281 127,281 127,281 128,281 128,281 128,280 128,280 128,280 128,279 128,279 128,279 128,278 128,278 128,277 128,277 128,277 129,276 129,276 129,276 129,275 129,275 129,275 129,275 129,275 129,275 129,274 129,274 129,274 129,274 130,274 130,274 130,274 130,273 130,273 130,273 130,273 130,273 130,273 130,273 130,273 130,273 130,273 131,272 131,272 131,272 131,272 131,272 131,271 131,271 131,271 131,271 131,271 131,270 131,270 131,270 132,270 132,270 132,270 132,270 132,270 132,270 132,270 132,270 132,270 132,270 132,270 132,270 133,270 133,270 133,270 133,270 133,270 133,270 133,270 133,270 133,270 133,270 133,270 133,270 133,270 134,270 134,270 134,270 134,269 134,269 134,269 134,269 134,269 134,269 134,269 134,269 134,269 134,269 135,268 135,268 135,268 135,268 135,267 135,267 135,267 135,267 135,267 135,266 135,266 135,266 135,265 136,265 136,265 136,265 136,265 136,265 136,265 136,265 136,265 136,265 136,265 136,265 136,265 136,265 137,265 137,265 137,265 137,265 137,265 137,265 137,266 137,266 137,266 137,266 137,266 137,266 137,266 138,266 138,265 138,265 138,265 138,265 138,265 138,265 138,265 138,264 138,264 138,264 138,264 138,264 139,264 139,263 139,263 139,263 139,263 139,263 139,262 139,261 139,261 139,261 139,261 139,261 139,261 140,261 140,261 140,261 140,261 140,261 140,261 140,261 140,261 140,261 140,261 140,261 140,262 140,262 141,262 141,262 141,262 141,263 141,263 141,263 141,263 141,264 141,264 141,264 141,264 141,264 141,265 142,265 142,265 142,265 142,265 142,265 142,265 142,266 142,266 142,266 142,266 142,266 142,266 142,266 143,266 143,266 143,266 143,266 143,266 143,266 143,265 143,265 143,265 143,265 143,265 143,265 143,264 144,264 144,264 144,263 144,263 144,263 144,262 144,262 144,261 144,261 144,261 144,261 144,261 144,260 145,260 145,260 145,260 145,259 145,259 145,259 145,258 145,258 145,257 145,256 145,256 145,256 145,256 146,255 146,255 146,255 146,255 146,255 146,254 146,254 146,254 146,254 146,254 146,255 146,255 146,255 147,255 147,255 147,256 147,256 147,256 147,256 147,256 147,256 147,257 147,257 147,257 147,257 147,257 148,258 148,258 148,258 148,258 148,258 148,259 148,259 148,259 148,259 148,259 148,259 148,259 148,259 149,258 149,258 149,258 149,258 149,258 149,258 149,258 149,258 149,258 149,258 149,258 149,258 149,258 150,257 150,257 150,257 150,257 150,257 150,258 150,258 150,258 150,258 150,258 150,257 150,257 150,258 151,258 151,257 151,257 151,256 151,256 151,256 151,255 151,255 151,255 151,254 151,254 151,254 151,254 152,253 152,253 152,253 152,253 152,253 152,253 152,253 152,252 152,252 152,252 152,252 152,251 152,251 153,251 153,251 153,251 153,250 153,250 153,250 153,250 153,250 153,249 153,249 153,249 153,249 153,249 154,248 154,248 154,248 154,248 154,248 154,248 154,247 154,247 154,247 154,247 154,247 154,247 154,246 155,246 155,246 155,246 155,245 155,245 155,245 155,245 155,245 155,244 155,244 155,244 155,244 156,244 156,243 156,243 156,243 156,242 156,242 156,242 156,241 156,241 156,241 156,241 156,240 156,240 157,240 157,239 157,239 157,238 157,238 157,237 157,237 157,236 157,236 157,235 157,235 157,234 157,234 158,233 158,233 158,232 158,232 158,231 158,231 158,230 158,229 158,229 158,228 158,228 158,227 158,226 159,226 159,225 159,224 159,223 159,223 159,222 159,221 159,221 159,220 159,219 159,218 159,217 159,216 160,215 160,215 160,214 160,213 160,212 160,212 160,211 160,211 160,210 160,210 160,209 160,209 160,209 161,208 161,208 161,208 161,208 161,208 161,208 161,208 161,208 161,208 161,208 161,208 161,208 161,208 162,208 162,209 162,208 162,208 162,208 162,207 162,206 162,206 162,205 162,204 162,204 162,203 162,203 163,203 163,202 163,202 163,202 163,203 163,203 163,203 163,203 163,203 163,203 163,203 163,203 163,203 164,204 164,204 164,204 164,205 164,205 164,205 164,204 164,204 164,204 164,204 164,203 164,203 164,203 165,202 165,202 165,201 165,201 165,200 165,200 165,199 165,198 165,198 165,197 165,197 165,196 165,195 166,194 166,193 166,193 166,192 166,191 166,190 166,189 166,189 166,188 166,187 166,186 166,186 166,185 167,185 167,184 167,183 167,183 167,182 167,182 167,181 167,181 167,181 167,180 167,180 167,179 167,179 168,179 168,178 168,178 168,177 168,177 168,176 168,176 168,176 168,175 168,175 168,175 168,174 168,174 169,174 169,174 169,173 169,173 169,173 169,173 169,173 169,173 169,173 169,173 169,172 169,172 169,172 170,173 170,173 170,173 170,173 170,174 170,174 170,174 170,175 170,175 170,175 170,176 170,176 170,177 171,177 171,178 171,178 171,178 171,178 171,179 171,179 171,179 171,180 171,180 171,180 171,180 171,180 172,180 172,180 172,180 172,180 172,179 172,179 172,179 172,179 172,179 172,179 172,179 172,179 172,180 173,180 173,180 173,181 173,181 173,181 173,181 173,181 173,182 173,183 173,183 173,184 173,185 173,186 174,187 174,188 174,188 174,188 174,188 174,187 174,187 174,186 174,186 174,185 174,185 174,184 174,183 175,183 175,183 175,183 175,182 175,182 175,182 175,181 175,181 175,181 175,180 175,180 175,179 175,178 176,178 176,177 176,177 176,176 176,176 176,176 176,176 176,175 176,175 176,175 176,175 176,174 176,174 177,174 177,174 177,174 177,173 177,173 177,173 177,173 177,172 177,172 177,172 177,172 177,172 177,172 178,172 178,172 178,172 178,172 178,172 178,172 178,172 178,172 178,172 178,172 178,173 178,173 178,174 179,174 179,174 179,174 179,174 179,174 179,174 179,174 179,174 179,173 179,173 179,173 179,173 180,174 180,174 180,174 180,174 180,174 180,174 180,174 180,174 180,175 180,175 180,175 180,175 180,175 181,175 181,175 181,175 181,175 181,175 181,176 181,176 181,176 181,176 181,176 181,177 181,177 181,177 182,177 182,177 182,177 182,177 182,178 182,178 182,178 182,179 182,179 182,179 182,179 182,179 182,180 183,180 183,180 183,180 183,180 183,181 183,181 183,181 183,182 183,182 183,183 183,184 183,184 183,184 184,185 184,185 184,186 184,186 184,187 184,187 184,187 184,188 184,188 184,189 184,189 184,189 184,190 185,190 185,190 185,191 185,191 185,191 185,192 185,192 185,193 185,193 185,194 185,195 185,196 185,196 186,197 186,197 186,197 186,197 186,197 186,196 186,196 186,195 186,194 186,193 186,192 186,191 186,191 187,190 187,190 187,190 187,189 187,189 187,189 187,189 187,188 187,188 187,188 187,187 187,186 187,185 188,185 188,184 188,183 188,182 188,181 188,181 188,181 188,181 188,181 188,181 188,181 188,181 188,181 189,181 189,180 189,180 189,180 189,180 189,180 189,180 189,180 189,180 189,180 189,180 189,180 189,180 190,180 190,180 190,180 190,180 190,180 190,180 190,180 190,181 190,181 190,181 190,181 190,181 190,181 191,181 191,182 191,182 191,183 191,183 191,184 191,184 191,185 191,185 191,186 191,186 191,186 191,186 192,187 192,187 192,188 192,188 192,189 192,189 192,190 192,190 192,190 192,191 192,192 192,192 192,192 193,192 193,193 193,193 193,194 193,195 193,195 193,195 193,196 193,196 193,196 193,196 193,196 193,197 194,197 194,198 194,198 194,199 194,199 194,200 194,200 194,201 194,201 194,202 194,202 194,203 194,203 195,203 195,204 195,204 195,204 195,204 195,204 195,204 195,204 195,204 195,203 195,203 195,203 195,203 196,202 196,201 196,200 196,200 196,199 196,199 196,198 196,198 196,197 196,197 196,196 196,195 196,194 197,194 197,194 197,193 197,193 197,193 197,193 197,193 197,193 197,193 197,193 197,193 197,193 197,193 198,193 198,193 198,193 198,192 198,192 198,191 198,190 198,189 198,189 198,188 198,188 198,188 198,188 199,188 199,188 199,188 199,188 199,188 199,188 199,188 199,188 199,188 199,188 199,188 199,188 199,188 200,188 200,188 200,188 200,188 200,188 200,188 200,188 200,189 200,189 200,189 200,189 200,189 200,189 201,189 201,190 201,190 201,190 201,190 201,191 201,192 201,192 201,193 201,193 201,194 201,194 201,195 202,195 202,196 202,196 202,197 202,198 202,198 202,199 202,199 202,200 202,200 202,200 202,201 203,202 203,202 203,203 203,203 203,203 203,203 203,203 203,203 203,203 203,203 203,203 203,203 203,203 204,202 204,202 204,201 204,201 204,200 204,200 204,199 204,199 204,199 204,198 204,198 204,197 204,197 205,197 205,196 205,196 205,195 205,195 205,194 205,194 205,194 205,193 205,193 205,192 205,192 205,192 206,191 206,191 206,191 206,190 206,190 206,190 206,189 206,189 206,188 206,188 206,188 206,187 206,187 207,187 207,187 207,187 207,187 207,187 207,186 207,186 207,186 207,186 207,186 207,186 207,185 207,185 208,185 208,185 208,185 208,185 208,184 208,184 208,184 208,184 208,184 208,184 208,185 208,184 208,185 209,185 209,185 209,185 209,185 209,185 209,185 209,185 209,185 209,185 209,185 209,185 209,185 209,185 210,185 210,185 210,185 210,185 210,185 210,185 210,185 210,185 210,185 210,185 210,185 210,185 210,185 211,185 211,185 211,184 211,184 211,185 211,185 211,185 211,185 211,185 211,185 211,185 211,185 211,186 212,186 212,186 212,186 212,186 212,186 212,186 212,186 212,186 212,186 212,186 212,186 212,186 212,186 213,186 213,186 213,186 213,186 213,186 213,186 213,186 213,186 213,186 213,186 213,186 213,186 213,186 214,186 214,186 214,186 214,186 214,186 214,186 214,186 214,186 214,186 214,186 214,186 214,185 214,185 215,185 215,185 215,185 215,186 215,186 215,186 215,186 215,185 215,185 215,185 215,185 215,185 215,185 216,185 216,185 216,185 216,186 216,186 216,186 216,186 216,186 216,187 216,187 216,187 216,188 216,188 217,188 217,189 217,189 217,189 217,189 217,189 217,189 217,189 217,189 217,189 217,189 217,190 217,190 218,191 218,191 218,191 218,192 218,192 218,192 218,193 218,193 218,194 218,194 218,194 218,195 218,195 219,195 219,196 219,196 219,196 219,197 219,197 219,198 219,198 219,198 219,199 219,199 219,199 219,199 220,200 220,200 220,200 220,200 220,200 220,200 220,201 220,202 220,203 220,203 220,204 220,205 220,205 221,206 221,206 221,206 221,206 221,207 221,207 221,207 221,207 221,207 221,206 221,206 221,205 221,205 222,204 222,204 222,204 222,204 222,203 222,203 222,202 222,202 222,202 222,202 222,201 222,201 222,200 223,200 223,199 223,199 223,199 223,198 223,198 223,198 223,197 223,197 223,197 223,196 223,196 223,196 224,196 224,196 224,197 224,197 224,198 224,199 224,199 224,200 224,200 224,200 224,201 224,201 224,201 225,202 225,202 225,201 225,201 225,201 225,201 225,201 225,201 225,201 225,202 225,202 225,202 226,202 226,203 226,204 226,205 226,205 226,206 226,206 226,207 226,207 226,207 226,207 226,206 226,206 227,205 227,204 227,203 227,202 227,202 227,202 227,201 227,201 227,201 227,200 227,200 227,200 227,199 228,199 228,199 228,199 228,199 228,198 228,198 228,198 228,198 228,197 228,197 228,197 228,197 228,196 229,196 229,196 229,195 229,195 229,194 229,193 229,194 229,194 229,195 229,195 229,196 229,196 229,196 230,197 230,197 230,197 230,197 230,198 230,198 230,198 230,199 230,199 230,199 230,200 230,200 230,200 231,200 231,200 231,200 231,201 231,200 231,199 231,199 231,198 231,198 231,197 231,196 231,196 231,195 232,195 232,194 232,193 232,193 232,193 232,192 232,192 232,192 232,192 232,191 232,191 232,191 232,191 233,191 233,191 233,190 233,190 233,190 233,190 233,190 233,190 233,190 233,190 233,191 233,191 233,191 234,191 234,192 234,192 234,192 234,192 234,192 234,192 234,193 234,193 234,193 234,193 234,193 234,193 235,194 235,194 235,194 235,194 235,194 235,194 235,194 235,194 235,193 235,193 235,193 235,192 235,192 236,192 236,192 236,192 236,192 236,192 236,192 236,192 236,192 236,192 236,192 236,192 236,192 236,192 237,192 237,192 237,192 237,192 237,192 237,192 237,192 237,192 237,192 237,191 237,191 237,191 237,190 238,189 238,189 238,189 238,189 238,188 238,188 238,188 238,187 238,187 238,187 238,187 238,187 238,187 239,186 239,186 239,186 239,185 239,185 239,185 239,185 239,185 239,185 239,185 239,185 239,185 239,185 240,185 240,185 240,185 240,185 240,185 240,185 240,184 240,184 240,184 240,184 240,184 240,184 240,185 241,185 241,185 241,185 241,184 241,184 241,184 241,184 241,184 241,184 241,184 241,184 241,184 241,184 242,184 242,184 242,184 242,184 242,184 242,184 242,184 242,184 242,184 242,185 242,185 242,185 242,185 243,185 243,185 243,185 243,185 243,185 243,185 243,185 243,185 243,185 243,185 243,185 243,185 243,185 244,185 244,185 244,185 244,185 244,185 244,184 244,184 244,185 244,185 244,185 244,185 244,185 244,185 245,185 245,185 245,186 245,186 245,186 245,186 245,186 245,187 245,187 245,187 245,188 245,188 245,188 246,189 246,190 246,191 246,192 246,193 246,194 246,194 246,195 246,196 246,195 246,195 246,195 246,195 247,195 247,195 247,194 247,194 247,194 247,194 247,193 247,193 247,193 247,193 247,193 247,193 247,193 248,193 248,193 248,193 248,192 248,192 248,192 248,192 248,193 248,193 248,193 248,193 248,193 248,193 249,193 249,194 249,194 249,194 249,194 249,194 249,194 249,194 249,194 249,194 249,195 249,195 250,195 250,195 250,195 250,195 250,195 250,195 250,196 250,196 250,196 250,196 250,197 250,197 250,198 251,198 251,199 251,199 251,200 251,201 251,201 251,201 251,201 251,202 251,201 251,202 251,202 251,201 252,201 252,201 252,201 252,201 252,200 252,200 252,200 252,199 252,199 252,199 252,199 252,198 252,198 253,198 253,198 253,198 253,198 253,198 253,198 253,198 253,198 253,198 253,198 253,198 253,198 253,198 254,198 254,198 254,198 254,198 254,199 254,199 254,199 254,198 254,198 254,198 254,200 254,201 254,202 255,203 255,203 255,203 255,204 255,204 255,205 255,206 255,207 255,207 255,206 255,205 255,205 255,204 256,204 256,203 256,202 256,202 256,201 256,201 256,201 256,200 256,200 256,200 256,200 256,199 256,199 257,199 257,199 257,199 257,200 257,200 257,200 257,200 257,199 257,199 257,199 257,199 257,199 257,199 258,198 258,198 258,198 258,198 258,199 258,198 258,198 258,198 258,198 258,198 258,198 258,198 258,198 259,198 259,198 259,197 259,197 259,197 259,197 259,197 259,196 259,196 259,196 259,195 259,195 259,195 260,195 260,195 260,196 260,196 260,196 260,196 260,196 260,196 260,196 260,196 260,196 260,196 260,197 261,197 261,197 261,197 261,197 261,197 261,197 261,197 261,197 261,197 261,197 261,197 261,197 261,197 262,197 262,196 262,196 262,195 262,195 262,195 262,195 262,195 262,195 262,194 262,194 262,194 262,194 263,194 263,194 263,193 263,192 263,192 263,192 263,191 263,191 263,191 263,191 263,191 263,191 263,191 264,191 264,191 264,191 264,191 264,191 264,191 264,191 264,191 264,191 264,191 264,191 264,191 264,191 265,191 265,191 265,191 265,192 265,192 265,192 265,192 265,192 265,192 265,192 265,193 265,193 265,193 266,193 266,193 266,194 266,195 266,196 266,197 266,197 266,198 266,198 266,198 266,199 266,199 266,200 267,200 267,200 267,200 267,200 267,200 267,199 267,199 267,199 267,198 267,198 267,198 267,197 267,197 268,197 268,196 268,196 268,196 268,195 268,195 268,195 268,195 268,195 268,194 268,194 268,194 268,194 269,194 269,194 269,194 269,194 269,194 269,194 269,194 269,194 269,195 269,195 269,195 269,195 269,195 270,195 270,195 270,195 270,195 270,195 270,195 270,195 270,196 270,196 270,196 270,196 270,196 270,197 271,197 271,197 271,197 271,197 271,198 271,198 271,198 271,198 271,199 271,199 271,199 271,200 271,200 272,200 272,201 272,201 272,201 272,201 272,201 272,202 272,202 272,202 272,202 272,202 272,202 273,202 273,202 273,201 273,201 273,201 273,201 273,201 273,201 273,201 273,201 273,201 273,201 273,201 274,201 274,200 274,200 274,200 274,200 274,200 274,200 274,200 274,200 274,200 274,200 274,200 274,200 275,199 275,199 275,198 275,198 275,198 275,198 275,198 275,198 275,198 275,198 275,197 275,197 275,197 276,197 276,197 276,197 276,197 276,197 276,196 276,196 276,196 276,196 276,196 276,196 276,196 276,196 277,195 277,195 277,195 277,195 277,195 277,194 277,194 277,194 277,194 277,193 277,193 277,193 277,192 278,192 278,192 278,191 278,191 278,190 278,190 278,190 278,189 278,189 278,189 278,188 278,188 278,188 279,187 279,187 279,187 279,187 279,186 279,186 279,186 279,186 279,186 279,185 279,185 279,185 279,185 280,185 280,184 280,184 280,184 280,184 280,184 280,184 280,184 280,183 280,183 280,183 280,183 280,183 281,183 281,183 281,183 281,183 281,183 281,183 281,182 281,182 281,182 281,183 281,183 281,183 281,183 282,183 282,183 282,183 282,183 282,183 282,183 282,183 282,183 282,183 282,183 282,183 282,183 282,183 283,183 283,183 283,183 283,183 283,184 283,184 283,184 283,184 283,184 283,184 283,185 283,185 283,185 284,185 284,185 284,185 284,185 284,185 284,185 284,185 284,185 284,185 284,185 284,185 284,185 284,185 285,185 285,185 285,185 285,185 285,185 285,185 285,186 285,186 285,186 285,186 285,187 285,187 285,187 286,187 286,187 286,187 286,187 286,187 286,187 286,187 286,187 286,187 286,187 286,187 286,187 286,187 287,187 287,187 287,187 287,187 287,187 287,187 287,187 287,187 287,187 287,187 287,187 287,187 287,187 288,187 288,187 288,187 288,187 288,187 288,187 288,187 288,187 288,187 288,188 288,188 288,188 288,188 289,188 289,189 289,189 289,189 289,189 289,190 289,190 289,190 289,190 289,190 289,190 289,190 289,190 290,190 290,189 290,189 290,189 290,189 290,189 290,189 290,189 290,189 290,189 290,189 290,189 290,189 291,189 291,189 291,189 291,189 291,189 291,189 291,189 291,189 291,189 291,189 291,189 291,189 291,189 292,188 292,188 292,188 292,188 292,188 292,188 292,188 292,187 292,187 292,187 292,187 292,187 292,187 293,187 293,187 293,187 293,187 293,187 293,187 293,187 293,186 293,186 293,186 293,186 293,186 293,186 294,186 294,186 294,186 294,186 294,186 294,186 294,186 294,186 294,186 294,186 294,186 294,186 294,186 295,186 295,185 295,185 295,185 295,185 295,185 295,185 295,185 295,184 295,184 295,185 295,185 296,185 296,185 296,185 296,185 296,185 296,185 296,185 296,185 296,185 296,185 296,185 296,185 296,185 297,185 297,185 297,185 297,184 297,184 297,184 297,184 297,184 297,184 297,184 297,184 297,184 297,184 298,184 298,184 298,184 298,184 298,184 298,184 298,184 298,184 298,184 298,184 298,184 298,184 298,184 299,184 299,183 299,183 299,183 299,183 299,183 299,183 299,183 299,183 299,183 299,183 299,183 299,183 300,182 300,182 300,182 300,182 300,182 300,182 300,182 300,182 300,182 300,182 300,182 300,182 300,182 301,181 301,181 301,181 301,181 301,181 301,181 301,181 301,181 301,181 301,181 301,181 301,181 301,181 302,181 302,181 302,180 302,180 302,180 302,180 302,180 302,180 302,180 302,180 302,180 302,180 302,180 303,180 303,180 303,180 303,180 303,180 303,180 303,180 303,180 303,180 303,180 303,180 303,180 303,180 304,179 304,179 304,179 304,179 304,179 304,179 304,179 304,179 304,179 304,179 304,179 304,179 304,179 305,179 305,179 305,178 305,178 305,178 305,178 305,178 305,178 305,178 305,178 305,178 305,178 305,177 306,177 306,177 306,176 306,176 306,176 306,176 306,176 306,176 306,176 306,176 306,176 306,176 306,175 307,175 307,175 307,175 307,175 307,175 307,175 307,175 307,175 307,175 307,175 307,174 307,174 307,174 308,174 308,174 308,173 308,173 308,173 308,173 308,173 308,173 308,172 308,172 308,172 308,172 308,172 309,171 309,171 309,170 309,170 309,169 309,169 309,169 309,169 309,169 309,169 309,169 309,169 309,169 310,169 310,169 310,169 310,169 310,168 310,168 310,168 310,168 310,168 310,167 310,167 310,167 310,167 311,167 311,166 311,166 311,166 311,166 311,166 311,166 311,165 311,165 311,165 311,165 311,165 311,164 312,164 312,164 312,164 312,164 312,164 312,164 312,164 312,164 312,164 312,163 312,164 312,163 312,163 313,163 313,163 313,163 313,162 313,162 313,162 313,161 313,161 313,161 313,160 313,160 313,160 313,159 314,159 314,159 314,158 314,158 314,158 314,157 314,157 314,157 314,156 314,156 314,156 314,156 314,156 315,156 315,156 315,156 315,155 315,155 315,154 315,154 315,153 315,152 315,151 315,151 315,151 315,150 316,150 316,150 316,149 316,149 316,148 316,147 316,147 316,146 316,145 316,145 316,144 316,144 316,143 317,143 317,142 317,142 317,142 317,142 317,142 317,143 317,143 317,143 317,143 317,143 317,143 317,143 318,143 318,144 318,144 318,144 318,144 318,144 318,144 318,144 318,144 318,144 318,145 318,145 318,145 319,145 319,145 319,145 319,145 319,145 319,146 319,146 319,146 319,146 319,145 319,145 319,145 320,144 320,144 320,143 320,143 320,142 320,142 320,142 320,141 320,141 320,141 320,141 320,140 320,140 321,140 321,140 321,139 321,139 321,139 321,139 321,138 321,138 321,138 321,138 321,138 321,137 321,137 322,137 322,137 322,137 322,137 322,136 322,136 322,136 322,135 322,135 322,135 322,134 322,134 322,134 323,133 323,133 323,133 323,132 323,132 323,132 323,131 323,131 323,131 323,131 323,130 323,130 323,130 324,130 324,130 324,130 324,131 324,131 324,131 324,132 324,132 324,132 324,133 324,133 324,133 324,133 325,133 325,132 325,132 325,132 325,131 325,131 325,131 325,130 325,130 325,129 325,129 325,128 325,128 326,127 326,127 326,126 326,126 326,125 326,125 326,125 326,125 326,124 326,124 326,124 326,124 326,124 327,124 327,124 327,124 327,124 327,124 327,124 327,124 327,124 327,124 327,124 327,124 327,124 327,124 328,124 328,124 328,123 328,123 328,123 328,123 328,123 328,123 328,123 328,123 328,123 328,123 328,123 329,123 329,123 329,124 329,124 329,124 329,124 329,125 329,125 329,125 329,126 329,126 329,127 329,127 330,128 330,129 330,129 330,130 330,130 330,131 330,132 330,132 330,132 330,133 330,133 330,134 330,134 331,135 331,135 331,136 331,137 331,137 331,137 331,138 331,138 331,139 331,139 331,139 331,140 331,140 332,141 332,141 332,142 332,142 332,142 332,143 332,143 332,144 332,144 332,144 332,145 332,145 332,145 333,146 333,146 333,146 333,147 333,147 333,147 333,148 333,148 333,148 333,149 333,149 333,149 333,150 334,150 334,150 334,151 334,151 334,151 334,152 334,152 334,152 334,153 334,153 334,153 334,154 334,154 335,154 335,155 335,155 335,155 335,156 335,156 335,156 335,156 335,157 335,157 335,157 335,158 335,158 336,158 336,158 336,158 336,159 336,159 336,159 336,160 336,160 336,160 336,160 336,161 336,161 336,161 337,161 337,162 337,162 337,162 337,162 337,163 337,163 337,163 337,163 337,163 337,163 337,163 337,163 338,164 338,164 338,164 338,164 338,164 338,164 338,164 338,164 338,165 338,165 338,165 338,165 338,165 339,165 339,165 339,165 339,165 339,164 339,164 339,164 339,164 339,163 339,163 339,163 339,163 339,162 340,162 340,162 340,162 340,161 340,161 340,161 340,161 340,161 340,161 340,161 340,160 340,160 340,160 341,160 341,160 341,160 341,160 341,160 341,160 341,161 341,161 341,161 341,161 341,161 341,162 341,162 342,162 342,163 342,163 342,163 342,164 342,164 342,165 342,165 342,166 342,166 342,166 342,167 343,166 343,166 343,166 343,165 343,165 343,165 343,164 343,164 343,164 343,163 343,163 343,163 343,163 344,163 344,163 344,163 344,163 344,163 344,163 344,163 344,163 344,163 344,163 344,163 344,163 344,164 345,164 345,165 345,165 345,165 345,166 345,166 345,166 345,166 345,166 345,167 345,167 345,168 345,169 346,170 346,170 346,170 346,171 346,171 346,171 346,171 346,171 346,171 346,172 346,172 346,172 346,172 347,173 347,173 347,174 347,174 347,174 347,173 347,173 347,173 347,173 347,174 347,174 347,174 347,174 348,174 348,174 348,174 348,174 348,174 348,174 348,175 348,175 348,175 348,175 348,175 348,175 348,175 349,175 349,175 349,175 349,175 349,175 349,175 349,175 349,175 349,175 349,175 349,175 349,175 349,175 350,175 350,175 350,175 350,175 350,176 350,176 350,176 350,176 350,176 350,176 350,176 350,176 350,176 351,176 351,175 351,175 351,175 351,175 351,175 351,175 351,174 351,174 351,175 351,175 351,175 351,175 352,175 352,175 352,175 352,175 352,176 352,176 352,176 352,176 352,176 352,176 352,176 352,176 352,176 353,176 353,176 353,176 353,176 353,176 353,176 353,176 353,177 353,177 353,177 353,177 353,177 353,177 354,177 354,177 354,177 354,177 354,178 354,178 354,178 354,178 354,178 354,179 354,179 354,179 354,179 355,179 355,179 355,179 355,179 355,179 355,180 355,180 355,180 355,180 355,180 355,180 355,180 355,180 356,180 356,180 356,180 356,180 356,180 356,180 356,180 356,180 356,180 356,180 356,180 356,180 356,180 357,180 357,179 357,179 357,179 357,179 357,178 357,178 357,177 357,177 357,177 357,176 357,176 357,175 358,175 358,175 358,175 358,174 358,174 358,174 358,173 358,173 358,173 358,173 358,172 358,172 358,172 359,172 359,172 359,172 359,172 359,172 359,172 359,171 359,171 359,171 359,171 359,171 359,171 359,171 360,171 360,171 360,171 360,171 360,171 360,172 360,172 360,172 360,172 360,172 360,172 360,172 360,172 361,172 361,172 361,172 361,172 361,172 361,172 361,172 361,172 361,172 361,172 361,171 361,171 361,171 362,171 362,171 362,171 362,171 362,170 362,170 362,170 362,170 362,170 362,170 362,170 362,170 362,170 363,170 363,170 363,169 363,169 363,169 363,169 363,169 363,169 363,168 363,168 363,168 363,168 363,168 364,167 364,167 364,167 364,167 364,167 364,166 364,166 364,166 364,166 364,166 364,166 364,166 364,166 365,166 365,166 365,166 365,165 365,165 365,165 365,165 365,166 365,166 365,166 365,166 365,165 366,165 366,165 366,166 366,166 366,167 366,168 366,168 366,169 366,170 366,170 366,170 366,170 366,170 367,170 367,170 367,170 367,170 367,170 367,170 367,171 367,171 367,171 367,171 367,171 367,171 367,171 368,171 368,172 368,172 368,172 368,172 368,172 368,172 368,172 368,172 368,171 368,171 368,171 368,171 369,171 369,171 369,170 369,170 369,170 369,170 369,169 369,169 369,169 369,169 369,169 369,169 369,169 370,169 370,169 370,169 370,170 370,170 370,170 370,170 370,170 370,171 370,171 370,171 370,171 370,172 371,172 371,172 371,172 371,172 371,172 371,173 371,173 371,173 371,173 371,173 371,173 371,172 371,172 372,172 372,172 372,172 372,171 372,171 372,171 372,171 372,170 372,170 372,170 372,170 372,169 372,169 373,169 373,168 373,168 373,168 373,167 373,167 373,167 373,167 373,167 373,167 373,167 373,167 373,166 374,166 374,166 374,166 374,166 374,166 374,167 374,167 374,167 374,167 374,167 374,167 374,168 374,168 375,168 375,168 375,168 375,168 375,168 375,168 375,168 375,169 375,169 375,169 375,169 375,169 375,169 376,169 376,169 376,169 376,169 376,169 376,169 376,170 376,170 376,170 376,170 376,170 376,170 376,170 377,170 377,170 377,170 377,170 377,170 377,170 377,170 377,170 377,170 377,170 377,170 377,170 377,170 378,170 378,170 378,171 378,173 378,173 378,173 378,172 378,171 378,171 378,171 378,171 378,170 378,170 379,170 379,170 379,169 379,169 379,169 379,169 379,169 379,169 379,169 379,169 379,169 379,169 379,169 380,169 380,170 380,170 380,171 380,171 380,170 380,169 380,169 380,168 380,168 380,168 380,167 380,167 381,167 381,167 381,167 381,166 381,166 381,166 381,166 381,166 381,166 381,166 381,167 381,167 381,166 382,166 382,165 382,165 382,165 382,165 382,165 382,165 382,165 382,164 382,164 382,164 382,164 382,165 383,165 383,165 383,165 383,164 383,164 383,164 383,164 383,164 383,164 383,164 383,164 383,164 383,164 384,164 384,164 384,164 384,164 384,165 384,165 384,165 384,165 384,165 384,165 384,165 384,165 384,165 385,165 385,165 385,166 385,166 385,166 385,166 385,166 385,166 385,166 385,166 385,166 385,166 385,167 386,167 386,167 386,167 386,167 386,167 386,167 386,167 386,167 386,167 386,167 386,166 386,166 386,166 387,166 387,166 387,166 387,166 387,166 387,166 387,166 387,166 387,165 387,165 387,165 387,165 387,165 388,165 388,165 388,165 388,165 388,164 388,164 388,164 388,164 388,164 388,164 388,164 388,164 388,165 389,165 389,165 389,165 389,165 389,164 389,164 389,164 389,164 389,163 389,163 389,163 389,162 390,162 390,162 390,161 390,161 390,161 390,160 390,160 390,159 390,159 390,158 390,158 390,158 390,157 391,157 391,157 391,156 391,156 391,155 391,155 391,154 391,154 391,153 391,153 391,152 391,152 391,151 392,150 392,150 392,149 392,149 392,149 392,149 392,148 392,148 392,148 392,148 392,148 392,148 392,147 393,147 393,147 393,147 393,147 393,147 393,147 393,146 393,146 393,146 393,146 393,146 393,146 393,146 394,146 394,146 394,146 394,146 394,146 394,146 394,146 394,146 394,146 394,146 394,146 394,146 394,147 395,147 395,147 395,147 395,147 395,147 395,147 395,147 395,147 395,147 395,147 395,148 395,148 395,148 396,148 396,148 396,148 396,147 396,147 396,147 396,148 396,148 396,148 396,148 396,148 396,149 396,149 397,149 397,149 397,149 397,149 397,149 397,149 397,149 397,149 397,149 397,149 397,150 397,150 397,150 398,150 398,151 398,151 398,151 398,151 398,151 398,151 398,151 398,151 398,151 398,151 398,151 398,151 399,152 399,152 399,152 399,152 399,152 399,152 399,153 399,153 399,153 399,153 399,154 399,154 399,154 400,155 400,155 400,155 400,156 400,156 400,156 400,156 400,156 400,156 400,156 400,157 400,157 400,157 401,158 401,158 401,158 401,158 401,158 401,158 401,158 401,158 401,158 401,158 401,159 401,159 401,159 402,159 402,159 402,159 402,159 402,159 402,159 402,159 402,159 402,159 402,159 402,158 402,158 402,158 403,158 403,158 403,157 403,157 403,157 403,157 403,156 403,156 403,156 403,156 403,155 403,155 403,155 404,154 404,154 404,154 404,154 404,154 404,154 404,154 404,154 404,154 404,154 404,155 404,155 404,155 405,155 405,156 405,156 405,156 405,157 405,157 405,157 405,157 405,157 405,157 405,157 405,157 405,158 406,158 406,158 406,158 406,158 406,158 406,158 406,158 406,158 406,158 406,158 406,158 406,158 406,158 407,158 407,159 407,159 407,159 407,159 407,159 407,159 407,159 407,159 407,159 407,159 407,159 407,159 408,159 408,159 408,159 408,159 408,159 408,159 408,159 408,159 408,159 408,159 408,159 408,159 408,159 409,159 409,159 409,159 409,159 409,159 409,159 409,158 409,158 409,158 409,158 409,158 409,158 409,158 410,158 410,158 410,158 410,158 410,158 410,158 410,158 410,158 410,158 410,158 410,158 410,158 410,158 411,158 411,158 411,158 411,158 411,158 411,158 411,159 411,159 411,159 411,160 411,160 411,160 411,161 412,161 412,161 412,161 412,162 412,162 412,162 412,162 412,162 412,161 412,161 412,161 412,161 413,161 413,161 413,161 413,161 413,161 413,161 413,161 413,161 413,160 413,160 413,160 413,160 413,160 414,160 414,160 414,160 414,160 414,160 414,160 414,160 414,160 414,160 414,160 414,160 414,159 414,160 415,160 415,160 415,161 415,161 415,162 415,162 415,162 415,163 415,163 415,163 415,164 415,164 415,165 416,165 416,165 416,165 416,166 416,166 416,166 416,167 416,167 416,167 416,168 416,168 416,168 416,168 417,169 417,169 417,169 417,170 417,170 417,170 417,170 417,171 417,171 417,171 417,171 417,171 417,172 418,172 418,172 418,172 418,172 418,172 418,172 418,172 418,172 418,172 418,172 418,171 418,171 418,171 419,170 419,170 419,169 419,169 419,168 419,168 419,167 419,167 419,167 419,167 419,166 419,166 419,166 420,166 420,166 420,166 420,166 420,167 420,167 420,167 420,167 420,168 420,168 420,168 420,168 420,168 421,168 421,167 421,167 421,167 421,166 421,166 421,165 421,165 421,165 421,164 421,164 421,163 421,163 422,163 422,162 422,162 422,161 422,161 422,161 422,160 422,160 422,160 422,160 422,160 422,160 422,160 423,160 423,160 423,160 423,160 423,161 423,161 423,162 423,162 423,163 423,163 423,164 423,164 423,165 424,165 424,165 424,165 424,166 424,166 424,166 424,167 424,167 424,167 424,167 424,167 424,168 424,168 425,168 425,168 425,168 425,168 425,168 425,168 425,169 425,169 425,169 425,169 425,170 425,170 425,170 426,170 426,170 426,171 426,171 426,171 426,171 426,171 426,172 426,172 426,172 426,173 426,173 426,173 427,174 427,174 427,174 427,175 427,175 427,176 427,176 427,177 427,177 427,178 427,178 427,179 427,179 428,180 428,180 428,180 428,181 428,181 428,182 428,182 428,182 428,183 428,183 428,184 428,184 428,184 429,185 429,185 429,186 429,186 429,186 429,187 429,187 429,188 429,188 429,189 429,189 429,189 429,190 430,190 430,191 430,191 430,191 430,191 430,191 430,191 430,192 430,192 430,192 430,192 430,192 430,191 431,191 431,191 431,191 431,191 431,191 431,192 431,192 431,193 431,193 431,193 431,193 431,194 431,194 432,194 432,194 432,195 432,195 432,195 432,196 432,196 432,197 432,197 432,198 432,199 432,199 432,199 433,199 433,199 433,199 433,199 433,199 433,199 433,199 433,199 433,199 433,199 433,199 433,199 433,199 434,199 434,199 434,199 434,198 434,198 434,198 434,198 434,198 434,198 434,198 434,198 434,197 434,197 435,197 435,196 435,196 435,195 435,195 435,196 435,196 435,196 435,196 435,196 435,196 435,195 436,195 436,195 436,195 436,195 436,195 436,195 436,195 436,195 436,195 436,195 436,195 436,195 436,195 437,195 437,195 437,195 437,195 437,195 437,196 437,196 437,196 437,197 437,197 437,197 437,198 437,198 438,198 438,199 438,199 438,200 438,200 438,200 438,201 438,201 438,202 438,202 438,202 438,202 438,201 439,201 439,201 439,201 439,201 439,201 439,200 439,200 439,200 439,199 439,199 439,199 439,199 439,198 440,198 440,198 440,198 440,197 440,197 440,197 440,196 440,196 440,196 440,196 440,196 440,196 440,196 441,195 441,195 441,195 441,195 441,195 441,195 441,195 441,195 441,194 441,194 441,194 441,194 441,194 442,194 442,194 442,194 442,194 442,193 442,193 442,193 442,193 442,193 442,193 442,193 442,193 442,193 443,192 443,192 443,192 443,192 443,191 443,191 443,191 443,191 443,191 443,190 443,190 443,190 443,189 444,189 444,188 444,188 444,188 444,187 444,187 444,187 444,187 444,186 444,186 444,186 444,185 444,185 445,185 445,185 445,185 445,185 445,184 445,184 445,184 445,184 445,184 445,184 445,184 445,184 445,184 446,184 446,184 446,185 446,185 446,185 446,185 446,185 446,185 446,185 446,186 446,186 446,186 446,186 447,186 447,186 447,187 447,187 447,187 447,187 447,188 447,188 447,188 447,188 447,188 447,188 447,188 448,188 448,189 448,189 448,189 448,189 448,190 448,190 448,190 448,190 448,191 448,191 448,191 448,191 449,191 449,191 449,191 449,191 449,191 449,191 449,191 449,191 449,192 449,192 449,192 449,193 449,193 450,193 450,193 450,193 450,194 450,194 450,194 450,194 450,194 450,194 450,194 450,194 450,195 450,195 451,195 451,195 451,195 451,195 451,195 451,195 451,195 451,195 451,195 451,195 451,195 451,196 451,196 452,196 452,196 452,196 452,196 452,196 452,195 452,195 452,195 452,196 452,196 452,197 452,197 452,197 453,197 453,197 453,197 453,198 453,198 453,198 453,199 453,199 453,199 453,200 453,200 453,200 453,200 454,200 454,200 454,201 454,201 454,201 454,201 454,201 454,201 454,201 454,202 454,202 454,202 454,202 455,202 455,202 455,203 455,203 455,203 455,203 455,203 455,203 455,203 455,203 455,203 455,203 455,203 456,203 456,204 456,204 456,204 456,204 456,204 456,205 456,205 456,205 456,205 456,205 456,205 456,205 457,205 457,205 457,205 457,205 457,205 457,205 457,206 457,206 457,206 457,206 457,206 457,206 457,206 458,207 458,207 458,207 458,207 458,207 458,207 458,207 458,207 458,207 458,207 458,207 458,207 458,207 459,207 459,207 459,207 459,207 459,207 459,207 459,208 459,208 459,207 459,207 459,207 459,207 460,207 460,207 460,207 460,207 460,207 460,208 460,208 460,208 460,208 460,208 460,208 460,208 460,208 461,208 461,208 461,208 461,208 461,208 461,208 461,208 461,208 461,208 461,208 461,208 461,208 461,208 462,208 462,207 462,207 462,207 462,207 462,207 462,207 462,207 462,207 462,207 462,207 462,207 462,206 463,206 463,206 463,206 463,206 463,206 463,206 463,206 463,206 463,206 463,206 463,206 463,206 463,206 464,206 464,205 464,205 464,205 464,205 464,205 464,205 464,205 464,205 464,205 464,205 464,205 464,205 465,205 465,205 465,205 465,205 465,205 465,206 465,206 465,206 465,206 465,205 465,205 465,206 465,206 466,206 466,206 466,206 466,206 466,206 466,206 466,207 466,207 466,207 466,207 466,207 466,207 466,208 467,208 467,208 467,208 467,208 467,208 467,208 467,208 467,208 467,208 467,208 467,208 467,208 467,208 468,209 468,209 468,209 468,209 468,209 468,209 468,209 468,209 468,209 468,209 468,209 468,209 468,210 469,210 469,210 469,210 469,210 469,210 469,210 469,210 469,210 469,210 469,210 469,210 469,210 469,210 470,210 470,210 470,211 470,211 470,211 470,211 470,211 470,211 470,211 470,211 470,211 470,212 470,212 471,212 471,212 471,212 471,212 471,212 471,212 471,212 471,212 471,212 471,213 471,213 471,213 471,213 472,213 472,213 472,213 472,213 472,213 472,213 472,214 472,214 472,214 472,214 472,214 472,214 472,215 473,215 473,215 473,215 473,215 473,215 473,215 473,215 473,215 473,214 473,214 473,214 473,214 473,214 474,214 474,214 474,214 474,214 474,214 474,214 474,214 474,213 474,213 474,213 474,213 474,213 474,213 475,213 475,213 475,213 475,213 475,213 475,213 475,214 475,214 475,214 475,214 475,214 475,214 475,214 476,214 476,214 476,215 476,215 476,215 476,215 476,215 476,215 476,215 476,216 476,216 476,216 476,216 477,216 477,217 477,217 477,217 477,217 477,217 477,218 477,218 477,218 477,218 477,218 477,218 477,219 478,219 478,219 478,219 478,219 478,219 478,219 478,219 478,219 478,219 478,219 478,219 478,218 478,218 479,217 479,217 479,217 479,217 479,216 479,216 479,216 479,215 479,215 479,214 479,214 479,213 479,213 480,213 480,212 480,212 480,212 480,212 480,211 480,210 480,210 480,209 480,209 480,209 480,208 480,208 481,208 481,208 481,208 481,207 481,207 481,207 481,207 481,207 481,207 481,207 481,207 481,207 481,207 482,207 482,207 482,207 482,207 482,207 482,207 482,207 482,207 482,207 482,207 482,207 482,207 483,207 483,207 483,207 483,207 483,207 483,207 483,207 483,207 483,207 483,207 483,207 483,206 483,206 484,206 484,206 484,206 484,206 484,206 484,206 484,206 484,206 484,206 484,207 484,207 484,207 484,207 485,207 485,208 485,208 485,208 485,208 485,209 485,209 485,210 485,210 485,210 485,210 485,210 485,210 486,210 486,210 486,210 486,210 486,210 486,210 486,210 486,210 486,210 486,210 486,210 486,211 486,211 487,211 487,211 487,211 487,211 487,211 487,212 487,212 487,212 487,212 487,212 487,212 487,213 487,213 488,213 488,213 488,213 488,214 488,214 488,214 488,214 488,214 488,214 488,214 488,213 488,213 488,213 489,213 489,213 489,213 489,213 489,213 489,213 489,213 489,213 489,213 489,213 489,213 489,213 489,214 490,214 490,214 490,215 490,215 490,215 490,216 490,216 490,216 490,217 490,217 490,217 490,217 490,218 491,218 491,218 491,218 491,218 491,218 491,218 491,218 491,218 491,218 491,218 491,218 491,218 491,218 492,218 492,218 492,219 492,219 492,219 492,219 492,219 492,219 492,219 492,219 492,219 492,220 492,220 493,220 493,220 493,220 493,220 493,220 493,220 493,220 493,220 493,221 493,221 493,221 493,222 493,222 494,222 494,223 494,223 494,223 494,224 494,224 494,224 494,225 494,225 494,225 494,226 494,226 494,227 495,227 495,228 495,228 495,228 495,229 495,229 495,230 495,230 495,231 495,232 495,233 495,234 495,235 496,236 496,237 496,237 496,238 496,239 496,239 496,239 496,239 496,239 496,238 496,238 496,238 496,238 497,238 497,238 497,238 497,238 497,238 497,237 497,237 497,237 497,236 497,236 497,236 497,236 497,235 498,235 498,234 498,234 498,234 498,233 498,233 498,232 498,232 498,231 498,231 498,230 498,230 498,230 499,229 499,229 499,228 499,228 499,228 499,227 499,227 499,227 499,226 499,226 499,226 499,226 499,225 500,225 500,225 500,225 500,225 500,224 500,224 500,224 500,224 500,224 500,223 500,223 500,223 500,223 501,223 501,222 501,222 501,222 501,222 501,222 501,222 501,222 501,221 501,221 501,221 501,221 501,221 502,221 502,220 502,220 502,220 502,220 502,220 502,220 502,220 502,220 502,220 502,220 502,219 502,219 503,219 503,219 503,219 503,219 503,218 503,218 503,218 503,218 503,218 503,217 503,217 503,217 503,217 504,217 504,217 504,217 504,217 504,217 504,217 504,217 504,217 504,217 504,216 504,216 504,216 504,216 505,216 505,216 505,216 505,216 505,216 505,216 505,216 505,216 505,216 505,216 505,216 505,216 506,216 506,216 506,216 506,216 506,216 506,216 506,216 506,216 506,216 506,216 506,216 506,216 506,216 507,217 507,217 507,217 507,217 507,217 507,218 507,218 507,219 507,219 507,219 507,219 507,220 507,220 508,220 508,220 508,220 508,220 508,220 508,220 508,220 508,220 508,220 508,220 508,220 508,220 508,221 509,221 509,221 509,221 509,221 509,221 509,222 509,222 509,222 509,222 509,222 509,222 509,222 509,223 510,223 510,223 510,223 510,223 510,223 510,224 510,224 510,224 510,224 510,225 510,225 510,225 510,225 511,226 511,226 511,226 511,226 511,226 511,226 511,227 511,227 511,227 511,227 511,227 511,227 511,228 512,228 512,228 512,228 512,228 512,228 512,228 512,228 512,228 512,229 512,229 512,229 512,229 512,229 513,229 513,229 513,229 513,229 513,229 513,229 513,229 513,228 513,228 513,228 513,228 513,228 513,228 514,228 514,228 514,229 514,229 514,229 514,229 514,229 514,230 514,230 514,230 514,230 514,230 514,230 515,231 515,231 515,231 515,231 515,231 515,231 515,231 515,232 515,232 515,232 515,232 515,232 515,233 516,233 516,233 516,233 516,234 516,234 516,234 516,234 516,234 516,234 516,235 516,235 516,235 516,235 517,235 517,235 517,236 517,236 517,236 517,236 517,236 517,237 517,237 517,237 517,237 517,238 517,238 518,238 518,238 518,239 518,239 518,239 518,239 518,239 518,240 518,240 518,240 518,240 518,240 518,240 519,240 519,241 519,241 519,241 519,241 519,241 519,242 519,242 519,242 519,242 519,242 519,242 519,242 520,242 520,243 520,243 520,243 520,243 520,243 520,244 520,244 520,244 520,244 520,244 520,244 520,245 521,245 521,246 521,246 521,246 521,247 521,247 521,247 521,248 521,248 521,248 521,248 521,248 521,249 522,249 522,249 522,249 522,249 522,250 522,250 522,250 522,250 522,250 522,251 522,251 522,251 522,251 523,252 523,252 523,252 523,252 523,253 523,253 523,253 523,253 523,254 523,254 523,254 523,255 523,255 524,255 524,255 524,256 524,256 524,256 524,256 524,256 524,257 524,257 524,257 524,257 524,258 524,258 525,258 525,258 525,258 525,258 525,258 525,258 525,258 525,258 525,257 525,257 525,257 525,257 525,256 526,256 526,256 526,256 526,255 526,255 526,255 526,255 526,255 526,254 526,254 526,254 526,254 526,254 527,254 527,253 527,253 527,253 527,253 527,253 527,254 527,253 527,253 527,253 527,253 527,253 527,253 528,253 528,253 528,253 528,254 528,254 528,254 528,255 528,255 528,255 528,255 528,255 528,256 528,256 529,256 529,256 529,256 529,257 529,257 529,257 529,258 529,258 529,259 529,260 529,260 529,260 530,260 530,261 530,261 530,261 530,261 530,261 530,261 530,261 530,261 530,262 530,262 530,262 530,262 531,262 531,262 531,262 531,262 531,262 531,262 531,261 531,261 531,261 531,261 531,261 531,261 531,261 532,261 532,261 532,261 532,261 532,260 532,260 532,259 532,259 532,259 532,259 532,259 532,259 532,259 533,259 533,259 533,259 533,259 533,260 533,260 533,260 533,260 533,260 533,260 533,260 533,260 533,261 534,261 534,261 534,261 534,261 534,261 534,261 534,262 534,262 534,262 534,262 534,262 534,262 534,262 535,262 535,262 535,263 535,263 535,263 535,263 535,264 535,264 535,264 535,265 535,265 535,265 535,266 536,266 536,266 536,266 536,267 536,267 536,267 536,267 536,267 536,267 536,267 536,267 536,267 536,267 537,267 537,267 537,267 537,266 537,266 537,266 537,266 537,265 537,265 537,265 537,264 537,264 537,264 538,263 538,263 538,263 538,263 538,262 538,262 538,262 538,261 538,261 538,261 538,261 538,260 538,260 539,260 539,260 539,260 539,260 539,260 539,260 539,260 539,260 539,261 539,261 539,261 539,261 539,261 540,261 540,261 540,261 540,260 540,260 540,260 540,259 540,259 540,258 540,257 540,257 540,256 540,256 541,256 541,256 541,255 541,255 541,254 541,253 541,252 541,251 541,250 541,249 541,248 541,247 541,247 542,246 542,245 542,245 542,244 542,244 542,243 542,243 542,243 542,243 542,242 542,242 542,242 542,242 543,242 543,243 543,243 543,243 543,243 543,243 543,243 543,244 543,244 543,245 543,246 543,246 543,246 544,247 544,248 544,249 544,250 544,250 544,250 544,250 544,250 544,250 544,250 544,250 544,250 544,250 545,250 545,250 545,250 545,250 545,250 545,251 545,251 545,250 545,250 545,250 545,250 545,250 545,249 546,249 546,249 546,249 546,249 546,249 546,249 546,249 546,249 546,249 546,248 546,248 546,248 546,248 547,247 547,247 547,247 547,246 547,246 547,246 547,246 547,245 547,245 547,245 547,245 547,245 547,245 548,245 548,245 548,246 548,246 548,246 548,246 548,246 548,247 548,247 548,247 548,247 548,248 548,248 549,248 549,248 549,248 549,249 549,249 549,249 549,250 549,250 549,250 549,250 549,251 549,251 549,251 550,251 550,252 550,252 550,252 550,253 550,253 550,254 550,254 550,254 550,255 550,255 550,255 550,255 551,255 551,256 551,256 551,256 551,256 551,256 551,256 551,256 551,256 551,257 551,257 551,257 551,257 552,257 552,257 552,257 552,257 552,258 552,258 552,258 552,258 552,258 552,258 552,258 552,258 553,258 553,258 553,258 553,258 553,258 553,257 553,257 553,257 553,257 553,257 553,257 553,257 553,257 554,257 554,257 554,257 554,257 554,257 554,257 554,257 554,257 554,257 554,257 554,257 554,257 554,257 555,257 555,257 555,257 555,257 555,257 555,257 555,257 555,257 555,257 555,257 555,257 555,257 555,257 556,258 556,258 556,258 556,258 556,258 556,258 556,258 556,258 556,258 556,258 556,258 556,258 556,258 557,258 557,259 557,259 557,259 557,260 557,260 557,260 557,260 557,260 557,261 557,261 557,261 557,261 558,261 558,261 558,261 558,261 558,261 558,260 558,260 558,260 558,260 558,260 558,260 558,259 558,259 559,259 559,259 559,259 559,260 559,260 559,260 559,260 559,260 559,261 559,261 559,261 559,262 559,262 560,262 560,262 560,262 560,263 560,263 560,262 560,262 560,262 560,262 560,262 560,261 560,261 560,261 561,260 561,260 561,259 561,259 561,258 561,258 561,258 561,257 561,257 561,257 561,256 561,256 561,256 562,256 562,256 562,256 562,256 562,256 562,256 562,256 562,256 562,256 562,256 562,256 562,256 562,256 563,256 563,256 563,256 563,255 563,255 563,255 563,255 563,254 563,254 563,254 563,254 563,254 563,254 564,253 564,253 564,253 564,253 564,253 564,253 564,253 564,253 564,253 564,253 564,253 564,253 564,253 565,253 565,253 565,253 565,253 565,253 565,253 565,254 565,254 565,254 565,254 565,254 565,254 565,254 566,254 566,254 566,254 566,254 566,254 566,254 566,255 566,255 566,255 566,255 566,255 566,255 566,255 567,255 567,255 567,255 567,255 567,256 567,256 567,256 567,256 567,256 567,256 567,256 567,256 567,257 568,257 568,257 568,257 568,258 568,258 568,258 568,258 568,259 568,259 568,259 568,259 568,259 568,260 569,260 569,260 569,260 569,260 569,260 569,260 569,261 569,261 569,261 569,261 569,261 569,261 569,261 570,261 570,260 570,260 570,260 570,260 570,260 570,260 570,260 570,260 570,259 570,259 570,259 570,259 571,259 571,258 571,258 571,258 571,258 571,258 571,258 571,257 571,257 571,257 571,257 571,257 571,257 572,256 572,256 572,256 572,256 572,256 572,256 572,256 572,256 572,256 572,256 572,256 572,256 572,256 573,256 573,256 573,257 573,257 573,257 573,258 573,258 573,258 573,258 573,259 573,259 573,259 573,260 574,260 574,260 574,260 574,261 574,261 574,261 574,262 574,262 574,262 574,262 574,262 574,262 574,263 575,263 575,263 575,263 575,264 575,264 575,264 575,264 575,264 575,265 575,265 575,265 575,265 576,265 576,265 576,266 576,266 576,266 576,266 576,266 576,266 576,266 576,266 576,267 576,267 576,267 577,267 577,267 577,267 577,268 577,268 577,269 577,269 577,269 577,270 577,270 577,271 577,271 577,271 578,272 578,272 578,272 578,273 578,273 578,273 578,273 578,274 578,274 578,274 578,274 578,274 578,274 579,274 579,274 579,274 579,274 579,274 579,274 579,274 579,274 579,274 579,274 579,274 579,274 579,273 580,273 580,273 580,273 580,272 580,272 580,272 580,272 580,271 580,271 580,271 580,271 580,271 580,271 581,271 581,271 581,271 581,271 581,271 581,271 581,271 581,271 581,271 581,271 581,272 581,272 581,272 582,272 582,272 582,273 582,273 582,273 582,273 582,273 582,273 582,273 582,273 582,273 582,273 582,273 583,273 583,273 583,273 583,273 583,273 583,273 583,273 583,273 583,273 583,273 583,273 583,273 583,273 584,273 584,274 584,274 584,274 584,274 584,274 584,274 584,274 584,274 584,274 584,274 584,274 584,275 585,275 585,275 585,275 585,275 585,275 585,275 585,275 585,276 585,276 585,276 585,276 585,276 585,276 586,276 586,276 586,276 586,277 586,277 586,277 586,277 586,277 586,277 586,277 586,277 586,277 586,277 587,277 587,277 587,277 587,277 587,278 587,278 587,278 587,278 587,278 587,278 587,278 587,278 587,279 588,279 588,279 588,279 588,279 588,279 588,279 588,280 588,280 588,280 588,280 588,280 588,280 588,281 589,281 589,281 589,281 589,281 589,281 589,281 589,281 589,281 589,282 589,282 589,282 589,282 589,282 590,282 590,282 590,282 590,282 590,282 590,282 590,282 590,283 590,283 590,283 590,283 590,283 590,283 591,283 591,283 591,283 591,284 591,284 591,284 591,284 591,284 591,284 591,284 591,284 591,284 591,284 592,285 592,285 592,285 592,285 592,285 592,285 592,285 592,285 592,286 592,286 592,286 592,286 592,286 593,286 593,286 593,286 593,286 593,286 593,286 593,287 593,287 593,287 593,287 593,287 593,287 593,287 594,287 594,287 594,287 594,287 594,287 594,287 594,287 594,287 594,287 594,287 594,288 594,288 594,288 595,288 595,288 595,288 595,288 595,288 595,288 595,288 595,288 595,288 595,288 595,288 595,288 595,288 596,288 596,288 596,288 596,288 596,288 596,288 596,288 596,288 596,288 596,288 596,288 596,288 596,288 597,288 597,288 597,288 597,288 597,288 597,288 597,288 597,288 597,288 597,288 597,288 597,287 597,287 598,287 598,287 598,287 598,287 598,287 598,287 598,287 598,287 598,287 598,287 598,286 598,286 598,286 599,286 599,286 599,286 599,286 599,286 599,286 599,285 599,285 599,285 599,285 599,285 599,285 600,285 600,285 600,285 600,285 600,284 600,284 600,284 600,284 600,284 600,284 600,284 600,284 600,284 601,283 601,283 601,283 601,283 601,283 601,283 601,283 601,283 601,282 601,282 601,282 601,282 601,282 602,282 602,282 602,282 602,282 602,282 602,282 602,282 602,282 602,282 602,282 602,282 602,283 602,283 603,283 603,284 603,284 603,284 603,284 603,284 603,285 603,285 603,285 603,285 603,285 603,285 603,285 604,284 604,284 604,284 604,284 604,284 604,284 604,284 604,284 604,285 604,285 604,285 604,286 604,286 605,287 605,287 605,288 605,288 605,289 605,289 605,290 605,290 605,291 605,291 605,293 605,293 605,294 606,294 606,296 606,297 606,297 606,298 606,298 606,299 606,300 606,300 606,300 606,300 606,301 606,301 607,301 607,301 607,302 607,302 607,302 607,302 607,303 607,303 607,303 607,303 607,303 607,304 607,304 608,304 608,304 608,305 608,305 608,305 608,306 608,305 608,304 608,304 608,303 608,302 608,301 608,300 609,299 609,298 609,298 609,297 609,297 609,297 609,297 609,297 609,297 609,297 609,296 609,296 609,297 610,297 610,297 610,297 610,297 610,297 610,297 610,297 610,297 610,297 610,297 610,297 610,296 610,296 611,295 611,294 611,294 611,293 611,293 611,293 611,293 611,293 611,292 611,292 611,292 611,292 611,293 612,293 612,293 612,293 612,293 612,293 612,294 612,294 612,294 612,294 612,294 612,293 612,293 612,293 613,293 613,292 613,292 613,291 613,290 613,290 613,290 613,289 613,288 613,288 613,287 613,287 613,286 614,286 614,286 614,285 614,285 614,285 614,285 614,284 614,284 614,284 614,284 614,283 614,283 614,283 615,282 615,282 615,282 615,282 615,281 615,281 615,281 615,281 615,281 615,281 615,280 615,280 615,280 616,280 616,279 616,279 616,279 616,279 616,279 616,279 616,279 616,279 616,279 616,279 616,279 616,278 617,278 617,278 617,279 617,278 617,278 617,278 617,278 617,278 617,278 617,278 617,278 617,278 617,279 618,279 618,279 618,279 618,279 618,280 618,280 618,280 618,280 618,280 618,280 618,281 618,281 618,281 619,281 619,281 619,281 619,281 619,281 619,282 619,282 619,282 619,282 619,282 619,282 619,282 619,282 620,282 620,282 620,282 620,281 620,281 620,281 620,281 620,281 620,281 620,281 620,281 620,281 620,281 621,281 621,281 621,281 621,281 621,281 621,281 621,281 621,281 621,281 621,281 621,281 621,281 621,281 622,281 622,281 622,281 622,281 622,281 622,281 622,281 622,281 622,281 622,281 622,281 622,281 623,281 623,281 623,281 623,281 623,281 623,281 623,281 623,282 623,282 623,282 623,282 623,282 623,282 624,283 624,283 624,283 624,283 624,283 624,283 624,284 624,284 624,284 624,284 624,284 624,284 624,284 625,285 625,285 625,285 625,285 625,285 625,286 625,286 625,286 625,286 625,287 625,287 625,287 625,287 626,288 626,288 626,288 626,288 626,289 626,289 626,289 626,290 626,290 626,290 626,290 626,290 626,291 627,291 627,290 627,290 627,290 627,290 627,290 627,289 627,289 627,289 627,289 627,289 627,288 627,288 628,288 628,288 628,288 628,288 628,288 628,287 628,287 628,287 628,287 628,287 628,287 628,288 628,288 629,288 629,288 629,288 629,288 629,288 629,289 629,289 629,289 629,290 629,290 629,291 629,292 629,293 630,293 630,294 630,296 630,297 630,298 630,300 630,301 630,302 630,304 630,305 630,306 630,307 630,308 631,309 631,310 631,310 631,311 631,312 631,312 631,313 631,313 631,314 631,314 631,314 631,314 631,313 632,312 632,311 632,310 632,309 632,308 632,307 632,307 632,306 632,305 632,304 632,303 632,302 632,302 633,301 633,300 633,300 633,300 633,300 633,300 633,299 633,299 633,299 633,299 633,299 633,299 633,298 634,298 634,298 634,298 634,298 634,298 634,297 634,298 634,297 634,297 634,297 634,298 634,298 634,298 635,298 635,298 635,298 635,299 635,299 635,299 635,300 635,300 635,301 635,302 635,302 635,303 635,304 636,305 636,305 636,306 636,307 636,308 636,309 636,310 636,310 636,310 636,311 636,311 636,311 636,310 637,309 637,309 637,308 637,308 637,307 637,307 637,306 637,306 637,305 637,305 637,305 637,304 637,304 638,303 638,303 638,303 638,302 638,302 638,302 638,302 638,302 638,301 638,301 638,301 638,301 638,301 639,301 639,301 639,301 639,301 639,301 639,301 639,301 639,301 639,301 639,301 639,302 639,302 639,302 640,302 640,302 640,302 640,302 640,302 640,302 640,302 640,302 640,302 640,302 640,302 640,303 640,303 641,303 641,303 641,303 641,303 641,303 641,303 641,303 641,303 641,303 641,304 641,305 641,305 641,306 642,306 642,306 642,307 642,308 642,308 642,309 642,309 642,310 642,310 642,311 642,312 642,312 642,313 643,313 643,314 643,315 643,315 643,316 643,316 643,317 643,317 643,318 643,318 643,319 643,319 643,320 644,320 644,320 644,321 644,321 644,321 644,322 644,322 644,322 644,323 644,323 644,323 644,324 644,324 645,324 645,325 645,325 645,326 645,326 645,327 645,327 645,327 645,328 645,328 645,328 645,329 646,329 646,329 646,330 646,330 646,331 646,331 646,331 646,332 646,332 646,332 646,333 646,333 646,333 647,334 647,334 647,334 647,334 647,335 647,335 647,335 647,335 647,335 647,335 647,334 647,334 647,334 648,334 648,334 648,334 648,334 648,334 648,333 648,333 648,333 648,333 648,333 648,333 648,333 648,334 649,334 649,334 649,334 649,334 649,334 649,334 649,334 649,334 649,333 649,333 649,333 649,333 649,332 650,332 650,331 650,331 650,330 650,330 650,329 650,329 650,329 650,328 650,328 650,328 650,328 650,328 651,327 651,327 651,328 651,328 651,328 651,328 651,329 651,329 651,329 651,329 651,329 651,330 651,330 652,330 652,330 652,331 652,331 652,331 652,332 652,332 652,333 652,333 652,333 652,333 652,334 652,334 653,334 653,335 653,335 653,335 653,335 653,336 653,336 653,336 653,337 653,337 653,337 653,338 653,338 654,339 654,339 654,339 654,339 654,340 654,340 654,340 654,340 654,340 654,340 654,340 654,340 654,340 655,340 655,340 655,340 655,341 655,341 655,341 655,341 655,342 655,342 655,342 655,342 655,341 655,341 656,341 656,340 656,339 656,339 656,339 656,339 656,339 656,339 656,338 656,338 656,339 656,339 656,339 657,338 657,338 657,338 657,338 657,338 657,338 657,338 657,338 657,338 657,338 657,338 657,338 657,338 658,338 658,338 658,338 658,338 658,338 658,338 658,339 658,339 658,339 658,339 658,339 658,339 658,339 659,339 659,339 659,339 659,340 659,340 659,340 659,340 659,340 659,340 659,340 659,340 659,341 659,341 660,341 660,341 660,342 660,342 660,342 660,342 660,343 660,343 660,343 660,342 660,342 660,342 660,342 661,341 661,341 661,341 661,341 661,341 661,341 661,340 661,340 661,340 661,339 661,339 661,339 661,338 662,338 662,338 662,337 662,337 662,337 662,337 662,337 662,337 662,337 662,337 662,337 662,337 662,337 663,337 663,337 663,337 663,336 663,336 663,336 663,336 663,336 663,336 663,336 663,336 663,336 663,336 664,336 664,336 664,336 664,336 664,336 664,337 664,337 664,337 664,337 664,337 664,337 664,337 664,337 665,337 665,337 665,337 665,337 665,337 665,337 665,337 665,337 665,337 665,337 665,337 665,337 665,337 666,337 666,337 666,337 666,337 666,337 666,337 666,337 666,337 666,337 666,337 666,337 666,337 666,338 667,338 667,338 667,338 667,338 667,338 667,338 667,338 667,338 667,338 667,338 667,338 667,338 667,338 668,338 668,339 668,339 668,339 668,339 668,339 668,339 668,339 668,339 668,339 668,339 668,339 668,339 669,339 669,339 669,339 669,339 669,339 669,339 669,339 669,339 669,339 669,339 669,339 669,339 670,339 670,339 670,339 670,339 670,339 670,339 670,339 670,339 670,339 670,339 670,339 670,339 670,339 671,339 671,339 671,339 671,339 671,339 671,339 671,339 671,339 671,339 671,339 671,339 671,339 671,339 672,339 672,339 672,339 672,339 672,339 672,339 672,339 672,339 672,339 672,339 672,339 672,339 672,339 673,339 673,339 673,339 673,339 673,339 673,339 673,339 673,339 673,339 673,339 673,339 673,339 673,339 674,339 674,339 674,339 674,339 674,339 674,339 674,339 674,339 674,339 674,339 674,339 674,339 674,339 675,339 675,339 675,339 675,339 675,339 675,339 675,339 675,339 675,339 675,339 675,339 675,339 675,339 676,339 676,339 676,339 676,339 676,339 676,339 676,339 676,339 676,339 676,339 676,339 676,339 676,339 677,339 677,339 677,339 677,339 677,339 677,339 677,339 677,339 677,338 677,339 677,339 677,339 677,339 678,339 678,339 678,339 678,339 678,339 678,339 678,339 678,339 678,339 678,339 678,339 678,339 678,339 679,339 679,339 679,339 679,339 679,339 679,339 679,339 679,339 679,339 679,339 679,339 679,339 679,339 680,339 680,339 680,339 680,339 680,339 680,339 680,339 680,339 680,339 680,338 680,338 680,338 680,338 681,339 681,339 681,339 681,339 681,339 681,339 681,339 681,339 681,339 681,339 681,339 681,339 681,339 682,339 682,339 682,339 682,339 682,339 682,339 682,339 682,339 682,339 682,339 682,339 682,339 682,339 683,339 683,339 683,339 683,339 683,339 683,339 683,339 683,339 683,339 683,339 683,339 683,339 683,339 684,339 684,339 684,339 684,339 684,339 684,339 684,340 684,340 684,340 684,340 684,340 684,340 684,340 685,340 685,340 685,340 685,340 685,340 685,340 685,340 685,340 685,340 685,340 685,340 685,340 685,340 686,340 686,340 686,340 686,340 686,340 686,340 686,340 686,340 686,340 686,340 686,340 686,340 686,340 687,340 687,340 687,340 687,340 687,340 687,340 687,340 687,340 687,340 687,340 687,340 687,340 687,340 688,340 688,340 688,340 688,340 688,340 688,340 688,340 688,340 688,340 688,340 688,340 688,340 688,340 689,340 689,340 689,340 689,339 689,339 689,339 689,339 689,339 689,339 689,339 689,339 689,339 689,339 690,339 690,339 690,339 690,339 690,339 690,339 690,339 690,339 690,339 690,339 690,339 690,338 690,338 691,338 691,338 691,338 691,338 691,338 691,338 691,338 691,338 691,338 691,338 691,338 691,338 691,338 692,337 692,337 692,337 692,337 692,337 692,337 692,337 692,337 692,337 692,337 692,337 692,337 693,336 693,336 693,336 693,336 693,336 693,336 693,336 693,336 693,336 693,336 693,336 693,336 693,336 694,336 694,336 694,336 694,335 694,335 694,335 694,335 694,335 694,335 694,335 694,335 694,335 694,335 695,335 695,335 695,335 695,334 695,334 695,334 695,334 695,334 695,334 695,334 695,334 695,334 695,334 696,333 696,333 696,333 696,333 696,333 696,333 696,333 696,333 696,333 696,333 696,333 696,333 696,333 697,333 697,333 697,332 697,332 697,332 697,332 697,332 697,332 697,332 697,332 697,332 697,332 697,332 698,332 698,332 698,331 698,331 698,331 698,331 698,331 698,331 698,331 698,331 698,331 698,331 698,331 699,330 699,330 699,330 699,330 699,330 699,330 699,330 699,330 699,330 699,330 699,329 699,329 699,329 700,329 700,329 700,329 700,329 700,329 700,329 700,329 700,329 700,329 700,328 700,328 700,328 700,328 701,328 701,328 701,328 701,328 701,328 701,328 701,328 701,328 701,327 701,327 701,327 701,327 701,327 702,327 702,327 702,327 702,327 702,327 702,326 702,326 702,326 702,326 702,326 702,326 702,326 702,326 703,326 703,326 703,326 703,326 703,326 703,325 703,325 703,325 703,325 703,325 703,325 703,325 703,325 704,325 704,325 704,325 704,324 704,324 704,324 704,324 704,324 704,324 704,324 704,324 704,324 704,324 705,323 705,323 705,323 705,323 705,323 705,323 705,323 705,323 705,322 705,322 705,322 705,322 705,322 706,322 706,322 706,322 706,321 706,321 706,321 706,321 706,321 706,321 706,321 706,321 706,321 706,321 707,320 707,320 707,320 707,320 707,320 707,320 707,320 707,320 707,320 707,320 707,319 707,319 707,319 708,319 708,319 708,319 708,319 708,319 708,319 708,319 708,318 708,318 708,318 708,318 708,318 708,318 709,318 709,318 709,318 709,318 709,318 709,318 709,317 709,317 709,317 709,317 709,317 709,317 709,317 710,317 710,316 710,316 710,316 710,316 710,316 710,316 710,316 710,316 710,316 710,315 710,315 710,315 711,315 711,315 711,315 711,314 711,314 711,314 711,314 711,314 711,314 711,314 711,313 711,313 711,313 712,313 712,313 712,313 712,312 712,312 712,312 712,312 712,312 712,311 712,311 712,311 712,311 712,311 713,311 713,310 713,310 713,310 713,310 713,310 713,309 713,309 713,309 713,309 713,309 713,309 713,308 714,308 714,308 714,308 714,308 714,308 714,308 714,308 714,308 714,308 714,308 714,308 714,307 714,307 715,307 715,307 715,307 715,307 715,306 715,306 715,306 715,305 715,305 715,305 715,304 715,304 715,304 716,304 716,303 716,303 716,303 716,302 716,302 716,303 716,303 716,303 716,303 716,303 716,303 717,303 717,303 717,304 717,304 717,304 717,304 717,304 717,304 717,304 717,304 717,304 717,304 717,304 718,303 718,303 718,303 718,303 718,302 718,302 718,302 718,302 718,302 718,302 718,301 718,301 718,301 719,301 719,300 719,300 719,300 719,300 719,300 719,300 719,300 719,299 719,298 719,298 719,298 719,298 720,297 720,297 720,297 720,297 720,297 720,297 720,297 720,297 720,297 720,297 720,297 720,297 720,296 721,296 721,296 721,295 721,295 721,295 721,295 721,294 721,294 721,294 721,294 721,294 721,294 721,293 722,293 722,293 722,293 722,292 722,292 722,292 722,292 722,292 722,291 722,291 722,291 722,291 722,291 723,291 723,291 723,290 723,290 723,290 723,290 723,290 723,290 723,290 723,290 723,290 723,290 723,290 724,289 724,289 724,289 724,289 724,289 724,289 724,289 724,289 724,289 724,289 724,289 724,289 724,289 725,289 725,289 725,289 725,289 725,289 725,289 725,289 725,289 725,289 725,289 725,289 725,289 725,289 726,289 726,289 726,289 726,289 726,289 726,289 726,289 726,289 726,289 726,289 726,289 726,289 726,289 727,289 727,289 727,289 727,289 727,289 727,289 727,290 727,290 727,290 727,290 727,290 727,290 727,290 728,290 728,290 728,290 728,290 728,290 728,290 728,291 728,291 728,291 728,291 728,291 728,291 728,291 729,291 729,291 729,291 729,291 729,291 729,292 729,292 729,292 729,292 729,292 729,292 729,292 729,292 730,292 730,293 730,293 730,293 730,293 730,293 730,293 730,293 730,293 730,293 730,293 730,293 730,293 731,293 731,294 731,294 731,294 731,294 731,294 731,294 731,294 731,294 731,294 731,294 731,294 731,294 732,295 732,295 732,295 732,295 732,295 732,295 732,295 732,295 732,295 732,295 732,295 732,295 732,295 733,296 733,296 733,296 733,296 733,296 733,296 733,296 733,296 733,296 733,296 733,296 733,296 733,296 734,296 734,296 734,296 734,297 734,297 734,297 734,297 734,297 734,297 734,297 734,297 734,297 734,297 735,297 735,297 735,297 735,297 735,298 735,298 735,298 735,298 735,298 735,298 735,298 735,298 735,298 736,298 736,298 736,298 736,298 736,298 736,299 736,299 736,299 736,299 736,299 736,299 " vector-effect="non-scaling-stroke"></polyline>
</g></svg>