<?xml version="1.0" encoding="UTF-8" standalone="no"?><svg width="282.222mm" height="141.111mm" xmlns="http://www.w3.org/2000/svg" xmlns:xlink="http://www.w3.org/1999/xlink"  version="1.2" baseProfile="tiny"><g fill="none" stroke="#ff0000" stroke-linecap="round" stroke-linejoin="round" stroke-opacity="1" stroke-width="1.5" transform="matrix(1,0,0,1,0,0)">
<polyline fill="none" points="57,269 57,269 57,269 57,270 57,270 57,270 57,271 57,271 57,271 57,271 58,271 58,272 58,272 58,272 58,272 58,272 58,273 58,273 58,273 58,273 58,274 58,274 58,274 59,274 59,275 59,275 59,275 59,275 59,275 59,276 59,276 59,276 59,276 59,276 59,277 59,277 60,277 60,277 60,277 60,277 60,277 60,277 60,278 60,278 60,278 60,278 60,278 60,278 60,278 61,279 61,279 61,279 61,279 61,280 61,280 61,280 61,280 61,279 61,279 61,279 61,279 62,278 62,278 62,278 62,278 62,277 62,277 62,277 62,277 62,277 62,277 62,277 62,277 62,277 63,277 63,277 63,277 63,277 63,277 63,277 63,277 63,277 63,277 63,277 63,277 63,277 63,277 64,277 64,277 64,277 64,277 64,277 64,277 64,277 64,277 64,277 64,278 64,278 64,278 64,278 65,278 65,277 65,277 65,277 65,277 65,277 65,277 65,277 65,278 65,278 65,278 65,278 65,278 66,278 66,278 66,278 66,278 66,278 66,278 66,278 66,279 66,279 66,279 66,279 66,279 66,279 67,279 67,279 67,279 67,279 67,279 67,279 67,279 67,279 67,279 67,279 67,279 67,279 67,279 68,279 68,279 68,279 68,278 68,278 68,278 68,278 68,278 68,278 68,278 68,277 68,277 68,277 69,276 69,276 69,276 69,277 69,276 69,276 69,276 69,276 69,276 69,275 69,275 69,275 69,275 70,274 70,274 70,274 70,273 70,273 70,272 70,272 70,272 70,271 70,271 70,271 70,270 70,270 71,270 71,269 71,269 71,269 71,269 71,269 71,268 71,268 71,268 71,268 71,268 71,268 71,268 72,268 72,268 72,268 72,268 72,268 72,269 72,269 72,269 72,269 72,270 72,270 72,270 72,270 73,270 73,270 73,270 73,270 73,271 73,271 73,271 73,271 73,271 73,271 73,271 73,271 73,271 74,271 74,271 74,271 74,271 74,271 74,271 74,271 74,271 74,271 74,271 74,271 74,271 74,271 75,271 75,271 75,271 75,271 75,270 75,270 75,270 75,270 75,270 75,270 75,269 75,269 75,269 76,269 76,268 76,268 76,268 76,268 76,268 76,268 76,268 76,267 76,267 76,267 76,267 76,266 77,266 77,266 77,266 77,265 77,265 77,265 77,265 77,265 77,264 77,264 77,264 77,264 77,264 78,264 78,264 78,264 78,264 78,264 78,263 78,263 78,263 78,263 78,263 78,264 78,264 78,264 79,264 79,264 79,264 79,264 79,265 79,265 79,265 79,265 79,265 79,265 79,265 79,266 79,266 80,266 80,266 80,267 80,267 80,267 80,267 80,267 80,268 80,268 80,268 80,268 80,268 80,269 81,269 81,269 81,269 81,270 81,270 81,270 81,270 81,270 81,271 81,271 81,271 81,271 81,271 82,271 82,272 82,272 82,272 82,272 82,272 82,273 82,273 82,273 82,273 82,273 82,273 82,274 83,274 83,274 83,274 83,274 83,275 83,275 83,275 83,275 83,275 83,275 83,275 83,276 84,276 84,276 84,276 84,276 84,276 84,276 84,276 84,276 84,276 84,276 84,276 84,276 84,276 85,276 85,276 85,276 85,275 85,275 85,275 85,275 85,275 85,275 85,274 85,274 85,274 85,274 86,274 86,274 86,273 86,273 86,274 86,274 86,274 86,274 86,274 86,274 86,275 86,275 86,275 87,276 87,276 87,276 87,276 87,277 87,277 87,277 87,277 87,278 87,278 87,278 87,278 87,279 88,279 88,279 88,279 88,279 88,280 88,280 88,280 88,280 88,281 88,281 88,281 88,281 88,281 89,280 89,280 89,280 89,279 89,279 89,279 89,278 89,278 89,278 89,278 89,277 89,277 89,276 90,276 90,276 90,275 90,275 90,275 90,274 90,274 90,274 90,274 90,274 90,274 90,274 90,274 91,274 91,274 91,274 91,274 91,274 91,274 91,274 91,274 91,275 91,275 91,275 91,275 91,275 92,276 92,276 92,276 92,277 92,277 92,277 92,277 92,278 92,278 92,278 92,279 92,279 92,279 93,279 93,280 93,280 93,280 93,280 93,280 93,281 93,281 93,281 93,281 93,281 93,281 93,282 94,282 94,281 94,282 94,282 94,282 94,282 94,282 94,281 94,281 94,281 94,281 94,281 94,281 95,281 95,280 95,280 95,280 95,280 95,280 95,279 95,279 95,279 95,279 95,279 95,278 95,278 96,277 96,277 96,277 96,277 96,277 96,277 96,277 96,276 96,276 96,276 96,276 96,276 96,276 97,276 97,276 97,276 97,277 97,277 97,277 97,278 97,278 97,278 97,278 97,278 97,279 97,279 98,279 98,279 98,279 98,279 98,279 98,279 98,279 98,279 98,278 98,278 98,278 98,278 98,278 99,277 99,277 99,277 99,277 99,277 99,277 99,277 99,276 99,277 99,277 99,277 99,277 99,277 100,277 100,277 100,277 100,277 100,277 100,277 100,277 100,277 100,277 100,277 100,277 100,277 100,277 101,277 101,277 101,277 101,277 101,278 101,278 101,278 101,278 101,279 101,279 101,279 101,279 101,279 102,279 102,279 102,279 102,279 102,279 102,279 102,279 102,279 102,279 102,279 102,280 102,280 102,280 103,280 103,280 103,280 103,280 103,280 103,280 103,280 103,281 103,281 103,281 103,281 103,281 103,282 104,282 104,282 104,282 104,282 104,282 104,282 104,282 104,282 104,283 104,283 104,283 104,283 104,283 105,283 105,283 105,283 105,283 105,284 105,284 105,284 105,285 105,285 105,285 105,285 105,286 105,286 106,286 106,286 106,286 106,287 106,287 106,287 106,287 106,287 106,287 106,287 106,288 106,288 107,288 107,288 107,288 107,288 107,287 107,288 107,288 107,288 107,288 107,288 107,288 107,288 107,288 108,288 108,288 108,288 108,288 108,288 108,288 108,288 108,288 108,288 108,288 108,289 108,289 108,289 109,289 109,289 109,289 109,289 109,289 109,289 109,289 109,289 109,289 109,289 109,289 109,289 109,289 110,289 110,289 110,289 110,289 110,289 110,289 110,289 110,289 110,289 110,289 110,289 110,289 110,289 111,289 111,289 111,289 111,288 111,288 111,288 111,288 111,288 111,288 111,288 111,288 111,288 111,288 112,288 112,288 112,288 112,288 112,288 112,288 112,288 112,288 112,288 112,288 112,288 112,288 112,288 113,288 113,288 113,288 113,288 113,288 113,288 113,288 113,288 113,288 113,288 113,288 113,288 113,288 114,288 114,288 114,288 114,288 114,288 114,288 114,288 114,288 114,288 114,288 114,288 114,288 114,288 115,288 115,288 115,288 115,288 115,288 115,288 115,288 115,288 115,288 115,288 115,288 115,288 115,288 116,288 116,288 116,288 116,288 116,288 116,288 116,288 116,288 116,288 116,288 116,288 116,288 116,287 117,287 117,287 117,287 117,287 117,287 117,287 117,287 117,287 117,287 117,287 117,287 117,287 117,287 118,287 118,287 118,287 118,287 118,287 118,287 118,287 118,287 118,287 118,287 118,287 118,287 118,287 119,287 119,288 119,288 119,288 119,288 119,288 119,288 119,288 119,288 119,288 119,288 119,287 119,287 120,287 120,287 120,287 120,287 120,286 120,286 120,286 120,286 120,286 120,286 120,286 120,286 120,286 121,286 121,286 121,286 121,286 121,286 121,286 121,286 121,286 121,285 121,285 121,285 121,285 121,285 122,285 122,285 122,285 122,285 122,285 122,285 122,285 122,284 122,284 122,284 122,284 122,284 122,284 123,284 123,284 123,284 123,284 123,284 123,284 123,284 123,284 123,284 123,284 123,284 123,284 123,284 124,283 124,283 124,283 124,283 124,283 124,283 124,283 124,283 124,283 124,283 124,283 124,283 124,283 125,283 125,283 125,283 125,283 125,283 125,282 125,282 125,282 125,282 125,283 125,283 125,282 125,282 126,282 126,282 126,282 126,282 126,282 126,282 126,282 126,282 126,282 126,282 126,282 126,281 126,281 127,281 127,281 127,281 127,281 127,281 127,281 127,281 127,281 127,281 127,281 127,281 127,281 127,281 128,280 128,280 128,280 128,280 128,280 128,280 128,280 128,280 128,280 128,280 128,280 128,280 128,280 129,280 129,279 129,279 129,279 129,279 129,279 129,279 129,279 129,279 129,279 129,278 129,278 130,278 130,278 130,278 130,278 130,278 130,278 130,278 130,278 130,278 130,278 130,278 130,277 130,277 131,277 131,277 131,277 131,277 131,277 131,277 131,277 131,277 131,277 131,277 131,277 131,277 131,277 132,277 132,277 132,277 132,277 132,277 132,277 132,277 132,277 132,277 132,277 132,277 132,277 132,277 133,277 133,277 133,277 133,277 133,277 133,276 133,276 133,276 133,276 133,276 133,276 133,276 133,276 134,276 134,276 134,276 134,276 134,276 134,276 134,277 134,277 134,277 134,277 134,277 134,277 134,277 135,277 135,277 135,277 135,277 135,277 135,276 135,276 135,276 135,276 135,276 135,276 135,276 135,276 136,276 136,276 136,276 136,276 136,275 136,275 136,275 136,275 136,275 136,275 136,274 136,274 136,274 137,274 137,274 137,274 137,274 137,274 137,274 137,274 137,274 137,274 137,274 137,274 137,274 137,273 138,273 138,273 138,273 138,273 138,273 138,273 138,273 138,273 138,273 138,273 138,273 138,273 138,273 139,273 139,273 139,273 139,273 139,274 139,274 139,274 139,273 139,273 139,273 139,273 139,273 139,273 140,273 140,273 140,272 140,272 140,272 140,271 140,271 140,271 140,271 140,270 140,270 140,270 140,270 141,270 141,269 141,269 141,269 141,269 141,268 141,268 141,268 141,268 141,268 141,268 141,268 141,267 142,267 142,267 142,267 142,267 142,267 142,267 142,267 142,267 142,267 142,267 142,267 142,266 142,266 143,266 143,266 143,265 143,265 143,265 143,265 143,264 143,264 143,264 143,263 143,263 143,263 143,263 144,263 144,262 144,262 144,262 144,262 144,262 144,262 144,262 144,261 144,261 144,261 144,260 144,260 145,260 145,260 145,259 145,259 145,259 145,258 145,258 145,257 145,257 145,256 145,255 145,255 145,254 146,254 146,253 146,252 146,252 146,252 146,251 146,251 146,251 146,250 146,250 146,250 146,249 146,249 147,249 147,248 147,248 147,248 147,247 147,247 147,247 147,246 147,246 147,245 147,245 147,245 147,245 148,245 148,245 148,245 148,245 148,245 148,245 148,245 148,245 148,245 148,246 148,246 148,246 148,246 149,246 149,247 149,247 149,247 149,247 149,248 149,248 149,248 149,248 149,248 149,249 149,249 149,250 150,250 150,250 150,250 150,250 150,251 150,251 150,251 150,251 150,251 150,251 150,251 150,250 150,251 151,251 151,252 151,252 151,252 151,252 151,252 151,252 151,252 151,252 151,252 151,253 151,253 152,253 152,253 152,254 152,254 152,255 152,255 152,256 152,256 152,256 152,257 152,258 152,258 152,259 153,260 153,261 153,262 153,264 153,264 153,265 153,266 153,267 153,268 153,268 153,269 153,270 153,270 154,270 154,270 154,270 154,270 154,269 154,269 154,269 154,269 154,268 154,268 154,268 154,268 154,267 155,267 155,266 155,265 155,265 155,264 155,263 155,262 155,262 155,261 155,260 155,259 155,258 155,257 156,257 156,256 156,255 156,254 156,253 156,253 156,252 156,252 156,251 156,251 156,250 156,250 156,249 157,247 157,247 157,246 157,246 157,245 157,245 157,244 157,243 157,243 157,242 157,242 157,241 157,241 158,240 158,239 158,238 158,238 158,237 158,236 158,236 158,235 158,234 158,234 158,233 158,233 158,232 159,231 159,230 159,229 159,229 159,228 159,228 159,228 159,227 159,227 159,227 159,226 159,226 159,225 160,225 160,225 160,224 160,224 160,224 160,224 160,223 160,222 160,222 160,222 160,221 160,221 160,221 161,221 161,221 161,220 161,220 161,220 161,220 161,220 161,220 161,219 161,219 161,219 161,219 161,218 162,218 162,218 162,218 162,217 162,217 162,217 162,216 162,216 162,216 162,215 162,215 162,215 162,215 163,214 163,214 163,214 163,214 163,213 163,213 163,213 163,212 163,212 163,212 163,212 163,212 163,212 164,211 164,211 164,211 164,211 164,211 164,210 164,210 164,210 164,210 164,210 164,209 164,209 164,209 165,209 165,209 165,209 165,209 165,209 165,209 165,209 165,208 165,208 165,208 165,208 165,208 165,208 166,207 166,207 166,207 166,207 166,207 166,207 166,207 166,207 166,207 166,207 166,207 166,207 166,207 167,208 167,208 167,208 167,208 167,208 167,208 167,208 167,208 167,209 167,209 167,210 167,210 167,210 168,210 168,210 168,211 168,212 168,212 168,213 168,213 168,213 168,213 168,214 168,214 168,214 168,214 169,215 169,215 169,215 169,215 169,215 169,215 169,215 169,215 169,215 169,214 169,214 169,213 169,213 170,212 170,212 170,211 170,211 170,210 170,209 170,209 170,208 170,208 170,207 170,206 170,206 170,205 171,205 171,204 171,204 171,204 171,203 171,203 171,203 171,202 171,202 171,202 171,201 171,201 171,201 172,200 172,200 172,200 172,200 172,200 172,200 172,200 172,200 172,200 172,200 172,200 172,200 172,201 173,201 173,201 173,201 173,201 173,201 173,202 173,202 173,202 173,203 173,202 173,202 173,202 173,202 174,203 174,203 174,203 174,204 174,205 174,205 174,206 174,206 174,206 174,206 174,207 174,208 175,209 175,210 175,211 175,211 175,212 175,213 175,214 175,214 175,215 175,216 175,216 175,217 175,218 176,219 176,220 176,220 176,221 176,222 176,223 176,224 176,224 176,225 176,226 176,227 176,228 176,229 177,230 177,231 177,232 177,233 177,233 177,234 177,234 177,234 177,234 177,235 177,235 177,235 177,235 178,235 178,235 178,235 178,235 178,235 178,234 178,233 178,233 178,232 178,232 178,231 178,230 178,229 179,229 179,229 179,228 179,228 179,227 179,226 179,226 179,225 179,225 179,224 179,224 179,223 179,222 180,222 180,221 180,220 180,220 180,219 180,218 180,217 180,217 180,216 180,215 180,214 180,213 180,213 181,212 181,211 181,211 181,210 181,210 181,209 181,209 181,208 181,207 181,207 181,206 181,206 181,205 182,204 182,204 182,203 182,203 182,203 182,202 182,201 182,200 182,200 182,200 182,199 182,199 182,199 183,198 183,198 183,198 183,198 183,198 183,198 183,198 183,198 183,198 183,198 183,198 183,197 183,197 184,197 184,197 184,197 184,197 184,197 184,197 184,197 184,197 184,197 184,197 184,197 184,197 184,197 185,197 185,197 185,197 185,197 185,197 185,197 185,197 185,197 185,197 185,197 185,197 185,198 185,198 186,198 186,198 186,198 186,198 186,198 186,199 186,200 186,201 186,202 186,203 186,204 186,205 186,205 187,206 187,206 187,206 187,206 187,206 187,205 187,205 187,205 187,204 187,204 187,203 187,202 187,202 188,201 188,200 188,199 188,199 188,198 188,198 188,198 188,198 188,199 188,199 188,199 188,199 188,199 189,200 189,200 189,200 189,200 189,200 189,200 189,200 189,201 189,201 189,201 189,200 189,200 189,200 190,201 190,202 190,203 190,204 190,205 190,205 190,206 190,208 190,209 190,209 190,209 190,209 190,209 191,209 191,210 191,210 191,210 191,211 191,211 191,212 191,213 191,213 191,214 191,215 191,216 191,216 192,217 192,217 192,218 192,219 192,219 192,220 192,220 192,221 192,221 192,222 192,222 192,222 192,221 193,222 193,221 193,220 193,220 193,219 193,218 193,217 193,216 193,216 193,215 193,215 193,214 193,213 194,213 194,212 194,212 194,212 194,212 194,213 194,212 194,212 194,212 194,212 194,212 194,212 194,212 195,211 195,211 195,210 195,210 195,211 195,211 195,211 195,211 195,211 195,212 195,212 195,212 195,213 196,214 196,215 196,216 196,217 196,218 196,219 196,220 196,221 196,222 196,223 196,224 196,224 197,225 197,226 197,226 197,226 197,226 197,226 197,226 197,226 197,226 197,226 197,225 197,224 197,223 198,222 198,221 198,220 198,219 198,218 198,217 198,216 198,214 198,213 198,212 198,211 198,210 198,208 199,208 199,207 199,206 199,205 199,204 199,203 199,202 199,201 199,201 199,200 199,199 199,198 199,198 200,197 200,196 200,195 200,195 200,195 200,195 200,195 200,195 200,195 200,195 200,195 200,195 200,195 201,195 201,195 201,195 201,194 201,194 201,194 201,194 201,194 201,194 201,194 201,194 201,194 201,194 202,193 202,193 202,193 202,193 202,193 202,193 202,193 202,193 202,193 202,193 202,193 202,193 202,193 203,193 203,193 203,193 203,193 203,193 203,193 203,193 203,193 203,193 203,193 203,193 203,193 203,192 204,192 204,192 204,192 204,192 204,192 204,192 204,192 204,192 204,192 204,192 204,192 204,192 204,192 205,192 205,192 205,192 205,193 205,193 205,193 205,193 205,193 205,193 205,193 205,192 205,192 205,193 206,193 206,193 206,193 206,193 206,193 206,193 206,193 206,194 206,194 206,194 206,194 206,195 206,195 207,195 207,195 207,195 207,195 207,195 207,195 207,195 207,195 207,195 207,195 207,195 207,195 207,195 208,195 208,195 208,195 208,195 208,195 208,195 208,195 208,195 208,195 208,195 208,195 208,195 208,195 209,195 209,195 209,195 209,195 209,195 209,195 209,195 209,195 209,194 209,194 209,194 209,194 209,194 210,194 210,194 210,194 210,193 210,193 210,193 210,193 210,193 210,193 210,193 210,193 210,193 210,193 211,193 211,193 211,193 211,193 211,193 211,193 211,193 211,193 211,193 211,194 211,194 211,194 211,194 212,194 212,194 212,194 212,195 212,195 212,195 212,195 212,195 212,195 212,196 212,196 212,196 212,196 213,196 213,196 213,196 213,196 213,196 213,196 213,196 213,196 213,196 213,196 213,196 213,196 213,196 214,196 214,196 214,195 214,195 214,194 214,194 214,194 214,194 214,194 214,194 214,194 214,194 214,194 215,194 215,194 215,194 215,194 215,194 215,194 215,194 215,195 215,195 215,195 215,195 215,195 215,195 216,195 216,195 216,195 216,195 216,195 216,195 216,195 216,195 216,195 216,195 216,195 216,196 216,196 217,196 217,196 217,196 217,197 217,197 217,197 217,198 217,198 217,198 217,199 217,199 217,199 217,199 218,200 218,200 218,200 218,200 218,200 218,199 218,199 218,199 218,199 218,199 218,198 218,198 218,198 219,198 219,198 219,197 219,197 219,197 219,197 219,197 219,197 219,197 219,197 219,197 219,197 220,197 220,198 220,198 220,198 220,198 220,198 220,198 220,198 220,198 220,198 220,198 220,198 220,198 221,198 221,198 221,197 221,197 221,197 221,197 221,196 221,196 221,196 221,195 221,195 221,194 221,194 222,194 222,194 222,194 222,194 222,194 222,195 222,194 222,194 222,195 222,195 222,195 222,195 222,193 223,191 223,191 223,191 223,191 223,191 223,191 223,191 223,191 223,191 223,191 223,190 223,190 223,190 224,190 224,190 224,190 224,190 224,190 224,190 224,190 224,190 224,190 224,190 224,190 224,190 224,190 225,190 225,190 225,190 225,190 225,190 225,190 225,190 225,190 225,190 225,189 225,189 225,189 225,189 226,189 226,189 226,189 226,189 226,189 226,190 226,190 226,190 226,190 226,190 226,191 226,191 226,191 227,191 227,191 227,191 227,191 227,191 227,191 227,191 227,191 227,191 227,191 227,191 227,191 227,191 228,191 228,191 228,191 228,192 228,192 228,192 228,192 228,192 228,192 228,192 228,192 228,192 228,192 229,192 229,192 229,192 229,192 229,192 229,192 229,192 229,192 229,192 229,191 229,191 229,191 229,191 230,191 230,191 230,191 230,191 230,192 230,192 230,192 230,193 230,193 230,193 230,193 230,193 230,193 231,193 231,193 231,193 231,193 231,194 231,194 231,194 231,194 231,194 231,195 231,195 231,195 231,195 232,195 232,195 232,195 232,196 232,196 232,196 232,197 232,197 232,197 232,198 232,198 232,198 232,198 233,198 233,198 233,198 233,198 233,198 233,198 233,198 233,198 233,198 233,198 233,198 233,198 233,198 234,198 234,198 234,198 234,198 234,198 234,198 234,198 234,198 234,198 234,198 234,197 234,197 234,197 235,197 235,197 235,197 235,197 235,197 235,197 235,197 235,197 235,196 235,196 235,196 235,196 235,196 236,196 236,196 236,196 236,196 236,196 236,196 236,196 236,196 236,195 236,195 236,195 236,195 236,195 237,195 237,195 237,195 237,195 237,195 237,195 237,195 237,195 237,195 237,195 237,194 237,194 237,194 238,194 238,194 238,194 238,194 238,194 238,194 238,194 238,194 238,194 238,194 238,194 238,194 238,194 239,194 239,194 239,194 239,194 239,194 239,194 239,194 239,194 239,194 239,194 239,194 239,194 239,194 240,194 240,194 240,194 240,194 240,194 240,194 240,194 240,193 240,193 240,193 240,193 240,193 240,193 241,193 241,193 241,193 241,193 241,193 241,193 241,192 241,192 241,192 241,192 241,192 241,192 241,192 242,192 242,192 242,192 242,192 242,192 242,192 242,192 242,192 242,192 242,192 242,191 242,191 243,191 243,191 243,191 243,191 243,191 243,191 243,191 243,191 243,191 243,191 243,191 243,191 243,191 244,191 244,191 244,191 244,191 244,191 244,191 244,191 244,191 244,191 244,191 244,191 244,191 244,191 245,191 245,191 245,191 245,191 245,191 245,191 245,190 245,190 245,190 245,190 245,190 245,190 245,190 246,190 246,190 246,190 246,190 246,190 246,190 246,190 246,190 246,190 246,189 246,189 246,189 246,189 247,189 247,189 247,189 247,189 247,189 247,189 247,189 247,189 247,189 247,189 247,189 247,189 247,189 248,189 248,189 248,188 248,188 248,188 248,189 248,189 248,189 248,189 248,189 248,189 248,189 248,189 249,189 249,189 249,189 249,189 249,189 249,189 249,189 249,189 249,189 249,189 249,189 249,189 249,189 250,189 250,189 250,189 250,189 250,189 250,189 250,189 250,189 250,189 250,189 250,189 250,189 250,189 251,189 251,189 251,189 251,189 251,189 251,190 251,190 251,190 251,190 251,190 251,189 251,189 251,189 252,189 252,189 252,189 252,189 252,189 252,189 252,189 252,189 252,189 252,189 252,189 252,189 252,189 253,189 253,189 253,189 253,189 253,189 253,189 253,189 253,189 253,189 253,189 253,189 253,189 253,189 254,189 254,188 254,188 254,188 254,188 254,188 254,189 254,188 254,188 254,188 254,188 254,188 254,188 255,188 255,188 255,188 255,188 255,188 255,188 255,188 255,188 255,188 255,188 255,187 255,187 255,187 256,187 256,187 256,187 256,187 256,187 256,186 256,186 256,186 256,186 256,185 256,185 256,185 256,185 257,185 257,185 257,184 257,184 257,184 257,184 257,184 257,184 257,184 257,184 257,184 257,184 257,184 258,184 258,184 258,183 258,183 258,183 258,183 258,183 258,183 258,183 258,183 258,183 258,183 258,183 259,183 259,183 259,183 259,183 259,183 259,183 259,183 259,183 259,183 259,183 259,183 259,182 259,182 260,182 260,182 260,182 260,182 260,182 260,182 260,182 260,182 260,182 260,182 260,182 260,182 260,182 261,182 261,182 261,182 261,182 261,182 261,182 261,181 261,181 261,181 261,181 261,181 261,181 261,181 262,180 262,180 262,180 262,180 262,180 262,179 262,179 262,178 262,177 262,177 262,176 262,176 262,176 263,175 263,175 263,175 263,174 263,174 263,174 263,174 263,174 263,174 263,174 263,174 263,175 263,175 264,175 264,175 264,175 264,176 264,176 264,176 264,176 264,176 264,176 264,177 264,177 264,177 265,177 265,178 265,178 265,178 265,178 265,179 265,179 265,179 265,180 265,180 265,180 265,180 265,180 266,180 266,180 266,180 266,180 266,180 266,180 266,180 266,180 266,180 266,180 266,180 266,180 266,180 267,180 267,181 267,181 267,181 267,181 267,181 267,181 267,181 267,181 267,181 267,182 267,182 267,182 268,182 268,182 268,182 268,182 268,182 268,182 268,182 268,183 268,183 268,183 268,183 268,183 268,183 269,183 269,183 269,183 269,184 269,184 269,184 269,184 269,184 269,184 269,184 269,184 269,184 269,184 270,184 270,184 270,184 270,184 270,185 270,185 270,185 270,185 270,185 270,185 270,185 270,185 270,185 271,185 271,185 271,185 271,185 271,185 271,185 271,186 271,186 271,186 271,186 271,186 271,186 271,186 272,186 272,186 272,186 272,186 272,186 272,187 272,187 272,187 272,187 272,187 272,187 272,187 272,187 273,188 273,188 273,188 273,188 273,188 273,188 273,188 273,188 273,188 273,189 273,189 273,189 273,189 274,189 274,189 274,189 274,189 274,190 274,190 274,190 274,190 274,190 274,190 274,190 274,190 274,191 275,191 275,191 275,191 275,191 275,191 275,191 275,191 275,191 275,191 275,192 275,192 275,192 275,192 276,192 276,192 276,192 276,192 276,192 276,192 276,192 276,192 276,192 276,193 276,193 276,193 276,193 277,193 277,193 277,193 277,193 277,193 277,193 277,194 277,194 277,194 277,194 277,194 277,194 277,194 278,194 278,194 278,194 278,194 278,194 278,194 278,194 278,195 278,195 278,195 278,195 278,195 278,195 279,195 279,195 279,195 279,195 279,196 279,196 279,196 279,196 279,196 279,196 279,196 279,196 279,196 280,196 280,196 280,196 280,196 280,196 280,196 280,196 280,196 280,196 280,196 280,196 280,196 280,196 281,196 281,196 281,196 281,196 281,196 281,196 281,196 281,196 281,196 281,196 281,196 281,196 281,196 282,196 282,196 282,196 282,196 282,196 282,196 282,196 282,196 282,196 282,195 282,195 282,195 282,195 283,195 283,195 283,195 283,195 283,194 283,194 283,194 283,194 283,194 283,194 283,194 283,194 283,194 284,195 284,195 284,195 284,195 284,195 284,195 284,195 284,195 284,195 284,195 284,195 284,195 284,194 285,194 285,194 285,194 285,194 285,194 285,194 285,194 285,194 285,194 285,194 285,194 285,194 285,194 286,194 286,194 286,194 286,194 286,193 286,193 286,193 286,193 286,193 286,193 286,193 286,193 286,193 287,193 287,193 287,193 287,193 287,192 287,192 287,192 287,192 287,192 287,192 287,192 287,192 288,192 288,192 288,192 288,192 288,192 288,192 288,192 288,192 288,192 288,191 288,191 288,191 288,191 289,191 289,191 289,191 289,191 289,191 289,191 289,191 289,191 289,191 289,191 289,191 289,191 289,191 290,191 290,191 290,191 290,190 290,190 290,190 290,190 290,190 290,190 290,190 290,190 290,190 290,190 291,190 291,190 291,190 291,190 291,190 291,190 291,190 291,190 291,190 291,190 291,190 291,190 291,190 292,189 292,189 292,189 292,189 292,189 292,189 292,189 292,189 292,189 292,189 292,189 292,189 292,189 293,189 293,189 293,189 293,189 293,189 293,189 293,188 293,188 293,188 293,188 293,188 293,188 293,188 294,188 294,188 294,188 294,188 294,187 294,187 294,187 294,187 294,187 294,187 294,187 294,186 294,186 295,186 295,186 295,186 295,186 295,186 295,186 295,186 295,186 295,185 295,185 295,185 295,185 295,185 296,185 296,185 296,185 296,185 296,184 296,184 296,184 296,184 296,184 296,184 296,184 296,183 296,183 297,183 297,183 297,183 297,183 297,183 297,182 297,182 297,182 297,182 297,182 297,182 297,182 297,182 298,181 298,181 298,181 298,181 298,181 298,181 298,180 298,180 298,180 298,180 298,180 298,180 298,179 299,179 299,179 299,179 299,179 299,179 299,179 299,179 299,178 299,178 299,178 299,178 299,178 299,178 300,178 300,177 300,177 300,177 300,177 300,177 300,177 300,177 300,176 300,176 300,176 300,176 300,176 301,176 301,176 301,175 301,175 301,175 301,175 301,175 301,175 301,175 301,174 301,174 301,174 301,174 302,174 302,173 302,173 302,173 302,173 302,172 302,172 302,172 302,172 302,172 302,172 302,172 302,172 303,172 303,172 303,172 303,172 303,172 303,172 303,172 303,172 303,172 303,172 303,172 303,172 303,172 304,171 304,171 304,172 304,172 304,172 304,173 304,173 304,173 304,173 304,173 304,172 304,171 304,170 305,170 305,169 305,169 305,169 305,169 305,169 305,169 305,169 305,169 305,169 305,168 305,168 305,168 306,168 306,168 306,168 306,167 306,167 306,167 306,167 306,167 306,166 306,166 306,166 306,166 306,166 307,165 307,165 307,164 307,164 307,164 307,164 307,164 307,163 307,163 307,163 307,163 307,162 307,162 308,161 308,161 308,160 308,160 308,160 308,160 308,159 308,159 308,159 308,158 308,158 308,157 308,156 309,155 309,154 309,153 309,153 309,152 309,152 309,152 309,152 309,153 309,152 309,152 309,152 310,151 310,151 310,151 310,151 310,151 310,151 310,150 310,150 310,150 310,151 310,151 310,151 310,151 311,151 311,151 311,151 311,151 311,151 311,150 311,150 311,150 311,150 311,150 311,150 311,150 311,150 312,150 312,150 312,150 312,150 312,150 312,150 312,150 312,149 312,149 312,148 312,148 312,148 312,148 313,149 313,150 313,150 313,150 313,150 313,150 313,150 313,150 313,149 313,149 313,148 313,148 313,148 314,148 314,147 314,147 314,147 314,147 314,147 314,147 314,148 314,148 314,148 314,148 314,147 314,147 315,147 315,147 315,146 315,146 315,146 315,146 315,146 315,146 315,145 315,145 315,144 315,143 315,143 316,142 316,142 316,141 316,141 316,140 316,140 316,139 316,139 316,139 316,138 316,138 316,137 316,137 317,136 317,135 317,135 317,134 317,134 317,133 317,133 317,132 317,132 317,131 317,131 317,130 317,130 318,130 318,129 318,129 318,129 318,129 318,129 318,129 318,128 318,128 318,128 318,128 318,128 318,128 319,128 319,127 319,127 319,128 319,128 319,128 319,128 319,129 319,129 319,129 319,130 319,130 319,130 320,130 320,131 320,131 320,131 320,131 320,132 320,132 320,132 320,132 320,132 320,132 320,132 320,133 321,133 321,133 321,133 321,133 321,134 321,135 321,136 321,136 321,137 321,137 321,138 321,138 321,139 322,139 322,140 322,140 322,141 322,141 322,142 322,142 322,143 322,144 322,144 322,144 322,145 322,145 323,146 323,146 323,146 323,147 323,147 323,147 323,148 323,148 323,148 323,149 323,149 323,149 323,150 324,150 324,150 324,150 324,151 324,151 324,151 324,151 324,151 324,151 324,151 324,151 324,151 324,151 325,151 325,151 325,151 325,150 325,150 325,150 325,150 325,150 325,150 325,150 325,151 325,151 325,151 326,152 326,152 326,152 326,153 326,153 326,154 326,154 326,154 326,155 326,155 326,155 326,155 326,155 327,155 327,155 327,155 327,155 327,155 327,155 327,155 327,155 327,155 327,155 327,155 327,155 327,155 328,155 328,155 328,155 328,156 328,156 328,156 328,157 328,157 328,157 328,157 328,157 328,158 328,158 329,158 329,158 329,157 329,157 329,157 329,157 329,156 329,156 329,155 329,154 329,154 329,155 329,155 330,155 330,156 330,156 330,156 330,155 330,155 330,155 330,155 330,155 330,155 330,155 330,156 330,155 331,155 331,155 331,155 331,155 331,155 331,155 331,155 331,156 331,156 331,157 331,157 331,157 331,158 332,158 332,158 332,158 332,159 332,159 332,159 332,159 332,160 332,160 332,160 332,161 332,161 333,162 333,162 333,163 333,163 333,163 333,163 333,163 333,163 333,163 333,163 333,163 333,163 333,164 334,164 334,164 334,164 334,164 334,164 334,164 334,164 334,164 334,164 334,164 334,164 334,163 334,163 335,163 335,163 335,163 335,163 335,163 335,163 335,163 335,163 335,162 335,162 335,162 335,162 335,162 336,162 336,162 336,162 336,162 336,161 336,162 336,162 336,161 336,161 336,162 336,162 336,162 336,162 337,162 337,162 337,162 337,162 337,162 337,162 337,162 337,162 337,163 337,164 337,165 337,165 337,165 338,165 338,165 338,165 338,165 338,165 338,166 338,166 338,166 338,166 338,166 338,167 338,167 338,167 339,167 339,167 339,167 339,167 339,167 339,168 339,168 339,168 339,168 339,169 339,169 339,169 339,170 340,170 340,170 340,170 340,171 340,171 340,171 340,171 340,172 340,172 340,172 340,172 340,173 340,173 341,173 341,173 341,173 341,173 341,173 341,173 341,173 341,174 341,174 341,175 341,175 341,176 341,176 342,176 342,176 342,177 342,177 342,177 342,178 342,178 342,178 342,179 342,179 342,179 342,180 342,180 343,180 343,180 343,181 343,181 343,181 343,181 343,182 343,182 343,182 343,182 343,182 343,183 343,183 344,183 344,183 344,183 344,183 344,183 344,183 344,183 344,183 344,183 344,183 344,183 344,183 344,183 345,183 345,183 345,183 345,183 345,183 345,183 345,183 345,183 345,183 345,183 345,182 345,182 345,182 346,182 346,182 346,182 346,182 346,182 346,182 346,181 346,181 346,181 346,181 346,181 346,181 346,181 347,181 347,181 347,181 347,181 347,181 347,181 347,181 347,181 347,181 347,181 347,181 347,181 347,181 348,181 348,181 348,181 348,181 348,181 348,181 348,181 348,181 348,181 348,181 348,181 348,181 348,181 349,181 349,181 349,181 349,181 349,182 349,182 349,182 349,182 349,182 349,182 349,182 349,182 349,182 350,182 350,182 350,182 350,182 350,182 350,182 350,182 350,182 350,182 350,182 350,182 350,182 350,182 351,182 351,182 351,182 351,182 351,182 351,183 351,183 351,183 351,184 351,184 351,184 351,184 351,185 352,185 352,185 352,185 352,185 352,185 352,185 352,185 352,185 352,185 352,185 352,185 352,185 352,185 353,185 353,185 353,185 353,185 353,185 353,185 353,185 353,185 353,185 353,186 353,186 353,186 353,186 354,186 354,186 354,186 354,186 354,186 354,186 354,186 354,186 354,186 354,187 354,187 354,187 354,187 355,187 355,187 355,187 355,188 355,188 355,188 355,188 355,188 355,188 355,188 355,188 355,188 356,189 356,189 356,189 356,189 356,189 356,189 356,189 356,189 356,189 356,189 356,190 356,190 356,190 357,190 357,190 357,190 357,190 357,190 357,191 357,191 357,191 357,191 357,191 357,191 357,191 357,191 358,191 358,191 358,191 358,191 358,191 358,190 358,190 358,190 358,190 358,190 358,190 358,190 358,190 359,190 359,190 359,189 359,189 359,189 359,189 359,189 359,189 359,189 359,189 359,189 359,189 359,189 360,189 360,189 360,189 360,189 360,189 360,189 360,189 360,189 360,189 360,189 360,190 360,190 360,190 361,190 361,190 361,191 361,191 361,191 361,191 361,191 361,191 361,192 361,192 361,192 361,192 361,193 362,193 362,193 362,193 362,194 362,194 362,194 362,194 362,195 362,195 362,195 362,195 362,195 362,195 363,196 363,196 363,196 363,195 363,196 363,196 363,195 363,194 363,193 363,192 363,192 363,192 363,191 364,191 364,190 364,190 364,190 364,190 364,189 364,189 364,189 364,189 364,189 364,189 364,189 364,189 365,188 365,188 365,188 365,188 365,188 365,188 365,188 365,187 365,187 365,187 365,187 365,187 365,187 366,187 366,187 366,187 366,187 366,188 366,189 366,189 366,190 366,190 366,191 366,191 366,192 366,192 367,192 367,192 367,192 367,191 367,191 367,191 367,191 367,190 367,190 367,190 367,189 367,189 367,188 368,188 368,188 368,187 368,187 368,186 368,186 368,185 368,185 368,184 368,184 368,183 368,183 368,182 369,181 369,181 369,180 369,180 369,179 369,179 369,178 369,177 369,177 369,176 369,175 369,175 369,174 370,174 370,173 370,173 370,173 370,172 370,172 370,172 370,172 370,171 370,171 370,171 370,171 370,170 371,170 371,170 371,170 371,170 371,170 371,170 371,170 371,170 371,170 371,170 371,171 371,171 371,171 372,171 372,171 372,172 372,172 372,172 372,172 372,172 372,173 372,173 372,173 372,174 372,174 372,175 373,175 373,175 373,176 373,176 373,176 373,177 373,177 373,177 373,178 373,178 373,178 373,179 373,179 374,180 374,180 374,180 374,181 374,181 374,182 374,182 374,183 374,183 374,183 374,184 374,184 374,185 375,185 375,186 375,186 375,186 375,186 375,186 375,187 375,187 375,188 375,188 375,189 375,189 375,189 376,190 376,190 376,190 376,191 376,191 376,191 376,192 376,192 376,192 376,192 376,192 376,192 376,192 377,192 377,192 377,192 377,192 377,192 377,192 377,192 377,191 377,191 377,191 377,191 377,191 378,190 378,190 378,190 378,189 378,189 378,189 378,189 378,189 378,189 378,189 378,189 378,189 378,189 379,189 379,189 379,189 379,189 379,189 379,189 379,189 379,189 379,189 379,189 379,189 379,188 379,188 380,189 380,189 380,189 380,190 380,190 380,191 380,192 380,192 380,193 380,193 380,194 380,194 380,194 381,194 381,194 381,194 381,195 381,195 381,195 381,195 381,195 381,195 381,195 381,194 381,194 381,194 382,194 382,194 382,193 382,193 382,193 382,193 382,192 382,192 382,192 382,191 382,191 382,191 382,190 383,190 383,190 383,189 383,189 383,189 383,189 383,189 383,189 383,188 383,188 383,188 383,188 383,187 384,187 384,187 384,187 384,186 384,186 384,186 384,185 384,185 384,185 384,184 384,184 384,184 384,183 385,183 385,182 385,182 385,182 385,182 385,182 385,182 385,182 385,181 385,181 385,181 385,180 385,180 386,180 386,180 386,179 386,179 386,179 386,178 386,178 386,178 386,177 386,177 386,177 386,176 386,176 387,176 387,176 387,176 387,175 387,174 387,174 387,174 387,173 387,173 387,173 387,173 387,172 387,172 388,172 388,172 388,172 388,172 388,172 388,172 388,172 388,172 388,172 388,172 388,172 388,172 388,172 389,172 389,172 389,172 389,172 389,172 389,173 389,173 389,174 389,174 389,175 389,175 389,176 389,176 390,177 390,177 390,177 390,178 390,178 390,179 390,179 390,179 390,180 390,180 390,180 390,181 390,181 391,181 391,181 391,182 391,182 391,182 391,183 391,183 391,183 391,184 391,184 391,185 391,185 391,185 392,185 392,186 392,186 392,187 392,187 392,187 392,187 392,188 392,188 392,188 392,189 392,189 392,189 393,189 393,190 393,190 393,190 393,190 393,190 393,189 393,189 393,189 393,189 393,189 393,188 393,188 394,188 394,188 394,188 394,187 394,187 394,187 394,187 394,187 394,187 394,187 394,188 394,188 394,188 395,188 395,188 395,188 395,188 395,188 395,188 395,188 395,188 395,188 395,188 395,188 395,188 395,188 396,188 396,188 396,188 396,188 396,188 396,188 396,187 396,187 396,187 396,187 396,187 396,186 396,186 397,186 397,186 397,185 397,185 397,185 397,184 397,184 397,184 397,184 397,183 397,183 397,182 397,182 398,182 398,181 398,181 398,181 398,180 398,180 398,180 398,179 398,179 398,179 398,179 398,179 398,179 399,179 399,179 399,179 399,179 399,179 399,179 399,180 399,180 399,180 399,180 399,181 399,181 399,181 400,181 400,181 400,181 400,181 400,182 400,182 400,182 400,182 400,183 400,183 400,183 400,183 401,183 401,183 401,184 401,184 401,184 401,184 401,184 401,184 401,185 401,185 401,185 401,185 401,185 402,185 402,185 402,186 402,186 402,186 402,186 402,186 402,186 402,186 402,186 402,186 402,187 402,187 403,187 403,187 403,187 403,187 403,187 403,186 403,186 403,186 403,187 403,187 403,187 403,187 403,187 404,187 404,187 404,187 404,187 404,187 404,187 404,187 404,188 404,188 404,188 404,188 404,188 404,188 405,189 405,189 405,189 405,189 405,189 405,190 405,190 405,190 405,190 405,190 405,190 405,190 405,191 406,191 406,191 406,191 406,191 406,191 406,191 406,191 406,191 406,191 406,191 406,191 406,191 406,191 407,191 407,191 407,191 407,191 407,191 407,191 407,192 407,192 407,192 407,192 407,192 407,192 407,192 408,192 408,192 408,193 408,193 408,193 408,193 408,193 408,193 408,193 408,193 408,193 408,193 408,193 409,193 409,193 409,193 409,194 409,194 409,194 409,194 409,194 409,195 409,195 409,195 409,195 409,195 410,195 410,195 410,196 410,196 410,196 410,196 410,196 410,196 410,196 410,197 410,197 410,197 410,197 411,197 411,197 411,197 411,198 411,198 411,198 411,198 411,198 411,198 411,199 411,199 411,199 411,199 412,199 412,199 412,199 412,199 412,199 412,199 412,200 412,200 412,200 412,200 412,200 412,200 412,200 413,201 413,201 413,201 413,201 413,201 413,201 413,201 413,201 413,202 413,202 413,202 413,202 413,202 414,203 414,203 414,203 414,204 414,204 414,204 414,204 414,204 414,205 414,205 414,205 414,205 414,205 415,205 415,205 415,205 415,205 415,205 415,205 415,205 415,205 415,205 415,205 415,205 415,206 415,206 416,206 416,206 416,206 416,206 416,206 416,206 416,206 416,206 416,206 416,206 416,205 416,205 416,204 417,204 417,203 417,203 417,202 417,202 417,202 417,201 417,201 417,200 417,200 417,199 417,199 417,199 418,198 418,198 418,198 418,197 418,197 418,197 418,196 418,196 418,196 418,195 418,195 418,194 418,194 419,194 419,193 419,193 419,192 419,192 419,191 419,191 419,191 419,190 419,190 419,190 419,189 419,189 420,189 420,188 420,188 420,188 420,188 420,187 420,187 420,187 420,187 420,186 420,186 420,186 420,186 421,186 421,185 421,185 421,185 421,185 421,185 421,184 421,184 421,184 421,184 421,184 421,184 421,184 422,184 422,184 422,183 422,183 422,183 422,183 422,183 422,183 422,183 422,183 422,183 422,183 423,183 423,183 423,183 423,183 423,183 423,183 423,183 423,183 423,183 423,183 423,183 423,183 423,183 424,184 424,184 424,184 424,184 424,184 424,184 424,184 424,184 424,184 424,184 424,184 424,184 424,184 425,183 425,183 425,183 425,183 425,183 425,184 425,184 425,184 425,184 425,184 425,184 425,185 425,185 426,186 426,186 426,187 426,187 426,188 426,188 426,189 426,189 426,189 426,190 426,190 426,190 426,191 427,191 427,191 427,192 427,192 427,193 427,194 427,194 427,194 427,195 427,195 427,196 427,196 427,197 428,197 428,198 428,198 428,199 428,199 428,200 428,200 428,201 428,201 428,202 428,202 428,203 428,203 429,204 429,204 429,204 429,205 429,205 429,205 429,206 429,206 429,207 429,207 429,207 429,208 429,208 430,208 430,209 430,209 430,209 430,209 430,209 430,209 430,209 430,208 430,208 430,208 430,208 430,208 431,208 431,208 431,208 431,208 431,208 431,208 431,208 431,208 431,208 431,208 431,208 431,208 431,208 432,209 432,209 432,210 432,210 432,210 432,211 432,211 432,211 432,211 432,212 432,212 432,212 432,213 433,213 433,213 433,213 433,214 433,214 433,214 433,215 433,215 433,216 433,216 433,217 433,217 433,217 434,218 434,218 434,219 434,219 434,219 434,219 434,220 434,220 434,220 434,220 434,220 434,220 434,220 435,220 435,220 435,220 435,220 435,220 435,220 435,220 435,219 435,219 435,218 435,218 435,218 435,217 436,217 436,216 436,215 436,215 436,214 436,214 436,213 436,213 436,213 436,212 436,212 436,211 436,211 437,210 437,210 437,209 437,209 437,209 437,208 437,208 437,207 437,207 437,206 437,206 437,205 437,205 438,205 438,205 438,204 438,205 438,205 438,205 438,205 438,205 438,205 438,205 438,205 438,205 438,205 439,205 439,205 439,206 439,206 439,206 439,206 439,207 439,207 439,207 439,208 439,208 439,209 439,209 440,210 440,210 440,211 440,211 440,212 440,212 440,212 440,213 440,213 440,213 440,214 440,214 440,214 441,215 441,215 441,215 441,216 441,216 441,216 441,217 441,217 441,217 441,217 441,218 441,218 441,218 442,219 442,219 442,219 442,220 442,220 442,220 442,221 442,221 442,221 442,221 442,221 442,221 442,221 443,222 443,221 443,221 443,221 443,221 443,220 443,219 443,219 443,219 443,218 443,218 443,217 443,217 444,216 444,216 444,215 444,215 444,215 444,214 444,214 444,213 444,213 444,212 444,212 444,212 444,211 445,211 445,211 445,210 445,210 445,210 445,209 445,209 445,209 445,208 445,208 445,208 445,208 446,207 446,207 446,207 446,206 446,206 446,206 446,206 446,205 446,205 446,205 446,205 446,204 446,204 447,204 447,203 447,203 447,202 447,202 447,202 447,201 447,201 447,201 447,201 447,200 447,200 447,200 448,200 448,200 448,200 448,200 448,199 448,199 448,199 448,199 448,199 448,198 448,198 448,198 448,198 449,197 449,197 449,197 449,196 449,196 449,196 449,196 449,196 449,196 449,196 449,196 449,196 449,196 450,196 450,196 450,196 450,196 450,196 450,196 450,196 450,197 450,197 450,197 450,197 450,198 450,198 451,198 451,199 451,199 451,199 451,200 451,200 451,200 451,201 451,201 451,201 451,202 451,202 451,202 452,203 452,203 452,203 452,203 452,204 452,204 452,204 452,204 452,204 452,204 452,205 452,205 452,205 453,205 453,206 453,206 453,206 453,206 453,206 453,206 453,206 453,206 453,206 453,206 453,206 453,206 454,206 454,207 454,207 454,207 454,207 454,207 454,207 454,207 454,208 454,208 454,208 454,208 454,208 455,208 455,209 455,209 455,209 455,209 455,209 455,210 455,210 455,210 455,210 455,211 455,211 455,211 456,211 456,211 456,211 456,211 456,211 456,212 456,212 456,212 456,212 456,212 456,212 456,212 456,212 457,212 457,212 457,212 457,212 457,213 457,213 457,213 457,213 457,213 457,213 457,214 457,214 457,214 458,214 458,214 458,214 458,214 458,215 458,215 458,215 458,215 458,215 458,215 458,216 458,216 458,216 459,216 459,216 459,216 459,217 459,217 459,217 459,217 459,217 459,217 459,218 459,218 459,218 459,218 460,218 460,218 460,219 460,219 460,219 460,219 460,220 460,220 460,220 460,221 460,221 460,221 460,222 461,222 461,222 461,222 461,222 461,222 461,222 461,222 461,222 461,221 461,221 461,220 461,220 461,220 462,219 462,219 462,219 462,219 462,219 462,219 462,218 462,218 462,218 462,218 462,218 462,218 462,217 463,217 463,217 463,217 463,217 463,217 463,217 463,217 463,217 463,217 463,217 463,217 463,217 463,217 464,216 464,216 464,215 464,215 464,215 464,214 464,214 464,213 464,213 464,212 464,212 464,211 464,211 465,211 465,211 465,210 465,210 465,210 465,209 465,209 465,209 465,209 465,209 465,208 465,208 465,208 466,208 466,208 466,208 466,208 466,208 466,207 466,207 466,207 466,207 466,207 466,207 466,207 466,206 467,206 467,206 467,206 467,206 467,206 467,206 467,206 467,206 467,205 467,205 467,205 467,205 467,204 468,204 468,204 468,204 468,203 468,203 468,203 468,202 468,202 468,202 468,202 468,201 468,201 469,201 469,201 469,201 469,200 469,200 469,200 469,200 469,200 469,199 469,199 469,199 469,199 469,199 470,198 470,198 470,198 470,198 470,198 470,198 470,198 470,198 470,198 470,198 470,198 470,198 470,198 471,198 471,198 471,199 471,199 471,199 471,199 471,199 471,199 471,199 471,199 471,199 471,200 471,200 472,200 472,200 472,200 472,201 472,201 472,201 472,201 472,202 472,202 472,202 472,202 472,202 472,202 473,203 473,203 473,203 473,203 473,203 473,204 473,204 473,204 473,205 473,205 473,205 473,205 473,205 474,205 474,206 474,206 474,206 474,206 474,207 474,207 474,207 474,207 474,207 474,208 474,208 474,208 475,208 475,208 475,208 475,208 475,209 475,209 475,209 475,210 475,210 475,210 475,210 475,210 475,211 476,211 476,211 476,211 476,211 476,212 476,212 476,213 476,213 476,213 476,213 476,213 476,213 476,214 477,214 477,214 477,214 477,215 477,215 477,215 477,215 477,215 477,216 477,216 477,216 477,216 477,216 478,216 478,217 478,217 478,218 478,218 478,218 478,218 478,218 478,219 478,219 478,219 478,219 478,219 479,219 479,219 479,219 479,219 479,219 479,219 479,219 479,219 479,219 479,219 479,219 479,219 479,219 480,218 480,218 480,218 480,218 480,218 480,218 480,217 480,217 480,217 480,217 480,217 480,217 480,217 481,216 481,216 481,216 481,216 481,216 481,216 481,216 481,216 481,216 481,216 481,216 481,217 481,217 482,217 482,217 482,217 482,217 482,217 482,217 482,217 482,216 482,216 482,216 482,217 482,217 482,217 483,217 483,217 483,218 483,218 483,218 483,218 483,218 483,219 483,219 483,219 483,219 483,219 483,220 484,220 484,220 484,220 484,221 484,221 484,222 484,222 484,223 484,224 484,225 484,225 484,226 484,226 485,226 485,226 485,226 485,225 485,225 485,225 485,225 485,224 485,224 485,224 485,224 485,224 485,224 486,224 486,224 486,224 486,224 486,225 486,225 486,225 486,225 486,225 486,226 486,226 486,226 486,226 487,226 487,225 487,225 487,225 487,225 487,225 487,226 487,226 487,226 487,226 487,226 487,226 487,226 488,225 488,225 488,224 488,224 488,224 488,223 488,223 488,223 488,223 488,223 488,222 488,222 488,222 489,222 489,221 489,221 489,221 489,220 489,220 489,220 489,220 489,219 489,219 489,219 489,219 489,219 490,218 490,218 490,218 490,218 490,218 490,218 490,218 490,218 490,218 490,218 490,218 490,218 491,219 491,219 491,219 491,219 491,219 491,220 491,220 491,220 491,220 491,221 491,221 491,222 491,222 492,222 492,222 492,223 492,223 492,223 492,223 492,224 492,224 492,224 492,224 492,225 492,225 492,225 493,225 493,225 493,225 493,225 493,225 493,225 493,225 493,225 493,225 493,225 493,225 493,225 493,225 494,225 494,225 494,225 494,225 494,225 494,225 494,225 494,225 494,225 494,226 494,226 494,226 494,226 495,226 495,226 495,226 495,227 495,227 495,227 495,227 495,227 495,227 495,227 495,227 495,227 495,228 496,228 496,228 496,228 496,228 496,228 496,228 496,228 496,228 496,228 496,228 496,228 496,229 496,229 497,229 497,229 497,229 497,229 497,229 497,229 497,229 497,229 497,230 497,230 497,230 497,230 497,230 498,230 498,230 498,231 498,231 498,231 498,232 498,232 498,232 498,232 498,232 498,232 498,232 498,233 499,233 499,233 499,233 499,233 499,233 499,233 499,234 499,234 499,234 499,234 499,235 499,235 499,235 500,235 500,235 500,236 500,236 500,236 500,236 500,237 500,237 500,237 500,237 500,238 500,238 500,239 501,239 501,239 501,240 501,240 501,240 501,240 501,241 501,241 501,241 501,241 501,242 501,242 501,242 502,243 502,243 502,244 502,244 502,244 502,245 502,245 502,245 502,246 502,246 502,246 502,246 502,247 503,247 503,247 503,247 503,248 503,248 503,248 503,248 503,249 503,249 503,249 503,250 503,250 503,251 504,251 504,252 504,253 504,253 504,254 504,255 504,256 504,256 504,257 504,257 504,258 504,258 504,258 505,259 505,259 505,259 505,259 505,260 505,260 505,260 505,260 505,260 505,260 505,260 505,260 505,260 506,261 506,261 506,261 506,261 506,262 506,262 506,261 506,261 506,261 506,261 506,261 506,261 506,261 507,261 507,261 507,261 507,261 507,261 507,261 507,261 507,262 507,262 507,261 507,261 507,261 507,260 508,260 508,260 508,259 508,259 508,259 508,258 508,258 508,258 508,257 508,257 508,257 508,257 508,257 509,257 509,257 509,257 509,257 509,257 509,257 509,257 509,257 509,257 509,257 509,257 509,257 509,257 510,257 510,257 510,257 510,257 510,257 510,257 510,257 510,257 510,257 510,256 510,256 510,256 510,255 511,255 511,255 511,255 511,254 511,254 511,254 511,253 511,253 511,252 511,252 511,252 511,251 511,251 512,251 512,251 512,251 512,251 512,250 512,250 512,250 512,250 512,250 512,250 512,250 512,250 512,250 513,250 513,250 513,250 513,251 513,251 513,251 513,252 513,252 513,252 513,252 513,253 513,253 514,253 514,254 514,254 514,255 514,256 514,256 514,256 514,257 514,257 514,257 514,258 514,258 514,258 515,259 515,259 515,259 515,259 515,260 515,260 515,260 515,260 515,260 515,260 515,260 515,261 515,261 516,261 516,261 516,261 516,261 516,261 516,261 516,261 516,261 516,260 516,260 516,260 516,260 516,259 517,259 517,259 517,258 517,258 517,258 517,257 517,257 517,256 517,256 517,255 517,255 517,254 517,254 518,254 518,254 518,254 518,253 518,253 518,253 518,253 518,252 518,252 518,252 518,252 518,252 518,252 519,252 519,251 519,251 519,251 519,251 519,251 519,251 519,250 519,250 519,250 519,250 519,250 519,249 520,249 520,249 520,249 520,249 520,249 520,249 520,249 520,249 520,249 520,249 520,249 520,249 520,249 521,249 521,249 521,249 521,249 521,249 521,250 521,250 521,250 521,250 521,251 521,251 521,251 521,252 522,252 522,253 522,253 522,253 522,254 522,254 522,254 522,255 522,255 522,255 522,255 522,255 522,255 523,256 523,256 523,256 523,256 523,256 523,256 523,256 523,257 523,257 523,257 523,257 523,257 523,257 524,257 524,257 524,257 524,257 524,257 524,257 524,256 524,256 524,256 524,256 524,255 524,255 524,255 525,255 525,255 525,255 525,255 525,255 525,255 525,255 525,255 525,255 525,255 525,254 525,254 525,255 526,255 526,255 526,255 526,255 526,255 526,255 526,255 526,255 526,255 526,255 526,255 526,255 526,254 527,254 527,254 527,254 527,254 527,254 527,254 527,254 527,253 527,253 527,253 527,253 527,253 527,253 528,253 528,252 528,252 528,252 528,252 528,251 528,251 528,251 528,251 528,251 528,251 528,251 528,251 529,251 529,251 529,250 529,250 529,250 529,250 529,249 529,249 529,249 529,248 529,248 529,248 529,247 530,247 530,247 530,247 530,246 530,246 530,246 530,245 530,245 530,245 530,244 530,244 530,244 530,244 531,243 531,243 531,242 531,241 531,241 531,240 531,240 531,240 531,239 531,239 531,238 531,238 531,238 532,237 532,237 532,237 532,237 532,237 532,236 532,236 532,236 532,236 532,236 532,235 532,235 532,235 533,235 533,235 533,234 533,234 533,234 533,234 533,234 533,234 533,234 533,234 533,234 533,234 533,234 534,234 534,234 534,234 534,234 534,233 534,233 534,233 534,233 534,233 534,233 534,233 534,233 534,233 535,234 535,234 535,234 535,234 535,234 535,234 535,235 535,235 535,235 535,236 535,236 535,236 536,237 536,237 536,237 536,238 536,238 536,238 536,238 536,239 536,239 536,239 536,239 536,240 536,240 537,240 537,240 537,241 537,241 537,241 537,241 537,242 537,242 537,242 537,242 537,243 537,243 537,243 538,243 538,243 538,243 538,243 538,243 538,243 538,243 538,243 538,243 538,243 538,243 538,244 538,244 539,244 539,245 539,245 539,245 539,246 539,246 539,246 539,246 539,246 539,246 539,246 539,246 539,245 540,245 540,245 540,246 540,246 540,246 540,246 540,246 540,247 540,247 540,247 540,248 540,248 540,248 541,248 541,249 541,249 541,249 541,249 541,250 541,250 541,250 541,250 541,250 541,250 541,251 541,251 542,251 542,251 542,251 542,251 542,251 542,251 542,251 542,250 542,250 542,251 542,250 542,250 542,251 543,251 543,251 543,251 543,251 543,251 543,251 543,251 543,251 543,251 543,251 543,252 543,252 543,252 544,252 544,252 544,252 544,252 544,252 544,253 544,253 544,253 544,253 544,253 544,253 544,253 544,253 545,253 545,253 545,253 545,253 545,253 545,253 545,254 545,254 545,254 545,254 545,255 545,255 545,255 546,256 546,255 546,256 546,256 546,257 546,257 546,258 546,258 546,258 546,259 546,259 546,259 546,260 547,260 547,260 547,261 547,261 547,262 547,263 547,263 547,264 547,264 547,265 547,265 547,265 547,266 548,266 548,266 548,266 548,266 548,266 548,266 548,267 548,267 548,267 548,268 548,268 548,268 548,269 549,269 549,269 549,270 549,270 549,270 549,270 549,271 549,271 549,271 549,271 549,271 549,271 549,271 550,272 550,272 550,272 550,272 550,272 550,272 550,273 550,273 550,273 550,273 550,273 550,273 550,273 551,273 551,273 551,273 551,273 551,273 551,273 551,273 551,273 551,273 551,272 551,272 551,272 551,272 552,272 552,272 552,272 552,271 552,271 552,271 552,271 552,271 552,271 552,271 552,271 552,271 552,271 553,270 553,271 553,271 553,271 553,271 553,271 553,270 553,270 553,270 553,270 553,270 553,270 553,270 554,270 554,270 554,270 554,270 554,270 554,270 554,270 554,270 554,269 554,269 554,269 554,269 554,269 555,269 555,269 555,269 555,269 555,269 555,269 555,269 555,270 555,270 555,270 555,271 555,272 555,272 556,273 556,274 556,274 556,275 556,275 556,275 556,275 556,275 556,275 556,275 556,275 556,274 556,274 557,274 557,274 557,274 557,274 557,274 557,274 557,274 557,274 557,274 557,275 557,275 557,275 557,275 558,276 558,276 558,277 558,277 558,277 558,278 558,278 558,278 558,279 558,279 558,279 558,279 559,279 559,279 559,279 559,278 559,278 559,278 559,278 559,278 559,278 559,278 559,278 559,278 559,278 560,278 560,278 560,278 560,279 560,279 560,280 560,280 560,281 560,281 560,281 560,282 560,282 560,282 561,282 561,282 561,282 561,283 561,283 561,283 561,283 561,283 561,283 561,283 561,284 561,284 561,285 562,285 562,285 562,285 562,285 562,285 562,286 562,285 562,285 562,285 562,285 562,285 562,285 562,285 563,285 563,285 563,285 563,285 563,285 563,285 563,285 563,285 563,285 563,286 563,286 563,286 563,285 564,285 564,285 564,285 564,285 564,285 564,286 564,286 564,286 564,286 564,286 564,287 564,287 564,287 565,287 565,287 565,287 565,287 565,287 565,287 565,287 565,287 565,287 565,287 565,287 565,287 565,287 566,287 566,287 566,287 566,287 566,286 566,286 566,286 566,286 566,286 566,285 566,285 566,285 566,286 567,286 567,286 567,286 567,286 567,286 567,286 567,287 567,287 567,287 567,287 567,287 567,287 567,288 568,288 568,288 568,288 568,288 568,288 568,288 568,288 568,288 568,288 568,288 568,288 568,288 568,288 569,288 569,288 569,288 569,288 569,287 569,287 569,287 569,287 569,287 569,287 569,287 569,286 569,286 570,286 570,285 570,285 570,285 570,285 570,285 570,285 570,285 570,286 570,286 570,286 570,286 570,286 571,287 571,287 571,287 571,288 571,288 571,288 571,289 571,289 571,289 571,289 571,289 571,290 571,290 572,290 572,290 572,290 572,290 572,290 572,291 572,291 572,291 572,291 572,291 572,292 572,292 572,292 573,292 573,292 573,292 573,293 573,292 573,292 573,292 573,293 573,293 573,293 573,293 573,293 573,293 574,293 574,293 574,293 574,293 574,292 574,292 574,292 574,292 574,292 574,292 574,291 574,291 574,291 575,290 575,290 575,289 575,289 575,288 575,288 575,288 575,287 575,287 575,287 575,287 575,287 575,287 576,286 576,286 576,286 576,286 576,286 576,286 576,286 576,286 576,285 576,285 576,285 576,285 576,285 577,284 577,284 577,284 577,284 577,284 577,284 577,284 577,284 577,283 577,283 577,283 577,284 577,284 578,284 578,284 578,284 578,284 578,284 578,284 578,284 578,284 578,284 578,284 578,284 578,284 578,285 579,285 579,285 579,285 579,285 579,285 579,285 579,285 579,285 579,286 579,286 579,286 579,286 579,286 580,286 580,286 580,286 580,286 580,286 580,286 580,287 580,287 580,287 580,287 580,287 580,287 580,287 581,286 581,286 581,286 581,286 581,286 581,286 581,286 581,285 581,285 581,285 581,285 581,285 582,284 582,284 582,284 582,284 582,284 582,284 582,284 582,284 582,284 582,284 582,284 582,284 582,284 583,285 583,285 583,285 583,285 583,285 583,285 583,285 583,286 583,286 583,286 583,286 583,286 583,286 584,286 584,286 584,287 584,287 584,287 584,288 584,288 584,289 584,289 584,289 584,290 584,290 584,290 585,291 585,291 585,292 585,292 585,293 585,293 585,294 585,294 585,295 585,295 585,296 585,296 585,297 586,297 586,298 586,298 586,298 586,299 586,299 586,299 586,300 586,300 586,300 586,300 586,300 586,300 587,301 587,301 587,301 587,301 587,301 587,302 587,303 587,303 587,303 587,303 587,302 587,302 587,302 588,301 588,301 588,300 588,300 588,299 588,299 588,299 588,298 588,297 588,297 588,297 588,296 588,296 589,296 589,295 589,295 589,295 589,295 589,295 589,294 589,294 589,294 589,294 589,294 589,293 589,293 590,293 590,292 590,292 590,292 590,292 590,293 590,293 590,293 590,293 590,293 590,294 590,294 590,294 591,295 591,295 591,296 591,296 591,296 591,297 591,297 591,297 591,298 591,298 591,299 591,299 591,300 592,300 592,300 592,300 592,300 592,301 592,301 592,301 592,301 592,301 592,301 592,301 592,301 592,301 593,301 593,300 593,300 593,300 593,300 593,300 593,300 593,300 593,300 593,300 593,300 593,300 593,300 594,299 594,299 594,299 594,298 594,298 594,298 594,297 594,297 594,297 594,296 594,296 594,296 594,295 595,295 595,295 595,295 595,294 595,294 595,294 595,294 595,293 595,293 595,293 595,293 595,293 595,293 596,293 596,293 596,294 596,294 596,294 596,293 596,293 596,293 596,293 596,293 596,293 596,292 596,292 597,292 597,291 597,291 597,291 597,290 597,290 597,289 597,289 597,289 597,289 597,288 597,288 597,288 598,288 598,287 598,287 598,287 598,287 598,287 598,287 598,287 598,287 598,287 598,287 598,287 598,287 599,287 599,287 599,286 599,286 599,286 599,286 599,286 599,286 599,286 599,287 599,287 599,287 599,287 600,287 600,286 600,286 600,286 600,286 600,286 600,286 600,286 600,286 600,286 600,286 600,286 600,286 601,286 601,286 601,286 601,286 601,286 601,286 601,286 601,286 601,286 601,286 601,286 601,286 601,286 602,286 602,285 602,285 602,285 602,285 602,285 602,285 602,285 602,285 602,284 602,284 602,284 602,284 603,284 603,284 603,284 603,284 603,284 603,284 603,284 603,285 603,285 603,285 603,285 603,285 604,285 604,284 604,284 604,284 604,284 604,284 604,284 604,284 604,284 604,284 604,284 604,284 604,284 605,284 605,284 605,284 605,284 605,284 605,284 605,284 605,284 605,283 605,283 605,283 605,283 605,283 606,282 606,282 606,282 606,282 606,282 606,282 606,281 606,281 606,282 606,282 606,282 606,282 606,282 607,282 607,282 607,282 607,281 607,281 607,281 607,281 607,281 607,281 607,281 607,281 607,281 607,281 608,281 608,281 608,281 608,281 608,281 608,281 608,280 608,280 608,280 608,280 608,280 608,280 608,280 609,280 609,279 609,279 609,279 609,279 609,279 609,279 609,279 609,279 609,278 609,278 609,278 609,278 610,278 610,278 610,278 610,278 610,278 610,278 610,278 610,279 610,279 610,279 610,279 610,279 610,279 611,279 611,280 611,280 611,280 611,280 611,280 611,280 611,280 611,281 611,281 611,281 611,281 611,281 612,281 612,281 612,282 612,282 612,282 612,282 612,282 612,282 612,282 612,283 612,283 612,283 612,283 613,283 613,283 613,284 613,284 613,284 613,284 613,284 613,285 613,285 613,285 613,285 613,285 613,285 614,285 614,285 614,286 614,286 614,286 614,286 614,286 614,286 614,286 614,287 614,287 614,287 614,287 615,287 615,288 615,288 615,288 615,288 615,288 615,288 615,288 615,288 615,288 615,288 615,288 615,288 616,288 616,288 616,289 616,289 616,289 616,289 616,290 616,290 616,290 616,291 616,291 616,291 616,291 617,292 617,292 617,292 617,292 617,291 617,291 617,291 617,291 617,291 617,291 617,291 617,291 617,291 618,291 618,291 618,291 618,291 618,291 618,291 618,291 618,291 618,291 618,291 618,291 618,291 618,292 619,292 619,292 619,292 619,293 619,293 619,293 619,293 619,293 619,293 619,293 619,293 619,293 619,293 620,293 620,293 620,293 620,292 620,292 620,292 620,292 620,292 620,292 620,292 620,293 620,293 620,293 621,293 621,293 621,293 621,293 621,294 621,294 621,294 621,294 621,293 621,293 621,293 621,292 621,292 622,291 622,291 622,291 622,290 622,290 622,290 622,290 622,290 622,290 622,290 622,290 622,289 622,289 623,289 623,289 623,289 623,289 623,289 623,289 623,289 623,289 623,289 623,289 623,289 623,289 623,289 624,289 624,289 624,289 624,289 624,289 624,289 624,289 624,289 624,290 624,290 624,290 624,290 624,290 625,290 625,291 625,291 625,291 625,291 625,291 625,292 625,292 625,292 625,292 625,292 625,292 625,292 626,292 626,292 626,292 626,292 626,292 626,292 626,292 626,292 626,292 626,292 626,292 626,292 627,292 627,292 627,292 627,292 627,292 627,292 627,293 627,293 627,293 627,293 627,293 627,293 627,293 628,292 628,293 628,293 628,293 628,293 628,294 628,294 628,294 628,295 628,295 628,295 628,295 628,296 629,296 629,296 629,296 629,296 629,296 629,296 629,297 629,297 629,297 629,297 629,297 629,297 629,297 630,297 630,297 630,298 630,298 630,298 630,298 630,298 630,298 630,298 630,298 630,298 630,298 630,298 631,297 631,297 631,297 631,297 631,297 631,297 631,297 631,297 631,297 631,297 631,297 631,297 631,297 632,297 632,297 632,296 632,296 632,296 632,296 632,296 632,295 632,295 632,295 632,295 632,295 632,295 633,295 633,295 633,296 633,296 633,296 633,296 633,297 633,297 633,297 633,298 633,298 633,298 633,298 634,299 634,299 634,299 634,299 634,299 634,300 634,300 634,300 634,300 634,300 634,300 634,300 634,301 635,301 635,301 635,301 635,301 635,301 635,302 635,302 635,302 635,302 635,303 635,303 635,303 635,303 636,303 636,303 636,304 636,304 636,304 636,304 636,304 636,304 636,305 636,305 636,305 636,305 636,305 637,305 637,305 637,305 637,306 637,306 637,306 637,306 637,306 637,306 637,306 637,306 637,307 637,307 638,307 638,307 638,307 638,308 638,308 638,308 638,308 638,308 638,309 638,309 638,309 638,309 638,309 639,309 639,310 639,310 639,310 639,310 639,310 639,310 639,310 639,310 639,310 639,310 639,311 639,311 640,311 640,311 640,311 640,311 640,311 640,311 640,311 640,311 640,311 640,311 640,311 640,311 640,311 641,311 641,311 641,311 641,312 641,312 641,312 641,312 641,312 641,312 641,312 641,313 641,313 641,313 642,313 642,314 642,314 642,314 642,315 642,315 642,315 642,316 642,316 642,316 642,317 642,317 642,317 643,318 643,318 643,318 643,319 643,319 643,319 643,320 643,320 643,320 643,321 643,321 643,321 643,322 644,322 644,322 644,322 644,322 644,322 644,322 644,321 644,321 644,321 644,321 644,320 644,320 644,320 645,320 645,320 645,320 645,320 645,320 645,320 645,320 645,320 645,321 645,321 645,321 645,321 645,321 646,322 646,322 646,322 646,322 646,322 646,322 646,322 646,322 646,322 646,322 646,322 646,323 646,323 647,323 647,323 647,323 647,324 647,324 647,324 647,324 647,325 647,325 647,325 647,325 647,326 647,326 648,326 648,326 648,326 648,326 648,327 648,327 648,327 648,327 648,327 648,328 648,328 648,328 649,328 649,328 649,328 649,328 649,328 649,328 649,329 649,329 649,329 649,329 649,329 649,329 649,329 650,329 650,330 650,330 650,330 650,330 650,330 650,330 650,330 650,331 650,331 650,331 650,331 650,331 651,331 651,332 651,332 651,332 651,332 651,332 651,332 651,332 651,332 651,332 651,332 651,332 651,332 652,332 652,332 652,332 652,332 652,332 652,332 652,332 652,332 652,332 652,332 652,332 652,333 652,333 653,333 653,333 653,333 653,333 653,333 653,333 653,333 653,333 653,333 653,333 653,333 653,334 653,334 654,334 654,334 654,334 654,334 654,334 654,334 654,334 654,334 654,334 654,334 654,334 654,334 654,334 655,334 655,334 655,334 655,334 655,335 655,335 655,335 655,335 655,335 655,335 655,335 655,335 655,335 656,335 656,335 656,335 656,335 656,335 656,335 656,335 656,336 656,336 656,336 656,336 656,336 656,336 657,336 657,336 657,336 657,336 657,336 657,336 657,336 657,336 657,336 657,336 657,336 657,336 657,336 658,336 658,336 658,336 658,336 658,336 658,336 658,336 658,336 658,336 658,336 658,336 658,336 658,336 659,336 659,336 659,336 659,336 659,336 659,336 659,336 659,336 659,336 659,336 659,336 659,336 659,336 660,336 660,336 660,336 660,336 660,336 660,336 660,336 660,337 660,337 660,337 660,337 660,337 660,337 661,337 661,337 661,337 661,338 661,338 661,338 661,338 661,338 661,338 661,338 661,338 661,339 661,339 662,339 662,339 662,339 662,339 662,339 662,339 662,340 662,340 662,340 662,340 662,340 662,341 662,341 663,341 663,341 663,341 663,342 663,342 663,342 663,342 663,342 663,343 663,343 663,343 663,343 663,343 664,343 664,343 664,343 664,344 664,344 664,344 664,344 664,344 664,344 664,344 664,345 664,345 664,345 665,345 665,345 665,345 665,345 665,345 665,345 665,345 665,345 665,345 665,345 665,345 665,345 665,345 666,346 666,345 666,345 666,345 666,345 666,345 666,345 666,344 666,344 666,344 666,344 666,344 666,344 667,344 667,344 667,344 667,343 667,343 667,343 667,343 667,343 667,343 667,343 667,343 667,342 667,342 668,342 668,342 668,342 668,342 668,342 668,342 668,343 668,343 668,343 668,343 668,343 668,343 668,343 669,343 669,343 669,343 669,343 669,343 669,343 669,343 669,343 669,343 669,343 669,343 669,343 669,342 670,342 670,342 670,342 670,342 670,342 670,342 670,342 670,342 670,342 670,342 670,342 670,342 670,342 671,342 671,342 671,342 671,342 671,342 671,342 671,342 671,342 671,342 671,342 671,342 671,342 672,342 672,342 672,342 672,342 672,342 672,342 672,342 672,342 672,342 672,342 672,342 672,342 672,342 673,342 673,342 673,342 673,342 673,342 673,342 673,342 673,342 673,342 673,342 673,342 673,342 673,342 674,342 674,342 674,342 674,342 674,342 674,342 674,342 674,342 674,342 674,342 674,342 674,342 674,342 675,342 675,342 675,342 675,342 675,342 675,342 675,342 675,342 675,342 675,343 675,343 675,343 675,343 676,343 676,343 676,343 676,343 676,343 676,343 676,343 676,343 676,343 676,343 676,343 676,343 676,343 677,343 677,343 677,343 677,343 677,343 677,343 677,343 677,343 677,343 677,343 677,343 677,343 677,343 678,343 678,343 678,343 678,343 678,343 678,343 678,343 678,343 678,343 678,343 678,343 678,343 678,343 679,343 679,343 679,343 679,343 679,343 679,343 679,343 679,343 679,343 679,342 679,342 679,342 679,342 680,342 680,342 680,342 680,342 680,342 680,342 680,343 680,343 680,343 680,343 680,343 680,343 680,343 681,343 681,343 681,343 681,343 681,343 681,343 681,343 681,343 681,343 681,343 681,343 681,343 681,343 682,343 682,343 682,343 682,343 682,343 682,343 682,343 682,343 682,343 682,343 682,343 682,343 682,343 683,343 683,343 683,343 683,343 683,342 683,343 683,343 683,343 683,343 683,343 683,343 683,343 683,343 684,342 684,342 684,342 684,342 684,342 684,342 684,342 684,342 684,342 684,342 684,343 684,343 684,343 685,343 685,343 685,342 685,342 685,342 685,342 685,343 685,343 685,343 685,343 685,343 685,343 685,343 686,343 686,343 686,342 686,342 686,342 686,342 686,342 686,342 686,342 686,342 686,342 686,342 686,342 687,342 687,342 687,342 687,342 687,342 687,342 687,342 687,342 687,342 687,342 687,342 687,342 687,342 688,342 688,341 688,341 688,341 688,341 688,341 688,341 688,341 688,341 688,341 688,341 688,341 688,341 689,341 689,341 689,341 689,341 689,341 689,341 689,341 689,341 689,341 689,340 689,340 689,340 689,340 690,340 690,340 690,340 690,340 690,340 690,340 690,340 690,340 690,340 690,339 690,339 690,339 690,339 691,339 691,339 691,339 691,339 691,339 691,339 691,339 691,339 691,339 691,338 691,338 691,338 691,338 692,338 692,338 692,338 692,338 692,338 692,338 692,338 692,338 692,338 692,338 692,337 692,337 692,337 693,337 693,337 693,337 693,337 693,337 693,337 693,337 693,337 693,336 693,336 693,336 693,336 693,336 694,336 694,336 694,336 694,336 694,336 694,335 694,335 694,335 694,335 694,335 694,335 694,335 695,335 695,335 695,334 695,334 695,334 695,334 695,334 695,334 695,334 695,334 695,334 695,333 695,333 696,333 696,333 696,333 696,333 696,333 696,333 696,333 696,333 696,332 696,332 696,332 696,332 696,332 697,332 697,332 697,332 697,332 697,332 697,332 697,332 697,332 697,332 697,331 697,331 697,331 697,331 698,331 698,331 698,331 698,331 698,331 698,331 698,330 698,331 698,331 698,331 698,331 698,330 698,330 699,330 699,330 699,330 699,330 699,330 699,330 699,330 699,330 699,329 699,329 699,329 699,329 699,329 700,329 700,329 700,329 700,329 700,328 700,328 700,328 700,328 700,328 700,328 700,328 700,328 700,328 701,327 701,327 701,327 701,327 701,327 701,327 701,327 701,327 701,327 701,326 701,326 701,326 701,326 702,326 702,326 702,326 702,325 702,325 702,325 702,325 702,325 702,325 702,325 702,325 702,325 702,325 703,324 703,324 703,324 703,324 703,324 703,324 703,324 703,324 703,324 703,323 703,323 703,323 703,323 704,323 704,323 704,323 704,322 704,322 704,322 704,322 704,322 704,322 704,322 704,322 704,322 704,321 705,321 705,321 705,321 705,321 705,321 705,321 705,321 705,321 705,320 705,320 705,320 705,320 705,320 706,320 706,320 706,320 706,320 706,320 706,319 706,319 706,319 706,319 706,319 706,319 706,319 706,319 707,319 707,318 707,319 707,319 707,319 707,319 707,319 707,319 707,319 707,319 707,319 707,319 707,318 708,318 708,318 708,318 708,318 708,318 708,318 708,318 708,318 708,318 708,317 708,316 708,316 708,316 709,316 709,316 709,316 709,315 709,315 709,315 709,314 709,314 709,314 709,313 709,313 709,313 709,312 710,312 710,312 710,312 710,311 710,311 710,311 710,310 710,310 710,310 710,310 710,310 710,309 710,309 711,309 711,308 711,308 711,308 711,308 711,307 711,307 711,307 711,307 711,306 711,306 711,306 711,306 712,306 712,306 712,306 712,305 712,305 712,305 712,304 712,304 712,304 712,304 712,304 712,304 712,304 713,304 713,304 713,304 713,304 713,304 713,304 713,304 713,304 713,304 713,304 713,304 713,304 713,304 714,304 714,304 714,304 714,304 714,304 714,304 714,304 714,304 714,304 714,304 714,304 714,304 714,304 715,304 715,304 715,304 715,304 715,304 715,304 715,304 715,304 715,304 715,303 715,303 715,303 715,302 716,302 716,302 716,302 716,302 716,301 716,301 716,301 716,301 716,301 716,300 716,300 716,300 717,300 717,300 717,299 717,299 717,299 717,299 717,299 717,298 717,298 717,298 717,298 717,298 717,298 718,298 718,298 718,298 718,298 718,298 718,298 718,298 718,298 718,298 718,298 718,298 718,298 718,298 719,298 719,298 719,298 719,298 719,298 719,298 719,298 719,298 719,298 719,298 719,298 719,298 719,299 720,299 720,299 720,299 720,299 720,299 720,299 720,299 720,299 720,299 720,299 720,299 720,299 720,300 721,300 721,300 721,300 721,300 721,300 721,300 721,300 721,300 721,300 721,300 721,300 721,300 721,300 722,301 722,301 722,301 722,301 722,301 722,301 722,301 722,301 722,301 722,301 722,301 722,302 722,302 723,302 723,302 723,302 723,302 723,302 723,302 723,302 723,302 723,302 723,302 723,303 723,303 723,303 724,303 724,303 724,303 724,303 724,303 724,303 724,303 724,303 724,303 724,303 724,303 724,303 724,303 725,304 725,304 725,304 725,304 725,304 725,304 725,304 725,304 725,304 725,304 725,304 725,304 725,304 726,304 726,304 726,304 726,304 726,305 726,305 726,305 726,305 726,305 726,305 726,305 726,305 726,305 727,305 727,305 727,305 727,305 727,305 727,305 727,305 727,305 727,305 727,305 727,305 727,305 727,305 728,305 728,306 728,306 728,306 728,306 728,306 728,306 728,306 728,306 728,306 728,306 728,306 728,306 729,306 729,306 729,306 729,306 729,306 729,306 729,306 729,306 729,306 729,306 729,307 729,307 729,307 730,307 730,307 730,307 730,307 730,307 730,307 730,307 730,307 730,307 730,307 730,307 730,307 730,307 731,307 731,307 731,307 731,307 731,307 731,307 731,307 731,307 731,307 731,307 731,307 731,307 731,307 732,307 732,307 732,307 732,307 732,307 732,307 732,307 732,307 732,307 732,307 732,308 732,308 732,308 733,308 733,308 733,308 733,308 733,308 733,308 733,308 733,308 733,308 733,308 733,308 733,308 733,308 734,308 734,308 734,308 734,308 734,308 734,308 734,308 734,308 734,308 734,308 734,309 734,309 734,309 735,309 735,309 735,309 735,309 735,309 735,309 735,309 735,309 735,309 735,309 735,309 735,309 735,309 736,309 736,309 736,309 736,309 736,309 736,309 736,310 736,310 736,310 736,310 736,310 " vector-effect="non-scaling-stroke"></polyline>
</g></svg>