<?xml version="1.0" encoding="UTF-8" standalone="no"?><svg width="282.222mm" height="141.111mm" xmlns="http://www.w3.org/2000/svg" xmlns:xlink="http://www.w3.org/1999/xlink"  version="1.2" baseProfile="tiny"><g fill="none" stroke="#ff0000" stroke-linecap="round" stroke-linejoin="round" stroke-opacity="1" stroke-width="1.5" transform="matrix(1,0,0,1,0,0)">
<polyline fill="none" points="56,305 56,305 56,305 56,304 57,304 57,304 57,304 57,304 57,304 57,304 57,304 57,304 57,303 57,303 57,303 57,302 57,302 58,302 58,302 58,302 58,301 58,301 58,301 58,301 58,301 58,300 58,300 58,300 58,299 58,299 59,299 59,299 59,299 59,299 59,299 59,299 59,299 59,299 59,299 59,299 59,299 59,299 60,299 60,298 60,298 60,298 60,298 60,298 60,298 60,298 60,298 60,298 60,298 60,298 60,297 61,297 61,297 61,297 61,297 61,297 61,297 61,297 61,297 61,297 61,296 61,296 61,296 61,295 62,295 62,295 62,295 62,295 62,295 62,295 62,294 62,294 62,294 62,294 62,294 62,294 62,293 63,293 63,293 63,293 63,292 63,292 63,292 63,292 63,292 63,291 63,291 63,291 63,290 63,290 64,290 64,289 64,289 64,289 64,288 64,288 64,288 64,287 64,287 64,287 64,287 64,286 64,286 65,286 65,285 65,285 65,285 65,285 65,285 65,285 65,284 65,284 65,284 65,284 65,284 65,284 66,284 66,284 66,283 66,283 66,283 66,283 66,283 66,283 66,283 66,283 66,283 66,284 66,284 67,284 67,284 67,285 67,285 67,285 67,286 67,286 67,286 67,287 67,287 67,287 67,287 67,288 68,288 68,288 68,288 68,289 68,289 68,289 68,290 68,290 68,290 68,290 68,291 68,291 68,291 69,292 69,292 69,292 69,292 69,292 69,293 69,293 69,293 69,293 69,294 69,294 69,294 69,294 70,295 70,295 70,295 70,295 70,295 70,295 70,295 70,296 70,296 70,296 70,296 70,296 70,296 71,296 71,296 71,296 71,296 71,296 71,296 71,296 71,296 71,296 71,296 71,296 71,296 71,296 72,295 72,295 72,295 72,295 72,295 72,295 72,295 72,295 72,295 72,295 72,295 72,295 72,295 73,295 73,295 73,295 73,295 73,295 73,295 73,295 73,294 73,294 73,294 73,294 73,294 73,294 74,294 74,295 74,295 74,295 74,294 74,294 74,294 74,294 74,294 74,294 74,293 74,293 74,293 75,293 75,293 75,292 75,292 75,292 75,292 75,292 75,291 75,291 75,291 75,291 75,291 75,290 76,290 76,290 76,290 76,289 76,289 76,289 76,289 76,288 76,288 76,287 76,287 76,287 76,287 77,286 77,286 77,286 77,286 77,286 77,285 77,285 77,285 77,284 77,284 77,284 77,283 77,283 78,283 78,283 78,283 78,283 78,282 78,282 78,282 78,282 78,282 78,282 78,282 78,281 78,281 79,281 79,281 79,281 79,281 79,280 79,280 79,280 79,280 79,280 79,280 79,279 79,279 79,279 80,279 80,279 80,279 80,279 80,279 80,279 80,279 80,279 80,278 80,278 80,278 80,278 81,278 81,278 81,278 81,278 81,278 81,277 81,277 81,277 81,277 81,276 81,276 81,276 81,276 82,276 82,276 82,275 82,275 82,275 82,275 82,275 82,275 82,274 82,274 82,274 82,274 82,274 83,274 83,274 83,273 83,273 83,273 83,273 83,273 83,273 83,273 83,273 83,273 83,273 83,273 84,274 84,274 84,274 84,274 84,275 84,275 84,275 84,276 84,276 84,276 84,277 84,277 84,277 85,278 85,278 85,278 85,278 85,278 85,279 85,279 85,279 85,279 85,279 85,279 85,279 85,280 86,279 86,280 86,280 86,280 86,280 86,280 86,280 86,280 86,280 86,280 86,280 86,280 86,280 87,280 87,280 87,280 87,280 87,280 87,280 87,280 87,280 87,280 87,280 87,280 87,280 87,279 88,279 88,279 88,279 88,279 88,279 88,279 88,279 88,278 88,278 88,278 88,278 88,278 88,278 89,278 89,278 89,277 89,277 89,277 89,277 89,277 89,276 89,276 89,276 89,276 89,276 89,275 90,275 90,275 90,275 90,275 90,275 90,274 90,274 90,274 90,274 90,274 90,273 90,273 90,273 91,273 91,273 91,273 91,273 91,273 91,273 91,274 91,274 91,274 91,274 91,275 91,275 91,275 92,275 92,275 92,276 92,276 92,276 92,277 92,277 92,277 92,278 92,278 92,278 92,279 92,279 93,279 93,280 93,280 93,280 93,280 93,281 93,281 93,281 93,281 93,282 93,282 93,282 93,282 94,282 94,283 94,283 94,283 94,283 94,283 94,284 94,284 94,284 94,284 94,284 94,284 94,283 95,283 95,283 95,283 95,283 95,283 95,283 95,283 95,282 95,282 95,282 95,282 95,282 95,282 96,281 96,281 96,281 96,281 96,281 96,281 96,280 96,280 96,280 96,280 96,280 96,280 96,279 97,279 97,279 97,279 97,279 97,279 97,278 97,278 97,278 97,278 97,278 97,278 97,278 97,277 98,277 98,277 98,277 98,277 98,277 98,276 98,276 98,276 98,276 98,276 98,276 98,276 98,276 99,275 99,275 99,275 99,275 99,275 99,275 99,274 99,274 99,274 99,274 99,274 99,274 99,274 100,274 100,273 100,273 100,273 100,273 100,273 100,272 100,273 100,273 100,273 100,273 100,273 100,273 101,273 101,273 101,273 101,273 101,273 101,273 101,272 101,272 101,272 101,272 101,272 101,272 102,272 102,272 102,273 102,273 102,273 102,273 102,273 102,273 102,273 102,273 102,273 102,273 102,273 103,274 103,274 103,274 103,274 103,274 103,274 103,274 103,274 103,274 103,274 103,274 103,274 103,274 104,274 104,274 104,274 104,274 104,274 104,275 104,275 104,275 104,275 104,275 104,275 104,275 104,275 105,275 105,275 105,275 105,275 105,275 105,275 105,275 105,275 105,275 105,275 105,275 105,275 105,275 106,275 106,275 106,275 106,275 106,275 106,275 106,275 106,275 106,275 106,275 106,275 106,275 106,275 107,275 107,276 107,276 107,275 107,275 107,276 107,276 107,276 107,276 107,276 107,276 107,276 107,276 108,276 108,276 108,276 108,276 108,276 108,276 108,277 108,277 108,277 108,277 108,277 108,277 108,277 109,277 109,277 109,277 109,277 109,277 109,278 109,277 109,277 109,277 109,277 109,277 109,277 109,277 110,277 110,278 110,278 110,277 110,277 110,277 110,277 110,277 110,278 110,277 110,278 110,278 110,278 111,278 111,278 111,278 111,278 111,278 111,278 111,278 111,278 111,278 111,278 111,278 111,278 111,278 112,278 112,278 112,278 112,278 112,277 112,277 112,277 112,276 112,276 112,276 112,275 112,275 112,275 113,275 113,275 113,275 113,274 113,274 113,274 113,274 113,274 113,274 113,274 113,274 113,274 113,273 114,273 114,273 114,273 114,274 114,274 114,274 114,274 114,274 114,274 114,274 114,274 114,274 114,274 115,274 115,274 115,275 115,275 115,275 115,275 115,275 115,275 115,275 115,276 115,276 115,276 115,276 116,276 116,276 116,276 116,276 116,276 116,276 116,276 116,276 116,276 116,276 116,276 116,276 116,276 117,276 117,276 117,276 117,276 117,276 117,276 117,276 117,276 117,276 117,276 117,276 117,276 117,275 118,275 118,275 118,275 118,275 118,275 118,274 118,274 118,274 118,274 118,274 118,274 118,273 118,273 119,273 119,273 119,273 119,273 119,273 119,273 119,273 119,273 119,273 119,273 119,273 119,273 119,273 120,273 120,273 120,273 120,273 120,273 120,273 120,273 120,273 120,273 120,273 120,273 120,273 120,272 121,272 121,272 121,272 121,272 121,273 121,273 121,273 121,273 121,273 121,273 121,273 121,273 121,273 122,273 122,273 122,273 122,273 122,273 122,273 122,273 122,273 122,273 122,273 122,273 122,273 122,273 123,273 123,273 123,273 123,273 123,273 123,272 123,272 123,272 123,272 123,272 123,272 123,272 124,272 124,272 124,273 124,273 124,273 124,273 124,273 124,273 124,273 124,273 124,273 124,273 124,273 125,273 125,273 125,273 125,273 125,273 125,273 125,273 125,273 125,273 125,273 125,273 125,272 125,272 126,272 126,272 126,271 126,271 126,271 126,271 126,271 126,271 126,270 126,270 126,270 126,270 126,269 127,269 127,269 127,268 127,268 127,268 127,267 127,267 127,267 127,267 127,266 127,266 127,266 127,265 128,265 128,265 128,265 128,265 128,265 128,264 128,264 128,263 128,263 128,263 128,263 128,262 128,262 129,262 129,262 129,261 129,261 129,261 129,261 129,261 129,261 129,260 129,260 129,260 129,259 129,259 130,259 130,258 130,258 130,258 130,258 130,257 130,257 130,257 130,256 130,256 130,256 130,255 130,255 131,254 131,254 131,254 131,253 131,253 131,253 131,252 131,252 131,251 131,251 131,251 131,250 131,250 132,249 132,249 132,248 132,248 132,247 132,247 132,246 132,246 132,245 132,245 132,245 132,244 132,244 133,244 133,244 133,243 133,243 133,243 133,242 133,242 133,242 133,241 133,241 133,241 133,240 133,240 134,240 134,239 134,239 134,239 134,238 134,238 134,238 134,237 134,237 134,237 134,237 134,237 134,237 135,237 135,237 135,237 135,237 135,237 135,237 135,238 135,238 135,238 135,238 135,238 135,238 135,239 136,239 136,239 136,239 136,240 136,240 136,240 136,240 136,240 136,240 136,240 136,240 136,240 136,240 137,241 137,241 137,241 137,241 137,241 137,242 137,242 137,242 137,242 137,242 137,242 137,242 137,242 138,241 138,241 138,241 138,240 138,240 138,240 138,239 138,239 138,239 138,239 138,239 138,238 138,238 139,238 139,238 139,238 139,238 139,238 139,238 139,238 139,238 139,237 139,237 139,237 139,238 139,238 140,238 140,238 140,238 140,238 140,237 140,237 140,237 140,236 140,236 140,235 140,235 140,234 140,234 141,233 141,233 141,233 141,232 141,232 141,231 141,231 141,231 141,230 141,230 141,229 141,229 141,228 142,228 142,228 142,227 142,227 142,227 142,227 142,227 142,226 142,226 142,226 142,225 142,225 142,225 143,225 143,225 143,224 143,224 143,224 143,224 143,224 143,224 143,224 143,224 143,224 143,224 143,224 144,224 144,224 144,224 144,224 144,223 144,223 144,223 144,223 144,223 144,222 144,222 144,222 145,222 145,221 145,221 145,220 145,220 145,220 145,220 145,219 145,219 145,219 145,219 145,218 145,218 146,218 146,217 146,217 146,216 146,215 146,215 146,214 146,213 146,212 146,211 146,210 146,208 146,207 147,206 147,205 147,204 147,203 147,202 147,201 147,201 147,200 147,199 147,198 147,198 147,197 147,197 148,196 148,195 148,195 148,195 148,194 148,194 148,194 148,193 148,193 148,193 148,193 148,193 148,193 149,193 149,193 149,193 149,193 149,193 149,193 149,193 149,193 149,194 149,194 149,195 149,196 149,197 150,198 150,199 150,199 150,200 150,201 150,202 150,203 150,204 150,205 150,206 150,206 150,207 150,207 151,208 151,208 151,209 151,209 151,209 151,209 151,210 151,209 151,209 151,209 151,209 151,208 151,208 152,207 152,206 152,205 152,204 152,204 152,203 152,202 152,202 152,201 152,200 152,200 152,200 152,199 153,199 153,200 153,198 153,198 153,198 153,197 153,197 153,197 153,197 153,196 153,196 153,196 153,196 154,196 154,196 154,197 154,197 154,197 154,197 154,197 154,197 154,197 154,197 154,197 154,197 154,197 155,197 155,197 155,198 155,198 155,198 155,198 155,198 155,197 155,197 155,197 155,197 155,197 155,197 156,197 156,197 156,197 156,196 156,196 156,196 156,196 156,197 156,197 156,197 156,198 156,198 156,198 157,199 157,199 157,200 157,200 157,201 157,201 157,201 157,201 157,202 157,202 157,202 157,203 157,203 158,203 158,204 158,204 158,204 158,204 158,204 158,204 158,205 158,205 158,205 158,205 158,204 158,204 159,204 159,204 159,204 159,203 159,203 159,203 159,204 159,204 159,204 159,205 159,205 159,205 159,205 160,206 160,206 160,206 160,207 160,207 160,207 160,207 160,207 160,208 160,208 160,208 160,208 160,208 161,209 161,210 161,211 161,212 161,213 161,214 161,215 161,216 161,217 161,219 161,220 161,222 161,223 162,225 162,226 162,227 162,228 162,229 162,229 162,229 162,229 162,228 162,227 162,226 162,225 162,223 163,222 163,221 163,219 163,218 163,216 163,215 163,215 163,214 163,213 163,213 163,213 163,212 163,212 164,212 164,212 164,212 164,212 164,212 164,212 164,212 164,212 164,212 164,212 164,213 164,213 164,213 165,213 165,213 165,213 165,213 165,213 165,213 165,213 165,213 165,213 165,214 165,214 165,214 166,215 166,216 166,217 166,218 166,219 166,220 166,221 166,222 166,223 166,224 166,226 166,227 166,228 167,229 167,230 167,232 167,233 167,233 167,234 167,235 167,236 167,236 167,236 167,236 167,236 167,236 168,237 168,237 168,237 168,237 168,237 168,237 168,237 168,237 168,237 168,237 168,237 168,237 168,237 169,236 169,236 169,236 169,235 169,235 169,234 169,234 169,233 169,233 169,232 169,231 169,229 169,228 170,227 170,225 170,224 170,222 170,221 170,220 170,218 170,217 170,216 170,216 170,215 170,214 170,214 171,213 171,212 171,211 171,211 171,210 171,210 171,209 171,209 171,209 171,208 171,208 171,208 171,208 172,207 172,207 172,207 172,207 172,206 172,206 172,206 172,206 172,207 172,207 172,208 172,208 172,208 173,208 173,208 173,208 173,208 173,208 173,208 173,208 173,208 173,208 173,208 173,208 173,207 173,207 174,207 174,208 174,209 174,209 174,210 174,211 174,212 174,212 174,213 174,213 174,213 174,213 174,213 175,214 175,214 175,214 175,214 175,215 175,215 175,216 175,216 175,217 175,218 175,218 175,219 175,219 176,219 176,220 176,220 176,219 176,219 176,219 176,218 176,218 176,218 176,217 176,217 176,217 176,217 177,217 177,216 177,216 177,216 177,216 177,216 177,217 177,217 177,217 177,217 177,217 177,217 177,218 178,218 178,218 178,218 178,218 178,218 178,219 178,219 178,219 178,219 178,218 178,218 178,218 178,218 179,218 179,218 179,218 179,218 179,218 179,218 179,219 179,219 179,219 179,219 179,220 179,220 179,220 180,221 180,221 180,222 180,223 180,223 180,224 180,225 180,226 180,226 180,227 180,228 180,229 180,229 181,230 181,230 181,231 181,231 181,232 181,232 181,232 181,232 181,232 181,232 181,232 181,232 181,232 182,232 182,231 182,231 182,231 182,230 182,229 182,229 182,228 182,227 182,225 182,224 182,223 182,222 183,222 183,221 183,221 183,220 183,219 183,219 183,218 183,218 183,217 183,216 183,216 183,215 183,215 184,214 184,213 184,213 184,213 184,212 184,212 184,211 184,211 184,211 184,211 184,210 184,210 184,210 185,210 185,210 185,210 185,210 185,210 185,210 185,210 185,210 185,211 185,211 185,211 185,212 185,212 186,212 186,213 186,213 186,214 186,214 186,215 186,215 186,216 186,216 186,217 186,218 186,218 187,219 187,220 187,221 187,222 187,223 187,223 187,224 187,224 187,225 187,226 187,226 187,227 187,228 188,228 188,229 188,229 188,230 188,229 188,229 188,229 188,229 188,228 188,227 188,226 188,225 188,225 189,224 189,223 189,222 189,222 189,221 189,220 189,219 189,219 189,218 189,218 189,217 189,217 189,216 190,216 190,216 190,215 190,215 190,215 190,215 190,215 190,215 190,215 190,215 190,215 190,215 190,215 191,215 191,216 191,216 191,216 191,217 191,217 191,218 191,219 191,219 191,220 191,220 191,221 191,222 192,222 192,223 192,224 192,225 192,226 192,226 192,227 192,228 192,229 192,229 192,230 192,231 192,231 193,232 193,232 193,233 193,233 193,233 193,233 193,233 193,232 193,232 193,231 193,231 193,230 193,230 194,229 194,228 194,228 194,227 194,227 194,226 194,225 194,225 194,224 194,224 194,223 194,223 194,222 195,221 195,221 195,221 195,220 195,220 195,219 195,219 195,218 195,218 195,217 195,217 195,216 195,216 196,215 196,215 196,215 196,214 196,214 196,213 196,213 196,213 196,213 196,212 196,212 196,212 196,212 197,212 197,212 197,212 197,212 197,212 197,212 197,212 197,212 197,212 197,212 197,212 197,213 197,213 198,213 198,213 198,213 198,213 198,213 198,214 198,214 198,214 198,215 198,215 198,216 198,216 198,217 199,217 199,218 199,218 199,219 199,219 199,220 199,221 199,221 199,222 199,223 199,223 199,224 199,225 200,226 200,226 200,227 200,228 200,228 200,229 200,230 200,230 200,230 200,230 200,231 200,231 200,230 201,230 201,229 201,229 201,228 201,228 201,227 201,226 201,226 201,225 201,224 201,224 201,223 201,223 202,222 202,222 202,221 202,221 202,220 202,220 202,219 202,219 202,218 202,218 202,217 202,217 202,216 203,216 203,215 203,215 203,214 203,214 203,213 203,213 203,213 203,212 203,212 203,212 203,211 203,211 204,211 204,211 204,210 204,210 204,209 204,209 204,209 204,208 204,208 204,208 204,207 204,207 204,207 205,207 205,206 205,206 205,206 205,206 205,205 205,205 205,205 205,205 205,204 205,204 205,204 205,204 206,203 206,203 206,203 206,203 206,203 206,203 206,203 206,202 206,202 206,202 206,202 206,202 206,202 207,201 207,201 207,201 207,201 207,200 207,200 207,200 207,200 207,200 207,199 207,199 207,199 207,199 208,198 208,198 208,198 208,198 208,197 208,197 208,197 208,197 208,196 208,196 208,196 208,196 209,196 209,196 209,196 209,196 209,196 209,196 209,196 209,196 209,196 209,197 209,197 209,198 209,198 210,198 210,199 210,199 210,199 210,199 210,199 210,199 210,199 210,199 210,199 210,199 210,199 210,198 211,198 211,198 211,198 211,198 211,198 211,198 211,197 211,197 211,196 211,196 211,196 211,196 211,196 212,196 212,196 212,195 212,195 212,195 212,195 212,195 212,196 212,196 212,196 212,196 212,196 212,196 213,196 213,196 213,195 213,195 213,195 213,194 213,193 213,194 213,194 213,195 213,195 213,195 213,196 214,196 214,196 214,196 214,196 214,196 214,196 214,196 214,197 214,197 214,197 214,197 214,197 214,197 215,197 215,198 215,198 215,199 215,199 215,199 215,200 215,200 215,200 215,200 215,200 215,199 215,199 216,199 216,199 216,199 216,198 216,198 216,198 216,198 216,198 216,198 216,197 216,197 216,196 216,196 217,196 217,195 217,195 217,194 217,194 217,193 217,193 217,193 217,192 217,191 217,191 217,190 217,189 218,189 218,188 218,188 218,187 218,187 218,187 218,187 218,186 218,186 218,186 218,186 218,186 218,186 219,186 219,186 219,186 219,186 219,186 219,186 219,186 219,186 219,186 219,186 219,185 219,185 219,185 220,185 220,185 220,185 220,185 220,185 220,185 220,185 220,185 220,185 220,185 220,185 220,185 220,185 221,185 221,185 221,185 221,185 221,185 221,185 221,185 221,185 221,186 221,186 221,186 221,186 221,186 222,186 222,186 222,186 222,186 222,186 222,186 222,186 222,186 222,186 222,186 222,186 222,186 222,186 223,186 223,187 223,187 223,187 223,187 223,187 223,188 223,188 223,188 223,189 223,189 223,189 223,190 224,189 224,189 224,189 224,188 224,188 224,188 224,188 224,187 224,187 224,187 224,187 224,186 224,186 225,186 225,186 225,186 225,186 225,186 225,186 225,186 225,186 225,186 225,186 225,186 225,186 225,186 226,186 226,186 226,186 226,186 226,186 226,186 226,186 226,186 226,186 226,187 226,187 226,187 226,187 227,187 227,187 227,187 227,188 227,188 227,188 227,188 227,188 227,189 227,189 227,189 227,189 227,189 228,189 228,190 228,190 228,190 228,190 228,190 228,190 228,190 228,191 228,191 228,191 228,191 228,191 229,191 229,191 229,191 229,191 229,191 229,191 229,191 229,191 229,191 229,191 229,191 229,191 230,191 230,192 230,192 230,192 230,192 230,193 230,193 230,193 230,193 230,193 230,193 230,193 230,194 231,194 231,194 231,194 231,194 231,194 231,194 231,194 231,194 231,194 231,195 231,195 231,195 231,195 232,195 232,195 232,195 232,195 232,195 232,195 232,195 232,195 232,195 232,196 232,196 232,196 232,196 233,196 233,196 233,196 233,196 233,196 233,196 233,195 233,195 233,195 233,195 233,196 233,195 233,195 234,195 234,196 234,196 234,195 234,195 234,195 234,195 234,195 234,195 234,195 234,195 234,194 234,194 235,194 235,194 235,194 235,194 235,194 235,194 235,194 235,194 235,194 235,194 235,194 235,194 235,194 236,193 236,193 236,193 236,193 236,193 236,193 236,193 236,193 236,193 236,193 236,193 236,193 236,193 237,193 237,192 237,192 237,192 237,192 237,192 237,191 237,191 237,191 237,191 237,191 237,191 237,191 238,191 238,191 238,191 238,191 238,191 238,191 238,191 238,191 238,191 238,191 238,191 238,192 238,192 239,192 239,192 239,192 239,192 239,192 239,192 239,192 239,192 239,192 239,192 239,192 239,193 239,193 240,193 240,193 240,193 240,193 240,193 240,194 240,194 240,194 240,194 240,194 240,195 240,195 240,195 241,195 241,195 241,195 241,196 241,196 241,196 241,196 241,196 241,197 241,197 241,197 241,197 241,197 242,197 242,198 242,198 242,198 242,198 242,198 242,198 242,198 242,198 242,199 242,199 242,199 242,199 243,199 243,199 243,199 243,199 243,199 243,199 243,199 243,199 243,199 243,199 243,199 243,199 243,199 244,199 244,199 244,200 244,200 244,200 244,200 244,200 244,200 244,200 244,200 244,200 244,200 244,200 245,200 245,200 245,200 245,200 245,200 245,200 245,199 245,199 245,199 245,199 245,199 245,199 245,199 246,199 246,199 246,199 246,199 246,199 246,199 246,199 246,200 246,200 246,200 246,200 246,201 246,202 247,204 247,205 247,205 247,205 247,204 247,204 247,202 247,200 247,198 247,196 247,195 247,194 247,193 248,192 248,192 248,191 248,191 248,190 248,190 248,190 248,190 248,190 248,190 248,190 248,190 248,190 249,190 249,189 249,189 249,189 249,189 249,189 249,189 249,188 249,188 249,187 249,186 249,186 249,185 250,184 250,183 250,183 250,185 250,187 250,190 250,191 250,192 250,194 250,195 250,197 250,198 251,199 251,199 251,200 251,200 251,200 251,200 251,200 251,200 251,200 251,199 251,199 251,199 251,199 252,199 252,199 252,199 252,199 252,198 252,198 252,198 252,198 252,198 252,198 252,198 252,198 252,198 253,197 253,197 253,197 253,197 253,197 253,197 253,196 253,196 253,196 253,196 253,196 253,195 253,195 254,195 254,195 254,194 254,194 254,194 254,194 254,194 254,193 254,193 254,193 254,193 254,193 254,193 255,193 255,192 255,192 255,192 255,191 255,191 255,191 255,190 255,190 255,190 255,189 255,189 255,189 256,188 256,188 256,188 256,188 256,188 256,187 256,187 256,187 256,187 256,187 256,187 256,187 256,188 257,188 257,188 257,188 257,188 257,188 257,188 257,188 257,188 257,188 257,188 257,188 257,188 257,188 258,188 258,188 258,188 258,188 258,188 258,188 258,188 258,188 258,188 258,189 258,189 258,189 258,189 259,189 259,190 259,190 259,190 259,190 259,190 259,190 259,191 259,191 259,191 259,191 259,191 259,191 260,191 260,191 260,192 260,192 260,192 260,192 260,192 260,192 260,192 260,192 260,192 260,192 260,192 261,192 261,192 261,192 261,192 261,192 261,192 261,191 261,191 261,191 261,191 261,191 261,191 261,191 262,191 262,191 262,191 262,191 262,191 262,191 262,191 262,191 262,191 262,191 262,191 262,191 262,191 263,191 263,191 263,191 263,191 263,191 263,191 263,191 263,191 263,191 263,190 263,190 263,190 263,190 264,190 264,190 264,190 264,190 264,190 264,189 264,189 264,189 264,189 264,189 264,189 264,189 264,189 265,188 265,188 265,188 265,188 265,188 265,188 265,188 265,188 265,188 265,188 265,188 265,188 265,188 266,188 266,188 266,188 266,188 266,189 266,189 266,189 266,189 266,189 266,189 266,190 266,190 266,190 267,190 267,190 267,191 267,191 267,191 267,191 267,191 267,191 267,192 267,192 267,192 267,192 267,192 268,192 268,192 268,192 268,192 268,192 268,192 268,192 268,192 268,193 268,193 268,193 268,193 268,193 269,193 269,193 269,193 269,193 269,193 269,193 269,193 269,193 269,193 269,193 269,193 269,194 269,194 270,194 270,194 270,194 270,194 270,194 270,194 270,194 270,195 270,195 270,195 270,195 270,195 270,195 271,195 271,195 271,195 271,196 271,196 271,196 271,196 271,196 271,196 271,196 271,196 271,196 272,197 272,197 272,197 272,197 272,197 272,197 272,196 272,196 272,196 272,197 272,197 272,197 272,197 273,197 273,197 273,197 273,197 273,198 273,198 273,198 273,198 273,198 273,198 273,198 273,198 273,198 274,198 274,199 274,199 274,199 274,199 274,199 274,199 274,199 274,199 274,199 274,200 274,200 274,200 275,200 275,200 275,200 275,200 275,200 275,200 275,200 275,201 275,201 275,201 275,201 275,201 275,201 276,201 276,201 276,201 276,201 276,201 276,201 276,201 276,200 276,200 276,200 276,200 276,200 276,200 277,200 277,200 277,200 277,200 277,200 277,200 277,200 277,200 277,199 277,199 277,199 277,199 277,199 278,199 278,199 278,199 278,199 278,199 278,199 278,199 278,199 278,198 278,198 278,198 278,198 278,198 279,198 279,198 279,198 279,198 279,198 279,198 279,198 279,198 279,198 279,197 279,197 279,197 279,197 280,197 280,197 280,197 280,197 280,197 280,197 280,197 280,197 280,197 280,197 280,197 280,197 280,197 281,197 281,197 281,197 281,197 281,197 281,197 281,196 281,196 281,196 281,196 281,196 281,196 281,196 282,196 282,196 282,196 282,196 282,196 282,196 282,196 282,196 282,196 282,196 282,196 282,196 282,196 283,196 283,196 283,196 283,196 283,196 283,196 283,196 283,196 283,196 283,196 283,196 283,196 283,195 284,195 284,195 284,195 284,195 284,195 284,195 284,195 284,195 284,195 284,195 284,195 284,195 284,195 285,195 285,195 285,195 285,195 285,195 285,194 285,194 285,194 285,194 285,194 285,194 285,194 285,194 286,194 286,194 286,194 286,194 286,194 286,193 286,193 286,193 286,193 286,193 286,193 286,193 286,193 287,192 287,192 287,192 287,191 287,191 287,191 287,191 287,192 287,191 287,191 287,191 287,191 287,191 288,191 288,191 288,191 288,190 288,190 288,190 288,190 288,190 288,190 288,190 288,190 288,190 288,190 289,190 289,189 289,189 289,189 289,189 289,189 289,189 289,189 289,189 289,189 289,188 289,189 289,188 290,188 290,188 290,188 290,188 290,188 290,188 290,188 290,188 290,188 290,188 290,187 290,187 290,187 291,187 291,187 291,187 291,187 291,187 291,187 291,186 291,186 291,186 291,186 291,186 291,186 291,186 292,185 292,185 292,185 292,185 292,185 292,184 292,184 292,184 292,184 292,183 292,183 292,183 292,183 293,183 293,183 293,183 293,183 293,183 293,182 293,182 293,182 293,182 293,182 293,181 293,181 294,181 294,181 294,181 294,180 294,180 294,180 294,180 294,179 294,179 294,179 294,179 294,179 294,178 295,178 295,178 295,178 295,177 295,177 295,177 295,177 295,176 295,176 295,176 295,175 295,175 295,174 296,174 296,174 296,174 296,174 296,173 296,173 296,173 296,173 296,173 296,173 296,172 296,172 296,172 297,172 297,171 297,171 297,171 297,170 297,170 297,170 297,170 297,169 297,169 297,169 297,169 297,169 298,168 298,168 298,168 298,168 298,167 298,167 298,167 298,166 298,166 298,166 298,166 298,166 298,166 299,166 299,166 299,166 299,166 299,166 299,166 299,166 299,166 299,166 299,167 299,167 299,167 299,168 300,168 300,169 300,169 300,170 300,170 300,170 300,171 300,172 300,172 300,173 300,173 300,174 300,174 301,174 301,175 301,175 301,175 301,175 301,175 301,175 301,175 301,175 301,176 301,176 301,176 301,176 302,176 302,176 302,176 302,176 302,176 302,177 302,177 302,177 302,177 302,177 302,177 302,177 302,178 303,177 303,177 303,177 303,177 303,177 303,177 303,176 303,176 303,175 303,175 303,174 303,174 303,173 304,172 304,171 304,171 304,170 304,169 304,168 304,168 304,168 304,168 304,168 304,167 304,167 304,167 305,166 305,166 305,166 305,165 305,165 305,164 305,164 305,164 305,163 305,163 305,163 305,162 305,162 306,162 306,162 306,162 306,162 306,162 306,162 306,162 306,163 306,163 306,164 306,164 306,165 306,166 307,166 307,167 307,167 307,168 307,168 307,169 307,169 307,169 307,170 307,170 307,170 307,170 307,170 308,170 308,170 308,170 308,170 308,170 308,170 308,170 308,170 308,170 308,170 308,170 308,171 308,171 309,171 309,171 309,171 309,171 309,170 309,170 309,170 309,170 309,169 309,169 309,169 309,168 309,168 310,168 310,168 310,167 310,167 310,167 310,167 310,166 310,166 310,166 310,165 310,165 310,165 310,165 311,164 311,164 311,164 311,164 311,163 311,163 311,163 311,163 311,162 311,162 311,162 311,162 311,161 312,161 312,161 312,161 312,161 312,160 312,160 312,160 312,160 312,159 312,159 312,159 312,159 312,158 313,158 313,158 313,157 313,157 313,157 313,157 313,157 313,157 313,156 313,156 313,156 313,156 313,156 314,156 314,156 314,156 314,156 314,156 314,156 314,156 314,156 314,156 314,155 314,155 314,155 315,154 315,154 315,154 315,154 315,153 315,153 315,153 315,153 315,152 315,152 315,152 315,152 315,152 316,152 316,151 316,151 316,151 316,151 316,151 316,151 316,151 316,151 316,151 316,151 316,151 316,151 317,151 317,151 317,151 317,151 317,151 317,151 317,151 317,151 317,152 317,152 317,152 317,152 317,152 318,152 318,152 318,153 318,153 318,153 318,153 318,153 318,153 318,153 318,153 318,153 318,153 318,153 319,152 319,152 319,152 319,152 319,151 319,151 319,151 319,151 319,151 319,151 319,150 319,150 319,150 320,150 320,149 320,149 320,149 320,149 320,149 320,148 320,148 320,148 320,147 320,147 320,147 320,147 321,146 321,146 321,146 321,146 321,145 321,145 321,145 321,145 321,144 321,144 321,144 321,144 321,143 322,143 322,143 322,142 322,142 322,142 322,142 322,141 322,141 322,141 322,140 322,140 322,140 322,140 323,139 323,139 323,138 323,138 323,138 323,137 323,137 323,137 323,137 323,137 323,137 323,137 323,137 324,137 324,137 324,138 324,138 324,138 324,138 324,138 324,139 324,139 324,139 324,139 324,140 324,140 325,140 325,141 325,141 325,142 325,142 325,142 325,142 325,143 325,143 325,143 325,143 325,144 325,144 326,144 326,144 326,144 326,144 326,144 326,145 326,145 326,145 326,145 326,146 326,146 326,146 326,146 327,147 327,147 327,147 327,147 327,148 327,148 327,148 327,148 327,149 327,149 327,149 327,149 327,149 328,149 328,150 328,150 328,150 328,150 328,150 328,151 328,151 328,151 328,151 328,152 328,152 328,152 329,152 329,152 329,152 329,152 329,152 329,152 329,151 329,151 329,151 329,151 329,150 329,150 329,150 330,150 330,150 330,149 330,149 330,149 330,148 330,148 330,148 330,147 330,147 330,147 330,147 330,148 331,148 331,148 331,148 331,148 331,148 331,148 331,149 331,149 331,149 331,150 331,150 331,150 331,150 332,151 332,151 332,151 332,151 332,151 332,152 332,152 332,152 332,152 332,153 332,153 332,153 332,153 333,154 333,154 333,154 333,154 333,155 333,155 333,155 333,155 333,155 333,155 333,155 333,155 333,154 334,154 334,154 334,154 334,154 334,154 334,153 334,153 334,153 334,153 334,152 334,152 334,152 334,152 335,151 335,151 335,151 335,150 335,150 335,150 335,149 335,149 335,149 335,148 335,148 335,148 336,147 336,147 336,147 336,147 336,146 336,146 336,146 336,146 336,146 336,146 336,145 336,145 336,145 337,145 337,146 337,146 337,146 337,146 337,146 337,146 337,146 337,146 337,146 337,146 337,147 337,147 338,147 338,147 338,147 338,147 338,147 338,147 338,147 338,147 338,147 338,147 338,147 338,147 338,147 339,147 339,147 339,147 339,147 339,147 339,147 339,147 339,147 339,148 339,148 339,148 339,148 339,148 340,148 340,148 340,148 340,148 340,148 340,148 340,148 340,148 340,148 340,149 340,149 340,149 340,149 341,149 341,149 341,149 341,149 341,149 341,149 341,149 341,149 341,149 341,149 341,149 341,150 341,150 342,150 342,150 342,150 342,150 342,151 342,151 342,151 342,151 342,151 342,151 342,151 342,151 342,151 343,151 343,151 343,152 343,152 343,152 343,152 343,152 343,152 343,152 343,152 343,152 343,152 343,152 344,153 344,152 344,153 344,153 344,153 344,153 344,153 344,153 344,153 344,153 344,153 344,153 344,154 345,154 345,154 345,154 345,154 345,154 345,155 345,155 345,155 345,155 345,156 345,156 345,156 345,156 346,157 346,157 346,157 346,157 346,158 346,158 346,158 346,158 346,159 346,159 346,159 346,159 346,160 347,160 347,160 347,160 347,160 347,160 347,160 347,161 347,161 347,161 347,161 347,161 347,162 347,162 348,162 348,162 348,162 348,162 348,163 348,163 348,163 348,163 348,163 348,164 348,164 348,164 348,164 349,164 349,164 349,165 349,165 349,165 349,165 349,165 349,165 349,165 349,165 349,165 349,166 349,166 350,166 350,166 350,167 350,167 350,167 350,167 350,168 350,168 350,168 350,168 350,168 350,168 350,168 351,169 351,168 351,169 351,169 351,169 351,169 351,169 351,169 351,169 351,170 351,170 351,170 351,170 352,170 352,170 352,170 352,170 352,169 352,169 352,168 352,168 352,168 352,168 352,168 352,168 352,168 353,167 353,167 353,167 353,166 353,166 353,166 353,166 353,165 353,165 353,164 353,164 353,164 353,164 354,164 354,163 354,162 354,162 354,161 354,161 354,161 354,162 354,162 354,162 354,162 354,161 354,161 355,161 355,161 355,161 355,160 355,160 355,160 355,160 355,160 355,160 355,160 355,160 355,160 355,160 356,160 356,160 356,160 356,160 356,160 356,160 356,160 356,160 356,160 356,160 356,160 356,160 357,160 357,160 357,160 357,160 357,160 357,160 357,160 357,160 357,160 357,160 357,160 357,160 357,160 358,160 358,160 358,160 358,160 358,160 358,160 358,161 358,161 358,161 358,161 358,161 358,161 358,161 359,161 359,161 359,161 359,161 359,161 359,161 359,161 359,161 359,161 359,161 359,161 359,161 359,161 360,161 360,161 360,161 360,161 360,161 360,161 360,160 360,160 360,160 360,160 360,160 360,160 360,160 361,160 361,160 361,160 361,161 361,161 361,161 361,161 361,162 361,162 361,163 361,164 361,165 361,166 362,167 362,167 362,168 362,169 362,170 362,170 362,171 362,172 362,172 362,173 362,173 362,174 362,175 363,175 363,175 363,176 363,177 363,178 363,180 363,181 363,182 363,183 363,184 363,185 363,186 363,187 364,188 364,189 364,189 364,190 364,192 364,193 364,194 364,196 364,197 364,198 364,199 364,201 364,202 365,203 365,205 365,206 365,206 365,207 365,207 365,208 365,208 365,209 365,209 365,209 365,209 365,209 366,209 366,209 366,209 366,209 366,209 366,209 366,209 366,208 366,208 366,207 366,207 366,206 366,205 367,204 367,203 367,202 367,201 367,200 367,199 367,199 367,198 367,197 367,196 367,195 367,194 367,194 368,193 368,192 368,191 368,190 368,189 368,189 368,188 368,187 368,187 368,186 368,186 368,185 368,185 369,185 369,185 369,185 369,185 369,185 369,185 369,184 369,184 369,184 369,184 369,184 369,184 369,183 370,183 370,183 370,183 370,183 370,182 370,182 370,182 370,182 370,182 370,182 370,182 370,181 370,181 371,181 371,181 371,181 371,181 371,181 371,181 371,181 371,181 371,181 371,181 371,181 371,181 371,181 372,181 372,181 372,181 372,180 372,180 372,180 372,180 372,180 372,180 372,180 372,180 372,180 372,180 373,180 373,180 373,180 373,180 373,180 373,180 373,180 373,181 373,181 373,182 373,182 373,182 373,182 374,183 374,183 374,183 374,183 374,183 374,184 374,185 374,185 374,185 374,186 374,186 374,186 374,186 375,186 375,187 375,187 375,187 375,187 375,187 375,187 375,187 375,188 375,188 375,189 375,189 375,189 376,190 376,190 376,190 376,190 376,191 376,191 376,191 376,192 376,192 376,192 376,193 376,193 376,193 377,193 377,194 377,194 377,194 377,194 377,194 377,195 377,195 377,195 377,196 377,196 377,196 377,197 378,197 378,197 378,197 378,197 378,197 378,197 378,197 378,197 378,197 378,197 378,197 378,198 379,198 379,198 379,199 379,199 379,199 379,199 379,199 379,198 379,198 379,198 379,197 379,197 379,196 380,196 380,196 380,196 380,196 380,196 380,195 380,195 380,195 380,195 380,195 380,195 380,194 380,194 381,194 381,193 381,193 381,192 381,192 381,192 381,192 381,192 381,192 381,192 381,192 381,192 381,191 382,191 382,191 382,191 382,191 382,191 382,192 382,192 382,192 382,192 382,192 382,192 382,193 382,193 383,193 383,193 383,193 383,193 383,193 383,193 383,194 383,194 383,195 383,195 383,196 383,196 383,197 384,197 384,198 384,198 384,199 384,199 384,200 384,200 384,201 384,202 384,202 384,203 384,204 384,204 385,205 385,206 385,206 385,207 385,208 385,208 385,208 385,209 385,210 385,210 385,211 385,211 385,212 386,212 386,212 386,212 386,212 386,213 386,213 386,213 386,213 386,213 386,213 386,213 386,213 386,214 387,214 387,214 387,214 387,214 387,214 387,214 387,214 387,214 387,214 387,213 387,213 387,213 387,212 388,212 388,212 388,211 388,211 388,210 388,210 388,210 388,209 388,209 388,209 388,208 388,208 388,207 389,207 389,207 389,206 389,206 389,205 389,204 389,204 389,203 389,203 389,202 389,201 389,201 389,200 390,199 390,198 390,197 390,197 390,196 390,196 390,196 390,196 390,196 390,196 390,195 390,195 390,195 391,195 391,195 391,194 391,194 391,193 391,193 391,192 391,192 391,192 391,192 391,191 391,191 391,191 392,190 392,190 392,191 392,191 392,191 392,191 392,191 392,191 392,191 392,191 392,191 392,191 392,191 393,190 393,190 393,190 393,190 393,190 393,190 393,190 393,191 393,190 393,190 393,190 393,190 393,191 394,191 394,191 394,192 394,192 394,192 394,193 394,193 394,193 394,193 394,193 394,194 394,194 394,195 395,195 395,196 395,197 395,198 395,198 395,199 395,202 395,204 395,206 395,208 395,207 395,206 395,204 396,204 396,204 396,205 396,205 396,206 396,206 396,206 396,207 396,207 396,208 396,208 396,209 396,209 397,209 397,210 397,210 397,210 397,210 397,210 397,210 397,210 397,210 397,211 397,211 397,211 397,210 398,210 398,210 398,210 398,209 398,209 398,209 398,208 398,208 398,207 398,207 398,207 398,206 398,206 399,205 399,205 399,204 399,204 399,204 399,203 399,203 399,202 399,202 399,202 399,201 399,201 400,201 400,200 400,200 400,200 400,199 400,199 400,198 400,198 400,197 400,197 400,197 400,197 400,196 401,196 401,196 401,196 401,195 401,195 401,194 401,194 401,193 401,193 401,193 401,193 401,193 401,192 402,192 402,192 402,192 402,192 402,191 402,191 402,191 402,190 402,190 402,189 402,189 402,188 402,188 403,188 403,188 403,188 403,188 403,187 403,187 403,187 403,187 403,187 403,186 403,186 403,186 403,186 404,185 404,185 404,185 404,185 404,184 404,184 404,184 404,184 404,184 404,184 404,184 404,184 404,184 405,183 405,183 405,182 405,182 405,182 405,181 405,181 405,181 405,181 405,181 405,181 405,181 405,181 406,181 406,182 406,183 406,183 406,184 406,184 406,184 406,184 406,185 406,185 406,185 406,186 406,186 407,186 407,186 407,186 407,186 407,186 407,187 407,187 407,186 407,187 407,187 407,187 407,188 407,188 408,189 408,189 408,188 408,187 408,186 408,186 408,185 408,185 408,184 408,184 408,184 408,183 408,183 409,182 409,183 409,183 409,183 409,183 409,183 409,183 409,183 409,183 409,183 409,184 409,184 409,184 410,184 410,185 410,185 410,185 410,186 410,186 410,186 410,186 410,187 410,187 410,188 410,188 410,188 411,189 411,189 411,189 411,189 411,188 411,188 411,188 411,188 411,188 411,188 411,188 411,187 411,187 412,187 412,187 412,186 412,186 412,185 412,185 412,184 412,184 412,184 412,183 412,183 412,183 412,182 413,182 413,182 413,182 413,182 413,182 413,182 413,183 413,183 413,183 413,183 413,184 413,184 413,184 414,184 414,185 414,185 414,186 414,187 414,188 414,188 414,189 414,190 414,190 414,191 414,192 414,192 415,193 415,194 415,194 415,195 415,195 415,195 415,196 415,196 415,197 415,197 415,198 415,198 415,199 416,199 416,199 416,200 416,200 416,201 416,201 416,202 416,202 416,203 416,203 416,204 416,204 416,205 417,205 417,206 417,206 417,206 417,207 417,207 417,207 417,208 417,208 417,208 417,208 417,209 417,209 418,210 418,210 418,210 418,210 418,210 418,210 418,210 418,210 418,210 418,210 418,210 418,210 418,210 419,211 419,212 419,212 419,212 419,212 419,213 419,213 419,213 419,213 419,213 419,213 419,213 419,213 420,213 420,214 420,214 420,214 420,214 420,214 420,214 420,214 420,214 420,214 420,214 420,215 421,215 421,215 421,215 421,215 421,215 421,215 421,215 421,215 421,215 421,215 421,215 421,214 421,215 422,214 422,214 422,214 422,213 422,213 422,213 422,212 422,212 422,212 422,212 422,212 422,211 422,211 423,211 423,211 423,211 423,211 423,211 423,210 423,210 423,210 423,210 423,210 423,210 423,210 423,210 424,210 424,210 424,210 424,209 424,209 424,209 424,209 424,209 424,209 424,210 424,210 424,210 424,210 425,210 425,211 425,211 425,212 425,212 425,212 425,213 425,213 425,213 425,213 425,214 425,214 425,214 426,215 426,215 426,215 426,216 426,216 426,217 426,217 426,217 426,218 426,219 426,219 426,220 426,220 427,220 427,221 427,221 427,221 427,222 427,222 427,222 427,222 427,223 427,223 427,224 427,224 427,224 428,224 428,225 428,225 428,225 428,226 428,226 428,226 428,226 428,227 428,227 428,227 428,227 428,228 429,228 429,228 429,229 429,229 429,229 429,229 429,230 429,230 429,230 429,230 429,231 429,231 429,231 430,231 430,231 430,231 430,231 430,232 430,232 430,232 430,233 430,233 430,233 430,233 430,233 430,233 431,233 431,234 431,234 431,234 431,234 431,233 431,233 431,233 431,233 431,232 431,232 431,232 431,232 432,231 432,231 432,231 432,231 432,230 432,230 432,230 432,230 432,229 432,229 432,229 432,229 432,228 433,228 433,228 433,228 433,227 433,227 433,227 433,227 433,226 433,226 433,226 433,226 433,225 433,225 434,225 434,225 434,224 434,224 434,224 434,224 434,223 434,223 434,223 434,223 434,222 434,222 434,222 435,222 435,222 435,221 435,221 435,220 435,220 435,220 435,219 435,219 435,219 435,218 435,218 435,218 436,218 436,217 436,217 436,217 436,217 436,217 436,216 436,216 436,216 436,216 436,216 436,216 436,216 437,216 437,215 437,215 437,215 437,215 437,215 437,215 437,216 437,216 437,216 437,216 437,216 437,216 438,216 438,216 438,216 438,217 438,217 438,217 438,217 438,217 438,218 438,218 438,218 438,218 438,219 439,219 439,219 439,219 439,219 439,220 439,221 439,221 439,222 439,223 439,223 439,223 439,223 439,224 440,224 440,225 440,225 440,226 440,226 440,227 440,227 440,228 440,228 440,229 440,229 440,230 440,230 441,230 441,231 441,231 441,232 441,233 441,233 441,234 441,234 441,234 441,235 441,235 441,235 442,235 442,235 442,235 442,235 442,235 442,235 442,234 442,234 442,234 442,234 442,233 442,233 442,233 443,233 443,233 443,232 443,232 443,232 443,232 443,231 443,231 443,231 443,230 443,230 443,230 443,230 444,229 444,229 444,229 444,228 444,228 444,228 444,227 444,227 444,227 444,227 444,226 444,226 444,226 445,225 445,225 445,225 445,225 445,225 445,225 445,225 445,224 445,224 445,224 445,224 445,224 445,224 446,224 446,223 446,223 446,224 446,224 446,223 446,223 446,222 446,222 446,221 446,221 446,221 446,221 447,221 447,220 447,220 447,220 447,220 447,220 447,220 447,220 447,220 447,220 447,220 447,220 447,220 448,220 448,220 448,220 448,220 448,220 448,220 448,220 448,220 448,220 448,220 448,220 448,220 448,220 449,220 449,219 449,219 449,219 449,218 449,218 449,218 449,217 449,217 449,217 449,216 449,216 449,216 450,215 450,215 450,215 450,215 450,215 450,216 450,216 450,217 450,217 450,218 450,219 450,219 450,220 451,221 451,222 451,222 451,222 451,222 451,223 451,223 451,223 451,223 451,223 451,223 451,223 451,223 452,223 452,223 452,222 452,222 452,222 452,222 452,221 452,221 452,221 452,221 452,221 452,220 452,220 453,220 453,220 453,220 453,219 453,219 453,218 453,218 453,218 453,217 453,216 453,216 453,216 453,215 454,215 454,214 454,214 454,214 454,213 454,213 454,213 454,212 454,212 454,212 454,212 454,212 454,212 455,212 455,212 455,212 455,212 455,212 455,212 455,212 455,212 455,212 455,211 455,211 455,211 455,211 456,211 456,211 456,211 456,210 456,210 456,210 456,210 456,209 456,209 456,209 456,209 456,208 456,208 457,208 457,208 457,208 457,208 457,207 457,207 457,207 457,207 457,207 457,206 457,206 457,206 457,205 458,205 458,205 458,205 458,204 458,204 458,205 458,206 458,207 458,207 458,207 458,207 458,207 458,209 459,209 459,210 459,210 459,211 459,212 459,212 459,213 459,213 459,214 459,214 459,215 459,215 459,216 460,216 460,217 460,217 460,218 460,218 460,219 460,219 460,220 460,220 460,221 460,221 460,221 460,221 461,221 461,221 461,222 461,222 461,222 461,223 461,223 461,223 461,223 461,224 461,224 461,224 461,225 462,225 462,225 462,226 462,226 462,226 462,227 462,227 462,227 462,227 462,227 462,227 462,228 463,228 463,228 463,228 463,228 463,228 463,228 463,229 463,229 463,229 463,230 463,230 463,230 463,230 464,231 464,231 464,230 464,230 464,230 464,230 464,230 464,230 464,230 464,230 464,230 464,230 464,230 465,231 465,231 465,231 465,231 465,231 465,231 465,231 465,231 465,231 465,231 465,231 465,232 465,232 466,232 466,232 466,232 466,232 466,233 466,233 466,233 466,234 466,234 466,234 466,235 466,235 466,235 467,235 467,236 467,236 467,236 467,237 467,237 467,237 467,238 467,238 467,238 467,239 467,239 467,239 468,239 468,240 468,240 468,240 468,240 468,241 468,241 468,241 468,241 468,242 468,242 468,243 468,243 469,243 469,244 469,244 469,244 469,245 469,245 469,245 469,245 469,244 469,244 469,244 469,243 469,243 470,242 470,242 470,241 470,241 470,240 470,240 470,239 470,239 470,239 470,239 470,238 470,238 470,237 471,237 471,237 471,237 471,237 471,236 471,236 471,236 471,236 471,236 471,236 471,237 471,237 471,237 472,237 472,237 472,237 472,238 472,238 472,239 472,239 472,239 472,239 472,238 472,238 472,237 472,236 473,236 473,235 473,235 473,234 473,234 473,234 473,233 473,233 473,232 473,232 473,232 473,232 473,232 474,231 474,231 474,231 474,231 474,230 474,230 474,229 474,229 474,228 474,228 474,227 474,227 474,227 475,226 475,226 475,226 475,225 475,225 475,224 475,224 475,224 475,224 475,223 475,223 475,223 475,223 476,223 476,223 476,222 476,222 476,222 476,222 476,222 476,222 476,222 476,222 476,222 476,222 476,222 477,222 477,222 477,222 477,222 477,222 477,222 477,223 477,223 477,223 477,223 477,223 477,223 477,223 478,222 478,222 478,222 478,222 478,222 478,223 478,223 478,223 478,223 478,223 478,223 478,224 478,224 479,224 479,224 479,225 479,225 479,225 479,225 479,226 479,226 479,227 479,227 479,227 479,227 479,228 480,228 480,228 480,229 480,229 480,230 480,230 480,230 480,231 480,231 480,231 480,232 480,232 480,233 481,233 481,233 481,233 481,233 481,233 481,234 481,234 481,234 481,234 481,234 481,234 481,234 481,234 482,234 482,234 482,234 482,234 482,234 482,234 482,235 482,235 482,235 482,235 482,236 482,236 482,236 483,236 483,237 483,237 483,238 483,238 483,238 483,239 483,239 483,240 483,240 483,241 483,241 483,242 484,242 484,242 484,242 484,243 484,243 484,243 484,243 484,243 484,244 484,244 484,244 484,244 485,245 485,245 485,245 485,246 485,245 485,245 485,245 485,245 485,244 485,244 485,244 485,243 485,243 486,243 486,243 486,242 486,242 486,242 486,242 486,242 486,242 486,242 486,243 486,243 486,243 486,243 487,243 487,244 487,244 487,244 487,244 487,244 487,244 487,244 487,245 487,245 487,245 487,245 487,244 488,244 488,243 488,243 488,243 488,243 488,243 488,243 488,243 488,243 488,244 488,244 488,244 488,244 489,245 489,245 489,245 489,245 489,247 489,248 489,249 489,249 489,249 489,247 489,248 489,248 489,248 490,249 490,249 490,250 490,250 490,250 490,250 490,251 490,250 490,250 490,250 490,249 490,249 490,249 491,248 491,248 491,248 491,247 491,247 491,246 491,246 491,246 491,245 491,245 491,245 491,245 491,245 492,245 492,245 492,246 492,246 492,246 492,246 492,246 492,246 492,246 492,246 492,246 492,246 492,246 493,246 493,246 493,246 493,246 493,246 493,246 493,246 493,246 493,246 493,246 493,246 493,246 493,246 494,245 494,245 494,244 494,244 494,243 494,243 494,243 494,243 494,243 494,242 494,242 494,242 494,242 495,242 495,243 495,243 495,243 495,243 495,242 495,243 495,243 495,243 495,243 495,243 495,243 495,243 496,243 496,243 496,243 496,243 496,243 496,244 496,244 496,244 496,244 496,244 496,244 496,245 496,245 497,245 497,245 497,245 497,245 497,245 497,246 497,246 497,246 497,246 497,246 497,246 497,246 497,246 498,246 498,247 498,247 498,247 498,247 498,247 498,247 498,247 498,247 498,247 498,247 498,247 498,247 499,247 499,247 499,247 499,247 499,247 499,247 499,247 499,247 499,247 499,247 499,247 499,247 499,247 500,247 500,247 500,247 500,247 500,247 500,247 500,247 500,248 500,248 500,248 500,248 500,248 500,248 501,248 501,248 501,248 501,249 501,249 501,249 501,249 501,249 501,249 501,249 501,250 501,250 501,250 502,250 502,250 502,250 502,250 502,250 502,250 502,250 502,250 502,250 502,250 502,251 502,251 502,251 503,251 503,251 503,251 503,251 503,252 503,252 503,252 503,252 503,252 503,252 503,253 503,253 503,253 504,253 504,253 504,253 504,253 504,253 504,253 504,254 504,254 504,254 504,254 504,254 504,254 504,254 505,254 505,255 505,255 505,255 505,255 505,255 505,256 505,256 505,256 505,256 505,256 505,257 506,257 506,257 506,258 506,258 506,258 506,258 506,259 506,259 506,259 506,259 506,259 506,260 506,260 507,260 507,260 507,260 507,260 507,260 507,259 507,259 507,259 507,259 507,259 507,259 507,259 507,259 508,258 508,258 508,258 508,258 508,258 508,259 508,259 508,259 508,259 508,260 508,260 508,260 508,261 509,261 509,261 509,261 509,261 509,262 509,262 509,262 509,262 509,261 509,261 509,261 509,261 509,261 510,262 510,262 510,262 510,263 510,263 510,263 510,264 510,264 510,264 510,264 510,264 510,265 510,265 511,265 511,266 511,266 511,267 511,267 511,267 511,268 511,268 511,268 511,268 511,269 511,269 511,270 512,271 512,271 512,272 512,272 512,272 512,273 512,273 512,275 512,276 512,277 512,278 512,278 512,278 513,278 513,279 513,279 513,279 513,279 513,279 513,279 513,279 513,279 513,279 513,279 513,279 513,279 514,278 514,278 514,278 514,277 514,277 514,277 514,276 514,276 514,276 514,275 514,275 514,275 514,274 515,274 515,273 515,273 515,273 515,272 515,272 515,271 515,271 515,271 515,270 515,270 515,269 515,269 516,269 516,269 516,268 516,268 516,267 516,267 516,266 516,266 516,265 516,265 516,264 516,264 516,263 517,263 517,262 517,261 517,261 517,260 517,259 517,258 517,257 517,256 517,255 517,254 517,252 517,251 518,250 518,249 518,249 518,248 518,247 518,246 518,244 518,243 518,242 518,241 518,241 518,239 518,238 519,238 519,238 519,237 519,237 519,236 519,235 519,235 519,234 519,234 519,234 519,233 519,233 519,233 520,233 520,233 520,233 520,233 520,233 520,233 520,233 520,233 520,233 520,233 520,233 520,233 520,233 521,233 521,233 521,233 521,233 521,233 521,233 521,233 521,233 521,233 521,233 521,233 521,234 521,234 522,234 522,234 522,234 522,234 522,234 522,234 522,235 522,235 522,235 522,235 522,235 522,235 522,235 523,235 523,235 523,235 523,235 523,235 523,235 523,236 523,236 523,236 523,236 523,237 523,237 523,237 524,237 524,238 524,238 524,238 524,238 524,238 524,238 524,238 524,238 524,238 524,238 524,238 524,238 525,238 525,239 525,239 525,239 525,239 525,239 525,240 525,240 525,240 525,240 525,241 525,241 525,241 526,242 526,242 526,242 526,243 526,243 526,244 526,244 526,244 526,245 526,245 526,245 526,246 527,246 527,246 527,246 527,246 527,246 527,246 527,245 527,245 527,245 527,245 527,245 527,245 527,245 528,245 528,245 528,245 528,245 528,246 528,246 528,246 528,246 528,247 528,247 528,247 528,247 528,248 529,248 529,248 529,249 529,249 529,249 529,250 529,250 529,250 529,251 529,251 529,251 529,252 529,252 530,252 530,253 530,253 530,253 530,254 530,254 530,254 530,255 530,255 530,256 530,256 530,256 530,257 531,257 531,258 531,259 531,259 531,260 531,260 531,260 531,261 531,262 531,262 531,262 531,263 531,263 532,264 532,264 532,264 532,264 532,263 532,263 532,263 532,263 532,263 532,262 532,262 532,261 532,261 533,260 533,260 533,259 533,259 533,258 533,258 533,257 533,257 533,256 533,256 533,256 533,255 533,255 534,255 534,254 534,254 534,254 534,254 534,253 534,253 534,253 534,253 534,252 534,252 534,252 534,252 535,251 535,251 535,251 535,251 535,251 535,251 535,251 535,251 535,251 535,250 535,250 535,250 535,250 536,250 536,250 536,250 536,250 536,250 536,249 536,249 536,249 536,249 536,249 536,249 536,249 536,249 537,249 537,249 537,249 537,249 537,250 537,250 537,250 537,250 537,250 537,250 537,251 537,251 537,251 538,251 538,252 538,252 538,253 538,253 538,254 538,254 538,254 538,255 538,255 538,255 538,255 538,256 539,256 539,256 539,256 539,256 539,256 539,256 539,256 539,256 539,256 539,256 539,256 539,256 539,256 540,256 540,256 540,256 540,257 540,257 540,257 540,257 540,258 540,258 540,258 540,258 540,258 540,258 541,258 541,258 541,258 541,258 541,259 541,259 541,259 541,260 541,260 541,260 541,261 541,261 541,261 542,261 542,262 542,262 542,262 542,262 542,262 542,263 542,263 542,263 542,263 542,264 542,264 542,265 543,266 543,266 543,267 543,268 543,269 543,270 543,270 543,271 543,272 543,273 543,274 543,275 543,275 544,276 544,277 544,277 544,278 544,278 544,279 544,279 544,280 544,280 544,281 544,281 544,282 544,282 545,283 545,283 545,283 545,283 545,283 545,283 545,282 545,282 545,281 545,280 545,280 545,279 545,278 546,277 546,276 546,276 546,275 546,275 546,274 546,274 546,274 546,274 546,273 546,273 546,273 546,273 547,273 547,273 547,273 547,273 547,273 547,272 547,272 547,271 547,271 547,270 547,270 547,269 548,269 548,268 548,268 548,268 548,267 548,267 548,267 548,267 548,267 548,267 548,266 548,266 548,266 549,266 549,266 549,266 549,266 549,266 549,266 549,266 549,266 549,266 549,266 549,266 549,266 549,266 550,266 550,266 550,266 550,267 550,267 550,268 550,268 550,268 550,269 550,269 550,269 550,270 550,270 551,271 551,272 551,272 551,273 551,274 551,275 551,275 551,276 551,277 551,278 551,279 551,280 551,281 552,281 552,281 552,281 552,281 552,280 552,279 552,279 552,278 552,277 552,277 552,277 552,276 552,276 553,276 553,275 553,275 553,274 553,274 553,274 553,273 553,273 553,273 553,273 553,272 553,272 553,272 554,272 554,272 554,272 554,271 554,271 554,271 554,271 554,271 554,271 554,270 554,270 554,270 554,271 555,271 555,271 555,271 555,271 555,271 555,271 555,271 555,271 555,271 555,271 555,271 555,271 555,271 556,271 556,271 556,271 556,271 556,271 556,272 556,272 556,272 556,273 556,273 556,273 556,273 556,274 557,274 557,274 557,274 557,274 557,275 557,275 557,275 557,275 557,276 557,276 557,276 557,277 557,277 558,277 558,278 558,278 558,278 558,278 558,279 558,279 558,279 558,279 558,279 558,279 558,279 558,279 559,279 559,279 559,279 559,279 559,279 559,279 559,279 559,279 559,279 559,279 559,279 559,280 559,280 560,280 560,280 560,280 560,280 560,280 560,281 560,281 560,281 560,281 560,281 560,281 560,281 560,281 561,281 561,281 561,281 561,280 561,280 561,280 561,280 561,280 561,280 561,280 561,280 561,281 561,281 562,281 562,281 562,281 562,281 562,281 562,281 562,281 562,281 562,281 562,281 562,281 562,281 562,281 563,281 563,281 563,282 563,282 563,282 563,282 563,282 563,282 563,282 563,283 563,283 563,283 563,283 564,283 564,283 564,284 564,284 564,284 564,284 564,284 564,284 564,285 564,285 564,285 564,285 564,285 565,286 565,286 565,286 565,286 565,287 565,287 565,287 565,287 565,288 565,288 565,288 565,289 565,289 566,289 566,290 566,290 566,291 566,291 566,291 566,292 566,293 566,293 566,294 566,294 566,295 566,295 567,296 567,296 567,297 567,297 567,297 567,298 567,298 567,298 567,299 567,299 567,299 567,300 567,300 568,300 568,300 568,301 568,301 568,301 568,301 568,301 568,301 568,301 568,302 568,302 568,302 568,302 569,302 569,302 569,302 569,302 569,302 569,302 569,302 569,302 569,302 569,302 569,302 569,302 570,302 570,302 570,302 570,303 570,303 570,303 570,304 570,304 570,304 570,304 570,304 570,305 570,305 571,305 571,305 571,305 571,305 571,305 571,305 571,305 571,305 571,306 571,306 571,306 571,306 571,306 572,306 572,306 572,306 572,306 572,306 572,306 572,306 572,306 572,306 572,306 572,306 572,306 572,306 573,306 573,306 573,306 573,307 573,307 573,307 573,307 573,307 573,307 573,307 573,307 573,307 573,307 574,307 574,307 574,307 574,307 574,307 574,307 574,307 574,307 574,307 574,307 574,307 574,307 574,306 575,306 575,306 575,306 575,306 575,305 575,305 575,304 575,304 575,304 575,303 575,303 575,303 575,302 576,302 576,302 576,301 576,301 576,300 576,300 576,299 576,299 576,299 576,298 576,298 576,298 576,297 577,297 577,297 577,296 577,296 577,296 577,296 577,295 577,295 577,295 577,295 577,295 577,294 577,294 578,294 578,294 578,294 578,294 578,294 578,294 578,294 578,294 578,294 578,294 578,294 578,294 578,294 579,294 579,294 579,294 579,294 579,294 579,294 579,295 579,295 579,295 579,295 579,295 579,295 579,295 580,296 580,296 580,296 580,297 580,297 580,297 580,298 580,298 580,298 580,299 580,299 580,300 580,300 581,300 581,301 581,301 581,302 581,302 581,303 581,303 581,303 581,304 581,304 581,305 581,305 581,306 582,306 582,307 582,308 582,308 582,309 582,309 582,310 582,310 582,310 582,311 582,311 582,311 582,312 583,312 583,312 583,312 583,313 583,313 583,313 583,313 583,313 583,312 583,312 583,312 583,312 583,311 584,311 584,311 584,311 584,311 584,311 584,310 584,310 584,310 584,309 584,309 584,309 584,308 584,308 585,307 585,307 585,306 585,306 585,305 585,305 585,305 585,304 585,304 585,304 585,303 585,303 585,303 586,302 586,302 586,302 586,302 586,301 586,301 586,301 586,301 586,301 586,301 586,301 586,300 586,300 587,300 587,300 587,300 587,300 587,300 587,300 587,300 587,299 587,299 587,299 587,299 587,299 587,299 588,299 588,299 588,299 588,299 588,299 588,298 588,298 588,298 588,298 588,298 588,298 588,298 588,298 589,298 589,298 589,298 589,298 589,298 589,298 589,298 589,298 589,299 589,299 589,299 589,300 589,300 590,301 590,301 590,301 590,301 590,302 590,302 590,302 590,302 590,303 590,303 590,303 590,303 591,303 591,303 591,303 591,303 591,303 591,303 591,303 591,303 591,303 591,303 591,303 591,303 591,302 592,302 592,302 592,302 592,302 592,302 592,302 592,302 592,302 592,302 592,302 592,302 592,302 592,302 593,302 593,302 593,302 593,302 593,302 593,302 593,302 593,302 593,302 593,302 593,302 593,302 593,302 594,302 594,302 594,302 594,302 594,302 594,302 594,301 594,301 594,301 594,301 594,301 594,301 594,301 595,301 595,300 595,300 595,300 595,300 595,300 595,300 595,300 595,300 595,300 595,300 595,300 595,300 596,300 596,300 596,299 596,299 596,299 596,299 596,299 596,299 596,299 596,298 596,298 596,298 596,298 597,298 597,297 597,297 597,297 597,297 597,297 597,297 597,297 597,297 597,297 597,297 597,297 597,297 598,297 598,297 598,297 598,297 598,297 598,297 598,296 598,296 598,296 598,296 598,296 598,296 598,296 599,296 599,296 599,296 599,296 599,295 599,295 599,295 599,295 599,295 599,295 599,295 599,295 599,295 600,294 600,294 600,294 600,294 600,294 600,294 600,294 600,294 600,294 600,293 600,293 600,293 600,293 601,293 601,293 601,293 601,293 601,293 601,292 601,292 601,292 601,292 601,292 601,292 601,292 601,292 602,291 602,291 602,291 602,291 602,291 602,291 602,291 602,291 602,290 602,290 602,290 602,290 602,290 603,290 603,289 603,289 603,289 603,289 603,289 603,288 603,288 603,288 603,288 603,288 603,288 603,288 604,288 604,288 604,288 604,288 604,288 604,288 604,288 604,288 604,288 604,288 604,288 604,288 604,288 605,288 605,288 605,288 605,288 605,288 605,288 605,288 605,288 605,288 605,288 605,288 605,288 605,288 606,288 606,288 606,288 606,289 606,289 606,289 606,289 606,289 606,289 606,289 606,289 606,289 606,289 607,289 607,289 607,289 607,289 607,289 607,290 607,290 607,290 607,290 607,290 607,290 607,290 607,290 608,290 608,291 608,291 608,291 608,291 608,291 608,291 608,291 608,291 608,292 608,292 608,292 608,292 609,292 609,292 609,292 609,293 609,293 609,293 609,293 609,293 609,293 609,293 609,294 609,294 609,294 610,294 610,294 610,294 610,294 610,294 610,295 610,295 610,295 610,295 610,295 610,295 610,295 610,296 611,296 611,296 611,296 611,296 611,297 611,297 611,297 611,297 611,298 611,298 611,298 611,298 612,298 612,299 612,299 612,299 612,299 612,299 612,300 612,300 612,300 612,301 612,301 612,301 612,301 613,302 613,302 613,302 613,302 613,303 613,303 613,303 613,303 613,303 613,303 613,303 613,303 613,303 614,302 614,302 614,302 614,302 614,302 614,302 614,302 614,302 614,302 614,302 614,303 614,303 614,303 615,303 615,303 615,303 615,303 615,303 615,303 615,303 615,303 615,303 615,303 615,304 615,304 615,304 616,304 616,304 616,304 616,304 616,304 616,304 616,304 616,303 616,303 616,303 616,303 616,303 616,303 617,303 617,303 617,303 617,303 617,303 617,303 617,303 617,304 617,304 617,304 617,304 617,304 617,304 618,304 618,304 618,304 618,304 618,304 618,304 618,304 618,304 618,304 618,304 618,304 618,305 618,305 619,305 619,305 619,305 619,305 619,305 619,305 619,305 619,305 619,305 619,305 619,305 619,306 619,305 620,306 620,306 620,306 620,306 620,306 620,306 620,306 620,306 620,306 620,306 620,306 620,306 620,306 621,306 621,306 621,306 621,306 621,306 621,305 621,305 621,305 621,305 621,305 621,305 621,304 621,304 622,304 622,304 622,304 622,304 622,304 622,304 622,304 622,304 622,304 622,304 622,304 622,304 622,304 623,305 623,305 623,305 623,305 623,305 623,305 623,305 623,306 623,306 623,306 623,306 623,307 623,307 624,307 624,308 624,308 624,309 624,309 624,309 624,310 624,310 624,310 624,310 624,311 624,311 624,311 625,311 625,311 625,311 625,312 625,312 625,312 625,312 625,312 625,312 625,312 625,312 625,312 625,312 626,312 626,312 626,312 626,312 626,312 626,313 626,313 626,313 626,313 626,313 626,313 626,313 626,313 627,314 627,314 627,314 627,314 627,314 627,314 627,315 627,315 627,315 627,315 627,316 627,316 627,316 628,317 628,317 628,317 628,317 628,318 628,318 628,318 628,318 628,318 628,318 628,319 628,319 628,319 629,319 629,319 629,319 629,320 629,320 629,320 629,320 629,320 629,320 629,320 629,320 629,321 629,321 630,321 630,321 630,321 630,321 630,321 630,322 630,322 630,322 630,322 630,322 630,322 630,322 630,323 631,323 631,323 631,323 631,323 631,323 631,323 631,323 631,324 631,324 631,324 631,324 631,324 631,324 632,324 632,324 632,325 632,325 632,325 632,325 632,325 632,325 632,325 632,325 632,325 632,325 633,325 633,325 633,325 633,325 633,325 633,325 633,325 633,325 633,325 633,325 633,325 633,325 633,325 634,325 634,325 634,325 634,325 634,325 634,325 634,325 634,325 634,325 634,326 634,326 634,326 634,326 635,326 635,326 635,326 635,326 635,326 635,326 635,325 635,325 635,325 635,325 635,325 635,325 635,325 636,325 636,325 636,325 636,325 636,325 636,325 636,325 636,325 636,325 636,324 636,324 636,324 636,324 637,324 637,324 637,324 637,324 637,324 637,324 637,324 637,323 637,323 637,323 637,323 637,323 637,323 638,323 638,323 638,323 638,323 638,323 638,323 638,322 638,322 638,322 638,322 638,322 638,322 638,322 639,322 639,322 639,322 639,322 639,321 639,321 639,321 639,321 639,321 639,321 639,321 639,321 639,321 640,321 640,320 640,320 640,320 640,320 640,320 640,320 640,320 640,320 640,320 640,321 640,321 640,321 641,321 641,321 641,321 641,321 641,321 641,321 641,322 641,322 641,322 641,322 641,322 641,322 641,323 642,323 642,323 642,323 642,323 642,323 642,324 642,324 642,324 642,324 642,324 642,324 642,325 642,325 643,325 643,325 643,326 643,326 643,326 643,326 643,326 643,327 643,327 643,327 643,327 643,327 643,328 644,328 644,328 644,328 644,328 644,329 644,329 644,329 644,329 644,330 644,330 644,330 644,330 644,331 645,331 645,331 645,332 645,332 645,332 645,333 645,333 645,333 645,333 645,334 645,334 645,334 645,334 646,335 646,335 646,335 646,335 646,335 646,335 646,336 646,336 646,336 646,336 646,336 646,337 646,337 647,337 647,337 647,337 647,337 647,338 647,338 647,338 647,338 647,338 647,338 647,338 647,339 647,339 648,339 648,339 648,339 648,339 648,339 648,340 648,340 648,340 648,340 648,340 648,340 648,340 648,340 649,340 649,340 649,340 649,340 649,341 649,341 649,341 649,341 649,341 649,341 649,341 649,341 649,342 650,342 650,342 650,342 650,342 650,342 650,342 650,342 650,343 650,343 650,343 650,343 650,343 650,343 651,343 651,343 651,343 651,343 651,343 651,343 651,343 651,343 651,343 651,343 651,343 651,343 651,344 652,344 652,344 652,344 652,344 652,344 652,344 652,344 652,344 652,344 652,344 652,344 652,344 652,344 653,344 653,344 653,344 653,344 653,344 653,344 653,344 653,344 653,344 653,344 653,344 653,344 653,345 654,345 654,345 654,345 654,345 654,345 654,346 654,346 654,346 654,346 654,346 654,346 654,346 655,346 655,347 655,347 655,347 655,347 655,347 655,347 655,347 655,347 655,347 655,347 655,347 655,347 656,347 656,347 656,347 656,347 656,347 656,347 656,347 656,347 656,347 656,347 656,347 656,347 656,347 657,347 657,347 657,347 657,346 657,346 657,346 657,346 657,346 657,346 657,345 657,345 657,345 657,345 658,344 658,344 658,344 658,344 658,343 658,343 658,343 658,343 658,342 658,342 658,342 658,342 658,342 659,342 659,342 659,342 659,342 659,342 659,342 659,342 659,342 659,342 659,342 659,342 659,342 659,342 660,342 660,341 660,341 660,341 660,341 660,341 660,341 660,341 660,341 660,341 660,341 660,341 660,341 661,341 661,341 661,341 661,341 661,341 661,341 661,341 661,341 661,340 661,340 661,340 661,340 661,340 662,340 662,340 662,340 662,339 662,339 662,339 662,338 662,338 662,338 662,338 662,338 662,338 662,338 663,338 663,338 663,338 663,338 663,337 663,337 663,337 663,337 663,337 663,338 663,338 663,338 663,338 664,338 664,338 664,337 664,337 664,337 664,337 664,337 664,337 664,336 664,336 664,336 664,336 664,335 665,335 665,335 665,335 665,334 665,334 665,334 665,334 665,334 665,334 665,333 665,333 665,333 665,333 666,332 666,332 666,332 666,332 666,332 666,332 666,332 666,332 666,331 666,331 666,331 666,331 666,331 667,331 667,331 667,330 667,330 667,330 667,330 667,330 667,330 667,330 667,330 667,330 667,329 667,329 668,329 668,329 668,329 668,329 668,329 668,328 668,328 668,328 668,328 668,328 668,328 668,328 668,328 669,327 669,327 669,327 669,327 669,327 669,327 669,326 669,326 669,326 669,326 669,325 669,325 669,325 670,324 670,324 670,324 670,324 670,324 670,324 670,324 670,324 670,324 670,324 670,324 670,324 670,324 671,324 671,324 671,324 671,324 671,324 671,324 671,324 671,324 671,324 671,324 671,324 671,324 671,324 672,324 672,324 672,324 672,324 672,324 672,324 672,324 672,324 672,324 672,324 672,324 672,324 672,324 673,324 673,324 673,324 673,324 673,324 673,324 673,324 673,324 673,324 673,324 673,324 673,324 673,324 674,324 674,324 674,324 674,324 674,324 674,324 674,324 674,324 674,324 674,324 674,324 674,323 674,323 675,323 675,323 675,323 675,323 675,323 675,323 675,323 675,323 675,323 675,323 675,323 675,323 676,323 676,323 676,323 676,323 676,323 676,323 676,323 676,323 676,323 676,323 676,323 676,323 676,323 677,323 677,323 677,323 677,322 677,322 677,322 677,322 677,322 677,322 677,322 677,322 677,322 677,322 678,322 678,322 678,322 678,322 678,322 678,322 678,322 678,322 678,321 678,321 678,321 678,321 678,321 679,321 679,321 679,321 679,321 679,321 679,321 679,321 679,320 679,320 679,320 679,320 679,320 679,320 680,320 680,320 680,320 680,320 680,320 680,320 680,320 680,320 680,320 680,320 680,320 680,321 680,321 681,321 681,321 681,321 681,321 681,321 681,321 681,321 681,321 681,321 681,321 681,321 681,321 681,322 682,322 682,322 682,322 682,322 682,322 682,322 682,322 682,322 682,322 682,322 682,322 682,322 682,322 683,323 683,323 683,323 683,323 683,323 683,323 683,323 683,323 683,323 683,323 683,323 683,323 683,323 684,323 684,323 684,323 684,323 684,323 684,323 684,323 684,323 684,323 684,323 684,323 684,323 684,323 685,323 685,323 685,323 685,323 685,323 685,323 685,323 685,323 685,323 685,323 685,322 685,322 685,322 686,322 686,322 686,322 686,322 686,322 686,322 686,322 686,322 686,322 686,322 686,322 686,322 686,322 687,322 687,322 687,322 687,322 687,322 687,322 687,321 687,322 687,322 687,322 687,322 687,322 687,322 688,321 688,321 688,321 688,321 688,321 688,321 688,321 688,321 688,321 688,321 688,321 688,321 688,321 689,321 689,321 689,321 689,321 689,321 689,321 689,321 689,321 689,320 689,320 689,320 689,320 689,320 690,320 690,320 690,320 690,320 690,320 690,320 690,320 690,320 690,320 690,320 690,320 690,320 690,320 691,320 691,320 691,320 691,320 691,320 691,320 691,320 691,320 691,320 691,320 691,320 691,320 691,321 692,321 692,321 692,321 692,321 692,321 692,321 692,321 692,321 692,321 692,322 692,322 692,322 692,322 693,322 693,322 693,322 693,322 693,322 693,322 693,322 693,322 693,322 693,322 693,323 693,323 693,323 694,323 694,323 694,323 694,323 694,323 694,323 694,323 694,323 694,323 694,323 694,323 694,323 694,323 695,323 695,323 695,323 695,323 695,323 695,323 695,322 695,322 695,322 695,322 695,322 695,321 695,321 696,321 696,321 696,321 696,321 696,321 696,321 696,321 696,321 696,321 696,321 696,321 696,321 697,320 697,320 697,320 697,320 697,320 697,320 697,320 697,320 697,320 697,320 697,320 697,319 697,319 698,319 698,319 698,319 698,319 698,319 698,318 698,318 698,318 698,318 698,318 698,318 698,318 698,318 699,317 699,317 699,317 699,317 699,317 699,317 699,317 699,317 699,316 699,316 699,316 699,316 699,316 700,316 700,316 700,316 700,315 700,315 700,315 700,315 700,315 700,315 700,315 700,315 700,314 700,314 701,314 701,314 701,314 701,314 701,314 701,313 701,313 701,313 701,313 701,313 701,313 701,313 701,312 702,312 702,312 702,312 702,312 702,312 702,312 702,311 702,311 702,311 702,311 702,311 702,310 702,310 703,310 703,310 703,310 703,310 703,309 703,309 703,309 703,309 703,309 703,309 703,308 703,308 703,308 704,308 704,308 704,307 704,307 704,307 704,307 704,307 704,307 704,307 704,307 704,307 704,307 704,307 705,307 705,306 705,306 705,306 705,306 705,306 705,306 705,306 705,306 705,306 705,306 705,306 705,305 706,305 706,305 706,305 706,305 706,305 706,305 706,304 706,304 706,304 706,304 706,304 706,303 706,303 707,303 707,303 707,303 707,303 707,303 707,302 707,302 707,302 707,302 707,302 707,302 707,301 707,301 708,301 708,301 708,301 708,301 708,301 708,300 708,300 708,300 708,300 708,299 708,299 708,299 708,299 709,299 709,299 709,299 709,299 709,298 709,298 709,298 709,298 709,298 709,298 709,298 709,298 709,298 710,297 710,297 710,297 710,297 710,297 710,297 710,296 710,296 710,296 710,296 710,296 710,295 710,295 711,295 711,295 711,295 711,295 711,295 711,295 711,295 711,295 711,295 711,295 711,294 711,294 711,294 712,294 712,294 712,294 712,294 712,294 712,294 712,294 712,294 712,294 712,294 712,294 712,293 712,293 713,293 713,293 713,293 713,293 713,293 713,293 713,293 713,292 713,292 713,292 713,292 713,292 713,292 714,292 714,292 714,292 714,292 714,292 714,292 714,291 714,291 714,291 714,291 714,291 714,291 714,291 715,291 715,291 715,291 715,291 715,291 715,291 715,291 715,291 715,291 715,291 715,291 715,291 715,291 716,291 716,291 716,291 716,291 716,291 716,291 716,291 716,291 716,291 716,291 716,291 716,292 716,292 717,292 717,292 717,292 717,292 717,292 717,292 717,292 717,292 717,292 717,292 717,292 717,292 718,293 718,293 718,293 718,293 718,293 718,294 718,294 718,294 718,294 718,294 718,294 718,294 718,294 719,295 719,295 719,295 719,295 719,295 719,295 719,295 719,295 719,296 719,296 719,296 719,296 719,296 720,296 720,296 720,296 720,296 720,297 720,297 720,297 720,296 720,297 720,297 720,297 720,297 720,297 721,298 721,298 721,298 721,299 721,299 721,299 721,299 721,299 721,299 721,299 721,299 721,300 721,300 722,300 722,300 722,300 722,300 722,300 722,301 722,301 722,301 722,301 722,301 722,301 722,302 722,302 723,302 723,302 723,302 723,302 723,302 723,302 723,302 723,303 723,303 723,303 723,303 723,303 723,304 724,304 724,304 724,304 724,304 724,304 724,304 724,304 724,304 724,304 724,304 724,304 724,304 724,304 725,304 725,304 725,304 725,304 725,304 725,304 725,304 725,304 725,304 725,304 725,304 725,304 725,304 726,304 726,304 726,304 726,304 726,304 726,304 726,304 726,304 726,304 726,304 726,304 726,304 726,304 727,304 727,304 727,304 727,303 727,303 727,303 727,303 727,303 727,303 727,303 727,303 727,303 727,303 728,303 728,303 728,303 728,303 728,303 728,303 728,303 728,303 728,303 728,303 728,303 728,303 728,303 729,303 729,303 729,303 729,303 729,302 729,302 729,302 729,302 729,302 729,302 729,302 729,302 729,302 730,302 730,302 730,302 730,302 730,302 730,302 730,302 730,302 730,302 730,302 730,302 730,302 730,302 731,302 731,302 731,302 731,302 731,302 731,303 731,303 731,303 731,303 731,303 731,303 731,303 731,303 732,304 732,304 732,304 732,304 732,304 732,304 732,304 732,304 732,305 732,305 732,305 732,305 732,305 733,305 733,305 733,305 733,305 733,306 733,306 733,306 733,306 733,306 733,306 733,306 733,306 733,306 734,306 734,307 734,307 734,307 734,307 734,307 734,307 734,307 734,307 734,306 734,306 734,306 734,306 735,306 735,306 735,306 735,306 735,306 735,306 735,306 735,306 735,306 735,306 735,306 735,306 735,306 736,306 736,306 736,306 736,306 736,306 736,306 736,306 736,306 736,307 736,307 736,307 " vector-effect="non-scaling-stroke"></polyline>
</g></svg>