<?xml version="1.0" encoding="UTF-8" standalone="no"?><svg width="282.222mm" height="141.111mm" xmlns="http://www.w3.org/2000/svg" xmlns:xlink="http://www.w3.org/1999/xlink"  version="1.2" baseProfile="tiny"><g fill="none" stroke="#ff0000" stroke-linecap="round" stroke-linejoin="round" stroke-opacity="1" stroke-width="1.5" transform="matrix(1,0,0,1,0,0)">
<polyline fill="none" points="56,315 56,315 56,315 56,315 56,316 56,316 56,317 56,317 56,317 56,318 56,318 56,318 57,319 57,319 57,319 57,319 57,319 57,319 57,319 57,319 57,319 57,319 57,319 57,319 57,319 58,318 58,318 58,318 58,317 58,317 58,317 58,316 58,316 58,316 58,316 58,316 58,316 59,316 59,315 59,315 59,315 59,315 59,315 59,315 59,315 59,315 59,315 59,315 59,315 59,315 60,315 60,315 60,316 60,316 60,316 60,316 60,317 60,317 60,317 60,318 60,318 60,318 60,318 61,318 61,318 61,318 61,318 61,318 61,317 61,317 61,317 61,317 61,317 61,317 61,317 61,317 62,316 62,316 62,316 62,316 62,316 62,316 62,316 62,316 62,315 62,315 62,315 62,315 62,315 63,315 63,315 63,315 63,314 63,314 63,314 63,314 63,314 63,314 63,313 63,313 63,313 63,313 64,313 64,313 64,313 64,313 64,313 64,312 64,312 64,312 64,312 64,312 64,312 64,311 64,311 65,311 65,311 65,311 65,311 65,311 65,311 65,310 65,310 65,310 65,310 65,310 65,310 65,310 66,310 66,310 66,309 66,309 66,309 66,309 66,309 66,309 66,309 66,309 66,309 66,309 66,308 67,308 67,308 67,308 67,308 67,308 67,308 67,308 67,308 67,307 67,307 67,307 67,307 67,307 68,307 68,307 68,307 68,307 68,307 68,307 68,307 68,307 68,307 68,307 68,307 68,307 68,307 69,307 69,307 69,307 69,307 69,307 69,307 69,307 69,307 69,307 69,307 69,307 69,307 69,307 70,307 70,307 70,307 70,307 70,307 70,307 70,307 70,307 70,307 70,307 70,307 70,307 70,307 71,307 71,307 71,307 71,306 71,306 71,306 71,306 71,306 71,306 71,305 71,305 71,305 71,305 72,305 72,305 72,304 72,304 72,304 72,304 72,304 72,304 72,304 72,304 72,304 72,303 72,303 73,303 73,303 73,303 73,303 73,304 73,303 73,303 73,303 73,303 73,303 73,303 73,304 73,304 74,304 74,304 74,304 74,304 74,305 74,305 74,305 74,305 74,305 74,305 74,306 74,305 74,305 75,305 75,306 75,306 75,306 75,306 75,306 75,306 75,306 75,306 75,306 75,306 75,306 75,306 76,307 76,307 76,307 76,307 76,307 76,307 76,307 76,307 76,307 76,307 76,307 76,307 76,307 77,307 77,307 77,307 77,307 77,307 77,307 77,307 77,307 77,307 77,307 77,307 77,308 77,308 78,308 78,308 78,308 78,308 78,308 78,307 78,307 78,307 78,307 78,307 78,307 78,308 78,308 79,308 79,308 79,308 79,308 79,308 79,308 79,308 79,308 79,308 79,308 79,308 79,308 80,308 80,309 80,309 80,309 80,309 80,309 80,309 80,309 80,309 80,309 80,309 80,309 80,309 81,309 81,309 81,309 81,309 81,308 81,308 81,308 81,308 81,308 81,308 81,308 81,308 81,308 82,308 82,308 82,308 82,308 82,308 82,308 82,308 82,307 82,307 82,307 82,307 82,307 82,307 83,307 83,307 83,308 83,308 83,308 83,308 83,308 83,308 83,308 83,308 83,308 83,308 83,308 84,309 84,309 84,309 84,309 84,310 84,310 84,310 84,310 84,310 84,311 84,312 84,311 84,310 85,309 85,308 85,307 85,307 85,306 85,306 85,306 85,306 85,306 85,305 85,305 85,305 85,305 86,305 86,305 86,304 86,304 86,304 86,304 86,304 86,304 86,304 86,303 86,303 86,303 86,303 87,303 87,303 87,303 87,303 87,303 87,303 87,303 87,302 87,302 87,302 87,302 87,302 87,302 88,302 88,301 88,301 88,301 88,301 88,301 88,301 88,301 88,300 88,300 88,300 88,300 88,300 89,299 89,299 89,299 89,299 89,299 89,299 89,299 89,298 89,298 89,298 89,298 89,298 89,298 90,298 90,297 90,297 90,297 90,297 90,297 90,297 90,297 90,296 90,296 90,296 90,296 90,296 91,296 91,296 91,296 91,296 91,296 91,296 91,296 91,296 91,296 91,296 91,296 91,296 91,296 92,296 92,296 92,296 92,296 92,296 92,296 92,296 92,296 92,296 92,296 92,296 92,296 92,296 93,296 93,296 93,296 93,296 93,296 93,296 93,296 93,296 93,296 93,296 93,296 93,296 93,296 94,296 94,296 94,296 94,296 94,296 94,296 94,296 94,297 94,296 94,296 94,297 94,297 94,297 95,296 95,296 95,296 95,296 95,296 95,296 95,296 95,296 95,296 95,296 95,296 95,296 95,295 96,295 96,295 96,295 96,295 96,295 96,295 96,295 96,295 96,295 96,295 96,295 96,295 96,295 97,294 97,294 97,294 97,294 97,293 97,293 97,293 97,293 97,293 97,292 97,292 97,292 97,292 98,292 98,292 98,292 98,291 98,291 98,291 98,291 98,291 98,291 98,291 98,291 98,291 98,291 99,291 99,291 99,291 99,290 99,290 99,290 99,290 99,290 99,290 99,290 99,290 99,289 100,289 100,289 100,289 100,289 100,289 100,289 100,288 100,288 100,288 100,288 100,287 100,287 100,287 101,287 101,287 101,287 101,287 101,287 101,286 101,286 101,286 101,286 101,286 101,286 101,285 101,285 102,285 102,285 102,285 102,285 102,285 102,285 102,285 102,285 102,285 102,285 102,285 102,285 102,285 103,285 103,285 103,285 103,284 103,284 103,284 103,284 103,284 103,284 103,284 103,284 103,283 103,283 104,283 104,283 104,283 104,283 104,283 104,283 104,282 104,282 104,282 104,282 104,282 104,282 104,281 105,281 105,281 105,281 105,281 105,281 105,281 105,281 105,280 105,280 105,279 105,279 105,279 105,279 106,279 106,279 106,279 106,279 106,279 106,279 106,279 106,279 106,279 106,279 106,278 106,278 106,278 107,278 107,278 107,278 107,278 107,277 107,277 107,277 107,277 107,277 107,277 107,277 107,276 107,276 108,276 108,276 108,276 108,276 108,275 108,275 108,275 108,275 108,275 108,275 108,275 108,275 108,275 109,275 109,275 109,274 109,274 109,274 109,274 109,274 109,274 109,274 109,274 109,273 109,273 109,273 110,273 110,273 110,273 110,273 110,272 110,272 110,272 110,272 110,272 110,272 110,271 110,272 110,272 111,272 111,272 111,272 111,271 111,271 111,271 111,271 111,271 111,270 111,270 111,270 111,270 111,271 112,270 112,270 112,269 112,269 112,269 112,268 112,268 112,268 112,268 112,267 112,267 112,266 112,266 113,266 113,266 113,266 113,266 113,266 113,265 113,265 113,265 113,265 113,264 113,264 113,263 113,263 114,263 114,262 114,262 114,262 114,261 114,261 114,260 114,260 114,260 114,259 114,259 114,259 114,259 115,259 115,259 115,259 115,258 115,258 115,258 115,258 115,258 115,258 115,258 115,257 115,257 115,257 116,257 116,257 116,257 116,256 116,256 116,256 116,256 116,256 116,255 116,255 116,255 116,255 116,255 117,255 117,254 117,254 117,254 117,253 117,253 117,253 117,253 117,252 117,252 117,252 117,252 117,252 118,251 118,251 118,251 118,251 118,250 118,250 118,249 118,249 118,249 118,248 118,248 118,247 118,247 119,247 119,247 119,246 119,246 119,246 119,245 119,245 119,244 119,244 119,243 119,242 119,242 119,241 120,240 120,240 120,239 120,239 120,238 120,238 120,237 120,237 120,237 120,237 120,236 120,236 121,236 121,236 121,236 121,236 121,236 121,236 121,237 121,237 121,237 121,237 121,237 121,237 121,237 122,237 122,237 122,237 122,237 122,237 122,237 122,237 122,237 122,237 122,237 122,237 122,237 122,237 123,237 123,237 123,237 123,236 123,236 123,235 123,235 123,234 123,234 123,233 123,233 123,232 123,231 124,231 124,230 124,229 124,228 124,228 124,227 124,226 124,225 124,224 124,223 124,222 124,222 124,221 125,220 125,219 125,218 125,217 125,216 125,215 125,215 125,214 125,213 125,213 125,212 125,211 125,211 126,210 126,210 126,209 126,209 126,208 126,208 126,207 126,207 126,207 126,207 126,207 126,207 126,207 127,207 127,207 127,207 127,207 127,207 127,207 127,207 127,207 127,207 127,207 127,207 127,207 127,207 128,207 128,207 128,207 128,207 128,207 128,207 128,207 128,206 128,206 128,207 128,207 128,207 128,207 129,207 129,207 129,208 129,209 129,209 129,210 129,210 129,211 129,211 129,212 129,212 129,213 129,213 130,213 130,213 130,213 130,213 130,213 130,213 130,212 130,212 130,211 130,210 130,209 130,209 130,209 131,208 131,208 131,208 131,207 131,207 131,207 131,206 131,205 131,204 131,203 131,203 131,202 131,202 132,201 132,201 132,201 132,201 132,201 132,201 132,201 132,201 132,200 132,200 132,200 132,200 132,200 133,200 133,201 133,201 133,201 133,201 133,202 133,203 133,204 133,204 133,205 133,205 133,205 133,206 134,206 134,207 134,208 134,209 134,209 134,210 134,211 134,211 134,212 134,212 134,213 134,213 134,212 135,213 135,213 135,212 135,211 135,210 135,210 135,209 135,208 135,206 135,205 135,205 135,204 135,204 136,204 136,204 136,204 136,204 136,204 136,204 136,204 136,204 136,204 136,204 136,205 136,205 136,205 137,204 137,204 137,204 137,204 137,204 137,204 137,204 137,205 137,206 137,207 137,207 137,208 137,209 138,210 138,211 138,212 138,213 138,214 138,215 138,217 138,218 138,219 138,219 138,220 138,220 138,220 139,219 139,218 139,218 139,217 139,217 139,216 139,216 139,216 139,217 139,217 139,217 139,217 139,217 140,217 140,217 140,217 140,217 140,217 140,217 140,217 140,217 140,217 140,217 140,217 140,216 141,216 141,216 141,217 141,218 141,219 141,219 141,219 141,219 141,218 141,219 141,220 141,221 141,222 142,223 142,225 142,225 142,226 142,227 142,227 142,228 142,228 142,229 142,229 142,230 142,230 142,230 143,230 143,230 143,230 143,230 143,230 143,230 143,230 143,230 143,229 143,229 143,229 143,229 143,229 144,228 144,228 144,228 144,228 144,228 144,228 144,228 144,229 144,229 144,229 144,230 144,230 144,230 145,231 145,231 145,231 145,231 145,232 145,231 145,231 145,231 145,230 145,230 145,229 145,229 145,229 146,228 146,228 146,227 146,226 146,226 146,226 146,225 146,225 146,225 146,225 146,225 146,225 146,225 147,225 147,225 147,224 147,224 147,224 147,224 147,224 147,224 147,224 147,224 147,224 147,223 147,223 148,223 148,223 148,223 148,223 148,222 148,222 148,222 148,222 148,222 148,221 148,221 148,221 148,221 149,221 149,221 149,221 149,221 149,221 149,220 149,220 149,220 149,220 149,220 149,220 149,219 149,219 150,219 150,219 150,219 150,219 150,218 150,218 150,218 150,218 150,217 150,217 150,217 150,217 150,217 151,217 151,216 151,216 151,216 151,215 151,215 151,215 151,215 151,215 151,214 151,214 151,214 151,214 152,214 152,213 152,213 152,213 152,213 152,213 152,212 152,212 152,212 152,211 152,211 152,211 152,211 153,211 153,211 153,210 153,210 153,210 153,210 153,210 153,210 153,209 153,209 153,209 153,209 153,209 154,209 154,209 154,209 154,209 154,209 154,209 154,209 154,209 154,209 154,210 154,210 154,210 154,210 155,210 155,211 155,211 155,211 155,211 155,211 155,211 155,211 155,211 155,211 155,211 155,211 155,212 156,212 156,212 156,212 156,212 156,212 156,212 156,212 156,213 156,213 156,213 156,213 156,213 156,213 157,214 157,214 157,214 157,214 157,214 157,215 157,215 157,215 157,215 157,215 157,215 157,215 157,216 158,216 158,216 158,216 158,216 158,216 158,216 158,217 158,217 158,217 158,217 158,217 158,217 158,217 159,217 159,217 159,217 159,217 159,217 159,217 159,217 159,217 159,217 159,218 159,218 159,218 159,218 160,218 160,218 160,218 160,218 160,219 160,219 160,219 160,219 160,219 160,219 160,219 160,219 160,220 161,220 161,220 161,219 161,219 161,219 161,219 161,219 161,219 161,219 161,219 161,219 161,219 162,219 162,219 162,219 162,218 162,218 162,218 162,218 162,218 162,218 162,218 162,217 162,217 162,217 163,217 163,217 163,217 163,217 163,217 163,217 163,217 163,217 163,216 163,216 163,216 163,216 163,216 164,216 164,216 164,216 164,217 164,217 164,217 164,217 164,217 164,217 164,217 164,217 164,217 164,217 165,217 165,217 165,216 165,216 165,217 165,217 165,217 165,216 165,216 165,216 165,216 165,216 165,216 166,216 166,216 166,216 166,216 166,216 166,216 166,216 166,216 166,216 166,216 166,216 166,216 166,216 167,215 167,216 167,216 167,216 167,216 167,215 167,215 167,215 167,215 167,215 167,215 167,215 167,215 168,215 168,215 168,215 168,215 168,215 168,215 168,214 168,214 168,214 168,214 168,214 168,214 168,213 169,213 169,213 169,213 169,213 169,212 169,212 169,212 169,212 169,211 169,211 169,211 169,210 169,210 170,210 170,210 170,209 170,209 170,209 170,208 170,208 170,207 170,207 170,207 170,207 170,206 170,206 171,206 171,206 171,205 171,205 171,204 171,204 171,204 171,204 171,204 171,204 171,204 171,203 171,203 172,203 172,202 172,202 172,202 172,202 172,202 172,201 172,201 172,201 172,201 172,200 172,200 172,200 173,200 173,200 173,200 173,199 173,199 173,199 173,199 173,199 173,198 173,198 173,198 173,198 173,198 174,198 174,198 174,198 174,198 174,198 174,198 174,198 174,198 174,198 174,198 174,198 174,198 174,198 175,198 175,197 175,197 175,197 175,198 175,198 175,198 175,198 175,198 175,199 175,199 175,199 175,199 176,199 176,199 176,199 176,200 176,200 176,200 176,200 176,200 176,200 176,200 176,200 176,200 176,201 177,201 177,201 177,201 177,201 177,201 177,201 177,201 177,201 177,201 177,201 177,200 177,200 177,200 178,200 178,200 178,200 178,200 178,200 178,200 178,200 178,200 178,200 178,200 178,200 178,200 178,200 179,200 179,200 179,200 179,200 179,200 179,200 179,201 179,201 179,201 179,201 179,201 179,202 179,201 180,201 180,201 180,201 180,201 180,201 180,200 180,200 180,199 180,199 180,198 180,198 180,198 180,197 181,197 181,197 181,197 181,196 181,196 181,196 181,196 181,195 181,195 181,194 181,194 181,194 181,193 182,193 182,193 182,192 182,192 182,192 182,192 182,191 182,191 182,191 182,190 182,191 182,191 183,191 183,191 183,190 183,190 183,190 183,191 183,191 183,191 183,191 183,191 183,192 183,192 183,192 184,192 184,193 184,193 184,194 184,194 184,194 184,194 184,194 184,195 184,195 184,195 184,195 184,196 185,196 185,196 185,196 185,197 185,197 185,197 185,198 185,198 185,198 185,198 185,198 185,198 185,198 186,198 186,198 186,198 186,198 186,198 186,198 186,199 186,199 186,199 186,200 186,199 186,199 186,198 187,198 187,197 187,197 187,197 187,197 187,197 187,197 187,197 187,197 187,197 187,197 187,197 187,197 188,197 188,196 188,196 188,196 188,196 188,196 188,196 188,195 188,195 188,195 188,195 188,195 188,195 189,194 189,194 189,194 189,194 189,194 189,194 189,193 189,193 189,193 189,193 189,193 189,193 189,193 190,193 190,193 190,193 190,193 190,193 190,193 190,193 190,193 190,193 190,193 190,193 190,193 190,193 191,193 191,193 191,193 191,193 191,193 191,193 191,193 191,193 191,193 191,193 191,193 191,193 191,193 192,193 192,194 192,194 192,194 192,193 192,193 192,193 192,193 192,193 192,194 192,194 192,194 192,194 193,195 193,195 193,195 193,196 193,196 193,197 193,197 193,198 193,198 193,198 193,198 193,198 193,198 194,197 194,197 194,196 194,196 194,196 194,196 194,196 194,196 194,196 194,195 194,195 194,195 194,195 195,196 195,195 195,195 195,195 195,195 195,195 195,195 195,195 195,195 195,194 195,194 195,194 195,194 196,194 196,194 196,194 196,194 196,194 196,194 196,194 196,194 196,195 196,195 196,195 196,195 196,195 197,196 197,196 197,196 197,196 197,197 197,197 197,197 197,197 197,198 197,198 197,198 197,198 197,198 198,199 198,199 198,199 198,199 198,200 198,200 198,200 198,200 198,200 198,200 198,200 198,200 198,200 199,200 199,200 199,200 199,200 199,200 199,200 199,201 199,201 199,201 199,201 199,201 199,201 199,201 200,201 200,200 200,200 200,200 200,200 200,200 200,199 200,199 200,198 200,198 200,197 200,197 200,197 201,197 201,197 201,196 201,196 201,196 201,196 201,196 201,196 201,196 201,195 201,195 201,195 201,195 202,195 202,195 202,195 202,195 202,195 202,194 202,194 202,194 202,194 202,194 202,194 202,194 203,194 203,194 203,194 203,194 203,193 203,193 203,193 203,193 203,193 203,193 203,193 203,193 203,193 204,193 204,193 204,193 204,193 204,193 204,193 204,193 204,193 204,193 204,193 204,193 204,193 204,193 205,194 205,194 205,194 205,194 205,194 205,194 205,194 205,195 205,195 205,195 205,195 205,195 205,195 206,195 206,195 206,195 206,196 206,196 206,196 206,196 206,196 206,196 206,196 206,196 206,196 206,196 207,196 207,196 207,196 207,196 207,196 207,196 207,196 207,196 207,196 207,196 207,196 207,196 207,196 208,196 208,196 208,196 208,196 208,196 208,196 208,196 208,196 208,196 208,196 208,196 208,196 208,196 209,196 209,197 209,197 209,197 209,197 209,197 209,197 209,196 209,196 209,196 209,196 209,196 209,196 210,196 210,196 210,196 210,196 210,196 210,196 210,196 210,196 210,196 210,196 210,196 210,196 210,196 211,196 211,196 211,197 211,197 211,198 211,198 211,198 211,198 211,198 211,198 211,198 211,198 211,198 212,198 212,198 212,198 212,198 212,199 212,199 212,199 212,199 212,200 212,200 212,200 212,200 212,200 213,201 213,201 213,201 213,201 213,201 213,201 213,202 213,202 213,202 213,202 213,203 213,203 213,203 214,203 214,203 214,203 214,203 214,204 214,204 214,204 214,204 214,204 214,204 214,204 214,205 214,205 215,205 215,205 215,205 215,205 215,206 215,206 215,206 215,206 215,206 215,206 215,206 215,206 215,206 216,206 216,206 216,206 216,206 216,205 216,205 216,205 216,205 216,204 216,204 216,204 216,204 216,203 217,203 217,203 217,203 217,202 217,202 217,202 217,202 217,201 217,201 217,200 217,200 217,200 217,199 218,199 218,199 218,199 218,199 218,199 218,199 218,199 218,198 218,198 218,198 218,198 218,198 218,197 219,197 219,197 219,197 219,197 219,197 219,197 219,196 219,196 219,196 219,196 219,196 219,196 219,196 220,196 220,196 220,196 220,196 220,196 220,196 220,196 220,196 220,196 220,196 220,195 220,195 220,195 221,195 221,195 221,196 221,196 221,196 221,196 221,196 221,196 221,196 221,196 221,196 221,196 221,196 222,197 222,197 222,197 222,197 222,197 222,198 222,198 222,198 222,198 222,198 222,199 222,199 222,199 223,199 223,200 223,200 223,200 223,200 223,200 223,200 223,200 223,201 223,201 223,201 223,201 224,201 224,202 224,202 224,202 224,202 224,202 224,202 224,202 224,202 224,202 224,202 224,203 224,203 225,203 225,203 225,203 225,203 225,203 225,203 225,203 225,203 225,203 225,203 225,203 225,203 225,204 226,204 226,203 226,203 226,203 226,203 226,203 226,203 226,203 226,203 226,203 226,203 226,203 226,203 227,203 227,203 227,203 227,203 227,203 227,203 227,203 227,203 227,203 227,203 227,203 227,203 227,203 228,203 228,203 228,203 228,203 228,203 228,203 228,203 228,203 228,202 228,202 228,202 228,202 228,202 229,202 229,202 229,202 229,202 229,202 229,202 229,202 229,202 229,201 229,201 229,201 229,201 229,201 230,201 230,201 230,201 230,201 230,201 230,201 230,201 230,201 230,201 230,201 230,201 230,201 230,201 231,201 231,201 231,201 231,201 231,201 231,201 231,201 231,201 231,201 231,201 231,201 231,201 231,201 232,201 232,201 232,201 232,201 232,201 232,201 232,201 232,201 232,201 232,202 232,202 232,202 232,202 233,202 233,202 233,202 233,202 233,202 233,202 233,202 233,202 233,202 233,202 233,202 233,202 233,202 234,202 234,202 234,202 234,202 234,202 234,203 234,203 234,203 234,203 234,203 234,203 234,203 234,203 235,204 235,204 235,204 235,204 235,204 235,204 235,204 235,205 235,205 235,205 235,205 235,205 235,205 236,205 236,205 236,205 236,205 236,205 236,205 236,206 236,206 236,206 236,206 236,206 236,206 236,206 237,206 237,206 237,206 237,206 237,206 237,206 237,206 237,207 237,207 237,207 237,207 237,207 237,207 238,207 238,207 238,208 238,208 238,208 238,208 238,208 238,208 238,208 238,208 238,208 238,208 238,208 239,208 239,208 239,208 239,208 239,209 239,209 239,209 239,209 239,209 239,209 239,210 239,210 239,210 240,210 240,210 240,210 240,210 240,210 240,210 240,210 240,210 240,210 240,210 240,210 240,210 240,210 241,210 241,210 241,210 241,210 241,210 241,210 241,210 241,210 241,210 241,210 241,210 241,210 241,210 242,210 242,210 242,210 242,210 242,210 242,210 242,210 242,210 242,209 242,209 242,209 242,208 242,208 243,209 243,209 243,209 243,209 243,209 243,209 243,209 243,208 243,208 243,208 243,208 243,208 243,208 244,208 244,208 244,208 244,208 244,208 244,209 244,209 244,209 244,209 244,208 244,208 244,208 245,208 245,208 245,208 245,209 245,209 245,209 245,209 245,209 245,209 245,209 245,209 245,209 245,209 246,209 246,209 246,210 246,210 246,210 246,209 246,209 246,209 246,208 246,208 246,208 246,208 246,208 247,208 247,208 247,209 247,209 247,209 247,209 247,209 247,210 247,210 247,210 247,210 247,210 247,210 248,210 248,210 248,210 248,210 248,210 248,210 248,210 248,210 248,209 248,209 248,209 248,209 248,209 249,209 249,209 249,209 249,209 249,209 249,209 249,209 249,209 249,209 249,209 249,209 249,209 249,209 250,209 250,209 250,208 250,208 250,208 250,208 250,209 250,208 250,208 250,208 250,209 250,209 250,209 251,209 251,209 251,209 251,209 251,209 251,209 251,208 251,208 251,208 251,208 251,208 251,208 251,208 252,208 252,208 252,208 252,208 252,208 252,208 252,208 252,208 252,208 252,208 252,208 252,208 252,208 253,208 253,208 253,208 253,208 253,208 253,208 253,208 253,208 253,208 253,208 253,207 253,207 253,207 254,207 254,208 254,207 254,207 254,207 254,207 254,207 254,207 254,207 254,207 254,207 254,207 254,208 255,208 255,208 255,208 255,207 255,207 255,207 255,207 255,206 255,206 255,207 255,207 255,207 255,207 256,207 256,207 256,207 256,207 256,207 256,207 256,207 256,206 256,206 256,206 256,206 256,206 256,206 257,206 257,206 257,206 257,206 257,207 257,207 257,207 257,207 257,207 257,207 257,206 257,206 257,206 258,206 258,206 258,206 258,206 258,206 258,206 258,206 258,206 258,206 258,206 258,206 258,207 258,207 259,206 259,206 259,206 259,206 259,206 259,206 259,207 259,207 259,207 259,207 259,207 259,207 259,206 260,206 260,206 260,206 260,206 260,206 260,207 260,207 260,207 260,207 260,207 260,207 260,207 260,207 261,207 261,207 261,207 261,206 261,206 261,206 261,206 261,206 261,206 261,206 261,206 261,206 261,206 262,206 262,206 262,206 262,206 262,206 262,206 262,206 262,206 262,206 262,206 262,206 262,206 262,206 263,206 263,206 263,206 263,206 263,206 263,206 263,206 263,206 263,205 263,205 263,205 263,205 263,205 264,205 264,205 264,205 264,205 264,205 264,205 264,205 264,205 264,205 264,205 264,205 264,205 265,205 265,205 265,205 265,206 265,205 265,205 265,205 265,205 265,205 265,206 265,206 265,206 265,206 266,206 266,206 266,206 266,206 266,206 266,206 266,206 266,206 266,206 266,206 266,206 266,206 266,206 267,206 267,206 267,205 267,205 267,205 267,205 267,205 267,205 267,205 267,205 267,205 267,205 267,205 268,205 268,205 268,205 268,205 268,205 268,205 268,205 268,205 268,205 268,205 268,205 268,205 268,205 269,205 269,205 269,205 269,205 269,205 269,205 269,205 269,204 269,204 269,204 269,204 269,204 269,204 270,204 270,204 270,204 270,204 270,204 270,204 270,204 270,204 270,204 270,204 270,204 270,204 270,204 271,204 271,204 271,204 271,204 271,203 271,203 271,203 271,203 271,203 271,203 271,203 271,203 271,203 272,202 272,202 272,202 272,202 272,202 272,202 272,202 272,203 272,203 272,203 272,203 272,203 272,203 273,203 273,203 273,203 273,203 273,203 273,202 273,202 273,202 273,202 273,202 273,202 273,202 273,202 274,202 274,202 274,202 274,202 274,202 274,202 274,202 274,202 274,202 274,202 274,202 274,202 274,202 275,202 275,202 275,202 275,202 275,202 275,202 275,202 275,202 275,202 275,202 275,202 275,202 275,202 276,202 276,202 276,202 276,202 276,202 276,202 276,202 276,202 276,202 276,202 276,202 276,201 276,201 277,201 277,201 277,201 277,201 277,201 277,201 277,201 277,201 277,201 277,201 277,200 277,200 277,200 278,200 278,200 278,200 278,200 278,200 278,200 278,200 278,200 278,200 278,200 278,200 278,200 278,201 279,201 279,201 279,200 279,199 279,199 279,199 279,199 279,199 279,198 279,198 279,198 279,198 279,198 280,199 280,198 280,198 280,198 280,198 280,198 280,198 280,198 280,198 280,198 280,198 280,198 280,198 281,198 281,198 281,198 281,198 281,198 281,198 281,198 281,198 281,198 281,198 281,197 281,197 281,197 282,197 282,197 282,197 282,197 282,197 282,197 282,197 282,197 282,197 282,197 282,196 282,196 282,196 283,196 283,196 283,196 283,196 283,195 283,195 283,195 283,196 283,196 283,196 283,196 283,196 283,196 284,196 284,195 284,195 284,195 284,195 284,195 284,195 284,195 284,195 284,194 284,194 284,194 284,194 285,194 285,194 285,194 285,194 285,194 285,194 285,194 285,194 285,194 285,193 285,193 285,193 286,193 286,193 286,193 286,193 286,193 286,193 286,192 286,192 286,192 286,192 286,192 286,192 286,191 287,191 287,191 287,190 287,190 287,190 287,190 287,190 287,190 287,190 287,190 287,189 287,189 287,189 288,189 288,188 288,188 288,188 288,187 288,187 288,187 288,186 288,186 288,186 288,185 288,185 288,185 289,184 289,184 289,184 289,184 289,184 289,184 289,183 289,183 289,183 289,183 289,182 289,182 289,182 290,182 290,181 290,181 290,181 290,181 290,180 290,180 290,179 290,179 290,179 290,178 290,178 290,178 291,177 291,177 291,177 291,177 291,177 291,177 291,176 291,176 291,176 291,175 291,175 291,175 291,175 292,174 292,174 292,174 292,174 292,174 292,174 292,174 292,174 292,174 292,174 292,174 292,173 292,173 293,173 293,173 293,173 293,173 293,173 293,173 293,173 293,172 293,172 293,172 293,172 293,172 293,172 294,171 294,171 294,171 294,170 294,170 294,170 294,169 294,169 294,169 294,169 294,169 294,168 294,168 295,168 295,167 295,167 295,167 295,166 295,166 295,166 295,166 295,165 295,165 295,165 295,164 295,164 296,164 296,164 296,164 296,164 296,164 296,164 296,164 296,164 296,164 296,164 296,164 296,165 296,165 297,165 297,165 297,166 297,166 297,166 297,166 297,166 297,166 297,165 297,165 297,164 297,164 297,163 298,163 298,162 298,162 298,161 298,161 298,161 298,160 298,160 298,160 298,161 298,161 298,161 298,160 299,160 299,159 299,159 299,159 299,158 299,158 299,158 299,158 299,158 299,158 299,158 299,159 299,159 300,159 300,159 300,158 300,158 300,157 300,157 300,156 300,155 300,153 300,152 300,151 300,150 300,149 301,149 301,148 301,147 301,146 301,146 301,146 301,145 301,145 301,145 301,145 301,145 301,145 301,145 302,146 302,146 302,146 302,147 302,147 302,148 302,148 302,149 302,149 302,150 302,151 302,152 302,153 303,153 303,154 303,155 303,156 303,157 303,158 303,159 303,160 303,160 303,161 303,161 303,162 303,162 304,163 304,163 304,163 304,163 304,164 304,164 304,164 304,164 304,164 304,164 304,164 304,164 304,164 305,164 305,164 305,163 305,163 305,163 305,163 305,163 305,163 305,164 305,164 305,164 305,165 306,165 306,166 306,166 306,167 306,167 306,167 306,167 306,167 306,167 306,167 306,167 306,168 306,167 307,167 307,167 307,167 307,167 307,167 307,167 307,166 307,166 307,166 307,165 307,165 307,165 307,164 308,164 308,164 308,164 308,164 308,163 308,163 308,162 308,162 308,162 308,161 308,161 308,161 308,160 309,160 309,159 309,159 309,159 309,158 309,158 309,158 309,158 309,158 309,157 309,157 309,157 309,157 310,157 310,156 310,156 310,155 310,155 310,155 310,155 310,154 310,154 310,154 310,153 310,153 310,152 311,152 311,152 311,152 311,151 311,151 311,150 311,150 311,150 311,149 311,149 311,148 311,148 311,147 312,147 312,146 312,146 312,146 312,146 312,146 312,145 312,144 312,144 312,143 312,142 312,141 312,141 313,140 313,140 313,139 313,139 313,138 313,138 313,137 313,137 313,137 313,136 313,136 313,135 313,135 314,135 314,134 314,134 314,134 314,133 314,133 314,133 314,133 314,133 314,132 314,132 314,131 314,131 315,131 315,130 315,130 315,129 315,129 315,128 315,128 315,128 315,127 315,127 315,127 315,126 315,126 316,126 316,126 316,125 316,126 316,126 316,125 316,125 316,125 316,125 316,125 316,125 316,125 316,125 317,125 317,124 317,124 317,124 317,124 317,124 317,124 317,124 317,123 317,123 317,123 317,123 317,123 318,123 318,123 318,122 318,122 318,122 318,122 318,122 318,122 318,122 318,122 318,122 318,122 318,122 319,122 319,122 319,121 319,121 319,121 319,121 319,121 319,121 319,121 319,121 319,121 319,121 319,121 320,121 320,121 320,121 320,122 320,122 320,122 320,122 320,122 320,122 320,123 320,123 320,124 320,124 321,125 321,125 321,126 321,126 321,127 321,127 321,128 321,128 321,128 321,129 321,130 321,131 321,132 322,133 322,133 322,134 322,135 322,135 322,136 322,136 322,136 322,137 322,137 322,138 322,139 322,139 323,140 323,140 323,141 323,141 323,142 323,142 323,142 323,142 323,142 323,142 323,141 323,141 323,141 324,141 324,141 324,141 324,141 324,142 324,142 324,142 324,143 324,143 324,143 324,144 324,144 324,144 325,144 325,145 325,145 325,145 325,146 325,146 325,146 325,146 325,147 325,147 325,147 325,147 325,147 326,148 326,148 326,148 326,149 326,149 326,150 326,150 326,150 326,151 326,151 326,151 326,151 327,151 327,152 327,152 327,152 327,152 327,152 327,152 327,152 327,152 327,152 327,152 327,152 327,152 328,153 328,153 328,153 328,153 328,153 328,153 328,154 328,154 328,154 328,154 328,154 328,155 328,155 329,155 329,155 329,156 329,156 329,156 329,157 329,157 329,157 329,157 329,158 329,158 329,158 329,158 330,158 330,159 330,159 330,159 330,159 330,159 330,159 330,159 330,159 330,159 330,159 330,159 330,159 331,160 331,160 331,160 331,161 331,161 331,161 331,161 331,161 331,161 331,161 331,161 331,161 331,161 332,162 332,162 332,162 332,162 332,162 332,162 332,163 332,163 332,163 332,163 332,164 332,164 332,164 333,164 333,165 333,165 333,165 333,165 333,165 333,165 333,165 333,165 333,165 333,166 333,166 333,167 334,168 334,170 334,172 334,174 334,175 334,176 334,177 334,178 334,179 334,179 334,179 334,179 334,179 335,179 335,179 335,179 335,179 335,179 335,179 335,180 335,180 335,180 335,180 335,180 335,181 335,181 336,181 336,181 336,181 336,182 336,182 336,182 336,182 336,182 336,182 336,182 336,183 336,183 336,183 337,184 337,185 337,184 337,184 337,184 337,183 337,183 337,183 337,182 337,182 337,182 337,182 337,182 338,182 338,182 338,182 338,182 338,182 338,182 338,182 338,182 338,182 338,182 338,183 338,183 338,183 339,183 339,183 339,183 339,183 339,183 339,184 339,184 339,185 339,185 339,185 339,186 339,186 339,187 340,187 340,188 340,188 340,188 340,189 340,189 340,190 340,190 340,190 340,190 340,191 340,191 340,191 341,191 341,191 341,191 341,191 341,191 341,191 341,192 341,192 341,192 341,192 341,192 341,192 341,192 342,192 342,192 342,192 342,192 342,192 342,192 342,192 342,193 342,193 342,193 342,193 342,193 342,193 343,193 343,194 343,194 343,194 343,194 343,194 343,194 343,194 343,194 343,194 343,194 343,194 343,194 344,194 344,194 344,194 344,194 344,194 344,195 344,195 344,195 344,195 344,195 344,195 344,195 344,195 345,195 345,195 345,195 345,195 345,195 345,195 345,195 345,195 345,195 345,195 345,195 345,196 345,196 346,196 346,196 346,196 346,196 346,196 346,196 346,196 346,196 346,196 346,196 346,196 346,196 346,196 347,196 347,197 347,197 347,197 347,197 347,197 347,197 347,197 347,197 347,197 347,197 347,198 348,198 348,198 348,198 348,198 348,198 348,198 348,198 348,198 348,198 348,198 348,198 348,199 348,199 349,199 349,199 349,199 349,199 349,199 349,199 349,199 349,199 349,199 349,199 349,199 349,199 349,199 350,200 350,200 350,200 350,200 350,200 350,200 350,200 350,200 350,200 350,200 350,200 350,200 350,200 351,200 351,200 351,200 351,200 351,200 351,200 351,200 351,200 351,200 351,200 351,200 351,200 351,201 352,201 352,201 352,201 352,201 352,201 352,201 352,201 352,201 352,202 352,202 352,202 352,202 352,202 353,202 353,202 353,202 353,202 353,202 353,202 353,202 353,202 353,203 353,203 353,203 353,203 353,203 354,203 354,203 354,203 354,203 354,203 354,203 354,203 354,203 354,203 354,203 354,203 354,203 354,203 355,203 355,203 355,203 355,204 355,204 355,204 355,204 355,204 355,204 355,204 355,204 355,204 355,204 356,204 356,204 356,204 356,205 356,205 356,204 356,204 356,204 356,204 356,204 356,204 356,204 356,203 357,203 357,203 357,203 357,203 357,203 357,203 357,202 357,202 357,202 357,202 357,202 357,202 357,202 358,202 358,202 358,202 358,202 358,202 358,202 358,202 358,202 358,202 358,202 358,202 358,201 358,201 359,201 359,201 359,201 359,201 359,201 359,202 359,202 359,202 359,202 359,202 359,202 359,202 359,202 360,202 360,201 360,201 360,201 360,201 360,201 360,201 360,201 360,201 360,202 360,202 360,202 360,202 361,201 361,201 361,201 361,201 361,201 361,201 361,201 361,201 361,201 361,201 361,201 361,200 361,200 362,200 362,199 362,199 362,199 362,199 362,199 362,199 362,199 362,199 362,199 362,198 362,198 362,198 363,198 363,198 363,197 363,197 363,197 363,197 363,197 363,197 363,197 363,197 363,197 363,197 363,196 364,196 364,196 364,196 364,196 364,196 364,196 364,196 364,196 364,196 364,196 364,196 364,196 364,196 365,196 365,196 365,196 365,196 365,197 365,197 365,197 365,197 365,197 365,198 365,198 365,198 365,198 366,198 366,199 366,199 366,199 366,199 366,199 366,200 366,200 366,200 366,200 366,201 366,201 366,201 367,201 367,201 367,201 367,201 367,201 367,202 367,202 367,202 367,202 367,202 367,203 367,203 368,203 368,203 368,203 368,203 368,203 368,203 368,203 368,204 368,204 368,204 368,204 368,204 368,204 369,204 369,205 369,205 369,205 369,205 369,205 369,206 369,206 369,206 369,207 369,207 369,207 369,208 370,208 370,208 370,208 370,209 370,209 370,209 370,209 370,210 370,210 370,210 370,210 370,210 370,210 371,211 371,211 371,211 371,211 371,211 371,212 371,212 371,212 371,213 371,213 371,213 371,213 371,213 372,213 372,213 372,213 372,213 372,214 372,214 372,214 372,214 372,214 372,214 372,214 372,214 372,214 373,214 373,214 373,214 373,214 373,214 373,215 373,215 373,215 373,215 373,215 373,215 373,215 373,215 374,215 374,215 374,215 374,215 374,215 374,214 374,214 374,214 374,214 374,214 374,214 374,214 374,214 375,214 375,214 375,214 375,214 375,214 375,213 375,213 375,213 375,213 375,213 375,213 375,213 375,213 376,213 376,213 376,213 376,212 376,212 376,212 376,212 376,212 376,211 376,211 376,211 376,211 376,211 377,211 377,211 377,212 377,212 377,212 377,212 377,212 377,212 377,212 377,212 377,212 377,212 377,212 378,213 378,213 378,213 378,213 378,213 378,213 378,213 378,213 378,213 378,212 378,212 378,212 378,212 379,212 379,212 379,212 379,212 379,212 379,212 379,212 379,211 379,211 379,211 379,211 379,211 379,211 380,211 380,211 380,211 380,211 380,211 380,211 380,211 380,211 380,211 380,210 380,210 380,210 380,210 381,210 381,210 381,210 381,210 381,210 381,210 381,210 381,210 381,210 381,210 381,210 381,209 381,209 382,209 382,209 382,209 382,209 382,209 382,209 382,210 382,210 382,210 382,210 382,209 382,210 382,210 383,210 383,210 383,210 383,210 383,210 383,210 383,210 383,210 383,210 383,210 383,210 383,210 383,210 384,210 384,210 384,209 384,209 384,209 384,209 384,209 384,209 384,209 384,209 384,208 384,208 384,208 385,207 385,207 385,207 385,207 385,206 385,206 385,206 385,206 385,206 385,205 385,205 385,205 385,204 386,204 386,204 386,203 386,203 386,204 386,204 386,204 386,204 386,204 386,205 386,205 386,205 386,205 387,206 387,206 387,206 387,207 387,207 387,207 387,207 387,207 387,206 387,206 387,206 387,206 387,206 388,206 388,206 388,206 388,207 388,207 388,207 388,207 388,207 388,207 388,208 388,208 388,208 389,209 389,209 389,209 389,209 389,209 389,209 389,210 389,210 389,210 389,210 389,210 389,211 389,211 390,211 390,211 390,212 390,212 390,212 390,212 390,212 390,213 390,213 390,213 390,213 390,213 390,214 391,214 391,214 391,215 391,215 391,216 391,216 391,216 391,216 391,216 391,217 391,217 391,217 391,217 392,218 392,218 392,218 392,218 392,218 392,219 392,219 392,219 392,220 392,221 392,221 392,222 392,222 393,222 393,222 393,222 393,223 393,223 393,223 393,223 393,224 393,224 393,224 393,225 393,225 393,225 394,226 394,226 394,226 394,227 394,227 394,227 394,227 394,227 394,227 394,227 394,227 394,227 394,227 395,228 395,228 395,228 395,228 395,228 395,227 395,227 395,227 395,226 395,226 395,226 395,225 395,225 396,225 396,225 396,224 396,224 396,224 396,223 396,223 396,223 396,223 396,223 396,223 396,223 396,223 397,223 397,223 397,223 397,222 397,222 397,222 397,222 397,222 397,221 397,221 397,221 397,220 397,220 398,220 398,220 398,219 398,219 398,219 398,219 398,219 398,219 398,219 398,218 398,217 398,217 398,216 399,216 399,215 399,215 399,215 399,215 399,215 399,214 399,214 399,214 399,213 399,213 399,212 399,212 400,212 400,212 400,212 400,211 400,211 400,210 400,210 400,210 400,209 400,209 400,209 400,209 400,209 401,209 401,209 401,208 401,208 401,208 401,208 401,208 401,209 401,208 401,208 401,208 401,208 401,208 402,208 402,208 402,208 402,209 402,209 402,209 402,209 402,210 402,210 402,210 402,210 402,210 402,210 403,210 403,210 403,211 403,211 403,211 403,211 403,211 403,212 403,212 403,212 403,212 403,213 403,213 404,214 404,214 404,215 404,215 404,215 404,216 404,216 404,217 404,218 404,218 404,219 404,220 404,220 405,221 405,222 405,223 405,223 405,224 405,224 405,225 405,225 405,226 405,227 405,227 405,227 405,228 406,228 406,228 406,228 406,227 406,227 406,227 406,227 406,226 406,226 406,226 406,225 406,225 406,224 407,224 407,224 407,223 407,222 407,222 407,221 407,221 407,221 407,220 407,220 407,220 407,220 407,220 408,220 408,220 408,220 408,220 408,220 408,220 408,220 408,221 408,222 408,222 408,223 408,223 408,223 409,224 409,224 409,225 409,225 409,225 409,225 409,226 409,226 409,227 409,227 409,227 409,227 410,227 410,227 410,226 410,226 410,225 410,225 410,224 410,223 410,223 410,222 410,221 410,221 410,220 411,220 411,219 411,219 411,218 411,217 411,217 411,216 411,216 411,215 411,215 411,214 411,213 411,213 412,213 412,213 412,213 412,212 412,212 412,212 412,212 412,212 412,212 412,212 412,212 412,212 412,212 413,212 413,212 413,212 413,212 413,212 413,212 413,212 413,211 413,211 413,211 413,211 413,212 413,212 414,213 414,213 414,214 414,214 414,215 414,215 414,216 414,216 414,217 414,217 414,218 414,218 414,219 415,219 415,219 415,220 415,220 415,220 415,221 415,221 415,222 415,222 415,222 415,223 415,223 415,223 416,223 416,223 416,223 416,223 416,223 416,223 416,222 416,222 416,222 416,221 416,221 416,221 416,221 417,220 417,220 417,220 417,219 417,219 417,219 417,218 417,218 417,218 417,217 417,217 417,217 417,216 418,216 418,216 418,216 418,216 418,216 418,215 418,215 418,215 418,215 418,215 418,215 418,216 418,216 419,216 419,216 419,216 419,215 419,215 419,215 419,214 419,214 419,214 419,214 419,214 419,214 419,214 420,214 420,214 420,214 420,214 420,214 420,214 420,214 420,214 420,214 420,214 420,214 420,214 420,214 421,214 421,214 421,214 421,214 421,215 421,215 421,215 421,216 421,216 421,216 421,217 421,217 421,217 422,218 422,218 422,218 422,218 422,218 422,218 422,218 422,218 422,218 422,219 422,219 422,219 422,219 423,219 423,219 423,218 423,218 423,218 423,218 423,218 423,219 423,219 423,220 423,220 423,221 423,222 424,222 424,223 424,224 424,224 424,224 424,224 424,225 424,225 424,225 424,225 424,226 424,226 424,226 425,227 425,227 425,227 425,227 425,228 425,228 425,228 425,229 425,229 425,229 425,230 425,230 425,231 426,231 426,231 426,231 426,232 426,232 426,232 426,232 426,233 426,233 426,233 426,233 426,233 426,234 427,234 427,234 427,234 427,235 427,235 427,235 427,235 427,235 427,235 427,235 427,235 427,235 427,236 428,236 428,236 428,237 428,237 428,238 428,238 428,238 428,238 428,237 428,236 428,234 428,233 428,232 429,231 429,231 429,231 429,230 429,230 429,229 429,229 429,229 429,228 429,228 429,227 429,227 430,227 430,226 430,226 430,226 430,226 430,225 430,225 430,225 430,225 430,224 430,224 430,224 430,224 431,223 431,223 431,223 431,223 431,223 431,223 431,223 431,223 431,223 431,223 431,223 431,223 431,224 432,224 432,224 432,224 432,224 432,224 432,225 432,225 432,225 432,225 432,226 432,226 432,226 432,226 433,226 433,226 433,227 433,227 433,227 433,227 433,227 433,228 433,228 433,228 433,229 433,229 433,229 434,230 434,230 434,230 434,231 434,231 434,232 434,232 434,232 434,233 434,233 434,234 434,234 434,235 435,236 435,237 435,237 435,238 435,239 435,239 435,239 435,240 435,241 435,241 435,242 435,243 435,243 436,244 436,244 436,244 436,244 436,244 436,244 436,245 436,245 436,245 436,246 436,246 436,247 436,247 437,247 437,247 437,248 437,248 437,248 437,248 437,248 437,247 437,248 437,248 437,248 437,248 437,247 438,247 438,246 438,246 438,246 438,246 438,246 438,246 438,245 438,245 438,245 438,244 438,244 438,244 439,243 439,243 439,243 439,243 439,242 439,242 439,242 439,242 439,241 439,241 439,241 439,241 439,241 440,240 440,240 440,240 440,240 440,240 440,240 440,240 440,240 440,240 440,240 440,239 440,239 440,239 441,239 441,239 441,239 441,239 441,239 441,239 441,239 441,239 441,239 441,239 441,239 441,238 441,238 442,238 442,238 442,238 442,238 442,238 442,238 442,238 442,237 442,237 442,237 442,237 442,237 442,237 443,237 443,237 443,237 443,237 443,236 443,236 443,236 443,236 443,236 443,236 443,236 443,236 443,236 444,236 444,236 444,236 444,236 444,236 444,237 444,237 444,236 444,236 444,235 444,235 444,234 444,233 445,233 445,233 445,233 445,232 445,232 445,232 445,231 445,231 445,231 445,230 445,230 445,229 445,229 446,228 446,228 446,227 446,227 446,226 446,226 446,226 446,226 446,225 446,225 446,225 446,224 446,224 447,224 447,224 447,224 447,224 447,223 447,223 447,223 447,223 447,223 447,222 447,222 447,222 447,222 448,221 448,221 448,221 448,221 448,220 448,220 448,219 448,218 448,218 448,218 448,218 448,218 448,217 449,217 449,216 449,216 449,215 449,215 449,215 449,214 449,214 449,213 449,213 449,213 449,212 449,212 450,212 450,212 450,212 450,212 450,212 450,211 450,211 450,211 450,211 450,211 450,210 450,210 451,210 451,210 451,210 451,209 451,209 451,209 451,209 451,209 451,209 451,209 451,209 451,208 451,208 452,208 452,208 452,208 452,208 452,207 452,207 452,207 452,207 452,207 452,206 452,206 452,206 452,206 453,206 453,206 453,206 453,206 453,206 453,206 453,206 453,206 453,206 453,206 453,206 453,207 453,207 454,207 454,207 454,207 454,207 454,208 454,208 454,208 454,208 454,209 454,209 454,209 454,209 454,209 455,210 455,210 455,210 455,210 455,211 455,211 455,211 455,211 455,211 455,212 455,212 455,212 455,212 456,213 456,213 456,213 456,213 456,214 456,214 456,214 456,214 456,215 456,215 456,215 456,216 456,216 457,216 457,216 457,216 457,216 457,217 457,217 457,217 457,217 457,217 457,217 457,217 457,218 457,218 458,218 458,218 458,218 458,218 458,219 458,219 458,219 458,219 458,220 458,220 458,220 458,220 458,220 459,220 459,220 459,220 459,220 459,220 459,221 459,221 459,221 459,221 459,221 459,221 459,221 459,221 460,222 460,222 460,222 460,222 460,222 460,222 460,222 460,222 460,223 460,223 460,223 460,223 460,223 461,223 461,223 461,223 461,223 461,224 461,224 461,224 461,224 461,224 461,224 461,224 461,225 461,225 462,225 462,225 462,226 462,226 462,226 462,226 462,227 462,227 462,227 462,227 462,228 462,228 462,228 463,228 463,229 463,229 463,230 463,230 463,230 463,231 463,231 463,232 463,232 463,232 463,233 463,233 464,234 464,234 464,234 464,235 464,235 464,236 464,236 464,236 464,237 464,237 464,238 464,238 464,239 465,239 465,239 465,239 465,239 465,239 465,238 465,238 465,238 465,237 465,237 465,236 465,236 465,236 466,235 466,235 466,235 466,235 466,235 466,235 466,235 466,234 466,234 466,234 466,234 466,234 466,234 467,234 467,234 467,234 467,234 467,234 467,234 467,234 467,234 467,234 467,235 467,235 467,235 467,235 468,235 468,236 468,236 468,236 468,237 468,237 468,238 468,239 468,239 468,240 468,240 468,240 468,240 469,240 469,240 469,240 469,239 469,239 469,239 469,239 469,239 469,239 469,239 469,239 469,239 469,239 470,239 470,240 470,240 470,240 470,241 470,241 470,241 470,241 470,242 470,242 470,242 470,241 471,241 471,241 471,241 471,241 471,241 471,241 471,241 471,241 471,240 471,240 471,240 471,239 471,239 472,239 472,239 472,239 472,239 472,239 472,239 472,238 472,238 472,238 472,238 472,238 472,238 472,238 473,238 473,238 473,238 473,238 473,238 473,238 473,238 473,238 473,238 473,238 473,238 473,238 473,238 474,238 474,238 474,238 474,238 474,238 474,238 474,238 474,238 474,238 474,238 474,239 474,239 474,239 475,238 475,238 475,238 475,238 475,238 475,238 475,239 475,239 475,239 475,239 475,239 475,239 475,239 476,239 476,239 476,239 476,240 476,240 476,240 476,240 476,240 476,240 476,241 476,241 476,241 476,241 477,241 477,242 477,242 477,242 477,243 477,243 477,243 477,243 477,243 477,244 477,244 477,244 477,244 478,245 478,245 478,245 478,246 478,246 478,247 478,247 478,248 478,248 478,248 478,248 478,248 478,249 479,249 479,250 479,250 479,251 479,251 479,251 479,251 479,252 479,252 479,252 479,252 479,253 479,253 480,253 480,254 480,254 480,254 480,254 480,254 480,254 480,254 480,254 480,254 480,254 480,254 480,255 481,255 481,256 481,256 481,257 481,257 481,258 481,258 481,259 481,259 481,260 481,260 481,261 481,261 482,262 482,262 482,263 482,263 482,263 482,264 482,264 482,264 482,265 482,265 482,265 482,265 482,265 483,265 483,265 483,265 483,265 483,265 483,265 483,265 483,265 483,265 483,265 483,265 483,265 483,264 484,263 484,262 484,262 484,261 484,260 484,260 484,259 484,258 484,257 484,256 484,255 484,255 484,254 485,253 485,252 485,252 485,251 485,250 485,250 485,249 485,249 485,249 485,248 485,248 485,247 485,247 486,246 486,246 486,246 486,246 486,245 486,245 486,245 486,245 486,245 486,245 486,245 486,245 486,245 487,244 487,244 487,244 487,244 487,244 487,244 487,244 487,243 487,243 487,243 487,243 487,243 487,243 488,244 488,244 488,244 488,245 488,245 488,246 488,246 488,247 488,247 488,248 488,248 488,249 488,249 489,250 489,250 489,251 489,251 489,252 489,252 489,252 489,252 489,252 489,252 489,251 489,251 489,251 490,250 490,250 490,250 490,249 490,249 490,249 490,249 490,249 490,249 490,250 490,250 490,250 490,250 491,250 491,251 491,251 491,252 491,252 491,252 491,252 491,253 491,253 491,253 491,254 491,254 492,254 492,254 492,254 492,254 492,255 492,255 492,256 492,256 492,257 492,257 492,258 492,259 492,260 493,261 493,262 493,263 493,263 493,264 493,265 493,266 493,267 493,267 493,268 493,269 493,270 493,271 494,271 494,272 494,273 494,273 494,274 494,274 494,275 494,275 494,276 494,276 494,276 494,276 494,277 495,277 495,277 495,277 495,277 495,277 495,277 495,277 495,277 495,276 495,276 495,276 495,276 495,276 496,276 496,276 496,276 496,277 496,277 496,277 496,277 496,278 496,278 496,279 496,279 496,280 496,280 497,280 497,280 497,281 497,281 497,282 497,282 497,283 497,283 497,283 497,283 497,283 497,282 497,281 498,280 498,279 498,279 498,278 498,278 498,277 498,277 498,276 498,276 498,275 498,275 498,274 498,273 499,273 499,272 499,271 499,271 499,270 499,270 499,269 499,268 499,268 499,267 499,267 499,266 499,266 500,266 500,266 500,266 500,266 500,267 500,267 500,267 500,267 500,267 500,267 500,267 500,267 500,267 501,268 501,268 501,268 501,269 501,270 501,271 501,272 501,273 501,275 501,276 501,278 501,279 501,281 502,283 502,285 502,286 502,288 502,289 502,289 502,290 502,289 502,289 502,289 502,289 502,288 502,288 503,288 503,287 503,287 503,287 503,286 503,286 503,285 503,285 503,284 503,284 503,284 503,283 503,283 504,283 504,282 504,282 504,282 504,282 504,282 504,282 504,282 504,282 504,282 504,281 504,280 504,280 505,279 505,278 505,278 505,277 505,276 505,275 505,275 505,274 505,273 505,272 505,271 505,270 505,269 506,268 506,268 506,267 506,267 506,267 506,266 506,266 506,266 506,266 506,265 506,265 506,264 506,264 507,264 507,263 507,263 507,262 507,262 507,261 507,261 507,260 507,259 507,259 507,258 507,257 507,256 508,255 508,254 508,253 508,252 508,252 508,251 508,251 508,250 508,250 508,249 508,249 508,249 508,248 509,248 509,247 509,247 509,247 509,246 509,246 509,246 509,246 509,245 509,245 509,245 509,245 509,245 510,245 510,245 510,245 510,245 510,245 510,245 510,245 510,245 510,245 510,245 510,245 510,245 510,245 511,245 511,246 511,246 511,246 511,246 511,246 511,246 511,246 511,247 511,247 511,247 511,247 511,247 512,247 512,247 512,247 512,247 512,247 512,247 512,247 512,247 512,248 512,248 512,248 512,248 513,248 513,248 513,248 513,248 513,249 513,249 513,250 513,250 513,251 513,251 513,251 513,252 513,252 514,253 514,253 514,253 514,254 514,254 514,254 514,255 514,255 514,256 514,256 514,256 514,256 514,256 515,255 515,255 515,255 515,255 515,255 515,255 515,255 515,254 515,254 515,254 515,254 515,254 515,254 516,254 516,254 516,254 516,254 516,254 516,254 516,254 516,254 516,254 516,254 516,255 516,255 516,255 517,255 517,255 517,255 517,255 517,255 517,255 517,254 517,254 517,254 517,253 517,253 517,253 517,253 518,253 518,253 518,253 518,253 518,253 518,253 518,253 518,254 518,254 518,254 518,254 518,255 518,255 519,256 519,256 519,257 519,257 519,258 519,259 519,260 519,260 519,261 519,261 519,262 519,262 519,263 520,263 520,263 520,263 520,262 520,261 520,260 520,260 520,259 520,259 520,259 520,259 520,259 520,259 521,259 521,260 521,260 521,260 521,261 521,261 521,262 521,262 521,263 521,263 521,263 521,263 521,263 522,263 522,263 522,263 522,263 522,262 522,262 522,261 522,261 522,261 522,260 522,260 522,260 522,260 523,260 523,259 523,259 523,259 523,259 523,259 523,259 523,259 523,259 523,258 523,258 523,258 523,258 524,257 524,257 524,257 524,257 524,257 524,257 524,257 524,257 524,257 524,257 524,257 524,257 524,257 525,257 525,257 525,257 525,257 525,257 525,257 525,257 525,257 525,257 525,257 525,258 525,258 525,258 526,258 526,258 526,258 526,259 526,259 526,259 526,259 526,260 526,260 526,260 526,260 526,261 526,261 527,262 527,262 527,263 527,263 527,263 527,264 527,265 527,265 527,266 527,266 527,267 527,267 527,268 528,268 528,269 528,269 528,270 528,271 528,271 528,272 528,273 528,273 528,274 528,274 528,275 528,275 529,276 529,276 529,276 529,277 529,277 529,277 529,277 529,277 529,278 529,278 529,278 529,278 529,278 530,278 530,278 530,278 530,279 530,279 530,279 530,280 530,280 530,280 530,281 530,281 530,281 530,282 531,282 531,283 531,283 531,283 531,283 531,283 531,283 531,283 531,283 531,282 531,282 531,282 531,282 532,282 532,282 532,282 532,282 532,282 532,281 532,282 532,282 532,281 532,281 532,280 532,280 533,279 533,279 533,279 533,278 533,278 533,277 533,277 533,276 533,276 533,276 533,275 533,275 533,275 534,275 534,275 534,274 534,274 534,274 534,274 534,274 534,274 534,274 534,274 534,274 534,274 534,273 535,273 535,273 535,273 535,273 535,273 535,273 535,273 535,272 535,272 535,272 535,272 535,272 535,272 536,272 536,272 536,272 536,272 536,272 536,273 536,273 536,273 536,273 536,273 536,274 536,274 536,274 537,275 537,275 537,275 537,276 537,276 537,276 537,277 537,277 537,277 537,277 537,278 537,278 537,278 538,278 538,279 538,279 538,279 538,279 538,279 538,280 538,280 538,280 538,280 538,280 538,280 538,280 539,280 539,281 539,281 539,281 539,281 539,281 539,281 539,281 539,282 539,282 539,282 539,282 539,282 540,283 540,283 540,283 540,283 540,284 540,284 540,284 540,284 540,285 540,285 540,285 540,286 540,286 541,287 541,287 541,288 541,288 541,289 541,289 541,290 541,290 541,291 541,292 541,292 541,293 541,293 542,294 542,294 542,295 542,296 542,296 542,297 542,297 542,298 542,298 542,298 542,299 542,299 542,300 543,300 543,300 543,300 543,300 543,301 543,300 543,300 543,300 543,301 543,301 543,301 543,300 543,300 544,300 544,300 544,300 544,300 544,300 544,300 544,300 544,300 544,300 544,300 544,300 544,300 544,300 545,301 545,301 545,301 545,301 545,301 545,302 545,302 545,302 545,302 545,302 545,302 545,303 545,303 546,303 546,303 546,302 546,302 546,302 546,302 546,302 546,301 546,301 546,301 546,301 546,300 546,300 547,300 547,299 547,299 547,299 547,299 547,299 547,298 547,297 547,296 547,295 547,294 547,293 547,292 548,291 548,290 548,289 548,289 548,288 548,288 548,288 548,288 548,287 548,287 548,287 548,287 548,287 549,287 549,287 549,287 549,287 549,287 549,287 549,287 549,287 549,287 549,287 549,287 549,287 549,287 550,288 550,288 550,288 550,288 550,288 550,289 550,289 550,289 550,289 550,289 550,289 550,289 550,289 551,288 551,288 551,287 551,287 551,286 551,286 551,286 551,285 551,285 551,285 551,284 551,284 551,284 552,284 552,284 552,283 552,283 552,283 552,283 552,283 552,283 552,282 552,282 552,282 552,282 552,282 553,282 553,282 553,282 553,282 553,282 553,282 553,282 553,282 553,282 553,282 553,283 553,283 554,283 554,283 554,283 554,284 554,284 554,284 554,284 554,284 554,285 554,285 554,285 554,286 554,286 555,286 555,286 555,286 555,287 555,287 555,287 555,287 555,287 555,287 555,288 555,288 555,288 555,288 556,288 556,289 556,289 556,289 556,290 556,290 556,290 556,290 556,291 556,291 556,292 556,292 556,292 557,292 557,293 557,293 557,293 557,293 557,294 557,294 557,294 557,294 557,295 557,295 557,295 557,295 558,296 558,296 558,296 558,296 558,296 558,296 558,297 558,297 558,297 558,297 558,297 558,298 558,298 559,298 559,298 559,298 559,298 559,298 559,298 559,298 559,298 559,298 559,298 559,298 559,298 559,298 560,299 560,299 560,299 560,299 560,299 560,299 560,299 560,298 560,298 560,297 560,297 560,297 560,296 561,296 561,296 561,296 561,296 561,295 561,295 561,295 561,295 561,295 561,295 561,295 561,295 561,295 562,295 562,295 562,295 562,295 562,295 562,295 562,295 562,295 562,295 562,295 562,296 562,296 562,296 563,296 563,296 563,296 563,296 563,296 563,296 563,296 563,296 563,296 563,296 563,296 563,296 563,297 564,297 564,297 564,297 564,297 564,297 564,298 564,298 564,298 564,298 564,298 564,298 564,299 564,299 565,299 565,299 565,299 565,299 565,300 565,300 565,300 565,300 565,300 565,300 565,301 565,301 565,301 566,302 566,302 566,302 566,302 566,303 566,303 566,303 566,303 566,303 566,304 566,304 566,304 566,305 567,305 567,305 567,305 567,306 567,306 567,306 567,307 567,307 567,307 567,308 567,308 567,308 567,308 568,308 568,308 568,309 568,309 568,309 568,309 568,309 568,309 568,309 568,308 568,308 568,308 568,308 569,308 569,308 569,308 569,308 569,308 569,308 569,308 569,308 569,308 569,308 569,308 569,308 569,308 570,308 570,308 570,309 570,309 570,309 570,309 570,309 570,309 570,310 570,310 570,310 570,311 570,311 571,311 571,312 571,312 571,313 571,313 571,314 571,314 571,315 571,316 571,316 571,317 571,318 571,318 572,319 572,320 572,320 572,320 572,320 572,321 572,321 572,321 572,322 572,322 572,322 572,322 572,322 573,323 573,323 573,323 573,323 573,324 573,324 573,325 573,325 573,325 573,325 573,325 573,325 573,325 574,325 574,324 574,324 574,324 574,323 574,323 574,323 574,322 574,322 574,321 574,321 574,320 575,320 575,319 575,318 575,318 575,317 575,317 575,316 575,316 575,316 575,315 575,315 575,315 575,315 576,315 576,315 576,315 576,315 576,314 576,314 576,314 576,314 576,314 576,314 576,314 576,314 576,315 577,315 577,315 577,315 577,316 577,316 577,316 577,316 577,317 577,317 577,317 577,318 577,318 577,318 578,318 578,318 578,318 578,318 578,318 578,317 578,317 578,317 578,317 578,317 578,316 578,316 578,316 579,316 579,316 579,316 579,316 579,317 579,317 579,317 579,317 579,317 579,318 579,318 579,318 579,318 580,319 580,319 580,319 580,319 580,319 580,319 580,319 580,319 580,319 580,319 580,319 580,319 580,319 581,319 581,319 581,319 581,319 581,319 581,319 581,319 581,319 581,319 581,319 581,319 581,319 581,319 582,319 582,319 582,319 582,319 582,319 582,318 582,318 582,318 582,318 582,317 582,317 582,317 582,317 583,316 583,316 583,316 583,316 583,315 583,315 583,315 583,315 583,315 583,314 583,314 583,314 583,314 584,314 584,314 584,314 584,314 584,313 584,313 584,313 584,313 584,313 584,312 584,312 584,312 584,312 585,312 585,312 585,311 585,311 585,311 585,311 585,311 585,311 585,311 585,311 585,311 585,310 585,310 586,310 586,310 586,310 586,310 586,310 586,310 586,310 586,310 586,310 586,310 586,310 586,309 586,309 587,309 587,309 587,309 587,309 587,309 587,309 587,308 587,308 587,308 587,307 587,307 587,307 587,306 588,306 588,306 588,305 588,305 588,305 588,305 588,305 588,305 588,305 588,305 588,305 588,305 588,306 589,306 589,306 589,306 589,307 589,307 589,307 589,307 589,307 589,308 589,308 589,308 589,308 589,308 590,309 590,309 590,309 590,309 590,309 590,309 590,310 590,310 590,310 590,310 590,310 590,310 590,311 591,311 591,311 591,311 591,311 591,311 591,311 591,311 591,312 591,312 591,312 591,312 591,312 591,312 592,312 592,312 592,313 592,313 592,313 592,313 592,313 592,313 592,313 592,313 592,313 592,314 592,314 593,314 593,314 593,314 593,314 593,314 593,314 593,314 593,314 593,314 593,314 593,314 593,313 593,313 594,313 594,313 594,313 594,313 594,313 594,313 594,312 594,312 594,312 594,312 594,312 594,312 595,312 595,311 595,311 595,311 595,311 595,311 595,311 595,311 595,311 595,311 595,310 595,310 595,310 596,310 596,310 596,310 596,310 596,310 596,309 596,309 596,309 596,309 596,309 596,309 596,308 596,308 597,308 597,308 597,307 597,307 597,307 597,306 597,306 597,306 597,306 597,306 597,306 597,305 597,305 598,305 598,305 598,305 598,304 598,304 598,304 598,304 598,304 598,304 598,304 598,304 598,304 598,304 599,304 599,303 599,304 599,304 599,304 599,304 599,304 599,304 599,304 599,304 599,304 599,305 599,305 600,305 600,305 600,305 600,305 600,305 600,306 600,306 600,306 600,306 600,306 600,306 600,306 600,306 601,306 601,307 601,307 601,307 601,307 601,307 601,307 601,307 601,307 601,307 601,307 601,307 601,307 602,307 602,307 602,307 602,307 602,307 602,307 602,307 602,307 602,307 602,307 602,307 602,307 602,307 603,306 603,306 603,306 603,306 603,306 603,306 603,306 603,306 603,306 603,306 603,306 603,306 603,306 604,306 604,306 604,306 604,305 604,305 604,305 604,305 604,305 604,305 604,305 604,305 604,305 604,305 605,305 605,305 605,305 605,305 605,305 605,305 605,305 605,306 605,306 605,306 605,306 605,306 605,307 606,307 606,307 606,307 606,307 606,307 606,308 606,308 606,308 606,308 606,308 606,309 606,309 606,309 607,309 607,309 607,309 607,309 607,310 607,310 607,310 607,310 607,310 607,310 607,310 607,310 607,310 608,310 608,310 608,310 608,310 608,310 608,310 608,310 608,310 608,310 608,310 608,310 608,310 608,310 609,310 609,310 609,310 609,310 609,310 609,310 609,310 609,310 609,311 609,311 609,311 609,311 609,311 610,311 610,312 610,312 610,312 610,312 610,313 610,313 610,313 610,313 610,313 610,313 610,314 610,314 611,314 611,314 611,314 611,314 611,314 611,314 611,314 611,315 611,315 611,315 611,315 611,315 611,315 612,315 612,316 612,316 612,316 612,316 612,316 612,317 612,317 612,317 612,317 612,317 612,318 612,318 613,318 613,318 613,319 613,319 613,319 613,319 613,320 613,320 613,320 613,320 613,321 613,321 613,321 614,321 614,321 614,322 614,322 614,322 614,322 614,322 614,322 614,322 614,322 614,322 614,323 614,323 615,323 615,323 615,324 615,324 615,324 615,325 615,325 615,325 615,325 615,326 615,326 615,326 616,326 616,326 616,326 616,327 616,327 616,327 616,327 616,327 616,327 616,327 616,327 616,327 616,327 617,327 617,327 617,327 617,327 617,327 617,327 617,327 617,327 617,327 617,327 617,327 617,327 617,327 618,327 618,327 618,328 618,328 618,328 618,328 618,328 618,328 618,328 618,328 618,328 618,328 618,328 619,328 619,328 619,328 619,328 619,328 619,328 619,328 619,328 619,328 619,328 619,328 619,328 619,328 620,328 620,328 620,328 620,328 620,328 620,328 620,328 620,329 620,329 620,329 620,329 620,329 620,329 621,329 621,329 621,329 621,329 621,329 621,329 621,329 621,329 621,329 621,329 621,330 621,330 621,330 622,330 622,330 622,330 622,330 622,330 622,330 622,330 622,330 622,330 622,331 622,331 622,331 622,331 623,331 623,331 623,331 623,331 623,331 623,331 623,332 623,332 623,332 623,332 623,332 623,332 623,332 624,332 624,332 624,332 624,332 624,332 624,332 624,332 624,333 624,333 624,333 624,333 624,333 624,333 625,333 625,333 625,333 625,333 625,333 625,333 625,333 625,333 625,333 625,333 625,333 625,333 625,333 626,333 626,333 626,333 626,333 626,333 626,334 626,334 626,334 626,334 626,334 626,334 626,334 626,334 627,334 627,334 627,334 627,334 627,334 627,334 627,334 627,334 627,334 627,334 627,334 627,334 627,334 628,334 628,334 628,334 628,334 628,334 628,335 628,335 628,335 628,335 628,335 628,336 628,336 628,336 629,336 629,336 629,336 629,336 629,336 629,336 629,336 629,336 629,336 629,337 629,337 629,337 629,337 630,337 630,337 630,337 630,337 630,337 630,337 630,337 630,337 630,337 630,337 630,337 630,337 630,338 631,338 631,338 631,338 631,338 631,337 631,337 631,337 631,337 631,338 631,338 631,338 631,338 631,338 632,338 632,338 632,338 632,338 632,338 632,338 632,338 632,338 632,338 632,338 632,338 632,338 632,339 633,339 633,338 633,338 633,338 633,338 633,338 633,338 633,338 633,338 633,338 633,338 633,338 633,338 634,337 634,337 634,337 634,337 634,337 634,337 634,337 634,337 634,337 634,337 634,337 634,336 634,336 635,336 635,336 635,336 635,336 635,336 635,336 635,336 635,336 635,336 635,336 635,336 635,336 636,336 636,336 636,336 636,336 636,336 636,337 636,337 636,337 636,337 636,337 636,338 636,338 636,338 637,338 637,338 637,338 637,338 637,338 637,339 637,339 637,339 637,339 637,339 637,339 637,339 637,339 638,339 638,339 638,339 638,339 638,339 638,340 638,340 638,340 638,340 638,340 638,340 638,341 638,341 639,341 639,341 639,341 639,341 639,342 639,342 639,342 639,342 639,342 639,342 639,342 639,342 639,342 640,342 640,343 640,343 640,343 640,343 640,343 640,343 640,343 640,344 640,344 640,344 640,344 640,344 641,344 641,344 641,344 641,344 641,345 641,345 641,345 641,345 641,345 641,345 641,345 641,345 641,345 642,345 642,345 642,345 642,345 642,345 642,345 642,345 642,345 642,346 642,346 642,346 642,346 642,346 643,346 643,346 643,346 643,346 643,346 643,346 643,346 643,346 643,346 643,346 643,346 643,346 643,346 644,346 644,346 644,346 644,346 644,346 644,346 644,347 644,347 644,347 644,347 644,347 644,348 644,348 645,348 645,348 645,348 645,348 645,349 645,349 645,349 645,349 645,349 645,349 645,349 645,349 645,349 646,349 646,348 646,348 646,348 646,348 646,348 646,348 646,348 646,348 646,348 646,348 646,348 646,348 647,348 647,348 647,348 647,348 647,348 647,348 647,348 647,348 647,348 647,348 647,348 647,348 647,348 648,348 648,348 648,348 648,348 648,348 648,348 648,348 648,348 648,348 648,349 648,349 648,349 648,349 649,349 649,349 649,349 649,348 649,348 649,348 649,348 649,348 649,348 649,348 649,348 649,348 649,348 650,348 650,348 650,348 650,348 650,348 650,348 650,348 650,348 650,348 650,348 650,348 650,348 650,348 651,348 651,348 651,348 651,348 651,348 651,348 651,348 651,348 651,348 651,348 651,348 651,348 651,348 652,348 652,348 652,348 652,348 652,348 652,348 652,348 652,348 652,348 652,348 652,348 652,348 652,348 653,348 653,348 653,348 653,348 653,348 653,348 653,348 653,348 653,348 653,348 653,348 653,348 653,348 654,348 654,348 654,348 654,348 654,348 654,348 654,348 654,348 654,348 654,348 654,348 654,348 654,348 655,348 655,348 655,348 655,349 655,349 655,349 655,349 655,348 655,348 655,347 655,346 655,345 655,344 656,344 656,343 656,342 656,342 656,341 656,340 656,340 656,340 656,340 656,340 656,340 656,340 657,340 657,340 657,340 657,340 657,340 657,340 657,340 657,340 657,340 657,340 657,341 657,341 657,341 658,341 658,341 658,341 658,341 658,341 658,340 658,340 658,340 658,341 658,341 658,341 658,341 658,341 659,341 659,341 659,341 659,341 659,341 659,341 659,341 659,341 659,341 659,341 659,341 659,341 659,341 660,341 660,341 660,340 660,340 660,340 660,340 660,340 660,340 660,340 660,340 660,340 660,341 660,341 661,340 661,340 661,340 661,340 661,341 661,341 661,341 661,341 661,341 661,341 661,341 661,341 661,341 662,341 662,341 662,341 662,341 662,341 662,341 662,341 662,341 662,341 662,341 662,342 662,342 662,342 663,342 663,342 663,342 663,342 663,342 663,342 663,342 663,342 663,342 663,343 663,343 663,343 663,343 664,343 664,343 664,343 664,343 664,343 664,343 664,344 664,344 664,344 664,344 664,344 664,344 664,344 665,344 665,344 665,344 665,344 665,344 665,343 665,343 665,343 665,343 665,343 665,343 665,343 665,343 666,343 666,343 666,343 666,343 666,343 666,343 666,343 666,343 666,343 666,343 666,343 666,343 666,343 667,343 667,343 667,343 667,343 667,343 667,343 667,343 667,343 667,343 667,343 667,343 667,343 667,343 668,343 668,343 668,344 668,344 668,344 668,344 668,344 668,344 668,344 668,344 668,344 668,344 668,344 669,344 669,344 669,344 669,344 669,344 669,344 669,345 669,345 669,345 669,345 669,345 669,345 669,345 670,345 670,345 670,345 670,345 670,345 670,345 670,345 670,345 670,345 670,345 670,345 670,345 670,345 671,345 671,345 671,344 671,344 671,344 671,344 671,344 671,344 671,344 671,344 671,343 671,343 671,343 672,343 672,343 672,343 672,343 672,343 672,343 672,343 672,343 672,343 672,343 672,343 672,343 672,343 673,343 673,343 673,343 673,343 673,343 673,343 673,343 673,343 673,343 673,343 673,343 673,343 673,343 674,343 674,343 674,343 674,343 674,343 674,343 674,343 674,343 674,343 674,343 674,343 674,343 674,343 675,342 675,342 675,342 675,342 675,342 675,342 675,342 675,342 675,342 675,342 675,342 675,342 675,342 676,342 676,342 676,342 676,342 676,342 676,342 676,342 676,342 676,342 676,342 676,342 676,342 676,342 677,342 677,342 677,342 677,342 677,342 677,342 677,342 677,342 677,342 677,341 677,341 677,342 678,342 678,342 678,342 678,342 678,342 678,342 678,341 678,341 678,341 678,341 678,341 678,341 678,341 679,341 679,341 679,341 679,341 679,341 679,341 679,341 679,341 679,341 679,341 679,341 679,341 679,341 680,341 680,341 680,340 680,340 680,340 680,340 680,340 680,340 680,340 680,340 680,340 680,339 680,339 681,339 681,339 681,339 681,339 681,339 681,339 681,339 681,339 681,339 681,339 681,339 681,339 681,339 682,339 682,339 682,339 682,339 682,339 682,339 682,339 682,338 682,338 682,338 682,338 682,338 682,338 683,338 683,338 683,338 683,338 683,338 683,338 683,338 683,338 683,338 683,338 683,338 683,338 683,338 684,338 684,338 684,337 684,337 684,337 684,337 684,337 684,337 684,337 684,337 684,337 684,337 684,337 685,337 685,337 685,337 685,337 685,337 685,337 685,338 685,338 685,338 685,338 685,338 685,338 685,338 686,338 686,338 686,338 686,338 686,338 686,338 686,338 686,338 686,338 686,339 686,339 686,339 686,339 687,339 687,339 687,339 687,339 687,339 687,339 687,339 687,339 687,339 687,339 687,339 687,339 687,339 688,339 688,339 688,339 688,339 688,339 688,339 688,339 688,340 688,340 688,340 688,340 688,340 688,340 689,340 689,340 689,340 689,340 689,340 689,340 689,340 689,340 689,339 689,339 689,340 689,340 689,340 690,340 690,340 690,340 690,340 690,340 690,340 690,340 690,340 690,340 690,340 690,341 690,341 690,341 691,341 691,341 691,341 691,341 691,341 691,342 691,342 691,342 691,342 691,342 691,342 691,342 691,342 692,342 692,342 692,342 692,342 692,343 692,343 692,343 692,343 692,343 692,343 692,343 692,343 692,343 693,343 693,343 693,343 693,343 693,344 693,344 693,344 693,344 693,344 693,344 693,345 693,345 693,345 694,345 694,345 694,346 694,346 694,346 694,346 694,346 694,346 694,346 694,346 694,346 694,346 694,346 695,347 695,346 695,346 695,346 695,346 695,346 695,346 695,346 695,346 695,346 695,346 695,345 695,345 696,345 696,345 696,345 696,345 696,345 696,345 696,345 696,345 696,345 696,345 696,345 696,345 696,345 697,345 697,345 697,345 697,344 697,344 697,344 697,344 697,344 697,344 697,344 697,344 697,344 698,344 698,344 698,344 698,344 698,344 698,344 698,344 698,344 698,344 698,343 698,343 698,343 698,343 699,343 699,343 699,343 699,343 699,343 699,343 699,343 699,343 699,343 699,342 699,342 699,342 699,342 700,342 700,342 700,342 700,342 700,341 700,341 700,341 700,341 700,341 700,341 700,341 700,341 700,340 701,340 701,340 701,340 701,340 701,340 701,340 701,340 701,340 701,339 701,339 701,339 701,339 701,339 702,339 702,339 702,339 702,338 702,338 702,338 702,338 702,338 702,338 702,338 702,337 702,337 702,337 703,337 703,337 703,337 703,337 703,337 703,336 703,336 703,336 703,336 703,336 703,335 703,335 703,335 704,335 704,334 704,334 704,334 704,334 704,334 704,333 704,333 704,333 704,333 704,333 704,333 704,333 705,332 705,332 705,332 705,332 705,332 705,332 705,331 705,331 705,331 705,331 705,331 705,331 705,331 706,331 706,331 706,331 706,331 706,330 706,330 706,330 706,330 706,330 706,330 706,330 706,330 706,330 707,329 707,329 707,329 707,329 707,329 707,329 707,329 707,329 707,328 707,328 707,328 707,328 707,328 708,328 708,328 708,328 708,327 708,327 708,327 708,327 708,327 708,328 708,328 708,328 708,328 708,328 709,328 709,328 709,328 709,327 709,327 709,327 709,327 709,327 709,327 709,327 709,327 709,327 709,327 710,327 710,327 710,327 710,326 710,326 710,326 710,326 710,326 710,326 710,326 710,326 710,326 710,326 711,326 711,326 711,326 711,326 711,326 711,326 711,326 711,326 711,326 711,326 711,326 711,326 711,326 712,326 712,326 712,326 712,326 712,326 712,326 712,326 712,326 712,326 712,326 712,326 712,325 712,325 713,325 713,325 713,325 713,325 713,325 713,325 713,325 713,325 713,325 713,325 713,325 713,325 713,325 714,325 714,325 714,325 714,325 714,325 714,325 714,325 714,325 714,325 714,325 714,325 714,325 714,325 715,325 715,325 715,325 715,325 715,325 715,325 715,325 715,325 715,325 715,326 715,326 715,326 715,326 716,326 716,326 716,326 716,326 716,326 716,326 716,326 716,326 716,327 716,327 716,327 716,327 716,327 717,327 717,327 717,327 717,327 717,327 717,327 717,327 717,327 717,327 717,328 717,328 717,328 717,328 718,328 718,328 718,328 718,328 718,328 718,328 718,328 718,328 718,328 718,327 718,327 718,327 719,327 719,327 719,327 719,327 719,327 719,327 719,327 719,327 719,327 719,327 719,327 719,327 719,327 720,327 720,327 720,327 720,327 720,327 720,328 720,328 720,328 720,328 720,328 720,328 720,328 720,328 721,328 721,328 721,328 721,328 721,328 721,328 721,328 721,328 721,328 721,328 721,328 721,328 721,328 722,328 722,328 722,328 722,328 722,328 722,328 722,328 722,328 722,328 722,328 722,327 722,327 722,327 723,327 723,327 723,327 723,327 723,327 723,327 723,327 723,327 723,327 723,327 723,328 723,328 723,328 724,328 724,328 724,328 724,328 724,328 724,328 724,328 724,328 724,329 724,329 724,329 724,329 724,329 725,329 725,329 725,329 725,329 725,330 725,330 725,330 725,330 725,330 725,330 725,330 725,330 725,330 726,329 726,329 726,329 726,329 726,329 726,329 726,329 726,329 726,329 726,329 726,329 726,328 726,328 727,328 727,328 727,328 727,328 727,328 727,328 727,328 727,328 727,328 727,328 727,328 727,328 727,328 728,328 728,328 728,328 728,328 728,329 728,329 728,329 728,329 728,329 728,329 728,329 728,329 728,329 729,329 729,329 729,329 729,329 729,329 729,330 729,330 729,330 729,329 729,329 729,329 729,329 729,329 730,329 730,329 730,329 730,329 730,328 730,328 730,329 730,329 730,329 730,329 730,328 730,328 730,328 731,328 731,328 731,328 731,328 731,328 731,328 731,328 731,328 731,327 731,327 731,327 731,327 731,327 732,327 732,327 732,327 732,327 732,327 732,327 732,327 732,327 732,327 732,327 732,327 732,327 732,327 733,327 733,327 733,327 733,327 733,327 733,326 733,326 733,326 733,326 733,326 733,326 733,326 733,326 734,326 734,326 734,326 734,326 734,326 734,326 734,326 734,325 734,325 734,325 734,325 734,325 734,325 735,325 735,325 735,325 735,325 735,325 735,325 735,325 735,325 735,325 735,325 735,325 735,325 735,325 736,325 736,325 736,325 736,325 736,325 736,325 736,325 736,325 736,325 736,325 736,325 " vector-effect="non-scaling-stroke"></polyline>
</g></svg>