<!-- Generator: Adobe Illustrator 19.2.0, SVG Export Plug-In  -->
<!DOCTYPE svg PUBLIC "-//W3C//DTD SVG 1.1//EN" "http://www.w3.org/Graphics/SVG/1.1/DTD/svg11.dtd" [
	<!ENTITY ns_flows "http://ns.adobe.com/Flows/1.0/">
	<!ENTITY st0 "fill:none;stroke:#FFFFFF;stroke-linecap:square;stroke-linejoin:bevel;stroke-dasharray:1,2;">
	<!ENTITY st1 "fill:none;stroke:#624949;stroke-width:1.5;stroke-linecap:round;stroke-linejoin:round;">
	<!ENTITY st2 "fill:#624949;">
]>
<svg version="1.1"
	 xmlns="http://www.w3.org/2000/svg" xmlns:xlink="http://www.w3.org/1999/xlink" xmlns:a="http://ns.adobe.com/AdobeSVGViewerExtensions/3.0/"
	 x="0px" y="0px" width="759px" height="389.5px" preserveAspectRatio="none" viewBox="0 0 759 389.5" style="enable-background:new 0 0 759 389.5;"
	 xml:space="preserve">
<defs>
</defs>
<line vector-effect="non-scaling-stroke" style="&st0;" x1="0.5" y1="10" x2="0.5" y2="389"/>
<line vector-effect="non-scaling-stroke" style="&st0;" x1="95.5" y1="10" x2="95.5" y2="389"/>
<line vector-effect="non-scaling-stroke" style="&st0;" x1="190.5" y1="10" x2="190.5" y2="389"/>
<line vector-effect="non-scaling-stroke" style="&st0;" x1="284.5" y1="10" x2="284.5" y2="389"/>
<line vector-effect="non-scaling-stroke" style="&st0;" x1="379.5" y1="10" x2="379.5" y2="389"/>
<line vector-effect="non-scaling-stroke" style="&st0;" x1="474.5" y1="10" x2="474.5" y2="389"/>
<line vector-effect="non-scaling-stroke" style="&st0;" x1="569.5" y1="10" x2="569.5" y2="389"/>
<line vector-effect="non-scaling-stroke" style="&st0;" x1="663.5" y1="10" x2="663.5" y2="389"/>
<line vector-effect="non-scaling-stroke" style="&st0;" x1="758.5" y1="10" x2="758.5" y2="389"/>
<line vector-effect="non-scaling-stroke" style="&st0;" x1="0.5" y1="389" x2="758.5" y2="389"/>
<line vector-effect="non-scaling-stroke" style="&st0;" x1="0.5" y1="335" x2="758.5" y2="335"/>
<line vector-effect="non-scaling-stroke" style="&st0;" x1="0.5" y1="280" x2="758.5" y2="280"/>
<line vector-effect="non-scaling-stroke" style="&st0;" x1="0.5" y1="226" x2="758.5" y2="226"/>
<line vector-effect="non-scaling-stroke" style="&st0;" x1="0.5" y1="172" x2="758.5" y2="172"/>
<line vector-effect="non-scaling-stroke" style="&st0;" x1="0.5" y1="118" x2="758.5" y2="118"/>
<line vector-effect="non-scaling-stroke" style="&st0;" x1="0.5" y1="63" x2="758.5" y2="63"/>
<g transform="matrix(1,0,0,1,0,0)">
	<polyline vector-effect="non-scaling-stroke" style="&st1;" points="716.5,334 716.5,334 716.5,334 716.5,334 716.5,334 716.5,334 
		716.5,334 716.5,334 716.5,334 	"/>
</g>
<g transform="matrix(1,0,0,1,0,0)">
	<polyline vector-effect="non-scaling-stroke" style="&st2;" points="716.5,389 7.5,389 7.5,272 7.5,272 7.5,273 7.5,273 7.5,274 
		7.5,274 7.5,274 7.5,275 8.5,275 8.5,276 8.5,276 8.5,277 8.5,277 8.5,278 8.5,278 8.5,279 8.5,279 8.5,279 8.5,280 8.5,280 
		8.5,281 9.5,281 9.5,282 9.5,282 9.5,282 9.5,283 9.5,283 9.5,284 9.5,284 9.5,285 9.5,285 9.5,285 9.5,285 9.5,286 10.5,286 
		10.5,287 10.5,287 10.5,287 10.5,288 10.5,288 10.5,289 10.5,289 10.5,289 10.5,289 10.5,290 10.5,290 10.5,290 11.5,291 11.5,291 
		11.5,291 11.5,292 11.5,292 11.5,292 11.5,292 11.5,292 11.5,293 11.5,293 11.5,292 11.5,293 11.5,293 12.5,293 12.5,293 12.5,294 
		12.5,294 12.5,294 12.5,294 12.5,294 12.5,294 12.5,294 12.5,295 12.5,295 12.5,295 12.5,295 13.5,295 13.5,295 13.5,295 13.5,295 
		13.5,295 13.5,295 13.5,295 13.5,295 13.5,295 13.5,295 13.5,294 13.5,294 13.5,294 14.5,294 14.5,294 14.5,294 14.5,294 14.5,294 
		14.5,293 14.5,293 14.5,293 14.5,293 14.5,293 14.5,293 14.5,292 14.5,292 15.5,292 15.5,292 15.5,292 15.5,291 15.5,291 15.5,291 
		15.5,290 15.5,290 15.5,289 15.5,289 15.5,288 15.5,288 15.5,288 16.5,288 16.5,288 16.5,288 16.5,287 16.5,287 16.5,286 16.5,286 
		16.5,286 16.5,285 16.5,285 16.5,284 16.5,284 16.5,284 17.5,283 17.5,283 17.5,283 17.5,282 17.5,282 17.5,282 17.5,282 17.5,281 
		17.5,281 17.5,281 17.5,280 17.5,280 18.5,280 18.5,279 18.5,279 18.5,278 18.5,278 18.5,277 18.5,277 18.5,277 18.5,276 18.5,276 
		18.5,275 18.5,275 18.5,274 19.5,274 19.5,274 19.5,274 19.5,274 19.5,274 19.5,274 19.5,274 19.5,273 19.5,274 19.5,274 19.5,274 
		19.5,274 19.5,274 20.5,274 20.5,274 20.5,274 20.5,275 20.5,276 20.5,277 20.5,277 20.5,278 20.5,279 20.5,279 20.5,280 20.5,280 
		20.5,281 21.5,282 21.5,282 21.5,283 21.5,284 21.5,284 21.5,285 21.5,285 21.5,286 21.5,286 21.5,287 21.5,287 21.5,288 21.5,288 
		22.5,289 22.5,289 22.5,290 22.5,291 22.5,291 22.5,292 22.5,292 22.5,293 22.5,293 22.5,293 22.5,294 22.5,294 22.5,295 23.5,295 
		23.5,295 23.5,295 23.5,296 23.5,296 23.5,296 23.5,296 23.5,296 23.5,296 23.5,296 23.5,296 23.5,296 23.5,297 24.5,297 24.5,297 
		24.5,297 24.5,297 24.5,297 24.5,297 24.5,298 24.5,297 24.5,297 24.5,297 24.5,297 24.5,297 24.5,297 25.5,298 25.5,298 25.5,298 
		25.5,298 25.5,298 25.5,299 25.5,299 25.5,299 25.5,299 25.5,299 25.5,299 25.5,300 25.5,300 26.5,300 26.5,300 26.5,300 26.5,300 
		26.5,300 26.5,299 26.5,299 26.5,299 26.5,299 26.5,299 26.5,299 26.5,299 26.5,299 27.5,299 27.5,299 27.5,299 27.5,299 27.5,299 
		27.5,300 27.5,300 27.5,300 27.5,300 27.5,300 27.5,300 27.5,300 27.5,300 28.5,300 28.5,301 28.5,301 28.5,301 28.5,300 28.5,301 
		28.5,301 28.5,301 28.5,301 28.5,301 28.5,301 28.5,301 28.5,301 29.5,301 29.5,301 29.5,301 29.5,301 29.5,301 29.5,301 29.5,301 
		29.5,301 29.5,301 29.5,301 29.5,301 29.5,300 29.5,300 30.5,300 30.5,300 30.5,300 30.5,300 30.5,300 30.5,300 30.5,300 30.5,300 
		30.5,300 30.5,300 30.5,300 30.5,299 30.5,299 31.5,299 31.5,299 31.5,299 31.5,299 31.5,300 31.5,300 31.5,301 31.5,301 31.5,301 
		31.5,300 31.5,300 31.5,300 31.5,300 32.5,300 32.5,299 32.5,299 32.5,299 32.5,299 32.5,299 32.5,299 32.5,299 32.5,299 32.5,299 
		32.5,299 32.5,299 32.5,299 33.5,299 33.5,299 33.5,299 33.5,299 33.5,299 33.5,299 33.5,299 33.5,299 33.5,299 33.5,299 33.5,299 
		33.5,299 33.5,299 34.5,299 34.5,299 34.5,299 34.5,299 34.5,298 34.5,298 34.5,298 34.5,298 34.5,298 34.5,298 34.5,297 34.5,297 
		34.5,297 35.5,297 35.5,296 35.5,296 35.5,296 35.5,296 35.5,296 35.5,296 35.5,296 35.5,296 35.5,295 35.5,295 35.5,295 35.5,295 
		36.5,295 36.5,295 36.5,295 36.5,295 36.5,294 36.5,294 36.5,294 36.5,294 36.5,294 36.5,294 36.5,294 36.5,294 36.5,294 37.5,293 
		37.5,293 37.5,293 37.5,293 37.5,293 37.5,293 37.5,293 37.5,292 37.5,292 37.5,292 37.5,292 37.5,292 38.5,292 38.5,291 38.5,291 
		38.5,291 38.5,291 38.5,291 38.5,291 38.5,291 38.5,291 38.5,291 38.5,291 38.5,290 38.5,290 39.5,290 39.5,290 39.5,290 39.5,289 
		39.5,289 39.5,289 39.5,289 39.5,289 39.5,288 39.5,288 39.5,288 39.5,288 39.5,288 40.5,287 40.5,287 40.5,287 40.5,287 40.5,287 
		40.5,287 40.5,286 40.5,286 40.5,286 40.5,286 40.5,286 40.5,285 40.5,285 41.5,285 41.5,285 41.5,285 41.5,285 41.5,284 41.5,284 
		41.5,284 41.5,284 41.5,284 41.5,284 41.5,284 41.5,283 41.5,283 42.5,283 42.5,283 42.5,283 42.5,282 42.5,282 42.5,282 42.5,282 
		42.5,282 42.5,281 42.5,281 42.5,281 42.5,281 42.5,281 43.5,280 43.5,280 43.5,280 43.5,280 43.5,279 43.5,279 43.5,279 43.5,279 
		43.5,279 43.5,278 43.5,278 43.5,278 43.5,278 44.5,278 44.5,278 44.5,278 44.5,278 44.5,278 44.5,278 44.5,278 44.5,278 44.5,278 
		44.5,278 44.5,278 44.5,279 44.5,279 45.5,279 45.5,280 45.5,280 45.5,280 45.5,281 45.5,281 45.5,281 45.5,281 45.5,281 45.5,281 
		45.5,281 45.5,281 45.5,281 46.5,281 46.5,280 46.5,280 46.5,280 46.5,280 46.5,280 46.5,280 46.5,280 46.5,280 46.5,280 46.5,280 
		46.5,280 46.5,280 47.5,280 47.5,279 47.5,279 47.5,279 47.5,279 47.5,279 47.5,278 47.5,278 47.5,278 47.5,278 47.5,278 47.5,278 
		47.5,278 48.5,278 48.5,278 48.5,278 48.5,278 48.5,278 48.5,278 48.5,278 48.5,278 48.5,277 48.5,277 48.5,277 48.5,277 48.5,277 
		49.5,277 49.5,277 49.5,277 49.5,277 49.5,277 49.5,277 49.5,277 49.5,277 49.5,277 49.5,277 49.5,277 49.5,277 49.5,276 50.5,276 
		50.5,276 50.5,276 50.5,276 50.5,276 50.5,276 50.5,276 50.5,276 50.5,275 50.5,275 50.5,275 50.5,275 50.5,275 51.5,275 51.5,275 
		51.5,275 51.5,275 51.5,275 51.5,275 51.5,275 51.5,275 51.5,275 51.5,274 51.5,274 51.5,274 51.5,274 52.5,274 52.5,274 52.5,274 
		52.5,274 52.5,274 52.5,274 52.5,274 52.5,274 52.5,273 52.5,273 52.5,273 52.5,273 52.5,273 53.5,273 53.5,273 53.5,273 53.5,273 
		53.5,272 53.5,272 53.5,272 53.5,272 53.5,272 53.5,272 53.5,272 53.5,272 53.5,272 54.5,272 54.5,272 54.5,272 54.5,271 54.5,271 
		54.5,271 54.5,271 54.5,271 54.5,271 54.5,271 54.5,271 54.5,270 54.5,270 55.5,270 55.5,270 55.5,270 55.5,270 55.5,270 55.5,270 
		55.5,270 55.5,270 55.5,270 55.5,270 55.5,270 55.5,269 55.5,269 56.5,269 56.5,269 56.5,269 56.5,269 56.5,269 56.5,269 56.5,269 
		56.5,269 56.5,269 56.5,268 56.5,268 56.5,268 56.5,268 57.5,268 57.5,268 57.5,268 57.5,268 57.5,268 57.5,268 57.5,267 57.5,267 
		57.5,267 57.5,267 57.5,267 57.5,267 58.5,267 58.5,267 58.5,267 58.5,266 58.5,266 58.5,266 58.5,266 58.5,266 58.5,266 58.5,266 
		58.5,266 58.5,265 58.5,265 59.5,265 59.5,265 59.5,265 59.5,265 59.5,265 59.5,265 59.5,265 59.5,264 59.5,264 59.5,264 59.5,264 
		59.5,264 59.5,264 60.5,264 60.5,264 60.5,263 60.5,263 60.5,263 60.5,263 60.5,263 60.5,263 60.5,263 60.5,263 60.5,263 60.5,263 
		60.5,262 61.5,262 61.5,262 61.5,262 61.5,261 61.5,261 61.5,261 61.5,262 61.5,262 61.5,261 61.5,261 61.5,261 61.5,261 61.5,261 
		62.5,260 62.5,260 62.5,260 62.5,260 62.5,259 62.5,259 62.5,258 62.5,258 62.5,258 62.5,257 62.5,257 62.5,257 62.5,256 63.5,256 
		63.5,256 63.5,256 63.5,256 63.5,255 63.5,255 63.5,255 63.5,255 63.5,255 63.5,255 63.5,255 63.5,255 63.5,255 64.5,255 64.5,255 
		64.5,255 64.5,255 64.5,255 64.5,255 64.5,255 64.5,255 64.5,254 64.5,254 64.5,254 64.5,254 64.5,254 65.5,254 65.5,254 65.5,254 
		65.5,254 65.5,253 65.5,253 65.5,253 65.5,253 65.5,253 65.5,253 65.5,253 65.5,253 65.5,253 66.5,253 66.5,253 66.5,253 66.5,253 
		66.5,253 66.5,252 66.5,252 66.5,252 66.5,252 66.5,252 66.5,252 66.5,252 66.5,252 67.5,252 67.5,251 67.5,251 67.5,251 67.5,251 
		67.5,251 67.5,251 67.5,251 67.5,250 67.5,250 67.5,250 67.5,250 67.5,250 68.5,250 68.5,250 68.5,249 68.5,249 68.5,249 68.5,249 
		68.5,249 68.5,249 68.5,249 68.5,248 68.5,248 68.5,248 68.5,248 69.5,248 69.5,247 69.5,247 69.5,247 69.5,247 69.5,247 69.5,246 
		69.5,246 69.5,246 69.5,246 69.5,246 69.5,245 69.5,245 70.5,245 70.5,245 70.5,245 70.5,244 70.5,244 70.5,244 70.5,244 70.5,243 
		70.5,243 70.5,243 70.5,243 70.5,243 70.5,242 71.5,242 71.5,242 71.5,242 71.5,241 71.5,241 71.5,241 71.5,241 71.5,241 71.5,240 
		71.5,240 71.5,240 71.5,240 71.5,240 72.5,239 72.5,239 72.5,239 72.5,239 72.5,238 72.5,238 72.5,238 72.5,237 72.5,237 72.5,237 
		72.5,237 72.5,237 72.5,237 73.5,237 73.5,236 73.5,236 73.5,236 73.5,236 73.5,236 73.5,236 73.5,236 73.5,235 73.5,235 73.5,235 
		73.5,235 73.5,235 74.5,235 74.5,235 74.5,235 74.5,235 74.5,235 74.5,235 74.5,235 74.5,235 74.5,234 74.5,234 74.5,234 74.5,234 
		74.5,234 75.5,234 75.5,233 75.5,233 75.5,233 75.5,233 75.5,232 75.5,232 75.5,232 75.5,232 75.5,232 75.5,232 75.5,231 75.5,231 
		76.5,231 76.5,231 76.5,231 76.5,230 76.5,230 76.5,230 76.5,230 76.5,229 76.5,229 76.5,229 76.5,229 76.5,229 76.5,228 77.5,228 
		77.5,228 77.5,228 77.5,228 77.5,228 77.5,228 77.5,228 77.5,228 77.5,228 77.5,228 77.5,228 77.5,228 78.5,228 78.5,227 78.5,227 
		78.5,227 78.5,227 78.5,226 78.5,226 78.5,226 78.5,226 78.5,225 78.5,225 78.5,225 78.5,225 79.5,224 79.5,224 79.5,224 79.5,224 
		79.5,224 79.5,223 79.5,223 79.5,223 79.5,223 79.5,222 79.5,222 79.5,222 79.5,222 80.5,222 80.5,221 80.5,221 80.5,221 80.5,221 
		80.5,220 80.5,220 80.5,219 80.5,219 80.5,219 80.5,218 80.5,218 80.5,217 81.5,217 81.5,217 81.5,216 81.5,216 81.5,215 81.5,215 
		81.5,215 81.5,215 81.5,214 81.5,214 81.5,213 81.5,213 81.5,212 82.5,212 82.5,211 82.5,211 82.5,210 82.5,210 82.5,209 82.5,208 
		82.5,208 82.5,207 82.5,206 82.5,206 82.5,205 82.5,205 83.5,204 83.5,203 83.5,202 83.5,202 83.5,201 83.5,200 83.5,200 83.5,199 
		83.5,198 83.5,197 83.5,197 83.5,196 83.5,196 84.5,196 84.5,195 84.5,195 84.5,194 84.5,194 84.5,193 84.5,193 84.5,192 84.5,192 
		84.5,192 84.5,192 84.5,191 84.5,191 85.5,191 85.5,191 85.5,191 85.5,190 85.5,190 85.5,190 85.5,190 85.5,190 85.5,190 85.5,190 
		85.5,190 85.5,190 85.5,190 86.5,190 86.5,192 86.5,192 86.5,192 86.5,192 86.5,192 86.5,192 86.5,193 86.5,193 86.5,193 86.5,193 
		86.5,193 86.5,193 87.5,193 87.5,194 87.5,194 87.5,194 87.5,193 87.5,193 87.5,193 87.5,193 87.5,192 87.5,191 87.5,191 87.5,191 
		87.5,190 88.5,190 88.5,189 88.5,187 88.5,187 88.5,186 88.5,185 88.5,183 88.5,182 88.5,181 88.5,180 88.5,179 88.5,178 88.5,177 
		89.5,176 89.5,174 89.5,173 89.5,172 89.5,171 89.5,171 89.5,170 89.5,169 89.5,167 89.5,167 89.5,166 89.5,165 89.5,165 90.5,164 
		90.5,163 90.5,162 90.5,161 90.5,160 90.5,159 90.5,158 90.5,157 90.5,156 90.5,155 90.5,154 90.5,153 90.5,152 91.5,151 91.5,150 
		91.5,149 91.5,148 91.5,147 91.5,147 91.5,146 91.5,145 91.5,144 91.5,143 91.5,142 91.5,142 91.5,141 92.5,140 92.5,139 92.5,138 
		92.5,138 92.5,137 92.5,136 92.5,136 92.5,136 92.5,136 92.5,136 92.5,136 92.5,136 92.5,136 93.5,136 93.5,136 93.5,136 93.5,136 
		93.5,137 93.5,137 93.5,137 93.5,137 93.5,137 93.5,137 93.5,137 93.5,137 93.5,138 94.5,138 94.5,138 94.5,138 94.5,138 94.5,138 
		94.5,138 94.5,138 94.5,139 94.5,139 94.5,139 94.5,139 94.5,139 94.5,139 95.5,139 95.5,140 95.5,140 95.5,141 95.5,142 95.5,143 
		95.5,144 95.5,145 95.5,146 95.5,147 95.5,148 95.5,149 95.5,149 96.5,150 96.5,151 96.5,152 96.5,152 96.5,153 96.5,154 96.5,154 
		96.5,155 96.5,156 96.5,155 96.5,154 96.5,153 96.5,151 97.5,150 97.5,148 97.5,147 97.5,146 97.5,144 97.5,142 97.5,141 97.5,139 
		97.5,138 97.5,137 97.5,135 97.5,134 98.5,133 98.5,132 98.5,131 98.5,131 98.5,130 98.5,129 98.5,128 98.5,128 98.5,127 98.5,126 
		98.5,126 98.5,125 98.5,124 99.5,124 99.5,123 99.5,123 99.5,122 99.5,122 99.5,121 99.5,120 99.5,120 99.5,119 99.5,119 99.5,118 
		99.5,118 99.5,118 100.5,117 100.5,117 100.5,117 100.5,117 100.5,118 100.5,118 100.5,118 100.5,118 100.5,118 100.5,118 
		100.5,118 100.5,119 100.5,119 101.5,118 101.5,118 101.5,117 101.5,117 101.5,117 101.5,117 101.5,117 101.5,117 101.5,117 
		101.5,117 101.5,118 101.5,118 101.5,119 102.5,119 102.5,119 102.5,120 102.5,120 102.5,121 102.5,121 102.5,122 102.5,123 
		102.5,125 102.5,127 102.5,129 102.5,131 102.5,133 103.5,134 103.5,136 103.5,137 103.5,138 103.5,138 103.5,139 103.5,139 
		103.5,140 103.5,140 103.5,140 103.5,141 103.5,141 103.5,139 104.5,137 104.5,135 104.5,133 104.5,131 104.5,129 104.5,128 
		104.5,127 104.5,127 104.5,127 104.5,127 104.5,126 104.5,126 104.5,125 105.5,125 105.5,125 105.5,124 105.5,124 105.5,123 
		105.5,123 105.5,123 105.5,122 105.5,122 105.5,122 105.5,121 105.5,121 105.5,121 106.5,120 106.5,120 106.5,119 106.5,118 
		106.5,118 106.5,119 106.5,120 106.5,120 106.5,121 106.5,122 106.5,122 106.5,123 106.5,123 107.5,123 107.5,122 107.5,122 
		107.5,123 107.5,123 107.5,123 107.5,123 107.5,123 107.5,123 107.5,123 107.5,123 107.5,123 107.5,123 108.5,123 108.5,123 
		108.5,123 108.5,123 108.5,123 108.5,123 108.5,123 108.5,123 108.5,123 108.5,124 108.5,124 108.5,124 108.5,125 109.5,125 
		109.5,125 109.5,125 109.5,125 109.5,125 109.5,125 109.5,125 109.5,125 109.5,125 109.5,125 109.5,125 109.5,125 109.5,125 
		110.5,125 110.5,125 110.5,125 110.5,125 110.5,125 110.5,125 110.5,126 110.5,127 110.5,126 110.5,125 110.5,124 110.5,123 
		110.5,122 111.5,121 111.5,120 111.5,119 111.5,118 111.5,117 111.5,116 111.5,115 111.5,114 111.5,113 111.5,112 111.5,111 
		111.5,110 111.5,109 112.5,107 112.5,106 112.5,105 112.5,103 112.5,102 112.5,100 112.5,99 112.5,97 112.5,96 112.5,94 112.5,93 
		112.5,92 112.5,90 113.5,89 113.5,88 113.5,87 113.5,86 113.5,85 113.5,84 113.5,84 113.5,83 113.5,82 113.5,81 113.5,81 113.5,80 
		113.5,80 114.5,79 114.5,79 114.5,78 114.5,77 114.5,76 114.5,76 114.5,75 114.5,74 114.5,73 114.5,73 114.5,72 114.5,71 114.5,70 
		115.5,70 115.5,69 115.5,68 115.5,68 115.5,67 115.5,66 115.5,66 115.5,66 115.5,65 115.5,65 115.5,64 115.5,64 115.5,64 116.5,64 
		116.5,64 116.5,64 116.5,64 116.5,63 116.5,63 116.5,63 116.5,63 116.5,64 116.5,64 116.5,64 116.5,64 116.5,64 117.5,64 117.5,64 
		117.5,63 117.5,62 117.5,61 117.5,61 117.5,59 117.5,58 117.5,57 117.5,57 117.5,57 117.5,56 118.5,55 118.5,55 118.5,55 118.5,54 
		118.5,54 118.5,54 118.5,53 118.5,53 118.5,53 118.5,52 118.5,52 118.5,52 118.5,52 119.5,51 119.5,51 119.5,51 119.5,51 119.5,51 
		119.5,50 119.5,50 119.5,49 119.5,49 119.5,49 119.5,49 119.5,50 119.5,50 120.5,51 120.5,52 120.5,52 120.5,53 120.5,54 120.5,54 
		120.5,55 120.5,55 120.5,54 120.5,54 120.5,53 120.5,52 120.5,52 121.5,51 121.5,51 121.5,50 121.5,50 121.5,50 121.5,50 121.5,49 
		121.5,49 121.5,48 121.5,48 121.5,48 121.5,48 121.5,48 122.5,48 122.5,48 122.5,49 122.5,49 122.5,49 122.5,49 122.5,50 122.5,50 
		122.5,51 122.5,51 122.5,51 122.5,51 122.5,51 123.5,51 123.5,51 123.5,50 123.5,50 123.5,50 123.5,50 123.5,51 123.5,51 123.5,51 
		123.5,51 123.5,51 123.5,51 123.5,51 124.5,51 124.5,51 124.5,51 124.5,51 124.5,51 124.5,51 124.5,51 124.5,51 124.5,51 124.5,51 
		124.5,51 124.5,51 124.5,52 125.5,52 125.5,52 125.5,52 125.5,52 125.5,52 125.5,52 125.5,52 125.5,53 125.5,53 125.5,53 125.5,53 
		125.5,53 125.5,53 126.5,54 126.5,54 126.5,54 126.5,55 126.5,55 126.5,55 126.5,56 126.5,56 126.5,56 126.5,57 126.5,57 126.5,58 
		126.5,58 127.5,59 127.5,59 127.5,59 127.5,60 127.5,60 127.5,61 127.5,62 127.5,62 127.5,63 127.5,63 127.5,63 127.5,64 127.5,64 
		128.5,64 128.5,64 128.5,64 128.5,64 128.5,64 128.5,65 128.5,65 128.5,66 128.5,66 128.5,66 128.5,67 128.5,67 128.5,67 129.5,67 
		129.5,67 129.5,67 129.5,68 129.5,69 129.5,70 129.5,70 129.5,71 129.5,72 129.5,73 129.5,73 129.5,74 129.5,74 130.5,74 130.5,75 
		130.5,75 130.5,76 130.5,76 130.5,77 130.5,77 130.5,78 130.5,78 130.5,78 130.5,78 130.5,78 130.5,78 131.5,78 131.5,78 131.5,78 
		131.5,77 131.5,78 131.5,78 131.5,78 131.5,78 131.5,79 131.5,79 131.5,79 131.5,79 131.5,79 132.5,80 132.5,80 132.5,81 132.5,81 
		132.5,81 132.5,82 132.5,82 132.5,82 132.5,82 132.5,82 132.5,82 132.5,81 132.5,81 133.5,81 133.5,81 133.5,81 133.5,80 133.5,79 
		133.5,79 133.5,78 133.5,78 133.5,78 133.5,78 133.5,78 133.5,78 133.5,78 134.5,78 134.5,78 134.5,78 134.5,78 134.5,78 134.5,78 
		134.5,77 134.5,77 134.5,77 134.5,77 134.5,77 134.5,77 134.5,77 135.5,78 135.5,78 135.5,77 135.5,77 135.5,77 135.5,78 135.5,78 
		135.5,78 135.5,79 135.5,79 135.5,79 135.5,80 135.5,80 136.5,80 136.5,81 136.5,81 136.5,81 136.5,82 136.5,82 136.5,83 136.5,83 
		136.5,84 136.5,84 136.5,85 136.5,85 136.5,86 137.5,86 137.5,87 137.5,87 137.5,88 137.5,88 137.5,88 137.5,89 137.5,90 137.5,91 
		137.5,92 137.5,93 137.5,93 138.5,93 138.5,94 138.5,94 138.5,94 138.5,95 138.5,95 138.5,96 138.5,96 138.5,97 138.5,97 138.5,97 
		138.5,98 138.5,98 139.5,99 139.5,99 139.5,99 139.5,100 139.5,100 139.5,100 139.5,101 139.5,101 139.5,101 139.5,102 139.5,102 
		139.5,102 139.5,102 140.5,103 140.5,103 140.5,103 140.5,103 140.5,103 140.5,103 140.5,103 140.5,103 140.5,103 140.5,103 
		140.5,104 140.5,104 140.5,104 141.5,104 141.5,105 141.5,105 141.5,105 141.5,105 141.5,105 141.5,106 141.5,106 141.5,106 
		141.5,106 141.5,107 141.5,108 141.5,107 142.5,107 142.5,107 142.5,106 142.5,106 142.5,106 142.5,106 142.5,106 142.5,106 
		142.5,107 142.5,107 142.5,107 142.5,108 142.5,108 143.5,109 143.5,109 143.5,108 143.5,108 143.5,109 143.5,109 143.5,109 
		143.5,109 143.5,109 143.5,109 143.5,110 143.5,110 143.5,110 144.5,110 144.5,110 144.5,110 144.5,110 144.5,110 144.5,110 
		144.5,110 144.5,110 144.5,110 144.5,110 144.5,110 144.5,110 144.5,110 145.5,110 145.5,110 145.5,110 145.5,110 145.5,110 
		145.5,110 145.5,110 145.5,110 145.5,110 145.5,110 145.5,110 145.5,110 145.5,110 146.5,110 146.5,110 146.5,109 146.5,110 
		146.5,110 146.5,110 146.5,110 146.5,110 146.5,110 146.5,110 146.5,110 146.5,110 146.5,110 147.5,110 147.5,110 147.5,110 
		147.5,110 147.5,110 147.5,110 147.5,110 147.5,110 147.5,110 147.5,110 147.5,110 147.5,110 147.5,110 148.5,110 148.5,110 
		148.5,109 148.5,109 148.5,109 148.5,108 148.5,108 148.5,108 148.5,108 148.5,107 148.5,107 148.5,106 148.5,106 149.5,106 
		149.5,105 149.5,105 149.5,105 149.5,105 149.5,104 149.5,104 149.5,104 149.5,103 149.5,103 149.5,102 149.5,102 149.5,102 
		150.5,102 150.5,101 150.5,101 150.5,101 150.5,101 150.5,101 150.5,100 150.5,100 150.5,100 150.5,100 150.5,100 150.5,100 
		150.5,100 151.5,100 151.5,100 151.5,100 151.5,100 151.5,100 151.5,100 151.5,100 151.5,101 151.5,101 151.5,101 151.5,101 
		151.5,101 151.5,102 152.5,102 152.5,102 152.5,102 152.5,102 152.5,102 152.5,102 152.5,102 152.5,103 152.5,103 152.5,102 
		152.5,102 152.5,102 152.5,101 153.5,101 153.5,100 153.5,100 153.5,100 153.5,99 153.5,99 153.5,98 153.5,98 153.5,98 153.5,98 
		153.5,97 153.5,97 153.5,97 154.5,97 154.5,97 154.5,97 154.5,97 154.5,98 154.5,98 154.5,98 154.5,99 154.5,99 154.5,100 
		154.5,100 154.5,100 154.5,100 155.5,100 155.5,101 155.5,102 155.5,104 155.5,104 155.5,104 155.5,104 155.5,105 155.5,105 
		155.5,105 155.5,106 155.5,107 155.5,107 156.5,107 156.5,108 156.5,108 156.5,109 156.5,109 156.5,109 156.5,109 156.5,110 
		156.5,110 156.5,110 156.5,110 156.5,110 156.5,110 157.5,110 157.5,110 157.5,110 157.5,109 157.5,109 157.5,109 157.5,109 
		157.5,108 157.5,108 157.5,108 157.5,108 157.5,108 158.5,108 158.5,108 158.5,107 158.5,107 158.5,107 158.5,106 158.5,106 
		158.5,106 158.5,105 158.5,105 158.5,105 158.5,105 158.5,105 159.5,105 159.5,105 159.5,105 159.5,106 159.5,106 159.5,106 
		159.5,106 159.5,107 159.5,107 159.5,107 159.5,107 159.5,106 159.5,106 160.5,107 160.5,107 160.5,107 160.5,107 160.5,107 
		160.5,108 160.5,108 160.5,108 160.5,108 160.5,108 160.5,109 160.5,109 160.5,109 161.5,109 161.5,109 161.5,109 161.5,110 
		161.5,110 161.5,110 161.5,110 161.5,111 161.5,111 161.5,111 161.5,111 161.5,111 161.5,111 162.5,112 162.5,112 162.5,112 
		162.5,112 162.5,112 162.5,113 162.5,113 162.5,113 162.5,113 162.5,113 162.5,113 162.5,113 162.5,114 163.5,114 163.5,114 
		163.5,114 163.5,114 163.5,114 163.5,115 163.5,115 163.5,115 163.5,115 163.5,115 163.5,115 163.5,115 163.5,115 164.5,115 
		164.5,116 164.5,116 164.5,116 164.5,116 164.5,116 164.5,117 164.5,117 164.5,117 164.5,117 164.5,118 164.5,118 164.5,118 
		165.5,118 165.5,118 165.5,118 165.5,119 165.5,119 165.5,119 165.5,119 165.5,119 165.5,119 165.5,119 165.5,119 165.5,119 
		165.5,119 166.5,119 166.5,120 166.5,120 166.5,120 166.5,120 166.5,120 166.5,120 166.5,120 166.5,120 166.5,120 166.5,120 
		166.5,120 166.5,120 167.5,120 167.5,121 167.5,121 167.5,121 167.5,121 167.5,121 167.5,121 167.5,121 167.5,121 167.5,121 
		167.5,122 167.5,122 167.5,122 168.5,122 168.5,122 168.5,122 168.5,122 168.5,122 168.5,122 168.5,122 168.5,123 168.5,123 
		168.5,123 168.5,123 168.5,123 168.5,123 169.5,123 169.5,123 169.5,124 169.5,123 169.5,123 169.5,124 169.5,124 169.5,124 
		169.5,124 169.5,124 169.5,124 169.5,125 169.5,125 170.5,125 170.5,125 170.5,125 170.5,126 170.5,126 170.5,126 170.5,126 
		170.5,126 170.5,126 170.5,126 170.5,126 170.5,126 170.5,126 171.5,126 171.5,126 171.5,126 171.5,126 171.5,127 171.5,127 
		171.5,127 171.5,127 171.5,127 171.5,127 171.5,127 171.5,127 171.5,126 172.5,126 172.5,126 172.5,127 172.5,127 172.5,127 
		172.5,127 172.5,127 172.5,128 172.5,128 172.5,128 172.5,128 172.5,128 172.5,128 173.5,129 173.5,129 173.5,129 173.5,129 
		173.5,129 173.5,129 173.5,129 173.5,129 173.5,129 173.5,129 173.5,129 173.5,129 173.5,129 174.5,128 174.5,128 174.5,128 
		174.5,128 174.5,128 174.5,128 174.5,128 174.5,128 174.5,128 174.5,128 174.5,128 174.5,128 174.5,128 175.5,129 175.5,129 
		175.5,129 175.5,128 175.5,128 175.5,128 175.5,128 175.5,128 175.5,128 175.5,128 175.5,128 175.5,128 175.5,128 176.5,128 
		176.5,127 176.5,127 176.5,127 176.5,127 176.5,126 176.5,126 176.5,126 176.5,126 176.5,126 176.5,126 176.5,126 176.5,127 
		177.5,127 177.5,126 177.5,126 177.5,126 177.5,126 177.5,126 177.5,125 177.5,125 177.5,125 177.5,125 177.5,125 177.5,124 
		178.5,124 178.5,124 178.5,124 178.5,125 178.5,125 178.5,125 178.5,125 178.5,125 178.5,125 178.5,124 178.5,124 178.5,124 
		178.5,124 179.5,125 179.5,125 179.5,125 179.5,125 179.5,125 179.5,125 179.5,125 179.5,125 179.5,125 179.5,125 179.5,125 
		179.5,125 179.5,125 180.5,125 180.5,125 180.5,126 180.5,126 180.5,126 180.5,126 180.5,126 180.5,126 180.5,126 180.5,126 
		180.5,126 180.5,126 180.5,126 181.5,126 181.5,126 181.5,126 181.5,126 181.5,126 181.5,126 181.5,126 181.5,126 181.5,126 
		181.5,126 181.5,126 181.5,126 181.5,126 182.5,126 182.5,126 182.5,126 182.5,126 182.5,126 182.5,125 182.5,125 182.5,125 
		182.5,125 182.5,125 182.5,125 182.5,124 182.5,124 183.5,124 183.5,124 183.5,124 183.5,123 183.5,123 183.5,123 183.5,123 
		183.5,123 183.5,123 183.5,123 183.5,123 183.5,123 183.5,124 184.5,124 184.5,124 184.5,124 184.5,125 184.5,125 184.5,126 
		184.5,126 184.5,125 184.5,125 184.5,125 184.5,125 184.5,125 184.5,125 185.5,125 185.5,126 185.5,126 185.5,126 185.5,126 
		185.5,127 185.5,127 185.5,127 185.5,127 185.5,128 185.5,128 185.5,128 185.5,128 186.5,128 186.5,127 186.5,126 186.5,126 
		186.5,126 186.5,125 186.5,125 186.5,124 186.5,124 186.5,124 186.5,123 186.5,123 186.5,123 187.5,123 187.5,123 187.5,123 
		187.5,123 187.5,122 187.5,122 187.5,122 187.5,122 187.5,122 187.5,122 187.5,122 187.5,122 187.5,122 188.5,122 188.5,122 
		188.5,122 188.5,122 188.5,123 188.5,123 188.5,123 188.5,123 188.5,123 188.5,123 188.5,123 188.5,123 188.5,124 189.5,124 
		189.5,124 189.5,124 189.5,124 189.5,124 189.5,124 189.5,124 189.5,124 189.5,124 189.5,124 189.5,124 189.5,124 189.5,124 
		190.5,124 190.5,124 190.5,124 190.5,124 190.5,124 190.5,125 190.5,125 190.5,125 190.5,125 190.5,125 190.5,125 190.5,125 
		190.5,125 191.5,125 191.5,125 191.5,125 191.5,125 191.5,125 191.5,125 191.5,125 191.5,125 191.5,125 191.5,126 191.5,126 
		191.5,126 191.5,126 192.5,126 192.5,126 192.5,126 192.5,126 192.5,126 192.5,126 192.5,125 192.5,125 192.5,125 192.5,124 
		192.5,124 192.5,124 192.5,124 193.5,123 193.5,123 193.5,123 193.5,123 193.5,123 193.5,124 193.5,124 193.5,124 193.5,124 
		193.5,124 193.5,124 193.5,124 193.5,124 194.5,124 194.5,124 194.5,124 194.5,124 194.5,124 194.5,124 194.5,124 194.5,124 
		194.5,124 194.5,124 194.5,124 194.5,124 194.5,124 195.5,124 195.5,124 195.5,124 195.5,124 195.5,124 195.5,124 195.5,124 
		195.5,125 195.5,125 195.5,125 195.5,125 195.5,125 195.5,125 196.5,125 196.5,125 196.5,125 196.5,125 196.5,125 196.5,125 
		196.5,125 196.5,125 196.5,125 196.5,125 196.5,126 196.5,126 196.5,126 197.5,125 197.5,126 197.5,126 197.5,126 197.5,126 
		197.5,126 197.5,126 197.5,127 197.5,127 197.5,127 197.5,127 197.5,126 198.5,126 198.5,126 198.5,127 198.5,126 198.5,126 
		198.5,126 198.5,126 198.5,127 198.5,127 198.5,126 198.5,126 198.5,126 198.5,126 199.5,126 199.5,126 199.5,126 199.5,126 
		199.5,126 199.5,126 199.5,125 199.5,125 199.5,125 199.5,125 199.5,126 199.5,126 199.5,126 200.5,126 200.5,126 200.5,126 
		200.5,126 200.5,126 200.5,126 200.5,126 200.5,126 200.5,126 200.5,126 200.5,126 200.5,126 200.5,126 201.5,126 201.5,126 
		201.5,126 201.5,126 201.5,126 201.5,126 201.5,126 201.5,126 201.5,126 201.5,126 201.5,126 201.5,126 201.5,126 202.5,126 
		202.5,125 202.5,125 202.5,125 202.5,125 202.5,125 202.5,125 202.5,125 202.5,125 202.5,125 202.5,125 202.5,125 202.5,125 
		203.5,125 203.5,125 203.5,125 203.5,125 203.5,125 203.5,125 203.5,125 203.5,125 203.5,125 203.5,125 203.5,125 203.5,125 
		203.5,125 204.5,125 204.5,125 204.5,125 204.5,125 204.5,125 204.5,125 204.5,125 204.5,125 204.5,125 204.5,125 204.5,125 
		204.5,125 204.5,125 205.5,125 205.5,125 205.5,125 205.5,125 205.5,125 205.5,125 205.5,125 205.5,125 205.5,125 205.5,125 
		205.5,125 205.5,125 205.5,125 206.5,125 206.5,125 206.5,125 206.5,125 206.5,125 206.5,125 206.5,125 206.5,125 206.5,125 
		206.5,125 206.5,125 206.5,125 206.5,125 207.5,125 207.5,125 207.5,124 207.5,124 207.5,124 207.5,125 207.5,125 207.5,125 
		207.5,125 207.5,125 207.5,125 207.5,125 207.5,125 208.5,125 208.5,125 208.5,125 208.5,125 208.5,125 208.5,125 208.5,125 
		208.5,125 208.5,125 208.5,125 208.5,124 208.5,124 208.5,124 209.5,124 209.5,124 209.5,124 209.5,124 209.5,124 209.5,124 
		209.5,124 209.5,124 209.5,124 209.5,124 209.5,124 209.5,124 209.5,124 210.5,124 210.5,124 210.5,124 210.5,124 210.5,124 
		210.5,124 210.5,124 210.5,124 210.5,124 210.5,124 210.5,124 210.5,124 210.5,123 211.5,123 211.5,123 211.5,123 211.5,123 
		211.5,123 211.5,123 211.5,123 211.5,123 211.5,123 211.5,123 211.5,122 211.5,122 211.5,122 212.5,123 212.5,123 212.5,123 
		212.5,123 212.5,123 212.5,123 212.5,123 212.5,123 212.5,123 212.5,123 212.5,123 212.5,123 212.5,123 213.5,123 213.5,123 
		213.5,123 213.5,123 213.5,123 213.5,123 213.5,123 213.5,124 213.5,124 213.5,124 213.5,124 213.5,124 213.5,124 214.5,124 
		214.5,124 214.5,124 214.5,124 214.5,124 214.5,124 214.5,124 214.5,124 214.5,124 214.5,124 214.5,124 214.5,124 214.5,124 
		215.5,124 215.5,123 215.5,123 215.5,123 215.5,123 215.5,123 215.5,123 215.5,123 215.5,123 215.5,123 215.5,123 215.5,123 
		215.5,123 216.5,123 216.5,123 216.5,123 216.5,123 216.5,123 216.5,123 216.5,123 216.5,123 216.5,123 216.5,123 216.5,123 
		216.5,123 216.5,123 217.5,123 217.5,123 217.5,124 217.5,124 217.5,123 217.5,123 217.5,123 217.5,123 217.5,123 217.5,123 
		217.5,123 217.5,122 218.5,122 218.5,122 218.5,122 218.5,122 218.5,122 218.5,123 218.5,123 218.5,123 218.5,123 218.5,123 
		218.5,123 218.5,123 218.5,123 219.5,123 219.5,123 219.5,123 219.5,123 219.5,123 219.5,123 219.5,123 219.5,123 219.5,123 
		219.5,123 219.5,123 219.5,123 219.5,123 220.5,123 220.5,123 220.5,122 220.5,122 220.5,122 220.5,122 220.5,121 220.5,121 
		220.5,121 220.5,121 220.5,121 220.5,121 220.5,121 221.5,121 221.5,121 221.5,121 221.5,121 221.5,121 221.5,121 221.5,121 
		221.5,121 221.5,121 221.5,121 221.5,121 221.5,121 221.5,120 222.5,120 222.5,120 222.5,120 222.5,120 222.5,120 222.5,120 
		222.5,120 222.5,120 222.5,120 222.5,120 222.5,120 222.5,120 222.5,119 223.5,119 223.5,119 223.5,119 223.5,118 223.5,118 
		223.5,118 223.5,118 223.5,118 223.5,119 223.5,119 223.5,119 223.5,119 223.5,119 224.5,119 224.5,119 224.5,119 224.5,118 
		224.5,118 224.5,118 224.5,118 224.5,118 224.5,118 224.5,117 224.5,118 224.5,118 224.5,118 225.5,118 225.5,118 225.5,118 
		225.5,118 225.5,118 225.5,118 225.5,117 225.5,117 225.5,117 225.5,117 225.5,117 225.5,117 225.5,117 226.5,117 226.5,117 
		226.5,117 226.5,117 226.5,117 226.5,117 226.5,117 226.5,117 226.5,117 226.5,117 226.5,117 226.5,117 226.5,117 227.5,117 
		227.5,117 227.5,117 227.5,117 227.5,117 227.5,117 227.5,117 227.5,116 227.5,116 227.5,116 227.5,116 227.5,116 227.5,116 
		228.5,116 228.5,116 228.5,116 228.5,116 228.5,116 228.5,116 228.5,116 228.5,116 228.5,116 228.5,116 228.5,116 228.5,115 
		228.5,115 229.5,115 229.5,115 229.5,114 229.5,114 229.5,114 229.5,114 229.5,114 229.5,114 229.5,113 229.5,113 229.5,113 
		229.5,113 229.5,113 230.5,113 230.5,112 230.5,112 230.5,112 230.5,112 230.5,111 230.5,111 230.5,111 230.5,111 230.5,111 
		230.5,111 230.5,111 230.5,111 231.5,112 231.5,112 231.5,112 231.5,112 231.5,112 231.5,112 231.5,112 231.5,112 231.5,112 
		231.5,112 231.5,112 231.5,112 231.5,113 232.5,112 232.5,112 232.5,111 232.5,111 232.5,111 232.5,111 232.5,111 232.5,111 
		232.5,111 232.5,111 232.5,111 232.5,111 232.5,111 233.5,111 233.5,111 233.5,111 233.5,111 233.5,111 233.5,111 233.5,111 
		233.5,111 233.5,111 233.5,110 233.5,110 233.5,110 233.5,110 234.5,110 234.5,110 234.5,110 234.5,109 234.5,109 234.5,109 
		234.5,109 234.5,108 234.5,108 234.5,108 234.5,108 234.5,108 234.5,108 235.5,108 235.5,108 235.5,108 235.5,108 235.5,108 
		235.5,108 235.5,108 235.5,108 235.5,107 235.5,107 235.5,107 235.5,107 235.5,107 236.5,107 236.5,107 236.5,107 236.5,107 
		236.5,107 236.5,107 236.5,107 236.5,107 236.5,107 236.5,107 236.5,107 236.5,107 236.5,106 237.5,106 237.5,106 237.5,106 
		237.5,106 237.5,106 237.5,106 237.5,105 237.5,105 237.5,105 237.5,105 237.5,104 237.5,104 238.5,104 238.5,103 238.5,103 
		238.5,102 238.5,102 238.5,101 238.5,101 238.5,101 238.5,101 238.5,100 238.5,100 238.5,100 238.5,99 239.5,99 239.5,99 239.5,98 
		239.5,98 239.5,98 239.5,98 239.5,97 239.5,97 239.5,97 239.5,97 239.5,96 239.5,96 239.5,96 240.5,96 240.5,96 240.5,96 240.5,96 
		240.5,96 240.5,96 240.5,96 240.5,96 240.5,97 240.5,97 240.5,97 240.5,96 240.5,96 241.5,96 241.5,96 241.5,96 241.5,96 241.5,96 
		241.5,96 241.5,96 241.5,96 241.5,96 241.5,96 241.5,96 241.5,96 241.5,96 242.5,96 242.5,96 242.5,96 242.5,96 242.5,96 242.5,96 
		242.5,96 242.5,96 242.5,95 242.5,95 242.5,95 242.5,95 242.5,94 243.5,94 243.5,94 243.5,94 243.5,95 243.5,95 243.5,95 243.5,95 
		243.5,95 243.5,95 243.5,95 243.5,94 243.5,94 243.5,94 244.5,95 244.5,95 244.5,95 244.5,95 244.5,94 244.5,94 244.5,94 244.5,94 
		244.5,94 244.5,94 244.5,94 244.5,94 244.5,94 245.5,94 245.5,94 245.5,94 245.5,94 245.5,94 245.5,93 245.5,93 245.5,93 245.5,93 
		245.5,93 245.5,93 245.5,94 245.5,94 246.5,94 246.5,94 246.5,95 246.5,95 246.5,95 246.5,95 246.5,95 246.5,94 246.5,94 246.5,93 
		246.5,93 246.5,93 246.5,93 247.5,93 247.5,92 247.5,93 247.5,93 247.5,93 247.5,94 247.5,94 247.5,93 247.5,93 247.5,93 247.5,92 
		247.5,92 247.5,91 248.5,91 248.5,91 248.5,91 248.5,90 248.5,90 248.5,90 248.5,90 248.5,90 248.5,90 248.5,90 248.5,90 248.5,90 
		248.5,89 249.5,89 249.5,89 249.5,89 249.5,89 249.5,89 249.5,89 249.5,89 249.5,89 249.5,88 249.5,88 249.5,88 249.5,88 249.5,88 
		250.5,88 250.5,88 250.5,88 250.5,88 250.5,87 250.5,87 250.5,87 250.5,87 250.5,87 250.5,87 250.5,87 250.5,87 250.5,87 251.5,86 
		251.5,86 251.5,86 251.5,86 251.5,86 251.5,86 251.5,86 251.5,86 251.5,86 251.5,86 251.5,86 251.5,86 251.5,86 252.5,86 252.5,85 
		252.5,85 252.5,85 252.5,85 252.5,84 252.5,84 252.5,84 252.5,83 252.5,83 252.5,83 252.5,83 252.5,82 253.5,82 253.5,82 253.5,82 
		253.5,81 253.5,81 253.5,81 253.5,81 253.5,81 253.5,80 253.5,80 253.5,80 253.5,80 253.5,79 254.5,79 254.5,79 254.5,79 254.5,79 
		254.5,79 254.5,78 254.5,78 254.5,78 254.5,78 254.5,78 254.5,78 254.5,77 254.5,77 255.5,77 255.5,77 255.5,77 255.5,77 255.5,77 
		255.5,77 255.5,77 255.5,77 255.5,77 255.5,77 255.5,77 255.5,76 255.5,76 256.5,76 256.5,76 256.5,76 256.5,75 256.5,75 256.5,75 
		256.5,75 256.5,75 256.5,74 256.5,74 256.5,74 256.5,74 256.5,73 257.5,73 257.5,73 257.5,73 257.5,72 257.5,72 257.5,72 257.5,72 
		257.5,72 257.5,71 257.5,71 257.5,71 257.5,71 257.5,70 258.5,70 258.5,70 258.5,70 258.5,70 258.5,69 258.5,69 258.5,68 258.5,68 
		258.5,68 258.5,68 258.5,68 258.5,68 259.5,68 259.5,68 259.5,68 259.5,68 259.5,68 259.5,68 259.5,68 259.5,68 259.5,67 259.5,67 
		259.5,67 259.5,67 259.5,67 260.5,68 260.5,68 260.5,68 260.5,68 260.5,68 260.5,68 260.5,68 260.5,68 260.5,68 260.5,68 260.5,68 
		260.5,68 260.5,67 261.5,67 261.5,67 261.5,67 261.5,66 261.5,66 261.5,65 261.5,65 261.5,64 261.5,64 261.5,63 261.5,63 261.5,62 
		261.5,62 262.5,61 262.5,61 262.5,61 262.5,60 262.5,60 262.5,60 262.5,59 262.5,59 262.5,59 262.5,59 262.5,58 262.5,59 262.5,58 
		263.5,59 263.5,59 263.5,59 263.5,59 263.5,59 263.5,60 263.5,60 263.5,61 263.5,61 263.5,62 263.5,63 263.5,63 263.5,64 264.5,64 
		264.5,65 264.5,66 264.5,66 264.5,67 264.5,67 264.5,67 264.5,67 264.5,67 264.5,66 264.5,66 264.5,66 264.5,65 265.5,65 265.5,64 
		265.5,64 265.5,64 265.5,63 265.5,63 265.5,63 265.5,62 265.5,62 265.5,62 265.5,61 265.5,61 265.5,61 266.5,61 266.5,61 266.5,61 
		266.5,61 266.5,61 266.5,61 266.5,61 266.5,61 266.5,61 266.5,62 266.5,62 266.5,62 266.5,63 267.5,63 267.5,64 267.5,64 267.5,64 
		267.5,65 267.5,65 267.5,65 267.5,66 267.5,66 267.5,66 267.5,66 267.5,66 267.5,66 268.5,66 268.5,65 268.5,65 268.5,64 268.5,64 
		268.5,63 268.5,62 268.5,61 268.5,60 268.5,59 268.5,58 268.5,57 268.5,56 269.5,55 269.5,54 269.5,53 269.5,52 269.5,52 269.5,50 
		269.5,49 269.5,47 269.5,46 269.5,46 269.5,46 269.5,46 269.5,45 270.5,44 270.5,44 270.5,44 270.5,43 270.5,43 270.5,43 270.5,43 
		270.5,43 270.5,42 270.5,42 270.5,42 270.5,42 270.5,42 271.5,42 271.5,41 271.5,41 271.5,41 271.5,41 271.5,40 271.5,40 271.5,40 
		271.5,40 271.5,41 271.5,42 271.5,43 271.5,44 272.5,44 272.5,45 272.5,45 272.5,46 272.5,46 272.5,46 272.5,47 272.5,47 272.5,48 
		272.5,48 272.5,48 272.5,48 272.5,47 273.5,46 273.5,46 273.5,45 273.5,44 273.5,44 273.5,43 273.5,43 273.5,43 273.5,43 273.5,43 
		273.5,43 273.5,42 273.5,42 274.5,42 274.5,42 274.5,42 274.5,42 274.5,42 274.5,42 274.5,42 274.5,41 274.5,41 274.5,40 274.5,40 
		274.5,39 274.5,38 275.5,38 275.5,37 275.5,36 275.5,36 275.5,35 275.5,35 275.5,34 275.5,33 275.5,33 275.5,32 275.5,32 275.5,31 
		275.5,31 276.5,30 276.5,30 276.5,29 276.5,29 276.5,28 276.5,28 276.5,27 276.5,26 276.5,25 276.5,24 276.5,23 276.5,23 276.5,23 
		277.5,23 277.5,23 277.5,23 277.5,23 277.5,24 277.5,24 277.5,24 277.5,24 277.5,24 277.5,24 277.5,24 277.5,24 277.5,24 278.5,24 
		278.5,24 278.5,24 278.5,24 278.5,24 278.5,24 278.5,24 278.5,24 278.5,24 278.5,24 278.5,24 278.5,24 279.5,24 279.5,25 279.5,25 
		279.5,26 279.5,26 279.5,27 279.5,27 279.5,27 279.5,28 279.5,28 279.5,28 279.5,28 279.5,28 280.5,28 280.5,28 280.5,28 280.5,28 
		280.5,27 280.5,27 280.5,27 280.5,26 280.5,26 280.5,25 280.5,25 280.5,25 280.5,25 281.5,24 281.5,24 281.5,24 281.5,24 281.5,25 
		281.5,25 281.5,25 281.5,26 281.5,26 281.5,26 281.5,26 281.5,27 281.5,27 282.5,27 282.5,28 282.5,29 282.5,29 282.5,30 282.5,30 
		282.5,30 282.5,31 282.5,31 282.5,31 282.5,32 282.5,33 282.5,34 283.5,34 283.5,35 283.5,35 283.5,36 283.5,36 283.5,37 283.5,37 
		283.5,38 283.5,39 283.5,39 283.5,40 283.5,40 283.5,41 284.5,40 284.5,40 284.5,41 284.5,41 284.5,41 284.5,41 284.5,41 284.5,41 
		284.5,42 284.5,42 284.5,42 284.5,42 284.5,42 285.5,43 285.5,43 285.5,43 285.5,43 285.5,44 285.5,44 285.5,44 285.5,44 285.5,44 
		285.5,44 285.5,44 285.5,45 285.5,45 286.5,45 286.5,46 286.5,46 286.5,46 286.5,47 286.5,47 286.5,48 286.5,49 286.5,49 286.5,50 
		286.5,51 286.5,51 286.5,51 287.5,51 287.5,51 287.5,51 287.5,50 287.5,50 287.5,49 287.5,48 287.5,47 287.5,46 287.5,45 287.5,44 
		287.5,43 287.5,42 288.5,41 288.5,41 288.5,40 288.5,39 288.5,39 288.5,39 288.5,39 288.5,40 288.5,40 288.5,40 288.5,40 288.5,40 
		288.5,40 289.5,40 289.5,40 289.5,40 289.5,41 289.5,41 289.5,41 289.5,41 289.5,42 289.5,42 289.5,43 289.5,43 289.5,43 289.5,43 
		290.5,42 290.5,42 290.5,42 290.5,42 290.5,42 290.5,42 290.5,42 290.5,42 290.5,42 290.5,41 290.5,41 290.5,40 290.5,40 291.5,40 
		291.5,39 291.5,39 291.5,39 291.5,38 291.5,37 291.5,37 291.5,36 291.5,36 291.5,35 291.5,34 291.5,33 291.5,33 292.5,32 292.5,31 
		292.5,30 292.5,30 292.5,29 292.5,29 292.5,29 292.5,28 292.5,28 292.5,27 292.5,27 292.5,26 292.5,26 293.5,25 293.5,25 293.5,24 
		293.5,24 293.5,23 293.5,23 293.5,22 293.5,22 293.5,21 293.5,21 293.5,20 293.5,20 293.5,19 294.5,19 294.5,18 294.5,18 294.5,17 
		294.5,17 294.5,16 294.5,16 294.5,15 294.5,15 294.5,15 294.5,14 294.5,13 294.5,13 295.5,13 295.5,12 295.5,12 295.5,12 295.5,11 
		295.5,11 295.5,10 295.5,10 295.5,10 295.5,9 295.5,9 295.5,8 295.5,8 296.5,8 296.5,8 296.5,7 296.5,7 296.5,6 296.5,6 296.5,5 
		296.5,5 296.5,5 296.5,4 296.5,4 296.5,3 296.5,3 297.5,2 297.5,2 297.5,1 297.5,1 297.5,1 297.5,0 297.5,0 297.5,0 297.5,0 
		297.5,0 297.5,0 297.5,0 297.5,1 298.5,1 298.5,1 298.5,2 298.5,3 298.5,3 298.5,4 298.5,4 298.5,5 298.5,6 298.5,6 298.5,7 
		298.5,8 299.5,8 299.5,9 299.5,10 299.5,11 299.5,13 299.5,14 299.5,15 299.5,16 299.5,17 299.5,18 299.5,19 299.5,19 299.5,20 
		300.5,21 300.5,22 300.5,23 300.5,23 300.5,24 300.5,24 300.5,25 300.5,26 300.5,27 300.5,27 300.5,28 300.5,28 300.5,28 301.5,29 
		301.5,29 301.5,30 301.5,30 301.5,30 301.5,30 301.5,31 301.5,31 301.5,31 301.5,30 301.5,31 301.5,31 301.5,31 302.5,31 302.5,32 
		302.5,32 302.5,32 302.5,32 302.5,33 302.5,33 302.5,33 302.5,34 302.5,34 302.5,35 302.5,35 302.5,36 303.5,36 303.5,37 303.5,38 
		303.5,38 303.5,39 303.5,40 303.5,40 303.5,41 303.5,41 303.5,42 303.5,42 303.5,42 303.5,42 304.5,42 304.5,42 304.5,42 304.5,41 
		304.5,41 304.5,41 304.5,40 304.5,40 304.5,39 304.5,39 304.5,38 304.5,38 304.5,38 305.5,37 305.5,37 305.5,36 305.5,36 305.5,35 
		305.5,35 305.5,35 305.5,35 305.5,34 305.5,34 305.5,34 305.5,34 305.5,34 306.5,34 306.5,34 306.5,34 306.5,34 306.5,34 306.5,34 
		306.5,34 306.5,34 306.5,34 306.5,34 306.5,34 306.5,33 306.5,33 307.5,33 307.5,33 307.5,33 307.5,32 307.5,32 307.5,32 307.5,32 
		307.5,31 307.5,31 307.5,31 307.5,30 307.5,30 307.5,29 308.5,29 308.5,29 308.5,29 308.5,29 308.5,29 308.5,30 308.5,30 308.5,30 
		308.5,31 308.5,31 308.5,31 308.5,32 308.5,32 309.5,33 309.5,33 309.5,34 309.5,34 309.5,35 309.5,35 309.5,36 309.5,36 309.5,37 
		309.5,38 309.5,38 309.5,39 309.5,40 310.5,40 310.5,41 310.5,42 310.5,44 310.5,45 310.5,46 310.5,48 310.5,49 310.5,50 310.5,51 
		310.5,53 310.5,54 310.5,56 311.5,57 311.5,59 311.5,59 311.5,60 311.5,61 311.5,62 311.5,63 311.5,64 311.5,65 311.5,65 311.5,66 
		311.5,66 311.5,67 312.5,68 312.5,69 312.5,69 312.5,70 312.5,71 312.5,71 312.5,72 312.5,73 312.5,73 312.5,74 312.5,75 312.5,76 
		312.5,76 313.5,77 313.5,77 313.5,78 313.5,79 313.5,80 313.5,81 313.5,82 313.5,83 313.5,83 313.5,84 313.5,85 313.5,85 313.5,85 
		314.5,85 314.5,85 314.5,86 314.5,86 314.5,86 314.5,86 314.5,87 314.5,87 314.5,88 314.5,89 314.5,89 314.5,90 314.5,90 315.5,91 
		315.5,91 315.5,91 315.5,92 315.5,92 315.5,92 315.5,92 315.5,92 315.5,93 315.5,93 315.5,93 315.5,93 315.5,93 316.5,93 316.5,94 
		316.5,94 316.5,94 316.5,95 316.5,95 316.5,95 316.5,96 316.5,96 316.5,96 316.5,96 316.5,96 316.5,96 317.5,96 317.5,95 317.5,95 
		317.5,94 317.5,94 317.5,93 317.5,92 317.5,92 317.5,91 317.5,91 317.5,90 317.5,90 317.5,90 318.5,90 318.5,90 318.5,90 318.5,90 
		318.5,90 318.5,90 318.5,90 318.5,89 318.5,89 318.5,89 318.5,89 318.5,90 319.5,90 319.5,91 319.5,91 319.5,92 319.5,92 319.5,93 
		319.5,93 319.5,93 319.5,93 319.5,93 319.5,94 319.5,94 319.5,94 320.5,94 320.5,94 320.5,94 320.5,95 320.5,95 320.5,96 320.5,97 
		320.5,98 320.5,98 320.5,99 320.5,100 320.5,100 320.5,101 321.5,101 321.5,102 321.5,102 321.5,102 321.5,102 321.5,103 
		321.5,104 321.5,104 321.5,105 321.5,105 321.5,106 321.5,106 321.5,107 322.5,107 322.5,107 322.5,108 322.5,108 322.5,108 
		322.5,109 322.5,109 322.5,109 322.5,109 322.5,110 322.5,110 322.5,110 322.5,110 323.5,110 323.5,110 323.5,110 323.5,110 
		323.5,109 323.5,109 323.5,109 323.5,109 323.5,109 323.5,109 323.5,109 323.5,109 323.5,108 324.5,108 324.5,108 324.5,107 
		324.5,107 324.5,106 324.5,106 324.5,105 324.5,105 324.5,104 324.5,104 324.5,103 324.5,102 324.5,102 325.5,102 325.5,102 
		325.5,101 325.5,101 325.5,101 325.5,100 325.5,99 325.5,99 325.5,98 325.5,97 325.5,97 325.5,96 325.5,96 326.5,95 326.5,95 
		326.5,94 326.5,94 326.5,93 326.5,93 326.5,92 326.5,92 326.5,91 326.5,91 326.5,90 326.5,90 326.5,89 327.5,89 327.5,88 327.5,88 
		327.5,87 327.5,87 327.5,87 327.5,86 327.5,86 327.5,86 327.5,85 327.5,85 327.5,85 327.5,85 328.5,84 328.5,84 328.5,84 328.5,84 
		328.5,84 328.5,83 328.5,83 328.5,83 328.5,83 328.5,83 328.5,84 328.5,85 328.5,85 329.5,86 329.5,86 329.5,87 329.5,88 329.5,88 
		329.5,89 329.5,90 329.5,90 329.5,91 329.5,91 329.5,92 329.5,93 329.5,93 330.5,94 330.5,94 330.5,94 330.5,95 330.5,95 330.5,96 
		330.5,96 330.5,96 330.5,97 330.5,97 330.5,98 330.5,98 330.5,99 331.5,99 331.5,99 331.5,100 331.5,100 331.5,101 331.5,101 
		331.5,101 331.5,102 331.5,102 331.5,102 331.5,103 331.5,103 331.5,103 332.5,104 332.5,104 332.5,105 332.5,105 332.5,105 
		332.5,106 332.5,106 332.5,106 332.5,106 332.5,107 332.5,107 332.5,107 332.5,108 333.5,108 333.5,109 333.5,109 333.5,110 
		333.5,110 333.5,110 333.5,111 333.5,111 333.5,111 333.5,112 333.5,112 333.5,112 333.5,112 334.5,113 334.5,113 334.5,113 
		334.5,114 334.5,114 334.5,114 334.5,114 334.5,114 334.5,114 334.5,115 334.5,115 334.5,115 334.5,114 335.5,114 335.5,113 
		335.5,113 335.5,113 335.5,112 335.5,112 335.5,112 335.5,111 335.5,111 335.5,110 335.5,110 335.5,109 335.5,109 336.5,108 
		336.5,108 336.5,107 336.5,106 336.5,106 336.5,105 336.5,104 336.5,104 336.5,103 336.5,103 336.5,102 336.5,101 336.5,101 
		337.5,101 337.5,100 337.5,99 337.5,99 337.5,98 337.5,98 337.5,97 337.5,97 337.5,96 337.5,96 337.5,95 337.5,95 337.5,95 
		338.5,94 338.5,94 338.5,94 338.5,94 338.5,93 338.5,93 338.5,93 338.5,92 338.5,92 338.5,92 338.5,92 338.5,93 339.5,93 339.5,93 
		339.5,93 339.5,93 339.5,93 339.5,93 339.5,93 339.5,93 339.5,93 339.5,93 339.5,93 339.5,92 339.5,92 340.5,91 340.5,91 340.5,91 
		340.5,90 340.5,89 340.5,89 340.5,89 340.5,89 340.5,90 340.5,90 340.5,90 340.5,90 340.5,90 341.5,90 341.5,90 341.5,90 341.5,90 
		341.5,90 341.5,90 341.5,90 341.5,90 341.5,90 341.5,90 341.5,89 341.5,89 341.5,90 342.5,90 342.5,91 342.5,91 342.5,92 342.5,93 
		342.5,93 342.5,93 342.5,94 342.5,94 342.5,95 342.5,95 342.5,96 342.5,97 343.5,97 343.5,98 343.5,99 343.5,99 343.5,99 
		343.5,100 343.5,100 343.5,101 343.5,102 343.5,102 343.5,103 343.5,104 343.5,104 344.5,105 344.5,105 344.5,106 344.5,106 
		344.5,107 344.5,108 344.5,108 344.5,109 344.5,109 344.5,110 344.5,110 344.5,111 344.5,111 345.5,111 345.5,112 345.5,112 
		345.5,113 345.5,113 345.5,113 345.5,114 345.5,114 345.5,114 345.5,114 345.5,115 345.5,115 345.5,115 346.5,115 346.5,115 
		346.5,115 346.5,116 346.5,116 346.5,117 346.5,117 346.5,117 346.5,117 346.5,118 346.5,118 346.5,118 346.5,119 347.5,119 
		347.5,119 347.5,119 347.5,120 347.5,120 347.5,120 347.5,120 347.5,120 347.5,119 347.5,119 347.5,119 347.5,119 347.5,118 
		348.5,118 348.5,118 348.5,118 348.5,118 348.5,117 348.5,117 348.5,116 348.5,116 348.5,116 348.5,115 348.5,115 348.5,115 
		348.5,114 349.5,114 349.5,114 349.5,114 349.5,114 349.5,114 349.5,114 349.5,113 349.5,113 349.5,113 349.5,112 349.5,111 
		349.5,110 349.5,110 350.5,109 350.5,109 350.5,108 350.5,108 350.5,108 350.5,108 350.5,107 350.5,107 350.5,107 350.5,107 
		350.5,108 350.5,108 350.5,108 351.5,107 351.5,107 351.5,107 351.5,107 351.5,107 351.5,107 351.5,107 351.5,107 351.5,107 
		351.5,107 351.5,107 351.5,108 351.5,108 352.5,108 352.5,108 352.5,109 352.5,109 352.5,109 352.5,109 352.5,109 352.5,110 
		352.5,110 352.5,110 352.5,111 352.5,111 352.5,112 353.5,112 353.5,113 353.5,113 353.5,114 353.5,114 353.5,114 353.5,115 
		353.5,115 353.5,116 353.5,116 353.5,117 353.5,117 353.5,117 354.5,118 354.5,118 354.5,118 354.5,119 354.5,119 354.5,119 
		354.5,120 354.5,120 354.5,121 354.5,121 354.5,122 354.5,122 354.5,123 355.5,123 355.5,124 355.5,124 355.5,125 355.5,125 
		355.5,126 355.5,126 355.5,127 355.5,128 355.5,128 355.5,129 355.5,129 355.5,130 356.5,131 356.5,131 356.5,132 356.5,132 
		356.5,133 356.5,133 356.5,134 356.5,134 356.5,135 356.5,135 356.5,136 356.5,136 356.5,137 357.5,137 357.5,138 357.5,138 
		357.5,139 357.5,139 357.5,139 357.5,140 357.5,140 357.5,141 357.5,141 357.5,141 357.5,141 357.5,142 358.5,142 358.5,142 
		358.5,142 358.5,142 358.5,142 358.5,142 358.5,142 358.5,142 358.5,142 358.5,142 358.5,142 358.5,142 359.5,142 359.5,142 
		359.5,143 359.5,143 359.5,143 359.5,142 359.5,141 359.5,141 359.5,141 359.5,141 359.5,141 359.5,142 359.5,142 360.5,143 
		360.5,143 360.5,144 360.5,144 360.5,144 360.5,144 360.5,144 360.5,144 360.5,144 360.5,144 360.5,144 360.5,144 360.5,144 
		361.5,144 361.5,144 361.5,144 361.5,144 361.5,144 361.5,144 361.5,144 361.5,145 361.5,145 361.5,146 361.5,146 361.5,147 
		361.5,148 362.5,148 362.5,148 362.5,147 362.5,147 362.5,146 362.5,146 362.5,146 362.5,147 362.5,147 362.5,147 362.5,147 
		362.5,147 362.5,148 363.5,148 363.5,148 363.5,148 363.5,148 363.5,147 363.5,147 363.5,147 363.5,147 363.5,147 363.5,147 
		363.5,147 363.5,147 363.5,148 364.5,148 364.5,148 364.5,148 364.5,148 364.5,149 364.5,149 364.5,149 364.5,149 364.5,150 
		364.5,150 364.5,150 364.5,151 364.5,151 365.5,151 365.5,152 365.5,152 365.5,152 365.5,152 365.5,152 365.5,152 365.5,152 
		365.5,152 365.5,152 365.5,152 365.5,152 365.5,152 366.5,152 366.5,152 366.5,152 366.5,152 366.5,152 366.5,152 366.5,152 
		366.5,152 366.5,152 366.5,152 366.5,152 366.5,152 366.5,153 367.5,153 367.5,153 367.5,153 367.5,153 367.5,153 367.5,153 
		367.5,153 367.5,152 367.5,152 367.5,152 367.5,152 367.5,152 367.5,152 368.5,151 368.5,151 368.5,150 368.5,150 368.5,149 
		368.5,149 368.5,148 368.5,148 368.5,147 368.5,146 368.5,146 368.5,145 368.5,144 369.5,143 369.5,143 369.5,142 369.5,141 
		369.5,141 369.5,140 369.5,140 369.5,140 369.5,140 369.5,139 369.5,139 369.5,139 369.5,139 370.5,139 370.5,139 370.5,139 
		370.5,139 370.5,139 370.5,139 370.5,139 370.5,140 370.5,140 370.5,138 370.5,135 370.5,131 370.5,127 371.5,124 371.5,123 
		371.5,121 371.5,120 371.5,119 371.5,119 371.5,119 371.5,118 371.5,118 371.5,118 371.5,118 371.5,118 371.5,118 372.5,118 
		372.5,118 372.5,118 372.5,119 372.5,119 372.5,118 372.5,118 372.5,118 372.5,118 372.5,118 372.5,118 372.5,118 372.5,118 
		373.5,118 373.5,118 373.5,118 373.5,119 373.5,120 373.5,121 373.5,122 373.5,123 373.5,124 373.5,126 373.5,127 373.5,128 
		373.5,129 374.5,130 374.5,131 374.5,132 374.5,133 374.5,133 374.5,134 374.5,135 374.5,135 374.5,136 374.5,137 374.5,137 
		374.5,138 374.5,138 375.5,138 375.5,139 375.5,139 375.5,139 375.5,139 375.5,139 375.5,138 375.5,138 375.5,138 375.5,138 
		375.5,137 375.5,137 375.5,137 376.5,136 376.5,136 376.5,136 376.5,135 376.5,135 376.5,134 376.5,134 376.5,133 376.5,133 
		376.5,132 376.5,132 376.5,131 376.5,131 377.5,131 377.5,130 377.5,130 377.5,130 377.5,130 377.5,129 377.5,129 377.5,129 
		377.5,129 377.5,129 377.5,129 377.5,129 377.5,130 378.5,130 378.5,130 378.5,130 378.5,131 378.5,131 378.5,131 378.5,131 
		378.5,132 378.5,132 378.5,132 378.5,133 378.5,133 379.5,133 379.5,134 379.5,134 379.5,134 379.5,134 379.5,135 379.5,135 
		379.5,135 379.5,135 379.5,136 379.5,136 379.5,136 379.5,137 380.5,137 380.5,138 380.5,139 380.5,140 380.5,140 380.5,141 
		380.5,142 380.5,143 380.5,143 380.5,144 380.5,144 380.5,145 380.5,145 381.5,146 381.5,147 381.5,148 381.5,148 381.5,149 
		381.5,149 381.5,150 381.5,151 381.5,151 381.5,151 381.5,151 381.5,152 381.5,152 382.5,152 382.5,152 382.5,153 382.5,153 
		382.5,153 382.5,154 382.5,154 382.5,154 382.5,155 382.5,155 382.5,155 382.5,156 382.5,157 383.5,157 383.5,157 383.5,158 
		383.5,158 383.5,158 383.5,159 383.5,159 383.5,160 383.5,160 383.5,161 383.5,161 383.5,162 383.5,162 384.5,162 384.5,162 
		384.5,163 384.5,163 384.5,163 384.5,163 384.5,163 384.5,164 384.5,164 384.5,164 384.5,165 384.5,166 384.5,166 385.5,167 
		385.5,167 385.5,168 385.5,169 385.5,169 385.5,170 385.5,171 385.5,172 385.5,173 385.5,174 385.5,174 385.5,175 385.5,175 
		386.5,175 386.5,175 386.5,175 386.5,175 386.5,175 386.5,175 386.5,175 386.5,175 386.5,176 386.5,176 386.5,176 386.5,175 
		386.5,174 387.5,174 387.5,173 387.5,172 387.5,171 387.5,170 387.5,170 387.5,169 387.5,168 387.5,168 387.5,167 387.5,166 
		387.5,165 387.5,164 388.5,163 388.5,163 388.5,162 388.5,161 388.5,160 388.5,160 388.5,159 388.5,159 388.5,158 388.5,157 
		388.5,156 388.5,156 388.5,155 389.5,155 389.5,155 389.5,154 389.5,154 389.5,154 389.5,154 389.5,153 389.5,153 389.5,153 
		389.5,153 389.5,153 389.5,154 389.5,154 390.5,154 390.5,154 390.5,154 390.5,154 390.5,155 390.5,155 390.5,155 390.5,155 
		390.5,156 390.5,156 390.5,156 390.5,156 390.5,156 391.5,156 391.5,157 391.5,159 391.5,160 391.5,162 391.5,162 391.5,163 
		391.5,164 391.5,164 391.5,165 391.5,166 391.5,166 391.5,167 392.5,168 392.5,168 392.5,169 392.5,169 392.5,170 392.5,170 
		392.5,170 392.5,171 392.5,171 392.5,171 392.5,170 392.5,170 392.5,170 393.5,171 393.5,171 393.5,171 393.5,172 393.5,172 
		393.5,173 393.5,173 393.5,173 393.5,174 393.5,175 393.5,175 393.5,175 393.5,176 394.5,176 394.5,176 394.5,176 394.5,177 
		394.5,177 394.5,178 394.5,178 394.5,178 394.5,178 394.5,179 394.5,179 394.5,179 394.5,179 395.5,180 395.5,180 395.5,180 
		395.5,181 395.5,181 395.5,182 395.5,182 395.5,182 395.5,183 395.5,183 395.5,184 395.5,184 395.5,184 396.5,185 396.5,185 
		396.5,186 396.5,186 396.5,187 396.5,187 396.5,187 396.5,188 396.5,188 396.5,188 396.5,189 396.5,189 396.5,189 397.5,189 
		397.5,190 397.5,190 397.5,190 397.5,190 397.5,190 397.5,191 397.5,191 397.5,191 397.5,191 397.5,191 397.5,192 397.5,192 
		398.5,192 398.5,192 398.5,192 398.5,192 398.5,192 398.5,193 398.5,193 398.5,193 398.5,193 398.5,193 398.5,193 398.5,193 
		399.5,193 399.5,194 399.5,194 399.5,194 399.5,194 399.5,194 399.5,195 399.5,195 399.5,195 399.5,195 399.5,196 399.5,196 
		399.5,196 400.5,196 400.5,196 400.5,197 400.5,197 400.5,197 400.5,197 400.5,197 400.5,198 400.5,198 400.5,198 400.5,198 
		400.5,198 400.5,198 401.5,198 401.5,198 401.5,198 401.5,199 401.5,199 401.5,199 401.5,199 401.5,199 401.5,200 401.5,200 
		401.5,200 401.5,200 401.5,200 402.5,199 402.5,199 402.5,199 402.5,198 402.5,196 402.5,195 402.5,193 402.5,192 402.5,191 
		402.5,190 402.5,189 402.5,189 402.5,188 403.5,188 403.5,187 403.5,186 403.5,185 403.5,184 403.5,183 403.5,182 403.5,181 
		403.5,179 403.5,178 403.5,177 403.5,177 403.5,176 404.5,176 404.5,175 404.5,174 404.5,173 404.5,172 404.5,172 404.5,171 
		404.5,171 404.5,170 404.5,171 404.5,171 404.5,171 404.5,171 405.5,171 405.5,171 405.5,171 405.5,171 405.5,171 405.5,171 
		405.5,171 405.5,171 405.5,170 405.5,170 405.5,170 405.5,170 405.5,170 406.5,170 406.5,170 406.5,170 406.5,169 406.5,169 
		406.5,169 406.5,169 406.5,168 406.5,168 406.5,168 406.5,168 406.5,168 406.5,168 407.5,169 407.5,169 407.5,169 407.5,169 
		407.5,169 407.5,169 407.5,169 407.5,168 407.5,167 407.5,166 407.5,166 407.5,165 407.5,164 408.5,163 408.5,162 408.5,161 
		408.5,160 408.5,159 408.5,158 408.5,157 408.5,157 408.5,156 408.5,155 408.5,155 408.5,154 408.5,154 409.5,154 409.5,153 
		409.5,153 409.5,152 409.5,152 409.5,152 409.5,151 409.5,151 409.5,151 409.5,150 409.5,150 409.5,150 409.5,149 410.5,149 
		410.5,149 410.5,149 410.5,148 410.5,148 410.5,148 410.5,149 410.5,149 410.5,149 410.5,149 410.5,149 410.5,149 410.5,149 
		411.5,149 411.5,149 411.5,150 411.5,150 411.5,150 411.5,150 411.5,150 411.5,150 411.5,151 411.5,151 411.5,151 411.5,151 
		411.5,152 412.5,152 412.5,153 412.5,153 412.5,153 412.5,153 412.5,153 412.5,152 412.5,152 412.5,151 412.5,151 412.5,151 
		412.5,151 412.5,150 413.5,150 413.5,149 413.5,149 413.5,148 413.5,148 413.5,148 413.5,147 413.5,147 413.5,147 413.5,147 
		413.5,147 413.5,146 413.5,146 414.5,146 414.5,145 414.5,144 414.5,144 414.5,144 414.5,143 414.5,143 414.5,143 414.5,142 
		414.5,142 414.5,142 414.5,142 414.5,141 415.5,141 415.5,141 415.5,141 415.5,140 415.5,140 415.5,140 415.5,140 415.5,139 
		415.5,139 415.5,139 415.5,139 415.5,138 415.5,138 416.5,138 416.5,138 416.5,138 416.5,137 416.5,137 416.5,137 416.5,137 
		416.5,136 416.5,136 416.5,136 416.5,136 416.5,135 416.5,135 417.5,135 417.5,135 417.5,134 417.5,134 417.5,134 417.5,134 
		417.5,134 417.5,134 417.5,134 417.5,133 417.5,133 417.5,133 417.5,132 418.5,132 418.5,132 418.5,132 418.5,132 418.5,132 
		418.5,131 418.5,131 418.5,131 418.5,131 418.5,131 418.5,131 418.5,131 419.5,131 419.5,131 419.5,130 419.5,131 419.5,131 
		419.5,131 419.5,131 419.5,131 419.5,131 419.5,132 419.5,132 419.5,132 419.5,132 420.5,132 420.5,132 420.5,132 420.5,132 
		420.5,132 420.5,132 420.5,132 420.5,132 420.5,132 420.5,132 420.5,132 420.5,132 420.5,133 421.5,133 421.5,133 421.5,133 
		421.5,133 421.5,133 421.5,133 421.5,134 421.5,134 421.5,134 421.5,135 421.5,135 421.5,136 421.5,136 422.5,136 422.5,137 
		422.5,137 422.5,138 422.5,138 422.5,139 422.5,139 422.5,139 422.5,140 422.5,140 422.5,140 422.5,141 422.5,141 423.5,141 
		423.5,142 423.5,142 423.5,143 423.5,143 423.5,144 423.5,144 423.5,144 423.5,145 423.5,145 423.5,146 423.5,146 423.5,147 
		424.5,147 424.5,147 424.5,147 424.5,147 424.5,147 424.5,147 424.5,147 424.5,147 424.5,147 424.5,147 424.5,147 424.5,147 
		424.5,147 425.5,146 425.5,146 425.5,146 425.5,146 425.5,146 425.5,146 425.5,145 425.5,145 425.5,145 425.5,145 425.5,145 
		425.5,145 425.5,145 426.5,145 426.5,145 426.5,145 426.5,145 426.5,145 426.5,145 426.5,145 426.5,145 426.5,145 426.5,145 
		426.5,145 426.5,144 426.5,144 427.5,145 427.5,145 427.5,145 427.5,146 427.5,146 427.5,146 427.5,146 427.5,146 427.5,146 
		427.5,147 427.5,147 427.5,147 427.5,148 428.5,148 428.5,148 428.5,149 428.5,149 428.5,150 428.5,150 428.5,150 428.5,151 
		428.5,151 428.5,152 428.5,152 428.5,152 428.5,153 429.5,153 429.5,153 429.5,153 429.5,154 429.5,154 429.5,154 429.5,155 
		429.5,156 429.5,157 429.5,157 429.5,158 429.5,158 429.5,159 430.5,159 430.5,160 430.5,160 430.5,161 430.5,161 430.5,162 
		430.5,163 430.5,163 430.5,164 430.5,165 430.5,165 430.5,166 430.5,166 431.5,166 431.5,166 431.5,165 431.5,165 431.5,164 
		431.5,164 431.5,163 431.5,162 431.5,162 431.5,161 431.5,161 431.5,160 431.5,160 432.5,159 432.5,159 432.5,158 432.5,158 
		432.5,157 432.5,157 432.5,156 432.5,156 432.5,155 432.5,155 432.5,155 432.5,155 432.5,155 433.5,155 433.5,155 433.5,154 
		433.5,154 433.5,154 433.5,154 433.5,154 433.5,154 433.5,153 433.5,154 433.5,154 433.5,154 433.5,154 434.5,155 434.5,155 
		434.5,156 434.5,156 434.5,157 434.5,157 434.5,158 434.5,158 434.5,159 434.5,159 434.5,160 434.5,160 434.5,161 435.5,162 
		435.5,163 435.5,164 435.5,165 435.5,167 435.5,168 435.5,170 435.5,171 435.5,172 435.5,172 435.5,173 435.5,174 435.5,175 
		436.5,175 436.5,176 436.5,176 436.5,176 436.5,176 436.5,176 436.5,176 436.5,177 436.5,177 436.5,177 436.5,178 436.5,178 
		436.5,178 437.5,178 437.5,178 437.5,178 437.5,177 437.5,176 437.5,176 437.5,175 437.5,174 437.5,174 437.5,173 437.5,173 
		437.5,173 437.5,173 438.5,173 438.5,174 438.5,174 438.5,174 438.5,175 438.5,175 438.5,176 438.5,177 438.5,177 438.5,178 
		438.5,178 438.5,179 439.5,180 439.5,181 439.5,181 439.5,182 439.5,183 439.5,184 439.5,186 439.5,187 439.5,189 439.5,190 
		439.5,192 439.5,194 439.5,195 440.5,197 440.5,198 440.5,199 440.5,199 440.5,200 440.5,203 440.5,205 440.5,207 440.5,210 
		440.5,210 440.5,211 440.5,211 440.5,212 441.5,213 441.5,214 441.5,214 441.5,215 441.5,214 441.5,213 441.5,212 441.5,211 
		441.5,209 441.5,208 441.5,206 441.5,205 441.5,204 442.5,203 442.5,202 442.5,200 442.5,199 442.5,198 442.5,197 442.5,196 
		442.5,195 442.5,195 442.5,194 442.5,194 442.5,193 442.5,193 443.5,193 443.5,192 443.5,191 443.5,191 443.5,191 443.5,191 
		443.5,191 443.5,191 443.5,191 443.5,190 443.5,190 443.5,189 443.5,189 444.5,189 444.5,188 444.5,188 444.5,188 444.5,188 
		444.5,188 444.5,188 444.5,189 444.5,189 444.5,189 444.5,190 444.5,190 444.5,191 445.5,191 445.5,192 445.5,193 445.5,194 
		445.5,195 445.5,196 445.5,197 445.5,198 445.5,199 445.5,200 445.5,202 445.5,203 445.5,204 446.5,205 446.5,207 446.5,208 
		446.5,209 446.5,210 446.5,212 446.5,213 446.5,213 446.5,215 446.5,215 446.5,216 446.5,217 446.5,217 447.5,218 447.5,219 
		447.5,219 447.5,220 447.5,220 447.5,220 447.5,221 447.5,221 447.5,221 447.5,222 447.5,222 447.5,223 447.5,223 448.5,223 
		448.5,223 448.5,223 448.5,223 448.5,223 448.5,223 448.5,222 448.5,222 448.5,222 448.5,221 448.5,221 448.5,220 448.5,220 
		449.5,219 449.5,219 449.5,218 449.5,218 449.5,217 449.5,217 449.5,217 449.5,217 449.5,217 449.5,217 449.5,217 449.5,218 
		449.5,218 450.5,218 450.5,219 450.5,218 450.5,219 450.5,219 450.5,219 450.5,219 450.5,219 450.5,218 450.5,218 450.5,217 
		450.5,217 450.5,216 451.5,215 451.5,214 451.5,213 451.5,212 451.5,211 451.5,210 451.5,209 451.5,208 451.5,207 451.5,206 
		451.5,204 451.5,203 451.5,203 452.5,202 452.5,202 452.5,201 452.5,200 452.5,200 452.5,199 452.5,198 452.5,197 452.5,197 
		452.5,196 452.5,195 452.5,195 452.5,194 453.5,193 453.5,192 453.5,192 453.5,192 453.5,192 453.5,192 453.5,192 453.5,192 
		453.5,192 453.5,192 453.5,192 453.5,192 453.5,192 454.5,192 454.5,192 454.5,192 454.5,192 454.5,192 454.5,192 454.5,192 
		454.5,192 454.5,192 454.5,192 454.5,193 454.5,194 454.5,194 455.5,195 455.5,196 455.5,197 455.5,198 455.5,199 455.5,200 
		455.5,201 455.5,202 455.5,203 455.5,204 455.5,205 455.5,206 455.5,207 456.5,208 456.5,209 456.5,210 456.5,210 456.5,211 
		456.5,211 456.5,211 456.5,212 456.5,213 456.5,213 456.5,214 456.5,215 456.5,215 457.5,216 457.5,216 457.5,216 457.5,216 
		457.5,216 457.5,216 457.5,215 457.5,214 457.5,213 457.5,213 457.5,212 457.5,210 457.5,209 458.5,208 458.5,207 458.5,206 
		458.5,205 458.5,204 458.5,203 458.5,202 458.5,200 458.5,199 458.5,198 458.5,197 458.5,197 459.5,196 459.5,196 459.5,196 
		459.5,195 459.5,195 459.5,195 459.5,194 459.5,194 459.5,194 459.5,194 459.5,194 459.5,194 459.5,194 460.5,194 460.5,194 
		460.5,194 460.5,195 460.5,195 460.5,195 460.5,196 460.5,196 460.5,196 460.5,196 460.5,196 460.5,196 460.5,196 461.5,197 
		461.5,197 461.5,197 461.5,198 461.5,199 461.5,199 461.5,200 461.5,201 461.5,202 461.5,203 461.5,203 461.5,204 461.5,205 
		462.5,205 462.5,206 462.5,206 462.5,207 462.5,207 462.5,207 462.5,207 462.5,207 462.5,208 462.5,208 462.5,208 462.5,207 
		462.5,207 463.5,206 463.5,206 463.5,205 463.5,205 463.5,204 463.5,204 463.5,203 463.5,203 463.5,202 463.5,201 463.5,201 
		463.5,201 463.5,200 464.5,200 464.5,199 464.5,198 464.5,198 464.5,198 464.5,197 464.5,197 464.5,196 464.5,196 464.5,196 
		464.5,196 464.5,196 464.5,196 465.5,196 465.5,196 465.5,196 465.5,196 465.5,196 465.5,196 465.5,197 465.5,197 465.5,197 
		465.5,197 465.5,197 465.5,197 465.5,198 466.5,198 466.5,198 466.5,198 466.5,198 466.5,199 466.5,199 466.5,198 466.5,198 
		466.5,198 466.5,198 466.5,197 466.5,197 466.5,196 467.5,196 467.5,196 467.5,197 467.5,198 467.5,198 467.5,199 467.5,200 
		467.5,200 467.5,201 467.5,202 467.5,202 467.5,203 467.5,204 468.5,205 468.5,206 468.5,207 468.5,207 468.5,208 468.5,209 
		468.5,210 468.5,210 468.5,211 468.5,212 468.5,213 468.5,213 468.5,214 469.5,215 469.5,216 469.5,217 469.5,217 469.5,218 
		469.5,218 469.5,218 469.5,219 469.5,219 469.5,220 469.5,220 469.5,221 469.5,221 470.5,222 470.5,222 470.5,222 470.5,223 
		470.5,223 470.5,224 470.5,224 470.5,225 470.5,225 470.5,226 470.5,227 470.5,227 470.5,228 471.5,229 471.5,229 471.5,229 
		471.5,230 471.5,230 471.5,230 471.5,229 471.5,227 471.5,226 471.5,225 471.5,226 471.5,226 471.5,226 472.5,225 472.5,224 
		472.5,224 472.5,223 472.5,222 472.5,221 472.5,220 472.5,218 472.5,217 472.5,215 472.5,214 472.5,212 472.5,211 473.5,209 
		473.5,208 473.5,207 473.5,205 473.5,204 473.5,203 473.5,202 473.5,201 473.5,200 473.5,199 473.5,199 473.5,198 473.5,197 
		474.5,197 474.5,196 474.5,196 474.5,196 474.5,196 474.5,196 474.5,196 474.5,196 474.5,196 474.5,196 474.5,196 474.5,196 
		474.5,196 475.5,196 475.5,196 475.5,196 475.5,196 475.5,195 475.5,195 475.5,195 475.5,195 475.5,195 475.5,195 475.5,196 
		475.5,196 475.5,197 476.5,198 476.5,198 476.5,199 476.5,199 476.5,200 476.5,200 476.5,201 476.5,201 476.5,202 476.5,202 
		476.5,203 476.5,204 476.5,204 477.5,205 477.5,206 477.5,207 477.5,208 477.5,210 477.5,213 477.5,215 477.5,217 477.5,220 
		477.5,223 477.5,225 477.5,226 477.5,226 478.5,225 478.5,224 478.5,224 478.5,222 478.5,221 478.5,221 478.5,220 478.5,220 
		478.5,220 478.5,219 478.5,219 478.5,220 479.5,220 479.5,221 479.5,221 479.5,222 479.5,222 479.5,222 479.5,223 479.5,223 
		479.5,223 479.5,224 479.5,224 479.5,224 479.5,225 480.5,225 480.5,226 480.5,227 480.5,227 480.5,228 480.5,228 480.5,228 
		480.5,227 480.5,229 480.5,231 480.5,234 480.5,237 480.5,239 481.5,241 481.5,242 481.5,244 481.5,245 481.5,246 481.5,247 
		481.5,248 481.5,249 481.5,249 481.5,250 481.5,250 481.5,251 481.5,251 482.5,252 482.5,252 482.5,253 482.5,253 482.5,253 
		482.5,253 482.5,253 482.5,254 482.5,255 482.5,255 482.5,255 482.5,256 482.5,257 483.5,258 483.5,258 483.5,258 483.5,257 
		483.5,257 483.5,256 483.5,256 483.5,255 483.5,254 483.5,253 483.5,252 483.5,252 483.5,251 484.5,251 484.5,251 484.5,251 
		484.5,251 484.5,251 484.5,251 484.5,251 484.5,251 484.5,251 484.5,251 484.5,252 484.5,252 484.5,253 485.5,253 485.5,253 
		485.5,254 485.5,254 485.5,254 485.5,254 485.5,254 485.5,255 485.5,254 485.5,254 485.5,253 485.5,252 485.5,251 486.5,250 
		486.5,249 486.5,248 486.5,247 486.5,246 486.5,245 486.5,244 486.5,243 486.5,243 486.5,242 486.5,242 486.5,241 486.5,240 
		487.5,239 487.5,238 487.5,237 487.5,236 487.5,235 487.5,234 487.5,233 487.5,232 487.5,232 487.5,231 487.5,231 487.5,230 
		487.5,229 488.5,229 488.5,229 488.5,229 488.5,229 488.5,229 488.5,229 488.5,230 488.5,230 488.5,231 488.5,231 488.5,232 
		488.5,232 488.5,232 489.5,232 489.5,233 489.5,233 489.5,234 489.5,234 489.5,234 489.5,234 489.5,235 489.5,235 489.5,236 
		489.5,237 489.5,238 489.5,239 490.5,240 490.5,241 490.5,242 490.5,243 490.5,244 490.5,245 490.5,246 490.5,247 490.5,248 
		490.5,249 490.5,250 490.5,251 490.5,253 491.5,254 491.5,255 491.5,256 491.5,257 491.5,258 491.5,259 491.5,260 491.5,261 
		491.5,262 491.5,263 491.5,263 491.5,264 491.5,265 492.5,265 492.5,266 492.5,266 492.5,267 492.5,267 492.5,268 492.5,269 
		492.5,269 492.5,270 492.5,270 492.5,271 492.5,271 492.5,272 493.5,272 493.5,273 493.5,273 493.5,273 493.5,273 493.5,274 
		493.5,274 493.5,274 493.5,274 493.5,275 493.5,275 493.5,275 493.5,275 494.5,275 494.5,275 494.5,275 494.5,275 494.5,275 
		494.5,275 494.5,275 494.5,275 494.5,275 494.5,276 494.5,276 494.5,276 494.5,276 495.5,275 495.5,275 495.5,275 495.5,276 
		495.5,276 495.5,276 495.5,276 495.5,275 495.5,275 495.5,275 495.5,274 495.5,273 495.5,272 496.5,272 496.5,272 496.5,270 
		496.5,268 496.5,265 496.5,264 496.5,262 496.5,260 496.5,259 496.5,257 496.5,256 496.5,256 496.5,255 497.5,255 497.5,254 
		497.5,254 497.5,254 497.5,253 497.5,253 497.5,253 497.5,253 497.5,253 497.5,253 497.5,253 497.5,252 497.5,252 498.5,252 
		498.5,251 498.5,251 498.5,250 498.5,250 498.5,250 498.5,249 498.5,249 498.5,249 498.5,249 498.5,248 498.5,248 499.5,247 
		499.5,247 499.5,246 499.5,246 499.5,245 499.5,245 499.5,245 499.5,244 499.5,244 499.5,244 499.5,243 499.5,243 499.5,243 
		500.5,243 500.5,243 500.5,243 500.5,243 500.5,243 500.5,243 500.5,244 500.5,244 500.5,244 500.5,244 500.5,245 500.5,245 
		500.5,246 501.5,247 501.5,248 501.5,248 501.5,249 501.5,250 501.5,251 501.5,251 501.5,252 501.5,253 501.5,254 501.5,255 
		501.5,255 501.5,256 502.5,257 502.5,258 502.5,259 502.5,260 502.5,260 502.5,261 502.5,262 502.5,262 502.5,263 502.5,262 
		502.5,261 502.5,261 502.5,260 503.5,259 503.5,259 503.5,258 503.5,256 503.5,256 503.5,255 503.5,254 503.5,254 503.5,254 
		503.5,253 503.5,253 503.5,253 503.5,252 504.5,251 504.5,251 504.5,250 504.5,249 504.5,248 504.5,247 504.5,246 504.5,245 
		504.5,244 504.5,243 504.5,243 504.5,242 504.5,241 505.5,241 505.5,240 505.5,240 505.5,240 505.5,240 505.5,240 505.5,239 
		505.5,239 505.5,239 505.5,239 505.5,238 505.5,238 505.5,237 506.5,237 506.5,236 506.5,235 506.5,235 506.5,234 506.5,234 
		506.5,233 506.5,233 506.5,232 506.5,232 506.5,232 506.5,232 506.5,231 507.5,231 507.5,231 507.5,231 507.5,231 507.5,231 
		507.5,231 507.5,231 507.5,231 507.5,231 507.5,231 507.5,232 507.5,232 507.5,232 508.5,233 508.5,233 508.5,233 508.5,233 
		508.5,233 508.5,233 508.5,233 508.5,233 508.5,233 508.5,233 508.5,233 508.5,233 508.5,233 509.5,233 509.5,233 509.5,234 
		509.5,234 509.5,235 509.5,235 509.5,236 509.5,236 509.5,237 509.5,237 509.5,238 509.5,238 509.5,238 510.5,238 510.5,239 
		510.5,239 510.5,240 510.5,240 510.5,240 510.5,240 510.5,241 510.5,242 510.5,243 510.5,244 510.5,245 510.5,246 511.5,247 
		511.5,248 511.5,249 511.5,250 511.5,251 511.5,252 511.5,253 511.5,254 511.5,254 511.5,254 511.5,254 511.5,254 511.5,254 
		512.5,254 512.5,255 512.5,255 512.5,255 512.5,255 512.5,255 512.5,255 512.5,256 512.5,256 512.5,256 512.5,257 512.5,258 
		512.5,259 513.5,259 513.5,260 513.5,262 513.5,263 513.5,264 513.5,266 513.5,267 513.5,268 513.5,270 513.5,271 513.5,271 
		513.5,271 513.5,272 514.5,272 514.5,272 514.5,272 514.5,272 514.5,272 514.5,271 514.5,270 514.5,269 514.5,268 514.5,267 
		514.5,266 514.5,266 514.5,265 515.5,264 515.5,263 515.5,263 515.5,262 515.5,261 515.5,261 515.5,260 515.5,259 515.5,258 
		515.5,257 515.5,256 515.5,255 515.5,254 516.5,252 516.5,251 516.5,250 516.5,250 516.5,249 516.5,248 516.5,248 516.5,247 
		516.5,247 516.5,246 516.5,246 516.5,245 516.5,245 517.5,244 517.5,244 517.5,244 517.5,244 517.5,244 517.5,244 517.5,244 
		517.5,244 517.5,244 517.5,244 517.5,244 517.5,244 517.5,244 518.5,244 518.5,244 518.5,244 518.5,244 518.5,244 518.5,244 
		518.5,244 518.5,244 518.5,244 518.5,244 518.5,244 518.5,244 519.5,244 519.5,244 519.5,245 519.5,245 519.5,245 519.5,245 
		519.5,246 519.5,246 519.5,246 519.5,247 519.5,247 519.5,248 519.5,248 520.5,249 520.5,249 520.5,250 520.5,250 520.5,250 
		520.5,250 520.5,251 520.5,251 520.5,251 520.5,251 520.5,251 520.5,251 520.5,251 521.5,251 521.5,251 521.5,252 521.5,252 
		521.5,252 521.5,252 521.5,252 521.5,252 521.5,253 521.5,253 521.5,253 521.5,253 521.5,254 522.5,254 522.5,254 522.5,254 
		522.5,254 522.5,255 522.5,255 522.5,255 522.5,255 522.5,255 522.5,255 522.5,255 522.5,254 522.5,254 523.5,254 523.5,254 
		523.5,254 523.5,253 523.5,253 523.5,253 523.5,253 523.5,253 523.5,253 523.5,254 523.5,254 523.5,254 523.5,254 524.5,254 
		524.5,255 524.5,255 524.5,255 524.5,255 524.5,256 524.5,256 524.5,257 524.5,257 524.5,257 524.5,258 524.5,258 524.5,258 
		525.5,259 525.5,259 525.5,260 525.5,261 525.5,261 525.5,262 525.5,262 525.5,263 525.5,263 525.5,264 525.5,265 525.5,265 
		525.5,266 526.5,267 526.5,267 526.5,268 526.5,268 526.5,269 526.5,269 526.5,269 526.5,269 526.5,269 526.5,270 526.5,269 
		526.5,269 526.5,269 527.5,269 527.5,269 527.5,269 527.5,269 527.5,270 527.5,270 527.5,270 527.5,271 527.5,271 527.5,271 
		527.5,272 527.5,272 527.5,273 528.5,273 528.5,274 528.5,274 528.5,274 528.5,274 528.5,275 528.5,275 528.5,275 528.5,276 
		528.5,276 528.5,277 528.5,277 528.5,278 529.5,278 529.5,279 529.5,279 529.5,279 529.5,280 529.5,280 529.5,280 529.5,280 
		529.5,281 529.5,281 529.5,281 529.5,281 529.5,280 530.5,280 530.5,280 530.5,280 530.5,280 530.5,280 530.5,280 530.5,280 
		530.5,280 530.5,280 530.5,279 530.5,279 530.5,279 530.5,279 531.5,279 531.5,279 531.5,279 531.5,279 531.5,280 531.5,280 
		531.5,281 531.5,282 531.5,282 531.5,282 531.5,283 531.5,283 531.5,283 532.5,284 532.5,285 532.5,286 532.5,286 532.5,287 
		532.5,288 532.5,288 532.5,289 532.5,289 532.5,290 532.5,290 532.5,291 532.5,291 533.5,292 533.5,292 533.5,292 533.5,292 
		533.5,293 533.5,293 533.5,293 533.5,292 533.5,292 533.5,292 533.5,292 533.5,291 533.5,290 534.5,290 534.5,289 534.5,288 
		534.5,287 534.5,286 534.5,285 534.5,284 534.5,284 534.5,283 534.5,282 534.5,282 534.5,282 534.5,282 535.5,281 535.5,282 
		535.5,282 535.5,282 535.5,283 535.5,284 535.5,284 535.5,285 535.5,286 535.5,286 535.5,287 535.5,287 535.5,288 536.5,288 
		536.5,289 536.5,289 536.5,289 536.5,289 536.5,289 536.5,289 536.5,289 536.5,288 536.5,288 536.5,287 536.5,287 536.5,286 
		537.5,286 537.5,285 537.5,285 537.5,285 537.5,284 537.5,284 537.5,284 537.5,283 537.5,283 537.5,283 537.5,283 537.5,283 
		537.5,282 538.5,282 538.5,282 538.5,282 538.5,282 538.5,281 538.5,281 538.5,281 538.5,281 538.5,280 538.5,280 538.5,280 
		538.5,280 539.5,280 539.5,279 539.5,279 539.5,279 539.5,279 539.5,279 539.5,279 539.5,279 539.5,279 539.5,279 539.5,279 
		539.5,279 539.5,279 540.5,279 540.5,279 540.5,279 540.5,279 540.5,279 540.5,279 540.5,280 540.5,280 540.5,280 540.5,280 
		540.5,280 540.5,280 540.5,280 541.5,280 541.5,280 541.5,280 541.5,280 541.5,280 541.5,280 541.5,280 541.5,280 541.5,280 
		541.5,280 541.5,281 541.5,281 541.5,281 542.5,281 542.5,281 542.5,281 542.5,281 542.5,282 542.5,282 542.5,282 542.5,282 
		542.5,282 542.5,282 542.5,282 542.5,282 542.5,282 543.5,282 543.5,282 543.5,282 543.5,283 543.5,283 543.5,283 543.5,283 
		543.5,283 543.5,284 543.5,284 543.5,284 543.5,284 543.5,284 544.5,284 544.5,285 544.5,285 544.5,285 544.5,285 544.5,286 
		544.5,286 544.5,286 544.5,287 544.5,287 544.5,287 544.5,288 544.5,288 545.5,288 545.5,288 545.5,288 545.5,287 545.5,287 
		545.5,287 545.5,287 545.5,287 545.5,288 545.5,288 545.5,288 545.5,288 545.5,288 546.5,289 546.5,289 546.5,289 546.5,289 
		546.5,289 546.5,290 546.5,290 546.5,290 546.5,291 546.5,291 546.5,291 546.5,291 546.5,292 547.5,292 547.5,292 547.5,292 
		547.5,293 547.5,293 547.5,293 547.5,293 547.5,293 547.5,293 547.5,293 547.5,294 547.5,294 547.5,294 548.5,294 548.5,295 
		548.5,295 548.5,295 548.5,295 548.5,296 548.5,296 548.5,296 548.5,296 548.5,296 548.5,297 548.5,297 548.5,297 549.5,297 
		549.5,297 549.5,297 549.5,297 549.5,297 549.5,297 549.5,297 549.5,297 549.5,298 549.5,298 549.5,298 549.5,299 549.5,299 
		550.5,300 550.5,301 550.5,301 550.5,301 550.5,302 550.5,302 550.5,302 550.5,302 550.5,303 550.5,303 550.5,303 550.5,303 
		550.5,303 551.5,303 551.5,303 551.5,304 551.5,304 551.5,304 551.5,304 551.5,304 551.5,304 551.5,304 551.5,304 551.5,304 
		551.5,304 551.5,304 552.5,304 552.5,304 552.5,304 552.5,305 552.5,305 552.5,305 552.5,306 552.5,306 552.5,306 552.5,307 
		552.5,306 552.5,306 552.5,305 553.5,305 553.5,305 553.5,305 553.5,305 553.5,305 553.5,305 553.5,305 553.5,305 553.5,305 
		553.5,306 553.5,306 553.5,306 553.5,306 554.5,306 554.5,306 554.5,306 554.5,306 554.5,306 554.5,306 554.5,306 554.5,306 
		554.5,306 554.5,307 554.5,307 554.5,307 554.5,307 555.5,307 555.5,307 555.5,307 555.5,307 555.5,307 555.5,307 555.5,307 
		555.5,307 555.5,307 555.5,307 555.5,307 555.5,307 555.5,307 556.5,307 556.5,307 556.5,307 556.5,307 556.5,307 556.5,307 
		556.5,307 556.5,307 556.5,307 556.5,307 556.5,307 556.5,307 556.5,307 557.5,307 557.5,307 557.5,307 557.5,307 557.5,307 
		557.5,307 557.5,307 557.5,307 557.5,307 557.5,307 557.5,307 557.5,307 557.5,307 558.5,307 558.5,307 558.5,307 558.5,307 
		558.5,307 558.5,307 558.5,307 558.5,307 558.5,307 558.5,307 558.5,307 558.5,307 559.5,307 559.5,307 559.5,307 559.5,307 
		559.5,308 559.5,308 559.5,308 559.5,308 559.5,308 559.5,308 559.5,308 559.5,308 559.5,308 560.5,307 560.5,307 560.5,307 
		560.5,307 560.5,307 560.5,307 560.5,307 560.5,307 560.5,307 560.5,307 560.5,307 560.5,307 560.5,307 561.5,307 561.5,307 
		561.5,307 561.5,307 561.5,307 561.5,307 561.5,307 561.5,307 561.5,307 561.5,307 561.5,307 561.5,307 561.5,307 562.5,307 
		562.5,307 562.5,307 562.5,307 562.5,307 562.5,307 562.5,307 562.5,307 562.5,307 562.5,307 562.5,307 562.5,307 562.5,307 
		563.5,307 563.5,307 563.5,307 563.5,307 563.5,307 563.5,307 563.5,307 563.5,307 563.5,307 563.5,306 563.5,306 563.5,306 
		563.5,306 564.5,306 564.5,306 564.5,306 564.5,306 564.5,306 564.5,306 564.5,306 564.5,306 564.5,306 564.5,306 564.5,305 
		564.5,305 564.5,305 565.5,305 565.5,305 565.5,305 565.5,305 565.5,305 565.5,305 565.5,305 565.5,305 565.5,305 565.5,305 
		565.5,305 565.5,305 565.5,305 566.5,305 566.5,305 566.5,305 566.5,305 566.5,305 566.5,304 566.5,305 566.5,304 566.5,304 
		566.5,304 566.5,304 566.5,304 566.5,304 567.5,304 567.5,304 567.5,304 567.5,304 567.5,304 567.5,304 567.5,304 567.5,304 
		567.5,304 567.5,304 567.5,304 567.5,304 567.5,303 568.5,303 568.5,303 568.5,303 568.5,303 568.5,303 568.5,303 568.5,303 
		568.5,303 568.5,303 568.5,303 568.5,302 568.5,302 568.5,302 569.5,302 569.5,302 569.5,302 569.5,301 569.5,301 569.5,301 
		569.5,301 569.5,301 569.5,301 569.5,301 569.5,301 569.5,300 569.5,300 570.5,300 570.5,300 570.5,300 570.5,300 570.5,300 
		570.5,299 570.5,299 570.5,299 570.5,299 570.5,298 570.5,298 570.5,298 570.5,298 571.5,298 571.5,298 571.5,298 571.5,297 
		571.5,297 571.5,297 571.5,297 571.5,297 571.5,297 571.5,297 571.5,296 571.5,296 571.5,296 572.5,296 572.5,296 572.5,296 
		572.5,296 572.5,296 572.5,295 572.5,295 572.5,295 572.5,295 572.5,295 572.5,295 572.5,295 572.5,294 573.5,294 573.5,294 
		573.5,294 573.5,294 573.5,294 573.5,294 573.5,294 573.5,293 573.5,293 573.5,293 573.5,293 573.5,293 573.5,293 574.5,293 
		574.5,293 574.5,292 574.5,292 574.5,292 574.5,292 574.5,292 574.5,292 574.5,292 574.5,292 574.5,291 574.5,291 574.5,291 
		575.5,291 575.5,291 575.5,291 575.5,291 575.5,291 575.5,291 575.5,290 575.5,290 575.5,290 575.5,290 575.5,290 575.5,290 
		575.5,290 576.5,290 576.5,290 576.5,290 576.5,290 576.5,290 576.5,290 576.5,290 576.5,290 576.5,290 576.5,290 576.5,290 
		576.5,290 576.5,290 577.5,290 577.5,290 577.5,290 577.5,290 577.5,290 577.5,290 577.5,290 577.5,290 577.5,289 577.5,289 
		577.5,289 577.5,289 577.5,289 578.5,289 578.5,289 578.5,290 578.5,290 578.5,290 578.5,290 578.5,290 578.5,290 578.5,290 
		578.5,290 578.5,290 578.5,290 579.5,290 579.5,290 579.5,290 579.5,290 579.5,290 579.5,290 579.5,290 579.5,290 579.5,290 
		579.5,290 579.5,290 579.5,290 579.5,290 580.5,290 580.5,290 580.5,290 580.5,290 580.5,290 580.5,290 580.5,290 580.5,290 
		580.5,290 580.5,290 580.5,289 580.5,289 580.5,289 581.5,289 581.5,289 581.5,289 581.5,289 581.5,289 581.5,289 581.5,289 
		581.5,289 581.5,289 581.5,289 581.5,289 581.5,289 581.5,290 582.5,290 582.5,290 582.5,290 582.5,290 582.5,290 582.5,290 
		582.5,290 582.5,290 582.5,290 582.5,291 582.5,291 582.5,291 582.5,291 583.5,291 583.5,291 583.5,291 583.5,292 583.5,292 
		583.5,292 583.5,292 583.5,292 583.5,292 583.5,292 583.5,292 583.5,292 583.5,292 584.5,292 584.5,292 584.5,292 584.5,292 
		584.5,292 584.5,292 584.5,292 584.5,292 584.5,292 584.5,292 584.5,292 584.5,292 584.5,292 585.5,292 585.5,292 585.5,293 
		585.5,293 585.5,293 585.5,293 585.5,293 585.5,293 585.5,293 585.5,294 585.5,294 585.5,294 585.5,294 586.5,294 586.5,294 
		586.5,295 586.5,295 586.5,295 586.5,295 586.5,296 586.5,296 586.5,296 586.5,296 586.5,296 586.5,297 586.5,297 587.5,297 
		587.5,297 587.5,298 587.5,298 587.5,298 587.5,298 587.5,298 587.5,299 587.5,299 587.5,299 587.5,299 587.5,300 587.5,300 
		588.5,300 588.5,300 588.5,300 588.5,301 588.5,301 588.5,301 588.5,301 588.5,301 588.5,302 588.5,302 588.5,302 588.5,302 
		588.5,302 589.5,303 589.5,303 589.5,303 589.5,303 589.5,303 589.5,303 589.5,303 589.5,304 589.5,304 589.5,304 589.5,304 
		589.5,304 589.5,304 590.5,305 590.5,305 590.5,305 590.5,305 590.5,305 590.5,305 590.5,306 590.5,306 590.5,306 590.5,306 
		590.5,306 590.5,306 590.5,306 591.5,306 591.5,307 591.5,307 591.5,307 591.5,307 591.5,307 591.5,307 591.5,308 591.5,308 
		591.5,308 591.5,308 591.5,308 591.5,308 592.5,308 592.5,309 592.5,309 592.5,309 592.5,309 592.5,309 592.5,309 592.5,309 
		592.5,310 592.5,310 592.5,310 592.5,310 592.5,310 593.5,310 593.5,310 593.5,310 593.5,310 593.5,310 593.5,310 593.5,310 
		593.5,310 593.5,310 593.5,310 593.5,310 593.5,311 593.5,311 594.5,311 594.5,311 594.5,311 594.5,312 594.5,312 594.5,312 
		594.5,313 594.5,313 594.5,313 594.5,313 594.5,313 594.5,314 594.5,314 595.5,314 595.5,314 595.5,314 595.5,314 595.5,314 
		595.5,315 595.5,315 595.5,315 595.5,315 595.5,315 595.5,315 595.5,315 595.5,315 596.5,314 596.5,314 596.5,314 596.5,314 
		596.5,314 596.5,313 596.5,313 596.5,313 596.5,312 596.5,312 596.5,312 596.5,311 596.5,311 597.5,311 597.5,311 597.5,311 
		597.5,311 597.5,312 597.5,312 597.5,312 597.5,312 597.5,312 597.5,312 597.5,312 597.5,312 597.5,312 598.5,312 598.5,313 
		598.5,313 598.5,313 598.5,313 598.5,313 598.5,313 598.5,313 598.5,313 598.5,313 598.5,313 598.5,313 599.5,313 599.5,313 
		599.5,314 599.5,314 599.5,314 599.5,314 599.5,314 599.5,314 599.5,314 599.5,315 599.5,315 599.5,315 599.5,315 600.5,315 
		600.5,315 600.5,315 600.5,316 600.5,316 600.5,316 600.5,316 600.5,317 600.5,317 600.5,317 600.5,317 600.5,317 600.5,317 
		601.5,317 601.5,317 601.5,317 601.5,316 601.5,316 601.5,316 601.5,316 601.5,316 601.5,316 601.5,315 601.5,315 601.5,315 
		601.5,315 602.5,316 602.5,316 602.5,316 602.5,316 602.5,316 602.5,317 602.5,317 602.5,317 602.5,317 602.5,317 602.5,318 
		602.5,318 602.5,318 603.5,318 603.5,318 603.5,319 603.5,319 603.5,319 603.5,319 603.5,319 603.5,319 603.5,319 603.5,320 
		603.5,320 603.5,320 603.5,320 604.5,321 604.5,321 604.5,321 604.5,321 604.5,322 604.5,322 604.5,322 604.5,322 604.5,322 
		604.5,322 604.5,322 604.5,321 604.5,321 605.5,321 605.5,321 605.5,320 605.5,320 605.5,320 605.5,319 605.5,319 605.5,319 
		605.5,319 605.5,319 605.5,318 605.5,318 605.5,318 606.5,318 606.5,318 606.5,318 606.5,317 606.5,317 606.5,317 606.5,317 
		606.5,317 606.5,317 606.5,317 606.5,317 606.5,317 606.5,317 607.5,317 607.5,317 607.5,317 607.5,317 607.5,317 607.5,317 
		607.5,317 607.5,317 607.5,318 607.5,318 607.5,318 607.5,318 607.5,319 608.5,319 608.5,319 608.5,319 608.5,319 608.5,320 
		608.5,320 608.5,320 608.5,320 608.5,320 608.5,320 608.5,320 608.5,320 608.5,320 609.5,320 609.5,320 609.5,320 609.5,319 
		609.5,320 609.5,320 609.5,320 609.5,320 609.5,320 609.5,320 609.5,320 609.5,320 609.5,320 610.5,320 610.5,320 610.5,320 
		610.5,320 610.5,320 610.5,320 610.5,320 610.5,320 610.5,320 610.5,320 610.5,320 610.5,320 610.5,320 611.5,320 611.5,320 
		611.5,320 611.5,320 611.5,320 611.5,320 611.5,320 611.5,320 611.5,320 611.5,320 611.5,320 611.5,320 611.5,320 612.5,320 
		612.5,320 612.5,320 612.5,320 612.5,320 612.5,321 612.5,321 612.5,321 612.5,321 612.5,321 612.5,321 612.5,321 612.5,322 
		613.5,322 613.5,322 613.5,322 613.5,322 613.5,322 613.5,323 613.5,323 613.5,323 613.5,323 613.5,323 613.5,323 613.5,324 
		613.5,324 614.5,324 614.5,324 614.5,325 614.5,325 614.5,325 614.5,325 614.5,325 614.5,325 614.5,325 614.5,326 614.5,326 
		614.5,326 614.5,327 615.5,327 615.5,328 615.5,328 615.5,329 615.5,330 615.5,331 615.5,332 615.5,334 615.5,335 615.5,335 
		615.5,335 615.5,335 615.5,335 616.5,334 616.5,334 616.5,334 616.5,334 616.5,334 616.5,334 616.5,334 616.5,334 616.5,334 
		616.5,334 616.5,334 616.5,334 616.5,334 617.5,334 617.5,334 617.5,334 617.5,334 617.5,334 617.5,334 617.5,334 617.5,333 
		617.5,333 617.5,333 617.5,333 617.5,333 617.5,332 618.5,332 618.5,332 618.5,332 618.5,332 618.5,333 618.5,333 618.5,333 
		618.5,333 618.5,333 618.5,334 618.5,334 618.5,334 619.5,334 619.5,334 619.5,334 619.5,334 619.5,334 619.5,334 619.5,334 
		619.5,334 619.5,333 619.5,333 619.5,333 619.5,333 619.5,333 620.5,333 620.5,332 620.5,332 620.5,332 620.5,332 620.5,332 
		620.5,332 620.5,332 620.5,332 620.5,333 620.5,333 620.5,333 620.5,333 621.5,333 621.5,333 621.5,333 621.5,333 621.5,333 
		621.5,333 621.5,333 621.5,333 621.5,333 621.5,333 621.5,333 621.5,333 621.5,334 622.5,334 622.5,334 622.5,334 622.5,334 
		622.5,334 622.5,334 622.5,334 622.5,334 622.5,334 622.5,334 622.5,334 622.5,334 622.5,334 623.5,334 623.5,334 623.5,334 
		623.5,334 623.5,334 623.5,334 623.5,334 623.5,334 623.5,334 623.5,334 623.5,334 623.5,334 623.5,334 624.5,334 624.5,334 
		624.5,334 624.5,334 624.5,334 624.5,334 624.5,333 624.5,333 624.5,333 624.5,333 624.5,333 624.5,333 624.5,333 625.5,333 
		625.5,333 625.5,333 625.5,333 625.5,333 625.5,333 625.5,333 625.5,333 625.5,333 625.5,333 625.5,333 625.5,333 625.5,333 
		626.5,333 626.5,333 626.5,333 626.5,333 626.5,333 626.5,332 626.5,332 626.5,332 626.5,332 626.5,332 626.5,332 626.5,332 
		626.5,332 627.5,332 627.5,332 627.5,332 627.5,332 627.5,332 627.5,332 627.5,332 627.5,332 627.5,332 627.5,332 627.5,332 
		627.5,332 627.5,332 628.5,333 628.5,333 628.5,333 628.5,333 628.5,333 628.5,333 628.5,333 628.5,333 628.5,333 628.5,333 
		628.5,333 628.5,334 628.5,334 629.5,334 629.5,334 629.5,334 629.5,334 629.5,334 629.5,334 629.5,334 629.5,334 629.5,334 
		629.5,334 629.5,334 629.5,334 629.5,333 630.5,333 630.5,333 630.5,333 630.5,332 630.5,332 630.5,332 630.5,332 630.5,331 
		630.5,331 630.5,331 630.5,330 630.5,330 630.5,329 631.5,329 631.5,329 631.5,328 631.5,328 631.5,328 631.5,327 631.5,327 
		631.5,327 631.5,327 631.5,327 631.5,327 631.5,327 631.5,326 632.5,326 632.5,326 632.5,326 632.5,325 632.5,325 632.5,325 
		632.5,325 632.5,325 632.5,325 632.5,325 632.5,325 632.5,324 632.5,324 633.5,324 633.5,324 633.5,324 633.5,324 633.5,324 
		633.5,324 633.5,324 633.5,324 633.5,323 633.5,323 633.5,323 633.5,323 633.5,323 634.5,323 634.5,323 634.5,322 634.5,322 
		634.5,322 634.5,322 634.5,322 634.5,322 634.5,322 634.5,322 634.5,322 634.5,322 634.5,322 635.5,322 635.5,322 635.5,321 
		635.5,321 635.5,321 635.5,321 635.5,321 635.5,320 635.5,320 635.5,320 635.5,320 635.5,320 635.5,320 636.5,320 636.5,320 
		636.5,320 636.5,320 636.5,320 636.5,320 636.5,320 636.5,320 636.5,319 636.5,319 636.5,319 636.5,319 636.5,319 637.5,319 
		637.5,319 637.5,319 637.5,318 637.5,318 637.5,318 637.5,318 637.5,318 637.5,318 637.5,318 637.5,318 637.5,318 637.5,318 
		638.5,318 638.5,318 638.5,318 638.5,318 638.5,318 638.5,318 638.5,318 638.5,318 638.5,318 638.5,318 638.5,318 638.5,318 
		639.5,318 639.5,317 639.5,317 639.5,317 639.5,317 639.5,317 639.5,317 639.5,317 639.5,317 639.5,317 639.5,317 639.5,317 
		639.5,318 640.5,318 640.5,317 640.5,317 640.5,317 640.5,317 640.5,317 640.5,317 640.5,317 640.5,317 640.5,318 640.5,318 
		640.5,317 640.5,317 641.5,317 641.5,317 641.5,317 641.5,317 641.5,317 641.5,317 641.5,317 641.5,317 641.5,317 641.5,317 
		641.5,317 641.5,317 641.5,318 642.5,317 642.5,317 642.5,317 642.5,317 642.5,317 642.5,318 642.5,318 642.5,318 642.5,318 
		642.5,318 642.5,318 642.5,317 642.5,318 643.5,318 643.5,318 643.5,318 643.5,318 643.5,318 643.5,318 643.5,318 643.5,318 
		643.5,318 643.5,318 643.5,318 643.5,318 643.5,318 644.5,319 644.5,319 644.5,319 644.5,319 644.5,319 644.5,318 644.5,318 
		644.5,318 644.5,318 644.5,318 644.5,318 644.5,318 644.5,318 645.5,318 645.5,319 645.5,319 645.5,319 645.5,319 645.5,319 
		645.5,319 645.5,319 645.5,319 645.5,319 645.5,319 645.5,319 645.5,319 646.5,319 646.5,319 646.5,319 646.5,319 646.5,319 
		646.5,319 646.5,319 646.5,319 646.5,319 646.5,319 646.5,319 646.5,319 646.5,319 647.5,319 647.5,319 647.5,319 647.5,319 
		647.5,319 647.5,319 647.5,319 647.5,318 647.5,318 647.5,318 647.5,318 647.5,318 647.5,318 648.5,318 648.5,318 648.5,318 
		648.5,318 648.5,318 648.5,318 648.5,318 648.5,318 648.5,318 648.5,317 648.5,317 648.5,317 648.5,317 649.5,317 649.5,317 
		649.5,318 649.5,318 649.5,318 649.5,318 649.5,318 649.5,318 649.5,318 649.5,318 649.5,318 649.5,318 649.5,318 650.5,318 
		650.5,318 650.5,318 650.5,318 650.5,318 650.5,318 650.5,319 650.5,319 650.5,319 650.5,319 650.5,319 650.5,319 650.5,319 
		651.5,319 651.5,319 651.5,319 651.5,319 651.5,319 651.5,319 651.5,319 651.5,319 651.5,319 651.5,319 651.5,319 651.5,319 
		651.5,319 652.5,319 652.5,319 652.5,319 652.5,319 652.5,319 652.5,319 652.5,319 652.5,319 652.5,319 652.5,319 652.5,319 
		652.5,319 652.5,319 653.5,319 653.5,319 653.5,319 653.5,319 653.5,319 653.5,319 653.5,319 653.5,319 653.5,319 653.5,319 
		653.5,319 653.5,319 653.5,319 654.5,319 654.5,319 654.5,319 654.5,319 654.5,319 654.5,319 654.5,319 654.5,319 654.5,319 
		654.5,319 654.5,319 654.5,319 654.5,319 655.5,319 655.5,319 655.5,319 655.5,319 655.5,319 655.5,319 655.5,319 655.5,319 
		655.5,319 655.5,319 655.5,319 655.5,319 655.5,319 656.5,319 656.5,319 656.5,319 656.5,319 656.5,319 656.5,319 656.5,319 
		656.5,319 656.5,319 656.5,319 656.5,319 656.5,319 656.5,319 657.5,319 657.5,319 657.5,319 657.5,319 657.5,319 657.5,320 
		657.5,320 657.5,320 657.5,320 657.5,320 657.5,320 657.5,320 657.5,320 658.5,320 658.5,320 658.5,320 658.5,320 658.5,320 
		658.5,320 658.5,320 658.5,320 658.5,320 658.5,320 658.5,320 658.5,320 659.5,320 659.5,320 659.5,320 659.5,320 659.5,320 
		659.5,320 659.5,320 659.5,320 659.5,320 659.5,320 659.5,320 659.5,320 659.5,320 660.5,321 660.5,321 660.5,321 660.5,321 
		660.5,321 660.5,321 660.5,321 660.5,321 660.5,321 660.5,321 660.5,321 660.5,321 660.5,321 661.5,321 661.5,321 661.5,321 
		661.5,322 661.5,322 661.5,322 661.5,322 661.5,322 661.5,322 661.5,322 661.5,322 661.5,322 661.5,322 662.5,322 662.5,322 
		662.5,322 662.5,322 662.5,322 662.5,322 662.5,322 662.5,322 662.5,322 662.5,323 662.5,323 662.5,323 662.5,323 663.5,323 
		663.5,323 663.5,323 663.5,323 663.5,323 663.5,323 663.5,323 663.5,323 663.5,323 663.5,323 663.5,323 663.5,323 663.5,323 
		664.5,323 664.5,323 664.5,324 664.5,324 664.5,324 664.5,324 664.5,324 664.5,324 664.5,324 664.5,324 664.5,324 664.5,324 
		664.5,324 665.5,324 665.5,324 665.5,324 665.5,323 665.5,323 665.5,323 665.5,323 665.5,323 665.5,323 665.5,323 665.5,323 
		665.5,323 665.5,323 666.5,323 666.5,323 666.5,323 666.5,322 666.5,322 666.5,322 666.5,322 666.5,322 666.5,322 666.5,322 
		666.5,322 666.5,322 666.5,322 667.5,322 667.5,322 667.5,322 667.5,322 667.5,321 667.5,321 667.5,321 667.5,321 667.5,321 
		667.5,321 667.5,321 667.5,321 667.5,321 668.5,321 668.5,321 668.5,321 668.5,321 668.5,321 668.5,321 668.5,321 668.5,320 
		668.5,320 668.5,320 668.5,320 668.5,320 668.5,320 669.5,320 669.5,320 669.5,320 669.5,320 669.5,320 669.5,320 669.5,320 
		669.5,320 669.5,320 669.5,320 669.5,320 669.5,320 669.5,320 670.5,320 670.5,320 670.5,320 670.5,320 670.5,320 670.5,320 
		670.5,320 670.5,320 670.5,320 670.5,320 670.5,320 670.5,320 670.5,320 671.5,320 671.5,319 671.5,319 671.5,319 671.5,320 
		671.5,320 671.5,320 671.5,320 671.5,320 671.5,320 671.5,320 671.5,320 671.5,320 672.5,320 672.5,320 672.5,320 672.5,320 
		672.5,320 672.5,320 672.5,320 672.5,320 672.5,320 672.5,320 672.5,320 672.5,320 672.5,320 673.5,320 673.5,320 673.5,320 
		673.5,320 673.5,320 673.5,320 673.5,320 673.5,320 673.5,320 673.5,320 673.5,320 673.5,320 673.5,320 674.5,320 674.5,321 
		674.5,321 674.5,321 674.5,321 674.5,321 674.5,321 674.5,321 674.5,321 674.5,321 674.5,321 674.5,321 674.5,321 675.5,321 
		675.5,322 675.5,322 675.5,322 675.5,321 675.5,321 675.5,321 675.5,321 675.5,321 675.5,321 675.5,321 675.5,321 675.5,321 
		676.5,321 676.5,321 676.5,321 676.5,321 676.5,321 676.5,321 676.5,321 676.5,321 676.5,321 676.5,321 676.5,321 676.5,322 
		676.5,321 677.5,321 677.5,321 677.5,321 677.5,321 677.5,321 677.5,321 677.5,321 677.5,321 677.5,321 677.5,321 677.5,321 
		677.5,321 677.5,321 678.5,321 678.5,320 678.5,320 678.5,320 678.5,320 678.5,320 678.5,320 678.5,320 678.5,320 678.5,319 
		678.5,319 678.5,319 679.5,319 679.5,319 679.5,319 679.5,319 679.5,319 679.5,319 679.5,319 679.5,319 679.5,319 679.5,318 
		679.5,318 679.5,318 679.5,318 680.5,318 680.5,318 680.5,318 680.5,318 680.5,318 680.5,318 680.5,317 680.5,317 680.5,317 
		680.5,317 680.5,317 680.5,317 680.5,317 681.5,317 681.5,316 681.5,316 681.5,316 681.5,316 681.5,316 681.5,316 681.5,316 
		681.5,315 681.5,315 681.5,315 681.5,315 681.5,315 682.5,314 682.5,314 682.5,314 682.5,313 682.5,313 682.5,313 682.5,313 
		682.5,312 682.5,312 682.5,312 682.5,312 682.5,311 682.5,311 683.5,310 683.5,310 683.5,309 683.5,309 683.5,309 683.5,308 
		683.5,308 683.5,308 683.5,307 683.5,307 683.5,306 683.5,306 683.5,306 684.5,305 684.5,305 684.5,305 684.5,304 684.5,304 
		684.5,304 684.5,303 684.5,303 684.5,303 684.5,303 684.5,302 684.5,302 684.5,302 685.5,301 685.5,301 685.5,301 685.5,301 
		685.5,301 685.5,300 685.5,300 685.5,300 685.5,300 685.5,300 685.5,299 685.5,299 685.5,299 686.5,299 686.5,299 686.5,299 
		686.5,299 686.5,299 686.5,298 686.5,298 686.5,298 686.5,298 686.5,298 686.5,299 686.5,299 686.5,299 687.5,300 687.5,300 
		687.5,300 687.5,300 687.5,300 687.5,300 687.5,300 687.5,300 687.5,300 687.5,300 687.5,300 687.5,300 687.5,300 688.5,300 
		688.5,300 688.5,300 688.5,299 688.5,299 688.5,299 688.5,299 688.5,298 688.5,298 688.5,298 688.5,298 688.5,299 688.5,299 
		689.5,299 689.5,299 689.5,299 689.5,299 689.5,299 689.5,299 689.5,299 689.5,298 689.5,298 689.5,298 689.5,298 689.5,298 
		689.5,298 690.5,298 690.5,298 690.5,298 690.5,298 690.5,298 690.5,298 690.5,298 690.5,298 690.5,298 690.5,298 690.5,298 
		690.5,298 690.5,298 691.5,298 691.5,298 691.5,298 691.5,298 691.5,298 691.5,298 691.5,298 691.5,298 691.5,298 691.5,298 
		691.5,298 691.5,298 691.5,297 692.5,297 692.5,297 692.5,297 692.5,297 692.5,297 692.5,297 692.5,297 692.5,297 692.5,297 
		692.5,297 692.5,297 692.5,297 692.5,297 693.5,297 693.5,297 693.5,297 693.5,297 693.5,297 693.5,298 693.5,298 693.5,298 
		693.5,299 693.5,299 693.5,299 693.5,299 693.5,299 694.5,299 694.5,299 694.5,299 694.5,299 694.5,299 694.5,299 694.5,299 
		694.5,299 694.5,299 694.5,299 694.5,299 694.5,298 694.5,298 695.5,298 695.5,298 695.5,298 695.5,298 695.5,298 695.5,298 
		695.5,298 695.5,298 695.5,298 695.5,298 695.5,298 695.5,298 695.5,298 696.5,299 696.5,299 696.5,299 696.5,299 696.5,299 
		696.5,299 696.5,299 696.5,299 696.5,299 696.5,299 696.5,299 696.5,299 696.5,299 697.5,299 697.5,299 697.5,300 697.5,300 
		697.5,300 697.5,300 697.5,300 697.5,300 697.5,300 697.5,300 697.5,300 697.5,300 697.5,301 698.5,301 698.5,301 698.5,301 
		698.5,301 698.5,301 698.5,301 698.5,301 698.5,301 698.5,301 698.5,301 698.5,301 698.5,301 699.5,301 699.5,301 699.5,301 
		699.5,301 699.5,302 699.5,302 699.5,302 699.5,302 699.5,302 699.5,302 699.5,302 699.5,302 699.5,302 700.5,303 700.5,303 
		700.5,303 700.5,303 700.5,303 700.5,303 700.5,303 700.5,303 700.5,303 700.5,303 700.5,303 700.5,303 700.5,303 701.5,303 
		701.5,303 701.5,303 701.5,303 701.5,303 701.5,303 701.5,303 701.5,303 701.5,303 701.5,303 701.5,303 701.5,303 701.5,303 
		702.5,303 702.5,303 702.5,302 702.5,302 702.5,302 702.5,302 702.5,302 702.5,302 702.5,302 702.5,302 702.5,302 702.5,302 
		702.5,302 703.5,302 703.5,302 703.5,302 703.5,302 703.5,302 703.5,302 703.5,302 703.5,303 703.5,303 703.5,303 703.5,303 
		703.5,303 703.5,303 704.5,303 704.5,303 704.5,303 704.5,304 704.5,304 704.5,304 704.5,304 704.5,304 704.5,304 704.5,304 
		704.5,305 704.5,305 704.5,305 705.5,305 705.5,305 705.5,305 705.5,305 705.5,306 705.5,306 705.5,306 705.5,306 705.5,306 
		705.5,306 705.5,307 705.5,307 705.5,307 706.5,307 706.5,307 706.5,307 706.5,307 706.5,307 706.5,307 706.5,307 706.5,307 
		706.5,308 706.5,308 706.5,308 706.5,308 706.5,308 707.5,309 707.5,309 707.5,309 707.5,309 707.5,309 707.5,309 707.5,309 
		707.5,309 707.5,309 707.5,309 707.5,309 707.5,310 707.5,310 708.5,310 708.5,310 708.5,309 708.5,310 708.5,310 708.5,310 
		708.5,310 708.5,310 708.5,310 708.5,310 708.5,310 708.5,310 708.5,310 709.5,311 709.5,311 709.5,311 709.5,311 709.5,311 
		709.5,311 709.5,311 709.5,311 709.5,311 709.5,311 709.5,312 709.5,312 709.5,312 710.5,312 710.5,312 710.5,312 710.5,312 
		710.5,312 710.5,312 710.5,312 710.5,312 710.5,312 710.5,312 710.5,312 710.5,312 710.5,312 711.5,312 711.5,312 711.5,312 
		711.5,312 711.5,312 711.5,312 711.5,312 711.5,312 711.5,312 711.5,312 711.5,312 711.5,313 711.5,313 712.5,313 712.5,313 
		712.5,313 712.5,313 712.5,313 712.5,314 712.5,314 712.5,314 712.5,314 712.5,314 712.5,315 712.5,315 712.5,315 713.5,315 
		713.5,316 713.5,316 713.5,316 713.5,316 713.5,316 713.5,316 713.5,316 713.5,316 713.5,317 713.5,317 713.5,316 713.5,316 
		714.5,316 714.5,316 714.5,316 714.5,316 714.5,316 714.5,316 714.5,316 714.5,316 714.5,316 714.5,316 714.5,316 714.5,316 
		714.5,316 715.5,316 715.5,316 715.5,316 715.5,316 715.5,317 715.5,317 715.5,317 715.5,317 715.5,317 715.5,317 715.5,317 
		715.5,317 715.5,317 716.5,318 716.5,318 716.5,318 716.5,318 716.5,318 716.5,318 716.5,319 716.5,319 716.5,319 716.5,319 
		716.5,320 	"/>
</g>
</svg>
