<?xml version="1.0" encoding="UTF-8" standalone="no"?><svg width="282.222mm" height="141.111mm" xmlns="http://www.w3.org/2000/svg" xmlns:xlink="http://www.w3.org/1999/xlink"  version="1.2" baseProfile="tiny"><g fill="none" stroke="#ff0000" stroke-linecap="round" stroke-linejoin="round" stroke-opacity="1" stroke-width="1.5" transform="matrix(1,0,0,1,0,0)">
<polyline fill="none" points="27,273 27,273 27,274 27,274 27,275 27,275 27,275 27,276 28,276 28,277 28,277 28,278 28,278 28,279 28,279 28,280 28,280 28,280 28,281 28,281 28,282 29,282 29,283 29,283 29,283 29,284 29,284 29,285 29,285 29,286 29,286 29,286 29,286 29,287 30,287 30,288 30,288 30,288 30,289 30,289 30,290 30,290 30,290 30,290 30,291 30,291 30,291 31,292 31,292 31,292 31,293 31,293 31,293 31,293 31,293 31,294 31,294 31,293 31,294 31,294 32,294 32,294 32,295 32,295 32,295 32,295 32,295 32,295 32,295 32,296 32,296 32,296 32,296 33,296 33,296 33,296 33,296 33,296 33,296 33,296 33,296 33,296 33,296 33,295 33,295 33,295 34,295 34,295 34,295 34,295 34,295 34,294 34,294 34,294 34,294 34,294 34,294 34,293 34,293 35,293 35,293 35,293 35,292 35,292 35,292 35,291 35,291 35,290 35,290 35,289 35,289 35,289 36,289 36,289 36,289 36,288 36,288 36,287 36,287 36,287 36,286 36,286 36,285 36,285 36,285 37,284 37,284 37,284 37,283 37,283 37,283 37,283 37,282 37,282 37,282 37,281 37,281 38,281 38,280 38,280 38,279 38,279 38,278 38,278 38,278 38,277 38,277 38,276 38,276 38,275 39,275 39,275 39,275 39,275 39,275 39,275 39,275 39,274 39,275 39,275 39,275 39,275 39,275 40,275 40,275 40,275 40,276 40,277 40,278 40,278 40,279 40,280 40,280 40,281 40,281 40,282 41,283 41,283 41,284 41,285 41,285 41,286 41,286 41,287 41,287 41,288 41,288 41,289 41,289 42,290 42,290 42,291 42,292 42,292 42,293 42,293 42,294 42,294 42,294 42,295 42,295 42,296 43,296 43,296 43,296 43,297 43,297 43,297 43,297 43,297 43,297 43,297 43,297 43,297 43,298 44,298 44,298 44,298 44,298 44,298 44,298 44,299 44,298 44,298 44,298 44,298 44,298 44,298 45,299 45,299 45,299 45,299 45,299 45,300 45,300 45,300 45,300 45,300 45,300 45,301 45,301 46,301 46,301 46,301 46,301 46,301 46,300 46,300 46,300 46,300 46,300 46,300 46,300 46,300 47,300 47,300 47,300 47,300 47,300 47,301 47,301 47,301 47,301 47,301 47,301 47,301 47,301 48,301 48,302 48,302 48,302 48,301 48,302 48,302 48,302 48,302 48,302 48,302 48,302 48,302 49,302 49,302 49,302 49,302 49,302 49,302 49,302 49,302 49,302 49,302 49,302 49,301 49,301 50,301 50,301 50,301 50,301 50,301 50,301 50,301 50,301 50,301 50,301 50,301 50,300 50,300 51,300 51,300 51,300 51,300 51,301 51,301 51,302 51,302 51,302 51,301 51,301 51,301 51,301 52,301 52,300 52,300 52,300 52,300 52,300 52,300 52,300 52,300 52,300 52,300 52,300 52,300 53,300 53,300 53,300 53,300 53,300 53,300 53,300 53,300 53,300 53,300 53,300 53,300 53,300 54,300 54,300 54,300 54,300 54,299 54,299 54,299 54,299 54,299 54,299 54,298 54,298 54,298 55,298 55,297 55,297 55,297 55,297 55,297 55,297 55,297 55,297 55,296 55,296 55,296 55,296 56,296 56,296 56,296 56,296 56,295 56,295 56,295 56,295 56,295 56,295 56,295 56,295 56,295 57,294 57,294 57,294 57,294 57,294 57,294 57,294 57,293 57,293 57,293 57,293 57,293 58,293 58,292 58,292 58,292 58,292 58,292 58,292 58,292 58,292 58,292 58,292 58,291 58,291 59,291 59,291 59,291 59,290 59,290 59,290 59,290 59,290 59,289 59,289 59,289 59,289 59,289 60,288 60,288 60,288 60,288 60,288 60,288 60,287 60,287 60,287 60,287 60,287 60,286 60,286 61,286 61,286 61,286 61,286 61,285 61,285 61,285 61,285 61,285 61,285 61,285 61,284 61,284 62,284 62,284 62,284 62,283 62,283 62,283 62,283 62,283 62,282 62,282 62,282 62,282 62,282 63,281 63,281 63,281 63,281 63,280 63,280 63,280 63,280 63,280 63,279 63,279 63,279 63,279 64,279 64,279 64,279 64,279 64,279 64,279 64,279 64,279 64,279 64,279 64,279 64,280 64,280 65,280 65,281 65,281 65,281 65,282 65,282 65,282 65,282 65,282 65,282 65,282 65,282 65,282 66,282 66,281 66,281 66,281 66,281 66,281 66,281 66,281 66,281 66,281 66,281 66,281 66,281 67,281 67,280 67,280 67,280 67,280 67,280 67,279 67,279 67,279 67,279 67,279 67,279 67,279 68,279 68,279 68,279 68,279 68,279 68,279 68,279 68,279 68,278 68,278 68,278 68,278 68,278 69,278 69,278 69,278 69,278 69,278 69,278 69,278 69,278 69,278 69,278 69,278 69,278 69,277 70,277 70,277 70,277 70,277 70,277 70,277 70,277 70,277 70,276 70,276 70,276 70,276 70,276 71,276 71,276 71,276 71,276 71,276 71,276 71,276 71,276 71,276 71,275 71,275 71,275 71,275 72,275 72,275 72,275 72,275 72,275 72,275 72,275 72,275 72,274 72,274 72,274 72,274 72,274 73,274 73,274 73,274 73,274 73,273 73,273 73,273 73,273 73,273 73,273 73,273 73,273 73,273 74,273 74,273 74,273 74,272 74,272 74,272 74,272 74,272 74,272 74,272 74,272 74,271 74,271 75,271 75,271 75,271 75,271 75,271 75,271 75,271 75,271 75,271 75,271 75,271 75,270 75,270 76,270 76,270 76,270 76,270 76,270 76,270 76,270 76,270 76,270 76,269 76,269 76,269 76,269 77,269 77,269 77,269 77,269 77,269 77,269 77,268 77,268 77,268 77,268 77,268 77,268 78,268 78,268 78,268 78,267 78,267 78,267 78,267 78,267 78,267 78,267 78,267 78,266 78,266 79,266 79,266 79,266 79,266 79,266 79,266 79,266 79,265 79,265 79,265 79,265 79,265 79,265 80,265 80,265 80,264 80,264 80,264 80,264 80,264 80,264 80,264 80,264 80,264 80,264 80,263 81,263 81,263 81,263 81,262 81,262 81,262 81,263 81,263 81,262 81,262 81,262 81,262 81,262 82,261 82,261 82,261 82,261 82,260 82,260 82,259 82,259 82,259 82,258 82,258 82,258 82,257 83,257 83,257 83,257 83,257 83,256 83,256 83,256 83,256 83,256 83,256 83,256 83,256 83,256 84,256 84,256 84,256 84,256 84,256 84,256 84,256 84,256 84,255 84,255 84,255 84,255 84,255 85,255 85,255 85,255 85,255 85,254 85,254 85,254 85,254 85,254 85,254 85,254 85,254 85,254 86,254 86,254 86,254 86,254 86,254 86,253 86,253 86,253 86,253 86,253 86,253 86,253 86,253 87,253 87,252 87,252 87,252 87,252 87,252 87,252 87,252 87,251 87,251 87,251 87,251 87,251 88,251 88,251 88,250 88,250 88,250 88,250 88,250 88,250 88,250 88,249 88,249 88,249 88,249 89,249 89,248 89,248 89,248 89,248 89,248 89,247 89,247 89,247 89,247 89,247 89,246 89,246 90,246 90,246 90,246 90,245 90,245 90,245 90,245 90,244 90,244 90,244 90,244 90,244 90,243 91,243 91,243 91,243 91,242 91,242 91,242 91,242 91,242 91,241 91,241 91,241 91,241 91,241 92,240 92,240 92,240 92,240 92,239 92,239 92,239 92,238 92,238 92,238 92,238 92,238 92,238 93,238 93,237 93,237 93,237 93,237 93,237 93,237 93,237 93,236 93,236 93,236 93,236 93,236 94,236 94,236 94,236 94,236 94,236 94,236 94,236 94,236 94,235 94,235 94,235 94,235 94,235 95,235 95,234 95,234 95,234 95,234 95,233 95,233 95,233 95,233 95,233 95,233 95,232 95,232 96,232 96,232 96,232 96,231 96,231 96,231 96,231 96,230 96,230 96,230 96,230 96,230 96,229 97,229 97,229 97,229 97,229 97,229 97,229 97,229 97,229 97,229 97,229 97,229 97,229 98,229 98,228 98,228 98,228 98,228 98,227 98,227 98,227 98,227 98,226 98,226 98,226 98,226 99,225 99,225 99,225 99,225 99,225 99,224 99,224 99,224 99,224 99,223 99,223 99,223 99,223 100,223 100,222 100,222 100,222 100,222 100,221 100,221 100,220 100,220 100,220 100,219 100,219 100,218 101,218 101,218 101,217 101,217 101,216 101,216 101,216 101,216 101,215 101,215 101,214 101,214 101,213 102,213 102,212 102,212 102,211 102,211 102,210 102,209 102,209 102,208 102,207 102,207 102,206 102,206 103,205 103,204 103,203 103,203 103,202 103,201 103,201 103,200 103,199 103,198 103,198 103,197 103,197 104,197 104,196 104,196 104,195 104,195 104,194 104,194 104,193 104,193 104,193 104,193 104,192 104,192 105,192 105,192 105,192 105,191 105,191 105,191 105,191 105,191 105,191 105,191 105,191 105,191 105,191 106,191 106,193 106,193 106,193 106,193 106,193 106,193 106,194 106,194 106,194 106,194 106,194 106,194 107,194 107,195 107,195 107,195 107,194 107,194 107,194 107,194 107,193 107,192 107,192 107,192 107,191 108,191 108,190 108,188 108,188 108,187 108,186 108,184 108,183 108,182 108,181 108,180 108,179 108,178 109,177 109,175 109,174 109,173 109,172 109,172 109,171 109,170 109,168 109,168 109,167 109,166 109,166 110,165 110,164 110,163 110,162 110,161 110,160 110,159 110,158 110,157 110,156 110,155 110,154 110,153 111,152 111,151 111,150 111,149 111,148 111,148 111,147 111,146 111,145 111,144 111,143 111,143 111,142 112,141 112,140 112,139 112,139 112,138 112,137 112,137 112,137 112,137 112,137 112,137 112,137 112,137 113,137 113,137 113,137 113,137 113,138 113,138 113,138 113,138 113,138 113,138 113,138 113,138 113,139 114,139 114,139 114,139 114,139 114,139 114,139 114,139 114,140 114,140 114,140 114,140 114,140 114,140 115,140 115,141 115,141 115,142 115,143 115,144 115,145 115,146 115,147 115,148 115,149 115,150 115,150 116,151 116,152 116,153 116,153 116,154 116,155 116,155 116,156 116,157 116,156 116,155 116,154 116,152 117,151 117,149 117,148 117,147 117,145 117,143 117,142 117,140 117,139 117,138 117,136 117,135 118,134 118,133 118,132 118,132 118,131 118,130 118,129 118,129 118,128 118,127 118,127 118,126 118,125 119,125 119,124 119,124 119,123 119,123 119,122 119,121 119,121 119,120 119,120 119,119 119,119 119,119 120,118 120,118 120,118 120,118 120,119 120,119 120,119 120,119 120,119 120,119 120,119 120,120 120,120 121,119 121,119 121,118 121,118 121,118 121,118 121,118 121,118 121,118 121,118 121,119 121,119 121,120 122,120 122,120 122,121 122,121 122,122 122,122 122,123 122,124 122,126 122,128 122,130 122,132 122,134 123,135 123,137 123,138 123,139 123,139 123,140 123,140 123,141 123,141 123,141 123,142 123,142 123,140 124,138 124,136 124,134 124,132 124,130 124,129 124,128 124,128 124,128 124,128 124,127 124,127 124,126 125,126 125,126 125,125 125,125 125,124 125,124 125,124 125,123 125,123 125,123 125,122 125,122 125,122 126,121 126,121 126,120 126,119 126,119 126,120 126,121 126,121 126,122 126,123 126,123 126,124 126,124 127,124 127,123 127,123 127,124 127,124 127,124 127,124 127,124 127,124 127,124 127,124 127,124 127,124 128,124 128,124 128,124 128,124 128,124 128,124 128,124 128,124 128,124 128,125 128,125 128,125 128,126 129,126 129,126 129,126 129,126 129,126 129,126 129,126 129,126 129,126 129,126 129,126 129,126 129,126 130,126 130,126 130,126 130,126 130,126 130,126 130,127 130,128 130,127 130,126 130,125 130,124 130,123 131,122 131,121 131,120 131,119 131,118 131,117 131,116 131,115 131,114 131,113 131,112 131,111 131,110 132,108 132,107 132,106 132,104 132,103 132,101 132,100 132,98 132,97 132,95 132,94 132,93 132,91 133,90 133,89 133,88 133,87 133,86 133,85 133,85 133,84 133,83 133,82 133,82 133,81 133,81 134,80 134,80 134,79 134,78 134,77 134,77 134,76 134,75 134,74 134,74 134,73 134,72 134,71 135,71 135,70 135,69 135,69 135,68 135,67 135,67 135,67 135,66 135,66 135,65 135,65 135,65 136,65 136,65 136,65 136,65 136,64 136,64 136,64 136,64 136,65 136,65 136,65 136,65 136,65 137,65 137,65 137,64 137,63 137,62 137,62 137,60 137,59 137,58 137,58 137,58 137,57 138,56 138,56 138,56 138,55 138,55 138,55 138,54 138,54 138,54 138,53 138,53 138,53 138,53 139,52 139,52 139,52 139,52 139,52 139,51 139,51 139,50 139,50 139,50 139,50 139,51 139,51 140,52 140,53 140,53 140,54 140,55 140,55 140,56 140,56 140,55 140,55 140,54 140,53 140,53 141,52 141,52 141,51 141,51 141,51 141,51 141,50 141,50 141,49 141,49 141,49 141,49 141,49 142,49 142,49 142,50 142,50 142,50 142,50 142,51 142,51 142,52 142,52 142,52 142,52 142,52 143,52 143,52 143,51 143,51 143,51 143,51 143,52 143,52 143,52 143,52 143,52 143,52 143,52 144,52 144,52 144,52 144,52 144,52 144,52 144,52 144,52 144,52 144,52 144,52 144,52 144,53 145,53 145,53 145,53 145,53 145,53 145,53 145,53 145,54 145,54 145,54 145,54 145,54 145,54 146,55 146,55 146,55 146,56 146,56 146,56 146,57 146,57 146,57 146,58 146,58 146,59 146,59 147,60 147,60 147,60 147,61 147,61 147,62 147,63 147,63 147,64 147,64 147,64 147,65 147,65 148,65 148,65 148,65 148,65 148,65 148,66 148,66 148,67 148,67 148,67 148,68 148,68 148,68 149,68 149,68 149,68 149,69 149,70 149,71 149,71 149,72 149,73 149,74 149,74 149,75 149,75 150,75 150,76 150,76 150,77 150,77 150,78 150,78 150,79 150,79 150,79 150,79 150,79 150,79 151,79 151,79 151,79 151,78 151,79 151,79 151,79 151,79 151,80 151,80 151,80 151,80 151,80 152,81 152,81 152,82 152,82 152,82 152,83 152,83 152,83 152,83 152,83 152,83 152,82 152,82 153,82 153,82 153,82 153,81 153,80 153,80 153,79 153,79 153,79 153,79 153,79 153,79 153,79 154,79 154,79 154,79 154,79 154,79 154,79 154,78 154,78 154,78 154,78 154,78 154,78 154,78 155,79 155,79 155,78 155,78 155,78 155,79 155,79 155,79 155,80 155,80 155,80 155,81 155,81 156,81 156,82 156,82 156,82 156,83 156,83 156,84 156,84 156,85 156,85 156,86 156,86 156,87 157,87 157,88 157,88 157,89 157,89 157,89 157,90 157,91 157,92 157,93 157,94 157,94 158,94 158,95 158,95 158,95 158,96 158,96 158,97 158,97 158,98 158,98 158,98 158,99 158,99 159,100 159,100 159,100 159,101 159,101 159,101 159,102 159,102 159,102 159,103 159,103 159,103 159,103 160,104 160,104 160,104 160,104 160,104 160,104 160,104 160,104 160,104 160,104 160,105 160,105 160,105 161,105 161,106 161,106 161,106 161,106 161,106 161,107 161,107 161,107 161,107 161,108 161,109 161,108 162,108 162,108 162,107 162,107 162,107 162,107 162,107 162,107 162,108 162,108 162,108 162,109 162,109 163,110 163,110 163,109 163,109 163,110 163,110 163,110 163,110 163,110 163,110 163,111 163,111 163,111 164,111 164,111 164,111 164,111 164,111 164,111 164,111 164,111 164,111 164,111 164,111 164,111 164,111 165,111 165,111 165,111 165,111 165,111 165,111 165,111 165,111 165,111 165,111 165,111 165,111 165,111 166,111 166,111 166,110 166,111 166,111 166,111 166,111 166,111 166,111 166,111 166,111 166,111 166,111 167,111 167,111 167,111 167,111 167,111 167,111 167,111 167,111 167,111 167,111 167,111 167,111 167,111 168,111 168,111 168,110 168,110 168,110 168,109 168,109 168,109 168,109 168,108 168,108 168,107 168,107 169,107 169,106 169,106 169,106 169,106 169,105 169,105 169,105 169,104 169,104 169,103 169,103 169,103 170,103 170,102 170,102 170,102 170,102 170,102 170,101 170,101 170,101 170,101 170,101 170,101 170,101 171,101 171,101 171,101 171,101 171,101 171,101 171,101 171,102 171,102 171,102 171,102 171,102 171,103 172,103 172,103 172,103 172,103 172,103 172,103 172,103 172,104 172,104 172,103 172,103 172,103 172,102 173,102 173,101 173,101 173,101 173,100 173,100 173,99 173,99 173,99 173,99 173,98 173,98 173,98 174,98 174,98 174,98 174,98 174,99 174,99 174,99 174,100 174,100 174,101 174,101 174,101 174,101 175,101 175,102 175,103 175,105 175,105 175,105 175,105 175,106 175,106 175,106 175,107 175,108 175,108 176,108 176,109 176,109 176,110 176,110 176,110 176,110 176,111 176,111 176,111 176,111 176,111 176,111 177,111 177,111 177,111 177,110 177,110 177,110 177,110 177,109 177,109 177,109 177,109 177,109 178,109 178,109 178,108 178,108 178,108 178,107 178,107 178,107 178,106 178,106 178,106 178,106 178,106 179,106 179,106 179,106 179,107 179,107 179,107 179,107 179,108 179,108 179,108 179,108 179,107 179,107 180,108 180,108 180,108 180,108 180,108 180,109 180,109 180,109 180,109 180,109 180,110 180,110 180,110 181,110 181,110 181,110 181,111 181,111 181,111 181,111 181,112 181,112 181,112 181,112 181,112 181,112 182,113 182,113 182,113 182,113 182,113 182,114 182,114 182,114 182,114 182,114 182,114 182,114 182,115 183,115 183,115 183,115 183,115 183,115 183,116 183,116 183,116 183,116 183,116 183,116 183,116 183,116 184,116 184,117 184,117 184,117 184,117 184,117 184,118 184,118 184,118 184,118 184,119 184,119 184,119 185,119 185,119 185,119 185,120 185,120 185,120 185,120 185,120 185,120 185,120 185,120 185,120 185,120 186,120 186,121 186,121 186,121 186,121 186,121 186,121 186,121 186,121 186,121 186,121 186,121 186,121 187,121 187,122 187,122 187,122 187,122 187,122 187,122 187,122 187,122 187,122 187,123 187,123 187,123 188,123 188,123 188,123 188,123 188,123 188,123 188,123 188,124 188,124 188,124 188,124 188,124 188,124 189,124 189,124 189,125 189,124 189,124 189,125 189,125 189,125 189,125 189,125 189,125 189,126 189,126 190,126 190,126 190,126 190,127 190,127 190,127 190,127 190,127 190,127 190,127 190,127 190,127 190,127 191,127 191,127 191,127 191,127 191,128 191,128 191,128 191,128 191,128 191,128 191,128 191,128 191,127 192,127 192,127 192,128 192,128 192,128 192,128 192,128 192,129 192,129 192,129 192,129 192,129 192,129 193,130 193,130 193,130 193,130 193,130 193,130 193,130 193,130 193,130 193,130 193,130 193,130 193,130 194,129 194,129 194,129 194,129 194,129 194,129 194,129 194,129 194,129 194,129 194,129 194,129 194,129 195,130 195,130 195,130 195,129 195,129 195,129 195,129 195,129 195,129 195,129 195,129 195,129 195,129 196,129 196,128 196,128 196,128 196,128 196,127 196,127 196,127 196,127 196,127 196,127 196,127 196,128 197,128 197,127 197,127 197,127 197,127 197,127 197,126 197,126 197,126 197,126 197,126 197,125 198,125 198,125 198,125 198,126 198,126 198,126 198,126 198,126 198,126 198,125 198,125 198,125 198,125 199,126 199,126 199,126 199,126 199,126 199,126 199,126 199,126 199,126 199,126 199,126 199,126 199,126 200,126 200,126 200,127 200,127 200,127 200,127 200,127 200,127 200,127 200,127 200,127 200,127 200,127 201,127 201,127 201,127 201,127 201,127 201,127 201,127 201,127 201,127 201,127 201,127 201,127 201,127 202,127 202,127 202,127 202,127 202,127 202,126 202,126 202,126 202,126 202,126 202,126 202,125 202,125 203,125 203,125 203,125 203,124 203,124 203,124 203,124 203,124 203,124 203,124 203,124 203,124 203,125 204,125 204,125 204,125 204,126 204,126 204,127 204,127 204,126 204,126 204,126 204,126 204,126 204,126 205,126 205,127 205,127 205,127 205,127 205,128 205,128 205,128 205,128 205,129 205,129 205,129 205,129 206,129 206,128 206,127 206,127 206,127 206,126 206,126 206,125 206,125 206,125 206,124 206,124 206,124 207,124 207,124 207,124 207,124 207,123 207,123 207,123 207,123 207,123 207,123 207,123 207,123 207,123 208,123 208,123 208,123 208,123 208,124 208,124 208,124 208,124 208,124 208,124 208,124 208,124 208,125 209,125 209,125 209,125 209,125 209,125 209,125 209,125 209,125 209,125 209,125 209,125 209,125 209,125 210,125 210,125 210,125 210,125 210,125 210,126 210,126 210,126 210,126 210,126 210,126 210,126 210,126 211,126 211,126 211,126 211,126 211,126 211,126 211,126 211,126 211,126 211,127 211,127 211,127 211,127 212,127 212,127 212,127 212,127 212,127 212,127 212,126 212,126 212,126 212,125 212,125 212,125 212,125 213,124 213,124 213,124 213,124 213,124 213,125 213,125 213,125 213,125 213,125 213,125 213,125 213,125 214,125 214,125 214,125 214,125 214,125 214,125 214,125 214,125 214,125 214,125 214,125 214,125 214,125 215,125 215,125 215,125 215,125 215,125 215,125 215,125 215,126 215,126 215,126 215,126 215,126 215,126 216,126 216,126 216,126 216,126 216,126 216,126 216,126 216,126 216,126 216,126 216,127 216,127 216,127 217,126 217,127 217,127 217,127 217,127 217,127 217,127 217,128 217,128 217,128 217,128 217,127 218,127 218,127 218,128 218,127 218,127 218,127 218,127 218,128 218,128 218,127 218,127 218,127 218,127 219,127 219,127 219,127 219,127 219,127 219,127 219,126 219,126 219,126 219,126 219,127 219,127 219,127 220,127 220,127 220,127 220,127 220,127 220,127 220,127 220,127 220,127 220,127 220,127 220,127 220,127 221,127 221,127 221,127 221,127 221,127 221,127 221,127 221,127 221,127 221,127 221,127 221,127 221,127 222,127 222,126 222,126 222,126 222,126 222,126 222,126 222,126 222,126 222,126 222,126 222,126 222,126 223,126 223,126 223,126 223,126 223,126 223,126 223,126 223,126 223,126 223,126 223,126 223,126 223,126 224,126 224,126 224,126 224,126 224,126 224,126 224,126 224,126 224,126 224,126 224,126 224,126 224,126 225,126 225,126 225,126 225,126 225,126 225,126 225,126 225,126 225,126 225,126 225,126 225,126 225,126 226,126 226,126 226,126 226,126 226,126 226,126 226,126 226,126 226,126 226,126 226,126 226,126 226,126 227,126 227,126 227,125 227,125 227,125 227,126 227,126 227,126 227,126 227,126 227,126 227,126 227,126 228,126 228,126 228,126 228,126 228,126 228,126 228,126 228,126 228,126 228,126 228,125 228,125 228,125 229,125 229,125 229,125 229,125 229,125 229,125 229,125 229,125 229,125 229,125 229,125 229,125 229,125 230,125 230,125 230,125 230,125 230,125 230,125 230,125 230,125 230,125 230,125 230,125 230,125 230,124 231,124 231,124 231,124 231,124 231,124 231,124 231,124 231,124 231,124 231,124 231,123 231,123 231,123 232,124 232,124 232,124 232,124 232,124 232,124 232,124 232,124 232,124 232,124 232,124 232,124 232,124 233,124 233,124 233,124 233,124 233,124 233,124 233,124 233,125 233,125 233,125 233,125 233,125 233,125 234,125 234,125 234,125 234,125 234,125 234,125 234,125 234,125 234,125 234,125 234,125 234,125 234,125 235,125 235,124 235,124 235,124 235,124 235,124 235,124 235,124 235,124 235,124 235,124 235,124 235,124 236,124 236,124 236,124 236,124 236,124 236,124 236,124 236,124 236,124 236,124 236,124 236,124 236,124 237,124 237,124 237,125 237,125 237,124 237,124 237,124 237,124 237,124 237,124 237,124 237,123 238,123 238,123 238,123 238,123 238,123 238,124 238,124 238,124 238,124 238,124 238,124 238,124 238,124 239,124 239,124 239,124 239,124 239,124 239,124 239,124 239,124 239,124 239,124 239,124 239,124 239,124 240,124 240,124 240,123 240,123 240,123 240,123 240,122 240,122 240,122 240,122 240,122 240,122 240,122 241,122 241,122 241,122 241,122 241,122 241,122 241,122 241,122 241,122 241,122 241,122 241,122 241,121 242,121 242,121 242,121 242,121 242,121 242,121 242,121 242,121 242,121 242,121 242,121 242,121 242,120 243,120 243,120 243,120 243,119 243,119 243,119 243,119 243,119 243,120 243,120 243,120 243,120 243,120 244,120 244,120 244,120 244,119 244,119 244,119 244,119 244,119 244,119 244,118 244,119 244,119 244,119 245,119 245,119 245,119 245,119 245,119 245,119 245,118 245,118 245,118 245,118 245,118 245,118 245,118 246,118 246,118 246,118 246,118 246,118 246,118 246,118 246,118 246,118 246,118 246,118 246,118 246,118 247,118 247,118 247,118 247,118 247,118 247,118 247,118 247,117 247,117 247,117 247,117 247,117 247,117 248,117 248,117 248,117 248,117 248,117 248,117 248,117 248,117 248,117 248,117 248,117 248,116 248,116 249,116 249,116 249,115 249,115 249,115 249,115 249,115 249,115 249,114 249,114 249,114 249,114 249,114 250,114 250,113 250,113 250,113 250,113 250,112 250,112 250,112 250,112 250,112 250,112 250,112 250,112 251,113 251,113 251,113 251,113 251,113 251,113 251,113 251,113 251,113 251,113 251,113 251,113 251,114 252,113 252,113 252,112 252,112 252,112 252,112 252,112 252,112 252,112 252,112 252,112 252,112 252,112 253,112 253,112 253,112 253,112 253,112 253,112 253,112 253,112 253,112 253,111 253,111 253,111 253,111 254,111 254,111 254,111 254,110 254,110 254,110 254,110 254,109 254,109 254,109 254,109 254,109 254,109 255,109 255,109 255,109 255,109 255,109 255,109 255,109 255,109 255,108 255,108 255,108 255,108 255,108 256,108 256,108 256,108 256,108 256,108 256,108 256,108 256,108 256,108 256,108 256,108 256,108 256,107 257,107 257,107 257,107 257,107 257,107 257,107 257,106 257,106 257,106 257,106 257,105 257,105 258,105 258,104 258,104 258,103 258,103 258,102 258,102 258,102 258,102 258,101 258,101 258,101 258,100 259,100 259,100 259,99 259,99 259,99 259,99 259,98 259,98 259,98 259,98 259,97 259,97 259,97 260,97 260,97 260,97 260,97 260,97 260,97 260,97 260,97 260,98 260,98 260,98 260,97 260,97 261,97 261,97 261,97 261,97 261,97 261,97 261,97 261,97 261,97 261,97 261,97 261,97 261,97 262,97 262,97 262,97 262,97 262,97 262,97 262,97 262,97 262,96 262,96 262,96 262,96 262,95 263,95 263,95 263,95 263,96 263,96 263,96 263,96 263,96 263,96 263,96 263,95 263,95 263,95 264,96 264,96 264,96 264,96 264,95 264,95 264,95 264,95 264,95 264,95 264,95 264,95 264,95 265,95 265,95 265,95 265,95 265,95 265,94 265,94 265,94 265,94 265,94 265,94 265,95 265,95 266,95 266,95 266,96 266,96 266,96 266,96 266,96 266,95 266,95 266,94 266,94 266,94 266,94 267,94 267,93 267,94 267,94 267,94 267,95 267,95 267,94 267,94 267,94 267,93 267,93 267,92 268,92 268,92 268,92 268,91 268,91 268,91 268,91 268,91 268,91 268,91 268,91 268,91 268,90 269,90 269,90 269,90 269,90 269,90 269,90 269,90 269,90 269,89 269,89 269,89 269,89 269,89 270,89 270,89 270,89 270,89 270,88 270,88 270,88 270,88 270,88 270,88 270,88 270,88 270,88 271,87 271,87 271,87 271,87 271,87 271,87 271,87 271,87 271,87 271,87 271,87 271,87 271,87 272,87 272,86 272,86 272,86 272,86 272,85 272,85 272,85 272,84 272,84 272,84 272,84 272,83 273,83 273,83 273,83 273,82 273,82 273,82 273,82 273,82 273,81 273,81 273,81 273,81 273,80 274,80 274,80 274,80 274,80 274,80 274,79 274,79 274,79 274,79 274,79 274,79 274,78 274,78 275,78 275,78 275,78 275,78 275,78 275,78 275,78 275,78 275,78 275,78 275,78 275,77 275,77 276,77 276,77 276,77 276,76 276,76 276,76 276,76 276,76 276,75 276,75 276,75 276,75 276,74 277,74 277,74 277,74 277,73 277,73 277,73 277,73 277,73 277,72 277,72 277,72 277,72 277,71 278,71 278,71 278,71 278,71 278,70 278,70 278,69 278,69 278,69 278,69 278,69 278,69 279,69 279,69 279,69 279,69 279,69 279,69 279,69 279,69 279,68 279,68 279,68 279,68 279,68 280,69 280,69 280,69 280,69 280,69 280,69 280,69 280,69 280,69 280,69 280,69 280,69 280,68 281,68 281,68 281,68 281,67 281,67 281,66 281,66 281,65 281,65 281,64 281,64 281,63 281,63 282,62 282,62 282,62 282,61 282,61 282,61 282,60 282,60 282,60 282,60 282,59 282,60 282,59 283,60 283,60 283,60 283,60 283,60 283,61 283,61 283,62 283,62 283,63 283,64 283,64 283,65 284,65 284,66 284,67 284,67 284,68 284,68 284,68 284,68 284,68 284,67 284,67 284,67 284,66 285,66 285,65 285,65 285,65 285,64 285,64 285,64 285,63 285,63 285,63 285,62 285,62 285,62 286,62 286,62 286,62 286,62 286,62 286,62 286,62 286,62 286,62 286,63 286,63 286,63 286,64 287,64 287,65 287,65 287,65 287,66 287,66 287,66 287,67 287,67 287,67 287,67 287,67 287,67 288,67 288,66 288,66 288,65 288,65 288,64 288,63 288,62 288,61 288,60 288,59 288,58 288,57 289,56 289,55 289,54 289,53 289,53 289,51 289,50 289,48 289,47 289,47 289,47 289,47 289,46 290,45 290,45 290,45 290,44 290,44 290,44 290,44 290,44 290,43 290,43 290,43 290,43 290,43 291,43 291,42 291,42 291,42 291,42 291,41 291,41 291,41 291,41 291,42 291,43 291,44 291,45 292,45 292,46 292,46 292,47 292,47 292,47 292,48 292,48 292,49 292,49 292,49 292,49 292,48 293,47 293,47 293,46 293,45 293,45 293,44 293,44 293,44 293,44 293,44 293,44 293,43 293,43 294,43 294,43 294,43 294,43 294,43 294,43 294,43 294,42 294,42 294,41 294,41 294,40 294,39 295,39 295,38 295,37 295,37 295,36 295,36 295,35 295,34 295,34 295,33 295,33 295,32 295,32 296,31 296,31 296,30 296,30 296,29 296,29 296,28 296,27 296,26 296,25 296,24 296,24 296,24 297,24 297,24 297,24 297,24 297,25 297,25 297,25 297,25 297,25 297,25 297,25 297,25 297,25 298,25 298,25 298,25 298,25 298,25 298,25 298,25 298,25 298,25 298,25 298,25 298,25 299,25 299,26 299,26 299,27 299,27 299,28 299,28 299,28 299,29 299,29 299,29 299,29 299,29 300,29 300,29 300,29 300,29 300,28 300,28 300,28 300,27 300,27 300,26 300,26 300,26 300,26 301,25 301,25 301,25 301,25 301,26 301,26 301,26 301,27 301,27 301,27 301,27 301,28 301,28 302,28 302,29 302,30 302,30 302,31 302,31 302,31 302,32 302,32 302,32 302,33 302,34 302,35 303,35 303,36 303,36 303,37 303,37 303,38 303,38 303,39 303,40 303,40 303,41 303,41 303,42 304,41 304,41 304,42 304,42 304,42 304,42 304,42 304,42 304,43 304,43 304,43 304,43 304,43 305,44 305,44 305,44 305,44 305,45 305,45 305,45 305,45 305,45 305,45 305,45 305,46 305,46 306,46 306,47 306,47 306,47 306,48 306,48 306,49 306,50 306,50 306,51 306,52 306,52 306,52 307,52 307,52 307,52 307,51 307,51 307,50 307,49 307,48 307,47 307,46 307,45 307,44 307,43 308,42 308,42 308,41 308,40 308,40 308,40 308,40 308,41 308,41 308,41 308,41 308,41 308,41 309,41 309,41 309,41 309,42 309,42 309,42 309,42 309,43 309,43 309,44 309,44 309,44 309,44 310,43 310,43 310,43 310,43 310,43 310,43 310,43 310,43 310,43 310,42 310,42 310,41 310,41 311,41 311,40 311,40 311,40 311,39 311,38 311,38 311,37 311,37 311,36 311,35 311,34 311,34 312,33 312,32 312,31 312,31 312,30 312,30 312,30 312,29 312,29 312,28 312,28 312,27 312,27 313,26 313,26 313,25 313,25 313,24 313,24 313,23 313,23 313,22 313,22 313,21 313,21 313,20 314,20 314,19 314,19 314,18 314,18 314,17 314,17 314,16 314,16 314,16 314,15 314,14 314,14 315,14 315,13 315,13 315,13 315,12 315,12 315,11 315,11 315,11 315,10 315,10 315,9 315,9 316,9 316,9 316,8 316,8 316,7 316,7 316,6 316,6 316,6 316,5 316,5 316,4 316,4 317,3 317,3 317,2 317,2 317,2 317,1 317,1 317,1 317,1 317,1 317,1 317,1 317,2 318,2 318,2 318,3 318,4 318,4 318,5 318,5 318,6 318,7 318,7 318,8 318,9 319,9 319,10 319,11 319,12 319,14 319,15 319,16 319,17 319,18 319,19 319,20 319,20 319,21 320,22 320,23 320,24 320,24 320,25 320,25 320,26 320,27 320,28 320,28 320,29 320,29 320,29 321,30 321,30 321,31 321,31 321,31 321,31 321,32 321,32 321,32 321,31 321,32 321,32 321,32 322,32 322,33 322,33 322,33 322,33 322,34 322,34 322,34 322,35 322,35 322,36 322,36 322,37 323,37 323,38 323,39 323,39 323,40 323,41 323,41 323,42 323,42 323,43 323,43 323,43 323,43 324,43 324,43 324,43 324,42 324,42 324,42 324,41 324,41 324,40 324,40 324,39 324,39 324,39 325,38 325,38 325,37 325,37 325,36 325,36 325,36 325,36 325,35 325,35 325,35 325,35 325,35 326,35 326,35 326,35 326,35 326,35 326,35 326,35 326,35 326,35 326,35 326,35 326,34 326,34 327,34 327,34 327,34 327,33 327,33 327,33 327,33 327,32 327,32 327,32 327,31 327,31 327,30 328,30 328,30 328,30 328,30 328,30 328,31 328,31 328,31 328,32 328,32 328,32 328,33 328,33 329,34 329,34 329,35 329,35 329,36 329,36 329,37 329,37 329,38 329,39 329,39 329,40 329,41 330,41 330,42 330,43 330,45 330,46 330,47 330,49 330,50 330,51 330,52 330,54 330,55 330,57 331,58 331,60 331,60 331,61 331,62 331,63 331,64 331,65 331,66 331,66 331,67 331,67 331,68 332,69 332,70 332,70 332,71 332,72 332,72 332,73 332,74 332,74 332,75 332,76 332,77 332,77 333,78 333,78 333,79 333,80 333,81 333,82 333,83 333,84 333,84 333,85 333,86 333,86 333,86 334,86 334,86 334,87 334,87 334,87 334,87 334,88 334,88 334,89 334,90 334,90 334,91 334,91 335,92 335,92 335,92 335,93 335,93 335,93 335,93 335,93 335,94 335,94 335,94 335,94 335,94 336,94 336,95 336,95 336,95 336,96 336,96 336,96 336,97 336,97 336,97 336,97 336,97 336,97 337,97 337,96 337,96 337,95 337,95 337,94 337,93 337,93 337,92 337,92 337,91 337,91 337,91 338,91 338,91 338,91 338,91 338,91 338,91 338,91 338,90 338,90 338,90 338,90 338,91 339,91 339,92 339,92 339,93 339,93 339,94 339,94 339,94 339,94 339,94 339,95 339,95 339,95 340,95 340,95 340,95 340,96 340,96 340,97 340,98 340,99 340,99 340,100 340,101 340,101 340,102 341,102 341,103 341,103 341,103 341,103 341,104 341,105 341,105 341,106 341,106 341,107 341,107 341,108 342,108 342,108 342,109 342,109 342,109 342,110 342,110 342,110 342,110 342,111 342,111 342,111 342,111 343,111 343,111 343,111 343,111 343,110 343,110 343,110 343,110 343,110 343,110 343,110 343,110 343,109 344,109 344,109 344,108 344,108 344,107 344,107 344,106 344,106 344,105 344,105 344,104 344,103 344,103 345,103 345,103 345,102 345,102 345,102 345,101 345,100 345,100 345,99 345,98 345,98 345,97 345,97 346,96 346,96 346,95 346,95 346,94 346,94 346,93 346,93 346,92 346,92 346,91 346,91 346,90 347,90 347,89 347,89 347,88 347,88 347,88 347,87 347,87 347,87 347,86 347,86 347,86 347,86 348,85 348,85 348,85 348,85 348,85 348,84 348,84 348,84 348,84 348,84 348,85 348,86 348,86 349,87 349,87 349,88 349,89 349,89 349,90 349,91 349,91 349,92 349,92 349,93 349,94 349,94 350,95 350,95 350,95 350,96 350,96 350,97 350,97 350,97 350,98 350,98 350,99 350,99 350,100 351,100 351,100 351,101 351,101 351,102 351,102 351,102 351,103 351,103 351,103 351,104 351,104 351,104 352,105 352,105 352,106 352,106 352,106 352,107 352,107 352,107 352,107 352,108 352,108 352,108 352,109 353,109 353,110 353,110 353,111 353,111 353,111 353,112 353,112 353,112 353,113 353,113 353,113 353,113 354,114 354,114 354,114 354,115 354,115 354,115 354,115 354,115 354,115 354,116 354,116 354,116 354,115 355,115 355,114 355,114 355,114 355,113 355,113 355,113 355,112 355,112 355,111 355,111 355,110 355,110 356,109 356,109 356,108 356,107 356,107 356,106 356,105 356,105 356,104 356,104 356,103 356,102 356,102 357,102 357,101 357,100 357,100 357,99 357,99 357,98 357,98 357,97 357,97 357,96 357,96 357,96 358,95 358,95 358,95 358,95 358,94 358,94 358,94 358,93 358,93 358,93 358,93 358,94 359,94 359,94 359,94 359,94 359,94 359,94 359,94 359,94 359,94 359,94 359,94 359,93 359,93 360,92 360,92 360,92 360,91 360,90 360,90 360,90 360,90 360,91 360,91 360,91 360,91 360,91 361,91 361,91 361,91 361,91 361,91 361,91 361,91 361,91 361,91 361,91 361,90 361,90 361,91 362,91 362,92 362,92 362,93 362,94 362,94 362,94 362,95 362,95 362,96 362,96 362,97 362,98 363,98 363,99 363,100 363,100 363,100 363,101 363,101 363,102 363,103 363,103 363,104 363,105 363,105 364,106 364,106 364,107 364,107 364,108 364,109 364,109 364,110 364,110 364,111 364,111 364,112 364,112 365,112 365,113 365,113 365,114 365,114 365,114 365,115 365,115 365,115 365,115 365,116 365,116 365,116 366,116 366,116 366,116 366,117 366,117 366,118 366,118 366,118 366,118 366,119 366,119 366,119 366,120 367,120 367,120 367,120 367,121 367,121 367,121 367,121 367,121 367,120 367,120 367,120 367,120 367,119 368,119 368,119 368,119 368,119 368,118 368,118 368,117 368,117 368,117 368,116 368,116 368,116 368,115 369,115 369,115 369,115 369,115 369,115 369,115 369,114 369,114 369,114 369,113 369,112 369,111 369,111 370,110 370,110 370,109 370,109 370,109 370,109 370,108 370,108 370,108 370,108 370,109 370,109 370,109 371,108 371,108 371,108 371,108 371,108 371,108 371,108 371,108 371,108 371,108 371,108 371,109 371,109 372,109 372,109 372,110 372,110 372,110 372,110 372,110 372,111 372,111 372,111 372,112 372,112 372,113 373,113 373,114 373,114 373,115 373,115 373,115 373,116 373,116 373,117 373,117 373,118 373,118 373,118 374,119 374,119 374,119 374,120 374,120 374,120 374,121 374,121 374,122 374,122 374,123 374,123 374,124 375,124 375,125 375,125 375,126 375,126 375,127 375,127 375,128 375,129 375,129 375,130 375,130 375,131 376,132 376,132 376,133 376,133 376,134 376,134 376,135 376,135 376,136 376,136 376,137 376,137 376,138 377,138 377,139 377,139 377,140 377,140 377,140 377,141 377,141 377,142 377,142 377,142 377,142 377,143 378,143 378,143 378,143 378,143 378,143 378,143 378,143 378,143 378,143 378,143 378,143 378,143 379,143 379,143 379,144 379,144 379,144 379,143 379,142 379,142 379,142 379,142 379,142 379,143 379,143 380,144 380,144 380,145 380,145 380,145 380,145 380,145 380,145 380,145 380,145 380,145 380,145 380,145 381,145 381,145 381,145 381,145 381,145 381,145 381,145 381,146 381,146 381,147 381,147 381,148 381,149 382,149 382,149 382,148 382,148 382,147 382,147 382,147 382,148 382,148 382,148 382,148 382,148 382,149 383,149 383,149 383,149 383,149 383,148 383,148 383,148 383,148 383,148 383,148 383,148 383,148 383,149 384,149 384,149 384,149 384,149 384,150 384,150 384,150 384,150 384,151 384,151 384,151 384,152 384,152 385,152 385,153 385,153 385,153 385,153 385,153 385,153 385,153 385,153 385,153 385,153 385,153 385,153 386,153 386,153 386,153 386,153 386,153 386,153 386,153 386,153 386,153 386,153 386,153 386,153 386,154 387,154 387,154 387,154 387,154 387,154 387,154 387,154 387,153 387,153 387,153 387,153 387,153 387,153 388,152 388,152 388,151 388,151 388,150 388,150 388,149 388,149 388,148 388,147 388,147 388,146 388,145 389,144 389,144 389,143 389,142 389,142 389,141 389,141 389,141 389,141 389,140 389,140 389,140 389,140 390,140 390,140 390,140 390,140 390,140 390,140 390,140 390,141 390,141 390,139 390,136 390,132 390,128 391,125 391,124 391,122 391,121 391,120 391,120 391,120 391,119 391,119 391,119 391,119 391,119 391,119 392,119 392,119 392,119 392,120 392,120 392,119 392,119 392,119 392,119 392,119 392,119 392,119 392,119 393,119 393,119 393,119 393,120 393,121 393,122 393,123 393,124 393,125 393,127 393,128 393,129 393,130 394,131 394,132 394,133 394,134 394,134 394,135 394,136 394,136 394,137 394,138 394,138 394,139 394,139 395,139 395,140 395,140 395,140 395,140 395,140 395,139 395,139 395,139 395,139 395,138 395,138 395,138 396,137 396,137 396,137 396,136 396,136 396,135 396,135 396,134 396,134 396,133 396,133 396,132 396,132 397,132 397,131 397,131 397,131 397,131 397,130 397,130 397,130 397,130 397,130 397,130 397,130 397,131 398,131 398,131 398,131 398,132 398,132 398,132 398,132 398,133 398,133 398,133 398,134 398,134 399,134 399,135 399,135 399,135 399,135 399,136 399,136 399,136 399,136 399,137 399,137 399,137 399,138 400,138 400,139 400,140 400,141 400,141 400,142 400,143 400,144 400,144 400,145 400,145 400,146 400,146 401,147 401,148 401,149 401,149 401,150 401,150 401,151 401,152 401,152 401,152 401,152 401,153 401,153 402,153 402,153 402,154 402,154 402,154 402,155 402,155 402,155 402,156 402,156 402,156 402,157 402,158 403,158 403,158 403,159 403,159 403,159 403,160 403,160 403,161 403,161 403,162 403,162 403,163 403,163 404,163 404,163 404,164 404,164 404,164 404,164 404,164 404,165 404,165 404,165 404,166 404,167 404,167 405,168 405,168 405,169 405,170 405,170 405,171 405,172 405,173 405,174 405,175 405,175 405,176 405,176 406,176 406,176 406,176 406,176 406,176 406,176 406,176 406,176 406,177 406,177 406,177 406,176 406,175 407,175 407,174 407,173 407,172 407,171 407,171 407,170 407,169 407,169 407,168 407,167 407,166 407,165 408,164 408,164 408,163 408,162 408,161 408,161 408,160 408,160 408,159 408,158 408,157 408,157 408,156 409,156 409,156 409,155 409,155 409,155 409,155 409,154 409,154 409,154 409,154 409,154 409,155 409,155 410,155 410,155 410,155 410,155 410,156 410,156 410,156 410,156 410,157 410,157 410,157 410,157 410,157 411,157 411,158 411,160 411,161 411,163 411,163 411,164 411,165 411,165 411,166 411,167 411,167 411,168 412,169 412,169 412,170 412,170 412,171 412,171 412,171 412,172 412,172 412,172 412,171 412,171 412,171 413,172 413,172 413,172 413,173 413,173 413,174 413,174 413,174 413,175 413,176 413,176 413,176 413,177 414,177 414,177 414,177 414,178 414,178 414,179 414,179 414,179 414,179 414,180 414,180 414,180 414,180 415,181 415,181 415,181 415,182 415,182 415,183 415,183 415,183 415,184 415,184 415,185 415,185 415,185 416,186 416,186 416,187 416,187 416,188 416,188 416,188 416,189 416,189 416,189 416,190 416,190 416,190 417,190 417,191 417,191 417,191 417,191 417,191 417,192 417,192 417,192 417,192 417,192 417,193 417,193 418,193 418,193 418,193 418,193 418,193 418,194 418,194 418,194 418,194 418,194 418,194 418,194 419,194 419,195 419,195 419,195 419,195 419,195 419,196 419,196 419,196 419,196 419,197 419,197 419,197 420,197 420,197 420,198 420,198 420,198 420,198 420,198 420,199 420,199 420,199 420,199 420,199 420,199 421,199 421,199 421,199 421,200 421,200 421,200 421,200 421,200 421,201 421,201 421,201 421,201 421,201 422,200 422,200 422,200 422,199 422,197 422,196 422,194 422,193 422,192 422,191 422,190 422,190 422,189 423,189 423,188 423,187 423,186 423,185 423,184 423,183 423,182 423,180 423,179 423,178 423,178 423,177 424,177 424,176 424,175 424,174 424,173 424,173 424,172 424,172 424,171 424,172 424,172 424,172 424,172 425,172 425,172 425,172 425,172 425,172 425,172 425,172 425,172 425,171 425,171 425,171 425,171 425,171 426,171 426,171 426,171 426,170 426,170 426,170 426,170 426,169 426,169 426,169 426,169 426,169 426,169 427,170 427,170 427,170 427,170 427,170 427,170 427,170 427,169 427,168 427,167 427,167 427,166 427,165 428,164 428,163 428,162 428,161 428,160 428,159 428,158 428,158 428,157 428,156 428,156 428,155 428,155 429,155 429,154 429,154 429,153 429,153 429,153 429,152 429,152 429,152 429,151 429,151 429,151 429,150 430,150 430,150 430,150 430,149 430,149 430,149 430,150 430,150 430,150 430,150 430,150 430,150 430,150 431,150 431,150 431,151 431,151 431,151 431,151 431,151 431,151 431,152 431,152 431,152 431,152 431,153 432,153 432,154 432,154 432,154 432,154 432,154 432,153 432,153 432,152 432,152 432,152 432,152 432,151 433,151 433,150 433,150 433,149 433,149 433,149 433,148 433,148 433,148 433,148 433,148 433,147 433,147 434,147 434,146 434,145 434,145 434,145 434,144 434,144 434,144 434,143 434,143 434,143 434,143 434,142 435,142 435,142 435,142 435,141 435,141 435,141 435,141 435,140 435,140 435,140 435,140 435,139 435,139 436,139 436,139 436,139 436,138 436,138 436,138 436,138 436,137 436,137 436,137 436,137 436,136 436,136 437,136 437,136 437,135 437,135 437,135 437,135 437,135 437,135 437,135 437,134 437,134 437,134 437,133 438,133 438,133 438,133 438,133 438,133 438,132 438,132 438,132 438,132 438,132 438,132 438,132 439,132 439,132 439,131 439,132 439,132 439,132 439,132 439,132 439,132 439,133 439,133 439,133 439,133 440,133 440,133 440,133 440,133 440,133 440,133 440,133 440,133 440,133 440,133 440,133 440,133 440,134 441,134 441,134 441,134 441,134 441,134 441,134 441,135 441,135 441,135 441,136 441,136 441,137 441,137 442,137 442,138 442,138 442,139 442,139 442,140 442,140 442,140 442,141 442,141 442,141 442,142 442,142 443,142 443,143 443,143 443,144 443,144 443,145 443,145 443,145 443,146 443,146 443,147 443,147 443,148 444,148 444,148 444,148 444,148 444,148 444,148 444,148 444,148 444,148 444,148 444,148 444,148 444,148 445,147 445,147 445,147 445,147 445,147 445,147 445,146 445,146 445,146 445,146 445,146 445,146 445,146 446,146 446,146 446,146 446,146 446,146 446,146 446,146 446,146 446,146 446,146 446,146 446,145 446,145 447,146 447,146 447,146 447,147 447,147 447,147 447,147 447,147 447,147 447,148 447,148 447,148 447,149 448,149 448,149 448,150 448,150 448,151 448,151 448,151 448,152 448,152 448,153 448,153 448,153 448,154 449,154 449,154 449,154 449,155 449,155 449,155 449,156 449,157 449,158 449,158 449,159 449,159 449,160 450,160 450,161 450,161 450,162 450,162 450,163 450,164 450,164 450,165 450,166 450,166 450,167 450,167 451,167 451,167 451,166 451,166 451,165 451,165 451,164 451,163 451,163 451,162 451,162 451,161 451,161 452,160 452,160 452,159 452,159 452,158 452,158 452,157 452,157 452,156 452,156 452,156 452,156 452,156 453,156 453,156 453,155 453,155 453,155 453,155 453,155 453,155 453,154 453,155 453,155 453,155 453,155 454,156 454,156 454,157 454,157 454,158 454,158 454,159 454,159 454,160 454,160 454,161 454,161 454,162 455,163 455,164 455,165 455,166 455,168 455,169 455,171 455,172 455,173 455,173 455,174 455,175 455,176 456,176 456,177 456,177 456,177 456,177 456,177 456,177 456,178 456,178 456,178 456,179 456,179 456,179 457,179 457,179 457,179 457,178 457,177 457,177 457,176 457,175 457,175 457,174 457,174 457,174 457,174 458,174 458,175 458,175 458,175 458,176 458,176 458,177 458,178 458,178 458,179 458,179 458,180 459,181 459,182 459,182 459,183 459,184 459,185 459,187 459,188 459,190 459,191 459,193 459,195 459,196 460,198 460,199 460,200 460,200 460,201 460,204 460,206 460,208 460,211 460,211 460,212 460,212 460,213 461,214 461,215 461,215 461,216 461,215 461,214 461,213 461,212 461,210 461,209 461,207 461,206 461,205 462,204 462,203 462,201 462,200 462,199 462,198 462,197 462,196 462,196 462,195 462,195 462,194 462,194 463,194 463,193 463,192 463,192 463,192 463,192 463,192 463,192 463,192 463,191 463,191 463,190 463,190 464,190 464,189 464,189 464,189 464,189 464,189 464,189 464,190 464,190 464,190 464,191 464,191 464,192 465,192 465,193 465,194 465,195 465,196 465,197 465,198 465,199 465,200 465,201 465,203 465,204 465,205 466,206 466,208 466,209 466,210 466,211 466,213 466,214 466,214 466,216 466,216 466,217 466,218 466,218 467,219 467,220 467,220 467,221 467,221 467,221 467,222 467,222 467,222 467,223 467,223 467,224 467,224 468,224 468,224 468,224 468,224 468,224 468,224 468,223 468,223 468,223 468,222 468,222 468,221 468,221 469,220 469,220 469,219 469,219 469,218 469,218 469,218 469,218 469,218 469,218 469,218 469,219 469,219 470,219 470,220 470,219 470,220 470,220 470,220 470,220 470,220 470,219 470,219 470,218 470,218 470,217 471,216 471,215 471,214 471,213 471,212 471,211 471,210 471,209 471,208 471,207 471,205 471,204 471,204 472,203 472,203 472,202 472,201 472,201 472,200 472,199 472,198 472,198 472,197 472,196 472,196 472,195 473,194 473,193 473,193 473,193 473,193 473,193 473,193 473,193 473,193 473,193 473,193 473,193 473,193 474,193 474,193 474,193 474,193 474,193 474,193 474,193 474,193 474,193 474,193 474,194 474,195 474,195 475,196 475,197 475,198 475,199 475,200 475,201 475,202 475,203 475,204 475,205 475,206 475,207 475,208 476,209 476,210 476,211 476,211 476,212 476,212 476,212 476,213 476,214 476,214 476,215 476,216 476,216 477,217 477,217 477,217 477,217 477,217 477,217 477,216 477,215 477,214 477,214 477,213 477,211 477,210 478,209 478,208 478,207 478,206 478,205 478,204 478,203 478,201 478,200 478,199 478,198 478,198 479,197 479,197 479,197 479,196 479,196 479,196 479,195 479,195 479,195 479,195 479,195 479,195 479,195 480,195 480,195 480,195 480,196 480,196 480,196 480,197 480,197 480,197 480,197 480,197 480,197 480,197 481,198 481,198 481,198 481,199 481,200 481,200 481,201 481,202 481,203 481,204 481,204 481,205 481,206 482,206 482,207 482,207 482,208 482,208 482,208 482,208 482,208 482,209 482,209 482,209 482,208 482,208 483,207 483,207 483,206 483,206 483,205 483,205 483,204 483,204 483,203 483,202 483,202 483,202 483,201 484,201 484,200 484,199 484,199 484,199 484,198 484,198 484,197 484,197 484,197 484,197 484,197 484,197 485,197 485,197 485,197 485,197 485,197 485,197 485,198 485,198 485,198 485,198 485,198 485,198 485,199 486,199 486,199 486,199 486,199 486,200 486,200 486,199 486,199 486,199 486,199 486,198 486,198 486,197 487,197 487,197 487,198 487,199 487,199 487,200 487,201 487,201 487,202 487,203 487,203 487,204 487,205 488,206 488,207 488,208 488,208 488,209 488,210 488,211 488,211 488,212 488,213 488,214 488,214 488,215 489,216 489,217 489,218 489,218 489,219 489,219 489,219 489,220 489,220 489,221 489,221 489,222 489,222 490,223 490,223 490,223 490,224 490,224 490,225 490,225 490,226 490,226 490,227 490,228 490,228 490,229 491,230 491,230 491,230 491,231 491,231 491,231 491,230 491,228 491,227 491,226 491,227 491,227 491,227 492,226 492,225 492,225 492,224 492,223 492,222 492,221 492,219 492,218 492,216 492,215 492,213 492,212 493,210 493,209 493,208 493,206 493,205 493,204 493,203 493,202 493,201 493,200 493,200 493,199 493,198 494,198 494,197 494,197 494,197 494,197 494,197 494,197 494,197 494,197 494,197 494,197 494,197 494,197 495,197 495,197 495,197 495,197 495,196 495,196 495,196 495,196 495,196 495,196 495,197 495,197 495,198 496,199 496,199 496,200 496,200 496,201 496,201 496,202 496,202 496,203 496,203 496,204 496,205 496,205 497,206 497,207 497,208 497,209 497,211 497,214 497,216 497,218 497,221 497,224 497,226 497,227 497,227 498,226 498,225 498,225 498,223 498,222 498,222 498,221 498,221 498,221 498,220 498,220 498,221 499,221 499,222 499,222 499,223 499,223 499,223 499,224 499,224 499,224 499,225 499,225 499,225 499,226 500,226 500,227 500,228 500,228 500,229 500,229 500,229 500,228 500,230 500,232 500,235 500,238 500,240 501,242 501,243 501,245 501,246 501,247 501,248 501,249 501,250 501,250 501,251 501,251 501,252 501,252 502,253 502,253 502,254 502,254 502,254 502,254 502,254 502,255 502,256 502,256 502,256 502,257 502,258 503,259 503,259 503,259 503,258 503,258 503,257 503,257 503,256 503,255 503,254 503,253 503,253 503,252 504,252 504,252 504,252 504,252 504,252 504,252 504,252 504,252 504,252 504,252 504,253 504,253 504,254 505,254 505,254 505,255 505,255 505,255 505,255 505,255 505,256 505,255 505,255 505,254 505,253 505,252 506,251 506,250 506,249 506,248 506,247 506,246 506,245 506,244 506,244 506,243 506,243 506,242 506,241 507,240 507,239 507,238 507,237 507,236 507,235 507,234 507,233 507,233 507,232 507,232 507,231 507,230 508,230 508,230 508,230 508,230 508,230 508,230 508,231 508,231 508,232 508,232 508,233 508,233 508,233 509,233 509,234 509,234 509,235 509,235 509,235 509,235 509,236 509,236 509,237 509,238 509,239 509,240 510,241 510,242 510,243 510,244 510,245 510,246 510,247 510,248 510,249 510,250 510,251 510,252 510,254 511,255 511,256 511,257 511,258 511,259 511,260 511,261 511,262 511,263 511,264 511,264 511,265 511,266 512,266 512,267 512,267 512,268 512,268 512,269 512,270 512,270 512,271 512,271 512,272 512,272 512,273 513,273 513,274 513,274 513,274 513,274 513,275 513,275 513,275 513,275 513,276 513,276 513,276 513,276 514,276 514,276 514,276 514,276 514,276 514,276 514,276 514,276 514,276 514,277 514,277 514,277 514,277 515,276 515,276 515,276 515,277 515,277 515,277 515,277 515,276 515,276 515,276 515,275 515,274 515,273 516,273 516,273 516,271 516,269 516,266 516,265 516,263 516,261 516,260 516,258 516,257 516,257 516,256 517,256 517,255 517,255 517,255 517,254 517,254 517,254 517,254 517,254 517,254 517,254 517,253 517,253 518,253 518,252 518,252 518,251 518,251 518,251 518,250 518,250 518,250 518,250 518,249 518,249 519,248 519,248 519,247 519,247 519,246 519,246 519,246 519,245 519,245 519,245 519,244 519,244 519,244 520,244 520,244 520,244 520,244 520,244 520,244 520,245 520,245 520,245 520,245 520,246 520,246 520,247 521,248 521,249 521,249 521,250 521,251 521,252 521,252 521,253 521,254 521,255 521,256 521,256 521,257 522,258 522,259 522,260 522,261 522,261 522,262 522,263 522,263 522,264 522,263 522,262 522,262 522,261 523,260 523,260 523,259 523,257 523,257 523,256 523,255 523,255 523,255 523,254 523,254 523,254 523,253 524,252 524,252 524,251 524,250 524,249 524,248 524,247 524,246 524,245 524,244 524,244 524,243 524,242 525,242 525,241 525,241 525,241 525,241 525,241 525,240 525,240 525,240 525,240 525,239 525,239 525,238 526,238 526,237 526,236 526,236 526,235 526,235 526,234 526,234 526,233 526,233 526,233 526,233 526,232 527,232 527,232 527,232 527,232 527,232 527,232 527,232 527,232 527,232 527,232 527,233 527,233 527,233 528,234 528,234 528,234 528,234 528,234 528,234 528,234 528,234 528,234 528,234 528,234 528,234 528,234 529,234 529,234 529,235 529,235 529,236 529,236 529,237 529,237 529,238 529,238 529,239 529,239 529,239 530,239 530,240 530,240 530,241 530,241 530,241 530,241 530,242 530,243 530,244 530,245 530,246 530,247 531,248 531,249 531,250 531,251 531,252 531,253 531,254 531,255 531,255 531,255 531,255 531,255 531,255 532,255 532,256 532,256 532,256 532,256 532,256 532,256 532,257 532,257 532,257 532,258 532,259 532,260 533,260 533,261 533,263 533,264 533,265 533,267 533,268 533,269 533,271 533,272 533,272 533,272 533,273 534,273 534,273 534,273 534,273 534,273 534,272 534,271 534,270 534,269 534,268 534,267 534,267 534,266 535,265 535,264 535,264 535,263 535,262 535,262 535,261 535,260 535,259 535,258 535,257 535,256 535,255 536,253 536,252 536,251 536,251 536,250 536,249 536,249 536,248 536,248 536,247 536,247 536,246 536,246 537,245 537,245 537,245 537,245 537,245 537,245 537,245 537,245 537,245 537,245 537,245 537,245 537,245 538,245 538,245 538,245 538,245 538,245 538,245 538,245 538,245 538,245 538,245 538,245 538,245 539,245 539,245 539,246 539,246 539,246 539,246 539,247 539,247 539,247 539,248 539,248 539,249 539,249 540,250 540,250 540,251 540,251 540,251 540,251 540,252 540,252 540,252 540,252 540,252 540,252 540,252 541,252 541,252 541,253 541,253 541,253 541,253 541,253 541,253 541,254 541,254 541,254 541,254 541,255 542,255 542,255 542,255 542,255 542,256 542,256 542,256 542,256 542,256 542,256 542,256 542,255 542,255 543,255 543,255 543,255 543,254 543,254 543,254 543,254 543,254 543,254 543,255 543,255 543,255 543,255 544,255 544,256 544,256 544,256 544,256 544,257 544,257 544,258 544,258 544,258 544,259 544,259 544,259 545,260 545,260 545,261 545,262 545,262 545,263 545,263 545,264 545,264 545,265 545,266 545,266 545,267 546,268 546,268 546,269 546,269 546,270 546,270 546,270 546,270 546,270 546,271 546,270 546,270 546,270 547,270 547,270 547,270 547,270 547,271 547,271 547,271 547,272 547,272 547,272 547,273 547,273 547,274 548,274 548,275 548,275 548,275 548,275 548,276 548,276 548,276 548,277 548,277 548,278 548,278 548,279 549,279 549,280 549,280 549,280 549,281 549,281 549,281 549,281 549,282 549,282 549,282 549,282 549,281 550,281 550,281 550,281 550,281 550,281 550,281 550,281 550,281 550,281 550,280 550,280 550,280 550,280 551,280 551,280 551,280 551,280 551,281 551,281 551,282 551,283 551,283 551,283 551,284 551,284 551,284 552,285 552,286 552,287 552,287 552,288 552,289 552,289 552,290 552,290 552,291 552,291 552,292 552,292 553,293 553,293 553,293 553,293 553,294 553,294 553,294 553,293 553,293 553,293 553,293 553,292 553,291 554,291 554,290 554,289 554,288 554,287 554,286 554,285 554,285 554,284 554,283 554,283 554,283 554,283 555,282 555,283 555,283 555,283 555,284 555,285 555,285 555,286 555,287 555,287 555,288 555,288 555,289 556,289 556,290 556,290 556,290 556,290 556,290 556,290 556,290 556,289 556,289 556,288 556,288 556,287 557,287 557,286 557,286 557,286 557,285 557,285 557,285 557,284 557,284 557,284 557,284 557,284 557,283 558,283 558,283 558,283 558,283 558,282 558,282 558,282 558,282 558,281 558,281 558,281 558,281 559,281 559,280 559,280 559,280 559,280 559,280 559,280 559,280 559,280 559,280 559,280 559,280 559,280 560,280 560,280 560,280 560,280 560,280 560,280 560,281 560,281 560,281 560,281 560,281 560,281 560,281 561,281 561,281 561,281 561,281 561,281 561,281 561,281 561,281 561,281 561,281 561,282 561,282 561,282 562,282 562,282 562,282 562,282 562,283 562,283 562,283 562,283 562,283 562,283 562,283 562,283 562,283 563,283 563,283 563,283 563,284 563,284 563,284 563,284 563,284 563,285 563,285 563,285 563,285 563,285 564,285 564,286 564,286 564,286 564,286 564,287 564,287 564,287 564,288 564,288 564,288 564,289 564,289 565,289 565,289 565,289 565,288 565,288 565,288 565,288 565,288 565,289 565,289 565,289 565,289 565,289 566,290 566,290 566,290 566,290 566,290 566,291 566,291 566,291 566,292 566,292 566,292 566,292 566,293 567,293 567,293 567,293 567,294 567,294 567,294 567,294 567,294 567,294 567,294 567,295 567,295 567,295 568,295 568,296 568,296 568,296 568,296 568,297 568,297 568,297 568,297 568,297 568,298 568,298 568,298 569,298 569,298 569,298 569,298 569,298 569,298 569,298 569,298 569,299 569,299 569,299 569,300 569,300 570,301 570,302 570,302 570,302 570,303 570,303 570,303 570,303 570,304 570,304 570,304 570,304 570,304 571,304 571,304 571,305 571,305 571,305 571,305 571,305 571,305 571,305 571,305 571,305 571,305 571,305 572,305 572,305 572,305 572,306 572,306 572,306 572,307 572,307 572,307 572,308 572,307 572,307 572,306 573,306 573,306 573,306 573,306 573,306 573,306 573,306 573,306 573,306 573,307 573,307 573,307 573,307 574,307 574,307 574,307 574,307 574,307 574,307 574,307 574,307 574,307 574,308 574,308 574,308 574,308 575,308 575,308 575,308 575,308 575,308 575,308 575,308 575,308 575,308 575,308 575,308 575,308 575,308 576,308 576,308 576,308 576,308 576,308 576,308 576,308 576,308 576,308 576,308 576,308 576,308 576,308 577,308 577,308 577,308 577,308 577,308 577,308 577,308 577,308 577,308 577,308 577,308 577,308 577,308 578,308 578,308 578,308 578,308 578,308 578,308 578,308 578,308 578,308 578,308 578,308 578,308 579,308 579,308 579,308 579,308 579,309 579,309 579,309 579,309 579,309 579,309 579,309 579,309 579,309 580,308 580,308 580,308 580,308 580,308 580,308 580,308 580,308 580,308 580,308 580,308 580,308 580,308 581,308 581,308 581,308 581,308 581,308 581,308 581,308 581,308 581,308 581,308 581,308 581,308 581,308 582,308 582,308 582,308 582,308 582,308 582,308 582,308 582,308 582,308 582,308 582,308 582,308 582,308 583,308 583,308 583,308 583,308 583,308 583,308 583,308 583,308 583,308 583,307 583,307 583,307 583,307 584,307 584,307 584,307 584,307 584,307 584,307 584,307 584,307 584,307 584,307 584,306 584,306 584,306 585,306 585,306 585,306 585,306 585,306 585,306 585,306 585,306 585,306 585,306 585,306 585,306 585,306 586,306 586,306 586,306 586,306 586,306 586,305 586,306 586,305 586,305 586,305 586,305 586,305 586,305 587,305 587,305 587,305 587,305 587,305 587,305 587,305 587,305 587,305 587,305 587,305 587,305 587,304 588,304 588,304 588,304 588,304 588,304 588,304 588,304 588,304 588,304 588,304 588,303 588,303 588,303 589,303 589,303 589,303 589,302 589,302 589,302 589,302 589,302 589,302 589,302 589,302 589,301 589,301 590,301 590,301 590,301 590,301 590,301 590,300 590,300 590,300 590,300 590,299 590,299 590,299 590,299 591,299 591,299 591,299 591,298 591,298 591,298 591,298 591,298 591,298 591,298 591,297 591,297 591,297 592,297 592,297 592,297 592,297 592,297 592,296 592,296 592,296 592,296 592,296 592,296 592,296 592,295 593,295 593,295 593,295 593,295 593,295 593,295 593,295 593,294 593,294 593,294 593,294 593,294 593,294 594,294 594,294 594,293 594,293 594,293 594,293 594,293 594,293 594,293 594,293 594,292 594,292 594,292 595,292 595,292 595,292 595,292 595,292 595,292 595,291 595,291 595,291 595,291 595,291 595,291 595,291 596,291 596,291 596,291 596,291 596,291 596,291 596,291 596,291 596,291 596,291 596,291 596,291 596,291 597,291 597,291 597,291 597,291 597,291 597,291 597,291 597,291 597,290 597,290 597,290 597,290 597,290 598,290 598,290 598,291 598,291 598,291 598,291 598,291 598,291 598,291 598,291 598,291 598,291 599,291 599,291 599,291 599,291 599,291 599,291 599,291 599,291 599,291 599,291 599,291 599,291 599,291 600,291 600,291 600,291 600,291 600,291 600,291 600,291 600,291 600,291 600,291 600,290 600,290 600,290 601,290 601,290 601,290 601,290 601,290 601,290 601,290 601,290 601,290 601,290 601,290 601,290 601,291 602,291 602,291 602,291 602,291 602,291 602,291 602,291 602,291 602,291 602,292 602,292 602,292 602,292 603,292 603,292 603,292 603,293 603,293 603,293 603,293 603,293 603,293 603,293 603,293 603,293 603,293 604,293 604,293 604,293 604,293 604,293 604,293 604,293 604,293 604,293 604,293 604,293 604,293 604,293 605,293 605,293 605,294 605,294 605,294 605,294 605,294 605,294 605,294 605,295 605,295 605,295 605,295 606,295 606,295 606,296 606,296 606,296 606,296 606,297 606,297 606,297 606,297 606,297 606,298 606,298 607,298 607,298 607,299 607,299 607,299 607,299 607,299 607,300 607,300 607,300 607,300 607,301 607,301 608,301 608,301 608,301 608,302 608,302 608,302 608,302 608,302 608,303 608,303 608,303 608,303 608,303 609,304 609,304 609,304 609,304 609,304 609,304 609,304 609,305 609,305 609,305 609,305 609,305 609,305 610,306 610,306 610,306 610,306 610,306 610,306 610,307 610,307 610,307 610,307 610,307 610,307 610,307 611,307 611,308 611,308 611,308 611,308 611,308 611,308 611,309 611,309 611,309 611,309 611,309 611,309 612,309 612,310 612,310 612,310 612,310 612,310 612,310 612,310 612,311 612,311 612,311 612,311 612,311 613,311 613,311 613,311 613,311 613,311 613,311 613,311 613,311 613,311 613,311 613,311 613,312 613,312 614,312 614,312 614,312 614,313 614,313 614,313 614,314 614,314 614,314 614,314 614,314 614,315 614,315 615,315 615,315 615,315 615,315 615,315 615,316 615,316 615,316 615,316 615,316 615,316 615,316 615,316 616,315 616,315 616,315 616,315 616,315 616,314 616,314 616,314 616,313 616,313 616,313 616,312 616,312 617,312 617,312 617,312 617,312 617,313 617,313 617,313 617,313 617,313 617,313 617,313 617,313 617,313 618,313 618,314 618,314 618,314 618,314 618,314 618,314 618,314 618,314 618,314 618,314 618,314 619,314 619,314 619,315 619,315 619,315 619,315 619,315 619,315 619,315 619,316 619,316 619,316 619,316 620,316 620,316 620,316 620,317 620,317 620,317 620,317 620,318 620,318 620,318 620,318 620,318 620,318 621,318 621,318 621,318 621,317 621,317 621,317 621,317 621,317 621,317 621,316 621,316 621,316 621,316 622,317 622,317 622,317 622,317 622,317 622,318 622,318 622,318 622,318 622,318 622,319 622,319 622,319 623,319 623,319 623,320 623,320 623,320 623,320 623,320 623,320 623,320 623,321 623,321 623,321 623,321 624,322 624,322 624,322 624,322 624,323 624,323 624,323 624,323 624,323 624,323 624,323 624,322 624,322 625,322 625,322 625,321 625,321 625,321 625,320 625,320 625,320 625,320 625,320 625,319 625,319 625,319 626,319 626,319 626,319 626,318 626,318 626,318 626,318 626,318 626,318 626,318 626,318 626,318 626,318 627,318 627,318 627,318 627,318 627,318 627,318 627,318 627,318 627,319 627,319 627,319 627,319 627,320 628,320 628,320 628,320 628,320 628,321 628,321 628,321 628,321 628,321 628,321 628,321 628,321 628,321 629,321 629,321 629,321 629,320 629,321 629,321 629,321 629,321 629,321 629,321 629,321 629,321 629,321 630,321 630,321 630,321 630,321 630,321 630,321 630,321 630,321 630,321 630,321 630,321 630,321 630,321 631,321 631,321 631,321 631,321 631,321 631,321 631,321 631,321 631,321 631,321 631,321 631,321 631,321 632,321 632,321 632,321 632,321 632,321 632,322 632,322 632,322 632,322 632,322 632,322 632,322 632,323 633,323 633,323 633,323 633,323 633,323 633,324 633,324 633,324 633,324 633,324 633,324 633,325 633,325 634,325 634,325 634,326 634,326 634,326 634,326 634,326 634,326 634,326 634,327 634,327 634,327 634,328 635,328 635,329 635,329 635,330 635,331 635,332 635,333 635,335 635,336 635,336 635,336 635,336 635,336 636,335 636,335 636,335 636,335 636,335 636,335 636,335 636,335 636,335 636,335 636,335 636,335 636,335 637,335 637,335 637,335 637,335 637,335 637,335 637,335 637,334 637,334 637,334 637,334 637,334 637,333 638,333 638,333 638,333 638,333 638,334 638,334 638,334 638,334 638,334 638,335 638,335 638,335 639,335 639,335 639,335 639,335 639,335 639,335 639,335 639,335 639,334 639,334 639,334 639,334 639,334 640,334 640,333 640,333 640,333 640,333 640,333 640,333 640,333 640,333 640,334 640,334 640,334 640,334 641,334 641,334 641,334 641,334 641,334 641,334 641,334 641,334 641,334 641,334 641,334 641,334 641,335 642,335 642,335 642,335 642,335 642,335 642,335 642,335 642,335 642,335 642,335 642,335 642,335 642,335 643,335 643,335 643,335 643,335 643,335 643,335 643,335 643,335 643,335 643,335 643,335 643,335 643,335 644,335 644,335 644,335 644,335 644,335 644,335 644,334 644,334 644,334 644,334 644,334 644,334 644,334 645,334 645,334 645,334 645,334 645,334 645,334 645,334 645,334 645,334 645,334 645,334 645,334 645,334 646,334 646,334 646,334 646,334 646,334 646,333 646,333 646,333 646,333 646,333 646,333 646,333 646,333 647,333 647,333 647,333 647,333 647,333 647,333 647,333 647,333 647,333 647,333 647,333 647,333 647,333 648,334 648,334 648,334 648,334 648,334 648,334 648,334 648,334 648,334 648,334 648,334 648,335 648,335 649,335 649,335 649,335 649,335 649,335 649,335 649,335 649,335 649,335 649,335 649,335 649,335 649,334 650,334 650,334 650,334 650,333 650,333 650,333 650,333 650,332 650,332 650,332 650,331 650,331 650,330 651,330 651,330 651,329 651,329 651,329 651,328 651,328 651,328 651,328 651,328 651,328 651,328 651,327 652,327 652,327 652,327 652,326 652,326 652,326 652,326 652,326 652,326 652,326 652,326 652,325 652,325 653,325 653,325 653,325 653,325 653,325 653,325 653,325 653,325 653,324 653,324 653,324 653,324 653,324 654,324 654,324 654,323 654,323 654,323 654,323 654,323 654,323 654,323 654,323 654,323 654,323 654,323 655,323 655,323 655,322 655,322 655,322 655,322 655,322 655,321 655,321 655,321 655,321 655,321 655,321 656,321 656,321 656,321 656,321 656,321 656,321 656,321 656,321 656,320 656,320 656,320 656,320 656,320 657,320 657,320 657,320 657,319 657,319 657,319 657,319 657,319 657,319 657,319 657,319 657,319 657,319 658,319 658,319 658,319 658,319 658,319 658,319 658,319 658,319 658,319 658,319 658,319 658,319 659,319 659,318 659,318 659,318 659,318 659,318 659,318 659,318 659,318 659,318 659,318 659,318 659,319 660,319 660,318 660,318 660,318 660,318 660,318 660,318 660,318 660,318 660,319 660,319 660,318 660,318 661,318 661,318 661,318 661,318 661,318 661,318 661,318 661,318 661,318 661,318 661,318 661,318 661,319 662,318 662,318 662,318 662,318 662,318 662,319 662,319 662,319 662,319 662,319 662,319 662,318 662,319 663,319 663,319 663,319 663,319 663,319 663,319 663,319 663,319 663,319 663,319 663,319 663,319 663,319 664,320 664,320 664,320 664,320 664,320 664,319 664,319 664,319 664,319 664,319 664,319 664,319 664,319 665,319 665,320 665,320 665,320 665,320 665,320 665,320 665,320 665,320 665,320 665,320 665,320 665,320 666,320 666,320 666,320 666,320 666,320 666,320 666,320 666,320 666,320 666,320 666,320 666,320 666,320 667,320 667,320 667,320 667,320 667,320 667,320 667,320 667,319 667,319 667,319 667,319 667,319 667,319 668,319 668,319 668,319 668,319 668,319 668,319 668,319 668,319 668,319 668,318 668,318 668,318 668,318 669,318 669,318 669,319 669,319 669,319 669,319 669,319 669,319 669,319 669,319 669,319 669,319 669,319 670,319 670,319 670,319 670,319 670,319 670,319 670,320 670,320 670,320 670,320 670,320 670,320 670,320 671,320 671,320 671,320 671,320 671,320 671,320 671,320 671,320 671,320 671,320 671,320 671,320 671,320 672,320 672,320 672,320 672,320 672,320 672,320 672,320 672,320 672,320 672,320 672,320 672,320 672,320 673,320 673,320 673,320 673,320 673,320 673,320 673,320 673,320 673,320 673,320 673,320 673,320 673,320 674,320 674,320 674,320 674,320 674,320 674,320 674,320 674,320 674,320 674,320 674,320 674,320 674,320 675,320 675,320 675,320 675,320 675,320 675,320 675,320 675,320 675,320 675,320 675,320 675,320 675,320 676,320 676,320 676,320 676,320 676,320 676,320 676,320 676,320 676,320 676,320 676,320 676,320 676,320 677,320 677,320 677,320 677,320 677,320 677,321 677,321 677,321 677,321 677,321 677,321 677,321 677,321 678,321 678,321 678,321 678,321 678,321 678,321 678,321 678,321 678,321 678,321 678,321 678,321 679,321 679,321 679,321 679,321 679,321 679,321 679,321 679,321 679,321 679,321 679,321 679,321 679,321 680,322 680,322 680,322 680,322 680,322 680,322 680,322 680,322 680,322 680,322 680,322 680,322 680,322 681,322 681,322 681,322 681,323 681,323 681,323 681,323 681,323 681,323 681,323 681,323 681,323 681,323 682,323 682,323 682,323 682,323 682,323 682,323 682,323 682,323 682,323 682,324 682,324 682,324 682,324 683,324 683,324 683,324 683,324 683,324 683,324 683,324 683,324 683,324 683,324 683,324 683,324 683,324 684,324 684,324 684,325 684,325 684,325 684,325 684,325 684,325 684,325 684,325 684,325 684,325 684,325 685,325 685,325 685,325 685,324 685,324 685,324 685,324 685,324 685,324 685,324 685,324 685,324 685,324 686,324 686,324 686,324 686,323 686,323 686,323 686,323 686,323 686,323 686,323 686,323 686,323 686,323 687,323 687,323 687,323 687,323 687,322 687,322 687,322 687,322 687,322 687,322 687,322 687,322 687,322 688,322 688,322 688,322 688,322 688,322 688,322 688,322 688,321 688,321 688,321 688,321 688,321 688,321 689,321 689,321 689,321 689,321 689,321 689,321 689,321 689,321 689,321 689,321 689,321 689,321 689,321 690,321 690,321 690,321 690,321 690,321 690,321 690,321 690,321 690,321 690,321 690,321 690,321 690,321 691,321 691,320 691,320 691,320 691,321 691,321 691,321 691,321 691,321 691,321 691,321 691,321 691,321 692,321 692,321 692,321 692,321 692,321 692,321 692,321 692,321 692,321 692,321 692,321 692,321 692,321 693,321 693,321 693,321 693,321 693,321 693,321 693,321 693,321 693,321 693,321 693,321 693,321 693,321 694,321 694,322 694,322 694,322 694,322 694,322 694,322 694,322 694,322 694,322 694,322 694,322 694,322 695,322 695,323 695,323 695,323 695,322 695,322 695,322 695,322 695,322 695,322 695,322 695,322 695,322 696,322 696,322 696,322 696,322 696,322 696,322 696,322 696,322 696,322 696,322 696,322 696,323 696,322 697,322 697,322 697,322 697,322 697,322 697,322 697,322 697,322 697,322 697,322 697,322 697,322 697,322 698,322 698,321 698,321 698,321 698,321 698,321 698,321 698,321 698,321 698,320 698,320 698,320 699,320 699,320 699,320 699,320 699,320 699,320 699,320 699,320 699,320 699,319 699,319 699,319 699,319 700,319 700,319 700,319 700,319 700,319 700,319 700,318 700,318 700,318 700,318 700,318 700,318 700,318 701,318 701,317 701,317 701,317 701,317 701,317 701,317 701,317 701,316 701,316 701,316 701,316 701,316 702,315 702,315 702,315 702,314 702,314 702,314 702,314 702,313 702,313 702,313 702,313 702,312 702,312 703,311 703,311 703,310 703,310 703,310 703,309 703,309 703,309 703,308 703,308 703,307 703,307 703,307 704,306 704,306 704,306 704,305 704,305 704,305 704,304 704,304 704,304 704,304 704,303 704,303 704,303 705,302 705,302 705,302 705,302 705,302 705,301 705,301 705,301 705,301 705,301 705,300 705,300 705,300 706,300 706,300 706,300 706,300 706,300 706,299 706,299 706,299 706,299 706,299 706,300 706,300 706,300 707,301 707,301 707,301 707,301 707,301 707,301 707,301 707,301 707,301 707,301 707,301 707,301 707,301 708,301 708,301 708,301 708,300 708,300 708,300 708,300 708,299 708,299 708,299 708,299 708,300 708,300 709,300 709,300 709,300 709,300 709,300 709,300 709,300 709,299 709,299 709,299 709,299 709,299 709,299 710,299 710,299 710,299 710,299 710,299 710,299 710,299 710,299 710,299 710,299 710,299 710,299 710,299 711,299 711,299 711,299 711,299 711,299 711,299 711,299 711,299 711,299 711,299 711,299 711,299 711,298 712,298 712,298 712,298 712,298 712,298 712,298 712,298 712,298 712,298 712,298 712,298 712,298 712,298 713,298 713,298 713,298 713,298 713,298 713,299 713,299 713,299 713,300 713,300 713,300 713,300 713,300 714,300 714,300 714,300 714,300 714,300 714,300 714,300 714,300 714,300 714,300 714,300 714,299 714,299 715,299 715,299 715,299 715,299 715,299 715,299 715,299 715,299 715,299 715,299 715,299 715,299 715,299 716,300 716,300 716,300 716,300 716,300 716,300 716,300 716,300 716,300 716,300 716,300 716,300 716,300 717,300 717,300 717,301 717,301 717,301 717,301 717,301 717,301 717,301 717,301 717,301 717,301 717,302 718,302 718,302 718,302 718,302 718,302 718,302 718,302 718,302 718,302 718,302 718,302 718,302 719,302 719,302 719,302 719,302 719,303 719,303 719,303 719,303 719,303 719,303 719,303 719,303 719,303 720,304 720,304 720,304 720,304 720,304 720,304 720,304 720,304 720,304 720,304 720,304 720,304 720,304 721,304 721,304 721,304 721,304 721,304 721,304 721,304 721,304 721,304 721,304 721,304 721,304 721,304 722,304 722,304 722,303 722,303 722,303 722,303 722,303 722,303 722,303 722,303 722,303 722,303 722,303 723,303 723,303 723,303 723,303 723,303 723,303 723,303 723,304 723,304 723,304 723,304 723,304 723,304 724,304 724,304 724,304 724,305 724,305 724,305 724,305 724,305 724,305 724,305 724,306 724,306 724,306 725,306 725,306 725,306 725,306 725,307 725,307 725,307 725,307 725,307 725,307 725,308 725,308 725,308 726,308 726,308 726,308 726,308 726,308 726,308 726,308 726,308 726,309 726,309 726,309 726,309 726,309 727,310 727,310 727,310 727,310 727,310 727,310 727,310 727,310 727,310 727,310 727,310 727,311 727,311 728,311 728,311 728,310 728,311 728,311 728,311 728,311 728,311 728,311 728,311 728,311 728,311 728,311 729,312 729,312 729,312 729,312 729,312 729,312 729,312 729,312 729,312 729,312 729,313 729,313 729,313 730,313 730,313 730,313 730,313 730,313 730,313 730,313 730,313 730,313 730,313 730,313 730,313 730,313 731,313 731,313 731,313 731,313 731,313 731,313 731,313 731,313 731,313 731,313 731,313 731,314 731,314 732,314 732,314 732,314 732,314 732,314 732,315 732,315 732,315 732,315 732,315 732,316 732,316 732,316 733,316 733,317 733,317 733,317 733,317 733,317 733,317 733,317 733,317 733,318 733,318 733,317 733,317 734,317 734,317 734,317 734,317 734,317 734,317 734,317 734,317 734,317 734,317 734,317 734,317 734,317 735,317 735,317 735,317 735,317 735,318 735,318 735,318 735,318 735,318 735,318 735,318 735,318 735,318 736,319 736,319 736,319 736,319 736,319 736,319 736,320 736,320 736,320 736,320 736,321 " vector-effect="non-scaling-stroke"></polyline>
</g></svg>