<?xml version="1.0" encoding="UTF-8" standalone="no"?><svg width="282.222mm" height="141.111mm" xmlns="http://www.w3.org/2000/svg" xmlns:xlink="http://www.w3.org/1999/xlink"  version="1.2" baseProfile="tiny"><g fill="none" stroke="#ff0000" stroke-linecap="round" stroke-linejoin="round" stroke-opacity="1" stroke-width="1.5" transform="matrix(1,0,0,1,0,0)">
<polyline fill="none" points="27,340 27,340 27,340 27,340 27,340 27,340 27,340 27,340 28,340 28,340 28,340 28,340 28,340 28,340 28,340 28,340 28,340 28,340 28,340 28,340 28,340 29,340 29,340 29,339 29,339 29,339 29,339 29,339 29,339 29,339 29,339 29,339 29,339 29,339 30,339 30,339 30,339 30,339 30,339 30,339 30,339 30,339 30,339 30,339 30,339 30,339 30,339 31,339 31,339 31,339 31,339 31,339 31,339 31,339 31,339 31,339 31,338 31,338 31,338 31,338 32,338 32,338 32,338 32,338 32,337 32,337 32,337 32,337 32,338 32,338 32,338 32,338 32,338 33,338 33,338 33,338 33,338 33,338 33,338 33,338 33,338 33,338 33,338 33,338 33,338 33,338 34,338 34,337 34,337 34,337 34,337 34,337 34,337 34,337 34,337 34,337 34,337 34,337 34,337 35,337 35,337 35,337 35,337 35,336 35,336 35,336 35,336 35,336 35,336 35,336 35,336 35,336 36,336 36,336 36,335 36,335 36,335 36,335 36,335 36,335 36,335 36,335 36,335 36,335 37,335 37,335 37,335 37,335 37,335 37,335 37,335 37,335 37,335 37,334 37,334 37,334 37,334 38,334 38,334 38,334 38,334 38,334 38,334 38,334 38,334 38,334 38,334 38,334 38,334 38,334 39,334 39,334 39,334 39,334 39,333 39,333 39,333 39,333 39,333 39,333 39,333 39,333 39,333 40,333 40,333 40,333 40,333 40,333 40,333 40,333 40,333 40,333 40,333 40,333 40,333 40,333 41,333 41,333 41,333 41,333 41,333 41,333 41,332 41,332 41,332 41,332 41,332 41,332 41,332 42,332 42,332 42,332 42,332 42,332 42,331 42,331 42,331 42,331 42,331 42,331 42,331 42,331 43,331 43,331 43,331 43,331 43,331 43,331 43,331 43,331 43,330 43,330 43,330 43,330 43,330 44,330 44,330 44,330 44,330 44,330 44,330 44,330 44,330 44,330 44,330 44,330 44,330 44,330 45,330 45,330 45,329 45,329 45,329 45,329 45,329 45,329 45,329 45,329 45,329 45,329 45,329 46,329 46,329 46,329 46,328 46,328 46,328 46,328 46,327 46,327 46,327 46,327 46,327 46,327 47,327 47,327 47,327 47,327 47,327 47,327 47,327 47,327 47,327 47,327 47,327 47,328 47,328 48,328 48,328 48,328 48,327 48,327 48,327 48,327 48,327 48,327 48,327 48,327 48,327 48,327 49,327 49,326 49,326 49,326 49,326 49,326 49,326 49,326 49,327 49,326 49,326 49,326 49,326 50,326 50,326 50,326 50,325 50,325 50,325 50,324 50,324 50,324 50,324 50,324 50,324 50,324 51,324 51,324 51,324 51,324 51,324 51,325 51,325 51,325 51,325 51,325 51,325 51,325 51,325 52,325 52,325 52,325 52,325 52,325 52,324 52,324 52,324 52,324 52,324 52,324 52,324 52,324 53,324 53,324 53,324 53,324 53,324 53,324 53,324 53,324 53,324 53,324 53,324 53,324 53,324 54,324 54,324 54,324 54,324 54,324 54,324 54,324 54,324 54,324 54,324 54,324 54,323 54,323 55,323 55,323 55,323 55,323 55,323 55,323 55,323 55,323 55,323 55,323 55,323 55,323 56,323 56,323 56,323 56,323 56,323 56,322 56,322 56,322 56,322 56,322 56,322 56,322 56,322 57,322 57,322 57,322 57,322 57,322 57,322 57,322 57,322 57,321 57,321 57,321 57,321 57,321 58,321 58,320 58,320 58,320 58,320 58,320 58,320 58,320 58,320 58,320 58,319 58,319 58,319 59,319 59,319 59,318 59,318 59,318 59,318 59,317 59,317 59,317 59,317 59,316 59,316 59,316 60,316 60,316 60,316 60,315 60,315 60,315 60,315 60,315 60,315 60,315 60,314 60,314 60,314 61,314 61,314 61,313 61,313 61,313 61,313 61,313 61,313 61,313 61,312 61,312 61,312 61,312 62,312 62,311 62,311 62,311 62,311 62,311 62,311 62,311 62,310 62,310 62,310 62,310 62,310 63,310 63,310 63,310 63,310 63,310 63,310 63,310 63,310 63,309 63,309 63,309 63,309 63,309 64,309 64,309 64,309 64,309 64,309 64,309 64,310 64,310 64,310 64,310 64,310 64,311 64,311 65,311 65,311 65,311 65,311 65,311 65,312 65,312 65,312 65,312 65,312 65,312 65,313 65,313 66,313 66,313 66,313 66,313 66,314 66,314 66,314 66,314 66,314 66,314 66,314 66,314 66,314 67,314 67,314 67,314 67,314 67,314 67,314 67,314 67,314 67,314 67,314 67,314 67,314 67,314 68,314 68,314 68,314 68,314 68,314 68,314 68,314 68,314 68,314 68,314 68,314 68,313 68,313 69,313 69,313 69,313 69,313 69,313 69,313 69,313 69,313 69,313 69,312 69,312 69,312 69,312 70,313 70,313 70,313 70,312 70,312 70,312 70,312 70,312 70,312 70,311 70,311 70,311 70,311 71,311 71,311 71,310 71,310 71,310 71,310 71,310 71,309 71,309 71,309 71,309 71,309 71,308 72,308 72,308 72,308 72,308 72,308 72,308 72,308 72,307 72,307 72,307 72,307 72,308 72,308 73,308 73,307 73,307 73,307 73,307 73,308 73,307 73,307 73,307 73,307 73,307 73,307 73,307 74,307 74,307 74,307 74,307 74,307 74,307 74,307 74,307 74,307 74,307 74,306 74,306 75,306 75,306 75,306 75,306 75,306 75,306 75,306 75,306 75,306 75,306 75,306 75,306 75,306 76,306 76,306 76,306 76,306 76,306 76,306 76,306 76,306 76,306 76,307 76,307 76,307 76,307 77,307 77,307 77,307 77,308 77,308 77,308 77,307 77,307 77,307 77,307 77,307 77,307 77,307 78,307 78,307 78,307 78,307 78,307 78,307 78,307 78,306 78,306 78,306 78,306 78,306 78,306 79,306 79,306 79,306 79,305 79,305 79,305 79,305 79,305 79,304 79,304 79,304 79,304 79,304 80,304 80,304 80,304 80,303 80,303 80,303 80,303 80,302 80,302 80,302 80,302 80,302 80,302 81,302 81,302 81,302 81,302 81,302 81,302 81,302 81,302 81,302 81,302 81,301 81,301 81,301 82,301 82,301 82,301 82,301 82,301 82,301 82,301 82,301 82,301 82,301 82,301 82,301 82,301 83,301 83,300 83,300 83,300 83,300 83,299 83,299 83,299 83,299 83,299 83,299 83,299 83,299 84,298 84,298 84,298 84,298 84,298 84,298 84,298 84,298 84,298 84,298 84,298 84,298 84,298 85,297 85,297 85,297 85,297 85,297 85,296 85,296 85,296 85,296 85,296 85,296 85,295 85,295 86,295 86,295 86,295 86,295 86,294 86,294 86,294 86,294 86,294 86,294 86,294 86,294 86,294 87,294 87,294 87,294 87,294 87,293 87,293 87,293 87,293 87,292 87,292 87,292 87,292 87,292 88,291 88,291 88,291 88,291 88,290 88,290 88,290 88,290 88,290 88,290 88,290 88,290 88,289 89,289 89,289 89,289 89,289 89,289 89,289 89,289 89,289 89,288 89,288 89,288 89,288 89,287 90,287 90,287 90,287 90,287 90,287 90,287 90,287 90,286 90,286 90,286 90,286 90,286 90,286 91,286 91,285 91,285 91,285 91,285 91,285 91,285 91,285 91,285 91,284 91,284 91,284 91,284 92,284 92,284 92,283 92,283 92,283 92,283 92,283 92,283 92,283 92,283 92,283 92,283 92,282 93,282 93,282 93,282 93,282 93,281 93,281 93,281 93,281 93,281 93,280 93,280 93,280 94,280 94,280 94,279 94,279 94,279 94,279 94,279 94,279 94,279 94,278 94,278 94,278 94,278 95,278 95,277 95,277 95,277 95,277 95,277 95,276 95,276 95,276 95,276 95,276 95,275 95,275 96,275 96,275 96,275 96,274 96,274 96,274 96,273 96,273 96,273 96,273 96,272 96,272 96,272 97,271 97,271 97,271 97,271 97,271 97,271 97,270 97,270 97,270 97,270 97,270 97,270 97,269 98,269 98,269 98,269 98,268 98,268 98,267 98,267 98,266 98,266 98,264 98,262 98,261 98,260 99,259 99,259 99,259 99,258 99,257 99,257 99,256 99,255 99,255 99,254 99,253 99,253 99,252 100,252 100,252 100,251 100,251 100,251 100,250 100,250 100,250 100,249 100,249 100,249 100,249 100,248 101,248 101,248 101,248 101,248 101,248 101,247 101,247 101,247 101,247 101,247 101,247 101,246 101,246 102,246 102,246 102,245 102,245 102,245 102,245 102,244 102,244 102,244 102,243 102,243 102,243 102,244 103,244 103,244 103,243 103,242 103,242 103,242 103,241 103,240 103,240 103,239 103,238 103,238 103,237 104,236 104,235 104,235 104,234 104,233 104,233 104,232 104,232 104,231 104,231 104,231 104,231 104,231 105,230 105,230 105,230 105,230 105,229 105,229 105,229 105,228 105,228 105,228 105,227 105,227 105,227 106,227 106,226 106,226 106,226 106,226 106,225 106,225 106,225 106,225 106,225 106,224 106,224 106,224 107,224 107,224 107,223 107,223 107,223 107,223 107,222 107,222 107,222 107,222 107,221 107,221 107,220 108,220 108,219 108,219 108,219 108,219 108,218 108,219 108,219 108,220 108,220 108,222 108,223 108,224 109,224 109,225 109,225 109,225 109,225 109,225 109,224 109,224 109,223 109,223 109,223 109,223 109,223 110,223 110,222 110,222 110,221 110,221 110,220 110,219 110,218 110,217 110,216 110,215 110,214 110,213 111,214 111,214 111,215 111,215 111,215 111,215 111,215 111,215 111,215 111,215 111,215 111,215 111,215 112,215 112,215 112,215 112,216 112,219 112,220 112,220 112,222 112,223 112,224 112,225 112,226 113,227 113,228 113,229 113,230 113,232 113,233 113,234 113,233 113,232 113,232 113,231 113,230 113,229 114,228 114,227 114,226 114,224 114,223 114,222 114,222 114,221 114,220 114,220 114,220 114,220 114,221 115,221 115,221 115,221 115,221 115,221 115,221 115,221 115,221 115,221 115,221 115,221 115,222 115,222 116,221 116,221 116,221 116,221 116,221 116,221 116,221 116,220 116,220 116,219 116,219 116,218 116,218 117,217 117,216 117,215 117,215 117,214 117,213 117,213 117,212 117,211 117,211 117,210 117,209 117,208 118,208 118,207 118,207 118,207 118,207 118,207 118,207 118,207 118,208 118,208 118,208 118,208 118,208 119,208 119,207 119,207 119,207 119,207 119,209 119,209 119,210 119,211 119,212 119,213 119,214 119,214 120,214 120,215 120,215 120,215 120,214 120,214 120,214 120,213 120,213 120,213 120,212 120,212 120,212 121,212 121,212 121,211 121,211 121,211 121,212 121,212 121,213 121,213 121,213 121,213 121,214 121,215 122,216 122,217 122,218 122,217 122,217 122,217 122,217 122,217 122,217 122,217 122,217 122,216 122,215 123,214 123,214 123,213 123,212 123,211 123,211 123,210 123,210 123,210 123,210 123,209 123,209 123,209 124,209 124,209 124,209 124,209 124,209 124,209 124,209 124,209 124,209 124,209 124,209 124,209 124,208 125,208 125,207 125,206 125,206 125,205 125,204 125,203 125,202 125,201 125,200 125,199 125,198 125,197 126,196 126,194 126,193 126,192 126,191 126,190 126,190 126,190 126,189 126,189 126,188 126,187 126,187 127,186 127,186 127,185 127,185 127,184 127,184 127,184 127,183 127,183 127,182 127,182 127,181 127,181 128,181 128,180 128,180 128,179 128,179 128,179 128,179 128,179 128,178 128,178 128,178 128,177 128,177 129,177 129,177 129,176 129,176 129,176 129,175 129,175 129,175 129,175 129,174 129,174 129,174 129,173 130,173 130,173 130,172 130,172 130,172 130,171 130,171 130,170 130,170 130,170 130,169 130,169 130,169 131,168 131,168 131,168 131,168 131,167 131,167 131,167 131,167 131,166 131,166 131,166 131,166 132,166 132,166 132,167 132,167 132,166 132,166 132,166 132,166 132,166 132,165 132,165 132,164 132,164 133,164 133,164 133,164 133,164 133,164 133,164 133,164 133,164 133,164 133,164 133,163 133,164 133,164 134,164 134,164 134,164 134,164 134,164 134,164 134,164 134,164 134,164 134,165 134,164 134,164 134,164 135,164 135,164 135,164 135,165 135,165 135,165 135,165 135,165 135,165 135,165 135,165 135,165 135,165 136,165 136,165 136,165 136,166 136,166 136,166 136,166 136,165 136,165 136,165 136,166 136,166 136,166 137,166 137,166 137,166 137,166 137,166 137,166 137,166 137,166 137,166 137,166 137,166 137,166 137,167 138,167 138,167 138,167 138,167 138,167 138,167 138,167 138,167 138,167 138,167 138,167 138,167 138,167 139,167 139,167 139,167 139,167 139,167 139,167 139,167 139,167 139,167 139,168 139,168 139,168 139,168 140,168 140,168 140,168 140,168 140,168 140,168 140,169 140,169 140,169 140,169 140,169 140,170 140,170 141,170 141,170 141,170 141,170 141,170 141,170 141,171 141,171 141,171 141,172 141,172 141,172 141,173 142,173 142,173 142,173 142,173 142,173 142,173 142,174 142,174 142,174 142,174 142,175 142,175 142,175 143,175 143,175 143,176 143,176 143,176 143,176 143,177 143,177 143,177 143,178 143,178 143,178 143,178 144,179 144,179 144,179 144,180 144,180 144,180 144,180 144,181 144,181 144,181 144,182 144,182 144,182 145,183 145,183 145,183 145,183 145,183 145,184 145,184 145,184 145,184 145,184 145,185 145,185 145,185 146,185 146,185 146,185 146,185 146,185 146,185 146,185 146,185 146,185 146,185 146,185 146,185 146,185 147,185 147,185 147,185 147,186 147,186 147,186 147,186 147,187 147,187 147,187 147,188 147,188 147,188 148,188 148,189 148,189 148,189 148,189 148,190 148,190 148,190 148,190 148,190 148,191 148,191 148,191 149,191 149,191 149,191 149,192 149,192 149,192 149,192 149,192 149,192 149,192 149,192 149,192 149,192 150,192 150,192 150,193 150,193 150,193 150,193 150,193 150,193 150,193 150,193 150,193 150,193 151,193 151,193 151,193 151,194 151,194 151,194 151,194 151,194 151,194 151,194 151,194 151,194 151,194 152,194 152,194 152,194 152,194 152,194 152,194 152,194 152,194 152,194 152,194 152,194 152,194 152,194 153,194 153,194 153,195 153,195 153,195 153,195 153,194 153,194 153,194 153,194 153,194 153,194 153,194 154,194 154,194 154,195 154,195 154,194 154,194 154,194 154,194 154,194 154,194 154,195 154,195 154,195 155,195 155,195 155,195 155,196 155,197 155,197 155,197 155,197 155,196 155,195 155,195 155,195 155,195 156,195 156,195 156,195 156,195 156,195 156,195 156,195 156,195 156,195 156,195 156,195 156,195 156,195 157,195 157,195 157,195 157,195 157,195 157,195 157,196 157,196 157,196 157,196 157,196 157,196 157,196 158,196 158,197 158,197 158,197 158,197 158,197 158,197 158,197 158,197 158,198 158,198 158,198 158,198 159,198 159,198 159,198 159,198 159,197 159,197 159,197 159,197 159,197 159,197 159,197 159,197 159,196 160,196 160,196 160,196 160,196 160,196 160,196 160,196 160,196 160,196 160,196 160,197 160,197 160,197 161,197 161,197 161,197 161,197 161,198 161,198 161,198 161,198 161,198 161,199 161,199 161,199 161,199 162,200 162,200 162,200 162,200 162,200 162,201 162,201 162,201 162,201 162,202 162,202 162,202 162,202 163,202 163,202 163,202 163,202 163,203 163,203 163,203 163,203 163,203 163,204 163,204 163,204 163,204 164,204 164,205 164,205 164,205 164,205 164,206 164,207 164,207 164,207 164,207 164,206 164,207 164,207 165,207 165,207 165,207 165,208 165,208 165,208 165,208 165,208 165,209 165,209 165,209 165,210 165,210 166,210 166,210 166,209 166,209 166,209 166,209 166,209 166,209 166,209 166,209 166,209 166,209 166,210 167,210 167,210 167,210 167,210 167,210 167,210 167,210 167,210 167,210 167,210 167,210 167,210 167,211 168,211 168,211 168,211 168,212 168,212 168,212 168,212 168,212 168,212 168,212 168,212 168,212 168,212 169,212 169,211 169,211 169,211 169,210 169,210 169,210 169,209 169,209 169,209 169,209 169,209 170,209 170,209 170,209 170,209 170,209 170,209 170,209 170,209 170,209 170,209 170,209 170,209 170,209 171,210 171,210 171,210 171,210 171,210 171,210 171,210 171,210 171,210 171,210 171,210 171,210 171,210 172,211 172,211 172,211 172,212 172,212 172,212 172,212 172,212 172,212 172,212 172,212 172,212 172,212 173,212 173,212 173,212 173,212 173,212 173,212 173,212 173,212 173,212 173,212 173,212 173,212 173,212 174,212 174,212 174,212 174,212 174,213 174,213 174,213 174,213 174,213 174,213 174,213 174,213 174,213 175,213 175,213 175,213 175,213 175,213 175,213 175,213 175,213 175,213 175,213 175,213 175,213 175,213 176,213 176,213 176,213 176,213 176,213 176,213 176,213 176,213 176,212 176,212 176,212 176,212 176,212 177,212 177,212 177,212 177,212 177,212 177,212 177,212 177,212 177,212 177,212 177,213 177,213 177,214 178,214 178,215 178,215 178,215 178,215 178,214 178,214 178,214 178,214 178,213 178,213 178,213 178,213 179,213 179,213 179,213 179,213 179,213 179,213 179,213 179,213 179,213 179,213 179,213 179,213 179,213 180,213 180,213 180,214 180,214 180,214 180,214 180,214 180,214 180,215 180,215 180,215 180,215 180,215 181,215 181,215 181,215 181,215 181,216 181,216 181,215 181,215 181,214 181,214 181,214 181,213 181,213 182,213 182,213 182,213 182,213 182,213 182,213 182,213 182,213 182,212 182,212 182,212 182,211 182,211 183,211 183,211 183,212 183,212 183,212 183,212 183,212 183,211 183,211 183,211 183,211 183,211 183,211 184,211 184,211 184,211 184,211 184,211 184,211 184,211 184,211 184,211 184,211 184,211 184,211 184,211 185,211 185,212 185,212 185,212 185,212 185,213 185,213 185,213 185,213 185,213 185,213 185,213 185,214 186,214 186,214 186,214 186,214 186,214 186,214 186,214 186,215 186,215 186,215 186,215 186,215 186,216 187,216 187,216 187,216 187,216 187,216 187,216 187,216 187,216 187,216 187,217 187,217 187,217 187,217 188,218 188,218 188,218 188,218 188,218 188,218 188,218 188,218 188,218 188,218 188,218 188,218 189,219 189,219 189,219 189,219 189,219 189,219 189,220 189,220 189,220 189,220 189,221 189,221 189,221 190,221 190,221 190,221 190,221 190,220 190,220 190,220 190,220 190,220 190,220 190,220 190,220 190,220 191,220 191,220 191,220 191,220 191,220 191,220 191,220 191,220 191,220 191,220 191,220 191,220 191,220 192,220 192,220 192,220 192,220 192,220 192,220 192,220 192,220 192,220 192,220 192,220 192,220 192,220 193,220 193,220 193,220 193,220 193,220 193,220 193,220 193,220 193,220 193,220 193,220 193,220 193,220 194,220 194,220 194,220 194,220 194,220 194,220 194,220 194,220 194,220 194,220 194,220 194,220 194,220 195,220 195,220 195,220 195,220 195,220 195,220 195,220 195,220 195,220 195,220 195,220 195,220 195,220 196,220 196,220 196,220 196,220 196,220 196,220 196,220 196,220 196,220 196,219 196,219 196,219 196,219 197,219 197,219 197,219 197,219 197,219 197,219 197,219 197,219 197,219 197,219 197,219 197,219 197,219 198,219 198,219 198,219 198,218 198,218 198,218 198,218 198,218 198,218 198,218 198,218 198,217 198,217 199,217 199,217 199,217 199,217 199,217 199,217 199,217 199,217 199,217 199,217 199,217 199,217 199,217 200,217 200,216 200,216 200,216 200,216 200,216 200,216 200,216 200,216 200,216 200,216 200,216 200,215 201,215 201,215 201,215 201,215 201,215 201,215 201,215 201,215 201,215 201,215 201,215 201,215 201,215 202,215 202,215 202,214 202,214 202,214 202,214 202,214 202,214 202,214 202,214 202,214 202,214 202,214 203,214 203,214 203,214 203,214 203,214 203,214 203,214 203,214 203,214 203,214 203,213 203,213 203,213 204,213 204,213 204,214 204,214 204,213 204,214 204,214 204,214 204,214 204,213 204,213 204,213 204,213 205,212 205,212 205,212 205,212 205,212 205,212 205,212 205,212 205,211 205,211 205,211 205,211 205,211 206,211 206,211 206,211 206,211 206,211 206,211 206,211 206,211 206,211 206,211 206,211 206,211 206,211 207,211 207,211 207,211 207,211 207,211 207,211 207,211 207,211 207,211 207,211 207,211 207,211 208,211 208,211 208,211 208,211 208,211 208,211 208,211 208,211 208,212 208,212 208,212 208,212 208,212 209,212 209,212 209,212 209,212 209,212 209,212 209,213 209,213 209,213 209,213 209,213 209,213 209,213 210,213 210,213 210,213 210,213 210,212 210,212 210,212 210,212 210,212 210,212 210,212 210,212 210,212 211,212 211,212 211,212 211,212 211,212 211,211 211,211 211,211 211,211 211,211 211,211 211,211 211,211 212,212 212,212 212,212 212,212 212,213 212,214 212,215 212,216 212,216 212,215 212,215 212,214 212,214 213,214 213,214 213,214 213,214 213,214 213,213 213,213 213,213 213,213 213,213 213,212 213,212 213,212 214,212 214,212 214,212 214,212 214,213 214,213 214,213 214,213 214,213 214,213 214,213 214,213 214,213 215,213 215,213 215,213 215,213 215,213 215,213 215,214 215,214 215,214 215,214 215,214 215,213 215,214 216,214 216,213 216,213 216,213 216,214 216,213 216,213 216,213 216,213 216,213 216,213 216,213 216,213 217,213 217,213 217,213 217,213 217,212 217,212 217,212 217,212 217,212 217,212 217,212 217,212 217,212 218,212 218,212 218,212 218,212 218,212 218,212 218,212 218,212 218,212 218,212 218,212 218,212 218,212 219,213 219,213 219,213 219,213 219,213 219,213 219,213 219,213 219,213 219,213 219,214 219,214 219,214 220,214 220,213 220,213 220,213 220,213 220,213 220,214 220,214 220,214 220,214 220,214 220,213 220,213 221,213 221,213 221,212 221,212 221,212 221,212 221,212 221,212 221,212 221,212 221,212 221,212 221,212 222,212 222,212 222,212 222,212 222,212 222,212 222,212 222,212 222,212 222,212 222,212 222,212 222,212 223,212 223,212 223,212 223,212 223,212 223,211 223,211 223,211 223,211 223,211 223,211 223,211 223,211 224,211 224,211 224,211 224,211 224,211 224,212 224,212 224,213 224,213 224,213 224,213 224,213 224,212 225,212 225,212 225,212 225,212 225,212 225,212 225,212 225,212 225,212 225,212 225,212 225,212 225,212 226,212 226,212 226,212 226,212 226,212 226,212 226,212 226,212 226,212 226,212 226,212 226,212 227,212 227,212 227,212 227,212 227,213 227,213 227,213 227,213 227,213 227,213 227,212 227,212 227,212 228,211 228,211 228,211 228,211 228,211 228,211 228,211 228,210 228,210 228,210 228,210 228,210 228,210 229,210 229,210 229,210 229,210 229,210 229,210 229,210 229,210 229,210 229,210 229,210 229,210 229,210 230,210 230,210 230,211 230,211 230,211 230,211 230,211 230,211 230,211 230,211 230,211 230,210 230,210 231,210 231,210 231,210 231,210 231,210 231,210 231,210 231,209 231,209 231,209 231,209 231,209 231,209 232,209 232,209 232,208 232,208 232,208 232,208 232,208 232,208 232,208 232,208 232,208 232,208 232,208 233,208 233,208 233,208 233,208 233,207 233,207 233,207 233,207 233,207 233,207 233,206 233,206 233,206 234,206 234,205 234,205 234,205 234,205 234,204 234,204 234,204 234,204 234,204 234,204 234,203 234,203 235,203 235,203 235,202 235,202 235,202 235,202 235,202 235,202 235,201 235,201 235,201 235,201 235,201 236,200 236,200 236,199 236,199 236,199 236,198 236,198 236,198 236,197 236,197 236,197 236,196 236,196 237,196 237,196 237,196 237,195 237,195 237,195 237,195 237,195 237,195 237,195 237,195 237,195 237,195 238,195 238,195 238,195 238,195 238,195 238,195 238,195 238,195 238,196 238,196 238,196 238,197 238,197 239,197 239,198 239,198 239,198 239,198 239,199 239,199 239,200 239,200 239,200 239,200 239,201 239,201 240,201 240,201 240,201 240,202 240,202 240,202 240,202 240,202 240,203 240,203 240,203 240,203 240,203 241,203 241,203 241,203 241,204 241,204 241,204 241,204 241,204 241,204 241,204 241,205 241,205 241,205 242,205 242,205 242,205 242,205 242,206 242,206 242,206 242,206 242,206 242,206 242,206 242,206 242,206 243,206 243,206 243,206 243,206 243,206 243,206 243,206 243,206 243,206 243,206 243,206 243,206 243,206 244,206 244,206 244,206 244,206 244,206 244,205 244,205 244,205 244,205 244,205 244,205 244,205 244,205 245,205 245,205 245,205 245,205 245,205 245,204 245,204 245,204 245,204 245,204 245,204 245,204 246,204 246,204 246,204 246,203 246,204 246,204 246,204 246,204 246,204 246,203 246,203 246,204 246,204 247,204 247,203 247,203 247,203 247,203 247,203 247,203 247,203 247,202 247,202 247,203 247,203 247,203 248,202 248,202 248,202 248,202 248,202 248,202 248,202 248,202 248,202 248,202 248,202 248,202 248,202 249,201 249,201 249,201 249,200 249,200 249,200 249,200 249,200 249,200 249,200 249,200 249,200 249,200 250,200 250,200 250,199 250,199 250,199 250,200 250,200 250,200 250,200 250,200 250,199 250,199 250,199 251,199 251,199 251,199 251,199 251,199 251,199 251,198 251,198 251,198 251,198 251,198 251,198 251,198 252,198 252,198 252,198 252,198 252,198 252,198 252,198 252,198 252,197 252,197 252,197 252,197 252,198 253,198 253,198 253,198 253,198 253,198 253,198 253,198 253,198 253,199 253,198 253,198 253,198 253,197 254,197 254,197 254,198 254,198 254,198 254,197 254,197 254,197 254,197 254,197 254,197 254,197 254,197 255,196 255,196 255,196 255,196 255,196 255,196 255,196 255,196 255,196 255,196 255,196 255,196 255,195 256,195 256,195 256,194 256,195 256,195 256,195 256,195 256,194 256,194 256,194 256,194 256,194 256,194 257,194 257,194 257,193 257,193 257,193 257,193 257,193 257,193 257,193 257,193 257,192 257,192 257,192 258,192 258,192 258,191 258,191 258,191 258,190 258,190 258,190 258,190 258,189 258,189 258,189 258,189 259,189 259,189 259,188 259,188 259,188 259,187 259,187 259,187 259,187 259,187 259,186 259,186 259,186 260,186 260,186 260,185 260,185 260,185 260,184 260,184 260,184 260,184 260,184 260,184 260,183 260,183 261,183 261,182 261,182 261,182 261,182 261,182 261,182 261,181 261,181 261,181 261,180 261,180 261,180 262,180 262,180 262,180 262,180 262,180 262,179 262,179 262,179 262,179 262,179 262,179 262,178 262,178 263,178 263,178 263,178 263,177 263,177 263,176 263,176 263,176 263,176 263,176 263,176 263,177 263,176 264,176 264,176 264,176 264,177 264,177 264,177 264,177 264,177 264,177 264,177 264,177 264,177 265,177 265,177 265,177 265,177 265,177 265,177 265,177 265,177 265,176 265,176 265,176 265,176 265,176 266,176 266,176 266,175 266,175 266,175 266,175 266,175 266,175 266,175 266,174 266,174 266,174 266,174 267,174 267,174 267,173 267,173 267,173 267,173 267,172 267,172 267,172 267,171 267,171 267,171 267,170 268,170 268,170 268,170 268,170 268,170 268,170 268,170 268,170 268,170 268,169 268,169 268,169 268,168 269,168 269,168 269,168 269,167 269,167 269,166 269,166 269,166 269,165 269,165 269,165 269,164 269,164 270,164 270,164 270,163 270,163 270,163 270,162 270,162 270,162 270,161 270,161 270,160 270,160 270,159 271,159 271,159 271,158 271,158 271,158 271,157 271,157 271,157 271,157 271,156 271,156 271,156 271,156 272,156 272,156 272,156 272,156 272,156 272,156 272,156 272,156 272,156 272,156 272,155 272,155 272,155 273,155 273,155 273,155 273,155 273,155 273,155 273,154 273,154 273,154 273,154 273,154 273,154 273,154 274,154 274,154 274,154 274,154 274,154 274,154 274,154 274,154 274,154 274,154 274,154 274,154 274,154 275,154 275,155 275,154 275,154 275,154 275,154 275,154 275,154 275,154 275,154 275,154 275,154 275,153 276,153 276,153 276,153 276,153 276,153 276,153 276,153 276,153 276,154 276,154 276,154 276,155 276,155 277,156 277,156 277,156 277,157 277,157 277,157 277,158 277,158 277,159 277,159 277,159 277,160 277,160 278,161 278,161 278,162 278,162 278,163 278,163 278,163 278,164 278,164 278,164 278,164 278,164 278,165 279,165 279,165 279,165 279,165 279,166 279,166 279,166 279,166 279,167 279,166 279,166 279,166 279,166 280,166 280,166 280,167 280,167 280,167 280,167 280,167 280,167 280,167 280,167 280,167 280,167 280,167 281,167 281,167 281,167 281,167 281,167 281,167 281,167 281,167 281,167 281,167 281,167 281,166 281,165 282,165 282,165 282,165 282,165 282,165 282,165 282,165 282,165 282,165 282,165 282,164 282,164 282,164 283,164 283,165 283,165 283,166 283,166 283,166 283,167 283,167 283,166 283,166 283,166 283,165 284,165 284,165 284,165 284,165 284,165 284,166 284,166 284,166 284,166 284,166 284,166 284,166 284,167 285,167 285,167 285,168 285,168 285,169 285,169 285,170 285,170 285,170 285,170 285,171 285,172 285,173 286,174 286,174 286,175 286,176 286,177 286,177 286,178 286,179 286,180 286,181 286,181 286,182 286,182 287,183 287,183 287,183 287,182 287,182 287,181 287,180 287,179 287,178 287,177 287,175 287,174 287,173 288,173 288,172 288,172 288,171 288,171 288,171 288,172 288,172 288,173 288,173 288,173 288,173 288,173 289,173 289,173 289,172 289,172 289,172 289,172 289,172 289,172 289,172 289,172 289,171 289,171 289,171 290,171 290,172 290,173 290,174 290,175 290,176 290,176 290,175 290,175 290,175 290,174 290,173 290,173 291,172 291,171 291,170 291,169 291,168 291,167 291,166 291,165 291,164 291,163 291,161 291,160 291,159 292,158 292,158 292,157 292,156 292,156 292,156 292,156 292,156 292,155 292,155 292,155 292,155 292,155 293,155 293,155 293,155 293,155 293,155 293,155 293,154 293,154 293,154 293,154 293,153 293,153 293,154 294,154 294,154 294,154 294,155 294,155 294,155 294,155 294,156 294,156 294,157 294,157 294,158 294,158 295,159 295,159 295,159 295,160 295,160 295,160 295,161 295,161 295,161 295,162 295,162 295,162 295,163 296,163 296,163 296,164 296,164 296,164 296,164 296,165 296,165 296,165 296,165 296,165 296,165 296,165 297,165 297,165 297,166 297,166 297,166 297,166 297,166 297,167 297,167 297,167 297,167 297,167 297,167 298,167 298,167 298,167 298,167 298,167 298,167 298,167 298,167 298,167 298,167 298,168 298,168 298,168 299,168 299,168 299,168 299,168 299,169 299,169 299,169 299,170 299,170 299,171 299,171 299,171 299,172 300,172 300,173 300,173 300,173 300,174 300,174 300,175 300,175 300,176 300,176 300,177 300,177 300,178 301,178 301,178 301,179 301,179 301,180 301,180 301,181 301,181 301,181 301,182 301,182 301,183 301,183 302,183 302,184 302,184 302,185 302,185 302,186 302,186 302,187 302,187 302,187 302,188 302,188 303,189 303,189 303,190 303,190 303,191 303,191 303,191 303,192 303,192 303,192 303,192 303,193 303,193 304,194 304,195 304,195 304,196 304,197 304,198 304,198 304,199 304,199 304,199 304,199 304,200 304,200 305,200 305,200 305,200 305,200 305,200 305,200 305,200 305,200 305,200 305,200 305,200 305,200 305,200 306,200 306,199 306,199 306,199 306,199 306,199 306,199 306,198 306,198 306,198 306,197 306,196 306,196 307,196 307,195 307,195 307,195 307,195 307,195 307,194 307,194 307,193 307,193 307,193 307,193 307,193 308,193 308,193 308,193 308,193 308,193 308,193 308,193 308,193 308,192 308,192 308,192 308,192 308,192 309,192 309,192 309,192 309,192 309,192 309,192 309,191 309,191 309,191 309,191 309,190 309,190 309,190 310,189 310,189 310,189 310,188 310,188 310,188 310,188 310,187 310,186 310,186 310,185 310,185 310,184 311,183 311,182 311,182 311,181 311,180 311,179 311,179 311,179 311,178 311,178 311,178 311,177 311,177 312,177 312,176 312,176 312,175 312,175 312,174 312,174 312,174 312,173 312,173 312,172 312,172 312,171 313,171 313,170 313,170 313,169 313,169 313,169 313,168 313,168 313,168 313,167 313,167 313,167 313,166 314,166 314,166 314,165 314,165 314,164 314,164 314,164 314,163 314,163 314,163 314,162 314,162 314,162 315,162 315,162 315,161 315,161 315,161 315,161 315,161 315,161 315,161 315,161 315,161 315,162 315,162 316,162 316,162 316,163 316,163 316,163 316,163 316,163 316,163 316,164 316,164 316,164 316,164 316,164 317,164 317,165 317,165 317,165 317,165 317,165 317,166 317,166 317,166 317,166 317,166 317,166 317,166 318,166 318,166 318,166 318,166 318,166 318,166 318,166 318,166 318,166 318,165 318,165 318,165 318,165 319,165 319,165 319,165 319,165 319,165 319,166 319,166 319,166 319,166 319,167 319,167 319,167 319,167 320,168 320,168 320,168 320,169 320,169 320,170 320,170 320,171 320,171 320,172 320,172 320,172 320,173 321,173 321,173 321,174 321,174 321,174 321,175 321,175 321,176 321,176 321,176 321,177 321,177 322,177 322,178 322,178 322,178 322,179 322,179 322,180 322,180 322,181 322,181 322,182 322,182 322,183 323,183 323,184 323,184 323,184 323,185 323,185 323,186 323,186 323,187 323,187 323,188 323,188 323,188 324,189 324,189 324,189 324,189 324,189 324,189 324,189 324,189 324,189 324,189 324,189 324,188 324,188 325,187 325,187 325,186 325,185 325,184 325,184 325,183 325,182 325,182 325,181 325,180 325,180 325,179 326,179 326,178 326,178 326,177 326,177 326,176 326,176 326,175 326,175 326,174 326,173 326,172 326,171 327,170 327,170 327,169 327,168 327,169 327,169 327,169 327,169 327,169 327,169 327,170 327,170 327,170 328,170 328,170 328,170 328,170 328,170 328,170 328,171 328,171 328,171 328,171 328,171 328,172 328,172 329,172 329,174 329,176 329,179 329,179 329,180 329,181 329,180 329,179 329,179 329,179 329,180 329,180 330,181 330,181 330,182 330,182 330,183 330,183 330,184 330,184 330,185 330,185 330,186 330,186 330,187 331,187 331,188 331,188 331,189 331,189 331,190 331,190 331,190 331,190 331,191 331,191 331,191 331,191 332,191 332,192 332,192 332,192 332,192 332,192 332,192 332,192 332,191 332,191 332,190 332,190 332,190 333,190 333,189 333,189 333,189 333,189 333,189 333,189 333,190 333,190 333,190 333,190 333,191 333,191 334,191 334,192 334,192 334,192 334,192 334,192 334,193 334,193 334,193 334,193 334,193 334,194 334,194 335,194 335,194 335,194 335,194 335,194 335,195 335,195 335,195 335,195 335,195 335,195 335,195 335,196 336,196 336,196 336,196 336,196 336,196 336,196 336,196 336,196 336,196 336,195 336,195 336,195 336,195 337,195 337,195 337,195 337,195 337,194 337,194 337,194 337,194 337,194 337,193 337,193 337,193 337,193 338,192 338,192 338,192 338,192 338,191 338,191 338,190 338,190 338,190 338,190 338,189 338,189 338,189 339,189 339,189 339,188 339,188 339,188 339,188 339,188 339,187 339,187 339,187 339,187 339,186 339,186 340,186 340,186 340,186 340,185 340,185 340,185 340,185 340,185 340,184 340,184 340,184 340,184 341,184 341,183 341,183 341,183 341,183 341,183 341,183 341,182 341,182 341,182 341,182 341,182 341,181 342,181 342,181 342,181 342,180 342,180 342,180 342,180 342,180 342,180 342,180 342,180 342,180 342,180 343,181 343,181 343,181 343,181 343,181 343,181 343,181 343,181 343,182 343,183 343,184 343,184 343,185 344,185 344,185 344,185 344,186 344,186 344,187 344,188 344,188 344,188 344,188 344,188 344,189 344,189 345,189 345,189 345,190 345,190 345,190 345,191 345,191 345,191 345,192 345,192 345,193 345,193 345,193 346,193 346,193 346,193 346,193 346,193 346,193 346,193 346,193 346,193 346,193 346,193 346,193 346,193 347,193 347,193 347,193 347,192 347,192 347,192 347,192 347,192 347,192 347,192 347,191 347,191 347,191 348,191 348,191 348,191 348,191 348,190 348,190 348,190 348,190 348,190 348,190 348,189 348,189 348,189 349,189 349,189 349,189 349,189 349,189 349,189 349,189 349,189 349,189 349,189 349,189 349,189 349,189 350,189 350,189 350,189 350,189 350,189 350,189 350,189 350,189 350,189 350,189 350,189 350,189 350,189 351,189 351,189 351,189 351,189 351,189 351,190 351,190 351,190 351,191 351,191 351,191 351,192 351,192 352,192 352,192 352,193 352,193 352,193 352,194 352,194 352,194 352,195 352,195 352,195 352,195 352,196 353,196 353,197 353,197 353,198 353,198 353,198 353,199 353,199 353,199 353,200 353,200 353,200 353,201 354,201 354,201 354,201 354,202 354,202 354,202 354,202 354,203 354,203 354,204 354,204 354,204 354,205 355,205 355,205 355,205 355,206 355,206 355,206 355,206 355,206 355,206 355,205 355,205 355,205 355,204 356,204 356,204 356,203 356,203 356,203 356,203 356,202 356,202 356,202 356,202 356,202 356,202 356,202 357,202 357,202 357,202 357,202 357,202 357,202 357,203 357,203 357,203 357,203 357,203 357,203 357,203 358,203 358,203 358,204 358,204 358,204 358,204 358,204 358,205 358,205 358,205 358,205 358,206 358,206 359,206 359,206 359,207 359,207 359,207 359,208 359,208 359,208 359,209 359,209 359,209 359,210 360,210 360,211 360,211 360,212 360,212 360,213 360,213 360,214 360,214 360,215 360,215 360,216 360,217 361,217 361,217 361,217 361,217 361,217 361,217 361,217 361,216 361,216 361,216 361,215 361,215 361,215 362,214 362,214 362,213 362,213 362,212 362,212 362,212 362,211 362,211 362,210 362,210 362,209 362,209 363,208 363,208 363,207 363,207 363,207 363,206 363,206 363,206 363,205 363,205 363,205 363,205 363,204 364,204 364,204 364,204 364,204 364,204 364,204 364,204 364,204 364,204 364,205 364,205 364,205 364,205 365,206 365,206 365,206 365,207 365,207 365,207 365,207 365,207 365,207 365,207 365,208 365,208 365,208 366,208 366,208 366,208 366,208 366,208 366,209 366,209 366,209 366,209 366,210 366,210 366,210 366,211 367,211 367,211 367,211 367,211 367,212 367,212 367,212 367,212 367,212 367,212 367,212 367,212 367,213 368,213 368,213 368,213 368,213 368,213 368,213 368,213 368,213 368,213 368,213 368,213 368,213 368,213 369,213 369,213 369,213 369,213 369,213 369,213 369,213 369,213 369,213 369,212 369,212 369,212 369,212 370,212 370,212 370,212 370,212 370,212 370,212 370,212 370,212 370,212 370,212 370,212 370,212 370,212 371,212 371,211 371,211 371,211 371,211 371,211 371,211 371,211 371,211 371,211 371,212 371,212 371,212 372,212 372,212 372,213 372,213 372,213 372,214 372,214 372,215 372,215 372,216 372,216 372,217 372,217 373,218 373,219 373,219 373,220 373,220 373,221 373,222 373,222 373,223 373,223 373,224 373,224 373,225 374,225 374,225 374,226 374,226 374,226 374,227 374,227 374,227 374,228 374,228 374,229 374,229 374,229 375,230 375,230 375,230 375,231 375,231 375,232 375,232 375,233 375,233 375,233 375,234 375,234 375,234 376,234 376,235 376,235 376,235 376,235 376,235 376,235 376,235 376,235 376,235 376,235 376,235 376,235 377,235 377,235 377,235 377,235 377,235 377,235 377,235 377,235 377,235 377,235 377,235 377,235 377,235 378,235 378,235 378,236 378,236 378,236 378,236 378,236 378,236 378,236 378,236 378,236 378,236 379,236 379,236 379,236 379,235 379,235 379,235 379,235 379,234 379,234 379,234 379,234 379,234 379,234 380,234 380,234 380,234 380,234 380,234 380,234 380,234 380,235 380,235 380,235 380,235 380,235 380,235 381,235 381,235 381,236 381,236 381,236 381,236 381,236 381,236 381,236 381,236 381,236 381,236 381,236 382,236 382,237 382,237 382,236 382,236 382,236 382,235 382,235 382,235 382,235 382,235 382,234 382,234 383,234 383,234 383,234 383,234 383,233 383,233 383,233 383,233 383,232 383,232 383,232 383,232 383,231 384,231 384,231 384,231 384,231 384,230 384,230 384,230 384,229 384,229 384,229 384,229 384,229 384,229 385,229 385,229 385,229 385,230 385,230 385,230 385,231 385,231 385,231 385,231 385,232 385,232 385,232 386,233 386,233 386,234 386,234 386,234 386,235 386,235 386,235 386,236 386,236 386,236 386,236 386,237 387,237 387,237 387,238 387,238 387,238 387,239 387,239 387,240 387,240 387,241 387,241 387,241 387,241 388,241 388,241 388,241 388,241 388,241 388,241 388,241 388,241 388,241 388,241 388,241 388,241 388,242 389,242 389,242 389,242 389,242 389,242 389,242 389,243 389,243 389,243 389,243 389,243 389,244 389,244 390,244 390,244 390,244 390,244 390,244 390,244 390,244 390,244 390,244 390,244 390,244 390,245 390,245 391,245 391,245 391,245 391,244 391,244 391,245 391,244 391,244 391,243 391,243 391,243 391,243 391,243 392,243 392,243 392,243 392,243 392,243 392,242 392,242 392,242 392,242 392,242 392,242 392,242 392,241 393,241 393,241 393,241 393,240 393,240 393,240 393,240 393,240 393,239 393,239 393,239 393,238 393,238 394,238 394,237 394,237 394,237 394,237 394,236 394,236 394,236 394,235 394,235 394,235 394,234 394,234 395,234 395,233 395,233 395,233 395,233 395,232 395,232 395,232 395,232 395,231 395,231 395,231 395,231 396,231 396,231 396,230 396,230 396,230 396,230 396,230 396,230 396,230 396,229 396,229 396,229 396,229 397,228 397,228 397,228 397,228 397,227 397,227 397,227 397,226 397,226 397,226 397,226 397,225 398,225 398,225 398,225 398,225 398,224 398,224 398,224 398,224 398,224 398,223 398,223 398,223 398,223 399,223 399,223 399,223 399,224 399,224 399,224 399,225 399,225 399,225 399,225 399,226 399,226 399,227 400,227 400,227 400,228 400,228 400,229 400,229 400,230 400,230 400,231 400,231 400,231 400,232 400,232 401,232 401,233 401,233 401,233 401,234 401,234 401,234 401,235 401,235 401,235 401,235 401,235 401,234 402,234 402,235 402,235 402,235 402,236 402,236 402,237 402,238 402,238 402,239 402,239 402,239 402,239 403,240 403,241 403,241 403,242 403,242 403,243 403,243 403,243 403,244 403,244 403,245 403,245 403,246 404,246 404,246 404,247 404,247 404,247 404,247 404,247 404,248 404,249 404,250 404,250 404,250 404,251 405,251 405,251 405,251 405,251 405,251 405,251 405,251 405,251 405,251 405,252 405,253 405,253 405,253 406,254 406,254 406,254 406,255 406,255 406,256 406,256 406,256 406,257 406,257 406,257 406,258 406,258 407,258 407,258 407,259 407,259 407,260 407,262 407,263 407,263 407,263 407,264 407,264 407,264 407,264 408,264 408,264 408,264 408,265 408,265 408,265 408,264 408,263 408,263 408,262 408,261 408,260 408,259 409,258 409,257 409,256 409,256 409,255 409,254 409,254 409,253 409,252 409,252 409,251 409,251 409,251 410,250 410,249 410,249 410,248 410,247 410,247 410,246 410,245 410,245 410,244 410,244 410,243 410,243 411,242 411,242 411,242 411,241 411,241 411,241 411,241 411,240 411,240 411,240 411,240 411,240 411,240 412,240 412,239 412,239 412,239 412,239 412,239 412,239 412,239 412,239 412,239 412,240 412,240 412,240 413,241 413,241 413,241 413,241 413,241 413,242 413,242 413,242 413,243 413,243 413,244 413,245 413,245 414,246 414,247 414,248 414,248 414,249 414,250 414,251 414,251 414,252 414,252 414,253 414,254 414,254 415,255 415,256 415,257 415,258 415,258 415,259 415,260 415,260 415,261 415,261 415,261 415,262 415,262 416,262 416,262 416,263 416,263 416,264 416,264 416,264 416,264 416,265 416,265 416,265 416,265 417,265 417,265 417,265 417,264 417,264 417,264 417,263 417,263 417,263 417,263 417,262 417,262 417,263 418,263 418,263 418,264 418,264 418,265 418,265 418,265 418,265 418,265 418,266 418,266 418,266 418,266 419,267 419,267 419,267 419,267 419,267 419,267 419,267 419,267 419,268 419,268 419,268 419,269 419,269 420,270 420,271 420,271 420,272 420,272 420,273 420,273 420,273 420,274 420,274 420,274 420,274 420,274 421,275 421,275 421,275 421,275 421,275 421,275 421,275 421,275 421,275 421,275 421,275 421,275 421,275 422,276 422,276 422,276 422,276 422,276 422,276 422,276 422,276 422,276 422,276 422,276 422,276 422,276 423,275 423,275 423,275 423,275 423,274 423,273 423,272 423,271 423,270 423,269 423,267 423,266 423,265 424,265 424,264 424,263 424,263 424,262 424,262 424,262 424,262 424,262 424,262 424,261 424,261 424,261 425,261 425,261 425,261 425,261 425,261 425,261 425,261 425,260 425,259 425,258 425,257 425,257 425,256 426,256 426,256 426,255 426,255 426,254 426,254 426,254 426,253 426,253 426,253 426,252 426,252 426,252 427,252 427,251 427,251 427,251 427,251 427,250 427,250 427,249 427,249 427,249 427,248 427,248 427,248 428,248 428,247 428,247 428,247 428,248 428,248 428,248 428,248 428,248 428,249 428,249 428,249 428,250 429,250 429,251 429,251 429,251 429,252 429,252 429,253 429,253 429,254 429,254 429,255 429,255 429,255 430,256 430,256 430,257 430,257 430,257 430,257 430,257 430,258 430,258 430,258 430,259 430,259 430,259 431,259 431,259 431,259 431,259 431,259 431,259 431,259 431,259 431,259 431,259 431,259 431,258 431,258 432,258 432,258 432,258 432,257 432,257 432,257 432,257 432,257 432,256 432,256 432,256 432,256 432,255 433,255 433,255 433,255 433,254 433,254 433,254 433,253 433,253 433,253 433,252 433,252 433,252 433,252 434,251 434,251 434,251 434,250 434,250 434,249 434,249 434,249 434,248 434,248 434,247 434,247 434,246 435,246 435,246 435,245 435,245 435,245 435,244 435,244 435,243 435,243 435,243 435,242 435,242 436,241 436,241 436,240 436,240 436,240 436,239 436,239 436,239 436,238 436,238 436,237 436,237 436,236 437,236 437,235 437,235 437,234 437,234 437,233 437,233 437,232 437,233 437,233 437,233 437,233 437,233 438,233 438,234 438,234 438,234 438,235 438,235 438,235 438,235 438,235 438,235 438,235 438,235 438,235 439,235 439,235 439,235 439,235 439,235 439,235 439,235 439,235 439,235 439,235 439,236 439,236 439,236 440,236 440,237 440,237 440,238 440,238 440,238 440,239 440,239 440,240 440,240 440,240 440,240 440,241 441,241 441,241 441,241 441,242 441,242 441,242 441,242 441,242 441,243 441,243 441,243 441,243 441,243 442,243 442,244 442,244 442,244 442,244 442,244 442,244 442,244 442,244 442,244 442,244 442,244 442,244 443,245 443,245 443,245 443,245 443,245 443,245 443,245 443,246 443,246 443,246 443,246 443,247 443,247 444,247 444,247 444,247 444,248 444,248 444,248 444,248 444,248 444,248 444,248 444,248 444,248 444,248 445,248 445,248 445,248 445,248 445,249 445,249 445,249 445,249 445,249 445,250 445,250 445,250 445,250 446,250 446,251 446,251 446,251 446,251 446,252 446,252 446,252 446,253 446,253 446,253 446,254 446,254 447,255 447,255 447,256 447,256 447,257 447,257 447,258 447,258 447,259 447,259 447,260 447,261 447,261 448,262 448,263 448,263 448,264 448,265 448,265 448,266 448,266 448,266 448,266 448,265 448,264 448,264 449,263 449,263 449,262 449,262 449,262 449,261 449,261 449,261 449,261 449,261 449,260 449,260 449,260 450,260 450,260 450,260 450,260 450,260 450,260 450,260 450,260 450,260 450,260 450,260 450,260 450,260 451,260 451,260 451,260 451,260 451,261 451,261 451,261 451,261 451,262 451,262 451,262 451,263 451,263 452,263 452,263 452,264 452,264 452,264 452,264 452,265 452,265 452,265 452,266 452,266 452,266 452,267 453,267 453,268 453,268 453,268 453,269 453,269 453,269 453,270 453,270 453,270 453,271 453,272 453,272 454,273 454,274 454,274 454,275 454,276 454,277 454,277 454,278 454,279 454,280 454,280 454,280 455,280 455,280 455,280 455,278 455,278 455,277 455,276 455,276 455,275 455,275 455,274 455,274 455,274 456,274 456,274 456,274 456,274 456,274 456,273 456,273 456,273 456,273 456,272 456,272 456,272 456,272 457,271 457,271 457,271 457,271 457,270 457,270 457,269 457,269 457,269 457,268 457,267 457,267 457,267 458,266 458,266 458,265 458,265 458,264 458,264 458,264 458,263 458,263 458,263 458,263 458,262 458,262 459,262 459,262 459,262 459,262 459,262 459,262 459,263 459,263 459,263 459,263 459,263 459,263 459,263 460,263 460,263 460,263 460,263 460,263 460,263 460,263 460,263 460,264 460,264 460,264 460,264 460,265 461,265 461,266 461,266 461,267 461,267 461,267 461,268 461,269 461,269 461,270 461,271 461,271 461,272 462,273 462,274 462,274 462,276 462,276 462,277 462,278 462,279 462,280 462,281 462,281 462,282 462,283 463,283 463,284 463,285 463,285 463,286 463,286 463,287 463,288 463,289 463,289 463,290 463,290 463,291 464,291 464,291 464,291 464,291 464,291 464,290 464,289 464,288 464,288 464,287 464,286 464,286 464,285 465,284 465,284 465,284 465,283 465,283 465,282 465,282 465,282 465,281 465,281 465,280 465,280 465,280 466,280 466,279 466,279 466,279 466,279 466,279 466,279 466,279 466,280 466,280 466,280 466,280 466,281 467,281 467,282 467,282 467,283 467,284 467,285 467,285 467,286 467,287 467,288 467,288 467,289 467,290 468,291 468,292 468,292 468,293 468,294 468,294 468,295 468,295 468,296 468,296 468,297 468,297 468,298 469,298 469,298 469,299 469,299 469,300 469,300 469,300 469,301 469,301 469,301 469,302 469,302 469,302 470,302 470,302 470,303 470,303 470,303 470,303 470,303 470,303 470,303 470,303 470,303 470,302 470,303 471,303 471,303 471,303 471,303 471,303 471,303 471,303 471,303 471,303 471,303 471,303 471,303 471,303 472,303 472,303 472,303 472,303 472,303 472,302 472,302 472,301 472,301 472,300 472,299 472,298 472,298 473,297 473,297 473,296 473,295 473,295 473,294 473,293 473,292 473,292 473,291 473,291 473,290 474,289 474,289 474,288 474,288 474,287 474,286 474,285 474,285 474,284 474,283 474,282 474,281 474,280 475,280 475,280 475,280 475,279 475,279 475,279 475,279 475,279 475,278 475,278 475,278 475,278 475,278 476,278 476,278 476,278 476,278 476,278 476,278 476,278 476,278 476,277 476,277 476,277 476,277 476,277 477,277 477,277 477,277 477,277 477,277 477,277 477,277 477,277 477,278 477,278 477,278 477,278 477,278 478,278 478,278 478,278 478,278 478,278 478,278 478,279 478,279 478,279 478,279 478,279 478,278 478,278 479,278 479,278 479,277 479,277 479,277 479,277 479,277 479,276 479,276 479,276 479,276 479,276 479,276 480,276 480,276 480,276 480,276 480,276 480,276 480,276 480,276 480,276 480,276 480,276 480,276 480,276 481,277 481,277 481,277 481,277 481,277 481,277 481,278 481,278 481,279 481,279 481,280 481,280 481,281 482,281 482,282 482,282 482,283 482,283 482,284 482,284 482,284 482,285 482,285 482,285 482,285 482,285 483,286 483,287 483,287 483,287 483,287 483,287 483,287 483,287 483,287 483,286 483,286 483,286 483,286 484,286 484,286 484,286 484,286 484,286 484,286 484,286 484,286 484,286 484,286 484,287 484,287 484,287 485,287 485,287 485,286 485,286 485,286 485,286 485,286 485,286 485,286 485,285 485,285 485,285 485,285 486,285 486,284 486,284 486,284 486,284 486,283 486,283 486,283 486,282 486,282 486,282 486,281 486,281 487,280 487,280 487,279 487,279 487,278 487,277 487,277 487,276 487,275 487,274 487,273 487,273 487,272 488,271 488,271 488,270 488,269 488,269 488,269 488,268 488,268 488,268 488,267 488,267 488,267 488,267 489,267 489,266 489,266 489,266 489,266 489,265 489,265 489,265 489,265 489,265 489,265 489,265 489,265 490,265 490,265 490,264 490,264 490,264 490,264 490,264 490,264 490,264 490,264 490,264 490,263 490,263 491,263 491,263 491,263 491,263 491,263 491,263 491,263 491,263 491,263 491,263 491,263 491,264 491,264 492,264 492,264 492,264 492,265 492,265 492,265 492,265 492,266 492,266 492,266 492,266 492,266 493,267 493,267 493,267 493,267 493,268 493,268 493,268 493,268 493,268 493,268 493,268 493,268 493,268 494,268 494,268 494,268 494,268 494,268 494,268 494,268 494,268 494,268 494,268 494,268 494,269 494,269 495,269 495,269 495,269 495,269 495,269 495,270 495,270 495,270 495,270 495,270 495,270 495,271 495,271 496,271 496,271 496,272 496,272 496,272 496,273 496,273 496,273 496,273 496,273 496,273 496,273 496,274 497,274 497,274 497,274 497,274 497,274 497,274 497,274 497,274 497,274 497,274 497,274 497,274 497,275 498,275 498,275 498,275 498,275 498,275 498,275 498,275 498,275 498,275 498,274 498,274 498,273 498,273 499,273 499,273 499,273 499,273 499,273 499,274 499,274 499,274 499,274 499,274 499,275 499,275 499,275 500,275 500,275 500,275 500,275 500,275 500,275 500,275 500,275 500,275 500,276 500,276 500,276 500,276 501,276 501,276 501,276 501,276 501,276 501,277 501,277 501,277 501,277 501,278 501,278 501,278 501,278 502,279 502,279 502,279 502,280 502,280 502,280 502,281 502,281 502,282 502,282 502,282 502,283 502,283 503,283 503,284 503,284 503,284 503,285 503,285 503,285 503,286 503,286 503,286 503,286 503,287 503,287 504,287 504,287 504,287 504,288 504,288 504,288 504,288 504,288 504,288 504,288 504,289 504,289 504,289 505,289 505,289 505,289 505,289 505,289 505,289 505,289 505,289 505,289 505,290 505,290 505,290 505,290 506,290 506,290 506,290 506,290 506,291 506,291 506,291 506,291 506,291 506,291 506,291 506,291 506,291 507,291 507,291 507,291 507,291 507,292 507,292 507,292 507,292 507,292 507,292 507,292 507,292 507,292 508,292 508,293 508,293 508,293 508,293 508,293 508,293 508,293 508,293 508,293 508,293 508,293 508,293 509,293 509,293 509,293 509,293 509,293 509,293 509,293 509,292 509,292 509,292 509,292 509,292 509,292 510,292 510,292 510,292 510,292 510,292 510,292 510,292 510,292 510,292 510,292 510,291 510,291 510,291 511,291 511,291 511,291 511,291 511,291 511,291 511,291 511,291 511,291 511,290 511,290 511,290 512,290 512,290 512,290 512,290 512,290 512,290 512,290 512,290 512,289 512,289 512,289 512,289 512,289 513,288 513,288 513,288 513,288 513,288 513,288 513,287 513,287 513,287 513,287 513,287 513,287 513,287 514,287 514,287 514,287 514,287 514,287 514,287 514,287 514,287 514,288 514,288 514,288 514,288 514,288 515,288 515,288 515,288 515,288 515,288 515,288 515,288 515,288 515,288 515,288 515,288 515,288 515,288 516,289 516,289 516,289 516,289 516,290 516,290 516,290 516,290 516,290 516,291 516,291 516,291 516,291 517,291 517,292 517,292 517,292 517,292 517,292 517,293 517,293 517,293 517,293 517,293 517,294 517,294 518,294 518,294 518,294 518,294 518,295 518,295 518,295 518,295 518,295 518,295 518,296 518,296 518,296 519,296 519,296 519,296 519,297 519,297 519,297 519,297 519,297 519,297 519,297 519,298 519,298 519,298 520,298 520,298 520,298 520,298 520,299 520,299 520,299 520,299 520,299 520,299 520,300 520,300 520,300 521,300 521,300 521,300 521,301 521,301 521,301 521,301 521,301 521,302 521,302 521,302 521,302 521,303 522,303 522,303 522,303 522,303 522,303 522,303 522,303 522,303 522,303 522,303 522,303 522,303 522,303 523,303 523,303 523,303 523,303 523,302 523,303 523,303 523,303 523,303 523,303 523,303 523,303 523,303 524,303 524,303 524,303 524,303 524,303 524,303 524,303 524,303 524,303 524,304 524,304 524,304 524,304 525,304 525,304 525,304 525,304 525,304 525,304 525,305 525,305 525,305 525,305 525,305 525,305 525,306 526,306 526,306 526,306 526,306 526,306 526,306 526,307 526,307 526,307 526,307 526,307 526,307 526,307 527,307 527,307 527,307 527,307 527,307 527,307 527,307 527,308 527,308 527,308 527,308 527,308 527,308 528,309 528,309 528,309 528,309 528,309 528,310 528,310 528,310 528,310 528,310 528,310 528,311 528,311 529,311 529,311 529,311 529,312 529,312 529,312 529,312 529,312 529,312 529,313 529,313 529,313 529,313 530,313 530,313 530,314 530,315 530,315 530,315 530,315 530,314 530,315 530,315 530,315 530,315 531,314 531,315 531,315 531,315 531,315 531,315 531,315 531,316 531,316 531,316 531,316 531,316 531,317 532,317 532,317 532,317 532,317 532,317 532,317 532,317 532,317 532,318 532,318 532,318 532,318 532,318 533,318 533,318 533,318 533,318 533,318 533,318 533,318 533,318 533,318 533,318 533,318 533,318 533,318 534,318 534,319 534,319 534,319 534,320 534,320 534,321 534,321 534,322 534,322 534,323 534,323 534,323 535,324 535,324 535,324 535,325 535,325 535,325 535,325 535,325 535,325 535,325 535,325 535,325 535,326 536,326 536,326 536,326 536,326 536,327 536,327 536,327 536,327 536,327 536,327 536,327 536,327 536,327 537,327 537,327 537,326 537,326 537,326 537,326 537,326 537,326 537,326 537,326 537,326 537,325 537,325 538,325 538,325 538,325 538,325 538,325 538,325 538,325 538,325 538,325 538,324 538,324 538,324 538,324 539,324 539,324 539,324 539,324 539,325 539,325 539,325 539,325 539,325 539,325 539,325 539,325 539,325 540,325 540,325 540,325 540,326 540,326 540,326 540,326 540,326 540,326 540,327 540,327 540,327 540,327 541,327 541,328 541,328 541,328 541,328 541,328 541,328 541,328 541,328 541,328 541,328 541,327 541,327 542,327 542,327 542,327 542,327 542,327 542,327 542,327 542,327 542,327 542,326 542,326 542,326 542,326 543,326 543,326 543,326 543,326 543,325 543,325 543,325 543,325 543,325 543,324 543,324 543,324 543,323 544,323 544,323 544,323 544,323 544,323 544,323 544,323 544,323 544,323 544,323 544,323 544,323 544,323 545,324 545,324 545,325 545,325 545,325 545,326 545,326 545,327 545,327 545,327 545,328 545,328 545,328 546,329 546,329 546,329 546,329 546,330 546,330 546,330 546,330 546,330 546,331 546,331 546,331 546,331 547,331 547,332 547,332 547,332 547,332 547,333 547,333 547,333 547,333 547,333 547,333 547,333 547,333 548,332 548,332 548,332 548,332 548,332 548,332 548,332 548,332 548,332 548,331 548,331 548,331 548,331 549,331 549,331 549,331 549,331 549,331 549,331 549,331 549,331 549,331 549,330 549,330 549,330 550,330 550,330 550,330 550,330 550,330 550,330 550,330 550,329 550,329 550,329 550,329 550,329 550,328 551,328 551,328 551,327 551,327 551,327 551,327 551,327 551,326 551,326 551,326 551,326 551,326 551,326 552,326 552,325 552,325 552,325 552,325 552,325 552,325 552,325 552,324 552,324 552,324 552,324 552,324 553,324 553,324 553,324 553,324 553,324 553,324 553,324 553,324 553,324 553,324 553,324 553,325 553,325 554,325 554,325 554,325 554,325 554,325 554,325 554,325 554,326 554,326 554,326 554,326 554,326 554,326 555,327 555,327 555,327 555,327 555,327 555,327 555,327 555,328 555,328 555,328 555,328 555,328 555,328 556,329 556,329 556,329 556,329 556,329 556,329 556,329 556,329 556,330 556,330 556,330 556,330 556,330 557,330 557,330 557,330 557,330 557,330 557,331 557,331 557,331 557,331 557,331 557,331 557,331 557,331 558,331 558,331 558,331 558,331 558,331 558,331 558,332 558,332 558,332 558,332 558,333 558,333 558,333 559,332 559,332 559,332 559,332 559,332 559,332 559,332 559,332 559,333 559,333 559,333 559,333 559,333 560,333 560,333 560,333 560,333 560,333 560,333 560,333 560,333 560,333 560,333 560,334 560,334 560,334 561,334 561,334 561,334 561,334 561,334 561,334 561,335 561,335 561,335 561,335 561,335 561,335 561,336 562,336 562,336 562,336 562,336 562,336 562,336 562,336 562,336 562,336 562,336 562,336 562,337 562,337 563,337 563,337 563,337 563,337 563,337 563,337 563,337 563,337 563,337 563,337 563,337 563,337 563,337 564,337 564,337 564,337 564,337 564,338 564,338 564,338 564,338 564,338 564,338 564,338 564,338 564,338 565,338 565,338 565,338 565,338 565,338 565,338 565,338 565,338 565,338 565,338 565,338 565,338 565,338 566,338 566,338 566,338 566,338 566,338 566,338 566,338 566,338 566,338 566,338 566,338 566,338 566,338 567,338 567,338 567,338 567,338 567,338 567,338 567,338 567,338 567,338 567,338 567,338 567,338 567,338 568,338 568,338 568,338 568,338 568,339 568,339 568,339 568,339 568,339 568,339 568,339 568,339 569,339 569,339 569,339 569,339 569,339 569,339 569,339 569,339 569,339 569,339 569,339 569,339 569,339 570,339 570,339 570,339 570,339 570,339 570,339 570,339 570,339 570,339 570,339 570,339 570,339 570,339 571,339 571,339 571,339 571,339 571,339 571,339 571,339 571,339 571,339 571,339 571,339 571,339 571,339 572,339 572,339 572,338 572,338 572,338 572,338 572,338 572,338 572,338 572,338 572,338 572,338 572,338 573,338 573,338 573,338 573,338 573,338 573,338 573,338 573,338 573,338 573,338 573,338 573,338 573,338 574,338 574,338 574,338 574,338 574,338 574,338 574,338 574,338 574,338 574,338 574,338 574,338 574,338 575,337 575,337 575,338 575,338 575,338 575,338 575,338 575,338 575,338 575,338 575,338 575,338 575,338 576,338 576,338 576,338 576,338 576,338 576,338 576,339 576,339 576,339 576,339 576,339 576,339 576,339 577,339 577,339 577,339 577,339 577,339 577,339 577,339 577,339 577,339 577,339 577,339 577,339 577,339 578,340 578,340 578,340 578,340 578,340 578,340 578,340 578,340 578,340 578,340 578,340 578,340 578,340 579,340 579,340 579,340 579,340 579,340 579,341 579,341 579,341 579,341 579,342 579,342 579,342 579,343 580,343 580,343 580,343 580,343 580,344 580,344 580,344 580,344 580,344 580,344 580,344 580,344 580,344 581,343 581,343 581,343 581,343 581,342 581,342 581,342 581,342 581,341 581,341 581,341 581,341 581,341 582,341 582,340 582,340 582,340 582,340 582,340 582,340 582,340 582,340 582,339 582,339 582,339 582,339 583,339 583,339 583,338 583,338 583,338 583,338 583,338 583,338 583,338 583,338 583,338 583,338 583,338 584,338 584,338 584,338 584,338 584,338 584,338 584,338 584,338 584,338 584,338 584,338 584,338 584,338 585,338 585,338 585,338 585,338 585,338 585,338 585,338 585,338 585,338 585,338 585,338 585,338 585,338 586,337 586,337 586,338 586,338 586,338 586,338 586,338 586,338 586,339 586,339 586,339 586,339 586,339 587,339 587,340 587,340 587,340 587,340 587,340 587,340 587,340 587,340 587,340 587,340 587,340 588,340 588,340 588,340 588,341 588,341 588,340 588,341 588,341 588,340 588,340 588,340 588,340 588,340 589,340 589,340 589,340 589,340 589,339 589,339 589,339 589,339 589,339 589,339 589,339 589,339 589,339 590,339 590,339 590,339 590,339 590,339 590,339 590,339 590,339 590,338 590,338 590,338 590,338 590,338 591,338 591,338 591,339 591,339 591,339 591,339 591,339 591,339 591,339 591,340 591,340 591,340 591,340 592,340 592,340 592,341 592,341 592,341 592,341 592,342 592,342 592,342 592,342 592,342 592,343 592,343 593,343 593,343 593,343 593,343 593,343 593,343 593,343 593,343 593,343 593,342 593,342 593,342 593,342 594,342 594,342 594,342 594,342 594,342 594,342 594,342 594,342 594,342 594,341 594,341 594,341 594,341 595,341 595,341 595,341 595,341 595,341 595,341 595,341 595,341 595,341 595,341 595,341 595,341 595,341 596,341 596,341 596,340 596,340 596,340 596,340 596,340 596,340 596,340 596,340 596,340 596,340 596,340 597,340 597,340 597,340 597,340 597,339 597,339 597,339 597,339 597,339 597,339 597,339 597,339 597,339 598,339 598,339 598,339 598,339 598,339 598,338 598,338 598,338 598,338 598,338 598,338 598,339 598,339 599,339 599,339 599,339 599,339 599,339 599,339 599,340 599,340 599,340 599,340 599,340 599,340 599,340 600,340 600,340 600,341 600,341 600,341 600,341 600,341 600,341 600,341 600,341 600,341 600,341 600,341 601,341 601,341 601,340 601,340 601,340 601,340 601,340 601,340 601,340 601,340 601,341 601,341 601,341 602,341 602,341 602,341 602,341 602,341 602,341 602,341 602,340 602,340 602,340 602,340 602,340 602,340 603,340 603,340 603,339 603,339 603,339 603,339 603,339 603,339 603,339 603,339 603,339 603,339 603,339 604,339 604,339 604,339 604,339 604,339 604,339 604,339 604,339 604,339 604,339 604,339 604,339 604,339 605,339 605,340 605,340 605,340 605,340 605,340 605,340 605,340 605,340 605,340 605,340 605,340 605,340 606,340 606,340 606,340 606,340 606,340 606,340 606,340 606,340 606,340 606,340 606,340 606,340 607,340 607,340 607,340 607,340 607,340 607,340 607,340 607,340 607,340 607,340 607,340 607,340 607,340 608,340 608,340 608,340 608,340 608,340 608,340 608,340 608,340 608,340 608,340 608,340 608,340 608,340 609,340 609,339 609,339 609,339 609,339 609,339 609,339 609,339 609,339 609,339 609,339 609,339 609,339 610,339 610,339 610,339 610,339 610,339 610,339 610,339 610,339 610,339 610,339 610,339 610,339 610,339 611,339 611,338 611,338 611,338 611,338 611,339 611,339 611,339 611,339 611,339 611,339 611,339 611,339 612,339 612,339 612,339 612,339 612,339 612,339 612,339 612,340 612,340 612,340 612,340 612,340 612,340 613,340 613,340 613,340 613,341 613,341 613,341 613,341 613,341 613,341 613,341 613,341 613,341 613,341 614,341 614,341 614,341 614,341 614,341 614,341 614,341 614,342 614,342 614,342 614,342 614,342 614,342 615,342 615,342 615,342 615,342 615,342 615,342 615,342 615,342 615,342 615,342 615,343 615,343 615,343 616,343 616,343 616,343 616,343 616,343 616,343 616,344 616,344 616,344 616,344 616,344 616,344 616,344 617,344 617,345 617,345 617,345 617,345 617,345 617,345 617,346 617,346 617,346 617,346 617,346 617,347 618,347 618,347 618,347 618,347 618,347 618,347 618,348 618,348 618,348 618,348 618,348 618,348 618,348 619,348 619,348 619,348 619,348 619,348 619,348 619,348 619,348 619,348 619,349 619,349 619,349 619,349 620,349 620,349 620,348 620,348 620,348 620,348 620,348 620,348 620,348 620,348 620,348 620,347 620,347 621,347 621,347 621,347 621,347 621,347 621,347 621,346 621,346 621,346 621,346 621,346 621,346 621,346 622,346 622,346 622,345 622,345 622,345 622,345 622,345 622,345 622,345 622,345 622,345 622,345 622,345 623,345 623,345 623,345 623,345 623,345 623,344 623,344 623,344 623,344 623,344 623,344 623,344 623,343 624,343 624,343 624,342 624,342 624,342 624,341 624,341 624,341 624,340 624,340 624,340 624,340 624,340 625,340 625,340 625,340 625,340 625,340 625,340 625,340 625,340 625,340 625,340 625,341 625,341 626,341 626,341 626,341 626,341 626,341 626,341 626,342 626,342 626,342 626,342 626,342 626,342 626,342 627,343 627,343 627,343 627,343 627,344 627,344 627,344 627,344 627,344 627,345 627,345 627,345 627,345 628,346 628,346 628,347 628,347 628,348 628,348 628,348 628,348 628,349 628,349 628,350 628,350 628,350 629,351 629,351 629,352 629,352 629,353 629,353 629,354 629,354 629,355 629,355 629,355 629,355 629,356 630,356 630,356 630,356 630,356 630,355 630,355 630,355 630,354 630,354 630,354 630,354 630,354 630,354 631,354 631,354 631,354 631,354 631,355 631,355 631,355 631,355 631,355 631,355 631,355 631,355 631,355 632,354 632,354 632,354 632,354 632,353 632,353 632,353 632,353 632,353 632,353 632,353 632,353 632,353 633,353 633,353 633,353 633,353 633,353 633,353 633,353 633,353 633,354 633,354 633,354 633,354 633,354 634,354 634,354 634,354 634,354 634,354 634,353 634,353 634,353 634,353 634,353 634,353 634,353 634,354 635,354 635,354 635,354 635,354 635,354 635,355 635,355 635,355 635,355 635,355 635,355 635,354 635,354 636,354 636,354 636,354 636,354 636,353 636,353 636,353 636,353 636,352 636,352 636,352 636,352 636,352 637,352 637,352 637,352 637,352 637,352 637,352 637,352 637,352 637,352 637,352 637,352 637,352 637,352 638,352 638,352 638,352 638,352 638,353 638,353 638,354 638,354 638,354 638,354 638,354 638,353 638,354 639,353 639,354 639,354 639,354 639,354 639,353 639,352 639,351 639,350 639,350 639,350 639,350 639,350 640,350 640,350 640,349 640,349 640,349 640,349 640,349 640,349 640,349 640,349 640,349 640,349 640,349 641,349 641,349 641,349 641,349 641,349 641,349 641,349 641,349 641,349 641,349 641,349 641,349 641,349 642,349 642,349 642,349 642,349 642,349 642,349 642,349 642,349 642,349 642,349 642,349 642,349 642,349 643,349 643,349 643,349 643,349 643,349 643,349 643,349 643,349 643,349 643,349 643,349 643,349 643,349 644,349 644,349 644,349 644,349 644,349 644,349 644,349 644,349 644,349 644,349 644,349 644,349 645,349 645,349 645,349 645,349 645,349 645,349 645,349 645,349 645,349 645,349 645,349 645,349 645,349 646,349 646,349 646,349 646,349 646,349 646,349 646,349 646,349 646,349 646,349 646,349 646,349 646,349 647,349 647,349 647,349 647,349 647,349 647,349 647,349 647,349 647,349 647,349 647,349 647,349 647,349 648,349 648,349 648,349 648,349 648,349 648,349 648,349 648,349 648,349 648,349 648,349 648,349 648,349 649,349 649,349 649,349 649,349 649,349 649,349 649,349 649,349 649,349 649,349 649,349 649,349 649,349 650,349 650,349 650,349 650,349 650,349 650,349 650,349 650,349 650,349 650,349 650,349 650,349 650,349 651,349 651,349 651,349 651,349 651,349 651,349 651,349 651,349 651,349 651,349 651,349 651,349 651,349 652,350 652,350 652,350 652,350 652,350 652,350 652,350 652,350 652,350 652,350 652,349 652,349 652,349 653,349 653,349 653,349 653,349 653,349 653,349 653,349 653,349 653,349 653,349 653,349 653,349 653,349 654,349 654,349 654,349 654,349 654,349 654,349 654,349 654,349 654,349 654,349 654,349 654,349 654,350 655,350 655,350 655,350 655,350 655,350 655,350 655,350 655,350 655,350 655,350 655,350 655,350 655,350 656,350 656,350 656,350 656,350 656,350 656,351 656,351 656,351 656,351 656,351 656,351 656,351 656,351 657,351 657,351 657,351 657,351 657,351 657,351 657,351 657,351 657,351 657,351 657,351 657,351 657,351 658,351 658,351 658,351 658,351 658,351 658,351 658,351 658,351 658,351 658,352 658,352 658,352 658,352 659,352 659,352 659,352 659,352 659,352 659,352 659,352 659,352 659,352 659,352 659,352 659,352 659,352 660,351 660,351 660,351 660,351 660,351 660,351 660,351 660,352 660,352 660,352 660,352 660,352 660,352 661,352 661,352 661,352 661,352 661,352 661,352 661,352 661,352 661,352 661,352 661,352 661,352 661,352 662,353 662,353 662,353 662,353 662,353 662,353 662,353 662,353 662,353 662,353 662,353 662,353 662,353 663,353 663,353 663,353 663,353 663,353 663,353 663,353 663,353 663,353 663,353 663,353 663,353 664,353 664,353 664,353 664,353 664,353 664,353 664,353 664,353 664,353 664,353 664,353 664,353 664,353 665,353 665,353 665,353 665,353 665,353 665,353 665,353 665,353 665,353 665,353 665,353 665,353 665,353 666,353 666,353 666,353 666,353 666,353 666,353 666,353 666,354 666,354 666,354 666,354 666,354 666,354 667,354 667,354 667,354 667,354 667,354 667,354 667,354 667,354 667,354 667,354 667,354 667,354 667,354 668,354 668,354 668,354 668,354 668,354 668,354 668,354 668,354 668,354 668,354 668,354 668,354 668,354 669,354 669,354 669,354 669,354 669,354 669,354 669,354 669,354 669,354 669,354 669,354 669,354 669,354 670,354 670,354 670,354 670,354 670,354 670,354 670,354 670,354 670,354 670,354 670,354 670,354 670,354 671,354 671,354 671,354 671,354 671,354 671,354 671,354 671,354 671,354 671,354 671,353 671,353 671,353 672,353 672,353 672,353 672,353 672,353 672,353 672,353 672,353 672,353 672,353 672,353 672,353 672,353 673,353 673,353 673,353 673,353 673,353 673,353 673,353 673,353 673,353 673,353 673,353 673,353 673,353 674,353 674,353 674,353 674,353 674,353 674,353 674,353 674,353 674,353 674,353 674,353 674,353 674,353 675,353 675,353 675,353 675,353 675,353 675,353 675,353 675,354 675,354 675,354 675,354 675,354 675,354 676,354 676,354 676,354 676,354 676,354 676,354 676,354 676,354 676,354 676,354 676,354 676,354 676,354 677,354 677,354 677,354 677,354 677,354 677,354 677,354 677,354 677,354 677,354 677,354 677,354 677,354 678,354 678,354 678,354 678,354 678,354 678,354 678,354 678,354 678,354 678,354 678,354 678,354 678,354 679,354 679,354 679,354 679,354 679,354 679,354 679,354 679,354 679,354 679,354 679,354 679,354 679,354 680,354 680,354 680,354 680,354 680,354 680,354 680,354 680,354 680,354 680,354 680,354 680,354 680,354 681,354 681,354 681,354 681,354 681,354 681,354 681,354 681,354 681,354 681,354 681,354 681,354 682,354 682,354 682,354 682,354 682,354 682,354 682,355 682,355 682,355 682,355 682,355 682,355 682,355 683,355 683,355 683,355 683,355 683,355 683,355 683,355 683,355 683,355 683,355 683,355 683,355 683,355 684,355 684,355 684,355 684,355 684,355 684,355 684,355 684,355 684,355 684,355 684,355 684,355 684,355 685,355 685,355 685,355 685,355 685,355 685,355 685,355 685,355 685,355 685,355 685,355 685,355 685,355 686,355 686,355 686,355 686,355 686,355 686,355 686,355 686,355 686,355 686,355 686,355 686,355 686,355 687,355 687,355 687,355 687,355 687,355 687,355 687,355 687,355 687,355 687,355 687,355 687,355 687,355 688,355 688,355 688,355 688,355 688,355 688,355 688,355 688,355 688,355 688,355 688,355 688,355 688,355 689,355 689,355 689,355 689,355 689,355 689,355 689,355 689,355 689,355 689,355 689,355 689,355 689,355 690,355 690,355 690,355 690,355 690,355 690,355 690,355 690,355 690,355 690,355 690,355 690,355 690,355 691,355 691,355 691,355 691,355 691,355 691,355 691,355 691,355 691,355 691,355 691,355 691,355 691,355 692,355 692,355 692,355 692,355 692,355 692,355 692,355 692,355 692,355 692,355 692,355 692,355 692,355 693,355 693,355 693,355 693,355 693,355 693,355 693,355 693,355 693,355 693,355 693,355 693,355 693,355 694,355 694,355 694,355 694,354 694,354 694,354 694,354 694,354 694,354 694,354 694,354 694,354 694,354 695,354 695,354 695,354 695,354 695,354 695,354 695,354 695,354 695,354 695,354 695,354 695,354 695,354 696,354 696,354 696,354 696,354 696,354 696,354 696,354 696,354 696,354 696,354 696,354 696,354 696,354 697,354 697,354 697,353 697,353 697,353 697,353 697,353 697,353 697,353 697,353 697,353 697,353 697,353 698,353 698,353 698,353 698,353 698,353 698,353 698,353 698,353 698,353 698,353 698,353 698,353 698,353 699,353 699,353 699,353 699,353 699,353 699,353 699,353 699,353 699,353 699,352 699,352 699,352 699,352 700,352 700,352 700,352 700,352 700,352 700,352 700,352 700,352 700,352 700,352 700,352 700,352 701,352 701,352 701,351 701,351 701,351 701,351 701,351 701,351 701,351 701,351 701,351 701,351 701,350 702,350 702,350 702,350 702,350 702,350 702,350 702,349 702,349 702,349 702,349 702,349 702,349 702,349 703,348 703,348 703,348 703,348 703,348 703,347 703,347 703,347 703,347 703,347 703,347 703,347 703,347 704,346 704,346 704,346 704,346 704,346 704,346 704,346 704,346 704,346 704,345 704,345 704,345 704,345 705,345 705,345 705,345 705,345 705,345 705,345 705,345 705,345 705,345 705,344 705,344 705,344 705,344 706,344 706,344 706,344 706,344 706,344 706,344 706,344 706,344 706,344 706,344 706,344 706,344 706,344 707,344 707,344 707,343 707,343 707,343 707,343 707,343 707,343 707,343 707,343 707,343 707,343 707,343 708,343 708,343 708,343 708,343 708,343 708,343 708,343 708,343 708,343 708,343 708,343 708,343 708,343 709,343 709,343 709,343 709,343 709,343 709,343 709,343 709,343 709,343 709,343 709,343 709,343 709,343 710,343 710,343 710,343 710,343 710,343 710,343 710,343 710,343 710,343 710,343 710,343 710,343 710,343 711,343 711,343 711,343 711,343 711,343 711,343 711,343 711,343 711,343 711,343 711,343 711,343 711,343 712,343 712,343 712,343 712,343 712,343 712,343 712,343 712,343 712,343 712,343 712,343 712,343 712,343 713,343 713,343 713,343 713,343 713,343 713,343 713,343 713,343 713,343 713,343 713,343 713,343 713,343 714,343 714,343 714,343 714,343 714,343 714,343 714,343 714,343 714,344 714,344 714,344 714,344 714,344 715,344 715,344 715,344 715,344 715,344 715,344 715,344 715,344 715,344 715,344 715,344 715,344 715,344 716,344 716,344 716,344 716,344 716,344 716,344 716,344 716,344 716,344 716,344 716,344 716,344 716,344 717,344 717,344 717,344 717,344 717,344 717,344 717,344 717,344 717,344 717,345 717,345 717,344 717,344 718,344 718,344 718,344 718,344 718,344 718,345 718,345 718,345 718,345 718,345 718,345 718,345 718,345 719,345 719,345 719,345 719,345 719,345 719,345 719,345 719,345 719,345 719,345 719,345 719,345 720,345 720,345 720,345 720,345 720,345 720,345 720,345 720,345 720,345 720,345 720,345 720,345 720,345 721,345 721,346 721,346 721,346 721,346 721,346 721,346 721,346 721,346 721,346 721,346 721,346 721,346 722,346 722,346 722,346 722,346 722,346 722,346 722,346 722,346 722,346 722,346 722,346 722,346 722,346 723,346 723,346 723,346 723,347 723,347 723,347 723,347 723,347 723,347 723,347 723,347 723,348 723,348 724,348 724,348 724,348 724,348 724,348 724,348 724,348 724,348 724,348 724,348 724,348 724,348 724,348 725,348 725,348 725,348 725,348 725,348 725,348 725,348 725,348 725,348 725,348 725,349 725,349 725,349 726,349 726,349 726,349 726,349 726,349 726,349 726,349 726,349 726,349 726,349 726,349 726,349 726,349 727,349 727,349 727,349 727,349 727,349 727,349 727,349 727,349 727,349 727,349 727,349 727,349 727,349 728,349 728,349 728,349 728,349 728,349 728,349 728,349 728,349 728,350 728,350 728,350 728,350 728,350 729,350 729,350 729,350 729,350 729,350 729,350 729,350 729,350 729,350 729,350 729,350 729,350 729,350 730,350 730,351 730,351 730,351 730,351 730,351 730,351 730,350 730,350 730,350 730,350 730,351 730,351 731,351 731,351 731,351 731,351 731,351 731,351 731,351 731,351 731,351 731,351 731,351 731,351 731,351 732,351 732,351 732,351 732,351 732,351 732,351 732,351 732,351 732,351 732,351 732,351 732,351 732,351 733,351 733,351 733,351 733,351 733,351 733,351 733,351 733,351 733,351 733,351 733,351 733,351 733,351 734,351 734,351 734,351 734,351 734,351 734,351 734,350 734,350 734,350 734,350 734,350 734,350 734,350 735,350 735,350 735,350 735,350 735,350 735,349 735,349 735,349 735,349 735,349 735,349 735,349 735,349 736,349 736,349 736,349 736,348 736,348 736,348 736,348 736,348 736,348 736,348 736,348 " vector-effect="non-scaling-stroke"></polyline>
</g></svg>