<?xml version="1.0" encoding="UTF-8" standalone="no"?><svg width="282.222mm" height="141.111mm" xmlns="http://www.w3.org/2000/svg" xmlns:xlink="http://www.w3.org/1999/xlink"  version="1.2" baseProfile="tiny"><g fill="none" stroke="#ff0000" stroke-linecap="round" stroke-linejoin="round" stroke-opacity="1" stroke-width="1.5" transform="matrix(1,0,0,1,0,0)">
<polyline fill="none" points="27,329 27,329 27,329 27,330 27,330 27,330 27,330 27,330 28,330 28,330 28,330 28,330 28,330 28,330 28,330 28,330 28,330 28,330 28,330 28,330 28,330 29,330 29,330 29,330 29,330 29,331 29,331 29,331 29,331 29,331 29,331 29,331 29,331 29,330 30,330 30,330 30,330 30,330 30,330 30,330 30,330 30,330 30,331 30,331 30,331 30,331 30,330 31,331 31,331 31,331 31,331 31,331 31,331 31,331 31,332 31,332 31,332 31,332 31,332 31,333 32,333 32,333 32,333 32,332 32,332 32,332 32,332 32,332 32,332 32,332 32,332 32,332 32,333 33,333 33,333 33,333 33,333 33,333 33,333 33,333 33,333 33,333 33,332 33,332 33,332 33,333 34,333 34,333 34,333 34,333 34,332 34,333 34,333 34,332 34,332 34,332 34,332 34,332 34,332 35,332 35,332 35,332 35,332 35,332 35,333 35,332 35,332 35,332 35,332 35,332 35,332 35,332 36,332 36,332 36,332 36,332 36,332 36,331 36,331 36,331 36,331 36,331 36,331 36,330 37,330 37,331 37,331 37,331 37,331 37,331 37,331 37,331 37,331 37,330 37,330 37,330 37,330 38,330 38,329 38,329 38,329 38,329 38,329 38,329 38,329 38,329 38,329 38,329 38,329 38,329 39,329 39,329 39,329 39,329 39,329 39,329 39,329 39,329 39,329 39,328 39,328 39,328 39,328 40,328 40,328 40,328 40,328 40,328 40,328 40,328 40,328 40,328 40,328 40,328 40,328 40,328 41,328 41,328 41,328 41,328 41,328 41,328 41,328 41,328 41,328 41,328 41,328 41,328 41,328 42,328 42,328 42,327 42,327 42,327 42,327 42,327 42,327 42,327 42,327 42,327 42,327 42,327 43,327 43,327 43,327 43,327 43,327 43,327 43,327 43,327 43,327 43,327 43,327 43,327 43,327 44,327 44,327 44,327 44,327 44,327 44,327 44,327 44,327 44,327 44,326 44,326 44,326 44,326 45,326 45,326 45,326 45,326 45,326 45,326 45,326 45,325 45,325 45,325 45,325 45,325 45,324 46,324 46,324 46,324 46,324 46,324 46,324 46,324 46,324 46,324 46,324 46,324 46,323 46,323 47,323 47,323 47,323 47,323 47,323 47,323 47,323 47,323 47,323 47,323 47,323 47,323 47,323 48,322 48,322 48,322 48,322 48,322 48,322 48,322 48,322 48,322 48,322 48,322 48,322 48,322 49,322 49,322 49,322 49,322 49,322 49,322 49,322 49,322 49,321 49,321 49,321 49,321 49,321 50,321 50,321 50,321 50,321 50,321 50,321 50,321 50,321 50,320 50,320 50,320 50,320 50,320 51,320 51,320 51,320 51,320 51,320 51,320 51,320 51,319 51,319 51,319 51,319 51,319 51,319 52,319 52,319 52,319 52,319 52,319 52,319 52,319 52,319 52,319 52,319 52,319 52,319 52,318 53,318 53,318 53,318 53,318 53,318 53,318 53,318 53,318 53,318 53,318 53,318 53,318 53,318 54,318 54,318 54,318 54,318 54,318 54,317 54,317 54,317 54,317 54,317 54,317 54,317 54,317 55,317 55,317 55,317 55,317 55,317 55,317 55,317 55,317 55,317 55,317 55,317 55,317 56,317 56,317 56,317 56,316 56,316 56,316 56,316 56,316 56,316 56,316 56,316 56,316 56,316 57,316 57,316 57,316 57,316 57,316 57,316 57,316 57,316 57,316 57,316 57,316 57,317 57,317 58,317 58,317 58,317 58,317 58,316 58,316 58,316 58,316 58,315 58,315 58,315 58,315 58,314 59,314 59,314 59,314 59,314 59,314 59,314 59,313 59,313 59,313 59,313 59,313 59,313 59,313 60,313 60,313 60,312 60,312 60,312 60,312 60,312 60,312 60,312 60,312 60,312 60,312 60,312 61,312 61,312 61,311 61,311 61,311 61,311 61,311 61,311 61,311 61,311 61,311 61,310 61,310 62,310 62,310 62,310 62,310 62,310 62,310 62,310 62,310 62,310 62,310 62,310 62,310 62,310 63,310 63,310 63,310 63,310 63,310 63,310 63,309 63,309 63,309 63,309 63,309 63,309 63,309 64,309 64,308 64,308 64,308 64,308 64,308 64,309 64,309 64,309 64,308 64,308 64,308 64,308 65,308 65,308 65,307 65,307 65,307 65,307 65,307 65,308 65,308 65,307 65,307 65,307 65,307 66,307 66,307 66,307 66,307 66,307 66,307 66,306 66,306 66,306 66,306 66,306 66,306 66,306 67,306 67,306 67,305 67,305 67,305 67,305 67,305 67,304 67,304 67,304 67,304 67,304 67,304 68,303 68,303 68,303 68,303 68,303 68,303 68,303 68,303 68,303 68,303 68,303 68,302 68,303 69,303 69,303 69,303 69,303 69,303 69,303 69,303 69,303 69,303 69,303 69,303 69,302 69,302 70,302 70,302 70,302 70,302 70,302 70,302 70,302 70,302 70,302 70,302 70,302 70,302 70,301 71,301 71,301 71,301 71,301 71,301 71,300 71,300 71,300 71,300 71,300 71,300 71,300 71,300 72,300 72,300 72,300 72,300 72,299 72,299 72,299 72,299 72,299 72,299 72,298 72,298 72,298 73,298 73,298 73,298 73,298 73,298 73,298 73,297 73,297 73,297 73,297 73,297 73,297 74,297 74,297 74,296 74,296 74,296 74,296 74,296 74,296 74,296 74,296 74,296 74,296 74,296 75,296 75,296 75,295 75,295 75,295 75,295 75,295 75,295 75,295 75,294 75,294 75,294 75,294 76,294 76,294 76,294 76,294 76,294 76,294 76,294 76,293 76,293 76,293 76,293 76,292 76,292 77,292 77,292 77,292 77,292 77,292 77,292 77,292 77,292 77,292 77,292 77,292 77,292 77,291 78,291 78,291 78,291 78,291 78,291 78,291 78,291 78,290 78,290 78,290 78,289 78,289 78,289 79,289 79,289 79,288 79,288 79,288 79,288 79,288 79,288 79,288 79,288 79,288 79,287 79,287 80,287 80,287 80,287 80,287 80,287 80,287 80,287 80,286 80,286 80,286 80,286 80,286 80,286 81,286 81,286 81,285 81,285 81,285 81,285 81,285 81,285 81,284 81,284 81,284 81,284 81,284 82,284 82,283 82,283 82,282 82,282 82,282 82,282 82,281 82,281 82,281 82,281 82,281 82,281 83,281 83,281 83,281 83,281 83,281 83,280 83,280 83,280 83,279 83,279 83,279 83,278 83,278 84,278 84,278 84,278 84,278 84,278 84,278 84,277 84,277 84,277 84,277 84,277 84,277 84,277 85,277 85,277 85,277 85,276 85,276 85,276 85,276 85,276 85,276 85,276 85,276 85,276 85,276 86,276 86,276 86,277 86,277 86,277 86,277 86,278 86,278 86,278 86,278 86,278 86,278 86,278 87,278 87,278 87,277 87,277 87,277 87,276 87,276 87,276 87,275 87,275 87,274 87,273 87,272 88,271 88,270 88,269 88,268 88,267 88,266 88,265 88,265 88,264 88,263 88,263 88,262 88,261 89,261 89,260 89,259 89,258 89,257 89,257 89,256 89,255 89,255 89,254 89,254 89,253 89,252 90,251 90,252 90,251 90,250 90,250 90,249 90,249 90,248 90,247 90,247 90,247 90,246 90,246 91,245 91,245 91,245 91,244 91,244 91,244 91,243 91,243 91,243 91,243 91,243 91,243 91,242 92,242 92,242 92,241 92,241 92,241 92,241 92,241 92,241 92,240 92,240 92,240 92,240 93,239 93,239 93,238 93,238 93,237 93,237 93,236 93,235 93,235 93,235 93,234 93,233 93,232 94,231 94,229 94,229 94,228 94,228 94,227 94,227 94,226 94,225 94,224 94,224 94,223 94,223 95,222 95,222 95,221 95,221 95,220 95,220 95,219 95,219 95,219 95,219 95,219 95,219 95,219 96,219 96,219 96,220 96,220 96,220 96,220 96,221 96,221 96,222 96,222 96,223 96,223 96,224 97,224 97,225 97,225 97,227 97,227 97,227 97,227 97,227 97,227 97,226 97,226 97,226 97,226 98,226 98,226 98,226 98,227 98,227 98,228 98,229 98,230 98,231 98,231 98,232 98,233 98,234 99,234 99,235 99,235 99,235 99,235 99,235 99,235 99,235 99,235 99,235 99,235 99,235 99,236 100,236 100,237 100,237 100,238 100,238 100,238 100,238 100,238 100,238 100,237 100,238 100,237 100,236 101,236 101,235 101,235 101,235 101,235 101,234 101,233 101,232 101,231 101,231 101,230 101,230 101,230 102,230 102,229 102,228 102,228 102,227 102,226 102,225 102,225 102,224 102,223 102,222 102,222 102,221 103,221 103,220 103,220 103,220 103,219 103,219 103,219 103,218 103,218 103,218 103,218 103,217 103,217 104,216 104,215 104,215 104,213 104,213 104,213 104,212 104,212 104,211 104,211 104,210 104,210 104,210 105,209 105,209 105,209 105,208 105,208 105,207 105,207 105,207 105,206 105,206 105,205 105,205 105,204 106,204 106,204 106,204 106,204 106,204 106,203 106,203 106,202 106,202 106,201 106,201 106,200 106,200 107,199 107,199 107,199 107,198 107,198 107,198 107,198 107,198 107,198 107,198 107,197 107,197 107,197 108,198 108,198 108,198 108,198 108,198 108,198 108,198 108,198 108,198 108,197 108,197 108,197 108,197 109,197 109,197 109,197 109,197 109,196 109,196 109,196 109,195 109,195 109,194 109,194 109,194 109,193 110,193 110,193 110,193 110,192 110,192 110,191 110,191 110,191 110,190 110,190 110,189 110,188 111,187 111,186 111,186 111,185 111,184 111,183 111,182 111,181 111,181 111,180 111,179 111,178 111,177 112,176 112,175 112,174 112,174 112,173 112,172 112,171 112,170 112,170 112,169 112,169 112,168 112,167 113,167 113,167 113,166 113,166 113,165 113,165 113,165 113,165 113,165 113,165 113,165 113,165 113,165 114,165 114,165 114,165 114,166 114,166 114,167 114,167 114,168 114,168 114,169 114,169 114,170 114,170 115,170 115,171 115,171 115,172 115,172 115,173 115,173 115,173 115,174 115,174 115,174 115,175 115,175 116,175 116,175 116,175 116,175 116,175 116,175 116,175 116,175 116,175 116,175 116,175 116,175 116,174 117,174 117,174 117,174 117,173 117,173 117,173 117,173 117,173 117,173 117,173 117,173 117,173 117,173 118,173 118,174 118,174 118,173 118,173 118,172 118,172 118,172 118,173 118,173 118,173 118,173 118,173 119,173 119,173 119,173 119,173 119,173 119,173 119,173 119,173 119,173 119,173 119,173 119,173 119,174 120,174 120,174 120,174 120,174 120,174 120,174 120,174 120,174 120,174 120,174 120,174 120,174 120,175 121,175 121,175 121,175 121,176 121,176 121,176 121,177 121,177 121,177 121,177 121,177 121,178 121,178 122,178 122,178 122,178 122,178 122,179 122,179 122,179 122,180 122,180 122,180 122,181 122,181 122,181 123,182 123,182 123,183 123,183 123,183 123,184 123,184 123,184 123,185 123,185 123,186 123,186 123,187 124,187 124,187 124,187 124,188 124,188 124,188 124,188 124,188 124,189 124,189 124,189 124,189 124,189 125,188 125,188 125,188 125,188 125,188 125,188 125,187 125,187 125,187 125,187 125,187 125,186 125,186 126,185 126,185 126,184 126,184 126,184 126,183 126,183 126,183 126,182 126,182 126,181 126,181 126,181 127,181 127,181 127,180 127,180 127,179 127,179 127,179 127,178 127,178 127,178 127,177 127,177 127,177 128,177 128,177 128,176 128,176 128,176 128,176 128,176 128,176 128,175 128,175 128,175 128,175 128,175 129,175 129,175 129,175 129,176 129,176 129,176 129,176 129,176 129,176 129,176 129,176 129,176 130,176 130,176 130,177 130,177 130,177 130,177 130,177 130,177 130,177 130,177 130,177 130,177 130,177 131,177 131,177 131,177 131,177 131,177 131,177 131,177 131,177 131,177 131,177 131,178 131,178 131,178 132,178 132,178 132,178 132,178 132,178 132,179 132,179 132,179 132,179 132,179 132,179 132,179 132,179 133,179 133,179 133,179 133,179 133,179 133,180 133,180 133,181 133,181 133,182 133,182 133,183 133,184 134,184 134,185 134,185 134,186 134,187 134,187 134,188 134,188 134,188 134,189 134,189 134,189 134,190 135,190 135,190 135,190 135,191 135,191 135,191 135,192 135,192 135,192 135,193 135,193 135,192 135,192 136,191 136,191 136,190 136,189 136,189 136,189 136,188 136,188 136,188 136,188 136,187 136,187 136,187 137,187 137,187 137,187 137,187 137,187 137,187 137,187 137,187 137,187 137,187 137,188 137,188 137,188 138,188 138,187 138,187 138,187 138,187 138,187 138,187 138,187 138,187 138,187 138,187 138,187 138,186 139,186 139,186 139,186 139,185 139,185 139,185 139,185 139,184 139,184 139,184 139,183 139,183 139,183 140,183 140,182 140,182 140,182 140,182 140,182 140,182 140,182 140,182 140,182 140,182 140,182 140,182 141,182 141,182 141,182 141,182 141,182 141,182 141,182 141,182 141,182 141,182 141,183 141,183 141,183 142,183 142,183 142,183 142,183 142,183 142,183 142,184 142,184 142,184 142,184 142,184 142,184 142,184 143,184 143,184 143,184 143,184 143,184 143,184 143,184 143,185 143,185 143,185 143,185 143,186 143,186 144,186 144,187 144,188 144,188 144,189 144,189 144,190 144,191 144,191 144,192 144,192 144,193 144,194 145,194 145,195 145,196 145,196 145,197 145,197 145,198 145,198 145,199 145,199 145,199 145,200 145,200 146,200 146,200 146,201 146,201 146,200 146,200 146,200 146,200 146,199 146,198 146,198 146,197 146,197 147,196 147,196 147,195 147,194 147,194 147,193 147,192 147,192 147,191 147,191 147,190 147,190 148,189 148,189 148,189 148,188 148,188 148,188 148,188 148,188 148,188 148,188 148,188 148,188 148,188 149,188 149,188 149,188 149,188 149,188 149,188 149,188 149,187 149,187 149,187 149,187 149,187 149,187 150,187 150,187 150,187 150,187 150,187 150,188 150,188 150,188 150,188 150,188 150,188 150,189 150,189 151,189 151,189 151,190 151,190 151,190 151,190 151,191 151,191 151,191 151,191 151,192 151,192 151,192 152,192 152,193 152,193 152,193 152,193 152,193 152,194 152,194 152,194 152,194 152,194 152,194 152,195 153,195 153,195 153,195 153,195 153,196 153,196 153,196 153,196 153,197 153,197 153,198 153,198 153,198 154,199 154,199 154,200 154,200 154,201 154,201 154,201 154,202 154,202 154,202 154,203 154,203 154,203 155,203 155,204 155,204 155,204 155,204 155,204 155,204 155,205 155,205 155,205 155,205 155,205 155,205 156,205 156,205 156,205 156,205 156,205 156,204 156,204 156,204 156,204 156,204 156,203 156,203 156,203 157,202 157,202 157,202 157,201 157,200 157,200 157,200 157,200 157,199 157,199 157,199 157,198 157,198 158,198 158,198 158,197 158,197 158,197 158,197 158,197 158,196 158,196 158,196 158,196 158,195 158,195 159,195 159,195 159,194 159,194 159,194 159,194 159,194 159,193 159,193 159,193 159,193 159,193 159,193 160,192 160,192 160,192 160,192 160,192 160,192 160,192 160,192 160,192 160,192 160,192 160,192 160,192 161,192 161,192 161,192 161,192 161,193 161,193 161,193 161,193 161,193 161,193 161,194 161,194 161,194 162,194 162,194 162,195 162,195 162,195 162,196 162,196 162,197 162,197 162,198 162,198 162,199 162,199 163,199 163,200 163,200 163,200 163,201 163,201 163,201 163,202 163,202 163,202 163,202 163,203 163,203 164,203 164,203 164,204 164,204 164,204 164,205 164,205 164,205 164,205 164,205 164,206 164,206 164,206 165,206 165,206 165,207 165,207 165,207 165,207 165,207 165,207 165,208 165,208 165,208 165,208 165,208 166,208 166,208 166,208 166,209 166,209 166,209 166,209 166,209 166,209 166,209 166,209 166,209 167,209 167,209 167,209 167,209 167,209 167,209 167,210 167,210 167,210 167,210 167,210 167,210 167,210 168,210 168,210 168,210 168,210 168,211 168,211 168,211 168,211 168,211 168,211 168,211 168,211 168,211 169,211 169,212 169,212 169,212 169,212 169,212 169,212 169,212 169,212 169,212 169,212 169,212 169,213 170,213 170,213 170,213 170,213 170,213 170,213 170,213 170,213 170,213 170,213 170,214 170,214 170,214 171,214 171,214 171,214 171,214 171,215 171,215 171,215 171,215 171,215 171,215 171,215 171,215 171,215 172,215 172,215 172,215 172,215 172,215 172,215 172,215 172,215 172,215 172,215 172,215 172,215 172,216 173,216 173,216 173,216 173,216 173,216 173,216 173,217 173,217 173,217 173,217 173,217 173,217 173,217 174,217 174,217 174,217 174,217 174,217 174,217 174,218 174,218 174,218 174,218 174,218 174,218 174,218 175,218 175,218 175,218 175,218 175,219 175,219 175,219 175,219 175,219 175,219 175,219 175,219 175,219 176,219 176,219 176,219 176,219 176,219 176,219 176,219 176,219 176,219 176,219 176,218 176,218 176,219 177,219 177,219 177,219 177,219 177,219 177,219 177,219 177,219 177,219 177,219 177,219 177,219 177,219 178,219 178,219 178,219 178,218 178,218 178,218 178,218 178,218 178,218 178,218 178,218 178,218 178,218 179,217 179,217 179,217 179,217 179,217 179,217 179,217 179,217 179,217 179,217 179,217 179,217 179,217 180,218 180,218 180,218 180,218 180,218 180,218 180,218 180,219 180,219 180,219 180,219 180,219 180,219 181,219 181,219 181,219 181,219 181,219 181,219 181,219 181,219 181,219 181,219 181,219 181,220 181,220 182,220 182,220 182,220 182,220 182,220 182,220 182,220 182,220 182,220 182,220 182,220 182,219 182,219 183,219 183,219 183,218 183,218 183,218 183,218 183,218 183,218 183,218 183,218 183,218 183,217 183,217 184,217 184,218 184,218 184,218 184,218 184,218 184,219 184,219 184,219 184,219 184,219 184,220 185,220 185,220 185,220 185,221 185,221 185,222 185,222 185,222 185,222 185,222 185,223 185,223 185,223 186,223 186,223 186,223 186,223 186,223 186,223 186,223 186,223 186,223 186,223 186,223 186,223 186,223 187,222 187,222 187,222 187,222 187,222 187,222 187,223 187,223 187,223 187,223 187,223 187,223 187,223 188,223 188,223 188,223 188,223 188,223 188,223 188,223 188,223 188,223 188,223 188,223 188,223 188,223 189,223 189,223 189,223 189,222 189,223 189,223 189,223 189,223 189,223 189,223 189,223 189,223 189,222 190,222 190,222 190,222 190,222 190,222 190,222 190,222 190,222 190,222 190,222 190,222 190,222 190,222 191,222 191,222 191,222 191,223 191,223 191,223 191,223 191,223 191,224 191,223 191,223 191,223 191,222 192,222 192,222 192,222 192,222 192,222 192,222 192,222 192,223 192,222 192,222 192,222 192,222 192,222 193,222 193,222 193,222 193,222 193,222 193,222 193,221 193,221 193,221 193,221 193,221 193,221 193,220 194,220 194,220 194,220 194,220 194,219 194,219 194,219 194,219 194,219 194,219 194,219 194,219 194,219 195,220 195,220 195,220 195,220 195,220 195,220 195,220 195,220 195,220 195,220 195,220 195,220 195,219 196,219 196,219 196,219 196,218 196,218 196,218 196,218 196,218 196,218 196,218 196,218 196,218 196,218 197,218 197,218 197,218 197,218 197,218 197,218 197,218 197,218 197,218 197,218 197,218 197,218 197,218 198,218 198,218 198,218 198,218 198,217 198,217 198,217 198,217 198,216 198,216 198,216 198,216 198,216 199,216 199,216 199,216 199,216 199,216 199,216 199,215 199,215 199,215 199,215 199,215 199,215 199,215 200,215 200,215 200,215 200,215 200,215 200,215 200,215 200,215 200,215 200,215 200,215 200,214 200,214 201,214 201,214 201,214 201,214 201,214 201,214 201,214 201,214 201,214 201,214 201,214 201,213 201,213 202,213 202,213 202,213 202,213 202,212 202,212 202,212 202,212 202,212 202,212 202,212 202,212 202,212 203,212 203,211 203,211 203,211 203,211 203,211 203,211 203,211 203,211 203,210 203,210 203,210 204,210 204,210 204,209 204,209 204,209 204,209 204,209 204,209 204,209 204,208 204,208 204,208 204,208 205,208 205,207 205,207 205,206 205,206 205,206 205,205 205,205 205,205 205,204 205,204 205,204 205,204 206,204 206,204 206,204 206,204 206,204 206,203 206,203 206,203 206,203 206,203 206,203 206,203 206,203 207,203 207,203 207,203 207,202 207,202 207,202 207,202 207,202 207,202 207,202 207,202 207,202 207,202 208,202 208,202 208,202 208,201 208,201 208,201 208,201 208,200 208,200 208,200 208,200 208,200 208,200 209,200 209,200 209,200 209,200 209,200 209,200 209,200 209,199 209,199 209,199 209,199 209,199 209,199 210,199 210,199 210,200 210,200 210,200 210,200 210,200 210,200 210,200 210,200 210,201 210,201 210,201 211,202 211,202 211,203 211,203 211,204 211,204 211,205 211,205 211,205 211,205 211,205 211,206 211,206 212,206 212,206 212,205 212,205 212,205 212,205 212,205 212,205 212,205 212,205 212,205 212,206 212,206 213,206 213,206 213,206 213,206 213,206 213,206 213,206 213,206 213,206 213,206 213,206 213,207 213,207 214,207 214,207 214,207 214,207 214,207 214,207 214,207 214,207 214,207 214,207 214,208 214,208 214,208 215,208 215,208 215,208 215,208 215,208 215,207 215,207 215,207 215,207 215,207 215,207 215,207 215,207 216,207 216,207 216,207 216,206 216,206 216,206 216,206 216,206 216,205 216,205 216,205 216,205 216,205 217,204 217,204 217,203 217,203 217,203 217,203 217,202 217,202 217,202 217,201 217,201 217,201 217,200 218,200 218,200 218,199 218,199 218,199 218,198 218,198 218,198 218,198 218,198 218,198 218,198 218,197 219,197 219,197 219,197 219,196 219,196 219,195 219,195 219,195 219,195 219,194 219,194 219,194 219,194 220,193 220,193 220,193 220,193 220,192 220,192 220,192 220,192 220,192 220,192 220,191 220,191 220,191 221,191 221,191 221,191 221,191 221,191 221,190 221,190 221,190 221,190 221,190 221,190 221,190 222,190 222,191 222,191 222,191 222,192 222,192 222,192 222,192 222,192 222,192 222,192 222,192 222,192 223,192 223,192 223,193 223,193 223,193 223,193 223,193 223,194 223,194 223,194 223,194 223,194 223,195 224,195 224,195 224,195 224,195 224,196 224,196 224,197 224,197 224,197 224,198 224,198 224,198 224,198 225,198 225,198 225,198 225,198 225,198 225,198 225,198 225,198 225,199 225,199 225,199 225,199 225,200 226,200 226,200 226,200 226,200 226,200 226,200 226,200 226,200 226,200 226,200 226,200 226,200 226,200 227,200 227,200 227,200 227,200 227,200 227,200 227,200 227,200 227,200 227,200 227,200 227,200 227,201 228,201 228,201 228,201 228,201 228,202 228,202 228,202 228,201 228,201 228,201 228,201 228,201 228,201 229,201 229,201 229,201 229,201 229,201 229,200 229,200 229,200 229,200 229,200 229,200 229,200 229,200 230,200 230,200 230,200 230,200 230,200 230,200 230,200 230,200 230,200 230,199 230,199 230,199 230,199 231,199 231,199 231,199 231,199 231,200 231,200 231,200 231,200 231,200 231,200 231,200 231,200 231,201 232,201 232,201 232,202 232,202 232,202 232,203 232,203 232,203 232,203 232,203 232,203 232,203 232,203 233,203 233,203 233,203 233,203 233,203 233,204 233,204 233,204 233,205 233,205 233,205 233,205 233,205 234,205 234,205 234,205 234,205 234,205 234,205 234,205 234,204 234,204 234,204 234,204 234,204 234,203 235,203 235,203 235,203 235,203 235,203 235,203 235,203 235,203 235,202 235,202 235,202 235,202 235,202 236,201 236,201 236,201 236,201 236,201 236,201 236,201 236,201 236,201 236,201 236,202 236,202 236,202 237,202 237,202 237,201 237,201 237,201 237,201 237,201 237,201 237,201 237,201 237,201 237,201 237,201 238,201 238,201 238,201 238,201 238,201 238,201 238,201 238,201 238,201 238,201 238,201 238,201 238,201 239,201 239,201 239,201 239,201 239,201 239,201 239,201 239,201 239,201 239,201 239,201 239,201 240,201 240,201 240,201 240,201 240,201 240,201 240,201 240,201 240,201 240,201 240,200 240,200 240,200 241,200 241,200 241,200 241,200 241,200 241,200 241,200 241,200 241,199 241,199 241,199 241,199 241,198 242,198 242,198 242,199 242,199 242,198 242,198 242,198 242,198 242,198 242,198 242,198 242,198 242,198 243,198 243,197 243,197 243,198 243,198 243,198 243,198 243,198 243,199 243,199 243,200 243,200 243,199 244,197 244,196 244,196 244,195 244,194 244,193 244,193 244,192 244,192 244,192 244,192 244,192 244,191 245,191 245,191 245,190 245,190 245,189 245,189 245,189 245,189 245,189 245,189 245,189 245,188 245,188 246,188 246,188 246,188 246,187 246,187 246,187 246,186 246,186 246,186 246,185 246,185 246,185 246,185 247,185 247,185 247,185 247,185 247,185 247,185 247,185 247,185 247,185 247,184 247,184 247,184 247,185 248,185 248,185 248,185 248,186 248,186 248,186 248,186 248,187 248,187 248,187 248,188 248,188 248,188 249,189 249,189 249,189 249,189 249,190 249,190 249,190 249,190 249,190 249,190 249,190 249,191 249,191 250,191 250,191 250,191 250,191 250,191 250,191 250,191 250,192 250,192 250,192 250,192 250,192 250,192 251,192 251,192 251,192 251,192 251,192 251,192 251,192 251,192 251,192 251,192 251,192 251,192 251,192 252,192 252,192 252,192 252,192 252,192 252,192 252,191 252,191 252,192 252,192 252,192 252,192 252,192 253,192 253,192 253,192 253,192 253,192 253,192 253,192 253,192 253,192 253,192 253,192 253,191 253,191 254,191 254,190 254,190 254,190 254,189 254,189 254,189 254,189 254,189 254,188 254,188 254,188 254,188 255,188 255,188 255,187 255,187 255,187 255,187 255,187 255,187 255,187 255,186 255,186 255,185 255,185 256,184 256,184 256,183 256,183 256,182 256,181 256,181 256,180 256,179 256,179 256,178 256,177 256,177 257,176 257,175 257,175 257,174 257,173 257,172 257,172 257,171 257,171 257,170 257,170 257,170 257,170 258,169 258,169 258,169 258,169 258,169 258,168 258,168 258,168 258,168 258,168 258,168 258,168 259,168 259,167 259,167 259,167 259,167 259,167 259,167 259,166 259,166 259,166 259,166 259,166 259,167 260,167 260,168 260,169 260,169 260,170 260,171 260,171 260,172 260,173 260,173 260,174 260,175 260,176 261,177 261,177 261,178 261,179 261,179 261,180 261,180 261,181 261,181 261,181 261,181 261,181 261,181 262,181 262,181 262,181 262,181 262,181 262,181 262,181 262,181 262,181 262,181 262,181 262,180 262,180 263,180 263,180 263,180 263,180 263,180 263,180 263,180 263,180 263,180 263,180 263,179 263,179 263,179 264,179 264,179 264,179 264,179 264,179 264,178 264,178 264,178 264,178 264,178 264,179 264,180 264,179 265,180 265,180 265,180 265,180 265,180 265,180 265,180 265,180 265,179 265,179 265,179 265,178 265,178 266,177 266,177 266,176 266,176 266,176 266,176 266,176 266,176 266,176 266,176 266,176 266,176 266,176 267,176 267,176 267,176 267,176 267,176 267,175 267,175 267,175 267,175 267,175 267,175 267,175 267,175 268,175 268,175 268,174 268,174 268,174 268,174 268,174 268,174 268,174 268,174 268,174 268,173 268,173 269,173 269,173 269,173 269,173 269,173 269,173 269,173 269,173 269,172 269,172 269,172 269,172 269,172 270,172 270,172 270,172 270,172 270,172 270,172 270,172 270,172 270,172 270,172 270,172 270,171 270,171 271,171 271,171 271,171 271,171 271,171 271,171 271,171 271,171 271,171 271,171 271,170 271,170 271,170 272,170 272,170 272,170 272,169 272,169 272,169 272,169 272,169 272,169 272,169 272,169 272,169 272,168 273,168 273,168 273,168 273,168 273,168 273,168 273,167 273,167 273,167 273,166 273,166 273,166 273,166 274,166 274,166 274,166 274,166 274,165 274,165 274,165 274,165 274,164 274,164 274,163 274,163 274,163 275,163 275,162 275,162 275,161 275,161 275,161 275,160 275,160 275,160 275,159 275,159 275,158 275,157 276,156 276,156 276,155 276,154 276,154 276,153 276,153 276,153 276,153 276,153 276,152 276,152 277,152 277,152 277,152 277,151 277,151 277,151 277,151 277,151 277,151 277,151 277,151 277,151 277,151 278,151 278,151 278,151 278,151 278,151 278,151 278,151 278,151 278,151 278,150 278,150 278,150 278,149 279,149 279,148 279,148 279,148 279,148 279,147 279,147 279,147 279,147 279,147 279,146 279,146 279,146 280,146 280,146 280,145 280,145 280,145 280,145 280,145 280,145 280,145 280,146 280,146 280,146 280,146 281,147 281,147 281,147 281,148 281,148 281,149 281,150 281,150 281,151 281,152 281,152 281,153 281,154 282,155 282,155 282,156 282,157 282,157 282,158 282,159 282,160 282,161 282,162 282,164 282,165 282,166 283,167 283,168 283,169 283,171 283,172 283,173 283,174 283,174 283,175 283,175 283,176 283,177 283,177 284,178 284,178 284,179 284,179 284,180 284,180 284,182 284,183 284,185 284,186 284,187 284,188 284,189 285,190 285,191 285,192 285,192 285,193 285,193 285,193 285,194 285,194 285,194 285,194 285,194 285,193 286,193 286,192 286,193 286,192 286,190 286,188 286,185 286,184 286,182 286,182 286,181 286,181 286,180 287,180 287,179 287,179 287,179 287,178 287,178 287,177 287,178 287,178 287,178 287,178 287,178 287,178 288,176 288,175 288,175 288,174 288,172 288,172 288,171 288,172 288,172 288,172 288,172 288,172 288,172 289,172 289,171 289,172 289,172 289,172 289,172 289,173 289,173 289,173 289,173 289,174 289,174 289,174 290,174 290,175 290,175 290,175 290,175 290,176 290,176 290,176 290,176 290,177 290,177 290,177 290,177 291,178 291,178 291,178 291,178 291,179 291,179 291,180 291,181 291,181 291,181 291,182 291,182 291,183 292,183 292,183 292,184 292,185 292,185 292,186 292,186 292,187 292,187 292,188 292,188 292,189 292,189 293,190 293,190 293,191 293,191 293,192 293,192 293,192 293,193 293,193 293,194 293,194 293,194 293,195 294,195 294,195 294,196 294,196 294,196 294,197 294,197 294,197 294,197 294,198 294,198 294,198 294,199 295,199 295,199 295,200 295,200 295,200 295,200 295,201 295,201 295,201 295,202 295,202 295,202 296,203 296,203 296,203 296,204 296,204 296,204 296,205 296,205 296,205 296,206 296,206 296,206 296,207 297,207 297,207 297,208 297,208 297,208 297,209 297,209 297,210 297,210 297,211 297,211 297,211 297,212 298,212 298,212 298,213 298,213 298,214 298,214 298,214 298,215 298,215 298,215 298,215 298,215 298,216 299,216 299,216 299,216 299,216 299,216 299,217 299,217 299,217 299,217 299,217 299,217 299,217 299,218 300,218 300,218 300,218 300,218 300,218 300,218 300,218 300,218 300,218 300,218 300,218 300,218 300,217 301,217 301,217 301,217 301,218 301,218 301,218 301,218 301,218 301,219 301,219 301,219 301,220 301,220 302,221 302,221 302,222 302,223 302,223 302,223 302,223 302,223 302,223 302,223 302,223 302,223 302,223 303,223 303,224 303,224 303,224 303,225 303,226 303,226 303,226 303,226 303,226 303,226 303,225 303,224 304,223 304,222 304,221 304,220 304,219 304,218 304,217 304,216 304,215 304,214 304,213 304,212 304,211 305,210 305,209 305,209 305,208 305,208 305,207 305,207 305,206 305,206 305,205 305,204 305,204 305,204 306,203 306,202 306,202 306,201 306,201 306,200 306,200 306,199 306,198 306,198 306,198 306,197 306,197 307,196 307,196 307,195 307,195 307,195 307,195 307,194 307,194 307,194 307,194 307,194 307,194 307,194 308,194 308,194 308,194 308,194 308,193 308,193 308,193 308,193 308,193 308,193 308,193 308,193 308,193 309,193 309,193 309,192 309,192 309,192 309,192 309,192 309,192 309,192 309,192 309,192 309,192 309,192 310,192 310,192 310,192 310,191 310,191 310,191 310,191 310,191 310,191 310,191 310,192 310,192 310,193 311,193 311,194 311,195 311,195 311,195 311,195 311,195 311,195 311,194 311,194 311,193 311,193 311,192 312,192 312,191 312,191 312,190 312,190 312,189 312,188 312,188 312,187 312,187 312,186 312,186 312,185 313,185 313,184 313,184 313,183 313,183 313,182 313,182 313,181 313,181 313,180 313,180 313,179 314,179 314,178 314,178 314,178 314,177 314,177 314,176 314,176 314,176 314,175 314,175 314,174 314,174 315,173 315,173 315,173 315,172 315,172 315,171 315,171 315,171 315,170 315,170 315,169 315,169 315,169 316,168 316,167 316,167 316,166 316,165 316,165 316,165 316,164 316,164 316,164 316,164 316,164 316,164 317,164 317,164 317,164 317,164 317,164 317,164 317,164 317,165 317,165 317,165 317,165 317,166 317,167 318,167 318,167 318,168 318,168 318,168 318,168 318,169 318,169 318,170 318,170 318,170 318,170 318,171 319,171 319,171 319,171 319,172 319,172 319,172 319,173 319,173 319,173 319,173 319,173 319,174 319,174 320,174 320,174 320,175 320,175 320,175 320,175 320,176 320,176 320,176 320,176 320,176 320,177 320,177 321,177 321,177 321,177 321,178 321,178 321,178 321,178 321,178 321,178 321,179 321,179 321,179 321,179 322,179 322,180 322,180 322,180 322,180 322,180 322,180 322,180 322,180 322,180 322,180 322,180 322,180 323,180 323,180 323,180 323,179 323,179 323,178 323,178 323,177 323,177 323,176 323,176 323,175 323,175 324,174 324,173 324,173 324,173 324,173 324,173 324,172 324,172 324,172 324,172 324,172 324,172 324,172 325,172 325,171 325,171 325,171 325,171 325,171 325,171 325,170 325,170 325,170 325,170 325,170 325,171 326,171 326,172 326,172 326,173 326,173 326,174 326,174 326,175 326,176 326,176 326,177 326,178 326,178 327,179 327,180 327,180 327,181 327,181 327,182 327,182 327,183 327,183 327,184 327,184 327,185 327,185 328,186 328,186 328,187 328,187 328,188 328,188 328,189 328,189 328,190 328,191 328,191 328,191 328,192 329,192 329,192 329,192 329,192 329,192 329,193 329,193 329,193 329,193 329,194 329,194 329,194 329,194 330,194 330,194 330,194 330,194 330,194 330,194 330,195 330,195 330,195 330,195 330,195 330,195 330,195 331,195 331,195 331,195 331,195 331,195 331,195 331,195 331,195 331,195 331,195 331,195 331,195 331,195 332,195 332,195 332,195 332,195 332,195 332,195 332,195 332,195 332,195 332,195 332,195 332,195 333,195 333,196 333,196 333,197 333,197 333,197 333,197 333,197 333,197 333,197 333,196 333,196 333,196 334,196 334,195 334,195 334,195 334,194 334,194 334,194 334,194 334,194 334,194 334,194 334,194 334,194 335,193 335,193 335,193 335,193 335,193 335,193 335,194 335,195 335,195 335,196 335,196 335,196 335,196 336,196 336,196 336,196 336,196 336,196 336,196 336,195 336,195 336,195 336,195 336,195 336,194 336,194 337,194 337,194 337,193 337,193 337,193 337,193 337,193 337,193 337,193 337,193 337,193 337,193 337,194 338,194 338,195 338,195 338,196 338,196 338,197 338,198 338,198 338,199 338,200 338,200 338,201 338,201 339,202 339,202 339,203 339,203 339,204 339,204 339,205 339,205 339,205 339,206 339,206 339,207 339,207 340,208 340,208 340,208 340,209 340,209 340,209 340,208 340,208 340,208 340,207 340,207 340,207 340,206 341,206 341,205 341,205 341,205 341,204 341,204 341,204 341,203 341,203 341,203 341,202 341,202 341,202 342,202 342,202 342,202 342,202 342,203 342,203 342,203 342,203 342,204 342,204 342,205 342,205 342,205 343,206 343,206 343,207 343,207 343,208 343,208 343,209 343,209 343,210 343,210 343,210 343,211 343,211 344,212 344,212 344,212 344,213 344,213 344,213 344,214 344,214 344,214 344,214 344,215 344,215 344,215 345,215 345,216 345,216 345,216 345,216 345,216 345,216 345,217 345,217 345,217 345,217 345,216 345,216 346,216 346,216 346,216 346,216 346,217 346,217 346,216 346,216 346,215 346,215 346,215 346,215 346,214 347,214 347,214 347,215 347,215 347,215 347,216 347,216 347,217 347,217 347,217 347,218 347,218 347,218 348,218 348,218 348,218 348,219 348,219 348,219 348,220 348,220 348,220 348,220 348,221 348,221 348,221 349,221 349,221 349,221 349,221 349,221 349,221 349,221 349,221 349,221 349,221 349,221 349,221 349,221 350,220 350,220 350,220 350,220 350,219 350,219 350,218 350,218 350,218 350,217 350,217 350,217 351,217 351,217 351,217 351,216 351,216 351,216 351,216 351,216 351,216 351,216 351,216 351,216 351,216 352,216 352,216 352,216 352,216 352,216 352,216 352,216 352,216 352,216 352,216 352,216 352,216 352,216 353,216 353,216 353,216 353,216 353,216 353,217 353,217 353,217 353,217 353,217 353,217 353,217 353,217 354,218 354,218 354,218 354,218 354,218 354,218 354,218 354,219 354,219 354,219 354,220 354,220 354,220 355,221 355,221 355,221 355,221 355,222 355,222 355,222 355,223 355,223 355,223 355,223 355,224 355,224 356,225 356,225 356,225 356,225 356,226 356,226 356,226 356,226 356,226 356,227 356,227 356,227 356,227 357,227 357,228 357,228 357,228 357,228 357,228 357,228 357,228 357,228 357,228 357,229 357,229 357,229 358,229 358,229 358,229 358,229 358,229 358,230 358,230 358,229 358,229 358,229 358,229 358,229 358,229 359,229 359,229 359,229 359,228 359,228 359,227 359,226 359,226 359,225 359,225 359,224 359,224 359,223 360,223 360,222 360,221 360,221 360,221 360,220 360,219 360,219 360,218 360,218 360,217 360,217 360,216 361,216 361,215 361,214 361,214 361,213 361,212 361,211 361,211 361,210 361,210 361,209 361,209 361,208 362,208 362,208 362,208 362,208 362,208 362,208 362,208 362,208 362,208 362,208 362,207 362,207 362,207 363,207 363,207 363,207 363,207 363,207 363,208 363,208 363,208 363,208 363,208 363,208 363,208 363,208 364,208 364,208 364,208 364,209 364,209 364,209 364,209 364,209 364,209 364,209 364,209 364,209 364,209 365,209 365,209 365,209 365,209 365,210 365,210 365,211 365,211 365,212 365,212 365,212 365,212 365,212 366,213 366,213 366,213 366,214 366,214 366,214 366,215 366,215 366,216 366,216 366,217 366,217 366,218 367,218 367,219 367,219 367,220 367,220 367,221 367,221 367,222 367,222 367,223 367,223 367,224 367,224 368,225 368,225 368,226 368,226 368,227 368,227 368,228 368,228 368,229 368,229 368,230 368,230 368,231 369,232 369,233 369,233 369,234 369,234 369,234 369,235 369,235 369,235 369,236 369,236 369,236 370,237 370,237 370,237 370,237 370,237 370,238 370,238 370,238 370,238 370,238 370,239 370,239 370,239 371,239 371,240 371,240 371,240 371,240 371,240 371,240 371,240 371,240 371,240 371,240 371,240 371,240 372,239 372,239 372,239 372,238 372,238 372,238 372,237 372,237 372,236 372,236 372,235 372,235 372,235 373,234 373,234 373,234 373,233 373,233 373,234 373,234 373,234 373,234 373,235 373,235 373,235 373,235 374,236 374,236 374,236 374,236 374,236 374,237 374,237 374,237 374,237 374,238 374,238 374,238 374,239 375,239 375,239 375,240 375,240 375,241 375,241 375,241 375,241 375,241 375,242 375,242 375,243 375,243 376,244 376,244 376,245 376,245 376,245 376,245 376,246 376,246 376,246 376,247 376,247 376,247 376,247 377,247 377,247 377,247 377,247 377,247 377,247 377,248 377,248 377,248 377,248 377,248 377,248 377,248 378,248 378,248 378,248 378,249 378,249 378,249 378,249 378,249 378,249 378,249 378,249 378,249 378,249 379,249 379,249 379,249 379,249 379,249 379,249 379,249 379,249 379,249 379,249 379,249 379,249 379,249 380,249 380,249 380,249 380,249 380,249 380,249 380,249 380,249 380,249 380,249 380,249 380,249 380,249 381,249 381,249 381,249 381,250 381,250 381,250 381,250 381,250 381,249 381,249 381,250 381,250 381,250 382,250 382,250 382,250 382,250 382,250 382,250 382,250 382,250 382,250 382,250 382,250 382,250 382,250 383,250 383,250 383,250 383,251 383,251 383,251 383,251 383,251 383,251 383,251 383,251 383,251 383,251 384,251 384,251 384,251 384,251 384,252 384,252 384,252 384,252 384,252 384,252 384,252 384,252 384,252 385,252 385,252 385,252 385,252 385,252 385,252 385,252 385,252 385,252 385,252 385,252 385,252 385,252 386,252 386,252 386,252 386,253 386,253 386,253 386,253 386,253 386,253 386,253 386,253 386,253 386,253 387,253 387,253 387,253 387,253 387,254 387,254 387,254 387,254 387,254 387,254 387,254 387,254 388,253 388,253 388,253 388,252 388,252 388,252 388,251 388,251 388,251 388,250 388,250 388,250 388,250 389,250 389,250 389,249 389,249 389,249 389,249 389,249 389,249 389,249 389,249 389,248 389,248 389,248 390,248 390,248 390,248 390,248 390,247 390,247 390,247 390,248 390,248 390,248 390,247 390,247 390,247 391,247 391,247 391,248 391,248 391,248 391,248 391,248 391,249 391,249 391,249 391,249 391,250 391,250 392,250 392,250 392,250 392,250 392,251 392,251 392,252 392,252 392,252 392,253 392,253 392,254 392,254 393,254 393,254 393,254 393,254 393,254 393,254 393,254 393,254 393,254 393,254 393,254 393,254 393,254 394,255 394,255 394,255 394,256 394,256 394,256 394,256 394,257 394,257 394,257 394,257 394,258 394,258 395,258 395,258 395,258 395,258 395,258 395,258 395,258 395,258 395,259 395,259 395,259 395,259 395,259 396,259 396,259 396,259 396,259 396,259 396,259 396,259 396,259 396,259 396,259 396,258 396,258 396,258 397,258 397,258 397,257 397,257 397,257 397,256 397,256 397,256 397,256 397,255 397,255 397,255 397,255 398,255 398,255 398,254 398,254 398,254 398,253 398,253 398,253 398,253 398,253 398,253 398,252 398,252 399,252 399,252 399,251 399,251 399,251 399,250 399,250 399,250 399,249 399,249 399,249 399,249 399,248 400,248 400,248 400,248 400,247 400,247 400,247 400,247 400,247 400,246 400,246 400,245 400,245 400,245 401,245 401,245 401,244 401,244 401,244 401,244 401,244 401,244 401,244 401,243 401,243 401,243 401,243 402,243 402,242 402,242 402,242 402,242 402,242 402,241 402,241 402,241 402,241 402,241 402,241 402,241 403,241 403,241 403,241 403,241 403,241 403,241 403,240 403,240 403,240 403,241 403,241 403,241 403,241 404,241 404,242 404,242 404,242 404,242 404,243 404,243 404,243 404,244 404,245 404,245 404,246 404,247 405,248 405,248 405,249 405,249 405,250 405,250 405,251 405,251 405,252 405,253 405,253 405,254 405,255 406,255 406,256 406,256 406,257 406,257 406,258 406,258 406,258 406,259 406,259 406,259 406,259 407,259 407,260 407,260 407,260 407,260 407,260 407,260 407,260 407,260 407,260 407,260 407,260 407,259 408,259 408,259 408,258 408,258 408,258 408,257 408,257 408,256 408,256 408,256 408,255 408,255 408,255 409,255 409,254 409,254 409,254 409,254 409,254 409,254 409,253 409,253 409,253 409,253 409,253 409,253 410,252 410,252 410,252 410,252 410,252 410,252 410,252 410,252 410,251 410,251 410,251 410,251 410,252 411,252 411,252 411,252 411,252 411,252 411,253 411,253 411,253 411,253 411,254 411,254 411,254 411,254 412,255 412,255 412,255 412,255 412,256 412,256 412,256 412,256 412,257 412,257 412,257 412,258 412,258 413,258 413,259 413,259 413,260 413,260 413,261 413,261 413,262 413,262 413,263 413,264 413,265 413,266 414,267 414,268 414,269 414,269 414,270 414,270 414,271 414,271 414,271 414,271 414,272 414,272 414,273 415,273 415,274 415,274 415,274 415,274 415,274 415,274 415,275 415,275 415,275 415,275 415,275 415,276 416,276 416,276 416,276 416,276 416,276 416,276 416,276 416,277 416,277 416,277 416,278 416,278 416,279 417,279 417,279 417,279 417,279 417,279 417,279 417,279 417,279 417,279 417,280 417,280 417,280 417,280 418,280 418,280 418,280 418,280 418,280 418,280 418,280 418,280 418,280 418,280 418,280 418,280 418,280 419,281 419,281 419,281 419,281 419,281 419,281 419,281 419,281 419,281 419,281 419,281 419,281 419,281 420,281 420,281 420,281 420,281 420,281 420,282 420,282 420,282 420,282 420,282 420,283 420,283 420,283 421,284 421,284 421,285 421,285 421,286 421,286 421,286 421,287 421,287 421,287 421,287 421,287 421,287 422,287 422,287 422,287 422,287 422,287 422,287 422,287 422,287 422,287 422,287 422,287 422,287 422,287 423,287 423,287 423,287 423,287 423,287 423,287 423,287 423,287 423,287 423,287 423,287 423,287 423,287 424,287 424,287 424,287 424,287 424,287 424,287 424,287 424,287 424,287 424,287 424,287 424,286 425,286 425,286 425,286 425,286 425,285 425,285 425,285 425,285 425,285 425,285 425,285 425,285 425,285 426,285 426,284 426,284 426,284 426,284 426,284 426,284 426,283 426,283 426,283 426,283 426,283 426,282 427,282 427,282 427,282 427,281 427,281 427,281 427,281 427,281 427,280 427,280 427,280 427,280 427,279 428,279 428,279 428,278 428,278 428,278 428,277 428,277 428,277 428,277 428,276 428,276 428,276 428,275 429,275 429,275 429,274 429,274 429,274 429,273 429,273 429,273 429,273 429,273 429,272 429,272 429,272 430,272 430,272 430,272 430,272 430,272 430,272 430,273 430,273 430,273 430,274 430,274 430,275 430,275 431,276 431,276 431,277 431,278 431,278 431,279 431,280 431,280 431,281 431,281 431,282 431,282 431,283 432,283 432,283 432,283 432,284 432,284 432,284 432,284 432,284 432,284 432,284 432,285 432,285 432,285 433,285 433,285 433,285 433,286 433,286 433,286 433,286 433,285 433,285 433,285 433,285 433,285 433,284 434,284 434,283 434,283 434,282 434,282 434,281 434,281 434,280 434,280 434,279 434,279 434,278 434,278 435,277 435,276 435,276 435,275 435,275 435,274 435,274 435,273 435,273 435,272 435,272 435,271 435,271 436,270 436,270 436,269 436,269 436,269 436,268 436,268 436,267 436,267 436,267 436,266 436,266 436,266 437,265 437,265 437,265 437,264 437,264 437,264 437,263 437,263 437,262 437,262 437,262 437,261 437,261 438,261 438,261 438,261 438,261 438,260 438,260 438,260 438,260 438,259 438,259 438,259 438,259 438,259 439,259 439,259 439,259 439,259 439,259 439,259 439,259 439,259 439,259 439,259 439,259 439,260 439,260 440,260 440,260 440,260 440,260 440,261 440,261 440,261 440,262 440,262 440,263 440,263 440,264 440,265 441,265 441,265 441,266 441,266 441,267 441,267 441,268 441,268 441,269 441,269 441,269 441,269 441,269 442,269 442,269 442,269 442,269 442,269 442,269 442,269 442,269 442,269 442,268 442,268 442,268 442,268 443,268 443,268 443,268 443,268 443,267 443,267 443,267 443,267 443,267 443,267 443,267 443,267 444,267 444,266 444,266 444,266 444,266 444,266 444,266 444,266 444,266 444,266 444,266 444,266 444,266 445,266 445,266 445,266 445,266 445,266 445,266 445,266 445,266 445,266 445,266 445,266 445,266 445,266 446,266 446,266 446,266 446,266 446,266 446,267 446,267 446,267 446,267 446,268 446,268 446,268 446,269 447,269 447,269 447,270 447,270 447,271 447,271 447,271 447,272 447,272 447,273 447,273 447,274 447,274 448,275 448,276 448,276 448,277 448,277 448,278 448,278 448,278 448,278 448,279 448,279 448,279 448,280 449,280 449,280 449,280 449,280 449,281 449,281 449,281 449,281 449,282 449,282 449,282 449,282 449,282 450,283 450,283 450,283 450,283 450,284 450,284 450,284 450,284 450,284 450,284 450,285 450,285 450,285 451,285 451,285 451,285 451,285 451,285 451,285 451,285 451,285 451,285 451,285 451,285 451,285 451,284 452,284 452,284 452,284 452,283 452,283 452,283 452,283 452,282 452,282 452,282 452,282 452,281 452,281 453,280 453,280 453,279 453,279 453,278 453,279 453,279 453,279 453,280 453,280 453,281 453,281 453,282 454,282 454,283 454,282 454,283 454,283 454,284 454,284 454,284 454,285 454,285 454,284 454,284 454,284 455,284 455,283 455,283 455,282 455,282 455,281 455,281 455,280 455,280 455,279 455,279 455,278 455,278 456,278 456,277 456,277 456,277 456,277 456,276 456,276 456,276 456,276 456,276 456,276 456,276 456,276 457,276 457,276 457,276 457,276 457,276 457,276 457,276 457,276 457,276 457,276 457,277 457,277 457,277 458,278 458,278 458,279 458,279 458,280 458,280 458,281 458,282 458,282 458,283 458,283 458,284 458,285 459,285 459,286 459,287 459,287 459,286 459,286 459,286 459,286 459,285 459,284 459,284 459,284 459,283 460,283 460,283 460,282 460,282 460,282 460,282 460,282 460,282 460,282 460,281 460,281 460,281 460,281 461,281 461,282 461,282 461,282 461,283 461,283 461,283 461,283 461,283 461,284 461,284 461,285 462,285 462,286 462,287 462,287 462,288 462,288 462,289 462,290 462,290 462,291 462,291 462,292 462,292 463,293 463,293 463,294 463,294 463,294 463,294 463,295 463,295 463,295 463,295 463,296 463,296 463,296 464,297 464,297 464,297 464,298 464,298 464,298 464,298 464,298 464,299 464,299 464,299 464,299 464,300 465,300 465,300 465,300 465,300 465,300 465,300 465,300 465,299 465,299 465,299 465,298 465,297 465,297 466,296 466,295 466,294 466,294 466,293 466,293 466,292 466,292 466,291 466,291 466,291 466,291 466,291 467,290 467,290 467,290 467,290 467,290 467,290 467,290 467,290 467,290 467,290 467,290 467,290 467,290 468,290 468,291 468,291 468,291 468,291 468,292 468,292 468,293 468,293 468,293 468,294 468,294 468,295 469,295 469,296 469,296 469,297 469,298 469,298 469,299 469,299 469,300 469,301 469,301 469,302 469,302 470,302 470,303 470,303 470,304 470,304 470,304 470,305 470,305 470,306 470,306 470,306 470,307 470,307 471,307 471,307 471,307 471,308 471,308 471,308 471,308 471,309 471,309 471,309 471,309 471,309 471,309 472,309 472,310 472,310 472,310 472,310 472,310 472,310 472,310 472,310 472,310 472,310 472,310 472,311 473,311 473,311 473,311 473,311 473,311 473,312 473,312 473,312 473,312 473,312 473,312 473,312 473,313 474,313 474,313 474,313 474,313 474,313 474,313 474,313 474,313 474,314 474,314 474,314 474,314 474,314 475,314 475,314 475,314 475,314 475,314 475,314 475,314 475,314 475,314 475,314 475,314 475,314 475,314 476,314 476,314 476,314 476,314 476,314 476,314 476,314 476,314 476,314 476,314 476,314 476,314 476,314 477,314 477,314 477,314 477,314 477,314 477,314 477,314 477,314 477,314 477,314 477,313 477,313 477,313 478,313 478,313 478,313 478,313 478,313 478,313 478,313 478,313 478,313 478,313 478,313 478,312 478,312 479,312 479,313 479,313 479,313 479,313 479,313 479,313 479,313 479,313 479,313 479,313 479,313 479,313 480,313 480,313 480,312 480,312 480,312 480,312 480,312 480,312 480,312 480,312 480,312 480,312 481,312 481,312 481,312 481,312 481,312 481,312 481,312 481,312 481,312 481,312 481,312 481,312 481,312 482,312 482,312 482,312 482,311 482,311 482,311 482,311 482,311 482,311 482,311 482,311 482,311 482,311 483,311 483,311 483,311 483,311 483,310 483,310 483,310 483,310 483,310 483,310 483,309 483,309 483,309 484,308 484,308 484,308 484,308 484,307 484,307 484,306 484,306 484,305 484,305 484,304 484,304 484,303 485,302 485,302 485,301 485,300 485,300 485,299 485,298 485,298 485,297 485,297 485,296 485,296 485,296 486,295 486,295 486,294 486,294 486,294 486,294 486,293 486,293 486,293 486,293 486,292 486,292 486,292 487,292 487,292 487,291 487,291 487,291 487,291 487,291 487,291 487,291 487,290 487,290 487,290 487,290 488,290 488,290 488,290 488,290 488,290 488,290 488,290 488,290 488,290 488,290 488,290 488,290 488,290 489,290 489,290 489,291 489,291 489,291 489,291 489,291 489,291 489,291 489,291 489,292 489,292 489,292 490,292 490,292 490,293 490,293 490,293 490,293 490,293 490,294 490,294 490,294 490,294 490,294 490,294 491,294 491,293 491,293 491,293 491,293 491,293 491,293 491,293 491,293 491,293 491,293 491,293 491,293 492,293 492,294 492,294 492,294 492,294 492,295 492,295 492,295 492,295 492,296 492,296 492,296 492,297 493,298 493,299 493,300 493,301 493,301 493,302 493,303 493,304 493,305 493,306 493,306 493,307 493,308 494,308 494,309 494,309 494,310 494,310 494,310 494,310 494,310 494,309 494,309 494,308 494,308 494,308 495,307 495,307 495,307 495,307 495,307 495,307 495,307 495,307 495,307 495,307 495,307 495,307 495,307 496,307 496,307 496,307 496,307 496,307 496,307 496,307 496,307 496,307 496,307 496,307 496,307 496,307 497,307 497,307 497,307 497,307 497,308 497,308 497,308 497,309 497,310 497,310 497,310 497,310 497,310 498,309 498,309 498,309 498,308 498,307 498,306 498,306 498,305 498,304 498,304 498,303 498,302 499,302 499,301 499,301 499,300 499,300 499,300 499,299 499,299 499,299 499,299 499,298 499,298 499,298 500,298 500,298 500,298 500,297 500,297 500,297 500,297 500,297 500,297 500,297 500,297 500,296 500,296 501,296 501,296 501,296 501,296 501,296 501,296 501,296 501,295 501,295 501,295 501,295 501,295 501,295 502,295 502,295 502,295 502,295 502,295 502,296 502,296 502,296 502,296 502,296 502,296 502,296 502,296 503,296 503,297 503,297 503,297 503,297 503,297 503,297 503,297 503,297 503,297 503,297 503,297 503,297 504,297 504,297 504,297 504,297 504,297 504,297 504,297 504,297 504,297 504,297 504,298 504,298 504,298 505,298 505,298 505,298 505,298 505,298 505,298 505,298 505,298 505,298 505,298 505,298 505,298 505,299 506,299 506,299 506,299 506,299 506,299 506,299 506,299 506,300 506,300 506,300 506,300 506,300 506,300 507,300 507,300 507,300 507,300 507,301 507,301 507,301 507,301 507,301 507,301 507,301 507,301 507,301 508,301 508,301 508,301 508,301 508,301 508,301 508,301 508,301 508,301 508,301 508,300 508,300 508,300 509,300 509,300 509,300 509,300 509,299 509,299 509,299 509,299 509,299 509,299 509,299 509,299 509,298 510,298 510,298 510,298 510,297 510,297 510,297 510,297 510,297 510,297 510,296 510,296 510,296 510,296 511,296 511,296 511,296 511,296 511,297 511,297 511,297 511,297 511,297 511,297 511,297 511,297 511,297 512,297 512,297 512,297 512,297 512,297 512,297 512,297 512,297 512,297 512,297 512,297 512,297 512,297 513,297 513,298 513,298 513,298 513,298 513,298 513,298 513,298 513,298 513,298 513,298 513,298 513,298 514,299 514,299 514,299 514,299 514,299 514,299 514,300 514,300 514,300 514,300 514,300 514,301 514,301 515,301 515,301 515,301 515,302 515,302 515,302 515,302 515,302 515,302 515,303 515,303 515,303 515,303 516,303 516,304 516,304 516,304 516,304 516,304 516,304 516,304 516,304 516,305 516,305 516,305 516,305 517,305 517,305 517,305 517,305 517,305 517,305 517,305 517,305 517,305 517,306 517,306 517,306 518,306 518,306 518,306 518,306 518,306 518,306 518,306 518,306 518,306 518,306 518,306 518,306 518,306 519,307 519,307 519,307 519,307 519,307 519,307 519,307 519,307 519,307 519,307 519,308 519,308 519,308 520,308 520,308 520,309 520,309 520,309 520,309 520,309 520,309 520,309 520,309 520,309 520,310 520,310 521,310 521,310 521,310 521,310 521,310 521,310 521,311 521,311 521,311 521,311 521,311 521,311 521,311 522,311 522,311 522,311 522,311 522,311 522,311 522,311 522,311 522,311 522,311 522,311 522,311 522,311 523,311 523,311 523,311 523,312 523,312 523,312 523,312 523,312 523,312 523,312 523,312 523,312 523,312 524,312 524,312 524,312 524,313 524,313 524,313 524,313 524,313 524,313 524,313 524,313 524,313 524,313 525,313 525,313 525,313 525,313 525,313 525,313 525,313 525,313 525,313 525,313 525,314 525,314 525,314 526,314 526,314 526,314 526,314 526,314 526,314 526,314 526,314 526,314 526,314 526,314 526,314 526,314 527,314 527,314 527,314 527,313 527,313 527,313 527,313 527,313 527,313 527,313 527,313 527,313 527,313 528,313 528,313 528,313 528,313 528,313 528,312 528,312 528,312 528,312 528,312 528,312 528,312 528,312 529,312 529,312 529,312 529,312 529,312 529,312 529,312 529,312 529,312 529,312 529,312 529,312 529,312 530,312 530,312 530,312 530,312 530,313 530,313 530,313 530,313 530,313 530,313 530,313 530,313 530,314 531,314 531,314 531,314 531,314 531,315 531,315 531,315 531,315 531,315 531,315 531,315 531,316 531,316 532,316 532,316 532,316 532,316 532,316 532,316 532,317 532,317 532,317 532,317 532,317 532,317 532,317 533,317 533,317 533,318 533,318 533,318 533,318 533,318 533,318 533,318 533,318 533,318 533,318 533,318 534,319 534,319 534,319 534,319 534,319 534,319 534,319 534,319 534,319 534,319 534,319 534,319 534,319 535,319 535,319 535,319 535,319 535,319 535,319 535,319 535,319 535,319 535,319 535,319 535,320 536,320 536,320 536,320 536,320 536,320 536,320 536,320 536,320 536,320 536,320 536,320 536,320 536,320 537,320 537,320 537,320 537,320 537,320 537,320 537,320 537,321 537,321 537,321 537,321 537,321 537,321 538,321 538,321 538,321 538,321 538,321 538,321 538,321 538,321 538,321 538,321 538,321 538,321 538,321 539,322 539,322 539,322 539,322 539,322 539,322 539,322 539,322 539,322 539,322 539,322 539,322 539,322 540,322 540,322 540,322 540,322 540,322 540,322 540,322 540,322 540,322 540,322 540,322 540,322 540,322 541,322 541,322 541,323 541,323 541,323 541,323 541,323 541,323 541,323 541,323 541,323 541,323 541,323 542,323 542,323 542,323 542,323 542,323 542,323 542,323 542,323 542,323 542,323 542,323 542,323 542,323 543,323 543,323 543,323 543,323 543,323 543,323 543,323 543,323 543,323 543,323 543,323 543,323 543,323 544,323 544,323 544,322 544,322 544,322 544,322 544,322 544,322 544,322 544,322 544,322 544,322 544,322 545,323 545,323 545,323 545,323 545,323 545,323 545,324 545,324 545,324 545,324 545,324 545,324 545,324 546,324 546,324 546,324 546,324 546,324 546,324 546,324 546,324 546,324 546,324 546,324 546,324 546,324 547,324 547,324 547,325 547,325 547,325 547,325 547,325 547,325 547,325 547,325 547,325 547,325 547,325 548,325 548,325 548,325 548,325 548,326 548,326 548,326 548,326 548,326 548,326 548,326 548,326 548,326 549,326 549,326 549,326 549,326 549,326 549,326 549,326 549,326 549,326 549,326 549,326 549,326 549,326 550,327 550,327 550,327 550,327 550,327 550,327 550,327 550,327 550,327 550,327 550,327 550,328 550,328 551,328 551,328 551,328 551,328 551,328 551,329 551,329 551,329 551,329 551,329 551,329 551,329 551,329 552,329 552,330 552,330 552,330 552,330 552,330 552,330 552,330 552,330 552,330 552,330 552,330 552,330 553,330 553,330 553,330 553,331 553,331 553,331 553,331 553,331 553,331 553,331 553,331 553,331 553,331 554,331 554,331 554,332 554,332 554,332 554,332 554,332 554,332 554,332 554,332 554,332 554,332 555,332 555,332 555,332 555,332 555,332 555,332 555,332 555,332 555,332 555,332 555,332 555,332 555,332 556,332 556,332 556,332 556,332 556,332 556,332 556,332 556,332 556,332 556,332 556,332 556,332 556,332 557,332 557,332 557,332 557,332 557,332 557,333 557,333 557,333 557,333 557,333 557,333 557,333 557,333 558,333 558,333 558,333 558,333 558,333 558,333 558,333 558,333 558,333 558,333 558,333 558,334 558,334 559,334 559,334 559,334 559,334 559,334 559,334 559,334 559,334 559,334 559,334 559,334 559,334 559,334 560,334 560,334 560,334 560,334 560,334 560,334 560,334 560,333 560,333 560,333 560,333 560,333 560,333 561,333 561,333 561,333 561,333 561,333 561,333 561,332 561,332 561,332 561,332 561,332 561,332 561,332 562,332 562,332 562,332 562,332 562,332 562,332 562,332 562,332 562,332 562,332 562,332 562,332 562,332 563,333 563,333 563,333 563,333 563,333 563,333 563,333 563,333 563,333 563,333 563,333 563,333 563,333 564,333 564,333 564,333 564,333 564,333 564,333 564,333 564,333 564,333 564,333 564,333 564,333 564,334 565,334 565,334 565,334 565,334 565,334 565,334 565,334 565,334 565,334 565,334 565,334 565,334 565,334 566,334 566,334 566,334 566,334 566,334 566,334 566,334 566,334 566,335 566,335 566,335 566,335 566,335 567,335 567,335 567,335 567,335 567,335 567,335 567,335 567,336 567,336 567,336 567,336 567,336 567,336 568,336 568,336 568,336 568,336 568,336 568,337 568,337 568,337 568,337 568,337 568,337 568,337 568,337 569,337 569,337 569,337 569,337 569,337 569,337 569,337 569,338 569,338 569,338 569,338 569,338 569,338 570,338 570,338 570,338 570,338 570,338 570,338 570,338 570,338 570,338 570,339 570,339 570,339 570,339 571,339 571,339 571,339 571,339 571,339 571,338 571,338 571,338 571,338 571,338 571,338 571,338 571,338 572,338 572,338 572,338 572,338 572,338 572,338 572,338 572,338 572,338 572,338 572,338 572,338 573,338 573,338 573,338 573,338 573,338 573,338 573,338 573,338 573,338 573,338 573,338 573,338 573,338 574,338 574,338 574,338 574,338 574,338 574,338 574,338 574,338 574,337 574,337 574,337 574,337 574,337 575,337 575,337 575,337 575,337 575,337 575,337 575,336 575,336 575,336 575,336 575,336 575,336 575,336 576,336 576,336 576,336 576,336 576,336 576,336 576,335 576,335 576,335 576,335 576,335 576,335 576,335 577,335 577,335 577,335 577,334 577,334 577,334 577,334 577,334 577,334 577,334 577,334 577,334 577,334 578,333 578,333 578,333 578,333 578,333 578,333 578,333 578,333 578,332 578,332 578,332 578,332 578,332 579,332 579,332 579,331 579,331 579,331 579,331 579,331 579,331 579,330 579,330 579,330 579,330 579,330 580,330 580,330 580,330 580,330 580,330 580,330 580,330 580,330 580,330 580,330 580,329 580,329 580,329 581,329 581,329 581,328 581,328 581,328 581,327 581,327 581,327 581,326 581,326 581,326 581,326 581,326 582,326 582,326 582,325 582,325 582,325 582,325 582,325 582,325 582,325 582,325 582,325 582,324 582,324 583,324 583,324 583,324 583,324 583,324 583,324 583,324 583,324 583,324 583,324 583,324 583,324 583,324 584,324 584,324 584,324 584,324 584,324 584,324 584,324 584,324 584,324 584,324 584,324 584,325 584,325 585,325 585,325 585,325 585,325 585,325 585,325 585,325 585,325 585,326 585,326 585,326 585,326 585,326 586,326 586,326 586,326 586,326 586,326 586,326 586,326 586,326 586,326 586,326 586,326 586,326 586,327 587,327 587,327 587,327 587,327 587,327 587,328 587,328 587,328 587,328 587,328 587,328 587,329 587,329 588,329 588,329 588,329 588,329 588,330 588,330 588,330 588,330 588,330 588,330 588,331 588,331 588,331 589,331 589,331 589,331 589,332 589,332 589,332 589,332 589,332 589,332 589,332 589,332 589,332 589,332 590,332 590,332 590,333 590,333 590,333 590,333 590,333 590,333 590,333 590,333 590,333 590,334 590,334 591,334 591,334 591,334 591,334 591,335 591,335 591,335 591,335 591,335 591,335 591,335 591,335 592,336 592,336 592,336 592,336 592,336 592,336 592,336 592,336 592,336 592,337 592,337 592,337 592,337 593,337 593,337 593,337 593,337 593,338 593,338 593,338 593,338 593,338 593,338 593,338 593,338 593,338 594,339 594,339 594,339 594,339 594,339 594,339 594,340 594,340 594,340 594,340 594,340 594,340 594,341 595,341 595,341 595,341 595,342 595,342 595,342 595,343 595,343 595,344 595,344 595,344 595,345 595,345 596,345 596,346 596,346 596,346 596,346 596,347 596,347 596,347 596,347 596,347 596,348 596,348 596,348 597,348 597,348 597,349 597,349 597,349 597,349 597,349 597,349 597,350 597,350 597,350 597,350 597,350 598,350 598,350 598,351 598,351 598,351 598,351 598,351 598,351 598,351 598,351 598,351 598,351 598,352 599,352 599,352 599,353 599,353 599,353 599,353 599,353 599,353 599,353 599,353 599,354 599,354 599,354 600,354 600,354 600,354 600,354 600,354 600,354 600,354 600,354 600,354 600,354 600,354 600,354 600,354 601,354 601,353 601,353 601,352 601,352 601,351 601,351 601,350 601,349 601,349 601,349 601,348 601,348 602,348 602,348 602,348 602,348 602,348 602,348 602,347 602,348 602,347 602,347 602,347 602,347 602,347 603,347 603,346 603,346 603,346 603,346 603,345 603,345 603,345 603,344 603,344 603,344 603,343 603,343 604,343 604,342 604,342 604,341 604,341 604,341 604,340 604,340 604,340 604,339 604,339 604,339 604,339 605,338 605,338 605,338 605,338 605,338 605,338 605,338 605,338 605,339 605,339 605,339 605,339 605,339 606,339 606,339 606,339 606,339 606,339 606,339 606,339 606,339 606,339 606,339 606,339 606,339 606,339 607,339 607,339 607,339 607,339 607,339 607,340 607,340 607,340 607,340 607,340 607,340 607,339 607,339 608,339 608,339 608,339 608,339 608,339 608,339 608,340 608,340 608,340 608,340 608,340 608,340 608,340 609,340 609,340 609,341 609,341 609,341 609,341 609,342 609,342 609,342 609,342 609,343 609,343 610,343 610,343 610,344 610,344 610,344 610,344 610,344 610,344 610,344 610,344 610,344 610,344 610,344 611,343 611,343 611,343 611,343 611,343 611,342 611,342 611,342 611,342 611,342 611,342 611,342 611,342 612,342 612,342 612,342 612,342 612,342 612,342 612,342 612,343 612,343 612,343 612,343 612,343 612,344 613,344 613,344 613,344 613,344 613,345 613,345 613,345 613,345 613,346 613,346 613,346 613,346 613,346 614,346 614,346 614,346 614,346 614,346 614,346 614,347 614,347 614,347 614,347 614,348 614,348 614,348 615,348 615,349 615,349 615,349 615,349 615,349 615,350 615,350 615,350 615,350 615,350 615,350 615,350 616,350 616,350 616,350 616,350 616,350 616,351 616,351 616,351 616,351 616,351 616,351 616,351 616,351 617,351 617,351 617,351 617,351 617,351 617,351 617,351 617,351 617,351 617,351 617,351 617,351 617,351 618,351 618,351 618,351 618,351 618,351 618,351 618,351 618,351 618,351 618,351 618,351 618,351 618,351 619,351 619,351 619,352 619,352 619,352 619,352 619,352 619,352 619,352 619,352 619,352 619,352 619,352 620,352 620,352 620,352 620,352 620,352 620,352 620,352 620,352 620,353 620,353 620,353 620,353 620,354 621,354 621,354 621,355 621,355 621,356 621,356 621,356 621,357 621,357 621,357 621,357 621,357 621,357 622,357 622,357 622,357 622,357 622,357 622,357 622,357 622,357 622,357 622,357 622,357 622,357 622,357 623,356 623,356 623,356 623,356 623,355 623,355 623,355 623,355 623,355 623,355 623,355 623,355 623,355 624,354 624,354 624,354 624,354 624,354 624,354 624,354 624,354 624,354 624,354 624,354 624,354 624,354 625,354 625,354 625,354 625,354 625,354 625,354 625,354 625,354 625,354 625,354 625,354 625,354 625,354 626,354 626,354 626,354 626,354 626,354 626,354 626,354 626,354 626,354 626,353 626,353 626,353 626,353 627,353 627,354 627,354 627,354 627,354 627,354 627,354 627,354 627,355 627,355 627,356 627,357 628,357 628,357 628,357 628,358 628,358 628,358 628,357 628,357 628,357 628,357 628,357 628,357 628,357 629,357 629,357 629,357 629,357 629,357 629,357 629,356 629,356 629,356 629,356 629,356 629,356 629,356 630,356 630,356 630,356 630,356 630,355 630,355 630,355 630,355 630,355 630,355 630,355 630,355 630,355 631,355 631,355 631,355 631,355 631,355 631,355 631,355 631,355 631,355 631,355 631,355 631,355 631,355 632,355 632,355 632,355 632,355 632,355 632,355 632,355 632,354 632,354 632,354 632,354 632,354 632,354 633,354 633,354 633,354 633,353 633,353 633,353 633,353 633,353 633,353 633,353 633,353 633,353 633,353 634,353 634,353 634,353 634,353 634,353 634,353 634,353 634,353 634,353 634,353 634,353 634,353 634,353 635,353 635,353 635,353 635,353 635,353 635,352 635,352 635,351 635,350 635,350 635,350 635,350 635,350 636,350 636,350 636,350 636,350 636,350 636,350 636,350 636,349 636,349 636,349 636,349 636,348 636,348 637,348 637,348 637,347 637,347 637,347 637,347 637,347 637,347 637,347 637,347 637,347 637,347 637,347 638,347 638,346 638,346 638,346 638,346 638,346 638,346 638,346 638,346 638,346 638,345 638,345 638,345 639,345 639,345 639,345 639,345 639,345 639,344 639,344 639,344 639,344 639,344 639,343 639,343 639,343 640,343 640,342 640,342 640,342 640,342 640,342 640,342 640,342 640,341 640,341 640,341 640,341 640,341 641,340 641,340 641,340 641,340 641,339 641,339 641,339 641,339 641,339 641,338 641,338 641,338 641,338 642,338 642,338 642,337 642,337 642,337 642,337 642,337 642,337 642,337 642,337 642,337 642,337 642,337 643,337 643,337 643,337 643,337 643,337 643,337 643,337 643,337 643,337 643,337 643,337 643,337 643,337 644,337 644,337 644,337 644,337 644,337 644,337 644,337 644,337 644,337 644,337 644,337 644,337 644,337 645,337 645,336 645,336 645,336 645,336 645,336 645,336 645,336 645,336 645,336 645,336 645,336 645,336 646,336 646,336 646,336 646,337 646,337 646,337 646,337 646,337 646,337 646,336 646,336 646,337 647,337 647,337 647,337 647,337 647,337 647,336 647,336 647,336 647,337 647,337 647,337 647,337 647,337 648,337 648,337 648,337 648,337 648,337 648,337 648,337 648,337 648,337 648,337 648,337 648,337 648,337 649,337 649,337 649,337 649,337 649,337 649,337 649,337 649,338 649,338 649,338 649,338 649,338 649,338 650,338 650,338 650,338 650,338 650,338 650,338 650,338 650,338 650,338 650,338 650,338 650,339 650,339 651,339 651,339 651,339 651,339 651,339 651,339 651,339 651,339 651,339 651,339 651,339 651,339 651,339 652,339 652,339 652,339 652,339 652,340 652,340 652,340 652,340 652,340 652,340 652,340 652,340 652,340 653,340 653,340 653,340 653,340 653,340 653,340 653,341 653,341 653,341 653,341 653,341 653,341 653,341 654,341 654,341 654,341 654,341 654,341 654,341 654,341 654,341 654,341 654,341 654,341 654,341 654,341 655,341 655,341 655,341 655,341 655,341 655,341 655,341 655,341 655,341 655,341 655,341 655,341 655,341 656,341 656,341 656,341 656,341 656,340 656,340 656,340 656,340 656,340 656,340 656,341 656,341 656,341 657,341 657,341 657,341 657,341 657,341 657,341 657,341 657,341 657,341 657,341 657,341 657,341 657,341 658,341 658,341 658,341 658,341 658,341 658,341 658,341 658,341 658,341 658,341 658,341 658,341 658,341 659,341 659,341 659,341 659,341 659,341 659,341 659,341 659,341 659,341 659,341 659,341 659,341 659,341 660,341 660,341 660,341 660,341 660,341 660,341 660,341 660,341 660,341 660,341 660,341 660,341 660,341 661,341 661,341 661,341 661,341 661,341 661,341 661,341 661,340 661,340 661,340 661,340 661,340 661,340 662,340 662,341 662,341 662,341 662,341 662,341 662,341 662,341 662,341 662,341 662,341 662,341 662,341 663,341 663,340 663,340 663,340 663,340 663,340 663,340 663,340 663,340 663,340 663,340 663,340 663,340 664,340 664,340 664,340 664,340 664,340 664,340 664,340 664,340 664,340 664,340 664,340 664,340 665,340 665,340 665,341 665,341 665,341 665,341 665,341 665,340 665,340 665,340 665,340 665,340 665,340 666,340 666,340 666,340 666,340 666,340 666,340 666,340 666,340 666,340 666,340 666,340 666,340 666,340 667,340 667,340 667,340 667,340 667,340 667,340 667,340 667,340 667,340 667,340 667,340 667,340 667,340 668,340 668,340 668,340 668,340 668,340 668,340 668,340 668,340 668,340 668,340 668,340 668,340 668,340 669,340 669,340 669,340 669,340 669,340 669,340 669,340 669,340 669,341 669,341 669,341 669,341 669,340 670,340 670,341 670,340 670,340 670,340 670,340 670,340 670,340 670,341 670,341 670,341 670,342 670,342 671,342 671,342 671,342 671,342 671,342 671,342 671,342 671,342 671,342 671,342 671,342 671,342 671,342 672,342 672,342 672,342 672,342 672,342 672,342 672,342 672,342 672,342 672,342 672,342 672,342 672,342 673,342 673,342 673,343 673,343 673,343 673,343 673,343 673,343 673,343 673,343 673,343 673,343 673,343 674,343 674,343 674,343 674,343 674,342 674,342 674,342 674,342 674,342 674,342 674,342 674,342 674,342 675,342 675,341 675,341 675,341 675,341 675,341 675,341 675,341 675,341 675,341 675,341 675,341 675,341 676,341 676,341 676,341 676,341 676,341 676,341 676,341 676,341 676,341 676,341 676,341 676,341 676,341 677,341 677,341 677,341 677,341 677,341 677,341 677,341 677,341 677,341 677,341 677,341 677,341 677,341 678,341 678,340 678,340 678,340 678,340 678,340 678,340 678,340 678,340 678,340 678,340 678,340 678,340 679,340 679,340 679,340 679,340 679,340 679,340 679,340 679,340 679,340 679,340 679,340 679,340 679,340 680,340 680,340 680,340 680,340 680,340 680,340 680,339 680,339 680,339 680,339 680,339 680,339 680,339 681,339 681,339 681,339 681,339 681,339 681,339 681,339 681,339 681,339 681,339 681,339 681,339 681,339 682,339 682,339 682,339 682,339 682,339 682,339 682,339 682,339 682,339 682,339 682,339 682,339 682,339 683,339 683,338 683,338 683,338 683,338 683,338 683,338 683,338 683,338 683,338 683,338 683,338 684,338 684,338 684,338 684,338 684,338 684,338 684,338 684,338 684,338 684,338 684,338 684,338 684,338 685,338 685,338 685,338 685,338 685,338 685,338 685,338 685,338 685,338 685,338 685,338 685,338 685,338 686,338 686,338 686,338 686,338 686,338 686,338 686,338 686,338 686,338 686,338 686,338 686,339 686,339 687,339 687,339 687,339 687,339 687,339 687,339 687,339 687,339 687,339 687,339 687,339 687,339 687,339 688,339 688,339 688,339 688,339 688,339 688,339 688,339 688,340 688,340 688,340 688,340 688,340 688,340 689,340 689,340 689,340 689,340 689,340 689,340 689,340 689,340 689,340 689,340 689,340 689,340 689,340 690,340 690,340 690,340 690,340 690,340 690,340 690,340 690,340 690,340 690,340 690,340 690,340 690,340 691,340 691,340 691,340 691,340 691,340 691,340 691,340 691,340 691,340 691,340 691,340 691,340 691,340 692,341 692,341 692,341 692,341 692,341 692,341 692,341 692,341 692,341 692,341 692,341 692,341 692,341 693,341 693,341 693,341 693,341 693,341 693,341 693,341 693,341 693,342 693,342 693,342 693,342 693,342 694,342 694,342 694,342 694,342 694,342 694,342 694,343 694,343 694,343 694,343 694,343 694,343 694,343 695,343 695,343 695,343 695,343 695,343 695,343 695,343 695,343 695,343 695,343 695,344 695,344 695,344 696,344 696,344 696,344 696,344 696,344 696,344 696,344 696,344 696,344 696,344 696,344 696,344 696,344 697,344 697,344 697,344 697,343 697,343 697,343 697,343 697,343 697,343 697,343 697,343 697,343 697,343 698,343 698,343 698,343 698,343 698,343 698,342 698,342 698,342 698,342 698,342 698,342 698,342 698,342 699,342 699,342 699,342 699,341 699,341 699,341 699,341 699,341 699,341 699,341 699,341 699,341 699,340 700,340 700,340 700,340 700,340 700,340 700,340 700,340 700,340 700,340 700,339 700,339 700,339 700,339 701,339 701,339 701,339 701,339 701,339 701,338 701,338 701,338 701,338 701,338 701,338 701,338 702,337 702,337 702,337 702,337 702,337 702,337 702,336 702,336 702,336 702,336 702,336 702,336 702,335 703,335 703,335 703,335 703,335 703,335 703,334 703,334 703,334 703,334 703,334 703,334 703,334 703,334 704,334 704,334 704,334 704,334 704,334 704,334 704,334 704,334 704,333 704,333 704,333 704,333 704,333 705,333 705,333 705,333 705,333 705,333 705,333 705,333 705,333 705,333 705,333 705,333 705,333 705,333 706,332 706,332 706,332 706,332 706,332 706,332 706,332 706,331 706,331 706,331 706,331 706,331 706,331 707,330 707,330 707,330 707,330 707,330 707,330 707,330 707,329 707,329 707,329 707,329 707,329 707,329 708,328 708,328 708,328 708,328 708,328 708,328 708,328 708,328 708,328 708,328 708,328 708,328 708,327 709,327 709,327 709,327 709,327 709,327 709,328 709,328 709,328 709,327 709,327 709,328 709,328 709,328 710,328 710,328 710,328 710,328 710,328 710,328 710,328 710,328 710,328 710,328 710,328 710,328 710,328 711,328 711,328 711,328 711,328 711,328 711,328 711,328 711,328 711,328 711,329 711,329 711,329 711,328 712,329 712,329 712,329 712,329 712,329 712,329 712,329 712,329 712,329 712,329 712,329 712,329 712,329 713,329 713,330 713,330 713,330 713,330 713,330 713,330 713,330 713,330 713,330 713,330 713,330 713,331 714,331 714,331 714,331 714,331 714,331 714,331 714,331 714,331 714,332 714,332 714,332 714,332 714,332 715,332 715,332 715,332 715,333 715,333 715,333 715,333 715,333 715,333 715,333 715,333 715,334 715,334 716,334 716,334 716,334 716,334 716,334 716,334 716,334 716,334 716,334 716,334 716,335 716,335 716,335 717,335 717,335 717,335 717,335 717,335 717,335 717,335 717,335 717,336 717,336 717,336 717,336 717,336 718,336 718,336 718,336 718,336 718,336 718,336 718,336 718,336 718,337 718,337 718,337 718,337 718,337 719,337 719,337 719,337 719,336 719,336 719,336 719,336 719,336 719,336 719,336 719,336 719,336 719,336 720,336 720,336 720,335 720,335 720,335 720,335 720,335 720,335 720,335 720,335 720,334 720,334 721,334 721,334 721,334 721,334 721,334 721,334 721,334 721,334 721,334 721,334 721,333 721,333 721,333 722,333 722,333 722,333 722,333 722,333 722,333 722,333 722,333 722,333 722,333 722,333 722,333 722,332 723,332 723,332 723,332 723,332 723,332 723,332 723,332 723,332 723,332 723,332 723,332 723,332 723,332 724,332 724,332 724,332 724,332 724,332 724,332 724,332 724,332 724,332 724,332 724,332 724,332 724,332 725,332 725,332 725,332 725,332 725,332 725,332 725,332 725,332 725,332 725,332 725,332 725,332 725,332 726,332 726,332 726,332 726,332 726,332 726,332 726,332 726,332 726,332 726,332 726,332 726,332 726,332 727,332 727,332 727,333 727,333 727,333 727,333 727,333 727,333 727,333 727,333 727,333 727,333 727,333 728,333 728,333 728,333 728,333 728,333 728,333 728,333 728,333 728,333 728,333 728,333 728,333 728,333 729,333 729,333 729,333 729,333 729,334 729,334 729,334 729,333 729,333 729,333 729,333 729,333 729,333 730,334 730,334 730,334 730,334 730,334 730,334 730,334 730,334 730,334 730,334 730,334 730,334 730,334 731,334 731,334 731,334 731,334 731,334 731,334 731,334 731,334 731,334 731,334 731,334 731,334 731,334 732,334 732,334 732,334 732,334 732,334 732,334 732,334 732,334 732,334 732,334 732,334 732,334 732,334 733,334 733,334 733,334 733,334 733,334 733,334 733,334 733,334 733,334 733,334 733,334 733,334 733,334 734,334 734,334 734,334 734,334 734,334 734,334 734,334 734,334 734,334 734,334 734,334 734,334 734,334 735,335 735,335 735,335 735,335 735,335 735,335 735,335 735,335 735,335 735,335 735,335 735,335 735,335 736,335 736,335 736,335 736,335 736,335 736,335 736,335 736,335 736,335 736,335 736,335 " vector-effect="non-scaling-stroke"></polyline>
</g></svg>