<?xml version="1.0" encoding="UTF-8" standalone="no"?><svg width="282.222mm" height="141.111mm" xmlns="http://www.w3.org/2000/svg" xmlns:xlink="http://www.w3.org/1999/xlink"  version="1.2" baseProfile="tiny"><g fill="none" stroke="#ff0000" stroke-linecap="round" stroke-linejoin="round" stroke-opacity="1" stroke-width="1.5" transform="matrix(1,0,0,1,0,0)">
<polyline fill="none" points="27,328 27,328 27,328 27,328 27,328 27,328 27,328 27,328 28,328 28,327 28,327 28,327 28,327 28,327 28,327 28,327 28,327 28,327 28,327 28,327 28,327 29,327 29,327 29,327 29,326 29,326 29,326 29,326 29,326 29,326 29,326 29,326 29,326 29,326 30,326 30,326 30,326 30,326 30,326 30,325 30,325 30,325 30,325 30,325 30,325 30,325 30,325 31,325 31,325 31,325 31,325 31,325 31,325 31,325 31,325 31,325 31,325 31,325 31,325 31,325 32,325 32,324 32,324 32,324 32,324 32,324 32,324 32,324 32,324 32,324 32,324 32,324 32,324 33,324 33,324 33,324 33,324 33,324 33,324 33,324 33,324 33,324 33,324 33,324 33,324 33,324 34,324 34,324 34,324 34,324 34,324 34,324 34,324 34,324 34,324 34,324 34,324 34,324 34,324 35,324 35,324 35,324 35,324 35,324 35,324 35,324 35,324 35,324 35,324 35,324 35,324 35,324 36,324 36,324 36,324 36,324 36,324 36,324 36,324 36,323 36,323 36,323 36,323 36,323 37,323 37,322 37,322 37,322 37,322 37,322 37,322 37,322 37,322 37,321 37,321 37,321 37,321 38,321 38,321 38,321 38,321 38,320 38,320 38,320 38,320 38,320 38,320 38,320 38,320 38,320 39,320 39,319 39,319 39,319 39,319 39,319 39,319 39,319 39,319 39,319 39,318 39,318 39,318 40,318 40,318 40,318 40,318 40,318 40,318 40,318 40,318 40,318 40,318 40,317 40,317 40,317 41,317 41,317 41,317 41,317 41,317 41,317 41,317 41,317 41,316 41,316 41,316 41,316 41,316 42,316 42,316 42,316 42,316 42,316 42,316 42,316 42,316 42,316 42,316 42,316 42,316 42,316 43,316 43,316 43,316 43,316 43,316 43,316 43,316 43,316 43,316 43,316 43,316 43,315 43,315 44,315 44,315 44,315 44,315 44,315 44,315 44,315 44,314 44,314 44,314 44,314 44,314 44,314 45,314 45,314 45,314 45,314 45,314 45,313 45,313 45,313 45,313 45,313 45,313 45,313 45,313 46,313 46,313 46,313 46,313 46,313 46,313 46,313 46,313 46,313 46,313 46,313 46,313 46,313 47,313 47,313 47,313 47,312 47,312 47,312 47,312 47,312 47,312 47,312 47,312 47,312 47,312 48,312 48,312 48,312 48,312 48,312 48,312 48,312 48,312 48,312 48,312 48,312 48,312 48,312 49,312 49,312 49,312 49,312 49,312 49,312 49,312 49,312 49,312 49,312 49,311 49,311 49,311 50,311 50,311 50,311 50,311 50,311 50,311 50,311 50,311 50,311 50,311 50,311 50,311 50,311 51,311 51,310 51,310 51,310 51,310 51,310 51,310 51,310 51,310 51,310 51,310 51,310 51,310 52,310 52,310 52,310 52,310 52,310 52,311 52,311 52,311 52,311 52,311 52,310 52,310 52,310 53,310 53,310 53,310 53,309 53,309 53,309 53,309 53,309 53,309 53,309 53,308 53,308 54,308 54,308 54,308 54,308 54,308 54,308 54,308 54,308 54,308 54,308 54,307 54,307 54,307 55,307 55,307 55,306 55,306 55,306 55,306 55,306 55,306 55,306 55,306 55,306 55,306 55,305 56,305 56,305 56,305 56,305 56,305 56,305 56,304 56,305 56,305 56,305 56,305 56,304 56,304 57,304 57,304 57,304 57,303 57,303 57,303 57,303 57,303 57,303 57,302 57,303 57,303 57,303 58,303 58,303 58,303 58,304 58,304 58,304 58,303 58,304 58,304 58,303 58,303 58,302 58,302 59,302 59,301 59,301 59,300 59,300 59,300 59,300 59,300 59,300 59,300 59,299 59,299 59,299 60,299 60,299 60,298 60,298 60,298 60,298 60,297 60,297 60,297 60,297 60,297 60,298 60,298 61,298 61,298 61,298 61,298 61,298 61,298 61,297 61,297 61,297 61,297 61,296 61,296 61,296 62,295 62,295 62,295 62,295 62,294 62,294 62,293 62,292 62,292 62,291 62,291 62,290 62,289 63,289 63,289 63,288 63,288 63,288 63,287 63,287 63,287 63,287 63,286 63,286 63,286 63,286 64,286 64,286 64,286 64,286 64,287 64,287 64,287 64,287 64,287 64,288 64,288 64,288 64,289 65,289 65,290 65,290 65,291 65,291 65,292 65,291 65,291 65,291 65,291 65,290 65,289 65,289 66,288 66,288 66,288 66,288 66,287 66,287 66,286 66,286 66,285 66,285 66,284 66,284 66,283 67,282 67,282 67,281 67,280 67,280 67,279 67,279 67,278 67,277 67,276 67,275 67,274 67,274 68,273 68,272 68,271 68,271 68,270 68,269 68,269 68,268 68,268 68,268 68,267 68,267 68,266 69,266 69,266 69,265 69,265 69,264 69,264 69,264 69,264 69,263 69,263 69,263 69,263 69,262 70,262 70,262 70,262 70,262 70,261 70,261 70,261 70,261 70,261 70,261 70,261 70,261 70,261 71,261 71,261 71,261 71,261 71,261 71,261 71,261 71,261 71,261 71,261 71,261 71,261 72,261 72,261 72,261 72,261 72,261 72,261 72,261 72,261 72,261 72,261 72,261 72,261 72,261 73,261 73,260 73,260 73,260 73,259 73,259 73,259 73,259 73,259 73,259 73,259 73,259 73,259 74,259 74,258 74,258 74,258 74,258 74,258 74,258 74,258 74,258 74,258 74,258 74,258 74,259 75,259 75,260 75,260 75,260 75,260 75,261 75,261 75,262 75,263 75,263 75,264 75,264 75,265 76,266 76,266 76,267 76,267 76,267 76,267 76,267 76,267 76,267 76,266 76,266 76,267 76,267 77,267 77,268 77,268 77,268 77,267 77,266 77,265 77,265 77,264 77,263 77,262 77,262 77,262 78,261 78,261 78,261 78,261 78,261 78,260 78,260 78,260 78,260 78,260 78,260 78,259 78,259 79,259 79,258 79,258 79,257 79,257 79,257 79,256 79,255 79,255 79,254 79,254 79,253 79,253 80,252 80,252 80,251 80,251 80,250 80,250 80,249 80,249 80,248 80,247 80,247 80,246 80,245 81,244 81,243 81,242 81,241 81,241 81,240 81,239 81,238 81,237 81,236 81,235 81,234 81,233 82,231 82,230 82,229 82,228 82,227 82,226 82,226 82,226 82,225 82,225 82,224 82,224 82,223 83,223 83,222 83,222 83,221 83,221 83,220 83,220 83,219 83,219 83,219 83,219 83,218 83,218 84,218 84,217 84,217 84,217 84,216 84,216 84,216 84,216 84,216 84,216 84,215 84,215 84,215 85,215 85,215 85,215 85,215 85,215 85,214 85,214 85,214 85,214 85,214 85,214 85,213 85,213 86,213 86,213 86,213 86,213 86,213 86,213 86,212 86,212 86,212 86,211 86,211 86,211 86,210 87,210 87,209 87,209 87,209 87,209 87,208 87,208 87,208 87,207 87,207 87,207 87,207 87,206 88,206 88,206 88,206 88,206 88,206 88,205 88,205 88,205 88,205 88,205 88,204 88,204 89,204 89,204 89,204 89,204 89,204 89,204 89,203 89,203 89,203 89,202 89,202 89,202 89,201 90,201 90,201 90,200 90,200 90,199 90,198 90,198 90,197 90,196 90,196 90,195 90,195 90,194 91,194 91,193 91,193 91,193 91,193 91,193 91,193 91,193 91,193 91,193 91,192 91,192 91,192 92,192 92,192 92,191 92,191 92,191 92,191 92,191 92,191 92,191 92,191 92,190 92,190 92,190 93,190 93,190 93,190 93,190 93,189 93,189 93,189 93,189 93,189 93,188 93,188 93,188 93,188 94,188 94,188 94,188 94,187 94,187 94,187 94,187 94,187 94,187 94,187 94,187 94,187 94,187 95,187 95,188 95,187 95,187 95,187 95,187 95,187 95,188 95,188 95,188 95,188 95,188 95,189 96,189 96,190 96,191 96,192 96,192 96,193 96,194 96,195 96,195 96,196 96,196 96,196 96,196 97,196 97,196 97,196 97,195 97,195 97,195 97,195 97,195 97,195 97,195 97,195 97,195 97,195 98,195 98,195 98,195 98,196 98,196 98,197 98,197 98,197 98,198 98,198 98,199 98,199 98,200 99,201 99,201 99,202 99,202 99,203 99,204 99,204 99,205 99,206 99,207 99,207 99,208 99,209 100,209 100,209 100,208 100,209 100,209 100,209 100,209 100,209 100,209 100,209 100,209 100,209 100,210 101,210 101,210 101,210 101,210 101,210 101,210 101,211 101,211 101,211 101,212 101,212 101,212 101,213 102,213 102,213 102,213 102,213 102,213 102,213 102,213 102,213 102,213 102,212 102,212 102,211 102,211 103,211 103,210 103,209 103,209 103,208 103,208 103,207 103,207 103,207 103,206 103,206 103,206 103,205 104,205 104,204 104,204 104,203 104,203 104,202 104,202 104,201 104,201 104,200 104,200 104,199 104,199 105,198 105,198 105,197 105,196 105,196 105,195 105,194 105,194 105,193 105,193 105,192 105,192 105,191 106,191 106,190 106,190 106,189 106,189 106,189 106,189 106,189 106,187 106,186 106,185 106,185 107,184 107,184 107,184 107,184 107,183 107,183 107,183 107,183 107,183 107,183 107,183 107,183 107,182 108,182 108,182 108,182 108,182 108,182 108,182 108,182 108,182 108,183 108,183 108,183 108,183 108,183 109,183 109,183 109,183 109,183 109,183 109,183 109,184 109,184 109,184 109,184 109,184 109,185 109,185 110,185 110,185 110,185 110,186 110,186 110,186 110,186 110,186 110,187 110,187 110,187 110,187 110,187 111,188 111,188 111,188 111,188 111,188 111,189 111,189 111,189 111,189 111,189 111,190 111,190 111,190 112,190 112,190 112,190 112,190 112,191 112,191 112,191 112,191 112,191 112,191 112,191 112,191 112,191 113,191 113,191 113,191 113,191 113,191 113,191 113,191 113,192 113,192 113,192 113,192 113,192 113,192 114,192 114,192 114,192 114,192 114,193 114,193 114,193 114,193 114,193 114,194 114,194 114,194 114,194 115,194 115,194 115,194 115,195 115,195 115,195 115,195 115,195 115,195 115,195 115,196 115,196 115,196 116,196 116,196 116,197 116,197 116,197 116,197 116,197 116,198 116,198 116,198 116,198 116,197 116,198 117,198 117,198 117,199 117,199 117,199 117,199 117,199 117,200 117,200 117,200 117,200 117,201 117,201 118,201 118,201 118,201 118,200 118,200 118,200 118,200 118,200 118,199 118,199 118,199 118,198 118,198 119,198 119,198 119,199 119,199 119,199 119,199 119,199 119,199 119,199 119,199 119,199 119,198 119,198 120,198 120,198 120,197 120,197 120,197 120,196 120,196 120,196 120,196 120,195 120,195 120,195 120,195 121,194 121,194 121,194 121,194 121,194 121,193 121,193 121,193 121,193 121,193 121,193 121,193 121,193 122,193 122,193 122,193 122,194 122,194 122,194 122,194 122,195 122,195 122,195 122,195 122,196 122,196 123,197 123,197 123,198 123,198 123,199 123,199 123,200 123,201 123,201 123,202 123,202 123,202 123,203 124,203 124,203 124,203 124,203 124,203 124,203 124,203 124,203 124,203 124,203 124,203 124,203 125,202 125,202 125,202 125,202 125,202 125,201 125,201 125,201 125,200 125,200 125,200 125,200 125,199 126,199 126,199 126,198 126,198 126,198 126,197 126,197 126,197 126,196 126,196 126,195 126,195 126,195 127,194 127,193 127,192 127,192 127,192 127,192 127,192 127,191 127,191 127,191 127,190 127,190 127,190 128,190 128,189 128,189 128,189 128,189 128,188 128,188 128,188 128,188 128,188 128,188 128,188 128,188 129,188 129,188 129,188 129,188 129,188 129,188 129,188 129,188 129,188 129,188 129,189 129,189 129,189 130,189 130,189 130,189 130,189 130,189 130,189 130,189 130,189 130,189 130,189 130,189 130,189 130,189 131,189 131,189 131,189 131,190 131,190 131,190 131,190 131,191 131,191 131,191 131,191 131,191 131,192 132,192 132,192 132,192 132,192 132,193 132,193 132,194 132,195 132,196 132,196 132,197 132,197 132,198 133,199 133,199 133,200 133,200 133,201 133,201 133,201 133,201 133,201 133,201 133,200 133,199 133,199 134,199 134,198 134,197 134,197 134,197 134,197 134,197 134,197 134,196 134,196 134,196 134,195 134,195 135,195 135,194 135,194 135,194 135,193 135,193 135,193 135,193 135,192 135,192 135,192 135,192 135,192 136,191 136,191 136,191 136,192 136,192 136,192 136,192 136,192 136,192 136,192 136,193 136,193 136,194 137,195 137,195 137,196 137,196 137,196 137,196 137,197 137,197 137,198 137,198 137,198 137,199 137,199 138,199 138,200 138,200 138,201 138,202 138,203 138,203 138,204 138,205 138,205 138,206 138,206 138,206 139,205 139,204 139,204 139,203 139,202 139,202 139,201 139,201 139,200 139,199 139,199 139,198 139,198 140,197 140,196 140,195 140,195 140,194 140,194 140,193 140,193 140,193 140,192 140,192 140,192 140,192 141,192 141,192 141,191 141,191 141,191 141,191 141,192 141,192 141,192 141,192 141,192 141,192 142,192 142,193 142,193 142,193 142,193 142,193 142,194 142,194 142,194 142,194 142,195 142,196 142,196 143,196 143,196 143,197 143,197 143,198 143,199 143,199 143,200 143,201 143,201 143,202 143,202 143,203 144,203 144,204 144,204 144,205 144,206 144,206 144,207 144,207 144,207 144,206 144,207 144,207 144,207 145,207 145,207 145,207 145,207 145,207 145,208 145,208 145,208 145,208 145,209 145,209 145,209 145,209 146,209 146,209 146,209 146,209 146,209 146,209 146,209 146,209 146,209 146,209 146,209 146,209 146,209 147,209 147,209 147,209 147,209 147,209 147,209 147,209 147,209 147,209 147,209 147,209 147,209 147,210 148,210 148,211 148,211 148,212 148,212 148,213 148,213 148,214 148,214 148,214 148,215 148,215 148,216 149,216 149,216 149,216 149,216 149,216 149,217 149,217 149,217 149,218 149,218 149,218 149,218 149,218 150,219 150,219 150,219 150,219 150,219 150,219 150,219 150,219 150,220 150,220 150,220 150,220 150,220 151,220 151,220 151,220 151,220 151,220 151,220 151,220 151,221 151,221 151,221 151,221 151,221 151,221 152,221 152,220 152,220 152,220 152,220 152,219 152,219 152,219 152,219 152,219 152,219 152,219 152,218 153,218 153,218 153,218 153,218 153,218 153,218 153,218 153,218 153,218 153,218 153,218 153,218 153,218 154,218 154,218 154,219 154,219 154,219 154,219 154,219 154,219 154,219 154,219 154,219 154,219 154,219 155,220 155,220 155,220 155,220 155,220 155,220 155,220 155,220 155,220 155,220 155,220 155,221 155,221 156,221 156,221 156,221 156,221 156,221 156,221 156,221 156,222 156,222 156,222 156,222 156,222 156,222 157,222 157,222 157,222 157,222 157,222 157,222 157,222 157,223 157,223 157,223 157,223 157,223 157,223 158,223 158,223 158,223 158,223 158,223 158,223 158,223 158,223 158,223 158,223 158,223 158,223 158,223 159,223 159,223 159,223 159,223 159,223 159,223 159,223 159,223 159,223 159,223 159,223 159,223 160,223 160,223 160,223 160,223 160,223 160,223 160,223 160,223 160,223 160,223 160,223 160,223 160,223 161,223 161,223 161,223 161,223 161,223 161,223 161,223 161,223 161,223 161,223 161,223 161,223 161,223 162,223 162,223 162,223 162,223 162,223 162,222 162,222 162,222 162,222 162,222 162,221 162,221 162,221 163,221 163,220 163,220 163,220 163,219 163,219 163,219 163,219 163,218 163,218 163,218 163,218 163,218 164,218 164,217 164,216 164,216 164,215 164,215 164,215 164,215 164,214 164,214 164,214 164,213 164,213 165,213 165,213 165,212 165,212 165,212 165,212 165,212 165,212 165,212 165,212 165,213 165,213 165,213 166,213 166,214 166,214 166,215 166,215 166,215 166,216 166,216 166,216 166,217 166,217 166,217 166,218 167,218 167,218 167,219 167,219 167,219 167,220 167,220 167,220 167,220 167,221 167,221 167,222 167,222 168,223 168,223 168,223 168,223 168,224 168,224 168,224 168,224 168,224 168,225 168,225 168,225 168,226 169,226 169,226 169,226 169,226 169,226 169,226 169,226 169,226 169,226 169,226 169,226 169,226 169,226 170,226 170,226 170,226 170,226 170,226 170,226 170,226 170,226 170,226 170,226 170,226 170,226 170,226 171,226 171,226 171,226 171,226 171,226 171,226 171,226 171,226 171,226 171,226 171,226 171,226 171,226 172,226 172,226 172,226 172,225 172,225 172,225 172,225 172,225 172,225 172,225 172,225 172,225 172,225 173,225 173,225 173,225 173,225 173,225 173,225 173,225 173,225 173,225 173,225 173,225 173,225 173,225 174,225 174,225 174,225 174,225 174,225 174,225 174,225 174,225 174,225 174,225 174,225 174,225 174,225 175,225 175,225 175,225 175,225 175,225 175,225 175,225 175,225 175,225 175,224 175,224 175,224 175,224 176,224 176,224 176,224 176,224 176,224 176,224 176,224 176,224 176,224 176,224 176,224 176,224 177,224 177,224 177,224 177,224 177,224 177,223 177,223 177,222 177,222 177,222 177,222 177,222 177,222 178,222 178,222 178,222 178,222 178,222 178,222 178,222 178,222 178,222 178,222 178,223 178,223 178,223 179,223 179,223 179,223 179,223 179,223 179,223 179,223 179,223 179,223 179,223 179,223 179,223 179,223 180,223 180,223 180,223 180,223 180,223 180,223 180,223 180,223 180,224 180,224 180,224 180,224 180,224 181,224 181,224 181,224 181,224 181,223 181,223 181,223 181,223 181,223 181,223 181,223 181,223 181,223 182,224 182,224 182,225 182,225 182,225 182,225 182,225 182,225 182,224 182,223 182,222 182,222 182,221 183,221 183,221 183,221 183,220 183,220 183,220 183,220 183,219 183,219 183,219 183,219 183,219 183,218 184,218 184,218 184,218 184,218 184,218 184,218 184,218 184,218 184,218 184,218 184,218 184,218 184,218 185,217 185,218 185,218 185,218 185,218 185,218 185,218 185,218 185,218 185,218 185,218 185,218 185,218 186,218 186,218 186,218 186,218 186,218 186,218 186,218 186,218 186,218 186,218 186,218 186,218 186,218 187,218 187,218 187,218 187,218 187,219 187,218 187,218 187,218 187,218 187,218 187,218 187,217 187,217 188,217 188,217 188,216 188,216 188,216 188,216 188,216 188,216 188,216 188,216 188,216 188,216 188,216 189,216 189,216 189,215 189,215 189,215 189,215 189,215 189,215 189,215 189,215 189,215 189,215 189,215 190,215 190,214 190,214 190,214 190,214 190,213 190,213 190,213 190,212 190,212 190,211 190,211 190,211 191,211 191,211 191,211 191,210 191,210 191,209 191,209 191,209 191,208 191,208 191,207 191,207 191,206 192,206 192,206 192,206 192,205 192,205 192,205 192,205 192,205 192,205 192,205 192,205 192,205 192,205 193,205 193,205 193,205 193,205 193,205 193,205 193,205 193,205 193,205 193,205 193,205 193,205 193,205 194,205 194,205 194,205 194,206 194,206 194,206 194,206 194,206 194,206 194,206 194,206 194,206 195,207 195,207 195,207 195,207 195,207 195,207 195,207 195,207 195,207 195,207 195,207 195,207 195,207 196,207 196,207 196,207 196,207 196,207 196,207 196,207 196,207 196,207 196,207 196,207 196,207 196,207 197,207 197,208 197,208 197,208 197,208 197,209 197,209 197,209 197,209 197,209 197,209 197,209 197,209 198,209 198,209 198,210 198,210 198,210 198,210 198,210 198,210 198,210 198,210 198,210 198,210 198,210 199,210 199,210 199,210 199,210 199,210 199,209 199,209 199,209 199,208 199,208 199,207 199,207 199,206 200,205 200,204 200,204 200,204 200,204 200,204 200,203 200,203 200,203 200,202 200,202 200,202 200,201 201,201 201,201 201,200 201,200 201,200 201,200 201,200 201,200 201,200 201,200 201,200 201,200 201,200 202,200 202,200 202,200 202,200 202,199 202,199 202,199 202,199 202,199 202,198 202,198 202,198 202,198 203,198 203,197 203,197 203,197 203,197 203,197 203,197 203,196 203,196 203,196 203,196 203,196 203,196 204,196 204,196 204,196 204,196 204,196 204,195 204,195 204,196 204,196 204,196 204,196 204,196 204,196 205,196 205,196 205,196 205,196 205,196 205,196 205,196 205,196 205,195 205,195 205,195 205,195 205,195 206,195 206,195 206,196 206,196 206,196 206,197 206,198 206,198 206,199 206,198 206,197 206,196 206,196 207,196 207,195 207,195 207,195 207,195 207,194 207,194 207,194 207,193 207,193 207,192 207,192 207,192 208,192 208,191 208,191 208,191 208,190 208,190 208,190 208,190 208,190 208,189 208,189 208,189 208,189 209,189 209,189 209,189 209,189 209,189 209,189 209,189 209,189 209,189 209,189 209,189 209,189 209,189 210,189 210,189 210,189 210,190 210,190 210,190 210,190 210,191 210,191 210,191 210,191 210,191 210,191 211,191 211,191 211,191 211,191 211,192 211,192 211,192 211,193 211,193 211,194 211,195 211,195 212,196 212,196 212,197 212,197 212,198 212,198 212,198 212,198 212,199 212,199 212,199 212,199 212,200 213,200 213,200 213,201 213,201 213,201 213,202 213,202 213,202 213,202 213,203 213,203 213,203 213,203 214,204 214,204 214,204 214,205 214,205 214,205 214,205 214,205 214,206 214,206 214,206 214,206 214,207 215,207 215,207 215,207 215,207 215,208 215,208 215,208 215,208 215,208 215,208 215,208 215,208 215,209 216,209 216,209 216,209 216,209 216,209 216,209 216,209 216,209 216,209 216,209 216,209 216,209 216,209 217,209 217,209 217,208 217,208 217,208 217,208 217,208 217,208 217,208 217,208 217,208 217,208 217,208 218,208 218,208 218,208 218,207 218,207 218,207 218,207 218,206 218,206 218,206 218,206 218,206 218,206 219,206 219,206 219,206 219,206 219,206 219,206 219,206 219,206 219,206 219,206 219,206 219,205 219,205 220,205 220,204 220,204 220,204 220,204 220,204 220,204 220,204 220,204 220,204 220,204 220,204 220,204 221,204 221,204 221,204 221,204 221,204 221,204 221,204 221,204 221,204 221,204 221,204 221,204 221,204 222,204 222,204 222,204 222,203 222,203 222,203 222,203 222,203 222,202 222,202 222,202 222,202 222,202 223,202 223,202 223,203 223,203 223,203 223,203 223,203 223,202 223,202 223,202 223,202 223,201 223,201 224,201 224,201 224,202 224,202 224,202 224,202 224,202 224,202 224,202 224,202 224,202 224,202 224,202 225,201 225,201 225,201 225,201 225,201 225,201 225,201 225,201 225,201 225,201 225,201 225,201 225,201 226,200 226,200 226,200 226,200 226,200 226,200 226,199 226,199 226,199 226,199 226,199 226,199 226,199 227,199 227,199 227,199 227,199 227,199 227,199 227,199 227,199 227,199 227,198 227,198 227,198 227,198 228,198 228,198 228,198 228,198 228,198 228,198 228,198 228,198 228,198 228,199 228,199 228,199 228,199 229,199 229,199 229,200 229,199 229,199 229,199 229,199 229,199 229,199 229,199 229,199 229,199 230,200 230,200 230,199 230,199 230,198 230,198 230,197 230,197 230,197 230,197 230,196 230,196 230,196 231,196 231,195 231,195 231,195 231,195 231,194 231,194 231,194 231,194 231,194 231,194 231,193 231,193 232,193 232,193 232,192 232,192 232,192 232,192 232,192 232,192 232,191 232,191 232,191 232,190 232,190 233,190 233,189 233,189 233,188 233,188 233,188 233,187 233,187 233,187 233,186 233,186 233,186 233,185 234,185 234,185 234,184 234,184 234,183 234,183 234,183 234,182 234,182 234,182 234,181 234,181 234,181 235,180 235,180 235,180 235,179 235,179 235,179 235,179 235,178 235,178 235,178 235,178 235,178 235,178 236,177 236,177 236,177 236,177 236,177 236,177 236,177 236,177 236,177 236,177 236,176 236,176 236,176 237,176 237,176 237,176 237,176 237,176 237,175 237,175 237,175 237,175 237,174 237,174 237,173 237,173 238,173 238,172 238,172 238,172 238,172 238,172 238,171 238,171 238,171 238,171 238,171 238,171 238,171 239,170 239,171 239,170 239,170 239,170 239,170 239,171 239,171 239,171 239,172 239,172 239,173 239,173 240,174 240,174 240,174 240,174 240,175 240,174 240,174 240,174 240,174 240,173 240,173 240,172 240,172 241,172 241,172 241,172 241,172 241,172 241,172 241,172 241,172 241,172 241,173 241,173 241,173 241,173 242,173 242,173 242,173 242,173 242,173 242,173 242,173 242,173 242,173 242,173 242,173 242,174 242,174 243,174 243,175 243,175 243,175 243,176 243,176 243,176 243,176 243,177 243,177 243,177 243,177 243,177 244,177 244,176 244,176 244,176 244,176 244,176 244,176 244,176 244,175 244,175 244,175 244,175 244,175 245,175 245,175 245,174 245,174 245,174 245,174 245,174 245,174 245,173 245,173 245,173 245,173 245,173 246,173 246,172 246,172 246,172 246,172 246,172 246,172 246,171 246,171 246,171 246,171 246,170 246,170 247,170 247,170 247,169 247,169 247,169 247,169 247,169 247,168 247,168 247,168 247,168 247,168 248,168 248,167 248,167 248,167 248,167 248,167 248,166 248,166 248,166 248,165 248,165 248,164 248,164 249,163 249,163 249,162 249,162 249,161 249,161 249,160 249,160 249,159 249,159 249,159 249,158 249,158 250,158 250,157 250,157 250,156 250,156 250,156 250,155 250,155 250,154 250,154 250,154 250,153 250,153 251,153 251,153 251,153 251,153 251,153 251,154 251,154 251,154 251,154 251,154 251,154 251,154 251,154 252,154 252,154 252,154 252,154 252,154 252,154 252,154 252,154 252,154 252,154 252,155 252,155 252,155 253,156 253,156 253,157 253,157 253,157 253,158 253,159 253,160 253,160 253,160 253,160 253,160 253,160 254,160 254,160 254,160 254,160 254,160 254,161 254,161 254,161 254,161 254,161 254,161 254,161 254,161 255,161 255,160 255,160 255,160 255,160 255,160 255,160 255,160 255,160 255,159 255,159 255,160 255,160 256,160 256,160 256,159 256,159 256,159 256,159 256,159 256,159 256,159 256,159 256,160 256,160 256,161 257,161 257,161 257,162 257,162 257,162 257,162 257,162 257,162 257,161 257,161 257,160 257,160 257,160 258,159 258,159 258,159 258,158 258,158 258,157 258,156 258,155 258,154 258,154 258,153 258,153 258,153 259,153 259,153 259,153 259,153 259,153 259,153 259,153 259,153 259,153 259,153 259,153 259,153 259,153 260,153 260,154 260,154 260,154 260,154 260,155 260,155 260,156 260,156 260,157 260,157 260,157 260,158 261,158 261,158 261,158 261,158 261,158 261,158 261,157 261,157 261,157 261,157 261,157 261,157 261,157 262,157 262,157 262,157 262,157 262,157 262,157 262,157 262,157 262,157 262,157 262,157 262,157 262,157 263,157 263,157 263,157 263,157 263,157 263,157 263,157 263,157 263,157 263,157 263,157 263,157 263,157 264,157 264,157 264,157 264,157 264,157 264,156 264,156 264,155 264,155 264,154 264,154 264,153 265,153 265,152 265,153 265,153 265,154 265,154 265,154 265,155 265,155 265,155 265,155 265,155 265,156 266,156 266,156 266,156 266,156 266,156 266,157 266,157 266,157 266,158 266,158 266,159 266,159 266,160 267,161 267,161 267,162 267,163 267,164 267,165 267,165 267,166 267,167 267,168 267,169 267,169 267,170 268,171 268,171 268,172 268,171 268,171 268,171 268,171 268,171 268,172 268,172 268,172 268,172 268,172 269,173 269,173 269,173 269,173 269,173 269,173 269,173 269,173 269,173 269,174 269,173 269,173 269,174 270,174 270,174 270,174 270,175 270,175 270,175 270,175 270,176 270,176 270,176 270,177 270,177 270,177 271,177 271,178 271,178 271,178 271,178 271,179 271,179 271,179 271,179 271,180 271,180 271,180 271,181 272,181 272,182 272,183 272,183 272,184 272,185 272,186 272,187 272,188 272,189 272,189 272,190 272,191 273,192 273,192 273,192 273,192 273,192 273,192 273,192 273,191 273,191 273,191 273,191 273,191 273,191 274,191 274,191 274,191 274,191 274,190 274,190 274,190 274,190 274,189 274,189 274,188 274,188 274,187 275,186 275,186 275,185 275,184 275,183 275,182 275,181 275,180 275,179 275,178 275,177 275,176 275,175 276,174 276,173 276,172 276,172 276,172 276,172 276,172 276,172 276,172 276,172 276,172 276,172 276,172 277,172 277,172 277,172 277,172 277,172 277,172 277,172 277,172 277,172 277,172 277,172 277,172 277,172 278,171 278,171 278,171 278,171 278,171 278,171 278,172 278,172 278,172 278,172 278,173 278,173 278,174 279,174 279,175 279,175 279,176 279,177 279,177 279,178 279,179 279,179 279,180 279,181 279,181 279,182 280,182 280,183 280,184 280,185 280,186 280,187 280,187 280,188 280,189 280,190 280,191 280,192 280,193 281,194 281,195 281,196 281,197 281,198 281,199 281,200 281,201 281,202 281,203 281,204 281,205 281,206 282,207 282,208 282,209 282,210 282,212 282,213 282,214 282,215 282,216 282,216 282,217 282,218 283,218 283,218 283,218 283,218 283,218 283,217 283,217 283,217 283,216 283,216 283,216 283,215 283,215 284,214 284,214 284,213 284,212 284,212 284,211 284,211 284,210 284,209 284,208 284,208 284,207 284,206 285,206 285,205 285,204 285,204 285,203 285,202 285,202 285,201 285,201 285,200 285,200 285,199 285,198 286,198 286,198 286,198 286,197 286,197 286,197 286,197 286,197 286,197 286,197 286,196 286,196 286,196 287,196 287,196 287,196 287,196 287,196 287,196 287,196 287,196 287,196 287,196 287,197 287,197 287,197 288,197 288,197 288,198 288,198 288,198 288,198 288,199 288,199 288,199 288,199 288,199 288,200 288,200 289,200 289,200 289,200 289,201 289,201 289,201 289,201 289,201 289,202 289,202 289,202 289,202 289,202 290,202 290,203 290,203 290,203 290,204 290,204 290,205 290,205 290,206 290,206 290,207 290,208 290,208 291,209 291,210 291,210 291,211 291,211 291,212 291,212 291,213 291,213 291,214 291,214 291,214 291,215 292,215 292,215 292,216 292,216 292,217 292,217 292,218 292,218 292,219 292,220 292,220 292,221 292,221 293,222 293,223 293,223 293,224 293,224 293,225 293,225 293,226 293,226 293,227 293,227 293,228 293,229 294,229 294,230 294,230 294,230 294,231 294,232 294,232 294,233 294,234 294,235 294,235 294,236 294,236 295,237 295,237 295,237 295,238 295,238 295,239 295,239 295,240 295,240 295,240 295,240 295,241 295,241 296,241 296,241 296,242 296,242 296,242 296,242 296,242 296,242 296,241 296,241 296,240 296,239 296,239 297,239 297,238 297,238 297,237 297,237 297,237 297,236 297,236 297,236 297,235 297,235 297,235 297,235 298,233 298,231 298,230 298,229 298,228 298,228 298,226 298,225 298,224 298,223 298,223 298,223 298,222 299,222 299,221 299,221 299,220 299,219 299,218 299,218 299,217 299,217 299,216 299,216 299,216 300,215 300,215 300,215 300,216 300,217 300,217 300,218 300,218 300,218 300,219 300,219 300,219 300,219 301,219 301,219 301,219 301,219 301,220 301,220 301,220 301,221 301,221 301,221 301,222 301,222 301,222 302,222 302,223 302,223 302,223 302,223 302,223 302,223 302,223 302,222 302,221 302,220 302,219 302,218 303,217 303,216 303,215 303,213 303,212 303,211 303,210 303,209 303,208 303,207 303,206 303,204 303,203 304,202 304,201 304,200 304,199 304,198 304,197 304,196 304,196 304,195 304,194 304,193 304,192 304,191 305,190 305,189 305,188 305,188 305,187 305,186 305,185 305,185 305,184 305,183 305,182 305,182 305,181 306,180 306,180 306,179 306,179 306,178 306,177 306,177 306,176 306,176 306,175 306,175 306,174 306,174 307,173 307,173 307,172 307,172 307,171 307,171 307,170 307,170 307,169 307,169 307,168 307,168 307,168 308,167 308,167 308,166 308,166 308,165 308,165 308,164 308,164 308,164 308,163 308,163 308,162 308,162 309,161 309,161 309,161 309,160 309,160 309,160 309,160 309,160 309,160 309,160 309,160 309,160 309,160 310,160 310,161 310,161 310,161 310,161 310,161 310,161 310,161 310,161 310,161 310,161 310,161 310,161 311,161 311,161 311,161 311,161 311,161 311,161 311,161 311,161 311,161 311,161 311,160 311,160 311,160 312,160 312,161 312,161 312,161 312,161 312,161 312,161 312,161 312,161 312,161 312,162 312,162 312,163 313,163 313,164 313,164 313,165 313,165 313,166 313,166 313,166 313,167 313,167 313,167 313,168 313,168 314,169 314,169 314,170 314,170 314,170 314,171 314,171 314,172 314,172 314,172 314,173 314,173 314,173 315,173 315,174 315,174 315,174 315,175 315,175 315,175 315,176 315,176 315,176 315,177 315,177 315,178 316,178 316,178 316,178 316,178 316,179 316,179 316,180 316,180 316,180 316,180 316,181 316,181 316,181 317,181 317,181 317,181 317,181 317,181 317,182 317,182 317,182 317,181 317,181 317,180 317,180 318,180 318,179 318,179 318,179 318,178 318,178 318,178 318,178 318,178 318,178 318,178 318,178 318,178 319,178 319,178 319,178 319,178 319,178 319,178 319,178 319,178 319,178 319,178 319,178 319,178 319,178 320,179 320,179 320,179 320,179 320,179 320,179 320,179 320,180 320,180 320,180 320,181 320,182 320,183 321,183 321,184 321,185 321,185 321,186 321,187 321,187 321,188 321,188 321,189 321,189 321,190 321,190 322,190 322,191 322,191 322,192 322,192 322,193 322,194 322,194 322,195 322,195 322,196 322,196 322,196 323,196 323,197 323,197 323,197 323,198 323,198 323,198 323,198 323,198 323,197 323,197 323,197 323,197 324,197 324,197 324,197 324,197 324,197 324,197 324,197 324,197 324,197 324,197 324,196 324,196 324,196 325,196 325,196 325,196 325,196 325,196 325,196 325,196 325,196 325,196 325,196 325,196 325,196 325,196 326,195 326,195 326,195 326,195 326,195 326,195 326,195 326,195 326,195 326,195 326,195 326,195 326,195 327,194 327,194 327,194 327,194 327,194 327,194 327,194 327,194 327,194 327,194 327,194 327,194 327,194 328,194 328,194 328,194 328,194 328,194 328,194 328,194 328,194 328,194 328,194 328,194 328,194 328,194 329,194 329,194 329,194 329,194 329,194 329,195 329,195 329,195 329,195 329,195 329,195 329,195 329,196 330,196 330,196 330,196 330,196 330,196 330,196 330,196 330,197 330,197 330,197 330,197 330,197 330,198 331,198 331,198 331,199 331,199 331,199 331,199 331,200 331,200 331,201 331,201 331,202 331,202 331,202 332,203 332,203 332,203 332,204 332,204 332,205 332,205 332,205 332,205 332,206 332,206 332,206 332,206 333,206 333,207 333,207 333,208 333,208 333,207 333,207 333,206 333,206 333,205 333,204 333,203 333,202 334,202 334,201 334,200 334,200 334,199 334,199 334,199 334,198 334,198 334,198 334,197 334,197 335,197 335,197 335,196 335,196 335,196 335,196 335,196 335,196 335,196 335,196 335,196 335,196 335,197 336,197 336,197 336,197 336,197 336,198 336,197 336,198 336,198 336,199 336,199 336,200 336,200 336,201 337,201 337,201 337,202 337,202 337,202 337,202 337,201 337,201 337,200 337,200 337,199 337,199 337,198 338,198 338,197 338,197 338,197 338,197 338,196 338,196 338,196 338,196 338,196 338,196 338,196 338,196 339,196 339,196 339,196 339,196 339,196 339,196 339,196 339,196 339,196 339,196 339,196 339,196 339,197 340,197 340,198 340,198 340,199 340,199 340,200 340,201 340,201 340,202 340,202 340,203 340,204 340,204 341,205 341,205 341,206 341,206 341,207 341,208 341,208 341,209 341,209 341,210 341,210 341,211 341,211 342,211 342,212 342,212 342,213 342,213 342,214 342,215 342,215 342,216 342,217 342,217 342,218 342,218 343,218 343,217 343,217 343,217 343,216 343,216 343,216 343,216 343,215 343,216 343,216 343,216 343,216 344,217 344,217 344,217 344,218 344,218 344,219 344,219 344,218 344,218 344,218 344,218 344,218 344,217 345,217 345,217 345,216 345,216 345,215 345,215 345,215 345,214 345,214 345,213 345,213 345,212 345,212 346,212 346,211 346,211 346,211 346,210 346,210 346,210 346,209 346,209 346,209 346,208 346,208 346,207 347,207 347,207 347,207 347,206 347,206 347,206 347,205 347,205 347,205 347,205 347,204 347,204 347,204 348,203 348,203 348,203 348,202 348,202 348,202 348,201 348,201 348,200 348,200 348,200 348,199 348,199 349,198 349,198 349,197 349,197 349,197 349,196 349,197 349,197 349,197 349,197 349,197 349,197 349,197 350,197 350,197 350,197 350,197 350,198 350,198 350,198 350,198 350,198 350,198 350,199 350,199 350,200 351,200 351,200 351,201 351,201 351,201 351,201 351,202 351,202 351,202 351,202 351,203 351,203 351,203 352,203 352,203 352,204 352,204 352,204 352,205 352,205 352,205 352,206 352,206 352,206 352,207 353,207 353,207 353,208 353,208 353,209 353,209 353,209 353,209 353,209 353,209 353,209 353,208 353,208 354,208 354,208 354,207 354,207 354,207 354,207 354,207 354,207 354,207 354,206 354,206 354,206 354,206 355,206 355,206 355,205 355,205 355,205 355,205 355,204 355,204 355,204 355,204 355,204 355,204 355,204 356,205 356,205 356,205 356,205 356,206 356,206 356,206 356,207 356,207 356,208 356,208 356,208 356,209 357,209 357,209 357,210 357,210 357,211 357,212 357,212 357,212 357,213 357,213 357,213 357,214 357,214 358,214 358,215 358,215 358,215 358,215 358,215 358,215 358,215 358,215 358,215 358,215 358,215 358,215 359,215 359,215 359,215 359,215 359,215 359,215 359,215 359,215 359,216 359,216 359,216 359,217 359,217 360,217 360,218 360,218 360,218 360,219 360,219 360,219 360,219 360,219 360,219 360,219 360,219 360,219 361,218 361,217 361,217 361,217 361,216 361,216 361,216 361,215 361,215 361,214 361,214 361,213 361,213 362,213 362,213 362,213 362,212 362,212 362,212 362,213 362,213 362,213 362,214 362,214 362,214 362,215 363,215 363,216 363,216 363,217 363,217 363,218 363,218 363,218 363,219 363,219 363,219 363,220 363,220 364,220 364,220 364,220 364,221 364,221 364,221 364,221 364,221 364,221 364,221 364,221 364,221 364,222 365,222 365,222 365,222 365,223 365,223 365,223 365,224 365,224 365,224 365,225 365,225 365,226 365,226 366,226 366,227 366,227 366,228 366,228 366,229 366,229 366,229 366,229 366,229 366,229 366,229 366,229 367,229 367,229 367,228 367,228 367,228 367,228 367,228 367,228 367,228 367,228 367,228 367,228 367,228 368,228 368,227 368,227 368,226 368,226 368,225 368,225 368,225 368,224 368,224 368,223 368,223 368,223 369,222 369,222 369,222 369,222 369,223 369,223 369,223 369,223 369,222 369,222 369,222 369,223 370,223 370,222 370,222 370,223 370,223 370,223 370,223 370,224 370,224 370,224 370,225 370,225 370,225 371,225 371,226 371,226 371,226 371,227 371,227 371,227 371,227 371,228 371,228 371,229 371,229 371,230 372,230 372,230 372,230 372,230 372,231 372,231 372,231 372,232 372,232 372,232 372,233 372,233 372,233 373,233 373,234 373,234 373,234 373,235 373,235 373,236 373,236 373,236 373,237 373,237 373,238 373,238 374,238 374,239 374,239 374,239 374,239 374,240 374,240 374,240 374,240 374,240 374,241 374,241 374,241 375,241 375,241 375,241 375,242 375,242 375,242 375,242 375,242 375,243 375,243 375,243 375,243 375,244 376,244 376,245 376,245 376,245 376,245 376,246 376,246 376,246 376,247 376,247 376,247 376,247 376,248 377,248 377,248 377,248 377,248 377,249 377,249 377,249 377,249 377,250 377,250 377,250 377,250 377,250 378,251 378,251 378,251 378,251 378,251 378,252 378,252 378,252 378,252 378,252 378,251 378,251 378,251 379,251 379,251 379,251 379,251 379,251 379,251 379,251 379,251 379,251 379,251 379,251 379,251 379,252 380,252 380,252 380,252 380,252 380,252 380,253 380,253 380,253 380,253 380,253 380,253 380,253 380,253 381,253 381,253 381,253 381,253 381,253 381,253 381,253 381,253 381,253 381,253 381,253 381,253 381,252 382,252 382,252 382,252 382,252 382,251 382,251 382,251 382,251 382,251 382,251 382,251 382,251 382,250 383,250 383,250 383,250 383,250 383,249 383,249 383,249 383,249 383,249 383,249 383,248 383,248 383,248 384,248 384,248 384,248 384,248 384,248 384,249 384,249 384,249 384,249 384,250 384,250 384,250 384,251 385,251 385,251 385,252 385,252 385,252 385,252 385,252 385,252 385,252 385,252 385,251 385,251 385,251 386,251 386,251 386,251 386,250 386,250 386,250 386,249 386,249 386,249 386,248 386,248 386,248 386,247 387,247 387,247 387,247 387,246 387,246 387,246 387,245 387,245 387,245 387,245 387,245 387,245 388,245 388,246 388,246 388,246 388,246 388,247 388,247 388,247 388,247 388,247 388,248 388,248 388,248 389,248 389,249 389,249 389,249 389,249 389,249 389,249 389,249 389,249 389,249 389,249 389,249 389,249 390,249 390,249 390,249 390,249 390,249 390,249 390,250 390,250 390,251 390,251 390,252 390,253 390,253 391,253 391,254 391,254 391,254 391,254 391,254 391,254 391,254 391,254 391,253 391,253 391,253 391,253 392,253 392,253 392,253 392,253 392,253 392,252 392,252 392,252 392,252 392,252 392,252 392,252 392,252 393,252 393,252 393,253 393,253 393,253 393,253 393,254 393,254 393,254 393,255 393,255 393,255 393,255 394,256 394,256 394,256 394,256 394,257 394,257 394,257 394,257 394,258 394,258 394,258 394,259 394,259 395,259 395,260 395,260 395,260 395,260 395,260 395,261 395,261 395,261 395,261 395,261 395,262 395,262 396,262 396,262 396,262 396,263 396,263 396,263 396,263 396,263 396,263 396,263 396,263 396,263 396,263 397,264 397,264 397,264 397,264 397,264 397,264 397,265 397,265 397,265 397,265 397,266 397,266 397,266 398,267 398,267 398,268 398,268 398,268 398,269 398,269 398,270 398,270 398,271 398,271 398,272 398,272 399,273 399,273 399,274 399,274 399,275 399,276 399,276 399,277 399,277 399,277 399,278 399,280 399,281 400,282 400,283 400,284 400,286 400,288 400,289 400,290 400,290 400,291 400,291 400,292 400,292 400,292 401,292 401,291 401,291 401,291 401,291 401,290 401,289 401,289 401,288 401,288 401,287 401,286 401,285 402,286 402,286 402,285 402,285 402,285 402,285 402,284 402,284 402,284 402,284 402,284 402,284 402,283 403,283 403,282 403,282 403,282 403,282 403,281 403,281 403,281 403,280 403,280 403,279 403,279 403,279 404,278 404,278 404,277 404,276 404,276 404,275 404,274 404,273 404,273 404,272 404,271 404,269 404,268 405,267 405,267 405,267 405,266 405,265 405,265 405,264 405,264 405,263 405,263 405,262 405,262 406,261 406,261 406,261 406,261 406,261 406,261 406,261 406,261 406,260 406,260 406,260 406,260 406,260 407,260 407,260 407,260 407,260 407,260 407,260 407,260 407,260 407,260 407,260 407,260 407,260 407,260 408,260 408,260 408,260 408,260 408,260 408,259 408,259 408,259 408,259 408,259 408,259 408,259 408,259 409,259 409,259 409,259 409,259 409,259 409,260 409,260 409,260 409,261 409,261 409,261 409,261 409,262 410,262 410,262 410,263 410,263 410,264 410,265 410,265 410,266 410,267 410,267 410,268 410,268 410,269 411,269 411,270 411,270 411,270 411,269 411,269 411,269 411,269 411,269 411,269 411,268 411,268 411,268 412,267 412,267 412,267 412,267 412,267 412,267 412,267 412,267 412,267 412,267 412,267 412,267 412,267 413,267 413,267 413,267 413,267 413,267 413,267 413,267 413,266 413,266 413,266 413,266 413,266 413,266 414,266 414,265 414,265 414,265 414,266 414,266 414,266 414,266 414,266 414,266 414,266 414,266 414,266 415,266 415,266 415,265 415,265 415,265 415,265 415,265 415,265 415,265 415,265 415,266 415,266 415,267 416,267 416,267 416,268 416,268 416,269 416,269 416,270 416,270 416,271 416,271 416,271 416,272 416,272 417,272 417,273 417,273 417,273 417,273 417,273 417,273 417,274 417,273 417,273 417,274 417,274 417,274 418,274 418,274 418,274 418,274 418,274 418,274 418,273 418,273 418,273 418,273 418,273 418,273 418,273 419,273 419,273 419,272 419,272 419,272 419,272 419,272 419,272 419,271 419,271 419,271 419,271 419,271 420,271 420,271 420,271 420,271 420,270 420,270 420,270 420,270 420,270 420,270 420,270 420,270 420,270 421,270 421,270 421,270 421,270 421,270 421,270 421,270 421,269 421,269 421,269 421,269 421,269 421,269 422,269 422,269 422,269 422,269 422,269 422,269 422,269 422,269 422,269 422,269 422,270 422,270 423,270 423,270 423,270 423,270 423,270 423,270 423,270 423,269 423,269 423,269 423,270 423,270 423,270 424,270 424,270 424,270 424,269 424,269 424,269 424,269 424,269 424,269 424,269 424,269 424,269 424,269 425,269 425,269 425,269 425,269 425,269 425,269 425,269 425,269 425,269 425,269 425,269 425,270 425,270 426,270 426,270 426,271 426,271 426,272 426,272 426,272 426,273 426,273 426,274 426,274 426,274 426,275 427,276 427,277 427,277 427,278 427,279 427,279 427,280 427,280 427,281 427,281 427,282 427,282 427,283 428,283 428,283 428,284 428,285 428,285 428,285 428,285 428,286 428,286 428,287 428,287 428,287 428,288 429,288 429,289 429,289 429,289 429,289 429,290 429,290 429,290 429,290 429,291 429,291 429,291 429,291 430,291 430,291 430,291 430,291 430,291 430,291 430,291 430,291 430,291 430,291 430,292 430,292 430,292 431,292 431,292 431,292 431,292 431,293 431,293 431,294 431,294 431,295 431,296 431,297 431,297 431,298 432,300 432,301 432,302 432,303 432,305 432,306 432,307 432,308 432,309 432,310 432,311 432,311 432,311 433,311 433,312 433,312 433,311 433,311 433,311 433,311 433,310 433,310 433,309 433,309 433,309 433,309 434,308 434,308 434,308 434,308 434,308 434,308 434,309 434,309 434,309 434,310 434,310 434,311 434,312 435,312 435,312 435,312 435,313 435,313 435,314 435,314 435,315 435,315 435,316 435,316 435,316 435,316 436,315 436,315 436,314 436,313 436,311 436,309 436,308 436,306 436,305 436,304 436,303 436,302 436,301 437,301 437,301 437,301 437,301 437,300 437,300 437,300 437,300 437,300 437,299 437,299 437,298 437,298 438,297 438,298 438,298 438,299 438,300 438,300 438,301 438,302 438,303 438,303 438,303 438,303 438,304 439,305 439,305 439,306 439,307 439,307 439,307 439,306 439,306 439,306 439,305 439,304 439,303 439,303 440,302 440,301 440,300 440,300 440,299 440,298 440,297 440,297 440,296 440,296 440,295 440,294 441,293 441,293 441,292 441,291 441,291 441,290 441,290 441,290 441,289 441,289 441,289 441,288 441,288 442,288 442,288 442,287 442,287 442,287 442,287 442,286 442,286 442,286 442,286 442,286 442,286 442,286 443,286 443,286 443,287 443,287 443,287 443,287 443,287 443,287 443,288 443,288 443,288 443,288 443,288 444,288 444,288 444,288 444,288 444,288 444,288 444,288 444,288 444,289 444,289 444,290 444,290 444,291 445,292 445,292 445,293 445,294 445,295 445,296 445,297 445,298 445,299 445,300 445,301 445,302 445,303 446,304 446,305 446,305 446,306 446,306 446,307 446,308 446,308 446,309 446,309 446,310 446,310 446,311 447,311 447,311 447,311 447,310 447,309 447,309 447,309 447,309 447,309 447,308 447,308 447,308 447,308 448,308 448,308 448,308 448,308 448,307 448,307 448,307 448,306 448,306 448,305 448,305 448,304 448,303 449,303 449,302 449,302 449,301 449,301 449,300 449,299 449,299 449,299 449,298 449,298 449,298 449,297 450,297 450,297 450,297 450,297 450,297 450,297 450,297 450,297 450,297 450,297 450,297 450,298 450,298 451,298 451,299 451,299 451,299 451,299 451,299 451,299 451,299 451,300 451,300 451,301 451,301 451,302 452,302 452,303 452,304 452,304 452,304 452,304 452,304 452,304 452,304 452,303 452,303 452,302 452,301 453,300 453,300 453,299 453,299 453,298 453,298 453,297 453,297 453,296 453,296 453,296 453,295 453,295 454,295 454,295 454,295 454,295 454,295 454,296 454,296 454,296 454,296 454,297 454,297 454,297 454,298 455,298 455,298 455,299 455,299 455,300 455,300 455,301 455,301 455,301 455,302 455,302 455,302 455,302 456,302 456,303 456,303 456,303 456,303 456,303 456,303 456,304 456,304 456,304 456,304 456,304 456,304 457,304 457,304 457,304 457,304 457,304 457,304 457,304 457,304 457,304 457,304 457,304 457,304 458,303 458,303 458,303 458,303 458,303 458,303 458,303 458,303 458,303 458,303 458,303 458,303 458,302 459,302 459,302 459,302 459,302 459,301 459,301 459,301 459,301 459,301 459,302 459,302 459,302 459,302 460,302 460,302 460,303 460,303 460,303 460,303 460,303 460,304 460,304 460,304 460,304 460,305 460,305 461,306 461,306 461,306 461,307 461,307 461,307 461,308 461,308 461,309 461,310 461,310 461,311 461,311 462,311 462,312 462,312 462,312 462,313 462,313 462,313 462,313 462,313 462,313 462,314 462,314 462,314 463,314 463,314 463,314 463,314 463,314 463,314 463,314 463,314 463,314 463,314 463,313 463,313 463,313 464,312 464,312 464,311 464,311 464,311 464,310 464,310 464,310 464,309 464,309 464,309 464,309 464,309 465,308 465,308 465,308 465,308 465,308 465,308 465,308 465,308 465,308 465,308 465,308 465,308 465,308 466,308 466,308 466,309 466,309 466,309 466,309 466,309 466,309 466,309 466,309 466,309 466,309 466,309 467,309 467,309 467,310 467,310 467,310 467,310 467,310 467,310 467,310 467,310 467,310 467,310 467,310 468,311 468,311 468,311 468,311 468,312 468,312 468,312 468,313 468,313 468,314 468,314 468,314 468,315 469,315 469,315 469,316 469,316 469,316 469,316 469,316 469,316 469,316 469,316 469,316 469,316 469,316 470,316 470,316 470,316 470,317 470,317 470,317 470,317 470,317 470,318 470,319 470,319 470,319 470,319 471,319 471,319 471,320 471,320 471,320 471,320 471,320 471,320 471,320 471,320 471,320 471,320 471,320 472,320 472,320 472,320 472,320 472,320 472,320 472,321 472,321 472,321 472,321 472,320 472,320 472,320 473,320 473,320 473,320 473,321 473,321 473,321 473,321 473,321 473,321 473,321 473,321 473,321 473,320 474,320 474,320 474,320 474,320 474,320 474,320 474,320 474,320 474,320 474,320 474,320 474,320 474,320 475,320 475,320 475,320 475,320 475,320 475,320 475,320 475,320 475,320 475,320 475,320 475,320 476,319 476,319 476,319 476,319 476,318 476,318 476,318 476,318 476,318 476,318 476,318 476,318 476,318 477,318 477,319 477,319 477,319 477,319 477,319 477,319 477,319 477,319 477,319 477,319 477,319 477,319 478,319 478,319 478,319 478,319 478,319 478,319 478,319 478,319 478,319 478,319 478,319 478,319 478,319 479,319 479,318 479,318 479,318 479,318 479,318 479,318 479,318 479,318 479,318 479,318 479,318 479,318 480,318 480,317 480,317 480,317 480,317 480,317 480,317 480,317 480,316 480,316 480,316 480,316 480,316 481,316 481,316 481,316 481,316 481,316 481,316 481,316 481,316 481,315 481,315 481,315 481,315 481,315 482,315 482,315 482,315 482,314 482,314 482,314 482,314 482,314 482,313 482,313 482,313 482,313 482,313 483,313 483,313 483,313 483,313 483,313 483,313 483,313 483,313 483,313 483,313 483,313 483,312 483,312 484,312 484,312 484,312 484,312 484,312 484,311 484,311 484,311 484,311 484,311 484,310 484,310 484,310 485,310 485,310 485,310 485,309 485,309 485,309 485,309 485,309 485,309 485,309 485,309 485,309 485,308 486,308 486,308 486,308 486,308 486,309 486,309 486,309 486,309 486,309 486,309 486,310 486,310 486,310 487,310 487,310 487,310 487,311 487,311 487,311 487,312 487,312 487,313 487,313 487,313 487,313 487,314 488,314 488,314 488,314 488,314 488,314 488,315 488,315 488,315 488,315 488,315 488,315 488,315 488,315 489,315 489,315 489,315 489,315 489,315 489,316 489,315 489,315 489,315 489,315 489,315 489,316 489,316 490,316 490,316 490,316 490,316 490,317 490,317 490,317 490,317 490,317 490,317 490,318 490,318 490,318 491,318 491,319 491,319 491,319 491,319 491,320 491,320 491,321 491,321 491,322 491,322 491,323 491,323 492,323 492,324 492,324 492,325 492,325 492,326 492,326 492,326 492,326 492,326 492,327 492,327 493,327 493,327 493,327 493,327 493,327 493,328 493,328 493,327 493,327 493,327 493,328 493,328 493,328 494,328 494,329 494,329 494,329 494,329 494,328 494,328 494,328 494,328 494,328 494,328 494,328 494,328 495,328 495,328 495,328 495,328 495,328 495,328 495,328 495,328 495,328 495,328 495,329 495,328 495,328 496,328 496,328 496,329 496,329 496,329 496,329 496,329 496,329 496,328 496,328 496,328 496,328 496,328 497,328 497,328 497,328 497,328 497,328 497,328 497,328 497,328 497,327 497,327 497,327 497,326 497,326 498,326 498,325 498,325 498,325 498,325 498,324 498,324 498,324 498,324 498,323 498,323 498,323 498,323 499,323 499,323 499,323 499,323 499,323 499,323 499,323 499,323 499,323 499,323 499,323 499,322 499,322 500,322 500,322 500,322 500,322 500,322 500,322 500,322 500,321 500,321 500,321 500,321 500,321 500,321 501,321 501,321 501,321 501,321 501,321 501,321 501,322 501,322 501,322 501,322 501,321 501,321 501,321 502,321 502,321 502,321 502,321 502,321 502,321 502,321 502,321 502,321 502,321 502,321 502,320 502,320 503,320 503,320 503,320 503,320 503,320 503,320 503,320 503,320 503,320 503,320 503,320 503,319 503,319 504,319 504,319 504,319 504,319 504,319 504,319 504,319 504,319 504,319 504,319 504,319 504,319 504,319 505,319 505,319 505,319 505,319 505,319 505,319 505,319 505,319 505,319 505,318 505,318 505,319 505,319 506,319 506,319 506,319 506,319 506,319 506,319 506,319 506,319 506,319 506,319 506,319 506,319 506,319 507,319 507,319 507,319 507,319 507,319 507,319 507,319 507,319 507,320 507,320 507,320 507,320 507,320 508,320 508,320 508,320 508,320 508,320 508,320 508,320 508,320 508,320 508,320 508,320 508,321 508,321 509,321 509,321 509,321 509,321 509,321 509,321 509,321 509,321 509,321 509,321 509,321 509,321 509,321 510,321 510,321 510,321 510,321 510,321 510,321 510,321 510,321 510,321 510,321 510,321 510,322 511,322 511,322 511,322 511,322 511,322 511,322 511,322 511,322 511,322 511,322 511,322 511,322 511,322 512,322 512,322 512,322 512,323 512,323 512,323 512,323 512,323 512,323 512,323 512,323 512,323 512,323 513,323 513,323 513,323 513,323 513,323 513,323 513,323 513,323 513,323 513,323 513,323 513,323 513,323 514,323 514,324 514,324 514,324 514,324 514,324 514,324 514,324 514,324 514,324 514,324 514,324 514,324 515,324 515,324 515,325 515,325 515,325 515,325 515,325 515,325 515,325 515,325 515,325 515,325 515,325 516,325 516,325 516,325 516,325 516,325 516,325 516,325 516,325 516,325 516,325 516,325 516,325 516,325 517,325 517,325 517,325 517,325 517,325 517,325 517,325 517,325 517,325 517,325 517,325 517,325 517,325 518,325 518,325 518,325 518,325 518,325 518,325 518,325 518,325 518,325 518,325 518,325 518,325 518,325 519,325 519,325 519,325 519,325 519,325 519,325 519,325 519,325 519,325 519,325 519,325 519,325 519,325 520,325 520,325 520,325 520,325 520,325 520,325 520,325 520,325 520,325 520,325 520,325 520,325 520,325 521,325 521,325 521,325 521,325 521,325 521,325 521,325 521,325 521,325 521,325 521,325 521,325 521,325 522,325 522,325 522,325 522,325 522,325 522,325 522,325 522,325 522,325 522,325 522,325 522,325 522,325 523,325 523,325 523,325 523,325 523,325 523,325 523,325 523,325 523,325 523,325 523,325 523,325 523,325 524,325 524,325 524,325 524,325 524,325 524,325 524,325 524,325 524,325 524,325 524,325 524,325 524,325 525,325 525,325 525,325 525,325 525,325 525,325 525,325 525,325 525,325 525,325 525,325 525,324 525,324 526,324 526,324 526,324 526,324 526,324 526,324 526,324 526,324 526,324 526,324 526,324 526,324 526,324 527,324 527,324 527,324 527,324 527,324 527,324 527,324 527,324 527,324 527,324 527,324 527,324 528,324 528,324 528,324 528,324 528,324 528,324 528,324 528,324 528,324 528,324 528,324 528,324 528,324 529,324 529,324 529,324 529,324 529,324 529,324 529,325 529,325 529,325 529,325 529,325 529,325 529,325 530,325 530,325 530,325 530,325 530,325 530,325 530,325 530,325 530,325 530,325 530,325 530,326 530,326 531,326 531,326 531,326 531,326 531,326 531,326 531,326 531,326 531,326 531,326 531,326 531,326 531,326 532,326 532,326 532,326 532,326 532,326 532,326 532,326 532,326 532,326 532,326 532,326 532,326 532,326 533,326 533,327 533,327 533,327 533,327 533,327 533,327 533,327 533,327 533,327 533,327 533,327 533,327 534,327 534,327 534,327 534,327 534,328 534,328 534,328 534,328 534,328 534,328 534,328 534,328 534,328 535,328 535,328 535,328 535,328 535,328 535,328 535,328 535,329 535,329 535,329 535,329 535,329 535,329 536,329 536,329 536,329 536,329 536,329 536,329 536,329 536,329 536,329 536,329 536,329 536,329 536,329 537,329 537,329 537,329 537,329 537,329 537,329 537,329 537,329 537,329 537,329 537,329 537,329 537,329 538,329 538,328 538,328 538,328 538,328 538,328 538,328 538,328 538,328 538,328 538,328 538,328 538,328 539,328 539,328 539,328 539,328 539,328 539,328 539,328 539,328 539,328 539,328 539,328 539,328 539,328 540,328 540,328 540,328 540,328 540,328 540,328 540,328 540,328 540,328 540,328 540,328 540,328 540,328 541,328 541,328 541,328 541,328 541,328 541,328 541,328 541,328 541,329 541,329 541,329 541,329 541,329 542,329 542,329 542,329 542,329 542,329 542,329 542,329 542,329 542,329 542,329 542,329 542,329 542,329 543,329 543,329 543,329 543,329 543,329 543,329 543,329 543,329 543,329 543,329 543,329 543,329 543,330 544,330 544,330 544,330 544,330 544,330 544,330 544,330 544,330 544,330 544,330 544,330 544,330 544,330 545,330 545,330 545,330 545,330 545,330 545,330 545,330 545,331 545,331 545,331 545,331 545,330 546,331 546,331 546,330 546,330 546,331 546,331 546,331 546,331 546,331 546,331 546,331 546,331 546,331 547,331 547,331 547,331 547,330 547,331 547,331 547,331 547,331 547,331 547,331 547,331 547,331 547,331 548,331 548,331 548,331 548,331 548,331 548,331 548,331 548,331 548,331 548,330 548,330 548,330 548,330 549,330 549,330 549,330 549,330 549,330 549,330 549,330 549,330 549,330 549,330 549,330 549,330 549,330 550,330 550,330 550,330 550,330 550,330 550,330 550,330 550,330 550,330 550,330 550,330 550,330 550,330 551,330 551,330 551,330 551,330 551,330 551,330 551,330 551,330 551,330 551,330 551,330 551,330 551,330 552,330 552,330 552,330 552,330 552,330 552,330 552,330 552,330 552,330 552,330 552,330 552,330 552,330 553,330 553,330 553,330 553,330 553,330 553,330 553,330 553,330 553,330 553,330 553,330 553,330 553,330 554,330 554,330 554,330 554,330 554,330 554,330 554,330 554,330 554,330 554,330 554,330 554,330 554,330 555,330 555,330 555,330 555,330 555,330 555,330 555,330 555,330 555,330 555,330 555,330 555,330 555,330 556,330 556,330 556,330 556,330 556,330 556,330 556,330 556,330 556,329 556,329 556,329 556,329 556,329 557,329 557,329 557,329 557,329 557,329 557,329 557,329 557,329 557,329 557,329 557,329 557,329 557,329 558,329 558,329 558,329 558,329 558,329 558,329 558,329 558,329 558,328 558,328 558,328 558,328 558,328 559,328 559,328 559,328 559,328 559,328 559,328 559,328 559,328 559,328 559,328 559,328 559,327 559,327 560,327 560,327 560,327 560,327 560,327 560,327 560,327 560,327 560,327 560,327 560,327 560,327 560,327 561,327 561,327 561,327 561,327 561,327 561,327 561,327 561,327 561,327 561,327 561,327 561,327 561,327 562,327 562,327 562,327 562,327 562,327 562,327 562,327 562,327 562,327 562,327 562,327 562,327 562,327 563,327 563,326 563,326 563,326 563,326 563,326 563,326 563,326 563,326 563,326 563,326 563,326 564,326 564,326 564,326 564,326 564,326 564,326 564,326 564,326 564,326 564,326 564,326 564,326 564,326 565,326 565,326 565,326 565,326 565,326 565,326 565,326 565,326 565,326 565,326 565,326 565,326 565,326 566,326 566,326 566,326 566,325 566,325 566,325 566,325 566,325 566,325 566,325 566,325 566,325 566,325 567,325 567,325 567,325 567,325 567,324 567,324 567,324 567,324 567,324 567,324 567,324 567,324 567,324 568,324 568,324 568,324 568,324 568,323 568,323 568,323 568,323 568,323 568,323 568,323 568,323 568,323 569,323 569,322 569,322 569,322 569,322 569,322 569,322 569,322 569,322 569,321 569,321 569,321 569,321 570,321 570,321 570,321 570,321 570,321 570,321 570,320 570,320 570,320 570,320 570,320 570,320 570,320 571,320 571,320 571,320 571,320 571,320 571,320 571,320 571,320 571,320 571,320 571,320 571,320 571,320 572,320 572,320 572,320 572,320 572,320 572,320 572,320 572,320 572,320 572,320 572,320 572,320 572,320 573,320 573,320 573,320 573,320 573,320 573,320 573,320 573,320 573,320 573,320 573,320 573,320 573,320 574,321 574,321 574,321 574,321 574,321 574,321 574,321 574,321 574,321 574,321 574,321 574,321 574,321 575,321 575,321 575,321 575,321 575,321 575,321 575,321 575,321 575,321 575,321 575,321 575,321 575,321 576,321 576,321 576,321 576,321 576,321 576,321 576,321 576,321 576,321 576,321 576,321 576,321 576,321 577,321 577,321 577,321 577,321 577,321 577,321 577,321 577,321 577,321 577,321 577,321 577,321 577,321 578,321 578,321 578,321 578,321 578,321 578,321 578,321 578,321 578,321 578,321 578,321 578,321 578,321 579,321 579,321 579,321 579,322 579,322 579,322 579,322 579,322 579,322 579,322 579,322 579,322 579,322 580,322 580,322 580,322 580,322 580,322 580,322 580,322 580,322 580,322 580,322 580,323 580,323 581,323 581,323 581,323 581,323 581,323 581,323 581,323 581,323 581,323 581,323 581,323 581,323 581,323 582,323 582,324 582,324 582,324 582,324 582,324 582,324 582,325 582,325 582,325 582,325 582,325 582,326 583,326 583,326 583,326 583,326 583,327 583,327 583,327 583,327 583,327 583,328 583,328 583,328 583,328 584,328 584,328 584,328 584,328 584,329 584,329 584,329 584,329 584,329 584,329 584,329 584,329 584,329 585,329 585,329 585,329 585,329 585,329 585,330 585,330 585,330 585,330 585,330 585,330 585,330 585,330 586,330 586,330 586,330 586,330 586,330 586,330 586,330 586,331 586,331 586,331 586,331 586,331 586,331 587,331 587,331 587,331 587,332 587,332 587,332 587,332 587,332 587,332 587,332 587,333 587,333 587,333 588,333 588,334 588,334 588,334 588,334 588,334 588,334 588,335 588,335 588,335 588,335 588,335 588,335 589,336 589,336 589,336 589,336 589,336 589,336 589,336 589,336 589,337 589,337 589,337 589,337 589,337 590,337 590,337 590,337 590,337 590,337 590,338 590,338 590,338 590,338 590,338 590,338 590,338 590,338 591,338 591,338 591,339 591,339 591,339 591,339 591,339 591,339 591,339 591,339 591,339 591,339 591,340 592,340 592,340 592,340 592,340 592,340 592,340 592,340 592,340 592,340 592,341 592,341 592,341 592,341 593,341 593,341 593,341 593,341 593,341 593,341 593,341 593,341 593,341 593,341 593,341 593,342 593,342 594,342 594,342 594,342 594,342 594,342 594,342 594,342 594,342 594,342 594,342 594,342 594,342 594,342 595,342 595,341 595,341 595,341 595,341 595,341 595,340 595,340 595,340 595,340 595,340 595,340 595,340 596,341 596,341 596,341 596,341 596,341 596,341 596,341 596,341 596,341 596,341 596,340 596,340 596,340 597,340 597,340 597,340 597,340 597,340 597,340 597,340 597,339 597,339 597,339 597,339 597,339 597,339 598,339 598,339 598,339 598,339 598,339 598,339 598,339 598,339 598,339 598,339 598,339 598,339 599,339 599,339 599,339 599,339 599,339 599,339 599,339 599,340 599,340 599,340 599,340 599,340 599,340 600,340 600,340 600,341 600,341 600,341 600,341 600,341 600,342 600,342 600,342 600,342 600,342 600,342 601,343 601,343 601,343 601,343 601,343 601,343 601,343 601,343 601,343 601,343 601,343 601,343 601,343 602,344 602,344 602,344 602,344 602,344 602,344 602,344 602,344 602,345 602,345 602,345 602,345 602,346 603,346 603,346 603,346 603,346 603,346 603,347 603,347 603,347 603,347 603,347 603,348 603,348 603,348 604,348 604,349 604,349 604,349 604,349 604,350 604,350 604,350 604,350 604,351 604,351 604,351 604,351 605,351 605,352 605,352 605,352 605,352 605,353 605,353 605,353 605,353 605,353 605,354 605,354 605,354 606,354 606,354 606,354 606,355 606,355 606,355 606,355 606,355 606,355 606,355 606,355 606,355 606,356 607,356 607,356 607,356 607,356 607,356 607,356 607,356 607,356 607,356 607,356 607,357 607,357 607,357 608,357 608,357 608,357 608,357 608,357 608,357 608,357 608,357 608,357 608,357 608,357 608,357 608,357 609,358 609,358 609,358 609,358 609,358 609,358 609,358 609,359 609,359 609,360 609,360 609,360 609,361 610,361 610,361 610,362 610,362 610,362 610,362 610,362 610,362 610,362 610,362 610,362 610,361 610,361 611,361 611,361 611,361 611,360 611,360 611,360 611,360 611,360 611,359 611,359 611,359 611,359 611,359 612,359 612,359 612,359 612,359 612,359 612,359 612,359 612,359 612,359 612,360 612,360 612,359 612,359 613,359 613,359 613,359 613,359 613,359 613,359 613,359 613,359 613,358 613,358 613,358 613,358 613,358 614,357 614,357 614,357 614,357 614,357 614,357 614,357 614,357 614,357 614,357 614,357 614,357 614,357 615,357 615,357 615,357 615,357 615,357 615,357 615,357 615,357 615,356 615,356 615,356 615,356 616,356 616,356 616,356 616,356 616,356 616,356 616,356 616,356 616,356 616,356 616,356 616,356 616,356 617,356 617,356 617,356 617,356 617,356 617,356 617,356 617,355 617,355 617,355 617,355 617,355 617,355 618,355 618,355 618,355 618,355 618,355 618,355 618,355 618,355 618,354 618,354 618,354 618,354 618,354 619,354 619,354 619,354 619,354 619,354 619,354 619,354 619,354 619,354 619,354 619,354 619,354 619,354 620,354 620,354 620,354 620,354 620,354 620,354 620,354 620,354 620,354 620,354 620,354 620,354 620,354 621,354 621,354 621,354 621,354 621,354 621,354 621,354 621,354 621,354 621,354 621,355 621,355 621,355 622,355 622,355 622,355 622,355 622,354 622,354 622,354 622,354 622,354 622,354 622,354 622,354 622,354 623,354 623,354 623,354 623,354 623,354 623,354 623,354 623,354 623,354 623,354 623,354 623,354 623,354 624,354 624,354 624,354 624,355 624,355 624,355 624,355 624,355 624,355 624,355 624,355 624,355 624,355 625,355 625,355 625,355 625,355 625,355 625,355 625,355 625,355 625,355 625,355 625,355 625,355 625,355 626,355 626,355 626,355 626,355 626,355 626,355 626,355 626,355 626,355 626,355 626,355 626,355 626,355 627,355 627,355 627,355 627,355 627,355 627,355 627,355 627,355 627,355 627,355 627,355 627,355 627,354 628,354 628,354 628,354 628,354 628,354 628,354 628,354 628,354 628,355 628,355 628,354 628,354 628,354 629,354 629,354 629,354 629,354 629,354 629,354 629,354 629,354 629,354 629,354 629,354 629,354 629,354 630,354 630,354 630,354 630,354 630,354 630,354 630,354 630,354 630,354 630,354 630,354 630,354 630,354 631,354 631,354 631,354 631,354 631,354 631,354 631,354 631,354 631,354 631,354 631,355 631,355 631,355 632,355 632,355 632,355 632,355 632,355 632,355 632,355 632,355 632,355 632,355 632,355 632,355 632,355 633,355 633,355 633,355 633,355 633,355 633,355 633,355 633,355 633,355 633,355 633,355 633,355 634,355 634,355 634,354 634,354 634,354 634,354 634,354 634,354 634,354 634,354 634,354 634,354 634,354 635,354 635,354 635,354 635,354 635,354 635,354 635,354 635,354 635,354 635,354 635,354 635,355 635,355 636,355 636,355 636,355 636,355 636,355 636,355 636,355 636,356 636,356 636,356 636,356 636,356 636,356 637,356 637,356 637,356 637,356 637,356 637,356 637,356 637,356 637,356 637,356 637,356 637,356 637,356 638,356 638,356 638,356 638,356 638,356 638,356 638,356 638,356 638,356 638,355 638,355 638,355 638,355 639,355 639,355 639,355 639,355 639,355 639,355 639,355 639,355 639,355 639,355 639,355 639,355 639,355 640,355 640,355 640,355 640,355 640,355 640,355 640,355 640,355 640,355 640,355 640,355 640,355 640,355 641,355 641,355 641,355 641,355 641,356 641,356 641,356 641,356 641,356 641,356 641,356 641,356 641,356 642,356 642,356 642,356 642,356 642,356 642,356 642,356 642,356 642,356 642,357 642,357 642,357 642,357 643,357 643,357 643,357 643,357 643,357 643,357 643,357 643,357 643,357 643,357 643,357 643,357 643,357 644,357 644,357 644,357 644,357 644,358 644,358 644,358 644,358 644,358 644,358 644,358 644,358 644,358 645,358 645,358 645,358 645,358 645,358 645,358 645,358 645,358 645,358 645,358 645,358 645,358 645,358 646,358 646,358 646,358 646,358 646,358 646,358 646,358 646,358 646,358 646,358 646,358 646,358 646,358 647,358 647,358 647,358 647,358 647,358 647,358 647,357 647,357 647,357 647,357 647,357 647,357 647,357 648,357 648,357 648,357 648,357 648,357 648,357 648,357 648,357 648,357 648,357 648,357 648,357 648,357 649,357 649,357 649,357 649,358 649,358 649,358 649,358 649,358 649,358 649,358 649,358 649,358 649,358 650,358 650,358 650,358 650,358 650,358 650,358 650,358 650,358 650,358 650,358 650,358 650,358 651,358 651,358 651,358 651,358 651,358 651,358 651,358 651,358 651,358 651,358 651,358 651,358 651,358 652,358 652,358 652,358 652,358 652,358 652,358 652,358 652,359 652,359 652,359 652,359 652,359 652,359 653,359 653,359 653,359 653,359 653,359 653,359 653,359 653,358 653,358 653,358 653,358 653,358 653,358 654,358 654,358 654,358 654,358 654,358 654,358 654,358 654,358 654,358 654,357 654,357 654,357 654,357 655,357 655,357 655,357 655,357 655,357 655,357 655,357 655,357 655,357 655,357 655,357 655,357 655,357 656,357 656,357 656,357 656,357 656,357 656,357 656,357 656,357 656,357 656,357 656,357 656,357 656,357 657,356 657,356 657,356 657,356 657,356 657,356 657,356 657,356 657,356 657,356 657,356 657,356 657,356 658,356 658,356 658,356 658,356 658,356 658,356 658,356 658,356 658,356 658,356 658,356 658,356 658,357 659,357 659,357 659,357 659,357 659,357 659,357 659,357 659,357 659,357 659,357 659,357 659,357 659,357 660,357 660,357 660,357 660,357 660,357 660,357 660,357 660,357 660,357 660,357 660,357 660,357 660,357 661,357 661,357 661,357 661,357 661,357 661,357 661,357 661,357 661,357 661,357 661,357 661,357 661,357 662,357 662,357 662,357 662,357 662,357 662,357 662,357 662,357 662,357 662,357 662,357 662,357 662,357 663,357 663,357 663,358 663,358 663,358 663,358 663,358 663,358 663,358 663,358 663,358 663,358 663,358 664,358 664,358 664,358 664,358 664,358 664,358 664,358 664,358 664,358 664,358 664,358 664,357 664,357 665,357 665,357 665,357 665,357 665,357 665,357 665,357 665,357 665,357 665,357 665,357 665,357 665,357 666,357 666,357 666,357 666,357 666,357 666,357 666,357 666,357 666,357 666,357 666,356 666,356 666,356 667,356 667,356 667,356 667,356 667,356 667,356 667,356 667,356 667,356 667,356 667,356 667,356 667,356 668,356 668,356 668,356 668,356 668,356 668,356 668,356 668,356 668,356 668,356 668,356 668,356 669,356 669,356 669,356 669,356 669,356 669,356 669,356 669,356 669,356 669,356 669,356 669,356 669,356 670,356 670,356 670,356 670,355 670,355 670,355 670,355 670,355 670,355 670,355 670,355 670,355 670,355 671,355 671,355 671,355 671,355 671,355 671,355 671,355 671,355 671,355 671,355 671,355 671,355 671,355 672,355 672,355 672,355 672,355 672,355 672,355 672,355 672,355 672,355 672,355 672,355 672,355 672,355 673,355 673,355 673,355 673,355 673,355 673,355 673,355 673,355 673,355 673,355 673,355 673,355 673,355 674,355 674,355 674,355 674,355 674,355 674,355 674,355 674,355 674,355 674,355 674,355 674,355 674,355 675,355 675,355 675,355 675,355 675,355 675,355 675,355 675,355 675,355 675,355 675,355 675,355 675,355 676,355 676,355 676,355 676,355 676,355 676,355 676,355 676,355 676,355 676,355 676,355 676,355 676,355 677,355 677,355 677,355 677,355 677,355 677,355 677,355 677,355 677,355 677,355 677,355 677,355 677,356 678,356 678,356 678,356 678,356 678,356 678,356 678,356 678,356 678,356 678,356 678,356 678,356 678,356 679,356 679,356 679,356 679,356 679,356 679,356 679,356 679,356 679,356 679,356 679,356 679,356 679,356 680,356 680,356 680,356 680,356 680,356 680,355 680,355 680,355 680,355 680,355 680,355 680,355 680,355 681,355 681,355 681,355 681,355 681,355 681,355 681,355 681,355 681,355 681,355 681,355 681,355 681,355 682,355 682,355 682,355 682,355 682,355 682,355 682,355 682,355 682,355 682,355 682,355 682,355 682,355 683,355 683,355 683,355 683,355 683,355 683,355 683,355 683,355 683,355 683,355 683,355 683,355 683,355 684,355 684,355 684,355 684,355 684,355 684,355 684,355 684,355 684,355 684,355 684,355 684,355 684,355 685,355 685,355 685,355 685,355 685,355 685,355 685,355 685,355 685,355 685,354 685,354 685,354 685,354 686,354 686,354 686,354 686,354 686,354 686,354 686,354 686,354 686,354 686,353 686,353 686,353 687,353 687,353 687,353 687,353 687,353 687,353 687,353 687,353 687,353 687,353 687,353 687,353 687,353 688,353 688,353 688,353 688,353 688,353 688,353 688,353 688,353 688,353 688,353 688,353 688,353 688,353 689,353 689,353 689,353 689,352 689,352 689,352 689,352 689,352 689,352 689,352 689,352 689,352 689,352 690,352 690,352 690,352 690,352 690,352 690,351 690,351 690,351 690,351 690,351 690,351 690,351 690,351 691,351 691,351 691,351 691,351 691,351 691,351 691,351 691,351 691,351 691,351 691,351 691,351 691,351 692,351 692,351 692,351 692,351 692,351 692,351 692,351 692,351 692,351 692,351 692,351 692,351 692,351 693,351 693,351 693,351 693,351 693,351 693,351 693,351 693,351 693,351 693,351 693,351 693,351 693,351 694,351 694,351 694,351 694,351 694,351 694,351 694,351 694,351 694,351 694,351 694,351 694,351 694,351 695,351 695,351 695,351 695,351 695,351 695,351 695,351 695,351 695,351 695,351 695,352 695,352 695,352 696,352 696,352 696,352 696,352 696,352 696,352 696,352 696,352 696,352 696,352 696,352 696,352 696,352 697,352 697,352 697,352 697,352 697,352 697,352 697,352 697,352 697,352 697,352 697,352 697,353 697,353 698,353 698,353 698,353 698,353 698,353 698,353 698,353 698,353 698,353 698,353 698,353 698,353 698,352 699,352 699,352 699,352 699,352 699,352 699,352 699,352 699,352 699,352 699,352 699,352 699,352 699,352 700,352 700,352 700,352 700,352 700,352 700,352 700,352 700,352 700,352 700,352 700,352 700,352 700,352 701,352 701,352 701,352 701,352 701,352 701,352 701,352 701,352 701,352 701,352 701,352 701,352 701,352 702,351 702,351 702,351 702,351 702,351 702,351 702,351 702,351 702,351 702,351 702,351 702,351 702,351 703,351 703,351 703,351 703,351 703,351 703,351 703,351 703,350 703,350 703,350 703,350 703,350 704,350 704,350 704,350 704,350 704,350 704,350 704,350 704,350 704,350 704,350 704,350 704,349 704,349 705,349 705,349 705,349 705,349 705,349 705,349 705,349 705,349 705,349 705,349 705,349 705,348 705,348 706,348 706,348 706,348 706,348 706,348 706,348 706,348 706,348 706,348 706,347 706,347 706,347 706,347 707,347 707,347 707,347 707,347 707,347 707,346 707,346 707,346 707,346 707,346 707,346 707,346 707,346 708,346 708,345 708,345 708,345 708,345 708,345 708,345 708,345 708,345 708,344 708,344 708,344 708,344 709,344 709,344 709,344 709,344 709,344 709,344 709,343 709,343 709,343 709,343 709,343 709,343 709,343 710,343 710,343 710,343 710,343 710,343 710,342 710,342 710,342 710,342 710,342 710,342 710,342 710,342 711,342 711,342 711,342 711,342 711,342 711,341 711,341 711,341 711,341 711,341 711,341 711,341 711,341 712,341 712,341 712,341 712,341 712,341 712,341 712,341 712,341 712,340 712,340 712,340 712,340 712,340 713,340 713,340 713,340 713,340 713,340 713,340 713,340 713,340 713,340 713,340 713,340 713,340 713,339 714,339 714,339 714,339 714,339 714,339 714,339 714,339 714,339 714,339 714,339 714,339 714,339 714,339 715,339 715,339 715,339 715,339 715,338 715,338 715,338 715,338 715,338 715,338 715,338 715,338 715,338 716,338 716,338 716,338 716,338 716,338 716,338 716,338 716,338 716,338 716,338 716,338 716,338 716,338 717,338 717,338 717,338 717,338 717,338 717,338 717,338 717,338 717,338 717,338 717,338 717,337 717,337 718,337 718,337 718,337 718,337 718,337 718,337 718,337 718,337 718,337 718,337 718,337 718,337 718,337 719,337 719,337 719,337 719,337 719,337 719,337 719,337 719,337 719,337 719,337 719,337 719,337 719,337 720,337 720,337 720,337 720,337 720,337 720,337 720,337 720,337 720,337 720,337 720,337 720,337 720,337 721,337 721,337 721,337 721,337 721,337 721,337 721,337 721,337 721,336 721,336 721,336 721,336 722,336 722,336 722,336 722,336 722,336 722,336 722,336 722,336 722,335 722,335 722,335 722,335 722,335 723,335 723,335 723,335 723,335 723,335 723,334 723,334 723,334 723,334 723,334 723,334 723,334 723,334 724,334 724,334 724,333 724,333 724,333 724,333 724,333 724,333 724,333 724,333 724,333 724,333 724,333 725,332 725,332 725,332 725,332 725,332 725,332 725,332 725,332 725,332 725,332 725,331 725,331 725,331 726,331 726,331 726,331 726,331 726,331 726,331 726,331 726,331 726,331 726,331 726,330 726,330 726,330 727,330 727,330 727,330 727,330 727,330 727,330 727,330 727,330 727,330 727,330 727,330 727,330 727,330 728,330 728,330 728,330 728,330 728,330 728,330 728,330 728,330 728,330 728,330 728,330 728,330 728,330 729,330 729,330 729,330 729,330 729,330 729,330 729,330 729,330 729,329 729,329 729,329 729,329 729,329 730,329 730,329 730,329 730,329 730,329 730,329 730,329 730,329 730,329 730,329 730,329 730,329 730,329 731,329 731,329 731,329 731,329 731,329 731,329 731,329 731,328 731,328 731,328 731,328 731,328 731,328 732,328 732,328 732,328 732,328 732,328 732,328 732,328 732,328 732,328 732,328 732,328 732,328 732,328 733,327 733,327 733,327 733,327 733,327 733,327 733,327 733,327 733,327 733,327 733,327 733,327 733,327 734,327 734,327 734,327 734,327 734,327 734,326 734,326 734,326 734,326 734,326 734,326 734,326 734,326 735,326 735,326 735,326 735,326 735,326 735,326 735,326 735,326 735,325 735,325 735,325 735,325 735,325 736,325 736,325 736,325 736,325 736,325 736,325 736,325 736,325 736,325 736,325 736,325 " vector-effect="non-scaling-stroke"></polyline>
</g></svg>