<?xml version="1.0" encoding="UTF-8" standalone="no"?><svg width="282.222mm" height="141.111mm" xmlns="http://www.w3.org/2000/svg" xmlns:xlink="http://www.w3.org/1999/xlink"  version="1.2" baseProfile="tiny"><g fill="none" stroke="#ff0000" stroke-linecap="round" stroke-linejoin="round" stroke-opacity="1" stroke-width="1.5" transform="matrix(1,0,0,1,0,0)">
<polyline fill="none" points="27,319 27,319 27,319 27,319 27,318 27,318 27,318 27,318 28,318 28,318 28,318 28,318 28,318 28,318 28,318 28,318 28,318 28,318 28,318 28,317 28,317 29,317 29,317 29,317 29,317 29,317 29,317 29,317 29,317 29,317 29,317 29,316 29,316 29,316 30,316 30,316 30,316 30,316 30,316 30,316 30,316 30,316 30,316 30,316 30,316 30,315 30,315 31,315 31,315 31,315 31,315 31,315 31,315 31,315 31,315 31,314 31,314 31,314 31,314 31,314 32,314 32,314 32,314 32,314 32,314 32,314 32,314 32,314 32,314 32,314 32,314 32,313 32,313 33,313 33,313 33,313 33,313 33,313 33,313 33,313 33,313 33,312 33,312 33,312 33,312 33,312 34,312 34,312 34,312 34,312 34,312 34,312 34,311 34,311 34,311 34,311 34,311 34,311 34,311 35,311 35,311 35,310 35,310 35,310 35,310 35,310 35,310 35,310 35,309 35,309 35,309 35,309 36,309 36,309 36,309 36,308 36,308 36,308 36,308 36,307 36,307 36,307 36,307 36,306 37,306 37,306 37,306 37,306 37,305 37,305 37,305 37,305 37,304 37,304 37,304 37,304 37,304 38,304 38,304 38,304 38,304 38,303 38,303 38,303 38,303 38,303 38,302 38,302 38,302 38,302 39,302 39,301 39,301 39,301 39,301 39,301 39,300 39,300 39,300 39,300 39,299 39,299 39,299 40,299 40,299 40,298 40,298 40,298 40,298 40,298 40,298 40,298 40,298 40,297 40,297 40,297 41,297 41,297 41,297 41,297 41,297 41,297 41,296 41,296 41,296 41,296 41,296 41,296 41,296 42,296 42,296 42,295 42,295 42,295 42,295 42,295 42,295 42,294 42,294 42,294 42,294 42,294 43,293 43,293 43,293 43,293 43,293 43,293 43,292 43,292 43,292 43,292 43,292 43,291 43,291 44,291 44,291 44,291 44,291 44,290 44,290 44,290 44,290 44,290 44,290 44,289 44,289 44,289 45,289 45,289 45,289 45,289 45,289 45,289 45,289 45,289 45,289 45,288 45,288 45,288 45,288 46,288 46,288 46,288 46,288 46,288 46,288 46,288 46,288 46,288 46,288 46,288 46,288 46,288 47,288 47,288 47,288 47,288 47,288 47,288 47,288 47,288 47,288 47,287 47,287 47,287 47,287 48,286 48,286 48,286 48,285 48,285 48,285 48,285 48,284 48,284 48,284 48,284 48,284 48,284 49,283 49,283 49,283 49,283 49,283 49,282 49,282 49,282 49,282 49,282 49,282 49,282 49,282 50,281 50,281 50,281 50,280 50,280 50,280 50,280 50,280 50,280 50,280 50,280 50,280 50,280 51,279 51,279 51,279 51,279 51,279 51,279 51,279 51,279 51,278 51,278 51,278 51,278 51,278 52,278 52,278 52,278 52,278 52,278 52,278 52,278 52,278 52,278 52,279 52,279 52,279 52,279 53,280 53,280 53,281 53,281 53,282 53,282 53,283 53,284 53,284 53,285 53,285 53,286 54,286 54,287 54,287 54,287 54,287 54,287 54,286 54,286 54,285 54,285 54,284 54,284 54,284 55,284 55,283 55,283 55,283 55,283 55,283 55,282 55,282 55,282 55,282 55,281 55,281 55,281 56,280 56,280 56,280 56,279 56,279 56,278 56,278 56,278 56,277 56,277 56,277 56,276 56,276 57,276 57,275 57,275 57,274 57,274 57,274 57,273 57,273 57,273 57,272 57,272 57,271 57,271 58,271 58,271 58,270 58,270 58,270 58,270 58,271 58,271 58,271 58,272 58,272 58,272 58,272 59,273 59,273 59,273 59,273 59,273 59,274 59,275 59,276 59,276 59,277 59,277 59,277 59,277 60,276 60,276 60,275 60,274 60,273 60,272 60,272 60,271 60,270 60,270 60,269 60,269 60,268 61,267 61,267 61,266 61,266 61,265 61,265 61,264 61,264 61,263 61,262 61,262 61,261 61,261 62,260 62,260 62,259 62,259 62,258 62,258 62,257 62,257 62,257 62,256 62,256 62,255 62,255 63,253 63,253 63,252 63,252 63,251 63,251 63,250 63,250 63,249 63,248 63,247 63,247 63,246 64,246 64,246 64,246 64,245 64,245 64,244 64,244 64,244 64,243 64,243 64,242 64,242 64,242 65,242 65,241 65,241 65,241 65,241 65,240 65,240 65,240 65,240 65,240 65,240 65,240 65,239 66,239 66,239 66,239 66,239 66,238 66,238 66,238 66,238 66,238 66,238 66,238 66,238 66,238 67,239 67,239 67,239 67,239 67,239 67,239 67,240 67,240 67,240 67,240 67,240 67,241 67,241 68,240 68,240 68,240 68,240 68,240 68,240 68,239 68,239 68,239 68,239 68,239 68,239 68,238 69,238 69,238 69,238 69,238 69,238 69,237 69,237 69,237 69,237 69,237 69,237 69,237 69,238 70,238 70,238 70,239 70,239 70,240 70,240 70,240 70,240 70,240 70,241 70,241 70,240 71,240 71,240 71,239 71,239 71,239 71,239 71,238 71,238 71,238 71,238 71,239 71,240 71,240 72,241 72,241 72,242 72,242 72,243 72,243 72,244 72,244 72,244 72,244 72,244 72,244 72,245 73,246 73,246 73,247 73,248 73,249 73,250 73,250 73,250 73,251 73,251 73,252 73,252 73,252 74,251 74,250 74,249 74,249 74,247 74,246 74,245 74,245 74,243 74,242 74,241 74,240 74,240 75,239 75,238 75,237 75,236 75,234 75,233 75,232 75,231 75,230 75,228 75,227 75,226 75,225 76,224 76,223 76,222 76,221 76,221 76,220 76,220 76,220 76,220 76,219 76,219 76,218 76,217 77,217 77,216 77,215 77,215 77,215 77,215 77,215 77,215 77,215 77,215 77,215 77,215 77,215 78,215 78,215 78,215 78,214 78,214 78,214 78,214 78,213 78,213 78,213 78,213 78,212 78,212 79,212 79,211 79,211 79,210 79,210 79,210 79,209 79,209 79,209 79,208 79,208 79,207 79,207 80,207 80,206 80,206 80,206 80,205 80,205 80,205 80,204 80,204 80,203 80,203 80,202 80,202 81,201 81,201 81,200 81,200 81,199 81,199 81,198 81,198 81,198 81,198 81,198 81,198 81,197 82,197 82,196 82,196 82,195 82,195 82,194 82,194 82,194 82,194 82,194 82,194 82,193 82,193 83,193 83,193 83,193 83,193 83,193 83,193 83,193 83,192 83,192 83,192 83,192 83,192 83,192 84,193 84,193 84,193 84,193 84,193 84,193 84,193 84,193 84,193 84,193 84,193 84,193 84,193 85,193 85,193 85,193 85,193 85,194 85,194 85,194 85,194 85,194 85,195 85,195 85,195 85,195 86,195 86,196 86,196 86,196 86,196 86,196 86,196 86,196 86,197 86,197 86,197 86,197 86,197 87,197 87,197 87,197 87,197 87,197 87,197 87,197 87,197 87,197 87,197 87,197 87,197 88,197 88,197 88,197 88,197 88,197 88,197 88,198 88,198 88,198 88,198 88,198 88,199 88,199 89,199 89,199 89,200 89,200 89,200 89,200 89,201 89,201 89,201 89,201 89,202 89,202 89,202 90,202 90,202 90,202 90,202 90,202 90,202 90,202 90,202 90,202 90,201 90,201 90,201 90,201 91,200 91,200 91,200 91,200 91,200 91,200 91,200 91,200 91,200 91,200 91,199 91,199 91,199 92,199 92,199 92,199 92,199 92,199 92,199 92,199 92,199 92,199 92,199 92,199 92,199 92,199 93,199 93,199 93,198 93,198 93,198 93,198 93,197 93,197 93,197 93,196 93,196 93,195 93,195 94,194 94,194 94,193 94,193 94,192 94,192 94,192 94,191 94,191 94,191 94,191 94,191 94,190 95,189 95,189 95,188 95,188 95,188 95,188 95,187 95,187 95,187 95,187 95,187 95,187 95,186 96,186 96,186 96,186 96,185 96,185 96,185 96,185 96,185 96,185 96,185 96,185 96,185 96,185 97,184 97,184 97,184 97,184 97,184 97,184 97,184 97,185 97,185 97,185 97,185 97,185 97,185 98,185 98,186 98,186 98,186 98,186 98,186 98,187 98,187 98,187 98,187 98,187 98,188 98,188 99,188 99,188 99,189 99,189 99,189 99,189 99,190 99,190 99,190 99,190 99,190 99,190 99,190 100,191 100,191 100,191 100,191 100,190 100,190 100,190 100,190 100,190 100,189 100,189 100,189 100,189 101,189 101,189 101,188 101,188 101,187 101,187 101,187 101,187 101,186 101,186 101,186 101,186 101,186 102,186 102,186 102,186 102,186 102,186 102,186 102,186 102,185 102,185 102,185 102,185 102,185 102,185 103,185 103,185 103,185 103,185 103,185 103,185 103,185 103,185 103,185 103,185 103,185 103,185 103,185 104,185 104,185 104,186 104,186 104,186 104,186 104,186 104,186 104,186 104,186 104,186 104,186 105,186 105,186 105,186 105,187 105,187 105,187 105,188 105,188 105,189 105,189 105,189 105,189 105,189 106,189 106,189 106,189 106,189 106,190 106,190 106,190 106,190 106,190 106,190 106,190 106,190 106,190 107,190 107,189 107,189 107,188 107,189 107,189 107,189 107,189 107,189 107,189 107,190 107,190 107,190 108,190 108,190 108,191 108,191 108,191 108,192 108,192 108,192 108,193 108,193 108,193 108,194 108,194 109,195 109,196 109,196 109,197 109,197 109,198 109,198 109,198 109,199 109,199 109,200 109,200 109,200 110,201 110,201 110,201 110,201 110,202 110,202 110,203 110,203 110,204 110,204 110,204 110,204 110,205 111,205 111,205 111,206 111,206 111,207 111,207 111,208 111,208 111,208 111,208 111,208 111,208 111,208 112,208 112,208 112,208 112,208 112,209 112,209 112,208 112,208 112,207 112,207 112,206 112,205 112,205 113,205 113,204 113,204 113,203 113,204 113,203 113,203 113,203 113,202 113,202 113,202 113,202 113,201 114,201 114,200 114,199 114,199 114,198 114,198 114,197 114,197 114,197 114,196 114,196 114,196 114,196 115,195 115,195 115,195 115,195 115,194 115,194 115,194 115,193 115,193 115,193 115,193 115,193 115,193 116,193 116,193 116,193 116,193 116,193 116,193 116,193 116,193 116,193 116,193 116,193 116,193 116,193 117,193 117,193 117,193 117,193 117,194 117,194 117,194 117,194 117,194 117,194 117,194 117,194 117,194 118,195 118,195 118,195 118,195 118,195 118,196 118,196 118,196 118,196 118,196 118,196 118,197 118,197 119,197 119,197 119,197 119,197 119,197 119,197 119,197 119,197 119,197 119,197 119,197 119,197 119,197 120,197 120,197 120,197 120,198 120,198 120,198 120,198 120,198 120,199 120,199 120,199 120,199 120,200 121,200 121,200 121,201 121,201 121,201 121,201 121,201 121,201 121,201 121,201 121,201 121,202 122,202 122,202 122,202 122,202 122,203 122,203 122,203 122,203 122,203 122,203 122,203 122,203 122,203 123,203 123,204 123,204 123,204 123,204 123,204 123,204 123,204 123,204 123,204 123,204 123,204 123,204 124,204 124,204 124,204 124,204 124,205 124,205 124,206 124,206 124,206 124,206 124,207 124,207 124,207 125,208 125,208 125,208 125,208 125,209 125,209 125,209 125,210 125,210 125,210 125,211 125,211 125,211 126,211 126,212 126,212 126,212 126,212 126,212 126,213 126,213 126,213 126,214 126,214 126,214 126,214 127,214 127,214 127,214 127,214 127,215 127,215 127,215 127,216 127,216 127,216 127,216 127,217 127,217 128,217 128,217 128,218 128,218 128,218 128,218 128,219 128,219 128,219 128,219 128,219 128,219 128,220 129,220 129,220 129,220 129,220 129,220 129,220 129,220 129,220 129,221 129,221 129,221 129,221 129,221 130,222 130,222 130,222 130,222 130,222 130,222 130,222 130,222 130,222 130,223 130,223 130,223 130,223 131,223 131,223 131,223 131,223 131,223 131,223 131,223 131,223 131,223 131,222 131,222 131,221 131,221 132,221 132,221 132,221 132,221 132,221 132,221 132,221 132,221 132,220 132,220 132,220 132,220 132,220 133,220 133,220 133,221 133,221 133,222 133,222 133,222 133,222 133,220 133,220 133,220 133,220 133,220 134,221 134,221 134,221 134,221 134,221 134,221 134,221 134,221 134,221 134,221 134,221 134,221 134,221 135,221 135,221 135,221 135,221 135,221 135,221 135,221 135,221 135,221 135,221 135,220 135,220 135,220 136,220 136,220 136,220 136,220 136,220 136,220 136,221 136,221 136,221 136,221 136,221 136,221 136,221 137,221 137,221 137,221 137,221 137,221 137,221 137,222 137,222 137,222 137,222 137,223 137,223 137,223 138,224 138,224 138,225 138,226 138,227 138,228 138,228 138,228 138,228 138,227 138,226 138,224 139,223 139,223 139,223 139,223 139,223 139,223 139,223 139,223 139,223 139,223 139,222 139,222 139,222 140,222 140,222 140,222 140,222 140,222 140,221 140,221 140,221 140,221 140,221 140,221 140,220 140,220 141,220 141,220 141,220 141,220 141,220 141,220 141,220 141,220 141,220 141,220 141,220 141,220 141,220 142,220 142,221 142,221 142,221 142,221 142,222 142,222 142,222 142,222 142,223 142,223 142,223 142,224 143,224 143,224 143,224 143,224 143,225 143,225 143,225 143,225 143,225 143,225 143,225 143,225 143,224 144,224 144,224 144,225 144,225 144,225 144,225 144,225 144,225 144,225 144,226 144,226 144,226 144,226 145,226 145,227 145,227 145,228 145,228 145,228 145,229 145,229 145,229 145,229 145,230 145,230 145,230 146,230 146,230 146,230 146,230 146,230 146,230 146,230 146,230 146,230 146,230 146,230 146,230 146,230 147,230 147,230 147,231 147,231 147,230 147,230 147,230 147,230 147,230 147,230 147,230 147,230 147,230 148,230 148,230 148,230 148,230 148,229 148,229 148,229 148,229 148,229 148,229 148,229 148,230 148,230 149,230 149,230 149,230 149,230 149,230 149,230 149,230 149,230 149,229 149,229 149,229 149,229 149,229 150,229 150,229 150,229 150,229 150,229 150,229 150,229 150,229 150,229 150,229 150,229 150,229 150,229 151,229 151,229 151,229 151,229 151,229 151,229 151,229 151,229 151,229 151,229 151,229 151,229 151,229 152,229 152,229 152,229 152,229 152,229 152,229 152,229 152,229 152,229 152,229 152,229 152,229 152,229 153,229 153,229 153,229 153,229 153,229 153,229 153,229 153,229 153,229 153,229 153,229 153,229 153,229 154,229 154,229 154,229 154,229 154,229 154,228 154,228 154,228 154,228 154,228 154,228 154,228 154,229 155,229 155,229 155,229 155,229 155,229 155,229 155,229 155,229 155,229 155,228 155,228 155,228 155,228 156,228 156,228 156,227 156,227 156,227 156,227 156,227 156,227 156,226 156,227 156,227 156,227 157,227 157,227 157,226 157,226 157,226 157,226 157,226 157,226 157,226 157,226 157,226 157,226 157,226 158,226 158,226 158,226 158,226 158,226 158,226 158,226 158,226 158,226 158,226 158,226 158,226 158,226 159,226 159,226 159,226 159,226 159,226 159,226 159,226 159,226 159,226 159,226 159,226 159,226 159,226 160,226 160,226 160,226 160,226 160,226 160,226 160,226 160,226 160,226 160,226 160,226 160,226 160,226 161,226 161,226 161,226 161,226 161,226 161,226 161,226 161,226 161,226 161,226 161,226 161,226 161,226 162,226 162,225 162,225 162,225 162,225 162,225 162,225 162,225 162,225 162,225 162,225 162,225 162,224 163,224 163,224 163,224 163,224 163,223 163,223 163,223 163,223 163,223 163,223 163,223 163,223 163,223 164,223 164,223 164,223 164,223 164,222 164,222 164,222 164,222 164,222 164,222 164,222 164,222 164,222 165,222 165,222 165,222 165,222 165,222 165,222 165,223 165,223 165,223 165,223 165,223 165,223 165,223 166,223 166,224 166,224 166,223 166,223 166,223 166,223 166,222 166,222 166,222 166,221 166,221 166,221 167,221 167,221 167,221 167,221 167,221 167,221 167,221 167,221 167,221 167,222 167,222 167,221 167,221 168,220 168,219 168,218 168,218 168,217 168,217 168,216 168,216 168,215 168,215 168,215 168,214 168,214 169,214 169,214 169,213 169,213 169,213 169,212 169,212 169,212 169,211 169,211 169,211 169,211 169,211 170,211 170,211 170,210 170,210 170,210 170,210 170,210 170,209 170,209 170,209 170,209 170,209 170,209 171,209 171,209 171,209 171,209 171,209 171,209 171,209 171,209 171,209 171,209 171,209 171,209 171,209 172,208 172,208 172,208 172,208 172,208 172,208 172,209 172,209 172,209 172,209 172,209 172,210 172,211 173,211 173,211 173,210 173,208 173,208 173,207 173,207 173,206 173,206 173,206 173,207 173,207 174,207 174,207 174,207 174,207 174,207 174,207 174,207 174,207 174,207 174,207 174,207 174,207 174,208 175,208 175,208 175,208 175,208 175,208 175,208 175,209 175,209 175,209 175,209 175,210 175,210 175,210 176,210 176,209 176,209 176,209 176,209 176,208 176,208 176,208 176,207 176,207 176,207 176,207 176,206 177,206 177,206 177,205 177,205 177,205 177,204 177,204 177,204 177,204 177,203 177,203 177,202 177,202 178,201 178,201 178,200 178,200 178,199 178,199 178,198 178,197 178,197 178,196 178,196 178,195 178,194 179,194 179,194 179,193 179,193 179,192 179,192 179,191 179,191 179,191 179,190 179,190 179,190 179,190 180,189 180,189 180,189 180,188 180,188 180,188 180,188 180,187 180,187 180,187 180,186 180,186 180,186 181,186 181,185 181,185 181,185 181,185 181,185 181,184 181,184 181,184 181,184 181,183 181,183 181,183 182,183 182,183 182,182 182,182 182,182 182,182 182,182 182,182 182,182 182,183 182,183 182,183 182,183 183,183 183,183 183,183 183,183 183,183 183,184 183,184 183,184 183,185 183,185 183,185 183,186 183,187 184,187 184,188 184,189 184,190 184,190 184,191 184,192 184,193 184,193 184,194 184,195 184,195 184,196 185,197 185,198 185,199 185,200 185,200 185,200 185,200 185,200 185,201 185,200 185,200 185,200 185,199 186,199 186,198 186,198 186,197 186,197 186,196 186,196 186,195 186,195 186,195 186,194 186,194 186,193 187,193 187,192 187,192 187,191 187,191 187,190 187,190 187,190 187,189 187,189 187,188 187,188 187,188 188,188 188,188 188,188 188,188 188,188 188,189 188,189 188,190 188,190 188,190 188,190 188,190 188,190 189,191 189,190 189,190 189,190 189,190 189,190 189,190 189,190 189,190 189,190 189,189 189,189 189,188 190,188 190,188 190,188 190,188 190,188 190,188 190,187 190,187 190,187 190,187 190,187 190,187 191,186 191,186 191,186 191,186 191,186 191,186 191,186 191,186 191,187 191,187 191,187 191,187 191,188 192,188 192,187 192,187 192,187 192,187 192,187 192,187 192,187 192,187 192,187 192,187 192,187 192,187 193,187 193,187 193,187 193,187 193,187 193,187 193,188 193,188 193,188 193,189 193,189 193,189 193,190 194,190 194,190 194,190 194,190 194,190 194,189 194,189 194,189 194,188 194,188 194,187 194,187 194,186 195,186 195,186 195,185 195,185 195,185 195,184 195,184 195,184 195,184 195,183 195,183 195,182 195,182 196,182 196,182 196,182 196,182 196,181 196,181 196,181 196,181 196,181 196,180 196,180 196,180 196,180 197,180 197,180 197,180 197,180 197,180 197,181 197,181 197,180 197,180 197,180 197,180 197,180 197,179 198,179 198,179 198,178 198,178 198,178 198,177 198,177 198,177 198,177 198,177 198,177 198,176 198,176 199,176 199,176 199,176 199,175 199,175 199,175 199,175 199,175 199,175 199,175 199,175 199,175 199,175 200,175 200,175 200,175 200,175 200,175 200,175 200,176 200,176 200,176 200,176 200,176 200,176 200,176 201,176 201,176 201,176 201,176 201,176 201,176 201,175 201,175 201,176 201,176 201,176 201,177 201,177 202,177 202,178 202,178 202,178 202,178 202,179 202,179 202,179 202,180 202,180 202,180 202,181 202,181 203,181 203,182 203,182 203,182 203,182 203,182 203,182 203,183 203,183 203,183 203,183 203,184 203,184 204,184 204,184 204,184 204,183 204,183 204,183 204,183 204,183 204,183 204,183 204,183 204,184 204,184 205,184 205,184 205,184 205,184 205,185 205,185 205,185 205,185 205,185 205,184 205,184 205,184 205,184 206,184 206,184 206,184 206,184 206,184 206,184 206,184 206,184 206,184 206,184 206,184 206,184 206,184 207,184 207,184 207,184 207,184 207,184 207,184 207,184 207,184 207,184 207,184 207,185 207,185 208,186 208,186 208,186 208,186 208,186 208,187 208,187 208,187 208,187 208,188 208,188 208,188 208,189 209,189 209,189 209,190 209,190 209,190 209,191 209,191 209,191 209,191 209,192 209,192 209,192 209,192 210,192 210,192 210,193 210,193 210,193 210,193 210,193 210,193 210,194 210,194 210,194 210,194 210,194 211,194 211,194 211,194 211,195 211,195 211,195 211,196 211,196 211,196 211,196 211,197 211,197 211,197 212,197 212,197 212,197 212,198 212,198 212,198 212,198 212,198 212,198 212,198 212,198 212,198 212,199 213,199 213,199 213,199 213,199 213,199 213,199 213,199 213,199 213,199 213,199 213,199 213,199 213,199 214,199 214,199 214,199 214,199 214,199 214,199 214,199 214,199 214,199 214,199 214,198 214,198 214,198 215,198 215,198 215,198 215,198 215,198 215,198 215,197 215,197 215,197 215,197 215,197 215,196 215,196 216,196 216,196 216,196 216,196 216,195 216,195 216,195 216,195 216,195 216,194 216,194 216,194 216,194 217,194 217,194 217,194 217,193 217,193 217,193 217,193 217,193 217,193 217,193 217,193 217,193 217,193 218,193 218,193 218,193 218,193 218,193 218,193 218,193 218,193 218,193 218,193 218,193 218,193 218,193 219,193 219,193 219,193 219,193 219,193 219,193 219,193 219,192 219,192 219,192 219,192 219,192 219,192 220,192 220,192 220,192 220,192 220,192 220,192 220,192 220,191 220,191 220,191 220,191 220,191 220,191 221,191 221,191 221,191 221,191 221,191 221,191 221,191 221,190 221,190 221,190 221,190 221,190 221,190 222,190 222,190 222,190 222,190 222,190 222,190 222,190 222,190 222,190 222,189 222,189 222,189 222,189 223,188 223,188 223,188 223,188 223,188 223,188 223,188 223,188 223,188 223,187 223,187 223,187 223,187 224,187 224,187 224,187 224,186 224,186 224,186 224,186 224,186 224,186 224,185 224,185 224,185 225,185 225,185 225,185 225,184 225,184 225,184 225,184 225,183 225,183 225,183 225,183 225,183 225,183 226,182 226,182 226,182 226,182 226,181 226,181 226,181 226,181 226,180 226,180 226,180 226,179 226,179 227,179 227,178 227,178 227,178 227,177 227,177 227,177 227,177 227,176 227,176 227,176 227,176 227,175 228,175 228,175 228,175 228,174 228,174 228,174 228,174 228,174 228,174 228,174 228,174 228,174 228,173 229,174 229,174 229,174 229,174 229,174 229,174 229,175 229,175 229,175 229,176 229,176 229,176 229,177 230,177 230,177 230,178 230,178 230,178 230,178 230,178 230,178 230,178 230,178 230,179 230,179 230,179 231,178 231,178 231,177 231,177 231,176 231,176 231,175 231,175 231,175 231,175 231,174 231,174 231,174 232,174 232,173 232,172 232,172 232,171 232,171 232,170 232,170 232,170 232,169 232,169 232,169 232,169 233,169 233,169 233,168 233,168 233,168 233,168 233,169 233,169 233,169 233,169 233,168 233,168 233,168 234,168 234,168 234,168 234,168 234,169 234,169 234,170 234,170 234,170 234,170 234,170 234,170 234,171 235,171 235,171 235,171 235,171 235,172 235,172 235,172 235,172 235,172 235,172 235,173 235,173 235,173 236,173 236,173 236,173 236,173 236,173 236,173 236,173 236,173 236,173 236,173 236,173 236,173 236,173 237,173 237,173 237,173 237,173 237,172 237,172 237,172 237,172 237,171 237,171 237,171 237,170 237,170 238,170 238,169 238,169 238,169 238,168 238,168 238,167 238,167 238,166 238,166 238,165 238,165 238,164 239,164 239,164 239,164 239,164 239,164 239,164 239,164 239,164 239,164 239,164 239,164 239,164 239,164 240,164 240,164 240,164 240,164 240,164 240,164 240,163 240,163 240,163 240,163 240,162 240,162 240,162 241,162 241,162 241,161 241,161 241,161 241,161 241,160 241,160 241,159 241,158 241,158 241,158 242,158 242,158 242,158 242,158 242,158 242,158 242,157 242,157 242,157 242,157 242,156 242,156 242,155 243,155 243,155 243,154 243,154 243,153 243,153 243,152 243,152 243,151 243,151 243,151 243,151 243,151 244,151 244,151 244,151 244,151 244,151 244,152 244,153 244,153 244,154 244,155 244,155 244,156 244,156 245,157 245,158 245,158 245,159 245,159 245,160 245,161 245,161 245,161 245,162 245,161 245,162 245,162 246,162 246,163 246,163 246,163 246,163 246,163 246,163 246,163 246,163 246,164 246,164 246,164 246,164 247,164 247,164 247,164 247,164 247,164 247,164 247,164 247,164 247,165 247,165 247,165 247,165 247,165 248,165 248,165 248,165 248,164 248,164 248,163 248,163 248,163 248,162 248,162 248,162 248,162 248,162 249,162 249,162 249,163 249,163 249,164 249,164 249,165 249,165 249,166 249,167 249,167 249,168 249,169 250,169 250,170 250,171 250,172 250,173 250,173 250,173 250,173 250,173 250,173 250,173 250,173 250,173 251,173 251,173 251,173 251,173 251,173 251,173 251,173 251,174 251,174 251,174 251,174 251,175 251,175 252,175 252,176 252,176 252,177 252,178 252,178 252,179 252,180 252,180 252,181 252,182 252,182 252,182 253,182 253,181 253,181 253,181 253,180 253,180 253,180 253,179 253,179 253,179 253,179 253,179 253,179 254,179 254,180 254,180 254,180 254,180 254,181 254,181 254,182 254,183 254,183 254,184 254,185 254,186 255,186 255,187 255,187 255,188 255,188 255,189 255,190 255,190 255,191 255,191 255,192 255,192 255,194 256,195 256,196 256,198 256,200 256,202 256,203 256,205 256,207 256,208 256,210 256,212 256,212 256,213 257,214 257,215 257,215 257,215 257,216 257,216 257,215 257,214 257,213 257,212 257,211 257,210 257,209 258,209 258,209 258,208 258,208 258,207 258,207 258,207 258,207 258,207 258,206 258,205 258,205 259,204 259,203 259,201 259,200 259,199 259,198 259,197 259,196 259,195 259,194 259,193 259,192 259,192 260,191 260,190 260,189 260,188 260,187 260,187 260,187 260,186 260,185 260,185 260,184 260,183 260,183 261,182 261,181 261,180 261,180 261,179 261,178 261,177 261,176 261,175 261,174 261,174 261,174 261,174 262,174 262,174 262,174 262,174 262,174 262,174 262,174 262,174 262,174 262,174 262,174 262,174 262,174 263,174 263,174 263,174 263,173 263,173 263,173 263,173 263,173 263,173 263,173 263,173 263,172 263,172 264,172 264,172 264,172 264,172 264,173 264,174 264,175 264,175 264,177 264,178 264,179 264,180 264,181 265,183 265,184 265,185 265,187 265,188 265,190 265,191 265,192 265,193 265,194 265,195 265,195 265,196 266,197 266,198 266,199 266,201 266,202 266,202 266,203 266,204 266,204 266,206 266,208 266,210 266,212 267,213 267,212 267,212 267,211 267,211 267,212 267,212 267,212 267,212 267,214 267,215 267,215 267,215 268,215 268,215 268,215 268,215 268,215 268,215 268,215 268,214 268,213 268,212 268,211 268,211 268,211 269,211 269,210 269,210 269,210 269,210 269,211 269,211 269,211 269,211 269,212 269,212 269,212 269,212 270,212 270,213 270,213 270,213 270,213 270,213 270,213 270,213 270,213 270,213 270,215 270,216 270,218 271,219 271,221 271,222 271,223 271,224 271,225 271,226 271,227 271,228 271,229 271,230 271,231 271,232 272,233 272,233 272,234 272,234 272,234 272,233 272,233 272,233 272,232 272,232 272,231 272,230 272,230 273,229 273,228 273,228 273,227 273,226 273,225 273,224 273,224 273,223 273,222 273,221 273,220 273,219 274,219 274,218 274,217 274,216 274,215 274,215 274,214 274,213 274,212 274,212 274,211 274,210 274,209 275,208 275,208 275,207 275,207 275,207 275,207 275,207 275,207 275,207 275,207 275,207 275,208 276,208 276,208 276,208 276,208 276,208 276,208 276,207 276,207 276,207 276,208 276,209 276,209 276,210 277,211 277,212 277,213 277,214 277,215 277,216 277,216 277,217 277,218 277,219 277,219 277,220 277,221 278,221 278,222 278,222 278,223 278,224 278,224 278,225 278,226 278,226 278,227 278,227 278,228 278,228 279,229 279,229 279,230 279,230 279,231 279,231 279,232 279,232 279,232 279,233 279,233 279,234 279,234 280,234 280,235 280,235 280,236 280,236 280,237 280,237 280,237 280,238 280,238 280,239 280,239 280,239 281,240 281,240 281,240 281,241 281,241 281,242 281,242 281,242 281,243 281,243 281,243 281,243 281,243 282,243 282,243 282,243 282,243 282,243 282,243 282,242 282,242 282,242 282,242 282,241 282,241 282,241 283,241 283,241 283,240 283,240 283,240 283,240 283,240 283,240 283,239 283,239 283,239 283,239 283,239 284,239 284,239 284,238 284,238 284,238 284,238 284,238 284,238 284,238 284,237 284,237 284,237 284,237 285,237 285,236 285,236 285,236 285,235 285,235 285,234 285,233 285,233 285,232 285,231 285,231 285,230 286,229 286,228 286,227 286,227 286,226 286,225 286,225 286,225 286,225 286,225 286,225 286,225 286,225 287,226 287,226 287,226 287,226 287,226 287,226 287,226 287,226 287,227 287,226 287,226 287,226 287,226 288,226 288,226 288,225 288,225 288,225 288,226 288,227 288,229 288,230 288,231 288,232 288,233 288,234 289,236 289,236 289,237 289,238 289,240 289,241 289,242 289,243 289,244 289,245 289,246 289,247 289,248 290,249 290,250 290,251 290,252 290,253 290,254 290,255 290,256 290,256 290,257 290,258 290,259 290,260 291,261 291,261 291,261 291,260 291,260 291,260 291,260 291,259 291,259 291,259 291,258 291,257 291,257 292,256 292,255 292,255 292,254 292,253 292,252 292,251 292,250 292,250 292,250 292,250 292,250 292,249 293,249 293,248 293,248 293,247 293,246 293,245 293,245 293,244 293,243 293,242 293,241 293,240 294,239 294,238 294,237 294,236 294,234 294,233 294,232 294,231 294,230 294,230 294,230 294,229 294,229 295,228 295,228 295,227 295,227 295,226 295,226 295,226 295,225 295,225 295,225 295,224 295,224 295,223 296,223 296,223 296,222 296,222 296,221 296,221 296,220 296,219 296,219 296,218 296,218 296,217 296,217 297,216 297,215 297,214 297,213 297,212 297,212 297,211 297,210 297,209 297,208 297,208 297,207 297,207 298,206 298,206 298,204 298,203 298,204 298,204 298,204 298,204 298,204 298,204 298,204 298,203 298,203 299,203 299,202 299,202 299,202 299,201 299,201 299,200 299,200 299,199 299,198 299,198 299,197 299,197 300,196 300,196 300,195 300,195 300,194 300,193 300,193 300,192 300,192 300,191 300,191 300,191 300,190 301,190 301,189 301,189 301,189 301,188 301,188 301,188 301,188 301,187 301,187 301,187 301,186 301,186 302,186 302,186 302,185 302,185 302,185 302,184 302,184 302,184 302,184 302,184 302,184 302,184 302,184 303,184 303,184 303,184 303,184 303,184 303,184 303,184 303,184 303,185 303,185 303,185 303,185 303,185 304,185 304,186 304,186 304,186 304,186 304,185 304,185 304,185 304,185 304,185 304,185 304,185 304,185 305,185 305,185 305,185 305,185 305,185 305,185 305,186 305,186 305,186 305,187 305,188 305,188 305,189 306,190 306,191 306,192 306,193 306,193 306,194 306,195 306,196 306,197 306,197 306,198 306,198 306,199 307,199 307,200 307,200 307,200 307,201 307,201 307,201 307,201 307,202 307,202 307,202 307,201 307,201 308,201 308,201 308,200 308,200 308,200 308,199 308,199 308,198 308,198 308,197 308,197 308,196 308,196 309,195 309,194 309,194 309,193 309,193 309,192 309,192 309,191 309,191 309,190 309,190 309,190 309,189 310,189 310,189 310,189 310,188 310,188 310,187 310,187 310,187 310,187 310,187 310,187 310,187 311,187 311,187 311,187 311,187 311,186 311,186 311,186 311,186 311,187 311,187 311,188 311,188 311,188 312,188 312,188 312,187 312,187 312,186 312,186 312,185 312,185 312,184 312,183 312,183 312,182 312,182 313,181 313,180 313,180 313,179 313,178 313,177 313,177 313,176 313,175 313,175 313,174 313,173 313,172 314,172 314,171 314,171 314,170 314,170 314,169 314,169 314,168 314,167 314,167 314,167 314,166 314,166 315,166 315,166 315,166 315,165 315,165 315,165 315,165 315,165 315,165 315,165 315,165 315,165 315,165 316,165 316,165 316,165 316,165 316,165 316,165 316,165 316,165 316,165 316,166 316,166 316,167 316,167 317,168 317,168 317,169 317,170 317,170 317,171 317,172 317,173 317,174 317,174 317,175 317,176 317,176 318,177 318,177 318,178 318,179 318,179 318,180 318,180 318,181 318,181 318,181 318,181 318,182 318,182 319,182 319,183 319,183 319,183 319,184 319,184 319,185 319,185 319,185 319,185 319,185 319,185 319,185 320,185 320,185 320,185 320,185 320,185 320,185 320,185 320,185 320,185 320,185 320,185 320,184 320,184 321,184 321,184 321,184 321,185 321,185 321,185 321,185 321,186 321,186 321,186 321,187 321,187 321,188 322,188 322,189 322,189 322,189 322,190 322,190 322,190 322,191 322,191 322,191 322,192 322,192 322,192 323,192 323,192 323,192 323,193 323,193 323,193 323,193 323,192 323,192 323,192 323,192 323,192 323,192 324,192 324,192 324,192 324,192 324,192 324,191 324,191 324,191 324,191 324,191 324,191 324,191 324,191 325,191 325,191 325,192 325,192 325,192 325,192 325,192 325,192 325,191 325,191 325,191 325,191 325,191 326,191 326,191 326,190 326,190 326,190 326,191 326,191 326,191 326,191 326,191 326,192 326,192 326,192 327,192 327,193 327,193 327,193 327,192 327,192 327,192 327,191 327,191 327,190 327,189 327,189 328,188 328,188 328,187 328,187 328,187 328,187 328,187 328,187 328,187 328,187 328,187 328,188 328,188 329,188 329,188 329,188 329,188 329,188 329,188 329,188 329,188 329,188 329,188 329,188 329,188 329,188 330,188 330,188 330,188 330,188 330,189 330,189 330,190 330,191 330,192 330,192 330,193 330,193 330,194 331,194 331,195 331,195 331,196 331,196 331,196 331,197 331,198 331,198 331,198 331,199 331,199 331,199 332,200 332,200 332,200 332,200 332,201 332,201 332,201 332,202 332,202 332,202 332,202 332,203 332,203 333,203 333,204 333,204 333,204 333,205 333,205 333,205 333,206 333,206 333,206 333,206 333,207 333,207 334,208 334,208 334,208 334,208 334,209 334,209 334,209 334,209 334,210 334,210 334,210 334,209 334,209 335,208 335,208 335,207 335,206 335,206 335,207 335,207 335,207 335,207 335,207 335,208 335,208 335,208 336,208 336,209 336,209 336,209 336,210 336,210 336,210 336,210 336,210 336,210 336,210 336,210 336,210 337,210 337,209 337,209 337,209 337,208 337,208 337,208 337,208 337,207 337,207 337,207 337,207 337,206 338,206 338,206 338,206 338,206 338,206 338,205 338,205 338,204 338,203 338,203 338,203 338,203 338,203 339,203 339,202 339,202 339,202 339,201 339,201 339,201 339,200 339,200 339,199 339,199 339,199 339,198 340,198 340,197 340,197 340,197 340,197 340,196 340,196 340,195 340,195 340,195 340,194 340,194 340,194 341,194 341,194 341,193 341,193 341,193 341,193 341,193 341,193 341,193 341,193 341,192 341,192 341,192 342,192 342,191 342,191 342,191 342,191 342,191 342,191 342,191 342,190 342,190 342,190 342,190 342,190 343,190 343,190 343,190 343,190 343,190 343,189 343,189 343,189 343,188 343,188 343,188 343,188 343,189 344,189 344,189 344,189 344,190 344,190 344,191 344,191 344,191 344,192 344,192 344,193 344,193 345,194 345,194 345,195 345,196 345,196 345,197 345,197 345,198 345,198 345,199 345,199 345,200 345,200 346,200 346,201 346,201 346,201 346,201 346,202 346,202 346,202 346,203 346,203 346,203 346,204 346,204 347,204 347,204 347,205 347,205 347,205 347,206 347,206 347,206 347,207 347,207 347,207 347,208 347,208 348,208 348,209 348,209 348,209 348,209 348,210 348,210 348,210 348,210 348,211 348,211 348,211 348,211 349,210 349,210 349,210 349,209 349,209 349,209 349,209 349,208 349,208 349,208 349,208 349,207 349,207 350,207 350,206 350,206 350,205 350,205 350,205 350,204 350,205 350,205 350,205 350,205 350,205 350,205 351,205 351,206 351,206 351,206 351,206 351,206 351,206 351,207 351,207 351,207 351,208 351,209 351,209 352,210 352,211 352,212 352,213 352,213 352,214 352,214 352,215 352,216 352,216 352,216 352,217 352,217 353,218 353,218 353,219 353,219 353,220 353,221 353,221 353,222 353,222 353,223 353,223 353,224 353,225 354,225 354,226 354,227 354,227 354,227 354,227 354,227 354,228 354,228 354,228 354,228 354,228 354,228 355,229 355,229 355,229 355,229 355,230 355,230 355,230 355,230 355,230 355,230 355,230 355,230 355,230 356,230 356,230 356,230 356,230 356,230 356,230 356,230 356,230 356,230 356,230 356,229 356,229 356,229 357,229 357,229 357,228 357,228 357,228 357,227 357,227 357,226 357,226 357,226 357,226 357,226 357,225 358,225 358,225 358,224 358,224 358,224 358,224 358,225 358,225 358,225 358,226 358,226 358,226 358,225 359,225 359,225 359,225 359,224 359,224 359,224 359,223 359,223 359,222 359,222 359,221 359,221 359,220 360,220 360,220 360,220 360,219 360,219 360,219 360,219 360,219 360,219 360,219 360,219 360,219 360,219 361,218 361,218 361,218 361,218 361,218 361,218 361,218 361,218 361,218 361,218 361,218 361,218 362,218 362,218 362,218 362,218 362,218 362,219 362,219 362,219 362,219 362,219 362,219 362,219 362,219 363,219 363,219 363,219 363,218 363,218 363,218 363,218 363,218 363,217 363,217 363,217 363,218 363,218 364,218 364,218 364,219 364,219 364,220 364,220 364,221 364,221 364,222 364,222 364,222 364,222 364,223 365,223 365,223 365,224 365,224 365,224 365,224 365,224 365,225 365,225 365,225 365,225 365,225 365,226 366,226 366,226 366,226 366,227 366,227 366,227 366,227 366,227 366,228 366,228 366,228 366,228 366,229 367,229 367,229 367,229 367,229 367,230 367,230 367,230 367,230 367,230 367,231 367,231 367,231 367,231 368,231 368,232 368,232 368,232 368,232 368,232 368,232 368,232 368,232 368,232 368,232 368,232 368,232 369,232 369,232 369,232 369,232 369,232 369,232 369,232 369,232 369,232 369,232 369,233 369,233 369,233 370,233 370,233 370,234 370,234 370,234 370,234 370,234 370,234 370,235 370,235 370,235 370,235 370,235 371,235 371,236 371,236 371,236 371,237 371,237 371,237 371,237 371,238 371,238 371,239 371,239 371,239 372,240 372,241 372,241 372,241 372,241 372,241 372,241 372,241 372,241 372,241 372,241 372,242 372,242 373,242 373,242 373,242 373,243 373,243 373,243 373,244 373,244 373,244 373,244 373,245 373,245 373,245 374,246 374,246 374,246 374,246 374,246 374,246 374,247 374,247 374,247 374,247 374,247 374,247 374,247 375,247 375,247 375,247 375,247 375,247 375,247 375,246 375,246 375,246 375,246 375,245 375,245 375,245 376,244 376,244 376,244 376,244 376,244 376,244 376,244 376,244 376,244 376,245 376,245 376,245 376,246 377,246 377,247 377,247 377,248 377,248 377,249 377,250 377,250 377,251 377,251 377,251 377,252 377,252 378,252 378,253 378,253 378,253 378,253 378,253 378,252 378,252 378,252 378,251 378,251 378,250 379,250 379,250 379,250 379,249 379,249 379,248 379,248 379,248 379,248 379,248 379,248 379,248 379,248 380,247 380,247 380,247 380,247 380,247 380,247 380,247 380,248 380,248 380,248 380,248 380,248 380,248 381,249 381,249 381,249 381,249 381,249 381,250 381,250 381,250 381,250 381,251 381,251 381,251 381,251 382,252 382,252 382,252 382,252 382,252 382,252 382,252 382,253 382,253 382,252 382,252 382,252 382,252 383,252 383,252 383,252 383,252 383,252 383,252 383,252 383,251 383,251 383,251 383,251 383,251 383,251 384,251 384,251 384,251 384,251 384,251 384,251 384,251 384,251 384,251 384,251 384,251 384,251 384,251 385,251 385,251 385,251 385,251 385,251 385,251 385,252 385,252 385,252 385,252 385,252 385,253 385,253 386,253 386,253 386,253 386,253 386,253 386,253 386,253 386,254 386,254 386,254 386,254 386,255 386,255 387,255 387,255 387,255 387,256 387,256 387,256 387,256 387,256 387,256 387,257 387,257 387,257 387,257 388,258 388,258 388,258 388,259 388,259 388,259 388,259 388,260 388,260 388,260 388,261 388,261 388,261 389,261 389,262 389,262 389,262 389,263 389,263 389,263 389,263 389,264 389,264 389,264 389,264 389,264 390,264 390,264 390,264 390,264 390,264 390,264 390,263 390,262 390,262 390,262 390,262 390,261 390,261 391,261 391,261 391,261 391,260 391,260 391,260 391,260 391,261 391,261 391,261 391,261 391,261 391,262 392,262 392,262 392,262 392,263 392,263 392,263 392,263 392,263 392,264 392,264 392,264 392,265 392,265 393,266 393,266 393,267 393,267 393,268 393,268 393,269 393,269 393,270 393,270 393,271 393,271 393,271 394,272 394,272 394,273 394,273 394,274 394,274 394,274 394,274 394,275 394,274 394,274 394,274 394,274 395,274 395,274 395,274 395,274 395,273 395,273 395,273 395,273 395,273 395,273 395,272 395,272 396,272 396,272 396,271 396,271 396,271 396,271 396,271 396,270 396,270 396,270 396,270 396,270 396,270 397,270 397,270 397,270 397,270 397,269 397,269 397,269 397,269 397,269 397,269 397,269 397,270 397,270 398,270 398,270 398,270 398,270 398,270 398,271 398,271 398,271 398,271 398,272 398,272 398,272 398,272 399,273 399,273 399,273 399,274 399,274 399,274 399,274 399,275 399,275 399,275 399,275 399,275 399,275 400,275 400,275 400,275 400,275 400,275 400,275 400,275 400,275 400,275 400,275 400,275 400,274 400,274 401,274 401,274 401,274 401,275 401,275 401,275 401,275 401,276 401,276 401,276 401,277 401,277 401,277 402,277 402,278 402,278 402,278 402,279 402,279 402,280 402,280 402,280 402,281 402,281 402,282 402,283 403,284 403,284 403,285 403,286 403,286 403,287 403,287 403,288 403,289 403,289 403,290 403,290 403,291 404,291 404,292 404,292 404,293 404,293 404,294 404,294 404,294 404,295 404,295 404,296 404,296 404,296 405,296 405,296 405,296 405,295 405,295 405,294 405,294 405,293 405,293 405,292 405,292 405,291 405,291 406,290 406,290 406,289 406,289 406,288 406,288 406,288 406,287 406,287 406,287 406,287 406,287 406,287 407,288 407,288 407,288 407,288 407,289 407,289 407,289 407,290 407,290 407,290 407,290 407,291 407,291 408,291 408,291 408,291 408,291 408,292 408,292 408,292 408,292 408,292 408,292 408,292 408,292 408,292 409,292 409,292 409,292 409,292 409,292 409,292 409,292 409,292 409,292 409,292 409,292 409,292 409,292 410,292 410,292 410,292 410,292 410,292 410,291 410,291 410,291 410,291 410,291 410,291 410,291 410,291 411,291 411,291 411,291 411,291 411,291 411,292 411,292 411,292 411,292 411,292 411,292 411,292 411,292 412,292 412,292 412,292 412,292 412,292 412,292 412,293 412,293 412,293 412,293 412,293 412,294 412,294 413,294 413,294 413,294 413,294 413,295 413,295 413,295 413,295 413,295 413,295 413,295 413,296 414,296 414,296 414,296 414,296 414,296 414,296 414,296 414,296 414,297 414,297 414,297 414,297 414,297 415,297 415,297 415,297 415,297 415,297 415,297 415,297 415,298 415,298 415,298 415,297 415,297 415,297 416,297 416,297 416,297 416,297 416,297 416,297 416,297 416,297 416,297 416,298 416,298 416,298 416,298 417,298 417,298 417,298 417,298 417,298 417,299 417,299 417,299 417,299 417,299 417,299 417,299 417,299 418,299 418,300 418,300 418,300 418,300 418,300 418,300 418,300 418,300 418,300 418,301 418,301 418,301 419,301 419,301 419,301 419,301 419,302 419,302 419,302 419,302 419,302 419,302 419,303 419,303 419,303 420,303 420,303 420,303 420,303 420,303 420,303 420,303 420,303 420,304 420,304 420,304 420,304 420,304 421,304 421,304 421,304 421,304 421,304 421,304 421,305 421,305 421,305 421,305 421,305 421,305 421,305 422,305 422,305 422,305 422,305 422,305 422,305 422,305 422,305 422,305 422,305 422,305 422,305 422,305 423,305 423,305 423,305 423,305 423,305 423,305 423,304 423,304 423,304 423,304 423,304 423,304 423,303 424,303 424,303 424,303 424,303 424,302 424,302 424,302 424,302 424,302 424,302 424,302 424,302 424,301 425,301 425,301 425,301 425,301 425,300 425,300 425,300 425,299 425,299 425,299 425,298 425,298 425,298 426,297 426,297 426,297 426,296 426,296 426,296 426,296 426,295 426,295 426,295 426,294 426,294 426,294 427,294 427,294 427,293 427,293 427,293 427,292 427,292 427,292 427,292 427,291 427,291 427,291 427,291 428,290 428,290 428,290 428,290 428,289 428,289 428,289 428,289 428,288 428,288 428,288 428,288 428,288 429,288 429,288 429,288 429,288 429,288 429,287 429,287 429,288 429,288 429,288 429,288 429,289 429,289 430,289 430,290 430,290 430,291 430,291 430,291 430,292 430,292 430,292 430,292 430,293 430,293 431,293 431,294 431,294 431,295 431,295 431,295 431,296 431,296 431,297 431,298 431,298 431,299 431,299 432,300 432,301 432,301 432,301 432,302 432,302 432,304 432,305 432,306 432,307 432,308 432,309 432,310 433,311 433,312 433,313 433,314 433,314 433,315 433,316 433,316 433,317 433,317 433,318 433,318 433,319 434,319 434,319 434,320 434,320 434,320 434,320 434,320 434,320 434,320 434,320 434,320 434,320 434,320 435,320 435,320 435,320 435,321 435,321 435,321 435,321 435,321 435,321 435,321 435,321 435,321 435,321 436,321 436,321 436,321 436,321 436,320 436,320 436,320 436,320 436,320 436,320 436,320 436,320 436,320 437,320 437,321 437,321 437,321 437,321 437,321 437,320 437,320 437,320 437,320 437,320 437,319 437,319 438,319 438,319 438,318 438,318 438,318 438,318 438,318 438,319 438,319 438,319 438,319 438,319 438,319 439,320 439,320 439,320 439,320 439,320 439,321 439,321 439,321 439,321 439,321 439,321 439,321 439,321 440,321 440,321 440,321 440,321 440,321 440,321 440,321 440,321 440,321 440,321 440,320 440,320 440,320 441,319 441,318 441,318 441,318 441,318 441,317 441,317 441,317 441,316 441,316 441,316 441,315 441,315 442,315 442,315 442,315 442,315 442,314 442,314 442,314 442,313 442,313 442,312 442,311 442,311 442,310 443,310 443,310 443,309 443,309 443,308 443,308 443,308 443,308 443,308 443,308 443,308 443,308 443,309 444,309 444,310 444,310 444,311 444,312 444,312 444,312 444,313 444,313 444,313 444,312 444,312 444,311 445,310 445,310 445,309 445,309 445,308 445,308 445,307 445,307 445,307 445,307 445,307 445,307 445,307 446,308 446,308 446,308 446,308 446,308 446,308 446,308 446,308 446,308 446,307 446,307 446,307 446,307 447,306 447,306 447,306 447,306 447,306 447,305 447,305 447,305 447,305 447,305 447,305 447,305 448,305 448,305 448,305 448,306 448,306 448,307 448,307 448,307 448,308 448,308 448,309 448,309 448,309 449,310 449,310 449,310 449,311 449,311 449,311 449,311 449,312 449,312 449,312 449,313 449,313 449,313 450,313 450,313 450,312 450,312 450,312 450,312 450,312 450,312 450,312 450,312 450,312 450,312 450,312 451,312 451,312 451,312 451,312 451,312 451,312 451,312 451,313 451,312 451,313 451,313 451,313 451,313 452,314 452,314 452,315 452,315 452,315 452,315 452,316 452,316 452,316 452,317 452,317 452,317 452,318 453,318 453,319 453,319 453,319 453,320 453,320 453,320 453,320 453,321 453,321 453,321 453,322 453,322 454,322 454,322 454,322 454,322 454,323 454,323 454,323 454,323 454,324 454,324 454,324 454,324 454,324 455,324 455,325 455,325 455,326 455,326 455,326 455,326 455,326 455,326 455,326 455,327 455,327 455,327 456,327 456,327 456,327 456,327 456,328 456,328 456,328 456,328 456,328 456,328 456,328 456,328 456,329 457,329 457,329 457,329 457,329 457,329 457,329 457,330 457,330 457,330 457,330 457,330 457,330 457,330 458,330 458,330 458,331 458,331 458,331 458,331 458,331 458,331 458,331 458,331 458,331 458,332 458,332 459,332 459,332 459,332 459,332 459,332 459,333 459,333 459,333 459,333 459,333 459,334 459,334 459,334 460,334 460,334 460,334 460,335 460,335 460,335 460,336 460,336 460,336 460,336 460,336 460,336 460,336 461,336 461,336 461,336 461,336 461,336 461,336 461,336 461,336 461,335 461,335 461,335 461,335 461,334 462,334 462,334 462,333 462,333 462,333 462,333 462,333 462,333 462,333 462,333 462,333 462,332 462,332 463,332 463,332 463,332 463,332 463,331 463,331 463,331 463,330 463,330 463,330 463,330 463,329 463,329 464,329 464,329 464,329 464,329 464,329 464,329 464,329 464,328 464,328 464,328 464,328 464,328 465,328 465,328 465,328 465,328 465,328 465,328 465,328 465,328 465,328 465,328 465,328 465,328 465,328 466,329 466,329 466,329 466,329 466,329 466,329 466,329 466,329 466,329 466,329 466,328 466,328 466,328 467,328 467,327 467,327 467,327 467,327 467,327 467,326 467,326 467,326 467,326 467,326 467,326 467,326 468,327 468,327 468,327 468,327 468,327 468,328 468,328 468,328 468,329 468,329 468,329 468,329 468,329 469,329 469,330 469,330 469,330 469,330 469,331 469,331 469,331 469,331 469,331 469,332 469,332 469,332 470,332 470,332 470,332 470,332 470,331 470,331 470,332 470,332 470,332 470,332 470,332 470,332 470,333 471,333 471,332 471,332 471,332 471,332 471,332 471,332 471,332 471,332 471,332 471,332 471,332 471,333 472,333 472,333 472,333 472,333 472,333 472,333 472,333 472,333 472,333 472,333 472,333 472,333 472,333 473,333 473,333 473,333 473,334 473,335 473,336 473,336 473,336 473,336 473,336 473,336 473,335 473,334 474,333 474,332 474,332 474,332 474,332 474,332 474,333 474,333 474,333 474,333 474,333 474,333 474,333 475,333 475,333 475,333 475,333 475,333 475,333 475,333 475,332 475,332 475,332 475,332 475,332 475,332 476,332 476,332 476,331 476,331 476,331 476,331 476,331 476,331 476,331 476,331 476,331 476,331 476,331 477,330 477,330 477,330 477,330 477,330 477,330 477,330 477,330 477,330 477,330 477,330 477,330 477,330 478,330 478,330 478,330 478,330 478,330 478,330 478,330 478,330 478,329 478,329 478,329 478,329 478,329 479,329 479,329 479,328 479,328 479,328 479,328 479,328 479,328 479,328 479,328 479,328 479,328 479,328 480,327 480,327 480,327 480,327 480,327 480,327 480,327 480,327 480,327 480,327 480,327 480,327 480,327 481,327 481,327 481,327 481,327 481,327 481,327 481,327 481,327 481,326 481,326 481,326 481,326 482,326 482,326 482,326 482,326 482,326 482,325 482,325 482,325 482,325 482,325 482,325 482,325 482,325 483,324 483,324 483,324 483,324 483,324 483,324 483,324 483,323 483,324 483,324 483,324 483,324 483,324 484,324 484,324 484,324 484,324 484,324 484,323 484,323 484,323 484,323 484,323 484,323 484,323 484,323 485,323 485,323 485,323 485,323 485,323 485,323 485,323 485,323 485,323 485,323 485,323 485,323 485,323 486,323 486,323 486,322 486,322 486,322 486,322 486,322 486,322 486,322 486,322 486,322 486,322 486,322 487,322 487,322 487,322 487,323 487,323 487,323 487,324 487,324 487,324 487,324 487,325 487,325 487,325 488,326 488,326 488,326 488,326 488,326 488,327 488,327 488,328 488,328 488,328 488,329 488,329 488,330 489,330 489,330 489,331 489,331 489,331 489,331 489,331 489,332 489,332 489,332 489,332 489,332 489,332 490,332 490,332 490,332 490,332 490,333 490,333 490,333 490,333 490,334 490,334 490,334 490,334 490,334 491,335 491,335 491,335 491,335 491,335 491,335 491,335 491,336 491,336 491,336 491,336 491,336 491,336 492,336 492,337 492,337 492,337 492,337 492,337 492,337 492,337 492,337 492,336 492,336 492,336 492,336 493,336 493,336 493,336 493,336 493,336 493,337 493,337 493,337 493,337 493,337 493,337 493,337 493,337 494,337 494,337 494,337 494,337 494,337 494,337 494,337 494,337 494,337 494,337 494,337 494,337 494,337 495,337 495,336 495,336 495,337 495,336 495,336 495,336 495,336 495,337 495,337 495,337 495,337 495,337 496,337 496,337 496,337 496,337 496,337 496,337 496,337 496,337 496,337 496,337 496,337 496,337 496,337 497,337 497,337 497,337 497,337 497,337 497,336 497,336 497,337 497,337 497,336 497,336 497,336 497,336 498,336 498,336 498,336 498,336 498,336 498,336 498,336 498,336 498,336 498,336 498,336 498,336 499,336 499,336 499,336 499,336 499,336 499,336 499,335 499,335 499,335 499,335 499,335 499,335 499,335 500,335 500,335 500,335 500,335 500,335 500,334 500,334 500,334 500,334 500,334 500,334 500,334 500,334 501,334 501,334 501,334 501,333 501,333 501,333 501,333 501,333 501,333 501,333 501,333 501,333 501,333 502,333 502,332 502,332 502,332 502,332 502,332 502,332 502,332 502,332 502,332 502,332 502,332 502,332 503,332 503,332 503,331 503,331 503,331 503,331 503,331 503,331 503,331 503,331 503,331 503,331 503,330 504,330 504,330 504,330 504,330 504,330 504,330 504,330 504,330 504,330 504,330 504,330 504,330 504,330 505,330 505,330 505,330 505,329 505,329 505,329 505,329 505,329 505,330 505,330 505,330 505,330 505,330 506,330 506,330 506,330 506,330 506,330 506,330 506,330 506,330 506,330 506,330 506,330 506,330 506,330 507,330 507,330 507,331 507,331 507,331 507,331 507,331 507,331 507,331 507,331 507,331 507,331 507,331 508,331 508,332 508,332 508,332 508,332 508,332 508,332 508,333 508,333 508,333 508,333 508,333 508,334 509,334 509,334 509,334 509,334 509,335 509,335 509,335 509,335 509,336 509,336 509,336 509,336 509,336 510,336 510,336 510,336 510,336 510,336 510,336 510,336 510,336 510,336 510,336 510,337 510,337 510,336 511,336 511,336 511,336 511,336 511,336 511,336 511,336 511,336 511,336 511,336 511,335 511,335 511,335 512,335 512,335 512,335 512,335 512,335 512,335 512,335 512,334 512,334 512,334 512,334 512,334 512,334 513,334 513,334 513,334 513,334 513,334 513,334 513,334 513,334 513,334 513,334 513,334 513,334 513,334 514,334 514,334 514,333 514,333 514,333 514,333 514,333 514,333 514,333 514,333 514,333 514,333 514,333 515,333 515,333 515,333 515,333 515,333 515,333 515,333 515,333 515,333 515,333 515,333 515,333 516,333 516,334 516,334 516,334 516,334 516,334 516,334 516,334 516,335 516,335 516,335 516,335 516,335 517,335 517,335 517,335 517,335 517,336 517,336 517,336 517,336 517,336 517,336 517,336 517,336 517,336 518,336 518,337 518,337 518,337 518,337 518,337 518,337 518,337 518,337 518,337 518,337 518,337 518,337 519,337 519,337 519,337 519,337 519,337 519,337 519,337 519,337 519,337 519,337 519,337 519,337 519,337 520,337 520,337 520,337 520,337 520,337 520,337 520,337 520,337 520,337 520,337 520,337 520,337 520,337 521,337 521,337 521,337 521,336 521,336 521,336 521,336 521,336 521,336 521,336 521,336 521,336 521,335 522,335 522,335 522,335 522,335 522,335 522,335 522,335 522,335 522,335 522,335 522,335 522,335 522,335 523,335 523,335 523,335 523,335 523,335 523,335 523,335 523,335 523,335 523,335 523,335 523,335 523,334 524,334 524,334 524,334 524,334 524,334 524,334 524,334 524,334 524,334 524,334 524,334 524,334 524,333 525,333 525,333 525,333 525,333 525,333 525,333 525,333 525,333 525,333 525,333 525,333 525,333 525,333 526,333 526,333 526,333 526,333 526,332 526,332 526,332 526,332 526,332 526,332 526,332 526,332 526,332 527,332 527,332 527,331 527,331 527,331 527,331 527,331 527,331 527,331 527,331 527,331 527,331 527,330 528,330 528,330 528,330 528,330 528,330 528,330 528,329 528,329 528,329 528,329 528,329 528,329 528,329 529,329 529,328 529,328 529,328 529,328 529,328 529,328 529,328 529,327 529,327 529,327 529,327 529,327 530,327 530,327 530,326 530,326 530,326 530,326 530,326 530,326 530,326 530,325 530,325 530,325 530,325 531,325 531,325 531,325 531,324 531,324 531,324 531,324 531,324 531,324 531,324 531,324 531,324 531,323 532,323 532,323 532,323 532,323 532,323 532,323 532,322 532,322 532,322 532,322 532,322 532,322 532,322 533,322 533,322 533,321 533,321 533,321 533,321 533,321 533,321 533,320 533,320 533,320 533,320 534,320 534,320 534,320 534,320 534,320 534,320 534,319 534,319 534,319 534,319 534,319 534,319 534,319 535,319 535,319 535,319 535,319 535,319 535,319 535,319 535,319 535,319 535,319 535,319 535,319 535,318 536,318 536,318 536,318 536,318 536,318 536,318 536,318 536,318 536,318 536,318 536,318 536,318 536,318 537,318 537,318 537,318 537,318 537,318 537,318 537,318 537,317 537,317 537,317 537,317 537,317 537,317 538,317 538,317 538,317 538,317 538,317 538,317 538,317 538,317 538,317 538,317 538,317 538,317 538,317 539,317 539,317 539,317 539,317 539,317 539,317 539,317 539,317 539,317 539,316 539,316 539,316 539,316 540,316 540,316 540,316 540,316 540,316 540,316 540,316 540,315 540,315 540,315 540,315 540,315 540,315 541,315 541,315 541,315 541,315 541,315 541,315 541,315 541,315 541,315 541,315 541,315 541,315 541,315 542,315 542,315 542,315 542,315 542,315 542,315 542,315 542,315 542,315 542,315 542,315 542,315 542,315 543,315 543,315 543,315 543,315 543,315 543,315 543,315 543,315 543,315 543,315 543,315 543,315 543,315 544,315 544,315 544,315 544,315 544,315 544,315 544,314 544,314 544,314 544,314 544,314 544,314 544,314 545,314 545,314 545,314 545,314 545,314 545,314 545,314 545,314 545,314 545,314 545,314 545,314 545,314 546,314 546,314 546,314 546,314 546,315 546,315 546,315 546,315 546,315 546,315 546,315 546,315 546,315 547,315 547,315 547,315 547,315 547,315 547,315 547,315 547,315 547,316 547,316 547,316 547,316 547,316 548,316 548,316 548,316 548,317 548,317 548,317 548,317 548,317 548,317 548,317 548,318 548,318 548,318 549,318 549,318 549,318 549,318 549,318 549,318 549,318 549,318 549,318 549,318 549,319 549,319 549,319 550,319 550,319 550,319 550,319 550,319 550,319 550,319 550,320 550,320 550,320 550,320 550,320 551,320 551,321 551,321 551,321 551,321 551,321 551,321 551,322 551,322 551,322 551,322 551,322 551,322 552,322 552,322 552,323 552,323 552,323 552,323 552,323 552,323 552,323 552,323 552,324 552,324 552,324 553,324 553,324 553,324 553,324 553,325 553,325 553,325 553,325 553,325 553,325 553,326 553,326 553,326 554,326 554,326 554,326 554,326 554,326 554,326 554,327 554,327 554,327 554,327 554,327 554,327 554,327 555,327 555,327 555,328 555,328 555,328 555,328 555,328 555,328 555,328 555,328 555,328 555,329 555,329 556,329 556,329 556,329 556,329 556,329 556,329 556,329 556,329 556,330 556,330 556,330 556,330 556,330 557,330 557,330 557,330 557,331 557,331 557,331 557,331 557,331 557,331 557,331 557,332 557,332 557,332 558,332 558,332 558,332 558,332 558,332 558,332 558,333 558,333 558,333 558,333 558,333 558,333 558,333 559,333 559,334 559,334 559,334 559,334 559,334 559,334 559,334 559,334 559,334 559,334 559,335 559,335 560,335 560,335 560,335 560,335 560,335 560,335 560,335 560,335 560,336 560,336 560,336 560,336 560,336 561,336 561,336 561,336 561,336 561,336 561,337 561,337 561,337 561,337 561,337 561,337 561,337 561,337 562,337 562,337 562,337 562,337 562,337 562,337 562,337 562,337 562,337 562,337 562,337 562,337 562,337 563,338 563,338 563,338 563,338 563,338 563,338 563,338 563,339 563,339 563,339 563,339 563,340 563,340 564,340 564,340 564,340 564,341 564,341 564,341 564,341 564,341 564,341 564,341 564,340 564,340 564,340 565,340 565,339 565,339 565,339 565,339 565,339 565,339 565,338 565,338 565,338 565,338 565,338 565,338 566,338 566,338 566,338 566,338 566,338 566,338 566,338 566,338 566,338 566,338 566,338 566,338 566,338 567,338 567,338 567,338 567,338 567,338 567,338 567,338 567,338 567,338 567,338 567,338 567,338 568,338 568,338 568,338 568,338 568,338 568,338 568,338 568,338 568,338 568,338 568,338 568,339 568,339 569,339 569,339 569,339 569,339 569,339 569,340 569,340 569,340 569,340 569,340 569,340 569,340 569,340 570,340 570,340 570,340 570,340 570,340 570,340 570,340 570,340 570,340 570,340 570,340 570,340 570,340 571,340 571,340 571,340 571,340 571,340 571,340 571,340 571,340 571,340 571,340 571,340 571,340 571,340 572,340 572,340 572,340 572,341 572,341 572,341 572,341 572,341 572,341 572,341 572,341 572,341 572,341 573,341 573,341 573,341 573,341 573,342 573,342 573,342 573,342 573,342 573,342 573,342 573,342 573,342 574,342 574,343 574,343 574,343 574,343 574,343 574,343 574,343 574,343 574,343 574,343 574,343 574,343 575,344 575,344 575,344 575,344 575,344 575,344 575,344 575,344 575,344 575,344 575,344 575,344 575,344 576,344 576,344 576,344 576,344 576,344 576,344 576,344 576,344 576,344 576,344 576,344 576,344 576,344 577,344 577,344 577,344 577,344 577,344 577,344 577,344 577,344 577,344 577,344 577,344 577,344 577,344 578,344 578,344 578,344 578,344 578,344 578,344 578,344 578,343 578,343 578,343 578,343 578,343 578,343 579,343 579,343 579,343 579,343 579,343 579,343 579,343 579,343 579,343 579,343 579,343 579,343 579,343 580,344 580,344 580,344 580,343 580,344 580,344 580,344 580,343 580,343 580,344 580,344 580,344 580,344 581,344 581,344 581,344 581,344 581,344 581,344 581,344 581,344 581,344 581,344 581,344 581,344 581,345 582,345 582,345 582,345 582,345 582,345 582,345 582,345 582,345 582,345 582,345 582,345 582,345 582,345 583,345 583,345 583,345 583,345 583,345 583,345 583,345 583,345 583,345 583,345 583,345 583,345 583,346 584,346 584,346 584,346 584,346 584,346 584,346 584,346 584,346 584,346 584,346 584,346 584,346 585,346 585,346 585,346 585,346 585,347 585,347 585,347 585,347 585,347 585,347 585,347 585,347 585,347 586,347 586,347 586,347 586,347 586,348 586,348 586,348 586,348 586,348 586,348 586,348 586,348 586,348 587,348 587,348 587,348 587,348 587,348 587,348 587,348 587,349 587,349 587,349 587,349 587,349 587,349 588,349 588,349 588,349 588,349 588,349 588,349 588,349 588,349 588,349 588,349 588,350 588,350 588,350 589,350 589,350 589,350 589,350 589,350 589,350 589,350 589,350 589,350 589,350 589,350 589,350 589,351 590,351 590,351 590,351 590,351 590,351 590,351 590,351 590,351 590,351 590,351 590,351 590,351 590,351 591,351 591,351 591,352 591,352 591,352 591,352 591,352 591,352 591,352 591,352 591,352 591,352 591,352 592,352 592,352 592,352 592,352 592,352 592,352 592,352 592,353 592,353 592,353 592,353 592,353 592,353 593,353 593,353 593,354 593,354 593,354 593,354 593,354 593,354 593,354 593,354 593,354 593,354 593,354 594,354 594,354 594,355 594,355 594,355 594,355 594,355 594,355 594,355 594,355 594,355 594,355 594,355 595,355 595,355 595,355 595,355 595,355 595,355 595,355 595,355 595,355 595,355 595,355 595,355 595,355 596,356 596,356 596,356 596,356 596,356 596,356 596,356 596,356 596,356 596,356 596,356 596,356 596,356 597,356 597,356 597,356 597,356 597,356 597,356 597,356 597,356 597,356 597,356 597,356 597,356 597,356 598,357 598,357 598,357 598,357 598,357 598,357 598,357 598,357 598,357 598,357 598,357 598,357 598,357 599,358 599,358 599,358 599,358 599,358 599,358 599,358 599,358 599,358 599,358 599,358 599,358 599,358 600,358 600,359 600,359 600,359 600,359 600,359 600,359 600,359 600,359 600,359 600,359 600,359 600,359 601,359 601,359 601,359 601,360 601,360 601,360 601,360 601,360 601,360 601,360 601,360 601,360 602,360 602,360 602,360 602,360 602,360 602,360 602,360 602,360 602,360 602,360 602,360 602,360 602,360 603,360 603,360 603,360 603,360 603,360 603,360 603,360 603,360 603,360 603,360 603,360 603,360 603,360 604,360 604,360 604,360 604,360 604,360 604,360 604,360 604,360 604,360 604,360 604,360 604,360 604,360 605,360 605,360 605,360 605,360 605,360 605,360 605,360 605,360 605,360 605,360 605,360 605,360 605,360 606,360 606,360 606,360 606,360 606,360 606,360 606,360 606,360 606,360 606,360 606,361 606,361 606,361 607,361 607,362 607,362 607,363 607,363 607,363 607,363 607,363 607,363 607,363 607,363 607,363 607,363 608,364 608,364 608,364 608,364 608,364 608,364 608,364 608,364 608,363 608,363 608,363 608,363 608,363 609,363 609,363 609,363 609,363 609,363 609,362 609,362 609,362 609,362 609,362 609,362 609,362 609,362 610,361 610,361 610,361 610,361 610,361 610,360 610,360 610,360 610,360 610,360 610,360 610,360 610,360 611,360 611,360 611,360 611,360 611,360 611,360 611,360 611,360 611,360 611,360 611,360 611,360 611,360 612,360 612,360 612,360 612,360 612,360 612,360 612,360 612,360 612,360 612,360 612,360 612,360 612,360 613,360 613,360 613,360 613,360 613,360 613,361 613,361 613,361 613,361 613,361 613,361 613,361 613,361 614,361 614,361 614,361 614,361 614,361 614,361 614,361 614,361 614,361 614,361 614,361 614,361 614,361 615,361 615,361 615,361 615,361 615,361 615,361 615,361 615,362 615,362 615,362 615,362 615,362 615,362 616,362 616,362 616,362 616,362 616,362 616,362 616,362 616,362 616,362 616,362 616,362 616,362 616,362 617,362 617,362 617,362 617,362 617,362 617,362 617,362 617,362 617,362 617,362 617,362 617,362 617,362 618,362 618,362 618,362 618,362 618,362 618,362 618,362 618,362 618,362 618,362 618,362 618,362 619,362 619,362 619,362 619,362 619,362 619,362 619,362 619,362 619,362 619,362 619,362 619,362 619,362 620,362 620,362 620,361 620,361 620,361 620,361 620,361 620,361 620,361 620,361 620,361 620,361 620,361 621,361 621,361 621,361 621,361 621,361 621,361 621,361 621,361 621,361 621,361 621,361 621,361 621,361 622,361 622,361 622,361 622,361 622,361 622,361 622,361 622,361 622,361 622,361 622,361 622,361 622,361 623,361 623,361 623,361 623,361 623,361 623,361 623,361 623,361 623,361 623,361 623,361 623,361 623,360 624,360 624,361 624,361 624,361 624,361 624,361 624,361 624,361 624,361 624,361 624,361 624,361 624,361 625,361 625,361 625,361 625,361 625,361 625,361 625,362 625,362 625,362 625,362 625,362 625,362 625,362 626,362 626,362 626,362 626,362 626,362 626,362 626,362 626,362 626,362 626,362 626,362 626,362 626,363 627,363 627,362 627,362 627,362 627,362 627,362 627,362 627,362 627,362 627,362 627,362 627,362 627,362 628,362 628,362 628,362 628,361 628,361 628,361 628,361 628,361 628,361 628,361 628,361 628,361 628,361 629,361 629,361 629,361 629,361 629,361 629,361 629,361 629,361 629,361 629,361 629,361 629,361 629,361 630,361 630,361 630,361 630,361 630,361 630,361 630,361 630,361 630,361 630,361 630,361 630,361 630,361 631,361 631,361 631,361 631,361 631,361 631,361 631,361 631,361 631,361 631,361 631,361 631,361 631,361 632,361 632,361 632,361 632,361 632,361 632,361 632,361 632,361 632,361 632,362 632,362 632,362 632,362 633,362 633,361 633,361 633,361 633,361 633,361 633,361 633,361 633,361 633,361 633,361 633,361 633,361 634,361 634,361 634,361 634,361 634,361 634,361 634,361 634,361 634,360 634,360 634,360 634,360 634,360 635,360 635,360 635,360 635,359 635,359 635,359 635,359 635,359 635,359 635,359 635,359 635,358 636,358 636,358 636,358 636,358 636,358 636,358 636,358 636,358 636,358 636,357 636,357 636,357 636,357 637,357 637,357 637,357 637,357 637,357 637,357 637,357 637,357 637,357 637,357 637,357 637,357 637,357 638,357 638,357 638,356 638,356 638,356 638,356 638,356 638,356 638,356 638,356 638,356 638,356 638,356 639,356 639,356 639,356 639,356 639,356 639,356 639,356 639,356 639,356 639,356 639,355 639,355 639,355 640,355 640,355 640,355 640,355 640,355 640,355 640,355 640,355 640,355 640,355 640,355 640,354 640,354 641,354 641,354 641,354 641,354 641,354 641,354 641,354 641,354 641,354 641,354 641,354 641,354 641,354 642,355 642,355 642,354 642,354 642,354 642,354 642,354 642,355 642,355 642,355 642,355 642,355 642,355 643,355 643,355 643,356 643,355 643,355 643,355 643,355 643,355 643,355 643,355 643,355 643,355 643,355 644,355 644,355 644,355 644,355 644,355 644,355 644,355 644,355 644,355 644,355 644,356 644,356 644,356 645,356 645,356 645,356 645,356 645,356 645,356 645,356 645,356 645,356 645,357 645,357 645,357 645,357 646,357 646,357 646,357 646,357 646,357 646,357 646,357 646,357 646,358 646,358 646,358 646,358 646,358 647,358 647,358 647,358 647,358 647,358 647,358 647,358 647,358 647,358 647,358 647,358 647,358 647,358 648,358 648,358 648,358 648,358 648,358 648,358 648,358 648,358 648,358 648,358 648,358 648,358 648,358 649,358 649,358 649,358 649,358 649,358 649,358 649,358 649,358 649,358 649,358 649,358 649,358 649,358 650,359 650,359 650,359 650,359 650,359 650,359 650,359 650,359 650,359 650,359 650,359 650,359 650,359 651,359 651,359 651,359 651,359 651,359 651,359 651,359 651,359 651,359 651,359 651,359 651,359 651,359 652,359 652,360 652,360 652,360 652,360 652,360 652,360 652,360 652,360 652,360 652,360 652,360 652,359 653,359 653,359 653,359 653,359 653,359 653,360 653,360 653,360 653,360 653,360 653,360 653,360 654,360 654,360 654,360 654,360 654,360 654,360 654,360 654,360 654,360 654,360 654,360 654,360 654,360 655,360 655,360 655,360 655,360 655,360 655,360 655,360 655,360 655,360 655,360 655,360 655,360 655,360 656,360 656,360 656,360 656,360 656,360 656,360 656,360 656,360 656,360 656,360 656,360 656,360 656,360 657,360 657,360 657,360 657,360 657,360 657,360 657,360 657,360 657,360 657,360 657,360 657,360 657,360 658,360 658,361 658,361 658,361 658,361 658,361 658,361 658,361 658,361 658,361 658,361 658,361 658,361 659,361 659,361 659,361 659,361 659,361 659,361 659,361 659,361 659,361 659,361 659,361 659,362 659,362 660,362 660,362 660,362 660,362 660,362 660,362 660,362 660,362 660,362 660,362 660,362 660,362 660,362 661,362 661,362 661,362 661,362 661,362 661,362 661,362 661,362 661,362 661,362 661,362 661,362 661,362 662,362 662,362 662,362 662,362 662,362 662,362 662,362 662,362 662,362 662,362 662,362 662,362 662,362 663,362 663,362 663,362 663,362 663,362 663,362 663,362 663,362 663,362 663,362 663,362 663,362 663,362 664,362 664,362 664,362 664,362 664,362 664,362 664,362 664,362 664,363 664,363 664,363 664,363 664,363 665,363 665,363 665,363 665,363 665,363 665,363 665,363 665,363 665,363 665,363 665,363 665,362 665,362 666,362 666,362 666,362 666,362 666,362 666,362 666,362 666,362 666,362 666,362 666,362 666,362 666,362 667,362 667,362 667,362 667,362 667,362 667,362 667,363 667,363 667,363 667,363 667,363 667,363 667,363 668,363 668,363 668,363 668,363 668,363 668,363 668,363 668,363 668,363 668,364 668,364 668,364 668,364 669,364 669,364 669,364 669,364 669,364 669,364 669,364 669,364 669,364 669,365 669,365 669,365 669,365 670,365 670,365 670,365 670,365 670,365 670,365 670,365 670,365 670,365 670,365 670,365 670,365 671,365 671,365 671,365 671,366 671,366 671,366 671,366 671,366 671,366 671,366 671,366 671,366 671,366 672,366 672,366 672,366 672,366 672,366 672,366 672,366 672,366 672,366 672,366 672,366 672,366 672,366 673,366 673,366 673,366 673,366 673,366 673,366 673,366 673,366 673,366 673,366 673,366 673,366 673,366 674,366 674,366 674,366 674,366 674,366 674,366 674,366 674,366 674,366 674,366 674,366 674,366 674,366 675,366 675,366 675,366 675,366 675,366 675,366 675,366 675,366 675,366 675,366 675,366 675,366 675,366 676,366 676,366 676,365 676,365 676,365 676,365 676,365 676,365 676,365 676,365 676,365 676,365 676,365 677,365 677,365 677,365 677,365 677,365 677,365 677,365 677,365 677,365 677,365 677,365 677,365 677,365 678,365 678,365 678,365 678,365 678,364 678,364 678,364 678,364 678,364 678,364 678,364 678,364 678,364 679,364 679,364 679,364 679,364 679,364 679,364 679,364 679,364 679,364 679,364 679,364 679,364 679,364 680,364 680,364 680,364 680,364 680,364 680,364 680,364 680,364 680,364 680,364 680,364 680,364 680,364 681,364 681,364 681,364 681,364 681,364 681,364 681,364 681,364 681,364 681,364 681,364 681,364 681,364 682,364 682,364 682,364 682,364 682,364 682,364 682,364 682,364 682,364 682,364 682,364 682,364 682,364 683,364 683,364 683,364 683,364 683,364 683,364 683,364 683,364 683,364 683,364 683,364 683,364 683,364 684,364 684,364 684,364 684,364 684,364 684,364 684,364 684,364 684,364 684,364 684,364 684,364 684,364 685,364 685,364 685,364 685,364 685,364 685,364 685,364 685,365 685,365 685,365 685,365 685,365 685,365 686,365 686,365 686,365 686,365 686,365 686,365 686,365 686,365 686,365 686,365 686,365 686,365 686,365 687,365 687,365 687,365 687,365 687,365 687,365 687,365 687,365 687,365 687,365 687,365 687,365 688,365 688,365 688,365 688,365 688,365 688,365 688,365 688,365 688,365 688,365 688,365 688,365 688,365 689,365 689,365 689,365 689,365 689,365 689,365 689,365 689,364 689,364 689,364 689,364 689,364 689,364 690,364 690,364 690,364 690,364 690,364 690,364 690,364 690,364 690,364 690,364 690,364 690,364 690,364 691,364 691,364 691,364 691,364 691,363 691,363 691,363 691,363 691,363 691,363 691,363 691,363 691,363 692,363 692,363 692,363 692,363 692,362 692,362 692,362 692,362 692,362 692,362 692,362 692,362 692,362 693,362 693,362 693,361 693,361 693,361 693,361 693,361 693,361 693,361 693,361 693,361 693,361 693,361 694,361 694,361 694,361 694,360 694,360 694,360 694,360 694,360 694,360 694,360 694,360 694,360 694,360 695,360 695,360 695,360 695,360 695,360 695,360 695,360 695,359 695,359 695,359 695,359 695,359 695,359 696,359 696,359 696,359 696,359 696,359 696,359 696,359 696,359 696,359 696,359 696,359 696,359 696,359 697,359 697,359 697,359 697,359 697,359 697,359 697,360 697,360 697,360 697,360 697,360 697,360 697,360 698,360 698,360 698,360 698,360 698,361 698,361 698,361 698,361 698,361 698,361 698,361 698,362 698,362 699,362 699,362 699,362 699,362 699,362 699,362 699,362 699,363 699,363 699,363 699,363 699,363 699,363 700,363 700,363 700,363 700,363 700,363 700,363 700,363 700,363 700,363 700,363 700,364 700,364 700,364 701,364 701,364 701,364 701,364 701,364 701,364 701,364 701,364 701,364 701,364 701,364 701,364 701,364 702,364 702,364 702,364 702,364 702,364 702,364 702,364 702,364 702,364 702,364 702,364 702,364 702,364 703,364 703,364 703,364 703,364 703,364 703,364 703,364 703,364 703,364 703,364 703,364 703,364 703,364 704,364 704,363 704,363 704,363 704,363 704,363 704,363 704,363 704,363 704,363 704,363 704,362 705,362 705,362 705,362 705,362 705,362 705,362 705,362 705,362 705,362 705,362 705,362 705,362 705,362 706,362 706,362 706,362 706,361 706,361 706,361 706,361 706,361 706,361 706,361 706,360 706,360 706,360 707,360 707,360 707,360 707,360 707,360 707,360 707,360 707,359 707,359 707,359 707,359 707,359 707,359 708,359 708,359 708,359 708,358 708,358 708,358 708,358 708,358 708,358 708,358 708,357 708,357 708,357 709,357 709,357 709,357 709,357 709,357 709,357 709,356 709,356 709,356 709,356 709,356 709,356 709,356 710,356 710,356 710,355 710,355 710,355 710,355 710,355 710,355 710,355 710,355 710,355 710,355 710,355 711,355 711,355 711,355 711,355 711,355 711,354 711,354 711,354 711,354 711,354 711,354 711,354 711,354 712,354 712,354 712,354 712,354 712,354 712,353 712,353 712,354 712,354 712,354 712,354 712,353 712,353 713,353 713,353 713,353 713,353 713,353 713,353 713,353 713,352 713,352 713,352 713,352 713,352 713,352 714,352 714,352 714,352 714,352 714,352 714,352 714,352 714,352 714,352 714,352 714,352 714,352 714,352 715,352 715,352 715,351 715,351 715,351 715,351 715,351 715,351 715,351 715,351 715,351 715,351 715,351 716,351 716,351 716,351 716,351 716,351 716,351 716,351 716,351 716,351 716,351 716,351 716,351 716,351 717,351 717,351 717,351 717,351 717,351 717,351 717,351 717,351 717,351 717,351 717,351 717,351 717,352 718,352 718,352 718,352 718,352 718,352 718,352 718,353 718,353 718,353 718,353 718,353 718,353 718,353 719,353 719,353 719,353 719,353 719,353 719,353 719,353 719,353 719,353 719,353 719,354 719,354 719,354 720,354 720,354 720,354 720,354 720,354 720,354 720,353 720,353 720,353 720,353 720,353 720,353 720,353 721,353 721,353 721,354 721,353 721,353 721,353 721,353 721,353 721,353 721,353 721,353 721,354 722,354 722,354 722,354 722,354 722,354 722,354 722,354 722,354 722,354 722,354 722,354 722,354 722,354 723,354 723,354 723,354 723,354 723,354 723,354 723,354 723,354 723,355 723,355 723,355 723,355 723,355 724,355 724,355 724,355 724,355 724,355 724,355 724,355 724,355 724,355 724,355 724,355 724,355 724,355 725,355 725,356 725,356 725,356 725,356 725,356 725,356 725,356 725,356 725,356 725,356 725,356 725,355 726,355 726,355 726,355 726,355 726,355 726,355 726,355 726,355 726,355 726,355 726,355 726,355 726,355 727,355 727,355 727,355 727,355 727,355 727,355 727,355 727,355 727,355 727,355 727,355 727,355 727,354 728,354 728,354 728,354 728,354 728,354 728,354 728,354 728,354 728,354 728,354 728,354 728,354 728,354 729,354 729,354 729,354 729,354 729,354 729,354 729,354 729,354 729,354 729,354 729,354 729,354 729,354 730,354 730,354 730,354 730,354 730,354 730,354 730,354 730,354 730,354 730,354 730,354 730,354 730,354 731,354 731,354 731,354 731,354 731,354 731,353 731,353 731,353 731,353 731,353 731,353 731,353 731,353 732,353 732,353 732,353 732,353 732,353 732,353 732,353 732,353 732,353 732,353 732,353 732,353 732,353 733,353 733,353 733,353 733,353 733,353 733,353 733,353 733,353 733,353 733,353 733,353 733,353 733,353 734,353 734,353 734,352 734,352 734,352 734,352 734,352 734,352 734,352 734,352 734,352 734,352 734,352 735,352 735,352 735,352 735,352 735,352 735,352 735,352 735,352 735,352 735,352 735,352 735,352 735,352 736,352 736,352 736,352 736,352 736,352 736,352 736,352 736,352 736,352 736,352 736,352 " vector-effect="non-scaling-stroke"></polyline>
</g></svg>