<?xml version="1.0" encoding="UTF-8" standalone="no"?><svg width="282.222mm" height="141.111mm" xmlns="http://www.w3.org/2000/svg" xmlns:xlink="http://www.w3.org/1999/xlink"  version="1.2" baseProfile="tiny"><g fill="none" stroke="#ff0000" stroke-linecap="round" stroke-linejoin="round" stroke-opacity="1" stroke-width="1.5" transform="matrix(1,0,0,1,0,0)">
<polyline fill="none" points="27,295 27,295 27,295 27,295 27,294 27,294 27,293 27,293 28,293 28,292 28,291 28,291 28,290 28,290 28,289 28,289 28,288 28,287 28,287 28,286 28,286 29,285 29,284 29,284 29,283 29,282 29,282 29,281 29,281 29,280 29,280 29,279 29,279 29,278 30,278 30,277 30,277 30,276 30,276 30,275 30,275 30,275 30,274 30,274 30,274 30,273 30,273 31,273 31,273 31,273 31,273 31,273 31,273 31,273 31,273 31,273 31,274 31,274 31,274 31,274 32,274 32,274 32,274 32,275 32,275 32,275 32,275 32,275 32,276 32,276 32,276 32,276 32,276 33,276 33,276 33,275 33,275 33,275 33,274 33,274 33,273 33,272 33,272 33,272 33,271 33,271 34,271 34,271 34,270 34,270 34,270 34,270 34,270 34,270 34,269 34,269 34,269 34,269 34,269 35,269 35,269 35,269 35,270 35,270 35,270 35,270 35,270 35,271 35,271 35,271 35,272 36,272 36,273 36,273 36,274 36,274 36,275 36,275 36,276 36,276 36,277 36,277 36,278 36,278 37,278 37,278 37,278 37,278 37,278 37,279 37,279 37,279 37,280 37,280 37,280 37,281 37,281 38,282 38,282 38,282 38,282 38,283 38,282 38,281 38,280 38,279 38,279 38,278 38,278 38,277 39,276 39,275 39,274 39,272 39,271 39,271 39,271 39,271 39,270 39,270 39,270 39,269 39,269 40,268 40,268 40,267 40,267 40,266 40,266 40,266 40,266 40,266 40,266 40,265 40,265 40,265 41,265 41,264 41,264 41,264 41,264 41,264 41,263 41,263 41,263 41,262 41,262 41,262 41,262 42,261 42,261 42,261 42,260 42,260 42,260 42,260 42,259 42,259 42,259 42,259 42,258 42,258 43,258 43,257 43,257 43,257 43,256 43,256 43,256 43,255 43,255 43,255 43,255 43,255 43,255 44,255 44,255 44,255 44,255 44,255 44,255 44,255 44,256 44,255 44,255 44,255 44,255 44,255 45,255 45,255 45,255 45,255 45,255 45,254 45,254 45,254 45,254 45,253 45,253 45,253 45,253 46,252 46,252 46,252 46,252 46,251 46,251 46,251 46,251 46,251 46,252 46,252 46,252 46,252 47,252 47,252 47,252 47,252 47,252 47,253 47,254 47,254 47,254 47,255 47,255 47,255 47,255 48,255 48,255 48,255 48,255 48,254 48,254 48,254 48,254 48,253 48,253 48,252 48,252 48,251 49,250 49,250 49,249 49,249 49,249 49,248 49,247 49,247 49,247 49,247 49,247 49,246 49,246 50,245 50,244 50,244 50,243 50,242 50,241 50,240 50,239 50,238 50,238 50,237 50,236 50,236 51,235 51,235 51,234 51,234 51,234 51,233 51,233 51,232 51,232 51,232 51,231 51,231 51,231 52,231 52,230 52,230 52,229 52,229 52,229 52,228 52,228 52,227 52,227 52,227 52,226 53,226 53,225 53,225 53,225 53,224 53,224 53,223 53,223 53,223 53,223 53,222 53,222 53,222 54,221 54,221 54,221 54,221 54,220 54,220 54,220 54,220 54,220 54,220 54,219 54,219 54,219 55,219 55,219 55,219 55,218 55,218 55,218 55,218 55,218 55,218 55,218 55,217 55,217 55,217 56,217 56,217 56,216 56,216 56,216 56,216 56,216 56,215 56,215 56,215 56,214 56,214 56,214 57,213 57,213 57,213 57,212 57,212 57,212 57,212 57,212 57,213 57,213 57,213 57,213 57,213 58,213 58,213 58,213 58,214 58,214 58,214 58,214 58,214 58,214 58,214 58,214 58,214 58,215 59,215 59,215 59,215 59,215 59,216 59,216 59,217 59,217 59,217 59,218 59,219 59,219 59,220 60,220 60,221 60,222 60,222 60,223 60,224 60,225 60,226 60,227 60,228 60,229 60,230 60,231 61,232 61,233 61,235 61,236 61,237 61,238 61,239 61,239 61,239 61,240 61,241 61,241 61,241 62,242 62,242 62,242 62,243 62,243 62,243 62,244 62,244 62,245 62,245 62,245 62,245 62,245 63,245 63,245 63,245 63,244 63,244 63,243 63,242 63,242 63,241 63,240 63,240 63,239 63,238 64,237 64,237 64,236 64,235 64,234 64,234 64,233 64,232 64,231 64,231 64,230 64,229 64,229 65,228 65,228 65,227 65,227 65,226 65,226 65,225 65,225 65,224 65,224 65,223 65,223 65,222 66,221 66,221 66,220 66,220 66,220 66,220 66,219 66,219 66,219 66,218 66,218 66,217 66,216 67,216 67,215 67,214 67,214 67,213 67,213 67,212 67,212 67,211 67,211 67,211 67,211 67,211 68,211 68,211 68,211 68,211 68,211 68,210 68,210 68,210 68,210 68,210 68,210 68,209 69,209 69,210 69,210 69,211 69,211 69,211 69,211 69,212 69,212 69,212 69,211 69,211 69,211 70,211 70,211 70,211 70,211 70,211 70,211 70,211 70,211 70,211 70,210 70,210 70,210 70,210 71,209 71,209 71,210 71,210 71,210 71,211 71,211 71,210 71,211 71,211 71,210 71,210 71,209 72,209 72,208 72,207 72,206 72,205 72,204 72,203 72,202 72,201 72,200 72,200 72,199 72,198 73,197 73,198 73,198 73,198 73,198 73,199 73,199 73,199 73,199 73,199 73,200 73,200 73,200 74,200 74,200 74,200 74,200 74,201 74,201 74,201 74,201 74,201 74,201 74,201 74,202 74,202 75,202 75,202 75,203 75,203 75,203 75,204 75,204 75,205 75,205 75,206 75,206 75,207 75,207 76,207 76,207 76,206 76,205 76,204 76,204 76,203 76,202 76,201 76,200 76,200 76,200 76,200 77,199 77,199 77,198 77,197 77,197 77,196 77,196 77,195 77,194 77,193 77,192 77,191 77,191 78,190 78,190 78,189 78,189 78,189 78,189 78,188 78,188 78,188 78,188 78,188 78,187 78,187 79,187 79,187 79,187 79,187 79,186 79,186 79,186 79,186 79,185 79,185 79,185 79,185 79,184 80,184 80,184 80,183 80,183 80,182 80,182 80,182 80,181 80,181 80,181 80,181 80,181 80,181 81,180 81,180 81,180 81,180 81,180 81,180 81,180 81,180 81,180 81,180 81,181 81,181 81,181 82,181 82,181 82,181 82,182 82,182 82,182 82,182 82,182 82,183 82,183 82,183 82,184 82,184 83,184 83,185 83,185 83,185 83,185 83,186 83,186 83,186 83,186 83,186 83,186 83,186 83,186 84,186 84,186 84,186 84,186 84,186 84,186 84,186 84,186 84,186 84,186 84,187 84,187 85,187 85,187 85,187 85,187 85,188 85,188 85,188 85,188 85,189 85,189 85,189 85,189 85,189 86,190 86,190 86,190 86,191 86,191 86,191 86,191 86,191 86,192 86,192 86,192 86,192 86,192 87,192 87,193 87,193 87,193 87,194 87,194 87,195 87,195 87,195 87,195 87,196 87,196 87,196 88,195 88,195 88,195 88,195 88,195 88,196 88,196 88,196 88,196 88,196 88,196 88,196 88,197 89,197 89,197 89,197 89,198 89,198 89,199 89,199 89,198 89,198 89,198 89,198 89,199 89,199 90,200 90,200 90,200 90,200 90,200 90,200 90,201 90,201 90,201 90,201 90,202 90,202 90,202 91,202 91,202 91,203 91,202 91,203 91,203 91,203 91,203 91,203 91,203 91,203 91,203 91,203 92,203 92,204 92,204 92,204 92,204 92,204 92,204 92,204 92,204 92,204 92,204 92,205 92,205 93,205 93,205 93,205 93,205 93,206 93,206 93,206 93,206 93,206 93,206 93,207 93,207 93,207 94,207 94,208 94,208 94,208 94,208 94,209 94,209 94,209 94,210 94,210 94,211 94,211 94,211 95,211 95,211 95,210 95,210 95,209 95,209 95,209 95,208 95,208 95,207 95,207 95,206 95,206 96,205 96,205 96,204 96,204 96,203 96,203 96,202 96,202 96,201 96,201 96,201 96,200 96,199 97,199 97,199 97,199 97,198 97,198 97,198 97,198 97,198 97,198 97,198 97,198 97,198 97,198 98,198 98,198 98,198 98,198 98,198 98,198 98,198 98,198 98,198 98,198 98,198 98,198 98,198 99,198 99,198 99,198 99,198 99,198 99,198 99,198 99,198 99,198 99,198 99,198 99,198 99,198 100,198 100,198 100,198 100,198 100,198 100,198 100,198 100,198 100,199 100,199 100,199 100,199 100,200 101,200 101,200 101,200 101,201 101,201 101,201 101,201 101,202 101,202 101,202 101,202 101,203 102,203 102,203 102,204 102,204 102,204 102,205 102,205 102,206 102,206 102,206 102,207 102,207 102,208 103,208 103,209 103,209 103,210 103,210 103,210 103,210 103,211 103,211 103,211 103,211 103,211 103,211 104,211 104,210 104,210 104,209 104,209 104,209 104,208 104,208 104,208 104,208 104,207 104,207 104,208 105,208 105,208 105,208 105,208 105,208 105,207 105,207 105,207 105,206 105,206 105,206 105,206 105,206 106,206 106,205 106,205 106,205 106,205 106,205 106,204 106,204 106,204 106,204 106,204 106,204 106,204 107,203 107,203 107,203 107,203 107,203 107,203 107,203 107,203 107,203 107,203 107,203 107,203 107,203 108,203 108,204 108,204 108,204 108,204 108,204 108,204 108,204 108,204 108,203 108,203 108,203 108,203 109,203 109,203 109,203 109,203 109,204 109,204 109,205 109,205 109,206 109,206 109,206 109,206 109,206 110,206 110,206 110,206 110,206 110,206 110,206 110,206 110,206 110,206 110,207 110,207 110,207 110,207 111,207 111,208 111,208 111,209 111,209 111,209 111,209 111,209 111,209 111,209 111,208 111,208 111,208 112,208 112,207 112,207 112,207 112,206 112,206 112,206 112,206 112,206 112,207 112,207 112,207 112,207 113,208 113,208 113,208 113,208 113,208 113,208 113,208 113,209 113,209 113,209 113,209 113,210 113,210 114,210 114,210 114,211 114,211 114,211 114,211 114,211 114,211 114,211 114,211 114,212 114,212 114,212 115,212 115,212 115,212 115,212 115,212 115,212 115,212 115,212 115,211 115,211 115,211 115,211 115,211 116,211 116,211 116,211 116,211 116,211 116,211 116,211 116,212 116,212 116,212 116,212 116,212 116,212 117,212 117,213 117,213 117,212 117,212 117,212 117,212 117,212 117,212 117,212 117,213 117,213 118,213 118,214 118,214 118,213 118,213 118,213 118,213 118,213 118,213 118,213 118,213 118,213 118,213 119,213 119,213 119,213 119,213 119,213 119,213 119,214 119,214 119,214 119,214 119,214 119,215 119,215 120,215 120,215 120,216 120,216 120,216 120,216 120,217 120,217 120,217 120,217 120,217 120,218 120,218 121,218 121,218 121,218 121,218 121,218 121,218 121,218 121,218 121,218 121,218 121,218 121,218 121,219 122,219 122,219 122,219 122,219 122,219 122,219 122,218 122,219 122,219 122,219 122,218 122,218 122,218 123,217 123,217 123,217 123,216 123,216 123,216 123,216 123,216 123,216 123,215 123,215 123,215 123,214 124,214 124,214 124,214 124,214 124,215 124,215 124,215 124,216 124,216 124,216 124,216 124,216 124,216 125,216 125,216 125,216 125,217 125,217 125,217 125,217 125,218 125,218 125,218 125,218 125,219 125,219 126,219 126,219 126,219 126,220 126,220 126,220 126,220 126,220 126,220 126,221 126,221 126,221 126,221 127,221 127,221 127,221 127,222 127,222 127,222 127,222 127,222 127,222 127,222 127,222 127,222 127,222 128,223 128,223 128,223 128,223 128,223 128,223 128,223 128,224 128,224 128,224 128,224 128,224 128,224 129,224 129,224 129,224 129,224 129,224 129,224 129,224 129,224 129,224 129,224 129,225 129,225 129,225 130,225 130,226 130,226 130,226 130,226 130,226 130,226 130,226 130,226 130,225 130,225 130,225 130,224 131,224 131,224 131,224 131,224 131,224 131,224 131,224 131,224 131,224 131,224 131,225 131,225 131,225 132,226 132,226 132,227 132,227 132,228 132,229 132,229 132,230 132,230 132,231 132,231 132,232 132,232 133,232 133,232 133,232 133,232 133,232 133,233 133,233 133,233 133,233 133,233 133,233 133,233 134,233 134,233 134,233 134,233 134,233 134,233 134,233 134,233 134,233 134,233 134,233 134,233 134,233 135,233 135,233 135,233 135,233 135,233 135,233 135,233 135,233 135,233 135,233 135,233 135,232 135,232 136,232 136,232 136,232 136,232 136,232 136,232 136,232 136,233 136,233 136,233 136,232 136,232 136,232 137,232 137,232 137,232 137,232 137,232 137,232 137,232 137,232 137,232 137,232 137,232 137,232 137,232 138,232 138,232 138,232 138,233 138,233 138,233 138,233 138,233 138,233 138,233 138,233 138,233 138,233 139,233 139,233 139,233 139,233 139,233 139,232 139,232 139,232 139,233 139,233 139,233 139,233 139,232 140,232 140,232 140,232 140,232 140,232 140,232 140,231 140,231 140,231 140,231 140,231 140,231 140,231 141,231 141,231 141,231 141,231 141,231 141,231 141,231 141,231 141,230 141,230 141,230 141,230 141,230 142,230 142,230 142,230 142,230 142,230 142,230 142,230 142,230 142,229 142,229 142,229 142,229 142,229 143,229 143,229 143,229 143,229 143,229 143,229 143,229 143,229 143,229 143,229 143,229 143,229 143,229 144,229 144,229 144,229 144,229 144,229 144,229 144,229 144,229 144,228 144,228 144,228 144,228 144,228 145,228 145,228 145,228 145,228 145,228 145,228 145,228 145,227 145,227 145,227 145,227 145,227 145,227 146,227 146,227 146,227 146,227 146,227 146,227 146,227 146,226 146,226 146,226 146,226 146,226 146,226 147,225 147,225 147,225 147,225 147,225 147,225 147,225 147,225 147,225 147,225 147,225 147,225 147,225 148,225 148,225 148,225 148,225 148,226 148,226 148,226 148,226 148,226 148,226 148,226 148,226 148,226 149,226 149,226 149,226 149,226 149,226 149,226 149,225 149,225 149,225 149,225 149,225 149,224 149,224 150,224 150,223 150,223 150,223 150,222 150,222 150,222 150,222 150,221 150,221 150,221 150,221 151,220 151,220 151,220 151,220 151,220 151,219 151,219 151,219 151,219 151,219 151,219 151,219 151,219 152,219 152,219 152,219 152,219 152,218 152,218 152,218 152,219 152,219 152,219 152,219 152,220 152,220 153,221 153,221 153,220 153,220 153,219 153,218 153,218 153,217 153,217 153,217 153,216 153,216 153,216 154,215 154,215 154,215 154,214 154,214 154,214 154,213 154,213 154,213 154,213 154,212 154,212 154,212 155,211 155,211 155,211 155,210 155,210 155,210 155,210 155,210 155,210 155,210 155,211 155,211 155,211 156,211 156,211 156,211 156,211 156,211 156,211 156,211 156,211 156,211 156,210 156,210 156,209 156,209 157,209 157,209 157,209 157,209 157,209 157,209 157,209 157,209 157,209 157,209 157,208 157,208 157,208 158,208 158,208 158,208 158,207 158,207 158,206 158,205 158,204 158,203 158,202 158,201 158,201 158,200 159,200 159,200 159,200 159,199 159,199 159,198 159,198 159,197 159,197 159,196 159,196 159,196 159,196 160,195 160,195 160,195 160,194 160,194 160,193 160,193 160,192 160,192 160,192 160,192 160,191 160,191 161,191 161,191 161,190 161,190 161,190 161,190 161,189 161,189 161,189 161,189 161,189 161,189 161,189 162,188 162,188 162,188 162,188 162,188 162,188 162,187 162,187 162,187 162,187 162,187 162,187 162,186 163,186 163,186 163,186 163,186 163,186 163,186 163,185 163,185 163,185 163,185 163,185 163,185 163,186 164,186 164,186 164,186 164,186 164,186 164,186 164,186 164,186 164,186 164,186 164,186 164,186 164,186 165,186 165,187 165,187 165,187 165,187 165,188 165,188 165,188 165,188 165,189 165,189 165,189 165,190 166,190 166,190 166,191 166,191 166,191 166,192 166,192 166,193 166,193 166,194 166,194 166,194 167,195 167,195 167,195 167,195 167,195 167,195 167,195 167,195 167,195 167,194 167,194 167,193 167,193 168,193 168,193 168,193 168,194 168,194 168,194 168,194 168,194 168,194 168,194 168,194 168,194 168,193 169,192 169,192 169,191 169,190 169,190 169,189 169,189 169,189 169,188 169,188 169,187 169,187 169,187 170,186 170,186 170,186 170,186 170,185 170,185 170,185 170,185 170,185 170,185 170,185 170,185 170,185 171,185 171,185 171,185 171,185 171,185 171,185 171,185 171,185 171,185 171,184 171,185 171,185 171,185 172,185 172,185 172,185 172,185 172,185 172,185 172,186 172,186 172,186 172,187 172,187 172,188 172,188 173,189 173,190 173,191 173,191 173,193 173,194 173,195 173,195 173,196 173,197 173,197 173,198 173,199 174,200 174,200 174,200 174,200 174,200 174,200 174,200 174,200 174,200 174,200 174,200 174,200 174,200 175,200 175,200 175,200 175,200 175,200 175,200 175,200 175,200 175,200 175,200 175,200 175,201 175,201 176,201 176,201 176,202 176,202 176,202 176,202 176,201 176,201 176,200 176,200 176,199 176,199 176,199 177,199 177,199 177,199 177,198 177,198 177,198 177,198 177,198 177,198 177,197 177,197 177,197 177,197 178,196 178,196 178,196 178,196 178,195 178,196 178,196 178,196 178,196 178,196 178,197 178,197 178,197 179,197 179,197 179,198 179,198 179,197 179,197 179,196 179,196 179,196 179,195 179,195 179,195 179,195 180,194 180,194 180,193 180,193 180,193 180,193 180,193 180,193 180,193 180,192 180,192 180,192 180,192 181,192 181,191 181,191 181,191 181,191 181,191 181,190 181,190 181,189 181,190 181,189 181,189 181,188 182,188 182,189 182,189 182,189 182,189 182,190 182,190 182,190 182,190 182,190 182,189 182,188 183,188 183,187 183,186 183,186 183,185 183,185 183,185 183,184 183,184 183,184 183,183 183,183 183,182 184,181 184,181 184,181 184,180 184,180 184,179 184,179 184,178 184,178 184,178 184,177 184,177 184,177 185,177 185,176 185,176 185,176 185,175 185,175 185,175 185,175 185,175 185,174 185,174 185,174 185,174 186,174 186,174 186,174 186,174 186,174 186,174 186,174 186,174 186,173 186,173 186,173 186,173 186,173 187,172 187,172 187,172 187,172 187,172 187,172 187,172 187,172 187,172 187,173 187,173 187,173 187,173 188,174 188,174 188,174 188,174 188,175 188,175 188,176 188,177 188,177 188,178 188,179 188,179 188,180 189,181 189,182 189,183 189,183 189,183 189,183 189,183 189,183 189,183 189,183 189,183 189,183 189,183 190,183 190,183 190,183 190,183 190,184 190,184 190,184 190,184 190,184 190,184 190,184 190,184 190,184 191,184 191,184 191,184 191,184 191,184 191,184 191,184 191,183 191,183 191,183 191,182 191,182 191,182 192,181 192,181 192,180 192,179 192,179 192,178 192,178 192,178 192,178 192,177 192,177 192,177 192,177 193,177 193,177 193,177 193,177 193,177 193,177 193,177 193,177 193,177 193,177 193,177 193,177 193,178 194,178 194,179 194,179 194,179 194,179 194,179 194,180 194,180 194,180 194,180 194,181 194,181 194,182 195,183 195,183 195,183 195,184 195,184 195,184 195,185 195,186 195,186 195,187 195,187 195,188 195,189 196,189 196,190 196,191 196,191 196,191 196,191 196,191 196,191 196,192 196,192 196,192 196,192 196,193 197,193 197,193 197,194 197,194 197,194 197,195 197,194 197,194 197,194 197,194 197,194 197,195 197,195 198,195 198,196 198,196 198,196 198,196 198,196 198,196 198,196 198,196 198,197 198,197 198,197 198,197 199,197 199,197 199,198 199,198 199,198 199,198 199,198 199,198 199,198 199,198 199,198 199,198 200,198 200,198 200,198 200,198 200,198 200,198 200,199 200,199 200,199 200,199 200,199 200,199 200,199 201,200 201,200 201,200 201,199 201,199 201,198 201,198 201,198 201,198 201,198 201,198 201,197 201,197 202,197 202,197 202,197 202,197 202,198 202,198 202,198 202,198 202,198 202,198 202,198 202,197 202,198 203,198 203,198 203,198 203,198 203,198 203,198 203,198 203,199 203,199 203,199 203,199 203,199 203,200 204,200 204,201 204,201 204,201 204,201 204,201 204,202 204,202 204,202 204,202 204,202 204,202 204,202 205,202 205,202 205,203 205,203 205,203 205,203 205,203 205,203 205,203 205,203 205,203 205,203 205,203 206,204 206,204 206,204 206,204 206,204 206,204 206,204 206,204 206,204 206,204 206,204 206,204 206,204 207,204 207,204 207,204 207,204 207,204 207,204 207,203 207,203 207,203 207,203 207,202 207,202 207,202 208,202 208,202 208,202 208,201 208,201 208,201 208,200 208,200 208,200 208,200 208,200 208,200 208,199 209,199 209,199 209,198 209,198 209,198 209,198 209,198 209,198 209,197 209,197 209,197 209,197 209,197 210,197 210,196 210,196 210,196 210,196 210,195 210,195 210,195 210,195 210,194 210,194 210,194 210,194 211,194 211,194 211,193 211,193 211,193 211,193 211,193 211,192 211,192 211,192 211,192 211,192 211,191 212,191 212,191 212,191 212,191 212,191 212,191 212,190 212,190 212,190 212,190 212,190 212,190 212,190 213,190 213,189 213,189 213,188 213,188 213,187 213,187 213,186 213,186 213,186 213,186 213,186 213,186 214,186 214,186 214,186 214,186 214,186 214,186 214,186 214,186 214,187 214,187 214,187 214,186 214,184 215,184 215,184 215,183 215,183 215,183 215,182 215,182 215,182 215,182 215,182 215,181 215,181 216,181 216,180 216,180 216,180 216,179 216,179 216,179 216,179 216,179 216,179 216,179 216,178 216,178 217,178 217,178 217,178 217,178 217,178 217,178 217,178 217,178 217,178 217,178 217,178 217,178 217,178 218,178 218,178 218,178 218,179 218,179 218,179 218,179 218,179 218,179 218,179 218,179 218,179 218,179 219,178 219,178 219,178 219,178 219,177 219,177 219,177 219,177 219,176 219,176 219,175 219,175 219,175 220,174 220,174 220,174 220,173 220,173 220,172 220,172 220,172 220,171 220,171 220,170 220,169 220,168 221,168 221,168 221,167 221,167 221,167 221,166 221,166 221,165 221,165 221,165 221,164 221,164 221,164 222,163 222,163 222,162 222,162 222,162 222,161 222,161 222,160 222,160 222,160 222,160 222,160 222,160 223,160 223,160 223,160 223,159 223,159 223,159 223,159 223,158 223,157 223,156 223,156 223,156 223,156 224,157 224,157 224,157 224,157 224,158 224,158 224,158 224,157 224,157 224,157 224,157 224,157 224,157 225,156 225,156 225,156 225,156 225,156 225,156 225,156 225,156 225,155 225,155 225,155 225,155 225,155 226,154 226,154 226,154 226,154 226,153 226,152 226,151 226,151 226,150 226,150 226,150 226,150 226,150 227,150 227,150 227,150 227,149 227,149 227,148 227,148 227,148 227,147 227,147 227,147 227,147 227,147 228,147 228,147 228,147 228,147 228,147 228,147 228,147 228,147 228,147 228,147 228,147 228,147 228,147 229,147 229,147 229,146 229,146 229,146 229,146 229,146 229,147 229,147 229,147 229,148 229,148 229,148 230,148 230,148 230,148 230,148 230,148 230,148 230,148 230,148 230,148 230,148 230,148 230,148 230,148 231,148 231,148 231,148 231,148 231,149 231,149 231,149 231,149 231,149 231,150 231,150 231,149 232,150 232,150 232,150 232,150 232,151 232,151 232,151 232,152 232,153 232,153 232,154 232,155 232,155 233,156 233,156 233,157 233,158 233,159 233,161 233,161 233,162 233,163 233,164 233,165 233,167 233,170 234,172 234,173 234,174 234,174 234,175 234,176 234,176 234,175 234,175 234,174 234,174 234,173 234,172 235,171 235,169 235,168 235,167 235,166 235,165 235,165 235,164 235,164 235,164 235,164 235,163 235,163 236,163 236,163 236,163 236,163 236,163 236,163 236,162 236,162 236,162 236,162 236,162 236,161 236,161 237,161 237,161 237,160 237,160 237,160 237,160 237,160 237,160 237,160 237,160 237,159 237,159 237,159 238,159 238,158 238,158 238,158 238,158 238,158 238,158 238,158 238,158 238,159 238,159 238,159 238,159 239,160 239,160 239,160 239,160 239,160 239,160 239,161 239,161 239,161 239,161 239,161 239,162 239,162 240,162 240,162 240,163 240,163 240,163 240,164 240,164 240,165 240,166 240,166 240,167 240,168 240,169 241,170 241,170 241,171 241,172 241,173 241,174 241,175 241,175 241,176 241,177 241,178 241,178 241,178 242,178 242,178 242,178 242,178 242,178 242,178 242,178 242,178 242,178 242,178 242,179 242,179 242,180 243,181 243,182 243,182 243,182 243,183 243,182 243,182 243,182 243,182 243,182 243,182 243,182 243,182 244,182 244,182 244,183 244,183 244,183 244,183 244,183 244,183 244,184 244,184 244,184 244,184 244,186 245,186 245,187 245,187 245,188 245,189 245,190 245,191 245,191 245,192 245,193 245,193 245,194 245,195 246,196 246,197 246,197 246,198 246,198 246,199 246,199 246,200 246,200 246,201 246,201 246,202 246,203 247,203 247,205 247,206 247,207 247,208 247,208 247,208 247,208 247,208 247,207 247,206 247,206 247,206 248,206 248,206 248,206 248,206 248,206 248,206 248,206 248,207 248,207 248,207 248,207 248,207 249,207 249,207 249,206 249,206 249,206 249,206 249,206 249,205 249,205 249,205 249,205 249,204 249,204 250,204 250,204 250,203 250,203 250,203 250,203 250,203 250,202 250,202 250,201 250,201 250,202 250,202 251,202 251,203 251,204 251,205 251,206 251,207 251,207 251,208 251,209 251,209 251,210 251,211 251,211 252,212 252,212 252,213 252,214 252,214 252,214 252,215 252,216 252,216 252,217 252,217 252,218 252,219 253,219 253,220 253,221 253,221 253,222 253,223 253,224 253,224 253,223 253,223 253,223 253,222 253,222 254,221 254,221 254,220 254,219 254,217 254,216 254,215 254,213 254,212 254,211 254,209 254,208 254,207 255,206 255,205 255,204 255,203 255,201 255,200 255,199 255,198 255,198 255,199 255,201 255,201 255,201 256,201 256,201 256,201 256,202 256,202 256,202 256,202 256,201 256,201 256,201 256,201 256,201 256,201 257,200 257,200 257,199 257,199 257,199 257,198 257,197 257,197 257,198 257,199 257,201 257,202 257,204 258,205 258,207 258,208 258,209 258,210 258,211 258,212 258,212 258,212 258,212 258,212 258,211 258,210 259,209 259,208 259,207 259,206 259,205 259,204 259,203 259,202 259,201 259,200 259,199 259,199 259,198 260,198 260,198 260,198 260,198 260,198 260,198 260,198 260,198 260,198 260,198 260,198 260,198 260,198 261,198 261,198 261,198 261,198 261,198 261,198 261,198 261,199 261,199 261,199 261,199 261,199 261,200 262,200 262,200 262,201 262,202 262,203 262,204 262,205 262,206 262,207 262,208 262,209 262,209 262,209 263,210 263,210 263,210 263,210 263,210 263,210 263,210 263,210 263,210 263,210 263,210 263,210 263,210 264,210 264,210 264,210 264,210 264,210 264,210 264,210 264,210 264,210 264,210 264,210 264,210 265,210 265,209 265,209 265,209 265,209 265,209 265,209 265,210 265,210 265,211 265,212 265,213 265,213 266,214 266,214 266,214 266,215 266,215 266,215 266,216 266,216 266,216 266,217 266,217 266,217 266,217 267,217 267,217 267,218 267,218 267,218 267,218 267,218 267,218 267,218 267,219 267,219 267,219 267,219 268,219 268,220 268,220 268,220 268,220 268,220 268,221 268,221 268,221 268,222 268,223 268,224 268,224 269,224 269,225 269,226 269,227 269,228 269,229 269,230 269,230 269,231 269,232 269,232 269,233 269,234 270,234 270,235 270,236 270,236 270,237 270,238 270,238 270,239 270,240 270,241 270,241 270,241 270,242 271,242 271,242 271,242 271,242 271,242 271,242 271,242 271,243 271,243 271,243 271,243 271,243 271,243 272,243 272,244 272,244 272,244 272,244 272,244 272,244 272,245 272,245 272,245 272,245 272,245 272,246 273,246 273,246 273,246 273,245 273,245 273,245 273,245 273,244 273,244 273,244 273,244 273,243 273,243 274,243 274,243 274,243 274,244 274,244 274,244 274,244 274,245 274,245 274,245 274,245 274,246 274,246 275,247 275,247 275,247 275,248 275,248 275,249 275,249 275,249 275,250 275,250 275,250 275,251 275,251 276,251 276,252 276,252 276,252 276,253 276,253 276,254 276,254 276,255 276,255 276,255 276,256 276,257 277,257 277,258 277,258 277,259 277,260 277,261 277,262 277,263 277,265 277,266 277,266 277,267 277,267 278,266 278,266 278,265 278,265 278,265 278,265 278,265 278,265 278,265 278,265 278,265 278,265 278,265 279,265 279,265 279,265 279,264 279,263 279,262 279,262 279,261 279,260 279,260 279,259 279,259 279,259 280,258 280,258 280,258 280,258 280,258 280,258 280,258 280,257 280,257 280,257 280,257 280,257 281,257 281,256 281,256 281,256 281,256 281,255 281,255 281,255 281,255 281,255 281,255 281,254 281,254 282,255 282,255 282,256 282,256 282,257 282,258 282,258 282,259 282,260 282,261 282,263 282,265 282,266 283,267 283,268 283,270 283,271 283,272 283,273 283,273 283,274 283,274 283,273 283,273 283,273 283,272 284,272 284,271 284,271 284,271 284,271 284,270 284,269 284,268 284,267 284,266 284,265 284,264 284,262 285,261 285,260 285,259 285,258 285,256 285,255 285,254 285,253 285,252 285,251 285,249 285,248 285,247 286,246 286,244 286,244 286,243 286,243 286,242 286,241 286,241 286,240 286,239 286,239 286,238 286,237 287,236 287,235 287,235 287,233 287,232 287,231 287,230 287,229 287,228 287,227 287,226 287,226 287,225 288,225 288,224 288,224 288,223 288,223 288,222 288,222 288,221 288,221 288,220 288,220 288,219 288,218 289,217 289,216 289,216 289,215 289,215 289,214 289,214 289,214 289,214 289,214 289,213 289,213 289,212 290,212 290,212 290,212 290,212 290,212 290,212 290,212 290,212 290,212 290,212 290,212 290,212 290,212 291,212 291,213 291,213 291,212 291,212 291,212 291,212 291,212 291,211 291,210 291,210 291,209 291,208 292,208 292,208 292,207 292,207 292,207 292,206 292,206 292,206 292,206 292,206 292,206 292,207 292,207 293,207 293,207 293,207 293,207 293,207 293,207 293,207 293,207 293,207 293,207 293,207 293,207 293,207 294,207 294,207 294,207 294,207 294,207 294,206 294,206 294,206 294,207 294,208 294,209 294,210 294,211 295,212 295,214 295,215 295,217 295,218 295,220 295,221 295,222 295,224 295,225 295,226 295,227 295,228 296,230 296,231 296,232 296,232 296,233 296,233 296,233 296,233 296,233 296,232 296,231 296,230 296,229 297,228 297,227 297,226 297,224 297,223 297,222 297,221 297,220 297,219 297,219 297,219 297,219 298,218 298,218 298,218 298,218 298,217 298,217 298,217 298,217 298,217 298,217 298,216 298,216 298,216 299,216 299,216 299,216 299,215 299,215 299,215 299,215 299,214 299,214 299,214 299,214 299,214 299,213 300,213 300,213 300,213 300,213 300,213 300,213 300,213 300,214 300,215 300,216 300,217 300,218 300,219 301,220 301,221 301,222 301,223 301,224 301,225 301,226 301,226 301,227 301,229 301,229 301,230 301,231 302,232 302,232 302,233 302,234 302,235 302,236 302,237 302,237 302,238 302,239 302,240 302,241 302,242 303,243 303,244 303,244 303,245 303,244 303,244 303,244 303,244 303,243 303,242 303,241 303,239 303,238 304,237 304,236 304,234 304,233 304,231 304,230 304,228 304,227 304,225 304,224 304,223 304,221 304,220 305,219 305,217 305,216 305,214 305,212 305,211 305,210 305,210 305,209 305,208 305,208 305,207 305,206 306,206 306,205 306,204 306,203 306,203 306,202 306,202 306,201 306,201 306,200 306,200 306,200 306,199 307,199 307,198 307,198 307,198 307,197 307,197 307,197 307,196 307,196 307,196 307,196 307,195 307,195 308,195 308,194 308,194 308,194 308,193 308,193 308,193 308,193 308,193 308,192 308,192 308,192 308,192 309,192 309,193 309,193 309,193 309,193 309,192 309,192 309,192 309,192 309,192 309,192 309,192 309,191 310,191 310,191 310,191 310,191 310,191 310,191 310,191 310,191 310,191 310,191 310,191 310,191 310,191 311,191 311,190 311,190 311,190 311,190 311,190 311,190 311,189 311,189 311,189 311,189 311,189 311,189 312,189 312,189 312,189 312,189 312,189 312,189 312,190 312,190 312,190 312,191 312,191 312,192 312,192 313,192 313,192 313,192 313,192 313,192 313,192 313,192 313,192 313,192 313,192 313,193 313,193 314,194 314,194 314,195 314,195 314,195 314,195 314,195 314,195 314,195 314,195 314,195 314,195 314,196 315,196 315,196 315,196 315,197 315,197 315,197 315,197 315,198 315,198 315,198 315,198 315,198 315,199 316,199 316,199 316,199 316,200 316,200 316,201 316,201 316,202 316,202 316,203 316,203 316,204 316,205 317,205 317,206 317,207 317,208 317,209 317,209 317,210 317,211 317,211 317,212 317,213 317,213 317,213 318,214 318,214 318,213 318,213 318,213 318,212 318,212 318,211 318,211 318,210 318,210 318,209 318,209 319,209 319,208 319,208 319,208 319,208 319,207 319,207 319,207 319,207 319,208 319,208 319,209 319,209 320,209 320,209 320,209 320,208 320,208 320,207 320,206 320,206 320,205 320,205 320,204 320,204 320,203 321,203 321,202 321,202 321,202 321,201 321,201 321,200 321,200 321,200 321,200 321,199 321,199 321,198 322,198 322,198 322,197 322,197 322,196 322,196 322,195 322,195 322,194 322,194 322,194 322,193 322,193 323,192 323,192 323,192 323,192 323,193 323,193 323,193 323,192 323,192 323,192 323,192 323,192 323,192 324,192 324,192 324,192 324,192 324,193 324,194 324,194 324,195 324,196 324,197 324,197 324,198 324,198 325,199 325,199 325,199 325,199 325,199 325,200 325,200 325,199 325,199 325,199 325,199 325,199 325,199 326,199 326,199 326,199 326,199 326,199 326,198 326,199 326,200 326,200 326,200 326,200 326,201 326,201 327,202 327,202 327,202 327,203 327,203 327,203 327,203 327,204 327,204 327,205 327,205 327,205 327,205 328,206 328,206 328,206 328,206 328,206 328,206 328,206 328,205 328,205 328,205 328,204 328,204 328,203 329,203 329,203 329,202 329,202 329,202 329,202 329,202 329,202 329,202 329,202 329,202 329,202 330,201 330,201 330,201 330,201 330,201 330,201 330,201 330,201 330,201 330,201 330,201 330,201 330,201 331,201 331,202 331,202 331,202 331,203 331,203 331,204 331,204 331,204 331,205 331,205 331,206 331,206 332,206 332,207 332,207 332,208 332,208 332,209 332,210 332,210 332,211 332,211 332,212 332,212 332,213 333,213 333,213 333,214 333,214 333,215 333,215 333,216 333,216 333,216 333,217 333,217 333,218 333,218 334,219 334,219 334,220 334,220 334,220 334,221 334,221 334,222 334,222 334,222 334,223 334,223 334,223 335,223 335,223 335,223 335,223 335,223 335,223 335,223 335,224 335,224 335,224 335,224 335,224 335,224 336,224 336,224 336,224 336,225 336,225 336,225 336,225 336,225 336,226 336,226 336,226 336,227 336,227 337,228 337,229 337,229 337,229 337,229 337,229 337,228 337,229 337,229 337,229 337,229 337,229 337,228 338,227 338,227 338,226 338,225 338,224 338,224 338,223 338,223 338,222 338,221 338,221 338,220 338,220 339,219 339,219 339,218 339,218 339,218 339,217 339,217 339,217 339,216 339,216 339,216 339,216 339,216 340,215 340,215 340,215 340,215 340,215 340,215 340,215 340,214 340,214 340,214 340,214 340,214 340,214 341,214 341,214 341,214 341,214 341,214 341,214 341,214 341,214 341,214 341,214 341,214 341,214 341,214 342,214 342,214 342,214 342,215 342,215 342,215 342,215 342,216 342,216 342,216 342,217 342,217 342,217 343,217 343,218 343,218 343,219 343,219 343,219 343,220 343,220 343,220 343,221 343,221 343,221 343,222 344,222 344,222 344,222 344,223 344,223 344,223 344,223 344,223 344,223 344,224 344,224 344,225 344,225 345,226 345,226 345,227 345,227 345,228 345,228 345,228 345,229 345,229 345,230 345,230 345,231 345,231 346,232 346,232 346,233 346,233 346,234 346,234 346,234 346,235 346,235 346,236 346,236 346,236 347,237 347,237 347,237 347,238 347,238 347,239 347,239 347,240 347,240 347,240 347,240 347,239 347,238 348,238 348,237 348,236 348,235 348,234 348,233 348,233 348,233 348,232 348,232 348,232 348,231 348,231 349,231 349,230 349,230 349,230 349,230 349,229 349,229 349,229 349,229 349,228 349,228 349,228 349,227 350,227 350,227 350,226 350,226 350,226 350,226 350,226 350,226 350,225 350,225 350,225 350,225 350,225 351,225 351,225 351,225 351,225 351,224 351,224 351,224 351,224 351,224 351,223 351,223 351,223 351,223 352,223 352,223 352,223 352,223 352,223 352,222 352,222 352,222 352,222 352,222 352,222 352,222 352,222 353,222 353,222 353,222 353,222 353,222 353,223 353,223 353,223 353,224 353,224 353,224 353,225 353,225 354,225 354,226 354,226 354,226 354,227 354,227 354,227 354,228 354,228 354,228 354,229 354,229 354,229 355,230 355,230 355,231 355,231 355,231 355,232 355,232 355,233 355,233 355,233 355,234 355,234 355,234 356,235 356,235 356,236 356,236 356,236 356,237 356,237 356,237 356,237 356,237 356,238 356,238 356,238 357,238 357,239 357,239 357,239 357,240 357,240 357,240 357,241 357,241 357,242 357,242 357,243 357,243 358,244 358,244 358,245 358,245 358,246 358,246 358,246 358,246 358,245 358,245 358,245 358,244 358,244 359,243 359,243 359,243 359,242 359,242 359,242 359,241 359,241 359,241 359,240 359,240 359,240 359,239 360,239 360,239 360,238 360,238 360,238 360,238 360,238 360,237 360,237 360,237 360,237 360,236 360,236 361,236 361,236 361,236 361,235 361,235 361,235 361,235 361,234 361,234 361,234 361,233 361,233 361,233 362,233 362,233 362,233 362,233 362,232 362,232 362,232 362,232 362,232 362,232 362,233 362,233 363,233 363,233 363,233 363,233 363,233 363,233 363,233 363,233 363,234 363,234 363,234 363,234 363,235 364,235 364,235 364,235 364,236 364,236 364,236 364,236 364,237 364,237 364,237 364,238 364,238 364,238 365,238 365,239 365,239 365,239 365,240 365,240 365,241 365,241 365,241 365,242 365,242 365,243 365,243 366,244 366,244 366,245 366,245 366,246 366,246 366,247 366,247 366,248 366,248 366,249 366,249 366,249 367,250 367,250 367,251 367,251 367,251 367,251 367,252 367,252 367,252 367,252 367,252 367,252 367,252 368,252 368,251 368,251 368,251 368,250 368,250 368,250 368,250 368,250 368,250 368,250 368,249 368,249 369,249 369,249 369,249 369,249 369,249 369,249 369,249 369,249 369,249 369,249 369,249 369,249 369,249 370,248 370,248 370,248 370,248 370,248 370,248 370,248 370,248 370,248 370,248 370,248 370,248 370,248 371,248 371,248 371,248 371,248 371,249 371,249 371,249 371,250 371,250 371,250 371,251 371,251 371,251 372,251 372,252 372,252 372,252 372,252 372,252 372,252 372,252 372,252 372,253 372,253 372,253 372,254 373,254 373,254 373,255 373,255 373,255 373,255 373,255 373,254 373,254 373,254 373,254 373,254 373,254 374,254 374,254 374,254 374,253 374,253 374,253 374,253 374,253 374,253 374,253 374,253 374,253 374,252 375,253 375,253 375,253 375,253 375,253 375,253 375,253 375,253 375,253 375,254 375,254 375,254 375,254 376,254 376,255 376,255 376,255 376,255 376,256 376,256 376,256 376,256 376,256 376,256 376,256 376,257 377,257 377,257 377,257 377,257 377,257 377,257 377,257 377,257 377,257 377,257 377,257 377,257 377,257 378,257 378,257 378,257 378,257 378,257 378,257 378,257 378,257 378,257 378,257 378,257 378,257 379,257 379,258 379,258 379,258 379,258 379,258 379,259 379,259 379,259 379,259 379,259 379,259 379,259 380,259 380,259 380,259 380,259 380,259 380,260 380,260 380,260 380,260 380,261 380,261 380,261 380,262 381,262 381,262 381,262 381,263 381,263 381,263 381,263 381,264 381,264 381,264 381,264 381,264 381,264 382,264 382,264 382,264 382,264 382,264 382,264 382,264 382,264 382,264 382,264 382,264 382,264 382,264 383,264 383,264 383,264 383,264 383,264 383,264 383,264 383,264 383,264 383,264 383,264 383,264 383,264 384,264 384,264 384,264 384,264 384,264 384,264 384,264 384,263 384,263 384,263 384,263 384,263 384,263 385,263 385,263 385,263 385,263 385,263 385,263 385,263 385,263 385,263 385,263 385,263 385,264 385,264 386,264 386,264 386,264 386,264 386,264 386,265 386,265 386,265 386,265 386,265 386,265 386,266 386,266 387,266 387,266 387,267 387,267 387,267 387,268 387,268 387,268 387,268 387,269 387,269 387,269 387,269 388,270 388,270 388,270 388,270 388,270 388,270 388,270 388,271 388,271 388,271 388,271 388,272 388,272 389,272 389,273 389,273 389,273 389,274 389,274 389,274 389,274 389,275 389,275 389,275 389,275 389,276 390,276 390,276 390,277 390,277 390,278 390,278 390,278 390,279 390,279 390,280 390,280 390,281 390,281 391,281 391,282 391,282 391,283 391,283 391,284 391,284 391,284 391,285 391,285 391,285 391,286 391,286 392,286 392,286 392,287 392,287 392,287 392,287 392,287 392,287 392,287 392,288 392,288 392,288 392,288 393,288 393,288 393,289 393,289 393,289 393,290 393,290 393,291 393,291 393,290 393,290 393,290 393,290 394,289 394,289 394,289 394,289 394,289 394,289 394,289 394,290 394,290 394,290 394,290 394,290 394,290 395,289 395,289 395,289 395,289 395,288 395,288 395,287 395,287 395,287 395,286 395,286 395,286 396,286 396,285 396,285 396,284 396,284 396,284 396,283 396,283 396,283 396,283 396,282 396,282 396,282 397,282 397,281 397,281 397,281 397,281 397,281 397,281 397,281 397,281 397,281 397,281 397,281 397,281 398,281 398,281 398,281 398,281 398,281 398,282 398,282 398,282 398,282 398,282 398,282 398,283 398,283 399,283 399,284 399,284 399,284 399,285 399,285 399,286 399,286 399,287 399,288 399,288 399,289 399,290 400,290 400,291 400,291 400,292 400,293 400,293 400,293 400,294 400,294 400,294 400,294 400,294 400,293 401,293 401,293 401,293 401,293 401,292 401,292 401,292 401,292 401,291 401,291 401,290 401,290 401,290 402,289 402,289 402,289 402,289 402,290 402,290 402,290 402,290 402,291 402,291 402,291 402,291 402,291 403,292 403,292 403,292 403,292 403,292 403,292 403,292 403,292 403,292 403,292 403,292 403,293 403,293 404,293 404,293 404,293 404,293 404,293 404,294 404,294 404,294 404,295 404,295 404,296 404,296 404,297 405,297 405,298 405,298 405,299 405,300 405,300 405,301 405,302 405,302 405,303 405,303 405,304 405,304 406,305 406,305 406,306 406,306 406,306 406,307 406,307 406,307 406,307 406,307 406,308 406,308 406,308 407,308 407,308 407,308 407,307 407,307 407,307 407,308 407,308 407,309 407,309 407,310 407,310 407,310 408,311 408,311 408,311 408,311 408,312 408,312 408,312 408,313 408,313 408,313 408,313 408,314 408,313 409,313 409,312 409,312 409,312 409,312 409,311 409,311 409,311 409,311 409,311 409,311 409,311 409,311 410,311 410,311 410,311 410,311 410,311 410,311 410,311 410,311 410,311 410,311 410,311 410,311 410,311 411,311 411,311 411,312 411,312 411,312 411,312 411,312 411,312 411,312 411,312 411,312 411,312 412,312 412,312 412,312 412,312 412,312 412,312 412,312 412,312 412,312 412,313 412,313 412,313 412,313 413,313 413,313 413,313 413,313 413,313 413,314 413,314 413,314 413,314 413,314 413,314 413,314 413,314 414,314 414,314 414,314 414,314 414,314 414,314 414,314 414,314 414,314 414,314 414,315 414,315 414,315 415,315 415,315 415,315 415,315 415,315 415,315 415,316 415,316 415,316 415,316 415,316 415,316 415,316 416,316 416,317 416,317 416,317 416,317 416,317 416,317 416,317 416,318 416,318 416,318 416,318 416,318 417,319 417,319 417,319 417,319 417,319 417,320 417,320 417,320 417,320 417,320 417,320 417,320 417,320 418,320 418,320 418,320 418,320 418,319 418,318 418,318 418,317 418,317 418,317 418,316 418,315 418,315 419,314 419,313 419,311 419,310 419,308 419,307 419,305 419,303 419,302 419,300 419,298 419,297 419,295 420,294 420,292 420,291 420,290 420,289 420,289 420,288 420,287 420,287 420,286 420,286 420,285 420,285 421,285 421,284 421,284 421,284 421,284 421,284 421,284 421,284 421,284 421,284 421,284 421,284 421,284 422,285 422,285 422,286 422,286 422,286 422,287 422,287 422,287 422,287 422,288 422,288 422,288 422,288 423,288 423,288 423,289 423,289 423,289 423,290 423,290 423,290 423,290 423,291 423,291 423,291 423,291 424,292 424,292 424,293 424,293 424,293 424,293 424,294 424,294 424,294 424,295 424,295 424,295 424,296 425,296 425,296 425,297 425,297 425,298 425,298 425,298 425,299 425,299 425,299 425,300 425,300 425,301 426,301 426,301 426,302 426,302 426,302 426,303 426,303 426,303 426,303 426,303 426,304 426,304 426,304 427,304 427,304 427,305 427,305 427,305 427,305 427,305 427,306 427,306 427,306 427,307 427,307 427,307 428,308 428,308 428,309 428,310 428,310 428,311 428,311 428,312 428,313 428,313 428,314 428,315 429,316 429,317 429,317 429,318 429,319 429,320 429,320 429,321 429,321 429,322 429,322 429,322 429,323 430,323 430,323 430,323 430,323 430,323 430,323 430,323 430,323 430,323 430,323 430,323 430,323 430,323 431,323 431,323 431,323 431,323 431,323 431,323 431,323 431,322 431,322 431,322 431,322 431,322 431,321 432,321 432,321 432,321 432,320 432,320 432,320 432,319 432,319 432,318 432,318 432,317 432,316 432,316 433,315 433,314 433,314 433,313 433,313 433,312 433,312 433,312 433,311 433,311 433,311 433,310 433,310 434,310 434,309 434,309 434,309 434,309 434,308 434,308 434,308 434,307 434,307 434,307 434,307 434,307 435,306 435,306 435,306 435,306 435,305 435,305 435,305 435,305 435,304 435,304 435,304 435,304 435,304 436,304 436,304 436,304 436,304 436,304 436,304 436,305 436,305 436,305 436,305 436,305 436,305 436,306 437,306 437,306 437,307 437,307 437,307 437,307 437,308 437,308 437,309 437,309 437,310 437,311 437,311 438,312 438,313 438,314 438,315 438,315 438,315 438,315 438,316 438,315 438,315 438,314 438,314 438,313 439,313 439,313 439,312 439,312 439,312 439,311 439,311 439,311 439,310 439,310 439,310 439,310 439,310 440,310 440,310 440,310 440,310 440,310 440,310 440,310 440,310 440,310 440,310 440,311 440,311 440,311 441,311 441,311 441,312 441,312 441,312 441,312 441,313 441,313 441,313 441,313 441,314 441,314 441,314 442,314 442,315 442,315 442,315 442,315 442,316 442,316 442,316 442,317 442,317 442,317 442,317 442,317 443,318 443,318 443,318 443,319 443,319 443,319 443,319 443,320 443,320 443,320 443,321 443,321 443,321 444,321 444,321 444,322 444,322 444,322 444,322 444,322 444,322 444,323 444,323 444,323 444,323 445,323 445,324 445,324 445,324 445,324 445,325 445,325 445,325 445,326 445,326 445,326 445,326 445,326 446,327 446,327 446,327 446,327 446,328 446,328 446,328 446,328 446,328 446,328 446,329 446,329 446,329 447,329 447,329 447,329 447,329 447,329 447,330 447,330 447,330 447,330 447,330 447,330 447,331 447,331 448,331 448,331 448,331 448,331 448,332 448,332 448,332 448,332 448,332 448,332 448,332 448,332 448,333 449,333 449,333 449,333 449,333 449,333 449,333 449,333 449,333 449,334 449,334 449,334 449,334 449,334 450,334 450,334 450,334 450,335 450,335 450,335 450,335 450,335 450,335 450,335 450,335 450,335 450,335 451,335 451,335 451,335 451,335 451,335 451,335 451,335 451,335 451,335 451,335 451,336 451,336 451,336 452,336 452,336 452,336 452,336 452,336 452,336 452,336 452,336 452,336 452,337 452,337 452,337 452,337 453,337 453,337 453,337 453,337 453,337 453,337 453,337 453,337 453,337 453,337 453,337 453,337 453,337 454,337 454,337 454,337 454,337 454,337 454,337 454,337 454,337 454,337 454,337 454,338 454,338 454,338 455,338 455,338 455,338 455,338 455,338 455,338 455,338 455,338 455,338 455,338 455,338 455,338 455,338 456,338 456,338 456,338 456,338 456,338 456,338 456,338 456,337 456,337 456,337 456,337 456,337 456,337 457,337 457,337 457,337 457,338 457,338 457,338 457,338 457,338 457,338 457,338 457,338 457,338 457,338 458,338 458,338 458,338 458,338 458,339 458,339 458,338 458,338 458,338 458,338 458,338 458,338 458,338 459,338 459,338 459,338 459,338 459,338 459,338 459,338 459,338 459,338 459,338 459,338 459,338 459,338 460,338 460,338 460,338 460,338 460,338 460,338 460,338 460,338 460,338 460,338 460,338 460,338 461,338 461,338 461,338 461,338 461,338 461,338 461,338 461,339 461,339 461,339 461,339 461,339 461,339 462,339 462,338 462,338 462,338 462,338 462,338 462,337 462,337 462,337 462,337 462,338 462,338 462,338 463,339 463,339 463,339 463,339 463,339 463,339 463,339 463,339 463,338 463,338 463,338 463,338 463,338 464,338 464,338 464,338 464,338 464,338 464,338 464,338 464,338 464,338 464,338 464,338 464,338 464,338 465,339 465,339 465,339 465,339 465,339 465,339 465,339 465,338 465,338 465,338 465,338 465,338 465,339 466,339 466,339 466,339 466,340 466,340 466,340 466,340 466,340 466,339 466,339 466,339 466,339 466,339 467,339 467,339 467,339 467,339 467,339 467,339 467,339 467,339 467,339 467,339 467,339 467,339 467,339 468,340 468,340 468,340 468,340 468,340 468,340 468,341 468,341 468,341 468,341 468,341 468,342 468,342 469,342 469,342 469,342 469,342 469,342 469,342 469,342 469,342 469,342 469,342 469,343 469,342 469,341 470,342 470,342 470,342 470,342 470,340 470,339 470,339 470,339 470,339 470,339 470,339 470,339 470,338 471,338 471,338 471,337 471,337 471,337 471,337 471,337 471,337 471,336 471,336 471,336 471,336 471,336 472,336 472,336 472,336 472,336 472,335 472,335 472,335 472,335 472,335 472,335 472,335 472,335 472,336 473,335 473,335 473,335 473,335 473,335 473,335 473,335 473,335 473,336 473,336 473,336 473,336 473,336 474,335 474,335 474,335 474,335 474,335 474,335 474,335 474,335 474,335 474,335 474,335 474,335 474,335 475,335 475,335 475,335 475,335 475,335 475,335 475,336 475,336 475,336 475,336 475,336 475,336 475,336 476,336 476,336 476,336 476,337 476,337 476,337 476,337 476,337 476,337 476,337 476,337 476,338 476,338 477,338 477,338 477,338 477,338 477,338 477,338 477,338 477,339 477,339 477,339 477,339 477,340 478,340 478,340 478,341 478,341 478,341 478,341 478,341 478,341 478,341 478,342 478,342 478,342 478,342 479,342 479,342 479,342 479,342 479,342 479,342 479,342 479,342 479,342 479,342 479,342 479,342 479,342 480,342 480,342 480,343 480,343 480,343 480,343 480,343 480,343 480,343 480,344 480,344 480,344 480,344 481,344 481,344 481,344 481,344 481,344 481,344 481,344 481,343 481,343 481,344 481,344 481,344 481,344 482,344 482,344 482,344 482,344 482,344 482,344 482,344 482,344 482,344 482,344 482,344 482,344 482,344 483,344 483,344 483,344 483,344 483,344 483,344 483,344 483,344 483,344 483,344 483,344 483,345 483,345 484,345 484,345 484,345 484,344 484,344 484,344 484,344 484,344 484,344 484,344 484,344 484,344 484,345 485,345 485,345 485,345 485,344 485,344 485,344 485,344 485,344 485,344 485,344 485,344 485,344 485,344 486,344 486,344 486,344 486,344 486,344 486,344 486,344 486,344 486,344 486,344 486,345 486,345 486,345 487,344 487,344 487,344 487,345 487,345 487,345 487,345 487,345 487,345 487,344 487,344 487,344 487,344 488,344 488,344 488,344 488,344 488,344 488,344 488,344 488,344 488,344 488,344 488,344 488,344 488,344 489,344 489,344 489,344 489,344 489,344 489,344 489,344 489,344 489,344 489,345 489,345 489,345 489,345 490,345 490,345 490,344 490,344 490,344 490,344 490,344 490,344 490,344 490,344 490,344 490,344 490,344 491,344 491,344 491,345 491,345 491,345 491,345 491,345 491,345 491,345 491,346 491,346 491,346 491,346 492,346 492,346 492,346 492,346 492,346 492,346 492,346 492,346 492,346 492,346 492,346 492,345 492,345 493,345 493,345 493,345 493,345 493,345 493,346 493,346 493,346 493,346 493,346 493,346 493,346 494,346 494,346 494,346 494,346 494,346 494,346 494,346 494,346 494,346 494,346 494,346 494,346 494,346 495,346 495,346 495,346 495,346 495,346 495,346 495,346 495,346 495,346 495,346 495,346 495,346 495,346 496,346 496,346 496,346 496,346 496,346 496,346 496,346 496,346 496,346 496,346 496,346 496,346 496,347 497,347 497,347 497,347 497,347 497,347 497,347 497,347 497,347 497,347 497,347 497,347 497,347 497,347 498,347 498,347 498,347 498,347 498,347 498,347 498,347 498,347 498,347 498,347 498,347 498,347 498,347 499,347 499,347 499,347 499,347 499,347 499,347 499,347 499,347 499,347 499,347 499,347 499,347 499,347 500,347 500,347 500,347 500,347 500,347 500,347 500,347 500,347 500,347 500,347 500,347 500,347 500,347 501,347 501,347 501,347 501,347 501,347 501,347 501,346 501,346 501,346 501,346 501,346 501,346 501,346 502,346 502,346 502,346 502,346 502,346 502,346 502,346 502,346 502,346 502,346 502,346 502,346 502,346 503,345 503,345 503,345 503,345 503,345 503,345 503,345 503,345 503,345 503,345 503,345 503,345 503,345 504,345 504,345 504,345 504,345 504,345 504,345 504,345 504,345 504,345 504,345 504,345 504,345 504,345 505,345 505,345 505,346 505,346 505,346 505,346 505,346 505,346 505,346 505,345 505,345 505,345 505,345 506,345 506,345 506,344 506,344 506,344 506,344 506,343 506,343 506,343 506,342 506,342 506,342 506,342 507,342 507,341 507,341 507,341 507,341 507,340 507,340 507,340 507,340 507,341 507,340 507,340 507,340 508,340 508,340 508,340 508,340 508,340 508,340 508,340 508,340 508,340 508,340 508,340 508,340 508,340 509,341 509,341 509,341 509,341 509,341 509,341 509,341 509,341 509,341 509,341 509,341 509,341 510,341 510,342 510,342 510,342 510,342 510,343 510,343 510,343 510,344 510,344 510,344 510,345 510,345 511,345 511,345 511,345 511,345 511,346 511,346 511,346 511,346 511,346 511,346 511,346 511,346 511,346 512,346 512,346 512,346 512,346 512,345 512,345 512,345 512,345 512,345 512,345 512,345 512,344 512,344 513,344 513,344 513,344 513,344 513,344 513,344 513,344 513,344 513,344 513,343 513,343 513,343 513,343 514,344 514,344 514,344 514,344 514,344 514,344 514,344 514,344 514,344 514,344 514,344 514,344 514,343 515,343 515,343 515,343 515,343 515,343 515,343 515,344 515,344 515,344 515,343 515,343 515,343 515,343 516,343 516,343 516,343 516,343 516,343 516,343 516,343 516,343 516,343 516,343 516,342 516,342 516,342 517,342 517,342 517,342 517,342 517,342 517,342 517,342 517,342 517,342 517,342 517,342 517,342 517,342 518,341 518,341 518,341 518,341 518,341 518,341 518,341 518,341 518,340 518,340 518,340 518,340 518,340 519,340 519,340 519,340 519,340 519,340 519,340 519,340 519,340 519,340 519,340 519,340 519,340 519,340 520,340 520,339 520,339 520,339 520,339 520,339 520,339 520,339 520,339 520,339 520,339 520,339 520,338 521,338 521,338 521,338 521,338 521,338 521,338 521,338 521,338 521,338 521,338 521,337 521,337 521,337 522,337 522,337 522,337 522,337 522,337 522,337 522,337 522,337 522,337 522,337 522,337 522,337 522,337 523,337 523,336 523,336 523,336 523,336 523,336 523,336 523,336 523,336 523,336 523,336 523,336 523,336 524,336 524,336 524,335 524,335 524,335 524,335 524,335 524,335 524,335 524,335 524,335 524,335 524,335 525,335 525,335 525,335 525,335 525,335 525,335 525,335 525,335 525,335 525,335 525,335 525,334 525,334 526,334 526,334 526,334 526,334 526,334 526,334 526,334 526,334 526,334 526,334 526,334 526,334 527,334 527,334 527,333 527,333 527,333 527,333 527,333 527,333 527,333 527,334 527,333 527,333 527,333 528,333 528,333 528,333 528,333 528,333 528,333 528,333 528,333 528,333 528,333 528,333 528,333 528,333 529,333 529,333 529,333 529,333 529,333 529,333 529,333 529,333 529,333 529,333 529,333 529,333 529,333 530,333 530,333 530,333 530,333 530,333 530,332 530,332 530,332 530,332 530,332 530,332 530,332 530,332 531,332 531,332 531,332 531,332 531,332 531,332 531,332 531,332 531,332 531,332 531,332 531,332 531,331 532,331 532,331 532,331 532,331 532,331 532,331 532,331 532,331 532,331 532,331 532,331 532,331 532,331 533,331 533,331 533,331 533,331 533,331 533,331 533,330 533,330 533,330 533,330 533,330 533,330 533,330 534,330 534,330 534,330 534,330 534,330 534,330 534,330 534,330 534,330 534,330 534,330 534,330 534,329 535,329 535,329 535,329 535,329 535,329 535,329 535,329 535,329 535,329 535,329 535,329 535,329 535,329 536,329 536,329 536,329 536,329 536,329 536,328 536,328 536,328 536,328 536,328 536,328 536,328 536,328 537,328 537,328 537,328 537,328 537,327 537,327 537,327 537,327 537,327 537,327 537,327 537,327 537,327 538,327 538,327 538,327 538,327 538,327 538,327 538,327 538,326 538,326 538,326 538,326 538,326 538,326 539,326 539,326 539,326 539,326 539,326 539,326 539,326 539,325 539,325 539,325 539,325 539,325 539,325 540,325 540,325 540,325 540,325 540,325 540,325 540,325 540,325 540,325 540,325 540,325 540,325 540,325 541,325 541,325 541,325 541,324 541,324 541,324 541,324 541,324 541,324 541,324 541,324 541,324 541,324 542,324 542,324 542,324 542,324 542,324 542,324 542,324 542,324 542,324 542,323 542,323 542,323 543,323 543,323 543,323 543,323 543,323 543,323 543,323 543,323 543,323 543,323 543,323 543,323 543,323 544,323 544,323 544,323 544,323 544,323 544,323 544,323 544,323 544,323 544,323 544,323 544,323 544,323 545,323 545,323 545,323 545,323 545,323 545,323 545,323 545,323 545,323 545,323 545,323 545,323 545,323 546,323 546,323 546,323 546,323 546,324 546,324 546,324 546,324 546,324 546,324 546,324 546,324 546,324 547,325 547,325 547,325 547,325 547,325 547,325 547,325 547,325 547,326 547,326 547,326 547,326 547,326 548,326 548,326 548,326 548,327 548,327 548,327 548,327 548,327 548,327 548,327 548,327 548,327 548,327 549,327 549,327 549,327 549,327 549,327 549,327 549,327 549,327 549,327 549,327 549,327 549,327 549,327 550,327 550,327 550,327 550,327 550,327 550,327 550,327 550,327 550,327 550,327 550,327 550,327 550,327 551,327 551,327 551,327 551,327 551,327 551,327 551,327 551,327 551,327 551,327 551,327 551,327 551,327 552,327 552,327 552,327 552,327 552,327 552,327 552,326 552,326 552,326 552,326 552,326 552,326 552,327 553,327 553,327 553,327 553,327 553,327 553,327 553,327 553,327 553,328 553,328 553,328 553,328 553,328 554,329 554,329 554,329 554,329 554,329 554,330 554,330 554,330 554,330 554,330 554,330 554,330 554,331 555,331 555,331 555,331 555,331 555,331 555,331 555,332 555,332 555,332 555,332 555,332 555,332 555,332 556,333 556,333 556,333 556,333 556,333 556,333 556,333 556,333 556,333 556,334 556,334 556,334 556,334 557,334 557,334 557,334 557,334 557,334 557,334 557,334 557,335 557,335 557,334 557,334 557,334 557,334 558,335 558,335 558,335 558,335 558,335 558,335 558,335 558,335 558,335 558,335 558,335 558,335 559,335 559,335 559,335 559,335 559,335 559,336 559,336 559,336 559,336 559,336 559,336 559,336 559,336 560,336 560,336 560,336 560,336 560,337 560,337 560,337 560,337 560,337 560,337 560,337 560,337 560,337 561,337 561,337 561,337 561,337 561,337 561,337 561,337 561,337 561,337 561,337 561,337 561,337 561,337 562,337 562,337 562,337 562,337 562,337 562,337 562,337 562,338 562,338 562,338 562,338 562,338 562,338 563,338 563,338 563,338 563,338 563,338 563,338 563,338 563,338 563,338 563,338 563,338 563,338 563,338 564,338 564,338 564,338 564,338 564,337 564,337 564,337 564,337 564,337 564,337 564,337 564,337 564,337 565,337 565,337 565,337 565,337 565,336 565,336 565,336 565,336 565,336 565,336 565,336 565,336 565,337 566,337 566,337 566,337 566,337 566,337 566,337 566,337 566,337 566,336 566,336 566,337 566,337 566,337 567,337 567,338 567,338 567,338 567,338 567,338 567,338 567,338 567,338 567,339 567,339 567,339 567,339 568,339 568,339 568,340 568,340 568,340 568,340 568,340 568,340 568,340 568,340 568,341 568,341 568,341 569,341 569,341 569,341 569,341 569,341 569,342 569,342 569,341 569,341 569,342 569,342 569,342 569,342 570,342 570,342 570,343 570,343 570,343 570,343 570,343 570,343 570,343 570,343 570,343 570,343 570,344 571,344 571,344 571,344 571,344 571,344 571,344 571,345 571,345 571,345 571,345 571,345 571,345 571,345 572,345 572,345 572,345 572,345 572,345 572,345 572,345 572,345 572,345 572,345 572,345 572,345 572,345 573,345 573,345 573,345 573,346 573,346 573,346 573,346 573,346 573,346 573,346 573,346 573,346 573,346 574,346 574,346 574,346 574,346 574,346 574,346 574,346 574,346 574,346 574,346 574,346 574,346 574,346 575,346 575,346 575,346 575,346 575,346 575,347 575,347 575,347 575,347 575,347 575,347 575,347 576,347 576,347 576,347 576,347 576,348 576,348 576,348 576,348 576,348 576,348 576,348 576,348 576,348 577,348 577,349 577,349 577,349 577,349 577,349 577,349 577,349 577,349 577,349 577,349 577,349 577,350 578,350 578,350 578,350 578,350 578,350 578,350 578,350 578,350 578,350 578,350 578,350 578,350 578,351 579,351 579,351 579,351 579,351 579,351 579,351 579,351 579,351 579,351 579,351 579,351 579,352 579,352 580,352 580,352 580,352 580,352 580,352 580,352 580,352 580,352 580,352 580,352 580,352 580,352 580,352 581,353 581,353 581,353 581,353 581,353 581,353 581,353 581,353 581,353 581,353 581,353 581,353 581,353 582,353 582,353 582,353 582,353 582,353 582,353 582,353 582,353 582,353 582,353 582,353 582,353 582,353 583,353 583,353 583,353 583,353 583,354 583,354 583,354 583,354 583,354 583,354 583,354 583,354 583,354 584,354 584,354 584,354 584,354 584,354 584,355 584,355 584,355 584,355 584,355 584,355 584,355 584,355 585,355 585,355 585,355 585,356 585,356 585,356 585,356 585,356 585,356 585,356 585,356 585,357 585,357 586,357 586,357 586,357 586,357 586,357 586,357 586,357 586,357 586,357 586,357 586,357 586,357 586,357 587,357 587,357 587,357 587,357 587,357 587,358 587,358 587,358 587,358 587,358 587,358 587,358 587,358 588,358 588,358 588,358 588,358 588,358 588,358 588,358 588,358 588,358 588,359 588,359 588,359 588,359 589,359 589,359 589,359 589,359 589,359 589,359 589,359 589,359 589,359 589,359 589,359 589,359 589,359 590,359 590,359 590,359 590,359 590,360 590,360 590,360 590,360 590,360 590,360 590,360 590,360 590,360 591,360 591,360 591,360 591,360 591,360 591,360 591,360 591,360 591,360 591,360 591,360 591,361 592,361 592,361 592,361 592,361 592,361 592,361 592,361 592,361 592,361 592,361 592,361 592,361 592,361 593,361 593,361 593,361 593,361 593,361 593,361 593,361 593,361 593,361 593,361 593,361 593,361 593,361 594,361 594,361 594,361 594,361 594,361 594,361 594,361 594,361 594,361 594,362 594,362 594,362 594,361 595,361 595,361 595,361 595,361 595,361 595,361 595,361 595,361 595,361 595,361 595,361 595,361 595,361 596,361 596,361 596,361 596,361 596,361 596,361 596,361 596,361 596,361 596,361 596,361 596,361 596,361 597,361 597,361 597,361 597,361 597,361 597,361 597,362 597,362 597,362 597,361 597,361 597,361 597,361 598,361 598,361 598,361 598,361 598,361 598,362 598,362 598,361 598,361 598,361 598,361 598,361 598,361 599,361 599,361 599,361 599,361 599,361 599,361 599,361 599,361 599,361 599,361 599,361 599,361 599,361 600,361 600,361 600,361 600,361 600,361 600,362 600,362 600,362 600,362 600,362 600,362 600,362 600,362 601,362 601,362 601,362 601,362 601,362 601,362 601,362 601,362 601,362 601,362 601,362 601,362 601,362 602,362 602,362 602,362 602,362 602,362 602,362 602,362 602,362 602,362 602,362 602,362 602,362 602,362 603,362 603,362 603,362 603,362 603,362 603,362 603,362 603,362 603,362 603,362 603,362 603,362 603,362 604,362 604,362 604,362 604,362 604,362 604,362 604,362 604,362 604,362 604,362 604,362 604,362 604,362 605,362 605,362 605,362 605,362 605,362 605,362 605,362 605,362 605,362 605,362 605,362 605,362 605,362 606,362 606,362 606,362 606,362 606,362 606,362 606,362 606,362 606,362 606,362 606,362 606,362 606,362 607,362 607,362 607,362 607,362 607,362 607,362 607,362 607,362 607,362 607,362 607,362 607,362 608,362 608,362 608,362 608,362 608,362 608,362 608,362 608,362 608,362 608,361 608,361 608,361 608,362 609,362 609,362 609,362 609,362 609,362 609,362 609,362 609,362 609,362 609,362 609,362 609,361 609,361 610,361 610,361 610,361 610,361 610,361 610,361 610,361 610,361 610,361 610,361 610,361 610,361 610,361 611,361 611,362 611,362 611,362 611,362 611,362 611,362 611,362 611,362 611,362 611,362 611,362 611,362 612,362 612,362 612,362 612,362 612,362 612,362 612,362 612,361 612,361 612,362 612,362 612,362 612,362 613,362 613,362 613,362 613,362 613,362 613,362 613,362 613,362 613,362 613,362 613,362 613,362 613,362 614,362 614,362 614,362 614,362 614,362 614,362 614,362 614,361 614,362 614,362 614,362 614,362 614,362 615,362 615,362 615,362 615,362 615,362 615,362 615,362 615,362 615,362 615,362 615,362 615,362 615,362 616,362 616,362 616,362 616,362 616,362 616,362 616,362 616,362 616,362 616,362 616,362 616,362 616,362 617,362 617,362 617,362 617,362 617,362 617,362 617,362 617,363 617,363 617,363 617,363 617,363 617,363 618,363 618,363 618,362 618,362 618,362 618,362 618,362 618,362 618,362 618,362 618,362 618,362 618,362 619,362 619,362 619,363 619,363 619,363 619,364 619,364 619,365 619,365 619,366 619,366 619,366 619,365 620,365 620,365 620,365 620,364 620,363 620,362 620,362 620,362 620,362 620,362 620,362 620,362 620,362 621,362 621,362 621,362 621,362 621,362 621,362 621,362 621,362 621,362 621,362 621,362 621,362 621,362 622,362 622,362 622,362 622,362 622,362 622,362 622,362 622,362 622,362 622,362 622,362 622,362 622,362 623,362 623,362 623,362 623,362 623,362 623,363 623,363 623,363 623,363 623,363 623,363 623,363 623,363 624,363 624,363 624,363 624,363 624,363 624,363 624,363 624,363 624,363 624,363 624,363 624,363 625,363 625,363 625,363 625,363 625,364 625,364 625,364 625,364 625,364 625,364 625,364 625,364 625,363 626,363 626,363 626,363 626,363 626,363 626,363 626,363 626,363 626,364 626,364 626,364 626,364 626,364 627,364 627,364 627,365 627,364 627,365 627,365 627,365 627,365 627,366 627,366 627,367 627,367 627,367 628,366 628,366 628,366 628,366 628,366 628,365 628,365 628,365 628,365 628,365 628,365 628,365 628,365 629,365 629,365 629,365 629,365 629,365 629,365 629,364 629,364 629,364 629,364 629,364 629,364 629,364 630,364 630,364 630,364 630,363 630,363 630,363 630,363 630,363 630,363 630,363 630,363 630,363 630,363 631,363 631,363 631,363 631,363 631,363 631,363 631,363 631,363 631,363 631,363 631,363 631,363 631,363 632,363 632,363 632,363 632,363 632,363 632,363 632,363 632,363 632,363 632,363 632,363 632,363 632,363 633,363 633,363 633,363 633,363 633,363 633,363 633,363 633,363 633,363 633,363 633,363 633,363 633,364 634,364 634,364 634,364 634,364 634,364 634,364 634,364 634,364 634,364 634,364 634,364 634,364 634,364 635,364 635,364 635,364 635,364 635,364 635,364 635,364 635,364 635,364 635,364 635,364 635,364 635,364 636,364 636,364 636,364 636,364 636,364 636,364 636,364 636,364 636,364 636,364 636,364 636,364 636,364 637,364 637,364 637,364 637,364 637,364 637,364 637,364 637,364 637,364 637,364 637,364 637,364 637,364 638,364 638,364 638,364 638,364 638,364 638,364 638,364 638,364 638,364 638,363 638,363 638,363 638,363 639,363 639,363 639,363 639,363 639,363 639,363 639,363 639,363 639,363 639,363 639,363 639,363 639,363 640,362 640,362 640,362 640,362 640,362 640,362 640,362 640,362 640,361 640,361 640,361 640,361 641,361 641,360 641,360 641,360 641,360 641,360 641,360 641,360 641,360 641,360 641,360 641,360 641,360 642,360 642,360 642,360 642,361 642,361 642,361 642,361 642,361 642,361 642,361 642,361 642,361 642,361 643,361 643,361 643,361 643,361 643,361 643,361 643,361 643,361 643,361 643,361 643,362 643,362 643,362 644,362 644,362 644,362 644,362 644,362 644,362 644,362 644,362 644,361 644,361 644,361 644,361 644,361 645,361 645,361 645,361 645,361 645,361 645,361 645,361 645,361 645,361 645,361 645,361 645,361 645,361 646,361 646,360 646,360 646,360 646,360 646,360 646,360 646,360 646,360 646,360 646,360 646,360 646,360 647,360 647,360 647,360 647,360 647,360 647,360 647,360 647,360 647,360 647,360 647,360 647,359 647,359 648,359 648,359 648,359 648,359 648,359 648,360 648,360 648,360 648,360 648,360 648,360 648,360 648,360 649,360 649,360 649,360 649,360 649,360 649,360 649,360 649,360 649,360 649,360 649,360 649,361 649,361 650,361 650,361 650,361 650,361 650,361 650,361 650,361 650,361 650,362 650,362 650,362 650,362 650,362 651,362 651,362 651,362 651,362 651,362 651,362 651,362 651,362 651,362 651,362 651,362 651,362 651,362 652,362 652,362 652,362 652,363 652,363 652,363 652,363 652,363 652,363 652,363 652,363 652,362 652,362 653,362 653,362 653,362 653,362 653,362 653,362 653,362 653,362 653,362 653,362 653,362 653,363 653,363 654,363 654,363 654,363 654,363 654,363 654,363 654,363 654,364 654,364 654,364 654,364 654,364 654,364 655,364 655,364 655,365 655,365 655,365 655,365 655,365 655,365 655,365 655,365 655,365 655,365 655,365 656,365 656,365 656,365 656,365 656,365 656,365 656,365 656,365 656,365 656,365 656,365 656,366 657,366 657,366 657,366 657,366 657,366 657,366 657,366 657,366 657,366 657,366 657,366 657,366 657,366 658,366 658,366 658,366 658,366 658,366 658,366 658,365 658,365 658,365 658,365 658,365 658,365 658,365 659,365 659,365 659,365 659,365 659,365 659,365 659,365 659,365 659,365 659,365 659,365 659,365 659,365 660,366 660,366 660,366 660,366 660,366 660,366 660,366 660,366 660,366 660,366 660,366 660,366 660,366 661,366 661,366 661,366 661,366 661,366 661,366 661,366 661,366 661,366 661,366 661,366 661,366 661,366 662,365 662,365 662,365 662,365 662,365 662,365 662,365 662,365 662,365 662,365 662,365 662,365 662,365 663,365 663,365 663,365 663,365 663,365 663,365 663,365 663,365 663,365 663,365 663,365 663,365 663,365 664,365 664,365 664,365 664,365 664,365 664,365 664,365 664,365 664,365 664,365 664,365 664,366 664,366 665,366 665,365 665,365 665,365 665,365 665,365 665,365 665,365 665,365 665,365 665,365 665,365 665,365 666,365 666,365 666,365 666,365 666,365 666,365 666,365 666,365 666,365 666,365 666,365 666,365 666,365 667,365 667,365 667,364 667,364 667,364 667,364 667,364 667,364 667,364 667,364 667,364 667,364 667,363 668,363 668,363 668,363 668,364 668,364 668,364 668,364 668,364 668,364 668,364 668,364 668,364 668,364 669,364 669,364 669,364 669,364 669,364 669,364 669,364 669,364 669,363 669,363 669,363 669,363 669,363 670,363 670,363 670,363 670,363 670,363 670,363 670,363 670,363 670,363 670,363 670,363 670,363 670,363 671,363 671,363 671,363 671,363 671,363 671,363 671,363 671,363 671,363 671,363 671,363 671,363 671,363 672,363 672,363 672,363 672,363 672,363 672,363 672,363 672,363 672,363 672,363 672,363 672,363 672,363 673,363 673,363 673,363 673,363 673,363 673,363 673,363 673,363 673,363 673,363 673,363 673,363 674,363 674,363 674,363 674,363 674,363 674,363 674,363 674,363 674,363 674,363 674,363 674,363 674,363 675,363 675,364 675,364 675,364 675,364 675,364 675,364 675,364 675,364 675,364 675,364 675,364 675,364 676,365 676,365 676,365 676,365 676,365 676,365 676,365 676,365 676,365 676,365 676,365 676,365 676,365 677,365 677,364 677,364 677,364 677,364 677,364 677,364 677,364 677,364 677,364 677,364 677,364 677,364 678,364 678,364 678,364 678,364 678,364 678,364 678,364 678,364 678,364 678,364 678,365 678,365 678,365 679,365 679,365 679,365 679,365 679,365 679,365 679,365 679,365 679,365 679,366 679,366 679,366 679,366 680,366 680,366 680,366 680,366 680,366 680,366 680,366 680,367 680,367 680,367 680,367 680,367 680,367 681,367 681,367 681,367 681,367 681,367 681,367 681,367 681,367 681,367 681,367 681,367 681,367 681,367 682,367 682,367 682,367 682,367 682,367 682,367 682,367 682,367 682,367 682,366 682,366 682,366 682,366 683,366 683,366 683,366 683,366 683,366 683,366 683,366 683,366 683,366 683,366 683,366 683,366 683,366 684,366 684,366 684,366 684,366 684,366 684,366 684,365 684,365 684,365 684,365 684,365 684,365 684,365 685,365 685,365 685,365 685,365 685,364 685,364 685,364 685,364 685,364 685,364 685,364 685,364 685,364 686,364 686,364 686,364 686,364 686,364 686,364 686,364 686,364 686,363 686,363 686,363 686,363 686,363 687,363 687,363 687,363 687,363 687,363 687,363 687,363 687,363 687,363 687,363 687,363 687,363 687,363 688,363 688,363 688,363 688,363 688,362 688,362 688,362 688,362 688,362 688,362 688,362 688,362 688,362 689,362 689,362 689,362 689,362 689,362 689,362 689,362 689,362 689,362 689,361 689,361 689,361 690,361 690,361 690,361 690,361 690,361 690,361 690,361 690,361 690,361 690,361 690,361 690,361 690,361 691,361 691,361 691,361 691,361 691,361 691,361 691,361 691,361 691,361 691,361 691,361 691,361 691,361 692,361 692,361 692,361 692,361 692,361 692,361 692,361 692,361 692,361 692,362 692,362 692,362 692,362 693,362 693,362 693,362 693,362 693,362 693,362 693,362 693,362 693,362 693,362 693,362 693,362 693,362 694,362 694,362 694,362 694,362 694,362 694,362 694,362 694,362 694,362 694,362 694,362 694,362 694,362 695,362 695,362 695,362 695,362 695,362 695,362 695,362 695,362 695,362 695,362 695,362 695,362 695,362 696,362 696,362 696,362 696,362 696,362 696,362 696,362 696,362 696,362 696,362 696,362 696,362 696,363 697,363 697,363 697,363 697,363 697,363 697,363 697,363 697,363 697,363 697,363 697,364 697,364 697,364 698,364 698,364 698,364 698,364 698,364 698,364 698,364 698,364 698,364 698,364 698,364 698,364 698,364 699,364 699,364 699,364 699,364 699,364 699,364 699,364 699,364 699,364 699,364 699,365 699,365 699,365 700,365 700,365 700,365 700,365 700,365 700,365 700,365 700,365 700,365 700,365 700,365 700,365 700,365 701,365 701,365 701,365 701,365 701,365 701,365 701,365 701,365 701,365 701,365 701,365 701,365 701,365 702,365 702,365 702,365 702,365 702,365 702,365 702,365 702,365 702,366 702,366 702,366 702,366 702,366 703,366 703,366 703,366 703,366 703,366 703,366 703,366 703,366 703,366 703,366 703,366 703,366 703,366 704,366 704,366 704,365 704,365 704,365 704,365 704,365 704,365 704,365 704,365 704,365 704,365 704,365 705,365 705,365 705,365 705,365 705,365 705,365 705,365 705,365 705,365 705,365 705,365 705,365 706,365 706,365 706,365 706,365 706,365 706,365 706,365 706,365 706,365 706,365 706,365 706,365 706,365 707,365 707,365 707,365 707,365 707,365 707,364 707,364 707,364 707,364 707,364 707,364 707,364 707,364 708,364 708,364 708,364 708,364 708,363 708,363 708,363 708,363 708,363 708,363 708,363 708,363 708,363 709,363 709,363 709,363 709,363 709,363 709,362 709,362 709,362 709,362 709,362 709,362 709,362 709,362 710,362 710,362 710,362 710,362 710,362 710,362 710,361 710,361 710,361 710,361 710,361 710,361 710,361 711,361 711,361 711,361 711,361 711,361 711,361 711,360 711,360 711,360 711,360 711,360 711,360 711,360 712,360 712,360 712,360 712,360 712,360 712,360 712,360 712,360 712,359 712,359 712,359 712,359 712,359 713,359 713,359 713,359 713,359 713,359 713,359 713,359 713,359 713,359 713,359 713,359 713,358 713,358 714,358 714,358 714,358 714,358 714,358 714,358 714,358 714,358 714,357 714,357 714,357 714,357 714,357 715,357 715,357 715,357 715,357 715,356 715,356 715,356 715,356 715,356 715,356 715,356 715,356 715,356 716,356 716,356 716,356 716,356 716,356 716,356 716,356 716,355 716,355 716,355 716,355 716,355 716,355 717,355 717,355 717,355 717,355 717,355 717,355 717,355 717,355 717,355 717,355 717,355 717,355 717,355 718,355 718,355 718,355 718,355 718,355 718,355 718,355 718,355 718,355 718,355 718,355 718,355 718,355 719,355 719,355 719,355 719,355 719,355 719,355 719,355 719,355 719,355 719,355 719,355 719,355 719,356 720,356 720,356 720,356 720,356 720,356 720,356 720,356 720,356 720,356 720,356 720,356 720,356 720,356 721,356 721,356 721,356 721,356 721,356 721,356 721,356 721,356 721,356 721,357 721,357 721,357 721,357 722,357 722,357 722,357 722,357 722,357 722,357 722,358 722,358 722,358 722,358 722,358 722,358 723,358 723,358 723,358 723,358 723,358 723,359 723,359 723,359 723,359 723,359 723,359 723,359 723,359 724,359 724,359 724,359 724,359 724,360 724,360 724,360 724,360 724,360 724,360 724,360 724,360 724,360 725,360 725,360 725,360 725,360 725,360 725,360 725,360 725,360 725,360 725,360 725,360 725,360 725,360 726,360 726,360 726,360 726,359 726,359 726,359 726,359 726,359 726,359 726,359 726,359 726,359 726,359 727,359 727,359 727,359 727,359 727,359 727,359 727,359 727,359 727,359 727,359 727,358 727,358 727,358 728,358 728,358 728,358 728,358 728,358 728,358 728,358 728,358 728,358 728,358 728,358 728,357 728,357 729,357 729,357 729,357 729,357 729,357 729,357 729,357 729,357 729,356 729,356 729,356 729,356 729,356 730,356 730,356 730,356 730,356 730,356 730,356 730,356 730,356 730,356 730,355 730,355 730,355 730,355 731,355 731,355 731,355 731,355 731,355 731,355 731,356 731,356 731,356 731,356 731,356 731,356 731,356 732,356 732,356 732,356 732,356 732,356 732,357 732,357 732,357 732,357 732,357 732,357 732,358 732,358 733,358 733,358 733,358 733,358 733,358 733,358 733,358 733,358 733,358 733,359 733,359 733,359 733,359 734,359 734,359 734,359 734,359 734,359 734,359 734,359 734,360 734,360 734,360 734,360 734,360 734,360 735,360 735,360 735,360 735,360 735,360 735,360 735,360 735,360 735,361 735,361 735,361 735,361 735,361 736,361 736,361 736,361 736,361 736,361 736,362 736,362 736,362 736,362 736,362 736,362 " vector-effect="non-scaling-stroke"></polyline>
</g></svg>