<?xml version="1.0" encoding="UTF-8" standalone="no"?><svg width="282.222mm" height="141.111mm" xmlns="http://www.w3.org/2000/svg" xmlns:xlink="http://www.w3.org/1999/xlink"  version="1.2" baseProfile="tiny"><g fill="none" stroke="#ff0000" stroke-linecap="round" stroke-linejoin="round" stroke-opacity="1" stroke-width="1.5" transform="matrix(1,0,0,1,0,0)">
<polyline fill="none" points="27,244 27,244 27,243 27,243 27,242 27,242 27,241 27,241 28,241 28,240 28,240 28,240 28,239 28,239 28,239 28,238 28,238 28,238 28,237 28,237 28,237 29,237 29,237 29,236 29,236 29,236 29,236 29,236 29,236 29,236 29,236 29,236 29,236 29,236 30,236 30,236 30,237 30,237 30,237 30,237 30,238 30,238 30,239 30,239 30,240 30,241 30,241 31,242 31,242 31,243 31,244 31,245 31,246 31,246 31,247 31,249 31,250 31,251 31,251 31,252 32,253 32,254 32,255 32,256 32,257 32,257 32,258 32,259 32,260 32,261 32,261 32,262 32,262 33,262 33,262 33,261 33,261 33,260 33,259 33,258 33,257 33,255 33,254 33,253 33,251 33,250 34,248 34,247 34,246 34,246 34,245 34,244 34,243 34,242 34,241 34,240 34,239 34,238 34,237 35,237 35,236 35,235 35,234 35,234 35,234 35,235 35,235 35,235 35,234 35,234 35,234 36,234 36,234 36,234 36,234 36,234 36,234 36,234 36,234 36,233 36,233 36,233 36,233 36,233 37,233 37,233 37,233 37,233 37,233 37,233 37,233 37,233 37,233 37,233 37,233 37,234 37,234 38,234 38,234 38,234 38,234 38,234 38,234 38,234 38,235 38,236 38,238 38,239 38,241 38,242 39,243 39,243 39,244 39,245 39,245 39,246 39,246 39,246 39,246 39,245 39,244 39,243 39,242 40,241 40,240 40,239 40,238 40,237 40,236 40,235 40,234 40,233 40,232 40,231 40,230 40,229 41,227 41,226 41,225 41,224 41,223 41,222 41,222 41,221 41,220 41,220 41,220 41,220 41,220 42,220 42,220 42,220 42,220 42,220 42,220 42,220 42,220 42,220 42,220 42,220 42,220 42,220 43,220 43,220 43,220 43,220 43,220 43,220 43,220 43,220 43,220 43,220 43,219 43,219 43,219 44,219 44,219 44,219 44,219 44,219 44,220 44,220 44,220 44,220 44,220 44,221 44,221 44,221 45,222 45,222 45,223 45,223 45,224 45,225 45,226 45,226 45,227 45,227 45,229 45,229 45,230 46,230 46,230 46,231 46,230 46,230 46,230 46,230 46,230 46,230 46,229 46,229 46,228 46,228 47,227 47,226 47,226 47,225 47,224 47,223 47,222 47,220 47,219 47,218 47,217 47,217 47,217 48,217 48,217 48,217 48,216 48,216 48,216 48,215 48,215 48,214 48,214 48,214 48,213 48,213 49,212 49,212 49,211 49,211 49,210 49,210 49,209 49,208 49,208 49,207 49,207 49,206 49,205 50,205 50,204 50,203 50,203 50,202 50,202 50,202 50,202 50,201 50,201 50,201 50,201 50,200 51,200 51,200 51,200 51,200 51,199 51,199 51,199 51,200 51,200 51,200 51,200 51,200 52,201 52,201 52,201 52,201 52,200 52,200 52,200 52,200 52,200 52,201 52,201 52,203 52,203 53,203 53,203 53,204 53,204 53,205 53,205 53,205 53,206 53,206 53,207 53,207 53,208 53,208 54,208 54,209 54,208 54,208 54,207 54,206 54,205 54,204 54,203 54,202 54,202 54,201 54,200 55,200 55,199 55,199 55,199 55,198 55,198 55,197 55,196 55,196 55,195 55,194 55,194 55,194 56,193 56,193 56,192 56,192 56,191 56,190 56,189 56,189 56,188 56,187 56,187 56,186 56,185 57,184 57,184 57,183 57,182 57,182 57,181 57,180 57,180 57,179 57,179 57,178 57,178 57,177 58,177 58,177 58,177 58,176 58,176 58,176 58,176 58,176 58,176 58,176 58,176 58,175 58,175 59,175 59,175 59,175 59,175 59,175 59,175 59,175 59,176 59,176 59,176 59,176 59,176 59,176 60,176 60,176 60,176 60,177 60,177 60,177 60,177 60,177 60,177 60,177 60,177 60,177 60,177 61,177 61,177 61,177 61,177 61,177 61,177 61,177 61,177 61,177 61,177 61,177 61,178 61,178 62,178 62,178 62,178 62,178 62,178 62,179 62,179 62,179 62,179 62,179 62,179 62,179 62,179 63,180 63,180 63,180 63,180 63,180 63,180 63,180 63,180 63,180 63,180 63,180 63,180 63,180 64,180 64,180 64,180 64,180 64,180 64,180 64,180 64,180 64,180 64,180 64,180 64,181 64,181 65,181 65,181 65,181 65,182 65,182 65,182 65,182 65,183 65,183 65,183 65,183 65,183 65,184 66,184 66,184 66,185 66,185 66,185 66,186 66,186 66,186 66,187 66,187 66,188 66,188 66,188 67,189 67,189 67,189 67,190 67,190 67,190 67,191 67,191 67,192 67,192 67,192 67,193 68,193 68,193 68,193 68,194 68,194 68,194 68,194 68,195 68,195 68,195 68,195 68,196 68,196 69,196 69,197 69,197 69,197 69,198 69,198 69,198 69,199 69,199 69,199 69,199 69,200 69,200 70,200 70,199 70,199 70,199 70,199 70,199 70,199 70,198 70,198 70,197 70,198 70,198 70,198 71,197 71,197 71,197 71,197 71,196 71,196 71,196 71,196 71,196 71,195 71,195 71,195 71,194 72,194 72,193 72,193 72,192 72,192 72,192 72,191 72,191 72,191 72,191 72,190 72,190 72,189 73,189 73,188 73,188 73,188 73,187 73,187 73,187 73,187 73,187 73,187 73,187 73,188 73,188 74,188 74,188 74,189 74,189 74,189 74,189 74,189 74,189 74,189 74,190 74,190 74,190 74,190 75,190 75,190 75,191 75,191 75,191 75,191 75,192 75,192 75,192 75,192 75,192 75,193 75,193 76,193 76,194 76,194 76,195 76,195 76,195 76,195 76,196 76,196 76,196 76,197 76,197 76,197 77,197 77,197 77,197 77,198 77,198 77,198 77,199 77,200 77,201 77,201 77,201 77,202 77,202 78,202 78,202 78,202 78,202 78,203 78,203 78,203 78,203 78,203 78,203 78,204 78,204 78,204 79,204 79,204 79,205 79,205 79,205 79,205 79,206 79,206 79,206 79,206 79,206 79,206 79,206 80,206 80,207 80,207 80,207 80,207 80,207 80,207 80,207 80,208 80,208 80,208 80,208 80,208 81,208 81,208 81,208 81,208 81,208 81,208 81,208 81,209 81,209 81,209 81,209 81,209 81,209 82,209 82,210 82,210 82,210 82,210 82,210 82,210 82,210 82,210 82,210 82,210 82,211 82,211 83,211 83,211 83,211 83,211 83,211 83,211 83,211 83,212 83,212 83,212 83,212 83,212 84,212 84,212 84,213 84,213 84,213 84,213 84,213 84,213 84,213 84,213 84,213 84,213 84,213 85,213 85,213 85,213 85,213 85,213 85,213 85,213 85,213 85,213 85,213 85,212 85,212 85,212 86,212 86,212 86,212 86,212 86,212 86,212 86,212 86,212 86,212 86,212 86,212 86,211 86,211 87,211 87,211 87,211 87,211 87,211 87,211 87,211 87,211 87,211 87,211 87,211 87,211 87,211 88,211 88,211 88,211 88,211 88,211 88,211 88,211 88,211 88,211 88,212 88,212 88,212 88,212 89,211 89,211 89,211 89,211 89,211 89,210 89,210 89,210 89,210 89,210 89,209 89,209 89,209 90,209 90,209 90,208 90,208 90,208 90,208 90,208 90,207 90,207 90,207 90,206 90,206 90,206 91,206 91,205 91,205 91,205 91,204 91,204 91,204 91,204 91,204 91,204 91,205 91,205 91,205 92,205 92,205 92,206 92,206 92,206 92,207 92,207 92,207 92,208 92,208 92,208 92,208 92,208 93,208 93,208 93,208 93,208 93,208 93,208 93,209 93,209 93,208 93,208 93,208 93,208 93,208 94,208 94,208 94,208 94,208 94,208 94,208 94,208 94,208 94,208 94,207 94,207 94,207 94,207 95,207 95,207 95,207 95,206 95,206 95,206 95,206 95,206 95,206 95,206 95,206 95,206 95,206 96,206 96,207 96,207 96,207 96,207 96,207 96,207 96,207 96,208 96,208 96,208 96,208 96,208 97,208 97,208 97,209 97,209 97,209 97,209 97,209 97,209 97,209 97,209 97,209 97,209 97,209 98,209 98,210 98,210 98,210 98,210 98,210 98,210 98,210 98,210 98,210 98,210 98,210 98,210 99,210 99,211 99,211 99,211 99,211 99,211 99,211 99,211 99,211 99,211 99,211 99,212 100,212 100,212 100,212 100,212 100,212 100,212 100,212 100,212 100,212 100,212 100,212 100,212 100,212 101,211 101,211 101,211 101,211 101,211 101,211 101,211 101,211 101,211 101,211 101,210 101,210 101,210 102,210 102,210 102,210 102,210 102,210 102,210 102,210 102,210 102,210 102,210 102,211 102,211 102,211 103,211 103,211 103,211 103,211 103,211 103,211 103,212 103,212 103,213 103,213 103,214 103,214 103,215 104,215 104,215 104,215 104,215 104,215 104,215 104,215 104,215 104,215 104,215 104,215 104,215 104,215 105,215 105,215 105,215 105,215 105,215 105,215 105,215 105,215 105,215 105,215 105,215 105,215 105,215 106,215 106,215 106,216 106,216 106,217 106,218 106,219 106,219 106,220 106,220 106,221 106,221 106,222 107,222 107,223 107,223 107,223 107,224 107,224 107,226 107,228 107,230 107,231 107,231 107,231 107,230 108,230 108,230 108,230 108,229 108,229 108,229 108,229 108,229 108,229 108,229 108,229 108,229 108,229 109,229 109,229 109,229 109,229 109,229 109,229 109,229 109,229 109,229 109,229 109,229 109,229 109,229 110,229 110,229 110,229 110,229 110,229 110,230 110,230 110,230 110,230 110,230 110,230 110,230 110,230 111,230 111,230 111,230 111,230 111,230 111,230 111,230 111,230 111,230 111,230 111,230 111,230 111,230 112,230 112,230 112,230 112,230 112,230 112,230 112,230 112,230 112,230 112,230 112,230 112,230 112,230 113,230 113,230 113,230 113,230 113,230 113,230 113,230 113,230 113,230 113,230 113,230 113,230 113,230 114,230 114,230 114,230 114,230 114,231 114,231 114,231 114,231 114,231 114,231 114,231 114,231 114,231 115,231 115,231 115,231 115,231 115,231 115,231 115,231 115,231 115,231 115,231 115,231 115,231 116,231 116,231 116,231 116,230 116,230 116,230 116,230 116,230 116,230 116,229 116,229 116,229 116,229 117,229 117,229 117,229 117,229 117,229 117,229 117,229 117,230 117,230 117,230 117,231 117,231 117,231 118,231 118,231 118,231 118,231 118,231 118,230 118,230 118,229 118,229 118,229 118,229 118,229 118,229 119,229 119,229 119,229 119,229 119,229 119,229 119,229 119,229 119,229 119,229 119,229 119,229 119,229 120,228 120,228 120,228 120,227 120,227 120,227 120,226 120,226 120,226 120,226 120,225 120,225 120,225 121,225 121,225 121,225 121,225 121,226 121,226 121,226 121,227 121,227 121,228 121,228 121,229 121,229 122,229 122,230 122,230 122,231 122,231 122,231 122,231 122,232 122,232 122,232 122,232 122,232 122,232 123,232 123,232 123,232 123,232 123,232 123,232 123,231 123,231 123,231 123,231 123,231 123,231 123,231 124,231 124,231 124,230 124,230 124,230 124,230 124,230 124,230 124,229 124,229 124,229 124,229 124,229 125,229 125,229 125,229 125,229 125,229 125,229 125,228 125,228 125,228 125,228 125,228 125,228 125,228 126,228 126,227 126,227 126,227 126,227 126,227 126,227 126,227 126,227 126,226 126,226 126,226 126,227 127,228 127,228 127,229 127,229 127,230 127,230 127,231 127,231 127,232 127,232 127,233 127,234 127,234 128,235 128,235 128,235 128,235 128,235 128,235 128,235 128,236 128,236 128,236 128,236 128,236 128,236 129,236 129,236 129,236 129,236 129,235 129,235 129,235 129,235 129,235 129,235 129,235 129,235 129,235 130,235 130,235 130,235 130,235 130,235 130,235 130,235 130,235 130,235 130,235 130,235 130,235 130,235 131,235 131,234 131,234 131,234 131,234 131,234 131,234 131,234 131,234 131,234 131,234 131,234 132,234 132,234 132,234 132,234 132,234 132,234 132,234 132,234 132,234 132,233 132,233 132,233 132,233 133,233 133,233 133,233 133,233 133,233 133,233 133,233 133,233 133,232 133,232 133,233 133,233 133,233 134,233 134,233 134,233 134,233 134,233 134,233 134,233 134,233 134,233 134,233 134,233 134,233 134,233 135,233 135,233 135,233 135,233 135,233 135,233 135,233 135,233 135,233 135,233 135,233 135,233 135,233 136,233 136,233 136,233 136,233 136,233 136,233 136,233 136,233 136,233 136,232 136,232 136,232 136,232 137,232 137,232 137,232 137,232 137,232 137,232 137,232 137,232 137,232 137,232 137,232 137,232 137,232 138,232 138,232 138,232 138,232 138,232 138,232 138,231 138,231 138,231 138,231 138,231 138,231 138,231 139,231 139,231 139,231 139,231 139,231 139,231 139,231 139,231 139,231 139,231 139,230 139,230 139,230 140,230 140,230 140,230 140,229 140,229 140,229 140,229 140,229 140,229 140,229 140,229 140,229 140,229 141,229 141,229 141,229 141,228 141,228 141,228 141,228 141,228 141,228 141,228 141,228 141,228 141,228 142,228 142,228 142,228 142,228 142,228 142,228 142,228 142,228 142,228 142,228 142,228 142,228 142,228 143,228 143,228 143,228 143,228 143,228 143,228 143,228 143,228 143,228 143,228 143,227 143,227 143,227 144,227 144,227 144,227 144,227 144,227 144,227 144,227 144,227 144,227 144,227 144,227 144,227 144,226 145,226 145,226 145,226 145,226 145,226 145,225 145,225 145,225 145,225 145,225 145,225 145,224 145,224 146,224 146,224 146,224 146,223 146,223 146,223 146,223 146,222 146,222 146,222 146,221 146,221 146,221 147,220 147,220 147,220 147,219 147,219 147,219 147,219 147,218 147,218 147,218 147,218 147,217 148,217 148,217 148,216 148,216 148,216 148,216 148,216 148,215 148,215 148,215 148,214 148,214 148,214 149,213 149,213 149,213 149,212 149,211 149,211 149,210 149,210 149,210 149,210 149,210 149,210 149,210 150,210 150,210 150,209 150,209 150,209 150,208 150,208 150,208 150,207 150,207 150,207 150,206 150,206 151,206 151,205 151,205 151,204 151,204 151,204 151,203 151,203 151,203 151,203 151,203 151,203 151,203 152,202 152,202 152,202 152,202 152,202 152,201 152,201 152,201 152,200 152,200 152,200 152,199 152,199 153,199 153,198 153,198 153,198 153,198 153,198 153,198 153,199 153,199 153,200 153,200 153,201 153,201 154,202 154,202 154,203 154,204 154,204 154,205 154,205 154,206 154,207 154,207 154,207 154,207 154,207 155,207 155,207 155,206 155,206 155,205 155,205 155,204 155,204 155,204 155,204 155,204 155,203 155,203 156,203 156,203 156,203 156,203 156,203 156,204 156,204 156,204 156,204 156,204 156,204 156,204 156,204 157,204 157,204 157,204 157,205 157,205 157,206 157,206 157,207 157,207 157,208 157,209 157,209 157,209 158,210 158,210 158,211 158,211 158,212 158,212 158,213 158,213 158,214 158,214 158,215 158,215 158,215 159,215 159,215 159,214 159,214 159,214 159,214 159,213 159,213 159,213 159,213 159,213 159,212 159,212 160,212 160,212 160,212 160,212 160,211 160,211 160,211 160,211 160,211 160,211 160,211 160,211 160,211 161,211 161,211 161,210 161,210 161,210 161,210 161,210 161,210 161,210 161,210 161,209 161,209 161,209 162,209 162,209 162,209 162,208 162,208 162,208 162,207 162,207 162,207 162,207 162,206 162,206 162,206 163,206 163,206 163,206 163,206 163,206 163,205 163,205 163,205 163,205 163,205 163,204 163,204 164,204 164,204 164,204 164,204 164,204 164,204 164,204 164,204 164,204 164,204 164,204 164,204 164,204 165,204 165,204 165,204 165,204 165,204 165,204 165,204 165,204 165,204 165,204 165,204 165,204 165,204 166,204 166,203 166,203 166,203 166,203 166,203 166,202 166,202 166,202 166,202 166,202 166,201 166,201 167,201 167,201 167,201 167,201 167,201 167,201 167,201 167,201 167,200 167,200 167,200 167,199 167,199 168,199 168,198 168,198 168,198 168,197 168,197 168,196 168,195 168,195 168,194 168,193 168,193 168,192 169,192 169,191 169,191 169,190 169,190 169,189 169,189 169,189 169,188 169,188 169,187 169,187 169,187 170,186 170,186 170,186 170,186 170,185 170,185 170,185 170,185 170,185 170,185 170,185 170,184 170,184 171,184 171,184 171,184 171,184 171,184 171,184 171,184 171,184 171,184 171,184 171,184 171,184 171,184 172,184 172,184 172,184 172,184 172,185 172,185 172,185 172,185 172,185 172,185 172,185 172,185 172,185 173,185 173,185 173,185 173,185 173,185 173,185 173,185 173,185 173,185 173,185 173,185 173,185 173,185 174,185 174,185 174,185 174,185 174,185 174,185 174,185 174,185 174,185 174,185 174,185 174,185 174,185 175,185 175,185 175,185 175,185 175,185 175,185 175,185 175,185 175,185 175,185 175,185 175,185 175,185 176,185 176,185 176,184 176,184 176,184 176,183 176,182 176,181 176,181 176,181 176,181 176,181 176,181 177,181 177,181 177,181 177,181 177,181 177,180 177,180 177,180 177,180 177,180 177,180 177,180 177,180 178,179 178,179 178,179 178,179 178,179 178,179 178,179 178,179 178,179 178,179 178,179 178,179 178,179 179,179 179,179 179,179 179,179 179,179 179,179 179,179 179,179 179,179 179,179 179,179 179,179 180,179 180,179 180,179 180,179 180,179 180,179 180,179 180,179 180,179 180,180 180,180 180,180 180,180 181,180 181,180 181,180 181,181 181,181 181,181 181,181 181,181 181,181 181,181 181,181 181,181 181,182 182,182 182,182 182,182 182,182 182,183 182,183 182,183 182,184 182,184 182,185 182,186 182,186 182,187 183,187 183,187 183,188 183,188 183,188 183,188 183,189 183,189 183,189 183,190 183,190 183,190 183,190 184,190 184,190 184,190 184,190 184,190 184,190 184,190 184,190 184,190 184,190 184,191 184,191 184,191 185,191 185,192 185,192 185,192 185,192 185,192 185,192 185,193 185,193 185,193 185,193 185,192 185,192 186,193 186,193 186,193 186,193 186,193 186,193 186,193 186,194 186,194 186,195 186,195 186,195 186,195 187,195 187,196 187,196 187,197 187,197 187,198 187,198 187,198 187,198 187,198 187,198 187,198 187,198 188,198 188,198 188,198 188,198 188,198 188,197 188,197 188,197 188,197 188,197 188,197 188,197 188,197 189,197 189,197 189,196 189,196 189,196 189,196 189,197 189,197 189,197 189,197 189,196 189,196 189,196 190,196 190,196 190,196 190,196 190,195 190,195 190,195 190,195 190,194 190,194 190,193 190,193 190,193 191,192 191,192 191,192 191,191 191,191 191,190 191,190 191,190 191,189 191,189 191,189 191,189 191,189 192,188 192,188 192,188 192,188 192,188 192,188 192,188 192,188 192,188 192,188 192,188 192,188 192,188 193,188 193,188 193,187 193,187 193,187 193,187 193,187 193,187 193,187 193,187 193,187 193,187 193,187 194,188 194,188 194,188 194,188 194,189 194,189 194,189 194,189 194,190 194,190 194,190 194,191 194,191 195,191 195,192 195,192 195,192 195,192 195,192 195,193 195,193 195,193 195,194 195,194 195,194 196,195 196,195 196,195 196,195 196,194 196,194 196,195 196,195 196,195 196,195 196,195 196,195 196,195 197,195 197,196 197,196 197,196 197,196 197,196 197,196 197,196 197,196 197,196 197,197 197,197 197,197 198,197 198,198 198,198 198,199 198,199 198,200 198,200 198,200 198,201 198,201 198,201 198,201 198,202 199,202 199,202 199,202 199,202 199,203 199,203 199,203 199,204 199,205 199,206 199,206 199,207 199,208 200,208 200,209 200,209 200,210 200,210 200,211 200,212 200,213 200,214 200,215 200,216 200,216 200,217 201,217 201,218 201,218 201,218 201,218 201,219 201,219 201,219 201,219 201,218 201,218 201,218 201,218 202,217 202,217 202,217 202,217 202,217 202,217 202,216 202,216 202,216 202,216 202,215 202,215 202,215 203,215 203,215 203,214 203,214 203,214 203,214 203,214 203,213 203,213 203,212 203,212 203,212 203,211 204,211 204,211 204,210 204,210 204,210 204,209 204,209 204,208 204,208 204,207 204,207 204,206 204,206 205,205 205,204 205,204 205,204 205,203 205,203 205,202 205,202 205,201 205,201 205,200 205,200 205,200 206,199 206,199 206,198 206,198 206,197 206,197 206,197 206,196 206,196 206,195 206,195 206,194 206,194 207,194 207,194 207,194 207,194 207,194 207,194 207,194 207,195 207,195 207,195 207,195 207,195 207,195 208,195 208,195 208,195 208,195 208,195 208,195 208,196 208,196 208,196 208,196 208,196 208,196 208,197 209,197 209,197 209,197 209,197 209,197 209,197 209,197 209,197 209,197 209,197 209,197 209,197 209,197 210,197 210,197 210,197 210,197 210,197 210,197 210,197 210,198 210,198 210,198 210,198 210,198 210,198 211,198 211,198 211,198 211,198 211,197 211,197 211,197 211,197 211,196 211,196 211,195 211,195 212,195 212,194 212,194 212,193 212,193 212,193 212,192 212,192 212,191 212,191 212,191 212,190 212,190 213,189 213,189 213,188 213,188 213,188 213,187 213,187 213,186 213,186 213,185 213,185 213,185 213,185 214,184 214,184 214,184 214,184 214,184 214,184 214,184 214,184 214,184 214,184 214,184 214,184 214,184 215,184 215,184 215,184 215,184 215,183 215,183 215,183 215,184 215,183 215,184 215,184 215,184 215,184 216,184 216,185 216,185 216,185 216,185 216,186 216,186 216,186 216,187 216,187 216,187 216,187 216,188 217,188 217,188 217,189 217,189 217,189 217,189 217,189 217,189 217,189 217,189 217,189 217,188 217,188 218,188 218,187 218,187 218,186 218,186 218,185 218,185 218,184 218,183 218,183 218,182 218,181 218,180 219,180 219,179 219,179 219,178 219,178 219,177 219,177 219,176 219,176 219,176 219,175 219,175 219,175 220,175 220,174 220,174 220,174 220,174 220,174 220,174 220,174 220,173 220,173 220,173 220,173 220,173 221,172 221,172 221,172 221,172 221,172 221,171 221,171 221,171 221,171 221,171 221,171 221,171 221,171 222,171 222,171 222,170 222,170 222,170 222,170 222,169 222,169 222,169 222,169 222,169 222,169 222,168 223,168 223,167 223,167 223,166 223,166 223,165 223,164 223,164 223,164 223,164 223,163 223,163 223,163 224,162 224,162 224,161 224,161 224,161 224,160 224,160 224,159 224,159 224,159 224,158 224,157 224,157 225,156 225,155 225,155 225,154 225,154 225,153 225,153 225,152 225,152 225,152 225,151 225,151 225,151 226,151 226,152 226,153 226,153 226,154 226,155 226,156 226,156 226,157 226,157 226,158 226,158 226,159 227,159 227,160 227,160 227,161 227,161 227,161 227,162 227,162 227,163 227,163 227,164 227,164 228,165 228,166 228,166 228,167 228,167 228,167 228,167 228,167 228,167 228,167 228,168 228,169 228,170 229,171 229,173 229,175 229,176 229,177 229,177 229,179 229,180 229,179 229,178 229,177 229,177 229,177 230,177 230,177 230,178 230,179 230,181 230,182 230,183 230,182 230,181 230,181 230,181 230,180 230,180 231,180 231,181 231,180 231,180 231,180 231,180 231,181 231,182 231,182 231,182 231,182 231,182 231,182 232,182 232,183 232,184 232,185 232,186 232,187 232,187 232,188 232,189 232,189 232,190 232,191 232,191 233,192 233,192 233,193 233,194 233,195 233,195 233,196 233,196 233,196 233,197 233,197 233,197 233,197 234,196 234,196 234,196 234,195 234,195 234,194 234,194 234,194 234,194 234,193 234,193 234,193 234,192 235,192 235,191 235,191 235,191 235,190 235,190 235,189 235,189 235,188 235,188 235,187 235,187 235,186 236,185 236,184 236,183 236,182 236,182 236,182 236,182 236,182 236,181 236,180 236,179 236,179 236,178 237,177 237,176 237,176 237,176 237,176 237,177 237,178 237,179 237,179 237,179 237,180 237,179 237,179 238,179 238,179 238,180 238,180 238,181 238,181 238,182 238,183 238,183 238,184 238,184 238,185 238,186 239,187 239,188 239,189 239,190 239,191 239,192 239,192 239,192 239,192 239,191 239,191 239,191 239,190 240,190 240,190 240,190 240,190 240,190 240,190 240,190 240,190 240,190 240,191 240,191 240,191 240,191 241,192 241,192 241,193 241,193 241,194 241,194 241,196 241,197 241,198 241,199 241,199 241,200 241,201 242,202 242,203 242,204 242,205 242,205 242,206 242,207 242,207 242,208 242,208 242,209 242,209 242,209 243,209 243,209 243,209 243,209 243,209 243,209 243,209 243,209 243,209 243,209 243,210 243,210 244,210 244,210 244,211 244,211 244,212 244,212 244,213 244,213 244,214 244,214 244,214 244,215 244,215 245,216 245,216 245,216 245,216 245,217 245,217 245,217 245,217 245,217 245,217 245,217 245,217 245,217 246,216 246,216 246,215 246,215 246,214 246,213 246,213 246,212 246,212 246,211 246,210 246,210 246,209 247,209 247,208 247,208 247,207 247,207 247,207 247,206 247,206 247,206 247,206 247,206 247,207 247,207 248,207 248,207 248,208 248,208 248,208 248,209 248,209 248,209 248,209 248,209 248,209 248,209 248,209 249,209 249,208 249,208 249,208 249,207 249,207 249,207 249,206 249,206 249,206 249,206 249,205 249,205 250,205 250,205 250,205 250,206 250,206 250,207 250,207 250,207 250,208 250,208 250,209 250,210 250,211 251,211 251,212 251,213 251,214 251,214 251,215 251,216 251,216 251,217 251,217 251,218 251,218 251,219 252,219 252,219 252,219 252,220 252,220 252,220 252,221 252,221 252,222 252,222 252,223 252,223 252,224 253,225 253,226 253,226 253,227 253,228 253,229 253,229 253,230 253,231 253,232 253,233 253,233 253,234 254,235 254,235 254,236 254,236 254,237 254,237 254,238 254,238 254,239 254,239 254,239 254,240 254,240 255,240 255,240 255,240 255,241 255,241 255,241 255,241 255,241 255,241 255,242 255,242 255,242 255,242 256,242 256,242 256,242 256,242 256,242 256,242 256,242 256,241 256,241 256,241 256,241 256,242 256,242 257,242 257,242 257,242 257,242 257,242 257,243 257,243 257,243 257,243 257,243 257,243 257,243 257,243 258,243 258,243 258,243 258,243 258,243 258,243 258,243 258,243 258,243 258,244 258,244 258,244 258,244 259,244 259,244 259,244 259,244 259,244 259,244 259,244 259,243 259,243 259,243 259,242 259,242 260,242 260,242 260,241 260,241 260,241 260,241 260,241 260,241 260,241 260,240 260,240 260,240 260,240 261,240 261,240 261,240 261,241 261,241 261,240 261,240 261,240 261,240 261,240 261,239 261,239 261,238 262,237 262,236 262,235 262,234 262,233 262,233 262,232 262,231 262,230 262,229 262,228 262,228 262,227 263,226 263,225 263,225 263,224 263,223 263,223 263,222 263,222 263,222 263,221 263,221 263,220 263,220 264,220 264,219 264,219 264,219 264,218 264,218 264,218 264,217 264,217 264,217 264,217 264,216 264,216 265,216 265,216 265,216 265,216 265,216 265,215 265,215 265,215 265,215 265,215 265,214 265,214 265,214 266,214 266,214 266,214 266,214 266,214 266,214 266,214 266,214 266,214 266,215 266,215 266,216 266,216 267,217 267,218 267,220 267,221 267,223 267,224 267,226 267,227 267,228 267,230 267,231 267,233 267,233 268,234 268,235 268,237 268,239 268,240 268,241 268,242 268,242 268,243 268,244 268,244 268,244 268,245 269,245 269,245 269,245 269,245 269,245 269,245 269,245 269,245 269,245 269,245 269,245 269,245 269,245 270,245 270,245 270,246 270,246 270,246 270,247 270,247 270,246 270,246 270,247 270,247 270,247 270,247 271,246 271,245 271,244 271,243 271,242 271,241 271,240 271,239 271,238 271,237 271,237 271,236 271,236 272,236 272,236 272,236 272,236 272,236 272,236 272,236 272,236 272,236 272,236 272,236 272,236 272,236 273,237 273,237 273,237 273,237 273,237 273,237 273,237 273,237 273,237 273,238 273,238 273,239 273,240 274,241 274,242 274,244 274,245 274,246 274,248 274,249 274,250 274,252 274,253 274,254 274,256 274,257 275,259 275,260 275,261 275,262 275,263 275,263 275,263 275,263 275,263 275,262 275,262 275,261 276,260 276,260 276,259 276,259 276,259 276,258 276,258 276,258 276,258 276,258 276,258 276,258 276,258 277,258 277,259 277,259 277,259 277,259 277,259 277,259 277,259 277,260 277,260 277,260 277,260 277,260 278,260 278,260 278,261 278,262 278,262 278,262 278,262 278,261 278,261 278,261 278,260 278,261 278,260 279,260 279,260 279,260 279,260 279,260 279,260 279,260 279,260 279,260 279,260 279,260 279,261 279,261 280,260 280,260 280,260 280,260 280,259 280,258 280,257 280,256 280,255 280,254 280,254 280,253 280,251 281,250 281,249 281,247 281,246 281,245 281,243 281,242 281,242 281,241 281,240 281,239 281,238 281,238 282,237 282,237 282,236 282,235 282,235 282,235 282,235 282,235 282,234 282,234 282,234 282,234 282,234 283,234 283,234 283,234 283,233 283,233 283,234 283,234 283,234 283,234 283,235 283,235 283,235 283,236 284,237 284,238 284,239 284,240 284,241 284,243 284,244 284,245 284,246 284,248 284,249 284,251 284,253 285,254 285,256 285,257 285,259 285,261 285,263 285,264 285,266 285,267 285,269 285,270 285,271 285,273 286,274 286,275 286,276 286,277 286,278 286,278 286,279 286,279 286,279 286,280 286,280 286,280 286,280 287,281 287,281 287,281 287,281 287,281 287,281 287,281 287,281 287,281 287,281 287,281 287,282 287,282 288,282 288,283 288,283 288,283 288,283 288,284 288,284 288,284 288,284 288,284 288,284 288,284 288,284 289,284 289,284 289,284 289,285 289,285 289,286 289,286 289,286 289,285 289,285 289,285 289,285 289,285 290,285 290,285 290,284 290,284 290,284 290,283 290,283 290,282 290,282 290,281 290,281 290,280 290,280 291,279 291,279 291,278 291,278 291,277 291,276 291,274 291,273 291,271 291,270 291,269 291,268 292,267 292,266 292,265 292,265 292,264 292,264 292,263 292,263 292,263 292,263 292,262 292,262 292,262 293,261 293,261 293,261 293,260 293,260 293,259 293,259 293,259 293,259 293,258 293,257 293,257 293,258 294,259 294,259 294,259 294,260 294,261 294,262 294,262 294,263 294,263 294,263 294,264 294,264 294,264 295,264 295,265 295,265 295,265 295,265 295,265 295,265 295,265 295,266 295,265 295,265 295,265 295,265 296,266 296,267 296,269 296,270 296,271 296,272 296,274 296,274 296,275 296,276 296,277 296,278 296,279 297,280 297,280 297,281 297,282 297,282 297,282 297,282 297,282 297,282 297,282 297,282 297,282 297,282 298,282 298,282 298,281 298,280 298,280 298,280 298,280 298,280 298,280 298,280 298,280 298,280 298,280 299,280 299,280 299,280 299,280 299,280 299,280 299,279 299,279 299,278 299,278 299,278 299,277 299,276 300,277 300,276 300,276 300,275 300,275 300,274 300,273 300,273 300,272 300,271 300,271 300,270 300,269 301,268 301,267 301,266 301,265 301,264 301,263 301,262 301,261 301,259 301,258 301,257 301,255 301,254 302,253 302,252 302,250 302,249 302,248 302,247 302,245 302,244 302,243 302,242 302,241 302,239 302,238 303,237 303,236 303,235 303,234 303,233 303,232 303,232 303,232 303,231 303,230 303,230 303,229 303,229 304,228 304,228 304,227 304,226 304,225 304,225 304,224 304,223 304,223 304,222 304,222 304,221 304,221 305,220 305,220 305,219 305,219 305,219 305,218 305,218 305,218 305,218 305,218 305,218 305,218 305,218 306,219 306,219 306,220 306,220 306,221 306,221 306,222 306,222 306,223 306,223 306,224 306,225 306,225 307,226 307,226 307,227 307,228 307,229 307,229 307,230 307,231 307,232 307,233 307,233 307,234 308,235 308,235 308,235 308,235 308,235 308,234 308,233 308,233 308,232 308,231 308,230 308,230 308,229 309,229 309,229 309,229 309,229 309,229 309,228 309,228 309,228 309,228 309,228 309,229 309,229 309,229 310,229 310,230 310,230 310,231 310,231 310,232 310,232 310,233 310,234 310,234 310,235 310,236 310,237 311,238 311,239 311,240 311,242 311,243 311,244 311,246 311,247 311,248 311,250 311,251 311,252 311,253 312,254 312,254 312,255 312,254 312,254 312,253 312,252 312,251 312,250 312,249 312,248 312,248 312,247 313,247 313,247 313,247 313,247 313,247 313,247 313,247 313,247 313,247 313,248 313,248 313,248 313,248 314,248 314,248 314,247 314,248 314,248 314,249 314,249 314,250 314,251 314,252 314,252 314,253 314,254 315,255 315,255 315,256 315,257 315,257 315,258 315,259 315,259 315,260 315,260 315,261 315,261 315,262 316,262 316,263 316,263 316,263 316,263 316,263 316,263 316,263 316,264 316,264 316,263 316,263 316,263 317,263 317,263 317,263 317,263 317,263 317,263 317,263 317,262 317,262 317,263 317,263 317,263 317,263 318,263 318,263 318,264 318,264 318,263 318,263 318,263 318,262 318,262 318,262 318,261 318,261 318,261 319,261 319,261 319,261 319,260 319,260 319,260 319,260 319,260 319,260 319,260 319,260 319,260 319,260 320,260 320,260 320,260 320,260 320,260 320,260 320,261 320,261 320,261 320,261 320,262 320,262 320,263 321,263 321,263 321,263 321,263 321,263 321,263 321,263 321,262 321,262 321,262 321,262 321,262 321,262 322,262 322,262 322,262 322,262 322,262 322,262 322,262 322,262 322,262 322,262 322,262 322,262 322,262 323,262 323,262 323,262 323,263 323,263 323,263 323,263 323,263 323,263 323,263 323,263 323,263 324,263 324,263 324,263 324,264 324,264 324,264 324,264 324,264 324,265 324,265 324,265 324,265 324,265 325,266 325,266 325,266 325,267 325,267 325,267 325,267 325,268 325,268 325,268 325,269 325,269 325,269 326,269 326,269 326,269 326,269 326,269 326,269 326,269 326,269 326,269 326,269 326,269 326,269 326,269 327,269 327,268 327,268 327,268 327,268 327,268 327,267 327,267 327,267 327,267 327,266 327,266 327,266 328,266 328,266 328,265 328,265 328,265 328,265 328,264 328,264 328,264 328,264 328,264 328,264 328,264 329,263 329,263 329,263 329,263 329,263 329,262 329,262 329,262 329,262 329,262 329,262 329,262 329,262 330,262 330,262 330,262 330,262 330,262 330,262 330,262 330,262 330,262 330,262 330,262 330,262 330,262 331,262 331,262 331,262 331,263 331,263 331,263 331,263 331,264 331,264 331,264 331,264 331,263 331,263 332,262 332,262 332,262 332,261 332,261 332,261 332,261 332,260 332,260 332,260 332,260 332,260 332,260 333,260 333,260 333,259 333,259 333,259 333,259 333,259 333,259 333,259 333,259 333,259 333,259 333,259 334,259 334,259 334,260 334,260 334,260 334,260 334,259 334,259 334,259 334,259 334,259 334,259 334,259 335,259 335,259 335,259 335,259 335,258 335,258 335,258 335,258 335,258 335,258 335,258 335,258 335,258 336,257 336,257 336,257 336,256 336,256 336,255 336,255 336,254 336,254 336,254 336,253 336,253 336,253 337,253 337,253 337,253 337,253 337,253 337,253 337,253 337,254 337,254 337,254 337,255 337,255 337,256 338,256 338,257 338,257 338,258 338,258 338,259 338,259 338,259 338,260 338,259 338,259 338,259 338,259 339,259 339,258 339,258 339,258 339,258 339,258 339,258 339,258 339,258 339,258 339,258 339,258 340,258 340,259 340,259 340,258 340,258 340,257 340,256 340,256 340,255 340,254 340,253 340,252 340,251 341,250 341,249 341,248 341,247 341,246 341,245 341,245 341,244 341,243 341,243 341,242 341,242 341,242 342,241 342,241 342,241 342,241 342,240 342,240 342,240 342,240 342,239 342,239 342,239 342,239 342,239 343,238 343,238 343,238 343,238 343,238 343,237 343,237 343,237 343,237 343,237 343,237 343,236 343,236 344,237 344,237 344,237 344,237 344,237 344,238 344,238 344,238 344,238 344,238 344,238 344,238 344,238 345,238 345,238 345,238 345,238 345,238 345,238 345,238 345,238 345,238 345,238 345,238 345,238 345,239 346,239 346,239 346,239 346,239 346,238 346,238 346,238 346,238 346,238 346,238 346,238 346,238 346,239 347,239 347,239 347,238 347,238 347,238 347,239 347,239 347,239 347,239 347,239 347,238 347,238 347,238 348,237 348,237 348,236 348,236 348,236 348,235 348,235 348,235 348,235 348,235 348,234 348,234 348,234 349,234 349,234 349,233 349,233 349,233 349,233 349,233 349,232 349,232 349,232 349,232 349,232 349,231 350,231 350,231 350,231 350,231 350,230 350,230 350,230 350,230 350,230 350,230 350,229 350,229 350,229 351,229 351,229 351,229 351,229 351,229 351,229 351,229 351,229 351,229 351,229 351,229 351,230 351,230 352,230 352,231 352,231 352,231 352,231 352,231 352,232 352,232 352,232 352,233 352,233 352,233 352,233 353,233 353,233 353,233 353,233 353,233 353,233 353,233 353,233 353,234 353,234 353,234 353,234 353,234 354,234 354,234 354,234 354,234 354,234 354,234 354,234 354,234 354,234 354,234 354,235 354,235 354,235 355,235 355,235 355,235 355,235 355,235 355,235 355,235 355,235 355,235 355,235 355,235 355,235 356,234 356,234 356,235 356,235 356,235 356,235 356,235 356,234 356,234 356,234 356,234 356,234 356,235 357,235 357,235 357,235 357,235 357,235 357,235 357,235 357,235 357,235 357,235 357,235 357,236 357,236 358,236 358,236 358,236 358,236 358,237 358,237 358,237 358,237 358,237 358,238 358,238 358,238 358,238 359,238 359,239 359,239 359,239 359,239 359,239 359,239 359,239 359,240 359,240 359,240 359,240 359,240 360,240 360,241 360,241 360,241 360,241 360,241 360,241 360,242 360,242 360,242 360,242 360,242 360,242 361,242 361,243 361,243 361,243 361,243 361,243 361,243 361,244 361,244 361,244 361,244 361,244 361,244 362,244 362,245 362,245 362,245 362,245 362,245 362,245 362,245 362,245 362,245 362,245 362,245 362,246 363,246 363,246 363,246 363,246 363,246 363,246 363,246 363,246 363,246 363,246 363,246 363,246 363,246 364,246 364,247 364,247 364,247 364,247 364,247 364,247 364,247 364,247 364,247 364,247 364,247 364,248 365,248 365,248 365,249 365,249 365,249 365,250 365,250 365,251 365,251 365,252 365,253 365,253 365,254 366,254 366,254 366,254 366,254 366,254 366,254 366,253 366,253 366,253 366,252 366,252 366,252 366,251 367,251 367,251 367,252 367,251 367,251 367,251 367,252 367,252 367,252 367,252 367,252 367,252 367,252 368,253 368,253 368,253 368,254 368,254 368,255 368,255 368,256 368,257 368,257 368,258 368,259 368,259 369,259 369,259 369,259 369,259 369,259 369,258 369,258 369,257 369,257 369,257 369,257 369,257 369,257 370,257 370,257 370,257 370,257 370,257 370,258 370,258 370,259 370,260 370,261 370,262 370,262 370,262 371,263 371,263 371,263 371,263 371,263 371,263 371,263 371,262 371,262 371,261 371,261 371,261 372,260 372,260 372,260 372,260 372,260 372,260 372,259 372,259 372,259 372,259 372,259 372,259 372,259 373,259 373,259 373,259 373,259 373,259 373,259 373,259 373,259 373,258 373,258 373,258 373,258 373,258 374,258 374,258 374,258 374,258 374,258 374,258 374,258 374,258 374,258 374,258 374,258 374,258 374,257 375,257 375,257 375,257 375,257 375,257 375,257 375,257 375,257 375,257 375,257 375,257 375,257 375,257 376,257 376,257 376,257 376,257 376,257 376,257 376,258 376,258 376,258 376,258 376,259 376,259 376,259 377,259 377,260 377,260 377,260 377,260 377,261 377,261 377,261 377,261 377,261 377,262 377,262 377,262 378,262 378,262 378,262 378,262 378,263 378,263 378,263 378,263 378,263 378,263 378,263 378,263 378,263 379,263 379,263 379,263 379,263 379,263 379,264 379,264 379,264 379,264 379,264 379,264 379,264 379,264 380,264 380,265 380,265 380,265 380,265 380,266 380,266 380,266 380,267 380,267 380,267 380,268 380,268 381,269 381,269 381,270 381,270 381,270 381,271 381,271 381,272 381,272 381,272 381,273 381,273 381,273 382,274 382,274 382,275 382,275 382,275 382,275 382,276 382,276 382,275 382,275 382,275 382,275 382,275 383,274 383,274 383,274 383,274 383,273 383,273 383,273 383,272 383,272 383,272 383,272 383,272 383,272 384,272 384,271 384,271 384,271 384,271 384,271 384,271 384,271 384,271 384,271 384,272 384,272 384,272 385,272 385,271 385,271 385,271 385,271 385,270 385,270 385,270 385,269 385,269 385,269 385,268 385,268 386,268 386,268 386,268 386,267 386,267 386,267 386,267 386,267 386,267 386,267 386,267 386,267 386,267 387,267 387,268 387,268 387,268 387,268 387,269 387,269 387,270 387,270 387,271 387,271 387,272 388,272 388,273 388,274 388,274 388,274 388,275 388,275 388,276 388,276 388,277 388,277 388,277 388,277 389,278 389,278 389,278 389,278 389,278 389,278 389,278 389,278 389,278 389,277 389,277 389,276 389,276 390,276 390,276 390,276 390,276 390,276 390,276 390,275 390,275 390,275 390,275 390,275 390,275 390,275 391,275 391,274 391,274 391,274 391,274 391,273 391,273 391,273 391,272 391,272 391,271 391,271 391,270 392,270 392,269 392,269 392,269 392,268 392,268 392,267 392,267 392,266 392,266 392,266 392,266 392,265 393,265 393,265 393,265 393,265 393,264 393,264 393,264 393,264 393,264 393,264 393,264 393,264 393,263 394,263 394,263 394,263 394,263 394,263 394,263 394,262 394,262 394,262 394,262 394,262 394,262 394,262 395,261 395,261 395,261 395,261 395,261 395,260 395,260 395,260 395,260 395,259 395,259 395,259 395,258 396,258 396,258 396,257 396,257 396,257 396,256 396,256 396,256 396,256 396,256 396,257 396,257 396,257 397,258 397,258 397,258 397,259 397,259 397,259 397,259 397,259 397,259 397,259 397,259 397,258 397,258 398,257 398,257 398,257 398,257 398,257 398,257 398,257 398,257 398,257 398,257 398,258 398,258 398,258 399,258 399,258 399,258 399,259 399,259 399,259 399,259 399,260 399,260 399,261 399,261 399,261 399,262 400,262 400,262 400,263 400,263 400,263 400,264 400,264 400,264 400,264 400,264 400,265 400,265 400,265 401,265 401,266 401,266 401,266 401,266 401,266 401,266 401,266 401,266 401,266 401,267 401,267 401,267 402,267 402,267 402,267 402,268 402,267 402,268 402,267 402,267 402,267 402,267 402,267 402,266 402,266 403,266 403,266 403,266 403,266 403,266 403,265 403,265 403,265 403,265 403,265 403,265 403,265 404,265 404,265 404,265 404,265 404,265 404,265 404,265 404,265 404,265 404,264 404,264 404,264 404,264 405,264 405,264 405,264 405,264 405,263 405,263 405,263 405,263 405,263 405,263 405,263 405,263 405,263 406,264 406,264 406,264 406,264 406,264 406,264 406,264 406,264 406,264 406,264 406,265 406,265 406,265 407,265 407,265 407,265 407,266 407,266 407,266 407,266 407,267 407,267 407,268 407,268 407,268 407,268 408,269 408,269 408,270 408,270 408,270 408,271 408,271 408,272 408,272 408,273 408,273 408,273 408,274 409,274 409,274 409,275 409,275 409,275 409,275 409,276 409,276 409,276 409,276 409,277 409,277 409,277 410,277 410,277 410,277 410,277 410,277 410,277 410,277 410,276 410,276 410,276 410,276 410,276 410,275 411,275 411,275 411,275 411,275 411,275 411,275 411,275 411,275 411,275 411,275 411,275 411,275 411,275 412,275 412,275 412,275 412,275 412,275 412,275 412,275 412,275 412,275 412,275 412,276 412,276 412,276 413,276 413,276 413,276 413,277 413,277 413,277 413,277 413,277 413,277 413,277 413,277 413,277 413,277 414,277 414,277 414,278 414,278 414,278 414,278 414,278 414,278 414,278 414,278 414,278 414,278 414,278 415,278 415,279 415,279 415,279 415,279 415,279 415,279 415,279 415,279 415,280 415,280 415,280 415,280 416,280 416,280 416,280 416,280 416,281 416,281 416,281 416,282 416,283 416,283 416,284 416,284 416,285 417,286 417,286 417,287 417,287 417,288 417,288 417,289 417,290 417,290 417,291 417,291 417,292 417,292 418,293 418,293 418,293 418,293 418,293 418,293 418,292 418,292 418,291 418,291 418,290 418,290 419,289 419,289 419,289 419,289 419,289 419,289 419,289 419,289 419,289 419,290 419,290 419,290 419,290 420,290 420,290 420,291 420,291 420,291 420,291 420,291 420,291 420,291 420,292 420,292 420,292 420,292 421,292 421,292 421,292 421,292 421,292 421,293 421,293 421,293 421,293 421,293 421,293 421,294 421,294 422,295 422,295 422,296 422,296 422,297 422,297 422,298 422,298 422,299 422,300 422,300 422,301 422,301 423,301 423,301 423,301 423,301 423,301 423,301 423,301 423,301 423,300 423,301 423,301 423,301 423,300 424,300 424,300 424,300 424,300 424,300 424,300 424,300 424,300 424,300 424,300 424,300 424,300 424,299 425,299 425,299 425,299 425,299 425,299 425,299 425,299 425,299 425,299 425,299 425,299 425,299 425,300 426,300 426,300 426,301 426,301 426,301 426,301 426,302 426,302 426,303 426,303 426,303 426,304 426,304 427,305 427,305 427,305 427,306 427,306 427,306 427,306 427,306 427,306 427,306 427,306 427,306 427,306 428,306 428,307 428,307 428,307 428,307 428,306 428,306 428,306 428,306 428,306 428,306 428,306 428,306 429,306 429,306 429,306 429,307 429,307 429,307 429,307 429,307 429,307 429,308 429,308 429,308 429,308 430,308 430,309 430,309 430,309 430,309 430,310 430,310 430,310 430,310 430,311 430,311 430,311 430,311 431,311 431,311 431,312 431,312 431,312 431,312 431,312 431,312 431,312 431,312 431,312 431,313 431,313 432,313 432,313 432,313 432,313 432,313 432,313 432,313 432,313 432,313 432,313 432,313 432,313 432,314 433,314 433,314 433,314 433,314 433,314 433,314 433,314 433,314 433,314 433,314 433,314 433,315 433,314 434,314 434,314 434,314 434,314 434,314 434,314 434,314 434,314 434,315 434,315 434,315 434,315 435,315 435,315 435,316 435,316 435,316 435,316 435,316 435,317 435,317 435,317 435,317 435,317 435,317 436,317 436,317 436,318 436,318 436,318 436,318 436,318 436,318 436,318 436,318 436,318 436,318 436,318 437,319 437,319 437,319 437,319 437,319 437,319 437,319 437,319 437,319 437,319 437,319 437,319 437,320 438,320 438,320 438,320 438,320 438,320 438,320 438,320 438,320 438,320 438,320 438,320 438,320 438,320 439,320 439,320 439,321 439,321 439,321 439,321 439,321 439,321 439,321 439,321 439,321 439,321 439,321 440,321 440,321 440,321 440,322 440,322 440,322 440,322 440,322 440,322 440,322 440,322 440,322 440,322 441,322 441,322 441,322 441,322 441,322 441,323 441,323 441,323 441,323 441,323 441,323 441,323 441,323 442,323 442,323 442,323 442,323 442,323 442,323 442,323 442,324 442,324 442,324 442,324 442,324 442,324 443,324 443,324 443,324 443,324 443,324 443,325 443,325 443,325 443,325 443,325 443,325 443,325 443,325 444,325 444,325 444,325 444,325 444,325 444,325 444,325 444,326 444,326 444,326 444,326 444,326 444,326 445,326 445,326 445,326 445,326 445,326 445,326 445,326 445,326 445,326 445,326 445,326 445,326 445,326 446,326 446,326 446,327 446,327 446,327 446,327 446,327 446,327 446,327 446,327 446,327 446,327 446,327 447,327 447,327 447,327 447,327 447,327 447,327 447,327 447,327 447,328 447,328 447,328 447,328 447,328 448,328 448,328 448,328 448,328 448,328 448,328 448,328 448,328 448,328 448,328 448,328 448,328 448,328 449,328 449,328 449,328 449,329 449,329 449,329 449,329 449,329 449,329 449,329 449,329 449,329 449,329 450,329 450,329 450,329 450,329 450,329 450,329 450,329 450,329 450,329 450,329 450,329 450,329 451,329 451,329 451,330 451,330 451,330 451,330 451,330 451,330 451,330 451,330 451,330 451,330 451,330 452,330 452,330 452,330 452,330 452,330 452,330 452,330 452,330 452,330 452,330 452,330 452,331 452,331 453,331 453,331 453,331 453,331 453,331 453,331 453,331 453,331 453,331 453,331 453,331 453,331 453,331 454,332 454,332 454,332 454,332 454,332 454,332 454,332 454,332 454,332 454,332 454,332 454,332 454,332 455,332 455,332 455,332 455,332 455,332 455,332 455,332 455,332 455,333 455,333 455,333 455,333 455,333 456,333 456,333 456,333 456,333 456,333 456,333 456,333 456,333 456,333 456,333 456,333 456,333 456,333 457,333 457,333 457,333 457,334 457,334 457,334 457,334 457,334 457,334 457,334 457,334 457,334 457,334 458,334 458,334 458,334 458,334 458,334 458,334 458,334 458,334 458,334 458,334 458,334 458,334 458,334 459,334 459,334 459,334 459,334 459,334 459,334 459,334 459,334 459,334 459,335 459,335 459,335 459,335 460,335 460,335 460,335 460,335 460,335 460,335 460,335 460,335 460,335 460,335 460,335 460,335 460,335 461,335 461,335 461,335 461,335 461,335 461,335 461,335 461,335 461,335 461,335 461,335 461,335 461,335 462,335 462,334 462,334 462,334 462,334 462,334 462,334 462,334 462,334 462,334 462,334 462,334 462,334 463,334 463,334 463,334 463,334 463,334 463,334 463,334 463,334 463,334 463,333 463,333 463,333 463,333 464,333 464,333 464,333 464,333 464,333 464,333 464,333 464,333 464,333 464,333 464,333 464,333 464,334 465,334 465,334 465,334 465,334 465,334 465,334 465,334 465,334 465,334 465,335 465,335 465,335 465,335 466,335 466,335 466,335 466,336 466,336 466,336 466,336 466,336 466,336 466,337 466,337 466,338 467,338 467,337 467,337 467,337 467,337 467,337 467,337 467,337 467,337 467,337 467,337 467,337 467,337 468,337 468,337 468,336 468,336 468,336 468,336 468,336 468,336 468,336 468,336 468,336 468,336 468,336 469,337 469,337 469,337 469,337 469,338 469,338 469,339 469,339 469,339 469,339 469,340 469,340 469,340 470,340 470,340 470,339 470,339 470,339 470,339 470,339 470,339 470,339 470,339 470,339 470,339 470,338 471,338 471,338 471,338 471,338 471,338 471,338 471,338 471,338 471,337 471,337 471,337 471,337 471,337 472,337 472,337 472,337 472,337 472,337 472,337 472,337 472,337 472,337 472,337 472,337 472,337 472,337 473,337 473,337 473,337 473,337 473,337 473,337 473,337 473,337 473,337 473,336 473,336 473,336 473,337 474,337 474,337 474,336 474,336 474,336 474,336 474,336 474,336 474,336 474,336 474,336 474,335 474,335 475,335 475,335 475,336 475,336 475,336 475,335 475,335 475,335 475,335 475,336 475,336 475,336 475,336 476,336 476,336 476,336 476,336 476,336 476,336 476,336 476,336 476,336 476,336 476,336 476,336 476,336 477,336 477,336 477,336 477,336 477,336 477,336 477,337 477,337 477,337 477,337 477,337 477,337 477,337 478,337 478,337 478,337 478,337 478,337 478,337 478,337 478,337 478,337 478,337 478,337 478,337 478,337 479,337 479,337 479,337 479,337 479,337 479,337 479,338 479,338 479,338 479,338 479,338 479,338 479,338 480,338 480,338 480,338 480,338 480,338 480,338 480,338 480,338 480,338 480,339 480,339 480,339 480,339 481,339 481,338 481,338 481,338 481,339 481,339 481,339 481,339 481,339 481,339 481,339 481,339 481,339 482,339 482,339 482,339 482,339 482,339 482,339 482,339 482,339 482,339 482,339 482,339 482,339 483,339 483,339 483,339 483,339 483,339 483,339 483,340 483,340 483,340 483,340 483,340 483,340 483,340 484,340 484,340 484,340 484,340 484,340 484,340 484,340 484,340 484,340 484,340 484,340 484,340 484,340 485,340 485,340 485,340 485,340 485,340 485,340 485,340 485,340 485,340 485,340 485,340 485,340 485,340 486,340 486,341 486,341 486,341 486,341 486,341 486,341 486,341 486,341 486,341 486,341 486,341 486,341 487,341 487,341 487,341 487,341 487,341 487,341 487,341 487,341 487,341 487,341 487,341 487,341 487,341 488,341 488,341 488,341 488,341 488,341 488,341 488,341 488,341 488,341 488,341 488,341 488,342 488,342 489,342 489,342 489,342 489,342 489,342 489,342 489,343 489,343 489,343 489,343 489,343 489,343 489,343 490,343 490,344 490,344 490,344 490,344 490,344 490,344 490,344 490,344 490,344 490,344 490,344 490,345 491,345 491,345 491,345 491,345 491,345 491,345 491,345 491,345 491,345 491,345 491,345 491,345 491,345 492,345 492,345 492,345 492,345 492,345 492,345 492,345 492,345 492,345 492,345 492,345 492,345 492,345 493,346 493,346 493,346 493,346 493,346 493,346 493,346 493,346 493,346 493,346 493,347 493,347 493,347 494,347 494,347 494,348 494,348 494,348 494,348 494,348 494,348 494,349 494,349 494,349 494,349 494,349 495,349 495,349 495,349 495,349 495,349 495,349 495,349 495,349 495,349 495,349 495,349 495,349 495,349 496,349 496,349 496,349 496,349 496,349 496,349 496,349 496,349 496,349 496,349 496,349 496,349 496,349 497,349 497,349 497,349 497,349 497,349 497,349 497,349 497,349 497,349 497,349 497,349 497,349 497,349 498,349 498,349 498,349 498,349 498,349 498,349 498,349 498,349 498,349 498,349 498,349 498,349 499,349 499,349 499,349 499,349 499,349 499,350 499,350 499,350 499,350 499,350 499,350 499,349 499,349 500,349 500,349 500,349 500,349 500,349 500,350 500,350 500,351 500,351 500,352 500,352 500,352 500,352 501,352 501,352 501,352 501,352 501,351 501,351 501,350 501,350 501,350 501,349 501,349 501,349 501,349 502,349 502,349 502,349 502,349 502,349 502,349 502,349 502,349 502,349 502,349 502,349 502,349 502,349 503,349 503,349 503,349 503,349 503,349 503,349 503,349 503,349 503,349 503,349 503,349 503,349 503,349 504,349 504,349 504,349 504,349 504,349 504,349 504,350 504,350 504,350 504,350 504,350 504,350 504,349 505,349 505,349 505,349 505,349 505,349 505,349 505,349 505,349 505,350 505,350 505,350 505,350 505,350 506,350 506,350 506,350 506,350 506,350 506,350 506,350 506,349 506,349 506,349 506,349 506,349 506,349 507,349 507,349 507,349 507,349 507,349 507,349 507,350 507,350 507,350 507,350 507,350 507,350 507,350 508,350 508,350 508,351 508,351 508,351 508,350 508,350 508,349 508,349 508,349 508,349 508,349 508,349 509,348 509,348 509,348 509,348 509,348 509,348 509,347 509,347 509,347 509,347 509,347 509,347 509,347 510,346 510,346 510,346 510,345 510,345 510,344 510,344 510,343 510,343 510,342 510,342 510,341 510,341 511,341 511,341 511,341 511,341 511,342 511,342 511,341 511,341 511,341 511,341 511,341 511,340 511,340 512,339 512,339 512,339 512,338 512,338 512,337 512,337 512,337 512,336 512,336 512,336 512,336 512,335 513,335 513,335 513,335 513,335 513,335 513,335 513,335 513,335 513,335 513,335 513,335 513,335 513,335 514,335 514,335 514,335 514,335 514,335 514,335 514,335 514,335 514,335 514,335 514,335 514,335 515,335 515,335 515,335 515,334 515,334 515,334 515,334 515,334 515,334 515,334 515,334 515,334 515,334 516,334 516,334 516,334 516,334 516,334 516,334 516,334 516,334 516,334 516,334 516,333 516,333 516,333 517,333 517,333 517,333 517,333 517,333 517,333 517,332 517,332 517,332 517,332 517,332 517,332 517,331 518,331 518,331 518,331 518,331 518,331 518,331 518,331 518,331 518,330 518,330 518,330 518,330 518,330 519,330 519,330 519,330 519,330 519,330 519,329 519,329 519,329 519,329 519,329 519,329 519,329 519,329 520,329 520,329 520,329 520,329 520,329 520,329 520,329 520,329 520,329 520,329 520,329 520,329 520,329 521,329 521,329 521,329 521,329 521,329 521,329 521,329 521,329 521,329 521,329 521,329 521,330 521,330 522,330 522,330 522,330 522,330 522,330 522,330 522,330 522,330 522,330 522,330 522,330 522,330 522,330 523,330 523,330 523,330 523,330 523,330 523,330 523,330 523,330 523,329 523,329 523,329 523,329 523,329 524,329 524,329 524,329 524,329 524,329 524,329 524,329 524,329 524,329 524,329 524,329 524,329 524,329 525,329 525,329 525,329 525,328 525,328 525,328 525,328 525,328 525,328 525,328 525,328 525,328 525,328 526,328 526,328 526,328 526,328 526,328 526,327 526,327 526,327 526,327 526,327 526,327 526,327 526,327 527,327 527,327 527,327 527,327 527,326 527,326 527,326 527,326 527,326 527,326 527,326 527,326 527,326 528,326 528,326 528,325 528,325 528,325 528,325 528,325 528,325 528,325 528,325 528,325 528,325 528,325 529,325 529,325 529,325 529,324 529,324 529,324 529,324 529,324 529,324 529,324 529,324 529,324 529,324 530,324 530,324 530,324 530,324 530,324 530,324 530,323 530,323 530,323 530,323 530,323 530,323 531,323 531,323 531,323 531,323 531,323 531,323 531,323 531,323 531,323 531,323 531,323 531,323 531,323 532,323 532,323 532,323 532,323 532,323 532,323 532,323 532,323 532,323 532,323 532,323 532,323 532,323 533,323 533,323 533,323 533,323 533,323 533,323 533,323 533,322 533,322 533,322 533,322 533,322 533,322 534,322 534,322 534,322 534,322 534,322 534,322 534,322 534,322 534,322 534,322 534,322 534,322 534,322 535,322 535,322 535,322 535,322 535,322 535,322 535,322 535,322 535,322 535,322 535,322 535,322 535,322 536,322 536,322 536,322 536,322 536,322 536,322 536,322 536,322 536,322 536,322 536,322 536,322 536,322 537,322 537,322 537,322 537,322 537,322 537,322 537,322 537,322 537,322 537,322 537,322 537,322 537,322 538,322 538,322 538,322 538,322 538,322 538,322 538,322 538,322 538,322 538,322 538,322 538,322 538,322 539,322 539,322 539,322 539,322 539,322 539,322 539,322 539,322 539,322 539,322 539,322 539,322 539,322 540,322 540,323 540,322 540,322 540,323 540,323 540,323 540,323 540,323 540,323 540,323 540,323 540,323 541,324 541,324 541,324 541,324 541,324 541,324 541,325 541,325 541,325 541,325 541,325 541,325 541,325 542,326 542,326 542,326 542,326 542,326 542,326 542,327 542,327 542,327 542,327 542,327 542,327 542,327 543,327 543,327 543,327 543,328 543,328 543,328 543,328 543,328 543,328 543,328 543,328 543,328 543,328 544,328 544,328 544,328 544,328 544,329 544,329 544,329 544,329 544,329 544,329 544,329 544,329 544,329 545,329 545,329 545,329 545,329 545,330 545,330 545,331 545,331 545,331 545,331 545,331 545,330 545,330 546,330 546,330 546,330 546,330 546,330 546,330 546,330 546,330 546,330 546,330 546,331 546,331 547,331 547,331 547,330 547,330 547,330 547,330 547,330 547,331 547,331 547,331 547,331 547,331 547,331 548,331 548,331 548,331 548,331 548,331 548,332 548,332 548,332 548,332 548,332 548,332 548,332 548,332 549,332 549,332 549,332 549,332 549,333 549,333 549,333 549,333 549,333 549,333 549,333 549,334 549,333 550,333 550,333 550,334 550,334 550,334 550,334 550,334 550,334 550,335 550,335 550,335 550,335 550,335 551,335 551,335 551,335 551,335 551,335 551,335 551,335 551,335 551,335 551,336 551,336 551,336 551,336 552,336 552,336 552,336 552,336 552,336 552,336 552,336 552,336 552,336 552,336 552,336 552,336 552,336 553,337 553,337 553,337 553,337 553,337 553,337 553,337 553,337 553,337 553,337 553,337 553,338 553,338 554,338 554,338 554,338 554,338 554,338 554,338 554,338 554,338 554,338 554,338 554,338 554,338 554,339 555,339 555,339 555,339 555,339 555,339 555,339 555,339 555,339 555,339 555,339 555,339 555,339 555,339 556,339 556,339 556,340 556,340 556,340 556,340 556,340 556,340 556,340 556,340 556,340 556,340 556,340 557,340 557,340 557,340 557,340 557,340 557,340 557,340 557,340 557,340 557,340 557,340 557,340 557,340 558,340 558,340 558,340 558,340 558,340 558,340 558,340 558,340 558,340 558,340 558,340 558,341 558,341 559,341 559,341 559,341 559,341 559,341 559,341 559,341 559,341 559,341 559,341 559,341 559,342 559,342 560,342 560,342 560,342 560,342 560,342 560,342 560,342 560,343 560,343 560,343 560,343 560,343 560,343 561,343 561,343 561,343 561,343 561,344 561,344 561,344 561,344 561,344 561,344 561,344 561,344 561,344 562,344 562,344 562,344 562,344 562,344 562,344 562,345 562,345 562,345 562,345 562,345 562,345 563,345 563,345 563,345 563,345 563,345 563,345 563,345 563,345 563,345 563,345 563,345 563,345 563,345 564,345 564,345 564,346 564,346 564,346 564,346 564,346 564,346 564,346 564,346 564,346 564,347 564,346 565,347 565,347 565,347 565,347 565,347 565,347 565,347 565,347 565,348 565,348 565,348 565,348 565,348 566,348 566,348 566,348 566,348 566,348 566,348 566,349 566,349 566,349 566,349 566,349 566,349 566,350 567,350 567,350 567,350 567,350 567,350 567,350 567,350 567,350 567,350 567,350 567,350 567,350 567,350 568,351 568,351 568,350 568,350 568,350 568,351 568,351 568,351 568,351 568,351 568,351 568,351 568,351 569,351 569,351 569,351 569,351 569,351 569,352 569,352 569,352 569,352 569,352 569,352 569,352 569,352 570,352 570,352 570,352 570,352 570,352 570,352 570,352 570,352 570,352 570,353 570,353 570,353 570,353 571,353 571,353 571,353 571,353 571,353 571,353 571,353 571,353 571,353 571,353 571,353 571,353 571,353 572,353 572,353 572,353 572,353 572,354 572,354 572,353 572,353 572,353 572,353 572,353 572,353 572,353 573,353 573,354 573,354 573,354 573,354 573,354 573,354 573,354 573,354 573,354 573,354 573,354 573,354 574,354 574,354 574,354 574,354 574,355 574,355 574,355 574,355 574,355 574,355 574,355 574,355 574,355 575,355 575,355 575,355 575,355 575,355 575,355 575,356 575,356 575,356 575,356 575,356 575,356 575,356 576,356 576,356 576,356 576,356 576,356 576,356 576,356 576,356 576,357 576,357 576,357 576,357 576,357 577,357 577,357 577,357 577,357 577,357 577,357 577,357 577,357 577,357 577,357 577,357 577,357 577,358 578,358 578,358 578,358 578,358 578,358 578,358 578,358 578,358 578,358 578,358 578,358 578,358 579,358 579,358 579,358 579,358 579,358 579,358 579,358 579,358 579,358 579,358 579,358 579,359 579,359 580,359 580,359 580,359 580,359 580,359 580,359 580,359 580,359 580,359 580,359 580,359 580,359 580,359 581,359 581,359 581,359 581,359 581,359 581,359 581,359 581,359 581,360 581,360 581,360 581,360 581,360 582,360 582,360 582,360 582,360 582,360 582,360 582,360 582,360 582,360 582,360 582,360 582,360 582,361 583,361 583,361 583,361 583,361 583,361 583,361 583,361 583,361 583,361 583,361 583,361 583,361 583,361 584,361 584,362 584,362 584,362 584,362 584,362 584,362 584,362 584,362 584,362 584,363 584,363 584,363 585,363 585,363 585,363 585,363 585,363 585,363 585,363 585,363 585,363 585,363 585,363 585,363 585,363 586,363 586,363 586,363 586,363 586,363 586,363 586,363 586,363 586,363 586,363 586,363 586,363 586,363 587,363 587,363 587,363 587,363 587,363 587,363 587,363 587,363 587,363 587,363 587,363 587,363 587,363 588,363 588,363 588,363 588,363 588,363 588,363 588,363 588,363 588,363 588,363 588,363 588,363 588,363 589,363 589,363 589,363 589,363 589,363 589,363 589,363 589,363 589,363 589,363 589,363 589,363 589,363 590,363 590,363 590,363 590,363 590,363 590,363 590,363 590,363 590,363 590,363 590,363 590,363 590,363 591,363 591,363 591,363 591,363 591,363 591,363 591,363 591,363 591,363 591,363 591,363 591,363 591,363 592,363 592,363 592,363 592,363 592,363 592,363 592,363 592,363 592,363 592,363 592,363 592,363 592,363 593,363 593,363 593,364 593,364 593,364 593,364 593,364 593,364 593,364 593,364 593,364 593,364 593,364 594,364 594,364 594,364 594,364 594,364 594,364 594,364 594,364 594,364 594,364 594,364 594,364 595,364 595,364 595,364 595,364 595,364 595,364 595,364 595,364 595,364 595,364 595,364 595,363 595,363 596,364 596,364 596,364 596,364 596,364 596,364 596,364 596,364 596,364 596,364 596,364 596,364 596,364 597,364 597,364 597,363 597,363 597,363 597,363 597,363 597,363 597,363 597,363 597,363 597,363 597,363 598,363 598,363 598,363 598,363 598,363 598,363 598,363 598,363 598,363 598,363 598,363 598,363 598,363 599,363 599,363 599,363 599,363 599,363 599,363 599,363 599,363 599,363 599,363 599,363 599,363 599,363 600,363 600,363 600,363 600,363 600,363 600,363 600,363 600,363 600,363 600,363 600,363 600,363 600,363 601,363 601,363 601,363 601,363 601,363 601,363 601,363 601,363 601,363 601,363 601,363 601,363 601,363 602,363 602,364 602,364 602,364 602,364 602,364 602,364 602,364 602,364 602,364 602,364 602,364 602,364 603,364 603,364 603,364 603,364 603,364 603,364 603,364 603,364 603,364 603,364 603,364 603,364 603,364 604,364 604,364 604,364 604,364 604,364 604,364 604,364 604,364 604,364 604,364 604,364 604,364 604,364 605,364 605,364 605,364 605,364 605,364 605,364 605,364 605,364 605,364 605,364 605,364 605,364 605,364 606,364 606,364 606,364 606,364 606,364 606,364 606,364 606,364 606,364 606,364 606,364 606,364 606,364 607,364 607,364 607,364 607,364 607,364 607,364 607,364 607,364 607,364 607,364 607,364 607,364 607,364 608,364 608,364 608,364 608,364 608,364 608,364 608,363 608,363 608,363 608,363 608,363 608,363 608,363 609,363 609,363 609,364 609,364 609,364 609,364 609,364 609,364 609,364 609,364 609,364 609,364 609,364 610,364 610,364 610,364 610,364 610,364 610,364 610,364 610,364 610,364 610,364 610,363 610,363 611,363 611,363 611,363 611,363 611,363 611,363 611,363 611,363 611,363 611,363 611,363 611,363 611,363 612,363 612,363 612,363 612,363 612,363 612,363 612,363 612,363 612,363 612,363 612,363 612,363 612,363 613,363 613,363 613,363 613,363 613,363 613,363 613,363 613,363 613,363 613,363 613,363 613,363 613,363 614,363 614,363 614,363 614,363 614,363 614,363 614,363 614,363 614,363 614,363 614,363 614,363 614,363 615,363 615,363 615,363 615,363 615,363 615,363 615,363 615,363 615,363 615,363 615,363 615,363 615,363 616,363 616,363 616,363 616,363 616,363 616,363 616,363 616,363 616,363 616,363 616,363 616,363 616,363 617,363 617,363 617,363 617,363 617,363 617,363 617,363 617,363 617,363 617,363 617,363 617,364 617,364 618,364 618,364 618,364 618,364 618,364 618,364 618,364 618,364 618,364 618,364 618,364 618,364 618,364 619,364 619,364 619,364 619,364 619,364 619,363 619,364 619,364 619,364 619,364 619,364 619,364 619,364 620,364 620,364 620,364 620,364 620,364 620,364 620,364 620,364 620,364 620,364 620,364 620,364 620,364 621,364 621,364 621,364 621,364 621,364 621,364 621,364 621,364 621,364 621,364 621,364 621,364 621,364 622,364 622,364 622,364 622,364 622,364 622,364 622,364 622,364 622,364 622,364 622,364 622,364 622,364 623,364 623,364 623,364 623,364 623,364 623,364 623,365 623,365 623,365 623,365 623,365 623,365 623,365 624,365 624,365 624,365 624,365 624,365 624,365 624,365 624,365 624,365 624,365 624,365 624,365 624,365 625,365 625,365 625,365 625,364 625,365 625,365 625,365 625,365 625,365 625,365 625,365 625,365 625,365 626,365 626,365 626,364 626,365 626,365 626,365 626,365 626,365 626,365 626,365 626,365 626,365 627,365 627,365 627,365 627,365 627,365 627,365 627,365 627,365 627,365 627,365 627,365 627,365 627,365 628,365 628,365 628,365 628,365 628,365 628,365 628,365 628,365 628,364 628,364 628,364 628,364 628,364 629,364 629,364 629,364 629,364 629,364 629,364 629,364 629,364 629,364 629,364 629,364 629,364 629,364 630,364 630,364 630,364 630,364 630,364 630,364 630,364 630,364 630,365 630,365 630,365 630,365 630,365 631,364 631,364 631,364 631,364 631,364 631,364 631,364 631,364 631,364 631,364 631,364 631,364 631,364 632,364 632,364 632,364 632,364 632,364 632,364 632,364 632,364 632,364 632,364 632,364 632,364 632,364 633,365 633,365 633,365 633,365 633,365 633,365 633,364 633,364 633,364 633,364 633,364 633,365 633,365 634,365 634,365 634,365 634,365 634,365 634,365 634,365 634,365 634,365 634,365 634,365 634,365 634,365 635,365 635,365 635,365 635,365 635,365 635,364 635,364 635,364 635,365 635,365 635,365 635,364 635,364 636,364 636,364 636,365 636,365 636,365 636,365 636,365 636,365 636,365 636,365 636,365 636,365 636,365 637,365 637,365 637,365 637,365 637,365 637,365 637,365 637,365 637,365 637,365 637,365 637,365 637,365 638,365 638,365 638,365 638,365 638,365 638,365 638,365 638,365 638,365 638,365 638,365 638,364 638,364 639,364 639,365 639,364 639,365 639,365 639,365 639,365 639,365 639,364 639,364 639,364 639,364 639,364 640,364 640,364 640,364 640,364 640,364 640,364 640,364 640,364 640,364 640,364 640,364 640,364 640,365 641,365 641,365 641,365 641,365 641,365 641,365 641,365 641,365 641,365 641,365 641,365 641,365 641,365 642,365 642,365 642,365 642,365 642,365 642,365 642,365 642,365 642,365 642,365 642,365 642,365 643,365 643,365 643,365 643,366 643,366 643,366 643,366 643,366 643,366 643,366 643,366 643,365 643,365 644,365 644,365 644,365 644,365 644,365 644,365 644,365 644,365 644,365 644,365 644,365 644,365 644,365 645,365 645,365 645,365 645,365 645,365 645,365 645,365 645,365 645,365 645,365 645,365 645,365 645,365 646,365 646,365 646,365 646,365 646,365 646,365 646,365 646,365 646,365 646,365 646,365 646,365 646,365 647,365 647,365 647,365 647,365 647,365 647,365 647,365 647,365 647,365 647,365 647,365 647,365 647,365 648,365 648,365 648,365 648,365 648,365 648,365 648,365 648,365 648,365 648,365 648,365 648,365 648,365 649,365 649,365 649,365 649,366 649,366 649,366 649,365 649,365 649,365 649,365 649,365 649,365 649,365 650,365 650,365 650,365 650,365 650,365 650,365 650,365 650,366 650,366 650,366 650,365 650,365 650,365 651,365 651,365 651,365 651,365 651,366 651,366 651,366 651,366 651,366 651,366 651,366 651,366 651,366 652,366 652,366 652,366 652,366 652,366 652,366 652,366 652,366 652,366 652,366 652,366 652,366 652,366 653,366 653,366 653,366 653,366 653,366 653,366 653,366 653,366 653,366 653,366 653,366 653,366 653,366 654,366 654,366 654,366 654,366 654,365 654,365 654,365 654,365 654,365 654,365 654,365 654,365 654,365 655,365 655,365 655,365 655,365 655,366 655,366 655,366 655,366 655,366 655,366 655,366 655,366 655,366 656,366 656,366 656,366 656,366 656,366 656,366 656,366 656,366 656,366 656,366 656,366 656,366 656,366 657,366 657,366 657,366 657,366 657,366 657,366 657,366 657,366 657,366 657,366 657,366 657,366 657,366 658,366 658,366 658,366 658,366 658,366 658,366 658,366 658,366 658,366 658,366 658,366 658,366 659,366 659,366 659,366 659,366 659,366 659,366 659,366 659,366 659,366 659,366 659,366 659,366 659,366 660,366 660,366 660,366 660,366 660,366 660,366 660,366 660,366 660,366 660,366 660,366 660,366 660,366 661,366 661,366 661,366 661,366 661,366 661,366 661,366 661,366 661,366 661,366 661,366 661,366 661,366 662,366 662,366 662,366 662,366 662,366 662,366 662,366 662,366 662,366 662,366 662,366 662,366 662,366 663,366 663,366 663,366 663,366 663,366 663,366 663,366 663,366 663,366 663,366 663,366 663,366 663,366 664,366 664,366 664,366 664,366 664,366 664,366 664,366 664,366 664,366 664,366 664,366 664,366 664,366 665,366 665,366 665,366 665,366 665,366 665,366 665,366 665,366 665,366 665,366 665,366 665,366 665,366 666,366 666,366 666,366 666,366 666,366 666,366 666,366 666,366 666,366 666,366 666,366 666,366 666,366 667,366 667,366 667,366 667,366 667,366 667,366 667,366 667,366 667,366 667,366 667,366 667,366 667,366 668,366 668,366 668,366 668,365 668,365 668,365 668,365 668,365 668,365 668,365 668,365 668,364 668,364 669,364 669,364 669,364 669,364 669,364 669,364 669,364 669,364 669,364 669,364 669,364 669,364 669,364 670,364 670,364 670,364 670,364 670,364 670,364 670,364 670,364 670,364 670,364 670,364 670,364 670,364 671,364 671,364 671,364 671,364 671,364 671,364 671,364 671,364 671,364 671,365 671,365 671,365 671,365 672,365 672,365 672,365 672,365 672,365 672,366 672,366 672,366 672,365 672,365 672,365 672,366 672,366 673,366 673,366 673,366 673,366 673,366 673,366 673,366 673,366 673,366 673,366 673,366 673,366 673,366 674,366 674,366 674,366 674,366 674,366 674,366 674,366 674,366 674,366 674,366 674,366 674,366 675,366 675,366 675,366 675,366 675,366 675,366 675,366 675,366 675,366 675,366 675,366 675,366 675,366 676,366 676,366 676,366 676,366 676,366 676,366 676,366 676,366 676,366 676,366 676,366 676,366 676,366 677,365 677,365 677,365 677,365 677,365 677,365 677,365 677,365 677,365 677,365 677,365 677,365 677,364 678,364 678,364 678,364 678,364 678,364 678,364 678,364 678,364 678,365 678,365 678,365 678,365 678,365 679,365 679,365 679,365 679,365 679,365 679,365 679,365 679,365 679,365 679,365 679,365 679,365 679,365 680,365 680,365 680,365 680,365 680,365 680,365 680,364 680,364 680,364 680,364 680,364 680,364 680,364 681,364 681,364 681,364 681,364 681,364 681,364 681,364 681,364 681,364 681,364 681,364 681,364 681,364 682,364 682,364 682,364 682,364 682,364 682,364 682,364 682,364 682,364 682,364 682,364 682,364 682,364 683,364 683,364 683,364 683,364 683,364 683,364 683,364 683,364 683,364 683,364 683,364 683,364 683,364 684,364 684,364 684,364 684,364 684,364 684,364 684,364 684,364 684,364 684,364 684,364 684,364 684,364 685,364 685,364 685,364 685,364 685,364 685,364 685,364 685,364 685,364 685,364 685,364 685,364 685,364 686,364 686,364 686,364 686,365 686,365 686,365 686,365 686,365 686,365 686,365 686,365 686,365 686,365 687,365 687,365 687,366 687,366 687,366 687,366 687,366 687,366 687,366 687,366 687,366 687,366 687,366 688,366 688,366 688,366 688,366 688,366 688,366 688,366 688,367 688,367 688,367 688,367 688,367 688,367 689,367 689,367 689,367 689,367 689,367 689,367 689,367 689,367 689,367 689,367 689,367 689,367 689,367 690,367 690,367 690,367 690,367 690,367 690,367 690,367 690,367 690,367 690,367 690,367 690,367 691,367 691,367 691,367 691,367 691,367 691,367 691,367 691,367 691,367 691,367 691,367 691,367 691,367 692,367 692,367 692,368 692,368 692,368 692,368 692,368 692,368 692,368 692,368 692,368 692,368 692,368 693,368 693,368 693,368 693,368 693,368 693,368 693,368 693,368 693,368 693,368 693,368 693,368 693,368 694,368 694,368 694,368 694,368 694,368 694,368 694,368 694,368 694,368 694,368 694,368 694,368 694,368 695,368 695,368 695,368 695,368 695,368 695,368 695,368 695,369 695,369 695,369 695,369 695,369 695,369 696,369 696,369 696,369 696,369 696,369 696,369 696,369 696,369 696,369 696,369 696,369 696,369 696,369 697,369 697,369 697,369 697,369 697,369 697,369 697,369 697,369 697,369 697,369 697,369 697,369 697,369 698,369 698,369 698,369 698,369 698,369 698,369 698,369 698,369 698,369 698,369 698,369 698,369 698,369 699,369 699,369 699,369 699,369 699,369 699,369 699,369 699,369 699,369 699,369 699,369 699,369 699,369 700,369 700,369 700,369 700,369 700,369 700,369 700,369 700,369 700,369 700,369 700,369 700,369 700,369 701,369 701,369 701,369 701,369 701,369 701,369 701,369 701,369 701,369 701,369 701,369 701,369 701,369 702,369 702,369 702,369 702,369 702,369 702,369 702,369 702,369 702,369 702,369 702,369 702,369 702,369 703,369 703,369 703,369 703,369 703,369 703,369 703,369 703,369 703,369 703,369 703,369 703,369 703,368 704,368 704,368 704,368 704,368 704,368 704,368 704,368 704,368 704,368 704,368 704,368 704,368 704,368 705,368 705,368 705,368 705,368 705,368 705,368 705,368 705,368 705,368 705,368 705,368 705,368 705,368 706,368 706,368 706,367 706,368 706,368 706,368 706,368 706,367 706,367 706,367 706,367 706,367 707,367 707,367 707,366 707,366 707,366 707,366 707,366 707,366 707,366 707,366 707,366 707,366 707,366 708,366 708,366 708,366 708,366 708,366 708,366 708,366 708,366 708,366 708,366 708,366 708,366 708,366 709,366 709,366 709,366 709,366 709,366 709,366 709,366 709,366 709,366 709,366 709,366 709,365 709,365 710,365 710,365 710,365 710,365 710,365 710,365 710,364 710,364 710,364 710,364 710,364 710,364 710,364 711,364 711,364 711,364 711,364 711,364 711,364 711,364 711,363 711,363 711,363 711,363 711,363 711,363 712,363 712,363 712,363 712,362 712,362 712,362 712,362 712,362 712,362 712,362 712,362 712,362 712,361 713,361 713,361 713,361 713,361 713,361 713,361 713,361 713,361 713,361 713,361 713,361 713,361 713,361 714,361 714,361 714,361 714,360 714,360 714,360 714,360 714,360 714,360 714,360 714,360 714,360 714,360 715,360 715,360 715,360 715,360 715,360 715,359 715,359 715,359 715,359 715,359 715,359 715,359 715,359 716,359 716,359 716,359 716,359 716,359 716,359 716,359 716,359 716,359 716,359 716,359 716,359 716,359 717,359 717,359 717,359 717,359 717,359 717,359 717,359 717,359 717,359 717,359 717,359 717,359 717,359 718,359 718,359 718,359 718,359 718,359 718,359 718,360 718,360 718,360 718,360 718,360 718,360 718,360 719,360 719,360 719,360 719,361 719,361 719,361 719,361 719,361 719,361 719,361 719,361 719,361 719,362 720,362 720,362 720,362 720,362 720,362 720,362 720,362 720,362 720,362 720,363 720,363 720,363 720,363 721,363 721,363 721,363 721,363 721,363 721,363 721,363 721,363 721,363 721,363 721,363 721,363 721,363 722,363 722,363 722,363 722,363 722,363 722,363 722,363 722,363 722,362 722,362 722,362 722,362 723,362 723,362 723,362 723,362 723,362 723,362 723,362 723,362 723,362 723,362 723,362 723,362 723,362 724,362 724,362 724,362 724,362 724,362 724,362 724,362 724,362 724,362 724,362 724,362 724,362 724,362 725,362 725,362 725,362 725,361 725,361 725,361 725,361 725,361 725,361 725,361 725,361 725,361 725,361 726,361 726,361 726,361 726,361 726,361 726,362 726,362 726,362 726,362 726,362 726,362 726,362 726,362 727,362 727,363 727,363 727,363 727,363 727,362 727,362 727,362 727,362 727,362 727,362 727,362 727,362 728,363 728,363 728,363 728,363 728,363 728,363 728,363 728,363 728,363 728,363 728,363 728,363 728,363 729,363 729,363 729,363 729,364 729,364 729,364 729,364 729,364 729,364 729,364 729,364 729,364 729,364 730,364 730,365 730,365 730,365 730,365 730,365 730,365 730,365 730,365 730,365 730,366 730,366 730,366 731,366 731,366 731,366 731,366 731,366 731,366 731,367 731,367 731,367 731,367 731,367 731,367 731,367 732,367 732,367 732,367 732,367 732,367 732,367 732,368 732,368 732,368 732,368 732,368 732,368 732,368 733,368 733,368 733,368 733,368 733,368 733,368 733,368 733,369 733,369 733,369 733,369 733,369 733,368 734,368 734,368 734,368 734,368 734,368 734,368 734,368 734,368 734,368 734,368 734,368 734,368 734,368 735,368 735,368 735,368 735,369 735,369 735,369 735,369 735,369 735,369 735,369 735,369 735,369 735,369 736,369 736,369 736,369 736,368 736,368 736,368 736,368 736,368 736,368 736,368 736,368 " vector-effect="non-scaling-stroke"></polyline>
</g></svg>