<?xml version="1.0" encoding="UTF-8" standalone="no"?><svg width="282.222mm" height="141.111mm" xmlns="http://www.w3.org/2000/svg" xmlns:xlink="http://www.w3.org/1999/xlink"  version="1.2" baseProfile="tiny"><g fill="none" stroke="#ff0000" stroke-linecap="round" stroke-linejoin="round" stroke-opacity="1" stroke-width="1.5" transform="matrix(1,0,0,1,0,0)">
<polyline fill="none" points="27,227 27,227 27,227 27,226 27,226 27,226 27,225 27,225 28,224 28,224 28,224 28,223 28,223 28,222 28,222 28,222 28,221 28,221 28,220 28,220 28,219 29,219 29,218 29,217 29,217 29,217 29,216 29,216 29,215 29,215 29,215 29,215 29,216 29,216 30,216 30,215 30,215 30,215 30,215 30,215 30,215 30,215 30,215 30,215 30,215 30,215 30,215 31,215 31,215 31,215 31,215 31,215 31,215 31,215 31,216 31,216 31,216 31,216 31,216 31,216 32,215 32,214 32,214 32,214 32,214 32,214 32,214 32,214 32,213 32,212 32,211 32,210 32,210 33,210 33,210 33,209 33,209 33,209 33,209 33,209 33,208 33,208 33,207 33,207 33,207 33,206 34,206 34,206 34,205 34,204 34,203 34,202 34,201 34,201 34,200 34,199 34,199 34,199 34,198 35,198 35,197 35,196 35,196 35,195 35,194 35,193 35,193 35,192 35,192 35,191 35,191 36,190 36,189 36,188 36,187 36,186 36,186 36,185 36,184 36,184 36,185 36,185 36,185 36,185 37,185 37,184 37,184 37,184 37,185 37,185 37,185 37,185 37,186 37,186 37,187 37,187 37,188 38,188 38,189 38,190 38,191 38,192 38,192 38,192 38,192 38,192 38,191 38,190 38,190 38,189 39,188 39,186 39,185 39,184 39,183 39,183 39,182 39,182 39,181 39,180 39,180 39,179 39,179 40,178 40,178 40,178 40,178 40,178 40,178 40,178 40,177 40,177 40,177 40,176 40,176 40,176 41,176 41,176 41,176 41,176 41,176 41,176 41,176 41,176 41,176 41,176 41,176 41,176 41,177 42,177 42,177 42,177 42,177 42,177 42,177 42,178 42,178 42,178 42,178 42,178 42,178 42,178 43,178 43,179 43,179 43,179 43,179 43,179 43,179 43,179 43,179 43,179 43,179 43,179 43,180 44,180 44,180 44,180 44,180 44,180 44,180 44,180 44,179 44,179 44,179 44,180 44,180 44,180 45,180 45,180 45,180 45,180 45,180 45,180 45,180 45,180 45,180 45,180 45,180 45,181 45,181 46,181 46,181 46,181 46,181 46,181 46,181 46,181 46,181 46,181 46,181 46,181 46,181 46,182 47,182 47,182 47,182 47,182 47,182 47,182 47,182 47,182 47,182 47,182 47,182 47,182 47,182 48,183 48,183 48,183 48,183 48,184 48,184 48,184 48,185 48,185 48,185 48,185 48,186 48,186 49,186 49,186 49,186 49,187 49,187 49,187 49,187 49,187 49,188 49,188 49,188 49,188 49,188 50,189 50,189 50,189 50,189 50,189 50,190 50,190 50,190 50,190 50,190 50,190 50,191 51,191 51,191 51,191 51,191 51,191 51,192 51,192 51,192 51,192 51,192 51,192 51,193 51,193 52,193 52,193 52,193 52,193 52,193 52,193 52,193 52,194 52,193 52,193 52,193 52,193 52,193 53,193 53,193 53,193 53,193 53,193 53,192 53,192 53,192 53,192 53,192 53,192 53,191 53,191 54,191 54,191 54,191 54,191 54,191 54,190 54,190 54,190 54,190 54,190 54,190 54,190 54,190 55,190 55,190 55,190 55,190 55,189 55,189 55,189 55,189 55,189 55,188 55,188 55,188 55,188 56,188 56,188 56,187 56,187 56,187 56,187 56,187 56,187 56,187 56,187 56,187 56,187 56,187 57,187 57,187 57,187 57,187 57,187 57,187 57,187 57,187 57,186 57,186 57,187 57,187 57,187 58,187 58,187 58,187 58,187 58,187 58,187 58,187 58,187 58,188 58,188 58,188 58,188 58,188 59,188 59,189 59,189 59,189 59,189 59,189 59,189 59,189 59,189 59,189 59,189 59,189 59,190 60,190 60,190 60,190 60,190 60,191 60,191 60,191 60,191 60,191 60,192 60,192 60,192 60,192 61,192 61,193 61,193 61,193 61,193 61,194 61,194 61,194 61,195 61,195 61,195 61,195 61,196 62,196 62,196 62,197 62,197 62,198 62,198 62,198 62,199 62,199 62,199 62,200 62,200 62,200 63,200 63,200 63,200 63,200 63,200 63,200 63,201 63,201 63,201 63,201 63,201 63,201 63,201 64,202 64,202 64,202 64,202 64,202 64,203 64,203 64,203 64,203 64,204 64,204 64,204 64,204 65,204 65,204 65,204 65,204 65,204 65,204 65,204 65,205 65,205 65,205 65,205 65,205 66,205 66,205 66,205 66,206 66,206 66,206 66,206 66,206 66,206 66,207 66,207 66,207 66,207 67,208 67,208 67,208 67,208 67,209 67,210 67,210 67,211 67,212 67,214 67,215 67,215 67,215 68,215 68,215 68,215 68,214 68,213 68,213 68,213 68,213 68,212 68,212 68,212 68,211 68,211 69,211 69,212 69,212 69,213 69,214 69,214 69,214 69,214 69,214 69,214 69,214 69,214 69,214 70,214 70,213 70,213 70,212 70,211 70,211 70,211 70,211 70,211 70,211 70,211 70,211 70,211 71,211 71,211 71,211 71,211 71,211 71,211 71,211 71,211 71,211 71,211 71,211 71,211 71,211 72,211 72,211 72,211 72,211 72,211 72,211 72,211 72,211 72,211 72,211 72,211 72,211 72,210 73,210 73,210 73,211 73,211 73,211 73,211 73,211 73,211 73,211 73,211 73,212 73,212 73,212 74,212 74,212 74,213 74,213 74,213 74,213 74,213 74,214 74,214 74,214 74,214 74,214 74,214 75,215 75,215 75,215 75,215 75,215 75,215 75,215 75,215 75,215 75,215 75,215 75,215 75,215 76,214 76,214 76,214 76,214 76,213 76,213 76,213 76,213 76,213 76,212 76,212 76,212 76,212 77,212 77,212 77,212 77,212 77,212 77,212 77,213 77,213 77,213 77,213 77,213 77,214 77,214 78,214 78,214 78,214 78,215 78,215 78,215 78,215 78,215 78,216 78,216 78,216 78,216 78,216 79,217 79,217 79,217 79,217 79,217 79,218 79,218 79,218 79,218 79,218 79,218 79,218 79,218 80,218 80,218 80,218 80,218 80,218 80,218 80,218 80,218 80,218 80,218 80,218 80,218 80,218 81,218 81,218 81,218 81,218 81,219 81,219 81,219 81,219 81,219 81,219 81,219 81,219 82,218 82,218 82,218 82,218 82,218 82,218 82,217 82,217 82,217 82,217 82,217 82,217 82,217 83,216 83,216 83,216 83,216 83,216 83,217 83,217 83,217 83,217 83,217 83,217 83,217 83,217 84,217 84,217 84,217 84,217 84,217 84,217 84,217 84,217 84,217 84,217 84,217 84,217 84,217 85,217 85,217 85,217 85,217 85,217 85,217 85,217 85,216 85,216 85,216 85,216 85,217 85,217 86,217 86,217 86,217 86,217 86,217 86,217 86,217 86,217 86,217 86,216 86,216 86,216 86,216 87,216 87,216 87,216 87,216 87,216 87,216 87,215 87,215 87,215 87,215 87,215 87,215 87,215 88,215 88,215 88,214 88,214 88,214 88,214 88,214 88,214 88,214 88,214 88,213 88,213 88,213 89,213 89,213 89,212 89,212 89,212 89,212 89,212 89,211 89,211 89,211 89,211 89,211 89,210 90,210 90,210 90,210 90,210 90,209 90,209 90,209 90,209 90,209 90,208 90,208 90,208 90,208 91,208 91,207 91,207 91,207 91,206 91,206 91,206 91,206 91,205 91,205 91,205 91,204 91,204 92,204 92,204 92,203 92,203 92,203 92,202 92,202 92,202 92,202 92,202 92,202 92,202 92,202 93,202 93,202 93,202 93,202 93,202 93,202 93,202 93,202 93,202 93,201 93,200 93,200 93,199 94,199 94,199 94,199 94,199 94,199 94,198 94,198 94,197 94,197 94,196 94,196 94,196 94,196 95,196 95,196 95,196 95,195 95,195 95,195 95,195 95,195 95,195 95,194 95,194 95,194 95,194 96,194 96,194 96,194 96,194 96,194 96,194 96,194 96,193 96,193 96,193 96,192 96,192 97,192 97,192 97,192 97,192 97,192 97,192 97,192 97,192 97,192 97,192 97,192 97,192 97,193 98,192 98,192 98,192 98,192 98,192 98,192 98,192 98,192 98,192 98,192 98,192 98,192 98,192 99,192 99,192 99,193 99,193 99,193 99,193 99,193 99,193 99,193 99,193 99,193 99,193 99,193 100,193 100,193 100,193 100,193 100,193 100,193 100,193 100,194 100,194 100,193 100,193 100,193 100,193 101,194 101,194 101,195 101,195 101,195 101,195 101,195 101,196 101,196 101,196 101,197 101,197 101,198 102,198 102,199 102,199 102,200 102,201 102,201 102,202 102,202 102,203 102,203 102,204 102,204 102,205 103,205 103,206 103,206 103,206 103,207 103,207 103,207 103,208 103,208 103,208 103,208 103,209 103,209 104,209 104,209 104,209 104,209 104,209 104,209 104,209 104,209 104,209 104,209 104,209 104,209 104,208 105,208 105,208 105,208 105,207 105,208 105,208 105,208 105,208 105,208 105,208 105,208 105,208 105,208 106,208 106,208 106,208 106,209 106,209 106,209 106,209 106,209 106,209 106,209 106,209 106,209 106,209 107,209 107,209 107,208 107,208 107,208 107,208 107,207 107,207 107,207 107,207 107,207 107,208 107,208 108,208 108,209 108,209 108,209 108,210 108,210 108,211 108,211 108,212 108,212 108,213 108,213 108,214 109,215 109,215 109,216 109,216 109,217 109,217 109,218 109,218 109,219 109,219 109,220 109,220 109,220 110,220 110,220 110,221 110,221 110,222 110,222 110,222 110,222 110,222 110,223 110,223 110,223 110,224 111,224 111,224 111,225 111,225 111,226 111,226 111,226 111,226 111,227 111,227 111,227 111,227 112,228 112,228 112,228 112,228 112,228 112,228 112,229 112,229 112,229 112,229 112,229 112,229 112,229 113,229 113,230 113,230 113,230 113,230 113,230 113,230 113,230 113,230 113,230 113,231 113,231 113,231 114,231 114,231 114,232 114,232 114,232 114,232 114,232 114,232 114,232 114,232 114,232 114,233 114,233 115,233 115,233 115,234 115,234 115,234 115,234 115,234 115,235 115,235 115,235 115,235 115,236 115,236 116,236 116,236 116,236 116,236 116,237 116,237 116,237 116,237 116,238 116,238 116,238 116,238 116,238 117,239 117,239 117,239 117,240 117,240 117,240 117,239 117,239 117,239 117,239 117,238 117,238 117,238 118,238 118,238 118,238 118,238 118,238 118,238 118,237 118,237 118,237 118,236 118,236 118,236 118,236 119,236 119,236 119,236 119,236 119,236 119,236 119,236 119,236 119,236 119,235 119,235 119,235 119,234 120,234 120,234 120,233 120,233 120,232 120,232 120,231 120,231 120,231 120,231 120,231 120,231 120,231 121,231 121,231 121,231 121,231 121,231 121,231 121,231 121,231 121,231 121,230 121,230 121,230 121,230 122,230 122,229 122,229 122,229 122,229 122,229 122,228 122,228 122,228 122,228 122,228 122,227 122,227 123,227 123,227 123,227 123,227 123,227 123,227 123,227 123,227 123,227 123,227 123,227 123,227 123,227 124,227 124,227 124,226 124,226 124,226 124,226 124,225 124,225 124,225 124,224 124,224 124,223 124,223 125,222 125,222 125,222 125,221 125,221 125,220 125,220 125,219 125,219 125,218 125,218 125,217 125,217 126,216 126,216 126,215 126,215 126,214 126,214 126,214 126,213 126,213 126,212 126,212 126,211 127,211 127,211 127,210 127,210 127,209 127,209 127,209 127,209 127,208 127,208 127,207 127,207 127,207 128,206 128,206 128,206 128,206 128,206 128,205 128,205 128,205 128,205 128,206 128,206 128,206 128,206 129,206 129,206 129,206 129,206 129,206 129,207 129,207 129,207 129,207 129,207 129,207 129,207 129,207 130,207 130,207 130,207 130,207 130,207 130,206 130,206 130,206 130,206 130,206 130,206 130,207 130,207 131,207 131,207 131,207 131,207 131,207 131,208 131,208 131,208 131,208 131,208 131,208 131,208 131,208 132,208 132,209 132,209 132,209 132,209 132,209 132,209 132,208 132,208 132,208 132,208 132,208 132,207 133,207 133,207 133,207 133,207 133,206 133,206 133,206 133,206 133,206 133,206 133,206 133,206 133,205 134,205 134,205 134,205 134,206 134,206 134,206 134,206 134,206 134,206 134,207 134,207 134,207 134,208 135,208 135,209 135,209 135,209 135,210 135,210 135,211 135,211 135,211 135,212 135,212 135,213 135,213 136,213 136,213 136,213 136,212 136,212 136,212 136,212 136,211 136,211 136,211 136,211 136,211 136,211 137,211 137,210 137,210 137,210 137,210 137,209 137,209 137,209 137,209 137,209 137,209 137,209 137,209 138,208 138,208 138,207 138,207 138,206 138,206 138,206 138,205 138,205 138,205 138,205 138,205 138,205 139,204 139,204 139,204 139,203 139,204 139,204 139,204 139,204 139,204 139,204 139,204 139,204 139,204 140,204 140,204 140,203 140,203 140,203 140,203 140,203 140,202 140,202 140,202 140,202 140,201 140,201 141,201 141,201 141,201 141,200 141,200 141,200 141,200 141,199 141,199 141,199 141,199 141,199 141,198 142,198 142,198 142,197 142,197 142,197 142,196 142,196 142,196 142,195 142,195 142,195 142,195 143,194 143,194 143,194 143,193 143,193 143,194 143,194 143,194 143,195 143,195 143,195 143,195 143,195 144,195 144,194 144,194 144,193 144,193 144,192 144,192 144,191 144,191 144,191 144,190 144,190 144,189 145,189 145,188 145,188 145,187 145,187 145,186 145,186 145,185 145,185 145,184 145,184 145,183 145,183 146,183 146,182 146,182 146,182 146,182 146,182 146,182 146,182 146,182 146,182 146,182 146,182 146,182 147,182 147,183 147,183 147,184 147,184 147,185 147,186 147,186 147,187 147,187 147,187 147,188 147,188 148,188 148,189 148,189 148,189 148,190 148,190 148,191 148,191 148,191 148,190 148,190 148,190 148,190 149,189 149,189 149,188 149,188 149,187 149,187 149,186 149,186 149,186 149,186 149,185 149,185 149,185 150,185 150,185 150,185 150,185 150,185 150,185 150,185 150,184 150,184 150,184 150,183 150,183 150,182 151,182 151,181 151,181 151,180 151,180 151,179 151,179 151,178 151,178 151,177 151,176 151,176 151,175 152,175 152,174 152,174 152,174 152,173 152,173 152,173 152,172 152,172 152,172 152,171 152,171 152,171 153,171 153,171 153,171 153,170 153,170 153,170 153,170 153,170 153,170 153,170 153,170 153,170 153,170 154,170 154,170 154,170 154,170 154,170 154,170 154,170 154,170 154,170 154,170 154,170 154,170 154,170 155,170 155,170 155,170 155,170 155,170 155,170 155,170 155,170 155,170 155,170 155,171 155,171 155,171 156,171 156,171 156,171 156,171 156,171 156,171 156,171 156,172 156,172 156,172 156,172 156,172 156,172 157,172 157,172 157,172 157,172 157,172 157,172 157,172 157,172 157,172 157,172 157,172 157,172 158,172 158,172 158,172 158,172 158,172 158,173 158,173 158,173 158,173 158,173 158,173 158,173 158,173 159,174 159,174 159,174 159,174 159,175 159,175 159,175 159,175 159,176 159,176 159,176 159,177 159,177 160,177 160,177 160,177 160,177 160,177 160,177 160,176 160,176 160,176 160,176 160,176 160,176 160,176 161,176 161,176 161,176 161,176 161,176 161,176 161,177 161,177 161,177 161,177 161,177 161,177 161,178 162,178 162,178 162,178 162,179 162,179 162,179 162,179 162,180 162,180 162,180 162,181 162,181 162,181 163,181 163,182 163,182 163,182 163,182 163,183 163,183 163,183 163,184 163,184 163,184 163,184 163,184 164,183 164,183 164,183 164,183 164,183 164,183 164,183 164,184 164,184 164,185 164,185 164,185 164,186 165,186 165,186 165,187 165,187 165,187 165,187 165,187 165,187 165,188 165,189 165,189 165,189 165,189 166,190 166,190 166,190 166,189 166,189 166,189 166,189 166,189 166,189 166,189 166,189 166,189 166,188 167,188 167,188 167,188 167,188 167,188 167,188 167,189 167,188 167,189 167,189 167,189 167,189 167,189 168,190 168,190 168,190 168,190 168,190 168,191 168,191 168,191 168,192 168,192 168,192 168,193 168,193 169,193 169,194 169,194 169,195 169,195 169,196 169,196 169,197 169,197 169,197 169,198 169,198 169,198 170,199 170,199 170,199 170,200 170,200 170,201 170,201 170,202 170,202 170,202 170,203 170,203 170,204 171,204 171,205 171,205 171,206 171,206 171,207 171,207 171,207 171,207 171,208 171,208 171,208 171,208 172,208 172,209 172,209 172,209 172,210 172,210 172,210 172,210 172,211 172,211 172,211 172,211 173,211 173,211 173,211 173,212 173,212 173,211 173,211 173,211 173,211 173,211 173,211 173,211 173,211 174,211 174,211 174,211 174,211 174,210 174,210 174,209 174,209 174,209 174,209 174,210 174,210 174,210 175,211 175,211 175,211 175,212 175,212 175,212 175,213 175,213 175,213 175,214 175,214 175,215 175,215 176,216 176,216 176,215 176,215 176,214 176,214 176,213 176,212 176,211 176,211 176,211 176,211 176,211 177,211 177,211 177,211 177,211 177,211 177,211 177,211 177,210 177,210 177,210 177,210 177,210 177,210 178,210 178,210 178,210 178,210 178,211 178,211 178,211 178,212 178,212 178,212 178,212 178,212 178,212 179,213 179,213 179,213 179,214 179,215 179,215 179,216 179,216 179,217 179,218 179,218 179,218 179,218 180,218 180,218 180,218 180,217 180,217 180,216 180,216 180,215 180,215 180,214 180,213 180,212 180,212 181,211 181,211 181,210 181,209 181,209 181,208 181,208 181,207 181,207 181,207 181,206 181,205 181,205 182,205 182,204 182,204 182,204 182,203 182,203 182,203 182,203 182,203 182,202 182,202 182,202 182,203 183,203 183,203 183,204 183,204 183,205 183,206 183,206 183,207 183,207 183,208 183,208 183,209 183,209 184,210 184,210 184,211 184,212 184,212 184,213 184,213 184,213 184,214 184,214 184,214 184,215 184,215 185,216 185,216 185,216 185,216 185,216 185,216 185,217 185,217 185,217 185,217 185,217 185,218 185,218 186,218 186,219 186,219 186,220 186,220 186,220 186,220 186,221 186,222 186,223 186,225 186,226 186,226 187,227 187,228 187,228 187,227 187,227 187,226 187,225 187,225 187,224 187,224 187,223 187,223 187,222 188,222 188,222 188,222 188,222 188,222 188,223 188,223 188,223 188,223 188,222 188,222 188,222 189,223 189,223 189,223 189,223 189,223 189,223 189,223 189,223 189,224 189,224 189,224 189,225 189,225 190,226 190,226 190,227 190,227 190,228 190,228 190,229 190,230 190,230 190,230 190,230 190,230 190,230 191,230 191,231 191,231 191,231 191,231 191,232 191,232 191,232 191,232 191,232 191,232 191,232 191,232 192,232 192,232 192,232 192,232 192,232 192,232 192,232 192,231 192,231 192,231 192,231 192,231 192,231 193,230 193,230 193,230 193,230 193,229 193,229 193,229 193,229 193,228 193,228 193,228 193,228 193,227 194,227 194,227 194,227 194,226 194,226 194,226 194,226 194,226 194,226 194,225 194,225 194,225 194,225 195,225 195,225 195,225 195,224 195,224 195,224 195,224 195,224 195,224 195,224 195,223 195,224 195,223 196,223 196,223 196,223 196,223 196,223 196,222 196,222 196,222 196,222 196,222 196,222 196,222 196,222 197,222 197,222 197,222 197,222 197,222 197,222 197,222 197,222 197,222 197,222 197,222 197,222 197,222 198,222 198,221 198,221 198,220 198,220 198,219 198,219 198,219 198,218 198,218 198,217 198,216 198,216 199,215 199,215 199,214 199,214 199,213 199,213 199,212 199,212 199,211 199,211 199,210 199,210 199,209 200,209 200,209 200,208 200,208 200,207 200,207 200,206 200,206 200,206 200,205 200,205 200,204 200,204 201,203 201,203 201,203 201,202 201,202 201,201 201,201 201,201 201,200 201,200 201,199 201,199 201,198 202,198 202,198 202,197 202,197 202,196 202,196 202,195 202,195 202,195 202,194 202,194 202,194 202,193 203,193 203,192 203,192 203,192 203,191 203,191 203,191 203,190 203,190 203,190 203,190 203,190 204,190 204,190 204,190 204,190 204,190 204,190 204,190 204,190 204,189 204,189 204,188 204,188 204,188 205,188 205,187 205,187 205,187 205,186 205,186 205,185 205,185 205,184 205,184 205,183 205,183 205,182 206,182 206,181 206,181 206,181 206,180 206,180 206,180 206,180 206,180 206,180 206,180 206,180 206,180 207,179 207,179 207,179 207,178 207,178 207,178 207,178 207,178 207,178 207,178 207,178 207,178 207,178 208,178 208,178 208,179 208,179 208,179 208,180 208,180 208,181 208,181 208,182 208,183 208,183 208,184 209,185 209,185 209,186 209,186 209,187 209,187 209,188 209,188 209,188 209,188 209,189 209,189 209,189 210,189 210,190 210,190 210,191 210,192 210,192 210,193 210,194 210,195 210,196 210,196 210,197 210,197 211,197 211,197 211,197 211,197 211,197 211,197 211,197 211,196 211,196 211,196 211,195 211,195 211,195 212,194 212,194 212,194 212,193 212,193 212,194 212,194 212,194 212,194 212,193 212,192 212,191 212,191 213,191 213,191 213,191 213,191 213,191 213,191 213,191 213,191 213,190 213,190 213,190 213,190 213,189 214,189 214,189 214,189 214,188 214,188 214,188 214,188 214,188 214,187 214,187 214,187 214,187 214,187 215,187 215,187 215,187 215,187 215,187 215,187 215,187 215,187 215,187 215,186 215,186 215,186 215,186 216,186 216,185 216,185 216,185 216,184 216,184 216,184 216,183 216,183 216,183 216,182 216,182 216,182 217,182 217,181 217,181 217,181 217,181 217,181 217,181 217,181 217,181 217,181 217,181 217,181 217,181 218,181 218,181 218,181 218,181 218,181 218,181 218,180 218,180 218,180 218,180 218,179 218,179 219,179 219,179 219,178 219,178 219,178 219,178 219,177 219,177 219,177 219,176 219,176 219,176 219,175 220,175 220,175 220,174 220,174 220,174 220,174 220,174 220,174 220,174 220,174 220,173 220,173 220,173 221,173 221,172 221,172 221,172 221,172 221,171 221,170 221,170 221,170 221,170 221,169 221,169 221,169 222,169 222,169 222,168 222,168 222,168 222,169 222,169 222,168 222,168 222,168 222,168 222,167 222,167 223,166 223,166 223,165 223,165 223,164 223,164 223,163 223,163 223,162 223,161 223,161 223,161 223,160 224,160 224,160 224,159 224,159 224,159 224,158 224,158 224,158 224,158 224,158 224,157 224,157 224,157 225,157 225,157 225,157 225,157 225,157 225,157 225,157 225,157 225,157 225,157 225,156 225,156 225,156 226,156 226,156 226,156 226,156 226,157 226,157 226,157 226,157 226,158 226,158 226,158 226,158 226,159 227,159 227,159 227,159 227,160 227,160 227,161 227,161 227,161 227,162 227,162 227,163 227,163 227,163 228,164 228,165 228,165 228,166 228,166 228,167 228,168 228,168 228,169 228,169 228,170 228,171 228,171 229,172 229,172 229,173 229,174 229,174 229,175 229,175 229,176 229,176 229,177 229,177 229,178 229,179 230,180 230,181 230,182 230,183 230,184 230,185 230,186 230,187 230,188 230,188 230,189 230,189 230,189 231,189 231,189 231,189 231,189 231,188 231,188 231,188 231,187 231,187 231,186 231,185 231,185 231,184 232,184 232,183 232,183 232,183 232,182 232,182 232,182 232,182 232,182 232,182 232,182 232,183 232,183 233,183 233,183 233,183 233,184 233,184 233,185 233,185 233,185 233,185 233,184 233,184 233,184 234,184 234,183 234,183 234,183 234,182 234,182 234,182 234,182 234,182 234,182 234,182 234,181 234,181 235,181 235,181 235,181 235,181 235,181 235,180 235,180 235,180 235,180 235,179 235,179 235,179 235,179 236,179 236,178 236,178 236,178 236,178 236,177 236,177 236,177 236,177 236,177 236,177 236,177 236,177 237,177 237,177 237,177 237,177 237,177 237,177 237,178 237,178 237,178 237,178 237,178 237,178 237,178 238,178 238,178 238,178 238,178 238,178 238,178 238,178 238,178 238,178 238,178 238,178 238,178 238,178 239,178 239,178 239,178 239,178 239,178 239,178 239,178 239,178 239,178 239,179 239,179 239,179 239,179 240,179 240,179 240,179 240,179 240,179 240,179 240,179 240,179 240,179 240,179 240,179 240,179 240,179 241,179 241,179 241,179 241,180 241,180 241,180 241,180 241,180 241,180 241,180 241,180 241,180 241,180 242,181 242,181 242,181 242,181 242,181 242,181 242,181 242,181 242,181 242,181 242,181 242,181 242,182 243,182 243,182 243,182 243,182 243,182 243,182 243,182 243,182 243,182 243,182 243,182 243,183 243,183 244,183 244,183 244,183 244,183 244,182 244,183 244,183 244,183 244,182 244,183 244,183 244,183 244,184 245,184 245,184 245,184 245,184 245,184 245,184 245,184 245,185 245,185 245,185 245,185 245,185 245,185 246,185 246,186 246,186 246,186 246,186 246,186 246,186 246,186 246,186 246,187 246,187 246,187 246,187 247,187 247,187 247,187 247,187 247,188 247,188 247,188 247,188 247,188 247,189 247,189 247,189 247,189 248,190 248,190 248,190 248,190 248,190 248,191 248,191 248,191 248,191 248,191 248,192 248,192 248,193 249,193 249,193 249,193 249,194 249,194 249,194 249,194 249,195 249,195 249,195 249,195 249,195 250,196 250,196 250,196 250,196 250,196 250,196 250,196 250,196 250,197 250,197 250,197 250,197 250,197 251,197 251,198 251,198 251,198 251,198 251,198 251,198 251,198 251,198 251,198 251,198 251,198 251,198 252,198 252,198 252,198 252,198 252,197 252,197 252,197 252,197 252,197 252,197 252,197 252,197 252,197 253,197 253,197 253,197 253,198 253,198 253,198 253,198 253,198 253,199 253,199 253,199 253,199 253,199 254,199 254,200 254,200 254,200 254,200 254,200 254,201 254,201 254,201 254,202 254,202 254,202 254,203 255,203 255,203 255,204 255,204 255,204 255,204 255,204 255,204 255,204 255,204 255,204 255,203 255,203 256,203 256,203 256,203 256,203 256,203 256,203 256,203 256,203 256,203 256,203 256,203 256,203 256,203 257,202 257,202 257,202 257,202 257,202 257,202 257,202 257,202 257,201 257,201 257,201 257,200 257,200 258,200 258,200 258,200 258,200 258,200 258,200 258,200 258,200 258,200 258,200 258,200 258,201 258,201 259,201 259,201 259,201 259,201 259,202 259,202 259,202 259,202 259,202 259,202 259,203 259,203 259,203 260,203 260,203 260,203 260,203 260,203 260,203 260,203 260,203 260,203 260,203 260,203 260,203 260,203 261,203 261,203 261,203 261,203 261,203 261,203 261,203 261,204 261,204 261,204 261,204 261,204 261,204 262,204 262,204 262,204 262,205 262,205 262,205 262,205 262,205 262,205 262,205 262,205 262,206 262,206 263,206 263,206 263,206 263,207 263,207 263,207 263,207 263,208 263,208 263,208 263,209 263,209 263,209 264,210 264,210 264,210 264,211 264,211 264,212 264,212 264,212 264,212 264,212 264,212 264,212 265,212 265,212 265,213 265,213 265,214 265,214 265,214 265,215 265,215 265,215 265,215 265,215 265,215 266,216 266,216 266,216 266,216 266,216 266,216 266,216 266,216 266,216 266,216 266,216 266,216 266,216 267,216 267,216 267,216 267,216 267,216 267,216 267,215 267,215 267,215 267,215 267,215 267,215 267,215 268,215 268,215 268,215 268,215 268,215 268,215 268,215 268,215 268,215 268,215 268,215 268,215 268,215 269,215 269,215 269,215 269,215 269,215 269,215 269,216 269,216 269,216 269,216 269,217 269,217 269,217 270,217 270,217 270,217 270,217 270,217 270,217 270,217 270,217 270,218 270,218 270,218 270,218 270,219 271,219 271,219 271,219 271,220 271,220 271,220 271,220 271,221 271,221 271,221 271,221 271,221 271,222 272,222 272,222 272,222 272,222 272,223 272,223 272,224 272,224 272,225 272,225 272,226 272,226 272,226 273,227 273,227 273,227 273,228 273,228 273,228 273,229 273,229 273,230 273,230 273,231 273,231 273,231 274,232 274,232 274,233 274,233 274,234 274,234 274,235 274,235 274,236 274,236 274,237 274,237 274,238 275,238 275,239 275,240 275,240 275,241 275,242 275,242 275,243 275,244 275,245 275,246 275,246 275,247 276,248 276,248 276,248 276,249 276,249 276,250 276,250 276,251 276,252 276,253 276,254 276,255 276,256 277,257 277,258 277,259 277,259 277,261 277,262 277,263 277,264 277,264 277,264 277,264 277,264 277,265 278,265 278,266 278,267 278,268 278,268 278,268 278,269 278,269 278,270 278,271 278,271 278,272 278,273 279,274 279,275 279,276 279,276 279,277 279,277 279,279 279,281 279,282 279,283 279,283 279,284 280,284 280,285 280,286 280,287 280,288 280,287 280,287 280,287 280,286 280,285 280,284 280,283 280,282 281,282 281,281 281,281 281,281 281,281 281,281 281,281 281,281 281,281 281,281 281,282 281,282 281,282 282,283 282,283 282,283 282,284 282,284 282,284 282,285 282,285 282,286 282,286 282,286 282,287 282,287 283,287 283,288 283,288 283,288 283,288 283,289 283,289 283,289 283,289 283,289 283,290 283,290 283,290 284,290 284,290 284,290 284,290 284,290 284,290 284,291 284,291 284,291 284,291 284,291 284,291 284,292 285,292 285,292 285,292 285,292 285,292 285,292 285,292 285,292 285,292 285,292 285,292 285,292 285,293 286,293 286,293 286,293 286,293 286,294 286,294 286,294 286,294 286,295 286,295 286,295 286,296 286,296 287,296 287,296 287,297 287,297 287,297 287,297 287,297 287,298 287,297 287,298 287,298 287,298 287,298 288,299 288,299 288,300 288,300 288,300 288,301 288,301 288,301 288,301 288,301 288,301 288,301 288,301 289,301 289,301 289,301 289,301 289,301 289,301 289,301 289,300 289,300 289,300 289,300 289,300 289,300 290,300 290,300 290,300 290,300 290,300 290,300 290,300 290,300 290,300 290,300 290,300 290,300 290,300 291,300 291,300 291,299 291,299 291,299 291,299 291,299 291,300 291,300 291,300 291,300 291,300 291,300 292,300 292,300 292,300 292,300 292,301 292,301 292,301 292,302 292,302 292,302 292,302 292,303 292,303 293,303 293,303 293,303 293,303 293,303 293,303 293,303 293,303 293,303 293,303 293,303 293,303 293,304 294,304 294,304 294,304 294,304 294,304 294,304 294,304 294,305 294,305 294,305 294,305 294,305 294,305 295,305 295,305 295,305 295,305 295,305 295,305 295,305 295,305 295,305 295,304 295,304 295,304 296,304 296,304 296,304 296,304 296,304 296,304 296,304 296,304 296,304 296,304 296,304 296,304 296,304 297,304 297,304 297,304 297,304 297,304 297,304 297,304 297,304 297,304 297,304 297,303 297,303 297,303 298,303 298,302 298,302 298,302 298,302 298,302 298,302 298,302 298,302 298,301 298,301 298,301 298,301 299,301 299,301 299,301 299,301 299,301 299,301 299,301 299,300 299,300 299,300 299,300 299,300 299,300 300,300 300,299 300,299 300,299 300,299 300,299 300,299 300,299 300,299 300,299 300,299 300,298 300,298 301,298 301,298 301,299 301,299 301,299 301,299 301,299 301,299 301,299 301,299 301,299 301,299 301,299 302,299 302,299 302,299 302,299 302,298 302,298 302,298 302,298 302,298 302,298 302,297 302,297 302,297 303,296 303,296 303,296 303,296 303,296 303,296 303,296 303,295 303,295 303,295 303,295 303,295 303,295 304,295 304,294 304,294 304,294 304,294 304,294 304,294 304,294 304,294 304,294 304,294 304,294 304,294 305,294 305,294 305,294 305,295 305,295 305,295 305,295 305,295 305,295 305,295 305,295 305,295 305,295 306,295 306,295 306,295 306,295 306,295 306,295 306,295 306,294 306,294 306,294 306,294 306,294 306,293 307,293 307,292 307,292 307,291 307,291 307,291 307,290 307,290 307,290 307,289 307,289 307,289 307,289 308,289 308,289 308,288 308,288 308,288 308,288 308,288 308,288 308,287 308,287 308,287 308,286 308,286 309,286 309,286 309,286 309,285 309,285 309,285 309,285 309,285 309,285 309,284 309,284 309,284 309,284 310,284 310,283 310,283 310,283 310,283 310,283 310,283 310,283 310,283 310,282 310,282 310,282 311,282 311,281 311,281 311,281 311,281 311,281 311,281 311,280 311,280 311,280 311,280 311,280 311,280 312,279 312,279 312,279 312,279 312,279 312,279 312,279 312,278 312,278 312,278 312,278 312,278 312,278 313,278 313,278 313,277 313,277 313,277 313,277 313,276 313,276 313,276 313,276 313,276 313,276 313,276 314,276 314,275 314,275 314,275 314,275 314,275 314,275 314,274 314,274 314,274 314,274 314,274 314,274 315,274 315,274 315,274 315,274 315,274 315,274 315,274 315,274 315,274 315,274 315,274 315,274 315,274 316,274 316,274 316,274 316,274 316,274 316,274 316,274 316,274 316,274 316,274 316,274 316,274 316,274 317,274 317,275 317,275 317,275 317,275 317,275 317,275 317,275 317,275 317,275 317,275 317,275 317,275 318,275 318,275 318,275 318,275 318,275 318,275 318,275 318,276 318,276 318,276 318,276 318,277 318,277 319,277 319,277 319,277 319,277 319,277 319,277 319,277 319,277 319,277 319,277 319,277 319,276 319,276 320,276 320,276 320,276 320,276 320,276 320,276 320,275 320,275 320,275 320,275 320,275 320,275 320,274 321,274 321,274 321,274 321,274 321,273 321,273 321,273 321,273 321,273 321,273 321,273 321,273 321,273 322,273 322,273 322,273 322,274 322,274 322,274 322,274 322,274 322,274 322,275 322,275 322,275 322,275 323,275 323,275 323,275 323,275 323,275 323,275 323,275 323,275 323,275 323,274 323,274 323,274 323,274 324,274 324,273 324,273 324,273 324,273 324,273 324,273 324,273 324,274 324,274 324,274 324,274 324,274 325,275 325,275 325,275 325,275 325,275 325,275 325,275 325,275 325,275 325,276 325,276 325,276 326,276 326,276 326,276 326,276 326,277 326,277 326,278 326,278 326,278 326,278 326,278 326,279 326,279 327,279 327,279 327,279 327,279 327,280 327,280 327,280 327,280 327,280 327,281 327,281 327,281 327,282 328,282 328,282 328,282 328,282 328,282 328,282 328,282 328,282 328,282 328,282 328,282 328,282 328,283 329,283 329,283 329,283 329,283 329,283 329,284 329,284 329,284 329,284 329,285 329,285 329,285 329,285 330,285 330,285 330,285 330,285 330,285 330,285 330,285 330,285 330,286 330,286 330,286 330,286 330,286 331,286 331,286 331,286 331,286 331,286 331,285 331,285 331,285 331,285 331,285 331,285 331,285 331,284 332,284 332,284 332,284 332,284 332,284 332,284 332,284 332,284 332,284 332,284 332,284 332,284 332,284 333,284 333,284 333,284 333,284 333,284 333,284 333,284 333,284 333,284 333,284 333,285 333,285 333,285 334,285 334,285 334,285 334,285 334,285 334,285 334,285 334,285 334,285 334,285 334,285 334,285 334,285 335,285 335,285 335,285 335,285 335,285 335,285 335,285 335,285 335,285 335,285 335,285 335,286 335,286 336,286 336,286 336,286 336,286 336,286 336,286 336,286 336,286 336,286 336,286 336,286 336,286 336,286 337,285 337,285 337,285 337,285 337,285 337,285 337,285 337,285 337,285 337,285 337,285 337,285 337,285 338,285 338,285 338,285 338,285 338,285 338,285 338,285 338,285 338,285 338,285 338,285 338,286 338,286 339,286 339,286 339,286 339,285 339,286 339,286 339,286 339,286 339,286 339,286 339,286 339,287 339,287 340,286 340,286 340,286 340,286 340,286 340,286 340,285 340,285 340,285 340,285 340,286 340,286 341,286 341,286 341,286 341,286 341,286 341,286 341,286 341,286 341,286 341,286 341,286 341,286 341,286 342,286 342,286 342,286 342,286 342,286 342,286 342,286 342,287 342,287 342,287 342,287 342,287 342,286 343,286 343,286 343,286 343,285 343,285 343,285 343,285 343,285 343,285 343,285 343,285 343,284 343,284 344,284 344,283 344,283 344,283 344,283 344,282 344,282 344,282 344,281 344,281 344,281 344,281 344,281 345,281 345,281 345,281 345,281 345,281 345,281 345,280 345,280 345,280 345,280 345,280 345,279 345,279 346,279 346,278 346,278 346,278 346,278 346,277 346,277 346,277 346,277 346,277 346,276 346,276 346,276 347,276 347,276 347,276 347,275 347,275 347,275 347,275 347,275 347,275 347,275 347,276 347,276 347,276 348,275 348,275 348,275 348,275 348,275 348,276 348,276 348,276 348,275 348,275 348,275 348,275 348,275 349,275 349,275 349,275 349,275 349,275 349,275 349,275 349,275 349,275 349,275 349,275 349,275 349,275 350,275 350,275 350,275 350,275 350,275 350,275 350,275 350,276 350,276 350,276 350,276 350,276 350,276 351,276 351,276 351,277 351,277 351,277 351,277 351,277 351,278 351,278 351,278 351,278 351,278 351,278 352,278 352,278 352,279 352,279 352,279 352,279 352,279 352,279 352,279 352,279 352,280 352,280 352,280 353,280 353,280 353,281 353,281 353,282 353,282 353,282 353,282 353,283 353,283 353,283 353,283 353,283 354,283 354,284 354,284 354,284 354,283 354,283 354,283 354,283 354,283 354,283 354,282 354,282 354,282 355,281 355,281 355,281 355,280 355,280 355,280 355,279 355,279 355,279 355,278 355,278 355,278 355,277 356,277 356,277 356,276 356,276 356,276 356,275 356,275 356,274 356,274 356,274 356,274 356,273 357,273 357,273 357,273 357,273 357,273 357,272 357,272 357,272 357,272 357,272 357,272 357,271 357,271 358,271 358,271 358,270 358,270 358,269 358,269 358,269 358,268 358,268 358,268 358,267 358,267 358,267 359,267 359,267 359,266 359,266 359,266 359,266 359,266 359,266 359,266 359,266 359,266 359,266 359,266 360,267 360,267 360,267 360,267 360,268 360,268 360,268 360,268 360,268 360,269 360,269 360,269 360,269 361,269 361,270 361,270 361,271 361,271 361,270 361,270 361,270 361,270 361,270 361,270 361,270 361,270 362,270 362,270 362,270 362,270 362,270 362,270 362,270 362,269 362,269 362,269 362,269 362,269 362,269 363,269 363,268 363,268 363,268 363,268 363,268 363,268 363,267 363,267 363,267 363,267 363,267 363,267 364,267 364,267 364,267 364,267 364,266 364,266 364,266 364,266 364,266 364,266 364,266 364,266 364,266 365,266 365,265 365,265 365,265 365,265 365,265 365,264 365,264 365,264 365,264 365,265 365,265 365,265 366,265 366,265 366,265 366,264 366,264 366,264 366,264 366,264 366,264 366,264 366,264 366,264 366,264 367,264 367,264 367,264 367,264 367,264 367,263 367,263 367,263 367,263 367,263 367,263 367,263 367,263 368,263 368,263 368,263 368,262 368,262 368,262 368,262 368,262 368,262 368,262 368,263 368,263 368,263 369,263 369,263 369,263 369,263 369,263 369,263 369,263 369,262 369,262 369,262 369,262 369,262 369,262 370,262 370,262 370,262 370,262 370,263 370,263 370,263 370,263 370,263 370,263 370,263 370,263 370,264 371,264 371,264 371,264 371,264 371,264 371,264 371,264 371,264 371,265 371,265 371,265 371,265 372,265 372,265 372,265 372,265 372,265 372,266 372,266 372,266 372,266 372,266 372,267 372,267 372,267 373,267 373,267 373,267 373,267 373,267 373,268 373,268 373,268 373,268 373,269 373,269 373,269 373,269 374,269 374,269 374,269 374,269 374,269 374,269 374,269 374,269 374,269 374,269 374,269 374,269 374,269 375,269 375,269 375,269 375,269 375,270 375,270 375,270 375,270 375,270 375,270 375,270 375,270 375,271 376,271 376,271 376,271 376,271 376,272 376,272 376,272 376,273 376,273 376,273 376,273 376,273 376,274 377,274 377,274 377,275 377,275 377,275 377,275 377,275 377,275 377,276 377,276 377,276 377,276 377,276 378,277 378,277 378,277 378,277 378,277 378,277 378,278 378,278 378,278 378,278 378,279 378,279 378,279 379,280 379,280 379,280 379,281 379,281 379,281 379,281 379,282 379,282 379,282 379,282 379,282 379,282 380,282 380,282 380,283 380,283 380,283 380,284 380,284 380,284 380,285 380,285 380,285 380,285 380,285 381,285 381,286 381,286 381,285 381,285 381,285 381,285 381,284 381,284 381,284 381,283 381,283 381,283 382,282 382,282 382,281 382,281 382,281 382,281 382,280 382,280 382,280 382,280 382,279 382,279 382,278 383,278 383,277 383,277 383,276 383,276 383,275 383,275 383,274 383,274 383,274 383,273 383,273 383,273 384,272 384,272 384,272 384,271 384,271 384,271 384,271 384,271 384,271 384,271 384,270 384,270 384,270 385,270 385,270 385,270 385,270 385,270 385,270 385,270 385,270 385,269 385,269 385,269 385,269 385,268 386,268 386,268 386,268 386,267 386,267 386,267 386,267 386,266 386,266 386,266 386,266 386,265 387,265 387,265 387,264 387,264 387,264 387,264 387,264 387,263 387,263 387,263 387,262 387,262 387,262 388,261 388,261 388,260 388,260 388,260 388,259 388,259 388,259 388,258 388,258 388,258 388,257 388,257 389,256 389,256 389,256 389,255 389,255 389,254 389,254 389,253 389,253 389,252 389,252 389,251 389,251 390,251 390,250 390,250 390,250 390,250 390,250 390,250 390,250 390,251 390,251 390,251 390,251 390,252 391,252 391,252 391,253 391,253 391,253 391,253 391,254 391,254 391,254 391,255 391,255 391,255 391,256 392,256 392,256 392,257 392,257 392,257 392,257 392,258 392,258 392,258 392,258 392,259 392,259 392,259 393,259 393,260 393,260 393,260 393,260 393,261 393,261 393,261 393,262 393,262 393,262 393,263 393,263 394,264 394,264 394,265 394,265 394,266 394,266 394,267 394,267 394,267 394,268 394,268 394,269 394,269 395,270 395,270 395,270 395,271 395,271 395,272 395,272 395,273 395,273 395,273 395,274 395,274 395,274 396,274 396,274 396,274 396,274 396,274 396,274 396,273 396,273 396,273 396,273 396,273 396,273 396,273 397,273 397,273 397,273 397,273 397,272 397,272 397,272 397,272 397,272 397,271 397,271 397,271 397,271 398,271 398,271 398,271 398,271 398,270 398,270 398,270 398,270 398,270 398,271 398,271 398,271 398,271 399,271 399,271 399,271 399,271 399,271 399,271 399,271 399,271 399,271 399,272 399,272 399,272 399,272 400,272 400,273 400,273 400,273 400,273 400,273 400,273 400,273 400,274 400,274 400,274 400,274 400,275 401,275 401,275 401,276 401,276 401,276 401,277 401,277 401,277 401,278 401,278 401,279 401,279 401,280 402,280 402,281 402,282 402,282 402,283 402,283 402,284 402,284 402,284 402,284 402,284 402,284 403,283 403,283 403,283 403,282 403,282 403,281 403,281 403,281 403,281 403,281 403,281 403,281 403,281 404,281 404,281 404,281 404,282 404,282 404,282 404,281 404,281 404,281 404,281 404,281 404,281 404,280 405,280 405,280 405,280 405,280 405,280 405,280 405,280 405,280 405,280 405,280 405,280 405,280 405,280 406,280 406,280 406,280 406,280 406,280 406,280 406,281 406,281 406,281 406,281 406,281 406,281 406,281 407,281 407,281 407,281 407,281 407,282 407,282 407,282 407,283 407,283 407,284 407,284 407,284 407,284 408,284 408,285 408,285 408,285 408,285 408,285 408,285 408,285 408,285 408,285 408,285 408,285 408,285 409,286 409,286 409,286 409,286 409,286 409,286 409,286 409,286 409,286 409,286 409,286 409,286 409,286 410,286 410,286 410,286 410,286 410,287 410,287 410,287 410,287 410,287 410,287 410,287 410,288 410,288 411,288 411,288 411,288 411,288 411,289 411,289 411,289 411,289 411,289 411,290 411,290 411,290 411,290 412,291 412,291 412,291 412,291 412,292 412,292 412,292 412,292 412,293 412,293 412,293 412,294 412,294 413,294 413,295 413,295 413,296 413,296 413,297 413,298 413,298 413,299 413,300 413,301 413,302 413,302 414,303 414,303 414,304 414,304 414,303 414,303 414,303 414,303 414,303 414,302 414,302 414,303 414,303 415,303 415,303 415,304 415,304 415,304 415,305 415,305 415,305 415,305 415,305 415,305 415,306 415,306 416,306 416,306 416,306 416,306 416,307 416,307 416,307 416,308 416,308 416,308 416,308 416,308 416,308 417,307 417,307 417,306 417,306 417,306 417,305 417,305 417,305 417,305 417,305 417,305 417,305 418,305 418,306 418,306 418,306 418,305 418,305 418,305 418,305 418,306 418,306 418,306 418,306 418,306 419,306 419,306 419,306 419,306 419,306 419,306 419,306 419,307 419,307 419,307 419,307 419,307 419,307 420,308 420,308 420,308 420,308 420,308 420,308 420,309 420,309 420,309 420,309 420,309 420,309 420,309 421,310 421,310 421,310 421,310 421,310 421,311 421,311 421,311 421,311 421,311 421,312 421,312 421,313 422,313 422,313 422,314 422,314 422,314 422,315 422,315 422,316 422,316 422,316 422,317 422,317 422,318 423,318 423,318 423,319 423,319 423,319 423,320 423,320 423,320 423,320 423,320 423,320 423,321 423,321 424,321 424,321 424,321 424,321 424,321 424,321 424,321 424,321 424,320 424,320 424,320 424,320 424,320 425,320 425,320 425,320 425,320 425,320 425,320 425,320 425,320 425,320 425,320 425,320 425,320 425,320 426,319 426,319 426,319 426,319 426,319 426,319 426,318 426,318 426,318 426,318 426,318 426,318 426,318 427,318 427,318 427,318 427,317 427,317 427,316 427,316 427,316 427,315 427,315 427,315 427,315 427,315 428,315 428,314 428,314 428,314 428,314 428,314 428,313 428,313 428,313 428,313 428,313 428,313 428,313 429,313 429,313 429,312 429,312 429,312 429,312 429,312 429,312 429,312 429,312 429,312 429,312 429,312 430,312 430,312 430,313 430,313 430,313 430,313 430,313 430,314 430,314 430,314 430,314 430,314 430,315 431,315 431,315 431,315 431,315 431,315 431,316 431,316 431,316 431,317 431,317 431,317 431,318 431,318 432,318 432,319 432,319 432,319 432,320 432,320 432,320 432,320 432,320 432,321 432,321 432,321 433,321 433,321 433,321 433,322 433,322 433,322 433,322 433,322 433,322 433,322 433,322 433,322 433,323 434,323 434,323 434,323 434,323 434,323 434,323 434,323 434,323 434,323 434,323 434,322 434,322 434,322 435,322 435,322 435,321 435,321 435,321 435,320 435,320 435,320 435,320 435,319 435,319 435,319 435,319 436,318 436,318 436,318 436,318 436,318 436,317 436,317 436,317 436,317 436,317 436,317 436,316 436,316 437,316 437,316 437,316 437,316 437,316 437,316 437,316 437,316 437,316 437,316 437,316 437,316 437,316 438,315 438,315 438,315 438,315 438,315 438,315 438,315 438,315 438,315 438,315 438,315 438,314 438,314 439,314 439,314 439,314 439,314 439,314 439,314 439,313 439,313 439,314 439,314 439,314 439,314 439,314 440,314 440,314 440,314 440,314 440,314 440,314 440,314 440,314 440,314 440,314 440,314 440,315 440,315 441,315 441,315 441,315 441,315 441,315 441,315 441,315 441,315 441,316 441,316 441,316 441,316 441,316 442,317 442,317 442,317 442,318 442,318 442,318 442,318 442,319 442,319 442,319 442,319 442,320 442,320 443,320 443,320 443,320 443,320 443,320 443,321 443,321 443,321 443,321 443,321 443,321 443,321 443,321 444,322 444,322 444,322 444,322 444,322 444,322 444,322 444,322 444,323 444,323 444,323 444,323 444,323 445,323 445,323 445,323 445,324 445,324 445,324 445,325 445,326 445,327 445,328 445,327 445,326 445,325 446,325 446,325 446,325 446,326 446,325 446,326 446,326 446,326 446,326 446,326 446,326 446,326 446,326 447,326 447,326 447,326 447,326 447,326 447,326 447,326 447,326 447,326 447,327 447,327 447,327 448,326 448,326 448,326 448,326 448,326 448,326 448,327 448,327 448,327 448,327 448,327 448,327 448,327 449,327 449,327 449,327 449,327 449,327 449,327 449,328 449,328 449,328 449,328 449,328 449,328 449,328 450,328 450,328 450,328 450,328 450,328 450,328 450,328 450,329 450,329 450,329 450,329 450,329 450,329 451,329 451,329 451,329 451,330 451,330 451,330 451,330 451,330 451,330 451,330 451,330 451,330 451,331 452,331 452,331 452,331 452,331 452,331 452,331 452,332 452,332 452,332 452,332 452,332 452,332 452,332 453,332 453,332 453,332 453,332 453,332 453,333 453,333 453,333 453,334 453,335 453,335 453,334 453,334 454,333 454,333 454,333 454,333 454,334 454,334 454,334 454,334 454,334 454,334 454,334 454,334 454,334 455,334 455,334 455,334 455,334 455,334 455,335 455,335 455,335 455,335 455,335 455,335 455,335 455,335 456,335 456,335 456,335 456,335 456,335 456,335 456,335 456,336 456,336 456,336 456,336 456,336 456,336 457,336 457,336 457,336 457,336 457,336 457,336 457,336 457,336 457,336 457,337 457,337 457,337 457,337 458,337 458,337 458,337 458,337 458,337 458,337 458,337 458,337 458,337 458,337 458,337 458,337 458,337 459,337 459,337 459,337 459,338 459,338 459,338 459,338 459,338 459,338 459,338 459,338 459,338 459,339 460,339 460,339 460,339 460,339 460,339 460,339 460,339 460,339 460,339 460,339 460,339 460,339 460,339 461,339 461,339 461,339 461,340 461,340 461,340 461,340 461,340 461,340 461,340 461,340 461,340 461,340 462,340 462,340 462,340 462,340 462,340 462,340 462,340 462,340 462,340 462,340 462,340 462,341 462,341 463,341 463,341 463,341 463,341 463,341 463,341 463,341 463,341 463,341 463,341 463,341 463,341 464,341 464,341 464,341 464,341 464,341 464,341 464,341 464,342 464,342 464,342 464,342 464,342 464,342 465,342 465,342 465,342 465,342 465,342 465,342 465,342 465,342 465,342 465,342 465,342 465,343 465,343 466,343 466,343 466,343 466,343 466,343 466,343 466,343 466,343 466,343 466,343 466,343 466,343 466,343 467,343 467,343 467,344 467,344 467,344 467,344 467,344 467,344 467,344 467,344 467,344 467,344 467,344 468,344 468,344 468,344 468,344 468,344 468,344 468,344 468,344 468,345 468,344 468,344 468,344 468,345 469,345 469,345 469,345 469,345 469,345 469,345 469,344 469,345 469,345 469,345 469,345 469,345 469,345 470,345 470,345 470,345 470,345 470,345 470,345 470,345 470,345 470,346 470,346 470,346 470,346 470,346 471,346 471,346 471,346 471,346 471,346 471,346 471,346 471,346 471,346 471,346 471,346 471,346 471,346 472,346 472,346 472,346 472,346 472,346 472,346 472,346 472,346 472,347 472,347 472,347 472,347 472,347 473,347 473,347 473,347 473,347 473,347 473,347 473,347 473,347 473,347 473,347 473,347 473,347 473,347 474,348 474,348 474,348 474,348 474,348 474,348 474,348 474,348 474,348 474,348 474,348 474,348 474,348 475,349 475,349 475,349 475,349 475,349 475,349 475,349 475,349 475,349 475,349 475,349 475,349 475,349 476,349 476,349 476,349 476,350 476,350 476,350 476,350 476,350 476,350 476,350 476,350 476,350 476,350 477,350 477,350 477,350 477,350 477,350 477,350 477,350 477,350 477,350 477,350 477,350 477,350 477,350 478,350 478,350 478,350 478,350 478,350 478,350 478,350 478,351 478,351 478,351 478,351 478,351 479,351 479,351 479,351 479,351 479,351 479,351 479,351 479,351 479,351 479,351 479,351 479,351 479,351 480,351 480,351 480,351 480,351 480,351 480,351 480,351 480,351 480,351 480,351 480,351 480,351 480,351 481,351 481,351 481,351 481,351 481,351 481,351 481,352 481,352 481,352 481,352 481,352 481,352 481,352 482,352 482,352 482,352 482,352 482,352 482,352 482,352 482,352 482,352 482,352 482,352 482,352 482,352 483,352 483,352 483,352 483,352 483,352 483,352 483,352 483,352 483,352 483,352 483,352 483,353 483,353 484,353 484,353 484,353 484,353 484,353 484,353 484,353 484,353 484,353 484,353 484,353 484,353 484,353 485,353 485,353 485,353 485,352 485,352 485,353 485,353 485,353 485,353 485,353 485,353 485,353 485,353 486,353 486,353 486,353 486,353 486,353 486,353 486,353 486,353 486,353 486,353 486,353 486,353 486,353 487,353 487,353 487,353 487,353 487,353 487,353 487,353 487,353 487,353 487,353 487,353 487,353 487,353 488,353 488,353 488,353 488,353 488,353 488,353 488,353 488,353 488,353 488,353 488,353 488,353 488,353 489,353 489,353 489,353 489,353 489,353 489,353 489,353 489,353 489,353 489,353 489,353 489,353 489,353 490,353 490,353 490,353 490,353 490,353 490,353 490,353 490,353 490,353 490,353 490,353 490,353 490,353 491,353 491,353 491,353 491,353 491,353 491,353 491,353 491,353 491,353 491,353 491,353 491,353 491,353 492,353 492,353 492,353 492,353 492,353 492,353 492,353 492,353 492,353 492,353 492,353 492,353 492,353 493,353 493,353 493,353 493,353 493,353 493,353 493,353 493,353 493,353 493,353 493,353 493,353 494,353 494,353 494,353 494,353 494,353 494,353 494,353 494,353 494,353 494,353 494,353 494,353 494,353 495,353 495,353 495,353 495,353 495,353 495,353 495,353 495,353 495,353 495,353 495,353 495,353 495,353 496,353 496,353 496,353 496,353 496,353 496,353 496,353 496,353 496,353 496,353 496,353 496,353 496,353 497,353 497,353 497,353 497,353 497,353 497,353 497,353 497,353 497,353 497,353 497,353 497,353 497,353 498,353 498,353 498,353 498,353 498,353 498,353 498,353 498,353 498,353 498,353 498,353 498,353 498,353 499,353 499,353 499,352 499,352 499,352 499,352 499,352 499,352 499,352 499,352 499,352 499,352 499,352 500,351 500,351 500,351 500,351 500,351 500,351 500,351 500,351 500,351 500,351 500,351 500,351 500,351 501,350 501,350 501,350 501,350 501,350 501,350 501,350 501,350 501,350 501,350 501,350 501,350 501,350 502,350 502,350 502,350 502,350 502,350 502,350 502,350 502,349 502,349 502,349 502,349 502,349 502,349 503,349 503,349 503,349 503,349 503,349 503,349 503,349 503,349 503,349 503,349 503,349 503,349 503,349 504,349 504,349 504,349 504,349 504,349 504,349 504,349 504,349 504,350 504,350 504,350 504,350 504,350 505,350 505,350 505,350 505,350 505,350 505,350 505,351 505,351 505,351 505,351 505,351 505,351 505,351 506,352 506,352 506,352 506,352 506,352 506,353 506,353 506,353 506,353 506,353 506,353 506,354 506,354 507,354 507,355 507,355 507,356 507,357 507,358 507,359 507,359 507,359 507,358 507,358 507,357 507,356 508,355 508,355 508,354 508,354 508,354 508,353 508,353 508,353 508,353 508,353 508,353 508,353 508,353 509,353 509,353 509,353 509,353 509,353 509,353 509,353 509,353 509,353 509,353 509,353 509,353 510,353 510,353 510,353 510,353 510,353 510,353 510,353 510,353 510,353 510,353 510,353 510,353 510,353 511,353 511,353 511,353 511,353 511,353 511,354 511,354 511,354 511,355 511,355 511,356 511,356 511,357 512,357 512,357 512,357 512,356 512,356 512,355 512,354 512,353 512,353 512,353 512,353 512,353 512,353 513,353 513,353 513,353 513,353 513,353 513,353 513,353 513,353 513,353 513,353 513,353 513,353 513,353 514,353 514,353 514,353 514,353 514,353 514,353 514,353 514,353 514,353 514,353 514,353 514,353 514,353 515,353 515,353 515,353 515,353 515,353 515,353 515,353 515,354 515,354 515,354 515,354 515,354 515,354 516,354 516,354 516,354 516,354 516,354 516,354 516,354 516,354 516,354 516,354 516,354 516,354 516,354 517,354 517,354 517,354 517,354 517,354 517,354 517,354 517,354 517,354 517,354 517,354 517,354 517,354 518,354 518,354 518,354 518,354 518,354 518,354 518,354 518,354 518,354 518,354 518,354 518,354 518,354 519,354 519,354 519,354 519,354 519,354 519,354 519,354 519,354 519,354 519,354 519,355 519,355 519,354 520,354 520,354 520,354 520,354 520,354 520,354 520,354 520,354 520,354 520,354 520,354 520,354 520,354 521,354 521,354 521,354 521,354 521,354 521,354 521,354 521,354 521,354 521,354 521,354 521,354 521,354 522,354 522,354 522,354 522,354 522,354 522,354 522,354 522,354 522,354 522,354 522,354 522,354 522,354 523,354 523,354 523,354 523,354 523,354 523,354 523,354 523,354 523,354 523,354 523,355 523,355 523,355 524,355 524,355 524,355 524,355 524,355 524,355 524,355 524,355 524,355 524,355 524,355 524,355 525,355 525,355 525,355 525,355 525,355 525,355 525,355 525,355 525,355 525,355 525,355 525,355 525,355 526,355 526,355 526,355 526,355 526,355 526,355 526,355 526,355 526,355 526,355 526,355 526,355 526,355 527,355 527,355 527,355 527,355 527,355 527,355 527,355 527,355 527,355 527,355 527,355 527,355 527,355 528,355 528,355 528,355 528,355 528,355 528,355 528,355 528,355 528,355 528,355 528,355 528,355 528,355 529,355 529,355 529,355 529,356 529,356 529,356 529,356 529,356 529,356 529,356 529,356 529,356 529,356 530,356 530,356 530,356 530,356 530,356 530,356 530,356 530,356 530,356 530,356 530,356 530,356 530,356 531,356 531,356 531,356 531,356 531,356 531,356 531,356 531,356 531,356 531,356 531,356 531,356 531,356 532,356 532,356 532,356 532,356 532,356 532,356 532,356 532,356 532,356 532,356 532,356 532,356 532,356 533,356 533,356 533,356 533,356 533,356 533,356 533,356 533,356 533,356 533,356 533,356 533,355 533,355 534,355 534,355 534,355 534,355 534,355 534,355 534,355 534,355 534,354 534,354 534,354 534,354 534,354 535,354 535,354 535,354 535,354 535,353 535,353 535,353 535,353 535,353 535,354 535,354 535,354 535,354 536,354 536,354 536,354 536,354 536,354 536,354 536,354 536,354 536,354 536,354 536,354 536,354 536,354 537,354 537,354 537,354 537,354 537,354 537,354 537,354 537,354 537,354 537,354 537,354 537,354 537,354 538,354 538,354 538,354 538,354 538,353 538,353 538,353 538,353 538,353 538,353 538,353 538,353 538,353 539,353 539,353 539,353 539,353 539,353 539,353 539,353 539,353 539,353 539,353 539,353 539,353 540,353 540,353 540,353 540,353 540,353 540,352 540,352 540,352 540,352 540,352 540,352 540,352 540,352 541,352 541,352 541,352 541,352 541,352 541,352 541,352 541,352 541,352 541,352 541,352 541,352 541,352 542,352 542,352 542,352 542,352 542,352 542,352 542,352 542,352 542,352 542,351 542,351 542,351 542,351 543,351 543,351 543,351 543,351 543,351 543,351 543,351 543,351 543,351 543,351 543,351 543,351 543,351 544,351 544,351 544,351 544,351 544,351 544,351 544,350 544,350 544,350 544,350 544,350 544,350 544,350 545,350 545,350 545,350 545,350 545,350 545,350 545,350 545,350 545,350 545,350 545,350 545,350 545,350 546,350 546,350 546,350 546,350 546,350 546,350 546,350 546,350 546,350 546,350 546,350 546,350 546,350 547,350 547,350 547,350 547,350 547,350 547,350 547,350 547,350 547,350 547,350 547,350 547,350 547,350 548,350 548,350 548,350 548,350 548,350 548,350 548,350 548,350 548,350 548,350 548,350 548,350 548,350 549,350 549,350 549,350 549,350 549,350 549,350 549,350 549,350 549,350 549,350 549,350 549,350 549,350 550,350 550,350 550,350 550,350 550,350 550,350 550,351 550,351 550,351 550,351 550,351 550,351 550,351 551,351 551,351 551,351 551,352 551,352 551,352 551,352 551,352 551,352 551,352 551,352 551,353 551,353 552,353 552,353 552,353 552,353 552,354 552,354 552,354 552,354 552,354 552,354 552,354 552,355 552,355 553,355 553,355 553,355 553,355 553,355 553,356 553,356 553,356 553,356 553,356 553,356 553,356 553,356 554,356 554,356 554,356 554,357 554,357 554,357 554,357 554,357 554,357 554,357 554,357 554,357 554,357 555,357 555,357 555,357 555,357 555,357 555,357 555,357 555,357 555,357 555,357 555,357 555,357 556,357 556,357 556,357 556,357 556,357 556,357 556,357 556,357 556,357 556,357 556,357 556,357 556,357 557,357 557,357 557,357 557,357 557,356 557,356 557,356 557,356 557,356 557,356 557,356 557,356 557,356 558,356 558,356 558,356 558,356 558,356 558,356 558,356 558,355 558,355 558,355 558,355 558,355 558,355 559,355 559,355 559,355 559,355 559,355 559,355 559,355 559,355 559,355 559,355 559,355 559,355 559,355 560,355 560,355 560,355 560,355 560,355 560,355 560,355 560,355 560,355 560,355 560,355 560,355 560,355 561,355 561,355 561,355 561,355 561,355 561,355 561,355 561,355 561,355 561,355 561,355 561,355 561,355 562,355 562,355 562,355 562,355 562,355 562,355 562,355 562,355 562,355 562,355 562,355 562,355 562,355 563,355 563,355 563,355 563,355 563,355 563,355 563,355 563,355 563,355 563,355 563,355 563,354 563,354 564,354 564,354 564,354 564,354 564,354 564,354 564,354 564,354 564,354 564,353 564,353 564,353 564,353 565,353 565,353 565,353 565,353 565,353 565,353 565,353 565,353 565,353 565,353 565,352 565,352 565,352 566,352 566,353 566,353 566,353 566,353 566,352 566,352 566,352 566,352 566,352 566,352 566,352 566,352 567,352 567,352 567,352 567,352 567,352 567,352 567,353 567,353 567,353 567,353 567,353 567,353 567,353 568,353 568,353 568,353 568,353 568,353 568,353 568,353 568,353 568,353 568,353 568,353 568,353 568,353 569,354 569,354 569,354 569,354 569,354 569,354 569,354 569,354 569,354 569,354 569,354 569,355 569,355 570,355 570,355 570,355 570,355 570,355 570,355 570,355 570,355 570,355 570,355 570,356 570,356 571,356 571,356 571,356 571,356 571,356 571,356 571,356 571,356 571,356 571,356 571,356 571,356 571,356 572,356 572,356 572,356 572,357 572,357 572,357 572,357 572,357 572,357 572,357 572,357 572,357 572,357 573,357 573,357 573,357 573,357 573,357 573,358 573,358 573,358 573,358 573,358 573,358 573,358 573,358 574,358 574,358 574,358 574,358 574,358 574,358 574,358 574,358 574,358 574,359 574,359 574,359 574,359 575,359 575,359 575,359 575,359 575,359 575,359 575,359 575,359 575,360 575,360 575,360 575,360 575,360 576,360 576,360 576,360 576,360 576,360 576,360 576,360 576,360 576,361 576,361 576,361 576,361 576,361 577,361 577,361 577,361 577,361 577,362 577,362 577,362 577,362 577,362 577,362 577,362 577,362 577,362 578,362 578,363 578,363 578,363 578,363 578,363 578,363 578,363 578,363 578,363 578,363 578,363 578,363 579,363 579,363 579,364 579,364 579,364 579,364 579,364 579,364 579,364 579,364 579,364 579,364 579,364 580,364 580,364 580,364 580,364 580,364 580,364 580,364 580,364 580,364 580,364 580,364 580,364 580,364 581,364 581,364 581,364 581,364 581,364 581,364 581,364 581,364 581,364 581,365 581,365 581,365 581,365 582,365 582,365 582,365 582,365 582,365 582,365 582,365 582,365 582,365 582,365 582,365 582,365 582,365 583,365 583,365 583,364 583,364 583,364 583,364 583,364 583,364 583,364 583,364 583,364 583,364 583,364 584,364 584,364 584,364 584,363 584,363 584,363 584,363 584,363 584,363 584,363 584,363 584,363 584,363 585,363 585,363 585,363 585,363 585,362 585,362 585,362 585,362 585,362 585,362 585,362 585,362 586,362 586,362 586,362 586,362 586,362 586,362 586,362 586,362 586,362 586,362 586,362 586,362 586,362 587,362 587,362 587,362 587,362 587,361 587,361 587,361 587,362 587,362 587,361 587,361 587,361 587,361 588,361 588,361 588,362 588,362 588,361 588,361 588,361 588,361 588,361 588,362 588,362 588,362 588,362 589,362 589,362 589,362 589,363 589,363 589,363 589,363 589,363 589,363 589,363 589,363 589,364 589,364 590,364 590,364 590,364 590,364 590,364 590,364 590,364 590,364 590,364 590,365 590,365 590,365 590,365 591,365 591,365 591,365 591,365 591,365 591,365 591,365 591,365 591,365 591,365 591,365 591,365 591,365 592,365 592,365 592,365 592,365 592,365 592,365 592,365 592,365 592,365 592,365 592,365 592,365 592,365 593,365 593,365 593,365 593,365 593,365 593,365 593,365 593,365 593,365 593,365 593,366 593,366 593,366 594,366 594,366 594,366 594,366 594,366 594,366 594,366 594,366 594,366 594,366 594,366 594,366 594,366 595,366 595,366 595,366 595,366 595,366 595,366 595,366 595,366 595,366 595,366 595,366 595,366 595,366 596,366 596,366 596,366 596,366 596,366 596,366 596,366 596,366 596,366 596,366 596,366 596,366 596,366 597,366 597,366 597,366 597,366 597,366 597,366 597,366 597,366 597,366 597,366 597,366 597,366 597,366 598,366 598,366 598,366 598,366 598,366 598,366 598,366 598,366 598,366 598,366 598,366 598,366 598,366 599,366 599,366 599,366 599,366 599,366 599,366 599,365 599,365 599,365 599,365 599,365 599,365 599,365 600,365 600,365 600,365 600,365 600,365 600,365 600,365 600,365 600,365 600,365 600,365 600,365 601,365 601,365 601,365 601,365 601,365 601,365 601,365 601,365 601,365 601,365 601,365 601,365 601,365 602,365 602,365 602,365 602,365 602,365 602,365 602,365 602,365 602,365 602,365 602,365 602,365 602,365 603,365 603,365 603,365 603,365 603,365 603,365 603,365 603,365 603,365 603,365 603,365 603,365 603,365 604,365 604,365 604,365 604,365 604,365 604,365 604,365 604,365 604,365 604,365 604,365 604,365 604,365 605,365 605,365 605,365 605,365 605,365 605,365 605,365 605,365 605,365 605,365 605,365 605,365 605,365 606,366 606,366 606,366 606,366 606,366 606,366 606,366 606,366 606,366 606,366 606,366 606,366 606,366 607,366 607,366 607,366 607,366 607,366 607,366 607,366 607,366 607,366 607,366 607,366 607,366 607,366 608,366 608,366 608,366 608,366 608,366 608,366 608,366 608,366 608,366 608,366 608,366 608,366 608,366 609,366 609,366 609,366 609,366 609,366 609,366 609,366 609,366 609,366 609,366 609,366 609,366 609,366 610,366 610,366 610,366 610,366 610,366 610,366 610,366 610,366 610,366 610,366 610,366 610,366 610,366 611,366 611,366 611,366 611,366 611,366 611,366 611,366 611,366 611,366 611,366 611,366 611,366 611,366 612,366 612,366 612,366 612,366 612,366 612,366 612,366 612,366 612,366 612,366 612,366 612,366 612,366 613,366 613,366 613,366 613,366 613,366 613,366 613,366 613,366 613,366 613,366 613,366 613,366 613,366 614,366 614,366 614,366 614,366 614,366 614,366 614,366 614,366 614,366 614,366 614,366 614,366 614,366 615,366 615,366 615,366 615,366 615,366 615,366 615,366 615,366 615,366 615,366 615,366 615,366 615,366 616,366 616,366 616,366 616,366 616,366 616,366 616,366 616,366 616,366 616,366 616,366 616,366 617,366 617,366 617,366 617,366 617,366 617,366 617,366 617,366 617,366 617,366 617,366 617,366 617,366 618,366 618,366 618,366 618,366 618,366 618,366 618,366 618,366 618,366 618,366 618,366 618,366 618,366 619,366 619,366 619,366 619,366 619,366 619,366 619,366 619,366 619,366 619,366 619,366 619,366 619,366 620,366 620,366 620,366 620,366 620,366 620,366 620,366 620,366 620,366 620,366 620,366 620,366 620,366 621,366 621,366 621,366 621,366 621,366 621,366 621,366 621,366 621,366 621,366 621,366 621,366 621,366 622,366 622,366 622,366 622,366 622,366 622,366 622,366 622,366 622,366 622,366 622,366 622,366 622,366 623,366 623,366 623,366 623,366 623,366 623,366 623,366 623,366 623,366 623,366 623,366 623,367 623,366 624,366 624,366 624,366 624,366 624,366 624,366 624,366 624,366 624,366 624,366 624,366 624,366 624,366 625,366 625,366 625,366 625,366 625,366 625,366 625,366 625,366 625,366 625,366 625,366 625,366 625,366 626,366 626,366 626,366 626,366 626,366 626,366 626,366 626,366 626,366 626,366 626,366 626,366 626,366 627,366 627,366 627,366 627,366 627,366 627,366 627,366 627,366 627,366 627,366 627,366 627,366 627,366 628,366 628,366 628,366 628,366 628,367 628,367 628,367 628,367 628,367 628,367 628,367 628,367 628,367 629,367 629,367 629,367 629,367 629,367 629,367 629,367 629,367 629,367 629,367 629,367 629,367 629,367 630,367 630,367 630,367 630,367 630,367 630,367 630,367 630,367 630,367 630,367 630,367 630,367 630,367 631,367 631,367 631,367 631,367 631,367 631,367 631,366 631,366 631,366 631,367 631,367 631,367 632,367 632,367 632,367 632,367 632,367 632,367 632,367 632,367 632,367 632,367 632,367 632,367 632,367 633,367 633,366 633,366 633,366 633,366 633,366 633,366 633,366 633,366 633,366 633,366 633,366 633,366 634,366 634,366 634,366 634,366 634,366 634,366 634,366 634,366 634,366 634,366 634,366 634,366 634,366 635,367 635,367 635,367 635,367 635,367 635,367 635,367 635,367 635,367 635,367 635,367 635,367 635,367 636,367 636,367 636,367 636,367 636,367 636,367 636,367 636,367 636,367 636,367 636,367 636,367 636,367 637,367 637,367 637,367 637,367 637,367 637,367 637,367 637,367 637,367 637,367 637,367 637,367 637,367 638,367 638,367 638,367 638,367 638,367 638,367 638,367 638,367 638,367 638,367 638,367 638,367 638,367 639,367 639,367 639,367 639,367 639,367 639,367 639,367 639,367 639,367 639,367 639,367 639,367 639,367 640,367 640,367 640,367 640,367 640,367 640,367 640,367 640,367 640,367 640,367 640,367 640,367 640,367 641,367 641,367 641,367 641,367 641,367 641,367 641,367 641,367 641,367 641,367 641,367 641,367 641,367 642,367 642,367 642,367 642,368 642,368 642,368 642,368 642,368 642,367 642,367 642,367 642,367 642,367 643,367 643,367 643,367 643,367 643,367 643,367 643,367 643,367 643,367 643,367 643,367 643,367 643,367 644,367 644,367 644,367 644,367 644,367 644,367 644,367 644,367 644,367 644,367 644,367 644,367 644,367 645,367 645,367 645,367 645,367 645,367 645,367 645,367 645,367 645,367 645,367 645,367 645,367 645,367 646,367 646,367 646,367 646,367 646,367 646,367 646,367 646,367 646,367 646,367 646,367 646,367 647,367 647,367 647,367 647,367 647,367 647,367 647,367 647,367 647,367 647,367 647,367 647,367 647,367 648,367 648,367 648,367 648,367 648,367 648,367 648,367 648,367 648,367 648,367 648,367 648,367 648,367 649,367 649,367 649,367 649,367 649,367 649,367 649,367 649,367 649,367 649,367 649,367 649,367 649,367 650,367 650,367 650,367 650,367 650,367 650,367 650,367 650,367 650,367 650,367 650,367 650,367 650,367 651,367 651,367 651,367 651,367 651,367 651,367 651,367 651,367 651,367 651,367 651,367 651,367 651,367 652,367 652,367 652,367 652,367 652,367 652,367 652,367 652,367 652,368 652,367 652,367 652,367 652,367 653,367 653,367 653,367 653,367 653,367 653,367 653,367 653,367 653,367 653,367 653,367 653,367 653,367 654,367 654,367 654,367 654,367 654,367 654,367 654,367 654,367 654,367 654,367 654,367 654,367 654,367 655,367 655,367 655,367 655,367 655,367 655,367 655,367 655,367 655,367 655,367 655,367 655,367 655,367 656,367 656,367 656,366 656,366 656,366 656,366 656,366 656,366 656,367 656,367 656,367 656,367 656,367 657,367 657,367 657,367 657,367 657,367 657,366 657,366 657,366 657,366 657,366 657,367 657,367 657,367 658,367 658,367 658,367 658,367 658,367 658,367 658,367 658,367 658,367 658,367 658,367 658,367 658,367 659,367 659,367 659,367 659,367 659,367 659,367 659,367 659,367 659,367 659,367 659,367 659,367 659,367 660,367 660,367 660,367 660,367 660,367 660,367 660,367 660,367 660,367 660,367 660,367 660,367 660,367 661,367 661,367 661,367 661,367 661,367 661,367 661,367 661,367 661,367 661,367 661,367 661,367 661,367 662,367 662,367 662,367 662,367 662,367 662,367 662,367 662,367 662,367 662,367 662,367 662,367 663,367 663,367 663,367 663,367 663,367 663,367 663,367 663,367 663,367 663,367 663,367 663,367 663,367 664,367 664,367 664,367 664,367 664,367 664,367 664,367 664,367 664,367 664,367 664,367 664,367 664,367 665,367 665,367 665,367 665,367 665,367 665,367 665,367 665,367 665,367 665,367 665,367 665,367 665,368 666,368 666,368 666,368 666,368 666,368 666,368 666,367 666,367 666,367 666,367 666,367 666,367 666,367 667,367 667,367 667,367 667,367 667,367 667,367 667,367 667,367 667,367 667,366 667,366 667,366 667,366 668,366 668,366 668,366 668,366 668,366 668,366 668,366 668,366 668,366 668,366 668,366 668,366 668,366 669,366 669,366 669,366 669,366 669,366 669,366 669,366 669,366 669,366 669,366 669,366 669,365 669,365 670,365 670,365 670,365 670,365 670,365 670,365 670,365 670,365 670,366 670,366 670,366 670,366 670,366 671,366 671,366 671,366 671,366 671,366 671,366 671,366 671,367 671,367 671,367 671,367 671,367 671,367 672,367 672,367 672,367 672,366 672,366 672,366 672,366 672,366 672,367 672,367 672,367 672,367 672,367 673,367 673,367 673,367 673,367 673,367 673,367 673,367 673,367 673,367 673,367 673,367 673,367 673,367 674,367 674,367 674,367 674,367 674,367 674,367 674,367 674,367 674,368 674,368 674,368 674,368 674,368 675,368 675,368 675,368 675,368 675,368 675,368 675,368 675,368 675,368 675,368 675,368 675,368 675,368 676,368 676,368 676,368 676,368 676,368 676,368 676,368 676,368 676,368 676,368 676,368 676,368 676,368 677,368 677,368 677,368 677,368 677,368 677,368 677,368 677,368 677,368 677,368 677,368 677,368 678,368 678,368 678,368 678,368 678,368 678,368 678,368 678,368 678,368 678,368 678,369 678,369 678,369 679,369 679,369 679,369 679,369 679,369 679,369 679,369 679,369 679,369 679,369 679,369 679,369 679,369 680,369 680,369 680,369 680,369 680,369 680,369 680,369 680,369 680,369 680,369 680,369 680,369 680,369 681,368 681,368 681,368 681,368 681,368 681,368 681,368 681,368 681,368 681,368 681,369 681,369 681,369 682,369 682,369 682,369 682,369 682,369 682,369 682,369 682,369 682,369 682,369 682,369 682,369 682,369 683,369 683,369 683,369 683,369 683,369 683,369 683,369 683,369 683,369 683,369 683,369 683,369 683,369 684,369 684,369 684,369 684,369 684,369 684,369 684,369 684,369 684,369 684,369 684,369 684,369 684,369 685,369 685,369 685,369 685,369 685,369 685,369 685,369 685,369 685,369 685,369 685,369 685,369 685,369 686,368 686,368 686,368 686,368 686,368 686,368 686,368 686,368 686,367 686,367 686,367 686,367 686,367 687,367 687,367 687,367 687,367 687,367 687,367 687,367 687,367 687,367 687,367 687,367 687,367 687,367 688,367 688,367 688,367 688,367 688,367 688,367 688,367 688,367 688,367 688,367 688,367 688,367 688,367 689,367 689,367 689,367 689,367 689,367 689,367 689,367 689,367 689,367 689,367 689,367 689,367 689,367 690,367 690,367 690,367 690,367 690,367 690,367 690,366 690,366 690,367 690,367 690,367 690,367 690,367 691,367 691,367 691,367 691,368 691,368 691,368 691,368 691,368 691,368 691,368 691,368 691,368 691,368 692,368 692,368 692,368 692,368 692,368 692,368 692,368 692,368 692,368 692,368 692,368 692,368 693,368 693,368 693,368 693,368 693,368 693,368 693,368 693,368 693,368 693,368 693,368 693,368 693,368 694,368 694,368 694,368 694,368 694,368 694,367 694,367 694,367 694,367 694,367 694,367 694,367 694,367 695,367 695,367 695,367 695,367 695,367 695,367 695,368 695,368 695,368 695,368 695,368 695,368 695,368 696,368 696,368 696,368 696,368 696,368 696,368 696,368 696,368 696,368 696,368 696,368 696,368 696,368 697,368 697,368 697,368 697,368 697,368 697,368 697,368 697,368 697,368 697,368 697,368 697,368 697,368 698,368 698,368 698,368 698,368 698,368 698,368 698,369 698,369 698,369 698,369 698,369 698,369 698,369 699,369 699,369 699,369 699,369 699,369 699,369 699,369 699,369 699,369 699,369 699,369 699,369 699,369 700,369 700,369 700,369 700,369 700,369 700,369 700,369 700,369 700,369 700,369 700,369 700,369 700,369 701,369 701,369 701,369 701,369 701,369 701,369 701,369 701,369 701,369 701,369 701,369 701,369 701,369 702,369 702,369 702,369 702,369 702,369 702,369 702,369 702,369 702,369 702,369 702,369 702,369 702,369 703,369 703,369 703,369 703,369 703,369 703,369 703,369 703,369 703,369 703,369 703,369 703,369 703,369 704,369 704,369 704,369 704,369 704,368 704,368 704,368 704,368 704,368 704,368 704,368 704,368 704,368 705,368 705,368 705,368 705,368 705,368 705,368 705,368 705,369 705,369 705,369 705,368 705,368 705,368 706,368 706,368 706,368 706,369 706,369 706,369 706,369 706,369 706,369 706,369 706,369 706,369 706,369 707,369 707,369 707,369 707,369 707,369 707,369 707,369 707,369 707,369 707,369 707,369 707,369 708,369 708,369 708,369 708,369 708,369 708,369 708,369 708,369 708,369 708,369 708,369 708,369 708,369 709,369 709,369 709,369 709,369 709,369 709,369 709,369 709,369 709,369 709,369 709,369 709,369 709,369 710,369 710,369 710,369 710,369 710,369 710,369 710,369 710,369 710,369 710,369 710,369 710,369 710,369 711,369 711,369 711,369 711,369 711,369 711,369 711,369 711,369 711,369 711,369 711,369 711,369 711,369 712,369 712,369 712,369 712,369 712,369 712,369 712,369 712,369 712,369 712,369 712,369 712,369 712,369 713,369 713,369 713,369 713,369 713,369 713,369 713,369 713,369 713,369 713,369 713,369 713,369 713,369 714,369 714,369 714,369 714,368 714,368 714,368 714,368 714,368 714,368 714,368 714,368 714,368 714,368 715,368 715,368 715,367 715,367 715,367 715,367 715,367 715,367 715,367 715,367 715,367 715,367 715,367 716,367 716,367 716,367 716,367 716,367 716,367 716,366 716,366 716,366 716,366 716,366 716,366 716,366 717,366 717,366 717,366 717,366 717,366 717,366 717,366 717,366 717,366 717,366 717,365 717,365 717,365 718,365 718,365 718,365 718,365 718,365 718,365 718,365 718,365 718,365 718,365 718,365 718,365 718,365 719,365 719,365 719,365 719,365 719,365 719,365 719,365 719,365 719,365 719,365 719,365 719,365 719,365 720,365 720,365 720,365 720,365 720,365 720,365 720,365 720,365 720,365 720,365 720,364 720,364 720,364 721,364 721,364 721,364 721,365 721,365 721,365 721,365 721,365 721,365 721,365 721,365 721,365 721,365 722,365 722,365 722,365 722,365 722,365 722,365 722,365 722,365 722,365 722,365 722,365 722,365 722,365 723,365 723,365 723,365 723,365 723,365 723,365 723,365 723,365 723,365 723,365 723,365 723,365 724,365 724,365 724,365 724,365 724,365 724,365 724,365 724,365 724,365 724,365 724,365 724,365 724,365 725,365 725,365 725,365 725,365 725,365 725,365 725,364 725,365 725,365 725,365 725,365 725,365 725,365 726,364 726,364 726,364 726,364 726,364 726,364 726,364 726,364 726,364 726,364 726,364 726,364 726,364 727,364 727,364 727,364 727,364 727,364 727,364 727,364 727,364 727,364 727,364 727,364 727,364 727,364 728,364 728,364 728,364 728,364 728,364 728,364 728,364 728,364 728,364 728,364 728,364 728,364 728,364 729,364 729,364 729,364 729,364 729,364 729,364 729,364 729,364 729,364 729,364 729,364 729,364 729,364 730,364 730,364 730,364 730,364 730,364 730,364 730,364 730,364 730,364 730,364 730,364 730,364 730,364 731,364 731,364 731,364 731,364 731,364 731,364 731,364 731,364 731,364 731,364 731,364 731,364 731,364 732,364 732,364 732,364 732,364 732,364 732,364 732,364 732,364 732,364 732,364 732,364 732,364 732,364 733,364 733,364 733,364 733,364 733,364 733,364 733,364 733,364 733,364 733,364 733,364 733,364 733,364 734,364 734,364 734,364 734,364 734,364 734,365 734,365 734,365 734,365 734,365 734,365 734,365 734,365 735,365 735,365 735,366 735,366 735,366 735,366 735,366 735,366 735,366 735,366 735,366 735,366 735,366 736,366 736,366 736,366 736,366 736,367 736,366 736,367 736,367 736,367 736,367 736,367 " vector-effect="non-scaling-stroke"></polyline>
</g></svg>