<?xml version="1.0" encoding="UTF-8" standalone="no"?><svg width="282.222mm" height="141.111mm" xmlns="http://www.w3.org/2000/svg" xmlns:xlink="http://www.w3.org/1999/xlink"  version="1.2" baseProfile="tiny"><g fill="none" stroke="#ff0000" stroke-linecap="round" stroke-linejoin="round" stroke-opacity="1" stroke-width="1.5" transform="matrix(1,0,0,1,0,0)">
<polyline fill="none" points="27,188 27,188 27,188 27,188 27,188 27,188 27,188 27,188 28,188 28,188 28,188 28,188 28,188 28,189 28,189 28,189 28,189 28,189 28,190 28,190 28,190 29,190 29,190 29,190 29,189 29,190 29,190 29,190 29,190 29,190 29,190 29,190 29,190 29,190 30,190 30,190 30,190 30,190 30,189 30,189 30,189 30,189 30,189 30,189 30,188 30,188 30,188 31,188 31,188 31,188 31,188 31,188 31,187 31,187 31,187 31,187 31,187 31,187 31,187 31,186 32,186 32,186 32,186 32,186 32,186 32,186 32,186 32,186 32,186 32,185 32,185 32,185 32,185 33,185 33,185 33,184 33,184 33,184 33,184 33,184 33,184 33,184 33,185 33,185 33,185 33,185 34,185 34,185 34,185 34,185 34,185 34,185 34,185 34,185 34,185 34,185 34,185 34,185 35,185 35,185 35,185 35,185 35,185 35,185 35,186 35,186 35,186 35,186 35,186 35,186 35,186 36,186 36,186 36,186 36,187 36,187 36,187 36,187 36,188 36,188 36,188 36,188 36,188 36,189 37,189 37,189 37,189 37,189 37,189 37,189 37,189 37,190 37,190 37,190 37,190 37,191 37,191 38,191 38,191 38,191 38,191 38,191 38,191 38,192 38,192 38,192 38,192 38,192 38,193 38,193 39,193 39,193 39,193 39,193 39,194 39,194 39,194 39,194 39,194 39,194 39,194 39,195 39,195 40,195 40,196 40,196 40,196 40,196 40,196 40,197 40,197 40,197 40,197 40,197 40,197 40,197 41,197 41,198 41,198 41,198 41,198 41,197 41,197 41,197 41,197 41,196 41,196 41,196 41,196 42,195 42,195 42,195 42,195 42,195 42,196 42,196 42,196 42,196 42,196 42,196 42,196 42,196 43,196 43,196 43,196 43,196 43,196 43,196 43,196 43,195 43,195 43,195 43,195 43,194 43,194 44,194 44,194 44,193 44,193 44,193 44,193 44,193 44,193 44,193 44,192 44,192 44,192 44,192 45,193 45,193 45,193 45,193 45,193 45,193 45,193 45,193 45,193 45,193 45,193 45,193 45,193 46,193 46,193 46,193 46,193 46,194 46,194 46,194 46,194 46,194 46,194 46,194 46,195 46,195 47,195 47,195 47,195 47,195 47,195 47,195 47,195 47,195 47,195 47,195 47,195 47,195 47,196 48,196 48,196 48,196 48,196 48,196 48,196 48,196 48,197 48,197 48,197 48,197 48,197 48,197 49,197 49,197 49,198 49,198 49,198 49,198 49,198 49,198 49,198 49,198 49,198 49,198 50,198 50,199 50,199 50,199 50,199 50,199 50,199 50,199 50,199 50,199 50,199 50,200 50,200 51,200 51,200 51,200 51,200 51,200 51,200 51,200 51,200 51,200 51,200 51,200 51,200 51,200 52,199 52,199 52,199 52,199 52,199 52,199 52,199 52,199 52,199 52,199 52,199 52,199 52,199 53,199 53,199 53,200 53,200 53,200 53,200 53,200 53,200 53,199 53,199 53,199 53,199 53,200 54,200 54,200 54,200 54,200 54,200 54,200 54,200 54,200 54,200 54,200 54,200 54,200 54,201 55,201 55,201 55,201 55,201 55,201 55,201 55,201 55,202 55,202 55,202 55,202 55,202 55,203 56,204 56,204 56,204 56,205 56,206 56,206 56,207 56,206 56,205 56,204 56,204 56,205 56,205 57,205 57,206 57,206 57,206 57,206 57,206 57,206 57,206 57,206 57,206 57,206 57,205 57,205 58,205 58,205 58,205 58,205 58,205 58,205 58,205 58,205 58,205 58,205 58,205 58,205 58,205 59,205 59,205 59,205 59,205 59,205 59,205 59,204 59,204 59,204 59,204 59,204 59,204 59,204 60,204 60,204 60,204 60,204 60,203 60,203 60,203 60,203 60,203 60,203 60,203 60,203 60,203 61,202 61,202 61,202 61,202 61,202 61,202 61,202 61,201 61,201 61,201 61,201 61,201 61,201 62,201 62,200 62,200 62,200 62,200 62,200 62,200 62,200 62,200 62,200 62,200 62,200 62,200 63,200 63,200 63,200 63,200 63,200 63,201 63,201 63,201 63,201 63,201 63,201 63,201 63,202 64,202 64,202 64,202 64,202 64,202 64,202 64,202 64,202 64,203 64,203 64,203 64,203 65,203 65,203 65,202 65,202 65,202 65,202 65,202 65,202 65,202 65,202 65,202 65,203 65,203 66,203 66,203 66,203 66,203 66,204 66,204 66,204 66,204 66,204 66,204 66,204 66,204 66,205 67,205 67,205 67,205 67,205 67,205 67,206 67,206 67,206 67,206 67,206 67,206 67,206 67,206 68,206 68,206 68,207 68,207 68,207 68,207 68,207 68,207 68,207 68,207 68,207 68,207 68,208 69,208 69,208 69,208 69,208 69,208 69,208 69,208 69,208 69,208 69,208 69,208 69,208 69,207 70,207 70,207 70,208 70,208 70,208 70,208 70,208 70,207 70,207 70,207 70,206 70,206 70,206 71,205 71,205 71,205 71,205 71,205 71,204 71,204 71,204 71,204 71,204 71,204 71,204 71,204 72,204 72,205 72,205 72,205 72,205 72,205 72,205 72,206 72,206 72,206 72,206 72,206 72,206 73,206 73,205 73,205 73,205 73,206 73,206 73,206 73,206 73,206 73,205 73,205 73,205 73,205 74,205 74,204 74,204 74,204 74,204 74,203 74,203 74,203 74,203 74,203 74,203 74,202 74,202 75,202 75,203 75,203 75,203 75,203 75,203 75,203 75,203 75,203 75,203 75,204 75,204 75,204 76,204 76,204 76,204 76,205 76,205 76,205 76,205 76,206 76,206 76,206 76,207 76,207 76,207 77,208 77,208 77,208 77,208 77,208 77,209 77,209 77,209 77,209 77,210 77,210 77,210 77,211 78,211 78,212 78,212 78,213 78,213 78,213 78,214 78,214 78,214 78,215 78,215 78,215 78,215 79,216 79,216 79,216 79,216 79,216 79,216 79,216 79,216 79,216 79,215 79,215 79,215 80,215 80,215 80,214 80,214 80,214 80,214 80,213 80,213 80,213 80,213 80,213 80,213 80,212 81,212 81,212 81,212 81,212 81,212 81,212 81,212 81,212 81,212 81,212 81,212 81,212 81,212 82,212 82,212 82,212 82,213 82,213 82,213 82,213 82,213 82,213 82,213 82,213 82,214 82,214 83,214 83,214 83,214 83,215 83,215 83,215 83,215 83,215 83,215 83,216 83,215 83,215 83,215 84,215 84,215 84,215 84,215 84,215 84,215 84,215 84,215 84,215 84,215 84,216 84,216 84,216 85,216 85,216 85,217 85,217 85,217 85,217 85,218 85,218 85,218 85,219 85,220 85,220 85,220 86,220 86,220 86,220 86,219 86,219 86,219 86,218 86,218 86,218 86,217 86,217 86,217 86,217 87,217 87,216 87,216 87,216 87,216 87,216 87,215 87,215 87,215 87,215 87,215 87,214 87,214 88,214 88,214 88,214 88,213 88,213 88,213 88,213 88,213 88,213 88,212 88,212 88,212 88,212 89,212 89,212 89,212 89,211 89,211 89,211 89,211 89,211 89,210 89,210 89,210 89,210 89,209 90,209 90,209 90,209 90,208 90,208 90,208 90,208 90,208 90,207 90,207 90,207 90,207 90,207 91,207 91,207 91,207 91,207 91,207 91,207 91,207 91,207 91,207 91,207 91,207 91,207 91,207 92,207 92,207 92,207 92,207 92,207 92,208 92,208 92,208 92,208 92,208 92,208 92,208 92,208 93,207 93,207 93,207 93,207 93,206 93,206 93,206 93,206 93,205 93,205 93,204 93,204 93,204 94,203 94,203 94,203 94,202 94,202 94,202 94,202 94,201 94,201 94,201 94,201 94,200 95,200 95,200 95,200 95,200 95,199 95,199 95,199 95,199 95,198 95,198 95,198 95,197 95,197 96,197 96,196 96,196 96,195 96,195 96,194 96,194 96,193 96,193 96,192 96,192 96,192 96,192 97,191 97,191 97,191 97,191 97,190 97,190 97,190 97,190 97,190 97,189 97,189 97,189 97,189 98,188 98,188 98,188 98,188 98,188 98,188 98,189 98,190 98,190 98,191 98,191 98,191 98,191 99,191 99,191 99,190 99,189 99,189 99,188 99,187 99,187 99,187 99,186 99,186 99,186 99,185 100,185 100,185 100,185 100,185 100,185 100,184 100,184 100,184 100,184 100,184 100,184 100,184 100,183 101,183 101,183 101,183 101,183 101,183 101,182 101,182 101,182 101,182 101,182 101,182 101,181 101,181 102,181 102,181 102,182 102,182 102,182 102,182 102,181 102,182 102,182 102,182 102,182 102,182 102,182 103,182 103,182 103,183 103,183 103,183 103,183 103,184 103,184 103,185 103,185 103,186 103,186 103,186 104,186 104,187 104,188 104,189 104,190 104,191 104,192 104,192 104,193 104,194 104,195 104,196 104,196 105,197 105,197 105,198 105,198 105,199 105,200 105,201 105,201 105,202 105,202 105,202 105,203 105,203 106,204 106,204 106,205 106,205 106,205 106,205 106,205 106,206 106,206 106,205 106,205 106,206 106,206 107,207 107,207 107,207 107,207 107,207 107,207 107,206 107,206 107,205 107,205 107,205 107,205 107,206 108,206 108,206 108,207 108,207 108,208 108,208 108,209 108,209 108,210 108,211 108,211 108,212 108,212 109,213 109,215 109,215 109,216 109,216 109,217 109,217 109,218 109,219 109,219 109,220 109,221 110,221 110,222 110,223 110,223 110,224 110,225 110,225 110,226 110,226 110,227 110,228 110,228 110,228 111,229 111,229 111,229 111,229 111,229 111,229 111,230 111,230 111,230 111,231 111,231 111,231 111,232 112,232 112,232 112,233 112,233 112,234 112,234 112,234 112,235 112,235 112,235 112,235 112,236 112,236 113,236 113,236 113,237 113,237 113,237 113,237 113,237 113,237 113,237 113,237 113,238 113,238 113,238 114,238 114,238 114,238 114,238 114,238 114,238 114,238 114,238 114,238 114,238 114,239 114,239 114,239 115,239 115,239 115,239 115,239 115,240 115,240 115,240 115,241 115,241 115,241 115,242 115,242 115,242 116,242 116,242 116,242 116,242 116,242 116,242 116,242 116,242 116,242 116,242 116,242 116,242 116,242 117,242 117,241 117,241 117,240 117,239 117,238 117,238 117,238 117,238 117,238 117,238 117,238 117,237 118,237 118,237 118,237 118,237 118,237 118,237 118,237 118,237 118,237 118,238 118,238 118,238 118,238 119,238 119,237 119,237 119,237 119,237 119,236 119,236 119,236 119,236 119,236 119,236 119,236 119,235 120,235 120,235 120,235 120,235 120,235 120,235 120,234 120,234 120,234 120,233 120,233 120,233 120,232 121,232 121,232 121,231 121,231 121,231 121,230 121,230 121,229 121,229 121,229 121,228 121,228 121,228 122,227 122,227 122,226 122,225 122,225 122,224 122,224 122,223 122,223 122,222 122,221 122,220 122,219 123,219 123,218 123,217 123,217 123,216 123,215 123,214 123,213 123,212 123,212 123,211 123,210 123,209 124,208 124,207 124,206 124,206 124,205 124,204 124,203 124,203 124,202 124,201 124,200 124,200 125,199 125,198 125,198 125,197 125,197 125,196 125,195 125,195 125,195 125,194 125,194 125,194 125,194 126,194 126,193 126,193 126,193 126,193 126,193 126,193 126,193 126,193 126,193 126,193 126,192 126,192 127,192 127,192 127,193 127,193 127,193 127,193 127,193 127,193 127,193 127,193 127,194 127,194 127,194 128,194 128,194 128,194 128,194 128,194 128,194 128,194 128,194 128,194 128,194 128,194 128,194 128,194 129,194 129,194 129,195 129,195 129,195 129,195 129,196 129,196 129,197 129,198 129,198 129,199 129,199 130,200 130,201 130,201 130,201 130,202 130,202 130,202 130,202 130,203 130,203 130,203 130,203 130,203 131,202 131,202 131,202 131,202 131,201 131,201 131,200 131,200 131,199 131,199 131,198 131,198 131,197 132,196 132,196 132,195 132,195 132,194 132,194 132,193 132,193 132,193 132,192 132,192 132,192 132,192 133,192 133,192 133,192 133,192 133,193 133,193 133,193 133,193 133,193 133,193 133,193 133,193 133,193 134,193 134,193 134,193 134,193 134,194 134,194 134,194 134,194 134,194 134,195 134,195 134,195 134,195 135,196 135,196 135,196 135,197 135,197 135,197 135,197 135,198 135,198 135,198 135,198 135,198 135,198 136,198 136,197 136,197 136,197 136,197 136,197 136,197 136,197 136,197 136,197 136,197 136,197 136,197 137,197 137,197 137,197 137,197 137,197 137,197 137,197 137,197 137,196 137,196 137,195 137,195 137,194 138,194 138,193 138,193 138,193 138,193 138,193 138,193 138,193 138,193 138,192 138,192 138,192 138,192 139,192 139,192 139,193 139,193 139,193 139,194 139,194 139,195 139,195 139,196 139,197 139,197 140,198 140,198 140,199 140,200 140,200 140,201 140,201 140,202 140,203 140,203 140,204 140,204 140,205 141,205 141,206 141,206 141,207 141,207 141,207 141,207 141,208 141,208 141,208 141,209 141,209 141,209 142,209 142,210 142,210 142,210 142,211 142,211 142,212 142,212 142,213 142,213 142,214 142,214 142,214 143,215 143,215 143,216 143,216 143,216 143,216 143,216 143,215 143,214 143,214 143,213 143,212 143,211 144,210 144,210 144,209 144,209 144,208 144,208 144,207 144,207 144,207 144,206 144,206 144,206 144,206 145,206 145,206 145,205 145,205 145,205 145,205 145,204 145,204 145,204 145,203 145,203 145,203 145,204 146,204 146,204 146,205 146,205 146,205 146,205 146,206 146,206 146,206 146,206 146,206 146,206 146,206 147,206 147,206 147,206 147,206 147,206 147,206 147,206 147,206 147,206 147,206 147,207 147,207 147,206 148,207 148,207 148,208 148,209 148,209 148,210 148,211 148,211 148,211 148,212 148,212 148,212 148,212 149,211 149,211 149,211 149,211 149,210 149,209 149,208 149,208 149,207 149,207 149,206 149,205 149,205 150,204 150,203 150,203 150,202 150,202 150,201 150,201 150,200 150,200 150,199 150,199 150,198 150,198 151,198 151,198 151,197 151,197 151,196 151,196 151,195 151,194 151,194 151,193 151,192 151,192 151,191 152,190 152,189 152,188 152,187 152,186 152,186 152,186 152,185 152,185 152,185 152,184 152,184 152,184 153,184 153,184 153,183 153,183 153,183 153,183 153,183 153,182 153,182 153,182 153,182 153,182 153,182 154,182 154,182 154,182 154,182 154,182 154,182 154,182 154,182 154,182 154,182 154,182 154,182 155,182 155,182 155,182 155,182 155,182 155,182 155,182 155,182 155,182 155,182 155,183 155,183 155,183 156,184 156,184 156,185 156,185 156,185 156,186 156,187 156,187 156,188 156,188 156,189 156,190 156,191 157,191 157,192 157,193 157,194 157,194 157,194 157,194 157,194 157,194 157,193 157,193 157,193 157,192 158,192 158,192 158,191 158,191 158,191 158,191 158,192 158,192 158,192 158,192 158,192 158,192 158,192 159,193 159,193 159,193 159,193 159,193 159,193 159,193 159,193 159,193 159,193 159,193 159,193 159,194 160,194 160,194 160,194 160,193 160,193 160,193 160,193 160,193 160,192 160,192 160,193 160,193 160,194 161,194 161,195 161,195 161,195 161,196 161,196 161,196 161,196 161,196 161,196 161,196 161,197 161,197 162,197 162,196 162,196 162,196 162,196 162,196 162,196 162,196 162,196 162,196 162,196 162,196 162,196 163,196 163,196 163,196 163,196 163,196 163,196 163,196 163,196 163,196 163,196 163,196 163,196 163,196 164,196 164,196 164,196 164,196 164,196 164,196 164,196 164,196 164,196 164,196 164,196 164,195 164,195 165,195 165,196 165,196 165,197 165,197 165,198 165,199 165,199 165,200 165,201 165,202 165,202 165,203 166,203 166,204 166,204 166,205 166,206 166,206 166,207 166,207 166,207 166,207 166,207 166,207 166,208 167,208 167,209 167,209 167,209 167,210 167,210 167,211 167,211 167,212 167,212 167,213 167,214 167,214 168,215 168,215 168,215 168,215 168,215 168,214 168,215 168,215 168,216 168,217 168,217 168,218 168,218 169,218 169,218 169,218 169,218 169,218 169,218 169,218 169,218 169,219 169,219 169,219 169,220 170,220 170,220 170,220 170,221 170,221 170,221 170,221 170,222 170,222 170,222 170,222 170,222 170,222 171,223 171,223 171,223 171,223 171,224 171,224 171,224 171,225 171,225 171,226 171,227 171,227 171,228 172,228 172,229 172,230 172,230 172,231 172,232 172,233 172,234 172,235 172,237 172,237 172,237 172,238 173,238 173,238 173,238 173,238 173,238 173,239 173,239 173,238 173,238 173,239 173,239 173,239 173,240 174,240 174,240 174,240 174,240 174,240 174,240 174,241 174,241 174,241 174,241 174,241 174,241 174,241 175,241 175,241 175,241 175,242 175,242 175,242 175,242 175,242 175,242 175,242 175,242 175,243 175,243 176,243 176,243 176,243 176,243 176,243 176,243 176,244 176,244 176,245 176,245 176,245 176,245 176,245 177,245 177,245 177,244 177,244 177,244 177,243 177,242 177,241 177,240 177,240 177,240 177,240 177,240 178,239 178,239 178,239 178,239 178,239 178,238 178,238 178,238 178,238 178,238 178,238 178,237 178,237 179,237 179,237 179,237 179,237 179,236 179,236 179,236 179,236 179,236 179,236 179,235 179,235 179,235 180,235 180,235 180,234 180,234 180,234 180,234 180,233 180,233 180,233 180,232 180,232 180,232 180,231 181,231 181,231 181,230 181,230 181,229 181,229 181,228 181,228 181,227 181,226 181,226 181,225 181,224 182,223 182,223 182,222 182,221 182,221 182,220 182,219 182,219 182,218 182,217 182,216 182,216 182,215 183,214 183,214 183,213 183,213 183,212 183,212 183,211 183,210 183,210 183,209 183,208 183,207 183,207 184,206 184,205 184,204 184,204 184,203 184,203 184,203 184,202 184,202 184,201 184,201 184,201 185,201 185,200 185,201 185,201 185,202 185,202 185,203 185,203 185,203 185,204 185,204 185,204 185,204 186,204 186,204 186,204 186,204 186,204 186,204 186,204 186,203 186,203 186,203 186,205 186,205 186,206 187,206 187,207 187,207 187,207 187,207 187,207 187,207 187,208 187,208 187,209 187,211 187,212 187,212 188,212 188,213 188,214 188,215 188,216 188,216 188,217 188,218 188,219 188,220 188,221 188,221 188,222 189,223 189,224 189,224 189,223 189,222 189,222 189,221 189,221 189,220 189,220 189,220 189,220 189,220 190,219 190,219 190,219 190,218 190,217 190,217 190,217 190,217 190,216 190,216 190,215 190,214 190,214 191,213 191,212 191,212 191,211 191,210 191,209 191,208 191,208 191,207 191,206 191,205 191,205 191,205 192,204 192,204 192,204 192,204 192,205 192,205 192,205 192,205 192,205 192,205 192,205 192,205 192,205 193,205 193,205 193,205 193,204 193,204 193,204 193,204 193,204 193,203 193,203 193,203 193,202 193,202 194,201 194,201 194,202 194,202 194,202 194,201 194,201 194,201 194,201 194,201 194,200 194,200 194,199 195,199 195,198 195,198 195,197 195,197 195,197 195,196 195,196 195,196 195,196 195,196 195,195 195,195 196,195 196,195 196,194 196,194 196,194 196,193 196,193 196,193 196,193 196,192 196,192 196,192 196,192 197,192 197,192 197,191 197,191 197,191 197,191 197,191 197,191 197,190 197,190 197,190 197,190 197,190 198,189 198,189 198,189 198,188 198,188 198,187 198,187 198,187 198,187 198,186 198,186 198,186 198,186 199,185 199,185 199,185 199,184 199,184 199,184 199,183 199,183 199,183 199,182 199,182 199,181 200,181 200,180 200,180 200,180 200,179 200,179 200,179 200,179 200,178 200,178 200,177 200,177 200,177 201,176 201,176 201,176 201,175 201,175 201,175 201,174 201,174 201,174 201,174 201,174 201,174 201,174 202,173 202,173 202,174 202,174 202,174 202,174 202,174 202,174 202,175 202,175 202,175 202,175 202,176 203,176 203,176 203,176 203,176 203,177 203,177 203,177 203,177 203,177 203,178 203,178 203,178 203,178 204,179 204,179 204,179 204,179 204,180 204,180 204,181 204,181 204,181 204,181 204,181 204,181 204,181 205,181 205,180 205,180 205,179 205,179 205,179 205,178 205,178 205,178 205,177 205,177 205,177 205,176 206,176 206,176 206,176 206,175 206,175 206,175 206,175 206,175 206,174 206,174 206,174 206,174 206,174 207,174 207,173 207,173 207,173 207,173 207,173 207,172 207,172 207,172 207,172 207,172 207,172 207,171 208,171 208,171 208,171 208,171 208,171 208,170 208,170 208,170 208,170 208,170 208,170 208,169 208,169 209,169 209,169 209,169 209,169 209,169 209,168 209,168 209,168 209,168 209,168 209,168 209,168 209,168 210,168 210,168 210,168 210,168 210,168 210,168 210,168 210,169 210,169 210,169 210,169 210,169 210,169 211,170 211,170 211,170 211,170 211,171 211,171 211,171 211,171 211,171 211,172 211,172 211,172 211,172 212,172 212,173 212,173 212,173 212,173 212,173 212,173 212,173 212,174 212,174 212,174 212,174 212,174 213,174 213,174 213,174 213,174 213,174 213,174 213,174 213,174 213,174 213,174 213,174 213,174 213,174 214,174 214,174 214,174 214,174 214,174 214,173 214,173 214,173 214,173 214,173 214,173 214,173 215,173 215,173 215,173 215,173 215,173 215,173 215,173 215,173 215,173 215,174 215,174 215,174 215,174 216,174 216,174 216,175 216,175 216,175 216,175 216,175 216,175 216,176 216,176 216,176 216,176 216,176 217,177 217,177 217,177 217,177 217,178 217,178 217,178 217,178 217,178 217,178 217,178 217,178 217,179 218,179 218,179 218,179 218,179 218,179 218,180 218,180 218,180 218,180 218,180 218,180 218,181 218,181 219,181 219,181 219,182 219,182 219,182 219,182 219,182 219,182 219,182 219,183 219,183 219,183 219,183 220,182 220,183 220,183 220,183 220,183 220,183 220,184 220,184 220,184 220,184 220,185 220,185 220,185 221,185 221,185 221,185 221,186 221,186 221,186 221,186 221,186 221,187 221,187 221,187 221,187 221,187 222,188 222,188 222,188 222,189 222,189 222,189 222,189 222,189 222,189 222,190 222,190 222,190 222,190 223,190 223,190 223,190 223,191 223,191 223,191 223,191 223,192 223,192 223,192 223,193 223,193 223,193 224,193 224,193 224,193 224,193 224,194 224,194 224,195 224,195 224,196 224,196 224,196 224,196 224,197 225,197 225,196 225,196 225,196 225,197 225,197 225,197 225,197 225,197 225,197 225,197 225,198 225,197 226,197 226,197 226,196 226,196 226,196 226,195 226,195 226,195 226,195 226,195 226,195 226,194 226,194 227,194 227,194 227,194 227,194 227,194 227,193 227,193 227,193 227,193 227,193 227,193 227,193 227,193 228,193 228,193 228,192 228,192 228,192 228,192 228,192 228,192 228,192 228,192 228,192 228,192 228,192 229,192 229,191 229,191 229,191 229,191 229,191 229,192 229,192 229,192 229,192 229,193 229,193 230,193 230,193 230,194 230,194 230,194 230,195 230,195 230,196 230,196 230,196 230,197 230,197 230,198 231,198 231,199 231,199 231,199 231,200 231,200 231,200 231,201 231,201 231,202 231,202 231,202 231,203 232,203 232,203 232,204 232,204 232,204 232,205 232,205 232,206 232,206 232,207 232,207 232,208 232,208 233,209 233,209 233,210 233,210 233,211 233,211 233,212 233,212 233,212 233,212 233,212 233,211 233,211 234,211 234,211 234,211 234,211 234,211 234,211 234,210 234,210 234,210 234,210 234,210 234,210 234,210 235,210 235,209 235,209 235,209 235,209 235,209 235,209 235,209 235,210 235,210 235,210 235,210 235,210 236,210 236,210 236,210 236,210 236,210 236,210 236,210 236,209 236,209 236,209 236,209 236,209 236,208 237,208 237,208 237,207 237,207 237,207 237,206 237,206 237,206 237,206 237,205 237,205 237,205 237,204 238,204 238,204 238,204 238,203 238,203 238,203 238,203 238,203 238,202 238,202 238,202 238,202 238,202 239,202 239,202 239,202 239,202 239,202 239,202 239,202 239,202 239,202 239,202 239,202 239,202 239,202 240,202 240,202 240,202 240,202 240,202 240,202 240,202 240,203 240,203 240,203 240,204 240,204 240,204 241,204 241,204 241,205 241,205 241,205 241,205 241,205 241,206 241,206 241,206 241,207 241,207 241,207 242,208 242,208 242,209 242,209 242,209 242,210 242,211 242,211 242,212 242,212 242,212 242,213 242,214 243,215 243,216 243,217 243,218 243,219 243,219 243,220 243,221 243,222 243,223 243,224 243,225 243,225 244,226 244,227 244,228 244,229 244,230 244,231 244,231 244,232 244,232 244,232 244,232 244,231 245,231 245,230 245,230 245,229 245,229 245,229 245,228 245,228 245,228 245,227 245,227 245,227 245,227 246,226 246,226 246,226 246,226 246,226 246,226 246,226 246,226 246,226 246,226 246,226 246,226 246,226 247,227 247,227 247,228 247,228 247,229 247,229 247,229 247,230 247,230 247,229 247,228 247,227 247,227 248,226 248,226 248,225 248,225 248,224 248,224 248,223 248,223 248,222 248,221 248,220 248,220 248,219 249,219 249,219 249,218 249,218 249,218 249,217 249,217 249,217 249,216 249,216 249,216 249,216 249,215 250,215 250,215 250,215 250,215 250,214 250,214 250,214 250,214 250,214 250,214 250,214 250,213 250,213 251,213 251,213 251,213 251,213 251,213 251,213 251,213 251,213 251,213 251,213 251,213 251,213 251,213 252,213 252,213 252,213 252,213 252,213 252,213 252,214 252,214 252,214 252,215 252,216 252,216 252,216 253,217 253,217 253,217 253,218 253,218 253,218 253,219 253,219 253,220 253,220 253,220 253,221 253,221 254,221 254,222 254,222 254,223 254,223 254,224 254,224 254,225 254,225 254,225 254,226 254,226 254,227 255,227 255,227 255,227 255,228 255,228 255,228 255,229 255,229 255,229 255,229 255,230 255,230 255,230 256,230 256,231 256,231 256,231 256,231 256,232 256,232 256,232 256,232 256,232 256,233 256,233 256,233 257,233 257,233 257,233 257,233 257,233 257,233 257,234 257,234 257,234 257,234 257,235 257,235 257,235 258,236 258,236 258,237 258,238 258,239 258,240 258,241 258,241 258,242 258,243 258,244 258,244 258,245 259,246 259,247 259,248 259,248 259,249 259,249 259,250 259,250 259,251 259,251 259,251 259,252 260,253 260,253 260,254 260,255 260,256 260,256 260,257 260,258 260,258 260,259 260,260 260,260 260,262 261,262 261,263 261,264 261,264 261,265 261,265 261,266 261,267 261,267 261,268 261,269 261,270 261,271 262,272 262,273 262,274 262,275 262,277 262,278 262,278 262,278 262,279 262,281 262,281 262,280 262,280 263,280 263,279 263,279 263,278 263,277 263,276 263,275 263,275 263,274 263,273 263,273 263,273 263,272 264,271 264,271 264,270 264,269 264,269 264,269 264,268 264,268 264,268 264,267 264,267 264,267 264,267 265,267 265,267 265,268 265,268 265,269 265,269 265,270 265,270 265,271 265,271 265,272 265,272 265,273 266,274 266,274 266,275 266,276 266,276 266,277 266,278 266,278 266,279 266,280 266,281 266,281 266,282 267,283 267,284 267,284 267,285 267,286 267,286 267,287 267,288 267,288 267,289 267,289 267,290 267,291 268,291 268,292 268,293 268,293 268,294 268,295 268,295 268,296 268,297 268,297 268,298 268,299 268,299 269,300 269,301 269,301 269,302 269,302 269,303 269,303 269,304 269,304 269,304 269,305 269,305 269,306 270,306 270,306 270,307 270,307 270,307 270,308 270,308 270,308 270,308 270,309 270,309 270,309 270,309 271,309 271,310 271,310 271,310 271,310 271,310 271,310 271,311 271,311 271,311 271,311 271,312 271,312 272,312 272,312 272,312 272,312 272,313 272,313 272,313 272,313 272,313 272,314 272,314 272,314 272,314 273,314 273,314 273,315 273,315 273,315 273,315 273,315 273,315 273,315 273,315 273,315 273,315 273,315 274,315 274,316 274,316 274,316 274,316 274,316 274,316 274,316 274,316 274,316 274,316 274,316 275,315 275,315 275,315 275,315 275,315 275,315 275,315 275,315 275,315 275,315 275,315 275,315 275,315 276,315 276,315 276,314 276,314 276,314 276,314 276,314 276,314 276,314 276,314 276,314 276,314 276,314 277,314 277,314 277,314 277,314 277,314 277,313 277,313 277,313 277,313 277,313 277,313 277,313 277,313 278,313 278,313 278,313 278,313 278,313 278,313 278,312 278,312 278,313 278,313 278,313 278,313 278,313 279,314 279,314 279,314 279,314 279,315 279,315 279,315 279,315 279,315 279,315 279,315 279,315 279,315 280,315 280,315 280,315 280,315 280,315 280,315 280,315 280,315 280,315 280,315 280,315 280,315 280,315 281,315 281,315 281,315 281,315 281,315 281,315 281,315 281,315 281,315 281,315 281,315 281,315 281,315 282,315 282,315 282,315 282,315 282,315 282,315 282,315 282,315 282,315 282,315 282,315 282,315 282,315 283,315 283,315 283,315 283,315 283,315 283,315 283,315 283,315 283,315 283,315 283,315 283,315 283,315 284,315 284,315 284,315 284,315 284,315 284,314 284,315 284,315 284,315 284,315 284,315 284,316 284,316 285,316 285,316 285,315 285,315 285,315 285,315 285,315 285,315 285,316 285,316 285,316 285,316 285,316 286,316 286,316 286,316 286,316 286,316 286,316 286,316 286,316 286,316 286,316 286,316 286,316 286,316 287,316 287,316 287,316 287,316 287,316 287,316 287,316 287,316 287,316 287,316 287,316 287,316 287,316 288,316 288,316 288,316 288,316 288,316 288,315 288,315 288,315 288,315 288,315 288,315 288,315 288,315 289,315 289,315 289,315 289,315 289,315 289,315 289,315 289,315 289,315 289,315 289,315 289,314 290,314 290,314 290,314 290,314 290,314 290,314 290,314 290,314 290,314 290,314 290,314 290,314 290,313 291,313 291,313 291,313 291,313 291,313 291,313 291,313 291,313 291,313 291,313 291,313 291,313 291,313 292,312 292,312 292,312 292,312 292,312 292,312 292,312 292,311 292,311 292,311 292,311 292,311 292,311 293,311 293,310 293,310 293,310 293,310 293,310 293,310 293,309 293,309 293,309 293,309 293,309 293,309 294,309 294,309 294,309 294,308 294,308 294,308 294,308 294,308 294,308 294,308 294,308 294,308 294,308 295,307 295,307 295,307 295,307 295,307 295,307 295,306 295,306 295,306 295,306 295,306 295,305 295,305 296,305 296,305 296,304 296,304 296,304 296,304 296,304 296,304 296,303 296,303 296,303 296,303 296,302 297,302 297,302 297,301 297,301 297,300 297,300 297,299 297,298 297,298 297,297 297,297 297,296 297,295 298,295 298,294 298,294 298,293 298,293 298,292 298,292 298,292 298,291 298,291 298,291 298,291 298,291 299,291 299,291 299,291 299,291 299,292 299,292 299,292 299,292 299,292 299,292 299,292 299,292 299,292 300,292 300,292 300,293 300,293 300,293 300,293 300,293 300,293 300,293 300,293 300,293 300,293 300,293 301,293 301,293 301,293 301,293 301,292 301,292 301,292 301,292 301,292 301,292 301,292 301,292 301,292 302,292 302,292 302,292 302,292 302,293 302,293 302,293 302,293 302,294 302,294 302,294 302,294 302,294 303,294 303,295 303,295 303,295 303,295 303,295 303,295 303,295 303,295 303,295 303,295 303,295 303,295 304,295 304,295 304,295 304,295 304,295 304,295 304,296 304,296 304,296 304,296 304,295 304,295 305,295 305,295 305,295 305,295 305,295 305,295 305,295 305,295 305,295 305,295 305,295 305,295 305,295 306,295 306,295 306,295 306,294 306,294 306,294 306,294 306,294 306,294 306,294 306,294 306,293 306,293 307,293 307,293 307,293 307,293 307,293 307,292 307,292 307,292 307,292 307,292 307,292 307,292 307,291 308,291 308,291 308,291 308,291 308,291 308,291 308,290 308,290 308,290 308,290 308,290 308,290 308,289 309,289 309,289 309,289 309,289 309,289 309,289 309,289 309,289 309,288 309,288 309,288 309,288 309,288 310,288 310,288 310,288 310,288 310,288 310,288 310,288 310,288 310,288 310,288 310,288 310,287 310,287 311,287 311,287 311,287 311,287 311,287 311,287 311,287 311,287 311,287 311,286 311,286 311,286 311,286 312,286 312,286 312,286 312,286 312,287 312,287 312,287 312,287 312,287 312,287 312,287 312,287 312,287 313,287 313,287 313,287 313,288 313,288 313,288 313,288 313,288 313,288 313,289 313,289 313,289 313,289 314,289 314,290 314,290 314,290 314,290 314,291 314,291 314,292 314,292 314,292 314,293 314,293 314,293 315,294 315,294 315,294 315,294 315,295 315,295 315,296 315,296 315,296 315,297 315,297 315,297 315,298 316,298 316,298 316,299 316,299 316,299 316,299 316,300 316,300 316,300 316,301 316,301 316,301 316,302 317,302 317,302 317,302 317,303 317,303 317,303 317,303 317,303 317,303 317,303 317,303 317,304 317,304 318,304 318,304 318,304 318,304 318,304 318,304 318,304 318,304 318,304 318,305 318,305 318,305 318,305 319,305 319,306 319,306 319,306 319,306 319,306 319,306 319,306 319,306 319,306 319,306 319,306 320,306 320,306 320,305 320,306 320,305 320,305 320,305 320,305 320,304 320,304 320,304 320,304 320,303 321,304 321,303 321,303 321,303 321,303 321,303 321,303 321,303 321,303 321,303 321,303 321,303 321,303 322,303 322,303 322,303 322,303 322,303 322,303 322,303 322,303 322,303 322,303 322,302 322,302 322,302 323,302 323,302 323,302 323,302 323,302 323,301 323,301 323,301 323,301 323,301 323,301 323,301 323,301 324,300 324,300 324,300 324,300 324,300 324,300 324,299 324,299 324,299 324,299 324,299 324,299 324,298 325,298 325,298 325,298 325,298 325,297 325,297 325,297 325,297 325,296 325,296 325,296 325,295 325,295 326,295 326,295 326,295 326,294 326,294 326,294 326,293 326,293 326,293 326,293 326,292 326,292 326,292 327,292 327,292 327,292 327,291 327,291 327,291 327,291 327,291 327,291 327,290 327,290 327,290 327,290 328,290 328,290 328,289 328,289 328,289 328,289 328,289 328,289 328,289 328,289 328,289 328,289 328,289 329,289 329,289 329,288 329,288 329,288 329,289 329,289 329,289 329,288 329,288 329,288 329,288 329,288 330,288 330,288 330,288 330,288 330,288 330,288 330,288 330,288 330,288 330,288 330,288 330,288 330,288 331,288 331,288 331,287 331,287 331,287 331,287 331,287 331,287 331,287 331,287 331,287 331,287 331,287 332,287 332,287 332,287 332,286 332,286 332,286 332,285 332,285 332,285 332,285 332,285 332,285 332,285 333,285 333,285 333,285 333,285 333,285 333,285 333,285 333,285 333,285 333,285 333,285 333,286 333,286 334,286 334,286 334,286 334,287 334,287 334,288 334,288 334,289 334,289 334,289 334,290 334,290 335,290 335,290 335,290 335,291 335,291 335,291 335,291 335,291 335,292 335,292 335,292 335,292 335,292 336,292 336,292 336,292 336,292 336,292 336,292 336,292 336,292 336,292 336,292 336,292 336,292 336,292 337,292 337,292 337,292 337,292 337,292 337,292 337,292 337,292 337,292 337,292 337,292 337,292 337,292 338,292 338,292 338,292 338,292 338,292 338,292 338,292 338,291 338,291 338,291 338,291 338,291 338,291 339,291 339,291 339,291 339,291 339,291 339,291 339,291 339,291 339,291 339,291 339,291 339,291 339,291 340,291 340,291 340,291 340,291 340,291 340,291 340,291 340,291 340,291 340,291 340,291 340,291 340,291 341,291 341,291 341,291 341,291 341,291 341,291 341,290 341,290 341,290 341,290 341,290 341,290 341,290 342,290 342,290 342,290 342,290 342,290 342,290 342,289 342,289 342,289 342,289 342,289 342,289 342,289 343,289 343,289 343,288 343,288 343,288 343,288 343,288 343,288 343,288 343,288 343,288 343,288 343,288 344,288 344,288 344,288 344,288 344,288 344,288 344,288 344,288 344,288 344,288 344,288 344,288 344,288 345,289 345,289 345,289 345,289 345,289 345,290 345,290 345,290 345,291 345,291 345,291 345,291 345,292 346,292 346,292 346,292 346,293 346,293 346,293 346,293 346,294 346,294 346,294 346,294 346,295 346,295 347,296 347,296 347,296 347,297 347,297 347,297 347,298 347,298 347,299 347,299 347,300 347,300 347,301 348,301 348,302 348,302 348,302 348,302 348,302 348,302 348,302 348,301 348,301 348,301 348,301 348,301 349,300 349,300 349,299 349,299 349,299 349,299 349,299 349,298 349,298 349,298 349,297 349,297 350,296 350,296 350,295 350,295 350,294 350,294 350,293 350,293 350,292 350,291 350,291 350,290 350,290 351,289 351,289 351,288 351,288 351,287 351,287 351,286 351,286 351,285 351,284 351,284 351,283 351,283 352,282 352,281 352,281 352,280 352,280 352,279 352,279 352,278 352,278 352,277 352,276 352,276 352,276 353,275 353,275 353,275 353,275 353,275 353,274 353,274 353,274 353,274 353,274 353,274 353,273 353,273 354,273 354,273 354,272 354,272 354,272 354,272 354,272 354,271 354,271 354,271 354,271 354,270 354,270 355,270 355,269 355,269 355,269 355,268 355,268 355,268 355,268 355,267 355,267 355,267 355,267 355,267 356,267 356,267 356,267 356,266 356,266 356,266 356,266 356,266 356,266 356,266 356,266 356,266 356,265 357,265 357,265 357,265 357,265 357,265 357,264 357,264 357,264 357,264 357,264 357,264 357,264 357,264 358,264 358,263 358,263 358,263 358,263 358,263 358,262 358,262 358,262 358,262 358,262 358,262 358,261 359,261 359,261 359,261 359,261 359,260 359,260 359,260 359,260 359,260 359,260 359,259 359,259 359,260 360,260 360,260 360,260 360,260 360,260 360,260 360,261 360,261 360,261 360,261 360,262 360,262 360,262 361,263 361,263 361,264 361,264 361,265 361,265 361,266 361,266 361,267 361,267 361,268 361,269 361,269 362,270 362,270 362,271 362,271 362,271 362,271 362,272 362,272 362,272 362,272 362,272 362,272 362,272 363,273 363,273 363,273 363,273 363,273 363,273 363,273 363,273 363,273 363,273 363,273 363,273 363,273 364,273 364,273 364,272 364,272 364,271 364,271 364,271 364,270 364,270 364,269 364,269 364,269 365,268 365,268 365,268 365,268 365,268 365,268 365,268 365,268 365,268 365,268 365,269 365,269 365,270 366,270 366,271 366,272 366,272 366,273 366,274 366,274 366,275 366,276 366,277 366,277 366,278 366,278 367,279 367,280 367,280 367,281 367,282 367,282 367,282 367,282 367,283 367,283 367,283 367,283 367,283 368,283 368,283 368,282 368,282 368,282 368,282 368,281 368,281 368,282 368,282 368,283 368,283 368,284 369,284 369,285 369,285 369,286 369,286 369,286 369,286 369,286 369,286 369,285 369,285 369,284 369,284 370,283 370,283 370,283 370,282 370,282 370,282 370,281 370,281 370,281 370,280 370,280 370,280 370,279 371,279 371,279 371,278 371,278 371,278 371,277 371,277 371,277 371,276 371,275 371,275 371,274 371,273 372,273 372,272 372,271 372,271 372,270 372,269 372,269 372,268 372,267 372,267 372,266 372,266 372,265 373,265 373,265 373,264 373,264 373,264 373,264 373,264 373,264 373,264 373,263 373,263 373,263 373,263 374,263 374,263 374,263 374,263 374,263 374,263 374,263 374,263 374,263 374,263 374,263 374,263 374,263 375,263 375,263 375,263 375,263 375,263 375,264 375,264 375,264 375,264 375,264 375,264 375,265 375,265 376,265 376,265 376,265 376,265 376,265 376,266 376,266 376,266 376,266 376,266 376,266 376,267 376,267 377,267 377,267 377,268 377,268 377,268 377,269 377,269 377,270 377,270 377,271 377,271 377,272 377,273 378,273 378,274 378,275 378,275 378,276 378,277 378,277 378,278 378,279 378,279 378,280 378,280 378,281 379,281 379,282 379,281 379,281 379,281 379,281 379,281 379,281 379,281 379,281 379,281 379,281 380,281 380,281 380,281 380,281 380,281 380,280 380,280 380,280 380,280 380,280 380,280 380,280 380,279 381,278 381,278 381,278 381,278 381,277 381,277 381,277 381,277 381,277 381,277 381,278 381,278 381,278 382,279 382,279 382,279 382,280 382,280 382,281 382,281 382,282 382,282 382,283 382,283 382,284 382,285 383,286 383,286 383,287 383,288 383,288 383,289 383,289 383,290 383,290 383,291 383,291 383,292 383,292 384,292 384,292 384,292 384,291 384,291 384,290 384,289 384,289 384,288 384,288 384,287 384,286 384,285 385,285 385,284 385,283 385,283 385,282 385,282 385,281 385,281 385,280 385,279 385,279 385,278 385,278 386,277 386,277 386,276 386,276 386,275 386,274 386,274 386,273 386,273 386,272 386,272 386,272 386,272 387,271 387,271 387,271 387,271 387,271 387,271 387,271 387,271 387,270 387,270 387,270 387,270 387,270 388,270 388,270 388,270 388,270 388,271 388,271 388,271 388,271 388,271 388,271 388,271 388,271 388,272 389,272 389,272 389,272 389,272 389,272 389,272 389,273 389,273 389,273 389,273 389,273 389,273 389,273 390,274 390,274 390,274 390,274 390,274 390,274 390,275 390,275 390,275 390,275 390,275 390,275 390,276 391,276 391,276 391,277 391,277 391,277 391,278 391,279 391,279 391,280 391,280 391,281 391,281 391,282 392,282 392,282 392,282 392,282 392,282 392,282 392,282 392,282 392,283 392,283 392,283 392,283 392,284 393,284 393,284 393,284 393,285 393,285 393,285 393,285 393,286 393,286 393,286 393,287 393,287 393,287 394,288 394,288 394,288 394,288 394,288 394,288 394,287 394,287 394,287 394,286 394,286 394,286 395,286 395,285 395,285 395,285 395,285 395,285 395,285 395,285 395,285 395,286 395,286 395,286 395,287 396,287 396,287 396,288 396,289 396,289 396,290 396,290 396,290 396,290 396,290 396,290 396,290 396,290 397,290 397,290 397,290 397,289 397,289 397,289 397,289 397,288 397,288 397,288 397,288 397,288 397,288 398,288 398,288 398,288 398,289 398,289 398,289 398,289 398,289 398,289 398,289 398,289 398,289 398,289 399,289 399,289 399,289 399,289 399,289 399,289 399,289 399,289 399,288 399,288 399,288 399,288 399,288 400,288 400,289 400,289 400,289 400,289 400,290 400,290 400,290 400,290 400,291 400,291 400,291 400,291 401,291 401,292 401,292 401,292 401,292 401,293 401,293 401,293 401,293 401,293 401,293 401,294 401,294 402,294 402,294 402,294 402,294 402,295 402,295 402,295 402,295 402,296 402,296 402,296 402,296 402,296 403,296 403,297 403,297 403,297 403,297 403,297 403,298 403,298 403,298 403,298 403,298 403,299 403,299 404,299 404,300 404,300 404,300 404,300 404,301 404,301 404,301 404,302 404,302 404,303 404,303 404,303 405,304 405,304 405,305 405,305 405,306 405,306 405,307 405,308 405,308 405,308 405,308 405,309 405,309 406,310 406,310 406,311 406,311 406,312 406,312 406,313 406,313 406,314 406,314 406,314 406,315 406,315 407,315 407,315 407,316 407,316 407,316 407,317 407,317 407,317 407,317 407,317 407,318 407,318 407,318 408,318 408,318 408,318 408,318 408,318 408,318 408,318 408,318 408,318 408,318 408,318 408,318 408,319 409,319 409,319 409,319 409,319 409,319 409,318 409,318 409,318 409,318 409,318 409,318 409,318 410,317 410,317 410,317 410,317 410,317 410,317 410,317 410,317 410,317 410,318 410,318 410,318 410,318 411,318 411,318 411,318 411,318 411,318 411,318 411,318 411,319 411,319 411,319 411,320 411,320 411,320 412,320 412,321 412,321 412,321 412,321 412,322 412,322 412,322 412,322 412,322 412,322 412,322 412,322 413,322 413,323 413,323 413,323 413,323 413,323 413,323 413,323 413,323 413,323 413,323 413,323 413,323 414,323 414,323 414,324 414,324 414,324 414,324 414,324 414,324 414,324 414,324 414,324 414,324 414,324 415,324 415,324 415,324 415,324 415,324 415,324 415,325 415,325 415,325 415,325 415,325 415,326 415,326 416,326 416,326 416,326 416,326 416,326 416,326 416,326 416,326 416,326 416,326 416,326 416,326 416,326 417,326 417,326 417,326 417,326 417,326 417,326 417,326 417,326 417,326 417,326 417,326 417,326 417,326 418,326 418,326 418,326 418,327 418,327 418,327 418,327 418,327 418,327 418,327 418,327 418,327 418,327 419,327 419,327 419,327 419,327 419,327 419,327 419,327 419,327 419,327 419,327 419,327 419,327 419,327 420,327 420,327 420,327 420,327 420,327 420,327 420,327 420,327 420,326 420,326 420,326 420,326 420,326 421,326 421,326 421,327 421,327 421,327 421,327 421,327 421,327 421,327 421,327 421,327 421,327 421,326 422,326 422,326 422,326 422,326 422,326 422,327 422,327 422,327 422,327 422,327 422,327 422,327 422,327 423,327 423,327 423,327 423,327 423,326 423,326 423,326 423,326 423,326 423,326 423,326 423,326 423,326 424,326 424,326 424,326 424,326 424,326 424,326 424,326 424,326 424,326 424,326 424,326 424,326 425,326 425,326 425,326 425,326 425,326 425,326 425,326 425,326 425,326 425,327 425,327 425,327 425,327 426,327 426,327 426,327 426,327 426,327 426,327 426,327 426,327 426,327 426,327 426,327 426,327 426,327 427,327 427,327 427,327 427,327 427,327 427,327 427,327 427,327 427,327 427,327 427,327 427,327 427,327 428,327 428,327 428,327 428,327 428,327 428,327 428,327 428,327 428,327 428,327 428,327 428,327 428,328 429,328 429,328 429,328 429,328 429,328 429,328 429,328 429,328 429,328 429,328 429,328 429,328 429,327 430,327 430,327 430,327 430,327 430,327 430,327 430,327 430,327 430,327 430,328 430,328 430,328 430,328 431,328 431,328 431,329 431,329 431,329 431,329 431,329 431,330 431,330 431,330 431,330 431,330 431,330 432,330 432,330 432,331 432,331 432,331 432,331 432,331 432,331 432,331 432,331 432,332 432,332 432,332 433,332 433,332 433,332 433,332 433,332 433,332 433,332 433,332 433,332 433,332 433,332 433,332 433,333 434,333 434,333 434,333 434,333 434,333 434,333 434,333 434,333 434,333 434,333 434,334 434,334 434,334 435,334 435,334 435,334 435,334 435,334 435,334 435,334 435,334 435,334 435,334 435,334 435,334 435,334 436,334 436,334 436,335 436,335 436,335 436,335 436,335 436,335 436,335 436,335 436,335 436,335 436,335 437,335 437,335 437,335 437,335 437,335 437,335 437,335 437,335 437,335 437,335 437,335 437,335 437,335 438,335 438,336 438,336 438,336 438,336 438,336 438,336 438,336 438,336 438,336 438,336 438,336 438,336 439,336 439,336 439,336 439,336 439,336 439,336 439,337 439,337 439,337 439,337 439,337 439,337 440,337 440,337 440,337 440,337 440,337 440,337 440,337 440,337 440,337 440,337 440,337 440,337 440,338 441,337 441,337 441,337 441,338 441,338 441,338 441,338 441,338 441,338 441,338 441,338 441,338 441,338 442,338 442,338 442,338 442,338 442,338 442,338 442,338 442,338 442,338 442,338 442,338 442,338 442,338 443,338 443,338 443,338 443,338 443,338 443,338 443,338 443,338 443,338 443,338 443,338 443,338 443,338 444,338 444,338 444,338 444,339 444,339 444,339 444,339 444,339 444,339 444,339 444,339 444,339 444,339 445,339 445,339 445,339 445,339 445,339 445,339 445,339 445,339 445,339 445,339 445,339 445,339 445,339 446,339 446,339 446,339 446,339 446,339 446,339 446,339 446,339 446,339 446,339 446,339 446,340 446,340 447,340 447,340 447,340 447,340 447,340 447,340 447,340 447,340 447,340 447,340 447,340 447,340 447,340 448,340 448,340 448,340 448,340 448,340 448,340 448,340 448,341 448,341 448,341 448,341 448,340 448,340 449,341 449,341 449,341 449,341 449,341 449,341 449,341 449,341 449,341 449,341 449,341 449,341 449,341 450,341 450,341 450,341 450,342 450,341 450,341 450,341 450,341 450,341 450,341 450,341 450,341 450,341 451,341 451,341 451,341 451,341 451,341 451,341 451,341 451,342 451,342 451,342 451,342 451,342 451,342 452,342 452,342 452,342 452,342 452,342 452,343 452,343 452,343 452,343 452,343 452,343 452,343 452,343 453,343 453,343 453,343 453,343 453,343 453,343 453,343 453,343 453,343 453,343 453,343 453,343 453,343 454,343 454,343 454,343 454,343 454,343 454,343 454,343 454,343 454,343 454,343 454,343 454,343 455,343 455,343 455,343 455,343 455,343 455,343 455,343 455,343 455,343 455,343 455,343 455,343 455,344 456,344 456,344 456,344 456,344 456,344 456,343 456,343 456,344 456,344 456,344 456,343 456,343 456,343 457,343 457,344 457,344 457,344 457,344 457,344 457,344 457,344 457,344 457,344 457,344 457,344 457,344 458,344 458,344 458,344 458,344 458,344 458,344 458,344 458,344 458,344 458,344 458,345 458,345 458,345 459,345 459,345 459,345 459,345 459,345 459,345 459,345 459,345 459,345 459,345 459,345 459,345 459,345 460,345 460,345 460,345 460,345 460,345 460,345 460,345 460,345 460,345 460,345 460,345 460,345 460,345 461,345 461,346 461,346 461,346 461,346 461,346 461,345 461,345 461,345 461,345 461,345 461,345 461,345 462,345 462,345 462,345 462,346 462,346 462,346 462,346 462,346 462,346 462,346 462,346 462,347 462,347 463,347 463,347 463,347 463,347 463,347 463,347 463,347 463,347 463,347 463,346 463,346 463,346 463,346 464,347 464,347 464,347 464,347 464,347 464,347 464,347 464,347 464,347 464,347 464,347 464,347 464,348 465,348 465,348 465,348 465,347 465,347 465,347 465,347 465,347 465,347 465,347 465,348 465,348 465,348 466,348 466,348 466,348 466,348 466,348 466,348 466,348 466,348 466,348 466,348 466,348 466,348 466,348 467,348 467,348 467,349 467,349 467,349 467,349 467,349 467,349 467,349 467,349 467,349 467,349 467,349 468,349 468,349 468,349 468,349 468,349 468,349 468,349 468,349 468,349 468,349 468,349 468,349 468,349 469,349 469,349 469,349 469,349 469,349 469,349 469,350 469,350 469,350 469,350 469,350 469,350 470,350 470,350 470,350 470,350 470,350 470,350 470,350 470,350 470,350 470,350 470,350 470,350 470,350 471,350 471,350 471,350 471,350 471,350 471,350 471,350 471,351 471,351 471,351 471,351 471,351 471,351 472,351 472,351 472,351 472,351 472,351 472,351 472,351 472,351 472,351 472,351 472,351 472,351 472,351 473,351 473,351 473,351 473,352 473,352 473,352 473,352 473,352 473,352 473,352 473,352 473,352 473,352 474,352 474,352 474,352 474,352 474,352 474,352 474,352 474,352 474,352 474,352 474,352 474,352 474,352 475,352 475,352 475,352 475,352 475,352 475,352 475,352 475,352 475,352 475,352 475,353 475,353 475,353 476,353 476,353 476,353 476,353 476,353 476,353 476,353 476,353 476,353 476,353 476,353 476,353 476,353 477,353 477,353 477,353 477,353 477,353 477,353 477,353 477,353 477,353 477,353 477,353 477,353 477,353 478,353 478,353 478,353 478,353 478,353 478,354 478,354 478,354 478,354 478,354 478,354 478,354 478,354 479,354 479,354 479,354 479,354 479,354 479,354 479,354 479,354 479,354 479,354 479,354 479,354 479,354 480,354 480,354 480,354 480,355 480,355 480,355 480,355 480,355 480,355 480,355 480,355 480,355 480,355 481,355 481,355 481,355 481,355 481,355 481,355 481,355 481,355 481,355 481,355 481,355 481,355 481,355 482,355 482,355 482,355 482,355 482,355 482,355 482,355 482,355 482,355 482,355 482,355 482,355 482,355 483,355 483,355 483,355 483,355 483,355 483,355 483,355 483,355 483,355 483,355 483,355 483,355 483,355 484,355 484,355 484,355 484,355 484,355 484,355 484,355 484,355 484,355 484,355 484,355 484,355 485,355 485,355 485,355 485,355 485,355 485,355 485,355 485,355 485,355 485,355 485,355 485,355 485,355 486,355 486,355 486,355 486,355 486,355 486,355 486,355 486,355 486,355 486,355 486,355 486,355 486,355 487,355 487,355 487,355 487,355 487,355 487,355 487,355 487,355 487,355 487,355 487,355 487,355 487,355 488,355 488,355 488,355 488,355 488,355 488,355 488,355 488,355 488,355 488,355 488,355 488,355 488,355 489,355 489,356 489,356 489,356 489,356 489,356 489,356 489,356 489,356 489,356 489,356 489,356 489,356 490,356 490,356 490,356 490,356 490,356 490,356 490,355 490,355 490,355 490,355 490,355 490,355 490,355 491,355 491,355 491,355 491,355 491,355 491,355 491,355 491,355 491,355 491,355 491,355 491,355 491,354 492,354 492,354 492,354 492,354 492,354 492,353 492,353 492,353 492,353 492,353 492,353 492,352 492,352 493,352 493,352 493,352 493,352 493,352 493,352 493,351 493,351 493,351 493,351 493,351 493,351 493,351 494,351 494,350 494,350 494,350 494,350 494,350 494,350 494,350 494,350 494,350 494,350 494,350 494,350 495,350 495,350 495,350 495,350 495,350 495,349 495,349 495,349 495,349 495,349 495,350 495,350 495,350 496,350 496,350 496,350 496,350 496,350 496,350 496,350 496,350 496,350 496,350 496,350 496,350 496,350 497,350 497,350 497,350 497,350 497,350 497,350 497,350 497,350 497,350 497,350 497,350 497,350 497,350 498,350 498,350 498,350 498,350 498,350 498,350 498,349 498,349 498,349 498,349 498,349 498,349 499,349 499,349 499,349 499,349 499,349 499,349 499,349 499,349 499,349 499,349 499,349 499,349 499,349 500,349 500,349 500,349 500,349 500,349 500,349 500,349 500,349 500,349 500,349 500,349 500,349 500,349 501,349 501,349 501,349 501,349 501,349 501,349 501,349 501,349 501,349 501,349 501,349 501,349 501,349 502,349 502,349 502,349 502,349 502,349 502,349 502,350 502,350 502,350 502,350 502,350 502,350 502,350 503,350 503,350 503,350 503,350 503,350 503,350 503,350 503,351 503,351 503,351 503,351 503,351 503,351 504,351 504,351 504,351 504,351 504,352 504,352 504,352 504,352 504,352 504,352 504,352 504,352 504,352 505,352 505,352 505,352 505,352 505,353 505,353 505,353 505,353 505,353 505,353 505,353 505,353 505,353 506,353 506,353 506,353 506,353 506,353 506,353 506,353 506,353 506,353 506,353 506,353 506,353 506,352 507,352 507,352 507,352 507,352 507,352 507,352 507,352 507,352 507,352 507,353 507,353 507,353 507,353 508,353 508,353 508,353 508,353 508,353 508,353 508,353 508,353 508,353 508,353 508,353 508,353 508,353 509,353 509,353 509,353 509,353 509,353 509,353 509,354 509,354 509,354 509,354 509,354 509,354 509,354 510,354 510,354 510,354 510,354 510,354 510,354 510,354 510,354 510,354 510,354 510,355 510,355 510,355 511,355 511,355 511,355 511,355 511,355 511,355 511,355 511,355 511,355 511,356 511,356 511,356 511,356 512,356 512,356 512,356 512,356 512,356 512,356 512,356 512,356 512,356 512,356 512,356 512,356 512,356 513,356 513,356 513,356 513,356 513,356 513,356 513,356 513,356 513,356 513,356 513,356 513,356 514,357 514,357 514,357 514,357 514,357 514,357 514,357 514,357 514,357 514,357 514,357 514,357 514,357 515,357 515,357 515,357 515,357 515,356 515,356 515,356 515,356 515,356 515,356 515,356 515,357 515,357 516,357 516,357 516,357 516,357 516,357 516,357 516,357 516,357 516,357 516,357 516,357 516,357 516,357 517,357 517,357 517,357 517,357 517,357 517,357 517,357 517,357 517,357 517,357 517,357 517,357 517,357 518,357 518,357 518,357 518,356 518,356 518,356 518,356 518,356 518,356 518,356 518,356 518,356 518,356 519,356 519,356 519,356 519,356 519,357 519,357 519,357 519,357 519,357 519,357 519,357 519,357 519,357 520,357 520,357 520,357 520,357 520,357 520,357 520,357 520,357 520,357 520,357 520,357 520,357 520,357 521,357 521,357 521,357 521,357 521,357 521,357 521,357 521,357 521,357 521,357 521,357 521,357 521,357 522,357 522,357 522,357 522,357 522,357 522,357 522,357 522,357 522,357 522,357 522,357 522,357 522,357 523,357 523,357 523,357 523,357 523,357 523,357 523,357 523,357 523,357 523,357 523,357 523,357 523,357 524,357 524,357 524,357 524,357 524,357 524,357 524,357 524,357 524,357 524,357 524,357 524,357 524,357 525,357 525,357 525,357 525,357 525,357 525,357 525,357 525,357 525,357 525,357 525,357 525,357 525,357 526,357 526,357 526,357 526,357 526,357 526,357 526,357 526,357 526,357 526,357 526,357 526,357 526,357 527,357 527,357 527,357 527,357 527,358 527,358 527,358 527,358 527,358 527,358 527,358 527,358 527,358 528,358 528,358 528,358 528,358 528,358 528,358 528,358 528,358 528,358 528,358 528,358 528,358 529,357 529,358 529,358 529,358 529,358 529,358 529,358 529,358 529,358 529,358 529,358 529,358 529,358 530,358 530,358 530,358 530,358 530,358 530,358 530,358 530,358 530,358 530,358 530,358 530,358 530,358 531,358 531,358 531,358 531,358 531,358 531,358 531,358 531,358 531,358 531,358 531,358 531,358 531,358 532,358 532,358 532,358 532,358 532,358 532,358 532,358 532,358 532,358 532,358 532,358 532,358 532,358 533,358 533,358 533,358 533,358 533,358 533,358 533,358 533,358 533,358 533,358 533,358 533,358 533,358 534,358 534,358 534,358 534,358 534,358 534,358 534,358 534,358 534,358 534,358 534,358 534,358 534,358 535,358 535,358 535,358 535,358 535,358 535,358 535,358 535,358 535,358 535,358 535,358 535,358 535,358 536,358 536,358 536,358 536,358 536,358 536,358 536,358 536,358 536,358 536,358 536,358 536,358 536,358 537,358 537,358 537,358 537,358 537,358 537,358 537,358 537,358 537,358 537,358 537,358 537,358 537,358 538,358 538,358 538,358 538,358 538,358 538,358 538,358 538,358 538,358 538,358 538,358 538,358 538,358 539,358 539,358 539,358 539,358 539,358 539,358 539,358 539,358 539,358 539,358 539,358 539,358 539,358 540,358 540,358 540,358 540,358 540,358 540,358 540,358 540,358 540,358 540,358 540,359 540,359 540,359 541,359 541,359 541,359 541,359 541,359 541,359 541,359 541,359 541,359 541,359 541,359 541,359 541,359 542,359 542,359 542,359 542,359 542,359 542,359 542,359 542,359 542,359 542,359 542,359 542,359 542,359 543,359 543,359 543,359 543,359 543,359 543,359 543,359 543,359 543,359 543,359 543,359 543,358 544,359 544,359 544,359 544,358 544,359 544,359 544,359 544,359 544,359 544,359 544,359 544,359 544,359 545,359 545,359 545,359 545,359 545,359 545,359 545,359 545,359 545,359 545,359 545,359 545,359 545,359 546,359 546,359 546,359 546,359 546,359 546,359 546,359 546,359 546,359 546,359 546,359 546,359 546,359 547,359 547,359 547,359 547,359 547,359 547,359 547,359 547,359 547,359 547,359 547,359 547,359 547,359 548,359 548,359 548,359 548,360 548,360 548,360 548,360 548,360 548,360 548,360 548,359 548,359 548,359 549,359 549,359 549,359 549,359 549,359 549,359 549,359 549,359 549,359 549,359 549,359 549,359 549,359 550,359 550,359 550,359 550,359 550,359 550,359 550,359 550,359 550,359 550,359 550,359 550,359 550,359 551,359 551,359 551,359 551,359 551,359 551,359 551,359 551,359 551,359 551,359 551,359 551,359 551,360 552,359 552,359 552,359 552,359 552,359 552,360 552,360 552,360 552,360 552,360 552,360 552,360 552,360 553,360 553,360 553,360 553,360 553,360 553,360 553,360 553,360 553,360 553,360 553,360 553,360 553,360 554,360 554,360 554,360 554,360 554,360 554,360 554,360 554,360 554,360 554,360 554,360 554,360 554,360 555,360 555,361 555,361 555,361 555,361 555,361 555,361 555,361 555,360 555,360 555,360 555,360 555,360 556,360 556,360 556,360 556,360 556,360 556,360 556,360 556,360 556,360 556,360 556,360 556,361 556,361 557,361 557,361 557,362 557,363 557,363 557,364 557,364 557,365 557,365 557,365 557,365 557,364 557,364 558,364 558,364 558,363 558,363 558,363 558,363 558,363 558,362 558,362 558,362 558,362 558,362 559,362 559,361 559,361 559,361 559,361 559,361 559,361 559,361 559,361 559,361 559,361 559,361 559,361 560,361 560,361 560,361 560,361 560,361 560,361 560,361 560,361 560,361 560,361 560,361 560,361 560,361 561,361 561,361 561,361 561,361 561,361 561,361 561,361 561,361 561,361 561,361 561,361 561,361 561,361 562,361 562,361 562,361 562,361 562,361 562,361 562,361 562,361 562,361 562,361 562,361 562,361 562,361 563,361 563,361 563,361 563,361 563,361 563,361 563,361 563,361 563,361 563,361 563,361 563,361 563,361 564,361 564,361 564,361 564,361 564,361 564,361 564,361 564,361 564,361 564,361 564,361 564,361 564,361 565,361 565,360 565,360 565,360 565,361 565,361 565,361 565,361 565,361 565,361 565,361 565,361 565,361 566,361 566,361 566,361 566,361 566,360 566,360 566,360 566,360 566,360 566,360 566,360 566,360 566,360 567,360 567,360 567,360 567,361 567,361 567,361 567,361 567,361 567,361 567,361 567,361 567,361 567,361 568,361 568,361 568,361 568,361 568,361 568,361 568,362 568,362 568,362 568,362 568,362 568,362 568,362 569,362 569,362 569,362 569,362 569,362 569,362 569,362 569,362 569,362 569,362 569,362 569,362 569,362 570,362 570,362 570,362 570,362 570,362 570,362 570,362 570,362 570,362 570,362 570,362 570,362 570,362 571,362 571,362 571,362 571,362 571,362 571,362 571,362 571,362 571,362 571,362 571,362 571,362 571,362 572,362 572,362 572,362 572,362 572,362 572,362 572,362 572,362 572,361 572,361 572,361 572,361 572,361 573,361 573,362 573,362 573,362 573,362 573,362 573,362 573,362 573,362 573,362 573,362 573,362 574,362 574,362 574,362 574,362 574,362 574,362 574,362 574,362 574,362 574,362 574,362 574,362 574,362 575,362 575,362 575,362 575,362 575,362 575,362 575,362 575,362 575,362 575,362 575,362 575,362 575,362 576,362 576,363 576,363 576,363 576,363 576,363 576,363 576,363 576,363 576,363 576,363 576,363 576,363 577,363 577,363 577,363 577,363 577,363 577,363 577,363 577,363 577,363 577,363 577,363 577,363 577,363 578,363 578,363 578,363 578,363 578,363 578,363 578,363 578,363 578,363 578,363 578,363 578,363 578,363 579,363 579,363 579,363 579,363 579,363 579,363 579,363 579,363 579,363 579,363 579,363 579,363 579,363 580,363 580,364 580,364 580,364 580,364 580,364 580,364 580,364 580,364 580,364 580,364 580,364 580,364 581,364 581,364 581,364 581,364 581,364 581,364 581,364 581,364 581,364 581,364 581,364 581,364 581,364 582,364 582,364 582,364 582,364 582,364 582,364 582,364 582,364 582,364 582,364 582,364 582,364 582,364 583,364 583,364 583,364 583,364 583,364 583,364 583,364 583,364 583,364 583,364 583,364 583,364 583,364 584,364 584,364 584,364 584,364 584,364 584,364 584,364 584,364 584,364 584,364 584,364 584,364 584,364 585,364 585,364 585,364 585,364 585,364 585,364 585,364 585,365 585,365 585,365 585,365 585,365 585,365 586,365 586,365 586,365 586,365 586,365 586,365 586,365 586,365 586,365 586,365 586,365 586,365 586,365 587,365 587,365 587,365 587,365 587,365 587,365 587,365 587,365 587,365 587,365 587,365 587,365 587,365 588,365 588,365 588,365 588,365 588,365 588,365 588,365 588,365 588,365 588,365 588,365 588,365 589,365 589,365 589,365 589,365 589,365 589,366 589,366 589,366 589,366 589,366 589,366 589,366 589,366 590,366 590,366 590,366 590,366 590,366 590,366 590,366 590,366 590,366 590,366 590,366 590,366 590,366 591,366 591,366 591,366 591,366 591,366 591,366 591,366 591,366 591,366 591,366 591,366 591,366 591,366 592,367 592,367 592,367 592,366 592,366 592,366 592,366 592,366 592,366 592,366 592,366 592,366 592,366 593,366 593,366 593,366 593,366 593,366 593,366 593,366 593,366 593,366 593,366 593,365 593,365 593,365 594,365 594,365 594,365 594,365 594,365 594,365 594,365 594,365 594,365 594,365 594,365 594,365 594,365 595,365 595,365 595,365 595,365 595,365 595,365 595,365 595,365 595,365 595,365 595,365 595,365 595,365 596,365 596,365 596,365 596,365 596,365 596,365 596,365 596,365 596,365 596,365 596,365 596,365 596,365 597,365 597,365 597,365 597,365 597,365 597,365 597,365 597,365 597,365 597,365 597,365 597,365 597,366 598,366 598,366 598,366 598,366 598,366 598,366 598,366 598,366 598,366 598,366 598,366 598,366 598,366 599,366 599,366 599,366 599,366 599,366 599,366 599,366 599,366 599,366 599,366 599,366 599,366 599,366 600,366 600,366 600,366 600,366 600,366 600,366 600,366 600,366 600,366 600,366 600,366 600,366 600,366 601,366 601,366 601,366 601,366 601,366 601,366 601,366 601,366 601,366 601,366 601,366 601,366 601,366 602,366 602,366 602,366 602,366 602,366 602,366 602,366 602,366 602,366 602,366 602,366 602,366 602,366 603,366 603,366 603,366 603,366 603,366 603,366 603,366 603,366 603,366 603,366 603,366 603,366 604,365 604,365 604,365 604,365 604,365 604,365 604,365 604,365 604,365 604,365 604,366 604,366 604,366 605,366 605,366 605,366 605,366 605,366 605,366 605,366 605,366 605,366 605,366 605,366 605,366 605,366 606,366 606,366 606,366 606,366 606,367 606,367 606,367 606,367 606,367 606,367 606,367 606,367 606,367 607,367 607,367 607,367 607,367 607,367 607,367 607,367 607,367 607,367 607,367 607,367 607,367 607,367 608,367 608,367 608,367 608,367 608,367 608,367 608,367 608,367 608,367 608,367 608,367 608,367 608,367 609,367 609,367 609,367 609,367 609,367 609,367 609,367 609,367 609,367 609,367 609,367 609,367 609,367 610,367 610,367 610,367 610,367 610,367 610,367 610,367 610,367 610,367 610,367 610,367 610,367 610,367 611,367 611,367 611,367 611,367 611,367 611,367 611,367 611,367 611,367 611,367 611,367 611,367 611,367 612,367 612,367 612,367 612,367 612,367 612,367 612,367 612,367 612,367 612,367 612,367 612,367 612,367 613,366 613,366 613,366 613,366 613,367 613,367 613,367 613,367 613,367 613,367 613,367 613,367 613,367 614,367 614,367 614,367 614,367 614,367 614,368 614,368 614,368 614,368 614,368 614,368 614,368 614,368 615,368 615,368 615,368 615,368 615,368 615,368 615,368 615,368 615,368 615,368 615,368 615,368 615,368 616,368 616,368 616,368 616,368 616,368 616,368 616,368 616,368 616,368 616,368 616,368 616,368 616,368 617,368 617,368 617,368 617,368 617,368 617,368 617,368 617,368 617,368 617,369 617,369 617,369 617,368 618,368 618,368 618,368 618,368 618,368 618,368 618,369 618,369 618,369 618,369 618,368 618,369 619,369 619,368 619,368 619,368 619,368 619,368 619,368 619,368 619,368 619,368 619,368 619,368 619,368 620,368 620,368 620,368 620,368 620,368 620,368 620,368 620,368 620,368 620,368 620,368 620,368 620,368 621,368 621,368 621,368 621,368 621,368 621,368 621,368 621,368 621,369 621,369 621,369 621,369 621,369 622,369 622,369 622,369 622,369 622,369 622,369 622,369 622,369 622,369 622,369 622,369 622,369 622,369 623,369 623,369 623,369 623,369 623,369 623,369 623,369 623,369 623,369 623,369 623,369 623,369 623,369 624,369 624,369 624,369 624,368 624,368 624,368 624,368 624,368 624,368 624,368 624,368 624,368 624,368 625,368 625,368 625,368 625,368 625,368 625,368 625,368 625,368 625,368 625,368 625,368 625,368 625,368 626,368 626,368 626,368 626,368 626,368 626,368 626,368 626,368 626,368 626,368 626,368 626,368 626,368 627,368 627,368 627,368 627,368 627,368 627,368 627,368 627,368 627,368 627,368 627,368 627,368 627,368 628,368 628,368 628,368 628,368 628,368 628,367 628,367 628,367 628,367 628,367 628,367 628,367 628,367 629,367 629,367 629,367 629,367 629,367 629,367 629,367 629,367 629,367 629,367 629,367 629,367 629,367 630,367 630,367 630,367 630,367 630,367 630,367 630,367 630,367 630,367 630,367 630,367 630,367 630,367 631,368 631,368 631,368 631,368 631,368 631,368 631,368 631,368 631,368 631,368 631,368 631,368 631,368 632,368 632,368 632,368 632,368 632,368 632,368 632,368 632,368 632,368 632,368 632,368 632,368 632,368 633,368 633,368 633,368 633,367 633,367 633,367 633,367 633,367 633,367 633,367 633,367 633,367 634,367 634,367 634,367 634,367 634,367 634,367 634,367 634,367 634,367 634,367 634,367 634,367 634,367 635,367 635,367 635,367 635,367 635,367 635,367 635,367 635,367 635,367 635,367 635,367 635,367 635,367 636,367 636,367 636,367 636,367 636,367 636,367 636,367 636,367 636,367 636,367 636,368 636,368 636,368 637,368 637,368 637,368 637,368 637,368 637,368 637,368 637,368 637,368 637,368 637,368 637,368 637,368 638,368 638,368 638,368 638,368 638,368 638,368 638,368 638,368 638,368 638,368 638,368 638,368 638,368 639,368 639,368 639,368 639,368 639,368 639,368 639,368 639,368 639,368 639,368 639,368 639,368 639,368 640,368 640,368 640,368 640,368 640,368 640,368 640,368 640,368 640,368 640,368 640,368 640,368 640,368 641,368 641,368 641,368 641,368 641,368 641,368 641,368 641,368 641,368 641,368 641,368 641,368 641,368 642,368 642,368 642,368 642,368 642,368 642,368 642,368 642,368 642,368 642,368 642,368 642,368 642,368 643,368 643,368 643,368 643,368 643,368 643,368 643,368 643,368 643,368 643,368 643,368 643,368 643,368 644,368 644,368 644,368 644,368 644,368 644,368 644,368 644,368 644,368 644,368 644,368 644,368 644,368 645,368 645,368 645,368 645,367 645,367 645,367 645,367 645,367 645,367 645,367 645,367 645,367 645,367 646,367 646,367 646,367 646,367 646,367 646,367 646,367 646,367 646,367 646,367 646,367 646,367 646,367 647,367 647,367 647,367 647,367 647,367 647,367 647,367 647,367 647,367 647,368 647,368 647,368 647,368 648,368 648,368 648,368 648,368 648,368 648,368 648,368 648,368 648,368 648,368 648,368 648,368 649,368 649,368 649,368 649,368 649,368 649,368 649,368 649,368 649,368 649,368 649,368 649,368 649,368 650,368 650,368 650,368 650,368 650,368 650,368 650,368 650,368 650,368 650,368 650,368 650,368 650,368 651,368 651,368 651,368 651,368 651,368 651,368 651,368 651,368 651,368 651,368 651,368 651,368 651,368 652,368 652,368 652,368 652,368 652,368 652,368 652,368 652,368 652,368 652,368 652,368 652,368 652,368 653,368 653,368 653,368 653,368 653,368 653,368 653,368 653,368 653,368 653,368 653,368 653,368 653,368 654,368 654,368 654,369 654,369 654,369 654,369 654,369 654,369 654,369 654,369 654,369 654,369 654,369 655,369 655,369 655,369 655,369 655,369 655,369 655,369 655,369 655,369 655,369 655,369 655,369 655,369 656,369 656,369 656,369 656,369 656,369 656,369 656,369 656,369 656,369 656,369 656,369 656,369 656,369 657,369 657,369 657,369 657,369 657,369 657,369 657,369 657,369 657,369 657,369 657,369 657,369 657,369 658,369 658,369 658,369 658,369 658,369 658,369 658,369 658,369 658,369 658,369 658,369 658,369 658,369 659,369 659,369 659,369 659,369 659,369 659,369 659,369 659,369 659,369 659,369 659,369 659,369 659,369 660,369 660,369 660,369 660,369 660,369 660,369 660,369 660,369 660,369 660,369 660,369 660,369 660,369 661,369 661,369 661,369 661,369 661,369 661,369 661,369 661,369 661,369 661,369 661,369 661,369 661,369 662,369 662,369 662,369 662,369 662,369 662,369 662,369 662,369 662,369 662,369 662,369 662,369 662,369 663,369 663,369 663,369 663,369 663,369 663,369 663,369 663,368 663,368 663,368 663,368 663,369 664,369 664,369 664,369 664,369 664,369 664,369 664,369 664,369 664,369 664,369 664,369 664,369 664,369 665,369 665,369 665,369 665,369 665,369 665,369 665,369 665,369 665,369 665,369 665,369 665,369 665,369 666,369 666,369 666,369 666,369 666,369 666,369 666,369 666,369 666,369 666,369 666,369 666,369 666,368 667,368 667,369 667,369 667,369 667,369 667,369 667,369 667,369 667,369 667,369 667,369 667,369 667,369 668,369 668,369 668,369 668,369 668,369 668,369 668,369 668,369 668,369 668,369 668,369 668,369 668,369 669,369 669,369 669,369 669,369 669,369 669,369 669,369 669,369 669,369 669,369 669,369 669,369 669,369 670,370 670,370 670,369 670,369 670,368 670,368 670,368 670,368 670,368 670,367 670,367 670,367 670,367 671,367 671,367 671,367 671,367 671,368 671,368 671,368 671,368 671,368 671,368 671,368 671,368 671,369 672,369 672,369 672,369 672,369 672,368 672,368 672,368 672,368 672,368 672,369 672,369 672,369 672,369 673,369 673,369 673,369 673,369 673,369 673,369 673,369 673,369 673,369 673,369 673,369 673,369 673,369 674,369 674,369 674,369 674,368 674,368 674,368 674,369 674,369 674,369 674,369 674,369 674,369 674,369 675,369 675,369 675,369 675,369 675,369 675,369 675,369 675,369 675,369 675,369 675,369 675,369 675,369 676,369 676,369 676,369 676,369 676,369 676,369 676,369 676,369 676,369 676,369 676,369 676,369 676,369 677,368 677,368 677,368 677,368 677,368 677,369 677,369 677,369 677,369 677,369 677,369 677,369 677,369 678,369 678,369 678,369 678,369 678,369 678,370 678,370 678,370 678,370 678,370 678,370 678,369 679,369 679,369 679,369 679,369 679,369 679,369 679,369 679,369 679,369 679,369 679,369 679,368 679,368 680,368 680,368 680,368 680,368 680,368 680,368 680,368 680,369 680,369 680,369 680,369 680,369 680,369 681,369 681,369 681,369 681,369 681,369 681,369 681,369 681,369 681,369 681,369 681,369 681,369 681,369 682,369 682,369 682,369 682,369 682,369 682,369 682,369 682,369 682,369 682,369 682,369 682,369 682,369 683,369 683,369 683,369 683,369 683,369 683,369 683,369 683,369 683,369 683,369 683,369 683,369 683,369 684,369 684,369 684,369 684,369 684,369 684,369 684,369 684,369 684,369 684,369 684,369 684,369 684,369 685,369 685,369 685,369 685,368 685,368 685,368 685,368 685,368 685,368 685,368 685,368 685,368 685,368 686,368 686,368 686,368 686,368 686,368 686,368 686,368 686,368 686,368 686,368 686,368 686,368 686,368 687,368 687,368 687,368 687,368 687,369 687,369 687,369 687,369 687,369 687,369 687,369 687,369 687,369 688,369 688,369 688,369 688,369 688,369 688,369 688,369 688,369 688,369 688,369 688,369 688,369 688,369 689,369 689,369 689,369 689,369 689,369 689,369 689,369 689,369 689,369 689,368 689,368 689,369 689,369 690,369 690,369 690,369 690,369 690,369 690,369 690,369 690,368 690,368 690,368 690,369 690,369 690,369 691,369 691,369 691,369 691,369 691,369 691,369 691,369 691,369 691,369 691,369 691,369 691,369 691,369 692,369 692,369 692,369 692,369 692,369 692,369 692,369 692,369 692,369 692,369 692,369 692,369 692,369 693,369 693,369 693,369 693,369 693,369 693,369 693,369 693,370 693,370 693,370 693,370 693,370 694,370 694,370 694,370 694,370 694,370 694,370 694,370 694,370 694,370 694,370 694,370 694,370 694,371 695,371 695,372 695,372 695,372 695,372 695,372 695,371 695,371 695,371 695,371 695,370 695,371 695,371 696,371 696,371 696,371 696,371 696,371 696,371 696,371 696,371 696,371 696,371 696,371 696,371 696,371 697,371 697,371 697,370 697,370 697,370 697,370 697,370 697,370 697,370 697,370 697,370 697,370 697,370 698,370 698,370 698,370 698,370 698,371 698,371 698,371 698,371 698,371 698,371 698,371 698,371 698,371 699,371 699,371 699,371 699,370 699,370 699,370 699,370 699,370 699,370 699,370 699,370 699,370 699,370 700,370 700,370 700,370 700,370 700,370 700,370 700,370 700,370 700,370 700,370 700,370 700,370 700,370 701,370 701,370 701,370 701,370 701,370 701,370 701,370 701,370 701,370 701,370 701,370 701,370 701,370 702,370 702,370 702,370 702,370 702,370 702,370 702,370 702,370 702,370 702,370 702,370 702,370 702,370 703,370 703,370 703,370 703,370 703,370 703,370 703,370 703,370 703,370 703,370 703,370 703,370 703,370 704,370 704,370 704,370 704,370 704,370 704,370 704,370 704,370 704,370 704,370 704,370 704,370 704,370 705,370 705,370 705,370 705,370 705,370 705,370 705,370 705,370 705,370 705,370 705,370 705,370 705,370 706,370 706,370 706,370 706,370 706,370 706,370 706,370 706,370 706,370 706,370 706,371 706,371 706,371 707,371 707,371 707,371 707,371 707,371 707,371 707,371 707,371 707,371 707,371 707,371 707,371 707,371 708,371 708,371 708,371 708,371 708,371 708,371 708,371 708,371 708,371 708,371 708,371 708,371 709,371 709,371 709,371 709,371 709,371 709,371 709,371 709,371 709,371 709,371 709,371 709,371 709,371 710,371 710,371 710,371 710,371 710,371 710,371 710,371 710,371 710,371 710,371 710,371 710,371 710,371 711,371 711,371 711,371 711,371 711,371 711,371 711,371 711,371 711,371 711,371 711,371 711,371 711,371 712,371 712,371 712,371 712,371 712,371 712,371 712,371 712,371 712,371 712,371 712,371 712,371 712,371 713,371 713,371 713,370 713,370 713,370 713,370 713,370 713,370 713,370 713,370 713,370 713,370 713,370 714,370 714,370 714,370 714,370 714,370 714,370 714,370 714,370 714,370 714,370 714,370 714,370 714,370 715,370 715,370 715,370 715,370 715,370 715,370 715,370 715,370 715,370 715,370 715,370 715,370 715,370 716,370 716,370 716,370 716,370 716,370 716,370 716,370 716,370 716,370 716,370 716,370 716,370 716,370 717,370 717,370 717,370 717,370 717,370 717,370 717,370 717,370 717,370 717,370 717,370 717,370 717,370 718,370 718,370 718,370 718,370 718,370 718,370 718,370 718,370 718,370 718,370 718,370 718,370 718,370 719,370 719,370 719,370 719,370 719,370 719,370 719,370 719,370 719,370 719,370 719,370 719,370 719,370 720,370 720,370 720,370 720,370 720,370 720,370 720,370 720,370 720,370 720,370 720,370 720,370 720,370 721,370 721,370 721,370 721,370 721,370 721,370 721,370 721,370 721,370 721,370 721,370 721,370 721,370 722,370 722,370 722,370 722,370 722,370 722,370 722,370 722,370 722,370 722,370 722,370 722,370 722,370 723,370 723,370 723,369 723,370 723,370 723,370 723,370 723,370 723,370 723,370 723,370 723,370 724,370 724,370 724,370 724,370 724,370 724,370 724,370 724,370 724,370 724,370 724,370 724,370 724,370 725,370 725,370 725,370 725,370 725,370 725,369 725,369 725,370 725,370 725,370 725,370 725,370 725,369 726,369 726,369 726,369 726,369 726,369 726,369 726,369 726,369 726,370 726,370 726,370 726,370 726,370 727,370 727,370 727,370 727,369 727,369 727,369 727,369 727,369 727,369 727,369 727,369 727,369 727,369 728,369 728,369 728,369 728,369 728,369 728,369 728,370 728,370 728,370 728,370 728,370 728,370 728,369 729,369 729,369 729,369 729,369 729,369 729,369 729,369 729,369 729,369 729,369 729,369 729,369 729,369 730,369 730,369 730,369 730,369 730,369 730,369 730,369 730,369 730,369 730,369 730,369 730,368 730,368 731,368 731,368 731,368 731,368 731,368 731,368 731,368 731,368 731,368 731,368 731,368 731,368 731,368 732,369 732,369 732,369 732,369 732,369 732,369 732,368 732,368 732,369 732,369 732,369 732,369 732,369 733,369 733,369 733,369 733,369 733,369 733,369 733,369 733,369 733,369 733,369 733,369 733,369 733,369 734,369 734,369 734,369 734,369 734,369 734,369 734,369 734,369 734,369 734,369 734,369 734,369 734,369 735,369 735,369 735,369 735,369 735,369 735,369 735,369 735,369 735,369 735,369 735,369 735,369 735,369 736,370 736,370 736,370 736,370 736,370 736,370 736,370 736,370 736,370 736,370 736,371 " vector-effect="non-scaling-stroke"></polyline>
</g></svg>