<?xml version="1.0" encoding="UTF-8" standalone="no"?><svg width="282.222mm" height="141.111mm" xmlns="http://www.w3.org/2000/svg" xmlns:xlink="http://www.w3.org/1999/xlink"  version="1.2" baseProfile="tiny"><g fill="none" stroke="#ff0000" stroke-linecap="round" stroke-linejoin="round" stroke-opacity="1" stroke-width="1.5" transform="matrix(1,0,0,1,0,0)">
<polyline fill="none" points="27,209 27,209 27,208 27,207 27,206 27,205 27,205 27,205 28,204 28,204 28,204 28,204 28,204 28,205 28,205 28,205 28,205 28,205 28,205 28,206 28,206 29,206 29,206 29,206 29,206 29,207 29,207 29,207 29,207 29,207 29,208 29,208 29,208 29,208 30,209 30,209 30,209 30,209 30,209 30,209 30,209 30,209 30,209 30,209 30,210 30,210 30,210 31,210 31,210 31,210 31,210 31,210 31,210 31,211 31,211 31,211 31,211 31,211 31,211 31,211 32,211 32,211 32,211 32,212 32,212 32,212 32,212 32,212 32,212 32,213 32,213 32,214 32,214 33,214 33,214 33,214 33,214 33,214 33,213 33,213 33,213 33,213 33,213 33,212 33,212 33,212 34,212 34,212 34,212 34,212 34,212 34,212 34,212 34,212 34,212 34,212 34,212 34,212 35,212 35,212 35,213 35,213 35,213 35,213 35,213 35,213 35,213 35,213 35,213 35,213 35,213 36,213 36,213 36,213 36,213 36,213 36,213 36,213 36,213 36,213 36,213 36,213 36,213 36,213 37,213 37,213 37,213 37,213 37,213 37,213 37,213 37,213 37,213 37,213 37,213 37,213 37,213 38,213 38,213 38,212 38,212 38,212 38,212 38,212 38,212 38,212 38,212 38,212 38,212 38,212 39,212 39,212 39,212 39,212 39,212 39,211 39,211 39,211 39,211 39,211 39,211 39,211 39,211 40,211 40,211 40,211 40,211 40,211 40,211 40,211 40,211 40,210 40,210 40,210 40,210 40,210 41,209 41,209 41,209 41,209 41,209 41,209 41,209 41,209 41,209 41,209 41,209 41,208 41,208 42,208 42,208 42,208 42,208 42,208 42,208 42,208 42,208 42,208 42,208 42,208 42,208 42,209 43,209 43,209 43,209 43,208 43,208 43,208 43,207 43,207 43,207 43,206 43,206 43,206 43,206 44,205 44,205 44,205 44,205 44,204 44,204 44,204 44,204 44,204 44,204 44,204 44,204 44,204 45,204 45,203 45,203 45,203 45,203 45,203 45,203 45,202 45,202 45,202 45,202 45,202 45,202 46,201 46,201 46,201 46,201 46,201 46,200 46,200 46,200 46,200 46,200 46,200 46,199 46,200 47,199 47,199 47,199 47,199 47,199 47,199 47,199 47,198 47,198 47,198 47,198 47,197 47,197 48,197 48,197 48,196 48,196 48,196 48,195 48,195 48,195 48,195 48,194 48,194 48,193 48,192 49,191 49,191 49,190 49,190 49,190 49,190 49,189 49,189 49,189 49,189 49,189 49,189 50,189 50,189 50,188 50,188 50,188 50,188 50,188 50,188 50,188 50,188 50,188 50,188 50,188 51,188 51,188 51,188 51,188 51,188 51,188 51,188 51,188 51,188 51,188 51,188 51,188 51,188 52,188 52,188 52,188 52,188 52,188 52,188 52,188 52,188 52,189 52,189 52,189 52,190 52,190 53,191 53,191 53,191 53,191 53,191 53,191 53,192 53,192 53,193 53,193 53,193 53,194 53,194 54,193 54,194 54,194 54,194 54,194 54,194 54,195 54,195 54,195 54,196 54,196 54,197 54,197 55,198 55,198 55,198 55,199 55,199 55,200 55,200 55,201 55,201 55,202 55,202 55,202 55,203 56,203 56,203 56,204 56,204 56,205 56,205 56,205 56,205 56,206 56,206 56,206 56,207 56,207 57,207 57,207 57,207 57,207 57,207 57,207 57,208 57,207 57,208 57,208 57,208 57,209 57,209 58,209 58,210 58,210 58,210 58,211 58,211 58,211 58,211 58,212 58,212 58,212 58,211 58,211 59,211 59,211 59,210 59,210 59,210 59,209 59,209 59,209 59,209 59,209 59,209 59,209 59,209 60,209 60,209 60,209 60,209 60,209 60,210 60,210 60,210 60,210 60,211 60,211 60,211 60,211 61,212 61,212 61,212 61,212 61,213 61,213 61,213 61,213 61,214 61,214 61,214 61,214 61,215 62,215 62,215 62,215 62,215 62,216 62,216 62,216 62,216 62,216 62,217 62,217 62,217 62,217 63,218 63,218 63,218 63,218 63,218 63,218 63,219 63,219 63,219 63,219 63,219 63,219 64,218 64,218 64,217 64,217 64,217 64,217 64,217 64,217 64,217 64,216 64,216 64,215 64,215 65,214 65,214 65,214 65,213 65,213 65,213 65,212 65,212 65,212 65,212 65,211 65,211 65,211 66,211 66,211 66,211 66,211 66,211 66,211 66,211 66,212 66,212 66,212 66,212 66,213 66,213 67,213 67,213 67,214 67,214 67,214 67,214 67,214 67,215 67,215 67,215 67,215 67,216 67,216 68,216 68,216 68,216 68,216 68,217 68,217 68,217 68,218 68,218 68,219 68,219 68,219 68,219 69,220 69,220 69,220 69,220 69,220 69,220 69,220 69,220 69,221 69,221 69,221 69,221 69,221 70,221 70,221 70,221 70,221 70,221 70,222 70,222 70,222 70,223 70,223 70,223 70,224 70,224 71,225 71,225 71,225 71,225 71,224 71,224 71,224 71,224 71,224 71,224 71,224 71,223 71,223 72,223 72,223 72,223 72,223 72,222 72,222 72,222 72,222 72,221 72,221 72,220 72,220 72,220 73,219 73,219 73,219 73,219 73,219 73,219 73,219 73,219 73,219 73,219 73,219 73,219 73,219 74,219 74,219 74,218 74,218 74,218 74,218 74,218 74,218 74,217 74,217 74,217 74,217 74,217 75,217 75,217 75,217 75,217 75,218 75,218 75,218 75,218 75,218 75,218 75,219 75,219 75,219 76,219 76,219 76,220 76,220 76,220 76,220 76,220 76,220 76,220 76,220 76,220 76,219 76,219 77,219 77,219 77,220 77,220 77,220 77,220 77,220 77,220 77,220 77,220 77,219 77,219 78,219 78,219 78,219 78,219 78,219 78,219 78,219 78,219 78,218 78,218 78,218 78,218 78,218 79,218 79,218 79,217 79,217 79,218 79,218 79,218 79,217 79,217 79,217 79,217 79,217 79,217 80,217 80,217 80,217 80,218 80,218 80,218 80,218 80,218 80,218 80,218 80,219 80,219 80,219 81,219 81,219 81,219 81,219 81,219 81,220 81,220 81,221 81,221 81,222 81,222 81,223 81,223 82,224 82,224 82,224 82,224 82,225 82,225 82,225 82,225 82,225 82,225 82,225 82,226 82,227 83,227 83,228 83,229 83,229 83,229 83,229 83,230 83,230 83,230 83,230 83,230 83,230 83,230 84,230 84,231 84,230 84,230 84,230 84,230 84,230 84,230 84,230 84,230 84,231 84,232 84,233 85,233 85,233 85,233 85,233 85,233 85,233 85,233 85,233 85,233 85,233 85,233 85,233 85,233 86,233 86,233 86,233 86,233 86,233 86,233 86,233 86,233 86,233 86,233 86,233 86,233 86,233 87,233 87,233 87,233 87,233 87,233 87,233 87,233 87,233 87,233 87,233 87,233 87,233 87,233 88,233 88,233 88,233 88,233 88,233 88,233 88,233 88,233 88,233 88,233 88,232 88,232 88,232 89,232 89,232 89,232 89,232 89,232 89,232 89,232 89,232 89,231 89,231 89,231 89,231 89,231 90,231 90,230 90,230 90,230 90,230 90,230 90,230 90,230 90,229 90,229 90,229 90,229 90,228 91,228 91,228 91,228 91,228 91,228 91,228 91,228 91,228 91,228 91,228 91,228 91,228 91,228 92,228 92,228 92,228 92,228 92,228 92,229 92,229 92,229 92,229 92,229 92,229 92,228 93,228 93,228 93,228 93,229 93,229 93,229 93,229 93,230 93,230 93,230 93,230 93,230 93,230 94,230 94,230 94,230 94,230 94,229 94,229 94,228 94,227 94,227 94,227 94,226 94,225 94,225 95,223 95,223 95,223 95,222 95,222 95,222 95,222 95,222 95,222 95,221 95,221 95,221 95,221 96,221 96,222 96,222 96,222 96,222 96,222 96,222 96,223 96,223 96,223 96,224 96,224 96,224 97,224 97,223 97,223 97,223 97,222 97,222 97,222 97,221 97,221 97,221 97,220 97,220 97,220 98,220 98,220 98,220 98,220 98,220 98,221 98,222 98,222 98,223 98,223 98,224 98,224 98,224 99,224 99,224 99,224 99,224 99,223 99,223 99,222 99,222 99,221 99,220 99,220 99,219 99,219 100,219 100,219 100,219 100,219 100,219 100,219 100,218 100,218 100,218 100,218 100,218 100,218 100,218 101,218 101,218 101,218 101,218 101,218 101,218 101,219 101,219 101,220 101,220 101,221 101,221 101,222 102,222 102,223 102,223 102,224 102,224 102,224 102,225 102,225 102,226 102,226 102,227 102,227 102,227 103,228 103,228 103,229 103,229 103,229 103,229 103,229 103,229 103,229 103,230 103,230 103,230 103,230 104,231 104,231 104,232 104,232 104,232 104,233 104,233 104,234 104,234 104,234 104,234 104,235 104,235 105,235 105,236 105,236 105,236 105,236 105,236 105,237 105,237 105,237 105,237 105,238 105,238 105,238 106,238 106,239 106,239 106,239 106,239 106,239 106,240 106,239 106,239 106,239 106,239 106,238 107,237 107,237 107,237 107,238 107,238 107,238 107,238 107,238 107,238 107,239 107,239 107,240 107,240 108,240 108,241 108,242 108,242 108,243 108,243 108,243 108,244 108,244 108,244 108,244 108,245 108,245 109,245 109,245 109,245 109,245 109,245 109,245 109,245 109,245 109,245 109,245 109,245 109,245 109,245 110,246 110,246 110,246 110,246 110,246 110,246 110,246 110,246 110,246 110,246 110,246 110,247 110,247 111,247 111,247 111,247 111,247 111,247 111,247 111,247 111,246 111,246 111,247 111,247 111,247 111,247 112,247 112,247 112,247 112,247 112,248 112,248 112,248 112,247 112,247 112,247 112,247 112,246 112,246 113,246 113,246 113,246 113,246 113,246 113,246 113,246 113,246 113,246 113,246 113,245 113,245 113,245 114,245 114,245 114,245 114,245 114,245 114,245 114,245 114,245 114,245 114,245 114,245 114,245 114,244 115,244 115,244 115,244 115,243 115,243 115,242 115,242 115,241 115,240 115,239 115,238 115,237 115,237 116,236 116,235 116,234 116,233 116,232 116,231 116,231 116,230 116,229 116,228 116,227 116,227 116,226 117,226 117,225 117,224 117,224 117,224 117,223 117,223 117,224 117,224 117,224 117,224 117,224 117,224 118,223 118,223 118,223 118,224 118,224 118,223 118,223 118,223 118,222 118,222 118,222 118,222 118,221 119,221 119,221 119,221 119,221 119,221 119,220 119,220 119,219 119,219 119,218 119,217 119,216 119,215 120,214 120,213 120,212 120,211 120,211 120,210 120,210 120,209 120,209 120,209 120,208 120,208 121,208 121,208 121,208 121,208 121,209 121,208 121,208 121,208 121,208 121,208 121,208 121,208 121,208 122,208 122,208 122,208 122,208 122,208 122,208 122,208 122,209 122,209 122,209 122,209 122,209 122,209 123,209 123,210 123,211 123,211 123,211 123,211 123,212 123,214 123,215 123,217 123,219 123,219 123,220 124,220 124,221 124,222 124,223 124,223 124,223 124,223 124,222 124,221 124,221 124,221 124,221 124,221 125,221 125,221 125,221 125,221 125,221 125,221 125,221 125,221 125,222 125,222 125,222 125,223 125,223 126,224 126,224 126,225 126,225 126,226 126,226 126,227 126,227 126,228 126,228 126,228 126,228 126,229 127,229 127,229 127,229 127,230 127,230 127,230 127,230 127,230 127,230 127,229 127,230 127,230 127,230 128,230 128,230 128,230 128,231 128,231 128,231 128,231 128,231 128,231 128,231 128,231 128,232 128,232 129,232 129,232 129,232 129,232 129,232 129,233 129,233 129,233 129,233 129,234 129,234 129,234 129,234 130,235 130,235 130,235 130,236 130,236 130,237 130,237 130,237 130,238 130,238 130,238 130,238 130,239 131,239 131,239 131,239 131,239 131,240 131,240 131,241 131,241 131,242 131,243 131,243 131,244 131,244 132,245 132,245 132,245 132,245 132,245 132,245 132,245 132,245 132,245 132,244 132,244 132,243 132,243 133,243 133,243 133,243 133,242 133,242 133,242 133,242 133,241 133,241 133,241 133,241 133,241 133,241 134,241 134,241 134,241 134,241 134,241 134,240 134,240 134,240 134,240 134,240 134,240 134,239 134,239 135,239 135,239 135,239 135,240 135,240 135,241 135,241 135,242 135,243 135,243 135,244 135,244 136,245 136,245 136,246 136,246 136,247 136,247 136,248 136,248 136,248 136,249 136,248 136,248 136,248 137,249 137,249 137,249 137,249 137,249 137,249 137,249 137,250 137,250 137,250 137,250 137,251 137,251 138,251 138,251 138,251 138,251 138,250 138,250 138,250 138,250 138,249 138,249 138,249 138,249 138,249 139,249 139,249 139,249 139,249 139,249 139,250 139,250 139,250 139,250 139,250 139,250 139,250 139,249 140,249 140,249 140,249 140,248 140,248 140,248 140,247 140,247 140,247 140,247 140,247 140,247 140,247 141,247 141,247 141,248 141,248 141,248 141,249 141,249 141,250 141,251 141,252 141,253 141,254 141,255 142,256 142,257 142,258 142,258 142,258 142,257 142,257 142,257 142,257 142,256 142,256 142,256 142,255 143,255 143,254 143,254 143,253 143,253 143,252 143,252 143,252 143,251 143,251 143,250 143,250 143,250 144,249 144,249 144,249 144,248 144,248 144,248 144,248 144,247 144,247 144,247 144,247 144,247 144,248 145,248 145,248 145,249 145,249 145,250 145,251 145,251 145,252 145,252 145,253 145,254 145,254 145,255 146,256 146,256 146,257 146,257 146,258 146,258 146,259 146,259 146,259 146,260 146,260 146,260 146,259 147,259 147,258 147,258 147,257 147,257 147,257 147,257 147,257 147,256 147,256 147,256 147,256 147,256 148,256 148,256 148,255 148,255 148,255 148,255 148,255 148,255 148,255 148,255 148,255 148,254 148,254 149,254 149,254 149,254 149,254 149,254 149,254 149,254 149,254 149,254 149,254 149,254 149,254 150,254 150,254 150,253 150,253 150,253 150,253 150,253 150,253 150,253 150,253 150,253 150,253 150,253 151,253 151,253 151,253 151,253 151,253 151,253 151,253 151,253 151,253 151,253 151,252 151,252 151,252 152,252 152,252 152,252 152,252 152,252 152,252 152,252 152,252 152,252 152,251 152,251 152,251 152,251 153,251 153,251 153,251 153,251 153,251 153,251 153,251 153,251 153,251 153,251 153,251 153,251 153,251 154,251 154,251 154,251 154,251 154,251 154,251 154,251 154,251 154,251 154,251 154,251 154,251 154,251 155,251 155,251 155,251 155,251 155,251 155,251 155,251 155,251 155,251 155,251 155,251 155,251 155,251 156,251 156,250 156,250 156,250 156,250 156,250 156,250 156,249 156,249 156,249 156,249 156,249 156,249 157,248 157,248 157,248 157,248 157,248 157,247 157,247 157,247 157,247 157,247 157,246 157,246 157,246 158,245 158,245 158,245 158,245 158,245 158,245 158,245 158,244 158,244 158,244 158,244 158,244 158,244 159,244 159,243 159,243 159,243 159,243 159,243 159,243 159,243 159,244 159,244 159,244 159,244 159,243 160,243 160,243 160,243 160,243 160,243 160,243 160,243 160,243 160,243 160,244 160,244 160,244 160,244 161,244 161,244 161,245 161,245 161,245 161,245 161,245 161,245 161,245 161,245 161,245 161,245 161,245 162,245 162,245 162,245 162,245 162,245 162,245 162,244 162,244 162,244 162,244 162,244 162,244 162,244 163,244 163,244 163,243 163,243 163,243 163,243 163,242 163,242 163,242 163,242 163,241 163,241 164,241 164,241 164,241 164,241 164,241 164,241 164,240 164,240 164,240 164,240 164,240 164,240 164,239 165,239 165,239 165,239 165,238 165,238 165,238 165,238 165,238 165,238 165,238 165,238 165,238 165,238 166,238 166,237 166,237 166,237 166,237 166,236 166,236 166,236 166,236 166,235 166,235 166,234 166,234 167,233 167,233 167,232 167,232 167,232 167,231 167,231 167,231 167,230 167,230 167,230 167,230 167,229 168,229 168,228 168,228 168,228 168,228 168,227 168,227 168,227 168,226 168,226 168,226 168,225 168,225 169,224 169,224 169,224 169,223 169,222 169,222 169,221 169,221 169,220 169,220 169,219 169,218 169,217 170,217 170,216 170,215 170,214 170,214 170,213 170,212 170,212 170,211 170,210 170,209 170,208 170,208 171,207 171,206 171,205 171,205 171,204 171,204 171,205 171,205 171,205 171,205 171,205 171,205 171,205 172,205 172,206 172,206 172,206 172,206 172,206 172,206 172,206 172,206 172,206 172,206 172,206 172,206 173,206 173,206 173,206 173,206 173,207 173,207 173,207 173,207 173,207 173,208 173,208 173,209 173,209 174,210 174,210 174,211 174,212 174,212 174,213 174,213 174,214 174,215 174,215 174,216 174,217 174,218 175,218 175,219 175,219 175,220 175,220 175,219 175,219 175,219 175,218 175,218 175,217 175,216 175,215 176,215 176,214 176,214 176,212 176,211 176,209 176,209 176,208 176,207 176,206 176,205 176,204 176,203 177,202 177,202 177,201 177,200 177,200 177,199 177,199 177,198 177,198 177,197 177,197 177,197 177,197 178,196 178,196 178,196 178,196 178,196 178,196 178,196 178,196 178,196 178,196 178,196 178,196 179,196 179,196 179,196 179,196 179,196 179,196 179,195 179,195 179,195 179,195 179,195 179,195 179,195 180,196 180,196 180,196 180,196 180,196 180,197 180,197 180,198 180,198 180,199 180,199 180,200 180,201 181,201 181,202 181,202 181,202 181,203 181,203 181,204 181,205 181,206 181,208 181,209 181,211 181,213 182,214 182,216 182,217 182,217 182,217 182,217 182,216 182,216 182,215 182,214 182,213 182,211 182,210 183,209 183,208 183,207 183,206 183,205 183,204 183,204 183,204 183,204 183,204 183,204 183,204 183,204 184,204 184,204 184,204 184,204 184,205 184,205 184,205 184,205 184,205 184,205 184,206 184,206 184,206 185,205 185,204 185,204 185,203 185,203 185,203 185,203 185,203 185,203 185,203 185,203 185,203 185,204 186,204 186,204 186,205 186,206 186,206 186,207 186,207 186,208 186,208 186,209 186,209 186,210 186,211 187,211 187,212 187,212 187,212 187,212 187,212 187,211 187,211 187,211 187,210 187,209 187,209 187,208 188,207 188,207 188,206 188,205 188,205 188,204 188,204 188,204 188,204 188,204 188,204 188,204 188,204 189,204 189,204 189,204 189,204 189,205 189,205 189,205 189,206 189,205 189,205 189,206 189,205 189,205 190,204 190,204 190,204 190,203 190,202 190,201 190,200 190,199 190,198 190,198 190,197 190,197 190,196 191,195 191,195 191,194 191,194 191,193 191,193 191,192 191,192 191,192 191,191 191,191 191,191 191,190 192,190 192,190 192,190 192,189 192,189 192,189 192,189 192,189 192,189 192,190 192,190 192,191 193,191 193,192 193,192 193,193 193,193 193,194 193,195 193,195 193,196 193,197 193,198 193,199 193,200 194,202 194,203 194,204 194,205 194,206 194,208 194,210 194,212 194,213 194,213 194,214 194,214 194,214 195,214 195,214 195,214 195,213 195,212 195,211 195,210 195,209 195,208 195,207 195,207 195,207 195,207 196,208 196,208 196,208 196,208 196,208 196,208 196,208 196,208 196,208 196,207 196,207 196,207 196,207 197,207 197,207 197,207 197,206 197,207 197,207 197,207 197,207 197,207 197,208 197,209 197,210 197,210 198,210 198,210 198,209 198,209 198,208 198,208 198,207 198,206 198,206 198,206 198,205 198,205 198,204 199,203 199,202 199,201 199,200 199,199 199,198 199,198 199,198 199,197 199,197 199,197 199,197 199,196 200,196 200,196 200,196 200,196 200,195 200,195 200,195 200,195 200,195 200,195 200,195 200,195 200,194 201,194 201,194 201,194 201,194 201,194 201,194 201,193 201,193 201,193 201,193 201,193 201,192 201,192 202,192 202,192 202,192 202,191 202,191 202,191 202,191 202,191 202,191 202,191 202,191 202,191 202,191 203,191 203,192 203,193 203,193 203,193 203,194 203,194 203,195 203,195 203,196 203,196 203,197 203,197 204,198 204,199 204,199 204,200 204,201 204,201 204,202 204,203 204,204 204,204 204,205 204,206 204,206 205,207 205,208 205,209 205,210 205,211 205,212 205,214 205,215 205,217 205,217 205,218 205,220 205,221 206,223 206,224 206,226 206,226 206,226 206,226 206,228 206,227 206,224 206,221 206,218 206,216 206,215 207,214 207,213 207,212 207,211 207,210 207,209 207,208 207,207 207,206 207,205 207,204 207,204 208,204 208,203 208,203 208,203 208,203 208,203 208,202 208,202 208,201 208,201 208,200 208,200 208,199 209,199 209,199 209,198 209,198 209,198 209,197 209,197 209,197 209,197 209,197 209,197 209,197 209,197 210,197 210,197 210,197 210,197 210,197 210,197 210,197 210,196 210,196 210,196 210,196 210,196 210,196 211,195 211,195 211,195 211,195 211,195 211,195 211,194 211,194 211,194 211,194 211,194 211,193 211,193 212,193 212,193 212,193 212,193 212,193 212,194 212,194 212,194 212,194 212,195 212,195 212,195 212,196 213,196 213,196 213,197 213,197 213,198 213,198 213,198 213,199 213,199 213,200 213,200 213,200 213,201 214,201 214,202 214,202 214,203 214,203 214,203 214,203 214,203 214,203 214,204 214,205 214,206 214,207 215,207 215,208 215,208 215,209 215,209 215,210 215,210 215,210 215,209 215,209 215,208 215,208 215,208 216,208 216,208 216,208 216,208 216,208 216,208 216,208 216,208 216,208 216,209 216,209 216,209 216,209 217,210 217,210 217,210 217,210 217,210 217,210 217,210 217,211 217,211 217,211 217,211 217,211 217,211 218,212 218,212 218,212 218,212 218,213 218,213 218,214 218,214 218,215 218,215 218,215 218,215 218,216 219,216 219,216 219,216 219,216 219,215 219,215 219,214 219,214 219,214 219,213 219,213 219,213 219,212 220,211 220,211 220,210 220,210 220,209 220,209 220,209 220,208 220,208 220,208 220,208 220,207 220,207 221,207 221,207 221,207 221,207 221,206 221,206 221,206 221,206 221,205 221,205 221,205 221,205 222,205 222,205 222,205 222,204 222,204 222,205 222,205 222,205 222,205 222,205 222,206 222,206 222,207 223,207 223,208 223,208 223,209 223,209 223,210 223,210 223,210 223,211 223,211 223,212 223,212 223,213 224,213 224,213 224,214 224,214 224,215 224,215 224,215 224,216 224,216 224,216 224,216 224,216 224,215 225,215 225,214 225,214 225,214 225,214 225,214 225,213 225,213 225,213 225,213 225,213 225,213 225,212 226,212 226,212 226,212 226,211 226,211 226,211 226,211 226,210 226,210 226,210 226,210 226,210 226,210 227,209 227,209 227,209 227,209 227,209 227,209 227,209 227,209 227,209 227,209 227,209 227,209 227,210 228,210 228,210 228,211 228,211 228,211 228,211 228,212 228,212 228,212 228,213 228,213 228,213 228,213 229,214 229,214 229,214 229,215 229,215 229,216 229,216 229,217 229,218 229,218 229,219 229,220 229,221 230,222 230,222 230,223 230,224 230,225 230,226 230,227 230,227 230,228 230,229 230,230 230,231 230,231 231,232 231,232 231,233 231,234 231,234 231,235 231,236 231,237 231,238 231,238 231,239 231,239 231,240 232,240 232,241 232,242 232,242 232,243 232,243 232,243 232,243 232,242 232,242 232,241 232,241 232,240 233,240 233,239 233,239 233,238 233,238 233,237 233,236 233,236 233,235 233,235 233,234 233,234 233,233 234,232 234,231 234,231 234,231 234,231 234,230 234,230 234,230 234,229 234,229 234,228 234,228 234,228 235,227 235,227 235,227 235,226 235,226 235,226 235,226 235,225 235,225 235,225 235,224 235,224 236,224 236,224 236,224 236,224 236,224 236,224 236,224 236,224 236,224 236,224 236,224 236,224 236,225 237,225 237,225 237,226 237,226 237,227 237,227 237,228 237,228 237,227 237,228 237,228 237,228 237,228 238,229 238,229 238,229 238,228 238,228 238,228 238,227 238,227 238,226 238,226 238,225 238,225 238,225 239,224 239,224 239,224 239,223 239,223 239,223 239,223 239,223 239,222 239,222 239,222 239,222 239,222 240,222 240,222 240,222 240,222 240,222 240,222 240,222 240,222 240,222 240,222 240,222 240,222 240,222 241,222 241,223 241,223 241,223 241,223 241,223 241,223 241,224 241,224 241,224 241,224 241,225 241,225 242,225 242,225 242,226 242,226 242,226 242,226 242,226 242,226 242,227 242,227 242,227 242,227 242,227 243,227 243,227 243,227 243,227 243,227 243,227 243,227 243,227 243,227 243,227 243,227 243,227 243,227 244,227 244,228 244,228 244,228 244,228 244,229 244,229 244,229 244,229 244,230 244,230 244,231 244,231 245,231 245,232 245,232 245,232 245,233 245,233 245,234 245,234 245,234 245,235 245,235 245,236 245,236 246,236 246,237 246,237 246,237 246,237 246,238 246,238 246,238 246,238 246,238 246,239 246,239 246,239 247,239 247,239 247,239 247,240 247,240 247,240 247,241 247,241 247,241 247,242 247,242 247,242 247,243 248,244 248,244 248,245 248,245 248,246 248,247 248,248 248,249 248,250 248,251 248,252 248,253 248,254 249,255 249,256 249,257 249,258 249,259 249,260 249,261 249,262 249,262 249,263 249,263 249,263 249,261 250,260 250,259 250,258 250,257 250,256 250,255 250,254 250,253 250,252 250,252 250,251 250,250 251,249 251,249 251,249 251,248 251,248 251,248 251,248 251,248 251,248 251,247 251,247 251,248 251,248 252,248 252,248 252,248 252,248 252,248 252,249 252,249 252,249 252,249 252,249 252,249 252,249 252,249 253,249 253,249 253,248 253,248 253,248 253,247 253,247 253,247 253,247 253,246 253,246 253,246 253,246 254,246 254,246 254,246 254,246 254,246 254,246 254,246 254,246 254,246 254,246 254,246 254,246 254,246 255,246 255,247 255,247 255,247 255,247 255,247 255,248 255,248 255,248 255,248 255,248 255,248 255,249 256,249 256,249 256,249 256,250 256,250 256,250 256,251 256,251 256,251 256,252 256,252 256,252 256,253 257,253 257,254 257,254 257,255 257,255 257,255 257,256 257,256 257,257 257,257 257,258 257,258 257,259 258,259 258,260 258,260 258,261 258,262 258,263 258,264 258,264 258,265 258,265 258,265 258,266 258,266 259,267 259,267 259,268 259,269 259,269 259,270 259,270 259,271 259,271 259,273 259,274 259,274 259,275 260,275 260,276 260,276 260,277 260,278 260,278 260,278 260,279 260,279 260,279 260,279 260,279 260,279 261,279 261,280 261,279 261,279 261,279 261,279 261,279 261,279 261,280 261,280 261,281 261,281 261,282 262,282 262,283 262,284 262,283 262,284 262,285 262,286 262,286 262,287 262,288 262,289 262,289 262,290 263,290 263,291 263,291 263,292 263,292 263,292 263,292 263,292 263,292 263,292 263,292 263,292 263,293 264,293 264,294 264,295 264,295 264,296 264,297 264,298 264,299 264,300 264,301 264,302 264,303 265,304 265,305 265,306 265,307 265,308 265,309 265,310 265,312 265,313 265,313 265,314 265,314 265,315 266,315 266,315 266,315 266,315 266,315 266,316 266,316 266,316 266,316 266,316 266,316 266,316 266,315 267,315 267,315 267,315 267,315 267,315 267,315 267,315 267,315 267,315 267,315 267,315 267,315 267,316 268,316 268,316 268,316 268,316 268,316 268,316 268,316 268,316 268,316 268,315 268,315 268,315 268,315 269,315 269,315 269,315 269,315 269,315 269,315 269,315 269,315 269,315 269,315 269,316 269,316 269,316 270,316 270,316 270,316 270,316 270,316 270,316 270,316 270,316 270,316 270,316 270,316 270,316 270,316 271,316 271,316 271,316 271,316 271,316 271,316 271,316 271,316 271,316 271,316 271,316 271,316 271,316 272,316 272,316 272,316 272,316 272,316 272,316 272,316 272,316 272,316 272,316 272,316 272,316 272,316 273,316 273,315 273,315 273,315 273,315 273,315 273,315 273,315 273,315 273,314 273,313 273,313 273,312 274,311 274,311 274,311 274,311 274,311 274,311 274,311 274,310 274,310 274,310 274,310 274,310 274,310 275,310 275,310 275,310 275,310 275,309 275,309 275,308 275,308 275,308 275,307 275,307 275,307 275,307 276,306 276,306 276,306 276,306 276,305 276,305 276,305 276,305 276,305 276,305 276,304 276,304 276,304 277,304 277,304 277,304 277,304 277,305 277,304 277,304 277,304 277,304 277,304 277,304 277,304 277,304 278,305 278,305 278,305 278,305 278,305 278,305 278,305 278,305 278,305 278,305 278,305 278,305 279,305 279,305 279,305 279,305 279,305 279,304 279,304 279,304 279,304 279,304 279,304 279,304 279,303 280,303 280,303 280,303 280,303 280,303 280,302 280,302 280,302 280,301 280,301 280,301 280,301 280,300 281,300 281,300 281,300 281,299 281,299 281,299 281,299 281,298 281,298 281,298 281,298 281,297 281,297 282,297 282,297 282,296 282,296 282,296 282,296 282,296 282,296 282,296 282,296 282,296 282,295 282,295 283,295 283,295 283,295 283,294 283,294 283,294 283,294 283,294 283,294 283,294 283,294 283,294 283,294 284,294 284,294 284,294 284,294 284,294 284,294 284,293 284,294 284,294 284,294 284,294 284,294 284,294 285,294 285,294 285,294 285,294 285,294 285,294 285,294 285,294 285,294 285,294 285,294 285,294 285,294 286,294 286,294 286,294 286,294 286,294 286,294 286,295 286,295 286,295 286,296 286,296 286,296 286,297 287,297 287,297 287,297 287,298 287,298 287,297 287,297 287,296 287,296 287,296 287,296 287,296 287,295 288,295 288,295 288,295 288,295 288,295 288,294 288,294 288,293 288,293 288,293 288,292 288,292 288,292 289,292 289,292 289,292 289,291 289,291 289,291 289,291 289,292 289,292 289,292 289,292 289,291 289,291 290,290 290,290 290,289 290,288 290,287 290,287 290,286 290,285 290,285 290,284 290,283 290,283 290,282 291,282 291,282 291,282 291,282 291,282 291,282 291,282 291,282 291,282 291,282 291,282 291,282 291,282 292,282 292,282 292,282 292,282 292,282 292,282 292,282 292,283 292,283 292,284 292,285 292,286 292,287 293,287 293,288 293,289 293,289 293,290 293,291 293,291 293,292 293,293 293,293 293,293 293,292 294,292 294,292 294,291 294,290 294,289 294,289 294,288 294,287 294,287 294,286 294,285 294,285 294,285 295,285 295,285 295,285 295,285 295,285 295,285 295,285 295,285 295,285 295,286 295,286 295,286 295,287 296,288 296,288 296,288 296,289 296,289 296,290 296,291 296,292 296,292 296,292 296,292 296,291 296,291 297,291 297,290 297,290 297,290 297,290 297,291 297,292 297,293 297,294 297,295 297,296 297,297 297,298 298,298 298,299 298,300 298,301 298,302 298,303 298,304 298,304 298,304 298,304 298,305 298,305 298,305 299,305 299,306 299,307 299,308 299,309 299,310 299,311 299,312 299,313 299,313 299,314 299,314 299,315 300,315 300,316 300,316 300,316 300,317 300,317 300,317 300,317 300,317 300,317 300,317 300,317 300,318 301,319 301,320 301,321 301,321 301,321 301,321 301,321 301,321 301,321 301,321 301,321 301,321 301,321 302,322 302,322 302,322 302,322 302,322 302,321 302,321 302,322 302,322 302,322 302,322 302,322 302,322 303,322 303,322 303,322 303,322 303,322 303,322 303,322 303,322 303,322 303,322 303,322 303,322 303,322 304,322 304,322 304,322 304,322 304,322 304,322 304,322 304,322 304,322 304,322 304,322 304,322 304,322 305,322 305,322 305,322 305,322 305,322 305,322 305,322 305,322 305,322 305,322 305,322 305,322 305,322 306,322 306,322 306,322 306,322 306,322 306,322 306,322 306,322 306,322 306,322 306,322 306,322 306,322 307,322 307,322 307,321 307,321 307,321 307,321 307,321 307,321 307,321 307,321 307,321 307,321 308,321 308,321 308,321 308,321 308,321 308,321 308,321 308,321 308,320 308,320 308,320 308,319 308,319 309,318 309,318 309,317 309,317 309,316 309,315 309,315 309,314 309,313 309,313 309,313 309,313 309,313 310,313 310,312 310,312 310,312 310,312 310,312 310,311 310,311 310,311 310,311 310,311 310,311 310,311 311,310 311,310 311,310 311,310 311,310 311,310 311,310 311,309 311,309 311,308 311,308 311,308 311,308 312,308 312,308 312,309 312,309 312,309 312,309 312,309 312,309 312,309 312,309 312,309 312,310 312,310 313,310 313,310 313,310 313,310 313,310 313,310 313,310 313,310 313,311 313,311 313,311 313,311 313,311 314,311 314,311 314,311 314,312 314,312 314,312 314,312 314,312 314,312 314,312 314,312 314,312 314,312 315,312 315,312 315,312 315,311 315,311 315,311 315,311 315,311 315,311 315,311 315,311 315,311 315,311 316,311 316,311 316,311 316,311 316,310 316,310 316,310 316,310 316,310 316,310 316,310 316,309 316,309 317,309 317,309 317,309 317,309 317,309 317,308 317,308 317,308 317,308 317,308 317,308 317,308 317,308 318,307 318,307 318,307 318,307 318,307 318,307 318,307 318,307 318,307 318,307 318,307 318,306 318,306 319,306 319,306 319,306 319,306 319,306 319,306 319,306 319,306 319,306 319,305 319,305 319,305 319,305 320,305 320,305 320,305 320,304 320,304 320,304 320,304 320,304 320,304 320,304 320,303 320,303 320,303 321,303 321,303 321,303 321,303 321,303 321,302 321,302 321,302 321,302 321,302 321,302 321,302 322,302 322,302 322,302 322,302 322,302 322,302 322,302 322,302 322,302 322,302 322,302 322,302 322,302 323,302 323,301 323,301 323,301 323,301 323,301 323,301 323,301 323,301 323,301 323,300 323,300 323,300 324,300 324,300 324,300 324,299 324,299 324,299 324,299 324,299 324,298 324,298 324,298 324,298 324,298 325,298 325,297 325,297 325,297 325,297 325,296 325,296 325,296 325,296 325,296 325,296 325,295 325,295 326,295 326,295 326,294 326,294 326,294 326,294 326,294 326,293 326,293 326,293 326,293 326,293 326,292 327,292 327,292 327,292 327,291 327,291 327,291 327,291 327,291 327,290 327,290 327,290 327,290 327,290 328,289 328,289 328,289 328,289 328,289 328,288 328,288 328,288 328,288 328,288 328,287 328,287 328,287 329,287 329,286 329,286 329,286 329,286 329,286 329,286 329,285 329,285 329,285 329,285 329,285 329,285 330,285 330,285 330,285 330,285 330,284 330,284 330,284 330,284 330,284 330,284 330,284 330,284 330,284 331,284 331,284 331,284 331,284 331,284 331,284 331,284 331,284 331,284 331,284 331,284 331,284 331,284 332,284 332,284 332,284 332,284 332,284 332,284 332,284 332,284 332,284 332,284 332,284 332,284 332,284 333,284 333,284 333,284 333,284 333,284 333,284 333,284 333,284 333,284 333,284 333,284 333,284 333,284 334,284 334,284 334,284 334,284 334,284 334,284 334,284 334,283 334,283 334,284 334,284 334,284 334,284 335,284 335,284 335,284 335,284 335,284 335,284 335,285 335,285 335,285 335,285 335,285 335,285 335,285 336,285 336,285 336,285 336,285 336,285 336,285 336,285 336,285 336,285 336,285 336,286 336,286 337,286 337,286 337,286 337,286 337,286 337,286 337,286 337,286 337,286 337,286 337,286 337,286 337,286 338,286 338,286 338,285 338,285 338,285 338,285 338,284 338,284 338,284 338,284 338,283 338,283 338,282 339,282 339,282 339,281 339,281 339,281 339,280 339,280 339,280 339,280 339,280 339,280 339,280 339,280 340,280 340,281 340,281 340,282 340,282 340,283 340,284 340,284 340,285 340,286 340,287 340,288 340,289 341,290 341,292 341,293 341,294 341,295 341,296 341,297 341,298 341,299 341,300 341,300 341,300 341,301 342,301 342,301 342,301 342,301 342,302 342,302 342,302 342,302 342,302 342,303 342,303 342,304 342,305 343,305 343,306 343,307 343,308 343,308 343,309 343,309 343,309 343,310 343,310 343,310 343,311 343,311 344,311 344,311 344,311 344,311 344,312 344,312 344,312 344,312 344,312 344,312 344,313 344,313 344,313 345,313 345,313 345,313 345,313 345,314 345,314 345,314 345,314 345,314 345,314 345,314 345,314 345,315 346,315 346,315 346,315 346,315 346,315 346,316 346,316 346,316 346,316 346,316 346,317 346,317 346,317 347,317 347,318 347,318 347,318 347,319 347,319 347,319 347,319 347,319 347,320 347,320 347,320 347,320 348,320 348,320 348,320 348,320 348,320 348,320 348,320 348,320 348,321 348,321 348,321 348,321 348,321 349,321 349,321 349,321 349,321 349,321 349,320 349,320 349,320 349,319 349,319 349,319 349,318 349,318 350,318 350,318 350,318 350,317 350,317 350,318 350,317 350,317 350,317 350,317 350,317 350,316 351,316 351,316 351,315 351,315 351,314 351,314 351,314 351,313 351,313 351,313 351,313 351,312 351,312 352,312 352,312 352,312 352,312 352,312 352,312 352,312 352,312 352,312 352,312 352,313 352,313 352,313 353,313 353,314 353,314 353,314 353,314 353,315 353,315 353,315 353,316 353,316 353,316 353,316 353,317 354,317 354,317 354,317 354,317 354,317 354,317 354,317 354,317 354,317 354,317 354,317 354,317 354,316 355,316 355,316 355,316 355,316 355,316 355,315 355,315 355,315 355,315 355,315 355,315 355,315 355,315 356,316 356,316 356,316 356,317 356,317 356,317 356,316 356,316 356,316 356,316 356,316 356,316 356,315 357,315 357,315 357,315 357,315 357,315 357,315 357,314 357,314 357,314 357,314 357,313 357,313 357,313 358,313 358,313 358,312 358,312 358,312 358,312 358,311 358,311 358,311 358,310 358,310 358,310 358,309 359,309 359,308 359,308 359,307 359,307 359,307 359,307 359,307 359,307 359,307 359,307 359,307 359,307 360,307 360,307 360,307 360,307 360,307 360,307 360,307 360,307 360,307 360,307 360,307 360,308 360,308 361,308 361,308 361,308 361,308 361,308 361,308 361,308 361,309 361,309 361,309 361,309 361,310 361,310 362,310 362,310 362,311 362,311 362,312 362,312 362,312 362,313 362,313 362,313 362,313 362,313 362,314 363,314 363,314 363,314 363,314 363,314 363,314 363,315 363,315 363,315 363,315 363,315 363,315 363,315 364,315 364,315 364,315 364,314 364,314 364,314 364,314 364,314 364,314 364,314 364,314 364,314 365,314 365,314 365,314 365,314 365,314 365,314 365,314 365,314 365,314 365,314 365,314 365,314 365,314 366,314 366,314 366,314 366,314 366,314 366,314 366,314 366,314 366,314 366,314 366,314 366,314 366,314 367,314 367,314 367,314 367,314 367,314 367,314 367,314 367,314 367,314 367,314 367,313 367,313 367,313 368,312 368,312 368,312 368,312 368,311 368,311 368,311 368,311 368,310 368,310 368,310 368,309 368,309 369,309 369,309 369,308 369,308 369,307 369,307 369,307 369,306 369,306 369,305 369,305 369,305 369,304 370,304 370,304 370,304 370,303 370,303 370,303 370,303 370,302 370,302 370,302 370,302 370,301 370,301 371,301 371,301 371,301 371,300 371,300 371,299 371,299 371,298 371,297 371,297 371,296 371,295 371,294 372,293 372,292 372,291 372,290 372,288 372,287 372,286 372,285 372,284 372,283 372,282 372,282 372,282 373,281 373,281 373,281 373,281 373,280 373,280 373,280 373,280 373,280 373,280 373,280 373,280 373,280 374,280 374,280 374,280 374,279 374,279 374,279 374,279 374,279 374,278 374,278 374,278 374,278 374,278 375,278 375,278 375,278 375,278 375,278 375,278 375,278 375,278 375,278 375,278 375,278 375,278 375,278 376,278 376,279 376,279 376,279 376,279 376,280 376,280 376,280 376,281 376,281 376,281 376,281 376,282 377,282 377,283 377,283 377,283 377,284 377,284 377,285 377,285 377,285 377,286 377,286 377,287 377,287 378,288 378,288 378,289 378,289 378,289 378,290 378,290 378,290 378,290 378,291 378,291 378,291 378,292 379,292 379,292 379,293 379,293 379,293 379,293 379,293 379,294 379,294 379,294 379,295 379,295 380,296 380,296 380,297 380,297 380,297 380,298 380,298 380,298 380,298 380,299 380,299 380,299 380,299 381,299 381,300 381,300 381,299 381,299 381,299 381,298 381,298 381,297 381,297 381,297 381,297 381,297 382,296 382,296 382,296 382,295 382,295 382,294 382,294 382,294 382,294 382,293 382,293 382,293 382,293 383,293 383,293 383,292 383,292 383,292 383,292 383,292 383,291 383,291 383,291 383,291 383,291 383,291 384,291 384,291 384,291 384,291 384,291 384,291 384,291 384,291 384,291 384,291 384,291 384,291 384,291 385,291 385,291 385,291 385,291 385,292 385,292 385,292 385,292 385,293 385,293 385,293 385,293 385,293 386,293 386,293 386,294 386,294 386,294 386,295 386,295 386,295 386,295 386,295 386,296 386,296 386,296 387,296 387,297 387,297 387,297 387,298 387,298 387,298 387,298 387,299 387,299 387,299 387,300 387,300 388,300 388,301 388,301 388,302 388,302 388,302 388,303 388,303 388,303 388,304 388,304 388,304 388,305 389,305 389,305 389,306 389,306 389,306 389,307 389,307 389,307 389,308 389,308 389,308 389,308 389,309 390,309 390,309 390,309 390,310 390,310 390,310 390,310 390,310 390,310 390,310 390,311 390,311 390,311 391,311 391,311 391,311 391,311 391,312 391,312 391,312 391,312 391,312 391,312 391,312 391,312 391,312 392,312 392,312 392,312 392,311 392,311 392,311 392,311 392,311 392,311 392,311 392,311 392,310 392,310 393,310 393,310 393,310 393,310 393,310 393,309 393,309 393,309 393,308 393,308 393,308 393,308 394,308 394,308 394,308 394,308 394,308 394,307 394,308 394,308 394,308 394,307 394,307 394,307 394,307 395,307 395,307 395,307 395,307 395,307 395,308 395,308 395,308 395,308 395,308 395,308 395,309 395,309 396,309 396,309 396,309 396,309 396,309 396,310 396,310 396,310 396,310 396,310 396,310 396,311 396,311 397,311 397,311 397,312 397,311 397,311 397,311 397,312 397,312 397,312 397,312 397,312 397,313 397,313 398,313 398,314 398,314 398,314 398,314 398,314 398,314 398,314 398,314 398,314 398,314 398,314 398,314 399,314 399,315 399,315 399,315 399,315 399,316 399,316 399,316 399,316 399,316 399,317 399,317 399,317 400,318 400,318 400,318 400,318 400,318 400,318 400,319 400,319 400,319 400,319 400,319 400,319 400,319 401,319 401,320 401,320 401,320 401,320 401,320 401,320 401,320 401,320 401,320 401,321 401,321 401,321 402,321 402,321 402,321 402,321 402,321 402,322 402,322 402,322 402,322 402,322 402,322 402,322 402,322 403,322 403,322 403,323 403,323 403,323 403,323 403,323 403,323 403,323 403,323 403,323 403,323 403,323 404,324 404,324 404,324 404,324 404,324 404,324 404,324 404,324 404,324 404,324 404,324 404,324 404,324 405,324 405,325 405,325 405,325 405,325 405,325 405,325 405,325 405,325 405,325 405,325 405,325 405,325 406,325 406,325 406,325 406,325 406,325 406,326 406,326 406,326 406,326 406,326 406,326 406,326 406,326 407,326 407,326 407,326 407,326 407,326 407,327 407,327 407,327 407,327 407,327 407,327 407,327 407,327 408,327 408,327 408,327 408,327 408,327 408,327 408,327 408,327 408,327 408,327 408,327 408,327 409,327 409,327 409,328 409,328 409,328 409,328 409,328 409,328 409,328 409,328 409,328 409,328 409,328 410,328 410,328 410,328 410,328 410,328 410,328 410,328 410,328 410,328 410,329 410,329 410,329 410,329 411,329 411,329 411,329 411,329 411,329 411,329 411,329 411,329 411,329 411,329 411,329 411,329 411,329 412,329 412,329 412,329 412,329 412,329 412,330 412,330 412,330 412,330 412,330 412,330 412,330 412,330 413,330 413,330 413,330 413,330 413,331 413,331 413,331 413,331 413,331 413,331 413,331 413,331 413,331 414,331 414,331 414,331 414,331 414,331 414,331 414,332 414,332 414,332 414,332 414,332 414,332 414,332 415,332 415,332 415,332 415,332 415,332 415,332 415,332 415,332 415,332 415,332 415,332 415,332 415,332 416,333 416,333 416,333 416,333 416,333 416,333 416,334 416,334 416,334 416,334 416,334 416,334 416,334 417,334 417,334 417,334 417,334 417,334 417,335 417,335 417,335 417,335 417,335 417,335 417,335 417,335 418,335 418,335 418,335 418,335 418,335 418,335 418,335 418,334 418,335 418,335 418,335 418,335 418,335 419,335 419,335 419,335 419,335 419,335 419,335 419,335 419,335 419,335 419,335 419,335 419,335 419,335 420,335 420,335 420,335 420,335 420,335 420,335 420,335 420,335 420,335 420,335 420,335 420,336 420,336 421,336 421,336 421,336 421,336 421,336 421,336 421,336 421,336 421,336 421,336 421,336 421,336 421,336 422,336 422,336 422,336 422,336 422,336 422,337 422,337 422,337 422,337 422,337 422,337 422,337 423,337 423,337 423,337 423,337 423,337 423,337 423,337 423,337 423,337 423,337 423,338 423,338 423,338 424,338 424,338 424,338 424,338 424,338 424,338 424,338 424,338 424,338 424,338 424,338 424,338 424,338 425,338 425,338 425,338 425,338 425,338 425,338 425,338 425,338 425,338 425,338 425,338 425,338 425,338 426,338 426,338 426,338 426,338 426,338 426,339 426,339 426,339 426,339 426,339 426,339 426,339 426,339 427,339 427,339 427,339 427,339 427,339 427,339 427,339 427,339 427,339 427,339 427,339 427,339 427,339 428,339 428,339 428,340 428,340 428,340 428,340 428,340 428,340 428,340 428,340 428,340 428,340 428,340 429,340 429,340 429,340 429,340 429,340 429,341 429,341 429,341 429,341 429,341 429,341 429,341 429,341 430,341 430,341 430,341 430,341 430,341 430,341 430,341 430,341 430,341 430,341 430,341 430,341 430,341 431,341 431,341 431,341 431,341 431,341 431,341 431,341 431,341 431,341 431,341 431,341 431,341 431,341 432,341 432,341 432,341 432,341 432,341 432,341 432,341 432,341 432,341 432,341 432,341 432,341 432,341 433,341 433,341 433,342 433,342 433,342 433,342 433,342 433,342 433,342 433,342 433,342 433,342 433,342 434,342 434,342 434,342 434,342 434,342 434,342 434,342 434,342 434,342 434,342 434,342 434,342 434,342 435,342 435,342 435,342 435,342 435,342 435,342 435,342 435,342 435,342 435,342 435,342 435,342 435,342 436,342 436,342 436,342 436,342 436,342 436,342 436,342 436,342 436,342 436,342 436,342 436,342 437,342 437,342 437,342 437,342 437,342 437,342 437,342 437,342 437,342 437,342 437,342 437,343 437,343 438,343 438,343 438,343 438,343 438,343 438,343 438,343 438,343 438,343 438,343 438,343 438,343 438,343 439,343 439,343 439,343 439,343 439,344 439,344 439,344 439,344 439,344 439,344 439,344 439,344 439,344 440,343 440,343 440,343 440,343 440,343 440,343 440,343 440,343 440,343 440,343 440,343 440,343 440,343 441,343 441,343 441,343 441,343 441,343 441,343 441,344 441,344 441,344 441,344 441,344 441,344 441,344 442,344 442,344 442,344 442,344 442,344 442,344 442,344 442,344 442,344 442,344 442,344 442,344 442,344 443,344 443,344 443,344 443,344 443,344 443,344 443,344 443,344 443,344 443,344 443,344 443,344 443,344 444,344 444,344 444,344 444,344 444,344 444,344 444,344 444,344 444,345 444,345 444,344 444,344 444,345 445,345 445,345 445,345 445,345 445,345 445,345 445,345 445,345 445,345 445,345 445,345 445,345 445,345 446,345 446,345 446,345 446,345 446,345 446,345 446,345 446,345 446,345 446,345 446,345 446,345 446,345 447,345 447,345 447,346 447,346 447,346 447,346 447,347 447,347 447,347 447,347 447,347 447,346 447,346 448,346 448,346 448,345 448,346 448,346 448,346 448,346 448,346 448,346 448,346 448,346 448,346 448,346 449,346 449,346 449,346 449,346 449,346 449,346 449,346 449,346 449,346 449,346 449,346 449,346 449,346 450,346 450,346 450,346 450,346 450,346 450,346 450,347 450,347 450,347 450,347 450,347 450,347 450,347 451,347 451,347 451,347 451,347 451,347 451,347 451,347 451,347 451,347 451,347 451,347 451,347 452,347 452,347 452,347 452,347 452,347 452,347 452,347 452,347 452,347 452,347 452,347 452,347 452,347 453,347 453,347 453,347 453,347 453,347 453,347 453,347 453,347 453,347 453,347 453,347 453,347 453,347 454,347 454,347 454,347 454,347 454,347 454,347 454,347 454,347 454,348 454,347 454,347 454,347 454,347 455,347 455,347 455,347 455,347 455,348 455,348 455,348 455,348 455,348 455,348 455,348 455,348 455,348 456,348 456,348 456,348 456,348 456,348 456,348 456,348 456,348 456,348 456,348 456,348 456,349 456,349 457,349 457,349 457,349 457,349 457,349 457,349 457,349 457,349 457,349 457,349 457,349 457,349 457,349 458,349 458,349 458,349 458,349 458,349 458,349 458,349 458,349 458,350 458,350 458,350 458,350 458,350 459,350 459,350 459,350 459,350 459,350 459,350 459,350 459,350 459,350 459,350 459,350 459,350 459,350 460,350 460,350 460,350 460,350 460,350 460,350 460,350 460,350 460,350 460,350 460,350 460,350 460,350 461,350 461,350 461,350 461,350 461,350 461,350 461,350 461,351 461,351 461,351 461,351 461,351 461,351 462,351 462,351 462,351 462,351 462,351 462,351 462,351 462,351 462,351 462,351 462,351 462,351 462,351 463,351 463,351 463,351 463,351 463,351 463,351 463,351 463,351 463,351 463,351 463,351 463,351 463,351 464,351 464,351 464,351 464,351 464,351 464,351 464,351 464,351 464,351 464,352 464,352 464,352 464,352 465,352 465,352 465,352 465,352 465,352 465,352 465,352 465,352 465,352 465,352 465,352 465,352 466,352 466,352 466,352 466,352 466,352 466,352 466,352 466,352 466,352 466,352 466,352 466,352 466,352 467,352 467,352 467,352 467,352 467,352 467,352 467,352 467,352 467,352 467,352 467,352 467,352 467,352 468,352 468,352 468,352 468,352 468,352 468,352 468,352 468,352 468,353 468,353 468,353 468,353 468,353 469,353 469,353 469,353 469,353 469,353 469,353 469,353 469,353 469,353 469,353 469,353 469,353 469,353 470,353 470,353 470,353 470,353 470,353 470,353 470,353 470,353 470,353 470,353 470,353 470,354 470,354 471,354 471,354 471,354 471,354 471,354 471,354 471,354 471,354 471,354 471,354 471,354 471,354 471,354 472,354 472,354 472,354 472,354 472,354 472,354 472,354 472,354 472,354 472,354 472,354 472,354 472,354 473,354 473,354 473,354 473,354 473,354 473,355 473,355 473,355 473,355 473,355 473,355 473,355 473,355 474,355 474,355 474,355 474,355 474,355 474,355 474,355 474,355 474,355 474,355 474,355 474,355 474,356 475,356 475,356 475,356 475,356 475,356 475,356 475,356 475,356 475,356 475,356 475,356 475,356 475,356 476,356 476,356 476,356 476,356 476,356 476,356 476,356 476,356 476,356 476,356 476,356 476,356 476,356 477,356 477,356 477,356 477,356 477,356 477,356 477,356 477,356 477,356 477,357 477,357 477,357 477,357 478,357 478,357 478,357 478,357 478,357 478,357 478,357 478,357 478,357 478,357 478,357 478,357 478,357 479,357 479,357 479,357 479,357 479,357 479,357 479,357 479,357 479,357 479,357 479,357 479,357 480,357 480,357 480,357 480,357 480,357 480,357 480,357 480,357 480,357 480,357 480,357 480,357 480,357 481,357 481,357 481,357 481,357 481,357 481,357 481,357 481,357 481,357 481,357 481,357 481,357 481,357 482,357 482,357 482,357 482,358 482,358 482,358 482,358 482,358 482,358 482,358 482,358 482,358 482,358 483,358 483,358 483,358 483,358 483,358 483,358 483,358 483,358 483,358 483,358 483,358 483,358 483,358 484,358 484,358 484,358 484,358 484,358 484,358 484,358 484,358 484,358 484,358 484,358 484,358 484,358 485,358 485,358 485,358 485,358 485,358 485,358 485,358 485,358 485,358 485,358 485,358 485,358 485,357 486,357 486,357 486,357 486,357 486,357 486,357 486,357 486,357 486,357 486,357 486,357 486,357 486,357 487,357 487,357 487,357 487,357 487,357 487,357 487,357 487,357 487,357 487,357 487,357 487,357 487,357 488,357 488,356 488,356 488,356 488,356 488,356 488,356 488,356 488,356 488,356 488,356 488,356 488,356 489,356 489,356 489,356 489,355 489,355 489,355 489,355 489,355 489,355 489,355 489,355 489,355 489,355 490,354 490,354 490,354 490,354 490,354 490,354 490,354 490,354 490,354 490,354 490,354 490,354 490,354 491,354 491,354 491,354 491,353 491,353 491,353 491,353 491,353 491,353 491,353 491,353 491,353 491,353 492,353 492,353 492,353 492,353 492,352 492,352 492,352 492,352 492,352 492,352 492,352 492,352 492,352 493,352 493,352 493,352 493,351 493,351 493,351 493,351 493,351 493,351 493,351 493,351 493,351 493,351 494,351 494,351 494,350 494,350 494,350 494,350 494,350 494,350 494,350 494,350 494,350 494,350 495,350 495,350 495,350 495,350 495,350 495,350 495,350 495,349 495,349 495,349 495,349 495,349 495,349 496,349 496,349 496,349 496,349 496,349 496,349 496,349 496,349 496,349 496,349 496,349 496,349 496,349 497,349 497,349 497,349 497,349 497,349 497,349 497,348 497,348 497,348 497,349 497,349 497,349 497,349 498,349 498,349 498,349 498,349 498,349 498,349 498,349 498,349 498,349 498,349 498,349 498,349 498,350 499,350 499,350 499,350 499,350 499,350 499,350 499,350 499,350 499,350 499,350 499,350 499,350 499,350 500,350 500,350 500,350 500,350 500,350 500,350 500,350 500,350 500,350 500,350 500,350 500,350 500,350 501,350 501,350 501,350 501,350 501,350 501,350 501,350 501,350 501,350 501,350 501,350 501,350 501,351 502,351 502,351 502,351 502,350 502,350 502,350 502,350 502,350 502,350 502,350 502,351 502,351 502,351 503,351 503,351 503,351 503,351 503,351 503,351 503,351 503,351 503,351 503,351 503,351 503,351 503,351 504,351 504,351 504,351 504,351 504,351 504,351 504,351 504,351 504,351 504,351 504,351 504,351 504,351 505,351 505,352 505,352 505,352 505,352 505,352 505,352 505,352 505,352 505,352 505,352 505,352 505,352 506,352 506,352 506,352 506,352 506,352 506,352 506,352 506,352 506,352 506,352 506,352 506,352 506,352 507,352 507,352 507,352 507,352 507,352 507,352 507,352 507,352 507,352 507,352 507,352 507,352 507,352 508,352 508,352 508,352 508,352 508,352 508,352 508,352 508,352 508,352 508,352 508,352 508,352 509,352 509,352 509,352 509,352 509,352 509,352 509,352 509,352 509,352 509,352 509,352 509,352 509,352 510,352 510,352 510,352 510,352 510,352 510,352 510,352 510,352 510,352 510,352 510,352 510,352 510,352 511,352 511,352 511,352 511,352 511,352 511,352 511,352 511,352 511,352 511,352 511,352 511,352 511,352 512,352 512,352 512,352 512,352 512,352 512,352 512,352 512,352 512,352 512,352 512,352 512,352 512,352 513,352 513,352 513,352 513,352 513,352 513,352 513,352 513,352 513,352 513,352 513,352 513,352 513,352 514,352 514,352 514,352 514,352 514,352 514,352 514,352 514,352 514,352 514,352 514,352 514,352 514,352 515,352 515,352 515,352 515,352 515,352 515,352 515,352 515,352 515,352 515,352 515,352 515,353 515,353 516,353 516,353 516,353 516,353 516,353 516,353 516,353 516,353 516,353 516,353 516,353 516,353 516,353 517,353 517,353 517,353 517,353 517,353 517,353 517,353 517,353 517,353 517,353 517,353 517,353 517,353 518,353 518,353 518,353 518,353 518,353 518,353 518,353 518,354 518,354 518,354 518,354 518,354 518,354 519,354 519,354 519,354 519,354 519,354 519,354 519,354 519,354 519,354 519,354 519,354 519,354 519,354 520,354 520,354 520,354 520,354 520,354 520,354 520,354 520,354 520,354 520,354 520,354 520,354 520,355 521,355 521,355 521,355 521,355 521,355 521,355 521,355 521,355 521,355 521,355 521,355 521,355 521,355 522,356 522,356 522,356 522,356 522,356 522,356 522,356 522,356 522,356 522,356 522,356 522,356 523,356 523,356 523,356 523,356 523,356 523,356 523,356 523,355 523,355 523,355 523,355 523,355 523,355 524,355 524,355 524,355 524,355 524,355 524,355 524,355 524,355 524,355 524,355 524,355 524,355 524,355 525,355 525,355 525,355 525,355 525,355 525,355 525,355 525,355 525,355 525,355 525,355 525,355 525,355 526,355 526,355 526,355 526,355 526,355 526,355 526,355 526,355 526,355 526,355 526,355 526,355 526,355 527,355 527,355 527,355 527,355 527,355 527,355 527,355 527,355 527,355 527,355 527,355 527,355 527,355 528,355 528,355 528,355 528,355 528,355 528,355 528,355 528,355 528,355 528,355 528,355 528,355 528,355 529,355 529,355 529,356 529,356 529,356 529,356 529,356 529,356 529,356 529,356 529,356 529,356 529,356 530,356 530,356 530,356 530,356 530,356 530,356 530,356 530,356 530,356 530,355 530,355 530,355 530,355 531,355 531,355 531,355 531,354 531,354 531,354 531,354 531,354 531,354 531,354 531,354 531,353 531,353 532,353 532,353 532,353 532,353 532,353 532,354 532,354 532,354 532,354 532,354 532,354 532,354 532,354 533,354 533,354 533,354 533,354 533,354 533,354 533,354 533,354 533,354 533,354 533,354 533,354 533,354 534,354 534,354 534,354 534,354 534,353 534,353 534,353 534,353 534,353 534,353 534,353 534,353 534,353 535,353 535,353 535,353 535,353 535,353 535,353 535,353 535,353 535,353 535,353 535,353 535,353 535,353 536,353 536,353 536,353 536,353 536,353 536,353 536,353 536,353 536,353 536,353 536,353 536,353 536,353 537,353 537,354 537,354 537,354 537,354 537,354 537,354 537,354 537,354 537,354 537,355 537,355 538,355 538,355 538,355 538,355 538,355 538,355 538,355 538,355 538,355 538,355 538,355 538,356 538,356 539,356 539,356 539,356 539,356 539,356 539,356 539,356 539,356 539,356 539,356 539,356 539,356 539,356 540,356 540,356 540,356 540,356 540,355 540,355 540,356 540,356 540,356 540,356 540,356 540,356 540,355 541,355 541,356 541,356 541,356 541,356 541,356 541,356 541,356 541,356 541,356 541,356 541,356 541,356 542,356 542,356 542,356 542,356 542,356 542,356 542,356 542,356 542,356 542,355 542,355 542,355 542,355 543,355 543,355 543,355 543,355 543,355 543,355 543,355 543,355 543,355 543,355 543,355 543,355 543,355 544,355 544,355 544,355 544,355 544,355 544,355 544,355 544,355 544,355 544,355 544,355 544,355 544,355 545,355 545,355 545,355 545,355 545,356 545,356 545,356 545,356 545,356 545,356 545,356 545,356 545,356 546,356 546,356 546,355 546,355 546,356 546,356 546,356 546,356 546,356 546,356 546,356 546,356 546,356 547,356 547,356 547,356 547,356 547,356 547,356 547,356 547,356 547,356 547,356 547,356 547,356 547,356 548,356 548,356 548,356 548,356 548,356 548,356 548,356 548,356 548,356 548,356 548,357 548,357 548,357 549,357 549,357 549,357 549,357 549,357 549,357 549,357 549,357 549,357 549,357 549,357 549,357 549,357 550,357 550,357 550,357 550,357 550,357 550,357 550,357 550,357 550,357 550,357 550,357 550,357 550,357 551,357 551,357 551,357 551,357 551,357 551,357 551,357 551,357 551,357 551,357 551,357 551,357 552,357 552,357 552,357 552,357 552,357 552,357 552,357 552,357 552,357 552,357 552,357 552,357 552,358 553,358 553,358 553,358 553,358 553,358 553,358 553,358 553,358 553,358 553,358 553,359 553,359 553,359 554,359 554,359 554,360 554,360 554,360 554,360 554,361 554,361 554,361 554,361 554,361 554,361 554,362 555,362 555,362 555,362 555,362 555,362 555,362 555,362 555,362 555,362 555,362 555,362 555,362 555,362 556,362 556,362 556,362 556,362 556,362 556,362 556,362 556,362 556,362 556,363 556,363 556,363 556,363 557,363 557,363 557,363 557,363 557,363 557,363 557,363 557,363 557,363 557,363 557,363 557,363 557,363 558,363 558,363 558,363 558,363 558,363 558,363 558,363 558,363 558,363 558,363 558,363 558,363 558,363 559,363 559,363 559,363 559,363 559,363 559,363 559,363 559,363 559,363 559,363 559,363 559,363 559,363 560,363 560,363 560,363 560,363 560,363 560,363 560,363 560,363 560,363 560,363 560,363 560,363 560,363 561,363 561,363 561,363 561,363 561,363 561,363 561,363 561,363 561,363 561,363 561,363 561,363 561,363 562,363 562,363 562,363 562,363 562,363 562,363 562,363 562,363 562,363 562,363 562,363 562,363 562,363 563,363 563,363 563,363 563,363 563,363 563,363 563,363 563,363 563,363 563,363 563,363 563,363 563,363 564,363 564,363 564,363 564,363 564,363 564,363 564,363 564,363 564,363 564,363 564,363 564,363 564,363 565,363 565,363 565,363 565,363 565,363 565,363 565,363 565,363 565,363 565,363 565,363 565,363 565,363 566,363 566,363 566,363 566,363 566,363 566,363 566,363 566,363 566,363 566,363 566,363 566,363 567,364 567,364 567,364 567,364 567,364 567,364 567,363 567,363 567,363 567,363 567,363 567,363 567,363 568,363 568,363 568,363 568,363 568,364 568,364 568,364 568,364 568,364 568,364 568,364 568,364 568,364 569,364 569,364 569,364 569,364 569,364 569,364 569,364 569,364 569,364 569,364 569,364 569,364 569,364 570,364 570,364 570,364 570,364 570,364 570,364 570,364 570,364 570,364 570,364 570,364 570,364 570,364 571,364 571,364 571,364 571,364 571,364 571,364 571,364 571,364 571,364 571,364 571,364 571,364 571,364 572,364 572,364 572,364 572,364 572,364 572,364 572,365 572,365 572,365 572,365 572,365 572,365 572,365 573,365 573,365 573,365 573,365 573,365 573,365 573,365 573,365 573,365 573,365 573,365 573,365 573,365 574,365 574,365 574,365 574,365 574,365 574,365 574,365 574,365 574,365 574,365 574,365 574,365 574,365 575,365 575,365 575,365 575,365 575,365 575,365 575,365 575,365 575,365 575,365 575,365 575,365 575,365 576,365 576,365 576,365 576,365 576,365 576,365 576,365 576,365 576,365 576,365 576,365 576,365 576,365 577,365 577,365 577,365 577,365 577,365 577,365 577,365 577,365 577,365 577,365 577,365 577,365 577,365 578,365 578,365 578,365 578,365 578,365 578,365 578,365 578,365 578,365 578,365 578,365 578,365 578,365 579,365 579,365 579,365 579,365 579,365 579,365 579,365 579,365 579,365 579,365 579,365 579,365 579,365 580,365 580,365 580,365 580,365 580,365 580,365 580,365 580,365 580,365 580,365 580,365 580,365 581,365 581,365 581,365 581,365 581,365 581,365 581,365 581,365 581,365 581,365 581,365 581,365 581,365 582,365 582,365 582,365 582,365 582,365 582,365 582,365 582,365 582,365 582,365 582,365 582,365 582,365 583,365 583,365 583,365 583,365 583,365 583,365 583,365 583,365 583,365 583,365 583,365 583,365 583,365 584,365 584,365 584,365 584,365 584,365 584,365 584,365 584,365 584,365 584,365 584,365 584,365 584,365 585,365 585,365 585,365 585,365 585,365 585,365 585,365 585,365 585,365 585,365 585,365 585,365 585,365 586,365 586,365 586,365 586,365 586,365 586,366 586,366 586,366 586,366 586,366 586,366 586,366 586,366 587,366 587,366 587,366 587,365 587,365 587,365 587,365 587,365 587,365 587,365 587,365 587,365 587,366 588,366 588,366 588,366 588,366 588,366 588,366 588,367 588,368 588,368 588,368 588,368 588,367 588,367 589,366 589,366 589,366 589,367 589,366 589,366 589,366 589,366 589,367 589,367 589,366 589,366 589,366 590,366 590,365 590,365 590,365 590,365 590,365 590,365 590,365 590,365 590,365 590,365 590,365 590,365 591,365 591,365 591,365 591,365 591,365 591,365 591,365 591,365 591,365 591,365 591,365 591,365 591,365 592,365 592,366 592,366 592,366 592,366 592,366 592,366 592,365 592,365 592,365 592,365 592,365 592,365 593,365 593,365 593,365 593,366 593,366 593,366 593,366 593,366 593,366 593,365 593,365 593,366 593,366 594,366 594,366 594,366 594,366 594,366 594,366 594,366 594,366 594,365 594,365 594,365 594,365 595,365 595,365 595,365 595,365 595,365 595,365 595,365 595,365 595,365 595,365 595,365 595,365 595,365 596,365 596,365 596,365 596,365 596,365 596,365 596,365 596,365 596,366 596,366 596,366 596,366 596,366 597,366 597,366 597,366 597,366 597,366 597,366 597,366 597,366 597,366 597,366 597,366 597,366 597,366 598,366 598,366 598,366 598,366 598,366 598,366 598,366 598,366 598,366 598,366 598,366 598,366 598,366 599,367 599,367 599,367 599,367 599,367 599,367 599,367 599,367 599,367 599,367 599,367 599,367 599,367 600,367 600,367 600,367 600,367 600,367 600,367 600,367 600,367 600,367 600,367 600,367 600,367 600,367 601,367 601,367 601,367 601,367 601,367 601,367 601,367 601,367 601,367 601,367 601,367 601,367 601,367 602,367 602,367 602,366 602,366 602,366 602,366 602,366 602,366 602,366 602,366 602,366 602,366 602,366 603,366 603,366 603,366 603,366 603,367 603,367 603,367 603,367 603,366 603,366 603,366 603,366 603,366 604,366 604,366 604,366 604,366 604,366 604,366 604,366 604,366 604,366 604,366 604,366 604,366 604,366 605,366 605,366 605,366 605,366 605,366 605,366 605,366 605,366 605,366 605,366 605,366 605,366 605,366 606,366 606,366 606,366 606,366 606,366 606,366 606,367 606,367 606,367 606,367 606,367 606,367 606,367 607,367 607,367 607,367 607,367 607,367 607,367 607,367 607,367 607,367 607,367 607,367 607,367 607,367 608,367 608,367 608,367 608,367 608,367 608,367 608,367 608,368 608,368 608,368 608,368 608,368 608,368 609,368 609,368 609,368 609,368 609,368 609,368 609,368 609,368 609,368 609,368 609,368 609,368 610,368 610,368 610,368 610,368 610,367 610,367 610,367 610,367 610,367 610,367 610,367 610,367 610,367 611,367 611,367 611,368 611,368 611,367 611,367 611,367 611,367 611,367 611,367 611,367 611,367 611,367 612,367 612,367 612,367 612,367 612,367 612,367 612,367 612,367 612,367 612,367 612,367 612,367 612,367 613,367 613,367 613,367 613,367 613,367 613,367 613,367 613,367 613,367 613,367 613,367 613,367 613,367 614,368 614,368 614,368 614,368 614,368 614,368 614,368 614,368 614,368 614,368 614,368 614,368 614,368 615,368 615,368 615,368 615,368 615,368 615,368 615,368 615,368 615,368 615,368 615,368 615,368 615,368 616,368 616,368 616,368 616,368 616,368 616,368 616,368 616,368 616,368 616,368 616,369 616,369 616,369 617,369 617,369 617,369 617,369 617,369 617,369 617,369 617,369 617,369 617,369 617,369 617,369 617,369 618,369 618,369 618,369 618,369 618,369 618,369 618,369 618,369 618,369 618,369 618,369 618,369 618,369 619,369 619,369 619,369 619,369 619,369 619,369 619,369 619,369 619,369 619,369 619,369 619,369 619,369 620,369 620,369 620,369 620,369 620,369 620,369 620,369 620,369 620,369 620,369 620,369 620,369 620,369 621,369 621,369 621,369 621,369 621,369 621,369 621,369 621,369 621,369 621,369 621,369 621,369 621,369 622,369 622,369 622,369 622,369 622,369 622,369 622,369 622,369 622,369 622,369 622,369 622,369 622,369 623,369 623,369 623,369 623,369 623,369 623,369 623,369 623,369 623,369 623,369 623,369 623,369 624,369 624,369 624,369 624,369 624,369 624,369 624,369 624,369 624,369 624,369 624,369 624,369 624,369 625,369 625,369 625,369 625,369 625,369 625,369 625,369 625,369 625,369 625,369 625,369 625,369 625,369 626,369 626,369 626,369 626,369 626,369 626,369 626,369 626,369 626,369 626,369 626,369 626,369 626,369 627,369 627,369 627,369 627,369 627,369 627,369 627,369 627,369 627,369 627,369 627,369 627,369 627,368 628,368 628,368 628,368 628,368 628,368 628,368 628,368 628,368 628,368 628,369 628,368 628,368 628,368 629,369 629,368 629,368 629,369 629,369 629,369 629,369 629,369 629,369 629,369 629,369 629,369 629,369 630,369 630,369 630,369 630,369 630,369 630,369 630,369 630,369 630,369 630,369 630,369 630,369 630,369 631,369 631,369 631,369 631,369 631,369 631,369 631,369 631,369 631,369 631,369 631,369 631,369 631,369 632,369 632,369 632,369 632,369 632,369 632,369 632,369 632,370 632,370 632,370 632,370 632,370 632,370 633,370 633,370 633,370 633,370 633,370 633,370 633,370 633,369 633,369 633,369 633,369 633,369 633,369 634,369 634,369 634,369 634,369 634,369 634,369 634,369 634,369 634,369 634,369 634,369 634,369 634,369 635,369 635,369 635,369 635,369 635,369 635,369 635,369 635,369 635,369 635,369 635,369 635,369 635,369 636,369 636,369 636,369 636,369 636,369 636,369 636,369 636,369 636,369 636,369 636,369 636,369 636,369 637,369 637,369 637,369 637,370 637,370 637,370 637,370 637,370 637,370 637,370 637,370 637,370 638,370 638,370 638,370 638,370 638,370 638,370 638,370 638,370 638,370 638,370 638,370 638,370 638,370 639,370 639,370 639,370 639,370 639,370 639,370 639,370 639,370 639,370 639,370 639,370 639,370 639,370 640,370 640,370 640,370 640,370 640,370 640,370 640,370 640,370 640,370 640,370 640,370 640,370 640,370 641,370 641,370 641,369 641,369 641,369 641,369 641,369 641,370 641,369 641,370 641,370 641,370 641,370 642,370 642,370 642,370 642,370 642,370 642,370 642,370 642,370 642,370 642,370 642,370 642,370 642,370 643,370 643,370 643,370 643,370 643,370 643,370 643,370 643,370 643,370 643,370 643,370 643,370 643,370 644,370 644,370 644,370 644,370 644,370 644,370 644,370 644,370 644,370 644,370 644,370 644,370 644,370 645,370 645,370 645,370 645,370 645,370 645,370 645,370 645,370 645,370 645,370 645,370 645,370 645,370 646,370 646,370 646,370 646,370 646,370 646,370 646,370 646,370 646,370 646,370 646,370 646,370 646,370 647,370 647,370 647,370 647,370 647,370 647,370 647,370 647,370 647,370 647,370 647,370 647,370 647,370 648,370 648,370 648,370 648,370 648,370 648,370 648,370 648,370 648,370 648,369 648,369 648,369 648,369 649,369 649,370 649,370 649,370 649,370 649,370 649,369 649,369 649,369 649,370 649,370 649,369 649,369 650,369 650,369 650,369 650,369 650,369 650,369 650,369 650,369 650,369 650,369 650,369 650,369 650,369 651,369 651,369 651,369 651,370 651,370 651,370 651,370 651,370 651,370 651,370 651,370 651,370 651,370 652,370 652,370 652,370 652,370 652,370 652,370 652,370 652,370 652,370 652,370 652,370 652,370 653,370 653,370 653,370 653,370 653,370 653,370 653,370 653,370 653,370 653,370 653,370 653,370 653,370 654,370 654,370 654,370 654,371 654,371 654,371 654,371 654,371 654,371 654,371 654,371 654,371 654,371 655,371 655,371 655,371 655,371 655,371 655,371 655,371 655,371 655,371 655,371 655,371 655,371 655,371 656,371 656,371 656,371 656,371 656,370 656,370 656,370 656,370 656,370 656,370 656,370 656,370 656,370 657,370 657,370 657,370 657,370 657,370 657,370 657,370 657,371 657,371 657,370 657,370 657,370 657,370 658,370 658,370 658,370 658,370 658,370 658,370 658,370 658,370 658,370 658,370 658,370 658,370 658,370 659,370 659,370 659,370 659,370 659,370 659,370 659,370 659,370 659,370 659,370 659,370 659,370 659,370 660,370 660,370 660,370 660,370 660,371 660,371 660,371 660,371 660,371 660,371 660,370 660,370 660,370 661,370 661,370 661,370 661,370 661,370 661,370 661,370 661,370 661,370 661,370 661,370 661,370 661,370 662,370 662,370 662,370 662,370 662,370 662,370 662,370 662,370 662,370 662,370 662,370 662,370 662,370 663,370 663,370 663,370 663,370 663,370 663,370 663,370 663,370 663,370 663,370 663,370 663,370 663,370 664,370 664,370 664,370 664,370 664,370 664,370 664,370 664,370 664,370 664,370 664,370 664,370 664,370 665,370 665,370 665,370 665,370 665,370 665,370 665,370 665,370 665,370 665,370 665,370 665,370 665,370 666,370 666,370 666,370 666,370 666,370 666,370 666,370 666,370 666,370 666,370 666,370 666,370 667,370 667,370 667,370 667,370 667,370 667,370 667,370 667,370 667,370 667,370 667,370 667,370 667,370 668,370 668,370 668,370 668,370 668,370 668,370 668,370 668,370 668,370 668,370 668,370 668,370 668,370 669,370 669,370 669,370 669,370 669,370 669,370 669,370 669,370 669,370 669,370 669,370 669,370 669,370 670,370 670,370 670,370 670,370 670,370 670,370 670,370 670,370 670,370 670,370 670,370 670,370 670,370 671,370 671,370 671,370 671,370 671,370 671,370 671,370 671,370 671,370 671,370 671,370 671,370 671,370 672,370 672,370 672,370 672,370 672,370 672,370 672,370 672,370 672,370 672,370 672,370 672,370 672,370 673,370 673,370 673,370 673,370 673,370 673,370 673,370 673,370 673,370 673,370 673,370 673,370 673,370 674,370 674,370 674,370 674,370 674,370 674,369 674,369 674,369 674,369 674,369 674,369 674,369 674,369 675,369 675,369 675,369 675,369 675,370 675,370 675,370 675,370 675,370 675,370 675,370 675,369 675,369 676,369 676,370 676,370 676,369 676,369 676,369 676,369 676,369 676,369 676,369 676,369 676,369 676,369 677,369 677,369 677,369 677,369 677,369 677,369 677,369 677,369 677,370 677,370 677,370 677,370 677,370 678,370 678,370 678,370 678,370 678,370 678,370 678,370 678,370 678,370 678,370 678,370 678,370 678,370 679,370 679,370 679,370 679,370 679,370 679,370 679,370 679,370 679,370 679,370 679,370 679,370 679,370 680,370 680,370 680,370 680,370 680,370 680,370 680,370 680,370 680,370 680,370 680,370 680,370 681,370 681,370 681,370 681,370 681,370 681,370 681,370 681,370 681,370 681,370 681,370 681,370 681,370 682,370 682,370 682,370 682,370 682,370 682,370 682,370 682,370 682,370 682,370 682,370 682,370 682,370 683,370 683,370 683,370 683,370 683,370 683,370 683,370 683,370 683,370 683,370 683,370 683,370 683,370 684,370 684,370 684,370 684,370 684,370 684,370 684,370 684,370 684,370 684,370 684,370 684,370 684,370 685,370 685,371 685,371 685,371 685,370 685,370 685,370 685,370 685,370 685,370 685,370 685,370 685,370 686,370 686,370 686,370 686,370 686,370 686,370 686,370 686,370 686,370 686,370 686,370 686,370 686,370 687,370 687,370 687,370 687,370 687,370 687,370 687,370 687,370 687,370 687,370 687,370 687,370 687,370 688,370 688,370 688,370 688,370 688,370 688,370 688,370 688,370 688,370 688,370 688,370 688,370 688,369 689,369 689,369 689,369 689,369 689,369 689,369 689,369 689,369 689,369 689,369 689,369 689,369 689,369 690,369 690,369 690,369 690,369 690,369 690,369 690,369 690,369 690,369 690,369 690,369 690,369 690,369 691,370 691,370 691,370 691,370 691,370 691,370 691,370 691,370 691,370 691,370 691,370 691,369 691,370 692,370 692,370 692,370 692,370 692,370 692,370 692,370 692,370 692,370 692,370 692,370 692,370 692,370 693,370 693,371 693,371 693,371 693,370 693,370 693,371 693,371 693,372 693,372 693,372 693,372 693,371 694,371 694,371 694,371 694,371 694,371 694,371 694,371 694,371 694,371 694,371 694,371 694,371 694,371 695,371 695,371 695,371 695,371 695,371 695,371 695,371 695,371 695,371 695,371 695,371 695,371 696,371 696,371 696,371 696,371 696,371 696,371 696,371 696,371 696,371 696,372 696,372 696,372 696,372 697,372 697,372 697,372 697,372 697,372 697,372 697,372 697,372 697,372 697,371 697,371 697,371 697,371 698,371 698,371 698,371 698,371 698,371 698,371 698,371 698,371 698,371 698,371 698,371 698,371 698,371 699,371 699,371 699,371 699,371 699,371 699,371 699,371 699,371 699,371 699,371 699,371 699,371 699,371 700,371 700,371 700,371 700,371 700,371 700,371 700,371 700,371 700,370 700,370 700,370 700,371 700,371 701,370 701,371 701,371 701,371 701,371 701,371 701,371 701,371 701,371 701,371 701,371 701,371 701,371 702,371 702,371 702,371 702,371 702,371 702,371 702,371 702,371 702,371 702,371 702,371 702,371 702,371 703,371 703,371 703,371 703,371 703,371 703,371 703,371 703,371 703,371 703,371 703,371 703,371 703,371 704,371 704,371 704,371 704,371 704,371 704,371 704,371 704,371 704,371 704,371 704,371 704,371 704,371 705,371 705,371 705,371 705,372 705,372 705,371 705,371 705,371 705,371 705,371 705,371 705,372 705,372 706,372 706,372 706,372 706,372 706,372 706,372 706,371 706,371 706,371 706,371 706,372 706,372 706,372 707,371 707,371 707,371 707,371 707,371 707,371 707,371 707,371 707,371 707,372 707,372 707,372 707,372 708,372 708,372 708,372 708,372 708,372 708,372 708,372 708,372 708,372 708,372 708,372 708,372 708,372 709,372 709,372 709,372 709,372 709,372 709,372 709,372 709,372 709,372 709,372 709,372 709,372 710,372 710,372 710,372 710,372 710,372 710,372 710,371 710,371 710,371 710,371 710,371 710,371 710,371 711,371 711,371 711,371 711,371 711,371 711,371 711,371 711,371 711,371 711,371 711,371 711,371 711,371 712,371 712,370 712,370 712,370 712,370 712,370 712,370 712,370 712,370 712,370 712,370 712,370 712,370 713,370 713,369 713,369 713,369 713,369 713,369 713,369 713,369 713,369 713,369 713,369 713,369 713,369 714,369 714,369 714,369 714,369 714,369 714,369 714,369 714,369 714,369 714,369 714,369 714,369 714,369 715,369 715,369 715,370 715,370 715,370 715,370 715,370 715,370 715,370 715,370 715,370 715,370 715,371 716,371 716,371 716,371 716,371 716,371 716,370 716,370 716,370 716,370 716,370 716,370 716,370 716,370 717,370 717,370 717,370 717,370 717,370 717,370 717,370 717,370 717,370 717,370 717,370 717,370 717,370 718,370 718,370 718,370 718,370 718,370 718,370 718,370 718,370 718,370 718,370 718,370 718,370 718,370 719,370 719,370 719,370 719,370 719,370 719,370 719,370 719,370 719,370 719,370 719,370 719,370 719,370 720,371 720,371 720,371 720,371 720,371 720,371 720,371 720,371 720,371 720,371 720,371 720,371 720,371 721,371 721,371 721,371 721,371 721,371 721,371 721,371 721,371 721,371 721,371 721,371 721,371 721,371 722,371 722,371 722,371 722,371 722,371 722,371 722,371 722,371 722,371 722,371 722,371 722,371 722,371 723,371 723,371 723,371 723,371 723,371 723,371 723,371 723,371 723,371 723,371 723,371 723,371 723,371 724,371 724,371 724,371 724,371 724,371 724,371 724,371 724,371 724,371 724,371 724,371 724,371 725,371 725,371 725,371 725,371 725,371 725,371 725,372 725,372 725,372 725,372 725,372 725,372 725,372 726,372 726,372 726,372 726,372 726,372 726,372 726,372 726,372 726,372 726,372 726,372 726,372 726,372 727,372 727,372 727,372 727,372 727,372 727,372 727,372 727,372 727,372 727,372 727,372 727,372 727,373 728,373 728,373 728,373 728,373 728,373 728,373 728,373 728,373 728,373 728,373 728,372 728,372 728,372 729,371 729,371 729,371 729,371 729,371 729,371 729,371 729,371 729,371 729,372 729,372 729,372 729,372 730,372 730,372 730,372 730,372 730,373 730,373 730,372 730,372 730,372 730,372 730,372 730,371 730,371 731,371 731,371 731,371 731,371 731,371 731,371 731,372 731,371 731,371 731,371 731,372 731,372 731,371 732,371 732,371 732,371 732,371 732,372 732,372 732,372 732,372 732,372 732,372 732,372 732,372 732,372 733,372 733,372 733,372 733,372 733,372 733,372 733,372 733,372 733,372 733,372 733,372 733,372 733,372 734,372 734,372 734,372 734,372 734,372 734,372 734,372 734,372 734,372 734,372 734,372 734,372 734,372 735,372 735,372 735,372 735,372 735,372 735,372 735,372 735,372 735,372 735,372 735,372 735,372 735,372 736,372 736,372 736,372 736,372 736,371 736,371 736,371 736,371 736,372 736,372 736,372 " vector-effect="non-scaling-stroke"></polyline>
</g></svg>