<?xml version="1.0" encoding="UTF-8" standalone="no"?><svg width="282.222mm" height="141.111mm" xmlns="http://www.w3.org/2000/svg" xmlns:xlink="http://www.w3.org/1999/xlink"  version="1.2" baseProfile="tiny"><g fill="none" stroke="#ff0000" stroke-linecap="round" stroke-linejoin="round" stroke-opacity="1" stroke-width="1.5" transform="matrix(1,0,0,1,0,0)">
<polyline fill="none" points="27,217 27,217 27,217 27,217 27,217 27,218 27,218 27,218 28,218 28,218 28,218 28,218 28,218 28,218 28,218 28,218 28,218 28,218 28,218 28,218 28,218 29,218 29,218 29,219 29,219 29,219 29,219 29,219 29,219 29,219 29,219 29,220 29,220 29,220 30,220 30,220 30,220 30,220 30,220 30,220 30,220 30,221 30,221 30,221 30,221 30,221 30,221 31,221 31,221 31,221 31,221 31,221 31,221 31,221 31,221 31,221 31,221 31,221 31,221 31,221 32,221 32,221 32,221 32,220 32,220 32,220 32,220 32,220 32,220 32,220 32,220 32,220 32,220 33,220 33,220 33,220 33,220 33,220 33,220 33,221 33,221 33,221 33,221 33,221 33,221 33,221 34,221 34,221 34,221 34,222 34,222 34,222 34,222 34,222 34,222 34,222 34,223 34,223 35,223 35,223 35,223 35,223 35,223 35,223 35,223 35,223 35,224 35,224 35,224 35,224 35,224 36,224 36,224 36,224 36,224 36,224 36,224 36,224 36,224 36,224 36,224 36,224 36,224 36,224 37,224 37,224 37,224 37,224 37,224 37,224 37,225 37,225 37,225 37,225 37,225 37,225 37,224 38,224 38,224 38,224 38,224 38,224 38,224 38,224 38,224 38,224 38,224 38,224 38,224 38,224 39,224 39,224 39,224 39,224 39,224 39,224 39,224 39,224 39,224 39,224 39,224 39,224 39,224 40,224 40,224 40,224 40,224 40,224 40,224 40,224 40,224 40,224 40,224 40,224 40,224 40,224 41,224 41,224 41,224 41,224 41,224 41,224 41,224 41,224 41,224 41,224 41,224 41,224 41,224 42,224 42,224 42,224 42,224 42,224 42,224 42,224 42,224 42,224 42,224 42,224 42,224 42,224 43,224 43,224 43,224 43,224 43,224 43,224 43,224 43,224 43,224 43,224 43,224 43,224 43,224 44,224 44,224 44,224 44,224 44,224 44,224 44,224 44,224 44,224 44,224 44,224 44,224 44,224 45,224 45,224 45,224 45,224 45,224 45,223 45,223 45,223 45,223 45,223 45,223 45,223 45,223 46,223 46,223 46,223 46,223 46,223 46,223 46,223 46,223 46,223 46,223 46,223 46,223 46,223 47,223 47,223 47,223 47,223 47,223 47,224 47,224 47,224 47,224 47,224 47,224 47,224 47,224 48,224 48,224 48,224 48,224 48,224 48,224 48,224 48,224 48,224 48,224 48,224 48,224 49,224 49,224 49,224 49,224 49,224 49,224 49,223 49,223 49,223 49,223 49,223 49,223 49,222 50,222 50,222 50,222 50,222 50,222 50,222 50,222 50,222 50,222 50,222 50,222 50,222 50,222 51,222 51,222 51,222 51,223 51,223 51,223 51,223 51,223 51,223 51,223 51,223 51,223 51,223 52,223 52,223 52,223 52,223 52,223 52,223 52,223 52,223 52,222 52,222 52,222 52,222 52,222 53,222 53,222 53,222 53,222 53,222 53,223 53,223 53,223 53,223 53,223 53,223 53,223 53,222 54,222 54,222 54,221 54,221 54,221 54,221 54,221 54,221 54,221 54,221 54,221 54,221 54,221 55,221 55,222 55,222 55,222 55,222 55,222 55,222 55,222 55,223 55,223 55,223 55,223 55,223 56,223 56,223 56,223 56,223 56,223 56,223 56,223 56,223 56,223 56,223 56,222 56,222 56,222 57,222 57,222 57,222 57,222 57,222 57,222 57,222 57,222 57,222 57,222 57,222 57,222 57,222 58,222 58,222 58,222 58,222 58,222 58,223 58,223 58,223 58,223 58,223 58,223 58,223 58,223 59,223 59,223 59,223 59,223 59,224 59,224 59,224 59,224 59,224 59,224 59,224 59,224 59,225 60,225 60,225 60,225 60,225 60,225 60,225 60,225 60,225 60,225 60,225 60,225 60,225 60,225 61,225 61,225 61,225 61,225 61,225 61,225 61,225 61,225 61,225 61,225 61,225 61,225 61,225 62,225 62,225 62,225 62,225 62,225 62,225 62,225 62,225 62,225 62,225 62,225 62,225 63,225 63,225 63,225 63,225 63,225 63,225 63,225 63,225 63,225 63,225 63,225 63,225 63,224 64,224 64,224 64,224 64,224 64,224 64,224 64,224 64,224 64,224 64,224 64,224 64,224 64,224 65,224 65,224 65,224 65,224 65,224 65,224 65,224 65,224 65,224 65,224 65,224 65,224 65,224 66,224 66,224 66,224 66,224 66,224 66,224 66,224 66,224 66,224 66,224 66,224 66,224 66,223 67,223 67,223 67,223 67,223 67,223 67,222 67,222 67,222 67,222 67,222 67,222 67,222 67,222 68,222 68,222 68,222 68,222 68,222 68,222 68,222 68,221 68,221 68,221 68,221 68,222 68,222 69,222 69,222 69,222 69,222 69,222 69,222 69,222 69,222 69,222 69,222 69,222 69,223 69,223 70,223 70,223 70,223 70,223 70,223 70,224 70,224 70,224 70,224 70,224 70,224 70,224 70,224 71,224 71,225 71,225 71,225 71,225 71,225 71,225 71,225 71,225 71,225 71,225 71,225 71,225 72,225 72,226 72,225 72,225 72,225 72,225 72,225 72,225 72,225 72,225 72,225 72,225 72,225 73,225 73,225 73,225 73,225 73,225 73,225 73,225 73,225 73,225 73,225 73,224 73,224 73,224 74,224 74,224 74,224 74,224 74,224 74,224 74,224 74,224 74,224 74,224 74,224 74,224 74,224 75,224 75,224 75,224 75,224 75,224 75,225 75,225 75,225 75,225 75,225 75,225 75,225 75,225 76,225 76,225 76,225 76,225 76,225 76,226 76,226 76,226 76,226 76,226 76,226 76,226 77,226 77,226 77,226 77,226 77,226 77,226 77,226 77,226 77,226 77,226 77,226 77,227 77,227 78,227 78,227 78,227 78,227 78,227 78,227 78,227 78,227 78,227 78,227 78,227 78,227 78,227 79,227 79,227 79,226 79,226 79,226 79,226 79,226 79,226 79,225 79,225 79,225 79,225 79,225 80,225 80,225 80,225 80,224 80,224 80,224 80,224 80,224 80,224 80,224 80,224 80,224 80,224 81,224 81,224 81,224 81,224 81,224 81,225 81,225 81,225 81,225 81,225 81,225 81,225 81,225 82,225 82,226 82,226 82,226 82,226 82,226 82,226 82,226 82,226 82,226 82,226 82,226 82,226 83,226 83,226 83,226 83,226 83,226 83,226 83,226 83,226 83,226 83,226 83,225 83,225 83,225 84,225 84,225 84,225 84,224 84,224 84,224 84,224 84,224 84,223 84,223 84,223 84,223 84,223 85,223 85,223 85,223 85,223 85,223 85,223 85,223 85,223 85,222 85,222 85,222 85,223 85,223 86,223 86,223 86,223 86,223 86,223 86,224 86,224 86,224 86,224 86,224 86,224 86,224 86,224 87,224 87,224 87,224 87,224 87,224 87,224 87,225 87,225 87,225 87,225 87,225 87,225 87,225 88,225 88,225 88,225 88,225 88,225 88,226 88,226 88,226 88,226 88,226 88,226 88,227 88,227 89,227 89,227 89,227 89,227 89,228 89,228 89,228 89,228 89,228 89,228 89,228 89,228 89,229 90,229 90,229 90,229 90,229 90,230 90,230 90,230 90,230 90,230 90,230 90,230 90,230 91,230 91,230 91,230 91,230 91,231 91,231 91,231 91,231 91,231 91,231 91,231 91,231 91,231 92,231 92,231 92,231 92,231 92,231 92,231 92,231 92,231 92,231 92,231 92,231 92,231 92,231 93,231 93,231 93,231 93,231 93,231 93,231 93,230 93,230 93,230 93,230 93,230 93,229 93,229 94,229 94,229 94,228 94,228 94,228 94,227 94,227 94,227 94,227 94,226 94,226 94,226 94,225 95,225 95,225 95,225 95,225 95,225 95,224 95,224 95,224 95,224 95,224 95,224 95,225 95,224 96,224 96,224 96,224 96,224 96,224 96,224 96,224 96,224 96,224 96,224 96,224 96,224 96,224 97,224 97,224 97,224 97,224 97,224 97,224 97,224 97,224 97,223 97,223 97,223 97,223 97,223 98,223 98,223 98,223 98,223 98,222 98,222 98,222 98,222 98,222 98,222 98,221 98,221 98,221 99,221 99,221 99,221 99,221 99,220 99,220 99,220 99,220 99,220 99,220 99,219 99,219 99,219 100,219 100,218 100,218 100,218 100,218 100,218 100,218 100,217 100,217 100,217 100,217 100,217 100,217 101,217 101,217 101,218 101,218 101,218 101,218 101,218 101,219 101,219 101,219 101,219 101,219 101,219 102,219 102,220 102,220 102,220 102,220 102,220 102,220 102,221 102,221 102,221 102,221 102,221 102,221 103,221 103,221 103,221 103,221 103,221 103,221 103,221 103,221 103,221 103,221 103,222 103,222 103,222 104,223 104,223 104,223 104,224 104,224 104,224 104,225 104,225 104,225 104,225 104,225 104,225 105,225 105,225 105,225 105,225 105,224 105,224 105,224 105,224 105,223 105,223 105,223 105,223 105,222 106,222 106,222 106,221 106,221 106,221 106,220 106,220 106,219 106,219 106,218 106,218 106,217 106,216 107,216 107,215 107,215 107,215 107,214 107,214 107,213 107,213 107,212 107,212 107,211 107,211 107,210 108,210 108,210 108,209 108,209 108,209 108,208 108,208 108,208 108,207 108,207 108,207 108,207 108,208 109,208 109,208 109,208 109,209 109,209 109,209 109,209 109,210 109,210 109,210 109,211 109,211 109,211 110,211 110,211 110,212 110,212 110,211 110,211 110,211 110,212 110,213 110,213 110,213 110,214 110,215 111,215 111,216 111,217 111,217 111,218 111,219 111,219 111,219 111,219 111,219 111,219 111,218 111,218 112,217 112,216 112,215 112,214 112,214 112,213 112,213 112,213 112,213 112,212 112,212 112,212 112,211 113,211 113,211 113,210 113,210 113,210 113,210 113,209 113,209 113,209 113,208 113,208 113,208 113,207 114,207 114,206 114,206 114,205 114,205 114,204 114,204 114,203 114,203 114,202 114,201 114,201 114,200 115,199 115,199 115,198 115,198 115,198 115,198 115,198 115,198 115,198 115,197 115,197 115,197 115,197 116,197 116,197 116,197 116,197 116,197 116,197 116,197 116,197 116,197 116,197 116,197 116,197 116,196 117,196 117,196 117,196 117,196 117,196 117,196 117,196 117,195 117,195 117,195 117,195 117,195 117,194 118,194 118,194 118,193 118,193 118,193 118,194 118,194 118,194 118,194 118,194 118,195 118,194 119,194 119,193 119,192 119,192 119,191 119,191 119,190 119,191 119,191 119,191 119,191 119,192 119,192 120,192 120,192 120,193 120,193 120,193 120,193 120,194 120,194 120,194 120,194 120,195 120,195 120,195 121,195 121,196 121,196 121,196 121,196 121,196 121,197 121,197 121,197 121,198 121,199 121,200 121,201 122,202 122,203 122,205 122,206 122,206 122,208 122,209 122,209 122,209 122,209 122,209 122,208 122,207 123,206 123,205 123,205 123,205 123,206 123,206 123,206 123,206 123,206 123,207 123,207 123,207 123,207 124,207 124,207 124,207 124,207 124,207 124,206 124,206 124,207 124,207 124,207 124,207 124,207 124,208 125,208 125,209 125,209 125,210 125,210 125,211 125,211 125,212 125,212 125,213 125,213 125,214 125,214 126,214 126,214 126,214 126,213 126,213 126,212 126,212 126,210 126,209 126,207 126,206 126,205 126,204 127,204 127,203 127,203 127,203 127,202 127,202 127,202 127,202 127,202 127,202 127,202 127,202 127,202 128,202 128,202 128,202 128,202 128,201 128,201 128,201 128,201 128,201 128,201 128,201 128,201 128,201 129,201 129,201 129,201 129,201 129,201 129,201 129,201 129,201 129,201 129,201 129,201 129,202 129,202 130,202 130,202 130,202 130,202 130,203 130,203 130,204 130,205 130,206 130,206 130,207 130,207 130,208 131,208 131,209 131,209 131,209 131,209 131,209 131,209 131,210 131,210 131,210 131,211 131,211 131,211 132,212 132,212 132,213 132,213 132,214 132,214 132,215 132,216 132,216 132,216 132,216 132,217 132,217 133,217 133,216 133,216 133,215 133,215 133,214 133,214 133,213 133,213 133,212 133,212 133,211 134,210 134,210 134,209 134,209 134,208 134,207 134,206 134,205 134,204 134,204 134,202 134,201 134,200 135,199 135,199 135,198 135,197 135,196 135,194 135,193 135,192 135,192 135,192 135,191 135,191 135,191 136,191 136,191 136,191 136,191 136,192 136,192 136,193 136,193 136,194 136,194 136,194 136,195 136,195 137,195 137,196 137,196 137,196 137,197 137,197 137,198 137,198 137,198 137,199 137,199 137,200 137,200 138,201 138,202 138,203 138,203 138,205 138,206 138,207 138,208 138,209 138,210 138,211 138,212 138,213 139,214 139,215 139,216 139,217 139,217 139,218 139,219 139,220 139,220 139,221 139,222 139,222 139,223 140,223 140,224 140,225 140,226 140,226 140,227 140,228 140,228 140,229 140,230 140,230 140,230 140,231 141,231 141,232 141,232 141,232 141,232 141,232 141,232 141,232 141,232 141,232 141,232 141,233 141,233 142,233 142,233 142,233 142,234 142,234 142,234 142,234 142,235 142,235 142,235 142,236 142,236 142,236 143,236 143,237 143,237 143,237 143,237 143,238 143,238 143,239 143,239 143,240 143,240 143,241 143,241 144,242 144,242 144,243 144,243 144,244 144,245 144,245 144,245 144,246 144,247 144,247 144,247 144,247 145,246 145,246 145,245 145,245 145,245 145,245 145,245 145,244 145,244 145,244 145,244 145,244 145,244 146,244 146,244 146,244 146,244 146,244 146,244 146,244 146,244 146,244 146,244 146,244 146,244 146,244 147,244 147,245 147,245 147,245 147,246 147,246 147,246 147,247 147,247 147,247 147,248 147,248 148,248 148,248 148,249 148,249 148,249 148,249 148,250 148,250 148,250 148,250 148,250 148,251 148,251 149,251 149,252 149,252 149,252 149,253 149,253 149,253 149,253 149,253 149,254 149,254 149,254 149,254 150,255 150,255 150,255 150,255 150,255 150,255 150,255 150,255 150,256 150,256 150,256 150,256 150,256 151,256 151,256 151,256 151,256 151,256 151,256 151,256 151,256 151,256 151,257 151,257 151,257 151,257 152,257 152,258 152,258 152,258 152,258 152,259 152,259 152,259 152,259 152,259 152,259 152,259 152,259 153,259 153,259 153,259 153,259 153,259 153,259 153,259 153,259 153,259 153,259 153,259 153,259 153,259 154,259 154,259 154,259 154,259 154,259 154,259 154,260 154,260 154,260 154,260 154,260 154,260 154,260 155,260 155,261 155,261 155,261 155,261 155,261 155,261 155,261 155,262 155,262 155,263 155,264 155,264 156,264 156,265 156,265 156,265 156,265 156,265 156,265 156,265 156,265 156,265 156,265 156,265 156,265 157,266 157,266 157,266 157,266 157,266 157,266 157,266 157,266 157,266 157,266 157,266 157,266 157,266 158,266 158,266 158,267 158,267 158,267 158,266 158,265 158,265 158,264 158,263 158,262 158,262 158,261 159,260 159,259 159,258 159,257 159,256 159,256 159,255 159,254 159,253 159,252 159,251 159,250 159,249 160,249 160,248 160,247 160,247 160,247 160,247 160,247 160,247 160,247 160,247 160,247 160,247 160,247 161,246 161,245 161,245 161,245 161,245 161,244 161,244 161,244 161,243 161,243 161,243 161,243 162,243 162,243 162,243 162,243 162,243 162,243 162,243 162,242 162,243 162,243 162,244 162,245 162,246 163,246 163,247 163,248 163,249 163,249 163,250 163,251 163,251 163,252 163,252 163,252 163,252 163,252 164,253 164,253 164,253 164,254 164,254 164,253 164,253 164,253 164,253 164,251 164,251 164,251 164,250 165,250 165,250 165,250 165,249 165,248 165,247 165,246 165,245 165,243 165,241 165,239 165,237 165,235 166,233 166,231 166,230 166,229 166,227 166,226 166,225 166,226 166,226 166,227 166,227 166,227 166,227 167,227 167,227 167,227 167,227 167,227 167,227 167,226 167,226 167,226 167,226 167,226 167,225 167,225 168,225 168,225 168,225 168,225 168,225 168,226 168,226 168,227 168,228 168,228 168,229 168,230 168,231 169,232 169,233 169,234 169,235 169,236 169,237 169,237 169,238 169,239 169,240 169,240 169,241 169,241 170,242 170,242 170,243 170,244 170,245 170,246 170,246 170,247 170,247 170,248 170,249 170,249 170,250 171,250 171,251 171,251 171,252 171,252 171,253 171,253 171,254 171,254 171,255 171,255 171,256 171,256 172,257 172,257 172,258 172,258 172,258 172,259 172,259 172,260 172,260 172,261 172,261 172,262 172,262 173,263 173,264 173,264 173,265 173,265 173,266 173,267 173,268 173,269 173,269 173,270 173,271 173,272 174,273 174,274 174,275 174,275 174,275 174,275 174,275 174,275 174,275 174,275 174,274 174,273 174,273 175,272 175,271 175,270 175,270 175,269 175,268 175,267 175,266 175,265 175,264 175,263 175,262 176,261 176,259 176,258 176,257 176,255 176,254 176,253 176,253 176,252 176,252 176,252 176,251 176,251 177,251 177,251 177,250 177,250 177,250 177,250 177,250 177,250 177,250 177,249 177,249 177,249 177,249 178,249 178,249 178,248 178,248 178,248 178,248 178,248 178,248 178,247 178,247 178,247 178,247 178,247 179,247 179,247 179,246 179,246 179,246 179,245 179,245 179,245 179,245 179,245 179,245 179,245 179,245 180,245 180,244 180,244 180,244 180,244 180,244 180,244 180,244 180,243 180,243 180,243 180,243 180,243 181,243 181,243 181,243 181,243 181,243 181,243 181,243 181,243 181,243 181,243 181,243 181,243 181,243 182,242 182,242 182,242 182,242 182,242 182,242 182,242 182,242 182,242 182,242 182,241 182,241 182,242 183,242 183,242 183,242 183,242 183,242 183,242 183,242 183,242 183,243 183,243 183,244 183,244 183,245 184,245 184,246 184,246 184,247 184,247 184,248 184,249 184,249 184,250 184,251 184,254 184,257 184,260 185,262 185,264 185,266 185,268 185,270 185,272 185,273 185,275 185,276 185,276 185,277 185,279 185,280 186,281 186,282 186,283 186,284 186,284 186,284 186,284 186,284 186,284 186,284 186,284 186,283 186,283 187,283 187,283 187,284 187,284 187,285 187,285 187,285 187,285 187,285 187,285 187,285 187,285 187,285 188,286 188,286 188,285 188,285 188,285 188,285 188,286 188,286 188,286 188,286 188,286 188,286 188,287 189,287 189,287 189,287 189,287 189,287 189,287 189,287 189,287 189,287 189,287 189,287 189,287 190,288 190,288 190,287 190,287 190,287 190,288 190,288 190,288 190,288 190,288 190,288 190,288 190,288 191,288 191,288 191,288 191,288 191,288 191,288 191,288 191,288 191,288 191,289 191,289 191,289 191,289 192,289 192,289 192,289 192,289 192,289 192,289 192,288 192,287 192,285 192,284 192,282 192,280 192,279 193,277 193,276 193,274 193,273 193,271 193,271 193,270 193,270 193,269 193,269 193,268 193,268 193,267 194,267 194,267 194,267 194,266 194,266 194,266 194,266 194,266 194,267 194,267 194,267 194,267 194,268 195,268 195,268 195,269 195,270 195,270 195,270 195,271 195,271 195,272 195,272 195,273 195,273 195,273 196,273 196,273 196,273 196,273 196,274 196,274 196,273 196,273 196,273 196,273 196,273 196,274 196,274 197,274 197,274 197,274 197,275 197,275 197,275 197,275 197,275 197,274 197,274 197,274 197,274 197,274 198,274 198,274 198,274 198,273 198,274 198,274 198,274 198,274 198,274 198,274 198,274 198,274 198,274 199,274 199,274 199,274 199,274 199,274 199,274 199,274 199,274 199,275 199,276 199,276 199,277 199,277 200,277 200,277 200,278 200,278 200,279 200,280 200,281 200,283 200,284 200,285 200,285 200,285 200,284 201,284 201,283 201,282 201,281 201,280 201,279 201,278 201,277 201,276 201,275 201,274 201,273 201,271 202,270 202,268 202,267 202,266 202,265 202,264 202,263 202,262 202,261 202,259 202,258 202,258 202,257 203,256 203,256 203,256 203,255 203,255 203,254 203,254 203,254 203,253 203,253 203,253 203,253 204,253 204,252 204,252 204,252 204,252 204,251 204,251 204,251 204,251 204,251 204,251 204,251 204,251 205,251 205,251 205,251 205,251 205,251 205,251 205,251 205,251 205,251 205,251 205,251 205,251 205,252 206,252 206,252 206,252 206,252 206,252 206,252 206,253 206,253 206,253 206,254 206,254 206,254 206,255 207,255 207,255 207,256 207,256 207,257 207,258 207,258 207,259 207,260 207,260 207,261 207,262 207,263 208,264 208,264 208,265 208,266 208,267 208,268 208,269 208,270 208,271 208,271 208,272 208,273 208,274 209,275 209,276 209,276 209,276 209,277 209,277 209,276 209,276 209,275 209,274 209,274 209,273 209,272 210,272 210,271 210,271 210,270 210,270 210,270 210,269 210,268 210,268 210,267 210,267 210,266 210,266 211,266 211,266 211,266 211,266 211,265 211,265 211,265 211,265 211,265 211,265 211,265 211,264 211,264 212,264 212,264 212,264 212,264 212,264 212,264 212,264 212,264 212,264 212,264 212,264 212,264 212,265 213,265 213,265 213,265 213,265 213,265 213,265 213,266 213,266 213,266 213,266 213,266 213,267 213,267 214,267 214,267 214,267 214,267 214,268 214,268 214,268 214,268 214,269 214,269 214,269 214,269 214,270 215,270 215,270 215,270 215,271 215,271 215,272 215,272 215,272 215,273 215,273 215,274 215,274 215,275 216,275 216,276 216,276 216,276 216,277 216,277 216,278 216,278 216,278 216,278 216,279 216,279 216,279 217,278 217,278 217,278 217,278 217,278 217,278 217,277 217,277 217,277 217,277 217,277 217,277 218,278 218,278 218,278 218,278 218,278 218,279 218,279 218,279 218,280 218,280 218,280 218,281 218,282 219,282 219,282 219,283 219,283 219,284 219,285 219,285 219,286 219,286 219,287 219,287 219,288 219,288 220,289 220,289 220,289 220,289 220,289 220,289 220,289 220,289 220,289 220,289 220,289 220,289 220,289 221,289 221,289 221,289 221,289 221,289 221,288 221,288 221,288 221,288 221,288 221,288 221,288 221,289 222,289 222,289 222,289 222,290 222,290 222,290 222,290 222,291 222,291 222,292 222,292 222,292 222,293 223,293 223,294 223,294 223,295 223,295 223,295 223,296 223,296 223,296 223,297 223,297 223,298 223,298 224,298 224,298 224,299 224,299 224,299 224,299 224,299 224,300 224,300 224,300 224,300 224,300 224,300 225,300 225,300 225,299 225,300 225,300 225,300 225,300 225,300 225,300 225,300 225,300 225,300 225,301 226,301 226,301 226,301 226,301 226,301 226,301 226,301 226,300 226,299 226,299 226,299 226,298 226,298 227,297 227,297 227,297 227,297 227,297 227,296 227,296 227,296 227,296 227,297 227,297 227,297 227,297 228,297 228,297 228,298 228,297 228,297 228,296 228,296 228,295 228,295 228,295 228,294 228,294 228,294 229,294 229,293 229,293 229,293 229,293 229,292 229,292 229,292 229,292 229,291 229,291 229,291 229,291 230,291 230,290 230,290 230,290 230,290 230,290 230,289 230,289 230,289 230,289 230,288 230,288 230,288 231,287 231,287 231,287 231,287 231,286 231,286 231,286 231,285 231,285 231,285 231,284 231,284 232,284 232,284 232,283 232,283 232,283 232,283 232,283 232,283 232,283 232,283 232,283 232,283 232,283 233,283 233,283 233,283 233,283 233,283 233,283 233,283 233,283 233,284 233,284 233,284 233,284 233,284 234,285 234,285 234,285 234,285 234,286 234,286 234,286 234,287 234,287 234,287 234,288 234,288 234,288 235,289 235,289 235,289 235,290 235,290 235,291 235,291 235,291 235,292 235,292 235,292 235,292 235,293 236,293 236,293 236,293 236,293 236,293 236,293 236,293 236,293 236,293 236,293 236,293 236,293 236,293 237,292 237,292 237,292 237,292 237,292 237,292 237,292 237,292 237,291 237,291 237,291 237,291 237,291 238,291 238,291 238,291 238,291 238,291 238,291 238,291 238,291 238,291 238,291 238,291 238,291 238,291 239,291 239,291 239,291 239,291 239,291 239,291 239,291 239,291 239,291 239,291 239,291 239,291 239,291 240,291 240,291 240,290 240,290 240,290 240,290 240,290 240,290 240,290 240,290 240,290 240,290 240,290 241,290 241,290 241,290 241,290 241,290 241,290 241,290 241,290 241,290 241,290 241,290 241,290 241,290 242,290 242,290 242,290 242,290 242,290 242,290 242,290 242,290 242,290 242,290 242,290 242,290 242,290 243,290 243,290 243,290 243,290 243,290 243,290 243,290 243,289 243,289 243,289 243,289 243,289 243,289 244,289 244,289 244,288 244,288 244,288 244,288 244,288 244,288 244,287 244,287 244,287 244,287 244,287 245,286 245,286 245,286 245,286 245,286 245,285 245,285 245,285 245,285 245,284 245,284 245,284 246,284 246,283 246,283 246,283 246,283 246,283 246,282 246,282 246,282 246,282 246,282 246,282 246,282 247,282 247,282 247,282 247,283 247,283 247,283 247,284 247,284 247,284 247,285 247,285 247,286 247,286 248,286 248,287 248,287 248,288 248,288 248,288 248,289 248,289 248,289 248,290 248,290 248,290 248,291 249,291 249,291 249,292 249,292 249,292 249,293 249,293 249,293 249,293 249,293 249,294 249,294 249,294 250,294 250,294 250,294 250,294 250,294 250,294 250,294 250,294 250,293 250,293 250,292 250,292 250,292 251,291 251,291 251,290 251,290 251,290 251,289 251,289 251,289 251,288 251,288 251,288 251,287 251,287 252,287 252,286 252,286 252,286 252,286 252,285 252,285 252,285 252,285 252,284 252,284 252,284 252,284 253,283 253,283 253,283 253,283 253,283 253,283 253,283 253,283 253,283 253,283 253,283 253,283 253,283 254,283 254,283 254,283 254,283 254,283 254,283 254,283 254,283 254,284 254,284 254,284 254,284 254,284 255,285 255,285 255,285 255,285 255,285 255,285 255,286 255,286 255,286 255,286 255,286 255,287 255,287 256,287 256,287 256,287 256,288 256,288 256,288 256,289 256,289 256,289 256,290 256,290 256,291 256,291 257,292 257,292 257,292 257,293 257,293 257,293 257,294 257,294 257,295 257,295 257,295 257,295 257,295 258,295 258,295 258,296 258,296 258,296 258,296 258,296 258,296 258,296 258,297 258,297 258,297 258,297 259,298 259,298 259,298 259,298 259,299 259,299 259,299 259,300 259,300 259,300 259,300 259,301 260,301 260,301 260,301 260,301 260,301 260,301 260,302 260,302 260,302 260,302 260,302 260,302 260,302 261,301 261,301 261,301 261,301 261,301 261,301 261,301 261,301 261,301 261,301 261,301 261,301 261,301 262,301 262,301 262,302 262,302 262,302 262,302 262,302 262,302 262,303 262,303 262,303 262,303 262,303 263,303 263,303 263,304 263,304 263,304 263,304 263,304 263,305 263,305 263,305 263,305 263,306 263,306 264,306 264,306 264,306 264,307 264,307 264,307 264,308 264,308 264,308 264,308 264,309 264,309 264,309 265,310 265,310 265,310 265,311 265,311 265,311 265,311 265,312 265,312 265,312 265,313 265,313 265,313 266,312 266,313 266,312 266,312 266,312 266,312 266,312 266,312 266,312 266,312 266,312 266,312 266,312 267,312 267,312 267,312 267,312 267,312 267,312 267,312 267,312 267,312 267,312 267,312 267,312 267,312 268,312 268,312 268,312 268,312 268,312 268,311 268,311 268,311 268,311 268,311 268,311 268,311 268,310 269,310 269,310 269,310 269,310 269,310 269,310 269,309 269,309 269,309 269,309 269,309 269,309 269,309 270,309 270,308 270,308 270,308 270,308 270,308 270,308 270,308 270,308 270,308 270,308 270,308 270,308 271,308 271,308 271,308 271,307 271,307 271,307 271,307 271,307 271,307 271,307 271,306 271,306 271,306 272,306 272,305 272,305 272,305 272,305 272,304 272,304 272,304 272,304 272,303 272,303 272,303 272,302 273,302 273,302 273,302 273,301 273,301 273,301 273,300 273,300 273,300 273,300 273,300 273,299 274,299 274,299 274,299 274,298 274,298 274,298 274,297 274,297 274,297 274,297 274,297 274,296 274,296 275,296 275,296 275,296 275,296 275,296 275,296 275,296 275,296 275,296 275,296 275,296 275,297 275,297 276,297 276,298 276,298 276,298 276,298 276,298 276,299 276,299 276,299 276,299 276,299 276,299 276,299 277,299 277,299 277,299 277,298 277,298 277,298 277,298 277,298 277,298 277,297 277,297 277,297 277,296 278,296 278,295 278,295 278,295 278,294 278,294 278,293 278,293 278,292 278,292 278,292 278,291 278,291 279,290 279,290 279,289 279,289 279,288 279,287 279,287 279,287 279,286 279,286 279,286 279,285 279,285 280,285 280,284 280,284 280,283 280,282 280,282 280,282 280,281 280,281 280,280 280,280 280,279 280,279 281,278 281,278 281,277 281,277 281,276 281,276 281,275 281,275 281,274 281,274 281,273 281,273 281,273 282,272 282,272 282,271 282,271 282,270 282,270 282,269 282,269 282,268 282,268 282,267 282,266 282,265 283,264 283,264 283,264 283,264 283,264 283,263 283,263 283,263 283,263 283,263 283,263 283,262 283,262 284,262 284,262 284,262 284,262 284,262 284,262 284,262 284,263 284,262 284,262 284,263 284,263 284,264 285,264 285,264 285,265 285,265 285,265 285,266 285,266 285,266 285,267 285,267 285,267 285,267 285,268 286,268 286,268 286,269 286,269 286,269 286,269 286,270 286,270 286,272 286,273 286,275 286,276 286,278 287,279 287,280 287,281 287,281 287,282 287,283 287,285 287,286 287,288 287,289 287,290 287,290 288,291 288,292 288,293 288,293 288,294 288,295 288,295 288,296 288,297 288,297 288,297 288,298 288,298 289,298 289,298 289,299 289,299 289,299 289,299 289,299 289,299 289,300 289,300 289,300 289,300 289,300 290,301 290,301 290,301 290,301 290,301 290,302 290,302 290,303 290,303 290,303 290,304 290,304 290,305 291,305 291,306 291,306 291,307 291,307 291,308 291,308 291,308 291,308 291,308 291,309 291,309 291,310 292,310 292,311 292,311 292,311 292,311 292,312 292,311 292,311 292,311 292,311 292,311 292,311 292,311 293,310 293,310 293,310 293,310 293,310 293,310 293,309 293,309 293,309 293,309 293,309 293,309 293,310 294,310 294,310 294,310 294,311 294,311 294,311 294,312 294,312 294,313 294,313 294,314 294,314 294,315 295,315 295,316 295,316 295,316 295,316 295,316 295,317 295,316 295,316 295,316 295,316 295,315 295,315 296,314 296,314 296,313 296,313 296,312 296,312 296,312 296,311 296,311 296,311 296,310 296,310 296,310 297,310 297,310 297,310 297,310 297,310 297,310 297,310 297,310 297,310 297,310 297,310 297,310 297,310 298,311 298,311 298,311 298,311 298,311 298,312 298,312 298,312 298,312 298,313 298,313 298,313 298,314 299,314 299,314 299,315 299,315 299,316 299,316 299,317 299,317 299,318 299,318 299,319 299,319 299,320 300,321 300,322 300,322 300,323 300,324 300,324 300,325 300,326 300,326 300,326 300,326 300,326 300,326 301,325 301,325 301,325 301,324 301,324 301,324 301,324 301,324 301,324 301,324 301,324 301,325 302,325 302,325 302,325 302,324 302,324 302,324 302,324 302,324 302,324 302,324 302,324 302,324 302,323 303,323 303,323 303,323 303,324 303,324 303,323 303,323 303,323 303,323 303,323 303,323 303,322 303,322 304,322 304,322 304,322 304,321 304,321 304,321 304,321 304,321 304,320 304,320 304,320 304,319 304,319 305,319 305,319 305,319 305,318 305,318 305,318 305,318 305,318 305,318 305,317 305,317 305,317 305,316 306,316 306,316 306,315 306,315 306,315 306,315 306,314 306,314 306,314 306,314 306,314 306,313 306,313 307,313 307,313 307,313 307,313 307,313 307,313 307,313 307,313 307,313 307,313 307,313 307,313 307,313 308,313 308,313 308,313 308,313 308,313 308,314 308,314 308,314 308,314 308,314 308,314 308,314 308,313 309,313 309,313 309,313 309,313 309,313 309,314 309,314 309,314 309,314 309,314 309,314 309,314 309,314 310,314 310,314 310,314 310,314 310,315 310,315 310,315 310,315 310,315 310,315 310,315 310,315 310,315 311,315 311,315 311,315 311,315 311,315 311,315 311,316 311,316 311,316 311,316 311,316 311,316 311,316 312,316 312,316 312,316 312,316 312,316 312,316 312,316 312,316 312,316 312,316 312,316 312,316 312,316 313,316 313,316 313,316 313,316 313,316 313,316 313,316 313,316 313,316 313,316 313,316 313,316 313,316 314,316 314,316 314,315 314,315 314,315 314,315 314,315 314,315 314,315 314,315 314,315 314,315 314,314 315,314 315,314 315,314 315,314 315,314 315,314 315,314 315,314 315,313 315,313 315,313 315,313 315,313 316,313 316,313 316,312 316,312 316,312 316,312 316,312 316,311 316,311 316,311 316,311 316,311 317,311 317,311 317,311 317,310 317,310 317,310 317,310 317,310 317,310 317,310 317,310 317,309 317,309 318,309 318,309 318,309 318,309 318,308 318,308 318,308 318,308 318,308 318,308 318,308 318,308 318,308 319,307 319,307 319,307 319,307 319,307 319,306 319,306 319,306 319,306 319,306 319,306 319,306 319,305 320,305 320,305 320,305 320,304 320,304 320,304 320,304 320,304 320,304 320,303 320,303 320,303 320,303 321,303 321,303 321,302 321,302 321,302 321,302 321,302 321,302 321,302 321,301 321,301 321,301 321,301 322,301 322,301 322,301 322,300 322,300 322,300 322,300 322,300 322,299 322,299 322,299 322,299 322,299 323,299 323,298 323,298 323,298 323,298 323,297 323,297 323,297 323,297 323,296 323,296 323,296 323,295 324,295 324,295 324,295 324,295 324,295 324,295 324,294 324,294 324,294 324,294 324,294 324,294 324,293 325,293 325,293 325,293 325,293 325,293 325,292 325,292 325,292 325,292 325,292 325,292 325,292 325,292 326,292 326,292 326,292 326,292 326,292 326,292 326,292 326,292 326,292 326,292 326,292 326,292 326,292 327,292 327,293 327,293 327,293 327,293 327,293 327,294 327,294 327,294 327,294 327,294 327,294 327,295 328,295 328,295 328,295 328,295 328,296 328,296 328,296 328,296 328,296 328,297 328,297 328,297 328,297 329,298 329,298 329,298 329,298 329,298 329,299 329,299 329,299 329,299 329,300 329,300 329,300 329,300 330,300 330,301 330,301 330,301 330,301 330,301 330,301 330,302 330,302 330,302 330,302 330,302 331,303 331,303 331,303 331,303 331,303 331,303 331,304 331,304 331,304 331,304 331,304 331,304 331,304 332,304 332,304 332,305 332,305 332,305 332,305 332,305 332,305 332,305 332,306 332,306 332,306 332,306 333,306 333,306 333,307 333,307 333,307 333,307 333,307 333,307 333,308 333,308 333,308 333,308 333,308 334,308 334,308 334,308 334,309 334,309 334,309 334,309 334,309 334,309 334,309 334,309 334,309 334,310 335,310 335,310 335,310 335,310 335,310 335,310 335,310 335,310 335,310 335,310 335,310 335,310 335,310 336,310 336,310 336,309 336,309 336,309 336,309 336,309 336,309 336,309 336,309 336,309 336,309 336,309 337,309 337,309 337,309 337,309 337,309 337,309 337,309 337,308 337,308 337,308 337,308 337,308 337,308 338,308 338,308 338,308 338,308 338,307 338,307 338,307 338,307 338,307 338,307 338,307 338,307 338,307 339,307 339,307 339,307 339,307 339,307 339,307 339,307 339,307 339,307 339,307 339,307 339,307 339,307 340,307 340,307 340,307 340,307 340,307 340,307 340,307 340,307 340,307 340,307 340,307 340,306 340,306 341,306 341,306 341,306 341,306 341,306 341,306 341,306 341,306 341,306 341,306 341,306 341,306 341,306 342,306 342,306 342,306 342,306 342,306 342,306 342,306 342,306 342,305 342,305 342,305 342,305 342,305 343,305 343,305 343,305 343,305 343,305 343,305 343,305 343,305 343,305 343,306 343,306 343,306 343,306 344,306 344,305 344,305 344,305 344,305 344,305 344,306 344,306 344,306 344,306 344,306 344,306 345,307 345,307 345,306 345,306 345,306 345,306 345,306 345,306 345,306 345,306 345,306 345,306 345,306 346,306 346,306 346,306 346,306 346,306 346,306 346,306 346,306 346,307 346,307 346,307 346,307 346,307 347,307 347,308 347,308 347,308 347,308 347,308 347,308 347,308 347,309 347,309 347,309 347,309 347,309 348,309 348,309 348,309 348,310 348,310 348,310 348,310 348,310 348,310 348,310 348,311 348,311 348,311 349,311 349,311 349,311 349,312 349,312 349,312 349,312 349,312 349,312 349,313 349,313 349,313 349,313 350,313 350,314 350,314 350,314 350,314 350,314 350,314 350,315 350,315 350,315 350,315 350,315 350,316 351,316 351,316 351,316 351,316 351,317 351,317 351,317 351,317 351,317 351,318 351,318 351,318 351,318 352,319 352,319 352,319 352,319 352,319 352,320 352,320 352,320 352,320 352,320 352,320 352,321 352,321 353,321 353,321 353,322 353,322 353,322 353,322 353,323 353,323 353,323 353,323 353,324 353,324 353,324 354,324 354,324 354,324 354,325 354,325 354,325 354,325 354,326 354,326 354,326 354,326 354,327 354,327 355,327 355,327 355,327 355,328 355,328 355,328 355,329 355,329 355,330 355,331 355,331 355,332 355,332 356,331 356,331 356,331 356,331 356,331 356,331 356,331 356,331 356,331 356,332 356,332 356,332 356,332 357,332 357,332 357,333 357,333 357,333 357,333 357,333 357,334 357,334 357,334 357,334 357,335 357,335 358,336 358,336 358,336 358,336 358,337 358,337 358,338 358,338 358,338 358,338 358,339 358,340 359,340 359,340 359,340 359,340 359,340 359,340 359,340 359,340 359,340 359,340 359,340 359,340 359,340 360,340 360,340 360,340 360,339 360,339 360,339 360,338 360,337 360,335 360,334 360,333 360,332 360,332 361,331 361,330 361,330 361,329 361,329 361,329 361,328 361,328 361,328 361,328 361,327 361,327 361,327 362,327 362,327 362,327 362,327 362,327 362,328 362,328 362,328 362,328 362,328 362,328 362,328 362,328 363,328 363,328 363,327 363,327 363,327 363,327 363,327 363,327 363,327 363,327 363,327 363,328 363,328 364,328 364,328 364,329 364,329 364,329 364,330 364,330 364,330 364,330 364,331 364,331 364,330 364,330 365,330 365,330 365,329 365,329 365,329 365,329 365,328 365,328 365,328 365,328 365,328 365,327 365,327 366,327 366,327 366,326 366,326 366,326 366,326 366,326 366,326 366,325 366,325 366,325 366,325 366,325 367,325 367,324 367,324 367,324 367,324 367,324 367,324 367,324 367,324 367,323 367,323 367,323 367,323 368,323 368,323 368,323 368,322 368,322 368,322 368,322 368,322 368,322 368,322 368,321 368,321 368,321 369,321 369,321 369,321 369,321 369,320 369,320 369,320 369,320 369,320 369,320 369,320 369,320 369,319 370,319 370,319 370,319 370,319 370,319 370,319 370,319 370,319 370,318 370,318 370,318 370,318 370,318 371,318 371,318 371,318 371,318 371,317 371,317 371,317 371,317 371,317 371,317 371,316 371,316 371,316 372,316 372,316 372,315 372,315 372,315 372,315 372,315 372,314 372,314 372,314 372,314 372,313 373,313 373,313 373,313 373,312 373,312 373,312 373,311 373,311 373,311 373,311 373,310 373,310 373,310 374,310 374,310 374,310 374,310 374,310 374,310 374,310 374,310 374,310 374,310 374,310 374,310 374,310 375,310 375,310 375,310 375,310 375,310 375,310 375,310 375,310 375,310 375,310 375,310 375,310 375,310 376,310 376,310 376,310 376,310 376,310 376,310 376,311 376,311 376,311 376,311 376,311 376,311 376,311 377,311 377,311 377,311 377,311 377,312 377,312 377,312 377,312 377,312 377,312 377,312 377,313 377,313 378,313 378,313 378,313 378,313 378,313 378,313 378,314 378,314 378,314 378,314 378,314 378,314 378,314 379,315 379,315 379,315 379,315 379,315 379,315 379,315 379,315 379,315 379,316 379,316 379,316 379,316 380,316 380,316 380,316 380,316 380,316 380,316 380,316 380,316 380,316 380,316 380,316 380,316 380,317 381,317 381,317 381,317 381,317 381,317 381,317 381,317 381,317 381,317 381,317 381,317 381,317 381,317 382,317 382,317 382,317 382,317 382,317 382,317 382,317 382,317 382,317 382,317 382,317 382,317 382,317 383,317 383,317 383,317 383,317 383,317 383,317 383,317 383,317 383,317 383,317 383,317 383,317 383,317 384,317 384,317 384,317 384,317 384,317 384,317 384,317 384,317 384,317 384,317 384,316 384,316 384,316 385,316 385,316 385,316 385,316 385,316 385,316 385,316 385,316 385,316 385,316 385,316 385,316 385,316 386,316 386,317 386,317 386,317 386,317 386,317 386,317 386,317 386,317 386,317 386,317 386,317 387,317 387,317 387,317 387,317 387,317 387,317 387,317 387,317 387,317 387,317 387,317 387,317 387,317 388,317 388,317 388,317 388,318 388,318 388,318 388,318 388,318 388,318 388,318 388,318 388,318 388,319 389,319 389,320 389,320 389,320 389,320 389,320 389,319 389,319 389,319 389,319 389,319 389,319 389,319 390,319 390,319 390,319 390,319 390,319 390,319 390,319 390,319 390,319 390,319 390,319 390,319 390,319 391,319 391,319 391,319 391,319 391,319 391,319 391,319 391,319 391,319 391,319 391,319 391,319 391,319 392,319 392,319 392,319 392,319 392,319 392,319 392,319 392,319 392,319 392,319 392,319 392,319 392,319 393,319 393,319 393,319 393,319 393,319 393,319 393,319 393,319 393,319 393,319 393,319 393,319 393,319 394,319 394,319 394,319 394,319 394,319 394,319 394,319 394,319 394,319 394,318 394,318 394,318 394,318 395,318 395,318 395,318 395,318 395,318 395,318 395,318 395,318 395,318 395,318 395,318 395,318 395,318 396,318 396,318 396,318 396,318 396,318 396,318 396,318 396,318 396,318 396,318 396,318 396,318 396,318 397,319 397,319 397,319 397,319 397,319 397,319 397,319 397,319 397,319 397,319 397,319 397,319 397,319 398,320 398,320 398,320 398,320 398,321 398,321 398,321 398,321 398,321 398,321 398,321 398,321 398,321 399,321 399,322 399,322 399,322 399,322 399,322 399,322 399,322 399,322 399,322 399,322 399,322 399,323 400,323 400,323 400,323 400,323 400,323 400,323 400,323 400,323 400,323 400,323 400,324 400,324 401,324 401,324 401,324 401,324 401,324 401,324 401,324 401,324 401,324 401,324 401,325 401,325 401,325 402,325 402,325 402,325 402,325 402,325 402,325 402,325 402,325 402,326 402,326 402,326 402,326 402,326 403,326 403,326 403,326 403,326 403,326 403,326 403,326 403,326 403,327 403,327 403,327 403,327 403,327 404,327 404,327 404,327 404,327 404,327 404,328 404,328 404,328 404,328 404,328 404,328 404,328 404,328 405,328 405,328 405,328 405,328 405,328 405,329 405,329 405,329 405,329 405,329 405,329 405,329 405,329 406,329 406,329 406,330 406,330 406,330 406,330 406,330 406,330 406,330 406,330 406,330 406,330 406,330 407,330 407,331 407,331 407,331 407,331 407,331 407,331 407,331 407,331 407,331 407,331 407,331 407,331 408,332 408,332 408,332 408,332 408,332 408,332 408,332 408,332 408,332 408,332 408,332 408,332 408,332 409,332 409,332 409,333 409,333 409,333 409,333 409,333 409,333 409,333 409,333 409,333 409,333 409,333 410,333 410,334 410,334 410,334 410,334 410,334 410,334 410,334 410,334 410,334 410,334 410,334 410,334 411,334 411,334 411,335 411,335 411,335 411,335 411,335 411,335 411,335 411,335 411,335 411,335 411,335 412,336 412,336 412,336 412,336 412,336 412,336 412,336 412,336 412,336 412,336 412,336 412,336 412,337 413,337 413,337 413,337 413,337 413,337 413,337 413,337 413,337 413,337 413,337 413,337 413,337 413,337 414,338 414,338 414,338 414,338 414,338 414,338 414,338 414,339 414,339 414,339 414,339 414,339 415,339 415,339 415,339 415,339 415,339 415,339 415,339 415,340 415,340 415,340 415,340 415,340 415,340 416,340 416,340 416,340 416,340 416,340 416,340 416,340 416,340 416,340 416,340 416,341 416,341 416,341 417,341 417,341 417,341 417,341 417,341 417,341 417,341 417,341 417,341 417,341 417,341 417,341 417,341 418,341 418,341 418,341 418,341 418,342 418,342 418,342 418,342 418,342 418,342 418,342 418,342 418,342 419,342 419,342 419,342 419,342 419,342 419,342 419,342 419,342 419,342 419,342 419,342 419,342 419,342 420,342 420,343 420,343 420,343 420,343 420,343 420,343 420,343 420,343 420,343 420,343 420,343 420,343 421,343 421,343 421,343 421,343 421,343 421,343 421,343 421,343 421,343 421,343 421,343 421,343 421,343 422,343 422,343 422,343 422,343 422,343 422,343 422,344 422,344 422,344 422,344 422,344 422,344 422,344 423,344 423,344 423,344 423,344 423,344 423,344 423,344 423,344 423,344 423,344 423,344 423,344 423,344 424,344 424,344 424,344 424,344 424,345 424,345 424,345 424,345 424,345 424,345 424,345 424,345 424,345 425,345 425,345 425,345 425,345 425,345 425,345 425,345 425,345 425,345 425,345 425,345 425,345 425,345 426,346 426,346 426,346 426,346 426,346 426,346 426,346 426,346 426,346 426,346 426,346 426,346 426,346 427,346 427,346 427,346 427,346 427,346 427,346 427,346 427,346 427,346 427,346 427,346 427,346 427,347 428,347 428,347 428,347 428,347 428,347 428,347 428,347 428,347 428,347 428,347 428,347 428,347 429,347 429,347 429,347 429,347 429,347 429,347 429,347 429,347 429,348 429,348 429,348 429,348 429,348 430,348 430,348 430,348 430,348 430,348 430,348 430,348 430,348 430,348 430,348 430,348 430,348 430,348 431,348 431,348 431,348 431,348 431,348 431,348 431,348 431,349 431,349 431,349 431,349 431,349 431,349 432,349 432,349 432,349 432,349 432,349 432,349 432,349 432,349 432,349 432,349 432,349 432,349 432,349 433,349 433,349 433,349 433,349 433,349 433,349 433,349 433,349 433,349 433,349 433,350 433,350 433,350 434,350 434,350 434,350 434,350 434,350 434,350 434,350 434,350 434,350 434,350 434,350 434,350 434,350 435,350 435,350 435,350 435,350 435,351 435,351 435,351 435,351 435,351 435,351 435,351 435,351 435,351 436,351 436,351 436,351 436,351 436,351 436,351 436,350 436,351 436,351 436,351 436,351 436,351 436,351 437,351 437,351 437,351 437,351 437,351 437,351 437,351 437,351 437,351 437,351 437,351 437,351 437,351 438,351 438,351 438,351 438,351 438,351 438,351 438,351 438,351 438,351 438,351 438,351 438,351 438,351 439,351 439,351 439,351 439,351 439,351 439,351 439,351 439,351 439,351 439,351 439,351 439,351 439,351 440,351 440,351 440,351 440,351 440,351 440,351 440,351 440,352 440,352 440,352 440,352 440,352 440,352 441,352 441,352 441,352 441,352 441,352 441,352 441,352 441,352 441,352 441,352 441,352 441,352 441,352 442,352 442,352 442,352 442,352 442,352 442,352 442,352 442,352 442,352 442,352 442,352 442,352 443,352 443,352 443,352 443,352 443,352 443,352 443,352 443,352 443,352 443,352 443,352 443,352 443,352 444,352 444,352 444,352 444,352 444,352 444,352 444,352 444,352 444,352 444,352 444,352 444,352 444,352 445,352 445,352 445,352 445,352 445,352 445,352 445,352 445,352 445,352 445,352 445,352 445,352 445,352 446,352 446,352 446,352 446,352 446,352 446,352 446,352 446,352 446,352 446,352 446,352 446,353 446,353 447,353 447,352 447,352 447,352 447,352 447,352 447,353 447,353 447,353 447,353 447,353 447,352 447,352 448,352 448,352 448,353 448,353 448,353 448,353 448,353 448,353 448,353 448,353 448,353 448,353 448,353 449,353 449,353 449,353 449,353 449,353 449,353 449,353 449,353 449,353 449,353 449,353 449,353 449,353 450,354 450,354 450,354 450,354 450,354 450,354 450,354 450,354 450,354 450,354 450,354 450,354 450,354 451,354 451,354 451,354 451,354 451,354 451,354 451,354 451,354 451,354 451,354 451,354 451,355 451,355 452,355 452,355 452,355 452,355 452,355 452,355 452,355 452,354 452,354 452,355 452,355 452,355 452,355 453,355 453,355 453,355 453,355 453,355 453,355 453,355 453,355 453,355 453,355 453,355 453,355 453,355 454,355 454,355 454,355 454,355 454,355 454,355 454,355 454,355 454,355 454,355 454,355 454,355 454,355 455,355 455,355 455,355 455,355 455,355 455,355 455,355 455,355 455,355 455,355 455,355 455,355 455,355 456,355 456,355 456,355 456,355 456,355 456,355 456,355 456,355 456,355 456,355 456,355 456,355 457,355 457,355 457,355 457,355 457,356 457,356 457,356 457,356 457,356 457,356 457,356 457,356 457,356 458,356 458,356 458,356 458,356 458,356 458,356 458,356 458,356 458,356 458,356 458,356 458,356 458,356 459,356 459,356 459,356 459,356 459,356 459,356 459,356 459,356 459,356 459,356 459,357 459,357 459,357 460,357 460,357 460,357 460,357 460,357 460,357 460,357 460,357 460,357 460,357 460,357 460,357 460,357 461,357 461,357 461,357 461,357 461,357 461,357 461,357 461,357 461,357 461,357 461,357 461,357 461,357 462,357 462,357 462,357 462,357 462,357 462,357 462,357 462,357 462,357 462,357 462,357 462,357 462,357 463,357 463,357 463,357 463,357 463,357 463,357 463,357 463,357 463,357 463,357 463,357 463,357 463,357 464,357 464,357 464,357 464,357 464,357 464,357 464,357 464,357 464,357 464,357 464,357 464,357 464,357 465,357 465,357 465,357 465,357 465,357 465,357 465,357 465,357 465,358 465,358 465,358 465,358 465,358 466,358 466,358 466,358 466,358 466,358 466,358 466,358 466,358 466,358 466,358 466,358 466,358 466,358 467,358 467,358 467,358 467,358 467,358 467,358 467,358 467,358 467,358 467,358 467,358 467,358 467,358 468,358 468,358 468,358 468,358 468,358 468,358 468,358 468,358 468,358 468,358 468,358 468,358 468,358 469,358 469,358 469,359 469,359 469,359 469,359 469,359 469,359 469,359 469,359 469,359 469,359 469,359 470,359 470,359 470,359 470,359 470,359 470,359 470,359 470,359 470,359 470,359 470,359 470,359 471,359 471,359 471,359 471,359 471,359 471,359 471,359 471,359 471,359 471,359 471,360 471,360 471,360 472,360 472,360 472,360 472,360 472,360 472,360 472,360 472,359 472,359 472,359 472,359 472,359 472,359 473,359 473,359 473,359 473,359 473,359 473,359 473,359 473,359 473,359 473,359 473,359 473,359 473,359 474,359 474,360 474,360 474,360 474,360 474,360 474,360 474,360 474,360 474,360 474,360 474,360 474,360 475,360 475,360 475,360 475,360 475,360 475,360 475,360 475,360 475,360 475,360 475,360 475,360 475,360 476,360 476,360 476,360 476,359 476,359 476,359 476,359 476,359 476,359 476,359 476,358 476,358 476,358 477,358 477,357 477,357 477,357 477,357 477,357 477,356 477,356 477,356 477,356 477,356 477,356 477,356 478,356 478,355 478,355 478,355 478,355 478,355 478,355 478,355 478,355 478,355 478,355 478,355 478,355 479,355 479,355 479,355 479,355 479,355 479,354 479,354 479,354 479,354 479,354 479,354 479,354 479,354 480,354 480,354 480,354 480,354 480,354 480,354 480,353 480,353 480,353 480,353 480,353 480,353 480,353 481,353 481,353 481,353 481,353 481,353 481,353 481,353 481,353 481,352 481,352 481,352 481,352 481,352 482,352 482,352 482,352 482,352 482,352 482,352 482,352 482,352 482,352 482,352 482,352 482,352 482,352 483,352 483,352 483,352 483,352 483,352 483,352 483,352 483,352 483,352 483,352 483,352 483,352 483,352 484,352 484,353 484,353 484,353 484,353 484,353 484,353 484,353 484,353 484,353 484,353 484,353 485,353 485,353 485,353 485,353 485,353 485,353 485,353 485,353 485,353 485,353 485,353 485,353 485,353 486,353 486,353 486,353 486,354 486,354 486,354 486,354 486,354 486,354 486,354 486,354 486,354 486,354 487,354 487,354 487,354 487,354 487,354 487,354 487,354 487,354 487,354 487,354 487,354 487,354 487,354 488,354 488,354 488,354 488,354 488,354 488,354 488,354 488,354 488,354 488,354 488,354 488,354 488,354 489,354 489,354 489,354 489,354 489,354 489,354 489,354 489,354 489,354 489,354 489,354 489,354 489,354 490,354 490,354 490,354 490,354 490,354 490,354 490,354 490,354 490,354 490,354 490,354 490,354 490,354 491,354 491,354 491,354 491,354 491,354 491,354 491,354 491,354 491,354 491,354 491,354 491,354 491,354 492,354 492,354 492,354 492,354 492,354 492,354 492,354 492,354 492,354 492,354 492,354 492,354 492,354 493,354 493,354 493,354 493,354 493,354 493,354 493,354 493,354 493,354 493,354 493,354 493,354 493,354 494,354 494,354 494,354 494,354 494,354 494,354 494,354 494,354 494,354 494,354 494,354 494,354 494,354 495,354 495,354 495,354 495,354 495,354 495,354 495,354 495,354 495,354 495,354 495,354 495,354 495,354 496,354 496,354 496,354 496,354 496,354 496,354 496,354 496,354 496,354 496,354 496,354 496,354 496,354 497,354 497,354 497,354 497,354 497,354 497,354 497,354 497,354 497,354 497,354 497,354 497,354 497,354 498,354 498,354 498,354 498,354 498,354 498,354 498,354 498,354 498,354 498,354 498,354 498,354 498,354 499,354 499,354 499,354 499,354 499,354 499,354 499,354 499,354 499,355 499,355 499,355 499,355 500,355 500,355 500,355 500,355 500,355 500,355 500,355 500,355 500,355 500,355 500,355 500,355 500,355 501,355 501,355 501,355 501,355 501,355 501,355 501,355 501,355 501,355 501,355 501,355 501,355 501,355 502,355 502,355 502,355 502,355 502,355 502,355 502,355 502,355 502,355 502,355 502,355 502,355 502,355 503,355 503,355 503,355 503,355 503,355 503,355 503,355 503,355 503,355 503,355 503,355 503,355 503,355 504,355 504,355 504,355 504,355 504,355 504,355 504,355 504,355 504,355 504,355 504,355 504,355 504,355 505,355 505,355 505,355 505,355 505,355 505,356 505,356 505,356 505,356 505,356 505,356 505,356 505,356 506,356 506,356 506,356 506,356 506,356 506,356 506,356 506,356 506,356 506,356 506,356 506,356 506,356 507,356 507,356 507,356 507,356 507,356 507,356 507,356 507,356 507,356 507,356 507,356 507,356 507,356 508,356 508,356 508,356 508,356 508,356 508,356 508,356 508,356 508,356 508,356 508,356 508,356 508,356 509,356 509,356 509,356 509,356 509,356 509,356 509,356 509,356 509,356 509,356 509,356 509,356 509,356 510,356 510,356 510,356 510,356 510,356 510,356 510,356 510,356 510,356 510,356 510,356 510,356 510,356 511,356 511,356 511,356 511,356 511,356 511,356 511,356 511,356 511,356 511,356 511,356 511,356 511,356 512,356 512,356 512,356 512,356 512,356 512,356 512,356 512,356 512,356 512,356 512,356 512,356 512,356 513,356 513,356 513,356 513,356 513,356 513,356 513,356 513,356 513,356 513,356 513,356 513,356 514,356 514,356 514,356 514,356 514,356 514,356 514,356 514,356 514,356 514,356 514,356 514,356 514,356 515,356 515,356 515,356 515,356 515,356 515,356 515,356 515,356 515,356 515,356 515,356 515,356 515,356 516,356 516,356 516,356 516,356 516,356 516,356 516,356 516,356 516,356 516,356 516,356 516,356 516,356 517,356 517,356 517,356 517,356 517,356 517,356 517,356 517,356 517,356 517,356 517,356 517,356 517,356 518,356 518,356 518,356 518,356 518,356 518,356 518,356 518,356 518,356 518,356 518,356 518,356 518,356 519,356 519,356 519,356 519,356 519,356 519,356 519,356 519,356 519,356 519,356 519,356 519,356 519,356 520,356 520,356 520,356 520,356 520,356 520,356 520,356 520,356 520,356 520,356 520,356 520,356 520,356 521,356 521,356 521,356 521,356 521,356 521,356 521,356 521,356 521,356 521,356 521,356 521,356 521,356 522,356 522,356 522,356 522,356 522,355 522,355 522,355 522,355 522,355 522,355 522,355 522,355 522,355 523,355 523,355 523,355 523,355 523,355 523,355 523,355 523,355 523,355 523,355 523,355 523,355 523,355 524,355 524,355 524,355 524,355 524,355 524,355 524,355 524,355 524,355 524,355 524,355 524,355 524,355 525,355 525,355 525,355 525,355 525,355 525,355 525,355 525,355 525,355 525,355 525,355 525,355 525,355 526,355 526,355 526,355 526,355 526,355 526,356 526,356 526,356 526,356 526,356 526,356 526,356 526,356 527,356 527,356 527,356 527,356 527,356 527,356 527,356 527,355 527,355 527,355 527,355 527,355 528,355 528,355 528,355 528,355 528,355 528,355 528,355 528,355 528,355 528,355 528,355 528,355 528,355 529,355 529,355 529,355 529,355 529,355 529,355 529,355 529,355 529,355 529,355 529,355 529,355 529,355 530,355 530,355 530,355 530,355 530,355 530,355 530,355 530,355 530,355 530,355 530,355 530,355 530,355 531,355 531,355 531,355 531,355 531,355 531,355 531,355 531,356 531,356 531,356 531,356 531,356 531,356 532,356 532,356 532,356 532,356 532,356 532,356 532,356 532,356 532,356 532,356 532,356 532,356 532,356 533,356 533,356 533,356 533,356 533,356 533,356 533,356 533,357 533,357 533,357 533,357 533,357 533,357 534,357 534,357 534,357 534,357 534,357 534,357 534,357 534,357 534,357 534,356 534,356 534,356 534,356 535,356 535,356 535,356 535,356 535,356 535,356 535,356 535,356 535,356 535,356 535,356 535,356 535,356 536,356 536,356 536,356 536,356 536,356 536,356 536,356 536,356 536,356 536,356 536,356 536,356 536,356 537,356 537,356 537,356 537,356 537,356 537,356 537,356 537,356 537,356 537,356 537,356 537,356 537,356 538,356 538,356 538,356 538,356 538,356 538,356 538,356 538,356 538,356 538,356 538,356 538,356 538,356 539,356 539,356 539,356 539,356 539,356 539,356 539,356 539,356 539,356 539,356 539,356 539,356 539,356 540,356 540,356 540,356 540,355 540,355 540,355 540,355 540,355 540,355 540,355 540,355 540,355 540,355 541,355 541,355 541,356 541,356 541,356 541,356 541,356 541,356 541,356 541,357 541,357 541,357 542,357 542,357 542,357 542,357 542,357 542,357 542,357 542,357 542,357 542,357 542,357 542,357 542,357 543,357 543,357 543,357 543,357 543,357 543,357 543,357 543,358 543,358 543,358 543,358 543,358 543,358 544,358 544,358 544,358 544,358 544,358 544,358 544,358 544,358 544,358 544,358 544,358 544,358 544,358 545,358 545,358 545,358 545,358 545,358 545,358 545,358 545,358 545,358 545,358 545,358 545,358 545,358 546,358 546,358 546,358 546,358 546,358 546,358 546,358 546,358 546,358 546,358 546,359 546,359 546,359 547,359 547,359 547,359 547,359 547,359 547,359 547,359 547,359 547,359 547,359 547,359 547,359 547,359 548,359 548,359 548,359 548,360 548,360 548,360 548,360 548,360 548,360 548,360 548,360 548,360 548,360 549,360 549,360 549,360 549,360 549,360 549,361 549,361 549,361 549,361 549,361 549,361 549,361 549,361 550,361 550,361 550,361 550,361 550,361 550,360 550,360 550,360 550,360 550,360 550,360 550,360 550,360 551,360 551,360 551,360 551,360 551,360 551,360 551,360 551,360 551,360 551,360 551,360 551,360 551,360 552,360 552,360 552,360 552,361 552,361 552,361 552,361 552,361 552,361 552,361 552,361 552,361 552,361 553,361 553,361 553,361 553,361 553,361 553,361 553,361 553,361 553,361 553,361 553,361 553,361 553,361 554,361 554,361 554,361 554,361 554,361 554,361 554,361 554,361 554,361 554,361 554,361 554,361 554,361 555,362 555,362 555,362 555,362 555,362 555,362 555,362 555,362 555,362 555,362 555,362 555,362 556,362 556,362 556,362 556,362 556,362 556,362 556,362 556,362 556,362 556,362 556,362 556,362 556,362 557,362 557,362 557,362 557,362 557,362 557,363 557,363 557,363 557,363 557,363 557,363 557,363 557,363 558,363 558,363 558,363 558,363 558,363 558,363 558,363 558,363 558,363 558,363 558,363 558,363 558,363 559,363 559,363 559,363 559,363 559,363 559,363 559,363 559,364 559,364 559,364 559,364 559,364 559,364 560,364 560,364 560,364 560,364 560,364 560,364 560,364 560,364 560,364 560,364 560,364 560,364 560,364 561,364 561,364 561,364 561,364 561,364 561,364 561,364 561,364 561,364 561,364 561,364 561,364 561,364 562,364 562,364 562,364 562,364 562,364 562,364 562,364 562,364 562,364 562,364 562,364 562,364 562,364 563,364 563,364 563,364 563,364 563,364 563,364 563,364 563,364 563,364 563,364 563,364 563,364 563,364 564,364 564,364 564,364 564,364 564,364 564,364 564,364 564,363 564,363 564,363 564,363 564,363 564,363 565,363 565,363 565,363 565,363 565,363 565,363 565,363 565,363 565,363 565,363 565,363 565,363 565,363 566,363 566,363 566,363 566,363 566,363 566,363 566,363 566,363 566,363 566,363 566,363 566,364 566,364 567,364 567,364 567,364 567,364 567,364 567,364 567,364 567,364 567,364 567,364 567,364 567,364 567,364 568,364 568,364 568,364 568,364 568,364 568,364 568,365 568,365 568,365 568,365 568,365 568,365 568,365 569,365 569,365 569,365 569,365 569,365 569,365 569,365 569,365 569,365 569,364 569,365 569,365 570,365 570,364 570,364 570,364 570,364 570,364 570,364 570,364 570,364 570,364 570,364 570,364 570,364 571,364 571,364 571,364 571,364 571,364 571,364 571,364 571,364 571,364 571,364 571,364 571,364 571,364 572,364 572,364 572,364 572,364 572,364 572,364 572,364 572,364 572,364 572,364 572,364 572,364 572,364 573,365 573,365 573,365 573,365 573,365 573,365 573,365 573,365 573,365 573,365 573,365 573,365 573,366 574,366 574,366 574,366 574,366 574,366 574,366 574,366 574,366 574,366 574,366 574,366 574,366 574,366 575,367 575,367 575,367 575,367 575,367 575,367 575,367 575,367 575,367 575,367 575,367 575,367 575,367 576,367 576,367 576,367 576,366 576,366 576,366 576,366 576,366 576,366 576,366 576,366 576,366 576,366 577,366 577,366 577,366 577,366 577,366 577,367 577,367 577,367 577,367 577,367 577,367 577,367 577,367 578,367 578,367 578,367 578,367 578,367 578,368 578,368 578,368 578,368 578,368 578,368 578,368 578,368 579,368 579,367 579,367 579,367 579,367 579,367 579,367 579,368 579,368 579,368 579,368 579,368 579,368 580,368 580,368 580,368 580,368 580,368 580,368 580,368 580,368 580,368 580,368 580,368 580,367 580,367 581,367 581,367 581,367 581,367 581,367 581,367 581,367 581,367 581,368 581,368 581,368 581,367 581,367 582,368 582,368 582,368 582,368 582,368 582,368 582,368 582,368 582,368 582,368 582,368 582,368 582,368 583,368 583,368 583,368 583,368 583,368 583,368 583,368 583,368 583,368 583,368 583,368 583,368 584,368 584,368 584,368 584,368 584,368 584,368 584,368 584,368 584,368 584,369 584,369 584,369 584,369 585,369 585,369 585,369 585,369 585,369 585,369 585,369 585,369 585,369 585,369 585,369 585,369 585,368 586,368 586,369 586,369 586,369 586,369 586,368 586,368 586,368 586,368 586,368 586,368 586,369 586,369 587,368 587,369 587,369 587,369 587,369 587,369 587,369 587,369 587,369 587,369 587,369 587,369 587,369 588,369 588,369 588,369 588,369 588,369 588,369 588,369 588,369 588,369 588,369 588,369 588,369 588,369 589,369 589,369 589,369 589,369 589,369 589,368 589,368 589,368 589,369 589,368 589,368 589,368 589,368 590,368 590,368 590,368 590,368 590,368 590,369 590,369 590,369 590,369 590,369 590,369 590,369 590,368 591,368 591,368 591,368 591,368 591,368 591,368 591,368 591,368 591,368 591,369 591,369 591,369 591,369 592,369 592,369 592,369 592,369 592,369 592,369 592,369 592,369 592,369 592,369 592,369 592,369 592,369 593,369 593,369 593,369 593,369 593,369 593,369 593,369 593,369 593,369 593,369 593,369 593,369 593,369 594,369 594,369 594,369 594,369 594,369 594,369 594,369 594,369 594,369 594,369 594,369 594,369 594,369 595,369 595,369 595,369 595,369 595,369 595,369 595,369 595,369 595,369 595,369 595,369 595,369 595,369 596,369 596,369 596,369 596,369 596,369 596,369 596,369 596,369 596,369 596,369 596,369 596,369 596,369 597,369 597,369 597,369 597,369 597,369 597,369 597,369 597,369 597,369 597,369 597,369 597,369 598,369 598,369 598,369 598,369 598,369 598,369 598,369 598,369 598,369 598,369 598,369 598,369 598,369 599,369 599,369 599,369 599,369 599,369 599,369 599,369 599,369 599,369 599,369 599,369 599,369 599,369 600,369 600,369 600,369 600,369 600,369 600,369 600,369 600,369 600,369 600,369 600,369 600,369 600,369 601,369 601,369 601,369 601,369 601,369 601,369 601,369 601,369 601,369 601,369 601,369 601,369 601,369 602,369 602,369 602,369 602,369 602,369 602,369 602,369 602,369 602,369 602,369 602,369 602,369 602,369 603,369 603,369 603,369 603,369 603,369 603,369 603,369 603,369 603,369 603,369 603,369 603,369 603,369 604,369 604,369 604,369 604,369 604,369 604,369 604,369 604,369 604,369 604,369 604,369 604,369 604,369 605,369 605,369 605,369 605,369 605,369 605,369 605,369 605,369 605,369 605,369 605,369 605,369 605,369 606,369 606,369 606,369 606,369 606,369 606,369 606,369 606,369 606,369 606,369 606,369 606,369 606,369 607,369 607,369 607,369 607,369 607,369 607,369 607,369 607,369 607,369 607,369 607,369 607,369 607,369 608,369 608,369 608,369 608,369 608,369 608,369 608,369 608,369 608,369 608,369 608,369 608,369 608,369 609,369 609,369 609,369 609,369 609,369 609,369 609,369 609,369 609,369 609,369 609,369 609,369 609,369 610,369 610,369 610,369 610,369 610,369 610,369 610,369 610,369 610,369 610,369 610,369 610,369 610,369 611,369 611,369 611,369 611,369 611,369 611,369 611,369 611,369 611,369 611,369 611,369 611,369 612,369 612,369 612,369 612,369 612,369 612,369 612,369 612,369 612,369 612,369 612,369 612,369 612,369 613,369 613,369 613,369 613,369 613,369 613,369 613,369 613,369 613,369 613,369 613,369 613,369 613,369 614,369 614,369 614,369 614,369 614,369 614,369 614,369 614,369 614,369 614,369 614,369 614,369 614,369 615,369 615,369 615,369 615,369 615,369 615,369 615,369 615,369 615,369 615,369 615,369 615,369 615,369 616,369 616,369 616,369 616,369 616,369 616,369 616,369 616,369 616,369 616,369 616,369 616,369 616,369 617,369 617,369 617,369 617,369 617,369 617,369 617,368 617,368 617,368 617,368 617,368 617,368 617,369 618,369 618,369 618,369 618,369 618,369 618,369 618,369 618,369 618,369 618,369 618,369 618,369 618,369 619,369 619,369 619,369 619,369 619,369 619,369 619,369 619,369 619,369 619,369 619,369 619,370 619,370 620,370 620,370 620,370 620,369 620,369 620,369 620,369 620,368 620,368 620,369 620,369 620,369 620,369 621,369 621,369 621,369 621,369 621,369 621,369 621,369 621,369 621,369 621,369 621,369 621,369 621,369 622,369 622,369 622,369 622,369 622,369 622,369 622,369 622,369 622,369 622,369 622,369 622,369 622,369 623,369 623,369 623,369 623,369 623,369 623,369 623,370 623,370 623,370 623,370 623,370 623,370 623,370 624,370 624,370 624,370 624,370 624,370 624,370 624,370 624,370 624,370 624,370 624,370 624,370 624,370 625,370 625,370 625,370 625,370 625,370 625,370 625,370 625,370 625,370 625,370 625,370 625,370 626,370 626,370 626,370 626,370 626,370 626,370 626,370 626,370 626,370 626,370 626,370 626,370 626,370 627,370 627,370 627,370 627,370 627,370 627,370 627,370 627,370 627,370 627,370 627,370 627,370 627,370 628,370 628,370 628,370 628,370 628,370 628,370 628,370 628,370 628,370 628,370 628,370 628,370 628,370 629,370 629,370 629,370 629,370 629,370 629,370 629,370 629,370 629,370 629,370 629,369 629,369 629,369 630,369 630,369 630,369 630,369 630,369 630,369 630,369 630,369 630,369 630,369 630,369 630,369 630,370 631,370 631,370 631,370 631,370 631,370 631,370 631,370 631,370 631,370 631,370 631,370 631,370 631,370 632,370 632,370 632,370 632,370 632,371 632,371 632,371 632,371 632,371 632,371 632,371 632,371 632,371 633,371 633,371 633,371 633,371 633,371 633,371 633,371 633,371 633,371 633,371 633,371 633,371 633,371 634,371 634,371 634,371 634,371 634,371 634,371 634,371 634,371 634,371 634,371 634,371 634,371 634,371 635,371 635,371 635,371 635,371 635,371 635,371 635,371 635,371 635,371 635,371 635,371 635,371 635,371 636,371 636,371 636,371 636,371 636,371 636,371 636,371 636,371 636,371 636,371 636,371 636,371 636,371 637,371 637,371 637,370 637,370 637,370 637,371 637,371 637,371 637,371 637,371 637,371 637,371 637,372 638,371 638,371 638,371 638,371 638,371 638,371 638,371 638,371 638,371 638,371 638,371 638,371 638,371 639,371 639,371 639,371 639,371 639,371 639,371 639,371 639,371 639,371 639,371 639,371 639,371 640,371 640,371 640,371 640,371 640,371 640,371 640,371 640,371 640,371 640,371 640,371 640,371 640,371 641,371 641,371 641,371 641,371 641,371 641,371 641,371 641,371 641,371 641,371 641,371 641,371 641,371 642,371 642,371 642,371 642,371 642,371 642,371 642,371 642,371 642,371 642,371 642,371 642,371 642,371 643,371 643,371 643,371 643,371 643,371 643,371 643,371 643,371 643,371 643,371 643,371 643,371 643,371 644,371 644,371 644,371 644,371 644,371 644,371 644,371 644,371 644,371 644,371 644,371 644,371 644,371 645,371 645,371 645,371 645,371 645,371 645,371 645,371 645,371 645,371 645,371 645,371 645,371 645,371 646,371 646,371 646,371 646,371 646,371 646,371 646,371 646,370 646,370 646,370 646,371 646,371 646,371 647,371 647,371 647,372 647,372 647,372 647,372 647,373 647,372 647,372 647,371 647,371 647,371 647,371 648,371 648,371 648,371 648,371 648,371 648,371 648,371 648,371 648,371 648,371 648,371 648,371 648,371 649,371 649,371 649,371 649,371 649,371 649,371 649,371 649,371 649,371 649,371 649,371 649,371 649,371 650,371 650,371 650,371 650,371 650,371 650,371 650,371 650,371 650,371 650,371 650,371 650,371 650,371 651,371 651,371 651,371 651,371 651,371 651,371 651,371 651,371 651,371 651,371 651,371 651,371 651,371 652,371 652,371 652,371 652,371 652,371 652,371 652,371 652,371 652,371 652,371 652,371 652,371 652,371 653,371 653,371 653,371 653,371 653,371 653,371 653,371 653,371 653,371 653,371 653,371 653,371 654,371 654,371 654,371 654,371 654,371 654,371 654,371 654,371 654,371 654,371 654,371 654,371 654,371 655,371 655,371 655,371 655,371 655,371 655,371 655,371 655,371 655,371 655,371 655,371 655,371 655,371 656,371 656,371 656,371 656,371 656,371 656,371 656,371 656,371 656,371 656,371 656,371 656,371 656,371 657,371 657,371 657,371 657,371 657,371 657,371 657,371 657,371 657,371 657,371 657,371 657,371 657,371 658,371 658,371 658,371 658,371 658,371 658,371 658,371 658,371 658,371 658,371 658,371 658,371 658,371 659,372 659,372 659,372 659,372 659,372 659,372 659,372 659,372 659,372 659,372 659,372 659,371 659,371 660,371 660,371 660,371 660,371 660,371 660,371 660,371 660,371 660,371 660,371 660,371 660,371 660,371 661,371 661,371 661,371 661,371 661,371 661,371 661,371 661,372 661,372 661,372 661,372 661,372 661,372 662,372 662,372 662,372 662,372 662,372 662,372 662,372 662,372 662,371 662,371 662,371 662,371 662,372 663,372 663,372 663,372 663,372 663,372 663,372 663,371 663,371 663,371 663,371 663,371 663,371 663,371 664,371 664,371 664,371 664,372 664,372 664,372 664,372 664,371 664,372 664,372 664,372 664,372 664,372 665,372 665,372 665,372 665,372 665,372 665,372 665,372 665,372 665,372 665,372 665,372 665,372 665,372 666,372 666,372 666,372 666,372 666,372 666,372 666,372 666,372 666,372 666,372 666,372 666,372 666,372 667,372 667,372 667,372 667,372 667,372 667,372 667,372 667,372 667,372 667,372 667,372 667,372 668,372 668,372 668,372 668,372 668,372 668,372 668,372 668,372 668,372 668,371 668,371 668,371 668,371 669,371 669,371 669,371 669,371 669,371 669,371 669,371 669,371 669,371 669,371 669,371 669,371 669,372 670,371 670,371 670,371 670,372 670,372 670,372 670,372 670,372 670,372 670,372 670,372 670,372 670,372 671,372 671,372 671,372 671,372 671,372 671,372 671,372 671,372 671,372 671,372 671,372 671,372 671,372 672,372 672,372 672,372 672,372 672,372 672,372 672,372 672,372 672,372 672,372 672,372 672,372 672,372 673,372 673,372 673,372 673,372 673,372 673,372 673,372 673,372 673,372 673,372 673,372 673,372 673,372 674,372 674,372 674,372 674,372 674,372 674,372 674,372 674,372 674,372 674,372 674,372 674,372 674,372 675,372 675,372 675,372 675,372 675,372 675,372 675,372 675,372 675,371 675,372 675,372 675,372 675,372 676,372 676,372 676,372 676,372 676,372 676,372 676,371 676,371 676,371 676,371 676,371 676,371 676,371 677,371 677,371 677,371 677,371 677,371 677,371 677,371 677,371 677,371 677,371 677,371 677,371 677,371 678,372 678,372 678,372 678,372 678,372 678,372 678,372 678,372 678,372 678,372 678,371 678,372 678,372 679,372 679,372 679,372 679,372 679,373 679,373 679,372 679,372 679,372 679,372 679,372 679,372 679,372 680,371 680,371 680,371 680,371 680,371 680,371 680,371 680,371 680,371 680,371 680,371 680,372 680,372 681,372 681,372 681,372 681,372 681,372 681,373 681,373 681,373 681,373 681,373 681,373 681,373 681,373 682,373 682,372 682,372 682,372 682,372 682,372 682,372 682,372 682,372 682,371 682,371 682,371 683,371 683,371 683,371 683,371 683,371 683,371 683,371 683,371 683,371 683,371 683,371 683,371 683,371 684,371 684,371 684,371 684,371 684,371 684,371 684,371 684,371 684,371 684,371 684,371 684,371 684,371 685,371 685,371 685,371 685,371 685,371 685,371 685,371 685,371 685,371 685,371 685,371 685,371 685,372 686,372 686,372 686,372 686,372 686,372 686,372 686,372 686,372 686,372 686,372 686,372 686,372 686,372 687,372 687,372 687,372 687,372 687,371 687,371 687,371 687,371 687,371 687,371 687,371 687,371 687,371 688,371 688,371 688,371 688,371 688,371 688,371 688,371 688,371 688,371 688,371 688,371 688,371 688,371 689,371 689,371 689,371 689,371 689,371 689,371 689,371 689,371 689,370 689,370 689,370 689,370 689,371 690,371 690,371 690,371 690,371 690,371 690,371 690,371 690,371 690,371 690,371 690,371 690,371 690,371 691,371 691,371 691,371 691,371 691,371 691,371 691,371 691,371 691,371 691,371 691,371 691,371 691,371 692,371 692,371 692,371 692,371 692,371 692,371 692,371 692,371 692,370 692,370 692,371 692,371 692,371 693,371 693,371 693,371 693,371 693,371 693,370 693,370 693,370 693,370 693,370 693,370 693,371 693,371 694,371 694,371 694,371 694,371 694,371 694,371 694,371 694,371 694,371 694,371 694,371 694,371 694,371 695,371 695,371 695,371 695,371 695,371 695,371 695,371 695,371 695,371 695,371 695,371 695,371 695,371 696,371 696,371 696,371 696,371 696,371 696,371 696,371 696,371 696,371 696,371 696,371 696,371 697,371 697,371 697,371 697,371 697,371 697,371 697,371 697,371 697,372 697,372 697,372 697,372 697,372 698,372 698,372 698,372 698,372 698,372 698,372 698,372 698,372 698,372 698,372 698,372 698,372 698,372 699,372 699,372 699,372 699,372 699,372 699,372 699,372 699,372 699,372 699,372 699,372 699,372 699,372 700,372 700,372 700,372 700,372 700,371 700,371 700,371 700,371 700,371 700,371 700,371 700,371 700,371 701,371 701,371 701,371 701,371 701,371 701,371 701,371 701,372 701,372 701,372 701,372 701,372 701,372 702,372 702,372 702,372 702,372 702,372 702,372 702,372 702,372 702,372 702,372 702,372 702,372 702,372 703,372 703,372 703,372 703,372 703,372 703,372 703,372 703,372 703,372 703,372 703,372 703,372 703,372 704,372 704,372 704,372 704,372 704,372 704,372 704,371 704,372 704,372 704,372 704,372 704,372 704,371 705,371 705,371 705,371 705,371 705,371 705,371 705,372 705,372 705,372 705,372 705,372 705,372 705,372 706,372 706,372 706,372 706,372 706,372 706,372 706,372 706,372 706,372 706,372 706,372 706,372 706,372 707,372 707,372 707,372 707,372 707,372 707,372 707,372 707,372 707,372 707,372 707,372 707,372 707,372 708,372 708,372 708,372 708,372 708,372 708,372 708,372 708,372 708,372 708,372 708,372 708,373 708,373 709,373 709,373 709,373 709,373 709,373 709,373 709,373 709,373 709,373 709,373 709,373 709,373 709,373 710,372 710,372 710,372 710,372 710,372 710,372 710,373 710,373 710,372 710,372 710,372 710,372 711,372 711,372 711,372 711,372 711,372 711,372 711,372 711,372 711,372 711,373 711,373 711,373 711,373 712,373 712,373 712,373 712,373 712,372 712,373 712,373 712,373 712,373 712,373 712,373 712,373 712,373 713,373 713,373 713,373 713,372 713,372 713,372 713,372 713,372 713,372 713,372 713,372 713,372 713,372 714,373 714,373 714,373 714,373 714,372 714,372 714,372 714,372 714,372 714,372 714,372 714,372 714,372 715,372 715,372 715,372 715,372 715,372 715,372 715,372 715,372 715,372 715,372 715,373 715,373 715,373 716,373 716,373 716,373 716,373 716,373 716,373 716,373 716,373 716,373 716,373 716,373 716,374 716,374 717,374 717,375 717,375 717,375 717,374 717,374 717,374 717,374 717,374 717,374 717,374 717,374 717,374 718,374 718,374 718,374 718,373 718,373 718,372 718,372 718,371 718,371 718,371 718,370 718,369 718,369 719,369 719,370 719,370 719,371 719,371 719,372 719,372 719,372 719,372 719,372 719,372 719,372 719,372 720,373 720,373 720,373 720,373 720,373 720,373 720,373 720,373 720,373 720,373 720,373 720,373 720,373 721,373 721,373 721,373 721,373 721,372 721,372 721,372 721,372 721,372 721,372 721,372 721,372 721,372 722,372 722,372 722,372 722,372 722,372 722,372 722,372 722,372 722,372 722,372 722,372 722,372 722,373 723,373 723,373 723,372 723,372 723,372 723,372 723,372 723,372 723,372 723,372 723,372 723,372 723,372 724,372 724,372 724,372 724,371 724,371 724,371 724,371 724,371 724,371 724,371 724,371 724,371 725,372 725,372 725,372 725,372 725,372 725,372 725,372 725,372 725,372 725,372 725,372 725,372 725,372 726,373 726,373 726,373 726,373 726,373 726,373 726,373 726,373 726,373 726,373 726,373 726,373 726,373 727,374 727,373 727,373 727,373 727,372 727,372 727,372 727,371 727,371 727,371 727,371 727,371 727,371 728,371 728,371 728,371 728,371 728,371 728,371 728,371 728,371 728,371 728,371 728,371 728,371 728,371 729,371 729,371 729,371 729,371 729,371 729,371 729,371 729,371 729,371 729,371 729,371 729,371 729,371 730,371 730,371 730,371 730,371 730,371 730,371 730,371 730,371 730,371 730,371 730,371 730,371 730,371 731,371 731,371 731,371 731,371 731,371 731,371 731,371 731,371 731,371 731,371 731,371 731,371 731,371 732,371 732,371 732,371 732,371 732,371 732,371 732,371 732,371 732,371 732,371 732,371 732,371 732,371 733,371 733,371 733,371 733,371 733,371 733,371 733,371 733,371 733,371 733,371 733,371 733,371 733,371 734,371 734,371 734,371 734,371 734,372 734,372 734,372 734,372 734,372 734,372 734,372 734,372 734,372 735,372 735,372 735,372 735,372 735,372 735,372 735,372 735,372 735,372 735,372 735,372 735,372 735,372 736,372 736,372 736,372 736,372 736,372 736,372 736,372 736,372 736,372 736,372 736,372 " vector-effect="non-scaling-stroke"></polyline>
</g></svg>