<?xml version="1.0" encoding="UTF-8" standalone="no"?><svg width="282.222mm" height="141.111mm" xmlns="http://www.w3.org/2000/svg" xmlns:xlink="http://www.w3.org/1999/xlink"  version="1.2" baseProfile="tiny"><g fill="none" stroke="#ff0000" stroke-linecap="round" stroke-linejoin="round" stroke-opacity="1" stroke-width="1.5" transform="matrix(1,0,0,1,0,0)">
<polyline fill="none" points="27,216 27,216 27,216 27,216 27,216 27,216 27,216 27,216 28,217 28,217 28,217 28,217 28,217 28,217 28,217 28,217 28,217 28,217 28,217 28,217 28,217 29,217 29,218 29,218 29,218 29,218 29,218 29,218 29,218 29,218 29,218 29,218 29,218 29,218 30,218 30,218 30,218 30,218 30,218 30,218 30,218 30,218 30,218 30,218 30,218 30,218 30,218 31,218 31,218 31,217 31,217 31,217 31,217 31,217 31,217 31,217 31,217 31,217 31,217 31,217 32,217 32,216 32,216 32,216 32,216 32,216 32,216 32,215 32,215 32,215 32,215 32,215 32,215 33,215 33,214 33,214 33,214 33,214 33,214 33,214 33,214 33,213 33,213 33,213 33,213 33,213 34,213 34,212 34,212 34,212 34,212 34,212 34,212 34,211 34,211 34,211 34,211 34,211 35,211 35,211 35,210 35,210 35,210 35,210 35,210 35,210 35,210 35,210 35,210 35,210 35,210 36,210 36,210 36,209 36,209 36,209 36,208 36,208 36,208 36,208 36,208 36,207 36,207 36,207 37,207 37,207 37,206 37,206 37,206 37,206 37,206 37,206 37,205 37,205 37,205 37,205 37,204 38,204 38,204 38,204 38,203 38,203 38,203 38,202 38,202 38,202 38,202 38,202 38,202 38,202 39,202 39,202 39,202 39,202 39,202 39,202 39,202 39,202 39,202 39,202 39,201 39,201 39,201 40,201 40,201 40,201 40,200 40,200 40,200 40,200 40,200 40,199 40,200 40,200 40,200 40,200 41,200 41,200 41,201 41,201 41,201 41,202 41,202 41,202 41,202 41,202 41,202 41,202 41,202 42,202 42,201 42,201 42,201 42,201 42,201 42,201 42,201 42,201 42,200 42,200 42,200 42,200 43,200 43,200 43,200 43,199 43,199 43,199 43,199 43,199 43,199 43,199 43,199 43,199 43,199 44,199 44,199 44,199 44,199 44,199 44,199 44,199 44,200 44,200 44,200 44,200 44,200 44,201 45,201 45,201 45,201 45,202 45,202 45,202 45,202 45,203 45,203 45,203 45,204 45,204 45,204 46,205 46,205 46,206 46,206 46,206 46,207 46,207 46,208 46,208 46,209 46,209 46,209 46,210 47,210 47,210 47,211 47,211 47,211 47,212 47,212 47,213 47,213 47,214 47,214 47,215 48,215 48,215 48,216 48,216 48,217 48,217 48,217 48,218 48,218 48,218 48,219 48,219 48,219 49,219 49,219 49,219 49,219 49,219 49,219 49,220 49,220 49,220 49,220 49,220 49,220 49,220 50,220 50,220 50,221 50,221 50,221 50,222 50,222 50,222 50,222 50,222 50,222 50,222 50,222 51,222 51,222 51,222 51,222 51,222 51,222 51,222 51,221 51,221 51,221 51,221 51,221 51,220 52,220 52,220 52,220 52,220 52,220 52,220 52,219 52,219 52,219 52,219 52,218 52,217 52,216 53,216 53,216 53,215 53,215 53,215 53,214 53,214 53,213 53,213 53,213 53,213 53,213 53,213 54,212 54,212 54,212 54,212 54,212 54,212 54,211 54,211 54,211 54,211 54,210 54,210 54,210 55,210 55,209 55,209 55,208 55,208 55,207 55,207 55,207 55,206 55,206 55,205 55,205 55,204 56,204 56,203 56,203 56,203 56,202 56,201 56,201 56,200 56,200 56,200 56,199 56,199 56,199 57,199 57,199 57,199 57,199 57,199 57,199 57,199 57,199 57,199 57,199 57,198 57,198 57,198 58,198 58,197 58,197 58,197 58,198 58,198 58,198 58,198 58,198 58,198 58,198 58,198 58,198 59,197 59,197 59,197 59,197 59,196 59,196 59,195 59,195 59,195 59,195 59,195 59,194 59,194 60,194 60,194 60,195 60,195 60,195 60,196 60,196 60,196 60,197 60,197 60,197 60,197 60,197 61,198 61,198 61,198 61,198 61,198 61,199 61,199 61,199 61,199 61,199 61,200 61,200 62,201 62,202 62,202 62,203 62,203 62,203 62,203 62,203 62,203 62,203 62,204 62,204 62,204 63,204 63,204 63,205 63,205 63,205 63,205 63,205 63,205 63,205 63,206 63,206 63,206 63,206 64,206 64,205 64,205 64,205 64,204 64,204 64,203 64,203 64,202 64,201 64,201 64,200 64,200 65,200 65,199 65,199 65,198 65,198 65,198 65,197 65,197 65,197 65,197 65,197 65,197 65,197 66,197 66,197 66,197 66,198 66,198 66,198 66,199 66,199 66,199 66,200 66,200 66,201 66,201 67,202 67,202 67,202 67,203 67,203 67,204 67,204 67,204 67,205 67,205 67,206 67,206 67,206 68,206 68,206 68,206 68,205 68,205 68,204 68,204 68,203 68,202 68,202 68,201 68,200 68,200 69,199 69,199 69,198 69,198 69,197 69,197 69,196 69,196 69,196 69,196 69,196 69,196 69,196 70,196 70,196 70,196 70,197 70,197 70,197 70,197 70,198 70,198 70,198 70,198 70,198 70,199 71,199 71,199 71,200 71,200 71,200 71,200 71,201 71,201 71,201 71,201 71,202 71,202 71,202 72,202 72,202 72,202 72,202 72,202 72,202 72,203 72,203 72,203 72,203 72,203 72,204 72,204 73,204 73,205 73,205 73,205 73,206 73,206 73,206 73,207 73,207 73,208 73,208 73,209 73,209 74,209 74,209 74,210 74,210 74,210 74,211 74,212 74,213 74,214 74,215 74,216 74,217 75,218 75,219 75,219 75,220 75,220 75,221 75,221 75,221 75,221 75,221 75,221 75,222 75,222 76,222 76,222 76,222 76,222 76,222 76,222 76,222 76,222 76,222 76,222 76,222 76,223 76,223 77,223 77,223 77,224 77,224 77,225 77,225 77,225 77,225 77,226 77,226 77,227 77,227 77,228 78,228 78,229 78,229 78,229 78,230 78,230 78,230 78,231 78,231 78,231 78,232 78,232 78,232 79,232 79,233 79,233 79,233 79,233 79,233 79,233 79,234 79,234 79,234 79,234 79,234 79,235 80,235 80,235 80,235 80,235 80,235 80,235 80,235 80,235 80,235 80,235 80,235 80,235 80,235 81,235 81,235 81,235 81,235 81,235 81,235 81,235 81,235 81,235 81,235 81,235 81,235 81,235 82,234 82,234 82,234 82,234 82,233 82,233 82,233 82,233 82,233 82,233 82,233 82,232 82,232 83,232 83,232 83,232 83,232 83,232 83,232 83,232 83,232 83,232 83,232 83,232 83,232 83,233 84,233 84,233 84,233 84,233 84,233 84,233 84,233 84,233 84,233 84,234 84,234 84,234 84,234 85,234 85,234 85,234 85,234 85,234 85,235 85,235 85,235 85,235 85,235 85,235 85,235 85,236 86,236 86,236 86,236 86,236 86,236 86,236 86,236 86,236 86,236 86,236 86,236 86,236 86,236 87,236 87,235 87,235 87,235 87,235 87,235 87,235 87,235 87,235 87,234 87,234 87,234 87,234 88,234 88,234 88,233 88,233 88,233 88,233 88,232 88,232 88,232 88,231 88,231 88,231 89,230 89,230 89,229 89,229 89,229 89,228 89,228 89,227 89,227 89,227 89,226 89,226 89,226 90,226 90,225 90,225 90,225 90,224 90,224 90,223 90,223 90,222 90,222 90,221 90,220 90,220 91,219 91,219 91,218 91,218 91,217 91,217 91,216 91,216 91,216 91,216 91,216 91,215 91,215 92,215 92,215 92,215 92,215 92,215 92,215 92,215 92,215 92,215 92,214 92,214 92,213 92,213 93,212 93,212 93,211 93,210 93,210 93,209 93,209 93,208 93,207 93,206 93,206 93,205 93,204 94,204 94,203 94,203 94,202 94,202 94,201 94,201 94,201 94,201 94,201 94,200 94,200 94,200 95,200 95,200 95,200 95,199 95,198 95,197 95,197 95,196 95,196 95,196 95,196 95,196 95,197 96,196 96,196 96,196 96,196 96,197 96,196 96,196 96,196 96,196 96,196 96,196 96,196 96,196 97,196 97,196 97,196 97,196 97,196 97,196 97,196 97,197 97,198 97,198 97,199 97,199 97,200 98,200 98,201 98,202 98,202 98,202 98,203 98,203 98,203 98,203 98,204 98,204 98,204 98,204 99,204 99,203 99,203 99,203 99,202 99,202 99,201 99,201 99,201 99,200 99,201 99,201 99,200 100,200 100,200 100,200 100,200 100,201 100,201 100,201 100,201 100,202 100,202 100,202 100,203 100,203 101,204 101,204 101,204 101,205 101,205 101,205 101,206 101,206 101,207 101,208 101,209 101,209 102,209 102,210 102,210 102,211 102,211 102,212 102,212 102,213 102,213 102,214 102,214 102,215 102,215 103,216 103,217 103,218 103,219 103,220 103,221 103,222 103,223 103,223 103,224 103,225 103,225 103,226 104,226 104,226 104,226 104,226 104,227 104,227 104,227 104,228 104,228 104,228 104,228 104,229 104,229 105,229 105,229 105,229 105,230 105,230 105,230 105,230 105,230 105,230 105,230 105,231 105,231 105,231 106,231 106,232 106,232 106,232 106,232 106,232 106,232 106,232 106,232 106,232 106,232 106,232 106,233 107,233 107,233 107,233 107,233 107,233 107,233 107,234 107,234 107,234 107,234 107,235 107,235 107,235 108,235 108,235 108,235 108,235 108,235 108,235 108,235 108,236 108,236 108,236 108,236 108,236 108,237 109,237 109,237 109,238 109,238 109,238 109,238 109,239 109,239 109,239 109,239 109,239 109,239 109,239 110,239 110,239 110,239 110,239 110,239 110,239 110,238 110,238 110,238 110,239 110,239 110,239 110,238 111,238 111,238 111,238 111,238 111,238 111,238 111,238 111,238 111,238 111,238 111,238 111,238 111,238 112,238 112,238 112,238 112,238 112,238 112,239 112,239 112,239 112,239 112,239 112,240 112,240 112,240 113,240 113,241 113,241 113,241 113,242 113,242 113,242 113,242 113,242 113,242 113,243 113,243 113,243 114,243 114,243 114,243 114,243 114,243 114,243 114,243 114,243 114,243 114,243 114,242 114,242 114,242 115,241 115,241 115,241 115,241 115,241 115,240 115,240 115,240 115,240 115,240 115,240 115,240 116,240 116,240 116,240 116,240 116,240 116,240 116,240 116,241 116,241 116,241 116,241 116,241 116,241 117,241 117,241 117,241 117,241 117,241 117,241 117,241 117,241 117,241 117,242 117,242 117,242 117,242 118,242 118,243 118,243 118,243 118,243 118,243 118,244 118,244 118,244 118,244 118,244 118,244 118,245 119,245 119,245 119,245 119,245 119,245 119,245 119,246 119,246 119,246 119,246 119,246 119,246 119,246 120,247 120,247 120,247 120,247 120,247 120,247 120,247 120,247 120,248 120,248 120,248 120,249 120,249 121,249 121,250 121,250 121,250 121,250 121,251 121,251 121,251 121,251 121,251 121,252 121,252 121,252 122,253 122,253 122,253 122,254 122,254 122,254 122,255 122,255 122,256 122,256 122,256 122,257 122,257 123,257 123,257 123,257 123,258 123,258 123,258 123,258 123,258 123,259 123,259 123,259 123,259 123,259 124,259 124,259 124,259 124,258 124,258 124,258 124,258 124,258 124,259 124,259 124,259 124,259 124,259 125,259 125,259 125,259 125,259 125,258 125,258 125,258 125,258 125,257 125,257 125,257 125,257 125,257 126,257 126,257 126,257 126,257 126,257 126,257 126,257 126,257 126,257 126,256 126,256 126,256 126,256 127,256 127,256 127,256 127,256 127,257 127,257 127,257 127,257 127,258 127,258 127,258 127,259 127,259 128,259 128,260 128,260 128,260 128,261 128,261 128,261 128,262 128,262 128,262 128,263 128,263 128,263 129,263 129,264 129,264 129,264 129,264 129,264 129,265 129,265 129,265 129,265 129,266 129,266 130,266 130,266 130,267 130,267 130,267 130,267 130,268 130,268 130,268 130,268 130,268 130,269 130,269 131,269 131,269 131,269 131,269 131,269 131,270 131,270 131,270 131,270 131,270 131,270 131,270 131,270 132,270 132,270 132,270 132,270 132,271 132,271 132,271 132,271 132,271 132,271 132,271 132,271 132,271 133,271 133,271 133,271 133,271 133,271 133,271 133,271 133,271 133,271 133,271 133,271 133,271 133,271 134,271 134,271 134,271 134,270 134,270 134,270 134,270 134,270 134,269 134,269 134,269 134,269 134,269 135,269 135,268 135,268 135,268 135,268 135,268 135,268 135,268 135,269 135,269 135,269 135,270 135,270 136,270 136,270 136,271 136,271 136,271 136,271 136,272 136,272 136,272 136,272 136,272 136,273 136,273 137,273 137,273 137,273 137,274 137,274 137,274 137,274 137,274 137,274 137,274 137,274 137,275 137,275 138,275 138,275 138,275 138,275 138,275 138,275 138,275 138,275 138,275 138,275 138,275 138,275 138,275 139,275 139,275 139,275 139,275 139,275 139,275 139,276 139,276 139,276 139,276 139,276 139,276 139,276 140,275 140,275 140,275 140,275 140,275 140,275 140,275 140,275 140,275 140,275 140,275 140,275 140,275 141,274 141,274 141,274 141,274 141,274 141,274 141,274 141,274 141,275 141,275 141,275 141,275 141,275 142,275 142,276 142,276 142,276 142,276 142,276 142,276 142,277 142,277 142,277 142,277 142,277 143,277 143,277 143,277 143,278 143,278 143,278 143,278 143,278 143,278 143,278 143,278 143,278 143,278 144,278 144,278 144,278 144,278 144,278 144,278 144,278 144,278 144,278 144,278 144,278 144,278 144,278 145,278 145,278 145,278 145,278 145,278 145,279 145,279 145,279 145,279 145,279 145,278 145,278 145,278 146,278 146,278 146,278 146,278 146,278 146,278 146,277 146,277 146,277 146,276 146,276 146,276 146,276 147,276 147,275 147,275 147,275 147,275 147,275 147,274 147,274 147,274 147,274 147,274 147,274 147,274 148,274 148,273 148,273 148,272 148,272 148,272 148,272 148,272 148,272 148,272 148,272 148,273 148,273 149,273 149,272 149,272 149,272 149,272 149,272 149,272 149,272 149,271 149,271 149,271 149,271 149,270 150,270 150,270 150,270 150,269 150,269 150,269 150,268 150,268 150,268 150,268 150,267 150,267 150,267 151,266 151,266 151,266 151,265 151,265 151,265 151,265 151,264 151,264 151,264 151,263 151,263 151,263 152,262 152,262 152,261 152,261 152,260 152,260 152,259 152,259 152,258 152,258 152,257 152,257 152,256 153,255 153,255 153,254 153,254 153,253 153,253 153,252 153,252 153,251 153,251 153,250 153,250 153,249 154,248 154,248 154,247 154,247 154,246 154,245 154,245 154,244 154,244 154,243 154,243 154,243 154,242 155,242 155,241 155,241 155,240 155,240 155,239 155,239 155,238 155,238 155,237 155,237 155,237 155,236 156,236 156,236 156,236 156,235 156,235 156,235 156,235 156,234 156,234 156,234 156,234 156,234 157,234 157,234 157,234 157,234 157,233 157,233 157,233 157,233 157,233 157,233 157,233 157,234 157,234 158,234 158,234 158,234 158,234 158,234 158,234 158,235 158,235 158,235 158,236 158,236 158,236 158,237 159,237 159,238 159,238 159,239 159,239 159,240 159,240 159,241 159,241 159,242 159,242 159,243 159,243 160,244 160,245 160,245 160,246 160,246 160,247 160,248 160,249 160,249 160,250 160,251 160,251 160,252 161,252 161,252 161,252 161,252 161,252 161,252 161,253 161,253 161,253 161,254 161,254 161,255 161,255 162,256 162,257 162,257 162,257 162,257 162,257 162,257 162,256 162,256 162,255 162,255 162,254 162,254 163,254 163,253 163,253 163,253 163,252 163,252 163,252 163,252 163,251 163,251 163,251 163,251 163,250 164,250 164,250 164,249 164,249 164,249 164,248 164,249 164,249 164,249 164,249 164,250 164,250 164,250 165,250 165,251 165,251 165,251 165,252 165,252 165,252 165,253 165,253 165,253 165,253 165,253 165,253 166,253 166,253 166,253 166,253 166,252 166,252 166,252 166,252 166,252 166,252 166,252 166,251 166,251 167,251 167,251 167,251 167,250 167,250 167,250 167,249 167,249 167,249 167,249 167,249 167,248 167,248 168,248 168,248 168,248 168,247 168,247 168,247 168,247 168,248 168,248 168,248 168,248 168,249 168,249 169,250 169,250 169,251 169,251 169,252 169,253 169,253 169,254 169,254 169,255 169,255 169,255 170,256 170,257 170,257 170,257 170,258 170,258 170,258 170,259 170,260 170,260 170,260 170,260 170,261 171,261 171,261 171,261 171,261 171,261 171,262 171,262 171,261 171,261 171,261 171,261 171,261 171,262 172,262 172,262 172,262 172,261 172,261 172,261 172,261 172,261 172,260 172,260 172,260 172,259 172,259 173,258 173,258 173,258 173,257 173,257 173,257 173,257 173,256 173,256 173,257 173,257 173,257 173,257 174,257 174,257 174,258 174,258 174,258 174,258 174,259 174,259 174,259 174,259 174,259 174,260 174,260 175,260 175,260 175,260 175,260 175,260 175,260 175,260 175,260 175,260 175,260 175,260 175,260 175,259 176,259 176,259 176,259 176,259 176,259 176,259 176,258 176,258 176,258 176,258 176,258 176,258 176,257 177,257 177,257 177,257 177,257 177,257 177,256 177,256 177,256 177,256 177,256 177,256 177,256 177,255 178,255 178,255 178,255 178,255 178,255 178,255 178,256 178,256 178,256 178,256 178,256 178,256 178,257 179,257 179,257 179,257 179,258 179,258 179,258 179,258 179,259 179,259 179,259 179,259 179,260 179,260 180,260 180,260 180,260 180,260 180,261 180,261 180,261 180,261 180,262 180,262 180,262 180,263 180,263 181,263 181,263 181,264 181,264 181,264 181,264 181,265 181,265 181,265 181,266 181,266 181,266 181,266 182,267 182,267 182,267 182,267 182,267 182,268 182,268 182,268 182,268 182,269 182,269 182,269 182,269 183,269 183,270 183,270 183,270 183,270 183,271 183,271 183,271 183,271 183,271 183,271 183,271 184,271 184,271 184,271 184,272 184,272 184,272 184,272 184,272 184,272 184,273 184,273 184,273 184,273 185,273 185,273 185,273 185,273 185,273 185,273 185,273 185,274 185,274 185,274 185,274 185,274 185,274 186,274 186,275 186,275 186,275 186,275 186,275 186,275 186,275 186,275 186,275 186,275 186,275 186,276 187,276 187,276 187,276 187,276 187,276 187,276 187,276 187,276 187,276 187,276 187,276 187,276 187,276 188,277 188,277 188,277 188,277 188,277 188,277 188,277 188,277 188,277 188,277 188,277 188,277 188,277 189,278 189,278 189,278 189,278 189,278 189,278 189,278 189,278 189,278 189,278 189,278 189,278 189,278 190,279 190,279 190,279 190,279 190,279 190,279 190,280 190,280 190,280 190,280 190,280 190,280 190,281 191,281 191,281 191,281 191,281 191,281 191,281 191,281 191,281 191,281 191,281 191,282 191,282 191,282 192,282 192,282 192,283 192,283 192,283 192,283 192,283 192,283 192,283 192,284 192,284 192,284 192,284 193,284 193,284 193,285 193,285 193,285 193,285 193,285 193,285 193,285 193,285 193,286 193,286 193,286 194,286 194,286 194,286 194,286 194,286 194,286 194,286 194,286 194,286 194,287 194,287 194,287 194,287 195,287 195,287 195,287 195,287 195,287 195,287 195,287 195,288 195,288 195,288 195,288 195,288 195,288 196,288 196,288 196,288 196,288 196,288 196,288 196,288 196,288 196,288 196,288 196,288 196,288 197,288 197,289 197,289 197,289 197,288 197,288 197,288 197,288 197,288 197,288 197,288 197,288 197,289 198,289 198,288 198,288 198,288 198,288 198,288 198,287 198,287 198,287 198,287 198,286 198,286 198,286 199,286 199,286 199,285 199,285 199,285 199,285 199,284 199,284 199,284 199,284 199,284 199,284 199,284 200,284 200,284 200,284 200,283 200,283 200,283 200,283 200,283 200,283 200,283 200,283 200,282 200,282 201,282 201,282 201,282 201,281 201,281 201,281 201,281 201,281 201,281 201,280 201,280 201,280 201,280 202,280 202,280 202,279 202,279 202,279 202,279 202,279 202,278 202,278 202,278 202,278 202,278 202,277 203,277 203,277 203,277 203,277 203,277 203,276 203,276 203,276 203,276 203,275 203,275 203,275 203,275 204,275 204,274 204,274 204,274 204,274 204,274 204,274 204,273 204,273 204,273 204,272 204,272 204,272 205,272 205,272 205,271 205,271 205,271 205,271 205,271 205,271 205,270 205,270 205,270 205,270 205,270 206,270 206,269 206,269 206,269 206,269 206,269 206,269 206,269 206,269 206,268 206,268 206,268 206,268 207,268 207,268 207,268 207,267 207,267 207,267 207,267 207,267 207,267 207,267 207,267 207,267 207,267 208,266 208,266 208,266 208,266 208,266 208,266 208,266 208,266 208,266 208,266 208,266 208,266 208,266 209,266 209,266 209,266 209,266 209,266 209,266 209,266 209,266 209,266 209,267 209,267 209,267 209,267 210,267 210,267 210,267 210,267 210,267 210,267 210,267 210,268 210,268 210,268 210,268 210,268 211,269 211,269 211,269 211,269 211,269 211,269 211,269 211,269 211,270 211,270 211,270 211,270 211,270 212,270 212,270 212,270 212,271 212,271 212,271 212,271 212,271 212,271 212,271 212,271 212,272 212,272 213,272 213,272 213,272 213,272 213,272 213,273 213,273 213,273 213,273 213,273 213,273 213,273 213,273 214,273 214,273 214,273 214,273 214,273 214,273 214,273 214,273 214,273 214,273 214,272 214,272 214,272 215,272 215,272 215,271 215,271 215,271 215,271 215,271 215,270 215,270 215,269 215,269 215,269 215,269 216,269 216,268 216,268 216,268 216,268 216,267 216,267 216,267 216,267 216,266 216,266 216,266 216,266 217,266 217,266 217,265 217,265 217,265 217,265 217,265 217,264 217,264 217,264 217,264 217,264 217,264 218,264 218,264 218,263 218,263 218,263 218,263 218,263 218,263 218,263 218,263 218,263 218,262 218,262 219,262 219,262 219,262 219,262 219,262 219,262 219,262 219,262 219,262 219,262 219,262 219,262 219,262 220,262 220,262 220,262 220,262 220,261 220,261 220,261 220,261 220,261 220,261 220,261 220,261 220,261 221,261 221,261 221,261 221,261 221,261 221,260 221,260 221,260 221,260 221,260 221,260 221,260 221,260 222,260 222,260 222,260 222,261 222,261 222,261 222,261 222,261 222,261 222,261 222,261 222,261 222,260 223,260 223,260 223,260 223,260 223,260 223,260 223,260 223,260 223,260 223,260 223,260 223,260 224,259 224,259 224,259 224,259 224,259 224,259 224,260 224,260 224,260 224,261 224,261 224,262 224,262 225,263 225,263 225,264 225,264 225,264 225,265 225,265 225,265 225,266 225,266 225,267 225,267 225,267 226,267 226,268 226,268 226,268 226,268 226,269 226,269 226,269 226,269 226,269 226,270 226,270 226,270 227,270 227,270 227,271 227,271 227,271 227,271 227,272 227,272 227,272 227,272 227,273 227,273 227,273 228,273 228,273 228,273 228,273 228,273 228,273 228,273 228,273 228,273 228,273 228,273 228,273 228,273 229,272 229,272 229,272 229,272 229,272 229,272 229,272 229,271 229,271 229,271 229,271 229,271 229,270 230,270 230,270 230,270 230,269 230,269 230,269 230,269 230,269 230,269 230,269 230,269 230,269 230,269 231,269 231,269 231,269 231,269 231,270 231,270 231,270 231,270 231,270 231,270 231,270 231,270 231,270 232,271 232,271 232,271 232,271 232,271 232,271 232,271 232,272 232,272 232,272 232,272 232,272 232,272 233,273 233,273 233,273 233,273 233,273 233,273 233,274 233,274 233,274 233,274 233,274 233,274 233,274 234,275 234,275 234,275 234,275 234,275 234,275 234,275 234,276 234,276 234,276 234,276 234,276 234,276 235,277 235,277 235,277 235,277 235,277 235,277 235,277 235,277 235,277 235,277 235,277 235,277 235,277 236,277 236,277 236,277 236,277 236,278 236,278 236,278 236,278 236,278 236,278 236,278 236,278 236,278 237,278 237,278 237,278 237,278 237,278 237,278 237,278 237,278 237,278 237,278 237,278 237,278 238,278 238,278 238,278 238,278 238,278 238,278 238,278 238,278 238,278 238,278 238,278 238,278 238,278 239,278 239,278 239,278 239,278 239,278 239,278 239,278 239,278 239,278 239,278 239,278 239,278 239,278 240,278 240,278 240,278 240,278 240,278 240,278 240,278 240,278 240,277 240,277 240,277 240,277 240,277 241,277 241,277 241,277 241,277 241,277 241,277 241,277 241,277 241,277 241,276 241,276 241,276 241,276 242,276 242,276 242,275 242,275 242,275 242,275 242,275 242,275 242,275 242,274 242,274 242,274 242,274 243,274 243,274 243,274 243,273 243,273 243,273 243,273 243,272 243,272 243,272 243,272 243,272 243,272 244,272 244,272 244,272 244,272 244,272 244,272 244,272 244,272 244,272 244,272 244,272 244,272 244,272 245,272 245,272 245,272 245,272 245,272 245,271 245,271 245,271 245,271 245,271 245,271 245,271 245,271 246,271 246,271 246,271 246,271 246,271 246,271 246,271 246,271 246,271 246,271 246,271 246,271 246,271 247,271 247,271 247,271 247,271 247,271 247,272 247,272 247,272 247,272 247,272 247,272 247,272 247,272 248,272 248,272 248,273 248,273 248,273 248,273 248,273 248,273 248,273 248,273 248,274 248,274 248,274 249,274 249,274 249,274 249,275 249,275 249,275 249,275 249,275 249,275 249,275 249,275 249,275 249,275 250,276 250,276 250,276 250,276 250,276 250,276 250,276 250,276 250,276 250,276 250,276 250,276 251,276 251,276 251,276 251,276 251,276 251,276 251,276 251,276 251,276 251,276 251,276 251,276 251,276 252,276 252,276 252,276 252,276 252,276 252,276 252,276 252,276 252,276 252,276 252,276 252,276 252,276 253,277 253,277 253,277 253,277 253,277 253,277 253,277 253,278 253,278 253,278 253,279 253,279 253,279 254,280 254,280 254,280 254,281 254,281 254,282 254,282 254,283 254,283 254,284 254,284 254,284 254,285 255,285 255,285 255,286 255,286 255,287 255,287 255,287 255,288 255,288 255,288 255,288 255,288 255,289 256,289 256,289 256,290 256,290 256,290 256,291 256,291 256,291 256,291 256,292 256,292 256,292 256,292 257,292 257,292 257,293 257,293 257,293 257,293 257,293 257,293 257,294 257,294 257,294 257,294 257,294 258,294 258,295 258,295 258,295 258,295 258,295 258,295 258,295 258,296 258,296 258,296 258,296 258,296 259,296 259,296 259,297 259,297 259,297 259,297 259,297 259,297 259,297 259,297 259,297 259,297 259,297 260,297 260,298 260,298 260,298 260,298 260,298 260,298 260,298 260,298 260,298 260,298 260,298 260,298 261,298 261,298 261,298 261,298 261,298 261,298 261,298 261,298 261,298 261,298 261,297 261,297 261,297 262,298 262,298 262,298 262,298 262,298 262,298 262,298 262,298 262,298 262,298 262,298 262,298 262,298 263,298 263,298 263,298 263,299 263,299 263,299 263,299 263,299 263,299 263,299 263,299 263,299 263,299 264,299 264,299 264,299 264,299 264,299 264,299 264,299 264,299 264,299 264,299 264,299 264,299 265,299 265,299 265,299 265,299 265,299 265,299 265,299 265,299 265,299 265,299 265,299 265,299 265,299 266,299 266,299 266,299 266,299 266,299 266,299 266,299 266,299 266,299 266,300 266,300 266,300 266,300 267,301 267,301 267,301 267,301 267,302 267,302 267,302 267,302 267,302 267,303 267,303 267,303 267,303 268,303 268,303 268,303 268,303 268,303 268,303 268,302 268,302 268,302 268,303 268,303 268,303 268,303 269,303 269,304 269,304 269,304 269,305 269,305 269,306 269,306 269,306 269,307 269,307 269,307 269,308 270,308 270,308 270,309 270,309 270,309 270,309 270,309 270,309 270,309 270,310 270,310 270,310 270,310 271,310 271,310 271,310 271,310 271,310 271,310 271,310 271,309 271,309 271,309 271,309 271,309 271,309 272,309 272,308 272,308 272,308 272,308 272,308 272,308 272,308 272,308 272,307 272,307 272,307 272,307 273,307 273,307 273,307 273,306 273,306 273,306 273,306 273,306 273,306 273,306 273,306 273,306 273,306 274,306 274,305 274,305 274,305 274,305 274,305 274,305 274,304 274,304 274,304 274,304 274,304 274,303 275,302 275,301 275,300 275,299 275,298 275,297 275,296 275,296 275,295 275,295 275,294 275,294 275,294 276,294 276,293 276,293 276,293 276,292 276,292 276,291 276,290 276,289 276,288 276,288 276,288 276,288 277,287 277,287 277,287 277,287 277,287 277,287 277,287 277,287 277,287 277,288 277,288 277,288 278,288 278,288 278,289 278,289 278,289 278,289 278,289 278,289 278,289 278,290 278,290 278,290 278,290 279,290 279,290 279,291 279,291 279,291 279,292 279,292 279,292 279,293 279,293 279,294 279,294 279,296 280,297 280,298 280,299 280,300 280,301 280,302 280,303 280,304 280,305 280,306 280,308 280,309 280,311 281,313 281,314 281,315 281,316 281,317 281,319 281,321 281,322 281,324 281,324 281,325 281,326 281,326 282,325 282,325 282,324 282,322 282,320 282,319 282,318 282,317 282,316 282,314 282,313 282,312 282,311 283,310 283,309 283,309 283,308 283,307 283,307 283,306 283,306 283,306 283,305 283,305 283,305 283,305 284,306 284,306 284,306 284,306 284,307 284,307 284,307 284,307 284,308 284,308 284,308 284,309 284,309 285,310 285,311 285,311 285,312 285,312 285,313 285,314 285,314 285,315 285,316 285,316 285,317 285,318 286,319 286,320 286,320 286,320 286,320 286,321 286,321 286,321 286,321 286,322 286,323 286,323 286,324 287,326 287,328 287,330 287,331 287,332 287,332 287,333 287,333 287,333 287,333 287,334 287,333 287,332 288,332 288,331 288,330 288,329 288,328 288,327 288,326 288,325 288,324 288,323 288,323 288,322 288,321 289,320 289,319 289,318 289,318 289,317 289,316 289,315 289,314 289,314 289,313 289,313 289,312 289,312 290,312 290,311 290,311 290,311 290,310 290,310 290,310 290,309 290,309 290,309 290,309 290,308 290,308 291,308 291,308 291,308 291,307 291,307 291,307 291,307 291,307 291,307 291,307 291,307 291,307 292,307 292,307 292,307 292,307 292,307 292,307 292,307 292,307 292,307 292,308 292,308 292,308 292,308 293,308 293,308 293,309 293,309 293,309 293,310 293,310 293,311 293,311 293,311 293,312 293,313 293,313 294,314 294,314 294,315 294,315 294,316 294,316 294,317 294,318 294,318 294,319 294,319 294,319 294,319 295,320 295,320 295,320 295,320 295,320 295,320 295,320 295,320 295,320 295,320 295,320 295,321 295,321 296,321 296,320 296,320 296,320 296,321 296,321 296,320 296,320 296,320 296,320 296,320 296,320 296,320 297,319 297,319 297,319 297,319 297,319 297,319 297,319 297,319 297,318 297,318 297,318 297,318 297,318 298,318 298,317 298,317 298,317 298,317 298,317 298,317 298,317 298,317 298,317 298,317 298,317 298,317 299,316 299,316 299,316 299,316 299,316 299,316 299,316 299,316 299,315 299,315 299,315 299,314 299,314 300,313 300,313 300,312 300,311 300,310 300,310 300,309 300,308 300,307 300,306 300,305 300,305 300,304 301,303 301,302 301,302 301,302 301,301 301,301 301,301 301,301 301,301 301,300 301,300 301,300 301,300 302,300 302,300 302,300 302,300 302,299 302,299 302,299 302,299 302,299 302,299 302,299 302,299 302,299 303,299 303,299 303,299 303,298 303,298 303,299 303,300 303,301 303,301 303,302 303,302 303,303 303,303 304,303 304,304 304,304 304,304 304,305 304,305 304,305 304,306 304,306 304,306 304,306 304,307 304,307 305,307 305,308 305,308 305,308 305,309 305,309 305,309 305,310 305,310 305,310 305,311 305,311 306,311 306,312 306,312 306,312 306,312 306,313 306,313 306,313 306,314 306,314 306,315 306,315 306,315 307,315 307,316 307,316 307,316 307,316 307,317 307,317 307,317 307,317 307,317 307,318 307,318 307,318 308,318 308,318 308,318 308,318 308,318 308,317 308,317 308,317 308,316 308,316 308,316 308,315 308,315 309,315 309,315 309,315 309,315 309,314 309,314 309,314 309,314 309,314 309,314 309,314 309,314 309,314 310,314 310,314 310,314 310,313 310,313 310,313 310,313 310,313 310,313 310,313 310,313 310,313 310,313 311,313 311,313 311,313 311,313 311,313 311,313 311,313 311,314 311,314 311,314 311,314 311,314 311,314 312,314 312,314 312,314 312,314 312,314 312,314 312,314 312,315 312,315 312,315 312,315 312,315 312,315 313,315 313,316 313,316 313,316 313,316 313,316 313,316 313,316 313,317 313,317 313,317 313,317 313,316 314,317 314,317 314,317 314,317 314,317 314,317 314,317 314,317 314,317 314,317 314,317 314,317 314,317 315,317 315,317 315,317 315,317 315,317 315,317 315,317 315,316 315,316 315,316 315,316 315,316 315,316 316,316 316,316 316,316 316,316 316,316 316,315 316,315 316,315 316,315 316,315 316,315 316,315 316,315 317,315 317,314 317,314 317,314 317,314 317,314 317,314 317,314 317,313 317,313 317,313 317,313 317,313 318,313 318,313 318,313 318,313 318,312 318,312 318,312 318,312 318,312 318,312 318,312 318,312 319,312 319,312 319,312 319,312 319,312 319,312 319,312 319,312 319,312 319,311 319,311 319,311 319,311 320,311 320,311 320,311 320,311 320,311 320,311 320,311 320,311 320,311 320,311 320,311 320,311 320,311 321,311 321,311 321,311 321,311 321,311 321,311 321,311 321,311 321,311 321,311 321,311 321,311 321,311 322,311 322,311 322,311 322,311 322,311 322,310 322,310 322,310 322,310 322,310 322,310 322,310 322,310 323,309 323,309 323,309 323,309 323,309 323,309 323,309 323,308 323,308 323,308 323,308 323,308 323,308 324,308 324,308 324,308 324,308 324,308 324,308 324,308 324,308 324,308 324,308 324,308 324,308 324,308 325,308 325,308 325,307 325,307 325,307 325,307 325,307 325,307 325,307 325,307 325,306 325,306 325,306 326,306 326,306 326,306 326,306 326,306 326,305 326,305 326,305 326,305 326,305 326,305 326,305 326,305 327,305 327,304 327,304 327,305 327,305 327,304 327,305 327,305 327,305 327,305 327,305 327,305 327,306 328,306 328,306 328,306 328,306 328,306 328,307 328,307 328,307 328,307 328,307 328,307 328,307 328,308 329,308 329,308 329,308 329,308 329,308 329,308 329,308 329,309 329,309 329,309 329,309 329,309 329,309 330,309 330,309 330,309 330,310 330,310 330,310 330,310 330,310 330,310 330,310 330,310 330,310 330,310 331,310 331,310 331,310 331,310 331,310 331,310 331,310 331,310 331,310 331,310 331,310 331,310 331,310 332,310 332,310 332,310 332,310 332,310 332,310 332,310 332,310 332,310 332,310 332,310 332,310 333,310 333,310 333,310 333,310 333,310 333,310 333,310 333,310 333,310 333,310 333,310 333,310 333,310 334,310 334,310 334,310 334,310 334,310 334,309 334,309 334,309 334,309 334,309 334,309 334,309 334,309 335,309 335,309 335,309 335,309 335,309 335,309 335,309 335,309 335,309 335,309 335,309 335,310 335,310 336,310 336,310 336,310 336,310 336,311 336,311 336,311 336,311 336,311 336,312 336,312 336,312 336,312 337,313 337,313 337,313 337,314 337,314 337,314 337,314 337,315 337,315 337,315 337,315 337,316 337,316 338,316 338,317 338,317 338,317 338,317 338,318 338,318 338,318 338,318 338,318 338,319 338,319 338,319 339,319 339,319 339,319 339,319 339,320 339,320 339,320 339,320 339,320 339,320 339,320 339,320 339,320 340,320 340,320 340,321 340,321 340,321 340,321 340,321 340,321 340,321 340,321 340,321 340,321 340,321 341,321 341,321 341,321 341,321 341,321 341,321 341,321 341,321 341,321 341,320 341,320 341,320 341,320 342,320 342,320 342,320 342,320 342,320 342,320 342,320 342,320 342,319 342,319 342,319 342,319 342,319 343,319 343,319 343,319 343,318 343,318 343,318 343,318 343,317 343,317 343,317 343,317 343,317 343,317 344,317 344,317 344,317 344,317 344,318 344,318 344,318 344,318 344,318 344,319 344,319 344,319 344,319 345,319 345,319 345,319 345,319 345,319 345,319 345,319 345,319 345,319 345,319 345,319 345,319 346,319 346,319 346,319 346,319 346,319 346,319 346,319 346,318 346,318 346,318 346,318 346,318 346,318 347,318 347,318 347,318 347,318 347,318 347,318 347,318 347,318 347,318 347,319 347,319 347,319 347,319 348,319 348,319 348,319 348,320 348,320 348,320 348,320 348,320 348,320 348,321 348,321 348,321 348,321 349,321 349,322 349,322 349,322 349,322 349,323 349,323 349,323 349,323 349,323 349,324 349,324 349,324 350,324 350,324 350,324 350,325 350,325 350,325 350,325 350,325 350,325 350,325 350,325 350,325 350,325 351,326 351,326 351,326 351,326 351,326 351,326 351,326 351,326 351,326 351,326 351,326 351,326 351,326 352,327 352,327 352,327 352,327 352,327 352,328 352,328 352,328 352,328 352,328 352,328 352,329 352,329 353,329 353,329 353,329 353,329 353,329 353,329 353,329 353,329 353,329 353,329 353,329 353,329 353,329 354,329 354,329 354,329 354,329 354,329 354,329 354,329 354,329 354,329 354,329 354,329 354,329 354,329 355,329 355,329 355,329 355,329 355,329 355,329 355,329 355,329 355,329 355,329 355,329 355,329 355,329 356,329 356,329 356,329 356,329 356,329 356,329 356,329 356,329 356,329 356,329 356,329 356,329 356,329 357,328 357,328 357,328 357,328 357,328 357,328 357,328 357,328 357,328 357,328 357,328 357,328 357,328 358,327 358,327 358,327 358,327 358,327 358,327 358,327 358,327 358,327 358,327 358,327 358,327 358,327 359,327 359,327 359,327 359,327 359,327 359,327 359,327 359,327 359,327 359,327 359,327 359,327 360,327 360,327 360,327 360,327 360,327 360,327 360,327 360,327 360,327 360,327 360,327 360,327 360,327 361,327 361,327 361,327 361,327 361,327 361,327 361,327 361,327 361,328 361,328 361,328 361,328 361,328 362,328 362,328 362,328 362,328 362,329 362,329 362,329 362,330 362,330 362,331 362,331 362,332 362,333 363,333 363,334 363,334 363,335 363,335 363,336 363,336 363,337 363,337 363,337 363,337 363,337 363,337 364,337 364,337 364,337 364,337 364,337 364,337 364,338 364,338 364,338 364,338 364,338 364,339 364,339 365,339 365,340 365,340 365,340 365,341 365,341 365,342 365,342 365,343 365,343 365,344 365,345 365,345 366,346 366,347 366,348 366,348 366,348 366,348 366,348 366,347 366,347 366,347 366,347 366,347 366,347 367,346 367,346 367,346 367,346 367,345 367,345 367,345 367,344 367,344 367,343 367,343 367,342 367,342 368,342 368,341 368,341 368,341 368,340 368,340 368,339 368,339 368,339 368,339 368,338 368,338 368,338 369,337 369,337 369,337 369,337 369,337 369,337 369,336 369,336 369,336 369,336 369,336 369,335 369,335 370,335 370,335 370,335 370,335 370,335 370,335 370,335 370,335 370,335 370,335 370,335 370,335 370,335 371,335 371,335 371,335 371,335 371,336 371,336 371,336 371,336 371,336 371,336 371,336 371,336 371,336 372,336 372,336 372,336 372,336 372,336 372,336 372,336 372,336 372,336 372,336 372,336 372,336 373,336 373,336 373,336 373,336 373,336 373,336 373,336 373,336 373,336 373,336 373,336 373,336 373,336 374,336 374,336 374,336 374,336 374,336 374,336 374,336 374,336 374,337 374,337 374,337 374,337 374,337 375,337 375,337 375,337 375,337 375,337 375,337 375,337 375,337 375,337 375,337 375,337 375,337 375,337 376,337 376,337 376,337 376,337 376,337 376,337 376,337 376,337 376,337 376,337 376,337 376,337 376,337 377,337 377,337 377,337 377,337 377,337 377,337 377,336 377,336 377,336 377,336 377,336 377,336 377,336 378,336 378,336 378,336 378,336 378,336 378,336 378,336 378,336 378,336 378,336 378,336 378,336 378,336 379,336 379,336 379,336 379,336 379,336 379,335 379,335 379,335 379,335 379,335 379,335 379,335 379,335 380,335 380,335 380,335 380,335 380,335 380,335 380,335 380,335 380,335 380,335 380,335 380,335 380,335 381,335 381,335 381,335 381,335 381,335 381,335 381,335 381,335 381,335 381,335 381,335 381,335 381,335 382,335 382,335 382,335 382,335 382,335 382,335 382,335 382,335 382,335 382,335 382,335 382,335 382,335 383,335 383,335 383,335 383,335 383,335 383,335 383,335 383,335 383,335 383,335 383,335 383,335 383,335 384,335 384,335 384,335 384,335 384,335 384,335 384,335 384,335 384,335 384,335 384,335 384,335 384,335 385,335 385,335 385,335 385,335 385,335 385,335 385,335 385,335 385,335 385,335 385,335 385,335 385,335 386,335 386,335 386,335 386,335 386,335 386,335 386,335 386,335 386,335 386,335 386,335 386,335 387,335 387,335 387,335 387,335 387,336 387,336 387,336 387,336 387,336 387,336 387,336 387,336 387,336 388,336 388,336 388,336 388,336 388,336 388,336 388,336 388,336 388,336 388,336 388,336 388,336 388,336 389,336 389,336 389,336 389,336 389,336 389,336 389,336 389,336 389,337 389,337 389,337 389,337 389,337 390,337 390,337 390,337 390,337 390,337 390,337 390,337 390,337 390,337 390,337 390,337 390,338 390,338 391,338 391,338 391,338 391,338 391,338 391,338 391,338 391,338 391,338 391,338 391,338 391,338 391,338 392,338 392,338 392,338 392,338 392,339 392,339 392,339 392,339 392,339 392,339 392,339 392,339 392,339 393,339 393,339 393,339 393,339 393,339 393,339 393,339 393,340 393,340 393,340 393,340 393,340 393,340 394,340 394,340 394,340 394,340 394,340 394,340 394,340 394,341 394,341 394,341 394,341 394,341 394,341 395,341 395,341 395,341 395,341 395,341 395,341 395,341 395,341 395,341 395,341 395,341 395,341 395,341 396,341 396,341 396,341 396,341 396,341 396,341 396,341 396,341 396,341 396,341 396,341 396,341 396,341 397,341 397,341 397,341 397,341 397,341 397,341 397,340 397,340 397,340 397,340 397,340 397,340 397,340 398,340 398,340 398,340 398,340 398,340 398,340 398,340 398,341 398,341 398,341 398,341 398,341 398,341 399,341 399,341 399,341 399,341 399,341 399,341 399,342 399,342 399,342 399,342 399,342 399,342 400,342 400,342 400,342 400,342 400,342 400,342 400,342 400,342 400,342 400,342 400,342 400,342 400,342 401,342 401,342 401,342 401,342 401,342 401,342 401,342 401,342 401,342 401,342 401,342 401,342 401,342 402,341 402,341 402,341 402,341 402,341 402,341 402,341 402,341 402,341 402,341 402,341 402,341 402,341 403,341 403,341 403,341 403,341 403,341 403,341 403,341 403,341 403,341 403,341 403,341 403,341 403,341 404,341 404,341 404,341 404,340 404,340 404,340 404,340 404,341 404,341 404,341 404,342 404,342 404,342 405,342 405,342 405,342 405,342 405,342 405,343 405,343 405,343 405,343 405,343 405,343 405,343 405,343 406,343 406,343 406,343 406,343 406,343 406,343 406,343 406,343 406,343 406,343 406,343 406,343 406,343 407,343 407,343 407,343 407,343 407,343 407,343 407,343 407,343 407,343 407,343 407,343 407,343 407,343 408,343 408,343 408,343 408,343 408,343 408,343 408,342 408,342 408,342 408,342 408,342 408,342 408,342 409,342 409,342 409,342 409,342 409,342 409,342 409,342 409,342 409,342 409,342 409,342 409,342 409,342 410,342 410,342 410,342 410,342 410,342 410,342 410,342 410,342 410,342 410,342 410,342 410,342 410,342 411,342 411,342 411,342 411,342 411,342 411,342 411,342 411,342 411,342 411,342 411,342 411,342 411,342 412,342 412,342 412,342 412,342 412,342 412,342 412,342 412,342 412,342 412,342 412,342 412,342 412,342 413,342 413,342 413,342 413,342 413,342 413,343 413,343 413,343 413,343 413,343 413,343 413,343 414,343 414,343 414,343 414,343 414,343 414,343 414,344 414,344 414,344 414,344 414,344 414,344 414,344 415,344 415,344 415,344 415,344 415,344 415,344 415,344 415,344 415,344 415,344 415,344 415,344 415,344 416,344 416,344 416,344 416,344 416,344 416,344 416,344 416,344 416,344 416,344 416,344 416,344 416,344 417,344 417,344 417,344 417,344 417,344 417,344 417,344 417,344 417,344 417,344 417,344 417,344 417,344 418,344 418,344 418,344 418,344 418,344 418,344 418,345 418,345 418,345 418,345 418,345 418,345 418,345 419,345 419,345 419,345 419,346 419,346 419,346 419,346 419,346 419,346 419,346 419,346 419,346 419,346 420,346 420,346 420,347 420,347 420,347 420,347 420,347 420,347 420,347 420,347 420,347 420,347 420,347 421,347 421,348 421,348 421,348 421,348 421,348 421,348 421,348 421,348 421,348 421,348 421,348 421,348 422,349 422,349 422,349 422,349 422,349 422,349 422,349 422,349 422,349 422,349 422,349 422,349 422,349 423,349 423,350 423,350 423,350 423,350 423,350 423,350 423,350 423,350 423,350 423,350 423,350 423,350 424,350 424,350 424,350 424,350 424,350 424,350 424,350 424,350 424,350 424,350 424,350 424,350 424,351 425,351 425,351 425,351 425,351 425,351 425,351 425,351 425,351 425,351 425,351 425,351 425,351 425,351 426,351 426,351 426,351 426,351 426,351 426,351 426,351 426,351 426,351 426,351 426,351 426,351 427,351 427,351 427,351 427,351 427,351 427,351 427,351 427,351 427,351 427,351 427,351 427,351 427,351 428,351 428,352 428,352 428,352 428,352 428,352 428,352 428,352 428,352 428,352 428,352 428,352 428,352 429,352 429,352 429,352 429,353 429,353 429,353 429,353 429,353 429,353 429,353 429,353 429,353 429,353 430,353 430,353 430,353 430,353 430,353 430,353 430,354 430,354 430,354 430,354 430,354 430,354 430,354 431,354 431,354 431,354 431,354 431,354 431,354 431,354 431,354 431,354 431,354 431,354 431,354 431,354 432,354 432,354 432,354 432,355 432,355 432,355 432,355 432,355 432,355 432,355 432,355 432,355 432,355 433,355 433,355 433,355 433,355 433,355 433,355 433,355 433,355 433,355 433,356 433,356 433,356 433,356 434,356 434,356 434,356 434,356 434,356 434,356 434,356 434,356 434,356 434,356 434,356 434,356 434,356 435,356 435,356 435,356 435,356 435,356 435,356 435,357 435,357 435,357 435,357 435,357 435,357 435,357 436,357 436,357 436,357 436,357 436,357 436,357 436,357 436,357 436,358 436,358 436,358 436,358 436,358 437,358 437,358 437,358 437,358 437,358 437,358 437,358 437,358 437,358 437,358 437,358 437,358 437,358 438,358 438,358 438,358 438,358 438,358 438,358 438,358 438,358 438,358 438,358 438,358 438,358 438,358 439,358 439,358 439,358 439,358 439,358 439,358 439,358 439,358 439,358 439,358 439,358 439,358 439,358 440,358 440,358 440,358 440,358 440,358 440,358 440,358 440,358 440,358 440,358 440,358 440,358 441,358 441,358 441,358 441,358 441,358 441,358 441,358 441,358 441,358 441,358 441,358 441,358 441,358 442,358 442,358 442,358 442,358 442,359 442,359 442,359 442,359 442,359 442,359 442,359 442,359 442,359 443,359 443,359 443,359 443,359 443,359 443,359 443,359 443,359 443,359 443,359 443,359 443,359 443,359 444,359 444,359 444,359 444,359 444,359 444,359 444,359 444,359 444,359 444,359 444,359 444,359 444,359 445,359 445,359 445,359 445,359 445,359 445,359 445,359 445,359 445,359 445,359 445,359 445,359 445,359 446,359 446,359 446,359 446,359 446,359 446,359 446,359 446,360 446,360 446,360 446,360 446,360 446,360 447,360 447,360 447,360 447,360 447,360 447,360 447,360 447,360 447,360 447,360 447,360 447,360 447,360 448,360 448,360 448,360 448,360 448,360 448,360 448,360 448,360 448,360 448,360 448,360 448,360 448,360 449,360 449,360 449,360 449,360 449,360 449,360 449,360 449,360 449,360 449,360 449,360 449,360 449,360 450,360 450,360 450,360 450,360 450,360 450,360 450,361 450,361 450,361 450,361 450,361 450,361 450,361 451,361 451,361 451,361 451,361 451,361 451,361 451,361 451,361 451,361 451,361 451,361 451,361 451,361 452,361 452,361 452,361 452,361 452,361 452,361 452,361 452,361 452,361 452,361 452,361 452,361 452,361 453,361 453,361 453,361 453,361 453,361 453,361 453,361 453,361 453,361 453,361 453,361 453,361 454,361 454,361 454,362 454,362 454,362 454,362 454,362 454,362 454,362 454,362 454,361 454,361 454,361 455,361 455,361 455,361 455,360 455,360 455,360 455,360 455,360 455,360 455,360 455,361 455,361 455,361 456,361 456,361 456,361 456,361 456,361 456,361 456,361 456,361 456,361 456,361 456,361 456,361 456,361 457,361 457,361 457,360 457,360 457,360 457,360 457,360 457,360 457,360 457,360 457,360 457,360 457,360 458,360 458,360 458,360 458,360 458,360 458,360 458,360 458,360 458,360 458,360 458,360 458,360 458,360 459,360 459,360 459,360 459,360 459,359 459,359 459,359 459,359 459,359 459,359 459,359 459,359 459,359 460,359 460,359 460,359 460,359 460,359 460,359 460,358 460,358 460,358 460,358 460,358 460,358 460,358 461,358 461,358 461,358 461,358 461,358 461,358 461,358 461,358 461,358 461,358 461,358 461,358 461,357 462,357 462,357 462,357 462,357 462,356 462,356 462,356 462,356 462,356 462,356 462,356 462,356 462,356 463,356 463,356 463,356 463,356 463,356 463,356 463,356 463,356 463,356 463,356 463,356 463,356 463,356 464,356 464,355 464,355 464,355 464,355 464,355 464,355 464,355 464,355 464,355 464,355 464,355 464,355 465,355 465,355 465,355 465,355 465,355 465,355 465,355 465,355 465,355 465,355 465,355 465,355 465,355 466,355 466,355 466,355 466,355 466,355 466,355 466,355 466,355 466,355 466,355 466,355 466,355 466,355 467,355 467,355 467,355 467,355 467,355 467,355 467,355 467,355 467,355 467,355 467,355 467,355 468,355 468,355 468,355 468,355 468,355 468,355 468,355 468,355 468,355 468,355 468,355 468,355 468,355 469,355 469,355 469,355 469,355 469,355 469,355 469,355 469,355 469,355 469,355 469,355 469,355 469,355 470,355 470,355 470,355 470,355 470,355 470,355 470,355 470,355 470,355 470,355 470,355 470,355 470,355 471,355 471,355 471,355 471,355 471,356 471,356 471,356 471,356 471,356 471,356 471,356 471,356 471,356 472,356 472,356 472,356 472,356 472,356 472,356 472,356 472,356 472,356 472,356 472,356 472,356 472,356 473,356 473,356 473,356 473,356 473,356 473,356 473,356 473,356 473,356 473,356 473,356 473,356 473,356 474,356 474,356 474,356 474,356 474,356 474,356 474,356 474,356 474,356 474,356 474,356 474,356 474,356 475,356 475,356 475,356 475,356 475,356 475,356 475,356 475,356 475,356 475,356 475,356 475,356 475,356 476,356 476,356 476,356 476,356 476,356 476,356 476,356 476,356 476,357 476,357 476,357 476,357 476,357 477,357 477,357 477,357 477,357 477,357 477,357 477,357 477,357 477,357 477,357 477,357 477,357 477,357 478,357 478,357 478,357 478,357 478,357 478,357 478,357 478,357 478,357 478,357 478,358 478,358 478,358 479,358 479,358 479,358 479,358 479,358 479,358 479,358 479,358 479,358 479,358 479,358 479,358 479,358 480,358 480,358 480,358 480,358 480,358 480,358 480,358 480,358 480,358 480,358 480,358 480,358 480,358 481,358 481,358 481,358 481,358 481,358 481,358 481,358 481,358 481,358 481,358 481,358 481,358 482,358 482,358 482,358 482,358 482,358 482,358 482,358 482,358 482,358 482,358 482,358 482,358 482,358 483,358 483,358 483,358 483,358 483,358 483,358 483,358 483,358 483,358 483,358 483,358 483,358 483,358 484,358 484,358 484,357 484,357 484,357 484,357 484,357 484,357 484,357 484,357 484,357 484,357 484,357 485,357 485,357 485,357 485,357 485,357 485,357 485,357 485,357 485,357 485,357 485,357 485,357 485,357 486,357 486,357 486,357 486,357 486,357 486,357 486,357 486,357 486,357 486,357 486,357 486,357 486,357 487,357 487,357 487,357 487,357 487,357 487,357 487,357 487,357 487,357 487,357 487,357 487,357 487,357 488,357 488,357 488,357 488,357 488,357 488,357 488,357 488,357 488,357 488,357 488,357 488,357 488,357 489,357 489,357 489,357 489,357 489,357 489,357 489,357 489,357 489,357 489,357 489,357 489,357 489,357 490,357 490,357 490,357 490,357 490,357 490,357 490,357 490,357 490,357 490,357 490,357 490,357 490,357 491,357 491,358 491,357 491,357 491,357 491,357 491,357 491,357 491,357 491,357 491,357 491,357 491,358 492,358 492,358 492,358 492,358 492,358 492,358 492,358 492,358 492,358 492,358 492,358 492,358 492,358 493,358 493,358 493,358 493,358 493,358 493,358 493,358 493,358 493,358 493,358 493,358 493,358 493,358 494,358 494,358 494,358 494,358 494,358 494,358 494,358 494,358 494,358 494,358 494,358 494,358 495,358 495,358 495,358 495,358 495,358 495,358 495,358 495,358 495,358 495,358 495,358 495,358 495,358 496,359 496,359 496,359 496,359 496,359 496,359 496,359 496,359 496,359 496,359 496,359 496,359 496,359 497,359 497,359 497,359 497,359 497,359 497,359 497,359 497,359 497,359 497,359 497,359 497,359 497,359 498,359 498,360 498,360 498,360 498,360 498,360 498,360 498,360 498,360 498,360 498,360 498,360 498,360 499,360 499,360 499,360 499,360 499,360 499,360 499,360 499,360 499,360 499,360 499,360 499,360 499,360 500,360 500,360 500,360 500,360 500,360 500,360 500,360 500,360 500,360 500,360 500,360 500,360 500,360 501,360 501,360 501,360 501,360 501,360 501,360 501,360 501,360 501,360 501,360 501,360 501,360 501,360 502,360 502,360 502,360 502,360 502,360 502,360 502,360 502,360 502,360 502,360 502,360 502,360 502,360 503,360 503,360 503,360 503,360 503,360 503,360 503,360 503,360 503,360 503,360 503,360 503,360 503,360 504,360 504,360 504,360 504,360 504,360 504,360 504,360 504,360 504,360 504,360 504,360 504,360 504,360 505,360 505,360 505,360 505,360 505,360 505,360 505,360 505,360 505,360 505,360 505,360 505,360 505,360 506,360 506,360 506,360 506,360 506,360 506,360 506,360 506,360 506,360 506,360 506,360 506,360 506,359 507,359 507,359 507,359 507,359 507,359 507,359 507,359 507,359 507,359 507,359 507,359 507,359 507,359 508,359 508,359 508,359 508,359 508,359 508,359 508,359 508,359 508,359 508,359 508,359 508,359 509,359 509,359 509,359 509,359 509,359 509,359 509,359 509,359 509,359 509,359 509,359 509,359 509,359 510,359 510,359 510,359 510,359 510,359 510,359 510,359 510,359 510,359 510,359 510,359 510,358 510,358 511,358 511,358 511,358 511,358 511,358 511,358 511,358 511,358 511,358 511,358 511,358 511,358 511,358 512,358 512,358 512,358 512,358 512,358 512,358 512,358 512,358 512,358 512,358 512,358 512,358 512,359 513,359 513,359 513,359 513,359 513,359 513,359 513,359 513,359 513,359 513,359 513,359 513,359 513,359 514,359 514,359 514,359 514,359 514,359 514,359 514,359 514,359 514,359 514,359 514,359 514,359 514,360 515,360 515,360 515,360 515,360 515,360 515,360 515,360 515,360 515,360 515,360 515,360 515,360 515,360 516,360 516,360 516,360 516,360 516,360 516,360 516,360 516,360 516,360 516,360 516,360 516,360 516,360 517,360 517,360 517,360 517,360 517,360 517,360 517,360 517,360 517,360 517,360 517,360 517,360 517,360 518,360 518,360 518,360 518,360 518,360 518,360 518,360 518,360 518,360 518,360 518,360 518,360 518,360 519,360 519,359 519,359 519,359 519,359 519,359 519,359 519,359 519,359 519,359 519,359 519,359 519,359 520,359 520,359 520,359 520,359 520,359 520,359 520,359 520,359 520,359 520,359 520,359 520,359 520,359 521,359 521,359 521,359 521,359 521,359 521,359 521,359 521,359 521,359 521,359 521,359 521,359 522,359 522,359 522,359 522,359 522,359 522,359 522,359 522,359 522,359 522,359 522,359 522,359 522,359 523,359 523,359 523,359 523,359 523,359 523,359 523,359 523,359 523,359 523,359 523,358 523,358 523,358 524,358 524,358 524,358 524,358 524,358 524,358 524,359 524,359 524,359 524,359 524,359 524,359 524,359 525,359 525,359 525,359 525,359 525,359 525,359 525,359 525,359 525,359 525,359 525,359 525,359 525,359 526,359 526,360 526,360 526,360 526,360 526,360 526,360 526,360 526,360 526,360 526,360 526,360 526,360 527,360 527,360 527,360 527,360 527,360 527,360 527,360 527,360 527,360 527,360 527,360 527,360 527,360 528,360 528,360 528,360 528,360 528,360 528,360 528,360 528,360 528,360 528,360 528,360 528,360 528,360 529,360 529,360 529,360 529,360 529,359 529,359 529,359 529,359 529,359 529,359 529,359 529,359 529,359 530,359 530,359 530,359 530,359 530,359 530,358 530,358 530,358 530,358 530,358 530,358 530,358 530,358 531,358 531,358 531,358 531,358 531,358 531,358 531,358 531,358 531,358 531,358 531,358 531,358 531,358 532,358 532,358 532,358 532,358 532,358 532,358 532,358 532,358 532,358 532,358 532,358 532,359 532,359 533,359 533,359 533,359 533,359 533,359 533,359 533,359 533,359 533,359 533,359 533,359 533,359 533,359 534,359 534,359 534,359 534,359 534,359 534,359 534,359 534,359 534,359 534,359 534,359 534,358 534,358 535,358 535,358 535,358 535,359 535,359 535,359 535,359 535,359 535,359 535,359 535,359 535,359 536,359 536,359 536,359 536,359 536,359 536,359 536,359 536,359 536,359 536,359 536,359 536,359 536,359 537,359 537,359 537,359 537,359 537,359 537,359 537,359 537,359 537,359 537,359 537,359 537,359 537,359 538,359 538,359 538,359 538,359 538,359 538,359 538,359 538,359 538,359 538,359 538,359 538,359 538,359 539,359 539,359 539,359 539,359 539,359 539,360 539,360 539,360 539,360 539,360 539,360 539,360 539,360 540,360 540,360 540,360 540,360 540,360 540,360 540,360 540,360 540,360 540,360 540,360 540,360 540,360 541,360 541,360 541,360 541,360 541,360 541,360 541,360 541,360 541,360 541,360 541,360 541,360 541,360 542,360 542,360 542,360 542,360 542,360 542,360 542,360 542,360 542,360 542,360 542,360 542,360 542,360 543,360 543,360 543,360 543,360 543,360 543,360 543,360 543,360 543,360 543,360 543,360 543,360 543,360 544,360 544,360 544,360 544,360 544,360 544,360 544,361 544,361 544,361 544,361 544,361 544,361 544,361 545,361 545,361 545,361 545,361 545,361 545,361 545,361 545,361 545,361 545,361 545,361 545,361 545,361 546,361 546,361 546,361 546,361 546,361 546,361 546,361 546,361 546,361 546,361 546,361 546,361 546,361 547,361 547,361 547,361 547,361 547,360 547,360 547,360 547,360 547,360 547,360 547,360 547,360 547,360 548,360 548,360 548,360 548,360 548,360 548,360 548,360 548,360 548,360 548,360 548,360 548,360 549,360 549,360 549,360 549,360 549,360 549,360 549,360 549,360 549,360 549,360 549,360 549,360 549,360 550,360 550,360 550,360 550,360 550,360 550,360 550,360 550,360 550,360 550,360 550,360 550,360 550,360 551,360 551,360 551,360 551,361 551,361 551,361 551,361 551,361 551,361 551,361 551,361 551,361 551,361 552,361 552,362 552,362 552,362 552,362 552,362 552,362 552,362 552,362 552,362 552,363 552,363 552,363 553,363 553,363 553,363 553,363 553,363 553,363 553,363 553,363 553,363 553,363 553,363 553,363 553,363 554,363 554,363 554,364 554,364 554,364 554,364 554,364 554,363 554,363 554,363 554,363 554,363 554,363 555,363 555,363 555,363 555,363 555,364 555,364 555,364 555,363 555,363 555,363 555,363 555,363 555,363 556,363 556,363 556,363 556,363 556,363 556,363 556,363 556,363 556,363 556,363 556,363 556,363 556,363 557,363 557,363 557,363 557,363 557,363 557,363 557,363 557,363 557,363 557,363 557,363 557,363 557,363 558,363 558,363 558,363 558,363 558,363 558,363 558,363 558,363 558,363 558,363 558,363 558,363 558,363 559,363 559,363 559,363 559,363 559,363 559,363 559,363 559,363 559,363 559,363 559,363 559,363 559,363 560,363 560,363 560,363 560,363 560,363 560,363 560,363 560,363 560,363 560,363 560,363 560,363 560,363 561,363 561,363 561,363 561,363 561,363 561,363 561,363 561,363 561,363 561,363 561,363 561,363 561,363 562,363 562,363 562,363 562,363 562,363 562,363 562,363 562,363 562,363 562,363 562,363 562,363 563,363 563,363 563,363 563,363 563,363 563,363 563,363 563,363 563,363 563,363 563,363 563,363 563,363 564,363 564,363 564,363 564,363 564,363 564,363 564,363 564,363 564,363 564,363 564,363 564,363 564,363 565,363 565,363 565,363 565,363 565,363 565,363 565,363 565,363 565,363 565,363 565,363 565,363 565,363 566,363 566,363 566,363 566,363 566,363 566,363 566,363 566,363 566,363 566,363 566,363 566,363 566,363 567,363 567,363 567,363 567,363 567,363 567,364 567,364 567,364 567,364 567,364 567,364 567,364 567,364 568,364 568,364 568,364 568,364 568,364 568,364 568,364 568,364 568,364 568,364 568,364 568,364 568,364 569,364 569,364 569,364 569,364 569,364 569,364 569,364 569,364 569,364 569,364 569,365 569,365 569,365 570,365 570,365 570,365 570,365 570,365 570,365 570,365 570,365 570,365 570,365 570,365 570,365 570,365 571,365 571,365 571,365 571,365 571,365 571,365 571,365 571,366 571,366 571,366 571,366 571,366 571,366 572,366 572,366 572,366 572,366 572,366 572,366 572,366 572,366 572,366 572,366 572,366 572,366 572,366 573,367 573,367 573,367 573,367 573,367 573,367 573,367 573,367 573,367 573,367 573,367 573,367 573,367 574,367 574,367 574,367 574,367 574,367 574,367 574,367 574,368 574,368 574,368 574,368 574,368 574,368 575,368 575,368 575,368 575,368 575,368 575,368 575,368 575,368 575,368 575,368 575,368 575,369 576,369 576,369 576,369 576,369 576,369 576,369 576,369 576,369 576,369 576,369 576,369 576,369 576,369 577,369 577,369 577,369 577,369 577,369 577,369 577,370 577,370 577,370 577,370 577,370 577,370 577,370 578,370 578,370 578,370 578,370 578,370 578,370 578,370 578,370 578,370 578,370 578,370 578,370 578,370 579,370 579,370 579,371 579,371 579,371 579,371 579,371 579,371 579,371 579,371 579,371 579,371 579,371 580,371 580,371 580,371 580,371 580,371 580,371 580,371 580,371 580,371 580,371 580,371 580,371 580,371 581,371 581,371 581,371 581,371 581,371 581,371 581,371 581,371 581,371 581,371 581,371 581,371 581,371 582,371 582,371 582,371 582,371 582,371 582,371 582,371 582,371 582,371 582,371 582,371 582,371 582,371 583,371 583,371 583,371 583,371 583,371 583,371 583,371 583,371 583,371 583,371 583,371 583,371 583,371 584,370 584,370 584,370 584,370 584,370 584,370 584,370 584,370 584,370 584,370 584,370 584,370 584,370 585,370 585,370 585,370 585,370 585,370 585,370 585,370 585,370 585,370 585,370 585,370 585,370 585,370 586,370 586,370 586,371 586,371 586,371 586,371 586,371 586,371 586,371 586,371 586,371 586,371 586,371 587,371 587,371 587,371 587,371 587,371 587,371 587,371 587,371 587,371 587,371 587,371 587,371 587,371 588,371 588,371 588,371 588,371 588,371 588,371 588,371 588,371 588,371 588,371 588,371 588,371 588,371 589,371 589,371 589,371 589,371 589,371 589,371 589,371 589,371 589,371 589,371 589,371 589,371 590,371 590,371 590,371 590,371 590,371 590,371 590,371 590,371 590,371 590,371 590,371 590,371 590,371 591,371 591,371 591,371 591,371 591,371 591,371 591,371 591,371 591,371 591,371 591,371 591,371 591,371 592,371 592,371 592,372 592,372 592,372 592,372 592,372 592,372 592,372 592,372 592,371 592,371 592,371 593,371 593,371 593,371 593,371 593,371 593,371 593,371 593,371 593,371 593,371 593,371 593,371 593,371 594,371 594,371 594,371 594,371 594,371 594,371 594,371 594,371 594,371 594,371 594,371 594,371 594,371 595,371 595,371 595,371 595,371 595,371 595,371 595,371 595,371 595,371 595,371 595,371 595,371 595,371 596,371 596,371 596,371 596,371 596,371 596,371 596,371 596,371 596,371 596,371 596,371 596,371 596,371 597,371 597,371 597,371 597,371 597,371 597,371 597,371 597,371 597,371 597,371 597,371 597,371 597,371 598,371 598,371 598,371 598,371 598,371 598,371 598,371 598,371 598,371 598,371 598,371 598,371 598,371 599,371 599,371 599,371 599,371 599,371 599,371 599,371 599,371 599,371 599,371 599,371 599,371 599,371 600,371 600,372 600,372 600,372 600,372 600,372 600,372 600,371 600,372 600,372 600,372 600,372 600,372 601,372 601,372 601,372 601,372 601,372 601,372 601,372 601,371 601,372 601,372 601,372 601,372 601,372 602,372 602,371 602,371 602,371 602,372 602,372 602,372 602,372 602,371 602,371 602,371 602,371 603,371 603,371 603,371 603,371 603,371 603,371 603,371 603,371 603,371 603,371 603,371 603,371 603,371 604,371 604,371 604,371 604,371 604,371 604,371 604,371 604,371 604,371 604,371 604,371 604,371 604,371 605,371 605,371 605,371 605,371 605,371 605,371 605,371 605,371 605,371 605,371 605,371 605,371 605,371 606,371 606,371 606,371 606,371 606,371 606,371 606,371 606,371 606,371 606,371 606,371 606,372 606,372 607,372 607,372 607,372 607,371 607,371 607,371 607,371 607,371 607,371 607,371 607,371 607,371 607,372 608,372 608,372 608,372 608,372 608,372 608,371 608,371 608,371 608,371 608,371 608,371 608,371 608,372 609,372 609,372 609,372 609,371 609,371 609,371 609,371 609,371 609,371 609,371 609,371 609,371 609,371 610,371 610,371 610,371 610,371 610,371 610,371 610,371 610,371 610,371 610,371 610,371 610,371 610,371 611,371 611,371 611,371 611,371 611,371 611,371 611,371 611,371 611,371 611,371 611,371 611,371 611,371 612,371 612,371 612,371 612,371 612,372 612,372 612,371 612,371 612,371 612,371 612,371 612,371 612,371 613,371 613,371 613,371 613,371 613,371 613,371 613,371 613,371 613,371 613,371 613,371 613,371 613,371 614,371 614,371 614,371 614,371 614,371 614,371 614,371 614,371 614,371 614,371 614,371 614,371 614,371 615,371 615,371 615,371 615,371 615,371 615,371 615,371 615,371 615,371 615,371 615,371 615,371 615,371 616,371 616,371 616,371 616,371 616,371 616,371 616,371 616,371 616,371 616,371 616,371 616,371 617,371 617,371 617,371 617,371 617,371 617,371 617,371 617,371 617,371 617,371 617,371 617,371 617,371 618,371 618,371 618,371 618,371 618,371 618,371 618,371 618,371 618,371 618,371 618,371 618,371 618,371 619,371 619,371 619,371 619,371 619,371 619,371 619,371 619,371 619,371 619,371 619,371 619,371 619,371 620,371 620,371 620,371 620,371 620,371 620,371 620,371 620,371 620,371 620,371 620,371 620,371 620,371 621,371 621,371 621,371 621,371 621,371 621,371 621,371 621,371 621,371 621,371 621,371 621,371 621,371 622,371 622,371 622,371 622,371 622,371 622,371 622,371 622,371 622,371 622,371 622,371 622,371 622,371 623,371 623,371 623,371 623,371 623,371 623,371 623,371 623,371 623,371 623,371 623,371 623,371 623,371 624,371 624,371 624,371 624,371 624,371 624,371 624,372 624,372 624,372 624,372 624,372 624,372 624,372 625,372 625,372 625,372 625,372 625,372 625,372 625,372 625,372 625,372 625,372 625,372 625,372 625,372 626,372 626,372 626,372 626,372 626,372 626,372 626,372 626,372 626,372 626,372 626,372 626,372 626,372 627,372 627,372 627,372 627,372 627,372 627,372 627,372 627,372 627,372 627,372 627,372 627,372 627,372 628,372 628,372 628,372 628,372 628,372 628,372 628,372 628,372 628,372 628,372 628,372 628,372 628,372 629,372 629,372 629,372 629,372 629,372 629,372 629,372 629,372 629,372 629,372 629,372 629,372 630,372 630,372 630,372 630,372 630,372 630,372 630,372 630,372 630,372 630,372 630,372 630,372 630,372 631,372 631,372 631,372 631,372 631,372 631,372 631,372 631,372 631,372 631,372 631,372 631,372 631,372 632,372 632,372 632,372 632,372 632,372 632,372 632,372 632,372 632,372 632,372 632,372 632,372 632,372 633,372 633,372 633,372 633,372 633,372 633,372 633,372 633,371 633,371 633,371 633,371 633,371 633,371 634,371 634,371 634,371 634,371 634,371 634,371 634,371 634,371 634,371 634,371 634,371 634,371 634,371 635,371 635,371 635,371 635,371 635,371 635,371 635,372 635,372 635,372 635,372 635,372 635,372 635,372 636,372 636,372 636,372 636,372 636,372 636,372 636,372 636,372 636,372 636,372 636,372 636,372 636,372 637,372 637,372 637,372 637,372 637,372 637,372 637,372 637,372 637,372 637,372 637,372 637,372 637,372 638,372 638,372 638,372 638,372 638,372 638,372 638,372 638,372 638,372 638,372 638,372 638,372 638,372 639,372 639,372 639,372 639,372 639,372 639,372 639,372 639,372 639,372 639,372 639,372 639,372 639,372 640,372 640,372 640,372 640,372 640,372 640,372 640,372 640,372 640,372 640,372 640,372 640,372 640,372 641,372 641,372 641,372 641,372 641,372 641,372 641,372 641,372 641,372 641,372 641,372 641,372 641,372 642,372 642,372 642,372 642,372 642,372 642,372 642,372 642,372 642,372 642,372 642,372 642,372 642,372 643,372 643,372 643,372 643,372 643,372 643,372 643,372 643,372 643,372 643,372 643,372 643,372 644,372 644,372 644,372 644,372 644,372 644,372 644,372 644,372 644,372 644,372 644,372 644,372 644,372 645,372 645,372 645,372 645,372 645,372 645,372 645,372 645,372 645,372 645,372 645,372 645,372 645,372 646,372 646,372 646,372 646,372 646,372 646,372 646,372 646,372 646,372 646,372 646,372 646,372 646,372 647,372 647,372 647,372 647,372 647,372 647,372 647,372 647,372 647,372 647,372 647,372 647,372 647,372 648,372 648,372 648,372 648,372 648,372 648,372 648,372 648,372 648,372 648,372 648,372 648,372 648,372 649,372 649,372 649,372 649,372 649,372 649,372 649,372 649,372 649,372 649,372 649,372 649,372 649,372 650,372 650,372 650,372 650,373 650,373 650,373 650,373 650,373 650,373 650,373 650,373 650,373 650,373 651,373 651,373 651,372 651,372 651,372 651,372 651,372 651,372 651,372 651,372 651,372 651,372 651,372 652,372 652,372 652,372 652,372 652,372 652,372 652,372 652,372 652,373 652,373 652,373 652,373 652,373 653,373 653,373 653,373 653,373 653,373 653,373 653,373 653,373 653,373 653,373 653,373 653,373 653,373 654,373 654,373 654,373 654,373 654,373 654,373 654,373 654,373 654,373 654,373 654,373 654,373 654,373 655,373 655,373 655,372 655,372 655,372 655,372 655,372 655,372 655,372 655,372 655,372 655,372 655,372 656,372 656,372 656,372 656,372 656,372 656,372 656,372 656,372 656,372 656,372 656,372 656,372 656,372 657,372 657,372 657,372 657,372 657,372 657,372 657,372 657,372 657,372 657,372 657,372 657,372 658,372 658,372 658,373 658,373 658,373 658,372 658,372 658,372 658,372 658,372 658,372 658,372 658,372 659,372 659,373 659,373 659,373 659,373 659,373 659,373 659,373 659,373 659,373 659,373 659,372 659,372 660,372 660,372 660,372 660,372 660,372 660,372 660,372 660,372 660,372 660,372 660,372 660,372 660,372 661,372 661,372 661,372 661,372 661,372 661,372 661,372 661,372 661,372 661,372 661,372 661,372 661,372 662,372 662,372 662,372 662,372 662,372 662,372 662,372 662,372 662,372 662,372 662,372 662,372 662,372 663,372 663,372 663,372 663,372 663,372 663,372 663,372 663,372 663,372 663,372 663,372 663,372 663,372 664,372 664,372 664,371 664,371 664,371 664,371 664,371 664,371 664,371 664,371 664,371 664,371 664,371 665,371 665,371 665,371 665,371 665,371 665,371 665,371 665,371 665,371 665,371 665,371 665,371 665,371 666,371 666,372 666,372 666,372 666,372 666,372 666,372 666,372 666,372 666,372 666,372 666,372 666,372 667,372 667,372 667,372 667,372 667,372 667,372 667,372 667,372 667,372 667,372 667,372 667,372 667,372 668,372 668,372 668,372 668,372 668,372 668,372 668,372 668,372 668,372 668,372 668,372 668,372 668,372 669,372 669,372 669,372 669,372 669,372 669,372 669,372 669,373 669,373 669,373 669,373 669,373 669,373 670,373 670,373 670,373 670,373 670,373 670,373 670,373 670,373 670,373 670,373 670,373 670,373 671,373 671,373 671,373 671,373 671,373 671,373 671,373 671,373 671,373 671,373 671,373 671,373 671,373 672,373 672,373 672,373 672,373 672,373 672,373 672,373 672,373 672,373 672,373 672,373 672,373 672,373 673,373 673,373 673,373 673,373 673,373 673,373 673,373 673,373 673,373 673,373 673,372 673,372 673,372 674,372 674,373 674,373 674,373 674,373 674,373 674,373 674,373 674,373 674,373 674,373 674,373 674,373 675,373 675,373 675,373 675,373 675,373 675,373 675,373 675,373 675,373 675,373 675,373 675,373 675,373 676,373 676,373 676,373 676,373 676,373 676,373 676,373 676,373 676,373 676,373 676,373 676,373 676,373 677,373 677,373 677,372 677,372 677,372 677,372 677,372 677,373 677,373 677,373 677,373 677,373 677,373 678,373 678,373 678,373 678,373 678,373 678,373 678,373 678,373 678,373 678,373 678,373 678,373 678,373 679,373 679,373 679,373 679,373 679,373 679,373 679,373 679,373 679,372 679,372 679,372 679,372 679,372 680,372 680,372 680,372 680,372 680,372 680,372 680,373 680,373 680,373 680,373 680,373 680,373 680,373 681,373 681,373 681,373 681,373 681,373 681,373 681,373 681,373 681,373 681,373 681,373 681,373 681,373 682,373 682,373 682,373 682,373 682,373 682,373 682,373 682,373 682,373 682,373 682,373 682,373 682,373 683,373 683,373 683,373 683,373 683,373 683,373 683,373 683,373 683,373 683,373 683,373 683,373 683,373 684,373 684,373 684,373 684,373 684,373 684,373 684,373 684,373 684,373 684,373 684,373 684,373 685,373 685,373 685,373 685,373 685,373 685,373 685,373 685,373 685,373 685,373 685,373 685,373 685,373 686,373 686,373 686,373 686,373 686,373 686,373 686,372 686,372 686,372 686,372 686,372 686,372 686,372 687,373 687,373 687,373 687,373 687,373 687,373 687,373 687,373 687,373 687,373 687,373 687,373 687,373 688,373 688,373 688,373 688,373 688,373 688,373 688,373 688,373 688,373 688,373 688,373 688,372 688,372 689,372 689,372 689,372 689,372 689,372 689,372 689,372 689,372 689,372 689,372 689,372 689,372 689,372 690,372 690,372 690,372 690,372 690,372 690,372 690,372 690,372 690,372 690,372 690,372 690,372 690,372 691,372 691,372 691,372 691,372 691,372 691,372 691,372 691,372 691,372 691,372 691,372 691,372 691,372 692,373 692,373 692,373 692,373 692,373 692,373 692,373 692,373 692,373 692,373 692,373 692,373 692,373 693,373 693,373 693,373 693,373 693,373 693,373 693,373 693,373 693,373 693,373 693,373 693,373 693,373 694,373 694,373 694,373 694,373 694,373 694,373 694,373 694,373 694,373 694,373 694,373 694,373 694,373 695,373 695,373 695,373 695,373 695,373 695,373 695,373 695,373 695,373 695,373 695,373 695,373 695,373 696,373 696,373 696,373 696,373 696,373 696,373 696,373 696,373 696,373 696,373 696,373 696,373 696,373 697,373 697,373 697,373 697,373 697,373 697,373 697,373 697,373 697,373 697,373 697,373 697,373 698,373 698,373 698,373 698,373 698,373 698,373 698,373 698,373 698,373 698,373 698,373 698,373 698,373 699,373 699,373 699,373 699,373 699,373 699,373 699,373 699,373 699,373 699,373 699,373 699,373 699,373 700,373 700,373 700,373 700,373 700,373 700,373 700,373 700,373 700,373 700,373 700,373 700,373 700,372 701,372 701,372 701,372 701,372 701,372 701,372 701,372 701,372 701,372 701,372 701,372 701,372 701,372 702,372 702,372 702,372 702,372 702,372 702,372 702,372 702,372 702,372 702,372 702,372 702,372 702,372 703,372 703,372 703,372 703,372 703,372 703,372 703,372 703,372 703,372 703,372 703,372 703,372 703,372 704,372 704,372 704,372 704,372 704,372 704,372 704,372 704,372 704,372 704,372 704,372 704,372 704,372 705,372 705,372 705,372 705,372 705,372 705,372 705,372 705,372 705,372 705,372 705,372 705,371 705,371 706,371 706,371 706,371 706,371 706,371 706,372 706,372 706,372 706,372 706,372 706,372 706,372 706,372 707,372 707,372 707,372 707,372 707,372 707,372 707,372 707,372 707,372 707,372 707,372 707,372 707,372 708,372 708,372 708,372 708,372 708,372 708,372 708,372 708,372 708,372 708,372 708,372 708,372 708,372 709,372 709,372 709,372 709,372 709,372 709,372 709,372 709,371 709,371 709,371 709,371 709,371 709,372 710,372 710,372 710,372 710,372 710,372 710,372 710,372 710,372 710,372 710,372 710,372 710,372 710,372 711,372 711,372 711,372 711,372 711,372 711,372 711,372 711,372 711,372 711,372 711,373 711,373 712,373 712,373 712,373 712,373 712,373 712,373 712,373 712,373 712,373 712,373 712,373 712,373 712,373 713,373 713,373 713,373 713,373 713,373 713,373 713,372 713,372 713,372 713,372 713,372 713,372 713,372 714,372 714,372 714,372 714,372 714,372 714,372 714,372 714,372 714,372 714,372 714,372 714,372 714,372 715,372 715,372 715,372 715,372 715,372 715,372 715,372 715,372 715,373 715,373 715,373 715,373 715,373 716,372 716,372 716,372 716,372 716,372 716,373 716,373 716,373 716,373 716,373 716,373 716,374 716,374 717,374 717,374 717,374 717,374 717,374 717,374 717,374 717,374 717,374 717,374 717,374 717,374 717,374 718,374 718,374 718,374 718,374 718,374 718,374 718,374 718,374 718,374 718,374 718,374 718,374 718,374 719,374 719,374 719,374 719,374 719,374 719,374 719,374 719,374 719,374 719,374 719,374 719,374 719,374 720,374 720,374 720,374 720,374 720,374 720,374 720,374 720,374 720,374 720,374 720,374 720,374 720,374 721,374 721,374 721,374 721,374 721,374 721,374 721,374 721,374 721,374 721,374 721,374 721,373 721,373 722,373 722,374 722,374 722,374 722,374 722,373 722,373 722,373 722,374 722,374 722,374 722,374 722,374 723,374 723,374 723,374 723,373 723,373 723,373 723,373 723,373 723,373 723,373 723,373 723,373 723,373 724,373 724,373 724,373 724,373 724,373 724,373 724,373 724,373 724,373 724,373 724,373 724,373 725,373 725,373 725,373 725,373 725,373 725,373 725,373 725,373 725,373 725,373 725,373 725,373 725,373 726,373 726,373 726,373 726,373 726,373 726,373 726,373 726,373 726,373 726,373 726,373 726,372 726,372 727,372 727,372 727,372 727,372 727,372 727,372 727,372 727,372 727,371 727,371 727,371 727,371 727,371 728,371 728,371 728,371 728,371 728,371 728,371 728,371 728,371 728,371 728,371 728,371 728,371 728,371 729,371 729,371 729,371 729,371 729,371 729,371 729,371 729,371 729,371 729,371 729,371 729,371 729,371 730,371 730,371 730,371 730,371 730,371 730,371 730,371 730,371 730,371 730,371 730,371 730,371 730,371 731,371 731,371 731,371 731,371 731,371 731,371 731,371 731,371 731,371 731,371 731,371 731,371 731,371 732,371 732,371 732,371 732,371 732,371 732,371 732,371 732,371 732,371 732,372 732,372 732,372 732,372 733,372 733,372 733,372 733,372 733,372 733,372 733,372 733,372 733,372 733,372 733,372 733,372 733,372 734,372 734,372 734,372 734,372 734,372 734,372 734,372 734,372 734,372 734,372 734,372 734,372 734,372 735,372 735,372 735,372 735,372 735,372 735,372 735,372 735,372 735,372 735,372 735,372 735,372 735,372 736,372 736,372 736,372 736,373 736,373 736,373 736,373 736,373 736,373 736,373 736,373 " vector-effect="non-scaling-stroke"></polyline>
</g></svg>