<?xml version="1.0" encoding="UTF-8" standalone="no"?><svg width="282.222mm" height="141.111mm" xmlns="http://www.w3.org/2000/svg" xmlns:xlink="http://www.w3.org/1999/xlink"  version="1.2" baseProfile="tiny"><g fill="none" stroke="#ff0000" stroke-linecap="round" stroke-linejoin="round" stroke-opacity="1" stroke-width="1.5" transform="matrix(1,0,0,1,0,0)">
<polyline fill="none" points="27,213 28,213 28,213 28,212 28,212 28,213 28,214 28,215 28,214 28,214 28,215 28,215 28,215 28,216 29,216 29,217 29,217 29,217 29,218 29,219 29,220 29,221 29,222 29,223 29,224 29,224 29,224 30,225 30,225 30,226 30,226 30,226 30,226 30,226 30,227 30,227 30,227 30,227 30,227 30,227 31,227 31,227 31,227 31,227 31,227 31,227 31,227 31,227 31,227 31,227 31,228 31,228 31,228 32,228 32,228 32,228 32,229 32,229 32,229 32,229 32,229 32,230 32,230 32,230 32,230 32,230 33,231 33,231 33,231 33,231 33,231 33,230 33,230 33,230 33,230 33,229 33,229 33,229 33,228 34,228 34,227 34,226 34,225 34,225 34,224 34,224 34,224 34,224 34,224 34,224 34,224 35,224 35,224 35,224 35,224 35,224 35,224 35,224 35,224 35,224 35,224 35,224 35,224 35,224 36,224 36,224 36,224 36,224 36,224 36,224 36,224 36,224 36,224 36,224 36,224 36,224 36,224 37,224 37,224 37,224 37,224 37,224 37,224 37,224 37,224 37,224 37,224 37,224 37,224 37,224 38,224 38,224 38,224 38,224 38,223 38,223 38,223 38,223 38,223 38,223 38,223 38,223 38,223 39,222 39,222 39,222 39,222 39,222 39,222 39,221 39,221 39,221 39,221 39,221 39,221 39,220 40,220 40,220 40,220 40,220 40,220 40,219 40,219 40,219 40,219 40,219 40,219 40,219 40,219 41,219 41,219 41,219 41,219 41,219 41,219 41,219 41,219 41,219 41,219 41,219 41,219 41,219 42,219 42,219 42,219 42,219 42,220 42,220 42,220 42,220 42,220 42,220 42,220 42,220 42,220 43,220 43,220 43,220 43,220 43,221 43,221 43,221 43,221 43,221 43,221 43,221 43,222 43,222 44,222 44,222 44,223 44,223 44,223 44,223 44,224 44,224 44,225 44,225 44,225 44,226 44,226 45,227 45,227 45,227 45,228 45,228 45,228 45,228 45,228 45,228 45,228 45,228 45,228 45,228 46,228 46,228 46,228 46,228 46,228 46,228 46,228 46,228 46,229 46,229 46,229 46,229 46,229 47,229 47,229 47,229 47,229 47,229 47,229 47,229 47,230 47,230 47,230 47,230 47,230 48,230 48,230 48,230 48,230 48,230 48,230 48,230 48,230 48,230 48,230 48,230 48,230 48,230 49,230 49,230 49,230 49,230 49,230 49,230 49,230 49,230 49,230 49,230 49,230 49,230 49,230 50,230 50,230 50,230 50,230 50,229 50,229 50,229 50,229 50,229 50,229 50,229 50,229 50,229 51,229 51,229 51,229 51,229 51,230 51,230 51,230 51,231 51,231 51,231 51,231 51,232 51,232 52,232 52,233 52,233 52,233 52,233 52,234 52,234 52,234 52,234 52,234 52,234 52,235 52,235 53,235 53,235 53,235 53,235 53,236 53,236 53,236 53,236 53,236 53,236 53,236 53,236 53,236 54,236 54,236 54,236 54,236 54,236 54,236 54,236 54,236 54,236 54,236 54,236 54,236 54,236 55,236 55,236 55,236 55,236 55,236 55,236 55,236 55,236 55,236 55,236 55,236 55,236 55,236 56,235 56,235 56,235 56,235 56,235 56,235 56,234 56,234 56,234 56,234 56,234 56,235 56,235 57,235 57,235 57,235 57,235 57,235 57,235 57,235 57,235 57,235 57,235 57,235 57,235 57,235 58,235 58,235 58,236 58,236 58,236 58,237 58,237 58,237 58,237 58,237 58,237 58,237 58,238 59,238 59,237 59,237 59,237 59,237 59,237 59,237 59,237 59,237 59,237 59,237 59,238 59,238 60,237 60,237 60,237 60,237 60,237 60,237 60,237 60,237 60,236 60,236 60,236 60,236 61,235 61,235 61,235 61,235 61,234 61,234 61,234 61,234 61,233 61,233 61,233 61,233 61,232 62,232 62,232 62,232 62,231 62,231 62,231 62,231 62,230 62,230 62,230 62,230 62,229 62,229 63,229 63,228 63,228 63,228 63,228 63,227 63,227 63,227 63,226 63,226 63,226 63,226 63,225 64,225 64,224 64,224 64,224 64,223 64,223 64,223 64,223 64,223 64,222 64,222 64,222 64,222 65,222 65,222 65,222 65,222 65,222 65,222 65,222 65,222 65,222 65,223 65,223 65,223 65,223 66,223 66,223 66,223 66,223 66,223 66,224 66,224 66,224 66,224 66,224 66,224 66,225 66,225 67,225 67,225 67,225 67,225 67,225 67,225 67,225 67,225 67,225 67,226 67,226 67,226 67,226 68,227 68,227 68,227 68,227 68,227 68,228 68,228 68,228 68,228 68,228 68,228 68,228 68,228 69,228 69,229 69,229 69,229 69,229 69,229 69,229 69,229 69,229 69,229 69,230 69,230 69,230 70,230 70,230 70,230 70,230 70,230 70,230 70,230 70,231 70,231 70,231 70,231 70,231 70,231 71,231 71,231 71,231 71,231 71,231 71,231 71,231 71,231 71,231 71,231 71,231 71,231 71,231 72,230 72,230 72,230 72,230 72,230 72,230 72,230 72,230 72,230 72,230 72,230 72,230 72,230 73,230 73,230 73,230 73,230 73,230 73,230 73,230 73,230 73,230 73,230 73,230 73,230 74,230 74,230 74,230 74,230 74,230 74,230 74,229 74,229 74,229 74,229 74,230 74,230 74,230 75,230 75,230 75,230 75,230 75,230 75,230 75,230 75,230 75,230 75,230 75,230 75,230 75,230 76,230 76,230 76,230 76,230 76,230 76,230 76,230 76,230 76,230 76,230 76,230 76,230 76,230 77,231 77,231 77,231 77,231 77,232 77,232 77,232 77,232 77,232 77,233 77,233 77,233 77,233 78,234 78,234 78,234 78,234 78,234 78,233 78,234 78,234 78,234 78,235 78,235 78,235 78,235 79,235 79,235 79,236 79,236 79,236 79,236 79,237 79,237 79,237 79,237 79,238 79,238 79,238 80,238 80,238 80,238 80,238 80,238 80,238 80,238 80,238 80,238 80,238 80,238 80,238 80,238 81,238 81,239 81,239 81,239 81,239 81,239 81,239 81,239 81,239 81,239 81,239 81,239 81,239 82,239 82,239 82,239 82,239 82,239 82,239 82,239 82,239 82,239 82,239 82,239 82,238 82,238 83,238 83,238 83,238 83,238 83,238 83,238 83,239 83,239 83,239 83,239 83,239 83,239 83,240 84,240 84,240 84,241 84,241 84,241 84,241 84,242 84,242 84,242 84,243 84,243 84,243 84,244 85,244 85,244 85,244 85,244 85,244 85,243 85,243 85,243 85,244 85,244 85,245 85,245 85,245 86,245 86,246 86,246 86,246 86,246 86,247 86,247 86,247 86,247 86,247 86,247 86,247 86,247 87,247 87,247 87,248 87,247 87,247 87,247 87,247 87,247 87,247 87,247 87,247 87,248 88,248 88,249 88,249 88,250 88,250 88,250 88,250 88,250 88,250 88,251 88,251 88,251 88,251 89,251 89,252 89,252 89,252 89,252 89,252 89,252 89,252 89,252 89,252 89,252 89,252 89,252 90,252 90,252 90,252 90,252 90,252 90,253 90,253 90,253 90,253 90,254 90,254 90,254 90,254 91,254 91,255 91,255 91,255 91,256 91,256 91,256 91,256 91,256 91,256 91,257 91,257 91,257 92,257 92,257 92,258 92,258 92,258 92,258 92,258 92,258 92,258 92,258 92,258 92,258 92,259 93,259 93,259 93,259 93,259 93,259 93,260 93,260 93,260 93,260 93,260 93,260 93,260 93,260 94,260 94,260 94,259 94,259 94,259 94,260 94,260 94,260 94,260 94,260 94,260 94,260 94,260 95,260 95,260 95,260 95,260 95,260 95,260 95,260 95,260 95,260 95,260 95,260 95,260 95,260 96,261 96,260 96,260 96,260 96,261 96,261 96,261 96,261 96,261 96,261 96,261 96,261 96,261 97,261 97,261 97,261 97,261 97,261 97,261 97,261 97,262 97,261 97,261 97,261 97,261 97,261 98,261 98,262 98,262 98,262 98,262 98,262 98,262 98,262 98,262 98,262 98,262 98,262 98,262 99,262 99,262 99,262 99,262 99,262 99,262 99,262 99,262 99,262 99,262 99,262 99,262 99,262 100,262 100,262 100,262 100,262 100,262 100,262 100,262 100,262 100,262 100,262 100,262 100,262 101,262 101,262 101,262 101,262 101,262 101,262 101,262 101,262 101,263 101,263 101,263 101,263 101,263 102,263 102,263 102,263 102,263 102,263 102,263 102,263 102,263 102,263 102,263 102,263 102,263 102,262 103,262 103,262 103,262 103,262 103,262 103,262 103,262 103,262 103,262 103,262 103,262 103,262 103,262 104,262 104,262 104,262 104,262 104,261 104,261 104,261 104,261 104,261 104,261 104,261 104,261 104,260 105,260 105,260 105,260 105,260 105,260 105,260 105,260 105,260 105,260 105,260 105,260 105,260 105,260 106,260 106,260 106,260 106,260 106,260 106,260 106,260 106,260 106,260 106,260 106,260 106,260 106,260 107,260 107,260 107,260 107,260 107,260 107,260 107,260 107,260 107,260 107,261 107,261 107,261 107,260 108,260 108,260 108,260 108,260 108,260 108,260 108,259 108,259 108,259 108,259 108,259 108,259 108,259 109,259 109,259 109,259 109,259 109,259 109,259 109,259 109,259 109,259 109,259 109,259 109,259 109,259 110,259 110,259 110,258 110,258 110,258 110,258 110,258 110,258 110,258 110,258 110,258 110,258 110,258 111,258 111,258 111,258 111,258 111,258 111,258 111,258 111,258 111,258 111,258 111,258 111,258 111,258 112,259 112,259 112,259 112,259 112,259 112,260 112,260 112,260 112,260 112,261 112,261 112,261 112,261 113,261 113,261 113,261 113,261 113,261 113,261 113,261 113,261 113,261 113,261 113,261 113,261 114,261 114,261 114,261 114,261 114,261 114,261 114,261 114,261 114,261 114,260 114,261 114,261 114,261 115,261 115,261 115,261 115,261 115,261 115,261 115,261 115,261 115,261 115,261 115,261 115,262 115,262 116,262 116,262 116,262 116,262 116,262 116,262 116,262 116,262 116,262 116,262 116,262 116,262 116,262 117,262 117,262 117,262 117,262 117,262 117,262 117,262 117,262 117,262 117,262 117,262 117,263 117,263 118,263 118,263 118,263 118,263 118,264 118,264 118,264 118,264 118,264 118,265 118,265 118,265 118,266 119,266 119,266 119,267 119,267 119,267 119,267 119,267 119,267 119,267 119,267 119,267 119,266 119,266 120,266 120,266 120,265 120,265 120,265 120,265 120,265 120,265 120,265 120,265 120,265 120,265 120,265 121,265 121,266 121,266 121,266 121,266 121,266 121,266 121,266 121,266 121,267 121,267 121,267 121,267 122,268 122,268 122,268 122,268 122,269 122,269 122,269 122,269 122,270 122,270 122,270 122,270 122,271 123,271 123,271 123,271 123,272 123,272 123,272 123,272 123,272 123,273 123,273 123,273 123,274 123,274 124,274 124,275 124,275 124,275 124,275 124,275 124,276 124,276 124,276 124,276 124,276 124,276 124,276 125,276 125,277 125,277 125,277 125,277 125,277 125,277 125,276 125,276 125,276 125,276 125,275 125,275 126,274 126,274 126,274 126,273 126,272 126,272 126,271 126,271 126,271 126,270 126,270 126,269 126,269 127,269 127,268 127,268 127,267 127,267 127,267 127,266 127,266 127,266 127,265 127,265 127,265 128,264 128,264 128,264 128,264 128,263 128,263 128,263 128,262 128,262 128,262 128,262 128,262 128,261 129,261 129,261 129,261 129,261 129,260 129,260 129,260 129,260 129,260 129,259 129,259 129,259 129,259 130,259 130,258 130,258 130,258 130,258 130,258 130,258 130,258 130,258 130,258 130,258 130,258 130,258 131,258 131,259 131,259 131,259 131,259 131,260 131,260 131,260 131,261 131,261 131,261 131,262 131,262 132,262 132,262 132,262 132,263 132,263 132,263 132,264 132,264 132,264 132,265 132,265 132,265 132,266 133,266 133,266 133,267 133,267 133,267 133,267 133,268 133,268 133,268 133,269 133,269 133,269 133,270 134,270 134,270 134,270 134,271 134,271 134,271 134,271 134,272 134,272 134,272 134,272 134,272 134,272 135,272 135,272 135,272 135,273 135,273 135,273 135,273 135,273 135,273 135,273 135,273 135,273 135,274 136,274 136,274 136,274 136,274 136,274 136,274 136,274 136,274 136,274 136,274 136,275 136,275 136,275 137,275 137,275 137,275 137,275 137,275 137,275 137,275 137,275 137,275 137,276 137,276 137,276 137,276 138,276 138,276 138,276 138,276 138,276 138,276 138,276 138,276 138,277 138,277 138,277 138,277 138,277 139,277 139,277 139,277 139,277 139,277 139,277 139,277 139,277 139,277 139,277 139,277 139,277 139,277 140,277 140,277 140,277 140,277 140,277 140,277 140,278 140,278 140,278 140,278 140,278 140,278 141,278 141,278 141,278 141,278 141,278 141,278 141,278 141,278 141,278 141,278 141,278 141,278 141,278 142,278 142,279 142,279 142,279 142,279 142,279 142,279 142,279 142,279 142,279 142,279 142,280 142,280 143,280 143,280 143,280 143,280 143,280 143,280 143,280 143,280 143,280 143,280 143,280 143,281 143,281 144,281 144,281 144,281 144,281 144,281 144,282 144,282 144,282 144,282 144,282 144,282 144,282 144,282 145,283 145,283 145,283 145,283 145,283 145,284 145,284 145,284 145,284 145,284 145,284 145,284 145,284 146,284 146,285 146,285 146,285 146,285 146,285 146,285 146,285 146,285 146,285 146,285 146,286 146,286 147,286 147,286 147,286 147,287 147,287 147,287 147,287 147,288 147,288 147,288 147,288 147,288 147,288 148,288 148,288 148,288 148,288 148,288 148,288 148,288 148,288 148,288 148,289 148,288 148,288 148,288 149,288 149,288 149,289 149,289 149,289 149,289 149,289 149,289 149,289 149,289 149,289 149,289 149,289 150,289 150,289 150,289 150,289 150,289 150,289 150,289 150,289 150,289 150,289 150,289 150,289 150,289 151,289 151,289 151,289 151,289 151,289 151,289 151,289 151,289 151,288 151,288 151,288 151,288 151,288 152,288 152,288 152,288 152,288 152,288 152,288 152,288 152,288 152,288 152,288 152,288 152,287 152,287 153,287 153,287 153,287 153,287 153,287 153,287 153,287 153,287 153,287 153,287 153,287 153,287 154,287 154,287 154,287 154,287 154,287 154,287 154,287 154,287 154,287 154,287 154,287 154,287 154,287 155,287 155,287 155,287 155,287 155,287 155,287 155,287 155,287 155,287 155,287 155,287 155,287 155,287 156,286 156,287 156,286 156,286 156,286 156,285 156,285 156,285 156,284 156,284 156,284 156,284 156,284 157,284 157,284 157,284 157,284 157,284 157,284 157,284 157,284 157,284 157,284 157,284 157,284 157,284 158,284 158,284 158,283 158,283 158,283 158,283 158,283 158,283 158,283 158,283 158,282 158,282 158,282 159,282 159,282 159,282 159,282 159,282 159,281 159,281 159,281 159,282 159,282 159,282 159,282 159,282 160,282 160,282 160,282 160,282 160,282 160,283 160,283 160,283 160,283 160,283 160,284 160,284 160,284 161,284 161,284 161,285 161,285 161,285 161,285 161,286 161,286 161,286 161,287 161,287 161,288 161,288 162,288 162,289 162,289 162,290 162,290 162,290 162,290 162,291 162,291 162,291 162,291 162,292 162,292 163,292 163,292 163,293 163,293 163,293 163,293 163,293 163,294 163,294 163,294 163,294 163,294 163,294 164,294 164,294 164,294 164,293 164,293 164,293 164,293 164,293 164,293 164,293 164,293 164,293 164,293 165,293 165,293 165,293 165,293 165,293 165,293 165,293 165,293 165,293 165,293 165,293 165,293 165,293 166,293 166,293 166,293 166,293 166,293 166,293 166,293 166,294 166,294 166,294 166,294 166,295 167,295 167,295 167,295 167,296 167,296 167,296 167,296 167,296 167,296 167,296 167,296 167,296 167,296 168,297 168,297 168,296 168,296 168,296 168,296 168,297 168,297 168,297 168,297 168,297 168,297 168,297 169,297 169,297 169,298 169,298 169,298 169,298 169,298 169,298 169,298 169,298 169,298 169,298 169,298 170,298 170,298 170,298 170,298 170,298 170,299 170,299 170,299 170,299 170,299 170,299 170,299 170,299 171,299 171,299 171,299 171,300 171,300 171,300 171,299 171,299 171,299 171,299 171,300 171,300 171,300 172,300 172,300 172,300 172,300 172,300 172,300 172,300 172,300 172,301 172,301 172,301 172,301 172,301 173,301 173,301 173,301 173,301 173,301 173,302 173,302 173,302 173,302 173,302 173,302 173,302 173,302 174,302 174,302 174,302 174,302 174,302 174,302 174,302 174,302 174,302 174,302 174,302 174,302 174,302 175,302 175,303 175,303 175,303 175,304 175,303 175,303 175,303 175,303 175,303 175,303 175,303 175,303 176,303 176,303 176,303 176,303 176,303 176,303 176,303 176,303 176,303 176,303 176,303 176,303 176,303 177,304 177,304 177,304 177,304 177,304 177,304 177,304 177,304 177,304 177,304 177,304 177,304 177,304 178,304 178,304 178,304 178,304 178,304 178,304 178,304 178,304 178,304 178,304 178,304 178,304 178,304 179,304 179,305 179,305 179,305 179,305 179,305 179,305 179,305 179,305 179,305 179,305 179,305 179,305 180,305 180,305 180,305 180,305 180,305 180,305 180,305 180,305 180,305 180,305 180,305 180,305 181,305 181,305 181,305 181,306 181,306 181,306 181,306 181,306 181,306 181,306 181,306 181,306 181,306 182,306 182,306 182,306 182,306 182,306 182,306 182,306 182,306 182,306 182,306 182,306 182,306 182,306 183,306 183,306 183,306 183,306 183,306 183,306 183,306 183,306 183,306 183,306 183,306 183,306 183,306 184,307 184,307 184,307 184,307 184,307 184,307 184,307 184,307 184,307 184,307 184,307 184,307 184,307 185,307 185,307 185,307 185,307 185,307 185,307 185,307 185,307 185,307 185,307 185,307 185,307 185,307 186,307 186,307 186,307 186,307 186,307 186,307 186,307 186,307 186,307 186,307 186,307 186,307 186,307 187,307 187,307 187,307 187,308 187,308 187,308 187,308 187,308 187,308 187,308 187,308 187,308 187,308 188,308 188,308 188,308 188,308 188,308 188,308 188,308 188,308 188,308 188,308 188,308 188,308 188,308 189,308 189,308 189,308 189,308 189,307 189,307 189,306 189,306 189,306 189,306 189,306 189,306 189,307 190,307 190,307 190,308 190,307 190,307 190,307 190,307 190,307 190,306 190,306 190,306 190,306 190,306 191,306 191,306 191,306 191,306 191,306 191,306 191,306 191,306 191,306 191,305 191,305 191,305 191,304 192,304 192,304 192,304 192,304 192,304 192,304 192,304 192,304 192,304 192,304 192,304 192,304 192,304 193,304 193,304 193,304 193,303 193,303 193,303 193,303 193,302 193,302 193,302 193,302 193,302 194,301 194,301 194,301 194,301 194,300 194,300 194,300 194,300 194,299 194,299 194,299 194,298 194,298 195,298 195,297 195,297 195,297 195,297 195,296 195,296 195,296 195,295 195,295 195,295 195,294 195,294 196,294 196,293 196,293 196,293 196,292 196,292 196,292 196,291 196,291 196,291 196,290 196,290 196,290 197,290 197,289 197,289 197,289 197,288 197,288 197,288 197,287 197,287 197,287 197,287 197,287 197,287 198,287 198,287 198,287 198,287 198,287 198,287 198,287 198,287 198,287 198,287 198,287 198,287 198,287 199,287 199,287 199,287 199,287 199,287 199,287 199,287 199,287 199,287 199,288 199,288 199,288 199,288 200,288 200,288 200,288 200,288 200,288 200,289 200,289 200,289 200,289 200,289 200,289 200,289 200,289 201,290 201,290 201,290 201,290 201,290 201,290 201,290 201,290 201,290 201,290 201,290 201,290 201,290 202,290 202,290 202,290 202,290 202,290 202,290 202,290 202,290 202,290 202,290 202,290 202,290 202,290 203,291 203,291 203,291 203,291 203,290 203,290 203,290 203,290 203,290 203,290 203,290 203,291 203,291 204,291 204,291 204,291 204,291 204,291 204,291 204,291 204,291 204,291 204,291 204,291 204,291 204,291 205,291 205,291 205,291 205,291 205,291 205,291 205,292 205,292 205,292 205,292 205,292 205,292 205,292 206,292 206,292 206,292 206,292 206,292 206,293 206,293 206,293 206,293 206,293 206,293 206,293 207,293 207,293 207,293 207,293 207,293 207,294 207,294 207,294 207,294 207,294 207,294 207,294 207,294 208,294 208,294 208,294 208,294 208,294 208,294 208,294 208,294 208,294 208,294 208,294 208,294 208,294 209,294 209,294 209,294 209,294 209,295 209,295 209,295 209,295 209,295 209,295 209,295 209,295 209,295 210,295 210,295 210,295 210,295 210,295 210,295 210,296 210,296 210,296 210,296 210,296 210,296 210,296 211,296 211,297 211,297 211,297 211,297 211,297 211,297 211,298 211,298 211,298 211,298 211,298 211,298 212,298 212,299 212,299 212,299 212,299 212,299 212,299 212,300 212,300 212,300 212,300 212,300 212,300 213,300 213,300 213,300 213,301 213,301 213,301 213,301 213,301 213,301 213,301 213,302 213,302 213,302 214,302 214,302 214,302 214,302 214,302 214,302 214,302 214,303 214,303 214,303 214,303 214,303 214,303 215,303 215,303 215,304 215,304 215,304 215,304 215,304 215,305 215,305 215,305 215,305 215,306 215,306 216,306 216,307 216,307 216,307 216,307 216,307 216,307 216,307 216,307 216,307 216,307 216,307 216,307 217,307 217,307 217,307 217,308 217,308 217,308 217,308 217,308 217,308 217,308 217,308 217,308 217,308 218,308 218,308 218,308 218,308 218,309 218,309 218,309 218,309 218,309 218,309 218,309 218,309 218,309 219,309 219,310 219,310 219,310 219,310 219,310 219,310 219,310 219,310 219,310 219,310 219,310 219,310 220,310 220,310 220,310 220,310 220,310 220,310 220,310 220,310 220,310 220,310 220,310 220,310 221,310 221,311 221,311 221,311 221,311 221,311 221,311 221,311 221,311 221,311 221,311 221,311 221,311 222,311 222,312 222,312 222,312 222,312 222,312 222,312 222,312 222,312 222,312 222,312 222,312 222,312 223,312 223,312 223,312 223,311 223,311 223,311 223,311 223,311 223,310 223,310 223,310 223,309 223,309 224,309 224,309 224,309 224,309 224,309 224,309 224,309 224,309 224,309 224,309 224,309 224,309 224,308 225,308 225,308 225,308 225,308 225,308 225,308 225,307 225,307 225,307 225,307 225,307 225,306 225,306 226,306 226,306 226,306 226,306 226,305 226,305 226,305 226,305 226,305 226,305 226,304 226,304 226,304 227,304 227,304 227,304 227,304 227,304 227,304 227,303 227,303 227,303 227,303 227,303 227,303 227,303 228,303 228,303 228,303 228,302 228,302 228,302 228,302 228,302 228,302 228,302 228,302 228,301 228,301 229,301 229,301 229,301 229,301 229,300 229,300 229,300 229,300 229,300 229,300 229,300 229,300 229,300 230,300 230,300 230,300 230,299 230,299 230,299 230,299 230,299 230,299 230,299 230,299 230,299 230,299 231,299 231,299 231,299 231,299 231,299 231,299 231,299 231,298 231,298 231,298 231,298 231,297 231,297 232,297 232,297 232,297 232,297 232,297 232,297 232,297 232,297 232,297 232,297 232,297 232,297 232,297 233,297 233,297 233,297 233,297 233,297 233,297 233,297 233,297 233,297 233,297 233,297 233,297 234,297 234,297 234,297 234,297 234,297 234,297 234,297 234,297 234,297 234,297 234,297 234,297 234,297 235,297 235,297 235,297 235,297 235,297 235,298 235,298 235,298 235,298 235,298 235,298 235,298 235,298 236,297 236,297 236,297 236,297 236,297 236,297 236,297 236,297 236,297 236,297 236,297 236,297 236,297 237,297 237,297 237,297 237,297 237,297 237,297 237,297 237,297 237,297 237,297 237,297 237,297 237,297 238,297 238,297 238,297 238,297 238,297 238,297 238,297 238,297 238,297 238,297 238,297 238,297 238,297 239,297 239,297 239,297 239,297 239,297 239,297 239,297 239,297 239,297 239,297 239,297 239,297 239,297 240,297 240,297 240,297 240,297 240,297 240,297 240,297 240,297 240,297 240,296 240,296 240,296 240,296 241,296 241,296 241,296 241,296 241,297 241,297 241,297 241,297 241,297 241,297 241,297 241,297 241,297 242,297 242,297 242,297 242,297 242,298 242,298 242,298 242,298 242,298 242,298 242,298 242,299 242,299 243,299 243,299 243,300 243,300 243,300 243,300 243,301 243,301 243,301 243,302 243,302 243,302 243,303 244,303 244,304 244,304 244,304 244,305 244,305 244,306 244,306 244,306 244,307 244,307 244,307 244,308 245,308 245,308 245,308 245,309 245,309 245,309 245,309 245,309 245,310 245,310 245,310 245,310 245,310 246,310 246,310 246,310 246,310 246,310 246,310 246,310 246,310 246,310 246,309 246,309 246,308 247,308 247,308 247,307 247,307 247,306 247,306 247,306 247,305 247,305 247,305 247,304 247,304 247,304 248,304 248,303 248,303 248,303 248,302 248,302 248,302 248,302 248,302 248,302 248,302 248,302 248,302 249,301 249,301 249,301 249,301 249,301 249,301 249,301 249,301 249,301 249,301 249,301 249,300 249,300 250,300 250,300 250,300 250,300 250,300 250,300 250,299 250,299 250,299 250,298 250,298 250,298 250,297 251,297 251,296 251,296 251,295 251,295 251,295 251,294 251,294 251,294 251,294 251,293 251,293 251,293 252,292 252,292 252,292 252,291 252,291 252,291 252,290 252,290 252,290 252,289 252,289 252,289 252,288 253,288 253,288 253,287 253,287 253,287 253,287 253,287 253,286 253,286 253,286 253,285 253,285 253,285 254,284 254,284 254,284 254,283 254,283 254,283 254,283 254,283 254,283 254,283 254,282 254,283 254,283 255,283 255,283 255,283 255,283 255,283 255,282 255,282 255,282 255,282 255,282 255,282 255,282 255,281 256,281 256,281 256,281 256,281 256,281 256,281 256,281 256,280 256,280 256,279 256,279 256,278 256,278 257,278 257,278 257,277 257,277 257,276 257,276 257,275 257,274 257,274 257,273 257,273 257,272 257,272 258,271 258,271 258,270 258,270 258,269 258,269 258,269 258,268 258,268 258,267 258,267 258,267 258,266 259,266 259,266 259,265 259,265 259,265 259,265 259,265 259,265 259,264 259,264 259,264 259,264 260,265 260,265 260,265 260,265 260,266 260,266 260,266 260,267 260,268 260,269 260,269 260,270 260,270 261,271 261,271 261,271 261,271 261,271 261,271 261,271 261,270 261,270 261,271 261,271 261,271 261,273 262,273 262,274 262,274 262,275 262,275 262,276 262,276 262,276 262,276 262,276 262,276 262,276 262,276 263,276 263,276 263,276 263,276 263,277 263,277 263,277 263,278 263,278 263,278 263,279 263,279 263,280 264,280 264,281 264,282 264,283 264,283 264,284 264,285 264,285 264,286 264,287 264,288 264,289 264,290 265,291 265,291 265,291 265,291 265,292 265,292 265,292 265,292 265,292 265,292 265,292 265,292 265,292 266,292 266,293 266,293 266,293 266,294 266,294 266,294 266,295 266,295 266,296 266,296 266,296 266,297 267,297 267,298 267,298 267,298 267,299 267,299 267,299 267,300 267,300 267,300 267,301 267,301 267,301 268,301 268,301 268,301 268,300 268,299 268,299 268,298 268,297 268,296 268,295 268,295 268,294 268,293 269,292 269,292 269,291 269,290 269,289 269,288 269,287 269,287 269,286 269,285 269,285 269,284 269,283 270,283 270,282 270,282 270,281 270,281 270,281 270,281 270,281 270,281 270,281 270,281 270,281 270,281 271,281 271,282 271,282 271,282 271,283 271,284 271,284 271,285 271,286 271,286 271,287 271,288 271,287 272,287 272,288 272,287 272,287 272,286 272,286 272,285 272,285 272,284 272,283 272,282 272,281 272,281 273,280 273,279 273,278 273,278 273,277 273,276 273,277 273,277 273,277 273,277 273,278 273,278 274,278 274,278 274,278 274,279 274,279 274,279 274,280 274,281 274,282 274,283 274,283 274,284 274,285 275,286 275,287 275,288 275,289 275,291 275,293 275,294 275,296 275,298 275,300 275,301 275,303 275,304 276,305 276,306 276,307 276,307 276,306 276,305 276,304 276,303 276,302 276,300 276,299 276,298 276,297 277,296 277,295 277,295 277,294 277,292 277,291 277,290 277,290 277,289 277,289 277,288 277,287 277,287 278,286 278,286 278,287 278,287 278,288 278,288 278,289 278,289 278,289 278,290 278,290 278,290 278,290 279,291 279,291 279,291 279,292 279,292 279,292 279,293 279,293 279,293 279,294 279,294 279,294 279,295 280,295 280,295 280,296 280,296 280,296 280,296 280,296 280,297 280,298 280,299 280,299 280,300 280,302 281,304 281,305 281,306 281,307 281,308 281,310 281,311 281,311 281,311 281,310 281,310 281,310 281,310 282,309 282,309 282,309 282,309 282,309 282,309 282,310 282,310 282,311 282,311 282,312 282,312 282,312 283,313 283,314 283,314 283,315 283,315 283,315 283,316 283,316 283,317 283,317 283,318 283,318 283,318 284,319 284,319 284,320 284,320 284,320 284,321 284,321 284,322 284,322 284,323 284,323 284,324 284,324 285,325 285,326 285,326 285,325 285,325 285,325 285,325 285,324 285,323 285,322 285,321 285,320 285,319 286,318 286,317 286,316 286,314 286,313 286,311 286,310 286,310 286,309 286,307 286,306 286,305 287,304 287,303 287,302 287,301 287,300 287,300 287,299 287,299 287,299 287,299 287,299 287,299 287,299 288,299 288,299 288,299 288,299 288,299 288,299 288,299 288,299 288,299 288,299 288,299 288,299 288,299 289,299 289,299 289,299 289,299 289,299 289,298 289,298 289,298 289,299 289,301 289,302 289,303 289,304 290,306 290,307 290,310 290,312 290,313 290,315 290,316 290,318 290,320 290,322 290,324 290,325 290,327 291,328 291,329 291,330 291,332 291,333 291,333 291,334 291,335 291,336 291,336 291,337 291,337 291,338 292,338 292,338 292,339 292,339 292,339 292,339 292,339 292,339 292,339 292,339 292,340 292,340 292,340 293,340 293,339 293,339 293,339 293,340 293,340 293,340 293,340 293,341 293,341 293,342 293,342 293,342 294,343 294,343 294,343 294,343 294,343 294,344 294,344 294,345 294,345 294,346 294,346 294,346 294,346 295,347 295,347 295,347 295,348 295,348 295,348 295,348 295,349 295,349 295,349 295,350 295,350 295,351 296,351 296,351 296,351 296,351 296,351 296,351 296,351 296,350 296,348 296,347 296,346 296,346 296,345 297,345 297,344 297,343 297,343 297,343 297,343 297,343 297,343 297,343 297,344 297,344 297,344 297,344 298,345 298,345 298,345 298,346 298,346 298,346 298,347 298,347 298,348 298,348 298,349 298,349 298,349 299,349 299,349 299,349 299,350 299,351 299,351 299,352 299,351 299,351 299,351 299,351 299,352 300,352 300,352 300,353 300,353 300,353 300,353 300,353 300,353 300,353 300,354 300,354 300,354 300,353 301,353 301,353 301,353 301,353 301,353 301,352 301,352 301,352 301,352 301,352 301,352 301,352 301,351 302,351 302,350 302,349 302,349 302,348 302,347 302,346 302,345 302,343 302,342 302,340 302,340 302,340 303,340 303,340 303,340 303,340 303,340 303,340 303,340 303,340 303,340 303,340 303,340 303,340 303,340 304,341 304,341 304,341 304,340 304,340 304,340 304,340 304,341 304,341 304,341 304,341 304,341 304,342 305,342 305,342 305,343 305,343 305,344 305,344 305,345 305,345 305,345 305,346 305,346 305,346 305,346 306,347 306,347 306,347 306,347 306,348 306,348 306,348 306,348 306,348 306,348 306,348 306,348 306,349 307,349 307,349 307,349 307,349 307,349 307,349 307,349 307,349 307,349 307,349 307,349 307,349 307,349 308,350 308,350 308,350 308,350 308,350 308,350 308,350 308,350 308,350 308,350 308,351 308,351 308,351 309,351 309,351 309,351 309,351 309,352 309,352 309,352 309,352 309,352 309,352 309,352 309,352 309,352 310,352 310,352 310,352 310,353 310,353 310,353 310,353 310,353 310,353 310,353 310,353 310,353 310,353 311,353 311,353 311,353 311,353 311,353 311,353 311,353 311,353 311,353 311,353 311,353 311,353 311,353 312,353 312,353 312,353 312,354 312,354 312,354 312,354 312,354 312,354 312,354 312,354 312,354 312,354 313,354 313,354 313,354 313,354 313,354 313,354 313,354 313,354 313,354 313,354 313,354 313,354 314,354 314,354 314,354 314,354 314,354 314,354 314,354 314,354 314,353 314,353 314,353 314,353 314,353 315,353 315,353 315,353 315,353 315,353 315,353 315,353 315,353 315,353 315,353 315,353 315,352 315,352 316,351 316,351 316,350 316,349 316,348 316,347 316,347 316,346 316,346 316,345 316,344 316,344 316,343 317,343 317,342 317,342 317,342 317,341 317,341 317,341 317,340 317,340 317,340 317,339 317,339 317,338 318,338 318,338 318,338 318,337 318,337 318,337 318,337 318,337 318,336 318,336 318,336 318,336 318,336 319,336 319,336 319,336 319,336 319,336 319,336 319,336 319,337 319,337 319,337 319,338 319,338 319,338 320,339 320,339 320,339 320,340 320,341 320,341 320,341 320,341 320,342 320,342 320,342 320,342 320,342 321,342 321,343 321,343 321,343 321,343 321,343 321,343 321,343 321,343 321,343 321,343 321,343 321,343 322,343 322,343 322,343 322,343 322,343 322,343 322,343 322,343 322,343 322,342 322,342 322,342 322,342 323,341 323,341 323,340 323,340 323,340 323,340 323,339 323,339 323,339 323,339 323,339 323,339 323,339 324,339 324,340 324,340 324,340 324,340 324,340 324,341 324,341 324,341 324,341 324,341 324,341 324,341 325,341 325,341 325,341 325,341 325,341 325,341 325,341 325,341 325,341 325,341 325,341 325,341 325,341 326,341 326,341 326,341 326,342 326,342 326,341 326,341 326,341 326,341 326,341 326,342 326,342 327,342 327,342 327,342 327,342 327,342 327,341 327,341 327,341 327,341 327,341 327,341 327,341 327,341 328,341 328,341 328,341 328,341 328,341 328,342 328,342 328,342 328,342 328,342 328,342 328,342 328,342 329,342 329,342 329,342 329,342 329,342 329,342 329,342 329,342 329,342 329,341 329,341 329,341 329,341 330,341 330,341 330,341 330,341 330,341 330,341 330,341 330,341 330,341 330,341 330,341 330,341 330,341 331,341 331,341 331,341 331,340 331,340 331,340 331,340 331,340 331,340 331,340 331,340 331,340 331,340 332,339 332,339 332,339 332,339 332,339 332,339 332,338 332,338 332,338 332,338 332,338 332,338 332,337 333,337 333,337 333,337 333,337 333,337 333,336 333,336 333,336 333,336 333,335 333,335 333,335 333,335 334,334 334,334 334,334 334,334 334,333 334,333 334,333 334,333 334,333 334,333 334,333 334,334 334,334 335,334 335,334 335,334 335,334 335,334 335,335 335,335 335,335 335,335 335,335 335,335 335,335 335,335 336,335 336,335 336,335 336,335 336,335 336,336 336,336 336,336 336,336 336,336 336,336 336,336 336,336 337,336 337,336 337,336 337,336 337,336 337,336 337,337 337,337 337,337 337,337 337,337 337,337 337,337 338,337 338,337 338,338 338,338 338,338 338,338 338,338 338,338 338,338 338,339 338,339 338,339 338,339 339,339 339,339 339,339 339,340 339,340 339,340 339,340 339,340 339,340 339,340 339,340 339,340 340,341 340,341 340,341 340,341 340,341 340,341 340,341 340,341 340,341 340,341 340,341 340,341 340,342 341,342 341,342 341,342 341,342 341,342 341,342 341,342 341,342 341,342 341,343 341,343 341,343 341,343 342,343 342,343 342,343 342,343 342,343 342,343 342,343 342,344 342,344 342,344 342,344 342,344 342,344 343,344 343,344 343,344 343,344 343,344 343,344 343,344 343,344 343,344 343,344 343,344 343,344 343,344 344,344 344,344 344,344 344,344 344,344 344,344 344,344 344,344 344,344 344,344 344,344 344,344 344,344 345,344 345,344 345,344 345,344 345,344 345,344 345,344 345,344 345,344 345,344 345,344 345,344 345,344 346,344 346,344 346,344 346,344 346,344 346,344 346,344 346,344 346,344 346,344 346,344 346,344 346,344 347,344 347,344 347,344 347,344 347,344 347,344 347,344 347,344 347,344 347,344 347,344 347,344 347,344 348,344 348,344 348,345 348,345 348,345 348,345 348,345 348,345 348,345 348,345 348,345 348,345 348,345 349,345 349,345 349,345 349,345 349,345 349,345 349,345 349,345 349,345 349,344 349,344 349,344 349,344 350,344 350,344 350,344 350,344 350,344 350,344 350,344 350,344 350,344 350,344 350,344 350,344 350,344 351,344 351,344 351,344 351,344 351,344 351,344 351,344 351,344 351,344 351,344 351,344 351,344 351,344 352,344 352,344 352,344 352,344 352,344 352,344 352,344 352,344 352,344 352,344 352,344 352,344 353,344 353,344 353,344 353,345 353,345 353,345 353,345 353,345 353,345 353,345 353,345 353,345 353,345 354,345 354,345 354,345 354,345 354,346 354,346 354,346 354,346 354,346 354,346 354,346 354,346 354,346 355,346 355,346 355,346 355,346 355,346 355,346 355,346 355,346 355,347 355,347 355,347 355,347 355,347 356,347 356,347 356,348 356,348 356,348 356,348 356,347 356,347 356,347 356,347 356,346 356,347 356,347 357,347 357,347 357,348 357,348 357,348 357,348 357,348 357,348 357,347 357,347 357,347 357,346 357,346 358,346 358,346 358,346 358,345 358,345 358,345 358,345 358,345 358,345 358,345 358,345 358,345 358,345 359,345 359,345 359,345 359,344 359,344 359,344 359,344 359,344 359,344 359,344 359,344 359,344 359,344 360,344 360,343 360,343 360,343 360,343 360,343 360,343 360,343 360,343 360,343 360,343 360,343 360,343 361,343 361,342 361,342 361,342 361,342 361,342 361,342 361,342 361,342 361,342 361,342 361,342 361,342 362,342 362,342 362,342 362,342 362,342 362,342 362,342 362,342 362,342 362,342 362,342 362,342 362,342 363,342 363,342 363,343 363,343 363,343 363,343 363,343 363,344 363,344 363,344 363,344 363,344 363,345 364,345 364,345 364,345 364,345 364,346 364,346 364,346 364,346 364,347 364,347 364,347 364,348 364,348 365,349 365,350 365,351 365,352 365,352 365,353 365,353 365,353 365,354 365,354 365,354 365,354 365,354 366,353 366,353 366,353 366,353 366,354 366,354 366,354 366,354 366,354 366,354 366,354 366,354 367,353 367,353 367,353 367,353 367,352 367,352 367,352 367,352 367,351 367,351 367,351 367,351 367,351 368,350 368,350 368,350 368,350 368,350 368,349 368,349 368,349 368,349 368,349 368,348 368,348 368,348 369,348 369,347 369,347 369,347 369,347 369,346 369,346 369,346 369,346 369,346 369,345 369,345 369,345 370,345 370,345 370,344 370,344 370,344 370,344 370,344 370,344 370,344 370,344 370,344 370,344 370,344 371,344 371,344 371,344 371,344 371,344 371,344 371,344 371,344 371,344 371,344 371,344 371,344 371,344 372,344 372,344 372,344 372,344 372,344 372,344 372,344 372,344 372,344 372,344 372,344 372,344 372,344 373,344 373,344 373,344 373,344 373,344 373,344 373,344 373,344 373,344 373,343 373,344 373,344 373,344 374,344 374,344 374,344 374,344 374,344 374,344 374,344 374,344 374,344 374,344 374,344 374,344 374,344 375,344 375,344 375,344 375,344 375,344 375,344 375,344 375,344 375,344 375,344 375,344 375,344 375,344 376,344 376,344 376,344 376,344 376,344 376,344 376,344 376,344 376,344 376,344 376,344 376,344 376,344 377,344 377,344 377,344 377,344 377,344 377,344 377,344 377,344 377,344 377,344 377,344 377,344 377,344 378,344 378,344 378,344 378,344 378,344 378,344 378,344 378,344 378,344 378,344 378,344 378,344 378,344 379,344 379,344 379,344 379,344 379,344 379,345 379,345 379,345 379,345 379,345 379,345 379,345 380,345 380,345 380,345 380,345 380,345 380,345 380,345 380,345 380,345 380,345 380,345 380,345 380,345 381,344 381,344 381,344 381,345 381,345 381,344 381,344 381,344 381,344 381,344 381,344 381,344 381,344 382,344 382,344 382,344 382,344 382,344 382,344 382,344 382,344 382,344 382,344 382,344 382,344 382,344 383,344 383,344 383,344 383,344 383,344 383,344 383,344 383,344 383,344 383,344 383,343 383,343 383,343 384,343 384,343 384,343 384,343 384,343 384,343 384,343 384,343 384,343 384,343 384,343 384,343 384,343 385,343 385,343 385,343 385,344 385,344 385,344 385,344 385,344 385,344 385,344 385,344 385,344 385,344 386,344 386,344 386,344 386,344 386,344 386,344 386,344 386,344 386,344 386,344 386,344 386,344 386,345 387,345 387,345 387,345 387,345 387,345 387,345 387,345 387,345 387,345 387,345 387,345 387,345 387,345 388,345 388,345 388,345 388,345 388,345 388,345 388,345 388,345 388,345 388,345 388,345 388,345 388,345 389,345 389,345 389,345 389,345 389,345 389,345 389,345 389,345 389,345 389,345 389,345 389,345 389,345 390,345 390,345 390,345 390,345 390,345 390,345 390,345 390,345 390,345 390,345 390,345 390,345 390,345 391,345 391,346 391,346 391,346 391,346 391,346 391,346 391,346 391,346 391,346 391,346 391,346 391,346 392,346 392,346 392,346 392,346 392,346 392,346 392,346 392,346 392,346 392,346 392,346 392,346 393,346 393,346 393,346 393,346 393,346 393,346 393,346 393,346 393,346 393,346 393,346 393,346 393,346 394,346 394,346 394,347 394,347 394,347 394,347 394,347 394,347 394,347 394,347 394,347 394,347 394,347 395,347 395,347 395,347 395,347 395,347 395,347 395,347 395,347 395,347 395,347 395,347 395,347 395,347 396,347 396,347 396,347 396,347 396,347 396,348 396,348 396,348 396,348 396,348 396,348 396,348 396,348 397,348 397,348 397,348 397,348 397,348 397,348 397,348 397,348 397,348 397,348 397,348 397,348 397,348 398,348 398,348 398,348 398,349 398,349 398,349 398,349 398,349 398,349 398,349 398,349 398,349 398,349 399,349 399,349 399,349 399,349 399,349 399,349 399,349 399,349 399,349 399,349 399,349 399,350 399,350 400,350 400,350 400,350 400,350 400,350 400,350 400,350 400,350 400,350 400,350 400,350 400,350 400,350 401,350 401,350 401,350 401,350 401,350 401,351 401,351 401,351 401,351 401,351 401,351 401,351 401,351 402,351 402,351 402,351 402,351 402,351 402,351 402,351 402,351 402,352 402,352 402,352 402,352 402,352 403,352 403,352 403,352 403,352 403,352 403,352 403,352 403,352 403,352 403,352 403,352 403,352 403,352 404,352 404,352 404,352 404,352 404,352 404,352 404,352 404,352 404,352 404,352 404,352 404,352 404,352 405,352 405,352 405,352 405,352 405,352 405,353 405,353 405,353 405,353 405,353 405,353 405,353 405,353 406,353 406,353 406,353 406,353 406,353 406,353 406,353 406,353 406,353 406,353 406,353 406,353 407,352 407,353 407,353 407,352 407,352 407,352 407,352 407,352 407,352 407,352 407,352 407,352 407,352 408,352 408,352 408,352 408,352 408,352 408,352 408,352 408,352 408,352 408,352 408,352 408,352 408,352 409,352 409,352 409,352 409,352 409,352 409,352 409,352 409,352 409,351 409,351 409,351 409,352 409,352 410,352 410,352 410,352 410,352 410,351 410,351 410,351 410,351 410,351 410,351 410,351 410,351 410,351 411,352 411,352 411,352 411,352 411,352 411,352 411,352 411,352 411,352 411,352 411,352 411,352 411,352 412,352 412,352 412,352 412,352 412,352 412,352 412,352 412,352 412,352 412,352 412,353 412,353 412,353 413,353 413,353 413,353 413,353 413,353 413,353 413,353 413,353 413,353 413,353 413,353 413,353 413,353 414,353 414,353 414,353 414,353 414,353 414,353 414,353 414,353 414,353 414,353 414,353 414,353 414,353 415,353 415,353 415,353 415,353 415,354 415,354 415,354 415,354 415,354 415,354 415,354 415,354 415,354 416,354 416,354 416,354 416,354 416,354 416,354 416,354 416,354 416,354 416,354 416,355 416,355 416,355 417,355 417,355 417,355 417,355 417,355 417,355 417,355 417,355 417,355 417,355 417,355 417,355 417,355 418,355 418,355 418,355 418,355 418,355 418,355 418,355 418,355 418,355 418,355 418,355 418,355 418,355 419,355 419,355 419,355 419,356 419,356 419,356 419,356 419,356 419,356 419,356 419,356 419,356 420,356 420,356 420,356 420,356 420,356 420,356 420,356 420,356 420,356 420,356 420,356 420,356 420,356 421,356 421,356 421,356 421,356 421,356 421,356 421,356 421,356 421,356 421,356 421,356 421,356 421,356 422,356 422,356 422,356 422,356 422,356 422,356 422,356 422,356 422,356 422,356 422,356 422,356 422,356 423,356 423,356 423,356 423,356 423,356 423,356 423,356 423,356 423,356 423,356 423,356 423,356 423,356 424,357 424,357 424,357 424,356 424,356 424,356 424,356 424,356 424,356 424,356 424,357 424,357 424,357 425,357 425,357 425,357 425,357 425,357 425,357 425,357 425,357 425,357 425,357 425,357 425,357 425,357 426,357 426,357 426,357 426,357 426,357 426,357 426,357 426,357 426,357 426,357 426,357 426,357 426,357 427,357 427,357 427,357 427,357 427,357 427,357 427,357 427,357 427,358 427,358 427,358 427,358 427,358 428,358 428,358 428,358 428,358 428,358 428,358 428,358 428,358 428,358 428,358 428,358 428,358 428,359 429,359 429,359 429,359 429,359 429,359 429,359 429,359 429,359 429,359 429,359 429,359 429,359 429,359 430,359 430,359 430,359 430,359 430,359 430,359 430,359 430,359 430,359 430,359 430,359 430,359 430,359 431,359 431,359 431,359 431,359 431,359 431,359 431,359 431,360 431,360 431,360 431,360 431,360 431,360 432,360 432,360 432,360 432,360 432,360 432,360 432,360 432,360 432,360 432,360 432,360 432,361 433,361 433,361 433,361 433,361 433,361 433,361 433,361 433,361 433,361 433,361 433,361 433,361 433,361 434,361 434,361 434,361 434,361 434,361 434,361 434,361 434,361 434,361 434,361 434,361 434,361 434,361 435,361 435,361 435,361 435,361 435,361 435,361 435,361 435,361 435,361 435,361 435,361 435,362 435,362 436,362 436,362 436,362 436,362 436,362 436,362 436,362 436,362 436,362 436,362 436,362 436,362 436,362 437,362 437,362 437,362 437,362 437,362 437,362 437,362 437,362 437,362 437,362 437,362 437,362 437,362 438,362 438,362 438,362 438,362 438,362 438,362 438,362 438,362 438,362 438,362 438,362 438,362 438,362 439,362 439,362 439,362 439,362 439,362 439,362 439,362 439,362 439,362 439,362 439,362 439,362 439,362 440,362 440,362 440,362 440,362 440,362 440,362 440,362 440,362 440,362 440,362 440,362 440,362 440,363 441,363 441,362 441,363 441,363 441,363 441,363 441,363 441,363 441,363 441,363 441,363 441,363 441,363 442,363 442,363 442,363 442,363 442,363 442,363 442,363 442,363 442,363 442,363 442,363 442,363 442,363 443,363 443,363 443,363 443,363 443,363 443,363 443,363 443,363 443,363 443,363 443,363 443,363 443,363 444,363 444,363 444,363 444,363 444,363 444,363 444,363 444,363 444,363 444,363 444,363 444,363 444,363 445,363 445,363 445,363 445,363 445,363 445,363 445,363 445,363 445,363 445,363 445,363 445,363 446,363 446,363 446,363 446,362 446,362 446,362 446,362 446,362 446,361 446,361 446,361 446,361 446,361 447,360 447,360 447,360 447,360 447,359 447,359 447,359 447,359 447,358 447,358 447,358 447,358 447,358 448,358 448,358 448,358 448,358 448,358 448,358 448,358 448,358 448,358 448,358 448,358 448,358 448,358 449,358 449,358 449,358 449,358 449,358 449,358 449,358 449,358 449,358 449,358 449,358 449,358 449,358 450,358 450,358 450,358 450,358 450,359 450,359 450,359 450,359 450,359 450,359 450,359 450,359 450,359 451,359 451,359 451,359 451,359 451,359 451,358 451,358 451,358 451,358 451,358 451,359 451,359 451,359 452,359 452,359 452,359 452,359 452,359 452,359 452,359 452,359 452,359 452,359 452,359 452,358 452,358 453,358 453,358 453,358 453,358 453,358 453,358 453,359 453,359 453,358 453,358 453,359 453,358 453,358 454,358 454,358 454,358 454,358 454,358 454,358 454,358 454,358 454,358 454,358 454,358 454,358 454,358 455,358 455,358 455,358 455,358 455,358 455,358 455,358 455,358 455,358 455,358 455,358 455,358 455,358 456,358 456,358 456,358 456,358 456,358 456,358 456,358 456,358 456,358 456,358 456,358 456,358 456,358 457,358 457,358 457,358 457,358 457,358 457,358 457,358 457,358 457,358 457,358 457,358 457,358 457,358 458,358 458,358 458,358 458,358 458,358 458,359 458,359 458,359 458,359 458,359 458,359 458,359 458,359 459,359 459,359 459,359 459,359 459,359 459,359 459,359 459,359 459,359 459,359 459,359 459,359 460,359 460,359 460,359 460,359 460,359 460,360 460,360 460,360 460,360 460,360 460,360 460,360 460,360 461,360 461,360 461,360 461,360 461,360 461,360 461,360 461,360 461,360 461,360 461,360 461,360 461,360 462,360 462,360 462,360 462,360 462,360 462,360 462,360 462,360 462,361 462,361 462,361 462,361 462,361 463,360 463,360 463,361 463,361 463,361 463,360 463,360 463,360 463,361 463,361 463,361 463,361 463,360 464,360 464,360 464,360 464,360 464,360 464,360 464,360 464,360 464,360 464,360 464,360 464,360 464,360 465,360 465,360 465,360 465,360 465,360 465,360 465,360 465,360 465,360 465,360 465,360 465,360 465,360 466,360 466,360 466,360 466,360 466,360 466,360 466,360 466,360 466,360 466,360 466,360 466,360 466,360 467,360 467,360 467,360 467,360 467,360 467,361 467,361 467,361 467,361 467,360 467,360 467,360 467,360 468,361 468,361 468,361 468,361 468,361 468,361 468,361 468,361 468,361 468,361 468,361 468,361 468,361 469,361 469,361 469,361 469,361 469,361 469,361 469,361 469,361 469,361 469,361 469,361 469,361 469,361 470,361 470,361 470,361 470,361 470,361 470,361 470,361 470,361 470,361 470,361 470,361 470,361 470,361 471,361 471,361 471,361 471,361 471,361 471,361 471,361 471,361 471,361 471,361 471,361 471,361 471,361 472,361 472,361 472,361 472,361 472,361 472,361 472,361 472,361 472,361 472,361 472,361 472,361 473,361 473,361 473,361 473,361 473,361 473,361 473,361 473,361 473,361 473,361 473,361 473,361 473,361 474,361 474,361 474,361 474,361 474,361 474,361 474,361 474,361 474,361 474,361 474,361 474,361 474,361 475,361 475,361 475,361 475,361 475,361 475,361 475,361 475,361 475,361 475,361 475,361 475,361 475,361 476,361 476,361 476,361 476,361 476,361 476,361 476,361 476,361 476,361 476,361 476,361 476,361 476,361 477,361 477,361 477,361 477,361 477,361 477,361 477,361 477,361 477,361 477,361 477,361 477,361 477,361 478,361 478,361 478,361 478,361 478,361 478,361 478,361 478,362 478,362 478,362 478,362 478,362 478,362 479,362 479,362 479,362 479,361 479,361 479,361 479,361 479,361 479,361 479,361 479,361 479,361 479,361 480,362 480,362 480,362 480,362 480,362 480,362 480,362 480,362 480,362 480,362 480,362 480,362 480,362 481,362 481,362 481,361 481,361 481,361 481,361 481,361 481,361 481,361 481,361 481,361 481,361 481,361 482,361 482,361 482,361 482,361 482,361 482,361 482,361 482,361 482,361 482,361 482,361 482,361 482,361 483,361 483,361 483,361 483,361 483,361 483,361 483,361 483,361 483,361 483,361 483,361 483,361 483,361 484,361 484,361 484,361 484,361 484,361 484,361 484,361 484,361 484,361 484,361 484,361 484,361 484,361 485,361 485,361 485,361 485,361 485,361 485,361 485,361 485,361 485,361 485,361 485,361 485,361 486,361 486,361 486,361 486,361 486,361 486,361 486,361 486,361 486,361 486,361 486,361 486,361 486,361 487,361 487,361 487,361 487,361 487,361 487,361 487,361 487,361 487,361 487,361 487,361 487,361 487,361 488,361 488,361 488,361 488,361 488,361 488,361 488,361 488,361 488,362 488,362 488,362 488,362 488,362 489,362 489,362 489,362 489,362 489,362 489,362 489,362 489,362 489,362 489,362 489,362 489,362 489,362 490,362 490,362 490,362 490,362 490,362 490,362 490,362 490,362 490,362 490,362 490,362 490,362 490,362 491,362 491,362 491,362 491,362 491,362 491,362 491,362 491,362 491,362 491,362 491,362 491,362 491,362 492,362 492,362 492,362 492,362 492,362 492,362 492,362 492,362 492,362 492,363 492,363 492,363 492,362 493,362 493,362 493,362 493,362 493,362 493,362 493,362 493,362 493,362 493,362 493,362 493,363 493,363 494,363 494,363 494,363 494,363 494,363 494,363 494,363 494,363 494,363 494,363 494,363 494,363 494,363 495,363 495,363 495,363 495,363 495,363 495,363 495,363 495,363 495,363 495,363 495,363 495,363 495,363 496,363 496,363 496,363 496,363 496,363 496,363 496,363 496,363 496,363 496,363 496,363 496,363 496,363 497,363 497,363 497,363 497,363 497,363 497,363 497,363 497,363 497,363 497,363 497,363 497,363 497,363 498,363 498,363 498,363 498,363 498,363 498,363 498,363 498,363 498,363 498,363 498,363 498,363 498,363 499,363 499,363 499,363 499,363 499,363 499,363 499,363 499,363 499,363 499,363 499,363 499,364 500,364 500,364 500,364 500,364 500,364 500,364 500,364 500,364 500,364 500,364 500,364 500,364 500,364 501,364 501,364 501,364 501,364 501,364 501,364 501,364 501,364 501,364 501,364 501,364 501,364 501,364 502,364 502,364 502,364 502,364 502,364 502,364 502,364 502,364 502,364 502,364 502,364 502,364 502,364 503,364 503,364 503,364 503,364 503,364 503,364 503,364 503,364 503,364 503,364 503,364 503,364 503,364 504,364 504,364 504,364 504,364 504,364 504,364 504,364 504,364 504,364 504,364 504,364 504,364 504,364 505,364 505,364 505,364 505,364 505,364 505,364 505,364 505,364 505,364 505,364 505,364 505,364 505,364 506,364 506,364 506,364 506,364 506,364 506,364 506,364 506,364 506,364 506,365 506,365 506,365 506,365 507,365 507,365 507,365 507,365 507,364 507,364 507,364 507,364 507,364 507,364 507,364 507,364 507,364 508,364 508,364 508,364 508,364 508,364 508,364 508,364 508,364 508,364 508,364 508,364 508,364 508,364 509,364 509,364 509,364 509,364 509,364 509,364 509,364 509,364 509,364 509,364 509,364 509,364 509,364 510,364 510,364 510,364 510,364 510,364 510,364 510,364 510,364 510,364 510,364 510,364 510,364 510,364 511,364 511,364 511,364 511,364 511,364 511,364 511,364 511,364 511,364 511,364 511,364 511,364 511,364 512,364 512,364 512,364 512,364 512,364 512,364 512,364 512,364 512,364 512,364 512,364 512,364 513,364 513,364 513,364 513,364 513,364 513,364 513,364 513,364 513,364 513,364 513,364 513,364 513,364 514,364 514,364 514,364 514,364 514,364 514,364 514,364 514,364 514,364 514,364 514,364 514,364 514,364 515,364 515,364 515,364 515,364 515,364 515,364 515,364 515,364 515,364 515,364 515,364 515,364 515,364 516,364 516,364 516,364 516,364 516,364 516,364 516,364 516,364 516,364 516,364 516,364 516,364 516,364 517,365 517,365 517,365 517,365 517,365 517,365 517,365 517,365 517,365 517,365 517,365 517,365 517,365 518,365 518,365 518,365 518,365 518,365 518,365 518,365 518,365 518,365 518,365 518,365 518,365 518,365 519,365 519,365 519,365 519,365 519,365 519,365 519,365 519,365 519,365 519,365 519,365 519,364 519,364 520,364 520,364 520,364 520,364 520,364 520,364 520,364 520,364 520,364 520,364 520,364 520,364 520,364 521,364 521,364 521,364 521,364 521,364 521,364 521,365 521,365 521,365 521,365 521,365 521,365 521,365 522,365 522,365 522,365 522,365 522,365 522,365 522,365 522,365 522,365 522,365 522,365 522,365 522,365 523,365 523,365 523,365 523,365 523,365 523,365 523,365 523,365 523,365 523,365 523,365 523,365 523,365 524,365 524,365 524,365 524,365 524,365 524,365 524,365 524,365 524,365 524,365 524,365 524,365 524,364 525,364 525,364 525,364 525,364 525,364 525,364 525,364 525,364 525,364 525,364 525,364 525,364 526,364 526,364 526,364 526,364 526,364 526,364 526,364 526,364 526,364 526,364 526,363 526,363 526,363 527,363 527,363 527,363 527,363 527,363 527,363 527,363 527,363 527,363 527,363 527,363 527,363 527,364 528,364 528,364 528,364 528,364 528,364 528,364 528,364 528,364 528,364 528,364 528,364 528,364 528,364 529,364 529,364 529,364 529,364 529,364 529,364 529,363 529,363 529,363 529,363 529,363 529,363 529,363 530,363 530,364 530,364 530,364 530,364 530,364 530,364 530,364 530,364 530,364 530,364 530,364 530,364 531,364 531,364 531,364 531,364 531,364 531,364 531,364 531,364 531,364 531,364 531,364 531,364 531,364 532,364 532,364 532,364 532,363 532,363 532,363 532,363 532,363 532,363 532,363 532,363 532,363 532,363 533,363 533,363 533,363 533,363 533,363 533,363 533,363 533,363 533,363 533,363 533,363 533,363 533,363 534,363 534,363 534,363 534,363 534,363 534,363 534,363 534,363 534,363 534,363 534,364 534,364 534,363 535,363 535,363 535,363 535,363 535,363 535,364 535,363 535,363 535,363 535,363 535,364 535,364 535,364 536,364 536,364 536,364 536,364 536,364 536,364 536,364 536,364 536,364 536,364 536,364 536,364 536,364 537,364 537,364 537,364 537,364 537,364 537,364 537,364 537,364 537,364 537,364 537,364 537,364 537,364 538,364 538,364 538,364 538,365 538,365 538,365 538,365 538,365 538,365 538,365 538,365 538,365 539,365 539,365 539,365 539,365 539,365 539,365 539,365 539,365 539,365 539,365 539,365 539,365 539,365 540,365 540,365 540,365 540,365 540,365 540,365 540,365 540,365 540,365 540,365 540,365 540,366 540,366 541,366 541,366 541,366 541,366 541,366 541,366 541,366 541,366 541,366 541,366 541,366 541,366 541,366 542,366 542,366 542,366 542,366 542,366 542,366 542,366 542,366 542,366 542,366 542,366 542,366 542,366 543,366 543,366 543,367 543,367 543,367 543,367 543,367 543,367 543,367 543,367 543,367 543,367 543,367 544,367 544,367 544,367 544,367 544,367 544,367 544,367 544,367 544,367 544,367 544,367 544,367 544,367 545,367 545,367 545,367 545,367 545,367 545,367 545,367 545,367 545,367 545,367 545,367 545,367 545,367 546,367 546,367 546,368 546,368 546,368 546,368 546,368 546,368 546,368 546,368 546,367 546,367 546,367 547,367 547,367 547,367 547,367 547,367 547,367 547,367 547,367 547,367 547,367 547,367 547,367 547,367 548,367 548,367 548,367 548,367 548,367 548,368 548,368 548,368 548,368 548,368 548,368 548,368 548,368 549,367 549,367 549,368 549,368 549,368 549,368 549,368 549,368 549,368 549,368 549,368 549,368 549,368 550,368 550,368 550,368 550,368 550,368 550,368 550,368 550,368 550,368 550,368 550,368 550,368 550,368 551,368 551,368 551,368 551,368 551,368 551,368 551,368 551,368 551,368 551,368 551,368 551,368 551,368 552,368 552,368 552,368 552,368 552,368 552,368 552,368 552,368 552,368 552,368 552,368 552,368 553,368 553,368 553,368 553,368 553,368 553,368 553,368 553,368 553,368 553,368 553,368 553,368 553,368 554,368 554,368 554,368 554,368 554,368 554,368 554,368 554,368 554,368 554,368 554,368 554,368 554,368 555,368 555,368 555,368 555,368 555,368 555,368 555,368 555,368 555,368 555,368 555,368 555,368 555,368 556,368 556,368 556,368 556,368 556,368 556,368 556,368 556,369 556,369 556,369 556,369 556,369 556,369 557,369 557,369 557,369 557,369 557,369 557,369 557,369 557,369 557,369 557,369 557,369 557,369 557,369 558,369 558,369 558,369 558,369 558,369 558,369 558,369 558,369 558,369 558,370 558,370 558,370 558,370 559,370 559,369 559,369 559,369 559,369 559,369 559,369 559,369 559,369 559,369 559,369 559,369 559,369 560,369 560,369 560,369 560,370 560,370 560,370 560,370 560,370 560,370 560,370 560,370 560,370 560,370 561,370 561,370 561,370 561,370 561,370 561,370 561,370 561,370 561,370 561,370 561,370 561,370 561,370 562,370 562,370 562,370 562,370 562,370 562,370 562,370 562,370 562,370 562,370 562,370 562,370 562,370 563,370 563,370 563,370 563,370 563,370 563,370 563,370 563,369 563,369 563,369 563,369 563,369 563,369 564,369 564,369 564,369 564,369 564,369 564,369 564,369 564,369 564,369 564,369 564,369 564,369 564,369 565,369 565,369 565,369 565,369 565,369 565,369 565,369 565,369 565,369 565,369 565,369 565,369 566,369 566,369 566,369 566,369 566,369 566,369 566,369 566,369 566,369 566,369 566,369 566,369 566,370 567,370 567,370 567,370 567,370 567,370 567,370 567,370 567,370 567,370 567,370 567,370 567,370 567,370 568,370 568,370 568,370 568,370 568,370 568,370 568,370 568,370 568,370 568,370 568,370 568,370 568,370 569,370 569,370 569,370 569,370 569,370 569,370 569,370 569,370 569,370 569,370 569,370 569,370 569,370 570,370 570,370 570,370 570,370 570,370 570,370 570,370 570,370 570,370 570,369 570,369 570,369 570,369 571,369 571,369 571,369 571,369 571,370 571,370 571,370 571,370 571,370 571,370 571,370 571,370 571,370 572,370 572,370 572,370 572,370 572,370 572,370 572,370 572,370 572,370 572,370 572,370 572,370 572,370 573,370 573,370 573,371 573,371 573,371 573,371 573,371 573,371 573,371 573,371 573,371 573,371 573,371 574,371 574,371 574,371 574,371 574,371 574,371 574,371 574,371 574,371 574,371 574,371 574,371 574,371 575,371 575,371 575,371 575,371 575,371 575,371 575,371 575,371 575,371 575,371 575,371 575,371 575,371 576,371 576,371 576,371 576,371 576,371 576,371 576,371 576,371 576,371 576,371 576,371 576,371 576,371 577,371 577,371 577,371 577,371 577,371 577,371 577,371 577,371 577,371 577,371 577,371 577,371 577,371 578,371 578,371 578,371 578,371 578,371 578,371 578,371 578,371 578,371 578,371 578,371 578,371 579,371 579,371 579,371 579,371 579,371 579,371 579,371 579,371 579,371 579,371 579,371 579,371 579,371 580,371 580,371 580,371 580,371 580,371 580,371 580,371 580,371 580,371 580,371 580,371 580,371 580,371 581,371 581,371 581,371 581,371 581,371 581,371 581,371 581,371 581,371 581,371 581,371 581,371 581,371 582,371 582,371 582,371 582,371 582,371 582,371 582,371 582,371 582,372 582,372 582,372 582,372 582,372 583,372 583,372 583,372 583,372 583,372 583,372 583,372 583,372 583,372 583,372 583,372 583,372 583,372 584,372 584,372 584,372 584,372 584,372 584,372 584,372 584,372 584,372 584,372 584,372 584,372 584,372 585,372 585,372 585,372 585,372 585,372 585,372 585,372 585,372 585,372 585,372 585,372 585,372 585,372 586,372 586,372 586,372 586,372 586,372 586,372 586,372 586,372 586,372 586,372 586,372 586,372 586,372 587,372 587,372 587,372 587,372 587,372 587,372 587,372 587,372 587,372 587,372 587,372 587,372 587,372 588,372 588,373 588,373 588,373 588,373 588,373 588,373 588,373 588,373 588,373 588,373 588,373 588,373 589,373 589,373 589,373 589,373 589,373 589,373 589,373 589,373 589,373 589,373 589,373 589,373 589,373 590,373 590,373 590,373 590,373 590,373 590,373 590,373 590,373 590,373 590,373 590,373 590,373 590,373 591,373 591,373 591,373 591,373 591,373 591,373 591,373 591,373 591,373 591,373 591,373 591,373 591,373 592,373 592,373 592,373 592,373 592,373 592,373 592,373 592,373 592,373 592,373 592,373 592,373 593,373 593,373 593,373 593,373 593,373 593,373 593,373 593,373 593,373 593,373 593,373 593,373 593,373 594,373 594,373 594,373 594,373 594,373 594,373 594,374 594,373 594,373 594,373 594,374 594,374 594,374 595,374 595,374 595,374 595,374 595,374 595,373 595,373 595,374 595,374 595,374 595,374 595,373 595,373 596,373 596,373 596,373 596,373 596,373 596,373 596,373 596,373 596,373 596,373 596,373 596,373 596,373 597,373 597,373 597,373 597,373 597,373 597,373 597,373 597,373 597,373 597,373 597,373 597,373 597,373 598,373 598,373 598,373 598,373 598,373 598,373 598,373 598,373 598,373 598,373 598,373 598,373 598,373 599,373 599,373 599,373 599,373 599,373 599,373 599,373 599,373 599,373 599,373 599,373 599,373 599,373 600,373 600,373 600,373 600,373 600,373 600,373 600,373 600,373 600,374 600,374 600,374 600,374 600,374 601,374 601,374 601,374 601,374 601,374 601,374 601,374 601,374 601,374 601,374 601,374 601,374 601,374 602,374 602,374 602,374 602,374 602,374 602,374 602,374 602,374 602,374 602,374 602,374 602,374 602,374 603,374 603,374 603,374 603,374 603,374 603,374 603,374 603,374 603,374 603,374 603,374 603,374 603,374 604,374 604,374 604,374 604,374 604,374 604,374 604,374 604,374 604,374 604,374 604,374 604,374 604,374 605,374 605,374 605,374 605,374 605,374 605,374 605,374 605,374 605,374 605,374 605,374 605,374 606,374 606,374 606,374 606,374 606,374 606,374 606,374 606,374 606,374 606,374 606,374 606,374 606,374 607,374 607,374 607,374 607,374 607,374 607,374 607,374 607,374 607,374 607,374 607,374 607,374 607,374 608,374 608,374 608,374 608,374 608,374 608,374 608,374 608,374 608,374 608,374 608,374 608,374 608,374 609,374 609,374 609,374 609,374 609,374 609,374 609,374 609,374 609,374 609,374 609,374 609,374 609,374 610,374 610,374 610,374 610,374 610,374 610,374 610,374 610,374 610,374 610,374 610,374 610,374 610,374 611,374 611,374 611,374 611,374 611,374 611,374 611,374 611,374 611,374 611,374 611,374 611,374 611,374 612,374 612,374 612,374 612,374 612,374 612,374 612,374 612,374 612,374 612,374 612,374 612,374 612,374 613,374 613,374 613,374 613,374 613,374 613,374 613,374 613,374 613,374 613,374 613,374 613,374 613,374 614,374 614,374 614,374 614,374 614,374 614,374 614,374 614,374 614,374 614,374 614,374 614,374 614,374 615,374 615,374 615,374 615,374 615,374 615,374 615,374 615,374 615,374 615,374 615,374 615,374 615,374 616,374 616,374 616,374 616,374 616,374 616,374 616,374 616,374 616,374 616,374 616,374 616,374 616,374 617,374 617,374 617,374 617,374 617,374 617,374 617,374 617,374 617,374 617,373 617,373 617,373 617,373 618,373 618,373 618,373 618,373 618,373 618,373 618,373 618,373 618,373 618,373 618,373 618,373 619,373 619,372 619,372 619,373 619,373 619,373 619,373 619,373 619,373 619,373 619,373 619,373 619,373 620,373 620,373 620,373 620,373 620,373 620,374 620,374 620,374 620,374 620,374 620,374 620,374 620,374 621,374 621,374 621,374 621,374 621,374 621,374 621,374 621,374 621,374 621,374 621,374 621,374 621,374 622,374 622,374 622,374 622,374 622,374 622,374 622,374 622,374 622,374 622,374 622,374 622,374 622,374 623,374 623,374 623,374 623,374 623,374 623,374 623,374 623,374 623,374 623,374 623,374 623,374 623,374 624,374 624,374 624,374 624,374 624,374 624,374 624,374 624,374 624,374 624,374 624,374 624,374 624,374 625,374 625,374 625,374 625,374 625,374 625,374 625,374 625,374 625,374 625,374 625,374 625,374 625,374 626,374 626,374 626,374 626,374 626,374 626,374 626,374 626,374 626,374 626,374 626,374 626,374 626,374 627,374 627,374 627,374 627,374 627,374 627,374 627,374 627,374 627,374 627,374 627,374 627,374 627,374 628,374 628,374 628,374 628,374 628,374 628,374 628,374 628,374 628,374 628,374 628,374 628,374 628,374 629,374 629,374 629,374 629,374 629,374 629,374 629,374 629,374 629,374 629,374 629,374 629,374 629,374 630,374 630,374 630,374 630,374 630,374 630,374 630,374 630,373 630,373 630,373 630,373 630,373 630,373 631,373 631,373 631,373 631,373 631,373 631,373 631,373 631,373 631,373 631,373 631,373 631,373 632,372 632,372 632,372 632,373 632,373 632,373 632,373 632,373 632,373 632,373 632,373 632,373 632,373 633,373 633,373 633,373 633,373 633,373 633,373 633,373 633,373 633,373 633,373 633,373 633,373 633,373 634,373 634,373 634,373 634,373 634,373 634,373 634,373 634,373 634,373 634,373 634,373 634,373 634,373 635,373 635,373 635,373 635,373 635,373 635,373 635,373 635,373 635,373 635,373 635,373 635,373 635,373 636,373 636,373 636,373 636,373 636,373 636,373 636,373 636,373 636,373 636,373 636,373 636,373 636,373 637,373 637,373 637,373 637,373 637,373 637,373 637,373 637,373 637,373 637,373 637,373 637,373 637,373 638,373 638,373 638,373 638,373 638,373 638,373 638,373 638,373 638,373 638,373 638,373 638,373 638,373 639,374 639,374 639,374 639,374 639,374 639,374 639,374 639,373 639,373 639,373 639,373 639,373 639,373 640,373 640,373 640,373 640,373 640,373 640,373 640,373 640,373 640,373 640,373 640,373 640,373 640,373 641,373 641,373 641,373 641,373 641,373 641,373 641,373 641,373 641,373 641,373 641,373 641,373 641,373 642,373 642,372 642,372 642,372 642,372 642,372 642,373 642,373 642,373 642,373 642,373 642,373 642,373 643,373 643,373 643,373 643,373 643,373 643,373 643,373 643,373 643,373 643,373 643,373 643,373 643,373 644,373 644,373 644,373 644,373 644,373 644,373 644,373 644,373 644,373 644,373 644,373 644,373 644,373 645,373 645,373 645,373 645,373 645,373 645,373 645,373 645,373 645,373 645,373 645,373 645,373 646,373 646,373 646,373 646,373 646,373 646,373 646,373 646,373 646,373 646,373 646,374 646,374 646,374 647,374 647,374 647,374 647,374 647,374 647,374 647,374 647,374 647,374 647,374 647,374 647,374 647,374 648,374 648,374 648,374 648,374 648,374 648,374 648,374 648,374 648,374 648,374 648,374 648,374 648,374 649,374 649,374 649,374 649,374 649,374 649,374 649,374 649,374 649,374 649,374 649,374 649,374 649,374 650,374 650,374 650,374 650,374 650,374 650,374 650,374 650,374 650,374 650,374 650,374 650,374 650,374 651,374 651,374 651,374 651,374 651,374 651,374 651,374 651,374 651,374 651,374 651,374 651,374 651,374 652,374 652,374 652,374 652,373 652,373 652,373 652,373 652,373 652,373 652,373 652,373 652,373 652,373 653,373 653,373 653,373 653,373 653,373 653,373 653,373 653,373 653,373 653,373 653,373 653,373 653,373 654,373 654,373 654,373 654,373 654,373 654,373 654,373 654,373 654,373 654,373 654,373 654,373 654,373 655,373 655,373 655,373 655,373 655,373 655,373 655,373 655,373 655,373 655,373 655,373 655,373 655,373 656,373 656,373 656,373 656,373 656,373 656,373 656,373 656,373 656,373 656,373 656,373 656,373 656,373 657,373 657,373 657,373 657,373 657,373 657,373 657,373 657,373 657,373 657,373 657,373 657,373 657,373 658,373 658,373 658,373 658,373 658,373 658,373 658,373 658,373 658,373 658,373 658,373 658,373 659,373 659,373 659,373 659,373 659,373 659,373 659,373 659,373 659,373 659,373 659,373 659,373 659,373 660,373 660,373 660,373 660,373 660,373 660,373 660,373 660,373 660,373 660,373 660,373 660,373 660,373 661,374 661,374 661,374 661,374 661,374 661,374 661,374 661,374 661,374 661,374 661,374 661,374 661,374 662,374 662,374 662,374 662,374 662,374 662,374 662,374 662,374 662,374 662,374 662,374 662,374 662,374 663,374 663,374 663,374 663,374 663,373 663,373 663,373 663,373 663,373 663,373 663,373 663,373 663,373 664,373 664,373 664,373 664,373 664,374 664,374 664,374 664,374 664,374 664,374 664,374 664,374 664,374 665,374 665,374 665,374 665,374 665,374 665,374 665,374 665,374 665,374 665,374 665,374 665,374 665,374 666,374 666,374 666,374 666,374 666,374 666,374 666,374 666,373 666,373 666,373 666,373 666,373 666,373 667,373 667,373 667,373 667,373 667,373 667,373 667,373 667,373 667,373 667,373 667,373 667,373 667,373 668,373 668,373 668,374 668,374 668,374 668,374 668,373 668,373 668,373 668,373 668,373 668,373 668,373 669,373 669,373 669,373 669,373 669,373 669,373 669,373 669,373 669,373 669,373 669,373 669,373 669,373 670,373 670,373 670,373 670,373 670,373 670,373 670,373 670,373 670,373 670,373 670,373 670,373 670,373 671,373 671,373 671,373 671,373 671,374 671,374 671,374 671,373 671,373 671,373 671,373 671,373 672,373 672,373 672,373 672,373 672,373 672,373 672,373 672,373 672,373 672,373 672,373 672,373 672,373 673,373 673,373 673,373 673,373 673,374 673,374 673,374 673,374 673,374 673,374 673,374 673,374 673,374 674,374 674,374 674,374 674,374 674,374 674,374 674,374 674,374 674,374 674,374 674,374 674,374 674,374 675,374 675,374 675,374 675,374 675,374 675,374 675,374 675,374 675,374 675,374 675,374 675,374 675,374 676,374 676,374 676,374 676,374 676,374 676,374 676,374 676,374 676,374 676,374 676,374 676,374 676,374 677,374 677,374 677,374 677,374 677,374 677,374 677,373 677,373 677,373 677,373 677,373 677,374 677,374 678,374 678,373 678,373 678,373 678,373 678,373 678,373 678,373 678,373 678,373 678,373 678,373 678,373 679,373 679,373 679,373 679,373 679,373 679,373 679,373 679,373 679,373 679,373 679,373 679,373 679,373 680,373 680,374 680,374 680,374 680,374 680,374 680,374 680,374 680,374 680,374 680,374 680,374 680,374 681,374 681,374 681,374 681,374 681,374 681,374 681,374 681,374 681,374 681,374 681,374 681,374 681,374 682,374 682,374 682,374 682,374 682,374 682,374 682,374 682,374 682,374 682,374 682,374 682,374 682,374 683,374 683,374 683,374 683,374 683,374 683,374 683,374 683,374 683,374 683,374 683,374 683,374 683,374 684,374 684,374 684,374 684,374 684,374 684,374 684,374 684,374 684,374 684,374 684,374 684,374 684,374 685,374 685,374 685,374 685,374 685,374 685,374 685,374 685,374 685,374 685,374 685,374 685,374 686,374 686,374 686,374 686,374 686,374 686,374 686,374 686,374 686,375 686,375 686,375 686,375 686,375 687,374 687,374 687,374 687,374 687,374 687,374 687,373 687,373 687,373 687,374 687,374 687,374 687,374 688,374 688,374 688,374 688,374 688,374 688,374 688,374 688,374 688,374 688,374 688,374 688,374 688,374 689,374 689,374 689,374 689,374 689,374 689,374 689,374 689,374 689,374 689,374 689,374 689,374 689,374 690,374 690,374 690,374 690,374 690,374 690,374 690,374 690,374 690,374 690,374 690,374 690,374 690,374 691,374 691,374 691,374 691,374 691,374 691,374 691,374 691,374 691,374 691,374 691,374 691,374 691,374 692,374 692,374 692,374 692,374 692,374 692,374 692,374 692,374 692,374 692,374 692,374 692,374 692,374 693,374 693,374 693,374 693,374 693,374 693,374 693,374 693,374 693,374 693,374 693,374 693,374 693,374 694,374 694,374 694,374 694,374 694,374 694,374 694,374 694,374 694,374 694,374 694,374 694,374 694,374 695,374 695,374 695,374 695,374 695,374 695,374 695,374 695,374 695,374 695,374 695,374 695,374 695,374 696,374 696,374 696,374 696,374 696,374 696,374 696,374 696,374 696,374 696,374 696,374 696,374 696,374 697,374 697,374 697,374 697,374 697,374 697,374 697,374 697,374 697,374 697,374 697,374 697,374 697,374 698,374 698,374 698,374 698,374 698,374 698,374 698,374 698,374 698,374 698,374 698,374 698,374 699,374 699,374 699,374 699,374 699,374 699,374 699,374 699,374 699,374 699,374 699,374 699,374 699,374 700,374 700,374 700,374 700,374 700,374 700,374 700,374 700,374 700,374 700,374 700,374 700,374 700,374 701,374 701,374 701,374 701,374 701,374 701,374 701,374 701,374 701,374 701,374 701,374 701,374 701,374 702,374 702,374 702,374 702,374 702,374 702,374 702,374 702,374 702,374 702,374 702,374 702,374 702,374 703,374 703,374 703,374 703,374 703,374 703,374 703,374 703,374 703,374 703,374 703,374 703,374 703,374 704,374 704,374 704,374 704,374 704,374 704,374 704,374 704,374 704,374 704,374 704,374 704,374 704,374 705,374 705,374 705,374 705,374 705,374 705,374 705,374 705,374 705,374 705,374 705,374 705,374 705,374 706,374 706,374 706,374 706,374 706,374 706,374 706,374 706,374 706,374 706,374 706,374 706,374 706,374 707,374 707,374 707,374 707,374 707,374 707,374 707,374 707,374 707,374 707,374 707,374 707,374 707,374 708,374 708,374 708,374 708,374 708,374 708,374 708,374 708,374 708,374 708,374 708,374 708,373 708,373 709,373 709,373 709,373 709,373 709,373 709,373 709,373 709,372 709,372 709,372 709,372 709,371 709,371 710,370 710,370 710,370 710,371 710,371 710,372 710,373 710,373 710,373 710,374 710,374 710,374 710,374 711,374 711,374 711,374 711,374 711,374 711,374 711,373 711,373 711,373 711,373 711,373 711,373 712,373 712,373 712,373 712,373 712,373 712,373 712,373 712,373 712,371 712,369 712,367 712,365 712,365 713,366 713,366 713,367 713,368 713,369 713,370 713,370 713,371 713,371 713,372 713,373 713,373 713,373 714,373 714,373 714,373 714,373 714,373 714,373 714,373 714,373 714,373 714,373 714,373 714,373 714,373 715,373 715,373 715,373 715,373 715,373 715,373 715,373 715,373 715,373 715,374 715,374 715,374 715,374 716,374 716,374 716,374 716,374 716,374 716,374 716,374 716,374 716,374 716,374 716,374 716,374 716,374 717,374 717,374 717,374 717,374 717,374 717,374 717,374 717,374 717,374 717,374 717,374 717,374 717,374 718,374 718,374 718,374 718,374 718,374 718,374 718,374 718,374 718,374 718,374 718,374 718,374 718,374 719,374 719,374 719,374 719,374 719,374 719,374 719,374 719,374 719,374 719,374 719,374 719,374 719,374 720,374 720,374 720,374 720,374 720,374 720,374 720,374 720,374 720,374 720,374 720,374 720,374 720,374 721,374 721,374 721,374 721,374 721,374 721,374 721,374 721,374 721,374 721,374 721,374 721,374 721,374 722,374 722,374 722,374 722,374 722,374 722,374 722,374 722,374 722,374 722,374 722,374 722,374 722,374 723,374 723,374 723,374 723,374 723,374 723,374 723,374 723,374 723,374 723,374 723,374 723,374 723,374 724,374 724,375 724,375 724,375 724,375 724,375 724,374 724,374 724,374 724,374 724,374 724,374 725,374 725,374 725,374 725,374 725,374 725,374 725,374 725,374 725,374 725,374 725,374 725,374 725,374 726,374 726,374 726,374 726,374 726,374 726,374 726,374 726,374 726,374 726,375 726,375 726,375 726,375 727,375 727,375 727,375 727,375 727,375 727,375 727,375 727,375 727,375 727,375 727,375 727,375 727,375 728,375 728,375 728,375 728,375 728,375 728,375 728,375 728,375 728,375 728,375 728,375 728,375 728,375 729,375 729,375 729,375 729,375 729,375 729,375 729,375 729,375 729,375 729,375 729,375 729,375 729,375 730,375 730,375 730,375 730,375 730,375 730,375 730,375 730,375 730,375 730,375 730,375 730,375 730,375 731,375 731,375 731,375 731,375 731,375 731,375 731,375 731,375 731,375 731,375 731,375 731,375 731,375 732,375 732,375 732,375 732,375 732,375 732,375 732,375 732,375 732,375 732,375 732,375 732,375 732,375 733,375 733,375 733,374 733,374 733,374 733,374 733,374 733,374 733,374 733,374 733,374 733,374 733,374 734,374 734,374 734,374 734,375 734,375 734,375 734,375 734,375 734,375 734,375 734,375 734,375 734,375 735,375 735,375 735,375 735,375 735,375 735,375 735,375 735,375 735,375 735,375 735,375 735,375 735,375 736,375 736,375 736,375 736,375 736,376 736,376 736,377 736,377 736,378 736,379 " vector-effect="non-scaling-stroke"></polyline>
</g></svg>