<?xml version="1.0" encoding="utf-8"?>
<!-- Generator: Adobe Illustrator 19.2.0, SVG Export Plug-In . SVG Version: 6.00 Build 0)  -->
<svg version="1.1" id="Layer_1" xmlns="http://www.w3.org/2000/svg" xmlns:xlink="http://www.w3.org/1999/xlink" x="0px" y="0px"
	 viewBox="0 0 24 24" style="enable-background:new 0 0 24 24;" xml:space="preserve">
<style type="text/css">
	.st0{fill:none;}
	.st1{fill:#FFFFFF;}
</style>
<path class="st0" d="M0,0h24v24H0V0z"/>
<path class="st1" d="M19.8,15l1.2-0.9l-1.4-1.4l-1.2,0.9L19.8,15z M19.4,10.3L21,9l-9-7L9.1,4.3l7.9,7.9
	C17,12.1,19.4,10.3,19.4,10.3z M3.3,1L2,2.3l4.2,4.2L3,9l1.6,1.3L12,16l2.1-1.6l1.4,1.4L12,18.5l-7.4-5.7L3,14.1l9,7l5-3.9l3.8,3.8
	l1.3-1.3L3.3,1z"/>
</svg>
