<?xml version="1.0" encoding="utf-8"?>
<!-- Generator: Adobe Illustrator 19.2.0, SVG Export Plug-In . SVG Version: 6.00 Build 0)  -->
<svg version="1.1" id="Layer_1" xmlns="http://www.w3.org/2000/svg" xmlns:xlink="http://www.w3.org/1999/xlink" x="0px" y="0px"
	 width="112.8px" height="130.2px" viewBox="0 0 112.8 130.2" style="enable-background:new 0 0 112.8 130.2;" xml:space="preserve"
	>
<style type="text/css">
	.st0{fill:#FFFFFF;}
</style>
<g>
	<rect x="61.9" y="67.3" transform="matrix(0.5001 -0.866 0.866 0.5001 -28.1912 90.3044)" class="st0" width="4.5" height="4.5"/>
	
		<rect x="100.5" y="89.6" transform="matrix(0.4999 -0.8661 0.8661 0.4999 -28.1891 134.9385)" class="st0" width="4.5" height="4.5"/>
	
		<rect x="85.1" y="80.7" transform="matrix(0.4998 -0.8661 0.8661 0.4998 -28.1845 117.105)" class="st0" width="4.5" height="4.5"/>
	
		<rect x="92.8" y="85.2" transform="matrix(0.4999 -0.8661 0.8661 0.4999 -28.1882 126.0161)" class="st0" width="4.5" height="4.5"/>
	
		<rect x="77.3" y="76.3" transform="matrix(0.4999 -0.8661 0.8661 0.4999 -28.1876 108.1695)" class="st0" width="4.5" height="4.5"/>
	
		<rect x="69.6" y="71.8" transform="matrix(0.4999 -0.8661 0.8661 0.4999 -28.1849 99.2555)" class="st0" width="4.5" height="4.5"/>
	<rect x="23.2" y="80.7" transform="matrix(0.866 -0.5001 0.5001 0.866 -38.0748 23.8464)" class="st0" width="4.5" height="4.5"/>
	<rect x="7.8" y="89.6" transform="matrix(0.866 -0.5001 0.5001 0.866 -44.609 17.3134)" class="st0" width="4.5" height="4.5"/>
	<rect x="15.5" y="85.2" transform="matrix(0.866 -0.5001 0.5001 0.866 -41.342 20.5799)" class="st0" width="4.5" height="4.5"/>
	<rect x="46.4" y="67.3" transform="matrix(0.866 -0.5 0.5 0.866 -28.2672 33.633)" class="st0" width="4.5" height="4.5"/>
	
		<rect x="30.9" y="76.2" transform="matrix(0.8659 -0.5003 0.5003 0.8659 -34.8174 27.1258)" class="st0" width="4.5" height="4.5"/>
	<rect x="38.7" y="71.8" transform="matrix(0.866 -0.5001 0.5001 0.866 -31.5407 30.3798)" class="st0" width="4.5" height="4.5"/>
	<rect x="54.1" y="36.1" class="st0" width="4.5" height="4.5"/>
	<rect x="54.1" y="45" class="st0" width="4.5" height="4.5"/>
	<rect x="54.1" y="53.9" class="st0" width="4.5" height="4.5"/>
	<rect x="54.1" y="9.3" class="st0" width="4.5" height="4.5"/>
	<rect x="54.1" y="18.2" class="st0" width="4.5" height="4.5"/>
	<rect x="54.1" y="27.2" class="st0" width="4.5" height="4.5"/>
	<path class="st0" d="M56.4,0L0,32.5v65.1l56.4,32.5l56.4-32.5V32.6L56.4,0z M108.3,95.1l-49.6,28.6V66.4l49.6-28.7V95.1z M4.5,37.7
		l49.6,28.7v57.3L4.5,95V37.7z M106,33.9L56.4,62.5L6.7,33.8L56.4,5.2L106,33.9z"/>
</g>
</svg>
