<?xml version="1.0" encoding="utf-8"?>
<!-- Generator: Adobe Illustrator 19.2.0, SVG Export Plug-In . SVG Version: 6.00 Build 0)  -->
<svg version="1.1" id="Layer_1" xmlns="http://www.w3.org/2000/svg" xmlns:xlink="http://www.w3.org/1999/xlink" x="0px" y="0px"
	 width="100px" height="100.1px" viewBox="0 0 100 100.1" style="enable-background:new 0 0 100 100.1;" xml:space="preserve">
<style type="text/css">
	.st0{fill:#FFFFFF;}
	.st1{fill:#78C483;}
</style>
<path class="st0" d="M50,0C49.5,0.7,0.1,99.7,0,100.1c11.7,0,23.4,0,35.1,0c5.2-10.3,10.3-20.7,15.5-31c9.1,0,18.2,0,27.4,0
	c5.2,10.3,10.3,20.7,15.5,31c2.2,0,4.3,0,6.6,0C83.3,66.7,66.7,33.4,50,0z M53.5,63.2c3.6-7.1,7.1-14.2,10.7-21.4
	C67.8,48.9,71.4,56,75,63.2C67.8,63.2,60.7,63.2,53.5,63.2z"/>
<g>
	<path class="st1" d="M47,63.2c-7.3,0-14.6,0-21.9,0c0.1-0.4,24.4-49.2,24.9-50c3.7,7.3,7.3,14.6,11,21.9
		C56.3,44.5,51.6,53.8,47,63.2z"/>
	<path class="st1" d="M9.5,94.2c4.2-8.4,8.4-16.7,12.5-25.1c7.3,0,14.6,0,21.9,0C43.8,69.6,32,93.2,31.4,94.2
		C24.1,94.2,16.9,94.2,9.5,94.2z"/>
</g>
</svg>
