<?xml version="1.0" encoding="utf-8"?>
<!-- Generator: Adobe Illustrator 19.2.0, SVG Export Plug-In . SVG Version: 6.00 Build 0)  -->
<svg version="1.1" id="Layer_1" xmlns="http://www.w3.org/2000/svg" xmlns:xlink="http://www.w3.org/1999/xlink" x="0px" y="0px"
	 width="577.8px" height="441.7px" viewBox="0 0 577.8 441.7" style="enable-background:new 0 0 577.8 441.7;" xml:space="preserve"
	>
<style type="text/css">
	.st0{fill:#FFFFFF;}
</style>
<path class="st0" d="M62.5,394.3H48.3v30.5h14.1c9,0,15.7-5.4,15.7-15.2C78.2,399.6,71.5,394.3,62.5,394.3z M62.1,417.3h-5.2v-15.6
	h5.2c4.3,0,7.2,2.8,7.2,7.8C69.3,414.5,66.4,417.3,62.1,417.3z"/>
<path class="st0" d="M165.5,394.3h-10.1L144,424.7h8.7l1.8-5.2h11.9l1.8,5.2h8.7L165.5,394.3z M156.6,413.2l3.8-10.5l3.8,10.5H156.6
	z"/>
<path class="st0" d="M31.5,394.3H21.3L9.9,424.7h8.7l1.8-5.2h11.9l1.8,5.2h8.7L31.5,394.3z M22.5,413.2l3.9-10.5l3.8,10.5H22.5z"/>
<path class="st0" d="M214.1,394.3H200v30.5h14.1c9,0,15.7-5.4,15.7-15.2C229.9,399.6,223.2,394.3,214.1,394.3z M213.8,417.3h-5.2
	v-15.6h5.2c4.3,0,7.2,2.8,7.2,7.8C221,414.5,218.1,417.3,213.8,417.3z"/>
<polygon class="st0" points="126.8,394.3 118.2,394.3 118.2,424.7 141.4,424.7 141.4,417.3 126.8,417.3 "/>
<polygon class="st0" points="85.6,424.7 110.4,424.7 110.4,417.2 93.8,417.2 93.8,412.8 107.1,412.8 107.1,405.8 93.8,405.8 
	93.8,401.7 110.4,401.7 110.4,394.3 85.6,394.3 "/>
<rect x="182.4" y="394.3" class="st0" width="8.6" height="30.5"/>
<polygon class="st0" points="464.8,413.6 458.5,394.3 449.1,394.3 452.6,403.9 448.1,415.1 440.6,394.3 431.3,394.3 442.7,424.7 
	452,424.7 456.3,414.1 460.3,424.7 469.7,424.7 481.1,394.3 471.7,394.3 "/>
<path class="st0" d="M410.5,406.5l-5.2-1.5c-1.6-0.5-2.2-1-2.2-2c0-1.3,1-2,3.3-2c3,0,6.6,1.1,9,2.4l2.4-7.1
	c-2.4-1.2-6.7-2.4-11.1-2.4c-8.2,0-12.4,4.2-12.4,9.6c0,4.4,2.6,7,7.7,8.5l4.8,1.4c1.9,0.5,2.8,1.2,2.8,2.3c0,1.7-1.5,2.4-4,2.4
	c-3.7,0-7.1-1.4-9.5-3l-2,7.5c2,1.1,6.8,2.6,11.4,2.6c7.8,0,12.9-4.2,12.9-10.1C418.5,411,416.2,408.2,410.5,406.5z"/>
<polygon class="st0" points="567.9,401.7 567.9,394.3 543.1,394.3 543.1,424.7 567.9,424.7 567.9,417.2 551.3,417.2 551.3,412.8 
	564.7,412.8 564.7,405.8 551.3,405.8 551.3,401.7 "/>
<polygon class="st0" points="237.3,424.7 262.1,424.7 262.1,417.2 245.5,417.2 245.5,412.8 258.8,412.8 258.8,405.8 245.5,405.8 
	245.5,401.7 262.1,401.7 262.1,394.3 237.3,394.3 "/>
<polygon class="st0" points="525.5,411 511.6,394.3 504.2,394.3 504.2,424.7 512.8,424.7 512.8,408 526.6,424.7 534.1,424.7 
	534.1,394.3 525.5,394.3 "/>
<rect x="486.5" y="394.3" class="st0" width="8.6" height="30.5"/>
<polygon class="st0" points="375,394.3 366.4,394.3 366.4,424.7 389.6,424.7 389.6,417.3 375,417.3 "/>
<polygon class="st0" points="345.6,394.3 337,394.3 337,424.7 360.2,424.7 360.2,417.3 345.6,417.3 "/>
<g>
	<path class="st0" d="M461.3,301.3l-7.8-13.6h-36.7l14.7,25.4c2.1,3.7,6,5.9,10.2,5.9h9.5c4.2,0,8.1-2.2,10.2-5.9
		C463.4,309.5,463.4,305,461.3,301.3z"/>
	<path class="st0" d="M397.3,190.6L397.3,190.6l-15.2-26.4h0v0h0l0,0v0h0L300.2,22.4c-2-3.5-5.8-5.7-9.9-5.9v52.4l29.4,50.9
		l-25.6,44.3h0v0h0.3v63.2h87.4l15.5,26.8v0l19.4,33.6h36.7L397.3,190.6z M312.7,195.6l12.7-22l5.5-9.5h0v0h0l7.2-12.5l7.2,12.5v0h0
		l5.5,9.5l12.7,22H312.7z"/>
	<path class="st0" d="M290,68.4l-0.5,0.9h0h0.9v-0.3l0,0V16.5c-0.1,0-0.2,0-0.4,0c-4.2,0-8.1,2.2-10.2,5.9l-27,46.8h36.7L290,68.4z"
		/>
	<path class="st0" d="M224.4,284.9C224.4,284.9,224.4,284.9,224.4,284.9c0,0.1-0.1,0.1-0.1,0.1l-1.3,2.2h-31.6v0h-27.9L177,264h0v0
		h0l14.5-25.1v-63.6L140.3,264h0l0,0h0l-21.6,37.3c-2.1,3.7-2.1,8.2,0,11.8c2.1,3.7,6,5.9,10.2,5.9h62.6v0h33.6h9.5h0
		c0.1,0,0.2,0,0.3,0c0.3,0,0.5,0,0.8-0.1c0.2,0,0.4,0,0.7-0.1c0.2,0,0.3-0.1,0.5-0.1c0.1,0,0.2,0,0.3-0.1c0.1,0,0.2,0,0.2-0.1
		c0.1,0,0.3-0.1,0.4-0.1c1.2-0.3,2.3-0.9,3.4-1.6c0,0,0,0,0,0c1.5-1,2.7-2.3,3.7-3.9l4.7-8.1c0,0,0,0,0-0.1c0,0,0,0,0,0l23.6-40.9
		h-36.8L224.4,284.9z"/>
	<polygon class="st0" points="197.9,164.2 234.7,164.2 234.7,164.1 234.7,164.1 289.5,69.2 252.7,69.2 197.9,164.1 197.9,164.1 	"/>
	<path class="st0" d="M276,195.6h-59.5l18.1-31.4h-36.7l-6.4,11.1v63.6l5.2-9c0,0,0,0,0-0.1c0,0,0,0,0-0.1l1.4-2.4h59.5L236.5,264h0
		l0,0h36.8v0h0l21.1-36.6h0v-63.2h-0.3L276,195.6z"/>
</g>
<rect x="319.3" y="394.3" class="st0" width="8.6" height="30.5"/>
<polygon class="st0" points="301.7,405.6 289,405.6 289,394.3 280.4,394.3 280.4,424.7 289,424.7 289,413 301.7,413 301.7,424.7 
	310.3,424.7 310.3,394.3 301.7,394.3 "/>
</svg>
