<?xml version="1.0" encoding="utf-8"?>
<!-- Generator: Adobe Illustrator 19.2.0, SVG Export Plug-In . SVG Version: 6.00 Build 0)  -->
<svg version="1.1" id="Layer_1" xmlns="http://www.w3.org/2000/svg" xmlns:xlink="http://www.w3.org/1999/xlink" x="0px" y="0px"
	 viewBox="0 0 375 600" style="enable-background:new 0 0 375 600;" xml:space="preserve">
<style type="text/css">
	.st0{fill:#4682B4;stroke:#FFFFFF;}
</style>
<path class="st0" d="M259.5,318.9l-2.6,0.2l-3.6-2.3L250,316l0.1,3.3l0.6,0.6l1.2,5l0.4,5l2.6,6.4l0.8,5.9l-0.6,3.4l-0.7,7.4
	l-3.4,0.1l-5.9,0.8l-3.4-2.7l-2.2,1.4l-0.6,1.6l0,5.1l-0.6,8.6l-2.2,2.4l-6.9-1l-2.6,0l-0.7,6.7l-0.6-1.5l-1.4-1.8l-1-1.1l0-2.9
	l-1-4l-0.8-1.5l-0.7-0.6l-2.6-6.7l-12.8-2.8l-1.8-2.7l-0.4,0.5l-5.8-8.7l-1.5-0.6l-2.6-3.1l-2-0.6l2.2-11.2l1.2-0.5l0.2-2l0.7-3.2
	l1.8-4.8l1.9-2.7l1.2,0.4l0.6-0.8l0.5-0.7l-0.2-1.7l0.4-1.2l1.6-0.3l2-1.4l0.1-2.3l0.7-1.3l0.6-0.3l0.8,0.6l2,0.8l1,2.1l-0.3,1.4
	l1.1,0l1.1,1.1l1.4,0.1l2.4-1.1l1.4-1.5l0.6-2.1l1.4-2.7l1.4-0.3l2.2-0.2l-0.2-3.6l-0.2-0.7L222,292l0.4-0.2l-0.1-4.4l14.9-1l8,0.1
	l0,0.4l1.5,0.4l2.3-0.8l1.5-1.7l2.5-0.2l0.9,0.2l1.3-2l1.1-0.6l1.8,0.4l2.9-1.2l1.1,0l1.6,0.7l1.1,0l0.9-0.3l1.3,0.5l-2,7.2l0.1,6.9
	l1.1,5l-2.1,6.5l0.3,4.9l-2.6,2.3l0.6,3.4l-0.3,1.3L259.5,318.9z"/>
<path class="st0" d="M196,415.9l-0.7,6.9l-3.6,6.8l0,5.9l-0.9,3.3l0.1,1.7l-1.9,6.6l0.6,5l-1.2,4.1l-1.9,2.7l-2.7,0.2l-2-1.7l-3.3-1
	l-1.4-2.2l-1.4-0.8l-2.5,0.9l-1.8-0.2l-1.8-1.8l-2.6-0.5l-1.5,0.7l-0.7,7l-1.6,3.1l-1.4,0.4l-3-1.9l-1.6-2.1l-5.6-1.8l-2-2.9
	l-2.3-1.1l-0.9-0.9l1-2.5l0.1-1.5l-1.2-3.9l0.4-1.4l-0.3-0.9l-1.1-1.5l-0.1-1.6l-0.3-0.7l1.7,0.3l1.4-0.6l2-2.6l0.7-1.8l0.9-0.4
	l1.4,0l1.1-0.7l1.7-0.2l2.9-10.4l-0.3-1.2l0.1-0.9l-1.4-4.7l0.3-4l2.1-1.2l1.8-1.7l7.3-0.4l10.4-0.1l3,2.1l0.4,1.6l3.1,2.6l0.6,0.8
	l0.9-1.6l1,0.1l2.8-1.1l0.7-0.1l0.6,0.2l0.6,0.6l0.5,0.2l0.4,0.8L196,415.9z"/>
<path class="st0" d="M196,415.9l-2.6-2.1l-0.4-0.8l-0.5-0.2l-0.6-0.6l-0.6-0.2l-0.7,0.1l-2.8,1.1l-1-0.1l-0.9,1.6l-0.6-0.8l-3.1-2.6
	l-0.4-1.6l-3-2.1l-10.4,0.1l-7.3,0.4l-1.8,1.7l-2.1,1.2l-14.9-3.4l-1.2,1.5l-2.3-1.4l-1.5,0.1l-0.3-5.2l-0.6-0.8l-0.2-5.9l-1.8-4.5
	l0-1.3l-1.6-5.1l0.1-7.2l-4-13.2l-6-3.8l-0.1-3.1l0.3-0.5l1.9-1.1l1.8-0.4l1.4-1.7l2.7-2.4l2,0l1.3-0.5l2.3-0.2l1.4,0.1l0.6-0.3
	l2.3-2l1.2-0.4l4.5-0.1l1.3-1.2l0.8-2.8l3.3-2h9.5l0.2,3.1l3.2,3l8.2,0l5.3-1.7l1.4,0.4l1,1.3l0.1,2.1l3.7,0l0.4-0.3l2.3-0.5
	l3.3-1.4l0-2l5.9-0.1l0.4-4.3l5.8,8.7l0.4-0.5l1.8,2.7l12.8,2.8l2.6,6.7l0.7,0.6l0.8,1.5l1,4l0,2.9l1,1.1l1.4,1.8l0.6,1.5l-0.1,1.2
	l2.3,2.6l-0.7,7.1l1.3,4.8l-1.4,12.2l-0.4,1.6l-1.3,3.2l0.3,1.7l-4,1.3l-3.4-0.8l-5.1,0.3l-10.2-1.9l-2.8,2l-2.5-0.2l-0.1,1.7
	L196,415.9z"/>
<path class="st0" d="M137.1,402.6l-6.7-0.2l-0.5,1.1l-0.6,0.3l-0.1,11.3l-5,0.1l-0.4,2.5l-0.6,0.6l-7.1-3.5l-0.3-0.4l-8-3.9l3.6-7.3
	l-1,0.2l-1.8-0.4l-1.2,0.2l-2.8-0.3l-1.2-3.3l-1.7-1.1l-4.7-0.6l-1.3-0.7l-0.6,0.2l-1.1,0.7l-1.1-0.4l-1.1-1.7l-2-0.3l-1-1.1H88
	l-0.6,1l-0.9,0.6l-1.3,1.5l-0.9,1.3l-0.4-7.9l-0.4-1.7l-5.1-0.2l-3.1-1.7l0.5-6.8l2.3-1l-0.1-2.5l-1.3-0.7l-2.4,2.3l-1.4-0.6
	l-0.2-1.6l-2.7-2.1l-5.9,0.2l0.6,3.4l-1.4,0.4l-0.7-1.6l-9.6-3.4l-0.4,1.6l4,2.9l-5.6,1.5l-2.7-1.9l-4.8-1.7l-4.2,0.8l-1.6-0.4
	l-1.8-3l-4.1-3.2l-0.6-3.3l2.2-4.6l-0.3-3.4l2.6-2.2l2.3-0.7l1.8-2.7l11.6,0.3l7.9-1.2l0.7-0.9l2.2-0.3l0.6,0.1l5.1-0.4l0.2,0.1
	l17.5-0.9l-0.1-3.4l4.6-0.3l-0.1-1.8l0.5-0.1l1.2,1l0.3,0l-0.2-0.9l0.1-0.1l1.2-0.5l0.9-0.2l1,0.3l0.4,0.5l1.1,0.4l0.7,0.4l0.9,0.7
	l1.3,0.2l1.2,0.9l1,0.3l0.9-1.1l1.5-1.8l0.8-2l1.2-0.5l1-0.2l3.8-5l2.7-1.2l-0.6-0.8l0.5-1.3l1.5-7l0.2-2.1l-0.4-0.6l-0.6-0.9
	l0.2-0.6l0.7-0.7l1.1-2.4l-0.9-1.4l0.4-0.9l1.4-3.9l-1-1.1l-1.5-2l-0.3-3.4l-1.4-1.8l2.1-0.9l0.2-1.4l3.5-9.7l2.1,1.1l1,0.7l1.6-1.2
	l3-1.4l1.8-0.4l1.9-1l0.7-0.1l1.5-0.3l1.4-0.6l0.9,0l1.6-0.3l0.7,0.2l0.6,0.4l0.8-1.4l0.1-0.6l0-3.8l0.5-1.1l1-0.7l3.5-0.6l1.3-1.8
	l0.2-0.8l-0.2-0.4l-1.3-0.8l-0.6-1.2l-1.3-1.2l-0.1-2.4l-0.4-0.6l0.7-1.1l0.2-0.7l-0.1-0.6l-0.3-0.5l0.1-0.7l0.4-0.7l-0.2-0.6
	l0.2-0.8l-0.1-0.3l-0.9-0.8l-0.2-1.1l-1.5-1.7l-0.1-0.4l-0.2-0.2l-0.3-0.1l-0.8,0.1l-0.3-0.2l-0.2-0.5l0.1-0.4l0-0.3l-0.5-0.5
	l-1.2-0.9l1.4,0l2.3,0.1l1.7-0.2l0.6-0.1l0.2-0.2l0.3-0.1l0.3-0.3l0.1-1.6l2.3-4.7l-0.3-0.1l-0.3-0.3l-0.4-0.8l-0.1-0.1l-1-0.7
	l1.9-0.7l0.9-0.8l0.4-0.2l0.5,0l0.7,0.6l0.3-0.1l0.4-0.5l0.5-0.3l0.4-0.4l0.3,0.4l0.3,0.2l0.7-0.4l0.1-0.5l0.2-0.1l0.2,0.2l0.3,0
	l0.7-1.5l13.4,0.5l1,0.2l1.3-0.1l0.5,2.2l1.4,1.1l0.9,0l2.6-0.1l0.4-0.4l-0.2-1l1-1.7l1.2-2.1l1.2-0.6l0.2-1.2l0.5-1.8l-0.3-3.6
	l22.9-5.1l7.2-7.3l0.6,0.1l0.8-0.9l0.4-0.2l2.6-6.1l0.4-1.4l-0.3-1.4l0.7-1l-0.2-2.1l-0.6-0.6l-0.6-0.3l1.3-2.9l1.1-3.3l2,0.2l0.3-1
	l0.9-0.3l0.4-0.8l1.4-1.2l0.8-3.2l0.6-2.1l1.6-3l1.2-1.8l1.5-0.3l1.5,0.2l6.1-1.6l1.6-1.1l2-0.5l3.1,0.1l3.7,2.2l2.7,0.1l1.9-1.2
	l2.3-1.1l1.3-1.3l2.9-1.5l10.6-6.2l3-0.6l2.5-1.1l1.7-0.7l1.9-0.4l4.7-2.5l1.1,0l2.5-1.1l1.4-1.3l1.3-0.4l1.1,0.4l1.1,1.8l1.8,1.2
	l0.8,0.1l0.8-0.1l1,1.2l0,1.1l1.9,3.7l-0.2,3.4l-1.9,4.7l-2.5,4.3l1,3.3l-1.5,3.4l-2.4,2.6l-2.6,6.5l1.7,1.9l2.1,4.8l-3.5,2.3
	l-1,3.3l-2.6,2.2l-0.3,3.4l1.5,3.2l-0.9,3.3l-0.1,3.5l-2.5,0.3l-2.1,1.5l-3.8,4.7l-3.4,2.4l-0.8,0l-5.4,4.2l-2.8,4.3l-1.3,3.2
	l-1.9,1.7l3.8,3.5l3.7,5.6l2.4,0.9l1.9,2.9l1.4,1l0.7,2.4l-2,6.1l-1.3-0.5l-0.9,0.3l-1.1,0l-1.6-0.7l-1.1,0l-2.9,1.2l-1.8-0.4
	l-1.1,0.6l-1.3,2l-0.9-0.2l-2.5,0.2l-1.5,1.7l-2.3,0.8l-1.5-0.4l0-0.4l-8-0.1l-14.9,1l0.1,4.4L222,292l0.4,5.6l0.2,0.7l0.2,3.6
	l-2.2,0.2l-1.4,0.3l-1.4,2.7l-0.6,2.1l-1.4,1.5l-2.4,1.1l-1.4-0.1l-1.1-1.1l-1.1,0l0.3-1.4l-1-2.1l-2-0.8l-0.8-0.6l-0.6,0.3
	l-0.7,1.3l-0.1,2.3l-2,1.4l-1.6,0.3l-0.4,1.2l0.2,1.7l-0.5,0.7l-0.6,0.8l-1.2-0.4l-1.9,2.7l-1.8,4.8l-0.7,3.2l-0.2,2l-1.2,0.5
	l-2.2,11.2l2,0.6l2.6,3.1l1.5,0.6l-0.4,4.3l-5.9,0.1l0,2l-3.3,1.4l-2.3,0.5l-0.4,0.3l-3.7,0l-0.1-2.1l-1-1.3l-1.4-0.4l-5.3,1.7
	l-8.2,0l-3.2-3l-0.2-3.1H152l-3.3,2l-0.8,2.8l-1.3,1.2l-4.5,0.1l-1.2,0.4l-2.3,2l-0.6,0.3l-1.4-0.1l-2.3,0.2l-1.3,0.5l-2,0l-2.7,2.4
	l-1.4,1.7l-1.8,0.4l-1.9,1.1l-0.3,0.5l0.1,3.1l6,3.8l4,13.2l-0.1,7.2l1.6,5.1l0,1.3l1.8,4.5l0.2,5.9L137.1,402.6z"/>
<path class="st0" d="M165.5,247.5l-13.4-0.5l0.5-0.7l0.2-0.9l0.5-0.8l0-1l0.4-0.4l0.1-0.6l-0.2-0.4l0.5-0.5l0.4-1.4l0.4-0.7l0.5-0.4
	l0.3,0.1l0.2,0.2l0.2,0.1l0.7-0.4l0.2-0.3l0-0.5l0.3-0.3l0.2-0.4l0.3-0.2l0.1-0.3l-0.2-0.4l0.4-0.2l0.6,0.1l0.9-0.9l0.1-0.5l0.4-0.8
	l-0.2-0.7l0-0.6l-0.2-0.6l-0.1-0.7l0.3-1.7l0.1-0.9l-0.4-1.4l0.6-0.6l0.4-0.9l0.3-2.2l-0.4-1l0.5-1.6l0.8-1.6l0.7,0l1,0.4l0.9-1.2
	l0.3-1l-0.1-1.3l-1.1-1.4l0-1.1l-0.6-1l0.8-2.5l-0.5-1.5l0.1-1.3l0.3-0.2l0.9-0.8l-0.2-0.6l0.3-1.9l-0.2-3.9l1.4-1.6l1.3-0.3
	l1.4-0.6l0.9-0.2l0.5,0.6l1-0.4l1.2-0.3l0.2-1.6l2.9,0.1l0.3-0.9l0.3-0.2l1.3,1l1-0.4l1,0.4l0.9-0.6l-0.1-1.2l1.7-0.6l1-1.6
	l-1.1-2.1l0.3-0.9l-0.7,0l-0.7-0.5l0.5-1.3l1.2-0.6l0.4-1.4l0.8-0.8l1.3-0.1l1.3,0.5l1.2-0.2l0.9,0.5l0.2,1.5l0.6,1l1.1,0.4l1.5-0.5
	l0.9,0.2l2,0l1.9,0.6l2.8-1.7l0.8-2.4l1.1,0l0.8,0.2l1,0.2l0.1,0.7l0.4,1.3l2,0.9l1.5,0.9l2,9.2l1.1,3.2l-0.4,1l0.1,2.1l1.5,0
	l2.6,1.1l-1.1,3.3l-1.3,2.9l0.6,0.3l0.6,0.6l0.2,2.1l-0.7,1l0.3,1.4l-0.4,1.4l-1.3,3l-1.3,3.1l-0.4,0.2l-0.8,0.9l-0.6-0.1l-7.2,7.3
	l-22.9,5.1l0.3,3.6l-0.5,1.8l-0.2,1.2l-1.2,0.6l-2.2,3.8l0.2,1l-0.4,0.4l-2.6,0.1l-0.9,0l-1.4-1.1l-0.5-2.2l-1.3,0.1L165.5,247.5z"
	/>
<path class="st0" d="M84.3,399.3l0.9-1.3l1.3-1.5l0.9-0.6l0.6-1h0.8l1,1.1l2,0.3l1.1,1.7l1.1,0.4l1.1-0.7l0.6-0.2l1.3,0.7l4.7,0.6
	l1.7,1.1l1.2,3.3l2.8,0.3l1.2-0.2l1.8,0.4l1-0.2l-3.6,7.3l8,3.9l0.3,0.4l7.1,3.5l0.6-0.6l0.4-2.5l5-0.1l0.1-11.3l0.6-0.3l0.5-1.1
	l6.7,0.2l0.3,5.2l1.5-0.1l2.3,1.4l1.2-1.5l14.9,3.4l-0.3,4l1.4,4.7l-0.1,0.9l0.3,1.2l-2.9,10.4l-1.7,0.2l-1.1,0.7l-1.4,0l-0.9,0.4
	l-0.7,1.8l-2,2.6l-1.4,0.6l-1.7-0.3l0.3,0.7l0.1,1.6l1.1,1.5l0.3,0.9l-0.4,1.4l1.2,3.9l-0.1,1.5l-1,2.5l0.9,0.9l-1.7,1.6l0.4,1.7
	l2.5,2.3l1.1,3.3l-1.6,3.1l-0.5,4.4l0.1,3.3l-2.9,4.4l-1.2,3.3l0.4,1.8l-0.8,3.4l-1.8,2l-0.3,6.9l-0.8,1.6l-2.8,2.7l-0.5,3.4
	l0.4,6.9l-1.3,1l-4-1l-2.1,2.5l-1.2-0.3l-2.1,1.4l-2,3.1l-3.7,3.2l-5,2.9l-2.4,2.2l-3.5,1.7l-1.8-0.3l-1-4.4l-0.3,5.6l0.7,5.4
	l-0.9,2.7l-2.5,1.2l-9.9,7.4l-2.1,2.3l-2.5,1l-3.6,2.5l-5.4,5.6l-3.1-0.2l-2.3,0.9l-2.4,4.5l-1.2,3.6l-2.1,1.7l-0.8,2.3L66,573
	l-0.6,2.9l-3.6,1.4l-3.8,5.2l-1.2,0.8l-8.9,1.7l-6.7-2.5l-1.7,0.9l-1.9-0.7l-3.9-2.6l-4.6-0.1l-2.9-1.2l-8-7l-5.1-7.4l-2.6-2.9
	l-1.2-2.8l2.3-6.2l0.9-5.9l0.8-0.9l-1.5-7.6l-1.2-2.5l4.3-8l2.2-1.5l2.3-4.6l3.9-3.5l4.7-6.4l4-3.3l0.7-1.6l2.6-2.4l3.1-7.2l4.3-2.9
	l0.2-3.4l2.9-6.3l3.6-3.7l1.3-5.1l-0.1-1.8l3.2-8.5l1.4-1.1l5.7-2.1l1-2.3l-1.1-5.1l1-3.3l1.3-1.1l1.3-3.2l1.2-0.4l4,1.5l4.8-2.4
	l1.4-1.1l-0.4-5l-2.8-3.2l-0.7-1.6l2.8-6.5l1.5-0.9l4.3,2.7l1.7,0.1l0.9-1.5l1.4-7.6l-2.5-2.2l0-1.7l6.2-12.7l-0.2-3.3L84.3,399.3z"
	/>
<path class="st0" d="M115.1,304.5l-2.1,0.9l1.4,1.8l0.3,3.4l1.5,2l1,1.1l-1.4,3.9l-0.4,0.9l0.9,1.4l-1.1,2.4l-0.7,0.7l-0.2,0.6
	l0.6,0.9l0.4,0.6l-0.2,2.1l-1.5,7l-0.5,1.3l0.6,0.8l-2.7,1.2l-3.8,5l-1,0.2l-1.2,0.5l-0.7,1.8l-1.5,2l-0.9,1.1l-1-0.3l-1.2-0.9
	l-1.3-0.2l-0.9-0.7l-0.7-0.4l-1.1-0.4l-0.4-0.5l-1-0.3l-0.9,0.2l-1.2,0.5l-0.1,0.1l0.2,0.9l-0.3,0l-1.2-1l-0.5,0.1l0.1,1.8l-4.6,0.3
	l0.1,3.4l-17.5,0.9l-0.2-0.1l-5.1,0.4l-0.6-0.1l-2.2,0.3l-0.7,0.9l-7.9,1.2l-11.6-0.3l0.2-3.3l1.9-1.7l3.4-6l4.8,2l6-4.9l1.2-2.2
	l2.9,0l3.8-0.9l1.6-0.8l3.7,2.3l1.7-0.4l0.7-52.9l0.3-25.8l3.1,2l2.5-0.2l2.5,0.8l4.3,0.6l1,3.3l1.6,3.1l3.3,2.8l2.5,5.6l3.8,2
	l2.2-0.6l-0.9,2.4l1,0.1l2-0.6l1.5,0.2l1.8,0.7l1.4,1.2l0.7,0.7l0.8,0.6l0.4,0.6l0,0.7l0.9,1.9l1.7,1.2l2.6,1l1.1,0.2l2.5-0.3
	l0.7,0.5l0.4,0.5l0.2,1.3l0.4,0.5l-0.2,0.7l0.3,0.5l0.8,0.3l-3.5,9.7L115.1,304.5z"/>
<path class="st0" d="M159.9,230.1l-0.3,1.7l0.1,0.7l0.2,0.6l0,0.6l0.2,0.7l-0.4,0.8l-0.1,0.5l-0.9,0.9l-0.6-0.1l-0.4,0.2l0.2,0.4
	l-0.1,0.3l-0.3,0.2l-0.2,0.4l-0.3,0.3l0,0.5l-0.2,0.3l-0.7,0.4l-0.2-0.1l-0.2-0.2l-0.3-0.1l-0.5,0.4l-0.4,0.7l-0.4,1.4l-0.5,0.5
	l0.2,0.4l-0.1,0.6l-0.4,0.4l0,1l-0.5,0.8l-0.2,0.9l-0.5,0.7l-0.7,1.5l-0.3,0l-0.2-0.2l-0.2,0.1l-0.1,0.5l-0.7,0.4l-0.3-0.2l-0.3-0.4
	l-0.4,0.4l-0.5,0.3l-0.4,0.5l-0.3,0.1l-0.7-0.6l-0.5,0l-0.4,0.2l-0.9,0.8l-1.9,0.7l1,0.7l0.4,0.9l0.3,0.3l0.3,0.2l-2.3,4.7l-0.1,1.6
	l-0.3,0.3l-0.3,0.1l-0.2,0.2l-0.6,0.1l-1.7,0.2l-2.3-0.1l-1.4,0l1.2,0.9l0.5,0.5l0,0.3l-0.1,0.4l0.2,0.5l0.3,0.2l0.8-0.1l0.3,0.1
	l0.2,0.2l0.1,0.4l1.5,1.7l0.2,1.1l0.9,0.8l0.1,0.3l-0.2,0.8l0.2,0.6l-0.4,0.7l-0.1,0.7l0.3,0.5l0.1,0.6l-0.2,0.7l-0.7,1.1l0.4,0.6
	l0.1,2.4l1.3,1.2l0.6,1.2l1.3,0.8l0.2,0.4l-0.2,0.8l-1.3,1.8l-3.5,0.6l-1,0.7l-0.5,1.1l0,3.8l-0.1,0.6l-0.8,1.4l-0.6-0.4l-0.7-0.2
	l-1.6,0.3l-0.9,0l-1.4,0.6l-1.5,0.3l-0.7,0.1l-1.9,1l-1.8,0.4l-3,1.4l-1.6,1.2l-1-0.7l-2.1-1.1l-0.8-0.3l-0.3-0.5l0.2-0.7l-0.4-0.5
	l-0.2-1.3l-0.4-0.5l-0.7-0.5l-2.5,0.3l-1.1-0.2l-2.6-1l-1.7-1.2l-0.9-1.9l0-0.7l-0.4-0.6l-0.8-0.6l-0.7-0.7l-1.4-1.2l-1.8-0.7
	l-1.5-0.2l-2,0.6l-1-0.1l0.2-0.7l0.4-0.9l0.3-0.8l0.5-0.3l1.5-0.1l2.1-2.6l0-0.5l-0.7-0.9l-0.3-1l0.1-0.6l0.6-1.7l0-0.4l-0.3-0.6
	l0-0.5l-0.1-1.5l0.2-0.6l0.3-1.6l0.1-1l0-0.9l0-0.3l0.3-1.3l-0.1-0.2l-0.4-0.2l-0.5,0l-0.2-0.2l0-0.4l-0.3-0.6l0-0.4l-0.2-0.5
	l0.3-1.4l0.4-0.1l1.2,0.4l0.4-0.1l1.1-1.2l0.6-1l0.4-0.7l0-0.4l-0.2-0.2l-1.2-1l-0.8-0.7l0.1-0.2l0.2-0.2l0.4-0.2l0.8-0.5l-0.1-0.5
	l0.3-0.1l0.4,0.1l0.2-0.1l0.5-1.5l0.2-0.4l-0.2-0.5l-0.5-0.6l0.2-1l0.4-0.2l0.9-1.2l0.1-0.7l0.4-0.6l0.4-0.5l0.5-0.4l-0.1-1.6
	l-0.3-0.8l0.1-0.4l0.2-0.4l-0.2-0.4l0.2-1.7l-0.4-0.7l0.2-0.8l1.3-1.1l0.5-0.3l0.7-0.3l0.6-0.9l1-0.6l0.8-0.1l1.1,0.5l0.8-0.1
	l0.3-0.8l0.7-0.2l0.8,0.1l0.9,0.3l0.7,0l0.8-0.6l1-1l1.3-0.9l0.4-0.3l0.5-0.7l0.5-0.5l0.8-0.3l0.8,0l0.4-0.3l0.2-0.5l0.2-0.8
	l0.4-0.4l-0.1-0.7l0.2-0.4l0.2-0.6l1.4-1l0.2,0.1l0.3,0.7l0.2,0.4l0.5,0.5l0.6,0.2l0.7,0l1.1-0.2l1.4-0.9l1-0.5l0.4,0l0.8-0.2
	l0.2-0.1l0.5,0h0.5l0.6-0.1l0.5-0.2l0.3,0.1l0.4,0.2l0.1-0.1l0.8,0.2l0.3-0.2l3.1,1.6l0.9,0.5l-0.1,0.3l0.3,0.6l0.4,0.2l0.3,0.2
	l-0.3,0.4l-0.4,1.1l-0.4,0.4l-0.8,0.4l0.3,0.5l0,0.8l-0.7,0.9l-0.3,0.8l0.4,0.1l0.3,0.3l0.3,0.1l0.4-0.7l0.6-0.2l0.3-0.4l-0.2-0.4
	l0.1-0.4l0.8-0.5l0.8-0.8l0.6,0.3l0.5,0.8l-0.2,1.1l-0.1,1l0.4,0.2l0.2-0.5l0.4-0.1l0-0.4l0.3-0.2l0.4-0.7h0.3l0.5,0.8l0.9,0.5
	l-0.1-1.3l0.1-0.7l0.2-0.7l0.4-0.1l0.6,0.6l1.4,0.5l0.3-0.1l0.9,0.7l0.4-0.5l0.5,0l1.3,0.5l0.2,0.2l1.6-0.2l0.4-0.3l0.7-0.2l0.3-0.5
	l0.5,0l0.5-0.3L159.9,230.1z"/>
<path class="st0" d="M164.9,204.8l-0.3,1.9l0.2,0.6l-0.9,0.8l-0.3,0.2l-0.1,1.3l0.5,1.5l-0.8,2.5l0.6,1l0,1.1l1.1,1.4l0.1,1.3
	l-0.3,1l-0.9,1.2l-1-0.4l-0.7,0l-0.8,1.6l-0.5,1.6l0.4,1l-0.3,2.2l-0.4,0.9l-0.6,0.6l0.4,1.4l-0.1,0.9l-0.6,0.6l-0.5,0.3l-0.5,0
	l-0.3,0.5l-0.7,0.2l-0.4,0.3l-1.6,0.2l-0.2-0.2l-1.3-0.5l-0.5,0l-0.4,0.5l-0.9-0.7l-0.3,0.1l-1.4-0.5l-0.6-0.6l-0.4,0.1l-0.2,0.7
	l-0.1,0.7l0.1,1.3l-0.9-0.5l-0.5-0.8h-0.3l-0.4,0.7l-0.3,0.2l0,0.4l-0.4,0.1l-0.2,0.5l-0.4-0.2l0.1-1l0.2-1.1l-0.5-0.8l-0.6-0.3
	l-0.8,0.8l-0.8,0.5l-0.1,0.4l0.2,0.4l-0.3,0.4l-0.6,0.2l-0.4,0.7l-0.3-0.1l-0.3-0.3l-0.4-0.1l0.3-0.8l0.7-0.9l0-0.8l-0.3-0.5
	l0.8-0.4l0.4-0.4l0.4-1.1l0.3-0.4l-0.3-0.2l-0.4-0.2l-0.3-0.6l0.1-0.3l-4-2.2l-0.3,0.2l-0.8-0.2l-0.1,0.1l-0.4-0.2l-0.3-0.1
	l-0.5,0.2l-0.6,0.1h-0.5l-0.5,0l-0.2,0.1l-0.8,0.2l-0.4,0l-1,0.5l-1.4,0.9l-1.1,0.2l-0.7,0l-0.6-0.2l-0.5-0.5l-0.2-0.4l-0.3-0.7
	l-0.2-0.1l-1.4,1l-0.2,0.6l-0.2,0.4l0.1,0.7l-0.4,0.4l-0.2,0.8l-0.2,0.5l-0.4,0.3l-0.8,0l-0.8,0.3l-0.5,0.5l-0.5,0.7l-0.4,0.3
	l-1.3,0.9l-1,1l-0.8,0.6l-0.7,0l-0.9-0.3l-0.8-0.1l-0.7,0.2l2.9-4.4l-0.7-3.3l-13.2-3.9l0.4-15.2l9.7,0l0.5-17.8l4.3,1.2l5.2-4
	l4.9-0.5l0.6-0.2l0.8,0.3l0,1.3l1.7,1.8l-0.1,0.7l0.3,0.7l-0.1,0.4l0.2,0.2l0.9-0.3l0.5,0.3l0.5,1l0.1,0.9l-0.2,0.3l-0.1,0.3
	l0.5,0.5l0.8,0.2l0.9,0.8l0.5,0.1l1.1,0.6l0.9,1.3l3.9,1l0.3,1l0.6,0.5l0,0.3l9.1-0.1l0.4-0.2l1.2,1.2l1.1,0.8l0.2,0.3l1.2,0.8
	l0.2,0.5l0.2,0.2l0.6,0.2l0.2,0.2l0.2,0.1l0.2,0.9l0.6-0.1l0.2-0.2l0.8-0.3l0.4,0.2l1.2,0.3l0.3-0.1l0.2,0.3l1.2,0l0.2,0.3l0.3,0
	l0.2-0.1L164.9,204.8z"/>
<path class="st0" d="M127,183.6l2.4-1.5l1.7,0.1l1.7-53l-0.8-2.7l0.4-1.7l-2.9-1.7l-0.7-1.6l0.7-1.6l0.2-3.4l3.4-3.7l0.7-15.8
	l67.4-81l1.4-1l1.5,2.7l3.2,0.7l0.3,2.7l1.3-0.4l1.6,1.7l0.2,1.6l-1.8,0.6l-1.7-1.2l0.5,4l1.4,1l2.3,0l1.8-1.5l2.6-0.5l2.3,0.4
	l1,1.3l1.4-0.5l-1-2.3l2.1,0.6l4.5-0.9l3.4,2.2l0.9,1.2l-0.5,2.1l1.5-0.7l2.1,1.6l1.7-2.3l3.7,0.1l-0.6,1.9l1.3,1.4l2.3-0.7l1.6,0.6
	l-0.4,2l2.9,1.6l3.5-3.2l2-6.2l1.6,0.3l1.8,3l-0.2,1.2l3.3,0.4l-0.2-1.7l2.6-0.6l2-2.9l0.5-2.7l3.8,1.4l4.9-4.7l2.2-1l0.9,2.2l3.1,1
	l1.4,2.2l5.4,1.5l3.1,2.8l5.3-2.7l50,1.1l1,2.8l-0.2,4.1l0.8,3.8l1.5,3.7l1,5.5l0.3,3.7l3.5,1.3l3.1,0.6l1.9,4l2.8,3.3l3.6,3.1
	l1.3,3.9l1.7,2.9l-0.4,2.2l-2.1,2.3l-3,2.1l-13.3,19.9l14.8,12.6L351,121.1l-3.6,4.8l1.1,7.7l-0.5,8.6l-1.7,3l-2.2,1.1l-5.9,4.7
	l-5.2,1.2l-12.3,7l-5.6,4.2l-2,2.9l-4.1,3.1l-2.7,1.5l-1.7,2.8l-3.3,0.6l-0.6,1.6l-2.5,2.3l-1.7,0.2l-6-0.5l0-1.1l-1-1.2l-0.8,0.1
	l-0.8-0.1l-1.8-1.2l-1.1-1.8l-1.1-0.4l-1.3,0.4l-1.4,1.3l-2.5,1.1l-1.1,0l-4.7,2.5l-1.9,0.4l-1.7,0.7l-2.5,1.1l-3,0.6l-10.6,6.2
	l-2.9,1.5l-1.3,1.3l-2.3,1.1l-1.9,1.2l-2.7-0.1l-3.7-2.2l-3.1-0.1l-2,0.5L232,191l-6.1,1.6l-1.5-0.2l-1.5,0.3l-1.2,1.8l-1.6,3
	l-0.6,2.1l-0.8,3.2l-1.4,1.2l-0.4,0.8l-0.9,0.3l-0.3,1l-2-0.2l-2.6-1.1l-1.5,0l-0.1-2.1l0.4-1l-1.1-3.2l-2-9.2l-1.5-0.9l-2-0.9
	l-0.4-1.3l-0.1-0.7l-1-0.2L201,185l-1.1,0l-0.8,2.4l-2.8,1.7l-1.9-0.6l-2,0l-0.9-0.2l-1.5,0.5l-1.1-0.4l-0.6-1l-0.2-1.5l-0.9-0.5
	l-1.2,0.2l-1.3-0.5l-1.3,0.1l-0.8,0.8l-0.4,1.4l-1.2,0.6l-0.5,1.3l0.7,0.5l0.7,0l-0.3,0.9l1.1,2.1l-1,1.6l-1.7,0.6l0.1,1.2l-0.9,0.6
	l-1-0.4l-1,0.4l-1.3-1l-0.3,0.2l-0.3,0.9l-2.9-0.1l-0.2,1.6l-1.2,0.3l-1,0.4l-0.5-0.6l-0.9,0.2l-1.4,0.6l-1.3,0.3l-1.4,1.6l0.2,3.9
	l-0.9,0l-0.2,0.1l-0.3,0l-0.2-0.3l-1.2,0l-0.2-0.3l-0.3,0.1l-1.2-0.3l-0.4-0.2l-0.8,0.3l-0.2,0.2l-0.6,0.1l-0.2-0.9l-0.2-0.1
	l-0.2-0.2l-0.6-0.2l-0.2-0.2l-0.2-0.5l-1.2-0.8l-0.2-0.3l-1.1-0.8l-1.2-1.2l-0.4,0.2l-9.1,0.1l0-0.3l-0.6-0.5l-0.3-1l-3.9-1
	l-0.9-1.3l-1.1-0.6l-0.5-0.1l-0.9-0.8l-0.8-0.2l-0.5-0.5l0.1-0.3l0.2-0.3l-0.1-0.9l-0.5-1l-0.5-0.3l-0.9,0.3l-0.2-0.2l0.1-0.4
	l-0.3-0.7l0.1-0.7l-1.7-1.8l0-1.3l-0.8-0.3l-0.6,0.2L127,183.6z"/>
</svg>
