<?xml version="1.0" encoding="utf-8"?>
<!-- Generator: Adobe Illustrator 19.2.0, SVG Export Plug-In . SVG Version: 6.00 Build 0)  -->
<!DOCTYPE svg PUBLIC "-//W3C//DTD SVG 1.1//EN" "http://www.w3.org/Graphics/SVG/1.1/DTD/svg11.dtd">
<svg version="1.1" id="Layer_1" xmlns="http://www.w3.org/2000/svg" xmlns:xlink="http://www.w3.org/1999/xlink" x="0px" y="0px"
	 viewBox="0 0 204.9 55.2" style="enable-background:new 0 0 204.9 55.2;" xml:space="preserve">
<g>
	<path d="M21.4,54.3H11V25.2H3.9v-8.4H11V6.6h10.4v10.2h8v8.4h-8V54.3z"/>
	<path d="M40.4,38c0.8,6.1,5.3,8.7,10.8,8.7c4.1,0,7.1-0.9,10.8-3.3v8.6c-3.1,2.3-7.3,3.3-12.3,3.3c-11.4,0-19.2-7.4-19.2-19.3
		c0-11.8,7.4-19.9,17.6-19.9c10.9,0,16.5,7.6,16.5,18.6V38H40.4z M40.8,31.2h14.2c-0.3-4-2.5-6.9-6.6-6.9
		C44.9,24.3,41.9,26.5,40.8,31.2z"/>
	<path d="M91.8,27c-1.4-0.8-3.3-1.3-5.2-1.3c-3.5,0-6.4,1.8-7.1,5.3v23.3H69.1V16.8h10.4v3.7c1.6-2.7,4.7-4.5,8.4-4.5
		c1.8,0,3.4,0.3,3.9,0.7V27z"/>
	<path d="M118.9,27c-1.4-0.8-3.3-1.3-5.2-1.3c-3.5,0-6.4,1.8-7.1,5.3v23.3H96.2V16.8h10.4v3.7c1.6-2.7,4.7-4.5,8.4-4.5
		c1.8,0,3.4,0.3,3.9,0.7V27z"/>
	<path d="M138.4,55.2c-10.9,0-18.4-8.1-18.4-19.6C120,24,127.5,16,138.4,16s18.4,8.1,18.4,19.7C156.8,47.1,149.3,55.2,138.4,55.2z
		 M138.4,24.8c-5.2,0-8.1,4.5-8.1,10.8c0,6.2,2.9,10.8,8.1,10.8s8.1-4.5,8.1-10.8C146.5,29.3,143.6,24.8,138.4,24.8z"/>
	<path d="M166.3,11.9c-3.4,0-6.2-2.4-6.2-6c0-3.4,2.9-6,6.2-6c3.3,0,6.1,2.5,6.1,6C172.4,9.5,169.6,11.9,166.3,11.9z M171.5,54.3
		h-10.4V16.8h10.4V54.3z"/>
	<path d="M201,27c-1.4-0.8-3.3-1.3-5.2-1.3c-3.5,0-6.4,1.8-7.1,5.3v23.3h-10.4V16.8h10.4v3.7c1.6-2.7,4.7-4.5,8.4-4.5
		c1.8,0,3.4,0.3,3.9,0.7V27z"/>
</g>
</svg>
