<?xml version="1.0" encoding="utf-8"?>
<!-- Generator: Adobe Illustrator 19.2.0, SVG Export Plug-In . SVG Version: 6.00 Build 0)  -->
<svg version="1.1" id="Layer_1" xmlns="http://www.w3.org/2000/svg" xmlns:xlink="http://www.w3.org/1999/xlink" x="0px" y="0px"
	 width="226.8px" height="226.8px" viewBox="0 0 226.8 226.8" style="enable-background:new 0 0 226.8 226.8;" xml:space="preserve"
	>
<style type="text/css">
	.st0{fill:#FFFFFF;}
</style>
<g>
	<path class="st0" d="M129.5,72.1c-6.8,0-12.3,5.5-12.3,12.3s5.5,12.3,12.3,12.3h12.3V84.4C141.8,77.6,136.3,72.1,129.5,72.1z"/>
	<path class="st0" d="M113.4,0C50.8,0,0,50.8,0,113.4s50.8,113.4,113.4,113.4S226.8,176,226.8,113.4S176,0,113.4,0z M158.1,137.1
		c0,24.6-20,44.7-44.7,44.7s-44.7-20-44.7-44.7V64H85v73.1c0,15.7,12.7,28.4,28.4,28.4s28.4-12.7,28.4-28.4v-13.6l16.3-4.7V137.1z
		 M174.6,113h-45.1c-15.7,0-28.6-12.8-28.6-28.6c0-15.7,12.8-28.5,28.6-28.5c15.7,0,28.6,12.8,28.6,28.5v12.3h16.5V113z"/>
</g>
</svg>
